<svg version="1.1" xmlns="http://www.w3.org/2000/svg" width="200" height="218.36" viewBox="0 0 200 218.358">
<title>Barretos Esporte Clube</title>
<path fill="#008837" clip-rule="evenodd" d="M162.75,4.154c-19.69,22.964-40.61,27.479-62.75,13.546-22.138,13.933-43.055,9.418-62.75-13.545l-21.609,17.37c3.796,10.081,12.063,22.313,1.113,55.907-6.229,19.109-29.18,56.963,3.326,89.412,19.006,18.98,51.15,37.44,79.92,48.32,28.77-10.874,60.913-29.339,79.921-48.313,32.506-32.448,9.555-70.302,3.325-89.412-10.949-33.594-2.683-45.826,1.113-55.907l-21.6-17.377z" fill-rule="evenodd"/>
<path fill="#008837" d="M163.1,8.282c-9.699,10.693-19.759,17.166-30.179,19.415-10.741,2.319-21.717,0.156-32.926-6.487-2.718,1.611-5.423,2.958-8.115,4.041-3.255,1.309-6.49,2.233-9.705,2.772-15.839,2.658-30.934-3.923-45.278-19.74l-17.654,14.192c0.19,0.462,0.388,0.938,0.589,1.421,4.176,10.025,9.832,23.604-0.226,54.463l-0.002,0.002h0.001c-0.921,2.825-2.244,6.151-3.702,9.818-7.89,19.835-20.004,50.292,6.29,76.541h0.012l0.001,0.002-0.006,0.006c2.58,2.574,5.434,5.161,8.517,7.738,3.069,2.564,6.358,5.11,9.819,7.614,17.535,12.68,39.285,24.13,59.465,31.87,3.652-1.4,7.345-2.916,11.042-4.534,4.053-1.772,8.146-3.684,12.232-5.711,20.876-10.358,41.084-23.558,54.534-36.984,26.294-26.248,14.18-56.705,6.29-76.541-1.459-3.668-2.783-6.995-3.704-9.821-10.058-30.86-4.401-44.438-0.226-54.464,0.201-0.483,0.399-0.959,0.589-1.421l-17.65-14.201zm-31.44,13.548c9.806-2.117,19.412-8.658,28.816-19.624l1.89-2.206,2.263,1.819,21.608,17.371,1.692,1.36-0.765,2.031c-0.464,1.233-0.949,2.396-1.456,3.614-3.814,9.157-8.981,21.559,0.391,50.31,0.923,2.834,2.179,5.989,3.563,9.469,8.464,21.28,21.462,53.957-7.628,82.995-13.92,13.894-34.7,27.489-56.106,38.111-4.136,2.051-8.314,4-12.491,5.828-4.176,1.827-8.317,3.52-12.377,5.054h-0.015l-1.054,0.396-1.047-0.396c-20.951-7.919-43.672-19.817-61.929-33.023-3.558-2.574-6.956-5.204-10.148-7.873-3.176-2.654-6.157-5.359-8.898-8.096h-0.012l-0.001-0.001,0.005-0.006c-29.082-29.036-16.086-61.71-7.622-82.989,1.383-3.478,2.638-6.633,3.562-9.466l0.003-0.002h-0.002c9.371-28.75,4.205-41.153,0.391-50.31-0.507-1.218-0.992-2.381-1.457-3.614l-0.765-2.031,1.692-1.36,21.609-17.37,2.277-1.818,1.892,2.206c13.443,15.672,27.333,22.307,41.668,19.902,2.793-0.468,5.613-1.275,8.46-2.42,2.872-1.155,5.772-2.652,8.701-4.492l-0.002-0.004,0.005-0.003,1.605-1.051,1.634,1.028c10.37,6.528,20.39,8.75,30.06,6.664z"/>
<path fill="#FFF" d="M162.97,6.637c-9.758,11.003-19.857,17.633-30.298,19.887-10.629,2.294-21.52,0.057-32.671-6.711-2.87,1.742-5.726,3.184-8.563,4.325-3.173,1.276-6.326,2.177-9.455,2.702-15.69,2.632-30.674-4.104-44.952-20.203l-19.234,15.463c0.291,0.725,0.604,1.479,0.928,2.256,4.104,9.851,9.662,23.195-0.259,53.632l-0.002,0.002,0.001,0.001c-0.921,2.825-2.231,6.118-3.674,9.747-8.005,20.125-20.296,51.026,6.558,77.832h0.007l0.001,0.001-0.003,0.004c2.613,2.608,5.493,5.219,8.594,7.811,3.093,2.586,6.404,5.148,9.884,7.666,17.741,12.832,39.776,24.407,60.17,32.183,3.804-1.45,7.656-3.029,11.521-4.72,4.078-1.784,8.188-3.703,12.283-5.735,20.983-10.411,41.306-23.688,54.85-37.209,26.853-26.806,14.563-57.707,6.558-77.832-1.444-3.63-2.754-6.923-3.675-9.75-9.921-30.438-4.363-43.781-0.26-53.632,0.323-0.777,0.638-1.532,0.928-2.256l-19.24-15.463zm-31.06,16.366c10.067-2.173,19.893-8.846,29.475-20.018l1.135-1.323,1.357,1.091,21.609,17.371,1.015,0.816-0.459,1.219c-0.449,1.194-0.935,2.358-1.442,3.576-3.887,9.331-9.15,21.968,0.357,51.141,0.924,2.833,2.192,6.023,3.591,9.54,8.351,20.991,21.171,53.224-7.359,81.704-13.826,13.801-34.492,27.316-55.792,37.885-4.127,2.048-8.289,3.989-12.439,5.807-4.151,1.816-8.274,3.499-12.32,5.029h-0.01l-0.633,0.238-0.628-0.238c-20.856-7.882-43.474-19.729-61.648-32.873-3.539-2.56-6.915-5.173-10.082-7.82-3.159-2.642-6.115-5.322-8.823-8.025h-0.007l-0.002-0.002,0.003-0.004c-28.526-28.479-15.706-60.709-7.356-81.7,1.398-3.516,2.666-6.704,3.59-9.537l0.002-0.002h-0.001c9.508-29.172,4.244-41.81,0.357-51.14-0.508-1.219-0.993-2.383-1.442-3.577l-0.459-1.219,1.016-0.816,21.609-17.37,1.357-1.092,1.135,1.324c13.737,16.017,27.996,22.785,42.776,20.306,2.876-0.482,5.78-1.313,8.709-2.491,2.943-1.184,5.914-2.718,8.911-4.602l-0.002-0.002,0.005-0.003,0.964-0.631,0.979,0.617c10.65,6.698,20.97,8.973,30.95,6.818z"/>
<path fill="#BB2820" clip-rule="evenodd" d="M100,44.513c34.797,0,63.015,28.219,63.015,63.016,0,34.796-28.218,63.016-63.015,63.016s-63.016-28.22-63.016-63.016c0.001-34.798,28.22-63.017,63.016-63.017z" fill-rule="evenodd"/>
<path fill="#FF0" d="M100,45.861l0.001,0.007c17.03,0,32.446,6.902,43.603,18.058,11.155,11.155,18.056,26.571,18.057,43.6h0.007v0.004h-0.007c-0.001,17.03-6.901,32.446-18.059,43.603-11.154,11.155-26.57,18.056-43.6,18.056v0.009h-0.002v-0.009c-17.03,0-32.446-6.9-43.602-18.057-11.155-11.155-18.056-26.571-18.056-43.6h-0.007v-0.003h0.007c0-17.03,6.901-32.446,18.057-43.602,11.155-11.155,26.571-18.056,43.6-18.057v-0.007h0.003v-0.003zm0,3.598v0.007h-0.003v-0.007c-16.024,0-30.54,6.503-41.051,17.015s-17.015,25.028-17.015,41.053h0.007v0.003h-0.007c0,16.025,6.503,30.54,17.015,41.051,10.512,10.513,25.028,17.015,41.053,17.015v-0.007h0.003v0.007c16.024,0,30.54-6.502,41.051-17.015,10.513-10.511,17.017-25.026,17.017-41.053h-0.008v-0.004h0.008c-0.001-16.024-6.504-30.54-17.016-41.051-10.51-10.516-25.02-17.02-41.05-17.02z"/>
<path fill="#FFF" d="M96.417,65.354v37.419h6.83c1.775,0,2.957-0.81,3.552-2.431,0.797-2.145,1.235-5.911,1.33-11.321h0.845v32.962h-0.845c-0.212-4.601-0.431-7.556-0.643-8.867-0.273-1.62-0.727-2.906-1.353-3.836s-1.589-1.406-2.887-1.406h-6.83v31.223c0,4.194,0.063,6.744,0.18,7.649,0.125,0.906,0.336,1.62,0.642,2.169,0.305,0.524,0.892,0.786,1.745,0.786h5.272c1.753,0,3.035-0.357,3.825-1.12,0.798-0.738,1.557-2.192,2.292-4.385,0.947-2.884,1.917-7.245,2.911-13.062h0.915l-2.676,23.739h-23.97v-2.56h1.103c0.728,0,1.424-0.549,2.081-1.621,0.493-0.739,0.821-1.859,1.001-3.337,0.173-1.501,0.258-4.552,0.258-9.151v-61.515c0-6.006-0.195-9.7-0.594-11.106-0.548-1.859-1.463-2.789-2.746-2.789h-1.103v-2.598h23.953l0.345,20.735h-0.9c-0.321-4.981-0.673-8.389-1.063-10.248-0.392-1.859-0.962-3.289-1.729-4.266-0.609-0.691-1.689-1.049-3.23-1.049h-8.523z"/>
<path fill="#FFF" d="M136.18,76.605l0.662,20.099h-0.662c-0.88-6.015-2.139-10.348-3.767-12.998-1.637-2.65-3.593-3.975-5.884-3.975-1.92,0-3.65,0.998-5.199,2.993s-2.764,5.166-3.65,9.528c-0.888,4.362-1.332,9.796-1.332,16.273,0,5.345,0.415,9.99,1.259,13.921,0.836,3.915,2.094,6.923,3.781,9.022,1.68,2.1,3.601,3.141,5.76,3.141,1.876,0,3.526-0.818,4.967-2.471,1.433-1.639,3.011-4.898,4.728-9.782l0.661,0.864c-1.446,5.271-3.142,9.126-5.068,11.567-1.935,2.441-4.226,3.663-6.887,3.663-4.785,0-8.494-3.633-11.119-10.913-1.956-5.405-2.938-11.776-2.938-19.102,0-5.896,0.647-11.331,1.935-16.273,1.294-4.943,3.076-8.769,5.338-11.494,2.269-2.709,4.741-4.064,7.425-4.064,2.088,0,4.152,1.042,6.182,3.126,0.597,0.64,1.025,0.968,1.279,0.968,0.379,0,0.713-0.283,0.997-0.833,0.37-0.774,0.633-1.876,0.793-3.261h0.746l0.004,0.006z"/>
<path fill="#FFF" d="M83.311,106.92c2.073,0.864,3.62,2.263,4.648,4.184,1.419,2.68,2.133,5.941,2.133,9.812,0,2.934-0.473,5.747-1.412,8.442-0.938,2.694-2.223,4.645-3.86,5.88s-4.13,1.861-7.487,1.861h-14.081v-1.607h1.119c1.247,0,2.141-0.79,2.681-2.367,0.338-1.014,0.511-3.171,0.511-6.492v-38.201c0-3.663-0.21-5.971-0.639-6.923-0.57-1.28-1.427-1.92-2.553-1.92h-1.119v-1.623h12.887c2.411,0,4.341,0.357,5.79,1.057,2.2,1.042,3.882,2.888,5.039,5.554,1.156,2.665,1.734,5.717,1.734,9.186,0,2.963-0.45,5.613-1.359,7.965-0.908,2.33-2.252,4.06-4.032,5.2zm-11.528-2.36c0.548,0.208,1.164,0.357,1.863,0.461,0.698,0.104,1.464,0.149,2.298,0.149,2.141,0,3.755-0.447,4.829-1.37,1.081-0.908,1.907-2.322,2.478-4.213,0.571-1.876,0.856-3.945,0.856-6.193,0-3.454-0.713-6.402-2.133-8.844-1.427-2.442-3.499-3.663-6.226-3.663-1.472,0-2.786,0.313-3.965,0.953v22.718,0.002zm0,28.27c1.705,0.789,3.387,1.177,5.039,1.177,2.659,0,4.679-1.19,6.076-3.559,1.389-2.367,2.087-5.3,2.087-8.784,0-2.292-0.315-4.511-0.946-6.625-0.63-2.129-1.659-3.797-3.079-5.018s-3.184-1.831-5.279-1.831c-0.909,0-1.689,0.029-2.336,0.074-0.646,0.06-1.164,0.164-1.562,0.313v24.261-0.001z"/>
<path fill="#FFF" d="M84.162,179.91v12.62c0,0.647,0.061,1.142,0.183,1.485,0.126,0.342,0.34,0.58,0.648,0.712,0.309,0.133,0.736,0.203,1.282,0.203v0.739h-7.296v-0.739c0.58,0,1.029-0.063,1.346-0.183,0.316-0.125,0.545-0.359,0.687-0.709,0.142-0.353,0.214-0.854,0.214-1.509v-8.137c0-0.647-0.061-1.09-0.179-1.332-0.122-0.246-0.329-0.366-0.625-0.366-0.397,0-0.877,0.172-1.441,0.514l-0.336-0.638,4.882-2.661h0.635v0.01z"/>
<path fill="#FFF" d="M89.268,196.11v-0.692c1.198-0.095,2.312-0.456,3.337-1.088,1.022-0.631,1.861-1.405,2.513-2.32,0.652-0.916,1.076-1.848,1.278-2.789-0.893,0.544-1.831,0.821-2.814,0.821-0.633,0-1.24-0.121-1.823-0.363-0.58-0.236-1.083-0.576-1.514-1.008-0.427-0.433-0.763-0.943-1.003-1.527-0.244-0.588-0.366-1.2-0.366-1.838,0-0.951,0.24-1.844,0.721-2.677,0.48-0.834,1.122-1.492,1.922-1.978,0.801-0.488,1.663-0.733,2.59-0.733,0.972,0,1.899,0.245,2.769,0.735,0.873,0.492,1.567,1.197,2.089,2.119,0.522,0.92,0.782,2.02,0.782,3.296,0,1.573-0.305,3-0.922,4.273-0.614,1.277-1.43,2.337-2.445,3.187-1.018,0.85-2.144,1.492-3.379,1.928-1.24,0.44-2.483,0.66-3.735,0.66zm7.274-8.38c0.061-0.584,0.091-1.28,0.091-2.088,0-1.857-0.248-3.154-0.744-3.898-0.496-0.741-1.113-1.11-1.85-1.11-0.709,0-1.259,0.296-1.647,0.888-0.393,0.597-0.587,1.418-0.587,2.478,0,1.207,0.187,2.283,0.561,3.225,0.37,0.939,1.003,1.407,1.899,1.407,0.348,0,0.733-0.081,1.156-0.246,0.418-0.16,0.792-0.38,1.121-0.65z"/>
<path fill="#FFF" d="M111.24,179.91v0.697c-0.931,0.074-1.805,0.315-2.616,0.717-0.813,0.404-1.533,0.903-2.167,1.503-0.633,0.597-1.151,1.243-1.552,1.944-0.404,0.7-0.672,1.386-0.805,2.052,0.454-0.287,0.919-0.498,1.396-0.63,0.478-0.133,0.95-0.199,1.419-0.199,0.664,0,1.278,0.118,1.846,0.351,0.564,0.238,1.064,0.569,1.495,1.001,0.432,0.43,0.767,0.939,1.007,1.523,0.236,0.584,0.358,1.203,0.358,1.858,0,0.946-0.24,1.835-0.713,2.669-0.473,0.829-1.11,1.491-1.91,1.978-0.797,0.487-1.667,0.729-2.598,0.729-1.057,0-2.015-0.261-2.876-0.778-0.861-0.522-1.537-1.262-2.032-2.218-0.496-0.954-0.744-2.032-0.744-3.232,0-1.469,0.289-2.816,0.87-4.048,0.583-1.227,1.376-2.286,2.379-3.17,1.008-0.889,2.141-1.565,3.398-2.037,1.24-0.46,2.52-0.7,3.83-0.7zm-7.26,8.39c-0.062,0.884-0.092,1.582-0.092,2.092,0,0.935,0.08,1.772,0.236,2.516,0.156,0.741,0.424,1.341,0.809,1.797,0.385,0.455,0.896,0.685,1.537,0.685,0.701,0,1.247-0.292,1.645-0.872,0.393-0.584,0.591-1.411,0.591-2.485,0-0.841-0.084-1.621-0.252-2.334-0.168-0.709-0.431-1.27-0.793-1.683-0.362-0.408-0.824-0.614-1.393-0.614-0.21,0-0.454,0.034-0.743,0.109-0.286,0.068-0.562,0.174-0.824,0.312-0.29,0.12-0.53,0.28-0.74,0.46z"/>
<path fill="#FFF" d="M112.7,188.02c0-0.902,0.126-1.838,0.386-2.796,0.256-0.958,0.622-1.839,1.099-2.641,0.477-0.804,1.057-1.446,1.739-1.932,0.683-0.488,1.431-0.733,2.25-0.733,0.725,0,1.411,0.214,2.067,0.639,0.656,0.428,1.243,1.017,1.762,1.776,0.516,0.755,0.916,1.621,1.194,2.595s0.419,2.006,0.419,3.092c0,1.431-0.248,2.77-0.743,4.012-0.496,1.244-1.163,2.237-2.007,2.974-0.839,0.739-1.738,1.105-2.692,1.105-0.797,0-1.529-0.233-2.2-0.705-0.672-0.471-1.251-1.106-1.744-1.9-0.491-0.795-0.869-1.671-1.133-2.63-0.28-0.98-0.41-1.93-0.41-2.87zm3.25,0c0,4.916,0.744,7.374,2.224,7.374,1.468,0,2.201-2.458,2.201-7.374,0-2.48-0.177-4.332-0.534-5.551-0.358-1.223-0.911-1.83-1.667-1.83-1.47-0.01-2.22,2.46-2.22,7.38z"/>
</svg>
