<svg xmlns="http://www.w3.org/2000/svg" width="300" height="300" viewBox="0 0 300 300"><title>CE Lejaedense</title><g fill="#FFF"><path d="M150,0c-82.828,0-150,67.171-150,150s67.172,150,150,150c82.829,0,150-67.171,150-150s-67.17-150-150-150z" fill="#76C5F0"/><path d="M150,295.58c-80.391,0-145.58-65.19-145.58-145.58s65.193-145.58,145.58-145.58c80.39,0,145.58,65.194,145.58,145.58s-65.19,145.58-145.58,145.58z"/><path d="M150,8.833c-77.951,0-141.17,63.217-141.17,141.17,0,77.951,63.216,141.17,141.17,141.17,77.952,0,141.17-63.215,141.17-141.17,0-77.95-63.22-141.17-141.17-141.17z" fill="#76C5F0"/><path d="M150,252.02c-56.334,0-102.02-45.686-102.02-102.02,0-35.092,17.729-66.049,44.715-84.409l-1.549-13.309h-0.002c-0.406-3.359,1.048-5.649,3.109-6.849,0.877-0.511,1.858-0.803,2.84-0.88h0.01c0.967-0.076,1.966,0.062,2.895,0.408,2.201,0.821,3.949,2.754,4.034,5.763,0.007,0.279,0.353,3.549,0.813,7.779,13.62-6.734,28.95-10.523,45.16-10.523,56.335,0,102.02,45.686,102.02,102.02s-45.68,102.02-102.02,102.02z"/><circle cy="197.06" cx="39.683" r="5.486"/><circle cy="165.73" cx="269.03" r="5.485"/><path d="M150,52.397c-16.085,0-31.262,3.896-44.64,10.791,0.197,1.775,0.401,3.601,0.6,5.362,13.097-7.1,28.099-11.13,44.04-11.13,51.122,0,92.581,41.458,92.581,92.581,0,51.122-41.459,92.581-92.581,92.581-8.938,0-17.581-1.272-25.758-3.638-1.485-12.089-3.964-32.291-6.749-55.077,3.299-6.08,6.802-14.1,6.802-14.1,17.453,7.629,81.188,5.748,104.88,23.856,0.812-21.825,7.708-55.652-0.794-83.854-37.688-4.488-71.461-7.598-124.84-41.371-1.188-10.16-1.909-16.677-1.944-17.608-0.154-5.406-8.8-5.133-8.034,1.206l22.257,184.07c-34.208-13.61-58.4-47.02-58.4-86.07,0-30.052,14.33-56.76,36.525-73.675l-0.67-5.751c-24.745,17.706-40.878,46.686-40.878,79.426,0,53.896,43.708,97.603,97.602,97.603,53.896,0,97.603-43.707,97.603-97.603,0-53.895-43.7-97.603-97.6-97.603z" fill="#76C5F0"/><path d="M222.5,113.85c9.42,11.027,2.372,46.432,2.349,71.694-20.887-12.05-48.138-12.249-48.138-12.249l-2.008-66.675c8.11,1,27.38,6.13,47.8,7.23z"/><path d="M116.16,172.97c-3.893-31.894-8.153-66.959-11.053-91.335,6.74-3.188,23.32,93.505,11.05,91.335z"/></g><g fill="#76C5F0"><path d="M160.83,228.84c1.948,0,3.841-0.236,5.654-0.681-11.372-8.121-14.705-16.675-15.134-17.724l-13.937-1.792c1.69,11.42,11.53,20.19,23.42,20.19z"/><path d="M166.53,182.19c-1.824-0.45-3.732-0.691-5.697-0.691-11.496,0-21.079,8.199-23.222,19.066,3.437,1.166,9.655,2.939,14.34,2.393,13.32-1.56,10.75-11.17,14.58-20.77z"/><path d="M179.34,219.92c-10.588-6.381-13.712-14.13-15.1-16.758-3.587,0.471-6.564,3.103-7.422,4.814,0.846,1.873,6.453,13.51,16.279,17.438,2.39-1.45,4.5-3.31,6.24-5.49z"/><path d="M184.5,205.17c0-1.266-0.101-2.51-0.291-3.721-2.367,1.064-8.381,4.891-9.397,7.388,1.063,1.888,4.944,3.96,8.003,5.117,1.09-2.72,1.69-5.69,1.69-8.79z"/><path d="M182.8,196.34c-1.9-4.721-5.277-8.688-9.561-11.329-1.072,1.116-2.819,3.839-2.957,9.78-0.199,8.618-0.084,9.21,0.299,9.266,0.36,0.04,7.31-5.43,12.22-7.72z"/></g><g fill="#FFF"><polygon points="202.99,247.62,209.19,259.78,195.54,251.42,191.96,253.24,201.24,271.46,204.66,269.72,198.6,257.84,212,265.98,215.69,264.09,206.41,245.88"/><path d="M120.55,257.09l-3.639,12.693c-0.457,1.592-0.94,2.587-1.451,2.986-0.511,0.402-1.21,0.474-2.093,0.221-0.874-0.251-1.427-0.791-1.656-1.619-0.149-0.547-0.086-1.391,0.192-2.529l-3.863-0.643c-0.597,2.102-0.523,3.848,0.209,5.23,0.736,1.389,2.073,2.357,4.013,2.914,1.652,0.473,3.082,0.512,4.293,0.105,1.208-0.4,2.168-1.121,2.88-2.154,0.534-0.793,1.04-2.005,1.506-3.629l3.568-12.441-3.96-1.13z"/><path d="M86.916,265.85l3.969,1.852,3.491-3.499,7.408,3.454-0.346,4.965,4.072,1.898,1.22-21.988-3.957-1.845-15.844,15.17zm15.124-1.87l-5.057-2.357,5.709-5.71-0.65,8.07z"/><path d="M42.714,131.78c0.419-2.154,0.231-4.04-0.558-5.642-0.792-1.609-2.224-2.925-4.299-3.954l-2.006,3.684c1.401,0.626,2.373,1.393,2.904,2.3,0.536,0.909,0.697,1.901,0.487,2.98-0.283,1.458-1.051,2.54-2.307,3.242-1.253,0.708-3.15,0.808-5.687,0.315-2.393-0.465-4.032-1.263-4.917-2.396-0.89-1.133-1.188-2.448-0.898-3.933,0.208-1.074,0.686-1.933,1.435-2.567,0.75-0.641,1.668-0.976,2.755-1.007l-0.177-4.199c-1.697,0.145-3.063,0.587-4.097,1.337-1.75,1.25-2.862,3.104-3.339,5.557-0.547,2.813-0.063,5.259,1.447,7.342,1.516,2.084,3.941,3.453,7.282,4.103,3.155,0.613,5.813,0.238,7.969-1.123,2.151-1.36,3.488-3.37,4.006-6.03z"/><path d="M147.15,261.14l-7.246,20.71,4.377-0.152,1.521-4.703,8.168-0.285,1.945,4.582,4.49-0.157-8.896-20.147-4.36,0.15zm-0.19,12.37l2.495-7.68,3.081,7.484-5.58,0.2z"/><polygon points="128.4,270.8,138.59,272.05,139.01,268.64,128.82,267.39,129.37,262.89,140.32,264.23,140.74,260.8,125.7,258.95,123.21,279.24,138.64,281.14,139.06,277.72,127.72,276.33"/><polygon points="185.81,273.06,183.91,267.83,193.55,264.32,192.38,261.08,182.73,264.59,181.18,260.34,191.55,256.56,190.36,253.31,176.12,258.5,183.11,277.71,197.72,272.39,196.54,269.15"/><path d="M176.18,263.72c-0.688-1.194-1.539-2.154-2.552-2.874-1.008-0.726-2.138-1.146-3.381-1.263-0.929-0.086-2.226,0.035-3.894,0.359l-7.406,1.439,3.9,20.069,7.623-1.481c1.498-0.291,2.668-0.664,3.506-1.123,1.12-0.615,1.967-1.332,2.533-2.156,0.759-1.082,1.244-2.404,1.462-3.959,0.179-1.277,0.106-2.741-0.214-4.391-0.37-1.89-0.9-3.43-1.58-4.63zm-2.34,9.01c-0.101,0.951-0.324,1.668-0.683,2.145-0.358,0.478-0.851,0.86-1.474,1.15-0.479,0.229-1.285,0.448-2.417,0.668l-3.023,0.589-2.582-13.29,1.817-0.354c1.654-0.322,2.773-0.477,3.363-0.455,0.789,0.016,1.476,0.208,2.063,0.579,0.581,0.366,1.091,0.942,1.527,1.721,0.434,0.779,0.803,1.938,1.105,3.489,0.29,1.53,0.39,2.79,0.3,3.74z"/><polygon points="49.509,106.23,46.251,105.1,42.91,114.81,26.994,109.33,25.651,113.23,44.824,119.83"/><polygon points="79.489,256.82,88.902,242.86,85.48,240.55,74.141,257.36,86.071,265.41,87.998,262.55"/><path d="M196.2,41.521l0.761,0.339c0.87,0.387,1.47,0.738,1.808,1.055,0.336,0.322,0.6,0.747,0.788,1.285,0.188,0.537,0.442,1.744,0.766,3.628l0.917,5.28,4.51,2.008-0.66-4.661c-0.255-1.853-0.52-3.18-0.795-3.985-0.277-0.806-0.719-1.628-1.324-2.47,1.745,0.495,3.237,0.467,4.464-0.077,1.229-0.548,2.159-1.524,2.782-2.925,0.491-1.104,0.658-2.203,0.498-3.306-0.162-1.099-0.625-2.017-1.379-2.756-0.756-0.737-2.129-1.551-4.124-2.44l-7.94-3.535-8.316,18.677,3.774,1.68,3.47-7.797zm3.44-7.719l2.939,1.309c1.529,0.682,2.438,1.112,2.725,1.287,0.566,0.377,0.932,0.832,1.096,1.367,0.162,0.537,0.107,1.116-0.174,1.747-0.249,0.561-0.587,0.968-1.006,1.23-0.422,0.26-0.893,0.368-1.41,0.321-0.52-0.05-1.684-0.479-3.492-1.285l-2.787-1.241,2.11-4.735z"/><polygon points="214.53,61.842,224.27,47.929,229.23,51.399,231.21,48.564,217.9,39.247,215.92,42.081,220.88,45.559,211.14,59.472"/><rect transform="matrix(-0.6428 0.7661 -0.7661 -0.6428 423.2283 -76.0115)" height="4.127" width="20.445" y="58.61" x="219.11"/><polygon points="233.87,79.896,254.11,72.007,251.23,68.703,236.53,74.851,244.56,61.021,241.62,57.641,230.98,76.569"/><polygon points="126.13,43.368,125.24,40.038,114.21,42.994,112.77,37.619,122.68,34.962,121.79,31.639,111.88,34.295,110.71,29.917,121.36,27.063,120.46,23.72,105.82,27.643,111.12,47.391"/><path d="M65.842,80.229c1.712-1.999,2.767-3.284,3.163-3.848,0.628-0.911,0.99-1.82,1.085-2.728,0.094-0.908-0.05-1.816-0.426-2.718-0.38-0.904-0.923-1.659-1.624-2.268-0.891-0.775-1.885-1.197-2.987-1.265-1.094-0.069-2.192,0.25-3.28,0.951,0.276-0.927,0.283-1.849,0.02-2.766-0.267-0.912-0.762-1.684-1.485-2.312-0.665-0.578-1.405-0.944-2.215-1.093-0.814-0.152-1.582-0.133-2.317,0.061s-1.414,0.544-2.036,1.057c-0.625,0.509-1.468,1.378-2.531,2.599l-5.361,6.169,15.429,13.413,4.565-5.252zm-11.148-5.945l-3.568-3.102,1.555-1.789c1.274-1.466,2.063-2.337,2.369-2.615,0.511-0.464,1.03-0.7,1.56-0.707,0.526-0.003,1.027,0.205,1.504,0.621,0.5,0.434,0.771,0.935,0.81,1.505,0.041,0.572-0.142,1.151-0.543,1.735-0.22,0.326-0.858,1.096-1.914,2.311l-1.773,2.041zm4.754-0.282c1.23-1.416,2.105-2.277,2.621-2.573,0.516-0.295,1.035-0.413,1.555-0.357,0.516,0.058,1.008,0.283,1.472,0.686,0.546,0.474,0.856,1.003,0.931,1.578,0.069,0.573-0.05,1.131-0.37,1.667-0.198,0.357-0.788,1.094-1.766,2.219l-2.504,2.881-4.125-3.584,2.186-2.517z"/><polygon points="87.281,60.498,85.16,57.782,76.161,64.813,72.735,60.428,80.823,54.109,78.704,51.397,70.616,57.716,67.827,54.144,76.518,47.354,74.387,44.627,62.443,53.958,75.031,70.069"/><path d="M153.08,32.958l2.682,0.188c1.867,0.131,3.299,0.131,4.295,0.005,0.733-0.106,1.469-0.379,2.201-0.815,0.736-0.44,1.357-1.069,1.873-1.892,0.516-0.818,0.816-1.856,0.904-3.11,0.113-1.62-0.189-2.972-0.905-4.053-0.717-1.08-1.652-1.814-2.8-2.2-0.745-0.257-2.371-0.477-4.873-0.652l-6.606-0.461-1.426,20.395,4.118,0.288,0.55-7.693zm0.65-9.25l1.99,0.139c1.48,0.104,2.466,0.216,2.954,0.346,0.655,0.165,1.189,0.508,1.588,1.018,0.403,0.515,0.579,1.142,0.528,1.883-0.042,0.603-0.237,1.119-0.577,1.553-0.345,0.434-0.796,0.736-1.357,0.912-0.56,0.175-1.655,0.204-3.278,0.091l-2.252-0.158,0.41-5.784z"/><path d="M176.22,44.216c2.922,0.675,5.469,0.305,7.638-1.105,2.168-1.414,3.625-3.726,4.366-6.944,0.749-3.242,0.453-5.978-0.89-8.204-1.342-2.23-3.479-3.68-6.416-4.358-1.621-0.375-3.11-0.446-4.477-0.204-1.022,0.174-2.017,0.575-2.987,1.197-0.97,0.625-1.798,1.396-2.485,2.303-0.926,1.237-1.621,2.87-2.089,4.901-0.731,3.168-0.435,5.86,0.897,8.073,1.34,2.208,3.49,3.657,6.45,4.341zm-3.16-11.591c0.53-2.296,1.437-3.89,2.708-4.793,1.279-0.901,2.748-1.164,4.408-0.78,1.655,0.383,2.856,1.251,3.6,2.605,0.736,1.357,0.845,3.174,0.318,5.457-0.533,2.31-1.447,3.92-2.738,4.839-1.299,0.922-2.75,1.193-4.35,0.824-1.604-0.371-2.792-1.256-3.567-2.661-0.78-1.405-0.9-3.238-0.38-5.491z"/><path d="M129.88,31.449c0.981,0.686,2.604,1.167,4.867,1.44,1.758,0.216,2.89,0.375,3.388,0.486,0.734,0.159,1.262,0.392,1.582,0.698,0.325,0.3,0.517,0.69,0.576,1.171,0.091,0.747-0.164,1.44-0.767,2.08-0.597,0.645-1.56,1.045-2.878,1.207-1.247,0.153-2.274-0.042-3.083-0.576-0.813-0.538-1.421-1.461-1.822-2.774l-3.94,0.882c0.543,2.236,1.578,3.864,3.098,4.88,1.521,1.017,3.563,1.367,6.129,1.052,1.762-0.217,3.205-0.644,4.327-1.285,1.12-0.636,1.938-1.504,2.461-2.599,0.523-1.091,0.711-2.221,0.568-3.384-0.157-1.281-0.558-2.325-1.204-3.133-0.651-0.808-1.481-1.4-2.498-1.789-1.016-0.384-2.55-0.69-4.602-0.917-2.051-0.223-3.364-0.522-3.932-0.894-0.448-0.29-0.701-0.677-0.761-1.158-0.064-0.524,0.101-0.972,0.497-1.337,0.611-0.573,1.517-0.929,2.708-1.076,1.153-0.141,2.045-0.021,2.678,0.367,0.632,0.383,1.102,1.088,1.405,2.11l4.074-0.682c-0.296-1.858-1.153-3.263-2.576-4.226-1.427-0.957-3.408-1.279-5.96-0.966-1.56,0.192-2.857,0.591-3.906,1.194-1.043,0.608-1.805,1.397-2.279,2.367-0.476,0.974-0.65,1.973-0.523,3.008,0.18,1.608,0.97,2.891,2.36,3.854z"/><path d="M47.308,100.75c0.777,0.234,1.625,0.278,2.541,0.13,0.916-0.147,1.82-0.542,2.716-1.191s1.83-1.818,2.807-3.508c0.809-1.401,1.288-2.641,1.432-3.718,0.142-1.073,0.062-2.048-0.241-2.916-0.306-0.87-0.839-1.65-1.605-2.351-0.767-0.7-2.213-1.662-4.34-2.89l-9.3-5.369-2.063,3.574,9.795,5.654c1.401,0.81,2.375,1.437,2.917,1.895,0.543,0.451,0.876,1.055,0.99,1.809,0.12,0.755-0.118,1.641-0.703,2.655-0.576,0.998-1.249,1.659-2.023,1.981-0.768,0.321-1.561,0.352-2.375,0.085-0.5-0.172-1.515-0.699-3.036-1.577l-9.589-5.536-2.063,3.575,9.444,5.452c1.983,1.146,3.546,1.896,4.696,2.246z"/><path d="M262.25,84.588c-0.833-1.443-1.797-2.58-2.905-3.414-0.825-0.629-1.797-1.084-2.912-1.369-1.12-0.283-2.247-0.361-3.38-0.246-1.535,0.166-3.205,0.771-5.01,1.814-2.816,1.626-4.582,3.679-5.292,6.161-0.706,2.479-0.302,5.039,1.22,7.673,1.498,2.597,3.508,4.208,6.016,4.832,2.514,0.621,5.197,0.111,8.058-1.541,2.882-1.664,4.681-3.747,5.394-6.246,0.71-2.504,0.32-5.056-1.19-7.665zm-2.48,6.209c-0.489,1.465-1.746,2.783-3.774,3.955-2.053,1.185-3.854,1.615-5.407,1.297-1.558-0.319-2.745-1.196-3.566-2.618-0.824-1.426-0.987-2.9-0.487-4.424,0.501-1.521,1.754-2.865,3.756-4.021,2.041-1.178,3.824-1.604,5.354-1.288,1.532,0.32,2.723,1.215,3.576,2.691,0.85,1.471,1.03,2.942,0.55,4.408z"/><path d="M133.05,150.55h7.38v-38.673h-5.99c-0.834,2.349-2.385,4.402-4.645,6.169-2.26,1.757-4.358,2.95-6.277,3.578v6.698c3.659-1.202,6.833-3.067,9.532-5.595v27.814z"/><path d="M157.58,140.89c2.779,0,5.104-1.077,6.958-3.238-0.296,4.421-0.978,7.326-2.054,8.725-1.066,1.399-2.358,2.098-3.881,2.098-1.211,0-2.18-0.349-2.916-1.049-0.734-0.7-1.192-1.775-1.371-3.228l-7.146,0.789c0.529,3.183,1.721,5.577,3.577,7.182,1.857,1.605,4.286,2.403,7.3,2.403,4.187,0,7.585-1.561,10.194-4.672,2.608-3.121,3.917-8.195,3.917-15.244,0-6.913-1.252-11.88-3.756-14.902-2.51-3.021-5.711-4.537-9.621-4.537-3.586,0-6.545,1.201-8.859,3.586-2.322,2.395-3.487,5.542-3.487,9.451,0,3.748,1.103,6.788,3.299,9.129,2.2,2.32,4.82,3.5,7.85,3.5zm-2.54-17.93c0.896-1.076,2.036-1.614,3.398-1.614,1.435,0,2.708,0.654,3.802,1.972,1.096,1.31,1.642,3.157,1.642,5.542,0,2.169-0.484,3.819-1.462,4.941-0.969,1.12-2.17,1.676-3.586,1.676-1.471,0-2.699-0.583-3.676-1.749-0.978-1.157-1.471-2.986-1.471-5.47,0.01-2.46,0.46-4.23,1.36-5.3z"/><path d="M228.76,248.08c-0.757-1.043-1.615-1.762-2.572-2.154-0.961-0.393-1.975-0.508-3.052-0.354-1.075,0.156-2.565,0.632-4.47,1.429-1.902,0.799-3.194,1.174-3.872,1.125-0.532-0.037-0.942-0.252-1.227-0.645-0.312-0.428-0.384-0.899-0.214-1.41,0.256-0.799,0.877-1.549,1.848-2.254,0.938-0.682,1.777-1.01,2.52-0.978,0.738,0.028,1.49,0.417,2.252,1.165l3.232-2.572c-1.159-1.482-2.591-2.295-4.302-2.447-1.71-0.145-3.602,0.534-5.681,2.045-1.271,0.924-2.214,1.902-2.838,2.938-0.617,1.037-0.902,2.096-0.846,3.174,0.057,1.084,0.388,2.043,1,2.887,0.953,1.31,2.267,2.049,3.943,2.22,1.189,0.122,2.844-0.242,4.955-1.101,1.641-0.664,2.709-1.074,3.199-1.218,0.72-0.217,1.293-0.269,1.723-0.156,0.429,0.104,0.785,0.353,1.07,0.745,0.441,0.609,0.555,1.339,0.339,2.19-0.212,0.853-0.858,1.671-1.933,2.45-1.016,0.739-2.01,1.066-2.977,0.992-0.972-0.076-1.951-0.59-2.938-1.543l-3.018,2.682c1.56,1.691,3.253,2.613,5.075,2.766,1.824,0.153,3.778-0.532,5.871-2.053,1.437-1.043,2.491-2.115,3.16-3.22,0.674-1.1,0.968-2.256,0.895-3.468-0.07-1.21-0.45-2.29-1.14-3.24z"/><polygon points="235.39,245.35,231.52,241.35,238.9,234.22,236.51,231.74,229.13,238.87,225.98,235.61,233.92,227.95,231.51,225.46,220.61,235.99,234.81,250.7,245.99,239.9,243.6,237.42"/></g><g fill="#76C5F0"><path d="M189.56,158.34h7.381v-38.672h-5.989c-0.835,2.349-2.386,4.403-4.645,6.168-2.261,1.758-4.358,2.951-6.278,3.579v6.698c3.658-1.202,6.834-3.067,9.531-5.595v27.817z"/><path d="M210.95,161.67h7.38v-38.672h-5.988c-0.835,2.349-2.386,4.403-4.645,6.169-2.262,1.758-4.359,2.951-6.279,3.578v6.698c3.659-1.201,6.834-3.066,9.532-5.595v27.813z"/></g></svg>