<?xml version="1.0" encoding="UTF-8" standalone="no"?>
<!-- Created with Inkscape (http://www.inkscape.org/) -->

<svg
   version="1.1"
   id="svg1"
   width="765.05865"
   height="800.92352"
   viewBox="0 0 765.05865 800.92352"
   sodipodi:docname="Esporte Clube Passo Fundo.svg"
   inkscape:version="1.4 (86a8ad7, 2024-10-11)"
   xmlns:inkscape="http://www.inkscape.org/namespaces/inkscape"
   xmlns:sodipodi="http://sodipodi.sourceforge.net/DTD/sodipodi-0.dtd"
   xmlns="http://www.w3.org/2000/svg"
   xmlns:svg="http://www.w3.org/2000/svg">
  <defs
     id="defs1">
    <inkscape:path-effect
       effect="mirror_symmetry"
       start_point="382.112,51.277502"
       end_point="382.112,749.53416"
       center_point="382.112,400.40583"
       id="path-effect2"
       is_visible="true"
       lpeversion="1.2"
       lpesatellites=""
       mode="free"
       discard_orig_path="false"
       fuse_paths="true"
       oposite_fuse="false"
       split_items="false"
       split_open="false"
       link_styles="false" />
    <inkscape:path-effect
       effect="mirror_symmetry"
       start_point="382.112,54.371094"
       end_point="382.112,745.78416"
       center_point="382.112,400.07763"
       id="path-effect1"
       is_visible="true"
       lpeversion="1.2"
       lpesatellites=""
       mode="free"
       discard_orig_path="false"
       fuse_paths="true"
       oposite_fuse="false"
       split_items="false"
       split_open="false"
       link_styles="false" />
    <filter
       id="mask-powermask-path-effect12_inverse"
       inkscape:label="filtermask-powermask-path-effect12"
       style="color-interpolation-filters:sRGB"
       height="100"
       width="100"
       x="-50"
       y="-50">
      <feColorMatrix
         id="mask-powermask-path-effect12_primitive1"
         values="1"
         type="saturate"
         result="fbSourceGraphic" />
      <feColorMatrix
         id="mask-powermask-path-effect12_primitive2"
         values="-1 0 0 0 1 0 -1 0 0 1 0 0 -1 0 1 0 0 0 1 0 "
         in="fbSourceGraphic" />
    </filter>
    <filter
       id="mask-powermask-path-effect13_inverse"
       inkscape:label="filtermask-powermask-path-effect13"
       style="color-interpolation-filters:sRGB"
       height="100"
       width="100"
       x="-50"
       y="-50">
      <feColorMatrix
         id="mask-powermask-path-effect13_primitive1"
         values="1"
         type="saturate"
         result="fbSourceGraphic" />
      <feColorMatrix
         id="mask-powermask-path-effect13_primitive2"
         values="-1 0 0 0 1 0 -1 0 0 1 0 0 -1 0 1 0 0 0 1 0 "
         in="fbSourceGraphic" />
    </filter>
    <clipPath
       clipPathUnits="userSpaceOnUse"
       id="clipPath14">
      <path
         style="display:inline;fill:#00923f;fill-opacity:1;stroke:none;stroke-width:55;stroke-linejoin:round;stroke-miterlimit:3;stroke-dasharray:none;stroke-opacity:1;paint-order:markers fill stroke"
         d="M 3.9591046,482.6209 748.01817,291.37378 862.67027,695.79307 313.95541,1006.9201 -93.338092,574.1707 Z"
         id="path14" />
    </clipPath>
    <clipPath
       clipPathUnits="userSpaceOnUse"
       id="clipPath15">
      <path
         style="display:inline;fill:#00923f;fill-opacity:1;stroke:none;stroke-width:55;stroke-linejoin:round;stroke-miterlimit:3;stroke-dasharray:none;stroke-opacity:1;paint-order:markers fill stroke"
         d="M 3.9591046,482.6209 748.01817,291.37378 862.67027,695.79307 313.95541,1006.9201 -93.338092,574.1707 Z"
         id="path15" />
    </clipPath>
  </defs>
  <sodipodi:namedview
     id="namedview1"
     pagecolor="#ffffff"
     bordercolor="#000000"
     borderopacity="0.25"
     inkscape:showpageshadow="2"
     inkscape:pageopacity="0.0"
     inkscape:pagecheckerboard="true"
     inkscape:deskcolor="#d1d1d1"
     inkscape:zoom="0.70710678"
     inkscape:cx="445.47727"
     inkscape:cy="323.1478"
     inkscape:window-width="1920"
     inkscape:window-height="1001"
     inkscape:window-x="-9"
     inkscape:window-y="-9"
     inkscape:window-maximized="1"
     inkscape:current-layer="svg1" />
  <g
     id="path1"
     style="display:inline;opacity:1"
     inkscape:label="Passo Fundo"
     inkscape:highlight-color="#00923f"
     transform="translate(0.41797,0.24414063)">
    <path
       style="opacity:1;fill:#da251c;fill-opacity:1;stroke-linejoin:round;stroke-miterlimit:3;paint-order:markers fill stroke"
       d="m 382.11133,-0.24414063 c -13.24727,0 -26.49444,4.69332683 -36.87891,14.07812463 l -7.14648,6.458985 H 146.07227 l -0.64649,-0.773438 -0.002,-0.002 C 134.84278,6.8864599 119.10127,-0.35038388 102.625,-0.16015625 h -0.002 C 86.14759,0.03131182 70.578636,7.6301704 60.292969,20.501953 v 0.002 c -3.625718,4.537638 -6.461138,8.904753 -8.40625,13.679688 -1.945113,4.774935 -2.647519,8.394114 -1.751953,5.58789 -0.992141,3.108843 -1.660832,5.899222 -2.13086,8.007813 -1.009932,4.530651 -1.807599,9.111167 -2.640625,14.302734 -1.681242,10.477806 -3.505436,23.907247 -5.628906,40.457032 -4.248598,33.11251 -9.625864,78.47543 -16.212891,131.81641 -1.557961,12.61618 -7.513391,58.04892 -13.001953,101.71484 -2.7443525,21.83354 -5.3882509,43.35239 -7.3749997,60.69727 -1.9297963,16.84767 -3.56250005,27.41397 -3.56250005,39.83789 0,87.05664 47.25206575,166.601 111.05859875,226.33789 59.01469,55.2507 134.62254,95.76957 214.59374,106.16992 l 20.67774,18.07813 0.002,0.002 c 20.57214,17.98119 51.8224,17.98119 72.39453,0 h 0.002 l 20.68164,-18.08008 c 79.97049,-10.40075 155.57757,-50.91966 214.59179,-106.16992 63.80675,-59.7371 111.05664,-139.28171 111.05664,-226.33789 0,-12.42025 -1.63051,-22.98817 -3.56054,-39.83789 -1.98698,-17.34692 -4.6328,-38.86534 -7.37696,-60.69727 -5.48856,-43.66592 -11.44398,-89.09863 -13.00195,-101.71484 -6.58694,-53.34032 -11.9622,-98.70284 -16.21094,-131.81641 -2.12374,-16.551912 -3.95017,-29.982705 -5.63086,-40.457032 -0.83302,-5.191552 -1.63067,-9.772035 -2.64062,-14.302734 -0.46597,-2.090396 -1.13205,-4.884182 -2.12891,-8.007813 0.89557,2.806226 0.19316,-0.812952 -1.75195,-5.58789 -1.94511,-4.774938 -4.78053,-9.142049 -8.40625,-13.679688 l -0.002,-0.002 C 682.60002,-6.1873358 640.74187,-6.671384 618.80078,19.517578 l -0.002,0.002 -0.64649,0.773438 H 426.13867 l -7.14648,-6.458985 C 408.60772,4.4491862 395.3586,-0.24414063 382.11133,-0.24414063 Z"
       id="path5"
       sodipodi:nodetypes="scccccccccscssssssssccccccsssssssscscccccccs"
       inkscape:label="path1" />
    <path
       style="fill:#00923f;fill-opacity:1;stroke-linejoin:round;stroke-miterlimit:3;paint-order:markers fill stroke"
       d="m 382.11133,-0.24414 c -13.24727,0 -26.49444,4.69333 -36.87891,14.07812 l -7.14648,6.45899 H 146.07227 l -0.64649,-0.77344 -0.002,-0.002 C 134.84278,6.88646 119.10127,-0.35038 102.625,-0.16016 h -0.002 C 86.14759,0.03131 70.578636,7.63017 60.292969,20.50195 v 0.002 c -3.625718,4.53764 -6.461138,8.90476 -8.40625,13.679691 -1.945113,4.774935 -2.647519,8.394114 -1.751953,5.58789 -0.992141,3.108843 -1.660832,5.899222 -2.13086,8.007813 -1.009932,4.530651 -1.807599,9.111167 -2.640625,14.302734 -1.681242,10.477806 -3.505436,23.907247 -5.628906,40.457032 -4.248598,33.11251 -9.625864,78.47543 -16.212891,131.81641 -1.557961,12.61618 -7.513391,58.04892 -13.001954,101.71484 -2.74435,21.83354 -5.38825,43.35239 -7.375,60.69727 -1.9298,16.84767 -3.5625,27.41397 -3.5625,39.83789 0,87.05664 47.252067,166.601 111.0586,226.33789 59.01469,55.2507 134.62254,95.76957 214.59374,106.16992 l 20.67774,18.07813 0.002,0.002 c 20.57214,17.98119 51.8224,17.98119 72.39453,0 h 0.002 l 20.68164,-18.08008 c 79.97049,-10.40075 155.57757,-50.91966 214.59179,-106.16992 63.80675,-59.7371 111.05664,-139.28171 111.05664,-226.33789 0,-12.42025 -1.63051,-22.98817 -3.56054,-39.83789 -1.98698,-17.34692 -4.6328,-38.86534 -7.37696,-60.69727 -5.48856,-43.66592 -11.44398,-89.09863 -13.00195,-101.71484 -6.58694,-53.34032 -11.9622,-98.70284 -16.21094,-131.81641 -2.12374,-16.551912 -3.95017,-29.982705 -5.63086,-40.457032 -0.83302,-5.191552 -1.63067,-9.772035 -2.64062,-14.302734 -0.46597,-2.090396 -1.13205,-4.884182 -2.12891,-8.007813 0.89557,2.806226 0.19316,-0.812952 -1.75195,-5.58789 C 710.39287,29.40875 707.55745,25.04164 703.93173,20.504 l -0.002,-0.002 C 682.60002,-6.18734 640.74187,-6.67138 618.80078,19.51758 l -0.002,0.002 -0.64649,0.77344 H 426.13867 l -7.14648,-6.45899 C 408.60772,4.44919 395.3586,-0.24414 382.11133,-0.24414 Z"
       id="path5-8"
       sodipodi:nodetypes="scccccccccscssssssssccccccsssssssscscccccccs"
       clip-path="url(#clipPath15)"
       inkscape:label="path2" />
    <path
       style="opacity:1;fill:#ffffff;stroke-linejoin:round;stroke-miterlimit:3;paint-order:markers fill stroke"
       d="m 102.94336,27.337891 c -8.247707,0.09585 -16.016956,3.888348 -21.166016,10.332031 -5.204781,6.513858 -4.776172,8.36616 -5.445313,10.46289 -0.66914,2.096731 -1.078206,3.798033 -1.486328,5.628907 -0.816244,3.661748 -1.535448,7.725459 -2.330078,12.677734 -1.589259,9.904549 -3.395035,23.163602 -5.503906,39.599607 -4.217742,32.87202 -9.600996,78.27167 -16.197266,131.6875 -1.616425,13.08962 -7.533929,58.20875 -13.009766,101.77344 -2.737918,21.78234 -5.372378,43.23701 -7.33789,60.39648 -1.965512,17.15948 -3.384766,26.95178 -3.384766,36.70899 0,76.91594 42.544455,150.26928 102.353519,206.26367 57.38887,53.72857 131.68846,92.35743 207.58398,100.02148 l 26.99219,23.59766 c 10.36568,9.06018 25.83354,9.06018 36.19922,0 l 26.99414,-23.59766 c 75.89552,-7.66405 150.19511,-46.29291 207.58398,-100.02148 59.80906,-55.99439 102.35156,-129.34773 102.35156,-206.26367 0,-9.75721 -1.4173,-19.54951 -3.38281,-36.70899 -1.96551,-17.15947 -4.60192,-38.61414 -7.33984,-60.39648 -5.47584,-43.56469 -11.39334,-88.68382 -13.00977,-101.77344 -6.59627,-53.41583 -11.97757,-98.81548 -16.19531,-131.6875 -2.10887,-16.436005 -3.9166,-29.695058 -5.50586,-39.599607 -0.79463,-4.952275 -1.51383,-9.015986 -2.33008,-12.677734 -0.40812,-1.830874 -0.81523,-3.532176 -1.48437,-5.628907 -0.66914,-2.09673 -0.24053,-3.949032 -5.44531,-10.46289 -10.8477,-13.57346 -31.40776,-13.811193 -42.56641,-0.492188 l -8.89063,10.615235 h -215.4375 l -15,-13.556641 c -10.47218,-9.464066 -26.40868,-9.464066 -36.88086,0 l -15,13.556641 h -215.4375 l -8.89062,-10.615235 c -5.29693,-6.323204 -13.15228,-9.935072 -21.40039,-9.839843 z"
       id="path4"
       inkscape:label="path3" />
    <path
       style="opacity:1;fill:#da251c;fill-opacity:1;stroke-linejoin:round;stroke-miterlimit:3;paint-order:markers fill stroke"
       d="M 382.112,745.78416 348.43534,716.34317 C 206.35729,706.96613 54.582917,569.49941 54.582917,436.6055 c 0,-16.21867 20.179126,-168.41283 23.525088,-195.50804 C 91.319023,134.11616 99.65958,59.341982 103.26048,54.835404 l 17.13369,20.458437 H 359.25889 L 382.112,54.636259 404.96511,75.293841 h 238.86472 l 17.13369,-20.458437 c 3.6009,4.506578 11.94146,79.280756 25.15247,186.262056 3.34597,27.09521 23.52509,179.28937 23.52509,195.50804 0,132.89391 -151.77437,270.36063 -293.85242,279.73767 z"
       id="path2"
       inkscape:label="path4" />
    <path
       style="display:inline;fill:#00923f;fill-opacity:1;stroke-linejoin:round;stroke-miterlimit:3;paint-order:markers fill stroke"
       d="M 382.112,745.78416 348.43534,716.34317 C 206.35729,706.96613 54.582917,569.49941 54.582917,436.6055 c 0,-16.21867 20.179126,-168.41283 23.525088,-195.50804 C 91.319023,134.11616 99.65958,59.341982 103.26048,54.835404 l 17.13369,20.458437 H 359.25889 L 382.112,54.636259 404.96511,75.293841 h 238.86472 l 17.13369,-20.458437 c 3.6009,4.506578 11.94146,79.280756 25.15247,186.262056 3.34597,27.09521 23.52509,179.28937 23.52509,195.50804 0,132.89391 -151.77437,270.36063 -293.85242,279.73767 z"
       id="path2-2"
       clip-path="url(#clipPath14)"
       inkscape:label="path5" />
    <path
       style="fill:#ffffff;stroke-linejoin:round;stroke-miterlimit:3;paint-order:markers fill stroke"
       d="M 689.49609,216.52539 53.109375,383.16797 a 4.0004,4.0004 0 0 0 2.027344,7.73828 L 691.52344,224.26367 a 4.0004,4.0004 0 0 0 2.79492,-2.8164 4.0004,4.0004 0 0 0 -4.82227,-4.92188 z m 22.1875,162.08789 -636.384762,166.64258 a 4.0004,4.0004 0 0 0 -1.789062,6.6543 4.0004,4.0004 0 0 0 3.816406,1.08398 L 713.71094,386.35156 a 4.0004,4.0004 0 0 0 -2.02735,-7.73828 z"
       id="path16"
       inkscape:label="path6" />
    <path
       style="font-stretch:condensed;font-size:112.673px;line-height:1;font-family:Impact;-inkscape-font-specification:'Impact Condensed';text-align:center;letter-spacing:0px;word-spacing:0px;text-anchor:middle;fill:#ffffff;stroke-width:5.68816;stroke-linejoin:round;stroke-miterlimit:3;paint-order:markers fill stroke"
       d="m -24.516773,422.40175 h 23.326831 q 9.4627712,0 14.524253,1.48544 5.116499,1.48543 7.64724,4.29126 2.585757,2.80582 3.466015,6.82199 0.935274,3.96116 0.935274,12.32361 v 7.75727 q 0,8.5275 -1.760516,12.43365 -1.760515,3.90614 -6.491901,5.99675 -4.676369,2.09061 -12.2685928,2.09061 h -6.2168206 v 35.87051 H -24.516773 Z m 23.1617826,15.23947 v 22.66664 q 0.99029004,0.055 1.70549949,0.055 3.19093451,0 4.40128891,-1.54045 1.2653706,-1.59547 1.2653706,-6.54692 v -7.31714 q 0,-4.56634 -1.4304189,-5.94174 -1.4304189,-1.3754 -5.9417401,-1.3754 z M 69.23068,422.40175 82.489563,511.47284 H 58.777619 L 57.62228,495.46315 h -8.307433 l -1.375402,16.00969 H 23.95242 l 11.773448,-89.07109 z m -12.268593,57.27178 q -1.760516,-15.12943 -3.521031,-37.35594 -3.521031,25.52747 -4.401289,37.35594 z M 135.5251,449.35965 h -21.5113 v -6.60193 q 0,-4.62136 -0.82524,-5.88673 -0.82525,-1.26537 -2.75081,-1.26537 -2.09061,0 -3.19093,1.7055 -1.04531,1.7055 -1.04531,5.17152 0,4.4563 1.21035,6.71196 1.15534,2.25566 6.54692,5.4466 15.45953,9.18769 19.4757,15.07441 4.01618,5.88672 4.01618,18.98056 0,9.51779 -2.25566,14.02911 -2.20064,4.51132 -8.58251,7.59222 -6.38187,3.02589 -14.85435,3.02589 -9.29773,0 -15.899659,-3.52103 -6.546918,-3.52104 -8.582514,-8.96763 -2.035596,-5.4466 -2.035596,-15.45953 v -5.83171 h 21.511299 v 10.83818 q 0,5.00646 0.88026,6.43688 0.93527,1.43042 3.24595,1.43042 2.31068,0 3.411,-1.81553 1.15534,-1.81553 1.15534,-5.39158 0,-7.8673 -2.14563,-10.28801 -2.20065,-2.42071 -10.83818,-8.08737 -8.637526,-5.72167 -11.443347,-8.30743 -2.805822,-2.58576 -4.67637,-7.1521 -1.815531,-4.56633 -1.815531,-11.66341 0,-10.233 2.585757,-14.96438 2.640773,-4.73139 8.472481,-7.37216 5.83171,-2.69579 14.08412,-2.69579 9.02265,0 15.3495,2.91585 6.38187,2.91585 8.41746,7.37216 2.09062,4.40129 2.09062,15.0194 z m 58.26205,0 h -21.5113 v -6.60193 q 0,-4.62136 -0.82524,-5.88673 -0.82524,-1.26537 -2.75081,-1.26537 -2.09061,0 -3.19093,1.7055 -1.04531,1.7055 -1.04531,5.17152 0,4.4563 1.21036,6.71196 1.15534,2.25566 6.54692,5.4466 15.45952,9.18769 19.4757,15.07441 4.01618,5.88672 4.01618,18.98056 0,9.51779 -2.25567,14.02911 -2.20064,4.51132 -8.58251,7.59222 -6.38187,3.02589 -14.85435,3.02589 -9.29772,0 -15.89966,-3.52103 -6.54691,-3.52104 -8.58251,-8.96763 -2.03559,-5.4466 -2.03559,-15.45953 v -5.83171 h 21.5113 v 10.83818 q 0,5.00646 0.88025,6.43688 0.93528,1.43042 3.24595,1.43042 2.31068,0 3.411,-1.81553 1.15534,-1.81553 1.15534,-5.39158 0,-7.8673 -2.14563,-10.28801 -2.20064,-2.42071 -10.83817,-8.08737 -8.63753,-5.72167 -11.44335,-8.30743 -2.80582,-2.58576 -4.67637,-7.1521 -1.81553,-4.56633 -1.81553,-11.66341 0,-10.233 2.58575,-14.96438 2.64078,-4.73139 8.47248,-7.37216 5.83171,-2.69579 14.08413,-2.69579 9.02264,0 15.34949,2.91585 6.38187,2.91585 8.41747,7.37216 2.09061,4.40129 2.09061,15.0194 z m 62.1132,25.19738 q 0,13.42393 -0.66019,19.03557 -0.60518,5.55663 -3.96116,10.17798 -3.30097,4.62136 -8.96763,7.09708 -5.66666,2.47573 -13.20387,2.47573 -7.15209,0 -12.87377,-2.31068 -5.66666,-2.36569 -9.13267,-7.04206 -3.46602,-4.67637 -4.12621,-10.17798 -0.66019,-5.50161 -0.66019,-19.25564 v -15.23946 q 0,-13.42394 0.60517,-18.98056 0.6602,-5.61165 3.96116,-10.233 3.35599,-4.62135 9.02265,-7.09708 5.66666,-2.47572 13.20386,-2.47572 7.1521,0 12.81876,2.36569 5.72167,2.31068 9.18769,6.98705 3.46601,4.67637 4.12621,10.17798 0.66019,5.50161 0.66019,19.25564 z m -23.16178,-29.26857 q 0,-6.21682 -0.71521,-7.92232 -0.6602,-1.76052 -2.80583,-1.76052 -1.81553,0 -2.80582,1.43042 -0.93527,1.3754 -0.93527,8.25242 v 41.59218 q 0,7.75727 0.60518,9.5728 0.66019,1.81553 2.97087,1.81553 2.36569,0 3.02588,-2.09061 0.6602,-2.09061 0.6602,-9.95792 z m 51.66012,-22.88671 h 39.22649 v 17.82522 h -16.0647 v 16.88995 h 14.30418 v 16.94496 h -14.30418 v 37.41096 h -23.16179 z m 97.48856,0 v 59.52744 q 0,10.12296 -0.6602,14.24917 -0.66019,4.07119 -3.90614,8.41747 -3.24595,4.29125 -8.58251,6.54691 -5.28155,2.20065 -12.48866,2.20065 -7.97734,0 -14.08413,-2.64078 -6.10678,-2.64077 -9.13267,-6.87701 -3.02589,-4.23624 -3.57605,-8.91261 -0.55016,-4.73139 -0.55016,-19.8058 v -52.70544 h 23.16178 v 66.78956 q 0,5.83171 0.60518,7.4822 0.66019,1.59546 2.58576,1.59546 2.20064,0 2.80582,-1.76051 0.66019,-1.81553 0.66019,-8.47248 v -65.63423 z m 60.68276,0 v 89.07109 h -20.30094 l -12.04853,-40.49186 v 40.49186 h -19.36567 v -89.07109 h 19.36567 l 12.9838,40.10675 v -40.10675 z m 9.29774,0 h 17.33007 q 16.77992,0 22.66664,1.54046 5.94174,1.54045 9.02264,5.06148 3.08091,3.52103 3.85113,7.8673 0.77023,4.29126 0.77023,16.94496 v 31.19414 q 0,11.99351 -1.15534,16.0647 -1.10032,4.01618 -3.90615,6.32686 -2.80582,2.25566 -6.93203,3.19093 -4.1262,0.88026 -12.43364,0.88026 h -29.21355 z m 23.16178,15.23947 v 58.59216 q 5.00647,0 6.16181,-1.98058 1.15533,-2.0356 1.15533,-10.94821 v -34.60513 q 0,-6.05178 -0.38511,-7.75728 -0.38511,-1.7055 -1.76051,-2.47572 -1.37541,-0.82524 -5.17152,-0.82524 z m 92.04192,36.91581 q 0,13.42393 -0.6602,19.03557 -0.60517,5.55663 -3.96116,10.17798 -3.30096,4.62136 -8.96762,7.09708 -5.66666,2.47573 -13.20387,2.47573 -7.1521,0 -12.87377,-2.31068 -5.66666,-2.36569 -9.13268,-7.04206 -3.46601,-4.67637 -4.1262,-10.17798 -0.6602,-5.50161 -0.6602,-19.25564 v -15.23946 q 0,-13.42394 0.60518,-18.98056 0.66019,-5.61165 3.96116,-10.233 3.35598,-4.62135 9.02264,-7.09708 5.66666,-2.47572 13.20387,-2.47572 7.15209,0 12.81875,2.36569 5.72168,2.31068 9.18769,6.98705 3.46602,4.67637 4.12621,10.17798 0.6602,5.50161 0.6602,19.25564 z m -23.16179,-29.26857 q 0,-6.21682 -0.71521,-7.92232 -0.66019,-1.76052 -2.80582,-1.76052 -1.81553,0 -2.80582,1.43042 -0.93527,1.3754 -0.93527,8.25242 v 41.59218 q 0,7.75727 0.60517,9.5728 0.6602,1.81553 2.97087,1.81553 2.3657,0 3.02589,-2.09061 0.66019,-2.09061 0.66019,-9.95792 z"
       id="text16"
       transform="rotate(-14.621006)"
       aria-label="PASSO FUNDO"
       inkscape:label="path7" />
    <path
       d="m 180.76015,172.64661 h -46.76362 v -57.12833 h 45.62106 v 13.7108 h -27.25838 v 7.5899 h 23.09617 v 13.13952 h -23.09617 v 8.81408 h 28.40094 z m 29.5767,-12.73146 c 2.82921,0 5.08714,-0.81612 6.77379,-2.44836 1.68665,-1.63223 2.66599,-3.94457 2.93803,-6.93701 H 237.432 c -0.54407,7.50829 -3.21006,13.32994 -7.99796,17.46495 -4.7879,4.135 -11.26244,6.2025 -19.42363,6.2025 -9.14053,0 -16.34959,-2.66599 -21.62716,-7.99796 -5.22316,-5.38639 -7.83474,-12.73146 -7.83474,-22.03522 0,-9.30375 2.58438,-16.64882 7.75313,-22.03521 5.22316,-5.38639 12.3234,-8.07958 21.30071,-8.07958 8.27001,0 14.77175,2.01309 19.50524,6.03928 4.73349,3.97178 7.39948,9.65741 7.99797,17.05689 H 219.559 c -0.27204,-2.93803 -1.22418,-5.14155 -2.85642,-6.61056 -1.63223,-1.46902 -3.91737,-2.20353 -6.8554,-2.20353 -3.59092,0 -6.28411,1.30579 -8.07958,3.91738 -1.79546,2.61158 -2.69319,6.58336 -2.69319,11.91533 0,5.16875 0.95214,9.08613 2.85642,11.75212 1.90427,2.66599 4.70628,3.99898 8.40602,3.99898 z m 46.99155,12.73146 h -18.36268 v -57.12833 h 23.50423 c 5.22316,0 9.33096,0.29924 12.3234,0.89773 3.04684,0.59849 5.60401,1.57783 7.67151,2.93803 2.61159,1.79546 4.57028,4.02618 5.87606,6.69217 1.3058,2.61158 1.95869,5.71283 1.95869,9.30376 0,6.42013 -1.90428,11.34405 -5.71284,14.77175 -3.75414,3.37329 -9.19494,5.05994 -16.32238,5.05994 H 257.3284 Z m 0,-43.09109 v 11.6705 h 5.87606 c 3.80856,0 6.36573,-0.43526 7.67151,-1.30579 1.3058,-0.87053 1.95869,-2.39395 1.95869,-4.57026 0,-2.17632 -0.62569,-3.67254 -1.87707,-4.48866 -1.25138,-0.87053 -3.83576,-1.30579 -7.75313,-1.30579 z m 52.22106,43.09109 h -18.36268 v -57.12833 h 43.1727 v 14.36369 h -24.81002 v 8.8957 h 19.75008 v 13.79241 h -19.75008 z"
       id="text18"
       style="font-size:81.6119px;line-height:1;font-family:CONGO;-inkscape-font-specification:CONGO;letter-spacing:-3.5px;word-spacing:0px;display:inline;fill:#ffffff;fill-opacity:1;stroke-width:8;stroke-linejoin:round;stroke-miterlimit:3;paint-order:markers fill stroke"
       aria-label="ECPF"
       sodipodi:nodetypes="cccccccccccccssccsscscscccsssssscccscccscsccccssscscccccccccccc"
       inkscape:label="path8" />
    <path
       d="m 303.9638,659.76264 h -9.73574 v -19.32545 h -7.44784 v -6.91237 c 3.11544,-0.0649 5.40334,-0.63285 6.8637,-1.70376 1.46036,-1.07093 2.40148,-2.83959 2.82336,-5.30598 h 7.49652 z m 47.6572,-6.03616 c 1.65507,0 2.92072,-0.63282 3.79694,-1.89847 0.87621,-1.2981 1.363,-3.22902 1.46036,-5.79277 -0.90867,0.81131 -1.96338,1.41168 -3.16412,1.80111 -1.23319,0.38943 -2.62865,0.58415 -4.18637,0.58415 -3.50487,0 -6.29578,-0.9898 -8.37273,-2.9694 -2.07696,-1.9796 -3.11544,-4.62448 -3.11544,-7.93463 0,-3.66713 1.21697,-6.5554 3.6509,-8.66481 2.43394,-2.14186 5.77655,-3.21279 10.02782,-3.21279 4.96523,0 8.71349,1.46036 11.24478,4.38108 2.53129,2.92072 3.79693,7.25312 3.79693,12.99721 0,5.54937 -1.33055,9.86555 -3.99165,12.94854 -2.6611,3.08298 -6.34445,4.62447 -11.05006,4.62447 -3.50487,0 -6.40936,-0.79508 -8.71349,-2.38525 -2.27167,-1.62263 -3.71581,-3.8943 -4.33241,-6.81502 l 9.10292,-0.34075 c 0.25962,0.87621 0.71395,1.54149 1.363,1.99583 0.68151,0.45433 1.50905,0.6815 2.48262,0.6815 z m 4.96523,-16.11265 c 0,-1.42791 -0.40566,-2.53129 -1.21697,-3.31015 -0.77886,-0.81131 -1.84979,-1.21697 -3.2128,-1.21697 -1.33055,0 -2.38525,0.40566 -3.16411,1.21697 -0.77886,0.77886 -1.16829,1.84979 -1.16829,3.21279 0,1.42791 0.3732,2.54752 1.11961,3.35883 0.77886,0.77886 1.83357,1.16829 3.16412,1.16829 1.363,0 2.45016,-0.40566 3.26147,-1.21697 0.81131,-0.81131 1.21697,-1.88224 1.21697,-3.21279 z m 36.78785,12.26703 c 0,-1.88224 0.43811,-3.45618 1.31432,-4.72183 0.87622,-1.26565 2.223,-2.25545 4.04033,-2.9694 -1.46036,-0.77886 -2.54751,-1.71998 -3.26147,-2.82337 -0.71395,-1.10338 -1.07093,-2.45016 -1.07093,-4.04033 0,-2.98563 1.18452,-5.33843 3.55354,-7.05841 2.36904,-1.75243 5.61428,-2.62865 9.73574,-2.62865 4.12147,0 7.35049,0.87622 9.68707,2.62865 2.36903,1.71998 3.55354,4.07278 3.55354,7.05841 0,1.59017 -0.35697,2.93695 -1.07093,4.04033 -0.6815,1.10339 -1.75243,2.04451 -3.2128,2.82337 1.81734,0.71395 3.16412,1.70375 4.04034,2.9694 0.87622,1.26565 1.31432,2.83959 1.31432,4.72183 0,3.40751 -1.24942,6.05238 -3.74826,7.93463 -2.49884,1.84979 -6.01993,2.77468 -10.56328,2.77468 -4.57579,0 -8.11311,-0.92489 -10.61195,-2.77468 -2.46638,-1.88225 -3.69958,-4.52712 -3.69958,-7.93463 z m 14.31153,-4.81919 c -1.4279,0 -2.54751,0.38943 -3.35883,1.16829 -0.77886,0.74641 -1.16829,1.78488 -1.16829,3.11543 0,1.26565 0.38943,2.27167 1.16829,3.01808 0.77886,0.71396 1.89847,1.07094 3.35883,1.07094 1.46037,0 2.57998,-0.35698 3.35883,-1.07094 0.77886,-0.74641 1.16829,-1.75243 1.16829,-3.01808 0,-1.33055 -0.40565,-2.36902 -1.21696,-3.11543 -0.77886,-0.77886 -1.88224,-1.16829 -3.31016,-1.16829 z m -4.28372,-9.10292 c 0,1.16829 0.37321,2.07696 1.11961,2.72601 0.74641,0.61659 1.80111,0.92489 3.16411,0.92489 1.36301,0 2.40149,-0.3083 3.11544,-0.92489 0.74641,-0.64905 1.11961,-1.55772 1.11961,-2.72601 0,-1.00603 -0.40565,-1.83356 -1.21697,-2.48261 -0.77886,-0.64905 -1.78488,-0.97358 -3.01808,-0.97358 -1.23319,0 -2.25544,0.32453 -3.06675,0.97358 -0.81131,0.64905 -1.21697,1.47658 -1.21697,2.48261 z m 60.29099,-3.45619 c -1.65507,0 -2.92072,0.64905 -3.79694,1.94715 -0.87621,1.26565 -1.37923,3.19657 -1.50904,5.79277 0.94113,-0.84377 2.01206,-1.44414 3.2128,-1.80111 1.26565,-0.42189 2.67733,-0.63283 4.23505,-0.63283 3.47241,0 6.2471,0.9898 8.32405,2.9694 2.07696,1.9796 3.11544,4.62448 3.11544,7.93463 0,3.69958 -1.21697,6.6203 -3.6509,8.76217 -2.43393,2.10941 -5.77654,3.16411 -10.02781,3.16411 -4.96523,0 -8.71349,-1.46036 -11.24478,-4.38108 -2.49884,-2.92072 -3.74826,-7.26935 -3.74826,-13.04589 0,-5.54937 1.31432,-9.86555 3.94297,-12.94854 2.6611,-3.08298 6.34446,-4.62447 11.05007,-4.62447 3.50487,0 6.40936,0.81131 8.71348,2.43393 2.30413,1.62263 3.76449,3.8943 4.38109,6.81502 l -9.1516,0.34075 c -0.25962,-0.87621 -0.73018,-1.54149 -1.41168,-1.99582 -0.64905,-0.48679 -1.46037,-0.73019 -2.43394,-0.73019 z m -0.48678,11.68289 c -1.36301,0 -2.45017,0.40566 -3.26148,1.21697 -0.81131,0.81131 -1.21696,1.89847 -1.21696,3.26147 0,1.39546 0.38943,2.49884 1.16828,3.31015 0.81131,0.77886 1.89847,1.16829 3.26148,1.16829 1.33055,0 2.38525,-0.38943 3.16411,-1.16829 0.81131,-0.81131 1.21697,-1.89846 1.21697,-3.26147 0,-1.39545 -0.38943,-2.49884 -1.16829,-3.31015 -0.77886,-0.81131 -1.83356,-1.21697 -3.16411,-1.21697 z"
       id="text19"
       style="font-size:48.6787px;line-height:1;font-family:CONGO;-inkscape-font-specification:CONGO;letter-spacing:29.5px;word-spacing:0px;fill:#ffffff;fill-opacity:1;stroke-width:8;stroke-linejoin:round;stroke-miterlimit:3;paint-order:markers fill stroke"
       aria-label="1986"
       sodipodi:nodetypes="cccccscccscccssscsssssccccsscscscssssscsscscsccsscscsscscscscsscscscsssscccssscscscsscccsssscsssss"
       inkscape:label="path9" />
  </g>
</svg>
