<svg xmlns="http://www.w3.org/2000/svg" width="300" height="179.4" viewBox="0 0 300 179.401"><title>AD Cabofriense</title><path d="M290.42,75.588l-117.15-68.627c-11.89-6.961-15.93-6.961-23.27-6.961-7.339,0-11.383,0-23.269,6.961l-117.15,68.627c-5.24,3.07-9.578,6.251-9.578,14.113,0,7.861,4.338,11.043,9.578,14.112l117.15,68.626c11.886,6.962,15.929,6.962,23.269,6.962s11.383,0,23.27-6.962l117.15-68.626c5.24-3.069,9.578-6.25,9.578-14.112s-4.34-11.04-9.58-14.11z"/><path d="M127.06,171.88l-117.16-68.62c-5.067-2.968-9.261-6.037-9.261-13.559s4.194-10.591,9.261-13.559l117.16-68.626c2.097-1.229,3.942-2.234,5.607-3.063-1.274,0.718-2.657,1.546-4.183,2.515l-108.25,68.626c-4.844,3.07-8.853,6.251-8.853,14.107s4.009,11.036,8.853,14.106l108.24,68.626c1.526,0.968,2.909,1.797,4.184,2.515-1.66-0.84-3.51-1.85-5.6-3.08z" fill="#2A8735"/><path d="M150,0.642c6.67,0,10.344,0,21.178,6.868l108.24,68.626c4.68,2.967,8.555,6.036,8.555,13.565s-3.875,10.598-8.555,13.564l-108.24,68.626c-10.834,6.868-14.508,6.868-21.178,6.868-6.669,0-10.344,0-21.177-6.868l-108.24-68.63c-4.68-2.967-8.554-6.035-8.554-13.564s3.874-10.598,8.554-13.565l108.24-68.622c10.84-6.867,14.51-6.867,21.18-6.867z" fill="#F00"/><path d="M290.1,103.26l-117.15,68.626c-2.097,1.229-3.942,2.233-5.606,3.063,1.273-0.718,2.656-1.547,4.183-2.515l108.24-68.626c4.843-3.07,8.852-6.251,8.852-14.106s-4.009-11.037-8.852-14.107l-108.24-68.629c-1.526-0.968-2.908-1.797-4.183-2.515,1.664,0.829,3.51,1.834,5.606,3.063l117.15,68.626c5.066,2.968,9.261,6.037,9.261,13.559,0,7.521-4.2,10.589-9.26,13.559z" fill="#2A8735"/><path d="M15.609,89.701c0,7.234,3.892,10.16,8.593,12.985l104.94,63.044c10.654,6.4,14.28,6.4,20.861,6.4,6.583,0,10.208,0,20.862-6.4l104.94-63.044c4.702-2.825,8.594-5.751,8.594-12.985s-3.892-10.161-8.594-12.986l-104.94-63.048c-10.65-6.401-14.28-6.401-20.86-6.401-6.582,0-10.207,0-20.861,6.401l-104.94,63.044c-4.702,2.825-8.594,5.752-8.594,12.986z"/><path d="M24.533,77.265l104.94-63.044c10.502-6.31,14.064-6.31,20.531-6.31s10.03,0,20.532,6.31l104.94,63.044c4.531,2.723,8.282,5.537,8.282,12.436s-3.751,9.713-8.282,12.436l-104.94,63.043c-10.502,6.311-14.064,6.311-20.532,6.311-6.467,0-10.029,0-20.531-6.311l-104.94-63.04c-4.531-2.723-8.282-5.537-8.282-12.436s3.75-9.716,8.282-12.439z" fill="#FFF"/><path d="M47.942,100.66l85.103,53.029c8.657,5.395,11.604,5.395,16.955,5.395s8.298,0,16.955-5.395l85.104-53.029c3.826-2.384,6.993-4.854,6.993-10.963s-3.167-8.579-6.993-10.963l-85.104-53.029c-8.657-5.394-11.604-5.394-16.955-5.394s-8.298,0-16.955,5.394l-85.098,53.042c-3.827,2.384-6.994,4.855-6.994,10.963s3.167,8.58,6.994,10.96z"/><path d="M48.281,79.282l85.103-53.029c8.501-5.297,11.384-5.297,16.616-5.297s8.114,0,16.615,5.297l85.104,53.029c3.661,2.281,6.691,4.64,6.691,10.419s-3.03,8.138-6.691,10.419l-85.104,53.029c-8.501,5.297-11.383,5.297-16.615,5.297s-8.114,0-16.616-5.297l-85.099-53.03c-3.661-2.281-6.692-4.64-6.692-10.419s3.031-8.138,6.692-10.419z" fill="#2A8735"/><g stroke="#FFF" stroke-width="5" fill="#F00"><path d="M108.9,98.388h-15.991l-2.89,7.35h-14.404l21.04-44.533h15.373l13.261,44.533h-14.746l-1.64-7.352zm-2.11-9.625l-3.613-16.013-6.39,16.013h10.002z"/><path d="M133.88,61.205h20.942c4.128,0,7.414,0.547,9.86,1.641,2.445,1.093,4.408,2.663,5.89,4.708,1.48,2.046,2.476,4.425,2.984,7.139,0.51,2.713,0.631,5.589,0.365,8.627-0.416,4.759-1.294,8.45-2.633,11.073-1.34,2.622-3.072,4.82-5.198,6.592s-4.345,2.951-6.657,3.539c-3.162,0.81-5.998,1.215-8.508,1.215h-20.942l3.9-44.535zm13.19,10.105l-2.127,24.323h3.461c2.952,0,5.08-0.318,6.382-0.956,1.304-0.638,2.378-1.751,3.224-3.34s1.425-4.166,1.736-7.729c0.413-4.717-0.094-7.946-1.521-9.687s-3.973-2.611-7.631-2.611h-3.524z"/><path d="M211.32,87.525l12.03,3.633c-1.126,3.382-2.681,6.206-4.663,8.475-1.983,2.268-4.348,3.979-7.095,5.133-2.746,1.154-6.163,1.731-10.251,1.731-4.959,0-8.948-0.704-11.969-2.109-3.021-1.407-5.518-3.88-7.489-7.423-1.974-3.541-2.718-8.075-2.234-13.599,0.646-7.367,3.147-13.028,7.508-16.985s10.214-5.935,17.558-5.935c5.746,0,10.164,1.136,13.254,3.407,3.09,2.27,5.229,5.757,6.414,10.459l-12.665,2.709c-0.317-1.359-0.688-2.354-1.111-2.983-0.698-1.055-1.594-1.867-2.687-2.435-1.094-0.568-2.348-0.852-3.762-0.852-3.201,0-5.764,1.252-7.688,3.758-1.452,1.86-2.352,4.78-2.7,8.761-0.431,4.931,0.042,8.31,1.419,10.139s3.459,2.743,6.243,2.743c2.701,0,4.807-0.736,6.317-2.209s2.7-3.615,3.57-6.42z"/></g><g fill="#F00"><path d="M108.9,98.388h-15.991l-2.89,7.35h-14.404l21.04-44.533h15.373l13.261,44.533h-14.746l-1.64-7.352zm-2.11-9.625l-3.613-16.013-6.39,16.013h10.002z"/><path d="M133.88,61.205h20.942c4.128,0,7.414,0.547,9.86,1.641,2.445,1.093,4.408,2.663,5.89,4.708,1.48,2.046,2.476,4.425,2.984,7.139,0.51,2.713,0.631,5.589,0.365,8.627-0.416,4.759-1.294,8.45-2.633,11.073-1.34,2.622-3.072,4.82-5.198,6.592s-4.345,2.951-6.657,3.539c-3.162,0.81-5.998,1.215-8.508,1.215h-20.942l3.9-44.535zm13.19,10.105l-2.127,24.323h3.461c2.952,0,5.08-0.318,6.382-0.956,1.304-0.638,2.378-1.751,3.224-3.34s1.425-4.166,1.736-7.729c0.413-4.717-0.094-7.946-1.521-9.687s-3.973-2.611-7.631-2.611h-3.524z"/><path d="M211.32,87.525l12.03,3.633c-1.126,3.382-2.681,6.206-4.663,8.475-1.983,2.268-4.348,3.979-7.095,5.133-2.746,1.154-6.163,1.731-10.251,1.731-4.959,0-8.948-0.704-11.969-2.109-3.021-1.407-5.518-3.88-7.489-7.423-1.974-3.541-2.718-8.075-2.234-13.599,0.646-7.367,3.147-13.028,7.508-16.985s10.214-5.935,17.558-5.935c5.746,0,10.164,1.136,13.254,3.407,3.09,2.27,5.229,5.757,6.414,10.459l-12.665,2.709c-0.317-1.359-0.688-2.354-1.111-2.983-0.698-1.055-1.594-1.867-2.687-2.435-1.094-0.568-2.348-0.852-3.762-0.852-3.201,0-5.764,1.252-7.688,3.758-1.452,1.86-2.352,4.78-2.7,8.761-0.431,4.931,0.042,8.31,1.419,10.139s3.459,2.743,6.243,2.743c2.701,0,4.807-0.736,6.317-2.209s2.7-3.615,3.57-6.42z"/></g><g fill="none"><path d="M150.59,72.913h-2.054c-0.209,2.389-1.602,18.305-1.847,21.116h1.711c3.353,0,4.938-0.432,5.677-0.793,1.002-0.49,1.824-1.357,2.513-2.652,0.74-1.392,1.264-3.786,1.555-7.115,0.093-1.053,0.133-1.986,0.133-2.813,0-3.342-0.666-4.946-1.297-5.717-1.09-1.345-3.24-2.026-6.38-2.026z"/><path d="M169.27,68.494c-1.307-1.805-3.072-3.213-5.245-4.185-2.228-0.996-5.326-1.501-9.206-1.501h-19.472c-0.23,2.628-3.344,38.217-3.616,41.326h19.192c2.364,0,5.093-0.393,8.113-1.166,2.068-0.525,4.096-1.607,6.025-3.217,1.947-1.623,3.561-3.672,4.796-6.089,1.239-2.427,2.068-5.953,2.464-10.483,0.087-0.988,0.13-1.961,0.13-2.917,0-1.83-0.158-3.595-0.474-5.274-0.44-2.457-1.36-4.642-2.69-6.486zm-7.93,15.254c-0.334,3.814-0.961,6.543-1.918,8.342-1.004,1.887-2.328,3.24-3.935,4.027-1.54,0.754-3.858,1.119-7.087,1.119h-5.211l2.408-27.53h4.993c4.146,0,7.131,1.076,8.871,3.199,1.73,2.095,2.35,5.643,1.89,10.843z"/><path d="M99.157,87.16h5.629c-0.437-1.934-1.156-5.124-2.034-9.013-1.52,3.784-2.75,6.878-3.603,9.013z"/><path d="M97.671,62.808c-0.789,1.67-17.621,37.297-19.525,41.326h10.78c0.594-1.51,2.89-7.35,2.89-7.35h18.37s1.257,5.625,1.643,7.35h11.31c-1.086-3.648-11.688-39.254-12.306-41.326-1.89,0.004-11.534,0.004-13.159,0.004zm-3.247,27.559l9.181-23.013,5.193,23.013h-14.366z"/><path d="M201.44,97.755c-3.303,0-5.834-1.138-7.524-3.383-1.638-2.177-2.207-5.853-1.735-11.243,0.38-4.337,1.372-7.48,3.025-9.598,2.234-2.91,5.249-4.386,8.96-4.386,1.666,0,3.181,0.348,4.5,1.033,1.334,0.693,2.439,1.693,3.278,2.963,0.339,0.503,0.627,1.203,0.894,2,1.921-0.411,7.244-1.549,9.484-2.028-1.141-3.493-2.891-6.204-5.295-7.97-2.795-2.054-6.935-3.095-12.305-3.095-6.9,0-12.445,1.856-16.48,5.519-4.031,3.657-6.382,9.02-6.987,15.937-0.453,5.174,0.233,9.44,2.038,12.68,1.795,3.223,4.07,5.494,6.765,6.748,2.794,1.301,6.593,1.96,11.292,1.96,3.854,0,7.094-0.54,9.629-1.606,2.508-1.053,4.697-2.639,6.51-4.711,1.521-1.74,2.771-3.895,3.761-6.38-2.108-0.637-7.036-2.124-8.933-2.696-0.894,2.329-2.036,4.224-3.439,5.591-1.82,1.775-4.32,2.671-7.44,2.671z"/></g><g fill="#FFF"><path d="M95.639,59.601l-22.556,47.741h18.028s2.296-5.839,2.89-7.349h13.615c0.386,1.725,1.643,7.349,1.643,7.349h18.182l-14.216-47.741h-17.581zm16.191,44.529c-0.386-1.725-1.643-7.35-1.643-7.35h-18.37s-2.296,5.84-2.89,7.35h-10.78c1.904-4.029,18.736-39.656,19.525-41.326h13.161c0.618,2.072,11.22,37.678,12.306,41.326h-11.32z"/><path d="M94.424,90.367h14.374l-5.193-23.013-9.186,23.013zm4.733-3.207c0.851-2.135,2.085-5.229,3.595-9.013,0.877,3.889,1.597,7.079,2.034,9.013h-5.623z"/><path d="M171.87,66.613c-1.641-2.267-3.84-4.027-6.533-5.232-2.644-1.182-6.182-1.781-10.516-1.781h-22.412l-4.177,47.741h22.692c2.633,0,5.629-0.426,8.906-1.266,2.533-0.643,4.985-1.941,7.286-3.86,2.282-1.901,4.166-4.288,5.599-7.094,1.428-2.796,2.371-6.72,2.803-11.663,0.277-3.17,0.147-6.219-0.387-9.063-0.55-2.928-1.65-5.546-3.26-7.777zm0.45,16.567c-0.396,4.53-1.225,8.056-2.464,10.483-1.235,2.417-2.849,4.466-4.796,6.089-1.93,1.609-3.957,2.691-6.025,3.217-3.021,0.773-5.749,1.166-8.113,1.166h-19.192c0.272-3.109,3.386-38.698,3.616-41.326h19.472c3.88,0,6.979,0.505,9.206,1.501,2.173,0.972,3.938,2.38,5.245,4.185,1.334,1.844,2.244,4.029,2.707,6.494,0.315,1.679,0.474,3.445,0.474,5.274-0.01,0.95-0.05,1.924-0.14,2.912z"/><path d="M150.59,69.706h-4.993l-2.408,27.53h5.211c3.229,0,5.547-0.365,7.087-1.119,1.606-0.787,2.931-2.141,3.935-4.027,0.957-1.799,1.584-4.528,1.918-8.342,0.455-5.199-0.159-8.747-1.879-10.843-1.74-2.123-4.72-3.199-8.87-3.199zm7.55,13.762c-0.291,3.33-0.814,5.723-1.555,7.115-0.688,1.295-1.511,2.162-2.513,2.652-0.739,0.361-2.324,0.793-5.677,0.793h-1.711c0.246-2.811,1.638-18.727,1.847-21.116h2.054c3.139,0,5.289,0.681,6.391,2.025,0.631,0.771,1.297,2.375,1.297,5.717,0.01,0.828-0.03,1.761-0.13,2.814z"/><path d="M209.79,87.05c-0.786,2.534-1.849,4.467-3.157,5.744-1.211,1.18-2.911,1.754-5.198,1.754-2.272,0-3.896-0.688-4.962-2.104-0.773-1.027-1.593-3.428-1.103-9.035,0.319-3.649,1.115-6.311,2.366-7.913,1.626-2.118,3.725-3.142,6.424-3.142,1.146,0,2.164,0.226,3.022,0.672,0.854,0.444,1.538,1.064,2.088,1.896,0.222,0.33,0.549,1.014,0.888,2.463l0.357,1.532,15.831-3.386-0.407-1.612c-1.273-5.052-3.635-8.874-7.019-11.36-3.357-2.467-8.136-3.718-14.204-3.718-7.722,0-13.991,2.137-18.636,6.351-4.648,4.218-7.349,10.285-8.027,18.032-0.509,5.825,0.308,10.71,2.431,14.521,2.131,3.826,4.895,6.55,8.213,8.096,3.222,1.499,7.477,2.259,12.646,2.259,4.283,0,7.94-0.624,10.872-1.856,2.961-1.244,5.545-3.113,7.681-5.557,2.114-2.418,3.789-5.453,4.978-9.022l0.521-1.565-15.134-4.57-0.47,1.527zm11.45,5.146c-0.989,2.485-2.239,4.64-3.761,6.38-1.813,2.072-4.002,3.658-6.51,4.711-2.535,1.066-5.775,1.606-9.629,1.606-4.699,0-8.498-0.659-11.292-1.96-2.694-1.254-4.97-3.525-6.765-6.748-1.805-3.24-2.491-7.506-2.038-12.68,0.605-6.917,2.956-12.279,6.987-15.937,4.035-3.663,9.58-5.519,16.48-5.519,5.37,0,9.51,1.041,12.305,3.095,2.404,1.767,4.154,4.477,5.295,7.97-2.24,0.479-7.563,1.618-9.484,2.028-0.267-0.798-0.555-1.498-0.894-2-0.839-1.27-1.944-2.27-3.278-2.963-1.319-0.685-2.834-1.033-4.5-1.033-3.711,0-6.726,1.476-8.96,4.386-1.653,2.118-2.646,5.261-3.025,9.598-0.472,5.39,0.098,9.066,1.735,11.243,1.69,2.245,4.222,3.383,7.524,3.383,3.121,0,5.624-0.896,7.437-2.665,1.403-1.367,2.546-3.262,3.439-5.591,1.89,0.565,6.82,2.052,8.92,2.689z"/><path d="M106.29,119.38c-1.412,2.007-4.088,3.262-6.498,3.262-3.631,0-5.987-2.642-5.33-5.726,0.642-3.01,4.069-5.636,7.7-5.636,2.087,0,4.516,0.944,5.211,3.334h-2.646c-0.708-0.9-1.66-1.445-3.052-1.445-2.036,0-4.429,1.594-4.894,3.777-0.437,2.051,1.14,3.807,3.362,3.807,1.68,0,2.779-0.856,3.449-1.373h2.7z"/><path d="M113.62,111.5h1.815l2.933,10.918h-2.562l-0.74-2.817h-4.497l-1.941,2.817h-2.563l7.55-10.92zm-1.86,6.2h2.885l-0.711-3.35h-0.034l-2.14,3.35z"/><path d="M122.02,111.5h2.478c1.391,0,2.783,0,3.689,0.842,0.524,0.486,0.795,1.283,0.635,2.035-0.292,1.373-1.42,1.889-1.852,2.081,0.775,0.266,1.969,0.87,1.576,2.715-0.28,1.313-1.25,2.124-2.114,2.597-1.073,0.575-2.565,0.648-3.379,0.648h-3.359l2.32-10.93zm0.4,9.03h1.171c0.458,0,2.341,0,2.646-1.432,0.095-0.442,0.057-1.46-1.979-1.46h-1.222l-0.62,2.89zm1.02-4.78h0.764c0.543,0,2.002,0,2.254-1.181,0.138-0.649-0.224-1.181-1.547-1.181h-0.967l-0.49,2.36z"/><path d="M137.84,111.28c3.563,0,6.038,2.479,5.349,5.71-0.667,3.128-4.157,5.651-7.771,5.651s-6.028-2.523-5.362-5.651c0.69-3.23,4.22-5.71,7.78-5.71zm-2.02,9.47c2.392,0,4.616-1.756,5.047-3.777,0.446-2.096-1.072-3.807-3.431-3.807s-4.606,1.711-5.053,3.807c-0.43,2.02,1.04,3.78,3.43,3.78z"/><path d="M145.96,111.5h6.396l-0.402,1.889h-4.072l-0.569,2.671h3.886l-0.402,1.889h-3.886l-0.953,4.47h-2.325l2.32-10.92z"/><path d="M154.15,111.5h3.852c1.443,0,2.292,0.236,2.897,0.738s1.181,1.387,0.913,2.641c-0.154,0.723-0.701,1.859-1.762,2.611-0.878,0.62-1.622,0.768-2.278,0.9l2.552,4.027h-2.816l-2.436-4.175h-0.034l-0.89,4.175h-2.324l2.33-10.92zm1.21,5.22h1.493c1.917,0,2.476-1.106,2.598-1.683,0.129-0.604-0.071-1.652-1.887-1.652h-1.493l-0.71,3.33z"/><path d="M164.13,111.5h2.325l-2.327,10.918h-2.324l2.32-10.92z"/><path d="M168.69,111.5h6.754l-0.403,1.889h-4.429l-0.568,2.671h4.241l-0.402,1.889h-4.241l-0.551,2.582h4.428l-0.402,1.888h-6.753l2.32-10.92z"/><path d="M177.67,111.5h2.647l3.5,7.938h0.033l1.692-7.938h2.325l-2.328,10.918h-2.596l-3.551-7.938h-0.034l-1.692,7.938h-2.324l2.33-10.92z"/><path d="M190.02,119.29c-0.114,1.092,0.639,1.461,1.352,1.461,0.916,0,1.847-0.547,2.023-1.373,0.238-1.121-0.549-1.328-2-1.844-0.897-0.324-2.807-0.842-2.316-3.143,0.371-1.741,2.225-3.113,4.346-3.113,1.459,0,3.408,0.885,3.053,3.113h-2.376c0.106-0.975-0.52-1.225-1.147-1.225-0.729,0-1.387,0.457-1.525,1.106-0.201,0.944,0.569,1.15,1.764,1.52,0.972,0.295,3.08,0.988,2.574,3.364-0.503,2.36-2.846,3.482-4.814,3.482-1.611,0-3.752-0.945-3.375-3.35h2.463z"/><path d="M198.9,111.5h6.753l-0.403,1.889h-4.428l-0.568,2.671h4.241l-0.403,1.889h-4.241l-0.55,2.582h4.428l-0.402,1.888h-6.753l2.32-10.92z"/></g></svg>