<?xml version="1.0" encoding="UTF-8"?>
<svg id="Layer_1" xmlns="http://www.w3.org/2000/svg" version="1.1" viewBox="0 0 400 400">
  <!-- Generator: Adobe Illustrator 29.8.2, SVG Export Plug-In . SVG Version: 2.1.1 Build 3)  -->
  <defs>
    <style>
      .st0 {
        fill: #ebf9fd;
      }

      .st1 {
        fill: #f2f2f9;
      }

      .st2 {
        fill: #effafd;
      }

      .st3 {
        fill: #eaebf4;
      }

      .st4 {
        fill: #0296fe;
      }

      .st5 {
        fill: #050666;
      }

      .st6 {
        fill: #1598f6;
      }

      .st7 {
        fill: #f3fbff;
      }

      .st8 {
        fill: #ecf9fe;
      }

      .st9 {
        fill: #98d2fa;
      }

      .st10 {
        fill: #f0f0f7;
      }

      .st11 {
        fill: #e9e9f3;
      }

      .st12 {
        fill: #edf9fe;
      }

      .st13 {
        fill: #f7d60d;
      }

      .st14 {
        fill: #f1fafe;
      }

      .st15 {
        fill: #141365;
      }

      .st16 {
        fill: #f1f2f9;
      }

      .st17 {
        fill: #f4fcfe;
      }

      .st18 {
        fill: #ececf5;
      }

      .st19 {
        fill: #edeef5;
      }

      .st20 {
        fill: #ecf9fd;
      }

      .st21 {
        fill: #f1fbfd;
      }

      .st22 {
        fill: #efeff7;
      }

      .st23 {
        fill: #fafafc;
      }

      .st24 {
        fill: #eaeaf3;
      }

      .st25 {
        fill: #eff9fe;
      }

      .st26 {
        fill: #f0f0f8;
      }

      .st27 {
        fill: #f5fcfe;
      }

      .st28 {
        fill: #eeeef6;
      }

      .st29 {
        fill: #eefafe;
      }

      .st30 {
        fill: #0d0c4d;
      }
    </style>
  </defs>
  <path class="st15" d="M104.37,324.13c-19.94-19.57-36.85-41.32-50.86-65.3-13.44-22.99-23.79-47.33-31.38-72.85-4.94-16.62-9.03-33.44-11.43-50.62-1.5-10.73-2.97-21.48-4.01-32.27-.94-9.81-1.28-19.68-1.87-29.44,6.52-1.66,12.83-3.03,19.01-4.88,16.24-4.85,30.95-12.68,44.03-23.49,11.12-9.19,20.53-20,29.55-31.19,1.42-1.76,2.93-3.45,4.3-5.07,7.78,3.37,15.3,6.9,23.01,9.93,17.09,6.7,34.78,10.97,53.11,12.55,23.99,2.07,47.38-.84,70.19-8.39,11.35-3.76,22.2-8.73,32.73-14.37,1.43-.77,2.32-.69,3.46.5,9.74,10.19,20.15,19.64,31.51,28.01,22.54,16.61,47.41,28.2,74.63,34.76,4.24,1.02,4.21,1.06,4.42,5.45.87,18.21.4,36.39-1.59,54.52-2.74,24.97-8.61,49.18-17.41,72.71-7.27,19.45-16.66,37.82-27.8,55.29-7.4,11.61-15.6,22.65-24.46,33.22-9.23,11.02-18.95,21.58-29.49,31.32-9.22,8.52-18.77,16.71-28.51,24.64-15.58,12.69-32.22,23.92-49.29,34.51-4.34,2.69-8.72,5.3-13.13,7.86-.53.31-1.5.31-2.05.03-26.42-13.22-51.55-28.49-74.31-47.42-7.64-6.35-14.83-13.25-22.33-20.01M143.87,28.43c-13.58-3.8-26.69-8.83-39.35-15.03-1.54-.76-2.28-.43-3.31.8-5.2,6.21-10.39,12.44-15.81,18.46-17.51,19.42-38.72,32.99-64,39.98-4.41,1.22-8.88,2.26-13.44,3.41.3,5.27.58,10.44.88,15.62,1.23,21.31,4.09,42.4,8.46,63.28,7.12,34,18.72,66.36,35.62,96.78,17.58,31.64,40.12,59.27,67.3,83.09,24.35,21.35,51.32,38.78,80.33,53.13,1.11.55,1.89.47,2.9-.17,10.02-6.35,20.23-12.42,30.09-19.01,33.1-22.12,63.07-47.81,88.54-78.54,19.35-23.35,35.17-48.84,46.97-76.84,11.15-26.45,17.99-53.96,21.16-82.42,1.7-15.28,2.17-30.62,1.78-45.99-.08-3.18-.27-6.36-.41-9.49-.82-.22-1.43-.4-2.05-.56-21.16-5.26-41.18-13.32-59.82-24.68-16.91-10.31-32.03-22.85-45.81-37.03-1.44-1.48-2.43-1.41-4.14-.61-7.78,3.64-15.54,7.36-23.5,10.58-13.28,5.37-27.13,8.83-41.33,10.66-12.72,1.64-25.49,1.82-38.29.62-10.99-1.03-21.77-3.07-32.75-6.04Z"/>
  <path class="st23" d="M144.04,28.46c10.81,2.93,21.59,4.97,32.58,6,12.8,1.2,25.58,1.02,38.29-.62,14.2-1.83,28.05-5.29,41.33-10.66,7.96-3.22,15.72-6.94,23.5-10.58,1.71-.8,2.7-.88,4.14.61,13.78,14.18,28.9,26.72,45.81,37.03,18.64,11.36,38.66,19.42,59.82,24.68.62.15,1.23.33,2.05.56.14,3.13.33,6.31.41,9.49.39,15.37-.08,30.71-1.78,45.99-3.17,28.47-10.02,55.97-21.16,82.42-11.8,28-27.62,53.49-46.97,76.84-25.47,30.73-55.44,56.43-88.54,78.54-9.86,6.59-20.07,12.66-30.09,19.01-1.01.64-1.79.72-2.9.17-29-14.35-55.98-31.78-80.33-53.13-27.18-23.83-49.72-51.45-67.3-83.09-16.9-30.42-28.5-62.77-35.62-96.78-4.37-20.88-7.23-41.98-8.46-63.28-.3-5.18-.58-10.35-.88-15.62,4.57-1.15,9.03-2.19,13.44-3.41,25.28-7,46.5-20.56,64-39.98,5.42-6.02,10.61-12.25,15.81-18.46,1.03-1.23,1.77-1.55,3.31-.8,12.66,6.2,25.77,11.23,39.51,15.06M271.64,324.87s-.05-.01.19-.06c.09-.13.18-.25.34-.58.1-.11.22-.17.64-.19.21-.25.41-.51.62-.81,0,0,.05.01.3-.02.15-.18.3-.36.46-.49,0,0-.05-.02.19-.05.09-.13.18-.25.39-.62.42-.32.84-.63,1.52-.99.16-.19.31-.38.56-.78.25-.17.5-.34.97-.56.09-.12.18-.23.39-.59.43-.33.86-.66,1.53-1.03.14-.17.28-.35.44-.47,0,0-.05,0,.19-.06.09-.13.17-.25.36-.63.41-.32.82-.64,1.49-.99.2-.25.4-.5.71-.98.15-.08.29-.17.68-.29.14-.18.28-.35.53-.78.86-.72,1.72-1.45,2.83-2.21.14-.19.28-.37.43-.5,0,0-.06-.02.2-.06.09-.14.17-.28.38-.67,15.24-14.26,29.32-29.55,41.69-46.39,16.08-21.91,28.76-45.62,37.75-71.28,7.03-20.06,11.35-40.74,13.43-61.87.69-6.99.85-14.03,1.35-21.43-.03-5.69-.06-11.38-.01-17.45-.13-2.91-.35-5.82-.35-8.73,0-1.37-.5-1.79-1.76-2.07-3.32-.74-6.61-1.62-9.9-2.5-21.78-5.83-41.9-15.14-60.04-28.61-9.61-7.14-18.38-15.23-26.8-23.72-.95-.95-1.65-1.08-2.91-.5-7.22,3.32-14.37,6.86-21.8,9.67-15.83,6-32.25,9.4-49.18,10.4-16.06.95-31.95-.21-47.69-3.38-18.18-3.67-35.54-9.83-52.25-17.84-1.37-.66-2.05-.43-2.99.68-5.66,6.66-11.22,13.42-17.17,19.82-14.94,16.09-32.91,27.36-54.22,33.07-5.12,1.37-10.3,2.56-15.53,3.85,0,.84-.03,1.68,0,2.53.92,24.97,3.73,49.7,9.16,74.12,9.31,41.87,25.94,80.45,51.54,115.02,20.74,28.01,46,51.22,74.84,70.63,14.11,9.49,28.95,17.73,44.13,25.38,2.58,1.3,4.44,1.39,6.91-.19,11.08-7.06,22.29-13.92,33.66-20.9.1-.1.19-.21.48-.52,1.03-.67,2.06-1.35,3.33-2.07.1-.12.2-.24.31-.33,0,0-.02-.02.17-.06.13-.06.21-.16.35-.43,0,0,.16,0,.42-.04.1-.13.21-.26.32-.35,0,0-.04-.02.18-.06.09-.11.19-.21.28-.35,0,0,.02.01.28,0,.17-.17.34-.35.52-.47,0,0-.05-.02.18-.05.1-.11.19-.23.38-.54.19-.1.38-.19.83-.32.11-.13.23-.25.35-.34,0,0-.03-.02.18-.06.09-.11.18-.21.44-.55.94-.64,1.88-1.29,3.01-1.98.12-.06.21-.16.26-.35,0,0,.06.01.35,0,.3-.29.61-.58.98-1.08.2-.09.41-.19.91-.26.24-.26.49-.53.72-.81,0,0,.02.02.33.01.31-.3.61-.61.94-.87,0,0-.04-.02.25-.02.16-.19.32-.38.53-.51,0,0-.07-.03.18-.03.09-.13.18-.26.28-.34,0,0-.05-.02.19-.05.1-.12.19-.23.36-.55.18-.09.36-.19.83-.32.11-.14.23-.29.43-.61.1-.11.22-.15.64-.15.16-.19.32-.38.51-.52,0,0-.06-.02.2-.04.09-.14.18-.28.39-.64.47-.33.95-.66,1.7-1.03.11-.14.22-.28.45-.65.47-.32.93-.64,1.68-1.02.11-.14.23-.29.45-.66.28-.17.57-.35,1.03-.52.11-.13.22-.27.39-.75-.06-.1-.12-.2-.17-.37,0,0,0-.07.1-.09,0,0,.09-.03.42.16.24-.08.48-.15.9-.28.12-.06.19-.16.35-.49.2-.13.4-.25.84-.42.1-.12.2-.24.42-.59.28-.19.55-.38,1.09-.6.14-.19.28-.38.43-.51,0,0-.05-.02.19-.04.09-.13.18-.26.27-.34Z"/>
  <path class="st5" d="M262.5,332.1c-.47.33-.95.66-1.6,1.13-.27.26-.37.39-.47.52,0,0,.06.02-.08.02-.31.17-.48.35-.65.53-.14-.02-.26.03-.54.25-.3.26-.41.39-.53.53-.18.09-.36.19-.7.39-.25.23-.35.35-.44.47,0,0,.05.02-.07,0-.22.11-.31.23-.41.34,0,0,.07.03-.08.03-.32.17-.49.34-.66.52,0,0,.04.02-.11.03-.46.29-.78.58-1.1.87,0,0-.02-.02-.15,0-.39.27-.64.52-.89.77-.2.1-.41.19-.78.41-.48.41-.79.69-1.11.97,0,0-.06-.01-.17.02-.19.15-.27.26-.35.37-.94.64-1.88,1.29-3.01,2.06-.28.24-.37.35-.46.47,0,0,.03.02-.1.02-.25.12-.36.25-.48.37-.19.1-.38.19-.72.4-.25.23-.35.34-.45.46,0,0,.05.02-.08,0-.3.16-.48.33-.65.5,0,0-.02-.01-.14,0-.2.13-.29.25-.38.37,0,0,.04.02-.09.02-.23.13-.34.26-.45.38,0,0-.16,0-.31.07-.29.14-.37.25-.39.41,0,0,.02.02-.1.02-.22.13-.32.25-.42.37-1.03.67-2.06,1.35-3.3,2.13-.3.22-.39.34-.48.45-11.16,6.93-22.37,13.79-33.45,20.86-2.48,1.58-4.33,1.49-6.91.19-15.18-7.65-30.02-15.89-44.13-25.38-28.84-19.41-54.1-42.63-74.84-70.63-25.6-34.57-42.23-73.15-51.54-115.02-5.43-24.42-8.24-49.15-9.16-74.12-.03-.84,0-1.68,0-2.53,5.24-1.29,10.41-2.48,15.53-3.85,21.3-5.71,39.27-16.98,54.22-33.07,5.94-6.4,11.51-13.16,17.17-19.82.95-1.12,1.62-1.34,2.99-.68,16.71,8,34.07,14.17,52.25,17.84,15.74,3.18,31.63,4.33,47.69,3.38,16.93-1,33.35-4.4,49.18-10.4,7.42-2.81,14.57-6.35,21.8-9.67,1.27-.58,1.97-.45,2.91.5,8.42,8.48,17.18,16.58,26.8,23.72,18.14,13.47,38.26,22.78,60.04,28.61,3.29.88,6.58,1.77,9.9,2.5,1.27.28,1.77.7,1.76,2.07,0,2.91.22,5.82.2,9.06-.19,5.03-.25,9.73-.25,14.44,0,1.03.21,2.05.32,3.08-.41,7.02-.57,14.06-1.26,21.05-2.08,21.13-6.4,41.81-13.43,61.87-8.98,25.66-21.66,49.37-37.75,71.28-12.36,16.84-26.45,32.14-41.87,46.54-.27.29-.36.42-.45.56,0,0,.06.02-.07.01-.27.18-.41.36-.56.54-.86.72-1.72,1.45-2.75,2.32-.31.32-.45.5-.6.68-.15.08-.29.17-.61.39-.38.38-.59.62-.79.85-.41.32-.82.64-1.4,1.11-.25.27-.34.4-.42.53,0,0,.05,0-.07,0-.27.17-.41.34-.56.51-.43.33-.86.66-1.47,1.13-.26.26-.35.39-.43.51-.25.17-.5.34-.92.64-.33.32-.49.5-.66.68-.42.32-.84.63-1.43,1.09-.27.26-.36.39-.45.51,0,0,.05.02-.07.01-.28.17-.43.35-.59.53,0,0-.05-.01-.17.04-.34.29-.55.54-.77.78-.15,0-.27.06-.52.29-.24.25-.33.38-.41.51,0,0,.05.01-.07.01-.21.12-.3.24-.4.36,0,0,.05.02-.07.03-.27.18-.42.36-.56.54-.28.19-.55.38-1.01.7-.28.26-.38.38-.48.51-.2.13-.4.25-.76.49-.29.17-.36.28-.37.42-.24.08-.48.15-.79,0-.36-1.08-.65-1.94-.99-2.94-3.56,1.59-7.04,1.83-10.34-.05-2.94-1.67-5.63-1.62-8.68-.17-1.51.72-3.89,1.11-5.19.4-2.61-1.43-4.94-1.51-7.49-.4-3.26,1.42-6.43,1.88-9.41-.92-.65,1-1.17,1.8-1.73,2.65,2.91,2.57,6.04,3.31,9.59,2.21,1.35-.42,2.67-.99,4.04-1.33.69-.17,1.67-.26,2.19.1,3.3,2.28,6.57,1.68,9.81.05,1.84-.92,3.41-.77,5.21.18,3.89,2.05,7.95,2.41,12.2.59.2-.04.26-.1.33-.15.06.1.12.2.04.5-.24.32-.33.43-.43.55-.28.17-.57.35-1.04.67-.31.29-.42.43-.54.58-.47.32-.93.64-1.59,1.11-.31.28-.42.41-.54.55M355.67,214.55c9.03-19.88,15.45-40.57,19.36-62.06,2.17-11.89,3.71-23.86,4.08-35.93.31-10.08.02-20.17.11-30.26.02-1.87-.69-2.52-2.41-3.01-8.06-2.28-16.18-4.39-24.07-7.18-15.22-5.38-29.36-12.95-42.44-22.43-9.69-7.02-18.62-14.93-27.03-23.42-1.4-1.41-2.47-1.59-4.23-.66-3.51,1.87-7.11,3.56-10.76,5.14-19.77,8.57-40.44,13.24-61.95,14.13-12.45.51-24.91.14-37.15-2.26-10.5-2.06-21-4.4-31.21-7.57-9.32-2.9-18.26-7.05-27.32-10.76-1.54-.63-2.48-.68-3.6.71-3.26,4.03-6.62,7.98-10.01,11.9-7.83,9.06-16.38,17.35-26.31,24.13-14.01,9.55-29.51,15.47-46.08,18.69-1.82.35-2.31,1.08-2.18,2.82.49,6.8.78,13.61,1.29,20.41,1.38,18.29,4.2,36.38,8.4,54.23,4.57,19.46,10.6,38.47,18.81,56.72,7.18,15.97,15.4,31.38,25.6,45.66.57.79,1.51,1.53,2.43,1.83,10.97,3.64,22.24,5.32,33.79,4.38,4.15-.34,8.55-.56,12.31-2.1,7.38-3.04,14.79-3.66,22.31-1.77,9.75,2.45,19.4,2.47,29.05-.06,14.1-3.7,27.98-2.84,41.74,1.6,9.3,3,18.68,4,27.92.16,7.9-3.29,15.87-3.5,24.02-1.68,16.06,3.6,32.22,5.19,48.64,3.14,2.38-.3,4.39-.86,5.99-2.99,12.03-16.02,22.33-33.07,30.91-51.53M121.29,277.14c-1.24.24-2.56.29-3.71.77-4.2,1.73-8.43,2.41-12.88,1.11-1.19-.35-2.41-.59-3.74-.91-.29,1.13-.53,2.06-.77,3.02,6.04,2.27,11.9,2.55,17.68.22,2.29-.93,4.33-.91,6.58-.13,4.04,1.39,8.31,2.01,12.38.83,4.17-1.21,8.08-.91,12.14.06,4.6,1.1,9.11.45,13.71-.93-.25-1.11-.47-2.05-.71-3.1-.5.11-.83.17-1.16.25-4.33,1.07-8.57,1.13-13.03.16-3.29-.72-6.86-.19-10.31-.09-2.66.08-5.33.69-7.95.48-2.65-.21-5.24-1.12-8.23-1.75M225.86,293.85c-1.12.14-2.34.05-3.36.46-4.25,1.73-8.33,1-12.43-.5-2.43-.89-4.78-.82-7.2.34-3.35,1.6-6.9,2.15-10.57,1.16-1.42-.38-2.84-.73-4.38-1.13-.33,1.1-.6,2.02-.9,3.03,5.64,2.41,11.17,2.77,16.65.32,2.22-.99,4.14-.93,6.33-.12,3.72,1.37,7.71,2.14,11.49.84,3.95-1.35,7.62-.94,11.46.06,4.32,1.13,8.55.42,12.85-1-.27-1.09-.5-2.02-.78-3.13-1.04.22-1.91.54-2.8.58-2.81.15-5.63.38-8.42.22-2.52-.14-5.02-.74-7.93-1.14M128.15,298.04c2.94-1.59,5.78-1.47,8.95-.26,3.39,1.3,7.16,1.65,10.66.36,3.42-1.25,6.73-1.05,10.01-.08,4.73,1.39,9.22.66,13.74-.66q-.38-3.38-3.4-2.64c-3.36.82-6.62.68-10.06-.11-3.09-.71-6.62-1-9.63-.22-4.37,1.14-8.36.93-12.45-.58-2.43-.9-4.79-.88-7.2.25-3.49,1.64-7.15,2.25-10.97,1.12-1.27-.38-2.57-.65-4.06-1.02-.32,1.12-.59,2.09-.87,3.08,5.07,1.93,9.95,2.69,15.29.75M251.1,314.72c1.93-.35,3.86-.71,6.04-1.1-.32-1.24-.56-2.22-.83-3.25-.58.08-.93.1-1.26.19-3.98,1.07-7.85,1.16-11.96.13-2.93-.73-6.36-.9-9.23-.12-4.45,1.21-8.51.91-12.67-.65-2.29-.86-4.57-.78-6.83.28-3.8,1.77-7.74,2.22-11.82,1.02-1.06-.31-2.15-.56-3.36-.87-.32,1.16-.6,2.14-.86,3.09,7.16,2.37,11.29,2.57,16.43.27,2.36-1.06,4.38-1,6.72-.13,3.72,1.39,7.73,2,11.49.72,3.74-1.27,7.19-.78,10.84-.05,2.25.46,4.62.37,7.3.47M141.74,310.98c-3.68-.22-7.36-.43-11.19-.66-.15.58-.38,1.45-.63,2.4,5.58,2.4,11.12,2.75,16.58.29,2.22-1,4.12-.93,6.31-.13,3.86,1.4,7.93,2.09,11.9.75,3.49-1.18,6.85-1.02,10.22-.05,4.63,1.34,9.08.65,13.74-.76-.29-1.12-.54-2.09-.8-3.13-.68.15-1.1.22-1.51.32-3.83.97-7.55,1.08-11.53.11-3.12-.76-6.68-.69-9.86-.04-2.86.58-5.73,1.32-8.34.3-5.03-1.95-9.77-1.81-14.89.6M230.42,344.01c2.92-.51,1.03-2.18.97-3.56-.62.12-1.1.18-1.57.3-3.83,1-7.56,1.07-11.52.09-3-.74-6.5-.95-9.42-.14-4.39,1.23-8.37.9-12.45-.63-2.45-.92-4.81-.83-7.21.31-3.29,1.56-6.73,2.17-10.34,1.23-1.5-.39-3.01-.74-4.69-1.15-.25,1.09-.48,2.07-.71,3.01,5.67,2.31,11.18,2.58,16.58.21,2.14-.94,4-.94,6.12-.15,3.87,1.43,7.98,2.09,11.91.79,3.22-1.06,6.37-1.21,9.4-.3,4.27,1.27,8.39,1.08,12.93-.02M255.12,280.18c-3.2-.32-6.4-.64-9.84-.98-.17.63-.42,1.55-.69,2.52,5.72,2.37,11.32,2.62,16.85.14,1.99-.89,3.76-.83,5.73-.1,3.94,1.46,8.08,2.17,12.11.86,3.65-1.19,7.08-.93,10.63.03,4.53,1.23,8.93.57,13.4-.91-.33-1.12-.6-2.03-.87-2.95-.52.07-.81.08-1.08.15-3.96,1.07-7.8,1.28-11.92.18-2.96-.79-6.47-.87-9.43-.09-4.37,1.15-8.33.73-12.48-.56-1.74-.54-3.77-.63-5.58-.34-2.2.35-4.3,1.32-6.83,2.07M179.23,282.36c4.73,1.49,9.43,1.24,13.92-.72,2.15-.94,3.98-.89,6.11-.12,3.79,1.37,7.83,2.05,11.7.81,3.87-1.23,7.49-.87,11.26.06,4.37,1.08,8.65.52,12.98-1-.3-1.13-.55-2.05-.81-3.02-.75.18-1.23.29-1.7.41-3.76.92-7.4,1.07-11.3.06-3.05-.79-6.63-.94-9.63-.12-4.32,1.18-8.22.85-12.23-.63-2.44-.9-4.8-.88-7.2.25-3.5,1.63-7.14,2.28-10.96,1.17-1.33-.38-2.67-.7-4.11-1.07-.31,1.14-.56,2.06-.82,3.05.97.32,1.71.56,2.79.87M170.12,324.77c-4.72,1.96-9.41,1.21-14.1-.48-.34,1.2-.59,2.06-.84,2.97,5.72,2.42,11.37,2.72,16.97.12,1.91-.89,3.6-.84,5.51-.12,3.92,1.49,8.07,2.27,12.09.95,3.79-1.24,7.32-.95,11.02.06,4.45,1.21,8.81.47,13.1-.94-.64-3.09-.63-3.06-3.56-2.35-3.29.79-6.48.62-9.85-.08-3.31-.68-7.01-.92-10.25-.15-4.01.95-7.7.86-11.42-.53-2.9-1.08-5.64-1.21-8.66.55M265.39,294.61c-3.04,1.45-5.9,1.03-8.54-1.25-.72,1.11-1.25,1.91-1.8,2.76,2.08,1.85,4.3,2.99,6.89,2.64,2.15-.29,4.22-1.11,6.36-1.55.91-.19,2.15-.4,2.8.05,3.11,2.13,6.23,1.67,9.26.18,2.14-1.05,3.92-.97,6.01.14,3.54,1.9,7.31,2.01,11.14.73,1.23-.41,1.75-.86,1.22-2.27-.51-1.38-1.14-1.47-2.39-1-2.86,1.08-5.84.98-8.46-.5-3.1-1.75-5.88-1.73-9.06-.21-1.44.69-3.79,1.04-5.01.33-2.85-1.66-5.38-1.35-8.42-.06M269.61,310.36c-2.47-1.43-1.93,1.21-2.9,1.89,3.96,3.35,7.9,3.54,12.76.93.89-.48,2.04-.46,3.07-.67l.26.57c.6-.75,1.2-1.51,1.79-2.24-2.08-2.27-3.69-2.48-6.29-.94-2.7,1.6-5.46,2.43-8.69.47Z"/>
  <path class="st16" d="M266.14,328.29c-4.12,1.84-8.18,1.47-12.07-.57-1.8-.95-3.38-1.1-5.21-.18-3.24,1.62-6.51,2.22-9.81-.05-.52-.36-1.5-.27-2.19-.1-1.37.34-2.69.9-4.04,1.33-3.55,1.1-6.68.36-9.59-2.21.56-.85,1.08-1.66,1.73-2.65,2.98,2.8,6.15,2.34,9.41.92,2.55-1.11,4.88-1.02,7.49.4,1.3.71,3.69.31,5.19-.4,3.05-1.45,5.74-1.5,8.68.17,3.3,1.88,6.79,1.63,10.34.05.34,1.01.63,1.86.82,2.85-.1.13-.19.16-.34.17-.28.06-.37.16-.42.29Z"/>
  <path class="st30" d="M382.14,109.68c-.16-.83-.36-1.86-.36-2.88,0-4.7.07-9.4.22-14.24.14,5.55.16,11.24.15,17.13Z"/>
  <path class="st19" d="M255.22,337.73c.17-.29.49-.58.94-.89-.17.28-.48.59-.94.89Z"/>
  <path class="st19" d="M252.29,339.88c.17-.28.48-.56.92-.86-.17.27-.48.56-.92.86Z"/>
  <path class="st19" d="M254.18,338.52c.1-.26.36-.5.75-.76-.11.25-.35.51-.75.76Z"/>
  <path class="st19" d="M272.67,324.06c.08-.23.3-.48.63-.75-.08.23-.29.48-.63.75Z"/>
  <path class="st19" d="M282.08,315.96c.08-.22.28-.46.61-.73-.08.22-.28.47-.61.73Z"/>
  <path class="st19" d="M256.42,336.83c.03-.17.2-.35.5-.55-.04.16-.2.36-.5.55Z"/>
  <path class="st19" d="M276.15,321.08c.03-.16.19-.35.48-.56-.03.16-.19.35-.48.56Z"/>
  <path class="st19" d="M273.59,323.23c.03-.16.18-.34.46-.54-.03.16-.18.34-.46.54Z"/>
  <path class="st19" d="M266.3,329.21c0-.12.1-.23.3-.38,0,.11-.1.24-.3.38Z"/>
  <path class="st19" d="M259.85,334.29c.03-.17.2-.35.49-.55-.03.17-.19.36-.49.55Z"/>
  <path class="st19" d="M270.61,325.78c.02-.16.16-.34.43-.55-.02.16-.16.35-.43.55Z"/>
  <path class="st19" d="M283.48,314.7c.02-.15.17-.33.42-.53-.02.16-.16.33-.42.53Z"/>
  <path class="st19" d="M286.84,311.71c.02-.16.16-.35.42-.55-.02.16-.16.35-.42.55Z"/>
  <path class="st19" d="M245.82,344.55c.04-.16.22-.33.52-.51-.05.16-.22.33-.52.51Z"/>
  <path class="st19" d="M279.62,318.11c.03-.15.17-.32.43-.52-.03.15-.17.32-.43.52Z"/>
  <path class="st19" d="M244.02,345.79c-.07-.13,0-.24.25-.32.06.13-.02.23-.25.32Z"/>
  <path class="st19" d="M244.76,345.31c-.02-.11.09-.23.32-.38.02.1-.09.23-.32.38Z"/>
  <path class="st19" d="M258.78,335.06c-.02-.12.09-.26.35-.42.02.12-.09.26-.35.42Z"/>
  <path class="st19" d="M257.62,335.92c-.02-.11.07-.23.29-.36.02.11-.07.23-.29.36Z"/>
  <path class="st19" d="M245.28,344.91c-.02-.1.07-.22.27-.34.02.11-.07.21-.27.34Z"/>
  <path class="st19" d="M257.15,336.29c-.03-.12.07-.24.28-.37.03.11-.06.24-.28.37Z"/>
  <path class="st19" d="M246.53,344.04c-.02-.1.08-.21.29-.34.02.1-.08.21-.29.34Z"/>
  <path class="st19" d="M243.52,346.18c-.02-.1.08-.22.3-.36.02.1-.08.22-.3.36Z"/>
  <path class="st19" d="M239.72,348.76c-.02-.09.08-.21.28-.33.02.1-.08.2-.28.33Z"/>
  <path class="st19" d="M247.72,343.18c-.02-.11.1-.24.34-.38.02.11-.1.24-.34.38Z"/>
  <path class="st19" d="M248.27,342.78c-.02-.1.07-.21.27-.33.02.1-.07.21-.27.33Z"/>
  <path class="st19" d="M251.73,340.25c-.02-.09.06-.2.25-.31.06.13-.03.23-.25.31Z"/>
  <path class="st19" d="M277.7,319.75c-.02-.1.06-.22.26-.36.03.1-.06.22-.26.36Z"/>
  <path class="st19" d="M287.46,311.15c-.04-.12.05-.25.26-.41.04.11-.05.25-.26.41Z"/>
  <path class="st19" d="M280.24,317.59c-.03-.1.05-.23.26-.38.03.1-.05.23-.26.38Z"/>
  <path class="st19" d="M260.56,333.74c-.03-.12.06-.25.28-.4.03.11-.06.25-.28.4Z"/>
  <path class="st19" d="M274.25,322.69c-.03-.11.07-.23.28-.37.03.11-.07.23-.28.37Z"/>
  <path class="st19" d="M271.71,324.84c-.03-.1.06-.23.26-.38.03.11-.06.23-.26.38Z"/>
  <path class="st19" d="M271.24,325.22c-.03-.11.06-.23.27-.37.03.11-.06.24-.27.37Z"/>
  <path class="st19" d="M269.11,326.98c-.02-.1.08-.23.3-.37.02.11-.08.23-.3.37Z"/>
  <path class="st19" d="M267.95,327.89c-.08-.12-.01-.22.22-.29.06.11-.01.21-.22.29Z"/>
  <path class="st19" d="M266.27,328.3c-.08-.15.02-.24.25-.29.1,0,.09.07.09.11-.07.09-.14.14-.34.18Z"/>
  <path class="st19" d="M264.77,330.42c-.03-.12.09-.26.34-.43.02.12-.09.26-.34.43Z"/>
  <path class="st19" d="M262.64,332.08c-.02-.12.09-.25.34-.41.02.11-.09.25-.34.41Z"/>
  <path class="st4" d="M355.59,214.69c-8.5,18.32-18.81,35.36-30.83,51.39-1.6,2.13-3.61,2.69-5.99,2.99-16.42,2.06-32.58.46-48.64-3.14-8.15-1.82-16.12-1.61-24.02,1.68-9.24,3.84-18.62,2.84-27.92-.16-13.76-4.44-27.64-5.29-41.74-1.6-9.64,2.53-19.3,2.51-29.05.06-7.53-1.89-14.93-1.27-22.31,1.77-3.76,1.55-8.16,1.77-12.31,2.1-11.55.94-22.81-.75-33.79-4.38-.92-.3-1.86-1.04-2.43-1.83-10.2-14.29-18.41-29.69-25.6-45.66-8.21-18.26-14.24-37.26-18.81-56.72-4.2-17.86-7.02-35.94-8.4-54.23-.51-6.8-.8-13.61-1.29-20.41-.12-1.75.37-2.47,2.18-2.82,16.57-3.22,32.07-9.13,46.08-18.69,9.94-6.77,18.48-15.07,26.31-24.13,3.39-3.92,6.75-7.87,10.01-11.9,1.12-1.39,2.07-1.34,3.6-.71,9.06,3.71,18,7.86,27.32,10.76,10.2,3.17,20.71,5.51,31.21,7.57,12.24,2.41,24.7,2.77,37.15,2.26,21.51-.89,42.19-5.56,61.95-14.13,3.65-1.58,7.25-3.28,10.76-5.14,1.75-.93,2.83-.76,4.23.66,8.41,8.49,17.34,16.4,27.03,23.42,13.09,9.48,27.22,17.06,42.44,22.43,7.89,2.78,16.01,4.9,24.07,7.18,1.72.49,2.43,1.14,2.41,3.01-.09,10.09.2,20.18-.11,30.26-.37,12.07-1.92,24.04-4.08,35.93-3.92,21.48-10.33,42.17-19.44,62.2M141.97,143.03c.12.08.23.16.44.4,0,0,.12.13.08.54.02,7.51.02,15.03.06,22.54,0,.76.18,1.51.22,2.56-.12.47-.24.95-.55,1.5-.12.11-.15.24-.21.52,0,0-.1.15-.31.22-.08.12-.16.24-.39.45,0,0-.13.11-.35.09-.1.1-.2.2-.62.35-.41.1-.83.2-1.51.17-1.39.13-1.49.27-.81,1.24,0,0,.08-.01.36.19,1.07-.03,2.14-.05,3.48-.05.18-.01.36-.03.86.1.34-.04.67-.09,1.4-.1,1.56-.01,3.12-.03,4.92.09.25-.07.5-.13.94-.24,0,0,.16-.1.41-.11.17-1.08-.1-1.24-1.9-1-2.8-.84-3.45-1.68-3.48-4.98-.05-4.76-.02-9.52-.02-14.28,0-1.96,0-3.91,0-5.87.16-.06.33-.13.49-.19,8.03,9.19,16.06,18.38,24.09,27.57.23-.14.47-.28.7-.41.04-.75.12-1.51.12-2.26.01-6.53,0-13.07.01-19.6,0-2.41-.04-4.83.07-7.24.13-2.92.66-3.45,3.5-4.21.38-.1.72-.39,1.07-.6-.05-.12-.09-.25-.14-.37h-11.75c-.02.19-.05.39-.07.58.55.13,1.1.29,1.66.39,1.71.31,3.07,1.21,3.11,2.99.12,5.21.04,10.41.04,16.02-.91-.99-1.64-1.72-2.3-2.5-4.7-5.51-9.38-11.03-14.1-16.52-.43-.5-1.09-1.13-1.65-1.14-3.9-.07-7.8,0-11.7.05-.13,0-.25.27-.56.61,1.1.39,2.06.73,3.11,1.26.13.06.26.12.45.11,0,0-.05.07.01.27.12.07.24.13.42.15,0,0-.05.05,0,.27.12.07.24.15.42.16,0,0-.06.07,0,.28M201.64,67.27c-2.13-1.47-2.05.71-2.33,1.61-1.91,6.02-3.72,12.07-5.5,18.14-.45,1.52-1.15,2.15-2.86,2.08-6.32-.25-12.65-.34-18.97-.41-.81,0-1.63.48-2.45.75.52.69.9,1.57,1.57,2.05,5.08,3.64,10.17,7.26,15.36,10.73,1.55,1.04,1.83,1.95,1.21,3.67-2.17,5.93-4.2,11.91-6.2,17.89-.24.71.02,1.58.05,2.37.76-.25,1.64-.32,2.25-.77,5.04-3.7,10.06-7.41,15-11.24,1.48-1.15,2.5-1.27,4.06-.04,4.9,3.87,9.93,7.58,14.97,11.27.64.47,1.62.46,2.44.68-.05-.8.07-1.66-.18-2.4-2.02-5.98-4.07-11.96-6.2-17.91-.54-1.5-.31-2.5,1.04-3.42,5.22-3.56,10.41-7.16,15.56-10.81.68-.48,1.09-1.35,1.63-2.03-.81-.28-1.62-.81-2.43-.8-6.25.06-12.51.13-18.76.41-2.02.09-2.72-.65-3.25-2.43-1.89-6.39-3.93-12.74-6.02-19.38M164.46,228.07c.72,2.14,1.4,4.29,2.19,6.41.23.62.79,1.12,1.19,1.68.3-.61.85-1.22.85-1.84.06-6.32.04-12.65.04-18.98,0-2.06.06-4.12-.03-6.18-.02-.51-.5-1-.76-1.5-.44.44-.89.86-1.3,1.32-.12.14-.11.4-.15.61-1.55,7.17-5.74,10.49-12.97,10.13-.53-.03-1.44-.92-1.45-1.43-.1-6.68-.05-13.36-.08-20.04,0-1.1.41-1.53,1.51-1.5,4.05.13,8.11,0,12.14.37,7.1.66,11.66,4.04,12.6,11.27.19,1.48.95,1.49,2.01,1.03v-16.19c-.92,0-1.68,0-2.45,0-15.49,0-30.99-.03-46.48.03-1,0-2.56-.87-2.87.99-.02.13,1.81.75,2.8.83,3.78.32,5.58,1.71,5.59,5.03.07,14.36.05,28.71,0,43.07-.01,2.85-1.34,4.28-4.15,4.82-1.11.21-2.27.13-3.39.31-.39.06-.72.48-1.08.73.36.34.67.87,1.09.99.59.17,1.27.05,1.91.05,8.81,0,17.63.02,26.44-.05.98,0,1.95-.53,2.92-.81-.95-.33-1.88-.87-2.85-.95-4.05-.34-5.6-1.83-5.64-5.9-.07-5.83-.07-11.66-.08-17.48,0-.6.12-1.21.2-1.95,4.83.06,9.1.86,12.26,5.14M228.71,246.63c-5.33-1.36-8.79-4.86-10.73-9.81-3.29-8.39-3.79-17.03-1.43-25.72,2.14-7.89,7.16-13.07,15.35-14.48,7.89-1.36,14.69.96,19.59,7.51,1.5,2,2.25,4.55,3.43,6.81.25.48.86.77,1.31,1.15.32-.38.93-.76.93-1.15.06-5.83.05-11.66,0-17.48,0-.38-.44-1.06-.69-1.07-.45-.02-1.13.24-1.35.61-2.25,3.64-2.86,3.79-7.01,2.55-3.73-1.12-7.49-2.27-11.32-2.91-13.9-2.32-28.53,5.11-35.02,17.55-6.92,13.27-2.01,29.63,11.06,36.84,6.74,3.72,14.02,4.78,21.61,4.53,7.78-.26,14.53-2.99,20.3-8.18,1.69-1.52,2-3.34.87-5.85-7.18,8-15.84,11.68-26.9,9.11M285.69,156.58c1.79-3.89,3.57-7.77,5.36-11.66.23.04.46.08.69.12,0,1.94.01,3.88,0,5.83-.05,6.18-.1,12.36-.16,18.54-.02,1.88-.96,2.87-2.84,3.05-.69.07-1.36.32-2.51.6,2.73,1.13,18.3.87,19.35-.17-.38-.11-.7-.24-1.02-.29-3.47-.56-3.9-1.01-3.91-4.53-.03-7.67-.04-15.35.02-23.02.02-3.21.52-3.67,3.59-4.14.44-.07.87-.26,1.81-.56-.87-.3-1.22-.54-1.58-.54-4.12-.03-8.25-.1-12.36.06-.71.03-1.68.94-2.02,1.68-2.68,5.88-5.23,11.82-7.84,17.73-.29.66-.67,1.29-1.21,2.33-.72-1.52-1.24-2.59-1.74-3.67-2.55-5.55-5.05-11.12-7.67-16.64-.32-.66-1.26-1.43-1.93-1.45-4.12-.13-8.24-.06-12.36-.02-.39,0-.77.24-1.77.57,1.04.28,1.42.43,1.81.48,3.16.4,3.71.88,3.73,3.96.04,7.89,0,15.78.01,23.66,0,2.19-1.04,3.44-3.17,3.86-.63.12-1.23.37-1.84.55.04.19.07.38.11.58h12.3c-.26-.62-.58-.84-.94-.94-3.76-1.02-4.21-1.55-4.22-5.42-.02-6.82-.01-13.64,0-20.47,0-.65.08-1.3.13-1.95.14-.02.28-.03.42-.05,4.47,9.72,8.94,19.44,13.41,29.16.26-.03.52-.06.78-.08,2.49-5.62,4.98-11.24,7.61-17.15M194.28,140.97c.68-.13,1.35-.26,2.03-.39-.03-.17-.06-.34-.08-.52h-18.72c-.02.21-.03.41-.05.62.71.1,1.42.2,2.13.3,1.7.24,2.73,1.12,2.74,2.93.03,8.46.08,16.92.07,25.37,0,1.9-.99,3.03-2.98,3.19-.68.05-1.34.3-2.58.59,2.97,1.08,18.4.85,19.66-.23-.98-.17-1.88-.12-2.55-.49-.91-.5-2.32-1.28-2.36-2.01-.22-4.22-.11-8.45-.11-12.87,3.84,0,7.46-.05,11.07.06.45.01,1.23.89,1.25,1.39.1,3.34.1,6.68,0,10.02-.08,2.59-.73,3.19-3.27,3.61-.58.1-1.15.29-1.72.44,3.06,1.25,17.96.89,18.91-.18-.88-.17-1.7-.33-2.52-.47-1.58-.27-2.4-1.25-2.4-2.79-.02-8.53-.02-17.06.02-25.59,0-1.86,1.09-2.83,2.93-3.02.61-.06,1.22-.22,1.82-.33-.03-.19-.05-.39-.08-.58h-18.57c-.03.21-.06.43-.09.64.78.11,1.56.2,2.34.32,1.4.23,2.49.92,2.52,2.43.07,3.81.02,7.63.02,11.51h-12.31c0-3.74.02-7.29,0-10.84-.01-1.76.77-2.82,2.89-3.14M251.26,172.07c.47-3.02.95-6.04,1.42-9.06-.38-.26-.76-.51-1.14-.77-.13.48-.16,1.01-.39,1.44-3.45,6.64-7.75,8.84-15.05,7.83-1.42-.2-2.32-.95-2.36-2.3-.1-3.81-.03-7.63-.03-11.49,5.82-.63,6.56,3.82,7.72,7.83l.59-.34v-17.61c-1.18,1.75-1.75,3.67-2.67,5.4-1.14,2.15-3.26,2.39-5.57,2.41v-13.76c3.27.29,6.4.3,9.41.89,3.82.75,4.79,4.33,5.91,7.61.24-.1.48-.2.71-.31v-9.82h-30.04c-.02.2-.05.4-.07.61.71.11,1.42.23,2.13.34,1.64.26,2.85,1,2.85,2.85.01,8.53,0,17.06,0,25.58,0,1.78-.99,2.73-2.68,3.03-.77.14-1.54.3-2.3.44.3.58.59.83.87.83,9.81.03,19.61.05,29.42-.02.41,0,.81-.83,1.26-1.63M332.49,151.22c-1.93-4.02-3.85-8.04-5.99-12.49-.77,1.44-1.37,2.46-1.88,3.51-3.94,8.12-7.84,16.26-11.8,24.37-1.22,2.49-2.41,5.05-5.42,5.95-.18.05-.26.44-.52.9h12.05c.03-.21.06-.42.09-.63-.62-.17-1.24-.32-1.85-.53-.73-.24-1.85-.35-2.07-.84-.41-.93-.71-2.31-.29-3.11.79-1.49.4-4.1,2.83-4.24,3.47-.21,6.97-.09,10.45,0,.5.01,1.22.48,1.45.93.81,1.58,1.49,3.22,2.15,4.87.54,1.35.08,2.19-1.41,2.43-.83.13-1.65.35-2.47.53.03.2.07.39.1.59h17.35c.11-.2.22-.4.32-.6-3.69-.86-4.68-3.95-6.02-6.71-2.35-4.86-4.63-9.76-7.08-14.93M105.96,141.27c2.21.84,2.1,2.48,1.31,4.19-2.58,5.61-5.22,11.19-7.83,16.79-.12.26-.15.57-.22.85-.84-1-1.17-1.61-1.45-2.25-2.47-5.43-4.95-10.85-7.39-16.29-1.16-2.59-.75-3.23,2.03-3.61.48-.06.95-.27,1.42-.41-.03-.16-.06-.33-.09-.49h-16.96c-.1.18-.2.35-.3.53,3.6.63,4.31,3.65,5.51,6.19,4.03,8.54,7.97,17.12,11.95,25.68.31.67.75,1.28,1.29,2.21,1-1.7,1.91-3.03,2.61-4.47,3.8-7.7,7.56-15.43,11.31-23.16,1.32-2.71,2.75-5.29,5.78-6.46.05-.02,0-.26,0-.5h-11.63c-.02.18-.03.36-.05.54.79.18,1.58.36,2.7.64M71,171.66c-.29-.84-.84-1.68-.85-2.53-.06-8.31,0-16.62-.04-24.92,0-2.14,1.07-3.09,3.08-3.27.6-.06,1.19-.25,1.78-.38-.04-.27-.08-.53-.12-.8-6.18.14-12.36-.19-18.55.55.72.47,1.47.57,2.2.7,1.49.28,2.48,1.06,2.49,2.69.01,8.59.03,17.18,0,25.78,0,1.75-.96,2.74-2.72,2.96-.7.09-1.39.28-2.08.43.03.2.05.41.08.61h18.62c.03-.17.06-.34.08-.51-1.23-.36-2.47-.72-3.98-1.31M121.69,152.77c0,5.26.01,10.52-.02,15.78-.02,3-.59,3.6-3.49,4.05-.47.07-.93.26-1.39.39.03.15.06.31.1.46h18.66c-.31-.6-.66-.76-1.03-.81-3.31-.52-3.79-1.03-3.8-4.41-.02-7.75-.02-15.5.01-23.24.01-3.21.44-3.63,3.59-4.08.44-.06.86-.25,1.29-.38-.02-.14-.04-.29-.06-.43h-18.83c.28.41.33.59.43.62.34.1.68.16,1.03.21,2.98.42,3.44.91,3.49,3.97.04,2.49.02,4.98.03,7.89M194.67,243.51c-.73-.55-1.4-1.22-2.21-1.62-2.25-1.13-5.34-.42-6.97,1.49-1.32,1.55-1.47,3.94-.35,5.75,1.46,2.35,5.23,3.24,7.73,1.83,2.87-1.63,3.58-4.16,1.8-7.44M271.87,242.13c-3.78-2.01-7.77-.79-8.78,2.68-.7,2.4.44,4.8,2.83,5.99,2.36,1.17,5.8.35,7.29-1.73,1.6-2.24,1.24-4.58-1.34-6.93Z"/>
  <path class="st22" d="M121.48,277.15c2.81.62,5.4,1.53,8.05,1.74,2.62.2,5.29-.4,7.95-.48,3.44-.11,7.02-.63,10.31.09,4.46.97,8.7.91,13.03-.16.33-.08.66-.14,1.16-.25.24,1.05.46,1.99.71,3.1-4.6,1.37-9.11,2.02-13.71.93-4.06-.97-7.97-1.27-12.14-.06-4.07,1.18-8.34.56-12.38-.83-2.25-.78-4.29-.8-6.58.13-5.78,2.33-11.64,2.05-17.68-.22.25-.96.48-1.89.77-3.02,1.32.32,2.54.56,3.74.91,4.44,1.3,8.68.62,12.88-1.11,1.15-.47,2.47-.52,3.9-.76Z"/>
  <path class="st11" d="M226.06,293.85c2.71.4,5.21,1,7.73,1.14,2.8.16,5.62-.08,8.42-.22.89-.05,1.76-.36,2.8-.58.27,1.1.51,2.04.78,3.13-4.3,1.42-8.53,2.13-12.85,1-3.84-1-7.51-1.41-11.46-.06-3.78,1.29-7.77.53-11.49-.84-2.19-.81-4.12-.88-6.33.12-5.48,2.46-11.01,2.09-16.65-.32.3-1,.58-1.93.9-3.03,1.54.4,2.97.75,4.38,1.13,3.68.99,7.22.44,10.57-1.16,2.42-1.15,4.77-1.23,7.2-.34,4.1,1.5,8.18,2.23,12.43.5,1.01-.41,2.23-.32,3.56-.47Z"/>
  <path class="st24" d="M127.99,298.09c-5.18,1.88-10.06,1.13-15.13-.8.28-1,.56-1.97.87-3.08,1.48.37,2.78.65,4.06,1.02,3.82,1.13,7.47.53,10.97-1.12,2.42-1.14,4.77-1.15,7.2-.25,4.09,1.51,8.08,1.72,12.45.58,3.01-.79,6.54-.49,9.63.22,3.44.79,6.7.93,10.06.11q3.02-.74,3.4,2.64c-4.52,1.32-9.02,2.06-13.74.66-3.28-.97-6.59-1.17-10.01.08-3.5,1.28-7.27.93-10.66-.36-3.17-1.21-6.01-1.33-9.11.31Z"/>
  <path class="st3" d="M250.91,314.74c-2.5-.13-4.86-.04-7.12-.5-3.65-.74-7.1-1.23-10.84.05-3.76,1.28-7.77.67-11.49-.72-2.33-.87-4.35-.94-6.72.13-5.13,2.31-9.27,2.1-16.43-.27.27-.96.54-1.93.86-3.09,1.21.31,2.29.56,3.36.87,4.08,1.2,8.02.75,11.82-1.02,2.26-1.05,4.53-1.13,6.83-.28,4.17,1.56,8.22,1.86,12.67.65,2.88-.78,6.3-.61,9.23.12,4.11,1.03,7.98.94,11.96-.13.33-.09.68-.11,1.26-.19.26,1.04.51,2.01.83,3.25-2.18.4-4.11.75-6.23,1.13Z"/>
  <path class="st18" d="M141.92,310.95c4.94-2.38,9.68-2.52,14.71-.57,2.61,1.02,5.49.28,8.34-.3,3.17-.64,6.73-.72,9.86.04,3.98.97,7.69.87,11.53-.11.41-.1.82-.18,1.51-.32.27,1.03.52,2,.8,3.13-4.66,1.41-9.1,2.09-13.74.76-3.37-.97-6.73-1.13-10.22.05-3.97,1.34-8.03.65-11.9-.75-2.2-.8-4.09-.87-6.31.13-5.46,2.46-11,2.11-16.58-.29.25-.94.48-1.81.63-2.4,3.83.23,7.51.44,11.37.63Z"/>
  <path class="st28" d="M230.25,344.06c-4.37,1.05-8.49,1.25-12.76-.03-3.03-.9-6.17-.76-9.4.3-3.92,1.29-8.04.64-11.91-.79-2.12-.79-3.98-.79-6.12.15-5.41,2.37-10.91,2.09-16.58-.21.22-.94.45-1.93.71-3.01,1.68.41,3.19.76,4.69,1.15,3.61.94,7.05.33,10.34-1.23,2.4-1.14,4.77-1.23,7.21-.31,4.08,1.53,8.06,1.86,12.45.63,2.92-.82,6.42-.61,9.42.14,3.96.98,7.68.9,11.52-.09.46-.12.95-.18,1.57-.3.06,1.38,1.95,3.05-1.14,3.62Z"/>
  <path class="st10" d="M255.31,280.16c2.34-.72,4.43-1.69,6.63-2.05,1.81-.29,3.84-.2,5.58.34,4.16,1.29,8.11,1.71,12.48.56,2.95-.78,6.46-.7,9.43.09,4.12,1.1,7.96.89,11.92-.18.27-.07.55-.08,1.08-.15.27.92.54,1.83.87,2.95-4.47,1.48-8.86,2.14-13.4.91-3.55-.96-6.98-1.22-10.63-.03-4.02,1.31-8.17.6-12.11-.86-1.97-.73-3.74-.79-5.73.1-5.54,2.48-11.13,2.23-16.85-.14.27-.97.52-1.89.69-2.52,3.44.34,6.64.66,10.03.96Z"/>
  <path class="st26" d="M179.06,282.32c-.91-.28-1.64-.52-2.62-.83.27-.99.52-1.91.82-3.05,1.44.37,2.78.69,4.11,1.07,3.82,1.1,7.46.46,10.96-1.17,2.41-1.12,4.77-1.15,7.2-.25,4.01,1.48,7.92,1.81,12.23.63,3-.82,6.58-.67,9.63.12,3.9,1.01,7.54.86,11.3-.06.48-.12.95-.23,1.7-.41.26.98.51,1.89.81,3.02-4.33,1.52-8.61,2.09-12.98,1-3.77-.93-7.4-1.29-11.26-.06-3.88,1.24-7.91.56-11.7-.81-2.13-.77-3.97-.82-6.11.12-4.49,1.96-9.19,2.21-14.09.68Z"/>
  <path class="st1" d="M170.27,324.69c2.87-1.68,5.62-1.55,8.51-.47,3.72,1.39,7.41,1.47,11.42.53,3.25-.77,6.94-.53,10.25.15,3.37.69,6.56.87,9.85.08,2.93-.71,2.93-.73,3.56,2.35-4.29,1.4-8.65,2.14-13.1.94-3.7-1-7.23-1.3-11.02-.06-4.02,1.32-8.17.54-12.09-.95-1.91-.73-3.6-.77-5.51.12-5.6,2.6-11.25,2.3-16.97-.12.26-.9.5-1.77.84-2.97,4.69,1.69,9.38,2.44,14.25.4Z"/>
  <path class="st11" d="M265.55,294.54c2.89-1.24,5.41-1.54,8.26.12,1.22.71,3.57.36,5.01-.33,3.18-1.52,5.96-1.54,9.06.21,2.62,1.48,5.59,1.58,8.46.5,1.25-.47,1.88-.39,2.39,1,.52,1.42,0,1.87-1.22,2.27-3.83,1.27-7.6,1.16-11.14-.73-2.09-1.12-3.87-1.19-6.01-.14-3.03,1.49-6.15,1.95-9.26-.18-.65-.44-1.89-.24-2.8-.05-2.14.44-4.21,1.26-6.36,1.55-2.59.35-4.81-.8-6.89-2.64.56-.85,1.08-1.65,1.8-2.76,2.64,2.28,5.5,2.7,8.7,1.19Z"/>
  <path class="st3" d="M269.75,310.44c3.09,1.88,5.85,1.05,8.55-.55,2.6-1.54,4.21-1.32,6.29.94-.58.73-1.19,1.49-1.79,2.24l-.26-.57c-1.03.21-2.18.2-3.07.67-4.87,2.61-8.8,2.42-12.76-.93.97-.68.42-3.31,3.03-1.8Z"/>
  <path class="st13" d="M201.7,67.41c2.04,6.5,4.08,12.85,5.96,19.24.53,1.78,1.23,2.53,3.25,2.43,6.25-.29,12.5-.35,18.76-.41.81,0,1.62.52,2.43.8-.54.69-.95,1.55-1.63,2.03-5.15,3.65-10.34,7.26-15.56,10.81-1.35.92-1.58,1.92-1.04,3.42,2.12,5.95,4.18,11.92,6.2,17.91.25.74.13,1.6.18,2.4-.82-.21-1.8-.21-2.44-.68-5.04-3.69-10.07-7.4-14.97-11.27-1.56-1.23-2.58-1.1-4.06.04-4.94,3.83-9.96,7.54-15,11.24-.61.45-1.49.52-2.25.77-.03-.8-.28-1.67-.05-2.37,2-5.99,4.04-11.96,6.2-17.89.63-1.72.35-2.64-1.21-3.67-5.19-3.47-10.28-7.1-15.36-10.73-.67-.48-1.06-1.36-1.57-2.05.82-.26,1.64-.75,2.45-.75,6.32.07,12.65.16,18.97.41,1.71.07,2.42-.56,2.86-2.08,1.78-6.06,3.59-12.12,5.5-18.14.29-.9.2-3.08,2.39-1.47Z"/>
  <path class="st17" d="M164.38,227.93c-3.08-4.14-7.35-4.94-12.18-5-.08.75-.2,1.35-.2,1.95.01,5.83.01,11.66.08,17.48.05,4.07,1.59,5.56,5.64,5.9.97.08,1.9.62,2.85.95-.97.28-1.95.81-2.92.81-8.81.07-17.62.05-26.44.05-.64,0-1.32.12-1.91-.05-.42-.12-.73-.65-1.09-.99.36-.25.69-.67,1.08-.73,1.12-.17,2.28-.09,3.39-.31,2.81-.55,4.14-1.97,4.15-4.82.06-14.36.07-28.71,0-43.07-.02-3.32-1.81-4.72-5.59-5.03-.99-.08-2.82-.7-2.8-.83.31-1.86,1.87-.98,2.87-.99,15.49-.06,30.99-.03,46.48-.03.77,0,1.53,0,2.45,0v16.19c-1.07.46-1.82.45-2.01-1.03-.94-7.23-5.5-10.61-12.6-11.27-4.02-.37-8.09-.24-12.14-.37-1.09-.03-1.51.4-1.51,1.5.03,6.68-.02,13.36.08,20.04,0,.5.92,1.4,1.45,1.43,7.23.36,11.43-2.96,12.97-10.13.04-.21.03-.47.15-.61.4-.46.86-.88,1.3-1.32.27.5.74.99.76,1.5.09,2.06.03,4.12.03,6.18,0,6.33.02,12.65-.04,18.98,0,.62-.55,1.23-.85,1.84-.41-.56-.96-1.06-1.19-1.68-.79-2.11-1.47-4.27-2.26-6.55Z"/>
  <path class="st27" d="M228.88,246.68c10.89,2.51,19.55-1.16,26.73-9.16,1.13,2.52.83,4.33-.87,5.85-5.77,5.19-12.51,7.93-20.3,8.18-7.59.25-14.87-.81-21.61-4.53-13.07-7.2-17.98-23.56-11.06-36.84,6.49-12.44,21.12-19.87,35.02-17.55,3.83.64,7.59,1.78,11.32,2.91,4.15,1.25,4.76,1.1,7.01-2.55.22-.36.9-.62,1.35-.61.25,0,.69.69.69,1.07.05,5.83.05,11.66,0,17.48,0,.39-.61.77-.93,1.15-.45-.38-1.06-.67-1.31-1.15-1.18-2.26-1.93-4.81-3.43-6.81-4.9-6.54-11.7-8.86-19.59-7.51-8.18,1.41-13.21,6.59-15.35,14.48-2.35,8.69-1.86,17.34,1.43,25.72,1.94,4.95,5.41,8.45,10.9,9.86Z"/>
  <path class="st12" d="M285.62,156.73c-2.56,5.77-5.05,11.38-7.54,17-.26.03-.52.06-.78.08-4.47-9.72-8.94-19.44-13.41-29.16-.14.02-.28.03-.42.05-.04.65-.12,1.3-.13,1.95,0,6.82-.01,13.64,0,20.47.01,3.87.46,4.4,4.22,5.42.36.1.68.32.94.94h-12.3c-.04-.19-.07-.38-.11-.58.61-.19,1.22-.43,1.84-.55,2.13-.42,3.18-1.67,3.17-3.86-.01-7.89.03-15.78-.01-23.66-.02-3.08-.56-3.56-3.73-3.96-.39-.05-.77-.2-1.81-.48.99-.33,1.38-.57,1.77-.57,4.12-.04,8.24-.1,12.36.02.67.02,1.62.79,1.93,1.45,2.62,5.51,5.13,11.08,7.67,16.64.5,1.08,1.02,2.15,1.74,3.67.55-1.04.92-1.67,1.21-2.33,2.61-5.91,5.16-11.85,7.84-17.73.34-.74,1.31-1.65,2.02-1.68,4.12-.16,8.24-.08,12.36-.06.36,0,.71.23,1.58.54-.94.29-1.36.49-1.81.56-3.07.47-3.57.93-3.59,4.14-.05,7.67-.04,15.35-.02,23.02.01,3.53.44,3.97,3.91,4.53.33.05.64.18,1.02.29-1.05,1.04-16.62,1.3-19.35.17,1.15-.28,1.82-.53,2.51-.6,1.87-.19,2.82-1.17,2.84-3.05.05-6.18.11-12.36.16-18.54.01-1.94,0-3.88,0-5.83-.23-.04-.46-.08-.69-.12-1.79,3.89-3.57,7.77-5.42,11.81Z"/>
  <path class="st14" d="M194.1,140.99c-1.94.3-2.73,1.35-2.72,3.12.02,3.55,0,7.1,0,10.84h12.31c0-3.88.05-7.7-.02-11.51-.03-1.51-1.12-2.21-2.52-2.43-.78-.13-1.56-.22-2.34-.32.03-.21.06-.43.09-.64h18.57c.03.19.05.39.08.58-.61.11-1.21.27-1.82.33-1.84.18-2.92,1.16-2.93,3.02-.04,8.53-.04,17.06-.02,25.59,0,1.54.82,2.52,2.4,2.79.82.14,1.64.31,2.52.47-.95,1.07-15.86,1.42-18.91.18.57-.15,1.14-.34,1.72-.44,2.54-.42,3.19-1.02,3.27-3.61.1-3.34.1-6.68,0-10.02-.01-.5-.8-1.38-1.25-1.39-3.61-.11-7.23-.06-11.07-.06,0,4.42-.11,8.65.11,12.87.04.72,1.44,1.51,2.36,2.01.67.37,1.57.32,2.55.49-1.26,1.07-16.69,1.3-19.66.23,1.24-.29,1.9-.53,2.58-.59,1.99-.16,2.98-1.29,2.98-3.19,0-8.46-.04-16.92-.07-25.37,0-1.82-1.04-2.7-2.74-2.93-.71-.1-1.42-.2-2.13-.3.02-.21.03-.41.05-.62h18.72c.03.17.06.34.08.52-.68.13-1.35.26-2.2.41Z"/>
  <path class="st8" d="M251.23,172.25c-.43.62-.83,1.45-1.24,1.45-9.81.06-19.61.04-29.42.02-.29,0-.58-.25-.87-.83.77-.15,1.53-.31,2.3-.44,1.7-.3,2.68-1.24,2.68-3.03.01-8.53.02-17.06,0-25.58,0-1.85-1.21-2.59-2.85-2.85-.71-.11-1.42-.23-2.13-.34.02-.2.05-.4.07-.61h30.04v9.82c-.24.1-.48.2-.71.31-1.11-3.28-2.08-6.86-5.91-7.61-3.02-.59-6.15-.61-9.41-.89v13.76c2.31-.02,4.43-.26,5.57-2.41.92-1.73,1.49-3.65,2.67-5.4v17.61l-.59.34c-1.15-4.02-1.9-8.46-7.72-7.83,0,3.86-.06,7.68.03,11.49.03,1.35.93,2.1,2.36,2.3,7.3,1.01,11.59-1.19,15.05-7.83.22-.43.26-.96.39-1.44.38.26.76.51,1.14.77-.47,3.02-.95,6.04-1.45,9.24Z"/>
  <path class="st20" d="M140.58,141.59c-.96-.34-1.91-.68-3.01-1.06.3-.34.43-.61.56-.61,3.9-.05,7.8-.12,11.7-.05.56.01,1.22.64,1.65,1.14,4.72,5.49,9.4,11.02,14.1,16.52.67.78,1.39,1.51,2.3,2.5,0-5.61.08-10.82-.04-16.02-.04-1.78-1.4-2.68-3.11-2.99-.56-.1-1.11-.26-1.66-.39.02-.19.05-.39.07-.58h11.75c.05.12.09.25.14.37-.36.2-.69.5-1.07.6-2.85.76-3.37,1.3-3.5,4.21-.11,2.41-.07,4.83-.07,7.24,0,6.53,0,13.07-.01,19.6,0,.75-.08,1.51-.12,2.26-.23.14-.47.28-.7.41-8.03-9.19-16.06-18.38-24.09-27.57-.16.06-.33.13-.49.19,0,1.96,0,3.91,0,5.87,0,4.76-.03,9.52.02,14.28.04,3.3.69,4.14,3.75,5.09.64.38,1.01.64,1.39.9,0,0-.16.1-.38.06-.47.02-.72.09-.97.15-1.56.01-3.12.03-4.97-.05-.67-.04-1.05,0-1.43.05-.18.01-.36.03-.82-.06-1.34-.08-2.41-.07-3.48-.05,0,0-.08.01-.02-.11.38-.41.7-.7,1.02-.99.41-.1.83-.2,1.51-.32.37-.12.47-.21.57-.31,0,0,.13-.11.33-.16.27-.19.34-.33.41-.46,0,0,.1-.15.24-.27.25-.22.29-.35.26-.49.12-.47.24-.95.51-1.69.21-8.11.28-15.95.29-23.79,0-.48-.45-.96-.69-1.44,0,0-.12-.13-.17-.33-.18-.27-.31-.34-.44-.42,0,0,.06-.07.01-.15-.17-.15-.3-.22-.43-.29,0,0,.05-.05,0-.14-.18-.15-.31-.21-.44-.27,0,0,.05-.07,0-.15-.2-.13-.34-.18-.48-.23Z"/>
  <path class="st0" d="M332.56,151.36c2.38,5.03,4.66,9.92,7.01,14.79,1.34,2.76,2.33,5.85,6.02,6.71-.11.2-.22.4-.32.6h-17.35c-.03-.2-.07-.39-.1-.59.82-.18,1.64-.39,2.47-.53,1.49-.24,1.95-1.08,1.41-2.43-.66-1.65-1.34-3.3-2.15-4.87-.23-.45-.95-.92-1.45-.93-3.48-.08-6.98-.2-10.45,0-2.43.15-2.05,2.75-2.83,4.24-.42.79-.11,2.18.29,3.11.21.49,1.34.6,2.07.84.61.2,1.23.35,1.85.53-.03.21-.06.42-.09.63h-12.05c.25-.46.33-.84.52-.9,3.01-.9,4.2-3.46,5.42-5.95,3.96-8.11,7.86-16.25,11.8-24.37.51-1.06,1.1-2.07,1.88-3.51,2.14,4.45,4.06,8.47,6.06,12.63M322.26,162.08h6.02c-1.85-3.94-3.46-7.39-5.32-11.36-1.93,4.08-3.57,7.54-5.37,11.35,1.73,0,2.99,0,4.67,0Z"/>
  <path class="st29" d="M105.8,141.22c-.95-.23-1.74-.41-2.53-.59.02-.18.03-.36.05-.54h11.63c0,.24.04.48,0,.5-3.04,1.17-4.47,3.74-5.78,6.46-3.75,7.73-7.51,15.45-11.31,23.16-.71,1.43-1.61,2.77-2.61,4.47-.54-.92-.98-1.54-1.29-2.21-3.99-8.56-7.93-17.14-11.95-25.68-1.2-2.54-1.91-5.56-5.51-6.19.1-.18.2-.35.3-.53h16.96c.03.16.06.33.09.49-.47.14-.94.34-1.42.41-2.78.37-3.19,1.01-2.03,3.61,2.43,5.44,4.92,10.87,7.39,16.29.29.63.61,1.25,1.45,2.25.07-.29.1-.59.22-.85,2.61-5.6,5.25-11.18,7.83-16.79.79-1.71.9-3.35-1.47-4.25Z"/>
  <path class="st25" d="M71.14,171.78c1.37.47,2.6.84,3.84,1.2-.03.17-.06.34-.08.51h-18.62c-.03-.2-.05-.41-.08-.61.69-.15,1.38-.34,2.08-.43,1.77-.22,2.72-1.21,2.72-2.96.02-8.59,0-17.18,0-25.78,0-1.64-.99-2.42-2.49-2.69-.73-.14-1.47-.23-2.2-.7,6.19-.75,12.37-.42,18.55-.55.04.27.08.53.12.8-.59.13-1.18.32-1.78.38-2.01.19-3.09,1.13-3.08,3.27.03,8.31-.02,16.62.04,24.92,0,.84.55,1.69.98,2.64Z"/>
  <path class="st7" d="M121.69,152.56c0-2.7,0-5.19-.03-7.68-.05-3.06-.51-3.55-3.49-3.97-.35-.05-.7-.11-1.03-.21-.1-.03-.15-.21-.43-.62h18.83c.02.14.04.29.06.43-.43.13-.85.32-1.29.38-3.15.45-3.57.87-3.59,4.08-.04,7.75-.03,15.5-.01,23.24,0,3.38.49,3.89,3.8,4.41.37.06.72.21,1.03.81h-18.66c-.03-.15-.06-.31-.1-.46.46-.13.92-.32,1.39-.39,2.9-.45,3.47-1.05,3.49-4.05.04-5.26.02-10.52.02-15.99Z"/>
  <path class="st2" d="M194.77,243.63c1.68,3.15.97,5.69-1.9,7.32-2.5,1.42-6.27.52-7.73-1.83-1.12-1.81-.97-4.2.35-5.75,1.63-1.91,4.72-2.61,6.97-1.49.8.4,1.47,1.07,2.31,1.74Z"/>
  <path class="st21" d="M272.01,242.2c2.43,2.28,2.79,4.62,1.2,6.86-1.48,2.08-4.93,2.9-7.29,1.73-2.4-1.19-3.53-3.59-2.83-5.99,1.01-3.48,5-4.69,8.92-2.61Z"/>
  <path class="st9" d="M142.5,143.76c.26.28.71.76.71,1.24-.01,7.84-.08,15.68-.27,23.65-.22-.63-.4-1.39-.4-2.14-.04-7.51-.05-15.03-.04-22.74Z"/>
  <path class="st9" d="M138.96,172.42c-.18.35-.5.64-.92,1.04-.71-.83-.61-.97.92-1.04Z"/>
  <path class="st9" d="M150.25,173.48c-.5-.25-.87-.51-1.37-.85,1.39-.4,1.66-.24,1.37.85Z"/>
  <path class="st9" d="M138.23,173.69c.93-.12,1.99-.14,3.2-.07-.92.11-1.99.14-3.2.07Z"/>
  <path class="st9" d="M142.54,173.77c.22-.12.6-.17,1.08-.14-.24.12-.58.16-1.08.14Z"/>
  <path class="st9" d="M148.9,173.76c.13-.13.38-.19.75-.2-.13.13-.38.19-.75.2Z"/>
  <path class="st9" d="M140.63,141.68c.09-.05.23,0,.4.16-.1.05-.23,0-.4-.16Z"/>
  <path class="st9" d="M141.1,142.07c.1-.04.23.02.38.19-.1.04-.22-.02-.38-.19Z"/>
  <path class="st9" d="M141.53,142.48c.1-.04.23.03.37.22-.1.04-.22-.04-.37-.22Z"/>
  <path class="st9" d="M141.94,142.92c.1-.03.23.04.37.23-.11.04-.23-.04-.37-.23Z"/>
  <path class="st9" d="M142.32,170.52c.12.1.09.23-.1.38-.14-.1-.11-.23.1-.38Z"/>
  <path class="st9" d="M141.8,171.27c.04.1-.04.23-.23.38-.04-.11.04-.23.23-.38Z"/>
  <path class="st9" d="M141.06,171.85c0,.11-.09.2-.3.29,0-.1.09-.2.3-.29Z"/>
  <path class="st6" d="M322.05,162.08c-1.47,0-2.73,0-4.46,0,1.8-3.81,3.44-7.27,5.37-11.35,1.86,3.97,3.47,7.42,5.32,11.36-2.3,0-4.16,0-6.23,0Z"/>
</svg>