<?xml version="1.0" encoding="UTF-8"?>
<!DOCTYPE svg PUBLIC "-//W3C//DTD SVG 1.1//EN" "http://www.w3.org/Graphics/SVG/1.1/DTD/svg11.dtd">
<svg xmlns="http://www.w3.org/2000/svg" version="1.1" width="301px" height="331px" style="shape-rendering:geometricPrecision; text-rendering:geometricPrecision; image-rendering:optimizeQuality; fill-rule:evenodd; clip-rule:evenodd" xmlns:xlink="http://www.w3.org/1999/xlink">
<g><path style="opacity:0.997" fill="#fab76c" d="M 23.5,-0.5 C 105.167,-0.5 186.833,-0.5 268.5,-0.5C 270.599,0.611848 272.933,1.27852 275.5,1.5C 275.842,2.33825 276.508,2.67158 277.5,2.5C 277.842,3.33825 278.508,3.67158 279.5,3.5C 289.087,7.30358 295.253,14.6369 298,25.5C 298.667,58.8333 298.667,92.1667 298,125.5C 297.202,139.293 294.702,152.626 290.5,165.5C 290.167,165.5 289.833,165.5 289.5,165.5C 289.167,165.5 288.833,165.5 288.5,165.5C 286.81,165.242 284.81,165.242 282.5,165.5C 284.096,157.203 285.596,148.87 287,140.5C 287.499,134.509 287.666,128.509 287.5,122.5C 287.5,121.167 287.5,119.833 287.5,118.5C 288.664,88.6695 288.831,58.6695 288,28.5C 287.722,27.5842 287.222,26.9175 286.5,26.5C 284.902,22.9929 282.569,19.9929 279.5,17.5C 277.869,15.3567 275.869,13.69 273.5,12.5C 272.71,11.2058 271.71,10.0391 270.5,9C 191.167,8.33333 111.833,8.33333 32.5,9C 31.5842,9.27842 30.9175,9.77842 30.5,10.5C 29.209,10.2627 28.209,10.596 27.5,11.5C 22.3346,13.3375 18.0013,16.3375 14.5,20.5C 13.0688,21.9025 11.9022,23.5692 11,25.5C 9.69606,54.824 9.36273,84.1574 10,113.5C 10.1512,120.068 10.9846,126.401 12.5,132.5C 12.3284,133.492 12.6618,134.158 13.5,134.5C 13.5,137.5 13.5,140.5 13.5,143.5C 11.125,138.911 10.125,133.911 10.5,128.5C 9.02218,128.762 7.68884,128.429 6.5,127.5C 7.44145,127.511 8.10812,127.011 8.5,126C 7.52749,125.651 6.69416,124.818 6,123.5C 5.85508,138.36 7.35508,153.027 10.5,167.5C 10.1667,167.5 9.83333,167.5 9.5,167.5C 8.83333,167.5 8.16667,167.5 7.5,167.5C 4.34229,156.377 2.34229,145.044 1.5,133.5C 1.83333,133.5 2.16667,133.5 2.5,133.5C 2.81,130.287 2.47667,127.287 1.5,124.5C 1.53084,89.6249 1.53084,54.9582 1.5,20.5C 1.41253,17.4017 1.91253,17.0684 3,19.5C 4.96383,16.9822 5.63049,14.3155 5,11.5C 8.2064,9.39515 11.3731,7.06182 14.5,4.5C 15.1667,4.5 15.5,4.16667 15.5,3.5C 18.232,2.134 20.8987,0.800671 23.5,-0.5 Z M 2.5,133.5 C 4.02034,138.948 5.02034,144.614 5.5,150.5C 3.54765,145.127 2.54765,139.46 2.5,133.5 Z"/></g>
<g><path style="opacity:0.008" fill="#ff9e5f" d="M 275.5,1.5 C 277.666,0.371094 279.666,0.871094 281.5,3C 280.906,3.46434 280.239,3.63101 279.5,3.5C 279.158,2.66175 278.492,2.32842 277.5,2.5C 277.158,1.66175 276.492,1.32842 275.5,1.5 Z"/></g>
<g><path style="opacity:0.004" fill="#ff6b59" d="M 15.5,3.5 C 14.8333,3.5 14.5,3.83333 14.5,4.5C 12.0248,4.2533 12.0248,3.58664 14.5,2.5C 15.1067,2.62358 15.44,2.95691 15.5,3.5 Z"/></g>
<g><path style="opacity:1" fill="#d9af89" d="M 273.5,12.5 C 270.888,11.6295 268.221,10.9628 265.5,10.5C 187.313,9.17694 108.98,9.17694 30.5,10.5C 30.9175,9.77842 31.5842,9.27842 32.5,9C 111.833,8.33333 191.167,8.33333 270.5,9C 271.71,10.0391 272.71,11.2058 273.5,12.5 Z"/></g>
<g><path style="opacity:1" fill="#415255" d="M 265.5,10.5 C 186.157,10.196 106.823,10.5293 27.5,11.5C 28.209,10.596 29.209,10.2627 30.5,10.5C 108.98,9.17694 187.313,9.17694 265.5,10.5 Z"/></g>
<g><path style="opacity:1" fill="#113859" d="M 265.5,10.5 C 268.221,10.9628 270.888,11.6295 273.5,12.5C 275.869,13.69 277.869,15.3567 279.5,17.5C 275.196,14.8519 270.529,13.0186 265.5,12C 192.833,11.3333 120.167,11.3333 47.5,12C 49.8333,12.3333 52.1667,12.6667 54.5,13C 45.4869,14.5219 36.4869,14.6886 27.5,13.5C 23.8999,14.4549 21.0666,16.4549 19,19.5C 17.8699,24.8356 16.7032,30.169 15.5,35.5C 14.914,35.2907 14.414,34.9574 14,34.5C 13.6422,43.5155 13.1422,52.5155 12.5,61.5C 12.2852,85.8455 12.6185,110.179 13.5,134.5C 12.6618,134.158 12.3284,133.492 12.5,132.5C 10.0768,97.8529 9.91016,63.1862 12,28.5C 12.9406,25.846 13.7739,23.1794 14.5,20.5C 18.0013,16.3375 22.3346,13.3375 27.5,11.5C 106.823,10.5293 186.157,10.196 265.5,10.5 Z"/></g>
<g><path style="opacity:1" fill="#033a6a" d="M 279.5,17.5 C 282.569,19.9929 284.902,22.9929 286.5,26.5C 287.477,57.1352 287.81,87.8019 287.5,118.5C 287.5,119.833 287.5,121.167 287.5,122.5C 286.833,126.5 286.167,130.5 285.5,134.5C 285.666,130.486 285.499,126.486 285,122.5C 284.026,124.878 283.359,124.544 283,121.5C 282.802,123.382 282.302,125.048 281.5,126.5C 281.5,124.5 281.5,122.5 281.5,120.5C 279.585,120.784 277.919,120.451 276.5,119.5C 282.358,118.5 282.692,116.667 277.5,114C 279.464,113.376 281.131,113.876 282.5,115.5C 283.452,111.839 283.285,108.172 282,104.5C 280.693,103.228 279.193,102.228 277.5,101.5C 278.711,100.28 278.711,99.1131 277.5,98C 275.801,97.6068 274.301,98.1068 273,99.5C 264.287,97.459 264.453,96.1257 273.5,95.5C 274.167,95.1667 274.833,94.8333 275.5,94.5C 276.55,93.5712 276.55,92.9046 275.5,92.5C 278.913,86.7056 277.08,84.0389 270,84.5C 265.067,84.2676 262.567,86.601 262.5,91.5C 261.732,90.7375 261.232,89.7375 261,88.5C 260.667,89.5 260.333,90.5 260,91.5C 259.502,89.4556 258.335,88.1223 256.5,87.5C 257.048,85.6064 258.048,83.9397 259.5,82.5C 259,82.1667 258.5,81.8333 258,81.5C 250.248,79.1037 242.415,77.1037 234.5,75.5C 235.192,69.6255 237.859,64.7922 242.5,61C 252.458,62.8736 262.458,64.5403 272.5,66C 274.046,63.7432 275.712,61.5765 277.5,59.5C 264.845,53.5356 251.512,50.7022 237.5,51C 233.726,52.3019 230.559,54.4686 228,57.5C 225.64,62.2404 222.807,66.5737 219.5,70.5C 217.614,69.6394 215.78,68.6394 214,67.5C 212.873,70.3771 212.206,73.3771 212,76.5C 210.989,77.3366 209.822,77.67 208.5,77.5C 213.811,70.0115 211.811,66.8448 202.5,68C 195.1,74.2487 196.1,77.7487 205.5,78.5C 204.048,79.3019 202.382,79.8019 200.5,80C 202.167,80.3333 203.833,80.6667 205.5,81C 202.923,82.2504 200.257,82.5837 197.5,82C 194.007,71.6375 197.674,66.3042 208.5,66C 205.568,65.7282 203.068,64.5615 201,62.5C 196.879,64.6642 192.712,64.9975 188.5,63.5C 191.247,63.8134 193.914,63.48 196.5,62.5C 198.076,60.0207 199.076,57.354 199.5,54.5C 190.121,53.9413 180.788,52.9413 171.5,51.5C 171.667,51.1667 171.833,50.8333 172,50.5C 174.411,49.8606 176.911,49.5272 179.5,49.5C 187.165,50.418 194.832,50.918 202.5,51C 204.329,47.8385 205.996,44.6718 207.5,41.5C 196.176,40.5019 184.843,39.5019 173.5,38.5C 166.007,38.8177 160.841,42.4844 158,49.5C 154.347,57.9532 151.514,66.6199 149.5,75.5C 148.215,76.7853 146.881,78.1186 145.5,79.5C 144.029,78.6195 143.196,77.2861 143,75.5C 139.7,76.6263 136.366,77.6263 133,78.5C 132.333,77.8333 131.667,77.1667 131,76.5C 130.828,72.1289 130.328,67.7956 129.5,63.5C 128.5,64 127.5,64.5 126.5,65C 118.833,65.3333 111.167,65.6667 103.5,66C 102.426,66.7387 101.759,67.7387 101.5,69C 102.607,70.4402 102.607,71.9402 101.5,73.5C 100.222,77.0376 98.2223,80.0376 95.5,82.5C 96.4911,83.6652 97.4911,84.8319 98.5,86C 97.3521,87.726 96.1855,87.5593 95,85.5C 93.0876,86.6919 91.0876,87.6919 89,88.5C 86.7342,87.0437 84.2342,86.2104 81.5,86C 81.6938,83.9033 81.6938,81.7366 81.5,79.5C 81.9569,78.7025 82.6236,78.3691 83.5,78.5C 83.7911,79.6491 84.6244,80.3158 86,80.5C 89.1514,79.9069 92.318,79.4069 95.5,79C 96.9435,74.2833 97.9435,69.45 98.5,64.5C 108.172,63.8092 117.838,62.9759 127.5,62C 128.61,58.9509 129.277,55.7842 129.5,52.5C 120.487,52.5596 111.487,52.8929 102.5,53.5C 102.5,52.5 102.5,51.5 102.5,50.5C 112.419,48.8372 122.419,48.1705 132.5,48.5C 132.959,45.1226 133.626,41.7893 134.5,38.5C 125.142,38.5015 115.809,39.0015 106.5,40C 97.6955,39.4762 91.8622,43.3095 89,51.5C 87.4347,58.8701 85.9347,66.2035 84.5,73.5C 82.955,74.2297 82.1216,75.563 82,77.5C 81.6667,76.8333 81.3333,76.1667 81,75.5C 80.1109,78.6865 79.2776,81.8532 78.5,85C 76.6303,86.5644 74.6303,86.5644 72.5,85C 75.0972,84.2208 75.0972,83.7208 72.5,83.5C 75.6435,81.69 77.6435,79.0233 78.5,75.5C 78.5705,72.4044 77.0705,70.7378 74,70.5C 67.1379,71.9051 64.6379,75.9051 66.5,82.5C 64.2776,82.4413 63.2776,81.2747 63.5,79C 63.7725,76.8491 64.4392,74.8491 65.5,73C 63.0028,71.017 61.8361,71.8503 62,75.5C 61.8138,72.9644 61.3138,70.631 60.5,68.5C 58.9441,65.4482 56.4441,63.7815 53,63.5C 46.4275,64.9347 39.9275,66.6014 33.5,68.5C 33.33,67.1779 33.6634,66.0113 34.5,65C 43.8272,62.4353 53.1605,59.9353 62.5,57.5C 62.6159,54.1401 62.9492,50.8067 63.5,47.5C 51.3571,48.9522 39.6904,52.1188 28.5,57C 21.6263,61.2555 18.9597,67.4222 20.5,75.5C 19.6981,74.0484 19.1981,72.3817 19,70.5C 18.6667,72.5 18.3333,74.5 18,76.5C 17.6667,76.1667 17.3333,75.8333 17,75.5C 16.7508,76.624 16.2508,77.624 15.5,78.5C 15.1368,72.4408 14.1368,66.7742 12.5,61.5C 13.1422,52.5155 13.6422,43.5155 14,34.5C 14.414,34.9574 14.914,35.2907 15.5,35.5C 16.7032,30.169 17.8699,24.8356 19,19.5C 21.0666,16.4549 23.8999,14.4549 27.5,13.5C 36.4869,14.6886 45.4869,14.5219 54.5,13C 52.1667,12.6667 49.8333,12.3333 47.5,12C 120.167,11.3333 192.833,11.3333 265.5,12C 270.529,13.0186 275.196,14.8519 279.5,17.5 Z"/></g>
<g><path style="opacity:0.004" fill="#ffe042" d="M 1.5,20.5 C 1.64945,21.552 1.48278,22.552 1,23.5C 0.259877,22.2506 0.426544,21.2506 1.5,20.5 Z"/></g>
<g><path style="opacity:0.004" fill="#fffebe" d="M -0.5,24.5 C 0.833333,25.1667 0.833333,25.8333 -0.5,26.5C -0.5,25.8333 -0.5,25.1667 -0.5,24.5 Z"/></g>
<g><path style="opacity:0.004" fill="#fefd0c" d="M -0.5,27.5 C 0.833333,57.8333 0.833333,88.1667 -0.5,118.5C -0.5,88.1667 -0.5,57.8333 -0.5,27.5 Z"/></g>
<g><path style="opacity:1" fill="#ebf1f2" d="M 83.5,78.5 C 83.6287,76.7839 83.962,75.1172 84.5,73.5C 85.9347,66.2035 87.4347,58.8701 89,51.5C 91.8622,43.3095 97.6955,39.4762 106.5,40C 115.809,39.0015 125.142,38.5015 134.5,38.5C 133.626,41.7893 132.959,45.1226 132.5,48.5C 122.419,48.1705 112.419,48.8372 102.5,50.5C 102.5,51.5 102.5,52.5 102.5,53.5C 111.487,52.8929 120.487,52.5596 129.5,52.5C 129.277,55.7842 128.61,58.9509 127.5,62C 117.838,62.9759 108.172,63.8092 98.5,64.5C 97.9435,69.45 96.9435,74.2833 95.5,79C 92.318,79.4069 89.1514,79.9069 86,80.5C 84.6244,80.3158 83.7911,79.6491 83.5,78.5 Z"/></g>
<g><path style="opacity:1" fill="#e9f0f0" d="M 256.5,87.5 C 255.341,88.4558 254.174,89.4558 253,90.5C 242.76,87.5848 232.593,84.5848 222.5,81.5C 219.807,78.4193 218.807,74.7527 219.5,70.5C 222.807,66.5737 225.64,62.2404 228,57.5C 230.559,54.4686 233.726,52.3019 237.5,51C 251.512,50.7022 264.845,53.5356 277.5,59.5C 275.712,61.5765 274.046,63.7432 272.5,66C 262.458,64.5403 252.458,62.8736 242.5,61C 237.859,64.7922 235.192,69.6255 234.5,75.5C 242.415,77.1037 250.248,79.1037 258,81.5C 258.5,81.8333 259,82.1667 259.5,82.5C 258.048,83.9397 257.048,85.6064 256.5,87.5 Z"/></g>
<g><path style="opacity:1" fill="#eaf1f2" d="M 188.5,63.5 C 181.13,62.9383 173.797,62.9383 166.5,63.5C 164.161,67.1835 162.828,71.1835 162.5,75.5C 158.167,75.5 153.833,75.5 149.5,75.5C 151.514,66.6199 154.347,57.9532 158,49.5C 160.841,42.4844 166.007,38.8177 173.5,38.5C 184.843,39.5019 196.176,40.5019 207.5,41.5C 205.996,44.6718 204.329,47.8385 202.5,51C 194.832,50.918 187.165,50.418 179.5,49.5C 176.911,49.5272 174.411,49.8606 172,50.5C 171.833,50.8333 171.667,51.1667 171.5,51.5C 180.788,52.9413 190.121,53.9413 199.5,54.5C 199.076,57.354 198.076,60.0207 196.5,62.5C 193.914,63.48 191.247,63.8134 188.5,63.5 Z"/></g>
<g><path style="opacity:1" fill="#e9f0f0" d="M 60.5,68.5 C 60.7359,71.6085 60.4025,74.6085 59.5,77.5C 56.4829,84.5398 51.1496,89.0398 43.5,91C 35.2764,93.0689 27.2764,95.5689 19.5,98.5C 19.5,94.8333 19.5,91.1667 19.5,87.5C 27.4402,84.9094 35.4402,82.4094 43.5,80C 47.2349,78.4338 47.2349,77.2671 43.5,76.5C 38.3337,78.4432 33.0003,79.7765 27.5,80.5C 23.7558,80.7499 21.4224,79.0833 20.5,75.5C 18.9597,67.4222 21.6263,61.2555 28.5,57C 39.6904,52.1188 51.3571,48.9522 63.5,47.5C 62.9492,50.8067 62.6159,54.1401 62.5,57.5C 53.1605,59.9353 43.8272,62.4353 34.5,65C 33.6634,66.0113 33.33,67.1779 33.5,68.5C 39.9275,66.6014 46.4275,64.9347 53,63.5C 56.4441,63.7815 58.9441,65.4482 60.5,68.5 Z"/></g>
<g><path style="opacity:1" fill="#013364" d="M 188.5,63.5 C 192.712,64.9975 196.879,64.6642 201,62.5C 203.068,64.5615 205.568,65.7282 208.5,66C 197.674,66.3042 194.007,71.6375 197.5,82C 200.257,82.5837 202.923,82.2504 205.5,81C 203.833,80.6667 202.167,80.3333 200.5,80C 202.382,79.8019 204.048,79.3019 205.5,78.5C 206.609,78.4431 207.609,78.1098 208.5,77.5C 209.822,77.67 210.989,77.3366 212,76.5C 212.206,73.3771 212.873,70.3771 214,67.5C 215.78,68.6394 217.614,69.6394 219.5,70.5C 218.807,74.7527 219.807,78.4193 222.5,81.5C 221.262,81.81 221.262,82.31 222.5,83C 230.005,85.7941 237.672,88.1274 245.5,90C 242.99,90.3763 240.657,91.2096 238.5,92.5C 243.156,93.2766 247.823,93.9433 252.5,94.5C 253.442,94.3918 254.275,94.0585 255,93.5C 256.567,96.3945 256.733,99.3945 255.5,102.5C 238.41,103.41 221.077,103.41 203.5,102.5C 203.5,100.5 203.5,98.5 203.5,96.5C 193.304,96.2272 183.138,96.5606 173,97.5C 172.167,97.1667 171.333,96.8333 170.5,96.5C 171.374,94.2534 171.708,91.9201 171.5,89.5C 170.5,89.5 169.5,89.5 168.5,89.5C 160.603,87.3384 152.603,87.3384 144.5,89.5C 141.053,88.9254 137.719,88.9254 134.5,89.5C 132.712,88.3775 130.712,88.2109 128.5,89C 128.619,93.2884 128.619,97.7884 128.5,102.5C 123.653,102.311 118.986,101.311 114.5,99.5C 112.971,99.5288 111.804,100.196 111,101.5C 110.667,101.167 110.333,100.833 110,100.5C 102.366,101.694 94.8658,102.694 87.5,103.5C 84.9722,102.831 84.9722,101.998 87.5,101C 91.6875,100.929 95.6875,100.262 99.5,99C 98.5562,96.2809 98.2229,93.4475 98.5,90.5C 90.6021,90.3506 82.7688,91.0172 75,92.5C 70.9473,92.5686 67.114,91.9019 63.5,90.5C 63.5,92.5 63.5,94.5 63.5,96.5C 57.8236,96.6661 52.1569,96.4994 46.5,96C 47.1667,95.3333 47.8333,94.6667 48.5,94C 47.1667,93 47.1667,92 48.5,91C 51.7779,89.1909 55.1112,87.6909 58.5,86.5C 58.3874,83.9512 59.0541,81.6179 60.5,79.5C 60.1373,78.8165 59.8039,78.1499 59.5,77.5C 60.4025,74.6085 60.7359,71.6085 60.5,68.5C 61.3138,70.631 61.8138,72.9644 62,75.5C 61.8361,71.8503 63.0028,71.017 65.5,73C 64.4392,74.8491 63.7725,76.8491 63.5,79C 63.2776,81.2747 64.2776,82.4413 66.5,82.5C 68.3792,83.3414 70.3792,83.6747 72.5,83.5C 75.0972,83.7208 75.0972,84.2208 72.5,85C 74.6303,86.5644 76.6303,86.5644 78.5,85C 79.2776,81.8532 80.1109,78.6865 81,75.5C 81.3333,76.1667 81.6667,76.8333 82,77.5C 82.1216,75.563 82.955,74.2297 84.5,73.5C 83.962,75.1172 83.6287,76.7839 83.5,78.5C 82.6236,78.3691 81.9569,78.7025 81.5,79.5C 81.6938,81.7366 81.6938,83.9033 81.5,86C 84.2342,86.2104 86.7342,87.0437 89,88.5C 91.0876,87.6919 93.0876,86.6919 95,85.5C 96.1855,87.5593 97.3521,87.726 98.5,86C 97.4911,84.8319 96.4911,83.6652 95.5,82.5C 98.2223,80.0376 100.222,77.0376 101.5,73.5C 102.607,71.9402 102.607,70.4402 101.5,69C 101.759,67.7387 102.426,66.7387 103.5,66C 111.167,65.6667 118.833,65.3333 126.5,65C 127.5,64.5 128.5,64 129.5,63.5C 130.328,67.7956 130.828,72.1289 131,76.5C 131.667,77.1667 132.333,77.8333 133,78.5C 136.366,77.6263 139.7,76.6263 143,75.5C 143.196,77.2861 144.029,78.6195 145.5,79.5C 146.881,78.1186 148.215,76.7853 149.5,75.5C 153.833,75.5 158.167,75.5 162.5,75.5C 162.828,71.1835 164.161,67.1835 166.5,63.5C 173.797,62.9383 181.13,62.9383 188.5,63.5 Z"/></g>
<g><path style="opacity:1" fill="#e7eff0" d="M 136.5,63.5 C 143.107,61.749 145.607,64.0823 144,70.5C 141.452,74.3603 137.952,75.8603 133.5,75C 132.106,74.044 131.439,72.7106 131.5,71C 132.313,67.8579 133.98,65.3579 136.5,63.5 Z"/></g>
<g><path style="opacity:1" fill="#e4eced" d="M 208.5,77.5 C 207.609,78.1098 206.609,78.4431 205.5,78.5C 196.1,77.7487 195.1,74.2487 202.5,68C 211.811,66.8448 213.811,70.0115 208.5,77.5 Z"/></g>
<g><path style="opacity:1" fill="#e1ebed" d="M 72.5,83.5 C 70.3792,83.6747 68.3792,83.3414 66.5,82.5C 64.6379,75.9051 67.1379,71.9051 74,70.5C 77.0705,70.7378 78.5705,72.4044 78.5,75.5C 77.6435,79.0233 75.6435,81.69 72.5,83.5 Z"/></g>
<g><path style="opacity:1" fill="#cca37d" d="M 14.5,20.5 C 13.7739,23.1794 12.9406,25.846 12,28.5C 9.91016,63.1862 10.0768,97.8529 12.5,132.5C 10.9846,126.401 10.1512,120.068 10,113.5C 9.36273,84.1574 9.69606,54.824 11,25.5C 11.9022,23.5692 13.0688,21.9025 14.5,20.5 Z"/></g>
<g><path style="opacity:1" fill="#e0eaec" d="M 275.5,92.5 C 272.069,94.3878 268.402,94.8878 264.5,94C 263.619,93.2917 262.953,92.4584 262.5,91.5C 262.567,86.601 265.067,84.2676 270,84.5C 277.08,84.0389 278.913,86.7056 275.5,92.5 Z"/></g>
<g><path style="opacity:1" fill="#052f5e" d="M 12.5,61.5 C 14.1368,66.7742 15.1368,72.4408 15.5,78.5C 16.2508,77.624 16.7508,76.624 17,75.5C 17.3333,75.8333 17.6667,76.1667 18,76.5C 18.3333,74.5 18.6667,72.5 19,70.5C 19.1981,72.3817 19.6981,74.0484 20.5,75.5C 21.4224,79.0833 23.7558,80.7499 27.5,80.5C 33.0003,79.7765 38.3337,78.4432 43.5,76.5C 47.2349,77.2671 47.2349,78.4338 43.5,80C 35.4402,82.4094 27.4402,84.9094 19.5,87.5C 19.5,91.1667 19.5,94.8333 19.5,98.5C 27.2764,95.5689 35.2764,93.0689 43.5,91C 51.1496,89.0398 56.4829,84.5398 59.5,77.5C 59.8039,78.1499 60.1373,78.8165 60.5,79.5C 59.0541,81.6179 58.3874,83.9512 58.5,86.5C 55.1112,87.6909 51.7779,89.1909 48.5,91C 47.1667,92 47.1667,93 48.5,94C 47.8333,94.6667 47.1667,95.3333 46.5,96C 52.1569,96.4994 57.8236,96.6661 63.5,96.5C 63.5,94.5 63.5,92.5 63.5,90.5C 67.114,91.9019 70.9473,92.5686 75,92.5C 82.7688,91.0172 90.6021,90.3506 98.5,90.5C 98.2229,93.4475 98.5562,96.2809 99.5,99C 95.6875,100.262 91.6875,100.929 87.5,101C 84.9722,101.998 84.9722,102.831 87.5,103.5C 94.8658,102.694 102.366,101.694 110,100.5C 110.333,100.833 110.667,101.167 111,101.5C 111.804,100.196 112.971,99.5288 114.5,99.5C 118.986,101.311 123.653,102.311 128.5,102.5C 128.619,97.7884 128.619,93.2884 128.5,89C 130.712,88.2109 132.712,88.3775 134.5,89.5C 133.209,89.2627 132.209,89.596 131.5,90.5C 131.603,93.2186 131.269,95.8853 130.5,98.5C 130.747,99.7133 131.414,100.38 132.5,100.5C 131.602,101.158 130.602,101.824 129.5,102.5C 130.167,102.833 130.833,103.167 131.5,103.5C 138.651,102.902 145.651,102.235 152.5,101.5C 152.833,101.5 153.167,101.5 153.5,101.5C 154.583,101.461 155.583,101.127 156.5,100.5C 157.65,98.2372 158.65,95.9038 159.5,93.5C 160.548,94.548 161.548,95.548 162.5,96.5C 161.058,97.8195 160.392,99.4862 160.5,101.5C 161.822,101.67 162.989,101.337 164,100.5C 165.833,97.5 167.667,94.5 169.5,91.5C 169.376,90.8933 169.043,90.56 168.5,90.5C 168.5,90.1667 168.5,89.8333 168.5,89.5C 169.5,89.5 170.5,89.5 171.5,89.5C 171.708,91.9201 171.374,94.2534 170.5,96.5C 171.333,96.8333 172.167,97.1667 173,97.5C 183.138,96.5606 193.304,96.2272 203.5,96.5C 203.5,98.5 203.5,100.5 203.5,102.5C 221.077,103.41 238.41,103.41 255.5,102.5C 256.733,99.3945 256.567,96.3945 255,93.5C 254.275,94.0585 253.442,94.3918 252.5,94.5C 247.823,93.9433 243.156,93.2766 238.5,92.5C 240.657,91.2096 242.99,90.3763 245.5,90C 237.672,88.1274 230.005,85.7941 222.5,83C 221.262,82.31 221.262,81.81 222.5,81.5C 232.593,84.5848 242.76,87.5848 253,90.5C 254.174,89.4558 255.341,88.4558 256.5,87.5C 258.335,88.1223 259.502,89.4556 260,91.5C 260.333,90.5 260.667,89.5 261,88.5C 261.232,89.7375 261.732,90.7375 262.5,91.5C 262.953,92.4584 263.619,93.2917 264.5,94C 268.402,94.8878 272.069,94.3878 275.5,92.5C 276.55,92.9046 276.55,93.5712 275.5,94.5C 274.833,94.8333 274.167,95.1667 273.5,95.5C 264.453,96.1257 264.287,97.459 273,99.5C 274.301,98.1068 275.801,97.6068 277.5,98C 278.711,99.1131 278.711,100.28 277.5,101.5C 279.193,102.228 280.693,103.228 282,104.5C 283.285,108.172 283.452,111.839 282.5,115.5C 281.131,113.876 279.464,113.376 277.5,114C 282.692,116.667 282.358,118.5 276.5,119.5C 275.5,119.5 274.5,119.5 273.5,119.5C 271.039,118.469 268.373,117.802 265.5,117.5C 256.089,114.956 246.423,112.956 236.5,111.5C 235.167,111.5 233.833,111.5 232.5,111.5C 222.351,108.86 212.018,107.527 201.5,107.5C 178.041,105.308 154.374,104.308 130.5,104.5C 116.655,105.1 102.988,106.1 89.5,107.5C 81.344,107.571 73.344,108.571 65.5,110.5C 64.5,110.5 63.5,110.5 62.5,110.5C 50.5551,112.098 38.8884,114.431 27.5,117.5C 27.1667,117.5 26.8333,117.5 26.5,117.5C 23.7835,117.678 21.1168,118.178 18.5,119C 17.4216,119.674 16.7549,120.674 16.5,122C 17.1521,129.755 18.4854,137.255 20.5,144.5C 20.9916,153.313 22.9916,161.647 26.5,169.5C 28.0363,174.109 29.3696,178.776 30.5,183.5C 31.3024,186.574 32.3024,189.574 33.5,192.5C 31.629,192.141 30.129,191.141 29,189.5C 28.8333,190 28.6667,190.5 28.5,191C 29.9556,194.4 30.9556,197.9 31.5,201.5C 28.4428,195.038 25.6095,188.372 23,181.5C 19.9293,168.683 16.7626,156.016 13.5,143.5C 13.5,140.5 13.5,137.5 13.5,134.5C 12.6185,110.179 12.2852,85.8455 12.5,61.5 Z"/></g>
<g><path style="opacity:1" fill="#313942" d="M 168.5,89.5 C 168.5,89.8333 168.5,90.1667 168.5,90.5C 165.753,90.1866 163.086,90.52 160.5,91.5C 161.665,92.5836 162.998,93.4169 164.5,94C 163.934,94.9947 163.267,95.828 162.5,96.5C 161.548,95.548 160.548,94.548 159.5,93.5C 158.65,95.9038 157.65,98.2372 156.5,100.5C 155.583,101.127 154.583,101.461 153.5,101.5C 156.071,98.3782 157.404,94.7115 157.5,90.5C 149.421,88.9785 145.921,92.3118 147,100.5C 148.699,101.406 150.533,101.739 152.5,101.5C 145.651,102.235 138.651,102.902 131.5,103.5C 130.833,103.167 130.167,102.833 129.5,102.5C 130.602,101.824 131.602,101.158 132.5,100.5C 133.499,97.1709 134.499,93.8376 135.5,90.5C 134.167,90.5 132.833,90.5 131.5,90.5C 132.209,89.596 133.209,89.2627 134.5,89.5C 137.719,88.9254 141.053,88.9254 144.5,89.5C 152.603,87.3384 160.603,87.3384 168.5,89.5 Z"/></g>
<g><path style="opacity:1" fill="#cf9c71" d="M 153.5,101.5 C 153.167,101.5 152.833,101.5 152.5,101.5C 150.533,101.739 148.699,101.406 147,100.5C 145.921,92.3118 149.421,88.9785 157.5,90.5C 157.404,94.7115 156.071,98.3782 153.5,101.5 Z"/></g>
<g><path style="opacity:1" fill="#c8a586" d="M 131.5,90.5 C 132.833,90.5 134.167,90.5 135.5,90.5C 134.499,93.8376 133.499,97.1709 132.5,100.5C 131.414,100.38 130.747,99.7133 130.5,98.5C 131.269,95.8853 131.603,93.2186 131.5,90.5 Z"/></g>
<g><path style="opacity:1" fill="#daa67c" d="M 138.5,90.5 C 141.167,90.5 143.833,90.5 146.5,90.5C 147.234,99.1093 143.568,102.109 135.5,99.5C 137.5,98.8333 139.5,98.1667 141.5,97.5C 139.955,96.5481 138.288,96.2148 136.5,96.5C 136.253,94.1417 136.919,92.1417 138.5,90.5 Z"/></g>
<g><path style="opacity:1" fill="#be9b7b" d="M 168.5,90.5 C 169.043,90.56 169.376,90.8933 169.5,91.5C 167.667,94.5 165.833,97.5 164,100.5C 162.989,101.337 161.822,101.67 160.5,101.5C 160.392,99.4862 161.058,97.8195 162.5,96.5C 163.267,95.828 163.934,94.9947 164.5,94C 162.998,93.4169 161.665,92.5836 160.5,91.5C 163.086,90.52 165.753,90.1866 168.5,90.5 Z"/></g>
<g><path style="opacity:1" fill="#aa8f72" d="M 286.5,26.5 C 287.222,26.9175 287.722,27.5842 288,28.5C 288.831,58.6695 288.664,88.6695 287.5,118.5C 287.81,87.8019 287.477,57.1352 286.5,26.5 Z"/></g>
<g><path style="opacity:1" fill="#012c5d" d="M 128.5,106.5 C 128.5,107.167 128.5,107.833 128.5,108.5C 127.734,130.352 126.734,152.352 125.5,174.5C 123.657,174.755 121.657,174.922 119.5,175C 118.874,175.75 118.374,176.584 118,177.5C 117.535,176.069 116.701,174.903 115.5,174C 111.848,173.501 108.182,173.335 104.5,173.5C 104.789,176.649 104.289,179.649 103,182.5C 102.832,157.663 102.332,132.997 101.5,108.5C 110.312,107.311 119.312,106.645 128.5,106.5 Z"/></g>
<g><path style="opacity:1" fill="#c88d97" d="M 26.5,117.5 C 27.8209,134.804 27.8209,152.137 26.5,169.5C 22.9916,161.647 20.9916,153.313 20.5,144.5C 18.4854,137.255 17.1521,129.755 16.5,122C 16.7549,120.674 17.4216,119.674 18.5,119C 21.1168,118.178 23.7835,117.678 26.5,117.5 Z"/></g>
<g><path style="opacity:0.004" fill="#ffd05b" d="M -0.5,119.5 C 0.833333,120.5 0.833333,121.5 -0.5,122.5C -0.5,121.5 -0.5,120.5 -0.5,119.5 Z"/></g>
<g><path style="opacity:1" fill="#b4201b" d="M 270.5,120.5 C 273.836,120.467 277.003,121.134 280,122.5C 280.465,127.385 279.965,132.052 278.5,136.5C 278.5,131.833 278.5,127.167 278.5,122.5C 276.5,122.5 274.5,122.5 272.5,122.5C 272.334,132.506 272.5,142.506 273,152.5C 274.528,147.274 276.362,142.274 278.5,137.5C 277.058,148.6 274.392,159.266 270.5,169.5C 270.5,153.167 270.5,136.833 270.5,120.5 Z"/></g>
<g><path style="opacity:1" fill="#c99aaa" d="M 270.5,120.5 C 271.209,119.596 272.209,119.263 273.5,119.5C 274.5,119.5 275.5,119.5 276.5,119.5C 277.919,120.451 279.585,120.784 281.5,120.5C 281.5,122.5 281.5,124.5 281.5,126.5C 279.762,142.626 276.429,158.292 271.5,173.5C 271.167,172.167 270.833,170.833 270.5,169.5C 274.392,159.266 277.058,148.6 278.5,137.5C 278.5,137.167 278.5,136.833 278.5,136.5C 279.965,132.052 280.465,127.385 280,122.5C 277.003,121.134 273.836,120.467 270.5,120.5 Z"/></g>
<g><path style="opacity:0.008" fill="#ffd77a" d="M 1.5,124.5 C 1.5,127.5 1.5,130.5 1.5,133.5C 0.166667,130.5 0.166667,127.5 1.5,124.5 Z"/></g>
<g><path style="opacity:1" fill="#022858" d="M 169.5,106.5 C 178.491,107.255 187.491,107.922 196.5,108.5C 196.5,126.167 196.5,143.833 196.5,161.5C 195.669,148.673 195.169,135.673 195,122.5C 194.667,153.167 194.333,183.833 194,214.5C 194.038,208.49 192.705,202.824 190,197.5C 188.184,197.351 186.351,197.351 184.5,197.5C 183.833,196.5 183.167,195.5 182.5,194.5C 183.007,187.51 180.173,181.843 174,177.5C 173.79,179.058 173.29,180.391 172.5,181.5C 168.919,180.74 165.252,180.24 161.5,180C 158.607,176.604 155.274,173.771 151.5,171.5C 152.005,170.081 153.005,169.415 154.5,169.5C 157.518,169.704 160.518,170.037 163.5,170.5C 163.842,171.338 164.508,171.672 165.5,171.5C 165.842,172.338 166.508,172.672 167.5,172.5C 167.56,173.043 167.893,173.376 168.5,173.5C 169.5,151.177 169.833,128.843 169.5,106.5 Z"/></g>
<g><path style="opacity:1" fill="#e8e6e4" d="M 26.5,117.5 C 26.8333,117.5 27.1667,117.5 27.5,117.5C 28.8333,117.5 30.1667,117.5 31.5,117.5C 31.8307,139.673 31.4974,161.673 30.5,183.5C 29.3696,178.776 28.0363,174.109 26.5,169.5C 27.8209,152.137 27.8209,134.804 26.5,117.5 Z"/></g>
<g><path style="opacity:1" fill="#cb0404" d="M 278.5,136.5 C 278.5,136.833 278.5,137.167 278.5,137.5C 276.362,142.274 274.528,147.274 273,152.5C 272.5,142.506 272.334,132.506 272.5,122.5C 274.5,122.5 276.5,122.5 278.5,122.5C 278.5,127.167 278.5,131.833 278.5,136.5 Z"/></g>
<g><path style="opacity:1" fill="#b70b09" d="M 20.5,144.5 C 20.4911,136.44 19.8244,128.44 18.5,120.5C 21.1667,120.167 23.8333,119.833 26.5,119.5C 26.6666,134.504 26.4999,149.504 26,164.5C 24.1392,157.711 22.3058,151.045 20.5,144.5 Z"/></g>
<g><path style="opacity:1" fill="#dfe2e1" d="M 96.5,107.5 C 97.5,107.5 98.5,107.5 99.5,107.5C 99.6667,164.834 99.5,222.168 99,279.5C 98.3292,278.748 97.4959,278.414 96.5,278.5C 95.5,278.167 94.8333,277.5 94.5,276.5C 96.4895,220.382 97.1562,164.049 96.5,107.5 Z"/></g>
<g><path style="opacity:1" fill="#dbdadc" d="M 263.5,118.5 C 263.842,117.662 264.508,117.328 265.5,117.5C 268.373,117.802 271.039,118.469 273.5,119.5C 272.209,119.263 271.209,119.596 270.5,120.5C 270.5,136.833 270.5,153.167 270.5,169.5C 270.833,170.833 271.167,172.167 271.5,173.5C 270.231,178.308 268.564,182.974 266.5,187.5C 265.833,164.5 265.167,141.5 264.5,118.5C 264.167,118.5 263.833,118.5 263.5,118.5 Z"/></g>
<g><path style="opacity:1" fill="#9dbdca" d="M 130.5,104.5 C 129.833,105.167 129.167,105.833 128.5,106.5C 119.312,106.645 110.312,107.311 101.5,108.5C 100.501,165.664 100.168,222.998 100.5,280.5C 99.8333,280.5 99.1667,280.5 98.5,280.5C 97.5,280.167 96.8333,279.5 96.5,278.5C 97.4959,278.414 98.3292,278.748 99,279.5C 99.5,222.168 99.6667,164.834 99.5,107.5C 98.5,107.5 97.5,107.5 96.5,107.5C 94.1667,107.5 91.8333,107.5 89.5,107.5C 102.988,106.1 116.655,105.1 130.5,104.5 Z"/></g>
<g><path style="opacity:0.004" fill="#fffe9d" d="M 286.5,176.5 C 286.833,176.5 287.167,176.5 287.5,176.5C 287.737,177.791 287.404,178.791 286.5,179.5C 286.5,178.5 286.5,177.5 286.5,176.5 Z"/></g>
<g><path style="opacity:1" fill="#daadae" d="M 89.5,107.5 C 91.8333,107.5 94.1667,107.5 96.5,107.5C 97.1562,164.049 96.4895,220.382 94.5,276.5C 83.1367,267.103 73.1367,256.436 64.5,244.5C 64.1722,199.761 64.5056,155.095 65.5,110.5C 73.344,108.571 81.344,107.571 89.5,107.5 Z"/></g>
<g><path style="opacity:1" fill="#b41f17" d="M 85.5,266.5 C 87.7567,266.962 89.7567,267.962 91.5,269.5C 92.1795,216.475 92.8462,163.475 93.5,110.5C 84.8781,110.8 76.3781,111.8 68,113.5C 67.7606,157.501 68.0939,201.501 69,245.5C 70.3717,246.91 71.205,248.577 71.5,250.5C 69.1644,248.996 67.331,246.996 66,244.5C 65.3333,200.5 65.3333,156.5 66,112.5C 75.4202,110.851 84.9202,109.518 94.5,108.5C 94.6667,163.834 94.5,219.168 94,274.5C 90.6671,272.333 87.8337,269.666 85.5,266.5 Z"/></g>
<g><path style="opacity:0.004" fill="#feff00" d="M 14.5,184.5 C 14.631,185.239 14.4643,185.906 14,186.5C 13.3083,185.563 13.475,184.897 14.5,184.5 Z"/></g>
<g><path style="opacity:0.004" fill="#ff7a59" d="M 284.5,183.5 C 285.525,183.897 285.692,184.563 285,185.5C 284.536,184.906 284.369,184.239 284.5,183.5 Z"/></g>
<g><path style="opacity:1" fill="#7da0b5" d="M 62.5,110.5 C 62.0825,111.222 61.4158,111.722 60.5,112C 61.8258,154.47 61.8258,196.97 60.5,239.5C 49.7322,224.979 40.7322,209.312 33.5,192.5C 32.3024,189.574 31.3024,186.574 30.5,183.5C 31.4974,161.673 31.8307,139.673 31.5,117.5C 30.1667,117.5 28.8333,117.5 27.5,117.5C 38.8884,114.431 50.5551,112.098 62.5,110.5 Z"/></g>
<g><path style="opacity:1" fill="#012455" d="M 52.5,113.5 C 55.1667,113.5 57.8333,113.5 60.5,113.5C 60.6667,154.501 60.5,195.501 60,236.5C 49.1725,220.514 40.1725,203.514 33,185.5C 32.5,162.836 32.3334,140.169 32.5,117.5C 39.4109,116.766 46.0776,115.433 52.5,113.5 Z"/></g>
<g><path style="opacity:0.004" fill="#ff7ef8" d="M 283.5,186.5 C 284.525,186.897 284.692,187.563 284,188.5C 283.536,187.906 283.369,187.239 283.5,186.5 Z"/></g>
<g><path style="opacity:1" fill="#d18e90" d="M 201.5,107.5 C 212.018,107.527 222.351,108.86 232.5,111.5C 232.168,156.336 232.501,201.003 233.5,245.5C 224.298,257.579 213.964,268.579 202.5,278.5C 201.504,221.571 201.171,164.571 201.5,107.5 Z"/></g>
<g><path style="opacity:1" fill="#c40000" d="M 229.5,245.5 C 228.498,247.011 227.831,248.678 227.5,250.5C 226.396,252.389 225.063,254.055 223.5,255.5C 220.884,256.48 218.551,257.98 216.5,260C 214.539,262.963 212.206,265.629 209.5,268C 207.633,268.711 206.133,268.211 205,266.5C 204.46,214.5 203.96,162.5 203.5,110.5C 212.105,111.94 220.772,112.94 229.5,113.5C 229.5,157.5 229.5,201.5 229.5,245.5 Z"/></g>
<g><path style="opacity:1" fill="#ab0505" d="M 230.5,112.5 C 230.832,157.003 230.499,201.336 229.5,245.5C 229.5,201.5 229.5,157.5 229.5,113.5C 220.772,112.94 212.105,111.94 203.5,110.5C 203.96,162.5 204.46,214.5 205,266.5C 206.133,268.211 207.633,268.711 209.5,268C 212.206,265.629 214.539,262.963 216.5,260C 218.551,257.98 220.884,256.48 223.5,255.5C 217.54,263.294 210.707,270.294 203,276.5C 202.5,220.834 202.333,165.168 202.5,109.5C 211.853,110.312 221.187,111.312 230.5,112.5 Z"/></g>
<g><path style="opacity:0.004" fill="#4f4e17" d="M 14.5,188.5 C 15.525,188.897 15.6917,189.563 15,190.5C 14.5357,189.906 14.369,189.239 14.5,188.5 Z"/></g>
<g><path style="opacity:1" fill="#dfe5e6" d="M 62.5,110.5 C 63.5,110.5 64.5,110.5 65.5,110.5C 64.5056,155.095 64.1722,199.761 64.5,244.5C 63.197,242.858 61.8637,241.191 60.5,239.5C 61.8258,196.97 61.8258,154.47 60.5,112C 61.4158,111.722 62.0825,111.222 62.5,110.5 Z"/></g>
<g><path style="opacity:1" fill="#ad2a28" d="M 230.5,112.5 C 231.665,156.998 231.831,201.665 231,246.5C 230.34,248.324 229.173,249.657 227.5,250.5C 227.831,248.678 228.498,247.011 229.5,245.5C 230.499,201.336 230.832,157.003 230.5,112.5 Z"/></g>
<g><path style="opacity:1" fill="#c10000" d="M 85.5,266.5 C 80.4897,261.488 75.823,256.155 71.5,250.5C 71.205,248.577 70.3717,246.91 69,245.5C 68.0939,201.501 67.7606,157.501 68,113.5C 76.3781,111.8 84.8781,110.8 93.5,110.5C 92.8462,163.475 92.1795,216.475 91.5,269.5C 89.7567,267.962 87.7567,266.962 85.5,266.5 Z"/></g>
<g><path style="opacity:0.004" fill="#ff7ef8" d="M 16.5,193.5 C 15.475,193.103 15.3083,192.437 16,191.5C 16.4643,192.094 16.631,192.761 16.5,193.5 Z"/></g>
<g><path style="opacity:0.006" fill="#fe0000" d="M 16.5,193.5 C 16.8333,193.5 17.1667,193.5 17.5,193.5C 17.1667,196.167 16.8333,196.167 16.5,193.5 Z"/></g>
<g><path style="opacity:0.008" fill="#c5763f" d="M 280.5,196.5 C 280.5,195.833 280.5,195.167 280.5,194.5C 281.404,193.791 281.737,192.791 281.5,191.5C 282.222,191.082 282.722,190.416 283,189.5C 283.444,192.339 282.61,194.672 280.5,196.5 Z"/></g>
<g><path style="opacity:0.008" fill="#827e39" d="M 18.5,196.5 C 18.5,197.167 18.5,197.833 18.5,198.5C 17.1667,197.833 17.1667,197.167 18.5,196.5 Z"/></g>
<g><path style="opacity:1" fill="#051c4c" d="M 101.5,108.5 C 102.332,132.997 102.832,157.663 103,182.5C 104.289,179.649 104.789,176.649 104.5,173.5C 108.182,173.335 111.848,173.501 115.5,174C 116.701,174.903 117.535,176.069 118,177.5C 118.374,176.584 118.874,175.75 119.5,175C 121.657,174.922 123.657,174.755 125.5,174.5C 126.734,152.352 127.734,130.352 128.5,108.5C 128.5,130.5 128.5,152.5 128.5,174.5C 131.482,174.104 134.149,174.771 136.5,176.5C 134.713,178.858 133.713,181.525 133.5,184.5C 132.659,185.926 131.659,187.26 130.5,188.5C 126.637,189.694 123.637,192.027 121.5,195.5C 120.624,195.631 119.957,195.298 119.5,194.5C 118.764,192.459 117.931,190.459 117,188.5C 111.952,194.643 110.452,201.643 112.5,209.5C 113.79,211.657 114.624,213.99 115,216.5C 115.837,214.156 117.171,212.156 119,210.5C 121.501,213.848 124.668,216.182 128.5,217.5C 128.5,217.833 128.5,218.167 128.5,218.5C 128.938,224.313 126.438,225.98 121,223.5C 119.632,220.814 118.299,218.147 117,215.5C 116.516,217.913 116.85,220.246 118,222.5C 120.335,225.665 122.835,228.665 125.5,231.5C 126.167,232.833 127.167,233.833 128.5,234.5C 128.833,256.177 128.5,277.844 127.5,299.5C 118.205,293.53 109.205,287.197 100.5,280.5C 100.168,222.998 100.501,165.664 101.5,108.5 Z"/></g>
<g><path style="opacity:1" fill="#55879b" d="M 196.5,108.5 C 197.167,166.167 197.833,223.833 198.5,281.5C 189.366,289.96 179.366,297.294 168.5,303.5C 168.5,302.833 168.5,302.167 168.5,301.5C 169.492,301.672 170.158,301.338 170.5,300.5C 179.398,295.108 187.898,289.108 196,282.5C 196.5,242.168 196.667,201.835 196.5,161.5C 196.5,143.833 196.5,126.167 196.5,108.5 Z"/></g>
<g><path style="opacity:0.004" fill="#fefffe" d="M 270.5,216.5 C 270.833,216.5 271.167,216.5 271.5,216.5C 271.315,217.17 270.981,217.17 270.5,216.5 Z"/></g>
<g><path style="opacity:0.008" fill="#7e7f7e" d="M 269.5,218.5 C 270.833,219.167 270.833,219.167 269.5,218.5 Z"/></g>
<g><path style="opacity:0.004" fill="#feff00" d="M 29.5,220.5 C 29.631,221.239 29.4643,221.906 29,222.5C 28.3083,221.563 28.475,220.897 29.5,220.5 Z"/></g>
<g><path style="opacity:0.004" fill="#fefffe" d="M 268.5,220.5 C 269.833,221.167 269.833,221.167 268.5,220.5 Z"/></g>
<g><path style="opacity:0.004" fill="#feff00" d="M 29.5,223.5 C 30.8333,224.167 30.8333,224.167 29.5,223.5 Z"/></g>
<g><path style="opacity:0.004" fill="#feff00" d="M 30.5,225.5 C 31.8333,226.167 31.8333,226.167 30.5,225.5 Z"/></g>
<g><path style="opacity:1" fill="#59899f" d="M 236.5,111.5 C 246.423,112.956 256.089,114.956 265.5,117.5C 264.508,117.328 263.842,117.662 263.5,118.5C 256.21,116.952 248.877,115.618 241.5,114.5C 240.167,114.5 238.833,114.5 237.5,114.5C 237.167,155.906 237.5,196.573 238.5,236.5C 248.81,221.969 257.31,206.303 264,189.5C 264.5,165.836 264.667,142.169 264.5,118.5C 265.167,141.5 265.833,164.5 266.5,187.5C 259.652,206.875 249.985,224.541 237.5,240.5C 236.506,197.572 236.172,154.572 236.5,111.5 Z"/></g>
<g><path style="opacity:1" fill="#002456" d="M 241.5,114.5 C 248.877,115.618 256.21,116.952 263.5,118.5C 263.833,118.5 264.167,118.5 264.5,118.5C 264.667,142.169 264.5,165.836 264,189.5C 257.31,206.303 248.81,221.969 238.5,236.5C 238.5,196.167 238.5,155.833 238.5,115.5C 239.791,115.737 240.791,115.404 241.5,114.5 Z"/></g>
<g><path style="opacity:1" fill="#000135" d="M 241.5,114.5 C 240.791,115.404 239.791,115.737 238.5,115.5C 238.5,155.833 238.5,196.167 238.5,236.5C 237.5,196.573 237.167,155.906 237.5,114.5C 238.833,114.5 240.167,114.5 241.5,114.5 Z"/></g>
<g><path style="opacity:1" fill="#d6dfe1" d="M 232.5,111.5 C 233.833,111.5 235.167,111.5 236.5,111.5C 236.172,154.572 236.506,197.572 237.5,240.5C 236.136,242.191 234.803,243.858 233.5,245.5C 232.501,201.003 232.168,156.336 232.5,111.5 Z"/></g>
<g><path style="opacity:0.004" fill="#ffcac3" d="M 35.5,233.5 C 35.8333,233.5 36.1667,233.5 36.5,233.5C 36.5,234.167 36.5,234.833 36.5,235.5C 35.6618,235.158 35.3284,234.492 35.5,233.5 Z"/></g>
<g><path style="opacity:0.004" fill="#fefffe" d="M 253.5,244.5 C 253.833,244.5 254.167,244.5 254.5,244.5C 254.315,245.17 253.981,245.17 253.5,244.5 Z"/></g>
<g><path style="opacity:0.008" fill="#fe7f00" d="M 44.5,247.5 C 44.8333,247.5 45.1667,247.5 45.5,247.5C 45.3147,248.17 44.9813,248.17 44.5,247.5 Z"/></g>
<g><path style="opacity:0.008" fill="#7e7f00" d="M 251.5,247.5 C 252.833,248.167 252.833,248.167 251.5,247.5 Z"/></g>
<g><path style="opacity:0.004" fill="#fffe7a" d="M 250.5,248.5 C 250.833,248.5 251.167,248.5 251.5,248.5C 251.672,249.492 251.338,250.158 250.5,250.5C 250.5,249.833 250.5,249.167 250.5,248.5 Z"/></g>
<g><path style="opacity:0.008" fill="#7e7f7e" d="M 47.5,250.5 C 46.8333,251.167 46.8333,251.167 47.5,250.5 Z"/></g>
<g><path style="opacity:1" fill="#001748" d="M 196.5,161.5 C 196.667,201.835 196.5,242.168 196,282.5C 187.898,289.108 179.398,295.108 170.5,300.5C 169.172,278.663 169.172,256.663 170.5,234.5C 175.992,229.681 180.325,224.014 183.5,217.5C 183.376,216.893 183.043,216.56 182.5,216.5C 185.347,210.363 186.014,204.03 184.5,197.5C 186.351,197.351 188.184,197.351 190,197.5C 192.705,202.824 194.038,208.49 194,214.5C 194.333,183.833 194.667,153.167 195,122.5C 195.169,135.673 195.669,148.673 196.5,161.5 Z"/></g>
<g><path style="opacity:0.008" fill="#7e7f00" d="M 249.5,250.5 C 249.833,250.5 250.167,250.5 250.5,250.5C 250.315,251.17 249.981,251.17 249.5,250.5 Z"/></g>
<g><path style="opacity:1" fill="#d6d5d8" d="M 130.5,104.5 C 154.374,104.308 178.041,105.308 201.5,107.5C 201.171,164.571 201.504,221.571 202.5,278.5C 201.738,280.262 200.404,281.262 198.5,281.5C 197.833,223.833 197.167,166.167 196.5,108.5C 187.491,107.922 178.491,107.255 169.5,106.5C 168.833,128.5 168.167,150.5 167.5,172.5C 166.508,172.672 165.842,172.338 165.5,171.5C 164.844,149.735 164.177,128.069 163.5,106.5C 153.833,106.5 144.167,106.5 134.5,106.5C 133.503,127.66 133.169,148.993 133.5,170.5C 134.791,170.737 135.791,170.404 136.5,169.5C 140.591,168.437 144.758,167.77 149,167.5C 151.295,167.547 153.129,168.213 154.5,169.5C 153.005,169.415 152.005,170.081 151.5,171.5C 155.274,173.771 158.607,176.604 161.5,180C 165.252,180.24 168.919,180.74 172.5,181.5C 173.81,183.148 175.143,184.814 176.5,186.5C 173.983,187.864 172.149,189.864 171,192.5C 170.501,196.486 170.334,200.486 170.5,204.5C 169.167,204.5 167.833,204.5 166.5,204.5C 164.227,199.606 161.227,195.273 157.5,191.5C 154.572,191.565 151.905,192.232 149.5,193.5C 146.824,194.008 144.157,194.175 141.5,194C 138.72,192.188 136.22,190.021 134,187.5C 133.517,186.552 133.351,185.552 133.5,184.5C 133.713,181.525 134.713,178.858 136.5,176.5C 134.149,174.771 131.482,174.104 128.5,174.5C 128.5,152.5 128.5,130.5 128.5,108.5C 128.5,107.833 128.5,107.167 128.5,106.5C 129.167,105.833 129.833,105.167 130.5,104.5 Z"/></g>
<g><path style="opacity:1" fill="#ae0e0d" d="M 134.5,106.5 C 144.167,106.5 153.833,106.5 163.5,106.5C 163.5,127.833 163.5,149.167 163.5,170.5C 160.518,170.037 157.518,169.704 154.5,169.5C 153.129,168.213 151.295,167.547 149,167.5C 144.758,167.77 140.591,168.437 136.5,169.5C 134.511,148.86 133.845,127.86 134.5,106.5 Z"/></g>
<g><path style="opacity:1" fill="#265c79" d="M 169.5,106.5 C 169.833,128.843 169.5,151.177 168.5,173.5C 167.893,173.376 167.56,173.043 167.5,172.5C 168.167,150.5 168.833,128.5 169.5,106.5 Z"/></g>
<g><path style="opacity:1" fill="#d16d65" d="M 134.5,106.5 C 133.845,127.86 134.511,148.86 136.5,169.5C 135.791,170.404 134.791,170.737 133.5,170.5C 133.169,148.993 133.503,127.66 134.5,106.5 Z"/></g>
<g><path style="opacity:1" fill="#e4b0b3" d="M 163.5,106.5 C 164.177,128.069 164.844,149.735 165.5,171.5C 164.508,171.672 163.842,171.338 163.5,170.5C 163.5,149.167 163.5,127.833 163.5,106.5 Z"/></g>
<g><path style="opacity:1" fill="#ce0000" d="M 135.5,107.5 C 143.889,107.197 152.222,107.53 160.5,108.5C 161.5,128.155 161.833,147.822 161.5,167.5C 157.384,166.047 153.051,165.38 148.5,165.5C 144.34,165.341 140.34,166.008 136.5,167.5C 135.5,147.511 135.167,127.511 135.5,107.5 Z"/></g>
<g><path style="opacity:0.016" fill="#be7f3e" d="M 240.5,261.5 C 240.833,261.5 241.167,261.5 241.5,261.5C 241.315,262.17 240.981,262.17 240.5,261.5 Z"/></g>
<g><path style="opacity:0.016" fill="#be7f3e" d="M 239.5,262.5 C 239.833,262.5 240.167,262.5 240.5,262.5C 240.315,263.17 239.981,263.17 239.5,262.5 Z"/></g>
<g><path style="opacity:0.004" fill="#38201f" d="M 238.5,263.5 C 238.833,263.5 239.167,263.5 239.5,263.5C 239.167,266.167 238.833,266.167 238.5,263.5 Z"/></g>
<g><path style="opacity:0.004" fill="#feff00" d="M 236.5,266.5 C 237.833,267.167 237.833,267.167 236.5,266.5 Z"/></g>
<g><path style="opacity:0.008" fill="#7e7f00" d="M 235.5,267.5 C 235.833,267.5 236.167,267.5 236.5,267.5C 236.315,268.17 235.981,268.17 235.5,267.5 Z"/></g>
<g><path style="opacity:0.004" fill="#aa4c21" d="M 234.5,268.5 C 234.833,268.5 235.167,268.5 235.5,268.5C 235.5,270.5 234.5,271.5 232.5,271.5C 232.5,271.167 232.5,270.833 232.5,270.5C 233.167,270.5 233.5,270.167 233.5,269.5C 234.167,269.5 234.5,269.167 234.5,268.5 Z"/></g>
<g><path style="opacity:0.016" fill="#be7f7e" d="M 231.5,271.5 C 231.833,271.5 232.167,271.5 232.5,271.5C 232.315,272.17 231.981,272.17 231.5,271.5 Z"/></g>
<g><path style="opacity:0.004" fill="#fe0000" d="M 224.5,280.5 C 223.833,281.167 223.833,281.167 224.5,280.5 Z"/></g>
<g><path style="opacity:0.004" fill="#00ff00" d="M 219.5,283.5 C 220.833,284.167 220.833,284.167 219.5,283.5 Z"/></g>
<g><path style="opacity:0.004" fill="#4a2926" d="M 218.5,284.5 C 218.833,284.5 219.167,284.5 219.5,284.5C 219.5,286.5 218.5,287.5 216.5,287.5C 216.5,287.167 216.5,286.833 216.5,286.5C 217.167,286.5 217.5,286.167 217.5,285.5C 218.167,285.5 218.5,285.167 218.5,284.5 Z"/></g>
<g><path style="opacity:0.012" fill="#feaa54" d="M 215.5,287.5 C 215.833,287.5 216.167,287.5 216.5,287.5C 216.315,288.17 215.981,288.17 215.5,287.5 Z"/></g>
<g><path style="opacity:0.016" fill="#be7f3e" d="M 214.5,288.5 C 214.833,288.5 215.167,288.5 215.5,288.5C 215.315,289.17 214.981,289.17 214.5,288.5 Z"/></g>
<g><path style="opacity:0.008" fill="#feff00" d="M 207.5,294.5 C 207.833,294.5 208.167,294.5 208.5,294.5C 208.315,295.17 207.981,295.17 207.5,294.5 Z"/></g>
<g><path style="opacity:0.004" fill="#ffc134" d="M 89.5,295.5 C 89.5,296.167 89.8333,296.5 90.5,296.5C 89.5029,297.713 88.5029,297.546 87.5,296C 88.0944,295.536 88.7611,295.369 89.5,295.5 Z"/></g>
<g><path style="opacity:0.008" fill="#feff00" d="M 206.5,295.5 C 206.833,295.5 207.167,295.5 207.5,295.5C 207.315,296.17 206.981,296.17 206.5,295.5 Z"/></g>
<g><path style="opacity:0.008" fill="#7e7f00" d="M 205.5,296.5 C 205.833,296.5 206.167,296.5 206.5,296.5C 206.315,297.17 205.981,297.17 205.5,296.5 Z"/></g>
<g><path style="opacity:0.004" fill="#000000" d="M 205.5,297.5 C 204.833,298.167 204.833,298.167 205.5,297.5 Z"/></g>
<g><path style="opacity:0.004" fill="#feff00" d="M 92.5,298.5 C 92.5,298.833 92.5,299.167 92.5,299.5C 91.8299,299.019 91.8299,298.685 92.5,298.5 Z"/></g>
<g><path style="opacity:0.008" fill="#fe7f7e" d="M 202.5,298.5 C 203.833,299.167 203.833,299.167 202.5,298.5 Z"/></g>
<g><path style="opacity:0.004" fill="#000000" d="M 92.5,299.5 C 93.8333,300.167 93.8333,300.167 92.5,299.5 Z"/></g>
<g><path style="opacity:0.004" fill="#feff00" d="M 201.5,299.5 C 201.833,299.5 202.167,299.5 202.5,299.5C 202.315,300.17 201.981,300.17 201.5,299.5 Z"/></g>
<g><path style="opacity:0.012" fill="#a9aa54" d="M 198.5,301.5 C 198.833,301.5 199.167,301.5 199.5,301.5C 199.315,302.17 198.981,302.17 198.5,301.5 Z"/></g>
<g><path style="opacity:0.996" fill="#d69550" d="M 287.5,122.5 C 287.666,128.509 287.499,134.509 287,140.5C 285.596,148.87 284.096,157.203 282.5,165.5C 284.81,165.242 286.81,165.242 288.5,165.5C 288.833,169.5 289.167,169.5 289.5,165.5C 289.833,165.5 290.167,165.5 290.5,165.5C 290.258,169.479 289.258,173.146 287.5,176.5C 287.167,171.167 286.833,171.167 286.5,176.5C 285.167,177.5 285.167,178.5 286.5,179.5C 286.462,181.636 285.795,182.969 284.5,183.5C 282.733,185.792 281.733,188.458 281.5,191.5C 280.596,192.209 280.263,193.209 280.5,194.5C 279.167,195.167 279.167,195.833 280.5,196.5C 278.565,203.699 275.565,210.365 271.5,216.5C 271.167,213.833 270.833,213.833 270.5,216.5C 269.662,216.842 269.328,217.508 269.5,218.5C 268.662,218.842 268.328,219.508 268.5,220.5C 267.759,224.052 266.259,227.718 264,231.5C 261.301,236.256 258.134,240.589 254.5,244.5C 254.167,243.167 253.833,243.167 253.5,244.5C 252.167,244.833 252.167,245.167 253.5,245.5C 252.833,246.167 252.167,246.833 251.5,247.5C 250.833,247.5 250.5,247.833 250.5,248.5C 249.662,248.842 249.328,249.508 249.5,250.5C 248.167,250.833 248.167,251.167 249.5,251.5C 247.587,255.416 244.92,258.749 241.5,261.5C 241.167,260.167 240.833,260.167 240.5,261.5C 239.833,261.5 239.5,261.833 239.5,262.5C 238.833,262.5 238.5,262.833 238.5,263.5C 237.599,264.29 236.932,265.29 236.5,266.5C 235.833,266.5 235.5,266.833 235.5,267.5C 234.833,267.5 234.5,267.833 234.5,268.5C 233.833,268.5 233.5,268.833 233.5,269.5C 232.833,269.5 232.5,269.833 232.5,270.5C 231.833,270.5 231.5,270.833 231.5,271.5C 230.167,271.833 230.167,272.167 231.5,272.5C 229.906,275.764 227.573,278.431 224.5,280.5C 224.631,279.761 224.464,279.094 224,278.5C 222.293,280.037 220.793,281.704 219.5,283.5C 218.833,283.5 218.5,283.833 218.5,284.5C 217.833,284.5 217.5,284.833 217.5,285.5C 216.833,285.5 216.5,285.833 216.5,286.5C 215.833,286.5 215.5,286.833 215.5,287.5C 214.833,287.5 214.5,287.833 214.5,288.5C 213.167,288.833 213.167,289.167 214.5,289.5C 213.089,291.914 211.089,293.581 208.5,294.5C 208.167,293.167 207.833,293.167 207.5,294.5C 206.833,294.5 206.5,294.833 206.5,295.5C 205.833,295.5 205.5,295.833 205.5,296.5C 203.973,296.427 202.973,297.094 202.5,298.5C 201.833,298.5 201.5,298.833 201.5,299.5C 200.167,299.833 200.167,300.167 201.5,300.5C 201.158,301.338 200.492,301.672 199.5,301.5C 199.167,300.167 198.833,300.167 198.5,301.5C 197.167,301.833 197.167,302.167 198.5,302.5C 197.415,304.587 195.749,305.92 193.5,306.5C 192.833,305.167 192.167,305.167 191.5,306.5C 190.833,306.5 190.5,306.833 190.5,307.5C 189.833,307.5 189.5,307.833 189.5,308.5C 188.508,308.328 187.842,308.662 187.5,309.5C 186.833,309.5 186.5,309.833 186.5,310.5C 185.508,310.328 184.842,310.662 184.5,311.5C 183.833,311.5 183.5,311.833 183.5,312.5C 181.973,312.427 180.973,313.094 180.5,314.5C 179.508,314.328 178.842,314.662 178.5,315.5C 175.833,315.833 175.833,316.167 178.5,316.5C 173.335,320.586 167.668,323.92 161.5,326.5C 160.833,325.167 160.167,325.167 159.5,326.5C 158.508,326.328 157.842,326.662 157.5,327.5C 156.508,327.328 155.842,327.662 155.5,328.5C 153.447,328.402 151.78,329.069 150.5,330.5C 149.5,330.5 148.5,330.5 147.5,330.5C 144.912,328.375 141.912,327.042 138.5,326.5C 132.469,325.013 126.469,322.513 120.5,319C 117.644,317.251 115.644,315.417 114.5,313.5C 113.101,312.11 111.434,311.11 109.5,310.5C 109.5,309.833 109.167,309.5 108.5,309.5C 107.833,308.167 107.167,308.167 106.5,309.5C 102.285,308.442 99.7848,306.109 99,302.5C 98.2825,303.451 97.4491,303.617 96.5,303C 96.6685,300.637 95.3352,299.137 92.5,298.5C 92.1667,297.5 91.5,296.833 90.5,296.5C 89.8333,296.5 89.5,296.167 89.5,295.5C 87.8968,294.404 86.3968,293.07 85,291.5C 84.2825,292.451 83.4491,292.617 82.5,292C 80.5,290 78.5,288 76.5,286C 76.8333,285.667 77.1667,285.333 77.5,285C 73.3275,280.111 68.8275,276.277 64,273.5C 63.3828,272.551 63.5494,271.718 64.5,271C 61.9833,267.738 59.15,265.571 56,264.5C 53.6667,261.5 51.3333,258.5 49,255.5C 48.3828,254.551 48.5494,253.718 49.5,253C 48.9341,252.005 48.2674,251.172 47.5,250.5C 47.0679,249.29 46.4013,248.29 45.5,247.5C 45.1667,246.167 44.8333,246.167 44.5,247.5C 41.3401,243.852 38.6735,239.852 36.5,235.5C 37.8333,234.833 37.8333,234.167 36.5,233.5C 36.1667,232.167 35.8333,232.167 35.5,233.5C 34.4612,229.066 32.4612,224.732 29.5,220.5C 29.2914,219.078 28.7914,217.745 28,216.5C 27.6667,217.167 27.3333,217.833 27,218.5C 22.8994,212.363 20.0661,205.696 18.5,198.5C 19.8333,197.833 19.8333,197.167 18.5,196.5C 18.7373,195.209 18.404,194.209 17.5,193.5C 17.0719,190.215 16.0719,187.215 14.5,184.5C 14.313,182.436 13.813,180.436 13,178.5C 12.6667,179.5 12.3333,180.5 12,181.5C 10.3876,176.831 8.88759,172.164 7.5,167.5C 8.16667,167.5 8.83333,167.5 9.5,167.5C 9.83333,171.5 10.1667,171.5 10.5,167.5C 7.35508,153.027 5.85508,138.36 6,123.5C 6.69416,124.818 7.52749,125.651 8.5,126C 8.10812,127.011 7.44145,127.511 6.5,127.5C 7.68884,128.429 9.02218,128.762 10.5,128.5C 10.125,133.911 11.125,138.911 13.5,143.5C 16.7626,156.016 19.9293,168.683 23,181.5C 25.6095,188.372 28.4428,195.038 31.5,201.5C 51.9926,248.501 84.6592,284.667 129.5,310C 135.318,312.41 140.985,315.077 146.5,318C 148.5,318.667 150.5,318.667 152.5,318C 214.303,287.537 256.136,239.703 278,174.5C 281.337,161.315 283.837,147.981 285.5,134.5C 286.167,130.5 286.833,126.5 287.5,122.5 Z"/></g>
<g><path style="opacity:1" fill="#a4acc0" d="M 133.5,184.5 C 133.351,185.552 133.517,186.552 134,187.5C 136.22,190.021 138.72,192.188 141.5,194C 144.157,194.175 146.824,194.008 149.5,193.5C 147.485,194.924 145.152,195.59 142.5,195.5C 142.387,200.518 142.053,205.518 141.5,210.5C 141.5,210.833 141.5,211.167 141.5,211.5C 137.55,214.308 133.217,216.308 128.5,217.5C 124.668,216.182 121.501,213.848 119,210.5C 117.171,212.156 115.837,214.156 115,216.5C 114.624,213.99 113.79,211.657 112.5,209.5C 110.452,201.643 111.952,194.643 117,188.5C 117.931,190.459 118.764,192.459 119.5,194.5C 119.957,195.298 120.624,195.631 121.5,195.5C 120.463,199.543 120.463,203.377 121.5,207C 123.167,207.667 124.833,207.667 126.5,207C 129.796,206.08 132.963,204.913 136,203.5C 136.772,203.645 137.439,203.978 138,204.5C 139.813,201.662 140.813,198.662 141,195.5C 137.844,192.485 134.344,190.152 130.5,188.5C 131.659,187.26 132.659,185.926 133.5,184.5 Z"/></g>
<g><path style="opacity:1" fill="#c9cfd9" d="M 130.5,188.5 C 134.344,190.152 137.844,192.485 141,195.5C 140.813,198.662 139.813,201.662 138,204.5C 137.439,203.978 136.772,203.645 136,203.5C 132.963,204.913 129.796,206.08 126.5,207C 124.833,207.667 123.167,207.667 121.5,207C 120.463,203.377 120.463,199.543 121.5,195.5C 123.637,192.027 126.637,189.694 130.5,188.5 Z"/></g>
<g><path style="opacity:1" fill="#929ab8" d="M 182.5,194.5 C 179.301,199.419 177.967,204.753 178.5,210.5C 178.662,212.527 178.495,214.527 178,216.5C 177.107,215.289 176.274,215.289 175.5,216.5C 174.907,218.382 174.24,220.215 173.5,222C 170.382,223.147 167.382,224.48 164.5,226C 163.663,227.011 163.33,228.178 163.5,229.5C 162.167,229.5 160.833,229.5 159.5,229.5C 158.833,229.833 158.167,230.167 157.5,230.5C 155.983,230.489 154.816,229.823 154,228.5C 147.769,228.967 141.603,229.967 135.5,231.5C 134.416,231.315 133.416,230.982 132.5,230.5C 131.627,226.122 130.294,222.122 128.5,218.5C 128.5,218.167 128.5,217.833 128.5,217.5C 133.217,216.308 137.55,214.308 141.5,211.5C 141.833,212.167 142.167,212.833 142.5,213.5C 138.91,214.628 135.577,216.295 132.5,218.5C 131.369,220.074 131.202,221.741 132,223.5C 135.064,222.217 138.397,221.55 142,221.5C 146.526,221.641 151.026,221.975 155.5,222.5C 155.5,221.167 155.5,219.833 155.5,218.5C 160.686,214.986 164.352,210.32 166.5,204.5C 167.833,204.5 169.167,204.5 170.5,204.5C 170.334,200.486 170.501,196.486 171,192.5C 172.149,189.864 173.983,187.864 176.5,186.5C 175.143,184.814 173.81,183.148 172.5,181.5C 173.29,180.391 173.79,179.058 174,177.5C 180.173,181.843 183.007,187.51 182.5,194.5 Z"/></g>
<g><path style="opacity:0.004" fill="#fbc445" d="M 191.5,306.5 C 192.167,306.5 192.833,306.5 193.5,306.5C 192.738,308.262 191.404,309.262 189.5,309.5C 189.5,309.167 189.5,308.833 189.5,308.5C 190.167,308.5 190.5,308.167 190.5,307.5C 191.167,307.5 191.5,307.167 191.5,306.5 Z"/></g>
<g><path style="opacity:1" fill="#0a1a3e" d="M 285.5,134.5 C 283.837,147.981 281.337,161.315 278,174.5C 256.136,239.703 214.303,287.537 152.5,318C 150.5,318.667 148.5,318.667 146.5,318C 140.985,315.077 135.318,312.41 129.5,310C 84.6592,284.667 51.9926,248.501 31.5,201.5C 30.9556,197.9 29.9556,194.4 28.5,191C 28.6667,190.5 28.8333,190 29,189.5C 30.129,191.141 31.629,192.141 33.5,192.5C 40.7322,209.312 49.7322,224.979 60.5,239.5C 61.8637,241.191 63.197,242.858 64.5,244.5C 73.1367,256.436 83.1367,267.103 94.5,276.5C 94.8333,277.5 95.5,278.167 96.5,278.5C 96.8333,279.5 97.5,280.167 98.5,280.5C 108.272,288.603 118.606,295.936 129.5,302.5C 129.842,303.338 130.508,303.672 131.5,303.5C 137.222,307.448 143.388,310.781 150,313.5C 155.282,311.447 160.115,308.78 164.5,305.5C 165.833,304.833 167.167,304.167 168.5,303.5C 179.366,297.294 189.366,289.96 198.5,281.5C 200.404,281.262 201.738,280.262 202.5,278.5C 213.964,268.579 224.298,257.579 233.5,245.5C 234.803,243.858 236.136,242.191 237.5,240.5C 249.985,224.541 259.652,206.875 266.5,187.5C 268.564,182.974 270.231,178.308 271.5,173.5C 276.429,158.292 279.762,142.626 281.5,126.5C 282.302,125.048 282.802,123.382 283,121.5C 283.359,124.544 284.026,124.878 285,122.5C 285.499,126.486 285.666,130.486 285.5,134.5 Z"/></g>
<g><path style="opacity:1" fill="#990f0f" d="M 141.5,239.5 C 143.5,239.5 145.5,239.5 147.5,239.5C 148.622,240.156 149.955,240.489 151.5,240.5C 155.51,239.83 159.51,239.163 163.5,238.5C 163.833,260.843 163.5,283.177 162.5,305.5C 158.281,307.776 153.948,309.776 149.5,311.5C 143.998,309.585 138.998,306.919 134.5,303.5C 134.5,281.833 134.5,260.167 134.5,238.5C 136.806,238.993 139.139,239.326 141.5,239.5 Z"/></g>
<g><path style="opacity:1" fill="#638fa8" d="M 128.5,234.5 C 129.492,234.328 130.158,234.662 130.5,235.5C 129.828,257.236 129.162,279.069 128.5,301C 129.056,301.383 129.389,301.883 129.5,302.5C 118.606,295.936 108.272,288.603 98.5,280.5C 99.1667,280.5 99.8333,280.5 100.5,280.5C 109.205,287.197 118.205,293.53 127.5,299.5C 128.5,277.844 128.833,256.177 128.5,234.5 Z"/></g>
<g><path style="opacity:1" fill="#d2d0d0" d="M 130.5,235.5 C 131.71,235.932 132.71,236.599 133.5,237.5C 133.5,259.5 133.5,281.5 133.5,303.5C 132.833,303.5 132.167,303.5 131.5,303.5C 130.508,303.672 129.842,303.338 129.5,302.5C 129.389,301.883 129.056,301.383 128.5,301C 129.162,279.069 129.828,257.236 130.5,235.5 Z"/></g>
<g><path style="opacity:1" fill="#cacfcf" d="M 167.5,235.5 C 168.497,257.327 168.831,279.327 168.5,301.5C 168.5,302.167 168.5,302.833 168.5,303.5C 167.167,304.167 165.833,304.833 164.5,305.5C 164.5,282.833 164.5,260.167 164.5,237.5C 165.29,236.599 166.29,235.932 167.5,235.5 Z"/></g>
<g><path style="opacity:1" fill="#c4919a" d="M 164.5,237.5 C 164.5,260.167 164.5,282.833 164.5,305.5C 160.115,308.78 155.282,311.447 150,313.5C 143.388,310.781 137.222,307.448 131.5,303.5C 132.167,303.5 132.833,303.5 133.5,303.5C 133.833,303.5 134.167,303.5 134.5,303.5C 138.998,306.919 143.998,309.585 149.5,311.5C 153.948,309.776 158.281,307.776 162.5,305.5C 163.5,283.177 163.833,260.843 163.5,238.5C 163.5,237.833 163.833,237.5 164.5,237.5 Z"/></g>
<g><path style="opacity:1" fill="#bb4f4e" d="M 133.5,237.5 C 136.495,237.294 139.162,237.96 141.5,239.5C 139.139,239.326 136.806,238.993 134.5,238.5C 134.5,260.167 134.5,281.833 134.5,303.5C 134.167,303.5 133.833,303.5 133.5,303.5C 133.5,281.5 133.5,259.5 133.5,237.5 Z"/></g>
<g><path style="opacity:1" fill="#b70000" d="M 135.5,240.5 C 144.065,240.976 152.565,241.642 161,242.5C 161.833,263.175 161.666,283.841 160.5,304.5C 157.165,306.5 153.665,308.167 150,309.5C 145.41,307.019 140.743,304.685 136,302.5C 135.5,281.836 135.333,261.169 135.5,240.5 Z"/></g>
<g><path style="opacity:1" fill="#5a5f89" d="M 157.5,230.5 C 154.397,233.561 150.73,235.894 146.5,237.5C 146.863,238.183 147.196,238.85 147.5,239.5C 145.5,239.5 143.5,239.5 141.5,239.5C 139.162,237.96 136.495,237.294 133.5,237.5C 132.71,236.599 131.71,235.932 130.5,235.5C 130.158,234.662 129.492,234.328 128.5,234.5C 127.167,233.833 126.167,232.833 125.5,231.5C 128.059,231.802 130.393,231.468 132.5,230.5C 133.416,230.982 134.416,231.315 135.5,231.5C 141.603,229.967 147.769,228.967 154,228.5C 154.816,229.823 155.983,230.489 157.5,230.5 Z"/></g>
<g><path style="opacity:1" fill="#0c0407" d="M 159.5,229.5 C 162.977,230.323 166.644,230.823 170.5,231C 169.614,232.615 168.614,234.115 167.5,235.5C 166.29,235.932 165.29,236.599 164.5,237.5C 163.833,237.5 163.5,237.833 163.5,238.5C 159.51,239.163 155.51,239.83 151.5,240.5C 149.955,240.489 148.622,240.156 147.5,239.5C 147.196,238.85 146.863,238.183 146.5,237.5C 150.73,235.894 154.397,233.561 157.5,230.5C 158.167,230.167 158.833,229.833 159.5,229.5 Z"/></g>
<g><path style="opacity:1" fill="#495b86" d="M 178.5,210.5 C 179.317,212.969 179.817,215.635 180,218.5C 180.995,217.934 181.828,217.267 182.5,216.5C 183.043,216.56 183.376,216.893 183.5,217.5C 180.325,224.014 175.992,229.681 170.5,234.5C 169.172,256.663 169.172,278.663 170.5,300.5C 170.158,301.338 169.492,301.672 168.5,301.5C 168.831,279.327 168.497,257.327 167.5,235.5C 168.614,234.115 169.614,232.615 170.5,231C 166.644,230.823 162.977,230.323 159.5,229.5C 160.833,229.5 162.167,229.5 163.5,229.5C 163.33,228.178 163.663,227.011 164.5,226C 167.382,224.48 170.382,223.147 173.5,222C 174.24,220.215 174.907,218.382 175.5,216.5C 176.274,215.289 177.107,215.289 178,216.5C 178.495,214.527 178.662,212.527 178.5,210.5 Z"/></g>
<g><path style="opacity:1" fill="#04040f" d="M 128.5,218.5 C 130.294,222.122 131.627,226.122 132.5,230.5C 130.393,231.468 128.059,231.802 125.5,231.5C 122.835,228.665 120.335,225.665 118,222.5C 116.85,220.246 116.516,217.913 117,215.5C 118.299,218.147 119.632,220.814 121,223.5C 126.438,225.98 128.938,224.313 128.5,218.5 Z"/></g>
<g><path style="opacity:1" fill="#b3bbcd" d="M 142.5,213.5 C 146.774,215.541 151.108,217.208 155.5,218.5C 155.5,219.833 155.5,221.167 155.5,222.5C 151.026,221.975 146.526,221.641 142,221.5C 138.397,221.55 135.064,222.217 132,223.5C 131.202,221.741 131.369,220.074 132.5,218.5C 135.577,216.295 138.91,214.628 142.5,213.5 Z"/></g>
<g><path style="opacity:1" fill="#111325" d="M 157.5,191.5 C 161.227,195.273 164.227,199.606 166.5,204.5C 164.352,210.32 160.686,214.986 155.5,218.5C 151.108,217.208 146.774,215.541 142.5,213.5C 142.167,212.833 141.833,212.167 141.5,211.5C 141.5,211.167 141.5,210.833 141.5,210.5C 146.164,214.332 151.497,215.832 157.5,215C 164.953,208.717 165.453,201.884 159,194.5C 157.601,193.773 156.101,193.273 154.5,193C 155.737,192.768 156.737,192.268 157.5,191.5 Z"/></g>
<g><path style="opacity:1" fill="#0e1755" d="M 157.5,191.5 C 156.737,192.268 155.737,192.768 154.5,193C 156.101,193.273 157.601,193.773 159,194.5C 165.453,201.884 164.953,208.717 157.5,215C 151.497,215.832 146.164,214.332 141.5,210.5C 142.053,205.518 142.387,200.518 142.5,195.5C 145.152,195.59 147.485,194.924 149.5,193.5C 151.905,192.232 154.572,191.565 157.5,191.5 Z"/></g>
<g><path style="opacity:1" fill="#030313" d="M 182.5,194.5 C 183.167,195.5 183.833,196.5 184.5,197.5C 186.014,204.03 185.347,210.363 182.5,216.5C 181.828,217.267 180.995,217.934 180,218.5C 179.817,215.635 179.317,212.969 178.5,210.5C 177.967,204.753 179.301,199.419 182.5,194.5 Z"/></g>
<g><path style="opacity:0.008" fill="#b299ff" d="M 106.5,309.5 C 107.167,309.5 107.833,309.5 108.5,309.5C 109.167,309.5 109.5,309.833 109.5,310.5C 108.221,311.715 107.221,311.382 106.5,309.5 Z"/></g>
<g><path style="opacity:0.004" fill="#ffcd68" d="M 187.5,309.5 C 188.167,309.5 188.833,309.5 189.5,309.5C 189.027,310.906 188.027,311.573 186.5,311.5C 186.5,311.167 186.5,310.833 186.5,310.5C 187.167,310.5 187.5,310.167 187.5,309.5 Z"/></g>
<g><path style="opacity:0.004" fill="#feff00" d="M 184.5,312.5 C 184.5,312.167 184.5,311.833 184.5,311.5C 185.167,311.5 185.833,311.5 186.5,311.5C 186.158,312.338 185.492,312.672 184.5,312.5 Z"/></g>
<g><path style="opacity:0.004" fill="#fe0000" d="M 183.5,312.5 C 183.833,312.5 184.167,312.5 184.5,312.5C 184.315,313.17 183.981,313.17 183.5,312.5 Z"/></g>
<g><path style="opacity:0.004" fill="#ffc1f7" d="M 114.5,313.5 C 114.103,314.525 113.437,314.692 112.5,314C 113.094,313.536 113.761,313.369 114.5,313.5 Z"/></g>
<g><path style="opacity:0.008" fill="#fe7f00" d="M 183.5,313.5 C 182.833,314.167 182.833,314.167 183.5,313.5 Z"/></g>
<g><path style="opacity:0.004" fill="#fefffe" d="M 180.5,314.5 C 181.833,315.167 181.833,315.167 180.5,314.5 Z"/></g>
<g><path style="opacity:0.004" fill="#ff7ef8" d="M 178.5,316.5 C 178.5,316.167 178.5,315.833 178.5,315.5C 179.167,315.5 179.833,315.5 180.5,315.5C 180.158,316.338 179.492,316.672 178.5,316.5 Z"/></g>
<g><path style="opacity:0.012" fill="#c5c500" d="M 138.5,326.5 C 138.5,326.833 138.5,327.167 138.5,327.5C 135.833,327.167 135.833,326.833 138.5,326.5 Z"/></g>
<g><path style="opacity:0.004" fill="#e5c53d" d="M 159.5,327.5 C 159.5,327.167 159.5,326.833 159.5,326.5C 160.167,326.5 160.833,326.5 161.5,326.5C 161.158,327.338 160.492,327.672 159.5,327.5 Z"/></g>
<g><path style="opacity:0.006" fill="#feff00" d="M 138.5,327.5 C 139.492,327.328 140.158,327.662 140.5,328.5C 139.508,328.672 138.842,328.338 138.5,327.5 Z"/></g>
<g><path style="opacity:0.006" fill="#feff00" d="M 157.5,328.5 C 157.5,328.167 157.5,327.833 157.5,327.5C 158.167,327.5 158.833,327.5 159.5,327.5C 159.158,328.338 158.492,328.672 157.5,328.5 Z"/></g>
<g><path style="opacity:0.008" fill="#ad6efc" d="M 140.5,328.5 C 141.239,328.369 141.906,328.536 142.5,329C 141.563,329.692 140.897,329.525 140.5,328.5 Z"/></g>
<g><path style="opacity:0.004" fill="#ffc1f7" d="M 155.5,328.5 C 156.167,328.5 156.833,328.5 157.5,328.5C 156.833,329.833 156.167,329.833 155.5,328.5 Z"/></g>
<g><path style="opacity:0.004" fill="#fe0000" d="M 144.5,330.5 C 143.833,329.167 143.833,329.167 144.5,330.5 Z"/></g>
<g><path style="opacity:0.004" fill="#fe0000" d="M 154.5,330.5 C 153.833,329.167 153.833,329.167 154.5,330.5 Z"/></g>
</svg>
