<svg id="Layer_1" data-name="Layer 1" xmlns="http://www.w3.org/2000/svg" viewBox="0 0 500 500"><defs><style>.cls-1{fill:#080808;}.cls-2{fill:#fefefe;}.cls-3{fill:#014998;}.cls-4{fill:#d80410;}.cls-5{fill:#017e2d;}</style></defs><title>Ipatinga</title><path class="cls-1" d="M0,250C-.08,112,112-.09,250,0,388.4.09,500.12,111.85,500,250.15,499.92,388.25,388.24,499.84,250,500,112.18,500.16,0,388,0,250ZM249.79,495.42c135.73.06,245.57-109.54,245.72-245.2S385.88,4.58,250,4.51C114.58,4.44,5,114,4.56,249.7,4.15,385,114.27,495.35,249.79,495.42Z"/><path class="cls-2" d="M249.79,495.42C114.27,495.35,4.15,385,4.56,249.7,5,114,114.58,4.44,250,4.51c135.93.07,245.72,109.93,245.56,245.71S385.52,495.48,249.79,495.42ZM412.47,301.84c17.15,0,34.31,0,51.46.1,2.4,0,2.81-.77,2.81-2.94q-.11-48.69,0-97.38c0-2.43-.66-3.07-3.07-3.06-17,.12-34.06.08-51.09.09-3-8.53-6.43-16.88-10.17-25.11,12-11.94,23.94-23.9,36-35.77,1.65-1.63,2.23-2.5.22-4.51q-34.5-34.36-68.74-69c-2-2-2.85-1.45-4.5.21C353.73,76.21,342,87.86,330.26,99.53a280.7,280.7,0,0,0-26.49-11.32c0-16.53,0-33,.08-49.57,0-2.5-.77-3-3.11-3q-48.65.1-97.29,0c-2.51,0-3,.77-3,3.1.11,16,.08,32.06.09,48.09-9.32,3.19-18.41,7-27.42,10.93C161.74,86.26,150.33,74.8,139,63.26c-1.49-1.52-2.28-1-3.49.22Q100.78,98.16,66,132.75c-1.4,1.39-1.71,2.12-.13,3.68,11.25,11.11,22.38,22.33,33.55,33.51-4.25,9.47-8.64,18.88-11.84,28.77-15.8,0-31.6,0-47.4-.14-2.14,0-2.65.67-2.64,2.71q.08,48.89,0,97.78c0,2.27.58,2.89,2.87,2.88,15.8-.12,31.6-.09,47.4-.11.47,1.27,1,2.52,1.4,3.8,2.59,8.36,6.79,16,10.06,24.11-11.13,11-22.21,22.12-33.42,33.07-1.88,1.82-1.82,2.74,0,4.56q34.34,34.26,68.47,68.71c1.74,1.75,2.62,2.08,4.54.13,11.34-11.51,22.85-22.87,34.3-34.28A211.9,211.9,0,0,0,200.54,413c0,16.16.06,32.33-.11,48.49,0,2.87.82,3.39,3.49,3.37,20.85-.11,41.7-.06,62.55-.06q17.2,0,34.42,0c1.39,0,3,.52,2.94-2-.14-17-.17-34-.23-51.05,8.81-3.07,17.26-7,25.78-10.79q18,18.12,35.9,36.28c1.45,1.48,2.22,1.06,3.43-.15q34.83-34.77,69.75-69.44c1.61-1.6,1.22-2.35-.15-3.72Q420.09,345.81,402,327.56C405.66,319.06,409.32,310.56,412.47,301.84Z"/><path class="cls-3" d="M402.42,173.54c3.74,8.23,7.19,16.58,10.17,25.11.17.72.3,1.44.51,2.14a173.35,173.35,0,0,1,5.44,73.38c-1.28,9.4-3.76,18.51-6.07,27.67-3.15,8.72-6.81,17.22-10.5,25.72-1.25.94-1.65,2.42-2.35,3.7a171.5,171.5,0,0,1-43.31,51.68c-8.44,6.84-17.74,12.34-26.93,18-8.52,3.77-17,7.72-25.78,10.79a181.86,181.86,0,0,1-49.77,8.44A179.55,179.55,0,0,1,200.54,413a211.9,211.9,0,0,1-27.42-11.09c-.42-.26-.83-.54-1.26-.77a170.54,170.54,0,0,1-59-50.38c-5-6.72-9-14.1-13.63-21C96,321.67,91.75,314,89.16,305.63c-.39-1.28-.93-2.53-1.4-3.8a177.89,177.89,0,0,1-7.93-55.42,181.16,181.16,0,0,1,7.72-47.7c3.2-9.89,7.59-19.3,11.83-28.77.94-1.44,2-2.83,2.82-4.33,11.39-20.15,26.6-37,44.77-51.17,8.18-6.4,17.23-11.45,26.15-16.7,9-4,18.1-7.74,27.42-10.93.72-.14,1.45-.22,2.15-.42A174.62,174.62,0,0,1,258.17,80a187.81,187.81,0,0,1,45.6,8.26,280.7,280.7,0,0,1,26.49,11.32,12.14,12.14,0,0,0,1.18.85,172.34,172.34,0,0,1,54,46.38A222.56,222.56,0,0,1,402.42,173.54ZM197.41,378l3,1.3c33.91,12.83,67.73,12.29,101.45-.74a4.21,4.21,0,0,0,2.54-2,6.29,6.29,0,0,0,3.9-.83q46.19-21.88,67.85-68.17c.83-1.77,1.81-3.54,1.33-5.63,1.89-.37,1.89-2.11,2.37-3.41a137.35,137.35,0,0,0,4.95-81c-1.54-6.53-3-13.19-6.57-19,.25-1.18-.36-2.15-.8-3.16-14-31.84-36.66-55.27-67.82-70.57-1.63-.8-3.32-1.6-5.22-.85-.62-1.86-2.21-2.42-3.84-3.06a137.29,137.29,0,0,0-76.23-7.09c-8.73,1.64-17.56,3.32-25.34,8.09-2.09-.24-3.83.76-5.61,1.57a137.87,137.87,0,0,0-53.58,42.49c-6.65,8.72-12.64,17.9-16.42,28.32-1.16,1.23-1.51,2.84-2,4.38-.31.67-.66,1.32-.92,2a136.51,136.51,0,0,0-8.69,59.86,125,125,0,0,0,9.85,41.49c.44,1.28.61,2.69,1.72,3.65a9.88,9.88,0,0,0,1.37,3.79,136.7,136.7,0,0,0,34.16,45C170.37,364.42,183,372.7,197.41,378Z"/><path class="cls-4" d="M412.47,301.84c2.31-9.16,4.79-18.27,6.07-27.67a173.35,173.35,0,0,0-5.44-73.38c-.21-.7-.34-1.42-.51-2.14,17,0,34.06,0,51.09-.09,2.41,0,3.07.63,3.07,3.06q-.12,48.69,0,97.38c0,2.17-.41,3-2.81,2.94C446.78,301.82,429.62,301.86,412.47,301.84Z"/><path class="cls-5" d="M329.38,401c9.19-5.69,18.49-11.19,26.93-18a171.5,171.5,0,0,0,43.31-51.68c.7-1.28,1.1-2.76,2.35-3.7q18.15,18.19,36.34,36.38c1.37,1.37,1.76,2.12.15,3.72q-34.95,34.63-69.75,69.44c-1.21,1.21-2,1.63-3.43.15Q347.4,419,329.38,401Z"/><path class="cls-5" d="M402.42,173.54a222.56,222.56,0,0,0-17-26.78,172.34,172.34,0,0,0-54-46.38,12.14,12.14,0,0,1-1.18-.85C342,87.86,353.73,76.21,365.38,64.47c1.65-1.66,2.51-2.22,4.5-.21q34.25,34.63,68.74,69c2,2,1.43,2.88-.22,4.51C426.36,149.64,414.41,161.6,402.42,173.54Z"/><path class="cls-4" d="M200.54,413a179.55,179.55,0,0,0,53.29,7.18,181.86,181.86,0,0,0,49.77-8.44c.06,17,.09,34,.23,51.05,0,2.52-1.55,2-2.94,2q-17.2,0-34.42,0c-20.85,0-41.7-.05-62.55.06-2.67,0-3.52-.5-3.49-3.37C200.6,445.35,200.53,429.18,200.54,413Z"/><path class="cls-4" d="M303.77,88.21A187.81,187.81,0,0,0,258.17,80a174.62,174.62,0,0,0-55.48,6.44c-.7.2-1.43.28-2.15.42,0-16,0-32.06-.09-48.09,0-2.33.49-3.11,3-3.1q48.65.14,97.29,0c2.34,0,3.13.51,3.11,3C303.73,55.16,303.78,71.68,303.77,88.21Z"/><path class="cls-5" d="M99.22,329.74c4.65,6.94,8.62,14.32,13.63,21a170.54,170.54,0,0,0,59,50.38c.43.23.84.51,1.26.77-11.45,11.41-23,22.77-34.3,34.28-1.92,2-2.8,1.62-4.54-.13q-34.14-34.45-68.47-68.71c-1.83-1.82-1.89-2.74,0-4.56C77,351.86,88.09,340.78,99.22,329.74Z"/><path class="cls-5" d="M173.12,97.74c-8.92,5.25-18,10.3-26.15,16.7-18.17,14.21-33.38,31-44.77,51.17-.85,1.5-1.88,2.89-2.82,4.33-11.16-11.18-22.29-22.4-33.54-33.51-1.58-1.56-1.27-2.29.13-3.68q34.83-34.57,69.55-69.27c1.21-1.2,2-1.74,3.49-.22C150.33,74.8,161.74,86.26,173.12,97.74Z"/><path class="cls-4" d="M87.55,198.71a181.16,181.16,0,0,0-7.72,47.7,177.89,177.89,0,0,0,7.93,55.42c-15.8,0-31.6,0-47.4.11-2.29,0-2.87-.61-2.87-2.88q.12-48.9,0-97.78c0-2,.5-2.72,2.64-2.71C56,198.69,71.75,198.68,87.55,198.71Z"/><path class="cls-4" d="M199,121.82c7.78-4.77,16.61-6.45,25.34-8.09a137.29,137.29,0,0,1,76.23,7.09c1.63.64,3.22,1.2,3.84,3.06a18.83,18.83,0,0,0-.69,5.45q0,30.53,0,61.06c0,8.24,0,8.25,8.28,8.24l66.23-.17c3.61,5.86,5,12.52,6.57,19a137.35,137.35,0,0,1-4.95,81c-.48,1.3-.48,3-2.37,3.41-23.3,0-46.61,0-69.92-.15-3.07,0-3.93.78-3.91,3.88.13,22.32.07,44.65.07,67,0,1.35-.13,2.72.68,3.93a4.21,4.21,0,0,1-2.54,2c-33.72,13-67.54,13.57-101.45.74,0-1.43-.06-2.87-.08-4.31,0-23.58.07-47.16.18-70.73,0-2.06-.83-2.45-2.65-2.45q-35.55.14-71.1.18l-5.14-.08a125,125,0,0,1-9.85-41.49,136.51,136.51,0,0,1,8.69-59.86c.26-.69.61-1.34.92-2l6.1-.1c23.45.05,46.9.05,70.36.21,3.08,0,2.63-1.73,2.63-3.56q0-33.88,0-67.77A9.11,9.11,0,0,0,199,121.82Zm142,90.6A43.15,43.15,0,0,0,310,208.83c-16.7,4.19-26.93,15.27-30.2,31.95-3.41,17.42.52,33,15.28,44.31,19.63,15.11,48.75,10,64.12-11.1,3.56-4.87,3.56-4.87-1.35-8a32.41,32.41,0,0,1-3.1-2c-1.59-1.31-2.51-1.14-3.65.72a33.48,33.48,0,0,1-13.93,12.9c-13.37,6.49-27.18,1-32.13-13a44,44,0,0,1,.07-29.78c4.07-11.66,15.37-16.78,26.11-12.21,6,2.55,10.33,6.93,13.62,12.56,1.37,2.33.31,6.42,3.26,7,2.49.47,5.4-1.28,8.13-2a12.71,12.71,0,0,1,1.76-.54c1.89-.26,2-1.19,1.52-2.86-2.52-8.5-4.89-17.05-7.38-25.56-.22-.74-.18-1.68-1.19-2.14C347.68,207.5,342.6,209.15,341.07,212.42ZM231.23,210H202.34c-6.4,0-6.19,0-6.48,6.37-.16,3.57.59,4.89,4.52,4.7,6.57-.33,7.49.83,7.5,7.41q0,23,0,45.93c0,1,0,2-.14,2.95-.27,2.9-1.76,4.3-4.78,4.51-7.09.49-7.08.59-7,7.68a1.53,1.53,0,0,1,0,.37c-.45,2.51.73,3,3.06,3,10.25-.12,20.5-.05,30.74-.05,8.23,0,8.12,0,8.07-8.34,0-2.34-.74-2.79-2.93-2.85-6.39-.2-8.2-2.24-8.26-8.68,0-3.83-.05-7.66-.07-11.48,0-5.22,0-5.22,5.35-5.17,6.15.07,8.48,1.82,9.46,7.09,1,5.7,1,5.7,6.75,5.72a14.28,14.28,0,0,1,1.85,0c1.82.23,2.29-.6,2.28-2.33-.06-11,0-22,0-33,0-.81.35-2.18-.63-2.26a33.47,33.47,0,0,0-8.83,0c-1.64.31-.84,2.78-1.15,4.25-1.4,6.49-5.67,9.6-12.32,8.91-1.61-.16-2.08-.74-2.06-2.28q.12-9.25.06-18.52c0-1.69.77-2.06,2.24-2.11,6.19-.17,12.36-.18,18.39,1.41a19.32,19.32,0,0,1,12.58,9.55c1.19,2.13.38,5.87,3.12,6.3,2.29.36,4.9-1.32,7.36-2.1a3.88,3.88,0,0,1,.69-.26c2.26-.24,2.36-1.3,1.68-3.28q-3.57-10.29-6.76-20.72c-.65-2.12-1.62-2.82-3.85-2.79C252.22,210.05,241.73,210,231.23,210Zm-74.68,41h-.13q0,13,0,25.93c0,3.29-1.54,4.86-5,5-6.14.24-6.13.38-6.12,6.71a10.43,10.43,0,0,1,0,1.48c-.4,2.4.76,2.83,2.93,2.81,11-.1,22-.05,33-.05,7.62,0,7.5,0,7.59-7.72,0-2.61-.7-3.61-3.29-3.23a12.47,12.47,0,0,1-2.59,0c-4.22-.23-5.32-1.17-5.34-5.36-.06-16.8,0-33.59,0-50.39,0-3.28,1.46-5,4.86-5.18,6.33-.39,6.32-.47,6.32-6.74a2.28,2.28,0,0,1,0-.37c.52-3-.47-4-3.7-3.93-11,.22-22,.08-33,.08-6.77,0-6.58,0-6.84,6.78-.13,3.37.78,4.39,4.22,4.26,6.2-.24,7,.68,7.07,7C156.62,235.66,156.55,243.32,156.55,251Z"/><path class="cls-5" d="M199,121.82a9.11,9.11,0,0,1,1.52,5.54q-.06,33.88,0,67.77c0,1.83.45,3.59-2.63,3.56-23.46-.16-46.91-.16-70.36-.21l-4.11-4.28c3.78-10.42,9.77-19.6,16.42-28.32a137.87,137.87,0,0,1,53.58-42.49C195.19,122.58,196.93,121.58,199,121.82Z"/><path class="cls-5" d="M126.8,302q35.55-.07,71.1-.18c1.82,0,2.66.39,2.65,2.45-.11,23.57-.13,47.15-.18,70.73l-3,3c-14.4-5.33-27-13.61-38.5-23.63a136.7,136.7,0,0,1-34.16-45,9.88,9.88,0,0,1-1.37-3.79Z"/><path class="cls-5" d="M378.27,198.46l-66.23.17c-8.28,0-8.28,0-8.28-8.24q0-30.52,0-61.06a18.83,18.83,0,0,1,.69-5.45c1.9-.75,3.59.05,5.22.85,31.16,15.3,53.87,38.73,67.82,70.57C377.91,196.31,378.52,197.28,378.27,198.46Z"/><path class="cls-5" d="M304.44,376.58c-.81-1.21-.68-2.58-.68-3.93,0-22.32.06-44.65-.07-67,0-3.1.84-3.9,3.91-3.88,23.31.15,46.62.12,69.92.15.48,2.09-.5,3.86-1.33,5.63q-21.7,46.23-67.85,68.17A6.29,6.29,0,0,1,304.44,376.58Z"/><path class="cls-2" d="M123.41,194.2l4.11,4.28-6.1.1C121.9,197,122.25,195.43,123.41,194.2Z"/><path class="cls-2" d="M126.8,302l-3.42,3.57c-1.11-1-1.28-2.37-1.72-3.65Z"/><path class="cls-2" d="M197.41,378l3-3c0,1.44,0,2.88.08,4.31Z"/><path class="cls-2" d="M341.07,212.42c1.53-3.27,6.61-4.92,9.88-3.44,1,.46,1,1.4,1.19,2.14,2.49,8.51,4.86,17.06,7.38,25.56.49,1.67.37,2.6-1.52,2.86a12.71,12.71,0,0,0-1.76.54c-2.73.77-5.64,2.52-8.13,2-2.95-.55-1.89-4.64-3.26-7-3.29-5.63-7.61-10-13.62-12.56-10.74-4.57-22,.55-26.11,12.21a44,44,0,0,0-.07,29.78c4.95,14,18.76,19.46,32.13,13a33.48,33.48,0,0,0,13.93-12.9c1.14-1.86,2.06-2,3.65-.72a32.41,32.41,0,0,0,3.1,2c4.91,3.15,4.91,3.15,1.35,8-15.37,21.1-44.49,26.21-64.12,11.1-14.76-11.35-18.69-26.89-15.28-44.31,3.27-16.68,13.5-27.76,30.2-31.95A43.15,43.15,0,0,1,341.07,212.42Z"/><path class="cls-2" d="M231.23,210c10.5,0,21,.08,31.49-.05,2.23,0,3.2.67,3.85,2.79q3.18,10.42,6.76,20.72c.68,2,.58,3-1.68,3.28a3.88,3.88,0,0,0-.69.26c-2.46.78-5.07,2.46-7.36,2.1-2.74-.43-1.93-4.17-3.12-6.3a19.32,19.32,0,0,0-12.58-9.55c-6-1.59-12.2-1.58-18.39-1.41-1.47.05-2.26.42-2.24,2.11q.07,9.27-.06,18.52c0,1.54.45,2.12,2.06,2.28,6.65.69,10.92-2.42,12.32-8.91.31-1.47-.49-3.94,1.15-4.25a33.47,33.47,0,0,1,8.83,0c1,.08.63,1.45.63,2.26,0,11,0,22,0,33,0,1.73-.46,2.56-2.28,2.33a14.28,14.28,0,0,0-1.85,0c-5.7,0-5.7,0-6.75-5.72-1-5.27-3.31-7-9.46-7.09-5.38-.05-5.38-.05-5.35,5.17,0,3.82,0,7.65.07,11.48.06,6.44,1.87,8.48,8.26,8.68,2.19.06,2.91.51,2.93,2.85.05,8.34.16,8.34-8.07,8.34-10.24,0-20.49-.07-30.74.05-2.33,0-3.51-.49-3.06-3a1.53,1.53,0,0,0,0-.37c-.05-7.09-.06-7.19,7-7.68,3-.21,4.51-1.61,4.78-4.51.09-1,.14-2,.14-2.95q0-23,0-45.93c0-6.58-.93-7.74-7.5-7.41-3.93.19-4.68-1.13-4.52-4.7.29-6.36.08-6.37,6.48-6.37Z"/><path class="cls-2" d="M156.55,251c0-7.65.07-15.31,0-23-.07-6.32-.87-7.24-7.07-7-3.44.13-4.35-.89-4.22-4.26.26-6.77.07-6.78,6.84-6.78,11,0,22,.14,33-.08,3.23-.07,4.22,1,3.7,3.93a2.28,2.28,0,0,0,0,.37c0,6.27,0,6.35-6.32,6.74-3.4.21-4.86,1.9-4.86,5.18,0,16.8,0,33.59,0,50.39,0,4.19,1.12,5.13,5.34,5.36a12.47,12.47,0,0,0,2.59,0c2.59-.38,3.32.62,3.29,3.23-.09,7.72,0,7.72-7.59,7.72-11,0-22,0-33,.05-2.17,0-3.33-.41-2.93-2.81a10.43,10.43,0,0,0,0-1.48c0-6.33,0-6.47,6.12-6.71,3.44-.13,5-1.7,5-5q0-13,0-25.93Z"/></svg>