<svg xmlns="http://www.w3.org/2000/svg" width="244.582" height="300" viewBox="0 0 247.807 303.956"><title>Araxá Esporte Clube</title><path fill="#FFF" d="M122.84,2.339c35.697,46.288,79.267,50.571,123.49,51.384,2.234,101.29-39.648,200.33-122.4,248.62-84.396-50.69-123.53-143.58-122.52-248.62,42.747-0.062,90.238-7.3,121.43-51.385z"/><path fill="none" stroke="#000" stroke-width="2.7812" d="M122.84,2.339c35.697,46.288,79.267,50.571,123.49,51.384,2.234,101.29-39.648,200.33-122.4,248.62-84.396-50.69-123.53-143.58-122.52-248.62,42.747-0.062,90.238-7.3,121.43-51.385z"/><path d="m14.967,120.89c6.311,34.37,15.957,65.747,32.94,93.44v-93.44zm43.918,0,0,109.97c9.599,13.27,20.398,25.543,32.269,36.753v-146.72zm43.152,0,0,156.35c6.838,5.779,13.948,11.285,21.386,16.39,7.34-4.688,14.415-9.892,21.246-15.526v-157.22zm53.657,0,0,147.54c11.767-11.056,22.59-23.543,32.269-37.233v-110.31zm43.245,0,0,93.44c16.504-27.602,27.929-59.226,34.363-93.44z"/><path d="M68.081,101.13h-14.779l-2.034,7.27h-13.261l15.782-44.044h14.148l15.782,44.044h-13.577l-2.061-7.27zm-2.721-9.522l-4.64-15.833-4.611,15.833h9.251z"/><polygon points="103.85,64.35,137.16,64.35,137.16,73.763,116.3,73.763,116.3,80.77,135.65,80.77,135.65,89.763,116.3,89.763,116.3,98.454,137.76,98.454,137.76,108.44,103.85,108.44,103.85,64.35"/><path d="M187.92,90.272l11.146,3.609c-0.749,3.349-1.928,6.146-3.538,8.391-1.608,2.245-3.606,3.939-5.994,5.083-2.386,1.143-5.423,1.714-9.109,1.714-4.474,0-8.129-0.697-10.964-2.09-2.836-1.393-5.283-3.844-7.342-7.353-2.06-3.509-3.089-8-3.089-13.474,0-7.298,1.812-12.907,5.434-16.827,3.621-3.919,8.745-5.879,15.371-5.879,5.184,0,9.26,1.123,12.227,3.368,2.966,2.246,5.17,5.694,6.612,10.347l-11.23,2.676c-0.394-1.342-0.805-2.325-1.235-2.947-0.712-1.043-1.582-1.845-2.611-2.406-1.029-0.562-2.18-0.842-3.453-0.842-2.883,0-5.092,1.243-6.627,3.729-1.159,1.844-1.74,4.741-1.74,8.691,0,4.892,0.693,8.246,2.078,10.06s3.332,2.722,5.84,2.722c2.434,0,4.272-0.731,5.518-2.195,1.22-1.455,2.13-3.58,2.69-6.368z"/></svg>