<?xml version="1.0" encoding="utf-8" ?><svg xmlns="http://www.w3.org/2000/svg" xmlns:xlink="http://www.w3.org/1999/xlink" width="1243" height="1493" viewBox="0 0 1243 1493"><path fill="#020203" d="M736.056 51.2911C741.578 50.8391 754.666 51.1814 754.293 58.4628C751.805 107.062 735.002 158.793 725.684 206.455C720.545 232.742 694.668 229.861 673.447 233.53L654.869 236.542C658.082 216.851 663.559 193.353 667.684 173.373L691.813 56.6057C706.547 54.9935 721.408 53.5055 736.056 51.2911ZM695.552 207.51C696.463 206.62 698.51 204.685 698.722 203.467C700.729 191.932 703.124 180.483 705.527 169.027L724.59 78.6344C722.326 75.7995 718.922 76.5768 715.527 76.7126L695.627 173.262C694.737 177.582 688.635 206.014 688.73 208.387C690.942 209.253 693.269 208.411 695.552 207.51Z"/><path fill="#020203" d="M76.226 134.383C104.799 133.107 102.925 146.328 97.5436 169.717C93.3138 188.102 93.5613 204.472 76.0611 214.963C89.9985 225.256 82.1027 247.338 78.7743 262.132C70.0332 300.982 70.3442 308.395 31.1735 315.252C21.1037 317.044 11.0208 318.761 0.925562 320.403L38.1378 140.475C50.8061 138.275 63.5033 136.244 76.226 134.383ZM40.5322 291.633C48.8801 282.931 52.56 249.695 55.4452 237.085C55.571 236.535 55.2444 234.737 55.135 234.153C52.8238 232.441 51.4821 232.591 48.2632 232.533C44.9593 246.699 36.9272 278.393 35.076 291.923L36.011 292.687C37.6406 292.426 39.0312 292.317 40.5322 291.633ZM56.0909 206.827C59.6101 204.662 61.9759 203.786 62.8757 199.83C65.5752 187.959 67.0353 174.011 70.9409 162.595L70.3984 160.823C68.5713 159.858 69.4297 159.891 67.6951 160.016C65.1562 160.308 63.566 160.039 61.8612 161.454C60.2456 166.627 52.2697 203.842 53.1677 206.623C54.799 206.903 54.4886 206.968 56.0909 206.827Z"/><path fill="#020203" d="M351.863 100.928C363.668 101.151 370.938 103.279 369.555 117.832C368.787 125.908 367.385 132.919 365.395 140.85C361.53 156.25 360.171 169.706 347.354 180.624L346.592 181.266C347.704 183.457 353.088 190.112 352.807 192.853C350.473 213.126 346.224 234.517 341.448 254.456C335.636 278.721 312.992 280.176 292.603 282.581C285.166 283.618 277.707 284.499 270.233 285.224L307.37 105.337C322.149 103.931 337.045 101.678 351.863 100.928ZM310.979 256.12C311.922 254.752 313.889 251.772 314.211 250.252C316.874 237.699 322.872 212.16 323.386 200.434C321.77 197.049 318.946 197.7 315.518 197.623C311.94 215.946 306.829 238.743 304.248 256.882L305.08 257.602C307.937 257.395 308.334 257.248 310.979 256.12ZM328.013 170.669C334.223 162.868 334.698 150.04 336.907 140.476C337.947 135.978 339.402 129.547 337.668 125.864C337.386 125.265 331.798 125.335 331.192 125.326C329.265 134.388 322.541 163.058 321.934 170.814C323.847 172.055 325.903 171.357 328.013 170.669Z"/><path fill="#020203" d="M507.608 79.7306C543.886 76.3015 527.565 110.493 523.851 131.966C520.725 150.047 519.063 158.963 503.668 169.772C511.605 173.427 513.234 176.554 512.402 185.573C511.645 193.789 509.467 202.437 507.846 210.579C504.789 225.778 501.834 240.997 498.98 256.235C489.077 257.264 479.388 258.85 469.35 259.773L478.016 217.055C479.739 208.745 486.711 190.54 478.343 184.964L476.088 185.714C475.734 186.56 475.427 187.421 475.105 188.28C469.696 212.484 465.052 237.547 459.86 261.923C450.65 262.86 439.649 263.291 430.281 263.902L467.482 85.8229C480.867 83.8354 494.17 81.4415 507.608 79.7306ZM486.402 159.017C487.929 157.747 489.939 155.888 490.618 154.048C492.842 148.021 501.36 108.778 499.454 105.763C496.924 105.052 496.782 105.001 494.175 104.871C492.195 107.9 482.665 153.024 481.874 159.127C483.644 160.149 483.683 159.613 486.402 159.017Z"/><path fill="#020203" d="M808.967 41.0703C812.301 40.4969 816.619 40.4697 819.993 40.5798C834.551 40.6246 836.39 50.772 834.469 63.1938C831.676 81.2581 829.588 102.568 821.148 118.994C819.064 123.05 813.265 128.042 809.933 130.79C816.899 134.777 818.177 136.739 817.184 145.007C816.159 153.541 814.127 161.99 812.478 170.435L803.304 217.015C794.076 218.566 783.237 219.721 773.848 220.954C774.943 213.498 778.091 201.558 779.064 194.769C779.879 189.082 789.02 150.786 788.16 148.808C786.309 147.011 784.322 147.039 781.673 146.598C781.318 146.681 780.118 147.421 780.079 147.589C774.298 172.168 769.567 198.364 764.249 222.942C755.064 223.678 745.866 224.256 736.661 224.675C749.045 166.549 760.444 104.448 773.888 46.9388C785.559 44.8516 797.252 42.8954 808.967 41.0703ZM790.424 120.754C795.083 117.024 797.269 110.573 798.278 104.881C799.812 96.2177 807.228 75.0137 804.278 67.0914C802.551 65.8428 801.207 66.0947 799.04 66.0694C798.144 66.8588 797.502 67.436 797.183 68.7784C793.16 85.7501 789.607 103.12 786.286 120.23C786.291 120.424 786.297 120.618 786.303 120.812C787.841 120.888 788.883 121.007 790.424 120.754Z"/><path fill="#020203" d="M1056.02 10.4622C1057.88 10.1525 1058.13 10.1797 1060.04 10.2556C1061.47 14.0851 1027.82 170.597 1023.85 189.786L994.235 193.579C1000.29 164.628 1006.08 134.869 1011.67 105.809L1002.28 105.889C997.968 131.533 991.702 157.329 987.056 182.956C986.503 186.006 985.858 192.324 983.405 193.748C974.149 195.22 964.446 196.311 955.117 197.486C959.699 177.932 963.768 155.912 967.857 136.099L992.259 17.7268C1001.83 16.1768 1012.21 14.9504 1021.88 13.6356C1018.57 34.6403 1012.64 60.5774 1008.42 81.8626L1017.76 82.0321L1031.27 13.8083C1038.6 12.4673 1048.46 11.4597 1056.02 10.4622Z"/><path fill="#020203" d="M672.513 59.2865C675.187 58.9198 674.134 58.5616 675.972 59.6729C676.371 62.6271 667.399 103.203 666.1 109.463L639.494 238.452C632.024 239.422 621.523 239.862 613.798 240.419C614.317 220.366 615.733 199.943 616.398 179.863C616.738 169.569 617.646 159.072 617.322 148.791C614.706 156.889 612.347 172.15 610.626 180.786C606.412 201.927 602.814 223.345 598.364 244.438C593.381 244.853 588.396 245.231 583.407 245.574C579.87 245.699 576.273 246.08 572.741 246.396C584.069 187.794 597.192 124.707 609.94 66.4067C618.467 65.8237 627.08 65.0717 635.608 64.3915L634.22 121.417C634 131.391 633.344 144.834 634.004 154.586C636.675 144.995 638.973 131.592 640.958 121.638C644.834 101.851 648.817 82.0852 652.908 62.3415C659.385 61.4217 666.033 60.2996 672.513 59.2865Z"/><path fill="#020203" d="M436.396 88.469L439.237 88.3225C441.18 91.2997 438.621 102.946 438.117 107.043L433.516 145.17L418.964 265.813C410.063 267.33 400.141 268.515 391.13 269.784C393.298 258.625 395.476 243.833 396.927 232.566L385.735 232.71L377.73 259.493L374.034 271.649C365.294 273.173 355.266 274.323 346.391 275.541C363.566 215.311 382.957 153.697 401.04 93.6132C412.836 91.9772 424.622 90.2624 436.396 88.469ZM392.422 208.641L401.127 206.835C402.129 199.595 411.585 138.788 410.811 136.108C408.811 143.677 391.841 205.839 392.422 208.641Z"/><path fill="#020203" d="M956.485 21.3941C965.715 21.1596 966.213 21.2601 974.395 25.5281C977.69 34.2287 976.804 36.7932 975.026 45.8818C972.739 57.5697 970.004 69.0446 967.172 80.6097C958.082 81.5453 949.069 83.2326 939.724 84.1097C940.928 76.6052 947.606 52.4051 943.446 47.4917C935.027 47.6674 931.443 76.5 929.832 84.1272L917.624 141.874C915.509 151.86 912.754 163.648 910.771 173.7C910.399 175.583 911.541 177.853 912.988 179.341C915.64 180.295 914.371 180.275 916.908 179.691C920.633 176.733 921.624 165.288 922.683 160.215L929.894 126.996C936.515 125.831 944.549 124.96 951.313 124.079C953.963 123.69 956.672 123.441 959.339 123.161C957.529 135.691 954.484 149.926 951.814 162.383C950.668 166.598 949.048 170.794 947.804 174.966C945.647 182.2 945.478 188.704 939.427 193.992C925.05 206.555 904.548 205.65 886.756 205.254L881.278 199.434C881.211 193.904 880.88 184.394 881.818 179.251C885.776 157.535 890.804 135.76 895.376 114.142C899.906 92.7238 904.36 71.1755 909.232 49.8468C909.783 47.4363 912.563 39.5594 913.971 37.5876C925.611 21.2841 940.698 25.0603 956.485 21.3941Z"/><path fill="#020203" d="M183.601 121.333L184.306 122.091C182.971 128.373 179.802 137.309 177.783 143.746L166.223 180.843L128.13 303.015L94.6002 306.756C99.9117 266.485 103.618 224.184 108.362 183.599C109.556 167.12 112.369 147.695 114.084 130.793L141.789 126.956C136.95 162.157 129.946 197.626 124.788 232.83C124.312 236.075 122.081 244.035 123.824 246.825C125.322 244.593 131.698 218.985 132.783 214.97L157.155 124.887C165.962 123.64 174.778 122.455 183.601 121.333Z"/><path fill="#020203" d="M253.517 111.845C255.539 111.494 254.671 111.253 256.263 112.116C256.503 117.74 207.278 276.902 202.262 293.197L168.937 298.995C171.95 260.689 177.819 216.58 182.084 178.027C183.746 159.437 186.262 139.725 188.31 121.078C197.269 119.58 207.04 118.374 216.091 117.077L202.677 199.863C201.131 209.435 196.6 234.028 196.814 242.25C200.909 228.85 204.75 211.951 208.249 198.161L229.357 115.209C237.393 113.97 245.448 112.849 253.517 111.845Z"/><path fill="#020203" d="M900.238 29.5168C900.949 32.5787 896.069 49.5278 894.773 53.2921L879.601 55.1267C876.098 68.6583 872.68 87.5752 869.918 101.559C875.391 100.695 881.63 100.214 887.194 99.6598C885.621 107.264 883.264 115.912 881.367 123.532C875.518 124.043 869.682 124.687 863.862 125.465L852.252 187.412C857.508 186.571 862.616 186.114 867.904 185.598L863.754 209.299L850.534 210.953L816.723 215.121C821.219 190.974 826.814 165.717 831.8 141.537L853.827 35.2257C868.65 33.0222 885.325 31.0941 900.238 29.5168Z"/><path fill="#020203" d="M593.125 68.852L595.232 68.6828L595.86 69.6681C595.564 74.805 592.14 86.6554 590.681 92.3004C585.009 92.7002 578.709 93.5525 573.009 94.1979C570.172 109.372 566.648 125.192 563.507 140.362C569.204 139.911 575.098 139.204 580.797 138.598C579.86 146.182 578.255 154.84 577.014 162.466L559.579 164.317C554.654 183.541 550.219 206.62 545.961 226.262C551.791 225.744 557.609 225.106 563.412 224.348L559.457 248.345L549.646 249.538C537.41 251.076 524.415 252.931 512.184 253.935C516.688 235.722 520.785 212.557 524.634 193.901L549.397 74.1027C563.962 72.2582 578.538 70.5079 593.125 68.852Z"/><path fill="#020203" d="M515.262 335.127C520.433 335.919 529.262 337.089 534.38 336.54C534.629 335.111 534.243 335.18 533.211 333.538C543.505 333.665 558.672 340.727 565.925 340.069C579.907 338.8 596.639 336.039 610.822 334.118L712.269 320.259L956.127 286.83C997.88 281.107 1041.67 274.411 1083.39 269.498C1163.22 359.861 1216.11 461.951 1233.85 582.169C1235.99 596.646 1237.57 611.201 1238.59 625.799C1239.28 635.651 1238.92 668.274 1241.37 674.759C1243.69 680.934 1240.98 711.079 1240.31 719.487C1232.93 811.603 1217.89 889.24 1177.04 973.117C1147.25 1034.42 1107.37 1090.28 1059.04 1138.34C1072.11 1168.77 1074.81 1202.52 1062.5 1233.73C1051.36 1261.6 1029.54 1283.85 1001.9 1295.53C974.016 1307.43 942.538 1307.72 914.448 1296.32C897.771 1289.45 884.316 1279.48 872.127 1266.34C762.818 1313.61 639.596 1337.21 520.536 1325.89C527.29 1345.01 539.923 1372.89 516.594 1386.21C508.034 1391.1 495.839 1381.04 490.134 1375.46L489.205 1375.98C486.111 1377.68 480.813 1378.76 479.32 1380.15C481.773 1386.41 485.988 1395.35 483.409 1401.83C478.424 1406.09 471.762 1400.48 467.459 1397.17C467.499 1404.25 468.198 1416.56 465.805 1422.85L464.964 1423.05C462.588 1417.7 463.281 1404.49 463.378 1398.2C458.842 1406.46 451.356 1419.07 447.681 1427.4C440.025 1444.73 432.43 1474.21 419.029 1488.21C401.124 1494 393.549 1494.36 391.015 1473.42L380.249 1473.21L382.983 1451.52L392.776 1451.45C392.988 1447.98 393.133 1443.65 393.632 1440.3L384.639 1437.88L387.383 1416.89C391.897 1416.68 397.044 1416.93 397.051 1410.74C394.4 1407.05 393.827 1407.82 389.272 1407.93L389.301 1386.35L397.891 1386.33L397.183 1344.88L387.05 1344.89C387.038 1339.35 386.713 1325.59 387.406 1320.73L388.394 1320.79C391.836 1321 393.46 1321.52 395.977 1319.31L395.221 1318.24C392.31 1317.35 389.994 1318.4 386.94 1319.23C387.163 1313.67 387.044 1307.28 387.077 1301.66C390.887 1300.77 394.666 1301.09 395.27 1296.84C392.289 1291.84 369.89 1283.93 363.428 1280.6C169.765 1180.97 64.5594 959.936 20.3166 755.279C13.942 725.616 8.80592 695.7 4.92188 665.61C3.16401 652.022 2.7277 634.338 0 621.528L0 617.511C6.31367 613.754 28.4907 599.859 33.8764 598.88C48.0128 596.311 66.4472 594.191 80.9742 592.228L182.656 578.489L521.028 532.75C521.085 543.262 521.085 553.774 521.028 564.286C515.443 570.265 504.87 585.137 499.689 592.032L189.548 634.732C149.799 640.214 107.576 646.75 67.9047 651.342C76.393 728.06 93.9758 803.497 120.283 876.062C168.623 1009.22 250.664 1140.77 377.798 1210.73C387.939 1216.31 398.206 1221.18 408.685 1226.08C411.62 1224.06 414.392 1222.96 414.545 1219.16L413.134 1218.6C410.263 1219.25 408.531 1221.68 406.38 1223.93C401.858 1217.93 397.272 1211.25 392.887 1205.09L399.907 1197.87C400.407 1186.65 402.362 1169.98 411.787 1162.77C419.051 1157.21 430.141 1155.3 438.715 1150.01C449.21 1143.53 458.542 1136.06 469.171 1129.99C473.221 1127.68 475.946 1129.61 479.889 1130.96C486.629 1129.42 501.314 1100 504.041 1092.12C506.365 1087.06 506.896 1080.73 510.013 1076.14C527.225 1050.77 537.438 1016.87 561.134 996.545C562.168 993.427 561.857 994.416 561.165 990.806L561.828 990.187L566.708 994.868C573.941 987.908 580.557 983.476 588.59 977.657C594.837 973.132 591.961 972.572 600.541 972.306L600.92 971.921C611.094 961.752 613.606 966.669 626.142 958.447C617.737 947.809 609.505 937.035 601.451 926.128C587.754 929.104 586.315 927.69 573.145 923.561C568.048 921.963 561.831 922.541 555.814 920.092C545.671 915.963 540.317 906.227 538.054 895.921C534.783 868.61 543.233 838.235 543.275 810.727C543.279 807.76 543.717 799.128 543.199 796.607C541.677 788.407 538.943 780.535 538.377 772.169C537.912 768.487 538.328 764.915 538.382 761.248C538.441 757.242 539.464 753.718 537.571 750.057C540.319 746.007 562.53 723.445 567.564 719.948C573.28 716.758 584.458 713.703 589.263 709.704C600.684 700.201 609.95 692.976 623.214 685.938C628.044 664.808 643.874 654.611 662.88 646.564C663.162 637.525 664.266 628.069 665.178 619.029L660.823 614.408L661.505 613.758C663.954 613.795 665.677 614.109 667.77 612.926C679.825 598.703 689.445 571.515 700.103 555.181C706.755 544.988 707.294 521.279 708.896 508.677C710.357 507.83 713.34 508.153 715.212 508.192L716.084 507.987C711.34 498.511 682.461 487.411 671.984 483.717C656.123 478.123 639.258 477.524 622.932 472.453C598.875 464.98 579.498 454.706 557.909 442.26C555.343 440.781 541.165 437.584 537.415 436.62C528.272 434.312 519.224 431.641 510.294 428.612C498.365 424.548 488.23 418.958 476.781 413.914C472.217 411.903 464.484 411.613 459.64 409.873C447.39 405.475 431.073 401.673 427.637 387.484C408.504 389.107 392.691 398.544 375.112 405.102C367.277 408.025 360.363 410.816 360.027 399.654C359.966 397.908 359.963 396.162 360.018 394.416C369.903 380.474 389.984 376.724 401.229 358.147L400.98 357.599C391.132 359.45 375.558 362.962 367.015 367.471C361.697 385.773 354.304 384.94 347.166 396.4C338.209 410.782 331.857 415.729 320.187 398.493C315.471 391.527 336.565 353.476 338.635 343.817C339.819 338.294 365.046 326.436 369.51 323.33C384.097 312.815 393.045 313.436 409.503 311.367L409.644 310.641C409.825 309.763 409.929 309.387 410.196 308.554C413.718 309.736 417.122 313.185 419.567 314.037C425.422 316.078 434.602 318.095 440.662 319.084C453.014 296.814 471.331 306.384 488.735 316.502C497.62 321.667 507.52 328.389 515.262 335.127ZM602.988 1228.8C588.935 1238.99 575.237 1249.67 561.919 1260.8C646.53 1261.67 731.141 1250.18 810.488 1219.67C821.667 1215.39 831.948 1211.18 842.973 1206.62C833.188 1144.67 881.329 1084.07 942.32 1074.82C968.833 1070.79 996.118 1078.99 1018.48 1093.1C1075.91 1038.78 1124.34 976.767 1156.24 903.932C1152.46 896.644 1136.47 870.727 1128.84 868.476C1125.15 875.221 1155.77 930.186 1123.63 917.392C1124.47 912.291 1123.95 912.858 1120.59 907.944C1114.2 898.606 1105.79 891.01 1098.87 882.106C1096.15 878.597 1093.06 867.49 1091.21 865.931C1070.66 869.129 1068.13 832.597 1061.84 824.22C1048.12 805.947 1035.6 792.485 1024.15 772.11C1025.26 768.844 1027.73 762.633 1025.38 759.754C1016.14 748.434 1000.41 747.52 1009.91 728.607C1009.2 727.999 1003.26 722.982 1002.92 722.876C994.602 720.278 950.646 674.414 949.548 674.144C948.093 675.16 917.362 695.254 917.406 695.179C903.4 718.935 879.313 743.027 859.939 763.369C855.087 768.464 851.427 783.173 849.227 789.955C846.229 800.567 837.087 811.592 829.047 818.535C825.727 821.402 813.712 823.251 818.561 830.622C826.497 842.687 815.675 851.55 810.083 862.471C806.18 870.092 803.749 881.351 802.714 890.085C799.937 908.687 818.106 914.813 791.182 920.107C791.132 956.546 786.472 993.07 773.221 1027.17C765.806 1046.26 757.198 1064.96 749.686 1084.61C742.208 1099.82 737.125 1124.27 724.923 1136.16C713.242 1147.54 699.909 1150.08 686.403 1160.88C672.022 1172.37 674.845 1180.5 662.955 1190.02C663.107 1191.47 663.09 1191.28 663.492 1192.66C659.223 1199.92 643.319 1215.92 635.888 1220.84C628.508 1225.72 611.864 1228.68 602.988 1228.8ZM473.69 1379.73C471.599 1383.42 469.021 1387.72 467.116 1391.44C470.166 1393.75 473.441 1396.35 476.634 1398.37L479.037 1398.89C482.045 1395.58 476.219 1382.1 473.69 1379.73ZM1157.22 818.466C1158.41 822.587 1159.57 826.414 1160.08 830.699C1161.41 841.794 1169.13 851.443 1173.31 862.094C1179.71 842.727 1185.33 824.478 1190.23 804.577C1196.86 777.58 1200.22 751.779 1203.14 724.268C1208.48 673.788 1198.76 623.12 1185.69 574.453C1176.58 540.535 1163.3 505.751 1147.88 474.126C1127.25 433.427 1101.14 394.302 1075.71 356.495C1073.79 353.641 1064.18 338.683 1061.91 337.746L1061.26 337.801L1045.22 340.047C1059.87 363.461 1076.04 374.247 1069.15 406.01C1066.06 420.269 1061.42 421.072 1057.59 430.903C1051.13 447.505 1057.26 458.746 1037.78 470.479C1025.54 477.843 1009.3 479.102 1000.7 490.665C997.409 495.001 995.986 498.514 993.197 502.549C1036.2 537.599 1054.29 583.44 1064.17 637.134C1065.16 642.515 1066.21 659.195 1068.61 662.55C1069.19 662.186 1070.94 660.784 1071.47 661.23C1101.69 686.734 1099.26 727.278 1117.95 759.389C1122.59 767.364 1128.59 772.32 1134.74 778.923C1144.72 790.026 1152.28 804.509 1157.22 818.466ZM810.308 395.182C815.475 398.095 822.536 402.13 826.89 405.974C839.047 416.707 845.848 425.755 861.867 431.799L862.058 430.784C864.886 414.936 858.228 393.536 875.465 383.051C880.902 379.744 894.047 370.107 892.731 362.647C853.432 368.192 810.275 375.832 771.317 380.306C784.301 383.403 798.72 388.476 810.308 395.182Z"/><path fill="#FEFEFE" d="M502.171 333.199C526.543 351.378 528.781 337.688 552.369 344.025C582.361 352.082 612.872 372.595 636.749 391.823C640.391 391.064 644.05 390.394 647.724 389.814C671.626 386.194 696.204 385.869 720.318 385.09C735.915 384.587 746.482 382.492 762.478 385.229C781.354 388.458 794.604 393.804 810.991 402.968C825.912 411.311 830.369 419.691 843.349 429.277C822.709 451.883 832.57 483.078 840.051 509.124C841.792 515.184 846.576 522.007 849.167 528.134C855.393 542.859 864.312 561.529 859.427 577.617C858.841 579.341 858.569 579.316 858.677 581.266C860.183 582.501 860.973 583.249 863.351 582.589C870.17 580.537 876.429 577.155 883.191 574.708C897.87 569.346 914.514 572.719 929.015 567.554C952.642 559.138 971.984 539.417 982.358 516.853C983.853 513.6 984.13 510.906 986.525 508.143C991.773 506.775 1005.3 522.081 1009.2 526.493C1035.57 556.35 1049.76 595.047 1056.94 633.74C1058.93 644.462 1061.14 678.282 1071.92 682.218L1073.25 681.495C1074.55 675.914 1072.27 673.289 1069.44 668.244C1102.14 699.457 1092.37 751.165 1127.63 780.758C1131.17 783.731 1135.12 789.655 1137.64 793.544C1106.3 784.936 1086.15 795.323 1069.38 822.212C1062.41 814.406 1032.43 779.505 1031.97 769.834L1032.88 769.437C1035.37 770.656 1036.34 773.096 1037.84 775.606L1041.53 773.462C1047.2 759.956 1004.79 743.864 1015.07 732.197C1021.11 733.739 1033.61 746.569 1040.12 744.944C1041.68 743.063 1041.22 743.847 1041.44 741.036C1039.36 739.186 1019.24 726.735 1014.21 723.158C992.643 707.783 972.972 689.911 955.604 669.915L979.3 652.403L975.505 647.266C958.232 660.048 941.67 672.259 923.457 683.795C915.344 688.935 906.043 692.528 898.697 697.328C898.414 699.118 898.75 699.52 899.36 701.238C902.211 703.119 900.805 701.549 904.616 702.119C902.63 706.216 894.596 715.713 891.422 719.421C871.972 742.145 849.383 767.981 823.471 783.422C821.036 784.873 820.689 785.716 820.126 788.083C820.799 789.894 820.726 790.279 822.307 791.371C828.724 789.611 841.349 779.047 846.963 774.502C841.101 789.634 840.242 802.266 825.184 813.244C820.67 816.536 818.749 816.239 813.629 816.573C812.56 818.095 811.601 826.499 811.231 828.96C797.854 826.122 779.394 819.062 771.683 806.861C762.965 793.065 722.524 733.376 704.09 740.361C703.642 742.559 704.345 742.558 706.002 745.192C724.515 752.967 739.968 772.952 751.759 788.954C738.77 788.919 730.612 785.835 718.765 780.036C713.651 777.532 699.815 769.908 696.159 766.089C685.425 754.874 675.762 736.448 666.908 723.341C664.597 719.919 659.815 710.059 657.79 707.813C650.949 700.227 638.231 691.298 629.978 685.315C630.239 684.261 630.534 683.215 630.864 682.181C635.309 668.421 649.791 660.07 661.831 653.964L667.202 668.814C677.435 664.305 669.601 661.021 669.364 651.211C669.101 640.353 670.55 629.578 671.634 618.779C680.685 607.647 706.876 558.262 710.535 545.177C713.927 533.045 714.467 520.687 715.212 508.192L716.084 507.987C719.635 511.108 725.558 520.355 728.125 524.574C733.584 533.509 738.387 542.829 742.496 552.46C745.47 559.55 747.531 566.977 750.417 573.953C758.246 592.776 771.502 608.842 788.496 620.103L791.615 614.476C769.544 600.229 758.304 579.035 750.346 554.996C749.632 552.837 748.557 550.384 747.654 548.279C742.823 537.213 737.104 526.556 730.552 516.413C727.435 511.549 721.417 502.284 716.828 498.836C700.601 486.645 677.968 477.711 658.225 473.113C650.414 471.088 641.179 471.081 633.534 468.804C596.9 457.898 559.384 441.206 534.658 410.973C533.621 409.705 531.74 409.722 530.355 409.963L529.636 411.617C530.673 418.751 540.72 427.03 546.131 432.308C523.114 426.037 505.427 421.354 484.265 410.01C487.122 407.139 489.694 403.997 491.946 400.63C505.781 379.889 506.824 356.971 502.171 333.199Z"/><path fill="#FEFEFE" d="M512.349 540.496L513.482 540.451L514.396 541.336C515.092 546.383 514.721 554.375 514.639 559.681C506.793 561.396 489.82 563.177 481.171 564.333L416.327 572.997L177.217 605.044L100.861 615.253C88.846 616.857 70.7745 618.738 59.2325 621.167C58.9545 633.706 61.9994 657.456 63.6777 670.525C73.6498 746.999 92.5869 822.035 120.098 894.083C171.359 1027.28 256.382 1156.9 387.054 1222.94C395.544 1227.24 404.214 1231.11 412.906 1234.97C415.95 1239.69 419.892 1247.22 422.619 1252.22C413.339 1253.3 411.742 1253.22 403.711 1257.68C349.457 1234.22 300.287 1200.42 258.945 1158.18C148.001 1046.9 81.2571 882.153 51.6921 729.314C44.3545 691.381 37.1354 642.886 37.2077 604.556C52.6847 603.263 73.6921 599.736 89.5194 597.596L192.865 583.629L512.349 540.496Z"/><path fill="#FEFEFE" d="M1078.72 276.606C1082.2 275.921 1094.44 292.1 1096.97 295.185C1139.18 345.901 1172.8 403.19 1196.48 464.775C1249.29 603.123 1246.37 771.699 1185.78 907.048C1183.23 892.601 1181.34 885.068 1176.76 871.158C1228.13 731.778 1223.39 577.903 1163.53 441.951C1141.55 391.298 1106.33 339.132 1070.15 297.801L1026 303.895C1020.09 304.706 1004.91 307.152 999.644 306.992C988.815 306.662 980.432 302.546 968.163 304.553C955.096 306.596 949.453 314.408 935.71 316.133C825.581 329.95 715.277 347.916 605.129 361.09C595.42 355.348 586.095 350.592 576.028 345.507C594.514 342.474 615.419 340.055 634.136 337.489L746.714 322.057L1078.72 276.606Z"/><path fill="#FEFEFE" d="M612.868 831.197C613.322 831.171 613.775 831.145 614.229 831.119L614.924 831.107C620.043 831.076 623.615 832.762 628.378 834.218C647.179 839.965 668.112 843.824 687.352 847.454C711.738 852.053 726.659 864.223 729.138 889.826C732.046 912.725 735.257 935.76 737.929 958.672C740.201 978.158 739.869 1001.13 724.442 1015.49C718.08 1021.41 707.087 1023.21 699.578 1028.21C687.513 1036.24 676.218 1045.42 663.836 1052.99C654.834 1058.37 648.645 1051.17 643.548 1044.73L642.121 1042.5C624.176 1014.27 622.622 995.974 629.928 963.048C635.474 969.478 642.193 976.176 646.54 983.389C649.291 987.954 646.213 990.556 645.724 995.414C646.053 996.353 647.044 999.375 648.327 998.632C656.528 993.876 654.956 985.043 651.265 978.738C645.712 969.253 638 963.24 631.897 955.025C611.944 928.167 581.705 893.933 571.537 862.171C584.396 847.14 589.988 836.484 612.868 831.197Z"/><path fill="#E40A13" d="M638.72 700.444C653.15 709.346 655.808 717.161 664.301 731.004C669.451 739.332 674.713 747.589 680.086 755.775C685.386 763.904 689.075 770.225 697.539 775.254C715.271 785.79 734.879 798.194 756.19 794.569C759.118 798.682 761.52 803.351 764.43 807.724C772.093 819.242 783.585 827.322 796.609 831.743C801.961 833.559 809.349 834.044 814.157 837.083C818.455 846.002 799.167 861.615 793.368 865.823C787.811 869.855 775.445 889.257 778.593 895.586C779.671 896.01 783.165 896.876 783.582 895.212C786.763 882.514 791.426 876.533 801.009 867.389C796.512 882.283 792.978 896.596 800.105 910.912C782.456 917.652 771.403 909.162 753.681 906.454C747.482 905.709 743.707 905.57 737.443 905.547C736.383 897.221 731.128 846.35 728.022 843.395C725.271 843.504 725.467 843.016 724.064 844.455C723.992 850.589 724.633 855.086 725.381 861.129C720.888 855.697 712.81 848.23 706.087 846.012C685.579 839.246 662.842 836.946 641.761 831.463C633.84 830.088 621.077 823.965 613.52 824.505C601.826 825.34 591.288 835.228 580.902 839.15L581.054 838.819C578.727 842.53 574.558 848.671 571.482 851.599C570.842 832.877 567.13 774.673 561.336 758.907C565.996 740.473 574.037 742.461 587.525 732.374C591.1 729.7 593.904 724.395 597.169 721.146C608.798 709.575 623.114 704.167 638.72 700.444Z"/><path fill="#E40A13" d="M26.8393 609.407C27.8275 610.325 33.0987 658.292 33.9526 664.352C44.8372 742.991 64.0224 820.256 91.1869 894.853C142.846 1034.33 229.589 1171.99 363.198 1245.17C374.978 1251.63 386.901 1257.21 399.087 1262.81C397.822 1266.08 397.416 1269.75 395.317 1272.04C392.817 1273.51 390.047 1273.02 387.006 1272.93C387.118 1275.83 387.76 1280.74 386.385 1282.98C383.736 1283.43 384.052 1282.97 381.053 1281.57C335.027 1260.29 292.704 1231.77 255.69 1197.12C131.016 1082.11 56.2942 902.378 23.3743 738.093C16.8359 705.464 8.4217 654.195 7.08722 620.998L26.8393 609.407Z"/><path fill="#FEFEFE" d="M738.199 911.992C746.777 911.864 752.265 912.485 760.624 914.378C768.793 916.228 776.532 919.713 784.788 919.714C784.889 954.328 780.066 993.528 766.857 1025.71C754.023 1056.97 741.089 1088.96 727.9 1120.08C720.473 1137.6 704.564 1142.91 687.884 1148.47C683.46 1149.95 664.582 1156.19 667.196 1162.07C672.08 1164.13 673.647 1162.22 677.803 1159.5C666.515 1170.63 668.558 1176.21 660.473 1183.98C645.358 1190.92 630.88 1172.96 625.048 1161.23C615.744 1142.53 612.899 1123.47 610.094 1103.13L616.377 1096.29C628.004 1098.22 623.487 1096.19 632.142 1092.16C642.974 1087.12 642.537 1091.29 649.559 1080.01C666.831 1071.32 677.968 1075.65 678.023 1051.89C690.817 1041.83 703.822 1031.25 719.55 1026.3C725.163 1024.53 731.444 1018.06 734.804 1013.33C749.477 992.678 745.572 966.448 742.448 942.954C741.08 932.709 739.95 922.251 738.199 911.992Z"/><path fill="#E40A13" d="M562.555 1003.7C564.115 1005.62 566.105 1017.06 567.095 1020.5C575.35 1049.18 586.979 1074.11 610.703 1092.96L556.116 1153.52C547.33 1163.23 537.781 1173.1 529.322 1183.03C526.42 1187.22 524.272 1191.86 521.64 1196.23C515.69 1206.09 509.659 1215.66 504.305 1225.88L501.177 1234.4C487.584 1230.36 477.219 1222.03 472.902 1208.25C470.453 1200.43 470.08 1195.34 465.208 1188.42C465.316 1180.37 465.305 1176.33 463.342 1168.59C471.413 1142.32 485.263 1140.56 498.688 1118.07C507.232 1103.75 511.262 1088.25 519.484 1073.89C532.32 1051.46 544.113 1021.97 562.555 1003.7Z"/><path fill="#FEFEFE" d="M960.573 396.403C963.479 399.126 963.326 406.049 963.436 409.793C972.752 407.382 985.188 406.289 994.345 409.375C999.772 411.204 992.388 421.484 999.066 424.289C1005.58 424.074 1016.46 416.714 1021.98 412.97C1028.19 421.62 1027.46 434.431 1023.28 443.475C1020.78 448.891 1017.67 470.473 1014.94 472.858C1012.7 472.632 1010.21 469.398 1008.2 467.736C991.662 453.993 977.596 458.987 965.689 475.17C963.444 478.222 956.995 488.307 957.6 491.982C959.485 492.754 962.285 494.259 963.523 492.024C968.936 482.254 971.6 475.921 980.787 469.038C986.723 474.044 988.186 472.982 993.104 476.556C987.864 485.235 997.578 486.473 987.073 499.41C978.333 508.203 945.828 524.909 933.681 530.663C919.031 537.602 909.899 513.531 904.488 504.998C891.884 485.122 877.342 475.546 896.27 452.358C899.279 448.693 893.559 442.399 902.566 441.051L902.713 440.102C901.816 439.044 900.934 437.973 900.069 436.889C889.42 423.536 897.395 413.386 908.791 404.822L908.811 418.931L920.064 422.663C939.614 392.38 947.939 409.974 960.573 396.403Z"/><path fill="#020203" d="M940.24 414.301C951.176 418.969 965.93 433.351 967.264 445.814C967.846 451.254 963.28 453.836 958.488 454.177C952.18 452.85 937.74 443.891 938.188 437.133C940.395 435.442 943.96 436.085 947.364 436.047C944.443 429.438 943.213 427.988 937.967 423.087L940.24 414.301Z"/><path fill="#020203" d="M917.177 488.753C923.914 490.068 928.51 502.807 937.183 505.958C941.654 507.583 951.119 507.979 953.444 510.915C952.9 513.42 953.026 512.662 950.717 514.754C936.87 520.514 926.941 515.711 920.858 501.951C919.382 498.613 916.977 492.195 917.177 488.753Z"/><path fill="#020203" d="M947.312 477.878C949.496 476.939 952.034 477.86 953.106 479.981C954.179 482.102 953.417 484.692 951.366 485.894C949.921 486.741 948.126 486.716 946.706 485.829C945.286 484.942 944.476 483.339 944.603 481.67C944.73 480 945.774 478.539 947.312 477.878Z"/><path fill="#E40A13" d="M854.171 1240.81C857.403 1244.31 863.984 1256.05 867.686 1261.11C768.91 1306.51 637.93 1329.07 529.099 1320.12L517.894 1319.12C517.926 1315.69 517.637 1311.37 517.496 1307.87C520.388 1303.02 522.361 1300.03 525.749 1295.52C547.386 1298.05 570.917 1298.28 592.681 1297.79C682.695 1295.76 771.476 1276.42 854.171 1240.81Z"/><path fill="#E40A13" d="M506.054 567.453C507.576 567.166 507.465 567.155 508.908 567.717C507.969 571.745 499.143 582.132 496.167 585.873L68.869 644.767L67.6104 644.405C66.4949 641.439 65.7733 630.397 65.3395 626.466C114.112 620.538 164.146 613.254 212.954 606.712L506.054 567.453Z"/><path fill="#E40A13" d="M920.543 324.682C922.836 324.385 922.892 323.988 924.674 324.806C924.122 326.751 919.529 334.303 918.016 337.499C906.691 341.276 903.748 346.05 897.212 355.188C891.026 356.422 884.017 357.469 877.744 358.228C833.51 363.579 788.293 373.213 744.048 377.363C708.199 380.725 674.797 378.478 638.501 384.921L630.898 378.92C626.854 375.753 621.894 372.372 617.67 369.334C621.884 368.801 626.155 368.115 630.339 367.366C726.707 350.116 823.544 337.855 920.543 324.682Z"/><path fill="#FEFEFE" d="M842.819 1213.76C843.022 1213.76 843.236 1213.7 843.428 1213.76C845.06 1214.32 850.47 1231.89 851.64 1234.8C753.675 1277.01 647.281 1296.01 540.761 1290.32L530.988 1289.42C538.327 1281.43 546.45 1274.09 554.614 1266.95C657.561 1269.4 747.489 1253.98 842.819 1213.76Z"/><path fill="#E40A13" d="M1008.21 312.606C1026.29 310.62 1049.58 307.42 1067.5 304.495C1142.29 391.863 1185.17 484.156 1201.06 597.944C1200.55 599.357 1200.15 600.718 1199.42 602.013C1196.01 590.058 1193.47 577.76 1189.93 565.55C1179.53 529.033 1165.44 493.671 1147.87 460.012C1137.37 440.641 1126.15 421.66 1114.26 403.108C1106.85 391.44 1068.64 336.599 1067.04 330.417C1057.8 331.663 1048.57 333.006 1039.35 334.448C1028.67 326.343 1018.9 320.228 1008.21 312.606Z"/><path fill="#E40A13" d="M564.021 1154.55C564.287 1156.01 564.231 1159.08 564.363 1160.74C566.66 1189.66 576.276 1206.31 597.266 1224.98C577.661 1239.16 558.824 1254.38 540.837 1270.57C539.792 1269.54 539.82 1267.2 539.059 1265.59C535.399 1257.81 523.566 1252.5 516.565 1249.25C514.416 1242.25 512.641 1239.49 508.315 1233.58C512.002 1221.07 520.896 1211.93 526.493 1201.05C536.114 1182.34 549.822 1169.85 564.021 1154.55Z"/><path fill="#FEFEFE" d="M1159.31 913.154C1162.32 917.49 1160.89 926.258 1163.01 931.067C1164.09 933.512 1167.64 938.143 1169.3 940.417C1168.76 948.119 1135.89 999.44 1130.54 1007.24C1121.96 1019.78 1112.91 1031.99 1103.42 1043.86C1097.27 1051.55 1047.82 1109.35 1040.01 1110.82L1038.39 1109.53C1033.93 1104.91 1029.01 1101.03 1024.06 1096.95C1085.25 1038.95 1122.27 988.355 1159.31 913.154Z"/><path fill="#FEFEFE" d="M407.942 318.18C411.635 318.006 414.296 318.868 417.748 319.978C430.518 324.086 443.547 326.277 456.796 328.277C461.728 340.593 468.323 361.522 455.573 371.202C446.712 377.93 437.371 373.5 429.038 380.768C405.947 382.657 391.122 392.786 369.99 399.456C368.384 399.963 367.804 399.663 366.602 398.778C368.081 390.375 407.677 370.942 409.653 357.518C408.984 355.018 407.569 354.032 405.667 352.151C405.347 349.191 407.381 346.808 407.086 343.41C406.603 337.844 401.091 338.573 397.856 335.537C396.782 334.529 396.401 334.293 395.068 333.624C391.56 334.58 391.479 338.356 388.087 339.862C380.673 343.153 370.162 342.398 363.216 346.275C345.382 356.229 345.06 382.881 328.926 394.924C327.57 395.936 327.707 395.901 326.261 395.6C324.726 391.317 331.408 379.137 333.371 374.857C343.595 352.563 339.221 346.048 363.5 334.18C383.017 324.639 384.43 318.838 407.942 318.18Z"/><path fill="#FEFEFE" d="M906.331 1200.94L915.508 1200.89C923.701 1212.02 931.201 1220.57 940.794 1230.39C937.18 1245.01 933.439 1250.63 933.728 1266.28C921.814 1268.44 909.737 1271.81 898.057 1275.02C896.783 1275.4 894.432 1276.37 893.476 1275.97C882.994 1271.63 870.472 1254.3 864.812 1245.78C869.028 1230.42 872.653 1217.9 879.047 1203.4C891.553 1203.57 894.24 1203.6 906.331 1200.94Z"/><path fill="#FEFEFE" d="M935.735 1082.65L937.125 1082.47C942.421 1085.24 960.15 1089.82 966.517 1091.29C971.258 1098.1 978.94 1106.79 984.421 1113.33L979.817 1117.79C977.428 1129.26 974.479 1136.59 972.979 1148.53C965.57 1149.44 957.718 1151.08 950.347 1152.46L930.345 1157.08C922.759 1146.19 915.457 1138.28 904.829 1130.47C908.046 1117.64 915.305 1101.09 919.471 1087.86C925.575 1085.54 929.491 1084.35 935.735 1082.65Z"/><path fill="#FEFEFE" d="M1032.87 1178.37C1040 1177.15 1057.57 1195.35 1063.6 1200.71C1061.14 1220.06 1058.09 1231.12 1048.13 1247.91C1038.7 1248.4 1029.27 1248.96 1019.84 1249.6C1018.81 1249.63 1016.44 1249.76 1015.71 1249.19C1006.7 1242.13 995.67 1232.52 987.203 1225.3C994.744 1211.7 999.047 1196.5 1003.39 1181.64C1011.38 1181.87 1023.94 1179.26 1032.87 1178.37Z"/><path fill="#FEFEFE" d="M967.95 1155.68C969.177 1155.66 970.404 1155.63 971.632 1155.61C981.015 1163.47 987.459 1172.35 997.205 1180.17C992.786 1195.17 988.927 1208.86 981.342 1222.61C969.564 1222.42 960.938 1224.25 949.371 1225.87C947.895 1226.3 947.631 1226.11 946.072 1225.9C938.776 1220.86 926.343 1204.53 920.766 1197.15C927.9 1189.23 930.32 1173.6 931.958 1163.26C944.291 1160.4 955.457 1157.9 967.95 1155.68Z"/><path fill="#FEFEFE" d="M861.544 438.575C863.967 439.001 865.738 440.97 867.665 442.632C864.781 457.497 868.023 470.819 872.428 485.035C873.45 488.336 874.372 490.931 877.346 492.895C880.264 493.003 879.12 493.226 881.75 491.634C876.223 475.253 870.174 460.834 874.228 443.639C877.954 443.276 888.774 441.798 891.529 443.319C891.896 451.216 878.699 462.894 880.354 473.1C881.211 478.091 882.795 482.929 885.057 487.46C888.901 495.239 895.24 502.386 899.652 509.862C906.271 521.079 906.928 526.937 918.142 534.612C933.366 542.018 942.607 534.181 955.875 526.69C949.965 533.381 945.978 538.004 938.55 543.021C924.294 552.649 896.589 555.16 879.967 551.581C876.352 536.98 870.539 521.75 865.478 507.494C857.754 485.74 841.521 458.698 861.544 438.575Z"/><path fill="#FEFEFE" d="M1121.33 822.594C1129.13 822.418 1138.38 823.729 1145.75 826.41C1162.13 849.381 1174.74 876.056 1178.39 904.272C1178.92 908.294 1179.89 915.97 1178.33 919.529L1177.14 919.737C1172.33 915.853 1173.53 909.852 1171.84 904.156C1166.34 885.635 1155.42 871.756 1142.48 857.929C1140.39 855.958 1138.23 853.476 1135.13 854.126C1128.6 855.495 1123.63 864.024 1119.83 869.192C1122.47 877.996 1134.7 904.654 1131.15 911.509C1127.49 908.243 1124.71 902.056 1121.51 898.182C1113.5 888.493 1106.82 883.133 1100.91 871.771C1097.93 866.026 1095.28 854.819 1093.58 851.743L1091.52 851.807C1089.63 848.625 1091.17 841.835 1092.82 838.709C1098.89 827.217 1109.44 823.917 1121.33 822.594Z"/><path fill="#E40A13" d="M1207.83 870.899L1209.02 872.129C1207.42 874.574 1201.25 896.335 1199.67 900.99C1195.21 914.052 1190.35 926.972 1185.08 939.732C1153.34 1015.46 1112.43 1073.84 1055.8 1132.5C1052.03 1126.57 1049.16 1122.42 1044.91 1116.82C1107.91 1057.22 1157.78 989.946 1192.51 909.958C1196.67 900.363 1205.37 880.693 1207.83 870.899Z"/><path fill="#E40A13" d="M456.258 312.093C470.349 311.654 482.705 320.311 494.097 327.668C502.169 356.42 500.054 384.934 478.201 407.022C471.619 406.389 465.957 404.958 459.628 403.302C453.923 401.124 432.036 393.04 433.647 385.163C437.628 381.239 448.399 382.831 454.085 379.978C476.664 368.644 469.174 340.575 461.17 322.435L448.234 318.757C450.767 315.064 452.244 313.973 456.258 312.093Z"/><path fill="#E40A13" d="M849.115 432.936L854.717 436.047C830.828 464.861 860.436 502.557 867.572 532.964C869.178 539.806 872.771 549.545 875.344 556.126C877.359 558.2 883.211 558.877 886.122 559.059C908.267 560.44 933.704 558.16 950.442 541.884C958.908 533.651 966.271 524.397 975.266 516.395C973.286 520.645 971.424 523.586 968.947 527.584C961.615 537.943 954.581 545.671 944.012 552.859C916.711 571.424 899.441 558.271 867.383 574.173C868.423 549.972 856.292 528.846 846.419 507.794C842.128 497.344 840.562 486.03 838.665 475.079C835.971 459.529 837.193 444.289 849.115 432.936Z"/><path fill="#FEFEFE" d="M986.794 1090.15C1003.39 1086.74 1022.93 1103.15 1033.86 1114.15C1055.3 1135.71 1063.87 1161.99 1063.62 1192.09L1058.57 1187.77C1053.34 1183.31 1048.18 1178.78 1043.08 1174.17C1042.96 1154.97 1039.95 1139.65 1036.6 1120.91C1025.75 1116.22 1006.02 1115.66 993.679 1114.41C987.325 1106.9 981.066 1099.3 974.901 1091.63L986.794 1090.15Z"/><path fill="#FEFEFE" d="M591.726 715.907L592.356 716.39C589.489 719.294 588.551 721.553 585.977 724.349C580.407 730.4 572.152 734.291 564.947 738.697L564.734 740.467C561.558 741.235 560.603 743.256 559.046 746.001C554 754.896 555.866 757.088 556.813 765.136C559.22 785.59 568.635 842.059 563.815 860.218C560.457 862.544 559.73 863.058 557.491 866.5L556.998 867.269C553.973 856.318 550.749 835.402 549.623 823.849C548.73 816.19 550.767 803.966 549.396 796.73C546.083 779.241 543.585 768.866 545.472 750.777C558.715 737.773 565.284 725.734 583.565 720.186C585.222 719.683 590.104 716.802 591.726 715.907Z"/><path fill="#FEFEFE" d="M431.386 1157.66C434.183 1157.94 437.526 1166.95 438.706 1169.8C455.645 1210.76 471.531 1255.38 469.656 1300.34C469.505 1303.96 468.896 1312.36 467.659 1315.48L466.644 1314.79C465.183 1312.18 464.272 1309.55 463.416 1306.69C461.019 1298.68 456.533 1291.81 453.345 1284.24C459.784 1257.97 444.025 1211.67 435.774 1186.4C433.376 1179.05 428.39 1167.52 426.766 1160.48C427.911 1158.31 428.301 1158.82 431.386 1157.66Z"/><path fill="#E40A13" d="M1114.81 797.067C1126.42 796.584 1132.41 798.445 1143.12 802.625C1146.54 808.392 1149.3 815.528 1151.5 821.835C1131.03 812.925 1102.94 812.751 1088.96 832.8C1084.28 842.138 1084.38 847.137 1084.34 857.541C1079.58 852.528 1068.22 832.775 1071.22 826.712C1075.52 828.196 1078.96 818.646 1082.53 814.593C1091.82 804.079 1100.69 798.44 1114.81 797.067Z"/><path fill="#FEFEFE" d="M438.716 1257.46C443.544 1263.62 443.202 1292.84 443.043 1301.71C442.339 1340.82 433.698 1387.12 404.259 1415.21L403.252 1415.91L402.389 1415.55C401.684 1412.54 402.237 1394.92 402.276 1390.62C438.188 1377.4 434.967 1292.3 434.856 1261.15C434.85 1259.33 437.367 1258.31 438.716 1257.46Z"/><path fill="#E40A13" d="M604.005 1110.06C605.937 1114.79 605.886 1121.77 607.092 1127.07C611.865 1148.1 618.559 1172.39 636.914 1185.67C642.947 1190.03 648.724 1191.04 655.909 1192.25C651.026 1198.28 647.471 1202.01 641.313 1206.68C630.225 1210.17 603.669 1156.43 601.513 1145.58C600.92 1142.59 595.397 1125.79 594.472 1124.49C592.861 1124.46 593.252 1124.58 591.74 1124.14C592.669 1121.86 601.745 1112.51 604.005 1110.06Z"/><path fill="#FEFEFE" d="M858.945 1165.38C863.858 1179.19 864.505 1186.51 875.12 1197.09C868.642 1209.66 864.937 1221.98 861.085 1235.49L860.165 1236.47C852.796 1231.15 842.625 1180.94 850.629 1172.7L853.395 1173.94C855.142 1172.47 857.665 1167.6 858.945 1165.38Z"/><path fill="#FEFEFE" d="M577.042 994.204C578.578 996.529 581.192 1010.63 582.284 1014.43C590.083 1041.56 602.997 1066.56 623.98 1085.88C625.309 1087.1 625.7 1087.67 625.589 1089.32C623.541 1090.79 622.631 1090.57 619.975 1090.71C618.48 1090.02 617.03 1089.24 615.636 1088.36C588.866 1071.47 575.556 1030.99 569.198 1001.55C571.709 998.919 574.339 996.625 577.042 994.204Z"/><path fill="#E40A13" d="M566.241 868.142C567.378 869.533 570.076 875.626 571.016 877.651C578.108 892.938 587.878 906.455 597.334 920.404C592.919 921.241 590.772 921.397 586.258 921.608C581.12 918.35 577.896 917.723 572.068 916.172C570.959 914.18 564.799 909.358 562.928 907.125C551.564 893.567 553.869 879.196 566.241 868.142Z"/><path fill="#FEFEFE" d="M910.402 1092.14L910.916 1092.97C907.761 1101.77 904.799 1110.78 901.684 1119.6C897.955 1130.15 898.852 1130.44 887.724 1131.9C882.984 1135.81 865.692 1149.18 863.588 1152.23C864.048 1148 865.809 1140.14 863.803 1137.42L863.432 1136.93C872.836 1118.53 892.243 1101.66 910.402 1092.14Z"/><path fill="#FEFEFE" d="M932.773 1273.04C933.221 1273.08 941.938 1279.14 943.233 1280.07C948.703 1284 971.411 1288.95 974.796 1292.27C975.446 1294.15 975.656 1294.16 975.22 1296.05C970.491 1298.64 951.005 1297.74 944.899 1297.55C925.15 1294.49 916.491 1291.02 899.487 1281.35C910.434 1278.02 921.544 1275.24 932.773 1273.04Z"/><path fill="#E40A13" d="M620.948 968.929C622.579 971.03 619.8 985.261 619.661 988.802C618.767 1011.65 626.512 1036.47 642.37 1053.42C657.39 1069.49 660.378 1056.93 671.369 1057.25C672.102 1062.19 668.84 1065.18 664.989 1067.69C661.185 1068.12 656.981 1067.9 653.129 1067.82C636.369 1055.76 624.433 1039.08 616.449 1019.45C612.803 1010.49 604.132 985.158 606.834 975.535C607.758 972.244 616.158 970.911 620.157 969.261L620.948 968.929Z"/><path fill="#FEFEFE" d="M1035.33 1255.03C1037.67 1254.73 1039.95 1254.08 1041.87 1255.24L1041.8 1257.2C1039.82 1260.9 1036.37 1263.77 1033.34 1266.66C1019.92 1279.48 1006.31 1287.7 988.675 1293.46L988.145 1293.63C985.296 1294.52 984.059 1295.13 981.631 1293.85L981.417 1291.8C982.425 1289.5 987.427 1286.84 989.725 1284.66C999.354 1275.55 1009.26 1264.45 1019.32 1255.92C1023.65 1255.39 1030.75 1255.27 1035.33 1255.03Z"/><path fill="#E40A13" d="M588.899 985.568C590.134 987.234 595.768 1008.23 596.943 1012.28C600.982 1026.2 605.102 1039.04 611.88 1052.08C615.091 1058.26 618.392 1061.78 621.916 1066.99C625.739 1072.65 640.056 1078.15 639.408 1082.76L636.31 1084.79C629.308 1083.13 626.106 1079.27 621.397 1074.21C603.688 1055.19 593.059 1031 586.597 1006.09C585.283 1001.03 583.737 995.653 584.235 990.385C584.412 988.507 587.423 986.646 588.899 985.568Z"/><path fill="#FEFEFE" d="M588.716 1127.01C590.349 1130.06 593.966 1143.91 595.555 1148.18C603.909 1170.63 615.34 1196.55 634.669 1211.61C635.426 1212.2 635.519 1212.43 635.774 1213.31L632.806 1216.07C629.407 1216.09 628.623 1215.94 626.021 1213.55C604.106 1193.47 588.836 1162.24 586.25 1132.71C585.951 1129.29 586.647 1129.32 588.716 1127.01Z"/><path fill="#FEFEFE" d="M596.433 978.436C597.451 978.657 598.014 978.928 598.988 979.3C600.848 987.633 602.068 995.305 604.271 1003.61C610.121 1025.68 628.178 1061.95 649.091 1072.17L649.203 1073.39C621.937 1083.55 592.487 991.326 596.433 978.436Z"/><path fill="#E40A13" d="M579.709 1137.02C581.341 1140.15 583.057 1152.7 584.459 1157.32C592.427 1183.61 603.584 1200.01 622.386 1219.07C620.425 1219.73 617.549 1220.38 615.48 1220.92C613.528 1221.46 612.607 1221.92 610.65 1221.41C597.353 1207.06 581.4 1161.44 574.833 1142.36L579.709 1137.02Z"/><path fill="#FEFEFE" d="M395.98 342.571C398.662 343.156 398.028 342.64 399.831 344.3C400.229 346.82 399.728 348.595 399.293 351.096C392.588 352.897 386.512 354.558 379.628 355.648C375.359 356.323 369.014 356.277 365.216 357.31C365.08 358.812 365.056 358.059 366.378 359.787C364.202 362.481 365.319 361.601 361.801 362.931C359.233 366.38 359.701 371.289 355.948 376.857C349.797 385.981 341.252 389.765 337.458 399.945C335.991 402.251 334.999 402.247 332.491 402.283L332.074 401.416C348.952 387.161 349.842 365.315 365.269 352.801C367.591 350.917 388.038 346.834 395.98 342.571Z"/><path fill="#E40A13" d="M515.557 1253.32C526.431 1258.07 546.791 1267.92 526.625 1277.11C522.418 1278.71 517.035 1279.96 512.593 1281.12C511.518 1277.16 510.205 1273.18 508.961 1269.26L515.557 1253.32Z"/><path fill="#FEFEFE" d="M570.937 1152.37C572.585 1154.39 583.194 1183.44 585.395 1188.57C589.729 1198.79 594.665 1208.74 600.177 1218.37C597.576 1217.23 591.574 1211 589.661 1208.8C576.29 1193.16 569.57 1172.91 570.937 1152.37Z"/><path fill="#E40A13" d="M546.376 849.86C547.564 851.455 551.51 871.349 551.256 874.087C549.303 895.155 545.626 897.031 560.929 914.38C549.676 914.401 543.623 897.146 543.668 887.794C543.727 875.267 544.788 862.25 546.376 849.86Z"/><path fill="#FEFEFE" d="M1134.04 860.758C1135.35 860.874 1136.21 861.242 1137.2 862.103C1150.67 873.776 1165.13 896.362 1167.12 913.935C1162.22 900.557 1156.28 888.785 1147.12 877.811C1143.91 873.964 1134.55 865.211 1134.04 860.758Z"/><path fill="#FEFEFE" d="M624.693 692.393C626.948 692.934 630.246 694.34 632.511 695.211C621.749 698.009 614.954 700.979 605.475 706.567L602.525 708.514L601.747 708.337C605.535 703.759 619.071 695.622 624.693 692.393Z"/><path fill="#FEFEFE" d="M386.659 1455.68C389.799 1455.7 390.045 1455.19 392.315 1456.55C393.796 1460.03 392.352 1464.89 391.714 1468.97C388.3 1468.94 388.19 1469.51 385.862 1467.94C384.564 1464.73 386.062 1459.63 386.659 1455.68Z"/><path fill="#E40A13" d="M529.95 1280.32L529.768 1281.19C527.341 1284.07 522.398 1290.3 519.387 1292.15L517.787 1291.13C516.24 1289.3 514.614 1287.12 513.112 1285.22C519.844 1283.62 523.415 1282.58 529.95 1280.32Z"/><path fill="#FEFEFE" d="M401.88 1202.14C404.184 1204.96 409.29 1210.39 409.537 1213.96C409.604 1214.94 408.201 1216.08 407.372 1217.01C404.697 1215.23 399.418 1208.76 399.494 1205.23C399.517 1204.18 401.1 1202.95 401.88 1202.14Z"/><path fill="#FEFEFE" d="M391.272 1324.67C393.885 1325.06 393.556 1324.61 395.264 1326.05C396.597 1330.6 395.911 1335.84 395.811 1340.81C392.805 1340.52 393.411 1341.05 391.726 1339.36C390.557 1335.12 391.179 1329.29 391.272 1324.67Z"/><path fill="#FEFEFE" d="M417.755 1224.45L418.985 1225.19C420.82 1228.93 422.614 1232.2 422.839 1236.48C422.919 1237.99 422.087 1238.27 420.706 1239.78C419.036 1237.23 415.042 1231.71 414.752 1228.79C414.528 1226.51 415.951 1226 417.755 1224.45Z"/><path fill="#FEFEFE" d="M391.044 1420.32C393.891 1420.92 393.314 1420.35 394.925 1422.14C395.697 1427.2 394.5 1431.18 393.666 1436.28C386.819 1434.07 390.157 1426.56 391.044 1420.32Z"/><path fill="#FEFEFE" d="M429.24 1245.27C431.383 1247.23 435.343 1253.04 434.67 1256.08C434.442 1257.1 432.557 1258.16 431.644 1258.85C430.453 1252.71 424.811 1252.24 426.105 1247.08L429.24 1245.27Z"/><path fill="#FEFEFE" d="M393.473 1390.05C395.232 1390.16 395.835 1390 397.257 1390.99C398.24 1393.31 398.327 1393.49 398.241 1395.97L398.01 1403.97C395.483 1403.84 395.997 1404.22 394.126 1403.02C392.648 1399.09 393.357 1394.51 393.473 1390.05Z"/><path fill="#FEFEFE" d="M392.598 1303.69C394.165 1304.09 393.839 1304.01 395.288 1304.75C396.583 1308 396.473 1310.99 394.468 1313.93C393.032 1313.74 393.117 1313.74 391.837 1313.04C390.466 1309.67 390.731 1306.79 392.598 1303.69Z"/><path fill="#FEFEFE" d="M391.275 1276.92C393.058 1277.07 393.259 1277.14 394.986 1277.66C396.609 1279.93 395.961 1283.13 395.809 1286.17C393.904 1286.08 393.91 1286.07 392.09 1285.49C390.509 1283.23 391.139 1279.91 391.275 1276.92Z"/><path fill="#FEFEFE" d="M481.896 1360.76C484.118 1363.73 485.388 1364.71 485.442 1368.09L482.976 1370.2C479.085 1367.7 478.568 1364.02 481.896 1360.76Z"/><path fill="#FEFEFE" d="M1167.59 922.688C1170.08 923.145 1170.09 923.011 1172.04 924.506C1173.07 926.71 1172.26 928.896 1171.75 931.358L1170.64 931.297C1168.84 928.823 1168.36 925.726 1167.59 922.688Z"/><path fill="#CF0904" d="M1201.06 597.944C1201.82 604.052 1202.66 610.44 1202.81 616.579C1201.59 612.792 1199.84 605.908 1199.42 602.013C1200.15 600.718 1200.55 599.357 1201.06 597.944Z"/><path fill="#FEFEFE" d="M466.617 1328.87C468.943 1331.25 470.964 1335.58 470.72 1338.94C466.86 1337.5 465.45 1332.55 466.617 1328.87Z"/><path fill="#FEFEFE" d="M856.865 1150.14C858.022 1155.14 855.302 1158.94 852.69 1162.82C852.284 1159.73 855.525 1152.99 856.865 1150.14Z"/><path fill="#4E0C01" d="M1207.83 870.899C1208.51 868.8 1209.76 863.962 1211.15 862.649C1210.95 866.331 1210.08 868.63 1209.02 872.129L1207.83 870.899Z"/><path fill="#020203" d="M1125.21 0L1127.45 0C1125.36 7.05005 1123.14 18.3809 1121.42 25.8449C1116.89 26.507 1112.35 27.2194 1107.83 27.9819C1096.4 78.1771 1087.58 131.37 1076.46 181.997L1047.11 185.807C1055.85 134.331 1068.9 81.3772 1077.97 29.6988C1073.86 30.4735 1068.81 31.0577 1064.6 31.6541C1066.05 24.3001 1068.54 15.2325 1070.37 7.82163C1086.95 5.56832 1109.19 3.17654 1125.21 0Z"/><path fill="#020203" fill-opacity="0.015686275" d="M386.94 1319.23C389.994 1318.4 392.31 1317.35 395.221 1318.24L395.977 1319.31C393.46 1321.52 391.836 1321 388.394 1320.79L387.406 1320.73L386.94 1319.23Z"/></svg>