<svg id="svg" version="1.1" xmlns="http://www.w3.org/2000/svg" xmlns:xlink="http://www.w3.org/1999/xlink" width="400" height="400" viewBox="0, 0, 400,400"><g id="svgg"><path id="path0" d="M152.814 192.875 C 152.803 246.615,152.810 290.696,152.830 290.833 C 152.871 291.123,199.875 372.656,200.000 372.654 C 200.138 372.653,247.517 290.437,247.536 290.167 C 247.545 290.029,247.541 246.098,247.526 192.542 L 247.500 95.167 200.167 95.167 L 152.833 95.167 152.814 192.875 " stroke="none" fill="#cb242c" fill-rule="evenodd"></path><path id="path1" d="M38.077 22.542 C 38.033 22.656,38.017 37.975,38.041 56.583 L 38.083 90.417 200.000 90.417 L 361.917 90.417 361.917 56.417 L 361.917 22.417 200.036 22.375 C 70.620 22.342,38.140 22.375,38.077 22.542 M95.250 47.931 C 106.158 57.692,115.684 66.256,116.419 66.964 C 117.153 67.671,117.818 68.287,117.896 68.333 C 117.974 68.379,118.025 59.810,118.010 49.292 L 117.982 30.167 123.741 30.167 L 129.500 30.167 129.500 58.417 L 129.500 86.667 125.849 86.667 L 122.197 86.667 101.719 68.125 C 78.466 47.071,79.083 47.626,78.922 47.602 C 78.856 47.592,78.812 56.377,78.825 67.125 L 78.848 86.667 73.091 86.667 L 67.333 86.667 67.333 58.417 L 67.333 30.167 71.375 30.175 L 75.417 30.184 95.250 47.931 M223.803 58.250 C 232.361 73.650,239.403 86.345,239.450 86.460 C 239.520 86.628,238.159 86.662,232.744 86.627 L 225.951 86.583 222.574 80.083 L 219.196 73.583 202.175 73.583 L 185.153 73.583 181.772 80.083 L 178.391 86.583 172.101 86.627 C 168.642 86.651,165.845 86.614,165.886 86.544 C 165.927 86.474,172.689 74.079,180.914 59.000 C 189.139 43.921,196.051 31.264,196.276 30.873 L 196.683 30.162 202.462 30.206 L 208.242 30.250 223.803 58.250 M323.542 30.414 C 331.156 31.561,333.302 35.290,333.135 47.081 L 333.083 50.746 327.500 51.780 C 324.429 52.348,321.711 52.853,321.460 52.902 L 321.004 52.991 320.960 46.870 L 320.917 40.750 304.167 40.750 L 287.417 40.750 287.417 58.333 L 287.417 75.917 304.167 75.917 L 320.917 75.917 321.000 69.068 L 321.083 62.220 327.125 63.483 L 333.167 64.747 333.167 69.344 C 333.167 81.304,331.611 84.375,324.667 86.123 C 323.294 86.468,287.593 86.659,285.250 86.333 C 278.581 85.407,275.938 82.376,275.326 74.952 C 275.008 71.094,275.199 41.471,275.555 39.528 C 276.619 33.713,279.077 31.314,284.900 30.409 C 287.041 30.077,321.332 30.081,323.542 30.414 M202.007 41.909 C 201.530 42.483,190.832 63.088,190.907 63.286 C 191.011 63.556,213.415 63.606,213.581 63.336 C 213.670 63.194,202.693 42.132,202.350 41.785 C 202.278 41.712,202.124 41.768,202.007 41.909 M139.113 95.276 C 139.051 95.338,139.000 134.058,139.000 181.319 L 139.000 267.250 145.722 278.892 C 149.418 285.294,152.512 290.526,152.596 290.517 C 152.690 290.506,152.750 252.310,152.750 192.875 L 152.750 95.250 145.988 95.206 C 142.269 95.183,139.175 95.214,139.113 95.276 M247.578 95.373 C 247.413 95.808,247.582 289.833,247.747 289.875 C 247.837 289.898,250.927 284.704,254.613 278.333 L 261.315 266.750 261.282 181.000 L 261.250 95.250 254.454 95.206 C 249.106 95.172,247.641 95.208,247.578 95.373 " stroke="none" fill="#fcfcfc" fill-rule="evenodd"></path><path id="path2" d="M33.167 55.507 L 33.167 93.513 116.542 237.998 C 162.398 317.465,199.954 382.483,200.000 382.484 C 200.046 382.484,237.602 317.468,283.458 238.004 L 366.833 93.523 366.833 55.512 L 366.833 17.500 200.000 17.500 L 33.167 17.500 33.167 55.507 M361.917 56.417 L 361.917 90.417 200.000 90.417 L 38.083 90.417 38.041 56.583 C 38.017 37.975,38.033 22.656,38.077 22.542 C 38.140 22.375,70.620 22.342,200.036 22.375 L 361.917 22.417 361.917 56.417 M67.333 58.417 L 67.333 86.667 73.091 86.667 L 78.848 86.667 78.825 67.125 C 78.812 56.377,78.856 47.592,78.922 47.602 C 79.083 47.626,78.466 47.071,101.719 68.125 L 122.197 86.667 125.849 86.667 L 129.500 86.667 129.500 58.417 L 129.500 30.167 123.741 30.167 L 117.982 30.167 118.010 49.292 C 118.025 59.810,117.974 68.379,117.896 68.333 C 117.818 68.287,117.153 67.671,116.419 66.964 C 115.684 66.256,106.158 57.692,95.250 47.931 L 75.417 30.184 71.375 30.175 L 67.333 30.167 67.333 58.417 M196.276 30.873 C 196.051 31.264,189.139 43.921,180.914 59.000 C 172.689 74.079,165.927 86.474,165.886 86.544 C 165.845 86.614,168.642 86.651,172.101 86.627 L 178.391 86.583 181.772 80.083 L 185.153 73.583 202.175 73.583 L 219.196 73.583 222.574 80.083 L 225.951 86.583 232.744 86.627 C 238.159 86.662,239.520 86.628,239.450 86.460 C 239.403 86.345,232.361 73.650,223.803 58.250 L 208.242 30.250 202.462 30.206 L 196.683 30.162 196.276 30.873 M284.900 30.409 C 279.077 31.314,276.619 33.713,275.555 39.528 C 275.199 41.471,275.008 71.094,275.326 74.952 C 275.938 82.376,278.581 85.407,285.250 86.333 C 287.593 86.659,323.294 86.468,324.667 86.123 C 331.611 84.375,333.167 81.304,333.167 69.344 L 333.167 64.747 327.125 63.483 L 321.083 62.220 321.000 69.068 L 320.917 75.917 304.167 75.917 L 287.417 75.917 287.417 58.333 L 287.417 40.750 304.167 40.750 L 320.917 40.750 320.960 46.870 L 321.004 52.991 321.460 52.902 C 321.711 52.853,324.429 52.348,327.500 51.780 L 333.083 50.746 333.135 47.081 C 333.302 35.290,331.156 31.561,323.542 30.414 C 321.332 30.081,287.041 30.077,284.900 30.409 M208.082 52.545 C 211.162 58.390,213.637 63.246,213.581 63.336 C 213.415 63.606,191.011 63.556,190.907 63.286 C 190.832 63.088,201.530 42.483,202.007 41.909 C 202.310 41.543,201.973 40.954,208.082 52.545 M261.292 180.961 L 261.334 266.672 254.727 278.128 C 251.094 284.428,248.012 289.709,247.880 289.862 C 247.747 290.015,247.477 290.440,247.278 290.806 C 246.216 292.766,200.070 372.654,200.000 372.654 C 199.915 372.655,153.215 291.775,152.920 291.116 C 152.830 290.915,152.667 290.675,152.558 290.583 C 152.449 290.492,149.354 285.204,145.680 278.833 L 139.000 267.250 139.000 181.319 C 139.000 134.058,139.050 95.339,139.111 95.278 C 139.172 95.217,166.678 95.186,200.236 95.209 L 261.250 95.250 261.292 180.961 " stroke="none" fill="#040404" fill-rule="evenodd"></path></g></svg>