<?xml version="1.0" encoding="UTF-8"?>
<svg id="Camada_1" xmlns="http://www.w3.org/2000/svg" version="1.1" viewBox="0 0 400 400">
  <!-- Generator: Adobe Illustrator 29.8.2, SVG Export Plug-In . SVG Version: 2.1.1 Build 3)  -->
  <defs>
    <style>
      .st0 {
        fill: #168a44;
      }

      .st1 {
        fill: #010101;
      }

      .st2 {
        fill: #138944;
      }

      .st3 {
        fill: #fff;
      }

      .st4 {
        fill: #2e9557;
      }

      .st5 {
        fill: #2f9557;
      }

      .st6 {
        fill: #1a1a1a;
      }
    </style>
  </defs>
  <path class="st3" d="M213.64,7.37c8.81.77,17.57,2.01,26.48,3.24,10.14,1.27,20.28,5.22,29.64,9.12,9.21,2.88,18.79,7.76,27.19,13.38l1.76.37c12.53,7.72,25.01,16.38,34.92,27.25,2.63,1.9,5,4.28,6.91,6.9,2.14,1.12,4.22,3.4,5.18,5.61,2.53,2.3,5.26,4.46,8.2,6.47.31-.15.58-.24.72-.15,1.45,1.06,2.78,2.31,4.03,3.6.11.26.41.66.43.86.01.14,0,.29,0,.43.33,1.1.19,1.67-.43,1.73.03,1.81.31,3.54.86,5.18.38.05.71.13.86.34,33.37,48.65,42.24,112.7,23.5,168.99-2.94,8.84-6.52,17.47-10.68,25.81-2.12,4.25-4.39,8.43-6.82,12.51-1.37,2.3-3.89,4.5-4.34,7.25-.57,3.5,2.91,4.37,3.08,7.74.18.26.27.59.43.86-.09.25,1.03.39-.86,1.73-3.38,3.26-7.29,5.98-11.72,8.17-6.53,2.6-11.54,7.02-16.33,11.68-6.21,6.7-13.36,12.72-20.63,18.3-5.94,4.56-12.28,9.41-19.07,12.34-16.76,9.67-35.88,17.33-54.81,21.57-9.21,2.71-19.31,3.9-28.92,3.88l-2.16.43c-2.45.45-5.42.67-7.77,0-2.29.38-4.62.38-6.91,0-2.33.69-4.98.55-7.34,0l-2.59-.43c-.44.25-.87.43-1.29.41-39.31-1.87-77.59-18.71-108.07-43.17-.72-.58-1.32-1.18-1.55-2.11-1.25-.18-2.47-.87-2.59-2.16-1.39-.78-2.54-1.06-3.45-.86.98.63.58,1.1-.43,1.29-.76.36-2.55-.16-2.16-1.29l-.43.08c-10.02-6.91-20.33-14.54-29.35-22.51-.75.2-1.29-.68-.86-1.29-.45-1.2-.3-1.78.43-1.73.13-3.45.59-6.96,1.38-10.53-.07-1.56-.39-3.08-.95-4.57-.27-.01-.53-.05-.76-.15-.48-.22-5.03-7.62-4.85-8.91-4.22-7.06-7.9-14.45-11.03-22.17l-.19-1.99c-1.31-.19-1.66-2.66-1.73-3.88-2.99-7.31-5.64-15.07-6.91-22.87-3.58-13.2-5.1-27.35-4.75-40.99-.4-1.99-.36-4.05,0-6.04-.65-.41-.65-.89,0-1.29-.34-29.8,7.61-59.86,22.01-85.86,8.26-17.36,20.6-32.95,34.09-46.6,7.97-8.34,17.31-16.54,27.19-22.44,6.15-5.13,13.43-9.4,20.72-12.51,10.14-6.18,21.75-10.55,33.23-13.38,15.27-4.94,31.26-7.65,47.29-8.27,7.5-.29,14.85.03,22.18.67Z"/>
  <path class="st2" d="M192.51,14.54c2.91-.59,5.36-.49,7.34.3v52.24s-.87.53-.87.53c-.84,0-5.55-.2-5.62.25l3.46,133.51-18.74.38-.61-.67-17.77-130.45-20.69,17.92-.45.84-15.54,109.81-.65-.42c-5.34-41.28-9.11-82.79-14.45-124.06-.08-.6.25-.76-.63-.63-7.1,4.72-14.57,8.98-21.6,13.79-1.1.75-3.06,1.73-3.55,2.93-7.08,43.06-14.51,86.08-21.69,129.11-5.6,6.64-13.56,3.83-19.46-.94-8.06-4.21-18.31,2.54-24.99,6.99C6.46,155.51,36.16,87.26,94.41,46.98c27.16-18.78,64.77-32.54,98.1-32.44Z"/>
  <path class="st1" d="M153.67,188.86c7.4,45.86,15.02,91.71,22.01,137.64,7.76-.05,15.54.08,23.3,0l.86.3v58.29c-.59.93-1.75,1.11-3.45.52-7.93.28-16.47-.65-24.31-1.8-40.55-5.96-78.59-26.03-106.68-55.6l-.19-1c8.64-43.96,17.28-87.92,25.88-131.88,1.48-2.37,4.77-4.58,7.29-6.01,1.52-1.32,2.98-1.76,4.37-1.32,5.85,40.68,11.33,81.44,17.27,122.11l22.01-111.75c2.71-3.63,5.26-7.38,7.65-11.23,1.53-1.03,3.49.17,4,1.74Z"/>
  <path class="st5" d="M382.84,232.43c-10.77-1.65-20.71-3.6-30.68-8.72-8.47-4.35-17.38-10.84-22.58-18.72-1.44,5.25-5.76,10.53-9.6,14.55-8.52,8.92-20.18,15.36-32.43,16.96.61.42.62,2.61-.52,2.83-.71-.45-.43-1.64-.44-2.37-.37-35.12,1.38-74.7,5.62-109.6,2-16.43,9.73-29.33,28.28-27.85,10.39.83,18.42,8.7,23.93,16.84l5.62-25.46c.48-.5,7.41,10.39,7.94,11.25,24.32,39.3,32.66,84.6,24.85,130.27Z"/>
  <path class="st5" d="M192.51,14.54c.45-.72,1.64-.43,2.37-.44,20.13-.25,40,2.26,59.25,8.09,34.05,10.32,64.7,30.76,87.71,57.72.13.59-.03.81-.63.63-2.11-.63-5.31-2.84-7.89-3.77-16.32-5.85-32.67-1.75-45.43,9.59-10.44,9.28-15.29,29.58-17.91,42.93-4.24,21.6-5.61,43.66-7.11,65.59h-43.59l.62-97.11,56.38.27-.89-30.45c-25.45.2-50.94-.26-76.39,0V14.54c-2.15,0-4.32,0-6.47,0Z"/>
  <path class="st6" d="M222.72,227.26l1.51-.09c12.48,4.07,25.22,6.95,38.22,8.63l1.47.66c-.11,2.17-.04,4.28.23,6.33,1.81,34.31,1.07,67.49,37.99,82.61,12.05,4.93,24.9,2.97,36.46-2.36l.21.64c-27.57,30.49-64.58,51.83-105.29,59.13-11.38,2.04-21.98,2.52-33.43,3.24-1.04.07-2.86.26-3.69-.45.86-.03,1.73.03,2.59,0v-59.11c7.49-.07,14.96-.18,22.44-.43.1-3.52-.13-7.07-.02-10.59.93-29.34.09-58.88,1.31-88.22Z"/>
  <path class="st6" d="M287.03,239.34c.04-1.13-.11-2.27.06-3.39,18.67-3.14,34.06-14.68,42.45-31.55,10.83,13.14,25.69,21.96,42.42,25.32,3.24.65,6.57.83,9.81,1.44,1.14.21,1.2-.47,1.07,1.28-4.56,26.67-15.07,52.29-30.86,74.21l-9.28-15.53c-11.58,14.35-34.22,19.3-47.04,3.68-4.02-4.9-4.99-10.39-5.96-16.48-1.92-12-3.04-26.84-2.66-38.98Z"/>
  <path class="st1" d="M60.45,219.92c-4.7,28.17-9.21,56.38-13.81,84.57-4.49-5.52-8.4-12.32-11.72-18.7-9.73-18.67-16.09-38.93-18.91-59.83-.18-1.88,2.45-2.87,3.87-3.68,3.6-2.04,12.66-6.14,16.57-5.77,7,.66,9.59,7.96,17.99,6.24,2.21-.45,3.86-2.27,6.02-2.83Z"/>
  <path class="st1" d="M196.83,223.81v76.37h-5.61s-9.07-76.16-9.07-76.16c-.06-.9.01-.55.64-.65,1.54-.23,2.87.4,4.31.45,3.23.12,6.5-.12,9.73-.02Z"/>
  <path class="st4" d="M222.72,227.26c.04-1-.03-2.02,0-3.02l41.44-.86v19.42c0-.06-.41-.49-.45-1.04-.12-1.64.15-3.33,0-4.97-14.06-1.27-27.69-4.97-40.98-9.51Z"/>
  <path class="st0" d="M102.74,187.99c-4.31,1.75-7.71,4.96-11.65,7.34,2.36-12.06,4.66-24.16,6.91-36.24.59-.11.65.77.74,1.19,1.83,8.49,2.74,18.93,4,27.72Z"/>
  <path class="st0" d="M153.67,188.86c-1-.34-2.47-1.74-3.46-1.1-.27.17-2.59,4.46-3.27,5.38-1.41,1.9-3.03,3.77-4.93,5.21l6.91-36.24c.87.17.7.91.86,1.51,1.91,7.55,2.61,17.34,3.89,25.24Z"/>
</svg>