<svg xmlns="http://www.w3.org/2000/svg" width="155.78" height="173.058" viewBox="0 0 155.78 173.058">
  <g id="Grupo_2" data-name="Grupo 2" transform="translate(-23.376 246.434)">
    <g id="Grupo_1" data-name="Grupo 1" transform="translate(23.379 -246.425)">
      <path id="Caminho_2" data-name="Caminho 2" d="M106.064-73.548a42.964,42.964,0,0,0,37.681-39.426h.348a35.289,35.289,0,0,0,35.063-35.063,35.056,35.056,0,0,0-25.818-33.842,29.1,29.1,0,0,0,2.791-12.212,27.582,27.582,0,0,0-27.387-27.562h-.7a26.907,26.907,0,0,0-22.852-24.6,34.9,34.9,0,0,0-4.188-.175,26.627,26.627,0,0,0-26.339,24.773h-.7A27.36,27.36,0,0,0,46.751-194.44a27.155,27.155,0,0,0,2.789,12.559,35.211,35.211,0,0,0-26.164,33.842,35.4,35.4,0,0,0,35.06,35.063h.525A42.327,42.327,0,0,0,101-73.376c1.747,0,3.315-.173,5.059-.173" transform="translate(-23.379 246.425)" fill="#00a650" fill-rule="evenodd"/>
      <path id="Caminho_3" data-name="Caminho 3" d="M127.331-87.682a37.175,37.175,0,0,0,11.338-20.76l1.048-9.594a95.4,95.4,0,0,0,12.212-.523c20.759-5.584,28.783-28.085,14.653-44.832-6.282-6.28-12.036-7.676-20.759-10.293,3.665-8.9,7.152-14.828,3.665-24.422-5.059-10.991-14.13-11.863-25.3-11.863-.349-4.013-.523-7.852-1.744-11.513-6.107-17.443-28.611-16.92-35.761-.523-1.221,3.49-1.571,8.023-1.921,11.688-9.767,0-16.92.349-23.375,8.724C54.933-191.476,58.6-183.975,64-173.857c-9.769,2.791-16.574,4.188-22.854,12.038-8.2,10.118-7.5,23.722.525,33.667,5.754,6.978,12.209,9.594,20.933,10.117h6.627c1.048,9.594,1.921,16.747,7.155,24.77,13.257,16.747,34.715,18.841,50.937,5.584" transform="translate(-26.503 243.289)" fill="#fff" fill-rule="evenodd"/>
      <path id="Caminho_4" data-name="Caminho 4" d="M139.35-190.513H115.973v-4.712h2.792a.962.962,0,0,0,.873-.523c.348-.175.523-.873.523-1.4v-4.186a3.491,3.491,0,0,0-1.571-3.143c.35-.348.873-.7,1.048-1.22a3.524,3.524,0,0,0,.523-1.917v-3.49a3.9,3.9,0,0,0-.175-1.744,2.121,2.121,0,0,0-1.569-.526h-2.444v-4.708h16.574v4.708h-2.094c-.7,0-1.221.175-1.4.526-.348.175-.523.87-.523,1.744v3.49a4.394,4.394,0,0,0,.348,1.742,5.271,5.271,0,0,0,1.4,1.4,3.276,3.276,0,0,0-1.744,3.143v6.1h1.744a2.73,2.73,0,0,0,2.093-1.046,4.834,4.834,0,0,0,.872-2.791v-3.315h6.1v11.864" transform="translate(-47.594 239.011)" fill="#00a650" fill-rule="evenodd"/>
      <path id="Caminho_5" data-name="Caminho 5" d="M57.121-120.159l-6.1.175v-11.163H74.738v11.163h-6.1v-4.533a2.688,2.688,0,0,0-.35-1.4,1.586,1.586,0,0,0-.871-.525h-.7v5.759a2.591,2.591,0,0,0,.523,1.741,3.277,3.277,0,0,0,1.046,1.221,3.494,3.494,0,0,0-1.569,3.142v4.36a1.976,1.976,0,0,0,.523,1.4c.175.172.525.523.873.523H70.38v4.535h-15V-108.3h2.269c.348,0,.7-.35,1.048-.523a3.313,3.313,0,0,0,.348-1.4v-4.361a3.019,3.019,0,0,0-1.744-3.142,4.671,4.671,0,0,0,1.4-1.221,4.4,4.4,0,0,0,.348-1.741v-5.759h-.7a1.321,1.321,0,0,0-.871.35,3.269,3.269,0,0,0-.35,1.4v4.533" transform="translate(-30.607 216.278)" fill="#00a650" fill-rule="evenodd"/>
      <path id="Caminho_6" data-name="Caminho 6" d="M147.157-55.67h3.14v4.363c0,.348,0,.521.175.7,0,.35.175.35.348.35.348,0,.523,0,.523-.35,0-.175.175-.348.175-.7v-4.188a3.51,3.51,0,0,0-.175-.871.9.9,0,0,0-.7-.35H149.6v-2.442h1.049c.348,0,.52-.175.7-.175a7.536,7.536,0,0,0,.175-.871V-63a7.55,7.55,0,0,0-.175-.873c0-.173-.175-.348-.523-.348s-.523.348-.523,1.046V-60.2h-3.14v-4.188a1.906,1.906,0,0,1,.173-.873c.174-.348.35-.523.525-.873.348-.173.523-.348.87-.521h3.491a1.318,1.318,0,0,1,.872.173,3.818,3.818,0,0,1,.871.523,2.429,2.429,0,0,1,.525.7c0,.348.173.523.173.873v3.838a3.48,3.48,0,0,1-.349,1.571,2.984,2.984,0,0,1-1.048,1.046,2.949,2.949,0,0,1,1.048,1.046,3.48,3.48,0,0,1,.349,1.571v4.534a4.669,4.669,0,0,1-.349,1.921c-.174.523-.525.7-1.048,1.046a5.946,5.946,0,0,1-1.919.175,9.956,9.956,0,0,1-2.442-.175,2.419,2.419,0,0,1-1.4-.871,5.723,5.723,0,0,1-.348-2.1V-55.67" transform="translate(-55.749 199.413)" fill="#00a650" fill-rule="evenodd"/>
      <path id="Caminho_7" data-name="Caminho 7" d="M102.129-47.644V-61.6h-1.746v-2.617a2.629,2.629,0,0,0,2.444-2.442h2.614v19.014h-3.312" transform="translate(-43.517 199.413)" fill="#00a650" fill-rule="evenodd"/>
      <path id="Caminho_8" data-name="Caminho 8" d="M193.489-103.76H172.9v-4.54h2.8a.965.965,0,0,0,.873-.523c.348-.175.52-.873.52-1.4v-4.361a6.242,6.242,0,0,0-.348-1.919,8.154,8.154,0,0,0-1.221-1.224c1.049-.347,1.569-1.393,1.569-2.789v-3.663a4.056,4.056,0,0,0-.348-1.919,2.1,2.1,0,0,0-1.393-.525H172.9v-4.533h19.711a9.215,9.215,0,0,1,4.538,1.221,6.609,6.609,0,0,1,2.267,3.663c.523,1.571.871,2.617,1.4,2.967-.175,0-.35.348-.35.348a5.631,5.631,0,0,0-.524,1.045,11.558,11.558,0,0,0-.7,1.919,4.054,4.054,0,0,1-1.572,1.919,6.514,6.514,0,0,1-3.488.7v.35a6.4,6.4,0,0,1,3.488.871,4.335,4.335,0,0,1,2.094,2.792c.348,1.221.872,1.919,1.4,2.092-.172,0-.348.35-.523.7a5.687,5.687,0,0,0-.7,2.442,6.96,6.96,0,0,1-2.269,3.14,7.437,7.437,0,0,1-4.186,1.221h0Zm-5.233-10.815h-2.79v6.279H188.6a2.677,2.677,0,0,0,1.747-.7,3.623,3.623,0,0,0,.7-2.617,3.224,3.224,0,0,0-.7-2.269,3.064,3.064,0,0,0-2.091-.693Zm0-11.688h-2.79v6.454H188.6a2.676,2.676,0,0,0,1.747-.7,3.624,3.624,0,0,0,.7-2.617,2.97,2.97,0,0,0-.7-2.269,3.239,3.239,0,0,0-2.094-.87" transform="translate(-62.482 216.278)" fill="#00a650" fill-rule="evenodd"/>
      <path id="Caminho_9" data-name="Caminho 9" d="M130.385-50.786v-14.3c.175-.523.35-.873.871-1.048.175-.348.525-.348,1.048-.521h2.1a7.924,7.924,0,0,1,2.267.173,2.325,2.325,0,0,1,1.047,1.221A7.885,7.885,0,0,1,137.885-63v12.209a3.17,3.17,0,0,1-.7,2.444,1.894,1.894,0,0,1-1.221.523,6.548,6.548,0,0,1-1.921.175,5.4,5.4,0,0,1-1.917-.175,1.587,1.587,0,0,1-1.223-.523c-.172-.348-.348-.7-.523-1.048v-1.4Zm4.36-.521V-63.345c0-.523-.172-.871-.7-.871-.349,0-.524.348-.524.871v12.038c0,.7.175,1.046.524,1.046.525,0,.7-.35.7-1.046" transform="translate(-51.363 199.413)" fill="#00a650" fill-rule="evenodd"/>
      <path id="Caminho_10" data-name="Caminho 10" d="M113.615-54.274h3.137v2.967c0,.348.175.521.175.7,0,.35.175.35.525.35.172,0,.348,0,.348-.35.172-.175.172-.348.172-.7v-4.538a2.611,2.611,0,0,1-1.916.7,2.15,2.15,0,0,1-1.746-.873,2.55,2.55,0,0,1-.7-2.094V-63.52a4.381,4.381,0,0,1,.172-1.569c0-.348.175-.523.523-.873a3.656,3.656,0,0,1,1.046-.7h2.792a3.408,3.408,0,0,1,2.442.7q.262.525.525,1.046v14.48a2.784,2.784,0,0,1-.7,2.094,1.586,1.586,0,0,1-1.223.523,4.831,4.831,0,0,1-1.741.175h-.7a3.414,3.414,0,0,1-2.442-.7,2.783,2.783,0,0,1-.7-2.094Zm4.358-4.361v-4.711c0-.523-.172-.871-.52-.871a.8.8,0,0,0-.7.871v4.711c0,.7.35.873.7.873s.52-.175.52-.873" transform="translate(-46.977 199.413)" fill="#00a650" fill-rule="evenodd"/>
      <path id="Caminho_11" data-name="Caminho 11" d="M93.062-102.167l17.445-14.13.87.87L97.247-97.108h43.786L126.9-115.426l1.047-.87,17.272,13.955v-44.482L127.95-132.869l-1.047-1.048,14.13-18.49H97.948l13.43,18.49-1.046,1.048L93.062-147.7v45.53" transform="translate(-41.602 221.838)" fill="#ee2722" fill-rule="evenodd"/>
    </g>
  </g>
</svg>
