<?xml version="1.0" encoding="utf-8"?>
<!-- Generator: Adobe Illustrator 16.0.3, SVG Export Plug-In . SVG Version: 6.00 Build 0)  -->
<!DOCTYPE svg PUBLIC "-//W3C//DTD SVG 1.1//EN" "http://www.w3.org/Graphics/SVG/1.1/DTD/svg11.dtd">
<svg version="1.1" id="Layer_1" xmlns="http://www.w3.org/2000/svg" xmlns:xlink="http://www.w3.org/1999/xlink" x="0px" y="0px"
	 width="563px" height="599px" viewBox="0 0 563 599" enable-background="new 0 0 563 599" xml:space="preserve">
<g>
	<path d="M551.645,214.445c-1.799-58.924-18.25-116.9-44.7-169.449c-33.624,16.625-72.398,22.775-109.397,16.024
		c-39.063-6.425-75.065-24.381-108.046-45.663c0,0,0.818,0.525-7.998-5.125c0,0,0,0-8.313,5.659
		c-35.882,23.115-75.592,42.251-118.521,46.703c-33.354,4.026-67.574-3.025-97.424-18.199
		c-39.575,71.775-54.15,156.475-42.325,237.5c10.925,75.326,45.475,146.975,97.6,202.476c44.25,47.521,106.904,85.2,168.979,104.396
		c0,0,11.691-3.577,19.396-6.425c74.898-27.075,142.648-76.1,187.522-142.375C533.544,374.42,555.446,293.771,551.645,214.445z"/>
	<path fill="#FFFFFF" d="M470.8,286.445c-13.771,64.176-46.875,125.05-97.647,167.35c-27.022,22.626-58.728,41.46-91.651,54.037l0,0
		c-0.02,0.021,0.02-0.023,0,0l0,0l0,0l0,0c-30.736-12.438-64.59-32.715-90.058-54.037c-50.771-42.3-83.876-103.174-97.646-167.35
		C75.471,317.57,62.47,351.596,53.221,386.471c44.15,92.543,129.696,166.496,228.242,195.58c0.021,0.001-0.022-0.001,0,0
		c98.813-28.957,185.667-102.84,229.913-195.58C502.126,351.596,489.125,317.57,470.8,286.445z"/>
	<path fill="#FFFFFF" d="M50.395,379.996C2.945,277.17,6.821,152.645,60.02,52.721c24.175,11.4,50.899,17.975,77.7,17.15
		c8.273,0.35,16.725-1.675,24.825,0.525c39.049,11.426,77.25,25.825,113.875,43.5c-66.575,34.375-127.75,81.775-170.229,144.176
		C80.771,295.121,62.17,336.671,50.395,379.996z"/>
	<path fill="#FFFFFF" d="M451.618,68.57c18.177-2.225,35.677-7.949,52.45-15.1c50.05,100.475,56.65,223.101,10.728,326.276
		c-12.428-44.801-32.023-87.7-59.053-125.601c-42.8-60.55-103.146-107.133-168.998-140.258
		c37.175-18.225,76.05-32.842,115.853-44.167C418.867,68.771,435.395,71.321,451.618,68.57z"/>
	<path d="M513.866,129.57c-0.573-20.725-13.85-40.199-32.5-49.049c-12.214-6.282-25.746-6.562-39.023-4.466
		c-1.536-0.793-3.413-1.413-4.443-1.805v2.854c-13.155,5.898-25.54,14.646-32.337,27.714c-10.975,19.6-6.175,42.8-7.375,64.175
		c1.675,0.026,5.029,0.05,6.725,0.076c-0.05-6.725-0.05-13.45-0.07-20.176c10.322,6.026,21.521,10.326,33.021,13.451
		c-0.047,15.675,0.168,46.917,0.168,46.917c5.799-2.45,11.206-4.967,16.881-7.692c0.276,9.875-0.725,19.85,0.625,29.65
		c7.929,16.275,39.179,10.749,35.805-9.375c-1.525,0.026-4.601,0.026-6.149,0.05c2.399,13.399-18.602,17.075-23.75,6.324
		c-0.325-17.593-0.325-17.593-0.326-30.174c4.701-2.85,14.984-10.316,14.984-10.316c6.145,1.25,9.541,7.067,9.291,13.141
		c1.528-0.024,4.625-0.124,6.175-0.15c0.404-7.975-4.324-14.2-11.273-17.45c7.251-7.175,12.803-15.874,16.324-25.425
		c1.25-5.374,6.953-6.649,11.104-9.099c0.021,6.826,0.021,13.65,0.021,20.475c1.574-0.05,4.725-0.2,6.324-0.25
		C513.817,155.845,514.241,142.695,513.866,129.57z M404.846,141.445c-3.024-23.893,10.439-48.385,33.054-57.217v8.897h0.001
		c-0.027,14.935-0.06,45.104,0.07,62.52C426.271,152.671,415.146,147.72,404.846,141.445z M466.617,186.896
		c-9.06,3.596-8.404,7.574-22.324,13.075c-0.124-12.276,0-24.55-0.072-36.85c15.675,2.275,31.5-0.775,46.396-5.65
		C486.677,166.583,475.737,183.458,466.617,186.896z M492.643,149.221c-15.05,7.124-31.875,9.075-48.325,7.575
		c-0.148-23.975-0.024-71.95-0.024-71.95c18.152,8.925,36.402,21.224,44.873,40.35C492.768,132.671,492.664,141.12,492.643,149.221z
		 M507.846,141.02c-2.875,1.801-5.728,3.576-8.604,5.375c1.729-30.124-22.925-52.575-47.5-65.249
		c18.828-1.476,38.052,7.849,47.979,23.974C506.794,115.669,508.323,128.645,507.846,141.02z"/>
	<path d="M460.602,194.356c1.898-4.107,6.188-7.318,12.896-7.351c0.976-1.87,2.412-3.542,4.422-4.759
		c-5.965-0.49-12.137,1.016-17.096,4.735c-2.814,2.35-5.015,5.247-6.632,8.467c1.783-0.7,3.866-1.104,6.252-1.104
		C460.501,194.344,460.546,194.356,460.602,194.356z"/>
	<path d="M174.038,142.749c-0.086-7.126-1.261-14.232-3.563-20.983c-0.151-0.459-0.312-0.915-0.473-1.371
		c-0.006-0.013-0.01-0.026-0.016-0.039c-3.188-8.965-8.218-17.262-15.01-24.073c-3.263-3.432-6.903-6.476-10.816-9.122
		c0.003-0.003,0.005-0.004,0.006-0.007c-0.107-0.073-0.218-0.143-0.327-0.215c-0.158-0.105-0.317-0.209-0.477-0.313
		c-1.532-1.007-3.104-1.953-4.716-2.834c-0.044-0.024-0.092-0.05-0.137-0.075c-6.746-3.674-14.104-6.233-21.688-7.512
		c0,0-0.005,0.013,0,0c-0.314-0.049-0.625-0.099-0.938-0.143c-0.523-0.082-1.037-0.134-1.563-0.202
		c-0.169-0.02-0.338-0.035-0.507-0.054c-1.721-0.228-3.445-0.373-5.171-0.457c-0.192-0.008-0.421-0.019-0.613-0.027
		c-0.014,0-0.025,0-0.04,0c-0.25-0.01-0.499-0.027-0.75-0.033c-0.327-0.01-0.651-0.021-0.981-0.025
		c-0.142-0.001-0.283,0.001-0.426-0.001l0,0c-0.065-0.002-0.129,0.001-0.192,0.001l-0.245-0.012
		c-2.669,0.008-5.544,0.185-8.206,0.531c-0.24,0.026-0.482,0.048-0.725,0.077c-0.524,0.067-1.037,0.12-1.563,0.202
		c-0.313,0.043-0.625,0.094-0.938,0.143c-5.205,0.878-10.301,2.366-15.17,4.395c0-0.002,0-0.002,0-0.002
		c-0.04,0.016-0.078,0.033-0.116,0.05c-0.425,0.178-0.849,0.36-1.271,0.547c-0.329,0.145-0.656,0.295-0.982,0.445
		c-0.548,0.253-1.094,0.512-1.635,0.778c-0.398,0.196-0.794,0.395-1.189,0.599c-0.183,0.094-0.365,0.189-0.546,0.286
		c0.001,0.003-0.001-0.004,0,0c-6.392,3.37-12.253,7.732-17.245,12.98c-6.79,6.811-11.819,15.108-15.008,24.073
		c-0.004,0.013-0.009,0.026-0.014,0.039c-0.163,0.457-0.322,0.912-0.475,1.371c-2.302,6.75-3.476,13.856-3.562,20.983
		c-0.005,0.335-0.003,0.669-0.004,1.004c0.001,0.334-0.001,0.67,0.004,1.004c0.086,7.128,1.26,14.232,3.562,20.984
		c0.152,0.459,0.313,0.914,0.475,1.371c0.004,0.014,0.009,0.025,0.014,0.037c3.188,8.967,8.218,17.263,15.008,24.074
		c10.094,10.61,23.818,17.657,38.246,20.088c-0.001,0.003-0.226-0.041-0.226-0.036c0.313,0.049,0.76,0.124,1.073,0.168
		c0.523,0.083,1.038,0.136,1.563,0.202c0.168,0.02,0.337,0.035,0.506,0.054c1.722,0.228,3.447,0.372,5.175,0.457
		c0.191,0.008,0.419,0.019,0.611,0.026c0.014,0,0.026,0,0.04,0c0.25,0.011,0.5,0.027,0.75,0.033c0.328,0.01,0.651,0.021,0.981,0.026
		c0.143,0,0.283,0.009,0.427,0.011v-0.011c0.064,0.002,0.129,0,0.191,0l0.245,0.011c2.669-0.008,5.544-0.185,8.204-0.53
		c0.243-0.026,0.485-0.049,0.728-0.077c0.522-0.066,1.035-0.119,1.561-0.202c0.314-0.044,0.625-0.094,0.938-0.143
		c14.429-2.431,28.062-9.467,38.152-20.077c6.792-6.812,11.823-15.107,15.01-24.074c0.005-0.012,0.009-0.023,0.016-0.037
		c0.161-0.457,0.32-0.912,0.473-1.371c2.302-6.752,3.477-13.856,3.563-20.984c0.005-0.334,0.002-0.67,0.002-1.004
		C174.04,143.418,174.043,143.083,174.038,142.749z M64.546,95.105c5.134-3.569,10.488-6.985,16.231-9.51
		c-0.001-0.002,0.001,0.003,0,0c0.552-0.242,1.105-0.478,1.665-0.705c4.998-1.834,10.038-3.096,15.424-3.635l0.093-0.009
		c2.407-0.264,4.83-0.384,7.252-0.384c0.399-0.001,0.801,0.004,1.202,0.01c0.674,0.01,1.348,0.023,2.021,0.054
		c0-0.001,0-0.002-0.001-0.002c1.47,0.061,2.938,0.162,4.399,0.322l0,0c5.294,0.59,10.516,1.81,15.515,3.644
		c1.969,0.795,3.894,1.7,5.774,2.687c0,0.003,0.003-0.002,0,0c4.217,2.208,8.235,4.824,12.125,7.528
		c0.073,0.064,0.15,0.123,0.227,0.187c-2.675,3.465-5.296,6.982-7.825,10.571c-0.475-0.417-0.966-0.732-1.466-1.111
		c-6.099-4.871-13.63-6.886-20.944-5.151c-3.953,0.735-7.634,2.375-10.844,5.148c-3.168-2.678-6.967-4.427-10.844-5.148
		c-7.132-1.691-14.471,0.188-20.485,4.8c-0.658,0.475-1.307,0.918-1.925,1.461c-2.528-3.587-5.149-7.104-7.825-10.569
		C64.392,95.228,64.47,95.169,64.546,95.105z M134.866,176.952c-3.387,4.019-8.224,5.835-13.121,5.789
		c-2.247-0.021-4.054,0.059-6.151-0.67v-0.005c-2.668-0.807-5.196-2.185-7.346-4.111v-0.835c0-0.013,0.006-0.03,0.006-0.04
		c0.02-0.032,0.008-0.02,0-0.004c-0.003-0.904,0-1.812-0.003-2.718c0,0.002-0.001,0.002-0.003,0.002v-53.612
		c0.002-3.189,0.002-6.125,0.006-9.313c-0.003-0.001-0.004-0.255-0.006-0.256v-1.628c2.148-1.927,4.678-3.304,7.346-4.111v-0.005
		c2.098-0.728,3.904-0.648,6.151-0.669c4.897-0.047,9.734,1.77,13.121,5.788c-0.276,2.403-0.367,4.809-0.28,7.191
		c-0.121,9.615,3.64,18.802,10.358,26.008c-6.72,7.205-10.479,16.393-10.358,26.008C134.499,172.145,134.59,174.549,134.866,176.952
		z M102.539,110.43c0.003,2.941,0.003,5.882,0.004,8.824v53.339c-0.001-0.003-0.002-0.004-0.004-0.007c0,1.247,0,2.491,0,3.737
		c0.001,0,0.003,0.002,0.004,0.002v1.629c-2.151,1.927-4.677,3.305-7.346,4.111c0,0.002-0.001,0.004-0.001,0.005
		c-2.098,0.729-3.903,0.648-6.15,0.67c-4.897,0.046-9.734-1.771-13.12-5.789c0.275-2.402,0.366-4.808,0.28-7.191
		c0.12-9.615-3.641-18.803-10.358-26.008c6.719-7.206,10.479-16.393,10.358-26.009c0.086-2.381-0.005-4.787-0.28-7.19
		c3.386-4.018,8.223-5.835,13.12-5.788c2.247,0.021,4.054-0.059,6.15,0.669c0,0.001,0.001,0.003,0.001,0.005
		c2.668,0.807,5.194,2.184,7.346,4.111v0.836c0,0.012-0.004,0.03-0.004,0.04C102.543,110.387,102.539,110.743,102.539,110.43z
		 M41.718,140.769c0.076-0.875,0.174-1.746,0.281-2.614c0.07-0.549,0.151-1.096,0.234-1.644c0.053-0.354,0.102-0.708,0.159-1.061
		c0.127-0.765,0.271-1.528,0.421-2.289c0.034-0.171,0.065-0.346,0.101-0.518c0.161-0.774,0.338-1.544,0.524-2.313
		c0.047-0.193,0.088-0.387,0.137-0.579c0.162-0.648,0.342-1.29,0.521-1.932c0.095-0.342,0.188-0.685,0.289-1.026
		c0.127-0.429,0.268-0.854,0.403-1.281c0.182-0.571,0.36-1.142,0.557-1.706c0.053-0.155,0.112-0.309,0.167-0.464
		c3.161-8.892,8.114-17.124,14.63-24.101c4.751,5.603,10.068,11.871,10.448,19.463c0,0.3,0.007,0.599-0.011,0.903
		c0.016,0.199,0.011,0.393,0.019,0.59c-0.008,0.223-0.002,0.441-0.019,0.667c0.021,0.331,0.016,0.655,0.017,0.982
		c-0.378,7.523-5.576,13.787-10.562,19.12C53.936,140.818,47.841,140.818,41.718,140.769L41.718,140.769z M45.512,164.163
		c-0.055-0.154-0.114-0.309-0.167-0.464c-0.196-0.565-0.375-1.137-0.557-1.706c-0.136-0.426-0.276-0.852-0.403-1.281
		c-0.101-0.34-0.193-0.684-0.289-1.028c-0.18-0.641-0.359-1.282-0.521-1.93c-0.049-0.192-0.09-0.387-0.137-0.578
		c-0.187-0.769-0.363-1.539-0.524-2.314c-0.034-0.171-0.065-0.346-0.101-0.518c-0.15-0.76-0.294-1.521-0.421-2.288
		c-0.058-0.354-0.105-0.706-0.159-1.062c-0.083-0.546-0.164-1.093-0.234-1.642c-0.107-0.87-0.205-1.739-0.281-2.614l0,0
		c6.123-0.05,12.218-0.05,18.316-0.198c4.984,5.332,10.183,11.596,10.562,19.12c-0.001,0.325,0.005,0.651-0.017,0.982
		c0.017,0.225,0.011,0.443,0.019,0.666c-0.008,0.197-0.003,0.392-0.019,0.589c0.019,0.306,0.011,0.604,0.011,0.903
		c-0.38,7.593-5.697,13.862-10.448,19.464C53.626,181.288,48.673,173.057,45.512,164.163z M146.247,192.401
		c-5.629,3.911-11.521,7.643-17.898,10.215c-4.999,1.835-10.134,3.104-15.518,3.642l0.001,0.003
		c-2.406,0.263-4.83,0.384-7.253,0.384c-0.4,0.001-0.802-0.004-1.202-0.01c-0.674-0.011-1.348-0.024-2.021-0.055
		c0,0.001,0,0.003,0,0.003c-1.469-0.062-2.937-0.163-4.396-0.322l0.001-0.003c-5.296-0.59-10.521-1.807-15.519-3.642
		c-6.379-2.572-12.271-6.304-17.896-10.215c-0.076-0.063-0.154-0.123-0.229-0.186c2.676-3.467,5.298-6.982,7.826-10.571
		c0.476,0.416,0.965,0.732,1.466,1.111c6.098,4.87,13.629,6.885,20.942,5.15c3.955-0.734,7.635-2.374,10.844-5.147
		c3.167,2.677,6.968,4.427,10.844,5.147c7.135,1.691,14.472-0.188,20.487-4.799c0,0.019,0.004,0.037,0.004,0.056
		c0.658-0.475,1.302-0.975,1.918-1.518c2.53,3.588,5.15,7.105,7.825,10.57C146.398,192.278,146.321,192.338,146.247,192.401z
		 M169.073,146.738c-0.073,0.875-0.172,1.744-0.28,2.614c-0.07,0.549-0.15,1.096-0.234,1.642c-0.052,0.355-0.1,0.708-0.156,1.062
		c-0.13,0.766-0.271,1.528-0.422,2.288c-0.037,0.172-0.064,0.347-0.1,0.518c-0.161,0.773-0.337,1.543-0.524,2.308
		c-0.047,0.197-0.09,0.391-0.139,0.586c-0.161,0.646-0.34,1.288-0.52,1.929c-0.098,0.344-0.188,0.688-0.291,1.028
		c-0.127,0.43-0.268,0.855-0.399,1.281c-0.182,0.569-0.362,1.141-0.558,1.706c-0.055,0.155-0.113,0.31-0.169,0.464
		c-3.161,8.894-8.113,17.125-14.629,24.102c-4.752-5.602-10.067-11.871-10.447-19.464c0-0.3-0.009-0.598,0.011-0.903
		c-0.016-0.197-0.011-0.392-0.02-0.589c0.009-0.223,0.001-0.441,0.02-0.666c-0.021-0.331-0.016-0.657-0.019-0.982
		c0.381-7.524,5.576-13.788,10.563-19.12C156.855,146.688,162.95,146.688,169.073,146.738L169.073,146.738z M169.073,140.77
		c-6.121,0.049-12.217,0.049-18.314,0.198c-4.986-5.333-10.182-11.597-10.563-19.12c0.002-0.327-0.003-0.651,0.019-0.982
		c-0.019-0.226-0.011-0.444-0.02-0.667c0.009-0.197,0.004-0.391,0.02-0.59c-0.02-0.305-0.011-0.604-0.011-0.903
		c0.38-7.592,5.695-13.86,10.447-19.463c6.516,6.977,11.468,15.209,14.629,24.101c0.056,0.155,0.114,0.309,0.168,0.464
		c0.196,0.564,0.375,1.135,0.559,1.706c0.133,0.427,0.272,0.852,0.399,1.281c0.104,0.341,0.193,0.686,0.291,1.028
		c0.18,0.641,0.358,1.282,0.52,1.928c0.049,0.194,0.092,0.391,0.139,0.586c0.188,0.766,0.363,1.535,0.524,2.307
		c0.034,0.172,0.063,0.347,0.1,0.518c0.151,0.761,0.292,1.523,0.422,2.289c0.057,0.352,0.104,0.706,0.156,1.061
		c0.084,0.547,0.165,1.094,0.234,1.643C168.901,139.022,168.999,139.893,169.073,140.77
		C169.073,140.769,169.073,140.769,169.073,140.77z"/>
	<path d="M78.396,362.296c10.95-8,28.676-4.2,33.125,9.325c-2.226,0.625-6.648,1.875-8.875,2.5
		c-3.375-8.275-15.398-11.126-20.625-3.125c-4.273,8.449-4.773,21.999,4.149,27.725c7.396,3.7,14.251-2.05,16.396-8.949
		c3.025,0.924,6.052,1.875,9.075,2.853c-2.522,4.85-4.824,10.525-10.125,13c-10.05,4.771-24.273,1.725-29.075-9.076
		C67.346,385.596,68.571,370.271,78.396,362.296z"/>
	<path d="M117.368,470.946c6.198-16,12.476-31.979,18.676-48c3.375,0,6.751,0,10.126-0.024c6.375,16,12.648,32.149,19.273,48.025
		c-3.474,0-7.013,0-10.463,0c-1.396-3.674-2.813-7.45-4.265-11.125c-6.45,0-12.875,0-19.325,0c-1.3,3.646-2.701,7.476-3.951,11.125
		L117.368,470.946L117.368,470.946z M140.844,433.796c-2.201,6.05-4.375,12.125-6.676,18.149c4.551-0.054,9.126-0.074,13.676-0.074
		C145.519,445.846,143.294,439.771,140.844,433.796z"/>
	<path d="M189.469,483.644c0,0,11.392,0.067,17.088,0.021c3.855,0.054,7.819-0.313,11.55,0.734
		c6.069,1.382,10.955,5.917,11.896,11.189c0.334,3.078,0.443,6.396-1.385,9.19c-1.673,3.052-5.105,4.958-8.514,6.469
		c3.972,6.979,8.447,13.745,12.441,20.719l-12.854,0.055c0,0,0,0-1.021-1.69c-3.325-5.95-6.603-11.778-10.127-17.643
		c-2.585,0.049-5.331-0.029-7.917,0c-0.049,6.428-0.026,12.904-0.002,19.333l-11.154-0.038L189.469,483.644L189.469,483.644z
		 M200.708,491.992c0,0-0.031,8.498,0,12.758c3.817-0.063,7.583,0.112,11.392-0.043c3.651-0.054,6.96-2.776,6.944-5.902
		c0.311-2.743-1.869-5.499-4.94-6.334C209.691,491.709,205.171,491.917,200.708,491.992z"/>
	<path d="M262.844,517.643h38.025l0.022,7.9c0,0,0,0-14.268-0.001c0,13.374-0.107,26.676,0.066,40.051
		c-3.146-0.021-6.271-0.021-9.396-0.021c0.05-13.375,0.065-26.684,0.017-40.029c0,0,0.123,0-14.469-0.021
		C262.843,525.61,262.844,517.643,262.844,517.643z"/>
	<path d="M335.344,529.979c6.196-16,12.475-31.975,18.674-48c3.375,0,6.75,0,10.125-0.021c6.375,16,12.651,32.146,19.275,48.025
		c-3.476,0-7.015,0-10.464,0c-1.396-3.678-2.813-7.45-4.265-11.125c-6.45,0-12.875,0-19.325,0c-1.3,3.646-2.701,7.476-3.951,11.125
		h-10.069V529.979L335.344,529.979z M358.82,492.829c-2.201,6.05-4.375,12.125-6.676,18.146c4.551-0.05,9.126-0.07,13.675-0.07
		C363.49,504.879,361.269,498.804,358.82,492.829z"/>
	<path d="M431.674,461.696c0.001,0,0.002-0.001,0.003-0.001c0.007-0.013,0.014-0.023,0.02-0.035
		c4.895-7.652,9.766-15.322,14.61-23.008c0.828-1.283,1.646-2.569,2.438-3.859h-10.714c-2.071,3.334-4.147,6.863-6.196,10.398
		c-1.797,3.072-3.814,6.156-5.556,9.184c-3.774-6.5-7.46-13.182-11.436-19.582h-0.317h-10.714c0.793,1.291,1.611,2.577,2.44,3.861
		c4.843,7.682,9.712,15.35,14.603,22.998c0.009,0.015,0.018,0.028,0.025,0.044c0.001,0,0.002,0.001,0.004,0.001
		c0.274,0.432,0.549,0.863,0.825,1.295c0,0,0.009,0.076-0.082,18.421c-0.012,0.521-0.022,1.04-0.031,1.579h0.022h9.317h0.023
		c-0.01-0.539-0.021-1.058-0.031-1.579c-0.092-18.345-0.082-18.421-0.082-18.421C431.123,462.561,431.398,462.128,431.674,461.696z"
		/>
	<path d="M446.096,403.771c6.198-16,12.475-31.978,18.674-48c3.375,0,6.75,0,10.125-0.023c6.375,16,12.651,32.148,19.275,48.025
		c-3.476,0-7.015,0-10.464,0c-1.396-3.678-2.813-7.451-4.265-11.127c-6.45,0-12.875,0-19.325,0c-1.3,3.648-2.701,7.478-3.951,11.127
		L446.096,403.771L446.096,403.771z M469.571,366.621c-2.201,6.05-4.375,12.125-6.676,18.148c4.551-0.053,9.126-0.074,13.675-0.074
		C474.242,378.67,472.021,372.596,469.571,366.621z"/>
	<path fill="#FF0000" d="M192.87,61.571c18.676-5.525,36.448-13.525,53.898-22.101c0,18.676,0.399,37.376-0.075,56.051
		c-17.646-7.65-35.75-14.1-53.896-20.426C192.821,70.595,192.845,66.096,192.87,61.571z"/>
	<path fill="#FF0000" d="M316.721,39.295c17.475,8.7,35.271,16.875,54.073,22.25c0,4.401-0.022,8.826-0.022,13.225
		c-18.301,6.4-36.526,13-54.353,20.651C316.595,76.721,316.446,57.995,316.721,39.295z"/>
	<path fill="#FF0000" d="M193.021,172.37c17.274-13.099,34.977-25.775,53.925-36.35c0.229,116.625,0.025,233.25,0.104,349.899
		c-19.301-10.174-37.15-22.849-54.075-36.549C192.946,357.046,192.845,264.72,193.021,172.37z"/>
	<path fill="#FF0000" d="M316.493,135.596c18.774,10.799,36.551,23.199,53.824,36.226c0.325,92.699-0.05,185.425,0.2,278.125
		c-16.524,14.175-34.979,25.874-53.95,36.475C316.493,369.471,316.618,252.545,316.493,135.596z"/>
	<path fill="#FF0000" d="M96.833,281.333c7.822-13.4,16.699-26.31,25.833-38.167l0.896,116.167
		C111.256,333.333,101.333,305.333,96.833,281.333z"/>
	<path fill="#FF0000" d="M441.832,359.333l0.896-116.167c9.134,11.857,18.01,24.767,25.833,38.167
		C464.063,305.333,454.14,333.333,441.832,359.333z"/>
</g>
</svg>
