<?xml version="1.0" encoding="UTF-8"?>
<!DOCTYPE svg PUBLIC "-//W3C//DTD SVG 1.1//EN" "http://www.w3.org/Graphics/SVG/1.1/DTD/svg11.dtd">
<svg xmlns="http://www.w3.org/2000/svg" version="1.1" width="316px" height="316px" style="shape-rendering:geometricPrecision; text-rendering:geometricPrecision; image-rendering:optimizeQuality; fill-rule:evenodd; clip-rule:evenodd" xmlns:xlink="http://www.w3.org/1999/xlink">
<g><path style="opacity:0.908" fill="#fbfcfd" d="M 138.5,-0.5 C 151.167,-0.5 163.833,-0.5 176.5,-0.5C 180.316,0.482425 184.316,1.14909 188.5,1.5C 194.687,3.29824 201.021,4.96491 207.5,6.5C 208.209,7.40397 209.209,7.73731 210.5,7.5C 217.341,10.676 224.341,13.676 231.5,16.5C 241.987,22.4721 251.82,29.4721 261,37.5C 262.871,36.3322 264.371,36.8322 265.5,39C 265.167,39.3333 264.833,39.6667 264.5,40C 268.672,44.8894 273.172,48.7228 278,51.5C 277.377,53.9849 278.377,55.9849 281,57.5C 281.667,56.1667 282.333,56.1667 283,57.5C 283.617,58.4491 283.451,59.2825 282.5,60C 283.552,61.1192 284.719,61.6192 286,61.5C 285.383,63.0948 285.716,64.4281 287,65.5C 287.667,64.1667 288.333,64.1667 289,65.5C 294.505,73.8399 299.505,82.5065 304,91.5C 304.595,92.8989 304.428,94.2322 303.5,95.5C 304.183,98.4614 305.016,98.7947 306,96.5C 308.548,102.52 310.714,108.687 312.5,115C 312.095,115.945 311.428,116.612 310.5,117C 311.191,118.067 311.691,119.234 312,120.5C 312.333,119.5 312.667,118.5 313,117.5C 314.149,120.393 314.649,123.393 314.5,126.5C 313.167,127.833 313.167,129.167 314.5,130.5C 314.194,133.385 314.527,136.052 315.5,138.5C 315.5,151.167 315.5,163.833 315.5,176.5C 314.527,178.948 314.194,181.615 314.5,184.5C 313.167,185.833 313.167,187.167 314.5,188.5C 314.649,191.607 314.149,194.607 313,197.5C 312.667,196.5 312.333,195.5 312,194.5C 311.691,195.766 311.191,196.933 310.5,198C 311.428,198.388 312.095,199.055 312.5,200C 310.836,206.542 308.503,212.709 305.5,218.5C 305.167,215.833 304.833,215.833 304.5,218.5C 303.167,219.167 303.167,219.833 304.5,220.5C 300.367,231.439 294.701,241.439 287.5,250.5C 287.167,249.167 286.833,249.167 286.5,250.5C 285.167,250.833 285.167,251.167 286.5,251.5C 286.573,253.027 285.906,254.027 284.5,254.5C 284.167,253.167 283.833,253.167 283.5,254.5C 282.167,254.833 282.167,255.167 283.5,255.5C 283.573,257.027 282.906,258.027 281.5,258.5C 281.167,257.167 280.833,257.167 280.5,258.5C 279.833,258.5 279.5,258.833 279.5,259.5C 278.833,259.5 278.5,259.833 278.5,260.5C 277.167,260.833 277.167,261.167 278.5,261.5C 278.262,263.404 277.262,264.738 275.5,265.5C 275.167,264.167 274.833,264.167 274.5,265.5C 273.833,265.5 273.5,265.833 273.5,266.5C 272.833,266.5 272.5,266.833 272.5,267.5C 271.833,267.5 271.5,267.833 271.5,268.5C 270.833,268.5 270.5,268.833 270.5,269.5C 269.833,269.5 269.5,269.833 269.5,270.5C 268.833,270.5 268.5,270.833 268.5,271.5C 267.833,271.5 267.5,271.833 267.5,272.5C 266.833,272.5 266.5,272.833 266.5,273.5C 265.833,273.5 265.5,273.833 265.5,274.5C 264.167,274.833 264.167,275.167 265.5,275.5C 264.738,277.262 263.404,278.262 261.5,278.5C 261.167,277.167 260.833,277.167 260.5,278.5C 259.833,278.5 259.5,278.833 259.5,279.5C 258.833,279.5 258.5,279.833 258.5,280.5C 257.833,280.5 257.5,280.833 257.5,281.5C 256.508,281.328 255.842,281.662 255.5,282.5C 254.833,282.5 254.5,282.833 254.5,283.5C 253.833,283.5 253.5,283.833 253.5,284.5C 252.508,284.328 251.842,284.662 251.5,285.5C 250.833,285.5 250.5,285.833 250.5,286.5C 249.833,286.5 249.5,286.833 249.5,287.5C 248.508,287.328 247.842,287.662 247.5,288.5C 246.833,288.5 246.5,288.833 246.5,289.5C 245.508,289.328 244.842,289.662 244.5,290.5C 243.833,290.5 243.5,290.833 243.5,291.5C 242.508,291.328 241.842,291.662 241.5,292.5C 240.833,292.5 240.5,292.833 240.5,293.5C 239.508,293.328 238.842,293.662 238.5,294.5C 237.508,294.328 236.842,294.662 236.5,295.5C 235.508,295.328 234.842,295.662 234.5,296.5C 233.833,296.5 233.5,296.833 233.5,297.5C 232.508,297.328 231.842,297.662 231.5,298.5C 230.508,298.328 229.842,298.662 229.5,299.5C 228.508,299.328 227.842,299.662 227.5,300.5C 226.508,300.328 225.842,300.662 225.5,301.5C 224.508,301.328 223.842,301.662 223.5,302.5C 222.209,302.263 221.209,302.596 220.5,303.5C 219.508,303.328 218.842,303.662 218.5,304.5C 217.508,304.328 216.842,304.662 216.5,305.5C 215.209,305.263 214.209,305.596 213.5,306.5C 212.209,306.263 211.209,306.596 210.5,307.5C 209.209,307.263 208.209,307.596 207.5,308.5C 201.021,310.035 194.687,311.702 188.5,313.5C 186.901,313.232 185.568,313.566 184.5,314.5C 181.615,314.194 178.948,314.527 176.5,315.5C 163.833,315.5 151.167,315.5 138.5,315.5C 136.052,314.527 133.385,314.194 130.5,314.5C 122.979,312.369 115.312,310.369 107.5,308.5C 106.791,307.596 105.791,307.263 104.5,307.5C 96.9102,304.185 89.2435,300.852 81.5,297.5C 71.9551,291.47 62.7884,284.804 54,277.5C 52.1291,278.668 50.6291,278.168 49.5,276C 49.8333,275.667 50.1667,275.333 50.5,275C 46.3275,270.111 41.8275,266.277 37,263.5C 37.6228,261.015 36.6228,259.015 34,257.5C 33.3333,258.833 32.6667,258.833 32,257.5C 31.3828,256.551 31.5494,255.718 32.5,255C 30.9255,254.664 29.5922,253.831 28.5,252.5C 21.7241,243.94 15.7241,233.773 10.5,222C 11.8019,220.077 11.6352,218.243 10,216.5C 9.66667,217.167 9.33333,217.833 9,218.5C 6.45218,212.48 4.28551,206.313 2.5,200C 2.90536,199.055 3.57203,198.388 4.5,198C 3.80945,196.933 3.30945,195.766 3,194.5C 2.33333,198.5 1.66667,198.5 1,194.5C 0.393401,191.798 0.560068,189.132 1.5,186.5C 0.988905,182.998 0.322238,179.665 -0.5,176.5C -0.5,163.833 -0.5,151.167 -0.5,138.5C 0.322238,135.335 0.988905,132.002 1.5,128.5C 0.120922,124.77 0.287589,121.103 2,117.5C 2.33333,118.5 2.66667,119.5 3,120.5C 3.30945,119.234 3.80945,118.067 4.5,117C 3.57203,116.612 2.90536,115.945 2.5,115C 4.28551,108.687 6.45218,102.52 9,96.5C 9.9836,98.7947 10.8169,98.4614 11.5,95.5C 10.5721,94.2322 10.4054,92.8989 11,91.5C 15.4947,82.5065 20.4947,73.8399 26,65.5C 27.2812,65.6192 28.4479,65.1192 29.5,64C 28.5494,63.2825 28.3828,62.4491 29,61.5C 30.2812,61.6192 31.4479,61.1192 32.5,60C 31.5494,59.2825 31.3828,58.4491 32,57.5C 34.1193,57.4928 35.9526,56.3261 37.5,54C 36.3322,52.1291 36.8322,50.6291 39,49.5C 39.3333,49.8333 39.6667,50.1667 40,50.5C 57.3926,31.5992 78.8926,17.2659 104.5,7.5C 105.791,7.73731 106.791,7.40397 107.5,6.5C 117.868,3.76285 128.201,1.42952 138.5,-0.5 Z"/></g>
<g><path style="opacity:0.007" fill="#fefffe" d="M 188.5,1.5 C 190.5,0.166667 192.5,0.166667 194.5,1.5C 192.5,1.5 190.5,1.5 188.5,1.5 Z"/></g>
<g><path style="opacity:0.01" fill="#fefffe" d="M 117.5,2.5 C 118.251,1.42654 119.251,1.25988 120.5,2C 119.552,2.48278 118.552,2.64945 117.5,2.5 Z"/></g>
<g><path style="opacity:0.01" fill="#fefffe" d="M 194.5,1.5 C 195.552,1.35055 196.552,1.51722 197.5,2C 196.251,2.74012 195.251,2.57346 194.5,1.5 Z"/></g>
<g><path style="opacity:0.009" fill="#fefffe" d="M 113.5,3.5 C 114.251,2.42654 115.251,2.25988 116.5,3C 115.552,3.48278 114.552,3.64945 113.5,3.5 Z"/></g>
<g><path style="opacity:0.009" fill="#fefffe" d="M 198.5,3.5 C 199.251,2.42654 200.251,2.25988 201.5,3C 200.552,3.48278 199.552,3.64945 198.5,3.5 Z"/></g>
<g><path style="opacity:0.007" fill="#fefffe" d="M 107.5,6.5 C 106.209,6.26269 105.209,6.59603 104.5,7.5C 101.402,7.58747 101.068,7.08747 103.5,6C 105.066,5.23502 106.399,5.40168 107.5,6.5 Z"/></g>
<g><path style="opacity:0.007" fill="#fefffe" d="M 207.5,6.5 C 209.435,5.29099 211.435,5.45766 213.5,7C 212.552,7.48278 211.552,7.64945 210.5,7.5C 209.791,6.59603 208.791,6.26269 207.5,6.5 Z"/></g>
<g><path style="opacity:1" fill="#1a6bb2" d="M 138.5,9.5 C 212.512,5.4392 265.012,36.7725 296,103.5C 317.189,167.91 303.356,223.41 254.5,270C 206.34,307.887 153.674,315.553 96.5,293C 34.6075,260.737 5.7742,209.571 10,139.5C 19.4481,82.4183 50.6147,42.2517 103.5,19C 115,14.7112 126.666,11.5445 138.5,9.5 Z"/></g>
<g><path style="opacity:1" fill="#f7fafc" d="M 137.5,15.5 C 198.755,10.8813 246.255,33.8813 280,84.5C 303.088,126.458 305.755,169.792 288,214.5C 266.223,260.26 230.39,288.094 180.5,298C 119.563,305.106 71.7294,283.606 37,233.5C 14.3571,195.357 9.35713,155.024 22,112.5C 42.7423,58.9172 81.2423,26.5839 137.5,15.5 Z"/></g>
<g><path style="opacity:0.012" fill="#fefffe" d="M 231.5,15.5 C 232.833,16.1667 232.833,16.1667 231.5,15.5 Z"/></g>
<g><path style="opacity:1" fill="#67a1ce" d="M 171.5,26.5 C 170.167,26.5 168.833,26.5 167.5,26.5C 167.737,27.791 167.404,28.791 166.5,29.5C 166.5,28.1667 166.5,26.8333 166.5,25.5C 168.415,25.2155 170.081,25.5489 171.5,26.5 Z"/></g>
<g><path style="opacity:1" fill="#1d6cb3" d="M 151.5,25.5 C 153.167,25.5 154.833,25.5 156.5,25.5C 157.256,32.4905 157.423,39.4905 157,46.5C 154.337,50.7254 150.504,52.2254 145.5,51C 144.333,49.8333 143.167,48.6667 142,47.5C 140.836,40.5401 140.003,33.5401 139.5,26.5C 141.167,26.5 142.833,26.5 144.5,26.5C 144.903,33.2016 145.57,39.8683 146.5,46.5C 148.5,46.5 150.5,46.5 152.5,46.5C 152.498,39.4803 152.165,32.4803 151.5,25.5 Z"/></g>
<g><path style="opacity:1" fill="#236eb4" d="M 191.5,30.5 C 195.88,31.2934 200.214,32.2934 204.5,33.5C 204.5,34.8333 204.5,36.1667 204.5,37.5C 201.762,37.1489 199.096,36.4822 196.5,35.5C 194.717,37.0225 194.051,39.0225 194.5,41.5C 198.56,40.8482 200.56,42.5149 200.5,46.5C 197.951,46.6126 195.618,45.9459 193.5,44.5C 192.127,46.4899 191.127,48.6566 190.5,51C 193.202,52.3399 195.869,53.6733 198.5,55C 197.91,56.2989 196.91,57.1322 195.5,57.5C 191.676,56.5591 188.01,55.2258 184.5,53.5C 187.04,45.8805 189.374,38.2139 191.5,30.5 Z"/></g>
<g><path style="opacity:1" fill="#1d6cb3" d="M 171.5,26.5 C 178.88,26.043 181.713,29.3763 180,36.5C 176.876,37.9868 176.876,39.6534 180,41.5C 181.291,45.672 180.124,48.8387 176.5,51C 172.514,51.4988 168.514,51.6655 164.5,51.5C 164.655,44.1104 165.321,36.7771 166.5,29.5C 167.404,28.791 167.737,27.791 167.5,26.5C 168.833,26.5 170.167,26.5 171.5,26.5 Z"/></g>
<g><path style="opacity:1" fill="#e2ecf5" d="M 170.5,30.5 C 175.159,30.0146 176.492,31.848 174.5,36C 173.207,36.49 171.873,36.6567 170.5,36.5C 170.5,34.5 170.5,32.5 170.5,30.5 Z"/></g>
<g><path style="opacity:1" fill="#e2edf5" d="M 169.5,40.5 C 174.663,40.1068 176.33,42.2734 174.5,47C 172.866,47.4935 171.199,47.6602 169.5,47.5C 169.5,45.1667 169.5,42.8333 169.5,40.5 Z"/></g>
<g><path style="opacity:1" fill="#1b6bb3" d="M 222.5,45.5 C 231.221,44.2205 234.887,47.8872 233.5,56.5C 229.352,56.1662 227.685,53.8328 228.5,49.5C 226.278,49.178 224.444,49.8446 223,51.5C 220.699,54.7885 218.866,58.2885 217.5,62C 217.585,63.1074 217.919,64.1074 218.5,65C 220.585,65.5288 222.418,65.0288 224,63.5C 228.422,64.9266 228.588,66.76 224.5,69C 215.884,70.7172 212.051,67.2172 213,58.5C 215.289,53.3989 218.456,49.0656 222.5,45.5 Z"/></g>
<g><path style="opacity:1" fill="#1a6bb2" d="M 101.5,36.5 C 103.857,36.3367 106.19,36.5034 108.5,37C 112.191,38.6903 112.357,40.5237 109,42.5C 103.882,39.0973 101.882,40.4307 103,46.5C 104.059,49.6179 105.392,52.6179 107,55.5C 108.133,57.2112 109.633,57.7112 111.5,57C 112.423,54.9592 112.756,52.7925 112.5,50.5C 114.167,50.5 115.833,50.5 117.5,50.5C 118.228,58.6048 114.562,62.1048 106.5,61C 100.182,55.5408 97.3491,48.7074 98,40.5C 99.3756,39.2949 100.542,37.9616 101.5,36.5 Z"/></g>
<g><path style="opacity:1" fill="#1d6cb3" d="M 118.5,30.5 C 120.467,30.2606 122.301,30.5939 124,31.5C 125.025,37.8382 126.525,44.0048 128.5,50C 131.701,49.2269 135.035,48.7269 138.5,48.5C 138.5,49.8333 138.5,51.1667 138.5,52.5C 134.022,52.8624 129.688,53.8624 125.5,55.5C 123.012,47.2156 120.679,38.8823 118.5,30.5 Z"/></g>
<g><path style="opacity:1" fill="#1b6bb3" d="M 76.5,52.5 C 78.0898,52.6282 79.4231,53.2949 80.5,54.5C 78.9918,56.5075 77.1584,58.1741 75,59.5C 75.0173,61.5676 76.0173,63.2343 78,64.5C 79.9734,63.3601 81.8067,62.0267 83.5,60.5C 84.7199,60.8869 85.3865,61.7202 85.5,63C 84.1323,64.8734 82.4657,66.54 80.5,68C 81.6217,70.1238 83.1217,71.9571 85,73.5C 87.3092,72.0248 89.4759,70.3581 91.5,68.5C 92.7199,68.8869 93.3865,69.7202 93.5,71C 90.6691,74.3235 87.3358,77.1569 83.5,79.5C 78.119,73.4541 73.119,67.1208 68.5,60.5C 70.8815,57.4517 73.5482,54.7851 76.5,52.5 Z"/></g>
<g><path style="opacity:1" fill="#0666b0" d="M 148.5,57.5 C 194.646,56.6447 228.146,76.6447 249,117.5C 265.498,163.031 255.998,202.197 220.5,235C 178.465,264.871 136.465,264.871 94.5,235C 60.3899,204.065 50.2233,166.565 64,122.5C 80.1988,85.1195 108.365,63.4528 148.5,57.5 Z"/></g>
<g><path style="opacity:1" fill="#1e6cb3" d="M 244.5,58.5 C 250.741,61.2159 253.908,65.8825 254,72.5C 251.837,76.5471 248.671,77.8805 244.5,76.5C 243.847,80.8085 242.347,84.8085 240,88.5C 236.269,85.4084 235.935,81.7417 239,77.5C 239.82,75.272 239.487,73.272 238,71.5C 235.651,74.0168 233.151,76.3501 230.5,78.5C 229.167,77.8333 228.167,76.8333 227.5,75.5C 232.881,69.4519 238.548,63.7852 244.5,58.5 Z"/></g>
<g><path style="opacity:1" fill="#e8f0f7" d="M 244.5,64.5 C 248.75,65.5582 250.084,68.0582 248.5,72C 241.193,72.5405 239.86,70.0405 244.5,64.5 Z"/></g>
<g><path style="opacity:1" fill="#1d6cb3" d="M 60.5,66.5 C 64.6431,67.4076 65.1431,69.0743 62,71.5C 61.3333,72.5 61.3333,73.5 62,74.5C 66.6667,78.5 71.3333,82.5 76,86.5C 76.1667,89 75,90.1667 72.5,90C 67.6461,85.645 62.6461,81.4783 57.5,77.5C 56.6184,78.7598 55.6184,79.9264 54.5,81C 52.3702,80.9405 51.5368,79.7739 52,77.5C 55.0726,73.9387 57.9059,70.272 60.5,66.5 Z"/></g>
<g><path style="opacity:1" fill="#eff4f9" d="M 152.5,85.5 C 153.497,85.4701 154.164,85.9701 154.5,87C 155.09,89.1956 155.757,91.3622 156.5,93.5C 159.447,94.3214 162.447,94.8214 165.5,95C 163.023,96.6427 160.69,98.476 158.5,100.5C 159.877,103.449 160.71,106.449 161,109.5C 158.589,107.422 155.922,105.755 153,104.5C 150.677,106.152 148.344,107.819 146,109.5C 145.892,106.313 146.725,103.313 148.5,100.5C 146.167,98.6667 143.833,96.8333 141.5,95C 144.482,94.502 147.482,94.3354 150.5,94.5C 151.167,91.5 151.833,88.5 152.5,85.5 Z"/></g>
<g><path style="opacity:1" fill="#1a6bb2" d="M 262.5,77.5 C 264.446,78.2544 265.279,79.5878 265,81.5C 260,85.1667 255,88.8333 250,92.5C 248.833,96.6667 250.333,98.1667 254.5,97C 259.634,94.0309 264.634,90.8642 269.5,87.5C 270.845,88.3467 271.845,89.5134 272.5,91C 267.004,94.9158 261.337,98.5825 255.5,102C 250.03,103.221 246.53,101.054 245,95.5C 244.365,93.3646 244.699,91.3646 246,89.5C 251.402,85.25 256.902,81.25 262.5,77.5 Z"/></g>
<g><path style="opacity:1" fill="#1c6bb3" d="M 57.5,96.5 C 61.3714,96.185 65.0381,96.5184 68.5,97.5C 68.1961,98.1499 67.8627,98.8165 67.5,99.5C 63.5408,100.327 59.5408,100.827 55.5,101C 54.8333,101.667 54.1667,102.333 53.5,103C 56.328,105.248 59.328,107.248 62.5,109C 61.8448,110.487 60.8448,111.653 59.5,112.5C 51.961,108.904 44.961,104.571 38.5,99.5C 40.2003,96.9613 41.7003,94.2947 43,91.5C 45.3764,87.4479 48.5431,86.6146 52.5,89C 55.2803,90.9133 56.947,93.4133 57.5,96.5 Z"/></g>
<g><path style="opacity:1" fill="#e8f0f7" d="M 46.5,93.5 C 53.2356,93.7348 54.2356,96.4015 49.5,101.5C 44.4711,100.133 43.4711,97.4667 46.5,93.5 Z"/></g>
<g><path style="opacity:1" fill="#69a2cf" d="M 57.5,96.5 C 61.3507,95.1905 65.3507,95.1905 69.5,96.5C 69.3764,97.1067 69.0431,97.44 68.5,97.5C 65.0381,96.5184 61.3714,96.185 57.5,96.5 Z"/></g>
<g><path style="opacity:1" fill="#1a6bb3" d="M 274.5,100.5 C 275.822,100.33 276.989,100.663 278,101.5C 279.971,105.74 281.305,110.073 282,114.5C 274.761,115.494 267.595,114.828 260.5,112.5C 260.516,115.729 261.516,118.896 263.5,122C 262.135,123.682 260.635,123.849 259,122.5C 257.358,117.903 255.524,113.403 253.5,109C 254.944,107.936 256.611,107.436 258.5,107.5C 264.55,108.286 270.55,109.286 276.5,110.5C 276.076,107.646 275.076,104.979 273.5,102.5C 273.863,101.817 274.196,101.15 274.5,100.5 Z"/></g>
<g><path style="opacity:1" fill="#1b6bb3" d="M 35.5,112.5 C 41.8897,112.431 47.8897,113.931 53.5,117C 57.8951,123.025 56.8951,128.025 50.5,132C 44.3405,132.753 38.6739,131.42 33.5,128C 29.0834,122.087 29.7501,116.921 35.5,112.5 Z"/></g>
<g><path style="opacity:1" fill="#f3f7fa" d="M 35.5,117.5 C 40.8053,117.323 45.8053,118.49 50.5,121C 52.6619,125.433 51.3285,127.6 46.5,127.5C 42.0878,127.088 38.2544,125.421 35,122.5C 34.3603,120.735 34.5269,119.068 35.5,117.5 Z"/></g>
<g><path style="opacity:1" fill="#1f6cb3" d="M 279.5,122.5 C 281.5,122.5 283.5,122.5 285.5,122.5C 286.66,126.297 287.66,130.13 288.5,134C 287.437,135.188 286.103,135.688 284.5,135.5C 284.221,132.882 283.554,130.382 282.5,128C 281.101,127.405 279.768,127.572 278.5,128.5C 277.355,130.635 277.355,132.801 278.5,135C 277.902,136.301 276.902,137.135 275.5,137.5C 274.056,135.392 273.39,133.059 273.5,130.5C 271.208,130.244 269.041,130.577 267,131.5C 266.68,134.54 266.68,137.54 267,140.5C 265.989,141.337 264.822,141.67 263.5,141.5C 263.255,137.763 262.589,134.097 261.5,130.5C 261.833,129.5 262.167,128.5 262.5,127.5C 268.324,125.965 273.991,124.299 279.5,122.5 Z"/></g>
<g><path style="opacity:0.011" fill="#fefffe" d="M 314.5,126.5 C 314.833,126.5 315.167,126.5 315.5,126.5C 315.5,127.833 315.5,129.167 315.5,130.5C 315.167,130.5 314.833,130.5 314.5,130.5C 314.5,129.167 314.5,127.833 314.5,126.5 Z"/></g>
<g><path style="opacity:1" fill="#ebf2f8" d="M 217.5,136.5 C 220.167,137.167 222.833,137.833 225.5,138.5C 223.122,139.692 221.122,141.359 219.5,143.5C 220.96,146.029 221.46,148.696 221,151.5C 218.691,150.025 216.524,148.358 214.5,146.5C 211.55,148.115 208.884,150.115 206.5,152.5C 206.167,152.333 205.833,152.167 205.5,152C 206.692,149.428 207.692,146.761 208.5,144C 206.846,141.013 204.513,138.679 201.5,137C 204.817,136.502 208.15,136.335 211.5,136.5C 213.194,126.173 215.194,126.173 217.5,136.5 Z"/></g>
<g><path style="opacity:1" fill="#8ebadc" d="M 217.5,136.5 C 220.572,136.183 223.572,136.516 226.5,137.5C 226.376,138.107 226.043,138.44 225.5,138.5C 222.833,137.833 220.167,137.167 217.5,136.5 Z"/></g>
<g><path style="opacity:1" fill="#1a6ab2" d="M 29.5,137.5 C 39.1667,135.833 43.1667,139.833 41.5,149.5C 44.5,149.5 47.5,149.5 50.5,149.5C 50.5,151.167 50.5,152.833 50.5,154.5C 42.1541,153.98 33.8208,153.313 25.5,152.5C 24.5553,146.764 25.8886,141.764 29.5,137.5 Z"/></g>
<g><path style="opacity:1" fill="#f8fafc" d="M 36.5,143.5 C 36.5,144.833 36.5,146.167 36.5,147.5C 34.5,147.5 32.5,147.5 30.5,147.5C 30.5,146.5 30.5,145.5 30.5,144.5C 31.1342,143.053 32.3009,142.387 34,142.5C 35.0698,142.528 35.9032,142.861 36.5,143.5 Z"/></g>
<g><path style="opacity:1" fill="#f0f5f9" d="M 92.5,149.5 C 95.2033,151.11 98.2033,152.11 101.5,152.5C 99.1217,153.692 97.1217,155.359 95.5,157.5C 96.9597,160.029 97.4597,162.696 97,165.5C 94.9417,163.932 92.7751,162.598 90.5,161.5C 87.7154,162.059 85.3821,163.392 83.5,165.5C 83.1667,165 82.8333,164.5 82.5,164C 86.035,158.437 84.7016,154.604 78.5,152.5C 81.5,151.833 84.5,151.167 87.5,150.5C 88.8309,140.668 90.4975,140.334 92.5,149.5 Z"/></g>
<g><path style="opacity:1" fill="#246eb4" d="M 273.5,144.5 C 278.833,144.5 284.167,144.5 289.5,144.5C 289.5,145.833 289.5,147.167 289.5,148.5C 281.216,149.647 272.883,150.314 264.5,150.5C 264.5,148.833 264.5,147.167 264.5,145.5C 267.713,145.81 270.713,145.477 273.5,144.5 Z"/></g>
<g><path style="opacity:1" fill="#99bfde" d="M 36.5,143.5 C 37.4511,144.919 37.7845,146.585 37.5,148.5C 34.8333,148.5 32.1667,148.5 29.5,148.5C 29.2322,146.901 29.5655,145.568 30.5,144.5C 30.5,145.5 30.5,146.5 30.5,147.5C 32.5,147.5 34.5,147.5 36.5,147.5C 36.5,146.167 36.5,144.833 36.5,143.5 Z"/></g>
<g><path style="opacity:1" fill="#84b3d8" d="M 87.5,150.5 C 84.5,151.167 81.5,151.833 78.5,152.5C 77.9569,152.44 77.6236,152.107 77.5,151.5C 80.7683,150.513 84.1016,150.18 87.5,150.5 Z"/></g>
<g><path style="opacity:1" fill="#8bb8da" d="M 92.5,149.5 C 95.8004,150.093 99.1337,150.76 102.5,151.5C 102.376,152.107 102.043,152.44 101.5,152.5C 98.2033,152.11 95.2033,151.11 92.5,149.5 Z"/></g>
<g><path style="opacity:1" fill="#ebf2f8" d="M 175.5,153.5 C 177.448,155.32 178.448,157.654 178.5,160.5C 186.102,159.582 186.935,160.916 181,164.5C 180.845,166.856 180.845,169.189 181,171.5C 177.786,167.587 174.62,167.587 171.5,171.5C 170.511,169.412 170.844,167.412 172.5,165.5C 170.641,163.808 168.641,162.308 166.5,161C 172.714,162.211 175.714,159.711 175.5,153.5 Z"/></g>
<g><path style="opacity:1" fill="#5e9bcb" d="M 265.5,157.5 C 265.5,158.833 265.5,160.167 265.5,161.5C 268.059,161.198 270.393,161.532 272.5,162.5C 269.833,162.5 267.167,162.5 264.5,162.5C 264.216,160.585 264.549,158.919 265.5,157.5 Z"/></g>
<g><path style="opacity:1" fill="#1a6bb2" d="M 265.5,157.5 C 273.51,157.644 281.51,157.977 289.5,158.5C 289.666,162.514 289.499,166.514 289,170.5C 284.582,177.119 279.915,177.119 275,170.5C 272.08,172.64 268.913,174.306 265.5,175.5C 264.549,174.081 264.216,172.415 264.5,170.5C 267.846,169.104 271.179,167.604 274.5,166C 275.337,164.989 275.67,163.822 275.5,162.5C 274.5,162.5 273.5,162.5 272.5,162.5C 270.393,161.532 268.059,161.198 265.5,161.5C 265.5,160.167 265.5,158.833 265.5,157.5 Z"/></g>
<g><path style="opacity:1" fill="#f5f8fb" d="M 285.5,163.5 C 286.092,166.641 285.092,168.974 282.5,170.5C 280.962,170.547 279.962,169.88 279.5,168.5C 279.5,166.833 279.5,165.167 279.5,163.5C 281.5,163.5 283.5,163.5 285.5,163.5 Z"/></g>
<g><path style="opacity:1" fill="#85b4d8" d="M 285.5,163.5 C 283.5,163.5 281.5,163.5 279.5,163.5C 279.5,165.167 279.5,166.833 279.5,168.5C 278.539,166.735 278.205,164.735 278.5,162.5C 281.059,162.198 283.393,162.532 285.5,163.5 Z"/></g>
<g><path style="opacity:1" fill="#1b6bb3" d="M 40.5,160.5 C 49.1523,159.986 52.6523,163.986 51,172.5C 49.117,175.024 46.617,176.358 43.5,176.5C 43.2148,174.712 43.5481,173.045 44.5,171.5C 47.3133,170.383 47.98,168.55 46.5,166C 44.7412,165.202 43.0745,165.369 41.5,166.5C 40.3011,169.944 38.6345,173.111 36.5,176C 32.8453,178.335 29.6786,177.835 27,174.5C 24.5298,170.17 25.0298,166.337 28.5,163C 29.7932,162.51 31.1266,162.343 32.5,162.5C 32.6567,163.873 32.49,165.207 32,166.5C 28.7786,168.727 28.7786,170.727 32,172.5C 32.772,172.355 33.4387,172.022 34,171.5C 35.1572,167.178 37.3238,163.511 40.5,160.5 Z"/></g>
<g><path style="opacity:1" fill="#89b6d9" d="M 264.5,170.5 C 264.216,172.415 264.549,174.081 265.5,175.5C 265.44,176.043 265.107,176.376 264.5,176.5C 263.207,174.364 263.207,172.364 264.5,170.5 Z"/></g>
<g><path style="opacity:0.011" fill="#fefffe" d="M 314.5,184.5 C 314.833,184.5 315.167,184.5 315.5,184.5C 315.5,185.833 315.5,187.167 315.5,188.5C 315.167,188.5 314.833,188.5 314.5,188.5C 314.5,187.167 314.5,185.833 314.5,184.5 Z"/></g>
<g><path style="opacity:1" fill="#1b6bb3" d="M 264.5,180.5 C 271.335,180.06 277.668,181.56 283.5,185C 286.136,189.133 286.136,193.3 283.5,197.5C 277.181,200.173 270.848,200.006 264.5,197C 257.899,191.504 257.899,186.004 264.5,180.5 Z"/></g>
<g><path style="opacity:1" fill="#f2f6fa" d="M 265.5,185.5 C 271.147,185.203 276.314,186.536 281,189.5C 282,193.337 280.5,195.337 276.5,195.5C 272.675,194.836 269.008,193.669 265.5,192C 264.232,189.837 264.232,187.67 265.5,185.5 Z"/></g>
<g><path style="opacity:1" fill="#1c6bb3" d="M 49.5,180.5 C 50.8221,180.33 51.9887,180.663 53,181.5C 54.479,185.417 55.6457,189.417 56.5,193.5C 48.2473,195.751 39.9139,197.751 31.5,199.5C 31.1167,195.681 30.1167,192.014 28.5,188.5C 29.3279,187.585 30.3279,186.919 31.5,186.5C 32.8333,189.167 34.1667,191.833 35.5,194.5C 37.0709,193.691 38.7376,193.357 40.5,193.5C 40.2437,191.063 39.5771,188.729 38.5,186.5C 39.4627,184.51 40.796,184.177 42.5,185.5C 43.0351,187.661 43.8684,189.661 45,191.5C 47.1748,190.745 49.3415,189.912 51.5,189C 50.287,186.313 49.6203,183.48 49.5,180.5 Z"/></g>
<g><path style="opacity:1" fill="#176ab2" d="M 51.5,206.5 C 57.6426,207.026 58.9759,209.86 55.5,215C 50.5036,215.664 48.6703,213.498 50,208.5C 50.7172,207.956 51.2172,207.289 51.5,206.5 Z"/></g>
<g><path style="opacity:1" fill="#1f6db3" d="M 262.5,206.5 C 269.486,206.331 271.153,209.164 267.5,215C 260.998,215 259.332,212.166 262.5,206.5 Z"/></g>
<g><path style="opacity:0.01" fill="#fefffe" d="M 304.5,218.5 C 304.833,218.5 305.167,218.5 305.5,218.5C 305.672,219.492 305.338,220.158 304.5,220.5C 304.5,219.833 304.5,219.167 304.5,218.5 Z"/></g>
<g><path style="opacity:1" fill="#1b6bb3" d="M 68.5,217.5 C 70.5901,217.45 71.9234,218.45 72.5,220.5C 67.5203,226.647 62.3537,232.647 57,238.5C 55.7638,237.601 54.9304,236.434 54.5,235C 55.8561,233.433 56.5228,231.6 56.5,229.5C 54.7376,229.357 53.0709,229.691 51.5,230.5C 50.1552,229.653 49.1552,228.487 48.5,227C 55.3789,224.058 62.0456,220.892 68.5,217.5 Z"/></g>
<g><path style="opacity:1" fill="#eff4f9" d="M 161.5,225.5 C 164.167,226.167 166.833,226.833 169.5,227.5C 167.122,228.692 165.122,230.359 163.5,232.5C 164.96,235.029 165.46,237.696 165,240.5C 162.667,238.833 160.333,237.167 158,235.5C 155.743,237.046 153.576,238.712 151.5,240.5C 151.167,240 150.833,239.5 150.5,239C 154.035,233.437 152.702,229.604 146.5,227.5C 149.167,226.833 151.833,226.167 154.5,225.5C 155.355,222.825 156.522,220.158 158,217.5C 159.475,220.122 160.641,222.788 161.5,225.5 Z"/></g>
<g><path style="opacity:1" fill="#1d6cb3" d="M 249.5,220.5 C 258.277,221.428 263.944,226.261 266.5,235C 265.711,236.626 264.711,238.126 263.5,239.5C 262.594,237.614 261.594,235.78 260.5,234C 253.747,234.77 249.081,231.937 246.5,225.5C 247.092,223.577 248.092,221.911 249.5,220.5 Z"/></g>
<g><path style="opacity:1" fill="#99c0de" d="M 154.5,225.5 C 151.833,226.167 149.167,226.833 146.5,227.5C 145.957,227.44 145.624,227.107 145.5,226.5C 148.428,225.516 151.428,225.183 154.5,225.5 Z"/></g>
<g><path style="opacity:1" fill="#99c0de" d="M 161.5,225.5 C 164.572,225.183 167.572,225.516 170.5,226.5C 170.376,227.107 170.043,227.44 169.5,227.5C 166.833,226.833 164.167,226.167 161.5,225.5 Z"/></g>
<g><path style="opacity:1" fill="#c7dced" d="M 60.5,225.5 C 62.6569,226.053 62.4903,227.053 60,228.5C 59.5304,227.423 59.6971,226.423 60.5,225.5 Z"/></g>
<g><path style="opacity:1" fill="#dce9f3" d="M 251.5,224.5 C 254.168,224.834 256.168,226.167 257.5,228.5C 254.364,229.248 252.364,227.915 251.5,224.5 Z"/></g>
<g><path style="opacity:1" fill="#1a6bb2" d="M 75.5,226.5 C 82.4186,229.52 83.752,234.02 79.5,240C 77.0197,240.96 74.5197,241.793 72,242.5C 70.4956,245.509 68.9956,248.509 67.5,251.5C 66.5,250.167 65.5,248.833 64.5,247.5C 69.1006,239.987 68.2673,238.987 62,244.5C 60.6988,243.902 59.8655,242.902 59.5,241.5C 64.8537,236.478 70.187,231.478 75.5,226.5 Z"/></g>
<g><path style="opacity:1" fill="#1d6cb3" d="M 241.5,229.5 C 242.922,229.709 244.255,230.209 245.5,231C 249.905,235.283 254.405,239.45 259,243.5C 259.345,245.201 258.678,246.534 257,247.5C 253.019,244.353 249.186,241.02 245.5,237.5C 244.063,240.044 242.563,240.044 241,237.5C 241.255,234.918 241.422,232.252 241.5,229.5 Z"/></g>
<g><path style="opacity:1" fill="#cbdeee" d="M 75.5,232.5 C 78.1009,233.922 77.9342,235.256 75,236.5C 74.5,236.167 74,235.833 73.5,235.5C 74.6119,234.735 75.2786,233.735 75.5,232.5 Z"/></g>
<g><path style="opacity:1" fill="#196ab2" d="M 232.5,247.5 C 229.983,241.216 231.983,238.049 238.5,238C 243,241.167 246.833,245 250,249.5C 251.328,255.167 249.161,257.667 243.5,257C 239.666,253.998 236,250.831 232.5,247.5 Z"/></g>
<g><path style="opacity:1" fill="#186ab2" d="M 86.5,239.5 C 88.4835,239.383 90.1502,240.05 91.5,241.5C 87.6667,248.5 83.8333,255.5 80,262.5C 78.9264,261.382 77.7598,260.382 76.5,259.5C 79.5373,254.04 78.3707,252.707 73,255.5C 71.5659,255.07 70.3992,254.236 69.5,253C 75.3539,248.636 81.0205,244.136 86.5,239.5 Z"/></g>
<g><path style="opacity:1" fill="#e1ecf5" d="M 235.5,243.5 C 235.897,242.475 236.563,242.308 237.5,243C 240.5,246 243.5,249 246.5,252C 245.5,252.667 244.5,252.667 243.5,252C 240.601,249.271 237.934,246.438 235.5,243.5 Z"/></g>
<g><path style="opacity:1" fill="#1f6cb3" d="M 95.5,245.5 C 104.69,249.093 105.69,254.26 98.5,261C 95.8333,261.333 93.1667,261.667 90.5,262C 89.4811,265.048 87.4811,266.381 84.5,266C 83.4652,264.493 83.6319,262.993 85,261.5C 89.1419,256.537 92.6419,251.204 95.5,245.5 Z"/></g>
<g><path style="opacity:1" fill="#b1cfe6" d="M 81.5,248.5 C 82.6878,250.496 82.0211,251.329 79.5,251C 80.3805,250.292 81.0472,249.458 81.5,248.5 Z"/></g>
<g><path style="opacity:0.012" fill="#fefffe" d="M 286.5,250.5 C 286.833,250.5 287.167,250.5 287.5,250.5C 287.315,251.17 286.981,251.17 286.5,250.5 Z"/></g>
<g><path style="opacity:1" fill="#d9e8f3" d="M 96.5,252.5 C 97.3764,252.369 98.0431,252.702 98.5,253.5C 94.3891,258.929 93.7224,258.596 96.5,252.5 Z"/></g>
<g><path style="opacity:1" fill="#1d6cb3" d="M 107.5,252.5 C 109.2,253.016 110.533,254.016 111.5,255.5C 107.748,261.336 104.248,267.336 101,273.5C 97.6667,275.167 96.3333,274.167 97,270.5C 100.764,264.637 104.264,258.637 107.5,252.5 Z"/></g>
<g><path style="opacity:0.012" fill="#fefffe" d="M 283.5,254.5 C 283.833,254.5 284.167,254.5 284.5,254.5C 284.315,255.17 283.981,255.17 283.5,254.5 Z"/></g>
<g><path style="opacity:0.012" fill="#fefffe" d="M 280.5,258.5 C 280.833,258.5 281.167,258.5 281.5,258.5C 281.315,259.17 280.981,259.17 280.5,258.5 Z"/></g>
<g><path style="opacity:0.012" fill="#fefffe" d="M 279.5,259.5 C 279.833,259.5 280.167,259.5 280.5,259.5C 280.315,260.17 279.981,260.17 279.5,259.5 Z"/></g>
<g><path style="opacity:1" fill="#236eb4" d="M 232.5,247.5 C 233.867,251.386 234.867,255.386 235.5,259.5C 236.868,260.594 238.035,260.26 239,258.5C 240.022,259.354 240.855,260.354 241.5,261.5C 238.81,264.185 235.81,266.518 232.5,268.5C 230.759,262.962 229.592,257.295 229,251.5C 228.586,251.043 228.086,250.709 227.5,250.5C 226.904,251.716 226.737,253.049 227,254.5C 223.46,257.032 221.627,255.866 221.5,251C 223.601,245.198 227.268,244.032 232.5,247.5 Z"/></g>
<g><path style="opacity:0.016" fill="#fefffe" d="M 278.5,260.5 C 278.833,260.5 279.167,260.5 279.5,260.5C 279.315,261.17 278.981,261.17 278.5,260.5 Z"/></g>
<g><path style="opacity:1" fill="#196bb2" d="M 112.5,280.5 C 112.664,277.813 112.497,275.146 112,272.5C 111.283,273.044 110.783,273.711 110.5,274.5C 109.962,276.117 109.629,277.784 109.5,279.5C 107.516,279.617 105.85,278.95 104.5,277.5C 106.817,270.022 109.983,263.022 114,256.5C 121.535,257.578 123.869,261.578 121,268.5C 119.89,270.037 118.39,270.703 116.5,270.5C 116.824,274.555 116.491,278.555 115.5,282.5C 114.261,282.058 113.261,281.391 112.5,280.5 Z"/></g>
<g><path style="opacity:1" fill="#e3eef6" d="M 115.5,262.5 C 118.041,263.623 118.041,264.956 115.5,266.5C 114.374,265.192 114.374,263.858 115.5,262.5 Z"/></g>
<g><path style="opacity:1" fill="#1c6cb3" d="M 179.5,264.5 C 181.144,264.286 182.644,264.62 184,265.5C 187.733,272.295 190.899,279.295 193.5,286.5C 190.118,286.274 187.118,285.274 184.5,283.5C 184.5,285.167 184.5,286.833 184.5,288.5C 183.07,288.421 181.736,288.754 180.5,289.5C 179.502,281.193 179.169,272.86 179.5,264.5 Z"/></g>
<g><path style="opacity:0.008" fill="#fefffe" d="M 274.5,265.5 C 274.833,265.5 275.167,265.5 275.5,265.5C 275.315,266.17 274.981,266.17 274.5,265.5 Z"/></g>
<g><path style="opacity:0.012" fill="#a9aaa9" d="M 273.5,266.5 C 273.833,266.5 274.167,266.5 274.5,266.5C 274.315,267.17 273.981,267.17 273.5,266.5 Z"/></g>
<g><path style="opacity:0.008" fill="#fefffe" d="M 272.5,267.5 C 272.833,267.5 273.167,267.5 273.5,267.5C 273.315,268.17 272.981,268.17 272.5,267.5 Z"/></g>
<g><path style="opacity:1" fill="#236eb4" d="M 216.5,264.5 C 218.121,264.787 219.121,265.787 219.5,267.5C 217.5,268.833 215.5,270.167 213.5,271.5C 212.585,270.672 211.919,269.672 211.5,268.5C 213.015,266.918 214.681,265.584 216.5,264.5 Z"/></g>
<g><path style="opacity:0.012" fill="#fefffe" d="M 271.5,268.5 C 271.833,268.5 272.167,268.5 272.5,268.5C 272.315,269.17 271.981,269.17 271.5,268.5 Z"/></g>
<g><path style="opacity:0.008" fill="#fefffe" d="M 270.5,269.5 C 270.833,269.5 271.167,269.5 271.5,269.5C 271.315,270.17 270.981,270.17 270.5,269.5 Z"/></g>
<g><path style="opacity:0.012" fill="#fefffe" d="M 269.5,270.5 C 269.833,270.5 270.167,270.5 270.5,270.5C 270.315,271.17 269.981,271.17 269.5,270.5 Z"/></g>
<g><path style="opacity:0.012" fill="#fefffe" d="M 268.5,271.5 C 268.833,271.5 269.167,271.5 269.5,271.5C 269.315,272.17 268.981,272.17 268.5,271.5 Z"/></g>
<g><path style="opacity:0.008" fill="#fefffe" d="M 267.5,272.5 C 267.833,272.5 268.167,272.5 268.5,272.5C 268.315,273.17 267.981,273.17 267.5,272.5 Z"/></g>
<g><path style="opacity:0.012" fill="#fefffe" d="M 266.5,273.5 C 266.833,273.5 267.167,273.5 267.5,273.5C 267.315,274.17 266.981,274.17 266.5,273.5 Z"/></g>
<g><path style="opacity:0.008" fill="#fefffe" d="M 265.5,274.5 C 265.833,274.5 266.167,274.5 266.5,274.5C 266.315,275.17 265.981,275.17 265.5,274.5 Z"/></g>
<g><path style="opacity:1" fill="#1368b1" d="M 129.5,262.5 C 130.583,262.539 131.583,262.873 132.5,263.5C 133.6,271.508 133.434,279.508 132,287.5C 130.989,286.663 129.822,286.33 128.5,286.5C 128.5,284.833 128.5,283.167 128.5,281.5C 125.64,281.084 123.474,282.084 122,284.5C 120.5,284.333 119.667,283.5 119.5,282C 122.966,275.567 126.3,269.067 129.5,262.5 Z"/></g>
<g><path style="opacity:1" fill="#94bcdc" d="M 128.5,273.5 C 129.782,274.708 129.782,276.042 128.5,277.5C 127.374,276.192 127.374,274.858 128.5,273.5 Z"/></g>
<g><path style="opacity:1" fill="#1f6cb3" d="M 191.5,261.5 C 192.822,261.33 193.989,261.663 195,262.5C 196.932,267.462 198.765,272.462 200.5,277.5C 202.078,278.298 203.744,278.798 205.5,279C 206.337,280.011 206.67,281.178 206.5,282.5C 203.762,282.851 201.096,283.518 198.5,284.5C 195.45,277.69 192.784,270.69 190.5,263.5C 190.863,262.817 191.196,262.15 191.5,261.5 Z"/></g>
<g><path style="opacity:1" fill="#b4d1e7" d="M 183.5,275.5 C 185.088,276.635 185.421,277.969 184.5,279.5C 183.571,278.311 183.238,276.978 183.5,275.5 Z"/></g>
<g><path style="opacity:0.012" fill="#fefffe" d="M 260.5,278.5 C 260.833,278.5 261.167,278.5 261.5,278.5C 261.315,279.17 260.981,279.17 260.5,278.5 Z"/></g>
<g><path style="opacity:1" fill="#6ca6d0" d="M 112.5,280.5 C 111.833,278.5 111.167,276.5 110.5,274.5C 110.783,273.711 111.283,273.044 112,272.5C 112.497,275.146 112.664,277.813 112.5,280.5 Z"/></g>
<g><path style="opacity:1" fill="#216eb4" d="M 156.5,266.5 C 158.167,266.5 159.833,266.5 161.5,266.5C 162.835,274.51 164.168,282.51 165.5,290.5C 163.833,290.5 162.167,290.5 160.5,290.5C 160.5,288.833 160.5,287.167 160.5,285.5C 159.167,285.5 157.833,285.5 156.5,285.5C 157.167,289.5 155.5,291.167 151.5,290.5C 152.737,282.413 154.403,274.413 156.5,266.5 Z"/></g>
<g><path style="opacity:1" fill="#b2d0e6" d="M 158.5,278.5 C 159.776,279.386 159.776,280.386 158.5,281.5C 157.438,280.575 157.438,279.575 158.5,278.5 Z"/></g>
<g><path style="opacity:0.012" fill="#fefffe" d="M 259.5,279.5 C 259.833,279.5 260.167,279.5 260.5,279.5C 260.315,280.17 259.981,280.17 259.5,279.5 Z"/></g>
<g><path style="opacity:0.012" fill="#fefffe" d="M 258.5,280.5 C 258.833,280.5 259.167,280.5 259.5,280.5C 259.315,281.17 258.981,281.17 258.5,280.5 Z"/></g>
<g><path style="opacity:0.004" fill="#fefffe" d="M 257.5,281.5 C 257.833,281.5 258.167,281.5 258.5,281.5C 258.315,282.17 257.981,282.17 257.5,281.5 Z"/></g>
<g><path style="opacity:0.008" fill="#fefffe" d="M 255.5,283.5 C 255.5,283.167 255.5,282.833 255.5,282.5C 256.167,282.5 256.833,282.5 257.5,282.5C 257.158,283.338 256.492,283.672 255.5,283.5 Z"/></g>
<g><path style="opacity:1" fill="#1f6db4" d="M 141.5,265.5 C 144.97,264.875 147.804,265.875 150,268.5C 150.832,272.143 149.332,273.81 145.5,273.5C 145.762,272.022 145.429,270.689 144.5,269.5C 143.914,269.709 143.414,270.043 143,270.5C 141.691,275.066 141.191,279.733 141.5,284.5C 142.5,284.5 143.5,284.5 144.5,284.5C 144.5,283.5 144.5,282.5 144.5,281.5C 150.483,282.6 150.816,285.1 145.5,289C 140.91,290.615 138.077,289.115 137,284.5C 135.535,277.363 137.035,271.03 141.5,265.5 Z"/></g>
<g><path style="opacity:0.016" fill="#fefffe" d="M 254.5,283.5 C 254.833,283.5 255.167,283.5 255.5,283.5C 255.315,284.17 254.981,284.17 254.5,283.5 Z"/></g>
<g><path style="opacity:0.008" fill="#fefffe" d="M 253.5,284.5 C 253.833,284.5 254.167,284.5 254.5,284.5C 254.315,285.17 253.981,285.17 253.5,284.5 Z"/></g>
<g><path style="opacity:1" fill="#206db4" d="M 171.5,265.5 C 172.833,265.5 174.167,265.5 175.5,265.5C 174.167,273.834 172.833,282.168 171.5,290.5C 170.022,290.762 168.689,290.429 167.5,289.5C 169.265,281.577 170.598,273.577 171.5,265.5 Z"/></g>
<g><path style="opacity:0.006" fill="#fefffe" d="M 251.5,286.5 C 251.5,286.167 251.5,285.833 251.5,285.5C 252.167,285.5 252.833,285.5 253.5,285.5C 253.158,286.338 252.492,286.672 251.5,286.5 Z"/></g>
<g><path style="opacity:0.012" fill="#fefffe" d="M 250.5,286.5 C 250.833,286.5 251.167,286.5 251.5,286.5C 251.315,287.17 250.981,287.17 250.5,286.5 Z"/></g>
<g><path style="opacity:0.012" fill="#fefffe" d="M 249.5,287.5 C 249.833,287.5 250.167,287.5 250.5,287.5C 250.315,288.17 249.981,288.17 249.5,287.5 Z"/></g>
<g><path style="opacity:0.008" fill="#fefffe" d="M 247.5,289.5 C 247.5,289.167 247.5,288.833 247.5,288.5C 248.167,288.5 248.833,288.5 249.5,288.5C 249.158,289.338 248.492,289.672 247.5,289.5 Z"/></g>
<g><path style="opacity:0.012" fill="#fefffe" d="M 246.5,289.5 C 246.833,289.5 247.167,289.5 247.5,289.5C 247.315,290.17 246.981,290.17 246.5,289.5 Z"/></g>
<g><path style="opacity:0.006" fill="#fefffe" d="M 244.5,291.5 C 244.5,291.167 244.5,290.833 244.5,290.5C 245.167,290.5 245.833,290.5 246.5,290.5C 246.158,291.338 245.492,291.672 244.5,291.5 Z"/></g>
<g><path style="opacity:0.008" fill="#fefffe" d="M 243.5,291.5 C 243.833,291.5 244.167,291.5 244.5,291.5C 244.315,292.17 243.981,292.17 243.5,291.5 Z"/></g>
<g><path style="opacity:0.008" fill="#fefffe" d="M 241.5,293.5 C 241.5,293.167 241.5,292.833 241.5,292.5C 242.167,292.5 242.833,292.5 243.5,292.5C 243.158,293.338 242.492,293.672 241.5,293.5 Z"/></g>
<g><path style="opacity:0.008" fill="#fefffe" d="M 240.5,293.5 C 240.833,293.5 241.167,293.5 241.5,293.5C 241.315,294.17 240.981,294.17 240.5,293.5 Z"/></g>
<g><path style="opacity:0.008" fill="#fefffe" d="M 238.5,295.5 C 238.5,295.167 238.5,294.833 238.5,294.5C 239.167,294.5 239.833,294.5 240.5,294.5C 240.158,295.338 239.492,295.672 238.5,295.5 Z"/></g>
<g><path style="opacity:0.008" fill="#fefffe" d="M 236.5,296.5 C 236.5,296.167 236.5,295.833 236.5,295.5C 237.167,295.5 237.833,295.5 238.5,295.5C 238.158,296.338 237.492,296.672 236.5,296.5 Z"/></g>
<g><path style="opacity:0.008" fill="#fefffe" d="M 234.5,297.5 C 234.5,297.167 234.5,296.833 234.5,296.5C 235.167,296.5 235.833,296.5 236.5,296.5C 236.158,297.338 235.492,297.672 234.5,297.5 Z"/></g>
<g><path style="opacity:0.012" fill="#fefffe" d="M 81.5,297.5 C 80.8333,298.167 80.8333,298.167 81.5,297.5 Z"/></g>
<g><path style="opacity:0.012" fill="#fefffe" d="M 233.5,297.5 C 233.833,297.5 234.167,297.5 234.5,297.5C 234.315,298.17 233.981,298.17 233.5,297.5 Z"/></g>
<g><path style="opacity:0.012" fill="#fefffe" d="M 231.5,298.5 C 232.833,299.167 232.833,299.167 231.5,298.5 Z"/></g>
<g><path style="opacity:0.008" fill="#fefffe" d="M 229.5,300.5 C 229.5,300.167 229.5,299.833 229.5,299.5C 230.167,299.5 230.833,299.5 231.5,299.5C 231.158,300.338 230.492,300.672 229.5,300.5 Z"/></g>
<g><path style="opacity:0.01" fill="#fefffe" d="M 227.5,301.5 C 227.5,301.167 227.5,300.833 227.5,300.5C 228.167,300.5 228.833,300.5 229.5,300.5C 229.158,301.338 228.492,301.672 227.5,301.5 Z"/></g>
<g><path style="opacity:0.008" fill="#fefffe" d="M 225.5,302.5 C 225.5,302.167 225.5,301.833 225.5,301.5C 226.167,301.5 226.833,301.5 227.5,301.5C 227.158,302.338 226.492,302.672 225.5,302.5 Z"/></g>
<g><path style="opacity:0.01" fill="#fefffe" d="M 223.5,303.5 C 223.5,303.167 223.5,302.833 223.5,302.5C 224.167,302.5 224.833,302.5 225.5,302.5C 225.158,303.338 224.492,303.672 223.5,303.5 Z"/></g>
<g><path style="opacity:0.007" fill="#fefffe" d="M 220.5,304.5 C 220.5,304.167 220.5,303.833 220.5,303.5C 221.5,303.5 222.5,303.5 223.5,303.5C 222.791,304.404 221.791,304.737 220.5,304.5 Z"/></g>
<g><path style="opacity:0.01" fill="#fefffe" d="M 218.5,305.5 C 218.5,305.167 218.5,304.833 218.5,304.5C 219.167,304.5 219.833,304.5 220.5,304.5C 220.158,305.338 219.492,305.672 218.5,305.5 Z"/></g>
<g><path style="opacity:0.008" fill="#fefffe" d="M 216.5,306.5 C 216.5,306.167 216.5,305.833 216.5,305.5C 217.167,305.5 217.833,305.5 218.5,305.5C 218.158,306.338 217.492,306.672 216.5,306.5 Z"/></g>
<g><path style="opacity:0.008" fill="#fefffe" d="M 213.5,307.5 C 213.5,307.167 213.5,306.833 213.5,306.5C 214.5,306.5 215.5,306.5 216.5,306.5C 215.791,307.404 214.791,307.737 213.5,307.5 Z"/></g>
<g><path style="opacity:0.007" fill="#fefffe" d="M 104.5,307.5 C 105.209,308.404 106.209,308.737 107.5,308.5C 105.565,309.709 103.565,309.542 101.5,308C 102.448,307.517 103.448,307.351 104.5,307.5 Z"/></g>
<g><path style="opacity:0.007" fill="#fefffe" d="M 210.5,307.5 C 211.5,307.5 212.5,307.5 213.5,307.5C 211.68,309.461 209.68,309.794 207.5,308.5C 208.791,308.737 209.791,308.404 210.5,307.5 Z"/></g>
<g><path style="opacity:0.009" fill="#fefffe" d="M 113.5,312.5 C 114.251,311.427 115.251,311.26 116.5,312C 115.552,312.483 114.552,312.649 113.5,312.5 Z"/></g>
<g><path style="opacity:0.009" fill="#fefffe" d="M 198.5,312.5 C 199.251,311.427 200.251,311.26 201.5,312C 200.552,312.483 199.552,312.649 198.5,312.5 Z"/></g>
<g><path style="opacity:0.01" fill="#fefffe" d="M 117.5,313.5 C 118.251,312.427 119.251,312.26 120.5,313C 119.552,313.483 118.552,313.649 117.5,313.5 Z"/></g>
<g><path style="opacity:0.01" fill="#fefffe" d="M 194.5,313.5 C 195.251,312.427 196.251,312.26 197.5,313C 196.552,313.483 195.552,313.649 194.5,313.5 Z"/></g>
<g><path style="opacity:0.007" fill="#fefffe" d="M 188.5,314.5 C 188.5,314.167 188.5,313.833 188.5,313.5C 190.5,313.5 192.5,313.5 194.5,313.5C 192.735,314.461 190.735,314.795 188.5,314.5 Z"/></g>
<g><path style="opacity:0.012" fill="#fefffe" d="M 126.5,315.5 C 127.568,314.566 128.901,314.232 130.5,314.5C 130.5,314.833 130.5,315.167 130.5,315.5C 129.167,315.5 127.833,315.5 126.5,315.5 Z"/></g>
<g><path style="opacity:0.012" fill="#fefffe" d="M 184.5,315.5 C 184.5,315.167 184.5,314.833 184.5,314.5C 185.833,314.5 187.167,314.5 188.5,314.5C 188.5,314.833 188.5,315.167 188.5,315.5C 187.167,315.5 185.833,315.5 184.5,315.5 Z"/></g>
</svg>
