<?xml version="1.0" encoding="UTF-8"?>
<svg id="Layer_1" xmlns="http://www.w3.org/2000/svg" version="1.1" viewBox="0 0 300 300">
  <!-- Generator: Adobe Illustrator 29.7.1, SVG Export Plug-In . SVG Version: 2.1.1 Build 8)  -->
  <defs>
    <style>
      .st0 {
        fill: #00613c;
      }

      .st1 {
        fill: #fff;
      }

      .st2 {
        fill: #6f0720;
      }

      .st3 {
        fill: #efd5d7;
      }
    </style>
  </defs>
  <path class="st1" d="M41.4,2.2h158.5s49.9,0,49.9,0h12.7c1.8,0,3.6,0,5.3.2,3.6.2,6.6,2.8,7.9,6.1.4,1.1.5,2.5.6,3.7.1,4.4,0,8.9,0,13.3v24.2s0,82.8,0,82.8v50.3s0,15.5,0,15.5c0,8.8,0,13.5-1.6,22.3-4.5,23-19.6,41.2-39.1,53.7-21.4,13.5-60,23.2-85.4,23.4-25,.2-58.4-8.6-80.5-20.3-8.2-4.3-15.6-9.8-22.2-16.1-13.9-13.3-23.5-33.6-23.7-52.9V75.8s0-44,0-44v-13.5c0-4.3-.8-9.9,2.6-13.2,2.9-2.8,5.8-2.7,9.6-2.8h5.5Z"/>
  <path class="st2" d="M266.4,5.9c7.4,0,6.2,6.2,6.2,11.6v14.1s0,50.3,0,50.3v114.2c0,6.5.1,12.3-.6,18.8-3,28.3-25.2,52.2-50.6,63.3-22.5,9.6-50.7,16.7-75.2,16.1-26.9-.6-64.1-10.9-86.1-26.7-20.4-14.6-33.3-37.3-32.9-62.7,0-2.3,0-4.6,0-6.9v-21.6s0-65.9,0-65.9V44.3s0-21.3,0-21.3c0-3.8,0-7.5,0-11.3,0-2.6,1.6-5.4,4.4-5.7,2.3-.2,5.1,0,7.4,0h14.7s47.8,0,47.8,0h164.8Z"/>
  <path class="st1" d="M95.1,11.2c12.2-.3,25.5,0,37.8,0h68.8s43.5,0,43.5,0h13.7c2.1,0,5.6,0,7.6,0,.3,0,.3,0,.6,0l.2.3c-.2,16.5,0,33.4,0,50v127.9c0,10.3.7,20.8-1.6,31-3,13.4-9.8,24.6-19.4,34.3-5.8,5.8-12.5,11-19.8,14.9-20,11.1-54.2,19.2-77,19.2-21.9,0-55.7-8.4-75-18.8-7.7-4.1-15-9.5-21.2-15.7-9.6-9.7-16.3-21.4-19.2-34.8-2.2-10.3-1.5-21-1.5-31.5v-37.9s0-139,0-139h41.5c6.9-.1,14.2-.2,21.1,0Z"/>
  <path class="st3" d="M95.1,11.2c12.2-.3,25.5,0,37.8,0h68.8s43.5,0,43.5,0h13.7c2.1,0,5.6,0,7.6,0-7.3.8-17.5.4-25,.4h-48.9s-60.7,0-60.7,0h-20.4c-5.6,0-10.6,0-16.2-.4Z"/>
  <path class="st2" d="M186.1,78.6c7.2-.3,16,0,23.2,0h46.2c0,.1,0,82.7,0,82.7v27c0,10.4.6,20.1-2,30.2-4.7,18.3-17.5,31.9-33.4,41.4-4.1,2.5-8.3,4.7-12.9,6.3-11.6,4.1-23.3,7.7-35.4,9.8-1.6.3-3.2.6-4.9.7V78.6c6.1,0,13.1.2,19.2,0Z"/>
  <path class="st0" d="M44.7,78.6h88.4s0,198,0,198c-4.8-.3-13.8-2.4-18.6-3.8-8-2.3-18.7-5.1-26.2-8.6-19.9-9.2-37.7-25.9-42.3-48.1-1.9-9.2-1.4-17.6-1.4-27v-30.8s0-52.1,0-52.1c0-8.9-.2-18.9,0-27.8Z"/>
  <path class="st2" d="M119.8,23.2h9.8s3.2,13.4,3.2,13.4c.6,2.4,1.3,6,2,8.2.7-4,1.7-7.8,2.6-11.8.8-3.2,1.5-6.7,2.4-9.9h9.7c0,14.3.2,29,0,43.3h-7.3s0-15.6,0-15.6c0-2.2.1-5.3,0-7.5-.2-.6-.2-1.1-.3-1.7-.3-.3-.1-.2-.5-.3-.5.6,0,1.2-.7,1.9-1.5,7.5-3,15.7-4.3,23.3-1.1,0-2.4,0-3.5,0-.7-2.8-1.2-6.3-1.7-9.1l-2.5-13.5c-.2-.9-.8-5.5-1.1-6h-.3c-.6.5-.1,5.4-.1,6.5v22c-2.5,0-4.9,0-7.4,0,0-14.2-.2-29.1,0-43.3Z"/>
  <path class="st3" d="M140.7,43.3c.1-1.2.4-4.7,1.1-5.4.7.4.4,4.6.3,5.5-.2-.6-.2-1.1-.3-1.7-.3-.3-.1-.2-.5-.3-.5.6,0,1.2-.7,1.9Z"/>
  <path class="st2" d="M44.6,23.2c10.5-.1,22.6-1.3,21.5,13.3-.2,3.4-2.2,4.9-4.6,7,1,.7,1.6,1.3,2.4,2.2,3.5,4,3.4,10.5,1.3,15.1-3,5.5-8.8,5.8-14.4,5.7-2.1,0-4.2,0-6.3,0-.3-2.2-.1-4.8,0-7,.2-12.1-.1-24.3,0-36.4Z"/>
  <path class="st1" d="M52.5,46.9c6.2,0,6.3,4.2,5.7,9.3-.1.9-.7,1.9-1.2,2.6-1.4,1.4-2.7,1.4-4.5,1.4,0-4.5,0-8.8,0-13.3Z"/>
  <path class="st1" d="M52.4,29.5c3.8,0,6,1.5,6.1,5.5,0,1.9-.2,3.1-1.3,4.7-1.4,1.4-2.8,1.4-4.7,1.4,0-3.8,0-7.7,0-11.6Z"/>
  <path class="st2" d="M193.7,23.2c2.4,0,4.9,0,7.3,0-.3,14.2,0,29,0,43.3-2.4,0-4.7,0-7.1,0-.7-1.8-1.6-4.5-2.2-6.4l-4-11.8c-.6-1.9-1.4-4.4-2.2-6.1h-.2c-.4.4-.2,6.9-.2,8.1v16.2c-2.2.1-5.2.1-7.4,0-.2-8.5,0-17.7,0-26.3v-10.4c0-2.1,0-4.5,0-6.6,2.3,0,4.8,0,7.1,0l8.5,24.9c.4-2.1.2-6.8.2-9.1v-15.8Z"/>
  <path class="st2" d="M212.7,23.2h9.8c.3,3.3,1.8,10,2.5,13.5l5.6,29.8h-7.8c-.6-2.5-.9-5.6-1.3-8.1,0-.4,0-.2-.2-.6-1.1-.4-6-.2-7.5-.2l-1.4,8.8c-2.5.1-5.3,0-7.8,0,.4-2.9,1.1-6.2,1.7-9.2l2.8-14.8c1.1-6,2.3-13.7,3.7-19.4Z"/>
  <path class="st1" d="M217.5,36.2h.2c.3.6,2.2,13.1,2.5,14.8h-2.6s-2.9,0-2.9,0l1.6-9.4c.2-1.3.5-4.5,1.1-5.5Z"/>
  <path class="st2" d="M106.2,23.2h7.9c0,1.9,0,4,0,6-.2,6.8,0,13.7,0,20.5,0,4.8,1,10.6-2.5,14.3-3.7,3.9-12,4-15.8.3-1.3-1.2-2.3-3.2-2.6-4.9-.4-3.9-.2-8.2-.2-12.1v-24.1c2.7,0,5.5,0,8.1.1v22.9s0,7.5,0,7.5c0,1.5,0,3,0,4.5.2,3.7,4.9,3.3,5.1-.1.2-3.6,0-7.4,0-11v-23.8Z"/>
  <path class="st2" d="M234.3,23.2h8s0,23.5,0,23.5v7.3c0,1.5-.3,5,.9,6.1,1.8,1.7,4.2.4,4.3-2,0-1.3,0-2.6,0-4v-6.8s0-24,0-24h8c0,2,0,4.1,0,6.2v20.4c0,4.8,1,11-2.7,14.5-3.8,3.7-12,3.8-15.8-.1-2.9-3-2.7-6.5-2.7-10.4.1-10.1-.2-20.4,0-30.5Z"/>
  <path class="st2" d="M155.4,23.1c5.9.1,12.2,0,18.1,0v6.6c-3.3.2-6.8,0-10.2.2,0,3.7,0,7.5,0,11.2,2.1.2,5.1,0,7.3,0,0,2.3,0,4.7,0,6.9-2.3.1-4.9,0-7.3,0v11.3c0,0,0,.3,0,.3.8.3,8.8.1,10.2.1v6.6c-6,0-12.1,0-18.2,0-.2-11.5.1-23,0-34.5,0-2.9,0-6.1,0-9Z"/>
  <path class="st2" d="M71.2,23.2h8s0,37.4,0,37.4c3.2,0,7.4,0,10.4.1,0,.9,0,5.5-.2,5.9-5.8.2-12.5,0-18.4,0-.2-9.4,0-19.1,0-28.5v-9.1c0-1.6,0-4.2.1-5.7Z"/>
</svg>