<?xml version="1.0" encoding="UTF-8"?>
<svg id="Layer_1" data-name="Layer 1" xmlns="http://www.w3.org/2000/svg" viewBox="0 0 175 214">
  <defs>
    <style>
      .cls-1 {
        fill: #000873;
      }

      .cls-2 {
        fill: #fff;
      }

      .cls-3 {
        fill: #8c0000;
      }

      .cls-4 {
        fill: #c18c29;
      }
    </style>
  </defs>
  <path class="cls-3" d="m0,79.2c0,51.5.4,80.7,1,83.3,2,7.7,7.1,16.4,12.1,20.9,6,5.4,12.7,8,24,9.6,20.5,2.8,30.8,6.9,42.8,16.9,5.5,4.6,6.4,4.8,10.6,2.3,14-8.5,26.4-13.4,44-17.3,7.2-1.6,15.4-4.1,18.3-5.6,6.3-3.2,13.1-10.2,16.6-17.2,5.7-11.1,5.6-9.9,5.6-94.3V0H0v79.2Zm165,2c0,79.5,0,78.4-5.6,88.8-4.5,8.3-14.6,15.1-24.5,16.6-16.1,2.4-34,8-43.2,13.7l-4.7,2.9-3.2-3.1c-4.1-4-18.7-11.5-26.3-13.5-3.3-.8-10.5-2-15.9-2.6-16.9-1.8-26.3-7.8-30-19.2-1.4-4.5-1.6-13.5-1.6-80.9V8h155v73.2Z"/>
  <path class="cls-1" d="m22.2,15.2c-.8.8-1.2,5.4-1.2,15v13.7l4.3,4.8c8.5,9.6,17.2,18.5,19.1,19.5,2.6,1.4,3.6-.5,3.6-7.1q0-5.3-8-13.5l-8-8.2v-14.4h8.5c8.1,0,8.6-.1,9.5-2.4.5-1.3.5-3.7.1-5.3l-.7-2.8-13-.3c-9.2-.2-13.3.1-14.2,1Z"/>
  <path class="cls-1" d="m64,14.6c0,1.2,92.7,100.4,93.1,100.4.5,0,.9-101,.9-101,0,0-94,.3-94,.6Z"/>
  <path class="cls-1" d="m53.8,23.1c-1.6.9-1.8,3.3-1.8,27.9v27l3.6,4c5,5.5,7.4,5,7.4-1.5,0-3.8,2.1-4.1,5.2-.6,2.6,2.9,2.8,3.8,2.8,11.2,0,7.8.1,8.1,3.7,12,6.7,7.2,6.7,7,7.3-25.6l.5-28.9-11.3-12.3c-9.8-10.6-13.9-14.4-15.4-14.3-.2,0-1.1.5-2,1.1Zm14.9,26.1c1.9,1.8,2.3,3.2,2.3,8.5,0,3.5-.3,6.3-.7,6.3s-1.7-1-3-2.2c-1.9-1.8-2.3-3.2-2.3-8.5,0-3.5.3-6.3.7-6.3s1.7,1,3,2.2Z"/>
  <path class="cls-3" d="m14,101.5c0,62.4.2,63.6,7,69.7,7.3,6.5,11.6,8,31.1,10.8,9.7,1.4,21.2,5.7,29,10.9,3.3,2.2,6.6,4.1,7.3,4.1.6,0,2.5-.8,4.1-1.8,8.9-5.3,26.3-11.2,33.5-11.2,4.7-.1,13.5-3.2,13.5-4.7,0-.7-2.7-4.1-6-7.5-3.4-3.5-10.8-11.3-16.5-17.3-5.7-6.1-18.1-18.9-27.4-28.5-9.4-9.6-25.6-26.5-36.1-37.5-10.4-10.9-23.6-24.7-29.2-30.5l-10.2-10.5-.1,54Zm39,19.5c4.2,4.2,1.3,10-5,10-2,0-4.1-.5-4.8-1.2-2.7-2.7-.3-9.5,3.7-10.1,1.4-.2,2.9-.5,3.4-.6.4,0,1.6.8,2.7,1.9Zm14.4,9.1c1.8,1.4,2.6,3,2.6,5,0,6.2-3.2,8.4-8.3,5.8-2.9-1.6-3.7-2.8-3.7-6.4,0-2.2.7-3.5,2.8-4.7q3.4-2.2,6.6.3Zm-30,1.5c2.3,2.2,2,8-.4,10.4-2.6,2.6-3.2,2.5-7-.6-2.6-2.3-3-3.1-2.5-5.8,1.1-5.3,6.5-7.5,9.9-4Zm7.4,18.5c4.9,4.6,4.2,8.8-1.7,10.2-1.8.4-3.1-.2-5.2-2.3-3.5-3.4-3.8-7.3-.7-9.4,3.1-2.2,3.8-2,7.6,1.5Zm19.8-.4c1.1,4.3-1.4,7.8-5.6,7.8-2.7,0-3.7-.6-5-2.8-1.4-2.7-1.4-2.9,1.5-5.3,4.2-3.3,8.3-3.2,9.1.3Z"/>
  <path class="cls-1" d="m89.2,60.2c-.9.9-1.2,8.6-1.2,28.6v27.4l10.2,10.9c5.6,6,10.6,10.8,11.2,10.6,1.4-.5,2.9-6.6,2.2-9.3-.4-1.3-3.3-5.2-6.6-8.8l-6-6.4v-15.1c0-10.7.3-15.1,1.1-15.1.7,0,3.4,2,6.1,4.6,2.6,2.5,5.3,4.2,5.8,3.9.6-.3,1-3,1-5.9v-5.2l-10.9-10.7c-5.9-5.9-11-10.7-11.3-10.7-.2,0-.9.5-1.6,1.2Z"/>
  <path class="cls-1" d="m118.8,92.1c-1.6.9-1.8,3.4-1.8,28.4v27.3l4.2,3.7q4.3,3.6,5,1.3c.3-1.3.6-4.2.7-6.6.1-5.2,1.8-5.5,5.6-1,2.6,3.1,2.7,3.5,2.1,11.5l-.7,8.3,4.7,5c7.3,7.8,7.7,7.3,7.2-8.3-.3-8.1-1-14.3-1.8-16-1.2-2.4-1.1-3.2.3-5.7,1.3-2.1,1.7-5.3,1.7-13.3v-10.6l-11.7-12.5c-6.5-6.9-12.2-12.6-12.8-12.6-.5,0-1.8.5-2.7,1.1Zm14.1,25.5c2.3,2.9,2.9,10.8,1,11.9-.6.4-2.1-.3-3.5-1.6-2-1.8-2.4-3.2-2.4-7.6,0-6.1,1.6-7,4.9-2.7Z"/>
  <g>
    <g>
      <path class="cls-2" d="m96.74,22.27v14h-2.84v-9.08h-3.52v-2.14c.49.01.97-.02,1.43-.11.46-.09.87-.24,1.24-.46.37-.22.68-.51.93-.87.25-.36.42-.81.5-1.34"/>
      <path class="cls-2" d="m96.99,36.52h-3.34v-9.08h-3.52v-2.65h.26c.47.02.94-.02,1.38-.1.43-.08.82-.22,1.16-.43.33-.2.62-.47.85-.8.23-.33.38-.74.46-1.23l.49.07c-.09.57-.27,1.06-.54,1.45-.27.39-.61.7-1.01.94-.39.23-.83.4-1.32.49-.39.07-.81.11-1.23.12v1.64h3.52v9.08h2.34v-13.75h.5v14.25Z"/>
    </g>
    <g>
      <path class="cls-2" d="m104.02,33.89c.33.35.75.52,1.24.52.52,0,.95-.15,1.28-.45.33-.3.6-.67.8-1.1.2-.43.34-.9.43-1.39.09-.49.14-.93.17-1.32l-.04-.04c-.39.56-.84.96-1.36,1.2-.52.24-1.12.36-1.8.36-.6,0-1.19-.13-1.76-.39-.57-.26-1.06-.61-1.46-1.05-.37-.43-.65-.91-.82-1.46-.17-.55-.26-1.1-.26-1.66,0-.72.12-1.39.35-2.01.23-.62.57-1.16,1-1.62s.95-.82,1.55-1.09c.6-.27,1.27-.4,2-.4,1.07,0,1.94.21,2.63.63.69.42,1.24.97,1.65,1.66s.7,1.46.86,2.33c.16.87.24,1.74.24,2.62s-.1,1.73-.3,2.6c-.2.87-.52,1.65-.96,2.35-.44.7-1.01,1.27-1.7,1.7-.69.43-1.54.65-2.54.65-.6,0-1.16-.08-1.68-.25-.52-.17-.98-.42-1.38-.75-.4-.33-.73-.74-.98-1.22-.25-.48-.42-1.03-.5-1.64h2.7c.09.47.31.87.64,1.22Zm2.4-4.57c.28-.14.51-.33.7-.57.19-.24.33-.52.42-.83.09-.31.14-.64.14-.99,0-.32-.05-.64-.15-.95-.1-.31-.25-.59-.44-.84-.19-.25-.43-.44-.71-.59-.28-.15-.6-.22-.96-.22-.33,0-.63.07-.9.22-.27.15-.49.34-.68.58-.19.24-.33.51-.42.82-.09.31-.14.62-.14.94s.04.66.13.97c.09.31.22.59.39.84.17.25.4.45.67.6.27.15.59.23.95.23.39,0,.72-.07,1-.21Z"/>
      <path class="cls-2" d="m105.22,36.78c-.62,0-1.22-.09-1.76-.26-.55-.18-1.04-.44-1.46-.8-.42-.35-.77-.79-1.04-1.29-.27-.5-.44-1.08-.53-1.72l-.04-.28h3.19l.04.2c.08.42.28.78.57,1.1.29.3.63.44,1.06.44.46,0,.82-.13,1.11-.39.31-.28.56-.62.74-1.02.19-.41.33-.86.41-1.33.04-.2.07-.4.09-.58-.3.3-.62.53-.97.69-1.04.48-2.48.55-3.77-.03-.6-.27-1.12-.65-1.54-1.11-.4-.45-.69-.97-.87-1.55-.18-.57-.27-1.15-.27-1.74,0-.75.12-1.45.37-2.1.24-.65.6-1.22,1.05-1.7.45-.48,1-.87,1.63-1.15.63-.28,1.34-.42,2.1-.42,1.11,0,2.04.22,2.76.67.72.44,1.3,1.03,1.73,1.74.43.71.73,1.52.89,2.41.16.88.24,1.77.24,2.66s-.1,1.77-.31,2.66c-.2.89-.54,1.7-.99,2.43-.46.73-1.06,1.33-1.78,1.78-.73.46-1.63.69-2.67.69Zm-4.25-3.86c.09.47.23.9.43,1.27.24.45.54.83.92,1.14.37.31.81.55,1.3.7.49.16,1.03.24,1.6.24.95,0,1.76-.21,2.41-.61.66-.41,1.2-.96,1.62-1.62.42-.67.74-1.44.93-2.27.2-.85.29-1.7.29-2.54s-.08-1.73-.24-2.57c-.15-.83-.43-1.59-.83-2.25-.39-.65-.92-1.18-1.57-1.58-.64-.39-1.48-.59-2.5-.59-.7,0-1.33.13-1.9.38-.57.25-1.06.6-1.47,1.03-.41.44-.73.95-.95,1.54-.22.59-.33,1.24-.33,1.92,0,.53.08,1.06.25,1.58.16.51.42.97.77,1.37.37.41.83.74,1.38.99,1.15.52,2.44.45,3.35.03.48-.22.9-.59,1.26-1.11l.17-.25.29.3.03.15c-.03.39-.08.85-.17,1.35-.09.51-.24,1-.45,1.45-.21.46-.5.86-.86,1.18-.38.34-.87.51-1.45.51s-1.04-.2-1.42-.6c-.32-.33-.54-.71-.66-1.14h-2.21Zm4.45-3.14c-.4,0-.76-.09-1.07-.26-.31-.17-.56-.4-.75-.68-.19-.27-.33-.58-.43-.92-.09-.33-.14-.68-.14-1.04s.05-.69.15-1.01c.1-.33.26-.64.46-.9.21-.27.46-.48.76-.65.63-.35,1.49-.32,2.1,0,.31.16.58.38.79.66.21.27.37.58.48.92.11.34.16.68.16,1.03,0,.37-.05.73-.15,1.06-.1.34-.26.65-.46.91-.21.27-.47.48-.79.64s-.69.24-1.11.24Zm0-5.2c-.29,0-.55.06-.78.19-.24.13-.44.3-.6.51-.17.22-.29.46-.38.74-.09.28-.13.57-.13.87,0,.31.04.61.12.9.08.28.2.54.35.76.15.21.35.39.59.53.49.28,1.25.25,1.72.01.25-.12.45-.29.61-.5.17-.21.29-.47.38-.75.09-.29.13-.6.13-.92,0-.29-.05-.59-.14-.87-.09-.28-.23-.54-.4-.76-.17-.22-.38-.39-.63-.52-.24-.13-.53-.19-.84-.19Z"/>
    </g>
    <g>
      <path class="cls-2" d="m116.13,36.27v-9.08h-3.52v-2.14c.49.01.97-.02,1.43-.11.46-.09.87-.24,1.24-.46.37-.22.68-.51.93-.87.25-.36.42-.81.5-1.34h2.26v14h-2.84Z"/>
      <path class="cls-2" d="m119.22,36.52h-3.34v-9.08h-3.52v-2.65h.26c.48.02.94-.02,1.38-.1.43-.08.82-.22,1.16-.43.33-.2.62-.47.85-.8.23-.33.38-.74.46-1.23l.03-.21h2.73v14.5Zm-2.84-.5h2.34v-13.5h-1.8c-.1.48-.27.89-.51,1.23-.27.39-.61.7-1.01.94-.39.23-.84.4-1.32.49-.39.07-.81.11-1.23.12v1.64h3.52v9.08Z"/>
    </g>
    <g>
      <path class="cls-2" d="m127.79,27.93c.35-.03.67-.1.97-.23.3-.13.55-.31.74-.55.19-.24.29-.56.29-.96,0-.6-.2-1.06-.6-1.38s-.86-.48-1.38-.48c-.72,0-1.26.24-1.63.71-.37.47-.54,1.07-.53,1.79h-2.7c.03-.72.16-1.38.39-1.97.23-.59.56-1.1.98-1.53.42-.43.92-.76,1.51-.99.59-.23,1.24-.35,1.96-.35.56,0,1.12.08,1.68.25.56.17,1.06.42,1.51.75.45.33.81.74,1.09,1.22.28.48.42,1.03.42,1.66,0,.68-.16,1.28-.49,1.8s-.82.87-1.47,1.06v.04c.77.17,1.38.55,1.82,1.12s.66,1.26.66,2.06c0,.73-.14,1.39-.43,1.96s-.67,1.05-1.15,1.44c-.48.39-1.03.68-1.66.88-.63.2-1.28.3-1.96.3-.79,0-1.5-.11-2.15-.34s-1.2-.56-1.65-.99c-.45-.43-.8-.96-1.05-1.59-.25-.63-.36-1.35-.35-2.16h2.7c.01.37.07.73.18,1.07.11.34.26.63.46.88.2.25.45.44.75.59.3.15.66.22,1.07.22.64,0,1.18-.2,1.62-.59.44-.39.66-.93.66-1.61,0-.53-.1-.94-.31-1.22-.21-.28-.47-.48-.79-.61-.32-.13-.67-.2-1.05-.22-.38-.02-.74-.03-1.09-.03v-2c.31.03.63.03.98,0Z"/>
      <path class="cls-2" d="m127.81,36.78c-.81,0-1.56-.12-2.23-.35-.68-.24-1.27-.59-1.74-1.04-.48-.46-.85-1.02-1.11-1.68-.26-.65-.38-1.41-.37-2.25v-.25h3.19v.24c.02.35.08.69.18,1,.1.31.24.58.42.8.18.22.4.39.67.52.26.13.59.19.96.19.58,0,1.06-.17,1.45-.53.39-.35.58-.81.58-1.42,0-.48-.09-.84-.26-1.07-.18-.24-.4-.42-.68-.53-.29-.12-.62-.18-.97-.2-.38-.02-.73-.03-1.08-.03h-.25v-2.52l.27.02c.29.03.61.02.94,0,.32-.02.62-.1.89-.21.26-.11.47-.27.64-.48.16-.19.23-.46.23-.8,0-.52-.17-.91-.51-1.18-.36-.29-.76-.43-1.22-.43-.64,0-1.11.2-1.43.61-.33.43-.49.97-.48,1.63v.25s-3.21,0-3.21,0v-.26c.04-.75.18-1.44.42-2.05.24-.62.59-1.16,1.03-1.61.44-.45.98-.8,1.6-1.05,1.09-.43,2.48-.5,3.8-.11.59.17,1.12.44,1.59.79.47.35.86.79,1.16,1.29.3.52.45,1.12.45,1.79,0,.72-.18,1.38-.53,1.93-.25.39-.58.7-.99.92.54.22.98.56,1.33,1.01.47.62.71,1.36.71,2.21,0,.77-.15,1.47-.46,2.07-.3.6-.71,1.11-1.22,1.52-.5.4-1.09.71-1.74.92-.65.21-1.33.31-2.03.31Zm-4.95-5.08c.01.68.12,1.29.33,1.82.23.59.56,1.09.99,1.5.42.41.95.72,1.56.93,1.15.4,2.66.45,3.95.04.59-.19,1.13-.47,1.58-.84.45-.36.81-.82,1.08-1.36.27-.53.4-1.16.4-1.85,0-.74-.2-1.38-.61-1.91-.41-.53-.96-.87-1.68-1.03l-.2-.04v-.39l.18-.09c.6-.17,1.03-.48,1.33-.95.3-.48.45-1.04.45-1.67,0-.58-.13-1.1-.39-1.53-.26-.45-.61-.83-1.02-1.15-.42-.31-.9-.55-1.43-.71-1.22-.36-2.49-.3-3.48.09-.55.22-1.03.53-1.42.93-.4.4-.71.89-.92,1.45-.19.49-.31,1.04-.36,1.63h2.19c.03-.66.22-1.23.58-1.69.41-.54,1.03-.81,1.83-.81.58,0,1.09.18,1.54.53.46.37.69.9.69,1.58,0,.46-.12.83-.35,1.12-.22.27-.5.48-.84.62-.32.14-.68.22-1.05.25-.26.02-.51.02-.75.02v1.48c.27,0,.56.01.85.03.41.02.79.1,1.13.24.36.14.66.38.9.69.24.32.36.78.36,1.37,0,.75-.25,1.36-.74,1.8-.48.43-1.08.65-1.79.65-.45,0-.85-.08-1.18-.25-.33-.16-.61-.38-.83-.66-.22-.27-.39-.59-.5-.96-.09-.28-.15-.58-.18-.89h-2.21Z"/>
    </g>
  </g>
  <polygon class="cls-4" points="30.27 99.98 32.55 104.6 37.65 105.34 33.96 108.94 34.83 114.02 30.27 111.62 25.71 114.02 26.58 108.94 22.89 105.34 27.99 104.6 30.27 99.98"/>
  <polygon class="cls-4" points="55.02 99.98 57.3 104.6 62.4 105.34 58.71 108.94 59.58 114.02 55.02 111.62 50.46 114.02 51.33 108.94 47.64 105.34 52.74 104.6 55.02 99.98"/>
</svg>