<svg xmlns="http://www.w3.org/2000/svg" width="125.716" height="137.823" viewBox="0 0 125.716 137.823"><g transform="translate(0.002)"><g transform="translate(-0.002)"><path d="M124.8,0H.907C-8.83,92.074,62.855,137.823,62.855,137.823S134.546,92.074,124.8,0Z" transform="translate(0.002)" fill="#fee000"/><path d="M111.42,43.61h19.053V95.423c8.479-18.353,12.894-31.6,15.564-51.813H166.6c-.231,17.8-5.34,35.549-13.938,53.677H111.42" transform="translate(-45.305 -17.733)" fill="#12100b"/><path d="M62.638,43.61H43.585V95.423C35.105,77.07,30.691,63.826,28.02,43.61H7.46c.231,17.8,5.34,35.549,13.938,53.677H62.638" transform="translate(-3.032 -17.733)" fill="#12100b"/><rect width="3.151" height="3.038" transform="translate(48.866 13.974)" fill="#12100b"/><path d="M187.882,7.629a6.735,6.735,0,0,1,5.34,2.492,9.6,9.6,0,0,1,1.964,6.189,9.607,9.607,0,0,1-2.077,6.408,6.681,6.681,0,0,1-10.42,0,9.607,9.607,0,0,1-2.077-6.408,9.607,9.607,0,0,1,1.97-6.189,6.717,6.717,0,0,1,5.34-2.492m0,13.351a2.931,2.931,0,0,0,2.166-1.187c.712-.86.665-2.172.665-3.477a5.586,5.586,0,0,0-.665-3.364,2.9,2.9,0,0,0-4.332,0,5.524,5.524,0,0,0-.659,3.364c0,1.305-.053,2.617.659,3.477a2.967,2.967,0,0,0,2.166,1.187" transform="translate(-73.437 -3.102)" fill="#12100b"/><path d="M11.236,25.188h5.317L21,8.36H16.226l-2.279,10.1L11.663,8.36H6.78Z" transform="translate(-2.756 -3.399)" fill="#12100b"/><path d="M35.93,25.188h5.1L45.7,8.36H40.82l-2.279,10.1L36.257,8.36H31.48Z" transform="translate(-12.799 -3.399)" fill="#12100b"/><path d="M60.45,25.188h5.109L70.223,8.36H65.447l-2.391,10.1L60.563,8.36H56Z" transform="translate(-22.77 -3.399)" fill="#12100b"/><path d="M94.85,25.188h5.323l4.45-16.828H99.847l-2.279,10.1-2.5-10.1H90.4Z" transform="translate(-36.758 -3.399)" fill="#12100b"/><path d="M115.65,25.188h11.838v-4.67h-7.494V18.566h6.3V14.329h-6.3V12.7h7.494V8.36H115.65Z" transform="translate(-47.025 -3.399)" fill="#12100b"/><path d="M137.98,25.188h4.343V16.614l4.231,8.574h4.237V8.36h-4.237V16.5L142.323,8.36H137.98Z" transform="translate(-56.105 -3.399)" fill="#12100b"/><path d="M162.31,25.188h10.859V20.411h-6.4V8.36H162.31Z" transform="translate(-65.998 -3.399)" fill="#12100b"/><path d="M111.386,71.418A17.368,17.368,0,1,0,94.018,88.786a17.368,17.368,0,0,0,17.368-17.368" transform="translate(-31.167 -21.978)" fill="#fff"/><path d="M80.8,81.2l-.119,5.928,3.133,5.228,2.676-2.789L84.395,81.9Z" transform="translate(-32.805 -33.018)" fill="#12100b"/><path d="M91.945,57.51,86.6,60.3,83.81,65.645,87.643,66.8l5.459-5.69Z" transform="translate(-34.078 -23.385)" fill="#12100b"/><path d="M127.09,81.2l.119,5.928-3.139,5.228-2.67-2.789,2.095-7.666Z" transform="translate(-49.363 -33.018)" fill="#12100b"/><path d="M113.553,57.51,118.9,60.3l2.789,5.346L117.855,66.8l-5.465-5.69Z" transform="translate(-45.699 -23.385)" fill="#12100b"/><path d="M105.7,74.16H99.649l-1.739,6.5,4.759,3.37,4.765-3.37Z" transform="translate(-39.812 -30.155)" fill="#12100b"/><path d="M101.953,100.78l-5.8,1.626,1.857,3.252h7.9l1.857-3.252Z" transform="translate(-39.096 -40.98)" fill="#12100b"/><path d="M95,140.72c-7.844,10.681-9.352,11.921-18.128,20.572-8.77-8.651-10.277-9.886-18.122-20.572H34.47c10.141,19.469,28.725,39.845,42.4,49.363,13.648-9.494,32.268-29.894,42.408-49.363Z" transform="translate(-14.015 -57.221)" fill="#12100b"/><path d="M108.6,194.99a1.667,1.667,0,0,0-.8.386c-.314.291-.427.629-.208.866s.3.184.593.077l.445-.172a.943.943,0,0,1,1.139.136,1.4,1.4,0,0,1-.3,2.035,2.374,2.374,0,0,1-1.187.593l-.136-.54a1.97,1.97,0,0,0,1.027-.487c.326-.309.421-.706.2-.949s-.356-.214-.7-.089l-.421.154a.884.884,0,0,1-1.092-.16c-.439-.469-.38-1.234.314-1.875a2.023,2.023,0,0,1,.979-.516Z" transform="translate(-43.463 -79.069)" fill="#ffe400"/><path d="M110.447,190.692a.469.469,0,0,1-.671,0,.487.487,0,0,1,0-.676.475.475,0,1,1,.653.682Zm2.415,3.471-.493.469-1.923-3.08.439-.564Z" transform="translate(-44.581 -77.197)" fill="#ffe400"/><path d="M116,188.055l1.454,2.279-.463.457-1.323-2.053a2.424,2.424,0,0,0-.22-.309.285.285,0,0,0-.457,0,1.673,1.673,0,0,0-.267,1.329l1.288,2-.463.457-1.383-2.172a1.7,1.7,0,0,0-.593-.647l.243-.629a1.294,1.294,0,0,1,.552.487,1.727,1.727,0,0,1,.457-1.442.659.659,0,0,1,1,0A1.959,1.959,0,0,1,116,188.055Z" transform="translate(-46.179 -76.275)" fill="#ffe400"/><path d="M122,183.149c.38.593.54.653.783.688l-.2.593a.825.825,0,0,1-.593-.309,1.412,1.412,0,0,1-.374,1.252c-.487.5-1.021.433-1.584-.107a2.872,2.872,0,0,1-.872-1.94,1.816,1.816,0,0,1,.481-1.234,1.613,1.613,0,0,1,.593-.439s-.2-.309-.3-.451l-.682-1,.522-.386Zm-2.006-.665a1.139,1.139,0,0,0-.267.8,2.872,2.872,0,0,0,.777,1.5c.309.3.593.332.8.1a1.329,1.329,0,0,0,.214-1.305l-.973-1.448A1.044,1.044,0,0,0,119.991,182.484Z" transform="translate(-48.452 -73.12)" fill="#ffe400"/><path d="M125.18,178.238a1.608,1.608,0,0,0-.76.451c-.291.309-.38.653-.142.872s.309.166.593.036l.427-.208a.949.949,0,0,1,1.145.053,1.389,1.389,0,0,1-.142,2.053,2.32,2.32,0,0,1-1.127.688L125,181.65a1.9,1.9,0,0,0,.985-.593c.3-.326.368-.73.125-.961s-.368-.184-.706-.03l-.409.184a.89.89,0,0,1-1.1-.077c-.469-.433-.469-1.187.172-1.9a2.077,2.077,0,0,1,.932-.593Z" transform="translate(-50.241 -72.249)" fill="#ffe400"/><path d="M132.458,174.064l.421-.487.332.433-1.305,1.5-.32-.439.445-.516-1.436-1.893a6.167,6.167,0,0,1-.291,1.092l-.374-.2.291-1.65.32-.374Z" transform="translate(-52.832 -69.749)" fill="#ffe400"/><path d="M136.709,170.019a5.1,5.1,0,0,1-.593,2.516l-.492-.059a3.875,3.875,0,0,0,.231-3.3,1.561,1.561,0,0,1-.386.967,1.187,1.187,0,0,1-1.685.071,1.875,1.875,0,0,1-.231-2.664,1.276,1.276,0,0,1,1.934-.125A3.5,3.5,0,0,1,136.709,170.019Zm-2.807-2.053a1.151,1.151,0,0,0,.332,1.644c.386.314.765.32,1.027,0a1.62,1.62,0,0,0,.32-.938,2.528,2.528,0,0,0-.564-.73.748.748,0,0,0-1.116.024Z" transform="translate(-54.122 -67.923)" fill="#ffe400"/><path d="M140.922,163.7a1.9,1.9,0,0,1-.4,1.305,1.151,1.151,0,0,1-1.78.22,2.931,2.931,0,0,1-1.08-1.739,1.857,1.857,0,0,1,.392-1.406,1.187,1.187,0,0,1,1.834-.22A2.777,2.777,0,0,1,140.922,163.7Zm-2.552-1.187a.949.949,0,0,0-.2.8,2.83,2.83,0,0,0,.973,1.394.629.629,0,0,0,1.027-.095.961.961,0,0,0,.214-.765,2.623,2.623,0,0,0-1-1.442.623.623,0,0,0-1.015.083Z" transform="translate(-55.968 -65.679)" fill="#ffe400"/><path d="M143.843,157.808a.914.914,0,0,1,1.187-.083c.8.593.9,1.923-.136,3.364a2.166,2.166,0,0,1-.261.32l-.421-.231a3.061,3.061,0,0,0,.255-.314,2.706,2.706,0,0,0,.593-1.513,1.317,1.317,0,0,0-.463-1.015.593.593,0,0,0-.742,0,2.374,2.374,0,0,0-.5.593l-.089.119-.344-.374a1.19,1.19,0,0,0,.107-.136,2.511,2.511,0,0,0,.433-.765.878.878,0,0,0-.35-.878.546.546,0,0,0-.813.225,2.374,2.374,0,0,0-.344,1.228l-.457-.036a2.967,2.967,0,0,1,.487-1.691,1.027,1.027,0,0,1,1.454-.4,1.383,1.383,0,0,1,.4,1.584Z" transform="translate(-57.536 -63.462)" fill="#ffe400"/><path d="M60.45,25.188h5.109L70.223,8.36H65.447l-2.391,10.1L60.563,8.36H56Z" transform="translate(-22.77 -3.399)" fill="#12100b"/></g></g></svg>