<svg version="1.2" xmlns="http://www.w3.org/2000/svg" viewBox="0 0 1158 1600" width="1158" height="1600">
	<style>
		.s0 { fill: #fff012 } 
		.s1 { fill: #ffffff } 
		.s2 { fill: #000000 } 
	</style>
	<g>
		<path fill-rule="evenodd" class="s0" d="m579.09 0c0.48 0 1.17 1.24 1.52 2.75 0.36 1.51 4.36 14 8.89 27.75 4.53 13.75 11.49 35.13 15.47 47.5 3.97 12.38 8.84 27.34 10.8 33.25l3.58 10.75h64.33c35.37 0 64.32 0.35 64.32 0.78 0 0.68-3.93 3.66-22.38 16.97-1.72 1.24-4.7 3.38-6.62 4.75-1.92 1.38-5.98 4.32-9 6.54-3.03 2.22-6.63 4.8-8 5.73-1.38 0.92-2.73 1.94-3 2.26-0.28 0.31-2.73 2.13-5.45 4.02-2.72 1.9-8.91 6.38-13.74 9.95-4.83 3.57-12.87 9.43-17.87 13-5 3.57-11.03 7.94-13.4 9.71l-4.32 3.21 1.43 4.29c1.43 4.3 6.8 20.88 20.33 62.79 4 12.38 8.05 24.75 9.01 27.5 3.21 9.23 9.01 27.14 9.01 27.83 0 0.96-22.81-15.17-43-30.41-4.67-3.53-9.26-6.87-10.18-7.42-0.93-0.55-8.74-6.18-17.36-12.5-8.62-6.32-16.63-12.16-17.81-12.97-1.18-0.81-5.37-3.82-9.32-6.69l-7.16-5.23-9.24 6.7c-8.46 6.12-19.88 14.43-36.01 26.19-3.4 2.48-8.09 5.85-10.44 7.5-2.34 1.65-8.87 6.38-14.49 10.5-23.35 17.12-25.49 18.65-31.39 22.61-3.29 2.2-3.79 2.32-3.18 0.75 0.4-1.02 2.08-6.13 3.74-11.36 1.66-5.23 3.81-11.75 4.79-14.5 0.98-2.75 3.87-11.52 6.42-19.5 13.79-43 17.98-55.97 19.57-60.5 4.27-12.21 5.2-15.79 4.27-16.39-0.53-0.33-3.76-2.64-7.18-5.11-3.43-2.47-10.12-7.31-14.88-10.74-8.9-6.41-27.78-20.2-43.65-31.88-4.95-3.64-11.03-8.01-13.5-9.7-2.48-1.7-5.02-3.56-5.66-4.13-0.64-0.58-4.81-3.68-9.25-6.9-4.45-3.21-8.09-6.24-8.09-6.74 0-0.52 27.16-1 64.15-1.15l64.15-0.26 3.38-10.5c1.86-5.78 6.55-20.4 10.41-32.5 3.87-12.1 7.86-24.25 8.86-27 2.44-6.73 14.8-45.3 15.62-48.75 0.35-1.51 1.04-2.75 1.52-2.75zm61.66 475.18c0.16 13.02 0.16 34.63 0 48-0.16 13.38-0.29 2.72-0.29-23.68 0-26.4 0.13-37.34 0.29-24.32z"/>
		<path fill-rule="evenodd" class="s1" d="m241.06 319c0.5 0 8.22 4.88 17.17 10.85 8.95 5.96 20.91 13.64 26.59 17.05 11.19 6.74 40.12 21.67 52.18 26.93 12.74 5.57 13.36 5.84 18.5 8.02 5.86 2.48 8.82 3.54 29.5 10.57 33.6 11.41 65.07 19.01 100 24.13 69.46 10.19 152.71 7.27 218-7.64 31.34-7.16 41.97-10.07 67-18.38 35.71-11.85 70.03-27.03 102.43-45.3 5.54-3.12 11.49-6.59 13.23-7.71 1.73-1.11 5.74-3.59 8.9-5.52 3.17-1.93 7.59-4.73 9.85-6.23 6.39-4.27 4.63-5.33 20.88 12.58 4.58 5.03 11.88 13.42 16.23 18.65 4.36 5.23 9.12 10.85 10.59 12.5 2.47 2.78 8.26 9.58 38.77 45.58 6.25 7.38 12.55 14.77 14 16.41 1.44 1.65 6.22 7.29 10.62 12.53 9.76 11.64 10.6 12.63 12.54 14.78 0.85 0.93 4 4.63 7 8.2 3 3.57 5.91 6.99 6.46 7.6 1.89 2.08 10.51 12.17 14.25 16.7 13.31 16.08 25.8 30.4 33.19 38.03 4.71 4.85 8.69 9.17 8.85 9.6 0.15 0.43-1.42 2.08-3.5 3.66-13.46 10.26-33.41 27.42-42.85 36.85-26.82 26.81-41.14 49.72-48.16 77.06-2.27 8.82-2.57 12-2.56 27 0 14.75 0.35 18.52 2.63 28.5 3.6 15.78 9.63 33.32 16.85 49 5.88 12.77 16.38 33.67 22.04 43.87 3.17 5.71 5.76 10.6 5.76 10.88 0 0.28 3.15 6.08 7 12.89 3.85 6.81 7 12.56 7 12.77 0 0.22 1.62 3.25 3.6 6.74 3.78 6.68 9.51 17.46 21.17 39.85 3.87 7.42 9.16 17.55 11.76 22.5 7.77 14.78 32.79 64.72 35.35 70.57 1.32 2.98 2.95 6.56 3.64 7.93 11.7 23.36 20.81 66.24 20.8 98 0 18.68-3.23 43.62-8.28 63.97-2.72 10.96-8.76 30.06-11.55 36.53-6.89 15.97-12.47 26.24-23.39 43-16.67 25.6-35.41 44.38-58.74 58.89-4.32 2.69-8.99 5.6-10.36 6.48-1.38 0.88-3.4 2.08-4.5 2.68-1.1 0.6-4.47 2.47-7.5 4.15-33.04 18.38-58.61 31.31-91.5 46.28-2.2 1-7.95 3.67-12.77 5.92-4.82 2.25-9.05 4.1-9.39 4.1-0.34 0-2.47 0.87-4.73 1.94-2.26 1.06-11.99 5.37-21.61 9.58-9.63 4.2-18.85 8.25-20.5 9-3.55 1.61-9.09 4.04-20 8.77-14.06 6.1-36.05 16.47-53 25-5.5 2.76-11.35 5.7-13 6.53-3.21 1.6-25 13.62-27.5 15.17-0.83 0.51-4.42 2.6-8 4.64-3.58 2.04-7.63 4.49-9 5.44-1.38 0.94-8.58 5.69-16 10.55-17.4 11.39-33.7 23.75-54.61 41.38-15.25 12.87-46.24 44.3-62.12 63-6.18 7.28-30.47 37.56-31.28 38.99-1.04 1.85-0.07 2.99-11.06-12.99-5.11-7.42-10.23-14.85-11.37-16.5-27.64-39.88-68.17-79.76-106.56-104.84-4.13-2.7-8.63-5.67-10-6.61-2.69-1.83-11.58-6.97-23.86-13.8-7.53-4.18-25.4-13.07-36.14-17.96-3.02-1.38-6.85-3.14-8.5-3.9-6.06-2.81-28.2-11.5-38-14.91-2.2-0.77-7.83-2.79-12.5-4.49-4.68-1.7-27.4-9.39-50.5-17.08-23.1-7.69-44.25-14.84-47-15.88-2.75-1.05-9.77-3.73-15.6-5.97-5.82-2.23-10.92-4.06-11.33-4.06-0.4 0-3.96-1.39-7.9-3.09-32.23-13.89-60.59-29.05-75.16-40.18-0.56-0.42-5.06-3.78-10.01-7.45-11.7-8.69-36.14-33.19-45.17-45.28-6.74-9.02-16.34-23.42-19.41-29.13-18.96-35.17-30.39-69.98-36.09-109.87-1.28-8.96-2.02-18.67-2.26-28.69 0.05 0.14 0.11-0.35 0.17-1.56 0.19-3.71 0.19-9.79 0-13.5q-0.05-1.08-0.11-1.42c0.57-18.58 2.81-37.29 6.57-53.33 2.75-11.69 9.37-33.37 12.53-41 9.97-24.08 29.33-63.38 48.27-98 2.1-3.85 4.91-9.02 6.25-11.5 5.33-9.92 9.63-17.65 24.51-44 8.53-15.12 15.86-27.95 16.27-28.5 0.98-1.29 4.52-7.54 8.23-14.5 1.62-3.02 4.03-7.39 5.36-9.71 4.14-7.21 14-27.48 16.68-34.29 13.77-35.05 15.07-59.8 4.64-88-4.63-12.51-9.49-21.29-21.14-38.2-11.25-16.35-39.99-45.75-64.3-65.79-8.25-6.8-15.82-13.21-16.83-14.23-1.77-1.8-1.47-2.26 10.47-15.57 6.75-7.54 13.95-15.51 15.98-17.71 2.03-2.2 13.93-15.48 26.43-29.5 12.51-14.02 26.2-29.32 30.43-34 4.23-4.67 9.23-10.29 11.11-12.49 1.87-2.19 4.13-4.67 5.01-5.5 0.87-0.83 7.17-7.81 14-15.5 6.82-7.7 12.85-14.48 13.4-15.08 0.55-0.6 3.7-4.15 7-7.91 3.3-3.75 6.77-7.64 7.72-8.64 0.95-1 9.02-10.05 17.95-20.1 8.92-10.05 17.14-19.19 18.27-20.31 3.47-3.43 14.04-15.58 14.39-16.55 0.19-0.51 0.74-0.92 1.23-0.92zm-240.43 760.83c-0.17 5.53-0.19 11.05-0.06 16.48-0.11-0.29-0.18-3.3-0.18-8.31 0-5.98 0.1-9.11 0.24-8.17z"/>
		<path class="s2" d="m229.8 356.3c-7.9 8.8-16.8 18.7-19.8 22.2-3 3.4-9.7 10.9-14.9 16.6-5.2 5.7-10.6 11.7-12 13.4-2.4 2.7-42.3 47.2-53 59.1-2.5 2.7-7.3 8.1-10.6 11.9-3.3 3.8-15.7 17.6-27.5 30.8-11.8 13.1-21.6 24.2-21.8 24.7-0.2 0.4 5.6 5.8 12.9 12 17 14.6 39.2 36.9 49.9 50.1 42.9 53.3 50.6 98.9 26.4 156.6-5.7 13.7-18.5 38.4-31.4 60.4-19.3 33-31.7 55.4-56.4 101.9-36 67.8-45.5 92.6-52.3 136-2.8 17.8-2.5 55.7 0.5 75.2 3.9 25.1 10 47.2 19.7 71 23 56.1 63.1 98.2 122.1 128.1 26.5 13.5 48.4 21.9 115.4 44.5 62.4 21.1 66.8 22.6 87.5 31 44.4 18 81.1 38.3 114 63 34.1 25.6 68.6 61.8 93.5 97.9 3.5 5.1 6.6 9.3 6.9 9.3 0.3-0.1 2.4-2.4 4.6-5.3 19.6-25.4 60.1-67.2 85.5-88.3 48.9-40.7 98.8-70 181.5-106.7 14.3-6.3 39.5-17.4 56-24.7 52-23 85.7-39.5 116.5-57 43.5-24.7 57-36.4 77.5-67.5 21-31.7 30.4-55.6 37.7-95.5 1.9-11 2.2-15.9 2.3-40 0-24.6-0.3-28.8-2.3-39.5-3.1-16.1-6.3-27.8-11.6-41.6-4.4-11.6-24.2-52.6-39.6-81.9-4.5-8.5-13.8-26.3-20.7-39.5-6.9-13.2-17.6-33.2-23.8-44.5-16.6-30.3-17-31-26.5-50-15.4-30.6-24.8-55.4-29.2-77.2-2-9.6-2.3-14.2-2.2-30.8 0-18.4 0.2-20.1 3.1-31 8.1-30.4 25.2-57.2 55.2-86.3 7.7-7.4 17.8-16.5 22.5-20.2l8.5-6.7-9.8-11.2c-5.3-6.1-12.1-14-15.1-17.6-2.9-3.6-9-10.8-13.5-16-8.2-9.6-12.8-15-42.5-50-9.1-10.7-21.9-25.8-28.5-33.5-6.6-7.7-19.4-22.8-28.5-33.5-9.1-10.7-19.1-22.5-22.3-26.2l-5.8-6.8-7.8 4.9c-32.3 20.3-74.5 40.5-114.1 54.6-6.6 2.4-36.4 11.8-41 12.9-1.4 0.4-7.7 2-14 3.7-33.2 8.6-64.6 14-102.4 17.6-22.8 2.2-84.6 2.4-107.6 0.5-97.5-8.3-189.8-39.2-264.3-88.5l-12.7-8.4zm27.9 11.4c14.4 8.9 26.3 15.8 34.6 19.9l6.7 3.4v23.3 23.2l-9.7 1.8c-18.5 3.3-36.1 10.5-52.5 21.3-4 2.7-12.6 10.2-19.2 16.6-6.5 6.5-11.9 11.8-12 11.8 0 0 0-18.7 0.2-41.6l0.2-41.6 13.3-14.7c7.2-8.1 16.3-18.2 20-22.4 3.8-4.2 7-7.7 7.2-7.7 0.3 0 5.3 3 11.2 6.7zm658.3 7.8c16.4 19.5 19 22.6 39.9 47.4 11.3 13.4 33 39.1 48.1 57 15.1 17.9 31.8 37.8 37.2 44.1 5.4 6.3 9.8 11.7 9.8 12 0 0.3-18.3 13.8-40.7 30-22.3 16.2-45.6 33.1-51.7 37.6-6.1 4.4-18.5 13.4-27.6 20-9.1 6.6-27.3 19.9-40.5 29.5-13.2 9.7-37.5 27.4-54 39.4-16.5 12-40.8 29.7-54 39.4-13.2 9.6-28.7 20.9-34.5 25.1-92.2 66.9-111 80.7-114 82.9-1.9 1.5-12.7 9.4-24 17.6-19.4 14.1-51 37.1-63 45.9-3 2.3-6.8 5-8.5 6.2-1.6 1.1-6.7 4.7-11.1 8-4.5 3.2-18 13-30 21.8-12.1 8.7-23.5 17.1-25.4 18.5-1.9 1.5-12.7 9.4-24 17.6-11.3 8.2-28.6 20.8-38.5 28-9.9 7.2-23.8 17.4-31 22.6-32.3 23.5-107.5 78.2-145.5 105.9-64.7 47.2-76.1 55.5-102 74.3-15.1 11-32.3 23.5-38.1 27.8-5.8 4.4-10.9 7.9-11.1 7.9-1.1 0-12.4-17.9-17.4-27.5-21.5-41.1-31.6-81.8-31.6-126.5 0-29.7 3.5-51.9 12.7-79.4 5.3-16.2 8.6-23.5 11.6-26.2 2.1-1.9 19.4-14.5 55.4-40.5 6.6-4.7 20.1-14.6 30-21.8 9.9-7.3 20.5-15 23.5-17.1 3-2.2 13.7-9.9 23.7-17.2 10-7.3 34.5-25.2 54.5-39.7 20-14.5 37.9-27.6 39.8-29 1.9-1.5 10.3-7.6 18.5-13.6 22.6-16.4 33.7-24.4 60.5-44 13.5-9.8 39.1-28.5 57-41.5 17.9-13 43.3-31.5 56.5-41.1 91.7-66.9 134.6-98.1 181.5-132.3 29.4-21.4 77.8-56.6 107.5-78.3 29.7-21.6 73.4-53.4 97-70.7 23.7-17.3 43.3-31.4 43.6-31.3 0.4 0.1 4.8 5.1 9.9 11.2zm-185 82.9v23.4l-7.7 5.7c-35.2 25.6-51 37.1-64.6 47-8.7 6.4-16.4 11.8-17.2 12.2-1.3 0.4-1.5-5.6-1.3-47.3l0.3-47.8 3.5-0.7c1.9-0.4 10.9-1.7 20-2.9 18.8-2.5 59.1-10.3 66.8-12.9 0.1-0.1 0.2 10.4 0.2 23.3zm-285.2-16.4c17.2 3.4 45.2 7.6 63.5 9.5l5.7 0.6v93.9c0 74.1-0.3 93.9-1.2 94.3-0.7 0.3-7 4.7-14 9.8-7 5.2-17.9 13.2-24.4 17.9-29.2 21.3-37.3 27.2-43.1 31.4-3.4 2.6-6.5 4.6-7 4.6-0.4 0-0.7-13.3-0.6-29.6 0.1-24.7 0.4-29.8 1.6-31.2 1.9-2.1 9.8-17.9 12.7-25.2 10-25.9 10.4-65.5 0.8-90.5-3.2-8.6-7.5-17.7-11-23.8l-3.9-6.7v-29.3c0.1-16 0.1-29.3 0.1-29.5 0-0.4 1.1-0.2 20.8 3.8zm-137.1 8.2c-13.6 33-17 47.2-17 71.8-0.1 17.8 1.3 26.1 6.7 40.3l2.5 6.7-7.7 5.5c-14.1 10.1-44.6 23.4-54.6 23.9-3.1 0.1-3.1 0.1-5.3-8.8-4.3-17-5.6-29.6-5-48.1 0.9-26.6 5-43 16.9-68.3l3-6.3 11.1-5.3c12.7-6.1 22.6-9.3 34.2-11.1 10.9-1.8 15.9-1.8 15.2-0.3zm22.6 0.3c42.8 6.4 79.7 35.9 95.7 76.5 2.3 5.8 7 23 6.3 23-0.2 0-5-4-10.6-8.8-12.8-11.1-19.9-16.5-30.7-23.2-24.7-15.5-49.6-24.3-78.8-27.9-4.1-0.5-7.6-1.1-7.8-1.4-1.6-1.6 12.7-39.7 15-39.7 0.6 0 5.5 0.7 10.9 1.5zm-101.4 34.7c-6.9 17.3-10 34.4-10.6 57.1-0.6 19.5 0.9 33.5 5.1 49.9 1.3 4.9 1.9 9.1 1.5 9.4-1.3 0.8-30.1 5.6-30.6 5.1-1.2-1.2-4.4-20.5-4.9-29.7-1.9-31.8 11.1-66.6 33.4-89.3 4.2-4.2 7.8-7.7 7.9-7.7 0.2 0-0.7 2.4-1.8 5.2zm99.1 16.8c36.6 8.1 66.1 24.9 99.3 56.7l6.7 6.5v9.3c0 11.2-3 27.7-7 38.7-4.3 11.6-14.9 30.5-16.2 28.8-0.2-0.3-2.1-3.2-4.2-6.5-24.2-37.6-58.9-64.1-96.2-73.5-4-1-4.1-1.1-6.3-8.2-4.4-15.1-5.6-29.7-3.7-47.2l0.8-7.9 8.6 0.6c4.8 0.3 13 1.5 18.2 2.7zm-4.1 74.1c10.9 4.3 23.4 11.2 32 17.7l7.5 5.5-9.5 9.1c-30.6 29.5-67.3 46.5-111.9 52.1l-12.5 1.6-7.5-7.8c-4.1-4.3-9.7-11.2-12.4-15.3-5.3-8.1-12.1-21.8-11.2-22.7 0.3-0.4 6.5-1.6 13.8-2.9 42.5-7.2 72.6-19.4 92.8-37.4 5.3-4.7 6.7-4.7 18.9 0.1zm53.3 36.8c9.5 10 27.8 35 27.8 37.8 0 1.9-16.9 17.1-24.9 22.4-13.1 8.7-25.9 14.2-42.6 18.1-7.1 1.7-12.3 2.2-25 2.2-17.7 0.1-29-1.8-43.6-7.3-8.1-3-23-10.7-27-14l-2.4-1.9 5-0.7c30.6-4 63.1-15.5 86-30.5 10.5-6.9 24.4-18.2 32.5-26.4 3.5-3.6 6.7-6.6 7.1-6.6 0.4 0 3.6 3.1 7.1 6.9zm566.6 355.6l-0.3 344.6-11 5c-15.1 6.9-76.2 33.9-76.8 33.9-0.6 0 0.4-664.5 1.1-665.2 1.7-1.7 85.7-62.7 86.5-62.8 0.4 0 0.6 155 0.5 344.5zm-708.8-286.8c17.5 11.8 39.1 20.4 57.8 22.8l5.2 0.7v45.6 45.7l-11.1 8c-6 4.4-14.7 10.7-19.2 14.1-4.5 3.3-14 10.3-21.2 15.4-7.1 5.2-17.9 13-24 17.5-6 4.4-12.5 9.1-14.2 10.4l-3.3 2.2v-105-105l11.3 11.2c6.1 6.2 14.6 13.6 18.7 16.4zm493.3 734.1c-1 0.8-6.7 4.6-12.8 8.6-25.9 16.9-48.4 33.9-68.1 51.3-3.9 3.5-7.4 6.3-7.8 6.3-0.3 0-0.6-143.3-0.6-318.4v-318.4l18.3-13.3c10-7.3 22.7-16.5 28.2-20.5 5.5-4 17.7-12.9 27-19.7l17-12.4 0.3 317.6c0.2 303 0.2 317.7-1.5 318.9zm356.8-459.8c25.5 50 32.5 68.3 37.6 98 2.4 14.4 2.4 49.8 0 66-3 20.1-10.8 47.3-18.2 63.7-6.3 13.7-22 38-32.9 50.8l-2.5 3-0.1-156c0-151.1 0.1-155.9 1.8-153 1 1.6 7.5 14 14.3 27.5zm-571.1 249.5c0 147.7-0.2 268.5-0.5 268.5-0.3 0-4.4-3.4-9.2-7.5-19.2-16.4-43.4-33.1-68.9-47.5l-11.5-6.5 0.1-205.4c0-113 0.1-205.5 0.2-205.6 7.3-5.1 56.4-40.9 69.7-50.7 10.2-7.5 18.9-13.7 19.4-13.7 0.4-0.1 0.7 120.7 0.7 268.4zm-216 22.4v134l-32.2-10.9c-32.5-10.9-43.2-14.7-54.3-19.1l-6-2.4-0.3-84.1-0.2-84.1 8.2-5.9c4.4-3.2 10-7.3 12.2-8.9 2.3-1.7 12.4-9.1 22.6-16.4 10.2-7.4 22.3-16.3 27-19.7 15.4-11.3 22.5-16.4 22.7-16.4 0.2 0 0.3 60.3 0.3 133.9z"/>
		<path class="s2" d="m723.5 518.4c-18.3 4.6-33.6 13.7-49.6 29.6-11.9 11.8-16.7 18.6-21.5 30.4-5.7 13.9-6.8 19.6-6.8 35.1 0 11.4 0.4 15.6 2.3 22.5 8.9 33.5 35.2 66.6 64.3 80.8 18.2 8.9 41.4 11.6 59.8 7.1 27.9-7 56.6-29.5 67.9-53.3 9.4-19.9 9.9-42.9 1.3-64.6-3.6-9.1-6.1-13.2-7.6-12.2-1.1 0.6-30.5 22.9-34.3 25.9-1.3 1-1.1 2.2 1.2 9 2.2 6.2 2.6 9 2.2 13.5-1.3 14.7-14.4 30.3-30 35.8-16.8 5.9-36.1-0.8-52.3-18.3-18.7-20.2-27.1-38.9-26.2-58.2 0.6-11.1 3.7-18.2 11.4-25.9 15.8-15.6 35.3-18.6 50.3-7.5 1.8 1.3 3.4 1.8 4.3 1.3 0.7-0.4 9.3-6.9 19.2-14.3l17.9-13.5-5.8-5.4c-18.8-17.5-43.5-24-68-17.8z"/>
		<path class="s2" d="m909.5 586.5c-6.6 5.1-12 9.9-11.9 10.7 0.2 2.6 17.6 24.8 18.8 24 0.7-0.4 6.7-4.9 13.4-10 10.9-8.3 12.1-9.5 11-11.1-9-12.4-17.5-23.1-18.3-23-0.5 0-6.4 4.3-13 9.4z"/>
		<path class="s2" d="m501 686.4c-8 5.7-33.4 23.7-56.5 40-23.1 16.4-42.1 30.1-42.2 30.4-0.3 0.6 19.7 25.7 64.3 80.8 8.8 11 19.1 23.7 22.8 28.4 21.6 27 33.1 41 33.7 41 0.4 0 7.8-5.1 16.6-11.3 8.7-6.1 17.5-12.3 19.6-13.7 2-1.4 3.7-2.9 3.7-3.3 0-0.5-10.2-13.4-22.6-28.8-12.4-15.4-22.4-28.2-22.2-28.5 0.4-0.3 33.1-23.6 55.1-39.1 3.8-2.6 7.3-5.3 7.8-5.9 0.6-0.7-3.1-6-10.7-15.5-14.4-17.9-13-16.6-15.1-14.7-1 0.8-4.3 3.3-7.3 5.4-8.4 5.8-19.9 13.9-37.4 26.3-8.7 6.2-16.4 11.5-17.1 11.7-1.3 0.5-25.8-29.2-25.3-30.6 0.2-0.5 14.5-10.8 31.8-23.1 17.3-12.2 33.9-23.9 36.8-26l5.2-3.7-6.1-7.3c-3.3-4-8.8-10.8-12.1-15.1-3.3-4.3-6.6-7.8-7.2-7.8-0.6 0-7.6 4.7-15.6 10.4z"/>
		<path class="s2" d="m647.1 780.5c-6.8 5.2-12.6 9.6-12.8 9.9-0.5 0.5 3.7 6.2 13.9 19.3l4.8 6.1 13-9.6c7.1-5.3 12.9-10.1 12.9-10.5 0.1-1-18-24.7-18.8-24.7-0.3 0-6.2 4.3-13 9.5z"/>
		<path class="s2" d="m259 857.6c-16.2 3.3-29.8 8.8-42.1 17.1-28.9 19.7-45 43.6-47.8 71.5-2.8 28.1 6.6 54.8 29 82.3 28.5 35.2 68.4 48.7 105.6 35.8 21.7-7.5 46.6-26.3 59-44.8 21.9-32.5 20.4-72-4-108.5-18.3-27.5-40.2-44.5-66.2-51.5-5.9-1.6-28.5-2.9-33.5-1.9zm19.1 48.3c24.6 9.5 51.9 47.3 51.9 72 0 6.3-2.5 15.6-5.7 21.1-4.2 7.2-13.4 15.4-22 19.7-7.5 3.7-8 3.8-18.7 3.8-10.7 0-11.3-0.1-18.6-3.7-20.9-10.2-43.2-39.6-47.6-62.9-1.5-8-1.5-9.2 0-15.9 0.9-4 3-9.6 4.6-12.5 5.6-9.7 17.7-19.2 29.5-23.1 5.9-2 19.7-1.2 26.6 1.5z"/>
		<path class="s2" d="m436.5 934.1c-6.6 5-12.4 9.5-12.9 10-0.8 0.7 7.2 12.2 16 23.1l2.2 2.7 11.9-8.9c6.6-4.9 12.5-9.5 13.1-10.3 0.9-1.1-0.7-3.8-7.9-13.3-4.9-6.5-9.3-12-9.7-12.2-0.4-0.1-6.2 3.9-12.7 8.9z"/>
	</g>
</svg>