<?xml version="1.0" encoding="utf-8" ?><svg xmlns="http://www.w3.org/2000/svg" xmlns:xlink="http://www.w3.org/1999/xlink" width="307" height="324" viewBox="0 0 307 324"><path fill="#1D0001" d="M104.387 37.0844C104.788 36.337 105.473 34.9757 106.141 34.4683C111.92 30.08 117.879 26.1928 124.144 22.5497C125.06 22.0172 126.964 20.5902 127.746 19.9049C132.077 16.1077 136.829 13.875 141.815 11.2008C144.661 9.6741 146.733 6.58247 150.493 6.04005C155.801 4.39927 158.381 5.4646 163.306 7.77496C164.86 8.50431 167.601 10.7543 169.258 11.814C172.865 14.12 176.55 16.4667 180.043 18.9285C181.773 20.1477 183.678 22.1317 185.435 23.286L206.281 36.9654C209.531 39.0667 212.95 40.9452 216.298 43.3372C219.35 45.6689 222.361 48.0917 225.433 50.3974C225.433 50.3974 226.263 50.1702 226.264 50.1702C238.293 58.3728 251.093 66.076 262.154 75.5355C264.87 77.8577 266.669 81.823 267.617 85.1074C267.803 85.7721 267.966 86.4428 268.106 87.1185C267.673 88.6526 267.119 90.4361 266.786 91.9739C274.009 91.9481 284.531 91.3249 291.322 93.63C293.26 94.288 296.248 96.9367 297.823 98.3853C300.802 101.127 301.826 105.552 301.788 109.522C301.74 114.59 300.352 117.958 296.636 121.546C294.658 123.457 292.389 124.723 290.45 126.552C290.141 126.843 289.864 128.306 289.88 128.825C290.085 135.372 290.158 138.666 285.237 143.487C282.006 146.651 279.925 147.954 275.556 149.55C271.387 151.072 266.357 151.189 263.197 154.709C261.967 156.078 260.835 157.954 259.666 159.414C258.715 160.602 256.109 162.739 255.67 164.058C254.422 167.813 253.901 172.182 252.722 176.077C251.859 179.239 250.939 182.357 249.849 185.448C249.221 187.228 247.715 189.663 247.359 191.416C246.103 197.609 244.752 203.636 242.807 209.668C242.177 211.624 241.816 213.723 241.122 215.667C240.272 218.385 236.925 222.195 235.932 224.546C234.267 228.489 233.355 233.805 231.444 237.801C229.509 241.85 227.172 246.175 224.716 249.93C223.718 251.457 222.189 252.804 221.312 254.263C221.942 260.97 206.723 277.35 203.107 284.216C202.451 285.462 198.871 287.41 198.286 288.422C194.64 294.724 190.794 298.714 183.646 301.451C183.442 302.99 183.253 303.672 182.298 304.924C181.59 305.851 180.359 307.057 179.385 307.683C176.491 309.542 173.468 311.208 170.51 313.004C167.445 314.864 164.721 317.079 161.593 318.711C159.924 319.581 157.499 320.323 155.615 320.569C151.908 321.051 146.772 319.505 143.749 317.377C142.128 316.237 140.383 314.341 138.612 313.328C134.886 311.196 130.811 309.354 127.374 306.772C125.137 305.092 123.637 302.267 121.537 300.406C118.76 297.945 115.73 295.57 113.018 293.049C111.852 291.965 110.307 289.853 109.173 288.579C107.272 286.442 105.324 284.358 103.542 282.123C100.913 278.825 98.8526 275.205 96.4878 271.764C93.7814 267.827 91.2505 264.484 88.8783 260.291C87.1621 257.258 85.8873 254.485 84.3129 251.417C83.4051 249.648 81.9204 247.619 80.9132 245.815C78.9957 242.381 77.2935 238.927 75.6402 235.367C73.7627 231.326 73.3024 226.964 71.7445 222.981C70.6427 220.392 68.85 217.888 67.829 215.284C65.1164 208.364 63.1549 201.114 60.8742 194.039C60.0718 191.551 60.3152 188.346 59.592 185.806C59.0471 183.894 57.9066 182.145 57.2302 180.275C56.3933 177.594 55.5387 174.445 54.8437 171.725C54.1726 169.099 52.909 165.144 52.5811 162.566C51.1475 161.71 48.5235 159.1 48.2793 157.338C48.2356 157.023 48.8767 156.618 49.1382 156.394C46.7524 155.601 43.5658 152.199 41.9542 150.255C41.5033 150.333 40.5428 150.532 40.1225 150.513C29.7114 150.036 20.8453 143.091 18.4547 132.831C18.4143 132.657 18.9257 130.256 18.992 129.895C19.2252 128.625 19.1216 127.686 19.0354 126.42C17.3789 124.914 15.2839 124.334 13.5323 122.75C11.7204 121.111 10.9941 118.161 10.9019 115.804C10.2426 116.367 10.3841 116.43 9.67585 116.511C8.39991 115.519 7.45135 112.05 7.17317 110.419C6.16258 104.495 9.24908 101.073 12.3112 96.5822C17.9312 88.3409 33.3242 92.0545 41.6265 90.9032L41.7812 90.5812C40.7516 88.3017 40.6251 87.2995 41.3472 84.7877C42.1004 82.3557 43.5809 77.7684 45.502 76.1374C52.2937 70.3713 58.6718 64.0785 67.1676 61.0918C67.8315 60.8583 74.7545 54.6185 76.7339 53.4344C84.7558 48.636 92.5123 43.9299 99.8626 38.1471C100.981 37.2578 102.947 36.7211 104.387 37.0844ZM186.259 135.25C184.54 134.308 183.387 133.782 181.576 133.022C183.071 134.097 184.151 134.81 185.737 135.748L186.259 135.25Z"/><path fill="#D2EADC" d="M104.387 37.0844C104.788 36.337 105.473 34.9757 106.141 34.4683C111.92 30.08 117.879 26.1928 124.144 22.5497C125.06 22.0172 126.964 20.5902 127.746 19.9049C132.077 16.1077 136.829 13.875 141.815 11.2008C144.661 9.6741 146.733 6.58247 150.493 6.04005C155.801 4.39927 158.381 5.4646 163.306 7.77496C164.86 8.50431 167.601 10.7543 169.258 11.814C172.865 14.12 176.55 16.4667 180.043 18.9285C181.773 20.1477 183.678 22.1317 185.435 23.286L206.281 36.9654C209.531 39.0667 212.95 40.9452 216.298 43.3372C219.35 45.6689 222.361 48.0917 225.433 50.3974C225.433 50.3974 226.263 50.1702 226.264 50.1702C238.293 58.3728 251.093 66.076 262.154 75.5355C264.87 77.8577 266.669 81.823 267.617 85.1074C267.803 85.7721 267.966 86.4428 268.106 87.1185C267.673 88.6526 267.119 90.4361 266.786 91.9739C274.009 91.9481 284.531 91.3249 291.322 93.63C293.26 94.288 296.248 96.9367 297.823 98.3853C300.802 101.127 301.826 105.552 301.788 109.522C301.74 114.59 300.352 117.958 296.636 121.546C294.658 123.457 292.389 124.723 290.45 126.552C290.141 126.843 289.864 128.306 289.88 128.825C290.085 135.372 290.158 138.666 285.237 143.487C282.006 146.651 279.925 147.954 275.556 149.55C271.387 151.072 266.357 151.189 263.197 154.709C261.967 156.078 260.835 157.954 259.666 159.414C258.715 160.602 256.109 162.739 255.67 164.058C254.422 167.813 253.901 172.182 252.722 176.077C251.859 179.239 250.939 182.357 249.849 185.448C249.221 187.228 247.715 189.663 247.359 191.416C246.103 197.609 244.752 203.636 242.807 209.668C242.177 211.624 241.816 213.723 241.122 215.667C240.272 218.385 236.925 222.195 235.932 224.546C234.267 228.489 233.355 233.805 231.444 237.801C229.509 241.85 227.172 246.175 224.716 249.93C223.718 251.457 222.189 252.804 221.312 254.263C220.85 254.039 220.853 254.008 220.509 253.655C220.765 253.17 220.834 253.019 220.806 252.469C223.311 247.702 225.922 242.761 228.222 237.906C230.588 233.699 231.963 227.833 234.141 223.739C237.693 217.061 238.86 211.799 241.095 204.749C244.82 193.001 248.999 181.214 251.343 169.065C252.598 162.561 252.708 161.804 258.246 157.876C258.98 157.326 260.978 153.027 261.577 151.781C267.796 149.527 283.209 145.7 286.042 138.437C287.026 135.914 287.236 129.226 287.576 126.119C292.355 121.195 298.092 119.284 298.806 111.706C299.125 107.851 298.877 102.953 296.365 99.8314C292.223 94.686 286.116 95.2903 280.226 95.0045C275.014 94.7516 269.713 94.7078 264.53 94.1524C264.289 88.7414 265.516 83.7879 262.11 78.998C258.345 73.7031 250.763 69.7618 245.356 66.0877L207.445 40.7723L173.313 17.6673C166.733 13.2674 157.48 4.28355 148.663 9.4981C133.912 18.2224 119.795 28.2663 105.339 37.5995C97.1965 43.6756 88.1014 48.9127 79.7624 54.7538C75.6636 57.6248 71.2072 60.0404 67.2684 63.2545C60.7436 67.698 53.2748 71.387 47.7506 77.1259C43.5254 81.5358 44.4333 88.0016 44.3805 93.4349C39.3154 93.6737 22.679 93.806 18.9494 94.9381C16.7432 95.6078 14.7992 96.938 13.2671 98.6509C10.5827 101.652 9.56067 105.525 9.79399 109.493C9.90835 111.438 10.3722 113.73 11.3666 115.431L10.9019 115.804C10.2426 116.367 10.3841 116.43 9.67585 116.511C8.39991 115.519 7.45135 112.05 7.17317 110.419C6.16258 104.495 9.24908 101.073 12.3112 96.5822C17.9312 88.3409 33.3242 92.0545 41.6265 90.9032L41.7812 90.5812C40.7516 88.3017 40.6251 87.2995 41.3472 84.7877C42.1004 82.3557 43.5809 77.7684 45.502 76.1374C52.2937 70.3713 58.6718 64.0785 67.1676 61.0918C67.8315 60.8583 74.7545 54.6185 76.7339 53.4344C84.7558 48.636 92.5123 43.9299 99.8626 38.1471C100.981 37.2578 102.947 36.7211 104.387 37.0844Z"/><path fill="#D2EADC" d="M49.9943 156.153C51.5802 158.195 53.8125 159.847 55.0731 161.817L55.1596 161.95C55.9785 163.233 57.3632 170.303 57.8106 172.149C61.3356 186.694 65.613 201.534 70.7498 215.616C78.1981 236.596 88.4699 256.463 101.282 274.67C106.184 281.532 110.86 287.818 117.223 293.462C118.77 294.834 120.144 296.79 121.666 298.217C125.925 302.419 129.324 304.993 134.24 308.274C139.803 311.987 143.825 315.589 150.673 317.37C156.207 318.809 162.772 315.622 167.192 312.494C170.983 309.811 180.679 304.186 183.409 301.114L183.646 301.451C183.442 302.99 183.253 303.672 182.298 304.924C181.59 305.851 180.359 307.057 179.385 307.683C176.491 309.542 173.468 311.208 170.51 313.004C167.445 314.864 164.721 317.079 161.593 318.711C159.924 319.581 157.499 320.323 155.615 320.569C151.908 321.051 146.772 319.505 143.749 317.377C142.128 316.237 140.383 314.341 138.612 313.328C134.886 311.196 130.811 309.354 127.374 306.772C125.137 305.092 123.637 302.267 121.537 300.406C118.76 297.945 115.73 295.57 113.018 293.049C111.852 291.965 110.307 289.853 109.173 288.579C107.272 286.442 105.324 284.358 103.542 282.123C100.913 278.825 98.8526 275.205 96.4878 271.764C93.7814 267.827 91.2505 264.484 88.8783 260.291C87.1621 257.258 85.8873 254.485 84.3129 251.417C83.4051 249.648 81.9204 247.619 80.9132 245.815C78.9957 242.381 77.2935 238.927 75.6402 235.367C73.7627 231.326 73.3024 226.964 71.7445 222.981C70.6427 220.392 68.85 217.888 67.829 215.284C65.1164 208.364 63.1549 201.114 60.8742 194.039C60.0718 191.551 60.3152 188.346 59.592 185.806C59.0471 183.894 57.9066 182.145 57.2302 180.275C56.3933 177.594 55.5387 174.445 54.8437 171.725C54.1726 169.099 52.909 165.144 52.5811 162.566C51.1475 161.71 48.5235 159.1 48.2793 157.338C48.2356 157.023 48.8767 156.618 49.1382 156.394C49.5871 156.492 49.4651 156.445 49.9943 156.153Z"/><path fill="#D2EADC" d="M183.409 301.114C184.758 299.516 187.37 297.327 188.986 295.774C199.033 286.12 206.787 274.707 214.716 263.342C216.222 261.183 219.342 253.7 220.806 252.469C220.834 253.019 220.765 253.17 220.509 253.655C220.853 254.008 220.85 254.039 221.312 254.263C221.942 260.97 206.723 277.35 203.107 284.216C202.451 285.462 198.871 287.41 198.286 288.422C194.64 294.724 190.794 298.714 183.646 301.451L183.409 301.114Z"/><path fill="#D2EADC" d="M11.3666 115.431C15.0994 122.092 17.2228 121.301 21.3021 125.866C21.1627 131.144 21.0727 137.475 25.0978 141.634C27.6253 144.246 37.5017 148.199 41.0917 149.398L41.9542 150.255C41.5033 150.333 40.5428 150.532 40.1225 150.513C29.7114 150.036 20.8453 143.091 18.4547 132.831C18.4143 132.657 18.9257 130.256 18.992 129.895C19.2252 128.625 19.1216 127.686 19.0354 126.42C17.3789 124.914 15.2839 124.334 13.5323 122.75C11.7204 121.111 10.9941 118.161 10.9019 115.804L11.3666 115.431Z"/><path fill="#D2EADC" d="M41.0917 149.398C46.0676 150.689 46.9249 152.099 49.9943 156.153C49.4651 156.445 49.5871 156.492 49.1382 156.394C46.7524 155.601 43.5658 152.199 41.9542 150.255L41.0917 149.398Z"/><path fill="#DE2A2A" d="M153.381 10.8239C154.105 10.7691 154.832 10.7774 155.555 10.8487C160.324 11.2915 169.918 18.7361 174.24 21.6421C183.418 27.7302 192.553 33.8842 201.643 40.1036L238.778 65.0756C245.044 69.3128 254.484 74.9006 259.877 80.3058C262.768 83.2038 261.388 93.1473 260.904 97.2767C269.108 97.4897 277.672 97.0026 285.87 97.5026C289.008 97.6884 292.161 99.3836 294.023 101.979C301.708 112.691 290.319 120.479 283.158 125.936C283.446 126.476 283.707 127.031 283.938 127.599C285.033 130.312 284.99 133.774 283.825 136.44C280.271 144.567 266.598 146.699 259.042 149.732C256.396 156.575 256.022 155.683 250.816 159.929C250.356 161.545 249.918 164.143 249.528 165.878C248.611 169.878 247.619 173.862 246.555 177.826C232.504 228.348 210.354 283.38 163.17 311.668C160.669 313.168 158.48 314.457 155.559 314.938C151.094 315.343 148.176 313.752 144.486 311.561C116.877 295.167 97.5483 268.429 84.1097 239.78C78.8508 228.569 73.5935 216.042 69.7872 204.175C66.6116 194.256 63.7041 184.253 61.068 174.178C60.431 171.727 58.464 162.542 57.9411 161.002C56.2891 156.137 51.8287 157.646 49.725 149.147C41.9298 146.133 27.7263 143.951 24.5025 134.888C23.5245 132.139 23.9443 127.81 25.6546 125.379C20.0735 120.989 12.4482 116.142 12.3555 108.357C12.2976 103.493 16.2046 98.1913 20.9919 97.1647C24.2931 96.4568 28.8132 96.7229 32.2596 96.7313L47.8405 96.7834C47.4666 92.2897 46.1011 83.0449 48.9939 79.7981C52.9794 75.3249 62.2808 69.9239 67.2996 66.5642L103.11 42.7494L132.999 22.8366C138.141 19.4051 143.329 15.893 148.519 12.5261C149.896 11.6334 151.79 11.1546 153.381 10.8239ZM186.259 135.25C184.54 134.308 183.387 133.782 181.576 133.022C183.071 134.097 184.151 134.81 185.737 135.748L186.259 135.25Z"/><path fill="#FEFEFE" d="M153.844 15.5728C154.049 15.5671 154.254 15.5694 154.458 15.5798C156.255 15.6711 157.782 16.3091 159.277 17.3037C165.169 21.2251 171.007 25.2289 176.883 29.1766L216.381 55.7848L241.708 72.7727C259.97 85.0286 257.297 79.9934 255.742 102.008C259.682 101.973 284.367 101.726 286.882 102.592C288.654 103.203 290.218 104.601 291.03 106.286C291.772 107.828 291.891 109.724 291.32 111.341C289.49 116.517 279.752 122.624 274.97 124.933C282.91 129.281 281.067 136.08 273.546 139.456C267.101 142.348 260.92 144.393 253.959 145.701C254.592 150.958 252.374 154.453 247.061 155.615C246.123 158.515 245.418 162.135 244.719 165.155C243.709 169.545 242.61 173.914 241.421 178.26C229.239 223.189 208.972 272.813 170.142 301.368C166.186 304.277 160.049 308.404 155.452 310.041C151.644 310.796 147.057 307.636 143.883 305.581C94.6303 273.684 73.7426 209.56 61.6224 155.441C55.8513 152.791 54.2527 151.514 54.569 145.064C53.9032 144.974 53.2408 144.861 52.5828 144.726C46.527 143.467 33.5864 139.819 29.6474 134.501C26.7433 130.581 29.882 126.547 33.5841 124.359C28.6733 121.597 17.3715 114.889 17.1937 108.592C17.1373 106.734 17.8363 104.932 19.1309 103.599C22.0859 100.578 29.2336 101.465 33.3709 101.472L53.0945 101.511C52.6465 97.6874 51.0212 84.433 52.8886 82.5808C56.7706 78.7304 69.6852 70.6748 74.3561 67.5708L108.43 44.8784L135.133 27.1136C139.06 24.4945 150.308 16.4006 153.844 15.5728ZM186.259 135.25C184.54 134.308 183.387 133.782 181.576 133.022C183.071 134.097 184.151 134.81 185.737 135.748L186.259 135.25Z"/><path d="M130.738 95.9878C129.744 91.9585 129.144 88.9331 131.38 85.0571C133.091 82.0905 137.009 80.5288 140.468 80.5853C146.613 80.6856 160.922 78.2299 164.469 84.6746C166.558 88.4725 168.112 94.9798 169.826 99.1406C170.811 101.942 172.602 106.432 173.259 108.966L248.267 109.042L272.484 109.196C275.772 109.209 282.039 109.394 285.15 109.022C268.165 124.476 258.589 124.504 236.861 122.441L218.762 120.723C215.728 120.409 211.655 119.847 208.721 119.686C208.708 119.942 208.665 120.325 208.716 120.558C223.167 122.866 237.652 125.747 252.076 128.172C257.705 129.119 268.064 131.338 273.465 131.648C262.318 137.036 249.648 141.312 237.061 139.112C232.826 138.372 227.314 136.282 223.041 135.174C212.858 132.535 202.201 129.543 191.92 127.467C193.706 128.61 206.236 132.837 209.25 133.936C221.933 138.561 234.724 143.684 247.453 148.077C235.438 153.122 228.723 154.059 216.505 149.063C208.663 145.811 200.903 142.366 193.231 138.731C192.204 138.241 186.92 135.719 186.259 135.25C184.54 134.308 183.387 133.782 181.576 133.022C183.071 134.097 184.151 134.81 185.737 135.748C193.164 140.336 200.551 144.99 207.895 149.711C212.596 152.713 217.318 155.865 222.183 158.566C205.166 160.455 200.432 159.183 187.361 148.919C189.262 153.337 191.253 159.646 192.889 164.297L201.964 189.87C202.653 191.821 206.131 202.236 206.909 203.559C209.532 208.017 215.838 218.53 218.921 222.309L188.692 222.27C190.809 212.431 188.951 202.813 183.496 194.377C178.358 186.327 170.174 180.705 160.817 178.798C151.038 176.838 140.881 178.781 132.516 184.21C124.6 189.379 119.206 197.844 117.298 207.052C116.26 212.081 116.242 217.268 117.246 222.304C108.373 222.226 98.9148 222.166 90.0484 222.297C93.4714 216.815 96.6929 211.095 99.8831 205.473C102.989 200 104.828 193.522 106.882 187.563L115.32 163.255C116.76 159.093 118.472 153.624 120.088 149.607C108.259 158.511 102.884 160.423 87.7474 158.284L86.4394 158.095C87.977 157.41 89.2661 156.647 90.6957 155.764C101.084 149.351 111.291 142.531 121.807 136.336L121.256 135.693C111.064 140.709 100.488 145.436 89.9183 149.627C79.6377 153.704 71.1034 152.043 61.313 147.588C77.3749 142.1 93.4471 135.766 109.512 130.08C110.052 129.645 110.197 129.552 110.827 129.25L110.981 129.178C110.475 128.885 109.795 128.901 109.194 128.853C109.098 128.89 109.001 128.926 108.903 128.959C108.192 129.207 107.35 129.389 106.609 129.571C98.9609 131.455 91.3218 133.233 83.7475 135.403C79.9983 136.477 75.9379 137.839 72.1422 138.574C59.3455 141.053 46.4812 136.45 35.2238 131.015C41.3714 130.596 51.1621 128.632 57.4232 127.548C70.7413 125.183 84.0747 122.904 97.4224 120.711L97.2649 119.664C89.1423 120.498 81.0118 121.253 72.8745 121.927C68.4719 122.311 62.6812 123.043 58.4395 123.111C47.677 123.34 37.1822 119.744 28.8218 112.962C27.1488 111.6 25.2975 109.812 23.7579 108.275C27.2056 108.597 31.5986 108.453 35.1495 108.454L53.4354 108.49C70.1438 108.655 86.8532 108.7 103.562 108.626C113.383 108.626 124.558 108.423 134.292 108.741C135.806 103.423 138.068 97.918 139.742 92.5669C135.259 92.4025 133.429 92.0286 130.738 95.9878Z"/><path fill="#C0C0C4" d="M97.2649 119.664C98.736 119.249 103.992 119.07 105.934 118.865L106.12 119.023L106.566 118.941C107.339 119.006 97.8128 120.659 97.4224 120.711L97.2649 119.664Z"/><path fill="#A5A3A6" d="M109.194 128.853C111.958 128.17 114.735 127.54 117.523 126.964C115.533 128.156 111.797 129.587 109.512 130.08C110.052 129.645 110.197 129.552 110.827 129.25L110.981 129.178C110.475 128.885 109.795 128.901 109.194 128.853Z"/><path fill="#C0C0C4" d="M208.716 120.558C207.408 120.373 203.104 119.811 202.082 119.17C203.656 119.192 207.266 119.241 208.721 119.686C208.708 119.942 208.665 120.325 208.716 120.558Z"/><path fill="#C0C0C4" d="M121.256 135.693C123.12 134.705 124.73 133.88 126.7 133.103C124.998 134.317 123.63 135.314 121.807 136.336L121.256 135.693Z"/><path fill="#FEFEFE" d="M152.909 112.903C153.75 113.434 157.92 127.295 158.512 129.141L168.64 161.061C163.315 158.717 159.19 158.273 153.455 158.042C147.386 158.009 142.853 158.615 137.312 161.031C138.019 159.13 138.669 157 139.269 155.045C143.597 140.961 148.648 126.995 152.909 112.903Z"/><path fill="#DE2A2A" d="M151.379 185.039C167.654 184.122 181.586 196.583 182.483 212.859C183.379 229.136 170.9 243.052 154.622 243.927C138.374 244.801 124.49 232.349 123.595 216.103C122.7 199.856 135.134 185.955 151.379 185.039Z"/><path fill="#FEFEFE" d="M146.228 211.851C146.504 211.839 146.84 211.824 147.238 211.807C149.787 213.114 155.467 217.19 157.45 218.909C157.437 221.595 157.264 224.278 156.932 226.943C156.874 227.397 156.736 228.864 156.381 229.092C154.028 230.603 148.254 233.4 145.556 233.138L144.423 234.253C141.695 232.647 139.292 230.782 136.795 228.856L137.856 227.692C136.494 226.208 137.111 217.255 138.04 215.714C140.343 214.311 143.677 212.97 146.228 211.851Z"/><path fill="#C22218" d="M137.856 227.692C140.535 229.915 142.546 231.368 145.556 233.138L144.423 234.253C141.695 232.647 139.292 230.782 136.795 228.856L137.856 227.692Z"/><path fill="#FEFEFE" d="M168.753 211.88L170.667 212.704C172.385 213.759 173.76 214.626 175.388 215.811C175.787 217.168 175.374 221.928 175.237 223.473C174.872 227.582 169.854 231.555 166.238 233.072C164.539 232.398 158.953 230.178 158.213 228.638C157.839 228.567 157.464 228.5 157.088 228.439L156.932 226.943C157.264 224.278 157.437 221.595 157.45 218.909C158.193 219.175 158.909 219.367 159.123 220.226C159.146 219.986 159.238 219.332 159.343 219.181C160.2 217.945 167.933 212.156 168.753 211.88Z"/><path fill="#C22218" d="M157.45 218.909C158.193 219.175 158.909 219.367 159.123 220.226C159.034 221.705 158.79 227.691 158.213 228.638C157.839 228.567 157.464 228.5 157.088 228.439L156.932 226.943C157.264 224.278 157.437 221.595 157.45 218.909Z"/><path fill="#FEFEFE" d="M133.262 199.87C135.534 196.587 140.105 195.04 143.743 193.553C145.88 194.743 148.066 196.669 149.92 198.258C150.087 199.506 146.856 209.655 145.793 210.312C145.968 210.858 146.095 211.293 146.228 211.851C143.677 212.97 140.343 214.311 138.04 215.714C137.725 215.377 137.438 214.773 137.209 214.345C135.825 213.414 132.141 209.541 130.91 208.21C131.163 205.313 132.063 202.501 133.262 199.87Z"/><path fill="#C22218" d="M145.793 210.312C145.968 210.858 146.095 211.293 146.228 211.851C143.677 212.97 140.343 214.311 138.04 215.714C137.725 215.377 137.438 214.773 137.209 214.345C139.665 213.015 143.181 211.523 145.793 210.312Z"/><path fill="#FEFEFE" d="M167.94 194.476C169.123 194.366 172.039 196.247 172.986 197.008C176.47 199.81 178.097 203.257 179.354 207.419C178.507 210.298 177.723 211.838 176.239 214.462C176.024 215.405 176.199 215.049 175.388 215.811C173.76 214.626 172.385 213.759 170.667 212.704L168.753 211.88L168.665 211.771C168.671 210.83 168.74 211.021 169.326 210.113C168.073 205.861 166.894 202.594 164.777 198.701C165.881 197.327 167.026 195.981 167.94 194.476Z"/><path fill="#C22218" d="M171.342 211.37C173.099 212.396 174.603 213.246 176.239 214.462C176.024 215.405 176.199 215.049 175.388 215.811C173.76 214.626 172.385 213.759 170.667 212.704L171.342 211.37Z"/><path fill="#C22218" d="M169.326 210.113L171.342 211.37L170.667 212.704L168.753 211.88L168.665 211.771C168.671 210.83 168.74 211.021 169.326 210.113Z"/><path fill="#FEFEFE" d="M150.386 187.431C150.693 187.408 151 187.391 151.307 187.381C158.93 187.063 161.255 188.24 166.775 193.328L167.061 193.119C167.633 193.636 167.667 193.748 167.94 194.476C167.026 195.981 165.881 197.327 164.777 198.701C164.405 198.421 164.07 198.053 163.74 197.719C161.927 197.689 159.632 197.447 157.724 197.413C156.331 197.388 152.026 197.57 151.05 197.351C149.618 195.839 146.959 193.72 145.289 192.325C147.168 189.987 147.857 189.086 150.386 187.431Z"/><path fill="#C22218" d="M166.775 193.328L167.061 193.119C167.633 193.636 167.667 193.748 167.94 194.476C167.026 195.981 165.881 197.327 164.777 198.701C164.405 198.421 164.07 198.053 163.74 197.719C164.769 196.303 165.782 194.778 166.775 193.328Z"/><path fill="#FEFEFE" d="M130.557 228.296C132.252 228.521 135.74 228.114 136.795 228.856C139.292 230.782 141.695 232.647 144.423 234.253C145.71 235.42 146.598 238.691 147.183 240.403C139.67 239.762 133.684 235.021 130.557 228.296Z"/><path fill="#FEFEFE" d="M125.473 212.894C126.097 209.982 128.997 198.535 131.918 197.398L132.368 197.821C133.2 198.506 132.599 198.915 133.262 199.87C132.063 202.501 131.163 205.313 130.91 208.21C130.156 207.979 129.596 208.023 128.812 208.014C127.648 209.904 126.883 211.188 125.473 212.894Z"/><path fill="#C22218" d="M132.368 197.821C133.2 198.506 132.599 198.915 133.262 199.87C132.063 202.501 131.163 205.313 130.91 208.21C130.156 207.979 129.596 208.023 128.812 208.014C130.139 204.886 130.623 201.729 132.368 197.821Z"/><path fill="#DE2A2A" d="M154.514 42.0194C157.134 43.3934 163.043 47.7144 165.823 49.5916L184.287 61.9952C188.058 64.5469 192.488 67.7265 196.328 70.0683C196.52 80.6453 196.163 91.408 196.415 101.906C190.682 101.633 183.978 101.953 177.949 101.79C176.652 96.5518 172.004 82.406 168.609 78.7478C164.058 73.8436 158.045 73.4765 151.808 73.2839C145.356 73.2202 133.773 72.8692 128.877 77.3735C121.901 83.7914 120.668 94.2621 126.99 101.748C122.171 101.667 117.35 101.662 112.531 101.731C112.381 91.1298 112.6 80.4964 112.474 69.8905C116.304 67.5668 120.793 64.4067 124.56 61.8947L142.715 49.8361C146.475 47.3016 150.661 44.3274 154.514 42.0194Z"/><path d="M154.279 22.7141C155.079 22.6867 170.294 33.1519 172.103 34.3691L204.409 56.1147C219.163 66.0539 235.622 76.5985 249.978 86.8399C249.499 91.9777 249.17 96.8133 248.601 102.005C245.629 101.957 242.656 101.942 239.684 101.96C240.175 98.4408 240.38 94.7128 240.838 91.1237C238.001 89.5932 233.299 86.2192 230.517 84.3433L212.568 72.2651L154.874 33.4242L154.612 33.344C153.066 33.7805 131.924 48.2714 129.195 50.0879L89.7403 76.3368C82.8168 80.9413 74.5189 86.1481 67.9162 90.9939C68.4869 93.5355 68.5999 98.5142 69.0704 101.555C66.1264 101.614 62.9833 101.547 60.0237 101.536C60.0102 99.3495 59.0729 88.4615 58.5962 86.4638C90.2375 64.9875 122.708 44.2601 154.279 22.7141Z"/><path d="M206.289 229.262C209.471 229.318 212.987 229.453 216.138 229.291C215.075 231.46 214.044 233.686 213.008 235.872C199.801 262.805 180.929 289.177 153.743 303.322C150.861 301.493 147.907 299.886 145.025 297.957C124.419 284.165 109.363 263.365 98.0996 241.584C97.1043 239.659 92.5984 231.036 92.2543 229.322C94.8249 229.479 99.2466 229.31 102.023 229.357C102.535 230.773 103.148 232.058 103.821 233.408C114.288 254.415 127.903 274.63 147.092 288.607C149.267 290.191 151.549 291.614 153.728 293.191C171.856 282.835 186.931 264.448 197.301 246.602C200.218 241.582 204.074 234.605 206.289 229.262Z"/><path d="M69.4962 158.061C72.1251 158.599 75.931 158.885 78.6134 159.084C82.0864 174.706 86.5537 190.089 91.9882 205.141C90.8191 207.257 89.5223 209.417 88.3032 211.514C87.5139 212.858 86.9794 213.849 86.2943 215.249C80.531 200.192 75.7279 184.786 71.9139 169.121C71.4006 167.037 69.5876 159.924 69.4962 158.061Z"/><path d="M238.425 158.61L238.905 158.609C239.046 159.468 237.86 163.96 237.6 165.045C233.558 181.976 228.422 198.627 222.224 214.893C221.643 213.895 220.992 212.871 220.385 211.883L216.233 205.502C220.779 193.635 224.329 181.104 227.53 168.81C228.332 165.731 229.194 162.422 229.723 159.293C232.907 159.314 235.265 159.018 238.425 158.61Z"/><path fill="#DE2A2A" d="M96.8344 80.5033L97.0887 80.5336C97.481 81.1155 97.301 99.3689 97.2985 101.709C90.4073 101.506 83.2796 101.829 76.3126 101.594C76.1018 100.677 75.7329 95.9832 75.5358 94.503C82.5292 90.2905 89.774 84.6076 96.8344 80.5033Z"/><path fill="#DE2A2A" d="M211.623 80.4419C218.574 84.7459 226.218 90.2413 233.09 94.8658C232.94 97.1537 232.652 99.6521 232.442 101.961C225.672 101.906 218.321 101.797 211.567 101.984C211.503 94.8031 211.521 87.622 211.623 80.4419Z"/><path d="M153.815 258.835C154.579 259.235 157.308 265.421 157.876 266.621C160.907 267.086 163.71 267.514 166.763 267.861C164.77 269.906 162.425 272.025 160.352 274.111C160.694 276.948 161.382 280.287 161.931 283.126C159.442 281.573 156.558 280.114 153.942 278.736C153.375 278.929 146.964 282.404 146.058 282.882C146.596 279.858 146.983 277.343 147.658 274.285L141.055 267.624C143.574 267.624 147.525 266.987 150.078 266.623C151.244 264.067 152.604 261.408 153.815 258.835Z"/><path fill="#A5A3A6" fill-opacity="0.98431373" d="M181.576 133.022C183.387 133.782 184.54 134.308 186.259 135.25L185.737 135.748C184.151 134.81 183.071 134.097 181.576 133.022Z"/></svg>