<?xml version="1.0" encoding="UTF-8"?>
<svg id="Layer_1" xmlns="http://www.w3.org/2000/svg" version="1.1" xmlns:xlink="http://www.w3.org/1999/xlink" viewBox="0 0 400 400">
  <!-- Generator: Adobe Illustrator 30.0.0, SVG Export Plug-In . SVG Version: 2.1.1 Build 123)  -->
  <defs>
    <style>
      .st0 {
        fill: #d4d5d9;
      }

      .st1 {
        fill: #03520c;
      }

      .st2 {
        fill: #695406;
      }

      .st3 {
        fill: #3c3103;
      }

      .st4 {
        fill: #fe0000;
      }

      .st5 {
        fill: #009a18;
      }

      .st6 {
        fill: #f1bb01;
      }

      .st7 {
        fill: #fefefe;
      }

      .st8 {
        fill: url(#linear-gradient);
      }

      .st9 {
        fill: #282102;
      }
    </style>
    <linearGradient id="linear-gradient" x1="140.7" y1="314.5" x2="135" y2="313.3" gradientTransform="translate(0 400) scale(1 -1)" gradientUnits="userSpaceOnUse">
      <stop offset="0" stop-color="#018914"/>
      <stop offset="1" stop-color="#00a420"/>
    </linearGradient>
  </defs>
  <path d="M199.9,2c1.3,1.2,3.3,4.4,4.5,5.9,23.8,29.9,59.2,53.3,98.2,35.8,2.6,2.4,6.8,7.5,9.5,10.4l24.3,26.4,9.5,10.3c1.4,1.5,4,4,5.1,5.6-7.2,14.6-11.8,34.1-12,50.4-.2,13.9,4.2,24.9,9,37.6,1.9,5.1,3.6,10.3,5,15.5,2.8,10.1,4.5,20.6,5.1,31.1.1,2.2.3,4.4.4,6.5,0,1.8-.2,3.7-.3,5.5-1.6,45.6-31.5,78.9-70.2,99.7-10.2,5.5-20.7,10-31.5,14.5-22.1,9.1-44.6,17.5-57,39.5-.3.6-.4.9-1,1.3-.1,0-4.8-7.4-5.4-8.3-5.2-7.1-11.8-13.1-19.2-17.8-13.3-8.3-28.8-14.1-43.3-20.4-31.9-13.8-61.8-34.3-77.9-66.1-13.8-27.3-13.5-59-5-87.9,1.7-5.6,3.6-11.2,5.7-16.7,1.2-3.2,2.6-6.4,3.6-9.6,2.5-7.6,3.8-15.5,4-23.5.3-15.9-5-37.2-12.1-51.4,2-2.3,4.3-4.7,6.4-6.9,14.2-15.1,27.9-30.8,42.2-45.8,9,4.2,20,6.6,29.9,6,24.8-1.4,45.2-16.2,61.5-33.9,2.5-2.8,4.9-5.7,7.3-8.7,1.4-1.7,2.5-3.6,4-5.2Z"/>
  <path class="st7" d="M200.1,13.9c.1,0,10.2,10.9,11.1,11.8,25.3,25.1,53.5,37.8,88.9,26.6l40.4,43.6c-9,24.3-14.6,45.6-6.5,71.3,1.4,4.6,3.2,9.1,4.7,13.6,2.2,6.5,4.1,13.1,5.7,19.8,2.4,9.7,3.8,19.7,4.3,29.7,2.2,55.2-30.9,88.7-78.4,111-27.7,13-48.8,16.4-70.6,39.9l-.8.8c-.9.3-1.6-1-2.4-1.8-4.8-5.2-10.1-10-15.9-14.2-15.3-11.2-30.8-15.6-47.7-23.3-62.2-28.2-93.3-71.4-77.7-140.3,1.6-7,3.5-13.9,5.8-20.6,4.3-12.8,8.2-21.3,8.9-35.3.8-18.3-3.9-33.8-10.3-50.6l40.4-43.6c41.9,13.8,73.1-7.8,99.9-38.3Z"/>
  <path d="M198.9,25.7c19.3,21.6,42.6,43.5,73.9,40.5,7.3-.7,13.2-2.3,20.2-4.4,11.9,12.6,23.7,25.9,35.5,38.7-9.1,25.3-8.7,48.9-.3,74.5,1.5,4.5,3.7,9.3,5.3,13.8,4.4,12.4,7.2,23.3,8.5,36.3,5.2,49.7-23.8,83-66.1,104.4-10,5.1-19.1,8.6-29.5,13-20.4,8.6-33.5,17.5-47.5,34.4-3.9-4.4-6-7-10.3-11.3-18.5-18.2-41.7-23.8-64.2-34.8-51.5-25.4-79.1-64-65.9-122.3,1.7-7.2,3.8-14.4,6.4-21.3,1.5-4,3.2-8,4.6-12,7.2-21.1,8.7-44.5,2.6-66.1-.8-2.9-1.8-5.7-2.8-8.5,11.4-12.9,23.7-25.9,35.4-38.7,10.8,2.9,17.8,5.3,29.5,4.5,26.9-1.7,47.7-21.6,64.6-40.7Z"/>
  <path class="st4" d="M57.5,235.3h282.9c-.3,30.2-11.1,51.3-33.7,71.1-4.7.2-11,0-15.9,0h-55.6c1.5-6.2,1.9-11.4.5-17.8-2.1-9.7-8-18.1-16.3-23.4-8.4-5.3-18.5-6.9-28.1-4.7-9.5,2.2-17.7,8.1-22.8,16.4-5.8,9.4-6.7,19-4.2,29.5h-73.6c-2.2-1.9-4.4-3.9-6.5-5.9-18.5-18.5-26.8-39.3-26.8-65.3Z"/>
  <path class="st4" d="M198.8,29.4c.5,1,.2,121.3.2,132.5-15.9.2-32.3,0-48.2,0h-75.2c.6-2.8,1-5.2,1.5-8,3-17.7,1.3-35.8-4.9-52.6,10.9-12.3,22.5-24.7,33.6-36.8,9.5,2.7,19.1,4.6,29,4,27-1.6,47-20.1,64.1-39Z"/>
  <path class="st9" d="M135.4,110.3c.7.2.8.2,1.3.6v.3c0,0,0,.2,0,.2l.6.3c1,.2,2.3,1.3,3.2,2l.9.3c1-.1,1.7-.2,2.6-.5,1-.6,2.3-.6,3.4-.7l-.3.3c.5.6,1.9,1.7,2.6,2.2,4.9,4,5.5,10.8,4.3,16.8-1.3,7.1-4.2,17.6-10,22.6-3.2,2.6-6.7.9-8.1,1.4v.9c-.8.3-2-.7-2.7-1.1l-.3.3.2.5-.2.2c-1.1-.4-1.5-1.3-2.7-2-.4.1-.5.2-.9.4-1.1-.1-.7,0-1.6-.6-1,.2-1.8.5-2.8.8.5-.6,1-1.2,1.4-1.8l-.3-.3h-.8c-2.4-1.5-4.8-2.5-6.3-5.1-2.9-5.5-.8-12.1.6-17.7.9-2.9,1.8-5.9,3.1-8.7,1.5-3.3,2.9-7,6-9.1,2-1.3,5.1-1.3,6.9-2.4Z"/>
  <path class="st6" d="M126,145c2.2,2.5,3.3,3.4,5.9,5.4-.6,1-1.2,2.6-2.2,2.9-.8-.4-2-.8-2.9-1.1-1.4-1.1-2.1-1.8-3.3-3,.8-1.4,1.6-2.8,2.5-4.1Z"/>
  <path class="st9" d="M128.2,148.6h.2c0,.1,0,.6,0,.6.5.6.7.7,1,1.5-.7-.2-1.2-.7-1.7-1.3-1,.3-1.1.3-2.1.3.1-.2,2-.8,2.6-1.1Z"/>
  <path class="st6" d="M143.9,113.3c2.8-.5,4.3,1,6.2,2.9-2,.4-3.5.8-5.4,1.4-1.1-1.2-2.5-2.5-3.4-3.8,1-.1,1.7-.2,2.6-.5Z"/>
  <path class="st6" d="M137.1,111.6c1,.2,2.3,1.3,3.2,2-.5.3-.9.6-1.4.9-.7,0-.9-.4-1.6-1v.3s.8.7.8.7c-.3.8-1.9,1.6-2.7,2.1-.7-1.2-1.1-2-1.7-3.2,1.2-.7,2.2-1.2,3.4-1.8Z"/>
  <path class="st6" d="M132.3,150.6c1.7,1,3,1.8,4.8,2.6l-1.9,1.8c-1.2-.4-2.3-.7-3.4-1.1l-.8-.3-.2-.4c.4-1,.9-1.7,1.5-2.6Z"/>
  <path class="st5" d="M126.9,152.1c.9.3,2,.7,2.9,1.1.4.4.7.5,1.3.4l.8.3c.3.7.7,1.5,1.1,2.2l.2.5-.2.2c-1.1-.4-1.5-1.3-2.7-2-.4.1-.5.2-.9.4-1.1-.1-.7,0-1.6-.6-1,.2-1.8.5-2.8.8.5-.6,1-1.2,1.4-1.8l.2-.2c.1-.6,0-.8.5-1.2Z"/>
  <path class="st6" d="M136.6,111.4c-.3.2-.6.3-.9.5-.9.5-1.6.9-2.6.6v-.3c.8-1,2.3-1.4,3.6-.9v.2Z"/>
  <path class="st6" d="M135.3,117.4c.8.8,1.8,2.2,3,3.4-.8.6-1.4,1-2.2,1.6v.3s-.2,0-.2,0v.2c1-.4,1.9-1.1,2.9-1.7,1.9,1.3,3.6,2.7,5.4,4.1l-2.4,1.6-2.8,2.1c-.9-.8-4.2-3.8-4.4-4.8l.6-.7-.2-.3c-.4.3-.4.4-.9.5-.9-.7-1.9-2.2-2.6-3.2,1.2-1.2,2.6-2.3,4-3.3Z"/>
  <path class="st6" d="M130.1,139.2c2,1.6,3.1,3.2,5.8,5.3l-3.7,5.5c-2.5-1.9-3.7-3-5.9-5.4,1-1.8,2.5-3.7,3.8-5.4Z"/>
  <path class="st9" d="M131.5,142.8l.2.2c0,.1,0,.3,0,.4,0,1.4.6,1.1,1.5,2.1-1.2-.2-1.5-.6-2.3-1.6-1.4.3-1.4.6-2.8.4.1-.2,2.7-1,3.5-1.5Z"/>
  <path class="st6" d="M134.1,134.3c1.8,1.7,3.6,3.5,5.7,5-1.2,1.6-2.5,3.2-3.7,4.8-2.4-1.9-3.7-3.1-5.7-5.3,1.2-1.6,2.4-2.9,3.7-4.4Z"/>
  <path class="st9" d="M135.7,137.3h.1c-.2,2.5.8,1.3,1.6,3-1.4-.5-1.5-.7-2.4-1.9-.9.3-1.8.5-2.8.3,1.3-.4,2.3-.6,3.4-1.4Z"/>
  <path class="st6" d="M138.8,129.8c1.8,1.5,3.6,3,5.5,4.5-1.5,1.5-2.9,3.1-4.3,4.6-1.9-1.4-3.9-3.3-5.6-5,1.5-1.5,2.8-2.7,4.3-4.1Z"/>
  <path class="st9" d="M139.9,132.5h.2c0,.5,0,.8-.1,1.1.4.8,1.2.9,1.9,1.6h-.2c-1.1,0-1.7-.8-2.3-1.6-.6-.2-1.9.9-3.1.3v-.3c2-.3,1.3.3,3.5-1l.3-.2Z"/>
  <path class="st6" d="M140.2,139.6c2.3,1.5,4,2.5,6.5,3.6l-4.1,4.5h0c-1.3-.2-4.9-2.6-5.9-3.5,1.1-1.6,2.3-3.2,3.6-4.7Z"/>
  <path class="st9" d="M142,142.4l.2.2c-.4,2.2.6,1.3,1.7,2.6l-.2.2c-1-.2-1.6-.9-2.3-1.7h-.1c-1.3.4-1.5.4-2.9.2,1.5-.2,2.1-.4,3.4-1.2h.2Z"/>
  <path class="st6" d="M144.6,134.7c.7.2,4.8,3.2,5.7,3.8-.7.9-2.7,3.9-3.6,4.4-2.4-1.2-4.1-2.1-6.2-3.6,1.1-1.6,2.7-3.1,4.1-4.5Z"/>
  <path class="st9" d="M146.2,137.2c.4.5-.3.8,0,1.4.3.4,1.5,1,1.6,1.5-1.3-.4-1.5-.6-2.3-1.7h0c-1-.2-1.9.9-3.1.2v-.3c2-.2,2.2-.2,3.8-1.2Z"/>
  <path class="st6" d="M144.1,125.8c1.1.2,4,3.5,4.9,4.5-1.7,1.3-2.8,2.2-4.4,3.6-1.8-1.4-3.7-2.9-5.4-4.5,1.7-1.4,3.1-2.4,4.9-3.6Z"/>
  <path class="st3" d="M144.6,128.2h.1c0,.3,0,.6.1.8.6.7.7.7,1.1,1.6-.9-.3-1-.6-1.7-1.4h0c-.8,0-1.6.4-2.4.3.5-.4,1.8-.7,2.7-1.2h.2Z"/>
  <path class="st6" d="M136.2,144.8c1.8,1.3,3.9,2.5,5.8,3.6l-4.1,4.1c-.2.2-.3.1-.5.2-1.7-.5-3.3-1.6-4.8-2.5l3.6-5.4Z"/>
  <path class="st3" d="M137.8,147.6h.1c-.4,1.5.4,1.4,1.3,2.3h-.3c-.8-.3-1.1-.6-1.8-1.2-.2-.1-1.6.2-2.4,0,1.2-.4,1.5-.4,2.7-1h.3Z"/>
  <path class="st6" d="M125.8,133.8c.3.2,3.4,4.3,3.9,4.9-1.2,1.7-2.4,3.4-3.6,5.1h-.2c-.8-.2-2.9-3.9-3.5-4.9,1.1-1.8,2.1-3.3,3.3-5.1Z"/>
  <path class="st9" d="M126.5,137.7h.2c-.2,1.4.4,1.4,1.4,2.2h-.2c-.8-.1-1.1-.5-1.8-1.1-.6-.7-1.3.5-2.8,0v-.2c1.4-.2,1.5,0,2.9-.7h.3Z"/>
  <path class="st6" d="M133.8,124.7c.5.4,3.9,3.9,4.7,4.7-1.4,1.2-2.6,2.4-4,3.8h-.2c-1.1-.2-3.5-3.6-4.3-4.7,1.1-1.3,2.5-2.5,3.7-3.7Z"/>
  <path class="st9" d="M134.7,127.1h0c0,.5,0,.6,0,1.1.4.9,1.1.8,1.8,1.6l-.2.2c-1-.2-1.7-1-2.3-1.8-1.2.5-1.5.6-2.8.5h0c1.5-.7,2.2-.7,3.6-1.5Z"/>
  <path class="st6" d="M149.7,122.8c1.2.8,2.9,2.1,4.1,3v2c-1.8.7-2.8,1.3-4.5,2.3-1.6-1.7-2.9-3-4.6-4.6,1.5-1,3.4-1.8,5-2.7Z"/>
  <path class="st3" d="M150.3,124.8c.2,1.4.3.9,1.2,2.2h-.1c-.5-.1-1-.6-1.5-1v-.2c-.7-.2-1.4.2-2.5,0,1.2-.3,1.5-.2,2.7-.9h.2Z"/>
  <path class="st6" d="M129.7,128.9c1,1.1,3,3.7,4.2,5-1.2,1.3-2.5,2.9-3.7,4.3-1-.5-3.3-4-3.9-5,1.2-1.6,2.1-2.8,3.5-4.3Z"/>
  <path class="st9" d="M130.2,132.5h.3c-.2,1.3.3,1.2,1.3,2.1v.2c-.8-.3-1.2-.7-1.8-1.2l-.2-.2c-.7.1-1.6.3-2.3,0,1.3-.2,1.6-.4,2.8-1Z"/>
  <path class="st6" d="M144.6,118.2c1.6,1.4,3.2,2.8,4.8,4.2-1.7.8-3.3,1.7-5,2.6-1.8-1.6-3.3-2.7-5.3-4.1,1.8-1.2,3.5-1.9,5.5-2.7Z"/>
  <path class="st3" d="M144.6,120.1h.1c-.2,1.6.4,1.3,1.4,2.3h-.2c-.9-.2-1.1-.5-1.8-1.2-.3-.2-1.4.3-2.5.2v-.3c1.4-.2,1.6-.2,2.8-.9h.2Z"/>
  <path class="st6" d="M149.2,130.8c.6.2,3.1,3.1,3.7,3.8-.5.9-1.7,2.9-2.4,3.4l-.5-.2c-1.7-1.1-3.3-2.2-4.9-3.5,1.4-1.4,2.5-2.3,4.1-3.4Z"/>
  <path class="st3" d="M149.5,133.3h.1c0,1.8.6,1.4,1.4,2.4h-.3c-.9-.4-1.1-.6-1.9-1.4-1,.3-1.2.3-2.2.3.6-.4,1.9-.7,2.9-1.3Z"/>
  <path class="st6" d="M140.6,114.1c.4.3,3.1,3.2,3.6,3.8-2,.9-3.2,1.4-5.1,2.5l-.4.2c-1.1-.5-2.3-2.4-3.1-3.4,1.8-1.2,3.1-2,5-3Z"/>
  <path class="st2" d="M140.1,116.2c.2,1.2.5,1.1,1.3,2.1-.8-.1-1.1-.5-1.7-1.1v-.2c-1.1.1-1.5.2-2.5.2v-.2c1.3-.1,1.6-.2,2.9-.9Z"/>
  <path class="st6" d="M142.5,148.6c1.5.6,3,1.3,4.5,1.8-.5.7-1.2,2.3-2.1,2.3-.8-.4-.8-.4-1.4-1.1v-.9c-.5,0-2,.8-2.6,1,.6-.1.2.3.6.2.4,0,1-.2,1.4-.3.7.6,1.2,1,2,1.5-.6.6-1.2,1-1.9,1.5-1.7-.5-3.4-1.1-5-1.6l4.5-4.5Z"/>
  <path class="st6" d="M122.1,139.6c.3.3,2.9,4.1,3.5,4.9-.8,1.5-1.6,2.7-2.5,4.1-1.3-1.5-2.3-3-3.4-4.7.8-1.5,1.5-2.9,2.3-4.4Z"/>
  <path class="st9" d="M123.5,142.8c.2.4.2.5.2.9.3.4.5.6.8,1.1l.2.3h0c0-.1-.3,0-.3,0-.6-.5-.9-.8-1.4-1.4-.7.2-1.1.3-1.9.5l-.2-.3v.4s-.2-.3-.2-.3v.3s-.2-.3-.2-.3c1-.5,1.5-.4,2.8-1.1h.2Z"/>
  <path class="st6" d="M120.1,133.7c1.1-1.5,2.1-2.9,3.2-4.3.8,1.4,2.4,3.3,1.8,4.8-.6.1-.3.1-1-.2l-.2.2.5.4c-.2,1-1.6,2.9-2.2,3.8-.8-1.5-1.5-3.2-2.2-4.7Z"/>
  <path class="st2" d="M123.9,134.2c-.4-.3-.6-.4-1-.7-.7.1-1.1.2-1.8,0v-.2c.6-.2,1.4-.4,2.1-.5.3.4.6.8.9,1.2l-.2.2Z"/>
  <path class="st6" d="M149.5,116.8c.5,0,.5,0,1,0,1.4,1.1,1.9,2.6,2.6,4.2-.8.3-2.7,1.1-3.4,1-1.6-1.4-3-2.5-4.5-4,1.5-.5,2.8-.8,4.3-1.2Z"/>
  <path class="st6" d="M126.9,125.2c.6.3,2,2.6,2.5,3.3-1.1,1.2-2.3,2.7-3.3,4.1-.1,0-.3,0-.4,0-.8-1-1.4-2.3-2-3.5.9-1.2,2.1-2.6,3.2-3.8Z"/>
  <path class="st6" d="M128.3,117.1c.4.2,1.9,2.8,2.3,3.4l-3.6,3.6c-.8-1.1-1.7-2.8-2.5-4,1.2-1,2.5-2,3.7-3Z"/>
  <path class="st6" d="M147.1,143.5l2.8,1c-.4.8-1,2.6-1.6,3.1-.7-.3-.6-.7-1.3-1.5-.8.5-1,.5-1.9.6,1.4.5,1-.5,2.3.7.2.2.5.4.7.6.1.8-.5,1.4-.9,2.1-1.6-.6-2.8-1.1-4.3-1.8l4.2-4.7Z"/>
  <path class="st6" d="M130.9,121.1c.5.5,2.2,2.6,2.7,3.3-1.2,1.1-2.5,2.4-3.7,3.6h-.2c-.8-.9-1.6-2.2-2.3-3.3,1.2-1.3,2.2-2.3,3.5-3.6Z"/>
  <path class="st6" d="M123.9,120.6c.9.3,2.3,3,2.9,4-.9.9-2,2.3-2.8,3.3l-.3.3h-.4c-2-2.4-1.5-5.5.6-7.6Z"/>
  <path class="st6" d="M132.9,113.9h.3c.7.9,1.3,2.2,1.8,3.1-1.4,1-2.7,2.1-4,3.3-.9-1.3-1.4-2.2-2.2-3.6l4.1-2.8Z"/>
  <path class="st6" d="M121.4,125.8c.4.4,1.4,2.5,1.7,3.1-.9,1.2-1.8,2.4-2.7,3.6l-.3.3-.4-.2c-.5-1.2,1.2-5.6,1.7-6.8Z"/>
  <path class="st6" d="M120.9,147.3c-.6.4-.8.5-1.5.6-1.4-.7-.4-2.3,0-3.4.6.9,1,1.4,1.6,2.4.8.8,1.2,1.4,1.9,2.3-.3.5-.7,1.2-1.1,1.7-.7-.6-2.2-1.7-2.3-2.6l.2-.3c1.2-.2,1.8,1.2,2.3.8l-.2-.2c-.5-.5-.7-.6-.9-1.3Z"/>
  <path class="st6" d="M119.5,138.5c.6,0,1.4.7,2,1.2l-1.8,3.4h-.2c-1-.7-1.7-2.6-1.6-3.9.5-.7.4-.5,1.6-.7Z"/>
  <path class="st6" d="M153.7,128.4c.3.6,0,2.1-.2,2.7-1.3-.3-1.1-.3-2.5-.2v.2s.8.1.8.1c.8.1.9,0,1.5.6.3.7.1,1.1,0,1.8v.2c-.7-.3-2.8-2.7-3.4-3.4,1.5-.9,2.3-1.3,3.9-2.1Z"/>
  <path class="st6" d="M150.7,138.8c.7.4.5.1.9.7,0,1.9-1,1.4-2.2,1.8v.3c.6.2.4.1,1.2,0h.2c0,1-.3,1.6-.6,2.4-.9-.3-1.8-.6-2.7-.9,1.1-1.4,2.2-2.8,3.3-4.2Z"/>
  <path class="st6" d="M119.7,134.3c.4.5,2.2,4.6,2.6,5.4-.8-.4-1.1-.6-1.8-1.2v-.7c-.5,0-1.9.5-2.5.6.3-2.2.4-2.5,1.7-4.2Z"/>
  <path class="st6" d="M137.5,153.5c.9,0,3.6.9,4.3,1.5v.3c-.1,0-1,.3-1,.3-2.2.2-3,0-5.1-.4.6-.6,1.2-1.1,1.8-1.7Z"/>
  <path class="st6" d="M127,114.4c.5.3.9,1.5,1.2,2.2-1.2.9-2.3,1.8-3.4,2.7l-.5.2c-.2-1,2-4.3,2.7-5.1Z"/>
  <path class="st6" d="M127.7,114.4c0-.2,0-.3,0-.5.8-.5.5-.4,1.5-.5h.2s0-.5,0-.5h.2c.3.3.6.7,1,1l.3.2c0,.1.1.3.2.4-.6.7-1.6,1.3-2.5,1.8l-.9-1.9Z"/>
  <path class="st6" d="M153,121.6c.6.5,1,2.3.7,3.1l-.3.2-.7-.5c-.8-.6-1.6-1.2-2.4-1.8l2.7-1Z"/>
  <path class="st6" d="M130.8,114.1c-.4-.8-.5-.7-.5-1.5.5-.5,1.2-.6,1.9-.8.5,1,.5.7.4,1.7-.5.6-1,.8-1.8.6Z"/>
  <path class="st6" d="M123.3,149.5c.7.6,1.7,1.5,2.2,2.2l-.3.3c-1.1-.2-1.8-.2-2.5-.9,0-.8.1-.7.7-1.6Z"/>
  <path class="st6" d="M117.7,141.1c1.1,1.8,1.8,2.3.9,4.3l-.2.2h-.3c-.5-1.4-.5-3.2-.5-4.5Z"/>
  <path class="st1" d="M150.2,72.4c.9,3.2,1.5,6.4,1.8,9.7.1.7.2,2,.5,2.5,2.3-3,4.7-4.6,8.1-6.5-3,3.6-4.2,5.8-6.2,9.9,3.6-2.9,6.8-5.1,11.3-6.5-1.4,2.2-4.8,7.5-6.4,9.1l.9.2c2.7-1,5.6-.9,8.5-.9-5.2,2.1-6.8,2.5-11.2,6l.9.2c1.4-.7,4.3-.2,5.7.2.6.2,1.2.4,1.7.6-6.6,1.1-8.4,2.5-12.6,7.1l.5.3c4.3-2.2,8.6-2.3,13.2-1.7-6.2,2.7-8.8,3.1-15,7l.2.5c3.3.5,5.7,3,7.7,5.5-4.8-3.1-6.8-3.3-12.4-3.1-1.1,0-2.4.1-3.4.7-1,.3-1.6.4-2.6.5l-.9-.3c-1-.7-2.2-1.7-3.2-2l-.6-.3v-.2s0-.3,0-.3c-.5-.5-.6-.4-1.3-.6-2.6-1.1-4-1.6-6.8-1.6,2.3-.8,4.2-1.3,6.7-.9l.7-.3c-2.5-2.4-4.3-3.8-7.4-5.3,2.4,0,4.3,0,6.4,1.2l.4-.4c-2.1-3.8-3.4-5.1-6.6-8,2.6.9,5.4,2,7.5,3.9l.5-.3c-2.2-4.6-4.2-7-8.2-10.3,2.7,1.2,4.7,2.1,7,4l.4-.3-.5-1.9-.3-1.4c-1-1.7-1.9-3.1-3-4.7,3.3,2.1,4.5,3.1,7.1,6.1.3.8.9,2,1.4,2.8l.9-.3c.3-.5.1-5.4-.3-5.9-.1-3.4.2-6.9,1-10.2,2.1,2.4,3.3,4.5,4.7,7.4l.6-.8c0-2.1,2.1-8.4,2.9-10.6Z"/>
  <path class="st5" d="M160.1,90.9c2.7-1,5.6-.9,8.5-.9-5.2,2.1-6.8,2.5-11.2,6l.9.2c1.4-.7,4.3-.2,5.7.2.6.2,1.2.4,1.7.6-6.6,1.1-8.4,2.5-12.6,7.1l.5.3c4.3-2.2,8.6-2.3,13.2-1.7-6.2,2.7-8.8,3.1-15,7-2.1,0-4.4-.5-6.5-.4h.1c-1.2-.1-1.8.7-2.7,1.4l-1.4-3.9c1.4-3.2,4-8.5,7.2-10.3.9-.1,1.5-.9,2-1.5v-.3s.4-.2.4-.2c.6-.3,1.2-.7,1.8-.7.2.4,0,.3.3.5,2.1-1.3,4.2-2.3,6.2-3.5l.9.2Z"/>
  <path class="st1" d="M150.9,94.4c.6-.3,1.2-.7,1.8-.7.2.4,0,.3.3.5,2.1-1.3,4.2-2.3,6.2-3.5l.9.2c-4.5,2.3-8.6,3.3-9.9,8.9v.2c.1,0,.6-.2.6-.2l.2.2-.3.2c-2.5,2-1.9,4-3.3,6.8.3.3.1.2.7.3-.4.6-.8.8-1.3,1.2h-.3c.2-1.7,4.7-11.9,5.6-13.9-.5-.3-.5-.2-1.2-.2Z"/>
  <path class="st1" d="M158.3,96.2c-1.4.5-5.7,2.8-6.4,2.9,1.7-1.5,3.5-2.2,5.5-3.1l.9.2Z"/>
  <path class="st1" d="M153.6,104.4c-.8.7-3.8,2.3-4.9,2.5,1.4-1,2.9-1.7,4.5-2.8l.5.3Z"/>
  <path class="st5" d="M150.2,72.4c.9,3.2,1.5,6.4,1.8,9.7.1.7.2,2,.5,2.5,2.3-3,4.7-4.6,8.1-6.5-3,3.6-4.2,5.8-6.2,9.9,3.6-2.9,6.8-5.1,11.3-6.5-1.4,2.2-4.8,7.5-6.4,9.1-2,1.2-4.1,2.2-6.2,3.5-.3-.3-.1,0-.3-.5-.6,0-1.2.4-1.8.7l-.4.2v.3c-.5.7-1.2,1.4-2,1.5,0-.3,0-.1-.2-.4-.6.4-.3.4-1,.4.4-.4.7-.7.8-1.3-.7.2-2.5,3.4-3.5,4.5h-.2c.2-5.2,2.5-11.6,2.9-16.7,0-2.1,2.1-8.4,2.9-10.6Z"/>
  <path class="st1" d="M152,82.1c.1.7.2,2,.5,2.5-.2,1.4,0,4.2,0,5.7-.9,1-1.7,1.9-2.6,2.8h-.3c.1-.5,1.9-2.4,2.4-3v-8Z"/>
  <path class="st5" d="M128.5,102.1c2.4,0,4.3,0,6.4,1.2,3.6,2.8,5.1,4.3,6.4,9,.9-.7,2-1.6,2.9-2.3,3.5-.2,4.4-.3,7.8.1,3.3.5,5.7,3,7.7,5.5-4.8-3.1-6.8-3.3-12.4-3.1-1.1,0-2.4.1-3.4.7-1,.3-1.6.4-2.6.5l-.9-.3c-1-.7-2.2-1.7-3.2-2l-.6-.3v-.2s0-.3,0-.3c-.5-.5-.6-.4-1.3-.6-2.6-1.1-4-1.6-6.8-1.6,2.3-.8,4.2-1.3,6.7-.9l.7-.3c-2.5-2.4-4.3-3.8-7.4-5.3Z"/>
  <path class="st5" d="M128.5,108.6c2.3-.8,4.2-1.3,6.7-.9,1.2.4,2.3,2.1,2.6,3.2l-.2.3c-.4-.1-.7-.2-1-.4-.5-.5-.6-.4-1.3-.6-2.6-1.1-4-1.6-6.8-1.6Z"/>
  <path class="st1" d="M135.9,107.4c1.9,1.4,2.5,4.7,4.4,5.7v.5c-.9-.7-2.1-1.7-3.2-2l-.6-.3v-.2s0-.3,0-.3c.4.1.7.2,1,.4l.2-.3c-.3-1.2-1.4-2.8-2.6-3.2l.7-.3Z"/>
  <path class="st5" d="M142.1,76.4c2.1,2.4,3.3,4.5,4.7,7.4-.2,3-1.9,10.4-2.5,13.7-1.2-1.3-3-2.7-3-4.5,0-.1,0-.3,0-.4.3-.5.1-5.4-.3-5.9-.1-3.4.2-6.9,1-10.2Z"/>
  <path class="st5" d="M128.7,95c2.6.9,5.4,2,7.5,3.9,1.7,1.9,4.3,4.2,5.1,6.6,0,.1-.2,1.5-.2,1.5.1,1.5,1.6,2.9,1,4.4h-.3c-.7-.6-1.2-2.9-2.2-4.1-.9-1.1-3.1-3.6-4.3-4.3-2.1-3.8-3.4-5.1-6.6-8Z"/>
  <path class="st5" d="M128.5,88.3c2.7,1.2,4.7,2.1,7,4,.8,1.2,2.1,2.4,3.1,3.5l.3,5.4c-.3-.3-2.1-2.4-2.2-2.5-2.2-4.6-4.2-7-8.2-10.3Z"/>
  <path class="st5" d="M135.3,90.1c.3-.1.4-.3.7,0,2.9,2,6,5.2,8,8.1.2.3,0,.7,0,.9-.6,0-1.5-1.3-2.1-1.7-2.4-1.6-4.3-2.9-5.9-5.3l-.5-1.9Z"/>
  <path class="st5" d="M132,84c3.3,2.1,4.5,3.1,7.1,6.1.3.8.9,2,1.4,2.8v.2c-1.9-1.8-3.4-2.9-5.5-4.4-1-1.7-1.9-3.1-3-4.7Z"/>
  <path class="st5" d="M139.1,96c1.7.7,3.6,2.7,5,4.1-.4,1-1.2,2.5-1.8,3.5-.3.5-.3.7-.7.9-1-.6-1.7-2.2-2.3-3.2,0-1.8-.1-3.5-.1-5.3Z"/>
  <path class="st8" d="M132,79.9c3,1.1,5.1,2.5,7.3,4.9.6.7,1.1,1.3,1.7,1.9.4.6.6,5.4.3,5.9l-.9.3c-.4-.8-1.1-2-1.4-2.8,0-2.2-5.4-8.6-7-10.3Z"/>
  <path class="st4" d="M209.6,40.9c.7.4,5.2,4.7,6.2,5.6,2.3,2,4.4,3.7,6.9,5.7v109.8s-13.1,0-13.1,0V40.9Z"/>
  <path class="st7" d="M187.8,174.9c10.9-.2,22.3,0,33.2,0v9.8s-16.2,0-16.2,0c-3.1,0-6.2-.1-9.3,0-4.9.3-4.4,4-4.3,7.7h16.5s0,10.9,0,10.9c-5.4-.1-11.1,0-16.5,0,0,3.9-1,7.3,3,9.3,2.4.3,6.9.1,9.5.1h17.4s0,10,0,10h-23.1c-3.9,0-8.3.1-12.2-.4-4.5-.6-8.3-5-8.5-9.6-.3-8.2,0-16.5-.1-24.7-.1-7.4,2.7-12.4,10.7-13.1Z"/>
  <path class="st4" d="M233.2,59.1c4.9,2.6,8,4,13.1,6v64.6s0,20.8,0,20.8c0,3.3.1,8.2,0,11.3h-13s0-102.8,0-102.8Z"/>
  <path class="st7" d="M283.9,174.9c6.5,0,13,0,19.5,0,3.5,0,6.9.6,9.5,3.3,3.2,3.4,3,7.2,2.9,11.5h-14.2c0-.4,0-.7-.1-1.1-.2-2-.9-2.5-2.4-3.7-2.8-.5-6.6-.5-9.4,0-.8.6-2.1,1.6-2.2,2.7-.5,5.4-.1,11-.2,16.4,0,1.7-.2,5.5.7,6.7.6.9,1.6,1.6,2.7,1.8,2.2.4,7.1.7,9-.8,1.5-1.2,1.6-2.4,1.8-4.1l.4-.2h13.7c0,3.8.4,7.7-2.2,10.9-1.6,2.1-4.2,3.9-6.9,4.1-4.2.3-8.6.2-12.8.2-4-.2-8.5.3-12.4-.3-4.1-.8-7.9-5.1-8.1-9.3-.2-7.4,0-14.9-.1-22.3,0-4.3-.4-8.6,2.6-12,2.4-2.6,4.6-3.4,7.9-3.7Z"/>
  <path class="st7" d="M92.3,174.9c5.4-.1,10.9,0,16.4,0,2.3,0,5.2-.1,7.4.4,1.8.4,3.5,1.3,4.9,2.6,3.5,3.3,3.3,7.5,3.3,11.8h-14.2c0-.8-.1-1.5-.4-2.3-.4-1-1-1.9-2-2.3-1.9-.8-7.8-.8-9.7,0-1,.4-1.3,1.1-1.7,2.1-.3.8-.4,1.7-.5,2.6-.2,2.6-.4,19,.6,20.7.5.9,1.6,1.6,2.6,1.9,2.3.5,7.1.8,9.1-.6,1.6-1.1,1.8-2.5,2.1-4.3l.4-.2h13.7c0,8.9-1.6,15.1-12.4,15.1-7.1,0-14.6.3-21.7-.3-4-.3-8.2-5.3-8.3-9.2-.4-8.7,0-17.4-.1-26.1,0-6.8,3.4-11.4,10.6-12Z"/>
  <path class="st4" d="M291.9,64.8c1.6-.3,1.6,1.3,1.6,2.5.1,3.8,0,7.7,0,11.5v20.5s0,62.6,0,62.6h-11.3c-.7,0-.8,0-1.5,0,0-.1-.2-.2-.3-.3,0-3.9,0-15,0-18.4v-75.7c3.9-.7,7.7-1.6,11.5-2.7Z"/>
  <path class="st4" d="M256.9,67.8c4.9.6,8.2.9,13.1.8v93.3s-13.1,0-13.1,0v-94.1Z"/>
  <path class="st4" d="M304.2,77.4c1.4.9,11.4,12.2,13,14.1v70.4s-13,0-13,0v-84.5Z"/>
  <path class="st7" d="M203.7,270.2c3.6.4,10,4.1,13,6.4,1.8,4.7,1.5,9.1.5,13.9-4.7,2.4-7.1,3.8-11.6,6.7l-1.4,1c-4-2.3-8.1-4.8-12.1-7.2-.1-4.7-.2-9.3-.3-14,3.5-3.7,7.3-5.2,11.9-6.9Z"/>
  <path class="st7" d="M216.9,291.4c3.3.8,7.5,4.8,9.6,7.5.4,4.7-.2,9.3-1.5,13.9-4.5,4.3-6.8,5.7-12.5,7.8-2.2-.3-7.9-5.8-9.7-7.4.9-5.2,1.5-9.3,2.1-14.5,3.2-2.5,8.5-5.4,12.1-7.3Z"/>
  <path class="st7" d="M181.7,273.3c3.4.7,6.3,2.4,9.3,4.2l.3,13.5c-2.8,3.2-6.5,7.6-9.6,10.6-.3.3-.4.1-1,0-3.6-1.4-5.7-2.2-8.9-4.4-.9-3.4-1.5-7.3-1.1-10.8.5-4.4,7.7-10.6,11.1-13.1Z"/>
  <path class="st7" d="M171.5,298c3.4,2.3,6.3,3.3,10.1,4.8l6.3,12.6c-1.3,2.6-2.5,5.5-4,8-.3.5-.5.4-1.1.5-1.7-.1-5.4-.6-6.8-1.4-4.4-2.3-8.3-10-9.9-14.3,1-4.9,2.4-6.3,5.5-10.2Z"/>
  <path class="st7" d="M201.7,313.6c.6.1,2.1,1.5,2.6,2,2.4,2.2,4.4,3.8,7.2,5.5-.2,8.5-5.7,9-12.7,10.1-1.4.2-2.9.2-4.4.2-3.6-.2-8-4.2-10.2-6.9,1.4-3,2.9-6,4.4-9,4.3-.6,8.7-1.3,13-1.9Z"/>
  <path class="st7" d="M203.4,260.8c9.1.3,18,6,23.9,12.6-.4.7-.6,1.3-1.1,2-.8.4-.6.2-1.7,0-2.2-.7-4.9,0-7.1.8-4.9-3.7-7.6-4.8-13.3-6.8-.9-2.1-1.9-4.5-2.8-6.6l2-2Z"/>
  <path class="st7" d="M232.1,290.3c1.5.5,2,.8,3.3,1.6.8,10.1-1.1,18.1-7.2,26.3-.1.1-.3.3-.5.4-.8-.6-1.8-3.5-2.3-4.6,1.6-5.8,2.2-9.6,1.7-15.6,3-2.6,3.9-4.3,4.9-8.1Z"/>
  <path class="st7" d="M182.5,266.1h2.8c-2.2,2.2-2.8,3.5-3.9,6.5-2.5,1.9-4.8,4-6.9,6.3-.9,1-3.5,4.4-4.3,4.7l-3.4-1.1c2.3-5.2,9.4-16.2,15.7-16.4Z"/>
  <path class="st7" d="M227.8,274.2c2.7,1.8,7.4,13,7.3,16.3h-.3c-.9-.4-1.8-.7-2.7-1-1.4-5.3-2.7-8.5-5.4-13.3l1.1-2Z"/>
  <path class="st7" d="M196.5,260.8c1.4-.2,4.5-.1,6,0-.6.7-1,1-1.7,1.6-5.1.2-8.3.1-13.1,2.2-2.1,1.1-3.5.9-5.8.9,4.8-2.7,9.1-4.2,14.6-4.6Z"/>
  <path class="st7" d="M202.2,331.5c4.4-1.2,6-2.3,10.4-1.8-3.6,1.4-6,1.9-9.8,2.3-.5-.2-.3,0-.6-.5Z"/>
  <path class="st0" d="M199.2,332.1c1.1-.2,1.9-.4,3.1-.5.3.5,0,.3.6.5-1.3.2-2.3,0-3.6,0Z"/>
</svg>