<svg xmlns="http://www.w3.org/2000/svg" width="300" height="255.578" viewBox="0 0 304.00198 258.98601"><title>América Futebol Clube - São José do Rio Preto-SP</title><path stroke="#E02" stroke-width="4" d="m244.66,95.445,30.05,30.003,27.296-15.74c-1.377,81.321-68.197,147.22-149.95,147.22-81.747,0-148.58-65.897-149.95-147.22l27.296,15.74,30.05-30.003m-12.572,11.704c0-57.85,47.253-105.03,105.18-105.03,57.932,0,105.18,47.177,105.18,105.03m-12.83-11.762,30.026,30.026,27.278-15.751c-1.377,81.379-68.15,147.32-149.85,147.32-81.694,0-148.48-65.944-149.85-147.32l27.278,15.751,30.026-30.026m-12.558,11.716c-0.02-57.888,47.198-105.1,105.08-105.1,57.891,0,105.1,47.212,105.1,105.1"/><g fill="#FFF" transform="translate(-8.2960121,-8)"><path d="M310.3,117.71c-1.38,81.32-68.2,147.22-149.96,147.22-81.743,0-148.57-65.9-149.95-147.22l27.296,15.74,30.05-30.003h185.22l30.05,30.003,27.295-15.74z"/><path d="m160.34,10.123c57.932,0,105.18,47.177,105.18,105.03,0,57.848-47.247,105.03-105.18,105.03-57.92,0-105.18-47.18-105.18-105.03,0.001-57.85,47.255-105.03,105.18-105.03z"/><path d="m310,117.66c-1.377,81.379-68.15,147.32-149.85,147.32-81.694,0-148.48-65.944-149.85-147.32l27.278,15.751,30.026-30.026h185.09l30.026,30.026,27.28-15.751z"/><path fill="#E02" d="m300.9,132.25c-8.511,70.063-68.455,124.65-140.75,124.65-72.299,0-132.25-54.587-140.76-124.65l19.512,11.265,34.421-34.414h173.65l34.412,34.414,19.512-11.265z"/><path d="m160.15,10c57.891,0,105.1,47.212,105.1,105.1,0,57.889-47.212,105.11-105.1,105.11-57.89,0-105.11-47.22-105.11-105.11,0-57.888,47.218-105.1,105.11-105.1z"/><path fill="#E02" d="m160.15,18.084c53.435,0,97.02,43.585,97.02,97.018,0,53.438-43.585,97.018-97.02,97.018-53.438,0-97.017-43.58-97.017-97.018,0-53.433,43.579-97.018,97.017-97.018z"/><g fill="#FFF" stroke="#fefefe">
<path d="m147.83,111.22h22.796v12.447h-22.796v82.03c-4.248-0.58-8.402-1.447-12.448-2.596v-176c7.884-2.227,16.189-3.422,24.771-3.422,4.629,0,9.179,0.346,13.626,1.02v12.599c-4.43-0.778-8.979-1.182-13.626-1.182-4.192,0-8.306,0.328-12.322,0.961v74.138zm46.139-67.468v142.7c16.834-8.026,30.422-21.844,38.145-38.848l10.482,6.934c-11.771,24.474-34.131,42.96-61.075,49.457v-177.79c25.069,6.044,46.163,22.463,58.465,44.435l-10.397,6.877c-7.98-14.679-20.48-26.565-35.61-33.775zm-66.325,156.78c-4.318-1.646-8.47-3.621-12.448-5.876v-70.984h-33.558c1.509,13.888,6.647,26.71,14.432,37.506l-9.595,7.942c-11.142-15.15-17.742-33.83-17.742-54.01,0-38.912,24.53-72.271,58.916-85.427v170.85zm-12.448-89.31v-60.99c-19.536,13.595-32.696,35.766-33.927,60.99h33.932z"/><path d="m264.98,205.05-17.994-15.096-5.388,6.42-3.668-3.076,14.438-17.209,3.668,3.075-5.376,6.415,17.994,15.089-3.674,4.382zm-27.835,24.928-17.789-21.971,16.283-13.186,3.012,3.72-11.851,9.595,3.943,4.867,11.03-8.926,2.991,3.695-11.03,8.933,4.846,5.981,12.272-9.941,2.997,3.702-16.704,13.531zm-113.68,17.748,6.835-27.43,5.537,1.383-6.835,27.43-5.537-1.383zm-41.558-56.33,4.098,3.95-12.434,12.88c-1.623,1.682-3.029,2.834-4.195,3.455-1.541,0.797-3.182,1.055-4.916,0.762-1.737-0.293-3.46-1.271-5.171-2.916-2.01-1.939-3.012-3.988-3.012-6.162,0.006-2.168,1.049-4.347,3.146-6.526l4.295,3.293c-1.078,1.212-1.699,2.202-1.875,2.97-0.258,1.154,0.064,2.174,0.973,3.045,0.914,0.885,1.813,1.254,2.698,1.09,0.879-0.152,2.115-1.055,3.709-2.699l12.684-13.142zm-40.84-28.654,3.006,4.704c-1.512,1.141-2.426,2.365-2.742,3.678-0.311,1.301-0.076,2.729,0.709,4.275,0.838,1.641,1.816,2.7,2.936,3.169,1.11,0.48,2.136,0.486,3.062,0.012,0.598-0.305,1.014-0.737,1.248-1.3,0.246-0.563,0.299-1.359,0.158-2.385-0.088-0.703-0.422-2.25-0.973-4.633-0.715-3.068-0.855-5.406-0.428-7.006,0.598-2.255,1.893-3.89,3.885-4.902,1.283-0.656,2.666-0.902,4.157-0.744,1.482,0.158,2.865,0.773,4.148,1.845s2.414,2.572,3.404,4.505c1.608,3.17,2.13,5.898,1.562,8.207-0.58,2.301-1.995,4.082-4.274,5.342l-2.813-4.973c1.184-0.873,1.881-1.816,2.08-2.818,0.205-1.008-0.064-2.225-0.791-3.654-0.756-1.477-1.646-2.49-2.678-3.011-0.662-0.34-1.324-0.346-1.972-0.012-0.598,0.304-0.979,0.813-1.148,1.534-0.211,0.914,0.018,2.76,0.703,5.529,0.671,2.775,0.999,4.914,0.981,6.414-0.023,1.505-0.404,2.864-1.14,4.095-0.75,1.219-1.916,2.237-3.504,3.046-1.441,0.732-3,1.025-4.664,0.861-1.673-0.164-3.185-0.814-4.544-1.969-1.365-1.153-2.602-2.829-3.715-5.014-1.623-3.188-2.136-6.004-1.535-8.465,0.605-2.452,2.234-4.567,4.882-6.33zm10.485,27.073c1.781,0,3.234,1.453,3.234,3.232,0,1.781-1.453,3.234-3.234,3.234s-3.234-1.453-3.234-3.234c0-1.778,1.453-3.232,3.234-3.232zm24.203,26.71c1.787,0,3.234,1.453,3.234,3.233,0,1.781-1.447,3.234-3.234,3.234-1.781,0-3.231-1.453-3.231-3.234-0.001-1.779,1.449-3.233,3.231-3.233zm30.366,7.277,3.826,1.779c2.476,1.16,4.075,1.781,4.796,1.863,0.709,0.076,1.365-0.064,1.957-0.41,0.58-0.352,1.061-0.908,1.418-1.676,0.404-0.865,0.492-1.668,0.281-2.412s-0.703-1.383-1.482-1.916c-0.393-0.252-1.635-0.867-3.738-1.845l-4.028-1.881-3.03,6.498zm-12.074,12.37,11.944-25.622,10.896,5.079c2.736,1.277,4.614,2.438,5.64,3.475,1.025,1.042,1.641,2.325,1.84,3.849,0.199,1.529-0.059,3.039-0.768,4.557-0.896,1.92-2.203,3.244-3.911,3.977-1.711,0.721-3.779,0.721-6.176-0.006,0.814,1.184,1.406,2.326,1.77,3.45,0.363,1.119,0.697,2.959,1.002,5.53l0.803,6.455-6.185-2.883-1.143-7.321c-0.398-2.612-0.721-4.288-0.973-5.038-0.246-0.744-0.598-1.342-1.061-1.793-0.457-0.445-1.277-0.941-2.473-1.498l-1.043-0.486-4.983,10.695-5.179-2.42zm42.639,1.371c0.246-2.871,0.879-5.249,1.916-7.118,0.759-1.377,1.749-2.588,2.956-3.631,1.207-1.037,2.502-1.77,3.861-2.207,1.828-0.592,3.876-0.785,6.173-0.586,4.148,0.363,7.351,1.938,9.618,4.732,2.268,2.787,3.205,6.478,2.801,11.059-0.398,4.551-1.945,8-4.646,10.35-2.692,2.35-6.114,3.345-10.245,2.981-4.187-0.362-7.409-1.933-9.659-4.698-2.248-2.776-3.167-6.406-2.775-10.882zm5.868,0.322c-0.275,3.187,0.246,5.671,1.576,7.444,1.33,1.775,3.129,2.758,5.394,2.957,2.262,0.193,4.201-0.451,5.801-1.967,1.588-1.506,2.531-3.883,2.815-7.152,0.281-3.228-0.208-5.699-1.485-7.41-1.271-1.717-3.088-2.672-5.432-2.875-2.344-0.205-4.304,0.432-5.88,1.92-1.57,1.477-2.502,3.837-2.789,7.083zm66.993,6.197-11.95-25.62,10.89-5.079c2.742-1.277,4.84-1.969,6.29-2.092,1.453-0.117,2.836,0.234,4.125,1.061,1.301,0.832,2.297,2.004,3,3.521,0.896,1.922,1.078,3.778,0.527,5.56-0.539,1.77-1.869,3.357-3.967,4.727,1.43,0.129,2.684,0.416,3.779,0.855,1.09,0.445,2.704,1.383,4.878,2.787l5.461,3.539-6.188,2.888-6.337-3.837c-2.262-1.365-3.75-2.203-4.482-2.49-0.732-0.293-1.415-0.404-2.054-0.346-0.639,0.064-1.547,0.375-2.742,0.932l-1.043,0.486,4.983,10.697-5.17,2.411zm-1.722-17.204,3.826-1.781c2.484-1.152,3.987-1.979,4.509-2.477,0.516-0.498,0.832-1.09,0.943-1.764,0.105-0.674-0.012-1.394-0.375-2.167-0.398-0.861-0.955-1.447-1.664-1.764s-1.515-0.357-2.417-0.1c-0.445,0.129-1.717,0.697-3.82,1.676l-4.028,1.88,3.026,6.497zm-25.28,24.895-6.841-27.424,8.886-2.221c3.366-0.838,5.599-1.236,6.688-1.225,1.67,0.023,3.217,0.58,4.62,1.699,1.4,1.113,2.379,2.764,2.918,4.938,0.422,1.686,0.469,3.186,0.141,4.48-0.328,1.301-0.873,2.396-1.652,3.286s-1.623,1.57-2.546,2.016c-1.254,0.598-3.141,1.2-5.648,1.827l-3.606,0.902,2.575,10.344-5.535,1.378zm-0.147-24.162,1.939,7.778,3.026-0.756c2.186-0.544,3.615-1.054,4.277-1.522s1.131-1.061,1.395-1.781c0.264-0.715,0.299-1.477,0.094-2.285-0.246-0.994-0.75-1.744-1.5-2.254-0.738-0.498-1.588-0.715-2.525-0.656-0.691,0.041-2.039,0.311-4.028,0.809l-2.678,0.667zm82.064-44.172c-2.52-1.4-4.427-2.94-5.716-4.646-0.943-1.259-1.652-2.653-2.115-4.183-0.457-1.523-0.609-2.998-0.451-4.428,0.199-1.902,0.861-3.854,1.975-5.869,2.021-3.649,4.761-5.934,8.241-6.865,3.469-0.938,7.216-0.293,11.241,1.938,3.993,2.215,6.513,5.032,7.567,8.454,1.049,3.42,0.568,6.945-1.447,10.571-2.039,3.679-4.778,5.981-8.224,6.913-3.445,0.927-7.134,0.295-11.071-1.885zm2.683-5.231c2.801,1.547,5.282,2.074,7.444,1.588,2.162-0.492,3.791-1.74,4.898-3.731,1.099-1.986,1.286-4.012,0.56-6.092-0.729-2.066-2.522-3.895-5.388-5.482-2.836-1.569-5.288-2.12-7.374-1.657-2.086,0.469-3.697,1.739-4.834,3.79-1.148,2.061-1.356,4.111-0.645,6.154,0.716,2.038,2.491,3.848,5.339,5.43z"/></g></g>
</svg>