<?xml version="1.0" encoding="UTF-8" standalone="no"?>
<svg
   xmlns:dc="http://purl.org/dc/elements/1.1/"
   xmlns:cc="http://creativecommons.org/ns#"
   xmlns:rdf="http://www.w3.org/1999/02/22-rdf-syntax-ns#"
   xmlns:svg="http://www.w3.org/2000/svg"
   xmlns="http://www.w3.org/2000/svg"
   xmlns:sodipodi="http://sodipodi.sourceforge.net/DTD/sodipodi-0.dtd"
   xmlns:inkscape="http://www.inkscape.org/namespaces/inkscape"
   width="72.608879mm"
   height="96.572914mm"
   viewBox="0 0 274.42726 364.99999"
   version="1.1"
   id="svg32361"
   inkscape:version="1.0.1 (3bc2e813f5, 2020-09-07)"
   sodipodi:docname="SC Cambuur logo.svg">
  <defs
     id="defs32355" />
  <sodipodi:namedview
     id="base"
     pagecolor="#ffffff"
     bordercolor="#666666"
     borderopacity="1.0"
     inkscape:pageopacity="0.0"
     inkscape:pageshadow="2"
     inkscape:zoom="0.35"
     inkscape:cx="195.07078"
     inkscape:cy="153.92857"
     inkscape:document-units="px"
     inkscape:current-layer="layer1"
     inkscape:document-rotation="0"
     showgrid="false"
     inkscape:window-width="1366"
     inkscape:window-height="705"
     inkscape:window-x="-8"
     inkscape:window-y="-8"
     inkscape:window-maximized="1" />
  <metadata
     id="metadata32358">
    <rdf:RDF>
      <cc:Work
         rdf:about="">
        <dc:format>image/svg+xml</dc:format>
        <dc:type
           rdf:resource="http://purl.org/dc/dcmitype/StillImage" />
        <dc:title></dc:title>
      </cc:Work>
    </rdf:RDF>
  </metadata>
  <g
     inkscape:label="Layer 1"
     inkscape:groupmode="layer"
     id="layer1"
     transform="translate(-179.92922,-366.07143)">
    <path
       style="fill:#ffffff;fill-opacity:1;fill-rule:nonzero;stroke:none;stroke-width:7.30057"
       d="m 316.64379,728.87555 c -32.68144,0 -66.16142,-13.0897 -91.82745,-35.90398 -27.54826,-24.46832 -42.69125,-57.06422 -42.69125,-91.77045 0,-117.35095 0,-232.93381 0,-232.93381 h 270.00699 v 232.93381 c 0,34.87734 -14.25889,67.24511 -40.18161,91.20009 -25.46644,23.52723 -59.31713,36.47434 -95.30668,36.47434"
       id="path32077" />
    <path
       style="fill:#211e1e;fill-opacity:1;fill-rule:nonzero;stroke:none;stroke-width:7.30057"
       d="m 184.32096,370.46318 v 230.73794 c 0,34.07884 14.88629,66.07587 41.94973,90.11643 25.26684,22.47206 58.2335,35.36213 90.3731,35.36213 35.44769,0 68.75654,-12.74748 93.82372,-35.90397 25.46642,-23.52723 39.4687,-55.32464 39.4687,-89.57459 V 370.46318 Z m 132.32283,360.60825 c -33.22329,0 -67.21657,-13.28932 -93.28188,-36.44582 -28.00454,-24.89609 -43.43269,-58.06234 -43.43269,-93.42449 V 366.07143 h 274.42727 v 235.12969 c 0,35.47622 -14.54413,68.44285 -40.89458,92.79709 -25.89426,23.89798 -60.25825,37.07322 -96.81812,37.07322"
       id="path32079" />
    <path
       style="fill:#211e1e;fill-opacity:1;fill-rule:nonzero;stroke:none;stroke-width:7.30057"
       d="m 201.80238,404.54202 c -4.04954,0 -6.70169,-0.48483 -8.09902,-1.53997 -1.48296,-1.1122 -2.19587,-3.16548 -2.19587,-6.27393 l -0.0584,-1.71107 h 6.10284 l 0.0584,1.31183 c 0,2.05328 0.45628,2.3955 0.51323,2.45253 0.17084,0.0856 0.96958,0.42774 4.4202,0.42774 2.53812,0 3.25109,-0.34218 3.45069,-0.48483 0.11387,-0.0856 0.51323,-0.54185 0.51323,-2.3955 0,-1.28331 -0.28546,-1.65404 -0.37087,-1.71107 -0.0855,-0.11411 -0.57017,-0.39927 -2.30989,-0.51331 l -2.53812,-0.14258 c -4.04956,-0.25669 -6.5876,-0.82701 -7.81388,-1.76811 -1.2833,-1.02664 -1.91071,-3.02289 -1.91071,-6.0743 0,-3.10844 0.77,-5.21877 2.28144,-6.33096 1.42587,-1.05516 4.10656,-1.56848 8.18459,-1.56848 3.84996,0 6.41654,0.45628 7.81388,1.45441 1.5115,0.99812 2.28142,2.93733 2.28142,5.73209 v 1.73958 h -6.04545 l -0.0855,-0.71297 c -0.0292,-0.28516 -0.0584,-0.48483 -0.0584,-0.59887 -0.11387,-1.51145 -0.48476,-1.85366 -0.54171,-1.91069 -0.0855,-0.057 -0.65558,-0.37073 -3.05141,-0.37073 -2.65215,0 -3.56472,0.31371 -3.84988,0.48483 -0.51228,0.31372 -0.62632,1.16925 -0.62632,1.85368 0,1.79662 0.39935,2.02477 0.39935,2.02477 0.17082,0.0856 0.96958,0.39927 5.04761,0.62741 3.84995,0.1996 6.27396,0.76998 7.50024,1.71107 1.28329,0.99813 1.88216,2.90882 1.88216,5.81764 0,3.5077 -0.71327,5.78913 -2.1674,6.90133 -1.42587,1.05515 -4.27761,1.56848 -8.72644,1.56848"
       id="path32081" />
    <path
       style="fill:#211e1e;fill-opacity:1;fill-rule:nonzero;stroke:none;stroke-width:7.30057"
       d="m 346.75864,388.62905 h 4.81955 c 2.25288,0 2.85175,-0.34218 2.96585,-0.42774 0.0855,-0.0856 0.45628,-0.45628 0.45628,-2.16736 0,-1.08367 -0.31392,-2.0818 -2.48109,-2.0818 h -5.76059 z m 0,10.2094 5.81768,-0.057 c 1.85362,0 2.39546,-0.31371 2.53804,-0.45629 0.11387,-0.0856 0.45628,-0.54185 0.45628,-2.13884 0,-1.71107 -0.34238,-2.0818 -0.42781,-2.13883 -0.11387,-0.0856 -0.74144,-0.39927 -3.33657,-0.39927 h -5.0477 z m 7.12944,5.50394 h -13.37486 v -25.92273 h 12.74753 c 3.02287,0 5.07616,0.51331 6.24535,1.56848 1.22626,1.05517 1.79666,2.90883 1.79666,5.67505 0,2.79476 -0.99813,4.36323 -2.22441,5.21877 1.53999,0.85554 2.82328,2.56661 2.82328,5.93172 0,2.73771 -0.62712,4.64841 -1.85369,5.81764 -1.25475,1.14071 -3.25102,1.71107 -6.15986,1.71107"
       id="path32083" />
    <path
       style="fill:#211e1e;fill-opacity:1;fill-rule:nonzero;stroke:none;stroke-width:7.30057"
       d="m 404.64989,404.54202 c -4.44881,0 -7.3291,-0.5704 -8.812,-1.71107 -1.53998,-1.19776 -2.30997,-3.56474 -2.30997,-7.1865 v -17.22479 h 6.24541 v 17.22479 c 0,2.0818 0.45628,2.62364 0.65559,2.76623 0.20004,0.17112 1.05516,0.54185 4.02101,0.54185 3.02295,0 3.84996,-0.37073 4.04956,-0.54185 0.17083,-0.11411 0.62711,-0.65589 0.62711,-2.93734 v -17.05368 h 6.24543 v 16.96812 c 0,3.67881 -0.74146,6.07431 -2.22442,7.32909 -1.48289,1.22627 -4.24914,1.82515 -8.4983,1.82515"
       id="path32085" />
    <path
       style="fill:#211e1e;fill-opacity:1;fill-rule:nonzero;stroke:none;stroke-width:7.30057"
       d="m 227.38293,404.54202 c -5.10471,0 -8.21315,-0.88406 -9.49644,-2.68068 -1.22627,-1.73959 -1.79667,-5.9032 -1.79667,-13.03266 0,-4.3062 0.82701,-7.10095 2.53812,-8.52684 1.65401,-1.39737 4.87656,-2.0818 9.89571,-2.0818 3.70729,0 6.1313,0.57039 7.47169,1.7681 1.36885,1.19775 2.02473,3.42214 2.02473,6.78725 l 0.0292,1.36886 h -6.27397 v -1.45441 c 0,-1.76811 -0.39933,-2.25291 -0.57017,-2.3955 -0.20004,-0.14258 -0.96967,-0.48483 -3.62182,-0.48483 -3.62173,0 -4.36318,0.57039 -4.50584,0.74146 -0.17082,0.1996 -0.68406,1.16924 -0.68406,5.70357 0,6.07431 0.45629,7.5002 0.65633,7.81389 0.14236,0.22815 0.79845,0.88406 4.30616,0.88406 2.76627,0 3.67883,-0.34218 3.99253,-0.54185 0.42782,-0.31371 0.6556,-1.19775 0.6556,-2.48105 l -0.0584,-1.88218 h 6.30244 v 1.65403 c 0,3.65029 -0.71326,6.01727 -2.16738,7.1865 -1.39734,1.1122 -4.22062,1.65404 -8.69791,1.65404"
       id="path32087" />
    <path
       style="fill:#211e1e;fill-opacity:1;fill-rule:nonzero;stroke:none;stroke-width:7.30057"
       d="m 264.4561,404.54202 c -5.10471,0 -8.21315,-0.88406 -9.49644,-2.68068 -1.22627,-1.73959 -1.79659,-5.9032 -1.79659,-13.03266 0,-4.3062 0.827,-7.07243 2.53804,-8.52684 1.6541,-1.39737 4.87656,-2.0818 9.89571,-2.0818 3.70737,0 6.13137,0.57039 7.47169,1.7681 1.36886,1.19775 2.02474,3.42214 2.02474,6.78725 l 0.0292,1.36886 h -6.27388 v -1.45441 c 0,-1.76811 -0.39935,-2.25291 -0.57018,-2.3955 -0.1993,-0.14258 -0.9696,-0.48483 -3.62174,-0.48483 -3.62182,0 -4.36326,0.57039 -4.50584,0.74146 -0.17083,0.1996 -0.68407,1.16924 -0.68407,5.70357 0,6.07431 0.45629,7.5002 0.6556,7.81389 0.14236,0.22815 0.79853,0.88406 4.30624,0.88406 2.76619,0 3.67876,-0.34218 3.99247,-0.54185 0.42781,-0.31371 0.65632,-1.19775 0.65632,-2.48105 l -0.0584,-1.88218 h 6.30244 v 1.65403 c 0,3.65029 -0.71327,6.01727 -2.16732,7.1865 -1.3974,1.1122 -4.22068,1.65404 -8.69798,1.65404"
       id="path32089" />
    <path
       style="fill:#211e1e;fill-opacity:1;fill-rule:nonzero;stroke:none;stroke-width:7.30057"
       d="m 286.55748,394.64632 h 6.04575 l -3.05143,-9.18275 z m 15.71331,9.69607 h -6.50204 l -1.56852,-4.67693 h -9.26829 l -1.51144,4.67693 h -6.61615 l 8.61241,-25.92273 h 8.09904 l 8.75499,25.92273"
       id="path32091" />
    <path
       style="fill:#211e1e;fill-opacity:1;fill-rule:nonzero;stroke:none;stroke-width:7.30057"
       d="m 335.1519,404.34239 h -6.24542 v -14.0593 c 0,-0.54185 0,-1.1122 0.0292,-1.71107 -0.22777,0.62741 -0.39934,1.14071 -0.5417,1.53996 l -5.56099,14.23041 h -5.30437 l -5.59027,-14.11634 c -0.17084,-0.39927 -0.37087,-0.91257 -0.57017,-1.56848 0,0.59886 0,1.14071 0,1.62552 v 14.0593 h -6.21688 v -25.92273 h 8.8691 l 4.53431,11.77788 c 0.31392,0.79849 0.71327,1.91069 1.19773,3.39362 l 0.37087,1.16923 0.37087,-1.14071 c 0.42781,-1.4259 0.82708,-2.56661 1.14072,-3.39363 l 4.47736,-11.80639 h 9.04016 v 25.92273"
       id="path32093" />
    <path
       style="fill:#211e1e;fill-opacity:1;fill-rule:nonzero;stroke:none;stroke-width:7.30057"
       d="m 377.47236,404.54202 c -4.47729,0 -7.35758,-0.5704 -8.84056,-1.71107 -1.5399,-1.19776 -2.28142,-3.56474 -2.28142,-7.1865 v -17.22479 h 6.24541 v 17.22479 c 0,2.0818 0.42781,2.62364 0.62712,2.76623 0.22779,0.17112 1.05516,0.54185 4.02101,0.54185 3.05141,0 3.84996,-0.37073 4.07809,-0.54185 0.14236,-0.11411 0.62712,-0.65589 0.62712,-2.93734 v -17.05368 h 6.24543 v 16.96812 c 0,3.67881 -0.74145,6.07431 -2.25288,7.32909 -1.45443,1.22627 -4.24916,1.82515 -8.46984,1.82515"
       id="path32095" />
    <path
       style="fill:#211e1e;fill-opacity:1;fill-rule:nonzero;stroke:none;stroke-width:7.30057"
       d="m 426.95088,390.65382 h 5.78905 c 1.76814,0 2.33852,-0.37072 2.53812,-0.57039 0.19931,-0.22814 0.57018,-0.91257 0.57018,-2.85179 0,-2.11032 -0.37087,-2.68068 -0.45628,-2.79475 -0.11387,-0.11411 -0.57019,-0.48483 -2.30998,-0.48483 h -6.13132 z m 14.94332,13.68857 h -6.24543 v -5.24728 c 0,-2.05329 -0.85554,-2.93734 -2.88029,-2.93734 h -5.8176 v 8.18462 h -6.24543 v -25.92273 h 12.80448 c 3.194,0 5.38986,0.59887 6.7017,1.76811 1.31184,1.19775 1.93925,3.25104 1.93925,6.21689 0,2.62365 -0.31392,4.42026 -0.96965,5.47543 -0.37088,0.57039 -0.88403,1.05516 -1.597,1.42589 1.28336,0.74147 2.30997,2.16736 2.30997,4.84804 v 6.18837"
       id="path32097" />
    <path
       style="fill:#ffd400;fill-opacity:1;fill-rule:nonzero;stroke:none;stroke-width:7.30057"
       d="M 442.63564,600.40263 V 412.15628 H 191.7641 v 188.24635 c 0,65.04922 56.29427,118.03538 125.53557,118.03538 69.26993,0 125.33597,-52.98616 125.33597,-118.03538"
       id="path32099" />
    <path
       style="fill:none;stroke:#211e1e;stroke-width:0.605948;stroke-linecap:butt;stroke-linejoin:miter;stroke-miterlimit:4;stroke-opacity:1"
       d="M 442.63564,600.40262 V 412.15628 H 191.7641 v 188.24634 c 0,65.04923 56.29427,118.03539 125.53557,118.03539 69.26993,0 125.33597,-52.98616 125.33597,-118.03539 z m 0,0"
       id="path32101" />
    <path
       style="fill:#211e1e;fill-opacity:1;fill-rule:nonzero;stroke:none;stroke-width:7.30057"
       d="M 442.63564,412.15628 H 191.7641 v 188.24635 c 0,65.04922 56.29427,118.03538 125.53557,118.03538 69.26993,0 125.33597,-52.98616 125.33597,-118.03538 z m -1.48289,1.48293 v 186.76342 c 0,64.25072 -55.55282,116.55246 -123.85308,116.55246 -68.38576,0 -124.05261,-52.30174 -124.05261,-116.55246 V 413.63921 h 247.90569"
       id="path32103" />
    <path
       style="fill:#d12128;fill-opacity:1;fill-rule:nonzero;stroke:none;stroke-width:7.30057"
       d="m 365.66595,605.82102 c -0.22777,0.42774 -0.74145,1.05516 -1.14072,1.39737 -0.39933,0.34217 -1.65401,0.68443 -2.79473,0.74147 l -15.37112,0.88405 c -1.14072,0.0569 -1.39734,-0.54184 -0.59866,-1.36885 l 3.33659,-3.36511 c 0.79853,-0.79851 2.39553,-1.39737 3.53624,-1.34035 l 4.42028,0.22815 c 1.14072,0.0856 2.96585,0.37072 4.07803,0.68443 l 2.9373,0.82702 c 1.11224,0.28516 1.82515,0.88404 1.597,1.31182 z m 33.39441,-39.01243 c 0.22777,-1.14071 -0.48476,-1.73959 -1.56845,-1.36885 l -8.15612,2.90882 c -1.08371,0.39927 -2.48103,-0.0569 -3.13699,-1.02664 l -2.88029,-4.16361 c -0.65559,-0.94109 -2.11031,-1.62552 -3.25102,-1.51144 l -33.87917,3.42213 c -1.14072,0.11414 -3.02294,0.1996 -4.16366,0.17114 l -24.12606,-0.4563 c -1.1407,-0.0284 -2.88036,-0.54184 -3.84994,-1.16922 l -8.38427,-5.36136 c -0.96959,-0.62742 -1.73959,-2.05328 -1.71104,-3.194 l 0.3424,-13.0897 c 0.0292,-1.1407 0.74152,-2.70918 1.56852,-3.47917 l 0.85556,-0.76999 c 0.85548,-0.76998 2.45248,-1.51144 3.5932,-1.597 l 8.812,-0.88405 c 1.14072,-0.11413 2.50957,0.59887 3.07996,1.597 l 0.28545,0.54185 c 0.57018,0.99812 1.93926,1.71107 3.07998,1.56848 l 6.21686,-0.76998 c 1.14072,-0.14258 2.9944,-0.14258 4.10658,0.0569 l 6.15985,0.94109 c 1.14072,0.17112 2.85175,-0.17113 3.82141,-0.76998 l 3.10844,-1.93922 c 0.96959,-0.59886 2.6236,-0.76998 3.70731,-0.39926 l 6.13131,2.19586 c 1.05522,0.37072 2.19593,-0.1996 2.50957,-1.31182 l 1.31184,-4.76247 c 0.31392,-1.1122 1.19773,-2.68069 1.99627,-3.50771 l 2.90884,-2.93733 c 0.79845,-0.79851 0.54169,-1.31183 -0.59866,-1.14072 l -10.12384,1.62552 c -1.14072,0.1996 -2.11038,-0.48484 -2.1674,-1.51145 -0.0292,-0.99812 -0.96958,-1.53996 -2.05328,-1.19775 l -12.54785,4.13509 c -1.08371,0.34218 -2.90884,0.68443 -4.04956,0.74147 l -23.35605,1.02664 c -1.14072,0.0569 -1.48298,-0.62741 -0.74152,-1.51145 l 1.48296,-1.71107 c 0.74145,-0.88405 2.25288,-1.48293 3.3936,-1.34033 l 9.03942,1.11228 c 1.11224,0.14257 2.6807,-0.45628 3.42214,-1.31182 l 0.74152,-0.85554 c 0.74145,-0.85554 2.28142,-1.71107 3.42214,-1.88218 l 9.63902,-1.45441 c 1.14072,-0.17112 2.96585,-0.54184 4.07802,-0.82701 l 6.73026,-1.76811 c 1.11216,-0.28516 2.96585,-0.54185 4.10656,-0.59887 l 11.32158,-0.37072 c 1.14071,-0.0569 1.34031,-0.62741 0.42782,-1.34034 l -6.04575,-4.53435 c -0.91257,-0.71297 -1.16927,-2.05328 -0.57017,-3.05141 l 1.42586,-2.33845 c 0.59866,-0.99814 0.14236,-1.71107 -0.99805,-1.597 l -3.73585,0.34217 c -1.14071,0.11413 -2.96586,0.45629 -4.04955,0.76999 l -25.01016,7.50018 c -1.08369,0.31371 -1.91069,-0.34217 -1.82513,-1.48292 v -0.0569 c 0.0855,-1.14072 -0.62712,-1.53997 -1.56854,-0.94109 l -6.04574,3.90694 c -0.96959,0.65588 -2.6807,1.19775 -3.82142,1.25479 l -5.70357,0.34217 c -1.11216,0.0569 -2.28143,-0.51329 -2.56659,-1.28329 -0.28545,-0.74147 -1.31184,-0.85555 -2.28142,-0.2567 l -9.09716,5.87468 c -0.96967,0.62742 -2.65223,0.88406 -3.7644,0.59887 l -4.53431,-1.19775 c -1.11224,-0.28516 -2.68069,0.14259 -3.50771,0.9411 l -11.32157,10.89381 c -0.82701,0.79851 -2.30997,1.93921 -3.25109,2.56661 l -11.3786,7.24354 c -0.96959,0.6274 -1.597,2.02476 -1.3974,3.10844 0.22777,1.08368 1.08369,2.02477 1.9678,2.13884 0.91256,0.11413 1.96772,1.05516 2.39545,2.11032 l 0.25699,0.59886 c 0.42781,1.08368 1.71103,1.82515 2.82328,1.71108 l 12.71891,-1.48293 c 1.1407,-0.14259 1.85367,0.65588 1.59699,1.76811 l -1.82514,7.92796 c -0.22777,1.1122 -0.17084,2.90882 0.14236,4.02101 l 1.79666,6.04579 c 0.3424,1.1122 -0.28545,2.28142 -1.36885,2.62364 l -6.58766,2.05329 c -1.11218,0.31371 -2.93732,0.54185 -4.07803,0.45628 l -9.06869,-0.74145 c -1.14072,-0.0856 -2.99434,-0.2567 -4.13504,-0.37072 l -2.48111,-0.28516 c -1.14071,-0.11414 -2.65215,0.51329 -3.33657,1.42589 l -4.59134,5.93171 c -0.68406,0.91257 -1.597,2.53809 -2.02481,3.59325 l -5.96019,14.68669 c -0.42781,1.05516 0.14236,1.73959 1.2833,1.48294 l 4.84801,-0.99814 c 1.11217,-0.25669 2.367,-1.31181 2.82328,-2.36698 l 1.48289,-3.6788 c 0.42782,-1.05516 1.31184,-2.68067 1.96772,-3.62178 l 3.82142,-5.44689 c 0.65632,-0.91257 2.13885,-1.68256 3.25101,-1.68256 l 8.32725,0.0569 c 1.16926,0 3.02288,0.1996 4.13512,0.45628 l 10.77972,2.30996 c 1.11217,0.22814 2.42401,1.2833 2.90884,2.30994 l 0.17084,0.37073 c 0.48476,1.05516 1.14071,2.79475 1.48296,3.87843 l 0.19931,0.68442 c 0.3424,1.1122 -0.31392,2.02478 -1.45442,2.0818 l -5.61801,0.22815 c -1.1407,0.0569 -2.99433,-0.0856 -4.10657,-0.31371 l -8.95459,-1.82514 c -1.11216,-0.22815 -2.7377,0.22814 -3.59326,0.9696 l -9.15419,8.18462 c -0.85555,0.74147 -2.16739,2.0818 -2.90884,2.93735 l -5.24728,6.15985 c -0.74144,0.85554 -1.76812,2.42402 -2.28143,3.45066 l -2.79473,5.64653 c -0.48476,1.02665 0.0292,1.96775 1.16919,2.08181 l 4.93357,0.48483 c 1.14072,0.11413 2.50957,-0.62741 3.05143,-1.62551 l 2.45254,-4.56286 c 0.54171,-1.02664 1.73959,-2.42402 2.62362,-3.13696 l 1.5115,-1.19775 c 0.91258,-0.68443 2.28143,-1.93921 3.0799,-2.76624 l 5.50397,-5.67505 c 0.76999,-0.82702 2.36699,-1.28331 3.47916,-1.05516 l 19.42068,4.19213 c 1.11217,0.25668 2.96586,0.45628 4.10657,0.45628 h 11.23601 c 1.14072,0 2.99434,-0.11413 4.13506,-0.1996 l 30.11485,-2.99437 c 1.14071,-0.11414 1.3974,0.45629 0.62711,1.2833 l -3.79286,3.96399 c -0.79846,0.85553 -1.36886,2.45253 -1.22628,3.59325 l 0.25698,2.42402 c 0.11386,1.1407 0.1993,2.62364 0.17084,3.27954 -0.0292,0.6559 0.88402,1.31183 2.02473,1.45442 l 4.42028,0.54184 c 1.14072,0.14258 2.45256,-0.5133 2.93731,-1.48292 0.48476,-0.9411 1.79668,-1.68256 2.93738,-1.62552 l 21.38834,0.85553 c 1.14072,0.0285 3.02294,0.0569 4.16366,0.0285 l 22.10131,-0.34217 c 1.14072,-0.0285 2.28142,-0.94109 2.53812,-2.08181 l 0.71253,-3.07992 c 0.22777,-1.14072 -0.19931,-2.73772 -0.96959,-3.56474 l -6.10284,-6.5591 c -0.76998,-0.82702 -0.96958,-2.33847 -0.42781,-3.33659 l 8.38427,-15.59927 c 0.5417,-0.99812 1.16918,-2.7377 1.36885,-3.8499 l 2.45248,-12.74748"
       id="path32105" />
    <path
       style="fill:#211e1e;fill-opacity:1;fill-rule:nonzero;stroke:none;stroke-width:7.30057"
       d="m 311.62464,491.35037 v -63.16706 c 0,0 -2.96585,-0.5133 -6.15985,1.31182 -3.16545,1.76811 -4.50584,6.33097 -4.50584,6.33097 l -4.47729,-6.33097 -4.50584,6.5306 -4.50576,-6.10283 -4.50584,6.33097 -4.50584,-6.33097 -4.50584,6.33097 -4.50577,-6.33097 -4.53439,6.41652 -4.44875,-6.41652 -4.50584,6.33097 -4.50584,-6.33097 -4.50576,6.33097 -4.50584,-6.33097 -4.47729,6.33097 -4.50584,-6.33097 -4.50584,6.33097 -4.50584,-6.33097 -4.50576,6.33097 c 0,0 -1.31184,-4.73397 -4.50584,-6.33097 -3.194,-1.62551 -6.10284,-1.65403 -6.10284,-1.65403 v 62.99594 c 0,0 2.90884,-0.0284 6.10284,-1.65404 3.194,-1.597 4.50584,-6.33096 4.50584,-6.33096 l 4.50576,6.33096 4.50584,-6.33096 4.50584,6.33096 4.50584,-6.33096 4.47729,6.33096 4.50584,-6.33096 4.50576,6.33096 4.50584,-6.33096 4.50584,6.33096 4.44875,-6.41652 4.53439,6.41652 4.50577,-6.33096 4.50584,6.33096 4.50584,-6.33096 4.50584,6.33096 4.50576,-6.13134 4.50584,6.55911 4.47729,-6.33096 c 0,0 1.34039,4.56285 4.50584,6.33096 3.194,1.79663 6.15985,1.31183 6.15985,1.31183"
       id="path32107" />
    <path
       style="fill:#211e1e;fill-opacity:1;fill-rule:nonzero;stroke:none;stroke-width:7.30057"
       d="m 368.14704,694.05525 v -63.16703 c 0,0 -2.96585,-0.51331 -6.15985,1.31181 -3.16552,1.76811 -4.50584,6.33097 -4.50584,6.33097 l -4.47729,-6.33097 -4.50584,6.5306 -4.50584,-6.13135 -4.50576,6.35948 -4.50584,-6.35948 -4.50584,6.35948 -4.50584,-6.35948 -4.53431,6.44503 -4.44875,-6.44503 -4.50584,6.35948 -4.50584,-6.35948 -4.50584,6.35948 -4.50577,-6.35948 -4.47736,6.35948 -4.50577,-6.35948 -4.50584,6.35948 -4.50584,-6.35948 -4.50583,6.35948 c 0,0 -1.31177,-4.73396 -4.50577,-6.35948 -3.194,-1.597 -6.10284,-1.62552 -6.10284,-1.62552 v 62.96743 c 0,0 2.90884,0 6.10284,-1.62552 3.194,-1.597 4.50577,-6.33096 4.50577,-6.33096 l 4.50583,6.33096 4.50584,-6.33096 4.50584,6.33096 4.50577,-6.33096 4.47736,6.33096 4.50577,-6.33096 4.50584,6.33096 4.50584,-6.33096 4.50584,6.33096 4.44875,-6.41652 4.53431,6.41652 4.50584,-6.33096 4.50584,6.33096 4.50584,-6.33096 4.50576,6.33096 4.50584,-6.13134 4.50584,6.5591 4.47729,-6.35948 c 0,0 1.34032,4.59138 4.50584,6.35948 3.194,1.79662 6.15985,1.31182 6.15985,1.31182"
       id="path32109" />
    <path
       style="fill:#211e1e;fill-opacity:1;fill-rule:nonzero;stroke:none;stroke-width:7.30057"
       d="m 425.35388,491.35037 v -63.16706 c 0,0 -2.93739,-0.5133 -6.13139,1.31182 -3.194,1.76811 -4.50584,6.33097 -4.50584,6.33097 l -4.50576,-6.33097 -4.50584,6.5306 -4.50584,-6.10283 -4.47729,6.33097 -4.50584,-6.33097 -4.50577,6.33097 -4.50584,-6.33097 -4.56285,6.41652 -4.44883,-6.41652 -4.47729,6.33097 -4.50584,-6.33097 -4.50576,6.33097 -4.53439,-6.33097 -4.47729,6.33097 -4.50584,-6.33097 -4.50576,6.33097 -4.50584,-6.33097 -4.50584,6.33097 c 0,0 -1.31184,-4.73397 -4.4773,-6.33097 -3.194,-1.62551 -6.1313,-1.65403 -6.1313,-1.65403 v 62.99594 c 0,0 2.9373,-0.0284 6.1313,-1.65404 3.16546,-1.597 4.4773,-6.33096 4.4773,-6.33096 l 4.50584,6.33096 4.50584,-6.33096 4.50576,6.33096 4.50584,-6.33096 4.47729,6.33096 4.53439,-6.33096 4.50576,6.33096 4.50584,-6.33096 4.47729,6.33096 4.44883,-6.41652 4.56285,6.41652 4.50584,-6.33096 4.50577,6.33096 4.50584,-6.33096 4.47729,6.33096 4.50584,-6.13134 4.50584,6.55911 4.50576,-6.33096 c 0,0 1.31184,4.56285 4.50584,6.33096 3.194,1.79663 6.13139,1.31183 6.13139,1.31183"
       id="path32111" />
  </g>
</svg>
