<?xml version="1.0" encoding="UTF-8" standalone="no"?>
<!-- Generator: Adobe Illustrator 15.0.2, SVG Export Plug-In . SVG Version: 6.00 Build 0)  -->

<svg
   xmlns:dc="http://purl.org/dc/elements/1.1/"
   xmlns:cc="http://creativecommons.org/ns#"
   xmlns:rdf="http://www.w3.org/1999/02/22-rdf-syntax-ns#"
   xmlns:svg="http://www.w3.org/2000/svg"
   xmlns="http://www.w3.org/2000/svg"
   xmlns:sodipodi="http://sodipodi.sourceforge.net/DTD/sodipodi-0.dtd"
   xmlns:inkscape="http://www.inkscape.org/namespaces/inkscape"
   version="1.2"
   id="Layer_1"
   x="0px"
   y="0px"
   width="196"
   height="253"
   viewBox="0 0 196 634.3226"
   xml:space="preserve"
   inkscape:version="0.48.4 r9939"
   sodipodi:docname="Union_Balompedica_Conquense.svg"><metadata
   id="metadata49"><rdf:RDF><cc:Work
       rdf:about=""><dc:format>image/svg+xml</dc:format><dc:type
         rdf:resource="http://purl.org/dc/dcmitype/StillImage" /></cc:Work></rdf:RDF></metadata><defs
   id="defs47" /><sodipodi:namedview
   pagecolor="#ffffff"
   bordercolor="#666666"
   borderopacity="1"
   objecttolerance="10"
   gridtolerance="10"
   guidetolerance="10"
   inkscape:pageopacity="0"
   inkscape:pageshadow="2"
   inkscape:window-width="1920"
   inkscape:window-height="1018"
   id="namedview45"
   showgrid="false"
   fit-margin-top="0"
   fit-margin-left="0"
   fit-margin-right="0"
   fit-margin-bottom="0"
   inkscape:zoom="3.1785714"
   inkscape:cx="97"
   inkscape:cy="126"
   inkscape:window-x="-8"
   inkscape:window-y="-8"
   inkscape:window-maximized="1"
   inkscape:current-layer="Layer_1" />
<path
   d="m 224.99065,182.77567 v -9.542 -0.855 l 13.842,-19.646 64.786,-91.953975 c -40.599,21.401 -63.601,19.2 -83.602,19.2 6.403,6.403 20.001,22.399985 20.001,27.599975 0,5.199 -3.6,6.4 -6.801,6.4 -16.801,0 -41.199,-20.400975 -41.199,-30.399975 0,-0.299 -0.082,-0.573 -0.236,-0.828 -0.152,-0.254 -0.377,-0.486 -0.663,-0.7 1.495,-1.947 2.695,-4.308 3.431,-6.965 2.405,-8.666 -0.993,-17.17 -7.584,-18.999 -6.586,-1.825 -13.875,3.717 -16.279,12.384 -1.128,4.071 -0.961,8.097 0.199,11.421 h -0.003 c 0,0 -18.464,10.086 -30.065,10.086 -11.198,0 -16.396,-3.2 -16.396,-12 0,-11.6 19.598,-19.2 29.198,-19.2 -22.401,0 -55.598996,-55.1999992 -55.598996,-55.1999992 0,0 -33.198,55.1999992 -55.6,55.1999992 9.6,0 29.2,7.6 29.2,19.2 0,8.8 -5.2,12 -16.399,12 -11.6,0 -30.062,-10.086 -30.062,-10.086 h -0.003 c 1.161,-3.325 1.327,-7.35 0.198,-11.421 -2.402,-8.667 -9.691,-14.209 -16.2789992,-12.384 -6.5900001,1.828 -9.98800003,10.333 -7.5860001,18.999 0.737,2.658 1.9360001,5.018 3.4320001,6.965 -0.049,0.037 -0.068,0.082 -0.114,0.12 -0.219,0.183 -0.423,0.371 -0.55,0.58 -0.153,0.254 -0.235,0.53 -0.235,0.828 0,10 -24.3980008,30.399975 -41.2000008,30.399975 -3.198,0 -6.8,-1.201 -6.8,-6.4 0,-5.19999 13.597,-21.196975 20,-27.599975 -20,0 -43.001,2.201 -83.601004,-19.2 l 64.787004,91.953975 h 10e-4 l 13.842,19.646 v 0.854 9.543 c -68.911,42.603 -114.832004,118.835 -114.832004,205.803 0,133.542 108.258004,241.8 241.800004,241.8 133.541996,0 241.799996,-108.258 241.799996,-241.8 0,-86.968 -45.921,-163.198 -114.829,-205.803 z m -255.272996,-19.375 c -2.369,-3.364 -5.395,-7.658 -8.863,-12.58 40.2660007,-21.135 87.142,-33.296 137.165,-33.296 50.022996,0 96.896996,12.163 137.162996,33.296 -3.466,4.922 -6.492,9.216 -8.861,12.58 -37.868,-22.604 -81.654,-35.576 -128.301996,-35.576 -46.648,0 -90.4339992,12.972 -128.302,35.576 z m 5.278,7.489 c 36.37,-21.501 78.336,-33.825 123.024,-33.825 44.687996,0 86.654996,12.324 123.022996,33.825 -0.08,0.115 -0.136,0.194 -0.136,0.194 0,0 0,4.983 0,9.227 -36.015,-21.295 -78.019,-33.532 -122.887996,-33.532 -44.869,0 -86.875,12.237 -122.888,33.532 0,-4.244 0,-9.227 0,-9.227 0,0 -0.055,-0.08 -0.135,-0.194 z m 123.024,441.8 c -123.575,0 -224.112004,-100.535 -224.112004,-224.111 0,-88.083 51.087004,-164.447 125.18000477,-201.054 l 0,0 c 2.87599993,-1.421 5.78700003,-2.782 8.73200003,-4.082 l 0,0 c 27.6139992,-12.19 58.1269992,-18.976 90.1999992,-18.976 32.073996,0 62.589996,6.787 90.203996,18.977 2.943,1.3 5.853,2.66 8.728,4.081 l 0,0 c 74.094,36.607 125.18,112.971 125.18,201.054 -10e-4,123.576 -100.536,224.111 -224.111996,224.111 z"
   id="path3"
   inkscape:connector-curvature="0" />
<path
   d="m -126.09235,388.57867 c 0,123.576 100.537004,224.111 224.112004,224.111 123.575996,0 224.110996,-100.535 224.110996,-224.111 0,-123.576 -100.535,-224.112 -224.110996,-224.112 -123.575,0 -224.112004,100.536 -224.112004,224.112 z"
   id="path5"
   inkscape:connector-curvature="0"
   style="fill:#ffffff" />
<path
   d="m 268.44565,469.60367 c -30.375,63.631 -95.344,107.709 -170.425996,107.709 -104.0689992,0 -188.735,-84.665 -188.735,-188.734 0,-104.07 84.6660008,-188.735 188.735,-188.735 67.989996,0 127.682996,36.147 160.911996,90.224 l 12.793,-12.794 c -36.748,-57.151 -100.856,-95.118 -173.704996,-95.118 -113.822,0 -206.423004,92.602 -206.423004,206.424 0,113.821 92.602004,206.423 206.423004,206.423 79.899996,0 149.291996,-45.663 183.587996,-112.235 l -13.162,-13.164 z"
   id="path7"
   inkscape:connector-curvature="0" />
<path
   d="m 229.34165,84.115695 c 6.239,7.132 14.759,17.887985 14.759,23.461975 0,6.466 -4.172,10.482 -10.884,10.482 -18.378,0 -43.219,-20.328971 -45.087,-32.991975 -0.569,0.448 -1.151,0.865 -1.763,1.211 -2.66,1.507 -5.461,1.918 -8.098,1.187 -2.238,-0.621 -4.08,-2.05 -5.482,-3.962 -2.098,1.135 -19.889,10.557 -31.971,10.557 -5.064,0 -20.479,0 -20.479,-16.082 0,-9.429 9.188,-16.406 18.829,-20.158 -16.776,-10.596 -33.785,-35.115 -41.145996,-46.554 -7.362,11.439 -24.372,35.958 -41.147,46.554 9.641,3.752 18.829,10.729 18.829,20.158 0,16.082 -15.415,16.082 -20.481,16.082 -12.372,0 -30.817,-9.931 -31.961,-10.554 -1.439,1.97 -3.297,3.352 -5.493,3.961 -2.633,0.729 -5.432,0.32 -8.0909992,-1.186 -0.612,-0.347 -1.196,-0.764 -1.767,-1.213 -1.869,12.664004 -26.7100008,32.991975 -45.0880008,32.991975 -6.712,0 -10.882,-4.016 -10.882,-10.482 0,-5.57599 8.518,-16.329975 14.756,-23.461975 -15.569,0.055 -34.562,-0.895 -61.917,-12.885 8.994,12.765 30.029,42.620975 43.021,61.060975 0.869,-5.822 6.07,-10.313 12.422,-10.313 6.959,0 12.6,5.373 12.6,12 0,3.126 -1.286,5.948 -3.343,8.084 39.4830008,-18.703 83.558,-28.619 128.543,-28.619 44.980996,0 89.057996,9.916 128.542996,28.621 -2.058,-2.136 -3.345,-4.958 -3.345,-8.086 0,-6.627 5.644,-12 12.601,-12 6.354,0 11.555,4.493 12.422,10.313 12.991,-18.439 34.026,-48.294975 43.02,-61.060975 -27.356,11.989 -46.349,12.939 -61.92,12.884 z M 21.620654,117.97867 c -6.627,0 -11.9999992,-5.104 -11.9999992,-11.4 0,-6.29598 5.3729992,-11.399975 11.9999992,-11.399975 6.627,0 12,5.103995 12,11.399975 0,6.296 -5.373,11.4 -12,11.4 z m 76.2,-12.4 c -9.389,0 -17,-6.715977 -17,-14.999975 0,-8.284 7.611,-15 17,-15 9.391996,0 16.998996,6.716 16.998996,15 0,8.283998 -7.608,14.999975 -16.998996,14.999975 z m 76.594996,12.4 c -6.623,0 -12,-5.104 -12,-11.4 0,-6.29598 5.377,-11.399975 12,-11.399975 6.629,0 12,5.103995 12,11.399975 0,6.296 -5.371,11.4 -12,11.4 z"
   id="path9"
   inkscape:connector-curvature="0"
   style="fill:#A9821F" />
<path
   d="m 10.164655,60.020695 c -3.3110002,0.918 -5.3590002,4.862 -5.3590002,9.511 0,1.443 0.198,2.955 0.616,4.464 1.765,6.37 6.9199992,10.739 11.2549992,9.538 4.337,-1.202 6.51,-7.601 4.743,-13.971 -1.767,-6.374 -6.921,-10.742 -11.254999,-9.542 z"
   id="path11"
   inkscape:connector-curvature="0"
   style="fill:#9f1818" />
<path
   d="m 13.702654,106.57767 c 0,4.035 3.552,7.318 7.918,7.318 4.367,0 7.918,-3.283 7.918,-7.318 0,-4.03499 -3.552,-7.317977 -7.918,-7.317977 -4.367,0 -7.918,3.282987 -7.918,7.317977 z"
   id="path13"
   inkscape:connector-curvature="0"
   style="fill:#875C5C" />
<path
   d="m -48.298346,133.97767 c 0,4.366 3.821,7.918 8.518,7.918 4.697,0 8.519,-3.552 8.519,-7.918 0,-4.367 -3.821,-7.918 -8.519,-7.918 -4.697,0 -8.518,3.551 -8.518,7.918 z"
   id="path15"
   inkscape:connector-curvature="0"
   style="fill:#875C5C" />
<path
   d="m 84.901654,90.578695 c 0,6.020004 5.795,10.917985 12.919,10.917985 7.122996,0 12.915996,-4.897981 12.915996,-10.917985 0,-6.02 -5.793,-10.918 -12.915996,-10.918 -7.124,-0.001 -12.919,4.898 -12.919,10.918 z"
   id="path17"
   inkscape:connector-curvature="0"
   style="fill:#9f1818" />
<path
   d="m 185.87365,60.020695 c 3.313,0.918 5.362,4.862 5.362,9.511 0,1.443 -0.202,2.955 -0.619,4.464 -1.763,6.37 -6.919,10.739 -11.255,9.538 -4.336,-1.202 -6.511,-7.601 -4.743,-13.971 1.766,-6.374 6.922,-10.742 11.255,-9.542 z"
   id="path19"
   inkscape:connector-curvature="0"
   style="fill:#9f1818" />
<path
   d="m 182.33765,106.57767 c 0,4.035 -3.553,7.318 -7.922,7.318 -4.363,0 -7.917,-3.283 -7.917,-7.318 0,-4.03499 3.554,-7.317977 7.917,-7.317977 4.37,0 7.922,3.282987 7.922,7.317977 z"
   id="path21"
   inkscape:connector-curvature="0"
   style="fill:#875C5C" />
<path
   d="m 244.33465,133.97767 c 0,4.366 -3.82,7.918 -8.517,7.918 -4.697,0 -8.518,-3.552 -8.518,-7.918 0,-4.367 3.82,-7.918 8.518,-7.918 4.697,0 8.517,3.551 8.517,7.918 z"
   id="path23"
   inkscape:connector-curvature="0"
   style="fill:#875C5C" />
<path
   d="m 231.53165,291.97867 v 177.339 c -18.312,30.167 -46.554,53.653 -80.151,65.921 l -47.36,-47.36 v -55.5 c 0,0 5.1,-3.3 5.1,-7.5 0,-4.2 -5.1,-9 -5.1,-9 v -53.4 l 46.8,-56.7 v -28.5 H 45.220654 v 28.5 l 46.8,56.7 v 53.4 c 0,0 -5.1,4.8 -5.1,9 0,4.2 5.1,7.5 5.1,7.5 v 55.5 l -47.36,47.36 c -33.598,-12.266 -61.842,-35.752 -80.151,-65.918 v -177.342 h -17.69 v 135.381 44.618 2.079 c 29.889,52.659 86.445,88.289 151.2,88.289 64.755996,0 121.312996,-35.63 151.199996,-88.289 v -2.079 -44.622 -135.377 h -17.688 z"
   id="path25"
   inkscape:connector-curvature="0" />
<path
   d="m 192.81965,374.82467 c 0,0 19.8,-12 19.8,-38.399 0,-35.999 -39,-45.599 -39,-45.599 H -17.780346 v 169.799 H 173.61965 c 0,0 39,-11.4 39,-47.4 0,-26.401 -19.8,-38.401 -19.8,-38.401 z m -21.734,-66.31 c 6.134,2.009 23.846,9.413 23.846,27.911 0,15.333 -10.264,22.594 -11.518,23.423 l 0.236,-0.149 -0.258,0.164 c 0.005,-0.003 0.017,-0.012 0.021,-0.015 l -11.133,7.034 H -0.09234526 c 0,-24.226 0,-47.18 0,-58.368 28.71499926,0 166.70699526,0 171.17799526,0 z m -0.473,134.424 c -5.28,0 -142.069996,0 -170.70499526,0 0,-11.187 0,-34.144 0,-58.368 H 175.00665 c 4.453,2.772 8.187,5.098 8.386,5.222 1.182,0.778 11.539,8.039 11.539,23.433 0,18.679 -18.099,27.299 -24.319,29.713 z"
   id="path27"
   inkscape:connector-curvature="0" />
<polygon
   points="326.291,353.511 337.287,342.516 326.291,331.522 326.291,315.975 310.744,315.975 299.75,304.98 288.755,315.975 273.208,315.975 273.208,331.522 262.214,342.516 273.208,353.511 273.208,369.058 288.755,369.058 299.75,380.053 310.744,369.058 326.291,369.058 "
   id="polygon29"
   transform="translate(-201.73035,-103.93833)" />
<path
   d="m 89.685654,214.69667 -1.102,1.102 c 0,0 -9.021,0 -13.344,0 0,4.323 0,13.344 0,13.344 0,0 -6.378,6.378 -9.437,9.436 3.059,3.058 9.437,9.436 9.437,9.436 0,0 0,9.021 0,13.344 4.323,0 13.344,0 13.344,0 0,0 6.378,6.378 9.436,9.437 3.056996,-3.059 9.435996,-9.437 9.435996,-9.437 0,0 9.021,0 13.344,0 0,-4.323 0,-13.344 0,-13.344 0,0 6.382,-6.378 9.436,-9.436 -3.054,-3.057 -9.436,-9.436 -9.436,-9.436 0,0 0,-9.021 0,-13.344 -4.322,0 -13.344,0 -13.344,0 0,0 -6.379,-6.378 -9.435996,-9.437 -3.058,3.058 -8.334,8.335 -8.334,8.335 z"
   id="path31"
   inkscape:connector-curvature="0"
   style="fill:#A9821F" />
<rect
   x="96.101646"
   y="392.17767"
   width="3.835"
   height="20.4"
   id="rect33"
   style="fill:#8C836E" />
<path
   d="m 99.946654,417.63567 -0.007,-1.458 h -3.838 v 1.451 l -1.277,1.214 c -1.808,1.72 -3.823,4.619 -3.823,6.035 0,1.242 1.924,3.204 3.253,4.085 l 1.828,1.209 0.014,1.605 h 3.84 v -1.594 l 1.846996,-1.221 c 1.332,-0.881 3.254,-2.843 3.254,-4.085 0,-1.416 -2.014,-4.315 -3.82,-6.035 l -1.270996,-1.206 z"
   id="path35"
   inkscape:connector-curvature="0"
   style="fill:#8C836E" />
<rect
   x="96.101646"
   y="474.37766"
   width="3.835"
   height="13.2"
   id="rect37"
   style="fill:#8C836E" />
<path
   d="m 49.301654,281.35967 c 0,5.633 0,20.71 0,22.951 1.386,1.679 28.535,34.572 40.831,49.467 h 15.775996 c 12.293,-14.895 39.443,-47.788 40.828,-49.467 0,-2.241 0,-17.318 0,-22.951 -7.239,0 -90.192996,0 -97.434996,0 z"
   id="path39"
   inkscape:connector-curvature="0"
   style="fill:#A9821F" />
<path
   d="m 98.019654,506.55967 c 5.978996,0 11.849996,-0.454 17.591996,-1.317 -6.695,-6.695 -12.098,-12.101 -14.063,-14.064 h -7.057996 c -1.961,1.959 -7.364,7.364 -14.065,14.064 5.743,0.863 11.616,1.317 17.594,1.317 z"
   id="path41"
   inkscape:connector-curvature="0"
   style="fill:#8C836E" />
<path
   d="m 98.019654,510.64267 c -7.207,0 -14.258,-0.663 -21.125,-1.868 -9.245,9.244 -20.106,20.104 -27.958,27.956 15.442,5.133 31.94,7.927 49.084,7.927 17.142996,0 33.639996,-2.794 49.079996,-7.924 -7.828,-7.828 -18.698,-18.701 -27.956,-27.959 -6.868,1.205 -13.918,1.868 -21.124996,1.868 z"
   id="path43"
   inkscape:connector-curvature="0"
   style="fill:#A9821F" />
</svg>