<svg xmlns="http://www.w3.org/2000/svg" xmlns:svg="http://www.w3.org/2000/svg" version="1.1" id="svg132" width="255.44079548889601" height="391.4801463431357" viewBox="0 0 521.86628 799.99998">
  <defs id="defs136">
    <clipPath clipPathUnits="userSpaceOnUse" id="clipPath690">
      <path d="m -1475.7018,288.8357 h 2000 v -2000 h -2000 z" id="path692" style="stroke-width:0.999998"/>
    </clipPath>
    <clipPath clipPathUnits="userSpaceOnUse" id="clipPath702">
      <path d="m -550.1656,199.1051 h 2000 v -2000 h -2000 z" id="path704" style="stroke-width:0.999998"/>
    </clipPath>
    <clipPath clipPathUnits="userSpaceOnUse" id="clipPath708">
      <path d="m -580.4335,798.8307 h 2000 v -2000 h -2000 z" id="path710" style="stroke-width:0.999998"/>
    </clipPath>
    <clipPath clipPathUnits="userSpaceOnUse" id="clipPath726">
      <path d="m -580.4335,921.3516 h 2000 v -2000 h -2000 z" id="path728" style="stroke-width:0.999998"/>
    </clipPath>
    <clipPath clipPathUnits="userSpaceOnUse" id="clipPath732">
      <path d="m -580.4335,620.7643 h 2000 v -2000 h -2000 z" id="path734" style="stroke-width:0.999998"/>
    </clipPath>
    <clipPath clipPathUnits="userSpaceOnUse" id="clipPath744">
      <path d="m -580.4335,680.173 h 2000 v -2000 h -2000 z" id="path746" style="stroke-width:0.999998"/>
    </clipPath>
    <clipPath clipPathUnits="userSpaceOnUse" id="clipPath750">
      <path d="m -1298.7627,627.4725 h 2000 v -2000 h -2000 z" id="path752" style="stroke-width:0.999998"/>
    </clipPath>
    <clipPath clipPathUnits="userSpaceOnUse" id="clipPath756">
      <path d="m -796.8177,199.1051 h 2000 v -2000 h -2000 z" id="path758" style="stroke-width:0.999998"/>
    </clipPath>
    <clipPath clipPathUnits="userSpaceOnUse" id="clipPath762">
      <path d="m -1424.0206,296.0806 h 2000 v -2000 h -2000 z" id="path764" style="stroke-width:0.999998"/>
    </clipPath>
    <clipPath clipPathUnits="userSpaceOnUse" id="clipPath768">
      <path d="m -1501.5834,192.4645 h 2000 v -2000 h -2000 z" id="path770" style="stroke-width:0.999998"/>
    </clipPath>
    <clipPath clipPathUnits="userSpaceOnUse" id="clipPath780">
      <path d="m -641.0234,199.1051 h 2000 v -2000 h -2000 z" id="path782" style="stroke-width:0.999998"/>
    </clipPath>
    <clipPath clipPathUnits="userSpaceOnUse" id="clipPath786">
      <path d="m -1338.3688,296.0806 h 2000 v -2000 h -2000 z" id="path788" style="stroke-width:0.999998"/>
    </clipPath>
    <clipPath clipPathUnits="userSpaceOnUse" id="clipPath792">
      <path d="m -876.2981,299.5691 h 2000 v -2000 h -2000 z" id="path794" style="stroke-width:0.999998"/>
    </clipPath>
    <clipPath clipPathUnits="userSpaceOnUse" id="clipPath798">
      <path d="m -1018.8369,240.911 h 2000 v -2000 h -2000 z" id="path800" style="stroke-width:0.999998"/>
    </clipPath>
    <clipPath clipPathUnits="userSpaceOnUse" id="clipPath804">
      <path d="m -1160.8389,199.1051 h 2000 v -2000 h -2000 z" id="path806" style="stroke-width:0.999998"/>
    </clipPath>
  </defs>
  <g id="g140" transform="matrix(1.3333333,0,0,-1.3333333,-609.332,2443.1966)">
    <g id="g1378" transform="matrix(0.36040465,0,0,0.36040465,292.29444,1171.9929)" style="stroke-width:2.77466">
      <path id="path144" style="fill:#07691d;fill-rule:nonzero;stroke:none;stroke-width:2.77466" d="M 456.99903,1618.6426 V 720.20854 c 0,-305.2017 247.40523,-552.60646 552.60797,-552.60646 145.5978,0 277.3489,58.98003 372.7148,154.39893 71.8599,71.85993 123.0041,164.27405 143.9341,267.68995 H 1399.3872 C 1353.0733,417.85013 1195.8838,291.03568 1009.607,291.03568 c -236.6168,0 -429.1729,192.5561 -429.1729,429.17286 v 775.00196 h 832.853 l 123.4336,123.4321 z" />
      <path d="m 0,0 v -665.038 c 0,-162.717 -131.859,-294.63 -294.577,-294.63 h -13.309 c -163.415,0 -295.918,132.503 -295.918,295.972 V 4.186 h 123.43307 V -236.563 H -233.611 L -356.83,-362.894 h -123.54093 v -300.802 c 0,-95.152 77.38693,-172.539 172.48493,-172.539 h 13.309 c 94.347,0 171.144,76.797 171.144,171.197 v 544.556 z" style="fill:#07691d;fill-rule:nonzero;stroke:none;stroke-width:2.77466" id="path156" transform="translate(1298.7627,1372.5275)" clip-path="url(#clipPath750)" />
      <g id="g1080" style="stroke-width:2.77466">
        <path id="path160" clip-path="url(#clipPath732)" style="fill:#e8a71d;fill-rule:nonzero;stroke:none;stroke-width:2.77466" d="M 5.965421e-4,1.9932465e-4 -123.43449,-123.4334 V -543.64288 L 5.965421e-4,-420.15655 Z" transform="translate(580.4335,1379.2357)" />
        <path d="M 5.1451085e-4,0 V -65.849 L -123.43449,-189.283 v 65.85 z" style="fill:#a70000;fill-rule:nonzero;stroke:none;stroke-width:2.77466" id="path164" transform="translate(580.4335,1319.827)" clip-path="url(#clipPath744)" />
        <path d="M 5.1451085e-4,0 V -64.614 L -123.43449,-188.102 v 64.615 z" style="fill:#a70000;fill-rule:nonzero;stroke:none;stroke-width:2.77466" id="path172" transform="translate(580.4335,1201.1693)" clip-path="url(#clipPath708)" />
        <path d="M 5.1451085e-4,0 V -65.044 L -123.43449,-188.531 v 65.044 z" style="fill:#a70000;fill-rule:nonzero;stroke:none;stroke-width:2.77466" id="path180" transform="translate(580.4335,1078.6484)" clip-path="url(#clipPath726)" />
      </g>
    </g>
    <g id="g1369" transform="matrix(0.36040465,0,0,0.36040465,292.29444,1171.9929)" style="stroke-width:2.77466">
      <path d="m 0,0 v -91.126 c 0,-20.018 -16.261,-36.279 -36.279,-36.279 h -14.168 c -21.252,0 -38.586,17.334 -38.586,38.587 V 0 h 28.067 v -84.847 c 0,-7.782 6.333,-14.114 14.115,-14.114 h 3.596 c 8.372,0 15.241,6.816 15.241,15.188 V 0 Z" style="fill:#07691d;fill-rule:nonzero;stroke:none;stroke-width:2.77466" id="path192" transform="translate(550.1656,1800.8949)" clip-path="url(#clipPath702)"/>
      <path d="m 0,0 v -29.409 h -37.191 v -22.003 h 28.282 v -26.673 h -28.282 v -21.949 H 1.1602559e-4 L 0,-127.405 H -66.601 V 0 Z" style="fill:#07691d;fill-rule:nonzero;stroke:none;stroke-width:2.77466" id="path198" transform="translate(641.0234,1800.8949)" clip-path="url(#clipPath780)" />
      <path d="m 0,0 v -25.331 h -21.896 c -21.198,0 -38.425,-17.226 -38.425,-38.371 0,-20.017 16.314,-36.332 36.332,-36.332 H 0 v -27.371 h -27.853 c -33.22,0 -60.268,27.048 -60.268,60.268 v 9.231 C -88.121,-25.974 -62.146,0 -30.268,0 Z" style="fill:#07691d;fill-rule:nonzero;stroke:none;stroke-width:2.77466" id="path212" transform="translate(796.8177,1800.8949)" clip-path="url(#clipPath756)"/>
      <path d="m 0,0 c -19.588,0 -35.474,16.476 -35.474,36.762 0,20.286 15.886,36.761 35.474,36.761 19.535,0 35.42,-16.475 35.42,-36.761 C 35.42,16.476 19.535,0 0,0 M -64.4,36.762 C -64.4,0 -35.527,-29.892 0,-29.892 c 35.474,0 64.4,29.892 64.4,66.654 0,36.761 -28.926,66.654 -64.4,66.654 -35.527,0 -64.4,-29.893 -64.4,-66.654 z" style="fill:#07691d;fill-rule:nonzero;stroke:none;stroke-width:2.77466" id="path216" transform="translate(876.2981,1700.4309)" clip-path="url(#clipPath792)" />
      <path d="m 0,0 c 0,-6.816 -5.528,-12.344 -12.343,-12.344 h -17.174 v 25.867 h 17.174 C -5.528,13.523 0,7.996 0,1.181 Z m 7.782,-32.951 c 13.363,6.6 22.54,20.393 22.54,36.278 0,21.198 -17.281,38.479 -38.479,38.479 H -58.711 V -85.599 h 29.194 v 48.408 h 7.031 L 0.322,-85.599 h 32.2 z" style="fill:#07691d;fill-rule:nonzero;stroke:none;stroke-width:2.77466" id="path220" transform="translate(1018.8369,1759.089)" clip-path="url(#clipPath798)" />
      <path d="m 0,0 v -127.405 l -66.707,61.824 v -61.824 H -95.902 V 0 l 66.708,-61.824 V 0 Z" style="fill:#07691d;fill-rule:nonzero;stroke:none;stroke-width:2.77466" id="path224" transform="translate(1160.8389,1800.8949)" clip-path="url(#clipPath804)"/>
      <path d="M 0,0 V -30.429 H -66.225 V 96.975 h 30.429 V 0 Z" style="fill:#07691d;fill-rule:nonzero;stroke:none;stroke-width:2.77466" id="path228" transform="translate(1338.3688,1703.9194)" clip-path="url(#clipPath786)"/>
      <path d="M 0,0 V -30.429 H -66.224 V 96.975 h 30.429 V 0 Z" style="fill:#07691d;fill-rule:nonzero;stroke:none;stroke-width:2.77466" id="path232" transform="translate(1424.0206,1703.9194)" clip-path="url(#clipPath762)"/>
      <path d="M 0,0 11.861,30.161 23.775,0 Z M 17.227,89.731 H 5.474 L -43.524,-37.674 h 32.039 l 4.938,13.9 h 34.132 l 5.903,-13.9 h 33.81 z" style="fill:#07691d;fill-rule:nonzero;stroke:none;stroke-width:2.77466" id="path236" transform="translate(1475.7018,1711.1643)" clip-path="url(#clipPath690)"/>
      <path d="M 0,0 -29.37,-0.181 -46.651,24.862 H -8.815 Z" style="fill:#07691d;fill-rule:nonzero;stroke:none;stroke-width:2.77466" id="path240" transform="translate(1501.5834,1807.5355)" clip-path="url(#clipPath768)"/>
      <path d="m 0,0 v -29.409 h -37.191 v -22.003 h 28.282 v -26.673 h -28.282 v -21.949 H 1.1602559e-4 L 0,-127.405 H -66.601 V 0 Z" style="fill:#07691d;fill-rule:nonzero;stroke:none;stroke-width:2.77466" id="path1149" transform="translate(1254.0049,1800.8951)" clip-path="url(#clipPath780)" />
    </g>
  </g>
</svg>