<svg version="1.1" xmlns="http://www.w3.org/2000/svg" xml:space="preserve" overflow="visible" height="200" width="200" viewBox="0 0 200 200" enable-background="new 0 0 200 200">
<title>América Futebol Clube (Pernambuco)</title>
<circle cy="100" cx="100" r="100" fill="#257524"/>
<circle cy="100" cx="100" r="90.694" fill="#FFF"/>
<circle cy="100" cx="100" r="79.695" fill="#257524"/>
<path d="M111.59,32.19v22.301c-3.708-0.941-7.589-1.446-11.59-1.446-3.505,0-6.919,0.387-10.205,1.115v-20.62c0-1.31-2.058-2.369-4.601-2.369-6.317,0-13.091,2.399-20.764,6.808-21.464,12.335-35.919,35.488-35.919,62.021,0,21.22,9.246,40.278,23.929,53.37,0,0,3.644-0.546,5.984-3.159,2.339-2.613,2.485-6.291,2.485-6.291-10.607-9.447-17.769-22.678-19.367-37.576h11.933c2.015,14.914,11.03,27.604,23.63,34.655v27.816s2.838,2.369,6.345,2.369,6.345-2.369,6.345-2.369v-22.977c3.286,0.728,6.7,1.116,10.205,1.116,4.001,0,7.883-0.505,11.59-1.446v23.631s2.45,2.045,5.478,2.045c3.027,0,5.477-2.045,5.477-2.045v-27.942c5.899-3.235,11.028-7.701,15.041-13.051,0,0-0.362-3.356-2.691-5.723-2.328-2.367-5.899-2.623-5.899-2.623-1.817,2.657-3.991,5.049-6.451,7.112v-20.567h23.732s2.369-2.838,2.369-6.345-2.369-6.345-2.369-6.345h-23.732v-20.568c2.459,2.063,4.634,4.455,6.451,7.112,0,0,3.571-0.256,5.899-2.623,2.329-2.367,2.691-5.723,2.691-5.723-4.013-5.35-9.142-9.815-15.041-13.051v-13.117c10.169,4.225,18.896,11.22,25.238,20.045,0,0,3.691-0.192,6.264-2.576,2.572-2.385,3.101-6.109,3.101-6.109-10.84-14.399-30.04-26.618-45.56-24.855zm-34.486,13.641v13.169c-12.6,7.051-21.616,19.741-23.63,34.654h-11.932c2.317-21.591,16.322-39.681,35.562-47.823zm-11.641,60.509h4.841s2.369-2.838,2.369-6.345-2.369-6.345-2.369-6.345h-4.841c1.47-8.051,5.685-15.144,11.641-20.272v53.234c-5.956-5.12-10.171-12.21-11.641-20.27zm46.127,26.81c-3.628,1.269-7.528,1.96-11.59,1.96-3.55,0-6.976-0.528-10.205-1.508v-67.202c3.229-0.979,6.655-1.508,10.205-1.508,4.062,0,7.962,0.692,11.59,1.961v66.298z" fill="#FFF"/>
</svg>
