<?xml version="1.0" encoding="UTF-8"?>
<svg id="Camada_1" data-name="Camada 1" xmlns="http://www.w3.org/2000/svg" viewBox="0 0 500 500">
  <defs>
    <style>
      .cls-1 {
        fill: #fff;
      }

      .cls-2 {
        fill: #1876bb;
      }
    </style>
  </defs>
  <path class="cls-2" d="M255,500h-10c-2.6-.42-5.19-.94-7.81-1.24-10.24-1.16-20.61-1.63-30.72-3.47-47.21-8.56-88.92-28.75-124.19-61.33C35.48,390.73,8.49,337.34,2.14,273.74,1.55,267.81,.72,261.91,0,256c0-4,0-8,0-12,.42-2.43,.97-4.85,1.25-7.3,1.16-10.08,1.64-20.27,3.45-30.23,8.42-46.32,28.03-87.39,59.67-122.32C107.79,36.21,161.73,8.65,226.25,2.15,232.51,1.52,238.75,.72,245,0c3.33,0,6.67,0,10,0,2.6,.42,5.19,.94,7.81,1.24,10.24,1.16,20.61,1.63,30.72,3.47,47.21,8.56,88.92,28.75,124.19,61.33,46.8,43.23,73.79,96.62,80.14,160.23,.59,5.93,1.42,11.83,2.14,17.74v12c-.42,2.43-.97,4.85-1.25,7.3-1.16,10.08-1.64,20.27-3.45,30.23-8.42,46.32-28.03,87.39-59.67,122.32-43.42,47.94-97.36,75.5-161.88,82-6.26,.63-12.5,1.43-18.75,2.15Zm235.34-249.95c.01-132.34-107.81-240.31-240.04-240.38C117.88,9.6,9.78,117.31,9.66,249.45c-.13,132.71,107.6,240.81,240.05,240.88,132.63,.07,240.63-107.77,240.64-240.28Z"/>
  <path class="cls-1" d="M490.34,250.05c-.01,132.52-108.01,240.36-240.64,240.28-132.45-.07-240.18-108.17-240.05-240.88C9.78,117.31,117.88,9.6,250.3,9.67c132.24,.07,240.05,108.04,240.04,240.38Zm-240.02,9.04c-29.21,2.04-58.46,3.59-87.61,6.24-37.36,3.39-74.07,10.64-110.16,20.9-15.59,4.43-13.67,1.93-9.83,17.14,28.84,114.18,147.29,184.7,260.98,153.63,81.67-22.32,133.03-76.37,154.73-158.33,2.32-8.75,2.11-8.82-6.8-11.39-65.74-18.97-132.99-26.61-201.31-28.2Zm210.92-44.67c-11.81-61.84-42.31-111.13-95.2-143.88-77.24-47.84-156.38-47.58-233.3,.77-52.5,33-82.71,82.29-94.15,144.07,141.23-39.55,281.3-39.66,422.65-.96Zm-230.77,29.21c-1.29-2.95-2.08-4.53-2.68-6.17-3.43-9.38-6.89-18.75-10.17-28.19-1.23-3.54-4.03-3.42-6.48-2.73-1.25,.35-2.77,2.65-2.76,4.05,.07,12.49,.4,24.98,.84,37.47,.04,1.07,1.42,2.08,2.18,3.12,1.04-1.02,2.74-1.9,2.98-3.08,.42-2.06-.14-4.29-.15-6.46-.04-7.86-.01-15.72-.01-23.59,1.78,1.19,2.59,2.69,3.17,4.27,2.94,7.97,5.68,16.01,8.83,23.89,.72,1.79,2.58,3.88,4.31,4.34,3.39,.89,3.76-2.36,4.49-4.69,2.54-8.1,5.04-16.21,7.6-24.3,.51-1.6,1.2-3.14,1.81-4.71,.64,.08,1.28,.17,1.92,.25,0,4.69-.09,9.38,.02,14.06,.13,5.49,.26,10.99,.78,16.45,.1,1.06,1.97,1.96,3.03,2.93,.69-1.07,1.99-2.15,1.97-3.2-.22-12.15-.58-24.31-1.05-36.46-.09-2.25,.76-5.24-3.25-5.56-3.57-.28-5.43,.93-6.46,4.5-2.76,9.6-5.85,19.1-8.84,28.62-.41,1.31-1.02,2.56-2.08,5.18Zm-182.04-12.98c3.43,14.15,6.61,27.56,10.08,40.9,.25,.97,2.78,2.19,3.97,1.94,8.46-1.78,16.87-3.82,25.22-6.06,1.16-.31,1.9-2.15,2.84-3.28-1.35-.52-2.8-1.67-4.02-1.45-4.25,.75-8.4,2.01-12.61,3-12,2.82-9.92,4.38-13.29-8.44-.82-3.13,.13-4.66,3.21-5.35,5.51-1.25,10.96-2.78,16.49-3.98,3.79-.82,3.68-2.56,1.62-5.41-5.21,1.27-10.36,2.51-15.51,3.77q-7.95,1.94-9.85-5.96c-1.5-6.21-1.44-6.26,4.64-7.71,5.66-1.35,11.34-2.63,16.93-4.25,1.03-.3,1.64-2.03,2.44-3.11-1.15-.55-2.45-1.77-3.43-1.55-9.38,2.12-18.71,4.48-28.73,6.94Zm328.51,29.68c-.16-1.58-.17-2.89-.43-4.15-2.68-12.68-5.3-25.39-8.25-38.01-.42-1.81-2.24-3.9-3.95-4.66-2.8-1.26-4.43,.93-5.71,3.34-6.12,11.45-12.33,22.85-18.48,34.28-.6,1.11-.92,2.37-1.38,3.6,4.84,2.54,6.06-.93,7.59-3.86q3.71-7.15,11.55-6.28c.5,.06,1,.05,1.49,.11,9.29,.97,9.44,.95,10.88,10,.59,3.71,2.03,5.83,6.7,5.64Zm-78.62-28.53c1,4.15,1.38,8.59,3.14,12.39,3.61,7.8,10.44,10.85,18.82,10.41,7.87-.41,13.58-4.22,16.44-11.66,.41-1.08-.54-2.68-.86-4.04-1.3,.58-2.77,.94-3.83,1.8-.83,.68-1.09,2.02-1.71,3-2.74,4.34-6.73,6.36-11.81,5.96-5.3-.41-9.86-2.49-11.96-7.65-3.19-7.83-2.87-15.77,1.56-23.03,5.78-9.47,19.41-8.87,24.73,.7,.75,1.36,2.82,1.98,4.29,2.95,.19-1.72,1-3.68,.45-5.11-3.08-7.99-13.81-12.27-23.26-9.57-9.72,2.78-15.11,11.14-15.99,23.83Zm-133.34,7.4q-4.36-.01-5.86,4.58c-1.88,5.76-5.91,9.11-11.5,9.56-6.24,.51-11.71-1.43-13.82-7.46-1.87-5.33-2.98-11.27-2.81-16.89,.19-6.19,4.03-10.76,10.46-12.48,6.07-1.62,11.25-.49,14.87,4.99,1.92,2.9,3.8,2.47,5.99,.6-3.05-8.2-8.61-11.49-18.14-10.95-9.35,.53-16.6,6.16-18.63,14.6-1.86,7.74-.84,15.22,2.69,22.28,4.24,8.48,12.54,12.01,22.24,9.76,9.25-2.15,14.36-8.7,14.5-18.6Zm131.29,11.82c-4.42-13.62-8.74-26.89-13.04-40.17-.78-2.42-1.52-5.4-4.76-4.49-1.98,.55-4.33,2.31-5.14,4.14-5.22,11.89-10.08,23.95-15.02,35.96-.48,1.16-.75,2.41-1.1,3.58,5.03,2.02,6.04-1.41,7.31-4.57,3.55-8.76,1.89-7.87,11.81-7.73,9.67,.14,9.82,.13,12.73,9.66,1.1,3.59,2.76,5.09,7.2,3.63Zm115.68,15.36c4.59,3.28,6.19,.53,8.09-2.24,5.34-7.77,2.95-7.8,13.49-5.21,9.09,2.23,9.18,2.29,10.31,11.79,.4,3.38,1.02,5.95,5.54,5.15,.1-1.11,.37-2.24,.26-3.34-1.32-13.58-2.6-27.17-4.18-40.72-.15-1.28-2.04-2.95-3.41-3.31-1.38-.36-3.78,.2-4.59,1.24-3.59,4.58-6.79,9.48-10.1,14.27-5.09,7.37-10.16,14.76-15.39,22.37Zm-19.74-48.9c-2.8,14.41-5.51,28.07-8,41.76-.16,.9,1.36,2.1,2.1,3.16,1.11-.88,2.88-1.57,3.19-2.67,1.05-3.66,1.65-7.45,2.29-11.22,.57-3.34,2.37-4.38,5.63-3.69,3.9,.82,7.82,1.69,11.78,1.99,7.19,.55,12.36-3.69,13.42-10.51,1.12-7.24-1.97-12.5-9.13-14.36-6.72-1.75-13.61-2.87-21.28-4.45Zm61.15,.54c-5.65-2.47-8.39-1.11-10.48,5.84,3.33-1.85,6.66-3.71,10.48-5.84Zm-272.21,32.93c-1.98-1.67-3.08-3.3-4.04-3.22-1.24,.09-2.37,1.56-3.56,2.43,1.04,1.2,1.89,2.85,3.2,3.41,.71,.3,2.22-1.25,4.4-2.62Zm-78.89,6.03c-1.38,2.12-2.81,3.35-2.71,4.43,.1,1.13,1.69,2.12,2.62,3.17,1.11-1.08,2.81-2.01,3.12-3.28,.21-.89-1.49-2.24-3.03-4.32Z"/>
  <path class="cls-2" d="M250.32,259.09c68.32,1.59,135.57,9.23,201.31,28.2,8.91,2.57,9.11,2.64,6.8,11.39-21.69,81.96-73.05,136.01-154.73,158.33-113.69,31.07-232.14-39.45-260.98-153.63-3.84-15.22-5.77-12.71,9.83-17.14,36.09-10.26,72.81-17.51,110.16-20.9,29.15-2.65,58.4-4.2,87.61-6.24Zm-25.22,134.54c2.31,2.49,3.3,4.06,4.71,4.99,7.36,4.82,9.84,10.98,6.12,19.35-.72,1.63-.36,3.75-.58,6.89,4.46-2.93,7.84-4.78,10.78-7.17,3.17-2.58,5.74-2.3,8.83,.11,3.07,2.38,6.51,4.28,9.79,6.4,.42-.31,.85-.62,1.27-.92-.87-3.63-1.39-7.39-2.7-10.85-1.64-4.32-.51-7.22,3.06-9.86,2.99-2.22,5.65-4.9,8.45-7.38-.15-.55-.31-1.1-.46-1.64-3.85-.3-7.72-.98-11.55-.79-4.05,.2-6.1-1.43-7.33-5.1-1.17-3.49-2.8-6.82-4.23-10.23-.52,.04-1.04,.08-1.55,.12-1.62,3.76-2.9,7.72-4.99,11.18-1.06,1.75-3.44,3.33-5.47,3.73-4.12,.81-8.4,.76-14.14,1.17Zm-29.37-104.56c-.21-.49-.41-.98-.62-1.47-4.23,0-8.5,.37-12.66-.16-2.04-.26-4.49-1.77-5.67-3.47-2.27-3.3-3.77-7.12-5.59-10.73-.51,.07-1.02,.14-1.52,.22-1,2.73-2.45,5.38-2.92,8.2-.98,5.86-4.47,7.88-9.99,8.03-3.11,.09-6.19,.93-9.28,1.43-.06,.53-.13,1.06-.19,1.58,3.21,2.57,6.3,5.3,9.66,7.65,2.48,1.74,3.43,3.63,2.83,6.7-.84,4.29-1.23,8.67-1.82,13.01,.45,.3,.9,.61,1.35,.91,3.36-2.54,6.85-4.92,10.02-7.67,2.57-2.23,4.81-2.26,7.61-.49,3.54,2.23,7.29,4.11,10.95,6.15,.4-.39,.8-.79,1.2-1.18-1.25-3.87-2.3-7.83-3.82-11.6-1.3-3.24-.78-5.62,1.76-8,3.06-2.87,5.81-6.06,8.69-9.11Zm162.12,39.9c.44-.29,.89-.59,1.33-.88-.37-3.88-.34-7.85-1.23-11.6-.78-3.27,.44-4.92,2.86-6.58,3.19-2.19,6.2-4.64,9.29-6.98-.15-.52-.29-1.04-.44-1.56-3.33-.6-6.65-1.35-10.01-1.77-3.68-.46-6.05-1.93-6.85-5.88-.65-3.22-2-6.29-3.04-9.43-2.52,2.09-3.94,3.95-4.75,6.05-2.02,5.2-5.35,7.55-11.11,6.5-2.73-.5-5.62-.09-8.44-.09-.14,.53-.29,1.05-.43,1.58,2.07,2.3,3.94,4.84,6.27,6.86,3.66,3.17,4.56,6.45,2.23,10.88-1.48,2.81-2.2,6.02-3.25,9.05,.38,.32,.77,.64,1.15,.96,3.48-1.75,7.06-3.32,10.41-5.29,2.75-1.62,4.77-1.3,7.07,.85,2.81,2.63,5.95,4.9,8.95,7.33Zm-50.33,11.11c-.36-.38-.72-.77-1.07-1.15-3.46-.71-7.69-.43-10.16-2.39-2.64-2.09-3.62-6.28-5.58-10.07-2.32,3.36-3.73,7.35-6.5,8.87-2.95,1.62-7.19,.92-10.86,1.23-.4,.36-.81,.73-1.21,1.09,8.36,5.1,10.18,11.81,5.4,20.35,4.44-1.41,7.92-4.37,11.15-4.11,3.39,.28,6.53,3.64,9.77,5.65,.63-.01,1.26-.02,1.89-.03-4.38-9.1-1.05-15.22,7.18-19.44Z"/>
  <path class="cls-2" d="M461.25,214.42c-141.34-38.7-281.42-38.59-422.65,.96,11.44-61.78,41.64-111.07,94.15-144.07,76.92-48.35,156.06-48.61,233.3-.77,52.89,32.76,83.39,82.05,95.2,143.88Zm-208.89-84.61c-.21,.73-.42,1.46-.63,2.18,2.86,2.95,5.49,6.17,8.63,8.77,4.83,3.99,6.47,8.27,3.79,14.34-1.69,3.82-2.26,8.14-3.33,12.23,.39,.33,.78,.65,1.17,.98,4.82-2.75,9.74-5.36,14.44-8.3,2.81-1.76,4.97-1.75,7.61,.38,4.33,3.48,8.94,6.61,13.43,9.88,.43-.3,.87-.6,1.3-.89-.92-4.98-1.52-10.05-2.85-14.92-1.18-4.34-.22-7.24,3.47-9.81,4.29-2.98,8.25-6.42,12.36-9.66-.16-.52-.32-1.03-.48-1.55-5.01-.63-10.01-1.4-15.04-1.86-4.01-.37-6.77-1.65-7.88-6.06-1.15-4.57-3.1-8.94-4.7-13.39-.52-.04-1.04-.07-1.56-.11-1.66,3.31-3.74,6.49-4.9,9.97-2.03,6.07-5.58,8.79-12.17,7.93-4.16-.54-8.45-.1-12.68-.1Z"/>
  <path class="cls-2" d="M230.48,243.63c1.06-2.62,1.66-3.87,2.08-5.18,2.99-9.53,6.08-19.03,8.84-28.62,1.03-3.57,2.89-4.78,6.46-4.5,4.01,.32,3.16,3.32,3.25,5.56,.47,12.15,.83,24.3,1.05,36.46,.02,1.05-1.28,2.13-1.97,3.2-1.05-.97-2.92-1.87-3.03-2.93-.52-5.46-.65-10.96-.78-16.45-.11-4.69-.02-9.38-.02-14.06-.64-.08-1.28-.17-1.92-.25-.61,1.57-1.31,3.11-1.81,4.71-2.56,8.09-5.06,16.2-7.6,24.3-.73,2.34-1.1,5.59-4.49,4.69-1.73-.46-3.59-2.55-4.31-4.34-3.15-7.88-5.89-15.92-8.83-23.89-.58-1.58-1.39-3.09-3.17-4.27,0,7.86-.02,15.72,.01,23.59,0,2.16,.57,4.4,.15,6.46-.24,1.18-1.94,2.06-2.98,3.08-.76-1.04-2.15-2.06-2.18-3.12-.44-12.48-.77-24.97-.84-37.47,0-1.41,1.52-3.71,2.76-4.05,2.45-.69,5.25-.81,6.48,2.73,3.27,9.44,6.74,18.81,10.17,28.19,.6,1.64,1.39,3.22,2.68,6.17Z"/>
  <path class="cls-2" d="M48.44,230.65c10.03-2.46,19.35-4.82,28.73-6.94,.98-.22,2.28,1,3.43,1.55-.8,1.07-1.41,2.81-2.44,3.11-5.59,1.61-11.27,2.9-16.93,4.25-6.08,1.45-6.13,1.5-4.64,7.71q1.9,7.91,9.85,5.96c5.15-1.26,10.3-2.5,15.51-3.77,2.06,2.85,2.17,4.59-1.62,5.41-5.52,1.19-10.97,2.73-16.49,3.98-3.09,.7-4.04,2.22-3.21,5.35,3.37,12.81,1.29,11.26,13.29,8.44,4.21-.99,8.36-2.25,12.61-3,1.22-.21,2.67,.93,4.02,1.45-.94,1.13-1.68,2.97-2.84,3.28-8.35,2.24-16.76,4.27-25.22,6.06-1.19,.25-3.72-.97-3.97-1.94-3.47-13.34-6.65-26.75-10.08-40.9Z"/>
  <path class="cls-2" d="M376.95,260.33c-4.66,.19-6.1-1.93-6.7-5.64-1.45-9.05-1.6-9.03-10.88-10-.5-.05-1-.05-1.49-.11q-7.83-.87-11.55,6.28c-1.53,2.94-2.75,6.4-7.59,3.86,.47-1.23,.79-2.49,1.38-3.6,6.14-11.44,12.36-22.83,18.48-34.28,1.29-2.41,2.91-4.6,5.71-3.34,1.71,.77,3.52,2.86,3.95,4.66,2.95,12.62,5.57,25.32,8.25,38.01,.27,1.26,.28,2.58,.43,4.15Zm-10.07-20.2c-1.1-6.38-2.15-12.46-3.21-18.53l-1.78-.26c-1.37,2.52-2.79,5.03-4.12,7.58-5.6,10.77-5.17,11.42,9.1,11.21Z"/>
  <path class="cls-2" d="M298.34,231.8c.88-12.7,6.27-21.06,15.99-23.83,9.46-2.7,20.18,1.58,23.26,9.57,.55,1.43-.27,3.39-.45,5.11-1.46-.96-3.53-1.59-4.29-2.95-5.32-9.57-18.95-10.17-24.73-.7-4.43,7.26-4.74,15.19-1.56,23.03,2.1,5.16,6.66,7.24,11.96,7.65,5.08,.39,9.07-1.62,11.81-5.96,.62-.98,.88-2.32,1.71-3,1.06-.87,2.53-1.23,3.83-1.8,.32,1.36,1.27,2.96,.86,4.04-2.86,7.45-8.57,11.25-16.44,11.66-8.38,.44-15.21-2.61-18.82-10.41-1.76-3.8-2.14-8.24-3.14-12.39Z"/>
  <path class="cls-2" d="M164.99,239.2c-.14,9.9-5.25,16.45-14.5,18.6-9.7,2.25-18-1.28-22.24-9.76-3.53-7.06-4.55-14.54-2.69-22.28,2.03-8.44,9.28-14.07,18.63-14.6,9.53-.54,15.09,2.75,18.14,10.95-2.19,1.87-4.07,2.3-5.99-.6-3.63-5.48-8.8-6.61-14.87-4.99-6.43,1.72-10.27,6.29-10.46,12.48-.18,5.62,.94,11.56,2.81,16.89,2.11,6.02,7.58,7.96,13.82,7.46,5.59-.45,9.61-3.8,11.5-9.56q1.5-4.59,5.86-4.58Z"/>
  <path class="cls-2" d="M296.28,251.02c-4.44,1.46-6.1-.04-7.2-3.63-2.91-9.52-3.06-9.52-12.73-9.66-9.92-.14-8.26-1.03-11.81,7.73-1.28,3.15-2.29,6.58-7.31,4.57,.35-1.17,.62-2.42,1.1-3.58,4.94-12.01,9.8-24.07,15.02-35.96,.8-1.83,3.16-3.59,5.14-4.14,3.25-.9,3.98,2.07,4.76,4.49,4.3,13.28,8.61,26.55,13.04,40.17Zm-26.6-18.8c4.61,.38,7.74,.85,10.86,.77,1-.03,2.91-1.73,2.78-2.27-1.32-5.5-2.97-10.92-4.53-16.37h-1.84c-2.3,5.67-4.61,11.32-7.28,17.87Z"/>
  <path class="cls-2" d="M411.96,266.38c5.24-7.61,10.31-15,15.39-22.37,3.31-4.8,6.51-9.69,10.1-14.27,.82-1.04,3.22-1.6,4.59-1.24,1.38,.36,3.26,2.04,3.41,3.31,1.58,13.55,2.86,27.14,4.18,40.72,.11,1.1-.17,2.24-.26,3.34-4.51,.8-5.13-1.77-5.54-5.15-1.13-9.51-1.22-9.56-10.31-11.79-10.53-2.59-8.14-2.56-13.49,5.21-1.9,2.77-3.5,5.52-8.09,2.24Zm28.69-29.74l-1.92-.31c-3.42,5.05-6.83,10.1-10.83,16,4.6,1.17,7.88,2.17,11.24,2.73,.81,.13,2.7-1.25,2.68-1.88-.2-5.52-.73-11.04-1.16-16.55Z"/>
  <path class="cls-2" d="M392.21,217.47c7.67,1.58,14.55,2.7,21.28,4.45,7.16,1.86,10.25,7.12,9.13,14.36-1.06,6.83-6.23,11.06-13.42,10.51-3.95-.3-7.88-1.17-11.78-1.99-3.26-.69-5.06,.35-5.63,3.69-.64,3.77-1.24,7.56-2.29,11.22-.32,1.1-2.09,1.79-3.19,2.67-.74-1.06-2.26-2.26-2.1-3.16,2.49-13.69,5.2-27.35,8-41.76Zm15.63,24.59c4.9,.28,7.98-2.06,9-6.58,1.02-4.5-.9-7.62-5.08-8.96-3.78-1.21-7.73-2.05-11.67-2.47-1.19-.13-3.32,1.4-3.76,2.62-4.15,11.39-3.38,12.61,8.46,14.77,1.14,.21,2.28,.46,3.06,.62Z"/>
  <path class="cls-2" d="M453.36,218.01c-3.82,2.13-7.15,3.98-10.48,5.84,2.09-6.94,4.83-8.31,10.48-5.84Z"/>
  <path class="cls-2" d="M181.15,250.94c-2.18,1.36-3.69,2.92-4.4,2.62-1.31-.56-2.16-2.21-3.2-3.41,1.18-.87,2.32-2.34,3.56-2.43,.96-.07,2.06,1.56,4.04,3.22Z"/>
  <path class="cls-2" d="M102.26,256.97c1.54,2.09,3.24,3.43,3.03,4.32-.3,1.27-2.01,2.2-3.12,3.28-.94-1.05-2.52-2.04-2.62-3.17-.1-1.09,1.33-2.31,2.71-4.43Z"/>
  <path class="cls-1" d="M225.1,393.63c5.74-.41,10.02-.36,14.14-1.17,2.03-.4,4.41-1.98,5.47-3.73,2.09-3.47,3.37-7.43,4.99-11.18,.52-.04,1.04-.08,1.55-.12,1.43,3.4,3.05,6.74,4.23,10.23,1.23,3.67,3.28,5.29,7.33,5.1,3.83-.19,7.7,.49,11.55,.79,.15,.55,.31,1.1,.46,1.64-2.8,2.48-5.46,5.16-8.45,7.38-3.56,2.64-4.7,5.53-3.06,9.86,1.31,3.46,1.83,7.22,2.7,10.85-.42,.31-.85,.62-1.27,.92-3.28-2.11-6.72-4.01-9.79-6.4-3.09-2.4-5.65-2.69-8.83-.11-2.94,2.39-6.32,4.24-10.78,7.17,.23-3.14-.14-5.25,.58-6.89,3.71-8.37,1.24-14.53-6.12-19.35-1.41-.93-2.4-2.5-4.71-4.99Z"/>
  <path class="cls-1" d="M195.73,289.08c-2.88,3.05-5.64,6.24-8.69,9.11-2.54,2.38-3.06,4.76-1.76,8,1.51,3.77,2.57,7.72,3.82,11.6-.4,.39-.8,.79-1.2,1.18-3.66-2.03-7.41-3.92-10.95-6.15-2.8-1.77-5.04-1.74-7.61,.49-3.18,2.75-6.67,5.13-10.02,7.67-.45-.3-.9-.61-1.35-.91,.58-4.34,.97-8.72,1.82-13.01,.6-3.07-.34-4.95-2.83-6.7-3.36-2.36-6.45-5.08-9.66-7.65,.06-.53,.13-1.06,.19-1.58,3.09-.5,6.18-1.35,9.28-1.43,5.52-.16,9-2.18,9.99-8.03,.47-2.82,1.92-5.47,2.92-8.2,.51-.07,1.01-.14,1.52-.22,1.82,3.61,3.32,7.44,5.59,10.73,1.17,1.7,3.62,3.21,5.67,3.47,4.16,.53,8.43,.16,12.66,.16,.21,.49,.41,.98,.62,1.47Z"/>
  <path class="cls-1" d="M357.86,328.98c-3-2.43-6.14-4.7-8.95-7.33-2.3-2.15-4.32-2.47-7.07-.85-3.35,1.98-6.93,3.55-10.41,5.29-.38-.32-.77-.64-1.15-.96,1.06-3.03,1.78-6.24,3.25-9.05,2.33-4.43,1.43-7.71-2.23-10.88-2.32-2.01-4.19-4.55-6.27-6.86,.14-.53,.29-1.05,.43-1.58,2.82,0,5.71-.41,8.44,.09,5.76,1.05,9.09-1.3,11.11-6.5,.82-2.1,2.23-3.96,4.75-6.05,1.04,3.14,2.38,6.21,3.04,9.43,.8,3.95,3.17,5.42,6.85,5.88,3.36,.42,6.67,1.16,10.01,1.77,.15,.52,.29,1.04,.44,1.56-3.09,2.34-6.1,4.78-9.29,6.98-2.42,1.67-3.63,3.31-2.86,6.58,.89,3.75,.86,7.73,1.23,11.6-.44,.29-.89,.59-1.33,.88Z"/>
  <path class="cls-1" d="M307.52,340.09c-8.23,4.22-11.56,10.34-7.18,19.44-.63,.01-1.26,.02-1.89,.03-3.25-2.01-6.39-5.37-9.77-5.65-3.22-.26-6.71,2.7-11.15,4.11,4.78-8.54,2.97-15.24-5.4-20.35,.4-.36,.81-.73,1.21-1.09,3.67-.31,7.91,.4,10.86-1.23,2.77-1.52,4.18-5.52,6.5-8.87,1.97,3.79,2.94,7.98,5.58,10.07,2.47,1.95,6.7,1.68,10.16,2.39,.36,.38,.72,.77,1.07,1.15Z"/>
  <path class="cls-1" d="M252.36,129.81c4.23,0,8.52-.44,12.68,.1,6.58,.86,10.14-1.86,12.17-7.93,1.16-3.48,3.23-6.65,4.9-9.97,.52,.04,1.04,.07,1.56,.11,1.6,4.45,3.56,8.82,4.7,13.39,1.11,4.41,3.87,5.69,7.88,6.06,5.03,.47,10.03,1.23,15.04,1.86,.16,.52,.32,1.03,.48,1.55-4.11,3.24-8.07,6.68-12.36,9.66-3.69,2.57-4.66,5.47-3.47,9.81,1.33,4.87,1.93,9.94,2.85,14.92-.43,.3-.87,.6-1.3,.89-4.49-3.28-9.1-6.4-13.43-9.88-2.64-2.13-4.81-2.13-7.61-.38-4.7,2.95-9.62,5.55-14.44,8.3-.39-.33-.78-.65-1.17-.98,1.07-4.09,1.65-8.41,3.33-12.23,2.68-6.07,1.04-10.35-3.79-14.34-3.14-2.6-5.77-5.83-8.63-8.77,.21-.73,.42-1.46,.63-2.18Z"/>
  <path class="cls-1" d="M366.88,240.13c-14.27,.2-14.7-.44-9.1-11.21,1.33-2.55,2.74-5.05,4.12-7.58l1.78,.26c1.05,6.07,2.1,12.15,3.21,18.53Z"/>
  <path class="cls-1" d="M269.68,232.22c2.67-6.55,4.97-12.2,7.28-17.86h1.84c1.56,5.43,3.21,10.85,4.53,16.36,.13,.55-1.79,2.25-2.78,2.27-3.11,.08-6.24-.39-10.86-.77Z"/>
  <path class="cls-1" d="M440.65,236.63c.43,5.52,.96,11.03,1.16,16.55,.02,.63-1.87,2.01-2.68,1.88-3.36-.56-6.64-1.56-11.24-2.73,4-5.91,7.42-10.96,10.83-16l1.92,.31Z"/>
  <path class="cls-1" d="M407.84,242.06c-.78-.16-1.91-.41-3.06-.62-11.84-2.16-12.6-3.37-8.46-14.77,.45-1.23,2.58-2.75,3.76-2.62,3.94,.43,7.9,1.26,11.67,2.47,4.18,1.34,6.1,4.46,5.08,8.96-1.02,4.52-4.1,6.85-9,6.58Z"/>
</svg>