<?xml version="1.0" encoding="UTF-8" standalone="no"?>
<!-- Generator: Adobe Illustrator 19.2.1, SVG Export Plug-In . SVG Version: 6.00 Build 0)  -->

<svg
   version="1.1"
   id="Layer_1"
   x="0px"
   y="0px"
   width="316"
   height="316"
   viewBox="0 0 409.5 409.5"
   style="enable-background:new 0 0 409.5 409.5;"
   xml:space="preserve"
   sodipodi:docname="logo jsk.svg"
   inkscape:version="1.3 (0e150ed6c4, 2023-07-21)"
   xmlns:inkscape="http://www.inkscape.org/namespaces/inkscape"
   xmlns:sodipodi="http://sodipodi.sourceforge.net/DTD/sodipodi-0.dtd"
   xmlns:xlink="http://www.w3.org/1999/xlink"
   xmlns="http://www.w3.org/2000/svg"
   xmlns:svg="http://www.w3.org/2000/svg"><defs
   id="defs51"><polygon
     id="XMLID_47_"
     points="100.1,45.1 97.5,52.8 89.4,52.9 96,57.7 93.6,65.3 100.1,60.5 106.6,65.3 104.2,57.7 110.8,52.9 102.6,52.8 " /><polygon
     id="XMLID_46_"
     points="114.7,7.3 112.1,15 104,15.1 110.6,19.9 108.2,27.6 114.7,22.8 121.2,27.6 118.8,19.9 125.4,15.1 117.2,15 " /><polygon
     id="XMLID_45_"
     points="139.8,15.9 137.2,23.6 129.1,23.6 135.7,28.4 133.2,36.1 139.8,31.3 146.3,36.1 143.9,28.5 150.4,23.6 142.3,23.6 " /><polygon
     id="XMLID_44_"
     points="162.8,32.7 160.2,40.4 152.1,40.5 158.7,45.3 156.3,53 162.8,48.2 169.3,53 166.9,45.3 173.5,40.5 165.3,40.4 " /><polygon
     id="XMLID_43_"
     points="86.7,7.1 84.1,14.8 76,14.9 82.6,19.7 80.2,27.3 86.7,22.5 93.3,27.3 90.8,19.7 97.4,14.9 89.3,14.8 " /><polygon
     id="XMLID_42_"
     points="61.7,15.9 59.1,23.6 51,23.6 57.6,28.4 55.1,36.1 61.7,31.3 68.2,36.1 65.8,28.5 72.4,23.6 64.2,23.6 " /><polygon
     id="XMLID_41_"
     points="38.8,32.7 36.3,40.4 28.2,40.5 34.8,45.3 32.3,53 38.8,48.2 45.4,53 42.9,45.3 49.5,40.5 41.4,40.4 " /></defs><sodipodi:namedview
   id="namedview51"
   pagecolor="#ffffff"
   bordercolor="#000000"
   borderopacity="0.25"
   inkscape:showpageshadow="2"
   inkscape:pageopacity="0.0"
   inkscape:pagecheckerboard="0"
   inkscape:deskcolor="#d1d1d1"
   inkscape:zoom="1.3058258"
   inkscape:cx="158.13747"
   inkscape:cy="150.47948"
   inkscape:window-width="1366"
   inkscape:window-height="705"
   inkscape:window-x="-8"
   inkscape:window-y="-8"
   inkscape:window-maximized="1"
   inkscape:current-layer="Layer_1" />&#10;<style
   type="text/css"
   id="style1">&#10;	.st0{fill:#00285E;}&#10;	.st1{fill:#FFFFFF;}&#10;	.st2{fill:#6CADDF;}&#10;	.st3{fill-rule:evenodd;clip-rule:evenodd;fill:#00285E;}&#10;	.st4{fill-rule:evenodd;clip-rule:evenodd;fill:#97C1E7;}&#10;	.st5{fill-rule:evenodd;clip-rule:evenodd;fill:#FFFFFF;}&#10;	.st6{fill:#FFC758;}&#10;	.st7{fill:#EE3124;}&#10;	.st8{fill:#D4A11E;}&#10;	.st9{fill-rule:evenodd;clip-rule:evenodd;fill:#FFC758;}&#10;	.st10{fill-rule:evenodd;clip-rule:evenodd;fill:#D4A11E;}&#10;</style>&#10;&#10;<g
   id="g46"
   transform="matrix(2.0681818,0,0,2.0681818,-1.6545518,-2.4818119)">&#10;	<circle
   class="st5"
   cx="99.800003"
   cy="100.2"
   r="99"
   id="circle2"
   style="fill:#ffdd12" />&#10;	<path
   class="st6"
   d="m 91.4,176.8 2.1,-0.7 c 0,0 2.9,5.6 6.3,6.1 l 0.3,-6.6 0.7,0.8 -0.1,5.9 c 0,0 3.8,1 7.7,-5.1 l 1.6,-0.5 c 0,0 -3,7.2 -9.3,7.3 v 4.5 c 0,0 4.6,-0.2 10.1,7 l -2.2,1 c 0,0 -3.6,-5.5 -8,-6.2 l -0.2,5.7 -1.2,-1.3 0.3,-4.4 c 0,0 -4.9,-0.4 -8.5,5.6 l -1,0.1 c 0,0 1.7,-6.9 9.5,-7.5 l 0.3,-4.6 c 0,-0.1 -5.5,-0.3 -8.4,-7.1 z"
   id="path2"
   style="fill:#00973a" />&#10;	<g
   id="g4">&#10;		<path
   class="st7"
   d="m 169.3,101.3 c 0,-15.9 -5.4,-30.5 -14.5,-42.2 v 84.4 c 9.1,-11.6 14.5,-26.3 14.5,-42.2 z"
   id="path3"
   style="fill:#ffdd00" />&#10;		<path
   class="st7"
   d="m 154,145.8 v -89 l 1.4,1.8 C 165,71 170,85.7 170,101.3 c 0,15.6 -5.1,30.4 -14.6,42.7 z m 1.6,-84.3 v 79.7 c 8.4,-11.6 12.9,-25.4 12.9,-39.9 0,-14.5 -4.5,-28.2 -12.9,-39.8 z"
   id="path4"
   style="fill:#ffdd00" />&#10;	</g>&#10;	<g
   id="g6">&#10;		<path
   class="st7"
   d="m 111.2,33.3 v 136 c 7.6,-1.2 14.9,-3.7 21.4,-7.2 V 40.5 C 126,37 118.8,34.5 111.2,33.3 Z"
   id="path5"
   style="fill:#ffdd00" />&#10;		<path
   class="st7"
   d="M 110.4,170.3 V 32.4 l 0.9,0.1 c 7.6,1.2 14.9,3.6 21.7,7.2 l 0.4,0.2 v 122.7 l -0.4,0.2 c -6.8,3.6 -14.1,6 -21.7,7.2 z M 112,34.2 v 134.2 c 6.9,-1.2 13.6,-3.4 19.9,-6.7 V 40.9 c -6.3,-3.2 -13,-5.5 -19.9,-6.7 z"
   id="path6"
   style="fill:#ffdd00" />&#10;	</g>&#10;	<g
   id="g8">&#10;		<path
   class="st7"
   d="m 31.5,101.3 c 0,15.9 5.4,30.5 14.5,42.2 V 59.1 C 36.9,70.8 31.5,85.4 31.5,101.3 Z"
   id="path7"
   style="fill:#ffdd00" />&#10;		<path
   class="st7"
   d="M 46.8,145.8 45.4,144 C 35.8,131.7 30.8,116.9 30.8,101.3 30.8,85.7 35.8,71 45.4,58.6 l 1.4,-1.8 z M 45.2,61.5 c -8.4,11.6 -12.9,25.4 -12.9,39.9 0,14.5 4.4,28.2 12.9,39.9 z"
   id="path8"
   style="fill:#ffdd00" />&#10;	</g>&#10;	<g
   id="g10">&#10;		<path
   class="st7"
   d="m 68.2,40.5 v 121.7 c 6.4,3.4 13.4,5.8 20.8,7.1 V 33.4 c -7.4,1.2 -14.4,3.7 -20.8,7.1 z"
   id="path9"
   style="fill:#ffdd00" />&#10;		<path
   class="st7"
   d="M 89.8,170.2 88.9,170 c -7.4,-1.2 -14.5,-3.6 -21.1,-7.1 l -0.4,-0.2 V 40 l 0.4,-0.2 c 6.6,-3.5 13.7,-5.9 21.1,-7.1 l 0.9,-0.2 V 170.2 Z M 69,161.7 c 6.1,3.2 12.5,5.4 19.3,6.6 V 34.3 C 81.5,35.6 75,37.8 69,40.9 Z"
   id="path10"
   style="fill:#ffdd00" />&#10;	</g>&#10;	<g
   id="g12">&#10;		<path
   class="st6"
   d="m 46,59.1 v 84.4 c 6,7.7 13.5,14.1 22.2,18.7 V 40.5 C 59.5,45.1 52,51.4 46,59.1 Z"
   id="path11"
   style="fill:#00973a" />&#10;		<path
   class="st6"
   d="m 69,163.5 -1.2,-0.6 C 59.1,158.3 51.4,151.8 45.4,144 l -0.2,-0.2 v -85 l 0.2,-0.2 c 6,-7.8 13.8,-14.3 22.4,-18.9 L 69,39.1 Z M 46.8,143.3 c 5.6,7.1 12.7,13.2 20.6,17.6 V 41.8 c -7.9,4.4 -15,10.5 -20.6,17.6 z"
   id="path12"
   style="fill:#00973a" />&#10;	</g>&#10;	<g
   id="g14">&#10;		<path
   class="st6"
   d="m 100.4,32.5 c -3.9,0 -7.7,0.3 -11.4,0.9 v 135.8 c 3.7,0.6 7.5,0.9 11.4,0.9 3.7,0 7.3,-0.3 10.8,-0.8 v -136 c -3.5,-0.5 -7.1,-0.8 -10.8,-0.8 z"
   id="path13"
   style="fill:#00973a" />&#10;		<path
   class="st6"
   d="m 100.4,171 c -3.8,0 -7.7,-0.3 -11.5,-1 l -0.7,-0.1 V 32.7 l 0.7,-0.1 c 7.4,-1.2 15,-1.3 22.4,-0.1 l 0.7,0.1 V 170 l -0.7,0.1 c -3.6,0.6 -7.3,0.9 -10.9,0.9 z m -10.6,-2.4 c 6.8,1.1 13.8,1.1 20.6,0.1 V 34 c -6.8,-1 -13.8,-1 -20.6,0.1 z"
   id="path14"
   style="fill:#00973a" />&#10;	</g>&#10;	<g
   id="g16">&#10;		<path
   class="st6"
   d="M 154.8,143.5 V 59.1 C 148.8,51.4 141.3,45 132.6,40.4 v 121.7 c 8.7,-4.5 16.2,-10.9 22.2,-18.6 z"
   id="path15"
   style="fill:#00973a" />&#10;		<path
   class="st6"
   d="M 131.8,163.5 V 39.2 l 1.2,0.6 c 8.7,4.6 16.4,11.1 22.4,18.9 l 0.2,0.2 v 85 l -0.2,0.2 c -6,7.8 -13.8,14.3 -22.4,18.9 z m 1.6,-121.7 v 119.1 c 7.9,-4.4 15,-10.5 20.6,-17.6 V 59.4 C 148.4,52.3 141.3,46.2 133.4,41.8 Z"
   id="path16"
   style="fill:#00973a" />&#10;	</g>&#10;	<path
   class="st5"
   d="M 141,119.8 H 58.6 c -3.9,0 -7.1,-3.2 -7.1,-7.1 V 87.6 c 0,-3.9 3.2,-7.1 7.1,-7.1 H 141 c 3.9,0 7.1,3.2 7.1,7.1 v 25.2 c 0,3.8 -3.2,7 -7.1,7 z"
   id="path17"
   style="fill:#ffdd12" />&#10;	<path
   class="st6"
   d="M 141,120.5 H 58.6 c -4.3,0 -7.8,-3.5 -7.8,-7.8 V 87.6 c 0,-4.3 3.5,-7.8 7.8,-7.8 H 141 c 4.3,0 7.8,3.5 7.8,7.8 v 25.2 c 0,4.2 -3.5,7.7 -7.8,7.7 z M 58.6,81.2 c -3.5,0 -6.3,2.8 -6.3,6.3 v 25.2 c 0,3.5 2.8,6.3 6.3,6.3 H 141 c 3.5,0 6.3,-2.8 6.3,-6.3 V 87.6 c 0,-3.5 -2.8,-6.3 -6.3,-6.3 H 58.6 Z"
   id="path18"
   style="fill:#00973a" />&#10;	<polygon
   class="st6"
   points="74.3,110.8 74.3,109.3 71.3,109.3 71.3,92.2 74.3,92.2 74.3,90.7 65.6,90.7 65.6,92.3 68.5,92.3 68.5,108.6 65.6,108.6 65.6,110.8 "
   id="polygon18"
   style="fill:#00973a" />&#10;	<polygon
   class="st6"
   points="134.6,110.6 127.3,100.3 133.4,90.7 116.4,90.7 116.4,110.6 119.9,110.6 125.3,102.8 131.2,110.6 "
   id="polygon19"
   style="fill:#00973a" />&#10;	<polygon
   class="st7"
   points="119.1,108.4 130.4,91.9 119.1,91.9 "
   id="polygon20"
   style="fill:#ffdd00" />&#10;	&#10;		<ellipse
   transform="matrix(0.7071,-0.7071,0.7071,0.7071,-43.0247,96.6349)"
   class="st6"
   cx="95.099998"
   cy="100.3"
   rx="10.5"
   ry="9.6000004"
   id="ellipse20"
   style="fill:#00973a" />&#10;	<ellipse
   class="st7"
   cx="95.300003"
   cy="100.3"
   rx="7.5999999"
   ry="9.1000004"
   id="ellipse21"
   style="fill:#ffdd00" />&#10;	<ellipse
   transform="matrix(0.7071,-0.7071,0.7071,0.7071,-43.0247,96.6349)"
   class="st6"
   cx="95.099998"
   cy="100.3"
   rx="2.5999999"
   ry="2.4000001"
   id="ellipse22"
   style="fill:#00973a" />&#10;	<g
   id="g23">&#10;		<defs
   id="defs22">&#10;			<polygon
   id="polygon51"
   points="97.5,52.8 89.4,52.9 96,57.7 93.6,65.3 100.1,60.5 106.6,65.3 104.2,57.7 110.8,52.9 102.6,52.8 100.1,45.1 " />&#10;		</defs>&#10;		<use
   xlink:href="#XMLID_47_"
   style="overflow:visible;fill:#ffdd12"
   id="use22" />&#10;		<clipPath
   id="XMLID_2_">&#10;			<use
   xlink:href="#XMLID_47_"
   style="overflow:visible"
   id="use23" />&#10;		</clipPath>&#10;	</g>&#10;	<g
   id="g25">&#10;		<defs
   id="defs23">&#10;			<polygon
   id="polygon52"
   points="112.1,15 104,15.1 110.6,19.9 108.2,27.6 114.7,22.8 121.2,27.6 118.8,19.9 125.4,15.1 117.2,15 114.7,7.3 " />&#10;		</defs>&#10;		<use
   xlink:href="#XMLID_46_"
   style="overflow:visible;fill:#00973a"
   id="use24" />&#10;		<clipPath
   id="XMLID_3_">&#10;			<use
   xlink:href="#XMLID_46_"
   style="overflow:visible"
   id="use25" />&#10;		</clipPath>&#10;	</g>&#10;	<g
   id="g27">&#10;		<defs
   id="defs25">&#10;			<polygon
   id="polygon53"
   points="137.2,23.6 129.1,23.6 135.7,28.4 133.2,36.1 139.8,31.3 146.3,36.1 143.9,28.5 150.4,23.6 142.3,23.6 139.8,15.9 " />&#10;		</defs>&#10;		<use
   xlink:href="#XMLID_45_"
   style="overflow:visible;fill:#00973a"
   id="use26" />&#10;		<clipPath
   id="XMLID_4_">&#10;			<use
   xlink:href="#XMLID_45_"
   style="overflow:visible"
   id="use27" />&#10;		</clipPath>&#10;	</g>&#10;	<g
   id="g29">&#10;		<defs
   id="defs27">&#10;			<polygon
   id="polygon54"
   points="160.2,40.4 152.1,40.5 158.7,45.3 156.3,53 162.8,48.2 169.3,53 166.9,45.3 173.5,40.5 165.3,40.4 162.8,32.7 " />&#10;		</defs>&#10;		<use
   xlink:href="#XMLID_44_"
   style="overflow:visible;fill:#00973a"
   id="use28" />&#10;		<clipPath
   id="XMLID_5_">&#10;			<use
   xlink:href="#XMLID_44_"
   style="overflow:visible"
   id="use29" />&#10;		</clipPath>&#10;	</g>&#10;	<g
   id="g31">&#10;		<defs
   id="defs29">&#10;			<polygon
   id="polygon55"
   points="84.1,14.8 76,14.9 82.6,19.7 80.2,27.3 86.7,22.5 93.3,27.3 90.8,19.7 97.4,14.9 89.3,14.8 86.7,7.1 " />&#10;		</defs>&#10;		<use
   xlink:href="#XMLID_43_"
   style="overflow:visible;fill:#00973a"
   id="use30" />&#10;		<clipPath
   id="XMLID_6_">&#10;			<use
   xlink:href="#XMLID_43_"
   style="overflow:visible"
   id="use31" />&#10;		</clipPath>&#10;	</g>&#10;	<g
   id="g33">&#10;		<defs
   id="defs31">&#10;			<polygon
   id="polygon56"
   points="59.1,23.6 51,23.6 57.6,28.4 55.1,36.1 61.7,31.3 68.2,36.1 65.8,28.5 72.4,23.6 64.2,23.6 61.7,15.9 " />&#10;		</defs>&#10;		<use
   xlink:href="#XMLID_42_"
   style="overflow:visible;fill:#00973a"
   id="use32" />&#10;		<clipPath
   id="XMLID_7_">&#10;			<use
   xlink:href="#XMLID_42_"
   style="overflow:visible"
   id="use33" />&#10;		</clipPath>&#10;	</g>&#10;	<g
   id="g35">&#10;		<defs
   id="defs33">&#10;			<polygon
   id="polygon57"
   points="36.3,40.4 28.2,40.5 34.8,45.3 32.3,53 38.8,48.2 45.4,53 42.9,45.3 49.5,40.5 41.4,40.4 38.8,32.7 " />&#10;		</defs>&#10;		<use
   xlink:href="#XMLID_41_"
   style="overflow:visible;fill:#00973a"
   id="use34" />&#10;		<clipPath
   id="XMLID_8_">&#10;			<use
   xlink:href="#XMLID_41_"
   style="overflow:visible"
   id="use35" />&#10;		</clipPath>&#10;	</g>&#10;	<path
   class="st6"
   d="m 100.4,171.2 c -38.5,0 -69.9,-31.4 -69.9,-69.9 0,-38.5 31.4,-69.9 69.9,-69.9 38.5,0 69.9,31.4 69.9,69.9 0,38.5 -31.4,69.9 -69.9,69.9 z m 0,-138.3 C 62.7,32.9 32,63.6 32,101.3 c 0,37.7 30.7,68.4 68.4,68.4 37.7,0 68.4,-30.7 68.4,-68.4 0,-37.7 -30.7,-68.4 -68.4,-68.4 z"
   id="path35"
   style="fill:#00973a" />&#10;	<g
   id="g41">&#10;		<g
   id="g40">&#10;			<path
   class="st6"
   d="m 137.3,169.9 c 0,0 0,0 0,0 0.1,0 0.1,0 0.1,0 0.1,0.2 0.1,0.3 0.2,0.5 0,0.1 0,0.1 -0.1,0.1 -0.7,0.3 -1,0.5 -1.7,0.8 -0.1,0 -0.1,0.1 -0.1,0.1 1.4,4 2.1,5.9 3.6,9.9 0.5,1.4 0.6,2.5 0.4,3.5 -0.3,1.3 -1.4,2.6 -3.4,3.8 -0.1,0 -0.1,0 -0.2,0 -0.2,-0.1 -0.3,-0.2 -0.4,-0.3 0,0 0,0 -0.1,0 -0.1,0 0,-0.1 0,-0.1 0.8,-0.7 1.3,-1.2 1.6,-1.6 0.5,-0.8 0.6,-1.7 0.4,-2.9 -0.1,-0.4 -0.2,-0.9 -0.4,-1.4 -1.3,-4 -1.9,-6.1 -3.2,-10.1 0,-0.1 -0.1,-0.1 -0.1,-0.1 -0.7,0.2 -1.1,0.2 -1.8,0.4 -0.1,0 -0.1,0 -0.1,-0.1 -0.1,-0.2 -0.1,-0.3 -0.1,-0.5 0,-0.1 0,-0.1 0.1,-0.1 2.2,-0.7 3.2,-1 5.3,-1.9 z"
   id="path36"
   style="fill:#00973a" />&#10;			<path
   class="st6"
   d="m 145.2,179.2 c 0.6,-0.3 1.1,-0.3 1.6,0 0.1,0.1 0.2,0.2 0.3,0.4 0.1,0.3 0.1,0.6 0,0.9 -0.2,0.4 -0.5,0.6 -0.8,0.8 -0.4,0.2 -0.8,0.2 -1.1,0.2 -0.4,-0.1 -0.6,-0.3 -0.8,-0.6 -0.1,-0.3 -0.1,-0.6 0.1,-1 0.1,-0.3 0.4,-0.5 0.7,-0.7 z"
   id="path37"
   style="fill:#00973a" />&#10;			<path
   class="st6"
   d="m 151.2,165.9 c -0.1,0 -0.1,0 -0.1,0 -0.7,-0.6 -1.1,-0.9 -1.8,-1.6 0,0 -0.1,0 -0.1,0 -0.6,0.2 -1.3,0.4 -1.8,0.9 -0.6,0.4 -1,0.9 -1.3,1.5 -0.3,0.7 -0.2,1.3 0.1,1.9 0.3,0.6 0.9,0.9 1.6,1 0.5,0.1 1.2,0 2,-0.2 0.6,-0.1 1,-0.2 1.6,-0.4 1.3,-0.3 2.2,-0.5 3,-0.5 0.9,0 1.7,0.4 2.3,1.1 0.9,1.1 1.1,2.3 0.5,3.7 -0.5,1.3 -1.6,2.5 -3.2,3.6 -0.8,0.5 -1.8,1 -3,1.5 -0.3,0.1 -0.6,0.2 -0.9,0.3 -0.1,0 -0.1,0 -0.2,0 -0.6,-1.1 -0.9,-1.6 -1.5,-2.7 0,-0.1 0,-0.1 0.1,-0.1 0.4,-0.2 0.5,-0.3 0.9,-0.5 0.1,0 0.1,0 0.1,0 0.7,0.7 1,1 1.6,1.7 0,0 0,0 0.1,0 0,0 0.1,0 0.1,0 0.7,-0.1 1.5,-0.5 2.4,-1.1 0.9,-0.6 1.5,-1.3 1.9,-2.1 0.4,-0.9 0.3,-1.6 -0.2,-2.2 -0.7,-0.9 -2,-1 -3.8,-0.6 -0.7,0.2 -1,0.2 -1.7,0.4 -1.2,0.3 -2.2,0.3 -2.9,0.2 -1,-0.2 -1.6,-0.6 -2.1,-1.4 -0.4,-0.7 -0.5,-1.6 -0.4,-2.4 0.1,-0.8 0.5,-1.6 1.1,-2.3 0.4,-0.4 0.8,-0.8 1.3,-1.2 0.7,-0.5 1.4,-0.9 2.2,-1.3 0.2,-0.1 0.5,-0.2 0.7,-0.3 0.1,0 0.1,0 0.1,0 0.8,1 1.2,1.4 1.9,2.4 0,0.1 0,0.1 0,0.1 -0.2,0.3 -0.3,0.4 -0.6,0.6 z"
   id="path38"
   style="fill:#00973a" />&#10;			<path
   class="st6"
   d="m 160.9,168.4 c 0.5,-0.5 1,-0.6 1.5,-0.5 0.2,0 0.3,0.1 0.4,0.2 0.2,0.2 0.3,0.5 0.2,0.9 -0.1,0.4 -0.2,0.7 -0.5,1 -0.3,0.3 -0.7,0.5 -1,0.5 -0.4,0 -0.7,-0.1 -0.9,-0.3 -0.2,-0.2 -0.3,-0.6 -0.2,-0.9 0,-0.3 0.2,-0.6 0.5,-0.9 z"
   id="path39"
   style="fill:#00973a" />&#10;			<path
   class="st6"
   d="m 155.4,157.5 c 0,0 -0.1,-0.1 0,-0.1 1.4,-1.5 2,-2.3 3.2,-4 0,-0.1 0.1,-0.1 0.1,0 0.2,0.1 0.3,0.2 0.4,0.3 0,0 0,0.1 0,0.1 -0.3,0.5 -0.4,0.8 -0.7,1.3 0,0 0,0.1 0,0.1 1.8,1.4 2.6,2 4.4,3.4 -0.3,-3.2 -0.6,-4.8 -1.4,-7.7 0,0 0,-0.1 -0.1,-0.1 0,0 -0.1,0 -0.1,0 -0.2,0.3 -0.3,0.4 -0.6,0.7 0,0.1 -0.1,0.1 -0.1,0 -0.2,-0.1 -0.3,-0.2 -0.4,-0.3 -0.1,0 -0.1,-0.1 0,-0.1 0.9,-1.4 1.4,-2.2 2.2,-3.7 0,-0.1 0.1,-0.1 0.1,0 0.2,0.1 0.3,0.1 0.5,0.2 0.1,0 0.1,0.1 0,0.1 -0.3,0.8 -0.5,1.1 -0.8,1.9 0,0 0,0 0,0.1 0.7,2.5 1,3.8 1.4,6.5 0,0 0,0.1 0,0.1 0,0 0,0 0.1,0 3.7,-0.3 5.6,-0.7 9.3,-1.7 0,0 0.1,0 0.1,0 0.5,-0.8 0.8,-1.2 1.3,-2.1 0,-0.1 0.1,-0.1 0.2,-0.1 0.2,0.1 0.3,0.1 0.5,0.2 0.1,0 0.1,0.1 0,0.2 -1.2,2.5 -1.9,3.7 -3.4,5.9 0,0.1 -0.1,0.1 -0.2,0.1 -0.2,-0.1 -0.3,-0.2 -0.4,-0.3 -0.1,0 -0.1,-0.1 0,-0.2 0.2,-0.4 0.3,-0.6 0.6,-1 0,0 0,-0.1 0,-0.1 0,0 -0.1,-0.1 -0.1,-0.1 -3.1,0.7 -4.6,0.9 -7.5,1.1 0,0 -0.1,0 -0.1,0 0,0 0,0.1 0,0.1 0,0.4 0.1,0.6 0.1,1 0,0 0,0 0,0.1 1.5,1.2 2.3,1.8 3.8,3 0.1,0 0.1,0 0.1,0 0.5,-0.5 0.7,-0.8 1.2,-1.3 0,-0.1 0.1,-0.1 0.1,0 0.2,0.1 0.3,0.2 0.5,0.3 0.1,0 0.1,0.1 0,0.2 -1.5,2.1 -2.4,3.1 -4.1,5.1 -0.1,0.1 -0.1,0.1 -0.2,0 -0.2,-0.1 -0.2,-0.2 -0.4,-0.4 -0.1,0 -0.1,-0.1 0,-0.2 0.5,-0.7 0.8,-1 1.3,-1.7 0.1,-0.1 0.1,-0.1 0,-0.2 -3.6,-3 -5.4,-4.5 -9,-7.6 -0.1,0 -0.1,0 -0.1,0 -0.5,0.5 -0.7,0.7 -1.3,1.2 0,0.1 -0.1,0.1 -0.1,0 -0.2,-0.1 -0.3,-0.2 -0.4,-0.3 z"
   id="path40"
   style="fill:#00973a" />&#10;		</g>&#10;	</g>&#10;	<g
   id="g45">&#10;		<g
   id="g44">&#10;			<path
   class="st6"
   d="m 45.9,154.9 c 0,0 0,0.1 0,0.1 -4.5,3.2 -6.7,4.8 -11.1,8 -0.1,0 -0.1,0.1 0,0.2 0.5,0.7 0.7,1.1 1.2,1.8 0,0.1 0,0.1 0,0.1 -0.2,0.1 -0.3,0.2 -0.5,0.4 0,0 -0.1,0 -0.1,0 -1.7,-2.2 -2.5,-3.4 -4,-5.8 0,-0.1 0,-0.1 0,-0.1 0.2,-0.1 0.3,-0.2 0.5,-0.3 0,0 0.1,0 0.1,0 0.5,0.8 0.8,1.1 1.4,1.9 0,0 0,0.1 0.1,0.1 0,0 0.1,0 0.1,0 3.9,-2.6 5.9,-3.9 9.8,-6.5 0.1,0 0.1,-0.1 0.1,-0.2 -0.6,-0.6 -0.9,-1 -1.4,-1.7 0,0 0,-0.1 0,-0.1 0.2,-0.2 0.3,-0.2 0.4,-0.4 0,0 0,0 0,0 0,0 0,0 0.1,0 1.2,0.9 1.8,1.3 3,2 0,0 0.1,0.1 0.1,0.1 0.1,0.2 0.1,0.2 0.2,0.4 z"
   id="path41"
   style="fill:#00973a" />&#10;			<path
   class="st6"
   d="m 44.3,170.6 c 0.4,-0.1 0.9,-0.2 1.5,-0.5 0.5,-0.2 1.1,-0.5 1.7,-0.9 -0.9,-0.2 -1.8,-0.6 -2.5,-1.3 -1.1,-1 -1.6,-2.1 -1.5,-3.3 0,-1.2 0.6,-2.2 1.6,-3.1 0.8,-0.7 1.6,-1.1 2.5,-1.3 0.9,-0.2 1.8,-0.2 2.6,0.1 0.5,0.2 1,0.5 1.5,0.9 1,0.9 1.4,2 1.3,3.4 -0.1,1.3 -0.6,2.5 -1.5,3.8 -1.6,2.1 -3.7,3.5 -6.4,3.8 -2.3,0.3 -4.6,-0.5 -6.8,-2.5 -0.1,-0.1 -0.1,-0.1 0,-0.2 0.2,-0.2 0.3,-0.3 0.4,-0.6 0,0 0.1,0 0.2,0 1.4,1.1 2.7,1.6 3.9,1.7 0.6,0.1 1.1,0.1 1.5,0 z m 4.1,-2.1 c 0.4,-0.3 0.5,-0.5 0.9,-0.8 0.3,-0.3 0.6,-0.6 0.8,-0.9 0.5,-0.5 0.8,-1.2 1,-1.8 0.3,-0.7 0.4,-1.4 0.3,-2 -0.1,-0.4 -0.2,-0.8 -0.6,-1.1 -0.5,-0.5 -1.2,-0.6 -1.9,-0.4 -0.7,0.2 -1.3,0.6 -2,1.3 -0.8,0.8 -1.3,1.6 -1.4,2.4 -0.1,0.9 0.2,1.7 1,2.4 0.4,0.4 0.9,0.7 1.4,0.9 0.2,-0.1 0.4,0 0.5,0 z"
   id="path42"
   style="fill:#00973a" />&#10;			<path
   class="st6"
   d="m 54.9,177.1 c 0,-0.1 0,-0.1 -0.1,-0.2 -2.2,-1.2 -3.3,-1.9 -5.3,-3.3 0,0 0,0 0,0 0,0 0,0 0,0 0,-0.2 0.1,-0.3 0.1,-0.5 0,0 0,-0.1 0.1,-0.1 4.9,-1.5 7.2,-2.6 11.3,-5.1 0,0 0.1,0 0.1,0 0.2,0.1 0.3,0.2 0.5,0.3 0,0 0.1,0.1 0,0.1 -1.6,3.2 -2.4,4.9 -4,8.1 0,0.1 0,0.1 0.1,0.2 0.7,0.4 1.1,0.5 1.9,0.9 0.1,0 0.1,0.1 0,0.1 -0.2,0.5 -0.3,0.8 -0.6,1.3 0,0.1 -0.1,0.1 -0.1,0 -0.8,-0.3 -1.2,-0.5 -1.9,-0.9 -0.1,0 -0.2,0 -0.2,0 -0.5,1 -0.8,1.5 -1.3,2.6 0,0.1 0,0.1 0.1,0.2 0.6,0.3 0.9,0.5 1.4,0.9 0.1,0 0.1,0.1 0.1,0.1 -0.1,0.2 -0.1,0.3 -0.2,0.5 0,0.1 -0.1,0.1 -0.1,0 -2.2,-1 -3.3,-1.6 -5.3,-2.8 -0.1,0 -0.1,-0.1 -0.1,-0.1 0.1,-0.2 0.2,-0.3 0.3,-0.5 0,-0.1 0.1,-0.1 0.1,0 0.7,0.3 1,0.5 1.7,0.8 0.1,0 0.2,0 0.2,0 0.3,-1.1 0.6,-1.6 1.2,-2.6 z m -3.1,-3.8 c 1.4,1 2.2,1.4 3.7,2.2 0.1,0 0.1,0 0.2,-0.1 1.2,-2.1 1.8,-3.2 2.9,-5.4 -2.5,1.5 -3.9,2.2 -6.8,3.3 z"
   id="path43"
   style="fill:#00973a" />&#10;			<path
   class="st6"
   d="m 64.1,176.2 c 1,-0.1 1.9,-0.1 2.7,0.1 1.3,0.4 2.3,1.1 3,2.1 0.7,1 0.9,2.2 0.6,3.5 -0.3,1.4 -1,2.5 -2.2,3.1 -1.3,0.7 -2.8,0.8 -4.5,0.3 -1.8,-0.5 -3,-1.6 -3.5,-3 -0.5,-1.3 -0.4,-2.7 0.2,-4.1 1,-2.5 2.8,-4.2 4.9,-5.5 1.9,-1.1 3.8,-1.5 5.9,-1.3 0.1,0 0.1,0.1 0.1,0.1 0,0.3 0,0.4 0,0.7 0,0.1 -0.1,0.1 -0.2,0.1 -1.4,0 -2.5,0.2 -3.5,0.6 -0.4,0.2 -0.8,0.4 -1.2,0.7 -0.8,0.7 -1.6,1.5 -2.3,2.6 z m -0.6,1 c -0.5,0.8 -0.8,1.5 -1.1,2.1 -0.2,0.6 -0.3,1.2 -0.3,1.9 0,1.2 0.4,2.1 1.1,2.8 0.3,0.2 0.6,0.4 1,0.5 1,0.3 1.8,0.1 2.5,-0.4 0.5,-0.5 0.9,-1.2 1.2,-2.1 0.3,-1.1 0.2,-2 -0.1,-2.8 -0.4,-0.8 -1.1,-1.4 -2.2,-1.7 -0.3,-0.1 -0.6,-0.2 -1.1,-0.2 -0.3,-0.2 -0.6,-0.2 -1,-0.1 z"
   id="path44"
   style="fill:#00973a" />&#10;		</g>&#10;	</g>&#10;</g></svg>
