<svg enable-background="new 0 0 401.09 602.476" height="602.476" viewBox="0 0 401.09 602.476" width="401.09" xmlns="http://www.w3.org/2000/svg"><path d="m0 0v339.587c0 83.682 83.878 220.968 200.545 262.889 116.666-41.921 200.545-179.207 200.545-262.889v-339.587z" fill="#fdc100"/><path d="m384.041 138.897-362.431 235.457c6.454 26.845 19.495 56.781 37.395 85.356l325.036-211.015c0-34.024 0-73.254 0-109.798z"/><path d="m384.041 17.05c-29.876 0-337.116 0-366.991 0v87.364h366.991c0-43.221 0-77.83 0-87.364z"/><g fill="#fdc100"><path d="m131.967 71.389c0 8.482-3.013 12.723-10.936 12.723-6.696 0-10.826-2.343-10.826-11.606v-41.069h-6.696v41.069c0 10.825 3.013 17.633 18.19 17.633 15.066 0 16.964-9.709 16.964-15.066v-43.636h-6.697v39.952z"/><path d="m158.975 46.391c0-4.798 3.013-9.486 9.709-9.486 5.469 0 9.709 3.014 9.709 10.156h6.695c0-4.799-.669-16.405-16.405-16.405-12.723 0-16.405 8.593-16.405 15.289 0 3.684-1.228 9.709 7.812 13.839 4.91 1.897 9.709 3.683 13.392 4.911 6.696 1.785 6.027 6.026 6.027 9.709 0 6.696-4.129 10.379-10.156 10.379-11.606 0-10.825-8.593-11.606-14.62h-5.916c0 10.268 1.117 20.646 17.521 20.646 8.37 0 17.521-4.241 17.521-18.302.002-19.866-28.345-12.724-27.898-26.116z"/><path d="m68.132 31.437-16.182 57.474h7.143l4.241-16.405h18.19l4.129 16.405h7.478l-15.736-57.474zm-3.013 35.042 7.366-29.574 7.254 29.574z"/><path d="m273.587 67.261c-1.115-6.808-6.473-6.808-9.038-7.478 5.579-.446 11.605-6.027 10.824-13.839-1.115-12.722-9.708-14.508-17.521-14.508h-16.852v57.474h6.696v-25.444h11.605c13.169 0 6.362 16.963 10.825 25.445h7.813v-1.785c-3.012.668-3.681-13.951-4.352-19.865zm-15.734-9.71h-10.155v-20.2h9.04c7.142 0 10.824 2.567 11.494 9.04.445 6.696-3.014 11.16-10.379 11.16z"/><path d="m194.352 38.132h14.954v50.779h6.697v-50.779h14.619v-6.695h-36.27z"/><path d="m290.886 31.437h6.696v57.474h-6.696z"/><path d="m333.407 31.437h-9.264l-16.182 57.474h7.254l4.129-16.405h18.302l4.13 16.405h7.365zm-12.277 35.042 7.477-29.574 7.143 29.574z"/><path d="m77.785 426.981-31.359-48.211 5.58-3.683 28.123 43.189 19.753-12.834 3.237 5.023z"/><path d="m81.133 356.227 22.432 34.484c5.915 9.152 12.052 13.058 24.886 4.8 12.611-8.258 8.816-17.41 5.915-21.762l-23.771-36.717-5.58 3.683 21.762 33.479c4.575 7.255 4.352 12.388-2.233 16.629-5.579 3.683-10.378 4.018-15.401-3.795l-22.431-34.484z"/><path d="m142.737 362.477 5.134-3.348c3.794 4.688 7.923 12.275 17.521 5.915 5.134-3.236 6.584-8.593 2.902-14.174-2.009-3.124-3.683-7.031-10.268-4.91-3.794 1.005-8.816 2.12-13.95 3.235-9.821 1.452-12.165-4.239-14.173-7.365-3.571-5.579-5.134-14.73 5.469-21.762 13.168-8.481 20.088.782 22.767 4.91l-5.692 3.572c-3.906-5.915-9.04-6.25-13.615-3.236-5.692 3.683-5.692 9.15-3.014 13.279 6.92 11.495 26.896-10.043 37.722 6.696 7.589 11.83 2.12 20.311-4.799 24.887-13.84 8.929-20.425.782-26.004-7.699z"/><path d="m157.245 306.789 3.682 5.579 12.612-8.146 27.675 42.631 5.692-3.683-27.788-42.631 12.276-7.923-3.683-5.693z"/><path d="m229.338 328.551-31.36-48.212 24.776-16.182 3.348 5.022-19.419 12.611 9.933 15.289 17.855-11.495 3.237 5.022-17.744 11.607 11.495 17.745 18.861-12.166 3.236 5.022z"/><path d="m264.045 306.008-31.358-48.212 9.149-5.915 43.413 33.815-28.345-43.635 5.579-3.684 31.36 48.324-9.039 5.915-44.083-34.262 28.681 44.194z"/><path d="m303.217 280.562-17.856-57.027 7.813-5.021 44.529 39.729-6.25 4.018-12.389-11.495-15.289 9.932 5.469 15.959zm11.049-33.814-22.209-20.98 9.933 28.904z"/><path d="m314.489 204.674 22.433 34.484c5.914 9.152 12.052 13.058 24.886 4.799 12.499-8.147 8.816-17.298 5.914-21.762l-23.771-36.716-5.579 3.683 21.762 33.591c4.576 7.143 4.352 12.276-2.232 16.517-5.58 3.683-10.378 4.018-15.4-3.794l-22.431-34.485z"/></g><path d="m71.914 478.881c11.666 16.177 24.356 31.026 37.813 44.337 0-23.729 0-49.401 0-76.108l-37.813 24.549z" fill="#fff"/><path d="m109.727 121.464h-37.813v199.877l37.813-24.565c0-65.959 0-128.523 0-175.312z" fill="#fff"/><path d="m54.864 121.464h-37.814v218.123c0 5.283.425 10.859 1.182 16.629l36.632-23.798c0-79.439 0-157.077 0-210.954z" fill="#00803d" stroke="#00803d"/><path d="m236.501 566.344c12.98-7.831 25.643-17.014 37.812-27.417 0-57.691 0-128.55 0-198.668l-37.812 24.548z" fill="#00803d" stroke="#00803d"/><path d="m274.313 121.464h-37.812v92.952l37.812-24.565c0-24.965 0-48.078 0-68.387z" fill="#00803d" stroke="#00803d"/><path d="m219.451 121.464h-37.812v128.593l37.812-24.565c0-38.372 0-73.948 0-104.028z" fill="#fff"/><path d="m181.639 575.75c6.254 3.135 12.562 5.964 18.907 8.454 6.346-2.49 12.652-5.317 18.905-8.454 0-54.726 0-126.444 0-199.874l-37.812 24.547z" fill="#fff"/><path d="m346.224 121.464v21.668l33.354-21.668z" fill="#00803d" stroke="#00803d"/><path d="m346.224 293.574v159.351c23.677-39.773 37.816-81.479 37.816-113.338 0 0 0-29.426 0-70.564z" fill="#00803d" stroke="#00803d"/><path d="m291.363 523.22c13.456-13.312 26.146-28.16 37.812-44.337 0-54.536 0-115.564 0-174.24l-37.812 24.547z" fill="#fff"/><path d="m329.174 121.464h-37.812v57.31l37.812-24.565c0-11.613 0-22.579 0-32.745z" fill="#fff"/><path d="m126.777 538.926c12.169 10.404 24.831 19.587 37.812 27.418 0-43.919 0-98.063 0-154.852l-37.812 24.548z" fill="#00803d" stroke="#00803d"/><path d="m164.589 121.464h-37.812v164.235l37.812-24.564c0-52.155 0-100.799 0-139.671z" fill="#00803d" stroke="#00803d"/></svg>