<?xml version="1.0" encoding="UTF-8" standalone="no"?>
<!-- Created with Inkscape (http://www.inkscape.org/) -->

<svg
   xmlns:dc="http://purl.org/dc/elements/1.1/"
   xmlns:cc="http://creativecommons.org/ns#"
   xmlns:rdf="http://www.w3.org/1999/02/22-rdf-syntax-ns#"
   xmlns:svg="http://www.w3.org/2000/svg"
   xmlns="http://www.w3.org/2000/svg"
   xmlns:sodipodi="http://sodipodi.sourceforge.net/DTD/sodipodi-0.dtd"
   xmlns:inkscape="http://www.inkscape.org/namespaces/inkscape"
   version="1.1"
   id="svg2"
   xml:space="preserve"
   width="179.02321"
   height="252"
   viewBox="0 0 179.02321 251.99999"
   sodipodi:docname="sv-ried.svg"
   inkscape:version="0.92.4 (5da689c313, 2019-01-14)"><metadata
     id="metadata8"><rdf:RDF><cc:Work
         rdf:about=""><dc:format>image/svg+xml</dc:format><dc:type
           rdf:resource="http://purl.org/dc/dcmitype/StillImage" /><dc:title></dc:title></cc:Work></rdf:RDF></metadata><defs
     id="defs6" /><sodipodi:namedview
     pagecolor="#ffffff"
     bordercolor="#666666"
     borderopacity="1"
     objecttolerance="10"
     gridtolerance="10"
     guidetolerance="10"
     inkscape:pageopacity="0"
     inkscape:pageshadow="2"
     inkscape:window-width="1366"
     inkscape:window-height="705"
     id="namedview4"
     showgrid="false"
     fit-margin-top="1"
     fit-margin-bottom="1"
     fit-margin-right="1"
     fit-margin-left="1"
     inkscape:zoom="1.1893046"
     inkscape:cx="328.61524"
     inkscape:cy="152.78823"
     inkscape:window-x="-8"
     inkscape:window-y="-8"
     inkscape:window-maximized="1"
     inkscape:current-layer="g10" /><g
     id="g10"
     inkscape:groupmode="layer"
     inkscape:label="sv-ried-im-innkreis-seeklogo.com"
     transform="matrix(1.3333333,0,0,-1.3333333,-67.571612,360.85221)"><g
       id="g171"
       transform="matrix(0.26856058,0,0,0.26856058,37.616986,60.26268)"><path
         inkscape:connector-curvature="0"
         id="path12"
         style="fill:#231f20;fill-opacity:1;fill-rule:nonzero;stroke:none"
         d="m 92.67871,511.26758 c -23.53418,-4.9751 -41.25,-25.9082 -41.25,-50.90137 V 134.4126 c 0,-28.68604 23.33789,-52.02344 52.02393,-52.02344 h 390.31933 c 28.68604,0 52.02344,23.3374 52.02344,52.02344 v 325.95361 c 0,24.95117 -17.65576,45.85547 -41.12988,50.87647 l -0.11963,0.0215 c -0.14014,71.80518 -21.5166,139.29492 -60.22754,190.1084 -38.90039,51.06201 -90.646,79.1831 -145.70557,79.1831 -55.05859,0 -106.8042,-28.12109 -145.70459,-79.1831 C 114.23633,650.61084 92.86377,583.20703 92.68115,511.48389 l -0.0024,-0.21631 z" /><path
         inkscape:connector-curvature="0"
         id="path14"
         style="fill:#ffffff;fill-opacity:1;fill-rule:nonzero;stroke:none"
         d="m 68.42822,262.26563 70.19043,77.96582 0.0962,0.11376 c 4.43311,-7.13281 9.167,-14.01123 14.19336,-20.60839 38.89991,-51.06104 90.64551,-79.18116 145.70459,-79.18116 55.05957,0 106.80567,28.12012 145.70557,79.18116 35.79394,46.98291 56.76758,108.22509 59.83545,173.95312 l 0.002,0.12842 c 14.2583,-4.43506 24.63965,-17.75391 24.63965,-33.45215 V 134.4126 c 0,-19.31201 -15.71143,-35.02344 -35.02344,-35.02344 H 103.4527 c -19.31201,0 -35.02344,15.71143 -35.02344,35.02344 v 127.69629 l -9.8e-4,0.15674 z" /><path
         inkscape:connector-curvature="0"
         id="path16"
         style="fill:#ffffff;fill-opacity:1;fill-rule:nonzero;stroke:none"
         d="m 94.67969,510.55371 c 0,147.77686 91.48388,268.00195 203.9331,268.00195 112.44922,0 203.9336,-120.22509 203.9336,-268.00195 0,-147.77441 -91.48438,-267.99805 -203.9336,-267.99805 -112.44922,0 -203.9331,120.22364 -203.9331,267.99805 z" /><path
         inkscape:connector-curvature="0"
         id="path18"
         style="fill:#ffffff;fill-opacity:1;fill-rule:nonzero;stroke:none"
         d="M 92.9751,495.88037 C 77.646,491.3501 66.4292,477.14355 66.4292,460.36621 V 134.4126 c 0,-20.41455 16.6084,-37.02344 37.02344,-37.02344 h 390.31933 c 20.41455,0 37.02344,16.60889 37.02344,37.02344 v 325.95361 c 0,16.77881 -11.21973,30.98731 -26.55127,35.51563 l 0.0102,0.11718 c 0.17676,4.3877 0.27344,8.79493 0.28956,13.21827 l 0.15136,-0.0288 c 22.34766,-4.99659 39.1001,-24.98975 39.1001,-48.82227 V 134.41261 c 0,-27.58301 -22.44043,-50.02344 -50.02344,-50.02344 H 103.45259 c -27.58301,0 -50.02393,22.44043 -50.02393,50.02344 v 325.95361 c 0,23.80762 16.71826,43.78418 39.03125,48.80664 l 0.22217,0.0757 c 0.01611,-4.41846 0.11182,-8.82032 0.28808,-13.20264 l 0.0049,-0.16553 z" /><path
         inkscape:connector-curvature="0"
         id="path20"
         style="fill:#afaead;fill-opacity:1;fill-rule:nonzero;stroke:none"
         d="m 117.89844,99.38916 h -1.43799 l -0.0107,0.18799 v 215.87451 l 0.0122,0.16943 1.45118,1.61182 -0.008,-0.17139 V 99.53027 l -0.006,-0.14111 z" /><path
         inkscape:connector-curvature="0"
         id="path22"
         style="fill:#afaead;fill-opacity:1;fill-rule:nonzero;stroke:none"
         d="m 149.43701,99.56152 v 224.68702 l 0.003,0.14892 c 0.47949,-0.65918 0.96192,-1.31592 1.44678,-1.97021 l 0.006,-0.16211 V 99.53076 l 0.005,-0.1416 h -1.46875 l 0.008,0.17236 z" /><path
         inkscape:connector-curvature="0"
         id="path24"
         style="fill:#afaead;fill-opacity:1;fill-rule:nonzero;stroke:none"
         d="m 182.4248,99.59277 v 187.71875 l -0.007,0.22266 c 0.48877,-0.43994 0.979,-0.87695 1.47021,-1.31104 l -0.009,-0.14599 V 99.51465 l 0.0186,-0.12549 h -1.46826 l -0.005,0.20361 z" /><path
         inkscape:connector-curvature="0"
         id="path26"
         style="fill:#afaead;fill-opacity:1;fill-rule:nonzero;stroke:none"
         d="m 315.83496,99.38916 h -1.43652 l -0.0195,0.15576 v 141.65674 l 0.003,0.12793 c 0.48487,0.0479 0.96924,0.0977 1.45362,0.1499 l -0.002,-0.10595 V 99.60889 l 9.8e-4,-0.21973 z" /><path
         inkscape:connector-curvature="0"
         id="path28"
         style="fill:#afaead;fill-opacity:1;fill-rule:nonzero;stroke:none"
         d="m 414.78857,99.38916 h -1.45361 l 0.0102,0.17285 v 186.53028 l -0.005,0.1333 c 0.48145,0.4248 0.96143,0.85254 1.44043,1.2832 l 0.019,-0.13477 v -187.875 l -0.0112,-0.10986 z" /><path
         inkscape:connector-curvature="0"
         id="path30"
         style="fill:#afaead;fill-opacity:1;fill-rule:nonzero;stroke:none"
         d="m 512.31006,104.87354 v 385.03222 l 0.004,0.16211 c 0.49366,-0.30957 0.97901,-0.63086 1.45606,-0.96387 l -0.006,-0.10546 V 105.8584 l -9.8e-4,-0.18994 c -0.47461,-0.33106 -0.95752,-0.65039 -1.44873,-0.95801 l -0.004,0.16309 z" /><path
         inkscape:connector-curvature="0"
         id="path32"
         style="fill:#afaead;fill-opacity:1;fill-rule:nonzero;stroke:none"
         d="m 497.28857,99.56396 c -0.48681,-0.04882 -0.97656,-0.0874 -1.46923,-0.11572 l -0.004,0.09717 v 332.65625 l 0.003,0.12793 c 0.50977,2.21924 0.99756,4.44824 1.46338,6.68652 l -0.0122,-0.48535 V 99.68652 l 0.019,-0.12256 z" /><path
         inkscape:connector-curvature="0"
         id="path34"
         style="fill:#afaead;fill-opacity:1;fill-rule:nonzero;stroke:none"
         d="m 479.31982,99.49902 v 281.125 l 0.002,0.17774 c 0.49218,1.17529 0.97753,2.35498 1.45605,3.53906 l -0.003,-0.24805 V 99.48389 l -0.002,-0.09473 h -1.45264 l -4.9e-4,0.10986 z" /><path
         inkscape:connector-curvature="0"
         id="path36"
         style="fill:#afaead;fill-opacity:1;fill-rule:nonzero;stroke:none"
         d="m 462.82666,99.53027 v 247.85938 l 0.0117,0.16113 c 0.48633,0.83887 0.96875,1.68115 1.44726,2.52686 l -0.004,-0.20362 V 99.49854 l -0.009,-0.10938 h -1.43799 l -0.008,0.14111 z" /><path
         inkscape:connector-curvature="0"
         id="path38"
         style="fill:#afaead;fill-opacity:1;fill-rule:nonzero;stroke:none"
         d="m 447.78809,99.38916 h -1.45313 l -0.003,0.12549 v 222.79736 l 0.0195,0.12988 c 0.48194,0.64991 0.96094,1.30274 1.4375,1.95801 l -10e-4,-0.15136 V 99.53027 l 4.9e-4,-0.14111 z" /><path
         inkscape:connector-curvature="0"
         id="path40"
         style="fill:#afaead;fill-opacity:1;fill-rule:nonzero;stroke:none"
         d="M 429.8374,99.51514 V 302.3584 l 0.006,0.0698 c 0.48584,0.52881 0.97022,1.06055 1.45313,1.59571 l -0.005,-0.13477 V 99.48387 l 0.0127,-0.09473 h -1.46924 l 0.002,0.12598 z" /><path
         inkscape:connector-curvature="0"
         id="path42"
         style="fill:#afaead;fill-opacity:1;fill-rule:nonzero;stroke:none"
         d="m 396.8501,99.51465 v 173.48389 l 0.0117,0.11132 c 0.48047,0.34278 0.95996,0.68799 1.43847,1.03565 l 0.004,-0.13086 V 99.49902 l -9.8e-4,-0.10986 h -1.45264 l -9.7e-4,0.12549 z" /><path
         inkscape:connector-curvature="0"
         id="path44"
         style="fill:#afaead;fill-opacity:1;fill-rule:nonzero;stroke:none"
         d="m 381.81982,99.38916 h -1.46875 l 0.004,0.12549 v 162.89062 l -0.0117,0.15674 c 0.49268,0.2793 0.98438,0.56104 1.4751,0.84522 l -0.009,-0.11084 V 99.49854 l 0.0102,-0.10938 z" /><path
         inkscape:connector-curvature="0"
         id="path46"
         style="fill:#afaead;fill-opacity:1;fill-rule:nonzero;stroke:none"
         d="m 365.33496,99.38916 h -1.46728 l -0.006,0.14111 v 154.6875 l -0.004,0.0952 c 0.48926,0.21338 0.97754,0.4292 1.46534,0.64746 l -0.005,-0.14893 V 99.52977 l 0.0181,-0.14063 z" /><path
         inkscape:connector-curvature="0"
         id="path48"
         style="fill:#afaead;fill-opacity:1;fill-rule:nonzero;stroke:none"
         d="m 347.36719,99.59277 v 148.40577 l -0.008,0.11718 c 0.49463,0.15674 0.98877,0.31592 1.48193,0.47705 l -0.0195,-0.17187 V 99.5459 l 0.0137,-0.15674 h -1.46826 l 4.9e-4,0.20361 z" /><path
         inkscape:connector-curvature="0"
         id="path50"
         style="fill:#afaead;fill-opacity:1;fill-rule:nonzero;stroke:none"
         d="m 330.87256,99.51416 v 144.18799 l -0.009,0.12207 c 0.49463,0.10107 0.98877,0.20459 1.48242,0.31055 l -0.0195,-0.13623 V 99.54541 l 0.009,-0.15625 h -1.45313 l -0.01,0.125 z" /><path
         inkscape:connector-curvature="0"
         id="path52"
         style="fill:#afaead;fill-opacity:1;fill-rule:nonzero;stroke:none"
         d="m 299.35107,99.38916 h -1.46923 l 0.003,0.15625 v 140.79736 l -0.003,0.21436 c 0.24365,-9.8e-4 0.4873,-0.001 0.73095,-0.001 0.24073,0 0.48145,4.9e-4 0.72217,0.001 l 0.006,-0.10498 V 99.46777 l 0.0102,-0.07861 z" /><path
         inkscape:connector-curvature="0"
         id="path54"
         style="fill:#afaead;fill-opacity:1;fill-rule:nonzero;stroke:none"
         d="m 282.85107,99.38916 h -1.45312 l -0.007,0.15625 v 141.81348 l -0.008,0.12158 c 0.48975,-0.0527 0.97998,-0.10352 1.47071,-0.15186 l -0.007,-0.0947 V 99.53029 l 0.005,-0.14111 z" /><path
         inkscape:connector-curvature="0"
         id="path56"
         style="fill:#afaead;fill-opacity:1;fill-rule:nonzero;stroke:none"
         d="m 264.89795,99.49805 v 144.50049 l 0.004,0.13232 c 0.48828,-0.10498 0.97705,-0.20752 1.4663,-0.30762 l -0.0161,-0.12109 V 99.53076 l -9.8e-4,-0.1416 h -1.45312 v 0.10889 z" /><path
         inkscape:connector-curvature="0"
         id="path58"
         style="fill:#afaead;fill-opacity:1;fill-rule:nonzero;stroke:none"
         d="m 249.85107,99.38916 h -1.45263 l 0.005,0.12549 V 248.4209 l 0.002,0.1665 c 0.48438,-0.1582 0.96924,-0.31396 1.45459,-0.46777 l -0.003,-0.16797 V 99.5459 l -0.006,-0.15674 z" /><path
         inkscape:connector-curvature="0"
         id="path60"
         style="fill:#afaead;fill-opacity:1;fill-rule:nonzero;stroke:none"
         d="m 231.90771,99.52979 v 155.28173 l -0.0107,0.15284 c 0.48975,-0.21875 0.97998,-0.43555 1.47071,-0.64991 l -0.004,-0.14355 V 99.49902 l 0.004,-0.10986 h -1.45459 l -0.005,0.14063 z" /><path
         inkscape:connector-curvature="0"
         id="path62"
         style="fill:#afaead;fill-opacity:1;fill-rule:nonzero;stroke:none"
         d="m 216.8667,99.38916 h -1.45361 l 0.002,0.15674 v 163.73486 l -0.002,0.12354 c 0.48535,-0.28125 0.97168,-0.56006 1.45898,-0.83594 l -0.002,-0.17822 V 99.59277 l -0.003,-0.20361 z" /><path
         inkscape:connector-curvature="0"
         id="path64"
         style="fill:#afaead;fill-opacity:1;fill-rule:nonzero;stroke:none"
         d="m 198.91992,99.53076 v 174.48389 l 0.008,0.12939 c 0.48682,-0.354 0.97461,-0.70556 1.46338,-1.0542 l -0.0171,-0.12255 V 99.49854 l 0.008,-0.10938 h -1.45361 l -0.009,0.1416 z" /><path
         inkscape:connector-curvature="0"
         id="path66"
         style="fill:#afaead;fill-opacity:1;fill-rule:nonzero;stroke:none"
         d="m 165.93311,99.49902 v 204.40674 l 9.7e-4,0.11328 c 0.48242,-0.53466 0.96631,-1.06591 1.45215,-1.59424 l 9.8e-4,-0.12939 V 99.4834 l 0.0112,-0.09424 h -1.46924 l 0.004,0.10986 z" /><path
         inkscape:connector-curvature="0"
         id="path68"
         style="fill:#afaead;fill-opacity:1;fill-rule:nonzero;stroke:none"
         d="m 132.94287,99.51465 v 234.26514 l 0.005,0.15332 1.45117,1.61132 -0.001,-0.15429 V 99.51416 l -0.0156,-0.125 h -1.43701 l -0.002,0.12549 z" /><path
         inkscape:connector-curvature="0"
         id="path70"
         style="fill:#afaead;fill-opacity:1;fill-rule:nonzero;stroke:none"
         d="m 99.95508,99.68652 v 197.45264 l -0.0073,0.13818 1.4878,1.65235 -0.0259,-0.25879 V 99.56152 l 0.003,-0.11328 c -0.48682,0.02783 -0.9712,0.06592 -1.45264,0.11377 l -0.0054,0.12451 z" /><path
         inkscape:connector-curvature="0"
         id="path72"
         style="fill:#afaead;fill-opacity:1;fill-rule:nonzero;stroke:none"
         d="m 83.46045,105.76416 v 173.10986 l 0.002,0.0913 1.45948,1.6211 -0.0073,-0.18116 V 104.812 l -0.0044,-0.10107 c -0.49659,0.31103 -0.98487,0.63427 -1.46436,0.96924 l 0.01465,0.084 z" /><path
         inkscape:connector-curvature="0"
         id="path74"
         style="fill:#000000;fill-opacity:1;fill-rule:nonzero;stroke:none"
         d="m 135.90186,175.96826 c 0,-13.82031 -1.61719,-25.79687 -4.85157,-35.92187 -4.21484,-13.16016 -10.42968,-19.73828 -18.64453,-19.73828 -7.0664,0 -12.68359,5.08984 -16.85156,15.27343 -3.91797,9.52344 -5.875,21.54688 -5.875,36.07032 0,14.99218 1.97656,27.25 5.9375,36.77343 4.21094,10.08594 9.95703,15.13282 17.23828,15.13282 4.42188,0 8.19141,-1.69141 11.30078,-5.07422 3.61719,-3.94922 6.61719,-10.48438 9,-19.60157 l -9.98437,-10.57421 c -1.52735,5.4414 -3.07422,9.21875 -4.64453,11.33203 -1.57032,2.10937 -3.47657,3.16797 -5.72266,3.16797 -3.39063,0 -6.05078,-2.98047 -7.98047,-8.9375 -1.92969,-5.96094 -2.89453,-13.24219 -2.89453,-21.85157 0,-9.55468 0.98437,-17.14453 2.95312,-22.76953 1.96875,-5.6289 4.58204,-8.4414 7.83985,-8.4414 2.91797,0 5.30859,1.82421 7.17578,5.47265 1.4375,2.88281 2.55859,6.72266 3.36328,11.52735 H 113.1792 v 21 h 22.72266 z" /><path
         inkscape:connector-curvature="0"
         id="path76"
         style="fill:#000000;fill-opacity:1;fill-rule:nonzero;stroke:none"
         d="m 179.95508,158.10498 c 0,-11.68359 -1.69531,-20.98828 -5.08203,-27.91016 -3.39063,-6.92578 -8.19532,-10.38671 -14.41797,-10.38671 -6.22656,0 -11.03125,3.39062 -14.41797,10.17578 -3.39063,6.78125 -5.08203,15.96875 -5.08203,27.55468 v 64.01954 h 12.25 v -61.09375 c 0,-5.28125 0.46094,-9.19532 1.38672,-11.73829 1.13281,-3.11328 3.08984,-4.66796 5.86328,-4.66796 2.77344,0 4.72656,1.78906 5.86328,5.375 0.92187,2.82812 1.38672,7.07031 1.38672,12.72656 v 59.39844 h 12.25 z" /><path
         inkscape:connector-curvature="0"
         id="path78"
         style="fill:#000000;fill-opacity:1;fill-rule:nonzero;stroke:none"
         d="m 232.21045,122.55811 h -12.50781 l -20.99219,61.07812 v -61.07812 h -12 v 99 h 12.57812 l 20.92188,-59.97657 v 59.97657 h 12 z" /><path
         inkscape:connector-curvature="0"
         id="path80"
         style="fill:#000000;fill-opacity:1;fill-rule:nonzero;stroke:none"
         d="m 269.21533,199.30811 h -9.75 v -76.75 h -12.25 v 76.75 h -9.5 v 22.25 h 31.5 z" /><path
         inkscape:connector-curvature="0"
         id="path82"
         style="fill:#000000;fill-opacity:1;fill-rule:nonzero;stroke:none"
         d="m 311.41846,122.55811 h -12.32422 l -2.9336,18.25 h -15.89843 l -2.875,-18.25 h -12.25782 l 17.36719,99 h 11.6211 l 17.30078,-99 m -18.33594,37.5 -4.9375,30.08203 -4.8125,-30.08203 z" /><path
         inkscape:connector-curvature="0"
         id="path84"
         style="fill:#000000;fill-opacity:1;fill-rule:nonzero;stroke:none"
         d="m 371.48975,122.05811 h -12.44922 l -2.8086,56.0625 -0.1289,0.28515 -10.53516,-55.84765 h -5.67969 l -9.76953,54.28906 -3.32031,-54.78906 h -12.25781 l 7.98047,99.5 h 11.23828 l 9.1289,-52.3125 9.57422,52.3125 h 11.8125 z" /><path
         inkscape:connector-curvature="0"
         id="path86"
         style="fill:#000000;fill-opacity:1;fill-rule:nonzero;stroke:none"
         d="m 422.25879,122.55811 h -12.32422 l -2.93359,18.25 h -15.89844 l -2.875,-18.25 h -12.25781 l 17.36718,99 h 11.6211 l 17.30078,-99 m -18.33594,37.5 -4.9375,30.08203 -4.8125,-30.08203 z" /><path
         inkscape:connector-curvature="0"
         id="path88"
         style="fill:#000000;fill-opacity:1;fill-rule:nonzero;stroke:none"
         d="m 449.79346,199.30811 h -9.75 v -76.75 h -12.25 v 76.75 h -9.5 v 22.25 h 31.5 z" /><path
         inkscape:connector-curvature="0"
         id="path90"
         style="fill:#000000;fill-opacity:1;fill-rule:nonzero;stroke:none"
         d="m 466.99365,122.55811 h -12.25 v 99 h 12.25 z" /><path
         inkscape:connector-curvature="0"
         id="path92"
         style="fill:#000000;fill-opacity:1;fill-rule:nonzero;stroke:none"
         d="m 507.30322,126.76123 c -1.78906,-1.98828 -3.45312,-3.55078 -4.98437,-4.68359 -2.13281,-1.51172 -4.23828,-2.26953 -6.32422,-2.26953 -7.19922,0 -13.01172,5.03515 -17.44141,15.10937 -4.26172,9.69531 -6.39062,21.88672 -6.39062,36.57422 0,14.78125 2.20312,27.27734 6.61328,37.49219 4.40625,10.21484 10.08203,15.32422 17.02734,15.32422 2.51172,0 4.59766,-0.35547 6.26172,-1.0586 1.66016,-0.70703 3.27735,-2.04687 4.85547,-4.02344 v -25.69531 c -0.97656,1.98828 -2.39062,3.73828 -4.24219,5.25391 -1.85156,1.51562 -3.71093,2.27344 -5.57812,2.27344 -3.91016,0 -7.00391,-2.70313 -9.27735,-8.10938 -2.27343,-5.40625 -3.41015,-12.33984 -3.41015,-20.80078 0,-7.71094 1.13672,-13.98438 3.41015,-18.82813 2.27344,-4.84375 5.36719,-7.26171 9.27735,-7.26171 1.74219,0 3.53906,0.82421 5.39062,2.47265 1.84766,1.64844 3.45313,3.5586 4.8125,5.72656 z" /><path
         inkscape:connector-curvature="0"
         id="path94"
         style="fill:#30755d;fill-opacity:1;fill-rule:nonzero;stroke:none"
         d="m 336.09668,450.69287 c 3.27295,-1.89307 6.59082,-3.72558 9.95508,-5.49707 l 0.14258,0.13818 c 10.41064,10.4668 22.37402,24.29444 37.81591,49.94873 20.26661,33.66895 25.43995,67.99561 15.85547,106.84473 l -0.1289,0.49854 -37.53028,-41.68799 -0.0547,-0.58838 -26.00879,-109.43555 -0.0464,-0.22119 z" /><path
         inkscape:connector-curvature="0"
         id="path96"
         style="fill:#30755d;fill-opacity:1;fill-rule:nonzero;stroke:none"
         d="m 472.83496,409.38672 c -38.47217,3.6958 -72.47021,11.93066 -102.89014,24.58496 l 0.0854,0.0874 c 9.94287,10.73096 21.51807,25.27002 35.39893,48.33057 26.90283,44.69336 30.71875,91.30566 13.98437,142.07764 l 0.2793,0.32519 32.07617,35.6294 0.35987,-0.46241 c 22.89404,-41.95508 36.41748,-93.6084 36.41748,-149.40576 0,-35.85986 -5.58594,-70.0083 -15.65528,-100.97021 l -0.0562,-0.19678 z" /><path
         inkscape:connector-curvature="0"
         id="path98"
         style="fill:#1e282f;fill-opacity:1;fill-rule:nonzero;stroke:none"
         d="m 239.35498,538.98535 c -4.5708,6.09668 -9.04297,12.39844 -13.42578,18.9043 -10.93018,16.22461 -19.6792,31.98974 -26.67774,46.94336 l 0.0757,0.23974 c 3.26074,10.86963 8.02051,21.35645 14.52783,31.0542 2.23975,3.33741 4.63232,6.44776 7.12354,9.34278 l 0.0425,-0.26807 18.27636,-105.73926 0.0576,-0.47705 z" /><path
         inkscape:connector-curvature="0"
         id="path100"
         style="fill:#30755d;fill-opacity:1;fill-rule:nonzero;stroke:none"
         d="m 313.79834,465.00537 c -7.67578,5.44092 -15.09277,11.2583 -22.27344,17.44922 l 0.27246,0.27539 34.95313,38.82422 0.64111,0.65918 c -4.64209,-19.53125 -9.22168,-38.80127 -13.51367,-56.86133 l -0.0796,-0.34668 z" /><path
         inkscape:connector-curvature="0"
         id="path102"
         style="fill:#1e282f;fill-opacity:1;fill-rule:nonzero;stroke:none"
         d="m 278.10596,495.17139 57.37939,63.73584 0.83545,0.87841 c 9.54785,40.17188 18.74609,78.87403 25.61816,107.7876 l 0.12208,0.44092 c -3.65625,3.0791 -7.16211,5.58789 -10.31348,7.60303 l 6.84717,24.93896 c 2.8374,-1.56592 6.02929,-3.48779 9.44433,-5.81396 l 0.30469,-0.2168 c 1.16211,4.89014 2.15674,9.0752 2.9585,12.44824 l 23.27783,-10.1748 -4.92139,-20.70606 0.25244,-0.26269 c 7.74073,-8.40283 15.33545,-18.88867 21.66992,-31.86572 l 0.18458,-0.32715 29.71582,33.00732 0.44189,0.4292 c -34.84863,53.56738 -86.17383,87.48193 -143.31055,87.48193 -48.28418,0 -92.41797,-24.21948 -125.96484,-64.05127 l -0.17725,-0.21142 c 1.37354,-15.33887 4.89746,-36.87695 13.44532,-62.26318 l 0.25341,0.49072 c 2.09864,3.92773 4.4043,7.77832 6.92627,11.53662 6.80664,10.14355 14.66162,18.55176 22.63965,25.46435 l 4.9e-4,0.26221 -3.34131,19.33008 23.79443,9.12109 c 0.6294,-3.64257 1.34327,-7.77392 2.13184,-12.33642 l 0.0425,-0.31348 c 3.8916,2.24902 7.56738,4.14502 10.89014,5.72266 l 4.33984,-25.87403 c -3.33349,-1.82177 -6.92383,-3.97461 -10.61865,-6.49072 l 0.0601,-0.3125 c 7.56006,-43.74121 18.29004,-105.82178 28.10791,-162.62256 l 0.0576,-0.41064 c 2.20361,-2.25977 4.42968,-4.47998 6.67968,-6.66065 l 0.22608,0.23487 z" /><path
         inkscape:connector-curvature="0"
         id="path104"
         style="fill:#1f5c49;fill-opacity:1;fill-rule:nonzero;stroke:none"
         d="M 472.67334,408.91455 C 443.30176,319.30762 376.33398,256.55566 298.61279,256.55566 c -54.38086,0 -103.49756,30.72168 -138.15429,79.86817 l -0.16846,0.22998 67.77734,75.28515 0.21143,-0.5 c 2.6001,-5.86425 4.33203,-11.41699 4.81689,-16.71533 1.67969,-18.34619 -7.23193,-40.22021 -45.35351,-40.84228 l 1.99902,-24.95655 c 21.86182,0.63672 39.07227,6.99122 51.32275,18.98536 12.67823,12.41308 18.68946,29.84765 16.92774,49.09277 -1.08057,11.80225 -5.54932,22.9917 -11.76807,34.53613 l -0.18066,0.36719 9.88672,10.98242 0.11816,-0.33838 20.25391,-117.18457 c 2.87256,-19.52392 6.62744,-27.97607 13.62744,-27.97607 7,0 11,7.5 16.5,28.5 l 8.65088,36.39892 0.73877,-1.16845 c 3.38135,-5.81543 7.90088,-10.91162 13.32617,-14.89063 14.07861,-10.32422 33.74609,-14.45117 58.6167,-12.33008 l -2.75,24.84229 c -14.31592,-1.17725 -30.37451,-0.20459 -41.08252,7.64795 -11.46094,8.40478 -13.2876,25.72803 -4.5,36.5 8.47363,10.38721 18.14307,17.78564 30.23291,30.77344 l 0.28271,0.30859 c 30.41993,-12.6543 64.41797,-20.88916 102.89014,-24.58496 z" /><path
         inkscape:connector-curvature="0"
         id="path106"
         style="fill:#1f5c49;fill-opacity:1;fill-rule:nonzero;stroke:none"
         d="m 345.90332,445.04248 c -2.84814,-2.85449 -5.58057,-5.46191 -8.2373,-7.99707 -1.72657,-1.64795 -3.42627,-3.27002 -5.10498,-4.90674 l -1.20264,-1.35644 4.64502,19.54443 0.0933,0.36621 c 3.27295,-1.89307 6.59082,-3.72558 9.95508,-5.49707 l -0.14844,-0.15332 z" /><path
         inkscape:connector-curvature="0"
         id="path108"
         style="fill:#1f5c49;fill-opacity:1;fill-rule:nonzero;stroke:none"
         d="m 313.7002,464.60352 c -8.88624,-37.38916 -16.52198,-69.51807 -20.89649,-87.92481 -3.27734,18.96143 -8.89062,51.43945 -15.40283,89.12061 l -0.146,0.77685 14.02588,15.5791 0.24414,0.29932 c 7.18067,-6.19092 14.59766,-12.0083 22.27344,-17.44922 l -0.0981,-0.40185 z" /><path
         inkscape:connector-curvature="0"
         id="path110"
         style="fill:#231f20;fill-opacity:1;fill-rule:nonzero;stroke:none"
         d="m 277.74023,494.76563 -4.46972,-4.96534 -0.1333,0.66651 c -0.61182,3.53955 -1.22852,7.10693 -1.84864,10.6958 l -0.0884,0.43457 c 2.20361,-2.25977 4.42968,-4.47998 6.67968,-6.66065 l -0.13965,-0.17089 z" /><path
         inkscape:connector-curvature="0"
         id="path112"
         style="fill:#231f20;fill-opacity:1;fill-rule:nonzero;stroke:none"
         d="m 239.46143,538.5127 12.38232,-71.63965 0.0649,-0.80127 -15.67871,-17.41553 -0.20947,0.21387 c -1.43213,2.30322 -2.89893,4.63623 -4.38819,7.00586 -8.04492,12.79882 -16.36328,26.0332 -23.20459,40.73095 -13.8247,29.70069 -20.1499,70.92627 -9.28759,107.83789 l 0.11132,0.38819 c 6.99854,-14.95362 15.74756,-30.71875 26.67774,-46.94336 4.38281,-6.50586 8.85498,-12.80762 13.42578,-18.9043 l 0.10645,-0.47265 z" /><path
         inkscape:connector-curvature="0"
         id="path114"
         style="fill:#231f20;fill-opacity:1;fill-rule:nonzero;stroke:none"
         d="M 185.78906,637.80225 C 160.03418,588.90137 166.10791,528.2832 185.7627,486.05713 195.854,464.37695 208.71289,445.8584 218.50146,429.6167 l 0.22706,-0.40088 -68.84229,-76.46826 -0.15918,0.26318 c -25.68994,43.32666 -41.04736,98.08155 -41.04736,157.54297 0,75.2666 24.60693,142.99219 63.62695,189.54468 l 0.16406,0.19458 c 1.37354,-15.33887 4.89746,-36.8772 13.44532,-62.26318 z" /><path
         inkscape:connector-curvature="0"
         id="path116"
         style="fill:#1e282f;fill-opacity:1;fill-rule:nonzero;stroke:none"
         d="m 393.01221,622.80664 -21.71241,-24.11768 0.15333,0.79883 10.82128,45.53418 0.2461,-0.32129 c 4.0039,-6.19922 7.71582,-13.32373 10.83398,-21.48779 z" /></g></g></svg>