<?xml version="1.0" encoding="UTF-8"?>
<svg id="Calque_2" data-name="Calque 2" xmlns="http://www.w3.org/2000/svg" viewBox="0 0 401.43 401.43">
  <defs>
    <style>
      .cls-1 {
        fill: #d9dada;
      }

      .cls-2 {
        fill: #dd003f;
      }

      .cls-3 {
        fill: #fff;
      }

      .cls-4, .cls-5 {
        fill: #001a45;
      }

      .cls-5 {
        fill-rule: evenodd;
      }
    </style>
  </defs>
  <g id="Ebene_1" data-name="Ebene 1">
    <g>
      <path class="cls-3" d="M200.71,0C89.86,0,0,89.86,0,200.71s89.86,200.71,200.71,200.71,200.71-89.86,200.71-200.71S311.57,0,200.71,0h0Z"/>
      <path class="cls-2" d="M165.15,57.3v16.8h23.1v12.95h-23.1v33.6h-15.94V44.35h40.55v12.95h-24.62Z"/>
      <path class="cls-4" d="M200.71,8.37c25.92,0,51.07,5.08,74.74,15.09,22.87,9.67,43.4,23.52,61.04,41.15,17.63,17.64,31.48,38.17,41.15,61.04,10.01,23.67,15.09,48.82,15.09,74.74s-5.08,51.07-15.09,74.74c-9.67,22.87-23.52,43.4-41.15,61.04-17.64,17.64-38.17,31.48-61.04,41.15-23.67,10.01-48.82,15.09-74.74,15.09s-51.07-5.08-74.74-15.09c-22.86-9.67-43.4-23.52-61.04-41.15-17.64-17.64-31.48-38.17-41.15-61.04-10.01-23.67-15.09-48.82-15.09-74.74s5.08-51.07,15.09-74.74c9.67-22.86,23.52-43.4,41.15-61.04,17.64-17.64,38.17-31.48,61.04-41.15,23.67-10.01,48.82-15.09,74.74-15.09M200.71,3.84C92.16,3.84,4.17,91.84,4.17,200.39s88,196.55,196.55,196.55,196.55-88,196.55-196.55S309.26,3.84,200.71,3.84h0Z"/>
      <path class="cls-4" d="M200.71,19.75c48.25,0,93.61,18.79,127.73,52.91,34.12,34.12,52.91,79.48,52.91,127.73s-18.79,93.62-52.91,127.73c-34.12,34.12-79.48,52.91-127.73,52.91s-93.62-18.79-127.73-52.91c-34.12-34.12-52.91-79.48-52.91-127.73s18.79-93.61,52.91-127.73c34.12-34.12,79.48-52.91,127.73-52.91M200.71,10.69C95.94,10.69,11.01,95.62,11.01,200.39s84.93,189.7,189.7,189.7,189.7-84.93,189.7-189.7S305.48,10.69,200.71,10.69h0Z"/>
      <g>
        <path class="cls-4" d="M111.02,236.47l3.59,6.28-54.28,31.02,3.59,6.28,12.55-7.17,3.59,6.28-18.83,10.76-10.76-18.83,60.55-34.61Z"/>
        <path class="cls-4" d="M124.76,258.11l4.74,5.46-52.69,45.71-4.74-5.46,52.68-45.71Z"/>
        <path class="cls-4" d="M150.21,289.51l-11.81-8.34-13.86,19.63,8.86,6.25-4.17,5.91-8.86-6.25-13.86,19.63,11.81,8.34-4.17,5.91-11.81-8.34c-3.27-2.31-4.05-6.8-1.74-10.07l31.88-45.17c2.31-3.27,6.8-4.05,10.07-1.74l11.81,8.34-4.17,5.91Z"/>
        <path class="cls-4" d="M159.62,293.84c1.27-3.8,5.35-5.83,9.15-4.57l13.71,4.58-2.29,6.86-13.71-4.58-7.62,22.79,10.28,3.44-2.29,6.86-10.28-3.44-9.91,29.65-6.86-2.29,19.81-59.29Z"/>
        <path class="cls-4" d="M210.36,302.48l-14.45-.43-.72,24.02,10.84.33-.22,7.23-10.84-.33-.72,24.02,14.45.43-.22,7.23-14.45-.43c-4-.12-7.13-3.44-7.01-7.44l1.66-55.27c.12-4,3.44-7.13,7.44-7.01l14.45.43-.22,7.23Z"/>
        <path class="cls-4" d="M218.66,294.11l13.9-3.98c3.85-1.1,7.84,1.11,8.94,4.96l6.08,21.22c.91,3.19-.14,4.82-1.56,6.24,1.88.17,3.69,1.18,4.87,5.31l6.41,22.35c.54,1.88,1.69,3.07,3.12,4.49l-7.14,2.04c-1.15-1.19-2.44-2.86-2.93-4.55l-7.19-25.07-6.95,1.99,8.61,30.05-6.95,1.99-19.22-67.05ZM234.22,322.17l6.95-1.99-6.62-23.1-6.95,1.99,6.62,23.1Z"/>
        <path class="cls-4" d="M248.61,283.26l6.24-3.65,35.19,60.22-6.24,3.65-35.19-60.23Z"/>
        <path class="cls-4" d="M263.58,274.07l4.87-4.8c12.1,8.65,24.89,16.34,37.32,25.89l.14-.14c-4.39-3.9-13.52-12.32-17.84-16.71l-14.2-14.4,5.15-5.07,48.96,49.67-4.87,4.8c-12.1-8.65-24.89-16.34-37.32-25.89l-.14.14c4.39,3.9,13.52,12.32,17.84,16.71l14.2,14.4-5.15,5.07-48.96-49.67Z"/>
        <path class="cls-4" d="M294,255.6c-5.3-2.71-7.43-9.29-4.71-14.59,2.71-5.3,9.29-7.43,14.59-4.71l7.04,3.61-3.29,6.43-9.74-4.99-3.29,6.43,49.21,25.19,3.29-6.43-21.39-10.95-1.43,2.78-6.43-3.29,4.72-9.22,25.13,12.86c5.3,2.71,7.43,9.29,4.71,14.59-2.71,5.3-9.29,7.43-14.59,4.71l-43.82-22.43Z"/>
      </g>
      <g>
        <path class="cls-2" d="M212.28,116.09c8.1,1.1,15.83,3.34,23.04,6.55,6.27-.16,11.97-2.01,17.67-4.52v-17.71c-4.45,4.76-11.28,8.1-18.11,8.1-14.86,0-23.96-12.85-23.96-25.7s8.78-26.31,24.07-26.31c6.83,0,13.55,3.04,18,8.1v-17.81c-5.53-2.83-11.82-4.45-18.22-4.45-23.96,0-40.34,19.13-40.34,40.78,0,13.4,6.9,25.76,17.85,32.99Z"/>
        <g>
          <path class="cls-1" d="M141.05,251.81c-.58-.68-1.15-1.37-1.71-2.06.56.7,1.13,1.38,1.71,2.06Z"/>
          <path class="cls-1" d="M138.76,249.01c-.41-.52-.81-1.04-1.2-1.57.39.53.79,1.05,1.2,1.57Z"/>
          <path class="cls-1" d="M142.94,253.92c-.45-.49-.89-.98-1.33-1.48.44.5.88.99,1.33,1.48Z"/>
          <path class="cls-1" d="M136.76,246.36s-.02-.01-.02-.02c.08.11.17.22.25.34-.08-.11-.15-.21-.22-.32Z"/>
          <path class="cls-1" d="M145.05,256.1c-.46-.46-.91-.92-1.36-1.39.45.47.9.93,1.36,1.39Z"/>
          <path class="cls-1" d="M266.25,156.76c1.3,4.69,2.09,9.51,2.61,14.46.22,2.79.29,5.56.25,8.3.67,4.52,1.43,13.87.23,30.28,0,0-3.03,1.76-8.15,3.9-6.88,14.63-17.94,27.13-32.07,35.76l5.57,15.69c-12.87,7.66-28.36,11.65-28.36,11.65-16.25-3.53-25.6-10.58-25.6-10.58l3.15-4.43c-11.39-.23-22.71-2.73-33.07-7.38,1.58,2.35,2.62,3.84,2.62,3.84-.87.97-2.25,1.99-3.14,2.61,13.66,11.41,31.25,18.28,50.44,18.28,43.49,0,78.75-35.26,78.75-78.74,0-16.09-4.83-31.04-13.22-43.66Z"/>
          <path class="cls-1" d="M145.67,256.73c.62.6,1.25,1.19,1.88,1.78-.64-.58-1.26-1.17-1.88-1.78Z"/>
          <path class="cls-1" d="M149.67,260.37c-.42-.36-.83-.72-1.24-1.08.41.37.82.72,1.24,1.08Z"/>
        </g>
      </g>
      <path class="cls-5" d="M150.26,260.89c-13.05-10.91-22.51-25.95-26.37-43.11,4.21,4.36,12.36,12.74,12.36,12.74,4.9,10.13,17.16,27.76,17.16,27.76-.88.98-2.26,2-3.15,2.62ZM200.71,121.67c10.39,0,20.3,2.01,29.38,5.66-.31,1.46-1.42,5.61-4.61,10.88-16.41-2.14-34.65-.46-34.65-.46l-15.16-12.02c7.86-2.64,16.29-4.07,25.04-4.07ZM194.05,247.53l34.04-.92,6.59,18.56c-12.87,7.66-28.36,11.65-28.36,11.65-16.25-3.53-25.6-10.58-25.6-10.58l13.33-18.71ZM229.78,188.5s6.89-14.41,15.18-26.06c0,0,15.95,7.51,23.46,13.64,0,0,2.75,8.58.92,33.72,0,0-9.51,5.53-23.3,8.9,0,0-9.36-15.8-16.25-30.21ZM147.15,142.7c-1.85,3.02-7.26,12.11-12.12,22.96-4.6,5.75-8.61,11.6-10.34,14.17,3.9-14.45,11.81-27.24,22.46-37.13ZM177.5,220.09c-18.4-4.44-30.97-8.9-30.97-8.9-1.99-19.01-.31-35.56-.31-35.56,7.97-4.15,29.58-13.81,29.58-13.81,10.28,11.66,20.09,27.28,20.09,27.28-4.75,9.21-18.39,30.98-18.39,30.98Z"/>
    </g>
  </g>
</svg>