<?xml version="1.0" encoding="UTF-8" standalone="no"?>
<svg
   xmlns:dc="http://purl.org/dc/elements/1.1/"
   xmlns:cc="http://creativecommons.org/ns#"
   xmlns:rdf="http://www.w3.org/1999/02/22-rdf-syntax-ns#"
   xmlns:svg="http://www.w3.org/2000/svg"
   xmlns="http://www.w3.org/2000/svg"
   xmlns:sodipodi="http://sodipodi.sourceforge.net/DTD/sodipodi-0.dtd"
   xmlns:inkscape="http://www.inkscape.org/namespaces/inkscape"
   version="1.1"
   id="svg2"
   xml:space="preserve"
   width="377.95334"
   height="377.95334"
   viewBox="0 0 377.95334 377.95334"
   sodipodi:docname="GAK1902-Logo.svg"
   inkscape:version="1.0.1 (3bc2e813f5, 2020-09-07)"><metadata
     id="metadata8"><rdf:RDF><cc:Work
         rdf:about=""><dc:format>image/svg+xml</dc:format><dc:type
           rdf:resource="http://purl.org/dc/dcmitype/StillImage" /><dc:title></dc:title></cc:Work></rdf:RDF></metadata><defs
     id="defs6"><clipPath
       clipPathUnits="userSpaceOnUse"
       id="clipPath18"><path
         d="M 0,283.465 H 283.465 V 0 H 0 Z"
         id="path16" /></clipPath></defs><sodipodi:namedview
     pagecolor="#ffffff"
     bordercolor="#000000"
     borderopacity="0.25"
     objecttolerance="10"
     gridtolerance="10"
     guidetolerance="10"
     inkscape:pageopacity="0"
     inkscape:pageshadow="2"
     inkscape:window-width="2560"
     inkscape:window-height="1403"
     id="namedview4"
     showgrid="false"
     inkscape:zoom="2.6669959"
     inkscape:cx="188.97667"
     inkscape:cy="188.97667"
     inkscape:window-x="0"
     inkscape:window-y="0"
     inkscape:window-maximized="1"
     inkscape:current-layer="g10" /><g
     id="g10"
     inkscape:groupmode="layer"
     inkscape:label="GAK1902-Logo"
     transform="matrix(1.3333333,0,0,-1.3333333,0,377.95333)"><g
       id="g12"><g
         id="g14"
         clip-path="url(#clipPath18)"><g
           id="g20"
           transform="translate(142.1877,130.3553)"><path
             d="m 0,0 0.011,-0.067 0.006,-0.035 c 0.139,-0.931 0.416,-1.573 0.732,-2.043 0.317,-0.469 0.681,-0.779 1.075,-1 L 1.843,-3.156 1.846,-3.158 2.042,-3.253 2.096,-3.277 2.267,-3.345 2.366,-3.378 2.524,-3.425 2.613,-3.446 2.608,-3.444 2.619,-3.448 2.768,-3.48 H 2.77 l 0.021,-0.002 0.097,-0.013 0.004,-0.002 0.13,-0.017 0.193,-0.009 h 0.037 l 0.035,-10e-4 0.004,-10e-4 0.144,0.003 -0.217,0.296 c -0.219,0.332 -0.384,0.709 -0.488,1.089 -0.119,0.438 -0.166,0.878 -0.165,1.324 0,0.008 0,0.017 0,0.026 10e-4,0.267 0.033,0.534 0.093,0.792 C 1.814,0.003 0.924,0.001 0,0 m -0.793,-29.495 -0.055,0.001 c -0.657,0.002 -1.29,0.023 -1.906,0.052 -0.208,0.009 -0.432,0.018 -0.671,0.032 l -0.008,0.001 c -0.305,0.019 -0.604,0.041 -0.903,0.066 l 0.241,-0.329 c 0.977,-1.336 1.872,-2.436 2.604,-3.244 0.3,-0.332 0.574,-0.616 0.807,-0.839 0.447,0.391 1.044,0.999 1.7,1.76 0.647,0.746 1.359,1.642 2.102,2.653 -0.275,-0.028 -0.547,-0.051 -0.823,-0.07 -0.941,-0.065 -1.901,-0.082 -3.057,-0.082 z m -26.89,42.163 c 0.12,0.529 0.201,1.206 0.201,2.061 0.002,2.071 0.126,5.586 0.513,9.835 0.098,1.066 0.212,2.178 0.344,3.322 -0.444,-0.837 -0.875,-1.697 -1.289,-2.573 -1.737,-3.673 -3.179,-7.647 -4.042,-11.435 -0.192,-0.836 -0.356,-1.665 -0.487,-2.477 l 4.287,-0.004 c 0.179,0.304 0.341,0.701 0.473,1.271 M 2.042,-3.254 v 10e-4 l -0.01,0.004 z m -4.376,2.804 -0.041,0.35 c 0,0.987 -0.927,1.472 -1.856,1.472 -0.932,10e-4 -1.864,-0.485 -1.866,-1.439 -0.004,-5.858 6.211,-9.736 9.34,-9.739 3.444,-0.003 7.144,2.153 7.149,6.88 C 10.393,-0.264 8.668,0.77 7.158,0.771 5.988,0.772 4.947,0.15 4.947,-0.815 4.944,-3.024 6.847,-2.101 6.846,-3.437 6.844,-4.772 5.715,-5.9 3.254,-5.9 H 3.247 c -2.194,0.001 -4.991,1.474 -5.581,5.45 m 9.788,-23.219 c -10e-4,0.374 -0.184,0.628 -0.605,0.629 l -0.343,-0.045 c -2.246,-0.53 -4.597,-1.002 -7.285,-1.002 h -0.017 l -0.318,0.001 c -1.991,0.002 -2.85,0.015 -4.977,0.543 l -1.225,0.317 c -0.203,0.04 -0.382,0.059 -0.536,0.059 -0.59,0.001 -0.828,-0.273 -0.831,-0.67 -0.008,-0.994 1.458,-2.764 2.534,-2.937 1.585,-0.191 3.639,-0.342 5.352,-0.344 0.061,0 0.121,0 0.18,0 2.237,0 3.455,0.053 5.381,0.411 1.462,0.272 2.693,2.064 2.69,3.038 m -31.471,4.55 c 1.025,-0.001 1.844,1.271 1.845,2.415 0,0.589 -0.216,1.144 -0.731,1.474 l -0.596,0.501 c -6.914,5.935 -11.735,13.889 -11.73,21.448 0.009,9.659 4.073,20.328 9.721,27.699 v 0 c 0.651,0.719 1.626,3.625 1.622,5.246 -0.002,0.659 -0.166,1.105 -0.579,1.105 -0.312,0 -0.771,-0.256 -1.408,-0.872 -8.31,-8.001 -11.947,-19.412 -13.201,-24.388 -2.063,-8.169 -5.164,-7.78 -5.165,-9.022 0,-1.533 2.985,-0.803 6.486,-8.603 2.409,-5.37 7.053,-12.004 12.781,-16.627 0.325,-0.263 0.649,-0.376 0.955,-0.376 M -43.543,11.41 c 0.829,1.13 1.646,2.57 2.151,4.653 0.199,0.826 0.47,1.822 0.818,2.946 0.734,2.451 1.805,5.53 3.344,8.793 1.539,3.261 3.548,6.711 6.176,9.897 2.187,2.767 4.771,5.341 7.824,7.379 0.489,1.601 1.033,3.166 1.644,4.668 v 0.002 l -3.335,6.057 -1.433,2.601 -53.872,0.042 25.899,-47.028 v -0.002 z m 118.897,99.153 0.736,-0.569 c 0.796,-0.618 0.892,-1.252 0.351,-1.951 l -2.918,-3.767 c -0.283,-0.364 -0.599,-0.549 -0.952,-0.549 -0.299,0 -0.624,0.133 -0.976,0.406 l -0.766,0.593 z m -14.887,-19.206 8.153,10.518 0.765,-0.593 c 1.402,-1.088 2.662,-1.642 3.824,-1.642 1.329,0 2.532,0.723 3.677,2.201 l 2.814,3.631 c 2.126,2.744 1.697,5.101 -1.339,7.454 l -4.076,3.16 L 57.126,93.948 Z M -2.797,51.146 c 0.664,1.822 1.541,3.872 2.065,3.87 0.54,0 1.225,-2.077 1.886,-3.913 0.122,-0.444 0.962,-0.728 1.728,-0.729 h 0.005 c 0.687,0 1.314,0.229 1.314,0.773 0,0.083 -0.014,0.173 -0.046,0.272 -1.358,3.905 -3.352,6.872 -4.884,6.873 -1.543,0.002 -3.664,-3.408 -5.028,-7.347 -0.017,-0.052 -0.025,-0.101 -0.025,-0.148 -0.004,-0.375 0.508,-0.559 1.111,-0.559 0.783,-10e-4 1.719,0.308 1.874,0.908 m -22.639,-77.935 c 0.666,0 1.336,0.269 1.909,0.537 0.575,0.269 1.053,0.538 1.335,0.538 0.344,0 0.447,-0.371 0.447,-1.022 0,-0.417 -0.042,-0.95 -0.089,-1.573 -0.013,-0.161 -0.018,-0.32 -0.018,-0.478 0.004,-3.52 3.023,-6.281 5.433,-6.283 h 0.01 c 2.509,0 3.023,0.795 3.023,1.745 10e-4,2.004 -3.016,2.057 -3.371,7.966 -0.019,0.319 -0.027,0.674 -0.027,1.056 0,0.174 10e-4,0.354 0.004,0.539 -0.006,0.334 -0.009,0.664 -0.009,0.991 -0.002,4.899 0.662,8.994 1.496,12.751 l 0.034,-0.019 c 0.84,5.159 1.846,9.919 2.533,11.707 0.234,0.613 2.839,0.717 6.618,0.723 C -4.967,2.388 -3.33,2.355 -2.4,2.353 l 0.003,0.026 c 0.531,-0.002 1.07,-0.003 1.623,-0.004 0.119,0 0.239,0 0.357,0 0.751,0 1.482,0.002 2.188,0.003 0.764,0.002 1.498,0.004 2.197,0.004 4.1,-0.003 6.963,-0.09 7.21,-0.736 0.849,-2.226 2.189,-9.056 3.086,-15.53 -0.863,-2.122 -1.869,-4.383 -3.013,-6.667 -0.253,-0.505 -0.513,-1.006 -0.776,-1.5 -0.711,-1.374 -2.238,-3.92 -2.238,-3.92 -3.716,-6.072 -7.653,-10.552 -9.043,-10.55 -0.928,0 -4.566,3.975 -8.443,10.282 -0.612,0.981 -1.411,2.379 -2.502,4.366 0,0 -1.892,3.719 -2.314,4.836 -0.153,0.366 -0.307,0.526 -0.455,0.526 -0.438,10e-4 -0.809,-1.405 -0.81,-2.978 -10e-4,-0.993 0.146,-2.052 0.516,-2.867 1.154,-2.544 1.48,-2.764 1.48,-2.764 4.358,-8.277 9.34,-15.252 12.525,-15.254 3.167,-0.003 8.343,7.81 12.778,15.715 2.365,4.17 4.342,8.034 6.133,11.72 0.792,1.609 1.41,2.895 1.79,3.685 1.332,2.769 1.993,5.349 1.996,7.209 0.004,1.591 -0.474,2.655 -1.422,2.862 -0.19,0.041 -0.368,0.061 -0.534,0.061 -1.395,0.001 -1.986,-1.365 -1.987,-2.834 0,-0.022 0,-0.045 0,-0.07 0,-0.78 -0.017,-3.008 -1.285,-5.256 -1.445,6.171 -3.219,14.649 -3.725,17.02 l -0.197,0.679 c -0.103,0.672 -1.265,1.181 -2.241,1.182 -0.73,0 -1.357,-0.283 -1.36,-0.992 C 9.136,10.498 9.15,10.38 9.181,10.251 L 9.407,9.34 C 9.637,8.009 9.769,7.166 9.769,6.991 9.768,5.547 8.414,5.457 0.845,5.457 c -0.511,0 -1.048,0.001 -1.617,0.001 -0.374,0 -0.729,10e-4 -1.077,0.002 -1.31,0 -2.795,0.018 -3.81,0.018 -4.71,0.062 -5.652,0.325 -5.65,1.53 10e-4,1.048 4.699,25.563 6.865,36.506 0.013,0.089 0.019,0.173 0.019,0.252 -0.004,0.769 -0.595,1.109 -1.277,1.109 -0.845,0 -1.83,-0.523 -1.989,-1.395 -2.048,-11.163 -6.318,-31.6 -6.699,-33.345 -0.349,-1.601 -2.134,-10.101 -3.644,-16.578 l -0.002,0.006 c -0.465,-2.008 -1.315,-5.336 -1.315,-5.336 -0.078,-0.283 -0.153,-0.551 -0.221,-0.789 -0.206,-0.704 -0.456,-1.561 -0.746,-2.471 l -0.027,-0.149 c -0.503,-2.003 -1.092,-3.66 -2.274,-5.269 -0.426,-0.663 -0.886,-1.198 -1.38,-1.51 -2.108,-1.335 -3.393,-1.796 -3.394,-3.183 -10e-4,-1.388 1.397,-1.645 1.952,-1.645 z m 12.351,15.323 v -0.006 l -0.078,-0.482 c -0.051,-0.329 -0.101,-0.658 -0.149,-0.987 0.759,-1.888 1.58,-3.701 2.433,-5.43 l 0.049,-0.095 0.011,-0.028 c 0.247,-0.501 0.496,-0.993 0.745,-1.473 1.135,-0.408 2.283,-0.746 3.437,-1.019 l -0.001,0.001 c 0.409,-0.096 0.796,-0.184 1.16,-0.255 h 10e-4 l 0.241,-0.043 0.002,-10e-4 c 0.395,-0.073 0.792,-0.136 1.192,-0.191 l -0.001,0.001 0.003,-0.001 h -0.002 c 0.132,-0.018 0.253,-0.034 0.364,-0.048 l 0.003,-0.001 c 0.358,-0.044 0.725,-0.078 1.1,-0.108 l 0.001,-10e-4 c 0.174,-0.013 0.296,-0.025 0.363,-0.028 l 10e-4,-10e-4 c 0.485,-0.03 0.957,-0.049 1.414,-0.049 h 0.018 c 1.271,0 2.443,0.072 3.575,0.201 0.739,0.101 1.474,0.242 2.358,0.451 l 0.11,0.025 0.045,0.006 c 1.125,0.281 2.361,0.645 3.576,1.082 0.08,0.153 0.158,0.306 0.235,0.459 l 0.428,-0.214 -0.428,0.214 c 1.008,2.012 1.907,4.012 2.694,5.911 -0.176,1.237 -0.368,2.484 -0.568,3.702 l -0.002,0.004 -0.538,0.979 -0.002,-10e-4 C 9.567,-10.245 8.09,-11.145 6.56,-11.652 5.489,-12.006 4.381,-12.176 3.289,-12.181 l -0.071,-0.003 -0.117,0.007 -0.02,10e-4 c -0.225,0.004 -0.468,0.017 -0.723,0.044 -0.238,0.026 -0.381,0.056 -0.442,0.064 l 0.004,-0.001 -0.008,0.001 h 0.004 l -0.009,10e-4 c -0.07,0.012 -0.217,0.03 -0.432,0.072 -0.24,0.048 -0.425,0.098 -0.56,0.132 l -0.006,0.002 c -0.047,0.012 -0.157,0.037 -0.324,0.085 -0.243,0.07 -0.455,0.144 -0.64,0.209 l 0.015,-0.006 -0.021,0.008 -0.234,0.084 c -0.255,0.096 -0.492,0.198 -0.718,0.301 l -0.012,0.005 -0.127,0.059 -0.009,0.004 c -0.273,0.128 -0.537,0.265 -0.796,0.409 l -0.005,0.004 -0.01,0.005 -0.037,0.021 0.006,-0.003 c -1.688,0.954 -3.329,2.395 -4.548,4.382 -0.682,1.109 -1.224,2.385 -1.566,3.808 v 0.002 z m 12.629,-112.963 c -74.883,0 -135.805,60.921 -135.805,135.805 0,74.884 60.922,135.807 135.805,135.807 74.884,0 135.806,-60.923 135.806,-135.807 0,-74.884 -60.922,-135.805 -135.806,-135.805 m 0,277.539 c -78.151,0 -141.732,-63.582 -141.732,-141.734 0,-78.152 63.581,-141.732 141.732,-141.732 78.152,0 141.733,63.58 141.733,141.732 0,78.152 -63.581,141.734 -141.733,141.734 M 100.722,-10.212 c -2.139,0 -3.549,-1.359 -4.258,-4.05 -0.871,-3.301 0.198,-5.389 3.293,-6.205 l 22.784,-6.012 1.069,4.051 -22.785,6.012 c -0.691,0.183 -0.931,0.608 -0.773,1.208 0.123,0.471 0.407,0.727 0.858,0.727 0.124,0 0.26,-0.02 0.409,-0.059 l 22.786,-6.009 1.077,4.088 -22.784,6.011 c -0.602,0.159 -1.16,0.238 -1.676,0.238 m -1.448,7.892 3.695,-0.317 0.408,4.716 24.208,-2.08 0.366,4.216 -27.906,2.398 z m -5.265,-30.452 0.441,0.95 8.114,-3.781 -0.458,-0.985 c -0.172,-0.368 -0.419,-0.554 -0.75,-0.554 -0.176,0 -0.375,0.052 -0.599,0.157 l -6.202,2.888 c -0.617,0.287 -0.824,0.727 -0.546,1.325 m 11.027,-5.182 0.459,0.986 7.62,-3.55 -0.441,-0.952 c -0.183,-0.393 -0.451,-0.581 -0.789,-0.581 -0.175,0 -0.368,0.05 -0.578,0.148 l -5.705,2.659 c -0.649,0.304 -0.828,0.728 -0.566,1.29 m -14.39,6.748 c -1.474,-3.163 -0.93,-5.385 2.063,-6.78 l 6.324,-2.947 c 0.498,-0.232 0.974,-0.333 1.41,-0.333 0.808,0 1.48,0.346 1.904,0.842 -0.051,-1.002 0.736,-1.969 1.909,-2.514 l 5.245,-2.445 c 1.016,-0.473 1.921,-0.721 2.731,-0.721 1.599,0 2.827,0.967 3.805,3.069 l 2.225,4.781 -25.39,11.831 z M -16.522,15.387 c -0.309,-0.62 -0.722,-1.086 -1.087,-1.427 -0.246,-0.228 -0.476,-0.409 -0.677,-0.562 -0.268,-0.204 -0.484,-0.361 -0.636,-0.487 -0.21,-0.171 -0.292,-0.273 -0.329,-0.332 L -19.3,12.466 c -0.019,-0.061 -0.043,-0.168 -0.043,-0.367 l 0.004,-0.155 c 0.008,-0.157 0.024,-0.343 0.046,-0.554 l 2.731,-0.002 c 0.048,0.238 0.107,0.523 0.172,0.847 0.169,0.83 0.389,1.93 0.651,3.232 0.523,2.603 1.205,6.012 1.941,9.691 0.497,2.485 1.019,5.093 1.533,7.66 l 0.002,0.002 -3.828,6.951 V 39.77 c -0.076,-0.344 -0.15,-0.714 -0.223,-1.105 -0.226,-1.219 -0.44,-2.648 -0.632,-4.153 -0.386,-3.012 -0.687,-6.336 -0.864,-8.996 -0.119,-1.771 -0.182,-3.264 -0.182,-4.115 0,-0.14 0.003,-0.261 0.009,-0.365 l 0.218,-0.111 c 0.292,-0.158 0.639,-0.418 0.913,-0.758 0.32,-0.387 0.527,-0.843 0.641,-1.26 0.131,-0.483 0.168,-0.935 0.169,-1.413 v -0.035 c -10e-4,-0.73 -0.172,-1.465 -0.48,-2.072 m 116.082,6.311 6.036,0.533 c 3.084,0.275 5.288,0.468 7.244,0.758 -1.925,-0.637 -4.155,-1.301 -12.989,-4.575 l 0.424,-4.791 15.053,5.965 12.817,-3.112 -0.396,4.482 c -8.529,1.777 -10.436,2.076 -11.992,2.29 1.569,0.022 3.061,0.152 6.148,0.427 l 5.559,0.492 -0.372,4.21 -27.905,-2.467 z m -7.385,28.879 1.567,-3.929 22.568,9.005 1.136,-2.848 3.445,1.375 -3.852,9.658 -3.446,-1.376 1.15,-2.882 z M 32.665,-1.916 c -0.203,0.304 -0.483,0.596 -0.8,0.904 -1.124,1.19 -2.568,2.704 -2.743,5.092 -0.009,0.158 -0.021,0.313 -0.021,0.481 0,1.218 0.723,2.504 0.727,3.373 0.002,0.634 -0.378,1.045 -1.701,1.046 -0.564,0 -1.07,-0.346 -1.536,-0.692 -0.467,-0.347 -0.894,-0.694 -1.3,-0.693 -0.26,0 -0.512,0.142 -0.76,0.515 -0.988,1.485 -5.544,8.253 -13.033,8.764 -0.351,0.012 -0.652,0.018 -0.948,0.018 H 10.529 C 9.864,16.892 9.214,16.86 8.057,16.781 1.511,16.133 -2.653,12.84 -4.833,8.043 -4.868,7.946 -4.885,7.853 -4.885,7.763 -4.887,7.034 -3.803,6.556 -2.774,6.555 c 0.769,0 1.507,0.264 1.741,0.886 1.789,3.667 5.214,5.281 9.763,5.679 0.408,0.029 0.792,0.039 1.157,0.039 0.888,-0.001 1.663,-0.07 2.379,-0.138 l -0.007,0.033 c 6.691,-1.166 11.55,-9 11.544,-15.785 -0.004,-4.723 -1.6,-9.425 -4.777,-13.209 0,0 -0.516,-1.139 -1.64,-2.001 l -0.153,-0.139 -0.056,-0.059 c -0.572,-0.633 -1.313,-2.111 -1.316,-2.943 -0.002,-0.358 0.133,-0.596 0.477,-0.596 0.253,0 0.621,0.13 1.134,0.439 l 0.258,0.164 c 0.208,0.172 0.411,0.346 0.607,0.52 0.688,0.609 1.294,1.22 1.777,1.8 5.339,5.963 6.666,13.381 6.669,16.073 0,0.884 0.358,1.223 0.865,1.223 0.847,-10e-4 2.113,-0.949 2.828,-1.888 l -10e-4,-0.006 c 0.492,-0.7 1.099,-1.018 1.616,-1.019 0.621,-0.001 1.11,0.461 1.107,1.274 l -0.042,0.306 c -0.078,0.288 -0.255,0.575 -0.491,0.876 M 22.497,-30.3 v -0.003 c -0.222,-1.247 -0.709,-2.383 -1.348,-3.351 -0.889,-1.344 -2.061,-2.396 -3.401,-3.077 -0.863,-0.433 -1.809,-0.716 -2.823,-0.739 l -0.017,-10e-4 -0.13,10e-4 h -0.001 c -0.627,0.002 -1.192,0.043 -1.728,0.137 -0.542,0.097 -1.059,0.249 -1.555,0.502 -0.331,0.168 -0.649,0.385 -0.932,0.652 -0.379,0.355 -0.678,0.8 -0.86,1.241 -0.217,0.521 -0.287,1.012 -0.301,1.427 -1.161,-1.757 -2.322,-3.37 -3.471,-4.747 -0.902,-1.079 -1.792,-2.014 -2.718,-2.774 -0.532,-0.433 -1.078,-0.812 -1.677,-1.116 -0.657,-0.329 -1.399,-0.581 -2.247,-0.601 l -0.02,-10e-4 h -0.153 l -0.014,10e-4 c -0.804,0.016 -1.53,0.233 -2.185,0.533 -0.678,0.314 -1.297,0.724 -1.9,1.204 -1.201,0.961 -2.35,2.21 -3.52,3.692 -0.838,1.067 -1.685,2.256 -2.528,3.539 -0.026,-0.268 -0.08,-0.559 -0.181,-0.866 -0.159,-0.489 -0.459,-1.01 -0.873,-1.423 -0.274,-0.277 -0.588,-0.505 -0.916,-0.683 -0.438,-0.239 -0.894,-0.393 -1.366,-0.499 -0.624,-0.136 -1.282,-0.192 -2.026,-0.194 h -0.133 l -0.014,0.002 c -0.751,0.016 -1.466,0.179 -2.136,0.437 -0.703,0.271 -1.36,0.648 -1.967,1.109 -1.209,0.923 -2.235,2.185 -2.893,3.724 -0.149,0.353 -0.278,0.72 -0.384,1.1 l -0.001,0.002 -1.072,-1.94 -1.436,-2.598 h 0.028 l 25.871,-46.981 25.947,46.939 h 0.028 l -1.432,2.601 z m -0.896,9.025 -0.007,0.005 c -0.534,0.581 -0.671,1.058 -0.934,1.058 l -0.16,-0.051 c -0.37,-0.21 -0.44,-0.841 -1.357,-1.683 l -0.286,-0.246 -0.663,-0.422 c -0.218,-0.132 -0.437,-0.266 -0.654,-0.404 -1.154,-0.736 -2.227,-1.586 -2.431,-3.022 l -0.008,-0.007 c -0.544,-5.238 -3.319,-5.375 -3.321,-7.299 0,-0.95 0.513,-1.746 3.03,-1.749 2.41,-0.002 5.433,2.755 5.443,6.274 0.001,0.158 -0.005,0.317 -0.017,0.478 -0.046,0.624 -0.087,1.156 -0.087,1.573 10e-4,0.651 0.105,1.022 0.449,1.022 0.566,-10e-4 1.913,-1.081 3.249,-1.082 0.553,0 1.958,0.256 1.953,1.643 -0.008,2.184 -2.688,2.068 -4.199,3.912 m 7.78,64.669 c 0,0 0,0.001 0,0.001 l 0.001,-0.003 c 0,10e-4 -0.001,0.002 -0.001,0.002 m -3.863,14.97 -1.437,-2.599 -4.534,-8.204 10e-4,-10e-4 c 0.714,-0.343 1.37,-0.693 1.978,-1.06 1.266,-0.766 2.33,-1.615 3.185,-2.605 0.568,-0.657 1.04,-1.373 1.414,-2.123 0.5,-1.004 0.827,-2.059 1.062,-3.161 0.092,-0.436 0.136,-0.871 0.134,-1.294 -0.001,-0.695 -0.116,-1.351 -0.309,-1.957 0.18,-0.075 0.346,-0.161 0.494,-0.253 0.432,-0.27 0.734,-0.571 0.981,-0.86 0.487,-0.581 0.787,-1.148 1.064,-1.698 0.182,-0.367 0.343,-0.724 0.494,-1.055 0.197,-0.439 0.376,-0.836 0.517,-1.104 0.079,-0.152 0.148,-0.262 0.173,-0.298 l 0.003,-0.005 c 0.07,-0.072 0.155,-0.144 0.337,-0.266 0.189,-0.131 0.492,-0.302 0.895,-0.62 0.265,-0.212 0.572,-0.501 0.841,-0.876 0.366,-0.5 0.63,-1.139 0.744,-1.781 0.068,-0.369 0.096,-0.742 0.096,-1.126 10e-4,-0.01 10e-4,-0.021 10e-4,-0.032 -0.003,-0.684 -0.207,-1.405 -0.586,-1.982 -0.38,-0.591 -0.898,-1.015 -1.416,-1.293 -0.346,-0.187 -0.697,-0.315 -1.047,-0.404 -0.465,-0.118 -0.925,-0.167 -1.381,-0.167 l -0.262,0.006 c -0.956,0.043 -1.908,0.29 -2.814,0.763 -0.898,0.474 -1.763,1.2 -2.364,2.229 -0.549,0.946 -0.93,1.978 -1.2,3.031 -0.265,1.054 -0.415,2.122 -0.415,3.159 l 0.003,0.221 c -0.129,-0.013 -0.263,-0.02 -0.4,-0.02 -0.133,0 -0.271,0.007 -0.415,0.023 -0.502,0.053 -1.057,0.235 -1.539,0.555 -0.039,-0.488 -0.165,-0.973 -0.363,-1.418 -0.244,-0.551 -0.589,-1.043 -1.001,-1.473 -0.318,-0.331 -0.704,-0.627 -1.145,-0.837 -0.438,-0.212 -0.924,-0.328 -1.378,-0.349 L 15.74,27.426 c -0.489,0 -0.926,0.097 -1.297,0.226 -0.372,0.13 -0.686,0.294 -0.96,0.461 -0.259,0.16 -0.488,0.324 -0.691,0.485 -0.276,-0.246 -0.595,-0.543 -0.93,-0.855 l -0.083,-0.077 c 0.502,-2.533 0.991,-4.999 1.435,-7.235 l 0.021,-0.103 0.008,-0.07 c 0.083,-0.425 0.166,-0.842 0.247,-1.249 0.973,-0.185 1.895,-0.455 2.761,-0.79 1.394,-0.536 2.643,-1.233 3.749,-1.995 2.211,-1.525 3.86,-3.305 4.984,-4.703 l 0.132,-0.167 2.831,-0.002 0.042,0.002 0.025,0.002 h 0.175 l 0.201,-0.004 25.027,-0.02 v 0.002 l 25.974,46.987 z m 58.878,-97.064 -57.211,0.046 -27.721,-50.148 -27.641,50.192 -57.21,0.046 27.633,49.987 -27.552,50.031 57.21,-0.046 27.721,50.148 27.641,-50.193 57.21,-0.045 -27.633,-49.986 z m 20.722,116.718 0.431,-0.693 c 0.513,-0.825 0.382,-1.452 -0.369,-1.921 l -4.939,-3.077 c -0.264,-0.163 -0.515,-0.246 -0.75,-0.246 -0.409,0 -0.773,0.249 -1.085,0.75 l -0.452,0.725 z M 92.885,11.376 v 0.001 c 0,15.1 -3.604,29.373 -9.997,42.007 l 4.204,7.605 0.984,-1.583 c 3.369,2.83 6.807,5.746 10.133,8.777 0.513,-0.298 1.023,-0.452 1.573,-0.452 0.792,0 1.666,0.321 2.74,0.99 l 4.911,3.058 c 3.121,1.944 3.273,4.277 1.265,7.507 l -2.663,4.283 -23.777,-14.805 2.234,-3.593 10.601,6.604 0.37,-0.593 c -3.015,-2.567 -6.144,-5.003 -9.258,-7.417 l -9.449,0.008 C 61.138,86.713 35.575,102.367 6.32,104.474 l -4.796,8.709 0.379,22.985 3.067,-0.05 0.061,3.708 -10.403,0.166 -0.059,-3.707 3.103,-0.051 -0.392,-23.859 -4.362,-7.89 C -36.346,102.423 -61.931,86.808 -77.583,63.896 l -11.868,0.009 5.72,-10.387 C -90.167,40.851 -93.796,26.53 -93.796,11.376 c 0,-15.101 3.603,-29.373 9.997,-42.006 l -5.737,-10.379 11.868,-0.009 c 15.617,-22.944 41.179,-38.595 70.436,-40.703 l 6.691,-12.149 6.71,12.138 c 29.265,2.062 54.852,17.678 70.503,40.59 l 11.87,-0.01 -5.721,10.389 c 6.436,12.666 10.064,26.985 10.064,42.139 m -15.928,70.936 14.195,12.78 c 0.259,0.234 0.507,0.346 0.742,0.346 0.247,0 0.478,-0.124 0.691,-0.36 0.44,-0.492 0.396,-0.949 -0.137,-1.427 L 78.255,80.871 c -0.264,-0.238 -0.51,-0.357 -0.745,-0.357 -0.239,0 -0.467,0.124 -0.69,0.371 -0.415,0.461 -0.397,0.949 0.137,1.427 m -2.894,-3.91 c 1.271,-1.413 2.556,-2.102 3.834,-2.102 1.07,0 2.136,0.483 3.186,1.427 l 14.194,12.78 c 2.302,2.073 2.4,4.458 0.065,7.053 -1.271,1.413 -2.555,2.102 -3.833,2.102 -1.071,0 -2.136,-0.483 -3.186,-1.428 L 74.127,85.455 C 71.826,83.381 71.728,80.997 74.063,78.402 M -6.213,21.832 c -0.594,-3.12 -1.147,-6.06 -1.599,-8.51 -0.127,-0.687 -0.246,-1.337 -0.357,-1.941 l 2.402,-0.002 0.07,0.109 c 0.846,1.325 1.907,2.553 3.186,3.62 l 0.001,10e-4 -3.703,6.726 z m -87.344,-51.069 0.426,1.71 -0.185,0.385 -12.315,-5.889 2.346,-4.9 3.193,1.528 -0.585,1.225 4.946,2.363 c 0.186,0.089 0.359,0.133 0.519,0.133 0.395,0 0.713,-0.264 0.951,-0.762 0.269,-0.559 0.111,-1.022 -0.533,-1.33 l -17.23,-8.237 c -0.212,-0.102 -0.404,-0.152 -0.576,-0.152 -0.351,0 -0.62,0.207 -0.81,0.605 -0.336,0.702 -0.214,1.232 0.432,1.54 l 4.483,2.146 -1.641,3.428 -4.454,-2.128 c -2.764,-1.323 -3.676,-3.436 -2.169,-6.586 1.05,-2.192 2.493,-3.258 4.206,-3.258 0.748,0 1.547,0.203 2.387,0.604 l 17.199,8.223 c 3.193,1.525 3.378,3.979 2.171,6.501 -0.62,1.295 -1.55,2.526 -2.761,2.851 m -27.043,6.64 -0.216,0.785 c -0.256,0.934 0.048,1.501 0.901,1.734 l 5.611,1.539 c 0.165,0.045 0.319,0.067 0.462,0.067 0.567,0 0.957,-0.355 1.154,-1.071 l 0.226,-0.824 z m 23.427,6.421 -12.041,-3.301 -0.184,0.674 c 3.838,1.695 7.762,3.214 11.651,4.722 l -1.219,4.451 c -4.036,-1.748 -8.16,-3.563 -12.21,-5.518 -0.642,0.681 -1.382,1.016 -2.38,1.016 -0.549,0 -1.177,-0.101 -1.909,-0.302 l -5.578,-1.528 c -3.545,-0.972 -4.353,-3.165 -3.349,-6.832 l 1.332,-4.863 27.006,7.403 z m 117.776,154.406 -4.185,0.621 -4.105,-27.721 4.183,-0.62 z m -90.667,-219.516 5.153,-3.667 1.637,2.302 -5.153,3.668 z m 57.628,192.601 -0.613,3.659 -4.668,-0.779 -1.435,8.594 2.832,0.472 -0.612,3.66 -2.83,-0.473 -1.346,8.057 4.478,0.746 -0.61,3.66 -8.651,-1.443 4.612,-27.628 z M -27.333,-86.237 c -0.19,-0.725 -0.579,-1.072 -1.174,-1.072 -0.162,0 -0.339,0.026 -0.531,0.077 l -0.789,0.206 -0.915,-3.49 1.727,-0.452 -5.662,-21.599 4.055,-1.062 7.103,27.096 -3.642,0.954 z m -21.999,185.493 -5.943,10.904 1.704,0.929 5.943,-10.903 3.679,2.006 -13.397,24.584 -3.681,-2.007 5.682,-10.425 -1.704,-0.929 -5.682,10.425 -3.713,-2.024 13.398,-24.584 z m -56.595,-38.578 -0.362,-0.773 -7.645,3.587 0.348,0.737 c 0.285,0.61 0.661,0.909 1.132,0.909 0.207,0 0.433,-0.058 0.678,-0.173 l 5.271,-2.472 c 0.771,-0.363 0.973,-0.972 0.578,-1.815 m 14.003,-7.511 -11.314,5.306 0.297,0.634 c 4.023,-1.204 7.997,-2.595 11.939,-3.972 l 1.96,4.181 c -4.21,1.288 -8.527,2.585 -12.88,3.728 -0.073,1.448 -0.858,2.417 -2.801,3.327 l -5.24,2.459 c -0.983,0.461 -1.853,0.686 -2.633,0.686 -1.863,0 -3.213,-1.285 -4.351,-3.712 l -2.142,-4.567 25.368,-11.901 z m 80.791,-154.63 c -0.1,-0.274 -0.364,-0.557 -0.856,-0.557 -0.044,0 -0.089,0.002 -0.136,0.006 -0.657,0.066 -0.927,0.47 -0.856,1.18 l 0.793,7.854 c 0.065,0.648 0.357,0.961 0.906,0.961 0.053,0 0.109,-0.003 0.167,-0.009 0.617,-0.061 0.891,-0.433 0.819,-1.142 z m 0.389,13.125 c -0.306,0.031 -0.6,0.046 -0.882,0.046 -2.877,0 -4.461,-1.585 -4.731,-4.267 l -0.842,-8.326 c -0.309,-3.082 0.648,-4.409 3.196,-4.665 0.168,-0.017 0.326,-0.025 0.476,-0.025 0.989,0 1.608,0.338 2.039,0.592 l -0.726,-7.177 c -0.064,-0.651 -0.357,-0.964 -0.881,-0.964 -0.049,0 -0.099,0.002 -0.152,0.008 -0.655,0.066 -0.93,0.436 -0.858,1.147 l 0.486,4.807 -4.133,0.415 -0.485,-4.806 c -0.298,-2.944 1.453,-4.933 4.618,-5.252 0.309,-0.032 0.606,-0.047 0.89,-0.047 2.879,0 4.493,1.583 4.762,4.263 l 1.923,19.024 c 0.294,2.911 -1.262,4.88 -4.7,5.227 M -81.43,82.678 c -2.394,2.782 -4.89,5.553 -7.511,8.336 3.038,-2.321 6.052,-4.516 9.017,-6.666 z m 4.834,-5.614 -2.592,3.068 2.078,2.308 3.27,-2.32 2.83,3.143 -23.243,16.039 -3.274,-3.634 18.206,-21.631 z m -48.1,-52.373 19.929,-8.143 3.761,-0.366 1.01,10.31 -3.762,0.366 -0.582,-5.947 -20.218,7.977 -3.32,0.325 -0.979,-10.001 3.59,-0.351 z m 96.328,83.427 -1.203,3.51 -4.478,-1.536 -7.883,22.989 -4.002,-1.371 9.088,-26.498 z M -119.108,1.557 c 3.776,0.617 7.443,1.304 11.042,1.983 l 0.183,-2.24 c -3.669,0.169 -7.399,0.257 -11.225,0.257 m 18.63,-0.593 -4.015,0.22 -0.252,3.094 3.934,0.785 -0.342,4.215 -27.633,-5.895 0.395,-4.873 28.241,-1.606 z m 4.262,41.502 -3.578,0.974 -1.243,-4.568 -8.406,2.288 0.752,2.771 -3.58,0.974 -0.752,-2.769 -7.881,2.145 1.189,4.38 -3.58,0.974 -2.299,-8.46 27.029,-7.357 z m 125.989,-152.234 -0.345,1.352 c -0.559,2.177 -0.617,3.499 1.095,7.593 1.305,3.183 1.723,5.927 1.079,8.433 l -0.846,3.298 c -0.642,2.507 -2.027,3.682 -4.177,3.682 -0.622,0 -1.308,-0.099 -2.059,-0.291 -3.344,-0.857 -4.614,-2.624 -3.759,-5.954 l 1.219,-4.75 4.059,1.041 -1.237,4.815 c -0.177,0.693 0.04,1.1 0.641,1.254 0.124,0.032 0.239,0.048 0.344,0.048 0.436,0 0.714,-0.273 0.857,-0.83 l 0.745,-2.902 c 0.652,-2.539 0.183,-4.453 -1.116,-7.668 -1.656,-4.01 -1.796,-5.487 -0.943,-8.818 l 1.271,-4.948 9.995,2.565 -0.922,3.594 z M 13.296,31.344 c 0.601,-0.564 1.532,-1.542 2.452,-1.543 0.338,-10e-4 0.673,0.131 0.991,0.462 0.489,0.51 0.714,1.055 0.716,1.581 0.002,0.745 -0.446,1.452 -1.228,1.964 -0.631,0.413 -0.837,1.044 -0.835,1.758 0.002,0.796 0.262,1.694 0.48,2.507 0.153,0.578 0.254,1.381 0.322,2.363 0.002,0.038 0.003,0.075 0.003,0.112 -0.011,1.14 -1.399,1.986 -2.378,1.987 -0.534,0 -0.946,-0.251 -0.947,-0.844 0,-0.009 0,-0.019 10e-4,-0.028 L 12.847,40.901 C 12.777,39.292 12.571,37.709 12.016,36.277 11.432,34.772 10.144,33.193 8.638,31.942 L 8.575,31.848 C 7.959,31.251 6.878,30.501 5.555,30.034 4.812,29.732 4.086,29.553 3.429,29.553 1.45,29.555 0.719,30.44 0.721,31.184 c 0.001,0.376 0.19,0.717 0.501,0.889 0.567,0.315 1.348,1.209 1.346,2.245 -10e-4,0.654 -0.314,1.363 -1.188,2.02 -0.337,0.253 -0.726,0.37 -1.134,0.37 -1.668,0.002 -3.647,-1.959 -3.655,-4.556 -0.004,-1.016 0.295,-2.13 1.032,-3.262 1.331,-2.045 3.201,-2.707 5.036,-2.709 1.242,0 2.468,0.301 3.5,0.681 1.45,0.536 2.406,1.134 3.025,1.674 1.395,1.161 2.945,2.932 3.788,2.932 z m 12.545,-5.611 c 0.705,-1.211 2.159,-1.817 3.386,-1.817 1.119,-0.001 2.049,0.499 2.049,1.504 0.001,2.107 -1.284,1.954 -2.31,3.085 -0.966,1.065 -1.794,4.722 -3.172,4.723 l -0.267,-0.045 c -0.68,-0.226 -0.979,-1.221 -0.978,-2.475 0.002,-1.587 0.486,-3.589 1.291,-4.972 z m -7.674,11.725 c -0.115,-0.423 -0.224,-0.817 -0.296,-1.151 -0.063,-0.285 -0.095,-0.526 -0.103,-0.677 0.238,-0.172 0.463,-0.362 0.671,-0.571 l 0.024,0.179 c 0.042,0.266 0.086,0.504 0.124,0.727 0.077,0.43 0.129,0.803 0.131,1.12 0,0.011 0,0.021 0,0.031 -0.002,0.324 -0.043,0.573 -0.146,0.829 -0.053,0.124 -0.121,0.257 -0.225,0.405 -0.046,-0.298 -0.102,-0.59 -0.18,-0.892 m -97.998,70.296 15.145,-19.009 3.308,2.637 -15.146,19.007 2.397,1.911 -2.313,2.902 -8.133,-6.482 2.312,-2.902 z m 109.917,5.791 c 0.921,2.957 1.582,5.069 2.057,6.99 -0.142,-2.025 -0.378,-4.34 -0.714,-13.759 l 4.593,-1.431 0.216,16.196 7.762,10.67 -4.299,1.34 c -4.891,-7.212 -5.895,-8.862 -6.683,-10.22 0.576,1.46 1.024,2.889 1.945,5.849 l 1.664,5.329 -4.038,1.259 -8.348,-26.752 4.038,-1.259 z M 4.849,20.971 v 0.002 L 3.341,18.245 h 0.002 l 0.143,0.044 H 3.485 c 0.248,0.076 0.514,0.154 0.801,0.229 h 0.002 c 0.2,0.052 0.396,0.1 0.588,0.143 H 4.874 l 0.392,0.086 c -0.135,0.726 -0.275,1.469 -0.417,2.224 m 3.683,5.822 c -0.936,0.001 -2.083,-0.667 -2.083,-1.43 0,-0.065 0.008,-0.13 0.026,-0.196 0.389,-2.051 0.743,-3.999 1.097,-5.898 0.102,-0.553 0.722,-0.781 1.407,-0.782 0.956,-10e-4 2.042,0.444 2.034,1.075 -10e-4,0.037 -0.005,0.074 -0.013,0.112 -0.388,1.794 -0.91,4.293 -1.309,6.307 -0.129,0.58 -0.607,0.812 -1.159,0.812 m -2.635,4.686 c 0.922,0 2.317,1.272 2.314,2.147 0,0.058 -0.006,0.115 -0.02,0.169 -0.625,3.141 -1.388,7.017 -1.966,9.79 C 6.081,44.273 4.868,44.803 3.941,44.804 3.345,44.805 2.868,44.586 2.87,44.05 2.87,43.974 2.88,43.89 2.901,43.8 3.54,41.033 4.407,36.011 5.136,32.2 5.234,31.684 5.528,31.479 5.897,31.479 m 57.756,-113.244 1.669,-2.281 5.106,3.732 -1.668,2.281 z M 8.991,-113.481 c -0.06,-0.004 -0.117,-0.007 -0.172,-0.007 -0.658,0 -0.981,0.319 -1.029,0.976 l -1.426,19.173 c -0.051,0.714 0.271,1.078 1.044,1.137 0.054,0.004 0.106,0.006 0.156,0.006 0.637,0 0.997,-0.314 1.045,-0.974 l 1.424,-19.173 c 0.054,-0.714 -0.308,-1.082 -1.042,-1.138 m 3.802,20.554 c -0.211,2.854 -1.756,4.385 -4.863,4.385 -0.253,0 -0.516,-0.01 -0.79,-0.03 -3.676,-0.274 -5.218,-2.061 -4.988,-5.149 l 1.415,-19.037 c 0.211,-2.853 1.755,-4.383 4.887,-4.383 0.258,0 0.527,0.01 0.806,0.031 3.638,0.27 5.179,2.058 4.949,5.145 z m 3.342,139.375 c -0.815,0.309 -1.767,0.618 -3.528,1.185 -2.753,0.892 -5.24,1.28 -7.737,1.456 -1.165,0.063 -2.286,0.102 -3.206,0.124 l -0.025,0.004 c -0.779,0.012 -1.565,0.018 -2.375,0.019 h -0.03 c -0.853,0 -1.759,-0.028 -2.702,-0.088 -1.034,-0.051 -1.836,-0.14 -2.94,-0.283 -2.531,-0.325 -5.191,-0.881 -7.718,-1.729 -1.112,-0.298 -2.008,-2.107 -2.006,-3.101 0.001,-0.389 0.139,-0.653 0.455,-0.654 0.099,0 0.212,0.025 0.344,0.08 l 1.617,0.621 c 1.733,0.65 3.488,1.152 6.303,1.624 l 0.228,0.067 c 1.06,0.24 2.329,0.305 3.274,0.37 l 0.057,-0.006 c 0.987,0.075 2.013,0.119 3.088,0.119 h 0.027 c 1.087,-10e-4 2.143,-0.041 3.175,-0.108 0.728,-0.062 2.296,-0.076 3.293,-0.332 2.65,-0.365 5.044,-0.939 7.118,-1.643 l 0.006,-0.002 v -0.013 c 0.737,-0.2 1.923,-0.604 3.418,-1.406 1.307,-0.664 2.389,-1.379 3.199,-2.113 1.301,-1.179 1.629,-2.408 1.63,-3.516 10e-4,-1.118 -0.331,-2.113 -0.332,-2.809 0,-0.328 0.073,-0.59 0.289,-0.767 0.202,-0.166 0.448,-0.243 0.717,-0.243 1.315,-0.001 3.177,1.837 3.172,4.026 0,0.258 -0.027,0.521 -0.083,0.787 -0.818,3.854 -2.719,5.963 -8.728,8.331 m 34.026,63.531 -3.572,1.883 -2.774,-5.267 c -1.364,-2.588 -0.748,-4.834 2.408,-6.501 1.14,-0.6 2.143,-0.884 3.026,-0.884 1.59,0 2.784,0.924 3.662,2.588 l 1.871,3.551 c 1.126,2.137 1.174,3.726 0.406,7.094 -0.826,3.512 -1.157,4.379 -0.492,5.645 l 1.935,3.67 c 0.176,0.335 0.397,0.499 0.686,0.499 0.178,0 0.383,-0.062 0.619,-0.187 0.617,-0.326 0.765,-0.712 0.479,-1.253 l -2.393,-4.544 3.432,-1.811 2.394,4.545 c 1.443,2.739 0.906,4.715 -2.286,6.397 -1.143,0.603 -2.167,0.907 -3.078,0.907 -1.522,0 -2.726,-0.849 -3.63,-2.563 l -1.95,-3.701 c -1.11,-2.107 -0.979,-4.021 -0.276,-6.931 0.935,-3.723 1.115,-4.548 0.431,-5.841 l -1.855,-3.522 c -0.179,-0.338 -0.421,-0.508 -0.729,-0.508 -0.185,0 -0.394,0.062 -0.626,0.184 -0.583,0.307 -0.749,0.742 -0.465,1.283 z M -25.1,14.727 c -0.006,-8.016 -5.965,-6.367 -5.968,-8.833 0,-1.256 1.079,-1.803 2.294,-1.804 0.773,-10e-4 1.6,0.219 2.24,0.619 0.978,0.609 1.642,1.238 2.107,1.237 0.317,0 0.54,-0.294 0.706,-1.086 0.407,-1.936 1.016,-5.342 2.273,-10.157 l 0.78,-2.851 c 0.07,-0.265 0.179,-0.384 0.31,-0.384 0.576,0 1.585,2.25 1.583,4.349 -0.001,0.497 -0.058,0.986 -0.192,1.434 -0.669,2.747 -2.542,11.04 -2.744,14.557 -0.005,0.096 -0.008,0.19 -0.008,0.281 -0.007,3.226 3.299,2.808 3.301,5.407 0.003,2.672 -1.953,0.104 -1.948,3.907 0.002,3.802 1.04,16.647 2.482,20.859 0.269,0.899 0.728,2.691 1.237,3.904 4.633,11.609 13.954,21.775 15.925,21.773 C 1.802,67.937 9.549,58.703 11.96,50.645 l 0.099,-0.225 c 0.465,-1.313 1.841,-2.222 2.807,-2.223 0.58,0 1.012,0.325 1.012,1.086 0,0.149 -0.017,0.315 -0.052,0.499 -0.052,0.269 -0.077,0.522 -0.077,0.76 0.002,1.213 0.645,2.045 1.534,2.63 0.931,0.613 1.297,1.175 1.3,1.632 0.005,0.713 -0.872,1.171 -1.859,1.172 h -0.009 c -0.223,0 -0.45,-0.024 -0.676,-0.073 -0.2,-0.045 -0.383,-0.068 -0.556,-0.068 -1.025,10e-4 -1.601,0.843 -2.832,3.024 -1.437,2.545 -9.587,12.776 -13.37,12.78 -3.782,0.003 -13.554,-10.574 -18.495,-22.388 -0.75,-1.794 -1.408,-3.713 -1.984,-5.694 -0.371,-1.229 -0.779,-2.974 -1.34,-5.333 -2.078,-9.636 -2.558,-19.532 -2.562,-23.497"
             style="fill:#ffffff;fill-opacity:1;fill-rule:nonzero;stroke:none"
             id="path22" /></g><g
           id="g24"
           transform="translate(142.1877,130.3553)"><path
             d="m 0,0 0.011,-0.067 0.006,-0.035 c 0.139,-0.931 0.416,-1.573 0.732,-2.043 0.317,-0.469 0.681,-0.779 1.075,-1 L 1.843,-3.156 1.846,-3.158 2.042,-3.253 2.096,-3.277 2.267,-3.345 2.366,-3.378 2.524,-3.425 2.613,-3.446 2.608,-3.444 2.619,-3.448 2.768,-3.48 H 2.77 l 0.021,-0.002 0.097,-0.013 0.004,-0.002 0.13,-0.017 0.193,-0.009 h 0.037 l 0.035,-10e-4 0.004,-10e-4 0.144,0.003 -0.217,0.296 c -0.219,0.332 -0.384,0.709 -0.488,1.089 -0.119,0.438 -0.166,0.878 -0.165,1.324 0,0.008 0,0.017 0,0.026 10e-4,0.267 0.033,0.534 0.093,0.792 C 1.814,0.003 0.924,0.001 0,0 m -0.793,-29.495 -0.055,0.001 c -0.657,0.002 -1.29,0.023 -1.906,0.052 -0.208,0.009 -0.432,0.018 -0.671,0.032 l -0.008,0.001 c -0.305,0.019 -0.604,0.041 -0.903,0.066 l 0.241,-0.329 c 0.977,-1.336 1.872,-2.436 2.604,-3.244 0.3,-0.332 0.574,-0.616 0.807,-0.839 0.447,0.391 1.044,0.999 1.7,1.76 0.647,0.746 1.359,1.642 2.102,2.653 -0.275,-0.028 -0.547,-0.051 -0.823,-0.07 -0.941,-0.065 -1.901,-0.082 -3.057,-0.082 z m -26.89,42.163 c 0.12,0.529 0.201,1.206 0.201,2.061 0.002,2.071 0.126,5.586 0.513,9.835 0.098,1.066 0.212,2.178 0.344,3.322 -0.444,-0.837 -0.875,-1.697 -1.289,-2.573 -1.737,-3.673 -3.179,-7.647 -4.042,-11.435 -0.192,-0.836 -0.356,-1.665 -0.487,-2.477 l 4.287,-0.004 c 0.179,0.304 0.341,0.701 0.473,1.271 M 2.042,-3.254 v 10e-4 l -0.01,0.004 z m -4.376,2.804 -0.041,0.35 c 0,0.987 -0.927,1.472 -1.856,1.472 -0.932,10e-4 -1.864,-0.485 -1.866,-1.439 -0.004,-5.858 6.211,-9.736 9.34,-9.739 3.444,-0.003 7.144,2.153 7.149,6.88 C 10.393,-0.264 8.668,0.77 7.158,0.771 5.988,0.772 4.947,0.15 4.947,-0.815 4.944,-3.024 6.847,-2.101 6.846,-3.437 6.844,-4.772 5.715,-5.9 3.254,-5.9 H 3.247 c -2.194,0.001 -4.991,1.474 -5.581,5.45 m 9.788,-23.219 c -10e-4,0.374 -0.184,0.628 -0.605,0.629 l -0.343,-0.045 c -2.246,-0.53 -4.597,-1.002 -7.285,-1.002 h -0.017 l -0.318,0.001 c -1.991,0.002 -2.85,0.015 -4.977,0.543 l -1.225,0.317 c -0.203,0.04 -0.382,0.059 -0.536,0.059 -0.59,0.001 -0.828,-0.273 -0.831,-0.67 -0.008,-0.994 1.458,-2.764 2.534,-2.937 1.585,-0.191 3.639,-0.342 5.352,-0.344 0.061,0 0.121,0 0.18,0 2.237,0 3.455,0.053 5.381,0.411 1.462,0.272 2.693,2.064 2.69,3.038 m -31.471,4.55 c 1.025,-0.001 1.844,1.271 1.845,2.415 0,0.589 -0.216,1.144 -0.731,1.474 l -0.596,0.501 c -6.914,5.935 -11.735,13.889 -11.73,21.448 0.009,9.659 4.073,20.328 9.721,27.699 v 0 c 0.651,0.719 1.626,3.625 1.622,5.246 -0.002,0.659 -0.166,1.105 -0.579,1.105 -0.312,0 -0.771,-0.256 -1.408,-0.872 -8.31,-8.001 -11.947,-19.412 -13.201,-24.388 -2.063,-8.169 -5.164,-7.78 -5.165,-9.022 0,-1.533 2.985,-0.803 6.486,-8.603 2.409,-5.37 7.053,-12.004 12.781,-16.627 0.325,-0.263 0.649,-0.376 0.955,-0.376 M -43.543,11.41 c 0.829,1.13 1.646,2.57 2.151,4.653 0.199,0.826 0.47,1.822 0.818,2.946 0.734,2.451 1.805,5.53 3.344,8.793 1.539,3.261 3.548,6.711 6.176,9.897 2.187,2.767 4.771,5.341 7.824,7.379 0.489,1.601 1.033,3.166 1.644,4.668 v 0.002 l -3.335,6.057 -1.433,2.601 -53.872,0.042 25.899,-47.028 v -0.002 z m 118.897,99.153 0.736,-0.569 c 0.796,-0.618 0.892,-1.252 0.351,-1.951 l -2.918,-3.767 c -0.283,-0.364 -0.599,-0.549 -0.952,-0.549 -0.299,0 -0.624,0.133 -0.976,0.406 l -0.766,0.593 z m -14.887,-19.206 8.153,10.518 0.765,-0.593 c 1.402,-1.088 2.662,-1.642 3.824,-1.642 1.329,0 2.532,0.723 3.677,2.201 l 2.814,3.631 c 2.126,2.744 1.697,5.101 -1.339,7.454 l -4.076,3.16 L 57.126,93.948 Z M -2.797,51.146 c 0.664,1.822 1.541,3.872 2.065,3.87 0.54,0 1.225,-2.077 1.886,-3.913 0.122,-0.444 0.962,-0.728 1.728,-0.729 h 0.005 c 0.687,0 1.314,0.229 1.314,0.773 0,0.083 -0.014,0.173 -0.046,0.272 -1.358,3.905 -3.352,6.872 -4.884,6.873 -1.543,0.002 -3.664,-3.408 -5.028,-7.347 -0.017,-0.052 -0.025,-0.101 -0.025,-0.148 -0.004,-0.375 0.508,-0.559 1.111,-0.559 0.783,-10e-4 1.719,0.308 1.874,0.908 m -22.639,-77.935 c 0.666,0 1.336,0.269 1.909,0.537 0.575,0.269 1.053,0.538 1.335,0.538 0.344,0 0.447,-0.371 0.447,-1.022 0,-0.417 -0.042,-0.95 -0.089,-1.573 -0.013,-0.161 -0.018,-0.32 -0.018,-0.478 0.004,-3.52 3.023,-6.281 5.433,-6.283 h 0.01 c 2.509,0 3.023,0.795 3.023,1.745 10e-4,2.004 -3.016,2.057 -3.371,7.966 -0.019,0.319 -0.027,0.674 -0.027,1.056 0,0.174 10e-4,0.354 0.004,0.539 -0.006,0.334 -0.009,0.664 -0.009,0.991 -0.002,4.899 0.662,8.994 1.496,12.751 l 0.034,-0.019 c 0.84,5.159 1.846,9.919 2.533,11.707 0.234,0.613 2.839,0.717 6.618,0.723 C -4.967,2.388 -3.33,2.355 -2.4,2.353 l 0.003,0.026 c 0.531,-0.002 1.07,-0.003 1.623,-0.004 0.119,0 0.239,0 0.357,0 0.751,0 1.482,0.002 2.188,0.003 0.764,0.002 1.498,0.004 2.197,0.004 4.1,-0.003 6.963,-0.09 7.21,-0.736 0.849,-2.226 2.189,-9.056 3.086,-15.53 -0.863,-2.122 -1.869,-4.383 -3.013,-6.667 -0.253,-0.505 -0.513,-1.006 -0.776,-1.5 -0.712,-1.374 -2.238,-3.92 -2.238,-3.92 -3.716,-6.072 -7.653,-10.552 -9.043,-10.55 -0.928,0 -4.566,3.975 -8.443,10.282 -0.612,0.981 -1.411,2.379 -2.502,4.366 0,0 -1.892,3.719 -2.314,4.836 -0.153,0.366 -0.307,0.526 -0.455,0.526 -0.438,10e-4 -0.809,-1.405 -0.81,-2.978 -10e-4,-0.993 0.146,-2.052 0.516,-2.867 1.154,-2.544 1.48,-2.764 1.48,-2.764 4.358,-8.277 9.34,-15.252 12.525,-15.254 3.167,-0.003 8.343,7.81 12.778,15.715 2.365,4.17 4.342,8.034 6.133,11.72 0.792,1.609 1.41,2.895 1.79,3.685 1.332,2.769 1.993,5.349 1.996,7.209 0.004,1.591 -0.474,2.655 -1.422,2.862 -0.19,0.041 -0.368,0.061 -0.534,0.061 -1.395,0.001 -1.986,-1.365 -1.987,-2.834 0,-0.022 0,-0.045 0,-0.07 0,-0.78 -0.017,-3.008 -1.285,-5.256 -1.445,6.171 -3.219,14.649 -3.725,17.02 l -0.197,0.679 c -0.103,0.672 -1.265,1.181 -2.241,1.182 -0.73,0 -1.357,-0.283 -1.36,-0.992 C 9.136,10.498 9.15,10.38 9.181,10.251 L 9.407,9.34 C 9.637,8.009 9.769,7.166 9.769,6.991 9.768,5.547 8.414,5.457 0.845,5.457 c -0.511,0 -1.048,0.001 -1.617,0.001 -0.374,0 -0.729,10e-4 -1.077,0.002 -1.31,0 -2.795,0.018 -3.81,0.018 -4.71,0.062 -5.652,0.325 -5.65,1.53 10e-4,1.048 4.699,25.563 6.865,36.506 0.013,0.089 0.019,0.173 0.019,0.252 -0.004,0.769 -0.595,1.109 -1.277,1.109 -0.845,0 -1.83,-0.523 -1.989,-1.395 -2.048,-11.163 -6.318,-31.6 -6.699,-33.345 -0.349,-1.601 -2.134,-10.101 -3.644,-16.578 l -0.002,0.006 c -0.465,-2.008 -1.315,-5.336 -1.315,-5.336 -0.078,-0.283 -0.153,-0.551 -0.221,-0.789 -0.206,-0.704 -0.456,-1.561 -0.746,-2.471 l -0.027,-0.149 c -0.503,-2.003 -1.092,-3.66 -2.274,-5.269 -0.426,-0.663 -0.886,-1.198 -1.38,-1.51 -2.108,-1.335 -3.393,-1.796 -3.394,-3.183 -10e-4,-1.388 1.397,-1.645 1.952,-1.645 z m 12.351,15.323 v -0.006 l -0.078,-0.482 c -0.051,-0.329 -0.101,-0.658 -0.149,-0.987 0.759,-1.888 1.58,-3.701 2.433,-5.43 l 0.049,-0.095 0.011,-0.028 c 0.247,-0.501 0.496,-0.993 0.745,-1.473 1.135,-0.408 2.283,-0.746 3.437,-1.019 l -0.001,0.001 c 0.409,-0.096 0.796,-0.184 1.159,-0.255 h 0.002 l 0.241,-0.043 0.002,-10e-4 c 0.395,-0.073 0.792,-0.136 1.192,-0.191 l -0.001,0.001 0.003,-0.001 h -0.002 c 0.132,-0.018 0.253,-0.034 0.364,-0.048 l 0.003,-0.001 c 0.358,-0.044 0.725,-0.078 1.1,-0.108 l 0.001,-10e-4 c 0.174,-0.013 0.296,-0.025 0.363,-0.028 l 10e-4,-10e-4 c 0.485,-0.03 0.957,-0.049 1.414,-0.049 h 0.018 c 1.271,0 2.443,0.072 3.575,0.201 0.739,0.101 1.474,0.242 2.358,0.451 l 0.11,0.025 0.045,0.006 c 1.125,0.281 2.361,0.645 3.576,1.082 0.08,0.153 0.158,0.306 0.235,0.459 l 0.428,-0.214 -0.428,0.214 c 1.008,2.012 1.907,4.012 2.694,5.911 -0.176,1.237 -0.368,2.484 -0.568,3.702 l -0.002,0.004 -0.538,0.979 -0.002,-10e-4 C 9.567,-10.245 8.09,-11.145 6.56,-11.652 5.488,-12.006 4.381,-12.176 3.289,-12.181 l -0.071,-0.003 -0.117,0.007 -0.02,10e-4 c -0.225,0.004 -0.468,0.017 -0.723,0.044 -0.238,0.026 -0.381,0.056 -0.442,0.064 l 0.004,-0.001 -0.008,0.001 h 0.004 l -0.009,10e-4 c -0.07,0.012 -0.217,0.03 -0.432,0.072 -0.24,0.048 -0.425,0.098 -0.56,0.132 l -0.006,0.002 c -0.047,0.012 -0.157,0.037 -0.324,0.085 -0.243,0.07 -0.455,0.144 -0.64,0.209 l 0.015,-0.006 -0.021,0.008 -0.234,0.084 c -0.255,0.096 -0.492,0.198 -0.718,0.301 l -0.012,0.005 -0.127,0.059 -0.009,0.004 c -0.273,0.128 -0.537,0.265 -0.796,0.409 l -0.005,0.004 -0.01,0.005 -0.037,0.021 0.006,-0.003 c -1.688,0.954 -3.329,2.395 -4.548,4.382 -0.682,1.109 -1.224,2.385 -1.566,3.808 v 0.002 z m 12.629,-112.963 c -74.883,0 -135.805,60.921 -135.805,135.805 0,74.884 60.922,135.807 135.805,135.807 74.884,0 135.806,-60.923 135.806,-135.807 0,-74.884 -60.922,-135.805 -135.806,-135.805 m 101.178,114.217 c -2.139,0 -3.549,-1.359 -4.258,-4.05 -0.871,-3.301 0.198,-5.389 3.293,-6.205 l 22.784,-6.012 1.069,4.051 -22.785,6.012 c -0.691,0.183 -0.931,0.608 -0.773,1.208 0.123,0.471 0.407,0.727 0.858,0.727 0.124,0 0.26,-0.02 0.409,-0.059 l 22.786,-6.009 1.077,4.088 -22.784,6.011 c -0.602,0.159 -1.16,0.238 -1.676,0.238 m -1.448,7.892 3.695,-0.317 0.408,4.716 24.208,-2.08 0.366,4.216 -27.906,2.398 z m -5.265,-30.452 0.441,0.95 8.114,-3.781 -0.458,-0.985 c -0.172,-0.368 -0.419,-0.554 -0.75,-0.554 -0.176,0 -0.375,0.052 -0.599,0.157 l -6.202,2.888 c -0.617,0.287 -0.824,0.727 -0.546,1.325 m 11.027,-5.182 0.459,0.986 7.62,-3.55 -0.441,-0.952 c -0.183,-0.393 -0.451,-0.581 -0.789,-0.581 -0.175,0 -0.368,0.05 -0.578,0.148 l -5.705,2.659 c -0.649,0.304 -0.828,0.728 -0.566,1.29 m -14.39,6.748 c -1.474,-3.163 -0.93,-5.385 2.063,-6.78 l 6.324,-2.947 c 0.498,-0.232 0.974,-0.333 1.41,-0.333 0.808,0 1.48,0.346 1.904,0.842 -0.051,-1.002 0.736,-1.969 1.909,-2.514 l 5.245,-2.445 c 1.016,-0.473 1.921,-0.721 2.731,-0.721 1.599,0 2.827,0.967 3.805,3.069 l 2.225,4.781 -25.39,11.831 z M -16.522,15.387 c -0.309,-0.62 -0.722,-1.086 -1.087,-1.427 -0.246,-0.228 -0.476,-0.409 -0.677,-0.562 -0.268,-0.204 -0.484,-0.361 -0.636,-0.487 -0.21,-0.171 -0.292,-0.273 -0.329,-0.332 L -19.3,12.466 c -0.019,-0.061 -0.043,-0.168 -0.043,-0.367 l 0.004,-0.155 c 0.008,-0.157 0.024,-0.343 0.046,-0.554 l 2.731,-0.002 c 0.048,0.238 0.107,0.523 0.172,0.847 0.169,0.83 0.389,1.93 0.651,3.232 0.523,2.603 1.205,6.012 1.941,9.691 0.497,2.485 1.019,5.093 1.533,7.66 l 0.002,0.002 -3.828,6.951 V 39.77 c -0.076,-0.344 -0.15,-0.714 -0.223,-1.105 -0.226,-1.219 -0.44,-2.648 -0.632,-4.153 -0.386,-3.012 -0.687,-6.336 -0.864,-8.996 -0.119,-1.771 -0.182,-3.264 -0.182,-4.115 0,-0.14 0.003,-0.261 0.009,-0.365 l 0.218,-0.111 c 0.292,-0.158 0.639,-0.418 0.913,-0.758 0.32,-0.387 0.527,-0.843 0.641,-1.26 0.131,-0.483 0.168,-0.935 0.169,-1.413 v -0.035 c -10e-4,-0.73 -0.172,-1.465 -0.48,-2.072 m 116.082,6.311 6.036,0.533 c 3.084,0.275 5.288,0.468 7.244,0.758 -1.925,-0.637 -4.155,-1.301 -12.989,-4.575 l 0.424,-4.791 15.053,5.965 12.817,-3.112 -0.396,4.482 c -8.529,1.777 -10.436,2.076 -11.992,2.29 1.569,0.022 3.061,0.152 6.148,0.427 l 5.559,0.492 -0.372,4.21 -27.905,-2.467 z m -7.385,28.879 1.567,-3.929 22.568,9.005 1.136,-2.848 3.445,1.375 -3.852,9.658 -3.446,-1.376 1.15,-2.882 z M 32.665,-1.916 c -0.203,0.304 -0.483,0.596 -0.8,0.904 -1.124,1.19 -2.568,2.704 -2.743,5.092 -0.009,0.158 -0.021,0.313 -0.021,0.481 0,1.218 0.723,2.504 0.727,3.373 0.002,0.634 -0.378,1.045 -1.701,1.046 -0.564,0 -1.07,-0.346 -1.536,-0.692 -0.467,-0.347 -0.894,-0.694 -1.3,-0.693 -0.26,0 -0.512,0.142 -0.761,0.515 -0.987,1.485 -5.543,8.253 -13.032,8.764 -0.351,0.012 -0.652,0.018 -0.948,0.018 H 10.529 C 9.863,16.892 9.214,16.86 8.057,16.781 1.511,16.133 -2.653,12.84 -4.833,8.043 -4.868,7.946 -4.885,7.853 -4.885,7.763 -4.887,7.034 -3.803,6.556 -2.774,6.555 c 0.769,0 1.506,0.264 1.741,0.886 1.789,3.667 5.214,5.281 9.763,5.679 0.408,0.029 0.792,0.039 1.157,0.039 0.888,-0.001 1.663,-0.07 2.379,-0.138 l -0.007,0.033 c 6.691,-1.166 11.55,-9 11.543,-15.785 -0.003,-4.723 -1.599,-9.425 -4.776,-13.209 0,0 -0.516,-1.139 -1.64,-2.001 l -0.153,-0.139 -0.056,-0.059 c -0.572,-0.633 -1.313,-2.111 -1.316,-2.943 -0.002,-0.358 0.133,-0.596 0.477,-0.596 0.253,0 0.621,0.13 1.134,0.439 l 0.258,0.164 c 0.208,0.172 0.411,0.346 0.607,0.52 0.688,0.609 1.294,1.22 1.777,1.8 5.339,5.963 6.666,13.381 6.669,16.073 0,0.884 0.358,1.223 0.865,1.223 0.847,-10e-4 2.113,-0.949 2.828,-1.888 l -10e-4,-0.006 c 0.492,-0.7 1.099,-1.018 1.616,-1.019 0.621,-0.001 1.11,0.461 1.107,1.274 l -0.042,0.306 c -0.078,0.288 -0.255,0.575 -0.491,0.876 M 22.497,-30.3 v -0.003 c -0.222,-1.247 -0.709,-2.383 -1.348,-3.351 -0.889,-1.344 -2.061,-2.396 -3.401,-3.077 -0.863,-0.433 -1.809,-0.716 -2.823,-0.739 l -0.017,-10e-4 -0.13,10e-4 h -0.001 c -0.627,0.002 -1.192,0.043 -1.728,0.137 -0.542,0.097 -1.059,0.249 -1.555,0.502 -0.331,0.168 -0.649,0.385 -0.932,0.652 -0.379,0.355 -0.678,0.8 -0.86,1.241 -0.217,0.521 -0.287,1.012 -0.301,1.427 -1.161,-1.757 -2.322,-3.37 -3.471,-4.747 -0.902,-1.079 -1.792,-2.014 -2.718,-2.774 -0.532,-0.433 -1.078,-0.812 -1.677,-1.116 -0.657,-0.329 -1.399,-0.581 -2.247,-0.601 l -0.02,-10e-4 h -0.153 l -0.014,10e-4 c -0.804,0.016 -1.53,0.233 -2.185,0.533 -0.678,0.314 -1.297,0.724 -1.9,1.204 -1.201,0.961 -2.35,2.21 -3.52,3.692 -0.838,1.067 -1.685,2.256 -2.528,3.539 -0.026,-0.268 -0.08,-0.559 -0.181,-0.866 -0.159,-0.489 -0.459,-1.01 -0.873,-1.423 -0.274,-0.277 -0.588,-0.505 -0.916,-0.683 -0.438,-0.239 -0.894,-0.393 -1.366,-0.499 -0.624,-0.136 -1.282,-0.192 -2.026,-0.194 h -0.133 l -0.014,0.002 c -0.751,0.016 -1.466,0.179 -2.136,0.437 -0.703,0.271 -1.36,0.648 -1.967,1.109 -1.209,0.923 -2.235,2.185 -2.893,3.724 -0.149,0.353 -0.278,0.72 -0.384,1.1 l -0.001,0.002 -1.072,-1.94 -1.436,-2.598 h 0.028 l 25.871,-46.981 25.947,46.939 h 0.028 l -1.432,2.601 z m -0.896,9.025 -0.007,0.005 c -0.534,0.581 -0.671,1.058 -0.934,1.058 l -0.16,-0.051 c -0.37,-0.21 -0.44,-0.841 -1.357,-1.683 l -0.286,-0.246 -0.663,-0.422 c -0.218,-0.132 -0.437,-0.266 -0.654,-0.404 -1.154,-0.736 -2.227,-1.586 -2.431,-3.022 l -0.008,-0.007 c -0.544,-5.238 -3.319,-5.375 -3.321,-7.299 0,-0.95 0.513,-1.746 3.03,-1.749 2.41,-0.002 5.433,2.755 5.443,6.274 0.001,0.158 -0.005,0.317 -0.017,0.478 -0.046,0.624 -0.087,1.156 -0.087,1.573 10e-4,0.651 0.105,1.022 0.449,1.022 0.566,-10e-4 1.913,-1.081 3.249,-1.082 0.553,0 1.958,0.256 1.953,1.643 -0.008,2.184 -2.688,2.068 -4.199,3.912 m 7.78,64.669 c 0,0 0,0.001 0,0.001 l 0.001,-0.003 c 0,10e-4 -0.001,0.002 -0.001,0.002 m -3.863,14.97 -1.437,-2.599 -4.535,-8.204 0.002,-10e-4 c 0.714,-0.343 1.37,-0.693 1.978,-1.06 1.266,-0.766 2.33,-1.615 3.185,-2.605 0.568,-0.657 1.04,-1.373 1.414,-2.123 0.5,-1.004 0.827,-2.059 1.062,-3.161 0.092,-0.436 0.136,-0.871 0.134,-1.294 -0.001,-0.695 -0.116,-1.351 -0.309,-1.957 0.18,-0.075 0.346,-0.161 0.494,-0.253 0.432,-0.27 0.734,-0.571 0.981,-0.86 0.487,-0.581 0.787,-1.148 1.064,-1.698 0.182,-0.367 0.343,-0.724 0.494,-1.055 0.197,-0.439 0.376,-0.836 0.517,-1.104 0.079,-0.152 0.148,-0.262 0.173,-0.298 l 0.003,-0.005 c 0.07,-0.072 0.155,-0.144 0.337,-0.266 0.189,-0.131 0.492,-0.302 0.895,-0.62 0.265,-0.212 0.571,-0.501 0.841,-0.876 0.366,-0.5 0.63,-1.139 0.744,-1.781 0.068,-0.369 0.096,-0.742 0.096,-1.126 10e-4,-0.01 10e-4,-0.021 10e-4,-0.032 -0.003,-0.684 -0.207,-1.405 -0.586,-1.982 -0.38,-0.591 -0.898,-1.015 -1.416,-1.293 -0.346,-0.187 -0.697,-0.315 -1.047,-0.404 -0.465,-0.118 -0.925,-0.167 -1.381,-0.167 l -0.262,0.006 c -0.956,0.043 -1.908,0.29 -2.814,0.763 -0.898,0.474 -1.764,1.2 -2.364,2.229 -0.549,0.946 -0.93,1.978 -1.2,3.031 -0.265,1.054 -0.415,2.122 -0.415,3.159 l 0.003,0.221 c -0.129,-0.013 -0.263,-0.02 -0.4,-0.02 -0.133,0 -0.271,0.007 -0.415,0.023 -0.502,0.053 -1.057,0.235 -1.539,0.555 -0.039,-0.488 -0.165,-0.973 -0.363,-1.418 -0.244,-0.551 -0.589,-1.043 -1.001,-1.473 -0.318,-0.331 -0.704,-0.627 -1.145,-0.837 -0.438,-0.212 -0.924,-0.328 -1.378,-0.349 L 15.74,27.426 c -0.489,0 -0.926,0.097 -1.297,0.226 -0.372,0.13 -0.686,0.294 -0.96,0.461 -0.259,0.16 -0.488,0.324 -0.691,0.485 -0.276,-0.246 -0.595,-0.543 -0.93,-0.855 l -0.083,-0.077 c 0.502,-2.533 0.991,-4.999 1.435,-7.235 l 0.021,-0.103 0.008,-0.07 c 0.083,-0.425 0.166,-0.842 0.247,-1.249 0.973,-0.185 1.895,-0.455 2.761,-0.79 1.394,-0.536 2.643,-1.233 3.749,-1.995 2.211,-1.525 3.86,-3.305 4.984,-4.703 l 0.132,-0.167 2.831,-0.002 0.042,0.002 0.025,0.002 h 0.175 l 0.201,-0.004 25.027,-0.02 v 0.002 l 25.974,46.987 z m 58.878,-97.064 -57.211,0.046 -27.721,-50.148 -27.641,50.192 -57.21,0.046 27.633,49.987 -27.552,50.031 57.21,-0.046 27.721,50.148 27.641,-50.193 57.21,-0.045 -27.633,-49.986 z m 20.722,116.718 0.431,-0.693 c 0.513,-0.825 0.382,-1.452 -0.369,-1.921 l -4.939,-3.077 c -0.264,-0.163 -0.515,-0.246 -0.75,-0.246 -0.409,0 -0.773,0.249 -1.085,0.75 l -0.452,0.725 z M 92.885,11.376 v 0.001 c 0,15.1 -3.604,29.373 -9.997,42.007 l 4.204,7.605 0.984,-1.583 c 3.369,2.83 6.807,5.746 10.133,8.777 0.513,-0.298 1.023,-0.452 1.573,-0.452 0.792,0 1.666,0.321 2.74,0.99 l 4.911,3.058 c 3.121,1.944 3.273,4.277 1.265,7.507 l -2.663,4.283 -23.777,-14.805 2.234,-3.593 10.601,6.604 0.37,-0.593 c -3.015,-2.567 -6.144,-5.003 -9.258,-7.417 l -9.449,0.008 C 61.138,86.713 35.575,102.367 6.32,104.474 l -4.796,8.709 0.379,22.985 3.067,-0.05 0.061,3.708 -10.403,0.166 -0.059,-3.707 3.103,-0.051 -0.392,-23.859 -4.362,-7.89 C -36.346,102.423 -61.931,86.808 -77.583,63.896 l -11.868,0.009 5.72,-10.387 C -90.167,40.851 -93.796,26.53 -93.796,11.376 c 0,-15.101 3.603,-29.373 9.997,-42.006 l -5.737,-10.379 11.868,-0.009 c 15.617,-22.944 41.179,-38.595 70.436,-40.703 l 6.691,-12.149 6.71,12.138 c 29.265,2.062 54.852,17.678 70.503,40.59 l 11.87,-0.01 -5.721,10.389 c 6.436,12.666 10.064,26.985 10.064,42.139 m -15.928,70.936 14.195,12.78 c 0.259,0.234 0.507,0.346 0.742,0.346 0.247,0 0.478,-0.124 0.691,-0.36 0.44,-0.492 0.396,-0.949 -0.137,-1.427 L 78.255,80.871 c -0.264,-0.238 -0.51,-0.357 -0.745,-0.357 -0.239,0 -0.467,0.124 -0.69,0.371 -0.415,0.461 -0.397,0.949 0.137,1.427 m -2.894,-3.91 c 1.271,-1.413 2.556,-2.102 3.834,-2.102 1.07,0 2.136,0.483 3.185,1.427 l 14.195,12.78 c 2.302,2.073 2.4,4.458 0.065,7.053 -1.271,1.413 -2.555,2.102 -3.833,2.102 -1.071,0 -2.136,-0.483 -3.186,-1.428 L 74.127,85.455 C 71.826,83.381 71.728,80.997 74.063,78.402 M -6.213,21.832 c -0.594,-3.12 -1.147,-6.06 -1.599,-8.51 -0.127,-0.687 -0.246,-1.337 -0.357,-1.941 l 2.402,-0.002 0.07,0.109 c 0.846,1.325 1.907,2.553 3.186,3.62 l 0.001,10e-4 -3.703,6.726 z m -87.344,-51.069 0.426,1.71 -0.185,0.385 -12.315,-5.889 2.346,-4.9 3.193,1.528 -0.585,1.225 4.946,2.363 c 0.186,0.089 0.359,0.133 0.519,0.133 0.395,0 0.713,-0.264 0.951,-0.762 0.269,-0.559 0.111,-1.022 -0.533,-1.33 l -17.23,-8.237 c -0.212,-0.102 -0.404,-0.152 -0.576,-0.152 -0.351,0 -0.62,0.207 -0.81,0.605 -0.336,0.702 -0.214,1.232 0.432,1.54 l 4.483,2.146 -1.641,3.428 -4.454,-2.128 c -2.764,-1.323 -3.676,-3.436 -2.169,-6.586 1.05,-2.192 2.493,-3.258 4.206,-3.258 0.748,0 1.547,0.203 2.387,0.604 l 17.199,8.223 c 3.193,1.525 3.378,3.979 2.171,6.501 -0.621,1.295 -1.55,2.526 -2.761,2.851 m -27.043,6.64 -0.216,0.785 c -0.256,0.934 0.048,1.501 0.901,1.734 l 5.611,1.539 c 0.165,0.045 0.319,0.067 0.462,0.067 0.567,0 0.957,-0.355 1.154,-1.071 l 0.226,-0.824 z m 23.427,6.421 -12.041,-3.301 -0.184,0.674 c 3.838,1.695 7.762,3.214 11.651,4.722 l -1.219,4.451 c -4.036,-1.748 -8.16,-3.563 -12.21,-5.518 -0.642,0.681 -1.382,1.016 -2.38,1.016 -0.549,0 -1.177,-0.101 -1.909,-0.302 l -5.578,-1.528 c -3.545,-0.972 -4.353,-3.165 -3.349,-6.832 l 1.332,-4.863 27.006,7.403 z m 117.776,154.406 -4.185,0.621 -4.105,-27.721 4.183,-0.62 z m -90.667,-219.516 5.153,-3.667 1.637,2.302 -5.153,3.668 z m 57.628,192.601 -0.613,3.659 -4.668,-0.779 -1.435,8.594 2.832,0.472 -0.612,3.66 -2.83,-0.473 -1.346,8.057 4.478,0.746 -0.61,3.66 -8.651,-1.443 4.612,-27.628 z M -27.333,-86.237 c -0.19,-0.725 -0.579,-1.072 -1.174,-1.072 -0.162,0 -0.339,0.026 -0.531,0.077 l -0.789,0.206 -0.915,-3.49 1.727,-0.452 -5.662,-21.599 4.055,-1.062 7.103,27.096 -3.642,0.954 z m -21.999,185.493 -5.943,10.904 1.704,0.929 5.943,-10.903 3.679,2.006 -13.397,24.584 -3.681,-2.007 5.682,-10.425 -1.704,-0.929 -5.682,10.425 -3.713,-2.024 13.398,-24.584 z m -56.595,-38.578 -0.362,-0.773 -7.645,3.587 0.348,0.737 c 0.285,0.61 0.661,0.909 1.132,0.909 0.207,0 0.433,-0.058 0.678,-0.173 l 5.271,-2.472 c 0.771,-0.363 0.973,-0.972 0.578,-1.815 m 14.003,-7.511 -11.314,5.306 0.297,0.634 c 4.023,-1.204 7.997,-2.595 11.939,-3.972 l 1.96,4.181 c -4.21,1.288 -8.527,2.585 -12.88,3.728 -0.073,1.448 -0.858,2.417 -2.801,3.327 l -5.24,2.459 c -0.983,0.461 -1.853,0.686 -2.633,0.686 -1.863,0 -3.213,-1.285 -4.351,-3.712 l -2.142,-4.567 25.368,-11.901 z m 80.791,-154.63 c -0.1,-0.274 -0.364,-0.557 -0.856,-0.557 -0.044,0 -0.089,0.002 -0.136,0.006 -0.657,0.066 -0.927,0.47 -0.856,1.18 l 0.793,7.854 c 0.065,0.648 0.357,0.961 0.906,0.961 0.053,0 0.109,-0.003 0.167,-0.009 0.617,-0.061 0.891,-0.433 0.819,-1.142 z m 0.389,13.125 c -0.306,0.031 -0.6,0.046 -0.882,0.046 -2.877,0 -4.461,-1.585 -4.731,-4.267 l -0.842,-8.326 c -0.309,-3.082 0.648,-4.409 3.196,-4.665 0.168,-0.017 0.326,-0.025 0.476,-0.025 0.989,0 1.608,0.338 2.039,0.592 l -0.726,-7.177 c -0.064,-0.651 -0.357,-0.964 -0.881,-0.964 -0.049,0 -0.099,0.002 -0.152,0.008 -0.655,0.066 -0.93,0.436 -0.858,1.147 l 0.486,4.807 -4.133,0.415 -0.485,-4.806 c -0.298,-2.944 1.453,-4.933 4.618,-5.252 0.309,-0.032 0.606,-0.047 0.89,-0.047 2.879,0 4.493,1.583 4.762,4.263 l 1.923,19.024 c 0.294,2.911 -1.262,4.88 -4.7,5.227 M -81.43,82.678 c -2.394,2.782 -4.89,5.553 -7.511,8.336 3.038,-2.321 6.052,-4.516 9.017,-6.666 z m 4.834,-5.614 -2.592,3.068 2.078,2.308 3.27,-2.32 2.83,3.143 -23.243,16.039 -3.274,-3.634 18.206,-21.631 z m -48.1,-52.373 19.929,-8.143 3.761,-0.366 1.01,10.31 -3.762,0.366 -0.582,-5.947 -20.218,7.977 -3.32,0.325 -0.979,-10.001 3.59,-0.351 z m 96.328,83.427 -1.203,3.51 -4.478,-1.536 -7.883,22.989 -4.002,-1.371 9.088,-26.498 z M -119.108,1.557 c 3.776,0.617 7.443,1.304 11.042,1.983 l 0.183,-2.24 c -3.669,0.169 -7.399,0.257 -11.225,0.257 m 18.63,-0.593 -4.015,0.22 -0.252,3.094 3.934,0.785 -0.342,4.215 -27.633,-5.895 0.395,-4.873 28.241,-1.606 z m 4.262,41.502 -3.578,0.974 -1.243,-4.568 -8.406,2.288 0.752,2.771 -3.58,0.974 -0.752,-2.769 -7.881,2.145 1.189,4.38 -3.58,0.974 -2.299,-8.46 27.029,-7.357 z m 125.989,-152.234 -0.345,1.352 c -0.559,2.177 -0.617,3.499 1.095,7.593 1.305,3.183 1.723,5.927 1.079,8.433 l -0.846,3.298 c -0.642,2.507 -2.027,3.682 -4.177,3.682 -0.622,0 -1.308,-0.099 -2.059,-0.291 -3.344,-0.857 -4.614,-2.624 -3.759,-5.954 l 1.219,-4.75 4.059,1.041 -1.237,4.815 c -0.177,0.693 0.04,1.1 0.641,1.254 0.124,0.032 0.239,0.048 0.344,0.048 0.436,0 0.714,-0.273 0.857,-0.83 l 0.745,-2.902 c 0.652,-2.539 0.183,-4.453 -1.116,-7.668 -1.656,-4.01 -1.796,-5.487 -0.943,-8.818 l 1.271,-4.948 9.995,2.565 -0.922,3.594 z M 13.296,31.344 c 0.601,-0.564 1.532,-1.542 2.452,-1.543 0.338,-10e-4 0.673,0.131 0.991,0.462 0.489,0.51 0.714,1.055 0.716,1.581 0.002,0.745 -0.446,1.452 -1.228,1.964 -0.631,0.413 -0.837,1.044 -0.835,1.758 0.002,0.796 0.262,1.694 0.48,2.507 0.153,0.578 0.254,1.381 0.322,2.363 0.002,0.038 0.003,0.075 0.003,0.112 -0.011,1.14 -1.399,1.986 -2.378,1.987 -0.534,0 -0.946,-0.251 -0.947,-0.844 0,-0.009 0,-0.019 10e-4,-0.028 L 12.847,40.901 C 12.777,39.292 12.571,37.709 12.016,36.277 11.432,34.772 10.144,33.193 8.638,31.942 L 8.575,31.848 C 7.959,31.251 6.878,30.501 5.555,30.034 4.812,29.732 4.086,29.553 3.429,29.553 1.45,29.555 0.719,30.44 0.721,31.184 c 0.001,0.376 0.19,0.717 0.501,0.889 0.567,0.315 1.348,1.209 1.346,2.245 -10e-4,0.654 -0.314,1.363 -1.188,2.02 -0.337,0.253 -0.726,0.37 -1.134,0.37 -1.668,0.002 -3.647,-1.959 -3.655,-4.556 -0.004,-1.016 0.295,-2.13 1.032,-3.262 1.331,-2.045 3.201,-2.707 5.036,-2.709 1.242,0 2.468,0.301 3.5,0.681 1.45,0.536 2.406,1.134 3.025,1.674 1.395,1.161 2.945,2.932 3.788,2.932 z m 12.545,-5.611 c 0.705,-1.211 2.159,-1.817 3.386,-1.817 1.119,-0.001 2.049,0.499 2.049,1.504 0.001,2.107 -1.284,1.954 -2.31,3.085 -0.966,1.065 -1.794,4.722 -3.172,4.723 l -0.267,-0.045 c -0.68,-0.226 -0.979,-1.221 -0.978,-2.475 0.002,-1.587 0.486,-3.589 1.291,-4.972 z m -7.674,11.725 c -0.115,-0.423 -0.224,-0.817 -0.296,-1.151 -0.063,-0.285 -0.095,-0.526 -0.103,-0.677 0.238,-0.172 0.463,-0.362 0.671,-0.571 l 0.024,0.179 c 0.042,0.266 0.086,0.504 0.124,0.727 0.077,0.43 0.129,0.803 0.131,1.12 0,0.011 0,0.021 0,0.031 -0.002,0.324 -0.043,0.573 -0.146,0.829 -0.053,0.124 -0.121,0.257 -0.225,0.405 -0.046,-0.298 -0.102,-0.59 -0.18,-0.892 m -97.998,70.296 15.145,-19.009 3.308,2.637 -15.146,19.007 2.397,1.911 -2.313,2.902 -8.133,-6.482 2.312,-2.902 z m 109.917,5.791 c 0.921,2.957 1.582,5.069 2.057,6.99 -0.142,-2.025 -0.378,-4.34 -0.714,-13.759 l 4.593,-1.431 0.216,16.196 7.762,10.67 -4.299,1.34 c -4.891,-7.212 -5.895,-8.862 -6.683,-10.22 0.576,1.46 1.024,2.889 1.945,5.849 l 1.664,5.329 -4.038,1.259 -8.348,-26.752 4.038,-1.259 z M 4.849,20.971 v 0.002 L 3.341,18.245 h 0.002 l 0.143,0.044 H 3.484 c 0.249,0.076 0.515,0.154 0.802,0.229 h 0.002 c 0.2,0.052 0.396,0.1 0.588,0.143 H 4.874 l 0.392,0.086 c -0.135,0.726 -0.275,1.469 -0.417,2.224 m 3.683,5.822 c -0.936,0.001 -2.083,-0.667 -2.083,-1.43 0,-0.065 0.008,-0.13 0.026,-0.196 0.389,-2.051 0.743,-3.999 1.097,-5.898 0.102,-0.553 0.722,-0.781 1.407,-0.782 0.956,-10e-4 2.042,0.444 2.034,1.075 -10e-4,0.037 -0.005,0.074 -0.013,0.112 -0.388,1.794 -0.91,4.293 -1.309,6.307 -0.129,0.58 -0.607,0.812 -1.159,0.812 m -2.635,4.686 c 0.922,0 2.317,1.272 2.314,2.147 0,0.058 -0.007,0.115 -0.02,0.169 -0.625,3.141 -1.388,7.017 -1.966,9.79 C 6.081,44.273 4.868,44.803 3.941,44.804 3.345,44.805 2.868,44.586 2.87,44.05 2.87,43.974 2.88,43.89 2.901,43.8 3.54,41.033 4.407,36.011 5.136,32.2 5.234,31.684 5.528,31.479 5.897,31.479 m 57.756,-113.244 1.669,-2.281 5.106,3.732 -1.668,2.281 z M 8.991,-113.481 c -0.06,-0.004 -0.117,-0.007 -0.172,-0.007 -0.658,0 -0.981,0.319 -1.029,0.976 l -1.426,19.173 c -0.051,0.714 0.271,1.078 1.044,1.137 0.054,0.004 0.106,0.006 0.156,0.006 0.637,0 0.997,-0.314 1.045,-0.974 l 1.424,-19.173 c 0.054,-0.714 -0.308,-1.082 -1.042,-1.138 m 3.802,20.554 c -0.211,2.854 -1.756,4.385 -4.863,4.385 -0.253,0 -0.516,-0.01 -0.79,-0.03 -3.676,-0.274 -5.218,-2.061 -4.988,-5.149 l 1.415,-19.037 c 0.211,-2.853 1.755,-4.383 4.887,-4.383 0.258,0 0.527,0.01 0.806,0.031 3.638,0.27 5.179,2.058 4.949,5.145 z m 3.341,139.375 c -0.814,0.309 -1.766,0.618 -3.527,1.185 -2.753,0.892 -5.24,1.28 -7.737,1.456 -1.165,0.063 -2.286,0.102 -3.206,0.124 l -0.025,0.004 c -0.779,0.012 -1.565,0.018 -2.375,0.019 h -0.03 c -0.853,0 -1.759,-0.028 -2.702,-0.088 -1.034,-0.051 -1.836,-0.14 -2.94,-0.283 -2.531,-0.325 -5.191,-0.881 -7.718,-1.729 -1.112,-0.298 -2.008,-2.107 -2.006,-3.101 0.001,-0.389 0.139,-0.653 0.455,-0.654 0.099,0 0.212,0.025 0.344,0.08 l 1.617,0.621 c 1.733,0.65 3.488,1.152 6.303,1.624 l 0.228,0.067 c 1.06,0.24 2.329,0.305 3.274,0.37 l 0.057,-0.006 c 0.987,0.075 2.013,0.119 3.088,0.119 h 0.027 c 1.087,-10e-4 2.143,-0.041 3.175,-0.108 0.728,-0.062 2.296,-0.076 3.293,-0.332 2.65,-0.365 5.044,-0.939 7.118,-1.643 l 0.006,-0.002 v -0.013 c 0.737,-0.2 1.923,-0.604 3.418,-1.406 1.307,-0.664 2.389,-1.379 3.199,-2.113 1.301,-1.179 1.629,-2.408 1.63,-3.516 10e-4,-1.118 -0.331,-2.113 -0.332,-2.809 0,-0.328 0.073,-0.59 0.289,-0.767 0.202,-0.166 0.448,-0.243 0.717,-0.243 1.315,-0.001 3.177,1.837 3.172,4.026 0,0.258 -0.027,0.521 -0.083,0.787 -0.818,3.854 -2.719,5.963 -8.729,8.331 m 34.027,63.531 -3.572,1.883 -2.774,-5.267 c -1.364,-2.588 -0.748,-4.834 2.408,-6.501 1.14,-0.6 2.143,-0.884 3.026,-0.884 1.59,0 2.784,0.924 3.662,2.588 l 1.871,3.551 c 1.126,2.137 1.174,3.726 0.406,7.094 -0.826,3.512 -1.157,4.379 -0.492,5.645 l 1.935,3.67 c 0.176,0.335 0.397,0.499 0.686,0.499 0.178,0 0.383,-0.062 0.619,-0.187 0.617,-0.326 0.765,-0.712 0.479,-1.253 l -2.393,-4.544 3.432,-1.811 2.394,4.545 c 1.443,2.739 0.906,4.715 -2.286,6.397 -1.143,0.603 -2.167,0.907 -3.078,0.907 -1.522,0 -2.726,-0.849 -3.63,-2.563 l -1.95,-3.701 c -1.11,-2.107 -0.979,-4.021 -0.276,-6.931 0.935,-3.723 1.115,-4.548 0.431,-5.841 l -1.855,-3.522 c -0.179,-0.338 -0.421,-0.508 -0.729,-0.508 -0.185,0 -0.394,0.062 -0.626,0.184 -0.583,0.307 -0.749,0.742 -0.465,1.283 z M -25.1,14.727 c -0.006,-8.016 -5.965,-6.367 -5.968,-8.833 0,-1.256 1.079,-1.803 2.294,-1.804 0.773,-10e-4 1.6,0.219 2.24,0.619 0.978,0.609 1.642,1.238 2.107,1.237 0.317,0 0.54,-0.294 0.706,-1.086 0.407,-1.936 1.015,-5.342 2.273,-10.157 l 0.78,-2.851 c 0.07,-0.265 0.179,-0.384 0.31,-0.384 0.576,0 1.585,2.25 1.583,4.349 -0.001,0.497 -0.058,0.986 -0.192,1.434 -0.669,2.747 -2.542,11.04 -2.744,14.557 -0.005,0.096 -0.008,0.19 -0.008,0.281 -0.007,3.226 3.299,2.808 3.301,5.407 0.003,2.672 -1.953,0.104 -1.949,3.907 0.003,3.802 1.041,16.647 2.483,20.859 0.269,0.899 0.728,2.691 1.237,3.904 4.633,11.609 13.954,21.775 15.925,21.773 C 1.802,67.937 9.549,58.703 11.96,50.645 l 0.099,-0.225 c 0.465,-1.313 1.841,-2.222 2.807,-2.223 0.58,0 1.012,0.325 1.012,1.086 0,0.149 -0.017,0.315 -0.052,0.499 -0.052,0.269 -0.077,0.522 -0.077,0.76 0.002,1.213 0.645,2.045 1.534,2.63 0.931,0.613 1.297,1.175 1.3,1.632 0.005,0.713 -0.872,1.171 -1.859,1.172 h -0.009 c -0.223,0 -0.45,-0.024 -0.676,-0.073 -0.2,-0.045 -0.383,-0.068 -0.556,-0.068 -1.025,10e-4 -1.601,0.843 -2.832,3.024 -1.437,2.545 -9.587,12.776 -13.37,12.78 -3.782,0.003 -13.554,-10.574 -18.495,-22.388 -0.75,-1.794 -1.408,-3.713 -1.984,-5.694 -0.371,-1.229 -0.779,-2.974 -1.34,-5.333 -2.078,-9.636 -2.558,-19.532 -2.562,-23.497"
             style="fill:#bf1b2c;fill-opacity:1;fill-rule:nonzero;stroke:none"
             id="path26" /></g></g></g></g></svg>
