<?xml version="1.0" encoding="UTF-8"?>
<svg id="Calque_2" data-name="Calque 2" xmlns="http://www.w3.org/2000/svg" viewBox="0 0 830.37 830.37">
  <defs>
    <style>
      .cls-1 {
        fill: #164194;
      }

      .cls-2 {
        fill: #fff;
      }
    </style>
  </defs>
  <g id="Foreground">
    <g>
      <rect class="cls-1" width="830.37" height="830.37"/>
      <path class="cls-2" d="M366.16,196.64h31.68v-26.05h-31.68v-10.62c0-5.79,2.4-8.68,9.82-8.68h21.87v-27.02h-26.38c-20.43,0-33.28,14.8-33.28,34.41v78.16h27.98v-40.2h-.01Z"/>
      <path class="cls-2" d="M493.08,124.27h-16.88c-30.25,0-52.11,25.41-52.11,56.29s21.86,56.29,52.11,56.29h16.88v-27.01h-11.75c-15.74,0-27.98-9.51-27.98-29.28s12.24-29.28,27.98-29.28h11.75v-27.01Z"/>
      <path class="cls-2" d="M137.77,354.57v-58h6.87c4.53,0,6.01,3.26,6.01,6.64s-3.28,5.59-9.09,5.59v15.39c7.48,0,12.13,1.48,12.13,6.75s-3.37,6.54-12.13,6.54v17.09h9.18c13.07,0,22.78-7.81,22.78-21.09,0-8.02-3.17-14.88-10.76-18.47,3.58-2.31,7.06-8.52,7.06-13.28,0-10.97-6.42-22.25-24.15-22.25-15.8,0-26.24.02-26.24.02l-.02,75.07h18.36Z"/>
      <path class="cls-2" d="M229.61,336.85h-12.55c-7.38,0-9.38-1.81-9.38-7.82v-48.29h-18.34v49.98c0,17.07,8.43,23.82,26.25,23.82h14.03v-17.7h-.01Z"/>
      <path class="cls-2" d="M261.76,354.57v-49.35c0-5.48,2.97-9.07,7.49-9.07s7.49,3.59,7.49,9.07v6.95h-11.49v16.67h11.49v25.73h18.35v-48.52c0-15.82-10.44-26.57-25.84-26.57s-25.84,10.75-25.84,26.57v48.52h18.35Z"/>
      <path class="cls-2" d="M313.11,280.75v47.13c0,16.87,9.91,27.95,26.88,27.95s26.9-11.08,26.9-27.95v-47.13h-18.36v48.6c0,5.4-2.53,8.77-8.54,8.77s-8.53-3.37-8.53-8.77v-48.6h-18.35Z"/>
      <path class="cls-2" d="M423.8,280.75v51.99c0,12.65,7.81,23.08,24.04,23.08,6.22,0,12.66-2.1,16.13-7.17,3.48,5.07,9.9,7.17,16.13,7.17,16.24,0,24.04-10.44,24.04-23.08v-51.99h-18.36v48.93c0,5.9-1.99,8.44-6.31,8.44s-6.32-2.54-6.32-8.44v-48.93h-18.36v48.93c0,5.9-1.99,8.44-6.31,8.44s-6.34-2.54-6.34-8.44v-48.93h-18.35,0Z"/>
      <path class="cls-2" d="M564.89,280.75h-10.45c-19.8,0-33.72,16.45-33.72,36.91s13.92,36.89,33.72,36.89h10.45v-17.07c-16.56,0-19.71-1.05-24.58-11.82h24.58v-16.02h-24.58c4.65-9.92,7.6-11.82,24.58-11.82v-17.07Z"/>
      <rect class="cls-2" x="581.77" y="280.73" width="18.36" height="73.82"/>
      <path class="cls-2" d="M656.62,280.75h-19.18c-11.52,0-22.36,5.48-22.36,20.87,0,17.73,26.47,24.04,26.47,31.86,0,2.75-2.64,4-6.87,4h-19.08v17.07h19.71c23.63,0,26.05-12.65,26.05-22.14,0-17.29-27.51-25.29-27.51-31.52,0-2.2,1.9-3.06,4.22-3.06h18.55v-17.07h0Z"/>
      <path class="cls-2" d="M715.69,280.75h-19.19c-11.5,0-22.35,5.48-22.35,20.87,0,17.73,26.47,24.04,26.47,31.86,0,2.75-2.64,4-6.87,4h-19.08v17.07h19.71c23.62,0,26.05-12.65,26.05-22.14,0-17.29-27.51-25.29-27.51-31.52,0-2.2,1.9-3.06,4.21-3.06h18.56v-17.07h0Z"/>
      <path class="cls-2" d="M761.79,66.22H70.91v690.88h690.88V66.22ZM768.44,763.74H64.29V59.59h704.15v704.15Z"/>
      <path class="cls-2" d="M142.33,406.29s167.14-6.23,274.03-6.23,274.02,6.23,274.02,6.23c0,0-167.14,6.24-274.02,6.24s-274.03-6.24-274.03-6.24"/>
      <path class="cls-2" d="M189.31,501.81h44.72v89.32c0,6.77,1.09,11.35,3.3,13.76,2.2,2.43,6.65,3.64,13.34,3.64h11.09v43.62h-20.69c-16.58,0-29.41-4.89-38.44-14.65-8.88-9.46-13.32-22.54-13.32-39.21v-96.48h0Z"/>
      <rect class="cls-2" x="301.23" y="463.75" width="44.72" height="226.5"/>
      <path class="cls-2" d="M393.23,690.27v-167.12c.01-18.03,1.44-30.44,12.84-44.44,11.52-14.17,23.26-21.58,41.52-21.64,18.34-.05,30.25,7.36,41.8,21.64,11.33,14.01,12.54,26.44,12.54,44.44v167.12h-44.73v-166.35c0-9.18-3.11-13.78-9.67-13.75-6.54.02-9.6,4.57-9.6,13.75v166.35h-44.71.01Z"/>
      <path class="cls-2" d="M650.54,609.22h-53.28l44.05-55c8.58-10.29,9.23-15.9,9.23-22.55,0-22.13-16.12-29.86-32.44-29.86h-71.54v42.97h47.69l-46.18,55c-8.6,10.31-9.23,15.89-9.23,22.57,0,22.13,16.1,29.85,32.43,29.85h79.26v-42.97h0Z"/>
    </g>
  </g>
</svg>