<svg xmlns="http://www.w3.org/2000/svg" width="316.22776601683796" height="316.22776601683796" viewBox="0 0 448 448">
  <defs>
    <style>
      .cls-1 {
        fill: #000;
      }

      .cls-1, .cls-2, .cls-3 {
        stroke-width: 0px;
      }

      .cls-2 {
        fill: #ff4100;
      }

      .cls-3 {
        fill: #fff;
      }
    </style>
  </defs>
  <circle class="cls-3" cx="224" cy="224" r="224"/>
  <path class="cls-2" d="M448,222h-20.02c-.51-53.74-21.67-104.19-59.73-142.25-38.53-38.53-89.76-59.75-144.25-59.75s-105.72,21.22-144.25,59.75c-38.06,38.06-59.21,88.51-59.73,142.25H0v4h20.02c.51,53.74,21.67,104.19,59.73,142.25,38.53,38.53,89.76,59.75,144.25,59.75s105.72-21.22,144.25-59.75c38.06-38.06,59.21-88.51,59.73-142.25h20.02v-4ZM82.6,82.6c37.77-37.77,87.99-58.57,141.4-58.57s103.63,20.8,141.4,58.57c37.3,37.3,58.03,86.73,58.55,139.4H24.05c.51-52.67,21.25-102.1,58.55-139.4ZM365.4,365.4c-37.77,37.77-87.99,58.57-141.4,58.57s-103.63-20.8-141.4-58.57c-37.3-37.3-58.03-86.73-58.55-139.4h399.89c-.51,52.67-21.25,102.1-58.55,139.4Z"/>
  <g>
    <g>
      <path class="cls-1" d="M116.74,133.82c25.73-30.58,64.26-50.05,107.26-50.05s81.53,19.47,107.26,50.05H116.74ZM362.75,203.91h40.38c-4.46-40.56-22.4-78.13-51.67-107.4-34.04-34.04-79.29-52.78-127.42-52.78s-93.39,18.74-127.42,52.78c-29.27,29.27-47.22,66.84-51.67,107.4h40.38c1.5-10.42,4.15-20.47,7.81-30.03h261.8c3.66,9.55,6.32,19.61,7.82,30.03"/>
      <path class="cls-1" d="M362.72,243.91c-4.19,30.08-18.47,57.8-38.84,78.32-23.91-14.81-75.63-46.82-99.88-61.83h0l-99.88,61.83c-20.36-20.52-34.65-48.24-38.84-78.32h-40.38c5.38,51.12,33.72,98.34,75.74,127.58l103.36-63.98c24.06,14.89,79.9,49.46,103.36,63.98,42.02-29.24,70.36-76.46,75.74-127.58h-40.38Z"/>
    </g>
    <g>
      <path class="cls-1" d="M196.41,392.13v3.26h-19.39v-3.26h7.01v-20.32h-7.49v-2.86c5.64,0,7.71-1.28,7.71-4.41h3.35v27.59h8.82Z"/>
      <path class="cls-1" d="M211.57,383.88l-.18-.18c-.71.31-1.85.53-2.82.53-5.86,0-10.18-4.32-10.18-10.09s4.54-10.18,10.36-10.18,10.27,4.36,10.27,10.18c0,2.12-.66,4.06-1.59,5.73l-8.68,15.52h-4.06l6.88-11.5ZM215.4,374.14c0-3.84-2.64-6.83-6.66-6.83s-6.7,3.04-6.7,6.83,2.64,6.88,6.7,6.88,6.66-3.13,6.66-6.88Z"/>
      <path class="cls-1" d="M224.08,386.17v-12.43c0-6.13,4.94-9.79,9.96-9.79s9.96,3.66,9.96,9.79v12.43c0,6.13-4.94,9.79-9.96,9.79s-9.96-3.66-9.96-9.79ZM240.48,385.95v-11.99c0-3.75-2.73-6.61-6.44-6.61s-6.44,2.86-6.44,6.61v11.99c0,3.79,2.69,6.61,6.44,6.61s6.44-2.82,6.44-6.61ZM231.57,379.87c0-1.37,1.15-2.47,2.51-2.47s2.47,1.1,2.47,2.47-1.1,2.47-2.47,2.47-2.51-1.1-2.51-2.47Z"/>
      <path class="cls-1" d="M251.28,387.37h3.35c.57,3.39,3.13,5.29,6.52,5.29,3.7,0,6.7-2.87,6.7-7.01s-2.82-6.74-7.05-6.74c-3.44,0-5.11,2.16-5.64,3.04h-3.26l1.06-17.41h16.57v3.26h-13.44l-.66,9.92h.26s1.9-2.07,5.73-2.07c5.86,0,10.05,4.63,10.05,10,0,5.86-4.5,10.31-10.18,10.31-5.33,0-9.61-3.39-10.01-8.59Z"/>
    </g>
  </g>
</svg>