<svg fill-rule="evenodd" height="359.693706" viewBox="0 0 438.07184 566.95857" width="278.014317" xmlns="http://www.w3.org/2000/svg"><g transform="translate(-78.59115 -137.45963)"><path d="m333.512 156.145c86.902 43.545 122.062 149.333 78.516 236.235-.851 1.7-1.735 3.372-2.634 5.032 6.547 2.799 13.172 5.409 19.834 7.839 20.67 7.538 43.234 13.995 65.083 16.844l4.521.589 17.831 77.081-3.649 2.539c-39.472 27.468-66.079 73.895-86.088 116.488-12.305 26.196-31.912 49.093-56.157 64.947-11.961 7.821-25.06 13.772-38.942 17.232-31.587 7.875-62.837 1.887-90.846-14.182-25.831-14.82-49.045-31.17-63.609-57.821-7.823-14.317-12.32-29.789-13.502-46.054-2.272-31.235 7.797-62.331 22.442-89.558 2.589-4.815 5.164-9.677 7.692-14.583-6.141-2.262-12.222-4.876-18.211-7.877-86.9023-43.545-122.0624-149.333-78.5166-236.235 43.5456-86.902 149.3336-122.062 236.2356-78.516z"/><g fill="#fff"><path d="m308.874 205.313c59.752 29.94 83.927 102.678 53.986 162.429-.726 1.449-1.477 2.877-2.253 4.283-1.59-.983-3.173-1.981-4.748-2.993 5.315-8.943 9.377-18.696 11.706-29.324 2.184-9.965 3.565-20.904 3.201-30.599-.861-22.963-9.176-43.628-22.972-61.517-15.516-20.121-38.711-35.212-66.168-41.394-28.694-6.459-58.729-1.489-83.016 11.05-21.148 10.283-33.566 23.563-45.06 44.023-4.902 8.655-8.833 17.982-11.139 28.043-5.758 25.118-2.334 54.2 8.882 72.793 3.86 6.399 6.017 13.339 10.598 19.243 2.596 3.345 6.383 6.16 9.476 9.08 8.554 8.075 16.254 14.153 28.557 20.825 5.857 3.176 12.602 6.207 19.513 8.648-.373 1.155-.754 2.304-1.14 3.445-.573 1.688-1.163 3.373-1.769 5.055-5.442-1.811-10.82-4.03-16.098-6.675-59.751-29.94-83.926-102.678-53.986-162.43 29.941-59.751 102.679-83.926 162.43-53.985z"/><path d="m199.337 218.72c-1.455.708-2.867 1.43-4.241 2.168 6.418.241 12.743.825 19.055.994 4.95-1.508 10.208-2.607 15.18-3.495 8.166-1.457 16.504-2.414 24.787-2.843 1.01-.053 2.021-.097 3.032-.132 3.549-2.445 10.167-6.409 15.336-9.223-24.825-3.553-50.897 1.043-73.149 12.531zm-43.993 42.714-.365.645c-4.91 8.669-8.739 17.876-10.968 27.602-4.706 20.528-3.549 46.914 5.926 66.469 2.245-7.936 5.586-18.034 7.455-25.321.047-10.556.482-21.279 1.612-31.719.862-7.964 2.097-15.942 3.725-23.808-2.462-4.744-4.924-9.208-7.385-13.868zm21.755 132.014c1.202 1.061 2.42 2.102 3.66 3.119 6.259 5.136 12.835 9.387 19.948 13.245 5.978 3.241 12.545 6.184 19.225 8.54 5.954-18.867 9.9-39.599 7.083-59.185l-.723-5.023 20.759-8.723-26.346-10.612c-1.804 1.231-3.623 2.438-5.417 3.629-5.638 3.746-11.346 7.401-17.104 10.959-2.886 1.784-5.788 3.544-8.71 5.267-.258 9.008.49 24.796 2.633 39.959-4.589-.012-10.38-.481-15.008-1.175zm177.377-25.311c3.492-5.884 6.402-12.072 8.626-18.569-4.469 5.436-10.286 10.823-16.44 13.319 2.577 1.791 5.184 3.541 7.814 5.25zm-9.458-6.403c-.127-12.423-5.874-33.521-8.088-40.38-5.002.378-10.151.372-15.082.215-7.983-.254-16.028-1-23.91-2.291-.645-.106-1.289-.216-1.932-.329l-6.152 8.484 12.095-5.082 3.114 3.666c11.413 13.437 25.167 25.279 39.955 35.717zm23.823-57.259c-1.725-20.629-9.634-39.395-22.347-55.881-8.417-10.914-18.911-20.013-30.672-27.03 4.503 5.735 8.73 14.512 8.414 24.454 13.465 8.951 22.612 23.939 27.245 39.29 5.971 3.334 12.24 10.687 17.36 19.167zm-49.795-59.64c-10.07-3.015-22.08-3.578-31.573-.432-1.678 4.513-3.523 8.985-5.44 13.371-2.499 5.715-5.182 11.371-8.065 16.915l22.455 42.667c.593.104 1.186.204 1.78.301 7.812 1.28 15.786 2.02 23.697 2.272 5.176.164 10.602.161 15.833-.286 7-9.688 10.876-19.498 12.415-33.057-4.899-16.828-15.35-33.416-31.102-41.751zm-160.617 86.146c9.315 11.03 22.241 18.64 30.737 21.959 2.735-1.618 5.452-3.269 8.155-4.939 5.743-3.55 11.436-7.195 17.059-10.93 1.965-1.306 3.963-2.631 5.937-3.987-1.074-16.587-.186-34.246 4.66-48.045-9.789-7.939-19.363-16.634-27.687-25.952-10.552 5.119-22.25 10.717-33.431 16.616-1.471 7.787-2.374 15.747-3.223 23.583-1.141 10.531-2.061 21.102-2.207 31.695zm58.205-108.112c-7.769 9.763-17.209 23.096-18.606 34.578 8.492 9.587 18.338 18.521 28.392 26.648 11.55-4.389 32.146-9.02 46.254-10.477 2.804-5.411 5.418-10.928 7.854-16.501 1.786-4.085 3.508-8.244 5.09-12.441l-28.292-27.628c-1.042.036-2.082.081-3.122.135-8.216.426-16.486 1.375-24.585 2.82-4.239.757-8.698 1.67-12.985 2.866z"/><path d="m176.495 438.593c.913 1.839 1.468 3.839 1.337 5.907-.133 1.933-.806 3.683-1.935 5.258-1.285 1.794-2.981 3.09-5.032 3.905-2.214.885-4.528.94-6.842.419-2.574-.594-4.929-1.751-7.07-3.285-2.276-1.63-4.313-3.599-5.767-6.007-1.285-2.118-1.969-4.424-1.85-6.906.124-2.429.918-4.679 2.255-6.709l.218-.33 5.127 3.109-.195.347c-1.071 1.9-1.691 4.029-1.125 6.194.602 2.337 2.56 4.196 4.457 5.554 1.81 1.297 4.309 2.744 6.622 2.604 1.675-.106 3.097-.724 4.087-2.106.783-1.094 1.074-2.284.789-3.605-.395-1.925-3.53-5.525-4.811-6.975-1.903-2.161-4.441-4.998-5.864-7.502-1.144-2.057-1.952-4.356-1.868-6.738.085-2.218.859-4.226 2.148-6.025 1.366-1.908 3.167-3.271 5.344-4.146 2.338-.939 4.788-1.07 7.257-.614 2.744.516 5.252 1.711 7.512 3.33 2.578 1.847 5.094 4.126 6.716 6.88 1.412 2.372 2.096 4.931 1.964 7.688-.135 2.758-1.057 5.316-2.61 7.597l-.216.317-5.089-2.999.194-.35c.843-1.514 1.5-3.216 1.564-4.965.063-1.712-.545-3.346-1.401-4.804-1.069-1.817-2.563-3.306-4.27-4.528-1.465-1.05-3.089-1.918-4.843-2.361-1.352-.334-2.798-.439-4.134.02-1.157.404-2.106 1.075-2.822 2.075-.683.954-1.042 2.008-1.002 3.185.037 1.381.751 2.79 1.493 3.922 1.253 1.943 3.193 4.092 4.703 5.852 1.642 1.916 3.853 4.522 4.959 6.792z"/><path d="m129.332 379.177-2.087-6.082.385-.135c3.986-1.395 8.19-1.882 12.273-.588 3.915 1.256 6.89 3.826 9.139 7.238 2.095 3.18 3.702 6.836 3.699 10.706-.01 3.589-1.232 6.903-3.23 9.859-2.192 3.235-4.988 5.913-8.248 8.062-3.324 2.19-7.009 3.807-10.989 4.269-3.577.416-7.006-.135-10.203-1.798-3.183-1.65-5.731-4.04-7.703-7.032-2.112-3.205-3.354-6.754-3.091-10.62.26-3.823 1.879-7.144 4.362-10.028l.279-.324 4.589 4.294-.242.297c-1.587 1.947-2.98 4.302-3.163 6.863-.176 2.393.646 4.594 1.947 6.569 1.497 2.271 3.478 4.18 6.052 5.153 2.42.905 4.872.975 7.359.297 2.589-.694 5.02-1.794 7.257-3.268 2.574-1.696 4.995-3.75 6.804-6.264 1.48-2.075 2.353-4.391 2.265-6.957-.083-2.424-.787-4.644-2.122-6.668-1.519-2.307-3.561-3.999-6.231-4.789-2.907-.852-5.937-.294-8.702.79z"/><path d="m109.026 351.347-3.332-20.155-16.8678 2.788-1.0173-6.154 41.8811-6.922 1.018 6.154-19.355 3.199 3.331 20.155 19.355-3.199 1.017 6.154-41.8816 6.923-1.017-6.155z"/><path d="m128.83 268.29c-2.093-1.04-4.164-2.129-6.22-3.234l-24.5984-13.015 1.5693-6.106 38.2661 21.643-1.455 5.662-33.173.453c-1.093.017-2.215.047-3.3282.051.9782.513 1.9502 1.04 2.9072 1.589l28.828 16.451-1.532 5.958-43.8683.151 1.5956-6.207 28.3007.771c2.236.051 4.471.152 6.702.303-1.758-.906-3.543-1.822-5.231-2.789l-25.5562-14.687 1.7814-6.929 22.1758-.432c4.275-.094 8.571 0 12.836.367z"/><path d="m150.981 223.056-10.073 13.099 7.262 11.241-4.044 5.259-23.886-38.575 3.894-5.063 44.054 12.348-4.304 5.596zm-13.148 8.389 7.737-10.062-11.178-3.462c-2.372-.737-4.778-1.507-7.116-2.387 1.421 1.719 2.734 3.525 3.936 5.407z"/><path d="m187.132 187.198c.924-.039 1.875-.011 2.744.165 2.359.485 4.656 1.368 6.819 2.419l12.637 6.301-6.639 4.05-9.331-4.682c-2.036-1.003-4.162-2.036-6.288-2.837-1.086-.419-2.48-.889-3.655-.92-.865-.03-1.719.058-2.538.31-.858.31-1.821.895-2.598 1.369l-5.006 3.054 9.626 15.778-5.317 3.244-22.107-36.238 15.824-9.654c2.263-1.381 5.187-2.963 7.824-3.423 2.175-.379 4.252.031 6.206 1.047 2.053 1.083 3.668 2.648 4.877 4.629 1.539 2.523 2.127 5.229 1.533 8.133-.581 2.882-2.459 5.304-4.611 7.255zm-23.511-6.601 6.745 11.058 9.582-5.845c1.525-.931 3.321-2.171 4.431-3.592.816-1.041 1.303-2.217 1.325-3.545.021-1.272-.295-2.444-.957-3.53-.942-1.543-2.268-2.525-4.051-2.86-2.175-.417-4.573.687-6.38 1.79z"/><path d="m235.715 153.968-22.041 3.249-.836-5.673 29.783-4.39.797 5.408-18.574 32.046-1.565 2.508 25.365-3.738.835 5.673-32.796 4.834-.825-5.6 16.903-29.556c.926-1.617 1.9-3.22 2.954-4.761z"/><path d="m261.308 176.746.48-5.939 16.2 1.307-.479 5.939z"/><path d="m301.692 188.936c1.257-1.527 2.53-3.079 3.833-4.522l19.755-21.877 6.397 3.206-4.265 21.766c-.812 4.199-1.811 8.378-3.072 12.469 1.459-1.826 2.961-3.62 4.475-5.396l17.92-21.293 5.637 2.824-29.241 32.828-5.226-2.618 6.566-32.521c.216-1.069.422-2.174.654-3.262-.709.847-1.429 1.685-2.167 2.504l-22.171 24.701-5.5-2.756 9.123-42.909 5.73 2.871-6.735 27.498c-.522 2.175-1.093 4.338-1.713 6.487z"/><path d="m373.835 204.57-9.19 7.599 14.414 17.432-4.398 3.636-14.414-17.432-10.288 8.506 15.997 19.348-4.42 3.654-19.965-24.147 32.714-27.05 19.36 23.414-4.42 3.654z"/><path d="m368.065 260.845 38.992-16.78 2.462 5.721-38.992 16.78z"/><path d="m385.574 302.104c.699 1.203 1.628 2.317 2.887 2.958 1.094.552 2.236.769 3.452.589 1.166-.171 2.166-.642 2.987-1.49.967-.987 1.485-2.479 1.785-3.8.526-2.251.725-5.139.942-7.448.238-2.512.576-5.912 1.441-8.286.688-1.932 1.744-3.724 3.321-5.063 1.482-1.249 3.21-1.979 5.126-2.262 2.183-.322 4.294-.002 6.305.907 2.166.974 3.826 2.613 5.054 4.631 1.36 2.264 2.164 4.762 2.548 7.367.409 2.771.407 5.603-.315 8.322-.63 2.395-1.816 4.49-3.683 6.128-1.837 1.6-3.999 2.589-6.392 3.038l-.389.073-1.324-5.848.384-.101c2.112-.549 4.072-1.582 5.237-3.493 1.263-2.057 1.24-4.757.9-7.065-.325-2.202-1.02-5.005-2.727-6.572-1.235-1.126-2.68-1.723-4.354-1.477-1.331.197-2.389.814-3.143 1.937-1.109 1.621-1.521 6.378-1.674 8.306-.233 2.869-.51 6.668-1.323 9.429-.684 2.25-1.781 4.433-3.55 6.025-1.654 1.479-3.637 2.317-5.826 2.64-2.321.342-4.553-.007-6.694-.964-2.297-1.028-4.099-2.705-5.483-4.794-1.535-2.332-2.417-4.967-2.823-7.717-.462-3.137-.57-6.53.284-9.611.723-2.653 2.097-4.938 4.166-6.752 2.085-1.826 4.548-2.931 7.277-3.401l.379-.065 1.378 5.745-.387.104c-1.675.445-3.355 1.154-4.659 2.323-1.275 1.144-2.028 2.717-2.481 4.345-.565 2.03-.599 4.14-.293 6.216.263 1.784.768 3.556 1.667 5.126z"/><path d="m400.172 337.254c1.336-1.558 2.96-2.851 4.915-3.538 1.832-.633 3.706-.697 5.596-.274 2.152.482 4.011 1.538 5.561 3.107 1.68 1.692 2.635 3.801 3.059 6.134.459 2.601.314 5.221-.261 7.792-.61 2.723-1.633 5.384-3.277 7.656-1.447 2.01-3.303 3.54-5.634 4.4-2.288.837-4.662.985-7.057.546l-.389-.071.86-5.935.395.045c2.168.243 4.369-.018 6.141-1.385 1.916-1.467 2.862-3.996 3.372-6.273.486-2.173.841-5.039-.191-7.113-.751-1.497-1.88-2.569-3.536-2.939-1.313-.294-2.522-.096-3.627.681-1.617 1.116-3.707 5.41-4.54 7.155-1.246 2.596-2.865 6.041-4.615 8.329-1.446 1.858-3.247 3.498-5.473 4.352-2.074.789-4.225.86-6.385.377-2.288-.512-4.249-1.638-5.904-3.299-1.778-1.786-2.856-3.989-3.401-6.441-.597-2.727-.476-5.502.131-8.215.692-3.094 1.807-6.301 3.708-8.871 1.632-2.226 3.72-3.855 6.31-4.811 2.6-.957 5.296-1.107 8.012-.567l.377.075-.773 5.858-.398-.043c-1.723-.184-3.546-.124-5.181.5-1.601.611-2.867 1.81-3.874 3.167-1.255 1.694-2.042 3.651-2.501 5.699-.393 1.759-.558 3.593-.28 5.382.221 1.375.689 2.747 1.634 3.797.823.906 1.812 1.518 3.012 1.787 1.15.257 2.252.176 3.324-.322 1.256-.574 2.273-1.781 3.027-2.907 1.298-1.911 2.52-4.54 3.549-6.615 1.122-2.26 2.656-5.314 4.314-7.22z"/><path d="m233.515 358.232 66.543-27.964c22.027 25.933 52.839 46.449 84.053 62.525 33.228 17.114 75.763 31.434 109.351 35.813l15.801 68.308c-41.979 29.212-69.367 78.823-88.28 119.086-12.394 26.386-31.775 47.836-53.808 62.243-35.521 23.228-79.396 27.824-122.926 2.85-28.828-16.539-48.409-32.023-61.114-55.274-22.52-41.21-13.411-87.762 8.96-129.353 25.213-46.875 47.436-96.408 41.42-138.234z" fill-rule="evenodd" transform="translate(0 -.000003)"/></g><path d="m241.916 363.16c3.812 45.823-22.049 98.135-42.954 137-13.307 24.74-22.832 53.301-20.766 81.713 1.034 14.215 4.943 27.692 11.782 40.206 13.158 24.08 34.852 38.883 58.152 52.251 24.777 14.215 52.251 19.676 80.222 12.704 12.322-3.072 23.94-8.376 34.555-15.317 22.017-14.397 39.845-35.246 51.018-59.032 20.469-43.575 47.155-89.753 86.572-119.068l-13.428-58.046c-21.197-3.275-42.783-9.538-62.763-16.825-14.914-5.44-29.65-11.751-43.765-19.02-29.879-15.389-59.916-34.971-82.641-60.093z" fill-rule="evenodd" transform="translate(0 -.000003)"/><path d="m236.36 441.083 204.494 111.451-31.739 58.299-204.494-111.451z" fill="#fff" fill-rule="evenodd" transform="translate(0 -.000003)"/><path d="m349.507 391.414 70.433 38.366-43.35 79.219-70.434-38.366z" fill="#fff" fill-rule="evenodd" transform="translate(0 -.000003)"/><path d="m268.727 542.507 70.434 38.366-54.919 100.282-70.433-38.366z" fill="#fff" fill-rule="evenodd" transform="translate(0 -.000003)"/><path d="m362.39 430.663c-3.15 14.481-7.405 15.664-12.835 21.315-.974 1.013-.065 1.75 1.16.9 3.225-2.236 5.672-4.901 8.011-4.792 2.216.104 2.533 5.279 1.26 6.084-5.176 3.271-8.28 5.721-12.298 7.553-2.42 1.103-4.81 1.985-8.381 3.118-.68.216-2.15 3.045-3.039 5.815-.184.573.686.759 1.013.253 1.008-1.557 2.223-3.692 3.852-5.039.823-.68 4.248.069 5.827-.369-1.522 2.064-2.373 2.492-2.946 5.119-.129.588 1.828.821 2.027.253.951-2.708 3.438-4.13 5.356-4.923 3.331-1.377 11.664-1.231 15.482-3.555 4.145-2.523 6.838-5.222 9.177-9.674.592-1.127 4.137-1.294 4.295-.002.211 1.714-.266 2.765-2.092 4.486-.761.718-.215.963.569.83 3.038-.515 5.624-3.846 6.647-8.466.769-3.477 1.668-10.93.699-16.899-.701-4.321-2.172-7.34-7.12-7.694-4.867-.347-11.689 1.801-16.664 5.687z" fill-rule="evenodd" transform="translate(0 -.000003)"/><path d="m273.904 589.043c-3.15 14.482-7.404 15.665-12.834 21.315-.974 1.014-.066 1.75 1.159.901 3.225-2.237 5.672-4.902 8.011-4.793 2.217.104 2.534 5.28 1.261 6.084-5.176 3.271-8.281 5.722-12.298 7.553-2.421 1.104-4.811 1.985-8.381 3.119-.68.216-2.15 3.044-3.04 5.815-.183.573.687.758 1.013.253 1.009-1.557 2.223-3.692 3.852-5.039.823-.681 4.249.068 5.827-.369-1.522 2.064-2.372 2.492-2.946 5.118-.128.589 1.829.822 2.028.254.95-2.709 3.437-4.131 5.355-4.923 3.331-1.377 11.665-1.231 15.482-3.555 4.145-2.523 6.838-5.223 9.177-9.674.593-1.127 4.137-1.294 4.296-.003.21 1.715-.623 3.476-2.449 5.198-.761.718-.215.963.57.83 3.037-.515 5.98-4.558 7.002-9.178.769-3.476 1.668-10.929.7-16.898-.702-4.322-2.173-7.34-7.12-7.694-4.867-.348-11.69 1.801-16.665 5.686z" fill-rule="evenodd" transform="translate(0 -.000003)"/><g><path d="m233.94 495.743 14.261-27.613 12.445 6.427c2.532 1.308 4.416 2.639 5.659 3.981 1.248 1.353 1.999 2.833 2.263 4.443.267 1.604.079 3.046-.578 4.319-.608 1.177-1.568 2.09-2.878 2.733-1.302.646-2.903.886-4.786.728 1.754 1.525 2.859 3.154 3.332 4.889.47 1.741.29 3.416-.54 5.023-.668 1.292-1.621 2.323-2.852 3.096-1.23.773-2.482 1.21-3.76 1.315-1.276.107-2.721-.07-4.332-.51-1.611-.441-3.473-1.208-5.589-2.301zm12.66-13.74 7.173 3.704c1.937 1.001 3.391 1.613 4.349 1.839 1.255.298 2.332.276 3.228-.076.895-.351 1.596-1.008 2.094-1.972.472-.913.628-1.858.461-2.824-.17-.976-.681-1.842-1.522-2.602-.847-.763-2.463-1.761-4.849-2.993l-6.624-3.421zm-6.584 12.748 8.253 4.263c1.42.733 2.439 1.203 3.054 1.415 1.091.368 2.062.551 2.924.549.858.003 1.68-.224 2.465-.666.781-.451 1.403-1.107 1.858-1.988.531-1.029.676-2.086.439-3.177-.242-1.086-.846-2.075-1.814-2.965-.963-.88-2.505-1.872-4.612-2.961l-7.666-3.959z"/><path d="m264.457 511.504 10.33-20.001 3.659 1.89-1.564 3.028c1.665-.932 3.014-1.424 4.042-1.464 1.02-.043 2.012.176 2.961.667 1.375.709 2.575 1.794 3.62 3.254l-3.032 2.424c-.733-1.005-1.602-1.764-2.598-2.278-.896-.462-1.807-.648-2.747-.571-.942.083-1.763.441-2.472 1.076-1.076.967-1.981 2.169-2.721 3.603l-5.409 10.473z"/><path d="m299.691 521.541 3.985 2.603c-1.723 1.709-3.771 2.662-6.147 2.869-2.379.196-4.964-.423-7.751-1.862-3.513-1.814-5.835-4.153-6.959-7.014-1.131-2.865-.853-5.922.827-9.175 1.74-3.368 4.13-5.441 7.167-6.226 3.044-.781 6.219-.322 9.539 1.392 3.212 1.659 5.365 3.928 6.456 6.796 1.098 2.872.792 5.963-.911 9.261-.107.206-.27.504-.491.895l-17.911-9.25c-.989 2.274-1.11 4.346-.368 6.203.739 1.863 2.105 3.31 4.112 4.346 1.49.77 2.933 1.1 4.329.991 1.393-.104 2.765-.714 4.123-1.829zm-10.531-12.386 13.41 6.926c.689-1.77.825-3.304.416-4.574-.623-1.975-1.968-3.5-4.029-4.564-1.868-.965-3.711-1.258-5.523-.874-1.812.383-3.235 1.415-4.274 3.086z"/><path d="m304.085 534.072 3.707 2.534c-.362 1.099-.281 2.077.226 2.933.689 1.147 1.908 2.175 3.653 3.076 1.891.977 3.505 1.412 4.854 1.318 1.352-.099 2.494-.625 3.439-1.563.574-.583 1.414-1.982 2.541-4.201-2.676.825-5.343.555-7.999-.816-3.304-1.707-5.348-4.016-6.128-6.936-.784-2.913-.463-5.769.968-8.54.986-1.909 2.313-3.455 3.972-4.642 1.667-1.184 3.516-1.809 5.545-1.876 2.027-.062 4.109.452 6.232 1.549 2.833 1.463 4.677 3.629 5.529 6.487l1.245-2.411 3.76 1.942-8.929 17.288c-1.607 3.111-3.135 5.124-4.562 6.031-1.435.904-3.171 1.311-5.212 1.21-2.04-.101-4.267-.77-6.683-2.018-2.864-1.479-4.901-3.216-6.107-5.198-1.213-1.987-1.229-4.039-.051-6.167zm9.572-10.278c-1.355 2.623-1.719 4.862-1.082 6.714.626 1.855 1.885 3.262 3.768 4.234 1.869.965 3.744 1.177 5.629.635 1.886-.548 3.489-2.099 4.814-4.664 1.265-2.449 1.569-4.63.905-6.544-.663-1.915-1.916-3.351-3.754-4.3-1.806-.934-3.658-1.116-5.566-.546-1.897.567-3.469 2.06-4.714 4.471z"/><path d="m351.215 548.151 3.985 2.604c-1.723 1.709-3.771 2.662-6.146 2.868-2.38.197-4.965-.422-7.752-1.861-3.513-1.814-5.835-4.154-6.959-7.014-1.131-2.865-.853-5.922.827-9.175 1.74-3.369 4.131-5.441 7.167-6.226 3.044-.782 6.22-.322 9.539 1.392 3.212 1.658 5.365 3.927 6.456 6.795 1.098 2.872.792 5.963-.911 9.262-.107.206-.27.504-.491.895l-17.911-9.251c-.989 2.275-1.11 4.346-.368 6.203.739 1.864 2.105 3.31 4.112 4.347 1.49.77 2.933 1.1 4.329.99 1.394-.103 2.765-.714 4.123-1.829zm-10.531-12.385 13.41 6.925c.689-1.769.826-3.303.416-4.573-.623-1.975-1.968-3.5-4.029-4.565-1.868-.965-3.711-1.257-5.523-.874-1.812.384-3.235 1.416-4.274 3.087z"/><path d="m357.214 559.41 10.329-20.001 3.66 1.89-1.468 2.842c2.904-1.286 6.019-1.07 9.346.648 1.452.75 2.667 1.655 3.656 2.711.995 1.068 1.606 2.1 1.842 3.118.249 1.016.234 2.067-.017 3.159-.179.706-.67 1.845-1.48 3.414l-6.352 12.298-4.076-2.105 6.285-12.17c.711-1.376 1.091-2.491 1.13-3.342.035-.845-.246-1.682-.84-2.502-.598-.83-1.433-1.523-2.522-2.085-1.737-.897-3.466-1.203-5.203-.945-1.734.27-3.256 1.683-4.58 4.248l-5.642 10.923z"/><path d="m380.822 571.603 1.421-2.752 22.841-6.715c-1.777-.82-3.323-1.577-4.65-2.263l-9.797-5.06 1.418-2.744 19.632 10.139-1.156 2.237-19.558 5.983-3.704 1.019c1.878.831 3.622 1.659 5.22 2.484l11.101 5.734-1.507 2.919z"/></g><path d="m1443.2852-44.400157c59.752 29.94 83.927 102.678 53.986 162.428997-.726 1.449-1.477 2.877-2.253 4.283-1.59-.983-3.173-1.981-4.748-2.993 5.315-8.943 9.377-18.696 11.706-29.323997 2.184-9.965 3.565-20.904 3.201-30.599-.861-22.963-9.176-43.628-22.972-61.517-15.516-20.121-38.711-35.212-66.168-41.394-28.694-6.459-58.729-1.489-83.016 11.05-21.148 10.283-33.566 23.563-45.06 44.023-4.902 8.655-8.833 17.982-11.139 28.043-5.758 25.118-2.334 54.2 8.882 72.792997 3.86 6.399 6.017 13.339 10.598 19.243 2.596 3.345 6.383 6.16 9.476 9.08 8.554 8.075 16.254 14.153 28.557 20.825 5.857 3.176 12.602 6.207 19.513 8.648-.373 1.155-.754 2.304-1.14 3.445-.573 1.688-1.163 3.373-1.769 5.055-5.442-1.811-10.82-4.03-16.098-6.675-59.751-29.94-83.926-102.677997-53.986-162.429997 29.941-59.751 102.679-83.926 162.43-53.985z" fill="#fff"/><path d="m1333.7482-30.993157c-1.455.708-2.867 1.43-4.241 2.168 6.418.241 12.743.825 19.055.994 4.95-1.508 10.208-2.607 15.18-3.495 8.166-1.457 16.504-2.414 24.787-2.843 1.01-.053 2.021-.097 3.032-.132 3.549-2.445 10.167-6.409 15.336-9.223-24.825-3.553-50.897 1.043-73.149 12.531zm-43.993 42.714-.365.645c-4.91 8.669-8.739 17.876-10.968 27.602-4.706 20.528-3.549 46.914 5.926 66.468997 2.245-7.935997 5.586-18.033997 7.455-25.320997.047-10.556.482-21.279 1.612-31.719.862-7.964 2.097-15.942 3.725-23.808-2.462-4.744-4.924-9.208-7.385-13.868zm21.755 132.013997c1.202 1.061 2.42 2.102 3.66 3.119 6.259 5.136 12.835 9.387 19.948 13.245 5.978 3.241 12.545 6.184 19.225 8.54 5.954-18.867 9.9-39.599 7.083-59.185l-.723-5.023 20.759-8.722997-26.346-10.612c-1.804 1.231-3.623 2.438-5.417 3.629-5.638 3.746-11.346 7.401-17.104 10.959-2.886 1.783997-5.788 3.543997-8.71 5.266997-.258 9.008.49 24.796 2.633 39.959-4.589-.012-10.38-.481-15.008-1.175zm177.377-25.311c3.492-5.884 6.402-12.072 8.626-18.568997-4.469 5.435997-10.286 10.822997-16.44 13.318997 2.577 1.791 5.184 3.541 7.814 5.25zm-9.458-6.403c-.127-12.422997-5.874-33.520997-8.088-40.379997-5.002.378-10.151.372-15.082.215-7.983-.254-16.028-1-23.91-2.291-.645-.106-1.289-.216-1.932-.329l-6.152 8.484 12.095-5.082 3.114 3.666c11.413 13.437 25.167 25.278997 39.955 35.716997zm23.823-57.258997c-1.725-20.629-9.634-39.395-22.347-55.881-8.417-10.914-18.911-20.013-30.672-27.03 4.503 5.735 8.73 14.512 8.414 24.454 13.465 8.951 22.612 23.939 27.245 39.29 5.971 3.334 12.24 10.687 17.36 19.167zm-49.795-59.64c-10.07-3.015-22.08-3.578-31.573-.432-1.678 4.51299999-3.523 8.985-5.44 13.371-2.499 5.715-5.182 11.371-8.065 16.915l22.455 42.667c.593.104 1.186.204 1.78.301 7.812 1.28 15.786 2.02 23.697 2.272 5.176.164 10.602.161 15.833-.286 7-9.688 10.876-19.498 12.415-33.057-4.899-16.828-15.35-33.416-31.102-41.751zm-160.617 86.146c9.315 11.03 22.241 18.64 30.737 21.958997 2.735-1.618 5.452-3.268997 8.155-4.938997 5.743-3.55 11.436-7.195 17.059-10.93 1.965-1.306 3.963-2.631 5.937-3.987-1.074-16.587-.186-34.246 4.66-48.045-9.789-7.939-19.363-16.634-27.687-25.952-10.552 5.119-22.25 10.717-33.431 16.616-1.471 7.787-2.374 15.747-3.223 23.583-1.141 10.531-2.061 21.102-2.207 31.695zm58.205-108.112c-7.769 9.763-17.209 23.096-18.606 34.578 8.492 9.587 18.338 18.521 28.392 26.648 11.55-4.389 32.146-9.02 46.254-10.477 2.804-5.411 5.418-10.928 7.854-16.501 1.786-4.085 3.508-8.24400001 5.09-12.441l-28.292-27.628c-1.042.036-2.082.081-3.122.135-8.216.426-16.486 1.375-24.585 2.82-4.239.757-8.698 1.67-12.985 2.866z" fill="#fff"/><g fill="#fff" transform="translate(1134.4112 -249.71316)"><path d="m176.495 438.593c.913 1.839 1.468 3.839 1.337 5.907-.133 1.933-.806 3.683-1.935 5.258-1.285 1.794-2.981 3.09-5.032 3.905-2.214.885-4.528.94-6.842.419-2.574-.594-4.929-1.751-7.07-3.285-2.276-1.63-4.313-3.599-5.767-6.007-1.285-2.118-1.969-4.424-1.85-6.906.124-2.429.918-4.679 2.255-6.709l.218-.33 5.127 3.109-.195.347c-1.071 1.9-1.691 4.029-1.125 6.194.602 2.337 2.56 4.196 4.457 5.554 1.81 1.297 4.309 2.744 6.622 2.604 1.675-.106 3.097-.724 4.087-2.106.783-1.094 1.074-2.284.789-3.605-.395-1.925-3.53-5.525-4.811-6.975-1.903-2.161-4.441-4.998-5.864-7.502-1.144-2.057-1.952-4.356-1.868-6.738.085-2.218.859-4.226 2.148-6.025 1.366-1.908 3.167-3.271 5.344-4.146 2.338-.939 4.788-1.07 7.257-.614 2.744.516 5.252 1.711 7.512 3.33 2.578 1.847 5.094 4.126 6.716 6.88 1.412 2.372 2.096 4.931 1.964 7.688-.135 2.758-1.057 5.316-2.61 7.597l-.216.317-5.089-2.999.194-.35c.843-1.514 1.5-3.216 1.564-4.965.063-1.712-.545-3.346-1.401-4.804-1.069-1.817-2.563-3.306-4.27-4.528-1.465-1.05-3.089-1.918-4.843-2.361-1.352-.334-2.798-.439-4.134.02-1.157.404-2.106 1.075-2.822 2.075-.683.954-1.042 2.008-1.002 3.185.037 1.381.751 2.79 1.493 3.922 1.253 1.943 3.193 4.092 4.703 5.852 1.642 1.916 3.853 4.522 4.959 6.792z"/><path d="m129.332 379.177-2.087-6.082.385-.135c3.986-1.395 8.19-1.882 12.273-.588 3.915 1.256 6.89 3.826 9.139 7.238 2.095 3.18 3.702 6.836 3.699 10.706-.01 3.589-1.232 6.903-3.23 9.859-2.192 3.235-4.988 5.913-8.248 8.062-3.324 2.19-7.009 3.807-10.989 4.269-3.577.416-7.006-.135-10.203-1.798-3.183-1.65-5.731-4.04-7.703-7.032-2.112-3.205-3.354-6.754-3.091-10.62.26-3.823 1.879-7.144 4.362-10.028l.279-.324 4.589 4.294-.242.297c-1.587 1.947-2.98 4.302-3.163 6.863-.176 2.393.646 4.594 1.947 6.569 1.497 2.271 3.478 4.18 6.052 5.153 2.42.905 4.872.975 7.359.297 2.589-.694 5.02-1.794 7.257-3.268 2.574-1.696 4.995-3.75 6.804-6.264 1.48-2.075 2.353-4.391 2.265-6.957-.083-2.424-.787-4.644-2.122-6.668-1.519-2.307-3.561-3.999-6.231-4.789-2.907-.852-5.937-.294-8.702.79z"/><path d="m109.026 351.347-3.332-20.155-16.8678 2.788-1.0173-6.154 41.8811-6.922 1.018 6.154-19.355 3.199 3.331 20.155 19.355-3.199 1.017 6.154-41.8816 6.923-1.017-6.155z"/><path d="m128.83 268.29c-2.093-1.04-4.164-2.129-6.22-3.234l-24.5984-13.015 1.5693-6.106 38.2661 21.643-1.455 5.662-33.173.453c-1.093.017-2.215.047-3.3282.051.9782.513 1.9502 1.04 2.9072 1.589l28.828 16.451-1.532 5.958-43.8683.151 1.5956-6.207 28.3007.771c2.236.051 4.471.152 6.702.303-1.758-.906-3.543-1.822-5.231-2.789l-25.5562-14.687 1.7814-6.929 22.1758-.432c4.275-.094 8.571 0 12.836.367z"/><path d="m150.981 223.056-10.073 13.099 7.262 11.241-4.044 5.259-23.886-38.575 3.894-5.063 44.054 12.348-4.304 5.596zm-13.148 8.389 7.737-10.062-11.178-3.462c-2.372-.737-4.778-1.507-7.116-2.387 1.421 1.719 2.734 3.525 3.936 5.407z"/><path d="m187.132 187.198c.924-.039 1.875-.011 2.744.165 2.359.485 4.656 1.368 6.819 2.419l12.637 6.301-6.639 4.05-9.331-4.682c-2.036-1.003-4.162-2.036-6.288-2.837-1.086-.419-2.48-.889-3.655-.92-.865-.03-1.719.058-2.538.31-.858.31-1.821.895-2.598 1.369l-5.006 3.054 9.626 15.778-5.317 3.244-22.107-36.238 15.824-9.654c2.263-1.381 5.187-2.963 7.824-3.423 2.175-.379 4.252.031 6.206 1.047 2.053 1.083 3.668 2.648 4.877 4.629 1.539 2.523 2.127 5.229 1.533 8.133-.581 2.882-2.459 5.304-4.611 7.255zm-23.511-6.601 6.745 11.058 9.582-5.845c1.525-.931 3.321-2.171 4.431-3.592.816-1.041 1.303-2.217 1.325-3.545.021-1.272-.295-2.444-.957-3.53-.942-1.543-2.268-2.525-4.051-2.86-2.175-.417-4.573.687-6.38 1.79z"/><path d="m235.715 153.968-22.041 3.249-.836-5.673 29.783-4.39.797 5.408-18.574 32.046-1.565 2.508 25.365-3.738.835 5.673-32.796 4.834-.825-5.6 16.903-29.556c.926-1.617 1.9-3.22 2.954-4.761z"/><path d="m261.308 176.746.48-5.939 16.2 1.307-.479 5.939z"/><path d="m301.692 188.936c1.257-1.527 2.53-3.079 3.833-4.522l19.755-21.877 6.397 3.206-4.265 21.766c-.812 4.199-1.811 8.378-3.072 12.469 1.459-1.826 2.961-3.62 4.475-5.396l17.92-21.293 5.637 2.824-29.241 32.828-5.226-2.618 6.566-32.521c.216-1.069.422-2.174.654-3.262-.709.847-1.429 1.685-2.167 2.504l-22.171 24.701-5.5-2.756 9.123-42.909 5.73 2.871-6.735 27.498c-.522 2.175-1.093 4.338-1.713 6.487z"/><path d="m373.835 204.57-9.19 7.599 14.414 17.432-4.398 3.636-14.414-17.432-10.288 8.506 15.997 19.348-4.42 3.654-19.965-24.147 32.714-27.05 19.36 23.414-4.42 3.654z"/><path d="m368.065 260.845 38.992-16.78 2.462 5.721-38.992 16.78z"/><path d="m385.574 302.104c.699 1.203 1.628 2.317 2.887 2.958 1.094.552 2.236.769 3.452.589 1.166-.171 2.166-.642 2.987-1.49.967-.987 1.485-2.479 1.785-3.8.526-2.251.725-5.139.942-7.448.238-2.512.576-5.912 1.441-8.286.688-1.932 1.744-3.724 3.321-5.063 1.482-1.249 3.21-1.979 5.126-2.262 2.183-.322 4.294-.002 6.305.907 2.166.974 3.826 2.613 5.054 4.631 1.36 2.264 2.164 4.762 2.548 7.367.409 2.771.407 5.603-.315 8.322-.63 2.395-1.816 4.49-3.683 6.128-1.837 1.6-3.999 2.589-6.392 3.038l-.389.073-1.324-5.848.384-.101c2.112-.549 4.072-1.582 5.237-3.493 1.263-2.057 1.24-4.757.9-7.065-.325-2.202-1.02-5.005-2.727-6.572-1.235-1.126-2.68-1.723-4.354-1.477-1.331.197-2.389.814-3.143 1.937-1.109 1.621-1.521 6.378-1.674 8.306-.233 2.869-.51 6.668-1.323 9.429-.684 2.25-1.781 4.433-3.55 6.025-1.654 1.479-3.637 2.317-5.826 2.64-2.321.342-4.553-.007-6.694-.964-2.297-1.028-4.099-2.705-5.483-4.794-1.535-2.332-2.417-4.967-2.823-7.717-.462-3.137-.57-6.53.284-9.611.723-2.653 2.097-4.938 4.166-6.752 2.085-1.826 4.548-2.931 7.277-3.401l.379-.065 1.378 5.745-.387.104c-1.675.445-3.355 1.154-4.659 2.323-1.275 1.144-2.028 2.717-2.481 4.345-.565 2.03-.599 4.14-.293 6.216.263 1.784.768 3.556 1.667 5.126z"/><path d="m400.172 337.254c1.336-1.558 2.96-2.851 4.915-3.538 1.832-.633 3.706-.697 5.596-.274 2.152.482 4.011 1.538 5.561 3.107 1.68 1.692 2.635 3.801 3.059 6.134.459 2.601.314 5.221-.261 7.792-.61 2.723-1.633 5.384-3.277 7.656-1.447 2.01-3.303 3.54-5.634 4.4-2.288.837-4.662.985-7.057.546l-.389-.071.86-5.935.395.045c2.168.243 4.369-.018 6.141-1.385 1.916-1.467 2.862-3.996 3.372-6.273.486-2.173.841-5.039-.191-7.113-.751-1.497-1.88-2.569-3.536-2.939-1.313-.294-2.522-.096-3.627.681-1.617 1.116-3.707 5.41-4.54 7.155-1.246 2.596-2.865 6.041-4.615 8.329-1.446 1.858-3.247 3.498-5.473 4.352-2.074.789-4.225.86-6.385.377-2.288-.512-4.249-1.638-5.904-3.299-1.778-1.786-2.856-3.989-3.401-6.441-.597-2.727-.476-5.502.131-8.215.692-3.094 1.807-6.301 3.708-8.871 1.632-2.226 3.72-3.855 6.31-4.811 2.6-.957 5.296-1.107 8.012-.567l.377.075-.773 5.858-.398-.043c-1.723-.184-3.546-.124-5.181.5-1.601.611-2.867 1.81-3.874 3.167-1.255 1.694-2.042 3.651-2.501 5.699-.393 1.759-.558 3.593-.28 5.382.221 1.375.689 2.747 1.634 3.797.823.906 1.812 1.518 3.012 1.787 1.15.257 2.252.176 3.324-.322 1.256-.574 2.273-1.781 3.027-2.907 1.298-1.911 2.52-4.54 3.549-6.615 1.122-2.26 2.656-5.314 4.314-7.22z"/></g></g></svg>