<?xml version="1.0" encoding="UTF-8"?>
<svg id="Layer_1" xmlns="http://www.w3.org/2000/svg" version="1.1" viewBox="0 0 300 300">
  <!-- Generator: Adobe Illustrator 29.1.0, SVG Export Plug-In . SVG Version: 2.1.0 Build 142)  -->
  <defs>
    <style>
      .st0 {
        fill: #fe9c00;
      }

      .st1 {
        fill: #dc343a;
      }

      .st2 {
        fill: #ef9a8a;
      }

      .st3 {
        fill: #c5c7d3;
      }

      .st4 {
        fill: #1b19ac;
      }

      .st5 {
        fill: #221dac;
      }

      .st6 {
        fill: #0f10ac;
      }

      .st7 {
        fill: #b42715;
      }

      .st8 {
        fill: #c2331d;
      }

      .st9 {
        fill: #fe7e00;
      }

      .st10 {
        fill: #ee3830;
      }

      .st11 {
        fill: #2c2d8e;
      }

      .st12 {
        fill: #b12413;
      }

      .st13 {
        fill: #fe6202;
      }

      .st14 {
        fill: #fe3700;
      }

      .st15 {
        fill: #fb5b08;
      }

      .st16 {
        fill: #303290;
      }

      .st17 {
        fill: #e89483;
      }

      .st18 {
        fill: #242dba;
      }

      .st19 {
        fill: #fd6105;
      }

      .st20 {
        fill: #3e3f94;
      }

      .st21 {
        fill: #da492a;
      }

      .st22 {
        fill: #fe5a01;
      }

      .st23 {
        fill: #d1d2d2;
      }

      .st24 {
        fill: #f0f0f9;
      }

      .st25 {
        fill: #212aba;
      }

      .st26 {
        fill: #1f28b7;
      }

      .st27 {
        fill: #e85532;
      }

      .st28 {
        fill: #3831b1;
      }

      .st29 {
        fill: #0f17b3;
      }

      .st30 {
        fill: #f85311;
      }

      .st31 {
        fill: #232dba;
      }

      .st32 {
        fill: #cacbd3;
      }

      .st33 {
        fill: #272bb7;
      }

      .st34 {
        fill: #f1f1f9;
      }

      .st35 {
        fill: #f8f8fc;
      }

      .st36 {
        fill: #ed3637;
      }

      .st37 {
        fill: #232cba;
      }

      .st38 {
        fill: #ef5c36;
      }

      .st39 {
        fill: #000bb1;
      }

      .st40 {
        fill: #ebb2a5;
      }

      .st41 {
        fill: #fe4101;
      }

      .st42 {
        fill: #f2f3fa;
      }

      .st43 {
        fill: #ef917b;
      }

      .st44 {
        fill: #2b35bc;
      }

      .st45 {
        fill: #e68b8c;
      }

      .st46 {
        fill: #0d13b0;
      }

      .st47 {
        fill: #fe5201;
      }

      .st48 {
        fill: #f24323;
      }

      .st49 {
        fill: #e55330;
      }

      .st50 {
        fill: #fc5c07;
      }

      .st51 {
        fill: #fe3b00;
      }

      .st52 {
        fill: #fe3d00;
      }

      .st53 {
        fill: #de5b40;
      }

      .st54 {
        fill: #dddede;
      }

      .st55 {
        fill: #fe5100;
      }

      .st56 {
        fill: #111bb6;
      }

      .st57 {
        fill: #f75014;
      }

      .st58 {
        fill: #d9482a;
      }

      .st59 {
        fill: #fe6b00;
      }

      .st60 {
        fill: #be2f1a;
      }

      .st61 {
        fill: #f75013;
      }

      .st62 {
        fill: #cd3d23;
      }

      .st63 {
        fill: #edeef8;
      }

      .st64 {
        fill: #fe4801;
      }

      .st65 {
        fill: #f9550d;
      }

      .st66 {
        fill: #fea900;
      }

      .st67 {
        fill: #1b25b8;
      }

      .st68 {
        fill: #d44427;
      }

      .st69 {
        fill: #000bb2;
      }

      .st70 {
        fill: #fa560d;
      }

      .st71 {
        fill: #261ba5;
      }

      .st72 {
        fill: #fe4d01;
      }

      .st73 {
        fill: #ed3534;
      }

      .st74 {
        fill: #fe7a00;
      }

      .st75 {
        fill: #373fbf;
      }

      .st76 {
        fill: #252fba;
      }

      .st77 {
        fill: #ee3731;
      }

      .st78 {
        fill: #c6371f;
      }

      .st79 {
        fill: #3039bb;
      }

      .st80 {
        fill: #ef3a2d;
      }

      .st81 {
        fill: #f1f1f2;
      }

      .st82 {
        fill: #fe3800;
      }

      .st83 {
        fill: #2029bb;
      }

      .st84 {
        fill: #131eb7;
      }

      .st85 {
        fill: #232cb8;
      }

      .st86 {
        fill: #020db2;
      }

      .st87 {
        fill: #dfe0e0;
      }

      .st88 {
        fill: #131db6;
      }

      .st89 {
        fill: #fe4f00;
      }

      .st90 {
        fill: #d14126;
      }

      .st91 {
        fill: #2925ae;
      }

      .st92 {
        fill: #fe9200;
      }

      .st93 {
        fill: #fe5301;
      }

      .st94 {
        fill: #361c9b;
      }

      .st95 {
        fill: #ed6442;
      }

      .st96 {
        fill: #131db7;
      }

      .st97 {
        fill: #180fa5;
      }

      .st98 {
        fill: #fd6104;
      }

      .st99 {
        fill: #f64d17;
      }

      .st100 {
        fill: #121bb5;
      }

      .st101 {
        fill: #252ebc;
      }

      .st102 {
        fill: #1e1f89;
      }

      .st103 {
        fill: #f13f28;
      }

      .st104 {
        fill: #2326b2;
      }

      .st105 {
        fill: #fe5d00;
      }

      .st106 {
        fill: #c4351e;
      }

      .st107 {
        fill: #e3512f;
      }

      .st108 {
        fill: #e2e2e2;
      }

      .st109 {
        fill: #1a24b8;
      }

      .st110 {
        fill: #2e308f;
      }

      .st111 {
        fill: #ec7a5f;
      }

      .st112 {
        fill: #222cb9;
      }

      .st113 {
        fill: #b92b18;
      }

      .st114 {
        fill: #fe9f00;
      }

      .st115 {
        fill: #ea6443;
      }

      .st116 {
        fill: #ee6952;
      }

      .st117 {
        fill: #1b1d88;
      }

      .st118 {
        fill: #fe8d00;
      }

      .st119 {
        fill: #1d26b9;
      }

      .st120 {
        fill: #f4bdb0;
      }

      .st121 {
        fill: #fbfbfb;
      }

      .st122 {
        fill: #1b1eb2;
      }

      .st123 {
        fill: #333393;
      }

      .st124 {
        fill: #cdced5;
      }

      .st125 {
        fill: #bd2e1a;
      }

      .st126 {
        fill: #1217b1;
      }

      .st127 {
        fill: #f9f9f9;
      }

      .st128 {
        fill: #f95410;
      }

      .st129 {
        fill: #ca3b21;
      }

      .st130 {
        fill: #f2a998;
      }

      .st131 {
        fill: #f24225;
      }

      .st132 {
        fill: #f2f2f2;
      }

      .st133 {
        fill: #dadbdb;
      }

      .st134 {
        fill: #ed5a35;
      }

      .st135 {
        fill: #2023b3;
      }

      .st136 {
        fill: #d9dada;
      }

      .st137 {
        fill: #fccbc2;
      }

      .st138 {
        fill: #fe4900;
      }

      .st139 {
        fill: #e37e69;
      }

      .st140 {
        fill: #d5d6d6;
      }

      .st141 {
        fill: #f2886e;
      }

      .st142 {
        fill: #ec5934;
      }

      .st143 {
        fill: #121cb5;
      }

      .st144 {
        fill: #e73932;
      }

      .st145 {
        fill: #e4e5e4;
      }

      .st146 {
        fill: #fe5b00;
      }

      .st147 {
        fill: #fdfcfb;
      }

      .st148 {
        fill: #fa580b;
      }

      .st149 {
        fill: #24258e;
      }

      .st150 {
        fill: #f4471f;
      }

      .st151 {
        fill: #a71b0d;
      }

      .st152 {
        fill: #f5f6fb;
      }

      .st153 {
        fill: #141eb7;
      }

      .st154 {
        fill: #fe5300;
      }

      .st155 {
        fill: #fe5601;
      }

      .st156 {
        fill: #e65431;
      }

      .st157 {
        fill: #1817ad;
      }

      .st158 {
        fill: #f17f63;
      }

      .st159 {
        fill: #2c35bc;
      }

      .st160 {
        fill: #f06f4e;
      }

      .st161 {
        fill: #e89d8f;
      }

      .st162 {
        fill: #e04e2e;
      }

      .st163 {
        fill: #c73820;
      }

      .st164 {
        fill: #f1f1f1;
      }

      .st165 {
        fill: #ea5733;
      }

      .st166 {
        fill: #fd5e04;
      }

      .st167 {
        fill: #d7d8d8;
      }

      .st168 {
        fill: #f7f9f8;
      }

      .st169 {
        fill: #fe5600;
      }

      .st170 {
        fill: #fd5e03;
      }

      .st171 {
        fill: #d3d4d4;
      }

      .st172 {
        fill: #b1536e;
      }

      .st173 {
        fill: #2c35bd;
      }

      .st174 {
        fill: #1923b9;
      }

      .st175 {
        fill: #1a24b9;
      }

      .st176 {
        fill: #ac1f10;
      }

      .st177 {
        fill: #b12313;
      }

      .st178 {
        fill: #aa1e0f;
      }

      .st179 {
        fill: #00007d;
      }

      .st180 {
        fill: #bf311b;
      }

      .st181 {
        fill: #f6f6fb;
      }

      .st182 {
        fill: #dd3b36;
      }

      .st183 {
        fill: #ee3631;
      }

      .st184 {
        fill: #f03d2a;
      }

      .st185 {
        fill: #f7f7fb;
      }

      .st186 {
        fill: #d1d3f0;
      }

      .st187 {
        fill: #a9acd2;
      }

      .st188 {
        fill: #fe4000;
      }

      .st189 {
        fill: #fe4500;
      }

      .st190 {
        fill: #1e28ba;
      }

      .st191 {
        fill: #dbdcdc;
      }

      .st192 {
        fill: #242eba;
      }

      .st193 {
        fill: #2026b8;
      }

      .st194 {
        fill: #fe6700;
      }

      .st195 {
        fill: #fa570b;
      }

      .st196 {
        fill: #dd4b2b;
      }

      .st197 {
        fill: #cf3f24;
      }

      .st198 {
        fill: #ecada0;
      }

      .st199 {
        fill: #e3e4e4;
      }

      .st200 {
        fill: #e6e7e7;
      }

      .st201 {
        fill: #fe4d00;
      }

      .st202 {
        fill: #1c1aab;
      }

      .st203 {
        fill: #161ab1;
      }

      .st204 {
        fill: #2524b1;
      }

      .st205 {
        fill: #faf8f7;
      }

      .st206 {
        fill: #1922b8;
      }

      .st207 {
        fill: #1c1d88;
      }

      .st208 {
        fill: #f34521;
      }

      .st209 {
        fill: #1620b8;
      }

      .st210 {
        fill: #e06950;
      }

      .st211 {
        fill: #efeff0;
      }

      .st212 {
        fill: #ad2011;
      }

      .st213 {
        fill: #020bb0;
      }

      .st214 {
        fill: #ef7252;
      }

      .st215 {
        fill: #2011a0;
      }

      .st216 {
        fill: #00017e;
      }

      .st217 {
        fill: #af2212;
      }

      .st218 {
        fill: #f4481d;
      }

      .st219 {
        fill: #b72916;
      }

      .st220 {
        fill: #03037f;
      }

      .st221 {
        fill: #2620ac;
      }

      .st222 {
        fill: #f9f9fc;
      }

      .st223 {
        fill: #fe8200;
      }

      .st224 {
        fill: #d04025;
      }

      .st225 {
        fill: #e2e3e3;
      }

      .st226 {
        fill: #efefef;
      }

      .st227 {
        fill: #f54a1a;
      }

      .st228 {
        fill: #fe3c00;
      }

      .st229 {
        fill: #2c2e8e;
      }

      .st230 {
        fill: #1a11a3;
      }

      .st231 {
        fill: #3b43c3;
      }

      .st232 {
        fill: #fe6303;
      }

      .st233 {
        fill: #272fba;
      }

      .st234 {
        fill: #04047f;
      }

      .st235 {
        fill: #05057f;
      }

      .st236 {
        fill: #fe4b00;
      }

      .st237 {
        fill: #f03d2b;
      }

      .st238 {
        fill: #1620b7;
      }

      .st239 {
        fill: #ee3730;
      }

      .st240 {
        fill: #2329b7;
      }

      .st241 {
        fill: #3d3f94;
      }

      .st242 {
        fill: #d44327;
      }

      .st243 {
        fill: #070880;
      }

      .st244 {
        fill: #2220af;
      }

      .st245 {
        fill: #cb3b22;
      }

      .st246 {
        fill: #f24224;
      }

      .st247 {
        fill: #0f18b4;
      }

      .st248 {
        fill: #232dbb;
      }

      .st249 {
        fill: #f5491c;
      }

      .st250 {
        fill: #fb590a;
      }

      .st251 {
        fill: #2725b0;
      }

      .st252 {
        fill: #fea400;
      }

      .st253 {
        fill: #040baf;
      }

      .st254 {
        fill: #bb2d19;
      }

      .st255 {
        fill: #0d17b5;
      }

      .st256 {
        fill: #f03c2c;
      }

      .st257 {
        fill: #fe4e01;
      }

      .st258 {
        fill: #ebebeb;
      }

      .st259 {
        fill: #fe6100;
      }

      .st260 {
        fill: #00007e;
      }

      .st261 {
        fill: #fe6900;
      }

      .st262 {
        fill: #211aa9;
      }

      .st263 {
        fill: #1b25b9;
      }

      .st264 {
        fill: #fe5700;
      }

      .st265 {
        fill: #ed3434;
      }

      .st266 {
        fill: #d6d7d7;
      }

      .st267 {
        fill: #030bb0;
      }

      .st268 {
        fill: #f4f4f4;
      }

      .st269 {
        fill: #fb5b07;
      }

      .st270 {
        fill: #01017e;
      }

      .st271 {
        fill: #151fb7;
      }

      .st272 {
        fill: #c0311c;
      }

      .st273 {
        fill: #e0e1e1;
      }

      .st274 {
        fill: #fe9700;
      }

      .st275 {
        fill: #f5f5f5;
      }

      .st276 {
        fill: #a91d0e;
      }

      .st277 {
        fill: #fe6f00;
      }

      .st278 {
        fill: #2e37bd;
      }

      .st279 {
        fill: #cd353e;
      }

      .st280 {
        fill: #fe8800;
      }

      .st281 {
        fill: #1d27b8;
      }

      .st282 {
        fill: #f7f8fb;
      }

      .st283 {
        fill: #040fb3;
      }

      .st284 {
        fill: #0b16b3;
      }

      .st285 {
        fill: #fe3c01;
      }

      .st286 {
        fill: #f6f7fb;
      }

      .st287 {
        fill: #eb5833;
      }

      .st288 {
        fill: #040caf;
      }

      .st289 {
        fill: #f14027;
      }

      .st290 {
        fill: #ee3831;
      }

      .st291 {
        fill: #dcdcdc;
      }

      .st292 {
        fill: #b42615;
      }

      .st293 {
        fill: #353694;
      }

      .st294 {
        fill: #d74628;
      }

      .st295 {
        fill: #ececec;
      }

      .st296 {
        fill: #3039be;
      }

      .st297 {
        fill: #f24226;
      }

      .st298 {
        fill: #160fa6;
      }

      .st299 {
        fill: #2730ba;
      }

      .st300 {
        fill: #fe6302;
      }

      .st301 {
        fill: #e7e7e7;
      }

      .st302 {
        fill: #1c26b8;
      }

      .st303 {
        fill: #ededed;
      }

      .st304 {
        fill: #fc5c06;
      }

      .st305 {
        fill: #f64c18;
      }

      .st306 {
        fill: #cfd2f0;
      }

      .st307 {
        fill: #b82a17;
      }

      .st308 {
        fill: #fe4700;
      }

      .st309 {
        fill: #0812b3;
      }

      .st310 {
        fill: #e5e6e6;
      }

      .st311 {
        fill: #3326a8;
      }

      .st312 {
        fill: #eaeaea;
      }

      .st313 {
        fill: #e8e9e9;
      }

      .st314 {
        fill: #f8f8f8;
      }

      .st315 {
        fill: #fdfcfc;
      }

      .st316 {
        fill: #f8f8fb;
      }

      .st317 {
        fill: #fe4701;
      }

      .st318 {
        fill: #050caf;
      }

      .st319 {
        fill: #be5160;
      }

      .st320 {
        fill: #f74f15;
      }

      .st321 {
        fill: #2831bc;
      }

      .st322 {
        fill: #3e4095;
      }

      .st323 {
        fill: #d4d5d5;
      }

      .st324 {
        fill: #21228a;
      }

      .st325 {
        fill: #02037e;
      }

      .st326 {
        fill: #fe3e01;
      }

      .st327 {
        fill: #f7f7f7;
      }

      .st328 {
        fill: #3e4094;
      }

      .st329 {
        fill: #02027e;
      }

      .st330 {
        fill: #d8d9d9;
      }

      .st331 {
        fill: #fe6200;
      }

      .st332 {
        fill: #232dbc;
      }

      .st333 {
        fill: #010cb2;
      }

      .st334 {
        fill: #fe8500;
      }

      .st335 {
        fill: #019539;
      }

      .st336 {
        fill: #3420a2;
      }

      .st337 {
        fill: #ec3237;
      }

      .st338 {
        fill: #fdfdfd;
      }

      .st339 {
        fill: #2520ad;
      }

      .st340 {
        fill: #ee3a2e;
      }

      .st341 {
        fill: #030eb2;
      }

      .st342 {
        fill: #fe4f01;
      }

      .st343 {
        fill: #763e05;
      }

      .st344 {
        fill: #1a1bb0;
      }

      .st345 {
        fill: #020cb2;
      }

      .st346 {
        fill: #f3f3f3;
      }

      .st347 {
        fill: #e6e6e6;
      }

      .st348 {
        fill: #ea3435;
      }

      .st349 {
        fill: #dd4b2c;
      }

      .st350 {
        fill: #fe7400;
      }
    </style>
  </defs>
  <path class="st38" d="M141.4,3.2c.8.1,1.5.3,2.2.4,0-.2.2-.2.4,0,.7.6-.1,1.5-.7,1.9-5.6,1.7-11.5,2.9-17.3,3.6-1.5.5-3.1.9-4.7,1.1-29.3,3-59.8,6.4-87.3,15.2-.9.4-1.3,1.3-1.5,2.2l-.8.2-.5,4.2c-.2.2-4,1.2-4.2.2-.3,0-.2-.2,0-.4-.3-1.1-.3-2.2,0-3.3-.1-.7-.2-1.4-.4-2.2v-.4c.8-1.2.9-2.8,2-3.9,2.3-2.5,15.1-5.2,19-6.1,29.8-7.2,60.5-11,91.2-12.3l.9-.4h1.8Z"/>
  <path class="st151" d="M166.3,283.2l.5.2c2.8-1,5.6-1.8,8.5-2.4,1.2.1,1.6.7.6,1.5-6.7,4.6-13.6,8.9-20.7,12.9l-3.9,1.4h-3.3c-2.9-1.3-5.6-2.8-8.3-4.3-2-1.1-3.7-2.6-5.6-3.7,0-1.4,3.4-2.7,4.8-2.2l.9-.3c3.3,2.2,6.8,3.9,10.5,5.1,5.3-2.2,10.3-5,15.1-8.3l1,.3Z"/>
  <path class="st134" d="M151.3,3.2c.7.3,1.5.3,2.2,0h.7c.7.3,1.5.3,2.2,0h3.7c.9.7,2.6.3,3.9.4s1,.4,1.1.4h6.2c.1,0,.6.4,1.1.4,1.5,0,3.4-.4,4.6.4l-.6.8c-4.5.8-9,1.7-13.4,2.9-1.1.3-2.3.6-3.4.6-10.1,0-20.1.3-30.2.6s-2.3-.2-3.4-.5l16.9-4.2,1.1-1.3c.4-.3,1-.3,1.5,0,.5-.3,1.3-.3,1.8,0,.5-.2,1.1-.4,1.8-.4.7,0,1.5,0,2.2,0Z"/>
  <path class="st156" d="M31.3,54.6c1.1,3.8,1.1,7.9,0,11.7.8,5.5.8,6.2-4.2,6.5l-.6-.6v-1.5c.1-.8.3-1.5.4-2.2-.3-.7-.3-1.5,0-2.2-.3-1-.3-2,0-2.9-.3-1.1-.3-2.2,0-3.3-.3-1.5-.3-3.3,0-4.8.1-1.2,3.8-1.8,4.4-.7Z"/>
  <path class="st287" d="M31.3,39.9c1.1,4.8,1.1,9.9,0,14.7l-4.4.7c-.2,0-.3-.3-.4-.7v-8.8c.1-1.5.3-3,.4-4.4-.2,0-.2-.2,0-.4.1-1.2,3.7-2.1,4.4-1.1Z"/>
  <path class="st196" d="M273.2,38.4c.3.4.3.7,0,1.1.1,1.9.2,3.9.4,5.9v9.5c-.1.3-.2.3-.4,0-.7-.5-.8-1.1-.7-2-1.7.5-2.9.4-3.7-.2-1.1-4.4-1.1-9.2,0-13.6.1-1.2,3.8-1.8,4.4-.7Z"/>
  <path class="st294" d="M273.2,63c.3.6.3,1.2,0,1.8.3.8.3,1.7,0,2.6.3.6.3,1.2,0,1.8,0,.9.2,1.9.4,2.9v1.1l-.7,6.2c-.8-1.1-.8-2.3-.7-3.5-1.7.6-2.9.5-3.7-.1-1-3.9-.8-8.3.4-12.1.2-1.2,3.8-1.8,4.4-.7Z"/>
  <path class="st107" d="M31.6,78.8l.2,4.9c-2.9.2-4,1.2-3.5,3.1l-.7.4-1.1-13.9v-1.1l4.8-.7c0-1.7,0-3.4,0-5.1.2-.2.7-.4.8-.2.9,1.6.4,8.8,0,10.6s-.3,1.4-.5,2.1Z"/>
  <path class="st115" d="M26.8,55.3c.1,1.5,0,3.2,0,4.8-.1.3-.2.3-.4,0v-5.5c.4,0,.3.4.4.7Z"/>
  <path class="st53" d="M273.5,59.7c-.1.3-.2.3-.4,0-1-1.4-1-3.3,0-4.8h.4v4.8Z"/>
  <path class="st95" d="M26.5,45.8v-4.4c.1-.3.2-.3.4,0,0,1.4.3,3.3-.4,4.4Z"/>
  <path class="st111" d="M26.8,63.4c-.1.3-.2.3-.4,0v-3.3h.4c0,1.1,0,2.2,0,3.3Z"/>
  <path class="st158" d="M26.8,38.8c-.1.3-.2.3-.4,0v-3.3h.4c.7,1.1.7,2.2,0,3.3Z"/>
  <path class="st43" d="M26.8,66.3c-.1.3-.2.3-.4,0v-2.9h.4c0,1,0,2,0,2.9Z"/>
  <path class="st139" d="M273.5,64.8c-.1.3-.2.3-.4,0,0-.6,0-1.2,0-1.8-.7-.3-.7-.8,0-1.1.1-.3.2-.3.4,0v2.9Z"/>
  <path class="st17" d="M273.5,67.4c-.1.3-.2.3-.4,0,0-.9,0-1.7,0-2.6h.4v2.6Z"/>
  <path class="st214" d="M26.8,41c0,.1,0,.2,0,.4h-.4v-2.6h.4c.7.7.7,1.5,0,2.2Z"/>
  <path class="st120" d="M26.5,70.7v-2.2c.1-.3.2-.3.4,0,0,.7.2,1.8-.4,2.2Z"/>
  <path class="st210" d="M273.5,61.9h-.4c-.7-.7-.7-1.5,0-2.2h.4v2.2Z"/>
  <path class="st130" d="M26.8,68.5h-.4v-2.2h.4c0,.7,0,1.5,0,2.2Z"/>
  <path class="st160" d="M149.1,3.2c-.2,0-1,.3-1.8.4-.3-.1-.3-.2,0-.4h1.8Z"/>
  <path class="st141" d="M147.2,3.2v.4c-.6,0-1.2,0-1.8,0v-.4h1.8Z"/>
  <path class="st198" d="M273.5,69.2h-.4c0-.6,0-1.2,0-1.8h.4v1.8Z"/>
  <path class="st276" d="M195.3,267.5c-6.4,5.5-12.5,10.3-19.5,15,.2-1.1-.4-.7-1.1-.6-2.5.5-4.9,1.4-7.4,1.8s-1.2.7-1-.5c.2-.4.4-.7.7-1s.5-.6.9-.8c5.8-4.2,11.6-8.4,17.4-12.6s.7-.4,1.1-.5.8-.3,1.2-.4c2-.4,4.1-.9,6.2-1.3,1-.2,1.5.2,1.5.9Z"/>
  <path class="st176" d="M205.6,251.7c2-.6,4-1,6.1-1.4.8.2.6.7.2,1.4-5.5,5.8-10.4,10.6-16.5,15.8-1.9-.7-4.5.6-6.6.9s-1.3.6-1.1-.6c.2-.4.3-.7.5-1.1s.4-.6.7-.9c4.9-4.4,9.8-8.8,14.8-13.2.3-.2.6-.4.9-.6s.7-.3,1.1-.4Z"/>
  <path class="st217" d="M225.1,236.3c-4.4,5.7-8.3,10.2-13.2,15.4.1-1.2-.4-.6-1-.5-1.6.3-3.8,1.2-5.2.5,0-.4.2-.7.3-1s.3-.6.5-.9c3.6-4.2,7.3-8.4,11-12.5s.5-.4.8-.6.6-.3,1-.4c.2-.2.4-.4.7-.4.9-.2,4.9-.9,5.1-.2s0,.4,0,.6Z"/>
  <path class="st307" d="M250.4,193.3c-2.6,6-4.9,10.7-8.1,16.5-1.1,1.1-4.5,1.9-5.5.7v-1.5c2.7-4.8,5.3-9.8,7.6-14.8l1.2-.9c1.4-.4,2.9-.6,4.3-.8l.5.8Z"/>
  <path class="st292" d="M242.3,209.8c-3,5.5-5.7,9.8-9.2,15-1.2,1-4.6,1.6-5.5.4,0-.4,0-.7.1-1,.3-1.2,7.2-12.3,8.2-13.1s.6-.4.9-.6l5.5-.7Z"/>
  <path class="st106" d="M266.5,140.5c-1,5.1-2,10-3.3,15-1,.7-4.1,1.7-4.8.4-.1-.3-.2-.7-.3-1-.2-1.2,2.2-11.8,2.9-12.9s.4-.5.7-.8c.4-1.2,4.1-1.8,4.8-.7Z"/>
  <path class="st254" d="M255.9,179.7c-1.7,4.7-3.5,9-5.5,13.6-1.5-.5-4,1.4-4.8,0,0-.3-.1-.6-.1-1,0-1.1,4.1-11.2,4.9-12s.5-.4.8-.6c.6-.3,4.3-1.2,4.6-.9s.3.6.2.9Z"/>
  <path class="st272" d="M263.2,155.5c-1.3,5.1-2.5,9.4-4,14.3h-1c-2.6,1-3.8.8-3.4-.7l-.3-1.6c.4-1.9,2.5-10.1,3.3-11s.4-.4.7-.6c1.6.3,3.5-1.1,4.8-.4Z"/>
  <path class="st224" d="M268,86.5c.5.7.9,1.5,1,2.4,1.6-.6,2.7-.5,3.4.2,0,.5,0,1,0,1.5l-.4,2.9c0,3.4-.5,6.6-.7,9.9-.9,1.3-5.1,2.5-4.4-.4-.8-.9-1-2.2-.7-3.9l1.1-12.2.8-.5Z"/>
  <path class="st12" d="M233.1,224.9c-2.7,4.1-5.1,7.5-8.1,11.4-1.7-1.2-4.1,1.4-5.9,0,0-.3,0-.6,0-.9.3-1.1,5.6-7.9,6.9-9.3l1.5-.8,5.5-.4Z"/>
  <path class="st163" d="M268.7,127.2c-.6,4.5-1.4,8.8-2.2,13.2l-4.8.7c-.3-4.5.4-9.5,2.2-13.6.3-1.2,4.2-1.5,4.8-.4Z"/>
  <path class="st242" d="M268.4,75.9l4.4-.7c0,1.5,0,2.9,0,4.4,0,3.3-.2,6.3-.4,9.5l-4.4.7c0-1.1,0-2.2,0-3.3-1.2-2.9-.9-7.7.4-10.6Z"/>
  <path class="st62" d="M266.9,103c-.5,2.4,2.9,0,4.4.4-.3,3.5-.4,7-.7,10.5-.1,1.3-.3,3-.7,4.2-.7-1-2-1.1-3.8-.5l-.6-.6c-.1-.3-.3-.7-.4-1-.3-1.4.6-10.7,1.3-12s.4-.6.6-.9Z"/>
  <path class="st60" d="M254.8,169.1c-.2,1.1.4.7,1.1.6s3.5-1.4,3.3.2c-1.1,3.5-2,6.4-3.3,9.9-1.2-.9-3.4,1.3-4.8,0,0-3.5,1.6-7.8,3.7-10.6Z"/>
  <path class="st129" d="M265.4,117l4.4-.7c0,.6,0,1.2,0,1.8,0,3.1-.7,6.1-1.1,9.2l-4.8.4c-.6-3.4,0-7.5,1.5-10.6Z"/>
  <path class="st242" d="M272.1,93.5c0-.9-.3-2.3.4-2.9,0,.9.3,2.3-.4,2.9Z"/>
  <path class="st177" d="M99.5,256.8c.3,0,.6.1.9.2s.6.2.8.4c3.7,3.1,7.4,6.3,11.1,9.5.2.2.4.4.5.7s.2.6.3.9c1.5,1.7-3.1,2.3-4.4,2.2-5-4.1-8.9-7.6-13.6-12.1,0-1.3,3.4-2.6,4.4-1.8Z"/>
  <path class="st78" d="M55.5,195.5c.1,1.2-3.8,2.1-4.4,1.1-2.5-5.4-4.5-10.1-6.6-15.8-.2-1,0-1.3,1-1.5l3.1-.7c.3.2.5.4.7.6s.4.4.5.7c2,4.6,3.9,9.3,5.7,13.9s.1.5.1.8,0,.6-.1.9Z"/>
  <path class="st245" d="M43.7,164c.3.3.6.6.8,1,1,1.5,4,10.6,4,12.4s0,.8,0,1.3c0,1.7-3.4.7-4,2.2-2-5.5-3.5-10.2-5.1-15.8-.4-1.7,3.7-2.4,4.4-1.1Z"/>
  <path class="st212" d="M126,278.1c.8,1.3-.2,2-3.1,2.1l-1.4.5c-4.5-3.2-8.6-6.4-12.8-9.9.8-.9,2.2-1,3.3-1.3s1.3,0,1.1-.9c.4.1.9.2,1.3.4,1.9.7,9.6,6.5,10.9,8.1s.5.7.7,1.1Z"/>
  <path class="st178" d="M126,278.1c.4,0,.7,0,1.1.1,1.2.3,10.5,6.4,11.2,7.4s.4.6.6.9l-4.8,2.2c-4.3-2.6-8.3-5.1-12.5-8.1.1-2.2,4.3-.6,4.4-2.6Z"/>
  <path class="st8" d="M55.5,195.5l1.2.8,5.4,10.9v1.5c0,1.2-3.8,2.1-4.4,1.1-2.5-4.6-4.4-8.4-6.6-13.2l4.4-1.1Z"/>
  <path class="st125" d="M66.9,216.8c.3.1.6.3.9.4.9.6,6.9,9.7,7.1,10.7s0,.6,0,1c0,1.4-3.3,1.5-4.4,1.5-3.1-4.3-5.4-8-8.1-12.5-.1-1.2,3.7-2,4.4-1.1Z"/>
  <path class="st7" d="M99.5,256.8l-4.4,1.8c-3.4-3.3-6.7-6.4-9.9-9.9-.9-1.7,3.1-2.2,4.4-2.2.4.1.7.2,1,.4,1.3.7,7.8,7.5,8.5,8.8s.3.7.4,1Z"/>
  <path class="st113" d="M74.9,228.9c.3.1.6.2.9.4.9.5,7.1,8.3,7.4,9.3s.1.6.2,1c0,1.6-3.1,2.1-4.4,1.8-3-3.6-5.7-7.2-8.4-11,1.1-1.1,3-1,4.4-1.5Z"/>
  <path class="st197" d="M43.7,164c-1.4.1-3.4,0-4.4,1.1-1.2-4.2-2.3-8.2-3.3-12.5-.8-2.5,2.3-2.8,4-2.6.3.3.5.7.7,1,1,1.6,3.1,9.7,3.1,11.6s0,.9-.1,1.3Z"/>
  <path class="st349" d="M33.5,107.1v1.8c0,.2-4.3,1.1-4.4,0-.3-3.4-.9-6.8-.7-10.3-.5-3.3,0-3.9,3.3-4.3-.2-.9,0-1.4.7-1.6.3,0,.7,0,.8.2.7,2.5,1,10.7,1,13.6l-.7.5Z"/>
  <path class="st58" d="M34.9,120.3c-.1,1.2-3.8,1.8-4.4.7-.5-4-1.1-8-1.5-12.1l4.4-.7v-1.1c1,.9,1.4,2.2,1.3,3.8.4,2.9,1,6.8.1,9.4Z"/>
  <path class="st162" d="M32.4,92.7c0,.5.1,2,0,2.2s-3.4.5-3.8,1.1-.1,1.9-.2,2.6l-.7-6.1c0-1.8,0-3.6,0-5.3s-.1-3.1,0-3.3,3.4-.7,4-.8c0-1.5,0-2.9,0-4.4.3,0,.7.1.8.4.3,2.1,1.1,12,.5,13s-.3.4-.5.6Z"/>
  <path class="st68" d="M37.9,139.7c.8,2.5-2.3,3-4,2.6-.7-3.6-1.3-7-1.8-10.6-.1-1.2,3.6-2.4,4.4-1.5,1.6,2.6,2.1,6.5,1.5,9.5Z"/>
  <path class="st294" d="M34.9,120.3c1.5,2.9,2.1,6.7,1.5,9.9l-4.4,1.5c-.6-3.6-1-7.1-1.5-10.6l4.4-.7Z"/>
  <path class="st90" d="M40.1,150c-1.1,1.4-4.3.2-4,2.6-.8-3.5-1.5-6.8-2.2-10.3,1.2-1.2,4.3-.3,4-2.6,1.7,2.8,2.6,7,2.2,10.3Z"/>
  <path class="st219" d="M89.6,246.5c-.9,1.5-3.5.7-4.4,2.2-2.2-2.4-4.2-4.9-6.2-7.3,1.1-1.1,3.2-.8,4.4-1.8,2.6,1.4,5.2,4.2,6.2,7Z"/>
  <path class="st180" d="M62.1,208.7c2.2,1.6,4.5,5.4,4.8,8.1l-4.4,1.1c-1.6-2.7-3.2-5.3-4.8-8.1l4.4-1.1Z"/>
  <path class="st27" d="M216.6,9.1c3,0,7.6,1.1,10.7,1.6s7.9,1.4,11.7,2.5l-.5.8c-3.2,1-6.3,1.6-9.4,1.8-.5.1-1,.2-1.4.2s-.9,0-1.4,0c-6-.9-12-1.8-18-2.8s-.9-.2-1.3-.4-.9-.4-1.3-.7l.3-.9c3.3-1.4,7.1-2.5,10.7-2.1Z"/>
  <path class="st49" d="M239,13.1c4.6-.1,15.7,3.4,20.6,4.8l-.2.9c-2.5,1.1-5.2,1.6-7.9,1.6-.4.1-.8.2-1.1.2s-.7,0-1.1,0c-6.1-1.2-12.2-2.5-18.2-3.9s-.7-.3-1-.4-.6-.4-.9-.7c2.9-.5,7.2-2.5,9.9-2.6Z"/>
  <path class="st142" d="M177,4.6c4.1-.2,8.2.7,12.3.7l7.9,1.1c0,.2,0,.4,0,.5-.2.5-9.9,2.7-11.3,2.8-1.3.2-2.5.5-3.8.4-5.1-.3-10.1-.6-15.2-1-1.3,0-2.5-.5-3.7-.9.5-.7,1.3-.8,2-1.1,3.2-1,8.6-2.4,11.9-2.6Z"/>
  <path class="st165" d="M197.2,6.5c2.3-.3,6.1.5,8.6.8,3.6.4,7.3,1,10.9,1.8-3,0-8,2-11,2.9-.4.1-.8.3-1.3.3s-.8.1-1.3,0c-5-.5-10-1-14.9-1.7s-.8-.2-1.2-.4-.8-.4-1.2-.6c1.4,0,1.9-.8,3.3-1.3s6.3-1.8,8.1-2Z"/>
  <path class="st107" d="M259.6,17.9c5.2,1.4,12.8,1.6,13.6,8.1-.2,1.2-4.6,1.4-5.1.4-.6.2-1.2,0-1.9-.9-4.6-1.7-9.3-3.1-14.1-4.1l-.5-.9c2.5-1.3,5.7-1,8.1-2.6Z"/>
  <path class="st162" d="M273.2,25.9c0,.1,0,.2,0,.4,0,1.1,0,2.2,0,3.3s0,2.2,0,3.3,0,2.2,0,3.3,0,1.5,0,2.2l-4.4.7-.7-1.2c.1-3.7,0-7.4-.6-11l.6-.6,5.1-.4Z"/>
  <path class="st39" d="M163,8.3c7.5.3,15.3.8,22.8,1.5,6.4.6,13.4,1.4,19.8,2.2s15.8,2.3,23.5,3.7,15.3,3,22.4,4.8,13.6,3.3,15.4,4.6,1,1,1.1,1.3c.4.9.7,4.8.7,6.1.1,2.2,0,4.5,0,6.8,0,4.5,0,9.1,0,13.6,1.1,3.5,1.2,7.6,0,11,0,4-.3,8.1-.4,12.1-.1,3.6-.4,7-.4,10.6l-1.1,12.7c-.1,1.3.1,2.6,0,3.9-.4,4.5-.9,9.4-1.5,13.9s-1,7.1-1.5,10.6-1.3,9.1-2.2,13.6c-.9,4.8-2.1,10-3.3,14.7-1.1,4.2-2.4,9.1-3.7,13.2-1.1,3.5-2.4,7.2-3.7,10.6s-3.6,9.3-5.5,13.6-5.9,12.1-8.8,17.3c-2.8,4.9-6,10.1-9.2,14.7s-5.6,7.5-8.4,11c-4.2,5.2-8.9,10.7-13.6,15.4-5.5,5.6-11.9,11.2-18,16.2-6.7,5.4-14.1,10.8-21.3,15.4-2.7,1.7-13.5,8.6-16,8.8s-9.4-4.2-11.5-5.5c-4.3-2.6-8.7-5.6-12.8-8.4s-8.7-6.2-12.8-9.5-9.4-7.8-13.6-11.7c-3.4-3.2-6.7-6.8-9.9-10.3-2.1-2.3-4.3-4.6-6.2-7-2.8-3.4-5.9-7.1-8.4-10.6-2.7-3.8-5.6-8.1-8.1-12.1-1.6-2.6-3.4-5.5-4.8-8.1-2.2-4-4.7-9-6.6-13.2-2.4-5.2-5-11.5-7-16.9-1.7-4.8-3.4-9.8-4.8-14.7s-2.6-9.3-3.7-13.9-1.6-6.9-2.2-10.3-1-6.4-1.5-9.5-1.1-6.6-1.5-9.9-.6-9-1.5-13.2l-1.1-14.3c0-1.7,0-3.3,0-5l-.7-9c0-3.5,0-7,0-10.5s.2-1.6-.4-2c0-3.9,0-7.8,0-11.7,0-4.9,0-9.8,0-14.7-1.1-3.1-.9-6.6.1-9.7l.2-2.4c.7-2.5,1.4-3,3.8-3.8,5.7-2,13.3-3.5,19.4-4.9,23.4-5.2,47.3-8.5,71.2-10.1s24.6-1.3,37.1-.7Z"/>
  <path class="st134" d="M31.3,39.9l-4.4,1.1c0-.7,0-1.5,0-2.2,0-1.1,0-2.2,0-3.3s0-2.2,0-3.3c.8-.4,3.9-.6,4.2-1.1s.3-2.4.5-3.3c-.3,4-.3,8.1-.4,12.1Z"/>
  <path class="st21" d="M268.7,52.7l4.4-.7c0,1,0,2,0,2.9,0,1.6,0,3.2,0,4.8s0,1.5,0,2.2,0,.7,0,1.1l-4.4.7c0-3.7,0-7.3,0-11Z"/>
  <path class="st338" d="M142.5,13.1v1c-3,2-6.2,3.7-9.5,5.3l-1.8.6c-25.6,2.1-51.3,4.7-76.4,10.9l-5.5.6c-.3.6-1.3.7-1.8.4-.2.8-1,1.3-2.4,1.4-1.1.8-2,1.8-2.8,3,.3,1.3.4,2.6.4,4-.6.2-.6,1-.5,1.6.9.6.6,1.5-.3,2.1.3,4,.3,8.1,0,12.1,1.1,1.7,1,3.8,0,5.5,0,1.1-5,3.3-5.5,2.8-.4-10.4-.4-20.7,0-31.1.1-1.9-.2-3.3,1.5-4.6s11.3-3.3,14.3-4.1c27.6-6.6,55.8-9.9,84.1-11.2,1.3-.3,2.7-.4,4-.4.7,0,1.5,0,2.2,0Z"/>
  <path class="st191" d="M242.7,187.4l-1.4,1.5c-13.8,6.7-20.7,10-20.7,10l-.7-.5c-.3-7.6-.3-15.2,0-22.8l.3-.9c10.5-5.5,21.1-11,31.6-16.4l.7.4c-2.7,9.8-6,19.4-9.9,28.6Z"/>
  <path class="st295" d="M80.4,139.7c.3,5.6.3,11.3,0,16.9l-.3.9c-9.3,4.9-18.6,9.8-28,14.6l-.7-.4c-1.7-4.9-3.1-9.7-4.4-14.7-.3-1,3.5-2.8,4.4-3l.8.4c.4-.5.6.6.5.6s-.4-1,.2-1l.5-1.1c8.8-4.6,17.5-9.1,26.3-13.7l.7.4Z"/>
  <path class="st312" d="M80.4,156.6c.3,6.6.3,13.2,0,19.8l-.4,1-21.3,10.9c-.7-.2-1.3-.8-1.8-2-2.3-4.7-3.8-9.7-5.5-14.7l29-15Z"/>
  <path class="st54" d="M255.5,146.3c-.9,4.2-1.8,8.3-2.9,12.5l-32.7,16.9c-.3-4.6-.3-10,0-14.7l.4-1c8.8-4.3,17.6-8.7,26.4-13l.7.5c.2,2.8.2,5.6.2,8.4,0-.4.2-.7.5-.6,0-2.4.3-4.9,1-7.3l.8-.5c1.1,0,2.2-.3,3.3-1.2,1.1-.7,1.8-.6,2.2.1Z"/>
  <path class="st133" d="M136.2,224.5l.7.6v9.5c0,0-.7.6-.7.6-.6.4-1,.9-1,1.5h-.5c-.8-.4-1.4-.9-1.8-1.5-.7.3-1.3.3-1.8,0-.5.7-1.5,1.4-2.2,1.8.2,1.3.1,2.8,0,4,.7.6,1.3,1.2,1.8,1.8.6-.2,1.3-.3,1.8,0,.6-.7,1.4-1.3,2.2-1.8-.2-3,.3-4.1,1.5-3.3.6.1.6.7,0,1.8.3.7-.4,2-1.1,2.2.2.1.2.2,0,.4.1.4.5.6,1.1.7,1.3.2,1,2.8,0,3.3-1.1.7-2.6,1-4.4.7-.4.2-1.2-.3-1.1-.7-1.6.3-3,.3-4.4,0-.2,1.2-.3,2.4-.3,3.6h-.4c-1,0-1.6-1.9-1.5-2.9-.5-.5-2.3-.7-3.7,0,.2.5-.3,1-.7,1.1.1.6-.2,1.6-.7,1.8-.2,2.2-2.6,2-4,1.1-1.4-1.2.2-2.7,1.8-2.6,1.1.4,1.5-.3,1.2-2.2-1.5.1-3,.2-4.4.4-.1.5-.9,1.3-1.5,1.5-.6,2.1-.3,3.4.7,5.1.6-.2,2.1.3,2.6.7.1.3.3.7,0,.8-.5.4-5.8,3.5-6.2,3.6l-.8-.4c-3.2-2.9-5.8-5.4-8.8-8.4.5-1.8,3-2.8,4.8-3.3,1.3-.3,3.6,2,3.7,3.3h.4c.1-3.8.2-7.4.3-11l.4-1c8.8-4.5,17.6-8.9,26.4-13.4l.7.5Z"/>
  <path class="st310" d="M262.1,100.1c-1.1,1.9-7.4,5.6-5.9.7-.6-.3-1.2-.4-1.8-.3l-.4-.8c-.6.8-1.4.7-1.5-.4-.9.8-1.6.7-2.2-.4-1,.9-1.9.8-2.6-.4-.2,4.2-.4,8.4-.4,12.8l-.4,1-25.9,13.1c-.5.4-.8.2-1.2-.2-.3-4.3-.3-8.6,0-12.8,0-.5.3-.8.5-1.1l41-21.4c.4-.7.9-.9,1.5-.6-.1,3.5-.5,7.1-.7,10.6Z"/>
  <path class="st171" d="M192,206.5c.7,4,.7,8.1,0,12.1.9,4.3.9,8.6,0,12.8,1.1,4.7,1,9.6,0,14.3.7.3.9.9.7,2l5.2-4.9,1.4-.4c3.5-1.9,7.1-3.9,10.8-5.8.9-.3,1.8-.6,1.7.7-4.1,4.8-7.7,8.5-12.1,12.8l-4,2.9-30.5,15.8c-.6.1-1-.2-.9-.8-.1-5.7,0-11.5.2-17.2,0-.4.4-.5.7-.4h.4c.1.7.5,1.4,1,1.8.3,0,.5,0,.4.4,1.2.6,2.6.9,4,.7,0-.4.8-.6,1.1-.4,0-.4.7-.8,1.1-.7,0-1.6,1.2-1.8,1.1,0,.6,0,1.3.5,1.5,1.1.4-.3.6-.1.4.4.4,1.5,1.8,1.5,2.9.4-.5-.4-.3-.7.6-1l.5-.9c.6-.6,1.4,0,1.5.7,1.3.3,2.7.4,4,.4,0-.4.8-.6,1.1-.4,0-.4.7-.8,1.1-.7,0-.6.1-1.7.7-1.8,0-.6-.1-1.4-.4-2.2-.7-.8-1.4-1.5-2.2-2.2-1.4.2-2.7.3-4,.4-.1.6-.9,1.4-1.5,1.1-.6-.1-.7-1,0-1.1l.2-.8c3.3-1.9,6.7-3.8,10.1-5.6v-18.4s.8-1,.8-1c-1-7.1-1-14.9-.4-21.7-.8-.5-.6-.8.4-.7l.9.5c.6,2.6.2,5-.5,7.5Z"/>
  <path class="st347" d="M80.4,176.4c.3,6.6.3,13.2,0,19.8l-.5,1.1c-4.6,2.4-9.2,4.7-13.8,7.1l-.7-.5c-3.1-5.7-6.2-11.5-8.4-17.6l1.2,1.4,22.2-11.3Z"/>
  <path class="st167" d="M242.7,187.4c-4.3,10-9.2,19.1-15.1,28.3-1.1,1.1-8.2,5.4-9.1,4.6s-.2-.6,0-1c-.6-.9,0-2.1,1.1-2.2.3-6.1.4-12.3.4-18.7l22.8-11Z"/>
  <path class="st301" d="M262.9,82.5c.4,1,.3,2.5,0,3.7,0,1.1,0,2.2,0,3.3l-.9,1.2-42.1,22c-.3-3-.3-6.1,0-9.2l.4-1c7.3-3.9,14.7-7.9,22-11.8l2.2-.3.9-.6c3.8.8,7.5,1.5,11.3,2.1-.6-.7-.7-3,.4-3.3-1-.3-.9-.6,0-1.1-1.1-.5-.7-2.3.4-2.6.4-1.4,4.3-3,5.5-2.2Z"/>
  <path class="st327" d="M43,86.5c1,.3,1,.5,0,.7.3,0,.7.2.7.4.1,1.4,0,3-.4,4,10-2.3,20.9-3.5,31.4-4.5s1,0,1.6,0,1.1.2,1.6.3c.6.6.3,1.1-.3,1.5-1.6,1.1-3.4,2.1-5.1,3-5.5,2.9-11.2,5.7-16.8,8.5s-.8.3-1.3.4-.9.1-1.4.2c-.1-.9-.2-1.7-.4-2.6-.3.8-.9.9-1.8.4-.2.7-.5.7-.7,0-.4,1-1.5,1.3-2.2.4-.6.8-1.6,1.1-3.1,1.1.4,1.9.2,3.3-.6,4.4.8,2.1-2.8,3.4-4.6,4l-.9-.3c-.6-6.3-1.1-12.7-1.5-19.1,1.7-.2,4.6-1.1,4.8-2.9l.7-.4c.6-.5.8-.3.4.4Z"/>
  <path class="st171" d="M199.7,250.2c-5.8,5.7-10.8,10.3-17.3,15.4-11.5,6.9-23.4,13.3-35.5,19.3l-1.2-.2c-4.1-2.3-7.5-4.4-11.4-7l.2-1c1.7-.8,3.4-1.7,5-2.6.8-.8,3.8.6,3.7,1.8,1.3-.5,2.7.5,2.9,1.8,1.1-.5,1.8-.1,1.8,1.1.6-.4,1.2-.2,1.8.6l3.1-1.9c.3.4.6.4,1,.2v-.8c3.2-1.8,6.4-3.8,9.5-5.9v-19.3c0,0,.8-.4.8-.4-.3-.1-.3-.2,0-.4,0-.3.2-.3.4,0,.5,5.2-.7,11.7,0,16.7s-.2.6.5.5l34.7-18Z"/>
  <path class="st330" d="M136.2,248.7c.3,2.8.3,6,0,8.8l-.4,1c-5.4,2.7-10.9,5.4-16.3,8.1l-.9-.3c-3.5-2.8-6.9-5.4-10.3-8.4l7-4,.2-.4c1.6.3,3.3.4,4.9,0-.3,0-.3-.2,0-.4.3-2.4,3.1-2,2.9.4,1,0,2-.1,2.9-.3,1.6,1,2.5.1,2.5-2.6.8.4,1.7.4,2.7,0l.9.3c-.1,2.3.6,2.9,2,2v-4.1c.6-1.1,1.1-.9,1.8,0Z"/>
  <path class="st140" d="M136.2,257.6c0,4.8.1,9.5.4,14.3.8-.5,2,.1,1.8,1.1.8-.7,1.5.2,1.1,1.1-.6,2-3.6,2.4-5.1,3.7-5.5-3.6-10.6-7.3-15.8-11.4l17.6-8.8Z"/>
  <path class="st199" d="M80.4,196.3c.3,6.1.2,12.3,0,18.4l-.4.8c-.6.4-5.8,3-6.1,2.8s-.3-.2-.5-.3c-2.9-4.5-5.5-9.2-8.1-13.9l15.1-7.7Z"/>
  <path class="st323" d="M227.6,215.7c-4.9,7.8-9.8,14.6-15.8,21.7-.6-.4-1.3,0-1.8.2-3.3,1.5-6.5,3.8-9.8,5.3-.6.3-.9.9-.8-.3-.7-.8,0-1.7,1.1-1.5,2.1-3.9,5.6-7.7,9.2-10.3,2.3-3.8,4.8-7.5,7.6-10.9l1.2-.5c.3.8,1.1.2,1.6,0,2.6-1.1,4.9-3,7.6-3.6Z"/>
  <path class="st121" d="M167.4,13.5c.9,0,.9.6.3,1.3-3.1,1.6-6,3.1-8.7,4.2-4.2.7-8.6.9-13,.6-4.4.4-8.8.3-13-.3,2.3-3,6.9-3.5,9.5-6.2,8.6-.3,16.4,0,25,.4Z"/>
  <path class="st314" d="M187.3,14.9c.6.3,1.2.4,1.8.4.2,0,.5,0,.7,0l.2.9c-2.5,1.8-5.1,3.2-7.9,4.3-7.6.5-15.6,0-23.1-1.5-.2-.9.5-.7,1-1,2.1-1.2,4.3-2.3,6.5-3.4s1.2-.1,1-1c6.6.4,13.2.8,19.8,1.5Z"/>
  <path class="st23" d="M182.5,265.6c-10.2,8.1-21,15.7-32.7,21.5-1.5-.5-2.8-1.7-4-2.4l36.7-19.1Z"/>
  <path class="st327" d="M208.2,17.5c.3,0,.8.2.7.5-.2,1-6.3,4-7.7,4.3-6.3.4-13-.2-19.1-1.8,1.8-2.6,5.8-2.7,7.7-5.1,6.2.6,12.2,1.3,18.4,2.2Z"/>
  <path class="st226" d="M49.6,142.3c1.2,1.5,1.6,3.2,1.1,5.1,1.6,1.6,1.9,4.8,1.5,7l-5.1,2.6c-1.6-6.2-2.8-11.6-4-18l.5-.9c1.5-.8,3.1-1.5,4.7-2,1.5,1.3,2.1,4.3,1.5,6.2Z"/>
  <path class="st132" d="M45.9,120.3c1.4,2.5,1.8,5.3,1.1,8.1,1.4,2,1.8,4.7,1.1,7,.6.5.6.7,0,.7.2.9-.5.8-1,1-1.3.7-2.7,1.5-4.2,1.9-1.1-5.9-2.2-11.7-2.9-17.6.2-1.4,4.3-3.3,5.5-2.6,1.1,0,1.3.8.4,1.5Z"/>
  <path class="st273" d="M80.4,214.6c.1,1.1.2,2.2.4,3.3.4,0,.5.1.4.7,1.5.3,3.5,2.8,3.3,4.4,1.8.6,3.6,2.9,3.7,4.8,1.1-.2,1.3.5.4,1.1l.6.9c0,.3-4.9,3.3-5.3,2-3.7-4.7-7-8.9-10.3-13.9,2.4-.9,4.4-2.9,7-3.3Z"/>
  <path class="st87" d="M258.8,128c-.9,6.2-2,12.2-3.3,18.4-1.8,0-3.2,1.5-4.7,2.1s-.7-.2-.8-1c-.4-4.6.6-10,2.2-14.3-1.1-.4-.3-3.1.7-3.3,1.3-.6,2.5-1.2,3.8-2,.9-.5,1.6-.8,2.1.2Z"/>
  <path class="st81" d="M255.2,26.7v.9c-1.8,1.5-4.1,3-6.6,3.1-.4,0-.9.2-1.3.2-2,.1-12.7-2.2-14.5-3.1s-.7-.5-1.1-.7v-1c2-1.4,4.3-2.5,6.6-3.4,5.8,1.2,11.2,2.5,16.9,4Z"/>
  <path class="st346" d="M238.3,22.6c.2.8-.4.8-.9,1.1-1.9,1.2-4.1,1.8-5.7,3.3-.5,0-1,.2-1.5.2-2.6.2-11.7-1.4-14.1-2.5s-.9-.4-1.3-.7v-.6c1.8-1.5,3.9-2.9,6.2-4.2,5.8,1,11.5,2.1,17.3,3.3Z"/>
  <path class="st211" d="M263.6,32.5c.4,1.7.4,3.3,0,4.8-.4,1.4-4.3,3-5.5,2.2-.8-.4-1.2-.9-.2-1.2v-1.4c-1-.6-1.9-2.4-1.6-3.3l-7.5-2.1-.2-.8c2.1-1.4,5-2.2,6.6-4,4.4,1.2,7.4.4,8.4,5.9Z"/>
  <path class="st312" d="M263.6,70c.1,1-4.6,3-5.1,3s-.5-.2-.8-.5c-.3-.9-.3-1.6,0-2.2-.9-.4-.9-.7,0-1.1-1-.8-1.1-2.5,0-3.3-.7-.2-.7-.5,0-.7-.9-1.8-1-5,.4-6.6l.4-.8c1.6-.7,3.1-1.3,4.5-1.9-.3-6.2-.4-12.5.6-18.6v-4.8c0,.3.3.5.4,1.2.9,11.1,0,24.9-.4,36.2Z"/>
  <path class="st108" d="M258.8,128c-2.1-.2-3.9,2.9-5.9,1.8-.6-3.6-.2-7.3,1.1-11-1-1-.5-3.7.7-4.4,1.2.9,5.2-.9,5.4-2.6h.9c-.6,5.5-1.4,10.8-2.2,16.2Z"/>
  <path class="st121" d="M36.4,33.3c-.5,10,.4,20.4,0,30.5.5.5,4.5-2.2,5.5-2.2,1.2,1.8,1.5,5.1.4,7,.7.2.7.5,0,.7,1.1,1.5,1.1,4,0,5.5.4,1-4.9,3.3-5.1,3.1-.5-1.4-.8-2.9-.7-4.6-.4-12.6-.5-25.3-.4-38s-.2-1.6.4-2Z"/>
  <path class="st275" d="M221,19.3c.4.7.7.7-.1,1.2-2,1.2-4.5,1.9-6.1,3.6-4.4.5-9.5-.2-13.6-1.8,1.5-1.7,4-2.5,6-3.7s1.2-.1,1-1c4.3.6,8.6,1.1,12.8,1.8Z"/>
  <path class="st199" d="M261,111.8c-.5.4-.3,1.2-.7,1.7s-4.7,2.3-5,2.4c-.9.3-.4-1-.5-1.5-.6-3.9-.2-7.8,1.1-11.7-1.2-.3-1-2.2.4-1.8.1.7-.4,2,.5,1.8,1.5-.2,3.7-2.2,5.3-2.6-.3,3.9-.7,7.8-1.1,11.7Z"/>
  <path class="st268" d="M44.5,107.4c1.4.8,1.4,3.4.7,4.8,1.1.2.9,1.9,0,2.2,1,1.1,1.1,2.1.4,2.9,1.1.2,1,1,0,1.5l-5.5,2.6c-.6-4.3-1-8.6-1.5-12.8,1.5-.9,3.4-1.5,4.8-2.4s.9-.2.7-1.3c1.4,0,.8,1.6.4,2.6Z"/>
  <path class="st54" d="M91.8,232.2c1.8.4,3.5,2.6,3.7,4.4,1.1-.4,2.4,1.6,1.8,2.6-.4,1.4-4.1,3.7-5.5,2.6-2.9-3.2-5.4-6.5-8.1-9.9,1.4-.3,2.6-1.2,3.8-1.9s1.2-.1,1-1c1.1-.4,3.7,2,3.3,3.3Z"/>
  <path class="st127" d="M36.4,73.3l.4,4,5.5-2.6c1.4.4,1,2.4.4,3.3.3,0,.3.2,0,.4,1.1,1.1,1,2.6,0,3.7.7.2.7.5,0,.7,1.1.5,1.2,2.9,0,3.3,0,.5,0,.9-.2,1.4s-4.8,3.7-5.3,1.9c0-1-.4-2.8-.4-3.5v-7.3c0-1.4-.3-3.6-.4-5.3Z"/>
  <path class="st313" d="M263.6,70c-.1,4.2-.3,8.3-.4,12.5-.1.3-.2.3-.4,0l-5.5,2.2c-.7,0-.7-.5,0-.7-1-1.8-1-3.3,0-4.4-1-.3-1-.8,0-1.1-1-.9-.9-3.2.1-3.9-.2-.7-.1-1.4.2-2l5.9-2.6Z"/>
  <path class="st291" d="M99.5,241c2.1.5,4.3,3.1,4.8,5.1.2.9-.5.7-1,1-1.3.7-2.6,1.4-3.8,2.3-2.6-2.6-5.2-5-7.7-7.7,2.1-.3,3.6-1.8,5.5-2.6,1.1-.4,2.6.7,2.2,1.8Z"/>
  <path class="st121" d="M140.3,13.1c-1.1,0-2.7.3-4,.4,1-.8,2.8-.2,4-.4Z"/>
  <path class="st310" d="M262.9,86.1v-3.7h.4c0,1.2.3,2.8-.4,3.7Z"/>
  <path class="st327" d="M189.1,15.3c-.6,0-1.5.2-1.8-.4.8,0,1.6.3,1.8.4Z"/>
  <path class="st179" d="M159,19c7.7.3,15.4.8,23.1,1.5s12.8,1,19.1,1.8,9.1,1.1,13.6,1.8,11.4,1.9,16.9,2.9,11.4,2.3,16.9,3.7,6.2,1.4,7.7,2.9c-2,1.2-5,.4-7-.7-.7,0-.9.1-.7.4,3.1.4,6.9,1.5,9.2,3.7l.2,1.7c-1.7,1.1-7.3-.4-9.3-1.4-.8-.1-1.5-.1-2.2,0h-.4l-1,.3c-12.9-5.3-39-5.1-42.1,12.2-4.5,25.5,21.3,27.8,39.8,23l1,.4c1.3-.5,1.9-.4,1.8.4,3.5.2,7.7,1.8,10.8,3.6l.9,1.2c0,.4,0,.7,0,1.1-3.3.6-7.3-.1-10.3-1.5-.7,0-.9.1-.7.4,1.9,0,9.8,2.4,10.6,3.7s.4,1.4,0,1.8l-.3.7-6.3-.8,6.4,2.6.2.9c0,.4,0,.7,0,1.1-3.7.9-7.9,0-11.4-1.5-1.3-.4-1.4-.3-.4.4,4,.7,8.3,1.9,11.4,4.4-.5.5-1,.4-1.6.4-3-.2-7.3-1.4-10.5-1.8-5.6.4-11.5-.5-16.9-2.2-6.9.4-14.2-.1-20.9-1.8-.6.1-1.2.3-1.8.3s-1.2.1-1.8.1c-7.1-.4-14.3-.9-21.5-1.4-1.2,0-2.4-.5-3.6-.9-2.2,1.1-5.2,1.1-7.3,0l-4.4-.4c-3.8.9-7.6.9-11.4,0-10.8.9-21.7,1.2-32.5,1-2.1-.6-4-.7-5.6-.3-.8.3-1.7.7-2.5.7-11.7.7-23.4,1.4-35.1,2.6l-1.3-.4c-11.3,1.2-22.5,2.2-33.7,4.4-.5.1-.6,0-.8-.3-.2-.4-.3-1,0-1.4.3-.6,9.9-3.8,12.2-4.1.4-.2.3-.4-.4-.4-3.7,1.5-8.3,2.4-12.1,1.5,0-.2,0-.5,0-.7,3.3-2.6,8-4.1,12.1-4.8,0-.5.3-.5.7-.5h-1.8c-3.5,1.7-7.6,2.3-11.4,1.6,0-.2,0-.5,0-.7,3.6-2.7,8.4-4.4,12.8-5.1.8-.4.7-.6-.4-.4-3.9,1.6-8.3,2.4-12.5,1.8,0-.1,0-.2,0-.4l.3-1.3c3.9-1.8,7.9-3.5,12-4.9,14,5.1,41.2,5.9,42.8-14.1l.7-1-.2.7h-16l-.4-.7c.9,1.4-1.9,3.7-3.3,4.3-4.2,1.8-14.7,1.6-16.6-3.5-3.7-10,8.5-11.4,15.4-9.6s5.1,2.2,4.5,4.6c0-.3,0-.7.2-.7,4.1-.3,12-.5,16,0l.4.7-.8-.9c-.6-14.3-15.1-17.4-27.1-17.1-6.9.2-15,1.4-20,6.4-.8.9-8,1.7-8.3,1.4s-.3-2.1-.2-2.1c3.3-2,6.9-3.4,10.8-3.9.4-.3.1-.4-.7-.4-3,1.5-6.6,1.8-9.9,2v-2c3.1-2.5,7.4-3.9,11.4-4.4,1.1-.6.9-.8-.4-.4-.9.6-2.9,1.4-3.7.4-.4,0-.6,0-.4-.4,26.5-7,56.3-10.6,83.7-12.1,8.9-.5,17.2-.7,26.1-.4Z"/>
  <path class="st328" d="M52.9,36.6c-3.5,1.4-7.1,2.8-10.6,4.1v1.4c2.2-.7,5.5-.4,7.4-1.2s2-1.8,3-2.5c9.2-6,29.6-5.9,38.7.2s7,8.5,7,14.1h-16.7c-.2,0-1.2-1.9-1.6-2.4-2.7-2.9-13.7-2.7-16.5,0s-1.9,7.3.4,9.2,11.4,2.1,14.4.8,3.1-3.6,3.4-3.6h16.7c.2,19.3-24.2,20.8-38.3,17.5s-4.2-1.7-5.3-1.7-9.5,3.8-10.9,4.5-1.1.3-1.4,1c0-.7-.3-2.2-.4-3.3,0-1.8,0-3.7,0-5.5.3-.5,2-1,2.8-1.1s-2.8,1.1-2.8.4c0-2.3-.3-4.6-.4-7s0-3.7,0-5.5c.2-.8.4-.9.7-.4.4-.4.3-.8-.4-1.1-.3-1-.3-2.3,0-3.3.8-.8.9-1.3.4-1.5-.8-.3-1-3.9.4-3.3.3-.5,0-.8-.7-1.1-.1-.4-.3-.9-.4-1.5,0-2.7-.2-5,.4-7.7l.2,1.5c3.2-.6,6.5-1,9.7-1.5.7-.1.9,0,.7.4Z"/>
  <path class="st241" d="M53.3,31.4c.5-.2.6-.2.4.4-3.8,1.5-7.5,3.1-11.4,4.4.7-3.6,1.8-3.4,5.1-4.4.7,0,1.5,0,2.2,0,1.2-.2,2.5-.2,3.7-.4Z"/>
  <path class="st293" d="M42.3,45.4c.6.2.8.6.7,1.1-1.6.6-.3,2.7-.4,3.3,1.1.4.5,1.1-.4,1.5,0,1.1,0,2.2,0,3.3.9.2.8.4.4,1.1-.1,0-.4.4-.7.4,0-4,0-8.1,0-12.1.6.3.3,1,.4,1.5Z"/>
  <path class="st149" d="M49.2,31.4l.4.4c-.5,0-1.6,1-2.2,0,.5-.2,1.2-.2,1.8-.4Z"/>
  <path class="st116" d="M218.8,94.9c0-1,1.5-.7,1.6-.3.5,2.9.4,5.9-.5,8.7,0,3.1,0,6.1,0,9.2s0,8.6,0,12.8c.9,6.6.9,13.2,0,19.8.7,5.3.7,10.5,0,15.8v14.7c0,7.6,0,15.2,0,22.8s0,11.1,0,16.7c0,.6.2,1.6-.4,2l-.7-.6c-.4-2.4,0-7.6.7-10-1.1-4-1.1-8.4,0-12.5-1-4.3-1-8.6,0-12.8-.9-4.9-.9-9.8,0-14.7-.7-4.3-.7-8.6,0-12.8-.7-4-.7-8.1,0-12.1-.7-3.9-.7-7.8,0-11.7-.8-1.9-.6-3.9,0-5.9-.8-1.8-.5-3.7,0-5.5-.9-3.6-.9-7.1,0-10.6-1.3-2.9-.7-6.2,0-9.2l-.7-.6c0-1.1,0-2.1,0-3.1Z"/>
  <path class="st226" d="M80.4,119.9c.3,6.6.3,13.2,0,19.8l-27.5,14.3-.4-1.2c0-6.3.2-12.7.4-19l.4-1c8.8-4.5,17.6-8.9,26.4-13.4l.7.5Z"/>
  <path class="st40" d="M80.8,118.4c.3,0,.7.1.7.3.3,3,0,6.7-.7,9.6l.7.4c.1,2.5,0,4.9-.7,7.3.3,0,.7.2.7.4.3,2.4.2,6.6-.7,8.8.3,0,.7.2.7.4.4,2.6-.2,5.9-.7,8.4.3,0,.7.2.7.4.3,2.8,0,6.4-.7,9.1.3,0,.7.2.7.4.3,2.7-.1,6.1-.7,8.8.3,0,.7.1.7.3.3,3.3,0,7.5-.7,10.7.3,0,.7.1.7.3.5,2.9-.1,7.4-.7,10.3.3,0,.6,0,.7.3.7,1.7-.2,9.6-.7,11.8l.7.3c.2,2.3-.2,4.5-.7,6.7,1.3.4.8,3.6,0,4.4,0-.1-.4-.3-.4-.6,0-.9,0-1.8,0-2.7-.2-6.1,0-12.3,0-18.4s0-13.2,0-19.8,0-13.2,0-19.8c0-5.6,0-11.3,0-16.9s0-13.2,0-19.8c-1.1-4.8-1.1-9.9,0-14.7l-.7-.7c-.1-1.3-.5-9.9.5-9.8s.4.1.6.3c.3,0,.6,0,.7.3.5.8.2,17.6,0,19.6l-.7,3.5Z"/>
  <path class="st36" d="M52.9,133.9c0,6.6.3,13.6,0,20.2s0,1,0,1.5h-.4c.1-.5-.3-.8-.4-1.1-.6-2.3-1-4.7-1.5-7,0-1,.5-2,1.1-2.9-.1-2.8,0-5.5.7-8.1-1.1-3.1-1-6.4,0-9.5-1.3-.4-1.2-5.3.4-5.1.7,4,.7,8.1,0,12.1Z"/>
  <path class="st273" d="M247.5,147.4l-27.5,13.6c0-5.3,0-10.5,0-15.8l.3-.9c8.8-4.7,17.6-9.3,26.5-13.9l.7.4c.3,5.5.3,11,0,16.5Z"/>
  <path class="st289" d="M252.2,133.1c-.7,4.8-1.2,9.6-2.2,14.3s-1.2,5.6-1.8,7.7l-.4.2c-.4-3.8-.2-8,0-12,.8-3.3,1.7-6.6,2.8-9.8.4-.9,1-1.5,1.6-.5Z"/>
  <path class="st161" d="M247.8,106.7c.7,1.8.7,3.8,0,5.9.8,2,.4,4.1,0,6.2.8,2.2.5,4.4,0,6.6.7,3.2.7,6.4,0,9.5.7,2.8.7,5.6,0,8.4,0,3.2,0,6.5,0,9.7s-.2,1.6.4,2c-.1.5,0,1-.7,1.1,0-2.9,0-5.9,0-8.8,0-5.5,0-11,0-16.5-.7-6.5-.7-13,0-19.5,0-3.6,0-7.2,0-10.8s-.2-1.6.4-2c.9,2.7.9,5.4,0,8.1Z"/>
  <path class="st54" d="M123.4,214.2l1.1-.2c3.8,2.4,7.8,4.4,11.9,6.2l.2.6c.6.8.6,3.2-.4,3.7l-27.5,13.9c-.2-5.7-.3-11.5,0-17.3l.3-.9c4.4-2.1,8.8-4.2,13.2-6.3l1.2.3Z"/>
  <path class="st103" d="M147.2,222.3c.7-.8,2.4.2,2.6,1.1l.5,1c-1.3,3.3-2.3,6.6-3,10l-.8.7c0,.5-1,.8-1.5.7,0,.5-.3,1-.7,1.1,0,.1.2.2.1.3-.1,1-.5,3.1-1.1,3.4-3.7-.5-.6,3.5.3.4h.6c1.3,1.9,3,1.6,4.9,1,.1-.3.2-.3.4,0,1.2,1.1,0,6.1-1.8,5.1-1-.5-1.3-2-.4-2.6l-2.2-.4c-.2.6-.7,1-1.5,1.1,0,1.3-.2,2.1-.7,2.6.2.4,0,.7-.4.7-.1.2-.2.2-.4,0-.7-.1-1.1-.5-.4-.8-.3-1.1-.3-1.6,0-1.3-2,0-3.8-.1-5.6-.5-.2-.9.2-2.6,0-3.3.5-.3,1.2-.5,2.1-.7.8-1.4,1.6-2.9,2.3-4.4,0-.2,0-.4.4-.4.3-.8.3-1.5,0-2.2-.1.2-.2.2-.4,0-.3-.2-.6-.4-.6-.6.5-1.9,3-10.3,3.7-11.6l.9-.3c.7-.3,1.6-.4,2.6-.4Z"/>
  <path class="st337" d="M108,249.5c-1-.6-2.7-2.4-3.7-3.3-1.6-1.6-3.2-3.5-4.8-5.1l-.4-.8c2.8-6.2,5.6-12.4,8.4-18.6h.8c.3,9.2.4,19,0,27.9h-.4Z"/>
  <path class="st131" d="M143.9,222.3l.7.4-4,12.5c-1.4.2-3,.3-4.4,0-.4-1.2,0-8.7,0-10.6s-.3-2.8.4-3.7l.5-.4c2.3.6,4.6,1.2,6.8,1.8Z"/>
  <path class="st247" d="M136.2,246.2c2,0,3.9,0,5.9,0v2.6c-.3.6-1.1.9-2.2.7-.6.3-.7-.6-.4-1.1-.1-.6.5-1.1,1.8-1.5,0,.6-1.4.7-2.1.7-1.1,0-3.2,0-3.7-.7.5,0,.8.1.7.6,1.8-.4,2.7,1.3,1.1,2-.1.3-.2.3-.4,0-.1-.1-.3-.4-.4-.7,0,.3-.2.3-.4,0-.4,0-.7,0-1.1,0v5.1c-.6,0-3.2.1-3.3,0s.3-2.2-.4-3.3c-.5.5-.7.2-.4-.4-.3-1.2-.2-2.2.4-2.9-.5-.6-.2-.8.4-.4.8-1.3,3-.7,4.4-.7Z"/>
  <path class="st45" d="M108.7,196.6l.7,2.7c0,7.1,0,14.1,0,21.2l-.7.7c0,5.7,0,11.5,0,17.3s0,7.6,0,11.4c-.7.2-.6-.3-.7-.4.6-.4.4-1.4.4-2,.1-8.6,0-17.3,0-25.9-.7-4.4-.7-8.8,0-13.2-.3,0-.7-.2-.7-.4-.2-2.4-.4-9.3,0-11.5l.7-.5c1-.1,1.1,0,.4.7Z"/>
  <path class="st67" d="M126.3,246.5c.3,1.4.3,2.9,0,4.4l1.1,1.5c-.2-1.3-.1-6.3,2.3-4.9s.9,1.6.3,2.4c.4-.2.7,0,1.1.3.1.1.3.2.4.4-.4,1-2.4.6-2.6.7s.2,2.4,0,2.6-5,.1-5.5-.4c-.4-.5-.2-.8.4-.4l.3-.7c.4,0,.8-.4,1.2-1.5,0-.4,0-.8.4-1.1,0,0,.3-.4.4-.9,0-.9-.3-2.2.4-2.8.3,0,.3.2,0,.4Z"/>
  <path class="st153" d="M136.2,235.2c1.6,0,3.2.2,4.8.4.3.4.3,1.1,0,1.8,0,.1-.2.3-.4.4v-.4c-.7-1.4-6.5-.5-2.7-.7,1.5.5.9,2.8-.6,2.5-.5.5-.7.3-.4-.4-.3-.3-.6-.7-.7-1.1-1.8.3-.8,1.8-1.5,3.3-.5.5-.7.3-.4-.4-.9-.4-.8-3.1,0-3.7-.1-.3,0-.5.4-.4.9-1.2-.4-1.4,1.5-1.5Z"/>
  <path class="st135" d="M140.6,237.7c-.1.7-1.6,4.4-2,4.8-.7.6-1.6.4-2.4.4-.8-.1-1.2-.4-1.1-.7,0-.1,0-.3,0-.4.6-.7.9-.6.7.4.6-.5,1.3-.9,2.1-1.3l1.7-3.4h1s0,.1,0,.2Z"/>
  <path class="st281" d="M117.9,246.2c.6.2.4,2.2.7,2.9-.2.2-4.9-1.7-3.7,1.8.3.4,0,.5-.4.4-2.8-.1-.5-4.2,1.9-4.1l.7-.7c0-.2.2-.3.7-.4Z"/>
  <path class="st321" d="M116.4,253.1c1.2.3,2.5.3,3.7,0l.3.4c-1.3.6-3.6.5-5.1.4s-1.4.1-2.6-.7c-.6-.6-.5-.9.4-.7.8-.5,2.8-.2,3.3.7Z"/>
  <path class="st174" d="M119.3,250.2c.9.7-.5,2.9-1.5,2.9,0,.3-.2.3-.4,0-.9-.6-1.6-.8-2.8-.9v-.9c-.2-.2,0-.4.3-.4,1.6.2,3,.7,4-1.1.5-.5.5-.3.4.4Z"/>
  <path class="st85" d="M112.4,248.4c.4,1,.9,2.9.7,4l-.4.7c-1.8-1.3-1.8-3.3-.7-5.1.5-.5.7-.3.4.4Z"/>
  <path class="st39" d="M120.5,246.9c0,0-.1-.5,0-.7s3-.2,3.4,0,.1.6.2.8c.2.7,0,1-.4.7-1.1,0-2.1,0-2.9-.4-.5.5-.7.3-.4-.4Z"/>
  <path class="st18" d="M125.6,249.8c0,.2.8.6-.4,1.1-1.2.3-2.5-2.6-1.5-3.3,0,0,.4-.5.4-.7.5,1,.7,2.1,1.5,2.9Z"/>
  <path class="st296" d="M132.6,242.1c.3.1.3.2,0,.4-.5.2-1.2.3-1.8.4-1.1-.2-1.5-.9-1.8-1.8.1-.3.2-.3.4,0,.8-.4,2.8.4,3.3,1.1Z"/>
  <path class="st345" d="M129.3,237.4c1.2.4,1.1,3.1,0,3.7h-.4c-.3-.8-.4-3.2,0-4,.6-.6.8-.3.4.4Z"/>
  <path class="st240" d="M137.3,239.2c.8.9-.4,2.8-1.5,2.9-.2,0-.5-.3-.7-.4.3-.6.8-1.6,1.1-2.2.1-.8.4-1.1.7-.7,0,0,.3.3.4.4Z"/>
  <path class="st238" d="M117.9,246.2c0,.4-.4.3-.7.4-.3,1-2.6,1.2-3.3.4-.5.5-.7.3-.4-.4,1-.5,3.4-.7,4.4-.4Z"/>
  <path class="st101" d="M131.8,246.9c0,.1-.4.3-.4.4-.5.5-1.4.6-2.4.2-1.3.5-2.1.3-2.3-.5-.3-.1-.2-.2,0-.4,1.3-.2,2.7-.3,4-.4.3,0,.9.5,1.1.7Z"/>
  <path class="st248" d="M134.8,236.6c0,.1-.3.2-.4.4-.9,0-2.8-.3-3.3-1.1-.3-.1-.3-.2,0-.4l1.8-.4c.5,0,1.6.9,1.8,1.5Z"/>
  <path class="st190" d="M134.8,241c-.3.7-1.4,1.7-2.2,1.8-.3-.1-.3-.2,0-.4v-.4c-.2-.9,1-1.8,1.8-1.5l.4.4Z"/>
  <path class="st39" d="M130.7,246.2c-.8,0-2.8.8-4,.4-.1.3-.2.3-.4,0,0-.1,0-.2,0-.4h4.4Z"/>
  <path class="st119" d="M131.1,235.5v.4c.2.9-1,1.8-1.8,1.5,0-.2-.2-.3-.4-.4.3-.7,1.4-1.6,2.2-1.8.3.1.3.2,0,.4Z"/>
  <path class="st69" d="M120.1,248.4c1,.5.3,1.9-.7,1.8l-.4-.4c.2-.3.5-1.3.7-1.8.5-.5.7-.3.4.4Z"/>
  <path class="st173" d="M113.8,246.9c.7.8-.6,1.9-1.5,1.5l-.4-.4c.3-.6.8-1.2,1.5-1.5l.4.4Z"/>
  <path class="st319" d="M136.2,237.7c.3,0,.7,0,1.1,0,0,0-.4.7-.4,1.1-.2.3-.6.5-.7.7v-1.8Z"/>
  <path class="st86" d="M120.8,247.3c.7.8.3,1.4-.7,1.1l-.4-.4c.2-.5.5-.7.7-1.1l.4.4Z"/>
  <path class="st341" d="M132.6,242.5v.4c-.3,0-1.5,0-1.8,0,.3-.6,1.2-.3,1.8-.4Z"/>
  <path class="st104" d="M136.2,242.9c-.5,0-1,0-1.5,0-.2-.7.3-.7.4-.7.3.3,1,.4,1.1.7Z"/>
  <path class="st333" d="M132.9,235.2c-.1,0-1.2.7-1.8.4v-.4c.5-.1,1.3,0,1.8,0Z"/>
  <path class="st225" d="M247.5,130.9l-27.5,14.3c0-6.6,0-13.2,0-19.8l27.5-13.9c0,6.5,0,13,0,19.5Z"/>
  <path class="st320" d="M256.3,100.8c-.6.3-.3,1.3-.4,1.8-1.9,7.7-4.3,15.2-7.2,22.6l-.8.2c0-2.2,0-4.4,0-6.6,1.2-6.4,3.1-12.7,5.4-18.9l.8-.2c1.1.2,1.9-.6,2.2,1.1Z"/>
  <path class="st65" d="M254.1,99.7l-6.2,19.1c0-2.1,0-4.2,0-6.2.8-4.5,2.1-8.8,3.9-13.1l.8-.2c.6.1,1,.3,1.5.4Z"/>
  <path class="st304" d="M252.6,99.3l-4.8,13.2c0-2,0-3.9,0-5.9.6-2.3,1.1-4.7,1.7-7.1l.8-.6c.7.1,1.5.2,2.2.4Z"/>
  <path class="st13" d="M250.4,99c-.2,2.1-1.1,4.2-1.7,6.2s0,1.3-.9,1.5c0-2.7,0-5.4,0-8.1.9.1,1.7.2,2.6.4Z"/>
  <path class="st266" d="M191.7,220.8v20.1c-2.3,0-9.6,5.6-11,5.5,0,.6-.5.6-1.5-.1l-2.6-.3c-.9,1.2-1.9,1.8-2.9,1.8l-.4-.4c-1.8-1.9-4.5-1.6-6.6-.4-.3,1.4-1.3,1.1-1.1-.4-.5.1-1.2-.2-1.1-.7h-.4c-.3-.1-.3-.2,0-.4-1.1-.1-1.1-2.7,0-2.9-.5-.7-.5-1.7,0-2.9.2-1,.3-2,.4-2.9-.5-.7-.7-1.3,0-1.8-.1-.3,0-.6.1-.9,8.8-4.6,17.5-9.2,26.3-13.9l.7.4Z"/>
  <path class="st136" d="M191.7,220.8l-27.2,14.3c0,.3-.2.3-.4,0l-.6-.5c0-4.4-.1-8.9-.2-13.3l.8-.5c1.3-1.6,3.9-2.5,5.9-2.2-.2-1,4.5-3.2,5-3.2s.4.1.5.2c.4-1.7,2.7-3,4.4-3.3-.3-1.3,1.9-2.9,2.9-2.6-.5-1,1.2-2.7,2.2-2.2.2-1.5,1.4-3.8,2.9-3.7-.3-1.5,1.5-3.8,2.9-4-.6-.3-.4-.9.4-.7.6.4.4,1.4.4,2,0,6.5,0,13.1,0,19.6Z"/>
  <path class="st184" d="M219.6,181.2l-.7,3.5c-8.7,20.4-17.3,40.7-26,61h-.9c0-4.6,0-9.4,0-14.2l.7-3.5c8.7-20.5,17.3-40.9,26-61.3h.9c0,4.8,0,9.7,0,14.6Z"/>
  <path class="st289" d="M219.6,166.5l-27.5,65c0-4.3,0-8.6,0-12.8l.7-3.5c8.7-20.5,17.3-40.9,26-61.3h.9c0,4.1,0,8.4,0,12.7Z"/>
  <path class="st246" d="M219.6,153.7l-27.5,65c0-4,0-8.1,0-12.1l.8-3.8c8.6-20.4,17.3-40.7,25.9-61h.9c0,3.9,0,7.9,0,12Z"/>
  <path class="st80" d="M219.6,194.1c-6.5,15.7-12.9,31.4-19.1,47-.4.4-.7,1.1-1.1,1.5-2.3,2.4-4.9,4.5-7.2,7-.3-1.2-.2-2.5-.2-3.7l27.5-64.6c0,4.3,0,8.6,0,12.8Z"/>
  <path class="st208" d="M219.6,141.6l-27.5,65c0-2.6.3-5.6-.4-8.1v-1.5c2.3-4.4,3.9-9.1,4.6-14.1l.9-1.3,1.1-4.3c6.8-15.8,13.7-31.6,20.5-47.3h.9c0,3.8,0,7.7,0,11.6Z"/>
  <path class="st14" d="M191.3,153.3c.6-.3.6.6.4,1.1,1.7.4,2.9,3,2.6,4.8,1.7.2,1.8,3,1.5,4.4,1.9,1.5,1.9,5,1.5,7.3,1,.7,1.1,2.1.4,4,.9,1.8.8,4-.4,6.6-.7,6.3-2.5,11.4-5.5,16.9-.1.3-.3.5-.4.7s-.3.5-.4.7c-.7.8-1.2.7-1.5-.3-.1-3.1,0-6.2.4-9.2l-.4-1.3c2.6-8.2,2.3-16.2,0-24.3-.1-.4.2-.7.7-.9-.8-1.4-.7-10.6,0-11.1.3-.3.7-.2,1.1.4Z"/>
  <path class="st185" d="M173.3,247.6c1,1.2,1.2,3.9-.4,4.4.2.5-.6.9-1.1.7,0,.5-.7.6-1.1.4-1,.7-2.7.3-3.7-.4-.1,0-.2-.3-.4-.4-1.2-.6-1.3-3.7-.8-4.6s.9-.2,1.1-.2c1-2,4.9-1.7,6.2,0Z"/>
  <path class="st255" d="M180.7,246.5c0,.4,0,.8,0,1.1,1-.3.9,0,.4.7.7.6.5,2.5,0,3.3.5.8.3,1-.7.7,0,.2,0,.6-.2,1.1s-.7.5-.9.8c-.3.2-.4,0-.4-.4-.7.3-1,0-.7-.7v-.5c.7-.1,1.3-.4,1.8-1-.8-.2-1-.4-.4-.7-.6-.2-.6-.7,0-1.4-.9,0-1.6,0-2.2-.4-.5.5-.7.3-.4-.4-.3-1.3,1-1.6,2.1-1.4-.8,0-1.4-.3-1.7-.8-.7.1-.9,0-.7-.4,1.5-.3,2.9.3,4,.4Z"/>
  <path class="st56" d="M165.6,246.9c.2.2.3.7.4.7.2,0,.5-.3.7-.3.6-.6,1-.3.4.4-1.6,1.4-1.1,3-.4,4.8,0,0-.5,0-.6,0-.3-.4-.3-1.2-.8-1.8-.5.3-.7.1-.4-.4-.3-1.2-.2-2.2.4-2.9-.5-.5-.2-.7.4-.4Z"/>
  <path class="st88" d="M173.7,248c1-.3,1.3,0,.7.7,1.2,0,1,2.6.4,3.3.5.5.3.7-.4.4-.2-.1-.4-.9-.7-.7,0,.3-.2.5-.4.7-.5.4-.7.2-.4-.4.7-.9.9-3.5.4-4.4.1.1.3.2.4.4Z"/>
  <path class="st25" d="M176.6,254.3c.7-.3,1.4-.4,2.2-.4.1.1.2.3.4.4-.2.3-.2,1-.6,1.1-.9.2-2.4-.2-3.4,0l1.1-1.5c.6-.4.8-.2.4.4Z"/>
  <path class="st84" d="M185.4,253.1c.4,0,.5,0,.4.4-2.1.5-2.1.6-4-.4-.5-.5-.3-.7.4-.4.7-.8,2.9-.6,3.3.4Z"/>
  <path class="st283" d="M170.7,253.1c.3,0,.5,0,.4.4-1.4.3-1.8.7-3.4,0s-.5-.6-.6-.7c1.2.2,2.4.5,3.7.4Z"/>
  <path class="st44" d="M188.4,248.4v.4c-.9.4-2.8-1.3-2.9-2.2-.1-.2.1-.4.7-.4,1.4.2,1.7,1.2,2.2,2.2Z"/>
  <path class="st284" d="M186.2,246.2l-.7.4c-.2,1-2.4,1.2-2.9.4-.5.5-.7.3-.4-.4,1.1-.4,2.9-.5,4-.4Z"/>
  <path class="st39" d="M188.7,250.6c-.2,1,0,1-.7,1.8-.5.4-.7.3-.4-.4-.9-.5-.7-1.4.4-1.5.3-.6.6-.7.7,0Z"/>
  <path class="st39" d="M188.7,250.6h-.7c-.8-.7-.5-1.4.4-1.8v-.4c.1.3.6.4.7,1,.2.8-.3.9-.3,1.2Z"/>
  <path class="st159" d="M182.5,246.9c.7.8-.6,1.9-1.5,1.5,0-.2-.3-.5-.4-.7.5-.3.9-.9,1.5-1.1l.4.4Z"/>
  <path class="st193" d="M161.9,253.1c-1.3,0-.8-4.9-.4-5.3,1.2-1.3,3.5-.2,2.7,1.7l.6.7s.3.3.4.4c-.1.4-.4.3-.7.4s-.2,0-.4,0c-1.4,0-1.9.7-1.7,2.3h-.5Z"/>
  <path class="st75" d="M182.1,252.8l-.4.4c-.5-.2-.8-.7-1.5-.7.1-.2.5-.5.7-.7.9-.5,1.6.2,1.1,1.1Z"/>
  <path class="st76" d="M176.2,253.1c.5.5.3.7-.4.4-.5-.4-1-.7-1.5-1.1l.4-.4c.7-.8,1.8.2,1.5,1.1Z"/>
  <path class="st96" d="M177.3,253.5c.5.7,0,1-.7.7-.1,0-.2-.3-.4-.4s-.2-.3-.4-.4l.4-.4c.4-1.2,1.5-.8,1.1.4Z"/>
  <path class="st39" d="M188,252.4c-.6.7-.5.4-1.1.7-.4.1-.6,0-.4-.4-.6-.9.4-1.4,1.1-.7l.4.4Z"/>
  <path class="st39" d="M173.3,252.4c-.6.6-.5.4-1.1.7-.4.1-.6,0-.4-.4.2,0,1-.6,1.1-.7l.4.4Z"/>
  <path class="st341" d="M186.5,252.8l.4.4c-.5.3-.6.2-1.1.4l-.4-.4c-.3-1,.6-1.2,1.1-.4Z"/>
  <path class="st283" d="M172.2,253.1c-.5.3-.6.3-1.1.4l-.4-.4c.4,0,.7-.2,1.1-.4l.4.4Z"/>
  <path class="st73" d="M219.6,217.2c-.1.7-.7,1.6-1.1,2.2-2.3,3.7-6,7.9-8.8,11.4,0-.3-.2-.7-.2-1.1s0-.7,0-1c.8-2.8,7.3-21,9.2-22.3h.9c0,3.2.4,8,0,10.8Z"/>
  <path class="st313" d="M244.5,90.2l-24.6,13.2c0-2.8,0-5.6,0-8.4-.4,0-.7,0-1.1,0-.4,1.1-2.1.8-2.2-.4l.3-1.1c3.6-2,7.1-3.8,10.7-5.6,5.6.6,11.3,1.4,16.9,2.2Z"/>
  <path class="st241" d="M257,83.9c.1-.3.2-.3.4,0,0,.2,0,.5,0,.7,0,.9-.3,1.7-.4,2.6l-12.5-5,12.5,1.7Z"/>
  <path class="st241" d="M257,88.3c0,1,.3,2.6-.4,3.3-3.8-1.4-7.7-2.8-11.4-4.4-.5-.5-.3-.6.4-.4,3.8.6,7.6,1.1,11.4,1.5Z"/>
  <path class="st268" d="M116.8,84.7c.4-.1.7-.2,1.1-.2,5.2-.2,4.4,1,1.1,2.7-3.7,2-7.3,3.9-11,5.6-.7,0-1.4.2-2.2.4-.8,1-3.6,1.5-4.4.4-.3,1.2-2.7.8-3.3.2l-1.8.2c-.4.9-.7.9-1.1,0-.7,1-3.4,1.5-4,.4-3.1,1.3-7,1.6-10.3.7-.4,0-.3.2-.4.5-.4,2.7,0,6.8,0,9.7,0,.7-.6,1.1-1.8,1.1l-25,13.3-.7-.4-.4-1.8c.3-4.8.4-9.6.4-14.4-.3-.6-.3-1.3,0-1.8,7.5-3.9,15.3-7.5,22.6-11.7s1.8-1,2.3-1.9c12.6-1.3,26.2-3,38.9-2.9Z"/>
  <path class="st241" d="M55.1,85.8c.5-.1.6-.1.4.4-3.7,1.5-7.4,3.1-11,4.6-.6.2-1.3,0-1.1.9-.7-.7-.3-3.2-.4-4.4,4.1-.3,8.1-.9,12.1-1.5Z"/>
  <path class="st20" d="M54,81.4c.8-.2,1.1,0,1.1.4-3.9,1.8-8.1,3.3-12.1,4.8,0-.2-.2-.3-.4-.4,0-1,0-2.2,0-3.3,3.8-.4,7.6-1,11.4-1.5Z"/>
  <path class="st250" d="M50,99c.1.3.2.7.2,1,.1,1.5-3.5,12.3-4.2,12.5s-.6-.1-.8-.3c-.1-1.5-.6-3.2-.7-4.8.8-2.6,1.6-5.2,2.5-7.7l.8-.3c.8-.1,1.3-.3,2.2-.4Z"/>
  <path class="st57" d="M52.5,98.6c.3.6.3,1.6,0,2.2-1.5,5.4-3.2,10.9-5.3,16.1-.4,1-1.2,1.5-1.7.4-.1-1-.3-2-.4-2.9h.5c1.8-5.1,3.5-10,5-15.1.5.4.5.3,0-.4.4,0,1-.7,1.8-.4Z"/>
  <path class="st128" d="M50.7,99c1.2-.1.7.3.5,1-1.2,4.2-3.2,10.2-4.9,14.2s-.6,1.2-1.1.2c0-.7,0-1.5,0-2.2.7-.2.7-.9.9-1.5,1.4-3.8,2.8-7.8,3.8-11.8.2,0,.5,0,.7,0Z"/>
  <path class="st98" d="M47.8,99.3c-.8,2.5-1.5,6.2-3.3,8.1,0-.9-.3-2-.4-2.6-.1-1.6,0-3.2-.2-4.8.5-.6,3.1-.6,3.9-.7Z"/>
  <path class="st150" d="M52.9,101.2c0,.6,0,1.2,0,1.8-.1.3-.2.3-.4,0-.6-.5-.6-1.3,0-2.2v-2.2c.1,0,.3,0,.3.2.1.8,0,1.6,0,2.4Z"/>
  <path class="st73" d="M160.8,242.1c.9.5,2.2.7,2.9,0l.4.8v2.9c-1.4.1-2.9.2-4.4.4.3,1.1.3,2.2,0,3.3l-.4,2.9c.5.3.6,1,0,1.1l1.5.4.3.9c-2.3,7.7-4.7,15.2-7.4,22.5l.2.5c-.7.4-3.7,2.5-4.2,2.5-.6-.3-1.1-1-1.6-1.4l-.2-1c2.5-7.6,4.9-15.3,7.2-23.1l1.1-1.6c-.7-.3-.3-.7.4-.7.3-.9.7-1.5,1.1-1.8,0-.7.1-1.3.4-1.8-1-.8,1.7-6.1,2.1-6.4s.5-.3.8-.2Z"/>
  <path class="st337" d="M164.1,251.3v19.9c-.3.7-8.9,5.7-10.3,6.5-1.1.2-.7-.4-.6-1.1,1.8-7.5,5.7-15.2,7.5-22.7.6-.1,1.2-.2,1.8-.4-.5.3-.2-2.5,0-2.5s1.4.1,1.5.3Z"/>
  <path class="st340" d="M146.5,253.5h2c.7-.5,1.3-.5,1.7,0,0-.3.2-.3.4,0,0-.2.2-.2.4,0l.6.6c-2.5,7.2-5,14.4-7.5,21.7l-.8.2c-.9-.6-2.7-1.2-3.7-1.8s-.8-.9-1.1-1.1l-.6-.6c2.4-6.6,4.7-13.2,7.1-19.8l.8-.2c.5-.4.9.6.7,1.1Z"/>
  <path class="st77" d="M153.9,253.9l.6.5-7.5,23.1-.8.2c-1-.6-2-1.3-2.9-1.8l7.7-22.4c.5-.4,2.5-.2,2.9.4Z"/>
  <path class="st183" d="M148,278.8c-.6-.4-1.2-.8-1.8-1.1l7.7-23.9c-.2-.4,0-.5.7-.4.2-.6,1.1-.8,1.5-.4-1.7,8.8-5.5,17.1-8.1,25.7Z"/>
  <path class="st97" d="M160.1,246.5c.3,1.4.3,2.9,0,4.4l.7.5c0,.6.3,1.2,1.1,1.7.7-.2.2-1.9.4-2.6.6.4,1.1.3,1.8.4v.4h-1.5c-.2.2.2,1.8,0,2.2-1,.3-2.3.3-3.3,0,0-.2,0-.8,0-1.1l.4-2.9c0-1.1,0-2.2,0-3.3h.4c.3.1.3.2,0,.4Z"/>
  <path class="st172" d="M136.6,250.6c0,1,.2,1.9.5,2.7l-.5.2c.3.1.3.2,0,.4.7,6,.7,12,0,18-.2-.3-.3-.3-.4-.9-.4-3.8,0-9.4,0-13.4v-8.8c.1,0,.3,0,.4,0,.3.5.3,1.4,0,1.8Z"/>
  <path class="st112" d="M120.1,252.8c-1.4-1.6,1.7-2.9,3.2-2.1s1.7,2.1.5,2.5c0,0-.3.2-.4.4-1-.9-1-2.9-2.9-.4-.5.1-.6,0-.4-.4Z"/>
  <path class="st333" d="M120.5,253.1c0,.1,0,.2,0,.4-1.3-.2-3,.4-4-.4.3-1,.7-1,1.1,0,.1,0,.2,0,.4,0,.4-1,1.5-.9,2.2-.4.3,0,.3,0,.4.4Z"/>
  <path class="st237" d="M145.8,252.4l-7.3,20.6c-.5-.3-1.3-.3-1.8-1.1v-18c.7-.3,1.5-.3,2.2,0,0-.3.2-.3.4,0l.4-.7c1.2.6,2.6.7,4,.3-.7-1.2,1.7-3.2,2.2-1.1Z"/>
  <path class="st239" d="M219.6,206.5c-1.3,1.3-2,3.4-2.7,5.2-2.6,6.2-5.4,12.7-7.2,19.1-2.9,3.6-6,6.9-9.2,10.3,0-.8,0-1.5.2-2.2,1.1-4.3,4.5-11,6.3-15.4,3.5-8.7,7.3-20.1,11.5-28.2.3-.5.6-1,1.2-1.2,0,4.2,0,8.3,0,12.5Z"/>
  <path class="st256" d="M52.5,136.4l-1.4,5c-.3.8-.7,1.1-1.5.8-.4-2.1-1.1-4.2-1.5-6.2s0-.5,0-.7c.9-1.6,1.6-3.3,2.1-5.3.4-1.9,1.1-2.9,2.3-3.1,0,3.2,0,6.4,0,9.5Z"/>
  <path class="st290" d="M50.7,147.4c-.4-1.7-.7-3.4-1.1-5.1,1.7-1.4,1.1-4.6,2.9-5.9,0,2.3.4,6.3,0,8.3s-1.3,2.3-1.8,2.8Z"/>
  <path class="st150" d="M52.5,106c.3,2.6.4,5.5.3,8.2s-.2,3.5-.6,5.1-3.4,10-4.5,9.7-.5-.3-.7-.6c-.4-2.7-.8-5.4-1.1-8.1l.5-.2c1.7-4.6,3.2-9.3,4.6-14,.4-.9,1.2-1.2,1.5-.1Z"/>
  <path class="st297" d="M52.9,119.2c.7.8.7,1.7,0,2.6-.7,1.4-.4,3.5-.4,5.1-1.7,2.3-2.2,5.7-3.3,8.3s-.4.5-1.1.1c-.4-2.3-.7-4.7-1.1-7,.9,0,1.1-.7,1.4-1.3.6-1.2,3.9-9.9,4.1-11,.4-2.5,0-7.3,0-10.1-1.1-.1-1.1-2.7,0-2.9h.4c0,5.4,0,10.8,0,16.2Z"/>
  <path class="st305" d="M52.5,103v2.9c-.9-.2-.8.4-1,1-1.4,3.9-2.7,9.6-4.4,13.2s-.7,1.1-1.2.1c0-.7-.3-1.2-.4-1.5,0-.5,0-1,0-1.5,1,0,.9-.5,1.2-1.2,1.6-3.6,2.7-8,4-11.8s.8-2.8,1.7-3.6c0,.7,0,1.5,0,2.2Z"/>
  <path class="st289" d="M108.3,156.6l.6.7c-2.3,5.7-3.6,11.6-3.9,17.6l-.8,1.2-.7,3.5c-6.1,14.5-12.2,29-18.3,43.4h-.9c-1-1.3-2.4-2.7-3.3-4.3,0-.8,0-1.9.4-2.8,8.7-20.5,17.3-40.9,25.9-61.3h.9c.3.4.3,1.4,0,2.1Z"/>
  <path class="st184" d="M105.4,187.8v2.1c-5.5,12.6-11,25.2-16.4,37.8h-.9c-1.2-1.5-2.5-2.9-3.7-4.7l19.8-47,.7,1.1c0,3.2.2,6.4.9,9.5l-.5,1.2Z"/>
  <path class="st80" d="M107.6,194.4v1.1c-4.7,12.2-9.8,24.4-14.9,36.6h-.8c-.8-.8-2.5-2.2-3.3-3.2s-.1-.8-.4-1.1l17.3-40,.8.2,1.9,5.6-.5.8Z"/>
  <path class="st246" d="M108.3,154.4l-27.2,64.2c-.1-.2-.3-.5-.4-.7v-4.4l.7-3.5c8.7-20.5,17.3-40.9,26-61.3h.9c.3,1.8.3,3.8,0,5.7Z"/>
  <path class="st48" d="M253,129.8c-.1.9-.6,2.4-.7,3.3-.9-.2-1.2,1.5-1.4,2.1-.9,2.6-1.4,5.9-3,8.2,0-2.8,0-5.6,0-8.4,1.2-5.4,3-10.8,5.4-16h.8c-.4,3.5-.6,7.3-1.1,10.9Z"/>
  <path class="st303" d="M263.6,37.3c0,6.3,0,12.6,0,18.8-1.8.9-3.5,2.2-5.5,2.4-.7-.6-.7-1.2,0-1.8-.3-4.3-.3-8.6,0-12.8-.7-.2-.7-.5,0-.7-.7-.2-.7-.5,0-.7-.9-1.3-.9-2.3,0-2.9l5.5-2.2Z"/>
  <path class="st241" d="M258.1,39.5c0,1,0,2,0,2.9-.9,0-1.8-.5-2.7-1.1-2.8-.9-5.3-2.1-7.5-3.7-.3-.4-.1-.5.7-.4,3,.5,6.1.9,9.2,1.1v-1.5c.2,1,.3,1.4.4,2.6Z"/>
  <path class="st241" d="M249.3,32.9c2.3.3,4.6.6,7,.7,1.4,1.4,1.1,1.6,1.5,3.3-3.1-1-6.1-2.5-9.2-3.7-.3-.4,0-.5.7-.4Z"/>
  <path class="st328" d="M246,37.3c2.5.8,4.9,1.9,6.2,4.3,1.9.2,3.8.6,5.6,1l.3.5c0,.2,0,.5,0,.7-.1.8-.2,1.5-.4,2.2l-.5.6c-2.3-1.2-3.8-.4-.6.1l.4.7c1.4-.1,1.2,2.4.4,2.9-.3.5-.8.7-1.5.6,1,.1,1.6.5,1.9,1.3.3,1,.3,2,0,2.9-.2.4-.5.7-.9.6-5.1-3-9.6-2.7-15.3-2.2-2.8.3-4-.5-5.4-3-5-2.9-18.1-3.4-16.6,5.3,1.1,6.1,13.1,5.4,16.8,2.4.6-1.3,1.3-1.9,2.1-1.7,0-.2,0-.4.1-.5.4-.6,9.5-.3,10.7.5l-2.7-.5c-.7-.4-.5-.9,0-1.5s8.9.9,10.4,1.2l.9.8c.1-.3.2-.3.4,0,0,.6,0,1.2,0,1.8,0,2.2-.3,4.6-.4,6.6-.4-.3-.4,0,0,.7,0,1.1,0,2.2,0,3.3-.3.6-.7.5-1.2.3l-4.3-1.8c-1.8,1.1,2.9,1.6,4,1.7l.8.8c.9.4,1,3.8-.4,2.9,0,.3-.3.5-.6.5l-6.9-2.7c-1.7,1.2-3.4,1.9-5.4,2.2-9.5,3.6-29.5,3.4-37.1-4.2-5.5-5.5-6.1-16.9-3.2-23.8,5.6-13.2,31.7-13.6,42.5-8Z"/>
  <path class="st241" d="M257.7,70.4c0,.7,0,1.5,0,2.2,0,2-.3,4.1-.4,5.9-3.8-1.6-7.8-3.6-11.7-4.8-.6-.6.2-.9.9-1.1l10,1.5v-.8c1.4.4,1-2,.5-2.9.2-.7.5-.7.7,0Z"/>
  <path class="st270" d="M257.7,69.2c0,.4,0,.7,0,1.1-.2,0-.5,0-.7,0-2.2-.2-4.5-.5-6.6-1.3.6-.3,1.1-1.6,1.5-1.9.8-.5,4.6,1.8,5.9,2Z"/>
  <path class="st220" d="M257.7,65.9c-1.2-.5-6.1-.1-3.9-2.2s3.8.3,3.9,1.5c0,.2,0,.5,0,.7Z"/>
  <path class="st218" d="M254.8,114.4c-.2,1.4-.6,2.9-.7,4.4l-6.2,16.2c0-3.2,0-6.4,0-9.5l8.1-22.8c-.3,3.9-.7,7.9-1.1,11.7Z"/>
  <path class="st325" d="M42.3,68.5c1.3-.1,4.6-2.3,5.7-2.2s1.3,1.8,1.3,2l-7,.9c0-.2,0-.5,0-.7Z"/>
  <path class="st10" d="M108.3,195.9v12.5c-3.9,9.2-7.7,18.6-11.3,28.2-.4.9-.9.8-1.5.1-1.3-1.5-2.5-3-3.7-4.4l15.8-37.8c1-.4,1.5.7.7,1.5Z"/>
  <path class="st265" d="M108.3,208.4c0,4.4,0,8.8,0,13.2l-8.8,19.5c-.6-.6-1.7-1.3-2.2-1.8s-1.2-1.9-1.8-2.6c.9.2.8-.4,1-1,3.9-8.2,6.5-18.2,10.5-26.2s.4-1.1,1.3-1.1Z"/>
  <path class="st241" d="M55.1,76.6c.5-.1.6-.1.4.4-4.3,1.7-8.5,3.6-12.8,5.1,0-1.2,0-2.5,0-3.7,4.1-.7,8.3-1.2,12.5-1.8Z"/>
  <path class="st241" d="M247.1,78.1c3.4.4,6.9.8,10.3,1.5,0,1.5,0,2.9,0,4.4h-.4c.1-.9-.1-1.1-.8-1.6-2.4-1.4-7-2.8-9.8-4-.3-.4,0-.5.7-.4Z"/>
  <path class="st164" d="M155,83.9c0,.9-.4,1.5-1.4,1.9l-11,5.8c-2,0-3.9,0-5.9.4.5.8.7,2.9-.4,3.3l-.5,1.1c-8.8,4.6-17.5,9.1-26.3,13.7l-.7-.4c-.1-5.3-.2-10.7-.1-16.2,0-.3-.1-.5-.6-.7,0-.9,1.6-1.5,2.3-1.9s11.5-5.7,10.9-6.2c-1.5,0-2.9,0-4.4,0,.4-.6,1.4-.4,2-.4,12.1-.1,24.1-.4,36.2-.4Z"/>
  <path class="st303" d="M206.7,86.1c.2.3.4.6.2.9-.9,1.3-9.6,5.9-11.6,5.8h-2.9c0,.3-.2.3-.4,0,0,.3-.2.3-.4,0,0,.5-.3.8-.5,1.1l-26.1,13.4h-.6c0-5.3,0-10.3-.4-15.4l.5-.2v-.8c4.7-2.1,9.1-4.3,13.6-6.6,9.6.3,19.1,1.1,28.6,1.8Z"/>
  <polygon class="st322" points="200.1 35.1 200.1 46.9 171.1 46.9 171.1 49.4 200.1 49.4 200.1 60.4 171.1 60.4 171.1 62.6 200.1 62.6 200.1 74.8 154.2 74.8 154.2 35.1 200.1 35.1"/>
  <path class="st328" d="M117.1,65.6v9.2h-16.9v-39.6h39.8c.9,0,4.5,1.7,5.4,2.3,10,6.1,9.4,21.4-1.2,26.6s-4.1,1.6-4.6,1.6h-22.6Z"/>
  <path class="st226" d="M166.3,83.9l4.4.4c2.4,0,4.9,0,7.3,0-.2.6-.7.9-1.2,1.2-2,1.2-10.6,5.9-12.4,6.2,0,.5-.5.5-1.5,0-3,.4-6.2.3-9.2,0-1.1.3-2.2.3-3.3,0-2.7.3-5.4.2-8.1,0,.2-.6.3-.9.8-1.2,3.5-2.4,8.3-3.8,11.6-6.5,3.8,0,7.6,0,11.4,0Z"/>
  <path class="st312" d="M227.6,88c-3,3.1-7.5,4.3-11,6.6-.5.2-1.1.2-1.8,0-.2,1-1.7,1.1-1.8,0-.9,1-2.6.8-3.3-.4-1.2.9-2.7.8-3.7-.4-.5,1-2.1,1.1-2.6,0-.6.2-1.2.4-1.8.6l-8.2-.9-1.1-.8c1.1,0,2.2.2,3.3-.2,1.7-.6,7.1-3.8,9.1-4.9s1.5-.8,2-1.5c7,.6,14,1.1,20.9,1.8Z"/>
  <path class="st270" d="M256.6,73.3c.7.4.9.6.7,1.5-.3.4-8.5-1.2-9.8-1.4s-1.5-.4-1.9.3c-.6-.2-1.1-.5-1.8-.4,1.1-.4,5-2.9,5.3-2.9s6.8,2.5,7.5,2.9Z"/>
  <path class="st270" d="M247.8,37.7c2.5.8,6.8,2.4,9.1,3.6s.8.7,1.2,1.2c0,.2,0,.5,0,.7-1.6-.4-4.9-.3-6.2-.9s-.9-1.4-1.5-1.8c-1.1-.9-3.2-2.5-4.4-3.1h.4c.5-.4,1.4-.3,1.5.4Z"/>
  <path class="st303" d="M170.7,84.3c-1.4,0-3.3.3-4.4-.4,1.4,0,3.3-.3,4.4.4Z"/>
  <path class="st11" d="M249.3,32.9l-.7.4c-.6-.2-1.6-.1-1.5-.7.8-.4,1.7.3,2.2.4Z"/>
  <path class="st110" d="M247.1,78.1l-.7.4c-.5-.2-.9-.4-1.5-.4v-.4c.8-.4,1.7.3,2.2.4Z"/>
  <path class="st16" d="M54,81.4c.5,0,1.4-.7,2.2-.4.1.5-.6.5-1.1.7l-1.1-.4Z"/>
  <path class="st324" d="M248.6,37.3l-.7.4c-.5-.2-.9-.5-1.5-.4.6-1,1.7,0,2.2,0Z"/>
  <path class="st117" d="M55.1,76.6c.4,0,1.1-.7,1.8-.4.1.6-.9.5-1.5.7l-.4-.4Z"/>
  <path class="st229" d="M55.1,85.8c.3,0,1.1-.7,1.8-.4v.4c-.5,0-1,.2-1.5.4l-.4-.4Z"/>
  <path class="st241" d="M52.2,36.2c.4,0,1.1-.7,1.8-.4.1.4-.6.5-1.1.7l-.7-.4Z"/>
  <path class="st102" d="M245.6,86.9l-.4.4c-.5-.2-1.2-.3-1.1-.7.6-.3,1.2.3,1.5.4Z"/>
  <path class="st207" d="M53.3,31.4c.2,0,.8-.7,1.5-.4.1.4-.6.5-1.1.7l-.4-.4Z"/>
  <path class="st338" d="M82.3,51.6c-.1,0-.7-1.7-1.5-2.4-2.9-2.7-12.4-2.5-15.9-1.2-5.6,2.2-5.5,11.6.6,13.6,3.9,1.3,12.5,1.5,15.5-1.6s1.1-2.2,1.3-2.2h14.5c.7,0,.1,2.4,0,3-3.2,16.3-34.5,16.6-44.8,8.4-8.4-6.7-7.7-24.4,1.8-30.1,10.8-6.5,39.8-6.4,43,9.5.1.5.7,3,0,3-1.9,0-13.9.4-14.5,0Z"/>
  <path class="st270" d="M54,72.2l-11.4,1.5c-.2-.9.2-.6.7-.9.8-.4,6.8-3,7.2-3.1s3,2,3.4,2.5Z"/>
  <path class="st329" d="M43,46.5c-1.1,0-.6-.5-.7-1.1l5.5-2.2c-.8,3.7-2.6,2.5-4.8,3.3Z"/>
  <path class="st220" d="M46.3,62.7c0,0,.5,1.3.4,1.4-.6,0-4.3.9-4.4.7s-.2-.9.2-1.1,3.5-1.2,3.8-1.1Z"/>
  <path class="st234" d="M42.3,51.3c0-.6.4-1.2.4-1.5l2.9-1.1c.5,2.8-1.3,2-3.3,2.6Z"/>
  <path class="st243" d="M45.6,59.7c0,.1-3.2.9-3.3.7-.7-1,1.8-2.1,2.5-2.1s1.1,1,.8,1.4Z"/>
  <path class="st220" d="M42.3,54.6l2.9-1.1c.4,2.5-.8,1.8-2.6,2.2-.5-.2-.4-.7-.4-1.1Z"/>
  <path class="st249" d="M219.6,107.8c0,3.5,0,7.1,0,10.6l-.7,3.5c-7,16.3-13.9,32.6-20.8,48.9h-.9c-.3-2.2-.8-5-1.5-7.2v-1.9c7.7-17.9,15.3-35.9,23-53.8h.9Z"/>
  <path class="st57" d="M216.6,94.6c.6,0,1.2.3,2.2.4,1.2.5.7,2.4.7,3.7l-.7,3.5c-15.9,37.9-23.8,56.9-23.8,56.9h-.9c-.7-1.5-1.7-3.1-2.6-4.6,0-.5,0-.6.4-.4,7.6-19,15.4-38.4,23.5-58.3-.5-.3-.7-.7-.8-1.2.6,0,1.2,0,1.8,0Z"/>
  <path class="st305" d="M219.6,107.8l-23.9,55.8c-.4-1.3-1-3.2-1.5-4.4l25.3-60.6c0,3,0,6.1,0,9.2Z"/>
  <path class="st150" d="M219.6,129.8l-22.4,51.8c.3-2.2.4-4.4.4-6.6l.5-3c6.9-16,13.8-32,20.7-47.9h.9c0,1.8,0,3.8,0,5.7Z"/>
  <path class="st150" d="M219.6,123.9l-22,51c0-1.2-.2-2.8-.4-4l22.4-52.5c0,1.8,0,3.7,0,5.5Z"/>
  <path class="st132" d="M80.4,105.2c0,4.9,0,9.8,0,14.7l-27.5,13.9c0-4,0-8.1,0-12.1s0-1.7,0-2.6l25.6-13.5,2-.4Z"/>
  <path class="st208" d="M108.3,141.2l-.7,3.5c-8.7,20.6-17.3,41.2-26,61.7h-.9c0,.1,0-12,0-12l.7-3.5c8.7-20.6,17.3-41.2,26-61.7h.9c.3,3.9.3,8,0,12Z"/>
  <path class="st249" d="M108.3,118.8l-.7,3.5c-8.7,20.5-17.3,40.9-26,61.3h-.9c0,.1,0-10.9,0-10.9l.7-3.5c8.7-20.6,17.3-41.2,26-61.7h.9c.3,3.7.3,7.5,0,11.2Z"/>
  <path class="st150" d="M108.3,118.8c.3,3.4.3,6.9,0,10.3l-27.5,65.3v-10.6l27.5-65Z"/>
  <path class="st61" d="M105.8,93.1c.4-.3,2.7-.3,2.8-.1.5,1,0,4-.2,5.3l-.7,3.5c-8.7,20.6-17.3,41.2-26,61.7h-.9c0,.1,0-9.4,0-9.4l.8-3.8c7.8-19,15.5-37.9,23.3-56.8l.9-.4Z"/>
  <path class="st305" d="M108.3,107.4l-27.5,65.3v-9.2l27.5-65.3c.5,3,.3,6.1,0,9.2Z"/>
  <path class="st128" d="M105.8,93.1l-25,60.9v-8.8c5.4-12.5,10.4-25.2,15-38.2,2.1-5,3.9-9.5,5.6-13.6,1.4,0,2.7-.4,4.4-.4Z"/>
  <path class="st246" d="M108.3,148.5l-27.5,65v-7l27.5-65.3c.3,2.4.3,4.9,0,7.3Z"/>
  <path class="st148" d="M101.4,93.5l.6,1.1c-7.5,15.6-12.3,34-20,49.4-.3.6-.4,1-1.1,1.3v-9.2l.8-3.7,15.9-37.6c-.6-.1-1-.4-1.2-.9,1.4-.7,3.5-.3,5.1-.4Z"/>
  <path class="st232" d="M91.1,94.2l.5.6s-3.3,7.8-10,23.5h-.8c0,.1,0-23.4,0-23.4,3.4-.3,6.8-.5,10.3-.7Z"/>
  <path class="st15" d="M96.2,93.8c.6,0,2.5-.4,2.2.5l-17.6,41.7v-7.7l.7-3.7c4.2-10.2,8.4-20.3,12.7-30.5l.9-.4c.4,0,.7,0,1.1,0Z"/>
  <path class="st166" d="M95.1,93.8l-14.3,34.5v-9.9l10.3-24.2c1.3,0,2.5-.4,4-.4Z"/>
  <path class="st338" d="M150.2,122.5l1-.2c2.3,1.8,4.8,4.1,5.6,7,.7,0,1.1.3,1.2.9.8-.9,3.8-.5,4,.7,1.2-.5,2.7-.3,4.5.6,1.8.3,2.8.9,3.2,2,3.8.5,8.4,3.7,11.3,6.3v1c1.6-.8,3,1.7,1.2,1.5,0,.7-.5.7-.7,0-1.5,0-3.5-1.1-3.7-2.6-1.2.5-3.5-.9-3.7-2.2-1.6-.3-3.2-.7-4.8-1.3l-.4-.9c-5-1.1-10.1-1.8-15.2-2.1-5.1.3-10.2,1.1-15.2,2.1l-.3.9c-1.6.6-3.2,1.1-4.9,1.3-.1,1.5-2.9,2.6-4.4,2.6.3,1.1-2,2.4-2.9,1.8-.1,1.4-1.8,2.9-3.3,2.9.6.9-.9,2.4-1.8,1.8.3,1.1-1.8,3.9-2.9,3.7-.2,1.2-.7,3.2-2.2,2.9-.2,1.8-.8,2.8-1.8,2.9.5,1.1.1,2-1.1,2.2,0,2-.7,3.4-1.8,4,.3.5.3,1.1.1,1.6-2.4,11.1-2.2,15.8,0,26.8s.1,1.1-.1,1.6c1.1.7,1.8,2,1.8,4,1.3,0,1.6,1.7,1.1,2.6,1.1.2,1.7,1.2,1.8,2.9,1.3-.2,1.6,1.1,1.5,2.2,1.5-.3,2.2,1.7,2.6,2.9,1.1,0,1.9.7,2.3,2,1.3.4,2.3,1.4,2.4,2.8,1.2-.3,2.3.6,2.2,1.8,1.2-.4,3.3.9,3.3,2.2,1.5-.4,3.9,1.2,4.4,2.6,2.1-.2,5.8,1,7,2.6.8-.4,3.5-.5,3.7.7.6.7-.5.7-1.1.4-2.5,0-5-.7-7.3-1.5-4.1-1.3-9.7-4.1-13.2-6.6-.3,0-.5,0-.8,0-2.9-.3-14-13.5-13.9-17.7-.1-.2-.3-.5-.4-.7-.2-.5-.6-1.1-.7-1.5-.6-1.6-1.8-5-2.2-6.6-.9-3.6-1.1-8-1.1-11.7s.3-7,1.2-10.7,2.5-6.4,2.8-8.7l.4-.7c1.3-4.5,4.8-8.9,8-12.3,2.4-2.6,5.1-5.1,8.1-7s7.7-4.8,11.5-4.5c0-.3.2-.3.4,0,1.7-1.7,5.8-2.8,8.1-1.8,1.9-1.4,5.3-1.6,7.3-.4.8.3,3.3.3,1.8,0-2.1-1.6-4-4.8-4.4-7.3,0-.3.2-.3.7,0Z"/>
  <path class="st87" d="M123.4,214.2l-14.7,7v-24.6c3.2,6.6,8.7,13.3,14.7,17.6Z"/>
  <path class="st183" d="M164.1,220.8c-.4,1.8.5,13.8,0,14.3-.9,0-1.7.1-2.6.4l-.7.7c-.4.3-.8,2.3.6,2.1.1.2,0,3.7-.6,3.8-.6,1.8-2.2,4.4-2.9,6.6-.1.3-.2.3-.4,0-.6-.5-1.2-1.3-1.8-2.2-.4.2-.9,0-1.1-.4-.8-.4-1.8-.3-2.6,0h-.4c-1.3.9-2.3,2-2.9,3.3-.8.9-1.6-1.6-1.1-2.2,1.7-1.1,1.5-3.6,1.8-5.1-.5-.3-.1-.9.4-1.1,0-1.8,1.1-1.9,1.8-.4.2.6,0,1.2-.7,1.1-.2.3,0,.6.2.9s4.4-.2,4.2-2c.1-.3.2-.3.4,0,.4.2.7,1,.7,2.2l.3-.8c2.5.3,2.8-1.9.1-1.4l-.5-.7c-.2-.2-.2-.4,0-.7-.3-.1-.3-.2,0-.4.3-.6.3-1.2,0-1.8-.4,0-.6-.8-.4-1.1,1.5-4.6,3-9.1,4.5-13.7l.7-.6c.1-.7.8-1,2.2-.7,0-1,.4-.9.7,0Z"/>
  <path class="st184" d="M155,223l.5,1.1c-1.3,3.5-2.4,7-3.3,10.5l-.9.8c.3.4-.3.8-.7.7,0,1.6-1.3,1-1.1-.4-1.1-.2-2.1-.4-2.9-.7.2-4,2.4-7.8,3.3-11.7.7-1,4.4-1.4,5.1-.4Z"/>
  <path class="st82" d="M163.4,220.8c-.7.2-1.3.5-2.2.7-1.1,1.5-4.6,2.5-6.2,1.5-1.5.2-3.7.5-5.1.4s-2.4-1.1-2.6-1.1c-.7.1-2,.4-2.2-.4-1.1-.3-2.6-.4-3.7-.7-.9-.4-.9-.7-.1-1.3s21.1-.7,21.9,0,.3.6.3.9Z"/>
  <path class="st203" d="M144.7,237.4l.4.3c-.2,2.4-.3,4.4,2.9,3.7l.7.5c.5-.5.7-.3.4.4-2.1,1.8-3.4.9-5.1-.7.5,2.3-1.2,1.3-2.9,1.5,0-.5-.1-2.8,0-2.9s2.3.2,2.6,0,.3-2,.8-2.9c.5-.5.7-.3.4.4Z"/>
  <path class="st4" d="M145,244.3l2.2.4c.3.3.2,1.6.4,2.6s.3,1.9,1.1,2.2c.3.1.3.2,0,.4.5.6.5,1.2-.4,1.1-.7.3-1.2,0-1.4-1.1l-.7-2.3c-1,.2-1.8.1-2.3-.3-.7.3-.8-.3-.4-1.8.1-.3,0-.7.4-.9s.7-.1,1.1-.2Z"/>
  <path class="st182" d="M142.1,248.7h.4c.3.3,0,.6-.4.7.2.4,0,.9-.4,1.1,0,.8-.9,2-1.5,2.6-.2.1-.4.2-.5.2s-.2-3.7.1-3.8c-.3-1.2,1.2-.6,2.2-.7Z"/>
  <path class="st91" d="M146.5,235.2c1.4-.2,1.8,0,2.9.7.3.6.2.8-.4.4-.7.6-2.8.4-3.7,0-.5.5-.7.3-.4-.4.5-.5.7-.6,1.5-.7Z"/>
  <path class="st230" d="M140.6,235.2c.1,0,.3,0,.4,0v.4c-1-.2-4.5.4-4.8-.4,1.3,0,3.2-.2,4.4,0Z"/>
  <path class="st137" d="M147.2,222.3c-.5.6-1.8.4-2.6.4s-.6,0-.7-.4c.4,0,.9.1,1.1-.4.7.2,1.5.2,2.2.4Z"/>
  <path class="st221" d="M143.9,247.3c.8.7.3,1.4-.7,1.1-.5.5-.5.3-.4-.4.3-.9.3-1.6.7-2.6,0,.6-.2,1.5.4,1.8Z"/>
  <path class="st39" d="M145.4,236.3c.7.8.3,1.3-.7,1.1l-.4-.4c.3-.7,0-.5.7-1.1l.4.4Z"/>
  <path class="st213" d="M143.2,248.4c.9.5.3,1.8-.7,1.5-.3.4-.4.3-.4-.4.1-.2.3-.5.4-.7s.3-.5.4-.7l.4.4Z"/>
  <path class="st39" d="M149.8,241c0,.2-.3.9-.4,1.1h-.4l-.4-.4c-.7-.8-.2-1.4.7-1.1.5-.5.7-.3.4.4Z"/>
  <path class="st215" d="M147.2,244.7c-.7,0-1.8.3-2.2-.4.8,0,1.6-.2,2.2.4Z"/>
  <path class="st71" d="M141,237.4v-2.2c.8.4.3,1.6,0,2.2Z"/>
  <path class="st42" d="M131.5,247.3c0,.7,1,2-.4,2.9s-2.4.6-2.6-.7c1.3.1,1.2,0,1.1-1.3-2.4-1.2-1.1,4.6-1.5,5h-1.8c0-.7,0-1.5,0-2.2,0-1.4.2-2.7.4-4,1.6.1,3.3-.3,4.8.4Z"/>
  <path class="st282" d="M137.3,249.5c0-.3,0-1.4,0-1.5-.1-.1-1.4,0-1.8,0v-1.1h5.9v1.1c-.7,0-1.3-.2-1.8.4,0,.9,0,1.5-.4,1.8.2.7.4,2.7,0,3.2s-3.4,0-2.2-1c.1-1,.3-2,.4-2.9Z"/>
  <path class="st286" d="M132.6,246.9h2.2c.2,2.1-.6,4.1-.4,6.2h-1.8v-6.2Z"/>
  <path class="st202" d="M139.9,249.5c.2,1.1-.4,2.9.4,3.7l.6-.4c0,1.1,1.6.9,2.4.3l.3.5c-.6.7-3.3.4-4.4.4l-.4-.4c.7-.8.8-1.9.4-3.2,0-.7-.2-1.2.4-1.8-.2.4.3.9.4,1.1Z"/>
  <path class="st209" d="M137,252.4c-.3-.5-.3-1.4,0-1.8-.3-.3-.3-.8,0-1.1h.4c0,.9.3,2.3-.4,2.9Z"/>
  <path class="st202" d="M137,249.5c0,.3,0,.7,0,1.1-.1.3-.2.3-.4,0v-1.8c.5.2.3.4.4.7Z"/>
  <path class="st282" d="M120.8,247.3c.6-.6,3.4-.8,2.9.4.1,1.1,1.2,2.5,1.5,3.3s.4,2.1.4,2.2h-1.8c0-1.8-.9-2.4-2.7-1.8s-.7,1.1-1,1.4c-.6.6-1.5.3-2.2.4.2-1.1,1-2,1.5-2.9s.5-1.5.7-1.8.7-1.1.7-1.1Z"/>
  <path class="st263" d="M126.7,246.9c.3,1.4-.3,2.9-.4,4,.1-1.4-.1-3,0-4.4h.4v.4Z"/>
  <path class="st282" d="M131.1,235.9c1-.2,2.9,0,3.3,1.1s.3,2.9,0,3.7-1.3,1.4-1.8,1.5c-1.4.3-2.3-.2-3.3-1.1,0-1.2.1-2.5,0-3.7.5-.6,1.1-1.3,1.8-1.5Z"/>
  <path class="st34" d="M137.3,239.2c.2-.4,1-1.6.7-1.8-1.3,0-2.8.3-2.6-1.5h5.1c0,.5,0,1,0,1.5-2,2.2-1.1,5.2-4.8,4.8.3-1.1,1-1.9,1.5-2.9Z"/>
  <path class="st185" d="M117.1,246.5l.7,1.5c-2-.8-5.1,1.5-3.3,3.3s2,.3,2.9.4v1.5c-.4,0-.7,0-1.1,0-1.2,0-2.3.1-3.3-.7s-1.3-2.7-.7-4,1.4-1.4,1.5-1.5c.8-.4,2.4-.3,3.3-.4Z"/>
  <path class="st181" d="M169.6,235.9c.9-.8,2.3,1.4,1.5,2.2,0,.5,0,1,.4,1.5,0,.1,0,.2,0,.4,0,.9-.5,2.3-1.5,2.2-.9.3-3.2.4-4-.4-.7-.2-.1-5.2,0-5.4s.2,0,.3,0c.7-1.1,2.3-.6,3.3-.4Z"/>
  <path class="st6" d="M160.8,236.3c.6.3,1.4,1.1,1.7,1.7-.7,5.6.9,3.8.6-.9l.7-.5c.5-.5.6-.3.4.4.4.8.3,2,0,2.9,0,1,0,2,0,2.9-1.1-.2-3.6.6-3.3-.7,0-.2.5-3.2.4-3.3l-1.1.4c.1-.7-.2-2.5,0-2.9s.6,0,.6,0Z"/>
  <path class="st109" d="M166.7,247.3c1.2-1.8,5.1-1.6,6.5-.3s0,.6.1.6c-.1-.2-2.6-1.1-3.1-1.1-.9,0-2.5.5-3.1,1.1,0-.2-.2-.4-.4-.4Z"/>
  <path class="st302" d="M166.3,236.3c-.9.9.3,2.5.3,2.8s-1.7,1.3-.6,2.7c.3.1.3.2,0,.4-.2-.2-.5-.1-.7-.6s.2-4.7.3-5,.7-.2.7-.2Z"/>
  <path class="st206" d="M164.5,237c-.1.3-.2.3-.4,0,0-.1-.3-.2-.4-.4-1.3.2-2.3.1-2.9-.4.2-.2-.4-.6.7-.7.8-.2,1.7-.3,2.6-.4.1,0,.3,0,.4,0,0,.6,0,1.2,0,1.8Z"/>
  <path class="st26" d="M171.5,238.5c-.6.5-.8.3-.4-.4-.3-1.1,0-2-1.5-2.2-.3-.1-.3-.2,0-.4-.3-.1-.3-.2,0-.4,1.1.2,2.1,1.3,2.2,2.4s-.3.8-.3.9Z"/>
  <path class="st37" d="M170,242.1c.3.1.3.2,0,.4-.2,0-.3.3-.7.4-.6-.3-1.2-.3-1.8,0-.7-.1-.9-.2-1.5-.7v-.4l4,.4Z"/>
  <path class="st299" d="M165.6,246.9c0,.1-.4.3-.4.4-.6.5-1.4.6-2.4.1-1.3.5-2.1.4-2.3-.5-.2-.1-.2-.2,0-.4,1.3-.2,2.7-.3,4-.4.4,0,.8.5,1.1.7Z"/>
  <path class="st271" d="M177.3,246.5c-.2,1-1.9,2.4-2.9,2.2,0-.2-.6-.5-.7-.7,1.2-.1,1.8-1.6,2.9-1.8l.7.4Z"/>
  <path class="st190" d="M170,242.5v-.4c1-.5.8-1.5,1.5-2.2,0,0,.6.3,0,1.4s-.8.9-1.6,1.2Z"/>
  <path class="st31" d="M167.8,235.2c.6,0,1.3.2,1.8.4v.4c-.6,0-3,0-3.3.4.4-.4-.2-.9,1.5-1.1Z"/>
  <path class="st348" d="M164.1,245.8v.4c-1.4.3-2.7.3-4,0-.1,0-.2,0-.4,0,1.1-.8,3-.2,4.4-.4Z"/>
  <path class="st333" d="M164.1,246.2h.4c-.8,0-2.8.8-4,.4-.1.3-.2.3-.4,0v-.4c1.3-.1,2.7,0,4,0Z"/>
  <path class="st278" d="M171.5,238.5c0,.4,0,.7,0,1.1-1.2,0-1.6-1-.4-1.5,0,.2.2.3.4.4Z"/>
  <path class="st233" d="M164.1,239.9c0-.9.1-2.1,0-2.9h.4c0,.9.3,2.3-.4,2.9Z"/>
  <path class="st39" d="M169.3,242.9c-.4,0-1.4,0-1.8,0,.2-.6,1.6-.6,1.8,0Z"/>
  <path class="st39" d="M169.6,235.2v.4c-.6,0-1.5.2-1.8-.4.4,0,1.4,0,1.8,0Z"/>
  <path class="st189" d="M166.7,214.6c1.8-.7,7.8-1,9.2.2s-.1.6-.3.9c-2,1.3-3.3,2-5.5,2.9-11.7-.6-23.9-.5-35.6,0-1.6-.7-3-1.7-4.4-2.6-.7-.5-.5-.9.2-1.3,7.9-.6,16.2-.7,24.2-.5l2.3.7.2-.5c3.1.6,6.1.4,9.1-.6l.7.7Z"/>
  <path class="st52" d="M170,218.6c-1.9.8-3.9,1.6-5.9,2.2s-.5,0-.7,0c-.6-.4-1.3-.4-2-.4-6-.2-12.7-.2-18.8,0s-1.5-.4-1.3.7c-2.2-.7-4.9-1.6-7-2.6.5-.7,1.2-.7,2-.8,9-.6,22.6-.6,31.6,0,.8,0,1.5,0,2,.8Z"/>
  <path class="st155" d="M181.8,204l.9.2c.3,2.2.3,4.1.2,5.7-1.1,1-1.8,1.6-2.9,2.6-.7.8-6.8.3-7.3,0s-.4-.5-.4-.8v-.9c3.1-2,6-4.3,8.6-6.8h.9Z"/>
  <path class="st326" d="M189.8,190.4c.6,2.7.3,5.5.4,8.3s-.4,1.5.7,1.3c-.9,1.5-1.9,2.7-2.9,4-.2,0-.4,0-.6,0-1.5-.3-.7-6.1-.5-7.3l-.4-.8,2.5-5.2.9-.2Z"/>
  <path class="st72" d="M179.9,212.4c-1.5,1.2-2.8,2.3-4.4,3.3-.3-.8-.9-.7-1.6-.8-2-.1-5.3-.4-7.2-.3.8-1.7,3.6-3.1,5.5-2.9l7.7.7Z"/>
  <path class="st64" d="M188,204c-1,1.4-1.8,2.4-2.9,3.7-.3,0-.7,0-.8-.2-.5-1.8-.6-5,0-6.7-.7-1,1.4-4.2,2.6-4,1.2,2.1-.7,5.6,1.1,7.3Z"/>
  <path class="st342" d="M185.1,207.6c-.8.9-1.4,1.4-2.2,2.2-1.1.2-.7-.6-.7-1.3,0-1.5.3-3.2-.4-4.6-.6-.9,1.4-3.5,2.6-3.3l.7,7Z"/>
  <path class="st338" d="M175.5,143c2.7.4,6.3,4.4,7,7,1-.1,1.7.7,2.2,2.6,1.2.3,2,1.7,1.8,2.9,1.6.3,2.1,2.9,2.2,4.4l.8.2.7,3.8c0,2.5,1.6,6.6,1.8,9.7.4,5.2-.5,11.8-2.2,16.7s-2,4.5-2.9,6.2-1.8,3-2.6,4-2,2.6-2.6,3.3c-2.2,2.5-6.7,5.9-9.5,7.7s-3.7,2-5.5,2.9c-1.4,0-3.7,1-5.4,1.1s-3.5-.7-4.5-.7c-2.3-.2-3.4-1-3.3-2.2-1,.3-2.2-.9-1.5-1.8-1,.4-1.3-1-.4-1.5-1.2,0-1.5-1.9-.4-2.2-1.1-.2-1-1,0-1.5-.7-1.4-.5-2.3.7-2.6-.6-.6-.3-.9.7-1.1-.8-.7.1-1.9,1.1-1.5-.7-1,1.6-2.9,2.6-2.2-.1-1.3,1.4-2.4,2.6-1.8-.2-1.2,1.6-2,2.6-1.5-.2-1.2,1.6-2.1,2.6-1.5-.3-1.1.5-1.7,1.5-1.1.2-1.3.7-1.7,1.5-1.1.2-1.3.7-1.7,1.5-1.1-.5-1.1.9-2.2,1.8-1.8-.4-1,.4-2.2,1.5-1.8.3-1.1.7-2.3,1.8-2.6,0-1.1,1.4-3.8,2.6-3.7,0-2.2.5-3.6,1.8-4.4v-1.5c2.1-7.1,2.2-14.4-.1-21.5v-1.6c-1,.1-2.3-2.3-1.4-2.9-1.1-.2-2-1.4-1.1-2.2-1.1,0-1.7-.9-1.1-1.8-1.1.2-1.6-1.3-1.5-2.2-.8-1.9,3-.9,2.6.7Z"/>
  <path class="st145" d="M192,136.4c.2,0,.4,0,.5.2.8.7,0,7.4-.5,8.6.3,0,.7.2.7.4.3,2.2.2,6.5-.7,8.4,0,0-.1.4-.4.4-.2-.4-.2-.9-.4-1.1-1.4.2-1.8-1.4-1.8-2.6-1.3,0-2.2-1.3-1.8-2.6-1.5,0-2.7-2.3-2.6-3.7-1,.5-2-.9-2.2-1.8-.7.7-.8.6-.7-.4l.4-.2c-.4-.6-1-.9-1.5-1.3-.5-1,.4-2,2.7-2.9l7.1-3.6v-7.3c0,0,.8-.5.8-.5.1-.3.2-.3.4,0,.2,0,.7.4.7.5.6,1.2-.3,7.8-.7,9.4Z"/>
  <path class="st285" d="M191.3,153.3c-1.1-.2-.7.6-.7,1.3,0,2.9-.4,6.6-.4,9.4-.5-.9-1.5-3.1-1.5-4-.6-2.8-.6-5.8-.1-8.7l.9-.5c.6.9,1.3,1.7,1.8,2.6Z"/>
  <path class="st302" d="M168.5,248.7c.6-.5.8-.3.4.4l.7.3c-.3,2.1,1.4.6.4-.7-.8.2-1-.2-.4-.7,1.3-.1,2.4,1.2,1.9,2.5-1,2.6-4.7.8-3-1.7Z"/>
  <path class="st76" d="M170,248.7c.3,1-.5,1.2-1.1.4,0-.2-.2-.3-.4-.4.2-.3.8-.7,1.1-.7.1.2.2.6.4.7Z"/>
  <path class="st35" d="M185.4,246.5c.9.2,2.4,1.4,2.9,2.2.1.7-.2,1.2-.4,1.8s-.2,1.3-.4,1.5-1,.7-1.1.7c-.2,0-1,.4-1.1.4-.8.1-2.6,0-3.3-.4s-1.1-1-1.1-1.1c-.5-.9-.4-2.4,0-3.3s1.4-1.4,1.5-1.5c.5-.2,2.4-.5,2.9-.4Z"/>
  <path class="st181" d="M177.3,246.5c1.6-.3,2.9,0,2.6,1.8-1.2-.6-2-.6-2.9.4-.4.8-.4,1.7,0,2.6,1,0,2,0,2.9.4,0,2.1-1,1.1-1.8,1.5.2.7-.1.8-.7.4-.2-.5-.9-.3-1.1-.4s-1.4-1-1.5-1.1c-.6-.9-.2-2.5-.4-3.3.6-.8,2-2,2.9-2.2Z"/>
  <path class="st32" d="M179.5,250.9c-.2.8-1.9.6-2.2,0-.9,0-.9-1.8,0-1.8.5-.4,2-.5,2.6-.2.9.6-.3,1.7-.4,2Z"/>
  <path class="st63" d="M178.8,253.9c-.6,1.1-1.2.9-2.2.4.2-.2.5-.6.7-.7s.5-.3.7-.4c.2.2.5.5.7.7Z"/>
  <path class="st79" d="M179.5,250.9c0,.2.4.5.4.7-1.1,0-2,.3-2.9-.4-.5-.6-.3-.8.4-.4.7,0,1.4.5,2.2,0Z"/>
  <path class="st302" d="M177.3,249.1c-.4.4-.4,1.4,0,1.8-.2,0-.4.1-.4.4-1.1-.8-.9-1.7,0-2.6l.4.4Z"/>
  <path class="st152" d="M165.2,247.3c.2,1.1.9,1.8-.4,2.9-1.1-.1-2.1,1.3-2.6-.7,2.6,0,1-2.2,0-1.5s-.4,4.3-.4,5.1c-.4.1-1.3,0-1.8,0,0-.7,0-1.5,0-2.2,0-1.4.2-2.7.4-4,1.6.1,3.3-.3,4.8.4Z"/>
  <path class="st2" d="M108,92.7c.2,0,.7,0,.7,0,.5.7,0,14.7,0,16.9.9,5,.9,10,0,15,.7,5,.7,10,0,15,.2,0,.3,0,.5,0,.8.3.4,14.4-.5,16.1-.1.2,0,.6-.4.7,0-.7,0-1.5,0-2.2,0-1.9,0-3.9,0-5.9s0-4.9,0-7.3c0-4,0-8.1,0-12.1s0-6.9,0-10.3,0-7.6,0-11.4,0-6.1,0-9.2,0-3.4,0-5.1c-.9,0-1.7,0-2.6,0,.3-.6,1.5-.4,2.2-.4Z"/>
  <path class="st298" d="M157.5,248.7c-.2.6-.3,1.3,0,1.8-.2.7-.2,1.5-1.1,1.8-.3,0-.3-.2,0-.4l-.6-.7c.4-1.5.2-3-.5-4.5-.5-.5-.3-.5.4-.4.7.4,1.7,1.4,1.8,2.2Z"/>
  <path class="st157" d="M156.4,252.4c0,.2-.3.5-.4.7-.4.3-1,.3-1.5.4-.5.2-.9.2-.7-.4-.6-1,2-2,2.6-1.1,0,.1,0,.2,0,.4Z"/>
  <path class="st204" d="M162.7,253.5c-.2.6-1.3.4-1.8.4s-1.2.2-1.5-.4h3.3Z"/>
  <path class="st348" d="M159.4,252.4c0-.9-.2-2.4.4-2.9,0,.9.3,2.3-.4,2.9Z"/>
  <path class="st348" d="M157.5,250.6c-.3-.5-.3-1.3,0-1.8h.4c-.1.4,0,1-.4,1.8Z"/>
  <path class="st46" d="M142.1,250.9c.4.6.4,1.1.2,1.6.8-1.8,3.2-3.2,4.6-1.2s.8,1.1,0,1.8c.3.5.2.6-.4.4-.3-.3-.4-.8-.7-1.1-1.9-1.6-1.8.6-2.2,1.1-1.1-.1-2.5.4-3.3-.4.1-1,1.1-1.8,1.5-2.6.3-.4.5-.3.4.4Z"/>
  <path class="st100" d="M149.4,250.6c1-.4,1.4,1.4,1.5,2.2.9.4.7.6-.4.7-.1,0-.2,0-.4,0-.4,0-1.2-.1-1.1-.3.3-.4.9.3-.4,0-1.1-.1-1.4-1.6-.4-2.2,0-.2.3-.7.4-1.1.3-.4.5-.2.7.7Z"/>
  <path class="st318" d="M150.2,253.5c-.9,0-2.5,1-3.7,0,0-.2.2-.3.4-.4,0-1.1,1.5-1,1.8,0,.4-.1.2-1.7,1.5.4Z"/>
  <path class="st251" d="M153.9,253.1c.1,0,.5.4.7.4-.1,0-.4.3-.7.4-1.2,0-2.2-.4-2.9-.4s-.2,0-.4,0l.4-.7c.6-.8,2.5-.7,2.9.4Z"/>
  <path class="st204" d="M160.5,246.9c.3,1.4-.3,2.9-.4,4v-4.4h.4v.4Z"/>
  <path class="st247" d="M139.2,253.9c-.1,0-.2,0-.4,0-.8-.1-1.5-.3-2.2-.4v-2.9h.4c0,.6,0,1.2,0,1.8s0,.5,0,.7h2.2c0-1,0-2,0-2.9.7.9.5,2.7,0,3.7Z"/>
  <path class="st202" d="M138.8,253.9c-.7,0-1.5,0-2.2,0v-.4c.7,0,1.8-.3,2.2.4Z"/>
  <path class="st123" d="M258.1,56.8h-.4c-1.1-.1-1-1.2,0-1.5,0-1,0-2,0-2.9-1-.4-1.3-1.2-.4-1.8,0-.6,1.2-2.3-.4-2.9-.1-.9.1-1.4.7-1.5,0-.7-.3-1.8.4-2.2,0,4.3,0,8.6,0,12.8Z"/>
  <path class="st338" d="M253.7,51.6h-14.7c-.1,0-.6-1.5-1.3-2.2-3-2.9-12.4-2.8-16.1-1.4-5.6,2.2-5.5,11.6.6,13.6s12.5,1.5,15.5-1.6,1.1-2.2,1.3-2.2h14.7c.3,9.1-7.6,14.3-15.7,15.7-11.7,2.1-31.8,1.3-34.5-13.4-4.3-22.9,15.7-27.1,33.8-24.3,8.5,1.3,16.6,6.2,16.4,15.7Z"/>
  <path class="st260" d="M257.7,55.3v1.5c-3.3-.2-6.8-1.3-10.1-1.5s-1-.2-.9.4l2.6,1.1h-10.8c-.2,0-1.4,2.5-2.4,3.1-2.8,1.9-11.9,1.8-14.8.1s-3.4-8.2-.1-10.3,12.9-2.2,15.7.6,1.1,2.2,1.7,2.3c2.4.8,9.3-.4,12.4,0s4.6,2.3,6.8,2.5Z"/>
  <path class="st329" d="M257.7,46.1c0,.5,0,1,0,1.5-.2,0-.5,0-.7,0-2.6,0-2.8-.8-3.7-2.9l4.4,1.5Z"/>
  <path class="st329" d="M257.4,50.5c0,.4.4,1,.4,1.8-.5-.4-2.5-.3-2.6-.4s0-1.7-.4-2.2l2.6.7Z"/>
  <path class="st235" d="M257.7,61.2c-.2.2-3.5.5-2.9-1.6s.7-.3,1-.3c.6.1,2.8,1.1,2,1.9Z"/>
  <path class="st226" d="M136.2,110.4l-.3.9c-8.8,4.7-17.6,9.3-26.5,13.9l-.7-.4c0-5,0-10,0-15l27.5-14.3c1,4.8,1.1,10.3,0,15Z"/>
  <path class="st331" d="M147.2,92c.1.3.2.6.3.9.3,1.6-4.8,16.2-5.9,19-.3.7-1,1.2-2.1,1.4-.2,1.2-2.4,1.8-3.3,1.1-1.2-.4-1-3.3,0-4,0-5-.1-10,0-15s-.3-3.1.4-3.3c3.5-.6,7.2-.3,10.6,0Z"/>
  <path class="st70" d="M142.5,91.6c2.7,0,5.4,0,8.1,0,.3.1.3.2,0,.4-1.1.7-2.2.7-3.3,0-2,0-9.4-.4-10.6,0,1.6-.7,4-.4,5.9-.4Z"/>
  <path class="st258" d="M164.5,91.6v15s27.2-13.9,27.2-13.9c.3,2.7.3,5.4,0,8.1l-.4,1-8.4,4.2-.8-.4c-1.2.6-2.8-1.1-1.8-2.2-.2-.5-.9-.6-1.8-.4v.5c-4.8,3.1-9.4,6.9-13,11.6l-1.3.4-.7-.6c-.1-2.9.1-5.8.7-8.6-1-2.7-1-5.7,0-8.4l-.7-.5c.3-2.1.1-4-.4-5.7.5,0,1,0,1.5,0Z"/>
  <path class="st300" d="M203.4,93.8c-3.3,8.5-6.7,16.9-10.4,25.2l-.9-.2c-.5-8.7-.5-17.4,0-26.1.1,0,.2,0,.4,0,3.5.1,7.5.9,11,1.1Z"/>
  <path class="st313" d="M192,118.8l.7.4c.2,1.2.3,4.9-.7,5.5h-.9c-3-4.5-8.4-6.2-13.6-6.2l-.9-.7.4-1.1c3.1-2,6.5-3.5,10.1-4.3-.4-.5-.7-.9-.2-1.5-.3-.3-.5-.7,0-.9l4.1-2.2v-6s.8-.7.8-.7c0-2.7,0-5.4,0-8.1.1,0,.2,0,.4,0v26.1Z"/>
  <path class="st338" d="M199,36.2v9.5h-29v4.8h29v8.4h-29v4.8h28.4s.6.5.6.6v9h-43.7v-37.1h43.7Z"/>
  <path class="st338" d="M116,64.5v8.8h-14.7v-37.1h38c1.4,0,5.4,2,6.6,2.9,10.3,8,5.2,24-7.7,25.3-7.1.7-15-.4-22.2,0Z"/>
  <path class="st57" d="M163,91.6c.4.4,1,0,1.1.9.2,1.5,0,3.7,0,5.3l-6.3,19.3c-.4,1.7-1.2,3-2.5,3.8-1,.5-2.3-1.2-1.8-2.2l-.4-1,8.6-24.9c-1.3,0-2.2-.3-2.7-.9-1,.9-1.9.9-2.9,0-.7.7-1.5.7-2.2,0-.3-.1-.3-.2,0-.4,3,0,6.2.2,9.2,0Z"/>
  <path class="st30" d="M153.9,91.6v.4c-.2.7-.5.7-.7,0-.8.7-1.7.7-2.6,0v-.4c1.1,0,2.2,0,3.3,0Z"/>
  <path class="st128" d="M214.8,94.6l1.8.5-23.8,58.7c-.2.4-.6.2-.8.2v-8.8l.8-3.8c6.5-15.6,12.9-31.2,19.3-46.8h.9c.6,0,1.2-.2,1.8-.1Z"/>
  <path class="st195" d="M213,94.6l-20.9,50.7v-8.8l.8-3.7c5.3-12.8,10.7-25.6,16-38.4h.9c1.1,0,2.2.1,3.3.2Z"/>
  <path class="st15" d="M209.6,94.2l-17.6,42.2v-9.9c.1-.3.2-.3.4,0,4.3-10.7,8.5-21.5,12.6-32.3l.9-.4c1.2,0,2.4.3,3.7.4Z"/>
  <path class="st166" d="M203.4,93.8c.8,0,1.7,0,2.6,0l-12.9,33c-.1.1-.5-.3-.7-.4-.9-.3-1.4-1.3-.4-1.8v-5.9c.7-.3.9-1,1.2-1.6,3.3-7.1,5.6-15.2,9-22.2s.3-1.2,1.2-1.2Z"/>
  <path class="st343" d="M178.4,103c1-.3,1.6-.2,1.8.4.6,1.6,1,1.3,1.8,2.2,2.1.7,4.4,3,4.8,5.1.3.3,1.6,2.1,1.5,2.2-4.3.4-8.1,2.6-11.7,4.8l-.2,1c-2.1,1.4-4.2,2.8-6.4,4.1l-.2.9c-1.8,1.6-3.7,3.1-5.6,4.6.3,1.3-.9,2.6-2.2,2.6-1.2-.3-2.7-.4-4-.7-.9-.7-.5-2.8.7-2.9-.1-.5-.3-1.1-.2-1.5.3-1.3,3.9-8.3,4.8-10l.8-.3c1.9-2.2,3.7-4.5,5.9-6.4,1.8-1.6,6.4-5.5,8.4-6.1Z"/>
  <path class="st335" d="M192,124.7c.2.4,0,1.3.4,1.8-.1,0-.3,0-.4,0s-.3,0-.4,0c-.7,0-1.5-.2-2.4-.4-4,1.3-7.8,3.2-11.5,5.8-2.7,1.7-5.4,2.2-8.1,1.5-2.1-.9-5.5-2-7.7-2.6.7-.9,1.5-1.7,2.2-2.6,3.1-2.9,7-4.3,11-5.3-1.4-.2-2.9-.1-4.3.2l-.9-.5c1.6-2.2,4.3-3.7,6.6-5.1,2.9,0,5.9.3,8.7,1.4s5.6,3.2,6.7,5.6Z"/>
  <path class="st312" d="M136.2,125.8c1.5.9.6,4.6,0,6.2-13.6,4.2-20.4,12.2-27.5,23.9v-16.2l.4-1c8.8-4.5,17.6-8.9,26.4-13.4l.7.5Z"/>
  <path class="st335" d="M142.1,112.9l1.3.2c.6-.7,2.5-.6,2.4.6.4-1.1,2.9,0,2.6,1.1.7-.9,2.7.5,2.2,1.5,1.2-.6,3.2,1.3,2.9,2.6.6.6,1.3,1.5,1.8,2.2,1.2-.6,2.1,1.4,1.8,2.6,1.2.5,1.7,1.8,1.5,3.7-.3.9-.4,2-.7,2.9-.5-.1-1.4,0-1.7-.5s-.2-1-.5-1.5c-1.7-2.6-2.9-4-5.5-5.8-.8-.4-1-.4-.7,0,1.6,2.4,3.1,4.8,4.4,7.3-.5.4-1.3.2-1.8,0-2.5,0-4.9,0-7.3.4-2.4-2.2-3.6-6.6-3.7-9.9-.9-.3-1.5-1.2-2-2.8-1.3-.7-2.2-1.5-2.8-2.3-1.3,2-2.1-2,0-.7.8-.4,2.4-.9,3.3-1.1,1.4-1,2.2-1.2,2.6-.4Z"/>
  <path class="st200" d="M191.7,126.5v8.4c-3,1.6-6.6,3-9.4,4.8s-1,.6-1.2,1.2c-3-2.5-7.8-5.8-11.4-7.3,2.4,0,4.7-.9,6.9-1.8,3.8-1.6,10-7.1,13.8-6.2.9.2,1.1.9,1.4,1Z"/>
  <path class="st169" d="M121.6,160.3l.7.2.5,47.8,28.4.4.4.7c0,.3.3,1.4.4,1.5.3,1-.5,1.1-1.4,1.1-9.1,0-17.9,0-26.1,0-1.7-1.5-3.2-3.1-4.8-4.8l-.7-1.7v-43.7l.7-.5c-.9-1,1.1-2,1.8-1.1Z"/>
  <path class="st308" d="M133.3,137.5l3.4-.7c11.4,0,22.8,0,34.3,0l3.1.7c1.3.7,2.4,1.4,3.7,2.2.9.8.6,1.5-.6,1.5-12.7,0-25.3,0-38,0l-1.4-.4c0,1.2-2.3.7-2.9,0-1.9.5-3.8.5-5.7.1v-.8c1.6-1.2,2.3-1.6,4.3-2.6Z"/>
  <path class="st89" d="M119.7,161.4v45.9c-.9-1-1.7-1.8-2.6-2.9-.5-10.3-1-21.3-.7-31.9,0-3.3.3-6.7.5-10s.2-.6.3-.9.4-.6.6-.9c.4-1,2-.3,1.8.7Z"/>
  <path class="st201" d="M181.4,142.3c.4,1.9-4.5,1-5.9.7-.3-.2-1.5-1-1.8-1.1-.6-.2-.7.3-.8.3l-.4.8c-11.7,1-23.3,1-35,0v-.9c-.9-.1-.9-1.1,0-1.5,12.8-.9,25.9,0,38.7-.4s1.5.4,1.3-.7c1.2.8,2.5,1.6,3.7,2.6Z"/>
  <path class="st138" d="M118.6,156.6c.7.8.4,3.8-.7,4-1.5,12.8-.2,28.5-.4,41.7,0,.6.2,1.6-.4,2-.5-.7-1-1.4-1.5-2.2l-.7-2.4c.6-14.5.5-29.3,0-43.8l.7-2.6c.8-1.3,1.4-1.9,2.2-2.9.3,0,.7,0,.8.2.5,1.6.5,4.4,0,6Z"/>
  <path class="st188" d="M138.4,135.3c9.8-1.2,20.6-1.2,30.5,0,2,.7,3.3,1.2,5.1,2.2h-40.7c2-1,3-1.4,5.1-2.2Z"/>
  <path class="st14" d="M110.9,162.5c.4-.9.8-1,1.3-.1.1,10,.1,20.2,0,30.2-.3,1-.8.9-1.3,0-3.2-9.6-3.4-20.5,0-30.1Z"/>
  <path class="st189" d="M115.7,202.1c-.6-1-1.3-1.9-1.8-2.9.5-14.1.4-28.9,0-42.9.6-1.1,1.2-1.9,1.8-2.9v48.8Z"/>
  <path class="st51" d="M168.9,135.3h-30.5c10.7-3.8,19.8-3.8,30.5,0Z"/>
  <path class="st236" d="M156.8,215c-8.1,0-17-.1-25.2.3-.7,0-1.4,0-1.6.8-1.2-.7-2.2-1.3-3.3-2.2-.7-.8-.7-1.2.3-1.5,8.6,0,17.2,0,25.8,0l.7.5c1,1,2.2,1.3,3.3,2.2Z"/>
  <path class="st188" d="M113.8,156.2c1.1-.2.7.6.7,1.3.4,12.9.5,27.6,0,40.4s.4,1.5-.7,1.3c-.5-.9-.7-1.7-1.1-2.6l-.7-2.9c.4-10.6.4-21.6,0-32.2l.7-3.1c.3-.7.7-1.5,1.1-2.2Z"/>
  <path class="st228" d="M112.7,196.6c-.6-1.4-1.4-2.6-1.8-4,1.1.2.7-.6.7-1.3.3-8.8.3-18.8,0-27.6,0-.7.4-1.5-.7-1.3.5-1.4,1.2-2.7,1.8-4v38.2Z"/>
  <path class="st55" d="M153.5,212.8c-.6.4-1.3.4-2,.4-7.8.3-15.7-.3-23.5,0-.7,0-1.5-.4-1.3.7-.8-.6-1.5-1.2-2.2-1.8-.2-1.1.6-.7,1.3-.7,8.1-.3,16.2.3,24.3,0,.7,0,1.4,0,2-.4,0,.1,1.3,1.7,1.5,1.8Z"/>
  <path class="st19" d="M141,120.3c0,2.8-1.6,7.5-3,10-.2.9-.7,1.3-1.4,1.8-.1,0-.3,0-.4,0v-6.2c-.3,0-.7-.1-.7-.3,0-1.1-.3-9.4,0-9.8s.4-.5.7-.5c3.8,1.4,3.4,1.7,4.8,5.1Z"/>
  <path class="st269" d="M144.7,130.2c-2.7.3-5.5,1.1-8.1,1.8l4.4-11.7c1.3,3.3,2.2,6.7,3.7,9.9Z"/>
  <path class="st93" d="M182.1,142.3s.5.3.7.4c1.1,1.6,1.4,6.3-.4,7.3-1.6-2-4.9-5.6-7-7,1.5-.7,3.3-.3,5-.4s.8-.4.9-.4c.2,0,.5,0,.7,0Z"/>
  <path class="st47" d="M121.6,152.6c.3,1.2-1.7,3.9-2.9,4l-.7-6.2c1.1-1.4,1.6-2.2,2.9-3.7,2.1,0,1.8,4.5.7,5.9Z"/>
  <path class="st22" d="M129.6,145.2c.9.5.7,1.2-.4,1.5.3.6.1.9-.5,1.1-4.2-.6-5.8.3-4.8,2.7l-.6.7c.5.9-1,2-1.8,1.5-.2-1.9.7-4.4-.7-5.9.7-.7,1.1-1.2,1.8-1.8,2-.4,4.1-.5,6.4-.4l.6.7Z"/>
  <path class="st93" d="M126,141.9c2-.2,3.7,0,5.2.6v.5c.5.9-.4,2.3-1.5,2.2-2.2,0-4.9.3-7-.4,1.1-1.1,2-2,3.3-2.9Z"/>
  <path class="st72" d="M128.9,140.1c1.7.8,4,0,5.9.7.2,1-2.8,2.7-3.7,2.2-.9-.7-4.8-.1-5.1-.4s0-.5,0-.7c1-.8,2-1.2,2.9-1.8Z"/>
  <path class="st205" d="M153.9,129.8c.4,0,.7,0,1.1,0v.4c-.9-.1-2.3.4-2.9-.4.6,0,1.2,0,1.8,0Z"/>
  <path class="st205" d="M150.2,122.5h-.7c-.1-.2-.6-.3-.7-.6l.2-.2c.6,0,.9.5,1.3.7Z"/>
  <path class="st80" d="M161.2,221.6c-1.1,4.3-2.5,9.2-4.1,13.3s0,1.2-1,1c-.3.3-1.3-.2-1.5-.7-.6.3-1.5.2-2.2,0,0,.6-.7.7-1.1.4.5-4.3,2.6-8.3,3.7-12.5,2.1-.3,4.2-.9,6.2-1.5Z"/>
  <path class="st126" d="M149.4,235.9c.2.2.3.7.4.7.3.2.6-.3.7-.4.7-.5.9-.3.4.4l.5.7c-.3,1.6.3,2.2,1.7,1.9.1-.3.2-.3.4,0,.9.8-.3,2.5-1.5,2.2-.6.1-.5-.2-.4-.7-.9-.6-1.4-.5-1.8.4l-.4-.4c-.5-.4-.6-1-.3-1.9-.6-1.1-.6-1.9,0-2.5,0,0,.3-.2.4-.4Z"/>
  <path class="st262" d="M156.4,239.9h2.9s0,2.7,0,2.7l-2.9.2c-.4-1.1-.4-2.1,0-2.9Z"/>
  <path class="st344" d="M151.7,246.2c.4,0,.7.1.7.4,0,.3,0,.6-.2.8-1.5,1.2-1.8,1.5-2.7,3.2-.1-.2-.5-.5-.7-.7,0-.1,0-.3,0-.4.5-1.8.8-2.9,2.9-3.3Z"/>
  <path class="st122" d="M155.3,240.7c-.1,2.9-3.1,2.1-5.1,2.2-.2-.8.5-.8.7-1.1l.7.4c.5-.7,1.1-.8,1.9-.7.4-.6.8-.8,1.4-.8.1-.2.2-.2.4,0Z"/>
  <path class="st339" d="M156.1,235.9c.2.3.3.8.4,1.1.3.7.3,1.3,0,1.8v.4c0,.8-.3,1.3-.7,1.5h-.7l-.4-.8c.9-1.5,1-2.6,0-4-.3-.1-.3-.2,0-.4-.3-.1-.3-.2,0-.4.2,0,1.4.6,1.5.7Z"/>
  <path class="st267" d="M154.6,246.2c.4,0,.7.2,1.1.4l-.4.4c-.4,1-2.7.6-2.9-.4l-.7-.4c.1,0,.2,0,.4,0,.8-.4,1.8-.4,2.6,0Z"/>
  <path class="st94" d="M156.4,239.9c0,1,0,2,0,2.9-.2-.3-.7-2.1-.7-2.2,0-.3.5-1.2.7-1.5,0,.2,0,.5,0,.7Z"/>
  <path class="st29" d="M152,241.4c.7.4.3.6-.4.7-.2,0-.9,1.1-.7-.4.3-.4.5-.7.7-1.1.3.2.4.4.4.7Z"/>
  <path class="st5" d="M164.1,235.2c-1.2.3-1.4.3-2.6.4.3-.8,2.4-.2,2.6-.4Z"/>
  <path class="st144" d="M154.6,246.2c-.6,0-1.9,0-2.6,0,.5-.6,2.1-.6,2.6,0Z"/>
  <path class="st94" d="M156.4,238.8v-1.8c.2.5.9,1.3,0,1.8Z"/>
  <path class="st311" d="M152.4,235.2c.8,0,1.5.2,2.2.4v.4c-.4.7-2.8,1.2-3.7.7,0-.3-.1-.4-.4-.4.2-.2.5-.6.7-.7s.7-.3,1.1-.4Z"/>
  <path class="st316" d="M149.1,236.3c.4,1.7,1.3,2,.4,4.4s-.6,1-.7,1.1c-.6.4-1.7.5-2.4.4-2.3-.2-2.3-3.1-1.6-4.8s.7-1,.7-1.1c.9-.6,2.7-.5,3.7,0Z"/>
  <path class="st338" d="M143.6,240.7c-.2,2.1-2.3,2.3-1.8,0h1.8Z"/>
  <path class="st222" d="M143.9,247.3c.5-.5,2.6-.6,2.9-.3s.7,3.5,1.5,4c0,.7.4,1.5.4,2.2-.4.1-1.3,0-1.8,0-.2-1.5-1.5-2.5-2.9-1.7s-.1,2.4-2.9,1.7c-.2-.2.9-1.8,1.1-2.2-.2-.4,0-.9.4-1.1.2-.4.6-1.2.7-1.5s.7-1.1.7-1.1Z"/>
  <path class="st186" d="M146.9,245.1c0,1.8-1.9.5-2.9,1.1,0-1.7,1.9-.7,2.9-1.1Z"/>
  <path class="st39" d="M142.5,249.8c-.1.3-.2.7-.4,1.1l-.4-.4c.1-.2.2-.7.4-1.1l.4.4Z"/>
  <path class="st84" d="M122.7,249.8h-1.1c.2-1.9.8-1.9,1.1,0Z"/>
  <path class="st175" d="M132.6,237.4c.1.1.3,3.9-.9,3.7s-.5-5,.9-3.7Z"/>
  <path class="st309" d="M169.3,239.6c.6.6-.9,2.1-1.5,1.5s.7-2.2,1.5-1.5Z"/>
  <path class="st332" d="M169.3,237c.7.7-1.2,2.3-1.5.9s1.2-1.2,1.5-.9Z"/>
  <path class="st24" d="M160.8,236.3c.1-.2,2.3-.5,2.7-.4s.2.6.2.8c0,.8,0,5.2-.4,5.5s-1.4,0-1.8,0c0-1.5-.3-3,.4-4.4l-1.1.4c0-.4-.1-1.6,0-1.8Z"/>
  <path class="st74" d="M133.7,157c11.4,0,22.9,0,34.4,0,1.9-.2,2.4.8,2.4,2.5.2,10.1.2,19.8,0,29-.6.7-1.1,1.2-1.8,1.8-.5.3-.9.5-1,0-.4-9.9-.4-19.8-.2-29.7l.4-1c0,.3,0,.7-.3.7-10.7.2-22,.2-32.7,0l-.4-.7.7.3c-.3,11.6-.3,23.9,0,35.6l-.7.4,1.6-.7c6.9,0,13.7,0,20.6-.1,2-.1,2.8.4,2.4,1.5-.8.5-1.7,1.1-2.6,1.8-6.3,0-12.6,0-19,.3-2.8.4-4.6-.2-5.4-1.6l-.5-38.6.7-.5c-.6-.9.7-1.8,1.5-1.1Z"/>
  <path class="st261" d="M176.2,180.5c-.7,1.2-1.4,2.9-2.6,3.7-.9.4-1,0-1.1-.9.5-9.7.5-19.4,0-29.1-11.9-.2-23.7-.2-35.6-.1-.7,0-.8-.5-.4-1.5-1-.2-1-1.9,0-2.2,1.9-.5,4-.5,6.2-.1,10.6-.3,21.2-.4,31.8-.2,1.5.4,2.1,1.6,2,3.7-.2,8.1-.1,16.2,0,24.3l-.4,2.4Z"/>
  <path class="st223" d="M161.6,195.2c-7.8,0-15.7,0-23.6.1-2,0-2.8-.4-2.4-1.4-.3,0-.5,0-.6-.3,0-10.6,0-21.5,0-32.2s.2-.4.6-.4l.3-.7h30.5l.4.7h.5c0,9.9,0,19.7.5,29.5l-.7,1c-.5.4-.9.7-1.5,1.1l-.7-.2c-.1-9.8-.2-19.6-.4-29.4l.7-.5-.3.7h-27.5l-.4-.7.7.3v29.2l-.7.4.7-.3c8.4.3,16.9.4,25.4.1,1.1,0,1.9.5,1.1,1.5-.7.5-1.8,1-2.6,1.5Z"/>
  <path class="st146" d="M123.4,158.4c.9-.9,1.4-.6,1.5.6,0,15.7,0,31.4,0,47.1l26,.3.4.7c0,.8.2,1.4.4,2.2l-29.7-.4-.4-48.8c-.6-.9.9-2.3,1.8-1.8Z"/>
  <path class="st259" d="M125.6,154.8c.5-1.1,1.1-.8,1.5.3,0,16.4,0,32.8.1,49.2,8,.2,16.1.3,24.1,0v1.4c0,.4,0,1,0,1.5l-27-.3c-.8-15.6.5-31.6-.2-47.2,0-.7.4-1.5-.7-1.3-.6-.9,1-3.6,2.2-3.7Z"/>
  <path class="st9" d="M159,196.6c-.4-.6-1-.7-1.6-.7-7.4-.6-15.5.5-22.9,0v-36.3h33.4c.5,9.4-.7,19.5,0,28.8,0,.8,0,1.5.8,2-.5.4-1,.7-1.5,1.1l-.4-30.5h-31.2v32.9c0,.4.9.5,1.3.6,7,.8,16.2-.3,23.5,0,.7,0,1.5-.4,1.3.7-.9.6-1.8,1-2.6,1.5Z"/>
  <path class="st331" d="M176.6,148.5c.5,1,1,1.7,1.5,2.9-.4,8.1-.3,16.5,0,24.6-.6,1.6-1,2.9-1.8,4.4-1.2-3.6.6-28.3-.9-29.4s-.9-.3-1.5-.4c-11.7-1.1-25.8,1.5-37.3-.3-.7.7-2.8,1.5-3.3.4-1.9,1-5,1.3-6.6,0-.5.9-1.5.5-1.8-.4-1-.6-.2-2,.8-2.2l50.3-.4.7.7Z"/>
  <path class="st277" d="M136.6,152.6c-.2,1.1.6.7,1.3.7,11.7.5,23.4-.5,35.1.2.4.3.3.7.4,1.1,1,7.9,0,20.3,0,28.7,0,.8.4.8.4.9,0,1.1-1.4,2-1.8,2.6l-.7-.2c0-10.1-.4-20.2-1-30.1h-32.8c-.9-.3-2.1-.6-1.9-1.6-.9-.6,0-2.4,1.1-2.2Z"/>
  <path class="st350" d="M171.8,186.7c-.6.7-.7,1-1.5,1.8-1.1.2-.7-.6-.7-1.3-.3-8.8,1-20,0-28.3s0-.8-.4-1.1c-11.4-.6-22.9.3-34.4-.2-.7,0-1.5.4-1.3-.7-.7-.8.9-2.6,1.8-2.2l1.6.8h34c0,.1.7,31.2.7,31.2Z"/>
  <path class="st194" d="M133.3,150.7c.9,1-1.1,2.3-2.2,1.8-.7.7-2.4.4-3.3.2l.7.3c0,16.3,0,32.9,0,49.2l-.7.5c7.7-.2,15.9-.2,23.8,0s.4.3.4.6c0,.2-.7,2.4-.7,2.6.2-1.1-.6-.7-1.3-.7-7-.2-15.8.8-22.4,0s-.8,0-1.1-.4c-.8-16.1.5-32.6-.2-48.7,0-.7.4-1.5-.7-1.3-.6-1.2,0-3.3,1.1-4,2.1,0,4.5.1,6.6,0Z"/>
  <path class="st350" d="M132.2,158.1l.5,39.3c.3.4.7.3,1.1.4,6.3.8,14.4-.4,21,0,.7,0,1.4,0,1.6.8-.7.6-1.9,1.4-2.6,2.2-6.9-.2-13.8-.1-20.8,0-1.6.2-2.7-.1-3.1-1.1v-40.8s.7-.4.7-.4c-.1-1.1,1-1.3,1.5-.4Z"/>
  <path class="st105" d="M133.3,146c13.9.3,27.7.3,41.6,0l.6.4c.5.8.7,1.4,1.1,2.2l-51.2.4-.5,1.5c0,1-.6,1.4-1.5.7-1.6-5.4,1.6-3.7,5-4s.8-.4.9-.4c.5-1,3.3-1.4,4-.7Z"/>
  <path class="st59" d="M131.1,152.6c.3.7,0,1.6-.7,2.7-.1,1.2-.5,2-1.1,2.5l.7,1v42.3c0,0,22.3.3,22.3.3l.4.7c-.2.4-.6.8-.7,1.1h-23c-.4,0-1.3-.2-1.3-.6v-49.9c0-.8,2.8-.7,3.3-.2Z"/>
  <path class="st277" d="M130.7,158.4v41.5c7,.4,14.6-.6,21.5,0,.6,0,1.3.1,1.6.7-.2.2-1,1.3-1.1,1.5l-23.5-.4v-44c.8-.6,1.4-.2,1.5.7Z"/>
  <path class="st334" d="M164.1,193.7c-.3-.8-.9-.7-1.6-.8-7.7-.4-16.9.9-24.3,0s-1.3-.2-1.3-.6v-29.9h28.3l.4,30.1c-.5.4-.9.8-1.5,1.1Z"/>
  <path class="st154" d="M172.9,142.3c1,.4,1.1,1.5,1.5,2.2l.2.8c-12.2.9-25.2.8-37.6.3-1-.2-1.5-.6-.7-1.4-.8-.8.5-2.3,1.5-1.8.4.6,1.4.4,2,.4,7.6,0,27,1.2,33.2-.4Z"/>
  <path class="st264" d="M174.4,144.5c.4.7.7,1.1,1.1,1.8-.4.6-1.4.4-2,.4-12.8.2-26.2.4-38.9,0s-1.5.4-1.3-.7c0-1.1,2-2.3,2.9-1.8.3.8.9.7,1.6.8,10.9.6,23.5.1,34.5,0s1.6.2,2-.4Z"/>
  <path class="st105" d="M178.1,176.1c-.8-.7-.7-1.8-.7-2.7-.3-5.8-.4-13.8,0-19.5s0-1.8.7-2.4c3.2,8.4,3,16.2,0,24.6Z"/>
  <path class="st41" d="M187.6,148.2c.6.8,1.3,1.7,1.8,2.6-.7,2.4-.4,5.4-.4,7.9s-.4,1.1-.4,1.3c-.9-1.4-1.5-3-2.2-4.4-.3-1.2-1-7.1.5-7.4s.4,0,.6,0Z"/>
  <path class="st317" d="M187.6,148.2c-1.8,1.7.1,5.3-1.1,7.3-.5-.9-1.6-1.7-1.8-2.9-1.2-.6-.9-7.9-.5-8.2s.6,0,.9,0c1,1.1,1.7,2.5,2.6,3.7Z"/>
  <path class="st257" d="M185.1,144.5c-.6.4-.4,1.4-.4,2,0,1.7-.2,4.5,0,6.1-1-.6-1.5-1.7-2.2-2.6.7-2.4.2-4.9.4-7.3,1.2.6,1.4.9,2.2,1.8Z"/>
  <path class="st124" d="M170,248.7c.3.2,1,0,1.1.9.1,1.5-1.9,1.8-2.2,1.2s0-1.3,0-1.8l1.1-.4Z"/>
  <path class="st143" d="M183.2,248.7c.5-.5.7-.3.4.4.6,1.8,1.9,1.8,1.1-.4-.8.2-1-.2-.4-.7,2.2-.2,2.4,2.8,1.1,3.5-1.9.9-3.4-1-2.2-2.8Z"/>
  <path class="st192" d="M184.7,248.7c0,1-.4,1.1-1.1.4l-.4-.4c.2-.3.8-.7,1.1-.7.1.2.2.6.4.7Z"/>
  <path class="st295" d="M136.2,114.4c-.2,0-.8.4-.7.6,0,.4.5.1.7.2v10.6l-27.5,13.9c0-5,0-10,0-15l27.5-14.3v4Z"/>
  <path class="st222" d="M155.3,246.9c2.2.9,1.3,3.5,1.1,5.1l-2.6,1.1c-.9-.1-1.9,0-2.9-.4s-1-1.3-1.5-2.2c-.4-1.9,1.2-3.8,2.9-4s2.5.2,2.9.4Z"/>
  <path class="st253" d="M157.5,250.6c-.3.4-.8-1.6,0-1.8.1.5,0,1.3,0,1.8Z"/>
  <path class="st170" d="M150.6,92l.6.6-6.8,20.2c-.5.5-1.3.5-2.3.2-.8.2-1.8.2-2.6.4l1.2-.9c1.8-6.9,5-13.4,6.5-20.4,1.1,0,2.2,0,3.3,0Z"/>
  <path class="st99" d="M164.1,106.3l-.6,3.4c-1.8,4.6-3.7,9.1-5.5,13.7h-.8c-.3-.5-1.4-1.8-1.8-2.4,3.3-6.6,4.7-14.2,7.4-21s.6-1.7,1.4-2.1c0,2.8,0,5.6,0,8.4Z"/>
  <path class="st312" d="M186.9,110.7c-1.5-1.7-3.2-3.3-4.8-5.1l9.5-4.8c0,1.3.2,6.8-.2,7.4s-4,1.8-4.6,2.6Z"/>
  <path class="st227" d="M164.1,115.5c-.2,1.4-4.6,9-5.5,11.7-.9-.9-1-2.7-1.5-3.7l7-17.3c0,2.6.4,6.8,0,9.2Z"/>
  <path class="st312" d="M178.4,103c.4-.1,1.3-.7,1.8-.4s0,.6,0,.7l-1.8-.4Z"/>
  <path class="st322" d="M116,53.5v-6.2h18.9c.5,0,2,2.3,2,3.1s-1.5,3.1-2.4,3.1h-18.5Z"/>
  <path class="st30" d="M159,92c1,0,2.2-.1,3.1,0s.7-.2.5.5l-9.1,26.3c-.7-.7-2.1-2-2.9-2.6,2.7-7.7,5.2-15.6,7.7-23.7l.7-.6Z"/>
  <path class="st70" d="M159,92c0,.7-.2,1.4-.4,2-1.9,6.5-4.3,13.5-6.6,19.8s-.6,2.5-1.5,2.4c-.5-.3-1.8-1.2-2.2-1.5l-.6-.6c2.4-7.4,5-14.7,7.5-22l.8-.2c1,0,2,0,2.9,0Z"/>
  <path class="st250" d="M153.9,92c.7,0,1.5,0,2.2,0l-7.7,22.8c-.4-.2-2.2-1-2.6-1.1l-.6-.6c2.3-7,4.7-14,7.2-20.9l.8-.2c.2,0,.5,0,.7,0Z"/>
  <path class="st50" d="M153.1,92l-7.3,21.7c-1.2-.3-2.6-.1-3.7-.7.4,0,1.2.3,1.5-.2l6.9-20.7c.9,0,1.7,0,2.6,0Z"/>
  <path class="st168" d="M170,122.8c2.5-.9,5.1-.7,7.7,0l-.4.6c-4.7.7-9,2.7-13.2,5,1.3-1.5,4.2-4.9,5.9-5.5Z"/>
  <path class="st315" d="M124.9,150.4c1-.1,1.6.4,1.8.4-.2,1.4-.5,2.8-1.1,4s-1.5,2.9-2.2,3.7-1.6,1.7-1.8,1.8c-.5.4-1.4.5-1.8,1.1l-1.8-.7c.2-1.5,0-2.5.7-4s2.1-3.2,2.9-4,1.3-1.2,1.8-1.5.8-.6,1.5-.7Z"/>
  <path class="st147" d="M137.7,140.8c0,.4.1,1.2,0,1.5s-1.3,1.7-1.5,1.8c-.6.6-2.1,1.5-2.9,1.8-1.9.9-2.2.5-4,.7.2-.5.2-1,.4-1.5.3-.7,1-1.7,1.5-2.2s2.9-2,3.7-2.2c1.2-.4,2.4,0,2.9,0Z"/>
  <path class="st288" d="M154.6,235.2v.4c-.7,0-1.8.3-2.2-.4.5,0,1.7,0,2.2,0Z"/>
  <path class="st185" d="M154.6,235.9c2.5.4,1.2,3.4.4,4.8-1.2,2.1-1,1.3-3.3,1.5.1-.2.2-.5.4-.7.6-.9.9-1.1,1.5-2.2,0-1.4-.2-1.4-.4,0-1.6,2.3-3.4-1-2.2-2.6s2.8-.9,3.7-.7Z"/>
  <path class="st231" d="M153.5,239.2h-.4c-.2-1-1.7-1.6.2-2.2,1.8.5.6,1.4.2,2.2Z"/>
  <path class="st306" d="M158.6,240.3v1.8s-1.8,0-1.8,0c-.2-2,.4-1.5,1.8-1.8Z"/>
  <path class="st244" d="M146.5,241c-.6-.8-.5-4.3.9-4s1,4.3-.9,4Z"/>
  <path class="st83" d="M145.8,249.8c-.7.7-1.5-.4-.7-1.5.6,0,1,1.2.7,1.5Z"/>
  <path class="st187" d="M131.5,239.9c-.2-.5.5-2.7.7-2.2,0,.8.2,1.9-.7,2.2Z"/>
  <path class="st315" d="M136.6,150.4c0,.7.1,1.6,0,2.2s-.9,1.9-1.1,2.2-1.5,1.9-1.8,2.2-1.4,1.1-1.5,1.1-1.4.4-1.5.4c-.6,0-1-.4-1.5-.7-.2-1.7.7-3.9,1.8-5.1s1.7-1,2.2-1.8c1.4,0,1.6-.6,3.3-.4Z"/>
  <path class="st280" d="M138.1,163.2h25.5c.5,0,.9,1.1.9,1.6,1,7.7-.8,17.8,0,25.7,0,1.5-.8,1.5-2,1.7-7.3.7-15.7-.6-23.2,0l-1.3-.5v-28.5Z"/>
  <path class="st3" d="M184.7,248.7c.2.2.9-.2,1,1,.2,2.7-3.6,1-2.1-.6s.8-.3,1.1-.4Z"/>
  <path class="st33" d="M153.9,248.4v.4c-.8.5-1.3,1.2-1.5,2.2.5.6.3.7-.4.4-1.7-1.3,0-4.1,1.8-2.9Z"/>
  <path class="st28" d="M154.2,251.3c-.5.1-.6,0-.4-.4-.7-.5-.5-1.6,0-2.2v-.4c1,.6,1.6,2.2.4,2.9Z"/>
  <path class="st336" d="M153.9,250.9c.2,0,.4.2.4.4-.9.5-1.3.7-2.2,0,.3,0,.3-.4.4-.4,0-1.1,1.3-1,1.5,0Z"/>
  <path class="st216" d="M134.2,48.3c2.1.4,1.4,4,0,4h-17.1v-4h17.1Z"/>
  <rect class="st279" x="146.9" y="237.7" width=".4" height="2.6"/>
  <rect class="st118" x="139.5" y="165.1" width="23.1" height="25.3"/>
  <path class="st1" d="M153.9,248.7c.5.7.5,1.5,0,2.2-.3,0-1.2,0-1.5,0-.8-1.5-.3-2.4,1.5-2.2Z"/>
  <path class="st92" d="M161.1,188.5h-20c-.4-.6-.4-1.2-.5-1.9-.4-4.6-.4-13.1,0-17.7s0-1.4.6-2,19.2-.8,19.8,0,.5,1.3.6,2c.4,4.6.4,13.1,0,17.7s0,1.3-.5,1.9Z"/>
  <path class="st274" d="M143.5,168.4c4.5.3,10.2-.7,14.6,0s1.5.5,1.7,1.7c.4,3.1.3,11.8,0,15.1s-.2,1.8-1.7,2c-2.9.4-10.7.3-13.6,0s-1.8-.2-2-1.7c-.4-2.8-.4-12.6,0-15.5s.2-1.3,1-1.6Z"/>
  <path class="st0" d="M157.9,170.2v14.7c-4.3.6-9.2.6-13.6,0v-14.7h13.6Z"/>
  <path class="st114" d="M156.3,172.1c.7.7.7,10.5,0,11.2s-9.8.7-10.5,0-.7-10.4-.1-11.1,1-.5,1.7-.5c1.3-.1,8.3-.2,8.9.5Z"/>
  <path class="st252" d="M147.8,173.5h6.6s.6.5.6.6v7.3s-.5.6-.6.6h-6.6s-.6-.5-.6-.6v-7.3c0-.1.4-.4.6-.6Z"/>
  <path class="st66" d="M149.3,175.4c.6-.2,3.7-.2,4,.3s.3,3.9-.2,4.3-3.9.3-4.3-.2-.4-4.1.4-4.4Z"/>
</svg>