<?xml version="1.0" encoding="UTF-8"?>
<svg id="Layer_1" data-name="Layer 1" xmlns="http://www.w3.org/2000/svg" version="1.1" viewBox="0 0 2502 2502">
  <defs>
    <style>
      .cls-1 {
        fill: #ff0020;
        stroke-width: 0px;
      }
    </style>
  </defs>
  <path class="cls-1" d="M1244.9,25.4c-.3.3-3.9,1.2-8,2-4.5.9-9.6,2.7-12.8,4.5-6.9,4.1-56.5,28.9-66.1,33.1-8.3,3.6-13.9,6.1-27.8,12.6-5.1,2.4-9.5,4.4-9.8,4.4s-2,.6-3.7,1.4c-2.6,1.2-17.8,7.7-27.2,11.7-9.7,4.1-25.9,10.5-39,15.5-4.9,1.9-9.9,3.9-11,4.4s-3.8,1.6-6,2.3c-6.1,2.2-29.2,10.6-36,13.2-8.2,3.1-44.9,15.4-61.5,20.4-7.4,2.3-15.3,4.8-17.5,5.6-2.2.7-7.6,2.3-12,3.5s-11.6,3.2-16,4.5c-9.2,2.7-15.7,4.4-27.3,7.3-18.9,4.9-24.2,6.1-34.2,8.2-5.8,1.2-13.2,2.8-16.6,3.6-3.3.9-8.5,1.9-11.5,2.3-3,.5-9,1.5-13.4,2.4-41.5,7.9-121.3,18.4-158.8,20.8-8.1.5-17.9,1.4-21.6,1.9-3.8.5-16.7,1.4-28.7,2-12.1.5-26.6,1.4-32.4,2-43.1,4-216,3.9-267.2-.2-13-1-15.6-.9-22.5.6-11.1,2.4-18.1,4.5-18.8,5.7-.4.5-2.4,2.1-4.5,3.4-5.3,3.4-12.7,14.7-14,21.5-.6,3-1.7,7.7-2.4,10.5-2.1,7.3-3.4,13.1-5.1,21.3-.8,4.1-1.7,7.8-2,8.3s-1.2,3.9-2,7.6c-1.6,7.9-3.8,18.8-5.9,28.8-2.3,10.6-4.8,24.3-5.7,31-.4,3.3-1.5,8.9-2.3,12.5-.9,3.6-1.6,8.3-1.6,10.5s-.7,7.1-1.5,11c-.9,3.8-2,10.8-2.5,15.5-.4,4.7-1.5,13.4-2.4,19.5-2.7,20.4-4.7,36.9-5.7,49-.5,6.6-1.1,12.7-1.4,13.5-.2.8-.9,8.2-1.5,16.5-.5,8.2-1.6,23.1-2.5,33-2.9,35.3-3.9,67-4.3,138.5-.4,74.9.8,122.2,4.3,164,.8,9.6,2,24.2,2.5,32.3.6,8.2,1.2,15.9,1.5,17,.3,1.2,1.2,9.6,2,18.7s1.9,19.9,2.5,24c3.6,27.4,4.3,33.4,5.1,41,.4,4.7,1.5,11.8,2.4,15.8.8,4,1.5,8.5,1.5,10s.9,8.3,2,15.2c1.2,6.9,3,17.9,4.1,24.5s2.4,14.5,3,17.5c2.1,11.4,5.1,27.8,6.4,35.6.8,4.5,1.9,9.4,2.5,10.9.5,1.4,1,3.8,1,5.3s.8,6.2,1.9,10.7c1,4.4,2.8,12.5,4,18s2.9,12.9,3.7,16.5c.9,3.6,2,8.6,2.4,11.1.5,2.6,1.6,6.8,2.4,9.3.9,2.6,1.6,5.7,1.6,7.1s.5,3.6,1.1,5.2c.6,1.5,1.7,5.7,2.4,9.3,1.4,7.3,3.8,17,5.9,24.5.8,2.7,2.4,8.8,3.6,13.5,4.2,16.4,6.8,25.7,11.9,43.7,1.1,3.8,2.9,10.2,4.1,14.3,5.8,21,25.1,80.5,35,108,2.3,6.3,4.6,12.8,5.2,14.5,2.4,7.1,22.6,59,26.5,68.5.9,1.9,2.1,4.8,2.8,6.5.7,1.6,2.5,5.9,4,9.5,3.5,8.2,4.7,10.9,8.1,19,1.4,3.6,4.2,9.9,6.1,14,1.8,4.1,4,8.8,4.7,10.5.7,1.6,2.2,5,3.4,7.5,1.1,2.5,3.4,7.4,5,11,3.9,8.3,24.5,50.9,28,57.7,1.5,2.9,6.5,12.6,11.1,21.5,4.6,9,10,19.2,12,22.8s5.1,9.4,6.9,13,5.1,9.4,7.3,13,4.7,7.8,5.5,9.5c.8,1.6,2.6,4.8,3.9,7s3.1,5.3,3.9,7c.8,1.6,1.8,3.4,2.3,3.8.4.5,2.1,3.3,3.8,6.2,4.6,8.3,13.7,23.7,15.6,26.5,4.3,6.4,8.9,13.9,8.9,14.4s8.3,13.7,15.1,23.9c2.2,3.2,3.9,6,3.9,6.4,0,.8,35.6,53.9,39.3,58.6,1.7,2.2,4,5.3,5.2,7,1.2,1.8,4.6,6.8,7.7,11.2,4.8,7.1,11.2,15.8,31.3,42.5,5.1,6.7,17.2,22.4,30.4,39.4,2.5,3.3,7.1,8.9,10.1,12.5,3.1,3.7,6.7,8.2,8,10.1,1.4,1.9,5.6,7.1,9.5,11.5s8.6,10,10.5,12.5c1.8,2.5,7.3,8.8,12,14s9.3,10.6,10.2,11.9c1.5,2.1,19.9,22.6,42.7,47.5,20.6,22.4,101.5,102.8,111.6,110.9,2.8,2.2,10.6,9.2,17.5,15.7s15.2,14,18.4,16.6c3.3,2.7,10.5,9,16,14,5.6,5,12.1,10.5,14.6,12.3s6.5,5.1,9,7.5c2.5,2.3,9.5,8.2,15.5,13.1,6.1,4.9,11.9,9.8,13,10.8,1.1,1.1,4.5,3.8,7.5,6,3,2.3,8.2,6.5,11.5,9.3s9.4,7.6,13.5,10.7c4.1,3,19.1,14.2,33.2,24.9,29,21.7,45.2,33.6,52.8,38.8,2.9,1.9,6.6,4.7,8.4,6.1,7.3,6,94.5,64.2,113,75.4,3.7,2.2,10.3,6.4,14.7,9.2,4.4,2.9,8.4,5.3,8.8,5.3s3.1,1.6,6.1,3.6,6.8,4.3,8.4,5.2c1.6,1,3.6,2.2,4.5,2.7,25.5,16,29.8,18.1,39.6,20,4.4.8,8.1,1.9,8.3,2.5.5,1.3,4.9,1.3,5.4,0,.2-.6,3.9-1.8,8.2-2.6,5.9-1.2,10.4-3.1,17.5-7.1,12.3-7,23.8-14,30.1-18.3,1.4-.9,8.4-5.2,15.5-9.5,7.2-4.3,17.5-10.7,23-14.3,10.3-6.7,16.7-10.8,27-17.4,6.7-4.2,12.5-8.1,20-13.3,2.8-1.9,6.1-4.1,7.5-4.7,1.4-.7,7.3-4.7,13.1-8.8,11-7.8,20.9-14.6,34.9-24,4.4-3,10.4-7.3,13.3-9.5,5.5-4.2,8.5-6.3,18.2-12.9,3.3-2.3,9.2-6.5,13-9.4,3.9-3,12.9-9.9,20-15.3,38.1-29,54.9-42.2,66.9-52.4,3.9-3.3,8.4-6.8,9.9-7.8s6.7-5.3,11.5-9.6c4.8-4.2,10.3-8.8,12.2-10.1,1.9-1.4,7.9-6.5,13.4-11.5,5.4-4.9,12.8-11.4,16.5-14.3,3.6-2.9,12.4-10.8,19.5-17.5s13.9-12.8,15-13.6c8.6-5.9,105.5-101.9,122.6-121.5,5.2-6,14.2-15.9,19.9-22s12.9-14.3,15.9-18.1c3.1-3.9,8.4-10,11.7-13.6,3.4-3.6,9.6-10.8,13.8-16,13.3-16.3,20.6-25.1,28.1-33.9,6.7-8,16.6-20.6,21.1-27,1.1-1.6,4.4-6,7.3-9.7,4.6-5.8,20.2-26.7,35.8-47.8,20.6-27.9,72.7-106.3,85.1-128.1,1.5-2.7,6.6-11.2,10.8-18.2.6-.9,2.3-4,3.9-6.7,1.6-2.8,4.1-7,5.7-9.5,3.8-6.2,21.6-38,29.4-52.5,14.1-26.1,38.3-74.6,51.7-103.5,1.6-3.6,3.4-7.3,3.9-8.2.5-1,4.1-9.1,7.9-18,3.9-9,7.7-17.7,8.5-19.3,2.7-6,9.4-22.1,11.6-28,1.3-3.3,2.6-6.5,3-7,.4-.6,1.9-4.2,3.4-8,1.4-3.9,3.7-9.5,5-12.5s3.3-8.4,4.6-12c1.2-3.6,2.6-7,3-7.5.4-.6,1.2-2.6,1.7-4.5.6-1.9,3.2-8.9,5.7-15.5,2.6-6.6,5.3-14,6.1-16.5.7-2.5,2.5-7.7,3.9-11.5,1.4-3.9,6.4-18.5,11-32.5,7.5-22.6,9.5-28.7,13.6-41.6.5-1.8,2.6-8.7,4.5-15.5,2-6.8,4.5-15.3,5.6-18.9,3.1-10.4,10.5-37,11.8-43,.4-1.9,2-8,3.5-13.5s3.4-12.5,4.1-15.5c3.7-16.4,6-25.6,9.3-38.5,1.1-4.4,2.3-9.8,2.6-12s1.2-6.3,2-9c1.6-6.2,4.6-19.7,7.4-33.5,1.2-5.8,2.8-13.4,3.6-17s1.7-8.3,2-10.5,1.3-6.9,2.1-10.5,1.9-9.4,2.3-13c1.1-7.4,3.4-20.9,5.6-32,.8-4.1,1.7-9.5,2-12s1.2-8.3,2-13c2.3-13.7,5.3-35.5,11-81,.8-6.9,2-17.9,2.5-24.5s1.4-15.2,1.9-19c.6-3.9,1.5-15.3,2.1-25.5.6-10.1,1.3-18.7,1.6-19.1.2-.4,1-15,1.9-32.5.8-17.6,1.9-40.9,2.5-51.9,1.2-25.3,1.2-116.1,0-140.5-.5-10.2-1.4-29.1-2-42-.5-12.9-1.6-31.8-2.5-42-.8-10.2-2-24.4-2.5-31.5-.9-12.9-1.5-18-4.6-45-.9-7.7-1.9-17.8-2.4-22.5-.4-4.7-1.5-13.2-2.3-19-.9-5.8-2.1-13.7-2.6-17.5-2.5-17.4-7.2-46.6-8.6-53.5-.8-3.6-1.9-9.8-2.5-13.9s-1.3-7.7-1.5-8.1-.9-3.8-1.5-7.6-1.7-9.2-2.5-11.9c-.7-2.8-2.3-9.5-3.5-15-1.3-5.5-3.1-13.2-4-17-3.8-15.1-5.3-21.2-6.1-25.5-2.2-10.6-15.1-24-25.9-26.8-16.8-4.3-14.4-4.2-70-2.3-42.7,1.5-140.1,1-171.5-.9-9.3-.5-29.1-1.4-44-2-14.8-.6-31.5-1.5-37-2-5.5-.6-17.6-1.4-27-2-16.2-.9-37.8-2.8-58.5-5.1-5.2-.6-15.6-1.7-23-2.4s-16.2-1.8-19.5-2.3c-3.3-.6-8.9-1.3-12.5-1.7-6.1-.5-10.2-1.1-34.5-5.1-5.5-.9-13.1-2.1-17-2.6-3.8-.5-9.5-1.5-12.6-2.3s-6.7-1.5-8-1.5-6.7-.9-11.9-2.1c-5.2-1.1-13.8-2.9-19-4-9.6-2.1-23.8-5.2-32-7.1-2.5-.6-7-1.6-10-2.3s-10-2.5-15.5-4-11.9-3.1-14.2-3.6c-2.3-.4-6.3-1.5-9-2.2-2.6-.8-8.4-2.5-12.8-3.7-4.4-1.3-10.7-3.1-14-4-3.3-1-9.6-2.8-14-4s-9.6-2.8-11.5-3.5-6.9-2.3-11-3.5c-31.1-9.2-84-27.4-124.5-43-26-9.9-34.5-13.3-42-16.5-14.4-6.1-38.9-16.7-44.5-19.2-3-1.4-9.4-4.3-14.2-6.4-14.5-6.4-21.6-9.7-36.2-17.1-9.2-4.6-16.3-7.4-21-8.4-9.2-1.9-16-2.7-16.7-2ZM1270.4,75.4c22.1,10.9,28.8,14,44.6,20.8,6.3,2.7,13,5.6,14.8,6.4,1.7.8,4.7,2,6.5,2.8,1.7.8,5.7,2.5,8.7,3.9,3,1.3,14.3,5.9,25,10.1,10.7,4.3,21.5,8.6,24,9.6s7,2.8,10,3.9c13,4.8,19.6,7.3,21.5,8,3.9,1.6,13.1,4.9,21,7.6,4.4,1.5,8.9,3.1,10,3.6s9,3.1,17.5,5.9,16.4,5.4,17.5,5.9c2.1.9,9.2,3.2,24,7.6,5,1.5,10.6,3.2,12.5,3.9s6.9,2.3,11,3.5,10.4,3.1,14,4.1c16.1,4.7,29.8,8.6,43,12,4.7,1.3,10.5,2.8,13,3.6,2.5.7,6.1,1.5,8,1.9,1.9.3,5.5,1.3,8,2,2.5.8,9.7,2.6,16,4s14,3.2,17,3.9c3,.8,10.2,2.4,16,3.6s14.3,3,19,4c12.8,2.7,18.6,3.9,28.1,5.4,4.8.8,10.4,1.9,12.5,2.5,2.2.5,6.8,1.2,10.4,1.6s8.1,1.1,10,1.6c2,.5,7.1,1.3,11.5,1.9,4.4.5,12.7,1.7,18.5,2.5,23,3.3,34.9,4.8,44.3,5.6,5.5.4,15.6,1.5,22.5,2.3,11.8,1.4,19.4,2.1,53.2,4.6,36.9,2.8,60.2,4.2,84.5,5,14.9.5,41.4,1.4,59,2.1,37.8,1.3,130.5.7,166.7-1.2,26.5-1.4,27.8-1.2,27.8,3.5s.9,5.2,1.9,9.1c1.1,3.8,2.8,10.6,3.9,15s2.5,10,3.1,12.5,1.8,8.1,2.6,12.5c.9,4.4,1.9,9.3,2.5,11,.5,1.6,1.2,5.2,1.5,8,.3,2.7,1.2,8.1,2,12,2.2,10.6,4.5,24.1,5.6,33,.5,4.4,1.5,11.4,2.3,15.5,3.1,16,9.5,69.6,12.7,104.5.5,6,1.6,18.6,2.4,28,.9,9.3,2,26.9,2.5,39,.6,12.1,1.5,28.7,2.2,37,1.5,20.5,1.5,161.6-.1,182-.6,8.2-1.6,25.1-2.1,37.5s-1.6,29.7-2.5,38.5c-.8,8.8-1.9,21.4-2.5,28-2.6,30.9-8.9,84.2-12.5,107-.8,4.9-1.9,12.7-2.5,17.3-.5,4.6-1.4,10-1.9,12s-1.2,6.4-1.6,9.7c-.3,3.3-1.2,9.1-2,13-2.6,12.7-4.8,24.9-5.6,31.2-.4,3.4-1.5,8.8-2.4,12.1-.8,3.3-1.5,7-1.5,8.2s-.9,6.3-2,11.3c-1.1,5.1-3,13.5-4.1,18.7-5.3,25-6.1,28.8-7.3,33.5-.8,2.7-2.4,9.5-3.6,15s-3.1,13-4.1,16.7c-1.1,3.6-1.9,7.4-1.9,8.4s-.9,4.7-1.9,8.3c-2.5,8.3-5.1,18.3-12.1,45.1-1.2,4.7-2.9,10.1-3.6,12-.8,1.9-1.8,5.3-2.3,7.5-.6,2.2-2,7.1-3.2,11-2.1,6.8-4.2,14.2-7.3,25.5-.9,3-2.2,7.1-2.9,9-.8,1.9-2.4,6.9-3.7,11s-2.8,9.1-3.6,11c-.7,1.9-2,5.7-2.8,8.5-2.8,8.6-8.4,24.7-11.1,32-1.4,3.8-3,8.3-3.5,10-.9,3-3.9,11.2-8,21.5-1.2,3-2.6,6.8-3.2,8.5-.5,1.6-3.4,9.1-6.4,16.6-3,7.4-5.4,13.9-5.4,14.3s-.8,2.7-1.9,5c-1,2.3-2.9,6.6-4.1,9.6s-3,7.3-4,9.5-3,7.1-4.5,10.9-3.1,7.7-3.5,8.5c-.5.9-1.7,3.6-2.8,6.1-12.6,29.3-15.3,35.2-32.2,70.5-12.5,26-28.1,57-37,73-1.8,3.3-5.1,9.4-7.3,13.5s-5.7,10.4-7.7,14c-2.1,3.6-4.8,8.5-6.2,11-3.2,5.8-6.7,11.8-8.7,15.2-.9,1.5-5.2,8.8-9.6,16.3s-8.7,14.7-9.5,16-3.2,5.2-5.3,8.7c-2.1,3.4-4.8,7.9-6,9.9-7.3,12.1-41.3,63.9-50.2,76.4-3.1,4.4-7.6,10.9-10.1,14.5-19.3,28.3-66,89.5-89.4,117.5-3.7,4.4-10.7,12.7-15.5,18.5-21.5,25.6-57.1,65.2-81.5,90.5-30.1,31.3-80.5,80.5-102.1,99.6-5.8,5.2-15,13.4-20.6,18.4-42.9,38.6-94.5,80.4-149.3,121.1-28.5,21.2-30.3,22.5-65.7,47.4-9.9,6.9-62.6,41.9-73,48.4-4.3,2.7-10,6.4-12.8,8.1-8.9,5.7-35.4,22-47.3,29.2-3.5,2.1-7.5,4.5-8.7,5.3-15.1,9.6-21.5,12.4-23,10-.3-.5-3.4-2.6-6.8-4.5-3.4-2-6.9-4-7.7-4.5-6.4-4-20.8-12.7-22-13.3s-4.6-2.7-8.5-5.2c-3.8-2.4-9.7-6-13-8s-8.6-5.3-11.7-7.3c-3.2-2-8.6-5.5-12-7.6-3.5-2.2-13.5-8.7-22.3-14.5s-16.4-10.8-17-11.1c-1.7-.8-27.1-18.2-53.5-36.5-11.3-7.8-33.6-24-43-31-4.1-3.2-14.5-11-23.1-17.4-8.5-6.4-19.8-15-25-19.1-24.7-19.5-50-39.8-55.4-44.5-3.3-2.9-9-7.7-12.8-10.8-14.9-12.2-47.4-41-78.2-69.1-32.8-30-101.4-100.5-137-140.6-47.2-53.3-92.7-110.7-136-172-15.4-21.7-53.7-80.4-67.2-102.8-2.1-3.5-4.7-7.9-5.8-9.7-4.5-7.4-7.8-13.1-21.2-36.5-7.7-13.5-15.7-27.5-17.7-31.3-2-3.7-5.1-9.5-7-13-6.3-11.6-17.9-34.2-22.6-43.7-16.9-34.2-31.9-65.8-37.5-79-1.5-3.6-4.3-9.8-6.1-13.8-1.9-4-3.4-7.5-3.4-7.9s-.9-2.4-1.9-4.7c-2-4.4-9-21-12.3-29.1-1.1-2.8-2.9-6.8-3.9-9.1-1.1-2.3-1.9-4.8-1.9-5.6s-.7-2.3-1.5-3.4c-.8-1-1.5-2.5-1.5-3.3s-.8-3.3-1.8-5.5c-2.7-5.8-6.2-15-6.2-16s-.7-2.2-1.5-3.9c-.8-1.8-2.1-5-2.9-7.2s-2.6-7.2-4.1-11c-1.4-3.9-3-8.4-3.5-10-.9-2.9-2.1-6.4-7.5-21-1.5-3.9-3.2-9-4-11.5-.7-2.5-1.9-6.1-2.5-8-.7-1.9-2-5.8-3-8.5-.9-2.8-2.7-8.4-4-12.5s-3.1-9.8-4.1-12.5c-.9-2.8-2.7-8.4-3.9-12.5-4-13.5-6.1-20.5-7.1-23.5-.6-1.7-1.9-6.2-3-10-1.1-3.9-2.6-9.3-3.4-12-.7-2.8-1.9-7-2.6-9.5-.6-2.5-2-7.4-3-11s-2.7-10.3-3.9-15-2.8-10.6-3.6-13.2-1.8-6.6-2.3-9c-1.3-6.1-4-17.4-5.6-23.3-.8-2.8-2.4-9.5-3.5-15-1.2-5.5-3-13.6-4-18-3.4-15.2-6-27-8.1-38-1.1-6.1-2.7-13.9-3.5-17.5s-1.9-9.8-2.4-13.9c-.6-4-1.2-7.7-1.5-8-.2-.4-.9-3.9-1.5-7.7-.5-3.8-1.7-10.7-2.5-15.4-2.4-13.4-4.6-27.8-5.6-36.2s-1.6-10.9-2.4-14.8-1.5-8.6-1.5-10.3-.9-9.1-1.9-16.2c-2.1-13.4-3.4-24.5-5.2-42-.5-5.5-1.6-15.6-2.4-22.5-.9-6.9-1.8-16.6-2-21.5-.3-5-1.2-16.2-2-25-.9-8.8-2-25.7-2.5-37.5s-1.5-29.2-2-38.5c-1.7-27.1-1.4-152.2.4-182,.8-13.8,1.8-31.1,2.1-38.5s1.2-20.7,2-29.5,1.9-21.6,2.4-28.5c1.8-22.7,5.8-58.2,9.2-80.7,1-7.2,1.9-14.2,1.9-15.5s.9-7.9,2.1-14.8c1.1-6.9,2.9-17.9,4-24.5s2.6-15.2,3.4-19c.8-3.9,1.7-8.8,2-11s1.2-6.9,2-10.5,2.4-11,3.6-16.5,3-13,4-16.7c1.1-3.6,1.9-7.3,1.9-8.2,0-1.8,3.7-15.6,5.2-19.5l.9-2.4,12.7.6c7,.3,19,1.2,26.7,1.9,19,1.6,203.9,1.7,227.5,0,9.1-.7,25.7-1.7,37-2.2,11.3-.6,27.7-1.7,36.5-2.5s20.3-1.7,25.5-2,12.9-1,17-1.5c4.1-.6,12.9-1.4,19.5-2,6.6-.5,17.6-1.7,24.5-2.5,21.3-2.8,41.2-5.5,48-6.5,3.6-.6,11.5-1.7,17.5-2.5,6.1-.8,11.7-1.8,12.5-2.1s5.7-1.1,11-1.9c12-1.8,22.2-3.7,49.5-9.5,18.2-3.9,27.9-6.1,35.7-8.1,4.3-1.1,11.5-2.9,16-4,20.8-5.2,37.1-9.7,54.3-14.9,3.3-1,9.4-2.8,13.5-4s9.9-3.1,12.8-4.1c3-1.1,6.1-1.9,7-1.9,1-.1,3.5-.9,5.7-2s4.7-1.9,5.5-2c.8,0,3.7-.8,6.5-1.9,6.6-2.5,11-4,16.5-5.6,2.5-.8,7.7-2.6,11.5-4,3.9-1.4,8.8-3.2,11-4,2.2-.7,7.2-2.5,11-4,3.9-1.4,8.4-3,10.2-3.6,1.8-.5,4.5-1.6,6-2.4s3.2-1.5,3.7-1.5c1.2,0,21.1-7.7,24.9-9.6s3.3-1.4,3.9-1.4,2.4-.6,4.1-1.4c3.5-1.6,13.4-5.7,21.2-8.8,2.8-1.1,6.8-2.8,9-3.8s6.5-2.8,9.5-4c3-1.3,7.5-3.2,10-4.3s5.9-2.6,7.5-3.3c5.4-2.3,12.9-5.6,20.5-9.1,4.1-2,9.8-4.6,12.5-5.8,9.3-4.3,62-30.5,67-33.4,2.8-1.6,6.1-2.9,7.4-3s10.9,4.1,21.5,9.3Z"/>
  <path class="cls-1" d="M1233,178.7c-17.5,8.5-26.7,12.9-35.5,16.8-3.3,1.4-7.3,3.2-9,4-1.6.8-5.2,2.3-8,3.5-5.2,2.2-7.2,3.1-16.7,7.4-3.1,1.4-6.1,2.6-6.7,2.6s-2.2.7-3.8,1.5c-5.8,2.9-14.2,6.5-15.5,6.5s-1.8.4-2.3.9c-.6.5-6.4,3-13,5.5-6.6,2.6-14,5.6-16.5,6.6s-7.6,3.1-11.5,4.5c-3.8,1.4-7.9,3-9,3.6-1.1.5-3.3,1.4-5,1.9-1.6.5-6.1,2.1-10,3.5-3.8,1.4-8.8,3.2-11,4-2.2.7-7.1,2.5-11,4-3.8,1.4-8.3,3-10,3.5-3.3,1-46.1,15.3-51,17.1-1.6.6-5.2,1.7-8,2.4-2.7.8-7.9,2.3-11.5,3.4-7.6,2.3-24.3,7.2-35,10.2-4.1,1.1-10.4,2.9-14,3.9-15.9,4.6-39.4,10.2-80,19.1-5.2,1.2-12.5,2.8-16.3,3.6-3.7.8-9.3,1.9-12.5,2.3-3.1.4-9.5,1.4-14.2,2.3-17.1,3.2-47.8,8.1-57.5,9.2-2.7.3-9.3,1.2-14.5,2-13.4,2-34.6,4.5-47.5,5.6-6,.5-14,1.3-17.7,1.9-3.7.5-14.1,1.4-23.2,2-9,.5-19.6,1.4-23.6,2-3.9.5-16.8,1.5-28.8,2-11.9.6-26.2,1.5-31.7,2-22.4,2.1-134.4,4-180,3.1-19.2-.4-36-.4-37.2,0-1.7.6-2.3,1.9-2.8,5.6-.3,2.6-1.3,8-2.1,11.9s-1.9,10.4-2.4,14.5c-.9,7.6-3,21.5-5.5,37.4-.9,4.9-2,14.1-2.5,20.4-.6,6.3-1.3,11.7-1.5,12.1-.3.5-1.2,8.8-2,18.6-.9,9.8-1.8,18.1-2,18.4-.3.4-.9,7.6-1.5,16.1-.5,8.5-1.6,23.5-2.4,33.4-6.7,80.7-6.7,207.6-.1,283,.9,9.3,2,24,2.5,32.5s1.4,18.2,2,21.5c.5,3.3,1,7.6,1,9.6,0,6.2,1.3,6.9,10,5.4,7.6-1.4,28.9-4,45.5-5.6,5-.5,14.4-1.5,21-2.3,12.4-1.6,24.7-2.9,42-4.7,5.5-.5,15.6-1.6,22.5-2.5,6.9-.8,18.1-1.9,24.9-2.4,6.8-.6,15.1-1.4,18.5-1.9,3.3-.6,13-1.5,21.5-2.1s15.7-1.3,16.1-1.5c.3-.2,9.6-1.1,20.6-2,10.9-.8,20.6-1.8,21.4-2,.8-.3,11-1.2,22.5-2,11.6-.9,21.7-1.8,22.5-2,.8-.3,8.7-.9,17.5-1.5,8.8-.5,23.2-1.7,32-2.5,17.2-1.5,35.8-3,60.5-4.6,8.5-.5,23.6-1.7,33.5-2.5s26.8-1.9,37.5-2.5c10.7-.5,24.2-1.3,30-1.9,5.8-.5,16.8-1.2,24.5-1.5s24.4-1.2,37-2c12.7-.8,35.6-2,51-2.5,15.4-.6,28.9-1.3,30-1.6,1.1-.2,24.5-1.1,52-1.9s62.8-2,78.5-2.5c59.7-2.2,274.1-1.2,326.5,1.5,5.5.2,21.7.7,36,1,14.3.4,33.2,1,42,1.6,8.8.5,32.2,1.6,52,2.4s37.1,1.7,38.5,2c1.4.2,13.3.9,26.5,1.5s28.7,1.5,34.5,2,19.9,1.4,31.5,2c11.5.6,25,1.5,30,2,4.9.6,17.1,1.4,27,2,9.9.5,25.9,1.6,35.5,2.4,21.8,1.9,40.5,3.4,58,4.7,7.4.5,20.3,1.6,28.5,2.4,8.3.8,21.7,2,29.9,2.6,8.2.5,15.3,1.2,15.6,1.4s7.4.9,15.6,1.5,18.3,1.5,22.4,2.1c4.1.5,13.1,1.4,20,1.9s18.8,1.6,26.5,2.5c7.7.8,22.8,2.4,33.5,3.5s23.8,2.5,29,3c5.2.6,13.8,1.5,19,2.1,5.2.5,14.9,1.7,21.5,2.5s16.3,1.9,21.5,2.3c8.5.8,20.7,2.2,42.5,5,3.9.5,7.8,1.2,8.7,1.6,1.3.5,2,0,2.7-1.7,1-2.7,3.8-27,4.6-40.8.3-5.2,1.2-17.4,2-27,4.3-50.6,6.6-152.1,4.6-199.5-2-47.1-4.1-90-4.6-91.5-.2-.8-1.1-11.6-2-23.9s-1.8-22.7-2-23.1c-.2-.3-.9-6.7-1.5-14.1s-1.5-16.1-2.1-19.4c-.5-3.3-1.4-10.5-1.9-16s-1.7-14.7-2.6-20.5c-4.1-27.9-5.6-37.3-7.4-47.5-1.1-6.1-2-12.2-2-13.7s-.4-3.8-.9-5.1l-.9-2.4-71.9-.6c-39.5-.4-79.2-1.1-88.3-1.6-9.1-.6-28.6-1.5-43.5-2.1-14.8-.5-31.7-1.5-37.5-2-5.8-.6-17.7-1.4-26.5-1.9-14.9-.9-35.2-2.6-59-5.2-5.5-.5-16.3-1.7-23.9-2.4-7.7-.8-16.4-1.9-19.5-2.4s-9-1.2-13.1-1.6c-4.1-.3-9.5-1.1-12-1.6-2.5-.6-8.1-1.4-12.5-1.9-18.2-2.1-64.3-10.4-100.5-18.1-15.6-3.4-27.2-6-32.5-7.3-4.9-1.3-13.4-3.4-24.5-6.1-3-.8-8.2-2-11.5-2.8s-8.2-2.2-10.8-3.1-5.5-1.6-6.3-1.6-4.8-.9-8.7-2.1c-7.3-2.1-17.2-4.9-26.2-7.4-12.2-3.4-25.1-7.2-38.5-11.5-3-.9-8.6-2.7-12.5-3.9-3.8-1.2-16.4-5.3-28-9.2-11.5-3.9-22.6-7.5-24.5-8-1.9-.6-4.4-1.4-5.5-1.9-1.1-.6-4-1.6-6.5-2.4-12.1-3.9-54.7-19.6-58.2-21.6-1-.6-2.3-1-2.9-1s-2.5-.6-4.2-1.4c-1.8-.8-6.3-2.6-10.2-4.1-3.8-1.4-8.8-3.5-11.1-4.6-2.3-1-4.4-1.9-4.8-1.9s-2.6-.8-4.9-1.9c-2.3-1-7.3-3.1-11.1-4.6s-7.7-3.1-8.5-3.5c-.9-.5-3.6-1.7-6.1-2.8s-13.5-5.9-24.5-10.7-20.4-9.1-20.9-9.6c-2.1-1.9-6.7-.5-21.6,6.8ZM1284,295.4c18.6,3.3,39.9,9.1,52.6,14.2,21.3,8.5,40,18.8,56.9,31.4,22.5,16.6,43.4,38.6,58.9,62,9.8,14.6,15.1,24.6,23.7,44.5,3.3,7.6,7.4,21.1,11.4,37.5,7.4,30.2,7.6,77.1.4,106-.6,2.5-1.7,7-2.4,10s-1.9,7.1-2.5,9c-6.6,19-8.5,23.7-13.8,35-6.5,13.6-12.3,23.3-23.4,39.2-9.2,13.1-31.8,36.3-46.2,47.5-10.1,7.9-11.6,8.9-22.8,15.9-11.7,7.4-39.9,21.4-43,21.4s-2.4.6-4.1,1.4c-7.6,3.4-26.4,8.1-44.7,11.2-12.4,2-17.8,2.4-37.5,2.4s-25.1-.4-37.5-2.4c-22.9-3.9-43-9.7-61.5-17.9-42.2-18.8-79.5-50.1-105.3-88.7-6.9-10.3-7-10.5-15.4-27.2-12.2-24.6-17.9-42.3-23.5-73.3-2.6-14.4-2.6-55.2,0-71.5,2.4-14.6,7.3-34.6,11.2-45,4.4-12.1,6.2-16.5,10.3-25,24-50.1,66-92.2,115.7-115.9,9.9-4.7,12.9-6,23.5-9.9,17-6.2,40-11.5,60-13.6,9.7-1.1,50,.2,59,1.8Z"/>
  <path class="cls-1" d="M1231.5,340.9c-19.1,2.5-33.7,5.5-45,9.3-8.6,2.9-17.6,6.4-21,8.2s-3.3,1.6-3.7,1.6c-1.1,0-19.7,10.8-26.3,15.4-13.5,9.2-30.5,24.8-41.4,38.1-4.9,5.9-14.2,19.3-18.8,27-1.7,2.9-10.3,20.5-10.3,21.1s-.7,2-1.5,3.7c-.8,1.8-2.1,5.2-2.9,7.7s-1.9,5.8-2.5,7.5c-1.9,5.5-5,18.9-6.8,29.5-2.5,14.5-2.4,43.6,0,57.5,2.3,12.9,5.9,27.4,8.7,35.5,3.9,10.9,13.5,31.5,17.6,37.5,1.3,2,2.4,3.8,2.4,4,0,1.2,13,18.4,19.4,25.7,11.3,12.9,28.8,27.8,42.8,36.3,23.5,14.3,47,23.3,70.3,27,5,.8,11.9,1.9,15.5,2.4,3.6.6,12.4,1.1,19.5,1.1s15.9-.5,19.5-1.1c3.6-.5,10.6-1.6,15.5-2.4,10.5-1.6,21.2-4.4,31-8,3.9-1.4,8.1-3,9.5-3.4,1.4-.5,4.3-1.8,6.5-3,2.2-1.1,4.3-2.1,4.7-2.1,1.1,0,19.9-11.1,27.6-16.3,10-6.8,24.5-19.9,34.7-31.4,15.6-17.4,24.8-32.5,36.1-58.8.7-1.7,1.5-4.1,1.9-5.5.3-1.4,1.2-4.1,1.9-6,2.5-6.5,5.4-19.4,7.6-33.3,4.4-27.4.9-64.1-8.5-90.7-5.2-14.7-13.8-32.5-21.2-43.9-6.4-9.8-18.4-24.3-27.9-33.7-9.2-9.1-26.1-22.6-33.2-26.4-2-1.1-5-2.9-6.7-4-3.5-2.2-21.3-11-22.2-11s-2.5-.8-4.7-1.8c-22-9.8-64.8-16.3-88.1-13.3ZM1261.5,364c19.3,2.3,21.9,2.9,33.6,7.2,1.5.5,3.1,2.1,3.8,3.4.8,1.8,1.1,46.7,1.1,166.4v163.8l-2.8,2.7c-1.6,1.5-5.3,3.5-8.3,4.5-6,2.1-21.4,2.9-23,1.3s-1.2-26.6-1.4-75.8c-.2-67.6-.4-74.8-1.9-76.3s-4.3-1.7-15.4-2c-12.2-.4-13.9-.2-15.2,1.3s-1.6,12.9-2,76.2l-.5,74.5-2.4,1.9c-1.3,1-3.5,1.9-5,1.8-5.3-.2-13.7-1.8-19.1-3.6-9.8-3.5-8.8,7.1-10-109.3-1.1-101.6-.5-226,1.1-229.1.4-.9,3.8-2.6,7.5-3.8,14.7-4.8,42.7-7.2,59.9-5.1ZM1180.5,382c2.4,7.7,2.1,100.4-.4,103.4-1.3,1.5-12.6,3.4-21.6,3.7-8.7.2-9.3.1-11.5-2.1s-2-3.3-2-17-.2-15.1-1.7-15.7c-3.5-1.4-15.9,15.6-22,30.2-3.9,9.4-6.3,16-6.3,17.5s-.9,5.1-2,9.5c-1.6,6.7-2,11.4-2,28.5.1,17.5.4,22.2,2.4,32,4.6,22.7,11,36.1,24.4,50.9,3,3.4,5.3,5.2,6,4.7.9-.5,1.2-5.5,1.2-17s.2-16.6,1.6-17.7c1.2-1,5.5-1.3,16-1.3,19.3,0,18.5-.8,19.1,19.1.6,22.6.5,44.7-.2,66.8-.5,16.1-.9,20.2-2.1,21.2-1.2.9-3.3.2-10.2-3.4-4.8-2.5-9.4-5.2-10.3-5.9-.8-.8-1.8-1.4-2.1-1.4-.9,0-13.9-8.9-18.8-12.8-18.8-15.1-36.8-36.1-43.5-50.5-.8-1.8-1.9-3.9-2.4-4.7-.6-.8-2.2-4.2-3.6-7.5-1.5-3.3-3-6.7-3.4-7.5-.8-1.7-5.2-15.9-7-23-5.9-23-5.9-61.1-.1-84.5,6.6-26.5,15.8-44.6,34.8-68.1,14-17.4,36-35.2,56.8-45.9,7.9-4,10-4.3,10.9-1.5ZM1333.4,387.4c13.1,6.8,16.9,9.3,27.6,17.7,21.2,16.8,38.2,39.9,48.3,66,5.2,13.3,5.5,15.9,1.9,17.5-3,1.4-27.4,1.3-30.8-.1-3-1.2-8.5-8.4-11.8-15.5-2.6-5.5-4.2-8-8.1-12.7-3.8-4.6-6-5.4-6.6-2.6-.2,1-.2,39.4.1,85.3.5,76.3.6,83.5,2.1,83.8,2.3.4,8-6.8,13.2-16.9,7.2-13.9,8.5-15.7,12-16.5,4.1-.9,26.5-.9,29.4,0,4,1.3,3.8,4.8-.9,15.2-1,2.2-1.8,4.5-1.8,5,0,1.3-6.1,13-11.6,22.4-13.5,22.6-36.6,43.8-60.8,55.4-11.3,5.4-15.1,6.7-16.5,5.3s-1.1-43.5-1.1-156.3.3-155.9.6-156.8c1-2.6,3.6-1.9,14.8,3.8Z"/>
  <path class="cls-1" d="M1244.5,402l-13,.5-.6,10.5c-.8,13.8-.9,85.8,0,98l.6,9.5h29.9l1.5-6.5c2-9.2,2.2-90.8.2-102.5-1.2-7-3.1-11-5-10.3-.3.1-6.4.5-13.6.8Z"/>
  <path class="cls-1" d="M1213,892c-26.9,1.7-57.2,16.2-72.5,34.9-7,8.7-13.4,20.9-14.8,28.6-2.3,12.9-.8,35.7,2.8,40.9.8,1.1,1.5,2.8,1.5,3.8,0,2.1,7.5,14.1,13.4,21.4s24.4,21.4,31.6,24c.8.3,3.1,1.2,5,2.1,12.3,5.4,30.1,9.1,47.6,9.7,10.5.4,11.3.6,17.1,4,6.8,4,11,8.7,14.2,16,2.6,6.1,2.6,9.1,0,15.8-2.6,6.6-7.5,11.8-15.1,15.8-5.4,2.9-6.7,3.2-15.1,3.2s-10.1-.4-14.7-2.5c-7.7-3.5-10.3-6.3-20-21.4-4.7-7.3-9.1-13.5-9.9-13.8-1.7-.7-58.1,27.1-58.1,28.7s1.7,3.1,3.8,5.7c4,4.8,5.1,6.4,10.7,14.8,12.1,18.1,39,35,61,38.4,3.3.5,8.6,1.6,11.8,2.4,10.2,2.6,27.5,1.3,46.7-3.4,6.8-1.7,20.9-7.1,24.2-9.3,1.4-1,2.9-1.8,3.3-1.8,1.6,0,15.6-11.4,21.1-17.1,6.2-6.6,12.5-16.3,14.3-22.1.5-1.8,1.7-5.1,2.5-7.3,2.1-5.7,2.1-33.4,0-39-.9-2.2-1.9-5.4-2.4-7-2-7.7-10.9-20.6-20-29.3-8-7.8-27.4-20.2-31.4-20.2s-2.4-.7-4.1-1.6c-1.6-.8-5.2-2-8-2.6-2.7-.5-6.9-1.6-9.3-2.4s-8.7-1.4-16.6-1.4-13.4-.4-18.3-2.2c-10.8-4-17.9-10.7-21.4-20.2-2.2-6-2.2-6.1-.3-11.6,2-6,9.4-14.8,14.8-17.6,14.1-7.2,31.9-5.1,41.5,5,4,4.2,5,4.3,10.8,1.6,2.4-1.1,6.4-2.9,9.1-4.1,2.6-1.1,6.1-2.6,7.7-3.3,1.7-.8,7.5-3.3,13-5.6s11.8-5.1,14.1-6.1,4.8-1.9,5.6-1.9c2.8,0,3.8-2.1,2.3-4.9-3.1-6.1-24.6-23.4-31.7-25.6-1.3-.4-2.7-1.1-3.3-1.5-.5-.4-2.7-1.3-4.8-2-2.2-.7-5.1-1.8-6.5-2.6-1.5-.8-3.7-1.4-4.8-1.4s-5-.9-8.5-2c-6.9-2.1-24.2-2.9-39.9-2Z"/>
  <path class="cls-1" d="M1370.1,897.3c-.8,1.1-1.1,9-.9,28.8l.3,27.4,12.5.6c6.9.4,19.9.9,29,1.2,30.3,1.1,48.5,2.2,49.8,3.1,1.6.9,1.2,21.2-1.3,75.1-.8,17.6-1.5,41.6-1.5,53.4s-.5,24-1,27c-1.4,7.4-2.8,53.3-1.7,54.8.5.7,6.2,1.3,16,1.7,20.1.7,39,2.1,40.4,2.9.6.4,1.8.1,2.6-.7s1.4-6,1.6-23.8c.1-12.2.6-23.9,1.1-25.8.4-1.9,1.3-16.1,1.9-31.5,1.6-39.1,2.2-50.7,4-80.5.5-8,1-21.8,1-30.7.1-13.9.3-16.4,1.8-17.9s3.9-1.6,27.3-1c14,.4,29.8,1.2,35,1.8s14.5,1.1,20.5,1.2h11c0,.1.7-14.9.7-14.9.8-16.3,2.2-32.4,3.3-36.8,1.3-4.9-.1-5.3-17.6-6.1-8.8-.4-17.2-1.1-18.6-1.7-1.3-.5-8.6-.9-16.1-1-7.5,0-23.8-.7-36.2-1.5s-36.4-1.9-53.5-2.4c-17-.5-41.6-1.5-54.5-2.1-43.8-2-55.5-2.1-56.9-.6Z"/>
  <path class="cls-1" d="M1040.5,900.8c-.6.5-13.6,1.5-29,2.2-17,.7-28.5,1.6-29.3,2.3-1,.7-1.2,2.3-.8,5.1.4,2.3,1.1,14.9,1.6,28.1s1.4,29.4,2,36,1.5,22.8,2,36,1.4,29.8,2,37c.6,7.1,1.3,22.7,1.5,34.5.3,11.8,1,24.4,1.5,28,1.2,7.6,3,39.6,3,52.5s.4,9.6.9,10.4c.7,1.1,5.2,1.1,29-.2,19.4-1,28.6-1.9,29.7-2.8,1.7-1.4,1.6-9.3-.4-40.4-.6-8.8-1.3-28.4-1.7-43.5s-1.1-33.6-1.6-41-1.3-27.5-1.9-44.5c-.5-17.1-1.5-38.7-2.1-48-.6-9.4-1.4-24.9-1.8-34.5-.5-14.5-.9-17.5-2.1-17.8-.9-.1-2,.1-2.5.6Z"/>
  <path class="cls-1" d="M803.5,915.7c-2.2.1-9.2.9-15.5,1.7s-16.4,1.8-22.5,2.1c-6,.3-13.5,1-16.5,1.5s-10.7,1.2-17,1.5-13.3,1-15.5,1.5-7.8,1.2-12.3,1.6c-9.8.8-11,1.8-9.4,7.3.7,2.1,1.7,9.6,2.2,16.7.6,7.1,1.5,15.6,2.1,18.9s1.7,13,2.5,21.5c1.9,20,3.1,31.4,5.1,48,.8,7.4,1.9,18.4,2.4,24.5.4,6,1.3,14.1,1.9,18,.7,3.8,1.6,12.4,2,19,.5,6.6,1.4,14.5,2,17.5s1.5,10.9,2,17.5,1.4,14.9,2,18.5,1.5,11.7,2,18c1.3,15.5,2.4,22.8,3.6,24s3.3.7,8,0c3.8-.6,12.3-1.3,18.9-1.6s13.4-.9,15-1.4c1.7-.5,5.6-1.2,8.7-1.6,3.2-.3,6.2-1.2,6.7-1.8,1.1-1.3-.1-24.5-1.9-35.4-.5-3.4-1.4-13.1-1.9-21.5-.9-16.5-1-16,4.7-17.6,5.1-1.5,9.1.3,14.2,6.4,2.5,3,15.5,18.3,29,34l24.5,28.6,11-.6c6.1-.4,17.5-1.1,25.5-1.6,17.6-1,32.6-2.6,34-3.4.5-.3,1-1,1-1.5s-4.4-6.3-9.8-13.1c-5.3-6.8-13.3-17.1-17.6-22.9-8.2-10.8-17.5-22.6-25.2-31.9-5.5-6.7-5.7-9.5-.8-11.6,12-5,34.5-26.1,41.4-38.8,9.7-17.6,13-29.7,13-47.2s-2.2-26.1-3.8-27.7-1.2-1.9-1.2-2.9-1.4-4.3-3.1-7.5c-10.8-20.4-25.3-34.4-45.9-44.6-19.1-9.4-43.4-13.9-65.5-12.1ZM822.2,974.4c2.4.8,5.8,1.7,7.7,2.1,10.4,2.2,21.7,10.6,27.1,20.2,3,5.3,3.3,6.4,3.3,14.8s-.4,9.7-2.7,14.4c-8.5,16.7-29.7,28.1-52.3,28.1s-13.4.7-20.3,1.5c-6.8.8-12.8,1.1-13.2.7s-1.3-6-1.9-12.3c-.5-6.3-1.2-12.1-1.5-12.9s-1-7.8-1.5-15.5-1.4-17.4-2-21.5c-2.2-15.1-1.3-17,8-17,3.1-.1,8.8-.5,12.6-1,3.9-.6,9.2-1.2,11.8-1.4,2.7-.2,5.1-.7,5.4-1,1.2-1.2,15.3-.6,19.5.8Z"/>
  <path class="cls-1" d="M1778.4,922.1c-1.2.6-2.9,2.7-3.7,4.8-.9,2-3.6,7.2-6,11.6s-6.1,11.1-8.2,15c-2.1,3.8-6.2,11.7-9.3,17.5-3,5.8-8.1,15.4-11.2,21.5-3.2,6-8.4,15.9-11.5,22-3.1,6-10,19.5-15.5,30-23.6,45.5-67.1,133.7-66.6,135,.4,1.1,2.2,1.5,6.3,1.5,3.2.1,12.3.8,20.3,1.6,16.3,1.8,37.1,3.2,38.2,2.7.4-.2,3.1-5.2,6.1-11.1,15.7-31,20-38.8,21.7-40.1,1.6-1.1,2.9-1.1,6.4-.2,2.5.6,7.8,1.1,11.8,1.1,4,.1,12.3.8,18.3,1.6,6.1.8,16.9,1.9,24,2.4,12.3.9,19.2,1.9,26,3.8,2.4.7,3.1,1.5,3.6,4.5.3,2,1.1,4.2,1.7,4.9.6.8,1.4,3.4,1.7,5.8.4,2.5,1.5,7.1,2.6,10.3,1,3.1,1.9,6.6,1.9,7.6s.6,3.4,1.4,5.3,1.8,5.8,2.2,8.7c1.2,9,2.7,9.9,17.9,11.1,7.2.6,14.8,1.4,17,1.9s8.1,1.2,13,1.6c5,.3,11.4,1.1,14.4,1.7,7.2,1.4,7.9.5,5.2-7.3-1.1-3.5-2.1-7.3-2.1-8.6s-.9-4.5-2-7.3-2-6.3-2-7.8-.7-4-1.5-5.5-1.7-4.5-2-6.5c-.4-2-1.5-6.3-2.6-9.5-1-3.1-1.9-6.9-1.9-8.3s-.6-3.7-1.4-5.2-1.9-5-2.5-7.7c-1.7-8.4-4.3-17.8-5.7-21.3-.8-1.8-1.4-4.1-1.4-5.2s-.9-4.8-1.9-8.2c-1-3.5-2.3-8.1-2.9-10.3-.5-2.2-1.4-5.4-2-7-.6-1.7-2-6.6-3.2-11s-3-10.7-4.1-14c-1-3.3-1.9-6.9-1.9-8s-.7-3.3-1.5-4.8-1.7-4.5-2.1-6.5c-.6-3.5-3.3-13.2-5.5-19.7-.6-1.7-1.6-5.5-2.4-8.5-.7-3-1.7-6.9-2.3-8.5-2.5-7-5.2-16.3-5.2-18.1-.1-1-.9-3.7-2-5.9s-1.9-5-2-6.3c0-1.2-.7-3.9-1.6-6-.8-2-1.9-5.5-2.4-7.7-.8-3.8-2.8-10.4-5.1-17-.6-1.7-1.6-5-2.3-7.5l-1.2-4.5-8-1.3c-4.3-.7-13.8-1.6-20.9-2.1-7.2-.5-15.1-1.2-17.5-1.5-2.5-.3-5.5-.1-6.6.5ZM1797.4,1034.3c.3,1.2.7,3.3,1,4.7.2,1.4,1.1,4.5,2,7,.8,2.5,2.5,7.9,3.7,12s3.1,10.1,4.1,13.4c1,3.2,1.6,6.7,1.2,7.8-.6,1.9-1.2,2-10.3,1.5-5.3-.3-10.9-.8-12.6-1.1-1.6-.3-5.2-.8-8-1.1-8.8-1.1-9.5-1.4-9.5-3.8s1-3.8,2.2-5.7c2-3.3,4.5-8,15.5-29,2.4-4.7,4.9-8.8,5.6-9.2,1.7-1,4.6,1,5.1,3.5Z"/>
  <path class="cls-1" d="M516.5,942.9c-4.4.5-9.8,1.3-12,2-2.2.6-6,1.1-8.5,1.1s-5.8.7-7.3,1.5-4.5,1.7-6.5,2.1c-9.8,1.7-33.3,12.5-46.5,21.3-7.9,5.2-20.6,15.8-25.9,21.6-8.6,9.2-24.8,33.3-24.8,36.8s-.9,2.5-2,4.2c-1.1,1.6-2,3.7-2,4.5s-.9,3.7-1.9,6.5c-1.1,2.7-2.9,9.4-4.1,14.7-2,8.7-2.2,11.6-1.7,28.5.3,12.8.9,20.2,1.9,23.3.9,2.5,2,6.3,2.6,8.5,3,11.5,8.8,24,17.1,37,4.9,7.7,25.5,28.9,34.1,35.1,8.5,6.1,26.8,16.4,29.3,16.4s2.8.8,4.7,1.9c1.9,1,5.3,2.1,7.4,2.5,2.2.4,4.9,1.4,6,2.2s3.4,1.4,5.1,1.4,6.7.9,11.1,2.1c6.8,1.8,10.8,2.1,28.9,2,15.4,0,22.5-.4,26.7-1.5,3.1-.8,7.8-1.8,10.5-2.1,7.3-1,26.7-7.2,33.3-10.7,1.9-1,3.8-1.8,4.2-1.8.9,0,11.7-6.2,18.6-10.7,7.1-4.7,16.5-12.2,23.8-19.2,8.3-8.1,29.7-32.8,29.2-34-.3-1.1-10.7-8.6-27.8-20.1-6.2-4.1-13.4-9.2-16.2-11.2-2.7-2-5.6-3.4-6.3-3.2-.7.3-5.8,5.8-11.3,12.2-11.8,13.9-19.6,21.4-27.7,26.9-6.5,4.3-14.5,8.6-18.5,9.8-1.4.4-3.8,1.3-5.5,2-1.6.7-7.8,2.3-13.7,3.5-8.8,1.9-12.7,2.2-21.5,1.7-5.9-.3-12.1-1-13.8-1.5-1.6-.6-5-1.5-7.5-2.1-11.9-2.6-25.7-9.7-36.5-18.8-6.6-5.6-13.6-13.5-15.6-17.8-.5-1.1-1.3-2.7-1.8-3.5-1.8-2.7-4.9-10.4-7-17.1-7.2-22.6,3.1-53.4,24.6-73.2,4.9-4.6,14.2-11.3,17.7-12.8,1.1-.5,2.8-1.3,3.6-1.9.8-.5,2.6-1.4,4-2,1.4-.5,3.2-1.4,4-1.9,2.9-1.8,11.6-4.3,19-5.4,8.8-1.3,28.7-1.5,38-.3,8.6,1.1,21.6,6.1,31.5,12.1,7.7,4.6,7.9,4.8,12.6,8l6,4c.9.5,3.4,2.3,5.6,3.8s4.6,2.5,5.4,2.1c.8-.3,5-4.7,9.4-9.7,4.4-4.9,13.3-14.8,19.8-21.9s11.7-13.5,11.4-14.1c-.8-2.7-38.9-27.1-47.2-30.3-1.6-.7-5.5-2.2-8.5-3.4s-8-2.9-11-3.7-6.9-2.1-8.7-2.9c-1.7-.8-4.9-1.4-7.1-1.4s-6.9-.6-10.4-1.4c-7.8-1.8-29.6-2.7-40.3-1.7Z"/>
  <path class="cls-1" d="M1975.7,943.6c-.4.4-.7,2.5-.7,4.7s-.6,6.5-1.4,9.6-1.7,9.6-2,14.6c-.4,4.9-1.3,11.7-2.1,15s-1.5,8.2-1.5,11-.7,8.4-1.5,12.5-1.9,12.8-2.5,19.2-1.5,12.9-2.1,14.5c-.6,1.5-1.3,6.6-1.5,11.3-.3,4.7-1.2,11.4-1.9,15-.8,3.6-1.9,11.8-2.4,18.2-.6,6.5-1.5,12.8-2,14-.5,1.3-1.2,7-1.6,12.8s-1.2,11.6-1.6,12.9c-.5,1.3-1.6,8.7-2.4,16.5s-1.9,15.5-2.5,17c-.5,1.5-1,5.1-1,7.9s-.7,9.2-1.6,14.2c-2.1,12.2-3.3,25.8-2.4,26.8.4.5,3.4,1.1,6.6,1.4,3.3.2,7.5.9,9.4,1.4,1.9.6,7.9,1.4,13.3,1.9s13.3,1.6,17.5,2.4,11.5,2,16.2,2.5c14.2,1.8,23.2,3.1,29,4.2,3,.6,10.2,1.7,16,2.5,5.8.7,12.5,1.8,15,2.4,2.5.5,7.2,1.2,10.5,1.6,3.3.3,8.6,1.2,11.9,2.1,3.2.8,6.4,1.2,7.1,1,.7-.3,1.4-3.7,1.8-8.9.3-4.5,1.3-10.3,2.1-12.7.9-2.4,1.6-6.4,1.6-9,.1-2.5.5-6.4.9-8.6,3.8-17.3,3.6-18.5-2.1-18.5s-3.8-.5-4.9-1c-1-.6-4.9-1.3-8.7-1.6-3.7-.3-10.7-1.4-15.7-2.4-4.9-1-12.6-2.2-17-2.5-4.4-.4-8.7-1.1-9.6-1.6-1-.5-5.9-1.3-11-1.8-17-1.8-23.7-3.9-22.3-6.9.4-.9,1.1-6,1.5-11.2.5-5.2,1.4-11.3,2-13.5s1.5-7.8,1.9-12.5,1.5-12,2.4-16.3,1.6-10,1.6-12.5c.1-2.6.7-7.4,1.5-10.7s1.7-9.4,2.1-13.5c.3-4.1,1.2-10,1.9-13s1.6-9.4,2-14.2c.4-4.9,1.3-11.2,2.1-14,.7-2.9,1.4-7.1,1.4-9.3.1-2.2.7-7.4,1.6-11.5.8-4.1,1.9-11.9,2.4-17.4.6-5.4,1.6-12.4,2.4-15.5,2.2-9,2.8-20.7,1.1-22.1-.7-.6-6-1.6-11.6-2.1s-12.1-1.4-14.3-2c-2.3-.5-8.6-1.4-14.1-1.9-9.6-.9-12-1.3-17.5-2.6-1.4-.3-2.9-.2-3.3.2Z"/>
  <path class="cls-1" d="M1181.7,1232.7c-.4.3-.7,239.5-.7,531.4v530.8l11.3,7.4c13.2,8.7,14.6,9.6,38.2,24.4,9.9,6.2,18.6,11.3,19.5,11.3s4.5-2,8.3-4.3c21.2-13.3,28.1-17.6,36.1-22.9,4.8-3.2,8.9-5.8,9.1-5.8s5.2-3.3,11.2-7.4l10.8-7.3.3-528.3c.1-367.2-.1-528.6-.8-529-1.4-.9-142.5-1.2-143.3-.3Z"/>
  <path class="cls-1" d="M919.9,1241.4c-.2.3-11,1-23.9,1.6s-32.7,1.7-44,2.5-25.4,1.7-31.5,2c-23.3,1.2-52,3.9-52.7,4.9-1,1.4-.9,684.5,0,686.8,1.6,3.9,40.6,45.2,77.7,82.3,41.4,41.5,45.3,45.2,69.5,67.2,8,7.2,15.6,14.2,16.9,15.7,1.3,1.4,2.8,2.3,3.2,2,1.3-.8,1.1-114.8-.6-437.4-.9-157-1.7-317.5-1.8-356.5l-.2-71-6-.3c-3.4-.2-6.3-.1-6.6.2Z"/>
  <path class="cls-1" d="M1574.6,1243.5c-.3.9-.6,44.7-.6,97.3s-.7,211.3-1.5,352.7c-1.5,268.4-1.9,405.5-1.1,406.3s26.7-23.1,47.1-42.7c42.1-40.7,78.9-78.9,113.7-118l6.8-7.6-.3-339.5-.2-339.5-10.5-.7c-5.8-.4-19.3-1.4-30-2.3-10.7-.8-28.5-2-39.5-2.6s-20.2-1.2-20.5-1.4-11.6-.8-25-1.4c-13.5-.6-27.5-1.4-31.1-1.7-5.6-.5-6.7-.3-7.3,1.1Z"/>
  <path class="cls-1" d="M515.8,1272.5c-.2.3-8.1,1.2-17.4,2s-17.5,1.7-18.1,2c-.7.2-7,.9-14,1.5-7.1.5-18.6,1.7-25.8,2.6-14.9,1.7-36.8,4.3-40.5,4.6-3.1.4-3.8,3.6-1.7,8.7,1.5,3.6,3.5,9.4,6.2,18.1,2.1,6.8,4.5,14.1,6,18,.7,1.9,2.1,6,3.2,9s2.5,7,3.1,8.7c.7,1.8,1.7,4.8,2.4,6.5.6,1.8,2,5.8,3.1,8.8,1,3,2.5,6.8,3.2,8.5.7,1.6,2.5,6.4,4,10.5s3.3,8.7,4.1,10.2c.8,1.4,1.4,3.2,1.4,3.9s.8,3.1,1.8,5.3c1,2.3,2.9,6.8,4.2,10.1,1.2,3.3,2.9,7.3,3.6,9,.7,1.6,2.9,6.8,4.8,11.5,4.1,10.3,9.2,22.4,11.1,26.5.8,1.6,2.6,5.7,4,9,3.2,7.2,4.4,10,8.3,18.5,1.6,3.6,4.2,9.2,5.7,12.5,10.1,22.2,37.7,78.1,41.2,83.3,2.6,3.9,3.7,2.7,2.9-3.1-.3-2.3-.8-65.6-1.1-140.7-.5-139.8-.9-162.6-2.7-164.8-1.1-1.3-2.1-1.5-3-.7Z"/>
  <path class="cls-1" d="M1987.3,1276.2c-.8,1.3-3.3,291.8-2.5,292.8s3.5-4,14.1-25.5c10.2-20.6,14.3-29.2,22.8-47.5,4.4-9.6,6.3-13.7,10.7-23.2,2-4.2,3.6-8,3.6-8.4s.8-2.6,1.9-4.8c5.9-12.7,7.1-15.6,7.1-16.8s.4-1.8.9-2.4c.5-.5,2.1-4.1,3.6-7.9,1.5-3.9,3.5-8.8,4.5-11s2.1-5.1,2.5-6.5,1.4-3.4,2.1-4.5c.8-1.1,1.4-2.6,1.4-3.5.1-.8.9-3.3,2-5.5s1.9-4.7,2-5.5c0-.9.6-2.4,1.4-3.5.7-1.1,1.7-3.1,2-4.5.8-2.7,2.4-7.1,8.1-22,5.1-13.5,7.2-19.2,7.8-21.5.4-1.1,2.7-7.9,5.2-15,2.5-7.2,5.2-15,6-17.5,2-6.5,4.5-14,6.1-18.2,2.2-5.9,1.4-6.6-8.4-7.3-4.8-.3-13.2-1.2-18.7-2s-15.4-2-22-2.6-12.2-1.2-12.5-1.4c-.4-.2-8.2-1.1-17.6-1.9-9.3-.9-19.6-2-22.9-2.6-7.9-1.3-10.2-1.3-11.2.2Z"/>
</svg>