<svg id="Camada_1" data-name="Camada 1" xmlns="http://www.w3.org/2000/svg" xmlns:xlink="http://www.w3.org/1999/xlink" viewBox="0 0 500 500"><defs><style>.cls-1,.cls-10,.cls-14,.cls-15,.cls-16,.cls-3,.cls-6,.cls-9{fill:none;}.cls-1{clip-rule:evenodd;}.cls-2{fill:#009540;}.cls-2,.cls-5,.cls-7{fill-rule:evenodd;}.cls-14,.cls-3,.cls-9{stroke:#009540;}.cls-10,.cls-14,.cls-3,.cls-6,.cls-9{stroke-miterlimit:22.93;}.cls-3{stroke-width:0.46px;}.cls-4{clip-path:url(#clip-path);}.cls-13,.cls-5{fill:#004f9e;}.cls-10,.cls-15,.cls-16,.cls-6{stroke:#fff;}.cls-6{stroke-width:0.18px;}.cls-11,.cls-7{fill:#fff;}.cls-8{clip-path:url(#clip-path-2);}.cls-9{stroke-width:0.29px;}.cls-10{stroke-width:0.29px;}.cls-12{clip-path:url(#clip-path-3);}.cls-14{stroke-width:1.36px;}.cls-15,.cls-16{stroke-linecap:round;stroke-linejoin:round;}.cls-15{stroke-width:21.74px;}.cls-16{stroke-width:10.87px;}</style><clipPath id="clip-path"><path class="cls-1" d="M411.94,75.93c2.74.19,9.23,3.15,11.8,4.17s8.68,3.21,10.76,4.64c.54,4.22.12,135.35.12,139.33,0,31.77.92,66.35-8.32,96.59-1.52,5-8,21.32-10.76,23.42-2,6.25-18.36,22.84-22.88,27-4.26,3.92-8.58,7.65-13.17,11.59-2.07,1.78-12.3,9.76-14.35,10.74l-1.48,1.45-.2.22-11.23,8.69M411.94,75.93V76m0-.89v.64m-73.78,338.7c-12.11,9.43-24.68,17.9-36.55,26.81-2,1.5-4.13,3-6.18,4.4-5.9,4-40.25,29.76-43.71,30.36.05-370-.57-242.56.19-455.44,7.5-.65,16.24.39,23.38.68,20.81.84,44.36,4.71,63.9,9.33,9.41,2.22,29.39,7.53,37.83,10.87,6.1,2.41,11.86,4.27,17.76,6.65,2.79,1.13,5.47,2.3,8.48,3.68a82.91,82.91,0,0,0,8.64,3.65l0,19.53M124.79,383.32c-5.58-4.38-16.39-14.66-21.25-19.32-1.15-1.53-3.51-3.71-5-5.43-1.7-2-3-3.53-4.69-5.62a100.88,100.88,0,0,1-13.47-23.31,132.22,132.22,0,0,1-7.8-28.76c-3.5-23-3.71-45.34-3.71-69.5V157.86c0-24.27-.5-49.06,0-73.26,2.56-1.19,20.66-8.69,22.66-8.68.47,11.63,0,24.29,0,36V219.19c0,39.84-2.82,99,12.33,130.63a100.25,100.25,0,0,0,15.25,23.88l19.32,19.76C136.09,392.44,127.4,385.23,124.79,383.32ZM89,363.84l13.19,13.8A58,58,0,0,1,107,382l17.16,14.42c6.25,4.65,11.93,9,18.2,13.48s12,9,18.27,13.41c6,4.24,12.15,8.61,18.13,13.15,12,9.14,24.36,17.29,36.56,26.41l18.43,13.25c3,2.09,6.05,4.43,9.21,6.63l8.83,6.63L322.68,438c1.6-1.13,3.24-2.37,4.95-3.58s3.33-3,5.14-3.33c.84-1.55,8.64-6.5,10.66-8.23,1.26-.72,2.2-1.64,3.56-2.54,3-2.06,5.72-4.22,8.83-6.45s5.67-4.21,8.86-6.56c6.05-4.46,11.87-8.67,18-13.34l12.45-10.7a180.37,180.37,0,0,0,26.36-28.47c11.93-16.55,17.94-36.76,20.76-57.2,1-7.21,2-17.3,2.35-24.75l.21-2.86c0-.14.06-.24.09-.37s.09-.26.11-.36a3.17,3.17,0,0,1,.13-.36V77.39l-22.46-9.3-.06-19.35c-5.06-2.5-10.14-4.74-15.33-7-8.67-3.75-15.61-6.2-24.53-9.54-28.15-10.51-63.16-17.73-93.6-20.65-3.67-.35-19-.93-21-1.56H233.51c-1.63.63-18.58,1.5-22.22,1.88A395.74,395.74,0,0,0,150.57,23c-20.65,5.4-51.09,16.16-69.68,25.81l-.14,19.36L58,77.68v175.9c2.17,5.51-3.19,63.28,23.54,100.49Z"/></clipPath><clipPath id="clip-path-2"><path class="cls-1" d="M251.34,476.29a5.29,5.29,0,0,0,1.3-.55,5.32,5.32,0,0,0,1.31.55V475c8.95-5.36,35.93-25.58,41.1-29.06,2.05-1.38,4.19-2.89,6.18-4.39,11.87-8.92,24.44-17.39,36.55-26.81l12.52-9.16c.33-1.28.13-.42,1.55-1.55l11.23-8.69.2-.22,1.48-1.45c1.57-2,7.41-7,9.65-9.32,3.3-3.36,6.09-6.57,9.39-10.11,6.41-6.87,10.2-13.74,14.43-21.72.17-.31.28-.53.47-.82a3.15,3.15,0,0,1,.63-.78A180.35,180.35,0,0,0,411,291c.76-47.83.64-95.49.64-143.4,0-8.39.48-64.54-.05-71.28l0-20.55a85.28,85.28,0,0,1-8.64-3.66c-3-1.37-5.69-2.55-8.48-3.67-5.91-2.39-11.66-4.25-17.76-6.66-8.44-3.34-28.42-8.64-37.83-10.87-19.54-4.62-43.09-8.48-63.9-9.32-6.79-.28-15-1.23-22.27-.77-7.24-.46-15.47.49-22.26.77-20.82.84-44.36,4.7-63.9,9.32-9.42,2.23-29.4,7.53-37.84,10.87-6.1,2.41-11.85,4.27-17.76,6.66-2.78,1.12-5.46,2.3-8.47,3.67a86.39,86.39,0,0,1-8.65,3.66l0,20.55c-.53,6.74-.06,62.89-.06,71.28,0,47.91-.11,95.57.65,143.4a179.76,179.76,0,0,0,11.64,60,3.16,3.16,0,0,1,.62.78,8.28,8.28,0,0,1,.47.82c4.23,8,8,14.85,14.44,21.72,3.3,3.54,6.08,6.75,9.38,10.11,2.24,2.28,8.08,7.29,9.65,9.32l1.49,1.45.19.22L153.44,404c1.42,1.13,1.21.27,1.55,1.55l12.51,9.16c12.12,9.42,24.68,17.89,36.55,26.81,2,1.5,4.14,3,6.18,4.39,5.17,3.48,32.16,23.7,41.11,29.06Z"/></clipPath><clipPath id="clip-path-3"><path class="cls-1" d="M253.15,475.46l.35-.2-.35.2m.8.83a5.32,5.32,0,0,1-1.31-.55,5.29,5.29,0,0,1-1.3.55V475c-9-5.36-35.94-25.58-41.11-29.06-2-1.38-4.18-2.89-6.18-4.39-11.87-8.92-24.43-17.39-36.55-26.81L155,405.57c-.34-1.28-.13-.42-1.55-1.55l-11.24-8.69-.19-.22-1.49-1.45c-1.57-2-7.4-7-9.65-9.32-3.3-3.36-6.08-6.57-9.38-10.11-6.42-6.87-10.21-13.74-14.44-21.72a8.28,8.28,0,0,0-.47-.82,3.16,3.16,0,0,0-.62-.78,179.76,179.76,0,0,1-11.64-60q-.45-27.75-.55-55.45H411.51q-.13,27.7-.54,55.45a180.35,180.35,0,0,1-11.64,60,3.15,3.15,0,0,0-.63.78c-.19.29-.3.51-.47.82-4.23,8-8,14.85-14.43,21.72-3.3,3.54-6.09,6.75-9.39,10.11-2.24,2.28-8.08,7.29-9.65,9.32l-1.48,1.45-.2.22L351.85,404c-1.42,1.13-1.22.27-1.55,1.55l-12.52,9.16c-12.11,9.42-24.68,17.89-36.55,26.81-2,1.5-4.13,3-6.18,4.39-5.25,3.54-33.05,24.37-41.53,29.32L254,475Z"/></clipPath></defs><path class="cls-2" d="M103.92,349.82C88.77,318.23,91.59,259,91.59,219.19V112c0-11.75.44-24.41,0-36-2,0-20.1,7.49-22.66,8.68-.52,24.2,0,49,0,73.26v73.52c0,24.16.21,46.48,3.71,69.5a132.22,132.22,0,0,0,7.8,28.76A100.88,100.88,0,0,0,93.86,353c1.73,2.09,3,3.65,4.69,5.62,1.48,1.72,3.84,3.9,5,5.43,4.86,4.66,15.67,14.94,21.25,19.32,2.61,1.91,11.3,9.12,13.7,10.14L119.17,373.7A100.25,100.25,0,0,1,103.92,349.82Z"/><path class="cls-3" d="M103.92,349.82C88.77,318.23,91.59,259,91.59,219.19V112c0-11.75.44-24.41,0-36-2,0-20.1,7.49-22.66,8.68-.52,24.2,0,49,0,73.26v73.52c0,24.16.21,46.48,3.71,69.5a132.22,132.22,0,0,0,7.8,28.76A100.88,100.88,0,0,0,93.86,353c1.73,2.09,3,3.65,4.69,5.62,1.48,1.72,3.84,3.9,5,5.43,4.86,4.66,15.67,14.94,21.25,19.32,2.61,1.91,11.3,9.12,13.7,10.14L119.17,373.7A100.25,100.25,0,0,1,103.92,349.82Z"/><path class="cls-2" d="M411.94,75.93c2.74.19,9.23,3.15,11.8,4.17s8.68,3.21,10.76,4.64c.54,4.22.12,135.35.12,139.33,0,31.77.92,66.35-8.32,96.59-1.52,5-8,21.32-10.76,23.42-2,6.25-18.36,22.84-22.88,27-4.26,3.92-8.58,7.65-13.17,11.59-2.07,1.78-12.3,9.76-14.35,10.74l-1.48,1.45-.2.22-11.23,8.69M411.94,75.93V76m0-.89v.64m-73.78,338.7c-12.11,9.43-24.68,17.9-36.55,26.81-2,1.5-4.13,3-6.18,4.4-5.9,4-40.25,29.76-43.71,30.36.05-370-.57-242.56.19-455.44,7.5-.65,16.24.39,23.38.68,20.81.84,44.36,4.71,63.9,9.33,9.41,2.22,29.39,7.53,37.83,10.87,6.1,2.41,11.86,4.27,17.76,6.65,2.79,1.13,5.47,2.3,8.48,3.68a82.91,82.91,0,0,0,8.64,3.65l0,19.53M124.79,383.32c-5.58-4.38-16.39-14.66-21.25-19.32-1.15-1.53-3.51-3.71-5-5.43-1.7-2-3-3.53-4.69-5.62a100.88,100.88,0,0,1-13.47-23.31,132.22,132.22,0,0,1-7.8-28.76c-3.5-23-3.71-45.34-3.71-69.5V157.86c0-24.27-.5-49.06,0-73.26,2.56-1.19,20.66-8.69,22.66-8.68.47,11.63,0,24.29,0,36V219.19c0,39.84-2.82,99,12.33,130.63a100.25,100.25,0,0,0,15.25,23.88l19.32,19.76C136.09,392.44,127.4,385.23,124.79,383.32ZM89,363.84l13.19,13.8A58,58,0,0,1,107,382l17.16,14.42c6.25,4.65,11.93,9,18.2,13.48s12,9,18.27,13.41c6,4.24,12.15,8.61,18.13,13.15,12,9.14,24.36,17.29,36.56,26.41l18.43,13.25c3,2.09,6.05,4.43,9.21,6.63l8.83,6.63L322.68,438c1.6-1.13,3.24-2.37,4.95-3.58s3.33-3,5.14-3.33c.84-1.55,8.64-6.5,10.66-8.23,1.26-.72,2.2-1.64,3.56-2.54,3-2.06,5.72-4.22,8.83-6.45s5.67-4.21,8.86-6.56c6.05-4.46,11.87-8.67,18-13.34l12.45-10.7a180.37,180.37,0,0,0,26.36-28.47c11.93-16.55,17.94-36.76,20.76-57.2,1-7.21,2-17.3,2.35-24.75l.21-2.86c0-.14.06-.24.09-.37s.09-.26.11-.36a3.17,3.17,0,0,1,.13-.36V77.39l-22.46-9.3-.06-19.35c-5.06-2.5-10.14-4.74-15.33-7-8.67-3.75-15.61-6.2-24.53-9.54-28.15-10.51-63.16-17.73-93.6-20.65-3.67-.35-19-.93-21-1.56H233.51c-1.63.63-18.58,1.5-22.22,1.88A395.74,395.74,0,0,0,150.57,23c-20.65,5.4-51.09,16.16-69.68,25.81l-.14,19.36L58,77.68v175.9c2.17,5.51-3.19,63.28,23.54,100.49Z"/><g class="cls-4"><path class="cls-5" d="M258.2,141.42C255.41,95.47,281.57,54,325.74,54L302.46,68.7l12.11,1.69L289.31,80.84l10.23,2.82L280.3,96.72l9.22,1.69-9.07,14.18-11.76,6.82,5.89-.3L262.3,135.22Q260.25,138.31,258.2,141.42Zm3.16,7.74c29.87-42.66,82.17-61,121.36-30l-31-3.31,9.55,10-29.74-8.52c2.35,3.24,4.72,6.47,7.08,9.71l-26.23-2,7,8q-9,3.1-18,6.18L286.14,137l5.42,3.88-22.19,5.63Zm1.58,10.38c48-20.31,102-8.07,118.76,39l-24.5-19.25c.92,4.52,1.84,9,2.77,13.56q-10.35-11.5-20.69-23,.44,6,.86,12Q329.54,174,319,166.24q.84,5.23,1.69,10.48l-18.55-4.33-11.72-10c.84,2.05,1.69,4.11,2.54,6.16l-21.8-7Zm-2.26,4c54.11,15.87,87.28,64.41,63.3,117.2q-2.09-17-4.19-34c-2.84,4.6-5.68,9.18-8.53,13.78l1.8-34.56L304.26,237l-4.47-28.43c-2.32,3.43-4.63,6.88-7,10.31q-5.64-8.37-11.28-16.76l-1.41-16.9-2.86,7.15L265.55,171Zm-11.15-14.27C256.07,108,232.27,69.75,186.46,68l23,14.16-12.7,1q12.69,5.2,25.37,10.38L211.27,95.7l18.9,12.49-9.7,1.15q4.14,6.57,8.28,13.11l11.66,6.6-6.09-.5q5.73,7.48,11.45,15Zm-8.66,4.66c-23.48-41.82-69.74-63.38-108.47-38.54l28.7-.21-9.67,8.31,28-5.09-7.37,8.25,24.21.59-7.12,6.67,15.93,7.31,14.16-.65c-1.78,1-3.55,2-5.32,3.06l19.83,7.18Zm1.66,8.64c-48.66-18.54-102.24-4.33-117.25,43.33l23.78-20.15q-1.14,6.83-2.27,13.66,9.9-11.88,19.83-23.74-.23,6-.41,12L186.8,171.3c-.43,3.5-.86,7-1.3,10.53l18.38-5,11.34-10.4c-.76,2.09-1.54,4.17-2.31,6.26q10.77-3.91,21.53-7.8Zm8.73,5.29C208.88,190.05,189.35,236,218.09,275.9Q217,261.43,215.92,247c3.14,3.34,6.26,6.68,9.4,10q-3.63-14.22-7.25-28.45l9.16,7.73q-.49-12.21-1-24.4l7.51,7.42,6.6-15.82-1.65-14.3c1.19,1.82,2.38,3.65,3.58,5.47l6.21-19.75C249.39,172.54,250.33,170.19,251.26,167.84ZM236.1,399.12c-25.2,3.85-37.54-4.32-43.37-18.57,61.85-70.43,65.83-128.63,64.44-211.6C285.71,243.81,271.55,316.67,236.1,399.12Z"/><path class="cls-6" d="M258.2,141.42C255.41,95.47,281.57,54,325.74,54L302.46,68.7l12.11,1.69L289.31,80.84l10.23,2.82L280.3,96.72l9.22,1.69-9.07,14.18-11.76,6.82,5.89-.3L262.3,135.22Q260.25,138.31,258.2,141.42Zm3.16,7.74c29.87-42.66,82.17-61,121.36-30l-31-3.31,9.55,10-29.74-8.52c2.35,3.24,4.72,6.47,7.08,9.71l-26.23-2,7,8q-9,3.1-18,6.18L286.14,137l5.42,3.88-22.19,5.63Zm1.58,10.38c48-20.31,102-8.07,118.76,39l-24.5-19.25c.92,4.52,1.84,9,2.77,13.56q-10.35-11.5-20.69-23,.44,6,.86,12Q329.54,174,319,166.24q.84,5.23,1.69,10.48l-18.55-4.33-11.72-10c.84,2.05,1.69,4.11,2.54,6.16l-21.8-7Zm-2.26,4c54.11,15.87,87.28,64.41,63.3,117.2q-2.09-17-4.19-34c-2.84,4.6-5.68,9.18-8.53,13.78l1.8-34.56L304.26,237l-4.47-28.43c-2.32,3.43-4.63,6.88-7,10.31q-5.64-8.37-11.28-16.76l-1.41-16.9-2.86,7.15L265.55,171Zm-11.15-14.27C256.07,108,232.27,69.75,186.46,68l23,14.16-12.7,1q12.69,5.2,25.37,10.38L211.27,95.7l18.9,12.49-9.7,1.15q4.14,6.57,8.28,13.11l11.66,6.6-6.09-.5q5.73,7.48,11.45,15Zm-8.66,4.66c-23.48-41.82-69.74-63.38-108.47-38.54l28.7-.21-9.67,8.31,28-5.09-7.37,8.25,24.21.59-7.12,6.67,15.93,7.31,14.16-.65c-1.78,1-3.55,2-5.32,3.06l19.83,7.18Zm1.66,8.64c-48.66-18.54-102.24-4.33-117.25,43.33l23.78-20.15q-1.14,6.83-2.27,13.66,9.9-11.88,19.83-23.74-.23,6-.41,12L186.8,171.3c-.43,3.5-.86,7-1.3,10.53l18.38-5,11.34-10.4c-.76,2.09-1.54,4.17-2.31,6.26q10.77-3.91,21.53-7.8Zm8.73,5.29C208.88,190.05,189.35,236,218.09,275.9Q217,261.43,215.92,247c3.14,3.34,6.26,6.68,9.4,10q-3.63-14.22-7.25-28.45l9.16,7.73q-.49-12.21-1-24.4l7.51,7.42,6.6-15.82-1.65-14.3c1.19,1.82,2.38,3.65,3.58,5.47l6.21-19.75C249.39,172.54,250.33,170.19,251.26,167.84ZM236.1,399.12c-25.2,3.85-37.54-4.32-43.37-18.57,61.85-70.43,65.83-128.63,64.44-211.6C285.71,243.81,271.55,316.67,236.1,399.12Z"/></g><path class="cls-2" d="M257.24,160.84c-2.15-35.53,18.07-67.57,52.22-67.62l-18,11.4,9.37,1.3L281.3,114l7.91,2.19-14.87,10.09,7.13,1.31-7,11-9.1,5.28,4.55-.24L260.41,156Q258.84,158.44,257.24,160.84Zm2.45,6c23.09-33,63.53-47.15,93.82-23.18l-23.95-2.56,7.38,7.74-23-6.58,5.47,7.5-20.28-1.52,5.4,6.17-13.92,4.78-11.77-1.72,4.19,3-17.16,4.36Zm1.22,8c37.08-15.7,78.87-6.24,91.82,30.15l-19-14.88q1.08,5.24,2.15,10.48l-16-17.78.66,9.26L304.22,180q.64,4,1.3,8.1l-14.34-3.35-9.06-7.71,2,4.77-16.85-5.42Zm-1.75,3.08c41.84,12.27,67.48,49.79,48.94,90.61q-1.62-13.12-3.23-26.26l-6.6,10.65q.69-13.35,1.39-26.71l-6.81,8.54-3.45-22-5.37,8-8.73-13-1.08-13.07c-.74,1.85-1.48,3.69-2.21,5.54l-9.08-16.54Zm-8.62-11c5.06-31.86-13.34-61.46-48.75-62.84l17.75,11-9.82.81,19.62,8L221,125.49l14.61,9.66-7.49.89,6.39,10.13,9,5.1-4.7-.38,8.85,11.56Q249.08,164.67,250.54,166.89Zm-6.69,3.61c-18.15-32.34-53.92-49-83.87-29.8l22.19-.16L174.7,147,196.37,143l-5.7,6.37,18.72.46L203.88,155l12.32,5.65,11-.51L223,162.53l15.33,5.55Zm1.28,6.68c-37.62-14.34-79-3.35-90.65,33.49l18.39-15.57q-.88,5.28-1.76,10.55l15.33-18.35c-.11,3.09-.21,6.19-.32,9.28l15.93-12.64c-.34,2.71-.67,5.43-1,8.14l14.21-3.87,8.77-8q-.89,2.41-1.79,4.83l16.65-6Zm6.75,4.08c-32.77,17.18-47.86,52.67-25.64,83.55l-1.68-22.39,7.26,7.76q-2.79-11-5.6-22l7.08,6-.78-18.86,5.8,5.74,5.1-12.24q-.63-5.52-1.27-11.06l2.76,4.24q2.4-7.64,4.81-15.27ZM240.16,360.08c-19.48,3-29-3.35-33.53-14.36,47.82-54.45,50.9-99.45,49.82-163.6C278.51,240,267.57,296.33,240.16,360.08Z"/><path class="cls-6" d="M257.24,160.84c-2.15-35.53,18.07-67.57,52.22-67.62l-18,11.4,9.37,1.3L281.3,114l7.91,2.19-14.87,10.09,7.13,1.31-7,11-9.1,5.28,4.55-.24L260.41,156Q258.84,158.44,257.24,160.84Zm2.45,6c23.09-33,63.53-47.15,93.82-23.18l-23.95-2.56,7.38,7.74-23-6.58,5.47,7.5-20.28-1.52,5.4,6.17-13.92,4.78-11.77-1.72,4.19,3-17.16,4.36Zm1.22,8c37.08-15.7,78.87-6.24,91.82,30.15l-19-14.88q1.08,5.24,2.15,10.48l-16-17.78.66,9.26L304.22,180q.64,4,1.3,8.1l-14.34-3.35-9.06-7.71,2,4.77-16.85-5.42Zm-1.75,3.08c41.84,12.27,67.48,49.79,48.94,90.61q-1.62-13.12-3.23-26.26l-6.6,10.65q.69-13.35,1.39-26.71l-6.81,8.54-3.45-22-5.37,8-8.73-13-1.08-13.07c-.74,1.85-1.48,3.69-2.21,5.54l-9.08-16.54Zm-8.62-11c5.06-31.86-13.34-61.46-48.75-62.84l17.75,11-9.82.81,19.62,8L221,125.49l14.61,9.66-7.49.89,6.39,10.13,9,5.1-4.7-.38,8.85,11.56Q249.08,164.67,250.54,166.89Zm-6.69,3.61c-18.15-32.34-53.92-49-83.87-29.8l22.19-.16L174.7,147,196.37,143l-5.7,6.37,18.72.46L203.88,155l12.32,5.65,11-.51L223,162.53l15.33,5.55Zm1.28,6.68c-37.62-14.34-79-3.35-90.65,33.49l18.39-15.57q-.88,5.28-1.76,10.55l15.33-18.35c-.11,3.09-.21,6.19-.32,9.28l15.93-12.64c-.34,2.71-.67,5.43-1,8.14l14.21-3.87,8.77-8q-.89,2.41-1.79,4.83l16.65-6Zm6.75,4.08c-32.77,17.18-47.86,52.67-25.64,83.55l-1.68-22.39,7.26,7.76q-2.79-11-5.6-22l7.08,6-.78-18.86,5.8,5.74,5.1-12.24q-.63-5.52-1.27-11.06l2.76,4.24q2.4-7.64,4.81-15.27ZM240.16,360.08c-19.48,3-29-3.35-33.53-14.36,47.82-54.45,50.9-99.45,49.82-163.6C278.51,240,267.57,296.33,240.16,360.08Z"/><path class="cls-7" d="M251.34,476.29a5.29,5.29,0,0,0,1.3-.55,5.32,5.32,0,0,0,1.31.55V475c8.95-5.36,35.93-25.58,41.1-29.06,2.05-1.38,4.19-2.89,6.18-4.39,11.87-8.92,24.44-17.39,36.55-26.81l12.52-9.16c.33-1.28.13-.42,1.55-1.55l11.23-8.69.2-.22,1.48-1.45c1.57-2,7.41-7,9.65-9.32,3.3-3.36,6.09-6.57,9.39-10.11,6.41-6.87,10.2-13.74,14.43-21.72.17-.31.28-.53.47-.82a3.15,3.15,0,0,1,.63-.78A180.35,180.35,0,0,0,411,291c.76-47.83.64-95.49.64-143.4,0-8.39.48-64.54-.05-71.28l0-20.55a85.28,85.28,0,0,1-8.64-3.66c-3-1.37-5.69-2.55-8.48-3.67-5.91-2.39-11.66-4.25-17.76-6.66-8.44-3.34-28.42-8.64-37.83-10.87-19.54-4.62-43.09-8.48-63.9-9.32-6.79-.28-15-1.23-22.27-.77-7.24-.46-15.47.49-22.26.77-20.82.84-44.36,4.7-63.9,9.32-9.42,2.23-29.4,7.53-37.84,10.87-6.1,2.41-11.85,4.27-17.76,6.66-2.78,1.12-5.46,2.3-8.47,3.67a86.39,86.39,0,0,1-8.65,3.66l0,20.55c-.53,6.74-.06,62.89-.06,71.28,0,47.91-.11,95.57.65,143.4a179.76,179.76,0,0,0,11.64,60,3.16,3.16,0,0,1,.62.78,8.28,8.28,0,0,1,.47.82c4.23,8,8,14.85,14.44,21.72,3.3,3.54,6.08,6.75,9.38,10.11,2.24,2.28,8.08,7.29,9.65,9.32l1.49,1.45.19.22L153.44,404c1.42,1.13,1.21.27,1.55,1.55l12.51,9.16c12.12,9.42,24.68,17.89,36.55,26.81,2,1.5,4.14,3,6.18,4.39,5.17,3.48,32.16,23.7,41.11,29.06Z"/><g class="cls-8"><path class="cls-2" d="M356.75,138.1s5.78,5,10.68,10a65.38,65.38,0,0,1,4.93,5.92c1.75,2.4,2.33,2.67,2.21,2.7-.34.1-1.51-1.57-3.55-3.27-1.53-1.27-4.11-2.78-6.17-5.12A124.06,124.06,0,0,1,356.75,138.1Zm35.56,20a77,77,0,0,1-9.36,8.32,46.33,46.33,0,0,0-5.32,6.1c-.62.82-1.13,1.87-1.44,2.16-2,1.8-2.32,2.12-2.25,2.2s4-3.58,6-4.67c.61-.33,2.72-2.79,4.86-4.52C387.46,165.47,392.31,158.06,392.31,158.06Zm2.58,14.31s-6.72,4.36-11.87,7.2c-1.64.91-7.45,6.34-8.7,7.29-2.06,1.58-3.24,2.11-3.25,2.24,0,.33,1.15-.51,2.43-1,1-.39,6.69-4.38,10.94-7A63,63,0,0,0,394.89,172.37Zm-55,20.77A65.25,65.25,0,0,1,352,203c1.49,1.65,5.67,5.45,6.73,6.89,1.76,2.4,2.93,3.45,2.87,3.56-.14.3-1.12-1-2.46-2.09-.58-.47-1.29-.83-1.92-1.33-1.54-1.26-6.18-4.71-8.26-7C344.18,197.7,339.93,193.14,339.93,193.14ZM360.2,89.87c.2,0,2.58,5.06,5.77,11.3a50.31,50.31,0,0,1,2.31,6.15c.45,1.17.88,2.23,1.24,3.09a42.75,42.75,0,0,0-1.15-5.44c-.25-.76-.5-1.5-.74-2.21-.66-2-2-4.13-2.51-5.74-3.53-11-2.84-12.44-2.77-12.45s1.91,3.14,4.77,13c.42,1.43.39,3.27.89,5,.23.76.46,1.56.69,2.38.48,1.61.88,3.49,1.34,5.45a19.55,19.55,0,0,0-.14-5c-.32-1.65-1.14-2.88-1.36-5.22A96.51,96.51,0,0,1,368,87.67c.13-.1,1.05,3.56,1.65,9.92.26,2.72.61,6.53.75,8.32a24.6,24.6,0,0,1-.23,5c.21.86.44,1.73.7,2.61a33.56,33.56,0,0,0,.14-4.62,58.36,58.36,0,0,1-.11-6.11c.28-6.39.58-11.62.72-11.69s1.13,3.48.83,9.86c-.11,2.73-.9,6.73-1,8.53a36.93,36.93,0,0,1-.45,4.43,32.5,32.5,0,0,1,.77,3.47,32.7,32.7,0,0,0,1.08-4.54c.26-1.66.54-3.72,1.11-6,1.57-6.19,2.91-11.26,3.06-11.3s.4,3.64-1.16,9.83c-.67,2.65-2.24,6.41-2.71,8.15a37.22,37.22,0,0,1-1.31,4.21c.28,1.48.54,3,.81,4.17s.49,2.17.72,3.32c.13-.59.75-2.48,1.37-4.78a55.58,55.58,0,0,1,1.58-5.94,92.25,92.25,0,0,1,4.95-11.31c.15,0-.65,4.89-2.89,10.87-1,2.56-3,5.31-3.61,7-.83,2.09-1.12,4.07-1.37,4.33.32,1.63.6,3.36.87,5.15a27,27,0,0,0,1.65-3.1c.68-1.49,2.36-6,3.32-7.73,3-5.52,5.72-10.2,5.72-10.2a54.73,54.73,0,0,1-4.82,11.16c-1.34,2.3-3,5.46-3.92,7a24.08,24.08,0,0,1-1.93,3.07q.4,2.76.71,5.69c.38-.74,1.18-2.18,2-3.86.7-1.46,2.47-5.53,3.54-7.14,3.37-5.07,5.73-8.64,5.73-8.64a59,59,0,0,1-5,11.21,31.88,31.88,0,0,1-3.79,4.92,37.39,37.39,0,0,0-2.47,3.8c.23,2.16.42,4.36.57,6.58.39-.76,1.09-2.07,1.8-3.61a77.26,77.26,0,0,1,3.62-7.22c3.23-4.92,5.78-8.49,5.78-8.49a79.12,79.12,0,0,1-5.2,11.31A28.49,28.49,0,0,1,378,140a29,29,0,0,0-2.31,3.6c.09,1.33.16,2.66.23,4s.11,2.34.15,3.46a15.7,15.7,0,0,0,1.28-2.59c.61-1.44,3-6.66,3.93-8.26,3-5,7.88-12.24,7.88-12.24a44.37,44.37,0,0,1-2.23,5.84c-1.28,2.86-3.33,6.5-4.62,8.9a31.38,31.38,0,0,1-4,5.17c-1.29,1.65-1.95,3.26-2.24,3.3.05,1.68.09,3.3.09,4.91a22.2,22.2,0,0,0,2-2.54c.95-1.42,4.51-7.2,5.91-8.69,4-4.29,8-8.78,8-8.78s-.81,2.5-4.62,7.95c-2.87,4.1-9.53,11.14-11.34,12.38,0,1.64,0,3.25-.13,4.88a22.93,22.93,0,0,0,3.28-3.78,35.4,35.4,0,0,1,4.55-4.8c4.64-4.49,9.67-8.57,9.67-8.57s-4.62,6.38-6.5,8.37c-3.34,3.55-6.37,4.94-7.64,6.23a23.94,23.94,0,0,1-3.38,2.9c-.12,2.29-.33,4.61-.65,7.07a13.52,13.52,0,0,0,3.06-3.12,72.9,72.9,0,0,1,7.64-8c5-4.22,7.34-6.34,7.34-6.34a54.76,54.76,0,0,1-8.64,10.14c-2.18,1.94-5.64,4.95-5.64,4.95-1.23.82-3,2.16-3.8,2.58a129.92,129.92,0,0,1-2.48,13,15.06,15.06,0,0,0,3.44-2c1.24-1,6.39-6.48,8-7.38,5.15-2.84,12-7.71,12-7.71s-5.76,6.68-10.94,9.86c-2.26,1.39-6,4.08-7.53,4.67-2,.79-4.61,3-5,2.55-.94,3.92-2.12,8.76-3.44,13.84a33.86,33.86,0,0,0,3-2c1.25-.94,5.22-4.78,6.87-5.69,5.14-2.84,14.42-7.87,14.42-7.87a131.58,131.58,0,0,1-12.16,9,50,50,0,0,1-6.15,3.49c-.61.25-3.22,2.08-3.79,2.3-1,.36-1.84.93-2.23,1.08-.47,1.79-.95,3.61-1.44,5.43.55-.35,1.29-.84,2.21-1.55,1.25-1,5.56-3.39,7.19-4.37,5.35-3.25,14.93-8.08,14.93-8.08a135.33,135.33,0,0,1-12,8.79,86.19,86.19,0,0,1-9.13,4.33c-.61.25-1.22.32-1.79.54a12.41,12.41,0,0,0-1.5.72c-.5,1.83-1,3.66-1.53,5.46a19,19,0,0,0,2.81-1.7c1.25-1,5.39-3,7-3.93,5.35-3.25,13.62-6,13.62-6s-6,4-11.2,7.12c-2.27,1.39-8.33,3.19-9.83,3.79-.61.24-1.22.31-1.78.53-.23.09-.45.18-.67.29-.41,1.43-.82,2.84-1.24,4.21.31-.22.66-.47,1-.75a27.12,27.12,0,0,1,4.89-2.36c6.1-2.67,19.27-6.41,19.27-6.41a81.34,81.34,0,0,1-13.19,6.75c-2.37.9-5,1.38-10,2.7a16.21,16.21,0,0,0-1.79.53l-.38.16c-.53,1.73-1.05,3.39-1.57,5,2.54-1.3,7.1-3.13,7.74-3.4,5.28-2.26,18.49-5.41,18.49-5.41a69.3,69.3,0,0,1-12.51,5.64c-2.39.78-9.68,2.17-11.18,2.76-.61.24-1.22.32-1.79.54-.32.12-.64.27-.93.41-.27.81-.54,1.59-.8,2.33-.32.89-.62,1.78-.92,2.66,1.74-.69,4.38-1.25,4.73-1.48,4.42-2.73,22.05-6.45,22.05-6.45s-5.72,2.92-11.22,5c-4,1.49-10.67,1.5-14.64,3-.38.15-.76.34-1.1.51-.33,1-.65,2.06-.94,3.09.89-.23,2-.42,2.83-.71a68.9,68.9,0,0,1,9.7-2.87,134.75,134.75,0,0,1,13.6-1.8,63.41,63.41,0,0,0-8.05,2.73c-2.56,1-6.5,1.54-9.08,2.08-1.4.3-4.69.31-6.06.44-.77.08-2.09.37-3.06.55-.49,1.7-.93,3.4-1.32,5.07,6-1.79,7.84-1.81,13.2-3.07,4.7-1.09,14-1.61,14-1.61a79.92,79.92,0,0,1-9.18,2.72,107.73,107.73,0,0,1-13.93,1.43,22.32,22.32,0,0,0-4.17.77q-.56,2.43-1,4.8l.12,0a9.79,9.79,0,0,0,2.84-.72c1.49-.78,3.77-1,5.63-1.42,4.7-1.09,13.47-1.4,13.47-1.4-4.39,1.31-12.15,3.71-16.51,3.35-1.12-.09-4.57.49-5.59.47-.26,1.48-.46,2.93-.62,4.34l.29-.08a15.09,15.09,0,0,0,2.68-.61,38.79,38.79,0,0,1,4.94-1.15c4.69-1.1,13.44-2.21,13.44-2.21-4.39,1.31-10.28,3.9-14.63,3.54-1.19-.1-5.84.77-6.74.69-.2,1.75-.31,3.43-.36,5l.14,0a14.07,14.07,0,0,0,2.68-.61,38.39,38.39,0,0,1,4.94-1.15c4.69-1.1,14.41-1.12,14.41-1.12-4.38,1.33-12.65,3.32-17,3-1.1-.08-4.17.29-5.17.23a41.28,41.28,0,0,0,.19,5.2c2.81,27.23-5.75,37-6.42,37-1.81,0,9.87-13.86,4.86-33.63a33,33,0,0,1-.76-9.67c-1.55-.65-4.33-2-5.51-2.42-5.47-1.76-8.94-4.91-13.63-8.2a62.06,62.06,0,0,1,11.35,5.31,59.86,59.86,0,0,1,5.44,3.39,15.17,15.17,0,0,0,2.37,1.49c.08-1.28.2-2.59.37-3.93-1.49-.6-4.5-2.11-5.75-2.51-5.45-1.77-8.92-4.92-13.62-8.2a62.39,62.39,0,0,1,11.35,5.31,64,64,0,0,1,5.45,3.39,16.3,16.3,0,0,0,2.62,1.63c.16-1.3.37-2.63.61-4-1.5-.66-4.95-2.54-6.25-3-5.46-1.77-8.57-4.49-13.26-7.77a41,41,0,0,1,10.5,4.56c2.06,1.29,4.72,2.56,6.16,4a12.72,12.72,0,0,0,2.9,1.88q.42-2.26.93-4.59c-.88-.41-3.62-2.42-5-2.87-2.5-.81-11-6.27-12.73-7.85a72.61,72.61,0,0,0-5.75-5A124.45,124.45,0,0,1,345,222.94c2.06,1.27,6.16,4.12,7.41,5.71a27.5,27.5,0,0,0,4,3.35l.22.19c.32-1.41.65-2.84,1-4.26-.67-.27-3.37-2.44-4.78-3.12a39.61,39.61,0,0,1-3.83-2.16,57,57,0,0,1-8.51-6.36c-5.28-4.82-5.56-5.44-5.56-5.44a83.58,83.58,0,0,1,11.85,7.47c1.89,1.52,5.21,3.82,6.46,5.41a33.91,33.91,0,0,0,4.05,3.79l.34.28q.6-2.4,1.25-4.82c-.15.29-1.8-1.78-3.24-2.69-4.28-2.69-9.09-5.17-12.6-9.11-4.77-5.31-7.12-7.71-7.12-7.71s8.38,5.33,12.88,9.47a50.37,50.37,0,0,1,5.15,5c1.91,2.41,5,4.92,4.93,5.06.29-1.1.67-2.46,1.14-4-.37-.2-1.22-1.24-2.3-2.1-4.08-3.27-8.81-6-12.33-9.92a70.6,70.6,0,0,1-6.79-8.58s9.54,6.95,13.58,11.53c1.58,1.78,3.69,4.57,4.58,5.42a36.67,36.67,0,0,1,3.32,3.44c.9-3.06,2.05-6.81,3.24-10.62a41.86,41.86,0,0,0-4.26-4c-1.39-1.05-7.61-5.59-9-7a115.37,115.37,0,0,1-8.27-10.49s4.46,4.24,9.07,8.18c3.42,2.9,8.23,7.34,10.31,10.75a23.7,23.7,0,0,0,2.18,2.43c.54-1.72,1.07-3.44,1.59-5.11-.33-.13-1.21-1.23-2.34-2.13-.59-.47-1.29-.82-1.91-1.34a84.34,84.34,0,0,1-7-6.92,79.9,79.9,0,0,1-8.17-11,156.41,156.41,0,0,1,11.73,11.33c1.5,1.65,3.83,5.05,4.9,6.49,1.46,2,2.53,3.07,2.81,3.44.71-2.28,1.39-4.48,2-6.43-.44-.41-1.16-1.2-2-1.89-.58-.47-1.29-.83-1.91-1.34a84.34,84.34,0,0,1-7-6.92,81.32,81.32,0,0,1-8.17-11,158.71,158.71,0,0,1,11.73,11.33c1.5,1.66,3.84,5.06,4.9,6.51s2,2.55,2.51,3.09c.87-2.81,1.57-5.11,1.93-6.45a21.94,21.94,0,0,0-1.65-1.54c-.58-.46-1.28-.82-1.91-1.33a83.08,83.08,0,0,1-7-6.93,80.21,80.21,0,0,1-8.17-11,156.59,156.59,0,0,1,11.74,11.34c1.49,1.65,3.83,5.05,4.89,6.5.89,1.22,1.64,2.09,2.15,2.67q.81-3,1.56-6.17a14.6,14.6,0,0,0-1.2-1.08c-.58-.47-1.28-.83-1.91-1.34-1.54-1.24-5.2-3.82-7.29-6.15l-9.72-10.88a164.87,164.87,0,0,1,13.88,11.88,56.68,56.68,0,0,1,4.63,5c.67.9,1.25,1.62,1.71,2.17.46-2,.9-4,1.31-6a23.71,23.71,0,0,0-1.77-1.65c-.59-.47-1.3-.83-1.92-1.33-1.54-1.26-5.2-3.83-7.29-6.16a98.14,98.14,0,0,1-7.46-9.3,140.72,140.72,0,0,1,11.62,10.3,56.94,56.94,0,0,1,4.63,5,35.84,35.84,0,0,0,2.26,2.79c.42-2.11.8-4.24,1.14-6.36-.81-.52-2-1.65-3.41-2.82s-5.67-4-7.75-6.35c-4.76-5.33-7.65-8.44-7.65-8.44a78.47,78.47,0,0,1,11.81,9.45,58.36,58.36,0,0,1,4.63,5,16.42,16.42,0,0,0,2.44,2.71c.29-1.88.55-3.74.75-5.59a38.77,38.77,0,0,0-3-2.95c-1.54-1.27-4.11-2.78-6.18-5.13-4.64-5.26-9-10.81-9-10.81s6.72,5.57,11.61,10.58a70.35,70.35,0,0,1,4.94,5.92,22.47,22.47,0,0,0,1.73,2.15,91.8,91.8,0,0,0,.61-12.8c-.47-.26-1.6-1.74-3.41-3.24-1.52-1.27-4.1-2.78-6.17-5.13a123.21,123.21,0,0,1-8.09-10.27s5.77,5,10.68,10a68.62,68.62,0,0,1,4.93,5.93,20.51,20.51,0,0,0,2.05,2.48,50.14,50.14,0,0,0-.52-5.83c-.1-.61-.18-1.28-.26-2a27.56,27.56,0,0,0-2.51-2.41c-1.53-1.27-4.11-2.78-6.18-5.13-4.64-5.26-5.92-7.62-5.92-7.62a58.41,58.41,0,0,1,8.51,7.39,68.62,68.62,0,0,1,4.93,5.93c.46.62.83,1.1,1.13,1.46-.17-1.75-.32-3.74-.45-5.78a38.17,38.17,0,0,0-2.86-2.77c-1.54-1.26-4.11-2.77-6.18-5.12-4.64-5.26-5.14-7.13-5.14-7.13a55.34,55.34,0,0,1,7.73,6.9,68.88,68.88,0,0,1,4.93,5.92c.66.9,1.15,1.5,1.5,1.89-.12-1.8-.24-3.64-.39-5.35a30.89,30.89,0,0,0-3.29-3.41,39.36,39.36,0,0,1-5.44-4.86c-4.64-5.26-5.21-8.08-5.21-8.08l6.57,6.75a61.11,61.11,0,0,1,4.74,5.82c1,1.35,1.95,2.55,2.59,3.34a42.22,42.22,0,0,0-.83-5.69,27.89,27.89,0,0,0-2.69-3.54,39.9,39.9,0,0,1-4.83-5.47c-4-5.77-4.21-8.64-4.21-8.64s1.46,1.92,5.73,7.48a63.94,63.94,0,0,1,4,6.35c.67,1.19,1.33,2.28,1.85,3.1-.21-1.1-.52-3-.83-4.93-.39-.59-1-1.51-1.76-2.73-1.1-1.65-2.22-3.68-3.84-6.2a28.4,28.4,0,0,1-4.38-10.74s2.49,3.83,6.07,9.85c1.15,1.94,1.75,5.34,2.55,7,.51,1,.94,1.77,1.28,2.33-.38-2.4-.76-4.7-.95-5.39s-.39-1.47-.53-2.21a24.79,24.79,0,0,0-1.4-3.22c-.92-1.75-2.54-3.91-3.9-6.58C361.18,95.1,360,89.82,360.2,89.87Z"/><path class="cls-9" d="M356.75,138.1s5.78,5,10.68,10a65.38,65.38,0,0,1,4.93,5.92c1.75,2.4,2.33,2.67,2.21,2.7-.34.1-1.51-1.57-3.55-3.27-1.53-1.27-4.11-2.78-6.17-5.12A124.06,124.06,0,0,1,356.75,138.1Zm35.56,20a77,77,0,0,1-9.36,8.32,46.33,46.33,0,0,0-5.32,6.1c-.62.82-1.13,1.87-1.44,2.16-2,1.8-2.32,2.12-2.25,2.2s4-3.58,6-4.67c.61-.33,2.72-2.79,4.86-4.52C387.46,165.47,392.31,158.06,392.31,158.06Zm2.58,14.31s-6.72,4.36-11.87,7.2c-1.64.91-7.45,6.34-8.7,7.29-2.06,1.58-3.24,2.11-3.25,2.24,0,.33,1.15-.51,2.43-1,1-.39,6.69-4.38,10.94-7A63,63,0,0,0,394.89,172.37Zm-55,20.77A65.25,65.25,0,0,1,352,203c1.49,1.65,5.67,5.45,6.73,6.89,1.76,2.4,2.93,3.45,2.87,3.56-.14.3-1.12-1-2.46-2.09-.58-.47-1.29-.83-1.92-1.33-1.54-1.26-6.18-4.71-8.26-7C344.18,197.7,339.93,193.14,339.93,193.14ZM360.2,89.87c.2,0,2.58,5.06,5.77,11.3a50.31,50.31,0,0,1,2.31,6.15c.45,1.17.88,2.23,1.24,3.09a42.75,42.75,0,0,0-1.15-5.44c-.25-.76-.5-1.5-.74-2.21-.66-2-2-4.13-2.51-5.74-3.53-11-2.84-12.44-2.77-12.45s1.91,3.14,4.77,13c.42,1.43.39,3.27.89,5,.23.76.46,1.56.69,2.38.48,1.61.88,3.49,1.34,5.45a19.55,19.55,0,0,0-.14-5c-.32-1.65-1.14-2.88-1.36-5.22A96.51,96.51,0,0,1,368,87.67c.13-.1,1.05,3.56,1.65,9.92.26,2.72.61,6.53.75,8.32a24.6,24.6,0,0,1-.23,5c.21.86.44,1.73.7,2.61a33.56,33.56,0,0,0,.14-4.62,58.36,58.36,0,0,1-.11-6.11c.28-6.39.58-11.62.72-11.69s1.13,3.48.83,9.86c-.11,2.73-.9,6.73-1,8.53a36.93,36.93,0,0,1-.45,4.43,32.5,32.5,0,0,1,.77,3.47,32.7,32.7,0,0,0,1.08-4.54c.26-1.66.54-3.72,1.11-6,1.57-6.19,2.91-11.26,3.06-11.3s.4,3.64-1.16,9.83c-.67,2.65-2.24,6.41-2.71,8.15a37.22,37.22,0,0,1-1.31,4.21c.28,1.48.54,3,.81,4.17s.49,2.17.72,3.32c.13-.59.75-2.48,1.37-4.78a55.58,55.58,0,0,1,1.58-5.94,92.25,92.25,0,0,1,4.95-11.31c.15,0-.65,4.89-2.89,10.87-1,2.56-3,5.31-3.61,7-.83,2.09-1.12,4.07-1.37,4.33.32,1.63.6,3.36.87,5.15a27,27,0,0,0,1.65-3.1c.68-1.49,2.36-6,3.32-7.73,3-5.52,5.72-10.2,5.72-10.2a54.73,54.73,0,0,1-4.82,11.16c-1.34,2.3-3,5.46-3.92,7a24.08,24.08,0,0,1-1.93,3.07q.4,2.76.71,5.69c.38-.74,1.18-2.18,2-3.86.7-1.46,2.47-5.53,3.54-7.14,3.37-5.07,5.73-8.64,5.73-8.64a59,59,0,0,1-5,11.21,31.88,31.88,0,0,1-3.79,4.92,37.39,37.39,0,0,0-2.47,3.8c.23,2.16.42,4.36.57,6.58.39-.76,1.09-2.07,1.8-3.61a77.26,77.26,0,0,1,3.62-7.22c3.23-4.92,5.78-8.49,5.78-8.49a79.12,79.12,0,0,1-5.2,11.31A28.49,28.49,0,0,1,378,140a29,29,0,0,0-2.31,3.6c.09,1.33.16,2.66.23,4s.11,2.34.15,3.46a15.7,15.7,0,0,0,1.28-2.59c.61-1.44,3-6.66,3.93-8.26,3-5,7.88-12.24,7.88-12.24a44.37,44.37,0,0,1-2.23,5.84c-1.28,2.86-3.33,6.5-4.62,8.9a31.38,31.38,0,0,1-4,5.17c-1.29,1.65-1.95,3.26-2.24,3.3.05,1.68.09,3.3.09,4.91a22.2,22.2,0,0,0,2-2.54c.95-1.42,4.51-7.2,5.91-8.69,4-4.29,8-8.78,8-8.78s-.81,2.5-4.62,7.95c-2.87,4.1-9.53,11.14-11.34,12.38,0,1.64,0,3.25-.13,4.88a22.93,22.93,0,0,0,3.28-3.78,35.4,35.4,0,0,1,4.55-4.8c4.64-4.49,9.67-8.57,9.67-8.57s-4.62,6.38-6.5,8.37c-3.34,3.55-6.37,4.94-7.64,6.23a23.94,23.94,0,0,1-3.38,2.9c-.12,2.29-.33,4.61-.65,7.07a13.52,13.52,0,0,0,3.06-3.12,72.9,72.9,0,0,1,7.64-8c5-4.22,7.34-6.34,7.34-6.34a54.76,54.76,0,0,1-8.64,10.14c-2.18,1.94-5.64,4.95-5.64,4.95-1.23.82-3,2.16-3.8,2.58a129.92,129.92,0,0,1-2.48,13,15.06,15.06,0,0,0,3.44-2c1.24-1,6.39-6.48,8-7.38,5.15-2.84,12-7.71,12-7.71s-5.76,6.68-10.94,9.86c-2.26,1.39-6,4.08-7.53,4.67-2,.79-4.61,3-5,2.55-.94,3.92-2.12,8.76-3.44,13.84a33.86,33.86,0,0,0,3-2c1.25-.94,5.22-4.78,6.87-5.69,5.14-2.84,14.42-7.87,14.42-7.87a131.58,131.58,0,0,1-12.16,9,50,50,0,0,1-6.15,3.49c-.61.25-3.22,2.08-3.79,2.3-1,.36-1.84.93-2.23,1.08-.47,1.79-.95,3.61-1.44,5.43.55-.35,1.29-.84,2.21-1.55,1.25-1,5.56-3.39,7.19-4.37,5.35-3.25,14.93-8.08,14.93-8.08a135.33,135.33,0,0,1-12,8.79,86.19,86.19,0,0,1-9.13,4.33c-.61.25-1.22.32-1.79.54a12.41,12.41,0,0,0-1.5.72c-.5,1.83-1,3.66-1.53,5.46a19,19,0,0,0,2.81-1.7c1.25-1,5.39-3,7-3.93,5.35-3.25,13.62-6,13.62-6s-6,4-11.2,7.12c-2.27,1.39-8.33,3.19-9.83,3.79-.61.24-1.22.31-1.78.53-.23.09-.45.18-.67.29-.41,1.43-.82,2.84-1.24,4.21.31-.22.66-.47,1-.75a27.12,27.12,0,0,1,4.89-2.36c6.1-2.67,19.27-6.41,19.27-6.41a81.34,81.34,0,0,1-13.19,6.75c-2.37.9-5,1.38-10,2.7a16.21,16.21,0,0,0-1.79.53l-.38.16c-.53,1.73-1.05,3.39-1.57,5,2.54-1.3,7.1-3.13,7.74-3.4,5.28-2.26,18.49-5.41,18.49-5.41a69.3,69.3,0,0,1-12.51,5.64c-2.39.78-9.68,2.17-11.18,2.76-.61.24-1.22.32-1.79.54-.32.12-.64.27-.93.41-.27.81-.54,1.59-.8,2.33-.32.89-.62,1.78-.92,2.66,1.74-.69,4.38-1.25,4.73-1.48,4.42-2.73,22.05-6.45,22.05-6.45s-5.72,2.92-11.22,5c-4,1.49-10.67,1.5-14.64,3-.38.15-.76.34-1.1.51-.33,1-.65,2.06-.94,3.09.89-.23,2-.42,2.83-.71a68.9,68.9,0,0,1,9.7-2.87,134.75,134.75,0,0,1,13.6-1.8,63.41,63.41,0,0,0-8.05,2.73c-2.56,1-6.5,1.54-9.08,2.08-1.4.3-4.69.31-6.06.44-.77.08-2.09.37-3.06.55-.49,1.7-.93,3.4-1.32,5.07,6-1.79,7.84-1.81,13.2-3.07,4.7-1.09,14-1.61,14-1.61a79.92,79.92,0,0,1-9.18,2.72,107.73,107.73,0,0,1-13.93,1.43,22.32,22.32,0,0,0-4.17.77q-.56,2.43-1,4.8l.12,0a9.79,9.79,0,0,0,2.84-.72c1.49-.78,3.77-1,5.63-1.42,4.7-1.09,13.47-1.4,13.47-1.4-4.39,1.31-12.15,3.71-16.51,3.35-1.12-.09-4.57.49-5.59.47-.26,1.48-.46,2.93-.62,4.34l.29-.08a15.09,15.09,0,0,0,2.68-.61,38.79,38.79,0,0,1,4.94-1.15c4.69-1.1,13.44-2.21,13.44-2.21-4.39,1.31-10.28,3.9-14.63,3.54-1.19-.1-5.84.77-6.74.69-.2,1.75-.31,3.43-.36,5l.14,0a14.07,14.07,0,0,0,2.68-.61,38.39,38.39,0,0,1,4.94-1.15c4.69-1.1,14.41-1.12,14.41-1.12-4.38,1.33-12.65,3.32-17,3-1.1-.08-4.17.29-5.17.23a41.28,41.28,0,0,0,.19,5.2c2.81,27.23-5.75,37-6.42,37-1.81,0,9.87-13.86,4.86-33.63a33,33,0,0,1-.76-9.67c-1.55-.65-4.33-2-5.51-2.42-5.47-1.76-8.94-4.91-13.63-8.2a62.06,62.06,0,0,1,11.35,5.31,59.86,59.86,0,0,1,5.44,3.39,15.17,15.17,0,0,0,2.37,1.49c.08-1.28.2-2.59.37-3.93-1.49-.6-4.5-2.11-5.75-2.51-5.45-1.77-8.92-4.92-13.62-8.2a62.39,62.39,0,0,1,11.35,5.31,64,64,0,0,1,5.45,3.39,16.3,16.3,0,0,0,2.62,1.63c.16-1.3.37-2.63.61-4-1.5-.66-4.95-2.54-6.25-3-5.46-1.77-8.57-4.49-13.26-7.77a41,41,0,0,1,10.5,4.56c2.06,1.29,4.72,2.56,6.16,4a12.72,12.72,0,0,0,2.9,1.88q.42-2.26.93-4.59c-.88-.41-3.62-2.42-5-2.87-2.5-.81-11-6.27-12.73-7.85a72.61,72.61,0,0,0-5.75-5A124.45,124.45,0,0,1,345,222.94c2.06,1.27,6.16,4.12,7.41,5.71a27.5,27.5,0,0,0,4,3.35l.22.19c.32-1.41.65-2.84,1-4.26-.67-.27-3.37-2.44-4.78-3.12a39.61,39.61,0,0,1-3.83-2.16,57,57,0,0,1-8.51-6.36c-5.28-4.82-5.56-5.44-5.56-5.44a83.58,83.58,0,0,1,11.85,7.47c1.89,1.52,5.21,3.82,6.46,5.41a33.91,33.91,0,0,0,4.05,3.79l.34.28q.6-2.4,1.25-4.82c-.15.29-1.8-1.78-3.24-2.69-4.28-2.69-9.09-5.17-12.6-9.11-4.77-5.31-7.12-7.71-7.12-7.71s8.38,5.33,12.88,9.47a50.37,50.37,0,0,1,5.15,5c1.91,2.41,5,4.92,4.93,5.06.29-1.1.67-2.46,1.14-4-.37-.2-1.22-1.24-2.3-2.1-4.08-3.27-8.81-6-12.33-9.92a70.6,70.6,0,0,1-6.79-8.58s9.54,6.95,13.58,11.53c1.58,1.78,3.69,4.57,4.58,5.42a36.67,36.67,0,0,1,3.32,3.44c.9-3.06,2.05-6.81,3.24-10.62a41.86,41.86,0,0,0-4.26-4c-1.39-1.05-7.61-5.59-9-7a115.37,115.37,0,0,1-8.27-10.49s4.46,4.24,9.07,8.18c3.42,2.9,8.23,7.34,10.31,10.75a23.7,23.7,0,0,0,2.18,2.43c.54-1.72,1.07-3.44,1.59-5.11-.33-.13-1.21-1.23-2.34-2.13-.59-.47-1.29-.82-1.91-1.34a84.34,84.34,0,0,1-7-6.92,79.9,79.9,0,0,1-8.17-11,156.41,156.41,0,0,1,11.73,11.33c1.5,1.65,3.83,5.05,4.9,6.49,1.46,2,2.53,3.07,2.81,3.44.71-2.28,1.39-4.48,2-6.43-.44-.41-1.16-1.2-2-1.89-.58-.47-1.29-.83-1.91-1.34a84.34,84.34,0,0,1-7-6.92,81.32,81.32,0,0,1-8.17-11,158.71,158.71,0,0,1,11.73,11.33c1.5,1.66,3.84,5.06,4.9,6.51s2,2.55,2.51,3.09c.87-2.81,1.57-5.11,1.93-6.45a21.94,21.94,0,0,0-1.65-1.54c-.58-.46-1.28-.82-1.91-1.33a83.08,83.08,0,0,1-7-6.93,80.21,80.21,0,0,1-8.17-11,156.59,156.59,0,0,1,11.74,11.34c1.49,1.65,3.83,5.05,4.89,6.5.89,1.22,1.64,2.09,2.15,2.67q.81-3,1.56-6.17a14.6,14.6,0,0,0-1.2-1.08c-.58-.47-1.28-.83-1.91-1.34-1.54-1.24-5.2-3.82-7.29-6.15l-9.72-10.88a164.87,164.87,0,0,1,13.88,11.88,56.68,56.68,0,0,1,4.63,5c.67.9,1.25,1.62,1.71,2.17.46-2,.9-4,1.31-6a23.71,23.71,0,0,0-1.77-1.65c-.59-.47-1.3-.83-1.92-1.33-1.54-1.26-5.2-3.83-7.29-6.16a98.14,98.14,0,0,1-7.46-9.3,140.72,140.72,0,0,1,11.62,10.3,56.94,56.94,0,0,1,4.63,5,35.84,35.84,0,0,0,2.26,2.79c.42-2.11.8-4.24,1.14-6.36-.81-.52-2-1.65-3.41-2.82s-5.67-4-7.75-6.35c-4.76-5.33-7.65-8.44-7.65-8.44a78.47,78.47,0,0,1,11.81,9.45,58.36,58.36,0,0,1,4.63,5,16.42,16.42,0,0,0,2.44,2.71c.29-1.88.55-3.74.75-5.59a38.77,38.77,0,0,0-3-2.95c-1.54-1.27-4.11-2.78-6.18-5.13-4.64-5.26-9-10.81-9-10.81s6.72,5.57,11.61,10.58a70.35,70.35,0,0,1,4.94,5.92,22.47,22.47,0,0,0,1.73,2.15,91.8,91.8,0,0,0,.61-12.8c-.47-.26-1.6-1.74-3.41-3.24-1.52-1.27-4.1-2.78-6.17-5.13a123.21,123.21,0,0,1-8.09-10.27s5.77,5,10.68,10a68.62,68.62,0,0,1,4.93,5.93,20.51,20.51,0,0,0,2.05,2.48,50.14,50.14,0,0,0-.52-5.83c-.1-.61-.18-1.28-.26-2a27.56,27.56,0,0,0-2.51-2.41c-1.53-1.27-4.11-2.78-6.18-5.13-4.64-5.26-5.92-7.62-5.92-7.62a58.41,58.41,0,0,1,8.51,7.39,68.62,68.62,0,0,1,4.93,5.93c.46.62.83,1.1,1.13,1.46-.17-1.75-.32-3.74-.45-5.78a38.17,38.17,0,0,0-2.86-2.77c-1.54-1.26-4.11-2.77-6.18-5.12-4.64-5.26-5.14-7.13-5.14-7.13a55.34,55.34,0,0,1,7.73,6.9,68.88,68.88,0,0,1,4.93,5.92c.66.9,1.15,1.5,1.5,1.89-.12-1.8-.24-3.64-.39-5.35a30.89,30.89,0,0,0-3.29-3.41,39.36,39.36,0,0,1-5.44-4.86c-4.64-5.26-5.21-8.08-5.21-8.08l6.57,6.75a61.11,61.11,0,0,1,4.74,5.82c1,1.35,1.95,2.55,2.59,3.34a42.22,42.22,0,0,0-.83-5.69,27.89,27.89,0,0,0-2.69-3.54,39.9,39.9,0,0,1-4.83-5.47c-4-5.77-4.21-8.64-4.21-8.64s1.46,1.92,5.73,7.48a63.94,63.94,0,0,1,4,6.35c.67,1.19,1.33,2.28,1.85,3.1-.21-1.1-.52-3-.83-4.93-.39-.59-1-1.51-1.76-2.73-1.1-1.65-2.22-3.68-3.84-6.2a28.4,28.4,0,0,1-4.38-10.74s2.49,3.83,6.07,9.85c1.15,1.94,1.75,5.34,2.55,7,.51,1,.94,1.77,1.28,2.33-.38-2.4-.76-4.7-.95-5.39s-.39-1.47-.53-2.21a24.79,24.79,0,0,0-1.4-3.22c-.92-1.75-2.54-3.91-3.9-6.58C361.18,95.1,360,89.82,360.2,89.87Z"/><path class="cls-2" d="M139.43,139.25s-5.78,5-10.68,10a70.35,70.35,0,0,0-4.94,5.92c-1.75,2.41-2.32,2.67-2.2,2.71.34.1,1.51-1.58,3.55-3.27,1.53-1.27,4.1-2.78,6.17-5.13A124.06,124.06,0,0,0,139.43,139.25Zm-35.56,20a78.31,78.31,0,0,0,9.35,8.32,44.89,44.89,0,0,1,5.32,6.1c.63.81,1.14,1.87,1.44,2.15,2,1.81,2.33,2.12,2.26,2.2s-4-3.57-6-4.66c-.61-.34-2.72-2.8-4.86-4.53C108.72,166.62,103.87,159.22,103.87,159.22Zm-2.58,14.3s6.72,4.37,11.87,7.21c1.64.91,7.45,6.33,8.7,7.29,2.06,1.57,3.24,2.11,3.25,2.23,0,.33-1.15-.51-2.43-1-1-.39-6.69-4.37-10.94-7A62.51,62.51,0,0,1,101.29,173.52Zm55,20.77a65.47,65.47,0,0,0-12.05,9.9c-1.5,1.65-5.69,5.45-6.74,6.9-1.75,2.4-2.94,3.44-2.87,3.56.13.3,1.12-1,2.46-2.09.58-.47,1.28-.83,1.91-1.34,1.54-1.25,6.19-4.71,8.27-7C152,198.85,156.25,194.29,156.25,194.29ZM136,91c-.2,0-2.58,5.07-5.77,11.31a50.56,50.56,0,0,0-2.32,6.15c-.44,1.16-.88,2.22-1.24,3.08a43,43,0,0,1,1.16-5.44l.73-2.2c.67-2,2-4.14,2.52-5.74,3.53-11,2.83-12.44,2.77-12.46s-1.91,3.15-4.77,13c-.42,1.43-.39,3.27-.89,5-.22.76-.46,1.55-.69,2.37-.48,1.61-.88,3.5-1.34,5.46a19.55,19.55,0,0,1,.14-5c.32-1.65,1.14-2.88,1.36-5.23a96.37,96.37,0,0,0,.53-12.48c-.13-.1-1,3.56-1.65,9.91-.26,2.72-.61,6.53-.75,8.32a24.66,24.66,0,0,0,.22,5c-.2.86-.43,1.74-.69,2.61a33.49,33.49,0,0,1-.14-4.62c.08-1.68.22-3.76.11-6.11-.28-6.38-.58-11.61-.72-11.69s-1.13,3.48-.83,9.87c.11,2.72.9,6.73,1,8.52a36.69,36.69,0,0,0,.45,4.43,34.92,34.92,0,0,0-.78,3.47,34.7,34.7,0,0,1-1.07-4.53c-.26-1.66-.54-3.73-1.11-6-1.57-6.19-2.91-11.26-3.06-11.3s-.4,3.64,1.16,9.84c.67,2.64,2.24,6.41,2.71,8.14a40.31,40.31,0,0,0,1.3,4.22c-.27,1.47-.53,3-.8,4.16s-.5,2.17-.72,3.32c-.14-.59-.75-2.48-1.37-4.77a58.18,58.18,0,0,0-1.58-6,93.08,93.08,0,0,0-5-11.31c-.15,0,.64,4.89,2.89,10.87,1,2.56,3,5.31,3.61,7,.83,2.1,1.12,4.07,1.37,4.33-.32,1.64-.6,3.36-.87,5.16a27.63,27.63,0,0,1-1.65-3.11c-.68-1.49-2.36-6-3.33-7.72-3-5.52-5.71-10.21-5.71-10.21A55,55,0,0,0,116,121.83c1.35,2.3,3,5.46,3.93,7a22.16,22.16,0,0,0,1.93,3.07q-.4,2.78-.71,5.69c-.38-.73-1.18-2.17-2-3.86-.7-1.46-2.47-5.53-3.54-7.14-3.37-5.07-5.73-8.64-5.73-8.64a59.21,59.21,0,0,0,5,11.22,32.22,32.22,0,0,0,3.79,4.91,37.28,37.28,0,0,1,2.47,3.81c-.23,2.15-.42,4.35-.57,6.57-.39-.75-1.09-2.07-1.8-3.61a79.79,79.79,0,0,0-3.62-7.22c-3.22-4.92-5.79-8.49-5.79-8.49a79.23,79.23,0,0,0,5.21,11.31,28.07,28.07,0,0,0,3.66,4.76,31.92,31.92,0,0,1,2.31,3.6c-.09,1.34-.16,2.66-.24,4s-.1,2.34-.14,3.47a15.7,15.7,0,0,1-1.28-2.59c-.61-1.45-3-6.67-3.93-8.27-3-5-7.88-12.24-7.88-12.24a45.45,45.45,0,0,0,2.22,5.85c1.29,2.85,3.34,6.49,4.62,8.9a30.79,30.79,0,0,0,4,5.16c1.29,1.66,2,3.27,2.24,3.3-.06,1.68-.09,3.3-.09,4.92a22.5,22.5,0,0,1-2-2.55c-1-1.42-4.52-7.2-5.92-8.68-4-4.29-8-8.79-8-8.79s.81,2.5,4.62,8c2.87,4.11,9.53,11.14,11.34,12.38,0,1.64,0,3.26.13,4.88a22.39,22.39,0,0,1-3.28-3.77,34.27,34.27,0,0,0-4.55-4.8c-4.64-4.49-9.67-8.58-9.67-8.58s4.62,6.39,6.5,8.37c3.34,3.55,6.37,5,7.64,6.24a23.77,23.77,0,0,0,3.38,2.89c.12,2.29.33,4.61.66,7.07a13.14,13.14,0,0,1-3.07-3.12,72.9,72.9,0,0,0-7.65-8c-5-4.22-7.33-6.35-7.33-6.35a54.82,54.82,0,0,0,8.63,10.15c2.19,1.93,5.65,4.95,5.65,4.95,1.23.81,3,2.15,3.8,2.57a127.79,127.79,0,0,0,2.48,13,15,15,0,0,1-3.43-2c-1.25-.95-6.4-6.48-8-7.38-5.15-2.84-12-7.7-12-7.7s5.76,6.68,10.94,9.86c2.26,1.38,6,4.07,7.53,4.67,2,.79,4.61,3,5,2.54.93,3.92,2.12,8.77,3.44,13.84a33.69,33.69,0,0,1-3-2c-1.25-.95-5.22-4.79-6.86-5.7-5.16-2.84-14.43-7.87-14.43-7.87a130.9,130.9,0,0,0,12.16,9,51.39,51.39,0,0,0,6.15,3.49c.61.24,3.22,2.07,3.79,2.29,1,.37,1.84.93,2.23,1.08.47,1.79.95,3.62,1.44,5.43-.55-.34-1.29-.84-2.22-1.54-1.25-1-5.56-3.4-7.18-4.38-5.35-3.24-14.94-8.08-14.94-8.08a136.15,136.15,0,0,0,12,8.79,88.51,88.51,0,0,0,9.13,4.34c.61.24,1.22.31,1.79.53a14.11,14.11,0,0,1,1.5.72c.5,1.84,1,3.67,1.53,5.46a17.45,17.45,0,0,1-2.82-1.7c-1.24-1-5.38-3-7-3.93-5.34-3.25-13.62-6-13.62-6s6,4,11.2,7.13c2.27,1.39,8.33,3.18,9.83,3.78.61.24,1.21.32,1.78.53.23.09.45.19.67.3.4,1.42.82,2.83,1.23,4.2l-1-.74a25.75,25.75,0,0,0-4.88-2.36c-6.11-2.68-19.28-6.41-19.28-6.41a82.59,82.59,0,0,0,13.2,6.75c2.37.89,5,1.37,10,2.69.62.17,1.22.32,1.79.53l.38.16c.52,1.73,1,3.39,1.57,4.95-2.54-1.3-7.11-3.13-7.74-3.4-5.28-2.25-18.49-5.4-18.49-5.4a69.4,69.4,0,0,0,12.5,5.64c2.4.77,9.69,2.16,11.19,2.76.61.23,1.22.31,1.79.53.32.12.64.28.93.42.27.81.53,1.59.8,2.33s.62,1.77.91,2.66c-1.73-.69-4.37-1.25-4.73-1.48-4.41-2.74-22-6.46-22-6.46s5.72,2.92,11.22,5c4,1.49,10.67,1.51,14.64,3a11.13,11.13,0,0,1,1.1.51c.33,1,.65,2.05.94,3.08-.89-.22-2-.42-2.83-.71a70.61,70.61,0,0,0-9.7-2.86,136.78,136.78,0,0,0-13.6-1.81,64.07,64.07,0,0,1,8,2.73c2.56,1,6.5,1.54,9.08,2.08,1.39.3,4.69.32,6,.45.78.07,2.09.36,3.07.55q.74,2.55,1.31,5.07c-6-1.79-7.83-1.81-13.2-3.08-4.69-1.09-14-1.61-14-1.61a77.48,77.48,0,0,0,9.18,2.72c1.8.43,11.93,1.6,13.92,1.43a23.27,23.27,0,0,1,4.18.77q.56,2.44,1,4.8l-.12,0a9.47,9.47,0,0,1-2.84-.72c-1.5-.77-3.77-1-5.64-1.42-4.69-1.09-13.46-1.4-13.46-1.4,4.38,1.32,12.15,3.72,16.51,3.35,1.12-.09,4.57.49,5.59.47.26,1.49.46,2.94.62,4.34l-.29-.07a15.11,15.11,0,0,1-2.68-.62,40.32,40.32,0,0,0-4.95-1.15c-4.69-1.09-13.43-2.21-13.43-2.21,4.38,1.32,10.28,3.9,14.62,3.54,1.2-.1,5.85.77,6.75.7.19,1.74.31,3.43.36,5l-.14,0a15.37,15.37,0,0,1-2.69-.62,40,40,0,0,0-4.93-1.15c-4.69-1.09-14.42-1.11-14.42-1.11,4.39,1.33,12.66,3.31,17,3,1.1-.09,4.17.29,5.17.23a41.35,41.35,0,0,1-.19,5.2c-2.81,27.22,5.75,37,6.42,37,1.81,0-9.87-13.85-4.86-33.62a33,33,0,0,0,.76-9.67c1.55-.66,4.33-2,5.51-2.43,5.47-1.76,8.93-4.91,13.63-8.19a61.65,61.65,0,0,0-11.35,5.3,63.91,63.91,0,0,0-5.45,3.4,14.52,14.52,0,0,1-2.36,1.48c-.08-1.28-.2-2.59-.37-3.92,1.48-.61,4.5-2.12,5.75-2.52,5.45-1.76,8.92-4.91,13.61-8.19a61.72,61.72,0,0,0-11.34,5.3,64,64,0,0,0-5.45,3.39,15.6,15.6,0,0,1-2.62,1.63c-.16-1.3-.37-2.63-.61-4,1.5-.65,4.95-2.54,6.25-3,5.46-1.76,8.57-4.49,13.26-7.77a41.3,41.3,0,0,0-10.5,4.57c-2.06,1.28-4.72,2.56-6.16,4a12.68,12.68,0,0,1-2.9,1.89c-.28-1.51-.59-3-.93-4.6.88-.41,3.62-2.41,5-2.87,2.5-.8,11-6.26,12.73-7.84a72.47,72.47,0,0,1,5.75-5.05,125.33,125.33,0,0,0-12,6.34c-2,1.28-6.15,4.13-7.4,5.71a28.85,28.85,0,0,1-4,3.36l-.23.19c-.31-1.42-.64-2.84-1-4.27.67-.26,3.36-2.44,4.78-3.11a41.85,41.85,0,0,0,3.83-2.16,57.54,57.54,0,0,0,8.51-6.37c5.28-4.82,5.56-5.43,5.56-5.43a83.58,83.58,0,0,0-11.85,7.47c-1.89,1.51-5.21,3.82-6.46,5.4a34.05,34.05,0,0,1-4.05,3.8l-.35.27c-.39-1.6-.81-3.21-1.24-4.82.14.3,1.79-1.77,3.25-2.69,4.27-2.68,9.08-5.17,12.6-9.1,4.76-5.32,7.11-7.71,7.11-7.71s-8.38,5.32-12.88,9.46a51.62,51.62,0,0,0-5.16,5c-1.91,2.41-5,4.93-4.92,5-.29-1.09-.67-2.46-1.14-4,.36-.21,1.22-1.25,2.3-2.1,4.08-3.28,8.81-6,12.33-9.92a71,71,0,0,0,6.79-8.59S148,206.47,144,211c-1.58,1.78-3.69,4.57-4.59,5.42a37.32,37.32,0,0,0-3.31,3.44c-.9-3.05-2-6.8-3.24-10.62a43.06,43.06,0,0,1,4.26-4c1.39-1.05,7.61-5.58,9-7a115.79,115.79,0,0,0,8.27-10.48S149.92,192,145.3,196c-3.41,2.9-8.22,7.35-10.3,10.76a24.71,24.71,0,0,1-2.18,2.43c-.53-1.72-1.07-3.44-1.6-5.12.34-.13,1.22-1.22,2.35-2.13.58-.47,1.29-.82,1.91-1.33a86.27,86.27,0,0,0,7-6.93,80.89,80.89,0,0,0,8.17-11,156.41,156.41,0,0,0-11.73,11.33c-1.5,1.66-3.84,5.06-4.9,6.5a43.58,43.58,0,0,1-2.81,3.43l-2-6.43c.44-.4,1.16-1.2,2-1.89.58-.47,1.29-.83,1.91-1.34a84,84,0,0,0,7-6.91,81.06,81.06,0,0,0,8.17-11.06,158.9,158.9,0,0,0-11.74,11.34c-1.49,1.65-3.83,5.06-4.89,6.5s-2,2.55-2.51,3.09c-.88-2.81-1.57-5.11-1.93-6.45a21.55,21.55,0,0,1,1.64-1.53c.59-.47,1.29-.82,1.92-1.34a82.78,82.78,0,0,0,7-6.92,80.89,80.89,0,0,0,8.17-11,155.6,155.6,0,0,0-11.74,11.33c-1.49,1.66-3.83,5-4.89,6.5a32.33,32.33,0,0,1-2.15,2.67c-.54-2-1.07-4.06-1.57-6.17.35-.34.76-.72,1.2-1.07.59-.47,1.29-.83,1.92-1.34,1.54-1.25,5.2-3.82,7.28-6.15l9.72-10.88a163.34,163.34,0,0,0-13.87,11.88,55.44,55.44,0,0,0-4.63,5c-.67.9-1.25,1.62-1.71,2.16q-.69-3-1.31-6c.44-.43,1.06-1.08,1.77-1.66s1.3-.83,1.92-1.33c1.54-1.25,5.2-3.83,7.29-6.16a98.14,98.14,0,0,0,7.46-9.3,143,143,0,0,0-11.63,10.31,59.79,59.79,0,0,0-4.62,5,34,34,0,0,1-2.26,2.79c-.42-2.11-.81-4.23-1.14-6.36.81-.52,2-1.65,3.41-2.81s5.67-4,7.75-6.35c4.77-5.33,7.65-8.45,7.65-8.45A78.47,78.47,0,0,0,129.89,163a56.94,56.94,0,0,0-4.63,5,17.17,17.17,0,0,1-2.44,2.7c-.29-1.87-.55-3.74-.76-5.59a41.38,41.38,0,0,1,3-2.95c1.54-1.26,4.11-2.78,6.18-5.12,4.64-5.26,9-10.81,9-10.81s-6.72,5.57-11.62,10.57a73.85,73.85,0,0,0-4.93,5.93,23.89,23.89,0,0,1-1.73,2.15,91.87,91.87,0,0,1-.61-12.81c.47-.25,1.6-1.73,3.41-3.24,1.52-1.26,4.1-2.77,6.17-5.12a125.15,125.15,0,0,0,8.09-10.27s-5.77,5-10.68,10a68.26,68.26,0,0,0-4.93,5.92,20.13,20.13,0,0,1-2,2.49A50.12,50.12,0,0,1,122,146c.09-.61.18-1.28.26-2a27.46,27.46,0,0,1,2.51-2.42c1.53-1.26,4.11-2.77,6.18-5.12,4.64-5.26,5.92-7.62,5.92-7.62a58.65,58.65,0,0,0-8.51,7.38,74.09,74.09,0,0,0-4.94,5.93c-.45.62-.82,1.1-1.12,1.47.17-1.75.32-3.75.45-5.78a34.54,34.54,0,0,1,2.86-2.77c1.53-1.27,4.11-2.78,6.18-5.13,4.64-5.26,5.14-7.12,5.14-7.12a55.57,55.57,0,0,0-7.73,6.89,65.72,65.72,0,0,0-4.93,5.93c-.66.89-1.15,1.49-1.5,1.89.12-1.81.24-3.64.39-5.36a31.8,31.8,0,0,1,3.29-3.41,40,40,0,0,0,5.44-4.86c4.64-5.25,5.21-8.08,5.21-8.08l-6.58,6.75a65.23,65.23,0,0,0-4.73,5.82c-1,1.36-1.95,2.56-2.59,3.35a43.81,43.81,0,0,1,.82-5.69,27.62,27.62,0,0,1,2.7-3.54,40.52,40.52,0,0,0,4.83-5.47c4-5.78,4.21-8.65,4.21-8.65s-1.46,1.93-5.73,7.49a63.87,63.87,0,0,0-4,6.34c-.67,1.19-1.33,2.28-1.85,3.1.21-1.1.52-3,.82-4.93.39-.58,1-1.5,1.77-2.72,1.1-1.65,2.22-3.68,3.84-6.2a28.62,28.62,0,0,0,4.38-10.75s-2.49,3.83-6.07,9.86c-1.15,1.93-1.75,5.34-2.55,6.94-.52,1-.94,1.78-1.29,2.33.39-2.39.77-4.69,1-5.39s.37-1.47.52-2.21a24.79,24.79,0,0,1,1.4-3.22c.92-1.74,2.53-3.91,3.9-6.58C135,96.26,136.19,91,136,91Z"/><path class="cls-9" d="M139.43,139.25s-5.78,5-10.68,10a70.35,70.35,0,0,0-4.94,5.92c-1.75,2.41-2.32,2.67-2.2,2.71.34.1,1.51-1.58,3.55-3.27,1.53-1.27,4.1-2.78,6.17-5.13A124.06,124.06,0,0,0,139.43,139.25Zm-35.56,20a78.31,78.31,0,0,0,9.35,8.32,44.89,44.89,0,0,1,5.32,6.1c.63.81,1.14,1.87,1.44,2.15,2,1.81,2.33,2.12,2.26,2.2s-4-3.57-6-4.66c-.61-.34-2.72-2.8-4.86-4.53C108.72,166.62,103.87,159.22,103.87,159.22Zm-2.58,14.3s6.72,4.37,11.87,7.21c1.64.91,7.45,6.33,8.7,7.29,2.06,1.57,3.24,2.11,3.25,2.23,0,.33-1.15-.51-2.43-1-1-.39-6.69-4.37-10.94-7A62.51,62.51,0,0,1,101.29,173.52Zm55,20.77a65.47,65.47,0,0,0-12.05,9.9c-1.5,1.65-5.69,5.45-6.74,6.9-1.75,2.4-2.94,3.44-2.87,3.56.13.3,1.12-1,2.46-2.09.58-.47,1.28-.83,1.91-1.34,1.54-1.25,6.19-4.71,8.27-7C152,198.85,156.25,194.29,156.25,194.29ZM136,91c-.2,0-2.58,5.07-5.77,11.31a50.56,50.56,0,0,0-2.32,6.15c-.44,1.16-.88,2.22-1.24,3.08a43,43,0,0,1,1.16-5.44l.73-2.2c.67-2,2-4.14,2.52-5.74,3.53-11,2.83-12.44,2.77-12.46s-1.91,3.15-4.77,13c-.42,1.43-.39,3.27-.89,5-.22.76-.46,1.55-.69,2.37-.48,1.61-.88,3.5-1.34,5.46a19.55,19.55,0,0,1,.14-5c.32-1.65,1.14-2.88,1.36-5.23a96.37,96.37,0,0,0,.53-12.48c-.13-.1-1,3.56-1.65,9.91-.26,2.72-.61,6.53-.75,8.32a24.66,24.66,0,0,0,.22,5c-.2.86-.43,1.74-.69,2.61a33.49,33.49,0,0,1-.14-4.62c.08-1.68.22-3.76.11-6.11-.28-6.38-.58-11.61-.72-11.69s-1.13,3.48-.83,9.87c.11,2.72.9,6.73,1,8.52a36.69,36.69,0,0,0,.45,4.43,34.92,34.92,0,0,0-.78,3.47,34.7,34.7,0,0,1-1.07-4.53c-.26-1.66-.54-3.73-1.11-6-1.57-6.19-2.91-11.26-3.06-11.3s-.4,3.64,1.16,9.84c.67,2.64,2.24,6.41,2.71,8.14a40.31,40.31,0,0,0,1.3,4.22c-.27,1.47-.53,3-.8,4.16s-.5,2.17-.72,3.32c-.14-.59-.75-2.48-1.37-4.77a58.18,58.18,0,0,0-1.58-6,93.08,93.08,0,0,0-5-11.31c-.15,0,.64,4.89,2.89,10.87,1,2.56,3,5.31,3.61,7,.83,2.1,1.12,4.07,1.37,4.33-.32,1.64-.6,3.36-.87,5.16a27.63,27.63,0,0,1-1.65-3.11c-.68-1.49-2.36-6-3.33-7.72-3-5.52-5.71-10.21-5.71-10.21A55,55,0,0,0,116,121.83c1.35,2.3,3,5.46,3.93,7a22.16,22.16,0,0,0,1.93,3.07q-.4,2.78-.71,5.69c-.38-.73-1.18-2.17-2-3.86-.7-1.46-2.47-5.53-3.54-7.14-3.37-5.07-5.73-8.64-5.73-8.64a59.21,59.21,0,0,0,5,11.22,32.22,32.22,0,0,0,3.79,4.91,37.28,37.28,0,0,1,2.47,3.81c-.23,2.15-.42,4.35-.57,6.57-.39-.75-1.09-2.07-1.8-3.61a79.79,79.79,0,0,0-3.62-7.22c-3.22-4.92-5.79-8.49-5.79-8.49a79.23,79.23,0,0,0,5.21,11.31,28.07,28.07,0,0,0,3.66,4.76,31.92,31.92,0,0,1,2.31,3.6c-.09,1.34-.16,2.66-.24,4s-.1,2.34-.14,3.47a15.7,15.7,0,0,1-1.28-2.59c-.61-1.45-3-6.67-3.93-8.27-3-5-7.88-12.24-7.88-12.24a45.45,45.45,0,0,0,2.22,5.85c1.29,2.85,3.34,6.49,4.62,8.9a30.79,30.79,0,0,0,4,5.16c1.29,1.66,2,3.27,2.24,3.3-.06,1.68-.09,3.3-.09,4.92a22.5,22.5,0,0,1-2-2.55c-1-1.42-4.52-7.2-5.92-8.68-4-4.29-8-8.79-8-8.79s.81,2.5,4.62,8c2.87,4.11,9.53,11.14,11.34,12.38,0,1.64,0,3.26.13,4.88a22.39,22.39,0,0,1-3.28-3.77,34.27,34.27,0,0,0-4.55-4.8c-4.64-4.49-9.67-8.58-9.67-8.58s4.62,6.39,6.5,8.37c3.34,3.55,6.37,5,7.64,6.24a23.77,23.77,0,0,0,3.38,2.89c.12,2.29.33,4.61.66,7.07a13.14,13.14,0,0,1-3.07-3.12,72.9,72.9,0,0,0-7.65-8c-5-4.22-7.33-6.35-7.33-6.35a54.82,54.82,0,0,0,8.63,10.15c2.19,1.93,5.65,4.95,5.65,4.95,1.23.81,3,2.15,3.8,2.57a127.79,127.79,0,0,0,2.48,13,15,15,0,0,1-3.43-2c-1.25-.95-6.4-6.48-8-7.38-5.15-2.84-12-7.7-12-7.7s5.76,6.68,10.94,9.86c2.26,1.38,6,4.07,7.53,4.67,2,.79,4.61,3,5,2.54.93,3.92,2.12,8.77,3.44,13.84a33.69,33.69,0,0,1-3-2c-1.25-.95-5.22-4.79-6.86-5.7-5.16-2.84-14.43-7.87-14.43-7.87a130.9,130.9,0,0,0,12.16,9,51.39,51.39,0,0,0,6.15,3.49c.61.24,3.22,2.07,3.79,2.29,1,.37,1.84.93,2.23,1.08.47,1.79.95,3.62,1.44,5.43-.55-.34-1.29-.84-2.22-1.54-1.25-1-5.56-3.4-7.18-4.38-5.35-3.24-14.94-8.08-14.94-8.08a136.15,136.15,0,0,0,12,8.79,88.51,88.51,0,0,0,9.13,4.34c.61.24,1.22.31,1.79.53a14.11,14.11,0,0,1,1.5.72c.5,1.84,1,3.67,1.53,5.46a17.45,17.45,0,0,1-2.82-1.7c-1.24-1-5.38-3-7-3.93-5.34-3.25-13.62-6-13.62-6s6,4,11.2,7.13c2.27,1.39,8.33,3.18,9.83,3.78.61.24,1.21.32,1.78.53.23.09.45.19.67.3.4,1.42.82,2.83,1.23,4.2l-1-.74a25.75,25.75,0,0,0-4.88-2.36c-6.11-2.68-19.28-6.41-19.28-6.41a82.59,82.59,0,0,0,13.2,6.75c2.37.89,5,1.37,10,2.69.62.17,1.22.32,1.79.53l.38.16c.52,1.73,1,3.39,1.57,4.95-2.54-1.3-7.11-3.13-7.74-3.4-5.28-2.25-18.49-5.4-18.49-5.4a69.4,69.4,0,0,0,12.5,5.64c2.4.77,9.69,2.16,11.19,2.76.61.23,1.22.31,1.79.53.32.12.64.28.93.42.27.81.53,1.59.8,2.33s.62,1.77.91,2.66c-1.73-.69-4.37-1.25-4.73-1.48-4.41-2.74-22-6.46-22-6.46s5.72,2.92,11.22,5c4,1.49,10.67,1.51,14.64,3a11.13,11.13,0,0,1,1.1.51c.33,1,.65,2.05.94,3.08-.89-.22-2-.42-2.83-.71a70.61,70.61,0,0,0-9.7-2.86,136.78,136.78,0,0,0-13.6-1.81,64.07,64.07,0,0,1,8,2.73c2.56,1,6.5,1.54,9.08,2.08,1.39.3,4.69.32,6,.45.78.07,2.09.36,3.07.55q.74,2.55,1.31,5.07c-6-1.79-7.83-1.81-13.2-3.08-4.69-1.09-14-1.61-14-1.61a77.48,77.48,0,0,0,9.18,2.72c1.8.43,11.93,1.6,13.92,1.43a23.27,23.27,0,0,1,4.18.77q.56,2.44,1,4.8l-.12,0a9.47,9.47,0,0,1-2.84-.72c-1.5-.77-3.77-1-5.64-1.42-4.69-1.09-13.46-1.4-13.46-1.4,4.38,1.32,12.15,3.72,16.51,3.35,1.12-.09,4.57.49,5.59.47.26,1.49.46,2.94.62,4.34l-.29-.07a15.11,15.11,0,0,1-2.68-.62,40.32,40.32,0,0,0-4.95-1.15c-4.69-1.09-13.43-2.21-13.43-2.21,4.38,1.32,10.28,3.9,14.62,3.54,1.2-.1,5.85.77,6.75.7.19,1.74.31,3.43.36,5l-.14,0a15.37,15.37,0,0,1-2.69-.62,40,40,0,0,0-4.93-1.15c-4.69-1.09-14.42-1.11-14.42-1.11,4.39,1.33,12.66,3.31,17,3,1.1-.09,4.17.29,5.17.23a41.35,41.35,0,0,1-.19,5.2c-2.81,27.22,5.75,37,6.42,37,1.81,0-9.87-13.85-4.86-33.62a33,33,0,0,0,.76-9.67c1.55-.66,4.33-2,5.51-2.43,5.47-1.76,8.93-4.91,13.63-8.19a61.65,61.65,0,0,0-11.35,5.3,63.91,63.91,0,0,0-5.45,3.4,14.52,14.52,0,0,1-2.36,1.48c-.08-1.28-.2-2.59-.37-3.92,1.48-.61,4.5-2.12,5.75-2.52,5.45-1.76,8.92-4.91,13.61-8.19a61.72,61.72,0,0,0-11.34,5.3,64,64,0,0,0-5.45,3.39,15.6,15.6,0,0,1-2.62,1.63c-.16-1.3-.37-2.63-.61-4,1.5-.65,4.95-2.54,6.25-3,5.46-1.76,8.57-4.49,13.26-7.77a41.3,41.3,0,0,0-10.5,4.57c-2.06,1.28-4.72,2.56-6.16,4a12.68,12.68,0,0,1-2.9,1.89c-.28-1.51-.59-3-.93-4.6.88-.41,3.62-2.41,5-2.87,2.5-.8,11-6.26,12.73-7.84a72.47,72.47,0,0,1,5.75-5.05,125.33,125.33,0,0,0-12,6.34c-2,1.28-6.15,4.13-7.4,5.71a28.85,28.85,0,0,1-4,3.36l-.23.19c-.31-1.42-.64-2.84-1-4.27.67-.26,3.36-2.44,4.78-3.11a41.85,41.85,0,0,0,3.83-2.16,57.54,57.54,0,0,0,8.51-6.37c5.28-4.82,5.56-5.43,5.56-5.43a83.58,83.58,0,0,0-11.85,7.47c-1.89,1.51-5.21,3.82-6.46,5.4a34.05,34.05,0,0,1-4.05,3.8l-.35.27c-.39-1.6-.81-3.21-1.24-4.82.14.3,1.79-1.77,3.25-2.69,4.27-2.68,9.08-5.17,12.6-9.1,4.76-5.32,7.11-7.71,7.11-7.71s-8.38,5.32-12.88,9.46a51.62,51.62,0,0,0-5.16,5c-1.91,2.41-5,4.93-4.92,5-.29-1.09-.67-2.46-1.14-4,.36-.21,1.22-1.25,2.3-2.1,4.08-3.28,8.81-6,12.33-9.92a71,71,0,0,0,6.79-8.59S148,206.47,144,211c-1.58,1.78-3.69,4.57-4.59,5.42a37.32,37.32,0,0,0-3.31,3.44c-.9-3.05-2-6.8-3.24-10.62a43.06,43.06,0,0,1,4.26-4c1.39-1.05,7.61-5.58,9-7a115.79,115.79,0,0,0,8.27-10.48S149.92,192,145.3,196c-3.41,2.9-8.22,7.35-10.3,10.76a24.71,24.71,0,0,1-2.18,2.43c-.53-1.72-1.07-3.44-1.6-5.12.34-.13,1.22-1.22,2.35-2.13.58-.47,1.29-.82,1.91-1.33a86.27,86.27,0,0,0,7-6.93,80.89,80.89,0,0,0,8.17-11,156.41,156.41,0,0,0-11.73,11.33c-1.5,1.66-3.84,5.06-4.9,6.5a43.58,43.58,0,0,1-2.81,3.43l-2-6.43c.44-.4,1.16-1.2,2-1.89.58-.47,1.29-.83,1.91-1.34a84,84,0,0,0,7-6.91,81.06,81.06,0,0,0,8.17-11.06,158.9,158.9,0,0,0-11.74,11.34c-1.49,1.65-3.83,5.06-4.89,6.5s-2,2.55-2.51,3.09c-.88-2.81-1.57-5.11-1.93-6.45a21.55,21.55,0,0,1,1.64-1.53c.59-.47,1.29-.82,1.92-1.34a82.78,82.78,0,0,0,7-6.92,80.89,80.89,0,0,0,8.17-11,155.6,155.6,0,0,0-11.74,11.33c-1.49,1.66-3.83,5-4.89,6.5a32.33,32.33,0,0,1-2.15,2.67c-.54-2-1.07-4.06-1.57-6.17.35-.34.76-.72,1.2-1.07.59-.47,1.29-.83,1.92-1.34,1.54-1.25,5.2-3.82,7.28-6.15l9.72-10.88a163.34,163.34,0,0,0-13.87,11.88,55.44,55.44,0,0,0-4.63,5c-.67.9-1.25,1.62-1.71,2.16q-.69-3-1.31-6c.44-.43,1.06-1.08,1.77-1.66s1.3-.83,1.92-1.33c1.54-1.25,5.2-3.83,7.29-6.16a98.14,98.14,0,0,0,7.46-9.3,143,143,0,0,0-11.63,10.31,59.79,59.79,0,0,0-4.62,5,34,34,0,0,1-2.26,2.79c-.42-2.11-.81-4.23-1.14-6.36.81-.52,2-1.65,3.41-2.81s5.67-4,7.75-6.35c4.77-5.33,7.65-8.45,7.65-8.45A78.47,78.47,0,0,0,129.89,163a56.94,56.94,0,0,0-4.63,5,17.17,17.17,0,0,1-2.44,2.7c-.29-1.87-.55-3.74-.76-5.59a41.38,41.38,0,0,1,3-2.95c1.54-1.26,4.11-2.78,6.18-5.12,4.64-5.26,9-10.81,9-10.81s-6.72,5.57-11.62,10.57a73.85,73.85,0,0,0-4.93,5.93,23.89,23.89,0,0,1-1.73,2.15,91.87,91.87,0,0,1-.61-12.81c.47-.25,1.6-1.73,3.41-3.24,1.52-1.26,4.1-2.77,6.17-5.12a125.15,125.15,0,0,0,8.09-10.27s-5.77,5-10.68,10a68.26,68.26,0,0,0-4.93,5.92,20.13,20.13,0,0,1-2,2.49A50.12,50.12,0,0,1,122,146c.09-.61.18-1.28.26-2a27.46,27.46,0,0,1,2.51-2.42c1.53-1.26,4.11-2.77,6.18-5.12,4.64-5.26,5.92-7.62,5.92-7.62a58.65,58.65,0,0,0-8.51,7.38,74.09,74.09,0,0,0-4.94,5.93c-.45.62-.82,1.1-1.12,1.47.17-1.75.32-3.75.45-5.78a34.54,34.54,0,0,1,2.86-2.77c1.53-1.27,4.11-2.78,6.18-5.13,4.64-5.26,5.14-7.12,5.14-7.12a55.57,55.57,0,0,0-7.73,6.89,65.72,65.72,0,0,0-4.93,5.93c-.66.89-1.15,1.49-1.5,1.89.12-1.81.24-3.64.39-5.36a31.8,31.8,0,0,1,3.29-3.41,40,40,0,0,0,5.44-4.86c4.64-5.25,5.21-8.08,5.21-8.08l-6.58,6.75a65.23,65.23,0,0,0-4.73,5.82c-1,1.36-1.95,2.56-2.59,3.35a43.81,43.81,0,0,1,.82-5.69,27.62,27.62,0,0,1,2.7-3.54,40.52,40.52,0,0,0,4.83-5.47c4-5.78,4.21-8.65,4.21-8.65s-1.46,1.93-5.73,7.49a63.87,63.87,0,0,0-4,6.34c-.67,1.19-1.33,2.28-1.85,3.1.21-1.1.52-3,.82-4.93.39-.58,1-1.5,1.77-2.72,1.1-1.65,2.22-3.68,3.84-6.2a28.62,28.62,0,0,0,4.38-10.75s-2.49,3.83-6.07,9.86c-1.15,1.93-1.75,5.34-2.55,6.94-.52,1-.94,1.78-1.29,2.33.39-2.39.77-4.69,1-5.39s.37-1.47.52-2.21a24.79,24.79,0,0,1,1.4-3.22c.92-1.74,2.53-3.91,3.9-6.58C135,96.26,136.19,91,136,91Z"/><path class="cls-2" d="M251.33,121.45C249.07,83.91,270.43,50.07,306.5,50l-19,12,9.9,1.38L276.75,72l8.35,2.31L269.39,84.94l7.54,1.38q-3.71,5.78-7.41,11.58l-9.62,5.57,4.81-.24-10,13.15Zm2.6,6.33c24.39-34.86,67.12-49.82,99.12-24.5q-12.66-1.34-25.31-2.7c2.6,2.73,5.19,5.46,7.8,8.19l-24.29-7,5.78,7.92-21.42-1.6,5.7,6.52-14.71,5-12.44-1.82L278.6,121l-18.14,4.6Zm1.28,8.47c39.18-16.59,83.33-6.59,97,31.86q-10-7.87-20-15.73,1.14,5.53,2.27,11.07l-16.9-18.78q.35,4.89.7,9.78L301,141.73q.67,4.26,1.37,8.55l-15.15-3.53q-4.79-4.08-9.58-8.15,1,2.52,2.08,5l-17.81-5.73Zm-1.84,3.25c44.19,13,71.29,52.61,51.71,95.73q-1.72-13.86-3.42-27.73l-7,11.25q.74-14.12,1.47-28.23-3.6,4.51-7.19,9-1.81-11.61-3.65-23.22l-5.68,8.43-9.21-13.69q-.57-6.9-1.15-13.81l-2.34,5.84-9.59-17.47Zm-9.11-11.66c5.35-33.67-14.1-64.93-51.51-66.4L211.5,73l-10.37.86,20.72,8.48L213,84.1l15.44,10.21-7.92.94c2.26,3.57,4.5,7.14,6.76,10.71l9.53,5.38-5-.41,9.35,12.22C242.21,124.71,243.23,126.28,244.26,127.84Zm-7.08,3.82c-19.17-34.17-57-51.78-88.6-31.49L172,100l-7.89,6.79,22.9-4.16-6,6.73,19.78.49L195,115.3l13,6,11.56-.53-4.35,2.49,16.2,5.87Zm1.36,7.05c-39.76-15.15-83.51-3.54-95.77,35.39l19.42-16.46-1.86,11.16q8.1-9.7,16.21-19.39c-.12,3.26-.23,6.53-.35,9.8L193,145.85q-.53,4.31-1.06,8.6l15-4.08,9.28-8.49q-.94,2.55-1.9,5.11l17.6-6.38Zm7.13,4.32c-34.62,18.14-50.57,55.64-27.09,88.27l-1.77-23.65,7.67,8.19q-3-11.61-5.92-23.24l7.49,6.32L225.21,179q3.07,3,6.14,6.06,2.68-6.47,5.39-12.93l-1.35-11.68,2.92,4.48,5.07-16.14Q244.54,145.92,245.67,143ZM233.29,332c-20.59,3.14-30.66-3.54-35.43-15.17,50.52-57.54,53.78-105.07,52.64-172.85C273.81,205.08,262.24,264.59,233.29,332Z"/><path class="cls-10" d="M251.33,121.45C249.07,83.91,270.43,50.07,306.5,50l-19,12,9.9,1.38L276.75,72l8.35,2.31L269.39,84.94l7.54,1.38q-3.71,5.78-7.41,11.58l-9.62,5.57,4.81-.24-10,13.15Zm2.6,6.33c24.39-34.86,67.12-49.82,99.12-24.5q-12.66-1.34-25.31-2.7c2.6,2.73,5.19,5.46,7.8,8.19l-24.29-7,5.78,7.92-21.42-1.6,5.7,6.52-14.71,5-12.44-1.82L278.6,121l-18.14,4.6Zm1.28,8.47c39.18-16.59,83.33-6.59,97,31.86q-10-7.87-20-15.73,1.14,5.53,2.27,11.07l-16.9-18.78q.35,4.89.7,9.78L301,141.73q.67,4.26,1.37,8.55l-15.15-3.53q-4.79-4.08-9.58-8.15,1,2.52,2.08,5l-17.81-5.73Zm-1.84,3.25c44.19,13,71.29,52.61,51.71,95.73q-1.72-13.86-3.42-27.73l-7,11.25q.74-14.12,1.47-28.23-3.6,4.51-7.19,9-1.81-11.61-3.65-23.22l-5.68,8.43-9.21-13.69q-.57-6.9-1.15-13.81l-2.34,5.84-9.59-17.47Zm-9.11-11.66c5.35-33.67-14.1-64.93-51.51-66.4L211.5,73l-10.37.86,20.72,8.48L213,84.1l15.44,10.21-7.92.94c2.26,3.57,4.5,7.14,6.76,10.71l9.53,5.38-5-.41,9.35,12.22C242.21,124.71,243.23,126.28,244.26,127.84Zm-7.08,3.82c-19.17-34.17-57-51.78-88.6-31.49L172,100l-7.89,6.79,22.9-4.16-6,6.73,19.78.49L195,115.3l13,6,11.56-.53-4.35,2.49,16.2,5.87Zm1.36,7.05c-39.76-15.15-83.51-3.54-95.77,35.39l19.42-16.46-1.86,11.16q8.1-9.7,16.21-19.39c-.12,3.26-.23,6.53-.35,9.8L193,145.85q-.53,4.31-1.06,8.6l15-4.08,9.28-8.49q-.94,2.55-1.9,5.11l17.6-6.38Zm7.13,4.32c-34.62,18.14-50.57,55.64-27.09,88.27l-1.77-23.65,7.67,8.19q-3-11.61-5.92-23.24l7.49,6.32L225.21,179q3.07,3,6.14,6.06,2.68-6.47,5.39-12.93l-1.35-11.68,2.92,4.48,5.07-16.14Q244.54,145.92,245.67,143ZM233.29,332c-20.59,3.14-30.66-3.54-35.43-15.17,50.52-57.54,53.78-105.07,52.64-172.85C273.81,205.08,262.24,264.59,233.29,332Z"/><rect class="cls-11" x="81.02" y="223.55" width="343.91" height="62.16"/></g><path class="cls-7" d="M253.15,475.46l.35-.2-.35.2m.8.83a5.32,5.32,0,0,1-1.31-.55,5.29,5.29,0,0,1-1.3.55V475c-9-5.36-35.94-25.58-41.11-29.06-2-1.38-4.18-2.89-6.18-4.39-11.87-8.92-24.43-17.39-36.55-26.81L155,405.57c-.34-1.28-.13-.42-1.55-1.55l-11.24-8.69-.19-.22-1.49-1.45c-1.57-2-7.4-7-9.65-9.32-3.3-3.36-6.08-6.57-9.38-10.11-6.42-6.87-10.21-13.74-14.44-21.72a8.28,8.28,0,0,0-.47-.82,3.16,3.16,0,0,0-.62-.78,179.76,179.76,0,0,1-11.64-60q-.45-27.75-.55-55.45H411.51q-.13,27.7-.54,55.45a180.35,180.35,0,0,1-11.64,60,3.15,3.15,0,0,0-.63.78c-.19.29-.3.51-.47.82-4.23,8-8,14.85-14.43,21.72-3.3,3.54-6.09,6.75-9.39,10.11-2.24,2.28-8.08,7.29-9.65,9.32l-1.48,1.45-.2.22L351.85,404c-1.42,1.13-1.22.27-1.55,1.55l-12.52,9.16c-12.11,9.42-24.68,17.89-36.55,26.81-2,1.5-4.13,3-6.18,4.39-5.25,3.54-33.05,24.37-41.53,29.32L254,475Z"/><g class="cls-12"><polygon class="cls-13" points="142.58 478.51 142.58 230.93 93.69 230.93 93.69 480.86 140.24 480.86 142.58 478.51"/><path class="cls-5" d="M232.24,478.51V230.93H183.37V480.86h46.55c.78-.78,1.55-1.57,2.32-2.35"/><path class="cls-5" d="M321.92,478.51V230.93H273V480.86h46.55l2.33-2.35"/><polygon class="cls-13" points="411.59 478.51 411.59 230.93 362.71 230.93 362.71 480.86 409.26 480.86 411.59 478.51"/><rect class="cls-11" x="81.02" y="223.04" width="343.91" height="62.67"/></g><path class="cls-2" d="M415.54,344.08c2.79-2.1,9.24-18.42,10.77-23.42,9.23-30.24,8.31-64.82,8.31-96.59,0-4,.42-135.11-.12-139.33-2.08-1.43-8.06-3.56-10.76-4.64s-9.3-4.09-11.95-4.18l.15.1c.53,6.74.05,62.88.05,71.27,0,47.91.12,95.57-.64,143.4a180.37,180.37,0,0,1-11.64,60,2.94,2.94,0,0,0-.62.78c-.2.29-.31.51-.48.81-4.23,8-8,14.86-14.43,21.73-3.3,3.53-6.09,6.75-9.39,10.1-2.24,2.29-8.08,7.29-9.65,9.33,2.05-1,12.29-9,14.35-10.74,4.59-3.94,8.91-7.67,13.17-11.59C397.18,366.92,413.52,350.33,415.54,344.08Z"/><path class="cls-14" d="M415.54,344.08c2.79-2.1,9.24-18.42,10.77-23.42,9.23-30.24,8.31-64.82,8.31-96.59,0-4,.42-135.11-.12-139.33-2.08-1.43-8.06-3.56-10.76-4.64s-9.3-4.09-11.95-4.18l.15.1c.53,6.74.05,62.88.05,71.27,0,47.91.12,95.57-.64,143.4a180.37,180.37,0,0,1-11.64,60,2.94,2.94,0,0,0-.62.78c-.2.29-.31.51-.48.81-4.23,8-8,14.86-14.43,21.73-3.3,3.53-6.09,6.75-9.39,10.1-2.24,2.29-8.08,7.29-9.65,9.33,2.05-1,12.29-9,14.35-10.74,4.59-3.94,8.91-7.67,13.17-11.59C397.18,366.92,413.52,350.33,415.54,344.08Z"/><path class="cls-7" d="M295.31,291.7c7.51,0,13.59-4.14,13.59-9.25s-6.08-9.25-13.59-9.25-13.59,4.14-13.59,9.25,6.08,9.25,13.59,9.25"/><path class="cls-15" d="M350.38,240.75l.07,25.93.11,2.67a4.92,4.92,0,0,0,.95,2.66,3.67,3.67,0,0,0,2.45,1.16l3.89.27v.89l-16,0v-.89c.55-.06,1.16-.06,1.83-.11a13.22,13.22,0,0,0,2.33-.23,3.5,3.5,0,0,0,2.22-1.12,4.87,4.87,0,0,0,.94-2.67l.1-2.66-.07-25.77-.12-2.55a6.5,6.5,0,0,0-1.17-2.22A3.21,3.21,0,0,0,346,235.1c-.78-.11-1.56-.16-2.28-.22s-1.28,0-1.67-.1v-.89l20.55-.06L372,257.91l8.32-24.12,20-.06v.89H399a17.32,17.32,0,0,0-2.28.22,4.06,4.06,0,0,0-2.44,1,4.41,4.41,0,0,0-.82,2.51l-.11,2.55.07,26.32.12,2.56a4.46,4.46,0,0,0,.78,2.44,3.38,3.38,0,0,0,2.28.94l2.78.21v.89l-25.32.07v-.89l2.55-.17a2.78,2.78,0,0,0,3-3.34l.11-2.56,0-20.6c0-1.17,0-2.5.15-4.11s.16-3,.27-4.39h-.34l-2.25,7.17-9.76,28.9h-3.44l-13.64-33.56Zm-8.13-6c-.49.06-1,.06-1.61.12s-1.44.11-2.44.28a3.34,3.34,0,0,0-2.33,1.34,5.68,5.68,0,0,0-1,2.89l-.1,2.67,0,16.49-.1,2.78Q333.9,269,330.58,272c-2.22,2.06-5.66,3.07-10.32,3.08-6.17,0-10.89-1.13-14.23-3.46s-5-5.2-5-8.7L301,241.05l-.11-2.56a5,5,0,0,0-.73-2.49,3.85,3.85,0,0,0-2.34-.89l-2.33-.21V234l26-.07v.89a13.49,13.49,0,0,1-1.61.06c-.61.06-1.44.11-2.39.23a3.77,3.77,0,0,0-2,.84,4.35,4.35,0,0,0-.71,2.5l-.1,2.55.05,22.27c0,.44,0,1,.06,1.61s.17,1.61.4,2.89a6.87,6.87,0,0,0,2.23,3.88,7.09,7.09,0,0,0,5.23,1.93c3.11,0,5.44-.79,7-2.41a11.9,11.9,0,0,0,3.15-5.39,26.53,26.53,0,0,0,.82-5.22l0-2.62,0-16.1-.12-2.67a5.09,5.09,0,0,0-.89-2.77,3.7,3.7,0,0,0-2.28-1.22c-1-.16-1.84-.21-2.5-.27s-1.28,0-1.89-.1v-.89l16.32,0Zm-92.46-.64,43.87-.12,0,17.83h-.95c-1-2.27-2.18-4.66-3.57-7.21a48.64,48.64,0,0,0-4.4-6.59c-1.51-1.89-2.84-2.83-4-2.83l-2.22-.1.08,32.37.12,2.56a4.46,4.46,0,0,0,.78,2.44,2.3,2.3,0,0,0,1.78.83c.84.11,1.56.16,2.23.21s1.27.06,1.77.11v.89l-27.16.07v-.89l3.66-.17a3.58,3.58,0,0,0,2.28-.84,4.64,4.64,0,0,0,.77-2.5l.1-2.56-.08-32.49-2.17.12c-1.16,0-2.5.9-3.93,2.62a43.52,43.52,0,0,0-4.32,6.68c-1.49,2.72-2.71,5.17-3.7,7.39h-.94Zm-.55.89c-.5.06-1,.06-1.56.11s-1.39.12-2.44.29a3.45,3.45,0,0,0-2.33,1.28,5.43,5.43,0,0,0-1,2.84l-.11,2.66.09,32.43-6.78,0L208.66,241h-.23l.07,25.93.12,2.67a4.87,4.87,0,0,0,.95,2.71,3.42,3.42,0,0,0,2.28,1.11c1,.16,1.89.27,2.61.33s1.17.05,1.45.1v.89l-16,0v-.89c.5-.05,1-.05,1.61-.11s1.61-.17,3.17-.45,2.33-1.45,2.54-3.73l.11-2.67-.07-25.26-.12-2.56a12.33,12.33,0,0,0-1.73-2.16,5.49,5.49,0,0,0-2.22-1.38,6.75,6.75,0,0,0-2.28-.39h-1.66v-.89l21.22,0,20,25.49h.22l0-17.72-.12-2.66a5.14,5.14,0,0,0-.9-2.72,3.58,3.58,0,0,0-2.28-1.16c-1-.17-1.77-.22-2.39-.27s-1.22-.06-1.72-.11v-.89l16,0Zm-48.87.13c-.5,0-1,0-1.61.11s-1.45.12-2.45.29a3.25,3.25,0,0,0-2.32,1.33,5.59,5.59,0,0,0-1,2.89l-.1,2.67,0,16.49-.1,2.78q-.81,7.67-4.14,10.67c-2.21,2.06-5.66,3.07-10.32,3.09-6.16,0-10.89-1.14-14.23-3.47s-5-5.2-5-8.7l-.05-21.88-.12-2.56a5,5,0,0,0-.73-2.49,3.84,3.84,0,0,0-2.33-.89l-2.34-.21v-.89l26-.07v.89a13.49,13.49,0,0,1-1.61.06c-.61.06-1.44.12-2.39.23a3.7,3.7,0,0,0-2,.84,4.26,4.26,0,0,0-.72,2.5l-.1,2.55.06,22.27a15.94,15.94,0,0,0,.06,1.61c.05.61.17,1.61.39,2.89a6.87,6.87,0,0,0,2.23,3.88A7.05,7.05,0,0,0,180.7,274c3.11,0,5.44-.79,7.05-2.41a11.8,11.8,0,0,0,3.15-5.39,28.12,28.12,0,0,0,.82-5.22l0-2.61,0-16.11-.12-2.66a5.1,5.1,0,0,0-.89-2.78,3.62,3.62,0,0,0-2.28-1.21c-1-.17-1.84-.22-2.5-.28s-1.28,0-1.89-.1v-.89l16.32,0Zm-92.47-.65,43.87-.11,0,17.82h-.94c-1-2.27-2.18-4.66-3.58-7.21a48.64,48.64,0,0,0-4.4-6.59c-1.51-1.89-2.84-2.83-4-2.83l-2.22-.1.09,32.38.11,2.55a4.5,4.5,0,0,0,.79,2.44,2.25,2.25,0,0,0,1.78.83c.83.11,1.55.16,2.22.22s1.28.05,1.78.1v.89l-27.16.07v-.89l3.66-.17a3.58,3.58,0,0,0,2.28-.84,4.55,4.55,0,0,0,.77-2.5l.1-2.56L123,235.52l-2.17.11c-1.16,0-2.49.9-3.93,2.62a43.52,43.52,0,0,0-4.32,6.68c-1.49,2.72-2.7,5.17-3.7,7.39H108Z"/><path class="cls-13" d="M350.38,240.75l.07,25.93.11,2.67a4.92,4.92,0,0,0,.95,2.66,3.64,3.64,0,0,0,2.45,1.16l3.89.27v.89l-16,0v-.89c.55-.05,1.16-.06,1.83-.11a14.26,14.26,0,0,0,2.33-.23,3.5,3.5,0,0,0,2.22-1.12,4.87,4.87,0,0,0,.94-2.67l.1-2.66-.07-25.77-.12-2.55a6.5,6.5,0,0,0-1.17-2.22A3.21,3.21,0,0,0,346,235.1c-.78-.11-1.56-.16-2.28-.22s-1.28,0-1.67-.1v-.89l20.55-.06L372,257.91l8.32-24.12,20-.06v.89H399a17.32,17.32,0,0,0-2.28.22,4,4,0,0,0-2.44,1,4.41,4.41,0,0,0-.82,2.51l-.11,2.55.07,26.32.12,2.56a4.46,4.46,0,0,0,.78,2.44,3.38,3.38,0,0,0,2.28.94l2.78.21v.89l-25.32.07v-.89l2.56-.18a4.3,4.3,0,0,0,2.33-.83,4.24,4.24,0,0,0,.71-2.51l.11-2.55-.06-20.6c0-1.17.05-2.5.16-4.11s.16-3,.27-4.39h-.34l-2.25,7.17-9.76,28.9h-3.44l-13.64-33.56Zm-8.13-6c-.5.06-1,.06-1.61.12s-1.44.11-2.44.28a3.34,3.34,0,0,0-2.33,1.34,5.68,5.68,0,0,0-1,2.89l-.1,2.67,0,16.49-.1,2.78Q333.9,269,330.58,272c-2.22,2.06-5.66,3.07-10.32,3.08-6.17,0-10.89-1.13-14.23-3.46s-5-5.2-5-8.7L301,241.05l-.11-2.56a5,5,0,0,0-.73-2.49,3.85,3.85,0,0,0-2.34-.89l-2.33-.21V234l26-.07v.89a13.49,13.49,0,0,1-1.61.06c-.61.06-1.44.11-2.39.23a3.77,3.77,0,0,0-2,.84,4.35,4.35,0,0,0-.71,2.5l-.11,2.55.06,22.27c0,.44,0,1,.06,1.61s.17,1.61.4,2.89a6.9,6.9,0,0,0,2.23,3.88,7.08,7.08,0,0,0,5.23,1.93c3.11,0,5.44-.79,7-2.41a11.9,11.9,0,0,0,3.15-5.39,26.51,26.51,0,0,0,.82-5.23l0-2.61,0-16.1-.12-2.67a5.09,5.09,0,0,0-.89-2.77,3.7,3.7,0,0,0-2.28-1.22c-1-.16-1.84-.21-2.5-.27s-1.28,0-1.89-.1v-.89l16.33,0Zm-92.46-.64,43.87-.12,0,17.83h-.95c-1-2.27-2.18-4.66-3.57-7.21a50.4,50.4,0,0,0-4.4-6.6c-1.51-1.88-2.84-2.82-4-2.82l-2.22-.1.08,32.37.12,2.56a4.46,4.46,0,0,0,.78,2.44,2.3,2.3,0,0,0,1.78.83c.84.11,1.56.16,2.23.21s1.27.06,1.77.11v.89l-27.16.07v-.89l3.66-.17a3.58,3.58,0,0,0,2.28-.84,4.64,4.64,0,0,0,.77-2.5l.1-2.56-.08-32.49-2.17.12c-1.17,0-2.5.9-3.93,2.62a43.52,43.52,0,0,0-4.32,6.68c-1.49,2.72-2.71,5.17-3.7,7.39h-.94Zm-.55.89c-.5,0-1,.06-1.56.11s-1.39.12-2.44.29a3.45,3.45,0,0,0-2.33,1.28,5.43,5.43,0,0,0-1,2.84l-.11,2.66.09,32.43-6.78,0L208.66,241h-.23l.07,25.93.12,2.67a4.87,4.87,0,0,0,.95,2.71,3.46,3.46,0,0,0,2.28,1.11c1,.16,1.89.27,2.61.33s1.17.05,1.45.1v.89l-16,0v-.89c.5-.05,1-.05,1.61-.11s1.61-.17,3.17-.45,2.33-1.45,2.54-3.73l.11-2.67-.07-25.26-.12-2.56a12.33,12.33,0,0,0-1.73-2.16,5.49,5.49,0,0,0-2.22-1.38,6.75,6.75,0,0,0-2.28-.39h-1.66v-.89l21.22-.06,20,25.5h.22l0-17.72-.12-2.66a5.14,5.14,0,0,0-.9-2.72,3.58,3.58,0,0,0-2.28-1.16c-1-.17-1.78-.22-2.39-.27s-1.22-.06-1.72-.11v-.89l16,0Zm-48.87.13c-.5,0-1,0-1.61.11s-1.45.12-2.45.29a3.25,3.25,0,0,0-2.32,1.33,5.59,5.59,0,0,0-1,2.89l-.1,2.67,0,16.49-.1,2.78q-.81,7.67-4.14,10.67c-2.21,2.06-5.66,3.07-10.32,3.09-6.16,0-10.89-1.14-14.23-3.47s-5-5.2-5-8.7l-.05-21.88-.12-2.56a5,5,0,0,0-.73-2.49,3.84,3.84,0,0,0-2.33-.89l-2.34-.21v-.89l26-.07v.89a13.49,13.49,0,0,1-1.61.06c-.61.06-1.44.12-2.39.23a3.7,3.7,0,0,0-2,.84,4.26,4.26,0,0,0-.72,2.5l-.1,2.55.06,22.27a15.94,15.94,0,0,0,.06,1.61c.05.61.17,1.61.39,2.89a6.87,6.87,0,0,0,2.23,3.88A7.05,7.05,0,0,0,180.7,274c3.11,0,5.44-.79,7-2.41a11.84,11.84,0,0,0,3.16-5.39,28.12,28.12,0,0,0,.82-5.22l0-2.61,0-16.11-.12-2.66a5.1,5.1,0,0,0-.89-2.78,3.62,3.62,0,0,0-2.28-1.21c-1-.17-1.84-.22-2.5-.28s-1.28,0-1.89-.1v-.89l16.32,0Zm-92.47-.65,43.87-.12,0,17.83h-.94c-1-2.27-2.18-4.66-3.58-7.21a48.64,48.64,0,0,0-4.4-6.59c-1.51-1.89-2.84-2.83-4-2.83l-2.22-.1.08,32.38.12,2.55a4.5,4.5,0,0,0,.79,2.44,2.25,2.25,0,0,0,1.78.83c.83.11,1.55.16,2.22.22s1.28.05,1.78.1v.89l-27.16.07v-.89l3.66-.17a3.58,3.58,0,0,0,2.28-.84,4.55,4.55,0,0,0,.77-2.5l.1-2.56L123,235.52l-2.17.11c-1.16,0-2.49.9-3.93,2.62a43.52,43.52,0,0,0-4.32,6.68c-1.49,2.72-2.7,5.17-3.7,7.39H108Z"/><path class="cls-16" d="M225.52,293.87h2.75a3.22,3.22,0,0,0,1.95-.51,1.63,1.63,0,0,0,.76-1.49c0-1.35-.86-2-2.5-2h-3ZM237.8,306.4h-7.16l-3.09-8h-2l0,8.05h-6.47L219,285.39l11,0a8.52,8.52,0,0,1,5.66,1.69,5.63,5.63,0,0,1,2,4.51,7.16,7.16,0,0,1-.72,3.22,6.34,6.34,0,0,1-3,2.44ZM206.32,302a2.45,2.45,0,0,0,2.36-1.43,13.25,13.25,0,0,0,.68-5.24c0-3.66-1-5.46-2.94-5.45-2.12,0-3.16,2.09-3.15,6.25,0,3.92,1,5.87,3,5.87m0,4.76a9.56,9.56,0,0,1-7.23-2.91A11,11,0,0,1,196.3,296a11.5,11.5,0,0,1,2.66-7.77,10.37,10.37,0,0,1,14.58-.23,10.79,10.79,0,0,1,2.8,7.73,11.24,11.24,0,0,1-2.79,8A9.29,9.29,0,0,1,206.36,306.79Zm-22.94-12.4h2.14c1.9,0,2.84-.7,2.84-2.12s-.86-2-2.63-1.95h-2.36Zm.1,4.51,0,7.64H177l-.06-21.05,9,0a13.23,13.23,0,0,1,5.11.77,6.23,6.23,0,0,1,2.79,2.36,6.62,6.62,0,0,1,1,3.54,6.18,6.18,0,0,1-2.07,4.86,8.27,8.27,0,0,1-5.62,1.88Zm-27.92,1.62,6-1.09c.51,1.7,1.8,2.52,3.89,2.51,1.64,0,2.43-.41,2.42-1.3a1.18,1.18,0,0,0-.53-1,5.89,5.89,0,0,0-2-.65c-3.69-.72-6.06-1.63-7.11-2.76a5.82,5.82,0,0,1-1.58-4,6.2,6.2,0,0,1,2.26-4.93c1.48-1.33,3.65-2,6.46-2,4.29,0,7.14,1.71,8.5,5.15L168.54,292a3.25,3.25,0,0,0-3.38-2.1c-1.42,0-2.11.45-2.11,1.33a1,1,0,0,0,.48.88,5.51,5.51,0,0,0,1.86.63,40.76,40.76,0,0,1,5.37,1.4,5.92,5.92,0,0,1,2.66,2.11,6,6,0,0,1,1.05,3.5,6.13,6.13,0,0,1-2.58,5.16,10.78,10.78,0,0,1-6.78,2c-5.11,0-8.3-2.12-9.51-6.38m-.38,1.07v5l-15.84,0-.06-21,15.85,0v4.86l-9.5,0v3.07l7.67,0v4.67l-7.67,0v3.44Z"/><path class="cls-13" d="M225.52,293.87h2.75a3.22,3.22,0,0,0,1.95-.51,1.63,1.63,0,0,0,.76-1.49c0-1.36-.86-2-2.5-2h-3Zm12.28,12.52-7.16,0-3.09-8h-2l0,8.05h-6.47L219,285.39l11,0a8.52,8.52,0,0,1,5.66,1.69,5.63,5.63,0,0,1,2,4.51,7.16,7.16,0,0,1-.72,3.22,6.34,6.34,0,0,1-3,2.44ZM206.32,302a2.46,2.46,0,0,0,2.36-1.43,13.25,13.25,0,0,0,.68-5.24c0-3.66-1-5.46-3-5.45s-3.15,2.09-3.14,6.25c0,3.92,1,5.87,3,5.87m0,4.76a9.56,9.56,0,0,1-7.23-2.91A11,11,0,0,1,196.3,296a11.5,11.5,0,0,1,2.66-7.77,10.37,10.37,0,0,1,14.58-.23,10.79,10.79,0,0,1,2.8,7.73,11.24,11.24,0,0,1-2.79,8A9.29,9.29,0,0,1,206.36,306.79Zm-22.94-12.4h2.14c1.9,0,2.84-.7,2.84-2.12s-.86-2-2.63-1.95h-2.36Zm.1,4.51,0,7.64H177l-.06-21.05,9,0a13.23,13.23,0,0,1,5.11.77,6.23,6.23,0,0,1,2.79,2.36,6.62,6.62,0,0,1,1,3.54,6.18,6.18,0,0,1-2.07,4.86,8.27,8.27,0,0,1-5.62,1.88Zm-27.93,1.62,6-1.09c.51,1.7,1.8,2.52,3.89,2.51,1.64,0,2.43-.41,2.42-1.3a1.18,1.18,0,0,0-.53-1,5.89,5.89,0,0,0-2-.65c-3.69-.72-6.06-1.63-7.11-2.76a5.82,5.82,0,0,1-1.58-4,6.2,6.2,0,0,1,2.26-4.93c1.48-1.33,3.65-2,6.46-2,4.29,0,7.14,1.71,8.5,5.15L168.54,292a3.25,3.25,0,0,0-3.38-2.1c-1.42,0-2.11.45-2.11,1.33a1,1,0,0,0,.48.88,5.51,5.51,0,0,0,1.86.63,40.76,40.76,0,0,1,5.37,1.4,5.92,5.92,0,0,1,2.66,2.11,6,6,0,0,1,1.05,3.5,6.13,6.13,0,0,1-2.58,5.16,10.78,10.78,0,0,1-6.78,2c-5.11,0-8.31-2.12-9.52-6.38m-.37,1.07v5l-15.84,0-.06-21,15.85,0v4.86l-9.5,0v3.07l7.67,0v4.67l-7.67,0v3.44Z"/><path class="cls-16" d="M316.72,301v5.18l-14.74,0-.05-21.06h6.47l0,15.87Zm-23-2.78,5.91.33a8.71,8.71,0,0,1-2.86,5.95,9.83,9.83,0,0,1-12.91-.76,11,11,0,0,1-2.67-7.82,12.13,12.13,0,0,1,2.5-8,8.47,8.47,0,0,1,6.94-3.05,8.68,8.68,0,0,1,6.44,2.29,9.55,9.55,0,0,1,2.54,6.14l-6,.34a4.76,4.76,0,0,0-.83-3.06,2.36,2.36,0,0,0-1.9-.91c-2,0-3.06,2-3,6.13,0,2.27.3,3.85.84,4.67a2.45,2.45,0,0,0,2.21,1.22c1.7,0,2.65-1.17,2.86-3.48m-22,3.06v5l-15.84,0-.06-21.05,15.85-.05v4.86l-9.5,0v3.06l7.67,0v4.67l-7.67,0v3.44Zm-22.06-10.93,0,16-6.12,0,0-16h-4.36v-5.05l14.83,0,0,5.05Z"/><path class="cls-13" d="M316.72,301v5.18l-14.74,0-.05-21.06h6.47l0,15.87Zm-23-2.78,5.91.33a8.66,8.66,0,0,1-2.86,5.94,9.81,9.81,0,0,1-12.91-.75,11,11,0,0,1-2.67-7.82,12.13,12.13,0,0,1,2.5-8,8.47,8.47,0,0,1,6.94-3.05,8.68,8.68,0,0,1,6.44,2.29,9.55,9.55,0,0,1,2.54,6.14l-6,.34a4.69,4.69,0,0,0-.82-3.06,2.36,2.36,0,0,0-1.9-.91c-2,0-3.06,2-3,6.13,0,2.27.3,3.85.84,4.67a2.45,2.45,0,0,0,2.21,1.22c1.7,0,2.65-1.17,2.86-3.48m-22,3.06v5l-15.84,0-.06-21.05,15.85-.05v4.86l-9.5,0v3.06l7.67,0v4.67l-7.67,0v3.44Zm-22.06-10.93,0,16-6.12,0,0-16h-4.36v-5.05l14.83,0,0,5.05Z"/><path class="cls-16" d="M375.45,301l0,5-15.85.05L359.57,285l15.84,0v4.86l-9.5,0v3.06l7.67,0v4.67l-7.67,0V301Zm-30.17.39h3.12a2.35,2.35,0,0,0,1.74-.57,1.88,1.88,0,0,0,.53-1.3,2,2,0,0,0-.54-1.32,2.51,2.51,0,0,0-2-.63h-2.9Zm0-8.27h3a2,2,0,0,0,1.6-.57,2,2,0,0,0,.44-1.23c0-1.17-.7-1.77-2.15-1.76h-2.87Zm-5.93,13-.06-21.05,10.7,0c2.21,0,3.82.56,4.84,1.69a5.43,5.43,0,0,1,1.55,3.82,5.11,5.11,0,0,1-.87,2.84,4.6,4.6,0,0,1-2.65,1.77c2.71.66,4.08,2.27,4.08,4.88a6.7,6.7,0,0,1-1.41,4.21c-1,1.2-3,1.83-6.15,1.84Zm-3.5-21,0,14c0,2.62-.78,4.54-2.35,5.68a9.92,9.92,0,0,1-6.12,1.76,10.87,10.87,0,0,1-6.38-1.66q-2.43-1.65-2.45-5.39l0-14.3,6.57,0,0,13.54a3,3,0,0,0,.66,2.18,2.61,2.61,0,0,0,2,.69,3.48,3.48,0,0,0,1.92-.48,2,2,0,0,0,.88-1.14,10.36,10.36,0,0,0,.15-2.46l0-12.34Z"/><path class="cls-13" d="M375.45,301l0,5-15.85.05L359.57,285l15.84,0v4.86l-9.5,0v3.06l7.67,0v4.67l-7.67,0V301Zm-30.17.39h3.12a2.35,2.35,0,0,0,1.74-.57,1.88,1.88,0,0,0,.53-1.3,2,2,0,0,0-.54-1.32,2.51,2.51,0,0,0-2-.63h-2.9Zm0-8.27h3a2,2,0,0,0,1.6-.57,2,2,0,0,0,.44-1.23c0-1.17-.7-1.77-2.15-1.76h-2.87Zm-5.93,13-.06-21.05,10.7,0c2.21,0,3.82.56,4.84,1.69a5.43,5.43,0,0,1,1.55,3.82,5.11,5.11,0,0,1-.87,2.84,4.6,4.6,0,0,1-2.65,1.77c2.71.66,4.08,2.26,4.08,4.88a6.7,6.7,0,0,1-1.41,4.21c-1,1.2-3,1.83-6.15,1.84Zm-3.5-21,0,14c0,2.62-.78,4.54-2.35,5.68a9.92,9.92,0,0,1-6.12,1.76,10.87,10.87,0,0,1-6.38-1.66q-2.43-1.65-2.45-5.39l0-14.3,6.57,0,0,13.54a3,3,0,0,0,.66,2.18,2.61,2.61,0,0,0,2,.69,3.5,3.5,0,0,0,1.92-.48,2,2,0,0,0,.88-1.14,10.36,10.36,0,0,0,.15-2.46l0-12.34Z"/><path class="cls-13" d="M225.52,293.87h2.75a3.22,3.22,0,0,0,1.95-.51,1.63,1.63,0,0,0,.76-1.49c0-1.36-.86-2-2.5-2h-3Zm12.28,12.52-7.16,0-3.09-8h-2l0,8.05h-6.47L219,285.39l11,0a8.52,8.52,0,0,1,5.66,1.69,5.63,5.63,0,0,1,2,4.51,7.16,7.16,0,0,1-.72,3.22,6.34,6.34,0,0,1-3,2.44ZM206.32,302a2.46,2.46,0,0,0,2.36-1.43,13.25,13.25,0,0,0,.68-5.24c0-3.66-1-5.46-3-5.45s-3.15,2.09-3.14,6.25c0,3.92,1,5.87,3,5.87m0,4.76a9.56,9.56,0,0,1-7.23-2.91A11,11,0,0,1,196.3,296a11.5,11.5,0,0,1,2.66-7.77,10.37,10.37,0,0,1,14.58-.23,10.79,10.79,0,0,1,2.8,7.73,11.24,11.24,0,0,1-2.79,8A9.29,9.29,0,0,1,206.36,306.79Zm-22.94-12.4h2.14c1.9,0,2.84-.7,2.84-2.12s-.86-2-2.63-1.95h-2.36Zm.1,4.51,0,7.64H177l-.06-21.05,9,0a13.23,13.23,0,0,1,5.11.77,6.23,6.23,0,0,1,2.79,2.36,6.62,6.62,0,0,1,1,3.54,6.18,6.18,0,0,1-2.07,4.86,8.27,8.27,0,0,1-5.62,1.88Zm-27.93,1.62,6-1.09c.51,1.7,1.8,2.52,3.89,2.51,1.64,0,2.43-.41,2.42-1.3a1.18,1.18,0,0,0-.53-1,5.89,5.89,0,0,0-2-.65c-3.69-.72-6.06-1.63-7.11-2.76a5.82,5.82,0,0,1-1.58-4,6.2,6.2,0,0,1,2.26-4.93c1.48-1.33,3.65-2,6.46-2,4.29,0,7.14,1.71,8.5,5.15L168.54,292a3.25,3.25,0,0,0-3.38-2.1c-1.42,0-2.11.45-2.11,1.33a1,1,0,0,0,.48.88,5.51,5.51,0,0,0,1.86.63,40.76,40.76,0,0,1,5.37,1.4,5.92,5.92,0,0,1,2.66,2.11,6,6,0,0,1,1.05,3.5,6.13,6.13,0,0,1-2.58,5.16,10.78,10.78,0,0,1-6.78,2c-5.11,0-8.31-2.12-9.52-6.38m-.37,1.07v5l-15.84,0-.06-21,15.85,0v4.86l-9.5,0v3.07l7.67,0v4.67l-7.67,0v3.44Z"/><path class="cls-13" d="M316.72,301v5.18l-14.74,0-.05-21.06h6.47l0,15.87Zm-23-2.78,5.91.33a8.66,8.66,0,0,1-2.86,5.94,9.81,9.81,0,0,1-12.91-.75,11,11,0,0,1-2.67-7.82,12.13,12.13,0,0,1,2.5-8,8.47,8.47,0,0,1,6.94-3.05,8.68,8.68,0,0,1,6.44,2.29,9.55,9.55,0,0,1,2.54,6.14l-6,.34a4.69,4.69,0,0,0-.82-3.06,2.36,2.36,0,0,0-1.9-.91c-2,0-3.06,2-3,6.13,0,2.27.3,3.85.84,4.67a2.45,2.45,0,0,0,2.21,1.22c1.7,0,2.65-1.17,2.86-3.48m-22,3.06v5l-15.84,0-.06-21.05,15.85-.05v4.86l-9.5,0v3.06l7.67,0v4.67l-7.67,0v3.44Zm-22.06-10.93,0,16-6.12,0,0-16h-4.36v-5.05l14.83,0,0,5.05Z"/><path class="cls-13" d="M375.45,301l0,5-15.85.05L359.57,285l15.84,0v4.86l-9.5,0v3.06l7.67,0v4.67l-7.67,0V301Zm-30.17.39h3.12a2.35,2.35,0,0,0,1.74-.57,1.88,1.88,0,0,0,.53-1.3,2,2,0,0,0-.54-1.32,2.51,2.51,0,0,0-2-.63h-2.9Zm0-8.27h3a2,2,0,0,0,1.6-.57,2,2,0,0,0,.44-1.23c0-1.17-.7-1.77-2.15-1.76h-2.87Zm-5.93,13-.06-21.05,10.7,0c2.21,0,3.82.56,4.84,1.69a5.43,5.43,0,0,1,1.55,3.82,5.11,5.11,0,0,1-.87,2.84,4.6,4.6,0,0,1-2.65,1.77c2.71.66,4.08,2.26,4.08,4.88a6.7,6.7,0,0,1-1.41,4.21c-1,1.2-3,1.83-6.15,1.84Zm-3.5-21,0,14c0,2.62-.78,4.54-2.35,5.68a9.92,9.92,0,0,1-6.12,1.76,10.87,10.87,0,0,1-6.38-1.66q-2.43-1.65-2.45-5.39l0-14.3,6.57,0,0,13.54a3,3,0,0,0,.66,2.18,2.61,2.61,0,0,0,2,.69,3.5,3.5,0,0,0,1.92-.48,2,2,0,0,0,.88-1.14,10.36,10.36,0,0,0,.15-2.46l0-12.34Z"/></svg>