<?xml version="1.0" encoding="UTF-8"?>
<!DOCTYPE svg PUBLIC "-//W3C//DTD SVG 1.1//EN" "http://www.w3.org/Graphics/SVG/1.1/DTD/svg11.dtd">
<svg xmlns="http://www.w3.org/2000/svg" version="1.1" width="422px" height="500px" style="shape-rendering:geometricPrecision; text-rendering:geometricPrecision; image-rendering:optimizeQuality; fill-rule:evenodd; clip-rule:evenodd" xmlns:xlink="http://www.w3.org/1999/xlink">
<g><path style="opacity:0.96" fill="#f6f6f6" d="M -0.5,-0.5 C 140.167,-0.5 280.833,-0.5 421.5,-0.5C 421.5,109.5 421.5,219.5 421.5,329.5C 351.244,385.459 281.577,442.126 212.5,499.5C 211.167,499.5 209.833,499.5 208.5,499.5C 138.858,442.863 69.1912,386.197 -0.5,329.5C -0.5,219.5 -0.5,109.5 -0.5,-0.5 Z"/></g>
<g><path style="opacity:1" fill="#1e1e1c" d="M 8.5,8.5 C 143.167,8.5 277.833,8.5 412.5,8.5C 412.667,113.834 412.5,219.167 412,324.5C 344.945,379.226 277.612,433.56 210,487.5C 142.432,433.938 75.4316,379.605 9,324.5C 8.5,219.167 8.33334,113.834 8.5,8.5 Z"/></g>
<g><path style="opacity:1" fill="#e35025" d="M 26.5,29.5 C 148.833,29.5 271.167,29.5 393.5,29.5C 393.5,125.167 393.5,220.833 393.5,316.5C 392.501,221.335 392.167,126.001 392.5,30.5C 271.167,30.5 149.833,30.5 28.5,30.5C 28.8327,126.001 28.4994,221.335 27.5,316.5C 26.5006,221.001 26.1673,125.335 26.5,29.5 Z"/></g>
<g><path style="opacity:1" fill="#ae4322" d="M 26.5,29.5 C 148.999,28.5005 271.666,28.1671 394.5,28.5C 394.833,124.668 394.499,220.668 393.5,316.5C 393.5,220.833 393.5,125.167 393.5,29.5C 271.167,29.5 148.833,29.5 26.5,29.5 Z"/></g>
<g><path style="opacity:1" fill="#df5025" d="M 393.5,316.5 C 332.835,367.158 271.835,417.491 210.5,467.5C 149.165,417.491 88.1648,367.158 27.5,316.5C 28.4994,221.335 28.8327,126.001 28.5,30.5C 149.833,30.5 271.167,30.5 392.5,30.5C 392.167,126.001 392.501,221.335 393.5,316.5 Z"/></g>
<g><path style="opacity:1" fill="#be4723" d="M 32.5,35.5 C 151.167,34.1667 269.833,34.1667 388.5,35.5C 388.167,35.5 387.833,35.5 387.5,35.5C 332.331,35.1677 277.331,35.501 222.5,36.5C 210.148,36.3512 197.815,36.6846 185.5,37.5C 187.292,36.6909 189.292,36.1909 191.5,36C 138.834,35.5 86.1677,35.3333 33.5,35.5C 33.1667,35.5 32.8333,35.5 32.5,35.5 Z"/></g>
<g><path style="opacity:1" fill="#32231c" d="M 33.5,36.5 C 33.5,36.1667 33.5,35.8333 33.5,35.5C 86.1677,35.3333 138.834,35.5 191.5,36C 189.292,36.1909 187.292,36.6909 185.5,37.5C 184.5,37.5 183.5,37.5 182.5,37.5C 133.003,36.5011 83.3361,36.1678 33.5,36.5 Z"/></g>
<g><path style="opacity:1" fill="#33231c" d="M 222.5,36.5 C 277.331,35.501 332.331,35.1677 387.5,35.5C 387.5,35.8333 387.5,36.1667 387.5,36.5C 337.664,36.1678 287.997,36.5011 238.5,37.5C 233.203,36.7255 227.87,36.3921 222.5,36.5 Z"/></g>
<g><path style="opacity:1" fill="#532b1e" d="M 32.5,35.5 C 32.8333,35.5 33.1667,35.5 33.5,35.5C 33.5,35.8333 33.5,36.1667 33.5,36.5C 33.1684,70.3375 33.5017,104.004 34.5,137.5C 34.2172,138.289 33.7172,138.956 33,139.5C 32.5,104.835 32.3333,70.1683 32.5,35.5 Z"/></g>
<g><path style="opacity:1" fill="#1f1e1b" d="M 33.5,36.5 C 83.3361,36.1678 133.003,36.5011 182.5,37.5C 117.527,47.966 68.1936,81.2993 34.5,137.5C 33.5017,104.004 33.1684,70.3375 33.5,36.5 Z"/></g>
<g><path style="opacity:1" fill="#20201e" d="M 238.5,37.5 C 287.997,36.5011 337.664,36.1678 387.5,36.5C 387.832,70.3375 387.498,104.004 386.5,137.5C 383.887,132.443 380.887,127.61 377.5,123C 376.551,122.383 375.718,122.549 375,123.5C 374.219,124.729 373.719,126.062 373.5,127.5C 378.428,135.689 383.094,144.022 387.5,152.5C 387.832,203.003 387.499,253.336 386.5,303.5C 360.517,264.335 326.517,234.168 284.5,213C 224.998,186.265 167.664,190.265 112.5,225C 81.5967,246.403 55.5967,272.57 34.5,303.5C 33.5011,253.336 33.1678,203.003 33.5,152.5C 60.9991,99.1747 103.666,64.3414 161.5,48C 168.076,46.2511 174.743,45.0845 181.5,44.5C 186.731,44.5557 191.731,43.889 196.5,42.5C 261.756,39.7225 316.256,62.3892 360,110.5C 361.602,108.631 362.602,106.631 363,104.5C 329.443,67.6349 287.943,45.3016 238.5,37.5 Z"/></g>
<g><path style="opacity:1" fill="#552c1e" d="M 387.5,35.5 C 387.833,35.5 388.167,35.5 388.5,35.5C 388.667,70.1683 388.5,104.835 388,139.5C 387.283,138.956 386.783,138.289 386.5,137.5C 387.498,104.004 387.832,70.3375 387.5,36.5C 387.5,36.1667 387.5,35.8333 387.5,35.5 Z"/></g>
<g><path style="opacity:1" fill="#42271d" d="M 43.5,44.5 C 67.67,43.1711 92.0033,43.1711 116.5,44.5C 116.043,45.2975 115.376,45.6309 114.5,45.5C 91.3393,44.5025 68.006,44.1691 44.5,44.5C 44.1667,44.5 43.8333,44.5 43.5,44.5 Z"/></g>
<g><path style="opacity:1" fill="#4a291e" d="M 196.5,42.5 C 191.731,43.889 186.731,44.5557 181.5,44.5C 186.269,43.111 191.269,42.4443 196.5,42.5 Z"/></g>
<g><path style="opacity:1" fill="#41261c" d="M 377.5,44.5 C 377.167,44.5 376.833,44.5 376.5,44.5C 352.661,44.1691 328.994,44.5024 305.5,45.5C 304.957,45.44 304.624,45.1067 304.5,44.5C 328.997,43.1711 353.33,43.1711 377.5,44.5 Z"/></g>
<g><path style="opacity:1" fill="#e45125" d="M 44.5,44.5 C 68.006,44.1691 91.3393,44.5025 114.5,45.5C 87.6795,58.9815 64.6795,77.3148 45.5,100.5C 44.5031,82.0075 44.1698,63.3408 44.5,44.5 Z"/></g>
<g><path style="opacity:1" fill="#e45125" d="M 305.5,45.5 C 328.994,44.5024 352.661,44.1691 376.5,44.5C 376.83,63.3408 376.497,82.0075 375.5,100.5C 356.238,76.896 332.905,58.5626 305.5,45.5 Z"/></g>
<g><path style="opacity:1" fill="#b84522" d="M 43.5,44.5 C 43.8333,44.5 44.1667,44.5 44.5,44.5C 44.1698,63.3408 44.5031,82.0075 45.5,100.5C 45.2172,101.289 44.7172,101.956 44,102.5C 43.5,83.1695 43.3334,63.8362 43.5,44.5 Z"/></g>
<g><path style="opacity:1" fill="#b94522" d="M 376.5,44.5 C 376.833,44.5 377.167,44.5 377.5,44.5C 377.667,63.8362 377.5,83.1695 377,102.5C 376.283,101.956 375.783,101.289 375.5,100.5C 376.497,82.0075 376.83,63.3408 376.5,44.5 Z"/></g>
<g><path style="opacity:1" fill="#fbfbfb" d="M 184.5,186.5 C 183.167,165.511 182.5,144.177 182.5,122.5C 182.505,100.762 182.839,79.0951 183.5,57.5C 192.799,56.4151 202.132,56.2484 211.5,57C 218,59.5 222.5,64 225,70.5C 225.667,84.5 225.667,98.5 225,112.5C 223.753,115.329 222.253,117.995 220.5,120.5C 222.2,123.039 223.7,125.705 225,128.5C 225.949,143.235 225.616,157.902 224,172.5C 221.438,178.061 217.272,181.894 211.5,184C 202.511,185.041 193.511,185.874 184.5,186.5 Z"/></g>
<g><path style="opacity:1" fill="#a9aaa9" d="M 183.5,57.5 C 182.839,79.0951 182.505,100.762 182.5,122.5C 182.5,144.177 183.167,165.511 184.5,186.5C 183.791,187.404 182.791,187.737 181.5,187.5C 180.839,143.82 181.505,100.487 183.5,57.5 Z"/></g>
<g><path style="opacity:1" fill="#fcfcfc" d="M 173.5,59.5 C 175.495,102.154 176.161,145.154 175.5,188.5C 171.426,188.782 167.426,189.448 163.5,190.5C 163.667,175.83 163.5,161.163 163,146.5C 161.731,147.905 161.231,149.571 161.5,151.5C 160.634,162.894 159.301,174.227 157.5,185.5C 156.835,187.698 156.168,190.031 155.5,192.5C 153.974,192.994 152.641,193.661 151.5,194.5C 149.063,194.756 146.729,195.423 144.5,196.5C 142.461,187.889 140.794,179.222 139.5,170.5C 139.328,166.466 138.828,162.466 138,158.5C 137.5,172.163 137.333,185.829 137.5,199.5C 133.725,200.555 130.058,201.888 126.5,203.5C 125.501,161.003 125.168,118.337 125.5,75.5C 128.682,73.3723 132.182,71.7056 136,70.5C 136.772,70.6448 137.439,70.9781 138,71.5C 141.724,96.5678 145.724,121.568 150,146.5C 151.789,133.813 153.622,121.147 155.5,108.5C 157.217,105.155 157.884,101.489 157.5,97.5C 159.036,85.4148 161.036,73.4148 163.5,61.5C 166.708,60.198 170.041,59.5313 173.5,59.5 Z"/></g>
<g><path style="opacity:1" fill="#989897" d="M 173.5,59.5 C 174.209,58.596 175.209,58.2627 176.5,58.5C 176.832,102.003 176.499,145.337 175.5,188.5C 176.161,145.154 175.495,102.154 173.5,59.5 Z"/></g>
<g><path style="opacity:1" fill="#f6f6f6" d="M 242.5,59.5 C 257.46,59.6386 267.627,66.6386 273,80.5C 273.667,113.167 273.667,145.833 273,178.5C 271.57,184.261 268.07,188.095 262.5,190C 247.515,191.426 237.015,185.259 231,171.5C 230.333,137.833 230.333,104.167 231,70.5C 234.07,65.9273 237.904,62.2607 242.5,59.5 Z"/></g>
<g><path style="opacity:1" fill="#535352" d="M 205.5,69.5 C 202.5,69.5 199.5,69.5 196.5,69.5C 196.5,84.5 196.5,99.5 196.5,114.5C 195.504,99.3424 195.17,84.0091 195.5,68.5C 199.042,68.1872 202.375,68.5206 205.5,69.5 Z"/></g>
<g><path style="opacity:1" fill="#1e1f1d" d="M 205.5,69.5 C 207.903,69.393 209.736,70.393 211,72.5C 211.667,84.5 211.667,96.5 211,108.5C 210.727,110.329 209.893,111.829 208.5,113C 204.605,114.266 200.605,114.766 196.5,114.5C 196.5,99.5 196.5,84.5 196.5,69.5C 199.5,69.5 202.5,69.5 205.5,69.5 Z"/></g>
<g><path style="opacity:1" fill="#f8f8f8" d="M 317.5,208.5 C 317.806,211.385 317.473,214.052 316.5,216.5C 313.194,214.511 309.861,212.511 306.5,210.5C 304.304,191.51 302.137,172.51 300,153.5C 298.367,149.367 295.534,146.367 291.5,144.5C 290.833,163.5 290.167,182.5 289.5,201.5C 285.841,200.587 282.341,199.254 279,197.5C 278.167,154.496 278.333,111.496 279.5,68.5C 291.679,72.1677 302.179,78.501 311,87.5C 314.137,92.1082 316.47,97.1082 318,102.5C 318.667,115.833 318.667,129.167 318,142.5C 316.965,146.864 314.465,150.03 310.5,152C 314.841,170.567 317.174,189.4 317.5,208.5 Z"/></g>
<g><path style="opacity:1" fill="#1e1f1d" d="M 247.5,72.5 C 252.55,72.2742 256.383,74.2742 259,78.5C 259.667,110.167 259.667,141.833 259,173.5C 258.204,175.967 256.537,177.3 254,177.5C 249.956,176.984 246.956,174.984 245,171.5C 244.333,139.5 244.333,107.5 245,75.5C 246.045,74.6266 246.878,73.6266 247.5,72.5 Z"/></g>
<g><path style="opacity:1" fill="#c2c2c1" d="M 125.5,75.5 C 125.168,118.337 125.501,161.003 126.5,203.5C 126.44,204.043 126.107,204.376 125.5,204.5C 124.169,161.335 124.169,118.335 125.5,75.5 Z"/></g>
<g><path style="opacity:1" fill="#f7f7f7" d="M 85.5,230.5 C 84.5269,228.052 84.1936,225.385 84.5,222.5C 87.9589,179.119 91.9589,135.785 96.5,92.5C 99.899,89.7719 103.566,87.4385 107.5,85.5C 112.42,124.282 117.087,163.115 121.5,202C 121.456,203.764 121.122,205.431 120.5,207C 116.504,208.663 112.837,210.829 109.5,213.5C 107.581,201.228 106.248,188.895 105.5,176.5C 103.037,176.781 100.87,177.781 99,179.5C 97.4698,194.166 95.9698,208.832 94.5,223.5C 91.1708,225.506 88.1708,227.839 85.5,230.5 Z"/></g>
<g><path style="opacity:1" fill="#20211f" d="M 291.5,86.5 C 297.06,87.8666 301.56,90.8666 305,95.5C 305.667,108.5 305.667,121.5 305,134.5C 304.196,135.804 303.029,136.471 301.5,136.5C 298.387,135.444 295.387,134.111 292.5,132.5C 291.501,117.181 291.167,101.848 291.5,86.5 Z"/></g>
<g><path style="opacity:1" fill="#eaeaea" d="M 324.5,93.5 C 323.501,135.663 323.168,177.997 323.5,220.5C 322.335,177.669 322.169,134.669 323,91.5C 323.717,92.0442 324.217,92.7109 324.5,93.5 Z"/></g>
<g><path style="opacity:1" fill="#f4f4f4" d="M 324.5,93.5 C 327.615,95.2314 330.615,97.2314 333.5,99.5C 334.833,142.5 334.833,185.5 333.5,228.5C 329.835,226.159 326.501,223.493 323.5,220.5C 323.168,177.997 323.501,135.663 324.5,93.5 Z"/></g>
<g><path style="opacity:1" fill="#b4b5b4" d="M 157.5,97.5 C 157.884,101.489 157.217,105.155 155.5,108.5C 155.808,104.64 156.475,100.974 157.5,97.5 Z"/></g>
<g><path style="opacity:1" fill="#434442" d="M 339.5,104.5 C 338.502,141.663 338.168,178.996 338.5,216.5C 337.17,178.998 337.17,141.331 338.5,103.5C 339.107,103.624 339.44,103.957 339.5,104.5 Z"/></g>
<g><path style="opacity:1" fill="#f7f7f7" d="M 339.5,104.5 C 342.771,107.268 345.938,110.268 349,113.5C 349.333,151.167 349.667,188.833 350,226.5C 351.282,232.078 354.282,236.412 359,239.5C 360.03,239.164 360.53,238.497 360.5,237.5C 361.167,201.167 361.833,164.833 362.5,128.5C 365.234,131.625 367.734,134.958 370,138.5C 370.667,176.833 370.667,215.167 370,253.5C 368.334,256.379 365.834,257.212 362.5,256C 349.813,245.785 341.813,232.618 338.5,216.5C 338.168,178.996 338.502,141.663 339.5,104.5 Z"/></g>
<g><path style="opacity:1" fill="#ededed" d="M 366.5,107.5 C 370.123,109.123 372.79,111.79 374.5,115.5C 372.853,118.473 370.853,121.14 368.5,123.5C 366.296,121.133 364.296,118.633 362.5,116C 364.238,113.357 365.572,110.523 366.5,107.5 Z"/></g>
<g><path style="opacity:1" fill="#f4f4f4" d="M 73.5,160.5 C 72.8333,151.167 72.1667,141.833 71.5,132.5C 70.7961,130.656 69.4628,130.156 67.5,131C 64.4565,133.593 62.2899,136.76 61,140.5C 60.5,173.498 60.3334,206.498 60.5,239.5C 65.4537,238.043 68.6204,234.709 70,229.5C 71.2461,217.89 71.9127,206.224 72,194.5C 74.7028,191.629 77.5361,188.962 80.5,186.5C 81.4944,196.987 81.8278,207.654 81.5,218.5C 78.1419,234.067 70.1419,246.567 57.5,256C 54.4718,257.14 52.3051,256.306 51,253.5C 50.0331,217.794 50.3664,182.128 52,146.5C 55.108,133.761 61.608,123.261 71.5,115C 74.1667,114.333 76.8333,114.333 79.5,115C 80.7014,115.903 81.5348,117.069 82,118.5C 82.6667,129.833 82.6667,141.167 82,152.5C 79.2972,155.371 76.4639,158.038 73.5,160.5 Z"/></g>
<g><path style="opacity:1" fill="#1e1f1d" d="M 205.5,127.5 C 207.679,127.84 209.512,128.84 211,130.5C 211.667,142.5 211.667,154.5 211,166.5C 210.602,169.232 209.102,171.065 206.5,172C 203.183,172.498 199.85,172.665 196.5,172.5C 196.5,157.5 196.5,142.5 196.5,127.5C 199.5,127.5 202.5,127.5 205.5,127.5 Z"/></g>
<g><path style="opacity:1" fill="#5b5b5a" d="M 205.5,127.5 C 202.5,127.5 199.5,127.5 196.5,127.5C 196.5,142.5 196.5,157.5 196.5,172.5C 195.504,157.342 195.17,142.009 195.5,126.5C 199.042,126.187 202.375,126.521 205.5,127.5 Z"/></g>
<g><path style="opacity:1" fill="#9f9f9f" d="M 362.5,128.5 C 361.833,164.833 361.167,201.167 360.5,237.5C 360.167,200.827 360.5,164.161 361.5,127.5C 362.107,127.624 362.44,127.957 362.5,128.5 Z"/></g>
<g><path style="opacity:1" fill="#cfcfcf" d="M 71.5,132.5 C 72.1667,141.833 72.8333,151.167 73.5,160.5C 73.44,161.043 73.1067,161.376 72.5,161.5C 71.5016,151.856 71.1682,142.19 71.5,132.5 Z"/></g>
<g><path style="opacity:1" fill="#d9d9d9" d="M 291.5,144.5 C 291.833,163.845 291.5,183.178 290.5,202.5C 289.893,202.376 289.56,202.043 289.5,201.5C 290.167,182.5 290.833,163.5 291.5,144.5 Z"/></g>
<g><path style="opacity:1" fill="#552c1e" d="M 33.5,152.5 C 33.1678,203.003 33.5011,253.336 34.5,303.5C 34.2172,304.289 33.7172,304.956 33,305.5C 32.1683,254.332 32.335,203.332 33.5,152.5 Z"/></g>
<g><path style="opacity:1" fill="#552c1e" d="M 387.5,152.5 C 388.665,203.332 388.832,254.332 388,305.5C 387.283,304.956 386.783,304.289 386.5,303.5C 387.499,253.336 387.832,203.003 387.5,152.5 Z"/></g>
<g><path style="opacity:1" fill="#484947" d="M 102.5,164.5 C 101.51,158.355 101.177,152.022 101.5,145.5C 101.335,141.818 101.501,138.152 102,134.5C 102.459,142.169 102.959,149.836 103.5,157.5C 103.497,160.025 103.163,162.359 102.5,164.5 Z"/></g>
<g><path style="opacity:1" fill="#717271" d="M 101.5,145.5 C 101.177,152.022 101.51,158.355 102.5,164.5C 102.44,165.043 102.107,165.376 101.5,165.5C 100.182,158.678 100.182,152.011 101.5,145.5 Z"/></g>
<g><path style="opacity:1" fill="#3d3e3c" d="M 139.5,170.5 C 138.833,180.167 138.167,189.833 137.5,199.5C 137.333,185.829 137.5,172.163 138,158.5C 138.828,162.466 139.328,166.466 139.5,170.5 Z"/></g>
<g><path style="opacity:1" fill="#d5d5d5" d="M 163.5,190.5 C 162.833,177.5 162.167,164.5 161.5,151.5C 161.231,149.571 161.731,147.905 163,146.5C 163.5,161.163 163.667,175.83 163.5,190.5 Z"/></g>
<g><path style="opacity:1" fill="#d5d5d5" d="M 80.5,186.5 C 80.56,185.957 80.8933,185.624 81.5,185.5C 82.8238,196.66 82.8238,207.66 81.5,218.5C 81.8278,207.654 81.4944,196.987 80.5,186.5 Z"/></g>
<g><path style="opacity:1" fill="#565755" d="M 157.5,185.5 C 157.813,188.247 157.48,190.914 156.5,193.5C 154.929,194.309 153.262,194.643 151.5,194.5C 152.641,193.661 153.974,192.994 155.5,192.5C 156.168,190.031 156.835,187.698 157.5,185.5 Z"/></g>
<g><path style="opacity:1" fill="#211f1c" d="M 192.5,203.5 C 242.486,201.107 286.82,215.607 325.5,247C 349.171,266.327 368.837,288.994 384.5,315C 327.263,363.736 269.263,411.569 210.5,458.5C 155.714,414.221 101.048,369.721 46.5,325C 42.6741,322.101 39.3408,318.768 36.5,315C 59.1542,277.679 89.1542,247.679 126.5,225C 147.24,213.474 169.24,206.308 192.5,203.5 Z"/></g>
<g><path style="opacity:1" fill="#8c8d8c" d="M 317.5,208.5 C 318.803,211.355 318.803,214.355 317.5,217.5C 316.893,217.376 316.56,217.043 316.5,216.5C 317.473,214.052 317.806,211.385 317.5,208.5 Z"/></g>
<g><path style="opacity:1" fill="#b84623" d="M 193.5,222.5 C 189.081,223.972 184.414,224.638 179.5,224.5C 183.919,223.028 188.586,222.362 193.5,222.5 Z"/></g>
<g><path style="opacity:1" fill="#e55125" d="M 179.5,224.5 C 184.414,224.638 189.081,223.972 193.5,222.5C 237.592,218.693 277.592,229.86 313.5,256C 244.833,256.667 176.167,256.667 107.5,256C 128.928,239.79 152.928,229.29 179.5,224.5 Z"/></g>
<g><path style="opacity:1" fill="#949594" d="M 84.5,222.5 C 84.1936,225.385 84.5269,228.052 85.5,230.5C 85.44,231.043 85.1067,231.376 84.5,231.5C 83.1968,228.355 83.1968,225.355 84.5,222.5 Z"/></g>
<g><path style="opacity:1" fill="#e45125" d="M 333.5,273.5 C 251.5,274.833 169.5,274.833 87.5,273.5C 92.6638,268.504 97.9972,263.671 103.5,259C 174.833,258.333 246.167,258.333 317.5,259C 323.003,263.671 328.336,268.504 333.5,273.5 Z"/></g>
<g><path style="opacity:1" fill="#893920" d="M 87.5,273.5 C 169.5,274.833 251.5,274.833 333.5,273.5C 334.043,273.56 334.376,273.893 334.5,274.5C 251.833,275.833 169.167,275.833 86.5,274.5C 86.6236,273.893 86.9569,273.56 87.5,273.5 Z"/></g>
<g><path style="opacity:1" fill="#e05025" d="M 348.5,291.5 C 256.5,292.833 164.5,292.833 72.5,291.5C 75.9541,286.874 79.6207,282.374 83.5,278C 168.167,277.333 252.833,277.333 337.5,278C 341.774,282.072 345.44,286.572 348.5,291.5 Z"/></g>
<g><path style="opacity:1" fill="#c14723" d="M 72.5,291.5 C 164.5,292.833 256.5,292.833 348.5,291.5C 349.167,291.5 349.5,291.833 349.5,292.5C 256.833,293.833 164.167,293.833 71.5,292.5C 71.5,291.833 71.8333,291.5 72.5,291.5 Z"/></g>
<g><path style="opacity:1" fill="#30231c" d="M 71.5,292.5 C 164.167,293.833 256.833,293.833 349.5,292.5C 350.043,292.56 350.376,292.893 350.5,293.5C 257.167,294.833 163.833,294.833 70.5,293.5C 70.6236,292.893 70.9569,292.56 71.5,292.5 Z"/></g>
<g><path style="opacity:1" fill="#e55125" d="M 67.5,297.5 C 162.834,297.333 258.167,297.5 353.5,298C 356.518,302.203 358.851,306.703 360.5,311.5C 260.5,311.5 160.5,311.5 60.5,311.5C 62.2873,306.592 64.6206,301.925 67.5,297.5 Z"/></g>
<g><path style="opacity:1" fill="#2c221c" d="M 355.5,318.5 C 355.611,317.883 355.944,317.383 356.5,317C 258.999,316.168 161.666,316.334 64.5,317.5C 63.9569,317.44 63.6236,317.107 63.5,316.5C 161.498,315.5 259.498,315.167 357.5,315.5C 357.715,317.179 357.048,318.179 355.5,318.5 Z"/></g>
<g><path style="opacity:1" fill="#bf4723" d="M 64.5,317.5 C 161.666,316.334 258.999,316.168 356.5,317C 355.944,317.383 355.611,317.883 355.5,318.5C 355.167,318.5 354.833,318.5 354.5,318.5C 258.5,317.167 162.5,317.167 66.5,318.5C 65.8333,318.167 65.1667,317.833 64.5,317.5 Z"/></g>
<g><path style="opacity:1" fill="#e15025" d="M 354.5,318.5 C 350.361,322.468 346.027,326.301 341.5,330C 254.167,330.667 166.833,330.667 79.5,330C 74.9728,326.301 70.6395,322.468 66.5,318.5C 162.5,317.167 258.5,317.167 354.5,318.5 Z"/></g>
<g><path style="opacity:1" fill="#863820" d="M 332.5,337.5 C 251.167,336.167 169.833,336.167 88.5,337.5C 87.9569,337.44 87.6236,337.107 87.5,336.5C 169.5,335.167 251.5,335.167 333.5,336.5C 333.376,337.107 333.043,337.44 332.5,337.5 Z"/></g>
<g><path style="opacity:1" fill="#e45125" d="M 88.5,337.5 C 169.833,336.167 251.167,336.167 332.5,337.5C 328.041,340.787 323.708,344.287 319.5,348C 246.833,348.667 174.167,348.667 101.5,348C 97.2923,344.287 92.959,340.787 88.5,337.5 Z"/></g>
<g><path style="opacity:1" fill="#542b1e" d="M 309.5,356.5 C 243.5,355.167 177.5,355.167 111.5,356.5C 110.957,356.44 110.624,356.107 110.5,355.5C 177.167,354.167 243.833,354.167 310.5,355.5C 310.376,356.107 310.043,356.44 309.5,356.5 Z"/></g>
<g><path style="opacity:1" fill="#e55125" d="M 111.5,356.5 C 177.5,355.167 243.5,355.167 309.5,356.5C 305.375,359.453 301.375,362.619 297.5,366C 239.5,366.667 181.5,366.667 123.5,366C 119.625,362.619 115.625,359.453 111.5,356.5 Z"/></g>
<g><path style="opacity:1" fill="#ba4623" d="M 284.5,376.5 C 235.167,375.167 185.833,375.167 136.5,376.5C 135.711,376.217 135.044,375.717 134.5,375C 185.167,374.333 235.833,374.333 286.5,375C 285.956,375.717 285.289,376.217 284.5,376.5 Z"/></g>
<g><path style="opacity:1" fill="#e15025" d="M 284.5,376.5 C 281.333,379.498 278,382.331 274.5,385C 231.833,385.667 189.167,385.667 146.5,385C 142.975,382.302 139.642,379.469 136.5,376.5C 185.833,375.167 235.167,375.167 284.5,376.5 Z"/></g>
<g><path style="opacity:1" fill="#8a3921" d="M 261.5,395.5 C 227.5,394.167 193.5,394.167 159.5,395.5C 158.957,395.44 158.624,395.107 158.5,394.5C 193.167,393.167 227.833,393.167 262.5,394.5C 262.376,395.107 262.043,395.44 261.5,395.5 Z"/></g>
<g><path style="opacity:1" fill="#e45125" d="M 159.5,395.5 C 193.5,394.167 227.5,394.167 261.5,395.5C 258.665,398.165 255.665,400.665 252.5,403C 224.5,403.667 196.5,403.667 168.5,403C 165.335,400.665 162.335,398.165 159.5,395.5 Z"/></g>
<g><path style="opacity:1" fill="#542c1f" d="M 238.5,414.5 C 219.833,413.167 201.167,413.167 182.5,414.5C 181.957,414.44 181.624,414.107 181.5,413.5C 200.833,412.167 220.167,412.167 239.5,413.5C 239.376,414.107 239.043,414.44 238.5,414.5 Z"/></g>
<g><path style="opacity:1" fill="#db4e25" d="M 182.5,414.5 C 201.167,413.167 219.833,413.167 238.5,414.5C 235.531,416.992 232.531,419.492 229.5,422C 216.833,422.667 204.167,422.667 191.5,422C 188.469,419.492 185.469,416.992 182.5,414.5 Z"/></g>
<g><path style="opacity:1" fill="#c74924" d="M 205.5,433.5 C 208.64,432.359 211.973,432.192 215.5,433C 213.983,434.685 212.316,436.185 210.5,437.5C 208.814,436.143 207.148,434.81 205.5,433.5 Z"/></g>
</svg>
