<svg xmlns="http://www.w3.org/2000/svg" width="500" height="500" viewBox="0 0 500 500" version="1.1"><path d="M 236.500 13.907 C 233.750 14.233, 241.400 14.504, 253.500 14.510 C 266.366 14.516, 272.594 14.256, 268.500 13.884 C 259.866 13.100, 243.206 13.112, 236.500 13.907 M 219.500 15.497 C 218.950 15.684, 216.767 16.127, 214.648 16.483 C 212.529 16.838, 210.985 17.318, 211.216 17.550 C 211.448 17.781, 215.656 17.346, 220.568 16.582 C 227.052 15.574, 228.267 15.189, 225 15.176 C 222.525 15.166, 220.050 15.311, 219.500 15.497 M 284 16.480 C 293.728 18.123, 295.376 18.227, 292.354 17.007 C 291.174 16.531, 286.899 15.895, 282.854 15.593 L 275.500 15.044 284 16.480 M 202 19 C 200.764 19.799, 200.852 19.955, 202.500 19.885 C 203.600 19.839, 205.625 19.440, 207 19 C 209.450 18.215, 209.440 18.198, 206.500 18.115 C 204.850 18.069, 202.825 18.467, 202 19 M 297 19 C 298.375 19.440, 300.625 19.839, 302 19.885 C 303.966 19.951, 304.179 19.762, 303 19 C 302.175 18.467, 299.925 18.069, 298 18.115 C 294.793 18.192, 294.709 18.266, 297 19 M 311.500 22.039 C 314.800 23.101, 318.175 23.931, 319 23.883 C 321.076 23.761, 309.975 20.124, 307.500 20.115 C 306.400 20.111, 308.200 20.977, 311.500 22.039 M 187.500 22.606 L 184.500 24.049 188 23.410 C 189.925 23.058, 192.175 22.386, 193 21.916 C 195.665 20.397, 190.830 21.004, 187.500 22.606 M 172 27.572 C 167.325 29.406, 162.190 31.380, 160.588 31.958 C 158.986 32.536, 157.875 33.208, 158.119 33.452 C 158.545 33.879, 181.970 25.363, 182.884 24.449 C 184.032 23.302, 179.766 24.526, 172 27.572 M 321.100 24.434 C 321.339 24.672, 325.893 26.445, 331.221 28.374 C 336.549 30.302, 341.867 32.394, 343.039 33.021 C 344.212 33.649, 345.394 33.939, 345.667 33.666 C 346.325 33.008, 341.004 30.596, 333 27.923 C 329.425 26.730, 326.072 25.359, 325.550 24.877 C 324.619 24.017, 320.249 23.582, 321.100 24.434 M 223.500 29.490 C 190.016 34.141, 157.790 46.267, 130.500 64.485 C 118.741 72.334, 116.744 73.873, 105.045 84.090 C 75.517 109.880, 51.637 147.772, 40.507 186.498 C 22.641 248.663, 33.066 316.985, 68.487 369.875 C 85.234 394.882, 105.192 414.837, 130.104 431.481 C 161.797 452.657, 193.847 463.800, 234.169 467.662 C 250.783 469.253, 252.912 469.253, 269.825 467.653 C 305.167 464.311, 332.051 456.105, 360.419 440 C 396.121 419.731, 425.842 389.853, 444.509 355.466 C 446.589 351.635, 448.626 348.050, 449.035 347.500 C 451.587 344.071, 461.366 318.511, 464.339 307.500 C 470.457 284.836, 472.007 272.660, 471.971 247.576 C 471.918 211.487, 465.562 183.616, 450.066 151.514 C 436.676 123.775, 418.170 100.069, 393.500 79.052 C 362.789 52.889, 322.759 35.326, 280.576 29.507 C 267.402 27.690, 236.528 27.681, 223.500 29.490 M 145.500 39.307 C 131.387 46.702, 115.034 56.884, 115.012 58.290 C 115.006 58.725, 117.813 57.132, 121.250 54.751 C 129.751 48.862, 133.674 46.544, 146.500 39.829 C 152.550 36.662, 157.050 34.070, 156.500 34.069 C 155.950 34.068, 151 36.425, 145.500 39.307 M 352.350 37.115 C 355.568 38.775, 358.395 39.938, 358.633 39.700 C 359.133 39.200, 348.751 33.976, 347.400 34.048 C 346.905 34.075, 349.133 35.455, 352.350 37.115 M 361 41.084 C 366.472 44.609, 374.361 48.972, 374.683 48.651 C 375.159 48.175, 361.462 39.978, 360.325 40.059 C 359.871 40.091, 360.175 40.552, 361 41.084 M 230.451 45.080 C 230.084 45.674, 230.732 46.824, 231.892 47.637 C 233.727 48.922, 234 50.115, 234 56.834 C 234 65.473, 235.136 67.985, 239.944 69.977 C 243.983 71.650, 249.118 70.568, 252.076 67.420 C 254.187 65.172, 254.489 63.853, 254.619 56.290 C 254.736 49.488, 255.106 47.520, 256.404 46.794 C 259.153 45.255, 257.148 44, 251.941 44 C 248.384 44, 247 44.390, 247 45.393 C 247 46.159, 247.675 47.045, 248.500 47.362 C 249.670 47.811, 250 49.804, 250 56.433 C 250 63.810, 249.745 65.066, 248.066 65.965 C 245.353 67.417, 243.398 67.255, 241.571 65.429 C 239.266 63.123, 239.322 48.479, 241.640 47.181 C 242.543 46.676, 242.966 45.754, 242.581 45.132 C 241.689 43.688, 231.338 43.644, 230.451 45.080 M 263 45.002 C 263 45.704, 263.685 46.780, 264.521 47.392 C 265.789 48.319, 265.872 49.402, 265.021 53.889 C 264.460 56.850, 264 60.771, 264 62.601 C 264 64.921, 263.386 66.258, 261.972 67.015 C 258.679 68.777, 260.412 69.636, 269.873 70.929 C 277.596 71.984, 279.214 71.941, 281.784 70.612 C 286.416 68.217, 287.438 63.611, 284.024 60.521 C 282.061 58.745, 282.065 58.712, 284.524 55.790 C 287.436 52.328, 287.467 52.112, 285.463 49.251 C 283.691 46.721, 279.292 45.364, 269.750 44.403 C 264.584 43.883, 263 44.024, 263 45.002 M 211.500 47.497 C 210.950 47.684, 208.813 48.118, 206.750 48.463 C 202.700 49.141, 201.770 50.866, 205 51.710 C 206.100 51.998, 207.001 52.293, 207.001 52.367 C 207.002 52.440, 207.671 56.296, 208.487 60.937 C 209.850 68.677, 209.835 69.525, 208.310 71.210 C 205.505 74.310, 208.019 74.825, 217.786 73.152 C 226.042 71.738, 227.123 71.309, 227.536 69.281 C 227.791 68.026, 228.234 65.875, 228.519 64.500 C 229.273 60.869, 227.030 61.336, 223.707 65.500 C 220.368 69.685, 216.301 70.311, 215.587 66.750 C 212.968 53.683, 212.819 51.606, 214.411 50.442 C 217.525 48.164, 215.519 46.134, 211.500 47.497 M 294 49.389 C 294 50.275, 294.450 51, 295 51 C 296.416 51, 296.245 53.476, 294.385 59.912 C 291.917 68.454, 291.172 70, 289.521 70 C 288.685 70, 288 70.662, 288 71.472 C 288 72.410, 290.087 73.531, 293.750 74.562 C 296.913 75.451, 301.634 76.789, 304.242 77.533 L 308.984 78.887 311.603 75.454 C 313.128 73.455, 313.968 71.358, 313.614 70.435 C 313.081 69.048, 312.678 69.108, 310.368 70.925 C 307.633 73.076, 301.650 73.698, 299.118 72.094 C 297.309 70.948, 298.483 64, 300.486 64 C 301.909 64, 303.457 65.764, 303.485 67.417 C 303.493 67.921, 304.013 68.504, 304.640 68.713 C 306.253 69.251, 309.229 60.259, 307.742 59.341 C 307.124 58.959, 306.441 59.176, 306.226 59.823 C 306.010 60.470, 304.746 61, 303.417 61 C 300.626 61, 300.172 58.515, 302.405 55.461 C 303.757 53.612, 303.948 53.605, 307.423 55.262 C 309.410 56.209, 311.550 58.113, 312.178 59.492 C 314.051 63.602, 316.166 62.675, 315.807 57.900 L 315.500 53.801 308.269 51.449 C 297.420 47.921, 294 47.427, 294 49.389 M 271.407 51.515 C 270.547 54.940, 271.951 56.222, 276.123 55.823 C 279.137 55.535, 279.500 55.177, 279.500 52.500 C 279.500 49.760, 279.178 49.473, 275.784 49.192 C 272.491 48.918, 271.992 49.183, 271.407 51.515 M 377.685 50.694 C 378.887 51.687, 382.182 54.075, 385.009 56 C 406.049 70.330, 429.950 94.219, 444 114.963 C 445.925 117.805, 448.320 121.113, 449.323 122.315 C 453.662 127.516, 447.281 117.548, 440.285 108.195 C 425.977 89.069, 407.042 70.520, 387.669 56.652 C 379.226 50.608, 373.314 47.080, 377.685 50.694 M 189.441 52.901 C 183.473 53.631, 179.639 55.904, 176.956 60.304 C 174.609 64.153, 174.509 66.738, 176.514 71.730 C 179.595 79.404, 188.389 82.158, 196.055 77.849 C 199.725 75.786, 203.013 70.679, 201.588 69.254 C 201.213 68.880, 199.375 70.244, 197.504 72.286 C 193.146 77.044, 189.559 77.236, 185.437 72.934 C 182.986 70.376, 182.500 69.040, 182.500 64.854 C 182.500 61.044, 182.966 59.498, 184.441 58.419 C 187.182 56.415, 191.296 56.658, 194.273 59 C 199.098 62.795, 200.467 60.919, 197.011 55.250 C 195.921 53.462, 194.910 52.063, 194.765 52.141 C 194.619 52.218, 192.224 52.560, 189.441 52.901 M 110.385 61.216 C 108.798 62.434, 107.275 63.672, 107 63.966 C 106.725 64.259, 104.025 66.519, 101 68.987 C 88.528 79.161, 67.989 101.018, 62.551 109.905 C 60.419 113.388, 64.379 109.401, 68.233 104.185 C 76.098 93.538, 94.317 75.149, 106.250 65.813 C 110.513 62.479, 114 59.581, 114 59.375 C 114 58.639, 113.230 59.031, 110.385 61.216 M 270.667 59.667 C 270.300 60.033, 270 61.798, 270 63.587 C 270 66.369, 270.423 66.934, 272.916 67.482 C 278.489 68.706, 282.384 63.530, 278.250 60.392 C 276.398 58.986, 271.788 58.545, 270.667 59.667 M 338.310 66.750 C 338.378 71.512, 332.089 82.242, 328.760 83.045 C 324.788 84.003, 326.307 86.118, 333.832 90.110 C 345.143 96.111, 351.917 94.935, 356.126 86.239 C 358.841 80.632, 358.033 75.830, 353.710 71.882 C 351.974 70.297, 350.211 69, 349.792 69 C 349.373 69, 346.836 67.650, 344.154 66 C 341.473 64.350, 339.049 63, 338.768 63 C 338.486 63, 338.280 64.688, 338.310 66.750 M 343.243 73.757 C 338.071 81.289, 335.856 86.122, 336.966 87.459 C 340.323 91.504, 347.621 89.425, 350.365 83.643 C 353.054 77.977, 352.355 74.752, 347.942 72.470 C 345.261 71.084, 345.036 71.146, 343.243 73.757 M 139.072 77.352 C 131.014 83.012, 129.482 84.997, 133.167 85.005 C 136.553 85.012, 145.328 97.846, 144.420 101.464 C 143.527 105.019, 145.398 104.748, 152.013 100.364 C 164.174 92.305, 163.875 92.664, 162.703 87.547 C 161.512 82.342, 159 81.302, 159 86.015 C 159 89.855, 153.135 96.650, 150.645 95.694 C 148.151 94.737, 146.348 90.252, 147.852 88.748 C 148.783 87.817, 149.480 87.819, 150.979 88.755 C 154.190 90.760, 154.447 88.253, 151.471 83.959 C 148.587 79.797, 147 79.617, 147 83.452 C 147 86.906, 144.316 87.412, 142.302 84.338 C 140.640 81.802, 140.667 81.683, 143.460 79.281 C 145.903 77.179, 146.952 76.916, 150.660 77.472 C 153.047 77.830, 155 77.723, 155 77.236 C 155 75.618, 150.403 71.999, 148.436 72.067 C 147.371 72.104, 143.157 74.482, 139.072 77.352 M 368.340 83.193 C 369.150 86.290, 358.864 99.068, 355.831 98.733 C 351.640 98.270, 353.084 100.783, 360.515 106.882 C 364.678 110.299, 368.730 113.343, 369.517 113.645 C 371.321 114.337, 378.220 110.161, 377.726 108.677 C 377.512 108.036, 375.491 107.690, 372.893 107.850 C 369.558 108.055, 367.742 107.585, 365.714 105.990 C 362.462 103.431, 362.416 103.012, 365.037 99.680 C 367.531 96.509, 370.403 97.113, 369.724 100.665 C 368.964 104.641, 371.175 104.562, 374.698 100.487 C 376.858 97.987, 377.689 96.289, 377.058 95.658 C 376.427 95.027, 375.525 95.150, 374.492 96.006 C 373.157 97.114, 372.634 97.062, 371.256 95.685 C 369.731 94.160, 369.780 93.863, 371.926 91.579 L 374.239 89.117 377.140 91.262 C 379.127 92.730, 380.233 94.604, 380.649 97.203 C 381.393 101.859, 383.145 102.089, 384.806 97.750 C 386.004 94.623, 385.907 94.368, 382.244 91 C 371.646 81.254, 367.177 78.745, 368.340 83.193 M 232.154 84.554 C 205.595 87.966, 183.263 96.197, 161.279 110.674 C 129.330 131.714, 105.271 164.188, 94.660 200.595 C 89.297 218.993, 88.500 225.191, 88.500 248.500 C 88.500 272.933, 89.568 279.978, 96.538 301.500 C 98.737 308.289, 104.987 322.256, 108.069 327.265 C 109.681 329.886, 111 332.220, 111 332.452 C 111 332.684, 113.093 335.940, 115.652 339.687 C 129.899 360.553, 150.513 379.767, 170 390.344 C 171.925 391.389, 175.300 393.222, 177.500 394.418 C 195.269 404.077, 225.038 412, 243.562 412 C 247.588 412, 251.123 412.390, 251.417 412.866 C 251.712 413.343, 251.063 414.538, 249.976 415.521 C 248.889 416.505, 248 417.888, 248 418.594 C 248 420.280, 256.025 421.466, 260.805 420.487 C 262.837 420.070, 266.913 419.815, 269.862 419.919 C 273.718 420.055, 275.753 419.628, 277.112 418.399 C 280.917 414.955, 278.976 413, 271.752 413 C 266.342 413, 267.690 411.860, 274.251 410.885 C 290.156 408.522, 300.662 405.677, 315.755 399.645 C 325.921 395.581, 339.647 387.754, 349.890 380.179 C 379.488 358.291, 401.721 325.621, 411.011 290.367 C 414.200 278.267, 417.005 258.407, 416.991 248.030 C 416.980 239.598, 414.566 219.402, 412.532 210.723 C 403.818 173.540, 382.134 140.027, 351.809 116.872 C 347.579 113.643, 343.912 111, 343.660 111 C 343.407 111, 341.018 109.533, 338.350 107.740 C 321.390 96.343, 295.500 87.374, 271.351 84.531 C 256.146 82.741, 246.221 82.747, 232.154 84.554 M 116.500 94.169 C 113.200 97.375, 109.938 99.999, 109.250 99.999 C 107.575 100, 107.675 101.250, 109.685 105.466 C 111.969 110.255, 113.812 109.994, 114.193 104.828 C 114.362 102.533, 114.999 100.492, 115.608 100.292 C 116.218 100.092, 119.228 103.037, 122.298 106.836 C 126.412 111.928, 127.733 114.304, 127.323 115.872 C 126.508 118.991, 128.824 118.504, 133.391 114.595 C 135.788 112.542, 136.997 110.804, 136.539 110.064 C 136.132 109.404, 135.225 109.084, 134.524 109.352 C 133.189 109.865, 128.186 105.049, 123.602 98.840 C 120.527 94.675, 121.183 93.682, 126.682 94.175 C 128.755 94.361, 130.477 94.017, 130.698 93.374 C 131.069 92.292, 124.620 87.820, 123.193 88.170 C 122.812 88.263, 119.800 90.962, 116.500 94.169 M 227.500 99.019 C 206.547 102.794, 184.279 111.664, 167.835 122.785 C 158.512 129.090, 144.407 141.423, 139.380 147.662 C 137.246 150.312, 134.675 153.384, 133.668 154.490 C 130.233 158.258, 121.277 172.481, 117.086 180.823 C 100.607 213.622, 96.733 250.728, 106.074 286.290 C 113.012 312.706, 125.987 335.236, 145.397 354.573 C 154.810 363.950, 159.634 367.904, 170.073 374.796 C 177.247 379.533, 195.717 389, 197.784 389 C 198.313 389, 200.715 389.864, 203.123 390.921 C 205.530 391.978, 209.193 393.154, 211.262 393.535 C 214.654 394.159, 214.954 394.044, 214.313 392.364 C 213.759 390.912, 214.326 391.108, 216.877 393.250 C 218.679 394.762, 220.587 396, 221.116 396 C 221.646 396, 223.814 397.770, 225.934 399.933 C 230.070 404.152, 233.790 405.573, 245.500 407.405 C 252.102 408.438, 252.518 408.658, 252.820 411.283 C 253.045 413.242, 252.452 414.624, 250.820 415.947 C 246.515 419.437, 248.656 419.769, 269.290 418.805 C 273.935 418.588, 276.369 418.020, 276.995 417.008 C 278.293 414.908, 275.615 413.662, 271.472 414.439 C 268.700 414.959, 267.909 414.698, 266.977 412.957 C 265.246 409.723, 266.310 408.421, 273.693 404.733 C 283.001 400.083, 287 394.892, 287 387.459 C 287 384.392, 286.120 379.840, 284.955 376.885 C 283.544 373.307, 283.001 369.958, 283.205 366.098 L 283.500 360.500 292.500 360.500 C 299.758 360.500, 301.500 360.215, 301.500 359.028 C 301.500 358.061, 299.956 357.298, 297 356.804 C 293.340 356.193, 291.780 355.208, 288.646 351.526 C 285.167 347.441, 284.368 347, 280.436 347 C 272.521 347, 268.679 353.975, 273 360.500 C 275.771 364.684, 275.821 374.947, 273.082 377.425 C 271.972 378.431, 270.184 378.974, 268.832 378.717 C 266.731 378.316, 266.772 378.259, 269.250 378.136 L 272 378 272 369.059 C 272 363.666, 271.566 359.850, 270.906 359.442 C 270.224 359.021, 270.051 357.209, 270.445 354.633 C 271.756 346.069, 272.180 340.910, 271.679 339.606 C 271.249 338.486, 269.879 338.515, 263.523 339.779 C 253.493 341.775, 244.619 340.347, 236.436 335.419 C 233.313 333.539, 230.587 332, 230.379 332 C 230.170 332, 230 344.164, 230 359.031 C 230 381.667, 230.235 386.153, 231.444 386.617 C 232.238 386.921, 235.871 385.531, 239.518 383.527 C 243.165 381.523, 246.563 380.022, 247.068 380.192 C 248.734 380.751, 233.560 388.023, 230.750 388.011 C 227.575 387.998, 227.037 389.935, 230 390.710 C 231.100 390.998, 232 391.642, 232 392.142 C 232 392.642, 230.672 392.365, 229.050 391.526 C 225.604 389.744, 222.577 389.507, 223.559 391.096 C 223.980 391.777, 223.530 392.055, 222.368 391.830 C 221.312 391.625, 220.499 390.624, 220.497 389.528 C 220.495 388.069, 219.503 387.385, 216.497 386.769 C 212.995 386.051, 208.479 384.630, 201.500 382.049 C 200.400 381.642, 196.463 379.894, 192.750 378.164 L 186 375.019 186 358.509 L 186 342 180.750 341.984 C 177.863 341.976, 172.800 341.323, 169.500 340.533 C 163.918 339.197, 163.223 339.232, 159.527 341.033 L 155.553 342.970 152.027 340.665 C 146.195 336.853, 145 336.681, 145 339.654 C 145 341.955, 144.813 342.091, 143.332 340.872 C 137.750 336.281, 122.849 311.580, 118.374 299.500 C 111.841 281.866, 108.981 266.039, 109.032 247.807 C 109.116 217.874, 117.410 191.615, 134.946 165.770 C 137.806 161.554, 140 157.195, 140 155.726 C 140 151.919, 141.717 148.042, 143.735 147.294 C 144.706 146.934, 147.147 145.563, 149.159 144.247 C 152.682 141.944, 152.937 141.916, 156.005 143.503 C 160.031 145.584, 166.138 145.712, 177.250 143.947 L 186 142.557 186 131.722 L 186 120.886 193.250 117.609 C 203.854 112.815, 217.633 108.408, 225.250 107.373 L 230 106.728 230 128.864 C 230 141.904, 230.384 151, 230.934 151 C 231.447 151, 234.222 149.537, 237.100 147.750 C 242.231 144.564, 242.562 144.501, 253.917 144.535 C 261.309 144.557, 266.321 145.026, 267.771 145.831 C 269.020 146.525, 270.482 146.820, 271.021 146.487 C 271.605 146.126, 272 138.107, 272 126.608 C 272 116.007, 272.229 107.105, 272.508 106.825 C 274.296 105.038, 302.839 113.245, 312.864 118.430 L 316 120.051 316 133.526 C 316 140.937, 316.197 147, 316.438 147 C 316.679 147, 319.941 146.279, 323.688 145.397 C 332.934 143.222, 345.478 143.954, 353.411 147.132 C 361.980 150.565, 369.363 158.002, 371.500 165.352 C 372.407 168.471, 375.941 176.530, 379.354 183.261 C 390.379 205.003, 393.994 219.266, 394.720 243.880 C 395.545 271.856, 391.189 291.393, 378.938 314.670 C 371.827 328.181, 359.744 344.578, 357.789 343.370 C 357.215 343.015, 357.021 324.729, 357.290 296.311 C 357.771 245.475, 358.035 247.746, 351.905 249.883 C 350.188 250.482, 345.162 251.273, 340.735 251.642 C 328.459 252.666, 329 251.383, 329 279.474 L 329 302.949 331.879 304.437 C 335.600 306.362, 335.809 307.028, 336.616 319.507 C 337.218 328.817, 337.090 330.243, 335.493 332.008 C 334.501 333.104, 332.930 334, 332 334 C 331.070 334, 329.476 334.921, 328.457 336.047 C 326.860 337.812, 325.874 338.003, 321.302 337.432 L 316 336.770 316 356.442 L 316 376.114 308.716 379.433 C 304.709 381.259, 298.666 383.574, 295.287 384.577 C 289.427 386.316, 289.094 386.588, 288.122 390.418 C 287.561 392.628, 287.223 394.556, 287.371 394.704 C 288.110 395.443, 303.214 390.463, 312.119 386.544 C 358.324 366.209, 390.055 326.609, 400.698 276 C 403.497 262.691, 403.243 230.825, 400.234 217.744 C 394.706 193.712, 383.534 170.107, 369.683 153.195 C 347.360 125.940, 315.887 106.992, 281.102 99.865 C 266.438 96.861, 241.653 96.470, 227.500 99.019 M 98.823 113.755 C 95.066 116.205, 84.749 128.785, 85.501 130.001 C 85.843 130.555, 87.156 130.748, 88.419 130.431 C 91.678 129.613, 104.362 140.284, 103.470 143.094 C 102.410 146.434, 105.626 145.260, 108.916 141.106 C 112.484 136.601, 112.890 134.583, 110.046 135.486 C 107.769 136.208, 103 133.432, 103 131.385 C 103 130.323, 104.823 130, 110.812 130 C 118.278 130, 118.719 129.871, 120.774 127.091 C 122.637 124.572, 122.729 124.020, 121.462 122.969 C 120.435 122.116, 120 122.089, 120 122.878 C 120 123.583, 117.765 124, 113.981 124 C 108.060 124, 107.972 123.959, 108.589 121.500 C 109.542 117.705, 108.334 114.473, 105.477 113.171 C 102.174 111.667, 102.005 111.682, 98.823 113.755 M 402.736 112.598 C 402.407 112.927, 402.356 113.764, 402.623 114.459 C 402.890 115.155, 400.946 117.506, 398.304 119.684 C 390.698 125.954, 388.830 126.995, 386.316 126.365 C 384.810 125.986, 384 126.225, 384 127.047 C 384 128.361, 388.641 134.988, 390.399 136.184 C 391.853 137.173, 393.229 136.038, 392.591 134.376 C 392.060 132.994, 395.190 129, 396.804 129 C 397.246 129, 399.134 130.575, 401 132.500 C 407.068 138.761, 415 136.578, 415 128.648 C 415 126.683, 413.303 123.515, 409.760 118.871 C 404.558 112.050, 403.885 111.448, 402.736 112.598 M 96.771 121.075 L 93.696 124.150 96.405 126.825 L 99.114 129.500 101.557 126.694 C 104.337 123.502, 104.762 119.507, 102.418 118.607 C 100.118 117.724, 100.125 117.721, 96.771 121.075 M 53.188 123.960 C 50.735 127.278, 50.196 129.626, 52.605 126.500 C 54.444 124.114, 56.210 121, 55.723 121 C 55.532 121, 54.391 122.332, 53.188 123.960 M 403.201 123.813 C 400.647 125.779, 401.003 128.396, 404.045 130.024 C 407.847 132.059, 411.172 128.058, 409.020 124.038 C 407.690 121.552, 406.214 121.495, 403.201 123.813 M 451 125.596 C 451 125.923, 451.841 127.386, 452.869 128.846 C 453.898 130.306, 455.729 133.456, 456.939 135.847 C 458.149 138.238, 459.374 139.960, 459.660 139.673 C 459.946 139.387, 458.288 135.969, 455.976 132.077 C 452.062 125.487, 451 124.105, 451 125.596 M 44.184 139.886 C 41.883 144.204, 40.008 148.134, 40.017 148.619 C 40.026 149.103, 42.061 145.723, 44.540 141.106 C 47.018 136.490, 48.893 132.560, 48.707 132.373 C 48.520 132.187, 46.485 135.567, 44.184 139.886 M 80.500 140.970 C 74.881 143.806, 72 148.421, 72 154.589 C 72 160.237, 73.504 162.912, 78.367 165.918 C 85.012 170.024, 93.592 167.312, 97.202 159.964 C 100.599 153.049, 98.821 145.902, 92.774 142.174 C 87.618 138.996, 84.936 138.733, 80.500 140.970 M 460.094 141.500 C 460.094 142.050, 461.402 144.975, 463 148 C 464.598 151.025, 465.906 153.050, 465.906 152.500 C 465.906 151.950, 464.598 149.025, 463 146 C 461.402 142.975, 460.094 140.950, 460.094 141.500 M 415 144.051 C 412.525 144.491, 407.913 144.885, 404.750 144.926 C 398.322 145.009, 397.957 145.576, 401.082 150.632 C 403.508 154.558, 404.734 154.893, 405.180 151.750 C 405.693 148.143, 409.952 148.754, 412.299 152.771 C 413.877 155.475, 413.986 156.312, 412.924 157.591 C 412.218 158.442, 410.793 158.918, 409.759 158.647 C 406.758 157.862, 406.644 160.476, 409.483 164.972 C 412.251 169.358, 414.097 169.771, 414.972 166.201 C 415.263 165.019, 418.235 160.777, 421.577 156.775 C 429.228 147.617, 429.315 147.457, 428.011 145.021 C 426.831 142.817, 423.382 142.560, 415 144.051 M 81 145.709 C 76.224 147.466, 74.576 152.533, 77.516 156.420 C 81.749 162.014, 89.353 163.684, 92.961 159.811 C 95.688 156.885, 95.531 154.784, 92.297 150.941 C 90.137 148.374, 84.162 144.693, 82.782 145.079 C 82.627 145.122, 81.825 145.406, 81 145.709 M 177.500 147.569 C 171.533 149.280, 160.573 149.571, 156.788 148.119 C 154.735 147.331, 153.400 147.432, 151.288 148.533 C 149.755 149.333, 147.440 149.990, 146.144 149.994 C 143.789 150, 143.788 150.005, 144.508 159.105 C 144.905 164.112, 145.515 169.278, 145.864 170.585 C 146.942 174.616, 148.473 173.735, 149.045 168.755 C 149.596 163.963, 151.322 160.989, 152.733 162.400 C 153.155 162.821, 153.500 178.099, 153.500 196.350 C 153.500 228.639, 153.442 229.613, 151.367 232.466 L 149.235 235.398 151.232 238.100 C 153.171 240.722, 153.177 240.892, 151.435 243.840 C 149.753 246.689, 149.743 247.115, 151.278 250.689 C 154.606 258.439, 154.989 262.721, 154.994 292.250 C 154.999 317.575, 154.784 322, 153.550 322 C 152.486 322, 152.020 320.469, 151.800 316.250 C 151.575 311.939, 151.125 310.500, 150 310.500 C 148.822 310.500, 148.279 312.829, 147.470 321.342 L 146.440 332.184 149.970 334.102 C 151.911 335.158, 154.258 336.558, 155.185 337.214 C 156.503 338.148, 157.413 338.117, 159.362 337.074 C 161.156 336.114, 163.485 335.953, 167.677 336.500 C 173.813 337.301, 183.818 337.340, 200.676 336.629 C 211.725 336.163, 217.683 334.037, 216.383 331.023 C 215.029 327.884, 214.701 289.437, 215.994 285.519 C 217.015 282.426, 216.992 281.614, 215.867 280.920 C 210.292 277.482, 208.689 274.647, 207.521 266.153 C 207.131 263.319, 206.467 261, 206.045 261 C 205.624 261, 205.022 263.171, 204.707 265.823 C 203.951 272.210, 201.484 277.166, 197.873 279.553 C 195.615 281.047, 195.095 281.966, 195.641 283.500 C 196.033 284.600, 196.526 293.618, 196.736 303.541 C 197.104 320.865, 197.036 321.658, 195.013 323.488 C 192.119 326.107, 186.511 325.828, 183.405 322.910 L 180.975 320.627 181.237 286.172 C 181.478 254.614, 181.647 251.624, 183.250 250.614 C 184.521 249.812, 185.479 249.810, 186.750 250.607 C 189.169 252.124, 189.400 255.056, 187.532 260.557 C 185.347 266.994, 186.756 270.945, 191.250 270.985 C 192.536 270.996, 193 270.194, 193 267.960 C 193 265.680, 194.031 263.967, 197.125 261.111 C 201.957 256.649, 202.432 253.428, 198.953 248.722 C 197.689 247.013, 197.119 245.460, 197.686 245.271 C 198.253 245.082, 199.568 244.267, 200.608 243.460 C 202.432 242.044, 202.395 241.905, 199.603 239.591 L 196.705 237.190 198.853 234.460 C 201.812 230.698, 201.556 228.516, 197.588 223.668 C 195.712 221.376, 194.024 218.185, 193.838 216.577 C 193.405 212.836, 192.006 212.421, 188.669 215.046 C 185.543 217.505, 185.228 220.908, 187.601 226.587 C 189.147 230.287, 189.127 230.479, 187.008 232.195 C 184.528 234.203, 181.501 233.280, 180.634 230.251 C 180.359 229.288, 179.991 214.039, 179.817 196.364 C 179.517 165.922, 179.600 164.117, 181.405 162.114 C 183.937 159.304, 188.224 159.428, 191.694 162.413 C 194.437 164.771, 194.511 165.114, 195.011 177.663 C 195.292 184.723, 195.145 192.712, 194.685 195.416 C 193.885 200.121, 193.978 200.432, 196.849 202.679 C 199.969 205.121, 202.670 211.631, 203.206 218 C 203.400 220.314, 204.008 221.500, 205 221.500 C 206.124 221.500, 206.642 219.849, 207.067 214.911 C 207.617 208.526, 209.557 204.273, 213.360 201.116 C 214.486 200.182, 214.600 199.134, 213.865 196.473 C 212.785 192.563, 213.109 156.287, 214.244 154 C 214.768 152.945, 213.994 151.857, 211.634 150.332 C 208.849 148.532, 207.279 148.250, 202.389 148.667 C 198.653 148.987, 194.321 148.591, 190.540 147.585 C 183.554 145.727, 183.921 145.728, 177.500 147.569 M 416.250 147.706 C 413.632 148.210, 413.479 148.905, 415.404 151.538 C 416.770 153.406, 416.865 153.391, 418.871 150.979 C 422.132 147.059, 421.795 146.638, 416.250 147.706 M 243.748 149.427 C 237.539 151.642, 232.960 155.848, 230.174 161.893 C 227.615 167.446, 227.585 167.802, 227.028 199 C 226.545 226.091, 226.228 230.941, 224.760 233.649 C 223.263 236.411, 223.234 236.949, 224.526 238.022 C 226.306 239.499, 226.441 243.322, 224.805 245.940 C 223.829 247.504, 224.007 248.643, 225.781 252.177 C 227.851 256.300, 227.964 257.960, 228.226 288 C 228.487 318.061, 228.598 319.683, 230.653 323.500 C 235.614 332.718, 241.909 335.521, 257.500 335.451 C 269.601 335.397, 273.826 334.012, 279.186 328.342 C 284.173 323.067, 285.754 315.076, 286.143 293.191 C 286.397 278.896, 286.395 278.881, 283.948 277.663 C 280.531 275.962, 278.105 270.447, 278.048 264.250 C 278.014 260.523, 277.607 259, 276.645 259 C 275.703 259, 275.101 261.020, 274.671 265.621 C 274.010 272.699, 270.943 278.248, 267.001 279.500 C 265.284 280.045, 265.168 280.443, 266.178 282.317 C 266.975 283.794, 267.289 289.998, 267.149 301.500 C 266.943 318.492, 266.942 318.501, 264.308 320.842 C 261.297 323.520, 256.663 323.242, 254.390 320.247 C 252.266 317.449, 252.430 256.466, 254.575 251.103 C 255.977 247.601, 255.987 246.853, 254.666 244.333 C 253.338 241.798, 253.354 241.208, 254.821 238.726 C 256.148 236.480, 256.225 235.624, 255.227 234.226 C 251.680 229.257, 251.522 227.669, 251.511 196.905 C 251.499 164.052, 251.523 163.892, 256.709 161.921 C 259.947 160.690, 263.620 162.365, 265.452 165.907 C 267.544 169.952, 267.625 191.978, 265.569 197.804 C 264.164 201.787, 264.187 201.892, 266.819 203.597 C 270.587 206.039, 272.958 208.941, 273.631 211.934 C 275.237 219.079, 275.605 220.120, 276.515 220.090 C 277.057 220.072, 277.764 217.907, 278.086 215.279 C 278.934 208.376, 280.453 205.410, 283.932 203.870 C 287.468 202.305, 287.493 202.166, 285.433 195.500 C 284.229 191.602, 283.944 186.442, 284.145 172.096 C 284.395 154.202, 284.344 153.671, 282.303 152.916 C 281.149 152.489, 279.914 151.670, 279.559 151.095 C 279.182 150.485, 277.161 150.280, 274.706 150.603 C 272.259 150.924, 268.008 150.496, 264.540 149.578 C 257.341 147.672, 248.838 147.610, 243.748 149.427 M 322.500 149.551 C 315.026 150.608, 310.922 150.710, 306.255 149.954 C 301.157 149.129, 299.468 149.224, 297.055 150.472 C 295.429 151.312, 293.402 152, 292.550 152 C 291.352 152, 291.025 153.080, 291.108 156.750 C 291.264 163.625, 293.335 174.500, 294.488 174.500 C 295.031 174.500, 295.778 172.385, 296.148 169.800 C 296.517 167.215, 297.116 164.621, 297.479 164.034 C 299.539 160.701, 300 166.817, 300 197.478 C 300 227.418, 299.821 231.151, 298.250 233.896 C 296.802 236.427, 296.716 237.300, 297.750 238.963 C 299.301 241.457, 299.335 243.491, 297.864 245.846 C 296.975 247.270, 297.191 249.003, 298.864 253.836 C 300.851 259.577, 300.999 261.980, 300.985 288.254 C 300.976 303.789, 300.572 317.128, 300.086 317.896 C 298.405 320.550, 296 318.310, 296 314.090 C 296 310.149, 294.555 307.980, 293.033 309.637 C 292.597 310.112, 291.934 314.885, 291.560 320.244 L 290.880 329.988 293.690 331.188 C 295.236 331.847, 297.190 332.956, 298.032 333.651 C 299.276 334.678, 300.407 334.621, 304.032 333.354 C 307.399 332.177, 310.595 331.942, 317 332.402 C 324.398 332.933, 325.921 332.754, 328.750 331.021 L 332 329.029 332 319.637 C 332 313, 331.606 309.918, 330.658 309.131 C 328.724 307.526, 328 308.746, 328 313.608 C 328 318.506, 326.620 320.028, 324.972 316.947 C 324.185 315.477, 323.942 306.005, 324.171 285.669 C 324.473 258.864, 324.658 256.239, 326.448 253.279 C 328.796 249.399, 334.247 247.005, 340.770 246.988 C 343.372 246.982, 347.750 246.377, 350.500 245.644 C 367.043 241.236, 368.955 236.077, 368.983 195.788 C 369.002 166.872, 368.187 162.421, 361.752 156.306 C 353.627 148.585, 342.666 146.698, 322.500 149.551 M 38.162 152.543 C 36.487 156.220, 36.807 157.005, 38.618 153.662 C 39.464 152.100, 39.969 150.636, 39.741 150.407 C 39.512 150.179, 38.802 151.140, 38.162 152.543 M 466.042 154.750 C 466.065 155.162, 466.946 157.075, 468 159 C 470.302 163.204, 470.664 161.638, 468.427 157.154 C 466.918 154.130, 465.953 153.157, 466.042 154.750 M 35.028 159.426 C 33.542 163.335, 33.836 163.950, 35.618 160.662 C 36.464 159.100, 36.909 157.576, 36.606 157.273 C 36.304 156.970, 35.593 157.939, 35.028 159.426 M 329.315 162.007 C 328.114 162.491, 326.651 163.783, 326.065 164.878 C 325.376 166.166, 325 178.025, 325 198.480 L 325 230.091 327.455 232.545 C 330.489 235.580, 336.673 235.895, 340.020 233.185 C 343.256 230.565, 343.881 224.869, 343.881 198 C 343.881 171.131, 343.256 165.435, 340.020 162.815 C 337.649 160.895, 332.954 160.541, 329.315 162.007 M 429.533 162.947 C 428.626 164.414, 429.791 165.994, 431.809 166.032 C 433.614 166.066, 437 168.267, 437 169.407 C 437 169.784, 433.134 171.921, 428.410 174.156 C 422.117 177.133, 419.523 177.923, 418.710 177.110 C 415.555 173.955, 415.194 176.956, 418.023 182.812 C 420.098 187.106, 423 188.463, 423 185.139 C 423 182.640, 438.669 175.269, 440.368 176.968 C 441.193 177.793, 441.017 178.905, 439.700 181.200 C 437.613 184.836, 438.699 186.829, 441.734 184.934 C 445.949 182.302, 446.117 180.592, 442.821 173.835 C 441.121 170.351, 439.424 166.375, 439.049 165 C 438.483 162.927, 437.669 162.448, 434.275 162.197 C 432.025 162.030, 429.891 162.368, 429.533 162.947 M 470.058 163.504 C 469.991 164.656, 474.772 178.106, 475.511 178.845 C 476.641 179.974, 475.821 177.012, 473.058 169.984 C 471.441 165.868, 470.091 162.952, 470.058 163.504 M 184.250 168.315 C 182.694 171.819, 182.444 217, 183.981 217 C 185.785 217, 186.066 212.644, 185.782 189 C 185.544 169.204, 185.303 165.944, 184.250 168.315 M 256.975 168.565 C 256.427 170.008, 256 183.281, 256 198.911 C 256 222.103, 256.258 227.210, 257.563 229.826 C 258.423 231.550, 259.548 233.221, 260.063 233.539 C 261.519 234.439, 261.167 237.975, 259.453 239.690 C 258.056 241.087, 258.056 241.404, 259.453 242.948 C 261.395 245.093, 261.453 248.929, 259.565 250.390 C 258.397 251.293, 257.999 257.562, 257.428 284.041 C 256.772 314.452, 256.842 316.699, 258.506 318.363 C 260.115 319.972, 260.435 319.994, 261.838 318.590 C 263.957 316.472, 264.216 287.686, 262.151 283.801 C 260.346 280.403, 260.988 277.813, 264.009 276.314 C 268.612 274.030, 270 271.280, 270 264.448 C 270 260.967, 270.450 257.840, 271 257.500 C 271.603 257.128, 272 250.197, 272 240.063 C 272 226.334, 271.725 223.016, 270.500 222 C 269.551 221.212, 269 219.006, 269 215.994 C 269 211.736, 268.591 210.864, 265.137 207.743 C 263.013 205.824, 260.971 203.762, 260.601 203.163 C 260.230 202.563, 260.659 199.246, 261.554 195.793 C 262.808 190.953, 263.029 187.218, 262.519 179.507 C 262.155 174.003, 261.634 168.713, 261.361 167.750 C 260.626 165.158, 258.092 165.629, 256.975 168.565 M 330.533 168.250 C 328.244 171.510, 328.316 224.579, 330.615 227.860 C 332.276 230.232, 334.960 230.640, 336.800 228.800 C 338.514 227.086, 338.514 168.914, 336.800 167.200 C 334.933 165.333, 332.268 165.780, 330.533 168.250 M 64.760 168.974 C 62.684 170.607, 57 182.979, 57 185.865 C 57 186.278, 59.138 186.643, 61.750 186.678 C 67.773 186.757, 77.513 191.031, 78.271 193.927 C 78.569 195.067, 79.242 196, 79.768 196 C 80.870 196, 85.306 184.973, 84.520 184.187 C 84.232 183.899, 82.929 184.235, 81.623 184.934 C 79.785 185.918, 78.757 185.940, 77.061 185.033 C 75.206 184.040, 74.992 183.374, 75.660 180.680 C 77.074 174.980, 76.512 170.833, 74.058 168.846 C 71.111 166.460, 67.900 166.504, 64.760 168.974 M 30.116 172.098 C 29.502 173.858, 29.021 176.019, 29.048 176.899 C 29.074 177.780, 29.781 176.544, 30.618 174.154 C 31.455 171.763, 31.936 169.602, 31.686 169.352 C 31.436 169.102, 30.729 170.338, 30.116 172.098 M 65.571 174.571 C 63.027 177.116, 63.655 179.684, 67.115 180.890 C 71.098 182.279, 72 181.661, 72 177.548 C 72 173.085, 68.622 171.521, 65.571 174.571 M 145.688 177.646 C 145.309 178.024, 145 190.730, 145 205.881 C 145 231.201, 145.130 233.298, 146.610 231.819 C 149.280 229.148, 149.797 222.543, 149.134 199.581 C 148.538 178.988, 147.969 175.364, 145.688 177.646 M 27 183 C 26.378 185.311, 26.064 187.398, 26.304 187.637 C 26.543 187.876, 27.224 186.158, 27.818 183.818 C 28.412 181.479, 28.725 179.392, 28.515 179.181 C 28.304 178.971, 27.622 180.689, 27 183 M 476.115 182 C 476.171 184.245, 478.836 190.759, 478.924 188.865 C 478.966 187.965, 478.343 185.715, 477.539 183.865 C 476.736 182.014, 476.095 181.175, 476.115 182 M 24.684 190.382 C 24.308 191.362, 24.029 192.914, 24.063 193.832 C 24.105 194.937, 24.453 194.685, 25.092 193.086 C 25.623 191.758, 25.902 190.206, 25.712 189.636 C 25.522 189.067, 25.059 189.403, 24.684 190.382 M 433.665 193.700 C 427.886 195.385, 425.009 199.404, 425.004 205.800 C 424.997 213.060, 429.825 219.621, 435.500 220.066 C 441.643 220.548, 444.019 219.922, 447.434 216.924 C 451.536 213.322, 452.795 208.595, 451.130 203.039 C 448.552 194.436, 442.408 191.151, 433.665 193.700 M 54 197.846 C 54 198.862, 53.275 201.145, 52.390 202.920 C 49.475 208.763, 52.607 216, 58.051 216 C 60.983 216, 65.630 211.550, 68.507 205.987 C 70.645 201.851, 75 201.711, 75 205.777 C 75 209.283, 72.720 212.576, 68.939 214.531 C 64.178 216.993, 65.134 219, 71.067 219 C 75.738 219, 76.083 218.838, 75.477 216.928 C 75.056 215.600, 75.454 214.156, 76.587 212.903 C 77.738 211.632, 78.380 209.252, 78.427 206.082 C 78.517 200.082, 76.172 197, 71.519 197 C 68.015 197, 65.848 198.919, 61.571 205.813 C 58.646 210.528, 55.736 211.140, 55.170 207.160 C 54.932 205.488, 55.979 203.789, 58.920 201.074 C 61.164 199.002, 63 197.013, 63 196.654 C 63 196.294, 60.975 196, 58.500 196 C 54.791 196, 54 196.325, 54 197.846 M 480.115 198.500 C 480.161 199.600, 480.560 201.625, 481 203 C 481.785 205.450, 481.802 205.440, 481.885 202.500 C 481.931 200.850, 481.533 198.825, 481 198 C 480.201 196.764, 480.045 196.852, 480.115 198.500 M 434.325 200.459 C 427.674 203.352, 426.591 210.490, 432.402 213.137 C 436.260 214.895, 443.562 213.372, 445.972 210.308 C 451.784 202.920, 443.932 196.280, 434.325 200.459 M 21.667 204.667 C 21.300 205.033, 21.039 206.496, 21.086 207.917 C 21.170 210.453, 21.188 210.447, 22.053 207.550 C 22.962 204.507, 22.828 203.506, 21.667 204.667 M 482.189 208.500 C 482.215 209.600, 482.580 211.850, 483 213.500 L 483.763 216.500 483.811 213.500 C 483.838 211.850, 483.473 209.600, 483 208.500 L 482.141 206.500 482.189 208.500 M 484.252 220.500 C 484.263 222.700, 484.468 223.482, 484.707 222.238 C 484.946 220.994, 484.937 219.194, 484.687 218.238 C 484.437 217.282, 484.241 218.300, 484.252 220.500 M 65 223.326 C 65 224.055, 66.102 225.686, 67.448 226.951 C 73.542 232.676, 70.689 241.120, 63.582 238.393 C 61.339 237.532, 61.619 234.256, 64 233.500 C 67.334 232.442, 66.257 231.161, 61.425 230.436 C 56.146 229.645, 53.483 231.118, 56.893 232.943 C 58.052 233.563, 59 234.955, 59 236.035 C 59 237.614, 58.312 238, 55.500 238 C 52.077 238, 52 237.911, 52 233.955 C 52 230.973, 52.657 229.252, 54.500 227.409 C 55.875 226.034, 57 224.423, 57 223.830 C 57 222.297, 50.769 223.667, 49.399 225.501 C 48.793 226.312, 48.028 231.143, 47.698 236.236 C 47.060 246.083, 47.969 249.080, 50.538 245.599 C 51.795 243.896, 52.839 243.762, 60.580 244.308 C 67.216 244.777, 69.538 245.334, 70.591 246.709 C 71.787 248.271, 72.090 248.308, 72.966 247 C 73.518 246.175, 73.976 243.200, 73.985 240.390 C 73.993 237.579, 74.281 233.229, 74.624 230.723 C 75.246 226.190, 75.229 226.158, 71.164 224.084 C 66.417 221.662, 65 221.488, 65 223.326 M 18.607 227.582 C 17.780 229.738, 17.971 267.072, 18.820 269.214 C 19.194 270.157, 19.500 260.819, 19.500 248.464 C 19.500 236.109, 19.436 226, 19.357 226 C 19.278 226, 18.941 226.712, 18.607 227.582 M 434 226.723 C 433.175 227.033, 431.439 227.680, 430.141 228.160 C 428.346 228.824, 428.041 229.345, 428.865 230.338 C 429.497 231.099, 429.726 233.694, 429.415 236.571 C 428.505 244.977, 434.277 251.018, 440.505 248.180 C 442.303 247.361, 443.423 245.251, 445.219 239.303 C 447.117 233.016, 447.956 231.500, 449.537 231.500 C 452.660 231.500, 452.639 236.779, 449.498 241.407 C 448.070 243.512, 447.124 245.457, 447.396 245.729 C 447.668 246.002, 449.603 245.820, 451.696 245.325 L 455.500 244.425 455.468 237.962 C 455.425 229.325, 453.324 226, 447.908 226 C 443.238 226, 441.753 227.910, 439.932 236.262 C 438.500 242.831, 436.815 244.921, 434.500 243 C 432 240.925, 432.659 235.463, 435.853 231.785 C 439.680 227.378, 438.782 224.923, 434 226.723 M 485.731 240 C 486.013 247.975, 486.414 254.687, 486.622 254.917 C 487.230 255.586, 486.806 241.168, 485.978 233 C 485.476 228.048, 485.392 230.425, 485.731 240 M 145 241.059 C 145 242.844, 145.417 243.861, 146 243.500 C 146.550 243.160, 147 241.784, 147 240.441 C 147 239.098, 146.550 238, 146 238 C 145.450 238, 145 239.377, 145 241.059 M 145 278.700 C 145 301.800, 145.267 308.133, 146.200 307.200 C 146.860 306.540, 148.257 306, 149.304 306 C 151.133 306, 151.193 305.070, 150.820 282.250 C 150.465 260.525, 150.247 258.095, 148.272 253.750 C 147.084 251.137, 145.862 249, 145.556 249 C 145.250 249, 145 262.365, 145 278.700 M 183.630 256.250 C 182.740 259.572, 182.873 263, 183.893 263 C 185.111 263, 186 260.433, 186 256.918 C 186 253.467, 184.490 253.041, 183.630 256.250 M 485.310 263.500 C 485.315 266.800, 485.502 268.029, 485.725 266.232 C 485.947 264.435, 485.943 261.735, 485.715 260.232 C 485.486 258.729, 485.304 260.200, 485.310 263.500 M 184 294.382 C 184 310.303, 184.376 320.114, 185 320.500 C 185.657 320.906, 186 312.363, 186 295.618 C 186 279.697, 185.624 269.886, 185 269.500 C 184.343 269.094, 184 277.637, 184 294.382 M 484.252 274.500 C 484.263 276.700, 484.468 277.482, 484.707 276.238 C 484.946 274.994, 484.937 273.194, 484.687 272.238 C 484.437 271.282, 484.241 272.300, 484.252 274.500 M 483.160 280.625 C 483.072 281.794, 482.763 284.269, 482.473 286.125 C 481.991 289.216, 482.037 289.292, 483.021 287.035 C 483.611 285.679, 483.920 283.204, 483.707 281.535 C 483.478 279.741, 483.255 279.369, 483.160 280.625 M 21.170 287.500 C 21.154 288.600, 21.527 290.400, 22 291.500 C 23.095 294.048, 23.095 291.419, 22 288 C 21.356 285.990, 21.194 285.892, 21.170 287.500 M 480.633 294.352 C 480.214 296.471, 480.103 298.436, 480.387 298.720 C 481.144 299.478, 482.242 294.462, 481.786 292.329 C 481.550 291.225, 481.092 292.028, 480.633 294.352 M 24.086 302.500 C 24.055 303.600, 24.467 305.175, 25 306 C 25.862 307.333, 25.963 307.333, 25.914 306 C 25.884 305.175, 25.473 303.600, 25 302.500 L 24.141 300.500 24.086 302.500 M 477 310 C 475.527 315.472, 476.308 316.253, 477.909 310.909 C 478.585 308.652, 478.912 306.579, 478.635 306.302 C 478.358 306.025, 477.622 307.689, 477 310 M 26.121 309 C 26.104 309.825, 26.708 311.850, 27.464 313.500 C 29.232 317.362, 29.258 315.566, 27.500 311 C 26.759 309.075, 26.138 308.175, 26.121 309 M 473.255 322.177 C 472.021 325.569, 471.174 328.508, 471.375 328.708 C 471.965 329.298, 476.229 318.186, 475.848 317.049 C 475.657 316.477, 474.490 318.784, 473.255 322.177 M 468.439 335.245 C 467.373 338.104, 466.331 340.907, 466.125 341.472 C 465.875 342.157, 466.081 342.166, 466.744 341.500 C 468.039 340.196, 471.424 331.091, 470.834 330.500 C 470.584 330.250, 469.506 332.385, 468.439 335.245 M 34.039 332.685 C 33.980 334.465, 35.984 339.349, 36.543 338.790 C 36.811 338.522, 36.366 336.772, 35.554 334.901 C 34.743 333.031, 34.061 332.033, 34.039 332.685 M 37 340.750 C 37 341.227, 37.653 342.491, 38.450 343.559 C 39.849 345.432, 39.880 345.420, 39.330 343.234 C 38.761 340.977, 37 339.099, 37 340.750 M 40 347.618 C 40 348.168, 40.661 349.491, 41.468 350.559 C 42.276 351.626, 42.936 352.050, 42.936 351.500 C 42.936 350.950, 42.276 349.626, 41.468 348.559 C 40.661 347.491, 40 347.068, 40 347.618 M 43.015 353.193 C 42.995 354.099, 47.070 361, 47.624 361 C 47.859 361, 47.381 359.762, 46.562 358.250 C 44.524 354.487, 43.034 352.361, 43.015 353.193 M 458.546 356.742 C 457.873 358.494, 451.064 370.053, 446.317 377.500 C 444.915 379.700, 444.471 380.825, 445.331 380 C 447.126 378.278, 460 357.056, 460 355.820 C 460 354.433, 459.249 354.909, 458.546 356.742 M 48.319 363.103 C 49.002 365.268, 57.841 379, 58.552 379 C 59.166 379, 58.894 378.505, 54.971 372.500 C 53.533 370.300, 51.335 366.925, 50.085 365 C 48.836 363.075, 48.041 362.221, 48.319 363.103 M 252.500 378.555 C 249.826 379.492, 249.494 379.758, 251.500 379.357 C 253.150 379.028, 256.975 378.421, 260 378.010 L 265.500 377.262 261 377.208 C 258.525 377.178, 254.700 377.784, 252.500 378.555 M 60.591 382.500 C 65.453 390.869, 83.697 411.447, 96 422.439 C 103.331 428.989, 114 437.383, 114 436.601 C 114 436.317, 110.737 433.507, 106.750 430.357 C 92.907 419.419, 72.921 398.424, 60.674 381.956 C 58.876 379.539, 58.875 379.547, 60.591 382.500 M 434.148 393.805 C 430.881 398.098, 423.823 405.973, 418.465 411.305 C 413.106 416.637, 409.134 421, 409.638 421 C 411.630 421, 436.839 393.359, 440.300 387.381 C 442.411 383.735, 439.502 386.772, 434.148 393.805 M 256.667 408.667 C 255.025 410.309, 256.102 414.089, 258.527 415.194 C 261.761 416.668, 262.932 415.437, 262.279 411.250 C 261.884 408.711, 261.287 408, 259.553 408 C 258.332 408, 257.033 408.300, 256.667 408.667 M 258.218 413.154 C 258.737 414.712, 260.974 414.984, 261.053 413.500 C 261.082 412.950, 260.355 412.345, 259.438 412.154 C 258.395 411.939, 257.938 412.313, 258.218 413.154 M 402.500 426.620 C 398.161 430.614, 398.041 430.816, 401.596 428.149 C 405.354 425.329, 408.771 421.987, 407.872 422.009 C 407.668 422.014, 405.250 424.089, 402.500 426.620 M 193.535 426.587 C 191.648 429.466, 192.161 430.941, 194.402 429.081 C 195.553 428.126, 196.620 428.271, 199.556 429.777 L 203.259 431.677 199.672 433.894 C 195.408 436.529, 190.755 441.795, 191.552 443.085 C 192.710 444.958, 195.987 443.926, 197.379 441.250 C 198.994 438.146, 202.223 435.177, 206.264 433.081 C 207.769 432.301, 209 431.163, 209 430.554 C 209 429.613, 197.749 424, 195.865 424 C 195.516 424, 194.467 425.164, 193.535 426.587 M 301.635 428.073 C 299.009 430.138, 297.800 436, 300 436 C 300.550 436, 301 435.170, 301 434.155 C 301 431.939, 304.018 429, 306.294 429 C 307.193 429, 308.431 429.936, 309.043 431.081 C 309.951 432.776, 309.649 434.164, 307.415 438.581 C 305.907 441.561, 304.297 444, 303.836 444 C 303.376 444, 303 444.675, 303 445.500 C 303 447.452, 305.293 447.352, 311.770 445.114 C 318.219 442.886, 318.253 442.854, 317.440 439.618 C 316.669 436.545, 315.382 436.222, 314.535 438.890 C 314.205 439.929, 312.825 440.991, 311.468 441.251 C 308.434 441.831, 308.434 441.857, 311.500 437 C 314.472 432.292, 314.644 429.893, 312.171 427.655 C 309.664 425.386, 304.806 425.578, 301.635 428.073 M 290.500 430.681 C 289.400 430.928, 287.024 431.590, 285.221 432.152 C 282.122 433.118, 281.975 433.376, 282.549 436.837 C 283.569 442.995, 283.541 442.966, 287.429 441.892 C 291.648 440.727, 295 442.103, 295 445 C 295 448.045, 291.371 449.473, 288.468 447.571 C 285.146 445.394, 283.805 445.607, 284.180 448.250 C 284.453 450.169, 285.197 450.545, 289.241 450.804 C 293.202 451.059, 294.395 450.696, 296.491 448.600 C 299.402 445.689, 299.647 443.369, 297.385 440.139 C 296.006 438.170, 295.060 437.882, 290.905 438.167 C 284.680 438.593, 284.410 436.948, 290.387 435 C 293.527 433.977, 294.991 432.944, 294.995 431.750 C 295 430.004, 294.279 429.832, 290.500 430.681 M 218.726 434.449 C 216.923 438.230, 217.529 439.737, 219.965 437.532 C 221.581 436.069, 229 436.407, 229 437.944 C 229 438.319, 227.610 439.948, 225.911 441.563 C 222.818 444.503, 220 448.979, 220 450.950 C 220 451.528, 221.054 452, 222.342 452 C 224.195 452, 224.926 451.191, 225.846 448.119 C 226.486 445.984, 228.802 442.333, 230.994 440.006 C 233.186 437.679, 234.758 435.418, 234.488 434.981 C 234.219 434.545, 231.636 433.868, 228.749 433.479 C 225.862 433.089, 222.785 432.394, 221.911 431.936 C 220.700 431.300, 219.942 431.898, 218.726 434.449 M 392.962 434.049 C 391.058 435.726, 390.405 436.667, 391.511 436.141 C 393.405 435.241, 397.823 431, 396.867 431 C 396.624 431, 394.866 432.372, 392.962 434.049 M 266.500 435.195 C 263.724 436.769, 263.031 438.030, 263.031 441.500 C 263.031 446.273, 264.380 447.512, 269.464 447.404 C 275.309 447.281, 275.588 449.537, 270 451.732 C 265.190 453.621, 264.662 455.518, 269.198 454.610 C 276.645 453.121, 280.736 447.251, 278.918 440.665 C 277.306 434.827, 271.590 432.309, 266.500 435.195 M 250.500 436.562 C 246.916 437.681, 246.734 437.885, 248.750 438.522 C 250.797 439.169, 251 439.856, 251 446.117 C 251 451.569, 250.688 453, 249.500 453 C 248.675 453, 248 453.450, 248 454 C 248 454.550, 250.475 455, 253.500 455 C 256.525 455, 259 454.550, 259 454 C 259 453.450, 258.334 453, 257.519 453 C 255.710 453, 255.086 450.494, 254.754 441.906 L 254.500 435.312 250.500 436.562 M 116.722 439.074 C 117.944 440.347, 119.196 441.137, 119.503 440.830 C 119.811 440.522, 118.811 439.481, 117.281 438.515 L 114.500 436.759 116.722 439.074 M 267.405 439.522 C 266.550 442.928, 268.879 445.491, 271.945 444.517 C 273.669 443.970, 274.051 443.180, 273.807 440.665 C 273.554 438.059, 273.020 437.445, 270.785 437.187 C 268.563 436.931, 267.949 437.355, 267.405 439.522 M 121 441.453 C 121 442.692, 145.866 457.468, 146.643 456.691 C 146.824 456.510, 143.266 454.294, 138.736 451.766 C 134.206 449.239, 128.925 446.100, 127 444.792 C 121.860 441.299, 121 440.821, 121 441.453 M 373.750 447.021 C 371.137 448.661, 369 450.224, 369 450.493 C 369 450.761, 371.250 449.597, 374 447.905 C 376.750 446.213, 379 444.642, 379 444.414 C 379 443.756, 378.758 443.876, 373.750 447.021 M 207.169 447.161 C 207.351 448.447, 208.175 449.500, 209 449.500 C 211.169 449.500, 210.870 445.599, 208.669 445.175 C 207.249 444.901, 206.912 445.347, 207.169 447.161 M 237.057 450.965 C 235.366 452.010, 236.412 455, 238.469 455 C 239.318 455, 240 454.135, 240 453.059 C 240 450.677, 238.848 449.858, 237.057 450.965 M 358.778 455.296 C 354.531 457.548, 351.224 459.557, 351.429 459.762 C 351.838 460.171, 360.170 456.086, 365.271 452.976 C 370.807 449.601, 366.867 451.009, 358.778 455.296 M 155 460.537 C 155 461.192, 165.949 466.006, 167.374 465.978 C 167.993 465.966, 166.475 465.025, 164 463.886 C 157.614 460.948, 155 459.976, 155 460.537 M 346 461.500 C 344.625 462.286, 343.950 462.929, 344.500 462.929 C 345.050 462.929, 346.625 462.286, 348 461.500 C 349.375 460.714, 350.050 460.071, 349.500 460.071 C 348.950 460.071, 347.375 460.714, 346 461.500 M 339 464.500 C 337.625 465.286, 336.950 465.929, 337.500 465.929 C 338.050 465.929, 339.625 465.286, 341 464.500 C 342.375 463.714, 343.050 463.071, 342.500 463.071 C 341.950 463.071, 340.375 463.714, 339 464.500 M 325 469.563 C 322.795 470.397, 322.240 470.891, 323.500 470.898 C 324.600 470.905, 326.850 470.292, 328.500 469.536 C 332.318 467.788, 329.637 467.808, 325 469.563 M 186.500 472.536 C 188.150 473.292, 190.175 473.896, 191 473.879 C 191.825 473.862, 190.925 473.241, 189 472.500 C 184.434 470.742, 182.638 470.768, 186.500 472.536 M 313.500 473 C 312.239 473.542, 312.055 473.859, 313 473.859 C 313.825 473.859, 315.400 473.473, 316.500 473 C 317.761 472.458, 317.945 472.141, 317 472.141 C 316.175 472.141, 314.600 472.527, 313.500 473 M 194 475 C 194.825 475.533, 196.400 475.945, 197.500 475.914 L 199.500 475.859 197.500 475 C 196.400 474.527, 194.825 474.116, 194 474.086 C 192.667 474.037, 192.667 474.138, 194 475 M 306.500 475 L 304.500 475.859 306.500 475.914 C 307.600 475.945, 309.175 475.533, 310 475 C 311.333 474.138, 311.333 474.037, 310 474.086 C 309.175 474.116, 307.600 474.527, 306.500 475 M 208.500 477.974 C 210.410 478.820, 216.785 479.391, 215.917 478.639 C 215.688 478.441, 213.475 478.011, 211 477.683 C 207.995 477.286, 207.165 477.383, 208.500 477.974 M 292 478 L 289.500 478.801 292 478.830 C 293.375 478.846, 295.400 478.473, 296.500 478 L 298.500 477.141 296.500 477.170 C 295.400 477.186, 293.375 477.560, 292 478 M 221.500 480.161 C 228.130 481.470, 270.861 482.380, 273.815 481.274 C 275.241 480.741, 268.329 480.426, 255.815 480.454 C 244.642 480.479, 231.225 480.201, 226 479.837 C 218.372 479.304, 217.485 479.368, 221.500 480.161 M 281.250 479.689 C 282.212 479.941, 283.788 479.941, 284.750 479.689 C 285.712 479.438, 284.925 479.232, 283 479.232 C 281.075 479.232, 280.288 479.438, 281.250 479.689" stroke="none" fill="#fbf4f4" fill-rule="evenodd"/><path d="M 239 14.664 C 224.688 15.665, 203.189 19.320, 188 23.334 C 179.439 25.597, 158.439 33.790, 148.500 38.744 C 128.702 48.613, 108.303 62.714, 94 76.416 C 64.008 105.149, 48.856 127.774, 33 167.500 C 30.696 173.272, 25.018 192.584, 23.592 199.500 C 20.866 212.715, 20.011 220.657, 19.394 238.500 C 18.447 265.904, 20.964 289.306, 27.044 309.621 C 28.177 313.404, 29.846 318.975, 30.755 322 C 31.663 325.025, 32.987 328.625, 33.697 330 C 34.407 331.375, 34.990 332.842, 34.994 333.261 C 35 333.968, 35.938 336.161, 41.298 348 C 51.145 369.748, 70.526 396.577, 90.141 415.611 C 133.613 457.797, 190.937 481, 251.684 481 C 280.133 481, 310.683 475.708, 332.500 467 C 359.714 456.138, 374.173 448.166, 393.848 433.176 C 404.910 424.749, 405.564 424.169, 417.661 412.097 C 427.952 401.826, 440.292 386.707, 447.124 376 C 449.054 372.975, 451.803 368.653, 453.234 366.396 C 460.540 354.870, 472.349 327.405, 476.526 312.227 C 483.932 285.311, 486.979 256.940, 485.093 232.450 C 484.087 219.384, 479.850 195.109, 476.549 183.500 C 472.445 169.065, 463.609 147.742, 456.451 135 C 450.902 125.124, 449.742 123.288, 441.586 111.500 C 429.931 94.653, 405.455 70.180, 388.500 58.419 C 376.985 50.432, 374.871 49.094, 365 43.549 C 328.564 23.080, 279.498 11.832, 239 14.664 M 223.500 29.490 C 190.016 34.141, 157.790 46.267, 130.500 64.485 C 118.741 72.334, 116.744 73.873, 105.045 84.090 C 75.517 109.880, 51.637 147.772, 40.507 186.498 C 22.641 248.663, 33.066 316.985, 68.487 369.875 C 85.234 394.882, 105.192 414.837, 130.104 431.481 C 161.797 452.657, 193.847 463.800, 234.169 467.662 C 250.783 469.253, 252.912 469.253, 269.825 467.653 C 305.167 464.311, 332.051 456.105, 360.419 440 C 396.121 419.731, 425.842 389.853, 444.509 355.466 C 446.589 351.635, 448.626 348.050, 449.035 347.500 C 451.587 344.071, 461.366 318.511, 464.339 307.500 C 470.457 284.836, 472.007 272.660, 471.971 247.576 C 471.918 211.487, 465.562 183.616, 450.066 151.514 C 436.676 123.775, 418.170 100.069, 393.500 79.052 C 362.789 52.889, 322.759 35.326, 280.576 29.507 C 267.402 27.690, 236.528 27.681, 223.500 29.490 M 230.451 45.080 C 230.084 45.674, 230.732 46.824, 231.892 47.637 C 233.727 48.922, 234 50.115, 234 56.834 C 234 65.473, 235.136 67.985, 239.944 69.977 C 243.983 71.650, 249.118 70.568, 252.076 67.420 C 254.187 65.172, 254.489 63.853, 254.619 56.290 C 254.736 49.488, 255.106 47.520, 256.404 46.794 C 259.153 45.255, 257.148 44, 251.941 44 C 248.384 44, 247 44.390, 247 45.393 C 247 46.159, 247.675 47.045, 248.500 47.362 C 249.670 47.811, 250 49.804, 250 56.433 C 250 63.810, 249.745 65.066, 248.066 65.965 C 245.353 67.417, 243.398 67.255, 241.571 65.429 C 239.266 63.123, 239.322 48.479, 241.640 47.181 C 242.543 46.676, 242.966 45.754, 242.581 45.132 C 241.689 43.688, 231.338 43.644, 230.451 45.080 M 263 45.002 C 263 45.704, 263.685 46.780, 264.521 47.392 C 265.789 48.319, 265.872 49.402, 265.021 53.889 C 264.460 56.850, 264 60.771, 264 62.601 C 264 64.921, 263.386 66.258, 261.972 67.015 C 258.679 68.777, 260.412 69.636, 269.873 70.929 C 277.596 71.984, 279.214 71.941, 281.784 70.612 C 286.416 68.217, 287.438 63.611, 284.024 60.521 C 282.061 58.745, 282.065 58.712, 284.524 55.790 C 287.436 52.328, 287.467 52.112, 285.463 49.251 C 283.691 46.721, 279.292 45.364, 269.750 44.403 C 264.584 43.883, 263 44.024, 263 45.002 M 211.500 47.497 C 210.950 47.684, 208.813 48.118, 206.750 48.463 C 202.700 49.141, 201.770 50.866, 205 51.710 C 206.100 51.998, 207.001 52.293, 207.001 52.367 C 207.002 52.440, 207.671 56.296, 208.487 60.937 C 209.850 68.677, 209.835 69.525, 208.310 71.210 C 205.505 74.310, 208.019 74.825, 217.786 73.152 C 226.042 71.738, 227.123 71.309, 227.536 69.281 C 227.791 68.026, 228.234 65.875, 228.519 64.500 C 229.273 60.869, 227.030 61.336, 223.707 65.500 C 220.368 69.685, 216.301 70.311, 215.587 66.750 C 212.968 53.683, 212.819 51.606, 214.411 50.442 C 217.525 48.164, 215.519 46.134, 211.500 47.497 M 294 49.389 C 294 50.275, 294.450 51, 295 51 C 296.416 51, 296.245 53.476, 294.385 59.912 C 291.917 68.454, 291.172 70, 289.521 70 C 288.685 70, 288 70.662, 288 71.472 C 288 72.410, 290.087 73.531, 293.750 74.562 C 296.913 75.451, 301.634 76.789, 304.242 77.533 L 308.984 78.887 311.603 75.454 C 313.128 73.455, 313.968 71.358, 313.614 70.435 C 313.081 69.048, 312.678 69.108, 310.368 70.925 C 307.633 73.076, 301.650 73.698, 299.118 72.094 C 297.309 70.948, 298.483 64, 300.486 64 C 301.909 64, 303.457 65.764, 303.485 67.417 C 303.493 67.921, 304.013 68.504, 304.640 68.713 C 306.253 69.251, 309.229 60.259, 307.742 59.341 C 307.124 58.959, 306.441 59.176, 306.226 59.823 C 306.010 60.470, 304.746 61, 303.417 61 C 300.626 61, 300.172 58.515, 302.405 55.461 C 303.757 53.612, 303.948 53.605, 307.423 55.262 C 309.410 56.209, 311.550 58.113, 312.178 59.492 C 314.051 63.602, 316.166 62.675, 315.807 57.900 L 315.500 53.801 308.269 51.449 C 297.420 47.921, 294 47.427, 294 49.389 M 271.407 51.515 C 270.547 54.940, 271.951 56.222, 276.123 55.823 C 279.137 55.535, 279.500 55.177, 279.500 52.500 C 279.500 49.760, 279.178 49.473, 275.784 49.192 C 272.491 48.918, 271.992 49.183, 271.407 51.515 M 189.441 52.901 C 183.473 53.631, 179.639 55.904, 176.956 60.304 C 174.609 64.153, 174.509 66.738, 176.514 71.730 C 179.595 79.404, 188.389 82.158, 196.055 77.849 C 199.725 75.786, 203.013 70.679, 201.588 69.254 C 201.213 68.880, 199.375 70.244, 197.504 72.286 C 193.146 77.044, 189.559 77.236, 185.437 72.934 C 182.986 70.376, 182.500 69.040, 182.500 64.854 C 182.500 61.044, 182.966 59.498, 184.441 58.419 C 187.182 56.415, 191.296 56.658, 194.273 59 C 199.098 62.795, 200.467 60.919, 197.011 55.250 C 195.921 53.462, 194.910 52.063, 194.765 52.141 C 194.619 52.218, 192.224 52.560, 189.441 52.901 M 270.667 59.667 C 270.300 60.033, 270 61.798, 270 63.587 C 270 66.369, 270.423 66.934, 272.916 67.482 C 278.489 68.706, 282.384 63.530, 278.250 60.392 C 276.398 58.986, 271.788 58.545, 270.667 59.667 M 338.310 66.750 C 338.378 71.512, 332.089 82.242, 328.760 83.045 C 324.788 84.003, 326.307 86.118, 333.832 90.110 C 345.143 96.111, 351.917 94.935, 356.126 86.239 C 358.841 80.632, 358.033 75.830, 353.710 71.882 C 351.974 70.297, 350.211 69, 349.792 69 C 349.373 69, 346.836 67.650, 344.154 66 C 341.473 64.350, 339.049 63, 338.768 63 C 338.486 63, 338.280 64.688, 338.310 66.750 M 343.243 73.757 C 338.071 81.289, 335.856 86.122, 336.966 87.459 C 340.323 91.504, 347.621 89.425, 350.365 83.643 C 353.054 77.977, 352.355 74.752, 347.942 72.470 C 345.261 71.084, 345.036 71.146, 343.243 73.757 M 139.072 77.352 C 131.014 83.012, 129.482 84.997, 133.167 85.005 C 136.553 85.012, 145.328 97.846, 144.420 101.464 C 143.527 105.019, 145.398 104.748, 152.013 100.364 C 164.174 92.305, 163.875 92.664, 162.703 87.547 C 161.512 82.342, 159 81.302, 159 86.015 C 159 89.855, 153.135 96.650, 150.645 95.694 C 148.151 94.737, 146.348 90.252, 147.852 88.748 C 148.783 87.817, 149.480 87.819, 150.979 88.755 C 154.190 90.760, 154.447 88.253, 151.471 83.959 C 148.587 79.797, 147 79.617, 147 83.452 C 147 86.906, 144.316 87.412, 142.302 84.338 C 140.640 81.802, 140.667 81.683, 143.460 79.281 C 145.903 77.179, 146.952 76.916, 150.660 77.472 C 153.047 77.830, 155 77.723, 155 77.236 C 155 75.618, 150.403 71.999, 148.436 72.067 C 147.371 72.104, 143.157 74.482, 139.072 77.352 M 368.340 83.193 C 369.150 86.290, 358.864 99.068, 355.831 98.733 C 351.640 98.270, 353.084 100.783, 360.515 106.882 C 364.678 110.299, 368.730 113.343, 369.517 113.645 C 371.321 114.337, 378.220 110.161, 377.726 108.677 C 377.512 108.036, 375.491 107.690, 372.893 107.850 C 369.558 108.055, 367.742 107.585, 365.714 105.990 C 362.462 103.431, 362.416 103.012, 365.037 99.680 C 367.531 96.509, 370.403 97.113, 369.724 100.665 C 368.964 104.641, 371.175 104.562, 374.698 100.487 C 376.858 97.987, 377.689 96.289, 377.058 95.658 C 376.427 95.027, 375.525 95.150, 374.492 96.006 C 373.157 97.114, 372.634 97.062, 371.256 95.685 C 369.731 94.160, 369.780 93.863, 371.926 91.579 L 374.239 89.117 377.140 91.262 C 379.127 92.730, 380.233 94.604, 380.649 97.203 C 381.393 101.859, 383.145 102.089, 384.806 97.750 C 386.004 94.623, 385.907 94.368, 382.244 91 C 371.646 81.254, 367.177 78.745, 368.340 83.193 M 232.154 84.554 C 205.595 87.966, 183.263 96.197, 161.279 110.674 C 129.330 131.714, 105.271 164.188, 94.660 200.595 C 89.297 218.993, 88.500 225.191, 88.500 248.500 C 88.500 272.933, 89.568 279.978, 96.538 301.500 C 98.737 308.289, 104.987 322.256, 108.069 327.265 C 109.681 329.886, 111 332.220, 111 332.452 C 111 332.684, 113.093 335.940, 115.652 339.687 C 129.899 360.553, 150.513 379.767, 170 390.344 C 171.925 391.389, 175.300 393.222, 177.500 394.418 C 195.269 404.077, 225.038 412, 243.562 412 C 247.588 412, 251.123 412.390, 251.417 412.866 C 251.712 413.343, 251.063 414.538, 249.976 415.521 C 248.889 416.505, 248 417.888, 248 418.594 C 248 420.280, 256.025 421.466, 260.805 420.487 C 262.837 420.070, 266.913 419.815, 269.862 419.919 C 273.718 420.055, 275.753 419.628, 277.112 418.399 C 280.917 414.955, 278.976 413, 271.752 413 C 266.342 413, 267.690 411.860, 274.251 410.885 C 290.156 408.522, 300.662 405.677, 315.755 399.645 C 325.921 395.581, 339.647 387.754, 349.890 380.179 C 379.488 358.291, 401.721 325.621, 411.011 290.367 C 414.200 278.267, 417.005 258.407, 416.991 248.030 C 416.980 239.598, 414.566 219.402, 412.532 210.723 C 403.818 173.540, 382.134 140.027, 351.809 116.872 C 347.579 113.643, 343.912 111, 343.660 111 C 343.407 111, 341.018 109.533, 338.350 107.740 C 321.390 96.343, 295.500 87.374, 271.351 84.531 C 256.146 82.741, 246.221 82.747, 232.154 84.554 M 116.500 94.169 C 113.200 97.375, 109.938 99.999, 109.250 99.999 C 107.575 100, 107.675 101.250, 109.685 105.466 C 111.969 110.255, 113.812 109.994, 114.193 104.828 C 114.362 102.533, 114.999 100.492, 115.608 100.292 C 116.218 100.092, 119.228 103.037, 122.298 106.836 C 126.412 111.928, 127.733 114.304, 127.323 115.872 C 126.508 118.991, 128.824 118.504, 133.391 114.595 C 135.788 112.542, 136.997 110.804, 136.539 110.064 C 136.132 109.404, 135.225 109.084, 134.524 109.352 C 133.189 109.865, 128.186 105.049, 123.602 98.840 C 120.527 94.675, 121.183 93.682, 126.682 94.175 C 128.755 94.361, 130.477 94.017, 130.698 93.374 C 131.069 92.292, 124.620 87.820, 123.193 88.170 C 122.812 88.263, 119.800 90.962, 116.500 94.169 M 227.500 99.019 C 206.547 102.794, 184.279 111.664, 167.835 122.785 C 158.512 129.090, 144.407 141.423, 139.380 147.662 C 137.246 150.312, 134.675 153.384, 133.668 154.490 C 130.233 158.258, 121.277 172.481, 117.086 180.823 C 100.607 213.622, 96.733 250.728, 106.074 286.290 C 113.012 312.706, 125.987 335.236, 145.397 354.573 C 154.810 363.950, 159.634 367.904, 170.073 374.796 C 177.247 379.533, 195.717 389, 197.784 389 C 198.313 389, 200.715 389.864, 203.123 390.921 C 205.530 391.978, 209.193 393.154, 211.262 393.535 C 214.654 394.159, 214.954 394.044, 214.313 392.364 C 213.759 390.912, 214.326 391.108, 216.877 393.250 C 218.679 394.762, 220.587 396, 221.116 396 C 221.646 396, 223.814 397.770, 225.934 399.933 C 230.070 404.152, 233.790 405.573, 245.500 407.405 C 252.102 408.438, 252.518 408.658, 252.820 411.283 C 253.045 413.242, 252.452 414.624, 250.820 415.947 C 246.515 419.437, 248.656 419.769, 269.290 418.805 C 273.935 418.588, 276.369 418.020, 276.995 417.008 C 278.293 414.908, 275.615 413.662, 271.472 414.439 C 268.700 414.959, 267.909 414.698, 266.977 412.957 C 265.246 409.723, 266.310 408.421, 273.693 404.733 C 283.001 400.083, 287 394.892, 287 387.459 C 287 384.392, 286.120 379.840, 284.955 376.885 C 283.544 373.307, 283.001 369.958, 283.205 366.098 L 283.500 360.500 292.500 360.500 C 299.758 360.500, 301.500 360.215, 301.500 359.028 C 301.500 358.061, 299.956 357.298, 297 356.804 C 293.340 356.193, 291.780 355.208, 288.646 351.526 C 285.167 347.441, 284.368 347, 280.436 347 C 272.521 347, 268.679 353.975, 273 360.500 C 275.771 364.684, 275.821 374.947, 273.082 377.425 C 271.972 378.431, 270.184 378.974, 268.832 378.717 C 266.731 378.316, 266.772 378.259, 269.250 378.136 L 272 378 272 369.059 C 272 363.666, 271.566 359.850, 270.906 359.442 C 270.224 359.021, 270.051 357.209, 270.445 354.633 C 271.756 346.069, 272.180 340.910, 271.679 339.606 C 271.249 338.486, 269.879 338.515, 263.523 339.779 C 253.493 341.775, 244.619 340.347, 236.436 335.419 C 233.313 333.539, 230.587 332, 230.379 332 C 230.170 332, 230 344.164, 230 359.031 C 230 381.667, 230.235 386.153, 231.444 386.617 C 232.238 386.921, 235.871 385.531, 239.518 383.527 C 243.165 381.523, 246.563 380.022, 247.068 380.192 C 248.734 380.751, 233.560 388.023, 230.750 388.011 C 227.575 387.998, 227.037 389.935, 230 390.710 C 231.100 390.998, 232 391.642, 232 392.142 C 232 392.642, 230.672 392.365, 229.050 391.526 C 225.604 389.744, 222.577 389.507, 223.559 391.096 C 223.980 391.777, 223.530 392.055, 222.368 391.830 C 221.312 391.625, 220.499 390.624, 220.497 389.528 C 220.495 388.069, 219.503 387.385, 216.497 386.769 C 212.995 386.051, 208.479 384.630, 201.500 382.049 C 200.400 381.642, 196.463 379.894, 192.750 378.164 L 186 375.019 186 358.509 L 186 342 180.750 341.984 C 177.863 341.976, 172.800 341.323, 169.500 340.533 C 163.918 339.197, 163.223 339.232, 159.527 341.033 L 155.553 342.970 152.027 340.665 C 146.195 336.853, 145 336.681, 145 339.654 C 145 341.955, 144.813 342.091, 143.332 340.872 C 137.750 336.281, 122.849 311.580, 118.374 299.500 C 111.841 281.866, 108.981 266.039, 109.032 247.807 C 109.116 217.874, 117.410 191.615, 134.946 165.770 C 137.806 161.554, 140 157.195, 140 155.726 C 140 151.919, 141.717 148.042, 143.735 147.294 C 144.706 146.934, 147.147 145.563, 149.159 144.247 C 152.682 141.944, 152.937 141.916, 156.005 143.503 C 160.031 145.584, 166.138 145.712, 177.250 143.947 L 186 142.557 186 131.722 L 186 120.886 193.250 117.609 C 203.854 112.815, 217.633 108.408, 225.250 107.373 L 230 106.728 230 128.864 C 230 141.904, 230.384 151, 230.934 151 C 231.447 151, 234.222 149.537, 237.100 147.750 C 242.231 144.564, 242.562 144.501, 253.917 144.535 C 261.309 144.557, 266.321 145.026, 267.771 145.831 C 269.020 146.525, 270.482 146.820, 271.021 146.487 C 271.605 146.126, 272 138.107, 272 126.608 C 272 116.007, 272.229 107.105, 272.508 106.825 C 274.296 105.038, 302.839 113.245, 312.864 118.430 L 316 120.051 316 133.526 C 316 140.937, 316.197 147, 316.438 147 C 316.679 147, 319.941 146.279, 323.688 145.397 C 332.934 143.222, 345.478 143.954, 353.411 147.132 C 361.980 150.565, 369.363 158.002, 371.500 165.352 C 372.407 168.471, 375.941 176.530, 379.354 183.261 C 390.379 205.003, 393.994 219.266, 394.720 243.880 C 395.545 271.856, 391.189 291.393, 378.938 314.670 C 371.827 328.181, 359.744 344.578, 357.789 343.370 C 357.215 343.015, 357.021 324.729, 357.290 296.311 C 357.771 245.475, 358.035 247.746, 351.905 249.883 C 350.188 250.482, 345.162 251.273, 340.735 251.642 C 328.459 252.666, 329 251.383, 329 279.474 L 329 302.949 331.879 304.437 C 335.600 306.362, 335.809 307.028, 336.616 319.507 C 337.218 328.817, 337.090 330.243, 335.493 332.008 C 334.501 333.104, 332.930 334, 332 334 C 331.070 334, 329.476 334.921, 328.457 336.047 C 326.860 337.812, 325.874 338.003, 321.302 337.432 L 316 336.770 316 356.442 L 316 376.114 308.716 379.433 C 304.709 381.259, 298.666 383.574, 295.287 384.577 C 289.427 386.316, 289.094 386.588, 288.122 390.418 C 287.561 392.628, 287.223 394.556, 287.371 394.704 C 288.110 395.443, 303.214 390.463, 312.119 386.544 C 358.324 366.209, 390.055 326.609, 400.698 276 C 403.497 262.691, 403.243 230.825, 400.234 217.744 C 394.706 193.712, 383.534 170.107, 369.683 153.195 C 347.360 125.940, 315.887 106.992, 281.102 99.865 C 266.438 96.861, 241.653 96.470, 227.500 99.019 M 98.823 113.755 C 95.066 116.205, 84.749 128.785, 85.501 130.001 C 85.843 130.555, 87.156 130.748, 88.419 130.431 C 91.678 129.613, 104.362 140.284, 103.470 143.094 C 102.410 146.434, 105.626 145.260, 108.916 141.106 C 112.484 136.601, 112.890 134.583, 110.046 135.486 C 107.769 136.208, 103 133.432, 103 131.385 C 103 130.323, 104.823 130, 110.812 130 C 118.278 130, 118.719 129.871, 120.774 127.091 C 122.637 124.572, 122.729 124.020, 121.462 122.969 C 120.435 122.116, 120 122.089, 120 122.878 C 120 123.583, 117.765 124, 113.981 124 C 108.060 124, 107.972 123.959, 108.589 121.500 C 109.542 117.705, 108.334 114.473, 105.477 113.171 C 102.174 111.667, 102.005 111.682, 98.823 113.755 M 402.736 112.598 C 402.407 112.927, 402.356 113.764, 402.623 114.459 C 402.890 115.155, 400.946 117.506, 398.304 119.684 C 390.698 125.954, 388.830 126.995, 386.316 126.365 C 384.810 125.986, 384 126.225, 384 127.047 C 384 128.361, 388.641 134.988, 390.399 136.184 C 391.853 137.173, 393.229 136.038, 392.591 134.376 C 392.060 132.994, 395.190 129, 396.804 129 C 397.246 129, 399.134 130.575, 401 132.500 C 407.068 138.761, 415 136.578, 415 128.648 C 415 126.683, 413.303 123.515, 409.760 118.871 C 404.558 112.050, 403.885 111.448, 402.736 112.598 M 96.771 121.075 L 93.696 124.150 96.405 126.825 L 99.114 129.500 101.557 126.694 C 104.337 123.502, 104.762 119.507, 102.418 118.607 C 100.118 117.724, 100.125 117.721, 96.771 121.075 M 403.201 123.813 C 400.647 125.779, 401.003 128.396, 404.045 130.024 C 407.847 132.059, 411.172 128.058, 409.020 124.038 C 407.690 121.552, 406.214 121.495, 403.201 123.813 M 80.500 140.970 C 74.881 143.806, 72 148.421, 72 154.589 C 72 160.237, 73.504 162.912, 78.367 165.918 C 85.012 170.024, 93.592 167.312, 97.202 159.964 C 100.599 153.049, 98.821 145.902, 92.774 142.174 C 87.618 138.996, 84.936 138.733, 80.500 140.970 M 415 144.051 C 412.525 144.491, 407.913 144.885, 404.750 144.926 C 398.322 145.009, 397.957 145.576, 401.082 150.632 C 403.508 154.558, 404.734 154.893, 405.180 151.750 C 405.693 148.143, 409.952 148.754, 412.299 152.771 C 413.877 155.475, 413.986 156.312, 412.924 157.591 C 412.218 158.442, 410.793 158.918, 409.759 158.647 C 406.758 157.862, 406.644 160.476, 409.483 164.972 C 412.251 169.358, 414.097 169.771, 414.972 166.201 C 415.263 165.019, 418.235 160.777, 421.577 156.775 C 429.228 147.617, 429.315 147.457, 428.011 145.021 C 426.831 142.817, 423.382 142.560, 415 144.051 M 81 145.709 C 76.224 147.466, 74.576 152.533, 77.516 156.420 C 81.749 162.014, 89.353 163.684, 92.961 159.811 C 95.688 156.885, 95.531 154.784, 92.297 150.941 C 90.137 148.374, 84.162 144.693, 82.782 145.079 C 82.627 145.122, 81.825 145.406, 81 145.709 M 177.500 147.569 C 171.533 149.280, 160.573 149.571, 156.788 148.119 C 154.735 147.331, 153.400 147.432, 151.288 148.533 C 149.755 149.333, 147.440 149.990, 146.144 149.994 C 143.789 150, 143.788 150.005, 144.508 159.105 C 144.905 164.112, 145.515 169.278, 145.864 170.585 C 146.942 174.616, 148.473 173.735, 149.045 168.755 C 149.596 163.963, 151.322 160.989, 152.733 162.400 C 153.155 162.821, 153.500 178.099, 153.500 196.350 C 153.500 228.639, 153.442 229.613, 151.367 232.466 L 149.235 235.398 151.232 238.100 C 153.171 240.722, 153.177 240.892, 151.435 243.840 C 149.753 246.689, 149.743 247.115, 151.278 250.689 C 154.606 258.439, 154.989 262.721, 154.994 292.250 C 154.999 317.575, 154.784 322, 153.550 322 C 152.486 322, 152.020 320.469, 151.800 316.250 C 151.575 311.939, 151.125 310.500, 150 310.500 C 148.822 310.500, 148.279 312.829, 147.470 321.342 L 146.440 332.184 149.970 334.102 C 151.911 335.158, 154.258 336.558, 155.185 337.214 C 156.503 338.148, 157.413 338.117, 159.362 337.074 C 161.156 336.114, 163.485 335.953, 167.677 336.500 C 173.813 337.301, 183.818 337.340, 200.676 336.629 C 211.725 336.163, 217.683 334.037, 216.383 331.023 C 215.029 327.884, 214.701 289.437, 215.994 285.519 C 217.015 282.426, 216.992 281.614, 215.867 280.920 C 210.292 277.482, 208.689 274.647, 207.521 266.153 C 207.131 263.319, 206.467 261, 206.045 261 C 205.624 261, 205.022 263.171, 204.707 265.823 C 203.951 272.210, 201.484 277.166, 197.873 279.553 C 195.615 281.047, 195.095 281.966, 195.641 283.500 C 196.033 284.600, 196.526 293.618, 196.736 303.541 C 197.104 320.865, 197.036 321.658, 195.013 323.488 C 192.119 326.107, 186.511 325.828, 183.405 322.910 L 180.975 320.627 181.237 286.172 C 181.478 254.614, 181.647 251.624, 183.250 250.614 C 184.521 249.812, 185.479 249.810, 186.750 250.607 C 189.169 252.124, 189.400 255.056, 187.532 260.557 C 185.347 266.994, 186.756 270.945, 191.250 270.985 C 192.536 270.996, 193 270.194, 193 267.960 C 193 265.680, 194.031 263.967, 197.125 261.111 C 201.957 256.649, 202.432 253.428, 198.953 248.722 C 197.689 247.013, 197.119 245.460, 197.686 245.271 C 198.253 245.082, 199.568 244.267, 200.608 243.460 C 202.432 242.044, 202.395 241.905, 199.603 239.591 L 196.705 237.190 198.853 234.460 C 201.812 230.698, 201.556 228.516, 197.588 223.668 C 195.712 221.376, 194.024 218.185, 193.838 216.577 C 193.405 212.836, 192.006 212.421, 188.669 215.046 C 185.543 217.505, 185.228 220.908, 187.601 226.587 C 189.147 230.287, 189.127 230.479, 187.008 232.195 C 184.528 234.203, 181.501 233.280, 180.634 230.251 C 180.359 229.288, 179.991 214.039, 179.817 196.364 C 179.517 165.922, 179.600 164.117, 181.405 162.114 C 183.937 159.304, 188.224 159.428, 191.694 162.413 C 194.437 164.771, 194.511 165.114, 195.011 177.663 C 195.292 184.723, 195.145 192.712, 194.685 195.416 C 193.885 200.121, 193.978 200.432, 196.849 202.679 C 199.969 205.121, 202.670 211.631, 203.206 218 C 203.400 220.314, 204.008 221.500, 205 221.500 C 206.124 221.500, 206.642 219.849, 207.067 214.911 C 207.617 208.526, 209.557 204.273, 213.360 201.116 C 214.486 200.182, 214.600 199.134, 213.865 196.473 C 212.785 192.563, 213.109 156.287, 214.244 154 C 214.768 152.945, 213.994 151.857, 211.634 150.332 C 208.849 148.532, 207.279 148.250, 202.389 148.667 C 198.653 148.987, 194.321 148.591, 190.540 147.585 C 183.554 145.727, 183.921 145.728, 177.500 147.569 M 416.250 147.706 C 413.632 148.210, 413.479 148.905, 415.404 151.538 C 416.770 153.406, 416.865 153.391, 418.871 150.979 C 422.132 147.059, 421.795 146.638, 416.250 147.706 M 243.748 149.427 C 237.539 151.642, 232.960 155.848, 230.174 161.893 C 227.615 167.446, 227.585 167.802, 227.028 199 C 226.545 226.091, 226.228 230.941, 224.760 233.649 C 223.263 236.411, 223.234 236.949, 224.526 238.022 C 226.306 239.499, 226.441 243.322, 224.805 245.940 C 223.829 247.504, 224.007 248.643, 225.781 252.177 C 227.851 256.300, 227.964 257.960, 228.226 288 C 228.487 318.061, 228.598 319.683, 230.653 323.500 C 235.614 332.718, 241.909 335.521, 257.500 335.451 C 269.601 335.397, 273.826 334.012, 279.186 328.342 C 284.173 323.067, 285.754 315.076, 286.143 293.191 C 286.397 278.896, 286.395 278.881, 283.948 277.663 C 280.531 275.962, 278.105 270.447, 278.048 264.250 C 278.014 260.523, 277.607 259, 276.645 259 C 275.703 259, 275.101 261.020, 274.671 265.621 C 274.010 272.699, 270.943 278.248, 267.001 279.500 C 265.284 280.045, 265.168 280.443, 266.178 282.317 C 266.975 283.794, 267.289 289.998, 267.149 301.500 C 266.943 318.492, 266.942 318.501, 264.308 320.842 C 261.297 323.520, 256.663 323.242, 254.390 320.247 C 252.266 317.449, 252.430 256.466, 254.575 251.103 C 255.977 247.601, 255.987 246.853, 254.666 244.333 C 253.338 241.798, 253.354 241.208, 254.821 238.726 C 256.148 236.480, 256.225 235.624, 255.227 234.226 C 251.680 229.257, 251.522 227.669, 251.511 196.905 C 251.499 164.052, 251.523 163.892, 256.709 161.921 C 259.947 160.690, 263.620 162.365, 265.452 165.907 C 267.544 169.952, 267.625 191.978, 265.569 197.804 C 264.164 201.787, 264.187 201.892, 266.819 203.597 C 270.587 206.039, 272.958 208.941, 273.631 211.934 C 275.237 219.079, 275.605 220.120, 276.515 220.090 C 277.057 220.072, 277.764 217.907, 278.086 215.279 C 278.934 208.376, 280.453 205.410, 283.932 203.870 C 287.468 202.305, 287.493 202.166, 285.433 195.500 C 284.229 191.602, 283.944 186.442, 284.145 172.096 C 284.395 154.202, 284.344 153.671, 282.303 152.916 C 281.149 152.489, 279.914 151.670, 279.559 151.095 C 279.182 150.485, 277.161 150.280, 274.706 150.603 C 272.259 150.924, 268.008 150.496, 264.540 149.578 C 257.341 147.672, 248.838 147.610, 243.748 149.427 M 322.500 149.551 C 315.026 150.608, 310.922 150.710, 306.255 149.954 C 301.157 149.129, 299.468 149.224, 297.055 150.472 C 295.429 151.312, 293.402 152, 292.550 152 C 291.352 152, 291.025 153.080, 291.108 156.750 C 291.264 163.625, 293.335 174.500, 294.488 174.500 C 295.031 174.500, 295.778 172.385, 296.148 169.800 C 296.517 167.215, 297.116 164.621, 297.479 164.034 C 299.539 160.701, 300 166.817, 300 197.478 C 300 227.418, 299.821 231.151, 298.250 233.896 C 296.802 236.427, 296.716 237.300, 297.750 238.963 C 299.301 241.457, 299.335 243.491, 297.864 245.846 C 296.975 247.270, 297.191 249.003, 298.864 253.836 C 300.851 259.577, 300.999 261.980, 300.985 288.254 C 300.976 303.789, 300.572 317.128, 300.086 317.896 C 298.405 320.550, 296 318.310, 296 314.090 C 296 310.149, 294.555 307.980, 293.033 309.637 C 292.597 310.112, 291.934 314.885, 291.560 320.244 L 290.880 329.988 293.690 331.188 C 295.236 331.847, 297.190 332.956, 298.032 333.651 C 299.276 334.678, 300.407 334.621, 304.032 333.354 C 307.399 332.177, 310.595 331.942, 317 332.402 C 324.398 332.933, 325.921 332.754, 328.750 331.021 L 332 329.029 332 319.637 C 332 313, 331.606 309.918, 330.658 309.131 C 328.724 307.526, 328 308.746, 328 313.608 C 328 318.506, 326.620 320.028, 324.972 316.947 C 324.185 315.477, 323.942 306.005, 324.171 285.669 C 324.473 258.864, 324.658 256.239, 326.448 253.279 C 328.796 249.399, 334.247 247.005, 340.770 246.988 C 343.372 246.982, 347.750 246.377, 350.500 245.644 C 367.043 241.236, 368.955 236.077, 368.983 195.788 C 369.002 166.872, 368.187 162.421, 361.752 156.306 C 353.627 148.585, 342.666 146.698, 322.500 149.551 M 329.315 162.007 C 328.114 162.491, 326.651 163.783, 326.065 164.878 C 325.376 166.166, 325 178.025, 325 198.480 L 325 230.091 327.455 232.545 C 330.489 235.580, 336.673 235.895, 340.020 233.185 C 343.256 230.565, 343.881 224.869, 343.881 198 C 343.881 171.131, 343.256 165.435, 340.020 162.815 C 337.649 160.895, 332.954 160.541, 329.315 162.007 M 429.533 162.947 C 428.626 164.414, 429.791 165.994, 431.809 166.032 C 433.614 166.066, 437 168.267, 437 169.407 C 437 169.784, 433.134 171.921, 428.410 174.156 C 422.117 177.133, 419.523 177.923, 418.710 177.110 C 415.555 173.955, 415.194 176.956, 418.023 182.812 C 420.098 187.106, 423 188.463, 423 185.139 C 423 182.640, 438.669 175.269, 440.368 176.968 C 441.193 177.793, 441.017 178.905, 439.700 181.200 C 437.613 184.836, 438.699 186.829, 441.734 184.934 C 445.949 182.302, 446.117 180.592, 442.821 173.835 C 441.121 170.351, 439.424 166.375, 439.049 165 C 438.483 162.927, 437.669 162.448, 434.275 162.197 C 432.025 162.030, 429.891 162.368, 429.533 162.947 M 184.250 168.315 C 182.694 171.819, 182.444 217, 183.981 217 C 185.785 217, 186.066 212.644, 185.782 189 C 185.544 169.204, 185.303 165.944, 184.250 168.315 M 256.975 168.565 C 256.427 170.008, 256 183.281, 256 198.911 C 256 222.103, 256.258 227.210, 257.563 229.826 C 258.423 231.550, 259.548 233.221, 260.063 233.539 C 261.519 234.439, 261.167 237.975, 259.453 239.690 C 258.056 241.087, 258.056 241.404, 259.453 242.948 C 261.395 245.093, 261.453 248.929, 259.565 250.390 C 258.397 251.293, 257.999 257.562, 257.428 284.041 C 256.772 314.452, 256.842 316.699, 258.506 318.363 C 260.115 319.972, 260.435 319.994, 261.838 318.590 C 263.957 316.472, 264.216 287.686, 262.151 283.801 C 260.346 280.403, 260.988 277.813, 264.009 276.314 C 268.612 274.030, 270 271.280, 270 264.448 C 270 260.967, 270.450 257.840, 271 257.500 C 271.603 257.128, 272 250.197, 272 240.063 C 272 226.334, 271.725 223.016, 270.500 222 C 269.551 221.212, 269 219.006, 269 215.994 C 269 211.736, 268.591 210.864, 265.137 207.743 C 263.013 205.824, 260.971 203.762, 260.601 203.163 C 260.230 202.563, 260.659 199.246, 261.554 195.793 C 262.808 190.953, 263.029 187.218, 262.519 179.507 C 262.155 174.003, 261.634 168.713, 261.361 167.750 C 260.626 165.158, 258.092 165.629, 256.975 168.565 M 330.533 168.250 C 328.244 171.510, 328.316 224.579, 330.615 227.860 C 332.276 230.232, 334.960 230.640, 336.800 228.800 C 338.514 227.086, 338.514 168.914, 336.800 167.200 C 334.933 165.333, 332.268 165.780, 330.533 168.250 M 64.760 168.974 C 62.684 170.607, 57 182.979, 57 185.865 C 57 186.278, 59.138 186.643, 61.750 186.678 C 67.773 186.757, 77.513 191.031, 78.271 193.927 C 78.569 195.067, 79.242 196, 79.768 196 C 80.870 196, 85.306 184.973, 84.520 184.187 C 84.232 183.899, 82.929 184.235, 81.623 184.934 C 79.785 185.918, 78.757 185.940, 77.061 185.033 C 75.206 184.040, 74.992 183.374, 75.660 180.680 C 77.074 174.980, 76.512 170.833, 74.058 168.846 C 71.111 166.460, 67.900 166.504, 64.760 168.974 M 65.571 174.571 C 63.027 177.116, 63.655 179.684, 67.115 180.890 C 71.098 182.279, 72 181.661, 72 177.548 C 72 173.085, 68.622 171.521, 65.571 174.571 M 145.688 177.646 C 145.309 178.024, 145 190.730, 145 205.881 C 145 231.201, 145.130 233.298, 146.610 231.819 C 149.280 229.148, 149.797 222.543, 149.134 199.581 C 148.538 178.988, 147.969 175.364, 145.688 177.646 M 433.665 193.700 C 427.886 195.385, 425.009 199.404, 425.004 205.800 C 424.997 213.060, 429.825 219.621, 435.500 220.066 C 441.643 220.548, 444.019 219.922, 447.434 216.924 C 451.536 213.322, 452.795 208.595, 451.130 203.039 C 448.552 194.436, 442.408 191.151, 433.665 193.700 M 54 197.846 C 54 198.862, 53.275 201.145, 52.390 202.920 C 49.475 208.763, 52.607 216, 58.051 216 C 60.983 216, 65.630 211.550, 68.507 205.987 C 70.645 201.851, 75 201.711, 75 205.777 C 75 209.283, 72.720 212.576, 68.939 214.531 C 64.178 216.993, 65.134 219, 71.067 219 C 75.738 219, 76.083 218.838, 75.477 216.928 C 75.056 215.600, 75.454 214.156, 76.587 212.903 C 77.738 211.632, 78.380 209.252, 78.427 206.082 C 78.517 200.082, 76.172 197, 71.519 197 C 68.015 197, 65.848 198.919, 61.571 205.813 C 58.646 210.528, 55.736 211.140, 55.170 207.160 C 54.932 205.488, 55.979 203.789, 58.920 201.074 C 61.164 199.002, 63 197.013, 63 196.654 C 63 196.294, 60.975 196, 58.500 196 C 54.791 196, 54 196.325, 54 197.846 M 434.325 200.459 C 427.674 203.352, 426.591 210.490, 432.402 213.137 C 436.260 214.895, 443.562 213.372, 445.972 210.308 C 451.784 202.920, 443.932 196.280, 434.325 200.459 M 65 223.326 C 65 224.055, 66.102 225.686, 67.448 226.951 C 73.542 232.676, 70.689 241.120, 63.582 238.393 C 61.339 237.532, 61.619 234.256, 64 233.500 C 67.334 232.442, 66.257 231.161, 61.425 230.436 C 56.146 229.645, 53.483 231.118, 56.893 232.943 C 58.052 233.563, 59 234.955, 59 236.035 C 59 237.614, 58.312 238, 55.500 238 C 52.077 238, 52 237.911, 52 233.955 C 52 230.973, 52.657 229.252, 54.500 227.409 C 55.875 226.034, 57 224.423, 57 223.830 C 57 222.297, 50.769 223.667, 49.399 225.501 C 48.793 226.312, 48.028 231.143, 47.698 236.236 C 47.060 246.083, 47.969 249.080, 50.538 245.599 C 51.795 243.896, 52.839 243.762, 60.580 244.308 C 67.216 244.777, 69.538 245.334, 70.591 246.709 C 71.787 248.271, 72.090 248.308, 72.966 247 C 73.518 246.175, 73.976 243.200, 73.985 240.390 C 73.993 237.579, 74.281 233.229, 74.624 230.723 C 75.246 226.190, 75.229 226.158, 71.164 224.084 C 66.417 221.662, 65 221.488, 65 223.326 M 434 226.723 C 433.175 227.033, 431.439 227.680, 430.141 228.160 C 428.346 228.824, 428.041 229.345, 428.865 230.338 C 429.497 231.099, 429.726 233.694, 429.415 236.571 C 428.505 244.977, 434.277 251.018, 440.505 248.180 C 442.303 247.361, 443.423 245.251, 445.219 239.303 C 447.117 233.016, 447.956 231.500, 449.537 231.500 C 452.660 231.500, 452.639 236.779, 449.498 241.407 C 448.070 243.512, 447.124 245.457, 447.396 245.729 C 447.668 246.002, 449.603 245.820, 451.696 245.325 L 455.500 244.425 455.468 237.962 C 455.425 229.325, 453.324 226, 447.908 226 C 443.238 226, 441.753 227.910, 439.932 236.262 C 438.500 242.831, 436.815 244.921, 434.500 243 C 432 240.925, 432.659 235.463, 435.853 231.785 C 439.680 227.378, 438.782 224.923, 434 226.723 M 145 241.059 C 145 242.844, 145.417 243.861, 146 243.500 C 146.550 243.160, 147 241.784, 147 240.441 C 147 239.098, 146.550 238, 146 238 C 145.450 238, 145 239.377, 145 241.059 M 145 278.700 C 145 301.800, 145.267 308.133, 146.200 307.200 C 146.860 306.540, 148.257 306, 149.304 306 C 151.133 306, 151.193 305.070, 150.820 282.250 C 150.465 260.525, 150.247 258.095, 148.272 253.750 C 147.084 251.137, 145.862 249, 145.556 249 C 145.250 249, 145 262.365, 145 278.700 M 183.630 256.250 C 182.740 259.572, 182.873 263, 183.893 263 C 185.111 263, 186 260.433, 186 256.918 C 186 253.467, 184.490 253.041, 183.630 256.250 M 184 294.382 C 184 310.303, 184.376 320.114, 185 320.500 C 185.657 320.906, 186 312.363, 186 295.618 C 186 279.697, 185.624 269.886, 185 269.500 C 184.343 269.094, 184 277.637, 184 294.382 M 252.500 378.555 C 249.826 379.492, 249.494 379.758, 251.500 379.357 C 253.150 379.028, 256.975 378.421, 260 378.010 L 265.500 377.262 261 377.208 C 258.525 377.178, 254.700 377.784, 252.500 378.555 M 256.667 408.667 C 255.025 410.309, 256.102 414.089, 258.527 415.194 C 261.761 416.668, 262.932 415.437, 262.279 411.250 C 261.884 408.711, 261.287 408, 259.553 408 C 258.332 408, 257.033 408.300, 256.667 408.667 M 258.218 413.154 C 258.737 414.712, 260.974 414.984, 261.053 413.500 C 261.082 412.950, 260.355 412.345, 259.438 412.154 C 258.395 411.939, 257.938 412.313, 258.218 413.154 M 193.535 426.587 C 191.648 429.466, 192.161 430.941, 194.402 429.081 C 195.553 428.126, 196.620 428.271, 199.556 429.777 L 203.259 431.677 199.672 433.894 C 195.408 436.529, 190.755 441.795, 191.552 443.085 C 192.710 444.958, 195.987 443.926, 197.379 441.250 C 198.994 438.146, 202.223 435.177, 206.264 433.081 C 207.769 432.301, 209 431.163, 209 430.554 C 209 429.613, 197.749 424, 195.865 424 C 195.516 424, 194.467 425.164, 193.535 426.587 M 301.635 428.073 C 299.009 430.138, 297.800 436, 300 436 C 300.550 436, 301 435.170, 301 434.155 C 301 431.939, 304.018 429, 306.294 429 C 307.193 429, 308.431 429.936, 309.043 431.081 C 309.951 432.776, 309.649 434.164, 307.415 438.581 C 305.907 441.561, 304.297 444, 303.836 444 C 303.376 444, 303 444.675, 303 445.500 C 303 447.452, 305.293 447.352, 311.770 445.114 C 318.219 442.886, 318.253 442.854, 317.440 439.618 C 316.669 436.545, 315.382 436.222, 314.535 438.890 C 314.205 439.929, 312.825 440.991, 311.468 441.251 C 308.434 441.831, 308.434 441.857, 311.500 437 C 314.472 432.292, 314.644 429.893, 312.171 427.655 C 309.664 425.386, 304.806 425.578, 301.635 428.073 M 290.500 430.681 C 289.400 430.928, 287.024 431.590, 285.221 432.152 C 282.122 433.118, 281.975 433.376, 282.549 436.837 C 283.569 442.995, 283.541 442.966, 287.429 441.892 C 291.648 440.727, 295 442.103, 295 445 C 295 448.045, 291.371 449.473, 288.468 447.571 C 285.146 445.394, 283.805 445.607, 284.180 448.250 C 284.453 450.169, 285.197 450.545, 289.241 450.804 C 293.202 451.059, 294.395 450.696, 296.491 448.600 C 299.402 445.689, 299.647 443.369, 297.385 440.139 C 296.006 438.170, 295.060 437.882, 290.905 438.167 C 284.680 438.593, 284.410 436.948, 290.387 435 C 293.527 433.977, 294.991 432.944, 294.995 431.750 C 295 430.004, 294.279 429.832, 290.500 430.681 M 218.726 434.449 C 216.923 438.230, 217.529 439.737, 219.965 437.532 C 221.581 436.069, 229 436.407, 229 437.944 C 229 438.319, 227.610 439.948, 225.911 441.563 C 222.818 444.503, 220 448.979, 220 450.950 C 220 451.528, 221.054 452, 222.342 452 C 224.195 452, 224.926 451.191, 225.846 448.119 C 226.486 445.984, 228.802 442.333, 230.994 440.006 C 233.186 437.679, 234.758 435.418, 234.488 434.981 C 234.219 434.545, 231.636 433.868, 228.749 433.479 C 225.862 433.089, 222.785 432.394, 221.911 431.936 C 220.700 431.300, 219.942 431.898, 218.726 434.449 M 266.500 435.195 C 263.724 436.769, 263.031 438.030, 263.031 441.500 C 263.031 446.273, 264.380 447.512, 269.464 447.404 C 275.309 447.281, 275.588 449.537, 270 451.732 C 265.190 453.621, 264.662 455.518, 269.198 454.610 C 276.645 453.121, 280.736 447.251, 278.918 440.665 C 277.306 434.827, 271.590 432.309, 266.500 435.195 M 250.500 436.562 C 246.916 437.681, 246.734 437.885, 248.750 438.522 C 250.797 439.169, 251 439.856, 251 446.117 C 251 451.569, 250.688 453, 249.500 453 C 248.675 453, 248 453.450, 248 454 C 248 454.550, 250.475 455, 253.500 455 C 256.525 455, 259 454.550, 259 454 C 259 453.450, 258.334 453, 257.519 453 C 255.710 453, 255.086 450.494, 254.754 441.906 L 254.500 435.312 250.500 436.562 M 267.405 439.522 C 266.550 442.928, 268.879 445.491, 271.945 444.517 C 273.669 443.970, 274.051 443.180, 273.807 440.665 C 273.554 438.059, 273.020 437.445, 270.785 437.187 C 268.563 436.931, 267.949 437.355, 267.405 439.522 M 207.169 447.161 C 207.351 448.447, 208.175 449.500, 209 449.500 C 211.169 449.500, 210.870 445.599, 208.669 445.175 C 207.249 444.901, 206.912 445.347, 207.169 447.161 M 237.057 450.965 C 235.366 452.010, 236.412 455, 238.469 455 C 239.318 455, 240 454.135, 240 453.059 C 240 450.677, 238.848 449.858, 237.057 450.965" stroke="none" fill="#f70e0e" fill-rule="evenodd"/></svg>