<?xml version="1.0" encoding="UTF-8"?>
<!DOCTYPE svg PUBLIC "-//W3C//DTD SVG 1.1//EN" "http://www.w3.org/Graphics/SVG/1.1/DTD/svg11.dtd">
<!-- Creator: CorelDRAW -->
<svg xmlns="http://www.w3.org/2000/svg" xml:space="preserve" width="36.7314mm" height="36.7312mm" version="1.1" style="shape-rendering:geometricPrecision; text-rendering:geometricPrecision; image-rendering:optimizeQuality; fill-rule:evenodd; clip-rule:evenodd"
viewBox="0 0 895.57 895.57"
 xmlns:xlink="http://www.w3.org/1999/xlink"
 xmlns:xodm="http://www.corel.com/coreldraw/odm/2003">
 <defs>
  <style type="text/css">
   <![CDATA[
    .fil0 {fill:#323050}
    .fil2 {fill:#FF99FF}
    .fil1 {fill:#323050;fill-rule:nonzero}
    .fil3 {fill:#00205B;fill-rule:nonzero}
   ]]>
  </style>
 </defs>
 <g id="Camada_x0020_1">
  <metadata id="CorelCorpID_0Corel-Layer"/>
  <g id="_2119666029904">
   <g>
    <path class="fil0" d="M447.78 0c247.26,0 447.78,200.52 447.78,447.78 0,247.26 -200.52,447.78 -447.78,447.78 -247.26,0 -447.78,-200.52 -447.78,-447.78 0,-247.26 200.52,-447.78 447.78,-447.78z"/>
    <g>
     <path class="fil0" d="M447.78 102.3c190.78,0 345.49,154.71 345.49,345.49 0,190.77 -154.71,345.49 -345.49,345.49 -190.77,0 -345.49,-154.71 -345.49,-345.49 0,-190.77 154.71,-345.49 345.49,-345.49z"/>
     <path id="_1" class="fil1" d="M828.2 447.78l-69.85 0 0 0 -0.4 -16.01 -1.2 -15.78 -1.98 -15.54 -2.73 -15.28 -3.47 -15.01 -4.18 -14.73 -4.88 -14.42 -5.55 -14.09 -6.22 -13.75 -6.86 -13.38 -7.48 -13.01 -8.08 -12.6 -8.67 -12.18 -9.23 -11.74 -9.77 -11.28 -10.29 -10.79 -10.79 -10.29 -11.27 -9.77 -11.74 -9.23 -12.18 -8.66 -12.6 -8.08 -13.01 -7.48 -13.39 -6.86 -13.74 -6.21 -14.09 -5.55 -14.42 -4.88 -14.72 -4.18 -15.01 -3.47 -15.28 -2.73 -15.55 -1.97 -15.78 -1.2 -16.01 -0.4 0 -69.85 19.54 0.49 19.31 1.47 19.03 2.42 18.74 3.35 18.42 4.25 18.06 5.13 17.68 5.98 17.29 6.82 16.86 7.62 16.41 8.4 15.93 9.16 15.43 9.89 14.91 10.61 14.37 11.29 13.8 11.95 13.2 12.59 12.59 13.2 11.95 13.8 11.29 14.36 10.61 14.91 9.9 15.44 9.16 15.93 8.41 16.41 7.62 16.86 6.82 17.28 5.98 17.69 5.13 18.06 4.25 18.42 3.35 18.74 2.42 19.03 1.47 19.31 0.49 19.54 0 0zm-380.42 380.41l0 -69.85 0 0 16.01 -0.4 15.78 -1.2 15.55 -1.97 15.28 -2.73 15.01 -3.47 14.72 -4.18 14.42 -4.88 14.09 -5.55 13.74 -6.21 13.39 -6.86 13.01 -7.48 12.6 -8.08 12.18 -8.66 11.74 -9.23 11.27 -9.77 10.79 -10.29 10.29 -10.79 9.77 -11.28 9.23 -11.74 8.67 -12.18 8.08 -12.6 7.48 -13.01 6.86 -13.38 6.22 -13.75 5.55 -14.09 4.88 -14.42 4.18 -14.73 3.47 -15.01 2.73 -15.28 1.98 -15.54 1.2 -15.78 0.4 -16.01 69.85 0 -0.49 19.54 -1.47 19.31 -2.42 19.03 -3.35 18.74 -4.25 18.42 -5.13 18.06 -5.98 17.69 -6.82 17.28 -7.62 16.86 -8.41 16.41 -9.16 15.93 -9.9 15.44 -10.61 14.91 -11.29 14.36 -11.95 13.8 -12.59 13.2 -13.2 12.59 -13.8 11.95 -14.37 11.29 -14.91 10.61 -15.43 9.89 -15.93 9.16 -16.41 8.4 -16.86 7.62 -17.29 6.82 -17.68 5.98 -18.06 5.13 -18.42 4.25 -18.74 3.35 -19.03 2.42 -19.31 1.47 -19.54 0.49 0 0zm-380.42 -380.41l69.85 0 0 0 0.4 16.01 1.2 15.78 1.98 15.54 2.73 15.28 3.47 15.01 4.18 14.73 4.88 14.42 5.55 14.09 6.22 13.75 6.85 13.38 7.48 13 8.08 12.6 8.66 12.18 9.23 11.74 9.77 11.28 10.29 10.79 10.8 10.29 11.27 9.77 11.74 9.23 12.18 8.66 12.6 8.08 13 7.48 13.39 6.86 13.75 6.22 14.09 5.55 14.42 4.88 14.72 4.18 15.01 3.47 15.28 2.73 15.54 1.97 15.78 1.2 16.01 0.4 0 69.85 -19.54 -0.49 -19.31 -1.47 -19.03 -2.42 -18.74 -3.35 -18.41 -4.25 -18.06 -5.13 -17.69 -5.98 -17.28 -6.82 -16.86 -7.62 -16.41 -8.41 -15.93 -9.16 -15.44 -9.89 -14.91 -10.61 -14.37 -11.29 -13.8 -11.95 -13.21 -12.59 -12.59 -13.21 -11.95 -13.8 -11.29 -14.37 -10.61 -14.91 -9.89 -15.43 -9.16 -15.93 -8.4 -16.41 -7.62 -16.86 -6.82 -17.29 -5.98 -17.69 -5.13 -18.06 -4.25 -18.42 -3.35 -18.74 -2.42 -19.03 -1.47 -19.31 -0.49 -19.54 0 0zm380.42 -380.41l0 69.85 0 0 -16.01 0.4 -15.78 1.2 -15.54 1.97 -15.28 2.73 -15.01 3.47 -14.72 4.18 -14.42 4.88 -14.09 5.55 -13.75 6.22 -13.39 6.86 -13 7.48 -12.6 8.08 -12.18 8.66 -11.74 9.23 -11.27 9.77 -10.8 10.29 -10.29 10.79 -9.77 11.28 -9.23 11.74 -8.66 12.18 -8.08 12.6 -7.48 13 -6.85 13.38 -6.22 13.75 -5.55 14.09 -4.88 14.42 -4.18 14.73 -3.47 15.01 -2.73 15.28 -1.98 15.54 -1.2 15.78 -0.4 16.01 -69.85 0 0.49 -19.54 1.47 -19.31 2.42 -19.03 3.35 -18.74 4.25 -18.42 5.13 -18.06 5.98 -17.69 6.82 -17.29 7.62 -16.86 8.4 -16.41 9.16 -15.93 9.89 -15.43 10.61 -14.91 11.29 -14.37 11.95 -13.8 12.59 -13.21 13.21 -12.59 13.8 -11.95 14.37 -11.29 14.91 -10.61 15.44 -9.89 15.93 -9.16 16.41 -8.41 16.86 -7.62 17.28 -6.82 17.69 -5.98 18.06 -5.13 18.41 -4.25 18.74 -3.35 19.03 -2.42 19.31 -1.47 19.54 -0.49 0 0z"/>
    </g>
    <polygon class="fil0" points="647.11,375.72 659.27,413.18 698.64,413.18 666.79,436.31 678.96,473.76 647.11,450.62 615.25,473.76 627.43,436.31 595.57,413.18 634.94,413.18 "/>
    <path class="fil0" d="M366.44 218.45c-98.63,32.93 -169.51,123.17 -169.51,229.32 0,105.31 69.73,194.96 167.13,228.54 14.01,4.81 12.01,4.55 12.01,-9.21l0 -39.74c0,-15.55 1.81,-14.6 -12.1,-21.55 -59.29,-29.66 -99.8,-89.41 -99.82,-158.04 -0.03,-69.77 45.02,-130.83 103.25,-159.6 9.51,-4.69 8.67,-3.8 8.67,-14.32l0 -46.76c0,-9.5 2.33,-12.63 -9.63,-8.66z"/>
    <path class="fil0" d="M520.7 283.68c28.4,11.55 53.27,29.73 72.3,52.58 9.34,11.21 8.43,13.12 22.95,5.59l27.63 -14.34c21.81,-11.33 19.35,-10.15 3.73,-29.48 -31.29,-38.71 -72.03,-69.19 -123.81,-82.68 -15.4,-3.97 -13.42,-3.95 -13.42,10.81l0 42.08c0,12.24 -0.83,10.79 10.63,15.43z"/>
    <path class="fil0" d="M446.89 690.47l0.69 0 1.39 0.02 2.9 -0.03 0.42 0 0.82 -0.01 0.42 0 0.42 0 0.02 0 0.39 0 4.53 -0.13 0.02 0 0.05 0 2.43 -0.1 0.42 -0.02 0.42 -0.03 0.38 0 0.42 -0.03 0.42 -0.01 0.03 0 0.59 -0.03 0.59 -0.03 0.42 -0.03 0.42 -0.03 0.38 -0.01 0.42 -0.03 0.42 -0.03 0.42 -0.03c92.16,-6.33 170.63,-60.44 208.89,-136.71 9.58,-19.15 9.57,-17.33 -9.24,-27.07l-23.08 -12c-20.6,-10.7 -16.99,-12.98 -26.19,6.73 -25.88,55.08 -79.83,94.58 -142.19,103.17l0 -0.03 0 -352.4 0 -65.14c-8.67,-0.87 -17.44,-1.35 -26.35,-1.35 -11.54,0 -22.82,0.79 -33.93,2.26l0 481c10.44,1.35 21.02,2.05 31.84,2.15z"/>
   </g>
   <path class="fil2" d="M447.79 895.57c-246.91,0 -447.79,-200.88 -447.79,-447.79 0,-246.91 200.88,-447.78 447.79,-447.78 246.91,0 447.79,200.88 447.79,447.78 0,246.91 -200.88,447.79 -447.79,447.79z"/>
   <path class="fil3" d="M751.57 424.17l-38.49 0.3c-1.81,0.02 -3.41,-1.15 -3.95,-2.87l-11.61 -36.7c-1.21,-3.83 -6.63,-3.83 -7.85,0l-11.61 36.7c-0.54,1.72 -2.15,2.89 -3.95,2.87l-38.49 -0.3c-4.02,-0.03 -5.69,5.12 -2.42,7.46l31.32 22.38c1.47,1.05 2.08,2.94 1.51,4.65l-12.18 36.52c-1.27,3.81 3.11,7 6.35,4.61l30.96 -22.87c1.45,-1.07 3.43,-1.07 4.89,0l30.97 22.87c3.23,2.39 7.62,-0.8 6.35,-4.61l-12.18 -36.52c-0.57,-1.71 0.04,-3.6 1.51,-4.65l31.32 -22.38c3.27,-2.34 1.59,-7.49 -2.42,-7.46z"/>
   <path class="fil3" d="M447.79 803.58c-196.5,0 -355.8,-159.3 -355.8,-355.8 0,-196.5 159.3,-355.8 355.8,-355.8 196.5,0 355.8,159.3 355.8,355.8 0,196.5 -159.3,355.8 -355.8,355.8zm287.85 -643.64c-76.89,-76.89 -179.12,-119.23 -287.85,-119.23 -108.74,0 -210.96,42.34 -287.85,119.23 -76.89,76.89 -119.23,179.11 -119.23,287.85 0,108.74 42.34,210.96 119.23,287.85 76.89,76.89 179.11,119.23 287.85,119.23 108.74,0 210.96,-42.34 287.85,-119.23 76.89,-76.89 119.23,-179.11 119.23,-287.85 0,-108.74 -42.34,-210.96 -119.23,-287.85z"/>
   <path class="fil3" d="M514.58 243.63c53.97,17.7 98.59,56.22 124.28,106.05 1.02,1.98 3.46,2.73 5.4,1.61l59.94 -34.6c1.81,-1.05 2.49,-3.35 1.51,-5.19 -38.61,-72.76 -107.11,-127.31 -189.02,-147.21 -2.44,-0.59 -4.78,1.28 -4.78,3.79l0 71.87c0,1.68 1.09,3.15 2.68,3.68z"/>
   <path class="fil3" d="M378.97 164.26c-127.76,31.02 -222.92,146.36 -222.92,283.53 0,137.16 95.16,252.51 222.92,283.52 2.4,0.58 4.72,-1.27 4.72,-3.74l0 -71.95c0,-1.66 -1.08,-3.12 -2.65,-3.64 -85.87,-28.14 -148.06,-109.04 -148.06,-204.19 0,-95.16 62.19,-176.06 148.06,-204.2 1.58,-0.52 2.65,-1.97 2.65,-3.64l0 -71.95c0,-2.47 -2.32,-4.33 -4.72,-3.74z"/>
   <path class="fil3" d="M704.12 579.14l-60.04 -34.67c-1.9,-1.09 -4.31,-0.36 -5.31,1.58 -29.39,56.89 -83.46,99.05 -147.96,112.21 -2.35,0.48 -4.55,-1.35 -4.55,-3.75l0 -418.09 0 -40.19 0 -34.24c0,-1.93 -1.43,-3.57 -3.35,-3.81 -11.52,-1.39 -23.23,-2.14 -35.11,-2.14 -11.88,0 -23.59,0.72 -35.11,2.11 -1.92,0.23 -3.35,1.87 -3.35,3.81l0 34.27 0 40.19 0 422.73 0 40.19 0 34.27c0,1.93 1.44,3.57 3.35,3.81 11.51,1.39 23.23,2.11 35.11,2.11 111.6,0 208.76,-62.99 257.81,-155.28 0.96,-1.82 0.3,-4.07 -1.48,-5.1z"/>
  </g>
 </g>
</svg>
