<?xml version="1.0" encoding="UTF-8"?>
<svg id="Layer_1" data-name="Layer 1" xmlns="http://www.w3.org/2000/svg" viewBox="0 0 1000 1000">
  <defs>
    <style>
      .cls-1 {
        fill: #fbfcfb;
      }

      .cls-1, .cls-2, .cls-3, .cls-4, .cls-5, .cls-6, .cls-7, .cls-8, .cls-9, .cls-10, .cls-11, .cls-12, .cls-13, .cls-14, .cls-15, .cls-16, .cls-17, .cls-18, .cls-19, .cls-20, .cls-21, .cls-22, .cls-23, .cls-24, .cls-25, .cls-26, .cls-27 {
        stroke-width: 0px;
      }

      .cls-2 {
        fill: #fcfcfc;
      }

      .cls-3 {
        fill: #376c4f;
      }

      .cls-4 {
        fill: #016038;
      }

      .cls-5 {
        fill: #597c67;
      }

      .cls-6 {
        fill: #046038;
      }

      .cls-7 {
        fill: #b4d6c6;
      }

      .cls-8 {
        fill: #fbfdfc;
      }

      .cls-9 {
        fill: #fbfbfb;
      }

      .cls-10 {
        fill: #c5dfd1;
      }

      .cls-11 {
        fill: #026038;
      }

      .cls-12 {
        fill: #f8fbf8;
      }

      .cls-13 {
        fill: #fdfdfd;
      }

      .cls-14 {
        fill: #227452;
      }

      .cls-15 {
        fill: #eaf2ee;
      }

      .cls-16 {
        fill: #036139;
      }

      .cls-17 {
        fill: #fcfdfc;
      }

      .cls-18 {
        fill: #eaf4ed;
      }

      .cls-19 {
        fill: #ecf4ef;
      }

      .cls-20 {
        fill: #367051;
      }

      .cls-21 {
        fill: #e9f2ec;
      }

      .cls-22 {
        fill: #fff;
      }

      .cls-23 {
        fill: #2f6045;
      }

      .cls-24 {
        fill: #2c6a49;
      }

      .cls-25 {
        fill: #fbfcfc;
      }

      .cls-26 {
        fill: #b1d1bf;
      }

      .cls-27 {
        fill: #fefefe;
      }
    </style>
  </defs>
  <path class="cls-16" d="M903.91,525.03c-2.46,15.51-4.6,31.08-7.46,46.52-21.69,117.14-83.92,207.97-179.51,276.92-58.57,42.24-123.29,72.38-190.88,96.81-4.31,1.56-8.06,2.63-13.02,4.23-.21-.6-8.87,5.15-30.58,0-19.62-8.07-39.33-15.94-58.85-24.26-70.29-29.93-137.09-65.71-192.75-119.28-65.65-63.2-111.29-137.83-127.42-228.87-4.59-25.92-7.07-52.08-7.14-78.36-.27-114.95-.38-229.9-.2-344.85.08-49.47,34.47-84.64,83.71-84.71,215.42-.29,430.83-.22,646.25,0,37.21.04,67.49,25.57,75.71,62.11.44,1.98-.47,4.52,2.2,5.63v67.9c-1.94,3.01-1.08,6.39-1.09,9.59-.05,95.82-.05,191.63,0,287.45,0,2.57-.55,5.24.23,7.75l.79,15.41Z"/>
  <path class="cls-14" d="M903.98,511.46c-3.55-2.78-2.14-6.71-2.14-10.16-.05-95.4-.03-190.8.05-286.21,0-3.49-1.19-7.38,2.09-10.26v306.63Z"/>
  <path class="cls-27" d="M502.12,76.97c105.19,0,210.4.91,315.58-.41,49.08-.62,79.12,34.29,78.75,79.2-.92,111.69-.19,223.4-.74,335.1-.65,134.83-53.35,245.28-156.95,331.01-64.16,53.09-138.14,88.32-215.89,116.19-15.54,5.57-31.94,5.61-47.2-.21-73.52-28.07-145.29-59.9-207.33-109.64-74.12-59.41-127.84-133-151.72-226.39-8.16-31.91-12.16-64.49-12.22-97.45-.21-116.81-.49-233.62-.27-350.43.09-47.29,30.72-76.81,79.12-76.91,106.29-.21,212.58-.07,318.86-.07Z"/>
  <path class="cls-4" d="M502.85,106.54c104.83,0,209.66-.01,314.48,0,32.82,0,49.26,16.18,49.25,48.79-.03,114.25,1.38,228.53-.65,342.75-2.32,130.61-58.16,234.88-162.34,313.02-57.11,42.84-120.78,73.18-187.55,97.46-9.98,3.63-20.07,4.34-29.85.66-78.6-29.57-153.57-65.7-217.52-121.66-73.06-63.93-117.53-143.53-130.82-240.16-2.49-18.08-3.43-36.31-3.45-54.56-.1-111.7-.21-223.4-.22-335.09,0-26.13,9.68-41.93,29.39-48.24,7.66-2.45,15.62-3.03,23.69-3.02,105.19.07,210.38.05,315.58.05Z"/>
  <path class="cls-13" d="M576,351.66c0-49.61-.09-99.22.03-148.83.09-35.32,21.94-56.96,57.37-57.11,13.46-.06,26.93.27,40.37-.15,6.32-.2,9.19,1.08,8.92,8.28-.55,14.2-.45,28.45-.02,42.67.2,6.55-2.42,7.97-8.33,7.83-14.54-.34-29.1.12-43.64-.22-5.75-.14-7.43,1.8-7.4,7.48.21,36.84.22,73.68-.02,110.53-.04,6.05,1.52,8.4,7.87,8.1,10.16-.48,20.39.35,30.54-.27,7.73-.47,11.5,1.16,10.54,9.96-1.33,12.18,5.08,28.21-2.56,35.69-7.05,6.9-22.9,2.34-34.75,1.63-9.99-.6-11.89,2.81-11.75,12.12.55,35.37.45,70.77.05,106.14-.09,7.64,1.97,9.99,9.64,9.64,13.79-.63,27.64.02,41.46-.29,5.7-.13,8.65.87,8.36,7.63-.52,12.01-.35,24.07-.05,36.1.14,5.53-1.52,7.85-7.38,7.72-16-.34-32.04.46-48-.4-30.36-1.63-51.03-23.7-51.16-54.33-.22-49.97-.06-99.95-.06-149.92Z"/>
  <path class="cls-13" d="M547.01,555.65h-92.11c0-1.26-.29-2.26.04-2.55,13.55-11.98,14.73-27.32,14.63-44.42-.6-109.06-.45-218.13-.1-327.2.04-12.27-1.38-22.96-11.13-31.33-1.84-1.58-2.95-4.01-5.14-7.09h94.02c.06.89.41,1.9.11,2.16-14.43,12.5-14.97,28.82-14.87,46.5.56,103.23.25,206.46.29,309.69,0,18.97-3.93,39.1,16.52,52.45-.76.6-1.52,1.2-2.28,1.79Z"/>
  <path class="cls-13" d="M762.17,354.98c0,45.63.49,91.26-.34,136.87-.21,11.71,3.45,14.05,13.93,13.3,12.68-.9,25.47.04,38.2-.34,5.68-.17,7.62,1.51,7.43,7.34-.41,12.4-.34,24.82-.04,37.22.13,5.21-1.6,7.01-6.82,6.9-16.37-.33-32.79.45-49.11-.5-29.19-1.69-50.49-23.38-50.61-52.8-.43-101.47-.5-202.95.03-304.42.16-30.65,23.59-52.45,54.11-52.82,14.56-.18,29.13.24,43.67-.17,6.3-.18,9.13.98,8.83,8.23-.6,14.21-.49,28.47-.05,42.69.2,6.48-2.2,8-8.19,7.84-13.82-.37-27.68.32-41.48-.27-7.58-.32-9.78,1.9-9.72,9.64.36,47.08.18,94.17.18,141.26Z"/>
  <path class="cls-2" d="M534.57,811.12c.56,15.65.37,14.92-14.39,18.86-8.55,2.29-10.05-1.43-10.95-7.99-.72-5.27-.33-10.54-8.88-10.56-7.99-.01-8.1,5.21-8.42,9.73-.63,8.97-4.33,11.55-12.51,8.11-.98-.41-2.13-.5-3.22-.55-10.01-.54-14.49-4.61-10.16-15.06,1.57-3.77,2.37-7.53-3.32-9.58-3.99-1.44-7.11-2.22-8.95,2.26-5.44,13.21-12.14,10.19-21.72,3.57-7.93-5.49-8.3-9.35-2.3-15.67,4.43-4.67,4.67-8.53-.79-13.42-5.09-4.56-7.99-1.25-11.1,1.33-6.46,5.37-10.81,5.97-15.71-2.58-7.27-12.7-8.02-12.47,3.92-21.55,3.14-2.39,4.22-4.27,2.38-8-1.68-3.4-2.62-6.9-7.71-4.99-2.34.88-5.16.55-7.45,1.51-5.88,2.47-7.87-.33-8.61-5.59-.4-2.88-.73-5.86-1.7-8.56-2.91-8.09-.41-12.15,8.27-12.74,5.12-.35,9.62-.94,9.8-8.59.18-7.87-4.84-8.18-9.62-8.74-7.42-.88-12.11-3.16-8.41-11.6,2.83-6.45-1.6-19.89,13.84-14.67,4.62,1.56,9.25,3.72,12.1-3.94,2.77-7.45-2.89-8.38-6.39-10.17-7.99-4.1-7.41-8.41-2.74-14.97,8.6-12.1,8.47-12.62,21.19-4.74,4.29,2.66,6.31,1.34,9.08-1.57,2.82-2.96,6.15-5.44,2.17-9.88-1.44-1.61-2.25-3.79-3.67-5.42-3.95-4.54-4.17-8.14,1.97-10.83,1.64-.72,3.17-1.84,4.51-3.05,7.61-6.83,14.02-8.09,18.56,3.27,1.59,3.97,4.07,6.29,9.29,4.11,5.1-2.12,4.72-5.29,4.27-9.56-.44-4.17-4.68-10.28-.81-12.12,6.66-3.18,14.67-4.29,22.18-4.61,4.63-.2,3.23,5.71,4.06,8.83,1.31,4.9.86,9.59,8.57,9.86,7.74.27,8.53-4.52,8.88-9.34,1.21-16.9,12.01-6.81,18.97-6.96,9.38-.2,9.08,5.69,7.31,12.44-1.13,4.33-3.73,8.53,3.11,11.68,6.86,3.16,8.7-1.43,10.52-5.34,3.95-8.48,8.79-9.26,15.52-3.25,1.88,1.68,4.02,3.25,6.3,4.28,6.34,2.86,6.07,6.17,2.37,11.53-2.4,3.47-8.73,6.27-4.03,12.72,4.84,6.64,9.26,6.12,15.16,1.4,2.6-2.08,6.26-7.61,9.93-2.99,4.65,5.87,10.15,11.87,11.33,19.46.28,1.83-5.77,4.8-9.08,6.98-3.49,2.3-6.31,4.04-3.98,9.4,2.15,4.95,4.98,5.07,9.4,4.51,4.27-.54,10.17-5.27,12.65.04,2.99,6.37,4.01,14.07,4.18,21.23.11,4.65-5.81,2.95-8.94,4.08-4.46,1.61-9.88.29-9.93,8.4-.05,7.5,4.13,7.75,9.2,9.2,3.41.98,9.79-.97,9.69,4.55-.14,7.49-.99,15.63-5.21,21.92-2.02,3.01-7.44-.02-11.24-.94-4.62-1.13-7.87-1.19-10.27,4.5-2.44,5.78,1.33,6.74,4.3,9.2,3.18,2.63,10.24,4.13,8.73,8.19-2.59,6.94-7.29,13.6-12.63,18.82-3.11,3.05-6.72-2.56-9.93-4.43-4.13-2.4-6.93-5.24-12.02-.38-5.43,5.18-3.48,9,.17,12.76,7.67,7.91,2.85,11.21-3.87,16.27-9.08,6.85-15.25,7.94-20.1-3.86-1.26-3.08-3.23-5.83-7.52-3.58-3.2,1.67-7.31,2.36-5.65,7.36Z"/>
  <path class="cls-12" d="M376.11,185.22h-18.92c16.96,13.04,31.77,27.4,41.99,46.2-3.53,3.07-7.05-1.52-11.06.95,12.37,17.48,20.19,37.07,26.36,57.73-4.61.64-6.29-4.1-10.73-4.02,2.72,14.94,8.46,29.16,7.16,46.11-4.85-6.27-9.7-12.55-14.55-18.82l-2.77,1.95c-1.45,20.81-7.2,40.48-15.34,61.82-2.79-13.21-5.15-24.41-8-37.92-7.69,11.93-15.36,21.7-27.25,28.14v-16.46c-17.72,20.09-38.1,34.27-64,43.79,6.93-13.97,14.49-25.45,18.02-40.46-16.85,13.93-33.26,25.61-52.88,34.92,2.94-10.13,5.6-19.07,8.13-28.04,2.14-7.6,1.47-12.13-8.38-8.58-6.43,2.32-13.28,3.47-21.38,5.5,7.05-10.95,13.66-20.64,19.5-30.77,1.23-2.14,9.23-6.88-1.04-9.22-2.7-.61.55-4.38,1.32-6.51,3.99-11.05,7.38-22.09,4.95-34.12-2.17-10.72-8.16-14.79-18.45-12.06q-18.39,4.88-20.17,24.58c-27.85-19.47-27.2-55.84,1.44-74.1,5.73-3.66,12.69-6.03,9.94-15.25-.85-2.83,1.58-4.66,3.47-6.35,44.28-39.65,95.99-50.68,148.18-15.15,1.67,1.14,3.93,2,4.46,6.15Z"/>
  <path class="cls-13" d="M332.14,810.2c-16.66-10.53-30.43-21.12-43.98-32.05-3.65-2.94-4.2-6.31-4.19-10.49.07-42.28.11-84.55-.06-126.83-.02-5.63,1.13-8.56,7.48-9.21,10.45-1.07,20.94-2.61,31.14-5.09,8.02-1.95,9.83.22,9.77,8.15-.33,43.73-.15,87.47-.15,131.2,0,14.14,0,28.28,0,44.33Z"/>
  <path class="cls-13" d="M669.89,810.29c0-60.92.06-119.59-.1-178.25-.01-5.44,1.55-7.07,6.92-6.05,11.41,2.18,22.85,4.33,34.36,5.73,5.76.7,7.05,3.19,7.03,8.46-.16,42.64-.11,85.28-.07,127.92,0,3.75-.38,6.85-3.7,9.6-13.67,11.3-27.87,21.8-44.44,32.58Z"/>
  <path class="cls-8" d="M319.28,478.01c6.66-8.48,12.17-14.45,21.62-10.95,9.76,3.61,12.12,11.61,12.05,21.06-.11,15.31.13,30.63-.07,45.93-.19,14.54-7,21.41-21.3,21.93-4.36.16-8.74.31-13.08.01-11.7-.79-18.88-7.82-18.99-19.71-.28-32.81-.27-65.62-.01-98.43.1-12.31,7.58-19.53,19.75-20.16,4.35-.23,8.73-.2,13.08-.02,16.15.68,28.57,22.08,19.91,35.71-3.96,6.24-12.11,1.85-18.31,2.52-5.96.64-4.42-4.3-4.66-7.65-.13-1.81-.13-3.65-.02-5.47.24-3.78-.51-6.24-5.21-6.13-4.98.11-4.78,3.25-4.77,6.65.03,10.83,0,21.67,0,34.7Z"/>
  <path class="cls-2" d="M270.46,495.13c-6.38,10.33-13.08,14.95-22.33,11.46-9.18-3.47-11.08-11.49-10.95-20.54.23-15.3-.04-30.6.1-45.9.14-15.72,6.85-22.22,22.81-22.44,3.63-.05,7.28-.21,10.9.03,11.62.76,19.07,7.94,19.16,19.52.24,33.15.23,66.31,0,99.46-.08,11.42-6.81,18.25-18.06,19.26-3.97.35-7.99.22-11.98.15-16.58-.26-22.88-6.53-22.8-23.4.08-17.17-2.39-13.74,14.08-14.84,9.09-.6,10.22,3.53,9.72,10.87-.23,3.39-2.15,8.72,4.68,8.71,6.99-.01,4.46-5.41,4.56-8.78.29-10.18.1-20.37.1-33.55Z"/>
  <path class="cls-8" d="M415.01,449.5c6.33,22.18-7.56,35.92-21.4,48.86-11,10.28-7.13,22.68-7.72,34.63-.07,1.52.65,2.83,2.46,2.87,2.54.06,2.78-1.82,2.82-3.67.07-3.65.55-7.38-.05-10.93-1.77-10.47,3.04-12.13,12.5-12.45,10.21-.34,12.4,3.19,11.54,12.34-1.04,11.18,4.44,25.8-1.98,32.79-6.5,7.08-21.24,1.98-32.36,2.19-18.93.36-17.06-.13-19.38-18.53-3-23.69,6.42-40.39,22.76-55.35,5.95-5.45,10.24-36.47,6.77-43.39-.4-.81-1.4-1.64-2.25-1.82-1.58-.34-2.88.52-2.96,2.24-.18,3.64-.23,7.29-.23,10.93-.02,14.28-5.82,18.4-19.87,14.69-4.2-1.11-3.67-3.85-3.69-6.63-.07-9.49.1-18.97-.06-28.46-.13-8.2,3.76-12.16,11.85-12.17,9.46,0,18.92.09,28.38-.05,9.1-.13,13.44,3.96,12.95,13.31-.33,6.19-.06,12.4-.06,18.6Z"/>
  <path class="cls-25" d="M227.67,489.61c0,19.32-.55,38.66.22,57.95.43,10.83-6.4,8.17-12.03,8.18-5.68.02-12.21,2.44-12.03-8.25.58-33.52,0-67.07.3-100.6.06-7.1-1.02-11.29-9.3-10.09-8.95,1.3-6.31-5.54-6.56-10.06-.26-4.66-1.19-10.14,6.57-9.14.36.05.73,0,1.09,0,34.91.05,31.81-2.88,31.75,30.45-.03,13.85,0,27.7,0,41.55Z"/>
  <path class="cls-1" d="M573.4,862.84c0-13.27.21-24.55-.1-35.8-.13-4.96,2.75-7.08,6.28-9.21,5.04-3.04,10.05-6.19,10.21-13.08.05-2.11,1.05-2.93,3.1-3.62,17.88-6.06,21.1-23.49,28.79-35.88,0,20.82-.12,43.32.09,65.81.05,5.23-.9,8.84-6.19,11.26-13.49,6.19-26.72,12.94-42.2,20.51Z"/>
  <path class="cls-1" d="M428.59,862.83c-15.82-7.78-30.03-14.88-44.35-21.73-4.86-2.33-3.9-6.44-3.91-10.31-.04-22.96-.02-45.91-.02-67.22,6.28,13.52,10.46,30.32,28.22,36.9,2.97,1.1,2.5,3.1,2.89,5.02.69,3.38,2.05,6.91,5.06,8.06,13.21,5.04,12.68,15.83,12.17,26.96-.32,6.8-.06,13.63-.06,22.32Z"/>
  <path class="cls-9" d="M476.7,861.59c0-2.55.19-5.11-.04-7.64-.75-8.34-.22-14.94,11.13-10.36,2.8,1.13,6.03.04,8.21-1.84,3.24-2.8,5.58-3.09,8.93.01,2.37,2.2,6.04,3.05,9.26,1.76,9.69-3.88,12.23.19,11.19,9.31-.45,3.95-.07,7.99-.08,11.99,0,19.63-1.17,20.87-21.01,22.48-22.06,1.79-27.59-3.36-27.59-25.73Z"/>
  <path class="cls-25" d="M235.79,726.25c-14.76-16.81-25.97-32.83-35.65-49.86-6.22-10.93-1.55-22.03,10.2-26.42q25.45-9.52,25.45,16.8c0,18.93,0,37.86,0,59.47Z"/>
  <path class="cls-17" d="M767.1,643.5c8.17,2.15,15.24,3.77,22.16,5.88,14.66,4.47,19.42,15.71,11.74,28.68-9.62,16.26-20.41,31.75-33.9,47.21v-81.78Z"/>
  <path class="cls-21" d="M414.77,618.26c-20.95,9.09-28.29,25.21-34.56,42.62,0-11.56-.04-22.98.03-34.4.02-3.1-.89-7.37,3.97-7.39,9.17-.04,18.28-2.97,30.57-.83Z"/>
  <path class="cls-15" d="M621.8,658.33c-7.53-12.18-10.48-29.58-28.28-35.7-1.58-.54-2.58-1.45-2.38-3.01.29-2.26,2.14-2.69,4.02-2.54,7.56.6,15.13,1.18,22.67,1.96,4.85.5,3.9,4.45,3.93,7.54.09,11.17.03,22.35.03,31.74Z"/>
  <path class="cls-11" d="M500.77,792.6c-45.13-.1-81.13-36.08-81.13-81.08,0-45.31,36.74-81.76,82.12-81.47,44.63.29,80.86,37.11,80.6,81.91-.27,45.02-36.4,80.74-81.58,80.64Z"/>
  <path class="cls-11" d="M237.75,207.28c-2.84-3.68-6.83,4.64-9.06-.68-1.28-3.04-.44-6.35,2.47-8.86,33.23-28.69,74.32-43.24,117.77-23.01,1.25.58,2.35,1.51,4.56,2.96-8.67,1.98-16.46,2.67-25.35,6.98,22.35,6.09,39.45,17.72,54.17,35.25-7.06,1.11-12.6-3.4-19.65-1.4,17.81,13.56,29.67,30.67,36.94,52.46-4.88-2.8-8.54-4.9-14.47-8.31,6.57,16.31,13.24,30.27,16.39,46.46-8.16-5.48-12.67-14.58-23.52-17.54,14.29,17.95,4.27,35.4,2.91,52.83-4.92-8.1-5.95-18.12-13.79-25.3-2.26,11.49-5.27,22.09-15.15,30.7-.95-7.55-.95-14.01-3.89-20.8-11.79,20.59-27.89,36.02-50.63,48.73,9.92-24.09,14.45-45.99,4.39-69.03,8.7,37.04-21.09,47.14-44.05,65.25,2.86-12.52,3.28-22.76,2.19-33.03,1.62-2.77-.32-6.66,2-8.31-.9.78-2.24,2.65-4.22,3.75-3.61,6.28-9.39,8.29-17.31,8.79,8.13-14.02,17.85-26.35,19.28-42.33-2.9-2.29-3.67,2.97-6.54,1.1,2.64-9.09,3.13-18.64,1.86-29.6,11.41,6.27,19.08,14.24,26.48,22.52,5.45,2.25,5.55,8.38,9.31,12.61-4-5.36-5.17-11.28-7.19-16.85-4.44-8.85-11.67-15.53-18.65-23.73,11.65,1.67,19.9,9.13,29.77,12.57,10.61,2.06,16.46,11.11,24.54,17.17,2.89-5.69.1-10.78-.64-15.95-.45-3.14-2.89-6.95.1-9.23,3.62-2.76,6.69,1.24,9.6,2.92,7.6,4.38,13.63,10.78,21.09,17.86-1.43-11.48-4.89-20.98-9.39-30.14-1.4-2.85-4.53-5.66-1.51-8.78,2.69-2.77,6.16-.88,9.23.11,2.42.78,4.57,2.26,7.03,2.93,2.53.69,5.15,4.25,7.67.8,2.36-3.24,1.94-6.83-.95-9.95-6.31-6.82-14.17-11.27-22.57-14.9-2.33-1.01-4.69-1.97-7.15-2.81,8.89,3.53,15.7,9.73,21.63,16.97,1.52,1.85,3.77,4.1,1.66,6.7-1.6,1.98-3.98.99-6.05.27-5.07-1.77-10.21-3.21-16.54-3.82,4.25,8.97,10.53,15.94,12.35,25.02.62,3.1,2.97,6.83-.54,8.97-2.86,1.74-5.05-1.64-7.37-3.27-6.75-4.72-12.93-10.44-22.14-13.28.68,6.75,3.98,12.17,4.33,18.15.13,2.13.79,4.55-1.69,5.78-2.24,1.11-4.49.21-5.92-1.47-3.78-4.42-9.72-6.5-12.58-11.86-14.13-8.82-27.09-19.88-44.2-23.5,2.33-.44,4.67-.88,7-1.33,11.91-1.21,22.42-9.15,34.94-7.97-6.53-.58-12.85-3.12-19.44-3.91-15.39-1.84-25.12-9.49-29.11-24.9-1.45-5.59-3.51-10.6-.13-13.84-2.2,1.6-3.14,8.95-10.25,3.09Z"/>
  <path class="cls-6" d="M222.41,252.91c-9.68,2.64-16.15,8.98-20.01,18.67-11.66-23.07-7.16-38.37,14.18-50.56,5.64-3.22,11.27-6.48,16.9-9.72,6.42-2.46,13.03-.64,14.68,5.21,3.2,11.38,9.35,19.81,18.63,26.47-4.29,6.91-12.02,2.58-17.55,5.43-8.83,2.16-17.76,3.74-26.82,4.5Z"/>
  <path class="cls-18" d="M298.94,279.63c7.3,1.92,11.27,8.65,18.29,12.83.48-10.09-4.82-18.1-7.03-28.01,13.14,4.08,22.99,11.74,34.18,20.84-1.1-8.21-3.89-14.14-6.84-19.86-2.95-5.72-6.62-11.07-10.45-17.37,10.49-.03,18.99,4.02,30.27,8.23-9.78-13.4-20.94-20.4-33.88-25.91,13.73-2.72,39.55,10.01,43.06,22.31.72,2.51.6,7.94-.18,11.66-.86,4.05-3.98,1.01-5.93-.04-6.67-3.6-13.32-7.23-22.8-9.7,8.35,14.82,13.68,29.05,16.13,47.14-11.19-11.24-21-20.56-34.03-27.79,1.56,10.85,5.15,20.67,2.83,32.45-8.74-10.06-18.03-17.8-27.82-24.95,1.4-.61,2.8-1.22,4.2-1.83Z"/>
  <path class="cls-22" d="M266.11,242.31c-9.4-2.96-15.51-8.81-17.19-18.94-1.43-8.59-7.14-12.1-15.43-12.08,1.42-1.34,2.84-2.68,4.26-4.02,8.04,2.79,8.6-7.55,16.95-8.68-12.32,10.86-2.24,19.93.16,29.3,2.41,9.39,11.7,9.84,19.34,11.48,9.79,2.11,19.79,3.39,27.98,10.35-14.7-7.09-26.09,10.43-40.44,5.07-2.28-.68-4.55-1.37-6.83-2.05,1.3-5.43,5.94-4.23,9.59-4.66,3.86-.45,7.8-.03,12.35-.99-4.09-1.47-8.15-1.6-10.74-4.79Z"/>
  <path class="cls-23" d="M266.11,242.31c5.28.89,10.56,1.78,17.36,2.93-8.61,9.88-20.2,2.73-28.56,7.5-4.01.23-8.02.47-12.04.7-2.55.59-5.25,1.46-5.33-2.75,8.49-4.35,17.77-2.62,26.43-3.33-4.88-.52-10.25,1.78-15.21-1.32,5.12-4.35,12.25.72,17.35-3.73Z"/>
  <path class="cls-22" d="M248.76,246.04c5.04.25,10.08.51,15.12.76-8.65,1.31-17.26,2.4-25.68,4.64-3.41,2.5-6.76,5.23-11.43,3.21-1.45-.58-2.91-1.17-4.36-1.75,8.08-5.02,17.39-5.25,26.35-6.87Z"/>
  <path class="cls-26" d="M283.62,292.61c5.27,6.51,7.83,14.02,9.12,25.06-4.63-8.58-7.93-14.7-11.23-20.81,2.03-.75,1.82-2.63,2.12-4.25Z"/>
  <path class="cls-5" d="M226.78,254.66c3.81-1.07,7.62-2.14,11.43-3.21,1.56.67,3.11,1.34,4.67,2-7,2.15-14,4.31-21.2,6.53-.15-4.11,3.16-4,5.11-5.32Z"/>
  <path class="cls-7" d="M257.74,336.37c1.41-4.08,3.93-7.39,7.84-11.24-.83,6.42-2.76,11.26-5.61,15.79-.74-1.52-1.48-3.04-2.23-4.56Z"/>
  <path class="cls-24" d="M323.05,509.78c0-6.19.03-12.38,0-18.57-.01-2.31.3-4.87,2.87-5.09,2.54-.22,3.45,2.09,3.46,4.47.01,13.47.04,26.94-.01,40.42,0,2.27-.66,4.74-3.41,4.56-2.77-.18-2.87-2.83-2.89-5.02-.05-6.92-.02-13.84-.01-20.75Z"/>
  <path class="cls-20" d="M266.71,462.86c0,6.53.05,13.07-.03,19.6-.02,2.08.33,4.79-2.61,5.09-2.95.3-3.37-2.33-3.39-4.42-.11-13.43-.11-26.85-.04-40.28,0-2.17.49-4.78,3.26-4.62,2.83.16,2.78,2.85,2.79,5.03.03,6.53.01,13.07.01,19.6Z"/>
  <path class="cls-13" d="M543.52,769.84c-12.53-7.14-24.04-13.3-35.1-20.18-5.25-3.27-9.27-3.52-14.63-.16-11.05,6.93-22.59,13.08-35.25,20.31,2.65-12.87,4.33-24.65,7.63-35.95,2.64-9.06.56-14.82-6.79-20.5-8.87-6.86-16.76-14.99-26.09-23.49,12.91-3.81,25.44-3.91,37.66-4.91,7.73-.63,11.48-3.59,14.21-10.53,4.51-11.46,9.99-22.54,15.82-35.47,5.97,13.26,11.6,24.86,16.39,36.8,2.53,6.32,6.26,8.65,12.94,9.05,12.29.73,24.52,2.51,39.18,4.12-10.37,9.51-18.92,18.2-28.39,25.72-6.44,5.11-7.53,10.32-5.58,17.87,3.08,11.9,5.21,24.05,8,37.32Z"/>
  <path class="cls-19" d="M290.9,221.7c-9.81,4.47-17.39,7.16-23.42-2.59-2.23-3.6-7.63-.08-11.08-2.43,15.58-15.64,50.59-25.83,71.6-18.85-17.27-.27-25.34,6.76-29.16,20.63-2.39,8.68-9.14,11.5-20.17,11.91,4.31-1.82,8.48-2.99,12.22-8.66Z"/>
  <path class="cls-10" d="M228.97,232.2c3.48-5.78,6.66-8.34,11.75-6.96.76.2,1.76,2.89,1.32,3.59-2.96,4.71-7.74.91-13.07,3.37Z"/>
  <path class="cls-3" d="M270.07,213.56q11.98,3.75,16.53-6.71c4.58,6.32,2.71,11.21-2.99,14.2-6.66,3.49-10.09-.52-13.54-7.49Z"/>
</svg>