<?xml version="1.0" encoding="utf-8"?>
<!-- Generator: Adobe Illustrator 12.0.0, SVG Export Plug-In  -->
<!DOCTYPE svg PUBLIC "-//W3C//DTD SVG 1.1//EN" "http://www.w3.org/Graphics/SVG/1.1/DTD/svg11.dtd" [
	<!ENTITY ns_flows "http://ns.adobe.com/Flows/1.0/">
	<!ENTITY ns_svg "http://www.w3.org/2000/svg">
	<!ENTITY ns_xlink "http://www.w3.org/1999/xlink">
]>
<svg  version="1.1" xmlns="&ns_svg;" xmlns:xlink="&ns_xlink;" xmlns:a="http://ns.adobe.com/AdobeSVGViewerExtensions/3.0/"
	 width="556" height="556" viewBox="-0.5 -0.5 556 556" enable-background="new -0.5 -0.5 556 556" xml:space="preserve">
<defs>
</defs>
<path d="M277.5,0C430.3115234,0,555,124.6884766,555,277.5S430.3115234,555,277.5,555C124.6879883,555,0,430.3115234,0,277.5
	S124.6879883,0,277.5,0z"/>
<path fill="#FFFFFF" d="M277.5,11.1367188c146.6796875,0,266.3632813,119.6835938,266.3632813,266.3632813
	S424.1796875,543.8632813,277.5,543.8632813S11.1367188,424.1796875,11.1367188,277.5S130.8203125,11.1367188,277.5,11.1367188z"/>
<path d="M277.5,85.4282227c105.7988281,0,192.0722656,86.2739258,192.0722656,192.0717773
	S383.2988281,469.5722656,277.5,469.5722656c-105.7983398,0-192.0722656-86.2744141-192.0722656-192.0722656
	S171.7016602,85.4282227,277.5,85.4282227z"/>
<path fill="#FFFFFF" d="M277.5,96.5649414c99.6660156,0,180.9355469,81.2695313,180.9355469,180.9350586
	c0,99.6669922-81.2695313,180.9355469-180.9355469,180.9355469S96.5644531,377.1669922,96.5644531,277.5
	C96.5644531,177.8344727,177.8339844,96.5649414,277.5,96.5649414z"/>
<polygon points="99.6660156,277.5 277.5,170.7856445 455.3339844,277.5 277.5,384.2138672 "/>
<polygon fill="#FFFFFF" points="121.3046875,277.5 277.5,183.8251953 433.6953125,277.5 277.5,371.1748047 "/>
<path d="M188.4067383,243.737793l-14.8725586,8.9516602c-3.0307617,1.8325195-5.4980469,5.7797852-5.4980469,10.9248047v35.3837891
	l11.137207,6.6962891v-15.2246094h11.1367188v21.9199219l11.1367188,6.6269531v-67.2436523
	C201.4467773,244.1606445,194.0454102,240.3544922,188.4067383,243.737793z M190.3100586,279.3330078h-11.1367188v-15.4365234
	c0-0.6342773,0-1.6210938,0.5634766-1.9033203l10.5732422-6.4140625V279.3330078z"/>
<path d="M377.7294922,271.6494141v-13.5327148c0-5.1450195-2.4658203-9.1630859-5.4980469-10.9956055l-14.8720703-8.8813477
	c-5.6386719-3.3833008-13.0390625,0.3520508-13.0390625,8.0351563v62.4506836
	c0,7.6113281,7.4003906,11.4179688,13.0390625,8.0351563l14.8720703-8.8808594
	c3.0322266-1.8330078,5.4980469-5.8515625,5.4980469-10.9960938V277.5h-16.7041016v11.0654297h5.5673828v8.1064453
	c0,0.6347656,0,1.6220703-0.5634766,1.9033203l-10.5722656,6.34375V250.081543l10.5722656,6.34375
	c0.5634766,0.2817383,0.5634766,1.2685547,0.5634766,1.902832v13.3212891H377.7294922z"/>
<path d="M223.8608398,222.5219727l-11.277832,6.7661133v96.4238281l11.277832,6.7666016
	c12.4052734,7.4716797,22.1323242-1.8330078,22.1323242-15.7880859v-78.3798828
	C245.9931641,224.3540039,236.2661133,215.050293,223.8608398,222.5219727z M234.8564453,316.2666016
	c0,5.6396484-1.3393555,9.0234375-5.7802734,6.34375l-5.3564453-3.171875v-83.8769531l5.3564453-3.171875
	c4.440918-2.6787109,5.7802734,0.7045898,5.7802734,6.3432617V316.2666016z"/>
<path d="M327.6142578,220.4072266l-14.8007813-8.8813477c-5.6396484-3.3828125-13.0400391,0.3525391-13.0400391,8.0351563
	v47.0844727c0,2.3256836,1.1279297,5.5683594,3.4541016,7.4711914l18.8193359,14.9428711v34.3261719
	c0,0.6347656-0.0712891,1.6210938-0.5644531,1.9042969l-10.5722656,6.4130859v-33.0576172h-11.1367188v36.8632813
	c0,7.6132813,7.4003906,11.4189453,13.0400391,8.0351563l14.8007813-8.9511719
	c3.1015625-1.8320313,5.5693359-5.7792969,5.5693359-10.9248047v-35.3134766c0-2.2548828-1.1982422-5.5683594-3.5244141-7.4003906
	l-18.7490234-15.0136719v-42.5727539l10.5722656,6.3432617c0.4931641,0.2822266,0.5644531,1.269043,0.5644531,1.9033203v24.7402344
	h11.1367188V231.402832C333.1835938,226.2573242,330.7158203,222.2397461,327.6142578,220.4072266z"/>
<polygon points="257.1298828,202.5742188 257.1298828,352.4257813 277.5,364.6904297 290.46875,356.9375 290.46875,343.8974609 
	277.5,351.7216797 268.2661133,346.1523438 268.2661133,281.1650391 283.0683594,281.1650391 283.0683594,270.0991211 
	268.2661133,270.0991211 268.2661133,208.8476563 277.5,203.2792969 290.46875,211.1030273 290.46875,198.0629883 
	277.5,190.3100586 "/>
<path d="M82.6420898,394.9990234l-0.9443359-6.4316406c-0.3779297-2.6142578,0.5-4.4311523,2.7788086-5.7314453
	c2.6333008-1.4350586,6.3217773-2.7094727,9.3286133,2.7001953c1.9125977,3.487793,0.659668,6.6376953-2.543457,8.4150391
	c-0.1425781,0.0688477-0.4257813,0.1342773-0.6391602,0.2709961l2.050293,3.7011719
	c0.2841797-0.1342773,0.5668945-0.2006836,0.8510742-0.3374023c5.7666016-3.2124023,6.5649414-8.5556641,3.3535156-14.3930664
	c-3.0063477-5.480957-8.824707-7.3447266-14.3066406-4.2680664c-3.3452148,1.8442383-5.5703125,4.1323242-5.4296875,8.1538086
	c0.1005859,2.3271484,0.7446289,5.7939453,1.0581055,8.0546875c0.5629883,4.0986328,1.6547852,6.1616211-3.4008789,9.034668
	c-3.9140625,2.1166992-7.3417969,0.5771484-9.3901367-3.1953125c-2.8706055-5.1962891-0.8500977-7.8393555,3.5620117-10.2304688
	l0.9980469-0.6166992l-2.0507813-3.7011719c-1.7802734,1.0258789-4.4848633,2.5292969-5.7114258,4.1293945
	c-3.3193359,4.3833008-2.0581055,8.8461914-0.2822266,12.1210938c3.625,6.4067383,9.512207,8.3427734,15.847168,4.8583984
	C82.1850586,405.0727539,83.7783203,402.6323242,82.6420898,394.9990234z"/>
<polygon points="100.9365234,425.2797852 103.9394531,422.8652344 95.3193359,411.8574219 105.324707,404.0664063 
	114.4960938,415.7885742 117.4980469,413.4433594 105.706543,398.362793 75.5458984,421.9458008 87.40625,437.0981445 
	90.4082031,434.7539063 81.1679688,422.9609375 92.3178711,414.2021484 "/>
<path d="M135.5644531,432.5102539l-22.0981445,22.1030273c-1.0053711,1.0405273-2.0102539,2.0795898-2.9448242,3.1201172
	l-0.0698242-0.0712891c0.8745117-1.6064453,1.4580078-2.7241211,1.9726563-3.9135742l14.4785156-29.8486328l-4.8496094-4.878418
	l-27.1201172,27.090332l3.0498047,3.0146484l21.5961914-21.6186523c1.3637695-1.3862305,2.7285156-2.8422852,4.0214844-4.2299805
	l0.0693359,0.0722656c-1.3017578,1.8808594-2.2451172,3.4145508-3.0498047,5.0922852l-14.0454102,29.222168l4.9194336,4.9506836
	l27.0493164-27.0913086L135.5644531,432.5102539z"/>
<path d="M150.9936523,445.1879883l-32.203125,23.4765625l3.6855469,2.8833008l9.074707-6.9619141l9.527832,7.4272461
	l-4.4135742,10.5688477l3.6855469,2.8833008l15.0942383-36.8164063L150.9936523,445.1879883z M134.6948242,462.1733398
	l16.5102539-12.9643555l0.0698242,0.0722656l-8.6518555,19.0942383L134.6948242,462.1733398z"/>
<path d="M176.2939453,461.7724609l-9.1459961-5.0947266l-18.6318359,33.5126953l9.9155273,5.4599609
	c9.0761719,5.0234375,15.4130859-2.6210938,20.2060547-10.644043c0.3637695-0.628418,0.6542969-1.1166992,1.0161133-1.6738281
	C183.8764648,475.6513672,186.0698242,467.1586914,176.2939453,461.7724609z M175.1625977,482.1953125
	c-0.2944336,0.7011719-0.6577148,1.3286133-1.0219727,1.9570313c-4.7314453,8.5888672-9.0009766,10.8398438-14.0986328,8.0727539
	l-5.934082-3.347168l14.8491211-26.8105469l5.9335938,3.3461914
	C180.8964844,468.690918,179.1762695,474.371582,175.1625977,482.1953125z"/>
<path d="M206.5214844,474.777832c-10.5-4.2719727-15.5932617,4.8037109-18.9072266,12.9228516
	c-3.9082031,9.8725586-6.480957,19.9072266,3.8793945,24.1064453c10.3603516,4.2001953,15.4521484-4.8051758,19.5014648-14.6757813
	l0.1484375-0.4189453C214.456543,488.6635742,216.7426758,478.8325195,206.5214844,474.777832z M207.0102539,495.2294922
	l-0.1474609,0.3510742c-4.1977539,10.2885742-7.387207,15.309082-13.9677734,12.6567383
	c-6.5092773-2.6518555-5.3500977-8.4824219-1.2231445-18.7744141l0.0771484-0.3500977
	c3.1665039-7.7700195,7.2104492-13.2685547,13.1616211-10.9086914
	C211.0703125,480.7084961,210.1762695,487.5297852,207.0102539,495.2294922z"/>
<path d="M233.8574219,483.7841797l-9.5488281-2.2109375l-8.6181641,37.3535156l4.1420898,0.9892578l3.7412109-16.4311523
	l7.2329102,1.6069336c4.8442383,1.1425781,5.628418,4.6811523,4.7880859,8.4023438
	c-0.6079102,2.527832-1.2539063,7.2397461-0.9477539,9.8530273l4.8461914,1.0712891l0.2260742-0.8422852
	c-0.9829102-0.2280273-0.9536133-1.9199219-0.9399414-2.6953125c0.2617188-2.8857422,0.6616211-5.6279297,1.1342773-8.4394531
	c0.5830078-5.1362305-0.3017578-6.9848633-4.9970703-8.5463867l0.0009766-0.0712891
	c4.5043945,0.4321289,7.8618164-2.1171875,9.065918-6.4677734l0.1508789-0.5610352
	C245.9682617,488.6489258,241.5092773,485.6108398,233.8574219,483.7841797z M239.7768555,496.0126953l-0.0742188,0.2114258
	c-1.449707,6.3183594-6.7905273,5.378418-8.7578125,4.9926758l-6.4589844-1.5234375l3.0537109-13.4106445l5.8276367,1.3706055
	C236.1762695,488.2670898,241.1577148,489.621582,239.7768555,496.0126953z"/>
<path d="M281.4570313,507.1743164l0.0742188,3.8085938l8.5327148-0.1333008l-0.0097656,0.5634766
	c0.1103516,5.7827148-0.6401367,12.3969727-7.7607422,12.4833984l-0.5634766-0.0097656
	c-6.9775391-0.121582-7.3891602-8.871582-7.4970703-14.7939453l-0.0454102-1.4106445
	c-0.0986328-6.487793-0.1450195-15.9355469,8.034668-16.0737305l0.2109375,0.003418
	c4.8647461,0.0146484,6.8530273,3.2216797,6.9824219,7.9472656l4.3017578-0.1367188l0.0039063-0.2119141
	c-0.0893555-6.9790039-4.3808594-11.5664063-11.5722656-11.480957
	c-11.0014648,0.2319336-12.387207,10.9921875-12.2612305,19.8779297
	c0.1953125,9.0273438,1.1962891,20.3227539,12.5488281,20.1694336c4.2314453-0.0678711,7.5849609-2.40625,8.6474609-6.7583008
	l0.140625,0.0024414l0.109375,5.9233398l3.2431641-0.0136719l-0.3569336-19.956543L281.4570313,507.1743164z"/>
<path d="M323.0507813,482.8740234l-4.1748047,0.8432617l5.3745117,27.3764648
	c0.5810547,2.9716797,0.7143555,7.4853516-5.722168,8.7119141c-6.4375,1.2978516-7.9848633-2.9589844-8.5668945-5.9306641
	l-5.3032227-27.3740234l-4.1733398,0.7729492l5.565918,28.5078125c1.2919922,6.71875,6.3964844,9.1342773,13.1865234,7.8427734
	c6.8618164-1.3603516,10.6699219-5.4536133,9.3769531-12.1723633L323.0507813,482.8740234z"/>
<polygon points="332.1123047,480.6352539 343.9541016,517.0771484 347.9951172,515.8085938 336.1538086,479.3657227 "/>
<path d="M375.559082,483.5092773c-3.3847656-8.0249023-8.6640625-16.5776367-18.8203125-12.2421875
	c-10.4399414,4.3994141-7.6538086,14.4584961-4.1987305,22.4848633c4.2001953,9.7319336,9.4716797,18.7050781,19.7700195,14.3041992
	c10.2978516-4.3330078,7.5117188-14.3203125,3.4536133-24.1210938L375.559082,483.5092773z M370.8208008,504.5742188
	c-6.5327148,2.7070313-9.8300781-2.2148438-14.234375-12.4433594l-0.1357422-0.284668
	c-3.2490234-7.7407227-4.3300781-14.5273438,1.6367188-17.0317383c6.1069336-2.5717773,10.2416992,2.8588867,13.4907227,10.5981445
	l0.1357422,0.284668C376.046875,495.9238281,377.2841797,501.7973633,370.8208008,504.5742188z"/>
<path d="M397.8037109,449.0014648l10.4208984,28.9443359c0.6733398,1.8442383,1.4892578,3.5507813,2.3745117,5.3295898
	l-0.0717773,0.0688477c-1.5874023-1.9321289-2.6230469-3.1479492-3.8730469-4.2978516L383.75,458.484375l-6.2758789,4.190918
	l21.4389648,31.8154297l3.4956055-2.4057617l-17.5908203-26.1088867c-0.894043-1.284668-1.9277344-2.6425781-2.8203125-3.9970703
	l0.0712891-0.0683594c1.5249023,1.5063477,2.4960938,2.3691406,3.5390625,3.2324219l24.4326172,21.8583984l4.1386719-2.8178711
	l-10.8188477-30.4316406c-0.5400391-1.4199219-1.0083008-2.8383789-1.8886719-4.8979492l0.0712891-0.0683594
	c0.3452148,0.4282227,0.6201172,0.855957,0.965332,1.2856445c0.6176758,0.9257813,1.1660156,1.8535156,1.7148438,2.7080078
	l17.659668,26.1801758l3.5678711-2.4047852l-21.4414063-31.7451172L397.8037109,449.0014648z"/>
<path d="M417.1806641,433.3374023l18.1333008,35.4936523l3.4384766-3.1826172l-5.465332-9.9648438l8.815918-8.3056641
	l9.7636719,6.0209961l3.4399414-3.1816406L421.2661133,429.53125L417.1806641,433.3374023z M431.375,452.125l-10.184082-18.293457
	l0.0727539-0.0703125l17.5634766,11.515625L431.375,452.125z"/>
<path d="M474.9199219,421.0219727c-2.5136719-1.3837891-4.8134766-2.9038086-7.1811523-4.5664063
	c-4.3935547-2.6855469-6.4394531-2.6499023-9.8149414,0.9555664l-0.0693359-0.0712891
	c2.2539063-3.9086914,1.409668-8.0117188-2.065918-10.8920898l-0.4858398-0.4316406
	c-6.5366211-5.1186523-11.237793-2.3115234-16.0688477,3.8081055l-6.0581055,7.7900391l30.1850586,23.5791016l2.5957031-3.3388672
	l-13.2836914-10.3828125l4.6123047-5.8422852c3.0307617-3.9643555,6.5410156-3.1274414,9.6020508-0.8188477
	c2.0175781,1.5859375,5.9902344,4.1928711,8.5131836,5.0126953l3.0292969-3.8950195l-0.6948242-0.574707
	C477.1567383,422.1879883,475.6196289,421.3857422,474.9199219,421.0219727z M453.793457,419.8066406l-4.1108398,5.2861328
	l-10.8491211-8.5087891l3.6777344-4.6572266c1.7314453-2.2963867,5.043457-6.2578125,10.262207-2.2890625l0.2084961,0.1450195
	C458.0576172,413.7490234,455.0185547,418.206543,453.793457,419.8066406z"/>
<path d="M479.8989258,382.1948242c-0.5595703-0.2919922-1.1176758-0.5830078-1.675293-0.9462891
	c-7.7539063-4.0825195-16.1787109-6.1328125-21.425293,3.715332l-4.9560547,9.2890625l33.8061523,18.0029297l5.3208008-9.9887695
	C495.8525391,393.1186523,488.0649414,386.8486328,479.8989258,382.1948242z M487.4726563,400.6557617l-3.2070313,6.0068359
	l-27.0307617-14.3598633l3.1352539-6.0078125c3.2783203-6.0058594,8.9594727-4.355957,16.7875977-0.5527344
	c0.6992188,0.293457,1.3989258,0.6582031,2.0268555,1.0219727
	C487.8457031,391.3574219,490.1694336,395.5566406,487.4726563,400.6557617z"/>
<path d="M77.0400391,222.5922852l-9.515625-6.2734375l3.9477539-11.418457l11.418457,0.7753906l1.4799805-4.5112305
	L44.6875,198.9091797l-1.8325195,5.2861328l32.6347656,22.8374023L77.0400391,222.5922852z M46.5908203,202.715332
	l0.0703125-0.0703125l20.8632813,1.902832l-3.3125,9.5859375L46.5908203,202.715332z"/>
<path d="M59.5600586,186.0810547c3.4536133,1.6206055,6.6254883,2.0439453,9.7973633-0.4233398
	c1.8325195-1.409668,4.2285156-4.0175781,5.8500977-5.5678711c2.9604492-2.8901367,4.0175781-5.0043945,9.3041992-2.5375977
	c4.0883789,1.902832,4.7929688,5.5683594,2.9599609,9.4448242c-2.4667969,5.3569336-5.8500977,5.2866211-10.3613281,3.171875
	l-1.0571289-0.4931641l-1.8320313,3.8061523c1.902832,0.8457031,4.6518555,2.1850586,6.6958008,2.2553711
	c5.4975586,0.0708008,8.3876953-3.5244141,9.9379883-6.9072266c3.1723633-6.6962891,1.1987305-12.6171875-5.3564453-15.6484375
	c-4.581543-2.1845703-7.4716797-2.0439453-12.9692383,3.3837891l-4.6518555,4.581543
	c-1.9033203,1.8325195-3.8774414,2.1850586-6.2734375,1.0571289c-2.6782227-1.2685547-5.9204102-3.5244141-3.3129883-9.0922852
	c1.6914063-3.5947266,5.0043945-4.440918,8.3173828-2.8901367c0.140625,0.0708008,0.3525391,0.2109375,0.5639648,0.3525391
	l1.8325195-3.8769531c-0.2817383-0.1411133-0.5639648-0.2817383-0.8461914-0.4228516
	c-5.9204102-2.7490234-10.7133789-0.3525391-13.6035156,5.7094727
	C51.9472656,177.6225586,53.8505859,183.4023438,59.5600586,186.0810547z"/>
<path d="M73.7978516,157.8164063c3.171875,2.0439453,6.2729492,2.9599609,9.7973633,0.9160156
	c1.9736328-1.1274414,4.7226563-3.3833008,6.5551758-4.7226563c3.3129883-2.4667969,4.6523438-4.3696289,9.5859375-1.1982422
	c3.7358398,2.4677734,3.9472656,6.1323242,1.6210938,9.7275391c-3.2421875,5.0043945-6.5546875,4.4404297-10.7133789,1.6914063
	l-0.9873047-0.6347656l-2.3256836,3.5952148c1.762207,1.0571289,4.2993164,2.7485352,6.2729492,3.1015625
	c5.4272461,0.9160156,8.7402344-2.3261719,10.8549805-5.4980469c4.0175781-6.1323242,2.8896484-12.2641602-3.171875-16.2119141
	c-4.2294922-2.7490234-7.1186523-3.0302734-13.3217773,1.5507813l-5.2158203,3.8764648
	c-2.1147461,1.5507813-4.1586914,1.621582-6.34375,0.2119141c-2.5375977-1.621582-5.4272461-4.2998047-2.0444336-9.4448242
	c2.1855469-3.3833008,5.5683594-3.7363281,8.5996094-1.7626953c0.2114258,0.1411133,0.3520508,0.2822266,0.5639648,0.4233398
	l2.3261719-3.5244141c-0.2822266-0.1411133-0.4936523-0.3525391-0.7753906-0.5639648
	c-5.4980469-3.5947266-10.5732422-1.8325195-14.2382813,3.8061523
	C67.4541016,148.3710938,68.5117188,154.362793,73.7978516,157.8164063z"/>
<path d="M97.7626953,136.8823242c7.9648438,7.0483398,16.4936523,12.8989258,23.9648438,4.581543
	c7.4716797-8.3173828,0.7753906-16.2119141-7.1186523-23.3310547l-0.2822266-0.2817383
	c-6.484375-5.8500977-14.9428711-11.3481445-22.2729492-3.171875
	C84.4414063,123.1376953,91.2075195,131.0322266,97.7626953,136.8823242z M94.8027344,117.3574219
	c4.4399414-4.9335938,10.5019531-1.7617188,16.7045898,3.8769531l0.2822266,0.2119141
	c8.1762695,7.4711914,11.7709961,12.2641602,7.1191406,17.4799805c-4.7231445,5.2163086-9.8681641,2.1142578-18.1152344-5.2158203
	l-0.2817383-0.2822266C94.2382813,127.8598633,90.5029297,122.1508789,94.8027344,117.3574219z"/>
<path d="M142.9438477,120.1064453c2.8193359-2.3959961,3.8764648-5.2158203,3.5942383-8.6694336
	c-0.28125-3.171875-1.6206055-5.074707-3.4536133-7.6123047c-0.4228516-0.7050781-0.9160156-1.269043-1.3393555-1.9736328
	l-3.2421875,2.7490234c0.4228516,0.7045898,0.9873047,1.409668,1.4804688,2.1850586
	c2.2558594,3.5244141,4.0878906,7.3300781,0.2114258,10.6435547c-5.0043945,4.2285156-11.1367188-1.621582-14.8017578-5.9916992
	c-0.6347656-0.7753906-1.269043-1.4804688-1.6914063-2.1147461c-3.2426758-3.8764648-9.9389648-11.9819336-4.2998047-16.7050781
	c4.0878906-3.3833008,7.753418-1.3388672,10.7133789,2.0439453l3.2426758-2.7480469l-0.2822266-0.3530273
	c-4.2290039-5.0751953-10.5024414-6.5551758-15.8588867-2.0439453c-8.3173828,6.9780273-2.3964844,16.0708008,3.1713867,22.6962891
	C126.3095703,119.2612305,133.921875,127.71875,142.9438477,120.1064453z"/>
<polygon points="159.6484375,105.7978516 137.6572266,74.4326172 134.2036133,76.8989258 156.1948242,108.2651367 "/>
<path d="M159.4375,61.1103516l-4.934082,2.7490234l9.0219727,38.7670898l4.1586914-2.2558594L164.7944336,89.375
	l10.5727539-5.8500977l7.9643555,8.1762695l4.0883789-2.2553711L159.4375,61.1103516z M163.8071289,85.4985352
	l-5.4272461-20.2294922l0.0703125-0.0703125l14.1679688,15.4365234L163.8071289,85.4985352z"/>
<path d="M199.8251953,85.2163086l-1.1274414,4.2294922l1.1274414,0.6342773
	c0.4931641-0.4228516,1.1274414-0.8461914,1.762207-1.1279297c0.2817383-0.1411133,0.6342773-0.2114258,1.0571289-0.2114258
	c1.1279297,0.0703125,1.762207,0.7050781,1.9736328,1.409668c0.1411133,0.2822266,0.2114258,0.5639648,0.0708008,0.7753906
	c-0.2822266,0.8461914-0.5639648,1.4804688-2.0444336,2.0439453c-1.1977539,0.4228516-2.1850586,0.4936523-3.3828125,0.4936523
	l-0.0708008,2.1850586c1.4804688,0.0703125,2.8193359-0.1411133,4.2998047-0.4931641l0.4228516-0.1411133
	c2.8193359-1.1279297,5.4975586-3.3129883,4.2290039-6.6962891c-1.0576172-2.6079102-3.8769531-2.4672852-5.6391602-1.8330078
	c-0.4223633,0.2119141-0.7753906,0.4233398-1.0566406,0.5644531h-0.1411133l0.7753906-2.6782227
	c3.0302734-1.3398438,4.7929688-3.5952148,5.6381836-6.6967773c0.7753906-3.1713867,0.0708008-5.3564453-0.7749023-8.3876953
	c-0.2114258-0.7749023-0.4936523-1.4799805-0.7045898-2.2548828l-3.9477539,1.4799805
	c0.2114258,0.8457031,0.4936523,1.6914063,0.7050781,2.5375977c1.0571289,4.0878906,1.4799805,8.3168945-3.2421875,10.1494141
	c-6.1323242,2.3969727-9.9384766-5.1450195-12.0527344-10.4316406c-0.3530273-0.9868164-0.7050781-1.8325195-0.9165039-2.5375977
	c-1.7626953-4.722168-5.4272461-14.590332,1.409668-17.1982422c5.0043945-1.9033203,7.753418,1.1982422,9.4448242,5.4272461
	l3.9472656-1.5507813l-0.140625-0.4931641c-2.3969727-6.1323242-7.7539063-9.5859375-14.309082-7.0488281
	c-10.1499023,3.8764648-7.4711914,14.449707-4.3696289,22.4848633
	C185.8691406,77.956543,190.027832,87.7539063,199.8251953,85.2163086z"/>
<path d="M215.543457,38.4848633l-2.0439453,39.8242188l4.5810547-1.0571289l0.2822266-11.4189453l11.7709961-2.6787109
	l5.4272461,10.0092773l4.581543-0.9868164l-19.1015625-34.8901367L215.543457,38.4848633z M218.5039063,61.8857422
	l0.3520508-21.0048828h0.0708008l9.3745117,18.7495117L218.5039063,61.8857422z"/>
<path d="M211.2436523,35.4541016c-0.140625-1.1279297,0.6342773-2.4672852,1.8330078-2.7490234
	c1.1982422-0.2817383,2.6782227,0,3.8061523,0.140625c1.1274414,0.1411133,2.7485352,0.3530273,3.7358398,0.0708008
	c3.1713867-0.7050781,4.2290039-3.6655273,3.8764648-6.5551758l-2.3964844,0.4936523
	c0.140625,1.1274414-0.6347656,2.5371094-1.762207,2.8193359c-1.1982422,0.2817383-2.6782227,0-3.8764648-0.1411133
	c-1.0576172-0.1411133-2.6787109-0.3525391-3.7358398-0.1411133c-3.171875,0.7753906-4.2294922,3.7358398-3.8764648,6.6254883
	L211.2436523,35.4541016z"/>
<path d="M265.2353516,48.0708008c-1.0576172-8.5991211-3.8061523-18.3261719-14.6611328-16.9868164
	c-11.3476563,1.409668-11.4179688,11.7709961-10.2905273,20.5112305c1.3393555,10.5024414,3.9467773,20.581543,15.0131836,19.171875
	c11.1367188-1.3393555,11.277832-11.7006836,10.0092773-22.2729492L265.2353516,48.0708008z M254.8740234,66.9609375
	c-6.9780273,0.9160156-8.8808594-4.7929688-10.2202148-15.7890625l-0.0703125-0.3520508
	c-0.9873047-8.3173828-0.1411133-15.1542969,6.2026367-15.9296875c6.6254883-0.7749023,9.0927734,5.5683594,10.1499023,13.8857422
	v0.3520508C262.2749023,60.1240234,261.8520508,66.1152344,254.8740234,66.9609375z"/>
<path d="M320.0732422,53.1459961c0.140625-0.7050781,0.2119141-1.269043,0.28125-1.9741211
	c1.1279297-8.6694336-0.0693359-17.3388672-11.0654297-18.6782227l-10.5019531-1.269043l-4.6523438,37.9921875l11.2060547,1.4091797
	C315.6328125,71.8950195,318.6630859,62.3789063,320.0732422,53.1459961z M302.5927734,35.5244141l6.6962891,0.8457031
	c6.765625,0.8461914,7.3300781,6.7666016,6.5546875,15.4365234c-0.0703125,0.7753906-0.1416016,1.5507813-0.2109375,2.2558594
	c-1.1992188,9.7265625-4.3007813,13.3916016-10.0800781,12.6870117l-6.6962891-0.8461914L302.5927734,35.5244141z"/>
<polygon points="343.2617188,75.4892578 328.8125,71.3305664 332.6894531,57.7270508 346.1523438,61.6035156 
	347.2099609,57.9389648 333.7470703,54.0625 337.2714844,41.8681641 351.5800781,45.9560547 352.6367188,42.2910156 
	334.2402344,37.0043945 323.6679688,73.8686523 342.2050781,79.1547852 "/>
<path d="M356.5839844,85.7802734c6.8369141,2.6787109,12.6171875,0.3525391,15.2246094-6.484375
	c1.8330078-4.7226563,1.4804688-7.5419922-4.2998047-12.6875l-4.8632813-4.2998047
	c-1.9736328-1.7617188-2.4658203-3.6650391-1.5507813-6.2021484c1.0576172-2.7490234,3.1015625-6.1328125,8.8818359-3.8769531
	c3.6650391,1.409668,4.7226563,4.6518555,3.4541016,8.0351563c-0.0712891,0.2114258-0.2119141,0.4233398-0.2822266,0.6347656
	l3.9472656,1.550293c0.0703125-0.2817383,0.28125-0.5639648,0.3515625-0.8461914
	c2.3964844-6.1318359-0.421875-10.7836914-6.625-13.1806641c-5.8505859-2.2548828-11.4892578,0.0712891-13.7441406,5.9208984
	c-1.3398438,3.5244141-1.5507813,6.7666016,1.1269531,9.7978516c1.5507813,1.6914063,4.2998047,3.8764648,5.9912109,5.4272461
	c3.03125,2.7490234,5.2158203,3.6655273,3.171875,9.0927734c-1.6210938,4.2290039-5.2158203,5.1450195-9.2333984,3.6645508
	c-5.5683594-2.1845703-5.6386719-5.4975586-3.8769531-10.1494141l0.4238281-1.1274414l-3.9482422-1.4804688
	c-0.7041016,1.902832-1.8330078,4.7226563-1.7617188,6.7666016
	C349.2539063,81.8330078,353.0595703,84.440918,356.5839844,85.7802734z"/>
<path d="M377.0957031,94.5205078l8.1757813-14.097168l2.1855469,1.269043
	c2.5371094,1.4799805,6.2724609,3.5947266,9.1621094,3.9472656c4.5117188,0.4931641,7.6835938-2.4672852,9.7978516-6.1328125
	c1.5498047-2.6782227,2.3251953-5.6381836,1.4101563-8.6694336c-0.9169922-2.9604492-3.9482422-5.1450195-6.4853516-6.6254883
	l-8.7392578-5.0043945l-19.171875,33.1279297L377.0957031,94.5205078z M394.3642578,64.6347656l4.4404297,2.5375977
	c4.1591797,2.3964844,6.6962891,5.1455078,3.7353516,10.2207031l-0.0693359,0.140625
	c-3.171875,5.5683594-6.6972656,4.5112305-11.7011719,1.6210938l-3.5947266-2.0439453L394.3642578,64.6347656z"/>
<path d="M405.5722656,114.8203125c8.8105469,6.9072266,16.2109375-0.3525391,22.8359375-8.6694336l0.28125-0.4233398
	c5.2871094-6.8369141,10.2207031-15.5771484,1.5507813-22.34375c-8.9511719-7.0483398-16.3515625,0.2822266-21.7089844,7.1894531
	C402.046875,99.0317383,396.7617188,107.9125977,405.5722656,114.8203125z M411.9150391,93.3925781l0.2109375-0.2817383
	c5.1455078-6.6259766,10.5732422-10.784668,15.6484375-6.8369141c5.2158203,4.0878906,2.4658203,10.3613281-2.6787109,16.9165039
	l-0.2109375,0.2817383c-6.9082031,8.7402344-11.4199219,12.6875-16.9179688,8.3173828
	C402.3994141,107.4897461,405.078125,102.1333008,411.9150391,93.3925781z"/>
<path d="M423.7558594,129.5517578l12.125-11.7006836l5.1445313,5.3569336c3.453125,3.5947266,2.1845703,6.9780273-0.5644531,9.65625
	c-1.8320313,1.7626953-5.0039063,5.3569336-6.1308594,7.6831055l3.453125,3.5952148l0.6347656-0.6347656
	c-0.7050781-0.7045898,0.28125-2.1142578,0.7041016-2.7490234c1.7617188-2.2553711,3.5947266-4.3701172,5.5693359-6.484375
	c3.2412109-3.9472656,3.5234375-5.9912109,0.421875-9.8681641l0.0703125-0.0708008
	c3.5244141,2.8198242,7.7539063,2.5380859,11.0664063-0.4931641l0.4931641-0.4228516
	c5.9912109-5.7797852,3.8769531-10.7841797-1.5498047-16.4228516l-6.8378906-7.0488281l-27.5585938,26.5732422
	L423.7558594,129.5517578z M448.5673828,105.6572266l4.1591797,4.2993164
	c1.9726563,2.0444336,5.4267578,5.8505859,0.7753906,10.5024414l-0.1425781,0.1411133
	c-4.6513672,4.5107422-8.6679688,0.8461914-10.078125-0.5634766l-4.6523438-4.793457L448.5673828,105.6572266z"/>
<polygon points="444.4785156,153.9394531 447.0166016,157.3930664 474.8574219,137.1640625 480.7089844,145.1289063 
	483.8105469,142.8730469 469.6425781,123.4194336 466.5410156,125.6748047 472.3916016,133.7104492 "/>
<polygon points="457.0253906,173.2524414 490.1533203,154.0805664 488.0390625,150.4150391 454.9101563,169.5874023 "/>
<polygon points="466.8935547,192.2128906 506.2949219,186.0102539 504.3203125,181.78125 468.5839844,188.5478516 
	468.5839844,188.4770508 496.7792969,165.5693359 494.8046875,161.3408203 464.7080078,187.4907227 "/>
<path d="M472.109375,205.4643555l11.3476563-0.9165039l3.9472656,11.418457l-9.5146484,6.4848633l1.5498047,4.4404297
	l32.7050781-22.6962891l-1.8330078-5.2861328l-39.7529297,2.1142578L472.109375,205.4643555z M508.2675781,202.4335938
	l0.0703125,0.0703125L490.6464844,213.78125l-3.2421875-9.515625L508.2675781,202.4335938z"/>
</svg>
