<svg version="1.2" xmlns="http://www.w3.org/2000/svg" viewBox="0 0 500 500" width="500" height="500">
	<title>CEGramadense (1)</title>
	<style>
		.s0 { fill: #36302a } 
		.s1 { fill: #ffffff } 
		.s2 { fill: #b91414;stroke: #36302a;stroke-miterlimit:100;stroke-width: 1.9 } 
		.s3 { fill: #ffffff;stroke: #36302a;stroke-miterlimit:100;stroke-width: 1.9 } 
		.s4 { fill: #00396f } 
	</style>
	<path id="Shape 1" fill-rule="evenodd" class="s0" d="m250 500c-138.3 0-250-111.8-250-250 0-138.3 111.8-250 250-250 138.3 0 250 111.8 250 250 0 138.3-111.8 250-250 250z"/>
	<path id="Shape 2" fill-rule="evenodd" class="s1" d="m250 488.4c-131.8 0-238.4-106.6-238.4-238.4 0-131.8 106.6-238.4 238.4-238.4 131.8 0 238.4 106.6 238.4 238.4 0 131.8-106.6 238.4-238.4 238.4z"/>
	<path id="Shape 3" fill-rule="evenodd" class="s0" d="m250 414c-90.7 0-164-73.3-164-164 0-90.7 73.3-164 164-164 90.7 0 164 73.3 164 164 0 90.7-73.3 164-164 164z"/>
	<path id="Shape 4" fill-rule="evenodd" class="s1" d="m250 402.3c-84.2 0-152.3-68.1-152.3-152.3 0-84.2 68.1-152.3 152.3-152.3 84.2 0 152.3 68.1 152.3 152.3 0 84.2-68.1 152.3-152.3 152.3z"/>
	<path id="Shape 5" class="s0" d="m134.9 354.4l7-207.9c0 0 6-7.9 13.9 0l-4.6 220.9z"/>
	<path id="Shape 6" class="s2" d="m153.5 290.7c0 0 28.4-74.9 2.3-111.6v-7l107-16.3c0 0 21.4 3.5 4.6 14 0 0-14.4 11.8-9.3 18.6 0 0 3.1 7.4 18.6 6.9l14-4.6c0 0 48.4-24.7 72.1-9.3l-4.7 158.1c0 0-17.4-19.3-86-9.3 0 0-26.8 4.2-23.3-25.5l8-115.3 0.3-4-8.3 119.3-95.3 6.9z"/>
	<path id="Shape 7" class="s3" d="m169.8 290.7l2.3-20.9h13.9c0 0 5.2-32.9 2.2-53.2 0-0.1-11.5 13.6-11.5 13.6l-2.3-23.2c0 0 16.3-12.8 14-21h11.6c0 0 3.3 61.7-2.3 83.8h13.9l-2.3 16.2z"/>
	<path id="Shape 8" class="s3" d="m216 264.9l9.6-6.8c0 0 4.2 22.6 9.3 2.4l4.1-22.4c0 0-2.6 12.8-12.7 7.3 0 0-12.2-4.8-12.3-33.8 0 0 0.7-23.5 16.2-27.9 0 0 13.5-4.4 18.6 32.6 0 0.2 5 72.8-18.6 72.1 0 0-10.9 0.2-14.2-23.5z"/>
	<path id="Shape 9" fill-rule="evenodd" class="s2" d="m231.4 232.6c-3.2 0-5.8-7.3-5.8-16.3 0-9 2.6-16.3 5.8-16.3 3.2 0 5.8 7.3 5.8 16.3 0 9-2.6 16.3-5.8 16.3z"/>
	<path id="Shape 10" class="s0" d="m274.7 162.9l0.4 33.1c0 0-39.1-1.6-0.4-33.1z"/>
	<path id="Shape 11" class="s3" d="m267.4 309.3v-20.9c0 0 27.9-30.8 25.6-48.9 0-0.4-5.3-35.2-14.2 5.8-0.2 1.1-11.4-5.8-11.4-5.8 0 0 2.1-32.5 18.6-32.5 0 0.2 14.9-0.7 18.7 32.5-0.1 0 2.8 27.7-22.6 48.9 0 0.2 24.9 0 24.9 0v20.9z"/>
	<path id="Shape 8 copy" class="s3" d="m313.3 290.7l10.4-7c0 0 4.2 22.6 9.6 2.3l4.8-23.2c0 0-2.3 11.6-14.4 11.6 0 0-13.2-9.5-12.1-37 0 0 1-23.4 16.8-27.9 0 0 13.9-4.6 19.3 32.6 0 0 1.8 71.6-19.3 71.9 0 0-11.9 0.2-15.1-23.3z"/>
	<path id="Shape 12" fill-rule="evenodd" class="s2" d="m330.2 255.8c-3.8 0-6.9-6.7-6.9-15.1 0-8.4 3.1-15.1 6.9-15.1 3.9 0 7 6.7 7 15.1 0 8.4-3.1 15.1-7 15.1z"/>
	<path id="Shape 13" class="s0" d="m151.2 311.9l-2.4-25.9h4.7l0.5 25.9z"/>
	<path id="CENTRO  ESPORTIVO" class="s4" d="m47.2 205.6l5.1 0.7-1.6 13.7-9.3-1.2q-4-0.4-4.9 0-1.2 0.3-1.4 1.9-0.2 1.6 0.9 2.1 1.2 0.7 5.4 1.2l24.4 3q4 0.4 5.1 0 1.4-0.3 1.4-1.9 0.3-1.6-0.9-2.1-0.9-0.7-5.4-1.1l-6.7-1 1.6-13.7 2.1 0.2q8.2 1 11.7 2.6 3.2 1.6 5.3 5.8 2.1 4.4 1.4 10.2-0.7 6.1-3.3 9.8-2.8 3.5-6.7 4.4-4 0.7-11.9-0.2l-15.3-1.9q-5.8-0.4-8.6-1.4-2.8-0.7-5.4-2.7-2.3-2.4-3.5-6.1-1.1-3.5-0.4-8.1 0.7-6.1 3.5-9.8 2.8-3.5 6.5-4.4 3.5-0.9 10.9 0zm36.8-1.4l-50.7-16.3 6.9-22.1 10.3 3.3-2.8 8.8 9.5 3.3 2.6-8.4 9.7 3.2-2.8 8.2 11.2 3.5 3.3-9.6 10 3.3zm-27.9-70.5l5.5-10.2 46.5 26-5.8 10.5-24.6-5.3 21.1 11.8-5.5 10-46.8-25.8 5.8-10.2 24.7 4.9zm13.7-21.9l19.5-23 8.2 7-5.4 6.2 32.6 27.7-9.1 10.5-32.3-27.7-5.4 6.3zm63.3 8.6l-32.8-42.1 7.7-6.1q7.7-6 10.9-7.4 3.3-1.6 6.8-0.5 3.7 1 7.9 6.3 3.7 5.1 3.9 7.7 0 2.5-3.2 5.8 3.9-1.9 6-1.4 2.1 0.5 3.3 1.4 1.1 0.9 5.1 6l8.8 11.2-10.2 7.9-10.9-13.9q-2.6-3.5-3.8-3.8-1.1-0.4-3.5 1.4l14.9 18.9zm-16.2-43.3l7.2 9.3q1.8-1.4 2.1-2.5 0.4-1.2-1.7-4l-1.8-2.3q-1.7-1.9-2.8-1.9-1.2-0.2-3 1.4zm60.9-21.1l3.9 8.3q3.5 7.2 4.7 10.5 1.2 3 0.5 6.5-0.5 3.3-3.1 6.1-2.3 2.7-6.5 4.8-3.7 1.9-7.4 2.1-3.7 0-6.8-1.6-3-1.6-4.9-4.4-1.8-2.8-5.3-10.3l-4-8.1q-3.4-7.2-4.6-10.5-0.9-3-0.5-6.5 0.7-3.2 3.1-6 2.5-2.8 6.5-4.9 3.9-1.9 7.4-1.9 3.7-0.2 7 1.4 3 1.4 4.6 4.5 1.9 2.7 5.4 10zm-5.4 20.7l-10.7-22.1q-1.6-3.5-2.3-4.2-0.9-0.7-2.1-0.3-0.9 0.5-1.1 1.7 0 0.9 1.6 4.6l10.7 22.3q2.1 4.2 3 5.2 0.7 0.7 1.9 0.2 1.4-0.7 1.1-1.9-0.2-1.4-2.1-5.5zm47.5 0l-6.1-52.8 23.1-2.8 1.1 10.7-9.1 0.9 1.2 10.2 8.6-1.1 0.9 10.2-8.6 0.9 1.4 11.7 10.3-1.2 1.1 10.7zm62.6-40l-0.2 2.1-12.8-1.2 0.2-3.9q0.2-2.6-0.2-3.5-0.3-0.7-1.4-0.9-1.4 0-2.1 0.9-0.7 0.9-1 3-0.2 2.8 0.5 4.2 0.7 1.4 3.7 3.5 8.9 6.3 11 10 2.1 3.5 1.4 11.4-0.5 5.6-1.9 8.3-1.6 2.6-5.6 4-3.9 1.6-9.1 1.2-5.5-0.5-9.3-2.8-3.7-2.6-4.6-5.8-0.9-3.3-0.5-9.3l0.3-3.5 12.8 0.9-0.5 6.5q-0.2 3 0.2 4 0.5 0.9 1.9 0.9 1.4 0.2 2.1-0.9 0.7-1 0.9-3.1 0.5-4.8-0.7-6.2-1.2-1.7-6-5.4-4.9-3.9-6.6-5.6-1.6-1.6-2.5-4.4-0.7-2.8-0.5-7 0.5-6.2 2.3-8.8 1.9-2.8 5.4-4 3.7-1.3 8.6-0.9 5.4 0.2 9.1 2.3 3.5 2.1 4.6 4.9 1 2.6 0.5 9.1zm4.2 40.5l15.1-51.2 13.5 4q5.3 1.6 8.1 3.2 2.6 1.9 3.5 4 1.2 1.8 0.9 4.4-0.2 2.3-1.6 7.2l-1.4 4.4q-1.4 4.9-3 7-1.6 1.8-4.7 2.3-3.2 0.2-7.4-0.9l-3.7-1.2-6.1 20.7zm25.8-38.4l-3.7 12.8q0.5 0.3 1 0.5 1.8 0.5 2.7-0.2 1-0.7 1.9-3.5l1.2-4.2q0.9-2.6 0.2-3.7-0.5-1-3.3-1.7zm51.2 37l-4.4 8.2q-4 6.9-5.8 9.7-2.1 2.6-5.1 4.2-3.1 1.4-6.8 0.9-3.7-0.2-7.7-2.5-3.7-1.9-6-4.9-2.3-2.8-2.8-6.3-0.5-3.5 0.9-6.5 1.2-3 5.1-10.2l4.5-8.2q3.9-6.9 5.8-9.7 2.1-2.6 5.1-4.2 3-1.4 6.7-0.9 3.8 0.2 7.7 2.5 3.7 2.1 6.1 4.9 2.3 2.8 2.8 6.3 0.4 3.5-0.7 6.5-1.4 3-5.4 10.2zm-20 7.5l11.9-21.4q1.8-3.3 2.1-4.5 0-1.1-1-1.6-1.1-0.7-2.1-0.2-0.7 0.5-2.8 4.2l-12 21.6q-2.4 4.2-2.6 5.3 0 1.2 1.2 1.7 1.1 0.7 2.1 0 0.9-1 3.2-5.1zm10.2 23.7l35.6-39.8 7.2 6.5q7.5 6.5 9.6 9.3 2.1 3.1 1.6 6.8-0.5 3.7-5.1 8.8-4 4.7-6.5 5.1-2.8 0.7-6.3-2.1 2.3 3.5 2.3 5.8-0.2 2.1-0.9 3.5-0.7 1.4-4.9 6.1l-9.3 10.7-9.8-8.6 11.9-13.3q2.8-3.2 3-4.4 0.2-1.2-2.1-3.3l-15.8 18.2zm39.8-24l-7.9 8.9q1.6 1.6 2.8 1.8 1.1 0 3.4-2.5l1.9-2.1q1.9-2.1 1.6-3.3-0.2-1.1-1.8-2.8zm29.7 16.8l18.2 24.4-8.6 6.3-4.9-6.8-34.4 25.4-8.2-11.2 34.2-25.3-4.6-6.5zm24.6 36.2l6.3 12.4-47.2 24.4-6.5-12.3zm18.8 44.4l4.4 13.9-53 9.3-6.3-20 48.4-23.7 4.4 14q-20.2 9-34.4 14.6 15.1-3.5 26.7-6zm-11.6 62.8l-9.1 0.7q-8.1 0.6-11.3 0.6-3.5 0-6.3-1.8-3-1.6-4.9-4.9-1.6-3.3-2.1-7.7-0.5-4.2 0.7-7.9 0.9-3.5 3.5-5.8 2.8-2.3 5.8-3 3.3-0.7 11.6-1.4l9.1-0.9q7.9-0.7 11.4-0.7 3.2 0 6.3 1.8 2.8 1.7 4.6 4.9 1.9 3.3 2.3 7.7 0.3 4.4-0.7 7.9-1.1 3.5-3.7 5.8-2.5 2.3-5.8 3-3.2 0.7-11.4 1.7zm-17.4-12.4l24.4-2.3q3.7-0.5 4.6-0.9 1.2-0.5 1-1.9 0-0.9-1-1.4-0.9-0.7-5.1-0.2l-24.6 2.3q-4.7 0.5-5.8 0.9-1 0.5-1 1.9 0.3 1.4 1.4 1.6 1.4 0.5 6.1 0z"/>
	<path id="GRAMADENSE " class="s4" d="m109.1 384l-1.7 1.3-8.6-10.2 3.5-3q3.3-2.8 4-3.7 0.7-1.2-0.3-2.1-0.9-1.2-1.8-0.7-1.2 0.2-4.2 2.8l-18.6 16q-2.8 2.1-3.3 3.3-0.7 0.9 0.3 2.1 0.9 0.9 2.3 0.7 1.2-0.5 4-2.8l4.6-4-1.6-2.1 5.8-5.1 10.2 12.1-21.1 17.9-5.4-6.5 1.9-3.3q-2.6 0.5-4.9-0.4-2.3-0.7-4-2.8-2.3-2.6-3-6.1-0.7-3.2 0.2-6 1-2.6 2.6-4.7 1.9-2 6-5.3l11.7-10q5.6-4.7 8.6-6.3 3-1.6 7.7-0.4 4.4 0.9 8.3 5.5 3.7 4.5 4.4 9.1 0.7 4.4-1.1 7.4-1.6 3.1-6.5 7.3zm-15.4 34.6l31.6-40.5 7.7 5.9q7.5 5.8 9.6 8.3 2.3 2.6 2.1 6.3-0.3 3.7-4.5 8.8-3.5 4.9-6 5.6-2.6 0.7-6.1-1.6 2.4 3 2.6 5.3 0 2.1-0.7 3.3-0.5 1.4-4.4 6.3l-8.4 10.7-9.8-7.7 10.7-13.5q2.4-3.2 2.6-4.4 0-1.2-2.1-2.8l-14.4 18.1zm37-25.3l-7.2 9.1q1.8 1.4 3 1.4 1.1 0.2 3.2-2.6l1.7-2.1q1.6-2.1 1.4-3.2-0.3-1.2-2.1-2.6zm26.5 9.3l17.4 8.6-16.3 49.5-12.1-6.2 3.5-8.6-4.4-2.1-4.6 7.9-12.6-6.1zm-7.9 33l4.2 1.9q3-8.1 7.7-20-8.4 12.1-11.9 18.1zm57.2-13l17 4-11.9 50-11.4-2.6 7.9-33.9-12.5 32.8-7.9-1.9 3-34.2-7.9 33-11.4-2.5 11.9-50.3 16.9 4q-0.4 4.6-0.9 11.2l-1.4 13zm25.6 5.1l19.5 0.2 7.2 51.4h-13.7l-0.7-9.3h-4.6l-1 9.3-13.9-0.2zm7.4 33.2h4.7q-1-8.8-1.9-21.6-2.1 14.7-2.8 21.6zm34.2 18l-10.2-50.5 9.7-1.9q9.6-1.8 13.1-1.8 3.7 0.2 5.8 1.8 2.1 1.7 3 4.2 0.9 2.3 2.3 9.3l3.7 17.7q1.4 7 1.2 9.3-0.2 2.3-1.4 3.9-1.4 1.7-3.7 2.8-2.1 1-7 1.9zm4.7-44.4l6.7 33q2.8-0.5 3.3-1.9 0.4-1.1-0.5-6.2l-4-19.6q-0.7-3.5-1.1-4.4-0.5-0.9-1.4-1.2-0.7-0.2-3 0.3zm41.4 34.2l-19.8-47.7 20.7-8.6 3.9 9.5-8.1 3.5 3.5 9.1 7.9-3.3 3.7 9.1-7.9 3.2 4.4 10.5 9.1-3.7 4 9.5zm23.4-68.3l9.3-6.3 28.4 43-10 6.5-18.6-15.8 12.8 19.5-9.3 6.3-28.1-43 9.3-6.3 18.8 15.4zm44.7-19.6l1.3 1.4-8.8 8.9-2.8-2.8q-1.8-1.9-2.5-2.1-1-0.3-1.7 0.7-0.9 0.7-0.7 1.8 0.3 1.2 1.7 2.6 1.8 1.8 3.2 2.3 1.4 0.5 4.9-0.5 10-2.5 14.2-1.6 3.9 0.7 9.3 6.1 3.9 3.9 4.9 6.7 0.7 2.8-0.5 6.5-1.4 4-4.9 7.5-3.9 3.7-8.1 4.8-4 1.2-7-0.2-3.2-1.4-7.2-5.3l-2.3-2.6 8.8-8.6 4.4 4.4q1.9 2.1 2.8 2.3 1.2 0.3 2.1-0.6 0.9-1.2 0.7-2.4-0.5-1.1-1.8-2.5-3.3-3.3-5.2-3.5-1.8 0-7.6 1.1-5.9 1.2-8.2 1.2-2.1 0.2-4.6-0.9-2.8-1.2-5.6-4.2-4.2-4.2-4.9-7.2-0.9-3 0.5-6.3 1.1-3.5 4.6-7 3.7-3.7 7.5-4.9 3.7-1.4 6.5-0.4 2.5 0.9 7 5.3zm38.1 14l-41.6-30.5 13.2-18.1 8.4 6.3-5.4 7.2 8 5.5 4.8-6.5 7.9 5.6-4.8 6.8 9 6.7 5.8-7.9 8.4 6z"/>
	<path id="GRAMADO" class="s0" d="m203.7 374c1.9-4-0.4-8.4-6.3-11.7-7.6-3.9-13-1.4-16 4.4-3 5.9-2.1 11.7 5.6 15.6 6.7 3.5 11.8 2.8 13.9-1.6l1.7-2.8-12.8-6.5-1 1.6 9.6 5.1c-2.6 5.2-5.8 4.9-10.3 2.6-5.3-2.8-6.2-6.7-3.4-12.1 3-5.6 6.7-7.2 12-4.4 4 2.1 4.9 5.3 4 8.1zm-0.9 15.6l3.2 0.9 6.1-19 5.3 1.8c4.7 1.2 6.3 3.3 5.4 6.3-1 2.8-3.5 3.5-7.5 2.3l-3.5-0.9 6.8 13.3 3.9 1.4-6-11.2c5.6 1.6 8.8-0.5 9.8-3.7 1.1-3.5-1-7.2-7.7-9.3l-9.3-2.8zm26.7 0.2l10.5 1.4 1.8 7 3.3 0.4-5.8-22.7-4.7-0.7-11.6 20.4 3 0.5zm1.2-1.9l5.8-10.7v0.3l2.8 11.6zm21.9 10.7l-1.4-17.9 9.5 17.2h2.8l6.3-18.6 1.4 17.9 3.5-0.2-1.7-21.9-5.1 0.5-5.8 18.3h-0.2l-9.3-17.2-5.2 0.3 1.7 21.8zm28.1-10.2l10.2-2.8 4.5 5.6 3.2-1-14.4-18.6-4.6 1.2-2.6 23.5 3-0.7zm0.5-2.3l1.1-11.9h0.3l7.2 9.5zm20.5 2.8l9-4.1c7.7-3.5 9.3-9.6 6.8-15.4-2.8-5.6-8.6-8.1-16.1-4.4l-9.1 4.2zm-5.3-19.3l5.8-2.8c4.9-2.3 9.3-1.2 11.9 4.2 2.5 5.5 0.7 9.5-4.2 11.8l-5.8 2.8zm25.6-17c-7 4.9-7.5 11-3.8 16.3 3.8 5.4 9.6 7.2 16.5 2.3 7-4.6 7.3-10.7 3.5-16-3.5-5.4-9.3-7.2-16.2-2.6zm1.1 1.7c4.7-3.3 8.6-2.1 12.1 3 3.5 4.9 3 9.1-1.6 12.3-4.7 3.3-8.9 2.3-12.3-2.8-3.5-5.1-2.8-9.3 1.8-12.5z"/>
</svg>