<?xml version="1.0" encoding="UTF-8"?>
<svg id="Camada_1" xmlns="http://www.w3.org/2000/svg" version="1.1" viewBox="0 0 554 554">
  <!-- Generator: Adobe Illustrator 29.8.2, SVG Export Plug-In . SVG Version: 2.1.1 Build 3)  -->
  <defs>
    <style>
      .st0 {
        fill: #f1eaf9;
      }

      .st1 {
        fill: #fff;
      }

      .st2 {
        fill: #26134e;
      }

      .st3 {
        fill: #dacaef;
      }

      .st4 {
        fill: #6a88d2;
      }

      .st5 {
        fill: #05001f;
      }

      .st6 {
        fill: #330f71;
      }

      .st7 {
        fill: #0f012b;
      }

      .st8 {
        fill: #7d62a2;
      }

      .st9 {
        fill: #335374;
      }

      .st10 {
        fill: #06030a;
      }

      .st11 {
        fill: #09a5dd;
      }
    </style>
  </defs>
  <path class="st6" d="M431.83,6.41l32.35-.02c6.75-.01,15.13-.35,21.63.61,3.9.57,13.42,5.62,16.29,8.38,3.65,3.75,10.36,12.57,11.33,17.76,1.41,7.51.66,19.39.7,27.14v73.39s-.02,133.64-.02,133.64c0,21.37.34,43.05-.07,64.38-.63,32.93-11.2,68.01-27.49,96.47-31.69,55.02-84.13,95.02-145.57,111.04-63.09,16.87-130.28,8.34-187.15-23.76-17.81-10.27-32.74-20.96-47.61-35.39-28.74-27.53-49.63-62.23-60.49-100.52-1.57-5.6-3.67-12.57-4.49-18.16-.92-6.29-1.41-14.22-1.43-20.62-.07-23.85-.03-47.72-.03-71.57l.03-143.46.02-65.8-.09-17.52c-.02-3.2-.14-8.44.31-11.44,1.09-5.14,5.48-12.28,9.14-15.91,9.27-9.19,22.99-8.31,34.84-8.39,8.98-.07,17.97-.09,26.95-.05l71.28.02,249.58-.22Z"/>
  <path class="st1" d="M243.3,147.31c3.75-.49,11.45-.32,15.52-.33l32.06.05c31.62-.19,63.17-.96,94.78-.6,3.39.04,17.16.53,19.75,1.57,6.14-1.08,16.06-1.08,22.4-1.11l29.61-.02c8.99-.06,17.99.07,26.98.39,2.18.08,8.46.18,10.31.54.5.81.43.8.47,1.76-.33,40.26-.4,80.51-.22,120.77-.05,21.06,1.25,49.25-.67,69.75-4.94,48.14-26.56,93.03-61.12,126.9-4.91,4.78-20.43,19.04-26.58,21.61-17.51,13.38-39.85,23.93-60.69,31.06-8.86,3.03-17.97,4.73-26.75,7.31-2.95,1.11-9.23,1.94-12.45,2.61-21.51,4.43-43.93,4.59-65.45.2-2.3-.47-8.46-1.41-10.37-2.16-5.45-1.64-12.17-2.57-18.04-4.23-25.15-7.12-50.05-18.04-71.49-33.13-8.04-4.16-20.77-15.09-27.25-21.56-26.66-26.55-45.35-60.03-53.95-96.65-2.89-12.15-5.13-27.62-6.46-40.14-1.06-10.01-.46-22.86-.4-33.05l.07-40.29.15-110.6c21.66-.47,43.29-1.13,64.97-.77,4.97.08,20.45-.55,24.2.73,6.5.67,16.09.48,22.75.53,13.37.22,26.74.2,40.11-.06,5.81-.07,20.61.25,25.64-.45,3-.46,8.91-.52,12.11-.61Z"/>
  <path class="st11" d="M53.53,147.93c21.66-.47,43.29-1.13,64.97-.77,4.97.08,20.45-.55,24.2.73,6.5.67,16.09.48,22.75.53,13.37.22,26.74.2,40.11-.06,5.81-.07,20.61.25,25.64-.45-.46,10.59.03,21.14-.38,31.71-.04,1.04-.25,1.37-.88,2.12,1.3,4.06,2.26,6.26,4.26,10.02,9.02.37,21.6-1.03,29.94,1.14-5.81,6.21-16.46,11.23-23.99,17.45,2.03,9.51,6.11,17.97,8.59,28.41-3.37-1.69-6.67-3.52-9.89-5.47-1.76-1.05-6.05-3.74-7.79-4.38-.22,6.63-.25,13.26-.11,19.89.06,3.12.39,10.62.02,13.26l-.14.34c-1.26,5.01-1.8,6.75-4.75,11.07l-13.77,19.03c-2.31,2.53-4.82,5.41-7.69,7.29l-2.31,1.66c-5,12.16-3.07,27.58-1.81,40.24-5-.35-10.05-.36-15.07-.43-2.22-6.92-6.82-16.79-8-23.18-4.5,8.29-6.2,15.4-10.04,23.02-5.76.53-18.81,1.33-24.29.53.12.46.44,1.41.41,1.82-1.21,2.75-.78,27.73-.77,32.38l-.04,74.97-.06,22.67c0,3.59.45,14.23-1.28,16.74-8.04-4.16-20.77-15.09-27.25-21.56-26.66-26.55-45.35-60.03-53.95-96.65-2.89-12.15-5.13-27.62-6.46-40.14-1.06-10.01-.46-22.86-.4-33.05l.07-40.29.15-110.6Z"/>
  <path class="st1" d="M142.7,147.9c6.5.67,16.09.48,22.75.53,13.37.22,26.74.2,40.11-.06,5.81-.07,20.61.25,25.64-.45-.46,10.59.03,21.14-.38,31.71-.04,1.04-.25,1.37-.88,2.12,1.3,4.06,2.26,6.26,4.26,10.02,9.02.37,21.6-1.03,29.94,1.14-5.81,6.21-16.46,11.23-23.99,17.45,2.03,9.51,6.11,17.97,8.59,28.41-3.37-1.69-6.67-3.52-9.89-5.47-1.76-1.05-6.05-3.74-7.79-4.38-.22,6.63-.25,13.26-.11,19.89.06,3.12.39,10.62.02,13.26l-.14.34c-1.26,5.01-1.8,6.75-4.75,11.07l-13.77,19.03c-2.31,2.53-4.82,5.41-7.69,7.29l-2.31,1.66c-5,12.16-3.07,27.58-1.81,40.24-5-.35-10.05-.36-15.07-.43-2.22-6.92-6.82-16.79-8-23.18-4.5,8.29-6.2,15.4-10.04,23.02-5.76.53-18.81,1.33-24.29.53-.54-4.98-.27-12.14-.23-17.28.05-7.38-.03-14.76-.24-22.14-.56.41-4.5,2.48-5.46,3.03l-13.97,8.12c1.84-7.32,3.92-14.06,6.11-21.29-4.78-4.05-14.68-9.87-17.78-14.07,7.09-.34,15.03-1.69,22.22-2.4,2.78-3.93,9.55-22.22,10.12-22.63-1.55-7.41-.78-25.05-.86-33.3-.24-23.84.55-47.93-.3-71.78Z"/>
  <path class="st6" d="M223.27,161.35c1.05,5.62,4.65,14.99,6.65,20.4,1.3,4.06,2.26,6.26,4.26,10.02,9.02.37,21.6-1.03,29.94,1.14-5.81,6.21-16.46,11.23-23.99,17.45,2.03,9.51,6.11,17.97,8.59,28.41-3.37-1.69-6.67-3.52-9.89-5.47-1.76-1.05-6.05-3.74-7.79-4.38-2.59-1.96-5.42-3.69-8.2-5.37-5.7,2.17-22.05,12.9-27.36,16.86,1.07-6.76,6.05-22.36,8.46-28.92-8.89-7.41-17.59-12.1-26.93-18.85,9.7-1.34,20.28-.25,30.03-1.65,2.32-.14,4.03-2.39,4.87-4.51,3.5-8.82,5.83-17.15,11.35-25.14Z"/>
  <path class="st6" d="M133.74,275.61c2.78-3.93,9.55-22.22,10.12-22.63,2.67,7.71,5.03,15.49,8.81,22.71,8.04.67,18.9.31,26.16,1.33-7.3,4.97-14.13,9.58-21.07,15.05,3.4,7.18,5.06,15.94,7.94,23.32-3.08-2.14-20.39-13.56-22.72-13.43l-.36.26c-.56.41-4.5,2.48-5.46,3.03l-13.97,8.12c1.84-7.32,3.92-14.06,6.11-21.29-4.78-4.05-14.68-9.87-17.78-14.07,7.09-.34,15.03-1.69,22.22-2.4Z"/>
  <path class="st0" d="M227.92,263.67c.84-.88,1.7-.94,2.9-1.25-1.26,5.01-1.8,6.75-4.75,11.07l-13.77,19.03c-2.31,2.53-4.82,5.41-7.69,7.29-.03-7.3,12.55-24.79,18.1-30.25.45-.44,3.46-2.15,4.26-2.61.61-1.38,1.28-2.11.95-3.28Z"/>
  <path class="st8" d="M227.92,263.67c.32,1.16-.35,1.9-.95,3.28-.79.46-3.81,2.17-4.26,2.61-5.56,5.47-18.13,22.95-18.1,30.25l-2.31,1.66c2.22-11.18,10.83-23.98,18.73-32.09,1.98-2.03,4.63-3.93,6.89-5.71Z"/>
  <path class="st11" d="M212.3,292.52c-.12,2.01-.31,2.05.7,3.56.85,2.25,9.32,19.71,11.36,22.68.19.27,2.14.21,2.8.21-1.71.36-2.98.34-3.43,2.4l.49.84c.66.15,1.03.22,1.7.29,5.83-.21,11.79-.76,17.62-1.22h.32s2.01-.51,2.01-.51c.94-.9.64-.73.89-2.36,1.35-.13,1.62-.18,2.22-1.28,2.86-3.45,17.1-18.17,16.93-21.59,1.07-.39,1.35-.21,2.46-.83l.28-1.06,1.12,2.65c6.74.83,27.58,4.8,32.57,3.83.83,1.21,1.56,1.38,3.03,1.58l-2.55,2.12c-.33,8.14-.12,21.79.39,29.96l2.33,2.42c-.73.67-2.01,1.72-2.46,2.51,1.58,1.02,3.13,2.07,4.67,3.16,1.08.85,2.19,1.75,3.28,2.57l4.17,3.35,3.98,3.37c.16.3.31.61.47.92-.94,4.89-3.28,12.44-4.61,17-1.25,4.26-2.55,5.35-5.6,7.14,1.12.97,1.25.76,1.56,1.93l-.24.58c2.86-.07,5.46-1.2,8.86-.66.15,1.52-.15.91.75,1.96-.57.76-1.15,1.46-1.63,2.27.5,14.96-1.08,141.42.42,144.66-2.95,1.11-9.23,1.94-12.45,2.61-21.51,4.43-43.93,4.59-65.45.2-2.3-.47-8.46-1.41-10.37-2.16-5.45-1.64-12.17-2.57-18.04-4.23-25.15-7.12-50.05-18.04-71.49-33.13,1.73-2.5,1.27-13.14,1.28-16.74l.06-22.67.04-74.97c-.02-4.65-.44-29.64.77-32.38.03-.41-.29-1.36-.41-1.82,5.47.8,18.52,0,24.29-.53,3.84-7.62,5.54-14.73,10.04-23.02,1.18,6.39,5.77,16.26,8,23.18,5.01.07,10.07.09,15.07.43-1.25-12.66-3.18-28.08,1.81-40.24l2.31-1.66c2.87-1.88,5.38-4.76,7.69-7.29Z"/>
  <path class="st1" d="M212.3,292.52c-.12,2.01-.31,2.05.7,3.56.85,2.25,9.32,19.71,11.36,22.68.19.27,2.14.21,2.8.21-1.71.36-2.98.34-3.43,2.4l.49.84c.66.15,1.03.22,1.7.29-.5.16-1.63.36-1.79.81-2.72,8.11-4.58,16.94-7.43,25,.81,1.28,1.61,2.56,2.4,3.85-.6.83-1.04,1.3-1.27,2.3,3.18,4.45,11.86,16.49,14.32,20.96,1.07,1.75,5.14,9.12,5.95,10.16l-.69.28c-1.47-.24-3.04-1.54-4.63-2.37-.62.75-1.05,1.38-1.85,1.93-.18,14.56-.22,29.11-.12,43.67.03,9.05-.28,22.86,1.1,31.48l.08.56c-7.1,2.9-24.44.7-30.75,3.53l-.3.7c.53.84,22.24,14.18,25.72,16.83-2.95,8.01-5.12,16.38-7.92,24.46-.56,1.6-1.06,3.23-1.46,4.88,3.16-1.7,10.59-5.82,13.1-7.94.9,1.65.21,11.89.45,14.48.08.88.19,8.95.03,9.51-5.45-1.64-12.17-2.57-18.04-4.23-25.15-7.12-50.05-18.04-71.49-33.13,1.73-2.5,1.27-13.14,1.28-16.74l.06-22.67.04-74.97c-.02-4.65-.44-29.64.77-32.38.03-.41-.29-1.36-.41-1.82,5.47.8,18.52,0,24.29-.53,3.84-7.62,5.54-14.73,10.04-23.02,1.18,6.39,5.77,16.26,8,23.18,5.01.07,10.07.09,15.07.43-1.25-12.66-3.18-28.08,1.81-40.24l2.31-1.66c2.87-1.88,5.38-4.76,7.69-7.29Z"/>
  <path class="st6" d="M212.3,292.52c-.12,2.01-.31,2.05.7,3.56.85,2.25,9.32,19.71,11.36,22.68.19.27,2.14.21,2.8.21-1.71.36-2.98.34-3.43,2.4l.49.84c.66.15,1.03.22,1.7.29-.5.16-1.63.36-1.79.81-2.72,8.11-4.58,16.94-7.43,25,.81,1.28,1.61,2.56,2.4,3.85-.6.83-1.04,1.3-1.27,2.3-3.66-4.5-6.42-6.35-11.27-9.36l-1.88,3.42.4.62-.88.99c-.34-.49-.42-.87-.87-.81-3.65.51-9.78,5.96-12.16,8.2,2.87,7.54,5.55,15.16,8.04,22.83-6.86-3.89-14.96-9.26-21.81-12.65-4.71,1.56-18.25,9.74-22.34,12.88,2.12-7.71,5.57-15.95,7.17-23.51-5.12-4.34-15.38-9.03-18.75-13.61.03-.41-.29-1.36-.41-1.82,5.47.8,18.52,0,24.29-.53,3.84-7.62,5.54-14.73,10.04-23.02,1.18,6.39,5.77,16.26,8,23.18,5.01.07,10.07.09,15.07.43-1.25-12.66-3.18-28.08,1.81-40.24l2.31-1.66c2.87-1.88,5.38-4.76,7.69-7.29Z"/>
  <path class="st0" d="M205.09,349.15l-.4-.62,1.88-3.42c4.84,3.01,7.61,4.86,11.27,9.36,3.18,4.45,11.86,16.49,14.32,20.96,1.07,1.75,5.14,9.12,5.95,10.16l-.69.28c-1.47-.24-3.04-1.54-4.63-2.37-.62.75-1.05,1.38-1.85,1.93-.72-1.04-3.1-3.37-4.1-4.36-11.98-10.23-16.48-16.79-22.62-30.94l.88-.99Z"/>
  <path class="st10" d="M205.09,349.15c1.95,2.45,3.55,7.22,5.2,10.04,4.4,7.48,10.99,15.06,17.61,20.66l-1.07,1.23c-11.98-10.23-16.48-16.79-22.62-30.94l.88-.99Z"/>
  <path class="st9" d="M227.9,379.85c1.36,1.07,3.45,2.76,4.88,3.66-.62.75-1.05,1.38-1.85,1.93-.72-1.04-3.1-3.37-4.1-4.36l1.07-1.23Z"/>
  <path class="st6" d="M232,461.14c.33-.5.75-1.1,1.2-1.5,3.91-3.45,8.69-23.77,12.47-25.04-.43-.46,9.93,26.77,10.09,27.48,10.35.41,22.53,1.69,32.5.01-4.01,5.86-18.11,14.22-24.37,19.77,2.88,10.56,5.31,18.23,9.11,28.54-7.01-2.44-11.82-6.23-18-10.16-3.09-1.97-6.42-3.88-9.58-5.78-2.9,1.45-13.02,6.87-15.02,9.12-2.51,2.12-9.94,6.24-13.1,7.94.4-1.65.91-3.28,1.46-4.88,2.79-8.08,4.97-16.44,7.92-24.46-3.48-2.65-25.2-15.99-25.72-16.83l.3-.7c6.31-2.83,23.65-.63,30.75-3.53Z"/>
  <path class="st6" d="M268.64,293.65l1.12,2.65c6.74.83,27.58,4.8,32.57,3.83.83,1.21,1.56,1.38,3.03,1.58l-2.55,2.12c-.33,8.14-.12,21.79.39,29.96l2.33,2.42c-.73.67-2.01,1.72-2.46,2.51-.48-.15-1.44-.45-2.02-.31-9.84,2.37-20.62,5.11-30.07,8.6-.73.27-1.48,1.41-1.83,1.97-.56-1-2.09-2.33-2.97-3.18.34-3.78-12.89-18.83-15.79-22.23-2.09-2.45-3.6-2.34-6.53-2.29l2.01-.5c.94-.9.64-.73.89-2.36,1.35-.13,1.62-.18,2.22-1.28,2.86-3.45,17.1-18.17,16.93-21.59,1.07-.39,1.35-.21,2.46-.83l.28-1.06Z"/>
  <path class="st1" d="M243.86,321.27c2.93-.05,4.44-.15,6.53,2.29,2.91,3.4,16.14,18.44,15.79,22.23.88.85,2.41,2.18,2.97,3.18-1.78,5.85-3.32,11.77-4.62,17.74-1.42-.57-1.85-.6-2.74-1.76-.68,2.31-1.5,5.36-2.31,7.57-3.9.1-23.34,2.61-25.39.99-.08-.06-.15-.15-.23-.22-.59,1.34-.53,1.28-1.72,2.15-2.46-4.47-11.14-16.51-14.32-20.96.23-1,.68-1.47,1.27-2.3-.79-1.29-1.59-2.58-2.4-3.85,2.85-8.06,4.7-16.89,7.43-25,.15-.45,1.28-.65,1.79-.81,5.83-.21,11.79-.76,17.62-1.22h.32Z"/>
  <path class="st10" d="M219.1,352.18c4.07,6,11.41,15.49,14.76,21.12-.59,1.34-.53,1.28-1.72,2.15-2.46-4.47-11.14-16.51-14.32-20.96.23-1,.68-1.47,1.27-2.3Z"/>
  <path class="st5" d="M266.18,345.8c.88.85,2.41,2.18,2.97,3.18-1.78,5.85-3.32,11.77-4.62,17.74-1.42-.57-1.85-.6-2.74-1.76,1.38-4.58,3.62-14.54,4.39-19.16Z"/>
  <path class="st1" d="M269.15,348.97c.35-.56,1.1-1.7,1.83-1.97,9.46-3.49,20.24-6.23,30.07-8.6.58-.14,1.54.16,2.02.31,1.58,1.02,3.13,2.07,4.67,3.16,1.08.85,2.19,1.75,3.28,2.57l4.17,3.35,3.98,3.37c.16.3.31.61.47.92-.94,4.89-3.28,12.44-4.61,17-1.25,4.26-2.55,5.35-5.6,7.14,1.12.97,1.25.76,1.56,1.93l-.24.58c-4.31,1.49-8.63,2.93-12.97,4.33-1.08.35-5.74,1.74-6.55,2.14l-2.17-.1c-.84-.7-.54-.25-.69-1.56-3.37,1.28-5.2,1.25-8.45-.51-5.64-3.06-11.16-6.79-16.54-10.27.52-1.97.82-4.04,1.15-6.05,1.3-5.97,2.84-11.89,4.62-17.74Z"/>
  <path class="st10" d="M288.38,383.54c6.86-2.61,14.21-4.6,21.06-7.33,1.12.97,1.25.76,1.56,1.93l-.24.58c-4.31,1.49-8.63,2.93-12.97,4.33-1.08.35-5.74,1.74-6.55,2.14l-2.17-.1c-.84-.7-.54-.25-.69-1.56Z"/>
  <path class="st6" d="M261.79,364.96c.89,1.16,1.32,1.19,2.74,1.76-.33,2.02-.63,4.08-1.15,6.05,5.38,3.47,10.91,7.21,16.54,10.27,3.25,1.76,5.08,1.79,8.45.51.15,1.31-.15.85.69,1.56l2.17.1c-8.15,3.36-9.07,4.9-16.21,9.49-7.66,3.18-30.98-3.02-36.93-9.09-.81-1.04-4.88-8.41-5.95-10.16,1.18-.87,1.13-.8,1.72-2.15.08.07.15.16.23.22,2.05,1.62,21.49-.89,25.39-.99.82-2.21,1.63-5.25,2.31-7.57Z"/>
  <path class="st1" d="M310.76,378.72c2.86-.07,5.46-1.2,8.86-.66.15,1.52-.15.91.75,1.96-.57.76-1.15,1.46-1.63,2.27l-1.83-.21c-4.35,1.9-9.09,4.43-13.29,6.4-4.79,2.25-24.14,9.09-28.59,6.22,7.13-4.59,8.06-6.12,16.21-9.49.81-.4,5.47-1.8,6.55-2.14,4.34-1.4,8.66-2.85,12.97-4.33Z"/>
  <path class="st9" d="M319.61,378.06c.15,1.52-.15.91.75,1.96-.57.76-1.15,1.46-1.63,2.27l-1.83-.21c1.24-1.52,1.93-2.19,2.71-4.02Z"/>
  <path class="st11" d="M405.41,147.99c6.14-1.08,16.06-1.08,22.4-1.11l29.61-.02c8.99-.06,17.99.07,26.98.39,2.18.08,8.46.18,10.31.54.5.81.43.8.47,1.76-.33,40.26-.4,80.51-.22,120.77-.05,21.06,1.25,49.25-.67,69.75-4.94,48.14-26.56,93.03-61.12,126.9-4.91,4.78-20.43,19.04-26.58,21.61-.58-2.44-.35-8-.4-10.77-.17-9.31.41-18.7.39-27.99l-.16-59.58c-.02-7.48-.75-21.59.21-28.42,3.4,1.08,12.61,6.84,16.41,8.97-.27-6.03-2.5-10.43-4.46-16.12-1.43-4.08-2.72-8.2-3.86-12.36,3.78-3.76,22.23-15.17,22.92-18.43-.73-.51-1.52-.59-2.42-.55-9.53.37-18.5.02-27.99-.9-.63-1.9-1.38-3.73-2.12-5.59,1.09-1.4,1.1-5.45,1.12-7.25.38-52.42-.86-105.17-.2-157.56.08-1.31.11-2.08.04-3.39l-.68-.28.03-.36Z"/>
  <path class="st4" d="M405.41,147.99c6.14-1.08,16.06-1.08,22.4-1.11l29.61-.02c8.99-.06,17.99.07,26.98.39,2.18.08,8.46.18,10.31.54.5.81.43.8.47,1.76-4.8-2.69-11.7-.96-17.19-.79-18.09.53-36.11.25-54.19.1-4.66-.04-12.09-.56-16.43.16-1.16.89-.95,1.25-1.34,3.02.08-1.31.11-2.08.04-3.39l-.68-.28.03-.36Z"/>
  <path class="st11" d="M231.19,147.92c3-.46,8.91-.52,12.11-.61,4.17.28,8.56-.11,12.59.21,18.42,1.5,36.73-.13,55.12,1.07,1.63.11,6.07-.15,7.3.36.46,1.29.41,1.6.46,3.01.32,9.82,0,20.34,0,30.25l-.21,82.32c-3.5-1.1-5.74-2.7-10.24-3.78-1.17,1.1-1.2,1.17-2.73,1.41,2.73,1.14,3.68,2.67,4.73,5.56,2.52,6.94,4.01,14.06,6.81,20.96l-2.85,3.39c-2.83,2.23-8.67,6.58-11.97,8.06-4.99.96-25.83-3-32.57-3.83l-1.12-2.65-.28,1.06c-1.11.62-1.38.44-2.46.83.17,3.42-14.06,18.14-16.93,21.59-.6,1.1-.87,1.15-2.22,1.28-.24,1.63.05,1.46-.89,2.36l-2.01.5h-.32c-5.83.48-11.79,1.02-17.62,1.23-.67-.07-1.04-.15-1.7-.29l-.49-.84c.45-2.06,1.72-2.04,3.43-2.4-.66,0-2.61.07-2.8-.21-2.04-2.97-10.5-20.43-11.36-22.68-1.01-1.52-.82-1.55-.7-3.56l13.77-19.03c2.96-4.33,3.49-6.07,4.75-11.07l.14-.34c.37-2.65.04-10.14-.02-13.26-.14-6.63-.11-13.26.11-19.89,1.75.64,6.03,3.33,7.79,4.38,3.22,1.95,6.52,3.78,9.89,5.47-2.47-10.43-6.55-18.89-8.59-28.41,7.54-6.23,18.19-11.25,23.99-17.45-8.34-2.17-20.92-.77-29.94-1.14-2-3.76-2.97-5.96-4.26-10.02.64-.75.84-1.08.88-2.12.42-10.57-.07-21.12.38-31.71Z"/>
  <path class="st1" d="M230.66,272.15c5.79-.84,20.17,0,26.67-.08.96-.01,1.22.57,1.64,1.18,2.15,5.12,5.23,16.55,6.94,22.28.17,3.42-14.06,18.14-16.93,21.59-.6,1.1-.87,1.15-2.22,1.28-.24,1.63.05,1.46-.89,2.36l-2.01.5h-.32c-5.83.48-11.79,1.02-17.62,1.23-.67-.07-1.04-.15-1.7-.29l-.49-.84c.45-2.06,1.72-2.04,3.43-2.4-.66,0-2.61.07-2.8-.21-2.04-2.97-10.5-20.43-11.36-22.68-1.01-1.52-.82-1.55-.7-3.56l13.77-19.03c1.69-.04.97-.28,2.29.57.15-.08,2.06-1.71,2.3-1.91Z"/>
  <path class="st7" d="M227.15,318.97c5.95-1.05,14.42-.46,21.82-1.84-.6,1.1-.87,1.15-2.22,1.28-.24,1.63.05,1.46-.89,2.36l-2.01.5h-.32c-5.83.48-11.79,1.02-17.62,1.23-.67-.07-1.04-.15-1.7-.29l-.49-.84c.45-2.06,1.72-2.04,3.43-2.4Z"/>
  <path class="st5" d="M243.54,321.28c-1.59-.27-2.51-.32-3.97-1.08l.25-.38c2.1-.3,2.94-.39,5.07-.34h.5s-.4-.4-.4-.4c.36-.56.86-.47,1.77-.67-.24,1.63.05,1.46-.89,2.36l-2.01.5h-.32Z"/>
  <path class="st10" d="M226.06,273.49c1.69-.04.97-.28,2.29.57-3.71,4.71-12.89,17.06-15.36,22.02-1.01-1.52-.82-1.55-.7-3.56l13.77-19.03Z"/>
  <path class="st1" d="M278.35,255.15c4.07.3,5.98.97,9.88,2.21,5.76,1.73,11.55,3.33,17.38,4.81,2.73,1.14,3.68,2.67,4.73,5.56,2.52,6.94,4.01,14.06,6.81,20.96l-2.85,3.39c-2.83,2.23-8.67,6.58-11.97,8.06-4.99.96-25.83-3-32.57-3.83l-1.12-2.65-.28,1.06c-1.11.62-1.38.44-2.46.83-1.71-5.73-4.78-17.16-6.94-22.28.23-1.79.44-1.72,1.94-2.49,3.96-4.25,12.77-12.47,17.45-15.62Z"/>
  <path class="st10" d="M258.96,273.26c.23-1.79.44-1.72,1.94-2.49,3.46,7.63,4.75,15.03,7.74,22.88l-.28,1.06c-1.11.62-1.38.44-2.46.83-1.71-5.73-4.78-17.16-6.94-22.28Z"/>
  <path class="st6" d="M230.95,262.08c5.41-1.39,12.41-6.47,18.94-8.1,15.04-3.74,25.28-6.89,39.54.45-1.36.81-1.16.44-1.85,1.65.26.83.11.56.65,1.27-3.9-1.23-5.81-1.9-9.88-2.21-4.68,3.15-13.49,11.38-17.45,15.62-1.5.77-1.71.7-1.94,2.49-.41-.62-.68-1.2-1.64-1.18-6.5.08-20.88-.77-26.67.08-.24.2-2.16,1.83-2.3,1.91-1.32-.85-.6-.61-2.29-.57,2.96-4.33,3.49-6.07,4.75-11.07l.14-.34Z"/>
  <path class="st10" d="M289.43,254.43c8.9,4.41,10.04,3.6,18.92,6.33-1.17,1.1-1.2,1.17-2.73,1.41-5.83-1.48-11.62-3.08-17.38-4.81-.54-.71-.4-.44-.65-1.27.69-1.21.49-.84,1.85-1.65Z"/>
  <path class="st6" d="M395.45,291.8c1.06,2.9,2.73,5.97,3.78,8.91,1.94,5.42,3.83,10.75,5.88,16.13.74,1.86,1.48,3.69,2.12,5.59,9.49.92,18.47,1.26,27.99.9.9-.04,1.7.04,2.42.55-.69,3.26-19.14,14.67-22.92,18.43,1.14,4.17,2.43,8.29,3.86,12.36,1.96,5.69,4.19,10.09,4.46,16.12-3.79-2.12-13-7.88-16.41-8.97-3.39-2.32-6.94-4.42-10.61-6.28-1.29.71-3.72,2-4.87,2.84-6.01,4.38-18.81,9.58-23.1,15.09,1.15-5.56,3.07-10.41,4.81-15.78,1.66-5.15,3.06-10.22,4.98-15.31-9.01-5.64-18.41-12.06-27.4-17.88,11.12-.92,22.15-1.3,33.32-2.54,4.14-8.82,8.65-21.01,11.69-30.17Z"/>
  <path class="st1" d="M314.3,292.08c1.31-.02,3.67-.33,4.79-.07l.48.46c.28-.01.55-.02.83-.03,5.13,4.46,16.29,12.27,20.82,16.43.21.19.41.38.61.58.17,1.16.35,2.32.54,3.47-.07,4.98.11,10.31-.07,15.21l-.46,4.08c-2.25,2.57-16.56,13.87-19.83,16.01-.71.83-1.96,2.48-2.84,2.94l-3.98-3.37-4.17-3.35c-1.09-.82-2.21-1.72-3.28-2.57-1.54-1.08-3.09-2.13-4.67-3.16.44-.8,1.72-1.85,2.46-2.51l-2.33-2.42c-.51-8.16-.72-21.81-.39-29.96l2.55-2.12c-1.46-.19-2.2-.37-3.03-1.58,3.3-1.48,9.14-5.82,11.97-8.06Z"/>
  <path class="st10" d="M314.3,292.08c1.31-.02,3.67-.33,4.79-.07l.48.46c-4.11,2.6-10.4,6.36-14.22,9.25-1.46-.19-2.2-.37-3.03-1.58,3.3-1.48,9.14-5.82,11.97-8.06Z"/>
  <path class="st7" d="M305.53,336.21c1.44,1.16,3.07,2.54,4.56,3.6-.85.91-.8.95-2.04,1.35l-.31.71c-1.54-1.08-3.09-2.13-4.67-3.16.44-.8,1.72-1.85,2.46-2.51Z"/>
  <path class="st2" d="M317.78,345.44c1.38.92,2.83,1.93,4.24,2.78-.71.83-1.96,2.48-2.84,2.94l-3.98-3.37c1.74-.78,1.87-.85,2.58-2.35Z"/>
  <path class="st7" d="M313.94,342.64c1.64,1.02,2.34,1.58,3.84,2.8-.72,1.5-.84,1.57-2.58,2.35l-4.17-3.35c1.38-.44,1.03-.04,1.72-.94l-.31-.85.18-.03.59.32.74-.3Z"/>
  <path class="st5" d="M310.09,339.81c1.17.83,2.82,1.92,3.85,2.83l-.74.3-.59-.32-.18.03.31.85c-.69.9-.33.5-1.72.94-1.09-.82-2.21-1.72-3.28-2.57l.31-.71c1.24-.4,1.19-.44,2.04-1.35Z"/>
  <path class="st6" d="M345.01,327.1c.28,3.09.78,7.49.39,10.54-1.51,12.05-8.35,24.22-15.91,33.51-2.82,3.47-5.76,6.14-9.13,8.86-.9-1.04-.6-.44-.75-1.96-3.4-.54-6,.59-8.86.66l.24-.58c-.31-1.17-.44-.96-1.56-1.93,3.04-1.79,4.35-2.88,5.6-7.14,1.33-4.56,3.67-12.1,4.61-17-.16-.3-.31-.61-.47-.92.89-.45,2.14-2.11,2.84-2.94,3.27-2.15,17.59-13.44,19.83-16.01l.46-4.08.55.55.75-.83c.14.63.23.7.5,1.29l.37-.04.54-1.99Z"/>
  <path class="st6" d="M308.35,260.76c4.5,1.08,6.73,2.68,10.24,3.78,3.67,3.18,8.07,7.1,11.13,10.81,7.44,9,15.62,23.72,16.26,35.58-.63-1.18-.77-1.74-1.96-2.32-2,.32-1.62,2.67-1.63,4.31-.19-1.16-.37-2.31-.54-3.47-.2-.2-.4-.39-.61-.58-4.53-4.16-15.7-11.97-20.82-16.43-.28.01-.55.02-.83.03l-.48-.46c-1.12-.26-3.48.05-4.79.07l2.85-3.39c-2.8-6.9-4.29-14.02-6.81-20.96-1.05-2.89-2-4.43-4.73-5.56,1.53-.24,1.56-.31,2.73-1.41Z"/>
  <path class="st8" d="M243.3,147.31c3.75-.49,11.45-.32,15.52-.33l32.06.05c31.62-.19,63.17-.96,94.78-.6,3.39.04,17.16.53,19.75,1.57l-.03.36c-10.3.92-21.89.79-32.27.78l-34.84-.05c-5.46-.04-13.99-.59-19.11-.31-.54.98-.38,2.03-.37,3.19-.05-1.41,0-1.71-.46-3.01-1.23-.52-5.67-.26-7.3-.36-18.39-1.2-36.71.43-55.12-1.07-4.03-.33-8.43.06-12.59-.21Z"/>
  <path class="st2" d="M342.38,312.91c0-1.63-.37-3.99,1.63-4.31,1.19.58,1.33,1.14,1.96,2.32.18,5.16-1.32,9.88-.96,16.17l-.54,1.99-.37.04c-.27-.59-.36-.66-.5-1.29l-.75.83-.55-.55c.18-4.9,0-10.23.07-15.21Z"/>
  <path class="st10" d="M342.9,314.55c3.08,1.21,1.68,6.83,1.38,9.56-.49.21-.18.12-.96.09-.98-1.5-.49-7.54-.42-9.65Z"/>
  <path class="st1" d="M56.36,38.07c.48-10.39,8.64-14.27,18.02-14.89,9.07-.6,18.49-.45,27.6-.45l41.9.06h124.08s138.47-.05,138.47-.05h44.2c8.06.01,15.86,0,24.16.18,8.1.17,18.81,2.94,20.45,12.48.59,3.44.27,8.87.27,12.61l-.03,23.04v29.5c.02,6.28.08,12.46-.07,18.74-.21,9.03-8.47,14.24-16.83,14.57-8.24.32-16.58.18-24.88.17l-41.95.02-143.07-.04h-135.19s-39.17.03-39.17.03c-6.93,0-14,.09-20.92-.25-5.16-.25-10.81-2.04-14.23-6.18-1.75-2.13-2.73-4.78-2.79-7.54-.71-3.47-.63-12.79-.66-16.65l-.09-28.21c0-8.15.06-16.31.16-24.46.06-3.3.07-9.71.57-12.67Z"/>
  <path class="st3" d="M56.37,120.06c-.71-3.47-.63-12.79-.66-16.65l-.09-28.21c0-8.15.06-16.31.16-24.46.06-3.3.07-9.71.57-12.67.18,3.11-.19,6.11.32,9.02.28,1.58,2.2,3.28,2.24,5.19.17,8.62.18,17.38.12,26-.08,10.97.15,22.07-.49,33.01-.07,1.18-.91,4.31-1.7,5.23-.51.6-.46,2.66-.48,3.54Z"/>
  <path class="st6" d="M213.49,39.04h17.49c9.73.01,20.44-.74,29.18,4.38,3.92,2.41,7.68,6.79,8.48,11.41,3.11,18.13-4.79,23.85-20.44,27.37,3.88,3.27,9.9,8.7,12.82,12.62,3.59,4.82,14.73,18.8,7,23.97-8.22,5.5-12.58-1.98-16.68-7.8-4.37-6.54-9-14.7-14.04-20.57-4.84-5.64-12.71-5.78-19.7-5.93-.39,6.19-.63,12.4-.74,18.6-.08,3.61,0,7.76-.55,11.23-.51,3.22-4.24,6.06-7.42,6.11-2.24.03-4.22-.31-5.98-1.86-2.71-2.4-2.54-6.8-2.73-10.14-.11-12.68-.06-25.33.02-38.03.05-7.83-.31-16.17.17-23.98.1-1.62.79-3.84,2-5.01,2.64-2.57,7.62-2.29,11.11-2.37Z"/>
  <path class="st1" d="M217.01,50.97c9.09.73,33.51-4.19,35.05,9.62.39,3.55-1.01,6.22-3.23,8.91-6.14,4.92-23.99,3.63-32.03,3.48.2-5.58-.53-17.15.22-22.01Z"/>
  <path class="st6" d="M143.8,37.92c7.79-.29,11.44.04,15.18,7.75,3.38,6.96,6.03,14.19,9.16,21.27l10.45,23.82c2.78,6.26,5.78,12.72,8.01,19.2.58,1.67.76,2.83.23,4.48-1.11,3.61-7.22,7.71-10.89,5.71-5.82-3.17-9.05-14.47-11.24-20.28-4.19-.15-8.93-.08-13.16-.1l-22,.06c-2.14,5.92-5.26,17.79-11.49,20.5-3.23,1.71-9.48-2.48-9.98-5.62-.74-4.63,4.36-14.61,6.18-18.92l8.69-20.78c4.22-10.14,8.27-20.92,13.04-30.78,1.56-3.23,4.37-5.29,7.81-6.31Z"/>
  <path class="st1" d="M147.89,55.56c.74.68,10.19,28.09,12.19,32.07l-14.06.1-12.13-.15c4.22-9.35,8.15-24.76,14-32.02Z"/>
  <path class="st6" d="M290.64,37.88c2.58-.05,5.53.04,7.53,1.91,1.38,1.29,2.02,3.24,2.32,5.06.68,4.05.24,8.68.23,12.8-.04,8.97-.17,17.95-.08,26.92.06,6.56.3,13.87,5.46,18.7,3.91,3.67,9.6,4.09,14.71,3.94,4.73-.13,10.77-1.31,13.79-5.27,8.29-10.87-.64-55.43,5.92-61.84,1.72-1.68,4.65-2.23,6.97-2.19,2.12.04,4.21.7,5.7,2.26,3.84,4.03,2.65,12.36,2.59,17.48,0,13.69,1.51,35.66-4.07,47.88-7.93,17.37-38.7,17.59-53.29,10.68-19.92-9.44-13.67-36.1-14.65-53.74-.3-5.37.08-11.43.2-16.82.18-4.74,2.39-6.65,6.67-7.78Z"/>
  <path class="st6" d="M405.57,38.3c14.38-2.02,37.58,3.81,40.66,21.03.62,4.38-.64,8.77-5.8,9.12-6.44.34-9.38-7.62-13.27-11.6-3.18-3.25-5.84-5.33-10.51-6.05-17.8-2.77-27.16,9.11-27.86,25.39-.86,19.72,6.09,34.39,28.35,30.36,6.02-1.1,8.97-3.68,12.39-8.67,1.67-3.04,5.57-11.02,8.7-10.98,13.46.2,8.88,13.58,4.34,19.43-6.53,8.41-14.93,12.35-24.63,13.71-10.78,1.51-22.73-.67-31.44-6.96-8.11-6.27-12.99-15-14.57-24.96-3.92-24.62,6.66-46.44,33.66-49.84Z"/>
</svg>