<svg id="Layer_1" data-name="Layer 1" xmlns="http://www.w3.org/2000/svg" viewBox="0 0 500 500"><defs><style>.cls-1{fill:#2e589b;}.cls-2{fill:#fff;}</style></defs><title>Sao Raimundo-AM</title><path class="cls-1" d="M25.23,165.88c5.4.92,10.46,2.1,15.59,2.61,15.23,1.5,29.32-1.59,41.92-10.72C97.56,147,99.2,126,91.07,111.3c-4.89-8.88-12-15.62-20.16-21.42L68,87.8c1.09-1.79,2-3.39,3-5Q95.95,43.18,120.82,3.48A5.1,5.1,0,0,1,126,.67c21.84,1,43.67,2.33,65.52,2.77C220.41,4,249.27,4,278.12,4c10.72,0,21.45-.28,32.17-.68Q342,2.18,373.63.66c2.79-.13,4.24.8,5.68,3.12q25.29,40.53,50.79,81c.59.94,1.17,1.9,1.85,3-2.37,1.75-4.56,3.31-6.67,5-8.84,7-16.37,15.05-19.48,26.1-5.18,18.37.53,35.19,20.52,44.44,14.3,6.61,29.1,7.06,44.19,3.31,1.29-.32,2.6-.58,4.39-1,.19,2.95.55,5.61.5,8.26-.36,19.47-.1,39-1.37,58.39-2.58,39.42-10.34,77.79-25.63,114.46-15.84,38-40.17,69.57-71,96.44-20.23,17.6-42.08,32.66-66.84,43.23-22,9.41-45,14.21-69,12.77a146.47,146.47,0,0,1-56.65-14.87c-59.63-29.53-104.74-73.53-132-134.77-10.93-24.51-17.7-50.3-22.18-76.74-5.65-33.4-6.77-67-6.08-100.81,0-1.46.19-2.91.33-4.36A15.69,15.69,0,0,1,25.23,165.88ZM61.06,305,406.74,178.84c-30.1-23.64-31.38-52.12-15.19-84-1.29.42-2.26.7-3.22,1.05Q219.73,157.52,51.09,219.07c-2.54.93-3.28,2.12-3.08,4.73,1.5,20.33,3.76,40.56,8.08,60.5C57.56,291.07,59.31,297.78,61.06,305ZM349,209.57c-11.77,4.29-23,8.46-34.22,12.42-2.43.85-3,2.12-3,4.55q.09,115.13.06,230.24c0,1.07.15,2.13.26,3.66,1.53-.76,2.59-1.18,3.53-1.77,10-6.35,19.95-12.79,30-19.06,2.79-1.74,3.72-3.87,3.72-7.16q-.15-109.18-.08-218.37C349.18,212.76,349.05,211.44,349,209.57Zm-70.64,26.25a7.74,7.74,0,0,0-1.51.15c-11.33,4.11-22.68,8.17-33.94,12.46-.9.34-1.72,2.2-1.72,3.36Q241,362.43,241,473.06c0,2.68,1,3.32,3.44,3.38a138.41,138.41,0,0,0,30.4-2.54c2.79-.55,3.53-1.71,3.53-4.53q-.13-115-.07-230ZM237,63.87c1.85,4.28,4,8.25,5.28,12.48s1.7,8.94,2.69,13.38a2.72,2.72,0,0,0,2.19,1.37c6-.28,12-.71,18.05-1.14,22.82-1.6,45.63-3.25,68.45-4.8C350.75,84,367.88,83,385,81.85c4.95-.33,9.9-.79,15.35-1.24-.76-1.35-1.27-2.34-1.85-3.28C388,60.59,377.44,43.88,367,27.09a5.35,5.35,0,0,0-5.52-2.88c-21.52.91-43,1.61-64.56,2.51a12,12,0,0,0-5.75,1.77q-26,16.74-51.8,33.7C238.52,62.75,237.7,63.36,237,63.87ZM382.46,405.13l.83.23a19.18,19.18,0,0,0,1.59-1.4A212.38,212.38,0,0,0,419,355.3a9.59,9.59,0,0,0,1-4.16q.06-81.37,0-162.74c0-3.76-.94-4.38-4.59-3.07-9.87,3.57-19.69,7.25-29.6,10.69-2.62.9-3.41,2.23-3.41,4.95q.11,100.44.06,200.86Zm-175-143.41a5.71,5.71,0,0,0-1.3,0c-11.33,4.12-22.67,8.2-33.94,12.47a3.9,3.9,0,0,0-1.74,3q-.14,85.47,0,171a5,5,0,0,0,2,3.64c6.58,3.78,13.22,7.47,20,10.84,4.7,2.34,9.68,4.12,14.93,6.32Zm-70.81,163V287.35a11.28,11.28,0,0,0-1.54.29c-11.12,4-22.23,8.15-33.38,12.11-2,.7-2.06,1.95-2.06,3.6,0,26.55,0,53.09.09,79.64a8,8,0,0,0,1.54,4.49c9.71,13,21,24.51,32.91,35.38C134.86,423.44,135.61,423.91,136.65,424.67Zm27.43-376a4.26,4.26,0,0,0-.25-1.16c-4.9-7.12-9.77-14.25-14.76-21.3a4,4,0,0,0-2.56-1.36c-2.89-.32-5.82-.3-8.71-.62-2.17-.24-3.4.57-4.53,2.41-5.45,8.87-11,17.64-16.57,26.46-.52.84-.94,1.74-1.53,2.83l29.75,15A55.1,55.1,0,0,1,164.08,48.64ZM110.35,98.56c8.2,14.55,10.29,29.62,6.86,46.31l33.33-21.47a55.09,55.09,0,0,1-9.9-25.18c-.08-.62-1.54-1.55-2.34-1.53-5.09.17-10.18.53-15.26.88C119,97.85,115,98.19,110.35,98.56ZM229.67,78.93c-7.58,5-14.88,10-22.36,14.63-2.42,1.51-2.77,3.19-2.33,5.67.89,5,1.59,10,2.39,15.07.71,4.46,1.46,8.92,2.2,13.44C227.74,121,237.67,96,229.67,78.93Zm-31,20.49L165.11,122a16.21,16.21,0,0,1,2.27,1.21,40.05,40.05,0,0,0,30.34,8.53c6.59-.73,6.64-1,5.52-7.51C201.85,116.19,200.31,108.17,198.71,99.42Zm-2.5,45.3a58.08,58.08,0,0,1-27-5.45c-4.79,10.7-9.44,21-14.45,32.23,2-.66,3-1,4-1.36L189.21,159c7.84-2.87,7.84-2.87,7.23-11C196.38,147.08,196.31,146.16,196.21,144.72Zm-5.46-47.43a70.07,70.07,0,0,0,5.85-4,3.62,3.62,0,0,0,1.14-2.77q-2.51-17.7-5.33-35.36c-.13-.83-1.3-2.17-1.93-2.14-6.46.32-12.67,1.68-18.51,5.44C178.23,71.38,184.4,84.14,190.75,97.29Zm30.41,39c1.7,2.46,3.28,4.52,4.6,6.74,1.08,1.82,2.28,1.89,4.11,1.2,11.08-4.13,22.19-8.15,33.29-12.23.88-.32,1.72-.78,3.24-1.48-9.06-4.8-17.38-9.24-25.76-13.55a2.3,2.3,0,0,0-2.15.71A57,57,0,0,1,221.16,136.28Zm-17.89-47.1L227.06,73c-6.88-10.81-15.77-17.7-28.88-19.39C199.88,65.46,201.52,76.91,203.27,89.18ZM217.74,46c3.06-6,6.16-12.1,9.63-18.89H188.56c.39,4.17.79,8.46,1.18,12.55,5,.62,9.72.84,14.24,1.86S212.84,44.33,217.74,46Zm-34.32,49.8L167.3,61.59c-7.55,6.59-12.18,14.29-13.67,23.76-.11.67,1.13,2,2,2.31,8.37,2.7,16.8,5.25,25.22,7.81A18,18,0,0,0,183.42,95.76Zm-21.94,21.36L183,102.47l-30.08-9.64C153,102.13,155.42,110,161.48,117.12Z"/><path class="cls-2" d="M61.06,305c-1.75-7.25-3.5-14-5-20.73-4.32-19.94-6.58-40.17-8.08-60.5-.2-2.61.54-3.8,3.08-4.73Q219.74,157.56,388.33,95.9c1-.35,1.93-.63,3.22-1.05-16.19,31.87-14.91,60.35,15.19,84ZM198.93,204.69l.36-.3c.71,1,1.41,2,2.15,3,2.18,2.92,4.3,5.89,6.61,8.7a3.33,3.33,0,0,0,2.57,1c.42,0,1-1.43,1-2.21,0-3.74-.28-7.47-.42-11.21-.05-1.34,0-2.68,0-4l.3.07c2.44,8.1,4.89,16.2,7.41,24.56l5.47-2.25c-4.45-12.22-8.8-24.17-13.15-36.08-5,1.3-5,1.31-4.83,5.83.23,5,.62,10.08,1,15.78-.94-1.05-1.5-1.6-2-2.22-2.72-3.55-5.42-7.13-8.14-10.68-2.61-3.39-3.27-3.45-7.08-.65l13.07,35.79c5.22-1.64,5.29-1.67,3.48-6.19C204.19,217.27,201.53,211,198.93,204.69Zm48.58-17.44c5.33,6.3,10.62,12.42,15.74,18.68,1.72,2.11,3.45,1.23,4.87.22.66-.47.86-2.34.52-3.31-3-8.62-6.18-17.19-9.3-25.77-.92-2.52-1.85-5-2.88-7.85l-5.17,2.17L259.85,194a2.73,2.73,0,0,1-1.33-1c-4.68-5.7-9.44-11.34-14-17.12-1.8-2.28-3.62-1.18-5.15-.19-.62.4-.77,2.32-.43,3.3,2.94,8.43,6,16.8,9.1,25.18l3.09,8.4,5.18-2.18Zm61-2.64a65.17,65.17,0,0,0-8.91-24.55c-2.64-4.16-5.71-5-10.15-3.41-4.25,1.53-6.45,4.86-5.94,9.46a60.78,60.78,0,0,0,8.74,24.74c2.48,4.08,5.51,5,9.85,3.68S308.55,190.22,308.53,184.61ZM160.71,245.55,167,243.1c-3.12-4.32-5.6-8.37-8.72-11.85a5,5,0,0,1-1.47-5,16,16,0,0,0-4.62-14.55c-3.43-3.48-7.57-1.53-11.42-.31a13.53,13.53,0,0,1-1.46.54c-2.43.48-2.52,1.77-1.74,3.86,3.87,10.42,7.6,20.88,11.41,31.32a18.38,18.38,0,0,0,1.18,2.25l4.74-2.08-4.91-14C152.69,233,152.69,233,160.71,245.55Zm113.46-41.5c1.79-.63,3.35-1.15,4.89-1.72,5.81-2.13,7.5-4.34,7.08-10.46A48.9,48.9,0,0,0,277.87,168c-2.22-3.35-5.12-4.22-9-3.14a29.61,29.61,0,0,0-5.84,2.08,3.19,3.19,0,0,0-1.3,2.71,46.77,46.77,0,0,0,2.13,6.16Zm-57.92-20c.31,1.13.5,2,.81,2.88,2.75,7.61,5.5,15.22,8.31,22.81,3.56,9.64,8.3,11.27,17.2,6,.53-.32,1-.7,1.57-1,2-1.11,2.29-2.5,1.47-4.68-3.41-9-6.64-18.11-9.94-27.18-.62-1.72-1.26-3.44-1.88-5.12-5.47,1.38-5.48,1.39-3.75,6.14,2.9,8,5.78,16,8.76,24,.77,2.08,1.1,3.66-1.5,4.74s-4.21.26-5.32-2a40.22,40.22,0,0,1-1.51-3.75c-3-8.18-6-16.35-9.05-24.79Zm-79,64.22c-.09-5.57-5.28-20.56-9-26-2.67-3.88-5.37-4.93-9.24-3.58-4.08,1.41-6.21,4.42-5.6,8.92a63.59,63.59,0,0,0,9.19,25.55c2.49,4,5,4.7,9,3.38S137.29,252.55,137.23,248.3Zm52.68-13.9c-7.06-10.64-14-21.12-21-31.52a2.75,2.75,0,0,0-2.52-.79,4.78,4.78,0,0,0-2.42,2.27c-.38.84,0,2,.09,3.07,1.19,10.61,2.43,21.23,3.58,31.85.35,3.18.92,3.56,3.91,2.33,1.6-.66,2.27-1.54,1.71-3.35a17.79,17.79,0,0,1-.7-4.6,3.08,3.08,0,0,1,.84-2.34c4-2.84,6.37-2.33,8.84,1.71C184.9,237.38,185,237.41,189.91,234.4Zm-69.32,25.17c-6.85-10.74-13.59-21.35-20.43-31.89a2.57,2.57,0,0,0-2.32-.64,3.38,3.38,0,0,0-2,1.85,8.72,8.72,0,0,0,.11,3.4q1.49,11.58,3,23.16c.52,3.85,1.1,7.7,1.65,11.55,5-.95,5-1,4.31-5.45a28.2,28.2,0,0,1-.52-3.38,2.65,2.65,0,0,1,.61-1.89c3-2.61,6.24-2.09,8.2,1.22l.64,1.07C116.07,262.36,116.2,262.39,120.59,259.57ZM82.36,267c0,4.76,1,5.75,5,5.38,6.35-.59,9.51-5.3,7.92-11.78a16,16,0,0,0-6.91-9.64,76.57,76.57,0,0,1-8.27-6.09c-1.09-1-2.18-3.12-1.8-4.24.45-1.34,2.43-2.21,3.84-3.15.46-.3,1.31,0,1.81-.28.75-.43,2-1.32,1.89-1.67-.31-1-1.07-2.65-1.85-2.76a11.23,11.23,0,0,0-9.64,3.33c-2.41,2.32-2.42,5.37-1.25,8.11a16.93,16.93,0,0,0,4.16,5.67c2.53,2.29,5.54,4,8.19,6.21a14.62,14.62,0,0,1,3.68,4.13c1.94,3.6.3,6.36-3.77,6.76A29.6,29.6,0,0,1,82.36,267ZM320.77,145.92c-3.28,1.16-6.23,2.4-9.29,3.26-2.64.73-2.83,2-2,4.32,3.85,10.3,7.55,20.66,11.33,31a21.05,21.05,0,0,0,1.11,2.24l11.15-4.08c-.42-4.83-.69-5-4.74-3.57-1,.37-2.1.69-3.45,1.13l-4.46-12.39,5.77-2.55-1.65-4.52-6,1.92c-1.15-3.14-2.23-6.11-3.39-9.27,1.32-.57,2.33-1,3.37-1.46s2.27-.88,3.65-1.41C321.72,149,321.3,147.64,320.77,145.92Zm31.54-5.9c.06-4.65-1.31-5.68-5.43-4.26a8.5,8.5,0,0,0-6.12,8.47c-.17,9.91,3.43,18.72,8.56,26.9,2.74,4.37,6.63,4.7,11.39,1.81,3.33-2,3.5-4.46.48-7.11-5,2.5-6.4,2.56-8.3-.58a39.61,39.61,0,0,1-6.18-18.08C346.4,142.4,347.54,141.1,352.31,140ZM198.65,231.5l-13.19-36.16c-4.9,1.45-5,1.55-3.39,5.88q1.86,5.11,3.73,10.23c2.63,7.18,5.26,14.36,8,21.83ZM91.17,225.56c1-2.45,2.37-3.25,5-2.21s3.8-1.35,4.92-3.24.67-3.32-1.47-4.4c-1.34,2.14-3,3-5.65,1.94-2.12-.86-4.19,1.12-5.32,4.11C87.73,224.07,89.18,224.69,91.17,225.56ZM371,161.94c-2.77,0-4.3,1.21-4.27,3.51,0,1.87.65,3.87,3.17,3.83,2.21,0,3.9-.92,3.81-3.49C373.6,163.79,373,162.09,371,161.94Zm-30.6,18.63c.61-.86,2.24-2.14,2.34-3.53.13-1.81-.67-4-3.4-3.83-2.11.1-3.41,1.35-3.35,3.29S336.64,180.45,340.36,180.57Z"/><path class="cls-2" d="M349,209.57c.1,1.87.23,3.19.23,4.51q0,109.18.08,218.37c0,3.29-.93,5.42-3.72,7.16-10.05,6.27-20,12.71-30,19.06-.94.59-2,1-3.53,1.77-.11-1.53-.26-2.59-.26-3.66q0-115.11-.06-230.24c0-2.43.61-3.7,3-4.55C326,218,337.18,213.86,349,209.57Z"/><path class="cls-2" d="M278.31,235.82v3.53q0,115,.07,230c0,2.82-.74,4-3.53,4.53a138.41,138.41,0,0,1-30.4,2.54c-2.47-.06-3.44-.7-3.44-3.38q.11-110.64.13-221.27c0-1.16.82-3,1.72-3.36,11.26-4.29,22.61-8.35,33.94-12.46A7.74,7.74,0,0,1,278.31,235.82Z"/><path class="cls-2" d="M237,63.87c.73-.51,1.55-1.12,2.41-1.68q25.88-16.89,51.8-33.7a12,12,0,0,1,5.75-1.77c21.52-.9,43-1.6,64.56-2.51A5.35,5.35,0,0,1,367,27.09c10.43,16.79,21,33.5,31.49,50.24.58.94,1.09,1.93,1.85,3.28-5.45.45-10.4.91-15.35,1.24C367.88,83,350.75,84,333.63,85.16c-22.82,1.55-45.63,3.2-68.45,4.8-6,.43-12,.86-18.05,1.14a2.72,2.72,0,0,1-2.19-1.37c-1-4.44-1.38-9-2.69-13.38S238.82,68.15,237,63.87Z"/><path class="cls-2" d="M382.46,405.13v-3.3q0-100.43-.06-200.86c0-2.72.79-4.05,3.41-4.95,9.91-3.44,19.73-7.12,29.6-10.69,3.65-1.31,4.59-.69,4.59,3.07q0,81.36,0,162.74a9.59,9.59,0,0,1-1,4.16A212.38,212.38,0,0,1,384.88,404a19.18,19.18,0,0,1-1.59,1.4Z"/><path class="cls-2" d="M207.46,261.72V469c-5.25-2.2-10.23-4-14.93-6.32-6.79-3.37-13.43-7.06-20-10.84a5,5,0,0,1-2-3.64q-.15-85.49,0-170.95a3.9,3.9,0,0,1,1.74-3c11.27-4.27,22.61-8.35,33.94-12.47A5.71,5.71,0,0,1,207.46,261.72Z"/><path class="cls-2" d="M136.65,424.67c-1-.76-1.79-1.23-2.44-1.81-12-10.87-23.2-22.42-32.91-35.38A8,8,0,0,1,99.76,383c-.09-26.55-.06-53.09-.09-79.64,0-1.65.11-2.9,2.06-3.6,11.15-4,22.26-8.07,33.38-12.11a11.28,11.28,0,0,1,1.54-.29Z"/><path class="cls-2" d="M164.08,48.64a55.1,55.1,0,0,0-19.16,22.3l-29.75-15c.59-1.09,1-2,1.53-2.83,5.53-8.82,11.12-17.59,16.57-26.46,1.13-1.84,2.36-2.65,4.53-2.41,2.89.32,5.82.3,8.71.62a4,4,0,0,1,2.56,1.36c5,7,9.86,14.18,14.76,21.3A4.26,4.26,0,0,1,164.08,48.64Z"/><path class="cls-2" d="M110.35,98.56c4.64-.37,8.66-.71,12.69-1,5.08-.35,10.17-.71,15.26-.88.8,0,2.26.91,2.34,1.53a55.09,55.09,0,0,0,9.9,25.18l-33.33,21.47C120.64,128.18,118.55,113.11,110.35,98.56Z"/><path class="cls-2" d="M229.67,78.93c8,17.06-1.93,42.07-20.1,48.81-.74-4.52-1.49-9-2.2-13.44-.8-5-1.5-10.06-2.39-15.07-.44-2.48-.09-4.16,2.33-5.67C214.79,88.9,222.09,83.92,229.67,78.93Z"/><path class="cls-2" d="M198.71,99.42c1.6,8.75,3.14,16.77,4.53,24.83,1.12,6.53,1.07,6.78-5.52,7.51a40.05,40.05,0,0,1-30.34-8.53,16.21,16.21,0,0,0-2.27-1.21Z"/><path class="cls-2" d="M196.21,144.72c.1,1.44.17,2.36.23,3.28.61,8.14.61,8.14-7.23,11l-30.42,11.13c-1,.38-2.07.7-4,1.36,5-11.18,9.66-21.53,14.45-32.23A58.08,58.08,0,0,0,196.21,144.72Z"/><path class="cls-2" d="M190.75,97.29C184.4,84.14,178.23,71.38,172,58.44c5.84-3.76,12.05-5.12,18.51-5.44.63,0,1.8,1.31,1.93,2.14q2.82,17.65,5.33,35.36a3.62,3.62,0,0,1-1.14,2.77A70.07,70.07,0,0,1,190.75,97.29Z"/><path class="cls-2" d="M221.16,136.28a57,57,0,0,0,17.33-18.61,2.3,2.3,0,0,1,2.15-.71c8.38,4.31,16.7,8.75,25.76,13.55-1.52.7-2.36,1.16-3.24,1.48-11.1,4.08-22.21,8.1-33.29,12.23-1.83.69-3,.62-4.11-1.2C224.44,140.8,222.86,138.74,221.16,136.28Z"/><path class="cls-2" d="M203.27,89.18c-1.75-12.27-3.39-23.72-5.09-35.62,13.11,1.69,22,8.58,28.88,19.39Z"/><path class="cls-2" d="M217.74,46c-4.9-1.63-9.24-3.45-13.76-4.48s-9.22-1.24-14.24-1.86c-.39-4.09-.79-8.38-1.18-12.55h38.81C223.9,33.86,220.8,39.94,217.74,46Z"/><path class="cls-2" d="M183.42,95.76a18,18,0,0,1-2.58-.29c-8.42-2.56-16.85-5.11-25.22-7.81-.86-.27-2.1-1.64-2-2.31,1.49-9.47,6.12-17.17,13.67-23.76Z"/><path class="cls-2" d="M161.48,117.12c-6.06-7.13-8.49-15-8.57-24.29L183,102.47Z"/><path class="cls-1" d="M198.93,204.69c2.6,6.3,5.26,12.58,7.8,18.91,1.81,4.52,1.74,4.55-3.48,6.19L190.18,194c3.81-2.8,4.47-2.74,7.08.65,2.72,3.55,5.42,7.13,8.14,10.68.48.62,1,1.17,2,2.22-.36-5.7-.75-10.74-1-15.78-.2-4.52-.13-4.53,4.83-5.83,4.35,11.91,8.7,23.86,13.15,36.08l-5.47,2.25c-2.52-8.36-5-16.46-7.41-24.56l-.3-.07c0,1.34,0,2.68,0,4,.14,3.74.37,7.47.42,11.21,0,.78-.59,2.18-1,2.21a3.33,3.33,0,0,1-2.57-1c-2.31-2.81-4.43-5.78-6.61-8.7-.74-1-1.44-2-2.15-3Z"/><path class="cls-1" d="M247.51,187.25l8.79,23.12-5.18,2.18-3.09-8.4c-3.06-8.38-6.16-16.75-9.1-25.18-.34-1-.19-2.9.43-3.3,1.53-1,3.35-2.09,5.15.19,4.57,5.78,9.33,11.42,14,17.12a2.73,2.73,0,0,0,1.33,1l-8.56-22.57,5.17-2.17c1,2.82,2,5.33,2.88,7.85,3.12,8.58,6.3,17.15,9.3,25.77.34,1,.14,2.84-.52,3.31-1.42,1-3.15,1.89-4.87-.22C258.13,199.67,252.84,193.55,247.51,187.25Z"/><path class="cls-1" d="M308.53,184.61c0,5.61-2.15,8.59-6.41,9.92s-7.37.4-9.85-3.68a60.78,60.78,0,0,1-8.74-24.74c-.51-4.6,1.69-7.93,5.94-9.46,4.44-1.6,7.51-.75,10.15,3.41A65.17,65.17,0,0,1,308.53,184.61Zm-19.07-19.28c1.8,7.88,4.08,15.07,7.9,21.66.54.93,2.69,1.83,3.48,1.46a3.93,3.93,0,0,0,1.64-3.49q-3.44-10.61-7.55-21c-.34-.87-2.42-1.63-3.53-1.44C290.58,162.68,290,164.44,289.46,165.33Z"/><path class="cls-1" d="M160.71,245.55c-8-12.52-8-12.52-10.74-12.3l4.91,14-4.74,2.08a18.38,18.38,0,0,1-1.18-2.25c-3.81-10.44-7.54-20.9-11.41-31.32-.78-2.09-.69-3.38,1.74-3.86a13.53,13.53,0,0,0,1.46-.54c3.85-1.22,8-3.17,11.42.31a16,16,0,0,1,4.62,14.55,5,5,0,0,0,1.47,5c3.12,3.48,5.6,7.53,8.72,11.85Zm-12.66-17.4c3.77-1.7,3.87-5.23.75-10.83-1.52-2.72-2.58-3-5.19-1.27C145.05,220,146.51,223.94,148.05,228.15Z"/><path class="cls-1" d="M274.17,204.05l-10.28-28.2a46.77,46.77,0,0,1-2.13-6.16,3.19,3.19,0,0,1,1.3-2.71,29.61,29.61,0,0,1,5.84-2.08c3.85-1.08,6.75-.21,9,3.14a48.9,48.9,0,0,1,8.27,23.83c.42,6.12-1.27,8.33-7.08,10.46C277.52,202.9,276,203.42,274.17,204.05ZM268,170.91q4.83,13.16,9.61,26.21l1.33,0c.47-1.21,1.47-2.47,1.34-3.61a58.77,58.77,0,0,0-7.25-21.6C272.08,170.15,270.52,169,268,170.91Z"/><path class="cls-1" d="M216.25,184.08l5.17-2c3.08,8.44,6.06,16.61,9.05,24.79a40.22,40.22,0,0,0,1.51,3.75c1.11,2.31,2.73,3.13,5.32,2s2.27-2.66,1.5-4.74c-3-8-5.86-16-8.76-24-1.73-4.75-1.72-4.76,3.75-6.14.62,1.68,1.26,3.4,1.88,5.12,3.3,9.07,6.53,18.16,9.94,27.18.82,2.18.49,3.57-1.47,4.68-.54.31-1,.69-1.57,1-8.9,5.27-13.64,3.64-17.2-6-2.81-7.59-5.56-15.2-8.31-22.81C216.75,186.11,216.56,185.21,216.25,184.08Z"/><path class="cls-1" d="M137.23,248.3c.06,4.25-1.85,7-5.68,8.32s-6.48.58-9-3.38a63.59,63.59,0,0,1-9.19-25.55c-.61-4.5,1.52-7.51,5.6-8.92,3.87-1.35,6.57-.3,9.24,3.58C132,227.74,137.14,242.73,137.23,248.3Zm-4.83-.75c-2.59-6.84-5.06-13.74-7.87-20.5-.5-1.2-2.38-1.82-3.63-2.71-.54,1.52-1.84,3.24-1.5,4.53,1.37,5.19,3.17,10.28,5,15.34a18.64,18.64,0,0,0,2.72,5.19,3.75,3.75,0,0,0,3.11,1.15C131,250.4,131.44,248.94,132.4,247.55Z"/><path class="cls-1" d="M189.91,234.4c-4.88,3-5,3-7.68-1.37-2.47-4-4.8-4.55-8.84-1.71a3.08,3.08,0,0,0-.84,2.34,17.79,17.79,0,0,0,.7,4.6c.56,1.81-.11,2.69-1.71,3.35-3,1.23-3.56.85-3.91-2.33-1.15-10.62-2.39-21.24-3.58-31.85-.11-1-.47-2.23-.09-3.07a4.78,4.78,0,0,1,2.42-2.27,2.75,2.75,0,0,1,2.52.79C175.93,213.28,182.85,223.76,189.91,234.4Zm-20.55-23.11-.52.21c.94,4.89,1.87,9.79,2.85,14.94l5.1-1.92Z"/><path class="cls-1" d="M120.59,259.57c-4.39,2.82-4.52,2.79-6.78-1l-.64-1.07c-2-3.31-5.23-3.83-8.2-1.22a2.65,2.65,0,0,0-.61,1.89,28.2,28.2,0,0,0,.52,3.38c.69,4.49.68,4.5-4.31,5.45-.55-3.85-1.13-7.7-1.65-11.55q-1.53-11.58-3-23.16a8.72,8.72,0,0,1-.11-3.4,3.38,3.38,0,0,1,2-1.85,2.57,2.57,0,0,1,2.32.64C107,238.22,113.74,248.83,120.59,259.57Zm-12.37-10.1-7.13-12.91-.55.23c.94,4.69,1.88,9.39,2.88,14.44Z"/><path class="cls-1" d="M82.36,267a29.6,29.6,0,0,0,3,0c4.07-.4,5.71-3.16,3.77-6.76a14.62,14.62,0,0,0-3.68-4.13c-2.65-2.17-5.66-3.92-8.19-6.21a16.93,16.93,0,0,1-4.16-5.67c-1.17-2.74-1.16-5.79,1.25-8.11A11.23,11.23,0,0,1,84,232.75c.78.11,1.54,1.71,1.85,2.76.11.35-1.14,1.24-1.89,1.67-.5.28-1.35,0-1.81.28-1.41.94-3.39,1.81-3.84,3.15-.38,1.12.71,3.27,1.8,4.24a76.57,76.57,0,0,0,8.27,6.09,16,16,0,0,1,6.91,9.64c1.59,6.48-1.57,11.19-7.92,11.78C83.36,272.73,82.36,271.74,82.36,267Z"/><path class="cls-1" d="M320.77,145.92c.53,1.72,1,3.05,1.43,4.61-1.38.53-2.53.95-3.65,1.41s-2.05.89-3.37,1.46c1.16,3.16,2.24,6.13,3.39,9.27l6-1.92,1.65,4.52-5.77,2.55,4.46,12.39c1.35-.44,2.41-.76,3.45-1.13,4.05-1.44,4.32-1.26,4.74,3.57L322,186.73a21.05,21.05,0,0,1-1.11-2.24c-3.78-10.33-7.48-20.69-11.33-31-.88-2.34-.69-3.59,2-4.32C314.54,148.32,317.49,147.08,320.77,145.92Z"/><path class="cls-1" d="M352.31,140c-4.77,1.08-5.91,2.38-5.6,7.15a39.61,39.61,0,0,0,6.18,18.08c1.9,3.14,3.27,3.08,8.3.58,3,2.65,2.85,5.07-.48,7.11-4.76,2.89-8.65,2.56-11.39-1.81-5.13-8.18-8.73-17-8.56-26.9a8.5,8.5,0,0,1,6.12-8.47C351,134.34,352.37,135.37,352.31,140Z"/><path class="cls-1" d="M198.65,231.5l-4.86,1.78c-2.73-7.47-5.36-14.65-8-21.83q-1.87-5.12-3.73-10.23c-1.57-4.33-1.51-4.43,3.39-5.88Z"/><path class="cls-1" d="M91.17,225.56c-2-.87-3.44-1.49-2.57-3.8,1.13-3,3.2-5,5.32-4.11,2.67,1.08,4.31.2,5.65-1.94,2.14,1.08,2.6,2.5,1.47,4.4s-2.28,4.3-4.92,3.24S92.21,223.11,91.17,225.56Z"/><path class="cls-1" d="M371,161.94c2,.15,2.64,1.85,2.71,3.85.09,2.57-1.6,3.46-3.81,3.49-2.52,0-3.15-2-3.17-3.83C366.66,163.15,368.19,161.94,371,161.94Z"/><path class="cls-1" d="M340.36,180.57c-3.72-.12-4.36-2.14-4.41-4.07s1.24-3.19,3.35-3.29c2.73-.13,3.53,2,3.4,3.83C342.6,178.43,341,179.71,340.36,180.57Z"/><path class="cls-2" d="M289.46,165.33c.57-.89,1.12-2.65,1.94-2.79,1.11-.19,3.19.57,3.53,1.44q4.11,10.36,7.55,21a3.93,3.93,0,0,1-1.64,3.49c-.79.37-2.94-.53-3.48-1.46C293.54,180.4,291.26,173.21,289.46,165.33Z"/><path class="cls-2" d="M148.05,228.15c-1.54-4.21-3-8.17-4.44-12.1,2.61-1.74,3.67-1.45,5.19,1.27C151.92,222.92,151.82,226.45,148.05,228.15Z"/><path class="cls-2" d="M268,170.91c2.52-1.9,4.08-.76,5,1a58.77,58.77,0,0,1,7.25,21.6c.13,1.14-.87,2.4-1.34,3.61l-1.33,0Q272.83,184,268,170.91Z"/><path class="cls-2" d="M132.4,247.55c-1,1.39-1.45,2.85-2.2,3a3.75,3.75,0,0,1-3.11-1.15,18.64,18.64,0,0,1-2.72-5.19c-1.8-5.06-3.6-10.15-5-15.34-.34-1.29,1-3,1.5-4.53,1.25.89,3.13,1.51,3.63,2.71C127.34,233.81,129.81,240.71,132.4,247.55Z"/><path class="cls-2" d="M169.36,211.29l7.43,13.23-5.1,1.92c-1-5.15-1.91-10.05-2.85-14.94Z"/><path class="cls-2" d="M108.22,249.47l-4.8,1.76c-1-5-1.94-9.75-2.88-14.44l.55-.23Z"/></svg>