<?xml version="1.0" encoding="UTF-8"?>
<svg id="Camada_1" xmlns="http://www.w3.org/2000/svg" version="1.1" xmlns:xlink="http://www.w3.org/1999/xlink" viewBox="0 0 1000 1000">
  <!-- Generator: Adobe Illustrator 29.1.0, SVG Export Plug-In . SVG Version: 2.1.0 Build 142)  -->
  <defs>
    <style>
      .st0 {
        fill: url(#Gradiente_sem_nome_2);
      }

      .st1 {
        fill: #fff;
      }

      .st2 {
        fill: #010101;
      }

      .st3 {
        fill: #b93538;
      }
    </style>
    <linearGradient id="Gradiente_sem_nome_2" data-name="Gradiente sem nome 2" x1="603.54" y1="341.51" x2="631.08" y2="348.65" gradientTransform="translate(0 1002) scale(1 -1)" gradientUnits="userSpaceOnUse">
      <stop offset="0" stop-color="#ce342a"/>
      <stop offset="1" stop-color="#b2384c"/>
    </linearGradient>
  </defs>
  <path class="st2" d="M499.86,11.76l288.37,136.11c41.91,19.62,94.26,46.58,135.81,63.71v107.98c.01,27.36.54,58.91-1.7,85.94-5.53,66.75-20.48,137.23-45.55,199.29-68.26,173.69-204.29,312.12-376.78,383.44-10.96-5.11-21.9-9.21-33.03-14.64-55.01-26.41-106.31-59.95-152.55-99.76-140.49-121.1-226-293.88-237.06-479.01-2.74-43.22-.17-90.41-1.04-133.95-.32-15.67.71-33.54-.41-48.95,27.24-11.77,56.6-26.36,83.66-39.15l155.63-73.53,120.45-56.77c17.52-8.26,47.99-21.69,64.21-30.71Z"/>
  <path class="st1" d="M499.69,54.81c10.81,1.82,69.09,32.05,83.88,39.01l196.27,92.53c34.53,16.28,71.02,34.48,105.89,49.6-.68,50.07,1.52,105.19-1.04,154.68-4.07,70.35-19.44,139.59-45.53,205.06-62.43,152.37-185.35,286.15-338.1,350.19-4.98-.34-25.63-10.63-30.84-13.31-60.77-30.98-116.38-71.19-164.84-119.19-105.12-105.08-171.18-242.92-187.23-390.67-5.48-54.69-3.4-130.22-3.31-186.96,29.56-12.89,58.27-27.13,87.44-40.82l196.78-92.77c32.98-15.58,67.42-32.54,100.63-47.36Z"/>
  <path class="st2" d="M447.5,55.12c6.33,1.41,43.06,19.89,50.74,23.64-8.35,9.97-16.21,22.64-23.95,33.25-19.37,26.53-37.95,56.41-57.8,82.29,12.16-1.44,34.59-1.92,46.73-.89,20.43-13.92,43.23-32.94,63.41-47.92,9.45-7.01,35.43-26.44,42.57-33.62,15.24,7.7,35.65,17.59,51.47,23.94-13.03,7.01-27.58,16.6-40.29,24.56l-66.4,41.41c18.78,4.5,30.34,9.03,47.88,16.73,48.51-13.65,101.75-25.45,150.75-38.53,19.04,9.34,59.12,28.8,77.24,34.73-61.93,11.09-123.32,19.94-185.29,30.82,13.84,8.05,27.15,22.51,38.74,34,13.26,3.75,48.96,8.15,63.63,10.21,36.42,4.96,72.79,10.24,109.12,15.85-.33,15.03-.83,35.7.03,50.45-6.85-1.5-14.78-2.93-21.5-4.78-39.97-11.06-81.6-18.24-121.29-29.85,11.02,17.19,15.08,28.17,21.89,47,22.27,13.68,44.63,27.24,67.07,40.66,14.38,8.68,31.03,19.37,45.58,27.3-2.23,12.9-6.02,36.97-10.94,48.52-26.98-22.47-61.85-43.78-88.8-66.58,1.84,17.9,2.28,35.92,1.32,53.89,5.74,5.76,20.31,26.7,25.45,33.88,12.92,18.03,26.64,36.13,39.32,54.26-1.32,8.25-15.76,37.02-20.16,45.81-4.1-12.61-11.67-23.85-18.25-35.34-10.86-18.98-22.27-37.52-32.2-57.04l25.19,140.83c-8.25,15.94-27.66,43.54-38.29,57.73-63.04,84.54-146.47,151.75-242.5,195.37-70.52-33.62-125.02-70.08-181.48-125.75-100.37-98.97-165.95-234.36-181.8-374.4-5.93-52.42-3.8-124.46-3.92-179.15l220.97-104.34c46.98-22.17,99.74-45.54,145.76-68.93Z"/>
  <g>
    <path class="st1" d="M284.95,385.03l46.13.25c-35.35,66.78-26.59,151.23,21.37,209.22,4.76,5.76,9.84,11.37,14.78,16.98,24.22-33.49,47.48-67.82,71.42-101.52,3.5-4.93,6.66-9.37,9.51-14.69,17.25-.15,34.49-.14,51.73.04-11.55,14.12-33.07,47.1-44.36,63.28-26.55,37.57-52.87,75.3-78.96,113.19-10.38-7.58-20.98-15.35-30.6-23.88-62.59-55.53-88.47-135.36-74.25-217.12,3.43-15.51,7.85-30.79,13.22-45.74Z"/>
    <path class="st1" d="M529.47,453.39c33.51-.37,67.02-.39,100.53-.05,2.88,40.95-3.19,74.17-31.21,106.33-17.94,20.46-41.67,34.99-68.06,41.67-29.07,5.37-53.82,4.22-81.47-6.62,8.97-11.21,17.22-22.97,24.7-35.21,55.15,12.06,94.77-12.11,113.27-64.62-28.76.92-59.04-.72-87.34.41,10.25-13.6,19.47-28.12,29.58-41.91Z"/>
    <path class="st1" d="M493.68,343.66c19.11-1.92,37.47,3.29,55.46,8.67-8.96,11.71-17.38,23.84-25.22,36.33-69.94-21.84-135.94,52.76-104.76,121.39l-8.36,11.32c-6.09,9.18-12.43,18.19-19,27.03-10.78-20.36-19.77-38.23-21.8-61.95-3.22-35.04,7.67-69.92,30.27-96.9,24.81-29.44,55.7-42.8,93.42-45.9Z"/>
  </g>
  <path class="st1" d="M580.83,371.55c2.94,3,8.21,14.16,10.36,18.39,7.24,1.29,13.19,2.23,20.5,3-5.2,4.13-11.08,9.6-16.12,14.06,1.64,5.28,3.02,13.75,4.72,20.02-6.12-3.18-12.15-6.53-18.08-10.06-7.01,3.55-11.88,6.35-18.54,10.52,1.61-7.07,2.86-13.96,4.17-21.08-5.27-4.24-10.65-9.13-16.06-13.54,6.76-.61,14.09-1.84,20.86-2.83,3.18-6.51,5.52-11.74,8.2-18.47Z"/>
  <g>
    <path class="st3" d="M493.92,254.75c3.05-7.39,8.69-18.31,18.42-13.85,10.79,4.95,17.75,26.99,21.87,37.69l9.68-10.28c-3.2-6.72-9.48-17.81-8.06-24.92l2.37-.53c7.63,6.08,8.61,8.42,13.7,16.83,25.7-33.23,29.7,19.64,31.58,35.51,4.81-3.76,6.93-5.41,12.24-8.37-1.15-6.44-4.11-19.19-2.96-24.92l1.51-.98c8.7,3.8,9,13.38,9.4,21.63,5.73-4.74,7.75-6.11,14.21-9.78l12.51,7.26c-.06,14.45-1.19,27.03-2.29,41.35l13.18-2.64c.59-9.92,1.32-19.82,2.2-29.72l8.37,8.99c-.85,6.58-1.23,10.63-1.33,17.25,14.56-6.07,16.36-5.68,26.69,6.21-4.15,11.22-11.71,29.49-14.91,40.4,4.81-.91,10.13-1.8,14.86-2.86,2.95-8.72,6.33-18.15,9.02-26.87,1.94,3.68,4.48,8.21,6.08,11.96-2.43,6.42-3.81,9.51-7.05,15.57,7.57-.51,11.33-.39,18.95.14,1.64,4.19,3.73,9.18,5.15,13.37-7.17,12.1-15.58,22.8-23.11,34.59l12.95,2.54c3.8-5.11,11.74-16.82,16.29-20.03l2.02.09c3.75,7.88-3.92,16.51-8.6,22.55l17.23,2.78c.89,4.77,1.8,10.38,3.02,15-11.24,10.38-20.71,17.41-32.69,26.78,4.42,2.57,7.78,5.1,12.78,5.59,7.9-2.42,15.87-15.95,22.4-14.15,3.08,8.66-7.52,15.51-14.03,20.04,5.54,2.62,10.11,4.91,15.46,7.88l.15,14.75c-11.9,6.14-29.58,13.28-39.68,19.29,3.49,2.56,7.75,5.53,11.04,8.21,9.73-4.12,18.36-7.96,27.61-13.19-4.98,14.18-6.56,14.24-20.38,19.43,5.69,4.48,7.38,6.04,12.18,11.45-1.2,4.97-2.27,9.95-3.96,14.77-4.99,1.16-39.49,7.2-40.48,8,.58,7.68,9.61,10.89,16.07,9.81,4.16-.69,13.52-3.54,16.79-2.45,1.11,10.84-13.35,10.91-20.87,13.24,3.51,4.8,5.98,8.32,9.02,13.41-3.08,5.23-4.92,9.85-11.05,11.26-10.34,2.39-28.27-.53-39.23-1.88l5.58,13.12c10.15,1.39,18.39,1.89,28.62,2.46-3.36,2.72-7.14,5.94-10.54,8.51-5.16-.73-10.49-1.59-15.67-1.92l3.65,16.91c-1.89,1.75-6.71,5.98-7.98,7.84-4.81,3.11-35.49-9.56-42.35-11.96-1.74-.68-6.67.6-8.66,1.03.68-7.17,3.48-7.16,9.68-10.32l16.87,6.17c1.05-6.06-7.35-12.99.1-21.12l2.03-.41c-.18-.24,7.59,22.98,8.84,25.87,3.78,1.41,8.25,3.28,12.14,4.01l1.04-.97c3.57-17.52-36.63-52.26,14.05-46.08-3.39-4.61-10.96-14.16-7.59-19.86,7.4.63,14.6,14.64,18.23,20.6,5.26.24,11.83,1.13,17.17,1.71-7.04-8.33-20.25-25.1-22.97-35.2-3.66-13.56,12.99-15.26,21.56-16.33-4.67-3.15-9.39-5.49-12-10.21-.31-3.92-.86-3.44.61-6.48,5.76-.32,16.09,12.01,22.26,15.9l13.62-2.77c-5.6-6.22-12.28-11.71-18.61-17.16-18.34-15.83-17.09-23.28,5.6-30.62-6.7-4.22-16.32-6.97-14.09-15.84l1.8-.9c3.47.96,17.68,8.93,22.56,11.35,4.57-2.36,9.68-3.99,14.55-5.71-9.56-6.79-20.2-9.95-30.38-15.51-18.73-10.24-4.63-20.26,5.39-28.31-6.37-.78-18.53-1.24-19.21-9.48,4.12-2.56,20.27,1.52,26.77,2.29,4.28-3.34,8.54-6.71,12.77-10.11-25.9-5.74-63.53-.58-36.72-33.92-5.22.06-17.32.42-20.92-3.77l1.13-1.68c8.45-4.06,15.82-3.69,25.09-4.18,3.6-4.22,7.27-8.38,10.99-12.49-4.84.22-10.11.61-14.9.97-24.74,1.83-47.62,5.61-28.28-27.02-6.3,2.9-10.71,4.44-17.32,6.66-3.15-2.15-6.53-4.76-9.64-7.05,9.28-2.1,18.67-5.33,27.76-8.25,3.21-5.27,4.71-9.07,7.1-14.79-13.72,3.41-29.57,9.14-42.97,13.8-16.26-10.51-2.39-15.95-8.49-24.73-4.35,1.93-8.15,4.33-12.22,6.78-4.37.12-3.09.65-6.63-1.2l-.27-1.84c1.54-2.74,16.89-12.65,21.66-16.32,1.01-5.42,1.98-10.84,2.88-16.28-12.93,8.71-26.06,16.83-39.03,25.65l-9.01-6.05c-1.02-6.42-1.36-11.11-1.75-17.62-4.63,4.09-12.87,12.63-19.5,11.59-.12-6.24,12.53-18.02,17.2-22.88-1.08-5.25-1.76-11.45-2.48-16.84-6.58,7.62-14.42,16.35-20.5,24.24-16.28,21.13-21.69,6.05-28.53-10.83-2.37,5.81-7.63,19.12-14.77,18.54l-1.23-1.81c.82-5.13,8.12-19.35,10.82-25.15-1.77-4.54-3.41-10.61-4.82-15.39-3.99,6.94-8.33,14.84-11.62,22.08-11.08,24.4-16.79,27.66-32.57,4.91-3.22,10.32-1.86,11.2-7.98,20.74l-2.23.21c-2.6-6.26,1.02-21.55,2.19-28.39-3.03-5.85-3.71-6.77-8.2-11.61l-1.62-3.38c4.04-.63,7.14-1.42,10.33,1.28,9.82,8.33,14.76,17.87,24.45,27.34,2.6-4.28,4.07-6.79,7.29-10.66-4.14-4.57-13.5-14.02-15.73-18.87l.27-2.02c8.35-4.1,14.63,5.89,19.04,11.53Z"/>
    <path class="st3" d="M385.49,287.03c-1.6-8.96-3.78-13.6,4.92-18.79l.94,1.78c1.71,8.5,4.17,39.67,1.76,47.45-6.34,3.85-17.89-1.73-24.18-4.24,1.2,6.17,3.78,16.99,1.38,22.6l-1.62,1.18c-10.65-3.87.28-23.37-23.52-32.87-.91-.36-1.82-.72-2.74-1.07,3.56,10.01,13.53,38.47,12.86,47.7l-.93,1.63c-5.52,1.42-18.74.26-25.09.02,3.4,4.23,10.72,11.81,10.27,16.52-8.81,3.51-13.57-11.17-18.87-15.46-4.83-3.9-9.66-3.51-15.55-3.61l-2.01-.61c1.67-3.15,1.98-3.56,4.55-6.03,6.37-2.56,30.47.71,39.87,1.24-1.72-4.22-3.11-8.96-4.51-13.33-4.81-.1-20.82-.28-24.01-2.35l-.31-2.54c3.81-5.93,16.3-3.25,20.5-4.17.99-3.41-1.69-8.22-2.52-12.27.96-3.95,11.52-13.21,14.21-12.32,11.65,3.87,24.08,8.76,35.89,12.38l-1.72-13.87c-5.07-2.16-20.74-6.05-21.68-10.78,6.25-5.7,15.3-.8,22.1,1.79Z"/>
    <path class="st3" d="M583.75,664.46c-.28-5.47-2.86-20.28,4.38-22.54,4.57,4.18,3.44,18.4,3.99,26.26,3.34,3.23,8.32,8.5,12.27,10.37l1.82-1.42,1.82,3.91c-12.88,7.35-30.61-11.74-42.89-19.82-.69,4.11-1.61,7.75-2.6,11.78-.56,1.92-2.36,9.32-2.18,10.97l-1.32,5.76c-7.85,34.7-35.95-7.44-44.62-18.05l-6.34,13.01c4.86,5.16,14.94,14.67,14.93,21.75l-2.13,1.18c-7.37-1.93-12.34-9.36-16.45-15.07-3.52,6.37-5.5,10.85-11.13,15.68l-1.59-.51c-1.61-9.87,11.96-33.78,17.69-42.02,6.3-9.07,19.22,9.08,22.22,12.88,1.95-8.2,2.4-12.59,7.83-19.13l2.06.04c3.58,6.6-.87,19.75-2.87,27.11l10.93,13.48c1.98-10.92,4.16-44.35,15.66-47.29,5.3.57,13.86,8.09,18.53,11.67Z"/>
    <path class="st3" d="M416.83,644.81c7.36,1.76,7.57,16.58,7.88,22.61,4.69-4.11,9.34-10.36,14.6-13.15,2.85.67,2.71.52,4.65,2.68-.25,7.52-12.42,14.2-16.16,20.93-2.54,4.58-1.17,10.95,3.12,13.41,5.39-1.77,21.9-25.56,28.7-28.94,10.83-5.38,15.01,12.04,17.77,19.43,2.68-6.17,6.75-16.35,13.57-18.25l1.87,1.07c1.57,4.82-7.19,18.07-10.24,24.23.23,5.96,5.35,11.87,4.41,17.59-2.78,1.39-1.28,1.13-4.71.27-6.12-5.44-15.55-28.73-19.48-37.43-2.68,3.1-6.46,6.44-9.5,9.3,2.75,8.3,9.06,17.74,10.45,24.05l-1.36,1.15c-10.79-.29-11.59-7.66-15.17-16.57-3.88,4.72-7,7.29-11.63,11.32-4.24-1.74-9.02-3.41-13.36-5.01-5.26-12.51-5.4-24.41-8.4-37.33-.54-.41-1.07-.81-1.61-1.21-1.75.41-3.48.7-5.27.89,1.09-4.76,6.03-8.29,9.86-11.03Z"/>
    <path class="st3" d="M437.52,263.55c1.61-9.78,1.3-12.81,10.75-17.38l1.62,3.38c-12.97,19.5,2.58,64.74-36.22,34.39.41,7.12,1.92,16.14-2.03,21.81l-2.63,1.29c-4.87-2.04-4.07-23.18-4.49-29.14-3.71-3.08-8.31-7.59-13.17-7.87l-.94-1.78c14.48-6.71,30.03,9.64,41.64,18.26.57-2.3,2.74-10.82,1.97-12.14-3.61-6.17-14.81-9.97-18.62-16.83l.53-1.64c7.93-3.38,15.41,3.27,21.6,7.65Z"/>
    <path class="st0" d="M602.87,638.95c1.99-.43,6.92-1.71,8.66-1.03.12,3.44.16,9.4.67,12.61,5.74,2.56,19.25,7.75,23.2,11.09l.4,1.88c-6.45,5.58-16.73.52-23.22-2.83.77,7.95,3.24,15.82-4.55,20.35l-1.82-3.91c-1.51-9.32-1.04-31.99-3.33-38.17Z"/>
    <path class="st3" d="M560.36,683.97c-.18-1.65,1.62-9.05,2.18-10.97,2.1,6.24,16.34,11.08,21.03,16.65-1.51,3.63-.33,2.26-3.59,4.32-9.43.52-13.23-5.58-19.62-10Z"/>
    <path class="st3" d="M303.12,349.29l2.01.61c1.84,6.75,9.14,13.55,9.16,17.83l-2.11.94c-10.7-1.29-14.84-10.21-9.06-19.38Z"/>
    <path class="st3" d="M399.66,664.79l2.14.81c3.16,3.05,4.92,18.41,2.86,22.1-10.69-7.79-9.69-11.04-5-22.91Z"/>
  </g>
</svg>