<?xml version="1.0" encoding="UTF-8"?>
<svg id="Camada_1" xmlns="http://www.w3.org/2000/svg" xmlns:xlink="http://www.w3.org/1999/xlink" version="1.1" viewBox="0 0 400 400">
  <!-- Generator: Adobe Illustrator 29.2.0, SVG Export Plug-In . SVG Version: 2.1.0 Build 108)  -->
  <defs>
    <style>
      .st0 {
        fill: #edfefc;
      }

      .st1 {
        fill: #fff;
      }

      .st2 {
        fill: #0b6f47;
      }

      .st3 {
        fill: #afecd2;
      }
    </style>
  </defs>
  <path class="st2" d="M343,67.3c-1.9-18.8-4.6-37.6-8.2-56.2-11.8,4.7-23.7,8.9-35.8,12.6-59,17.7-117,20.2-176.8,5.7-19.3-4.7-38.4-10.7-56.8-18.2-.2,0-.4-.2-.5-.3-4.1,22.8-7.3,43.7-9.2,66.9-6.2,77.9,6,156.9,51.4,222.2,20.5,29.5,45.8,55.3,74.8,76.4,3.7,2.7,14.1,10.4,18,12.4,3.1-1.8,6.5-4.3,9.5-6.4,7.4-5.2,14.7-10.7,21.7-16.4,50.9-41.4,86.1-93,102.9-156.7,3.9-15.1,6.8-30.4,8.7-45.9.7-6.1,1.3-12.1,1.7-18.2.2-3.1.8-20.2,1.5-21.9v-13.7c-.7-1.9-1.3-20.9-1.4-24.2-.3-6.1-.8-12.1-1.4-18.2ZM280.9,307.1c-16.3,21.5-35.3,40.8-56.5,57.5-8.1,6.4-16,12-24.4,17.9-29.9-19.7-56.5-44-78.7-72.2-50.3-65.1-66.1-143.8-60.6-224.6,1-14.2,2.5-28.4,4.4-42.5,1.2-8.1,2.8-16.5,3.8-24.5,14.7,5.1,26.2,9.4,41.4,13.5,76.1,20.6,146.8,14.5,220.2-13.5.4,3.3,1.2,7.5,1.8,10.8.9,5.5,1.8,11.1,2.6,16.7,12.9,91.6,3.1,185-54,260.8Z"/>
  <path class="st1" d="M332.3,29.5c-.6-3.3-1.5-7.5-1.8-10.8-73.4,27.9-144.1,34-220.2,13.5-15.3-4.1-26.7-8.3-41.4-13.5-1,8-2.7,16.4-3.8,24.5-2,14.1-3.5,28.3-4.4,42.5-5.5,80.8,10.3,159.5,60.6,224.6,22.2,28.1,48.8,52.5,78.7,72.2,8.4-5.9,16.3-11.5,24.4-17.9,21.2-16.7,40.2-36,56.5-57.5,57.2-75.9,66.9-169.2,54-260.8-.8-5.6-1.6-11.1-2.6-16.7ZM303.4,251.5c-8.2,17.7-16.9,31.8-28.3,47.4-21,27.2-46.4,50.7-75.1,69.4-4.3-2.2-13.6-9.3-17.6-12.3-25.9-19.6-48.7-42.8-66.7-69.8-36.1-54.2-48-118.3-44.7-182.6,1.1-22.2,3.9-49.1,8.5-71.1,3.9,1.1,11.4,4.2,15.6,5.6,10.4,3.6,21,6.7,31.7,9.3,64.5,15.8,132.3,10.5,193.5-15.3.3,2.5,1,5.9,1.4,8.5.8,4.8,1.6,9.6,2.3,14.4,10,64.8,7.3,136.2-20.6,196.4Z"/>
  <path class="st2" d="M321.7,40.6c-.4-2.5-1.2-6-1.4-8.5-61.2,25.7-129,31.1-193.5,15.3-10.7-2.7-21.3-5.8-31.7-9.3-4.2-1.5-11.7-4.6-15.6-5.6-4.6,22.1-7.4,48.9-8.5,71.1-3.3,64.3,8.6,128.4,44.7,182.6,18,27,40.8,50.2,66.7,69.8,4,3,13.3,10.1,17.6,12.3,28.8-18.8,54.2-42.2,75.1-69.4,11.4-15.6,20.1-29.7,28.3-47.4,27.9-60.2,30.5-131.6,20.6-196.4-.7-4.8-1.5-9.6-2.3-14.4ZM92.5,50.4c69.2,26,145.5,26,214.7,0,.1,1.1.3,2.1.5,3.2,1.2,7.3,2.6,14.5,3.6,21.8,2.3,17,3.5,34.1,3.8,51.2l-3.8-1c-67-18.4-140.5-22.9-208.1-5.1-6.3,1.6-12.5,3.7-18.7,5.7.6-27.8,3.2-48.5,7.9-75.9ZM315.1,138.8c-.8,53.8-15.4,105.9-48.1,149.1-9.1,12.1-17.7,21.3-28.6,31.9-.2-12-.3-24.1-.1-36.1v-8.7c0,0-4.3,0-4.3,0-.1-8.7,0-17.6,0-26.3-6.1,9-12.9,11.4-22.7,14.5-1.3,3-2.8,7.7-3.6,10.9-5.8,0-11.5,0-17.3,0-.4-2.8-2.1-7.1-3.1-9.9-2.7-.6-6-.9-8.9-1.5-4.9-1-8.2-2.4-12.7-4.2-.2,5.2-.2,11.5,0,16.8h-4.1c-.3,14.6,0,29.9,0,44.6-2.9-3.3-7-7-10.2-10.3-5.6-5.8-10.9-11.9-15.8-18.2-31-39.8-46.4-85.8-50-135.8-.5-7.5-.7-15.9-.8-23.5,2.6-.7,6.5-2.1,9.2-2.9,4.5-1.4,9-2.7,13.6-3.8,17-4.3,34.2-7.3,51.7-8.8.9-.1,1.4-.3,2.2,0,.3,2.7.1,15.9.2,19.3l7.5-.3c.4,3.2,2.1,8.5,3,11.8,1.5,5.1,3,10.2,4.4,15.3,13.8-9.9,35.3-9.2,51-5.5,2.2-6.8,5.2-14.7,7-21.5h4c.2-5.4.3-12.7,0-18.1,19.6,2.1,39.1,5.5,58.2,10.1,6.3,1.5,12.4,3.3,18.7,4.9,0,2.1,0,4.3,0,6.4Z"/>
  <path class="st1" d="M238.3,117.4c.2,5.5,0,12.8,0,18.2h-4c-1.9,6.7-4.8,14.6-7,21.4-15.7-3.7-37.2-4.4-51,5.5-1.4-5.1-2.9-10.2-4.4-15.3-.9-3.2-2.6-8.6-3-11.8l-7.5.3c0-3.4.2-16.6-.2-19.3-.8-.4-1.3-.2-2.2,0-17.4,1.5-34.7,4.5-51.7,8.8-4.6,1.2-9.1,2.4-13.6,3.8-2.7.8-6.6,2.2-9.2,2.9.1,7.5.3,15.9.8,23.5,3.6,50,19,96,50,135.8,4.9,6.4,10.2,12.4,15.8,18.2,3.2,3.3,7.2,7,10.2,10.3,0-14.7-.2-29.9,0-44.6h4.1c-.2-5.2-.2-11.5,0-16.7,4.5,1.8,7.9,3.2,12.7,4.2,2.9.6,6.2.9,8.9,1.5,1,2.8,2.7,7.1,3.1,9.9,5.8,0,11.5,0,17.3,0,.9-3.2,2.3-7.9,3.6-10.9,9.8-3.1,16.6-5.6,22.7-14.5,0,8.7,0,17.6,0,26.3h4.3s0,8.6,0,8.6c-.1,12,0,24.1.1,36.1,10.9-10.6,19.5-19.8,28.6-31.9,32.7-43.2,47.2-95.4,48.1-149.1,0-2.1,0-4.3,0-6.4-6.3-1.6-12.4-3.4-18.7-4.9-19.2-4.6-38.6-8-58.2-10.1ZM165,177.9c-1.1-4.1-2.3-8.2-3.7-12.2-.2,7.3.2,17,.2,24.7v58.9s0,22.4,0,22.4h-11c.6-43.8-.2-88.4,0-132.3h15.2c.9,4.3,2.6,9.5,3.7,13.8.9,3.3,2.2,8.4,3.4,11.4-4.6,5.5-5.7,6.6-7.9,13.5ZM167.7,255.4v-13.6c5.8,3.8,9,4.5,15.1,6.9,1.3,4,2.5,7.6,3.6,11.7-6.9-1.1-12.3-2.2-18.7-4.9ZM222.1,232.4c.3,2.2.9,4.4,1,6.6-28.4,7.7-55.8-3.7-51.3-36.8,1,.5,6.7,5.5,8.3,6.7,0,24.3,22.6,28.8,42,23.5ZM183.6,211.2c1.9.5,2.8,1.1,3.6,3.1,1.5,4,2.6,8.4,3.7,12.5-4.2-2.5-7.4-10.7-7.3-15.6ZM205.2,231.7c.7-2.8,1.7-5.7,2.5-8.5,4.1,1.8,6.2,4,8.6,7.6l-3,.7c-2.4.3-5.8.3-8.2.2ZM208.3,260.6c-1.1,3.5-2.2,6.9-3.2,10.4-3.7.2-8.6.1-12.4,0-1.9-5.3-3.5-11.6-5.1-17-1.5-5.2-3.5-10.9-4.8-16,5,2,6.9,3.9,13.1,5.1.6,2.8,1.1,4.1,2.4,6.5,1.3-1.9,1.8-3.5,2.6-5.6,3.9,0,9.3,0,13-.2-1.9,5.7-3.8,11-5.7,16.8ZM229.3,248.3c-4.6,6-10.5,8.3-17.3,10.7,1.3-4.6,3.4-10.4,5-15,2.4-1.1,7.1-2.1,9.8-2.8-.8-3.7-1.5-8.3-2.2-12.1-1.9.3-3.2.5-5.2,1.1-4.2-9.3-19-14-27.6-18.4-5.3-2.5-10-5.2-14.7-8.6-10.2-7.5-12.5-22-4.4-32,6.9-8.6,17-11.2,27.7-12.4,9.1-1.1,19.8.8,28.5,3.4,0,4.2,0,8.4.2,12.6-2.4-.9-4.8-2.2-7.4-3-7.6-2.5-16.1-3.4-24-2.2-8.6,1.2-18.5,6.9-16.3,17.1,2.3,10.7,16.8,14.5,25.4,18.9,10.8,5.5,23.8,11.5,26.4,24.7,1.3,6.5-.3,12.7-4,18.1ZM249.5,186.3v85.4s-11.2,0-11.2,0l.6-63.7c.2-9.1.3-18.1.3-27.2,0-4.5.2-10,0-14.4-.4,1.5-.8,2.9-1.2,4.3-2.9,9.5-6.5,19.2-9.5,28.6-1.3,4-3.3,9.1-4.1,13.1-3.1-2.3-7.5-5-11-6.6.9-1.9,2.2-6.1,2.9-8.2,1.5-4.5,3-9,4.4-13.5-13.9-3.7-23.2-1.8-34.8,6.5-4.6-9.8-.3-12.8,9.1-15.8,8.8-2.9,20.1-1.9,28.8.9,2.9,1,6.4,2.8,9.1,4.3v-.2c-.5-6.3.3-14.5-.3-20.7,0-.1-.5-.9-.4-1.4,1.3-6,3.6-12.7,5.3-18.6,3.1.2,8.8,0,12.1,0,.2,15.5,0,31.4,0,47Z"/>
  <path class="st2" d="M237.4,139.3c-1.7,5.8-4,12.6-5.3,18.6-.1.5.4,1.2.4,1.4.6,6.3-.2,14.5.3,20.7v.2c-2.8-1.5-6.2-3.4-9.1-4.3-8.7-2.8-20-3.8-28.8-.9-9.3,3-13.6,6.1-9.1,15.8,11.5-8.4,20.8-10.2,34.8-6.5-1.4,4.5-2.9,9-4.4,13.5-.7,2.1-2,6.3-2.9,8.2,3.5,1.6,7.9,4.3,11,6.6.8-4,2.8-9.1,4.1-13.1,3-9.5,6.6-19.2,9.5-28.6.4-1.5.8-2.8,1.2-4.3.2,4.4,0,9.9,0,14.4,0,9.1-.1,18.1-.3,27.2l-.6,63.7h11.2s0-85.4,0-85.4c0-15.5.2-31.4,0-47-3.3,0-9,.2-12.1,0Z"/>
  <path class="st2" d="M206.9,205.5c-8.6-4.4-23.1-8.2-25.4-18.9-2.2-10.2,7.7-15.9,16.3-17.1,7.9-1.2,16.4-.3,24,2.2,2.6.9,5,2.2,7.4,3-.1-4.2-.2-8.4-.2-12.6-8.7-2.6-19.4-4.5-28.5-3.4-10.6,1.2-20.8,3.8-27.7,12.4-8,10.1-5.7,24.5,4.4,32,4.7,3.5,9.4,6.2,14.7,8.6,8.6,4.3,23.4,9.1,27.6,18.4,1.9-.5,3.2-.8,5.2-1.1.7,3.8,1.4,8.4,2.2,12.1-2.7.7-7.4,1.6-9.8,2.8-1.6,4.6-3.7,10.4-5,15,6.9-2.3,12.7-4.6,17.3-10.7,3.7-5.4,5.2-11.6,4-18.1-2.6-13.2-15.6-19.2-26.4-24.7Z"/>
  <path class="st2" d="M169.5,153.1c-1.2-4.3-2.8-9.4-3.7-13.7h-15.2c-.3,43.9.6,88.5,0,132.3h11v-22.4s0-58.9,0-58.9c0-7.6-.4-17.4-.2-24.7,1.4,4,2.7,8.1,3.7,12.2,2.3-6.8,3.3-8,7.9-13.5-1.2-3-2.5-8.1-3.4-11.4Z"/>
  <path class="st2" d="M201,244.1c-.8,2.1-1.3,3.7-2.6,5.6-1.3-2.4-1.8-3.7-2.4-6.5-6.2-1.3-8.1-3.2-13.1-5.1,1.3,5.1,3.2,10.8,4.8,16,1.6,5.4,3.2,11.7,5.1,17,3.7,0,8.7.2,12.4,0,1-3.5,2.1-6.9,3.2-10.4,1.9-5.7,3.8-11.1,5.7-16.8-3.7.3-9.2.2-13,.2Z"/>
  <path class="st2" d="M171.8,202.2c-4.5,33.1,22.9,44.5,51.3,36.8,0-2.2-.6-4.4-1-6.6-19.4,5.3-42,.8-42-23.5-1.7-1.2-7.4-6.2-8.3-6.7Z"/>
  <path class="st2" d="M167.8,241.7v13.6c6.4,2.8,11.7,3.8,18.6,4.9-1.1-4.1-2.3-7.7-3.6-11.7-6.1-2.4-9.3-3.1-15-6.9Z"/>
  <path class="st2" d="M213.4,231.5l3-.7c-2.4-3.6-4.5-5.8-8.6-7.6-.8,2.8-1.8,5.7-2.5,8.5,2.4,0,5.8.2,8.2-.2Z"/>
  <path class="st2" d="M190.9,226.8c-1.1-4.1-2.2-8.5-3.7-12.5-.7-2-1.7-2.5-3.6-3.1-.1,4.9,3.1,13.1,7.3,15.6Z"/>
  <path class="st1" d="M311.3,125.7l3.8,1c-.3-17.1-1.6-34.2-3.8-51.2-1-7.3-2.4-14.6-3.6-21.8-.2-1.1-.4-2.1-.5-3.2-69.2,26-145.5,26-214.7,0-4.8,27.4-7.3,48-7.9,75.9,6.2-2,12.4-4,18.7-5.7,67.6-17.8,141.1-13.3,208.1,5.1ZM295.9,80.8c.2-4.1,0-9.5-.2-13.6,2.6-.8,5.4-1.3,8.1-1.7.5.4.4,7.2.5,8.4-1.8.3-3.3.4-5.2.6.1,3.2.1,6.8.2,10.1h4.3c.3,2.4.2,5.9.2,8.4-1.8,0-2.7,0-4.4-.3-.2,3.6,0,7.6-.1,11.3l5.4.4c0,2,0,4.6,0,6.7,0,.9,0,1.2-.3,2-1.2,0-6.4-1.5-8.5-1.8,1-9.5-.2-20.9.2-30.5ZM289,68.6c0,0,.1,0,.2,0,.8,0,1.6.8,2.1,1.4,4.3,5-.7,17.2-.6,17.6.3.8,1.4,1.7,1.8,2.6,1.2,3.2,1.1,7.9.9,11.3-.2,3.1-.8,6.3-3.3,8.4-1.7.1-5.2-.6-7.2-.8-.3-12.9-.2-26.4-.2-39.3,2.3-.5,4-.9,6.3-1.1ZM267.8,80.5c0-2.7,0-5.4,0-8.2l3.2-.3c0,6.6,0,13.3.1,19.9,0,2.7,0,7.1,2.1,9.1,1,.3.6.3,1.5,0,3.8-3.4-.3-28.5,2.5-30.4.9,0,1.3-.1,2.2.1.9,4.5-.3,13.1.2,18.1.3,3.3.1,19.9-5.1,19.5-8.5-.7-6.8-21.1-6.8-27.7ZM257.7,73.9c1,0,1.9-.2,2.9,0,.7,2.5.2,22.1.2,26.1,1.8,0,3.7.2,5.5.3-.2,1.6,0,4.4-.1,6l-8.5-1v-20.2c0-3.4-.3-8.1,0-11.3ZM251.6,74.4c1.2,0,2.4-.3,3,1,.8,1.7.7,3.2.3,5-.6.6-1.9,0-3.3,0-1,0-1.9.5-2.5,1.2-2.9,3.5-2.1,14.7,1.4,17.8,1.9,1.7,3.5-1.2,4.4-1.3.3.9.2,3.7.2,4.8,0,4.3-8.2,3.2-10-3.9-1.8-7.4-2.5-22,6.5-24.6ZM236.4,77.1c.4-.1.2,0,.7,0,.3,1,.1,3.4,0,4.6l-4.1.4c0,2.7.5,20.2-.2,21.2-1.2.2-1.4.2-2.6,0-.5-.8-.3-1.1-.3-2.1,0-6.3,0-12.7,0-19-1.3.2-2.9.3-4.1.3v-4.6c3.5-.4,7.1-.7,10.6-.9ZM214,78.7c6.9-.2,11.4-1,9.8,8.6-.3,1.9-1.3,3.1-2.3,4.7,1.2,1.9,4,8.6,4.1,10.7l-.5.4c-1.1.1-1.3.2-2.4,0-.9-.8-.8-1.1-1.3-2.5-.4-1.5-1.8-7.8-3.7-7.4-1.2,1.8-.2,7-.7,9.6-.7.4-2.2.4-2.9-.2-.5-6.3-.2-17.3-.1-23.8ZM203.8,78.7c3.4,0,5.8,2.1,6.7,5.3,1.7,6.1,1.9,16.9-5.3,19.2-3-.2-5.2-1.6-6.3-4.5-2.5-6.6-2.7-16.9,4.8-20.1ZM185.9,78.7c2.7.4,8.1-.3,9.5,3.1,1.6,3.9,1.5,10-3,12-1.1.5-2.2.5-3.2,1v.7c0,1.7.3,6.2-.5,7.3-1,0-1.7.2-2.5-.2-.5-1.6-.3-21.3-.2-23.8ZM177.2,78.1c2.1-.3,3.4,0,5.4.5,0,1.7,0,3.3.1,5-1.8-1-4.7-2-6.1,0-.2,3.9,6,5.2,6.6,9.6.7,4.7.5,8.7-4.8,10.1-6-.1-4.4-2-4.8-7,1.5,1.5,4.6,3.9,6.4,1.5.5-2.5-.9-3.8-2.6-5.3-4.3-3.7-6.6-10.9-.3-14.2ZM148.7,87.9c.2-5.5.9-10.4,6.4-12.9,1.5.5,3,.9,4.4,1.4.6,0,1.7-.2,2.2,0,1.6.3,3.4.7,5,.9,0,3.7-1.3,3.5-1.3,7.1,0,3.6-.2,8,.3,11.5.4,2.6,1,4.3,1.2,7.1l-5.8.3c0-3.3.8-4.5,1-7,.2-2.4.5-13.6-.6-15.2-.9-.2-1-.2-1.8.1l-.2.5c-.8.4-2.1-.9-2.9-1-6.4-1.1-6.3,17.1-.6,17.7,1.5.2,2.7-.9,3.9-1.8-.2,2,.3,6.2-1.9,7-8.9,3-9.7-10-9.5-15.7ZM137,73.6c4.1,2.9,3.2,10,1.9,14.2-.2.6-1.8,2.1-1.6,2.7,1.8,4.5,2.9,9,4.3,13.7,1-1.2,1.7-10.7,1.6-12.6-.2-4,.1-8.5-.7-12.4-.4-1.2-1.1-3.1-.7-4.3,1.5-1.5,3.6-.7,5.5-.3,0,1.3,0,3.6-.4,4.7-2.2,3.5.6,20.4.8,25-2.1.2-4.1.3-6.2.5-1.1.2-2.3.4-3.4.6-.3-2.3-2.2-10.2-3.6-12.3-.3-.5-.6-.4-1.1-.5-.8,1.2-.4,10.9-.3,13.2-1.1,0-2.3,0-3.4.2.4-3.1.1-9.7,0-13-.1-7.2-.2-14.4-.2-21.6,2.4.6,5.3.8,7.4,2.3ZM114.6,68.5c.9.2,2.2.4,3.2.5-.2,4.6-.7,28.2,2.1,31.3.4.5.6.4,1.1.5,3.4-1.9,2.3-13.5,2.3-17.2-.1-4.4-.1-8.9,0-13.3l3.2.5c0,2.1,0,4.4,0,6.4.2,7.2,1.7,23.6-2.9,29.5-.6.8-1.5,1.4-2.5,1.5-1.1,0-2.2-.3-2.9-1.1-4.4-4.3-3.4-31.5-3.4-38.6ZM100,91.1c-2.4.9-1.3,2-1.6,4.3-.3,3.9,1.1,13.9-.6,16.4-1,.6-.5.5-1.6.4-.8-1.2-1-42.8-.8-47.5,1.6.2,3,.5,4.5.9.5,2.5.8,7.3,1.1,10.1.6,5.7,1.4,11.4,2.3,17.1h.6c0,.1.5-.5.5-.5.3-7.4,1.6-18,2.5-25.3l4.5.8c0,13.7.4,27.5.6,41.2-1.2.2-1.7.2-2.9.2-.5-.5-.5-16.2-.5-18.6-.3-.9.2-2.1-.7-3.2h-.7c-.3,3-1.4,21-2.4,22.5-.8.5-.9.6-1.8.7-1.1-1.1-2.4-16.9-2.8-19.6Z"/>
  <path class="st2" d="M107.1,87.6c.1-2,.6-8.8,1.6-10.2,0,1.8,0,12-.1,13.2,0,2.4,0,18.1.5,18.6,1.2,0,1.7,0,2.9-.2-.1-13.8-.6-27.5-.6-41.2l-4.5-.8c-1,7.4-2.2,17.9-2.5,25.3,0,2.3-.3,4.2-.5,6.5-.3-1.9-.7-4.1-.6-6-.9-5.7-1.7-11.4-2.3-17.1-.3-2.8-.6-7.7-1.1-10.1-1.6-.3-2.9-.6-4.5-.9-.1,4.7,0,46.3.8,47.5,1.1,0,.7.2,1.6-.4,1.7-2.5.3-12.4.6-16.4-.5-3.3-.4-13.9,0-17.2.7,4,1.1,8.8,1.7,12.9.4,2.7,1.8,18.5,2.8,19.6.9,0,1-.1,1.8-.7,1-1.5,2.2-19.5,2.4-22.4Z"/>
  <path class="st3" d="M98.4,95.4c.3-2.4-.7-3.4,1.6-4.3-.5-4.1-1-8.9-1.7-12.9-.3,3.3-.4,13.9,0,17.2Z"/>
  <path class="st3" d="M108.7,77.5c-1,1.3-1.4,8.2-1.6,10.2h.7c.9.9.4,2.2.7,3.1.2-1.2.2-11.4.1-13.2Z"/>
  <path class="st3" d="M103.8,98.8c.3-2.3.5-4.2.5-6.5l-.5.6h-.6c-.1,1.8.3,4,.6,5.9Z"/>
  <path class="st2" d="M290.2,109.9c2.4-2.1,3-5.4,3.3-8.4.3-3.4.4-8-.9-11.3-.4-.9-1.5-1.7-1.8-2.6-.1-.4,4.9-12.6.6-17.6-.5-.6-1.3-1.3-2.1-1.4,0,0-.1,0-.2,0-2.3.2-4,.6-6.3,1.1,0,12.9,0,26.4.2,39.3,2,.2,5.5,1,7.2.8ZM289.1,102.8c-1.2.3-1.9.5-2.9-.1-.3-1.8-.5-9.4.1-11.1.4,0,1.8,0,2.1.3,2.8,2.1,2,8.2.7,10.9ZM286.1,75.2c.9,0,1.1,0,2,.3,2.4,2.1,1.6,6.6.3,9.1-.8.5-1.2.7-2,.2-.9-2-.7-7.5-.3-9.6Z"/>
  <path class="st1" d="M288.4,91.9c-.3-.2-1.7-.3-2.1-.3-.6,1.6-.4,9.2-.1,11.1,1,.6,1.6.4,2.9.1,1.4-2.7,2.1-8.8-.7-10.9Z"/>
  <path class="st0" d="M288.4,84.6c1.3-2.5,2.1-7.1-.3-9.1-.9-.3-1.1-.3-2-.3-.4,2.2-.6,7.6.3,9.6.8.5,1.2.3,2-.2Z"/>
  <path class="st2" d="M205.2,103.3c7.2-2.4,7.1-13.2,5.3-19.2-.9-3.2-3.3-5.4-6.7-5.3-7.6,3.2-7.3,13.4-4.8,20.1,1.1,2.9,3.2,4.3,6.3,4.5ZM201.4,86.5c.7-2.1,1.1-2.4,2.9-3.4,4.6.2,4.2,9.5,3.1,12.3-.7,1.7-1.1,2.1-2.5,3.2-4.3-1.1-4.7-8.8-3.5-12.1Z"/>
  <path class="st1" d="M204.9,98.7c1.4-1.2,1.9-1.5,2.5-3.2,1.1-2.8,1.5-12.2-3.1-12.3-1.9,1-2.2,1.4-2.9,3.4-1.2,3.3-.8,11,3.5,12.1Z"/>
  <path class="st2" d="M129.7,105.9c1.1,0,2.3-.2,3.4-.2,0-2.3-.4-12,.3-13.2.5,0,.8,0,1.1.5,1.4,2.1,3.3,10,3.6,12.3,1.1-.2,2.3-.4,3.4-.6v-.6c-1.3-4.6-2.5-9.2-4.2-13.7-.2-.5,1.4-2,1.6-2.7,1.3-4.2,2.2-11.2-1.9-14.2-2.1-1.5-5-1.7-7.4-2.3,0,7.2,0,14.4.2,21.6,0,3.3.3,9.9,0,13ZM133.1,77.4c4.4.7,4.2,5.9,2.5,8.9-1,.4-1.4.6-2.4.4-.7-1.3-.6-7.8-.2-9.3Z"/>
  <path class="st1" d="M135.6,86.3c1.6-3,1.9-8.2-2.5-8.9-.5,1.5-.5,8,.2,9.3.9.2,1.4,0,2.4-.4Z"/>
  <path class="st2" d="M304.2,113.1c.3-.8.3-1.1.3-2,0-2,.1-4.7,0-6.7l-5.4-.4c0-3.6,0-7.7.1-11.3,1.7.2,2.7.3,4.4.3,0-2.5.2-6-.2-8.5h-4.3c0-3.2,0-6.7-.2-10,1.9-.1,3.4-.3,5.2-.6,0-1.2,0-8-.5-8.4-2.7.4-5.5.9-8.1,1.7.3,4,.4,9.5.2,13.6-.4,9.7.7,21-.2,30.5,2.1.3,7.3,1.7,8.5,1.8Z"/>
  <path class="st2" d="M120.9,108.2c1,0,1.9-.7,2.5-1.5,4.6-5.8,3.1-22.2,2.9-29.5,0-2.1,0-4.4,0-6.4l-3.2-.5c0,4.4,0,8.9,0,13.3,0,3.6,1.1,15.3-2.3,17.2-.6,0-.7,0-1.1-.5-2.8-3.1-2.3-26.7-2.1-31.3-1-.1-2.3-.3-3.2-.5,0,7.1-1.1,34.3,3.4,38.6.8.7,1.9,1.2,2.9,1.1Z"/>
  <path class="st2" d="M274.5,108.2c5.2.4,5.4-16.2,5.1-19.5-.5-5,.8-13.5-.2-18.1-.9-.2-1.3-.2-2.2-.1-2.8,2,1.3,27-2.5,30.4-.9.3-.5.3-1.5,0-2.1-2-2.1-6.3-2.1-9.1-.1-6.6,0-13.3-.1-19.9l-3.2.3c0,2.7,0,5.4,0,8.2,0,6.6-1.7,27,6.8,27.7Z"/>
  <path class="st2" d="M217,102.7c.5-2.6-.5-7.8.7-9.6,1.8-.3,3.3,5.9,3.7,7.4.5,1.4.3,1.7,1.3,2.5,1.1.2,1.3.2,2.4,0l.5-.4c0-2.1-2.9-8.8-4.1-10.7,1-1.6,2-2.8,2.3-4.7,1.7-9.6-2.9-8.7-9.8-8.6-.1,6.5-.3,17.5.1,23.8.6.6,2.1.6,2.9.2ZM217.2,82.6c4.1-.1,4.5,3.2,2.7,6.1-.5.3-.9.4-1.5.7-2.4-.5-1.4-4.9-1.2-6.7Z"/>
  <path class="st1" d="M218.4,89.3c.6-.2,1-.3,1.5-.7,1.8-2.9,1.5-6.2-2.7-6.1-.2,1.9-1.2,6.3,1.2,6.7Z"/>
  <path class="st2" d="M188.6,102.8c.9-1.1.5-5.6.5-7.3v-.7c1.1-.6,2.2-.5,3.3-1,4.5-2,4.6-8,3-12-1.4-3.4-6.8-2.7-9.5-3.1,0,2.6-.3,22.2.2,23.8.8.5,1.5.3,2.5.2ZM189,82.7c4.1.8,4.8,3.5,3,7-.9.3-2.2.6-3.1.8,0-2.8,0-5,.1-7.8Z"/>
  <path class="st1" d="M192,89.8c1.8-3.5,1.1-6.2-3-7-.2,2.8-.2,5-.1,7.8,1-.2,2.2-.5,3.1-.8Z"/>
  <path class="st2" d="M255.1,103c0-1.1.2-3.9-.2-4.8-.9,0-2.6,3-4.4,1.3-3.5-3.1-4.3-14.3-1.4-17.8.6-.8,1.5-1.2,2.5-1.2,1.4,0,2.7.6,3.3,0,.4-1.8.5-3.3-.3-5-.6-1.3-1.8-1.1-3-1-9,2.6-8.3,17.3-6.5,24.6,1.8,7,9.9,8.2,10,3.9Z"/>
  <path class="st2" d="M158.2,103.6c2.2-.7,1.7-4.9,1.9-7-1.2.9-2.4,1.9-3.9,1.8-5.7-.6-5.8-18.8.6-17.7.8.1,2.1,1.4,2.9,1l.2-.5c-.4-1-.3-3.6-.3-4.8-1.5-.5-3-1-4.4-1.4-5.5,2.5-6.2,7.3-6.4,12.9-.2,5.7.5,18.7,9.5,15.7Z"/>
  <path class="st2" d="M177.5,92.4c1.8,1.5,3.2,2.8,2.6,5.3-1.9,2.5-4.9,0-6.4-1.5.4,5-1.2,6.9,4.8,7,5.2-1.3,5.5-5.4,4.8-10.1-.7-4.4-6.8-5.7-6.6-9.6,1.5-2.1,4.3-1,6.1,0,0-1.7-.1-3.3-.1-5-2.1-.4-3.3-.9-5.4-.5-6.3,3.3-4,10.5.3,14.2Z"/>
  <path class="st2" d="M257.7,105.4l8.5,1c0-1.7,0-4.4.1-6-1.8-.1-3.7-.3-5.5-.3,0-4,.4-23.6-.2-26.1-1-.3-1.9-.2-2.9,0-.3,3.2-.1,8-.1,11.3v20.2Z"/>
  <path class="st2" d="M230,82.3c0,6.3.1,12.7,0,19,0,1-.1,1.3.3,2.1,1.2.2,1.4.1,2.6,0,.7-1,.2-18.5.2-21.2l4.1-.4c0-1.2.3-3.5,0-4.6-.5-.1-.3-.2-.7,0-3.5.3-7.1.6-10.6.9v4.6c1.3,0,2.9-.2,4.2-.3Z"/>
  <path class="st2" d="M161.6,81.1c1.1,1.6.8,12.8.6,15.2-.2,2.5-1,3.7-1,7l5.8-.3c-.3-2.8-.8-4.5-1.2-7.1-.5-3.5-.4-8-.3-11.5,0-3.5,1.2-3.4,1.3-7.1-1.6-.2-3.4-.6-5-.9-1.3.9-.9,3.5-.1,4.6Z"/>
  <path class="st0" d="M159.8,81.2c.8-.4.9-.3,1.8-.1-.8-1.1-1.1-3.7.1-4.6-.5-.2-1.6,0-2.2,0,0,1.2-.2,3.8.3,4.8Z"/>
  <path class="st2" d="M147.7,104.2c-.3-4.6-3.1-21.5-.8-25-2,0-2.8-.7-4.4,0,.8,3.9.5,8.4.7,12.4,0,1.9-.6,11.3-1.6,12.6v.6c2-.1,4.1-.3,6.1-.5Z"/>
  <path class="st2" d="M146.9,79.2c.4-1.1.4-3.4.4-4.7-2-.4-4-1.2-5.5.3-.4,1.2.2,3.1.7,4.3,1.7-.6,2.5.2,4.4,0Z"/>
</svg>