<?xml version="1.0" encoding="utf-8"?>
<!-- Generator: Adobe Illustrator 12.0.0, SVG Export Plug-In  -->
<!DOCTYPE svg PUBLIC "-//W3C//DTD SVG 1.1//EN" "http://www.w3.org/Graphics/SVG/1.1/DTD/svg11.dtd" [
	<!ENTITY ns_flows "http://ns.adobe.com/Flows/1.0/">
	<!ENTITY ns_svg "http://www.w3.org/2000/svg">
	<!ENTITY ns_xlink "http://www.w3.org/1999/xlink">
]>
<svg  version="1.1" xmlns="&ns_svg;" xmlns:xlink="&ns_xlink;" xmlns:a="http://ns.adobe.com/AdobeSVGViewerExtensions/3.0/"
	 width="301" height="301" viewBox="-0.3779297 -0.3779297 301 301" enable-background="new -0.3779297 -0.3779297 301 301"
	 xml:space="preserve">
<defs>
</defs>
<polygon opacity="0" fill-rule="evenodd" clip-rule="evenodd" fill="#FFFFFF" points="0,0 300,0 300,300 0,300 0,0 "/>
<path fill-rule="evenodd" clip-rule="evenodd" d="M49.5424805,40.5410156l-0.6738281,45.0600586
	c31.5058594,1.8603516,33.0786133,30.0947266,1.012207,35.9130859l192.0273438-80.6342773
	c-10.4326172-2.2592773-19.2646484-10.9545898-26.9980469-24.0551758
	c-45.4072266,20.7875977-88.2392578,21.3383789-128.2441406-0.3383789
	C79.6914063,30.3774414,67.3168945,38.3955078,49.5424805,40.5410156L49.5424805,40.5410156z"/>
<path d="M84.6933594,15.5844727l0.0102539-0.0170898l1.5400391-2.3320313l2.4682617,1.3212891
	c19.5166016,10.4472656,39.734375,15.0561523,60.5419922,14.7485352
	c20.9033203-0.309082,42.4121094-5.5751953,64.4130859-14.8691406l2.4375-1.0297852l1.3769531,2.2578125
	c4.2304688,6.9355469,8.5800781,12.2265625,13.4667969,16.0810547c4.7783203,3.7695313,10.1083984,6.1689453,16.3984375,7.4052734
	l2.4902344,0.4882813v2.5317383V81.309082v2.5239258l-2.4785156,0.4975586
	c-5.0888672,1.0205078-8.5917969,3.3398438-10.5664063,6.2587891c-1.3339844,1.9716797-1.9863281,4.2475586-1.9697266,6.5913086
	c0.0185547,2.3989258,0.7373047,4.8759766,2.1474609,7.1865234c2.5273438,4.1450195,7.2412109,7.7509766,14.1005859,9.5488281
	l2.2958984,0.6020508l0.015625,2.3588867c0.2617188,39.6630859-9.1191406,72.9365234-26.6210938,100.8300781
	c-17.4746094,27.8505859-43.0058594,50.2441406-75.0791016,68.203125l-1.5249023,0.8544922l-1.5087891-0.8662109
	c-30.2578125-17.3691406-54.6918945-39.1621094-71.9545898-66.4013672
	c-17.2744141-27.2578125-27.3364258-59.8984375-28.8349609-98.9414063l-0.1035156-2.684082l2.6674805-0.4575195
	c10.7167969-1.8388672,16.7470703-6.034668,19.0522461-10.6977539c0.9155273-1.8520508,1.2246094-3.7919922,0.9921875-5.6723633
	c-0.2368164-1.9130859-1.0332031-3.7797852-2.3222656-5.4487305c-3.2861328-4.253418-9.6831055-7.2260742-18.2719727-6.7573242
	l-3.253418,0.1777344l0.015625-3.2705078l0.222168-45.3652344l0.0141602-2.9487305l2.9462891-0.1206055
	c9.671875-0.3959961,18.7026367-4.2275391,26.3984375-11.4941406c1.4677734-1.3862305,2.9306641-2.9541016,4.3833008-4.7041016
	c1.4199219-1.7094727,2.7822266-3.5522461,4.0820313-5.527832H84.6933594L84.6933594,15.5844727z M88.2734375,21.2529297
	c-0.9501953,1.3291016-1.9272461,2.5981445-2.9311523,3.8076172c-1.5292969,1.8408203-3.1699219,3.5859375-4.9140625,5.2333984
	c-8.0395508,7.590332-17.3828125,11.9121094-27.4228516,12.9643555L52.8125,82.6381836
	C61.9926758,82.9375,69.0380859,86.703125,73.0068359,91.840332c1.9770508,2.559082,3.2036133,5.456543,3.574707,8.4575195
	c0.3754883,3.0336914-0.121582,6.1591797-1.5942383,9.1386719c-2.8842773,5.8339844-9.5673828,11.0327148-20.8510742,13.5200195
	c1.7944336,36.7416992,11.4511719,67.5141602,27.7563477,93.2426758
	c16.4150391,25.9023438,39.5996094,46.7519531,68.3051758,63.4824219
	c30.4858398-17.3232422,54.7446289-38.7626953,71.3647461-65.2490234
	c16.5351563-26.3544922,25.5478516-57.7949219,25.6591797-95.2529297c-7.3203125-2.4257813-12.5107422-6.7114258-15.5-11.6103516
	c-2.0107422-3.2944336-3.0351563-6.8671875-3.0625-10.3652344c-0.0253906-3.5541992,0.9785156-7.0258789,3.0292969-10.0561523
	c2.4833984-3.6723633,6.4765625-6.6489258,11.9853516-8.253418V44.6386719
	c-6.2294922-1.5478516-11.6376953-4.1777344-16.5527344-8.0546875c-4.9033203-3.8671875-9.2851563-8.972168-13.4873047-15.4853516
	c-21.90625,8.9814453-43.375,14.0595703-64.3071289,14.3691406
	C128.3979492,35.7768555,108.0136719,31.3237305,88.2734375,21.2529297L88.2734375,21.2529297z"/>
<polygon points="51.7021484,121.7216797 243.0771484,40.7695313 243.3232422,41.3549805 51.9492188,122.3076172 
	51.7021484,121.7216797 "/>
<polygon points="54.3916016,151.0605469 244.8916016,70.1157227 246.8476563,74.7119141 56.3476563,155.6582031 
	54.3916016,151.0605469 "/>
<path fill-rule="evenodd" clip-rule="evenodd" d="M67.9106445,142.7963867l-8.1376953-19.190918l10.0776367-4.2729492
	l1.3779297,3.2480469l-7.1079102,3.0136719l1.9248047,4.5400391l6.1357422-2.6020508l1.3774414,3.2480469l-6.1362305,2.6020508
	l3.4584961,8.1547852L67.9106445,142.7963867L67.9106445,142.7963867z M78.1386719,138.4594727l-1.5585938-3.6772461
	l2.8154297-1.1938477l1.5595703,3.6772461L78.1386719,138.4594727L78.1386719,138.4594727z M90.2758789,124.9892578
	l3.3779297-0.0302734c0.4467773,2.2827148,0.3745117,4.1479492-0.2207031,5.6025391
	c-0.5927734,1.4472656-1.6806641,2.5097656-3.2578125,3.1787109c-1.9506836,0.8276367-3.9248047,0.6362305-5.918457-0.5693359
	c-1.9941406-1.2099609-3.6333008-3.324707-4.9121094-6.3408203c-1.3549805-3.1943359-1.7739258-5.9428711-1.2617188-8.2480469
	c0.5146484-2.300293,1.7988281-3.8886719,3.8588867-4.762207c1.796875-0.7617188,3.5512695-0.6884766,5.2636719,0.2246094
	c1.0166016,0.5336914,2.0170898,1.5009766,3.0039063,2.8964844l-2.5507813,2.1621094
	c-0.59375-0.9233398-1.2900391-1.5566406-2.0883789-1.8979492c-0.7958984-0.3427734-1.5878906-0.3442383-2.375-0.0107422
	c-1.0883789,0.4614258-1.7578125,1.3466797-2.0019531,2.6572266c-0.2451172,1.3061523,0.1166992,3.1035156,1.0869141,5.3916016
	c1.0288086,2.4257813,2.09375,4.0141602,3.2001953,4.7573242c1.1054688,0.7495117,2.1918945,0.8945313,3.2602539,0.4423828
	c0.7900391-0.3354492,1.3291016-0.9487305,1.6186523-1.8466797
	C90.6513672,127.703125,90.6206055,126.4985352,90.2758789,124.9892578L90.2758789,124.9892578z M98.6708984,129.753418
	l-1.5600586-3.6772461l2.8164063-1.1938477l1.559082,3.6772461L98.6708984,129.753418L98.6708984,129.753418z
	 M106.699707,118.984375l2.7314453-1.5961914c0.7089844,1.1972656,1.4550781,1.9770508,2.2407227,2.3447266
	c0.78125,0.3647461,1.6225586,0.3608398,2.5263672-0.0219727c0.9545898-0.4052734,1.5644531-0.9746094,1.8222656-1.7109375
	c0.262207-0.7333984,0.2431641-1.453125-0.0556641-2.1586914c-0.1938477-0.4560547-0.4589844-0.7963867-0.7993164-1.0268555
	c-0.3374023-0.2363281-0.8110352-0.3623047-1.4194336-0.378418c-0.4135742-0.0146484-1.3256836,0.0454102-2.7304688,0.1669922
	c-1.8095703,0.1606445-3.1943359-0.0004883-4.1523438-0.4799805c-1.3505859-0.6713867-2.3476563-1.7661133-2.9926758-3.2861328
	c-0.4145508-0.9780273-0.5893555-1.9794922-0.5268555-3.0131836c0.0644531-1.0288086,0.402832-1.9365234,1.0107422-2.7211914
	c0.6123047-0.7822266,1.4794922-1.4135742,2.6088867-1.8925781c1.8476563-0.7832031,3.4570313-0.8442383,4.8383789-0.1855469
	c1.3803711,0.6645508,2.4663086,1.8642578,3.2626953,3.6098633l-2.8945313,1.4272461
	c-0.5458984-0.934082-1.1210938-1.5283203-1.7207031-1.7797852c-0.6000977-0.2568359-1.3178711-0.2060547-2.152832,0.1479492
	c-0.862793,0.3666992-1.4433594,0.8818359-1.7319336,1.5522461c-0.1899414,0.4282227-0.1791992,0.8920898,0.03125,1.3891602
	c0.1938477,0.4550781,0.5053711,0.7817383,0.9360352,0.9785156c0.5478516,0.2524414,1.6391602,0.2958984,3.2709961,0.1254883
	c1.6337891-0.1650391,2.8959961-0.1582031,3.7880859,0.0234375c0.8945313,0.1850586,1.7099609,0.6035156,2.4541016,1.2631836
	c0.7407227,0.6611328,1.3671875,1.5976563,1.8808594,2.8081055c0.4658203,1.0986328,0.6708984,2.2294922,0.6079102,3.3852539
	c-0.0610352,1.1591797-0.4189453,2.1538086-1.0776367,2.9814453c-0.6557617,0.8320313-1.6254883,1.5170898-2.9013672,2.0581055
	c-1.8588867,0.7880859-3.5224609,0.8344727-4.9936523,0.1352539S107.8007813,121.0473633,106.699707,118.984375
	L106.699707,118.984375z M137.0473633,113.4804688l-3.2304688,1.3696289l-3.1323242-3.8164063l-5.8754883,2.4912109
	l0.6376953,4.8740234l-3.1484375,1.3354492l-2.4125977-21.6191406l3.1376953-1.3295898L137.0473633,113.4804688
	L137.0473633,113.4804688z M128.362793,108.2060547l-5.0454102-6.2636719l1.0351563,7.9643555L128.362793,108.2060547
	L128.362793,108.2060547z M138.6484375,112.8012695l-8.1381836-19.1918945l2.8886719-1.2241211l11.4501953,10.2646484
	l-5.4345703-12.815918l2.7578125-1.1694336l8.1386719,19.1918945l-2.980957,1.2636719l-11.2304688-10.0039063l5.3071289,12.515625
	L138.6484375,112.8012695L138.6484375,112.8012695z M156.7548828,105.1245117l-6.7607422-15.9428711l-4.3598633,1.8486328
	l-1.3774414-3.2485352l11.6787109-4.9521484l1.3779297,3.2480469l-4.3496094,1.8447266l6.7607422,15.9418945
	L156.7548828,105.1245117L156.7548828,105.1245117z M177.7197266,96.234375l-3.2294922,1.3696289l-3.1328125-3.8173828
	l-5.8759766,2.4916992l0.6386719,4.8745117l-3.1474609,1.3354492l-2.4140625-21.6191406l3.1386719-1.3305664L177.7197266,96.234375
	L177.7197266,96.234375z M169.0371094,90.9594727l-5.046875-6.2631836l1.0351563,7.9643555L169.0371094,90.9594727
	L169.0371094,90.9594727z M191.4111328,82.1049805l3.3769531-0.0307617
	c0.4482422,2.2836914,0.3759766,4.1489258-0.2197266,5.6030273c-0.5927734,1.4477539-1.6796875,2.5102539-3.2578125,3.1796875
	c-1.9511719,0.8261719-3.9257813,0.6352539-5.9179688-0.5698242c-1.9941406-1.2099609-3.6347656-3.324707-4.9130859-6.3408203
	c-1.3554688-3.1948242-1.7734375-5.9428711-1.2607422-8.2480469c0.5136719-2.3007813,1.7988281-3.8891602,3.8583984-4.762207
	c1.796875-0.762207,3.5507813-0.6889648,5.2636719,0.2246094c1.0166016,0.5336914,2.0166016,1.5009766,3.0048828,2.8964844
	l-2.5517578,2.1616211c-0.5947266-0.9233398-1.2910156-1.5561523-2.0888672-1.8974609
	c-0.7958984-0.3427734-1.5878906-0.3442383-2.3740234-0.0112305c-1.0898438,0.4619141-1.7578125,1.347168-2.0029297,2.6577148
	c-0.2451172,1.3061523,0.1171875,3.1025391,1.0878906,5.390625c1.0283203,2.4267578,2.09375,4.0151367,3.2001953,4.7583008
	c1.1044922,0.7490234,2.1914063,0.8945313,3.2597656,0.4414063c0.7900391-0.3344727,1.3300781-0.9482422,1.6191406-1.8457031
	C191.7861328,84.8183594,191.7558594,83.6142578,191.4111328,82.1049805L191.4111328,82.1049805z M199.8330078,86.8583984
	l-8.1376953-19.1918945l6.2480469-2.6489258c1.5703125-0.6665039,2.7841797-0.9760742,3.6416016-0.9335938
	s1.6884766,0.4121094,2.4902344,1.1113281c0.8017578,0.7026367,1.4423828,1.6186523,1.921875,2.7539063
	c0.6113281,1.4384766,0.7910156,2.769043,0.5429688,3.9819336c-0.2509766,1.2084961-0.9707031,2.2148438-2.1582031,3.0029297
	c0.8515625,0.21875,1.609375,0.5302734,2.2753906,0.9384766c0.6660156,0.4077148,1.6660156,1.206543,3.0058594,2.3984375
	l3.3847656,2.9833984l-3.5488281,1.5048828l-3.9160156-3.2685547c-1.3955078-1.1689453-2.3134766-1.8862305-2.7587891-2.1567383
	c-0.4453125-0.269043-0.8564453-0.4067383-1.2324219-0.4204102c-0.3759766-0.0097656-0.9033203,0.1293945-1.5869141,0.4194336
	l-0.5996094,0.2539063l3.3974609,8.0112305L199.8330078,86.8583984L199.8330078,86.8583984z M198.1064453,74.5214844
	l2.1933594-0.9306641c1.4238281-0.6030273,2.28125-1.0561523,2.5693359-1.3637695
	c0.2880859-0.3056641,0.4492188-0.6953125,0.4882813-1.1660156c0.0351563-0.4677734-0.0654297-0.9902344-0.3095703-1.565918
	c-0.2744141-0.6484375-0.6279297-1.1098633-1.0595703-1.3959961s-0.9111328-0.3779297-1.4394531-0.2807617
	c-0.2568359,0.0615234-0.9882813,0.3452148-2.1933594,0.855957l-2.3115234,0.980957L198.1064453,74.5214844L198.1064453,74.5214844z
	 M206.4941406,61.390625l2.9667969-1.2583008l4.4082031,10.394043c0.6992188,1.6479492,1.1914063,2.7045898,1.4697266,3.1611328
	c0.4609375,0.7333984,1.0322266,1.234375,1.7080078,1.5063477c0.6826172,0.2744141,1.4365234,0.2348633,2.2646484-0.1171875
	c0.8408203-0.3564453,1.3837891-0.8500977,1.6191406-1.4824219c0.2382813-0.6279297,0.2597656-1.2915039,0.0683594-1.9799805
	c-0.1884766-0.6943359-0.6083984-1.7978516-1.2529297-3.3168945l-4.5019531-10.6166992l2.9667969-1.2583008l4.2763672,10.0805664
	c0.9765625,2.3056641,1.5878906,3.965332,1.8310547,4.9853516c0.2412109,1.0205078,0.2871094,1.9448242,0.1337891,2.784668
	c-0.1552734,0.8349609-0.5107422,1.6030273-1.0644531,2.2963867c-0.5576172,0.6953125-1.4208984,1.2871094-2.5830078,1.7802734
	c-1.4042969,0.5961914-2.5566406,0.8369141-3.4628906,0.7197266c-0.9052734-0.1166992-1.7099609-0.4238281-2.4160156-0.9199219
	c-0.7070313-0.496582-1.2861328-1.0893555-1.7333984-1.7744141c-0.6621094-1.0161133-1.4453125-2.5976563-2.3574219-4.7470703
	L206.4941406,61.390625L206.4941406,61.390625z M228.2050781,74.8276367l-1.4824219-3.4946289l2.4414063-15.722168
	l-6.8476563,2.9042969l-1.3779297-3.2495117l10.7587891-4.5610352l1.2763672,3.0107422l-2.5625,16.359375l8.3642578-3.5458984
	l1.3710938,3.2353516L228.2050781,74.8276367L228.2050781,74.8276367z"/>
<polygon points="71.0869141,146.8505859 71.0869141,199.5625 68.0053711,199.5625 68.0053711,146.8505859 71.0869141,146.8505859 
	"/>
<polygon fill-rule="evenodd" clip-rule="evenodd" points="74.8632813,145.0742188 74.8632813,210.2226563 88.1538086,229.7685547 
	88.1538086,138.559082 74.8632813,145.0742188 "/>
<polygon points="95.8969727,136.7832031 95.8969727,238.3076172 92.8154297,238.3076172 92.8154297,136.7832031 
	95.8969727,136.7832031 "/>
<polygon points="106.5292969,132.0449219 106.5292969,249.3115234 103.4477539,249.3115234 103.4477539,132.0449219 
	106.5292969,132.0449219 "/>
<polygon fill-rule="evenodd" clip-rule="evenodd" points="110.8613281,130.265625 110.8613281,253.9384766 124.1079102,265.8964844 
	124.1079102,124.3427734 110.8613281,130.265625 "/>
<polygon points="132.2246094,121.3842773 132.2246094,270.0400391 129.1430664,270.0400391 129.1430664,121.3842773 
	132.2246094,121.3842773 "/>
<polygon points="143.7431641,116.6459961 143.7431641,277.7392578 140.6616211,277.7392578 140.6616211,116.6459961 
	143.7431641,116.6459961 "/>
<polygon fill-rule="evenodd" clip-rule="evenodd" points="148.4047852,113.6845703 148.4047852,281.8857422 
	159.9238281,276.5576172 159.9238281,108.3540039 148.4047852,113.6845703 "/>
<polygon points="167.6669922,106.5771484 167.6669922,273.59375 164.5849609,273.59375 164.5849609,106.5771484 
	167.6669922,106.5771484 "/>
<polygon points="180.9570313,101.2470703 180.9570313,263.8876953 177.8759766,263.8876953 177.8759766,101.2470703 
	180.9570313,101.2470703 "/>
<polygon fill-rule="evenodd" clip-rule="evenodd" points="185.3037109,98.2861328 185.3037109,259.9716797 197.0205078,247.5332031 
	197.0205078,93.3427734 185.3037109,98.2861328 "/>
<polygon points="204.8808594,89.9936523 204.8808594,243.3896484 201.7998047,243.3896484 201.7998047,89.9936523 
	204.8808594,89.9936523 "/>
<polygon points="217.2861328,85.2563477 217.2861328,229.1757813 214.203125,229.1757813 214.203125,85.2563477 
	217.2861328,85.2563477 "/>
<path fill-rule="evenodd" clip-rule="evenodd" d="M221.0615234,83.4794922v137.9970703l12.4033203-23.6923828v-93.5756836
	c-1.7382813-4.9882813-1.7382813-10.2675781,0-15.8354492V77.5566406L221.0615234,83.4794922L221.0615234,83.4794922z"/>
<polygon points="241.2089844,111.9077148 241.2089844,183.5703125 238.1269531,183.5703125 238.1269531,111.9077148 
	241.2089844,111.9077148 "/>
<polygon points="238.1269531,84.6635742 238.1269531,74.0029297 241.2089844,74.0029297 241.2089844,84.6635742 
	238.1269531,84.6635742 "/>
<path fill-rule="evenodd" clip-rule="evenodd" fill="#FFFFFF" d="M71.309082,37.2475586l6.6757813-3.6865234
	c3.590332,2.6826172,4.6503906,5.3613281,4.3393555,8.0424805c-1.1123047,2.3466797-3.2265625,4.0214844-6.3422852,3.0161133
	C73.9794922,43.0556641,72.4213867,40.5981445,71.309082,37.2475586L71.309082,37.2475586z"/>
<path fill-rule="evenodd" clip-rule="evenodd" fill="#FFFFFF" d="M125.0507813,55.0078125l89.6757813-32.7124023
	c3.6748047,5.3779297,8.0566406,10.0463867,13.1455078,14.0048828L125.3847656,58.0234375L125.0507813,55.0078125
	L125.0507813,55.0078125z"/>
<polygon fill-rule="evenodd" clip-rule="evenodd" fill="#FFFFFF" points="112.7001953,44.9545898 117.7075195,47.9707031 
	147.6010742,35.2470703 129.7236328,33.8959961 112.7001953,44.9545898 "/>
<path fill-rule="evenodd" clip-rule="evenodd" fill="#FFFFFF" d="M102.7099609,25.8305664l-0.793457,12.4458008
	c1.4438477,3.4711914,3.6933594,4.1674805,6.75,2.0898438l5.3691406-10.8261719
	C110.6132813,29.0117188,106.8378906,27.7753906,102.7099609,25.8305664L102.7099609,25.8305664z"/>
<path fill-rule="evenodd" clip-rule="evenodd" fill="#FFFFFF" d="M126.3862305,61.0395508l72.1010742-4.6918945
	l-23.3662109,10.0537109l-49.7363281-1.0053711C125.3847656,65.3959961,126.0527344,60.7045898,126.3862305,61.0395508
	L126.3862305,61.0395508z"/>
<path fill-rule="evenodd" clip-rule="evenodd" fill="#FFFFFF" d="M126.0527344,69.4174805l38.4931641,1.6757813
	l-17.2573242,7.175293l-22.237793-5.5004883C125.0507813,72.7680664,126.3862305,69.4174805,126.0527344,69.4174805
	L126.0527344,69.4174805z"/>
<path fill-rule="evenodd" clip-rule="evenodd" fill="#FFFFFF" d="M94.3413086,57.6884766
	c-4.1171875,5.2504883-7.7885742,12.2866211-11.0161133,21.1118164c2.2260742,6.1430664,5.3408203,7.8178711,9.3466797,5.0263672
	c5.0073242-6.4790039,9.0283203-12.1606445,10.4750977-18.6381836
	C104.4501953,58.4326172,101.5146484,55.9331055,94.3413086,57.6884766L94.3413086,57.6884766z"/>
<path fill-rule="evenodd" clip-rule="evenodd" fill="#FFFFFF" d="M105.6904297,63.7202148
	c-2.4423828,6.3676758-5.565918,12.7333984-10.190918,19.1010742c0.8876953,5.3720703,3.9008789,6.1474609,10.0214844,2.3256836
	c3.418457-5.0483398,5.8120117-10.2436523,6.1777344-15.7294922C112.3125,65.1098633,110.3095703,63.2119141,105.6904297,63.7202148
	L105.6904297,63.7202148z"/>
<path fill-rule="evenodd" clip-rule="evenodd" fill="#FFFFFF" d="M116.0380859,67.4067383l-7.0097656,14.4091797
	c-0.6181641,4.1674805,1.1625977,4.6152344,5.3408203,1.3408203c4.65625-3.0595703,6.6137695-7.0214844,7.3442383-11.394043
	C122.0292969,65.3837891,119.6469727,65.0263672,116.0380859,67.4067383L116.0380859,67.4067383z"/>
<path fill-rule="evenodd" clip-rule="evenodd" fill="#FFFFFF" d="M87.9990234,54.3369141
	c-10.2275391,3.7001953-12.6044922,11.2871094-12.3642578,21.1191406c3.4233398,5.7016602,5.3193359,5.706543,5.6879883,1.3334961
	l10.0136719-18.4306641C93.9316406,54.6098633,92.8183594,53.2700195,87.9990234,54.3369141L87.9990234,54.3369141z"/>
<path fill-rule="evenodd" clip-rule="evenodd" fill="#FFFFFF" d="M86.6635742,47.6357422
	c-2.3359375-1.340332-4.6987305-0.5395508-9.706543,4.3759766c-1.8637695,6.0581055-0.7792969,7.9936523,1.3618164,7.3525391
	l10.0146484-7.0366211C91.9194336,49.230957,91.3623047,47.6669922,86.6635742,47.6357422L86.6635742,47.6357422z"/>
<path fill-rule="evenodd" clip-rule="evenodd" fill="#FFFFFF" d="M74.859375,76.612793
	c1.5063477,1.0810547,1.1113281,4.2250977-0.8808594,6.9980469c-1.9907227,2.7724609-4.8447266,4.1508789-6.3505859,3.0698242
	c-1.5063477-1.0825195-1.1103516-4.2265625,0.8803711-6.9995117C70.5004883,76.9091797,73.3530273,75.5302734,74.859375,76.612793
	L74.859375,76.612793z"/>
<path fill-rule="evenodd" clip-rule="evenodd" fill="#FFFFFF" d="M72.9443359,52.8808594
	c0.0332031,2.6000977-4.5742188,4.7612305-10.2553711,4.8120117c-5.6806641,0.0512695-10.3413086-2.0273438-10.375-4.6274414
	c-0.0327148-2.5996094,4.5751953-4.7607422,10.2563477-4.8125C68.2514648,48.2026367,72.9125977,50.28125,72.9443359,52.8808594
	L72.9443359,52.8808594z"/>
<path fill-rule="evenodd" clip-rule="evenodd" fill="#FFFFFF" d="M72.9794922,67.3769531
	c1.1069336,2.3520508-2.1879883,6.2294922-7.3374023,8.6323242c-5.1479492,2.402832-10.2509766,2.4438477-11.3588867,0.0917969
	s2.1879883-6.2290039,7.3364258-8.6323242C66.7675781,65.065918,71.8706055,65.0249023,72.9794922,67.3769531L72.9794922,67.3769531
	z"/>
<path fill-rule="evenodd" clip-rule="evenodd" fill="#FFFFFF" d="M82.9794922,84.1650391
	c1.5527344,1.0136719,1.2958984,4.1728516-0.5708008,7.0302734c-1.8671875,2.8579102-4.65625,4.3613281-6.2094727,3.3466797
	c-1.5527344-1.0136719-1.2963867-4.171875,0.5708008-7.0302734C78.637207,84.6542969,81.4267578,83.1503906,82.9794922,84.1650391
	L82.9794922,84.1650391z"/>
<path fill-rule="evenodd" clip-rule="evenodd" fill="#FFFFFF" d="M94.7402344,87.2714844
	c2.0717773,1.4350586,1.8027344,6.0249023-0.5986328,10.2182617c-2.4008789,4.1928711-6.0493164,6.4428711-8.1206055,5.0083008
	c-2.0717773-1.4350586-1.8037109-6.0249023,0.5976563-10.2177734
	C89.0195313,88.0869141,92.6679688,85.8369141,94.7402344,87.2714844L94.7402344,87.2714844z"/>
<path fill-rule="evenodd" clip-rule="evenodd" fill="#FFFFFF" d="M89.6000977,22.4892578
	c2.3178711,0.1777344,4.2412109,3.9584961,4.2817383,8.4155273c0.0400391,4.4580078-1.8178711,7.9477539-4.1357422,7.7695313
	c-2.3178711-0.1777344-4.2412109-3.9575195-4.2807617-8.4155273C85.4248047,25.8017578,87.2822266,22.3115234,89.6000977,22.4892578
	L89.6000977,22.4892578z"/>
<path fill-rule="evenodd" clip-rule="evenodd" fill="#FFFFFF" d="M104.0214844,87.8486328
	c2.5742188,0,4.6738281,1.956543,4.6738281,4.355957c0,2.3989258-2.0996094,4.355957-4.6738281,4.355957
	c-2.5737305,0-4.6733398-1.9570313-4.6733398-4.355957C99.3481445,89.8051758,101.4477539,87.8486328,104.0214844,87.8486328
	L104.0214844,87.8486328z"/>
<path fill-rule="evenodd" clip-rule="evenodd" fill="#FFFFFF" d="M99.6821289,48.3061523
	c2.5742188,0,4.6733398,1.9570313,4.6733398,4.3569336c0,2.3984375-2.0991211,4.355957-4.6733398,4.355957
	c-2.5727539,0-4.6728516-1.9575195-4.6728516-4.355957C95.0092773,50.2631836,97.109375,48.3061523,99.6821289,48.3061523
	L99.6821289,48.3061523z"/>
<path fill-rule="evenodd" clip-rule="evenodd" fill="#FFFFFF" d="M108.4643555,53.6674805
	c2.0786133,0,3.7744141,1.5805664,3.7744141,3.5185547s-1.6958008,3.5185547-3.7744141,3.5185547
	c-2.0791016,0-3.7749023-1.5805664-3.7749023-3.5185547S106.3852539,53.6674805,108.4643555,53.6674805L108.4643555,53.6674805z"/>
<path fill-rule="evenodd" clip-rule="evenodd" fill="#FFFFFF" d="M89.3339844,40.0727539
	c1.8383789,0,3.3369141,1.3974609,3.3369141,3.1113281s-1.4985352,3.1113281-3.3369141,3.1113281
	s-3.3383789-1.3974609-3.3383789-3.1113281S87.4956055,40.0727539,89.3339844,40.0727539L89.3339844,40.0727539z"/>
<path fill-rule="evenodd" clip-rule="evenodd" fill="#FFFFFF" d="M107.2060547,43.9492188
	c1.3852539,0,2.5161133,1.0541992,2.5161133,2.3461914s-1.1308594,2.3457031-2.5161133,2.3457031
	c-1.3862305,0-2.5170898-1.0537109-2.5170898-2.3457031S105.8198242,43.9492188,107.2060547,43.9492188L107.2060547,43.9492188z"/>
<path fill-rule="evenodd" clip-rule="evenodd" fill="#FFFFFF" d="M98.6806641,40.9335938
	c1.8383789,0,3.3378906,1.1289063,3.3378906,2.5131836c0,1.3847656-1.4995117,2.5131836-3.3378906,2.5131836
	s-3.3374023-1.128418-3.3374023-2.5131836C95.3432617,42.0625,96.8422852,40.9335938,98.6806641,40.9335938L98.6806641,40.9335938z"
	/>
<path fill-rule="evenodd" clip-rule="evenodd" fill="#FFFFFF" d="M122.0073242,81.9111328
	c1.5024414,0.6923828,1.8466797,3.1708984,0.7651367,5.5175781c-1.0805664,2.3476563-3.1884766,3.6972656-4.690918,3.0048828
	c-1.5024414-0.6918945-1.8476563-3.1708984-0.7661133-5.5185547
	C118.3969727,82.5683594,120.5039063,81.21875,122.0073242,81.9111328L122.0073242,81.9111328z"/>
<path fill-rule="evenodd" clip-rule="evenodd" fill="#FFFFFF" d="M122.2368164,60.1240234
	c-0.7407227,1.4794922-3.2290039,1.7431641-5.5400391,0.5869141c-2.3110352-1.1567383-3.5913086-3.3076172-2.8505859-4.7861328
	c0.7412109-1.4799805,3.2290039-1.7441406,5.5400391-0.5869141
	C121.6962891,56.4946289,122.9770508,58.6445313,122.2368164,60.1240234L122.2368164,60.1240234z"/>
<path fill-rule="evenodd" clip-rule="evenodd" fill="#FFFFFF" d="M117.5175781,52.8583984
	c-0.6293945,1.2553711-2.7412109,1.4785156-4.7016602,0.4975586c-1.9614258-0.9819336-3.0483398-2.8066406-2.4199219-4.0620117
	c0.628418-1.2558594,2.7407227-1.4794922,4.7016602-0.4985352
	C117.0595703,49.7773438,118.1459961,51.6025391,117.5175781,52.8583984L117.5175781,52.8583984z"/>
<path fill-rule="evenodd" clip-rule="evenodd" fill="#FFFFFF" d="M116.8041992,64.1796875
	c-0.5161133,1.0322266-2.2519531,1.2163086-3.8647461,0.4091797c-1.6108398-0.8066406-2.5043945-2.3066406-1.9873047-3.3383789
	c0.5161133-1.0322266,2.2519531-1.2163086,3.8637695-0.4091797S117.3212891,63.1479492,116.8041992,64.1796875
	L116.8041992,64.1796875z"/>
</svg>
