<svg id="Layer_1" data-name="Layer 1" xmlns="http://www.w3.org/2000/svg" xmlns:xlink="http://www.w3.org/1999/xlink" viewBox="0 0 500 500"><defs><style>.cls-1{fill:#fdef17;}.cls-2{fill:#37386e;}.cls-3{fill:#e33029;}.cls-4{fill:#fefcfc;}.cls-5{fill:#00a761;}.cls-6{fill:url(#radial-gradient);}</style><radialGradient id="radial-gradient" cx="249.38" cy="117.63" r="43.55" gradientUnits="userSpaceOnUse"><stop offset="0.31" stop-color="#f7931e"/><stop offset="0.49" stop-color="#f37e20"/><stop offset="0.84" stop-color="#e84a26"/><stop offset="1" stop-color="#e33029"/></radialGradient></defs><title>Catanduva</title><path class="cls-1" d="M367.64,426.26c-5.76,3.54-11.54,7-17.26,10.63q-16.26,10.23-32.45,20.58-17.67,11.25-35.3,22.53c-8.35,5.31-16.85,10.4-25,15.95-5,3.38-9.28,3.3-14.41.28-11.8-7-23.86-13.49-35.82-20.19-.45-.25-.86-.65-1.46-.46-1.6-1-3.17-2.09-4.81-3.05-8.65-5-17.34-10-26-15.11-20.44-12.1-40.84-24.22-58.68-40.15-21.17-18.9-36.1-41.54-43.12-69.25-5.88-23.21-7.47-46.89-7.61-70.64-.45-81.1-.5-162.19-.71-243.29,0-.79,0-1.59,0-2.38a9.16,9.16,0,0,1,9.23-9c1.32,0,2.64-.09,4-.13l21.22,0,4,0h40.44c2,0,6.56.09,7,.08l14-.07h30.45c2.12,0,15.17-.05,19.58,0l5.87,0,40.81.06h40.58c4.5,0,9,.09,13.5.09l49.76-.08h56.3c.44,0,.88.08,1.32.09,7.47.17,10.72,3.5,10.77,11,.11,15.29.26,30.57.35,45.86.2,31.71.56,63.43.53,95.15,0,44.86,1.43,89.76-2.49,134.55a224.19,224.19,0,0,1-8.81,47.26c-6.89,22.12-18.68,41-36.57,55.93A210.14,210.14,0,0,1,367.64,426.26Zm-122.84-243c-.06,1.14-.16,2.28-.16,3.43q0,127.18-.07,254.38c0,2.55.67,3.95,3,5.06,3.89,1.83,7.14.06,7.14-4.22q0-128.11,0-256.23c0-1.05-.16-2.1-.25-3.15l6.62-5.58c0,1.06.07,2.12.07,3.18V440.72c8.75-5.1,17-10,25.36-14.71a4.83,4.83,0,0,0,2.83-4.93q-.1-132.49-.06-265c0-1.15-.08-2.29-.11-3.44a52.25,52.25,0,0,1,6.38-5.5c0,1.14.07,2.29.07,3.44q0,132.81,0,265.61c0,.62,0,1.24,0,1.86-.18,1.91.21,2.71,2.2,1.41a48.34,48.34,0,0,1,6-3.39c2-.91,2.46-2.26,2.46-4.36q-.08-135.18-.05-270.38a6.15,6.15,0,0,0-.32-3.12l7.11-6.4V407.46c0,3.28,0,3.29,2.91,1.6,11.22-6.5,22.38-13.1,33.36-20A74.75,74.75,0,0,0,380.4,351.4c6.64-17.53,8.89-35.91,10.44-54.39,1.56-18.76,1.7-37.58,1.6-56.4q-.42-85.47-.92-170.93c0-1.44.76-3.52-.51-4.19-1.61-.85-2.72,1.18-3.86,2.16q-33.79,29.17-67.52,58.41a4,4,0,0,1-2.76,1.33c-8.39-.09-16.77-.12-25.15-.17.25-1.57,2.13-3.75-1.51-3.85-1.29,0-2.72,0-2.66-2.05.06-2.3,1.73-1.63,2.85-1.59,1.91.08,2.68-.47,2.57-2.54-.13-2.29-1.66-1.64-2.83-1.58-2.36.11-3.08-.62-2.62-2.86.33-1.55,1.67-1.41,2.72-1.57,2.29-.33,2.44-1.57,1.62-3.34s-2.26-.59-3.17-.26c-2.32.85-2.8-.56-3.07-2.19s1.36-1.61,2.23-2.17c1.19-.77,2.56-1.16,1.52-3.17s-2.14-.88-3.32-.29c-1,.49-1.95,1.67-3-.17-.93-1.6,0-2.2,1-2.94a15.08,15.08,0,0,1,1.3-.91c1.55-.9,1-1.79.24-3s-1.59-1-2.51-.16c-.59.53-1.29.92-1.89,1.44s-1.39.88-1.91-.13c-.43-.82-1.87-1.45-.57-2.65.51-.48.94-1.06,1.49-1.51,1.35-1.1,1.25-2,0-3.21s-1.95-.55-2.72.47c-.32.42-.75.75-1.09,1.16-.87,1.08-1.64.89-2.67.1a1.5,1.5,0,0,1-.39-2.43c.51-.71.93-1.51,1.47-2.19.7-.89.61-1.44-.34-2.14-1.4-1-2.45-1.27-3.3.57-.29.63-.78,1.17-1.12,1.78-.8,1.42-1.73.66-2.7.25s-1.43-1-.89-2.22,1.42-2.4,1-3.73c-.35-1-1.61-1.21-2.49-1.21-1.4,0-1.18,1.53-1.59,2.41-.55,1.17-.57,2.58-2.62,2s-1.85-1.75-1.55-3.21c.13-.61.27-1.21.35-1.82.12-.9-.1-1.66-1.17-1.62s-2.23-.77-2.61.88a11,11,0,0,0-.43,2.59c0,1.68-.9,1.92-2.22,1.7-2.77-.45-1.27-2.63-1.44-4s-.67-1.79-2-1.77-2.06.28-1.94,1.76c.07.79,0,1.59,0,2.38,0,1.1-.53,1.59-1.6,1.64s-2,.19-2.17-1.22a12.63,12.63,0,0,1-.32-2.08c.08-1.92-1-2.11-2.54-2-1.76.16-1.66,1.12-1.33,2.39.2.76.12,1.6.36,2.35.38,1.2-.16,1.55-1.21,1.76s-2.06.93-2.67-.56a17.65,17.65,0,0,1-.92-2.48c-.37-1.6-1.27-1.27-2.38-.88s-1.93.86-1.26,2.27c.34.71.47,1.53.86,2.21.71,1.25.22,1.85-.92,2.47s-2.08.77-2.78-.62c-.36-.71-.92-1.31-1.29-2-.61-1.13-1.31-1.25-2.32-.47-.85.66-1.9,1.16-1,2.49.49.73.94,1.5,1.48,2.19.81,1,.74,1.75-.32,2.62s-1.85.62-2.66-.32c-.45-.53-1-1-1.46-1.53-.73-.9-1.4-.75-2.25-.11-1.27,1-1.85,1.86-.26,3.07A14.2,14.2,0,0,1,220.21,91c.93,1,.56,1.79-.19,2.76-.93,1.21-1.55.44-2.4,0-1.15-.61-1.89-2.44-3.59-1.48-2,1.1-1.69,2.42.8,4.2,1.07.76,2.34,1.29,1.27,3.08s-2,.77-3,.16c-1.27-.74-2.39-1.46-3.49.45s.42,2.23,1.44,2.92a10.39,10.39,0,0,0,1.39.76c1.42.72,1,1.85.69,3-.39,1.52-1.38.75-2.28.74-1.27,0-2.83-1.81-3.8.59-1.12,2.79,1,2.84,2.61,3.06,2,.27,2.31,1.42,2.09,3.15-.26,2.07-1.59,1.34-2.76,1.21-2.53-.29-3.82,1.06-2.89,3.1.74,1.62,2.33.84,3.54,1s2,0,2.14,1.61a1.61,1.61,0,0,1-1.87,1.94c-3.16-.08-3.43,1.58-2.67,4-8.48,0-16.95.06-25.43.15a3.88,3.88,0,0,1-2.73-1.36L135.42,88.19q-12.61-10.93-25.24-21.86c-.58-.5-1.16-1.35-2-1s-.55,1.38-.55,2.13c0,2.82.06,5.65.07,8.48q.28,100.07.59,200.14c.09,19,1.16,37.95,4.93,56.65,4,20,12.63,37.49,27.94,51.4,13.23,12,28.65,20.5,44.46,28.42.12.06.32-.06.76-.16V132.24l6.61,6c-.06,1.15-.15,2.29-.15,3.43q0,135.7,0,271.39c0,.71,0,1.42,0,2.12s0,1.28.67,1.62c3.13,1.69,6.27,3.36,9.72,5.2V418.3q0-111.71,0-223.42,0-23.85,0-47.7l6.66,5.73c-.06,1.06-.16,2.11-.16,3.17q0,39.09,0,78.17,0,94.22-.06,188.43a4.08,4.08,0,0,0,2.58,4.22c7.66,4,15.22,8.18,22.83,12.26.74.4,1.39,1.13,2.51.89V179.58c0-.89,0-1.77-.06-2.65A61.29,61.29,0,0,1,244.8,183.23ZM313,449.89c4-2.52,7.62-4.78,11.21-7.06,13-8.28,25.85-16.89,39.11-24.77,26.61-15.81,44.34-38.24,52.63-68.17,6.1-22,8-44.62,8.83-67.31,1-26.58,1-53.18.85-79.78q-.58-84-.76-168.06c0-2.36-.64-2.9-3-2.9q-172.5,0-345-.08c-2.17,0-2.85.5-2.82,2.76.17,12,.2,24,.24,36q.28,102.85.58,205.71a374.27,374.27,0,0,0,3.78,53.07c4.92,33.51,20.35,61,46,83,18.29,15.68,39,27.57,59.55,39.84,2,1.2,1.91,0,1.91-1.39,0-8.39-.1-16.79.05-25.18,0-2.27-.72-3.4-2.71-4.45-12.09-6.37-24.28-12.55-35.5-20.48-22.3-15.77-36.93-36.56-42.66-63.44-4.19-19.71-5.58-39.72-5.69-59.76C99.24,204.71,99.2,131.9,99,59.09c0-2,.43-2.52,2.45-2.5,10.51.11,21,0,31.53,0H396.58c4,0,3.43-.55,3.47,3.56.13,11.75.26,23.5.33,35.25.13,21.47.31,42.94.31,64.42,0,45.31,1.53,90.65-1.29,135.94a246.54,246.54,0,0,1-6.88,45.74c-6.19,24.31-19.32,43.41-41.13,56.36-12.07,7.16-24,14.51-36.23,21.41a3.77,3.77,0,0,0-2.21,3.93c.14,4.5,0,9,0,13.52ZM237.6,482.58c0-10.58,0-20.63,0-30.69,0-1.44-.77-2-1.83-2.56-8-4.31-16-8.62-23.92-13-1.69-.93-2.2-.77-2.18,1.29q.12,14,0,28.07c0,1.43.66,1.83,1.72,2.4,5.75,3.1,11.45,6.3,17.16,9.47Zm51.75-48.51c-9.51,5.65-18.35,10.91-27.21,16.14a2.21,2.21,0,0,0-1,2.23c0,9.45,0,18.89-.09,28.33,0,2,.63,1.79,1.93,1,8.31-5.3,16.64-10.56,25-15.85.74-.47,1.47-.88,1.46-2C289.34,454.19,289.35,444.5,289.35,434.07ZM202.7,463c.81-.75.49-1.78.49-2.71,0-6.62,0-13.24,0-19.85,0-9,0-9-8.1-13.09-2-1-2.33-.47-2.32,1.51q.11,13.23,0,26.47a2.88,2.88,0,0,0,1.68,2.92C197.24,459.77,200,461.4,202.7,463Zm41.86-8.32c0,9.05.18,18.11-.09,27.16-.1,3.64.48,6.11,4.37,7.23,2,.59,5.94-1.16,5.95-3.31,0-9.69,0-19.39,0-29.08,0-1.2-.46-1.86-1.49-.91-2.15,2-4,1.24-6.07-.15A3.54,3.54,0,0,0,244.56,454.68Zm61.7-30.15a61.44,61.44,0,0,1-6.57,3.64c-3.36,1.35-4.28,3.56-4.16,7.11.28,7.85.07,15.71,0,23.56,0,1.73.46,2.11,1.91,1.1a19.1,19.1,0,0,1,3.94-2.61c4.24-1.58,5.18-4.52,5-8.82C306,440.69,306.26,432.85,306.26,424.53Z"/><path class="cls-2" d="M313,449.89V436.78c0-4.51.11-9,0-13.52a3.77,3.77,0,0,1,2.21-3.93c12.21-6.9,24.16-14.25,36.23-21.41,21.81-12.95,34.94-32.05,41.13-56.36a246.54,246.54,0,0,0,6.88-45.74c2.82-45.29,1.28-90.63,1.29-135.94,0-21.48-.18-42.95-.31-64.42-.07-11.75-.2-23.5-.33-35.25,0-4.11.5-3.56-3.47-3.56H132.93c-10.51,0-21,.06-31.53,0-2,0-2.46.55-2.45,2.5.25,72.81.29,145.62.73,218.43.11,20,1.5,40.05,5.69,59.76C111.1,364.16,125.73,385,148,400.72c11.22,7.93,23.41,14.11,35.5,20.48,2,1.05,2.75,2.18,2.71,4.45-.15,8.39-.07,16.79-.05,25.18,0,1.42.1,2.59-1.91,1.39C163.76,440,143,428.06,124.73,412.38c-25.69-22-41.12-49.53-46-83a374.27,374.27,0,0,1-3.78-53.07q-.34-102.85-.58-205.71c0-12-.07-24-.24-36,0-2.26.65-2.76,2.82-2.76q172.49.12,345,.08c2.31,0,2.94.54,3,2.9q.27,84,.76,168.06c.19,26.6.13,53.2-.85,79.78-.83,22.69-2.73,45.27-8.83,67.31-8.29,29.93-26,52.36-52.63,68.17-13.26,7.88-26.08,16.49-39.11,24.77C320.6,445.11,317,447.37,313,449.89Z"/><path class="cls-2" d="M291.71,127.22c8.39,0,16.77.08,25.16.17a4,4,0,0,0,2.76-1.33q33.75-29.22,67.52-58.41c1.14-1,2.25-3,3.86-2.16,1.27.67.5,2.75.51,4.19q.5,85.45.92,170.93c.1,18.82,0,37.64-1.6,56.4-1.55,18.48-3.8,36.86-10.44,54.39a74.75,74.75,0,0,1-31.13,37.66c-11,6.9-22.14,13.5-33.36,20-2.91,1.69-2.91,1.68-2.91-1.6V131.83l-7.11,6.4-5,3.86-14.45-.15c1-1.75.54-2.92-1.37-3.56-.58-.2-1.13-.46-1.7-.69-.92-2.34.11-3.72,2.58-3.47.62.31,1.27.58,1.87.94,1.24.76,1.86.28,2.34-1s.65-2.15-1-2.52a17.86,17.86,0,0,1-2-.69,1.78,1.78,0,0,1-1.18-2.47c.38-1.27,1.33-1.18,2.29-1.2Z"/><path class="cls-2" d="M193,138.26l-6.61-6V412.37c-.44.1-.64.22-.76.16-15.81-7.92-31.23-16.4-44.46-28.42-15.31-13.91-23.91-31.37-27.94-51.4-3.77-18.7-4.84-37.65-4.93-56.65q-.44-100.06-.59-200.14c0-2.83-.08-5.66-.07-8.48,0-.75-.39-1.77.55-2.13s1.43.52,2,1q12.64,10.92,25.24,21.86L179.07,126a3.88,3.88,0,0,0,2.73,1.36c8.48-.09,16.95-.11,25.43-.15,1.31,0,2.62,0,3.92.1,2.07.11,2.58,1.24,1.54,3.27-1,.38-2,.81-3,1.13-1.54.48-1.12,1.44-.78,2.51s.9,1.65,2.09,1c.75-.43,1.56-.76,2.35-1.14l.59-.15.58-.27c.92,1.08,2.26,2,1.49,3.74-1.41,1.3-5.38.73-3.34,4.56l-14.84.12Z"/><path class="cls-2" d="M237.54,176.93c0,.88.06,1.76.06,2.65V440.05c-1.12.24-1.77-.49-2.51-.89-7.61-4.08-15.17-8.26-22.83-12.26a4.08,4.08,0,0,1-2.58-4.22q.1-94.21.06-188.43,0-39.08,0-78.17c0-1.06.1-2.11.16-3.17Z"/><path class="cls-2" d="M289.17,152.66c0,1.15.11,2.29.11,3.44q0,132.5.06,265a4.83,4.83,0,0,1-2.83,4.93c-8.37,4.69-16.61,9.61-25.36,14.71V180.1c0-1.06,0-2.12-.07-3.18Z"/><path class="cls-3" d="M193,138.26l4.89,3.82,5.37,5.1q0,23.85,0,47.7,0,111.72,0,223.42V422c-3.45-1.84-6.59-3.51-9.72-5.2-.64-.34-.67-1-.67-1.62s0-1.41,0-2.12q0-135.69,0-271.39C192.83,140.55,192.92,139.41,193,138.26Z"/><path class="cls-3" d="M300.9,142.09l5-3.86a6.15,6.15,0,0,1,.32,3.12q0,135.19.05,270.38c0,2.1-.47,3.45-2.46,4.36a48.34,48.34,0,0,0-6,3.39c-2,1.3-2.38.5-2.2-1.41.05-.62,0-1.24,0-1.86q0-132.81,0-265.61c0-1.15,0-2.3-.07-3.44Z"/><path class="cls-3" d="M254.46,182.5c.09,1.05.25,2.1.25,3.15q0,128.11,0,256.23c0,4.28-3.25,6.05-7.14,4.22-2.34-1.11-3-2.51-3-5.06q.12-127.2.07-254.38c0-1.15.1-2.29.16-3.43,1.7.91,2.86,3.52,4.52,3.23s3.17-2.34,4.74-3.62Z"/><path class="cls-4" d="M254.46,182.5l-.4.34c-1.57,1.28-3,3.33-4.74,3.62s-2.82-2.32-4.52-3.23a61.29,61.29,0,0,0-7.26-6.3l-27.64-24-6.66-5.73-5.37-5.1,14.84-.12c1,1.47,2,0,3,0l4.21,0c2.33,1.7-.23,2.08-.79,3s-2.71.85-1.33,2.72c1,1.4,1.88,2.17,3.44.52.78-.83,1.57-2.13,3-1.91,1.93.3,2.41,2.14,1.36,3.83-.59,1-2.78,1.62-.93,3.37,1.25,1.18,2.17,1.47,3.28-.23.62-1,1.07-2.43,2.43-2.53,1.78-.14,2.53,1.55,2,3.37-.32,1-2.23,2.09-.42,3.33,1.41,1,2.7,1.43,3.52-.93.33-1,0-3,2.45-2.55s2.28,2,1.71,3.67c-.64,1.88-.1,2.73,1.91,3s1.37-1.35,1.85-2.2-.32-2.71,1.71-2.77c1.86,0,3,.39,2.7,2.65-.11.92-1,2.57,1.2,2.82s2.95-.53,2.55-2.6.47-3.09,2.64-2.85c1.85.2,1.21,1.83,1.61,2.84s.09,2.33,2,2.1c2.07-.25,2.36-1.17,1.81-3-.39-1.27-1.36-2.67,1.07-3.49,2.59-.86,2.5,1.08,3.11,2.3,1,1.93,2.76,2.43,3.86.81.89-1.29-.56-2.38-.95-3.55-.31-.91-.62-1.66.55-2.13.91-.37,1.79-1.39,2.72,0a20.14,20.14,0,0,1,1.28,1.68c1,1.74,2,1.57,3.23.33,2-2-.68-2.53-1.11-3.74-.29-.78-1.26-1.41-.06-2.14.91-.56,1.51-2.28,3-.84.63.6,1.42,1.06,2,1.68,1,1,1.52.87,2.51-.16,1.75-1.82.27-2.44-.83-3.43-.84-.76-3.07-1.35-.74-3l4.11,0c1,.13,2.08,1.45,3.14,0l14.45.15-5.35,5.07a52.25,52.25,0,0,0-6.38,5.5l-28.09,24.26Z"/><path class="cls-2" d="M237.6,482.58l-9-5c-5.71-3.17-11.41-6.37-17.16-9.47-1.06-.57-1.74-1-1.72-2.4q.13-14,0-28.07c0-2.06.49-2.22,2.18-1.29,8,4.38,15.93,8.69,23.92,13,1.06.58,1.84,1.12,1.83,2.56C237.57,462,237.6,472,237.6,482.58Z"/><path class="cls-2" d="M289.35,434.07c0,10.43,0,20.12,0,29.81,0,1.12-.72,1.53-1.46,2-8.31,5.29-16.64,10.55-25,15.85-1.3.83-1.95,1-1.93-1,.08-9.44.08-18.88.09-28.33a2.21,2.21,0,0,1,1-2.23C271,445,279.84,439.72,289.35,434.07Z"/><path class="cls-3" d="M202.7,463c-2.75-1.6-5.46-3.23-8.24-4.75a2.88,2.88,0,0,1-1.68-2.92q.12-13.23,0-26.47c0-2,.32-2.53,2.32-1.51,8.07,4.1,8.1,4,8.1,13.09,0,6.61,0,13.23,0,19.85C203.19,461.22,203.51,462.25,202.7,463Z"/><path class="cls-3" d="M244.56,454.68a3.54,3.54,0,0,1,2.63.94c2,1.39,3.92,2.16,6.07.15,1-.95,1.49-.29,1.49.91,0,9.69.08,19.39,0,29.08,0,2.15-3.9,3.9-5.95,3.31-3.89-1.12-4.47-3.59-4.37-7.23C244.74,472.79,244.56,463.73,244.56,454.68Z"/><path class="cls-3" d="M306.26,424.53c0,8.32-.27,16.16.1,24,.2,4.3-.74,7.24-5,8.82a19.1,19.1,0,0,0-3.94,2.61c-1.45,1-1.92.63-1.91-1.1.07-7.85.28-15.71,0-23.56-.12-3.55.8-5.76,4.16-7.11A61.44,61.44,0,0,0,306.26,424.53Z"/><polygon class="cls-5" points="310.7 133.9 188.19 133.9 180.25 127.03 318.31 127.03 310.7 133.9"/><path class="cls-6" d="M290.4,119.73c1.91.08,2.68-.47,2.57-2.54-.13-2.29-1.66-1.64-2.83-1.58-2.36.11-3.08-.62-2.62-2.86.33-1.55,1.67-1.41,2.72-1.57,2.29-.33,2.44-1.57,1.62-3.34s-2.26-.59-3.17-.26c-2.32.85-2.8-.56-3.07-2.19s1.36-1.61,2.23-2.17c1.19-.77,2.56-1.16,1.52-3.17s-2.14-.88-3.32-.29c-1,.49-1.95,1.67-3-.17-.93-1.6,0-2.2,1-2.94a15.08,15.08,0,0,1,1.3-.91c1.55-.9,1-1.79.24-3s-1.59-1-2.51-.16c-.59.53-1.29.92-1.89,1.44s-1.39.88-1.91-.13c-.43-.82-1.87-1.45-.57-2.65.51-.48.94-1.06,1.49-1.51,1.35-1.1,1.25-2,0-3.21s-1.95-.55-2.72.47c-.32.42-.75.75-1.09,1.16-.87,1.08-1.64.89-2.67.1a1.5,1.5,0,0,1-.39-2.43c.51-.71.93-1.51,1.47-2.19.7-.89.61-1.44-.34-2.14-1.4-1-2.45-1.27-3.3.57-.29.63-.78,1.17-1.12,1.78-.8,1.42-1.73.66-2.7.25s-1.43-1-.89-2.22,1.42-2.4,1-3.73c-.35-1-1.61-1.21-2.49-1.21-1.4,0-1.18,1.53-1.59,2.41-.55,1.17-.57,2.58-2.62,2s-1.85-1.75-1.55-3.21c.13-.61.27-1.21.35-1.82.12-.9-.1-1.66-1.17-1.62s-2.23-.77-2.61.88a11,11,0,0,0-.43,2.59c0,1.68-.9,1.92-2.22,1.7-2.77-.45-1.27-2.63-1.44-4s-.67-1.79-2-1.77-2.06.28-1.94,1.76c.07.79,0,1.59,0,2.38,0,1.1-.53,1.59-1.6,1.64s-2,.19-2.17-1.22a12.63,12.63,0,0,1-.32-2.08c.08-1.92-1-2.11-2.54-2-1.76.16-1.66,1.12-1.33,2.39.2.76.12,1.6.36,2.35.38,1.2-.16,1.55-1.21,1.76s-2.06.93-2.67-.56a17.65,17.65,0,0,1-.92-2.48c-.37-1.6-1.27-1.27-2.38-.88s-1.93.86-1.26,2.27c.34.71.47,1.53.86,2.21.71,1.25.22,1.85-.92,2.47s-2.08.77-2.78-.62c-.36-.71-.92-1.31-1.29-2-.61-1.13-1.31-1.25-2.32-.47-.85.66-1.9,1.16-1,2.49.49.73.94,1.5,1.48,2.19.81,1,.74,1.75-.32,2.62s-1.85.62-2.66-.32c-.45-.53-1-1-1.46-1.53-.73-.9-1.4-.75-2.25-.11-1.27,1-1.85,1.86-.26,3.07A14.2,14.2,0,0,1,220.21,91c.93,1,.56,1.79-.19,2.76-.93,1.21-1.55.44-2.4,0-1.15-.61-1.89-2.44-3.59-1.48-2,1.1-1.69,2.42.8,4.2,1.07.76,2.34,1.29,1.27,3.08s-2,.77-3,.16c-1.27-.74-2.39-1.46-3.49.45s.42,2.23,1.44,2.92a10.39,10.39,0,0,0,1.39.76c1.42.72,1,1.85.69,3-.39,1.52-1.38.75-2.28.74-1.27,0-2.83-1.81-3.8.59-1.12,2.79,1,2.84,2.61,3.06,2,.27,2.31,1.42,2.09,3.15-.26,2.07-1.59,1.34-2.76,1.21-2.53-.29-3.82,1.06-2.89,3.1.74,1.62,2.33.84,3.54,1s2,0,2.14,1.61a1.61,1.61,0,0,1-1.87,1.94c-3.16-.08-3.43,1.58-2.67,4,1.31,0,2.62,0,3.92.1,2.07.11,2.58,1.24,1.54,3.27-1,.38-2,.81-3,1.13-1.54.48-1.12,1.44-.78,2.51s.9,1.65,2.09,1c.75-.43,1.56-.76,2.35-1.14l.59-.15.59-.27c.91,1.08,2.25,2,1.48,3.74h0c-1.41,1.3-5.38.73-3.34,4.56,1,1.47,2,0,3,0l2-1.44h0c1.29-.35,1.84.4,2.18,1.47,2.33,1.7-.23,2.08-.79,3s-2.71.85-1.33,2.72c1,1.4,1.88,2.17,3.44.52.78-.83,1.57-2.13,3-1.91,1.93.3,2.41,2.14,1.36,3.83-.59,1-2.78,1.62-.93,3.37,1.25,1.18,2.17,1.47,3.28-.23.62-1,1.07-2.43,2.43-2.53,1.78-.14,2.53,1.55,2,3.37-.32,1-2.23,2.09-.42,3.33,1.41,1,2.7,1.43,3.52-.93.33-1,0-3,2.45-2.55s2.28,2,1.71,3.67c-.64,1.88-.1,2.73,1.91,3s1.37-1.35,1.85-2.2-.32-2.71,1.71-2.77c1.86,0,3,.39,2.7,2.65-.11.92-1,2.57,1.2,2.82s2.95-.53,2.55-2.6.47-3.09,2.64-2.85c1.85.2,1.21,1.83,1.61,2.84s.09,2.33,2,2.1c2.07-.25,2.36-1.17,1.81-3-.39-1.27-1.36-2.67,1.07-3.49,2.59-.86,2.5,1.08,3.11,2.3,1,1.93,2.76,2.43,3.86.81.89-1.29-.56-2.38-.95-3.55-.31-.91-.62-1.66.55-2.13.91-.37,1.79-1.39,2.72,0a20.14,20.14,0,0,1,1.28,1.68c1,1.74,2,1.57,3.23.33,2-2-.68-2.53-1.11-3.74-.29-.78-1.26-1.41-.06-2.14.91-.56,1.51-2.28,3-.84.63.6,1.42,1.06,2,1.68,1,1,1.52.87,2.51-.16,1.75-1.82.27-2.44-.83-3.43-.84-.76-3.07-1.35-.74-3,.54-1.83,1.75-1.58,3.07-1l1,.94c1,.13,2.08,1.45,3.14,0,1-1.75.54-2.92-1.37-3.56-.58-.2-1.13-.46-1.7-.69-.92-2.34.11-3.72,2.58-3.47.62.31,1.27.58,1.87.94,1.24.76,1.86.28,2.34-1s.65-2.15-1-2.52a17.86,17.86,0,0,1-2-.69,1.78,1.78,0,0,1-1.18-2.47c.38-1.27,1.33-1.18,2.29-1.2l3.4-.1c.25-1.57,2.13-3.75-1.51-3.85-1.29,0-2.72,0-2.66-2.05C287.61,119,289.28,119.69,290.4,119.73Z"/><path class="cls-3" d="M214,133.93l.59-.27Z"/><path class="cls-2" d="M215.71,141.92l2-1.44c1.29-.35,1.84.4,2.18,1.47Z"/><path class="cls-2" d="M282.27,141l1,.94-4.11,0C279.74,140.13,281,140.38,282.27,141Z"/></svg>