<?xml version="1.0" encoding="UTF-8"?>
<svg width="199.37" height="249.45" version="1.1" viewBox="0 0 199.37 249.45" xml:space="preserve" xmlns="http://www.w3.org/2000/svg"><g transform="matrix(1.3333 0 0 -1.3333 -29.164 253.98)"><g transform="scale(.1)" fill-rule="evenodd"><path d="m966.38 34.016c-897.89 529.19-763.29 1388.3-703.38 1712 75.906-138.13 215.44-154.39 305.47-113.45 112.15 51 166.43 164.61 153.6 272.33 139.09-173.53 349.57-173.51 488.61-0.04-12.82-107.71 41.46-221.33 153.61-272.32 90.03-40.95 229.56-24.69 305.46 113.45 59.91-323.72 194.52-1182.8-703.38-1712" fill="#ee2722"/><path d="m966.38 138.54c-706.74 426-680.38 1155.4-640.61 1425.3 166.4-99.21 383.46 0.14 458.9 168.52 118.2-59.86 245.23-59.9 363.43-0.04 75.44-168.38 292.51-267.72 458.9-168.52 39.76-269.93 66.12-999.32-640.62-1425.3" fill="#fff"/><path d="m1050.1 520.98v580.55c61.92-6.22 131.09-19.07 223.06-38.59l-9.23-1.68c-48.78 10.17-84.14-10.58-90.46-32.04-4.3-14.68 4.77-30.064 31.95-36.958 27.8-7.051 47.85 17.798 78.9 9.688 28.78-7.528 50.11-38.141 92.1-45.579 19.48-3.449 48.85 2.383 58.23 27.707 6.13 16.532 0.46 34.112 6.39 57.952 7.24 29.09 26.76 23.93 34.76 63.47 8.72 39.39-11.21 42.61-5.99 72.13 4.28 24.19 16.61 37.94 17.73 55.54 1.73 26.96-22.73 44.23-41.93 49-41.38 10.28-73.31-9.01-102.67-4.18-31.67 5.21-39.87 36.07-68.13 40.94-27.64 4.76-42.2-5.61-44.22-20.77-2.97-22.18 20.62-55.45 69.33-66l7.86-5.32c-107.03 22.7-186.34 37.3-257.68 43.82v135.44l3.57-8.79c0.19-49.84 27.84-79.84 50.14-81.54 15.26-1.16 28.42 10.91 29.51 38.93 1.12 28.66-27.36 43.1-25.87 75.16 1.37 29.72 26.88 56.94 25.43 99.56-0.68 19.78-12.49 47.28-39.21 51.2-17.44 2.56-33.46-6.64-58.02-5.8-29.96 1.04-28.96 21.2-69.305 20.86-40.332 0.39-39.344-19.77-69.305-20.81-24.554-0.84-40.57 8.36-58.015 5.8-26.727-3.91-38.535-31.42-39.211-51.2-1.457-42.61 24.054-69.84 25.429-99.56 1.489-32.05-26.988-46.5-25.871-75.15 1.086-28.03 14.246-40.1 29.508-38.94 22.305 1.71 49.949 31.99 50.149 81.82l3.558 8.67v-135.67c-71.336-6.54-150.64-21.16-257.68-43.88l7.864 5.31c48.711 10.55 72.304 43.83 69.332 66-2.035 15.17-16.582 25.53-44.219 20.77-28.262-4.86-36.469-35.72-68.137-40.93-29.355-4.83-61.289 14.46-102.67 4.18-19.203-4.78-43.656-22.05-41.929-49 1.129-17.6 13.453-31.35 17.734-55.54 5.219-29.53-14.711-32.75-5.992-72.14 8-39.53 27.519-34.37 34.758-63.46 5.933-23.85 0.265-41.43 6.394-57.958 9.387-25.324 38.75-31.156 58.231-27.703 41.984 7.434 63.312 38.043 92.093 45.571 31.051 8.12 51.102-16.735 78.895-9.684 27.187 6.89 36.262 22.274 31.949 36.964-6.305 21.46-41.672 42.21-90.461 32.04l-9.215 1.67c91.961 19.54 161.13 32.42 223.05 38.65v-581.04l-4.035 9.402c-0.191 49.836-27.367 79.832-49.672 81.536-15.262 1.168-28.422-10.911-29.508-38.934-1.117-28.652 27.36-43.098 25.871-75.16-1.375-29.719-26.886-56.942-25.429-99.559 0.676-19.773 12.484-47.285 39.211-51.195 17.445-2.559 33.461 6.641 58.015 5.797 29.961-1.035 28.973-21.199 69.305-20.805 40.345-0.34 39.345 19.824 69.305 20.856 24.56 0.843 40.58-8.352 58.02-5.797 26.72 3.918 38.53 31.425 39.21 51.199 1.45 42.621-24.06 69.84-25.43 99.558-1.49 32.059 26.99 46.504 25.87 75.157-1.09 28.027-14.25 40.101-29.51 38.937-22.3-1.707-49.85-31.703-50.04-81.539l-3.67-8.926" fill="#198538"/><path d="m988.04 1372.6c-0.461 11.46-10.07 20.6-21.668 20.6-11.504 0-21.062-8.98-21.66-20.31v-159.82c-80.488-2.24-164.49-16.88-290.97-43.94-11.109-2.83-18.054-14.14-15.644-25.48 2.394-11.26 13.168-18.74 24.375-16.97 122.51 26.12 204.11 40.29 282.24 42.52v-614.91c0.598-11.329 10.156-20.317 21.66-20.317 11.598 0 21.207 9.145 21.668 20.606v614.62c78.131-2.2 159.72-16.34 282.25-42.43 11.2-1.77 21.98 5.71 24.37 16.97 2.41 11.34-4.54 22.64-15.65 25.47-126.49 27.03-210.48 41.65-290.97 43.87v159.52" fill="#fff"/></g></g></svg>
