<svg id="Layer_1" data-name="Layer 1" xmlns="http://www.w3.org/2000/svg" viewBox="0 0 595.28 841.89"><defs><style>.cls-1{fill:#ed1e25;}.cls-2{fill:#ef4532;}.cls-3{fill:#ef4431;}.cls-4{fill:#f04b35;}.cls-5{fill:#f8a084;}.cls-6{fill:#f47d5f;}.cls-7{fill:#fab9a1;}.cls-8{fill:#f37254;}.cls-9{fill:#f9a98f;}.cls-10{fill:#f79d81;}.cls-11{fill:#fbc8b3;}.cls-12{fill:#f37557;}.cls-13{fill:#f37658;}.cls-14{fill:#fff;}.cls-15{fill:#fffefe;}.cls-16{fill:#fffffe;}.cls-17{fill:#fffcfc;}.cls-18{fill:#fff9f9;}.cls-19{fill:#fef4f3;}.cls-20{fill:#ee3133;}.cls-21{fill:#f37b7c;}.cls-22{fill:#fbd2d3;}.cls-23{fill:#f37a7d;}.cls-24{fill:#ee2427;}.cls-25{fill:#ef3a39;}.cls-26{fill:#fcdcdc;}.cls-27{fill:#f04a48;}.cls-28{fill:#f37b7a;}.cls-29{fill:#f04d4a;}.cls-30{fill:#ee2628;}.cls-31{fill:#ed1f25;}.cls-32{fill:#ee2527;}.cls-33{fill:#ee2327;}.cls-34{fill:#ed2126;}.cls-35{fill:#ee2c2b;}.cls-36{fill:#ee2226;}.cls-37{fill:#ed2226;}.cls-38{fill:#ed2025;}</style></defs><title>Anapolina</title><path class="cls-1" d="M31.13,407.32c.66-.27.41-.88.44-1.34,2.18-36.59,11.21-71.4,27.88-104q44.24-86.66,133.48-125.71A254.7,254.7,0,0,1,256.24,158a268.33,268.33,0,0,1,69.34-1.81c106.22,11,196.13,84.9,227.34,186.69a263.21,263.21,0,0,1,11.24,95.85q-6,88.08-63,155.62a263.43,263.43,0,0,1-105.41,75.5,257.49,257.49,0,0,1-67.82,16.81c-5.22.56-10.47.91-15.71,1.36-1,.43-2.15-.19-3.14.38h-1.34c-.77-.47-1.62-.12-2.42-.23-1.56.12-3.15-.26-4.69.23h-5.34c-1.59-.49-3.23-.11-4.84-.23h-3c-.95.11-1.93-.24-2.85.23h-1.33c-3.5-.6-7.05-.4-10.57-.68A239.18,239.18,0,0,1,241.75,683a259.28,259.28,0,0,1-41.46-12.46A265.38,265.38,0,0,1,150,644.23,279.49,279.49,0,0,1,116,617.4a266.58,266.58,0,0,1-82.2-153.9,168.43,168.43,0,0,1-2.46-27.82v-7c-.12-1.62.25-3.27-.23-4.88v-4.89c.49-1.58.1-3.2.23-4.8v-2.22c-.12-1.06.25-2.16-.23-3.2Z"/><path class="cls-2" d="M300.6,688.36c1.58-.92,3.29-.26,4.93-.42.12.11.15.2.1.29s-.09.13-.14.13Z"/><path class="cls-3" d="M31.13,423.77c.92,1.58.26,3.29.41,4.93-.16.17-.29.15-.41,0Z"/><path class="cls-4" d="M31.55,414c-.17,1.63.49,3.34-.42,4.91V414C31.26,413.79,31.4,413.79,31.55,414Z"/><path class="cls-2" d="M290.32,688c1.65.12,3.36-.52,4.94.4h-4.89c-.13-.08-.18-.16-.15-.25S290.28,688,290.32,688Z"/><path class="cls-5" d="M31.13,408.66c.94.92.24,2,.38,3.07-.11.24-.23.24-.38,0Z"/><path class="cls-6" d="M290.32,688a1.75,1.75,0,0,1,.05.4h-3.11c-.14-.08-.18-.16-.15-.25s.08-.14.12-.14Z"/><path class="cls-7" d="M309.05,688.36c1-.79,2.08-.4,3.14-.38a2.34,2.34,0,0,0,0,.38Z"/><path class="cls-8" d="M31.13,428.67a2.83,2.83,0,0,1,.41,0c0,.89,0,1.78,0,2.67-.15.16-.28.15-.39,0Z"/><path class="cls-9" d="M287.23,688a2.56,2.56,0,0,1,0,.39h-2.67C285.35,687.43,286.35,688.09,287.23,688Z"/><path class="cls-10" d="M31.13,431.33l.39,0,0,2.22q-.19.24-.36,0Z"/><path class="cls-11" d="M31.13,433.56l.36,0v2.22h-.18l-.18,0Z"/><path class="cls-12" d="M31.13,411.77l.38,0c0,.75,0,1.49,0,2.24a2,2,0,0,1-.42,0Z"/><path class="cls-13" d="M305.49,688.36a2,2,0,0,1,0-.42c.73.14,1.59-.43,2.18.42Z"/><path class="cls-14" d="M297.81,670.39c-137.32-.1-249-111.88-248.7-248.9.32-137.73,111.7-249,249.05-248.78S546.51,284,546.72,421.49C546.92,558.71,435.14,670.48,297.81,670.39Z"/><path class="cls-1" d="M60.36,421.51c0-131.4,106.45-237.68,237.81-237.55,131.18.14,237.32,106.38,237.34,237.58S429.07,659.22,297.69,659.11C166.52,659,60.3,552.66,60.36,421.51Z"/><path class="cls-14" d="M298,227.26c107.09,0,194.13,87.05,194.2,194.2.06,107.47-87.15,194.42-195,194.37-106.65-.06-193.69-87.42-193.64-194.35C103.69,314.21,190.73,227.25,298,227.26Z"/><path class="cls-14" d="M424.64,596.94c-1.73-2.38-3.43-4.78-5.21-7.13-.67-.89-.61-1.37.3-2.12,3.49-2.84,3.46-2.88,6.08.71,2.91,4,5.79,8,8.74,12,.64.87.82,1.47-.27,2a1,1,0,0,0-.18.13c-2.18,2.27-4.52,2.66-7.46,1.23a93.67,93.67,0,0,0-8.83-3.25c2.1,2.91,3.82,5.39,5.67,7.78.76,1,.68,1.46-.34,2.22-3.53,2.64-3.5,2.68-6.1-.9-2.82-3.89-5.59-7.82-8.51-11.63-.94-1.23-.55-1.68.44-2.56,2.2-2,4.3-2.46,7.11-1.05a69.54,69.54,0,0,0,8.24,3Z"/><path class="cls-14" d="M497,509.11c-3.21-1.45-5.92-2.74-8.69-3.89-1.2-.49-1.51-.94-.93-2.22,1.79-3.94,1.73-4,5.62-2.22,4.44,2,8.86,4,13.33,5.94,1.19.51,1.35.89.94,2.21-1,3.14-2.9,4.54-6.19,4.75a33.34,33.34,0,0,0-8.31,1.89c2.56,1.14,5.09,2.37,7.7,3.41,1.5.59,1.8,1.25,1.09,2.75-1.67,3.52-1.6,3.57-5.17,2-4.44-2-8.86-4-13.33-5.94-1.35-.57-1.64-1-1.13-2.54,1-2.89,2.62-4.18,5.68-4.4A87,87,0,0,0,497,509.11Z"/><path class="cls-14" d="M170.67,257.09a8,8,0,0,1-2.48,5.93c-2.42,2.28-5,4.42-7.41,6.68-.79.73-1.17.39-1.73-.25-3.87-4.48-7.74-9-11.67-13.39-.73-.82-.65-1.26.16-1.92,2.39-2,4.66-4.12,7.09-6a7.69,7.69,0,0,1,10-.21C167.85,250.27,170.4,253.19,170.67,257.09Z"/><path class="cls-14" d="M227.67,224.21a7.53,7.53,0,0,1-3.61,6.1c-3.21,2-6.91,2.87-10.33,4.39-.83.37-1.22,0-1.49-.75-2.13-5.63-4.26-11.27-6.44-16.89-.3-.78-.32-1.14.58-1.45,3.33-1.15,6.51-2.71,9.94-3.61a7.27,7.27,0,0,1,7.29,2A16,16,0,0,1,227.67,224.21Z"/><path class="cls-14" d="M478.86,555.52c.05,5.26-5.76,11.39-10.76,11.37-5.45,0-11.3-5.56-11.37-10.74s5.66-11.34,10.74-11.38C472.74,544.74,478.82,550.47,478.86,555.52Z"/><path class="cls-14" d="M120.69,557.21c-5.28,0-10.61-5.73-10.57-11.4,0-5.26,5.59-10.44,11.25-10.48,5.27,0,10.66,5.65,10.7,11.29C132.11,551.85,126.36,557.2,120.69,557.21Z"/><path class="cls-14" d="M212.43,631c-6.11,0-11.59-4.76-11.67-10.14-.08-6,4.85-11.67,10.2-11.63,6,0,11.5,4.82,11.55,10.06C222.57,625.39,217.74,631,212.43,631Z"/><path class="cls-15" d="M314,631.44a62.46,62.46,0,0,1-8.86.44c-.92,0-1.81-.12-1.62,1.33.15,1.15,0,2.14,1.81,1.94,2.2-.25,4.44,0,6.65-.22,1.67-.14,1.61.84,1.54,1.9s.62,2.29-1.37,2.24c-2.22-.05-4.44.34-6.65.24-1.82-.07-1.74.85-1.76,2.15,0,1.5.35,2.13,2,2,2.51-.24,5-.21,7.54-.41,1.28-.09,1.92.38,1.57,1.58s1.27,3.07-1.35,3.17c-4.81.17-9.62.3-14.42.52-1.1,0-1.41-.38-1.44-1.4-.15-5.92-.35-11.83-.52-17.75,0-.52-.27-1.26.71-1.3,5.53-.22,11.06-.74,16.61-.3a2.65,2.65,0,0,1,.26,2C314.45,630.17,314.5,630.92,314,631.44Z"/><path class="cls-14" d="M180,607.69c-3.36,2.84-6.87,3.29-10.81,1,.75,1.4.94,2.64-.33,3.66s-2.81.64-4.11-.16A20.84,20.84,0,0,1,162,610c-.43-.37-1.21-.68-.53-1.56s1.08,0,1.53.28,1.16.92,1.78,1.31,1.29.72,1.78,0,0-1.36-.68-1.8c-.49-.32-1-.63-1.65-1,1.84-.93,1.27-1.87.42-3.29-2.51-4.19-.21-10.71,4.7-14,3.34-2.26,6.69-2,10,0s6.08,4.74,5.63,9.24c-.16,1.55-.52,2.59-2.35,1.44a11,11,0,0,0-2.21-1c-.79-.28-1.16-.55-1-1.58a3.36,3.36,0,0,0-1.91-3.66,3.63,3.63,0,0,0-4.16.29,11.19,11.19,0,0,0-3.83,5.33,3.19,3.19,0,0,0,1.17,3.76c1.24,1,2.69,1.64,4.05.61,1.68-1.27,2.51-.59,3.38.86A30.08,30.08,0,0,0,180,607.69Z"/><path class="cls-14" d="M180.36,230c.64,1,1.33,2,1.95,3,.47.8-.3,1-.75,1.31-2.25,1.43-4.48,2.88-6.79,4.19-1.26.7-.71,1.34-.19,2.08s.65,1.68,1.92.78c1.92-1.36,4-2.45,6-3.82,1.73-1.23,1.93.38,2.52,1.21s1.32,1.55-.25,2.35c-2.1,1.08-4,2.53-6.05,3.71-1.65.95-.32,1.72.1,2.46s.61,2,2.05,1c2.25-1.54,4.66-2.85,6.95-4.36,1-.62,1.41-.54,2,.46,1.71,2.69,1.76,2.65-1,4.34-3.57,2.23-7.16,4.43-10.69,6.73-1.05.69-1.51.58-2.16-.49-3-4.93-6.06-9.81-9.15-14.67-.62-1-.75-1.54.43-2.24,4-2.37,7.93-4.87,11.89-7.32C179.5,230.48,179.82,230.3,180.36,230Z"/><path class="cls-14" d="M249.49,221.84c.18.72-.27.84-.83,1q-7.32,2.1-14.64,4.26c-.88.26-1-.26-1.14-.86-1.67-5.81-3.34-11.62-5.07-17.41-.3-1,.12-1.33.95-1.56l13.82-4c2.1-.6,1.47,1.34,1.91,2.18s.7,1.73-.76,2.1c-2.57.64-5.08,1.55-7.67,2.1-1.48.32-1,1.08-.81,1.9s.43,1.73,1.73,1.31c2.17-.69,4.43-1.17,6.56-2,1.87-.7,1.92.62,2.25,1.69s.9,2-1,2.36c-2.31.43-4.52,1.34-6.8,1.92s-.49,1.76-.47,2.6.12,1.83,1.61,1.29c2.14-.79,4.37-1.32,6.57-2C248.34,218.09,249.49,219,249.49,221.84Z"/><path class="cls-15" d="M207.35,234.11c-.22,4.76-3.75,6.57-7.42,8.13s-6.44.95-8.74-1.44c-.94-1-1.07-1.63.33-2.24a14.33,14.33,0,0,0,2.29-1.35c.87-.59,1.54-.82,2.45.13,1.25,1.32,2.8,1.1,4.24.17.92-.59,1.64-1.41,1.21-2.57a2.12,2.12,0,0,0-2.56-1.3c-1.74.31-3.46.81-5.21,1.05-4.83.65-7.95-2.16-7.19-6.39a5.88,5.88,0,0,1,2-3.38,15.8,15.8,0,0,1,7.89-3.77,5.18,5.18,0,0,1,2.62.34c1.28.46,2.63,1.29,2.83,2.56.13.85-1.46,1.2-2.3,1.73-1.23.77-2.4,1.88-4,.29-.66-.66-1.85-.16-2.71.36a1.7,1.7,0,0,0-1,2c.32,1,1.15.94,2,.77a40.52,40.52,0,0,1,6.73-1.26C204.77,227.82,207.35,230.25,207.35,234.11Z"/><path class="cls-14" d="M108.28,516.71c-.57-1.08-1-2.07-1.6-3-.68-1.17-1.34-2.18,0-3.47.92-.88.31-2.08-.27-3.07-.4-.67-1-1.24-1.78-1a1.53,1.53,0,0,0-1,2,36.82,36.82,0,0,1,.89,5.91c.12,3.6-.93,5.61-3.56,6.69a6.62,6.62,0,0,1-7.91-2.3,14.6,14.6,0,0,1-3.31-8.29,6.46,6.46,0,0,1,0-1.32c.22-1.81,2.91-5.37,3.68-4.86,1.54,1,1.85,3.07,2.79,4.62.4.66-.36.86-.7,1.16a3,3,0,0,0-.93,3.22c.37,1.46,1.08,2.77,2.84,2.46s1.69-1.8,1.47-3.17a27,27,0,0,1-.7-6.15,5.31,5.31,0,0,1,3.35-5,5.1,5.1,0,0,1,5.75,1.06,13,13,0,0,1,4.2,9.89C111.55,514.14,110.22,515.53,108.28,516.71Z"/><path class="cls-14" d="M107.79,538.76a6.71,6.71,0,0,1-3.35-1,13.91,13.91,0,0,1-5.71-10.06,4,4,0,0,1,.3-1.95c.62-1.63,1.73-3.89,3-3.64,1.54.28,2.15,2.77,3.15,4.29.39.58-.43.82-.71,1.21a3.06,3.06,0,0,0-.68,3.08c.58,1.43,1.32,2.9,3.16,2.4s1.39-2,1.11-3.33c-.38-1.87-.87-3.74-1.1-5.63-.28-2.36.38-4.39,2.64-5.63a5.45,5.45,0,0,1,6.38.75,13.58,13.58,0,0,1,4.65,8.79,5.6,5.6,0,0,1-.34,2.39c-.4,1.12-1.08,2.39-2.2,2.62s-1.26-1.37-1.86-2.12c-1-1.25-2-2.49-.48-4.19.67-.78-.07-1.84-.59-2.64s-1.08-1.23-2-.82-.76,1.24-.61,1.91c.47,2.23,1.23,4.39,1.49,6.68A6,6,0,0,1,107.79,538.76Z"/><path class="cls-14" d="M142.23,586.34c6.08-3.29,11.93-6.43,17.74-9.64a1.92,1.92,0,0,1,2.53.16c4.22,3.41,4.25,3.38,2.36,8.42S161,595.58,159,600.92c-1.5-1.29-2.8-2.49-4.19-3.57-1.05-.83-.42-1.61,0-2.33a1.72,1.72,0,0,0-.51-2.64,15.39,15.39,0,0,1-2.5-2.2c-1.16-1.29-2.29-1.67-3.63-.29-.71.73-1.33.58-2-.13C144.94,588.61,143.67,587.6,142.23,586.34Z"/><path class="cls-14" d="M177.24,613.48c5.45-4.48,10.71-8.78,15.94-13.12a1.42,1.42,0,0,1,2-.11c1.31.83,2.66,1.58,4,2.32a1.24,1.24,0,0,1,.72,1.58c-1.16,6.69-2.24,13.39-3.37,20.25-2-.64-3.55-1.89-5.26-2.79-.77-.4-.38-1-.15-1.54.77-1.74,0-2.71-1.57-3.37a10.27,10.27,0,0,1-2.1-1.22c-1.37-1-2.59-1.28-3.69.36-.54.81-1.21.86-2.05.3C180.34,615.25,178.92,614.47,177.24,613.48Z"/><path class="cls-14" d="M398.51,625.15c-1.14-7-2.24-13.68-3.34-20.38-.08-.49-.43-1,.21-1.37,1.73-1,3.44-2,5.18-3,.46-.26.83.16,1.17.43l15.87,13.06c-1.48,1.34-3.27,2-4.85,3.06-1.08.7-1.49-.36-1.94-.87-.89-1-1.66-1.22-2.77-.34a10.84,10.84,0,0,1-2.49,1.44c-1.72.71-2.7,1.69-1.76,3.66.41.85,0,1.32-.76,1.73C401.6,623.33,400.22,624.17,398.51,625.15Z"/><path class="cls-16" d="M258,645c-2-.43-3.69-.86-5.42-1.16-1.28-.23-1.24-1.21-1.16-2,.16-1.54-.63-2.05-1.95-2.25a16.18,16.18,0,0,1-2.36-.56c-1.73-.53-3.29-.86-4,1.5-.35,1.19-1.42.76-2.26.58-4.61-1-4.6-1-2-5,2.83-4.25,5.7-8.46,8.45-12.76a2.29,2.29,0,0,1,2.89-1.18c4.94,1.2,4.9,1.17,5.56,6.45S257.18,639.36,258,645Z"/><path class="cls-16" d="M86.89,505.21a28.81,28.81,0,0,0-1.09-3.29c-.8-1.73-1-3.14,1.18-4,1-.41.8-1.35.39-2.08-1-1.74-.33-4.32-2.63-5.33-.83-.35-2.22.5-2.68-.41a23.27,23.27,0,0,1-1.62-5c-.19-.82.62-.58,1.09-.56,6.28.26,12.56.55,18.84.77,1.26,0,1.73.58,2.11,1.73,1.58,4.85,1.63,4.85-2.22,8s-7.72,6.19-11.59,9.28A3,3,0,0,1,86.89,505.21Z"/><path class="cls-14" d="M437.29,600.69c-2.48-6.35-4.9-12.66-7.42-18.92a1.6,1.6,0,0,1,.51-2.07c3.92-3.88,3.9-3.89,8.79-1.33,4.44,2.32,8.88,4.64,13.35,6.9,1.07.54,1.37,1,.27,1.79a14,14,0,0,0-2.14,1.93c-1.11,1.25-2.18,1.54-3.52.32-.32-.29-.84-.87-1.35-.43-1.64,1.38-3.25,2.8-4.79,4.28-.57.54.06,1.16.35,1.56,1,1.42.59,2.37-.72,3.28C439.48,598.78,438.69,600,437.29,600.69Z"/><path class="cls-14" d="M515.71,484.56c-.64,2-1.22,3.67-1.68,5.37-.35,1.29-1.34,1-2.14.91a1.82,1.82,0,0,0-2.31,1.65,14.93,14.93,0,0,1-.89,2.72c-.73,1.61-.82,2.93,1.11,3.73,1,.41.92,1.19.63,2-.49,1.47-1,2.94-1.5,4.53a9.18,9.18,0,0,1-2.82-1.95c-4.3-3.39-8.53-6.86-12.88-10.18a2.34,2.34,0,0,1-.91-3.12c1.55-4.42,1.49-4.51,6.13-4.81C504.12,485.08,509.79,484.86,515.71,484.56Z"/><path class="cls-14" d="M368.6,637.33c0-7.23,0-14,0-20.8a1.62,1.62,0,0,1,1.24-1.74c4.9-2.11,4.91-2.15,8.49,1.69,3.43,3.67,6.76,7.44,10.25,11,1.18,1.23.71,1.57-.52,2a13.69,13.69,0,0,0-2.24.92c-1.53.87-2.74.79-3.64-.88-.47-.85-1.15-1-2.05-.5a14.19,14.19,0,0,1-2.66,1.06c-1.86.54-3.19,1.37-2.55,3.66a1,1,0,0,1-.75,1.34C372.5,635.7,370.9,636.4,368.6,637.33Z"/><path class="cls-16" d="M425,245.9a4.72,4.72,0,0,1,5.9-5,10.92,10.92,0,0,1,7.55,6,4.69,4.69,0,0,1-3.83,7c-1.13.11-1.35.32-1.05,1.38a5,5,0,0,1-1.86,5.52,5.61,5.61,0,0,1-6.2.87,15,15,0,0,1-6.15-4.93,6,6,0,0,1,2.4-9c.53-.22,1.26-.53,1.69-.34C425.42,248.29,425.2,247.12,425,245.9Z"/><path class="cls-14" d="M356.94,619.31c2.23-.13,4.16,1.1,5.84,2.92.69.75.62,1.2-.28,1.64a16.92,16.92,0,0,0-2.12,1.19c-1.07.72-1.89.94-3-.18s-2.45-.83-3.75-.23a3.59,3.59,0,0,0-2.12,3.6,11.29,11.29,0,0,0,1.82,5.85,3.27,3.27,0,0,0,3.81,1.58c1.66-.41,3-1.37,3-3.11-.05-1.92.78-2.08,2.32-2.05,3.88.08,4.48,1,2.92,4.61-2.66,6.25-13.25,7.46-17.35,1.94a13.55,13.55,0,0,1-2.67-8.52C345.45,623.19,350.3,619.27,356.94,619.31Z"/><path class="cls-15" d="M286.8,208.58c0,.74,0,1.49,0,2.22-.37,4.79-2.76,7-8,7.36-4.1.3-7-1.89-8-6.11a21.89,21.89,0,0,1-.49-8.79c.62-3.56,2.84-5.66,6.78-6.21s7,.87,8.43,4.17A17.81,17.81,0,0,1,286.8,208.58Z"/><path class="cls-14" d="M133.54,574.61c-6.85-.16-11.84-9.15-8.35-15.13a13.62,13.62,0,0,1,6.75-5.84c3.55-1.45,7.15-.47,10.22,2.71,2.8,2.9,4.33,6.15,2.75,10.23-.45,1.16-1,1.84-2.15.67a10.12,10.12,0,0,0-1.77-1.33c-.94-.59-1.45-1.11-1-2.43a3.27,3.27,0,0,0-1.38-3.9,3.81,3.81,0,0,0-4.18-.27,12.25,12.25,0,0,0-4.31,3.75,3.35,3.35,0,0,0-.07,4.3c1,1.43,2.45,2.25,4.22,1.41,1.46-.69,2-.08,2.55,1.18C138.55,573.83,138,574.71,133.54,574.61Z"/><path class="cls-14" d="M453,560.58c2.5.14,4.26,1.71,5.6,3.88a5.1,5.1,0,0,1-.23,5.83A27.14,27.14,0,0,1,455.2,574c-.72.76-.79,1.22.07,1.93,1.31,1.08,2.48,2.31,3.77,3.42.74.63.69,1,.06,1.76-3.38,3.94-3.34,4-7.09.42-3.44-3.25-6.87-6.5-10.37-9.69-.86-.77-.89-1.22-.08-2,2.29-2.31,4.47-4.74,6.73-7.08A6.48,6.48,0,0,1,453,560.58Z"/><path class="cls-14" d="M319.6,210.74a20.89,20.89,0,0,1,1.43-8.13c1.46-3.34,4.28-4.76,8.38-4.22s6.15,2.51,6.81,6.12A18.85,18.85,0,0,1,335,214.94c-1.52,3.91-4.36,5.13-9.28,4.28a6.91,6.91,0,0,1-6.06-6.83C319.64,211.65,319.61,210.92,319.6,210.74Z"/><path class="cls-16" d="M385.21,231.37c1.4.51,2.78,1,4.16,1.49.58.2,1.11.35,1,1.18a1.66,1.66,0,0,0,1.2,2.08,2.42,2.42,0,0,0,2.64-.69c.72-.81,1.35-1.7,2.2-2.79-1.68-.09-3.05.21-4.37-.36a6.46,6.46,0,0,1-3.61-8.25,6.83,6.83,0,0,1,8.62-4.62c6.15,1.79,8.45,6.44,6.08,12.36a18.49,18.49,0,0,1-3.5,5.86c-2.64,2.84-6.22,3.38-9.93,1.55S384.57,235.07,385.21,231.37Z"/><path class="cls-15" d="M422.74,234.42c-.22.36-.46.73-.7,1.1-1.63,2.63-3.28,5.26-4.9,7.9-.36.59-1.07,1.31,0,1.82,2.29,1.09.31,2,0,3-.46,1.27-1.19,1.63-2.42.7s-1.34.49-1.6,1c-.77,1.57-1.66,1.69-2.94.6-1-.87-3.17-1.24-1.32-3.25,1-1.11.72-1.78-.55-2.49-2.13-1.18-4.13-2.59-6.23-3.82-.8-.48-1-.83-.45-1.69,1.12-1.88,2.31-3.35,4.69-3.92,3.78-.92,7.44-2.33,11.15-3.52,1.06-.34,4.84,1.18,5.25,2.09A1.55,1.55,0,0,1,422.74,234.42Z"/><path class="cls-16" d="M261.66,624.71c5.15.75,10.41,1.56,15.68,2.22,1.25.16,1.52.53,1.14,1.65a3.88,3.88,0,0,0-.12,1.32c.07,1.8-.8,2.19-2.47,2-4.12-.54-4.18-.48-4.85,3.55-.54,3.2-1,6.43-1.39,9.64-.14,1-.34,1.45-1.63,1.24-5-.81-4.92-.73-4.08-5.75.5-3,.77-6,1.27-9,.17-1-.16-1.34-1.06-1.44a24.46,24.46,0,0,1-2.85-.42c-.72-.17-1.94.38-2.08-.7a7.46,7.46,0,0,1,.69-4.31C260.17,624.18,261,624.87,261.66,624.71Z"/><path class="cls-14" d="M314.35,629.29c.1-.58-.44-1.17,0-1.75l17.7-2.7c.59-.09,1,0,1,.72a22.61,22.61,0,0,0,.42,2.84c.25,1.1-.29,1.47-1.24,1.57l-.21,0c-1.58.21-3.78-.21-4.51,1-.61,1,.29,3,.51,4.48.42,3,.83,6,1.24,9,0,.29.23.72.11.85-1.36,1.42-3.27.72-4.88,1.21-1.14.35-1.38-.38-1.5-1.28-.52-3.79-1.07-7.59-1.56-11.39-.2-1.5-.41-2.76-2.47-2.06a18.69,18.69,0,0,1-2.84.44c-.79.14-1.46.09-1.77-.81A2.48,2.48,0,0,1,314.35,629.29Z"/><path class="cls-15" d="M286.31,632c-.19,2.2-.48,5.74-.84,9.27-.13,1.24.06,1.84,1.56,1.85,2.21,0,4.42.39,6.63.55,1.22.09,1.57.51,1.38,1.81-.5,3.39-.41,3.36-3.8,3-3.68-.37-7.37-.7-11.06-1-1.07-.07-1.55-.24-1.43-1.5.55-5.89,1-11.79,1.47-17.69.08-1.06.52-1.46,1.55-1.25.58.12,1.17.19,1.76.26C286.54,627.69,286.54,627.69,286.31,632Z"/><path class="cls-15" d="M492.76,537.45c-.32.56-.49.89-.69,1.2-2.33,3.75-4.73,7.47-7,11.27-.72,1.21-1.26,1-2.23.39q-7.26-4.63-14.61-9.16c-1-.61-1.24-1-.55-2.16,2.51-4,2.46-4.08,6.54-1.52,2.56,1.6,5.18,3.12,7.66,4.83,1.2.83,1.72.54,2.36-.58,1.1-1.92,2.42-3.71,3.47-5.65.64-1.2,1.22-1.16,2.17-.46S491.81,536.85,492.76,537.45Z"/><path class="cls-15" d="M297,203.53a16.3,16.3,0,0,1-2.75,1.51c-1,.33-2.22,1.92-3.16.58s.13-3.92,1.72-4.6,3.28-1.47,4-3c1.18-2.48,3.22-1.77,5.1-1.84.9,0,.83.65.83,1.24,0,6.14,0,12.28,0,18.43,0,.83-.25,1.1-1.11,1.18-4.66.44-4.66.47-4.66-4.06Z"/><path class="cls-15" d="M347,208.93a18.33,18.33,0,0,1-5,1.39c-.41,0-.92.27-1.2-.24-.47-.86,1.08-4.05,2.05-4.25a11.7,11.7,0,0,0,6.24-3.09c1.42-1.43,3.12-.09,4.56.26,1,.24.2,1.54,0,2.36-1.1,5.35-2.26,10.69-3.31,16-.3,1.51-.76,2-2.45,1.58-3.55-1-3.57-.86-2.82-4.5C345.65,215.4,346.27,212.31,347,208.93Z"/><path class="cls-15" d="M376.14,218.23a16.62,16.62,0,0,1-6.07.48c-.15-.9.47-1.56.62-2.33a2.19,2.19,0,0,1,2.74-2,8.26,8.26,0,0,0,5.59-1.75c.85-.6,4.45.07,5,.9.32.47,0,.83-.19,1.22q-3.22,8.47-6.43,16.95c-.34.92-.74,1.19-1.77.84-4.16-1.42-4.17-1.38-2.62-5.44,1.05-2.76,2.08-5.51,3.12-8.27A4.15,4.15,0,0,0,376.14,218.23Z"/><path class="cls-15" d="M140.21,585.1a9.59,9.59,0,0,0-1.09-2c-3.25-3.16-3.25-3.13-.18-6.3,3.3-3.4,6.6-6.8,9.84-10.26.89-.95,1.41-1.29,2.53-.16,3.3,3.32,3.37,3.27.06,6.69s-6.51,6.69-9.75,10A22.76,22.76,0,0,0,140.21,585.1Z"/><path class="cls-15" d="M494.18,534.41c-.32-.17-.65-.33-1-.51-5.09-2.83-10.16-5.68-15.27-8.46-1.08-.58-1.22-1-.59-2.14,2.32-4.15,2.27-4.18,6.33-1.92s8.06,4.59,12.19,6.69c1.6.81,1.6,1.53.72,2.79-.58.85-1,1.78-1.54,2.68C494.84,533.91,494.74,534.38,494.18,534.41Z"/><path class="cls-15" d="M340.88,623.32c.63-.19.81.58.94,1.33q1.59,8.82,3.15,17.65c0,.14.1.31,0,.43-.46,1.24-1.74,1.12-2.54,1-1.24-.12-3.16,1.69-3.6-.18-1.41-6.11-2.35-12.32-3.49-18.48-.11-.61.19-.77.69-.86C337.53,624,339,623.69,340.88,623.32Z"/><path class="cls-17" d="M314.71,212.6a23.54,23.54,0,0,0-3.72-.36c-1.87.1-2.23-.53-2.07-2.37s.56-2.49,2.44-2a10.68,10.68,0,0,0,3.29.22c2-.14,2.78.32,2.58,2.65C317.05,212.82,316.1,212.71,314.71,212.6Z"/><path class="cls-17" d="M358.79,216.16c2.45.79,4.84,1.21,6.84,2.34,1.22.69-.3,2.16-.43,3.31-.12,1-.68.84-1.4.58a40.9,40.9,0,0,0-5-1.57c-1.66-.35-1.74-1.22-1.13-2.42C358.05,217.63,357.87,216.49,358.79,216.16Z"/><path class="cls-18" d="M200.56,601.76c-1.1,0-1.85-1-2.7-2s-1.24-2.12-2.82-1.22c-.28.15-1.16-.35-1.46-.76s.23-.95.56-1.31c1.29-1.47,2.85-1.36,4.4.18,1,1,1.61,3,3.81,2,.26-.12,1.53.37,1.24,1.18A2.84,2.84,0,0,1,200.56,601.76Z"/><path class="cls-19" d="M302.78,626.35c2.65-5.25.94-4.15,6.88-4.23C307.33,623.92,306.32,626.84,302.78,626.35Z"/><path class="cls-20" d="M314.35,629.29l.06,2.16H314C314.15,630.74,313.49,629.87,314.35,629.29Z"/><path class="cls-1" d="M456.93,465.36c.06,41.41-34.12,75.34-75.93,75.37-42,0-76.14-33.81-76.06-75.41S339,390,380.93,390,456.86,423.84,456.93,465.36Z"/><path class="cls-1" d="M214.49,389.67a75.85,75.85,0,0,1,76.09,75.23c.3,41.25-33.93,75.31-75.82,75.45s-76.09-33.59-76.17-75.28C138.5,423.62,172.56,389.78,214.49,389.67Z"/><path class="cls-1" d="M373.71,327.46c.08,41.36-34,75.33-75.65,75.41-42.13.09-76.37-33.72-76.34-75.38s34.11-75.31,76-75.35S373.63,285.91,373.71,327.46Z"/><path class="cls-1" d="M150.74,521.62c13.06,14.09,28.86,23.53,47.85,26.8,31.5,5.43,58.27-3.84,80-27.23a79.54,79.54,0,0,0,18.53-33.88,9.9,9.9,0,0,1,.47-1.22c9.92,32.47,30.81,54.26,64.2,61.93s61.52-3,84.77-27.65a124.53,124.53,0,0,1-10.3,14.24,178.23,178.23,0,0,1-68.11,51.27,173.52,173.52,0,0,1-50.11,13.17q-57.43,6.26-107.86-21.88a175.12,175.12,0,0,1-59.9-55.1C150.11,521.58,150.32,521.5,150.74,521.62Z"/><path class="cls-1" d="M317.56,244.09a138.21,138.21,0,0,1,27.82,5.15c60.6,17,106.92,62.86,124.4,123.23A179,179,0,0,1,464.57,486c-.35,0-.62,0-.35-.45.62-4.08,1.54-8.11,1.9-12.25,1.83-20.87-3.2-39.94-15.42-56.92-13.62-18.93-32.12-30.47-55-34.71a81.68,81.68,0,0,0-30.26.17,3.31,3.31,0,0,1-2,0c10.08-12,16.61-25.69,18.85-41.13,3.91-26.94-3.38-50.68-21.82-70.77a83.18,83.18,0,0,0-42.8-25c-.5-.12-1-.29-1.49-.44C316.4,243.5,317,244,317.56,244.09Z"/><path class="cls-1" d="M130.4,483.74a173.54,173.54,0,0,1-11.09-66c1.49-49.2,19.9-91.16,55.3-125.38,24.59-23.78,54-38.87,87.44-45.88a97.24,97.24,0,0,1,16.2-2.38c.45-.14,1-.42,1,.43a85.42,85.42,0,0,0-37.41,18.79c-15.14,13.15-24.89,29.53-28.33,49.34-4.37,25.22,1.71,47.89,17.51,68,.17.23.31.47.65,1-2.8-.37-5.31-.76-7.83-1-39.34-3.83-74.92,17.77-89.24,54.33a81.63,81.63,0,0,0-4,46.61c.08.43.09.88.14,1.32S131.18,483.71,130.4,483.74Z"/><path class="cls-1" d="M280.39,410.73a86.11,86.11,0,0,0,35.1-.1,87.19,87.19,0,0,0-17.72,34.31,88.85,88.85,0,0,0-6.84-18.22A94,94,0,0,0,280.39,410.73Z"/><path class="cls-21" d="M310,243.26c1.35,0,2.72-.31,4,.38,0,.28-.32.27-.45.43l-3.56-.42c-.17-.08-.23-.17-.17-.26S309.92,243.26,310,243.26Z"/><path class="cls-22" d="M310,243.26a.44.44,0,0,0,0,.39l-4.81-.62A8.32,8.32,0,0,1,310,243.26Z"/><path class="cls-23" d="M281.92,243.65a5.72,5.72,0,0,1,3.93-.19l-3.93.63c-.14-.1-.19-.19-.14-.29S281.88,243.65,281.92,243.65Z"/><path class="cls-24" d="M313.54,244.07l.45-.43c1.19.12,2.44-.15,3.57.45-.47.08-1-.05-1.38.4Z"/><path class="cls-25" d="M281.92,243.65a.82.82,0,0,1,0,.44l-2.68.42-1-.43C279.42,243.47,280.69,243.71,281.92,243.65Z"/><ellipse class="cls-26" cx="288.59" cy="243.02" rx="1.86" ry="0.15"/><path class="cls-27" d="M150.74,521.62l-.44.45a3.59,3.59,0,0,1-1.17-1.85C150.12,520.38,150.4,521,150.74,521.62Z"/><path class="cls-28" d="M131.24,484.63a2.21,2.21,0,0,1,.23,2.29l-.63-1.84A.72.72,0,0,1,131.24,484.63Z"/><path class="cls-29" d="M131.24,484.63l-.4.45-.44-1.34.36-.88A2.49,2.49,0,0,1,131.24,484.63Z"/><path class="cls-30" d="M464.22,485.55l.35.45-.52,1.5A1.65,1.65,0,0,1,464.22,485.55Z"/><path class="cls-31" d="M158.53,252c1.87,0,5,2.81,6,5.36.94,2.28-.7,3.34-2,4.67-.82.86-1.24.5-1.84-.23-1.56-1.88-3.18-3.7-4.79-5.53-1.75-2-1.68-2.31.69-3.69A4.73,4.73,0,0,1,158.53,252Z"/><path class="cls-31" d="M221.48,223.86c0,2.37-2.28,4.49-4.11,4.43-.58,0-.67-.4-.83-.81-1.06-2.81-2.09-5.64-3.24-8.41-.37-.88-.09-1.11.63-1.43,2.93-1.3,4.73-.71,6.16,2.16A11.45,11.45,0,0,1,221.48,223.86Z"/><path class="cls-31" d="M473.3,556.89a4.09,4.09,0,0,1-5.38,3.87,9.75,9.75,0,0,1-5-3.88,3.66,3.66,0,0,1,.24-4.55,3.7,3.7,0,0,1,4.29-1.49C470.26,551.65,473.31,554.78,473.3,556.89Z"/><path class="cls-31" d="M122.12,541.17a4,4,0,0,1,3.94,2.19,3.7,3.7,0,0,1-.31,4.36,10.84,10.84,0,0,1-5.24,3.56,3.53,3.53,0,0,1-3.94-1.35,3.66,3.66,0,0,1-.74-4.13A9.37,9.37,0,0,1,122.12,541.17Z"/><path class="cls-31" d="M210.57,625.76a7.13,7.13,0,0,1-1.24-.3c-2.69-1.1-3.23-3.85-1.48-7.39s4.11-4.51,6.66-3a3.94,3.94,0,0,1,1,.85c1.67,2,.88,4.06-.08,6S213.53,625.9,210.57,625.76Z"/><path class="cls-24" d="M157.35,589.27l-3.32-3c1-.66,1.93-1.29,2.87-1.89s2-1.22,3.52-2.15Z"/><path class="cls-32" d="M188.75,611.1l5.57-5.16c-.5,2.24-1,4-1.29,5.9-.23,1.53-.85,1.43-1.86.74C190.45,612.09,189.69,611.67,188.75,611.1Z"/><path class="cls-33" d="M400.51,606.55,406,611.6a3.13,3.13,0,0,1-.48.55c-3.2,2-3.19,2-4.07-1.75C401.21,609.34,400.93,608.28,400.51,606.55Z"/><path class="cls-24" d="M250.25,628.11a27.36,27.36,0,0,1,.54,7.18c-4.32-.69-4.33-.69-2.21-4.36C249.06,630.11,249.55,629.31,250.25,628.11Z"/><path class="cls-34" d="M90.3,490.42h7.35c-1.94,1.35-3.59,2.47-5.21,3.66-.59.43-.87.31-1.08-.33Z"/><path class="cls-24" d="M442.11,586.17l-3.4,3c-1-2.13-1.95-4.09-3.07-6.45C438.21,583.49,439.93,585.08,442.11,586.17Z"/><path class="cls-35" d="M504.06,494.91l-6.21-4.35c1.62,0,2.61,0,3.61,0C505.85,490.65,505.85,490.65,504.06,494.91Z"/><path class="cls-33" d="M378.37,624.85c-4.21,2.1-4.21,2.1-4.42-2.41,0-.92-.14-1.85-.26-3.37Z"/><path class="cls-36" d="M429.1,254.17a3.48,3.48,0,0,1-3.33,3.21,2.44,2.44,0,0,1-2.39-2.65,3.36,3.36,0,0,1,3.32-3.17A2.43,2.43,0,0,1,429.1,254.17Z"/><path class="cls-34" d="M429.44,247.55c.19-1.46,1-2.36,2.44-2.25a2.32,2.32,0,0,1-.16,4.63C430.21,249.9,429.54,249,429.44,247.55Z"/><path class="cls-31" d="M281.2,208.42a10.25,10.25,0,0,1-.24,4,2.29,2.29,0,0,1-1.94,1.88,2.07,2.07,0,0,1-2.25-1.46,18.84,18.84,0,0,1-.76-10.2,2,2,0,0,1,2-1.71,2.17,2.17,0,0,1,2.21,1.48C281.07,204.24,281.05,206.24,281.2,208.42Z"/><path class="cls-37" d="M453.66,568.67a4.64,4.64,0,0,1-2.4,3.26c-.36.19-3.24-2.62-3-2.92.79-1.13,1.6-2.39,3.15-2.47C452.77,566.47,453.46,567.36,453.66,568.67Z"/><path class="cls-38" d="M330.85,206.92A22,22,0,0,1,330,213c-.37,1.35-1.07,2.62-2.63,2.51-1.73-.13-2.16-1.62-2.23-3.08a25,25,0,0,1,1.06-8.06c.36-1.28,1-2.34,2.63-2.14s2,1.35,2,2.69C330.89,205.59,330.85,206.26,330.85,206.92Z"/><path class="cls-38" d="M398.94,225.5c.07,2.52-1.46,4.45-3.23,4.41a2.42,2.42,0,0,1-2.6-2.63c-.05-2,1.68-4.09,3.29-4.05A2.37,2.37,0,0,1,398.94,225.5Z"/><path class="cls-24" d="M415,236.83c-.52,2-1.71,3.24-2.5,4.67-.35.64-.83.34-1.29,0-1.1-.71-2.21-1.4-3.69-2.34Z"/><path class="cls-14" d="M436.91,507.82c-7.77,0-15.37,0-23,0-1.19,0-1.21-.95-1.49-1.62-2.74-6.45-5.49-12.89-8.11-19.38a2.3,2.3,0,0,0-2.56-1.71q-19.89.08-39.79,0a2.41,2.41,0,0,0-2.71,1.85c-2.46,6.48-5,12.9-7.57,19.35-.37.94-.72,1.56-2,1.55-7.19-.08-14.37,0-21.56,0-.35-.67.09-1.14.3-1.64q20.47-48.12,40.9-96.24a2.33,2.33,0,0,1,2.52-1.77c6.67.09,13.33.07,20,0a2,2,0,0,1,2.12,1.37q21.23,48.54,42.5,97C436.65,506.9,436.73,507.26,436.91,507.82Z"/><path class="cls-14" d="M160,507.82c3.85-9.09,7.58-17.9,11.33-26.7q15.06-35.42,30.11-70.82a2.9,2.9,0,0,1,3.23-2.13c6.44.13,12.89.07,19.34,0,1.05,0,1.74.14,2.23,1.25q21.31,48.85,42.69,97.69a3,3,0,0,1,0,.68h-11c-3.56,0-7.12-.08-10.67,0a2.42,2.42,0,0,1-2.75-1.79c-2.58-6.43-5.35-12.79-8-19.2a2.37,2.37,0,0,0-2.58-1.75q-20,.09-40,0a2.13,2.13,0,0,0-2.36,1.65c-2.48,6.47-5.1,12.89-7.57,19.36a2.29,2.29,0,0,1-2.58,1.72C174.41,507.77,167.37,507.82,160,507.82Z"/><path class="cls-14" d="M256.36,366.15c-3.11,0-6.22-.11-9.33,0-2,.11-2.39-.32-1.56-2.23,4.47-10.27,8.85-20.58,13.24-30.88q13.68-32.15,27.29-64.31a3.21,3.21,0,0,1,3.58-2.33c6.22.14,12.44.1,18.66,0a2.52,2.52,0,0,1,2.8,1.76q21,48,42,96c.72,1.64.39,2-1.31,1.95q-10-.1-20,0a2.37,2.37,0,0,1-2.57-1.79c-2.64-6.41-5.4-12.76-8-19.18a2.21,2.21,0,0,0-2.41-1.65q-20.1.07-40.22,0a2.18,2.18,0,0,0-2.39,1.68c-2.46,6.31-5.06,12.58-7.41,18.93a2.62,2.62,0,0,1-3.05,2C262.59,366.07,259.48,366.15,256.36,366.15Z"/><path class="cls-1" d="M381.56,431.46l14.27,35.21c.33.81,1,1.68-.71,1.68-9.33,0-18.66,0-28.31,0C371.71,456.09,376.52,444.05,381.56,431.46Z"/><path class="cls-1" d="M213.72,431.47c5.11,12.53,10,24.58,15,36.79H199.07C204,456,208.76,443.94,213.72,431.47Z"/><path class="cls-1" d="M313.44,328.55H283.66c4.88-12.24,9.71-24.36,14.74-37C303.52,304.16,308.42,316.21,313.44,328.55Z"/></svg>