<?xml version="1.0" encoding="UTF-8"?>
<svg id="Camada_1" data-name="Camada 1" xmlns="http://www.w3.org/2000/svg" viewBox="0 0 1000 1000">
  <defs>
    <style>
      .cls-1 {
        fill: #fefefe;
      }

      .cls-1, .cls-2, .cls-3, .cls-4, .cls-5, .cls-6, .cls-7, .cls-8, .cls-9, .cls-10, .cls-11, .cls-12, .cls-13, .cls-14, .cls-15, .cls-16, .cls-17, .cls-18, .cls-19, .cls-20, .cls-21, .cls-22, .cls-23, .cls-24, .cls-25, .cls-26, .cls-27, .cls-28 {
        stroke-width: 0px;
      }

      .cls-2 {
        fill: #ecb885;
      }

      .cls-3 {
        fill: #eb6b06;
      }

      .cls-4 {
        fill: #f4d381;
      }

      .cls-5 {
        fill: #0e191d;
      }

      .cls-6 {
        fill: #eaca6b;
      }

      .cls-7 {
        fill: #efc771;
      }

      .cls-8 {
        fill: #0d1920;
      }

      .cls-9 {
        fill: #c89b16;
      }

      .cls-10 {
        fill: #f0c59b;
      }

      .cls-11 {
        fill: #eed180;
      }

      .cls-12 {
        fill: #c69318;
      }

      .cls-13 {
        fill: #f4e3a0;
      }

      .cls-14 {
        fill: #f1d786;
      }

      .cls-15 {
        fill: #f2ce6d;
      }

      .cls-16 {
        fill: #f0a506;
      }

      .cls-17 {
        fill: #f8d994;
      }

      .cls-18 {
        fill: #f5dd95;
      }

      .cls-19 {
        fill: #f1c86a;
      }

      .cls-20 {
        fill: #9e7e24;
      }

      .cls-21 {
        fill: #f5a900;
      }

      .cls-22 {
        fill: #eb6a06;
      }

      .cls-23 {
        fill: #0e191f;
      }

      .cls-24 {
        fill: #efd176;
      }

      .cls-25 {
        fill: #eddc86;
      }

      .cls-26 {
        fill: #fefefd;
      }

      .cls-27 {
        fill: #d39a16;
      }

      .cls-28 {
        fill: #f2e3a3;
      }
    </style>
  </defs>
  <path class="cls-21" d="M517.71,976.37c-6.11,1.91-12.23,3.83-18.34,5.74-3.75,1.78-7.48,1.06-11.21-.12-20.28-6.52-40.25-13.77-59.68-22.6-12.15-5.52-24.17-11.35-35.9-17.62-12.18-6.51-23.7-14.3-35.23-21.96-20.8-13.83-40.38-29.23-58.72-46.22-21.2-19.64-40.52-40.97-58.23-63.79-1.19-1.56-2.84-2.78-3.59-4.69-4.99-7.06-9.98-14.11-14.97-21.17-1.26-1.84-2.36-3.78-3.63-5.61-1.85-3.09-3.69-6.18-5.54-9.27-2.45-2.67-2.68-6.76-5.73-9.05-4.64-8.27-9.6-16.39-13.83-24.86-4.83-9.65-9.02-19.62-13.47-29.45-.75-1.67-1.44-3.37-2.15-5.05-1.2-3.07-2.37-6.15-3.81-9.12-7.05-17.78-12.73-36.04-17.76-54.45-3.58-13.11-6.01-26.53-8.45-39.94-6.24-34.25-7.25-68.75-7.22-103.42.17-152.61.06-305.22.08-457.83,0-3.54.29-7.07.44-10.61,1.74-1.33,3.48-2.65,5.26-3.92,2.15-.09,4.3-.26,6.46-.26,226.82-.01,453.64.04,680.45-.12,14.95-.01,15.07,3.18,15.13,15.29.75,157.29.15,314.59.24,471.88,0,15.7-.21,31.5-1.94,47.07-2.06,18.48-4.02,37.02-8.16,55.26-2.63,11.57-5.81,23.01-8.1,34.65-.37,1.9-2.07,3.38-1.77,5.5-1.61,3.55-2.39,7.38-3.68,11.03-5.16,18.53-12.45,36.24-20.32,53.75-2.57,3.36-3.03,7.75-5.45,11.18-.07.55-.15,1.09-.22,1.64-1.86,2.16-2.44,4.96-3.73,7.4-3.02,4.01-5.01,8.6-7.29,13.03-1.15,2.21-2.41,4.36-3.78,6.45-16.68,28.88-35.67,56.09-57.76,81.14-13.79,15.64-28.52,30.29-44.03,44.2-10.03,9-20.73,17.17-31.3,25.51-1.79,1.29-3.77,2.31-5.39,3.83-1.83,1.25-3.67,2.5-5.5,3.74-1.69,1.48-3.73,2.44-5.56,3.73-15.28,11.12-31.58,20.57-48.21,29.45-18.23,9.74-37.24,17.79-56.43,25.41-2.12.84-4.57.77-6.46,2.3-1.57,1.41-3.96.44-5.5,1.93Z"/>
  <path class="cls-19" d="M798.88,726.6c.82-4.22,2.01-8.25,5.45-11.18-1.55,3.86-1.63,8.44-5.45,11.18Z"/>
  <path class="cls-15" d="M824.65,661.67c-.2-4.15,1.15-7.79,3.68-11.03-.45,3.94-.96,7.85-3.68,11.03Z"/>
  <path class="cls-24" d="M206.96,760.01c4.66,1.27,4.02,5.9,5.73,9.05-3.11-2.26-4.38-5.68-5.73-9.05Z"/>
  <path class="cls-25" d="M488.17,981.99c3.74-.09,7.46.81,11.21.12-3.77,2.95-7.5,2.48-11.21-.12Z"/>
  <path class="cls-4" d="M173.69,691.53c2.72,2.43,3.47,5.69,3.81,9.12-2.15-2.67-3.76-5.57-3.81-9.12Z"/>
  <path class="cls-28" d="M218.23,778.33c2.04,1.34,3.83,2.83,3.63,5.61-2.68-.92-4-2.72-3.63-5.61Z"/>
  <path class="cls-7" d="M146.04,21.36c-1.26,1.97-2.37,4.14-5.26,3.92.98-2.35,2.15-4.44,5.26-3.92Z"/>
  <path class="cls-18" d="M794.93,735.64c-.08-3.13,1.19-5.59,3.73-7.4-.61,2.79-1.52,5.42-3.73,7.4Z"/>
  <path class="cls-13" d="M783.86,755.11c.34-2.69,1.57-4.86,3.78-6.45.28,3.06-1.32,5.01-3.78,6.45Z"/>
  <path class="cls-6" d="M634.32,917.27c.94-2.61,3.25-3.17,5.56-3.73-1.07,2.42-2.77,3.88-5.56,3.73Z"/>
  <path class="cls-11" d="M645.38,909.8c1.34-1.92,2.59-3.98,5.39-3.83-.86,2.6-3.18,3.15-5.39,3.83Z"/>
  <path class="cls-14" d="M236.82,805.11c1.63,1.23,3.52,2.26,3.59,4.69-2.06-.9-3.92-1.95-3.59-4.69Z"/>
  <path class="cls-17" d="M517.71,976.37c1.09-2.77,3.59-1.51,5.5-1.93-1.31,2.13-3.4,2.04-5.5,1.93Z"/>
  <path class="cls-23" d="M382.85,387.61c-12.18-10.3-24.33-20.65-36.56-30.88-24.99-20.92-50.03-41.77-75.04-62.66-30.08-25.12-60.12-50.3-90.27-75.33-2.41-2-3.26-4.02-3.25-7.03.08-19.58,0-39.17.02-58.75,0-1.27-.73-3.03.91-3.7,1.24-.51,2.24.76,3.22,1.46,16.75,11.98,33.5,23.97,50.25,35.96,34.48,24.69,68.97,49.37,103.45,74.07,40.23,28.82,80.44,57.66,120.68,86.48,1.86,1.33,3.83,2.51,5.75,3.76,3.25.86,5.51,3.48,9.23,5.53-2.52-3.33-5.63-4.72-7.05-7.66-21.17-18.26-42.31-36.56-63.5-54.79-51.95-44.68-103.93-89.34-155.91-134-20.96-18.01-41.91-36.04-62.95-53.96-2.93-2.5-4.26-5.11-4.18-9.08.25-12.79.08-25.58.07-38.38,2.91-1.72,4.54.65,6.21,2.16,11.99,10.85,24.23,21.42,36.47,31.98,19.83,17.09,39.55,34.31,59.39,51.39,16.21,13.96,32.26,28.12,48.39,42.18,16.01,13.97,32.1,27.86,48.18,41.75,8.62,7.45,17.33,14.8,25.79,22.45,9.13,8.25,18.51,16.25,27.93,24.18,13.44,11.31,26.42,23.13,39.78,34.53,15.81,13.5,31.53,27.1,47.26,40.68,10.84,9.35,21.75,18.63,32.25,28.37,6.1,5.66,12.76,10.68,19.05,16.12,1.59,1.38,3.71,2.62,2.05,5.3-1.78,1.69-3.59.88-5.54.24-40.02-13.18-81.67,12.46-87.91,52.83-4.03,26.07,4.64,47.73,24.61,65.02,32.04,27.74,63.97,55.61,95.93,83.45,6.02,5.25,12.31,10.26,17.84,15.99,12.4,12.86,15.64,28.17,10.54,45.22-.63,2.1-.6,3.63.6,5.56,5.04,8.05,7.99,16.92,9.7,26.23,1.84,9.18,2.08,18.39-.57,27.41-1.64,5.6-3.78,11.12-6.75,16.19-3.07,5.24-6.03,5.22-9.08.11-12.94-21.65-31.47-36.12-55.82-42.66-6.48-1.74-13.27-2.69-20.1-2.69-43.3,0-86.6.04-129.9-.01-20.93-.02-40.37,16.38-43.26,38.09-1.74,13.13,2.31,24.33,9.37,34.82,14.63,21.74,28.62,43.9,43.06,65.77,17.67,26.74,34.9,53.77,52.39,80.62,5.38,8.26,10.95,16.41,16.21,24.75.91,1.44,1.95,2.84,2.04,4.59.07,1.31-.73,1.5-1.79.94-17.36-6.22-34.72-12.47-51.46-20.27-49.25-22.94-93.18-53.54-131.41-92.17-39.08-39.5-70.28-84.54-92.6-135.47-23.36-53.29-36.41-109.07-38.4-167.34-.92-26.97-.15-53.95-.42-80.92-.04-3.79,1.68-3.55,4.3-2.62,21.88,7.73,43.77,15.44,65.69,23.06,2.28.79,5.45,3.35,6.87,1.02.96-1.57-3.01-3.06-5.01-4.28-22.68-13.87-45.33-27.78-68.09-41.52-2.89-1.75-3.87-3.65-3.84-6.99.17-19.11.08-38.23.11-57.35,0-1.34-.58-3.06.69-3.91,1.62-1.08,2.87.67,4.04,1.4,34.91,21.8,69.77,43.69,104.66,65.53,2.52,1.58,4.74,3.67,7.68,4.53,4.12,1.3,7.45,4.09,11.96,6.56-2.91-3.84-6.84-5.27-9.11-8.47-24.09-20.01-49.18-38.72-73.9-57.92-14.44-11.22-28.75-22.61-43.18-33.86-1.99-1.55-2.93-3.22-2.92-5.82.09-19.57.03-39.15.04-58.72,0-1.36-.39-3.13.85-3.89,1.58-.97,2.83.74,4.01,1.49,36.35,23.29,72.65,46.66,108.98,69.98,29.59,18.99,59.21,37.93,88.83,56.88.38.24.85.33,1.28.49,4.19,1.34,7.44,4.5,11.56,6.06-3.18-3.69-7.4-6.27-10.41-10.09Z"/>
  <path class="cls-22" d="M570.48,399.75c.07-1.72-.91-2.84-2.12-3.89-26.96-23.37-53.87-46.8-80.87-70.13-27.71-23.95-55.54-47.76-83.23-71.72-18.2-15.75-36.23-31.69-54.38-47.5-26.91-23.42-53.86-46.8-80.8-70.19-19.2-16.66-38.41-33.3-57.61-49.96-9.94-8.62-19.87-17.26-29.8-25.89-1.13-.98-2.09-2.39-3.94-1.84,2.11-2.46,4.91-1.08,7.3-1.09,131.43-.09,262.87-.08,394.3-.08,75.04,0,150.08,0,225.12,0,6.72,0,6.65.07,5.94,6.79-.27,2.53.43,5.15.43,7.74.02,144.8.21,289.61-.19,434.41-.06,21.1-.34,42.34-4.09,63.34-1.45,8.11-2.4,16.35-3.92,24.48-.23,1.2-.02,2.68-1.37,3.2-1.67.64-2.38-1.03-3.36-1.89-8.39-7.4-16.98-14.56-25.38-21.96-10.95-9.63-21.9-19.27-32.84-28.91-9.52-8.39-19.24-16.57-28.81-24.93-8.89-7.77-17.73-15.62-26.79-23.19-10.92-9.13-21.46-18.71-32.48-27.75-10.76-8.83-20.76-18.58-31.27-27.74-12.14-10.58-24.48-20.93-36.7-31.42-3.38-2.9-6.69-5.88-9.95-8.91-.97-.91-1.83-1.6-3.19-.99Z"/>
  <path class="cls-3" d="M492.04,942.21c2.35-2.02-.35-3.31-1-4.4-4.12-6.82-8.55-13.45-12.91-20.13-13.16-20.13-26.37-40.25-39.51-60.39-12.64-19.37-25.34-38.71-37.82-58.2-9.24-14.43-19.71-28.1-27.52-43.4-10.3-20.17-1.49-47.36,18.42-58.27,7.03-3.85,14.43-5.93,22.43-5.93,44.06,0,88.12-.55,132.17.22,23.79.42,44.28,10.1,60.86,27.61,5.63,5.95,10.53,12.32,14.43,19.51,1.67,3.07,3.8,3.02,5.73-.54,4.5-8.27,8.38-16.85,8.83-26.46.27-5.84.08-11.71.1-17.56,7.37,6.45,14.77,12.87,22.1,19.36,7.57,6.7,15.03,13.54,22.64,20.2,6.46,5.65,13.09,11.1,19.62,16.67,7.7,6.57,15.4,13.15,23.04,19.79,2.19,1.9,2.23,4.02.54,6.51-5.97,8.77-12.82,16.85-19.56,24.99-11.47,13.86-24.23,26.52-37.11,39.03-14.7,14.29-30.85,26.8-47.46,38.83-14.31,10.36-29.23,19.68-44.57,28.24-18.1,10.09-36.83,19.07-56.45,25.97-8.36,2.94-16.69,5.98-25.03,8.97-.81.29-1.5.15-1.97-.64Z"/>
  <path class="cls-9" d="M382.85,387.61c4.46,2.46,7.87,6.25,11.81,9.37.74.58,1.46,1.38.82,2.33-.66.98-1.68.55-2.44.02-3.74-2.63-8.11-4.32-11.35-7.68,4.86-.06,1.33-2.53,1.16-4.03Z"/>
  <path class="cls-27" d="M297.7,423.01c3.83,1.59,6.67,4.55,9.83,7.08.69.55,1.6,1.22.77,2.2-.73.87-1.72.4-2.49-.08-3.72-2.33-7.65-4.35-10.96-7.29,1.31-.1,2.79.06,2.85-1.91Z"/>
  <path class="cls-12" d="M464.2,348.85c3.05,1.48,5.15,4.16,7.76,6.19.67.53,1.39,1.37.66,2.33-.72.94-1.61.59-2.39,0-2.77-2.09-5.87-3.76-8.21-6.4,1.31-.11,2.15-.71,2.18-2.13Z"/>
  <path class="cls-16" d="M599.98,652.6c-8.26-2.88-13.02-8.8-14.91-17.2-.23-1.01-.88-2.38.07-3.04,1.25-.87,2.19.39,3.11,1.2,6.71,6,13.43,11.99,20.15,17.99,1.68,1.53,1.2,2.25-.89,2.34-2.6.1-4.98-1.08-7.53-1.29Z"/>
  <path class="cls-20" d="M599.98,652.6c2.26-.42,4.38.44,6.57.7,1.27.15,2.52.2,1.85-1.75.84-.04,1.6.23,1.75,1.11.23,1.32-.85,1.47-1.75,1.53-2.93.18-5.81-.02-8.41-1.59Z"/>
  <path class="cls-23" d="M641.34,198.8c-.63,6.95.96,15.27-1.29,23.52-2.59,9.5-12.51,16.06-20.7,15.86-8.31-.2-16.64-.19-24.95.1-3.35.12-4.74-1.2-5.38-4.18-1.06-4.95-2.06-9.93-3.41-14.8-.91-3.25.52-3.63,3.16-3.61,8.63.08,17.26-.1,25.88.09,3,.07,4.02-.69,3.94-3.84-.22-8.78-.16-17.58-.02-26.36.04-2.78-.9-4.03-3.68-3.9-1.54.07-3.12-.2-4.61.08-6.87,1.27-11.33-1.92-14.64-7.55-1.01-1.71-2.12-3.43-3.49-4.85-6.5-6.74-8.69-14.66-7.75-23.94.92-8.99-1.02-18.16,1.59-27.11,2.43-8.35,10.47-15.3,19.09-15.54,9.24-.26,18.49-.08,27.73-.09,1.56,0,2.91-.07,3.37,2.13,1.13,5.42,2.4,10.82,3.96,16.13,1.07,3.63-.39,4.26-3.54,4.22-8.63-.11-17.26.03-25.88-.09-2.87-.04-3.94.52-3.76,3.86.43,8.15.41,16.33.2,24.5-.1,3.97.58,6.09,5.22,5.57,3.65-.41,7.46.45,11.06-.11,4.48-.7,7.22.69,9.38,4.58,1.93,3.47,4.45,6.6,6.69,9.9,1.33,1.97,1.91,4.12,1.88,6.54-.09,5.86-.03,11.72-.03,18.89Z"/>
  <path class="cls-5" d="M652.63,170.43c0-14.65.45-29.32-.13-43.94-.51-12.88,11.23-25.09,24.15-23.89,5.8.54,11.7.19,17.55.02,2.69-.08,3.88,1.06,4.47,3.52,1.14,4.77,2.47,9.51,3.7,14.26.78,3.03.52,4.96-3.54,4.77-6.3-.3-12.63.03-18.95-.14-3.42-.09-4.96.85-4.94,4.67.13,27.45.09,54.9,0,82.34,0,2.82.93,3.77,3.75,3.71,6.77-.15,13.56.09,20.33-.05,3.03-.06,4.26.84,3.46,3.98-1.34,5.21-2.57,10.45-3.84,15.67-.59,2.43-2.3,2.91-4.55,2.88-6.32-.1-12.64.04-18.95-.08-13.19-.25-22.38-9.51-22.49-22.85-.13-14.96-.03-29.92-.03-44.87Z"/>
  <path class="cls-8" d="M714.58,170.19c0-14.49.29-28.98-.08-43.46-.35-13.87,10.66-24.89,23.92-24.1,5.83.35,11.7.12,17.55,0,2.53-.05,3.93.71,4.48,3.4,1.04,5.11,2.25,10.2,3.7,15.21,1,3.46-.54,3.96-3.4,3.91-6.62-.11-13.24.03-19.86-.11-2.78-.06-3.86.95-3.85,3.74.11,25.74-.01,51.47.28,77.21.11,9.78.53,9.78,10.52,9.77,4.16,0,8.32.11,12.47-.07,3.24-.14,4.99.33,3.79,4.3-1.59,5.25-2.78,10.63-3.96,16-.45,2.06-1.74,2.26-3.38,2.24-7.54-.07-15.11.21-22.63-.29-10.4-.69-19.61-10.35-19.57-22.91.04-14.95,0-29.9.01-44.85Z"/>
  <path class="cls-26" d="M467.49,190.26c.71-5.89,3.28-11.17,4.71-16.75.37-1.43.93-2.88,1.28-4.37.86-3.7,4.05-7.65,2.26-10.93-1.66-3.05-5.79-4.77-8.88-7-5.57-4.02-11.18-7.99-16.75-12.01-.18-.13-.17-.55-.3-1.04,3.56-1.32,7.27-.62,10.87-.78,6.15-.28,12.31-.45,18.46-.36,3.19.04,4.57-1.17,5.44-4.23,2.62-9.28,5.59-18.47,8.56-28.15,2.99,2.25,3.11,5.36,4.06,7.9,2.47,6.62,4.7,13.33,6.78,20.08.87,2.82,2.28,3.86,5.25,3.76,8.77-.28,17.55-.3,26.32-.35.96,0,2.39-.57,2.79.83.34,1.19-.79,1.84-1.65,2.49-6.7,5.08-13.24,10.39-20.14,15.17-3.03,2.1-3.49,4.17-2.36,7.3,2.75,7.66,5.37,15.37,8.07,23.06.51,1.44,1.32,2.81.41,4.79-6.84-3.79-12.96-8.56-19.31-12.97-9.99-6.94-7.09-6.53-16.49.34-4.83,3.53-9.44,7.36-14.31,10.84-1.38.98-2.6,2.69-5.05,2.37Z"/>
  <path class="cls-1" d="M702.67,367.52c.61,1.04,1.62,2.33.55,3.28-1.46,1.3-2.99-.18-4.09-.93-6.76-4.66-13.47-9.41-20.04-14.34-2.42-1.81-4.03-2.28-6.7-.01-5.06,4.3-10.64,7.99-16,11.94-2.16,1.92-4.49,3.59-7.15,4.94-1.18-1.74-.82-3.31-.18-4.89,2.2-6.99,4.17-14.07,6.69-20.94,1.57-4.27,1.03-7.1-2.97-9.64-6.31-4.01-12.37-8.43-18.48-12.75-1.43-1.01-3.35-1.65-3.71-3.87,1.65-1.25,3.55-.76,5.31-.79,8.31-.17,16.62-.33,24.92-.31,2.66,0,3.92-1.1,4.48-3.55,1.97-8.69,4.82-17.13,7.55-25.6.31-.97.09-2.49,1.47-2.55,1.3-.05,1.49,1.4,1.82,2.37,2.73,7.97,5.52,15.92,8.05,23.95,1.07,3.4,2.55,4.98,6.5,4.73,8.28-.53,16.6-.47,24.9-.57,1.28-.02,3.08-.47,3.55,1.22.43,1.54-1.38,1.76-2.31,2.46-6.73,5.04-13.5,10.05-20.2,15.14-2.2,1.67-3.3,3.47-2.03,6.66,2.4,6.05,4.13,12.37,6.14,18.58,1.3,1.59.38,3.95,1.91,5.47Z"/>
  <path class="cls-2" d="M649.06,367.51c.08,1.31.16,2.61.25,4.18,2.62-1.34,4.41-3.55,7.08-4.23-.85,3.25-4.13,3.8-6.35,5.42-1.44,1.04-3.12.18-2.48-2.12.31-1.13.3-2.5,1.5-3.25Z"/>
  <path class="cls-10" d="M702.67,367.52c-2.97-1.01-1.42-3.59-1.91-5.47,1.85,1.4,2.14,3.34,1.91,5.47Z"/>
  <path class="cls-26" d="M522.69,824.53c-8-5.6-16.05-11.1-23.92-16.83-2.66-1.94-4.59-2.09-7.28.1-6.52,5.32-13.33,10.27-19.99,15.41-1,.77-2.13,1.94-3.21,1.26-1.42-.89-.48-2.56-.12-3.78,2.37-7.95,4.66-15.94,7.39-23.77,1.2-3.45.34-5.3-2.52-7.21-7.13-4.76-14.08-9.78-21.09-14.72-.9-.64-2.72-.8-2.02-2.5.49-1.19,1.9-.69,2.91-.72,8.92-.22,17.84-.52,26.76-.53,3.01,0,4.23-1.01,5.02-3.97,2.24-8.45,4.89-16.79,7.44-25.16.29-.95.35-2.43,1.69-2.45,1.67-.02,1.49,1.66,1.86,2.74,2.72,7.82,5.61,15.58,8.01,23.49,1.18,3.89,2.98,5.32,7.17,5.04,8.13-.54,16.3-.46,24.45-.6,1.18-.02,2.81-.56,3.27.89.45,1.4-1.19,2.03-2.1,2.73-6.68,5.12-13.33,10.31-20.2,15.18-2.78,1.97-3.2,3.79-2.03,6.91,3,8.02,5.62,16.18,8.39,24.28.43,1.27,1.24,2.52.12,4.21Z"/>
</svg>