<?xml version="1.0" encoding="utf-8"?>
<!-- Generator: Adobe Illustrator 26.4.1, SVG Export Plug-In . SVG Version: 6.00 Build 0)  -->
<svg version="1.1" id="Camada_1" xmlns="http://www.w3.org/2000/svg" xmlns:xlink="http://www.w3.org/1999/xlink" x="0px" y="0px"
	 viewBox="0 0 984 738" style="enable-background:new 0 0 984 738;" xml:space="preserve">
<style type="text/css">
	.st0{fill:#FFFFFF;}
</style>
<path class="st0" d="M291.2,77c6.9-0.9,20.3,2.5,27.7,3.8c10.4,1.9,20.8,3.6,31.2,5.2c21.2,2.9,42.5,5.3,63.9,7.1
	c75.5,6.2,144,3.9,219-4.3c15.2-1.6,30.4-3.6,45.5-5.9c11.7-1.8,24-4.3,35.8-4.7c13.1-0.4,20.3,12,27.3,21.1
	c4.3,5.6,8.7,11.1,13.2,16.6c10.8,13.3,22,26.2,33,39.4c3.7,4.4,6.5,8.5,2.7,14.2c-3.1,4.6-7.9,8.9-11.9,12.9
	c-20.7,21.5-30.7,43.2-31.4,73c-0.7,28.4,7.1,51.9,18.4,77.7c4.9,11.3,11.4,20.8,15.8,32.7c13,35.1,11.6,72.6,1.8,108.3
	c-16.7,63.2-53.7,121.7-110.6,155.4c-29.3,17.1-64.2,27.1-96.4,37.3c-16.6,5.2-34.4,8.2-49.5,17c-5.5,3.2-11.5,9-17.8,10
	c-4.1,0.7-10.1-5.3-13.4-7.2c-17.6-10.3-38.8-15.8-58.5-20.9c-44.1-11.6-79.4-23.7-115.3-52.8c-45.2-36.6-77.3-82.3-91.4-139.4
	c-9.1-35-9.7-64.5,0.6-99.5c4.4-16.8,13.2-32.2,19.8-48c20-47.7,24.8-106.6-17.1-144.3c-5.5-4.9-11.2-9.3-16.9-13.8
	c2.1-4.7,4.8-9.2,7.8-13.4c3.2-4.5,7.9-9.7,11.5-14.1l20.8-25.4l17.4-21.4C278.9,87.7,284.1,79.8,291.2,77z"/>
<path d="M296.7,94.3c4.3-0.3,7.5,0.3,11.8,1.1c-0.5,27,0,55.4,0,82.5l0,159.8c0,17.5,0,47.4,0,66.3c0.2,0.2,0.4,0.5,0.6,0.7
	c6.4-0.1,38-27.6,45.3-32.8c9-6.4,20.5-15.6,29.1-22.8c3.3-2.7,4.8-7.3,4.9-11.4c0.6-9.2,0.3-18.6,0.3-27.8l-0.2-51.9l-0.2-151.3
	c20.5,1.5,41,4.3,61.6,4.4c6,0,12,0.2,18,0.4c-0.2,15.2-0.6,165.2,0.5,167c0.3,0.5,1.2,0.7,1.8,0.8c2.2,0.2,4.7-1.3,6.4-2.5
	c3.9-2.6,7.7-5.9,11.4-8.8c7-5.5,13.9-11,21-16.4l20.2-15.5c7.6-5.8,18.3-11.8,19-22.1c0.8-11.1,0.2-22.3,0.2-33.4l0.1-68.6
	c9.6-1.2,20.4-1.4,30.1-2.2c15-1.2,30.2-2.8,45.1-3.5c-0.1,6-0.6,48.3,0.6,51.7c4.6,2,18.6-10.8,22.6-13.9l38.7-30.5
	c7.3-5.8,14.6-12,22.4-17.2c4.3-2.9,8.8-2.4,12.2,1.6c16.8,19.8,32.9,40.2,49.4,60.3c3.3,4,3.3,5.7,0.4,10
	c-4.7,5.7-9.4,11.2-13.8,17.1c-34.8,46.2-24.7,108.3-2.4,157.6c6.1,11.8,13,22.5,16.8,35.4c4,13.7,5.7,27.5,5.5,41.9
	c-0.7,52-20.2,101.5-52.2,142.1c-5.7,7.2-12.3,16.5-19.7,21.9c0.4-26.8,0-54.6,0-81.5l0-160.3l0-65c0-7.3,0.5-25.4-0.3-31.8
	c-4.4-2.5-15.7,8.2-19.5,11.1l-24.2,18.8l-18.5,14.3c-7.8,6-17.3,11.4-17.8,22.2c-0.5,12.1-0.3,24.3-0.3,36.4l0.2,70.8l0.1,215
	c-26.1,10-48.3,16.5-75.3,23.3l0-221.9c0-18.9,0.3-48.4-0.4-68.2c0-0.7-0.5-0.7-1.2-1.1c-2.3,0.1-4.8,1.3-6.7,2.7
	c-11.4,8.6-22.5,17.8-33.8,26.5l-20,15.3c-7.6,5.8-17.7,11.5-18.3,21.7c-0.5,8.4-0.4,16.6-0.3,25l0.1,44.2l0.1,156.1
	c-26.3-8-54.6-14.5-79.8-25.5l0-91.9c0-6.3,0.7-47-1-49c-3.2-0.4-6,1.5-8.5,3.5c-20.3,15.9-41.2,32.9-61.9,48
	c-14.2,10.4-5.1,32.7-10.7,34.2c-3.1-2.6-8-9.4-10.6-12.8c-11-14.2-20.7-28.1-30-43.6c-29.3-49.2-34.6-103.1-15-157
	c3.9-10.3,8.7-20.7,12.9-30.8c20.4-48.9,25.5-111.4-10.7-154.4c-4.8-5.7-11.4-10.1-13.5-17.5c16-20.6,34.2-40.6,50.4-61.1
	C291.6,97.6,293.7,95.6,296.7,94.3z"/>
<path class="st0" d="M660.2,146.5c17.5,11.1,23,16.9,30.8,36.2c6.7,16.6,12.3,27.4,8.8,46.3c-2.8,3.5-17.6,14.4-22.3,18
	c-15,11.6-30,23.3-44.9,35l-0.3,0.2c-1.6-0.8-8.9-17.6-10.3-20.6l-29.2-62.2c4.9-4.8,17.2-13.8,23-18.4L660.2,146.5z"/>
<path d="M662.1,165.2c2.2,1.1,9.3,13.6,10.8,16c4.9,7.8,14.9,30,12.5,38.8c-3,4-43.2,35.6-47.8,38.1l-25.5-53.9
	C627.6,191.4,646,177.7,662.1,165.2z"/>
<path class="st0" d="M369.9,373.3c1.3,1.1,6.3,11.9,7.4,14.2c-18.9,14.7-40.9,31.2-59,46.3c2.9,7.7,5.1,12.2,9.3,19.3
	c14.1-12,34.6-26.9,49.6-38.4c4.9,4.2,5.9,7.7,8,13.6c-9.7,7.9-19.7,15.3-29.6,23.2c-4.3,3.4-18.3,13.1-19.7,18.6
	c-1.1,4.2,5.9,13.2,8.5,16.9c9.9-6.8,23.7-18.3,33.5-26c7.8-5.8,15.8-12.3,23.6-18.3c4.7,4.3,5.7,8.2,7.9,14
	c-5.8,3.6-15.5,12-21.5,16.5c-16.7,12.7-33.3,26.6-50.2,39c-1.8-3.2-3.9-7.7-5.3-11.1c-10.3-24-23.9-48.2-33.5-72.4
	c17.6-14.4,36.3-28,54.1-42.3C358.3,382.1,364.2,377.5,369.9,373.3z"/>
<path class="st0" d="M512.8,261.8c5.2,1.8,19.7,13,23.4,17.2c-3.3,4.8-6.2,6.4-11,9.9c-4.3-2.8-7.7-4.8-12.2-7.2
	c-15.7,11.6-32.1,25.1-47.3,37.6c-0.7,0.6-1.3,2.5-1.3,3.3c0,18.7,12.2,38.6,22.8,53c7-4.8,46.9-35.5,50.1-40l0.4-0.5
	c2.3-3.2-2.2-11.5,2-16.9c2.3-3,9.4-7.7,12.6-8.3l0.4,0.9c0,10,0.4,23.1-0.3,32.9c-3.9,4.9-18.8,15.8-24.5,20.2L489.4,394
	c-11-6.6-21.1-13.5-26.7-26.6c-6.2-14.4-20.5-43.1-10.5-58c1.7-2.6,17.5-14.1,21.3-17.1L512.8,261.8z"/>
</svg>
