<?xml version="1.0" encoding="UTF-8" standalone="no"?>
<svg
   xmlns:dc="http://purl.org/dc/elements/1.1/"
   xmlns:cc="http://creativecommons.org/ns#"
   xmlns:rdf="http://www.w3.org/1999/02/22-rdf-syntax-ns#"
   xmlns:svg="http://www.w3.org/2000/svg"
   xmlns="http://www.w3.org/2000/svg"
   xmlns:sodipodi="http://sodipodi.sourceforge.net/DTD/sodipodi-0.dtd"
   xmlns:inkscape="http://www.inkscape.org/namespaces/inkscape"
   width="373.52902"
   version="1.1"
   height="432.85059"
   viewBox="0 0 298.82322 346.28047"
   id="svg2865"
   inkscape:version="0.47 r22583"
   sodipodi:docname="Palestino_CD-Seite001.svg">
  <metadata
     id="metadata2910">
    <rdf:RDF>
      <cc:Work
         rdf:about="">
        <dc:format>image/svg+xml</dc:format>
        <dc:type
           rdf:resource="http://purl.org/dc/dcmitype/StillImage" />
        <dc:title></dc:title>
      </cc:Work>
    </rdf:RDF>
  </metadata>
  <sodipodi:namedview
     pagecolor="#ffffff"
     bordercolor="#666666"
     borderopacity="1"
     objecttolerance="10"
     gridtolerance="10"
     guidetolerance="10"
     inkscape:pageopacity="0"
     inkscape:pageshadow="2"
     inkscape:window-width="1152"
     inkscape:window-height="804"
     id="namedview2908"
     showgrid="false"
     inkscape:zoom="2.2010954"
     inkscape:cx="188.35331"
     inkscape:cy="139.70678"
     inkscape:window-x="-4"
     inkscape:window-y="-4"
     inkscape:window-maximized="1"
     inkscape:current-layer="svg2865" />
  <defs
     id="defs2867">
    <inkscape:perspective
       sodipodi:type="inkscape:persp3d"
       inkscape:vp_x="0 : 121.25 : 1"
       inkscape:vp_y="0 : 1000 : 0"
       inkscape:vp_z="242.5 : 121.25 : 1"
       inkscape:persp3d-origin="121.25 : 80.833333 : 1"
       id="perspective2912" />
    <clipPath
       id="Clip0">
      <path
         d="m 0,0 192.756,0 0,192.756 L 0,192.756 0,0 z"
         transform="translate(0.259766,0.676758)"
         id="path2870" />
    </clipPath>
  </defs>
  <g
     id="Hintergrund"
     transform="matrix(1.7983848,0,0,1.8509061,-24.379983,-6.499864)">
    <g
       id="Gruppe1"
       clip-path="url(#Clip0)">
      <path
         style="fill:#161413;fill-rule:evenodd;stroke:none"
         d="m 161.945,8.12108 -0.467,-1.87499 -1.72,0.78219 C 144.766,13.7422 130.869,17.1778 118.219,16.3985 105.57,15.6172 94.1694,10.7754 84.1748,1.09277 L 83.0821,0 81.9893,1.09277 C 71.9961,10.7754 60.5938,15.6172 47.9444,16.3985 35.295,17.1778 21.3975,13.7422 6.4053,7.02828 L 4.6856,6.24609 4.3741,8.12108 C 1.5635,20.4571 0.1573,32.7949 0,44.9766 l 0,2.3428 c 0.1573,18.1142 3.4356,35.9169 10.4639,53.4086 11.8701,29.827 34.8262,58.406 71.6826,85.734 l 0.9356,0.625 0.9365,-0.625 c 37.0124,-27.328 59.8124,-55.907 71.8364,-85.734 7.027,-17.4917 10.152,-35.4506 10.307,-53.7221 l 0,-1.5606 c 0,-12.3388 -1.562,-24.831 -4.217,-37.32422 z"
         transform="translate(13.5566,3.51172)"
         id="path2876" />
      <path
         style="fill:#ffffff;fill-rule:evenodd;stroke:none"
         d="m 49.2959,32.3252 0,-23.8398 C 47.9531,8.6631 46.6016,8.8164 45.2334,8.9004 32.4297,9.6827 18.6865,6.4014 3.8496,0 1.3008,12.4229 0,24.7383 0.1084,36.9112 15.5859,32.6114 32.0693,31.7217 49.2959,32.3252 z"
         transform="translate(16.5791,14.1318)"
         id="path2878" />
      <path
         style="fill:#ffffff;fill-rule:evenodd;stroke:none"
         d="m 0,5.7656 c 1.5869,6.6612 3.6573,13.2696 6.3018,19.8084 7.9023,19.604 20.5967,38.777 39.041,57.336 l 0,-82.2596 C 29.4658,0 14.1514,1.3848 0,5.7656 z"
         transform="translate(20.5322,77.416)"
         id="path2880" />
      <path
         style="fill:#e41a0f;fill-rule:evenodd;stroke:none"
         d="M 1.561,6.3398 C 1.043,6.3105 0.521,6.2451 0,6.2002 L 0,75.2577 C 18.324,56.7897 30.97,37.7117 38.728,18.2097 41.16,12.1943 43.102,6.122 44.638,0 30.386,4.4756 14.47,6.791 1.561,6.3398 z"
         transform="translate(127.716,84.7803)"
         id="path2882" />
      <path
         style="fill:#e41a0f;fill-rule:evenodd;stroke:none"
         d="M 4.372,46.6924 C 17.35,47.1465 33.952,42.7832 48.866,37.9805 49.062,25.46 47.754,12.7852 45.132,0 30.296,6.4014 16.554,9.6827 3.904,8.9004 2.587,8.8203 1.293,8.67 0,8.5069 l 0,37.834 c 1.464,0.1679 2.924,0.2968 4.372,0.3515 z"
         transform="translate(127.716,14.1318)"
         id="path2884" />
      <path
         style="fill:#007e4c;fill-rule:evenodd;stroke:none"
         d="m 27.6416,108.347 c 0,0 0.1572,0 0.1572,-0.154 5.1531,-3.75 9.9931,-7.654 14.5211,-11.4034 4.686,-4.058 9.214,-8.119 13.277,-12.024 l 0,-72.3174 C 38.1349,10.0547 19.8388,0.6143 0,0 l 0,85.2026 c 0.2461,0.239 0.4931,0.476 0.7392,0.713 3.9932,3.697 8.1192,7.506 12.5352,11.188 4.5283,3.7474 9.3691,7.4964 14.3672,11.2434 z"
         transform="translate(68.9971,78.1914)"
         id="path2886" />
      <path
         style="fill:#007e4c;fill-rule:evenodd;stroke:none"
         d="m 55.5969,52.165 0,-37.914 C 45.4039,12.374 36.0489,7.77151 27.6416,0 19.2988,7.71191 10.0205,12.3037 0,14.206 L 0,38.7705 C 19.8066,40.2637 38.2199,49.376 55.5969,52.165 z"
         transform="translate(68.9971,7.88379)"
         id="path2888" />
      <path
         style="fill:#ffffff;fill-rule:evenodd;stroke:none"
         d="M 1.72,19.834 0,1.0938 3.281,0.7823 10.62,12.9629 9.528,0.1573 12.807,0 14.369,18.7413 11.245,19.0528 3.749,6.5596 4.999,19.5215 1.72,19.834 z"
         transform="translate(134.117,66.6025)"
         id="path2890" />
      <path
         style="fill:#ffffff;fill-rule:evenodd;stroke:none"
         d="M 0,18.7392 1.563,0 4.841,0.3115 3.125,19.0517 0,18.7392 z"
         transform="translate(126.31,67.3848)"
         id="path2892" />
      <path
         style="fill:#ffffff;fill-rule:evenodd;stroke:none"
         d="M 0.311,19.3662 4.528,4.5293 0,3.125 0.936,0 12.806,3.2812 11.867,6.5605 7.65,5.3105 3.278,20.3027 0.311,19.3662 z"
         transform="translate(111.788,63.6348)"
         id="path2894" />
      <path
         style="fill:#ffffff;fill-rule:evenodd;stroke:none"
         d="m 0.3115,11.5566 3.124,0.7803 c -0.3115,1.0928 -0.1562,1.874 0.3116,2.499 0.4707,0.7813 1.0927,1.25 2.031,1.4063 1.093,0.3115 1.875,0.3115 2.497,0.1543 0.471,-0.3106 0.939,-0.7793 1.25,-1.5606 0.158,-0.4687 0.158,-0.9365 -0.156,-1.25 -0.155,-0.4677 -0.467,-0.7793 -0.78,-1.0927 -0.468,-0.3116 -1.093,-0.7813 -1.874,-1.25 C 5.9331,10.7754 5.4671,10.4639 5.3101,10.4639 4.5293,9.8389 3.7471,9.2148 3.2793,8.5898 2.8105,7.8076 2.498,7.1836 2.498,6.4033 2.3428,5.6221 2.3428,4.9971 2.498,4.2158 2.8105,3.4365 3.124,2.8105 3.5928,2.1865 4.0605,1.5615 4.6855,1.0937 5.3101,0.7793 c 0.623,-0.3106 1.405,-0.6221 2.186,-0.6221 0.779,-0.1572 1.718,0 2.811,0.3115 2.031,0.625 3.281,1.5606 3.747,2.8106 0.47,1.4062 0.47,2.8105 0,4.5283 l -2.965,-0.7793 c 0.31,-0.9385 0.31,-1.7178 -0.157,-2.3428 -0.468,-0.625 -1.249,-1.0927 -2.03,-1.249 -1.719,-0.4687 -2.655,-0.1572 -3.124,0.9356 -0.156,0.625 -0.156,1.25 0.155,1.7177 0.314,0.625 0.938,1.0938 1.876,1.7178 1.405,0.7822 2.498,1.5615 3.28,2.3428 0.779,0.7812 1.249,1.7178 1.404,2.6562 0.312,0.7793 0.312,1.8721 0,2.9659 -0.469,1.0927 -0.936,1.874 -1.718,2.6552 -0.623,0.625 -1.561,1.0938 -2.5,1.25 C 7.1831,19.9893 5.9331,19.832 4.5293,19.5215 3.9043,19.3643 3.2793,19.0527 2.6543,18.583 2.0312,18.1143 1.4043,17.4893 0.9385,16.8652 0.4687,16.2422 0.1543,15.3037 0,14.5244 0,13.5859 0,12.4932 0.3115,11.5566 z"
         transform="translate(94.9209,60.5127)"
         id="path2896" />
      <path
         style="fill:#ffffff;fill-rule:evenodd;stroke:none"
         d="M 0,18.4277 4.2168,0 15.3057,2.499 14.5234,5.7783 6.7139,4.0605 5.9346,7.8096 12.9629,9.5273 12.1807,12.8066 5.1553,11.2451 4.0625,15.7734 12.1807,17.6484 11.3994,21.084 0,18.4277 z"
         transform="translate(78.0547,55.6709)"
         id="path2898" />
      <path
         style="fill:#ffffff;fill-rule:evenodd;stroke:none"
         d="M 0,18.8984 1.4043,0 4.6836,0.1572 3.5908,15.6172 11.0889,16.0859 10.7754,19.5215 0,18.8984 z"
         transform="translate(62.9072,54.4209)"
         id="path2900" />
      <path
         style="fill:#ffffff;fill-rule:evenodd;stroke:none"
         d="M 0.469,11.711 C 0.157,10.1494 0,8.7451 0.157,7.1817 0.312,5.6211 0.78,4.2149 1.562,2.9668 2.498,1.5606 3.747,0.7793 5.622,0.3106 6.871,0 8.121,0 9.369,0.4678 c 1.249,0.4678 2.342,1.4062 3.438,2.6543 1.093,1.249 1.872,2.9668 2.497,5.1533 0.311,1.4063 0.469,2.6553 0.469,3.749 0,1.2491 -0.158,2.3428 -0.469,3.4356 -0.312,0.9355 -0.939,1.875 -1.718,2.6533 -0.779,0.625 -1.875,1.25 -3.122,1.5635 -0.939,0.1553 -2.031,0.1553 -2.97,0 -1.093,0 -2.029,-0.4697 -2.965,-1.0947 C 3.747,17.959 2.809,17.0205 2.187,15.9278 1.404,14.835 0.78,13.2735 0.469,11.711 z M 6.09,3.9033 C 5.309,4.2149 4.686,4.6846 4.215,5.4639 3.747,6.2461 3.593,7.0274 3.436,8.1201 c 0,1.0928 0,2.1866 0.311,3.2793 0.312,1.0928 0.625,2.0293 1.25,2.8106 0.468,0.7812 1.25,1.4062 2.031,1.875 0.78,0.3105 1.559,0.4678 2.497,0.1562 0.782,-0.1562 1.25,-0.4697 1.718,-0.9384 0.468,-0.4678 0.78,-0.9356 0.937,-1.5606 0.313,-0.625 0.313,-1.4062 0.313,-2.0312 0,-0.7803 0,-1.5616 -0.313,-2.3409 C 12.023,8.5889 11.711,7.8067 11.4,7.0274 10.93,6.2461 10.464,5.6211 9.994,5.1533 9.369,4.6846 8.744,4.2149 8.121,4.0596 7.494,3.7471 6.715,3.7471 6.09,3.9033 z"
         transform="translate(150.829,63.9492)"
         id="path2902" />
      <path
         style="fill:#ffffff;fill-rule:evenodd;stroke:none"
         d="M 0,19.0528 4.9991,0.1563 8.9004,0 l 5.7784,18.8955 -3.4356,0 -1.248,-3.9033 -5.4668,0.1572 -0.9366,3.9034 -3.5918,0 z m 5.4649,-7.1846 3.5918,0 -1.8721,-6.8721 -1.7197,6.8721 z"
         transform="translate(43.6982,54.5781)"
         id="path2904" />
      <path
         style="fill:#ffffff;fill-rule:evenodd;stroke:none"
         d="M 2.8135,19.9892 0,1.4043 7.1846,0.1552 c 0.9365,-0.1552 1.873,0 2.5,0.4698 0.7792,0.4677 1.4042,1.0927 1.872,2.0293 0.625,0.7812 0.9365,1.874 1.0928,2.8105 0.1572,1.0928 0.1572,2.0313 -0.1563,3.124 -0.1552,0.9366 -0.4668,1.7178 -1.0937,2.3428 -0.6221,0.7803 -1.4043,1.0928 -2.3418,1.2481 l -4.0586,0.625 1.0928,6.7158 -3.2783,0.4687 z M 4.5283,9.3681 7.498,8.9004 c 0.7793,0 1.2481,-0.4678 1.5596,-0.9356 C 9.3711,7.3388 9.3711,6.7148 9.3711,5.9326 9.2138,5.1533 8.9023,4.5283 8.4346,4.0605 7.9638,3.5898 7.3418,3.4355 6.7148,3.5898 l -3.122,0.4707 0.9355,5.3076 z"
         transform="translate(26.3633,55.9844)"
         id="path2906" />
    </g>
  </g>
</svg>
