<?xml version="1.0" encoding="UTF-8" standalone="no"?>
<!-- Created with Inkscape (http://www.inkscape.org/) -->
<svg
   xmlns:svg="http://www.w3.org/2000/svg"
   xmlns="http://www.w3.org/2000/svg"
   version="1.0"
   width="205"
   height="222"
   id="svg2499">
  <defs
     id="defs2501">
		
	
			
			
			
			
			
			
			
			
			
			
			
			
			
		</defs>
  <g
     transform="translate(370.15584,-401.27087)"
     id="layer1">
    <g
       id="g2665">
      <path
         d="M -267.65586,620.16272 C -273.01352,619.17273 -278.36997,617.66272 -283.69895,615.60217 C -321.32529,601.05383 -348.12583,562.89709 -360.32371,515.33727 C -369.22324,480.6388 -370.07285,441.89855 -362.39158,404.37903 C -341.2551,416.72643 -306.64634,424.80383 -267.65586,424.80628 C -228.66538,424.80383 -194.05723,416.72643 -172.91953,404.37903 C -165.23887,441.89855 -166.08847,480.6388 -174.98862,515.33727 C -187.18588,562.89709 -213.98642,601.05383 -251.61216,615.60217 C -256.94174,617.66272 -262.29819,619.17273 -267.65586,620.16272 z"
         id="path2468"
         style="fill:#000000;fill-rule:evenodd;stroke-miterlimit:4" />
      <path
         d="M -267.65586,620.16272 C -273.01352,619.17273 -278.36997,617.66272 -283.69895,615.60217 C -321.32529,601.05383 -348.12583,562.89709 -360.32371,515.33727 C -369.22324,480.6388 -370.07285,441.89855 -362.39158,404.37903 C -341.2551,416.72643 -306.64695,424.80383 -267.65586,424.80628 C -228.66538,424.80383 -194.05723,416.72643 -172.91953,404.37903 C -165.23887,441.89855 -166.08847,480.6388 -174.98862,515.33727 C -187.18588,562.89709 -213.98642,601.05383 -251.61216,615.60217 C -256.94174,617.66272 -262.29819,619.17273 -267.65586,620.16272"
         id="path2488"
         style="fill:none;fill-rule:nonzero;stroke:#000000;stroke-width:3.23348379;stroke-miterlimit:2.61310005" />
      <g
         id="g2659">
        <path
           d="M -256.28012,424.57311 C -248.44321,424.2533 -240.83091,423.6051 -233.52012,422.66394 L -233.52012,606.29308 C -239.23178,610.02233 -245.26816,613.14855 -251.61216,615.60217 C -253.16611,616.20276 -254.72251,616.75695 -256.28012,617.26478 L -256.28012,424.57311 L -256.28012,424.57311 z"
           id="path2470"
           style="fill:#275da8;fill-rule:evenodd;stroke-miterlimit:4" />
        <path
           d="M -210.76133,418.57702 C -202.50083,416.63245 -194.86167,414.2777 -188.00132,411.5824 L -188.00132,551.54576 C -194.26841,564.6549 -201.89536,576.43713 -210.76133,586.44689 L -210.76133,418.57702 z"
           id="path2472"
           style="fill:#275da8;fill-rule:evenodd;stroke-miterlimit:4" />
        <path
           d="M -324.55832,586.43957 C -333.42368,576.42736 -341.05063,564.64026 -347.31833,551.5299 L -347.31833,411.57873 C -340.45798,414.27526 -332.81821,416.63123 -324.55832,418.57458 L -324.55832,586.43957 L -324.55832,586.43957 z"
           id="path2476"
           style="fill:#275da8;fill-rule:evenodd;stroke-miterlimit:4" />
        <path
           d="M -279.03891,617.26232 C -280.59409,616.75573 -282.14805,616.20153 -283.69895,615.60217 C -290.04721,613.14733 -296.08542,610.01866 -301.79892,606.28821 L -301.79892,422.66394 C -294.48874,423.6051 -286.87644,424.25208 -279.03891,424.57311 L -279.03891,617.26234 L -279.03891,617.26232 z"
           id="path2474"
           style="fill:#275da8;fill-rule:evenodd;stroke-miterlimit:4" />
      </g>
      <path
         d="M -267.65952,446.38098 C -234.72007,446.38098 -207.85483,473.03258 -207.85483,505.71082 C -207.85483,538.38781 -234.72007,565.03941 -267.65952,565.03941 C -300.59836,565.03941 -327.46299,538.38781 -327.46299,505.71082 C -327.46299,473.03258 -300.59836,446.38098 -267.65952,446.38098 L -267.65952,446.38098 z"
         id="path2478"
         style="fill:#ffffff;fill-rule:evenodd;stroke-miterlimit:4" />
      <g
         id="g2653">
        <path
           d="M -296.99241,476.61658 C -296.99241,492.64319 -283.81614,505.7157 -267.66074,505.7157 C -283.81614,505.7157 -296.99241,518.78821 -296.99241,534.81481 C -296.99241,518.78821 -310.16929,505.7157 -326.32346,505.7157 C -310.16929,505.7157 -296.99241,492.64319 -296.99241,476.61658 z"
           id="path2484"
           style="fill:#de1800;fill-rule:evenodd;stroke-miterlimit:4" />
        <path
           d="M -267.66074,447.51868 C -267.66074,463.54529 -254.48447,476.61658 -238.32968,476.61658 C -254.48447,476.61658 -267.66074,489.68909 -267.66074,505.7157 C -267.66074,489.68909 -280.83701,476.61658 -296.99241,476.61658 C -280.83701,476.61658 -267.66074,463.54529 -267.66074,447.51868 L -267.66074,447.51868 z"
           id="path2482"
           style="fill:#ead112;fill-rule:evenodd;stroke-miterlimit:4" />
        <path
           d="M -263.59458,512.47961 L -264.82749,512.47961 L -264.82749,498.953 L -263.59458,498.953 L -263.59458,504.09339 L -261.13119,504.09339 L -261.13119,498.953 L -259.89829,498.953 L -259.89829,512.47961 L -261.13119,512.47961 L -261.13119,506.52625 L -263.59458,506.52625 L -263.59458,512.47961 L -263.59458,512.47961 z M -258.68736,507.33801 L -258.68736,498.953 L -257.33237,498.953 L -257.33237,507.33801 C -257.33237,508.14978 -257.33237,508.96154 -257.20908,509.23254 C -257.08579,510.04309 -256.71592,510.58508 -256.22276,510.58508 C -255.73081,510.58508 -255.36093,510.04309 -255.23764,509.23254 C -255.11436,508.96154 -254.99106,508.14978 -254.99106,507.33801 L -254.99106,498.953 L -253.75937,498.953 L -253.75937,507.33801 C -253.75937,508.69178 -253.88267,509.77331 -254.00596,510.58508 C -254.37583,512.2074 -255.11436,512.74938 -256.22276,512.74938 C -257.20908,512.74938 -257.94882,512.2074 -258.31748,510.58508 C -258.56406,509.77331 -258.68734,508.69178 -258.68734,507.33801 L -258.68736,507.33801 z M -250.08506,502.19885 L -250.82358,507.33801 L -249.34409,507.33801 L -250.08506,502.19885 L -250.08506,502.19885 z M -252.91831,512.47961 L -250.82358,498.953 L -249.34409,498.953 L -247.1273,512.47961 L -248.48227,512.47961 L -248.97543,509.77331 L -251.19223,509.77331 L -251.56211,512.47961 L -252.91831,512.47961 L -252.91831,512.47961 z M -246.65488,505.98669 C -246.65488,503.55139 -246.4083,501.65808 -245.79184,500.57653 C -245.29989,499.224 -244.68344,498.68201 -243.82163,498.68201 C -242.83652,498.68201 -242.09556,499.49378 -241.60361,501.11731 C -241.35703,501.92908 -241.23374,502.73962 -241.23374,503.55139 L -242.46543,503.55139 C -242.58872,503.01062 -242.71201,502.46984 -242.83652,501.92908 C -243.08311,501.38709 -243.32847,501.11731 -243.82163,501.11731 C -244.80673,501.11731 -245.29991,503.01062 -245.29991,505.98669 C -245.29991,508.96154 -244.68344,510.31409 -243.82163,510.31409 C -243.32847,510.31409 -243.08311,510.04309 -242.83652,509.50232 C -242.71201,509.23254 -242.58872,508.69176 -242.46543,507.88 L -241.23374,507.88 C -241.48032,510.85486 -242.34213,512.74938 -243.82163,512.74938 C -244.68344,512.74938 -245.42319,512.2074 -245.91636,511.12586 C -246.4083,509.77331 -246.65488,508.14978 -246.65488,505.98669 z M -239.03769,512.47961 L -240.26938,512.47961 L -240.26938,498.953 L -239.03769,498.953 L -239.03769,504.09339 L -236.57309,504.09339 L -236.57309,498.953 L -235.34018,498.953 L -235.34018,512.47961 L -236.57309,512.47961 L -236.57309,506.52625 L -239.03769,506.52625 L -239.03769,512.47961 L -239.03769,512.47961 z M -232.89878,498.953 L -232.89878,512.47961 L -234.25376,512.47961 L -234.25376,498.953 L -232.89878,498.953 z M -228.31748,503.28161 C -228.31748,501.92908 -228.68734,501.38709 -229.30503,501.38709 L -230.41342,501.38709 L -230.41342,505.4447 L -229.30503,505.4447 C -228.68734,505.4447 -228.31748,504.63416 -228.31748,503.28161 z M -227.08579,503.28161 C -227.08579,506.52625 -227.82553,507.60901 -229.18052,507.60901 L -230.41343,507.60901 L -230.41343,512.47961 L -231.76841,512.47961 L -231.76841,498.953 L -229.05722,498.953 C -227.82553,498.953 -227.08579,500.30554 -227.08579,503.28161 L -227.08579,503.28161 z M -223.63365,502.19885 L -224.37338,507.33801 L -222.89389,507.33801 L -223.63365,502.19885 L -223.63365,502.19885 z M -226.46689,512.47961 L -224.37338,498.953 L -222.89389,498.953 L -220.67709,512.47961 L -222.03207,512.47961 L -222.52402,509.77331 L -224.74326,509.77331 L -225.11313,512.47961 L -226.46689,512.47961 L -226.46689,512.47961 z M -220.45127,498.953 L -215.52329,498.953 L -215.52329,501.38709 L -217.37143,501.38709 L -217.37143,512.47961 L -218.60312,512.47961 L -218.60312,501.38709 L -220.45127,501.38709 L -220.45127,498.953 L -220.45127,498.953 z M -212.05527,510.58508 C -211.06894,510.58508 -210.3292,508.69178 -210.3292,505.7157 C -210.3292,502.73962 -211.06894,501.11731 -212.05527,501.11731 C -213.04038,501.11731 -213.65683,502.73962 -213.65683,505.7157 C -213.65683,508.69176 -213.04038,510.58508 -212.05527,510.58508 L -212.05527,510.58508 z M -209.09751,505.7157 C -209.09751,508.14978 -209.34409,510.04309 -210.08383,511.39684 C -210.4525,512.2074 -211.19346,512.74938 -212.05527,512.74938 C -212.91708,512.74938 -213.53355,512.2074 -214.02548,511.39684 C -214.64195,510.04309 -215.01182,508.14978 -215.01182,505.7157 C -215.01182,503.28161 -214.64195,501.38709 -214.02548,500.30554 C -213.53355,499.224 -212.91709,498.68201 -212.05527,498.68201 C -211.19346,498.68201 -210.4525,499.224 -210.08383,500.30554 C -209.34409,501.38709 -209.09751,503.28161 -209.09751,505.7157 z"
           id="path2480"
           style="fill:#000000;fill-rule:evenodd;stroke-miterlimit:4" />
        <path
           d="M -267.66074,505.7157 C -267.66074,521.7423 -254.48447,534.81481 -238.32968,534.81481 C -254.48447,534.81481 -267.66074,547.8861 -267.66074,563.91393 C -267.66074,547.8861 -280.83701,534.81481 -296.99241,534.81481 C -280.83701,534.81481 -267.66074,521.7423 -267.66074,505.7157 L -267.66074,505.7157 z"
           id="path2486"
           style="fill:#275da8;fill-rule:evenodd;stroke-miterlimit:4" />
      </g>
    </g>
  </g>
</svg>
