<svg xmlns="http://www.w3.org/2000/svg" xmlns:svg="http://www.w3.org/2000/svg" width="272.29186022144904" height="367.2529906647675" viewBox="0 0 137.2818 185.20833" version="1.1" id="svg1" xml:space="preserve"><defs id="defs1"/><g id="layer1" transform="translate(-37.851656,-45.62751)"><g id="g1" transform="matrix(0.26458333,0,0,0.26458333,14.661702,8.4467308)"><g id="g16" transform="translate(-52.922765,90.525782)"><g id="g5"><path d="M 400,750 C 515.7547,666.3126 581.2038,563.7757 614.4738,482.5097 662.5841,364.9944 666.8331,231.076 651.5616,151.9916 498.5743,126.6301 400,50 400,50 400,50 301.4257,126.63 148.4384,151.9916 133.1669,231.076 137.416,364.9944 185.5262,482.5097 218.7962,563.7757 284.2453,666.3127 400,750 Z" style="fill:#ff8200" id="path2"/><path d="M 400,729.6452 C 352.1406,693.7167 310.0967,651.9853 274.9006,605.4604 244.0514,564.6808 219.084,521.2248 200.6928,476.3012 156.6997,368.8422 149.8864,245.627 162.5844,166.146 238.426,152.0923 300.0199,125.9877 339.0367,106.0832 367.845,91.3865 388.6113,78.0304 399.9999,70.1857 c 11.3881,7.8447 32.1545,21.2008 60.9632,35.8975 39.0173,19.9045 100.6112,46.0091 176.4523,60.0628 12.6985,79.4806 5.8847,202.6957 -38.1079,310.1552 -18.3921,44.9236 -43.359,88.3796 -74.2087,129.1592 -35.1961,46.5249 -77.24,88.2563 -125.0989,124.1848 z" style="fill:#ffffff" id="path3"/><path d="m 631.6801,275.8743 c 1.9195,-38.3298 0.2109,-72.9921 -3.6428,-100.728 C 553.9924,160.4995 493.9423,134.8115 456.1442,115.5293 431.6235,103.02 412.7729,91.4596 400,82.9841 c -12.7739,8.4759 -31.6259,20.0368 -56.1442,32.5452 -37.7982,19.2822 -97.8473,44.9702 -171.8931,59.617 -3.8534,27.7362 -5.5617,62.3985 -3.6424,100.728 z" style="fill:#002c71" id="path4"/><path d="m 168.9043,285.9833 c 3.829,58.1595 16.0435,123.8706 41.6017,186.3 18.0443,44.0764 42.5551,86.7312 72.8512,126.7793 33.0036,43.6273 72.2181,83.0447 116.6428,117.2618 44.4247,-34.2171 83.6387,-73.6354 116.6423,-117.2618 30.2952,-40.0462 54.8064,-82.7011 72.8522,-126.7793 25.5578,-62.4298 37.7726,-128.1408 41.6017,-186.3 z" style="fill:#002c71" id="path5"/></g><g id="g9"><path d="m 236.8247,285.9817 v 196.1824 c -2.651,-5.8225 -5.1766,-11.674 -7.5866,-17.5543 -19.1834,-46.8501 -32.3805,-101.1615 -38.1741,-157.0539 -0.7423,-7.2011 -1.3689,-14.4021 -1.8605,-21.5742 h 47.6213 z" style="fill:#ff8200" id="path6"/><path d="m 391.1409,285.9817 v 62.4764 c -17.3134,1.2339 -33.4506,6.9311 -47.3803,16.0216 v -78.498 z" style="fill:#ff8200" id="path7"/><path d="m 314.1852,393.4671 c -12.2234,17.8146 -19.4148,39.678 -19.4148,63.2958 0,23.6178 7.1914,45.4909 19.4148,63.3055 v 33.3928 l -17.3133,29.8935 C 286.0462,568.8273 276.0111,553.9432 266.7953,538.7893 V 285.9819 h 47.3899 v 107.4853 z" style="fill:#ff8200" id="path8"/><path d="m 468.5978,285.9817 v 0.8097 l -38.5598,66.5927 c -2.892,-0.9833 -5.8322,-1.822 -8.8302,-2.5353 v -64.8671 h 47.3899 z" style="fill:#ff8200" id="path9"/></g><g id="g12"><path d="m 512.919,284.7887 -44.3212,76.5387 -5.9864,10.3244 -7.6445,13.2163 -1.6099,2.7763 -6.4105,11.0667 c -4.444,-3.2198 -9.2254,-5.9961 -14.296,-8.2614 -3.6728,-1.6485 -7.4998,-3.027 -11.4426,-4.1066 -2.9788,-0.8194 -6.025,-1.4749 -9.129,-1.9473 -3.9717,-0.6073 -8.0301,-0.9158 -12.1657,-0.9158 -18.8461,0 -36.1787,6.507 -49.8674,17.3905 -18.4701,14.6816 -30.3176,37.3548 -30.3176,62.7946 0,18.9136 6.5456,36.2943 17.4965,50.0024 4.4729,5.6104 9.6881,10.6039 15.4914,14.8262 l -0.0675,0.1157 C 346.855,524.4835 341.582,519.6057 336.9644,514.1205 325.4158,500.4511 317.858,483.0028 316.2,463.7711 c -0.241,-2.6606 -0.3567,-5.3502 -0.3567,-8.0686 0,-47.9298 36.4775,-86.9234 81.9009,-88.1284 0.723,-0.0192 1.446,-0.0289 2.169,-0.0289 0.723,0 1.446,0.01 2.169,0.0289 6.3334,0.135 12.503,0.8869 18.4702,2.1979 0.2217,0.0385 0.4338,0.0867 0.6555,0.1446 6.7865,1.5327 13.3031,3.7885 19.463,6.6805 l 8.3868,-14.4889 19.5401,-33.7398 25.2341,-43.5798 h 19.0871 z" style="fill:#ffffff" id="path10"/><path d="m 483.6265,463.7711 c -1.3592,-15.8384 -6.7287,-30.4622 -15.0287,-42.7628 -5.2152,-7.7409 -13.2854,-16.6025 -21.6513,-22.2972 7.4796,5.3992 16.6867,15.3371 21.6513,23.5504 7.2974,12.0885 11.5005,26.2592 11.5005,41.4036 0,15.1444 -4.2031,29.315 -11.5005,41.4035 -8.8109,14.5756 -22.114,26.1146 -37.991,32.718 -0.5495,0.2313 -1.1086,0.4531 -1.6677,0.6652 -0.5398,0.2121 -1.0797,0.4145 -1.6195,0.6073 -0.5591,0.2025 -1.1183,0.3953 -1.687,0.588 -0.617,0.2121 -1.2436,0.4146 -1.8702,0.6073 -0.6266,0.1928 -1.2628,0.3856 -1.8991,0.5591 -0.2121,0.0771 -0.4338,0.135 -0.6555,0.1928 -0.4049,0.1157 -0.8194,0.2217 -1.2339,0.3277 -0.01,0 -0.0289,0.01 -0.0385,0.01 -0.5687,0.1446 -1.1375,0.2796 -1.7063,0.4145 -0.2024,0.0482 -0.3952,0.0964 -0.5977,0.135 -0.4145,0.0964 -0.829,0.1832 -1.2435,0.2699 -0.2988,0.0675 -0.588,0.1253 -0.8869,0.1735 -0.3567,0.0771 -0.723,0.1542 -1.0893,0.2121 -0.2506,0.0482 -0.5013,0.0964 -0.7519,0.135 -0.4723,0.0868 -0.935,0.1639 -1.4074,0.2313 -0.5881,0.0964 -1.1858,0.1735 -1.7738,0.2506 -0.3567,0.0482 -0.7133,0.0964 -1.0797,0.135 -0.3856,0.0482 -0.7808,0.0964 -1.1665,0.135 -0.6169,0.0578 -1.2339,0.1157 -1.8509,0.1639 -0.5591,0.0482 -1.1279,0.0867 -1.6966,0.1157 -1.581,0.0964 -3.1715,0.1446 -4.7718,0.1446 -1.6003,0 -3.1908,-0.0482 -4.7717,-0.1446 -0.5688,-0.0289 -1.1279,-0.0675 -1.6966,-0.1157 -0.617,-0.0482 -1.2339,-0.106 -1.8509,-0.1639 -0.3856,-0.0386 -0.7809,-0.0868 -1.1665,-0.135 -0.3567,-0.0386 -0.7133,-0.0868 -1.0797,-0.135 -0.588,-0.0771 -1.1858,-0.1542 -1.7738,-0.2506 -0.4723,-0.0675 -0.935,-0.1446 -1.4074,-0.2313 -0.2506,-0.0385 -0.5013,-0.0868 -0.7519,-0.135 -0.3374,-0.0578 -0.6845,-0.1253 -1.0218,-0.1928 -0.3567,-0.0674 -0.7133,-0.1349 -1.0604,-0.2121 -0.3085,-0.0675 -0.617,-0.1253 -0.9158,-0.2025 -0.3181,-0.0675 -0.6266,-0.1349 -0.9447,-0.2121 -0.4531,-0.106 -0.9158,-0.2217 -1.3689,-0.3374 -0.135,-0.0289 -0.2699,-0.0674 -0.4049,-0.106 -0.5784,-0.1446 -1.1568,-0.3085 -1.7352,-0.4723 -0.6266,-0.1735 -1.2532,-0.3567 -1.8798,-0.5495 -0.0193,0 -0.0289,-0.01 -0.0385,-0.0193 -0.617,-0.1928 -1.2339,-0.3952 -1.8509,-0.5977 -2.4582,-0.8194 -4.8682,-1.7641 -7.2203,-2.8148 -5.0513,-2.2557 -9.8423,-5.0128 -14.3249,-8.2228 l -6.4106,11.0763 -1.5424,2.6606 -3.0558,5.2923 h -0.01 l -30.9731,53.492 -11.3659,19.6274 c 3.7114,4.5019 7.4009,9.1168 11.2665,13.503 l 11.3589,-19.6152 34.029,-58.7747 3.027,-5.2248 c 8.3193,3.9331 17.2844,6.6901 26.7026,8.0879 4.6465,0.694 9.3989,1.0507 14.2382,1.0507 4.8393,0 9.5918,-0.3567 14.2382,-1.0507 2.3907,-0.4242 4.7428,-0.9544 7.0564,-1.5906 19.4245,-5.3116 36.1208,-17.7375 47.3899,-34.4628 9.6978,-14.3635 15.3854,-31.9082 15.3854,-50.841 0,-2.7185 -0.1157,-5.408 -0.3567,-8.0686 z" style="fill:#ffffff" id="path11"/><path d="m 420.2244,447.3114 c -7.363,23.8162 -11.4536,35.5425 -11.4536,35.5425 -15.2715,1.0908 -39.3604,-0.3636 -39.3604,-0.3636 -4.9996,-8.6356 -11.2718,-34.7244 -11.2718,-34.7244 19.2711,-16.5441 30.2702,-21.8164 30.2702,-21.8164 12.4535,4.5451 31.8155,21.3619 31.8155,21.3619 z m 31.0884,-28.5431 c 0,0 -12.3626,-16.7259 -38.1787,-22.18 l 3.4997,4.0451 c 0,0 -16.2259,1.4999 -28.4976,7.7721 -2.8634,1.3635 -21.4073,-4.7723 -21.4073,-4.7723 0,0 -14.3028,6.954 -22.9683,21.271 0,0 2.5154,-2.1816 5.3788,-3.2725 0,0 -6.1359,11.999 -5.9995,23.1799 0,0 -7.2267,10.0901 -9.1356,21.5437 0,0 -1.7271,-3.0452 -2.1816,-6.4086 0,0 -4.636,26.9069 13.7261,44.7236 0,0 -4.3633,-8.4538 -4.9087,-14.3624 0,0 8.4538,7.0903 21.4528,9.9083 0,0 9.3629,13.6352 22.9072,21.6346 0,0 -2.9089,2.727 -14.2715,3.727 0,0 21.68,14.4988 55.2227,1.9544 0,0 -10.0901,-0.6818 -16.2259,-3.8179 0,0 12.8171,-14.317 15.9532,-25.3615 0,0 18.1349,-2.8634 27.4068,-10.6355 0,0 1.7726,12.1354 -1.6362,20.4529 0,0 18.2712,-12.1354 16.4986,-52.3593 0,0 -6.8176,7.7721 -12.2717,9.8174 0,0 -8.9993,-16.7713 -19.2257,-25.3615 0,0 1.4999,-12.6808 1.2272,-24.6798 0,0 6.954,0.5 13.6352,3.1816 z" style="fill:#ffffff" id="path12"/></g><g id="g15"><polygon points="259.4196,181.2879 232.5127,214.3761 215.0596,181.2879 186.3347,181.2879 217.9684,235.1017 213.2416,265.6446 235.4215,265.6446 240.1484,234.738 288.1444,181.2879 " style="fill:#ffffff" id="polygon12"/><polygon points="475.3984,181.2879 448.4916,214.3761 431.0385,181.2879 402.3136,181.2879 433.9473,235.1017 429.2205,265.6446 451.4004,265.6446 456.1273,234.738 504.1233,181.2879 " style="fill:#ffffff" id="polygon13"/><polygon points="381.0459,265.6446 394.8629,181.2879 371.9557,181.2879 363.0473,243.6464 360.6839,243.6464 333.777,181.2879 295.7802,181.2879 282.3267,265.6446 304.8703,265.6446 314.1423,202.0135 316.4947,202.0135 343.049,265.6446 " style="fill:#ffffff" id="polygon14"/><polygon points="498.1725,265.6445 519.7162,265.6445 524.8861,232.7837 536.8511,232.7837 563.4853,265.6445 596.6644,265.6445 558.6675,222.0573 605.7215,181.2879 572.3027,181.2879 539.9418,212.0581 528.1468,212.0581 532.9878,181.2879 511.4442,181.2879 " style="fill:#ffffff" id="polygon15"/></g><path d="m 343.5944,163.244 c 0,0 17.4531,-42.3601 67.0854,-41.8147 0,0 -5.8447,4.4315 -8.9446,9.4083 0,0 18.3983,-0.8181 29.4883,5.9086 0,0 -2.9089,1.0908 -9.0902,4.7269 0,0 23.6344,7.0903 33.27,20.9074 0,0 -17.9985,-15.8169 -51.2685,-11.4536 0,0 2.3634,-6.2774 6.3631,-8.5928 0,0 -13.9988,-2.1336 -26.7251,1.5025 l 5.6359,-9.4538 c 0,0 -20.362,-0.9999 -45.8144,28.8612 z" style="fill:#ff8200" id="path15"/></g></g></g></svg>