<svg height="314.77828" viewBox="0 0 185.20911 183.515" width="317.683926" xmlns="http://www.w3.org/2000/svg"><g transform="matrix(.26458333 0 0 .26458333 -13.228162 -14.075833)"><g><path d="m599.2 94.5s-85.9-41.3-199.1-41.3-199.1 41.3-199.1 41.3h-56.5v295.6c0 148.6 113 295.3 255.6 336.9 142.7-41.6 255.6-188.2 255.6-336.9s0-295.6 0-295.6z" fill="#fff"/><path d="m400.1 58.2c57.9 0 108.3 11.1 140.5 20.4 34.9 10.1 56.4 20.3 56.6 20.4l1 .5h1.1 51.5v290.6c0 70.6-26 143.6-73.3 205.5-46.7 61.3-109.7 106.1-177.3 126.2-67.7-20.1-130.7-64.9-177.3-126.2-47.3-62-73.3-135.1-73.3-205.5v-290.6h51.4 1.1l1-.5c.2-.1 21.7-10.3 56.6-20.4 32.1-9.4 82.5-20.4 140.4-20.4m0-5c-113.3 0-199.1 41.3-199.1 41.3h-56.5v295.6c0 148.6 113 295.3 255.6 336.9 142.7-41.6 255.6-188.2 255.6-336.9s0-295.6 0-295.6h-56.5s-85.8-41.3-199.1-41.3z" fill="#0f5198"/><path d="m164.3 126.5v263.5c0 136.9 103.2 274.5 235.8 316.2 132.7-41.6 235.8-179.2 235.8-316.1v-263.6z" fill="#ccc"/><path d="m405.1 136.5h220.9v253.6c0 64-23.5 130.8-66.2 187.8-40.8 54.7-95.6 95.7-154.8 116.3v-557.7z" fill="#fff"/><path d="m518.4 136.5h-55.6l-57.7 108.5v104.5z" fill="#ca101e"/><path d="m405.1 558.5 220.9-415.5v-6.5h-52l-168.9 317.5z" fill="#ca101e"/><path d="m626 390.1v-142.7l-220.9 415.6v31.2c59.3-20.5 114-61.6 154.8-116.3 42.6-57 66.1-123.8 66.1-187.8z" fill="#115199"/><path d="m174.2 136.5h220.89999v220.89999h-220.89999z" fill="#115199"/><path d="m174.2 367.3v22.8c0 64 23.5 130.8 66.2 187.8 40.8 54.7 95.6 95.7 154.8 116.3v-326.9z" fill="#fff"/><path d="m247.8 587.6v-220.3h-73.7v22.8c0 64 23.5 130.8 66.2 187.8 2.5 3.3 5 6.5 7.5 9.7z" fill="#ca101e"/><path d="m321.5 656.5c23.2 16 48 28.8 73.7 37.7v-326.9h-73.7z" fill="#115199"/></g><g><path d="m217.4 233.3c-6.9-1.5-9.4-2.6-19.1-7.4-7-3.5-16-15.1-18.9-19.2l-.4-.6-.5-.5-4.3-3.8v155.6h76.6v-88.5c0-22.4-21.8-33.1-33.4-35.6z" fill="#fff"/><path d="m216.2 239.1c-7.6-1.7-10.6-3-20.5-7.9-9.9-5-21.1-21.1-21.1-21.1l-.3-.3v147.6h70.7c0-20.4 0-72.7 0-88.5-.2-19.9-21.2-28.1-28.8-29.8z" fill="#115199"/><path d="m395.1 357.4v-154.4l-3.7 2.5-.8.6-.6.8c-.1.1-8.7 11.6-18 16.8-8.5 4.8-15.5 7-21.2 8.9-1 .3-2 .6-2.9.9-6.8 2.3-12.6 5.7-17.2 10.3-8.1 8-12.3 18.6-12.3 31.7v81.9z" fill="#fff"/><path d="m395.1 357.4v-147.2l-.3.2s-9.3 12.6-19.8 18.5c-10.6 5.9-19.2 8.3-25.1 10.2-5.9 2-25.4 9.6-25.4 36.3v81.9h70.6z" fill="#115199"/><path d="m310.8 254.5c-1.5.4-3.5.6-5.5.9-4.3.6-9.2 1.2-13.2 3.3-5.2 2.7-10.4 7.7-14.1 13.4-2.2 3.4-6.7 10.4-27.1 10.4h-5.9v5.9 68.9h79.6v-87.7c0-2.1-1-6.4 1.8-15.4 0 0 3.1-6.7 2.4-13.5-2 4.1-4.8 6.7-7.8 8.8-4 3.1-7.8 4.4-10.2 5z" fill="#fff"/><path d="m294.8 264c-4.7 2.5-9.2 7.2-11.9 11.4s-8.8 13.1-32.1 13.1v68.9h67.7c0-27.2 0-85.3 0-87.7 0-3.2 1.7-10.7 5.6-17.3 0 0-6.8 6.7-12 7.9s-12.6 1.2-17.3 3.7z" fill="#cd0d24"/></g><g clip-rule="evenodd" fill-rule="evenodd"><g fill="#004da0"><path d="m316.9 90.1s-2.8-2.4-9.6-3.7c-6.9-1.4-8.8 1.7-8.9 2.8-.1 1 .4 2.4 3 3.1 2.5.6 3.9.7 6.3 1.4 2.5.5 4.4.9 6.7 2.4 2.3 1.6 3.3 4 3.5 6.5.1 2.6-.6 5.3-2.2 7-1.6 1.8-4.2 3.6-8 4.3-3.7.8-8.2.2-10.1-.2-1.9-.5-6.6-2-6.6-2v-7.4s.7 1.2 3.1 1.9c2.5.7 4.9 1.5 7 1.7 2.2.2 5.9.8 7.1-.3 1.2-1.2 1.4-2.3 1.1-3.4-.3-1.2-1.1-1.5-2-2.2-1-.5-3.6-1.2-7-1.9-3.5-.9-3-.6-4.3-1-1.2-.4-4.7-2.9-5.6-5.4-1-2.5-1.3-5.5 1.4-9 2.5-3.2 9.8-4.7 14.2-4.4 4.3.3 10.9 2.7 10.9 2.7z"/><path d="m350 81.3v32.6h-7.9v-13.9h-12v13.9h-8.3l-.1-32.5h8.6v12.9h11.5v-13z"/><path d="m378.1 95v5.2h-15v8.3h15v5.4h-23.7l-.1-32.6h24v6l-15.1.1v7.6z"/><path d="m383.7 113.9v-32.6h7.5l14 21.7-.1-21.7h6.8l.1 32.5h-9.4l-12.4-20v20z"/><path d="m444.2 81.2.1 32.6h-7.9v-13.9h-12.1v13.9h-8.3v-32.5h8.4v12.9h11.7l-.1-13z"/><path d="m448.7 81.2h8.5v21.1s.1 6.1 6.3 5.9c6.1-.2 5.4-5.8 5.4-5.8v-21.2h8v23.8s.3 8.7-13.2 9.1c-14.8.3-15-8.7-15-8.7z"/></g><path d="m502.1 81.3-19.1 32.5-8 .1 18.8-32.6z" fill="#d7000f"/><path d="m493.4 104.7v-6h10.3v-17.4h8.5v32.5h-8.6v-9.1z" fill="#004da0"/></g><g fill="#fff"><g><path d="m500.3 588.8 1.7-4.1c1.4.5 2.7.5 3.7.1s1.8-1.2 2.5-2.4c.7-1.3.9-2.4.7-3.4-.2-.9-.7-1.6-1.4-2-.5-.2-.9-.3-1.4-.2s-1 .4-1.6 1c-.4.4-1.3 1.3-2.6 2.8-1.7 1.9-3.1 3-4.4 3.5-1.7.6-3.4.6-5-.3-1-.5-1.8-1.3-2.4-2.4-.6-1-.8-2.2-.7-3.6.1-1.3.6-2.8 1.4-4.3 1.3-2.5 2.9-4.1 4.6-4.8 1.8-.7 3.6-.6 5.4.3l-1.9 4.1c-1.1-.4-2-.4-2.8-.1-.7.3-1.4 1.1-2 2.2-.6 1.2-.9 2.2-.7 3.1.1.6.4 1 .9 1.3.5.2 1 .3 1.5 0 .7-.3 1.8-1.3 3.3-3s2.7-2.9 3.7-3.6 2.1-1.1 3.2-1.1c1.1-.1 2.3.2 3.6.9 1.1.6 2 1.5 2.7 2.6.7 1.2.9 2.4.8 3.9-.1 1.4-.6 3-1.6 4.7-1.3 2.5-2.9 4.1-4.8 4.9-1.9 1-4 .9-6.4-.1z"/><path d="m517.1 572.8-19.9-10.5 2.1-4 19.9 10.5z"/><path d="m521.3 565-19.9-10.5 2.1-3.9 17.6-1.1-13.3-7 2-3.7 19.9 10.5-2.1 4-17.2 1.2 13 6.9z"/><path d="m531.3 528.3 3.3-3.2c1.9 1.7 3 3.6 3.3 5.5s-.1 4-1.2 6.1c-1.4 2.6-3.5 4.3-6.2 5.1-2.7.7-5.6.3-8.8-1.4-3.3-1.8-5.4-4-6.4-6.7-.9-2.7-.7-5.4.8-8.2 1.3-2.4 3.1-4 5.3-4.8 1.3-.5 2.9-.5 4.7-.1l-1.2 4.5c-1.2-.3-2.2-.2-3.2.2s-1.8 1.2-2.3 2.3c-.8 1.5-.9 3-.3 4.4.6 1.5 2 2.8 4.4 4.1 2.5 1.3 4.6 1.8 6.1 1.5s2.7-1.2 3.5-2.7c.6-1.1.7-2.2.4-3.3-.2-1.1-.9-2.2-2.2-3.3z"/><path d="m542.5 524.8-19.9-10.5 7.8-14.8 3.4 1.8-5.7 10.7 4.4 2.3 5.3-10 3.4 1.8-5.3 10 5.4 2.9 5.9-11.1 3.4 1.8z"/><path d="m561.1 489.6-2 3.8-14.4-7.6c.6 2.1.7 4.2.3 6.5l-3.5-1.8c.2-1.2.2-2.6-.1-4.2-.3-1.7-.9-3-1.9-4.1l1.6-3.1z"/><path d="m559.6 481.3 1.5-3.9c.8.3 1.5.4 2 .2.6-.2 1-.6 1.3-1.2.4-.8.4-1.7 0-2.6s-1.8-2.1-4-3.4c.6 1.5.5 3-.2 4.5-.8 1.6-2.1 2.6-4 3.1-1.8.5-3.7.2-5.6-.8-2-1.1-3.3-2.5-3.9-4.4s-.4-3.7.6-5.6c1.1-2 2.7-3.3 5-3.7 2.2-.5 5.2.2 8.7 2.1 3.6 1.9 5.9 4 6.8 6.2s.8 4.4-.4 6.6c-.8 1.6-1.9 2.6-3.2 3.1s-2.8.4-4.6-.2zm-3.8-13c-1.2-.7-2.3-.9-3.3-.7s-1.7.7-2.1 1.4-.4 1.4-.1 2.2 1.1 1.5 2.4 2.1c1.3.7 2.4.9 3.2.7.9-.2 1.5-.7 1.9-1.4s.4-1.5.1-2.3c-.3-.7-1-1.4-2.1-2z"/><path d="m567.7 465.8 1.5-3.9c.8.3 1.5.4 2 .2.6-.2 1-.6 1.3-1.2.4-.8.4-1.7 0-2.6s-1.8-2.1-4-3.4c.6 1.5.5 3-.2 4.5-.8 1.6-2.1 2.6-4 3.1-1.8.5-3.7.2-5.6-.8-2-1.1-3.3-2.5-3.9-4.4s-.4-3.7.6-5.6c1.1-2 2.7-3.3 5-3.7 2.2-.5 5.2.2 8.7 2.1 3.6 1.9 5.9 4 6.8 6.2s.8 4.4-.4 6.6c-.8 1.6-1.9 2.6-3.2 3.1-1.2.5-2.8.4-4.6-.2zm-3.7-13c-1.2-.7-2.3-.9-3.3-.7s-1.7.7-2.1 1.4-.4 1.4-.1 2.2 1.1 1.5 2.4 2.1c1.3.7 2.4.9 3.2.7.9-.2 1.5-.7 1.9-1.4s.4-1.5.1-2.3c-.3-.7-1-1.4-2.1-2z"/><path d="m575.1 450.2 1.5-3.9c1 .4 1.9.4 2.7.2.8-.3 1.4-.7 1.7-1.5.4-.8.5-1.6.2-2.5s-1-1.6-2-2.1-1.9-.7-2.7-.4c-.8.2-1.4.7-1.8 1.4-.3.5-.5 1.1-.6 1.9l-2.9-2.1c.6-1 .8-1.9.6-2.7s-.7-1.4-1.5-1.8c-.7-.4-1.3-.4-1.9-.2s-1.1.6-1.4 1.3-.4 1.3-.2 2 .7 1.3 1.5 1.9l-2.5 3.2c-1.1-.9-1.8-1.8-2.3-2.6-.5-.9-.7-1.9-.6-3s.4-2.2 1-3.3c1-1.9 2.4-3.1 4.2-3.6 1.5-.4 2.8-.3 4.1.4 1.7.9 2.6 2.6 2.7 5.1.8-1 1.9-1.6 3.1-1.9 1.2-.2 2.4 0 3.6.6 1.8.9 2.9 2.4 3.5 4.3s.3 3.8-.7 5.7c-1 1.8-2.3 3-3.9 3.7-1.9.6-3.6.6-5.4-.1z"/></g><g><path d="m295.6 247.6s22.5-15.5 22.9-34.6c0 0 1.3-6.8-9.2-18.2 0 0-8.3-6.1 2.2-13.8 10.4-7.8 17.9-7.3 17.9-7.3s-34.2-3.4-42.2 5.8 7.3 17.8 10.7 21.2 9.3 7.3 8 17.9c-1.3 10.5-8 27-10.3 29z"/><path d="m251.8 208.3s-11.2 2-12.3 11.2c0 0 1.4 7.2 9.7 11.6 0-.2-10-14.5 2.6-22.8z"/><path d="m257.5 244.5c2.4.1 15.3 1.8 18.5.7 3.1-1.1 3.3-5.9 3.3-6.6s-3 1-3 1l-3-1.8-2.2 2.4s-1.9-2.8-2.6-3.2-1.9 4-4 4c0 0-5.3 1.6-11.7-6.6 0-.2 2.3 9.9 4.7 10.1z"/><path d="m386 192.9c-15.2-23.6-42.1-29.9-42.1-29.9-3.7 5.4-11.9 5.5-11.9 5.5-13.9 1.6-17.2-9.2-17.2-9.2 7.7-4.7 14.7-2.1 17-1.7s4.3-.3 4.3-.3c-1.1 6.6-9.7 8.5-9.7 8.5 11 .7 13.4-2.7 17.3-7.3 3.9-4.7 1.3-9.3 1.3-9.3s-.7 1.3-4.3 2.3-6-1.1-13.2-2.4-10.3 1.6-20-1.4-17.2-3.8-21.5-3.8-16.5 2.8-23.3 4.7c-6.9 1.8-14.7 4.9-19.7 7.3s-4 7.1-4.9 7.3c-.9.3-3.3.3-4.6.3s-2.4 1.3-3.6 2.4-2.3 1.8.1 3.5 1.7 2.4.3 1.8-1.6-.3-3.7-.6c-2.2-.3-.2 1.3.6 2.7.7 1.4.4 1-1.6.1-2-.8-5.4 0-7.4.1s-11 14-11 14c-2.3 6.9 3.1 4.2 3.1 4.2l1.4-1.8c1.4-1.8 1-3.4 5.3-4.7s6.1.1 6 .8-2.6.1-4.1.3c-1.6.1-1 3.4-4 7.3-3 4-1.1 5.5 3.4 10.4 4.6 4.9 15.2 14.5 15.2 14.5 6.6-10.3 9.9-14.5 18.7-14.5 8.9 0 17 7.8 25.8 20.2 8.7 12.4 4 19.6 1.6 22.6s-8.7 3-12 3-7.2-1.3-9.9-1.7-2.7 2.1-2 3.7c.7 1.5 1.7 1.1.9 11.4-.9 10.3 6.3 9 6.3 9 11 .7 13.4-5.8 16.6-12.6 3.1-6.8 10.2-8 10.2-8 6.3-6.2 11-18.6 12.4-30.5s-7.9-16.8-11.4-18.5c-3.6-1.7-7.4-4.8-10-6.5s-15.3-18.5 8.6-25.3 62.4 5.5 62.4 5.5-14.4-.3-26 2.7-12.3 13.1-12.3 13.1c32.2 34.2-21 59.1-21 59.1 27.5 0 37.3-15.2 43.8-27.9 6.4-12.7-5.9-29.9-5.9-29.9 14.6-19.4 55.7-.5 55.7-.5zm-127.7-26.4-5.4-5s6.8-4.8 14.7-4.8c.1.1-6.7 5.6-9.3 9.8z"/></g><g clip-rule="evenodd" fill-rule="evenodd"><path d="m308.4 315.8v8.1h-29.5v21.3h-18.1l-.1-51.4 52.2-.1v8.1h-34v14z"/><path d="m389.3 306.3v-9.5s-8.6-5.3-27-3.8c-18.5 1.5-26.2 7.7-31.4 18.4-5 10.6-1 24 16.8 31.1 18 7 37.6 1.4 42.8-2.9v-11s-6.2 7.8-20 8.1c-13.8.1-25.7-7.8-25-17s4.7-17 23.3-19.1c11.9.2 20.5 5.7 20.5 5.7"/><path d="m240.1 297.7v11s-11.3-4.6-19-5.5c-4.1 0-10.1 0-10.1 0s-6.5.8-7.7 4.3c0 1.5.6 3.8 6.8 4.6s26.8 3.1 30 9.5c3.2 5.4 4.1 11.9-5.2 18.7 0 0-8.2 4.8-17.6 4.8s-13.2-.1-13.2-.1-8.3-.5-17.2-3.8v-11.2s14.3 5.1 20.2 5.5c5.9.3 9.8.3 9.8.3s5.8-.2 7.6-3.9c0-1.3.5-.9 0-2.6-1.4-1-.5-1.9-11-3.5s-23.5-3.2-27.4-12.3c-.8-1.7-.5-4.5.2-8.4 2-3 5.4-9.8 22.6-11h12.3s10.2.1 18.9 3.6"/></g></g><g><path d="m748.9 630.1c-2.7-6.7-12.6-17.1-22.5-42.9s-11.2-25.3-17.2-47.1c0 0-6.9-7.9-22.8-5.5-15.9 2.5-72 30.7-68.1 56.5 1.2 7.9 10.8 11.4 10.8 11.4l6.7 12.1s-81.6 37.9-235.8 37.9-235.8-37.9-235.8-37.9l6.7-12.1s9.7-3.5 10.8-11.4c4-25.8-52.2-54-68.1-56.5s-22.8 5.5-22.8 5.5c-5.9 21.8-7.3 21.3-17.2 47.1s-19.7 36.2-22.5 42.9c-2.7 6.7 0 9.4 3.3 14.3 6.6 8.6 19 8.3 19 8.3 2.7-15.1 9.7-32 9.7-32 10.2 2.2 24.5 14.1 24.5 14.1-7.9 5.9-25.8 37-1.3 51.5 24.4 14.5 147.4 60.5 293.6 60.5s269.2-45.9 293.6-60.5c24.4-14.5 6.6-45.6-1.3-51.5 0 0 14.4-11.9 24.5-14.1 0 0 6.9 16.8 9.7 32 0 0 12.4.3 19-8.3 3.5-4.9 6.2-7.6 3.5-14.3z" fill="#115199"/><g fill="#fff"><path d="m124.7 589.9c-.1-.2-.4-.2-.5.1l-1.3 7.8c-.2 1.1.1 2.2.8 3.1 4.1 5.5 9.1 12.5 23.4 20.4 15.5 8.6 122.2 43.3 253 43.3s237.4-34.7 253-43.3c14.3-7.9 19.4-15 23.4-20.4.7-.9.9-2 .8-3.1l-1.3-7.8c0-.2-.4-.3-.5-.1-2 3.6-12.1 20.6-30 27.1-20.2 7.3-114.1 40.6-245.4 40.6s-225.2-33.4-245.4-40.6c-17.9-6.5-28-23.5-30-27.1z"/><path d="m106.1 571.5c-8.7-.2-14.9-12.4-14.9-12.4-21.9 57-30.3 63.4-32.8 66.6-2.5 3.1-7.1 4.5-3.6 13 3.5 8.4 16.6 10.9 16.6 10.9 10.9-55.2 34.7-78.1 34.7-78.1z"/><path d="m110.5 630.9c1.2-1.2 1.6-3.5 1.8-5.1.1-1-.4-2-1.2-2.6-7.3-5.3-20.3-11.5-23.5-13.1-.5-.3-1.2-.2-1.7.2-1.2 1.1-1.9 3-2.2 4.3-.2.7.2 1.4.9 1.6 11 3.5 21.3 12.1 24.1 14.6.4.6 1.2.6 1.8.1z"/><path d="m92.9 552.5c5.7-5 11.7-7.2 24.9-3.8 13.9 3.6 35 18.5 44.9 26.8s8.9 23.8 8.9 23.8c7.9-2 9.9-12.9-4-28.1s-45.9-29.4-56.8-30.4c-8.8-.8-15.2 3.1-17.4 4.7-.5.4-.8.9-.9 1.6l-.5 5.1c0 .3.5.5.9.3z"/><path d="m141.3 568.7c-5.6-.2-10.6 2.8-11.2 8.4-.5 4.4-.7 10.7-.8 13.3 0 .7.2 1.4.6 2 11 15.7 30.6 22.9 30.6 22.9 1.5-4.1 3.9-7.5 5.5-9.6.7-.9.2-2.2-1-2.3-6.2-.7-8.5-3.1-11.5-6.1-3.5-3.5-3.8-15.4-3.6-19.3.2-4-2.9-9.2-8.6-9.3z"/><path d="m686.4 677.4c-8.9 4.5-120.4 58-286.3 58s-277.4-53.5-286.3-58-16.8-15.4-11.9-31.2c0 0-7.4 9.7-5 19.6 2.5 9.9 13.4 17.3 22.8 21.1 9.4 3.7 114.5 54.5 280.4 54.5s271-50.8 280.4-54.5 20.3-11.2 22.8-21.1-5-19.6-5-19.6c5 15.9-2.9 26.8-11.9 31.2z"/><path d="m741.8 625.6c-2.5-3.1-10.9-9.6-32.8-66.6 0 0-6.2 12.1-14.9 12.4 0 0 23.8 23 34.7 78.1 0 0 13.1-2.5 16.6-10.9 3.5-8.5-1.1-9.9-3.6-13z"/><path d="m714.4 610.4c-.4-.4-1.1-.5-1.7-.2-3.2 1.5-16.2 7.8-23.5 13.1-.8.6-1.3 1.6-1.2 2.6.1 1.6.5 3.8 1.8 5.1.5.5 1.3.5 1.9.1 2.8-2.5 13-11.1 24.1-14.6.7-.2 1.1-.9.9-1.6-.5-1.5-1.2-3.5-2.3-4.5z"/><path d="m628.6 599.1s-1-15.5 8.9-23.8 31.1-23.1 44.9-26.8c13.2-3.4 19.2-1.2 24.9 3.8.3.3.8 0 .8-.4l-.5-5.1c-.1-.6-.4-1.2-.9-1.6-2.2-1.6-8.6-5.5-17.4-4.7-10.9 1-42.9 15.2-56.8 30.4-13.8 15.3-11.8 26.2-3.9 28.2z"/><path d="m635.1 603.2c-1.1.1-1.7 1.4-1 2.3 1.7 2.1 4 5.5 5.5 9.6 0 0 19.6-7.2 30.6-22.9.4-.6.6-1.3.6-2-.1-2.5-.3-8.9-.8-13.3-.7-5.6-5.6-8.6-11.2-8.4s-8.8 5.3-8.6 9.3-.2 15.9-3.6 19.3c-3 3.1-5.3 5.5-11.5 6.1z"/><path d="m277.9 707.6c-.8 0-1.7-.1-2.6-.2-2.6-.3-5.2-1.1-7.6-2.4-2.3-1.2-4.4-2.8-6.2-4.9l4.9-4.5c1.4 1.4 2.9 2.6 4.4 3.6 1.6 1 3.4 1.7 5.5 1.9.5.1 1 .1 1.4.1 1 0 1.9-.2 2.5-.5 1-.5 1.6-1.3 1.8-2.5.1-.6 0-1.1-.1-1.6s-.5-.9-1-1.3-1.2-.9-2.1-1.3c-.9-.5-2-1-3.5-1.5-1.7-.7-3.2-1.4-4.6-2.1-1.3-.7-2.5-1.5-3.3-2.4-.9-.9-1.5-1.9-1.9-3.1s-.5-2.7-.2-4.3c.2-1.6.7-3 1.4-4.2s1.7-2.1 2.9-2.9 2.5-1.3 4-1.6c.8-.2 1.7-.2 2.7-.2.7 0 1.5.1 2.3.2 2.5.3 4.8 1 6.8 2.1 1.9 1 3.7 2.3 5.2 3.8l-4.4 4.9c-1.4-1.2-2.7-2.2-4.1-3s-2.9-1.4-4.5-1.6c-.5-.1-.9-.1-1.3-.1-1 0-1.8.2-2.4.6-.9.5-1.4 1.3-1.5 2.2-.1.7 0 1.3.1 1.7.2.5.5 1 1.1 1.4.5.4 1.3.9 2.3 1.3.9.4 2.1.9 3.6 1.5 1.7.7 3.2 1.4 4.5 2.2 1.3.7 2.3 1.6 3.2 2.5.8.9 1.4 1.9 1.7 3s.4 2.4.2 3.9c-.2 1.8-.7 3.3-1.5 4.5s-1.8 2.2-3 3c-1.2.7-2.6 1.3-4.2 1.5-.7.2-1.6.3-2.5.3z"/><path d="m300.5 676 7.2.6-1.2 13.8 14.9 1.3 1.1-13.9 7.2.5-2.9 34.6-7.1-.6 1.1-14.1-14.8-1.2-1.1 14.1-7.2-.6z"/><path d="m479.3 678.5 1.7 34.6-7.1.4-.8-14.2-14.8.8.7 14.1-7.2.4-1.7-34.6 7.1-.4.8 13.9 14.8-.7-.7-14z"/><path d="m358.7 715.3-2-8-12.8-.6-3 7.8-7.3-.3 14.2-34.3 8.4.3 10.6 35.5zm-12.4-14.8 8.6.4-3-14.9z"/><path d="m514.1 708.8-3.4-7.5-12.7 1.8-1.5 8.2-7.2 1.1 7.5-36.4 8.3-1.3 17.1 32.8zm-15-12.2 8.6-1.2-5.8-14z"/><path d="m381.2 681.5 14.3 24 .3-23.8 6.6.1-.4 34.7-7.5-.1-14.5-24.7-.3 24.5-6.6-.1.4-34.7z"/><path d="m427.2 716.7c-2.3 0-3.3-.4-5.5-1.2s-4.2-2-5.8-3.6c-1.6-1.5-2.9-3.4-3.9-5.6-.9-2.1-1.4-4.5-1.5-7.1s.3-4.9 1.2-7.1 2.1-4.1 3.7-5.8 3.5-3 5.7-4 4.6-1.5 7.3-1.6h.8c1.3 0 2.4.1 3.5.2 1.3.2 2.5.5 3.6.8 1.1.4 2.1.8 3.1 1.4.9.5 1.8 1.1 2.6 1.8l-4.4 5.6c-.6-.5-1.2-.9-1.9-1.3s-1.4-.8-2.2-1.1c-.7-.3-1.6-.5-2.4-.7-.7-.1-1.5-.2-2.4-.2h-.4c-1.4 0-2.8.4-4.1 1-1.2.6-2.3 1.5-3.2 2.5s-1.6 2.3-2.1 3.6c-.5 1.4-.7 2.8-.7 4.4 0 1.7.3 3.3.9 4.6.6 1.4 1.4 2.6 2.4 3.6s2.2 1.8 3.5 2.3c.3.1.5.2.7.3.6.3 1 .4 2 .4h.3c2.9-.1 5.4-.9 7.4-2.4l.1-.1-.1-5.5-7.8.2-.1-6.1 14.7-.3.3 14.9c-1.7 1.5-3.8 2.9-6.2 4s-5.3 1.7-8.4 1.8z"/><path d="m526.79999 671.09998h7.2v34.700001h-7.2z" transform="matrix(.99 -.1409 .1409 .99 -91.7098 81.5899)"/><path d="m179.3 676.5c-4.7-2.1-7.2-8.7-7.8-13.7-.1-.9-.2-1.9-.3-2.8 0-.1 0-.1 0-.2-2.6 4.9-3 10.6-1.1 15.9.8 2.3 2.1 4.5 3.7 6.3.3-.1.5-.1.7-.2 2.6-1 4.3-2.9 4.8-5.3z"/><path d="m204.6 669.4c-1.8-.3-3.4.6-4.5 1.4.5 3.4-2 7.1-4.7 10.1-2.5 3.1-7.1 5.8-10.5 7.4 3.4.7 7.1.4 10.4-.8 6.7-2.4 11.6-8.3 12.8-15.4-.8-1.6-2-2.5-3.5-2.7z"/><path d="m194 679.7c3.7-4.6 5.7-8.3 2.9-11.4-.7-.7-2.1-1.7-3.7-1.6-1.3.1-2.5.8-3.5 2.2.4 1.4 0 3.1-.9 4.7-1 1.7-2.5 2.9-4 3.3-1.2.3-2.4.3-3.6.1-.7 3-2.8 5.3-5.9 6.4 1.9 1.8 4.2 3.1 6.6 4 4-1.3 9.5-4.5 12.1-7.7z"/><path d="m184.3 656.7c1.8-1.6 4.5-2 7.2-2 1.6 0 3.2.2 4.7.4 3.4.6 7.2 2.2 10.1 4.5-4.6-8.5-14.6-12.5-23.8-9.3-.9 1.3-1.1 2.7-.7 4.1.2 1.1 1.2 2.1 2.5 2.3z"/><path d="m174.8 668c2 5.3 5.6 7.9 9.6 7.1.9-.2 2-1 2.7-2.2.7-1 .9-2.2.8-3.2-4.7-1.5-6.4-6-5.6-9.6.2-.7.4-1.2.7-1.8-1.3-.6-2.4-1.7-3.1-3-.6-1.2-.7-2.6-.4-3.9-2.6 1.4-4.9 3.4-6.7 5.7.1.7.2 1.4.2 2.1.4 3 .7 5.9 1.8 8.8z"/><path d="m184.2 660.5c-.6 2.7.7 6.1 4.1 7.3 1.3-1.8 3-2.7 4.8-2.9 2.3-.2 4.3 1.1 5.2 2.1.5.6.9 1.1 1.2 1.7 1.1-.7 2.7-1.4 4.4-1.4h.7c1.4.2 2.7.7 3.7 1.8 0-1.8-.2-3.5-.7-5.2-2.3-3.3-7.5-6.2-12.1-7-3.7-.5-10.4-.9-11.3 3.6z"/><path d="m628.5 659.5v.3c-.1.9-.2 1.9-.3 2.8-.6 5-3.1 11.5-7.8 13.6.5 2.4 2.2 4.3 4.7 5.2.3.1.5.2.7.2 1.6-1.9 2.9-4 3.7-6.3 2-5.1 1.5-10.9-1-15.8z"/><path d="m604.2 680.7c-2.5-3.1-5-6.7-4.6-10.1-.9-.9-2.7-1.7-4.5-1.4-1.5.2-2.8 1.2-3.6 2.8 1.2 7.1 6 12.9 12.7 15.3 3.3 1.2 7 1.5 10.4.8-3.4-1.7-7.9-4.4-10.4-7.4z"/><path d="m618.5 676.8c-1.1.2-2.3.2-3.6-.1-1.5-.4-3-1.6-4-3.2-.9-1.6-1.3-3.2-.9-4.6-1-1.4-2.1-2.1-3.5-2.2-.1 0-.2 0-.3 0-1.5 0-2.8.8-3.4 1.6-2.8 3.1-.8 6.7 2.9 11.3 2.6 3.2 8 6.3 12.1 7.7 2.4-.8 4.6-2.2 6.6-4-3.1-1.2-5.3-3.6-5.9-6.5z"/><path d="m615.4 656.5c1.2-.3 2.2-1.2 2.7-2.4.5-1.3.3-2.8-.6-4.1-2.1-.7-4.3-1.1-6.4-1.1-7.1 0-13.9 3.9-17.4 10.4 2.9-2.2 6.7-3.9 10-4.5 3.8-.5 8.8-.7 11.7 1.7z"/><path d="m617.4 659.9c.8 3.6-.8 8.1-5.6 9.6-.2.9.2 2 .8 3.2.7 1.2 1.8 2 2.7 2.2 4 .9 7.5-1.8 9.6-7.1 1.1-2.9 1.4-5.8 1.7-8.8.1-.7.2-1.4.2-2.1-1.8-2.4-4.1-4.4-6.7-5.7.4 1.3.2 2.7-.4 3.9-.6 1.4-1.7 2.4-3.1 3 .4.6.7 1.1.8 1.8z"/><path d="m600.2 668.6c.3-.6.6-1.1 1.2-1.7 1-1.1 3-2.3 5.2-2.1 1.9.1 3.5 1.1 4.8 2.9 3.4-1.2 4.7-4.5 4.1-7.2-1-4.5-7.6-4.2-11.5-3.5-4.5.7-9.7 3.7-12.1 7-.5 1.7-.6 3.4-.6 5.2 1-1 2.3-1.7 3.7-1.8 2-.5 4 .3 5.2 1.2z"/></g></g></g></svg>