<svg height="374.394097" viewBox="0 0 132.03883 185.20833" width="267.098228" xmlns="http://www.w3.org/2000/svg"><g transform="matrix(.26458333 0 0 .26458333 -39.813912 -13.229167)"><path d="m648.5 76.1c-60.7-23.1-248.5-26.1-248.5-26.1s-187.8 3-248.5 26.1c0 0-2.3 193.6 0 324.1 1.5 86.8 7.5 99.8 16.3 128.1 9.2 29.7 39.1 75.3 96 113.2 56.9 38 109.7 73.5 136.2 108.5 26.5-35 79.3-70.5 136.2-108.5 56.9-37.9 86.8-83.5 96-113.2 8.8-28.3 14.8-41.3 16.3-128.1 2.3-130.6 0-324.1 0-324.1z" fill="#212579"/><g fill="#fff"><path d="m522.2 575.1c-21.3 13.9-48.6 29-76.5 50.1-27.9 21-45.8 41.6-45.8 41.6s-17.9-20.6-45.8-41.6-55.1-36.2-76.5-50.1c-16.6-10.9-50-31.3-79.9-63.7.7 2 1.4 4.1 2.1 6.3 7.7 23.6 28.4 59.4 82.6 95.6 42.2 28.2 85.6 57 117.4 86.8 31.8-29.8 75.2-58.7 117.4-86.8 54.3-36.2 74.9-71.9 82.6-95.6.7-2.2 1.4-4.4 2.1-6.3-29.7 32.5-63 52.9-79.7 63.7z"/><path d="m520.8 326.8c56.3 13.4 85.3 36.5 93.9 44.3 0-.1 0-.3 0-.4 0-17.2 0-55.7 0-55.7v.2-1.7c-17.8-8.1-46.2-19.3-46.2-19.3-15.4 25.8-47.7 32.6-47.7 32.6z"/><path d="m400.4 232v-63.4c-.1 0-.3 0-.4 0-14.3 0-28.1.1-41.5.4v74.5c13.9-4.8 29.1-9.5 41.9-11.5z"/><path d="m460.2 238.5c13 4.9 28.5 7.5 36.2 7.1s15.4 1.8 52.8-12.8c37.3-14.6 59.5-38.7 59.5-38.7s-.4 22.2-2.5 42.4-15.7 41.5-15.7 41.5l24.2 9.6v-101.8c-19.1-4.7-47.7-9.6-89.9-13-20.7-1.6-43.5-2.8-68.2-3.5v67.9c1.3.4 2.5.9 3.6 1.3z"/><path d="m500.9 487.6c-21.1-8.1-44.3-7.1-44.3-7.1v97.6c11.3-7.6 24.7-16.2 40.8-26.1 22.3-13.8 39.6-26.4 53.1-38.2-18.2-11.7-28.5-18.1-49.6-26.2z"/><path d="m389.1 525.4-16.6 16c-7.3.8-13.9 2.6-13.9 2.6v44.6c20.9 14.8 32.6 25.1 41.5 34.5.1-.2.3-.3.4-.5v-99c-4 1-11.4 1.8-11.4 1.8z"/><path d="m185.4 315.1v-.2 55.7c0 17.2 4.6 57.6 19.4 87v-276c-7.4 1.4-13.8 2.8-19.4 4.2z"/><path d="m291.9 495.6c-2.8-6.5-6.4-13.7-4.4-24.4s12.8-21.2 12.8-21.2-.3-.8 1.2-4.1c.5-1.2.8-2.7.9-4v-4.3c-5.4-1.6-14.1-6.5-25.1-11.6-11-5-16.4-11.3-16.4-11.3v108.6c11.5 9 25.1 18.5 41.5 28.6v-34.7c-4.3-6-8.2-16.1-10.5-21.6z"/><path d="m583.9 233.5s-5.5 11.9-28.8 21.7c-23.3 9.9-44.3 13-58.1 13s-28.8-2.8-45.8-7.9-25.3-5.5-36-5.5-28.5 1.6-49.8 9.9-31.6 14.2-40.3 18.2-16.6 6.7-38.7 9.5-27.7 5.5-34 8.7c-3.5 3.3-14.2 15.5-16.1 17.5-1.9 2.1-8.3 8.9-5.8 14.1s10.8 18.5 10.8 18.5 5.6-21.5 6.8-25.6 5.6-8 9.5-7.9 6.2 2.7 8.3 5.5 5.6 7 12 6.4 8.1-2.1 21.2-8c13-5.9 17.2-7.4 25-10.2 7.9-2.8 12.9-4.4 19.7-6.7s20.7-8.9 25.6-12.3 14.5-10.3 17.5-11.7 9-3.1 15.4 0 12.2 7.9 26.2 10.4c0 0-34.2 4.7-57.6 11.3s-54.8 17.3-70.8 26.7c-16 9.3-20.4 11.1-28.5 11.4-8 .3-18.2.9-24 9.9s4.1 17 7.9 22.2c3.7 5.2 35 45.8 69.9 47 0 0-11.7-6.8-14.4-28 0 0 21.2-4.1 33.3-8s21.3-5.2 30.2 1.9 13.6 20.3 10.5 31.2c-3.2 10.9-12.8 17.4-19.4 22.1-6.5 4.7-20 14.2-22.9 17.4 0 0-14-.2-8.5-21.9 0 0-10.9 8.7-12.6 27.5 0 0-11.7 8-10.7 18.7.2 2.8 6.7 15.6 8.5 20.2 1.8 4.5 2.8 6.5 7.5 8.7s31.5 14.2 31.5 14.2-10.8-15.6-11.9-27.6c0 0 10.3 7.5 15.2 8.1s34.2-2.6 34.2-2.6-6.1-11.9 5.7-23.5c11.9-11.7 29.8-21.9 59.7-20.5 29.8 1.4 65.4 10.7 104.3 38.9 0 0-35.6-61.2-131.4-59.7 0 0 20.4-16.8 72.2-3.2s90.7 49.8 90.7 49.8-14.1-34.4-65.3-53.3-78.2-14.2-78.2-14.2 36-13.4 60.5-57.9c0 0-48.6 49-79.2 50.4 0 0 26.7-16 39.7-46 0 0-19 24.3-44.7 30.4 0 0-9.5 41.3-25.1 54.3 0 0 14.2-27.9 16-56.5 0-2.4-4-7.1-8.3-11.9-4.3-4.7-13.7-18.6-13.1-29 .6-10.5 14.2-21.7 24.2-24.5s38.9-3.3 57.8-3.7c0 0-16.9-3.6-61.6-8.9 0 0 70.2-4.8 96.7-1.7 0 0 53.2-16.8 67.4-77.3z"/><path d="m260.9 251.8v25.7c14.2-5.4 37.2-13.7 41.5-15.2v-10.6h-41.5z"/><path d="m302.4 181.6v-10.6c-9.4.5-18.5 1.1-27.1 1.8-5 .4-9.7.8-14.3 1.2v7.6z"/><path d="m251.7 188.4h-15.5c-3.7 0-5.7 2.1-5.7 5.9v12.2.9h.9 7.7.9v-.9-9.3h7.8v9l-17.8 32.5-.1.2v.2 5.1.9h.9 25.6.9v-.9-7.2-.9h-.9-14.7l13.8-25.1c1.2-2.2 1.8-4.3 1.8-6.2v-10.6c.1-3.7-1.9-5.8-5.6-5.8z"/><path d="m283.1 188.2h-16.4c-3.7 0-5.7 2.1-5.7 6v45.2c0 3.8 2 5.9 5.6 5.9h16.5c3.6 0 5.7-2.1 5.7-5.9v-45.2c-.1-3.9-2.1-6-5.7-6zm-3.9 48.2h-8.7v-39.3h8.7z"/><path d="m292.6 204v.1.1 1.1.9h.9 2.1v38.3.9h.9 7.8.9v-.9-55.5-.9h-.9-6.7-.7l-.2.7z"/><path d="m330.8 188.2h-16.1c-3.7 0-5.7 2.1-5.7 6v12.1.9h.9 7.8.9v-.9-9.2h8.4v10.3l-9.3 6.6-.4.3v.5 1.7.5l.4.3 9.3 6.7v12.6h-8.4v-9.8-.9h-.9-7.8-.9v.9 12.8c0 3.8 2 5.9 5.6 5.9h16.2c3.6 0 5.7-2.1 5.7-5.9v-15.5c0-2.5-1-4.4-3-5.7l-3.9-2.5 3.8-2.6c2-1.4 3-3.3 3-5.8v-13c.1-4.2-1.9-6.3-5.6-6.3z"/><path d="m457.4 101.7c-1.9 0-2.2 1.7-2.3 8.2s.1 8.2 2 8.3c1.9 0 2.2-1.7 2.3-8.2 0-6.5-.2-8.3-2-8.3z"/><path d="m381.8 101.5h-1.2v5.6h1.2c1.8 0 2.6-1.1 2.6-2.9.1-1.9-.7-2.7-2.6-2.7z"/><path d="m300.6 115 3.5-.3-2.4-10h-.1z"/><path d="m524.8 88.1c-35.8-2.8-77.8-4.2-124.8-4.2s-89 1.4-124.8 4.3c-42.2 3.3-70.7 8.2-89.9 13v49c19.1-4.7 47.7-9.6 89.9-13 35.8-2.8 77.7-4.3 124.8-4.3s89 1.4 124.8 4.3c42.2 3.3 70.7 8.2 89.9 13v-49c-19.2-4.8-47.8-9.7-89.9-13.1zm-306.4 42.9-8.3-4.9-7.2 6.4 2.1-9.4-8.3-4.9 9.6-.9 2.1-9.4 3.8 8.8 9.6-.9-7.2 6.4zm34-3.5-6.8.6-3.5-15.9h-.1l-.7 16.3-6.8.6-6.1-23.6 6-.5 3.3 16.4h.1l.8-16.7 5.6-.5 3.9 16.3h.1l.3-16.7 6-.5zm13-.7c-5.2.3-8.3-1.5-8.7-8.2l-1-15.7 6.2-.4 1.1 17.3c.1 2.3.9 2.9 2.1 2.8s1.8-.7 1.7-3l-1.1-17.3 6.2-.4 1 15.7c.5 6.6-2.2 8.8-7.5 9.2zm20.6-2-.5-9.9-3.8.2.5 9.9-6.2.3-1.1-24 6.2-.3.4 8.8 3.8-.2-.4-8.8 6.2-.3 1.1 24zm20-1.3-.9-4.2-5 .3-.4 4.2-6.6.4 4.3-24.3 7.9-.5 7.4 23.6zm17.2-.8-4.5-14.7h-.1l.3 14.8-5.9.1-.5-24 7-.1 4.3 14.7h.1l-.3-14.8 5.9-.1.5 24zm26.5-.9-6.3.1-.3-18.7-4.7.1-.1-5.3 15.7-.3.1 5.3-4.7.1zm15.8-.4-.2-9.9-3.8.1.2 9.9-6.3.1-.4-24 6.3-.1.2 8.8 3.8-.1-.2-8.8 6.3-.1.4 24zm26.1-.4h-6.7c-.6-1.2-.6-3.6-.6-4.6v-1.6c0-2.7-.5-3.4-2.1-3.4h-1.6v9.6h-6.3v-24h9.8c4.8 0 6.6 2.7 6.6 6.4 0 3.2-1.2 5.3-4.1 5.7v.1c3 .3 3.9 2.2 3.9 5.4v2.1c0 1.2 0 2.8.3 3.3.2.3.3.5.7.7v.3zm16.2 0h-14.5v-24h14.2v5.1h-8v4.1h7.5v4.9h-7.5v4.8h8.3zm16.8.2h-14.6v-24h14.2v5.1h-8v4.1h7.5v4.9h-7.5v4.8h8.3v5.1zm23.6-18.6-4.7-.1-.3 18.7-6.3-.1.3-18.7-4.7-.1.1-5.3 15.7.2zm17.6 7.5c-.2 9-2.4 12.4-8.8 12.3s-8.5-3.7-8.3-12.6c.2-9 2.4-12.4 8.8-12.3 6.3.1 8.4 3.6 8.3 12.6zm15.1 12.6-1.3-16.2h-.1l-2.8 16-6.9-.3-3-24.2 6 .3 1.2 16.7h.1l3-16.5 5.6.3 1.7 16.7h.1l2.5-16.5 6 .3-5.2 23.8zm29 1.7-6.8-.4-3.3-15.1h-.1l-.9 14.8-5.8-.3 1.4-24 7 .4 3.1 15h.1l.9-14.8 5.8.3zm18.8-15.8-5.8-.4v-.6c.1-1.4-.4-2.6-1.6-2.7-1.3-.1-2 .9-2.1 2-.4 4.7 10 3.2 9.4 11.9-.4 5.1-3.5 7.2-9 6.7-5.2-.4-7.9-2.4-7.5-7.3l.1-.8 6 .4v.6c-.2 2 .6 2.8 1.8 2.9 1.3.1 2.1-.9 2.2-2.2.4-4.7-9.6-3.1-9-11.6.4-4.9 3.1-7.3 8.4-6.9s7.4 2.9 7.1 8zm25.8.3-7.9-.6-.3 4.1 7.4.5-.4 4.9-7.4-.5-.7 9.9-6.2-.5 1.7-23.9 14.2 1zm17.3 4.1-.1 1.5-6-.5.1-1.3c.2-2.7-.2-3.6-1.4-3.7-1.9-.2-2.3 1.6-2.9 8-.6 6.5-.5 8.2 1.4 8.4 1.5.1 2-1.2 2.4-5.7l6 .5-.2 1.8c-.6 6.7-4.6 8-8.7 7.6-7-.6-8.2-4.3-7.4-13.2.8-9.1 3.2-12.2 9.7-11.7 5.6.6 7.5 3.7 7.1 8.3zm25.3 18.8-6.7-6.9-8.6 4.3 4.5-8.5-6.7-6.9 9.5 1.6 4.5-8.5 1.4 9.5 9.5 1.6-8.6 4.3z"/></g></g></svg>