<svg xmlns="http://www.w3.org/2000/svg" xmlns:svg="http://www.w3.org/2000/svg" width="311.44823004794875" height="321.0806495339678" viewBox="0 0 179.58328 185.21098" version="1.1" id="svg1" xml:space="preserve"><defs id="defs1"><style id="style1">
      .st0 {
        fill: #ccc;
      }

      .st1 {
        fill: #ec9e1b;
      }
    </style></defs><g id="layer1" transform="translate(-3.4747646,-23.631943)"><g id="g1" transform="matrix(0.26458333,0,0,0.26458333,-0.71750188,37.924012)"><g id="g22" transform="translate(-44.785213,-104.01727)"><g id="g5"><path class="st1" d="M 233.42,389.3 V 123.24 C 233.42,82.79 266.21,50 306.66,50 h 0.73 v 259.36 c -41.39,3.18 -73.97,37.77 -73.97,79.94 z" id="path2"/><path class="st1" d="M 233.42,676.76 V 389.31 c 0,42.19 32.59,76.78 73.97,79.96 v 280.74 h -0.73 c -40.45,0 -73.24,-32.79 -73.24,-73.24 z" id="path3"/><path class="st1" d="M 393.8,123.24 V 389.3 c 0,-42.19 -32.6,-76.77 -73.97,-79.94 V 50 h 0.73 c 40.45,0 73.24,32.79 73.24,73.24 z" id="path4"/><path class="st1" d="m 393.8,389.3 v 287.45 c 0,40.45 -32.79,73.24 -73.24,73.24 h -0.73 V 469.25 c 41.37,-3.18 73.97,-37.75 73.97,-79.96 z" id="path5"/></g><g id="g9"><path class="st1" d="m 739.37,281.98 v 38.57 c 0,40.45 -32.78,73.24 -73.24,73.24 H 665.4 V 208.74 h 0.73 c 40.46,0 73.24,32.78 73.24,73.24 z" id="path6"/><path class="st1" d="m 652.99,208.74 v 185.05 h -0.75 C 611.79,393.79 579,361 579,320.55 v -38.57 c 0,-40.46 32.79,-73.24 73.24,-73.24 z" id="path7"/><path class="st1" d="m 652.99,406.2 v 185.05 h -0.75 c -2.05,0 -4.06,-0.08 -6.07,-0.25 -37.62,-3.08 -67.18,-34.58 -67.18,-72.99 v -38.57 c 0,-0.25 0,-0.48 0.01,-0.73 0.39,-40.12 33.03,-72.51 73.23,-72.51 h 0.75 z" id="path8"/><path class="st1" d="m 739.37,479.45 v 38.57 c 0,40.46 -32.78,73.24 -73.24,73.24 H 665.4 V 406.21 h 0.73 c 40.46,0 73.24,32.79 73.24,73.24 z" id="path9"/></g><g id="g13"><path class="st1" d="M 480.19,318.73 V 750 h -0.73 C 439,750 406.22,717.21 406.22,676.76 V 391.97 c 0,-12.98 3.37,-25.15 9.29,-35.71 12.52,-22.4 36.47,-37.53 63.96,-37.53 h 0.73 z" id="path10"/><path class="st1" d="m 480.19,50 v 149 c -40.67,-3.11 -72.84,-36.57 -73.95,-77.77 1.06,-39.51 33.43,-71.22 73.21,-71.22 h 0.73 z" id="path11"/><path class="st1" d="m 566.59,123.24 v 197.31 c 0,12.98 -3.37,25.15 -9.29,35.71 -12.52,22.4 -36.47,37.53 -63.96,37.53 h -0.75 V 50 h 0.75 c 39.77,0 72.15,31.72 73.21,71.22 0.01,0.68 0.03,1.34 0.03,2.02 z" id="path12"/><path class="st1" d="m 566.59,478.71 v 198.04 c 0,40.45 -32.79,73.24 -73.24,73.24 H 492.6 V 558.65 c 0,-22.14 8.98,-42.18 23.49,-56.69 13.14,-13.14 30.82,-21.75 50.5,-23.26 z" id="path13"/></g><g id="g17"><path class="st1" d="M 134.6,208.74 V 356.56 C 106.35,354.39 82.23,337.6 69.73,313.75 64.31,303.4 61.08,291.74 60.68,279.35 62.05,240.1 94.3,208.73 133.87,208.73 h 0.73 z" id="path14"/><path class="st1" d="m 221,281.98 v 68.9 c 0,1.99 -0.07,3.95 -0.22,5.91 -0.3,4.24 -0.94,8.39 -1.89,12.42 -2.67,11.46 -7.81,21.96 -14.81,30.93 -2.03,2.61 -4.23,5.1 -6.56,7.43 -13.14,13.14 -30.82,21.75 -50.48,23.26 v -222.1 h 0.73 c 39.56,0 71.82,31.37 73.19,70.62 0.04,0.87 0.06,1.74 0.06,2.63 z" id="path15"/><path class="st1" d="m 134.6,369.46 v 221.8 h -0.73 c -40.45,0 -73.24,-32.78 -73.24,-73.24 v -68.61 c 0,-18.57 6.32,-35.67 16.93,-49.25 2.03,-2.61 4.23,-5.1 6.56,-7.43 13.14,-13.14 30.82,-21.74 50.48,-23.26 z" id="path16"/><path class="st1" d="m 221,449.4 v 68.61 c 0,30.29 -18.38,56.27 -44.58,67.42 h -0.01 c -8.8,3.75 -18.48,5.82 -28.65,5.82 h -0.73 v -61.9 c 0.08,-0.01 0.15,-0.01 0.22,-0.03 -0.15,-1.96 -0.22,-3.94 -0.22,-5.94 0,-22.14 8.97,-42.18 23.48,-56.69 13.09,-13.09 30.69,-21.68 50.27,-23.23 0.15,1.95 0.22,3.94 0.22,5.93 z" id="path17"/></g><g id="g21"><path class="st1" d="m 313.61,321.56 c -37.36,0 -67.75,30.39 -67.75,67.75 0,37.36 30.39,67.75 67.75,67.75 37.36,0 67.75,-30.39 67.75,-67.75 0,-37.36 -30.39,-67.75 -67.75,-67.75 z m 42.87,111.83 c -0.32,-2.52 -0.93,-5.73 -2.11,-9.13 0,0 -9.38,13.1 -14.27,17.4 0,0 -16.03,0.68 -19.45,0.39 0,0 3.51,4.17 6.69,7.23 -4.42,1.01 -9.01,1.56 -13.73,1.56 -28.13,0 -51.89,-18.98 -59.2,-44.8 l 10.76,4.41 c 0,0 -4.2,-9.76 -8.55,-17.89 0,0 6.11,-14.37 8.55,-19.64 0,0 -7.04,2.65 -12.02,4.99 3,-15.92 12.14,-29.68 24.86,-38.74 l 6.39,1.9 2.32,-7.1 c 8.13,-3.96 17.25,-6.19 26.88,-6.19 3.18,0 6.3,0.24 9.34,0.71 2.83,1.55 5.92,3.33 7.29,4.37 0,0 -4.2,5.38 -5.96,7.53 0,0 14.76,0.34 17.79,0.68 0,0 8.75,9.68 12.36,16.67 0,0 0.84,-7.68 0.84,-13.65 12.2,11.25 19.86,27.36 19.86,45.22 0,17.86 -7.16,32.89 -18.66,44.08 z" id="path18"/><path class="st1" d="m 309.82,355.63 c 0,0 8.21,-10.65 12.41,-14.56 0,0 -10.26,-0.29 -24.53,6.65 0,0 -7.62,-4.79 -12.71,-5.08 0,0 -0.88,9.77 -1.56,12.02 0,0 -11.24,10.46 -16.42,17.4 0,0 12.12,-1.76 17.49,-2.15 0,0 4.01,19.64 4.69,23.65 0,0 7.23,-17.49 10.16,-22.77 0,0 17.89,0.78 25.51,2.05 0,0 -7.82,-10.16 -15.05,-17.2 z" id="path19"/><path class="st1" d="m 362.19,385.06 c 0,0 -2.15,-18.57 -6.45,-24.53 0,0 -1.08,7.43 -5.67,18.37 0,0 -14,-2.41 -22.38,-4.59 0,0 10.36,15.64 13.29,20.91 0,0 -10.85,14.86 -14.07,19.06 0,0 16.03,-4.69 20.82,-5.86 0,0 4.59,9.38 6.74,13.98 0,0 4.89,-8.21 6.65,-21.5 0,0 8.99,-7.62 10.26,-9.43 0,0 -4.3,-4.84 -9.19,-6.4 z" id="path20"/><path class="st1" d="m 289.18,396.3 c 0,0 -3.42,12.8 -3.23,20.13 0,0 -10.95,-0.78 -17.59,-4.98 0,0 3.91,9.87 15.93,16.81 0,0 0.29,9.58 0.29,13.19 0,0 8.31,-2.64 12.8,-5.47 0,0 11.37,5.38 21.99,5.47 0,0 -8.8,-9.09 -10.62,-12.15 0,0 11.17,-8.48 15.77,-13.23 0,0 -13.16,1.56 -23.52,1.95 0,0 -9.58,-17.4 -11.83,-21.73 z" id="path21"/></g></g></g></g></svg>