<svg height="343.799648" viewBox="0 0 156.58041 185.20833" width="290.867081" xmlns="http://www.w3.org/2000/svg"><g transform="matrix(.26458333 0 0 .26458333 -27.543125 -13.229167)"><g><path d="m626.6 129.3c-109.1-17.8-226.6-79.3-226.6-79.3s-117.5 61.5-226.6 79.3c-8.6 35.9-27.6 117.7-14.3 230.7 10.3 87.7 49.5 249 240.9 302.7 191.4-53.7 230.6-215 240.9-302.7 13.3-113-5.7-194.8-14.3-230.7z" fill="#cb9920"/><path d="m400 648.3c-78.3-22.8-137.6-67-176.4-131.4-26.4-43.7-43.4-97-50.6-158.5-12.1-103.2 3.1-179 11.9-216.9 93.8-17.2 189.6-63 215.1-75.8 25.6 12.8 121.3 58.6 215.1 75.8 8.8 37.9 24.1 113.7 11.9 216.9-7.2 61.5-24.3 114.8-50.6 158.5-38.8 64.3-98.1 108.5-176.4 131.4z" fill="#fff"/><path d="m400 598.9c-65.3 0-122.6-33.8-155.5-84.9 28.9 55.2 76.5 106.8 155.5 134.3 79-27.5 126.6-79 155.5-134.3-32.9 51.1-90.2 84.9-155.5 84.9z" fill="#09377f"/><path d="m400 229.2c102.1 0 184.9 82.8 184.9 184.9 0 11.8-1.1 23.2-3.2 34.4 15.9-54.2 18.4-104.2 19.8-130.7 3.3-64.1-3.3-130-13-176.3-93.5-19.5-188.5-75.9-188.5-75.9s-95 56.4-188.5 75.8c-9.7 46.3-16.3 112.1-13 176.3 1.4 26.5 3.9 76.6 19.8 130.7-2.1-11.1-3.2-22.6-3.2-34.4 0-102.1 82.8-184.8 184.9-184.8z" fill="#e70012"/><circle cx="400" cy="414" fill="#fff" r="184.89999"/></g><g><path d="m572.9 414c0 50-21.3 95.1-55.3 126.7-.4.1-.7.3-1.1.4 22.9-38.8 18.5-75.8 17.6-85.1s-5.7-52.4-34.4-71.8c15 3.1 43.4 15.6 59.9 87.7 0 0-8.2-124.3-81.5-121 0 0 67.4-23.6 91.7 56.6-.2-1.7-7.6-56.6-58.6-100.9 0 0 5.3 9.3 6.6 20.7 0 0-21-51.7-97.5-55.6 0 0 14.2 13.3 15.5 33.7 0 0-67.5-50-150.3-20.9 15.3-13.5 33-24.4 52.3-31.9 18.6.3 38.8 5.4 55.1 15.8-4.9-8.6-22.5-20.2-28.8-22.8-.3-.1-.5-.4-.4-.7 11.7-2.5 23.9-3.8 36.3-3.8 17.3 0 34 2.6 49.8 7.3 12.5 6.6 25.8 16.1 39.2 29.6-1.4-4.6-9-15.2-17.7-21.5 59.9 27.2 101.6 87.6 101.6 157.5z" fill="#09377f"/><g fill="#cb9920"><path d="m504.9 488.6s5.6 25.7 10.1 54.5c-15.9 14.2-34.5 25.5-54.8 33.1 11.3-42.5 23.3-114-23.1-152 14.8 19.6 46.2 67.4 4.9 157.7-13.5 3.4-27.6 5.2-42.1 5.2-5.4 0-10.7-.2-16-.7 10.7-4.6 21-11.7 35.3-27.9-14.9 11.1-33.8 23.7-70.3 21-33.1-10.2-62-30.2-83.3-56.4 8.9 5.3 22.6 10.2 42.9 10.3 5 11.9 20.2 27.1 38 28.4-9.9-5-19.8-11.2-26.8-28.4 11.6.3 31.1-.3 47.3-4.6 7.9 6 34.4 19.5 74 4.3-10.2 2-36 8.3-62.1-7.6 12.2-3 18.2-6.9 27.8-17.8 7.9.3 28.4 1.3 43-16.5-6.6 4.3-17.8 10.9-39.7 9.6 5.6-6.6 6.9-13.2 7.3-19.8 8.3-1.6 24.8-11.6 19.2-37.3-1 9.9-2.6 26.8-20.5 29.4-5-8.9-12.2-14.2-18.8-16.9 5-10.2 10.2-21.5 4-46.6 0 0 1.3 12.9-4.3 20.5s-15.5 12.6-26.1 18.8c-10.6 6.3-26.4 22.8-27.8 28.8-1.3 5.9 1.6 10.6 7.6 13.2 0 0-3.3 2.3-10.9-1 0 0-2.6 9.6 12.9 13.2 0 0-13.9 4.3-23.8-9.3 0 0-13.9 1-14.9-12.2 0 0 3 1.6 6.9 2 0 0-.7-3 2-7.3 2.6-4.3 13.2-12.6 21.5-19.2s8.9-26.4 8.9-26.4 8.6-4 12.2-11.2c-.5.3-17.6 8.6-25.8 10.6-8.3 2-19.5 1.3-23.5 2.6s-6.3 5-6 7.9c0 0-3.6-1.8-4-5.9 0 0-7.3 3.6-7.5 7.8 0 0-4.8-2-4.4-5.1 0 0-5.3 5.5 2.4 18.5 0 0-13.7-2.2-17.6-13.4 0 0-3.7 4.8-2.4 10.6 0 0-7.8.3-13.4-7.7-1-1.5-3.6-.5-3.6-.5s-4-11.2.8-20.7c4.8-9.4 12.1-10.6 17.8-9.6 3-3.5 5.8-7.8 12.4-6.6 1-3 1.6-3.3 4-4.8 2.3-1.5 6.9-5.3 9.1-4.6.7-2.1 7.3-12.4 8.8-13.7.5-3.8 3.5-9.6 6.9-13.4 3.5-3.8 11.9-11.2 17.5-15.5s20.8-16 24.3-35.7c0 0 3.8 11.6-1 24.1 0 0 24-12.4 33.5-31.9 0 0 1 33.7-54.4 51.1 0 0 96.7-10.2 112.2-54.5 0 0 4.6 22.8-20.5 30.4 0 0 28.7 3.6 58.8-41.3-.2.9-8.7 29.6-34.7 44.6-26.4 15.2-38 19.2-63.5 26.8 23.1 3.6 53.2 12.6 73 34-8.3-3.6-20.8-2.6-20.8-2.6s32.4 17.2 65.4 58.5c0 0-10.2-5.6-17.5-7.3 0 0 18.8 21.1 28.8 51.2.3-.3-11.6-11.9-15.6-14.8zm-167.9-89.9c6.9-5.3 3.6-11.6 3.6-11.6l-19.5 17.2c.1 0 9-.3 15.9-5.6z"/><path d="m342.3 442c-35.5 5.9-22.2 51.3-65.4 44.6-11.2-1.3-22.1-2.3-25.1 9.9 0 0-7.3-18.5 12.2-24.1 0 0-1.7-8.6 3.6-10.9 0 0 5 14.9 20.2 11.9 32.8-9 7.6-29.6 54.5-31.4z"/></g></g><g><path d="m264 323.6.3 16.6 16.9 5.3 9.2-15.2-10.9-14.6z"/><path d="m307.6 329.6 8.6 14.9 11.9-4.7v-16.5l-12.6-7.6z"/><path d="m289.1 359.7-6.6 9.6 13.2 5.6 14.6-6.3-3.7-9.3z"/><path d="m287.1 303.5-6.9-6.6s15.2-4.3 27.4 1l-1.7 5.6z"/><path d="m259.7 350.4-6.3-5.9s5 14.2 12.6 21.5l2.1-1.2s-5.8-8.8-8.4-14.4z"/><path d="m265.2 305.9-4.5 11-6.2 8.5-2-1.5c3.9-6.3 8.1-12.3 12.7-18z"/></g><g fill="#cb9920"><path d="m230.1 267.7 5.2 3c-1.4.5-2.2.9-3.5 2.4l-3.1 3.9 14.7 11.9c2.1 1.7 3.2 2.1 4.4 2.4l-8 9.9c-.5-1.1-1.1-2.1-3.3-3.8l-14.7-11.9-3.1 3.9c-1.3 1.6-1.5 2.5-1.7 3.9l-4-4.4z"/><path d="m255.5 264.9 5.1 5.5c1.9 2 2.8 2.5 4 3l-9.3 8.6c-.4-1.2-.8-2.2-2.7-4.2l-12.8-13.8c-1.9-2-2.8-2.5-4.2-2.8l17.3-16c3.7-3.4 6.5-3.9 9.7-.4l3.6 3.9c2.9 3.1 1.5 4.6-.1 6.4l8.3 3.3c1.9.7 3.3 1.5 4.7 1.6l-9 8.3-12.3-5.6zm-3.2-3.5 4.5-4.2c1-.9 1.2-1.4.2-2.4l-2.4-2.6c-.9-1-1.4-.9-2.4 0l-4.5 4.2z"/><path d="m299.3 240.8c2.6-1.6 2.6-2 1.2-4.2l-8.6-13.4c-1.7-2.7-2.2-3.1-3.7-3.7l5.8-3.7c-.1 1.6.1 2.2 1.9 4.9l7.9 12.3c3.5 5.5 3.3 8.4-1.9 11.8l-12.2 7.8c-4.7 3-8.2 1.9-11.4-3.2l-8-12.5c-1.5-2.3-2.4-3-3.4-3.7l10.7-6.9c.2 1.2.4 2.3 1.9 4.6l8.8 13.7c1 1.6 2.1 1.8 3.7.8z"/><path d="m332.6 225.7c2.4-.9 3.4-1.7 4.3-2.5l1 5.5-23.6 9c.1-1.2.1-2.4-.9-4.9l-6.7-17.5c-1-2.5-1.7-3.4-2.6-4.3l23.1-8.9 2.8 4.8c-1.2.1-2.5.2-4.9 1.1l-8.3 3.2 2.4 6.3 7.3-2.8c2.3-.9 3.4-1.7 4.3-2.5l2.2 5.8c-1.2.1-2.5.2-4.9 1l-7.3 2.8 2.7 7.2z"/><path d="m371.6 202.2-2.5 19.4-10.6 1.2-9.5-24c-.7-1.8-1.5-2.7-2.3-3.5l13.2-1.5c-.2.6-.3.9-.1 1.9.1.9.3 1.6.7 2.8l5 13.3h.1l2.4-18.9 11.1-1.3 7 17.8h.1l1.7-14.1c.2-1.1.1-2.1 0-2.8s-.3-1.4-.6-1.8l7.1-.8c-.4.6-1.2 1.6-1.6 4.5l-3.1 24.8-10.7 1.2z"/><path d="m406.6 211.4-2.2 3.8c-.3.5-.5 1.1-.5 1.7-.1 1 0 1.1.5 2.1l-8.1-.5c1.8-2.1 2.4-2.8 3.6-5l11.8-21.1-1.1-1.7 12.9.8 8.6 25.3c.5 1.5 1.3 3 2.2 4.1l-14.3-.9c.6-1 .7-1.2.7-1.8 0-.7 0-1.5-.3-2.2l-1.3-3.8zm10.9-4-3.4-9.9-5 9.4z"/><path d="m452.7 213.3-2 7.2c-.7 2.6-.7 3.8-.4 5l-12.2-3.4c.8-.9 1.4-1.9 2.2-4.5l5-18.1c.7-2.6.7-3.8.2-5.1l22.7 6.2c4.8 1.3 6.8 3.4 5.5 8l-1.4 5.1c-1.1 4.1-3.2 3.7-5.4 3.3l1.6 8.8c.4 2 .5 3.6 1.1 4.9l-11.8-3.2-1.7-13.4zm1.3-4.6 6 1.6c1.3.4 1.8.3 2.2-1.1l.9-3.4c.4-1.3 0-1.7-1.3-2l-6-1.6z"/><path d="m490 226.6-3.3 6.7c-1.2 2.4-1.4 3.6-1.4 4.8l-11.4-5.6c1-.8 1.8-1.6 3-4l8.4-16.8c1.2-2.4 1.4-3.6 1.1-4.9l21.1 10.5c4.5 2.2 6 4.7 3.8 8.9l-2.3 4.7c-1.9 3.8-3.8 3.1-6 2.2l-.1 8.9c0 2-.2 3.6.2 5l-10.9-5.4.9-13.4zm2.1-4.2 5.5 2.7c1.2.6 1.7.6 2.3-.6l1.6-3.1c.6-1.2.4-1.6-.9-2.2l-5.5-2.7z"/><path d="m506.6 250.3c1.1-.6 2-1.3 3.5-3.6l10.6-15.5c1.5-2.3 1.9-3.3 2-4.6l10.5 7.2c-1.1.6-2 1.3-3.5 3.6l-10.6 15.5c-1.5 2.3-1.9 3.3-2 4.6z"/><path d="m535.9 246c4.3-4.4 7.7-4.2 11.1-1l11.7 11.4c3.3 3.2 3.6 6.7-.7 11.1l-8.2 8.5c-4.3 4.4-7.7 4.2-11.1 1l-11.7-11.5c-3.3-3.2-3.6-6.7.7-11.1zm-1.7 17.4c-1 1-.8 1.8.3 2.8l3.4 3.3c1 1 1.9 1.2 2.8.2l10.8-11.1c1-1 .8-1.8-.3-2.8l-3.4-3.3c-1-1-1.9-1.2-2.8-.2z"/><path d="m566 289.1-6.1 4.5c-2.2 1.6-2.9 2.5-3.4 3.6l-7.5-10.2c1.2-.2 2.3-.6 4.5-2.2l15.1-11.1c2.2-1.6 2.8-2.5 3.3-3.9l13.9 18.9c3 4 3.2 6.9-.7 9.7l-4.3 3.1c-3.4 2.5-4.8 1-6.3-.8l-4.2 7.9c-.9 1.8-1.8 3.1-2.1 4.5l-7.2-9.8 6.9-11.5zm3.9-2.8 3.7 5c.8 1.1 1.2 1.3 2.4.5l2.8-2.1c1.1-.8 1.1-1.3.2-2.4l-3.7-5z"/></g><g><path d="m210.8 713.7c-2.5-1.6-62.6-39.8-98.7-90.7l-8-11.3 58.7-5.3c1.1-13.3 3.6-43.3 6.1-61.2l2.9-20.6 11.5 17.3c.7 1 1.4 2.1 2.2 3.3 10.3 15.7 31.7 48.5 80 78.3l6.7 4.1-54.5 90.4z" fill="#cb9920"/><path d="m170.1 613.8s3.3-44.3 6.6-67.4c9.3 13.9 31.1 50.9 84.6 83.9l-46.2 76.7s-60.8-38.3-96.5-88.6z" fill="#e70012"/></g><g><path d="m589.2 713.7c2.5-1.6 62.6-39.8 98.7-90.7l8-11.3-58.7-5.3c-1.1-13.3-3.6-43.3-6.1-61.2l-2.9-20.6-11.6 17.4c-.7 1-1.4 2.1-2.2 3.3-10.3 15.7-31.7 48.5-80 78.3l-6.7 4.1 54.5 90.4z" fill="#cb9920"/><path d="m629.9 613.8s-3.3-44.3-6.6-67.4c-9.3 13.9-31.1 50.9-84.6 83.9l46.3 76.7s60.8-38.3 96.5-88.6z" fill="#e70012"/></g><g><path d="m400 750c-71 0-136.1-20-193.4-59.6l-6.6-4.6 58.4-82.1 6.6 5.2c.5.4 53.6 41.3 135.1 41.3s134.5-40.9 135.1-41.3l6.6-5.1 4.8 6.8 53.6 75.3-6.6 4.6c-57.5 39.5-122.6 59.5-193.6 59.5z" fill="#cb9920"/><path d="m540 615.1s-54.6 43-140 43-140-43-140-43l-48.9 68.7c57.5 39.7 122.3 58.2 188.9 58.2s131.4-18.5 188.9-58.2z" fill="#e70012"/></g><g fill="#fff"><g><path d="m281.2 661.4c-.8-1.2-1.4-2.1-3.1-2.9l-8.4-3.9c-1.4-.6-1.9-.5-2.5.8l-.9 2c-.6 1.3-.4 1.7 1 2.4l6.4 2.9c3.8 1.8 5 4.7 2.6 9.9l-4 8.7c-2.6 5.7-5.4 8.2-9.7 6.2l-16.3-7.5 2.6-7.6c.6 1.1 1.2 2.2 2.9 3l8.7 4c1.4.6 1.8.6 2.4-.8l1.1-2.5c.6-1.3.4-1.7-1-2.3l-7.4-3.4c-3.6-1.6-4.2-4.1-1.4-10.1l3.7-8c2.6-5.6 5.7-7.7 8.9-6.2l16.7 7.7z"/><path d="m276.7 693.7c1-1.2 1.9-2.5 3.3-6l9.9-23.9c1.4-3.5 1.7-5 1.8-6.6l10.7 4.4c-1 1.2-1.9 2.5-3.3 6l-9.9 23.9c-1.4 3.5-1.7 5-1.8 6.6z"/><path d="m310.5 672.7-6.4 24.8c-1.1 4.3-1.2 5.1-.8 7.1l-6.1-1.5c1.3-1.6 1.6-2.3 2.7-6.6l6.2-24.5c1.1-4.3 1.2-5.1.8-7.1l13.5 3.4 2.3 33.8h.1l6.2-24.3c1.1-4.3 1.2-5.1.8-7.1l6.1 1.5c-1.3 1.6-1.6 2.3-2.7 6.6l-8 31.3-12.5-3.2z"/><path d="m362.1 685.1c-1-.8-1.9-1.4-3.8-1.7l-7-1.1c-1.3-.2-2 .3-2.3 2.2l-3.3 21.1c-.3 1.9.3 2.6 1.5 2.8l5.5.9c3.9.6 4.6.3 6.1-.5l-2.1 7.8-15.7-2.6c-4.2-.7-6-4.1-4.7-12.5l2.5-16.1c1.3-8.4 4.1-11.1 8.3-10.4l15.4 2.4z"/><path d="m387 712.7c2.3.1 3.5-.4 4.5-.9l-1.2 7.5-22.9-.9c.5-1.5.9-3 1.1-6.7l1-25.9c.1-3.8-.1-5.2-.5-6.8l22.5.9.5 7.6c-1-.5-2.2-1.1-4.5-1.2l-8.1-.3-.4 9.2 7.1.3c2.3.1 3.4-.4 4.5-.9l-.3 8.6c-1-.5-2.2-1.1-4.4-1.2l-7.1-.3-.4 10.6z"/><path d="m439.4 711.1c2.6-.2 3.2-.7 5.3-2.1l-.3 8.3-26.1 2.1-1.4-17.5c-.5-6.7.9-8.1 4.4-8.7l10.5-1.7c1.3-.2 1.5-.7 1.4-2.3l-.2-2.2c-.1-1.1-.6-1.8-2.1-1.7l-11.4.9c-1.5.1-2.8.7-3.9 1.7l.2-8 19.1-1.5c5.8-.5 7.2 2.9 7.6 8.4l.6 7.9c.5 5.9-.9 7.6-5.2 8.3l-9.8 1.5c-1 .1-1.1 1.4-1 2.7l.4 4.9z"/><path d="m468.2 671.2c4.1-.9 7.1 1.7 8.8 10l3.3 15.9c1.7 8.3 0 11.8-4.1 12.7l-14.6 3c-4.1.9-7.1-1.7-8.8-10l-3.3-15.9c-1.7-8.3 0-11.8 4.1-12.7zm-8 8.3c-1.3.3-1.8 1-1.4 2.9l4.3 20.9c.4 1.9 1.1 2.3 2.4 2.1l4.2-.9c1.3-.3 1.8-1 1.4-2.9l-4.3-20.9c-.4-1.9-1.1-2.3-2.4-2.1z"/><path d="m500.1 660.6c4-1.4 7.2.7 10.1 8.7l5.5 15.3c2.9 8 1.7 11.7-2.3 13.1l-14 5c-4 1.4-7.2-.7-10.1-8.7l-5.5-15.3c-2.9-8-1.7-11.7 2.3-13.1zm-6.8 9.4c-1.2.4-1.6 1.2-1 3l7.2 20.1c.6 1.8 1.5 2.2 2.7 1.7l4.1-1.5c1.2-.4 1.6-1.2 1-3l-7.2-20.1c-.6-1.8-1.5-2.2-2.7-1.7z"/><path d="m518.7 659.2c-2 .9-2.3 1.4-3.3 3l-2.7-7.7 23.1-10.8 3 5.9c-1.3 11.3-.7 24 2.8 34.9l-10.2 4.7c-3.4-12.4-2.2-31.7-1.8-35.3z"/></g><g><path d="m254.9 214.6-27.5-25.2 8.8-5.4 16.2 17.1-8.1-22.5 7.2-4.6 16.2 16.1-8-21.4 8.1-5.2 12 35.1-8.1 5.2-16.7-16.2 7.8 22z"/><path d="m290.3 193-14-33.3 24-10.1 3.2 7.5-15.1 6.4 2.2 5.2 14.3-6 3 7.1-14.3 6 2.6 6.1 16-6.7 3.1 7.4z"/><path d="m345.3 145.2-1.3-8.2 30.3-4.5 1.2 8.3-10.2 1.5 4.1 27.4-9.8 1.5-4.1-27.4z"/><path d="m426.4 144.7-9.4.4c-.1-1.1-.7-2.5-1.6-3.6s-2.2-2-3.7-2.2c-2-.2-4.1.5-5.4 2.2s-1.9 4.5-2.2 7.7c-.3 3.3.3 6 1.2 8s2.5 3.2 4.5 3.4c1.6.1 3.6 0 4.7-1.1s1.8-2.8 2.1-4.7l10.1.8c-.6 4.6-2.7 8.2-5.7 10.7-3.1 2.4-7.3 3.1-12 2.7-5.4-.5-9.5-2.5-12.2-6.2s-3.8-8.5-3.3-14.6c.5-5.7 2.4-10 5.8-13 3.3-3 7.7-4.3 12.9-3.8 4.6.4 8.2 1.9 10.7 4.6 2.6 2.4 3.6 5.8 3.5 8.7z"/><path d="m432.4 151c.6-2.7 1.7-5.3 3-7.3s2.4-3.9 4.4-5.4c1.9-1.3 4.2-2.1 6.5-2.5s4.7-.4 7.3.2c2.5.6 5 1.4 6.9 2.7s3.7 3.1 4.9 5.1c1.4 2.1 2 4.4 2.1 7.1.1 2.5.3 5.1-.4 7.9-.6 2.7-1.5 5-2.8 7s-3 3.7-5 5.1c-1.9 1.3-4 2.2-6.3 2.6s-4.7.3-7.2-.3c-2.5-.5-4.6-1.5-6.5-2.7-1.9-1.3-3.5-2.9-4.7-4.9-1.4-2.2-2-4.4-2.4-6.9-.5-2.3-.4-4.9.2-7.7zm9.8 1.7c-.7 3.3-.6 6 .3 8.1 1 2.1 2.7 3.4 5.2 4 2.2.5 4.2-.1 6-1.7s3-4 3.7-7.2c.7-3.3.6-6-.4-8.1s-2.7-3.4-5.2-4c-2.2-.5-4.2.1-6 1.7-1.6 1.6-2.9 4-3.6 7.2z"/><path d="m464.1 175.6 23.3-29.9 10.9 3.5v38.3l-9.7-3.2v-7.4l-11-4-4.6 6zm18.2-9.3 7.1 2.7v-12.1z"/><path d="m504.2 177.2 8.6 4.2-.3.5c-.8 1.5-.5 3.4.4 4.5.7.9 1.8 1.9 3.3 2.7 1.4.7 2.6 1.2 3.6 1.1s2.2-.8 2.5-1.7c.8-2-.2-3.5-3.9-6.6-.6-.5-1.8-1.5-2.1-1.7-3.2-2.8-5-4.6-5.9-7.1s-.8-5.2.4-7.7c1.6-3.1 4-4.9 7.3-5.5s6.6 0 10.8 2.1 7 4.5 8.3 7.5c1.1 2.4 1 6.6-.1 9.2l-8.8-3.5c.6-1.3.3-3.3-.1-4.1-.4-.9-1.6-2-3-2.7-1.2-.6-2.3-.9-3.2-.8s-2 .9-2.4 1.7c-1.1 2.2 1.5 3.6 5.5 7l.4.3c1.9 1.7 3.1 3 3.9 3.9.8.8 1.1 1.4 1.5 2 1.1 1.8 1.3 3.2 1.4 4.7s-.1 3.1-.9 4.8c-1.3 2.8-4.7 5.5-7.2 6-3.4.8-7.1.3-11.4-1.8-4.7-2.3-7.8-5.1-9.2-8.2-1.5-3.1-1.2-6.7.6-10.8z"/><path d="m314.2 170.1 9.1-2.9.1.6c.5 1.6 2 2.8 3.4 3 1.2.2 2.6.2 4.2-.3 1.5-.5 2.7-1 3.4-1.7.7-.8 1-2.1.6-3-.8-2-2.6-2.4-7.4-2.1-.8 0-2.3.2-2.8.2-4.2.2-6.8.1-9.1-1-2.3-1.2-4.2-3.2-5-5.8-1.1-3.3-.5-6.3 1.5-9 1.9-2.7 4.8-4.5 9.3-6 4.4-1.4 8.2-1.6 11.2-.3 2.4 1 5.3 4.1 6.3 6.7l-8.7 3.6c-.4-1.3-2-2.5-2.9-2.9s-2.5-.3-4 .2c-1.3.4-2.3 1-2.9 1.7s-.8 2.1-.6 2.9c.7 2.4 3.6 1.5 8.8 1.3l.5-.1c2.5-.1 4.3.1 5.5.1s1.8.2 2.5.4c2 .5 3.2 1.4 4.3 2.4s2.1 2.3 2.7 4.1c1 3 .4 7.2-1 9.3-1.9 2.9-4.9 5.1-9.5 6.6-5 1.6-9.2 1.7-12.4.5-3.2-1.5-5.6-4.2-7.1-8.5z"/><path d="m543.6 180.4 4.7-7 25.2 17.4-4.7 7-8.5-5.9-15.8 22.7-8.2-5.6 15.8-22.7z"/></g></g></g></svg>