<svg height="336.598858" viewBox="0 0 163.40546 185.20833" width="297.089541" xmlns="http://www.w3.org/2000/svg" xmlns:xlink="http://www.w3.org/1999/xlink"><linearGradient id="a"><stop offset=".3" stop-color="#ffe80a"/><stop offset="1" stop-color="#eb980a"/></linearGradient><linearGradient id="b" gradientUnits="userSpaceOnUse" x1="169.42799" x2="341.7623" xlink:href="#a" y1="520.07202" y2="520.07202"/><linearGradient id="c" gradientUnits="userSpaceOnUse" x1="304.87039" x2="610.84839" xlink:href="#a" y1="520.07202" y2="520.07202"/><linearGradient id="d" gradientUnits="userSpaceOnUse" x1="516.70081" x2="676.07751" xlink:href="#a" y1="520.07202" y2="520.07202"/><g transform="matrix(.26458333 0 0 .26458333 -24.128923 -13.229167)"><g><path d="m681.26 442.54c49.95-158.34 16.67-306.1 16.67-306.1-81.09 11.14-145.7-16.49-205.41-45.89-59.7-29.41-79.3-40.55-92.52-40.55s-32.82 11.14-92.53 40.55-124.31 57.03-205.41 45.89c0 0-49.93 221.66 64.29 412.93l-19.07 49.35 38.65 105.82h130.31c25.11 16.51 52.93 31.78 83.74 45.46 30.81-13.68 58.63-28.95 83.74-45.46h128.5l28-105.82-1.59-4.1c7.56-5.87 13.54-13.81 16.98-23.15l17.46-47.4c.42-1.14.3-2.41-.32-3.45l-2.4-2.66 3.49-.69c1.22-.36 2.2-1.27 2.63-2.47l13.64-37.04c3.63-9.86 2.21-20.89-3.8-29.51-1.43-2.13-3.15-4.04-5.05-5.71z" fill="#c59a65"/><path d="m691.49 145.34c-10.07 1.11-20.18 1.67-30.16 1.67-66.79 0-121.77-24.33-172.36-49.24-10.41-5.13-19.6-9.7-27.75-13.76-35.84-17.83-52.2-25.96-61.22-25.96s-25.38 8.13-61.22 25.95c-8.15 4.06-17.35 8.63-27.76 13.76-50.58 24.91-105.56 49.24-172.35 49.24-9.97 0-20.08-.56-30.16-1.67-4.78 26.16-19.01 120.94 1.74 230.35 12.1 63.79 33.94 121.8 65.03 172.9l-19.4 50.21 35.69 97.7h127.2c25.07 16.66 52.16 31.58 81.23 44.7 29.07-13.11 56.16-28.04 81.23-44.7h124.83l25.75-97.32-14.81-38.34c35.12-53.87 59.54-115.87 72.65-184.6 20.88-109.5 6.62-204.68 1.84-230.89z" fill="#09103c"/><path d="m400 724.61c-82.17-38.19-147.74-91.36-194.95-158.12-39.23-55.47-66.14-120.61-79.99-193.62-17.58-92.65-9.47-174.53-3.95-211.34 5.88.36 11.76.54 17.56.54 70.03 0 126.84-25.09 179.02-50.8 10.42-5.13 19.62-9.71 27.78-13.77 27.41-13.63 49.03-24.39 54.53-24.4 5.5.01 27.12 10.77 54.5 24.38 8.17 4.07 17.38 8.65 27.81 13.78 52.19 25.7 108.99 50.8 179.02 50.8 5.8 0 11.67-.18 17.55-.54 5.53 36.93 13.64 119.12-4.05 211.88-13.9 72.9-40.84 137.95-80.08 193.35-47.19 66.65-112.69 119.73-194.75 157.86z" fill="#6d912d"/><path d="m188.5 217.45-73.22 73.22c-.34-6.53-.58-12.92-.73-19.16l74.05-74.05c-.08 6.37-.13 13.04-.1 19.99zm.12 14.09-72.49 72.49c.43 6 .96 12.1 1.61 18.29l71.36-71.36c-.23-6.65-.39-13.13-.48-19.42zm1.01 33.09-70.46 70.46c.71 5.76 1.52 11.59 2.42 17.48l69.11-69.11c-.42-6.4-.78-12.68-1.07-18.83zm2.04 32.06-68.08 68.08c.47 2.69.96 5.39 1.48 8.1.54 2.88 1.12 5.76 1.71 8.61l66.56-66.56c-.64-6.16-1.18-12.24-1.67-18.23zm3.04 31.08-65.41 65.41c1.23 5.38 2.52 10.71 3.91 15.99l63.73-63.73c-.82-5.96-1.56-11.85-2.23-17.67zm4.03 30.07-62.51 62.51c1.45 5.16 2.97 10.26 4.58 15.31l60.73-60.73c-1.01-5.73-1.94-11.43-2.8-17.09zm5 29.11-59.42 59.42c1.67 4.93 3.42 9.82 5.24 14.66l57.53-57.53c-1.19-5.55-2.31-11.07-3.35-16.55zm5.94 28.16-56.16 56.16c1.89 4.72 3.85 9.4 5.88 14.02l54.19-54.19c-1.38-5.34-2.67-10.68-3.91-15.99zm6.89 27.22-52.77 52.77c2.09 4.52 4.25 8.98 6.49 13.41l50.73-50.73c-1.55-5.16-3.03-10.32-4.45-15.45zm7.82 26.29-49.25 49.25c2.29 4.31 4.64 8.58 7.08 12.8l47.15-47.15c-1.73-4.96-3.39-9.93-4.98-14.9zm8.74 25.38-45.64 45.64c2.49 4.12 5.04 8.2 7.67 12.23l43.48-43.49c-1.92-4.78-3.75-9.58-5.51-14.38zm9.63 24.47-41.93 41.92c1.39 2.05 2.8 4.08 4.23 6.1 1.32 1.87 2.65 3.73 4.01 5.57l39.72-39.73c-2.08-4.62-4.09-9.23-6.03-13.86z" fill="#749d1b"/><path d="m611.4 197.45 74.05 74.05c-.15 6.24-.39 12.63-.73 19.16l-73.22-73.22c.04-6.94-.02-13.61-.1-19.99zm-.49 53.51 71.36 71.36c.64-6.19 1.18-12.29 1.61-18.29l-72.49-72.49c-.1 6.29-.26 12.77-.48 19.42zm-1.61 32.5 69.11 69.11c.9-5.89 1.71-11.72 2.42-17.48l-70.46-70.46c-.29 6.15-.64 12.43-1.07 18.83zm-2.63 31.47 66.56 66.56c.59-2.85 1.17-5.73 1.71-8.61.51-2.71 1-5.41 1.48-8.1l-68.08-68.08c-.49 5.98-1.04 12.06-1.67 18.23zm-3.61 30.5 63.73 63.73c1.39-5.28 2.68-10.61 3.91-15.99l-65.41-65.41c-.67 5.83-1.41 11.72-2.23 17.67zm-4.6 29.51 60.73 60.73c1.61-5.05 3.14-10.16 4.58-15.31l-62.51-62.51c-.86 5.65-1.78 11.35-2.8 17.09zm-5.55 28.56 57.53 57.53c1.82-4.84 3.57-9.73 5.24-14.66l-59.42-59.42c-1.03 5.48-2.16 11-3.35 16.55zm-6.5 27.6 54.19 54.19c2.03-4.62 3.99-9.3 5.88-14.02l-56.16-56.16c-1.23 5.31-2.53 10.65-3.91 15.99zm-7.43 26.67 50.73 50.73c2.24-4.42 4.4-8.88 6.49-13.41l-52.77-52.77c-1.42 5.14-2.9 10.3-4.45 15.45zm-8.35 25.76 47.15 47.15c2.44-4.22 4.79-8.49 7.08-12.8l-49.25-49.25c-1.59 4.96-3.25 9.93-4.98 14.9zm-9.26 24.85 43.48 43.49c2.62-4.03 5.18-8.11 7.67-12.23l-45.64-45.64c-1.77 4.8-3.6 9.6-5.51 14.38zm-10.16 23.95 39.72 39.73c1.36-1.84 2.69-3.7 4.01-5.57 1.43-2.02 2.84-4.05 4.23-6.1l-41.93-41.92c-1.94 4.63-3.95 9.24-6.03 13.86z" fill="#749d1b"/><path d="m399.89 724.53c-231.94-176.43-212.94-488.49-209.65-582.36 22.33-4.17 43.35-10.75 63.41-18.57.02 5.27.03 10.64.04 16.14.55 459.83 141.79 581.11 146.2 584.79z" fill="#09103c"/><path d="m400.11 724.53c231.95-176.43 212.94-488.49 209.66-582.36-22.33-4.17-43.35-10.75-63.41-18.57-.02 5.27-.03 10.64-.04 16.14-.56 459.83-141.8 581.11-146.21 584.79z" fill="#09103c"/><path d="m631.81 599.18-25.75 97.32h-414.49l-35.69-97.71z" fill="#1f2c58"/></g><g fill="#09103c"><path d="m361.61 283.87c-24.73 3.95-40.99 35.7-40.99 35.7h-15.59l18.94-24.73c-2.9-.45-25.84 23.17-25.84 23.17-13.81-11.14-12.92-8.02-14.26-18.05s-4.01-19.6 3.79-23.61 22.28-15.37 31.41-23.17 22.28-21.16 24.51-30.74 16.26-15.59 16.26-15.59c-4.68-6.24-15.37-5.35-15.37-5.35 4.9-4.9 27.18-4.46 27.18-4.46-3.79-5.12-10.69-2.01-10.69-2.01-8.47-13.14-8.58-22.17-8.58-22.17 11.7 1.67 28.07 21.39 28.07 21.39-7.35-15.04-6.02-36.09-6.02-36.09 19.72 12.36 27.74 34.42 27.74 34.42 44.78 6.02 73.52 55.81 69.51 109.28s-45.45 99.03-45.45 99.03c-105.38-31.86-164.64 8.69-164.64 8.69 3.12-13.37 26.73-26.96 31.41-28.74s22.95-11.14 25.4-18.05 8.47-14.04 12.7-18.49 33.86-26.29 45-33.86 14.48-17.38 14.48-17.38 13.14-3.79 22.28-10.92 16.49-18.05 18.94-35.42c2.45-17.38-4.46-19.38-4.46-19.38-.89 70.4-72.18 64.16-72.18 64.16 3.67-2.9 6.45-7.63 6.45-7.63zm20.94-43.72c4.9-3.23.56-15.48.56-15.48-8.02 9.02-23.06 17.04-23.06 17.04 5.13.77 17.6 1.67 22.5-1.56z"/><path d="m454.96 183.67s-30.24-16.49-51.13 6.24c0 0 48.46 0 70.18 66.83s-11.36 125.65-11.36 125.65 26.07-14.37 42.11-11.7c0 0-59.15 22.06-71.18 76.53 0 0 18.05-28.18 29.07-37.65 11.03-9.47 38.76-33.53 80.2-29.18s41.44 4.34 41.44 4.34l-4.68-51.13s-40.44-6.85-49.62-11.53-10.03-6.67-10.19-9.52 3.01-10.7 39.43-.84c0 0-28.74-12.87-28.24-20.22s17.54-4.68 31.58-1c0 0-25.73-18.55-35.42-20.38-9.69-1.84-17.38-1.17-17.21-6.18s10.36-2.34 13.87-.67 11.53 5.68 24.23 4.34c0 0-9.52-2.84-12.7-6.18-3.17-3.34-8.19-8.02-16.71-8.35s-15.54-.5-18.38-8.35c0 0 19.05 3.17 28.4-3.68 0 0-19.22-2.51-25.9-10.03s-11.03-13.37-13.7-14.87-9.19-2.17-9.19-4.68.67-2.67 3.34-4.68 9.02-7.18 8.35-18.71c0 0-9.91 23.39-36.42 18.71 0 0-.5-2.01 2.01-2.84 2.51-.84 5.51-1.5 8.19-2.01 2.67-.5 24.23-4.68 21.89-28.91 0 0-7.35 18.71-23.56 18.38s-31.25 2.34-31.25 2.34-1.25-11.66 22.55-10.07z"/><path d="m261.58 426.06s49.68-40.66 140.58-17.93l-14.7 14.37c-.01-.01-56.93-10.59-125.88 3.56z"/></g><g fill="#09103c"><path d="m390.2 145.35v-13.59h19.6v13.59h10.92v-30.74h-10.92v13.59h-19.6v-13.59h-10.92v30.74z"/><circle cx="400" cy="107.48" r="10.4"/></g><g fill="#240b02"><path d="m148.33 171.08c-9.42 0-17.06 7.64-17.06 17.06s7.64 17.06 17.06 17.06 17.06-7.64 17.06-17.06-7.64-17.06-17.06-17.06zm13.45 9.78c-.28 1.05-1.02 3.02-2.78 4.42 0 0-2.7-6.06-4.6-8.04 1.2-1.07 1.88-2 1.88-2l.06-.1c2.28 1.4 4.17 3.37 5.44 5.72zm-7.64-6.87c-1.13 4.47-4.52 4.76-8.11 5.27-3.56.51-6.02-3.84-6.07-3.93 2.41-1.58 5.28-2.5 8.36-2.5 2.06.01 4.03.42 5.82 1.16zm-14.55 1.6c1.59 2.5 2.85 4.07 4.85 4.65 2.11 2.65 2.98 7.88 3.05 11.79 0 0-2.2.66-6.89-1.69-4.24-2.12-5.9-7.52-6.18-8.54 1.14-2.51 2.94-4.65 5.17-6.21zm-6.57 12.55c0-.9.09-1.78.24-2.63 3.54 1.95 4.19 3.66 6.97 5.64 2.77 1.97 7.15 2.92 7.21 2.93-.27 5.62-1.61 8.07-2.36 9.01-6.88-1.49-12.06-7.63-12.06-14.95zm14.41 15.26c1.32-3.02 1.38-6.02 1.31-11.74-.06-5.14-2.26-9.85-2.95-11.19.77.05 1.64 0 2.65-.17 1.9-.32 3.53-1.2 4.81-2.13.91.59 3.13 2.65 4.5 9.24 1.37 7.52.17 12.52.13 12.66-2.62 2.11-5.95 3.38-9.57 3.38-.29-.01-.58-.03-.88-.05zm11.88-4.63c.02-.17.88-9.55 0-12.02 0 0 2.77-1.86 3.65-3.05.43 1.41.66 2.9.66 4.45.01 4.12-1.64 7.86-4.31 10.62z"/><path d="m634.61 188.14c0 9.42 7.64 17.06 17.06 17.06s17.06-7.64 17.06-17.06-7.64-17.06-17.06-17.06-17.06 7.64-17.06 17.06zm9.04-13 .06.1s.68.93 1.88 2c-1.9 1.99-4.6 8.04-4.6 8.04-1.76-1.4-2.49-3.37-2.78-4.42 1.28-2.35 3.17-4.32 5.44-5.72zm8.03-2.3c3.09 0 5.96.93 8.36 2.5-.05.08-2.51 4.43-6.07 3.93-3.59-.51-6.99-.81-8.11-5.27 1.79-.75 3.76-1.16 5.82-1.16zm13.91 8.96c-.28 1.02-1.94 6.42-6.18 8.54-4.69 2.35-6.89 1.69-6.89 1.69.07-3.91.94-9.14 3.05-11.79 2.01-.58 3.27-2.15 4.85-4.65 2.23 1.56 4.02 3.7 5.17 6.21zm-10.67 21.29c-.75-.94-2.09-3.39-2.36-9.01.06-.01 4.44-.97 7.21-2.93 2.78-1.98 3.43-3.69 6.97-5.64.15.86.24 1.73.24 2.63 0 7.32-5.17 13.46-12.06 14.95zm-3.24.35c-3.62 0-6.95-1.27-9.57-3.38-.03-.13-1.24-5.13.13-12.66 1.38-6.59 3.6-8.65 4.5-9.24 1.28.93 2.91 1.8 4.81 2.13 1.02.17 1.88.22 2.65.17-.68 1.34-2.89 6.05-2.95 11.19-.07 5.72-.01 8.72 1.31 11.74-.29.03-.58.05-.88.05zm-15.31-15.3c0-1.55.24-3.04.66-4.45.88 1.2 3.65 3.05 3.65 3.05-.88 2.47-.02 11.85 0 12.02-2.66-2.75-4.31-6.49-4.31-10.62z"/></g><g><path d="m679.77 452.85c-4.51-6.46-11.9-10.32-19.78-10.32h-428.15c-10.06 0-19.15 6.34-22.63 15.78l-47.33 128.49-1.02 2.78h-1.42l-3.56 9.21 475.93.39-4.63-6.68c9.47-5 17.07-13.37 20.92-23.81l12.2-33.14 3.98-10.82h-11.53-39.24c-.85 0-1.69.04-2.53.11l6.17-16.76c2.48 1.24 5.25 1.92 8.1 1.92h38.85 5.61l1.94-5.26 10.96-29.77c2.73-7.39 1.66-15.66-2.84-22.12zm-72.58 39.79c.02.43.05.86.1 1.29h-.57zm-222.53 48.17h32.99l-11.54 13.27-.97 1.11-.51 1.38-11.13 30.22-1.02 2.78h-25.78z" fill="#09103c"/><path d="m216.75 461.09-47.33 128.5h53.26l20.92-56.81h14.61l-20.92 56.81h53.26l51.2-139.02h-44.85c-5.05 0-9.57 3.15-11.32 7.89l-16.03 43.51h-14.61l18.93-51.4h-42.05c-6.71-.01-12.74 4.19-15.07 10.52z" fill="url(#b)"/><path d="m434.86 472.12c-2.33 6.32-8.35 10.52-15.09 10.52h-22.25l-7.12 19.32h220.45l-7.47 20.28c-2.33 6.32-8.35 10.52-15.09 10.52h-209.24l-20.92 56.81h-53.26l20.92-56.81h-7.44l11.35-30.8h7.44l18.93-51.4h86.72zm21.41-21.56-7.83 21.26c-1.93 5.25 1.95 10.82 7.54 10.82h22.88l-13.36 15.37h58.87l13.01-14.97 11.96-32.48zm34.4 86.22-18.4 21.16h37.52l-11.65 31.64h-97.09l11.13-30.22 19.63-22.58z" fill="url(#c)"/><path d="m543.38 498.02 8.76-23.78c5.24-14.22 18.79-23.67 33.95-23.67h73.9c11.19 0 18.95 11.14 15.09 21.64l-10.96 29.77h-38.85c-6.99 0-11.85-6.96-9.43-13.52 1.04-2.81-1.05-5.8-4.04-5.8h-3.11c-3.83 0-7.26 2.39-8.58 5.98l-3.46 9.39h-53.27zm-14.28 38.76-11.41 31.2c-3.84 10.49 3.93 21.6 15.1 21.6h73.82c15.16 0 28.71-9.45 33.95-23.67l12.2-33.14h-39.24c-8.42 0-15.95 5.25-18.86 13.15l-1.97 5.34c-1.48 4.01-5.3 6.68-9.58 6.68h-1.65c-3.35 0-5.67-3.33-4.52-6.48l5.41-14.69h-53.25z" fill="url(#d)"/></g><g fill="#ed9b07"><path d="m216.46 607.23h11.04v16.46h11.71v-16.46h11.04v41.84h-11.04v-17.78h-11.71v17.78h-11.04z"/><path d="m264.17 607.23h27.39v6.98h-16.35v10.01h15.47v7.01h-15.47v10.77h17.13v7.07h-28.17z"/><path d="m304.84 607.23h12.7l14.49 30.5v-30.5h9.45v41.84h-12.7l-14.56-30.56v30.56h-9.38z"/><path d="m385.76 608.11-.68 7.6c-1.56-.75-3.18-1.29-4.88-1.63-1.69-.34-3.58-.52-5.65-.52-4.47 0-7.92 1.27-10.36 3.8s-3.66 6.12-3.66 10.78c0 4.73 1.04 8.35 3.13 10.85s5.11 3.75 9.06 3.75c.65 0 1.31-.05 1.98-.16s1.35-.28 2.05-.52v-9.86h-6.16v-7.07h16.62v22.38c-1.94.73-4.18 1.28-6.72 1.66s-5.26.57-8.18.57c-7.43 0-13.19-1.84-17.28-5.51-4.1-3.67-6.15-8.83-6.15-15.49 0-7.03 2.17-12.49 6.5-16.4s10.42-5.86 18.25-5.86c2.14 0 4.23.14 6.25.41 2.02.29 3.98.69 5.88 1.22z"/><path d="m419.43 607.23h26.21v6.98h-15.17v10.39h14.63v7.04h-14.63v17.43h-11.04z"/><path d="m456.07 607.23h27.39v6.98h-16.35v10.01h15.47v7.01h-15.47v10.77h17.13v7.07h-28.17z"/><path d="m493.6 607.23h12.7l14.49 30.5v-30.5h9.45v41.84h-12.7l-14.56-30.56v30.56h-9.38z"/><path d="m576.47 608.11-.68 7.6c-1.56-.75-3.18-1.29-4.88-1.63-1.69-.34-3.58-.52-5.65-.52-4.47 0-7.92 1.27-10.36 3.8s-3.66 6.12-3.66 10.78c0 4.73 1.04 8.35 3.13 10.85s5.11 3.75 9.06 3.75c.65 0 1.32-.05 1.98-.16.67-.11 1.35-.28 2.05-.52v-9.86h-6.16v-7.07h16.62v22.38c-1.94.73-4.18 1.28-6.72 1.66s-5.27.57-8.18.57c-7.43 0-13.19-1.84-17.28-5.51-4.1-3.67-6.15-8.83-6.15-15.49 0-7.03 2.17-12.49 6.5-16.4s10.42-5.86 18.25-5.86c2.14 0 4.23.14 6.25.41 2.02.29 3.98.69 5.88 1.22z"/></g></g><path d="m32.2432012898 160.33220052173h97.43545975163v.9577916546h-97.43545975163z" fill="#ed9b07" stroke-width=".26458333"/><g fill="#ed9b07" transform="matrix(.26458333 0 0 .26458333 -24.128923 -13.229167)"><path d="m214.58 688.87v-2.04l10.76-16.59h-9.76v-2.85h13.93v2.03l-10.73 16.58h10.84v2.86h-15.04z"/><path d="m233 688.87v-21.47h3.37v8.77h9.18v-8.77h3.39v21.47h-3.39v-9.76h-9.18v9.76z"/><path d="m253.84 688.87v-21.47h3.37v21.47z"/><path d="m270.48 689.26c-1.79 0-3.41-.43-4.84-1.3-1.44-.87-2.58-2.13-3.42-3.77-.84-1.65-1.26-3.64-1.26-5.98 0-2.32.43-4.32 1.29-6 .86-1.67 2.02-2.96 3.48-3.85s3.1-1.34 4.91-1.34c1.34 0 2.52.27 3.56.82 1.03.55 1.88 1.17 2.53 1.89l-1.84 2.16c-.56-.57-1.18-1.03-1.86-1.39s-1.46-.53-2.33-.53c-1.23 0-2.32.33-3.27.98-.94.65-1.68 1.59-2.21 2.8s-.8 2.66-.8 4.34c0 2.55.56 4.56 1.67 6.03s2.62 2.2 4.52 2.2c.99 0 1.86-.2 2.63-.61s1.47-.96 2.11-1.66l1.81 2.13c-.85.99-1.83 1.75-2.94 2.28s-2.36.8-3.74.8z"/><path d="m280.22 688.87v-21.47h3.37v8.77h9.18v-8.77h3.39v21.47h-3.39v-9.76h-9.18v9.76z"/><path d="m301.06 688.87v-21.47h12.68v2.85h-9.31v5.98h7.87v2.86h-7.87v6.93h9.62v2.86h-12.99z"/><path d="m317.82 688.87v-21.47h3.46l7.11 12.61 2.25 4.55h.14c-.09-1.11-.18-2.29-.28-3.53s-.16-2.45-.16-3.61v-10.02h3.22v21.47h-3.47l-7.11-12.65-2.25-4.48h-.14c.09 1.11.18 2.26.28 3.47.1 1.2.16 2.38.16 3.55v10.12h-3.21z"/><path d="m347.22 689.26c-1.91 0-3.61-.43-5.09-1.3-1.49-.87-2.66-2.13-3.52-3.77-.86-1.65-1.29-3.64-1.29-5.98 0-2.32.44-4.32 1.32-6 .88-1.67 2.07-2.96 3.58-3.85s3.21-1.34 5.09-1.34c1.52 0 2.8.28 3.84.84s1.89 1.18 2.55 1.86l-1.81 2.16c-.54-.54-1.16-1-1.86-1.37s-1.57-.55-2.6-.55c-1.33 0-2.49.33-3.49.98s-1.77 1.59-2.33 2.8c-.55 1.21-.83 2.66-.83 4.34 0 2.55.58 4.56 1.74 6.03s2.85 2.2 5.07 2.2c.65 0 1.29-.09 1.89-.28.61-.18 1.1-.44 1.48-.78v-5.04h-4.25v-2.78h7.31v9.29c-.71.72-1.65 1.32-2.82 1.8-1.19.5-2.51.74-3.98.74z"/><path d="m364.02 688.87v-21.47h12.71v2.85h-9.33v6.56h7.93v2.83h-7.93v9.23z"/><path d="m387.61 689.26c-1.83 0-3.45-.45-4.85-1.36s-2.5-2.2-3.29-3.87-1.18-3.66-1.18-5.97c0-2.3.39-4.27 1.18-5.92s1.88-2.92 3.29-3.8c1.4-.88 3.02-1.32 4.85-1.32 1.84 0 3.46.44 4.87 1.32 1.4.88 2.5 2.15 3.3 3.8s1.2 3.62 1.2 5.92c0 2.31-.4 4.3-1.2 5.97s-1.9 2.96-3.3 3.87c-1.41.9-3.03 1.36-4.87 1.36zm0-2.95c1.19 0 2.22-.34 3.1-1.02s1.57-1.64 2.06-2.87c.49-1.24.73-2.69.73-4.36 0-2.52-.54-4.5-1.62-5.94s-2.5-2.16-4.28-2.16-3.19.72-4.26 2.16-1.6 3.42-1.6 5.94c0 1.67.24 3.12.73 4.36.48 1.24 1.16 2.2 2.04 2.87.88.68 1.91 1.02 3.1 1.02z"/><path d="m408.85 689.26c-1.83 0-3.45-.45-4.85-1.36s-2.5-2.2-3.29-3.87-1.18-3.66-1.18-5.97c0-2.3.39-4.27 1.18-5.92s1.88-2.92 3.29-3.8c1.4-.88 3.02-1.32 4.85-1.32 1.84 0 3.46.44 4.87 1.32 1.4.88 2.5 2.15 3.3 3.8s1.2 3.62 1.2 5.92c0 2.31-.4 4.3-1.2 5.97s-1.9 2.96-3.3 3.87c-1.41.9-3.03 1.36-4.87 1.36zm0-2.95c1.19 0 2.22-.34 3.1-1.02s1.57-1.64 2.06-2.87c.49-1.24.73-2.69.73-4.36 0-2.52-.54-4.5-1.62-5.94s-2.5-2.16-4.28-2.16-3.19.72-4.26 2.16-1.6 3.42-1.6 5.94c0 1.67.24 3.12.73 4.36.48 1.24 1.16 2.2 2.04 2.87.88.68 1.92 1.02 3.1 1.02z"/><path d="m425.5 688.87v-18.63h-6.3v-2.85h16.01v2.85h-6.33v18.63z"/><path d="m438.17 688.87v-21.47h6.64c1.46 0 2.76.17 3.91.51 1.14.34 2.04.9 2.69 1.68s.97 1.81.97 3.1c0 1.02-.27 1.97-.81 2.85-.54.87-1.29 1.47-2.25 1.79v.14c1.22.27 2.23.82 3.03 1.66s1.2 1.99 1.2 3.45c0 1.41-.36 2.58-1.07 3.51s-1.69 1.63-2.92 2.09c-1.24.46-2.65.69-4.23.69zm3.38-12.51h2.89c1.63 0 2.81-.29 3.54-.86s1.1-1.36 1.1-2.37c0-1.12-.38-1.91-1.14-2.38s-1.9-.7-3.42-.7h-2.97zm0 9.87h3.42c1.67 0 2.97-.31 3.89-.93s1.39-1.58 1.39-2.9c0-1.2-.45-2.09-1.36-2.65s-2.21-.84-3.92-.84h-3.42z"/><path d="m454.05 688.87 7.11-21.47h3.9l7.11 21.47h-3.59l-1.81-6.12h-7.46l-1.84 6.12zm6.93-11.65-.87 2.89h5.86l-.85-2.89c-.36-1.17-.7-2.35-1.03-3.54s-.65-2.39-.98-3.61h-.14c-.31 1.22-.64 2.43-.97 3.61-.33 1.2-.67 2.37-1.02 3.54z"/><path d="m474.28 688.87v-21.47h3.37v18.61h9.09v2.86z"/><path d="m489.82 688.87v-21.47h3.37v18.61h9.09v2.86z"/><path d="m519.54 689.26c-1.79 0-3.41-.43-4.84-1.3-1.44-.87-2.58-2.13-3.42-3.77-.84-1.65-1.26-3.64-1.26-5.98 0-2.32.43-4.32 1.29-6 .86-1.67 2.02-2.96 3.48-3.85s3.1-1.34 4.91-1.34c1.34 0 2.52.27 3.56.82 1.03.55 1.88 1.17 2.53 1.89l-1.84 2.16c-.56-.57-1.18-1.03-1.86-1.39s-1.46-.53-2.33-.53c-1.23 0-2.32.33-3.27.98-.94.65-1.68 1.59-2.21 2.8s-.8 2.66-.8 4.34c0 2.55.56 4.56 1.67 6.03s2.62 2.2 4.52 2.2c.99 0 1.86-.2 2.63-.61s1.47-.96 2.11-1.66l1.81 2.13c-.85.99-1.83 1.75-2.94 2.28s-2.36.8-3.74.8z"/><path d="m529.28 688.87v-21.47h3.37v18.61h9.09v2.86z"/><path d="m551.66 689.26c-1.58 0-2.98-.31-4.18-.94s-2.14-1.64-2.81-3.04-1.01-3.27-1.01-5.61v-12.27h3.39v12.49c0 1.61.2 2.89.59 3.82s.94 1.6 1.63 2 1.49.6 2.39.6 1.71-.2 2.41-.6c.71-.4 1.26-1.06 1.66-2 .4-.93.6-2.21.6-3.82v-12.49h3.27v12.27c0 2.33-.33 4.2-1 5.61-.67 1.4-1.6 2.42-2.79 3.04-1.17.62-2.56.94-4.15.94z"/><path d="m564.43 688.87v-21.47h6.64c1.46 0 2.76.17 3.91.51 1.14.34 2.04.9 2.69 1.68s.97 1.81.97 3.1c0 1.02-.27 1.97-.81 2.85-.54.87-1.29 1.47-2.25 1.79v.14c1.22.27 2.23.82 3.03 1.66s1.2 1.99 1.2 3.45c0 1.41-.36 2.58-1.07 3.51s-1.69 1.63-2.92 2.09c-1.24.46-2.65.69-4.23.69zm3.37-12.51h2.89c1.63 0 2.81-.29 3.54-.86s1.1-1.36 1.1-2.37c0-1.12-.38-1.91-1.14-2.38s-1.9-.7-3.42-.7h-2.97zm0 9.87h3.42c1.67 0 2.97-.31 3.89-.93s1.39-1.58 1.39-2.9c0-1.2-.45-2.09-1.36-2.65s-2.21-.84-3.92-.84h-3.42z"/></g></svg>