<svg height="338.061702" viewBox="0 0 161.99915 185.20833" width="295.803989" xmlns="http://www.w3.org/2000/svg"><g transform="matrix(.26458333 0 0 .26458333 -24.821738 -13.229167)"><g><path d="m316.2 292.4-.2.3h-8.8-8.7-31.3-27.1-27.1l13.9-23.3 13.9-23.3 103.6-173.7 13.2-22.2 13.2 22.2 29.2 49.4 29.2-49.4 13.2-22.4 13.2 22.4 103 173.8 13.7 23.1 13.7 23.1-26.9.1-26.8.1-30.8.2h-8.9l-8.8.1-.3-.5h-10.2-26.8-93.5-26.9z" fill="#074099"/><path d="m551.2 582.7c38.4-20.1 71.3-44.5 102.6-75.5-.2 4-.4 6.1-.8 10.1-26.1 25-53.3 45.6-84.1 63.6-7.2.9-10.7 1.3-17.7 1.8" fill="#ec5307"/><path d="m702.2 558.1c-16.2 17-33.7 32.7-52.2 46.8-1.4-2-2.1-3-3.5-5.1 16.1-12.2 31.4-25.7 45.7-40.2 4-.6 6-.8 10-1.5" fill="#ec5307"/><path d="m692.2 559.6c-14.3 14.5-29.6 27.9-45.7 40.2-8.5-12.4-12.8-18.7-21.3-31.1-18.8 5.2-37 9.2-56.3 12.3 30.9-18 58-38.6 84.1-63.6-2.7 18.1-4.5 27.2-9.3 45.4 16.2.1 32.4-1 48.5-3.2" fill="#d5d6d6"/><path d="m146.2 507.2c31.2 31 64.1 55.3 102.6 75.5-7-.5-10.6-.8-17.7-1.7-30.9-18-58-38.6-84.1-63.6-.3-4.1-.5-6.2-.8-10.2" fill="#ec5307"/><path d="m153.5 599.8c-16.1-12.2-31.4-25.7-45.7-40.2 16.1 2.2 32.3 3.3 48.5 3.1-4.8-18.2-6.6-27.3-9.3-45.4 26.1 25 53.2 45.6 84.1 63.6-19.2-3-37.4-7-56.3-12.3-8.5 12.5-12.7 18.7-21.3 31.2" fill="#d5d6d6"/><path d="m150 604.9c-18.6-14.1-36-29.8-52.2-46.8 4 .7 6 1 10 1.5 14.3 14.5 29.6 27.9 45.7 40.2-1.4 2-2.1 3-3.5 5.1" fill="#ec5307"/><path d="m562.2 607.5c-3.2-7.3-4.8-10.9-8-18.2 18.7-2 36.4-4.9 54.8-8.9-15.1 10.1-30.7 19.2-46.8 27.1" fill="#182447"/><path d="m554.1 589.3c-1.2-2.7-1.8-4-2.9-6.6 25.4-2.6 49.3-7.2 73.9-14-6.4 4.9-9.7 7.2-16.2 11.7-18.4 4-36.1 6.9-54.8 8.9" fill="#7f191e"/><path d="m174.9 568.7c24.7 6.8 48.5 11.4 73.9 14-1.2 2.6-1.8 4-2.9 6.6-18.7-2-36.4-4.9-54.8-8.9-6.6-4.5-9.8-6.9-16.2-11.7" fill="#7f191e"/><path d="m191.1 580.4c18.4 4 36.1 7 54.8 8.9-3.2 7.3-4.8 10.9-8 18.2-16.2-7.9-31.8-17-46.8-27.1" fill="#030206"/><path d="m705 183.2-117.8-85.3c-53.6 45.5-186.2 52.7-186.2 52.7h-2s-132.6-7.2-186.2-52.7l-117.9 85.3s-35.9 331.2 305.2 566.8c340.9-235.9 304.9-566.8 304.9-566.8" fill="#074099"/><path d="m401.6 162.9c-.2 0-.5 0-.7 0h-2c-.2 0-.4 0-.7 0-5.3-.3-126.1-7.4-185.7-49.7-12.5 9-97.8 70.9-105.8 76.7-.3 4.4-.6 11.4-.6 20.7 0 32.6 3.7 92.9 25.6 165.3 19.3 63.8 48.7 124.3 87.3 179.8 46.9 67.3 107.9 127.5 181 179.1 73.4-51.9 134.4-112.3 181.3-179.9 38.7-55.7 68-116.4 87.2-180.3 17-56.8 22.7-105.7 24.4-136.7.6-10.4.8-19.5.8-26.9 0-5.1-.1-9.3-.2-12.7 0 0-.3-4.4-.5-8.5-8.1-5.9-93.3-67.6-105.7-76.6-59.5 42.3-180.3 49.4-185.7 49.7" fill="#fff"/><path d="m124.8 199.6c-.1 3.1-.2 6.8-.2 11 0 29.1 3.2 88.6 24.8 160 18.7 61.9 47.2 120.6 84.8 174.6 20.9 30 44.7 58.5 71.3 85.5v-462c-31.5-6.9-65.5-17.3-92.4-33.1-15.3 11.1-77.1 55.8-88.3 64" fill="#ec5307"/><path d="m403.2 181.3h-2-2.5-1.9c-6-.3-29.1-1.4-59.8-5v494.9c20.1 14 41.1 27.6 63.1 40.6 21.9-13 42.9-26.5 62.9-40.5v-494.9c-30.7 3.5-53.7 4.7-59.7 5-.1-.1-.1-.1-.1-.1" fill="#c0c0c0"/><path d="m494.4 168.6v462.1c26.8-27.3 50.9-56.1 71.9-86.4 37.6-54.1 66-113 84.6-175.1 16.5-55.1 22-102.4 23.7-132.4.5-8.8.8-17.5.8-25.8 0 0-.2-10.3-.2-11.5-11.1-8-73-52.9-88.4-64.1-26.9 15.9-60.8 26.4-92.4 33.2" fill="#074099"/><path clip-rule="evenodd" d="m275.2 536.8c0-68.9 55.9-124.8 124.8-124.8s124.8 55.9 124.8 124.8c0 69-55.9 124.8-124.8 124.8-68.9.1-124.8-55.8-124.8-124.8" fill="#c0c0c0" fill-rule="evenodd"/><path clip-rule="evenodd" d="m284.6 536.8c0-63.7 51.6-115.4 115.4-115.4s115.4 51.7 115.4 115.4c0 63.8-51.6 115.4-115.4 115.4s-115.4-51.7-115.4-115.4" fill="#fff" fill-rule="evenodd"/><path clip-rule="evenodd" d="m434.6 435.9c-26.9-9.2-55.9-7.4-81.4 5.1-25.6 12.5-44.8 34.3-54 61.2-9.2 27-7.4 55.9 5.1 81.5s34.3 44.8 61.2 54 55.9 7.4 81.4-5.1c25.6-12.5 44.8-34.3 54-61.2 19-55.7-10.7-116.4-66.3-135.5m-31.8 41.1 28.3-20.6 39.4 28.6-10.7 32.9-27.5 9-29.4-21.4zm-62.9 46.6 26.2 8.5 11.3 34.7-17.2 23.7h-34l-15-46zm-9.5-38.3 39.1-28.5 27.7 20.1v28.5l-29.4 21.4-26.8-8.7zm34.8 107.6 16.6-22.9h36.5l17 23.4-10.9 33.6h-48.1zm74.7-2.5-17.2-23.7 11.2-34.7 27-8.8 28.6 20.8-15 46.3zm45.1-108.1h-9l-44-32-3.4-10.5c1.4.4 2.8.9 4.2 1.3 22.4 7.8 40.4 22.6 52.2 41.2m-129.4-36.3c5.2-2.5 10.5-4.6 15.9-6.2l-3.8 11.6-42.8 31.1h-10.1c9.8-15.5 23.8-28.1 40.8-36.5m-56.6 92.9 6.2 4.5 16.6 51.2-1.4 4.4c-4.2-5.5-8-11.4-11-17.7-6.7-13.5-10.1-27.9-10.4-42.4m72.5 94.9 1.9-1.4v.1h53.8l1.7 1.2c-18.7 5.6-38.5 5.7-57.4.1m124.1-64.2c-3.6 10.6-8.9 20.3-15.5 29l-1.2-3.7 16.8-51.6h-.1l5.5-4c-.3 10-2.1 20.2-5.5 30.3" fill="#221714" fill-rule="evenodd"/><path d="m572.6 606-26.6-38.9c-44.1 21-93.4 32.8-145.4 32.8-52.4 0-102-11.9-146.2-33.2l-26.7 38.8c52 26.2 110.7 41 172.9 41 61.8.1 120.2-14.5 172-40.5" fill="#002d72"/><path d="m667.5 630.4c-164.5 118.4-370.5 118.4-535 0 1.7-2.5 2.6-3.7 4.3-6.2 161.8 116.5 364.6 116.5 526.4 0 1.7 2.5 2.6 3.7 4.3 6.2" fill="#ec5307"/><path d="m174.9 568.7c139.2 99.4 311 99.5 450.3 0 1.9 2.7 2.8 4 4.6 6.7-142.1 101.5-317.4 101.5-459.5 0 1.8-2.7 2.7-4 4.6-6.7" fill="#ec5307"/><path d="m136.8 624.2 33.4-48.7c142.1 101.5 317.4 101.5 459.5 0l33.4 48.7c-161.7 116.4-364.5 116.4-526.3 0" fill="#fff"/><g fill="#eac742"><path d="m299.6 621.2 6.4-9.9-7.4-9.1 11.3 3 6.4-9.8.7 11.7 11.3 3-10.9 4.2.6 11.8-7.4-9.1z"/><path d="m357.5 632.5 4.8-10.7-8.8-7.8 11.7 1.2 4.7-10.8 2.5 11.5 11.7 1.2-10.2 5.9 2.5 11.5-8.7-7.9z"/><path d="m416.5 634.7 3-11.4-9.9-6.3 11.7-.7 3-11.3 4.2 10.9 11.8-.7-9.1 7.5 4.2 10.9-9.9-6.4z"/><path d="m475 627.6 1.2-11.7-10.8-4.8 11.5-2.4 1.2-11.7 5.9 10.1 11.5-2.5-7.8 8.8 5.9 10.1-10.8-4.7z"/></g><path d="m400 152-42.4-71.7-117.5 197 318.9-.2-116.6-196.9z" fill="#fff"/><path d="m442.4 161.8 58.9 100.2 30.8-.1-89.7-151.5-89.4 151.2h93.5l-31.3-53.7z" fill="#ec5307"/><path d="m376.8 194.5 15.2-25.7-34.5-58.4-90.3 151.5h31.3l59-100.1z" fill="#074099"/></g><g fill="#074099"><path d="m179.5 640.5c-4.7-2.7-6.5-7.4-5.3-11.8l7.1 1.4c-.5 1.7 0 3.2 1.4 4.1 2.2 1.3 3.7-.1 5.1-2.6l10.6-18.4 6.8 3.9-10.6 18.3c-2.5 4.6-7.5 9.5-15.1 5.1z"/><path d="m197.7 649.1 14.9-28.5 6.9 3.6-14.9 28.5z"/><path d="m231.7 665.1.4-6.8-11.2-5.1-4.7 4.8-7.6-3.5 25.5-23.7 6.8 3.1-1.3 34.7zm2-25-8.3 8.3 7.3 3.3z"/><path d="m262.5 676.2-5.6-23.6h-.1l-6.1 19.9-6.9-2.2 9.6-30.4 8.1 2.6 5.5 23.5h.1l6.1-19.9 6.9 2.2-9.6 30.4z"/><path d="m295 687.2c-10.1-1.6-16.3-9.6-14.7-19.6 1.7-10.2 10.2-15.5 19.9-13.9 5 .8 9.3 3.2 11.6 6.2l-5.7 4.7c-1.2-1.9-3.6-3.6-6.6-4.1-5.4-.9-10 2.7-10.9 8.4-.9 5.8 1.8 10.6 8.1 11.6 1.8.3 3.5.3 4.9-.1l.9-5.8-6.1-1 1-6.2 13.1 2.1-2.7 16.8c-3.5 1.3-7.9 1.7-12.8.9z"/><path d="m332 693.7-5-12.4-8.6 10-9.1-1.6 14-14.8-7.6-16.7 9.2 1.6 4.2 10.9 7.5-8.8 8.9 1.6-12.6 13.2 8.5 18.7z"/><path d="m345.2 695.7 3.3-32 7.8.8-3.3 32z"/><path d="m373.7 698.3 1-32.1 7.8.2-.8 25.4 12.4.4-.2 6.8z"/><path d="m414 699.6c-8.4.2-13.9-4.9-14.1-12.6l-.6-20 7.7-.2.6 19.4c.1 3.4 1.9 6.6 6.2 6.5 4.4-.1 5.9-3.4 5.8-6.8l-.6-19.4 7.8-.2.6 20c.3 7.7-5 13.1-13.4 13.3z"/><path d="m452.4 671.9c-1.6-1.5-4.3-2.4-6.5-2.1-2.2.2-4.8 1.2-4.6 3.7.2 2.1 2.3 2.6 5.7 3.2 4.9.9 11.2 2.2 11.8 8.6.7 7.4-5.4 11.3-12.3 12-5 .5-9.8-.8-13.1-3.5l4.3-5.7c1.9 1.8 5.4 3 8.2 2.7 2.6-.3 4.7-1.4 4.5-4-.2-2.4-3-2.9-7.7-3.9-4.6-.9-9.3-2.5-9.8-8.3-.7-7.1 6-10.7 12.5-11.4 3.9-.4 7.6.4 10.9 2.7z"/><path d="m486.9 690.4-1.9-13.3-12.6 1.8 1.9 13.3-7.8 1.1-4.6-31.8 7.8-1.1 1.7 12 12.6-1.8-1.7-12 7.8-1.1 4.6 31.8z"/><path d="m523.4 681.5-4-6-11.6 3.2-.3 7.5-8.1 1 2.5-33.9 9.5-2.2 19.5 27.4zm-14.3-21.1-.9 11.7 7.5-2.1z"/><path d="m553.9 670.8-19.3-15.7.3.4 7.2 19.3-7.1 2.5-10.8-30.3 7.7-2.9 18.5 15.5h.1l-7.4-19.6 6.6-2.4 12.2 29.8z"/><path d="m576.3 633.2 2.9 6 11.5-5.6 2.8 5.8-11.5 5.6 5.4 11.2-7.1 3.4-14-28.9 19.6-9.5 2.9 6z"/><path d="m620.3 639.8c-8.6 4.9-18.5 2.5-23.4-6.3-5.1-9-1.6-18.5 6.9-23.3 3.9-2.2 7.3-3 11.3-1.8l-.7 6.7c-2.8-.6-4.8-.1-6.9 1.1-4.7 2.7-6 8.2-3.2 13.1 2.9 5.1 8.1 6.7 12.8 4.1 2.6-1.5 3.6-3.9 3.8-6.2l7.4 1.4c-.9 4.2-3.3 8.5-8 11.2z"/></g></g></svg>