<svg height="332.582219" viewBox="0 0 87.714882 97.114182" width="300.677529" xmlns="http://www.w3.org/2000/svg"><g transform="matrix(.13873524 0 0 .13873524 -11.637635 -6.93725)"><path d="m713.26 348.05c2.7-17.9 2.86-42.27 2.87-43.05.04-4.39-3.09-10.69-6.92-12.83-10.05-5.62-48.65-19.73-48.3-20.74 3.56-10.33 6.06-19.08 7.61-25.53 6.3-26.13 4.39-32.75 2.7-39.17s-35.29-58.76-120.66-110.42c-38.92-23.55-86.79-34.71-135.9-36.63-3.48-.14-7.07-.21-10.69-.21-24.1 0-44.58 2.99-51.82 4.19-3.4-.8-9.22-1.86-16.34-1.86-2.53 0-6.31.1-7.07.15-.28-.52-5.07-10.97-20.35-11.9-4.15-.25-11.32.48-15.88 2.87-23.74 12.44-53.23 32.7-66 42.38-16.27 12.33-13.89 25.4-13.84 25.66-23.23 16.89-34.47 30.04-44.29 40.97-4.95-.23-6.3-.9-38.27-31.52-7.59-7.27-11.75-6.37-14.94-6.37-1.65 0-3.32.34-4.89 1.05-4.61 2.06-7.44 6.8-7.06 11.84 1.13 15.15 6.44 40.82 9.34 50.67.45 7.65 1.83 14.27 3.15 19.81 1.13 4.73 4.39 11.59 4.39 11.59 3.38 6.64 9 12.72 12.72 16.43 1.24 12.27 6.98 26.39 10.62 37.24-25.94 8.2-51.03 18.86-52.24 19.38-4.58 1.95-7.69 6.55-7.28 11.51 6.58 79.89 18.85 101.56 21.88 107.38 1.78 3.4 3.88 7.91 6.53 9.54.34 4.16 1.08 7 2.03 10.24 51.2 175.55 196.73 270.38 257.12 304.03 16.82 9.4 27.42 14.05 27.86 14.25 1.53.67 3.17 1 4.8 1 1.64 0 3.27-.33 4.8-1 .44-.19 11.55-3.99 27.87-14.25 78.24-49.19 205.88-139.68 250.46-291.3 1.3-4.41 6.64-20.94 6.42-26.34 5.62-9.46 15.08-39.28 19.57-69.06z" fill="#fefefe"/><path d="m403.45 368.81c-172.04 0-278.76 55.72-278.76 55.72 63.82 218.81 278.76 313.03 278.76 313.03s214.94-94.21 278.76-313.03c0 0-106.72-55.72-278.76-55.72z" fill="#fe6a2c"/><path d="m403.45 368.81c-172.04 0-278.76 55.72-278.76 55.72l25.55 13.51c39.96 206.32 253.21 299.52 253.21 299.52s213.25-93.2 253.21-299.52l25.55-13.51s-106.72-55.72-278.76-55.72z" fill="#021d56"/><path d="m622.52 401.27c-7.44 36.43-36 144.13-127.38 243.76h-91.69-91.69c-91.37-99.63-119.93-207.33-127.37-243.76-4.54 1.44-8.86 2.87-12.91 4.26 45.71 240.93 231.98 332.02 231.98 332.02s186.27-91.09 231.98-332.02c-4.34-1.82-8.17-3.17-12.92-4.26z" fill="#fff"/><path d="m403.45 558.81v1.13l-192.25-73.07c-.19-.48-.4-.95-.59-1.43l103.8-111.55c1.36-.16 2.7-.31 4.07-.46.26 17.95 6.25 94.25 84.96 168.69z" fill="#fe6a2c"/><path d="m365.98 634.01c0 3.75-.29 7.42-.85 11.02h-53.36c-21.61-23.57-39.7-47.58-54.82-70.99 11-6.98 24.03-11.03 38.03-11.03 39.21 0 71 31.79 71 71z" fill="#fe6a2c"/><path d="m545.51 580.82c-7.75 11.61-16.24 23.34-25.53 35.07l-116.53.11v-28.36h85.03c10.13 0 15.53-4.51 20.04-7.21 4.5-2.7 11.48-5.62 16.66-5.62 4.44-.01 11.63-.6 20.33 6.01z" fill="#feffff"/><path d="m575.48 530.22c-4.87 9.33-10.19 18.89-16.02 28.59h-21c-10.58 0-14.4-3.6-18.69-6.52-4.28-2.93-9.68-7.88-20.48-7.88-10.81 0-16.43 5.62-20.94 8.99-4.5 3.38-13.28 5.41-21.83 5.41-8.56 0-53.07 0-53.07 0v-28.59h20.42c10.35 0 16.66-2.25 21.61-5.18s14.4-10.35 27.01-10.35c12.6 0 18.46 5.85 23.87 9.91 5.4 4.05 7.88 5.62 17.33 5.62z" fill="#feffff"/><path d="m575.77 388.4h-38.77c-21.61 0-21.61-3.72-27.36-8.44-5.73-4.73-14.18-6.75-24.31 0s-10.81 8.44-27.69 8.44c-16.87 0-54.18 0-54.18 0v-19.58c65.66-3.16 124.2 6.3 172.31 19.58z" fill="#feffff"/><path d="m573.8 468.77c-17.46 11.81-65.91 3.91-90.5 6.08-14.63 0-29.49 1.12-39.61-7.21-15.14-14.45-28.28-16.72-40.24-9.63v43.35c16.54-2.63 26.59-16.89 42.26-17.29 7.42 0 11.59 2.25 20.36 9.01 8.78 6.75 13.62 8.11 29.38 8.11h94.06c4.26-9.49 8.01-18.61 11.35-27.27-8.72-7.43-19.16-11-27.06-5.15z" fill="#feffff"/><path d="m567.05 417.1c-15.53 0-19.25-.34-29.55-7.6-10.29-7.26-18.06-3.03-23.12 0-5.07 3.05-7.77 7.71-26.68 7.71-15.08 0-64.76 0-84.24 0v9.66c9.25 10.16 20.66 18.48 36.18 18.48h69.56c15.53 0 23.18 1.8 34.22-5.3 11.03-7.09 17.22-2.7 22.28 0 5.07 2.71 9.46 5.3 21.61 5.3h23.57c3.41-10.7 6.03-20.21 8.04-28.26h-51.87z" fill="#feffff"/><path d="m644.26 281.47s1.91-5.52 4.5-14c2.31-7.47 4.99-16.61 6.69-24.02 2.57-10.27 4.91-21.31 6.15-31.33 0 0-37.48-61.46-117.52-105.78-39.72-22-84.75-33.34-130.56-35.14-33.09-1.3-62.58 4.27-62.58 4.27s-9.68-3.14-22.06-1.8c-12.39 1.36-11.71-1.13-15.32-7.42-3.6-6.31-9.91-6.08-16.66-2.93s-26.79 14.63-36.02 20.71c-9.23 6.07-20.94 14.18-28.36 19.81-7.44 5.62-6.98 8.99-6.54 11.71.46 2.7 1.13 8.32 1.13 8.32-30.26 20.83-51.94 44.89-59.69 54.05-6.24-1.54-12.47-3.9-18.42-7.34-12.83-7.42-33.77-29.16-33.77-29.16 3.15 42.32 24.09 62.58 24.09 62.58-5.32-.89-24.81-11.57-25.43-11.91.66.7 23.7 25.04 28.8 29.69 5.18 4.74 6.75 4.51 6.75 4.51l-5.17 5.62c2.7 18.01 13.95 48.18 13.95 48.18-29.26 8.11-63.02 22.51-63.02 22.51 3.14 78.79 22.73 104.46 22.73 104.46 27.02-12.16 134.41-54.48 285.52-54.48 163.27 0 278.75 54.48 278.75 54.48 20.98-28.54 21.71-102.89 21.71-102.89-13.27-7.39-59.65-22.7-59.65-22.7z" fill="#021d56"/><g fill="#fff"><path d="m210.46 171.27c-6.08 7.44-9.45 9.13-21.95 9.13-4.5 0-9.21-.31-14.01-1.06 15.41-12.75 47.78-27.66 47.78-27.66-2.02 7.1-5.74 12.17-11.82 19.59z"/><path d="m562.55 157.87c-2.94-.44-6.98-.9-9.01-5.85s-3.38-7.76-7.44-9.45c-4.05-1.69-7.09 0-17.56 4.05s-15.2 7.42-45.25-4.73c-30.05-12.16-49.3-28.03-49.3-28.03s50.32 2.36 112.11 23.64c17.31 5.96 33.28 13.47 47.32 21.22-5.79 2.67-14.07 5.92-16.93 4.33-4.04-2.25-11.01-4.72-13.94-5.18z"/><path d="m327.53 248.6 10.07-13.59s34.7-.88 45.08-10.38l22.46 22.12c0-.01-57.83.58-77.61 1.85z"/><path d="m223.75 357.9s-6.53 2.25-10.69 3.71c-.75.26-1.54.02-2.27-.45 6.55-3.97 10.02-11.94 7.96-19.69l-11.85-44.45c-2.51-9.4-12.25-15.04-21.65-12.54l-18.15 4.84c-9.4 2.51-15.04 12.25-12.54 21.65l11.85 44.45c2.51 9.4 12.25 15.04 21.65 12.54l14.41-3.84c.39 1.21.85 2.58 1.25 3.57.9 2.25 4.28 4.28 10.58 2.48s11.82-3.83 11.82-3.83zm-29.02-1.34c-4.95 1.32-10.08-1.65-11.4-6.6l-11.38-42.67c-1.32-4.95 1.65-10.08 6.6-11.4s10.08 1.65 11.4 6.6l11.38 42.67c1.32 4.95-1.65 10.08-6.6 11.4z"/><path d="m304.56 324.21-6.33-42.55c-1.56-10.49-11.33-17.73-21.82-16.17l-35.02 5.21 11.98 80.53 35.02-5.21c10.49-1.56 17.73-11.32 16.17-21.81zm-26.61 13.85-8.98 1.34-9.04-60.81 8.98-1.34c5.29-.79 10.22 2.87 11.01 8.16l6.19 41.65c.79 5.28-2.86 10.21-8.16 11z"/><path d="m334.37 258.38 2.93 81.67 18.8-.68-1.3-36.26 17.16-.66 1.31 36.42 18.79-.68-2.93-81.67-18.8.68 1.3 36.11-17.16.67-1.3-36.27z"/><path d="m491.33 262.19-5.35 81.01c-.08-.01-4.54-.29-4.62-.31-1.05-1.09-44.63-47.05-46.77-49.32l-2.97 45.07-8.6-.58 5.35-81.01c.22.01 4.74.32 4.97.34l46.41 49.38 2.99-45.15z"/><path d="m542.4 307.86 5.17-26.48 26.57 5.04 1.63-8.96-44.1-8.83-15.85 79.19 17.74 3.55 6.9-34.47 18.15 2.61 1.27-9.11z"/><path d="m639.02 360.82c-2.4 4.9-8.07 7.45-13.43 5.76l-4.91-1.54c-5.91-1.86-9.2-8.16-7.34-14.07l12.34-39.25c1.86-5.91 8.16-9.2 14.07-7.34l4.91 1.54c5.46 1.72 8.67 7.22 7.67 12.71l9.1 2.58.16-.52c3.08-9.81-2.37-20.25-12.17-23.33l-17.12-5.38c-9.81-3.08-20.25 2.37-23.33 12.17l-13.66 43.47c-3.08 9.81 2.37 20.25 12.17 23.33l17.12 5.38c9.81 3.08 20.25-2.37 23.33-12.17l.24-.77z"/><path d="m661.61 212.13c-.43 6.42-1.69 12.83-3.42 19.6-9.61-9.44-30.47-29.49-45.44-40.75 0 0-14.86 40.07-19.13 44.12 0 0-16.66-18.46-14.86-45.02 1.36-.9 42.77-14.86 42.77-14.86s23.19 18.46 24.77 19.81c.92.78 1.78.35 2.12-1.1 8.62 9.34 13.19 18.2 13.19 18.2z"/></g><path d="m128.75 166.04s23.3 30.56 102.99 29.88c0 0-8.89-8.33-10.69-11.03s-3.6-4.5-.45-8.1 21.61-20.94 18.46-62.58c0 0 24.76-21.39 62.13-17.78 0 0-9.45-10.13-20.04-10.58 0 0 13.28-9.68 26.11-14.86 0 0 .68 4.28 4.73 8.1 4.05 3.83 6.98 4.73 20.49 4.28s29.43 1.8 50.2 12.61c12.49 9.12 101.3 79.02 101.3 79.02s-19.25-26.68-22.62-33.09c0 0 22.96 12.16 36.47 16.21s23.64 4.39 46.6-5.74c0 0 21.61 47.95 29.04 63.82s14.52 32.42 38.5 44.57l2.7 13.51s-47.61-12.83-76.31-15.87c0 0-20.6-13.51-30.39-39.17 0 0-.34 17.73 9.62 27.86 0 0-20.77 4.22-24.14 5.12-5.85-.9-31.07-3.38-42.55-3.15-8.1-3.83-36.13-15.31-45.59-18.68-5.74-5.4-16.88-15.53-16.88-15.53s-26.34 2.03-40.86 0c0 0-6.08-32.08-15.53-42.21 0 0 1.35 22.96-.34 39.17s-4.39 26-7.43 31.4-10.13 16.21-9.45 26.34c0 0-5.4-14.86-18.91-14.52s-19.92 15.87-41.87 44.91c0 0-9.45-8.44-18.91-3.71 0 0 4.73-37.82-30.05-49.98 0 0 7.77-11.82.68-17.22s-19.59-14.86-23.64-18.23c-.02-.03-35.48-4.42-53.37-44.77z" fill="#fe6a2c"/><path d="m391.34 672c-1.14.79-2.29 1.56-3.41 2.37-2.02 1.47-4.41 1.9-6.96 1.64-5.23-.52-8.73-3.48-9.45-7.84-.56-3.36.12-6.5 2.63-9.22 2.88-3.13 6.78-4.53 11.48-4.25 5.59.33 8.84 3.09 10.55 7.33 1.1 2.72 1.24 5.52.91 8.34-.37 3.19-1.39 6.22-3.37 8.99-2.78 3.89-6.77 6.64-11.66 8.5-1.81.69-3.75 1.15-5.62 1.74-.42.13-.77.08-1.15-.1-.35-.17-.73-.29-1.08-.47-.15-.08-.25-.23-.38-.36.15-.09.28-.24.45-.28 2.72-.6 5.3-1.47 7.66-2.75 4.95-2.68 8.11-6.38 9.2-11.26.17-.77.23-1.56.33-2.34-.03 0-.08-.02-.13-.04zm.7-7.01c-.06-1.63-.41-3.71-1.65-5.61-.87-1.34-2.05-2.46-3.89-2.84-3.45-.71-7.49.17-9.18 3.72-.71 1.51-.92 3.09-.87 4.69.05 1.91.54 3.73 1.84 5.35 3.02 3.76 9.32 3.71 12.26-.09 1.11-1.44 1.54-3.04 1.49-5.22z" fill="#021d56"/><path d="m420.11 672.01c-1.13.78-2.27 1.54-3.37 2.35-1.99 1.46-4.36 1.84-6.9 1.68-4.35-.29-8.64-2.79-9.52-7.84-.59-3.36.11-6.5 2.6-9.22 2.87-3.14 6.77-4.54 11.47-4.27 5.59.32 8.85 3.07 10.57 7.31 1.09 2.68 1.24 5.45.93 8.25-.35 3.19-1.35 6.22-3.31 9-2.77 3.93-6.79 6.71-11.71 8.59-1.83.7-3.78 1.19-5.69 1.73-.3.09-.7.01-1.02-.07-.42-.11-.81-.3-1.19-.49-.15-.08-.23-.24-.35-.37.14-.08.27-.21.42-.24 2.47-.54 4.84-1.31 7.03-2.41 5.09-2.55 8.45-6.18 9.73-11.06.25-.95.33-1.92.48-2.89-.04-.02-.11-.04-.17-.05zm-14.89-7.3c.05 1.9.47 3.86 1.86 5.59 1.79 2.23 4.9 3.27 7.97 2.58 2.62-.59 4.37-2.08 5.16-4.19 1.29-3.43.7-6.74-1.42-9.84-.77-1.12-1.93-1.99-3.49-2.31-3.46-.69-7.49.17-9.18 3.72-.67 1.38-.84 2.83-.9 4.45z" fill="#021d56"/><path d="m427.95 681.02c.55-.18 1.05-.33 1.53-.49.39.78.73 1.53 1.13 2.25 1.74 3.08 4.67 4.63 8.74 4.73 1.48.04 2.93-.04 4.3-.55 2.29-.86 3.69-2.39 4.54-4.29.91-2.02.98-4.09.31-6.16-.93-2.86-3.22-4.3-6.88-4.45-1.77-.07-3.39.3-4.98.89-.19.07-.53.12-.65.03-.13-.1-.16-.37-.12-.54.17-.72.39-1.44.61-2.2.62.04 1.23.06 1.83.11 4.62.34 8.4-2.5 8.62-6.52.19-3.43-3.05-6.09-7.26-5.99-2.13.05-4.03.68-5.69 1.77-.85.56-1.47 1.26-1.74 2.16-.18.62-.46 1.23-.66 1.85-.08.24-.19.35-.51.34-.48-.02-.96-.01-1.49-.01.41-1.46.96-2.87 1.18-4.31.3-2.04 1.83-3.17 3.82-3.96 3.99-1.57 8.11-1.67 12.16-.23 5.71 2.03 6.45 7.7 3.18 10.89-1.23 1.2-2.69 2.25-4.05 3.36-.13.11-.28.2-.48.33.8.16 1.53.29 2.24.46.59.14 1.18.31 1.74.52 3.53 1.3 5.2 3.58 5.06 6.81-.08 1.96-.82 3.74-2.21 5.29-3.84 4.27-8.94 6.51-15.39 6.39-2.24-.04-4.4-.6-6.53-1.18-.14-.04-.3-.21-.32-.34-.31-2.37-1.09-4.65-2.03-6.96z" fill="#021d56"/><path d="m343.04 662.25c-.14-.67-.29-1.06-.44-1.61-.09-.35.06-.48.43-.58 3.84-1.1 9.49-3.39 13.13-4.91.34-.14.71-.26 1.03-.44.49-.28.95-.31 1.49 0v.58 28.34c0 .55.06 1.09.1 1.64.07.94.67 1.54 1.75 1.74.8.15 1.64.2 2.46.27.84.06 1.69.09 2.58.13v1.41c-6.32 0-12.64 0-18.99 0 0-.44 0-.9 0-1.4.89-.04 1.75-.07 2.61-.13.81-.05 1.62-.09 2.41-.21 1.28-.2 1.85-.76 1.98-1.84.06-.51.1-1.03.1-1.54.01-7.8.01-15.61 0-23.41 0-.47-.02-.93-.08-1.4-.06-.48-.92-.27-1.43-.05-2.29.97-5.82 2.34-8.16 3.21-.28.09-.6.12-.97.2z" fill="#021d56"/></g></svg>