<svg height="360.417799" viewBox="0 0 142.66333 185.20833" width="277.455775" xmlns="http://www.w3.org/2000/svg" xmlns:xlink="http://www.w3.org/1999/xlink"><linearGradient id="a" gradientUnits="userSpaceOnUse" x1="400" x2="400" y1="661.65747" y2="142.0565"><stop offset="0" stop-color="#fccd7f"/><stop offset="1" stop-color="#e2ad43"/></linearGradient><g transform="matrix(.26458333 0 0 .26458333 -34.501666 -13.229167)"><g><path d="m636 50h-472c-18.6 0-33.6 15.1-33.6 33.6v310.7c0 211.4 124.1 355.7 269.6 355.7s269.6-144.3 269.6-355.7v-310.7c0-18.5-15.1-33.6-33.6-33.6z" fill="#fccd7f"/><path d="m400 747.2c-71.2 0-137.6-34.6-187.1-97.5-51.4-65.2-79.6-155.9-79.6-255.3v-310.8c0-17 13.8-30.8 30.8-30.8h471.9c17 0 30.8 13.8 30.8 30.8v310.7c0 99.4-28.3 190.1-79.6 255.3-49.6 62.9-116 97.6-187.2 97.6z" fill="#ea2c2d"/><path d="m400 672c-47.6 0-93.1-24.4-128.1-68.8-41-52-63.5-126.2-63.5-208.8v-255h383.2v255c0 82.6-22.6 156.8-63.5 208.8-35 44.3-80.5 68.8-128.1 68.8z" fill="url(#a)"/></g><g fill="#f4bb64"><path d="m175.5 299.7h14v-5.5h-14.1l15.3-15.4-3.9-3.9-15.2 15.4v-61.1h-5.5v61.1l-15.6-15.6-3.9 3.9 15.6 15.6h-14.3v5.5h14.3l-15.3 15.4 3.9 3.9 15.3-15.4v61h5.5v-61l15.4 15.4 3.9-3.9z"/><path d="m624.5 299.7h-14v-5.5h14.1l-15.3-15.4 3.9-3.9 15.2 15.4v-61.1h5.5v61.1l15.6-15.6 3.9 3.9-15.6 15.6h14.3v5.5h-14.3l15.3 15.4-3.9 3.9-15.3-15.4v61h-5.5v-61l-15.4 15.4-3.9-3.9z"/></g><g fill="#ea2c2d"><path d="m402.8 234.7 12.2 12.3 4.2-4.2-12.4-12.5h17.5v-5.9h-17.2l12.3-12.3-4.1-4.2-12.5 12.4v-17.2h-5.9v17.3l-12.5-12.6-4.2 4.2 12.4 12.4h-17.2v5.9h17.3l-12.4 12.4 4.2 4.2 12.4-12.4v17.6h5.9z"/><path d="m394.1 308.6h10.9c10.5 0 15.9-10.9 16.2-11.3.9-1.9.2-4.2-1.7-5.2-1.9-.9-4.2-.2-5.2 1.7 0 .1-3.6 7-9.3 7h-10.9c-4.1 0-7.9-5.3-9-7.2-1-1.9-3.4-2.5-5.2-1.5-1.9 1-2.5 3.4-1.5 5.2.6 1.3 6.4 11.3 15.7 11.3z"/><path d="m378.4 346.8c.6 1.1 6.4 11.2 15.7 11.2h10.9c10.5 0 15.9-10.9 16.2-11.3.9-1.9.2-4.2-1.7-5.2-1.9-.9-4.2-.2-5.2 1.7 0 .1-3.6 7-9.3 7h-10.9c-4.1 0-7.9-5.3-9-7.2-1-1.9-3.4-2.5-5.2-1.5-1.9 1.1-2.5 3.4-1.5 5.3z"/><path d="m378.4 322.1c.6 1.1 6.4 11.2 15.7 11.2h10.9c10.5 0 15.9-10.9 16.2-11.3.9-1.9.2-4.2-1.7-5.2-1.9-.9-4.2-.2-5.2 1.7 0 .1-3.6 7-9.3 7h-10.9c-4.1 0-7.9-5.3-9-7.2-1-1.9-3.4-2.5-5.2-1.5-1.9 1.1-2.5 3.4-1.5 5.3z"/><path d="m358.2 374.8c-2.8-3.3-7.8-9.8-7.9-9.8-1.3-1.7-3.7-2-5.4-.7s-2 3.7-.7 5.4c.2.3 5.2 6.7 8.1 10.1 6.3 7.3 16.7 10.6 24.2 10.6 3.2 0 4.5 2 4.5 3.3v10.6c0 5.6 6.2 11.5 12 11.5h5.2 8c3.4 0 7.1-1.6 9.5-4.1 2-2 3.1-4.5 3.1-7.1 0-1.7-.1-8.7-.1-11.5.2-.8 2.2-3.4 7.2-3.4h.1c9 0 17.4-5.4 20.4-9.2 2.5-3.1 9-10.9 9-10.9 1.4-1.6 1.2-4.1-.5-5.4-1.6-1.4-4.1-1.2-5.4.5-.3.3-6.6 7.9-9.2 11.1-1.7 2.1-7.8 6.3-14.4 6.3-4.7 0-9 1.6-11.8 4.4-2 2-3.1 4.4-3.1 6.6 0 2.7 0 9.9.1 11.6 0 .4-.3 1-.8 1.6-1 1-2.7 1.8-4.1 1.8-1.8 0-5.1 0-7.9 0-2.3 0-4.3 0-5.2 0-2 0-4.3-2.8-4.3-3.8 0-.4 0-9.1 0-10.7-.1-5.4-4.6-10.9-12.2-10.9-5.6 0-13.7-2.5-18.4-7.9z"/><path d="m315.2 381.7c-.9 1.9 0 4.2 1.9 5.1.1.1 5.5 2.5 12.3 5.6-.4 1.7-.7 4.2-.7 7 0 9.9 7 20.4 20.1 20.4 8 0 13-3.3 16.1-6.5.4 1.3.6 2.7.6 4.3.2 12.6 11.5 21 21.9 21h6.4c5.9 0 13.3-.1 19.3 0h.2c5.2 0 10.5-2.2 14.5-6.2 4.2-4.2 6.6-9.8 6.6-15.8 0-1.4.3-2.7.7-3.8 3 3.3 8.2 7 16.5 7 13.1 0 20.1-10.5 20.1-20.4 0-2.9-.4-5.5-.8-7.2l11.7-5.3c1.9-.9 2.8-3.2 1.9-5.1s-3.2-2.8-5.1-1.9l-37.6 17.1c-1.9.7-15 6.1-15 19.7 0 3.9-1.5 7.6-4.3 10.4-2.5 2.5-5.8 4-9.1 4h-.1c-6.1-.1-13.5 0-19.4 0-2.4 0-4.6 0-6.3 0-6.6 0-14.1-5.5-14.2-13.5-.2-12.3-8-17.3-13.8-20-4.8-2.2-38.7-17.5-39-17.7-2.3-1-4.5-.1-5.4 1.8zm129.1 22.4c.1 0 .2-.1.3-.1l18.9-8.6c.2 1.1.3 2.5.3 4 0 5.1-3.3 12.7-12.4 12.7-6.6 0-10.1-3.3-11.7-5.5 2.3-1.7 4.4-2.5 4.6-2.5zm-107.7-8.5c8.6 3.9 17.2 7.8 19.5 8.8 1.5.7 2.9 1.4 4.1 2.4-1.7 2.2-5.2 5.3-11.5 5.3-9.1 0-12.4-7.6-12.4-12.7 0-1.4.1-2.7.3-3.8z"/><path d="m386.4 457.7h27.2c10.3 0 13.6-9 13.8-13.8.1-2.1-1.5-3.9-3.6-4s-3.9 1.5-4.1 3.6c-.1 1.1-.7 6.6-6.1 6.6h-27.2c-5.3 0-5.9-4.9-6-6.4-.1-2.1-1.8-3.8-4-3.7-2.1.1-3.8 1.8-3.7 4 .2 5.4 4 13.7 13.7 13.7z"/><path d="m386.4 476h27.2c10.3 0 13.6-9 13.8-13.8.1-2.1-1.5-3.9-3.6-4s-3.9 1.5-4.1 3.6c-.1 1.1-.7 6.6-6.1 6.6h-27.2c-5.3 0-5.9-4.9-6-6.4-.1-2.1-1.8-3.8-4-3.7-2.1.1-3.8 1.8-3.7 4 .2 5.5 4 13.7 13.7 13.7z"/><path d="m447.1 476c-2.8-2.8-7.1-2.8-9.9-2.8-12.7 0-18.8 7.4-23.2 12.9-2.8 3.4-4.5 5.5-6.6 5.5-1.9 0-4.5 0-7 0-3.7 0-7.4 0-8.9 0-1.3 0-3.2-2.4-5.2-4.9-4.3-5.4-10.8-13.7-24.3-13.7-12 0-12 7.7-12 10.2v3.5 11c0 2.7 1.1 5.3 3.3 7.5 2.9 2.9 7.5 4.9 11.4 4.9 11 0 12.8-6.4 12.8-10.2.1-3.8-1.6-6.1-3-7.4-3.7-3.3-9.3-2.7-9.9-2.6-2.1.3-3.6 2.2-3.3 4.3s2.2 3.6 4.3 3.3c1.1-.1 3.1 0 3.8.7.1.1.4.4.4 1.5 0 1.4 0 2.7-5.1 2.7-1.6 0-4.3-1-5.9-2.6-.5-.5-1.1-1.2-1.1-2 0-2 0-7.4 0-11.1 0-1.7 0-3 0-3.5s0-1.5.2-1.7 1.3-.8 4.1-.8c9.8 0 14.1 5.5 18.2 10.7 3 3.9 6.2 7.8 11.2 7.8h.1 8.8 7c5.8 0 9.2-4.2 12.5-8.3 4-4.9 8.2-10 17.2-10 1 0 4 0 4.5.6 0 0 .1.3.1.7v8.3 6.3c0 4.2-4.4 5.7-7.3 5.7-1.5 0-2.8-.2-3.7-.6-1-.4-1.1-.9-1.1-1.5 0-1.3.4-1.7.6-1.9.9-.8 3-.9 3.8-.8 2.1.2 4-1.3 4.2-3.4s-1.3-4-3.4-4.3c-.6-.1-6.1-.6-9.8 2.8-1.4 1.3-3.2 3.7-3.1 7.6.1 6 4.9 9.7 12.5 9.7 7.3 0 15-4.7 15-13.4 0-1.4 0-3.8 0-6.3 0-3.4 0-6.9 0-8.3.1-3.1-1.1-5.1-2.2-6.1z"/><path d="m395.7 521.6v19.1c0 2.1 1.7 3.8 3.8 3.8s3.8-1.7 3.8-3.8v-19.1c0-2.1-1.7-3.8-3.8-3.8s-3.8 1.7-3.8 3.8z"/><path d="m445.8 560.6c.9 1.7 8 13.9 8.9 15.3.7 1.2 2 1.9 3.3 1.9.7 0 1.3-.2 1.9-.5 1.8-1.1 2.4-3.4 1.4-5.3-3.2-5.4-8.1-13.8-8.7-15s-1-3.7-.9-5c0-.9 0-1.3 0-2.6v-2.4c0-2.9-.7-5.1-2.2-6.5-.8-.8-2.4-1.8-4.7-1.8-.9 0-4.2 0-6.4 0h-.6c-2.2 0-4 .7-5.4 2-.9.9-1.9 2.4-1.9 4.9v4.2c-.3.1-.9.2-1.8.2-2.7 0-56.2.1-56.7.1-1.5 0-2.4-.2-2.8-.3v-4.1c0-1.6-.5-6.7-7.5-6.9-1.4 0-4.6 0-6.4 0h-.6c-2.4 0-3.9 1-4.8 1.9-1.4 1.4-2.1 3.5-2 6v4.4.8c0 1.2-.8 4.8-2.2 7.5-1.9 3.6-7.4 12.5-7.5 12.6-1.1 1.8-.5 4.2 1.3 5.3s4.2.5 5.3-1.3c.2-.4 5.6-9.2 7.7-13 1.9-3.6 3.1-8.4 3.1-11.1v-.8c0-1.5 0-2.9 0-4.6 0-.1 0-.1 0-.1h5.9v3.8c0 1.9.7 3.6 2 4.9 2.4 2.4 5.9 2.6 8.5 2.6.5 0 54.1-.1 56.7-.1 7 0 9.5-3.9 9.5-7.6v-3.6h.1 5.6v.7 2.4 2.4c0 .1-.1 5.1 1.9 8.7z"/><path d="m434 592.3c2.3-.9 2.4-3.6 1.8-5.2s-4.4-13.6-4.4-13.6c-1.1-3.4-4.2-7.4-12.5-7.6-4.2-.1-22.4 0-32.2 0-2.8 0-4.9 0-5.8 0-4.4 0-9.8 1-12.6 9-.9 2.6-3.8 10.9-4.4 12.5-.5 1.5-.2 3.7 2 4.6 2.4 1 4.6-.1 5.2-2s3.5-9.9 4.4-12.5c1.2-3.5 2.4-3.8 5.3-3.8h5.8c9.7 0 27.9-.1 32 0 4.7.1 5.2 1.7 5.4 2.3 0 0 3.9 12.1 4.4 13.6.5 1.4 2.3 4 5.6 2.7z"/><path d="m399.8 604.3c2.1 0 3.8-1.7 3.8-3.8v-19.3c0-2.1-1.7-3.8-3.8-3.9-2.1 0-3.8 1.7-3.8 3.8v19.3c-.1 2.2 1.6 3.9 3.8 3.9z"/><path d="m418.8 516.7c-2.1-.3-4.1 1.1-4.4 3.2l-2.8 17.2c-.3 2.1 1.1 4.1 3.2 4.4h.6c1.9 0 3.5-1.3 3.8-3.2l2.8-17.2c.4-2.1-1.1-4.1-3.2-4.4z"/><path d="m435.7 516.1-6.5 11.3c-1.1 1.8-.4 4.2 1.4 5.2.6.3 1.3.5 1.9.5 1.3 0 2.6-.7 3.3-1.9l6.5-11.3c1.1-1.8.4-4.2-1.4-5.2s-4.2-.4-5.2 1.4z"/><path d="m484.2 564.6c.5.2 1 .3 1.6.3 1.5 0 2.9-.8 3.5-2.3.9-1.9 0-4.2-1.9-5.1-10.4-4.7-24.3-23.7-24.9-37.6-.1-2.1-1.9-3.8-4-3.7s-3.8 1.9-3.7 4c.7 17.1 16.7 38.7 29.4 44.4z"/><path d="m484.7 529.1c.9 0 1.7-.3 2.5-.9 1.6-1.4 1.8-3.8.5-5.4-16.7-19.9-20.1-33.2-20-47.1 0-2.1-1.7-3.9-3.8-3.9-2.1 0-3.8 1.7-3.8 3.8-.1 18.4 6.2 33.5 21.8 52 .6 1.1 1.7 1.5 2.8 1.5z"/><path d="m544.4 303.2c-7.4 0-12.8 5.2-12.9 12.2-.1 5.2-.3 165.1-.3 173.1 0 6.4-6.4 12.5-13.3 12.5-12.3 0-15.6-8.9-15.6-13.6v-15.2c0-3.9-2.9-14.1-10.9-20.9.5-1.8.8-3.7.8-5.8 0-4.6 0-25.1 0-25.3 0-2.1-1.7-3.8-3.8-3.8-2.1 0-3.8 1.7-3.8 3.9v25.2c0 .5 0 1-.1 1.5-3.1-1.3-6.8-2.1-10.9-2.1 0 0 0 0-.1 0-15.9 0-25.6 13.3-26 13.9-1.2 1.7-.9 4.1.9 5.4 1.7 1.2 4.1.9 5.4-.8.1-.1 7.9-10.7 19.8-10.7h.1c3.3 0 6 .7 8.4 1.8-1 1.9-2.1 3.6-3.2 5.2-.9 1.3-1.7 2.5-2.3 3.7-4.1 7.4-3.6 15-3.6 15.3.1 2 1.8 3.6 3.8 3.6h.3c2.1-.2 3.7-2 3.6-4.1 0-.1-.3-5.7 2.6-11 .5-.9 1.2-2 2-3.2.9-1.4 2-3.1 3-4.8 4.8 5.2 6.4 11.9 6.4 13.3v15.2c0 10.6 8 21.3 23.3 21.3 11.1 0 20.9-9.4 20.9-20.2 0-8.1.3-168 .3-173 0-3.4 2.8-4.7 5.2-4.7 1.7 0 5.7.6 5.7 6.2v88.7c0 1.3.6 3.7 3.8 3.8 3.1 0 3.9-2.4 3.9-3.8s0-81.5 0-88.7c0-9.7-7-14.1-13.4-14.1z"/><path d="m553.9 426.1c-2.1 0-3.8 1.7-3.8 3.8v19.8c0 2.1 1.7 3.8 3.8 3.8s3.8-1.7 3.8-3.8v-19.8c.1-2.1-1.7-3.8-3.8-3.8z"/><path d="m507.9 402.1h-16.8c-2.1 0-3.8 1.7-3.8 3.8s1.7 3.8 3.8 3.8h16.8c2.1 0 3.8-1.7 3.8-3.8.1-2-1.7-3.8-3.8-3.8z"/><path d="m514.6 389c0-2.1-1.7-3.8-3.8-3.8h-19.8c-2.1 0-3.8 1.7-3.8 3.8s1.7 3.8 3.8 3.8h19.8c2.1 0 3.8-1.7 3.8-3.8z"/><path d="m517.6 372c0-2.1-1.7-3.8-3.8-3.8h-22.6c-2.1 0-3.8 1.7-3.8 3.8s1.7 3.8 3.8 3.8h22.6c2.1 0 3.8-1.7 3.8-3.8z"/><path d="m521.2 327c-1.7-1.3-4.1-.9-5.4.8l-17.1 23.1c-1.3 1.7-.9 4.1.8 5.4.7.5 1.5.8 2.3.8 1.2 0 2.3-.5 3.1-1.6l17.1-23.1c1.3-1.8 1-4.2-.8-5.4z"/><path d="m530.4 293.3c4 .1 7.6-1.4 10.2-4 2.5-2.5 4-6 4-9.5v-10.1c0-2.1-1.7-3.8-3.8-3.8s-3.8 1.7-3.8 3.8v10.1c0 1.5-.6 3-1.7 4-1.2 1.2-2.8 1.8-4.8 1.7-7.5-.1-12.5 0-13.8 0-12.4.2-20.1 11.8-20.1 20 0 2.9-1 5.9-2.6 8.3-1.9 2.7-22.2 32.1-23 33.3-1.2 1.7-.8 4.1 1 5.4.7.5 1.4.7 2.2.7 1.2 0 2.4-.6 3.2-1.7.2-.3 21.1-30.6 23-33.3 2.6-3.6 4-8.3 4-12.7 0-4.8 5-12.2 12.5-12.3 1.2.1 6.1 0 13.5.1z"/><path d="m541.1 231.1c-2.1 0-3.8 1.7-3.8 3.9v16.3c0 2.1 1.7 3.8 3.8 3.8 2.1 0 3.8-1.7 3.8-3.9v-16.3c0-2.1-1.7-3.8-3.8-3.8z"/><path d="m421.8 363.2c-1.3 1.7-.9 4.1.8 5.4.7.5 1.5.8 2.3.8 1.2 0 2.3-.5 3.1-1.5.3-.4 6.9-9.3 6.9-22.9 0-10.9 0-64.2 0-69.7 0-4.7 2.8-9.9 5.4-12.7 4.3-4.6 7.2-9.8 7.2-19.9v-49.1c0-1 .2-6.1 4.7-6.1 1.5 0 2.6.4 3.5 1.3 1 1 1.5 2.6 1.5 4.3v51.3 7.7c0 5.9-1.9 10.9-3.3 12.3-5.5 6.1-12 15.4-11.9 24.8.1 7.5 6.8 12 11.7 12h.1 2.6 6.2c5.4 0 16.1-4.6 16.1-15.3v-29.1c0-.9.3-4 4.2-4 1.4 0 2.4.4 3.1 1.2s.9 1.8 1 2.4v17.5 11.3c0 7.5-2.1 13.5-6.4 17.7-4.3 4.3-9.9 5.8-13.8 5.8h-.1c-4.8 0-9.2 1.8-12.5 5.1-2.9 2.9-4.5 6.7-4.5 10.4v20.9c0 2.1 1.7 3.9 3.8 3.9 2.1 0 3.8-1.7 3.8-3.8 0-.2 0-15.4 0-21 0-1.6.8-3.4 2.3-4.9 1.8-1.8 4.3-2.8 7-2.8 5.4 0 13.3-2.1 19.4-8.1 5.7-5.6 8.7-13.6 8.7-23.1 0-3.4 0-7.3 0-11.2 0-8 0-15.5 0-17.6 0-2.7-1.1-5.3-2.8-7.4-2.2-2.5-5.4-3.9-9-3.8-7.7.1-11.7 6-11.7 11.7v29.1c0 5.7-6.6 7.6-8.4 7.6-2.6 0-4.5 0-6.3 0-.9 0-1.7 0-2.6 0-.8 0-3.9-1.4-4-4.4-.1-5.4 3.5-12.3 10-19.6 3.1-3.4 5.2-10.6 5.2-17.5v-7.7c0-15.6 0-48.1 0-51.3 0-3.9-1.3-7.4-3.8-9.8-2.3-2.3-5.4-3.6-8.9-3.6-7.2 0-12.4 5.8-12.4 13.8v49.1c0 8.5-2.4 11.8-5.1 14.7-3.5 3.7-7.5 10.7-7.5 18v69.6c-.2 10.8-5.5 18.1-5.6 18.2z"/><path d="m380.7 516.8c-2.1.3-3.5 2.3-3.2 4.4l2.8 17.2c.3 1.9 1.9 3.2 3.8 3.2h.6c2.1-.3 3.5-2.3 3.2-4.4l-2.8-17.2c-.4-2.1-2.3-3.5-4.4-3.2z"/><path d="m358.6 514.9c-1.8 1.1-2.5 3.4-1.4 5.2l6.5 11.3c.7 1.2 2 1.9 3.3 1.9.6 0 1.3-.2 1.9-.5 1.8-1.1 2.5-3.4 1.4-5.2l-6.5-11.3c-1-1.8-3.4-2.5-5.2-1.4z"/><path d="m313.7 565.1c.5 0 1.1-.1 1.6-.3 12.7-5.7 28.8-27.3 29.4-44.4.1-2.1-1.6-3.9-3.7-4s-3.9 1.6-4 3.7c-.5 13.9-14.4 33-24.9 37.6-1.9.9-2.8 3.1-1.9 5.1.6 1.4 2 2.3 3.5 2.3z"/><path d="m306.6 541.5c1 0 1.9-.4 2.7-1.1 20.9-20.1 31-41.2 31-64.5 0-2.1-1.7-3.8-3.8-3.8-2.1 0-3.8 1.7-3.8 3.9.1 21-9.3 40.3-28.6 58.9-1.5 1.5-1.6 3.9-.1 5.4.6.8 1.6 1.2 2.6 1.2z"/><path d="m255.1 311.1c2.4 0 5.2 1.2 5.2 4.7.1 5 .3 164.9.3 173 0 10.7 9.8 20.2 20.9 20.2 15.3 0 23.3-10.7 23.3-21.3v-15.2c0-1.4 1.6-8.1 6.4-13.3 1 1.8 2.1 3.4 3 4.8.8 1.2 1.5 2.3 2 3.2 2.9 5.3 2.6 11 2.6 11-.2 2.1 1.4 4 3.6 4.1h.3c2 0 3.7-1.5 3.8-3.6 0-.3.5-8-3.6-15.3-.6-1.2-1.5-2.4-2.3-3.7-1-1.6-2.2-3.3-3.2-5.2 2.4-1.1 5.2-1.8 8.4-1.8h.1c11.9 0 19.7 10.6 19.8 10.7 1.2 1.7 3.6 2.1 5.4.9 1.7-1.2 2.1-3.6.9-5.4-.4-.6-10.2-13.9-26-13.9 0 0 0 0-.1 0-4.2 0-7.8.8-10.9 2.1-.1-.5-.1-1-.1-1.5 0-4.6 0-25 0-25.2 0-2.1-1.7-3.8-3.8-3.9-2.1 0-3.8 1.7-3.8 3.8v25.3c0 2 .3 3.9.8 5.8-8 6.8-10.9 17-10.9 20.9v15.2c0 4.7-3.3 13.6-15.6 13.6-6.8 0-13.2-6.1-13.3-12.5 0-8-.3-167.9-.3-173.1-.1-7.1-5.5-12.2-12.9-12.2-6.4 0-13.4 4.3-13.4 13.9v88.7c0 1.6 1.2 3.5 3.7 3.5 3 0 3.9-1.9 3.9-3.5 0-1.5 0-81.5 0-88.7.1-5.5 4.1-6.1 5.8-6.1z"/><path d="m245.6 426.2c-2.1 0-3.8 1.7-3.8 3.8v19.8c0 2.1 1.7 3.8 3.8 3.8s3.8-1.7 3.8-3.8v-19.8c0-2-1.7-3.8-3.8-3.8z"/><path d="m308.3 402.3h-16.8c-2.1 0-3.8 1.7-3.8 3.8s1.7 3.8 3.8 3.8h16.8c2.1 0 3.8-1.7 3.8-3.8.1-2.1-1.6-3.8-3.8-3.8z"/><path d="m308.5 385.3h-19.8c-2.1 0-3.8 1.7-3.8 3.8s1.7 3.8 3.8 3.8h19.8c2.1 0 3.8-1.7 3.8-3.8s-1.6-3.8-3.8-3.8z"/><path d="m285.7 376h22.6c2.1 0 3.8-1.7 3.8-3.8s-1.7-3.8-3.8-3.8h-22.6c-2.1 0-3.8 1.7-3.8 3.8s1.7 3.8 3.8 3.8z"/><path d="m297.7 357.2c.8 0 1.6-.2 2.3-.8 1.7-1.3 2.1-3.7.8-5.4l-17.2-23c-1.3-1.7-3.7-2.1-5.4-.8s-2.1 3.7-.8 5.4l17.1 23.1c.8 1 2 1.5 3.2 1.5z"/><path d="m258.7 266.1c-2.1 0-3.8 1.7-3.8 3.8v10.1c0 3.5 1.4 7 4 9.5 2.6 2.6 6.3 4 10.3 4 7.4-.1 12.3 0 13.6 0 7.5.1 12.5 7.5 12.5 12.3 0 4.4 1.5 9.1 4 12.7 1.9 2.7 22.8 33 23 33.3.7 1.1 1.9 1.7 3.2 1.7.8 0 1.5-.2 2.2-.7 1.7-1.2 2.2-3.6 1-5.3-.9-1.2-21.1-30.6-23-33.3-1.7-2.4-2.6-5.4-2.6-8.3 0-8.2-7.6-19.8-20.1-20-1.3 0-6.3-.1-13.8 0-1.9 0-3.6-.6-4.8-1.7-1.1-1.1-1.7-2.5-1.7-4v-10.1c-.1-2.3-1.8-4-4-4z"/><path d="m258.4 231.2c-2.1 0-3.8 1.7-3.9 3.8v16.3c0 2.1 1.7 3.8 3.8 3.9 2.1 0 3.8-1.7 3.8-3.8v-16.3c.2-2.1-1.5-3.9-3.7-3.9z"/><path d="m364.8 257.5c-2.7-2.9-5.1-6.2-5.1-14.7v-49.1c0-8-5.2-13.8-12.4-13.8-3.5 0-6.6 1.2-8.9 3.6-2.5 2.5-3.8 6-3.8 9.8v51.3 7.7c0 6.8 2.1 14 5.2 17.5 6.5 7.2 10 14.2 10 19.6 0 3.1-3.2 4.4-4 4.4-.9 0-1.7 0-2.6 0-1.8 0-3.7 0-6.3 0-1.8 0-8.4-1.9-8.4-7.6v-29.1c0-5.7-4-11.6-11.7-11.7-3.6-.1-6.8 1.3-9 3.8-1.8 2-2.8 4.7-2.8 7.4v17.6 11.2c0 9.5 3 17.5 8.7 23.1 6.1 6 14 8.1 19.4 8.1 2.7 0 5.2 1 7 2.8 1.4 1.4 2.3 3.2 2.3 4.9v21c0 2.1 1.7 3.8 3.8 3.8 2.1 0 3.8-1.7 3.8-3.9 0-.2 0-15.4 0-20.9 0-3.7-1.6-7.5-4.5-10.4-3.3-3.3-7.7-5.1-12.4-5.1-.1 0-.2 0-.3 0-3.8 0-9.4-1.5-13.8-5.8-4.2-4.2-6.4-10.2-6.4-17.7 0-3.4 0-7.3 0-11.3 0-7.6 0-15.4 0-17.5 0-.6.3-1.7 1-2.4.7-.8 1.7-1.2 3.1-1.2 3.9.1 4.2 3.1 4.2 4v29.1c0 10.7 10.7 15.3 16.1 15.3h6.2 2.6.1c4.8 0 11.6-4.5 11.7-12 .1-9.4-6.4-18.7-11.9-24.8-1.3-1.5-3.3-6.4-3.3-12.3v-7.7c0-15.6 0-48.1 0-51.3 0-1.8.5-3.3 1.5-4.3.8-.9 2-1.3 3.5-1.3 4.5 0 4.7 5.1 4.7 6.1v49.1c0 10.2 2.9 15.3 7.2 19.9 2.6 2.8 5.4 8 5.4 12.7v69.7c0 13.6 6.7 22.5 6.9 22.9.8 1 1.9 1.5 3.1 1.5.8 0 1.6-.3 2.3-.8 1.7-1.3 2-3.7.8-5.4-.1-.1-5.4-7.2-5.4-18.3 0-10.9 0-64.2 0-69.6-.1-7.2-4.1-14.2-7.6-17.9z"/></g><g fill="#e5a345"><path d="m268.4 89.5v-3.3h-19.4v-2.8l17.1-1.1v-3.2l-17.1.9h-22.3v3.3h17v2.8h-18.7v3.3h18.7v2.7h-15.7v15h15.7v2.7h-16.2v3.3h16.2v3h-19.1v3.3h43.8v-3.3h-19.4v-3h16.4v-3.1h-16.4v-2.7h15.8v-15h-15.8v-2.7h19.4zm-35.1 6.1h10.3v2.7h-10.3zm0 8.3v-2.9h10.3v2.9zm26.2 0h-10.5v-2.9h10.5zm0-8.3v2.7h-10.5v-2.7z"/><path d="m323.8 99.9h-5.1v7.1h17.3l1.3-3.4h-13.5z"/><path d="m327.5 80.1v-2h-5.4v2h-18.2v17.5l-2.7 23.4h3.8l3.9-22.4h29.4v.9h5.2v-4.3h-34.6v-1.9h34.3v-8h-11.2v-2h12.5v-3.3h-17zm-18.6 3.3h6.5v2h-6.5zm0 5h6.5v1.9h-6.5zm11.5 0h6.5v1.9h-6.5zm18 0v1.9h-6.5v-1.9zm-11.5-3h-6.5v-2h6.5z"/><path d="m309.3 106.4h4l3.9-6h-5.4z"/><path d="m334 102.7 3.5-.8 3.5 4.5h3.3l-1.9-5.6h-5.7l-3.2.9-1-1.9h-5.6l3 2.9z"/><path d="m341.4 113.9v-5.3h-22l1-1.1h-6.1l-5 7.6h4l1.2-1.2 7.9 2.5-14.5 4.5h7.3l11.6-3.1 9.7 3.1h7.8l-12.3-4.5zm-18.7-.8h-7.5l1.1-1.1h18l.2.7-6.9 2.2z"/><path d="m383.8 78.1-4.8 10.5v4.8l2-2.5v4h3.6v4.3h-5.2v4.3h5.2v11.8l-1.8.2-.4-9h-3.1l1.4 9.2-1.7.2v4.3l15.9-1.5v-4.3l-1.4.1 1.1-8h-3.2l-.4 8.2-1.7.2v-11.3h5.2v-4.3h-5.2v-4.3h3.6v-4l2 2.5v-4.9l-5-10.4h-6.1zm-2.6 12.5 5.8-7.3 5.7 7.3z"/><path d="m402.79999 87.099998h11.8v4h-11.8z"/><path d="m413.9 94.9h-10.4v17.6h10.4zm-6.6 4.4h2.7v8.8h-2.7z"/><path d="m416.3 116.7h-3.6l1.4 4.3h6.9v-41.8h-24.5v41.8h4.7v-37.5h15.1z"/><path d="m464.4 78.1h-6.3l5.1 5.7h4.1z"/><path d="m461.8 92.6-5.4 9h5.9l3.7-9z"/><path d="m466.8 94.9h3.4l3.9-8.9h-4.7z"/><path d="m483.7 96.4 1.6 4.1h7.8v-4.1-8.8l2.5 7.4h2.7l-1.2-8.9h-4v-6.9h-24.1v4.1h8.8l-8.1 17.9h4.3l9.8-17.9h4.1v13.1z"/><path d="m462.5 84.8h-6.1l5.1 5.6h4.5z"/><path d="m463.6 108-7.5 12.2h4.6l9-12.2h4.5v13h5.5v-13h4.6l9 12.2h4.6l-7.5-12.2h7.5v-4.1h-18.2v-3.2h-5.5v3.2h-18.2v4.1z"/><path d="m533 80.8v3.9h19.7v-3.9h-7.3v-2.7h-5v2.7z"/><path d="m539.6 86.4h-5.3l1.9 4h-4v4h21.5v-4h-4.3l2-4h-5.3l-.8 4h-4.9z"/><path d="m533.6 121h5v-7.7h8.8v4.6h-2.6l1.2 3.1h6.4v-24.2h-18.8zm13.7-11.2h-8.8v-2.8h8.8zm0-6.3h-8.8v-3h8.8z"/><path d="m560.4 108.7h14v-3.5h-14v-2.4h14v-3.5h-14v-2.5l9 .1h5v-10.3h-5-9v-2.4h14.4v-4h-14.4v-2.1h-5v12.2h14v2.7h-14v28h18.6l1.4-3.7h-15v-2.8h14v-3.5h-14z"/></g><g fill="#f4bb64"><path d="m402.2 705.8v-1c0-.3 0-.6-.1-.8 0-.1 0-.2 0-.3-.4-4-2.4-6.3-5.9-7.1-1.3-.3-2.8-.5-4.3-.5-3.1-.1-6.3-.1-9.3 0-1.5 0-2.9.2-4.3.5-3 .7-4.9 2.5-5.5 5.6-.2.9-.4 1.9-.4 2.8-.1 3.8-.1 7.8-.1 11.8 0 1.2.2 2.4.3 3.4.5 3.3 2.2 5.4 5.1 6.3.9.3 1.9.5 2.9.5 3.1.1 6.4.1 10.4.1 1.4 0 2.7-.1 3.9-.3 4.6-.7 6.8-3 7.1-7.7.2-2.2.2-10 .2-13.3zm-23.3 5.4c0-.5 0-.9 0-1.4 0-1.3 0-2.6 0-3.9.1-2.3.9-3.2 3-3.5.4-.1.9-.1 1.4-.1h7.7c.5 0 1.1 0 1.7.1 1.8.2 2.6 1.2 2.8 3.2.1.7.1 1.4.1 2v2.4c0 2.4 0 5-.1 7.5-.1 2.1-.9 3-2.9 3.2-.9.1-1.8.1-2.6.1-2 0-4.1 0-6.6 0-.5 0-1.1 0-1.6-.1-2-.3-2.8-1.2-2.9-3.3-.1-1.3 0-2.7 0-4 0-.6 0-1.2 0-1.8z"/><path d="m205.4 558.4.9-.3c.3-.1.5-.2.8-.4.1-.1.2-.1.3-.2 3.6-1.8 5.1-4.4 4.6-8-.2-1.3-.5-2.7-1-4.2-1-3-2.1-5.9-3.3-8.7-.5-1.4-1.2-2.6-2-3.9-1.7-2.6-4.1-3.7-7.2-3.2-.9.1-1.9.3-2.8.6-3.6 1.3-7.3 2.6-11 4.1-1.2.4-2.2 1-3.1 1.5-2.9 1.6-4.3 3.9-4.1 7 .1.9.2 2 .5 2.9 1 2.9 2.1 6 3.5 9.8.5 1.4 1 2.5 1.6 3.6 2.2 4 5.2 5.3 9.7 4 2.2-.7 9.5-3.4 12.6-4.6zm-13.3-19.9c.4-.2.9-.3 1.3-.5 1.2-.5 2.4-.9 3.7-1.3 2.2-.7 3.3-.3 4.4 1.6.2.4.4.8.6 1.3 1 2.8 1.9 5 2.7 7.2.2.5.3 1.1.5 1.6.4 1.8-.2 2.9-2 3.7-.7.3-1.3.6-1.8.8-.8.3-1.5.6-2.3.8-2.3.9-4.7 1.7-7 2.5-2 .6-3.1.2-4-1.6-.4-.8-.7-1.6-1-2.4-.7-1.9-1.5-3.8-2.3-6.2-.2-.5-.3-1-.4-1.5-.4-1.9.2-3 2.1-3.9 1.2-.5 2.5-1 3.7-1.4.6-.2 1.1-.4 1.7-.6z"/><path d="m428.7 694 2.2 20.6-2-2.1c-5.2-5.4-10.4-10.9-15.5-16.3-.4-.4-.7-.5-1.2-.5-1 .1-1.9.2-2.9.3l-3.1.3 3.3 30.8 6.8-.7-2.2-20.5 2.2 2.4c5.1 5.3 10.1 10.6 15.2 16 .4.4.7.5 1.2.5h.1c.7-.1 1.4-.2 2.1-.2.3 0 .6-.1.8-.1l3-.3-3.3-30.8z"/><path d="m299.9 663-12.6 16.4v-2.8c0-7.5 0-15 0-22.5 0-.5-.2-.9-.6-1.2-.8-.6-1.6-1.2-2.3-1.8l-2.4-1.9-18.8 24.6 5.4 4.2 12.5-16.4v3.3 22c0 .5.2.9.5 1.2.6.4 1.1.8 1.7 1.3.2.2.4.3.7.5l2.4 1.8 18.8-24.6z"/><path d="m226.5 578.5-18.5 9.3 1.2-2.6c3.3-6.8 6.5-13.5 9.8-20.3.2-.5.2-.9 0-1.3-.5-.9-.9-1.7-1.3-2.6l-1.4-2.7-27.6 14 3.1 6.1 18.4-9.3-1.4 2.9c-3.2 6.6-6.4 13.2-9.5 19.8-.2.5-.2.9 0 1.3.3.6.6 1.2 1 1.9.1.3.3.5.4.8l1.4 2.7 27.6-14z"/><path d="m164.1 502.6 1.7 6.6 11.9-3.2 4 15.4-11.9 3.1 1.7 6.5 30-7.8-1.7-6.6-11.9 3.1-4.1-15.3 11.9-3.1-1.7-6.6z"/><path d="m181.3 470.1c1.6 0 2.5.6 3 2.1.2.7.4 1.5.6 2.4.6 3.9 1.1 7.9 1.7 11.8l.7 4.9 6.2-.9v-.5c0-.1 0-.2 0-.3-.2-1.5-.4-3-.6-4.5-.6-4.2-1.2-8.5-1.8-12.7-.2-1.3-.6-2.7-1.1-4.3-1.2-3.4-3.6-5.2-7.1-5.2-1.4 0-2.6 0-3.7.2-2.9.4-6.1.8-9.8 1.4-1 .2-2.1.4-3.3.7-3.5 1-5.5 3.4-5.7 6.9-.1 1.8-.1 3.5.1 5.2.3 2.5.7 5 1 7.4.2 1.5.4 2.9.6 4.3.2 1.5.4 3 .7 4.5l.2 1.2 6.2-.9-.7-4.9c-.6-4-1.1-7.9-1.7-11.9-.1-.7-.2-1.4-.2-2.1 0-1.7.7-2.7 2.3-3.2.5-.2 1.1-.3 1.6-.3 3.3-.5 6.3-.9 9.2-1.3z"/><path d="m359.2 697.4 10.8 2.5 1.4-6-28.1-6.7-1.4 6.1 10.8 2.5-5.8 24.1 6.6 1.5z"/><path d="m595.5 581.6-19-9.3-2.9 6 18.6 9.1c5.1 2.5 11.2.4 13.7-4.7l5.6-11.5-5.6-2.7-5.7 11.6c-.8 1.7-2.9 2.4-4.7 1.5z"/><path d="m484.5 696.9-9.3-19-6 2.9 9 18.6c2.5 5.1 8.6 7.2 13.7 4.7l11.6-5.6-2.7-5.6-11.6 5.6c-1.7.8-3.8.1-4.7-1.6z"/><path d="m500.10001 663.09998h7.1v30.9h-7.1z" transform="matrix(.8229 -.5682 .5682 .8229 -296.373 406.3027)"/><path d="m250.10001 651.59998h30.9v7.1h-30.9z" transform="matrix(.6808 -.7325 .7325 .6808 -395.0874 403.6444)"/><path d="m518.1 649.4c-.5-.3-.9-.1-1.1.2-1.6 1.3-3.1 2.5-4.6 3.7-.5.4-.4.8-.3 1.2 1.6 6.3 5.6 22.4 7.3 29.3.4 1.5 2.2 2.1 3.3 1.1l13.3-10.9c.4-.3.3-.8-.1-1.1l-4.6-2.4-6.9 5.7-4.8-18.9s22 10.4 22.6 10.7c.2.1.8.2 1.1 0 1-.8 5.3-4.4 5.3-4.4s-22.2-10.3-30.5-14.2z"/><path d="m450.6 694.4c6.3-2.1 16.8-5.6 16.8-5.6l-2-5.9-17.6 5.9c-5.5 1.8-8.6 8.5-6.4 15l2.1 6.1c2.2 6.6 8.7 9.9 14.2 8.1l17.7-5.9-5.6-16.5-6.3 2.1 3.6 10.6s-5.9 1.9-10.4 3.4c-2.1.7-4-.5-5-2.5-1.9-3.6-2.4-5-3.3-9.4-.6-2.1.1-4.7 2.2-5.4z"/><path d="m543.5 622.3 15.8 13.4-2.8-.1c-7.5-.4-15-.8-22.5-1.2-.5 0-.9.1-1.2.5-.6.7-1.3 1.5-1.9 2.2l-2 2.3 23.6 20.1 4.4-5.2-15.7-13.3 3.3.2c7.3.4 14.7.7 22 1.1.5 0 .9-.1 1.2-.5.4-.5.9-1.1 1.3-1.6.2-.2.4-.4.5-.6l2-2.3-23.6-20.1z"/><path d="m562.1 607.8c3.7-5.5 9.8-14.7 9.8-14.7l-5.2-3.5-10.2 15.4c-3.2 4.8-1.6 12 4.1 15.8l5.4 3.6c5.8 3.9 12.9 2.6 16.2-2.2l10.4-15.4-14.5-9.7-3.7 5.6 9.3 6.2s-3.5 5.1-6.2 9c-1.2 1.8-3.5 2-5.4 1.1-3.8-1.7-4.9-2.5-8.4-5.5-1.7-1.3-2.8-3.9-1.6-5.7z"/><path d="m604.2 530.5-.9-.3c-.3-.1-.6-.2-.8-.2-.1 0-.2 0-.3-.1-3.9-.9-6.7.2-8.6 3.2-.7 1.2-1.3 2.4-1.9 3.9-1.1 2.9-2.1 5.9-3.1 8.8-.4 1.4-.8 2.8-.9 4.2-.4 3.1.8 5.4 3.5 7.1.8.5 1.6 1 2.5 1.3 3.6 1.3 7.3 2.6 11.1 3.9 1.2.4 2.4.7 3.3.8 3.3.6 5.8-.3 7.6-2.8.5-.7 1.1-1.6 1.5-2.6 1.1-2.9 2.2-6 3.5-9.8.5-1.4.8-2.6 1-3.8.9-4.5-.7-7.4-4.9-9.2-2.1-.8-9.4-3.3-12.6-4.4zm-2.5 23.8c-.4-.2-.9-.3-1.3-.5-1.2-.4-2.5-.8-3.7-1.3-2.1-.8-2.8-1.9-2.3-4 .1-.4.2-.9.4-1.4 1-2.8 1.8-5.1 2.5-7.3.2-.5.4-1 .7-1.6.8-1.6 2-2.1 3.9-1.6.7.2 1.3.4 1.9.6.8.3 1.5.5 2.3.8 2.3.8 4.7 1.6 7 2.5 1.9.7 2.5 1.8 2.1 3.8-.2.8-.5 1.7-.8 2.5-.6 1.9-1.3 3.9-2.2 6.3-.2.5-.4 1-.6 1.4-.9 1.8-2.1 2.2-4.1 1.6-1.3-.4-2.6-.8-3.8-1.3-.6-.2-1.1-.4-1.7-.6z"/><path d="m602.6 501.2 20 5.2-2.6 1.1c-6.9 2.9-13.8 5.8-20.8 8.8-.5.2-.7.5-.9 1-.2.9-.5 1.9-.7 2.8l-.8 3 30 7.8 1.7-6.6-19.9-5.2 3-1.3c6.8-2.9 13.5-5.7 20.3-8.6.5-.2.7-.5.9-1 0 0 0 0 0-.1.2-.7.3-1.4.5-2 .1-.3.1-.5.2-.8l.8-2.9-30-7.8z"/><path d="m614.5 480.2c.9-6.6 2.4-17.5 2.4-17.5l-6.1-.8-2.5 18.4c-.8 5.7 3.8 11.5 10.6 12.4l6.4.9c6.9.9 12.8-3.4 13.6-9.1l2.6-18.4-17.3-2.3-.9 6.6 11.1 1.5s-.9 6.2-1.6 10.8c-.3 2.1-2.3 3.3-4.4 3.4-4.1.1-5.5-.1-9.9-1.2-2.3-.7-4.3-2.5-4-4.7z"/><path d="m316 680.1c5.8 3.2 15.5 8.5 15.5 8.5l3-5.4-16.3-8.9c-5.1-2.8-12.1-.5-15.4 5.5l-3.1 5.7c-3.3 6.1-1.4 13.1 3.6 15.9l16.3 9 8.4-15.3-5.9-3.2-5.4 9.8s-5.4-3.1-9.5-5.3c-1.9-1.1-2.3-3.3-1.6-5.3 1.4-3.9 2-5.1 4.7-8.8 1.3-1.9 3.8-3.2 5.7-2.2z"/><path d="m233.2 601.2c3.6 5.6 9.6 14.9 9.6 14.9l5.2-3.4-10-15.6c-3.1-4.9-10.4-6.3-16.2-2.5l-5.5 3.5c-5.9 3.8-7.5 10.9-4.4 15.7l10 15.7 14.6-9.4-3.6-5.6-9.4 6.1s-3.3-5.3-5.8-9.2c-1.2-1.8-.4-4 1.2-5.4 3.1-2.8 4.2-3.5 8.3-5.5 2.1-1.2 4.9-1.2 6 .7z"/><path d="m249.2 657.2-.1-2.1c1.1-.3 2.3-.9 3.5-1.7 1.8-1.3 7.7-6.4 10.2-8.5l.7-.6.6-.6c.1-.1.1-.2.2-.2 2.8-2.9 3.3-5.9 1.6-9.1-.6-1.2-1.4-2.4-2.4-3.6-2-2.4-4-4.8-6-7.1-1-1.1-2-2.1-3.2-3-2.4-1.9-5.1-2.1-7.8-.6-.8.4-1.7.9-2.4 1.5-2.9 2.4-6 5-9 7.5-.9.8-1.8 1.7-2.4 2.4-2.2 2.5-2.7 5.2-1.5 7.9.4.8.8 1.8 1.5 2.6 1.9 2.4 4 5 6.6 8 .9 1.1 1.8 2 2.7 2.8.4.3.7.6 1.1.9l.2 3.6zm-10-16.9c-.3-.4-.7-.8-.9-1.3-1.1-1.7-.9-2.9.7-4.3 1-.9 2-1.8 3-2.6.5-.4.9-.8 1.4-1.1l.3-.2c.4-.3.7-.6 1.1-.9 1-.8 2-1.7 3-2.5 1.8-1.4 3-1.4 4.6 0l1 1c1.9 2.2 3.5 4.1 5 5.9.3.4.7.9 1 1.4 1 1.5.8 2.8-.6 4.2-.5.5-1 1-1.4 1.4-.6.5-1.2 1-1.9 1.6-1.9 1.6-3.8 3.2-5.8 4.7-.3.2-.6.4-.9.6l-.1-3.2-5.4.2c-1.3-1.6-2.6-3.1-4.1-4.9z"/></g><g fill="#ea2c2d"><path d="m385.7 642v2.4h-13.5l7.5-8.2c.9-1 1.6-1.9 2-2.7s.6-1.5.6-2.1c0-.9-.3-1.6-.9-2.2s-1.4-.8-2.4-.8c-.9 0-1.7.3-2.3.8-1.2 1-.9 2.6-1 3.5h-3.1c0-1.7.1-3.8 1.8-5.4 1.1-1.1 2.8-1.5 4.9-1.5 1.9 0 3.5.5 4.6 1.4s1.7 2.2 1.7 3.7c0 1.1-.3 2.3-1 3.4-.6 1.1-2 2.8-4.1 5l-2.5 2.7z"/><path d="m417.2 642v2.4h-13.5l7.5-8.2c.9-1 1.6-1.9 2-2.7s.6-1.5.6-2.1c0-.9-.3-1.6-.9-2.2-.6-.5-1.4-.8-2.4-.8-.9 0-1.7.3-2.3.8-1.2 1-.9 2.6-1 3.5h-3.1c0-1.7.1-3.8 1.8-5.4 1.1-1.1 2.8-1.5 4.9-1.5 1.9 0 3.5.5 4.6 1.4s1.7 2.2 1.7 3.7c0 1.1-.3 2.3-1 3.4s-2 2.8-4.1 5l-2.6 2.7z"/><path d="m402 635.6c0 2.9-.6 5.2-1.9 6.9s-3.1 2.5-5.3 2.5c-2.3 0-4-.8-5.3-2.5s-1.9-4-1.9-7 .6-5.3 1.9-7 3.1-2.5 5.3-2.5c2.3 0 4.1.8 5.3 2.5 1.3 1.5 1.9 3.9 1.9 7.1zm-7.3 6.7c1.3 0 2.3-.6 3-1.8s1-2.9 1-5.2-.3-4-1-5.2-1.6-1.8-2.9-1.8-2.3.6-3 1.8-1 2.9-1 5.2c0 2.2.3 4 1 5.2s1.7 1.8 2.9 1.8z"/><path d="m424 644.4v-15.2c-.9.6-2.7 1.3-3.7 1.5v-2.2c1.5-.4 3.3-1.4 4.5-2.6h2.1v18.6h-2.9z"/></g></g></svg>