<svg height="316.227766" viewBox="0 0 185.20833 185.20833" width="316.227766" xmlns="http://www.w3.org/2000/svg"><g transform="matrix(.26458333 0 0 .26458333 -13.229167 -13.229166)"><g><circle cx="400" cy="400" fill="#5a0205" r="350"/><path d="m400 739c-90.5 0-175.7-35.3-239.7-99.3s-99.3-149.2-99.3-239.7 35.3-175.7 99.3-239.7 149.2-99.3 239.7-99.3 175.7 35.3 239.7 99.3 99.3 149.1 99.3 239.7-35.3 175.7-99.3 239.7-149.2 99.3-239.7 99.3z" fill="#fff"/><path d="m400 726.9c-87.3 0-169.4-34-231.2-95.8-61.7-61.7-95.7-143.8-95.7-231.1s34-169.4 95.8-231.2c61.7-61.8 143.8-95.8 231.2-95.8 87.3 0 169.4 34 231.2 95.8 61.7 61.7 95.8 143.8 95.8 231.2 0 87.3-34 169.4-95.8 231.2s-144 95.7-231.3 95.7z" fill="#5a0205"/><path d="m400 714.9c-84.1 0-163.2-32.8-222.7-92.2-59.4-59.5-92.2-138.6-92.2-222.7s32.8-163.2 92.2-222.7c59.5-59.5 138.6-92.2 222.7-92.2s163.2 32.8 222.7 92.2c59.5 59.5 92.2 138.6 92.2 222.7s-32.8 163.2-92.2 222.7c-59.5 59.4-138.6 92.2-222.7 92.2z" fill="#be0000"/><path d="m400 638.7c-63.8 0-123.7-24.8-168.8-69.9s-69.9-105-69.9-168.8 24.8-123.7 69.9-168.8 105-69.9 168.8-69.9 123.7 24.8 168.8 69.9 69.9 105 69.9 168.8-24.8 123.7-69.9 168.8-105 69.9-168.8 69.9z" fill="#fff" opacity=".5"/><path d="m400 628.7c-61.1 0-118.5-23.8-161.7-67s-67-100.6-67-161.7 23.8-118.5 67-161.7 100.6-67 161.7-67 118.5 23.8 161.7 67 67 100.6 67 161.7-23.8 118.5-67 161.7-100.6 67-161.7 67z" fill="#fff"/><g fill="#840001"><path d="m133.2 307.7s-22.1 96.3 2 184.5c0 .1-44.1-96.2-2-184.5z"/><path d="m667.6 307.7s22.1 96.3-2 184.5c0 .1 44.1-96.2 2-184.5z"/></g></g><g><path d="m392.8 625.3c-13.1-10-104.4-82.2-104.4-154.5 0-77.8 0-207.4 0-207.4h16v195.4c.1 90.3 76.5 157.2 88.4 166.5z" fill="#5a0205"/><path d="m406.2 625.3c13.1-10 104.4-82.2 104.4-154.5 0-77.8 0-207.4 0-207.4h-16v195.4c-.1 90.3-76.5 157.2-88.4 166.5z" fill="#5a0205"/><path d="m339.5 217.4h-99v250.1c0 80 112.6 146.5 154 159 0 0-105.9-77.8-105.9-155.6s0-207.4 0-207.4h51v-46.1z" fill="#840001"/><path d="m352.2 599.1c-15.1-8.8-31.2-19.8-45.7-32.1-26.9-22.8-59-58.5-59-99.5v-243.1h85v32h-51v214.5c0 34.1 18.4 71.7 54.8 111.7 5.3 5.9 10.7 11.5 15.9 16.5z" fill="#d00"/><path d="m357.5 217.4v252.1c0 85.4 8.3 101 42 158.1 33.7-57 42-72.7 42-158.1 0-57 0-150.4 0-206.1h69v207.4c0 77.8-105.9 155.7-105.9 155.7 41.4-12.5 154-78.9 154-159 0-88.5 0-250.1 0-250.1z" fill="#840001"/><path d="m399.5 613.8c-27.4-46.7-35-64.8-35-144.2v-245.2h187.1v243.1c0 41-32.1 76.7-59 99.5-14.6 12.3-30.6 23.3-45.7 32.1 5.2-5.1 10.6-10.6 16-16.6 36.4-40.1 54.8-77.6 54.8-111.7v-214.4h-83.1v213.1c-.1 79.5-7.7 97.5-35.1 144.3z" fill="#bd0102"/><path d="m399.5 224.4v389.4c-27.4-46.7-35-64.8-35-144.3v-245.1z" fill="#d00"/></g><g fill="#fff"><path d="m242 202.5c-4.9 0-9.9-1.3-14.3-3.8-9.2-5.4-14.4-15.3-14.3-27.3.1-9.3 4.4-17.7 11.6-22.6 7.1-4.8 16-5.5 25.1-2l-4.4 11.4c-5.3-2.1-10.1-1.8-13.8.7-3.8 2.6-6.1 7.3-6.2 12.6-.1 7.5 2.8 13.4 8.2 16.5 4.9 2.8 11 2.9 15.6.2 4.5-2.7 6.9-7.6 6.8-14.1l12.3-.2c.2 10.9-4.5 20-12.8 24.9-4.2 2.5-9 3.7-13.8 3.7z"/><path d="m347.4 686.3c-2.5-2.7-4.3-6.1-5.1-9.8-1.7-7.8 1.2-15.6 7.8-21.6 5.2-4.6 12-6.5 18.2-5s11.1 6 13.8 12.8l-8.5 3.3c-1.6-4-4.1-6.5-7.4-7.3s-7.1.3-10 2.9c-4.2 3.8-6 8.3-5 12.8.9 4.1 4 7.5 7.8 8.7s7.6 0 11.2-3.4l6.3 6.6c-5.9 5.6-13.3 7.6-20.2 5.5-3.4-.8-6.5-2.8-8.9-5.5z"/><path d="m598.3 616.3c-3.6.8-7.4.7-11-.4-7.6-2.3-13.1-8.7-15-17.5-1.5-6.8.3-13.6 4.6-18.3 4.4-4.7 10.7-6.7 17.9-5.7l-1.3 9.1c-4.2-.6-7.7.4-9.9 2.8-2.3 2.5-3.2 6.3-2.4 10.2 1.2 5.5 4.3 9.3 8.7 10.7 4 1.2 8.5.3 11.4-2.5 2.9-2.7 3.7-6.6 2.5-11.4l8.9-2.2c2 7.9.1 15.3-5.1 20.3-2.5 2.4-5.8 4.1-9.3 4.9z"/><path d="m270 125.7-11.2 4.9 21.1 47.8 11.3-4.9-8.2-18.5 16.5-7.3 8.1 18.5 11.2-5-21.1-47.8-11.2 5 8.5 19.1-16.5 7.3z"/><path d="m394.7 654.8h-9.1l-.1 39h9.1v-15.1h13.5l-.1 15.1h9.2l.1-39h-9.2v15.6h-13.4z"/><path d="m332.4 115.9 22.2-4.5-2.4-12-34.5 7 11.8 53.2 34.8-7.2-2.5-12-23 4.7-2-9 20.7-3.5-2-12.1-21.3 3.6z"/><path d="m434.1 661.8 16.2-2-1-8.7-25.2 3 5.5 38.9 25.4-3.2-1.1-8.8-16.8 2.1-.9-6.6 15.1-1.3-.8-8.8-15.5 1.4z"/><path d="m404.8 126.7-.5-30.1 12.2-.3 1 54.1-9.5-.1-21.9-30.6.8 31.1-12.3.3-.3-53.7 9.6-.4z"/><path d="m483.1 663.8-6.5-20.5 8.4-2.6 11.5 36.9-6.5 1.8-21.2-16.6 6.8 21.1-8.4 2.7-10.9-36.7 6.5-2.2z"/><path d="m282.8 650.9 9.6-20 8.1 3.9-17.2 36-6.2-3.2-4.4-27.5-9.7 20.7-8.2-3.8 17.5-35.5 6.5 2.9z"/><path d="m483.6 132.9c-.6 3.6-1.6 6.6-2.8 9.1-2 4.2-4.6 7.1-6.8 9.1-4.7 4-10.7 6.2-17.2 6.2-.7 0-1.5 0-2.2-.1-14.1-1.1-27.8-12.6-26.5-30.2 1.3-17.8 15-26 28-26.2 13.9-.2 24.9 8.2 26.1 19.9l-12.2 1.3c-.5-4.5-5.3-9.1-13.7-8.9-7.2.1-15.1 4-15.9 14.8-.8 10.3 7.3 16.4 15.2 17 5.9.5 10-1.9 12.6-5.5l-13.1-2.7 1.9-9.3 14.6 3z"/><path d="m338.6 665.2c-.4 2.6-1.2 4.9-2.1 6.8-1.5 3.1-3.4 5.3-5.1 6.7-3.5 3-8 4.6-12.7 4.6-.5 0-1.1 0-1.6-.1-10.4-.8-20.7-9.4-19.7-22.4 1-13.2 11.1-19.3 20.8-19.4 10.3-.1 18.5 6.1 19.4 14.8l-9.1.9c-.3-3.4-3.9-6.7-10.2-6.6-5.3.1-11.2 3-11.8 11-.6 7.6 5.4 12.2 11.3 12.6 4.4.3 7.4-1.4 9.3-4.1l-9.7-2 1.4-6.9 10.8 2.2z"/><path d="m533.1 638.4c1.3 2.3 2.2 4.5 2.6 6.5.8 3.4.7 6.2.3 8.4-.8 4.5-3.3 8.6-7 11.6-.4.3-.9.7-1.3 1-8.6 5.9-21.9 5.7-29.4-5.1-7.5-10.9-3.4-22 4-28.1 7.9-6.6 18.2-6.9 24.3-.6l-6.5 6.4c-2.4-2.4-7.3-2.7-12.1 1.2-4.1 3.4-6.8 9.4-2.3 16 4.3 6.3 11.8 6.1 16.7 2.7 3.6-2.5 4.9-5.8 4.7-9.1l-8.8 4.5-3.2-6.2 9.8-5.1z"/><path d="m513.5 175.2c-3.7 0-7.4-.8-10.8-2.3l-18.8-8.2 19.8-50.6 20.6 8.8c6.6 2.8 11.7 8 14.4 14.6s2.8 13.9.1 20.5c-2.8 6.9-8.1 12.2-14.9 15-3.5 1.5-7 2.2-10.4 2.2zm-14.7-16.7 8.5 3.7c3.9 1.7 8.1 1.7 12.1.1 3.9-1.6 6.9-4.6 8.5-8.5 3.1-7.8-.6-16.7-8.3-20l-9.5-4.1z"/><path d="m558.3 204.1c-4.3 0-8.6-1.3-12.3-4-4.5-3.3-7.5-8.2-8.4-13.7s.4-11.1 3.7-15.7l19.9-27.4 9.9 7.2-19.8 27.5c-1.4 1.9-1.9 4.2-1.6 6.5.4 2.3 1.6 4.3 3.5 5.7 3.8 2.8 9.2 2 12.1-1.8l21-27.5 9.8 7.4-21 27.5c-4.1 5.4-10.4 8.3-16.8 8.3z"/><path d="m542.6 611.3 23 31.2 6.7-5-8.4-11.4 13.8-10.2-5-6.7-13.8 10.2-4.8-6.5 13.9-10.7-5.2-6.6z"/><path d="m240.7 644.6c-11.4 0-20.6-9.2-20.6-20.6s9.2-20.6 20.6-20.6 20.6 9.2 20.6 20.6c0 11.3-9.2 20.6-20.6 20.6zm0-32.9c-6.7 0-12.2 5.5-12.2 12.2s5.5 12.2 12.2 12.2 12.2-5.5 12.2-12.2-5.4-12.2-12.2-12.2z"/><path d="m224.5 585.1-11.8-11.4-26.6 28.3 6.1 5.7 8.9-9.4 2.2 2-1.9 16 7.6 7.2 2-17.2c1.6.6 3.3.9 5.1.8 3.4-.1 6.6-1.6 8.9-4.2 4.7-5.2 4.5-13-.5-17.8zm-5.7 12.1c-.8.9-1.9 1.4-3.1 1.4s-2.3-.4-3.2-1.2l-5.7-5.3 6.2-6.6 5.7 5.5c1.7 1.7 1.8 4.4.1 6.2z"/></g></g></svg>