<svg height="377.22586" viewBox="0 0 130.175 185.20833" width="265.093173" xmlns="http://www.w3.org/2000/svg"><g transform="matrix(.26458333 0 0 .26458333 -40.74583249724 -13.2291669109)"><g><path d="m400 50h-246v397.3c0 170.2 206.6 280.4 246 302.7 39.4-22.3 246-132.5 246-302.7 0-182.8 0-397.3 0-397.3z" fill="#f9be00"/><path d="m400 726c-27.1-15.3-80.2-46.5-128.9-92.2-63.8-60-96.1-122.7-96.1-186.5v-376.3h450v376.4c0 63.8-32.3 126.5-96.1 186.4-48.7 45.7-101.8 76.8-128.9 92.2z" fill="#122357"/></g><g fill="#01a2d8"><path d="m531.1 225.1s71.3 43 64 164.3c0 0-11.3-94.7-62-114 0 0 22.7 20.7 25.3 51.3 0 0-18-56.7-104-52.7.1 0 59.4-17.9 76.7-48.9z"/><path d="m308.5 241.4s11.3-1.3 21-11c0 0-2 18.3-21 11z"/><path d="m221.2 248.2-15 14.8v-9.6c0-2.9 2.3-5.2 5.2-5.2z"/><path d="m245.6 302s-1.8 11.8 0 23.3c0 0-9.8-1.7-12.5-21.7z"/><path d="m266.3 300.4v18.6s-9.5-.7-11.2-18.2z"/><path d="m285.6 301-9.7-.7s.7 11.2 9.2 16.9z"/><path d="m277.1 342.5s-1.7 18.7 1 23.7l-11.8-2.7s.8-18.2 10.8-21z"/><path d="m295.1 348.4s.3 13.3 4.3 17l-13 .9c.1 0-1.6-13.6 8.7-17.9z"/><path d="m315.1 348.4s-1.7 9.7 1.3 13l-10 3.3c.1 0-.9-15.7 8.7-16.3z"/><path d="m462.1 281c-38.5.5-51-9-51-9 33 6 46.5-9 46.5-9-17.5 2.5-29.2-3-29.2-3 83.3-2.7 109.3-52.7 109.3-52.7-25.3 16-47 17-69.3 15.7-22.7-1.3-36-11-49.3-11.3s-25.3 8.3-25.3 8.3c11.3-16.7 23.3-16 31.7-14.7 8.3 1.3 20.3 9.3 44.3 11.7 30.1 2.9 48-4.3 48-4.3-28.7-8.3-39.7-16.3-39.7-16.3l16.7-1c-56.3-37.3-120.3-.3-120.3-.3 13.3-19 47.3-23.7 47.3-23.7-90-9.7-107 34.7-107 34.7h7.3c-19.7 16.3-34 17.7-38.7 19s-2.3 6-2.3 6l3.3 2.3-11.3 12.2c-33.5 0-45 0-48.5 3.5s-19.8 20.3-19.8 20.3c12.7 37.7 20.3 34 26.3 33 96-19 113 36.7 113 36.7-24.7 44-82 26.7-82 26.7-5.7 45.3 11.7 52.3 11.7 52.3l-.7-11c14 21.3 30.3 21.3 30.3 21.3-19.7-20-18-37.7-18-37.7 27-6.7 50.7 2.3 50.7 2.3l-13.3-14c29.7-1.3 35.7 24.3 35.7 24.3 54-4 60 72.3 60 72.3 46.7-74.7 7.7-121.7 7.7-121.7l12 9.3c-30.3-85.7-136-89.7-136-89.7 47.7-11.3 74 3.7 74 3.7-6.7-.7-13 3-13 3 96 10 102.5 109 102.5 109 20-51.2-2-73.8-2-73.8 38.5 3.5 59 53 59 53-5.5-45-22-53.5-22-53.5 7.5 1 27 13 27 13-7.1-16.9-27.1-47.4-65.6-46.9zm-6.6-92.9s-27.3-4.7-48.7 3.7c0-.1 22.7-16.4 48.7-3.7zm-236 90.3s4.3 11.7 21.7 13c0 0-22 9.3-21.7-13zm187.6 60h-4.7s20 27.3 18.3 44c0 0-15-49-62.7-77.7.1 0 28.8 4.3 49.1 33.7zm-16 63.4s-14.7-11.7-27.2-9.5c0 0-6.5-16.7-22.5-18 0 0 32-6.8 49.7 27.5zm-68.6-153.4c-14.7 2.7-17-5.7-37.7-3 0 0 2.7-5.7 8.3-7.7 5.7-2 17.7.3 24.7-4.7s23.3-19.3 24.7-22c0 .1 2.6 32.1-20 37.4zm79-18.7s6.3-7.3 14-6.7c7.7.7 20 8.3 45.3 7 0 0-5.3 15.7-31.7 17.7 0 0 19-11 20.3-12.4 0 0-16.3-.1-21.8-1.3-8.8-2.5-15.1-5.6-26.1-4.3z"/></g><g fill="#01a2d8"><path d="m313.2 480.5v28.5h28.8v-48.1c.1 0-7.3 11.7-28.8 19.6zm16.2 17.9h-3.7v-14.4c0-1 .8-1.8 1.8-1.8 1 0 1.8.8 1.8 1.8v14.4z"/><path d="m342.1 459.6s-15.8 16.6-30.7 18.8v9.8s-9.1-9.7-16.4-12.7c0 0 25.8-1.7 47.1-15.9z"/><path d="m320.3 459.3v9.6c3-1 5.9-2.2 8.6-3.5v-4.2c0-1.2 1-2.2 2.2-2.2s2.2 1 2.2 2.2v1.9c5.2-2.9 8.8-5.4 8.8-5.4v-12.1c-10.1 10.3-21.8 13.7-21.8 13.7z"/><path d="m342.1 443.1s-7.2 8.6-24.3 15.1v7s-6.8-8-13.8-9.8c0 .1 22-.9 38.1-12.3z"/><path d="m326.3 442.7v7.7c2-.6 4.1-1.6 6-2.7v-4.1c0-1.2.7-2.1 1.6-2.1s1.6 1 1.6 2.1v2.1c3.7-2.5 6.4-4.9 6.4-4.9v-10.6c-5.5 6-15.6 12.5-15.6 12.5z"/><path d="m342.1 428.1s-13.1 10.3-29.2 10.2c0 0 9.5 5 12 10v-6.8s7.6-3.7 17.2-13.4z"/><path d="m328.2 426.7v6.5c2.1-.4 4-.9 5.7-1.6v-3.5c0-.8.6-1.5 1.4-1.5s1.4.7 1.4 1.5v2.2c3.3-1.6 5.4-3.3 5.4-3.3v-10.5c-6.5 7.8-13.9 10.2-13.9 10.2z"/><path d="m342.1 414.7s-12.6 10.3-25 9.4c0 0 8 4.2 9.5 7.2v-5.3s8.4-2.6 15.5-11.3z"/><path d="m343.9 460.9v48.1h28.8v-28.5c-21.4-7.9-28.8-19.6-28.8-19.6zm12.7 23.1c0-1 .8-1.8 1.8-1.8 1 0 1.8.8 1.8 1.8v14.5h-3.7v-14.5z"/><path d="m343.9 459.6s15.8 16.6 30.7 18.8v9.8s9.1-9.7 16.4-12.7c0 0-25.8-1.7-47.1-15.9z"/><path d="m365.7 459.3v9.6c-3-1-5.9-2.2-8.6-3.5v-4.2c0-1.2-1-2.2-2.2-2.2s-2.2 1-2.2 2.2v1.9c-5.2-2.9-8.8-5.4-8.8-5.4v-12.1c10.1 10.3 21.8 13.7 21.8 13.7z"/><path d="m343.9 443.1s7.2 8.6 24.3 15.1v7s6.8-8 13.8-9.8c0 .1-22-.9-38.1-12.3z"/><path d="m359.7 442.7v7.7c-2-.6-4.1-1.6-6-2.7v-4.1c0-1.2-.7-2.1-1.6-2.1s-1.6 1-1.6 2.1v2.1c-3.7-2.5-6.4-4.9-6.4-4.9v-10.6c5.5 6 15.6 12.5 15.6 12.5z"/><path d="m343.9 428.1s13.1 10.3 29.2 10.2c0 0-9.5 5-12 10v-6.8s-7.6-3.7-17.2-13.4z"/><path d="m357.8 426.7v6.5c-2.1-.4-4-.9-5.7-1.6v-3.5c0-.8-.6-1.5-1.4-1.5s-1.4.7-1.4 1.5v2.2c-3.3-1.6-5.4-3.3-5.4-3.3v-10.5c6.5 7.8 13.9 10.2 13.9 10.2z"/><path d="m343.9 414.7s12.6 10.3 25 9.4c0 0-8 4.2-9.5 7.2v-5.3s-8.4-2.6-15.5-11.3z"/><path d="m343.6 414.7v-1.3s1.4-.9 1.4-3.8-1.5-4.3-1.5-4.3.4-.4.4-1.9c0-2.1-.7-2.8-.7-2.8s0-2.5 0-2.8c0-.4-.3-.5-.4-.5 0 0-.4.1-.4.5v2.8s-.7.7-.7 2.8c0 1.6.4 1.9.4 1.9s-1.5 1.4-1.5 4.3 1.4 3.8 1.4 3.8v1.3s.4-.1.8-.1c.5 0 .8.1.8.1z"/></g><g><path d="m592.4 428c-5.5 23.5-14 34.5-14 34.5-3.5-85-58.5-87-82-77.5s-23.2 42.2-7.3 49.7c15.8 7.5 22.8-9.2 22.8-9.2-19.5 11-23-7.5-15.5-17s31-9.5 34 21-28 54.5-28 54.5c.5-17-4-28.5-4-28.5-16 32-37.5 36-37.5 36 16-20.5 6-59 6-59-2 5.5-30 64.5-101.4 68.5s-88.9-45.3-88.9-45.3c-1.8 3.8 0 13.5 0 13.5-13.3-13-8-24.8-2.5-29s12.5-.8 12.3 5-10 3-10 3c3.3 7.3 9.5 7 15.3 4.3s8.5-13.8 0-21.3-27.9-7.9-41.3 4.8c-13.3 12.7-10 44-10 44-28.7-20.7-32.7-50-32.7-50-18 173.4 191.7 266.1 191.7 266.1 225.6-108.7 193-268.1 193-268.1zm-310.2 136.5s5.5 23.5 24 41.5c0 0-67.5-30-74.5-114 0 0 21 54.5 75.5 71.5.1 0-2.9 5.5-25 1zm-14.7-57h7.8s-13.5-15-12-29.5c0 0 15.5 40 58.5 53 0 0-26.6 6.5-54.3-23.5zm213.2-8.8s7.3-.7 16.3-7.7c0 0-5 19.3-29 28.2 0 0 12-11.5 12.7-20.5zm.3 41s34.7-14.7 51-54c0 0 .7 36.3-44.7 67 0 0-3.6-10.4-6.3-13zm10.3 67.3c1.3-9.7 3.7-15.5 1-33.5 0 0 73-31.5 62-143.6 0 .1 45.1 96.4-63 177.1z" fill="#01a2d8"/><path d="m399.3 506.8c-45 0-81.5 36.6-81.5 81.5 0 45 36.6 81.5 81.5 81.5 45 0 81.5-36.6 81.5-81.5s-36.6-81.5-81.5-81.5zm24.5 156 8.2-15-31.1-11.8-30.6 13.8 9.4 14.4c-17.6-4.6-32.9-15.1-43.4-29.3l16.8 2.9 1-33.1-22.2-24.9-10.9 13.8c-.1-1.7-.2-3.5-.2-5.2 0-16.9 5.4-32.6 14.6-45.4l2.4 16.8 31.9-9.1 16.7-28.7-16.5-6.3c9.1-3.7 19-5.7 29.4-5.7 8.3 0 16.2 1.3 23.7 3.7l-15.5 7.8 18.5 27.4 32.5 6.9 1.2-17.4c11.2 13.5 18 30.9 18.1 49.8l-12.1-12.6-20.4 26 3.5 33.2 16.8-4.4c-9.8 15.1-24.4 26.7-41.8 32.4z" fill="#fff"/><path d="m365.6 598.3 35.6 20.9 30.5-27.3-16.4-37.7-42 4.1z" fill="#fff"/><path d="m375.3 550.9c1.6 0 3.4 1.5 3.9 4.5.3 2.1 2.9 2.9 4.7 2.9s6.1 0 6.1 1.4c0 1.6-.5 1.4-.5 2.3s1.5 1.9 2.8 1.9c1.5 0 1.3-.4 2-.4s1.2 1.1 2.5 1.1c1 0 1-.2 1.3-.2s1.6.8 2.4.8 2.2-1 3-1 .7.6 2.1.6c.8 0 .9.4 1.1 1.2.1.8 1.7 1.2 1.7 2s.1 1.2.1 1.8.7 1.3 1.9 1.6 3.3.7 4.7 2.6c1.1 1.5 2.8 2.6 4 3.3s4.3 3.2 5.1 4.4 2.5 2 3.2 2.4c.5.3.3 1.5.2 1.9-.2.9-.1 1.5-.5 2-.6.8-2 2-2 4 0 1.6.2 1.7.2 2.2 0 .4-.5.8-1.1 1.2-.6.3-1.7 1.6-1.7 3.5s1.1 2.8 1.7 2.8 1.4.3 1.4 1.1-.3 1.5-.3 2.3c0 .7 1.5 2.3 4.1 2.5s2.7 1.1 3.4 2 2.1 2.7 3.9 3.2c1.7.5 2.1 1.1 2.6 2.3.5 1.3 1.6 2.3 2.5 3.7s2.3 4.4 2.3 5.6-.6 2.5-.6 3.5.3 1.1.3 2v3.4c0 1 .5 4.2-.2 5.7s-.4 2.9-2 2.9c-1.8 0-13.3-7.4-14.8-9.3-1.8-2.3-3.9-1.8-4.3-3.4-.3-1.2-1-2.5-2-3.1-3.1-2.3-5.2-3.5-6.4-4.6-1-.9-2.2-1.1-2.7-1.1s-3.6 1.6-4.9 1.6c-1.2 0-2.6 0-3.5 0s-.7-.5-1.1-.5c-.5 0-.7.5-1.1 1.3-.3.8-.7 2.2-1.4 2.2-.5 0-2.1-1.4-2.6-1.9-.6-.5-.9-1.5-1.1-2s-1-.3-1.5-.3-1 .3-1.5.3c-.6 0-2-.2-2-1.1s.4-1.8.2-3.3-3.6-9.2-4.2-10.5-1.8-2.2-3.5-2.7c-1.2-.4-4.8-3.3-5.9-4.2s-2.1-.9-3-.7-1.4-.9-1.9-1.5-3.6-3.7-5-4.4-3.5-1.5-3.5-4.3 4.1-11.3 4.1-13-.9-1.8-2.1-2.2c-1.3-.4-1-.6-1-1.5s1.2-1.5 1.2-4-.4-2.7.7-3.5 1.3-2.3 1.4-3.4c0-1 0-1.5 0-2.2s-.1-1.1-.9-1.6-1.1-1.4-1.1-1.9.6-1.3 1.6-2.1c.8-.6 1.7.1 2.5-.4 1-.2 3.7-1.7 5-1.7z" fill="#16235a"/><g fill="#f7b400"><path d="m380.2 600v-3.3l4.1-9.6v-.1c.7-1.7 1.1-3 1.1-3.9v-1.7c0-.8-.1-1.3-.2-1.6s-.4-.4-.7-.4-.6.1-.7.4-.2.8-.2 1.6v2.5h-3.3v-2.5c0-1.6.4-2.8 1.1-3.7.7-.8 1.8-1.3 3.3-1.3 1.3 0 2.4.4 3.2 1.2s1.2 1.8 1.2 3.1v1.3c0 .7-.1 1.4-.3 2.2s-.5 1.6-.8 2.4l-4.3 10h5v3.1h-8.5z"/><path d="m391 582c0-1.9.3-3.3 1-4.1.7-.9 1.8-1.3 3.3-1.3s2.6.4 3.3 1.3 1 2.2 1 4.2v12.9c0 1.9-.3 3.3-1 4.1-.7.9-1.8 1.3-3.3 1.3s-2.6-.4-3.3-1.3-1-2.2-1-4.1zm3.5-.9v14.5c0 .7.1 1.1.2 1.3s.3.3.6.3.5-.1.6-.3.2-.7.2-1.3v-14.5c0-.7-.1-1.1-.2-1.3s-.3-.3-.6-.3-.5.1-.6.3c-.2.2-.2.7-.2 1.3z"/><path d="m404.1 600v-19c-.4.5-.7 1-1.1 1.5s-.8.9-1.3 1.3v-4c.6-.6 1.2-1.1 1.7-1.6s.9-.9 1.2-1.3h2.9v23.1z"/><path d="m418.4 594.9c0 1.9-.3 3.3-1 4.1-.7.9-1.8 1.3-3.3 1.3s-2.6-.4-3.3-1.3c-.7-.8-1-2.2-1-4.1v-12.9c0-1.9.3-3.3 1-4.1.7-.9 1.8-1.3 3.3-1.3 1.3 0 2.4.4 3.1 1.2.8.8 1.2 1.8 1.2 3.2v2h-3.4v-1.4c0-.8-.1-1.3-.2-1.5s-.4-.4-.7-.4-.5.1-.7.4c-.1.3-.2.8-.2 1.5v4.1c.4-.3.7-.5 1.1-.7.4-.1.7-.2 1.1-.2.9 0 1.6.3 2.1 1s.7 1.6.7 2.9v6.2zm-3.5.7v-6.4c0-.7-.1-1.2-.2-1.4s-.3-.4-.6-.4-.5.1-.6.4c-.1.2-.2.7-.2 1.4v6.4c0 .7.1 1.1.2 1.4.1.2.3.4.6.4s.5-.1.6-.3c.1-.4.2-.8.2-1.5z"/></g></g><g fill="#fff"><g><path d="m247.2 81.8c-5.2 2.4-6.3 3.4-7.4 6.5-.7 2.1-.9 3.4-.9 8.6v33.1h-7.1l-19.9-34.4v20.4c0 8 .9 10.5 4.3 12.7l.3.2c-2.5-.8-4-2.2-4.9-4.8-.8-2-.9-3.2-.9-9.8v-20.5l-2.2-3.9v21.7c0 8.7.3 11.1 1.6 13.5 1.4 2.3 3.4 3.6 7 4.6l3.6 3.5h-22.6l-.7-1h20.9l-2.2-2.1h-19.5c6.8-2.2 8.5-4.9 8.5-14v-30.1l-5.6-4.2h21.2l-5.9 3.6 20.4 35.4v-4.5l-17.4-30.3 5.9-3.5.8.7-5.2 3.2 16 28.1v-17.7c0-8.1 0-8.1-.9-9.9-1-2.2-2.7-3.5-6.2-5h19zm.7 4c-4.2.8-5.5 2.8-5.5 8.6v38.7h-9l-.5-1h8.4v-37.3c0-7.1 1.6-9.3 7.4-10.1z"/><path d="m286 86.3 6.8 16.4 1.7-.8-6.1-14.9 4.4-4.5 1.1.4-4.2 4.5 5.9 14 .6-.4c2.7-2.1 2.7-2.1 3-2.4.5 2.2 2.2 6.1 3.4 7.6h-1.6c-2.8 0-4.7.4-6 1.2l7.7 18.4 6.3 4.4h-21.2l5.8-4.4-4.6-10.9c-2.2 1.8-6.1 6.3-7.1 7.9l-.9-.2c2.1-3 4.2-5.4 7.7-8.6l-.8-1.7c-2.4 1.7-6.7 6.1-8.4 8.7-2.7-3.9-3.2-4.5-6.7-8.7-2.2 4.4-3.3 7.8-3.3 10.5 0 3.3.6 4.3 6.2 10.5h-22.7l-.9-1h21.4c-4.6-5-5.3-6.2-5.3-9.4 0-2.7 1-6.1 3.5-11.5l-1.9-1.8c-2 4.6-3.9 10.5-3.9 12.5 0 2.8.8 4.1 4.2 7.3.2.2.4.5.7.7h-21c7.4-3 12.3-9.6 16.6-22.5-.7-.8-4.2-1.8-6.4-2 .9-1.2 3.1-5.1 3.5-6.5.3.2.5.4.7.6l1.9 1.5c.7.6 1.5 1.2 2.3 1.7l.8-1.6c-.8-.6-1.5-1.2-2.3-1.8-.4-.3-1-.8-2.1-1.5l.7-.8c.9.5 3.3 2.2 4.2 3.1l5.8-14.1-4.5-4.3h19.4zm-14.6 19.1c2.8 2.6 4.6 4.5 7.4 8.1l.4.5.4-.5.6-.6.4-.5c-1.7-2.4-4.7-5.7-6.8-7.3l5.3-12.7-1.2-2.9zm4-.6c.2.2.9.9 2.2 2.2 1.4 1.4 1.8 1.9 4 4.8 1-1.2 2.6-2.7 4.2-4l-5.8-13.8zm27.4-4.5c.5 2.1 2.2 5.5 4.6 9.3-2.3-.2-6.7-.5-7.8-.5h-.9l7 16.7 9.4 7.4h-24.3l-.9-1h22.3l-7.5-6-7.5-17.7c1.2-.2 1.6-.3 3.2-.3 1.8 0 2.9.1 5.1.3-2.3-3.8-3.4-6-4-8.8z"/><path d="m365.3 81.8c-5.2 2.4-6.3 3.4-7.4 6.5-.7 2.1-.9 3.4-.9 8.6v33.1h-7.1l-19.9-34.4v20.4c0 8 .9 10.5 4.3 12.7l.3.2c-2.5-.8-4-2.2-4.9-4.8-.8-2-.9-3.2-.9-9.8v-20.5l-2.2-3.9v21.7c0 8.7.3 11.1 1.6 13.5 1.4 2.3 3.4 3.6 7 4.6l3.6 3.5h-22.6l-.7-1h20.9l-2.2-2.1h-19.5c6.8-2.2 8.5-4.9 8.5-14v-30.1l-5.6-4.2h21.2l-5.9 3.6 20.4 35.4v-4.5l-17.4-30.3 5.9-3.5.8.7-5.2 3.2 16 28.1v-17.7c0-8.1 0-8.1-.9-9.9-1-2.2-2.7-3.5-6.2-5h19zm.7 4c-4.2.8-5.5 2.8-5.5 8.6v38.7h-9l-.5-1h8.4v-37.3c0-7.1 1.6-9.3 7.4-10.1z"/><path d="m435.1 87.2c-.9 1.5-2 3.8-2.8 6.2l-.4-.3c-1.7-6.2-4.1-8.1-10.4-8.1-1.5 0-2.4 0-4.3.2v40.8l4.9 4.1h-19.1l5.9-4.4v-37.4c-1.2-.1-2-.1-2.8-.1-6 0-8.1 1.7-8.5 6.9h-1.1c.3-2.6.7-4 1.6-5.2 1.2-1.7 4-2.8 7.5-2.8l2.9.1h.4v-1.8c-1.6-.2-2.6-.2-4-.2-5.2 0-7.5.9-9 3.5-.9 1.5-1.4 3.1-1.5 5.1h-.5c-1.6-4.5-2.5-6.5-5.9-12.1h50.6zm-15.9.1c1.1-.1 1.7-.1 2.3-.1 5.3 0 7.1.6 8.4 2.8-2.4-1.4-4.4-1.8-7.5-1.8-.9 0-1.4 0-2.1.2l.2 37.7 6.6 7.1h-21.4l-.9-1h20.1l-5.6-5.8v-39.1zm22-3.1c-2.3 2.5-3.6 4.9-6.3 11.4l-.9-.8c2.3-5.8 4.5-9.6 6.4-11.3z"/><path d="m481.2 87.4c4.3 4.5 6.8 11.7 6.8 19.4 0 14.5-8.7 23.9-22.1 23.9-5.9 0-11.6-2.1-15.8-5.7-5.3-4.5-7.8-10.8-7.8-18.9 0-15.1 9-24.7 23.5-24.7 5.9 0 11.9 2.3 15.4 6zm-29.8 19.5c0 6.3.9 11.1 2.9 14.7 2 3.5 6.3 5.9 10.8 5.9 8.9 0 13.5-7.3 13.5-21.2 0-7.5-.8-12.2-2.7-15.8-1.9-3.7-5.9-5.9-10.8-5.9-8.9 0-13.7 7.9-13.7 22.3zm27.6-23.7c8 3.5 13 12.5 13 23.4 0 8-2.7 15.2-7.3 20.1-4 4.2-10.8 6.9-17.3 6.9-5.2 0-9.3-1.3-13.7-4.3v-.2c3.4 2.1 8.2 3.4 13.1 3.4 14.2 0 24.1-10.5 24.1-25.7 0-10.5-4.4-19.1-11.9-23.1zm-17.1 43.3c-5.6-3.6-7.8-8.9-7.8-18.8 0-14 4-20.8 12.2-20.8 3.5 0 6.6 1.2 8.3 3.4-3.7-1.9-5.3-2.4-7.8-2.4-7.7 0-11.4 6.4-11.4 19.7 0 9.1 2.3 15.5 6.9 18.4z"/><path d="m544.3 81.8c-5.2 2.4-6.3 3.4-7.4 6.5-.7 2.1-.9 3.4-.9 8.6v33.1h-7.1l-19.9-34.4v20.4c0 8 .9 10.5 4.3 12.7l.3.2c-2.5-.8-4-2.2-4.9-4.8-.8-2-.9-3.2-.9-9.8v-20.5l-2.2-3.9v21.7c0 8.7.3 11.1 1.6 13.5 1.4 2.3 3.4 3.6 7 4.6l3.6 3.5h-22.6l-.7-1h20.9l-2.2-2.1h-19.5c6.8-2.2 8.5-4.9 8.5-14v-30.1l-5.6-4.2h21.2l-5.9 3.6 20.4 35.4v-4.5l-17.4-30.3 5.9-3.5.8.7-5.2 3.2 16 28.1v-17.7c0-8.1 0-8.1-.9-9.9-1-2.2-2.7-3.5-6.2-5h19zm.7 4c-4.2.8-5.5 2.8-5.5 8.6v38.7h-9l-.5-1h8.4v-37.3c0-7.1 1.6-9.3 7.4-10.1z"/><path d="m588.3 97c-1.1-7.9-5.7-12.1-13.3-12.1-4.2 0-8.2 1.5-10.9 4.3-3.8 3.7-5.5 9.1-5.5 16.8 0 14.5 6.4 21.4 20 21.4h6.7v-19.4h-10.6c-4.6 0-6-.3-7.8-1.8v-.9c2 1.3 3.4 1.6 7.9 1.6h10.5v-2h-11.7c-3.1 0-3.3 0-4.7-.4-2.2-.5-3.4-1.9-3.4-3.7 0-2.1 1.6-3.8 3.5-3.8 1.6 0 2.8 1.2 2.8 2.5 0 1.2-.6 1.7-2.4 2.1-.3.1-.5.2-.5.4 0 .4.3.5 2.8.5h27.7l-5.8 5.1v18.4l5.4 4.2h-21.5c-10.4 0-10.4 0-14.5-1.8-8.9-3.9-14.1-12.1-14.1-22 0-6.6 2.4-13.1 6.5-17.3 4.3-4.4 11.4-7.3 17.9-7.3 2.9 0 6.4.5 10.1 1.4 5.6 1.4 5.7 1.4 7.5 1.4 1.7 0 3.4-.4 5.3-1.2zm-3.1-5.7c-4.5-2.8-6.4-3.5-9.5-3.5-3.4 0-6.8 1.4-9 3.7-2.9 3-4.1 7.3-4.1 14.8 0 10.2 1.8 14.5 7.8 18.9v.5c-6.5-3.5-9.1-9.4-9.1-20.4 0-11.6 5.3-18.5 14.3-18.5 4 0 7 1.4 9.6 4.4zm11.6 17.1v17.6l7 7.1c-8.4-.1-14.8-.1-19.5-.1-4.2 0-6.4 0-10.7.1h-1.9c-3.1 0-4.7-.5-7.2-2.1h.9c2.4.9 4 1.1 9.9 1.1h26.2l-5.8-5.8v-18.3l4.7-4.3.7.8zm-5.3-10.3-1-.4 7.2-12.7.9.5z"/></g><g><path d="m198.2 145.1c.3-2.5.3-2.9.4-5.5 1.6.1 4.2.1 7.7.1 3.3 0 5.6-.1 8-.1v1.2c-2.4 3.1-6 8.3-8.7 12.1-1.1 1.5-2.4 3.4-3.1 4.5h6.3c1.1 0 2.2 0 2.8-.5 1-.9 1.6-2.5 1.8-3.3h1.3c-.1.5-.1.7-.6 2.7-.2.8-.4 2-.4 2.4 0 .1-.1.5-.1.6-.6 0-2.3-.1-4-.1s-3.3-.1-3.8-.1h-.5c-2.2 0-5.7.1-8.3.1v-1.1c.5-.8.7-.9 1.8-2.5 1.2-1.7 1.3-1.9 2.6-3.6 2.2-3.1 4.4-6.1 6.5-9.3.1-.1.7-1 .8-1.2h-5.8c-1.8 0-2.4 0-3.2 2.7-.1.3-.3.8-.3 1h-1.2z"/><path d="m216.6 139.7c1 .1 2.5.1 5.4.1 2.7 0 4.5-.1 5.4-.1v1c-.1 0-.4.1-.5.1-2.7.4-2.7.5-2.7 3v4.5c.8 0 1.9.1 4.3.1 2.1 0 2.9 0 3.6-.1 0-1.2 0-5.3 0-5.7-.1-1.2-.2-1.4-2.6-1.8-.2 0-.5-.1-.6-.1v-1c1 .1 2.7.1 5.1.1 2.2 0 3.9-.1 5.7-.1v1c-.1 0-.4.1-.5.1-2.3.5-2.4.5-2.5 1.2-.1.4-.1.9-.1 1.3 0 1.2 0 1.6-.1 5.8 0 1.1.1 6 .1 7 0 1.4 0 1.6 2.6 1.9.2 0 .5.1.6.1v1c-.6 0-1.3-.1-2.2-.1s-1.9-.1-3.2-.1c-2.3 0-3.8.1-5.4.1v-1c.1 0 .4-.1.6-.1 2.5-.5 2.6-.5 2.6-2.1v-6.1c-.6 0-3.7-.1-3.9-.1l-4 .1c0 3.8 0 5.6.1 6.7 0 .8.2 1.1 2.5 1.4.2 0 .5.1.6.1v1c-.6 0-1.4-.1-2.3-.1s-2.1-.1-3.4-.1c-2.6 0-4.1.1-5.1.1v-1c.1 0 .4-.1.6-.1 2.6-.5 2.6-.6 2.6-2.2v-5.4c0-1.3 0-7.9-.1-8.6-.1-.8-.4-.9-2.5-1.2-.2 0-.5-.1-.5-.1v-.5z"/><path d="m252.1 140.6c-.1 0-.4.1-.6.1-2.4.3-2.7.5-2.7 1.8v13.2c0 1.7 0 1.9 2.7 2.3.2 0 .5.1.6.1v1c-.6 0-1.3-.1-2.1-.1-.9 0-1.9-.1-3-.1-2.1 0-3.9.1-5.6.1v-1l.4-.1c2.5-.4 2.7-.5 2.8-1.9 0-.8 0-2.2 0-3.1v-10.3c0-1.5-.1-1.6-2.5-2-.2 0-.5-.1-.6-.1v-1c1.4.1 3.6.1 5.5.1 2 0 3.7-.1 5.3-.1v1.1z"/><path d="m253.6 139.7c.8 0 4.4.1 5.1.1 1.4 0 4-.1 5.1-.1v1c-.1 0-.3.1-.5.1-.7.2-1.6.4-1.6.8 0 .1.1.4.2.6.5.8 1.2 2 1.8 3.1.3.6 1.1 1.9 1.8 3 0 .1.3.5.4.6l2.3-4.1c.3-.5 1.8-3.2 1.8-3.4 0-.3-.4-.5-1.7-.7-.1 0-.4-.1-.4-.1v-1c2.9.1 3.2.1 3.9.1.9 0 2.3-.1 3.7-.1v1c-2.3.5-2.8.7-3.8 2.2-.3.5-1.4 2.2-4.6 7.3-.1.1-.4.5-.4.6v4.4c0 1.3 0 1.5.1 1.8.1.7.6.8 2.7 1.2.1 0 .4.1.5.1v1c-.9 0-1.9-.1-2.8-.1s-1.8-.1-2.5-.1c-1 0-4.2.1-5.5.1v-1c.1 0 .5-.1.7-.1 2.5-.4 2.5-.4 2.5-3v-4c-.1-.1-2.4-3.7-2.8-4.3-.8-1.3-1.6-2.5-2.5-3.8-1-1.5-1.5-1.8-3.5-2.3z"/><path d="m276.8 139.7c2 .1 3.7.1 5.5.1 1.9 0 3.9-.1 5.2-.1v1c-1.5.3-2.7.5-3 .8s-.3 1.4-.3 2v7.1c0 1.1 0 3 .4 4 .8 2.1 2.8 2.6 4.7 2.6 5.3 0 5.3-3.5 5.3-8.3 0-.9-.1-6.5-.3-7.1-.1-.4-.5-.5-2.2-.8-.2 0-.5-.1-.6-.1v-1c1.2.1 3 .1 4.2.1 1.5 0 2.8-.1 3.9-.1v1c-.1 0-.5.1-.7.1-2.3.4-2.3.6-2.3 2.2-.1 3.1-.1 3.6-.1 8.3 0 3.8-1 5.2-1.9 6.1-1.2 1.2-3 2.2-6.5 2.2-8.3 0-8.4-4.8-8.4-7.4v-8.5c0-.6 0-1.6-.2-2-.2-.5-.6-.6-2.2-.8-.2-.1-.6-.1-.7-.1v-1.3z"/><path d="m301.2 139.7c.7.1 1.9.1 3.6.1s2.9-.1 4-.1c1.5 1.9 3.3 4 5 6l4.7 5.6c.1.1.6.8.8.9 0-4.9-.1-9.5-.2-10.3s-.9-.9-2.4-1.1c-.1 0-.5-.1-.6-.1v-1c.9.1 2.2.1 4 .1 1.7 0 3-.1 4.2-.1v1c-.1 0-.4.1-.6.1-1.8.3-2.3.4-2.4 1.3-.1 1.1-.2 8.3-.2 8.4 0 3 .1 5.9.1 8.8-.6.2-.7.2-1.3.5-.8-1-1-1.2-2.8-3.3-1.2-1.5-2.2-2.8-4.4-5.3-1.1-1.2-5.7-6.6-6.5-7.7l-.1.1v5.8c0 1 .1 7.3.2 7.9.1.5.6.6 2.4.9.2.1.5.1.6.1v1c-.4 0-1.1-.1-1.7-.1-.7 0-1.4-.1-2.2-.1-1.3 0-2.8.1-4.3.1v-1c.1 0 .4-.1.7-.1 2.2-.3 2.3-.4 2.4-2 .1-5.8.2-7.3.2-8.8 0-.5 0-3 0-3.6 0-2.3-.1-2.4-2.7-2.9-.2 0-.6-.1-.7-.1v-1z"/><path d="m334.5 139.7c1.6 0 4.7.1 7.1.1 3.4 0 7.1-.1 10.3-.1.1 2.8.2 4.1.4 5.4h-1.2c0-.1-.1-.3-.1-.4-1-3.2-1.3-3.2-3.3-3.2h-5.5v6.7h2.5c2.3 0 2.5 0 3.1-2.9h1.2c-.1.8-.2 2.1-.2 4 0 1.8.1 2.5.2 3.4h-1.2l-.2-.7c-.5-2.3-.5-2.3-2.9-2.3h-2.6v6.2c0 1.7 0 1.9 2.9 2.2.2 0 .6.1.7.1v1c-.7 0-1.6-.1-2.6-.1s-2.1-.1-3.3-.1c-2.4 0-3.8.1-5.3.1v-1c.1 0 .4-.1.6-.1 2.5-.4 2.5-.6 2.6-2 0-2.5.1-12.1 0-13.7 0-1.2-.2-1.2-2.6-1.6-.2 0-.5-.1-.6-.1z"/><path d="m366.1 139.2c7.5 0 10.2 4.8 10.2 9.5 0 4.4-2.4 10.8-11 10.8-7 0-10.3-4-10.3-9.9 0-5.6 3.8-10.4 11.1-10.4zm-.2 18.9c4.3 0 5.5-3.8 5.5-8.4 0-4.7-1.2-9-5.7-9-5.2 0-5.7 5.7-5.7 8.2 0 4.5 1.1 9.2 5.9 9.2z"/><path d="m391.1 139.2c7.5 0 10.2 4.8 10.2 9.5 0 4.4-2.4 10.8-11 10.8-7 0-10.3-4-10.3-9.9 0-5.6 3.8-10.4 11.1-10.4zm-.2 18.9c4.3 0 5.5-3.8 5.5-8.4 0-4.7-1.2-9-5.7-9-5.2 0-5.7 5.7-5.7 8.2 0 4.5 1.1 9.2 5.9 9.2z"/><path d="m421.2 145.4c-.1-.1-.2-.5-.3-.8-.2-.7-.8-2.4-1.2-2.8-.3-.3-.5-.4-2.9-.4h-1.4v12.9c0 .6 0 2.7.3 3 .2.2.3.4 2.3.7.2 0 .5.1.6.1v1c-1.3-.1-2.4-.1-3.3-.1s-1.6 0-2.2 0c-1.7 0-3.6.1-5.2.1v-1c3.1-.5 3.2-.5 3.2-2v-2-12.7h-2.4c-1.8 0-2.2 0-3.1 3-.1.3-.2.8-.3.9h-1.3c.4-2.8.4-3 .4-5.8 4.9.1 8.1.1 8.6.1 2.7 0 6.5 0 9-.1 0 2.7.3 4.8.4 5.8h-1.2z"/><path d="m424.4 139.7c2.5.1 4.9.1 5.9.1.9 0 2.3 0 3-.1 2.5-.1 4.4-.1 5.8.6s2.2 2 2.2 3.6c0 3.4-3.3 4.5-4.4 4.8v.1c1.4.1 5.3.3 5.3 4.4 0 1.9-1.1 6-8.8 6-.8 0-1.7-.1-2.1-.1-.6 0-1.6-.1-2.2-.1s-3.7.1-4.7.2v-1c.1 0 .4-.1.6-.1 2.5-.5 2.6-.5 2.7-1.8 0-.8 0-2.6 0-3.4v-3.6c0-.8 0-6.5-.2-7.3-.1-.6-.4-.7-.7-.8-.1 0-1.6-.3-2.4-.5zm7.5 8.5c1.9 0 5.2.1 5.2-3.8 0-2.1-1.1-3.3-3.4-3.3-.7 0-1.2.1-1.7.1v7zm0 9.2c.5.1 1 .2 1.8.2 1.8 0 4-.6 4-4.2 0-3.9-2.8-3.8-5.7-3.8v7.8z"/><path d="m456.6 158.2c.1 0 .3 0 .4-.1 1.1-.2 1.9-.3 1.9-1 0-.3-1-2.7-1.3-3.2-.1-.2-.3-.6-.3-.7-.7 0-2 0-3.4 0-1.1 0-2.3 0-3.7 0 0 .1-.2.5-.3.6-.2.5-1.3 3-1.3 3.4 0 .6.4.7 2 .9l.3.1v1c-.3 0-.8-.1-1.3-.1-.6 0-1.3-.1-2.1-.1-1.8 0-2.9.1-3.6.1v-1c1.7-.3 2.1-.6 2.6-1.7 2.2-4.2 4.4-9.1 6.2-13 .1-.2.3-.6.5-1.2l1.4-3h1.1c1.3 3.2 2.8 6.4 4.3 9.5 2.6 5.6 3 6.3 3.7 7.7.6 1.1 1 1.3 2.2 1.6l.7.2v1c-.5 0-1.1-.1-1.8-.1-.8 0-1.7-.1-2.8-.1-2.2 0-3.7.1-5.4.1zm-2.7-13-2.9 6.5h5.8z"/><path d="m468.1 139.7c1.3.1 3.6.1 5.7.1s3.9-.1 5.5-.1v1l-.7.1c-.5.1-2.1.3-2.4.4-.5.2-.5.7-.5 1.2v3.5 11.5h5.2c2.2 0 2.5-.1 4.8-3.8h1.3c-.6 1.6-1.4 4.1-1.9 5.6-2-.1-4.1-.1-5.8-.1-1.8 0-3.3 0-4.3 0-3.3 0-5.4.1-6.9.1v-1c.1 0 .4-.1.6-.1 2.4-.4 2.5-.5 2.6-1.5v-3.5c0-1 0-10.3-.1-10.9-.1-.9-.3-1-2.3-1.4-.3 0-.7-.1-.8-.1z"/><path d="m488.8 139.7c1.3.1 3.6.1 5.7.1 2 0 3.9-.1 5.5-.1v1l-.7.1c-.5.1-2.1.3-2.4.4-.5.2-.5.7-.5 1.2v3.5 11.5h5.2c2.2 0 2.5-.1 4.8-3.8h1.3c-.6 1.6-1.4 4.1-1.9 5.6-2-.1-4.1-.1-5.8-.1-1.8 0-3.3 0-4.3 0-3.3 0-5.4.1-6.9.1v-1c.1 0 .4-.1.6-.1 2.4-.4 2.5-.5 2.6-1.5v-3.5c0-1 0-10.3-.1-10.9-.1-.9-.3-1-2.3-1.4-.3 0-.7-.1-.8-.1z"/><path d="m538.6 156.7c-2.8 1.8-5.4 2.9-9 2.9-7.4 0-10.4-4.8-10.4-9.8 0-4.9 2.9-10.6 11.7-10.6 3 0 5.2.6 7.5 1.3-.1.5-.1.9-.1 1.8 0 1.7.1 3 .2 4.1h-1.5l-.2-.6c-.5-1.9-.8-2.6-1.4-3.3-.8-.8-2.1-1.6-4.4-1.6-6.1 0-6.9 5.4-6.9 8 0 4.8 2.4 8.3 7.6 8.3 2.3 0 4.1-.6 6.1-1.7z"/><path d="m541.6 139.7c1.3.1 3.6.1 5.7.1s3.9-.1 5.5-.1v1l-.7.1c-.5.1-2.1.3-2.4.4-.5.2-.5.7-.5 1.2v3.5 11.5h5.2c2.2 0 2.5-.1 4.8-3.8h1.3c-.6 1.6-1.4 4.1-1.9 5.6-2-.1-4.1-.1-5.8-.1-1.8 0-3.3 0-4.3 0-3.3 0-5.4.1-6.9.1v-1c.1 0 .4-.1.6-.1 2.4-.4 2.5-.5 2.6-1.5v-3.5c0-1 0-10.3-.1-10.9-.1-.9-.3-1-2.3-1.4-.3 0-.7-.1-.8-.1z"/><path d="m561.3 139.7c2 .1 3.7.1 5.5.1 1.9 0 3.9-.1 5.2-.1v1c-1.5.3-2.7.5-3 .8s-.3 1.4-.3 2v7.1c0 1.1 0 3 .4 4 .8 2.1 2.8 2.6 4.7 2.6 5.3 0 5.3-3.5 5.3-8.3 0-.9-.1-6.5-.3-7.1-.1-.4-.5-.5-2.2-.8-.2 0-.5-.1-.6-.1v-1c1.2.1 3 .1 4.2.1 1.5 0 2.8-.1 3.9-.1v1c-.1 0-.5.1-.7.1-2.3.4-2.3.6-2.3 2.2-.1 3.1-.1 3.6-.1 8.3 0 3.8-1 5.2-1.9 6.1-1.2 1.2-3 2.2-6.5 2.2-8.3 0-8.4-4.8-8.4-7.4v-8.5c0-.6 0-1.6-.2-2-.2-.5-.6-.6-2.2-.8-.2-.1-.6-.1-.7-.1v-1.3z"/><path d="m585.7 139.7c2.5.1 4.9.1 5.9.1.9 0 2.3 0 3-.1 2.5-.1 4.4-.1 5.8.6s2.2 2 2.2 3.6c0 3.4-3.3 4.5-4.4 4.8v.1c1.4.1 5.3.3 5.3 4.4 0 1.9-1.1 6-8.8 6-.8 0-1.7-.1-2.1-.1-.6 0-1.6-.1-2.2-.1s-3.7.1-4.7.2v-1c.1 0 .4-.1.6-.1 2.5-.5 2.6-.5 2.7-1.8 0-.8 0-2.6 0-3.4v-3.6c0-.8 0-6.5-.2-7.3-.1-.6-.4-.7-.7-.8-.1 0-1.6-.3-2.4-.5zm7.5 8.5c1.9 0 5.2.1 5.2-3.8 0-2.1-1.1-3.3-3.4-3.3-.7 0-1.2.1-1.7.1v7zm0 9.2c.5.1 1 .2 1.8.2 1.8 0 4-.6 4-4.2 0-3.9-2.8-3.8-5.7-3.8v7.8z"/></g></g></g></svg>