<svg xmlns="http://www.w3.org/2000/svg" xmlns:svg="http://www.w3.org/2000/svg" width="272.29186022144904" height="367.2529906647675" viewBox="0 0 137.43054 185.20833" version="1.1" id="svg1" xml:space="preserve"><defs id="defs1"/><g id="layer1" transform="translate(-34.829397,-54.839669)"><g id="g1" transform="matrix(0.26458333,0,0,0.26458333,-10.395354,12.500081)"><g id="g40" transform="translate(30.639496,110.02364)"><g id="g4"><path d="M 395.3195,747.3465 C 390.6081,744.676 279.7447,681.8324 262.007,671.4147 l -0.4905,-0.2881 C 246.9514,662.5745 216.6438,644.7796 190.062,613.6432 157.0346,574.9581 140.2887,528.3551 140.2887,475.1288 V 80.3307 C 140.2887,63.6065 153.8952,50 170.6194,50 h 458.7611 c 16.7242,0 30.3307,13.6065 30.3307,30.3307 v 394.7981 c 0,53.2263 -16.7458,99.8293 -49.7733,138.5144 -26.5818,31.1364 -56.8894,48.9313 -71.4545,57.4834 l -0.4905,0.2881 c -17.7377,10.4177 -128.6011,73.2613 -133.3125,75.9318 l -4.6805,2.6535 -4.6805,-2.6535 z" style="fill:#ffffff" id="path2"/><path d="M 629.3806,59.4924 H 170.6194 c -11.5086,0 -20.8382,9.3295 -20.8382,20.8382 v 394.7982 c 0,120.0742 88.8376,171.5418 117.0329,188.1009 17.8794,10.5006 133.186,75.8588 133.186,75.8588 0,0 115.3065,-65.3582 133.186,-75.8588 28.1954,-16.5591 117.0328,-68.0267 117.0328,-188.1009 V 80.3306 c 0,-11.5087 -9.3295,-20.8382 -20.8382,-20.8382 z" style="fill:#0e4d8f" id="path3"/><path d="M 400,719.993 C 373.3463,704.8763 290.0165,657.5927 275.2273,648.9062 l -0.4944,-0.2897 C 261.3968,640.7859 233.6462,624.4919 209.9148,596.695 181.0356,562.8673 166.3924,521.9667 166.3924,475.1289 V 171.4531 h 467.2151 v 303.6757 c 0,46.8378 -14.6432,87.7384 -43.5224,121.5661 -23.7314,27.797 -51.482,44.0909 -64.8181,51.9215 l -0.4936,0.2889 c -14.7899,8.6873 -98.1198,55.9709 -124.7735,71.0876 z" style="fill:#ffffff" id="path4"/><rect x="166.3924" y="149.30141" width="467.21509" height="22.151699" style="fill:#e42413" id="rect4"/></g><g id="g27"><g id="g20"><g id="g14"><path d="m 451.6885,487.3218 c -0.0334,-0.6228 -0.0788,-1.2302 -0.1189,-1.8444 -0.2754,-6.0956 -1.0519,-12.0599 -2.2872,-17.8549 C 437.8105,409.845 390.7713,391.6469 341.1064,313.1009 286.2076,226.2773 332.1555,194.0541 332.1555,194.0541 H 233.3962 V 490.486 c 0,60.2797 48.8664,109.1462 109.1462,109.1462 60.2798,0 109.1462,-48.8664 109.1462,-109.1462 0,-1.0236 -0.0168,-2.0431 -0.0449,-3.0599 l 0.0449,-0.1041 z" style="fill:#0e4d8f" id="path5"/><path d="m 563.6226,467.5137 c -0.0474,-0.1661 -0.4667,-1.5979 -1.0837,-4.1529 0.3955,1.3764 0.7593,2.7607 1.0837,4.1529 z" style="fill:none;stroke:#ec4afb;stroke-width:0.5px;stroke-miterlimit:10" id="path6"/><path d="m 563.6305,467.5295 c 1.9064,7.9735 2.9189,16.2951 2.9189,24.8539 0,58.8045 -47.6669,106.4714 -106.4635,106.4714 -5.4818,0 -10.8687,-0.4113 -16.1289,-1.2102 v -0.008 c 56.4006,-23.5427 76.6893,-78.4415 80.5654,-161.6134 0.4304,-9.2363 2.0092,-17.7584 3.4173,-25.6845 12.5378,-70.8991 44.3605,-92.5415 44.9142,-92.9053 -25.5579,69.4437 -14.2384,129.585 -10.3466,145.8009 0.008,0.0475 0.0238,0.087 0.0317,0.1266 0.617,2.555 1.0363,3.9867 1.0837,4.1529 0.008,0.008 0.008,0.0158 0.008,0.0158 z" style="fill:#0e4d8f" id="path7"/><path d="m 332.6776,196.8139 c 0,0 -10.4336,33.4355 5.0361,62.3579 14.2829,26.7035 39.7184,35.8036 67.4661,44.7544 27.7477,8.9508 50.8709,20.4379 60.0455,27.5986 0,0 -29.6927,-13.8739 -51.4331,-17.0067 -21.7404,-3.1328 -42.1037,-6.2656 -53.516,-9.6222 -11.4123,-3.3566 -33.1183,-15.5991 -39.6077,-32.7501 -6.4894,-17.151 -4.8484,-45.5701 12.0091,-75.3318 z" style="fill:#0e4d8f" id="path8"/><path d="m 432.3308,346.8905 c 34.6847,3.8041 60.1947,16.3354 60.1947,16.3354 -18.3493,-19.4682 -65.1177,-31.7756 -87.2712,-34.2371 -22.1535,-2.4615 -29.5379,-3.1328 -41.3978,-6.0419 -6.1138,-1.4996 -13.4935,-3.6293 -21.8355,-8.4153 5.2178,8.18 10.4043,15.7065 15.5213,22.6822 22.3796,5.5945 43.1165,6.203 74.7885,9.6767 z" style="fill:#0e4d8f" id="path9"/><path d="m 316.1931,292.2901 c -17.7526,-20.8108 -11.4124,-65.1177 -11.4124,-65.1177 -31.3281,75.4112 20.4751,100.8094 46.3209,108.3057 2.1694,0.6292 4.312,1.2035 6.4408,1.7357 -5.117,-6.9757 -10.3035,-14.5022 -15.5213,-22.6822 -7.8404,-4.4983 -16.5306,-11.3423 -25.828,-22.2415 z" style="fill:#ffffff" id="path10"/><path d="m 479.6587,384.2977 c 24.7641,5.6689 54.8988,26.256 54.8988,26.256 -21.4822,-26.8527 -58.7702,-40.9225 -90.6005,-45.9479 -28.8191,-4.55 -35.3833,0.2237 -70.8288,-7.3945 5.8954,7.1424 11.6346,13.6788 17.1531,19.8075 29.6113,2.008 64.6134,1.61 89.3774,7.2789 z" style="fill:#0e4d8f" id="path11"/><path d="m 280.3522,286.4347 c -4.7738,35.5798 14.661,60.866 39.0856,72.0456 20.3543,9.3166 38.4888,16.3444 70.8431,18.5385 h 3e-4 c -5.5185,-6.1287 -11.2577,-12.6651 -17.1531,-19.8075 -2e-4,0 -4e-4,0 -7e-4,-10e-5 -84.154,-17.8374 -92.7753,-70.7764 -92.7753,-70.7764 z" style="fill:#ffffff" id="path12"/><path d="m 534.5575,435.8219 c -23.347,-22.9739 -52.512,-35.338 -125.2147,-37.8652 h -3e-4 c 5.0783,5.6468 9.8291,11.1148 14.1833,16.625 0.1988,-0.0108 0.3994,-0.019 0.5979,-0.0302 74.4947,-4.2105 110.4338,21.2704 110.4338,21.2704 z" style="fill:#0e4d8f" id="path13"/><path d="m 275.9514,342.7507 c -5.801,53.9944 79.8288,75.5062 147.5745,71.8309 -4.3542,-5.5101 -9.105,-10.9781 -14.1833,-16.625 -122.9021,-5.6602 -133.3911,-55.206 -133.3911,-55.206 z" style="fill:#ffffff" id="path14"/></g><g id="g19"><path d="m 428.7811,301.0757 c -35.3511,0 -54.7802,-23.7597 -68.5183,-55.9188 -6.4221,-15.0334 -8.3149,-24.8956 -10.3174,-37.3222 -3.6131,-22.4212 -2.8093,-43.0811 -1.0816,-57.6586 13.8179,34.1812 22.601,43.2067 30.2089,44.2795 3.8016,0.5361 7.1933,-0.8578 12.0453,-5.1277 6.5383,-5.7534 16.2059,-6.3749 20.0598,-6.3749 0.9393,0 1.874,0.0328 2.7771,0.0973 3.3078,0.2364 7.8322,2.1861 12.6216,4.2498 5.1061,2.2004 10.8928,4.694 14.4817,4.694 6.889,0 15.6466,0.5218 30.2272,1.8007 7.0752,0.6207 18.7667,2.3093 29.0824,3.7991 8.0755,1.1661 15.7038,2.2676 18.5303,2.4627 0.1931,0.0135 0.3855,0.0197 0.5778,0.0197 4.1498,0 8.3536,-2.9636 12.0631,-5.5785 0.9316,-0.6566 1.8115,-1.2769 2.6658,-1.8323 2.5337,-1.6469 5.541,-2.5171 8.6974,-2.5171 2.7786,0 5.6128,0.6902 7.9805,1.9439 2.5538,1.3518 6.6101,5.7577 12.5065,12.3246 2.8319,3.154 5.507,6.1335 7.0651,7.5271 4.621,4.1351 6.8928,6.7136 6.4811,9.332 -0.1939,1.2337 -0.9857,2.2572 -2.1792,2.823 -2.1181,1.1143 -2.1305,1.3654 -2.2417,3.594 -0.0417,0.8277 -0.0927,1.8582 -0.2735,3.0602 -0.9432,6.2919 -6.658,6.2919 -10.4401,6.2919 -1.2893,0 -2.7299,-0.0367 -4.3977,-0.0796 l -2.0602,-0.0506 c -0.197,-0.004 -0.3909,-0.007 -0.584,-0.007 -8.7383,0 -12.9058,4.3583 -13.435,5.9462 -0.3113,0.9339 -0.2572,1.8876 0.1406,2.4889 0.1074,0.1618 0.4326,0.6543 1.4816,0.7381 2.424,0.1939 3.9157,0.8281 5.0049,1.2916 0.8196,0.3484 1.1742,0.4898 1.711,0.4898 0.7841,0 0.9023,-0.0946 1.3974,-0.4936 0.2858,-0.2302 0.6427,-0.5168 1.1077,-0.7829 0.5369,-0.3067 1.4175,-0.6589 3.4793,-0.6589 1.4268,0 4.8218,0.1499 6.4178,1.4955 0.4681,0.2279 1.8818,0.6056 3.0752,0.8181 l 5.3394,0.9509 -3.6029,3.4793 c 0.1429,0.1502 0.2897,0.319 0.428,0.5087 0.3971,0.5454 1.2205,1.679 0.6643,7.0601 l -0.2565,2.4839 h -2.4974 c -0.1321,0 -3.2769,-0.003 -7.792,-0.3044 l -0.0811,-0.003 c -1.2491,0 -3.8531,1.6168 -6.8527,5.2289 -0.8273,0.9969 -2.044,1.5681 -3.3371,1.5681 -0.6072,0 -1.1973,-0.1251 -1.7528,-0.3719 -9.1083,-4.0466 -26.7178,-6.9836 -41.8731,-6.9836 -14.8556,0 -19.3058,2.7168 -19.767,3.7635 l -0.0572,0.1213 c -2.896,5.7932 -19.0841,34.7226 -53.4487,35.3202 -0.4952,0.009 -0.9834,0.0127 -1.4716,0.0127 z m 137.5426,-47.8321 z" style="fill:#ffffff" id="path15"/><path d="m 350.5048,159.5558 c 0,0 -3.8787,49.6028 12.2702,84.4367 15.7709,34.0186 33.1183,54.8988 67.43,54.3021 34.3117,-0.5967 49.5282,-30.806 51.0201,-33.7896 3.7993,-8.6215 47.3902,-6.15 65.2971,1.8063 0.6398,0.2843 1.3891,0.104 1.8364,-0.4346 1.6573,-1.9953 5.7679,-6.4521 9.2473,-6.2201 4.4754,0.2984 7.6083,0.2984 7.6083,0.2984 0,0 0.4475,-4.3263 -0.1492,-5.1468 -0.5967,-0.8205 -2.5734,-1.7529 -0.4102,-3.8414 0,0 -3.5804,-0.634 -4.3636,-1.4172 -0.7832,-0.7832 -5.7062,-1.1562 -6.7505,-0.5594 -1.0443,0.5968 -1.4918,1.641 -3.8787,1.641 -2.3869,0 -3.2074,-1.4918 -6.9369,-1.7902 -3.7295,-0.2984 -5.0722,-3.7295 -4.0279,-6.8623 1.0443,-3.1328 6.8623,-8.0558 16.7083,-7.832 9.846,0.2238 13.4263,0.6713 14.0976,-3.8041 0.6713,-4.4754 -0.6713,-6.2656 4.0279,-8.7271 2.0139,-0.8951 -0.6713,-3.8041 -4.923,-7.6083 -4.2517,-3.8042 -15.2165,-17.4542 -19.0206,-19.4682 -3.8041,-2.014 -9.3984,-2.4615 -13.8739,0.4475 -4.4755,2.909 -10.5173,8.2796 -17.0067,7.832 -6.4894,-0.4476 -34.9085,-5.1468 -47.6635,-6.2656 -12.755,-1.1188 -22.3772,-1.7902 -29.9855,-1.7902 -7.6083,0 -21.0346,-8.5033 -27.3002,-8.9509 -6.2656,-0.4476 -15.2165,0.6713 -20.8108,5.5943 -5.5943,4.923 -9.6222,5.8181 -13.8739,5.8181 -4.2517,0 -17.8272,-3.6549 -28.5683,-37.6683 z" style="fill:#0e4d8f" id="path16"/><path d="m 545.7885,206.7778 c 0,0 3.6291,-4.221 9.0373,-2.6733 5.4082,1.5477 7.116,7.8791 -0.8539,8.4419 -7.9699,0.5628 -16.0821,-3.9396 -15.3705,-7.1756 0.7116,-3.236 8.2545,-2.814 8.2545,-2.814 0,0 -2.5618,2.9547 -1.0674,4.221 z" style="fill:#ffffff" id="path17"/><path d="m 395.8452,223.7131 c 0,0 7.0502,-8.566 13.976,-9.3379 6.9258,-0.7719 8.9775,-0.2979 12.4021,-2.8909 3.4246,-2.593 9.4909,-8.5206 19.0652,-7.0439 2.5003,0.4412 3.0828,2.1681 0.2942,2.9415 -2.2548,0.6253 -7.5436,5.6885 -7.3776,9.1111 0.166,3.4226 4.4815,2.6089 4.4815,2.6089 0,0 -6.4205,8.2818 -13.826,9.1564 -7.4054,0.8746 -13.9666,-2.7604 -16.1249,-5.7735 -1.1886,-1.5635 -12.8903,1.2283 -12.8903,1.2283 z" style="fill:#ffffff" id="path18"/><path d="m 413.6821,217.2807 c -1.2553,1.4346 2.0752,5.2381 6.5324,5.3918 4.5105,0.1555 8.6062,-1.0369 9.5394,-5.1845 0.9332,-4.1476 -1.512,-5.5032 -2.4367,-5.34 -1.7627,0.3111 -2.1256,4.035 -5.4437,4.4497 -3.3181,0.4147 -6.7398,-0.9761 -8.1914,0.6829 z" style="fill:#0e4d8f" id="path19"/></g></g><g id="g26"><circle cx="342.5423" cy="490.4859" r="76.184601" style="fill:#ffffff" id="circle20"/><circle cx="342.5423" cy="490.4859" r="71.249901" style="fill:#0e4d8f" id="circle21"/><g id="g25"><polygon points="338.7754,416.2412 323.1114,419.374 311.699,442.4226 328.0344,461.8907 357.7961,461.8907 373.6839,442.8701 361.824,418.2552 " style="fill:#ffffff" id="polygon21"/><polygon points="397.6275,505.7501 371.4462,493.6664 362.4953,465.2473 378.3831,446.4505 403.4456,450.2546 409.7112,459.2055 414.858,477.331 415.7531,487.4008 " style="fill:#ffffff" id="polygon22"/><polygon points="345.7124,548.2668 345.041,517.61 370.3273,499.2607 395.8373,511.1206 400.089,537.302 387.1102,549.3857 369.2084,559.6792 " style="fill:#ffffff" id="polygon23"/><polygon points="314.8318,499.4845 340.1181,517.1625 340.1181,547.5955 316.8457,559.903 300.2866,551.6234 285.0701,536.8544 289.7693,511.1206 " style="fill:#ffffff" id="polygon24"/><polygon points="288.2029,505.5263 313.7129,493.7783 323.1114,464.7998 306.776,446.2267 280.8184,449.807 273.6577,462.5621 269.406,479.345 268.511,486.0581 " style="fill:#ffffff" id="polygon25"/></g></g></g><g id="g33"><rect x="424.57501" y="78.242302" width="24.3179" height="56.204102" style="fill:#ffffff" id="rect27"/><path d="M 369.4255,114.5488 V 78.2423 h -24.3179 v 38.7705 c 0,9.6283 7.8053,17.4337 17.4337,17.4337 h 56.0163 v -13.6478 h -42.8822 c -3.4517,0 -6.2498,-2.7981 -6.2498,-6.2498 z" style="fill:#ffffff" id="path27"/><path d="m 191.1977,78.2423 v 56.2041 h 24.3179 V 91.8901 h 18.5643 c 3.4517,0 6.2498,2.7981 6.2498,6.2498 v 16.4089 c 0,3.4517 -2.7981,6.2498 -6.2498,6.2498 h -12.9812 v 13.6478 h 26.4441 c 9.4467,0 17.1047,-7.658 17.1047,-17.1047 V 95.4295 c 0,-9.4922 -7.695,-17.1872 -17.1872,-17.1872 h -56.2627 z" style="fill:#ffffff" id="path28"/><g id="g28"><rect x="583.82001" y="78.242302" width="24.3179" height="56.204102" style="fill:#ffffff" id="rect28"/><polygon points="559.0058,78.2423 534.6879,78.2423 534.6879,134.4464 559.0058,134.4464 559.0058,106.3408 578.7951,131.1586 578.7951,102.6843 " style="fill:#ffffff" id="polygon28"/></g><g id="g30"><polygon points="290.9977,134.4464 317.3477,78.2423 290.9977,78.2423 264.6476,134.4464 " style="fill:#ffffff" id="polygon29"/><polygon points="318.3589,134.4464 344.2025,134.4464 321.8922,81.9644 308.1877,110.5199 " style="fill:#ffffff" id="polygon30"/></g><g id="g32"><polygon points="478.4274,134.4464 504.7774,78.2423 478.4274,78.2423 452.0773,134.4464 " style="fill:#ffffff" id="polygon31"/><polygon points="505.7886,134.4464 531.6322,134.4464 509.3219,81.9644 495.6174,110.5199 " style="fill:#ffffff" id="polygon32"/></g></g><g id="g39"><polygon points="290.4747,645.0723 305.1331,645.0723 320.1467,612.303 305.4883,612.303 302.1147,619.6662 299.2539,612.303 284.5955,612.303 290.8683,628.4477 298.0914,628.4477 " style="fill:#0e4d8f" id="polygon33"/><rect x="322.98221" y="612.37152" width="14.2937" height="32.700802" style="fill:#0e4d8f" id="rect33"/><polygon points="352.6526,645.0723 352.6526,626.4283 367.5214,645.0723 370.118,645.0723 380.5606,645.0723 380.5606,612.3715 367.5214,612.3715 367.5214,629.2288 353.2877,612.3715 352.6526,612.3715 340.1251,612.3715 340.1251,645.0723 " style="fill:#0e4d8f" id="polygon34"/><path d="m 404.7725,628.1906 v 3.6334 h 7.6229 v 2.9113 c 0,1.4521 -1.1772,2.6293 -2.6293,2.6293 h -8.7532 c -1.4521,0 -2.6293,-1.1772 -2.6293,-2.6293 v -12.3774 c 0,-1.4521 1.1772,-2.6293 2.6293,-2.6293 h 8.7532 c 1.4521,0 2.6293,1.1772 2.6293,2.6293 v 0.9653 h 13.5606 v -1.6895 c 0,-5.1154 -4.1468,-9.2622 -9.2622,-9.2622 h -22.6087 c -5.1153,0 -9.2622,4.1468 -9.2622,9.2622 v 14.1764 c 0,5.1154 4.1468,9.2622 9.2622,9.2622 h 22.6087 c 5.1154,0 9.2622,-4.1468 9.2622,-9.2622 v -7.6195 z" style="fill:#0e4d8f" id="path34"/><path d="m 466.7635,628.7219 h 10e-4 c 2.3852,0 3.5465,3.3876 3.5465,5.7727 v 0.723 c 0,5.4426 -4.4121,9.8547 -9.8547,9.8547 h -31.0042 v -32.7008 h 31.0042 c 5.4426,0 9.8547,4.4121 9.8547,9.8547 v 0.7218 c 0,2.3858 -1.1619,5.7739 -3.5477,5.7739 z m -9.5463,-5.1245 v 0 c 0,-1.7795 -1.4426,-3.2221 -3.2221,-3.2221 h -12.2028 c 0,0 0,6.4442 0,6.4442 h 12.2028 c 1.7795,0 3.2221,-1.4426 3.2221,-3.2221 z m 0,9.872 v 0 c 0,-1.7795 -1.4426,-3.2221 -3.2221,-3.2221 h -12.2028 c 0,0 0,6.4442 0,6.4442 h 12.2028 c 1.7795,0 3.2221,-1.4426 3.2221,-3.2221 z" style="fill:#0e4d8f" id="path35"/><path d="m 506.005,645.0723 h -22.6791 c -5.2852,0 -9.5697,-4.2845 -9.5697,-9.5697 v -13.5613 c 0,-5.2852 4.2845,-9.5697 9.5697,-9.5697 h 22.6791 c 5.2852,0 9.5697,4.2845 9.5697,9.5697 v 13.5613 c 0,5.2852 -4.2845,9.5697 -9.5697,9.5697 z m -4.347,-9.6598 v -13.3811 c 0,-1.0566 -0.8565,-1.9131 -1.9131,-1.9131 h -10.159 c -1.0566,0 -1.9131,0.8565 -1.9131,1.9131 v 13.3811 c 0,1.0566 0.8565,1.9131 1.9131,1.9131 h 10.159 c 1.0566,0 1.9131,-0.8565 1.9131,-1.9131 z" style="fill:#0e4d8f" id="path36"/><path d="m 400.6914,676.0812 h -14.1272 c -3.8038,0 -6.8874,-3.0836 -6.8874,-6.8874 v -8.0436 c 0,-3.8038 3.0836,-6.8874 6.8874,-6.8874 h 14.1272 c 3.8038,0 6.8874,3.0836 6.8874,6.8874 v 8.0436 c 0,3.8038 -3.0836,6.8874 -6.8874,6.8874 z m -2.398,-7.7437 v -6.3309 c 0,-1.4222 -1.1529,-2.5751 -2.5751,-2.5751 h -4.181 c -1.4222,0 -2.5751,1.1529 -2.5751,2.5751 v 6.3309 c 0,1.4222 1.1529,2.5751 2.5751,2.5751 h 4.181 c 1.4222,0 2.5751,-1.1529 2.5751,-2.5751 z" style="fill:#0e4d8f" id="path37"/><path d="m 358.2416,669.1711 v 0 c 0,1.1955 0.9692,2.1647 2.1647,2.1647 h 17.014 v 4.7438 h -20.4364 c -3.7823,0 -6.8485,-3.0662 -6.8485,-6.8485 v 0 c 0,-3.7823 3.0662,-6.8485 6.8485,-6.8485 h 10.2654 c 1.0359,0 1.8757,-0.8398 1.8757,-1.8757 v 0 c 0,-1.0359 -0.8398,-1.8757 -1.8757,-1.8757 h -17.1139 v -4.3693 h 20.9126 c 3.5193,0 6.3723,2.853 6.3723,6.3723 v 0 c 0,3.5193 -2.853,6.3723 -6.3723,6.3723 h -10.6417 c -1.1955,0 -2.1647,0.9692 -2.1647,2.1647 z" style="fill:#0e4d8f" id="path38"/><path d="m 417.8059,669.1711 v 0 c 0,1.1955 0.9692,2.1647 2.1647,2.1647 h 17.014 v 4.7438 h -20.4364 c -3.7823,0 -6.8485,-3.0662 -6.8485,-6.8485 v 0 c 0,-3.7823 3.0662,-6.8485 6.8485,-6.8485 h 10.2654 c 1.0359,0 1.8757,-0.8398 1.8757,-1.8757 v 0 c 0,-1.0359 -0.8398,-1.8757 -1.8757,-1.8757 h -17.1139 v -4.3693 h 20.9126 c 3.5193,0 6.3723,2.853 6.3723,6.3723 v 0 c 0,3.5193 -2.853,6.3723 -6.3723,6.3723 h -10.6417 c -1.1955,0 -2.1647,0.9692 -2.1647,2.1647 z" style="fill:#0e4d8f" id="path39"/><rect x="439.26431" y="654.2619" width="9.0493002" height="21.819401" style="fill:#0e4d8f" id="rect39"/></g></g></g></g></svg>