<svg height="300" viewBox="0 0 185.20833 185.23479" width="300" xmlns="http://www.w3.org/2000/svg"><g transform="matrix(.26458333 0 0 .26458333 -13.229167 -13.202708)"><path clip-rule="evenodd" d="m748.7 400c0 192.6-156.1 348.7-348.7 348.7s-348.7-156.1-348.7-348.7 156.1-348.7 348.7-348.7 348.7 156.1 348.7 348.7z" fill="#fff" fill-rule="evenodd"/><path d="m748.7 400h-1.3c0 95.9-38.9 182.8-101.7 245.6-62.9 62.9-149.8 101.8-245.7 101.8s-182.8-38.9-245.6-101.7c-62.9-62.9-101.8-149.8-101.8-245.7s38.9-182.8 101.7-245.6c62.9-62.9 149.8-101.8 245.7-101.8s182.8 38.9 245.6 101.7c62.9 62.9 101.7 149.7 101.7 245.6h1.4 1.3c0-193.3-156.7-350-350-350-193.3.1-350 156.8-350 350.1s156.7 350 350 350 350-156.7 350-350z" fill="#231815"/><path clip-rule="evenodd" d="m550.5 386.1c-3-5.3-6.4-10.4-10-15.3-6.8-9.5-14.5-18.2-23-26.1-4.3-4-8.9-7.8-13.8-11.3-1.3-1-2.6-1.9-4-2.8-5.5-4-11.3-7.6-17.5-10.8-3.2-1.7-6.4-3.4-9.8-4.9-1.3-.6-2.5-1.1-3.8-1.7-3.6-1.5-7.2-2.8-10.7-4.2-5.1-1.7-10.4-3.4-15.8-4.5-1.3-.4-2.4-.8-3.8-1-3.6-.7-7.2-1.5-10.7-2.1-1.5-.2-3.2-.4-4.7-.6-5.3-.8-10.6-1.1-15.8-1.3-1.9 0-3.8-.2-5.8-.2-1.5 0-3 .2-4.5.2-4.3 0-8.9.4-13.2.8-3 .4-5.8.8-8.7 1.1-1.1.2-2.3.4-3.4.6-2.8.6-5.8 1.1-8.7 1.7-2.8.8-5.7 1.5-8.5 2.3-5.1 1.3-9.8 3-14.5 4.9-6.4 2.3-12.4 5.1-18.3 8.3-1.9 1-3.8 1.9-5.5 2.8-51.6 29.7-86.5 85.3-86.5 148.8 0 63.7 34.9 119.3 86.5 149 1.7 1.1 3.6 2.1 5.5 3 5.8 3 11.9 5.9 18.3 8.3 4.7 1.7 9.4 3.4 14.5 4.7 2.8 1 5.7 1.7 8.5 2.3 2.8.8 5.8 1.3 8.7 1.7 1.1.2 2.3.4 3.4.6 2.8.6 5.7 1 8.7 1.1 4.3.6 8.9.8 13.2 1h4.5c2.1 0 4 0 5.8-.2 5.3-.2 10.6-.6 15.8-1.1 1.5-.2 3.2-.4 4.7-.8 3.6-.6 7.2-1.1 10.7-1.9 1.3-.4 2.4-.6 3.8-.9 5.5-1.3 10.7-2.8 15.8-4.7 3.6-1.3 7.2-2.6 10.7-4.2 1.3-.6 2.5-1.1 3.8-1.7 3.4-1.5 6.6-3 9.8-4.9 6.2-3.2 12.1-6.8 17.5-10.8 1.3-.9 2.6-1.9 4-2.8 4.9-3.6 9.4-7.4 13.8-11.4 8.5-7.7 16.2-16.4 23-25.9 3.6-4.9 7-10.2 10-15.5 14.3-25 22.4-53.9 22.4-84.9 0-30.8-8.1-59.5-22.4-84.7zm-107.4 60.2c0-.8 0-1.5 0-2.5.4-1.3 2.3-3.8 4.5-2.7.8.4 1.1 1.3 1.7 2.1-.4 2.3-4 6.6-6 7.4l-1.1.2c-.7.2-1.9.2-2.8.2v.4l1.1.6.8 1.9.9 1.7 1.7 3.2c1.3 2.1 3.8 3.4 6 4.5.2 2.3.2 4.5.2 6.8.4.8 1.3 1.7 1.7 2.8 1.9 4.3 2.6 9.1 3.4 14.4.4 2.1.8 5.7.4 8.1-.6 2.8-1.7 3.4-3.2 5.3-.8 1.3-1.7 2.8-2.6 4.2-1.1 1.7-1.9 3.6-2.8 5.5-.8 1.7-1.7 3.4-2.6 5.1-.4.9-.8 2.1-1.1 3l-.9 1.7c-.4 1-.9 1.9-1.5 2.8-.8 1.1-1.7 1.9-2.3 3.4-.8.2-1.5.2-2.3 0-.4-.6-.2-1.5 0-2.3l-.2-.2c-2.3.6-5.1 6.8-6.4 9.1-.2.2-.9.2-1.9.2-.8 0-1.5.2-1.7.2-.4.6-.4 1.5-.4 2.3-.8.2-1.7.2-2.6-.2-.8 0-1.5-.4-1.7-.7-1.1-1.9-.4-7.9 0-10.4.2-1.7.2-3.4.4-5.1.4-1 .8-1.7 1.3-2.5l.6-1.3c.6-1.1.9-2.5.9-4h.4l1.7-1.9 1.1-1.9c1.7-2.7 3.2-6.1 4-9.3.6-.4 2.3-.4 3.2-.4 1.3-2.3.9-6.6.9-10 .8-1 1.7-1.5 2.6-2.3 1.5-1.1 3-2.3 3.8-3.8.9-1.5 1.1-3.4.6-6.1l-.6-.2c-.9-.4-2.6-.4-3.8-.2h-.6-.2c-.6 2.1-.6 4-1.3 5.9-.8 2.1-2.3 3.8-3.2 5.7l-.6 1.5c-.4 1-.9 1.7-1.3 2.7-1.1 2.1-2.1 4.2-3.6 5.9-.9 1.3-2.1 2.3-3.6 3l-.2-.2c0-1.1 0-2.1-.2-3.2.4-.9.9-1.7 1.3-2.4.9-2.5 2.3-7.8-.6-8.9l-.4-.2v-.4c1.5-1.3 2.5-3.4 3.6-5.1v-.2c.8-.9 1.9-1.9 2.5-3.2.8-1.9-.2-4-1.5-4.7.2-.9.2-2.1.2-3l.9-.2c1.3-3.4 2.6-7 3.6-11 .2-1.1.4-2.3.6-3.4.4-1.9.8-4 .8-6 .9-.4 2.5 0 3.8 0l.4-.2c1.3-.2 2.4-.6 3.4-1zm-14.7-13.7-.8-.7c-.4-.6-.8-1.3-.8-2.1l.2-.2h.6l2.3.2c.4.4.4 1.5.8 2.3.4 1.1 1.7 2.3 1.9 3.6v.2c-1.1.4-2.8-.2-3.2-1.1l-.4-1.7zm9.9 9.3.9.2.2.6c-.6.8-.8 1.3-1.1 2.3l-.2.2-.4.2c-.6-.9-1.1-2.8 0-3.4h.6zm-16.3-37.4.9-.2 1.1-.2c.8 0 2.3.4 3.6 1 1.9.8 3.8 1.7 4.5 2.3 1.1.6 2.3 1.7 3.4 2.1h1.9c.2.7.2 1.5.2 2.3h-1.5c-1.5 1-2.8 1.7-4.1 2.7-1.1-.8-1.5-2.3-2.5-3.2-.6-.6-1.1-1-1.9-1.5-.8-.4-1.5-.8-2.1-1.3-1.1-.9-1.5-1.9-2.6-2.6l-.9-.9zm-15.1-2.7h.2c1.7.4 2.8 1.3 4.3 1.7l1.3.2c2.1.8 4.5 1.5 6.2 2.7 1.5 1 2.6 2.5 4 3.8l1.3 1.1v.6l-.4.2h-.9c-1.1-.2-2.6-.7-3.2-.9-3.6-1.5-5.8-3.6-8.7-5.7-.6-.6-2.8-2.3-4-2.3l-.2.2-.2-1.3zm-71.8 8.9c-.2-1.7-.2-3.4-.4-4.9-.8-2.5-2.6-4.4-2.6-7.4.8-.6 1.7-.9 2.8-.9.9-1.9 1.9-2.8 1.7-5.9.9-.6 2.1-.4 3.2-.2l.2.2.4 1.7c.8 0 .9-1.3 1.1-2.1l.8-.4c2.4 0 2.8 2.1 3.8 3.6 1.9 2.7 4.3 5.7 7.2 7.6l1.1.8c.9.4 2.1.6 3.8.6.9 0 1.9-.2 2.6.2 1.1.2 1.3 1.3 2.1 1.9h.2c1.5 0 2.8 0 4.3-.2h4.1c1.1 0 2.3 0 3.4.2 1.3 0 2.6.2 3.6.6l-.6 2.1c-1.1 0-2.1.2-3 .2-1.3.2-2.3.4-3.4.6-1.7.2-3.4.6-5.1.9-1.3.2-2.5-.4-3.6-.6l-.9-.4c-2.3-.2-4 .9-5.3 1.3-.8-.2-1.1-.7-1.7-.9.2 1.1.6 1.7.4 2.8l-.9.4c-1.1.2-2.3 0-2.8.8-.4 1.3.6 1.1.9 1.9l-.2 1.7c-3.8.9-7.3 2.5-10 4.4-.6.7-1.1 1.3-1.7 1.9l-.6 1.3h-.2c-.8.2-1.5 0-2.1-.2-.6-1-.8-2.7-1.1-3.8-.9-.2-1.9-.6-3-.8l-1.7-.2-.2-1.9 1.9-.9.8-1.5c.6-.8 1.5-1.5 2.5-2.1v-1.3zm22.4 1.7c-.9-2.3 2.6-1.5 3.8-1.9l1.5.2 2.3.4c.4.6.6 1.5.6 2.3h-.2l-1.5.2-1.1.8-1.5 1c-.8.6-2.1.7-3 1.3l-.4-.2c-.4-1.3.2-2.1.6-3v-.5zm4.9 4.4h.4l1.1.2c.2 1.7-.4 3 1.5 3.2.4.4.2 1.5.2 2.5-.6.2-1.9.2-2.8.2h-.4l-.2 1.1-.2.2c-.8.4-1.5-.2-1.9-.4-.7-1.8 1.4-6.1 2.3-7zm-47.1 68.6c-.4 1 .2 1.7-.6 2.3-1.1.2-2.1-.6-2.4-1.5l-1.5.2h-.6c0-1 .2-2.3.4-3l2.1-.9-1.1-.2c0-.8-.8-1.1-1.1-1.7-1.1-1.5-1.9-2.5-2.3-4.9v-1.7l.9-.6c1.7.2 1.7 1.9 2.6 3 .9 1.3 3.2 1.7 3.8 3.4.2.8.2 1.5.4 2.3l.2.9v1.7zm44.5 64.9c-.6.7-.4 1.9-.6 2.8l-.9 1.1c-.4.6-.4 1.9-.4 2.8l-.2.2c-1.3 0-2.3-.4-3.4-.7-.9-.4-1.9-.6-3-.6-.9 2.1-1.3 4.4-3.2 5.7-1.1.4-2.3.9-3.4 1.3-.6-.9-1.7-4.7-1.7-6.1-.9-.4-2.3 0-3.2.4l-1.1.2c-.2-.2-1.9-4-2.8-4.5-1.3-1.1-4-.6-6.2-.7-.2-.8-.4-1.7-.4-2.5h-.4l-1.7.6c-.8.2-1.7.2-2.4.2l-1.1.6c-.2-.7-.4-1.7-.4-2.4-.2-.4-.9-.6-1.7-.6s-1.7.2-2.1.2c-.4-1.3-.8-2.5-1.7-3.2l-1.5-1c0-.6 0-1.1-.2-1.9 0-3.4.9-4.7 4.7-4.2l.8.2 1.3.2.2-.2c-.6-3-1.9-4.4 1.9-5.5h1.1c2.4 0 4.7.7 6.8 1.3 1.1.2 2.3.4 3.2.8.2 1.1-.4 1.5-.4 2.6l.8.6h.2l.2-.2v-1.1l.4-.6c.8-.2 1.7-.4 2.6-.4h.4l.6 1.1 1.5.2 1.9.6c.9-.2 1.9-.2 2.8-.2 1.5.4 3.2.6 4.7.8l1.5-.2 1.1.4c1.9 1.1 3.4 4.5 5.1 5.7 1.1 1 2.3 1 3 2.1-.3 2-2 2.7-2.7 4.1zm-38.5-88h.2c1.3 0 2.5.6 3 1.5-.8.8-1.9 1.3-3 1.5-1.1 0-2.3-.2-3-.6-.2-3.3.8-1.6 2.8-2.4zm19.4 59.4c-.6-3-.8-8.1.4-10.6.8.4 1.5.9 2.5 1.3.2 1.3.9 2.7.9 4.2 1.3.8 3.6.2 5.1.6.2.6.2 1.3.2 2.1l-1.3.7c-1.3 1-2.8 3.2-3.2 5.3-.2.9.4 1.7.4 2.4-1.9.6-4.5 1.1-5.8-.2h-.2l.2-.6c.2-.8.8-1.1 1.5-1.3.7-1.2-.5-2.6-.7-3.9zm33.8 11.3-1.1.2c-.8.8-.9 2.1-.9 3.2l-.9.4c-1.1.6-2.5 1.1-3.8 1.3l-.6-.6c0-2.3 1.7-4.2 2.8-5.5l.8-.6.4-1.5h.4l3 .2v2.9zm1.7-13.7c.2-1.1.4-2.1.6-3l1.7-1.7c.7-1.1 1.3-2.8 1.5-4.5-1.3-2.1-3.2-3.4-5.1-4.5-1.1-.8-2.3-1.3-3.4-1.9l-1.7-.8c-1.9-1.1-3.6-2.4-5.8-3-.6.4 0 1.9 0 2.6.9.8 1.9.8 3 1.3 1.5.9 2.3 2.4 3 4.1h1.5l1.5.2v1l1.1.2c.4.9.8 2.8.4 4.2-1.3.4-2.3-.2-3-1.1-.8-.9-1.3-2.3-1.9-3-.7-.2-1.5-.4-2.3-.4 0-1-2.1-2.7-2.5-3.8-.6-.4-1.3 0-2.1 0l-.9.2c-.8-.2-1.7-.2-2.5-.4l-.2 1-.4.2c-2.3-1.1-2.1-3.8-2.6-6.8 0-.8 0-1.3 0-2.1-.2-1.5-1.1-2.8-1.9-4l-.7-.7h-1.5c-.4.7-.8 1.7-1.5 2.1h-.4l-.6-.4c-.6-3.2 1.3-3.8 3.6-4.4.2-.4.2-.8.2-1.5-1.3-1.5-7.3-1.3-8.1-3l-.2-1.7.2-1.9c.8-1.1 2.6-.7 3.4-2.1 0-3.4-5.3-3-8.9-2.6-.9 0-1.7.2-2.3.2v1.3c.6.4 1.3.6 2.3.7 1.1.4 2.3.6 3.2.8.4.8.4 1.3.2 2.3l-1.7.6c-.6-.2-.9-.6-1.7-.8l-.6-.2h-.1l.8.8c.4.6.8 1.3.6 2.1l-.2.2h-.4c-1.9 0-3.4-.9-5.5-.9l-.4-1h-1.3l-1.1 1c.2.7 2.1 1.1 2.8 1.5 1.7 1.1 3.4 2.3 5.5 3l.6.2c3.2 1.3 5.7-.6 5.7 4.5-.9.2-4-.4-6.2-.9-1.3-.4-2.4-.8-3-1h-.6c.2.8 1.3 1 1.9 1.5l1.7 1.1 1.7.9h1.3l1.1 1.1c.9.6 2.5.6 3.8.7v.2c-.2.8-.4 1.3-.6 2.1-.8.6-2.6-1.1-3.2-1.1-1.3-.4-1.7 1-3.2.4-.2-.9-.2-1.9-.9-2.4-1.5-1-4.1-.6-4.7-2.1h-.2c-1.3.4-.6 2.1-.4 3.4-.9.6-3.4-.9-4.1-1.3-2.6-1.3-4.5-3.4-6.2-5.5l-.9-.8c-.4-.8-.9-1.7-1.7-2.3l-1.3-.8c-.2-1.5.6-2.8.4-4.2-.4-1.3-1.5-2.8-.6-4.1.4-.6.8-1 1.5-1.1 1.5-.6 3.8-.7 5.5-1.3 2.6-.8 8.9-2.8 10-4.7.8-1.3 1.3-4.9 1.3-6.8-1.3-.4-3.4.2-4.9-.2-.2-1.1-.4-2.1-.6-3.4 0-1.1 0-2.1 0-3.2-.6-1.3-1.1-1.3-2.5-2.1-.8-.4-.2-2.1-.9-2.7-1.5-1.3-5.1-1.9-7.9-1.5-1.7.2-3.2.8-4 1.9h-1.1l-.4-.6h-.2l.2-1.1c.4-1.1 1.9-2.5 2.5-2.9.9-.6 1.9-1.1 3-1.7 2.3-1.3 4.7-2.3 7.5-3.2.9-.4 1.9-.8 3-1.1.4-.7.6-2.1 1.3-2.6.6-.4 1.5-.2 2.3-.4 1.5-.4 2.8-.8 4-1.5h.2c4.1-3 5.1-9.6 12.3-9.6.6-.6 1.3-1.1 2.3-1.7l1.5-1.3.8-1.7 1.1.2h.2c.2 1-.4 1.9 0 2.7.4.7 1.3.9 1.9 1.7.7 1.1-.2 5.1-.6 6.2 0 .7 1.9.9 3.6.9 1.5.2 2.8 0 3.8 0 .6-.9 1.3-2.5.9-4.4-.2-.7-.6-1.5-.4-2.6.4-2.3 1.7-4 2.1-6.2.6-2.1-1.3-5.1-.6-7.2l1.1-1.3v-1.8l1.7-.2.6.2h.2l-.8 1.3-.2 1.1.2.4c.6.8 1.9 1.7 3.4 2.1 1.1.4 2.3.6 3 .2l.2-1.9c-1.1-1-2.8-.8-3-2.7l-.2-.2-1.7-.2c-.4-.4-.9-.9-.9-1.7 1.1-.6 1.9-.2 2.6.2l1.3.8h1.3l.8.7c1.5 1.1 3.4 1.7 5.3 2.5l.9.2c2.6.9 4.9 3 8.3 3 .9-3-2.4-3.4-3.2-5.1-.4-.6-.2-1.1-.2-1.9-.2-1.1-.4-2.3-.8-3.2.4-.6 2.6-.2 3.6-.2.9 1.3 2.1 2.7 3 4l1.5 1.7c1.5 1.5 3.2 2.8 4.9 4 1.1.9 2.1 2.4 3.8 2.6.4-.7.4-2.3.2-3.2h-1.3c-.4-1.9 0-5.1-.9-6.4l-1.5-1.3c-1.1-1.5-2.6-2.8-4.1-4l-.9-.8-.9-1.3.9-.2.6-.2c3.4 1.3 6.8 3 9.8 5.3 4.1 2.8 7.5 6.4 9.4 11-.4.6-4.1.4-5.1.6l-.4 1.5c-.2.6-.6 1.1-.8 1.9-.9 3.4.9 6.4 2.6 7.8l1.5 1.3c.9 0 1.9.2 2.8.2 2.1 0 3.6.2 4.7 1.1l.9 1.3c.2.7.4 1.3.6 1.9 1.5 2.4 3.2 4.5 4.1 7.4.4.8.6 1.7.8 2.7.4 1.9 0 3.4-.8 4.7-.4 1-.9 1.7-1.3 2.6-.2.6-.4 1.3-.4 2.1-.6 1.3-1.1 2.4-1.5 3.8-.2 2.8-.4 5.7-.6 8.7l-.9 1.9-1.7 3.2c-1.1 3-1.5 6.4-2.5 10-.8 2.8-1.5 5.7-1.5 9.3-.9.6-1.5 1.5-2.1 2.4-1.5 1.3-2.8 2.7-4.3 4l-3.8 2.7-6.6 4.4-3.8 2.3-.4.4-.8.8c-2.3 1.7-4.5 3.6-6.2 5.7l-1.1 1.9c-.6.6-3 .4-3.8.4l-.9 1.5c-1.7 2.5-4 4.7-7.7 4.7-.9-1.3-.1-3.6.3-4.5zm22.2 32.9c-.8.7-1.1 1.7-1.1 3.2l-.6.2-4 .6c-.9.2-1.9.9-2.8 1.3-1.5-1.1-1.1-.8-3-.4-.8-.2-1.5-.2-2.3-.4-.2-.9 0-1.9.2-2.6.4-1.7-.2-3.2-.4-4.5h-.9c-.9 1.1-.6 5.5-.6 6.8v.2c-1.1-.2-2.6-1.7-2.8-2.7-.2-.8-.4-1.5-.4-2.3l-.8-1.5c0-1.3-.2-2.5-.2-3.8 0-2.1.6-4 .9-5.9 0-1 0-1.9 0-3 .2-.9 1.5-1.1 1.9-1.9.4-.9 0-2.6.2-3.8.8-.2 1.1-.2 1.7-.4l1.1-.2c0-1 0-1.9 0-2.8l-1.1-.6-.4-.2c-.4-.6-.2-1.5.4-2.3 1.3-1.9 3.8-3.8 4.7-4.4 2.3-1.5 4.7-3 7.3-4.2l1.1-.4 1.7-.4h1.3c.8-1 1.3-1.7 2.1-2.5.9-.6 1.9-1 3-1.3l2.1-2.8.2-.4c1.5-2.1 3.8-4.2 6-5.5 1.5-1 3.4-1.1 5.5-1.5 2.1-.6 3 .2 4.3-.6l.8-.4 1.5.4c0 .7 0 2.1-.2 2.8-.4.4-1.3.4-2.1.6h-.4c-.9.4-2.1 1.1-2.6 1.7.2.8.6 1.1.8 1.9-.6.8-1.3 1.3-1.5 2.3-.4 1.5 1.5 2.7 1.1 4-.6 1.3-1.9 2.5-2.6 3.4-1.9 2.7-4.3 7.9-8.1 8.3-.8-.7-.6-2.5-1.3-3.2h-.8l-.4.9c-.9 3.4-2.5 6.2-3.8 9.3.2.8.8 1.7 1.7 1.9.2 2.4.2 4.1-.6 6.2-.8.2-1.5.2-2.3.4-1.5-2.3-.8-2.3-4-3.2l-.9-.2c-.6.4-.4 1.7-.4 2.7.8.4 1.9.9 2.5 1.7.7 1.1.7 7 .2 8.5zm74.2 67.8h-.2c-1.3.7-2.5 1.5-3.8 2.1l-1.7.9c-.9.4-1.7 1.3-3 1.5-2.1-1.7-.2-6.6-1.5-8.9l1.1-1.3c1.3 0 .8 1.9 1.1 2.8l.8 1.1v2.1c.8 0 1.5-.2 2.3-.2.4-.6.6-1.5.6-2.5h.4l1.7.6c.6-.6 1.3-1.7 1.7-2.5h.4l1.1.2c.2.9.9 1.5 1.1 2.6-.5.6-1.3 1-2.1 1.5zm14.2-6.6c-.6 1.1-2.6 1.9-4.5 2.3l-1.1.4-1.7-.2c-.8.4-1.7.9-2.4 1.3l-.2-.4c.9-1.9 2.3-3.8 3.8-5.3l1.7-1.1.4-.2c.8 0 1.1.6 1.7.7 1.3.4 2.6-.4 3.6-.7zm7.9-51.4c-.6.6-2.3.4-3 1.3l-1.1-1.5v-.4c1.7-.2 2.3-.7 3.2-1.9l.9-.8-.2-2.5-1.9-.2c-.9 1.1-2.1 2.4-3.2 3.6-.6.6-1.3 1.1-2.1 1.7v1.1c-.8.2-1.5.2-2.5 0-1.1-2.4.4-6.6 1.1-8.5 2.1-5.1 6.4-9.6 6.4-16.5-.8-.9-.8-.9-.8-2.6 1.9-1 2.8-3.2 2.8-6.1-3-1-4.3 2.1-4.7 4.1-.9.4-5.8 0-6.6-.6l-.9-.6-2.1-1.9c-2.1-1.5-4.5-1.9-7.2-2.7l-.6-.4-1.1-.4c-.9 1.7-1.5 3.4-2.3 4.9l-.4 1c-1.3 2.3-3.6 5.1-5.1 7l-.6.6-1.7 1.7c-.8.6-1.5.9-2.3 1.3-.9.8-.7 1.9-1.1 2.8l-.4.8-1.3.9c-1.9 2.3-4 5.9-4.1 9.6-1.1.8-4.7-.2-6.6.4-.6.7-.8 2.1-.8 3.2l-2.1.6-.6.4c-.9.9-1.9 2.1-3.2 2.6l-.6.2-1.1.2c-3.6.6-4 .2-4 4.5-2.5.6-4.5 1-5.7 2.6l-.4 1c-.6 1.5-.6 4 .4 5.1l1.3.6c.4-1 .2-2.5.8-3.4.8-1.3 3.2-1.3 4.3-1.9 1.1-.8-.2-1.3 2.1-1.3l.6 1c.4.6.9.8 1.7 1l1.5.2c.2 1.1.2 2.5.2 3.8l-1.7.4-1.1.4-1.5 1.1c-.9-.2-2.1-.4-3-.4-.6 1.1-.8 2.6-.6 4.2-1.1.4-2.8 0-4 .4l-.6.6c-1.3 1.3-3 4.5-2.1 6.4.6 0 1.3.2 2.1.2h.8c2.1-3.4 5.3-2.1 9.4-3l.6-.9.4-1.1c.2-.2 1.7-.9 3.4-1.9 1.9-.9 4-1.9 4.5-1.9l.4-1.1h2.1v1.3c.8.4 1.5.6 2.3 1h.2c.2-1.3-1-2.3-1-3.8-.4-.2-.9 0-1.7-.2-1.1-.4-1.1-1.3-1.7-2.3.6-.6 1.9-.4 2.6 0 2.1.4 5.7.6 7.9.2l.2-1v-.9c0-1.3-.8-2.7-1.1-3.2-2.6-.7-6.4-.2-9.4-.2-.4-.6-.2-1.7 0-2.6.6-.8 2.4-.6 3.6-.8 2.3-.6 4.5-1.1 6.8-1.7l.2-.4.4-1.3h2.6l.2-.2c.2-.7-.2-1.5-.2-2.1.6-.9 2.6-1.3 3.6-1.9v-1.3c-.9-1-2.4-1-2.8-2.3-.6-1.9.6-3 2.1-2.8.9-1.1.6-2.8 1.3-4.2.8-.4 1.9 0 2.6-.4l.9-.6c.9-.9 2.5-2.7 2.6-3l1.1-.2c2.5-.2 4.7 1.9 7 .6l.2-.2c-.2-1.9-.2-4-.4-5.9l1.7-.2.2.9 1.1.4c2.1 0 5.7-.6 6.8-.2l-.6 3.4c-.2 1.1-.6 3.4-1.5 3.8-1.1.4-2.6-.2-3.6.4l-1.1.6c-.4.6-.7.9-1.9 1.1l-.4-.7c-.6 0-1.1 0-1.9 0-.4.7-.6 2.3-.6 3.4 1.1 1.7 2.4 3.2 4.1 4.2-.2 1.3-.4 2.5-.6 3.8 0 .9.2 1.9.2 3-.6 1-1.9 0-2.5 2.3-1.1.6-4.1 0-6.4 0-1.9 0-3.2.4-2.8 1.9.9.4 1.9.8 2.8 1.1 1.5.4 3 .7 4.7 1.3l.2.2c-1.1 1.7-3 3.2-4.9 4.3-1.1 1-2.5 1.5-3.8 2.3-1.5.8-2.8 1.3-4.3 1.9-.9.4-2.1 1-3.2 1.1h.5c.4 1.7 1.5 3.2 2.8 3.8l4.9-2.8 3.8-2.3 2.3-1.3c.9-.6 3-2.3 4.9-1.7.9.4 1.5 2.1 1.9 2.8l.7-.2v-1.7c.9.2 1.1.4 1.9.6.2-.9.2-2.1.2-3 1.9-1 3.8 0 4.7.8l.8.7c.6.4 1.1-.2 1.5.6l-.2 1.9-.4.2c-.4-.4-.8-1-1.7-1 0 1.5 1.1 4.5.8 6.1-.4 1.5-2.1 2.5-3 3.6-.9 1.5-2.1 3-3.2 4.5l.4.9c-.4.6-.9 1-1.7 1.1-.9.4-2.3.7-3.2 1.1l-1.7.4-.8 1.5c-.9 1.1-1.5 2.5-2.6 3.4l-1.5 1.1-1.7.9c-.8.4-1.5.6-2.1.8-.7.2-1.3.4-1.7.9-1.1.8-1.7 2.3-2.8 3.2-1.3.9-2.1 2.3-3.4 3.2-.9.8-2.1 1.7-2.8 2.7-.8 1.1-1.7 2.6-2.8 3.4v.2c.8.4 1.9.8 2.8 1.1l.6.2c0 1.1.2 2.5-.6 3.2l-.2.2-1.1.8v2.3l1.3.2 2.6.4v.2c-.6.8-1.5 1-2.6 1.1l-.4.2c-2.1.8-4.1 1.5-6.2 2.3-3 1.1-6 2.3-9.2 3.2-1.3.4-2.4.6-3.8 1-.8.2-1.5.4-2.3.6-.9.2-1.7.2-2.5.2-1.9.4-3.8 1-5.8 1.3h-.2l-2.3.2c-.8.2-1.7.2-2.4.2-1.9.2-4 .2-6 .6-1.3.2-2.8.4-4.3.6-.8 0-1.5 0-2.3 0-.8.2-1.9.4-3.2.4-2.6.4-5.7.4-7.4-.4v-.2c.9-.6 2.6 0 4-.4 1.1-.2 2.4-.2 3.4-.4 2.6-.4 4.5-1.3 4.5-5.3-.7-.6-2.6-.9-2.3-2.7.6-1.3 1.1-2.7 1.7-3.8.2-.9-.4-1.3-.6-1.7 0-1.3 0-2.7-.2-4-.2-.7-.9-1.3-1.3-2.1-.7-1.1-1.3-6.4-1.1-8.3h1.7c1.5-.6 1.1-3.2.6-4.5.6-.8 4.1.2 5.3-.4l.8-2.1c.4-.6 1.7-.4 2.4-1 1.7-.9.6-4.3.2-5.7.9-1.7 3-1.5 3.6-4.4-1.5-.4-3 .9-4.1 1.3-.4.6-.4 1.3-.4 2.3-.9.2-2.3.2-3 .6h-.4c0-.8-.2-1.7-.4-2.5-.6-.6-2.8-1.1-4-.8-.4-.4-.6-.9-.6-1.7l-.8-.6c-.4-1.7.6-4.2-.2-5.7l-1.5-1.7-1.7-1.9c-.6-1.1.9-2.6 1.7-3.4l.4-.6c1.5-1.9 3.4-3.4 5.1-5.1.6-.6 1.1-1.7 1.9-2.1 1.1-.4 2.5-.6 3.6-1 1.1-1.9 2.5-3.8 4.1-5.3l.8-.4c1.1-.7 2.8-1.9 3-2.3.4-1.5.8-3 1.3-4.5l.4-1.1c1.1-2.7 2.6-4.9 4-7.2.6-.7 1.5-1.5 2.1-2.3 1.5-2.1 3-4 4.7-5.7 1.3-1.5 2.4-2.8 3.8-4.1 1.3-1.5 2.6-3 4-4.5 1.1-1.5 2.6-2.7 3.6-4.2.9-1.3.9-3.2 1.7-4.9 1.5-3.4 3.8-10.6 6.6-13.4l1.5-1.1c-.2-3.4 0-6.6.4-9.5.2-1.3 0-2.5.4-3.6.4-.8 1.1-1.7 1.9-1.9.6-1 1.5-5.3 1.3-6.8-.2-.6-.6-1.3-.8-2.1-.4-1.9 0-5.1.6-6.4.9-.2 1.7-.6 2.6-.8.6.6 1.1 1 1.5 1.7l-1.3.6c.2.9.2 1.9.4 3 .2.4 1.1 1.5 2.3 2.1.8.8 1.7 1.1 2.3 1.1v1.7c2.3 1.1.4 2.1 1.3 4l.2.2c.8.4 3.6.2 4.7.4 1.9.2 3.6.6 5.1 1.1.9.4 1.7.8 2.3 1.1 1.9 1.3 3 3.6 4.1 5.7l.9 1.5-.2 1.3c.2 1.1.4 2.5.6 3.6.4 1.1 1.3 1.7 1.9 2.7l1.1 1.9c2.6.6 2.6-.8 4.1-1.1.4-.6.4-1.9.2-2.6l-1.1-.2c-.2-1.3.6-2.3.2-3.4l-.9-1.1c.6-1.1 1.1-2.5 2.4-2.8.6 1 .9 1.9 1.3 2.8h.6c.9.2 1.5-.2 2.1-.7.4-.6 1.3-1 1.7-1.7l.2-.4c.7-1.7.7-5.1.4-6.8l-.4-.2c-.8-.6-1.7-.7-3-.9 0-.8-.2-1.7-.2-2.7l-.6-.7h-.2l-.9-.2c-.9.4-.9 1.5-1.7 1.9h-1.5l-.4-.7c-2.5 0-4.3.2-5.3-1.7.6-.8 1.7-.8 2.5-1.1.9-.7.9-2.5 1.5-3.4l1.1-.6c0-1.1 0-2.1-.2-3v-.2c-.2-.2-1.3-.4-1.5-1.3-.6-5.5-3.4-8.9-5.1-11.2.6-1.9-1.7-2.8-2.1-4.2 0-.8 0-1.5 0-2.3 0-3.2.2-6.1.4-8.9-1.1-.8-2.3-1.5-2.6-2.8l-.4-1.7c-.2-.4-.8-1.3-1.7-2.1-1.7-2.1-4.5-4.5-5.8-4.7-.8.4-1.7 1.5-1.3 2.8.8 1.7 2.1 3 3 4.5.4.6.6 1.3.9 2.1l1.1.7-.2 1.3c-1.3.6-1.7 1.1-2.4 2.1v.4l.9.2.2.4-.6.6c-.2.2-1.5-.4-2.5-.4-.4-.8-.7-1.3-1.1-2.1-.6-1.1-1.1-2.5-2.1-3.4-.8-1.1-1.9-1.9-3.4-2.1l-.4-1c-.9-2.3-.7-5.1-1.5-7.6-.2-.6-4.1-3.4-5.3-3-1.1.4-.8 2.6-1.7 3.4-.8.4-1.3.9-2.3 1.3-1.5.8-3.2 1.5-4.9 1.9v1.1h-1.9l-.4-1.5c-1.3-.4-3-.8-4.1-1.5l-.2-1.7c.9-.6 2.4-.4 3.2-.9.7-.6 1.5-2.5 1.7-3.4l-.4-.9c-.2-1-.2-1.9-.2-2.8 1.3 0 6-4.9 5.1-6.6v-.2c-.9-.2-2.5 0-3.4-.4l-1.7-1.5c-1.3-.6-3.8-.6-5.7-.6 0-.7-.6-1.3-.4-2.1.6-1.1 4.7-2.8 6-3.4.9-.2 1.9-.4 2.8-.6l.8-.9 1.3-1c.7-.7 1.3-1.5 2.1-2.3l.2-.2c1.7-1.1 2.8-2.7 4.3-3.8 1.3-1 2.6-1.7 3.8-2.7.8-.6 1.3-1.5 2.1-1.9l.2-2.1.4-.2 2.1.2c.8.2 1.3.4 1.7.8 1.3.7 1.9 2.1 2.5 4v.2l-.4.2-.6-1.1c-.2-.8-.8-1-1.5-1.3h-.4-.2c-.2 1.3.4 3.2.6 4.5v.4c.2 1.1.2 2.5.2 3.6h-.2-.6c-.6 1.5-.6 3.4-.9 5.3-.6 2.8-1.9 6.4-1.1 9.8.4 1.3 1.3 2.5 1.9 3.8l.8-.2h1.1l.9 1.1c1.1.9 2.3 2.1 3.4 3l1.3 1.5c.9.9 2.1 1.7 3 2.6 3.4 2.7 6.4 5.7 9.8 8.1.6.6 4.5 4.2 7.7 6.3v.7c-.3 1.1-1.3 3.2 0 4.9 1.7 1.7 3 1.5 4 1.5h.4c.2-1 .2-2.7.2-3.4 3.4 2.6 10 7.5 13.2 9.8.8.6 1.3.9 1.5 1.1 1.7 1.5 3.6 2.8 5.3 4.4.8.6 1.7 1.1 2.4 1.9.4 2.6-.2 6 .8 8.5 2.6.6 4.9-.6 6-2.1 1.7.2 3.4.4 4.9.4.8.4.8 1.1 1.1 1.9l.9 1.3.4.4c.4 1.7.2 2.8-.4 4-.8 1.3-1.9 2.5-2.3 4-.6 2.1 1.3 2.8.7 4.7-.4 1.3-2.5 2.1-2.1 4 .2.7.8 1.7.6 2.8-.4 1.3-.9 2.8-1.3 4-.9 3.2-1.7 6.4-2.6 9.3-.6 1.7-1.1 3.2-1.7 4.9-1.1 2.8-2.6 5.9-3.8 8.9-.8 1.3-1.5 2.7-2.3 3.8-.9 2.3-1.9 4.7-2.8 7-1.9 3.6-3.6 7.4-5.5 10.8l-.8 1.3c-2.3 3.8-4 7.9-7.3 10.6-.9.8-1.9 2.5-3.6 2.5-.6-1-.6-2.8-1.7-3.2l-.4-.2c-1.1-.4-2.3.6-3.6.2l-.4-.2-.8-.9-4-.6zm-51.1 15.1-1.5-.4c-1.1-1.1-1.9-4-1.5-5.1l1.5-.2h.9.7c.3 1.6.1 4.2-.1 5.7zm58.4 13.6-2.3-.6-1.5-.6c-.4-.8-.9-1.1-1.1-1.9v-.2l.4-.4 1.9.4.4.8.2.2 1.9.2.6 1.3zm1.7 6.6h-.4c-.8-.7-1.1-4.1-.4-5.3l.8.4.9.2c.3 2.1 1.2 4-.9 4.7zm4-12.6c-1.7 0-2.6.2-4 .6l-1.5.2c-.4-1.1-.6-2.8 0-4l1.5-.4 1.9.2c.4.6.6 1.3 1.1 2.1l.9 1.1v.2zm36.9-55.1c-.6 1.1-.9 2.3-1.5 3.4-.6 2.5-.4 4.7-1.3 6.8-.4 1-.8 1.9-1.3 2.7-.9 1.7-2.3 3.4-3 5.3-1.1 3.8-2.3 7.8-3.4 11.7-.9 1.9-2.8 3-3.8 4.9-.8 1.1-.8 2.5-1.3 3.8-1.1 3-2.8 6.2-4.5 9.1-1.1 1.9-4.7 4.2-6.6 5.5l-.4.2c-1.1.4-2.4.2-2.8 1.3h-1.3l-.4-.2c-.4-1.9-1.3-3.2-3.2-3.2-.2-.8.2-1.9 0-2.7-.2-.6-.9-.9-1.7-.9-.2-1.1-.2-2.3-.2-3.4h1.7c2.5-.8 4.1-4.9 5.5-7 .8-1.1 1.7-2.3 2.4-3.6 4-6.4 7.4-13.4 10.6-20.8 1.1-2.8 2.5-5.7 3.6-8.5.2-.8.2-2.6.9-3 .6-.6 1.7-.4 2.5-.6v-.8l-.6-.4c-.2-.8.8-4 .9-4.5l1.1-1c1.3 0 3 .4 4 1.1l.6 1.1c.8 0 4-.7 4.5 0zm7 4.8-1.1 2.4-2.1 4.2h-.4c0-.7-.2-1.7-.2-2.4.6-.8 1.3-1 1.7-1.9.2-1.1.6-2.1.8-3l.2-.2.9-.7.9-1.7.8.6c-.4.8-1.1 1.7-1.5 2.7zm8.7-30.1c-.8 1.5-.6 2.8-3 2.8-1.7-1.3-1.3-2.1-4-2.8l-2.8 3.6-.6.6c-1.3 1-2.5 1.7-3.8 2.5l-.2 1.9-1.3.2c-.4.6-.9 1.7-1.7 1.9l-.4.4 2.3.8.2 1.5c-.6.4-1.3.6-2.3.6-.8-.7-1.1-1.1-2.3-1.1l-.6-.2.6-1.1.4-.4c.4-.8-.2-2.1.2-2.8l1.1-1.3c.8-1.1 2.1-4.2 1.1-5.9v-.4l1.3-.4c.4-1.5 0-3.4.6-4.7.8-2.8 2.8-5.1 5.1-6.4h.2l1.7-.7c4.1 0 6.2 2.3 8.1 4.3l.4.4c0 .9.2 1.7.2 2.5 0 .9.7 2.1.6 3.2z" fill="#231815" fill-rule="evenodd"/><path clip-rule="evenodd" d="m503.7 522.5c.7-1.3 1.3-2.5 2.1-3.8.4-.6.9-1.3 1.3-2.1.8-.7 1.3-1.5 1.9-2.3.2-1.3.2-2.6.4-4 .2-.9.6-2.1.9-3.2-.2-1.5-.4-3.2-.4-4.7l1.9.4v1.7c.4 1.7 1.1 3.6 1.5 5.1 1.1.6 2.3-.8 2.6-1.5.6-.6 1.1-1.3 1.5-2.1.9-1.7 1.5-3.8 2.3-6.1l1.7.2c.6 3.6-2.1 7.9-3.2 10.6-.2.8-.2 1.3-.4 1.9l-.4 1.5-1.5 4.7c-1.1 3-2.5 6.2-3.6 9.3-.2 1.3-.4 2.8-.6 4.2-.4 1.1-2.3 4.5-3.2 4.9-.2.6-.2 1.1-.2 1.9h.2c.9 0 2.3-.2 3-.7.8-.6 1.1-2.5 1.5-3.4 1.3-3.2 2.6-6.2 4-9.5l.4-.8c1.5-3.4 3-7.2 4.5-10.8.9-2.8 2.1-5.7 3-8.3.6-1.7 1.5-3.2 1.9-4.9 0-1.3 0-2.7 0-4 0-.9 0-1.7 0-2.4-.4-2.3-3-2.7-3.8-4.7-.6-1.7 0-4 0-5.9-.2-2.5-.4-4.9-.4-7.2l-1.3-.4c-.2-.6-.2-1.3-.2-2.3-.9-.2-3 .8-3.4 1.1 0 .7-.2 1.3-.4 2.1l1.1-.2h.2l-.2 1.5-1.1.2h-.8c-.7-2.7-2.5-4-3.6-6.2-.6-1.3-.7-3-2.5-3-.4 1-1.9 2.7-1.7 3.8.4 1.1 1.7 1.7 1.9 2.8v15.3c.4.6.9.8 1.1 1.5l-1.5 1c0 1.7-.4 2.5-.6 3.8-.2.9 0 1.9-.4 2.7-.8 1.1-1.3 2.3-2.1 3.6v1.7c-.2 1-.4 1.9-.4 3-.7 1.7-1.5 3.4-2.3 5.1l-1.1 4.5-.2.8-1.9 1.1c-1.1 1-1.7 2.8-1.7 5.1l1.3.6c1.4-.8 2.4-2.1 2.9-3.2z" fill="#231815" fill-rule="evenodd"/><path clip-rule="evenodd" d="m504.7 541.2-.9.6c-1.1.9-1.7 2.7-2.3 4.4-.4.7-.9 2.3-.8 3l1.9.2c.6-.7.8-1.9 1.1-2.6l.2-.2c.6-1.1 1.7-1.9 2.3-3l.4-2.3-.4-.2z" fill="#231815" fill-rule="evenodd"/><path clip-rule="evenodd" d="m490.9 513.2c-.9-.4-.9-1.9-1.7-2.3l-.9 1.3c.2.8.8 2.3.6 2.8-.2.6-.6.8-1.3.8l-.2 2.1c-.6.8-2.6 0-2.8 2.1-.2 0-1.1.6-2.3 1.1-.9.7-2.1 1.5-2.6 1.7l-2.1.9v2.8c.4.6 1.1.9 2.1.9.8-.9 1.7-1.7 2.6-2.3l1.1-.8c1.1-.8 1.9-1.9 3-2.5.9-.7 2.6-.9 3.4 0h.2c.2-2.1.2-4.2.2-6.2.6-1 1.9-1.3 3.2-1.3l-.2-1.1z" fill="#231815" fill-rule="evenodd"/><path clip-rule="evenodd" d="m472.8 501.1-.4.2-.9.4c-1.3.6-1.3 2.3-1.1 4.2.6.2 1.3-.2 2.1-.4l1.3-.8c.2-.9 0-1.9-.2-2.6l.9-.8v-1.3l-1.5-1.5c-.2.7.2 2-.2 2.6z" fill="#231815" fill-rule="evenodd"/><path clip-rule="evenodd" d="m461.7 588.5c.2-1.5.2-1.5-.2-3.2 0 0-.8.4-1.9 1.1-.4.4-.9.9-1.7 1.5l-.6.6c-2.1 1-3 1.9-3.2 2.1v.9c1.9 0 3-.4 3.8-.9 1.4-.8 2.1-1.8 3.8-2.1z" fill="#231815" fill-rule="evenodd"/><path clip-rule="evenodd" d="m382 500c1.1-.8 1.3-1.5 1.3-3.4l-1.1-.8c0-.8.2-1.1.4-1.7h.9 1.1l1.3-1.7c.6-.8 1.1-2.1.9-3.4-.4-1.1-1.7-2.8-3.4-4.5-1.5-1.5-3-2.8-4-3.4.4-1.5 1.7-1.9 2.8-2.7l1.1-.8c2.6-1.5 4.1-1.9 9-1.9h3l1.1.4c4.7 1.9 8.1 7.8 7.9 14l-1.3.7c0 2.3-1.3 2.3-2.6 3.2-1.3 1.1-2.8 2.1-4 3.4-.6.7-.9 1.5-1.3 2.5v.2h1.3c1.9-.2 2.8-1.5 3.6-2.8l.8-1.3c.8-.2 1.5-.4 2.3-.6 1.5-1 2.6-1.9 3.8-3 .9-.8 1.7-1.9 2.6-2.8.8-1 1.7-1.5 1.9-2.8.8-3.8-3.2-5.7-2.3-9.8.8-3.8 2.3-7.2 3.4-10.8.4-1.5 1.1-2.7 1.1-4.4l-.6-.6-.2-.4c2.1-1.1 1.1-4.7 1.5-7.2 0-1.1 0-2.3 0-3.2-.7-2.5-4.3-5.7-7.5-6.1h-.6l-1.5 1.5v6.1l1.1 1.5v7c.2 2.5.2 5.1.4 7.6v2.5c-.4 1.1-1.3 2.5-2.1 3.4l-1.1 1.1c-.6.2-4.3.6-5.5.2l-1.1-.7-1.3-.8c-2.1-.7-4.3-1.5-6.4-2.1-.8-.4-3-1.5-4-1.1l-1.5 1-1.3 1.5c-.4-.8-.6-1.5-1.7-1.7 0-.8.6-1.9.2-2.8-.2-1.1-4.5-4.4-5.8-4.4-.2 4.2 2.8 7.6 5.8 8.7.4.7-.2 1.3-.2 1.9-.2.9 0 1.9-.2 2.5-.6 1.3-3.6 2.3-5.5 1.7h-.4l-.8-.9c-.9-.7-1.7-1.5-2.3-2.5-.9-1.1-1.7-2.3-2.6-3.4l-1.3-1.7c-1.3-2.8-1.5-4.7-3.6-6.6h-.2c-.4.6-.2 1.7-.2 2.7v2.7c.6 2.1 2.8 3.4 4 4.9l-.9 1.5v.4h1.3c.9 1.5 2.3 2.5 3.4 3.8l.2.2c.9 1.3 2.1 2.5 3.4 3.4 1.3 1.3 3 2.3 5.1 3.2 1.1.6 2.1 1.5 3.6 1.9h.4l.4 1.1-.8.8c-1.1.9-2.8 1.3-2.8 3.2-.9.4-2.1.4-3 1 0 1.7 1.5 2.3 1.7 4.3-.6.4-1.3.2-2.1 0l-.6-.9c-.4-1.1-.2-2.3-.8-3h-1.1l-.4-.2c-1.1.8-1.1 2.3-1.3 4-.4 0-.9-.2-1.7-.7-1.3-.8-3-2.1-3.6-2.5l-1.7-1.1c0-1-.2-1.7-.4-2.7l-.4-.2c-1.1.8-2.3 1.5-2.6 2.8v1.5c2.8 1.5 6.2 2.3 8.7 4l.4.4c.9.7 1.9 1.9 3 3 1.7 2.1 4 4.2 6.4 4 .6-.9.6-4.2 0-5.1-.6-1-1.9-.6-1.9-2.5l.4-.8c1.3.1 1.7.9 2.6 1.1z" fill="#231815" fill-rule="evenodd"/><path clip-rule="evenodd" d="m375.4 431.7c-.6-2.1 1.3-3.8.9-5.9l-.6-.2-.9.6h-.2c-.6.7-1.5 4.2-1.5 5.5l1.7.2z" fill="#231815" fill-rule="evenodd"/><path clip-rule="evenodd" d="m363.9 454.8 1.1-1.9 1.3-.4c1.5-.7 2.3-2.3 3-4 .8-.2 1.3-.2 2.1-.2.9.2 2.1.4 3 .2h.4c.8-.2 1.7-.2 2.3 0l1.3 1.1-.6 1.3-3 .4h-.9c-.2.9-.2 1.7-.2 2.6l1.1.8c1.7 1.3 3 3.4 5.5 4 .9.2 1.9-.2 2.6-.4l.6-.2 3-.6c1.1-.4 2.3-1.1 3.8-1.3.6-1.5 1.1-4.3 3.4-4.3.8.7 1.1 1.5 2.6 1.5 0-1.1.2-2.3.4-3.4.8-3.8 2.5-7.2 5.1-8.7 1.1-.7 3.6 0 4.9-.2h.4c1.5-.4 3.6-1.3 4-2.3.6-1.1-.8-5.9-1.1-6.8-1 0-1.9-.2-2.8 0-3.4.2-5.8 1.9-8.5 3.2l-1.9.8-3.8 1.9c-1.1.7-2.6 1.9-4.3 2.3-.9.2-3 0-5.1-.6-2.1-.4-4.1-1-4.5-1.3l-.6-1.3c1.1-1.5 3-1.7 5.1-1.7 3 .2 6.6.8 8.7-.7v-.2l-1.5-1.5c-.9-.6-5.1-1.3-6.8-.9l-.4.2-1.6.8c-.9.4-1.9-.4-2.6-.6v-.4c2.1-2.8 4-4.9 3.2-9.8l-.6-.2-.9.4c-.2 1.1 0 3.2-.4 4.5-.4 1.5-3.4 4.4-4.7 4.7v2.7c-.2 1.3-.4 2.6-.6 4.2l-.6.2c-1.1 0-1.9-1.1-3-.6l-.4.2-2.3 1.3c-1.9 1.1-4.3 2.5-6.4 4.2-1.1.8-2.3 1.7-3 2.8-.8 0-2.3-.2-2.8.2-.9.4-.4 2.1-.6 3h-1.7l-.4-.8-.9-.4c-2.5 2.3 1.3 8.1-3.2 9.5h-.1c-.2-3.8-5.1-4.9-8.7-5.5l-.2-1.7h-.9l-.4 1.1-.6 1.1c-.6.6-1.5 1.1-1.9 1.9-.2 1.5 2.3 4.9 0 5.3 0 1 .9 2.3 1.7 2.6h.8.9v1.1h.6c.2-.6.2-1.7.2-2.6.6-.2 1.5-.4 2.3-.2.6 1.1.6 1.9 2.3 1.9.2-1.9-.8-4.5 1.7-4.5.2.9.4 1.9.6 3h1.7c1.5-1.1 2.3-3.2 3.4-4.7l.9-1c.2-.7.2-1.3.4-1.9.2-1.1.9-3.4 1.5-4h2.3c.4 1.5.2 3.2.2 4.9.9.2 2.8.2 4.1 0zm19.6-8.7.4-1 .4-.2h1.9v1.9h-2.1l-.6.8c-.6.6-1.1 1.1-2.6.9l-.2-.6c.7-.7 1.5-1.6 2.8-1.8z" fill="#231815" fill-rule="evenodd"/><path clip-rule="evenodd" d="m371.5 464h-.8l-.4.2.8 2.1.4-.2 1.1-.9z" fill="#231815" fill-rule="evenodd"/><path clip-rule="evenodd" d="m354.7 408.6c.2-.8.4-1.3.4-1.9l-.4-.2-.4.2-.6.2-.4 1.1v.4l.9.2z" fill="#231815" fill-rule="evenodd"/><path clip-rule="evenodd" d="m340.2 537.8h-.2-.2-.4l-.2.2v.2l.6.2z" fill="#231815" fill-rule="evenodd"/><path clip-rule="evenodd" d="m543.1 445.3-59.7 40.9 21.1-67-57.1-44.4 70.1-.6 24.3-68.3 22.2 66.8 72.2 2.1-56.3 42 20.3 69.4z" fill="#e60012" fill-rule="evenodd"/><path clip-rule="evenodd" d="m482.3 306.1-34.3 43.7v-54.1l-52.1-19.3 51.3-16.6 2.3-55.6 31.6 43.9 53.4-15.2-31.7 43.7 30.7 46.4z" fill="#e60012" fill-rule="evenodd"/><path clip-rule="evenodd" d="m368.1 286.8-13.4 39.9-13.8-38.3-42-.4 32.2-25.2-12.6-40.1 33.7 22.9 34.1-24.4-11.3 39.3 33.8 25z" fill="#e60012" fill-rule="evenodd"/><path clip-rule="evenodd" d="m292.5 319.2-2.3 35-19.2-28-33.7 8.7 20.5-27.1-18.6-29.7 32 11.4 22.2-26.9-.7 34.1 32.4 12.8z" fill="#e60012" fill-rule="evenodd"/><path clip-rule="evenodd" d="m246.7 362.1 8.7 28.7-23.8-16.8-24.5 17.2 8.5-27.8-23.7-18.1 28.8-.6 10-28.4 9.4 27.6 29.8.6z" fill="#e60012" fill-rule="evenodd"/><path clip-rule="evenodd" d="m226.5 419.2 15.5 21.2-24.7-7-15.5 21.4-.9-25.8-25.1-8.1 24.2-8.7v-26.3l15.8 20.3 24.9-8.2z" fill="#e60012" fill-rule="evenodd"/><path clip-rule="evenodd" d="m222.4 469.5 16.4 11.9-19.6.8-6.2 19.1-6.8-18.4h-20l15.3-12.1-6.3-19.2 16.3 10.9 16.3-11.9z" fill="#e60012" fill-rule="evenodd"/><path clip-rule="evenodd" d="m222 507.3 14.9 4.6-14.1 5.5.3 15.5-9.6-11.8-14.5 5.1 8.1-12.6-9.2-12.5 14.5 4 8.9-12.9z" fill="#e60012" fill-rule="evenodd"/><path clip-rule="evenodd" d="m236.1 538.4 12.9.3-10 7.4 3.5 12.3-9.9-7.2-10.6 7.2 3.8-11.7-10.2-8h12.4l4.2-12.1z" fill="#e60012" fill-rule="evenodd"/><path clip-rule="evenodd" d="m251.8 568.8 11.5-3.6-6.6 9.6 7 9.7-11.2-3.2-7.1 9.8-.4-11.7-11.3-3.8 10.9-4v-12.1z" fill="#e60012" fill-rule="evenodd"/><path clip-rule="evenodd" d="m269.7 591.3 8.3-5.1-3.2 8.9 7.3 6.4-9.4-.6-3.8 9.1-2.4-9.1-9.8-.7 7.9-5.3-2.3-9.5z" fill="#e60012" fill-rule="evenodd"/><path clip-rule="evenodd" d="m594.4 274.2-4.2-6.5-3.2-4.3-6.9 4.5 21.6 52 24.7-17.4 46.4-32.7-9.6-16.8-36.8 29.9-18.6 15.1-5.3-10.4-4-6.6z" fill="#e60012" fill-rule="evenodd"/><path clip-rule="evenodd" d="m626.4 167.3c-57.8-56.5-136.8-91.3-224.4-91.3s-166.6 34.8-224.5 91.3c-20.7 20.2-38.6 43.1-53.1 68.3l53.1 43.3 17.7 14.4c37.9-75.6 115.9-127.5 206-127.5h1.5c90.1 0 168.1 51.8 206 127.5l17.7-14.4 53.1-43.3c-14.4-25.2-32.3-48-53.1-68.3z" fill="#e60012" fill-rule="evenodd"/><path clip-rule="evenodd" d="m196.2 298-18.7-15.1-36.7-29.9-9.6 16.8 46.3 32.7 24.7 17.4 21.7-52-7-4.5-3.2 4.3-4.1 6.5-4.2 6.8-3.9 6.6z" fill="#e60012" fill-rule="evenodd"/><path d="m209.2 233.3-9.8 13.6c-1.9 2.6-3.8 7.4-9 5.7-1.9-.6-4.1-4-5.7-5.5-4.1-4.4-8.3-8.7-12.4-13.1-.9.6-1.3 1.9-2.1 2.7l-4.7 6.6-1.1 1.5v.2l1.1 1.1c1.3 1.5 3.4 3.8 4 4 1.3-1 1.7-2.8 2.8-4 2.4 2.5 4.7 4.9 7 7.4 1.7 2.1 3.8 3.8 5.5 5.9.8 1 1.7 1.5 2.3 2.5 1.1 1.9-.6 4.2-1.5 4.9v.2c1.3 1.5 2.6 2.8 4.1 4.4h.2c1.3-1.9 4.5-5.1 4.9-7.6.4-1.3-.2-2.5-.2-3.6.9-.6 2.8-.2 4-1 .8-.7 1.3-1.9 1.9-2.8 1.9-2.5 3.8-5.1 5.7-7.8 1.1-1.5 2.1-3 3.2-4.5 2.3-3.2 4.7-6.2 6.8-9.5 1.5-1.9 2.8-3.8 4.3-5.7-1.5-1.7-3-3.2-4.5-4.7z" fill="#fff"/><path d="m264 136.9c.9-1.1 5.5-2.6 7.2-3.6 3-1.7 6.6-3.4 9.8-4.9.9-.4 1.7-.8 2.6-1.1.9-.6 1.9-.7 2.8-1.3 1.3-.9 3-1.5 4.5-2.3l1.1-.6 1.5-.6c.4 1.1.8 3.2 1.5 3.8.9-.6 5.8-2.7 6-3.4.4-.8-.4-2.3-.6-3-.8-2.7-1.3-5.3-1.9-7.8l-.4-.2c-.9 1-2.8 1.3-4 1.9-.8.6-1.5 1-2.3 1.3-2.5 1.3-4.9 2.3-7.5 3.4-.6.4-2.3 1.5-3.6 1.9l-.8.2-.6-1.5-.4-.2c-1.3 1.1-3.2 1.9-4.7 2.6-.8.4-1.5.4-2.1 1l.6 1.3c0 1.1-3 1.9-4 2.5-4.7 2.3-9.2 4.5-13.9 7 1.1 3.6 2.4 7.2 3.6 10.8l.2.2c2.1-1.1 4.3-2.3 6.4-3.4 0-1.4-.4-2.7-1-4z" fill="#fff"/><path d="m614.7 204.8 3.8 5.1 6.8 9.6 1.5 2.1h.2c1.5-1.7 3-3.4 4.7-5.1-1.3-1.7-2.5-3.4-3.6-5.1-.6-.6-1.7-1.3-1.5-2.3l1.9-1.7v-.2l-3.2-4.5-1.5-2.3h-.2c-.8.6-1.3 1.1-1.9 1.9-.9-.2-1.3-1.5-1.9-2.3-.2-.4-.8-1.1-1.3-1.9-.9-1.5-2.1-3-2.4-3.2-.6.6-2.4 2.8-3.8 4l-.9.8c0 .6.4 1.1.9 1.9.9 1.1 2.1 2.4 2.4 3.2z" fill="#fff"/><path d="m166.8 229.9-1.3-1.3-4.3-4.5h-.2c-.6.6-1.1 1.3-1.5 2.1-1.3 1.7-2.4 3.4-3.8 5.1v.2c2.3 1.5 3.6 4.1 5.5 5.9.8-.2 1.3-1.5 1.7-2.1l2.6-3.4z" fill="#fff"/><path d="m243.5 181.5c-.6-.7-2.8-4-2.6-4.9 3.4-3 7-5.9 10.6-8.9-.2-1-3.4-6.6-4-6.8-.6.9-1.7 1.5-2.6 2.3-1.9 1.5-3.8 3.2-5.7 4.7l-11.9 10.2-8.7 7.4c-2.1 1.7-4.3 3.6-6.4 5.5-.9 1-2.1 1.5-3 2.5l-.2.4.2.4c1.3 1.9 2.6 4.2 3.6 6.1h.2l14.3-12.3 6.6-5.5h.4c2.8 3.8 4.5 8.3 7.2 12.3.6.8 2.5 3.4 2.3 4.2 0 1.1-2.8 3-3.8 3.8l-1.5 1.3c-1.9 1.5-3.8 3-5.7 4.5-.8.8-1.5 1.5-2.3 2.3 1.1 1.9 2.3 4 3.4 6.1h.2c4.5-3.6 9-7.4 13.4-11.3 1.9-1.7 4.7-2.8 5.3-5.9.4-2.3-1.3-4.4-2.1-5.5-2.5-4.4-4.9-8.7-7.2-12.9z" fill="#fff"/><path d="m321.3 111.7c1.5.2 3.6-.7 5.1-.9.8-.2 1.7-.4 2.6-.6v-2.1c-.4-2.4-.8-4.7-1.1-7.2h-.4c-2.5.6-4.9 1.1-7.5 1.7.2 2.1.6 4 .9 5.9.2 1.1 0 2.3.4 3.2z" fill="#fff"/><path d="m168.9 225.2h.2c.9-1.3 1.9-2.7 2.6-4 1.5-1.7 2.8-3.6 4.1-5.3.9-1.5 2.1-3 3-4.5 1.5-1.9 2.6-3.8 4-5.7l1.1-1.5.4-.2c.9 1.9 1.1 4.3 1.5 6.2.2.8.4 1.7.6 2.5 1.3 1.3 2.6 2.7 4 4.2 1.7 1.9 3.4 3.8 5.3 5.7 1.5 1.9 3.8 3.2 5.1 5.5-.2 1.5-1.7 2.7-2.5 3.6-1.9 2.7-3.8 5.3-5.7 7.9.2.4 4.3 4.9 5.1 5.5 2.5-4.1 5.5-7.9 8.3-11.9.9-1.5 2.4-3 3.2-4.9l.4-.7c.2-.8 0-1.5-.4-2.3-.9-2.7-4.1-5.1-5.1-6.4-1.3-1.3-2.6-2.7-4-4-1.5-1.7-3.2-3.4-4.7-5.1-.8-.8-2.1-1.7-2.8-2.7-.4-.6-.2-1.5-.4-2.3-.6-1.7-.9-3.8-1.5-5.5l-.2-1.7c-1.9-2.1-4-4-5.8-6.1h-.2c-1.1 2.5-3.4 4.5-4.9 6.6-2.8 4.2-5.7 7.9-8.5 11.9-1.7 2.3-3.4 4.5-4.9 6.8l-.8 1.3-1.3 1.5v.2l1.3 1.3c1.4 1.4 2.7 2.6 3.5 4.1z" fill="#fff"/><path d="m332.2 108.3 18.7-4.2 12.8-2.6c.6-1-.8-5.9-.8-7.8h-.4c-.9.4-2.1.4-3.2.6-2.3.6-4.7 1-7.2 1.5l-1.3.4c-4 1-8.3 1.7-12.4 2.7-2.5.6-4.9.9-7.3 1.5-.2.4.7 7 1.1 7.8z" fill="#fff"/><path d="m307.8 142.4-.4-.2c-2.1 1.1-4 2.1-6 3 0 1.1.8 2.3.9 3.2.8 2.3 1.5 4.7 2.3 7.2.4.7 1.3 2.3.9 3.4-.2 1.3-2.1 1.7-3.2 2.3-2.4 1.3-4.9 2.5-7.5 3.8l-2.6 1.3-.8.4-.2-.2c-.4-1.9 0-4.5-.4-7-.4-4-.6-8.1-.8-12.1l-.4-.2c-2.1 1.1-4.3 2.3-6.6 3.4-.4 1.9 0 6.1.4 7.9v4c.4 2.7 0 5.9.4 8.3.6 1.9 1.3 3.8 1.9 5.7v.2c1.5 0 4.9-2.3 6.2-3h.2c4.9-2.4 10.2-4.5 14.9-7.4 2.3-1.3 4.9-2.1 5.7-4.9.8-2.7-.4-5.3-.9-7.4-1.4-3.8-2.7-7.8-4-11.7z" fill="#fff"/><path d="m333.8 117c.2 2.6.6 5.1.9 7.8h.2c1.5-.2 3-.6 4.5-1 .4 1-.9 5.3-1.1 6.4-.8 2.8-1.3 5.7-1.9 8.5.2 1.7.6 3.2.8 4.9.8.2 2.8-.6 3.6-.8l1.3-.2c2.4-.6 5.3-1.1 7.9-1.7l.9-.4c3.8-.7 7.5-1.5 11.1-2.3 2.5-.6 4.5-.6 5.7-2.5 1.1-1.5.4-5.5 0-7.6-.2-1.5-.4-2.8-.8-4.4-.4-.6-5.1 1-6 1l-.2.2c.2 1.9 1.1 4.2.8 6.2-1.3.8-3.4.8-4.9 1.1l-5.7 1.1-6.6 1.5c0-2.6 1.3-6.4 1.9-8.9.2-1.3.2-2.7.8-3.8.4-.6 2.5-1 4-1.1.8-.2 1.3-.2 1.5-.2 4.7-1.1 9.2-2.1 13.8-3 .4-.6-.8-6.4-.9-7.6l-.6-.2-13.8 2.8z" fill="#fff"/><path d="m603.4 206.5-2.1 2.1-2.4 2.7 2.4 3.6 10.9 15.3 3.2 4.4.4.2c.4-1 1.7-1.9 2.6-2.8.8-.7 1.5-1.3 1.7-2.1-.4-.6-1.1-1.1-1.3-2.1l6.4-4 .4-.2.2-.2-.6-.8c-1.1-1.7-3.6-5.1-4.1-5.5-.8-.2-1.7.9-2.1 1.1l-.6.4-4.1 2.8c-.2-.2-1.1-1.3-2.1-2.5-.8-1.1-1.5-2.1-1.7-2.5 0-.4.8-1.9 1.7-3.4 1.1-1.9 2.3-4 2.6-4.4-.2-.4-1.5-2.4-2.6-4-.8-1.1-1.5-2.1-1.9-2.3h-.2c-1.9 1.9-2.6 4.9-4.5 7h-.2c-.4-1.1-1.5-1.9-1.9-2.8z" fill="#fff"/><path d="m207.7 190.2 1.5-1.3 4.7-4c-.4-1.9-3-3.8-3.2-5.7l16.6-14.2 8.7-7.4c.6.4 2.8 4.5 3.2 5.3l.4.2c2.1-1.7 4.1-3.4 6.2-5.1-.2-1.1-1.3-2.3-1.9-3-1.3-2.1-2.5-4.4-3.6-6.4-.6-.7-.9-2.5-1.9-2.8-.8 1.3-2.4 2.3-3.6 3.2-2.5 1.9-4.9 4.4-7.5 6.4l-.4.2c-.9.7-2.8 3.2-4.1 3.4l-.9-1.7c-1.1.2-1.7 1.1-2.3 1.7-1.9 1.3-3.4 3-5.3 4.4.4.7.8 1.3 1.1 1.9v.2l-6.2 5.3-8.5 7.2-.2.2c2.3 4.2 4.7 8.1 7 12.1h.2z" fill="#fff"/><path d="m281 148.4c1.7-.8 3.8-1.7 4.3-1.9 2.3-1.1 4.5-2.3 6.8-3.4s4.5-2.3 7-3.4c2.3-1 4.3-2.7 6.8-3.2.4-.7-1.3-5.5-1.7-6.4l-.4-.2c-.6.4-1.3.8-2.1 1.1-1.9.8-3.8 1.7-5.5 2.7l-4.1 1.9-11.1 5.4-3.4 1.7c-.6-.6 0-7.4-.6-8.7l-.4-.2c-2.5 1.3-4.9 2.6-7.4 3.8l.2 1.1v7.8l-2.1 1.1c-1.3.6-5.8 2.6-6.6 3.4.4 2.3 1.7 4.2 2.1 6.2h.2c1.5-.4 6-3.6 7.2-3.4.4 1.7.2 3.4.4 5.3.4 4 .6 7.9.8 11.9.2 1.1.4 4.7 0 5.3-.2.6-1.1 1-1.9 1.3.2 2.3 1.7 4 2.1 6.2l4-1.9c1.3-.8 2.8-1.5 3.4-3 .6-1.9.4-5.1 0-7.2-.2-4.5-.4-9.1-.4-13.6-.2-1.1-.8-7.2-.4-8.1.2-.3 1.5-.8 2.8-1.6z" fill="#fff"/><path d="m581.2 201.9c-.4-.6-3.2-3-4.9-4.4l-1.3-.9c-.6 1.1-.6 2.6-.9 4-.8 3.6-1.5 7.2-2.3 10.8-.4 1.5-.8 3.8 0 5.1.8 1.5 3 3.2 4.5 4.4l.4.4 1.1.9.4.2c.9-1.9 2.1-3.6 3-5.5-.8-.6-1.5-1.1-2.3-1.9-.6-1 .2-2.8.4-3.8.6-3 1.1-6.2 1.9-9.3z" fill="#fff"/><path d="m556.3 191 3.2-2.3c.9-.8 1.9-1.9 3-2.3-.2-.8-1.5-1.3-2.1-1.9-1.3-.8-2.8-2.8-4.1-3.6h-.2c-3 1.9-5.8 4-8.7 6.1-1.5.4-3-1.1-3.8-2.1l-.6-.4c-1.1 1.7-2.1 3.4-3.2 5.1.2.8 2.8 2.8 3.4 3.2l.4.2c.9.8 1.9 2.3 3.2 2.7 2.4.8 4.1-1 5.7-2.1z" fill="#fff"/><path d="m544.4 140.5c.9-2.8 1.9-5.7 2.8-8.5 0-1-.9-.8-1.5-1.1-.6-.4-1.3-.7-2.1-1.1-1.1-.4-2.1-.9-3-1.5-3.2-1.7-6.6-3.2-10-4.7-1.5-.7-3-1.5-4.5-2.3-1.7-.9-3.4-1.7-5.3-2.6l-1.3-.6-1.5 4.5-7.9 23.5-3.4 9.8v.2c-.8-.2-1.3-.6-1.9-.7-.6.4-2.3 5.5-2.4 6.4 2.1.9 4 1.9 5.8 2.8v.2c-3 1.9-2.8.4-5.3-.4-.8 1.9-1.3 3.8-1.9 5.7.6.6 1.7.8 2.6 1.3 1.3.7 3.2 1.9 4.7 2.1.4.2.9 0 1.7-.4 2.3-1.1 5.5-3.6 6-4.4.6 0 1.1.2 1.9.6.9.6 1.9 1.1 2.6 1.5 1.1 1.5.8 6.1 1.5 7.9 1.5 3.4 5.3 4.4 8.5 6.1h.2c.4-.8 2.1-5.3 1.9-5.7-.4-.8-1.1-.8-2.1-1.1-.9-.4-1.9-.9-1.3-3l1.3.6c.9.6 1.9 1.3 2.8 1.3.8-2.1 1.5-4.2 2.1-6.4l-.8-.6c-.2-1.1.8-2.6.9-3.6.9-2.3 1.5-4.5 2.3-6.6 1.9-5.7 3.8-11.2 5.7-16.6.4-.9.6-1.9.9-2.6zm-16.2 25.9c-.9.2-3.2-1.3-4.1-1.7l-6-3-.6-.2c-1.1-.6-2.4-1.5-3.8-1.9-.4-.8.4-2.5.8-3.2 1.1.2 2.4 1 3.6 1.7l.8.4c3.4 1.7 7 3 10.2 4.9zm3.2-9.5h-.8c-.9-.2-2.8-1.3-3.4-1.7-2.1-1.1-4.3-2.1-6.6-3-.8-.4-1.7-1.1-2.6-1.5l-1.3-.4c-.4-.7.6-2.6.9-3.4l.4.2 12.6 6.2 1.5.7c.3.8-.5 2.2-.7 2.9zm3.1-9.4c-.4.2-2.8-1.1-3.8-1.5l-.2-.2c-3.6-1.7-7.2-3.4-10.7-5.3.2-1 .6-2.3.9-3 1.9.4 3.4 1.5 4.9 2.3 1.7.9 3.4 1.7 5.1 2.5 1.5.7 3 1.3 4.5 2.3h.2c0 1-.6 1.9-.9 2.9zm3.2-9.5v.2c-1.5 0-2.6-1.1-3.8-1.7l-3.2-1.5-7.7-3.6c-.2-.7.6-2.4.9-3.2 1.3 0 2.3.9 3.4 1.5s2.3 1.1 3.4 1.7c1.5.8 2.8 1.5 4.3 2.1l3.4 1.7z" fill="#fff"/><path d="m592.1 197.2c-.8-1.3-2.4-2.3-3.6-3.2-2.8-2.3-5.5-4.7-8.1-7-.9-1-2.1-1.5-3-2.5 0-1.1.9-2.1 1.5-2.8 1.5-2.3 2.4-4.7 3.8-7 .6-.8 1.7-2.1 1.9-3.2l.4-.2c3.2 2.8 6.6 5.7 10 8.3.8.8 2.6 3.2 4.3 2.8.7-.2 1.5-1.1 2.1-2.5.9-1.5 1.9-3.4 2.6-4.4v-.2l-2.6-2.3-3-2.7-.2-.2-.8 1.3c-.9.4-1.7-.9-2.3-1.3-1.7-1.7-3.6-3-5.3-4.7-1.9-1.3-3.6-2.6-5.3-4.1-2.8-2.3-5.5-4.7-8.3-7-.9-.7-1.7-1.5-2.6-2.3l-4.1-3.4-1.5-1.5c-.9-.6-1.5-1.5-2.5-1.9-3.2 5.1-6.2 10.4-9.2 15.7-.6.9-.9 1.9-1.5 2.7-.8 1.5-3.8 4.9-3.2 7.2.6 2.5 2.8 3.8 4.7 5.3h.2c3.6 3.2 7.2 6.2 10.7 9.3-.7 1-1.3 1.9-1.9 2.8-1.3 2.4-2.8 4.9-4.1 7.6-.6.8-1.7 2.1-1.9 3l-.4.2c-.7-.4-1.7-.9-2.6-1.7-1.1-.7-2.1-1.7-2.6-2.5l-.4.2c-1.1 1.7-2.1 3.6-3.2 5.3l6.2 5.3 1.9 1.7c.7.8 2.1 2.1 3.8 1.7 1.9-.6 2.8-3.2 3.8-4.7l3.8-6.8 4-6.6h.2l2.6 2.1 6.6 5.7c1.9 1.5 3.6 3.6 5.7 4.7 1-2 2.3-4.1 3.4-6.2zm-21.3-18.3h-.2l-1.1-1c-1.9-1.7-3.8-3.6-5.8-5.1-.9-.8-2.1-1.5-2.8-2.7-.4-1.3 1.1-2.8 1.7-3.8 1.9-3 3.6-6.2 5.5-9.5h.2l1.3 1.3c2.3 1.9 4.5 3.8 6.8 5.7.8.6 1.3 1.1 2.1 1.9-.2 1.3-1.3 2.7-2.1 3.8-2 3.1-3.5 6.5-5.6 9.4z" fill="#fff"/><path d="m634.7 216.7h-.4c-1.7 1.5-3.4 3.4-5.1 5.3-1.1 1.3-2.4 2.5-3.6 4l-.4.2-3 3.2-3.8 3.8-6.2 6.8-.6.6c-2.8 3-6 5.9-8.7 9.3l-1.7 1.5c-.8.8-1.5 1.3-2.1 2.3l.9 1.5 1.1 1.3c1.1 1.5 2.5 3.2 2.6 4.1h.4l1.1-1.3h.2c.6 1 1.5 1.7 2.1 2.7.9 1.5 2.6 4.5 4.5 6.2.8.7 1.3 1.1 2.1 1.3 1.5.4 3.2-1.5 4.1-2.8l.6-.6c2.1-2.1 4.1-4.2 6.2-6.4.9-1 1.7-1.9 2.5-2.8 1.3-1.5 2.6-2.7 2.3-5.3h.2c.6.2 1.1.6 1.9.4 1.9-.4 3.2-2.7 4.3-3.8 4-4.2 7.9-8.3 11.9-12.3v-.2c-4.3-6.5-8.9-12.8-13.4-19zm-11.9 32.7c-.4 1-1.3 1.5-1.9 2.3l-2.5 2.7-2.6 2.8c-.8.6-1.3 1.1-2.1 1.7-.4 0-.9-.6-1.5-1.3-.8-.9-1.7-2.3-2.1-2.8v-.2l2.1-2.3 6.2-6.6 1.5-1.7 3.2 4zm13.4-13.4c-1.5 1.5-2.8 3-4.1 4.4-1.1.9-1.9 2.5-3.4 3.2-1.1-.6-2.5-2.4-3.4-3.8l-.4-.7.4-.6 9.6-10c.6.2 3.4 4.2 3.8 4.9-.8.9-1.7 1.6-2.5 2.6z" fill="#fff"/><path d="m601.4 247.9c1.5-.7 2.5-2.5 3.4-3.4l7.5-7.8.9-1.1c0-.4-.4-.9-.9-1.7-.9-1.5-2.5-3.2-3-4-2.5-3.6-5.1-7-7.5-10.4l-.4-.6c-.9-1.7-2.3-3.8-3.6-4.9-2.4 1.9-4.7 4.5-6.8 7-1.5 1.5-3 3-4.5 4.5-1.1 1.1-2.3 2.3-3.4 3.6v.2c3.8 5.1 7.5 10.2 11.1 15.3 1.3 1.9 3 4.5 6.2 3.6zm-3.4-8.7-1.1-1.5c-1.5-1.9-3-4-4.5-6.1v-.2c1.9-1.1 4.3-4.4 5.8-6.1.8.4 1.3 1.9 1.9 2.4.4.8.9 1.3 1.3 2.1l1.1 1.5c.6.7 1.3 1.3 1.7 2.3-.6.6-1.5 1.9-2.8 3-1.4 1.5-2.7 2.6-3.4 2.6z" fill="#fff"/><path d="m479.1 117.4c-.8 1.3-.9 3.4-1.5 5.1l-.8 1.1h-1.9-.2c-.2 1.9-.6 3.8-.9 5.9l.2.2c1.3.2 4 1.1 5.7 1.1l.9-.2c2.4-1 3.2-6.1 4-8.7.4-1.1.6-2.1.9-3.2-.8-.4-4.3-1-5.8-1.3z" fill="#fff"/><path d="m446.1 146.1-.2-.2c-.2-1.5.8-5.5 1.1-7 .8-3.6.8-7.2 1.5-10.8.6-.2 3.8.8 4.7.9.4-.4.9-4.3 1.1-6v-.6-.2c-1.5-.4-3.4-.6-4.7-1.1-.2-.9.2-1.9.2-2.6.8-3.4.9-7 1.5-10.2.4-1.1.2-3.8.8-4.5l2.3.6 2.6.6v-.2l.2-.9.9-5.7-.9-.2-2.8-.6-13.6-3h-.2c-.8 1.7-.6 4.9-.9 6.8.2.6 4.3 1.3 5.5 1.5.4.8-.4 3.8-.6 4.7-.6 4-1.1 7.9-1.7 11.9-.9.6-4.5-.7-5.7-.9-.6.9-.9 5.7-1.1 7 .7.6 4.3 1.1 5.5 1.3l.2.2c-.9 6.1-1.7 11.9-2.6 17.8v.2c-1.9-.4-3.8-.7-5.7-1.1-.8 1.1-.9 4.5-1.1 6.1.8.7 2.6.6 3.8.9 4.5 1 9 1.9 13.6 3v-.2l.9-6.4c-1.6-.5-3.1-.7-4.6-1.1z" fill="#fff"/><path d="m457.2 113.1-.6-.2c-.6 1.1-.2 3.2-.2 4.9 0 2.7-.4 5.9.8 7.6.4.4.8.8 1.5 1 .9.2 1.9.2 3 .6.9.2 1.7.4 2.6.6.4-2.1.6-4 .9-6.1l-2.1-.6c-.6-1-.4-4.7-.2-6.6z" fill="#fff"/><path d="m405.9 141.2v-8.1-.2c6 .2 12.1.4 18.1.4h.2c.2-.6.4-6.4 0-7.2-.2-.4-4.5-.2-5.5-.2-4.3-.2-8.7-.2-12.8-.4-.2-.2-.2-5.9-.2-6.8.8-.4 2.6 0 3.8 0 2.6 0 5.5 0 8.1.2.9 0 1.9.2 2.6-.2 4-1.3 2.4-12.1 2.8-17 0-1.3 0-2.4 0-3.8 0-2.3 0-4.3 0-6.4l-21.7-.6-21.7-.4-.2.2c-.2 9.1-.4 18.2-.4 27.2 4.5.2 9.2.2 13.9.4 1.5.2 3.6-.2 4.7.2v10c0 4-.2 7.9-.2 11.9-.8.4-2.3.2-3.2.2-1.3 0-2.8 0-3.4-.6-3.4-3-2.3-12.3-2.1-18.3-2.5-.2-5.1-.2-7.5-.2-.4.8-.2 2.8-.2 4.4v9.3c0 1.5.2 3.8-.4 4.7-.9 1.1-2.3.2-3.8.7l-.2 1.9c0 1.9-.2 3.6-.2 5.3 1.1 0 2.1.2 3.2.2 2.8 0 5.8.2 6.4-2.1h.2c1.1.6 1.5 1.9 2.8 2.5 3.6 0 7 .2 10.6.2l1.5.2 22.8.4c.6-.9.4-6.2.4-7.6-5.9-.2-12.1-.4-18.4-.4zm-11.1-29.7c-2.4-.4-5.5.4-7.5-.4 0-2.7 0-5.5 0-8.1 0-1.5-.2-3.2.2-4.4l.2-.4 13.8.4 13.8.2c.6.4.4 2.5.4 3.4 0 2.8.4 7.9-.9 9.6l-13.2-.4h-6.8z" fill="#fff"/><path d="m480.6 105.9-.9.4c-1.1.4-2.6 0-3.2-.6-.2-1.3.6-3.2.8-4.5-2.3-.6-4.5-1-6.8-1.5h-.2c-.2 1.5-.4 3-.6 4.5-.7.4-2.3-.4-3-.6-2.6-.4-5.3-1-7.9-1.5-.4 2.5-.8 4.9-1.1 7.2.4.6 1.5.6 2.3.7 2.6.6 5.5 1.1 8.1 1.9.4.8-.4 3.8-.4 4.9-.8 4.5-1.3 8.9-2.1 13.4-.9.7-5.1-1-6.8-1.1-.6 1.3-.8 3.2-1.3 4.7l-.2.8-2.6 8.7-.2.8c-.4 1.7-.8 3.6-2.6 3.2-.8 1-1.1 5.1-1.1 6.6.8.2 2.3.6 3.8.7 1.1.2 2.3 0 2.8-.2l.2-.2c1.9-1.3 2.3-4.1 3-6.6.8-2.7 1.7-5.1 2.5-7.8.6-1.5.9-3 1.3-4.7h.6c.2 1-.4 3-.6 4-.2 1.3-.2 2.7-.4 3.8-.4 2.1-.9 4.5-1.1 6.4-.8.4-1.1 0-1.9.2-.2.2-1.1 5.5-1.1 6.2l.2.2c.8.6 1.9.4 3 .6 1.1.4 3.2 1.3 4.5.4 2.6-2.1 3-11.7 3.8-16.1.2-1.3 0-3 .6-4 .8-.7.8.8.8 1.3-.4 2.3-.2 4.9-.6 7.4-.4 2.1-.9 10-.2 11.5.9 1.9 2.8 1.9 5.1 2.5l2.3.6c.2 0 .4-1.3.6-2.6.2-1.7.6-3.6.4-3.8l-.4-.2-1.1-.2c-.9-1.3-.4-3.8-.4-5.9.4-4.5.8-9.3.9-13.8-1.3-.9-5.8-.8-6.6-1.7.9-6.2 1.7-12.5 2.6-18.7 1.5-.2 3 .6 4.5.9.8.2 1.5.2 2.3.2 3.6-.6 4-2.8 4.7-6.4.2-1.1.4-2.3.6-3.6-.9-.6-4.7-1.3-6-1.3-.6 1-.7 1.9-.9 2.9z" fill="#fff"/><path d="m510.1 129.3c.4-.7.6-1.7.8-2.5.8-1.7 2.3-2.6 3.4-4 .9-1.1 2.1-2.5 3-3.6l.8-.6 1.3-1.5-1.3-.9c-2.1-.9-5.5-2.7-6.2-3l-1.7 2.3-2.5 2.8c-1.1 1.3-2.3 3.4-4.1 4-.9.2-1.7-.6-2.3-1l-2.3 6.7 3.4 1.9-.8 2.3c-.6 2.3-1.5 4.3-2.1 6.6-1.9 5.7-3.8 11.2-5.7 16.8-1.1 3-1.7 6.6-3.2 9.5.4.6 5.5 3 6.4 3.4.7-.9.7-2.7 1.1-3.6.9-2.8 1.9-5.5 2.8-8.1 3.4-8.9 6-18.4 9.2-27.5z" fill="#fff"/><path d="m363.5 143.9c-4.1 1.1-8.3 1.7-12.3 2.6h-.4l-4.5 1c-1.9.6-7.2 2.1-9.4 1-3.8-2.1-2.8-5.1-3.8-10-.9-4.5-1.3-9.5-2.3-14-.2-1.7-.2-3.2-.6-4.7l-.2-.2c-3.4.8-6.8 1.5-10 2.3-.4.8.6 5.9.9 7.2.8.4 2.3-.6 3.6-.6.6 1.1.2 2.8.6 4.4.8 4.1.9 8.5 1.9 12.7.2 1.3 1.1 4.5.7 6.1-.4 1.3-2.5.6-3.2 1.3-.2.2.4 5.7.8 6.4 1.1.2 2.5-.6 3.4-.8 2.6-.6 5.7-.7 6-3.2h.2c.9.2 1.7 1.1 3 1.3 1.7.2 3-.4 4.3-.8 1.7-.4 3.4-.6 4.9-.9l3.8-.8 19.6-4.1c.6-1-.6-5.9-.7-7.2-1.2-.5-5.3.8-6.3 1z" fill="#fff"/><g fill="#231815"><path d="m102 329-13.2-5.4 11.8-38.9-1.4-.4-1.3-.4-12.1 39.9 15.8 6.4z"/><path d="m137.8 300.9.6-.1.7-.6.6-1.4.4-1.3.2-.5-1.5-.4-1.2-.4-.4 1.3-.4 1.3-.5 1.2-.6.5h-.2c.5.1 1.1.3 1.7.3z"/><path d="m134.5 316.2.4-1.4.2-1.3-.1-.8-.8-.7c-.6-.3-1.3-.5-2.2-.8l-28.9-8.8c-.8-.2-1.4-.4-1.9-.5l-.8.1-.4.5c.1 0 .2.1.4.1l28.9 8.8c.9.3 1.6.5 2.2.8l.7.6.1.7-.2 1.2-.4 1.4-.4 1.3 3.4 1 1.3.4.3-1-2-.6z"/><path d="m141.1 297.8-.4 1.3c-.2.7-.5 1.3-.7 1.7l-1 .9c-.4.2-1 .2-1.9.1-.8-.1-1.5-.2-2.2-.4l-28.4-8.7c-.9-.3-1.6-.5-2.2-.8l-1.2-1-.3-1.5c0-.6.2-1.3.4-2l.4-1.3-2.2-.7-11.4 37.7 13.4 5.4.7-2.2-1.3-.6-1.8-.9-1.5-.9-1.5-1.3c-.5-.6-1.1-1.3-1.6-2.3s-.8-2.1-.9-3.2 0-2.2.1-3.4c.2-1.2.3-2.1.5-2.7l2.1-6.9.7-1.8.9-1.2 1.3-.2c.5.1 1.3.2 2.2.5l28.9 8.8c1 .3 1.8.6 2.5.9l1.2 1.1.2 1.3-.3 1.5-.4 1.5 2.2.7 5.7-18.7z"/><path d="m86.3 350.2.2-.9-1.8-.3 4.3-22.6-1.6-.3-1.3-.2-4.4 23.4 3.3.6z"/><path d="m128.6 334.2-1.3-.3-.7 3.4-.4 1.3-.2.4-.4.1h-.3l1.5.3 1.5.1.5-.2.4-.5.4-1.4.5-2.9z"/><path d="m125.9 351.1-1.2-.4-31.9-6.1-1.4-.2-.3.1-1 .4 31.9 6.1 1.1.4.4.4.2.5v.1l-.1 1.1-.5 2.2-.2 1.3 3.3.7 1.3.2.2-.8-1.8-.3.2-1 .4-2.2.1-1.2v-.2l-.2-.6z"/><path d="m130.9 335.5-.4 2.1-.5 1.6-.6.9-1 .4h-1.7l-32-6.1-1.9-.5-1.2-.9-.3-1.5c0-.6.1-1.3.2-2.1l.3-1.5-2.1-.4-3.9 20.8 2.1.4.3-1.5.4-1.6.8-1.3 1.4-.7c.5-.1 1.2 0 2.1.1l32 6.1 1.4.5.9.8.3 1c.1.4 0 1-.1 1.7l-.4 2.2 2.1.4 3.9-20.5z"/><path d="m95.3 366.1-6.8-2.7-.9-.1-.4.2-.3.5v.1l5.5 2.3-1 14.3-5.4 1.2.2.1.8.3 1.5-.1 5.8-1.2z"/><path d="m117.8 375.7-18.3-7.8-.1 1.5 14.8 6.2-15.5 3.5v1z"/><path d="m85.4 351.7v-.2l-3.5-.2-1.3-.1-1.2 17.1 3.5.2 1.3.1v-.5l-1.9-.1 1.2-16.5 1 .1z"/><path d="m78.8 377-1.6 21.8 3.5.3h1.3v-.5l-1.8-.1 1.5-21.1h.9l1 .1v-.2l-3.6-.2z"/><path d="m90.8 360.1-1.8-1.1-1.5-1.4-.8-1.7-.2-1.7.1-1.4-2.2-.2-1 14.5 2.2.2.1-2 .2-1.5.5-1 1-.5 1.3.2 7.6 3.1-1.1 16.3-6.7 1.4-1.7.1-1.3-.4-.7-.9-.2-1.5.1-1.9-2.2-.1-1.3 19.2 2.2.1.1-.8.5-1.8 1.2-1.5c.6-.4 1.4-.8 2.6-1.1s1.9-.5 2.3-.6l35.8-8.1.6-8.3zm6.8 21.2 1-14.9 22.4 9.6z"/><path d="m123 418.5c-.1-1-.3-1.8-.5-2.4s-.6-1.3-1.1-2.1c-.4-.6-1.3-1.4-2.7-2.1s-2.8-1.2-4.3-1.4c-1.6-.2-3.1-.3-4.7-.3h-1.1c-1.3 0-2.8 0-4.4.1-2 .1-3.4.2-3.8.2-1 .1-2.2.2-3.4.4s0 0-.1 0c.3 0 .6-.1.9-.1.5-.1 1.8-.1 3.8-.2 1.6-.1 3-.1 4.3-.1h1.1c1.6 0 3.2.1 4.7.3 1.5.2 2.9.6 4.2 1.3 1.4.7 2.2 1.4 2.6 2 .5.8.9 1.4 1.1 2s.4 1.4.5 2.3v.8l-.2 2c-.2.9-.4 1.6-.8 2.2l-1.2 1.4c-.4.3-1 .7-1.8 1.1-.8.4-1.7.7-2.5.9s-2.1.5-3.7.7c-1.6.2-2.9.4-3.8.5-.9.1-2.3.3-4.2.4-1.9.1-3.5.2-4.9.3h-1.5c-.7 0-1.4 0-2.1-.1.8.1 1.5.2 2.3.3.8.1 1.6.1 2.4.1h1.5c1.4-.1 3-.2 4.9-.3 1.9-.2 3.3-.3 4.3-.4.9-.1 2.2-.3 3.8-.5 1.6-.3 2.8-.5 3.7-.7.8-.2 1.7-.5 2.5-.9.8-.4 1.5-.8 1.9-1.1.4-.3.8-.8 1.2-1.5.4-.6.7-1.4.8-2.3.1-.7.2-1.3.2-2z"/><path d="m105.4 441c-.8 0-1.6 0-2.4 0-.9 0-1.8 0-2.9-.1s-2.2-.3-3.3-.5c-1.2-.3-2.5-.8-4-1.5s-2.8-1.6-4-2.6-2.2-2.1-3-3.3c-.8-1.1-1.4-2.3-2-3.4-.5-1.1-.9-2.1-1.1-3-.3-.9-.5-1.8-.7-2.8-.2-1-.3-1.8-.4-2.4l-.1-1.4.1-1.6c.1-1.2.2-2.4.5-3.5.3-1.2.7-2.5 1.4-4s1.4-2.9 2.2-4c.8-1.2 1.9-2.3 3.2-3.4s2.6-1.9 3.8-2.5c1.2-.6 2.3-1.1 3.5-1.4 1.2-.3 2.2-.6 3.1-.7.9-.1 1.8-.2 2.6-.3.6 0 1.4-.1 2.4-.1h.5c.9 0 1.9 0 3 .1h.1c-.9-.2-1.8-.3-2.7-.3-1.1-.1-2.1-.1-3-.1h-.5c-1 0-1.8 0-2.4.1-.9.1-1.7.2-2.6.3-.9.2-2 .4-3.2.8-1.2.4-2.4.9-3.6 1.5-1.2.6-2.5 1.5-3.8 2.6s-2.4 2.2-3.3 3.4c-.8 1.2-1.6 2.5-2.2 4.1-.7 1.5-1.1 2.9-1.4 4-.2 1.1-.4 2.3-.5 3.6l-.1 1.6.1 1.4c0 .7.2 1.5.3 2.4.2 1 .4 1.9.7 2.8s.7 1.9 1.1 3c.5 1.2 1.2 2.3 2 3.5s1.9 2.3 3.1 3.3 2.6 1.9 4.1 2.6 2.8 1.2 4 1.5c1.1.3 2.3.4 3.4.5 1 .1 2 .1 2.9.1h2.4c1-.1 2.1-.2 3.5-.4h.3c-.3 0-.7.1-1.1.1z"/><path d="m126.1 418.4c-.1-1.1-.2-2.2-.5-3.2-.2-1.1-.5-2.1-.9-3.1s-.9-2-1.6-3.2c-.7-1.1-1.4-2.1-2.1-3s-1.6-1.6-2.5-2.4c-.9-.7-2.1-1.4-3.4-2.1-1.4-.6-2.6-1.1-3.7-1.4s-2.3-.4-3.6-.5-2.4-.1-3.4-.1-1.8 0-2.3.1c-.8.1-1.7.2-2.5.3-.9.1-1.9.4-3 .7-1.1.4-2.3.8-3.4 1.4s-2.3 1.4-3.6 2.4-2.3 2.1-3 3.2c-.8 1.1-1.5 2.4-2.1 3.8-.6 1.5-1.1 2.7-1.3 3.8s-.4 2.2-.4 3.4c-.1 1.2-.1 2.1 0 2.8 0 .6.2 1.4.3 2.3.2.9.4 1.8.7 2.7.3.8.6 1.8 1.1 2.9s1.1 2.2 1.9 3.3 1.7 2.1 2.8 3.1 2.4 1.8 3.8 2.4c1.4.7 2.7 1.1 3.8 1.4 1.1.2 2.1.4 3.2.5 1 .1 2 .1 2.8.1h2.4c.9-.1 2.1-.2 3.4-.4 1.4-.2 2.8-.5 4.3-1s2.9-1.2 4.2-2c1.3-.9 2.4-1.8 3.3-2.8s1.7-2 2.4-3.1 1.3-2.3 1.8-3.6.9-2.7 1.1-4.2c0-1.4.1-2.9 0-4.5zm-2.3 3.1c-.2 1-.5 1.9-.9 2.7-.4.7-.9 1.3-1.4 1.8-.5.4-1.2.8-2.1 1.3-.9.4-1.8.8-2.7 1s-2.2.5-3.8.7c-1.6.3-2.9.4-3.8.5s-2.4.3-4.3.4-3.5.2-4.9.3-2.7 0-4-.1-2.7-.3-4.1-.6-2.6-.8-3.7-1.5c-1-.7-1.8-1.4-2.2-2.2-.4-.7-.7-1.5-.9-2.3s-.3-1.5-.3-2c-.1-1.1 0-2.2.3-3.3.3-1.2.7-2.2 1.3-3 .6-.9 1.2-1.5 1.7-1.9s1.1-.9 1.9-1.3c.7-.4 1.7-.8 3-1.2s2.6-.7 3.9-.8c1.3-.2 2.5-.3 3.5-.4.6-.1 1.9-.1 3.9-.2s3.9-.1 5.5-.1 3.3.1 4.9.4c1.6.2 3.1.7 4.6 1.5 1.5.7 2.5 1.5 3.1 2.4.6.8 1 1.6 1.3 2.4.3.7.4 1.6.5 2.6 0 .9-.1 1.9-.3 2.9z"/><path d="m84.2 462.7 2.8-.6-3.7-17.1 1-.2.8-.2-.2-.8-3.3.7-1.3.2z"/><path d="m126.2 470.4-17.6 3.9-1 1.1 21.3-4.6 1.5-.5.7-.5.1-.7-.1-1.2-.9-4.3.9-.2.9-.2-.2-.9-1.3.3-2.1.5-1.3.3 1.1 4.6v1.1l-.1.5-.5.4z"/><path d="m90.1 449.7 1.6-.2 29.3-6.5c1.2-.3 2.1-.5 2.7-.7l1.1-1.1.1-.8-.1-1.1-.8-3.4 1-.2.8-.2-.2-.9-3.3.7-1.3.3.8 3.8.1 1-.1.6-1 .9c-.6.2-1.4.4-2.6.7l-29.2 6.6h-.1l.2.2z"/><path d="m88.9 484 2.8-.6-.2-.7-.9-4.2 27.5-30.1-3.8.8-26.7 29.2 1 4.3z"/><path d="m133.2 477.5c-.2-.7-.3-1.3-.5-1.7l-.5-.7-.8-.1-1.5.2-.8.2h.3l.4.5c.2.4.3.9.5 1.6l.5 2.3.3 1.3 2.8-.6-.2-.7z"/><path d="m133.4 463.9-2.1.5.7 3.4.1 1.4-.2 1.2-1.1.8-1.7.5-24.4 5.4 25.4-27.7-2.9-13.1-2.1.5.5 2.5c.2 1.1.2 2-.1 2.6l-1.4 1.4c-.7.3-1.7.5-3.1.8l-29.4 6.5-1.8.2-1.4-.3-.9-1-.6-1.6-.5-2.4-2.1.4 3.4 15.4 2.1-.5-.6-2.9c-.2-.8-.2-1.5-.2-2l.5-1.3 1.3-.8 1.6-.5 28.5-6.3-29.2 32 .8 3.7 37.2-8.2 1.7-.2 1.3.2.8 1.1c.2.5.5 1.2.6 2l.5 2.3 2.1-.5z"/><path d="m135.5 481.9-.4-1.4-.9-3 .9-.3.9-.3-.4-1.1-3.2 1.1-1.3.4 1.1 3.2.3 1.4v.4l-.3.3-1.2.7-30.7 10.5-.4.1.5.5.9.1 1.7-.4 30.8-10.5 1.3-.7.3-.4z"/><path d="m136.7 494.7.3.3.5 1.2.8 2.1.4 1.3 2.6-.9-.1-.5-.8-2.1-.5-1.3-.5-.4-.7-.2-1.2.3z"/><path d="m91.4 490.7 7.6 22.5 2.7-.9-7.3-21.4.9-.3.9-.3-.4-1.1-1.2.4-2 .7z"/><path d="m137.4 477.5-2 .7.7 2 .4 1.6-.1 1.1-.7.8-1.5.8-30.9 10.5-1.9.5-1.5-.2-1-1.1c-.3-.5-.6-1.2-.8-1.9l-.5-1.4-2 .7 6.8 20 2-.7-.5-1.5-.4-1.6.1-1.6.9-1.3c.4-.3 1.1-.6 1.9-.9l30.9-10.5 1.5-.3 1.2.2.8.7c.2.3.5.9.7 1.6l.7 2.2 2-.7z"/><path d="m134 543.9 19.7-9.4 1.3-.8.5-.7v-.7l-.4-1.1-1.8-4 .8-.4 1-.5-.6-1.3-1.2.6-1.9.9-1.2.5 2 4.3.4 1.1v.5l-.4.5-1.3.8-15.7 7.5z"/><path d="m110.1 522.8h1l1.5-.5 27.1-13c1.2-.6 2.1-1.1 2.7-1.4l.7-1.1v-.3l-.4-1.6-1.5-3.2.9-.4 1-.5-.6-1.3-3.1 1.5-1.2.6 1.7 3.5.4 1.5v.3l-.6.9c-.5.3-1.4.8-2.6 1.4l-27.1 13-.6.2.1.1z"/><path d="m117.6 555.9 2.4-1.2v-.1l-1.9-3.9 20-35.6-4.1 2-18.9 33.6 1.9 4z"/><path d="m100.4 519.6 7.9 16.6 2.4-1.1-7.3-15.3.9-.4 1-.5-.1-.1-.6-1.2-3 1.5z"/><path d="m159.4 540c-.3-.7-.6-1.2-.9-1.5l-.6-.5h-.8l-1.4.5-.2.1.1.1c.2.3.5.8.8 1.4l1 2.1.6 1.2 2.4-1.2-.1-.2z"/><path d="m156.5 526.8-1.9.9 1.5 3.1.4 1.3v1.2l-.9 1.1-1.5.9-22.6 10.8 18.5-32.8-5.8-12.1-1.9.9 1.1 2.3c.5 1 .6 1.8.5 2.6-.1.7-.5 1.3-1.1 1.7s-1.5.9-2.8 1.5l-27.2 13-1.7.6h-1.5l-1.1-.7-1-1.5-1.1-2.2-1.9.9 6.8 14.2 1.9-.9-1.3-2.7c-.4-.7-.6-1.4-.6-1.9l.1-1.4 1.1-1.1 1.5-.9 26.3-12.6-21.2 37.8 1.6 3.4 34.4-16.5 1.6-.6 1.3-.1 1 .8c.4.4.7 1 1.1 1.8l1 2.1 1.9-.9z"/><path d="m153.2 569.4-1-1.5-2.9 2-1.1.7 1.8 2.7.7 1.2v.4l-.7.7-3 2.1-1.1.6c-.3.2-.9.4-1.6.7l-.5.1c.4.1.7.2 1.1.3l1 .1 1.1-.2c.7-.3 1.3-.6 1.7-.8l1.1-.6 3.1-2.1.8-.8v-.6l-.7-1.4-1.6-2.4.8-.5z"/><path d="m166.5 570.9.6-.6c.9-.9 1.6-1.6 2-2.1.3-.4.7-1.1 1.1-2.2s.5-2.1.5-3.1v-.1c0-1-.1-2-.3-2.9-.2-1-.5-1.8-.8-2.4-.3-.7-.6-1.3-1-1.8l-1.1-1.3-1.5-1.1c-.5-.3-1.2-.5-2.1-.7l-1.5-.1c-.6 0-1.2 0-2 .1-.5.1-.9.1-1.4.2h.8l1.4.1c.8.2 1.5.4 2 .7l1.5 1.1 1.1 1.2c.3.5.6 1 .9 1.7.3.6.5 1.4.7 2.4.2.9.3 1.8.3 2.8v.1c0 1-.2 2-.5 3-.3 1.1-.7 1.8-1 2.1-.4.5-1.1 1.2-2 2l-.7.6-.8.8 1.9 2.8.7 1.1 2.1-1.4-1.6-2.4z"/><path d="m158.2 585.5.1.2.9 1.3.7 1.1 2.1-1.4-.8-1.1-.7-.9-.3-.2-.7.2-1.2.7v.1z"/><path d="m177.7 562.7-.6-.9-1 .5-.7.3.4.9.2.2.7-.1 1-.5h.1l.1-.1z"/><path d="m143.4 588.9 1.2-1 .5-.5.9-1.4-.1-.8-1-.7-3-1.2c-1.1-.5-2.2-1.1-3.2-1.7-1-.7-1.7-1.3-2.3-1.8l-1.4-1.6-1.1-1.5-1.2-2v-.1l-.9-1.8c-.3-.7-.6-1.6-.9-2.8-.3-1.3-.5-2.6-.5-4v-.2c0-1.3.1-2.5.4-3.6.3-1.2.7-2.3 1.3-3.6.6-1.2 1.3-2.4 2.1-3.5s1.6-2.1 2.4-2.9 1.6-1.5 2.3-2.1c.8-.6 1.6-1.2 2.6-1.9l1.7-1c.6-.4 1.5-.8 2.5-1.2 1-.5 2.2-.9 3.5-1.3 1.4-.4 3.1-.7 4.9-.8l1.8-.1c.5 0 1.1 0 1.6.1-.3-.1-.6-.1-.9-.2-1-.2-2.1-.2-3.3-.2l-1.8.1c-1.9.1-3.6.4-5 .8-1.3.4-2.5.9-3.6 1.3-1 .5-1.8.9-2.5 1.2l-1.7 1c-1 .7-1.9 1.3-2.6 1.9-.8.6-1.6 1.3-2.4 2.1-.8.8-1.6 1.8-2.5 2.9-.8 1.1-1.6 2.3-2.1 3.6-.6 1.2-1 2.5-1.3 3.6-.3 1.2-.4 2.4-.4 3.8v.1c0 1.4.2 2.8.5 4s.6 2.1.9 2.9l.9 1.9v.1l1.2 2 1.1 1.5 1.4 1.6c.6.6 1.3 1.2 2.3 1.9 1 .7 2.1 1.3 3.2 1.8l2.9 1.2.8.5.1.6-.8 1.3-.5.5-1.2 1-.9.8 2.2 3.4.7 1 2.1-1.3-2-3z"/><path d="m179.2 563.5-1.1.5-1.1.6-1.3.1-.8-.5-.6-1.4-.7-4c-.2-.9-.4-1.8-.6-2.6s-.5-1.6-.9-2.3c-.3-.7-.7-1.3-1-1.8-.5-.7-1-1.4-1.5-2s-1.3-1.3-2.4-2.1c-1.1-.9-2.4-1.6-3.9-2.1s-3-.9-4.4-1.1-3-.3-4.8-.2-3.4.4-4.7.8-2.4.9-3.4 1.3-1.8.8-2.4 1.2l-1.6 1c-1 .6-1.8 1.3-2.6 1.9-.7.6-1.5 1.3-2.3 2.1s-1.6 1.7-2.3 2.8c-.8 1.1-1.5 2.2-2 3.3-.5 1.2-.9 2.3-1.2 3.4-.2 1.1-.4 2.3-.4 3.6s.2 2.5.5 3.7.6 2 .9 2.7l.9 1.8 1.2 1.9 1.1 1.5 1.4 1.6c.5.5 1.2 1.1 2.1 1.7s1.9 1.2 3 1.7l3 1.2c.7.3 1.2.7 1.5 1.1l.2 1.5-1.1 1.8-.6.6-1.2 1.1 1.6 2.4 12.1-7.4 1.3-.8 1.3-.4.8.5.8 1 .9 1.3 1.8-1.2-10.3-15.4-1.8 1.2 1.1 1.6c.5.7.8 1.3.9 1.7v1.2l-1.1 1.2-3.2 2.2-1.1.7c-.4.2-1 .5-1.8.8-.7.3-1.6.3-2.7.1s-2-.5-2.9-1-1.7-1-2.4-1.7-1.2-1.3-1.7-2c-.7-1-1.1-2-1.5-3.2-.3-1.1-.3-2.3-.1-3.4s.7-2.2 1.3-3.1c.6-1 1.4-1.9 2.3-2.8s1.6-1.6 2.3-2.2c.6-.5 1.5-1.2 2.5-2 1.2-.9 2-1.6 2.6-1.9.6-.4 1.4-.9 2.5-1.5s2.1-1.2 3.1-1.7 2.1-1 3.5-1.4c1.3-.4 2.7-.7 4.3-.9 1.5-.2 2.8-.2 3.8 0s1.8.5 2.4.8l1.7 1.2 1.2 1.4c.4.6.7 1.2 1.1 2 .3.7.6 1.6.8 2.6s.3 2.1.3 3.2-.2 2.3-.6 3.4c-.4 1.2-.8 2-1.3 2.5-.5.6-1.2 1.2-2.1 2.1l-.7.6 1.2 1.8 12-8.1z"/><path d="m190.2 582.8-1.1-1.4-1.8-1.8.7-.7 1-1.1-1.5-1.5-.9.9-1.5 1.5-.9.9 2 2.1 1.1 1.2.1.3-.5.8-23.7 23.9-.5.4 1 .9.6.2.5-.2 1.3-1.1 23.6-23.9.7-.9z"/><path d="m196.4 609.4 1.6 1.5 8.8-8.9.9-1.2.1-.5-.7-.9-2.5-2.4.7-.7 1.1-1.1-1.5-1.6-2.4 2.4-.9 1 2.6 2.7.6.7v.3l-.8 1.1z"/><path d="m180.1 625.8.1.2 1.1.8h.7c.3-.2.8-.5 1.4-1.2l11.4-11.5-9.6-9.6-1.5 1.5 8.1 8.1-11.2 11.3c-.1.1-.3.3-.5.4z"/><path d="m198.2 591.5-.9.8-.2.2.3.3 1.5 1.5.9.9 1.6-1.5-1.2-1.1-1.2-1.1-.6-.1z"/><path d="m217.2 612.5 1.5-1.5-1.3-1.3-1-.9h-.5l-.9.8-.4.4 1.6 1.6z"/><path d="m172 626.6 15.7 15.7 1.5-1.6-14.2-14.1.7-.7 1.2-1.2-.6-.6-.9-.9-2.5 2.5z"/><path d="m154.6 609.3 15.7 15.7 1.5-1.6-14.2-14.1.7-.8 1.2-1.1-.6-.7-.9-.9-2.5 2.5z"/><path d="m207.5 595.5-1.5 1.5 1.8 1.8.9 1.2-.1 1.1-1.1 1.5-9.6 9.7-11-11 9.7-9.8c.8-.8 1.3-1.2 1.7-1.2l1 .2c.3.2.9.6 1.5 1.3l1.5 1.5 1.5-1.5-13.8-13.8-1.5 1.5 1.2 1.2 1.3 1.5.4 1.1-.9 1.4-23.8 24-1.4 1.3-1 .4-1.1-.4-1.4-1.1-1.3-1.3-1.6 1.6 13.9 13.9 1.5-1.6-1.6-1.6-1.2-1.6.1-1.3c.2-.4.7-1 1.4-1.8l12.1-12.2 11 11-12.1 12.2c-.8.8-1.4 1.3-1.9 1.5h-1.3l-1.4-1.1-1.4-1.6-1.6 1.6 13.8 13.8 1.6-1.6-1.5-1.5-1.1-1.5v-1.3c.2-.5.7-1.1 1.4-1.8l23.7-23.9 1.2-.9 1-.1c.3.1.8.5 1.5 1.2l1.7 1.7 1.5-1.5z"/><path d="m220.6 661.3c-1.4-.1-2.7-.4-3.9-.7-1.2-.4-2.2-.7-3-1.1-.9-.4-1.7-.8-2.5-1.3-.8-.5-1.5-.9-2.1-1.3-.7-.5-1.4-1.1-2.2-1.9-.9-.8-1.7-1.7-2.3-2.6-.7-1-1.4-2.2-2.1-3.6-.7-1.5-1.3-2.9-1.6-4.3-.3-1.2-.4-2.5-.4-4v-.7c0-1.7.2-3.2.5-4.5s.7-2.5 1.2-3.6 1-2.1 1.5-2.9 1-1.5 1.5-2.2c.4-.5.8-1.1 1.5-1.9s1.4-1.6 2.3-2.6c.9-.9 1.9-1.8 2.9-2.5s2.2-1.4 3.6-2 2.8-1.1 4-1.3 2.4-.3 3.6-.4c.5 0 1 0 1.6.1-.1 0-.2 0-.3-.1-1.4-.2-2.7-.3-3.9-.3-1.2 0-2.4.1-3.6.4-1.3.2-2.6.7-4.1 1.3-1.4.6-2.6 1.3-3.7 2.1-1 .7-2 1.6-2.9 2.5s-1.7 1.8-2.4 2.6c-.6.8-1.1 1.4-1.5 1.9-.5.7-1 1.4-1.5 2.2-.5.8-1 1.8-1.5 2.9-.5 1.2-.9 2.4-1.2 3.7s-.5 2.9-.5 4.6v.6c0 1.5.2 2.9.5 4.1.3 1.4.9 2.8 1.6 4.3s1.4 2.7 2.2 3.7c.7.9 1.5 1.8 2.4 2.7.9.9 1.6 1.5 2.3 2 .6.4 1.2.8 2 1.3.8.5 1.7.9 2.6 1.3.9.4 1.9.8 3.1 1.1 1.2.4 2.5.6 3.9.8l1.6.1c.9 0 1.9-.1 2.9-.2.2 0 .4-.1.7-.1-.3 0-.6 0-.9 0z"/><path d="m235.9 625.4c-.6-.7-1.3-1.4-2.1-2-.8-.6-1.5-1-2.1-1.2s-1.4-.4-2.3-.5h-.3c-.5 0-1.2.1-2 .4.8.1 1.4.3 2 .5s1.3.6 2 1.2c.8.6 1.4 1.2 2 1.9s.9 1.4 1.2 2c.2.7.3 1.3.3 1.7v.1c0 .5-.1 1.2-.4 2.1-.2.9-.5 1.7-.9 2.5s-1 1.9-1.9 3.3-1.5 2.5-2.1 3.3c-.5.8-1.3 1.9-2.5 3.5-1.1 1.5-2.1 2.8-2.9 3.9-.8 1-1.7 2-2.5 2.9-.9.9-1.9 1.7-3 2.6-1 .8-2.1 1.3-3.1 1.6-.4.1-.7.2-1 .2.3.1.7.2 1.1.3l.8.1c.5 0 1.1-.1 1.8-.3 1.1-.3 2.1-.8 3.2-1.7s2.1-1.7 3.1-2.6c.9-.9 1.8-1.8 2.6-2.9s1.8-2.4 2.9-3.9c1.1-1.6 2-2.7 2.5-3.5s1.2-1.9 2.1-3.3c.8-1.4 1.5-2.5 1.9-3.3.4-.8.7-1.6.9-2.5s.4-1.7.4-2.2v-.1c0-.5-.1-1.1-.3-1.8-.4-.8-.8-1.5-1.4-2.3z"/><path d="m243.9 635.3c-.1-1.3-.4-2.6-.8-3.8s-.9-2.5-1.6-3.7c-.6-1.2-1.4-2.4-2.4-3.6s-2.1-2.2-3.3-3.1c-.9-.7-1.8-1.2-2.8-1.8-1-.5-1.9-1-2.9-1.3s-2.2-.6-3.5-.8-2.5-.3-3.6-.3-2.3.1-3.4.3c-1.2.2-2.4.6-3.8 1.2s-2.5 1.3-3.4 2-1.8 1.5-2.7 2.4-1.7 1.8-2.3 2.5c-.6.8-1.1 1.4-1.5 1.8-.5.6-1 1.3-1.4 2.1-.5.8-.9 1.7-1.4 2.8s-.9 2.2-1.2 3.5c-.3 1.2-.5 2.7-.5 4.3 0 1.7.1 3.1.4 4.4s.8 2.6 1.5 4.1c.7 1.4 1.4 2.6 2 3.5.7.9 1.4 1.7 2.2 2.5s1.6 1.4 2.1 1.8 1.1.8 2 1.3c.8.5 1.6.9 2.5 1.2.8.4 1.8.7 2.9 1.1 1.1.3 2.4.6 3.7.7s2.7.1 4.2-.1 2.9-.7 4.3-1.3 2.6-1.3 3.5-1.9c.9-.7 1.7-1.3 2.5-2.1.7-.7 1.4-1.4 1.9-2.1l1.5-1.8c.6-.7 1.2-1.7 1.9-2.9s1.4-2.5 2-3.9c.6-1.5 1-3 1.2-4.5.3-1.7.3-3.1.2-4.5zm-5.9-3.3c-.3 1-.6 1.9-1 2.7s-1.1 2-1.9 3.4c-.9 1.4-1.6 2.5-2.1 3.3s-1.4 2-2.5 3.5-2.1 2.8-3 3.9c-.8 1.1-1.7 2.1-2.7 3-.9.9-2 1.8-3.2 2.7s-2.3 1.5-3.6 1.8c-1.2.3-2.2.4-3.1.2-.8-.2-1.6-.5-2.3-.8-.7-.4-1.3-.7-1.7-1.1-.9-.6-1.6-1.4-2.3-2.4s-1.2-1.9-1.4-2.9-.4-1.8-.3-2.5c0-.7.1-1.4.2-2.2s.5-1.8 1-3.1c.6-1.2 1.2-2.4 1.9-3.5s1.4-2.1 2-2.9c.3-.5 1.1-1.5 2.4-3.1s2.5-3 3.6-4.3c1.1-1.2 2.2-2.4 3.4-3.5s2.6-1.9 4.1-2.6c1.5-.6 2.8-.9 3.8-.8s1.9.3 2.6.6 1.5.7 2.3 1.3c.9.6 1.6 1.3 2.3 2.2.7.8 1.1 1.6 1.4 2.4s.4 1.6.4 2.2c.1.7 0 1.5-.3 2.5z"/><path d="m233.4 667.6h.9l.8-.6.9-1.3 14.2-26.5c.6-1.1 1-2 1.2-2.6l-.1-1.5c-.2-.4-.7-.8-1.4-1.2l-3.1-1.7.5-.9 1-1.9-2.3-1.3-1.6 3-.6 1.2 3.4 1.8c.7.4 1.1.7 1.2 1l.1 1.4c-.2.6-.6 1.4-1.2 2.5l-14.2 26.5-.9 1.3-.4.3.2.1z"/><path d="m276.9 648.9-.4-.6-1-.7-3.8-2.1.4-.8 1-1.9.1-.1-2.3-1.2-.7 1.2-1 1.8-.6 1.2 4.1 2.2 1 .7.3.4-.1.6-.5 1.4-8 14.9.5 4.5 10.4-19.3.6-1.4z"/><path d="m260 686.9-2.9-1.6-4.8-40.5-2.4 4.5 4.3 36.2 3.9 2.1 1.2.7z"/><path d="m224 669.2 16.2 8.7.7-1.4-13.8-7.4.4-.9 1.1-1.9-1.2-.6-1.1-.7-1.7 3.1z"/><path d="m282.5 651.6h-.8l-.6.5-.2.3c.2.1.3.2.5.2l2.1 1.1 1.2.6.7-1.4-1.2-.6c-.7-.4-1.3-.6-1.7-.7z"/><path d="m274 643.3-1 1.9 3 1.6 1.2.8.7 1-.1 1.4-.7 1.6-11.8 22.1-4.4-37.4-11.8-6.4-1 1.9 2.2 1.2c1 .5 1.6 1.1 1.9 1.8l.1 2c-.2.7-.7 1.6-1.4 2.9l-14.3 26.6-1 1.5-1.2.9h-1.3l-1.6-.6-2.2-1.2-1 1.9 13.8 7.5 1-1.9-2.7-1.4c-.7-.4-1.3-.8-1.7-1.2l-.7-1.2.2-1.5.7-1.6 13.8-25.8 5.1 43.1 3.3 1.8 18.1-33.7.9-1.4 1-.9 1.3.1c.5.1 1.2.4 1.9.8l2.1 1.1 1-1.9z"/><path d="m305.3 676.6 3.2 1.1 1.2.5.4-1.2-1.8-.7.2-.8.2-.9c.2-1.2.4-2.2.4-2.9v-.2c0-.5-.1-1.3-.4-2.2-.3-1.1-.8-2-1.4-2.8-.6-.8-1.3-1.6-2-2.2-.7-.7-1.4-1.2-2-1.5l-1.8-.9-1.7-.4h-.8l-1 .1c-.4.1-.8.1-1.2.3h.3l1.7.4 1.7.8c.6.4 1.3.8 2 1.5.7.6 1.3 1.3 1.9 2.2.6.8 1 1.7 1.4 2.8.3.9.4 1.6.4 2.1v.2c-.1.7-.2 1.6-.4 2.8l-.2.9z"/><path d="m313.5 661.5.1-.2-1.4-.5-1.1-.4-.5 1-.6 1-.2.3.9.8.9.6h.3l.5-.5.5-1z"/><path d="m297.2 681-2.6-1-1.2 3.3-.4 1.2 3.1 1.1c.6.2 1 .4 1.3.6l.3.4-.1.7-1.3 3.6-.5 1.1-.9 1.6c-.3.4-.7.8-1.5 1.2-.9.4-1.7.7-2.6.8l-1.3.1c.4.1.9.2 1.3.3l1.1.1 1.5-.1c.9-.1 1.8-.4 2.7-.8s1.4-.9 1.7-1.4l.9-1.6.5-1.1 1.3-3.6.2-.9-.4-.6c-.3-.2-.7-.4-1.4-.6l-2.8-1 .3-.9z"/><path d="m291.5 700.6c-.8 0-1.5-.1-2.1-.2-.7-.1-1.4-.3-2.2-.5-.7-.2-1.4-.4-1.9-.6-.8-.3-1.5-.6-2.2-.9l-1.8-1c-.7-.4-1.4-1-2.4-1.7-1-.8-1.9-1.8-2.7-2.9s-1.5-2.2-1.9-3.3c-.5-1.1-.8-2.3-1.1-3.6-.2-1.3-.4-2.5-.4-3.9v-.2c0-1.4.1-2.6.3-3.7s.4-2.2.6-3.1c.3-1 .6-2 1-3.1l.7-1.8c.3-.7.7-1.5 1.3-2.4.6-1 1.2-2 2.1-3.2s2-2.4 3.5-3.6c1.4-1.2 2.8-2.1 4.1-2.8 1.3-.7 2.8-1.3 4.4-1.8 1.5-.4 3-.7 4.4-.7h.3 1.1c-.1 0-.2 0-.2-.1-.9-.2-2-.3-3.5-.3h-.3c-1.5 0-3 .2-4.5.7-1.6.5-3.1 1.1-4.4 1.8-1.4.7-2.7 1.7-4.2 2.9s-2.7 2.4-3.6 3.7c-.8 1.1-1.5 2.2-2.1 3.2-.5 1-1 1.8-1.3 2.5l-.7 1.8c-.4 1.1-.7 2.2-1 3.1-.3 1-.5 2-.7 3.2-.2 1.1-.3 2.4-.3 3.8v.3c0 1.3.1 2.7.4 3.9.3 1.3.6 2.6 1.1 3.7.5 1.1 1.2 2.2 2 3.4.8 1.1 1.8 2.1 2.8 2.9s1.7 1.3 2.4 1.8l1.9 1c.7.3 1.4.6 2.3.9.5.2 1.1.4 1.8.6.8.2 1.5.4 2.2.5.6.1 1.3.1 2.1.1h.9c1 0 2-.2 3-.4-.1 0-.3 0-.4 0z"/><path d="m312.8 691.8.4-1.1-.4-.2-1.1-.3h-.3l-.5.7-.1.2.8.3z"/><path d="m300.2 699.2h-.4l-.7.1-1.5.4.4.4v.5.7l-.1.9-.4 1.5-.3 1.1 3.8 1.4 1.2.4.5-1.1-2.5-.9.2-.9.4-1.4.1-.9.1-.8-.1-.7z"/><path d="m297.3 683.8 1.8.7c.8.3 1.4.6 1.7.8l.7.9c.1.4 0 .9-.2 1.6l-1.3 3.7-.5 1.2-.9 1.7c-.4.7-1.1 1.3-2.1 1.7-1 .5-2 .8-3 .9-1 .2-2 .2-2.9.1s-1.8-.3-2.6-.6c-1.1-.4-2.1-1-3.1-1.7-.9-.7-1.6-1.6-2.1-2.7s-.7-2.2-.8-3.3 0-2.3.2-3.6c.2-1.2.4-2.3.5-3.1.2-.8.5-1.8.9-3.1.4-1.4.7-2.5 1-3.1.2-.6.6-1.5 1.1-2.7s1-2.2 1.5-3.2 1.2-2.1 2-3.2 1.8-2.2 2.9-3.3 2.2-1.8 3-2.2c.9-.4 1.7-.7 2.4-.8s1.4-.1 2.1 0l1.8.4c.6.2 1.3.5 2 1 .7.4 1.4 1 2.2 1.7s1.5 1.5 2.1 2.4c.7.9 1.2 1.9 1.5 3.1.4 1.2.5 2.1.5 2.8-.1.7-.2 1.7-.4 2.9l-.2.9 2.1.8 4.9-13.7-2.1-.8-.6 1-.6 1.2-.9.9h-.9l-1.3-.8-2.9-2.8c-.7-.6-1.4-1.2-2-1.7-.7-.5-1.4-.9-2-1.3-.7-.4-1.3-.7-1.9-.9-.8-.3-1.6-.5-2.4-.7s-1.8-.3-3.2-.3-2.9.2-4.4.6c-1.5.5-2.9 1-4.2 1.7-1.2.6-2.6 1.6-4 2.7-1.4 1.2-2.5 2.3-3.3 3.4s-1.5 2.1-2 3.1c-.5.9-.9 1.7-1.2 2.4l-.7 1.8c-.4 1.1-.7 2.1-1 3s-.5 1.9-.6 3c-.2 1.1-.2 2.3-.3 3.6 0 1.3.1 2.6.3 3.9.2 1.2.6 2.4 1 3.4s1.1 2.1 1.8 3.1c.8 1.1 1.6 1.9 2.6 2.7.9.7 1.7 1.3 2.3 1.6l1.8 1c.6.3 1.3.6 2.1.8.5.2 1.1.4 1.8.6s1.4.3 2.1.5c.7.1 1.6.2 2.7.1 1.1 0 2.2-.2 3.4-.4l3.1-.8c.8-.2 1.4-.2 1.9 0l1.1 1c.2.5.3 1.2.2 2.1l-.1.9c-.1.4-.2.9-.4 1.6l2.7 1 5.4-13.2.6-1.4.8-1.1h1l1.3.4 1.5.5.7-2.1-17.3-6.3z"/><path d="m340.6 673.2.3.1 1.3.2.1-.7h-.5z"/><path d="m348.6 680.1-5.9 6.4.6 2.7 8.1-8.9 1.3-1.7.5-1.4.1-.5-.3-.9-1.1-1-1-.4-2-.4.2-1 .5-2.6-2.8-.6-.7 3.2-.2 1.3 2.3.4.9.4 1.1.9.1.7v.4l-.5 1.4z"/><path d="m362.1 677.6 1 .2.1-.6h-.1c-.2 0-.5.2-1 .4z"/><path d="m319.1 711.6 27 5.5.1-.8-24.2-4.9.2-1 .7-3-1.6-.3-1.3-.3-.7 3.6z"/><path d="m321.5 669.6c.4.2.9.7 1.5 1.4.6.7 1.2 1.6 1.7 2.6.5.9.9 2.2 1.3 3.9l4.6 18.4-2 9.7c-.2.8-.3 1.3-.5 1.6l-.5.6-.9.3h-.1l.7.1 1.7.2h.4l1.1-.3.6-.7c.2-.3.4-.9.5-1.7l2-9.7-4.6-18.4c-.4-1.7-.9-3-1.4-4s-1.1-1.9-1.7-2.6-1.2-1.2-1.6-1.5l-1.3-.5-1.3-.3.2-1 .4-1.9.2-.8-2.8-.6-.3 1.3-.4 1.9-.3 1.3 1.6.3z"/><path d="m350.4 671.3-.4 1.9 1.2.2 1.3.5 1.4 1.2c.4.6.5 1.3.4 2.3l-.7 1.7-1.3 1.8-9.4 10.2-3.2-13.4c-.2-.6-.3-1.3-.4-2.1s-.1-1.4-.1-1.8l.9-1.4 1.7-.5h1.5l.7.1.4-1.9-21-4.3-.4 1.9.5.1 1.4.6c.6.4 1.2.9 1.9 1.7s1.3 1.8 1.8 2.8c.5 1.1 1 2.4 1.4 4.1l4.6 18.7-2 10c-.2 1-.4 1.6-.7 2.1l-.8 1-1.5.4c-.7.1-1.5 0-2.4-.2l-3.4-.7-.5 2.3 24.5 5 .5-2.3-3.1-.6c-1-.2-1.8-.4-2.2-.7l-1.1-1-.4-1.2c0-.4.1-1.1.3-2.1l2.8-13.8 12.1-13c1.2-1.3 2.1-2.2 2.5-2.5s1.1-.7 2-1.2 1.6-.8 2.2-.9l1.3-.1.4.1.4-1.9z"/><path d="m384.4 680.6-.3.2.9.1h1.3v-.4l-.4-.1z"/><path d="m386.8 717.4c.6.2 1.3.3 1.9.3h1.8c.6-.1 1.4-.2 2.6-.4 1-.2 2.1-.6 3.2-1.2 1-.5 1.8-1.2 2.4-1.9.6-.8 1-1.5 1.2-2l.4-1.8c.1-.6.2-1.5.2-2.4l1.2-23.5-.1-1.7-.3-.9-.5-.4-1.1-.3-3.7-.2.1-1 .2-3.1 13.5.7v-.2l-16.5-.8-.2 3.5-.1 1.3 4 .2 1.1.3.4.3.3.8.1 1.6-1.2 23.5c-.1 1-.1 1.8-.2 2.4l-.4 1.8c-.1.4-.5 1.1-1.1 1.9-.5.7-1.3 1.3-2.3 1.8-1.1.5-2.1.9-3.1 1.1-1.1.2-2 .4-2.5.4z"/><path d="m390 722.4-1.9.1h-1.5c-1.1 0-2.2-.1-3.4-.3-1.3-.2-2.8-.6-4.7-1.2-2-.7-3.6-1.7-4.8-3.1-1.2-1.3-1.9-2.3-2.4-3.2-.4-.8-.6-1.5-.7-2.2-.1-.6-.2-1.2-.2-2l-.1-1.4v-.8l1.2-24.7v-.5l-.1-1.2-.5-1-1-.8-1.6-.4-2.9-.2.1-1 .1-2.1v-1l20.8 1.1v-.2l-23.8-1.2-.1 1.3-.1 2.1-.1 1.3 3.2.2 1.5.3.9.7.4.9.1 1.1v.5l-1.3 24.7v.8l.1 1.5c.1.8.1 1.5.2 2 .1.7.4 1.4.7 2.2.5 1 1.3 2 2.4 3.3 1.3 1.4 3 2.5 5 3.2 1.9.6 3.4 1.1 4.7 1.3 1.2.2 2.4.3 3.5.3h1.5l1.9-.1c.8 0 1.8-.2 2.9-.3.2-.1.1-.1 0 0z"/><path d="m408.9 681.6-1.1.2-.3.2h.5l1.3.1.1-.5z"/><path d="m396.9 677.9-.1 2.1 2.8.1 1.4.3.9.7.5 1.3.1 1.9-1.2 23.6c-.1 1-.1 1.8-.2 2.5s-.2 1.4-.5 2c-.2.6-.7 1.4-1.3 2.3-.7.9-1.6 1.6-2.7 2.2-1.2.6-2.3 1-3.4 1.2s-2 .4-2.7.4h-1.9c-1.2-.1-2.3-.4-3.5-.8-1.1-.5-2.2-1.2-3.2-2.1-1-1-1.6-1.9-1.8-2.9s-.3-2.6-.1-4.8l1.2-24.1c0-.7.2-1.4.4-2.1l1-1.4 1.4-.8 1.7-.2 1.8.1.1-2.1-21.1-1.1-.1 2.1 1.9.1c.8 0 1.4.2 2.1.5l1.4 1 .7 1.4c.1.5.2 1.2.2 2.1l-1.3 24.7v2.1c.1.8.1 1.4.2 1.9s.3 1.2.6 1.9 1.1 1.7 2.2 3c1.1 1.2 2.6 2.2 4.4 2.8s3.3 1 4.5 1.2 2.3.3 3.3.3h3.3c1.1-.1 2.4-.3 4-.6s3-.9 4.4-1.6c1.3-.8 2.4-1.7 3.3-2.8.8-1.1 1.4-2.1 1.7-3.1s.5-1.9.6-2.7c.1-.9.2-1.7.2-2.5l1.2-23.6.3-1.7.8-1.3 1.1-.7 1.4-.2 1.9.1.1-2.1z"/><path d="m453.7 675.5c-.8.1-1.3.2-1.7.3l-.7.4-.2.5 2.3-.2 1.3-.1-.1-1z"/><path d="m443.3 678.5.3 1.5 1.6 16.8 3.5 4-2.2-21.8-.3-1.5-.4-.8-.6-.2h-1.2l-4.4.4-.1-1-.2-2.1-.1-.6-3 .3.1 1.3.3 2.1.1 1.3 4.6-.4h1.2l.5.2z"/><path d="m413 680.6 1.2.3.6.8c.1.6.3 1.6.4 2.9l2.9 30v1.5l-.3.8-.3.2 1.1-.1 1.4-.4.7-.5.3-.9v-1.6l-2.9-30c-.1-1.4-.3-2.4-.4-3l-.8-1-1.4-.3h-.6l-3.5.3-.1-1-.3-2.7-3 .3.3 3.4.1 1.3 3.8-.4z"/><path d="m412.6 721.4.2 1.3 18.2-1.8-.1-1-15.2 1.5-.1-1-.3-2.7-1.7.2-1.3.1z"/><path d="m452.6 718.8-.1-1-2.9.3-26.5-31 .5 5.2 23.3 27.1 4.4-.5z"/><path d="m450 676.3.4-1.3 1.1-.7c.5-.2 1.2-.3 2.1-.4l2.3-.2-.2-2.1-15.5 1.5.2 2.1 3.4-.3h1.4l1.1.4.7 1.2.3 1.7 2.4 25-24.4-28.6-13.3 1.3.2 2.1 2.5-.2c1.1-.1 1.9 0 2.6.4.6.4 1 .9 1.2 1.6s.3 1.7.5 3.1l2.9 30v1.8l-.5 1.4-1.1.8-1.7.4-2.4.2.2 2.1 15.6-1.5-.2-2.1-3 .3c-.8.1-1.5.1-2-.1l-1.2-.6-.7-1.4-.3-1.7-2.8-29.1 28.2 32.9 3.8-.4-3.7-38.1z"/><path d="m489.2 703.3-3 .9-.5.1.8.5h.1l1.4-.3 1.5-.5z"/><path d="m488.2 674.5-.2-.8-3.4 1.1-1.2.4.6 2.7c.1.6.2 1.3.2 2v.2l-.2 1-1 1c-.4.3-1 .5-1.7.7l-1.8.5.2.8 3.5-1.1c.8-.3 1.4-.5 1.8-.8l1-1.1.2-1.2v-.2c0-.8-.1-1.5-.2-2.1l-.5-2.4.8-.3z"/><path d="m490.2 692.2-.5-1.5c-.1-.3-.3-.6-.5-1.2s-.5-1.1-.6-1.5l-.7-.7-1.3-.3h-.2c-.5 0-1.2.1-1.9.3h.2.2l1.2.3.6.6.6 1.5c.2.6.4.9.5 1.2l.5 1.5.4 1.2 1.8-.5z"/><path d="m457.2 674.4 2.7-.8-.2-.6-.8-3 35.2-10.8-.2-.7-38.1 11.2 1 3.4z"/><path d="m490.3 668.3 1 1.4.8 1.6 1 2.1.5 1 1.6-.5-.3-.7-1-2.1-.8-1.6-1.1-1.4-1.5-1.2c-.5-.3-1.1-.5-1.9-.7l-1.3-.1-1.1.1c-.5.1-1.1.2-1.6.3l1-.1 1.3.1c.7.1 1.3.3 1.8.6z"/><path d="m474.6 708.1.1-.9-.4-1.6-8.7-30.6-.5-1.2-.6-.5-.8-.2-1.1.1-1 .3.3.1.5.4.5 1.1 8.9 30.6.4 1.5v.7l-.6.4-1.3.6-2.2.6-1.2.4.3 1.3.7 2.2.3 1.2 2.4-.7-.2-.6-.6-2.2-.3-1 1-.3 2.1-.6 1.4-.6z"/><path d="m495.6 660.1-35.6 10.5.6 2.1 1.8-.5 1.4-.1 1.2.4.9.8.6 1.5 9 30.7.4 1.7-.1 1.5-1.1.9-1.6.6-2.3.7.7 2.2 19.9-5.9-.6-2.2-1.7.5c-.9.3-1.6.4-2.2.3l-1.3-.8c-.3-.4-.7-1.2-1-2.2l-4.4-15 4.6-1.3c1-.3 1.8-.4 2.5-.4s1.3.2 1.8.4l1.1 1c.2.5.5 1 .8 1.7s.5 1.1.5 1.2l.5 1.5 2.2-.6-4.7-15.9-2.2.7.4 1.6c.1.7.2 1.4.3 2.2 0 .8-.1 1.5-.4 2l-1.3 1.3c-.6.4-1.3.7-2.2 1l-4.6 1.3-4.9-16.8 9.5-2.8c1-.3 2-.5 2.9-.6s1.8-.1 2.7 0c.9.2 1.7.4 2.3.8l1.7 1.4 1.2 1.6.9 1.7 1 2.2 2.2-.6z"/><path d="m534 677.4c-.3-1.2-.7-2.4-1.3-3.7-.5-1.3-1.2-2.8-2-4.5-.8-1.7-1.4-3-1.9-3.9-.4-.8-1-2-1.8-3.4s-1.4-2.5-1.9-3.2-1.1-1.4-1.7-2.1c-.7-.7-1.3-1.1-1.7-1.4s-1-.5-1.8-.6l-1.1-.1-1.3.1c-.3.1-.6.1-.9.2l.7.1c.8.1 1.3.4 1.7.6l1.7 1.4c.7.6 1.2 1.3 1.7 2s1.2 1.8 1.9 3.2c.8 1.4 1.4 2.6 1.8 3.4s1 2.1 1.9 3.9c.8 1.7 1.4 3.2 2 4.5.5 1.2.9 2.4 1.3 3.6.3 1.2.6 2.5.8 3.9l.1 1.5c0 .7-.1 1.4-.2 2-.3 1.1-.6 1.8-1 2.2l-1.6 1.4-1.6.9c-.8.4-1.8.6-2.8.8h-.6c.1 0 .3.1.4.1l1.7.2 1.1-.1c1.1-.1 2.1-.4 2.9-.8l1.6-.9 1.7-1.5c.4-.5.8-1.2 1.1-2.3.2-.7.2-1.3.2-2.1l-.1-1.6c-.5-1.3-.7-2.6-1-3.8z"/><path d="m521.2 695.3c-1.6-.1-3.1-.3-4.5-.7-1.4-.4-2.8-1-4.3-1.9s-2.7-1.8-3.7-2.7c-.9-.9-1.8-1.8-2.6-2.8-.7-1-1.3-1.9-1.8-2.7-.4-.8-.8-1.6-1.2-2.3-.2-.5-.5-1.3-.9-2.2-.4-1-.7-2.1-1.1-3.3-.4-1.3-.7-2.5-.8-3.7-.1-.6-.1-1.3-.1-2s0-1.4.1-2.2c.1-1.5.4-2.9.8-4.1s.9-2.3 1.5-3.3 1.3-2.1 2.1-3.2c.9-1.1 1.7-2 2.5-2.8.8-.7 1.7-1.4 2.7-2 1-.6 1.9-1.1 3-1.6 1.5-.6 3-1.1 4.5-1.4 1.4-.3 2.7-.4 4-.4h.6c.4 0 .9.1 1.3.1-1.3-.2-2.6-.4-3.9-.4h-.6c-1.3 0-2.7.1-4 .4-1.6.3-3.1.8-4.6 1.5-1 .5-2.1 1-3 1.6-1 .6-1.9 1.3-2.7 2.1-.9.8-1.7 1.7-2.6 2.8-.9 1.1-1.6 2.2-2.2 3.2-.6 1.1-1.1 2.2-1.5 3.4s-.7 2.7-.8 4.2c-.1.8-.1 1.5-.1 2.2s0 1.4.1 2c.1 1.2.4 2.5.8 3.8.4 1.2.7 2.3 1.1 3.3.4.9.7 1.7.9 2.2.3.8.7 1.6 1.2 2.4.5.8 1.1 1.7 1.8 2.7.8 1 1.6 2 2.6 2.9 1 .9 2.2 1.8 3.7 2.7s2.9 1.5 4.3 1.9c1.4.4 2.9.6 4.5.7l1.7.1c.9 0 1.8-.1 2.5-.2.4-.1.8-.1 1.1-.2-.3 0-.7 0-1 0z"/><path d="m543.2 672.8c-.1-1.1-.3-2.2-.6-3.2s-.6-1.9-.9-2.7-.6-1.5-.9-2.2c-.4-.9-.9-1.9-1.5-3.1s-1.4-2.4-2.4-3.7c-1-1.2-2.1-2.3-3.4-3.3-1.3-.9-2.5-1.7-3.7-2.2s-2.5-.9-3.7-1.1c-1.3-.3-2.6-.4-4-.4s-2.8.1-4.3.4-2.9.7-4.3 1.4c-1 .5-2 1-2.9 1.6s-1.8 1.2-2.5 1.9c-.8.7-1.6 1.6-2.4 2.6-.8 1.1-1.5 2.1-2 3-.5 1-1 2-1.4 3.2-.4 1.1-.6 2.4-.8 3.9-.1 1.5-.1 2.8 0 4 .1 1.1.4 2.3.8 3.6.4 1.2.7 2.3 1.1 3.2s.6 1.7.9 2.2c.3.7.7 1.5 1.1 2.3s1 1.6 1.7 2.6 1.5 1.8 2.4 2.7 2.1 1.7 3.5 2.6c1.4.8 2.7 1.4 4 1.8s2.7.6 4.3.6c1.6.1 2.9.1 4-.1 1.1-.1 2.2-.4 3.3-.7s2-.7 2.7-1c.6-.3 1.2-.6 2-1.1s1.6-1 2.3-1.5 1.5-1.2 2.3-2 1.7-1.8 2.4-2.9c.8-1.1 1.4-2.3 1.9-3.7s.8-2.9 1-4.4c.1-1.9.1-3.2 0-4.3zm-7.6 12.4c-.3 1.2-.7 2.1-1.3 2.8l-1.9 1.6-1.8 1c-1 .4-2 .7-3.2.9s-2.3.1-3.2-.2c-1-.3-1.8-.6-2.3-.9l-1.9-1.4c-.6-.5-1.4-1.3-2.2-2.4s-1.5-2.2-2.1-3.4c-.6-1.1-1.2-2.2-1.6-3.2-.3-.5-.8-1.7-1.5-3.6-.8-1.9-1.4-3.6-2-5.2-.5-1.6-1-3.1-1.3-4.7s-.4-3.2-.2-4.8c.2-1.7.6-2.9 1.2-3.7s1.2-1.5 1.8-2 1.4-1 2.3-1.4c1-.4 2-.7 3-.9s2-.2 2.8 0c.9.2 1.6.4 2.1.7.6.3 1.2.9 1.9 1.6s1.3 1.4 1.9 2.2c.5.8 1.2 1.9 2 3.3s1.4 2.6 1.8 3.4 1.1 2.1 1.9 3.9c.8 1.7 1.4 3.2 2 4.5.5 1.3 1 2.6 1.3 3.8.3 1.3.6 2.6.8 4.1 0 1.4 0 2.8-.3 4z"/><path d="m573 655.6c-.5-1.2-1.1-2.3-1.8-3.5s-1.6-2.6-2.6-4.1c-1.1-1.6-1.9-2.8-2.4-3.6s-1.3-1.8-2.3-3.1-1.8-2.3-2.4-2.9-1.3-1.2-2-1.8c-.8-.6-1.4-.9-1.9-1.2-.5-.2-1.1-.3-1.9-.4h-.3c-.6 0-1.3.1-2 .4.6 0 1.1.2 1.4.3.5.2 1.1.6 1.9 1.1.7.5 1.4 1.1 2 1.8.6.6 1.4 1.6 2.4 2.9s1.7 2.3 2.3 3.1c.5.8 1.3 1.9 2.4 3.6 1 1.6 1.9 3 2.6 4.1s1.3 2.3 1.7 3.4c.5 1.2.9 2.4 1.3 3.8.3 1 .4 1.9.4 2.7v.8c-.1 1.1-.4 1.9-.7 2.4l-1.3 1.6-1.5 1.2c-.8.5-1.7.9-2.7 1.2-.6.2-1.2.2-1.7.3.4.1.9.2 1.5.3h.8c.7 0 1.4-.1 2.1-.3 1.1-.3 2-.7 2.8-1.2l1.5-1.1 1.4-1.6c.3-.5.6-1.4.7-2.5v-.8c0-.9-.1-1.8-.4-2.8-.3-1.6-.8-2.9-1.3-4.1z"/><path d="m558.4 675.2c-1.4-.2-2.9-.6-4.5-1.3s-2.9-1.4-4-2.1-2.1-1.6-2.9-2.5c-.9-.9-1.6-1.7-2.1-2.4s-1-1.4-1.5-2.2c-.3-.5-.7-1.2-1.2-2.1s-1-2-1.6-3.1c-.6-1.2-1-2.4-1.3-3.6s-.5-2.6-.6-4.1v-1.3c0-1.1.1-2 .3-3 .2-1.2.5-2.4 1-3.5.4-1.1 1-2.3 1.7-3.5s1.4-2.2 2.1-3.1 1.5-1.7 2.4-2.4 1.8-1.4 2.7-2c1.3-.8 2.8-1.5 4.3-2s3-.9 4.4-1c1-.1 1.9-.2 2.9-.2h1.3.2c-.9-.2-1.8-.3-2.8-.3h-1.3c-1 0-1.9.1-2.9.2-1.5.2-3 .5-4.5 1s-3 1.2-4.4 2.1c-1 .6-1.9 1.3-2.8 2.1s-1.7 1.6-2.4 2.5-1.4 1.9-2.1 3.1-1.3 2.4-1.7 3.5c-.4 1.1-.8 2.3-1 3.6-.2.9-.3 2-.3 3v1.3c.1 1.6.3 3 .6 4.2s.8 2.4 1.3 3.6c.6 1.2 1.1 2.2 1.6 3.1s.9 1.6 1.2 2.1c.5.7 1 1.5 1.5 2.2.6.8 1.3 1.6 2.2 2.5s1.9 1.7 3 2.5c1.1.8 2.5 1.5 4 2.1 1.6.7 3.1 1.1 4.6 1.3.8.1 1.6.1 2.4.1.7 0 1.5 0 2.2-.1.9-.1 1.8-.2 2.5-.3-.7.1-1.4.1-2.1.1-.9 0-1.6 0-2.4-.1z"/><path d="m582.1 653.8c-.1-1.6-.3-2.9-.6-4s-.6-2.1-1.1-3c-.4-1-.8-1.8-1.2-2.5s-.8-1.4-1.2-2.1c-.5-.8-1.2-1.7-2-2.8s-1.8-2.2-2.9-3.3-2.4-2-3.8-2.8c-1.4-.7-2.7-1.3-4-1.6s-2.5-.5-3.9-.6c-1.3-.1-2.6 0-4 .1s-2.8.5-4.2 1-2.8 1.2-4.1 1.9c-.9.6-1.8 1.2-2.6 1.9s-1.6 1.5-2.2 2.3c-.7.8-1.3 1.8-2 2.9-.7 1.2-1.2 2.3-1.6 3.3-.4 1.1-.7 2.2-.9 3.3-.2 1.2-.3 2.5-.2 4s.3 2.8.6 3.9.7 2.3 1.2 3.4c.5 1.2 1 2.2 1.5 3.1s.9 1.6 1.2 2c.4.7.9 1.4 1.5 2.1.5.7 1.2 1.5 2.1 2.3.8.8 1.8 1.6 2.8 2.3s2.3 1.4 3.8 2 2.9 1 4.2 1.2 2.8.2 4.3 0c1.6-.1 2.9-.4 4-.7 1-.3 2.1-.7 3.2-1.2s1.9-.9 2.5-1.3c.5-.3 1.1-.8 1.9-1.4.7-.6 1.4-1.2 2-1.8s1.3-1.4 2-2.3 1.4-2 2-3.2 1-2.5 1.4-4c.2-1.3.4-2.8.3-4.4zm-6.4 9.4c-.1 1.2-.4 2.2-.9 2.9s-1 1.3-1.6 1.8l-1.7 1.2c-.9.6-1.9 1-3.1 1.3-1.1.3-2.2.4-3.2.3s-1.8-.3-2.5-.6c-.6-.3-1.3-.6-2-1s-1.5-1.1-2.5-2.1c-.9-1-1.8-2-2.6-3-.8-1.1-1.5-2-2-2.9-.3-.5-1-1.6-2-3.4s-1.9-3.4-2.7-4.9-1.4-3-2-4.5-.9-3.1-.9-4.8.2-2.9.6-3.9c.5-.9 1-1.7 1.5-2.2.5-.6 1.2-1.1 2.1-1.7s1.8-1 2.8-1.3 1.9-.5 2.8-.4c.9 0 1.6.2 2.2.4s1.3.7 2.1 1.3 1.5 1.2 2.2 1.9c.6.7 1.4 1.7 2.4 3s1.8 2.4 2.3 3.1c.5.8 1.3 2 2.4 3.6 1 1.6 1.9 3 2.6 4.2s1.3 2.4 1.8 3.6 1 2.5 1.4 3.9c.5 1.6.6 2.9.5 4.2z"/><path d="m598.8 611.1.8.8 1.6-1.4-.9-.8c-.5-.4-1.3-1-2.2-1.7-1-.7-2-1.3-3-1.9-1-.5-1.9-.9-2.8-1.1l-1.3-.1-.8.1-.7.4c.9.2 1.8.5 2.7 1 1 .5 2 1.2 3 1.8 1 .7 1.7 1.2 2.2 1.6z"/><path d="m610.4 635.9 1.2-.3c.4-.2 1.1-.6 1.8-1.2l1.2-1.1-.5-.5-.8-1-2.8 2.4c-.6.5-1.1.8-1.5 1l.6.5z"/><path d="m571.6 635.8 1.8-1.6-9.6-11.3-.7-.8 30-25.4-1.4-1.5-31.6 26.9.8 1z"/><path d="m599.7 642.2-22.4-26.5-1.7 1.5 21.2 25.2.8 1.1.1.7-.6 1-1.3 1.4-2 1.8-1 .8 2.3 2.8.8 1 1.8-1.5-1.9-2.2.8-.7 2.1-1.7 1.3-1.5.6-1.1-.1-.9z"/><path d="m615.7 633.7-1.8 1.5c-.8.7-1.5 1.1-2.1 1.4l-1.5.4-1.3-.3-1.2-1.1-23.1-27.5 3.3-2.8c.7-.6 1.3-1 2-1.1.7-.2 1.5-.2 2.5 0s2 .6 3.1 1.2c1 .6 2.1 1.2 3.1 1.9s1.8 1.3 2.3 1.7l1.3 1.1 1.7-1.5-9.8-11.7-29.7 25.2 9.8 11.7 1.6-1.4-.4-.9-1.3-2.6c-.6-1.1-1-2.3-1.4-3.4s-.6-2.1-.6-3c-.1-.9 0-1.7.2-2.5.2-.7.4-1.4.8-1.9.3-.5.9-1.1 1.8-1.8l2.6-2.2 23 27.3 1 1.5.2 1.4-.8 1.5-1.5 1.6-2.2 1.8 1.5 1.8 18.5-15.7z"/><path d="m643.3 598.8c-.4-.8-.9-1.5-1.5-2.1l-1.5-1.6-1.6-1.3c-1.1-.8-2.2-1.3-3-1.5l-1.5-.2-1.1.1c-.3.1-.6.2-1 .3l.9.1c.8.2 1.8.7 2.9 1.5l1.6 1.3 1.5 1.6c.5.6 1 1.3 1.4 2 .4.7.6 1.4.6 2.2v.2c0 .7-.2 1.3-.5 2-.5.9-1.1 1.7-1.8 2.6l-2.7 3-.2.2.4.3 1.1.9h.4c.2-.2.6-.6 1.2-1.2l2.7-3c.8-.9 1.4-1.7 1.9-2.6.4-.7.6-1.5.6-2.2v-.3c-.2-.8-.4-1.6-.8-2.3z"/><path d="m625.5 590.7c.2-.4.5-1.3.9-2.5l.3-1.7-.1-1.1c-.2-.9-.6-1.6-1.1-2.3-.5-.7-1.1-1.3-1.8-2-.6-.6-1.5-1.1-2.6-1.6-1-.5-1.9-.7-2.5-.7l-.5.1c-.4.1-.9.2-1.3.4.5.1 1 .3 1.6.5 1.1.5 2 1.1 2.5 1.6.7.6 1.3 1.3 1.8 1.9.5.6.8 1.3 1 2.2l.1 1.1-.2 1.6c-.3 1.2-.6 2-.8 2.4l-1 1.6-1.5 1.8-.5.6 1.7 1.5 1.7-1.9 1.5-1.8z"/><path d="m626.8 622.7.6-.6 1.4-1.8.3-1.3-.4-1-1.4-1.5-22.2-20c-.7-.6-1.2-1-1.5-1.2l-1.1-.3-.9.2-.5.5c.3.2.7.5 1.2 1l22.2 20 1.4 1.4.4.9-.3 1.1-1.3 1.7-.6.6-.9 1 2.6 2.4 1 .9 1.4-1.5-1.9-1.7z"/><path d="m631.9 586.8c1.1-.8 2.2-1.5 3.4-2.2 1.3-.6 2.6-1.1 3.9-1.3l1.2-.1c-.8-.2-1.6-.4-2.4-.4l-1.4.1c-1.2.2-2.3.5-3.5 1.1-.2.5-.4 1-.6 1.4-.1.6-.3 1-.6 1.4z"/><path d="m612.5 576.6c1.1-1.2 2.2-2.3 3.2-3.2s2-1.6 3.1-2.2c1.1-.6 2.2-1.1 3.4-1.3l1.5-.2c-.2-.1-.5-.1-.7-.2l-1.7-.2-1.8.2c-1.2.2-2.4.7-3.5 1.3-1.1.6-2.2 1.4-3.2 2.3s-2.1 1.9-3.2 3.2l-17 19 2.5 2.3 1 .9 1.4-1.5-1.8-1.6z"/><path d="m651 594.5c-.1-1.2-.3-2.3-.7-3.2s-.9-1.7-1.5-2.4l-1.7-1.8c-.7-.6-1.4-1.1-2-1.5s-1.4-.7-2.4-1-2.1-.4-3.3-.2-2.4.6-3.6 1.2c-1.3.6-2.4 1.4-3.5 2.2-1.1.9-2.4 1.9-3.9 3.2l1.7-2.9c.5-.8 1-1.8 1.6-3 .6-1.1 1-2.4 1.2-3.6.3-1.3.3-2.4.1-3.6-.2-1.1-.7-2.1-1.3-3.1l-1.6-1.6c-.6-.5-1.3-1-2.1-1.5-.8-.4-1.7-.7-2.6-.9-1-.2-2-.2-3 0s-2.1.6-3.1 1.2-2 1.3-3 2.1-2 1.9-3.1 3.1l-16.1 18 1.6 1.4 1-1.1 1.4-1.2 1.4-.4 1.4.3c.5.2 1.1.7 1.9 1.4l22.2 20c.7.6 1.2 1.2 1.6 1.7l.6 1.5-.5 1.8-1.5 2-.7.7 1.6 1.5 17.1-19.1c1-1.1 1.9-2.2 2.6-3.4.7-1.1 1.3-2.4 1.7-3.9.4-1.4.6-2.7.5-3.9zm-40.1-6.5-1.1-1.2-.4-1.1.4-1.2.8-1.2 2.2-2.4c.6-.7 1.3-1.3 2.2-1.8.8-.5 1.8-.9 2.8-1.1s2.2 0 3.6.7c1.2.6 2.2 1.2 2.9 1.8.7.7 1.4 1.4 1.9 2.1.6.7 1 1.6 1.2 2.6.3 1 .2 2.1-.1 3.4-.3 1.2-.7 2.1-1 2.7l-1.1 1.8-1.6 1.9-2.3 2.6zm33.4 16.1c-.5 1-1.2 1.9-2 2.8l-2.7 3c-.7.8-1.3 1.3-1.6 1.5h-1c-.3-.1-.9-.5-1.6-1.1l-12.3-11.1 3.1-3.5c1.2-1.3 2.3-2.3 3.4-3s2.1-1.1 3.1-1.3 2-.2 3 .1 2.1.8 3.3 1.7c.7.5 1.3 1 1.7 1.4.5.4 1 1 1.6 1.7s1.1 1.4 1.6 2.2.7 1.7.8 2.7c.3.9.1 1.9-.4 2.9z"/><path d="m659.5 581.2.5-.3.8-1 1-1.6-1-.6-1.1-.7-1.8 2.7-.2.2.6.7.7.6z"/><path d="m667.6 564.3-5.7-1.8-.6.9 3.6 1.2 1.2.6.5.6v.4l-.4.9-.9 1.5-.8 1.1 3 1.9 1.1.8 1-1.5-2-1.3.6-.8.9-1.5.5-1.1-.1-.6-.6-.7z"/><path d="m638.9 555.4 1.1 1.4 14.5 4.5-5.2 7.8 1.6 2.1 6.8-10.1z"/><path d="m653.9 590.3.7-1.1.6-1.3.2-1.5-.5-1.6c-.3-.7-.7-1.3-1-1.7l-23.9-31.8 5.2-7.8-2.5-.8-5.7 8.5 23.9 31.8c.3.4.6 1 .9 1.6l.5 1.5-.1 1.5-.5 1.3-.7 1.1-.7 1.1 2.9 1.9 1.1.7 1-1.5-1.9-1.3z"/><path d="m675.5 555.1h.4l1.3-.5 1.2-1.2.3-.4-1-.7-1-.7-.7 1-.4.5-1.1 1.2-1.1.4h.2c.7.3 1.4.4 1.9.4z"/><path d="m679.6 553.3-.5.6-1.3 1.4c-.5.4-1.1.6-1.8.7s-1.7 0-2.8-.3c-1.2-.3-1.9-.5-2.3-.7l-35-10.7-4.6 6.9 23.4 31.1c.4.5.7 1.1 1.1 1.9.3.7.5 1.4.6 2l-.2 1.8-.6 1.6-.8 1.2 1.9 1.2 8-12.1-1.9-1.2-1.1 1.7-.9 1.2-.9.6-1.1-.1-1-.8-5.1-6.4 9-13.6 6.5 2.1 1.5.8.9 1 .2 1.2-.6 1.4-1 1.6 1.9 1.2 10.6-16zm-28.6 19.6-14.8-19.4 23 7z"/><path d="m680.6 550 .6-1.2.6-1.6v-1l-.7-.8c-.5-.3-1.1-.6-1.8-1l-26.8-12.9c-.5-.3-1.2-.5-1.9-.7l-1-.2h-.2l-.8.5-.1.2c.5.1.9.3 1.3.5l26.8 12.9c.7.3 1.3.7 1.8 1l.6.6v.8l-.5 1.5-.6 1.2-.6 1.2 3.2 1.6 1.2.6.6-1.3-2-1z"/><path d="m686.5 513.7 1.2 1 1.2 1.4c.3.5.7 1.2 1 2.2.3.7.4 1.4.4 2.1v.5c-.1 1-.3 2-.6 3.1-.3 1.1-.6 1.9-.8 2.4l-3.1 6.4-.9 1.5-.3.3c.7.3 1.2.5 1.6.7h.8l.7-.7.9-1.5 3.1-6.4c.2-.5.5-1.3.9-2.4.3-1.1.5-2.2.6-3.2v-.6c0-.7-.1-1.5-.4-2.2-.4-1-.7-1.8-1.1-2.2l-1.2-1.5-1.2-1-1.6-1.1-1.9-1.3.4-.8 1-2.1-2.3-1.4-1.6 3.3-.5 1 2.1 1.5z"/><path d="m644.1 535 .6-1.2.1-.1-2-1 8.9-18.6-1.2-.6-1.2-.6-9.6 20 3.3 1.6z"/><path d="m688 508.6-1 2.1 1.2.8 1.6 1.1 1.3 1.1 1.3 1.6c.5.6.9 1.5 1.3 2.5.4 1.1.5 2.2.4 3.3s-.3 2.2-.7 3.4c-.3 1.2-.6 2-.9 2.6l-3.1 6.5-1 1.7-1.1 1h-1.3c-.5-.1-1.2-.4-2.1-.8l-27.2-13.1c-1-.5-1.7-.9-2.3-1.3l-1-1.2v-1.4l.5-1.5.7-1.3-2-1-8.4 17.6 2 1 .6-1.2 1-1.6 1.2-.7c.4-.1 1.1-.1 1.9.1s1.5.5 2.1.7l26.8 12.9c.8.4 1.5.8 2.1 1.1l1 1.1.1 1.5c-.1.6-.3 1.2-.7 1.9l-.6 1.2 2 1 16.9-35.4z"/><path d="m698.7 511 .4-1.3.3-1.7-.2-1-.8-.6c-.5-.2-1.2-.5-2-.7l-28.3-9c-.6-.2-1.2-.3-2-.4h-.7l-.6.1-.5.4c.4.1.8.2 1.1.3l28.3 9c.8.2 1.4.5 1.9.7l.6.5.1.8-.3 1.6-.4 1.3-.4 1.2 3.4 1.1 1.2.4.3-1.1-2-.6z"/><path d="m697.8 473 1.7.9 1.3.8 1.4 1.2c.4.4.9 1.1 1.3 2s.7 1.7.7 2.6v.7c0 .8-.1 1.6-.2 2.5-.2 1.1-.3 2-.5 2.5l-2.2 6.8-.7 1.6-.5.6h.1c.8.2 1.4.4 1.9.5l.8-.1.6-.8.7-1.6 2.1-6.8c.2-.5.3-1.4.5-2.6.1-.9.2-1.7.2-2.5v-.7c0-.9-.3-1.8-.7-2.7-.5-1-1-1.7-1.4-2.1l-1.4-1.2-1.4-.8-1.7-.9-2.1-1 .3-.8.8-2.5-2.6-1.1-1.1 3.6-.3 1.1z"/><path d="m660.5 500.8.3-1-1.9-.7 6.3-20-1.4-.5-1.3-.4-6.7 21.1 3.4 1.1z"/><path d="m700.3 469-.7 2.2 1.3.7 1.8.9 1.5.9 1.5 1.3c.5.6 1.1 1.3 1.6 2.4.5 1 .8 2.1.9 3.1.1 1.1 0 2.2-.2 3.4s-.4 2.1-.6 2.7l-2.2 6.8-.8 1.8-1 1.2-1.3.2c-.6-.1-1.3-.3-2.2-.5l-28.8-9.2c-1-.3-1.8-.6-2.5-1l-1.2-1.1-.2-1.3.3-1.5.5-1.4-2.2-.7-5.9 18.6 2.2.7.4-1.3c.2-.7.5-1.3.8-1.7l1-.9c.4-.2 1-.2 1.9-.1.8.1 1.5.2 2.2.5l28.3 9c.9.3 1.6.6 2.2.8l1.2 1 .3 1.5c0 .6-.2 1.3-.4 2l-.4 1.3 2.2.7 11.8-37.3z"/><path d="m699.4 459c-1 0-2.2-.1-3.5-.2-1.8-.2-3.1-.4-4-.6s-2-.5-3.1-.9-2.2-.9-3.2-1.4-2-1.2-3-2c-1-.8-2-1.6-2.8-2.4-.8-.9-1.6-1.9-2.2-3-.7-1.1-1.2-2.2-1.7-3.5-.5-1.2-.8-2.4-1-3.6-.1-1-.2-1.8-.2-2.6v-.3c0-.8.1-1.5.1-2.2l.3-1.6.4-1.6v-.1l.6-1.6c.2-.5.6-1.4 1.1-2.5s.9-1.9 1.3-2.5l.6-1.3.2-.7-.1-.4-.5-.4-2.4-1 .1-.8.4-3.1 14.2 1.1v-.1l-17.1-1.3-.4 3.4-.1 1 2.6 1 .4.3v.2l-.1.6-.6 1.2c-.3.6-.7 1.5-1.3 2.6-.5 1.1-.9 1.9-1.1 2.4v.1l-.6 1.6v.1l-.4 1.6-.3 1.6c-.1.7-.1 1.5-.2 2.3v.2c0 .8.1 1.7.2 2.7.2 1.2.5 2.4 1 3.6s1 2.4 1.7 3.5 1.4 2.1 2.3 3c.8.8 1.8 1.7 2.8 2.5 1 .8 2.1 1.5 3 2 1 .5 2.1 1 3.2 1.4 1.2.4 2.2.7 3.2.9s2.3.4 4.1.7c1.3.1 2.5.2 3.5.2h.3c1 0 2.1-.1 3.4-.2.4-.1.9-.1 1.3-.2-.8.1-1.5.1-2.2.1z"/><path d="m695.6 447c.8.1 2.1.2 3.8.4s3.1.2 4.4.2c1.2 0 2.4-.2 3.8-.5 1.3-.3 2.4-.8 3.4-1.4s1.9-1.4 2.6-2.5c.8-1 1.4-2 1.7-2.8.4-.9.6-1.7.6-2.5l.1-1.2v-.6c0-.7-.1-1.5-.4-2.4-.2-.9-.6-1.6-1-2.4-.5-.8-1-1.5-1.6-2.2s-1.3-1.3-1.9-1.8c-.7-.5-1.3-1-1.9-1.4l-.8-.6-1.9-1.3.6-.8 1.1-1.5-.1-.1-.9-.5-1-.6-1.9 2.6-.8 1.1 2.1 1.5.8.6c.6.4 1.2.9 1.9 1.4.6.5 1.2 1.1 1.9 1.8.6.6 1.1 1.4 1.6 2.1.4.7.8 1.5 1 2.3.2.9.3 1.6.4 2.3v.6l-.1 1.2c-.1.8-.3 1.6-.6 2.4s-.9 1.7-1.6 2.8c-.8 1-1.6 1.8-2.6 2.4s-2.1 1-3.3 1.3c-1.3.3-2.6.4-3.7.5-1.2 0-2.7-.1-4.3-.2-1.1-.1-1.9-.2-2.7-.3.3-.1.8 0 1.3.1z"/><path d="m689.3 424.4h1.1v-.3l-1.5.2c-.2 0-.4.1-.6.1z"/><path d="m719.3 436.7c-.1-1.3-.3-2.5-.7-3.6s-.9-2.2-1.5-3.3-1.3-1.9-1.9-2.7c-.7-.8-1.2-1.3-1.7-1.8l-1.7-1.3-1.3-.9-.6-.4-.9-.5-1.2 1.6 1 .7.8.6c.6.4 1.2.9 1.9 1.4s1.4 1.2 2 1.9c.7.7 1.2 1.5 1.7 2.3s.9 1.7 1.1 2.6.4 1.8.4 2.6 0 1.5-.1 2c-.1.9-.3 1.8-.7 2.8s-1 2-1.8 3.1-1.8 2-2.9 2.7-2.4 1.2-3.7 1.5c-1.4.3-2.7.5-4 .5s-2.7-.1-4.5-.2c-1.7-.2-3-.3-3.8-.4-1.4-.1-2.8-.4-4.3-.7s-2.8-.7-3.9-1.1-2.2-.9-3.3-1.5-2.1-1.3-2.9-2c-.8-.8-1.5-1.6-1.9-2.4s-.7-1.7-.8-2.5-.1-1.8 0-2.9c.1-.8.3-1.6.6-2.4s.7-1.7 1.3-2.8 1.3-2 1.9-2.8c.7-.8 1.4-1.5 2.3-1.9.8-.5 1.6-.8 2.3-1s1.4-.4 2-.5l1.7-.2h1.3l.3-2.2-14.5-1.1-.3 2.1 1.8.7.9.7.2 1-.2 1-.7 1.4c-.3.6-.7 1.5-1.2 2.5-.5 1.1-.9 1.9-1.1 2.4l-.6 1.6-.4 1.5-.3 1.6c-.1.7-.1 1.4-.1 2.1s.1 1.6.2 2.7.4 2.2.9 3.3c.4 1.2 1 2.3 1.6 3.3.6 1.1 1.3 2 2.1 2.8s1.7 1.6 2.7 2.3c1 .8 2 1.4 2.9 1.9s1.9 1 3 1.3c1.1.4 2.1.7 3 .9s2.2.4 4 .6c1.3.1 2.5.2 3.5.2s2.2-.1 3.6-.2c1.4-.2 2.9-.5 4.4-1.1 1.6-.5 3.1-1.4 4.6-2.5 1.5-1.2 2.8-2.5 3.8-4.2 1.1-1.6 1.8-3 2.1-4.2.4-1.1.7-2.1.9-3s.3-1.7.4-2.5c.4-.9.4-2.1.3-3.4z"/><path d="m677.6 417.2h1.3v-1.3h-1.9l-.4-20.9-1.6.1h-1.3l.3 22.1z"/><path d="m702.8 378.5 2.6.4 1.9.3 1.6.4 1.6.7c.5.3 1.2.7 1.9 1.5.7.7 1.2 1.4 1.5 2.2.4.9.6 2 .8 3.1.2 1.1.3 2 .3 2.5l.1 7.1-.1 1.7-.2.6h.2c.8 0 1.5-.1 1.9-.1l.7-.4.4-1 .1-1.8-.1-7.1c0-.5-.1-1.4-.3-2.6-.2-1.1-.5-2.2-.9-3.1-.3-.9-.9-1.6-1.6-2.4-.8-.8-1.5-1.3-2-1.6l-1.7-.7-1.6-.4-1.9-.3-2.3-.3v-.8-2.5l-3-.2.1 3.7z"/><path d="m718.5 415.4v-1-1.3c0-.7-.1-1.2-.2-1.7l-.5-.9-1-.4-1.5-.1h-.6l-29.7.5c-.6 0-1.3.1-2 .2-.6.1-1 .3-1.2.4l-.5.7c.4 0 .7-.1 1-.1l29.7-.5h.6l1.5.1.8.3.4.7c.1.5.2 1 .2 1.6v1.3 1.3h3.6 1.3v-1.3z"/><path d="m685 409.6 29.7-.5c.9 0 1.7 0 2.3.1l1.4.5.7 1.3c.2.6.2 1.3.3 2v1.3h2.3l-.6-39.2-14.4-1.1v2.3l1.5.2 2 .3 1.7.4c.6.2 1.2.4 1.9.8s1.4.9 2.3 1.7c.8.8 1.4 1.7 1.8 2.7s.7 2.1.9 3.3.3 2.1.3 2.7l.1 7.2-.2 1.9-.5 1.4-1.2.6c-.5.1-1.3.2-2.2.2l-30.2.5c-1.1 0-1.9 0-2.6-.1s-1.2-.3-1.5-.6l-.6-1.2-.2-1.6v-1.5h-2.3l.3 19.6h2.3v-1.4c0-.8.1-1.4.2-1.8l.7-1.2c.3-.3.9-.5 1.7-.7.7 0 1.4-.1 2.1-.1z"/><path d="m710.1 357.5c-.6 1-1.3 1.6-1.9 1.9-.7.3-2.2.7-4.3 1l-23.8 3.6h-.5l.2.2 1.3.6.9.1.8-.1 23.8-3.6c2.1-.3 3.7-.7 4.4-1s1.4-.9 2-2c.7-1.1 1.1-2.1 1.3-3.2l.2-1.9-.1-1.4-.4-1.8c-.2-.6-.5-1.4-.9-2.4s-1-1.9-1.8-2.9c-.7-.9-1.5-1.6-2.3-2-.9-.5-1.7-.7-2.2-.8l-1.2-.1h-.7c-.1 0-.2 0-.2 0 .4.1.9.3 1.5.6.8.4 1.5 1 2.2 1.9s1.3 1.9 1.7 2.8c.4 1 .7 1.8.9 2.3l.4 1.8.1 1.3-.2 1.9c-.2 1.2-.6 2.2-1.2 3.2z"/><path d="m677.1 341.2h1.4l23.2-3.5c.8-.1 1.6-.2 2.5-.3l1.3-.1 1.6.1c.2 0 .4.1.5.1-1.1-.5-2.1-.8-3.1-.9l-1.7-.1-1.4.1c-.9.1-1.7.2-2.6.3l-23.2 3.5h-.3l.4.4z"/><path d="m674.7 382.8 1.2-.2 1.6-.3-3.4-22.4.9-.1 1-.2-.2-1.2-3.4.6-1.3.2z"/><path d="m667.6 336.3 2.5 16.3 2.8-.4-2.3-15.2 1-.1.9-.2-.2-1.2-3.4.6z"/><path d="m718.7 356.3c-.1-1.2-.2-2.3-.4-3.3-.2-1.1-.4-2.2-.7-3.2-.3-1.1-.7-2.3-1.4-3.8-.6-1.5-1.4-2.8-2.5-4-1-1.2-2.1-2.1-3.4-2.7-1.2-.6-2.3-1-3.3-1.1s-1.9-.1-2.8 0-1.7.2-2.5.3l-23.3 3.6h-1.7l-1.4-.5-.9-1-.5-1.3-.3-1.8-2.1.3 2.1 13.8 2.1-.3-.4-2.8v-1.5l.5-1.1 1.2-.7 1.8-.5 23.3-3.6c1-.1 1.8-.2 2.5-.3.7 0 1.4 0 2.1.1s1.5.4 2.5.8c1 .5 1.9 1.2 2.7 2.2s1.4 2.1 1.9 3.1c.5 1.1.8 1.9 1 2.5l.4 1.9c.2 1.2.1 2.4-.1 3.6s-.7 2.4-1.4 3.6-1.5 2-2.5 2.4c-.9.4-2.5.8-4.7 1.1l-23.8 3.6c-.7.1-1.4.1-2.1 0l-1.6-.7-1-1.2-.6-1.7-.3-1.8-2.1.3 3.2 21 2.1-.3-.3-1.9c-.1-.8-.1-1.5.1-2.1l.7-1.5 1.2-.9c.5-.2 1.2-.4 2-.5l24.4-3.7c.6-.1 1.3-.2 2-.4s1.4-.4 1.9-.6l1.7-1c.7-.5 1.5-1.4 2.5-2.8 1-1.3 1.6-3 1.8-4.9.4-1.9.5-3.5.4-4.7z"/><path d="m702.6 300.3c-.3-1.1-.8-2.1-1.3-2.9s-1.1-1.4-1.8-1.7c-.8-.4-1.5-.6-2.3-.6h-.4c-.3 0-.7 0-1 0 .3.1.6.2 1 .4.7.3 1.2.8 1.6 1.6.5.9.9 1.8 1.2 2.9l1.2 3.8c.2.6.3 1.2.4 1.4l-.1.2-1.2.5-12.6 3.9.5 1.5 14.9-4.6c.6-.2 1.1-.4 1.3-.5l.2-.4c0-.3-.2-.8-.4-1.6z"/><path d="m708.8 320.6c-.2-.8-.5-1.5-.8-2l-.9-1-1.1-.2c-.4.1-.8.2-1.3.3l.5.5c.3.5.5 1.1.7 1.9l.3.9.4 1.3 2.6-.8v-.1z"/><path d="m681.9 307.8-.9-1.7c-.3-.4-.8-1.2-1.7-2-.8-.8-1.6-1.3-2.4-1.6l-1.9-.3h-.6c-.1 0-.2 0-.4.1h.1c.7.2 1.5.7 2.2 1.5.8.9 1.4 1.6 1.6 2l.9 1.7c.3.6.5 1.4.8 2.2l.7 2.1-12.1 3.7.2.3.5.5.7.1 1.4-.2 12.5-3.9-.8-2.4c-.2-.7-.5-1.4-.8-2.1z"/><path d="m661.2 305.7c-.2-1.2-.3-2.3-.3-3.5v-.4c0-1.3.2-2.5.6-3.6.4-1.1 1-2.1 1.7-2.9s1.5-1.5 2.4-2c.8-.5 1.7-.9 2.5-1.2.8-.3 1.6-.5 2.4-.6h.8c.4 0 .9 0 1.3.1-.3-.1-.5-.3-.8-.4-1-.4-2-.6-3.1-.6h-.8c-.8.1-1.6.3-2.5.6-.9.3-1.7.7-2.6 1.2s-1.7 1.2-2.5 2c-.8.9-1.4 1.9-1.8 3-.4 1.1-.6 2.4-.7 3.7v.5c0 1.1.1 2.3.3 3.5.2 1.3.6 2.8 1.1 4.4l7.4 24.4 2.6-.8-7.1-23.2c-.3-1.5-.7-2.9-.9-4.2z"/><path d="m681 298.6c-.1-.8-.1-1.5-.1-2.3l.1-1.8c.1-1.5.4-2.8.9-4s1.2-2.2 2.1-3.1c.8-.7 1.6-1.3 2.3-1.7s1.5-.7 2.5-1c.8-.2 1.6-.4 2.5-.5l1.7-.1 1.5.1c.1 0 .2 0 .3.1-1-.4-1.9-.7-2.8-.9l-1.5-.1-1.7.1c-.9.2-1.8.3-2.5.6-1 .3-1.8.7-2.5 1.1s-1.5 1-2.3 1.7c-.9.8-1.7 1.9-2.2 3.2-.5 1.2-.8 2.6-.9 4.1v.7c.9.8 1.6 1.7 2.3 2.7-.1.3.1.7.3 1.1z"/><path d="m704.6 296.1c-.4-1.4-.9-2.7-1.5-4-.6-1.2-1.4-2.4-2.4-3.5s-2.1-2-3.2-2.5c-1.1-.6-2.1-.9-3.1-1.1-1-.1-1.9-.1-2.8 0-.9.2-1.7.3-2.4.5-.9.3-1.7.6-2.3 1s-1.3.9-2.1 1.6-1.4 1.6-1.8 2.7c-.5 1.1-.7 2.3-.9 3.8-.1 1.4-.1 2.8.1 4.2s.4 3.1.8 5l-1.6-3c-.5-.9-1-1.8-1.7-2.9s-1.5-2.1-2.5-2.9c-.9-.9-2-1.5-3-1.9-1.1-.4-2.2-.5-3.3-.4-.7.1-1.4.2-2.2.5-.8.2-1.5.6-2.3 1.1s-1.5 1.1-2.2 1.8-1.2 1.6-1.5 2.6c-.4 1-.6 2.1-.6 3.3s.1 2.4.3 3.7c.2 1.2.6 2.6 1 4.2l7 23.1 2-.6-.4-1.4c-.2-.7-.3-1.3-.3-1.8l.4-1.4 1-1.1c.4-.3 1.2-.6 2.2-.9l28.5-8.8c.9-.3 1.7-.4 2.3-.5l1.6.2 1.3 1.3c.4.7.7 1.4.9 2.3l.3.9 2.1-.7zm-33.4 21.2-1.6.2-1.1-.2-.8-.9-.6-1.3-1-3.1c-.3-.9-.4-1.8-.4-2.8s.1-2 .5-2.9c.3-1 1.2-1.9 2.4-2.8 1.1-.8 2.1-1.3 3.1-1.5.9-.3 1.9-.5 2.8-.6s1.9 0 2.9.3 1.9.9 2.8 1.8 1.5 1.7 1.8 2.2l.9 1.8c.3.7.6 1.5.8 2.3l1.1 3.4zm33.4-10.5c-.3.2-.9.5-1.8.8l-15.8 4.9-1.4-4.5c-.5-1.7-.8-3.2-.8-4.5s.1-2.4.5-3.4c.3-1 .9-1.8 1.7-2.5s1.8-1.4 3.1-2c.8-.3 1.5-.6 2.1-.8s1.4-.3 2.2-.5c.9-.2 1.8-.2 2.7-.2s1.9.3 2.7.7c.9.5 1.6 1.2 2.2 2.1.6 1 1 2 1.4 3.2l1.2 3.8c.3 1.1.5 1.8.4 2.1z"/></g></g></svg>