<?xml version="1.0" encoding="UTF-8"?><svg id="Calque_2" xmlns="http://www.w3.org/2000/svg" viewBox="0 0 3565.28 4770.07"><defs><style>.cls-1{fill:#fff;}.cls-2{fill:#bb1735;}.cls-3{fill:#1a2441;}</style></defs><g id="Calque_1-2"><g id="Fortaleza"><path class="cls-3" d="m3565.28,1620.24c-6.23,24.9-11.01,50.28-18.98,74.61-18.38,56.1-50.29,103.82-94.35,143.2-24.85,22.22-49.85,44.29-75.27,65.85-7.98,6.77-10.95,12.98-9.18,24.07,19.05,119.42,29.03,239.65,28.88,360.59-.4,336.4-71.98,657.02-214.69,961.67-113.43,242.15-264.34,458.21-453.74,646.94-170.18,169.59-363.23,307.86-577.39,416.81-12.51,6.36-23.7,16.16-33.97,25.97-119.17,113.83-238.04,227.97-357,342.01-16.35,15.67-33.04,30.99-49.07,46.99-18.39,18.36-37.6,35.12-63.86,41.13h-22.66c-5.72-2.33-11.44-4.66-17.17-6.98-33.66-13.66-53.72-47.24-48.02-83.01,13.25-83.15,28.62-165.98,40.41-249.33,11.09-78.4,8.09-156.85-10.91-234.08-12.9-52.42-44.58-91.88-87.26-123.82-52.42-39.22-112.92-59.06-174.63-77.57-127.45-38.23-255.35-75.38-381.23-118.33-242.08-82.61-396.91-254.36-487.75-489.14-33.64-86.94-58.67-176.3-79.7-266.96-2.32-9.98-7.02-20.25-13.24-28.37-115.96-151.07-187.41-320.57-208.9-509.97-22.03-194.14,9.58-380.76,84.25-560.64.96-2.32,1.81-4.69,2.78-7,19.85-47.37,19.64-47.12-19.72-81.4-40.79-35.52-82.32-70.32-121.35-107.71-55.43-53.1-86.98-119.21-98.01-195.15-.52-3.55-2.35-6.91-3.57-10.36,0-25.18,0-50.36,0-75.54,1.09-2.87,2.82-5.66,3.17-8.62,5.76-48.88,22.5-93.86,47.78-135.85C310.43,969.31,569.9,538.38,829.42,107.48c18.09-30.03,39.7-58.16,70.91-74.21C928.35,18.86,959.66,10.84,989.52,0c528.75,0,1057.5,0,1586.25,0,1.69.8,3.32,2.09,5.09,2.32,74.88,9.48,124.46,53,162.18,115.79,248.11,413.09,497.23,825.57,745.12,1238.79,24.38,40.64,43.75,84.46,63.2,127.81,7.78,17.33,9.47,37.4,13.93,56.21v79.31Zm-1927.23,3062.18c1.42.66,2.84,1.31,4.26,1.97,13.07-12.48,26.16-24.92,39.2-37.43,126.68-121.48,253.66-242.66,379.7-364.81,17.93-17.38,37.03-31.03,59.12-42.31,303.13-154.87,557.72-367.95,760.68-641.26,265.5-357.53,409.63-759.53,433.7-1204.21,8.94-165.19-3.04-329.33-31.07-492.28-2.42-14.05.43-23.34,11.49-32.58,32.83-27.41,64.78-55.88,97.06-83.95,101.81-88.57,124.08-229.32,54.25-345.34-258.09-428.77-516.53-857.33-774.19-1286.36-30.88-51.41-73.14-75.32-133.32-75.23-502.9.72-1005.81.84-1508.72-.14-63.36-.12-106.71,24.8-139.07,78.74C635.32,583.72,378.52,1009.61,122.04,1435.7c-73.47,122.06-52.46,258.41,54.57,352.5,56.22,49.43,112.66,98.62,169.48,147.35,9.16,7.86,11.29,13.8,5.89,25.17-12.12,25.5-22.38,51.87-33.47,77.86-77.67,181.98-109.56,370.68-80.22,567.54,24.73,165.92,91.77,313.81,194.81,445.91,9.23,11.83,16.12,26.98,19.47,41.65,28.13,123.43,63.71,243.96,120.83,357.85,76.11,151.74,187.84,265.95,346.24,328.73,97.29,38.56,197.61,69.62,297.16,102.28,80.49,26.41,163.9,45.05,242.29,76.44,94.54,37.85,169.34,101.18,201.61,203.41,16.82,53.26,20.46,108.46,22.77,163.84,3.2,76.68-11.18,151.45-23.68,226.45-7.21,43.26-14.49,86.5-21.73,129.75Z"/><path class="cls-1" d="m1638.05,4682.42c7.25-43.25,14.52-86.5,21.73-129.75,12.5-75,26.88-149.77,23.68-226.45-2.31-55.38-5.96-110.58-22.77-163.84-32.27-102.23-107.08-165.56-201.61-203.41-78.39-31.39-161.8-50.03-242.29-76.44-99.54-32.66-199.87-63.72-297.16-102.28-158.39-62.78-270.13-176.99-346.24-328.73-57.12-113.89-92.7-234.42-120.83-357.85-3.34-14.67-10.24-29.82-19.47-41.65-103.05-132.1-170.09-279.98-194.81-445.91-29.34-196.86,2.55-385.55,80.22-567.54,11.09-25.99,21.35-52.36,33.47-77.86,5.4-11.36,3.27-17.31-5.89-25.17-56.82-48.73-113.26-97.93-169.48-147.35-107.04-94.09-128.05-230.44-54.57-352.5C378.52,1009.61,635.32,583.72,891.13,157.23c32.35-53.94,75.71-78.87,139.07-78.74,502.9.99,1005.81.86,1508.72.14,60.18-.09,102.45,23.82,133.32,75.23,257.66,429.03,516.1,857.59,774.19,1286.36,69.84,116.02,47.57,256.77-54.25,345.34-32.28,28.08-64.23,56.54-97.06,83.95-11.06,9.24-13.91,18.52-11.49,32.58,28.03,162.95,40.01,327.09,31.07,492.28-24.07,444.67-168.2,846.68-433.7,1204.21-202.96,273.31-457.54,486.39-760.68,641.26-22.09,11.29-41.19,24.94-59.12,42.31-126.04,122.14-253.01,243.33-379.7,364.81-13.04,12.5-26.13,24.95-39.2,37.43-1.42-.66-2.84-1.31-4.26-1.97Zm797.71-2576.53c40.81,16.96,77.37,31.49,113.27,47.5,9.76,4.35,19.53,11.67,25.93,20.16,78.19,103.65,134.29,218,164.08,344.72,7.41,31.51,13.55,63.32,20.34,95.31,3.57-.44,6.13-.42,8.49-1.09,145.98-41.49,250.62-179.43,250.9-331.07.2-104.48.62-208.96-.27-313.43-.31-36.5,11.24-64.85,39.69-89,80.1-67.97,158.93-137.44,237.84-206.79,44.36-38.98,55.87-99.17,26.62-148.81-56.48-95.87-114.14-191.06-172.16-286.01-22.57-36.94-64.95-51.87-105.14-36.64-143.28,54.3-286.36,109.13-429.11,164.81-43.63,17.02-51.5,72.13-15.18,101.59,13.96,11.33,30.21,20.65,46.74,27.85,65.79,28.66,135.03,30.68,203.63,16.54,48.26-9.95,94.76-28.51,141.98-43.43,23.36-7.38,36.81-.99,45.7,22.32,8.59,22.52,3.56,37.01-17.9,46.07-82.89,34.99-168.11,60.35-259.34,57-80.43-2.95-155.3-22.56-217.61-77.11-30.39-26.6-50.86-59.95-64.83-98.29-33.01,12.6-64.74,24.48-96.29,36.81-79.38,31.02-157.46,29.07-233.26-10.69-17.48-9.17-30.8-7.95-48.78,0-92.8,41.04-183.51,45.81-267.44-22.85-1.01-.83-3.29-.1-4.54-.1v349.64c58.14,9.17,114.5,18.22,170.91,26.91,41.05,6.32,76.4,21.06,100.29,58.04,10.93,16.91,26.34,30.92,41.88,48.71-107.59,25.95-210.91,50.86-314.43,75.82,0,104.26.24,206.19-.3,308.12-.07,12.8,4.18,20.21,14.4,27.58,103.57,74.69,206.63,150.07,310.19,224.76,10.3,7.43,13.49,13.57,8.94,26.2-11.49,31.88-21.21,64.41-31.69,96.66-12.35,38-24.75,75.98-38.45,118.04,168.78-42.09,333.89-83.25,501.27-124.99-5.82-7.25-9.56-12.16-13.57-16.84-45.05-52.53-90.37-104.83-134.93-157.78-5.89-7-11.32-17.24-11.28-25.96.45-86.8,2.2-173.59,3.34-260.38.38-28.7.06-57.41.06-89.89Zm-699.3-687.42c-7.66,5.79-13.31,10.46-19.34,14.58-84.73,57.74-171.84,49.19-259.46,8.1-12.81-6.01-22.46-6.62-35-.05-45.22,23.7-93.58,40.85-144.69,34.27-41.24-5.31-81.54-19.05-121.74-30.83-23.79-6.97-46.57-17.39-70.16-26.4-33.55,91.7-101.97,140.34-191,162.73-124.41,31.28-241.82,3.43-355.37-47.71-8.05-3.63-16.2-17.35-16.3-26.47-.35-33.74,22.93-48.51,54.31-36.8,11.76,4.39,23.42,9.07,35.1,13.68,63.97,25.26,130.1,38.08,199.06,34.85,51.12-2.4,99.26-14.49,142.57-42.95,23-15.12,35.6-35.18,31.63-63.46-3.77-26.81-21.17-41-45.26-50.22-135.51-51.83-270.82-104.15-406.24-156.22-56.38-21.68-95.67-8.38-126.58,42.89-51.93,86.14-103.78,172.33-155.51,258.59-41.13,68.59-32.17,122.6,28.39,175.22,76.44,66.44,152.35,133.49,229.29,199.34,25.45,21.78,36.78,47.52,36.55,80.75-.72,104.47-.55,208.95-.19,313.43.5,147.78,88.57,275.24,226.36,328.18,10.77,4.14,21.99,7.14,33.61,10.86,1.98-8.87,3.68-14.91,4.65-21.07,24.39-153.85,84.15-292.69,177.04-417.47,4.47-6.01,8.65-13.92,14.86-16.68,40.5-18.03,81.52-34.87,123.83-52.72,1.04,5.65,2,8.56,2.05,11.49,1.76,112.58,3.67,225.16,4.66,337.75.07,8.26-4.86,18.04-10.41,24.63-46.23,54.83-93.17,109.06-139.81,163.55-3,3.51-5.31,7.61-8.68,12.52,166.83,41.67,331.59,82.83,498.82,124.61-1.59-6.67-2.09-9.64-3.01-12.47-21.55-66.3-42.84-132.68-64.97-198.79-4.6-13.73-3.2-21.57,9.71-30.82,103.28-74,205.72-149.17,308.77-223.49,9.69-6.99,13.83-13.85,13.76-26.05-.53-97.55-.28-195.11-.33-292.66,0-5.57-.51-11.14-.81-17.15-103.75-25-206.65-49.8-310.67-74.87,40.13-56.3,80.66-107.6,155.35-110.99,8.08-.37,16.02-3.11,24.1-4.21,43.43-5.91,86.87-11.66,131.03-17.56v-353.92Zm67.82,2957.87c9.19-13.92,17.09-28.34,27.28-40.92,68.05-84.04,134.37-169.63,205.46-251.05,129.7-148.55,207.32-317.94,218.77-516.01,9.22-159.53-45.76-292.18-167.49-396.04-100.22-85.51-218.43-136.46-344.3-168.63-317.05-81.03-634.83-159.22-952.23-238.9-195.37-49.04-322.41-170.08-378.12-363.9-9.94-34.58-13-71.13-19.54-108.47-14.27,75.02-21.53,148.98-17.38,224.19,11.49,208.19,98.2,380.96,246,524.9,109.24,106.38,237.88,182.71,378.52,239.61,93.44,37.81,189.43,67.98,289.21,82.99,110.71,16.66,218.1,42.86,318.17,94.53,141.53,73.07,232.83,183.91,262.08,343.33,24.84,135.41,17.63,269.37-14.9,402.11-14.13,57.68-33.9,113.98-51.52,172.24Zm1363.44-2052.89c-4.01,21.5-6.67,43.36-12.23,64.45-52.88,200.58-180.68,325.91-381.38,376.73-166.23,42.09-332.74,83.09-499.04,124.94-67.45,16.98-105.19,81.87-87.66,148.22,7.99,30.23,30,50.2,50.15,71.74,107.2,114.59,163.33,250.64,168.14,407.2,4.46,145-33.02,281.15-91.7,412.35-3.39,7.59-6.9,15.12-10.35,22.68,2.08.99,4.17,1.97,6.25,2.96,543.52-407.39,830.2-950.59,857.81-1631.28Zm-1339.93-1172.02c0,33.99-.32,67.98.07,101.97.75,65.42,45.56,123.66,109.1,139.85,47.68,12.15,94.47,5.82,136.97-18.13,35.49-20,67.61-19.96,103.05-.23,56.44,31.44,116.18,34.78,176.58,11.65,217.64-83.35,435.11-167.14,652.76-250.47,10.05-3.85,12.98-9.46,12.68-19.59-.63-21.38.37-42.81-.3-64.19-1.8-57.76-28.25-101.41-79.3-127.91-58.22-30.23-116.27-20.6-171.54,8.83-31.18,16.6-59.59,17.77-91,.92-70.06-37.59-141.05-36.83-210.97.94-29.24,15.8-56.64,15.37-85.87-.39-69.99-37.74-140.92-37.77-210.95-.14-29.17,15.67-56.02,15.32-86.05,1.1-25.74-12.19-53.63-22.36-81.63-26.82-94.04-15-173.34,54.77-173.59,150.07-.08,30.84-.01,61.68,0,92.53Zm-90.29,3.12c0-33.98.11-67.95-.02-101.93-.25-63.28-42.05-119.89-102.99-138.42-52.45-15.95-102.24-6.16-149.07,19.54-28.87,15.84-56.49,18.31-85.83,2.29-71.8-39.21-144.06-39.35-215.97-.38-28.53,15.46-55.55,14.68-84.12-.73-70.58-38.08-142.03-38-212.57.1-29.33,15.84-56.15,14.22-86,.14-25.75-12.14-53.72-22.04-81.73-26.42-80.79-12.65-154.62,38.56-169.22,117.45-5.31,28.69-1.96,58.92-3.77,88.37-.81,13.22,4.71,18.21,16.35,22.67,211.6,81.08,423.19,162.19,634.38,244.31,68.61,26.68,134.68,26.78,199.39-10.16,30.05-17.16,59.37-16.54,89.3.92,29.28,17.08,61.38,24.91,95.3,26.28,87.52,3.55,156.49-62.14,156.58-149.63.03-31.46,0-62.92,0-94.38Zm-8.71,2912.29c1.29-9.29,3.27-18.55,3.76-27.89,3.78-71.12,1.24-141.76-10.4-212.33-13.99-84.81-55.83-150.78-125.21-200.42-54.33-38.87-114.14-66.91-178.54-82.66-68.18-16.68-137.83-27.24-206.47-42.17-197.82-43.03-383.04-116.05-549.2-233.68-2.17-1.54-4.89-2.32-12.06-5.62,14.7,32.95,26.81,61.71,40.22,89.84,36.76,77.07,79.84,149.71,145.73,206.35,55.17,47.42,118.43,81.55,186.54,104.2,121.42,40.37,243.92,77.69,366.72,113.67,75.73,22.19,150.12,46.14,215.2,92.37,68.45,48.61,118.14,109.01,123.69,198.34ZM1148.88,562.43c19.63-.28,52.76-13.6,81.19-38.55,39.88-34.99,64.61-79.64,80.98-129.35,12.84-38.98,23.36-78.3,14.77-119.99-6.29-30.49-24.11-45.99-54.64-46.84-26.86-.75-50.99,8.01-71.84,24.09-74.09,57.15-120.42,132.88-140.34,223.38-12.74,57.89,13.9,87.4,89.87,87.26Zm324.94-159.7c38.47-23.27,50.12-58.1,53.94-97.18,4.52-46.23-14.29-67.78-59.55-67.79-25.17,0-50.35.54-75.49-.25-10.81-.34-15.12,3.63-18.42,13.66-31.6,95.96-63.78,191.72-95.66,287.58-1.45,4.36-1.6,9.15-2.62,15.39,10.28,0,18.51-.89,26.49.18,17.85,2.4,26.6-3.7,31.14-22.32,8.28-34.03,19.84-67.27,30.27-101.62,19.17,0,37.38-.54,55.54.18,13.34.53,21.23,7.97,19.64,22.05-1.41,12.42-3.93,24.72-6.08,37.05-3.61,20.66-7.31,41.29-11.03,62.26h59.14c0-17.48-1.04-32.8.31-47.9,1.17-13.05,5.12-25.85,7.73-38.78,4.48-22.22,6-43.88-15.34-62.51Zm819.29,151.38c-4.72-15.37-9.33-27.65-12.15-40.33-2.78-12.51-8.66-17.16-21.98-16.74-32.66,1.02-65.38.57-98.07.09-5.53-.08-15.03-2.15-15.89-5.22-6.93-24.66-12.24-49.77-18.53-76.86h107.65c-4.64-15.51-9.44-29.09-12.64-43.03-2.35-10.23-7.95-12.51-17.46-12.33-25.77.48-51.57.55-77.33-.19-5.09-.15-13.44-3.62-14.5-7.26-5.4-18.44-8.9-37.43-13.61-58.67h107.32c-6.35-20.13-11.88-37.69-17.27-54.77h-143.96c20.02,102.23,39.64,203.24,60.04,304.08.91,4.48,8.89,10.69,13.64,10.75,57.16.75,114.34.48,174.73.48Zm-489.21-316.36c-5.73,0-13.36.95-20.66-.19-18.4-2.85-25.07,5.09-30.41,22.74-27.58,91.26-57.06,181.95-85.87,272.83-1.99,6.28-3.9,12.58-5.98,19.29q52.48,6.21,67.06-40.9c1.3-4.19,1.49-9.35,4.13-12.36,3.87-4.4,9.35-10.02,14.4-10.29,21.33-1.14,42.8-1.27,64.1.06,5.41.34,13.01,6.35,15.07,11.55,5.27,13.34,7.5,27.84,12.01,41.53,1.49,4.53,5.99,11.12,9.53,11.4,15.89,1.24,31.92.54,47.39.54-30.45-106.1-60.17-209.64-90.76-316.2Zm706.9,315.65h49.09c-5.04-21.52-9.83-41.97-14.94-63.75,46.29-2.14,93.04-13.06,118.26,40.5,3.12,6.62,8.98,12.12,14.25,17.48,2.83,2.87,7.02,5.97,10.73,6.13,15.42.68,30.89.29,48.98.29-3.2-5.07-4.51-7.74-6.35-9.97-81.85-99.5-163.7-199-245.82-298.27-3.14-3.79-8.76-7.23-13.51-7.65-12.24-1.07-24.64-.36-35.52-.36,25.11,105.92,49.83,210.2,74.82,315.61Zm-161.21-55.05c.86-5.62,1.37-8.62,1.76-11.65,7.99-60.93,18.43-121.7,22.57-182.89,1.38-20.41-10.75-43.52-22.13-62.06-3.98-6.48-24.25-3.24-37.11-3.91-9.4-.49-18.85-.1-28.28-.1h-78.26c5.04,15.64,9.67,27.92,12.87,40.57,2.9,11.46,8.39,16.01,20.87,15.53,27.35-1.05,54.78-.33,86.67-.33-10.05,57.98-17.26,112.76-29.75,166.32-6.64,28.5-5.94,53.7,4.9,80.18,4.18,10.21,8.52,14.53,19.98,14.37,46.51-.66,93.03-.27,139.55-.27,9.11,0,18.21,0,29.67,0-6.26-14.51-12.1-25.61-15.87-37.37-4.76-14.84-13.48-19.42-28.98-18.8-32.41,1.3-64.9.39-98.46.39ZM1161.72,237.76c-43.86,0-85.89.51-127.89-.3-13-.25-20.04,4.06-26.7,15.26-56.18,94.55-113.1,188.67-169.73,282.96-3.1,5.16-5.67,10.65-9.8,18.46,11.94,0,21.34-1.15,30.34.25,16.3,2.53,24.74-4.7,32.14-18.57,18.31-34.37,37.69-68.2,57.89-101.49,3.62-5.97,12.96-11.31,20.04-11.83,25.67-1.88,51.51-1.28,77.25-2.35,5.6-.23,13.82-1.82,16.13-5.64,8.91-14.7,15.92-30.56,25.46-49.63h-99.25c4.25-8.28,7.73-13.56,9.8-19.34,14.99-41.81,41.81-57.74,88.17-53.23,54.26,5.28,54.66,1.23,76.14-54.55Zm489.01,559.26c1.74-21.74,3.23-40.29,4.9-61.15h113.45v-39.79h-111.69c1.3-17.74,2.42-33.09,3.71-50.62h117.68v-39.35h-160.86c-6.79,78.18-13.46,154.86-20.19,232.33h187.35v-41.42h-134.35Zm-169-114.27c3.18-39.75-17.79-70.11-53.99-78.8-39.64-9.52-74.79.09-104.94,27.22-35.46,31.9-52.92,73.11-57.49,119.54-6.17,62.68,24.22,95.31,86.64,95.44,5.03.01,10.08-.08,15.09-.46,48.23-3.68,93.51-41.72,101.03-85.6-23.39-.23-48.61-8.9-61.51,22.27-2.89,6.97-12.58,12.24-20.28,15.9-29.51,14.04-60.41,2.35-68.09-24.9-10.22-36.25,13.48-101.13,44.69-121.53,29.43-19.24,68.31-8.6,70.76,24.43.17,2.24,1.96,4.35,2.98,6.49h45.11Zm125.53-389.35c-13.02,88.45-25.57,173.72-38.37,260.71,15.97,0,28.65,1.28,40.85-.61,5.12-.79,12.4-7.76,13.21-12.8,3.9-24.15,5.83-48.62,8.63-72.96,6.59-57.29,13.28-114.56,20.23-174.41h62.19c1.41-19.84,2.64-37,3.96-55.52-52.62,0-102.85-.21-153.06.41-3.86.05-10,5.29-11.04,9.19-3.83,14.4-5.96,29.25-9.11,45.99h62.51Zm282.87-54.6c2.15,32.89,4.07,64.7,6.33,96.48,4.86,68.3,10.11,136.58,14.66,204.91.7,10.44,4.23,14.39,14.73,14.1,20.11-.56,40.24-.15,60.36-.15,33.83,0,67.65,0,104.44,0-3.88-20.57-7.26-38.55-10.69-56.76-36.06,0-69.39-.6-102.68.3-13.28.36-19.19-3.25-20.38-17.13-3.39-39.42-7.87-78.75-12.01-118.11-4.32-41.08-8.76-82.14-13.19-123.63h-41.59Zm345.17,367.42h-157.46c11.36,75.54,22.44,150,34.1,224.38.53,3.37,6.07,8.21,9.57,8.46,13.6.99,27.31.4,42.83.4-5.61-33.59-10.81-64.75-16.43-98.42h102.05c-1.49-38.37-2.8-39.72-36.39-39.73-20.14,0-40.3.53-60.39-.42-4.86-.23-12.65-4.57-13.66-8.45-3.76-14.33-5.24-29.26-7.94-46.21h113.43c-3.63-14.96-6.65-27.46-9.7-40.02Zm-266.49,232.29c-6.69-79.18-13.17-155.87-19.67-232.73h-45.97c4.77,78.13,9.46,154.95,14.21,232.73h51.43Z"/><path class="cls-3" d="m2435.77,2105.89c0,32.48.32,61.19-.06,89.89-1.14,86.8-2.89,173.59-3.34,260.38-.04,8.71,5.38,18.95,11.28,25.96,44.56,52.94,89.89,105.24,134.93,157.78,4.01,4.68,7.74,9.59,13.57,16.84-167.39,41.74-332.49,82.91-501.27,124.99,13.71-42.06,26.11-80.04,38.45-118.04,10.48-32.25,20.19-64.77,31.69-96.66,4.55-12.63,1.37-18.77-8.94-26.2-103.56-74.69-206.63-150.07-310.19-224.76-10.22-7.37-14.47-14.78-14.4-27.58.54-101.93.3-203.86.3-308.12,103.52-24.96,206.84-49.88,314.43-75.82-15.54-17.79-30.95-31.8-41.88-48.71-23.89-36.98-59.24-51.72-100.29-58.04-56.41-8.68-112.77-17.73-170.91-26.91v-349.64c1.25,0,3.53-.72,4.54.1,83.93,68.67,174.64,63.9,267.44,22.85,17.98-7.95,31.3-9.17,48.78,0,75.8,39.76,153.88,41.71,233.26,10.69,31.55-12.33,63.28-24.2,96.29-36.81,13.97,38.34,34.44,71.69,64.83,98.29,62.31,54.55,137.18,74.17,217.61,77.11,91.23,3.34,176.45-22.02,259.34-57,21.46-9.06,26.49-23.55,17.9-46.07-8.89-23.32-22.34-29.7-45.7-22.32-47.22,14.91-93.72,33.47-141.98,43.43-68.59,14.15-137.84,12.12-203.63-16.54-16.53-7.2-32.78-16.53-46.74-27.85-36.32-29.46-28.44-84.57,15.18-101.59,142.75-55.68,285.83-110.51,429.11-164.81,40.19-15.23,82.57-.3,105.14,36.64,58.03,94.95,115.68,190.14,172.16,286.01,29.25,49.64,17.73,109.83-26.62,148.81-78.92,69.35-157.75,138.82-237.84,206.79-28.46,24.15-40,52.49-39.69,89,.89,104.47.47,208.95.27,313.43-.28,151.64-104.92,289.58-250.9,331.07-2.36.67-4.92.65-8.49,1.09-6.79-31.99-12.93-63.8-20.34-95.31-29.78-126.72-85.88-241.07-164.08-344.72-6.4-8.49-16.17-15.8-25.93-20.16-35.9-16.01-72.46-30.54-113.27-47.5Z"/><path class="cls-3" d="m1736.47,1418.47v353.92c-44.16,5.9-87.61,11.64-131.03,17.56-8.08,1.1-16.02,3.85-24.1,4.21-74.69,3.39-115.21,54.69-155.35,110.99,104.02,25.07,206.92,49.87,310.67,74.87.3,6.01.81,11.58.81,17.15.05,97.55-.2,195.11.33,292.66.07,12.2-4.07,19.06-13.76,26.05-103.05,74.32-205.49,149.49-308.77,223.49-12.91,9.25-14.31,17.08-9.71,30.82,22.12,66.11,43.42,132.49,64.97,198.79.92,2.83,1.42,5.81,3.01,12.47-167.23-41.78-331.99-82.94-498.82-124.61,3.38-4.91,5.68-9.02,8.68-12.52,46.64-54.48,93.58-108.71,139.81-163.55,5.55-6.59,10.48-16.37,10.41-24.63-.99-112.59-2.9-225.17-4.66-337.75-.05-2.93-1.01-5.84-2.05-11.49-42.31,17.85-83.33,34.7-123.83,52.72-6.21,2.76-10.39,10.67-14.86,16.68-92.89,124.78-152.65,263.62-177.04,417.47-.98,6.16-2.67,12.2-4.65,21.07-11.62-3.72-22.84-6.72-33.61-10.86-137.79-52.94-225.86-180.39-226.36-328.18-.36-104.48-.52-208.96.19-313.43.23-33.23-11.1-58.97-36.55-80.75-76.94-65.85-152.85-132.91-229.29-199.34-60.56-52.63-69.52-106.64-28.39-175.22,51.73-86.26,103.58-172.45,155.51-258.59,30.91-51.27,70.2-64.57,126.58-42.89,135.42,52.07,270.73,104.39,406.24,156.22,24.09,9.21,41.49,23.41,45.26,50.22,3.97,28.28-8.63,48.34-31.63,63.46-43.31,28.47-91.45,40.56-142.57,42.95-68.96,3.23-135.1-9.59-199.06-34.85-11.68-4.61-23.34-9.29-35.1-13.68-31.38-11.7-54.66,3.06-54.31,36.8.1,9.11,8.25,22.84,16.3,26.47,113.55,51.14,230.96,78.99,355.37,47.71,89.04-22.38,157.45-71.02,191-162.73,23.59,9.01,46.37,19.43,70.16,26.4,40.2,11.78,80.5,25.52,121.74,30.83,51.11,6.58,99.47-10.57,144.69-34.27,12.53-6.57,22.18-5.96,35,.05,87.62,41.09,174.73,49.64,259.46-8.1,6.03-4.11,11.68-8.78,19.34-14.58Z"/><path class="cls-2" d="m1804.28,4376.34c17.62-58.27,37.39-114.56,51.52-172.24,32.53-132.74,39.74-266.7,14.9-402.11-29.25-159.43-120.55-270.26-262.08-343.33-100.07-51.67-207.46-77.87-318.17-94.53-99.78-15.01-195.77-45.19-289.21-82.99-140.64-56.9-269.28-133.23-378.52-239.61-147.8-143.94-234.51-316.71-246-524.9-4.15-75.2,3.11-149.16,17.38-224.19,6.53,37.34,9.6,73.89,19.54,108.47,55.71,193.82,182.75,314.86,378.12,363.9,317.4,79.67,635.17,157.87,952.23,238.9,125.87,32.17,244.08,83.12,344.3,168.63,121.73,103.86,176.71,236.51,167.49,396.04-11.45,198.07-89.06,367.47-218.77,516.01-71.09,81.41-137.4,167.01-205.46,251.05-10.18,12.58-18.09,27-27.28,40.92Z"/><path class="cls-2" d="m3167.72,2323.45c-27.61,680.69-314.29,1223.88-857.81,1631.28-2.08-.99-4.17-1.97-6.25-2.96,3.45-7.56,6.96-15.09,10.35-22.68,58.68-131.2,96.16-267.35,91.7-412.35-4.81-156.56-60.94-292.6-168.14-407.2-20.15-21.54-42.16-41.51-50.15-71.74-17.54-66.35,20.21-131.25,87.66-148.22,166.29-41.86,332.8-82.85,499.04-124.94,200.7-50.82,328.49-176.16,381.38-376.73,5.56-21.09,8.22-42.95,12.23-64.45Z"/><path class="cls-3" d="m1827.78,1151.43c0-30.84-.07-61.68,0-92.53.26-95.3,79.56-165.07,173.59-150.07,27.99,4.47,55.88,14.63,81.63,26.82,30.03,14.22,56.88,14.57,86.05-1.1,70.03-37.63,140.97-37.6,210.95.14,29.22,15.76,56.63,16.19,85.87.39,69.91-37.78,140.9-38.53,210.97-.94,31.41,16.85,59.82,15.68,91-.92,55.27-29.42,113.32-39.06,171.54-8.83,51.05,26.5,77.49,70.14,79.3,127.91.67,21.38-.33,42.81.3,64.19.3,10.13-2.63,15.74-12.68,19.59-217.65,83.32-435.12,167.12-652.76,250.47-60.4,23.13-120.14,19.79-176.58-11.65-35.43-19.74-67.55-19.77-103.05.23-42.5,23.95-89.29,30.27-136.97,18.13-63.54-16.19-108.35-74.43-109.1-139.85-.39-33.98-.07-67.98-.07-101.97Z"/><path class="cls-3" d="m1737.5,1154.55c0,31.46.03,62.92,0,94.38-.09,87.5-69.06,153.19-156.58,149.63-33.92-1.38-66.02-9.2-95.3-26.28-29.93-17.46-59.25-18.08-89.3-.92-64.71,36.95-130.77,36.84-199.39,10.16-211.19-82.12-422.78-163.24-634.38-244.31-11.64-4.46-17.16-9.45-16.35-22.67,1.81-29.45-1.54-59.67,3.77-88.37,14.61-78.88,88.43-130.1,169.22-117.45,28.01,4.39,55.99,14.28,81.73,26.42,29.85,14.08,56.67,15.7,86-.14,70.54-38.09,142-38.17,212.57-.1,28.57,15.41,55.59,16.19,84.12.73,71.91-38.96,144.16-38.83,215.97.38,29.34,16.02,56.95,13.56,85.83-2.29,46.83-25.7,96.62-35.49,149.07-19.54,60.94,18.53,102.74,75.14,102.99,138.42.13,33.97.02,67.95.02,101.93Z"/><path class="cls-2" d="m1728.79,4066.85c-5.55-89.33-55.25-149.73-123.69-198.34-65.08-46.22-139.47-70.17-215.2-92.37-122.81-35.99-245.3-73.3-366.72-113.67-68.12-22.65-131.38-56.78-186.54-104.2-65.88-56.64-108.97-129.28-145.73-206.35-13.42-28.13-25.52-56.89-40.22-89.84,7.17,3.3,9.89,4.08,12.06,5.62,166.16,117.63,351.38,190.66,549.2,233.68,68.64,14.93,138.29,25.49,206.47,42.17,64.4,15.75,124.21,43.78,178.54,82.66,69.38,49.64,111.22,115.61,125.21,200.42,11.64,70.57,14.18,141.21,10.4,212.33-.5,9.34-2.47,18.6-3.76,27.89Z"/><path class="cls-3" d="m1148.88,562.43c-75.97.14-102.62-29.38-89.87-87.26,19.92-90.51,66.25-166.23,140.34-223.38,20.85-16.08,44.98-24.84,71.84-24.09,30.52.85,48.35,16.35,54.64,46.84,8.59,41.69-1.93,81.02-14.77,119.99-16.37,49.72-41.1,94.36-80.98,129.35-28.44,24.95-61.56,38.27-81.19,38.55Zm128.19-224.02c.84-37.78-10.4-55.3-31.14-54.31-11.39.55-24.43,4.03-33.44,10.66-57.26,42.16-87.01,101.38-97.48,170.07-4.31,28.26,16.71,46.86,44.63,40.31,18.07-4.24,37.35-13.55,50.57-26.31,41.96-40.5,59.24-93.44,66.86-140.43Z"/><path class="cls-3" d="m1473.82,402.73c21.34,18.64,19.82,40.29,15.34,62.51-2.61,12.93-6.56,25.72-7.73,38.78-1.35,15.11-.31,30.43-.31,47.9h-59.14c3.72-20.96,7.42-41.6,11.03-62.26,2.15-12.33,4.68-24.63,6.08-37.05,1.6-14.09-6.29-21.52-19.64-22.05-18.16-.72-36.37-.18-55.54-.18-10.43,34.35-21.99,67.58-30.27,101.62-4.53,18.62-13.29,24.72-31.14,22.32-7.97-1.07-16.21-.18-26.49-.18,1.02-6.23,1.17-11.03,2.62-15.39,31.88-95.86,64.06-191.63,95.66-287.58,3.3-10.02,7.61-14,18.42-13.66,25.14.79,50.33.24,75.49.25,45.26.01,64.07,21.57,59.55,67.79-3.82,39.08-15.48,73.91-53.94,97.18Zm-93.97-25.24c16.06,0,29.15-.86,42.09.16,42.32,3.35,55.48-24.41,57.52-62.29.37-6.88-8.27-19.37-14.36-20.49-17.65-3.24-36.13-2.21-54.28-2.29-2.26,0-5.85,3.01-6.59,5.33-8.1,25.52-15.75,51.18-24.37,79.57Z"/><path class="cls-3" d="m2293.11,554.11c-60.4,0-117.57.26-174.73-.48-4.75-.06-12.73-6.27-13.64-10.75-20.4-100.84-40.02-201.85-60.04-304.08h143.96c5.39,17.08,10.92,34.65,17.27,54.77h-107.32c4.71,21.24,8.2,40.24,13.61,58.67,1.07,3.63,9.42,7.11,14.5,7.26,25.76.74,51.56.67,77.33.19,9.51-.18,15.11,2.1,17.46,12.33,3.2,13.94,7.99,27.52,12.64,43.03h-107.65c6.29,27.09,11.6,52.2,18.53,76.86.86,3.06,10.36,5.13,15.89,5.22,32.69.48,65.41.94,98.07-.09,13.32-.42,19.2,4.23,21.98,16.74,2.82,12.68,7.43,24.96,12.15,40.33Z"/><path class="cls-3" d="m1803.9,237.76c30.59,106.56,60.3,210.1,90.76,316.2-15.47,0-31.51.7-47.39-.54-3.54-.28-8.03-6.87-9.53-11.4-4.51-13.69-6.74-28.2-12.01-41.53-2.05-5.2-9.66-11.21-15.07-11.55-21.3-1.32-42.77-1.2-64.1-.06-5.05.27-10.53,5.89-14.4,10.29-2.64,3.01-2.84,8.16-4.13,12.36q-14.58,47.11-67.06,40.9c2.08-6.71,3.99-13.01,5.98-19.29,28.81-90.89,58.29-181.57,85.87-272.83,5.33-17.65,12.01-25.58,30.41-22.74,7.31,1.13,14.93.19,20.66.19Zm-52.7,195.25h57.57c-8.69-38.68-17.06-75.94-25.43-113.21-1.07.17-2.14.35-3.21.52-9.45,36.81-18.9,73.61-28.93,112.69Z"/><path class="cls-3" d="m2510.8,553.4c-24.99-105.41-49.71-209.69-74.82-315.61,10.87,0,23.27-.71,35.52.36,4.74.42,10.37,3.86,13.51,7.65,82.12,99.28,163.97,198.78,245.82,298.27,1.84,2.23,3.15,4.9,6.35,9.97-18.09,0-33.56.39-48.98-.29-3.7-.16-7.9-3.26-10.73-6.13-5.27-5.35-11.14-10.86-14.25-17.48-25.22-53.56-71.98-42.64-118.26-40.5,5.1,21.78,9.89,42.23,14.94,63.75h-49.09Zm-11.2-233.86c-.71.36-1.41.72-2.12,1.08,10.09,35.33,20.06,70.69,30.48,105.91.86,2.92,4.69,6.95,7.29,7.06,15.76.66,31.55.33,51.04.33-30.86-40.72-58.77-77.55-86.68-114.38Z"/><path class="cls-3" d="m2349.59,498.35c33.56,0,66.06.91,98.46-.39,15.5-.62,24.23,3.96,28.98,18.8,3.77,11.76,9.6,22.86,15.87,37.37-11.46,0-20.56,0-29.67,0-46.52,0-93.04-.39-139.55.27-11.46.16-15.8-4.16-19.98-14.37-10.84-26.49-11.55-51.69-4.9-80.18,12.49-53.56,19.7-108.34,29.75-166.32-31.89,0-59.32-.73-86.67.33-12.49.48-17.97-4.07-20.87-15.53-3.2-12.65-7.83-24.94-12.87-40.57h78.26c9.43,0,18.88-.39,28.28.1,12.86.66,33.13-2.58,37.11,3.91,11.38,18.54,23.51,41.64,22.13,62.06-4.14,61.19-14.58,121.96-22.57,182.89-.4,3.02-.91,6.03-1.76,11.65Z"/><path class="cls-3" d="m1161.72,237.76c-21.49,55.78-21.88,59.82-76.14,54.55-46.36-4.51-73.18,11.42-88.17,53.23-2.07,5.78-5.55,11.05-9.8,19.34h99.25c-9.54,19.07-16.55,34.93-25.46,49.63-2.31,3.81-10.53,5.41-16.13,5.64-25.75,1.07-51.59.47-77.25,2.35-7.08.52-16.42,5.86-20.04,11.83-20.19,33.29-39.57,67.13-57.89,101.49-7.39,13.88-15.83,21.11-32.14,18.57-9-1.4-18.4-.25-30.34-.25,4.13-7.81,6.7-13.29,9.8-18.46,56.63-94.29,113.55-188.41,169.73-282.96,6.66-11.2,13.7-15.51,26.7-15.26,42.01.82,84.04.3,127.89.3Z"/><path class="cls-3" d="m1650.73,797.02h134.35v41.42h-187.35c6.73-77.47,13.39-154.15,20.19-232.33h160.86v39.35h-117.68c-1.28,17.53-2.41,32.88-3.71,50.62h111.69v39.79h-113.45c-1.67,20.86-3.16,39.42-4.9,61.15Z"/><path class="cls-3" d="m1481.74,682.75h-45.11c-1.02-2.14-2.82-4.26-2.98-6.49-2.45-33.03-41.33-43.67-70.76-24.43-31.21,20.41-54.91,85.29-44.69,121.53,7.68,27.24,38.58,38.93,68.09,24.9,7.7-3.66,17.39-8.93,20.28-15.9,12.9-31.17,38.13-22.5,61.51-22.27-7.52,43.89-52.8,81.92-101.03,85.6-5.01.38-10.06.47-15.09.46-62.41-.13-92.81-32.76-86.64-95.44,4.57-46.43,22.04-87.64,57.49-119.54,30.16-27.13,65.31-36.74,104.94-27.22,36.2,8.69,57.17,39.05,53.99,78.8Z"/><path class="cls-3" d="m1607.26,293.4h-62.51c3.16-16.74,5.29-31.59,9.11-45.99,1.04-3.9,7.18-9.15,11.04-9.19,50.22-.62,100.45-.41,153.06-.41-1.32,18.53-2.54,35.68-3.96,55.52h-62.19c-6.95,59.85-13.64,117.12-20.23,174.41-2.8,24.34-4.73,48.81-8.63,72.96-.82,5.05-8.09,12.01-13.21,12.8-12.19,1.88-24.88.61-40.85.61,12.8-86.99,25.35-172.26,38.37-260.71Z"/><path class="cls-3" d="m1890.13,238.8h41.59c4.43,41.49,8.86,82.56,13.19,123.63,4.14,39.36,8.62,78.69,12.01,118.11,1.19,13.88,7.1,17.49,20.38,17.13,33.29-.9,66.62-.3,102.68-.3,3.43,18.22,6.82,36.19,10.69,56.76-36.79,0-70.62,0-104.44,0-20.12,0-40.26-.41-60.36.15-10.51.29-14.04-3.66-14.73-14.1-4.56-68.32-9.8-136.6-14.66-204.91-2.26-31.78-4.18-63.59-6.33-96.48Z"/><path class="cls-3" d="m2235.31,606.22c3.04,12.56,6.07,25.06,9.7,40.02h-113.43c2.7,16.95,4.18,31.87,7.94,46.21,1.02,3.87,8.8,8.22,13.66,8.45,20.09.95,40.25.42,60.39.42,33.59,0,34.9,1.35,36.39,39.73h-102.05c5.62,33.66,10.82,64.83,16.43,98.42-15.51,0-29.23.59-42.83-.4-3.49-.25-9.04-5.09-9.57-8.46-11.66-74.37-22.74-148.84-34.1-224.38h157.46Z"/><path class="cls-3" d="m1968.82,838.51h-51.43c-4.75-77.78-9.44-154.6-14.21-232.73h45.97c6.5,76.86,12.98,153.56,19.67,232.73Z"/><path class="cls-1" d="m1277.06,338.41c-7.62,46.99-24.9,99.93-66.86,140.43-13.22,12.76-32.5,22.07-50.57,26.31-27.92,6.55-48.94-12.05-44.63-40.31,10.47-68.68,40.22-127.91,97.48-170.07,9.01-6.63,22.05-10.12,33.44-10.66,20.74-.99,31.98,16.53,31.14,54.31Z"/><path class="cls-1" d="m1379.84,377.5c8.62-28.4,16.27-54.06,24.37-79.57.74-2.32,4.33-5.34,6.59-5.33,18.16.08,36.63-.95,54.28,2.29,6.09,1.12,14.73,13.62,14.36,20.49-2.04,37.88-15.2,65.63-57.52,62.29-12.94-1.02-26.03-.16-42.09-.16Z"/><path class="cls-1" d="m1751.2,433c10.03-39.08,19.48-75.89,28.93-112.69,1.07-.17,2.14-.35,3.21-.52,8.37,37.26,16.74,74.53,25.43,113.21h-57.57Z"/><path class="cls-1" d="m2499.6,319.54c27.91,36.83,55.82,73.66,86.68,114.38-19.48,0-35.28.33-51.04-.33-2.59-.11-6.42-4.14-7.29-7.06-10.42-35.23-20.39-70.59-30.48-105.91.71-.36,1.41-.72,2.12-1.08Z"/><polygon class="cls-3" points="1502.93 790.71 1552.59 790.71 1548.73 840.86 1500.04 840.86 1502.93 790.71"/><rect class="cls-3" x="1824.04" y="790.71" width="48.54" height="50.46"/><polygon class="cls-3" points="2010.38 790.71 2059.32 790.71 2067.28 839.41 2014 839.41 2010.38 790.71"/><polygon class="cls-3" points="2272.91 790.95 2322.81 790.95 2335.35 839.89 2282.55 839.89 2272.91 790.95"/></g></g></svg>