<?xml version="1.0" encoding="utf-8"?>
<!-- Generator: Adobe Illustrator 12.0.0, SVG Export Plug-In  -->
<!DOCTYPE svg PUBLIC "-//W3C//DTD SVG 1.1//EN" "http://www.w3.org/Graphics/SVG/1.1/DTD/svg11.dtd" [
	<!ENTITY ns_flows "http://ns.adobe.com/Flows/1.0/">
	<!ENTITY ns_svg "http://www.w3.org/2000/svg">
	<!ENTITY ns_xlink "http://www.w3.org/1999/xlink">
]>
<svg  version="1.1" xmlns="&ns_svg;" xmlns:xlink="&ns_xlink;" xmlns:a="http://ns.adobe.com/AdobeSVGViewerExtensions/3.0/"
	 width="251" height="245" viewBox="-0.6376953 -0.03125 251 245" enable-background="new -0.6376953 -0.03125 251 245"
	 xml:space="preserve">
<defs>
</defs>
<ellipse fill="#29176F" cx="125" cy="122.0229492" rx="125" ry="122.0249023"/>
<path fill="#FFFFFF" d="M10.9130859,122.0229492c0,61.2670898,51.1791992,111.112793,114.0869141,111.112793
	c62.9082031,0,114.0869141-49.8457031,114.0869141-111.112793c0-29.6279297-11.8339844-57.4980469-33.3212891-78.4741211
	C184.2060547,22.503418,155.5234375,10.9121094,125,10.9121094C62.0922852,10.9121094,10.9130859,60.7573242,10.9130859,122.0229492
	z"/>
<path fill="#29176F" d="M43.3847656,169.328125l3.5932617,5.0458984c0.7089844,0.9931641,1.1459961,1.8935547,1.3125,2.6982422
	c0.1660156,0.8037109,0.1386719,1.5849609-0.0810547,2.3447266c-0.2202148,0.7597656-0.6005859,1.4677734-1.1420898,2.1240234
	c-0.5415039,0.6572266-1.1875,1.2529297-1.9365234,1.7871094c-1.1748047,0.8369141-2.1811523,1.3515625-3.0185547,1.5458984
	c-0.8378906,0.1933594-1.6445313,0.2089844-2.4199219,0.0449219c-0.7758789-0.1630859-1.4296875-0.4648438-1.9628906-0.9072266
	c-0.7304688-0.6015625-1.3110352-1.2060547-1.7416992-1.8105469l-3.59375-5.0449219L43.3847656,169.328125z M43.3144531,174.4970703
	l-6.0053711,4.2763672l0.5932617,0.8330078c0.5053711,0.7099609,0.9438477,1.1582031,1.3144531,1.3466797
	c0.3710938,0.1865234,0.8134766,0.2265625,1.3266602,0.1171875c0.5136719-0.1103516,1.2104492-0.4785156,2.0898438-1.1044922
	c1.1645508-0.8300781,1.8266602-1.5878906,1.9858398-2.2734375c0.1586914-0.6865234-0.074707-1.4697266-0.7011719-2.3496094
	L43.3144531,174.4970703z"/>
<path fill="#29176F" d="M52.0395508,181.046875l7.78125,8.0214844l-2.0683594,2.0068359l-4.8710938-5.0214844l-1.5395508,1.4931641
	l4.5185547,4.6572266l-1.9755859,1.9179688l-4.5185547-4.6591797l-1.909668,1.8525391l5.0117188,5.1679688l-2.1933594,2.1269531
	l-7.921875-8.1669922L52.0395508,181.046875z"/>
<path fill="#29176F" d="M61.6098633,190.6416016l5.4858398,4.234375c1.1943359,0.921875,1.8701172,1.8974609,2.0263672,2.9238281
	c0.15625,1.0283203-0.1699219,2.0664063-0.9799805,3.1152344c-0.8325195,1.0791016-1.8081055,1.671875-2.925293,1.7773438
	c-1.1166992,0.1074219-2.340332-0.3535156-3.6713867-1.3808594l-1.8066406-1.3945313l-3.0600586,3.9628906l-3.3139648-2.5595703
	L61.6098633,190.6416016z M61.409668,197.7529297l0.8085938,0.6240234c0.6362305,0.4912109,1.1679688,0.7255859,1.5957031,0.703125
	c0.4282227-0.0224609,0.7758789-0.2050781,1.0415039-0.5498047c0.2587891-0.3349609,0.3666992-0.7050781,0.3232422-1.1113281
	s-0.3735352-0.8466797-0.9907227-1.3222656l-0.9394531-0.7265625L61.409668,197.7529297z"/>
<path fill="#29176F" d="M68.7631836,204.5273438c1.0639648-1.9306641,2.4306641-3.1347656,4.0976563-3.6171875
	c1.668457-0.4814453,3.4614258-0.1933594,5.3798828,0.8652344c1.9667969,1.0849609,3.1904297,2.4492188,3.6723633,4.0917969
	c0.4814453,1.6435547,0.1972656,3.4169922-0.8530273,5.3183594c-0.7612305,1.3808594-1.6186523,2.3857422-2.5717773,3.0126953
	c-0.9526367,0.6279297-2.0039063,0.9443359-3.1538086,0.9521484c-1.1499023,0.0058594-2.3803711-0.3505859-3.690918-1.0742188
	c-1.3334961-0.7353516-2.3193359-1.5566406-2.9580078-2.4628906c-0.6396484-0.9072266-0.9765625-1.96875-1.0126953-3.1875
	C67.637207,207.2080078,68.0004883,205.9072266,68.7631836,204.5273438z M72.4057617,206.5576172
	c-0.6591797,1.1933594-0.909668,2.171875-0.7539063,2.9384766c0.1547852,0.7646484,0.6147461,1.359375,1.3779297,1.7792969
	c0.784668,0.4335938,1.5322266,0.5136719,2.2446289,0.2412109c0.7109375-0.2734375,1.4316406-1.0722656,2.1611328-2.3935547
	c0.6137695-1.1123047,0.8378906-2.0488281,0.6723633-2.8095703c-0.1655273-0.7617188-0.6323242-1.3535156-1.4003906-1.7773438
	c-0.7368164-0.40625-1.4716797-0.4726563-2.2055664-0.1972656
	C73.7685547,204.6142578,73.0693359,205.3544922,72.4057617,206.5576172z"/>
<path fill="#29176F" d="M81.8496094,218.9433594l4.5771484-12.6943359l6.5366211,2.3583984
	c1.2124023,0.4365234,2.1015625,0.8740234,2.6674805,1.3134766c0.5654297,0.4384766,0.9428711,1.0097656,1.1328125,1.7158203
	c0.1899414,0.703125,0.1386719,1.4589844-0.1523438,2.2675781c-0.2539063,0.7041016-0.6230469,1.2578125-1.1074219,1.6601563
	s-1.046875,0.6679688-1.6865234,0.7958984c-0.4077148,0.0810547-0.9267578,0.0839844-1.5576172,0.0068359
	c0.4116211,0.3242188,0.6953125,0.6015625,0.8535156,0.8359375c0.1064453,0.1552734,0.2353516,0.453125,0.387207,0.8935547
	c0.1513672,0.4384766,0.2397461,0.7666016,0.265625,0.9853516l0.5698242,4.3632813l-4.4331055-1.5976563l-0.6972656-4.6347656
	c-0.0849609-0.5976563-0.2041016-1.0097656-0.3569336-1.234375c-0.2124023-0.2988281-0.4975586-0.5126953-0.8554688-0.6416016
	l-0.3466797-0.125l-1.8574219,5.1523438L81.8496094,218.9433594z M88.5112305,212.8134766l1.6542969,0.5966797
	c0.1791992,0.0644531,0.5458984,0.1308594,1.1015625,0.2011719c0.2788086,0.0419922,0.5380859-0.0146484,0.7792969-0.1699219
	c0.2416992-0.1523438,0.4130859-0.3681641,0.5126953-0.6455078c0.1479492-0.4101563,0.1313477-0.7724609-0.0493164-1.0839844
	c-0.1806641-0.3144531-0.6289063-0.5986328-1.3447266-0.8574219l-1.7231445-0.6210938L88.5112305,212.8134766z"/>
<path fill="#29176F" d="M99.1201172,210.7392578l12.4130859,2.5380859l-0.6669922,3.2626953l-4.1650391-0.8515625
	l-2.034668,9.9511719l-4.0834961-0.8330078l2.034668-9.953125l-4.1645508-0.8515625L99.1201172,210.7392578z"/>
<path fill="#29176F" d="M113.4477539,213.3408203l4.1572266,0.3994141l-1.2895508,13.4257813l-4.1582031-0.3984375
	L113.4477539,213.3408203z"/>
<path fill="#29176F" d="M119.1347656,214.0927734l4.3623047-0.0703125l3.1894531,9.6640625l2.8388672-9.7578125l4.2333984-0.0664063
	l-4.7929688,13.5712891l-4.5200195,0.0722656L119.1347656,214.0927734z"/>
<path fill="#29176F" d="M135.0234375,220.5048828c-0.3554688-2.1738281-0.0263672-3.9658203,0.9873047-5.3740234
	c1.0136719-1.4091797,2.6005859-2.2890625,4.7617188-2.6425781c2.2167969-0.3613281,4.0214844-0.0458984,5.4140625,0.9472656
	c1.3935547,0.9941406,2.265625,2.5634766,2.6152344,4.7070313c0.2548828,1.5556641,0.2001953,2.875-0.1601563,3.9570313
	c-0.3613281,1.0810547-0.9912109,1.9804688-1.890625,2.6953125c-0.8994141,0.7158203-2.0878906,1.1943359-3.5654297,1.4355469
	c-1.5019531,0.2451172-2.7841797,0.2089844-3.8466797-0.1083984c-1.0605469-0.3183594-1.9824219-0.9443359-2.7636719-1.8798828
	S135.2773438,222.0605469,135.0234375,220.5048828z M139.1416016,219.8505859
	c0.2177734,1.3447266,0.6259766,2.2695313,1.2216797,2.7763672c0.5966797,0.5048828,1.3232422,0.6875,2.1835938,0.546875
	c0.8837891-0.1445313,1.5205078-0.5439453,1.9121094-1.1982422c0.3896484-0.6542969,0.4628906-1.7265625,0.2197266-3.2158203
	c-0.2050781-1.2529297-0.6074219-2.1279297-1.2080078-2.6230469c-0.5986328-0.4960938-1.3320313-0.6738281-2.1972656-0.5322266
	c-0.8300781,0.1357422-1.4482422,0.5380859-1.8554688,1.2080078
	C139.0117188,217.4814453,138.9189453,218.4951172,139.1416016,219.8505859z"/>
<path fill="#29176F" d="M155.6298828,209.2451172l6.4472656-2.5429688c1.4033203-0.5537109,2.5869141-0.6337891,3.5478516-0.2421875
	c0.9628906,0.3925781,1.6875,1.2041016,2.1738281,2.4375c0.4990234,1.2666016,0.5097656,2.4072266,0.0283203,3.4208984
	c-0.4804688,1.0136719-1.5019531,1.8291016-3.0654297,2.4462891l-2.1240234,0.8369141l1.8369141,4.6572266l-3.8955078,1.5361328
	L155.6298828,209.2451172z M161.6347656,213.0595703l0.9501953-0.375c0.7480469-0.2949219,1.2216797-0.6318359,1.421875-1.0107422
	s0.2207031-0.7714844,0.0605469-1.1767578c-0.1552734-0.3935547-0.4179688-0.6757813-0.7880859-0.8457031
	c-0.3720703-0.1708984-0.9189453-0.1123047-1.6435547,0.1728516l-1.1044922,0.4355469L161.6347656,213.0595703z"/>
<path fill="#29176F" d="M179.4726563,210.6503906l-4.1552734,2.2998047l0.5068359,2.2646484l-3.7285156,2.0644531
	l-2.0966797-14.2617188l3.9775391-2.203125l10.9726563,9.3515625l-3.8173828,2.1113281L179.4726563,210.6503906z
	 M177.2949219,208.5205078l-3.6533203-3.5224609l1.0527344,4.9619141L177.2949219,208.5205078z"/>
<path fill="#29176F" d="M184.3447266,205.1318359l2.9990234-2.6074219c0.4609375,0.4589844,0.8974609,0.7431641,1.3125,0.8505859
	c0.6728516,0.1728516,1.3271484,0.0166016,1.9609375-0.4677734c0.4726563-0.3623047,0.7519531-0.7509766,0.8378906-1.1689453
	c0.0859375-0.4169922,0.0175781-0.7724609-0.2070313-1.0654297c-0.2119141-0.2773438-0.5234375-0.4335938-0.9355469-0.4658203
	c-0.4111328-0.0332031-1.1347656,0.1923828-2.171875,0.6757813c-1.7021484,0.7851563-3.0683594,1.1435547-4.1025391,1.0771484
	c-1.0380859-0.0644531-1.8769531-0.515625-2.5185547-1.3535156c-0.421875-0.5517578-0.6611328-1.1943359-0.7158203-1.9287109
	c-0.0546875-0.7324219,0.1308594-1.4853516,0.5566406-2.2558594c0.4267578-0.7714844,1.1982422-1.5830078,2.3134766-2.4375
	c1.3701172-1.0478516,2.609375-1.5917969,3.71875-1.6328125c1.1083984-0.0400391,2.15625,0.4423828,3.1425781,1.4501953
	l-2.9814453,2.5703125c-0.4521484-0.4189453-0.8945313-0.6357422-1.3291016-0.6523438
	c-0.4335938-0.0166016-0.8837891,0.1542969-1.3515625,0.5126953c-0.3857422,0.2939453-0.6132813,0.5986328-0.6835938,0.9101563
	c-0.0693359,0.3125-0.0146484,0.5859375,0.1640625,0.8193359c0.1308594,0.1708984,0.328125,0.2626953,0.59375,0.2763672
	c0.2636719,0.0224609,0.7353516-0.1298828,1.4140625-0.4550781c1.6855469-0.7958984,2.9648438-1.2734375,3.8339844-1.4335938
	c0.8720703-0.1591797,1.6298828-0.1113281,2.2773438,0.1425781c0.6464844,0.2558594,1.1933594,0.6748047,1.640625,1.2587891
	c0.5263672,0.6875,0.8212891,1.4667969,0.8847656,2.3378906c0.0625,0.8710938-0.1318359,1.7177734-0.5849609,2.5390625
	c-0.453125,0.8222656-1.1992188,1.6298828-2.2363281,2.4238281c-1.8232422,1.3955078-3.3544922,2.0097656-4.59375,1.8447266
	C186.3447266,206.7324219,185.265625,206.1435547,184.3447266,205.1318359z"/>
<path fill="#29176F" d="M189.4287109,189.8066406l8.8632813-9.0576172l2.3818359,2.3310547l-2.9746094,3.0380859
	l7.2617188,7.1074219l-2.9169922,2.9794922l-7.2607422-7.1064453l-2.9746094,3.0380859L189.4287109,189.8066406z"/>
<path fill="#29176F" d="M204.2792969,184.1806641c-1.7861328-1.2871094-2.8193359-2.7880859-3.0966797-4.5019531
	c-0.2783203-1.7128906,0.2236328-3.4589844,1.5039063-5.2353516c1.3144531-1.8212891,2.8144531-2.8730469,4.5029297-3.1542969
	c1.6884766-0.2792969,3.4140625,0.2148438,5.1767578,1.4863281c1.2802734,0.921875,2.1728516,1.8925781,2.6816406,2.9130859
	c0.5087891,1.0214844,0.6962891,2.1025391,0.5654297,3.2451172c-0.1318359,1.1425781-0.6347656,2.3203125-1.5097656,3.5351563
	c-0.8896484,1.234375-1.8242188,2.1152344-2.7988281,2.6396484c-0.9775391,0.5253906-2.0712891,0.7324219-3.2851563,0.6220703
	C206.8046875,185.6191406,205.5595703,185.1025391,204.2792969,184.1806641z M206.7324219,180.8095703
	c1.1054688,0.796875,2.046875,1.1630859,2.8261719,1.1015625c0.7792969-0.0634766,1.4228516-0.4472656,1.9326172-1.1552734
	c0.5234375-0.7265625,0.6933594-1.4589844,0.5078125-2.1982422c-0.1865234-0.7392578-0.8916016-1.5498047-2.1162109-2.4326172
	c-1.0292969-0.7431641-1.9326172-1.078125-2.7070313-1.0058594c-0.7753906,0.0732422-1.4199219,0.4658203-1.9335938,1.1787109
	c-0.4912109,0.6816406-0.6445313,1.4023438-0.4589844,2.1640625
	C204.9677734,179.2236328,205.6181641,180.0058594,206.7324219,180.8095703z"/>
<path fill="#29176F" d="M69.918457,47.6083984l-3.8256836,2.8125l0.7929688,2.1806641l-3.4326172,2.5239258l-3.90625-13.871582
	l3.6625977-2.6933594l12.0761719,7.8657227l-3.5146484,2.5830078L69.918457,47.6083984z M67.4863281,45.7753906
	l-4.0737305-3.0234375l1.6791992,4.784668L67.4863281,45.7753906z"/>
<path fill="#29176F" d="M73.7958984,42.2197266l3.4013672-2.0546875c0.3740234,0.5317383,0.7568359,0.8852539,1.1459961,1.0625
	c0.6337891,0.2861328,1.3046875,0.2441406,2.0117188-0.125c0.5268555-0.2749023,0.8691406-0.6113281,1.0258789-1.0073242
	c0.15625-0.3964844,0.1494141-0.7578125-0.0205078-1.0844727c-0.1621094-0.3095703-0.4428711-0.5161133-0.8427734-0.6186523
	c-0.3994141-0.1040039-1.1508789-0.0048828-2.2543945,0.293457c-1.8110352,0.4814453-3.2197266,0.6005859-4.2255859,0.3564453
	c-1.0107422-0.2402344-1.7607422-0.828125-2.2490234-1.7641602c-0.3208008-0.6142578-0.4453125-1.2885742-0.3740234-2.0209961
	c0.0708008-0.7324219,0.3828125-1.4418945,0.9345703-2.1274414c0.5527344-0.6860352,1.4511719-1.3535156,2.6967773-2.003418
	c1.527832-0.7973633,2.8422852-1.1210938,3.940918-0.9716797c1.0986328,0.1499023,2.0478516,0.8056641,2.847168,1.9663086
	l-3.3769531,2.0214844c-0.3740234-0.4902344-0.7734375-0.7802734-1.1967773-0.8701172
	c-0.4243164-0.090332-0.8974609,0.0009766-1.4194336,0.2729492c-0.4296875,0.2241211-0.7060547,0.484375-0.8286133,0.7797852
	c-0.1225586,0.2958984-0.1157227,0.574707,0.0209961,0.8349609c0.0986328,0.190918,0.277832,0.3149414,0.5366211,0.3745117
	c0.2568359,0.0668945,0.7470703-0.0024414,1.4707031-0.2075195c1.796875-0.4941406,3.1376953-0.7460938,4.0224609-0.7539063
	c0.8847656-0.0087891,1.6240234,0.1679688,2.2177734,0.5297852c0.5932617,0.3618164,1.0605469,0.8691406,1.4008789,1.5214844
	c0.4003906,0.7670898,0.5571289,1.5849609,0.4707031,2.4536133c-0.0874023,0.8681641-0.4233398,1.668457-1.0102539,2.4008789
	c-0.5874023,0.7314453-1.4604492,1.3999023-2.6186523,2.003418c-2.034668,1.0620117-3.6479492,1.4047852-4.8393555,1.03125
	C75.4916992,44.1381836,74.5292969,43.3735352,73.7958984,42.2197266z"/>
<path fill="#29176F" d="M86.0214844,33.4384766c-0.6977539-2.0888672-0.659668-3.9091797,0.1142578-5.4624023
	c0.7753906-1.5517578,2.2011719-2.6757813,4.2783203-3.3696289c2.1289063-0.7119141,3.9604492-0.6884766,5.4946289,0.0698242
	c1.5341797,0.7578125,2.6455078,2.1674805,3.3334961,4.2260742c0.5,1.4960938,0.6582031,2.8056641,0.4746094,3.9316406
	c-0.1835938,1.1245117-0.6621094,2.112793-1.4350586,2.9624023c-0.7729492,0.8505859-1.8696289,1.5131836-3.2890625,1.9873047
	c-1.4428711,0.4824219-2.7133789,0.6518555-3.8129883,0.5087891c-1.0986328-0.1450195-2.1083984-0.6157227-3.0288086-1.4135742
	C87.2314453,36.0800781,86.5214844,34.9331055,86.0214844,33.4384766z M89.9804688,32.1342773
	c0.4316406,1.2915039,0.9819336,2.1391602,1.6503906,2.543457c0.668457,0.4038086,1.4160156,0.4677734,2.2426758,0.1914063
	c0.8491211-0.2836914,1.4135742-0.7797852,1.6948242-1.487793c0.2802734-0.7080078,0.1816406-1.777832-0.296875-3.2099609
	c-0.4023438-1.2041016-0.9394531-2.0024414-1.6108398-2.3959961c-0.6713867-0.3930664-1.4233398-0.4511719-2.2548828-0.1728516
	c-0.7973633,0.2661133-1.3432617,0.7626953-1.6376953,1.4887695C89.4746094,29.8168945,89.5454102,30.8310547,89.9804688,32.1342773
	z"/>
<path fill="#29176F" d="M111.6269531,28.0546875l3.7827148,0.5039063c-0.0776367,1.0512695-0.3222656,1.9580078-0.7324219,2.7202148
	c-0.4106445,0.762207-0.9741211,1.3798828-1.6904297,1.8496094c-0.715332,0.4707031-1.6704102,0.8032227-2.8632813,0.9970703
	c-1.4472656,0.2348633-2.6630859,0.2167969-3.6489258-0.0556641c-0.9858398-0.2709961-1.8974609-0.8833008-2.7358398-1.8349609
	c-0.8388672-0.9511719-1.3916016-2.2529297-1.6601563-3.9057617c-0.3574219-2.2041016-0.0473633-3.9936523,0.9321289-5.3676758
	c0.9794922-1.3745117,2.5405273-2.2358398,4.684082-2.5834961c1.6772461-0.2724609,3.0507813-0.1474609,4.1210938,0.375
	c1.0698242,0.5219727,1.9516602,1.4472656,2.6464844,2.7763672l-3.5014648,1.3989258
	c-0.1938477-0.3857422-0.375-0.6606445-0.5444336-0.8256836c-0.2807617-0.2768555-0.6025391-0.4736328-0.9633789-0.5888672
	c-0.3603516-0.1152344-0.7460938-0.140625-1.1582031-0.0737305c-0.9326172,0.1523438-1.5859375,0.6435547-1.9604492,1.4746094
	c-0.284668,0.6181641-0.3300781,1.5239258-0.1362305,2.7167969c0.2392578,1.4775391,0.6279297,2.4536133,1.1650391,2.9287109
	c0.5371094,0.4760742,1.2114258,0.6469727,2.0234375,0.5151367c0.7861328-0.1274414,1.3457031-0.4453125,1.6767578-0.9521484
	C111.394043,29.6157227,111.5820313,28.925293,111.6269531,28.0546875z"/>
<path fill="#29176F" d="M117.7143555,19.4614258l4.175293-0.1948242l0.6274414,13.4819336l-4.1757813,0.1938477
	L117.7143555,19.4614258z"/>
<path fill="#29176F" d="M133.9550781,30.8867188l-4.7382813-0.3149414l-0.7998047,2.1787109l-4.25-0.2827148l5.953125-13.1240234
	l4.5351563,0.3017578l4.1650391,13.7958984l-4.3515625-0.2890625L133.9550781,30.8867188z M133.2753906,27.9179688
	l-1.1650391-4.9370117l-1.8007813,4.7402344L133.2753906,27.9179688z"/>
<path fill="#29176F" d="M149.765625,30.2270508l3.3330078,1.862793c-0.4589844,0.9482422-1.0205078,1.7021484-1.6835938,2.2602539
	c-0.6640625,0.5576172-1.4140625,0.9243164-2.2539063,1.0976563s-1.8496094,0.1308594-3.0302734-0.1289063
	c-1.4326172-0.3149414-2.5576172-0.7797852-3.375-1.3959961c-0.8164063-0.6162109-1.4394531-1.5209961-1.8681641-2.7143555
	c-0.4287109-1.1948242-0.4628906-2.6103516-0.1035156-4.246582c0.4794922-2.1816406,1.4277344-3.7319336,2.8457031-4.6484375
	c1.4169922-0.9174805,3.1865234-1.1420898,5.3085938-0.6762695c1.6611328,0.3652344,2.8916016,0.9873047,3.6953125,1.8676758
	c0.8017578,0.8798828,1.2822266,2.0664063,1.4375,3.5585938l-3.7724609,0.0097656
	c-0.0380859-0.4291992-0.1044922-0.7514648-0.2011719-0.96875c-0.1601563-0.3613281-0.3867188-0.6625977-0.6787109-0.902832
	c-0.2929688-0.2402344-0.6435547-0.4052734-1.0507813-0.4941406c-0.9238281-0.2036133-1.7119141,0.0131836-2.3671875,0.6479492
	c-0.4931641,0.4697266-0.8691406,1.2954102-1.1289063,2.4765625c-0.3212891,1.4628906-0.3193359,2.5136719,0.0048828,3.1542969
	c0.3232422,0.6396484,0.8876953,1.0483398,1.6914063,1.2246094c0.7792969,0.1713867,1.4160156,0.0810547,1.9111328-0.2685547
	S149.4033203,31.0205078,149.765625,30.2270508z"/>
<path fill="#29176F" d="M158.6259766,24.5039063l3.9472656,1.3696289l-4.421875,12.75l-3.9482422-1.3696289L158.6259766,24.5039063z
	"/>
<path fill="#29176F" d="M163.5166016,33.2426758c0.9746094-1.9765625,2.2832031-3.2436523,3.9267578-3.8017578
	c1.6445313-0.5576172,3.4482422-0.3525391,5.4140625,0.6162109c2.0146484,0.9941406,3.3017578,2.300293,3.8574219,3.9189453
	c0.5566406,1.6196289,0.3544922,3.4033203-0.6064453,5.3525391c-0.6982422,1.4145508-1.5078125,2.4570313-2.4306641,3.128418
	c-0.9228516,0.6708984-1.9580078,1.0356445-3.1064453,1.0957031s-2.3935547-0.2412109-3.7382813-0.9038086
	c-1.3642578-0.6733398-2.3876953-1.4472656-3.0683594-2.3232422c-0.6796875-0.8759766-1.0654297-1.921875-1.1572266-3.137207
	C162.515625,35.9726563,162.8183594,34.6582031,163.5166016,33.2426758z M167.2490234,35.1040039
	c-0.6025391,1.2226563-0.8085938,2.2114258-0.6181641,2.9702148c0.1914063,0.7573242,0.6777344,1.3291016,1.4589844,1.7148438
	c0.8037109,0.3959961,1.5556641,0.4414063,2.2539063,0.1357422c0.6972656-0.3061523,1.3798828-1.1352539,2.0488281-2.4902344
	c0.5615234-1.1391602,0.7421875-2.0854492,0.5419922-2.8383789c-0.2011719-0.7519531-0.6933594-1.3227539-1.4814453-1.7109375
	c-0.7539063-0.3710938-1.4912109-0.402832-2.2119141-0.09375S167.8564453,33.8706055,167.2490234,35.1040039z
	 M174.2792969,27.0395508l2.8896484,1.4248047l-3.8837891,1.1542969l-1.6103516-0.7949219L174.2792969,27.0395508z"/>
<path fill="#29176F" d="M182.9609375,35.7919922l3.1494141,2.2880859l-0.2783203,9.0224609l4.3876953-6.0366211l3.1787109,2.3095703
	l-7.9306641,10.9125977l-3.1787109-2.3095703l0.2685547-8.9624023l-4.3554688,5.9931641l-3.1708984-2.3046875
	L182.9609375,35.7919922z"/>
<path fill="#FFFFFF" d="M210.6162109,38.5791016C187.7519531,16.2602539,157.3466797,3.9677734,125,3.9677734
	c-66.7373047,0-121.03125,52.9599609-121.03125,118.0551758c0,65.097168,54.2939453,118.0571289,121.03125,118.0571289
	s121.03125-52.9599609,121.03125-118.0571289C246.03125,90.5078125,233.4541016,60.8735352,210.6162109,38.5791016z
	 M125,235.1191406c-64.0019531,0-116.0712891-50.734375-116.0712891-113.0961914
	C8.9287109,59.6621094,60.9980469,8.9282227,125,8.9282227c31.0439453,0,60.21875,11.7915039,82.1503906,33.2006836
	c21.875,21.3525391,33.9208984,49.7265625,33.9208984,79.894043C241.0712891,184.3847656,189.0019531,235.1191406,125,235.1191406z"
	/>
<polygon fill="#29176F" points="125,40.75 127.7666016,49.2646484 136.71875,49.2646484 129.4765625,54.5263672 
	132.2431641,63.0405273 125,57.7788086 117.7583008,63.0405273 120.5239258,54.5263672 113.2817383,49.2646484 
	122.2338867,49.2646484 "/>
<path fill="#29176F" d="M124.3535156,68.1538086c-0.0488281,0.0419922-5.012207,4.144043-17.1015625,4.144043
	c-12.2006836,0-18.7504883-4.1787109-18.8149414-4.2211914l-0.5761719-0.3759766l-0.5556641,0.4067383L67.1049805,82.972168
	l0.6630859,0.809082c0.0849609,0.1035156,8.5410156,10.5493164,8.5410156,21.6508789
	c0,9.0449219-3.7324219,15.7299805-7.684082,22.8071289c-4.5273438,8.1083984-9.2094727,16.4931641-9.2094727,29.3359375
	c0,16.5537109,13.4770508,26.7148438,26.0893555,30.7011719c5.1308594,1.6220703,10.065918,2.4521484,14.8383789,3.2558594
	c8.6713867,1.4599609,16.8632813,2.8388672,24.015625,8.8935547L125,200.96875l0.6411133-0.5429688
	c7.152832-6.0546875,15.3432617-7.4335938,24.0161133-8.8935547c4.7724609-0.8037109,9.7070313-1.6337891,14.8388672-3.2558594
	c12.6123047-3.9863281,26.0878906-14.1474609,26.0878906-30.7011719c0-12.8427734-4.6816406-21.2275391-9.2099609-29.3359375
	c-3.9501953-7.0771484-7.6826172-13.762207-7.6826172-22.8071289c0-11.1015625,8.4550781-21.5473633,8.5400391-21.6508789
	l0.6630859-0.809082L162.140625,67.699707l-0.5771484,0.3769531c-0.0654297,0.0424805-6.6152344,4.2211914-18.8164063,4.2211914
	c-12.0888672,0-17.0517578-4.1020508-17.1010742-4.144043l-0.6420898-0.5458984L124.3535156,68.1538086z"/>
<path fill="#BA2825" d="M102.3334961,189.8564453c-0.5517578-0.0927734-1.1054688-0.1875-1.6611328-0.2802734
	c-4.7055664-0.7919922-9.5708008-1.6113281-14.5698242-3.1914063c-15.4677734-4.890625-24.7026367-15.6611328-24.7026367-28.8095703
	c0-12.3261719,4.5537109-20.4824219,8.9575195-28.3691406c4.0805664-7.3085938,7.9355469-14.2128906,7.9355469-23.7739258
	c0-7.012207-3.0258789-13.5932617-5.5673828-17.8862305l29.6079102,22.2695313V189.8564453z M179.6416016,129.2060547
	c-4.0800781-7.3085938-7.9355469-14.2128906-7.9355469-23.7739258c0-7.012207,3.0263672-13.5922852,5.5673828-17.8862305
	l-29.6083984,22.2700195v80.0424805c0.5527344-0.0947266,1.1074219-0.1884766,1.6630859-0.2822266
	c4.7050781-0.7919922,9.5693359-1.6113281,14.5693359-3.1914063c15.4677734-4.890625,24.7021484-15.6611328,24.7021484-28.8095703
	C188.5996094,145.2490234,184.046875,137.0927734,179.6416016,129.2060547z"/>
<path fill="#FFF500" d="M125,124.3828125c1.0708008-0.8066406,47.1904297-35.4970703,54.8017578-41.2226563
	c-2.4628906-1.8125-16.8496094-12.3999023-17.7597656-13.0693359c-1.8857422,1.0576172-8.3730469,4.190918-19.2949219,4.190918
	c-10.6630859,0-16.0488281-2.9946289-17.7470703-4.1552734c-1.6982422,1.1606445-7.0839844,4.1552734-17.7480469,4.1552734
	c-10.921875,0-17.4086914-3.1333008-19.2944336-4.190918c-0.9091797,0.6694336-15.296875,11.2568359-17.7607422,13.0693359
	C77.8100586,88.8867188,123.9287109,123.5761719,125,124.3828125z"/>
<radialGradient id="XMLID_6_" cx="124.3671875" cy="87.3554688" r="17.8701153" gradientUnits="userSpaceOnUse">
	<stop  offset="0.342697" style="stop-color:#FFFFFF"/>
	<stop  offset="0.6036179" style="stop-color:#FDFDFD"/>
	<stop  offset="0.6976029" style="stop-color:#F6F6F6"/>
	<stop  offset="0.7646184" style="stop-color:#EBEBEB"/>
	<stop  offset="0.8188194" style="stop-color:#DADADA"/>
	<stop  offset="0.8652326" style="stop-color:#C4C4C4"/>
	<stop  offset="0.9063258" style="stop-color:#A8A8A8"/>
	<stop  offset="0.9435255" style="stop-color:#888888"/>
	<stop  offset="0.9765577" style="stop-color:#646464"/>
	<stop  offset="1" style="stop-color:#454545"/>
</radialGradient>
<path fill-rule="evenodd" clip-rule="evenodd" fill="url(#XMLID_6_)" d="M125,82.5380859
	c-7.0224609,0-12.7163086,5.6928711-12.7163086,12.7148438c0,7.0209961,5.6938477,12.7158203,12.7163086,12.7158203
	c7.0244141,0,12.7167969-5.6948242,12.7167969-12.7158203C137.7167969,88.230957,132.0244141,82.5380859,125,82.5380859
	L125,82.5380859z"/>
<path d="M136.1015625,89.0234375c-0.0322266-0.0600586-0.0625-0.1181641-0.0947266-0.1801758c0,0-0.0029297,0-0.0048828-0.0009766
	c-0.2138672-0.3632813-0.4443359-0.7167969-0.6953125-1.0610352c-1.9990234-2.7514648-4.9560547-4.5610352-8.3242188-5.0927734
	c-3.362793-0.5327148-6.7241211,0.2729492-9.4677734,2.265625c-1.453125,1.0541992-2.6386719,2.3789063-3.515625,3.8891602
	h-0.0048828c-0.0493164,0.081543-0.0986328,0.1704102-0.1479492,0.2641602
	c-0.6977539,1.2724609-1.1782227,2.6713867-1.4125977,4.1508789c-0.5327148,3.3666992,0.2749023,6.7333984,2.2744141,9.4833984
	c4.1206055,5.671875,12.0947266,6.9311523,17.7744141,2.8056641c2.7441406-1.9946289,4.5507813-4.9443359,5.0839844-8.3095703
	C138.0214844,94.3691406,137.5,91.5024414,136.1015625,89.0234375z M135.0810547,87.9448242
	c0.2080078,0.2861328,0.3984375,0.5795898,0.5791016,0.8769531c-0.6416016-0.0322266-1.9912109-0.0927734-2.4541016-0.1132813
	c-1.2021484-1.5053711-2.7685547-2.6333008-4.5498047-3.2900391l-0.9033203-2.2954102
	C130.7080078,83.7885742,133.2871094,85.4775391,135.0810547,87.9448242z M133.5058594,100.9023438
	c-0.7900391,0.1323242-3.7294922,0.6274414-3.7304688,0.6293945l-2.3759766-3.3134766l1.3105469-3.9370117l3.921875-1.4174805
	l2.5380859,3.2133789c-0.0214844,0.2558594-0.0498047,0.5126953-0.0908203,0.7695313
	C134.8457031,98.3222656,134.3046875,99.6958008,133.5058594,100.9023438z M125.2177734,87.2553711l3.3037109-1.5874023
	c1.7666016,0.6450195,3.3134766,1.7636719,4.4941406,3.2607422l-0.4462891,3.5805664l-3.9208984,1.3696289l-3.4306641-2.5175781
	V87.2553711z M117.2563477,92.8637695l4.0336914,1.4174805l1.3115234,3.9370117l-2.3759766,3.3134766l-3.7373047-0.6318359
	c-0.9658203-1.4536133-1.5327148-3.1030273-1.6689453-4.8139648L117.2563477,92.8637695z M116.9833984,88.9150391
	c0.5712891-0.7226563,1.2426758-1.3720703,2.0073242-1.9282227c0.7719727-0.5620117,1.6054688-1.0014648,2.4780273-1.3232422
	l3.3144531,1.5917969v4.105957l-3.4316406,2.5175781l-3.9208984-1.3696289L116.9833984,88.9150391z M122.8803711,98.4345703
	h4.2397461l2.3984375,3.4257813l-2.0087891,3.2900391c-1.6582031,0.4194336-3.3847656,0.4125977-5.0175781,0.0009766
	l-2.0097656-3.2910156L122.8803711,98.4345703z M117.6787109,85.1801758
	c1.3896484-1.0107422,2.9433594-1.7050781,4.5742188-2.0712891l-0.9052734,2.3027344
	c-0.8867188,0.3291016-1.7348633,0.7788086-2.5195313,1.3486328c-0.7749023,0.5629883-1.4555664,1.2197266-2.0375977,1.9482422
	l-2.4584961,0.1181641C115.1796875,87.4150391,116.3085938,86.1748047,117.6787109,85.1801758z M112.5703125,94.659668
	c0.4389648,0.3334961,1.5800781,1.2036133,1.9741211,1.5048828c0.1474609,1.734375,0.7260742,3.4042969,1.7045898,4.8798828
	l-0.6669922,2.3466797c-0.2241211-0.2607422-0.4423828-0.5297852-0.6489258-0.8129883
	C113.2475586,100.2597656,112.4296875,97.4902344,112.5703125,94.659668z M120.1557617,106.7177734l2.2817383-1.293457
	c1.6689453,0.4179688,3.4321289,0.4262695,5.1269531,0.0014648l2.2792969,1.2910156
	C126.7089844,108.0405273,123.2050781,107.9995117,120.1557617,106.7177734z M137.2900391,97.1933594
	c-0.3681641,2.3320313-1.3652344,4.4614258-2.8710938,6.1982422l-0.6679688-2.347168
	c0.8183594-1.2363281,1.3701172-2.6450195,1.609375-4.1552734c0.0390625-0.2402344,0.0654297-0.4785156,0.0888672-0.71875
	l1.9853516-1.5112305C137.4707031,95.4970703,137.4257813,96.3447266,137.2900391,97.1933594z"/>
</svg>
