<?xml version="1.0" encoding="UTF-8" standalone="no"?>
<!-- Created with Inkscape (http://www.inkscape.org/) -->

<svg
   xmlns:dc="http://purl.org/dc/elements/1.1/"
   xmlns:cc="http://creativecommons.org/ns#"
   xmlns:rdf="http://www.w3.org/1999/02/22-rdf-syntax-ns#"
   xmlns:svg="http://www.w3.org/2000/svg"
   xmlns="http://www.w3.org/2000/svg"
   xmlns:xlink="http://www.w3.org/1999/xlink"
   xmlns:sodipodi="http://sodipodi.sourceforge.net/DTD/sodipodi-0.dtd"
   xmlns:inkscape="http://www.inkscape.org/namespaces/inkscape"
   width="300"
   height="300"
   viewBox="0 0 79.375 79.374999"
   version="1.1"
   id="svg8"
   sodipodi:docname="HNK Cibalia Vinkovci Logo.svg"
   inkscape:version="0.92.5 (2060ec1f9f, 2020-04-08)">
  <defs
     id="defs2">
    <linearGradient
       inkscape:collect="always"
       id="linearGradient840">
      <stop
         style="stop-color:#ffffff;stop-opacity:1"
         offset="0"
         id="stop836" />
      <stop
         id="stop846"
         offset="0.75080568"
         style="stop-color:#ffffff;stop-opacity:1" />
      <stop
         style="stop-color:#b3b3b3;stop-opacity:1"
         offset="1"
         id="stop838" />
    </linearGradient>
    <radialGradient
       inkscape:collect="always"
       xlink:href="#linearGradient840"
       id="radialGradient844"
       cx="360.20715"
       cy="388.31311"
       fx="360.20715"
       fy="388.31311"
       r="37.295898"
       gradientTransform="matrix(0.16889848,0.16889848,-0.12833164,0.12833208,27.531872,-59.798697)"
       gradientUnits="userSpaceOnUse" />
  </defs>
  <sodipodi:namedview
     id="base"
     pagecolor="#ffffff"
     bordercolor="#666666"
     borderopacity="1.0"
     inkscape:pageopacity="0.0"
     inkscape:pageshadow="2"
     inkscape:zoom="1.4"
     inkscape:cx="-48.520069"
     inkscape:cy="91.948251"
     inkscape:document-units="px"
     inkscape:current-layer="svg8"
     showgrid="false"
     units="px"
     fit-margin-top="0"
     fit-margin-left="0"
     fit-margin-right="0"
     fit-margin-bottom="0"
     inkscape:window-width="1920"
     inkscape:window-height="1017"
     inkscape:window-x="-8"
     inkscape:window-y="-8"
     inkscape:window-maximized="1"
     showguides="true"
     inkscape:guide-bbox="true"
     inkscape:snap-smooth-nodes="true"
     inkscape:snap-midpoints="true"
     inkscape:snap-intersection-paths="true"
     inkscape:object-paths="true"
     inkscape:lockguides="true"
     inkscape:snap-global="false"
     inkscape:snap-bbox="true"
     inkscape:bbox-paths="true"
     inkscape:bbox-nodes="true"
     inkscape:snap-bbox-edge-midpoints="false"
     inkscape:snap-bbox-midpoints="true" />
  <metadata
     id="metadata5">
    <rdf:RDF>
      <cc:Work
         rdf:about="">
        <dc:format>image/svg+xml</dc:format>
        <dc:type
           rdf:resource="http://purl.org/dc/dcmitype/StillImage" />
        <dc:title></dc:title>
      </cc:Work>
    </rdf:RDF>
  </metadata>
  <path
     inkscape:connector-curvature="0"
     id="path830"
     d="M 70.226319,-3.214646e-7 V 48.039139 c 0,16.058727 -12.095248,31.33586 -30.538819,31.33586 -18.443572,0 -30.5388195,-15.277133 -30.5388195,-31.33586 V -3.214646e-7 Z"
     style="opacity:1;fill:#1383b5;fill-opacity:1;stroke:none;stroke-width:0.39687499;stroke-linecap:butt;stroke-linejoin:miter;stroke-miterlimit:22.92560005;stroke-dasharray:none;stroke-opacity:1"
     sodipodi:nodetypes="cszscc" />
  <path
     inkscape:connector-curvature="0"
     id="path825"
     d="m 11.50302,2.353249 h 56.369752 v 45.685599 c 0,14.87685 -11.041863,28.981763 -28.185668,28.981763 -17.143798,0 -28.184084,-14.104913 -28.184084,-28.981763 z"
     style="color:#000000;font-style:normal;font-variant:normal;font-weight:normal;font-stretch:normal;font-size:medium;line-height:normal;font-family:sans-serif;font-variant-ligatures:normal;font-variant-position:normal;font-variant-caps:normal;font-variant-numeric:normal;font-variant-alternates:normal;font-feature-settings:normal;text-indent:0;text-align:start;text-decoration:none;text-decoration-line:none;text-decoration-style:solid;text-decoration-color:#000000;letter-spacing:normal;word-spacing:normal;text-transform:none;writing-mode:lr-tb;direction:ltr;text-orientation:mixed;dominant-baseline:auto;baseline-shift:baseline;text-anchor:start;white-space:normal;shape-padding:0;clip-rule:nonzero;display:inline;overflow:visible;visibility:visible;opacity:1;isolation:auto;mix-blend-mode:normal;color-interpolation:sRGB;color-interpolation-filters:linearRGB;solid-color:#000000;solid-opacity:1;vector-effect:none;fill:#edefee;fill-opacity:1;fill-rule:nonzero;stroke:none;stroke-width:5.82083321;stroke-linecap:butt;stroke-linejoin:miter;stroke-miterlimit:22.92560005;stroke-dasharray:none;stroke-dashoffset:0;stroke-opacity:1;color-rendering:auto;image-rendering:auto;shape-rendering:auto;text-rendering:auto;enable-background:accumulate" />
  <path
     sodipodi:nodetypes="sssccsssccs"
     inkscape:connector-curvature="0"
     id="path861"
     d="m 39.687694,23.629334 c -13.856211,-0.0063 -25.088887,11.232674 -25.088887,25.088883 0,13.856211 11.232676,25.091977 25.088887,25.088879 12.104856,-0.0024 22.479513,-8.653831 24.664689,-20.559819 h -3.48842 C 58.728306,63.23768 49.903815,70.381224 39.687694,70.383456 27.722313,70.385882 18.022456,60.683599 18.022448,48.718217 c 8e-6,-11.965382 9.699865,-21.669285 21.665246,-21.66524 4.490579,0.0015 8.868462,1.406421 12.528139,4.008739 L 53.76676,27.981188 C 49.615169,25.153946 44.710542,23.631617 39.687694,23.629334 Z"
     style="opacity:1;fill:#e60f19;fill-opacity:1;stroke:none;stroke-width:5.82083464;stroke-linecap:butt;stroke-linejoin:miter;stroke-miterlimit:22.92560005;stroke-dasharray:none;stroke-opacity:1" />
  <path
     inkscape:connector-curvature="0"
     id="circle847"
     d="m 39.688115,31.28614 c -9.63139,-0.0032 -17.43918,7.807786 -17.43918,17.439178 0,9.631398 7.80779,17.440927 17.43918,17.43918 7.887256,-0.0016 14.790549,-5.299742 16.835702,-12.917221 H 51.42722 c -0.367893,5.413459 -4.863366,9.621482 -10.289319,9.624394 -5.702024,0.0032 -10.324427,-4.622403 -10.324427,-10.324427 0,-5.702019 4.622403,-10.325734 10.324427,-10.32442 1.69074,4.28e-4 3.35518,0.418604 4.847102,1.214073 l 4.30212,-8.544898 c -3.04068,-2.334162 -6.76572,-3.604603 -10.599008,-3.605859 z"
     style="opacity:1;fill:#1383b5;fill-opacity:1;stroke:none;stroke-width:5.82083464;stroke-linecap:butt;stroke-linejoin:miter;stroke-miterlimit:22.92560005;stroke-dasharray:none;stroke-opacity:1" />
  <path
     inkscape:connector-curvature="0"
     id="path824"
     d="m 41.2256,44.356901 c -4.497971,0 -8.145793,3.64781 -8.145793,8.145782 0,4.497979 3.647822,8.14737 8.145793,8.14737 4.497971,0 8.145784,-3.649391 8.145784,-8.14737 0,-4.497972 -3.647813,-8.145782 -8.145784,-8.145782 z"
     style="color:#000000;font-style:normal;font-variant:normal;font-weight:normal;font-stretch:normal;font-size:medium;line-height:normal;font-family:sans-serif;font-variant-ligatures:normal;font-variant-position:normal;font-variant-caps:normal;font-variant-numeric:normal;font-variant-alternates:normal;font-feature-settings:normal;text-indent:0;text-align:start;text-decoration:none;text-decoration-line:none;text-decoration-style:solid;text-decoration-color:#000000;letter-spacing:normal;word-spacing:normal;text-transform:none;writing-mode:lr-tb;direction:ltr;text-orientation:mixed;dominant-baseline:auto;baseline-shift:baseline;text-anchor:start;white-space:normal;shape-padding:0;clip-rule:nonzero;display:inline;overflow:visible;visibility:visible;opacity:1;isolation:auto;mix-blend-mode:normal;color-interpolation:sRGB;color-interpolation-filters:linearRGB;solid-color:#000000;solid-opacity:1;vector-effect:none;fill:#52361d;fill-opacity:1;fill-rule:nonzero;stroke:none;stroke-width:0.1984375;stroke-linecap:butt;stroke-linejoin:miter;stroke-miterlimit:22.92560005;stroke-dasharray:none;stroke-dashoffset:0;stroke-opacity:1;color-rendering:auto;image-rendering:auto;shape-rendering:auto;text-rendering:auto;enable-background:accumulate" />
  <path
     inkscape:connector-curvature="0"
     id="path818"
     d="m 40.288252,44.57449 c -1.272107,0.14872 -2.452609,0.595388 -3.469617,1.269656 0.743713,-0.117006 1.337049,-0.119402 1.529601,-0.115767 0.06478,-0.08049 0.692309,-0.824094 1.940016,-1.153889 z m 1.102483,0.0025 c -1.962976,0.05183 -2.88106,1.204045 -2.924222,1.259627 -0.0057,0.220884 0.06915,0.776573 0.256191,1.446439 0.454921,0.0489 1.73772,0.235722 2.99527,0.897702 0.24097,-0.142491 1.209875,-0.684871 2.632091,-1.027676 -0.0024,-0.810956 -0.202912,-1.478473 -0.225678,-1.551338 -0.171023,-0.106195 -1.222022,-0.733983 -2.733652,-1.024754 z m 3.678578,0.925286 -0.771072,0.12329 c 0.06049,0.21292 0.213999,0.826996 0.211476,1.560531 0.195423,0.125893 1.277615,0.864568 2.225031,2.418115 0.439386,0.04011 1.111023,0.145127 1.766147,0.434217 l 0.126219,-0.535778 c -0.692641,-1.707009 -1.957243,-3.120237 -3.557801,-4.000375 z m -6.368348,1.939592 c -0.14486,0.111652 -1.585783,1.229687 -2.623308,2.356262 -0.0016,0.0736 -0.04125,1.824165 0.616021,3.354267 1.392714,0.251937 2.527667,0.618917 2.86195,0.731784 l 2.792576,-2.438174 c -0.153077,-1.438431 -0.619676,-2.909179 -0.702119,-3.121901 -1.236183,-0.651052 -2.506689,-0.834963 -2.94512,-0.882238 z m -4.068501,0.556253 c -0.475398,0.694622 -0.842451,1.468371 -1.080332,2.297332 0.416911,-0.561415 0.792495,-0.937469 0.821222,-0.965823 0.07222,-0.532867 0.168831,-0.980413 0.25911,-1.331509 z m -0.179288,1.480712 c -0.09988,0.100728 -0.562976,0.58127 -1.013053,1.253774 -0.128864,0.569551 -0.199345,1.161278 -0.199345,1.769915 0,0.568241 0.06025,1.122435 0.17302,1.657073 0.133765,0.235156 0.280777,0.465014 0.437987,0.661569 0.213546,0.183276 0.759563,0.592714 1.613191,0.818723 0.381876,-1.374081 0.951807,-2.242128 1.080331,-2.426891 C 35.913985,51.74371 35.912845,50.144178 35.917171,49.874198 35.259824,49.72713 34.586488,49.520401 34.453176,49.47884 Z m 12.335903,0.292965 c -0.02572,0.157945 -0.255398,1.433627 -1.18482,2.619555 0.268135,0.62563 0.724504,1.834388 0.891856,3.158263 l 1.186907,0.318035 c 0.837315,-1.386398 1.284618,-3.029261 1.318132,-3.154914 -0.120833,-1.476847 -0.536798,-2.510563 -0.537865,-2.512981 -0.605532,-0.270781 -1.238925,-0.381626 -1.67421,-0.427958 z m -4.337227,1.79666 -2.741594,2.392617 c 0.412066,1.437679 0.613239,2.889924 0.647367,3.147813 0.492431,0.222297 1.731647,0.690069 3.521441,0.731371 0.107141,-0.07748 1.256474,-0.920833 2.459071,-2.263065 -0.166131,-1.319548 -0.628654,-2.536265 -0.891436,-3.148226 -1.436458,-0.260753 -2.994849,-0.86051 -2.994849,-0.86051 z m 6.677187,1.279273 c -0.09375,0.338131 -0.530797,1.829034 -1.330255,3.137776 l -0.246155,1.387934 c 0.964772,-1.251411 1.567692,-2.795665 1.649131,-4.478076 z m -15.273914,2.179474 -0.02887,0.477688 c 0.743429,1.83163 2.145063,3.32529 3.91345,4.184683 l 0.45387,-0.02758 c -0.137679,-0.412826 -0.300024,-0.939062 -0.318043,-1.484052 -0.04852,-0.03041 -1.325888,-0.838876 -2.400146,-2.36964 -0.78254,-0.19793 -1.33277,-0.557243 -1.620292,-0.781101 z m 6.442735,2.230466 c -0.179119,0.118827 -1.041391,0.662766 -2.262225,0.903971 0.01723,0.55734 0.198464,1.115092 0.34144,1.541311 0.114371,0.07157 0.501043,0.302717 1.247093,0.625216 1.29e-4,2.5e-5 2.1e-4,-2.4e-5 4.2e-4,0 0.517186,0.105217 1.052754,0.160898 1.601077,0.160898 1.040251,0 2.032956,-0.201245 2.944287,-0.562944 -0.112754,-0.444391 -0.250037,-1.100437 -0.318876,-1.927053 -1.784093,-0.04586 -3.038101,-0.511621 -3.553208,-0.741399 z"
     style="color:#000000;font-style:normal;font-variant:normal;font-weight:normal;font-stretch:normal;font-size:medium;line-height:normal;font-family:sans-serif;font-variant-ligatures:normal;font-variant-position:normal;font-variant-caps:normal;font-variant-numeric:normal;font-variant-alternates:normal;font-feature-settings:normal;text-indent:0;text-align:start;text-decoration:none;text-decoration-line:none;text-decoration-style:solid;text-decoration-color:#000000;letter-spacing:normal;word-spacing:normal;text-transform:none;writing-mode:lr-tb;direction:ltr;text-orientation:mixed;dominant-baseline:auto;baseline-shift:baseline;text-anchor:start;white-space:normal;shape-padding:0;clip-rule:nonzero;display:inline;overflow:visible;visibility:visible;opacity:1;isolation:auto;mix-blend-mode:normal;color-interpolation:sRGB;color-interpolation-filters:linearRGB;solid-color:#000000;solid-opacity:1;vector-effect:none;fill:url(#radialGradient844);fill-opacity:1;fill-rule:nonzero;stroke:none;stroke-width:0.1984375;stroke-linecap:butt;stroke-linejoin:miter;stroke-miterlimit:22.92560005;stroke-dasharray:none;stroke-dashoffset:0;stroke-opacity:1;color-rendering:auto;image-rendering:auto;shape-rendering:auto;text-rendering:auto;enable-background:accumulate" />
  <path
     inkscape:connector-curvature="0"
     id="rect843"
     d="M 12.911989,4.4509042 V 4.878965 16.288126 H 66.179484 V 4.4509042 Z m 0.856127,0.8561192 H 65.324943 V 15.432 H 13.768116 Z"
     style="color:#000000;font-style:normal;font-variant:normal;font-weight:normal;font-stretch:normal;font-size:medium;line-height:normal;font-family:sans-serif;font-variant-ligatures:normal;font-variant-position:normal;font-variant-caps:normal;font-variant-numeric:normal;font-variant-alternates:normal;font-feature-settings:normal;text-indent:0;text-align:start;text-decoration:none;text-decoration-line:none;text-decoration-style:solid;text-decoration-color:#000000;letter-spacing:normal;word-spacing:normal;text-transform:none;writing-mode:lr-tb;direction:ltr;text-orientation:mixed;dominant-baseline:auto;baseline-shift:baseline;text-anchor:start;white-space:normal;shape-padding:0;clip-rule:nonzero;display:inline;overflow:visible;visibility:visible;opacity:1;isolation:auto;mix-blend-mode:normal;color-interpolation:sRGB;color-interpolation-filters:linearRGB;solid-color:#000000;solid-opacity:1;vector-effect:none;fill:#1383b5;fill-opacity:1;fill-rule:nonzero;stroke:none;stroke-width:1.05833328;stroke-linecap:butt;stroke-linejoin:miter;stroke-miterlimit:22.92560005;stroke-dasharray:none;stroke-dashoffset:0;stroke-opacity:1;color-rendering:auto;image-rendering:auto;shape-rendering:auto;text-rendering:auto;enable-background:accumulate" />
  <path
     inkscape:connector-curvature="0"
     id="path847"
     d="m 12.864597,17.665903 v 3.704012 h 3.704013 v -3.704012 z m 3.704013,3.704012 v 3.704012 h 3.704012 v -3.704012 z m 3.704012,0 h 3.704004 v -3.704012 h -3.704004 z m 3.704004,0 v 3.704012 h 3.704021 v -3.704012 z m 3.704021,0 h 3.704004 v -3.704012 h -3.704004 z m -3.704021,3.704012 h -3.704004 v 3.704004 h 3.704004 z m -3.704004,3.704004 H 16.56861 v 3.704013 h 3.704012 z m -3.704012,3.704013 h -3.704013 v 3.704012 h 3.704013 z m 0,-3.704013 v -3.704004 h -3.704013 v 3.704004 z"
     style="opacity:1;fill:#e60f19;fill-opacity:1;stroke:none;stroke-width:1.05833328;stroke-linecap:butt;stroke-linejoin:miter;stroke-miterlimit:22.92560005;stroke-dasharray:none;stroke-opacity:1" />
  <path
     d="M 16.165544,14.007511 V 7.2615002 h 0.730255 v 2.7701908 h 2.868315 V 7.2615002 h 0.730255 v 6.7460108 h -0.730255 v -3.179742 h -2.868315 v 3.179742 z"
     style="font-style:normal;font-variant:normal;font-weight:normal;font-stretch:normal;font-size:25.39999962px;line-height:1.25;font-family:Arial;-inkscape-font-specification:Arial;text-align:center;text-anchor:middle;fill:#1383b5;fill-opacity:1;stroke:none;stroke-width:1.0583334;stroke-linecap:butt;stroke-linejoin:miter;stroke-miterlimit:22.92560005;stroke-dasharray:none;stroke-opacity:1"
     id="path873"
     inkscape:connector-curvature="0" />
  <path
     d="M 21.706444,14.007511 V 7.2615002 h 0.749066 l 2.898432,5.2964918 V 7.2615002 h 0.700145 V 14.007511 H 25.305013 L 22.406581,8.7064096 v 5.3011014 z"
     style="font-style:normal;font-variant:normal;font-weight:normal;font-stretch:normal;font-size:25.39999962px;line-height:1.25;font-family:Arial;-inkscape-font-specification:Arial;text-align:center;text-anchor:middle;fill:#1383b5;fill-opacity:1;stroke:none;stroke-width:1.0583334;stroke-linecap:butt;stroke-linejoin:miter;stroke-miterlimit:22.92560005;stroke-dasharray:none;stroke-opacity:1"
     id="path875"
     inkscape:connector-curvature="0" />
  <path
     d="M 27.254864,14.007511 V 7.2615002 h 0.730255 v 3.3453948 l 2.740332,-3.3453948 h 0.98998 l -2.314978,2.7333772 2.416612,4.0126336 h -0.963631 l -1.96491,-3.414421 -0.903405,1.076782 v 2.337639 z"
     style="font-style:normal;font-variant:normal;font-weight:normal;font-stretch:normal;font-size:25.39999962px;line-height:1.25;font-family:Arial;-inkscape-font-specification:Arial;text-align:center;text-anchor:middle;fill:#1383b5;fill-opacity:1;stroke:none;stroke-width:1.0583334;stroke-linecap:butt;stroke-linejoin:miter;stroke-miterlimit:22.92560005;stroke-dasharray:none;stroke-opacity:1"
     id="path877"
     inkscape:connector-curvature="0" />
  <path
     d="m 38.509804,11.642262 0.730255,0.225483 q -0.229615,1.09979 -0.828119,1.679604 -0.594744,0.575204 -1.45675,0.575204 -0.892115,0 -1.45298,-0.441755 -0.557097,-0.446364 -0.8507,-1.288467 -0.289851,-0.842103 -0.289851,-1.808444 0,-1.0537812 0.327489,-1.8360621 0.33125,-0.7868825 0.937283,-1.191824 0.609802,-0.4095432 1.340057,-0.4095432 0.82812,0 1.392746,0.5153823 0.564634,0.5153823 0.786721,1.4495192 L 38.426998,9.3184276 Q 38.235021,8.5821718 37.869893,8.2462478 37.504766,7.9103318 36.95143,7.9103318 q -0.636151,0 -1.065266,0.3727296 -0.425353,0.3727376 -0.598512,1.0031624 -0.17315,0.625823 -0.17315,1.2930612 0,0.860502 0.203268,1.50474 0.207028,0.639628 0.639911,0.957137 0.432883,0.317517 0.937283,0.317517 0.613562,0 1.038924,-0.432559 0.425346,-0.432552 0.575916,-1.283858 z"
     style="font-style:normal;font-variant:normal;font-weight:normal;font-stretch:normal;font-size:25.39999962px;line-height:1.25;font-family:Arial;-inkscape-font-specification:Arial;text-align:center;text-anchor:middle;fill:#1383b5;fill-opacity:1;stroke:none;stroke-width:1.0583334;stroke-linecap:butt;stroke-linejoin:miter;stroke-miterlimit:22.92560005;stroke-dasharray:none;stroke-opacity:1"
     id="path879"
     inkscape:connector-curvature="0" />
  <path
     d="M 40.267686,14.007511 V 7.2615002 h 0.730255 v 6.7460108 z"
     style="font-style:normal;font-variant:normal;font-weight:normal;font-stretch:normal;font-size:25.39999962px;line-height:1.25;font-family:Arial;-inkscape-font-specification:Arial;text-align:center;text-anchor:middle;fill:#1383b5;fill-opacity:1;stroke:none;stroke-width:1.0583334;stroke-linecap:butt;stroke-linejoin:miter;stroke-miterlimit:22.92560005;stroke-dasharray:none;stroke-opacity:1"
     id="path881"
     inkscape:connector-curvature="0" />
  <path
     d="M 42.251415,14.007511 V 7.2615002 h 2.070304 q 0.63239,0 1.012568,0.2070684 0.383955,0.2024748 0.598512,0.6304248 0.218326,0.4233563 0.218326,0.8881199 0,0.4325517 -0.191978,0.8144928 -0.191977,0.3819329 -0.579684,0.6166199 0.500639,0.179458 0.767893,0.612018 0.271023,0.432559 0.271023,1.021569 0,0.473967 -0.165621,0.883518 -0.16186,0.404942 -0.402774,0.625815 -0.240905,0.220882 -0.606033,0.335924 -0.361367,0.110441 -0.888346,0.110441 z m 0.730255,-3.911404 h 1.193247 q 0.485581,0 0.696377,-0.07821 0.278553,-0.1012373 0.417825,-0.335924 0.143041,-0.2346866 0.143041,-0.5890094 0,-0.3359241 -0.131751,-0.5890095 Q 45.168666,8.2462639 44.923991,8.15423 44.679325,8.0575943 44.084582,8.0575943 H 42.98167 Z m 0,3.115318 h 1.373935 q 0.353829,0 0.49687,-0.03219 0.252204,-0.05524 0.421593,-0.184068 0.169382,-0.128847 0.278545,-0.372729 0.109163,-0.248492 0.109163,-0.570603 0,-0.377339 -0.1581,-0.653441 -0.158091,-0.280696 -0.440404,-0.391137 -0.278553,-0.115042 -0.80554,-0.115042 H 42.98167 Z"
     style="font-style:normal;font-variant:normal;font-weight:normal;font-stretch:normal;font-size:25.39999962px;line-height:1.25;font-family:Arial;-inkscape-font-specification:Arial;text-align:center;text-anchor:middle;fill:#1383b5;fill-opacity:1;stroke:none;stroke-width:1.0583334;stroke-linecap:butt;stroke-linejoin:miter;stroke-miterlimit:22.92560005;stroke-dasharray:none;stroke-opacity:1"
     id="path883"
     inkscape:connector-curvature="0" />
  <path
     d="m 46.824914,14.007511 2.11924,-6.7460108 h 0.786713 l 2.258521,6.7460108 h -0.831889 l -0.643672,-2.04313 H 48.20637 l -0.606033,2.04313 z m 1.592253,-2.770191 h 1.870805 L 49.712048,9.3690463 Q 49.448554,8.517748 49.320572,7.9701458 49.215177,8.6189854 49.0232,9.2586055 Z"
     style="font-style:normal;font-variant:normal;font-weight:normal;font-stretch:normal;font-size:25.39999962px;line-height:1.25;font-family:Arial;-inkscape-font-specification:Arial;text-align:center;text-anchor:middle;fill:#1383b5;fill-opacity:1;stroke:none;stroke-width:1.0583334;stroke-linecap:butt;stroke-linejoin:miter;stroke-miterlimit:22.92560005;stroke-dasharray:none;stroke-opacity:1"
     id="path885"
     inkscape:connector-curvature="0" />
  <path
     d="M 52.550253,14.007511 V 7.2615002 h 0.730255 v 5.9499248 h 2.717753 v 0.796086 z"
     style="font-style:normal;font-variant:normal;font-weight:normal;font-stretch:normal;font-size:25.39999962px;line-height:1.25;font-family:Arial;-inkscape-font-specification:Arial;text-align:center;text-anchor:middle;fill:#1383b5;fill-opacity:1;stroke:none;stroke-width:1.0583334;stroke-linecap:butt;stroke-linejoin:miter;stroke-miterlimit:22.92560005;stroke-dasharray:none;stroke-opacity:1"
     id="path887"
     inkscape:connector-curvature="0" />
  <path
     d="M 56.99577,14.007511 V 7.2615002 h 0.730255 v 6.7460108 z"
     style="font-style:normal;font-variant:normal;font-weight:normal;font-stretch:normal;font-size:25.39999962px;line-height:1.25;font-family:Arial;-inkscape-font-specification:Arial;text-align:center;text-anchor:middle;fill:#1383b5;fill-opacity:1;stroke:none;stroke-width:1.0583334;stroke-linecap:butt;stroke-linejoin:miter;stroke-miterlimit:22.92560005;stroke-dasharray:none;stroke-opacity:1"
     id="path889"
     inkscape:connector-curvature="0" />
  <path
     d="m 58.403575,14.007511 2.11924,-6.7460108 h 0.786721 l 2.258512,6.7460108 h -0.83188 l -0.64368,-2.04313 h -2.307449 l -0.606042,2.04313 z m 1.592252,-2.770191 h 1.870806 L 61.290716,9.3690463 Q 61.027223,8.517748 60.89924,7.9701458 60.793838,8.6189854 60.601869,9.2586055 Z"
     style="font-style:normal;font-variant:normal;font-weight:normal;font-stretch:normal;font-size:25.39999962px;line-height:1.25;font-family:Arial;-inkscape-font-specification:Arial;text-align:center;text-anchor:middle;fill:#1383b5;fill-opacity:1;stroke:none;stroke-width:1.0583334;stroke-linecap:butt;stroke-linejoin:miter;stroke-miterlimit:22.92560005;stroke-dasharray:none;stroke-opacity:1"
     id="path891"
     inkscape:connector-curvature="0" />
  <path
     d="M 35.576128,21.351451 33.57878,17.631628 h 0.738456 l 1.339765,2.70233 q 0.161755,0.324788 0.270765,0.608969 0.119563,-0.30448 0.277808,-0.608969 l 1.392512,-2.70233 h 0.696255 l -2.018447,3.719823 z"
     style="font-style:normal;font-variant:normal;font-weight:normal;font-stretch:normal;font-size:25.39999962px;line-height:1.25;font-family:Arial;-inkscape-font-specification:Arial;text-align:center;text-anchor:middle;fill:#1383b5;fill-opacity:1;stroke:none;stroke-width:1.05833328;stroke-linecap:butt;stroke-linejoin:miter;stroke-miterlimit:22.92560005;stroke-dasharray:none;stroke-opacity:1"
     id="path898"
     inkscape:connector-curvature="0" />
  <path
     d="m 38.826287,21.351451 v -3.719823 h 0.656789 v 3.719823 z"
     style="font-style:normal;font-variant:normal;font-weight:normal;font-stretch:normal;font-size:25.39999962px;line-height:1.25;font-family:Arial;-inkscape-font-specification:Arial;text-align:center;text-anchor:middle;fill:#1383b5;fill-opacity:1;stroke:none;stroke-width:1.05833328;stroke-linecap:butt;stroke-linejoin:miter;stroke-miterlimit:22.92560005;stroke-dasharray:none;stroke-opacity:1"
     id="path900"
     inkscape:connector-curvature="0" />
  <path
     d="m 40.688066,21.351451 v -3.719823 h 0.66055 l 2.555868,2.920543 v -2.920543 h 0.617405 v 3.719823 h -0.660551 l -2.555876,-2.923073 v 2.923073 z"
     style="font-style:normal;font-variant:normal;font-weight:normal;font-stretch:normal;font-size:25.39999962px;line-height:1.25;font-family:Arial;-inkscape-font-specification:Arial;text-align:center;text-anchor:middle;fill:#1383b5;fill-opacity:1;stroke:none;stroke-width:1.05833328;stroke-linecap:butt;stroke-linejoin:miter;stroke-miterlimit:22.92560005;stroke-dasharray:none;stroke-opacity:1"
     id="path902"
     inkscape:connector-curvature="0" />
  <path
     d="m 45.620959,21.351451 v -3.719823 h 0.656789 v 1.844692 l 2.464635,-1.844692 h 0.890376 l -2.082071,1.507215 2.173483,2.212608 H 48.85749 l -1.76723,-1.88275 -0.812512,0.593757 v 1.288993 z"
     style="font-style:normal;font-variant:normal;font-weight:normal;font-stretch:normal;font-size:25.39999962px;line-height:1.25;font-family:Arial;-inkscape-font-specification:Arial;text-align:center;text-anchor:middle;fill:#1383b5;fill-opacity:1;stroke:none;stroke-width:1.05833328;stroke-linecap:butt;stroke-linejoin:miter;stroke-miterlimit:22.92560005;stroke-dasharray:none;stroke-opacity:1"
     id="path904"
     inkscape:connector-curvature="0" />
  <path
     d="m 50.10667,19.539757 q 0,-0.926155 0.646551,-1.448856 0.646567,-0.525241 1.669179,-0.525241 0.669657,0 1.207352,0.24613 0.537695,0.246122 0.818092,0.687627 0.283696,0.438973 0.283696,0.997202 0,0.565839 -0.296895,1.012414 -0.296886,0.446583 -0.841181,0.677485 -0.544294,0.228371 -1.174363,0.228371 -0.682839,0 -1.220534,-0.253741 -0.537704,-0.25374 -0.814801,-0.692713 Q 50.10667,20.02947 50.10667,19.539757 Z m 0.659749,0.0073 q 0,0.672406 0.468427,1.060631 0.471719,0.385686 1.180963,0.385686 0.722426,0 1.187546,-0.390764 0.468435,-0.390757 0.468435,-1.10884 0,-0.454194 -0.201229,-0.79167 -0.19793,-0.340009 -0.583882,-0.525241 -0.382653,-0.187764 -0.860979,-0.187764 -0.679539,0 -1.171064,0.360307 -0.488217,0.357776 -0.488217,1.197655 z"
     style="font-style:normal;font-variant:normal;font-weight:normal;font-stretch:normal;font-size:25.39999962px;line-height:1.25;font-family:Arial;-inkscape-font-specification:Arial;text-align:center;text-anchor:middle;fill:#1383b5;fill-opacity:1;stroke:none;stroke-width:1.05833328;stroke-linecap:butt;stroke-linejoin:miter;stroke-miterlimit:22.92560005;stroke-dasharray:none;stroke-opacity:1"
     id="path906"
     inkscape:connector-curvature="0" />
  <path
     d="m 63.711696,20.04723 0.633902,0.124334 q -0.199321,0.606438 -0.71886,0.926147 -0.51628,0.317178 -1.264545,0.317178 -0.774412,0 -1.26127,-0.243591 -0.483599,-0.24613 -0.738472,-0.710474 -0.251605,-0.464343 -0.251605,-0.997193 0,-0.58106 0.284278,-1.012423 0.287545,-0.433894 0.813619,-0.657186 0.529349,-0.225823 1.163252,-0.225823 0.718859,0 1.209001,0.28419 0.490126,0.284181 0.682912,0.799272 l -0.624101,0.114185 q -0.166639,-0.405984 -0.483599,-0.591217 -0.316951,-0.185225 -0.797283,-0.185225 -0.552212,0 -0.924723,0.205532 -0.369228,0.205524 -0.519531,0.55315 -0.150311,0.345087 -0.150311,0.713005 0,0.474493 0.176449,0.829729 0.179709,0.352698 0.55548,0.527781 0.37577,0.175082 0.813619,0.175082 0.532616,0 0.901844,-0.23852 0.369244,-0.238512 0.499944,-0.707933 z"
     style="font-style:normal;font-variant:normal;font-weight:normal;font-stretch:normal;font-size:25.39999962px;line-height:1.25;font-family:Arial;-inkscape-font-specification:Arial;text-align:center;text-anchor:middle;fill:#1383b5;fill-opacity:1;stroke:none;stroke-width:1.05833328;stroke-linecap:butt;stroke-linejoin:miter;stroke-miterlimit:22.92560005;stroke-dasharray:none;stroke-opacity:1"
     id="path910"
     inkscape:connector-curvature="0" />
  <path
     d="m 65.355133,21.399215 v -3.719823 h 0.656782 v 3.719823 z"
     style="font-style:normal;font-variant:normal;font-weight:normal;font-stretch:normal;font-size:25.39999962px;line-height:1.25;font-family:Arial;-inkscape-font-specification:Arial;text-align:center;text-anchor:middle;fill:#1383b5;fill-opacity:1;stroke:none;stroke-width:1.05833328;stroke-linecap:butt;stroke-linejoin:miter;stroke-miterlimit:22.92560005;stroke-dasharray:none;stroke-opacity:1"
     id="path912"
     inkscape:connector-curvature="0" />
  <path
     inkscape:connector-curvature="0"
     id="path923"
     style="font-style:normal;font-variant:normal;font-weight:normal;font-stretch:normal;font-size:25.39999962px;line-height:1.25;font-family:Arial;-inkscape-font-specification:Arial;text-align:center;text-anchor:middle;fill:#1383b5;fill-opacity:1;stroke:none;stroke-width:1.05833328;stroke-linecap:butt;stroke-linejoin:miter;stroke-miterlimit:22.92560005;stroke-dasharray:none;stroke-opacity:1"
     d="m 57.137104,21.351451 -1.997348,-3.719823 h 0.738456 l 1.339766,2.70233 q 0.161755,0.324788 0.270764,0.608969 0.119563,-0.30448 0.277809,-0.608969 l 1.392511,-2.70233 h 0.696256 l -2.018448,3.719823 z" />
</svg>
