<?xml version="1.0" encoding="UTF-8" standalone="no"?>
<!-- Created with Inkscape (http://www.inkscape.org/) -->

<svg
   xmlns:dc="http://purl.org/dc/elements/1.1/"
   xmlns:cc="http://creativecommons.org/ns#"
   xmlns:rdf="http://www.w3.org/1999/02/22-rdf-syntax-ns#"
   xmlns:svg="http://www.w3.org/2000/svg"
   xmlns="http://www.w3.org/2000/svg"
   xmlns:sodipodi="http://sodipodi.sourceforge.net/DTD/sodipodi-0.dtd"
   xmlns:inkscape="http://www.inkscape.org/namespaces/inkscape"
   version="1.1"
   id="svg2"
   xml:space="preserve"
   width="793.70667"
   height="1122.52"
   viewBox="0 0 793.70667 1122.52"
   sodipodi:docname="hnk gorica.svg"
   inkscape:version="0.92.5 (2060ec1f9f, 2020-04-08)"><metadata
     id="metadata8"><rdf:RDF><cc:Work
         rdf:about=""><dc:format>image/svg+xml</dc:format><dc:type
           rdf:resource="http://purl.org/dc/dcmitype/StillImage" /></cc:Work></rdf:RDF></metadata><defs
     id="defs6"><clipPath
       clipPathUnits="userSpaceOnUse"
       id="clipPath18"><path
         d="M 0,841.89 H 595.28 V 0 H 0 Z"
         id="path16"
         inkscape:connector-curvature="0" /></clipPath></defs><sodipodi:namedview
     pagecolor="#ffffff"
     bordercolor="#666666"
     borderopacity="1"
     objecttolerance="10"
     gridtolerance="10"
     guidetolerance="10"
     inkscape:pageopacity="0"
     inkscape:pageshadow="2"
     inkscape:window-width="1920"
     inkscape:window-height="1001"
     id="namedview4"
     showgrid="false"
     inkscape:zoom="0.59465202"
     inkscape:cx="11.024895"
     inkscape:cy="590.91029"
     inkscape:window-x="-4"
     inkscape:window-y="-4"
     inkscape:window-maximized="1"
     inkscape:current-layer="g10" /><g
     id="g10"
     inkscape:groupmode="layer"
     inkscape:label="hnk_gorica"
     transform="matrix(1.3333333,0,0,-1.3333333,0,1122.52)"><g
       id="g12"><g
         id="g14"
         clip-path="url(#clipPath18)"><g
           id="g20"
           transform="translate(49.1912,277.2686)"><path
             d="m 0,0 c -38.782,112.265 35.154,122.244 56.594,117.224 -14.84,43.416 -21.059,86.214 -23.562,118.197 -3.751,47.925 2.292,105.966 2.292,105.966 0,0 27.726,-7.144 54.438,-6.752 41.667,0.628 43.538,8.963 68.081,21.795 30.606,15.82 60.336,24.333 88.402,24.332 23.304,0 55.736,-7.34 86.288,-23.608 4.408,-2.347 21.498,-12.876 28.268,-15.547 11.43,-4.509 25.486,-6.355 41.92,-7.027 20.766,-0.848 53.68,7.062 53.68,7.062 0,0 6.037,-59.067 2.108,-107.196 -3.503,-42.915 -11.479,-82.531 -23.342,-117.589 96.9,7.428 63.56,-102.796 56.53,-116.403 7.597,-2.949 32.658,0 42.864,-0.227 C 512.449,-56.132 490.819,-109.583 414.897,-150.282 319.295,-201.53 117.254,-219.767 8.165,-95.028 -13.61,-70.129 -28.724,-37.694 -41.277,0.227 -4.819,-1.871 0.068,-0.197 0,0"
             style="fill:#c78e3d;fill-opacity:1;fill-rule:nonzero;stroke:none"
             id="path22"
             inkscape:connector-curvature="0" /></g><g
           id="g24"
           transform="translate(295.4364,204.4666)"><path
             d="m 0,0 c -90.843,54.414 -131.265,117.578 -138.21,129.244 -0.294,0.494 -1.042,0.274 -1.042,-0.301 -0.006,-24.065 -21.746,-25.268 -21.746,-25.268 3.742,22.623 0.766,34.019 0.766,34.019 -13.608,-7.569 -32.999,-4.082 -32.999,-4.082 20.582,22.538 -0.255,35.721 -0.255,35.721 18.502,0 37.238,-15.306 43.16,-20.596 0.372,-0.331 0.915,0.102 0.683,0.543 -56.821,107.855 -42.993,240.244 -42.993,240.244 29.682,-4.507 61.051,-4.613 85.985,5.614 9.615,3.943 18.878,10.331 30.277,16.499 C -35.04,434.005 0,432.729 0,432.729 c 0,0 35.04,1.276 76.374,-21.092 11.399,-6.168 20.662,-12.556 30.277,-16.499 24.934,-10.227 55.878,-10.206 85.56,-5.699 0,0 12.473,-134.497 -43.082,-240.485 -0.22,-0.419 0.296,-0.831 0.649,-0.517 5.861,5.201 25.088,20.967 42.773,20.896 0,0 -19.221,-14.374 0.255,-35.721 0,0 -18.115,-2.977 -33.084,3.6 0,0 -2.977,-10.914 0.851,-32.857 0,0 -8.761,-2.551 -17.265,9.27 0,0 -5.026,6.41 -4.495,15.994 0.031,0.553 -0.693,0.785 -0.98,0.312 C 130.31,117.55 87.692,51.951 0,0"
             style="fill:#000000;fill-opacity:1;fill-rule:nonzero;stroke:none"
             id="path26"
             inkscape:connector-curvature="0" /></g><g
           id="g28"
           transform="translate(551.5088,255.2103)"><path
             d="m 0,0 c -9.345,-24.038 -26.229,-54.502 -47.022,-73.934 -49.478,-46.226 -125.532,-76.827 -208.88,-74.786 -88.438,2.166 -125.022,18.711 -173.5,47.171 -39.193,23.01 -67.954,59.565 -83.437,101.848 15.792,-1.347 26.964,3.579 57.466,32.986 11.567,-77.905 109.543,-123.267 198.75,-123.267 77.265,0 184.597,36.517 199.48,123.267 C -31.203,7.94 -18.36,-0.57 0,0"
             style="fill:#000000;fill-opacity:1;fill-rule:nonzero;stroke:none"
             id="path30"
             inkscape:connector-curvature="0" /></g><g
           id="g32"
           transform="translate(497.5128,374.4796)"><path
             d="m 0,0 c 0,0 34.076,0.085 34.076,-37.79 0,-35.494 -14.571,-61.916 -14.571,-61.916 0,0 -22.907,23.927 -31.015,23.134 -7.794,-0.763 -13.835,-2.495 -27.896,-17.464 -14.061,-14.968 -30.618,-41.731 -30.618,-41.731 0,0 -3.713,-7.796 -19.703,-9.071 0,0 -6.804,10.29 2.467,26.081 9.132,15.556 48.988,39.917 48.988,39.917 0,0 22.028,12.587 14.713,36.401 0,0 18.031,-0.936 26.621,2.041 0,0 -15.989,10.886 -15.706,23.7 0,0 0.057,8.788 12.644,16.698"
             style="fill:#000000;fill-opacity:1;fill-rule:nonzero;stroke:none"
             id="path34"
             inkscape:connector-curvature="0" /></g><g
           id="g36"
           transform="translate(444.0454,217.3941)"><path
             d="m 0,0 c 0,0 -15.932,3.232 -25.345,9.299 0,0 8.732,-1.361 18.995,17.463 C 4.437,46.548 32.432,79.333 45.133,74.333 45.133,74.333 45.362,35.834 0,0"
             style="fill:#000000;fill-opacity:1;fill-rule:nonzero;stroke:none"
             id="path38"
             inkscape:connector-curvature="0" /></g><g
           id="g40"
           transform="translate(93.2444,374.4796)"><path
             d="m 0,0 c 0,0 -34.076,0.085 -34.076,-37.79 0,-35.494 14.571,-61.916 14.571,-61.916 0,0 20.244,24.494 31.015,23.134 7.794,-0.763 13.835,-2.495 27.896,-17.464 14.061,-14.968 30.618,-41.731 30.618,-41.731 0,0 3.713,-7.796 19.703,-9.071 0,0 6.804,10.29 -2.467,26.081 -9.132,15.556 -48.988,39.917 -48.988,39.917 0,0 -22.028,12.587 -14.713,36.401 0,0 -18.031,-0.936 -26.621,2.041 0,0 15.989,10.886 15.706,23.7 0,0 -0.057,8.788 -12.644,16.698"
             style="fill:#000000;fill-opacity:1;fill-rule:nonzero;stroke:none"
             id="path42"
             inkscape:connector-curvature="0" /></g><g
           id="g44"
           transform="translate(146.7119,217.3941)"><path
             d="m 0,0 c 0,0 15.933,3.232 25.345,9.299 0,0 -8.732,-1.361 -18.995,17.463 -10.787,19.786 -38.782,52.571 -51.483,47.571 0,0 -0.229,-38.499 45.133,-74.333"
             style="fill:#000000;fill-opacity:1;fill-rule:nonzero;stroke:none"
             id="path46"
             inkscape:connector-curvature="0" /></g><g
           id="g48"
           transform="translate(295.4364,226.9196)"><path
             d="m 0,0 c -99.734,66.905 -130.805,135.228 -130.805,135.228 -27.216,54.148 -44.453,125.362 -42.355,208.625 5.46,-0.375 11.532,-0.969 16.684,-0.969 21.947,0 40.153,4.203 56.884,10.239 8.249,2.977 30.019,16.344 33.764,18.371 33.314,18.028 65.746,17.946 65.828,17.945 0,0 32.627,-0.03 65.941,-18.058 3.745,-2.027 25.085,-15.218 32.66,-18.325 16.456,-6.749 47.06,-12.18 73.418,-9.634 2.218,-84.646 -15.147,-156.555 -42.077,-208.16 C 129.942,135.262 96.899,62.369 0,0"
             style="fill:#d02422;fill-opacity:1;fill-rule:nonzero;stroke:none"
             id="path50"
             inkscape:connector-curvature="0" /></g><g
           id="g52"
           transform="translate(168.3869,663.4454)"><path
             d="m 0,0 9.539,-17.18 -19.16,-0.013 -10.546,-18.841 -11.342,18.82 -21.065,-0.02 10.546,17.472 -10.546,17.493 21.153,0.089 11.213,18.588 10.267,-18.493 20.018,0.081 z"
             style="fill:#c78e3d;fill-opacity:1;fill-rule:nonzero;stroke:none"
             id="path54"
             inkscape:connector-curvature="0" /></g><g
           id="g56"
           transform="translate(464.9899,663.4454)"><path
             d="m 0,0 9.539,-17.18 -19.16,-0.013 -10.546,-18.841 -11.342,18.82 -21.065,-0.02 10.546,17.472 -10.546,17.493 21.153,0.089 11.213,18.588 10.267,-18.493 20.018,0.081 z"
             style="fill:#c78e3d;fill-opacity:1;fill-rule:nonzero;stroke:none"
             id="path58"
             inkscape:connector-curvature="0" /></g><g
           id="g60"
           transform="translate(316.1237,712.8754)"><path
             d="m 0,0 9.539,-17.18 -19.16,-0.014 -10.546,-18.84 -11.342,18.82 -21.065,-0.02 10.546,17.472 -10.546,17.493 21.153,0.088 11.213,18.589 10.267,-18.493 20.018,0.081 z"
             style="fill:#c78e3d;fill-opacity:1;fill-rule:nonzero;stroke:none"
             id="path62"
             inkscape:connector-curvature="0" /></g><g
           id="g64"
           transform="translate(159.0042,191.1786)"><path
             d="m 0,0 -23.058,-37.054 -7.274,4.524 9.498,15.262 -13.533,8.423 -9.498,-15.261 -7.266,4.524 23.065,37.054 7.266,-4.524 -9.042,-14.527 13.533,-8.423 9.042,14.527 z"
             style="fill:#ffffff;fill-opacity:1;fill-rule:nonzero;stroke:none"
             id="path66"
             inkscape:connector-curvature="0" /></g><g
           id="g68"
           transform="translate(159.0042,191.1786)"><path
             d="m 0,0 -23.058,-37.054 -7.274,4.524 9.498,15.262 -13.533,8.423 -9.498,-15.261 -7.266,4.524 23.065,37.054 7.266,-4.524 -9.042,-14.527 13.533,-8.423 9.042,14.527 z"
             style="fill:none;stroke:#1d1d1b;stroke-width:1.41700006;stroke-linecap:butt;stroke-linejoin:miter;stroke-miterlimit:10;stroke-dasharray:none;stroke-opacity:1"
             id="path70"
             inkscape:connector-curvature="0" /></g><g
           id="g72"
           transform="translate(199.6236,173.6653)"><path
             d="m 0,0 -17.132,-40.64 -12.458,5.436 1.258,34.891 c 0.014,0.327 -0.435,0.429 -0.564,0.129 l -12.921,-29.685 -8.063,3.517 17.085,40.055 12.458,-5.205 -1.395,-34.836 c -0.013,-0.395 0.531,-0.517 0.687,-0.156 L -8.444,3.524 Z"
             style="fill:#ffffff;fill-opacity:1;fill-rule:nonzero;stroke:none"
             id="path74"
             inkscape:connector-curvature="0" /></g><g
           id="g76"
           transform="translate(199.6236,173.6653)"><path
             d="m 0,0 -17.132,-40.64 -12.458,5.436 1.258,34.891 c 0.014,0.327 -0.435,0.429 -0.564,0.129 l -12.921,-29.685 -8.063,3.517 17.085,40.055 12.458,-5.205 -1.395,-34.836 c -0.013,-0.395 0.531,-0.517 0.687,-0.156 L -8.444,3.524 Z"
             style="fill:none;stroke:#1d1d1b;stroke-width:1.41700006;stroke-linecap:butt;stroke-linejoin:miter;stroke-miterlimit:10;stroke-dasharray:none;stroke-opacity:1"
             id="path78"
             inkscape:connector-curvature="0" /></g><g
           id="g80"
           transform="translate(224.1654,143.626)"><path
             d="m 0,0 2.946,-24.031 -9.927,2.905 -1.769,18.404 -6.008,0.776 -4.524,-15.595 -8.614,2.518 12.165,41.926 8.607,-2.525 -5.28,-18.193 5.396,-0.694 12.063,15.315 9.839,-2.884 z"
             style="fill:#ffffff;fill-opacity:1;fill-rule:nonzero;stroke:none"
             id="path82"
             inkscape:connector-curvature="0" /></g><g
           id="g84"
           transform="translate(224.1654,143.626)"><path
             d="m 0,0 2.946,-24.031 -9.927,2.905 -1.769,18.404 -6.008,0.776 -4.524,-15.595 -8.614,2.518 12.165,41.926 8.607,-2.525 -5.28,-18.193 5.396,-0.694 12.063,15.315 9.839,-2.884 z"
             style="fill:none;stroke:#1d1d1b;stroke-width:1.41700006;stroke-linecap:butt;stroke-linejoin:miter;stroke-miterlimit:10;stroke-dasharray:none;stroke-opacity:1"
             id="path86"
             inkscape:connector-curvature="0" /></g><g
           id="g88"
           transform="translate(292.0405,155.1173)"><path
             d="m 0,0 c 0,0 -18.547,5.918 -25.691,1.042 0,0 -7.144,-3.289 -7.938,-17.691 -0.794,-14.401 1.588,-19.674 7.031,-23.36 5.443,-3.685 23.615,-1.899 23.615,-1.899 l 1.446,22.765 -12.474,0.793 -0.453,-7.938 3.742,-0.113 -0.227,-7.598 c 0,0 -9.299,-0.595 -11.907,2.609 0,0 -3.062,3.401 -1.928,13.834 1.134,10.433 5.784,11.567 5.784,11.567 0,0 4.082,1.587 18.484,-1.928 z"
             style="fill:#ffffff;fill-opacity:1;fill-rule:nonzero;stroke:none"
             id="path90"
             inkscape:connector-curvature="0" /></g><g
           id="g92"
           transform="translate(292.0405,155.1173)"><path
             d="m 0,0 c 0,0 -18.547,5.918 -25.691,1.042 0,0 -7.144,-3.289 -7.938,-17.691 -0.794,-14.401 1.588,-19.674 7.031,-23.36 5.443,-3.685 23.615,-1.899 23.615,-1.899 l 1.446,22.765 -12.474,0.793 -0.453,-7.938 3.742,-0.113 -0.227,-7.598 c 0,0 -9.299,-0.595 -11.907,2.609 0,0 -3.062,3.401 -1.928,13.834 1.134,10.433 5.784,11.567 5.784,11.567 0,0 4.082,1.587 18.484,-1.928 z"
             style="fill:none;stroke:#1d1d1b;stroke-width:1.41700006;stroke-linecap:butt;stroke-linejoin:miter;stroke-miterlimit:10;stroke-dasharray:none;stroke-opacity:1"
             id="path94"
             inkscape:connector-curvature="0" /></g><g
           id="g96"
           transform="translate(317.7193,121.2002)"><path
             d="m 0,0 c -5.688,-0.354 -8.675,1.96 -9.471,13.193 -0.959,13.472 4.559,14.873 8.11,14.88 4.593,0 8.512,-0.66 9.471,-15.268 C 8.505,6.892 8.138,0.517 0,0 M 17.35,13.411 C 15.935,34.809 6.579,37.34 -3.177,36.544 -14.377,35.632 -19.745,28.168 -18.711,12.58 -17.466,-6.205 -8.974,-9.362 2.041,-8.423 14.744,-7.341 18.146,1.395 17.35,13.411"
             style="fill:#ffffff;fill-opacity:1;fill-rule:nonzero;stroke:none"
             id="path98"
             inkscape:connector-curvature="0" /></g><g
           id="g100"
           transform="translate(317.7193,121.2002)"><path
             d="m 0,0 c -5.688,-0.354 -8.675,1.96 -9.471,13.193 -0.959,13.472 4.559,14.873 8.11,14.88 4.593,0 8.512,-0.66 9.471,-15.268 C 8.505,6.892 8.138,0.517 0,0 Z M 17.35,13.411 C 15.935,34.809 6.579,37.34 -3.177,36.544 -14.377,35.632 -19.745,28.168 -18.711,12.58 -17.466,-6.205 -8.974,-9.362 2.041,-8.423 14.744,-7.341 18.146,1.395 17.35,13.411 Z"
             style="fill:none;stroke:#1d1d1b;stroke-width:1.41700006;stroke-linecap:butt;stroke-linejoin:miter;stroke-miterlimit:10;stroke-dasharray:none;stroke-opacity:1"
             id="path102"
             inkscape:connector-curvature="0" /></g><g
           id="g104"
           transform="translate(360.55,142.6938)"><path
             d="m 0,0 -6.96,-1.572 -2.912,12.88 6.96,1.572 C 0.646,13.683 4.184,11.451 4.987,7.893 5.096,7.403 5.151,6.913 5.151,6.43 5.151,3.416 3.069,0.694 0,0 m 10.308,-3.388 c 5.97,6.817 3.381,14.583 3.381,14.583 -1.918,7.288 -7.191,12.051 -14.9,10.312 l -19.391,-4.382 9.6,-42.483 8.961,2.027 -3.089,13.683 7.6,1.715 7.886,-12.37 10.09,2.048 z"
             style="fill:#ffffff;fill-opacity:1;fill-rule:nonzero;stroke:none"
             id="path106"
             inkscape:connector-curvature="0" /></g><g
           id="g108"
           transform="translate(360.55,142.6938)"><path
             d="m 0,0 -6.96,-1.572 -2.912,12.88 6.96,1.572 C 0.646,13.683 4.184,11.451 4.987,7.893 5.096,7.403 5.151,6.913 5.151,6.43 5.151,3.416 3.069,0.694 0,0 Z m 10.308,-3.388 c 5.97,6.817 3.381,14.583 3.381,14.583 -1.918,7.288 -7.191,12.051 -14.9,10.312 l -19.391,-4.382 9.6,-42.483 8.961,2.027 -3.089,13.683 7.6,1.715 7.886,-12.37 10.09,2.048 z"
             style="fill:none;stroke:#1d1d1b;stroke-width:1.41700006;stroke-linecap:butt;stroke-linejoin:miter;stroke-miterlimit:10;stroke-dasharray:none;stroke-opacity:1"
             id="path110"
             inkscape:connector-curvature="0" /></g><g
           id="g112"
           transform="translate(401.0459,131.4287)"><path
             d="m 0,0 -8.549,-2.971 -14.405,41.454 8.55,2.971 z"
             style="fill:#ffffff;fill-opacity:1;fill-rule:nonzero;stroke:none"
             id="path114"
             inkscape:connector-curvature="0" /></g><g
           id="g116"
           transform="translate(401.0459,131.4287)"><path
             d="m 0,0 -8.549,-2.971 -14.405,41.454 8.55,2.971 z"
             style="fill:none;stroke:#1d1d1b;stroke-width:1.41700006;stroke-linecap:butt;stroke-linejoin:miter;stroke-miterlimit:10;stroke-dasharray:none;stroke-opacity:1"
             id="path118"
             inkscape:connector-curvature="0" /></g><g
           id="g120"
           transform="translate(421.3657,186.9465)"><path
             d="m 0,0 c 0,0 -16.273,-2.268 -20.865,-10.886 0,0 -3.856,-4.99 2.268,-19.221 5.788,-13.452 10.546,-17.01 15.932,-17.35 8.269,-0.523 20.188,9.661 20.188,9.661 l -3.915,7.178 c 0,0 -11.17,-8.334 -15.319,-7.067 0,0 -3.959,0.83 -7.871,10.186 -1.85,4.422 -2.576,7.578 -2.832,9.665 -0.272,2.209 0.803,4.361 2.727,5.48 2.175,1.264 6.02,2.933 12.749,4.643 z"
             style="fill:#ffffff;fill-opacity:1;fill-rule:nonzero;stroke:none"
             id="path122"
             inkscape:connector-curvature="0" /></g><g
           id="g124"
           transform="translate(421.3657,186.9465)"><path
             d="m 0,0 c 0,0 -16.273,-2.268 -20.865,-10.886 0,0 -3.856,-4.99 2.268,-19.221 5.788,-13.452 10.546,-17.01 15.932,-17.35 8.269,-0.523 20.188,9.661 20.188,9.661 l -3.915,7.178 c 0,0 -11.17,-8.334 -15.319,-7.067 0,0 -3.959,0.83 -7.871,10.186 -1.85,4.422 -2.576,7.578 -2.832,9.665 -0.272,2.209 0.803,4.361 2.727,5.48 2.175,1.264 6.02,2.933 12.749,4.643 z"
             style="fill:none;stroke:#1d1d1b;stroke-width:1.41700006;stroke-linecap:butt;stroke-linejoin:miter;stroke-miterlimit:10;stroke-dasharray:none;stroke-opacity:1"
             id="path126"
             inkscape:connector-curvature="0" /></g><g
           id="g128"
           transform="translate(449.7561,172.4474)"><path
             d="M 0,0 -6.892,18.826 -4.599,20.282 9.158,5.777 Z m -2.878,31.114 -14.397,-8.96 15.193,-42.409 7.702,4.892 -2.585,7.055 12.185,7.689 5.11,-5.389 8.036,5.11 z"
             style="fill:#ffffff;fill-opacity:1;fill-rule:nonzero;stroke:none"
             id="path130"
             inkscape:connector-curvature="0" /></g><g
           id="g132"
           transform="translate(449.7561,172.4474)"><path
             d="M 0,0 -6.892,18.826 -4.599,20.282 9.158,5.777 Z m -2.878,31.114 -14.397,-8.96 15.193,-42.409 7.702,4.892 -2.585,7.055 12.185,7.689 5.11,-5.389 8.036,5.11 z"
             style="fill:none;stroke:#1d1d1b;stroke-width:1.41700006;stroke-linecap:butt;stroke-linejoin:miter;stroke-miterlimit:10;stroke-dasharray:none;stroke-opacity:1"
             id="path134"
             inkscape:connector-curvature="0" /></g><g
           id="g136"
           transform="translate(275.3104,455.3068)"><path
             d="m 0,0 c 0,0 -10.097,-9.301 -11.342,-8.961 -1.245,0.34 -7.369,-1.701 -11.921,-5.878 -4.259,-3.906 -13.369,-9.261 -13.369,-9.261 -6.233,-4.538 -11.621,-3.912 -15.588,-4.252 -3.974,-0.34 -7.09,-3.286 -7.09,-3.286 -0.299,0.537 -0.714,1.068 -1.218,1.592 15.928,6.586 27.529,22.024 27.529,40.021 0,11.627 -4.07,20.825 -11.223,28.598 l 1.916,-0.127 c 1.973,-1.382 7.735,-9.019 9.416,-11.176 0.272,-0.347 0.558,-0.674 0.871,-0.98 5.987,-5.824 14.322,-8.96 19.656,-10.587 2.137,-0.646 4.45,-1.564 6.09,-2.422 1.524,-0.796 2.939,-1.796 4.157,-3.014 C 0.169,7.973 2.985,5.834 4.678,4.617 5.299,4.171 5.229,3.231 4.551,2.878 2.483,1.801 0,0 0,0 m -58.425,51.485 c 0.19,-1.014 0.462,-1.952 0.782,-2.803 -1.728,0.864 -3.511,1.613 -5.348,2.245 2.661,0.062 4.566,0.558 4.566,0.558 m 228.089,18.052 c -5.443,-8.3 -13.582,-8.22 -15.48,-8.295 -0.47,-0.02 -0.939,-0.048 -1.409,-0.082 -15.281,-1.136 -28.964,-0.979 -34.36,-1.19 -2.497,-0.095 -4.987,-0.456 -7.361,-1.218 -17.085,-5.457 -26.726,-25.44 -24.876,-45.6 0.769,-8.382 4.437,-17.044 8.199,-25.175 6.103,-13.199 13.254,-24.603 14.595,-28.12 3.633,-9.526 3.109,-14.207 -4.137,-24.726 -6.716,-9.736 -16.928,-4.096 -16.928,-4.096 0.075,0.327 0.333,3.198 1.109,22.358 1.02,25.175 -3.627,36.741 -3.627,36.741 5.443,11.791 -3.517,24.835 -3.517,24.835 0,0 3.66,22.357 0.51,35.489 C 79.66,61.8 62.821,77.224 62.821,77.224 c 0.282,1.586 0.08,3.066 -0.193,4.151 -0.183,0.731 0.487,1.394 1.221,1.221 9.727,-2.295 19.513,4.923 19.513,4.923 -3.574,19.612 -24.153,14.738 -24.153,14.738 l -0.586,2.748 c 5.899,17.35 -12.727,20.667 -12.727,20.667 0,0 -17.62,4.077 -23.644,11.439 -3.062,3.742 -1.631,10.025 -0.297,12.162 0.694,1.102 1.512,2.148 1.546,3.448 0.067,2.391 -1.166,3.154 -2.29,3.357 -0.962,0.173 -1.953,-0.074 -2.773,-0.606 -1.95,-1.262 -6.16,-4.895 -7.443,-13.27 -1.875,-12.243 20.562,-24.491 21.208,-24.865 l -20.157,4.678 c -0.721,0.183 -1.578,0.485 -2.636,0.765 -3.683,0.974 -18.099,4.018 -22.242,14.19 -1.586,3.885 -1.946,6.974 -3.062,8.668 -1.293,1.973 -4.348,1.463 -4.967,-0.81 -0.313,-1.143 -0.537,-2.272 -0.687,-3.136 -1.721,-9.839 6.688,-20.814 6.688,-20.814 7.995,-12.866 31.244,-17.86 31.244,-17.86 -3.627,-1.925 -4.028,-3.456 -7.995,-6.974 -3.966,-3.511 -12.587,-9.75 -16.329,-9.185 -3.742,0.571 -6.92,-0.619 -8.165,-7.253 -1.354,-7.192 4.137,-8.505 4.137,-8.505 1.701,-9.757 13.043,-9.811 15.765,-7.995 2.721,1.81 3.708,-0.973 3.708,-0.973 2.497,-8.613 17.669,-8.498 17.669,-8.498 l 1.13,-1.136 C 21.881,47.736 12.016,31.638 12.016,31.638 c 0,0 -2.776,0.681 -10.376,2.606 -7.593,1.926 -10.09,6.92 -14.288,9.41 -3.096,1.844 -8.635,3.007 -10.846,2.939 -0.782,-0.02 -1.551,0.061 -2.313,0.245 -2.082,0.504 -6.103,1.64 -7.988,3.28 -2.606,2.272 -3.967,6.579 -3.967,6.579 -2.272,6.464 -8.28,4.987 -8.28,4.987 -2.041,1.701 -6.11,1.143 -6.11,1.143 -1.871,12.812 -21.637,8.226 -21.637,8.226 l -5.136,-7.436 c 1.061,-5.559 3.687,-8.757 6.729,-10.553 -1.769,0.217 -3.559,0.326 -5.369,0.326 -23.977,0 -42.864,-19.438 -42.864,-43.415 0,-22.896 17.22,-41.647 39.653,-43.287 -3.273,-3.545 -6.586,-7.144 -8.355,-9.104 13.274,-15.342 32.087,-3.742 32.087,-3.742 0,0 2.041,-1.469 4.878,-1.361 2.838,0.116 5.729,1.674 8.335,4.28 2.606,2.613 9.58,4.797 9.58,4.797 10.546,3.626 22.793,2.49 22.793,2.49 11.512,10.492 26.651,14.629 26.651,14.629 2.64,-7.451 9.471,-11.275 13.526,-15.364 0.105,-0.106 0.199,-0.209 0.283,-0.309 0.532,-0.635 -0.208,-1.554 -0.948,-1.182 -3.729,1.877 -8.981,2.83 -12.772,3.015 -3.253,0.164 -6.519,-0.041 -9.716,-0.646 -19.085,-3.633 -22.623,-14.982 -22.093,-25.624 0.565,-11.457 5.75,-18.853 5.75,-18.853 0.115,-6.124 5.334,-12.819 5.334,-12.819 -1.817,0.912 -7.825,7.035 -9.417,8.396 -1.585,1.361 -6.348,6.233 -13.152,7.709 -6.804,1.477 -13.267,-7.144 -13.267,-7.144 -10.717,2.123 -20.725,-11.499 -20.725,-11.499 6.123,-8.505 18.228,-11.893 23.106,-9.852 4.878,2.041 5.327,9.22 5.327,9.22 2.953,-0.797 5.267,-4.239 5.267,-4.239 0,0 -0.402,-1.735 2.436,-3.205 2.83,-1.476 5.681,-0.497 5.681,-0.497 13.832,-18.146 30.958,-25.855 37.986,-19.051 7.035,6.804 2.953,23.698 2.953,23.698 l 4.416,5.77 c -0.041,-0.252 -0.592,-3.545 0.061,-12.798 0.68,-9.641 9.471,-11.342 9.471,-11.342 0,0 -0.714,-5.586 1.667,-12.05 1.878,-5.082 9.219,-11.009 12.451,-13.37 0.783,-0.564 0.987,-1.646 0.476,-2.463 -7.953,-12.845 -7.11,-22.01 -7.11,-22.01 -2.272,-1.245 -8.396,-4.763 -10.886,-8.73 -2.497,-3.973 -1.647,-11.512 -1.647,-11.512 -11.736,-1.191 -14.288,-19.731 -14.288,-19.731 4.198,-1.477 6.389,-1.075 6.389,-1.075 l 0.585,-1.361 c 14.744,-2.273 18.881,5.838 18.881,5.838 1.245,5.443 -0.428,9.695 -0.428,9.695 1.762,7.682 11.187,6.039 11.187,6.039 -0.225,20.636 20.594,33.989 20.594,33.989 l 0.626,13.124 c 0.381,1.447 0.562,2.88 0.631,4.165 0.132,2.454 -0.391,4.878 -1.335,7.146 -1.305,3.137 -1.453,6.023 -1.188,8.312 0.272,2.32 1.177,4.525 2.606,6.368 0.98,1.259 2.722,3.77 5.695,8.743 5.552,9.295 6.464,23.814 6.464,23.814 0,0 5.021,-4.082 19.615,0.905 13.948,4.763 19.276,14.513 21.092,26.651 1.817,12.131 -4.082,24.834 -11.791,39.347 -6.13,11.54 -12.648,28.304 -14.921,34.714 -0.605,1.714 -0.83,3.538 -0.66,5.348 0.164,1.735 0.715,3.871 0.837,4.844 0.225,1.817 3.457,7.26 5.219,9.07 1.279,1.326 5.552,1.816 4.871,-2.382 -0.68,-4.191 -6.007,-9.75 -6.007,-9.75 9.811,-2.157 14.791,-0.279 19.214,4.144 4.422,4.422 -0.728,14.683 -0.728,14.683 3.966,-2.273 4.531,-7.09 4.531,-7.09 0.796,-9.015 -8.091,-17.605 -8.091,-17.605 17.635,-0.055 22.672,6.821 24.761,12.107 2.177,5.491 -0.422,10.424 -2.089,12.799 -0.361,0.51 0.102,1.183 0.714,1.054 13.622,-2.857 22.841,2.307 25.774,5.505 1.156,1.265 1.696,2.582 2.082,4.259 2.041,8.884 -0.829,13.942 -0.829,13.942"
             style="fill:#000000;fill-opacity:1;fill-rule:nonzero;stroke:none"
             id="path138"
             inkscape:connector-curvature="0" /></g><g
           id="g140"
           transform="translate(335.4095,335.3264)"><path
             d="M 0,0 C -0.225,-3.851 0.565,-8.274 2.946,-13.832 5.327,-19.391 5.899,-27.665 5.899,-27.665 -3.177,-33.904 -7.6,-47.056 -7.6,-47.056 c 1.32,11.05 5.511,17.2 7.974,19.942 1.028,1.143 1.327,2.77 0.721,4.185 -3.476,8.212 -5.579,19.405 -4.198,26.188 1.824,8.974 9.73,14.098 9.73,14.098 C 3.565,12.934 0.225,3.858 0,0 m -0.225,211.153 c 0,0 4.423,0.789 4.763,4.987 0,0 2.041,-1.361 4.532,-1.245 2.497,0.109 7.375,-4.654 7.375,-4.654 0,0 -7.43,-4.348 -14.064,-2.721 0,0 -1.02,1.122 -3.286,1.129 0,0 -0.571,2.048 0.68,2.504 M -56.813,102.515 c -6.804,-4.988 -18.03,-13.492 -18.03,-13.492 0,0 -8.961,-0.341 -15.765,0 0,0 10.097,1.245 14.86,3.286 4.763,2.041 12.247,9.865 16.894,12.247 4.647,2.381 10.206,4.987 18.881,0.565 0,0 -10.036,2.381 -16.84,-2.606 m 41.389,114.87 c 0,0 -2.151,-0.109 -3.967,0.456 -1.817,0.565 -10.886,2.381 -14.969,-6.348 0,0 -4.422,1.926 -6.293,1.245 -1.871,-0.68 -3.572,-0.565 -7.77,-4.198 -4.192,-3.626 -7.709,-4.871 -13.152,-5.103 0,0 6.579,3.293 8.504,4.763 1.926,1.476 6.199,3.273 10.887,9.757 0,0 4.878,5.443 10.206,8.049 0,0 -15.86,1.136 -25.501,7.253 0.693,-0.184 25.698,-6.961 31.624,-2.035 0,0 5.559,-11.457 17.806,-7.824 0,0 -1.592,-4.994 -7.375,-6.015 m -10.091,-9.75 c 0,0 -1.245,-0.796 0.456,-1.476 1.701,-0.681 6.008,0.796 7.709,2.381 0,0 -1.061,-3.864 -6.083,-3.851 -5.014,0.014 -6.674,4.858 -6.674,4.858 0,0 -0.81,-0.619 -0.851,-4.858 0,0 -4.307,3.048 -0.456,6.906 0,0 2.157,2.164 5.103,2.048 0,0 1.477,1.252 5.103,0.68 0,0 1.558,0.152 2.514,0.57 0.371,0.162 0.8,0.091 1.086,-0.196 l 0.962,-0.962 c 0.511,-0.511 0.515,-1.331 0.016,-1.853 -1.613,-1.689 -5.247,-4.921 -8.885,-4.247 m -6.994,38.762 c 10.532,-3.504 18.677,-8.6 18.677,-8.6 0,0 4.647,-2.15 2.265,-7.028 -2.381,-4.879 -7.824,0 -7.824,0 4.538,3.857 1.925,4.306 0.469,6.742 -1.422,2.354 -12.88,8.505 -13.587,8.886 M 106.25,182.794 c -5.219,-4.075 -18.507,-4.899 -20.521,-5.001 -0.156,-0.007 -0.313,-0.007 -0.476,0 -2.266,0.075 -21.602,0.647 -31.761,-1.116 C 42.695,174.806 36.483,164.09 34.7,161.627 32.917,159.157 22.398,144.168 33.938,116.544 46.226,87.124 49.199,87.376 51.88,79.98 55.942,68.76 52.812,60.888 44.389,51.193 35.972,41.497 23.555,50.635 23.555,50.635 c 1.538,9.865 0.98,29.427 0.98,29.427 0.088,27.515 -4.382,29.767 -4.382,29.767 4.906,9.743 2.422,18.214 0.327,22.235 -1.014,1.932 -1.381,4.123 -1,6.267 1.68,9.43 2.517,25.276 -0.769,34.005 C 14.969,182.291 0.51,195.898 0.51,195.898 0.762,199.13 0,200.28 0,200.28 l -0.299,3.872 0.653,0.986 c 0.245,0.374 0.701,0.538 1.136,0.429 9.927,-2.47 19.003,2.96 19.003,2.96 -4.048,13.396 -23.344,9.614 -23.344,9.614 -0.081,2.463 -2.599,5.905 -2.599,5.905 0.429,0.313 0.762,0.83 1.014,1.361 0.456,0.966 0.633,2.041 0.558,3.109 -0.272,3.879 -1.572,6.294 -1.572,6.294 -2.551,5.906 -14.54,9.485 -14.54,9.485 0,0 -11.73,4.762 -17.01,8.505 -5.266,3.742 -5.633,9.6 -4.926,12.587 0.422,1.789 1.803,4.769 2.871,6.919 0.402,0.817 -0.585,1.62 -1.292,1.041 -3.429,-2.782 -5.974,-7.872 -6.389,-11.58 -0.51,-4.592 4.974,-13.819 15.778,-19.35 7.022,-3.586 9.995,-6.355 11.22,-7.852 0.435,-0.531 0.081,-1.333 -0.599,-1.381 -2.34,-0.163 -5.008,0.061 -15.724,1.408 -12.846,1.62 -29.406,9.417 -33.598,12.676 -4.218,3.28 -6.354,11.097 -7.926,15.404 -0.238,0.653 -1.204,0.572 -1.32,-0.116 -1.034,-6.375 2.361,-13.499 2.361,-13.499 6.382,-13.015 15.479,-17.098 21.943,-19.989 6.463,-2.892 17.941,-4.164 17.941,-4.164 0,0 -7.906,-4.26 -9.607,-6.981 -1.701,-2.722 -8.423,-7.736 -8.423,-7.736 -2.545,-2.974 -10.546,-5.784 -11.567,-5.784 -0.53,0 -1.66,-0.068 -2.537,0.109 -1.293,0.259 -2.654,-0.013 -3.661,-0.864 -1.606,-1.354 -0.429,-2.606 -0.429,-2.606 0,0 5.015,1.572 8.165,-0.381 3.144,-1.953 0.681,-2.891 0.681,-2.891 -3.661,0.299 -3.491,-1.552 -3.491,-1.552 0.51,-1.51 2.933,-1.469 2.933,-1.469 0.68,-1.191 3.442,-0.722 3.442,-0.722 l 1.62,0.892 c 0,0 1.279,1.912 2.123,1.068 0.401,-0.401 0.324,-1.205 0.045,-1.885 -0.333,-0.817 -0.773,-1.425 -1.637,-1.595 -0.585,-0.116 -1.361,-0.553 -1.13,-1.031 0.66,-1.371 2.084,-0.478 2.084,-0.478 0.53,0.353 1.225,0.677 2.049,0.888 1.68,0.422 3.671,0.338 5.297,-0.254 1.334,-0.476 2.436,-1.306 1.545,-2.708 -1.116,-1.748 -3.055,-0.326 -4.362,0.994 -0.823,0.837 -2.116,0.98 -3.075,0.313 l -0.048,-0.027 c -0.258,-0.184 -0.639,-0.368 -1.075,-0.552 -1.85,-0.775 -4,-0.265 -5.32,1.246 -1.13,1.299 -2.198,2.367 -2.198,2.367 h -3.313 c -0.681,-0.68 -0.769,-2.381 -0.429,-4.082 0.34,-1.701 2.47,-3.239 6.042,-4.763 2.197,-0.946 5.273,0.531 7.307,1.803 1.198,0.756 2.783,0.497 3.681,-0.598 4.613,-5.627 9.253,-5.791 9.253,-5.791 12.758,-1.496 22.623,12.152 22.623,12.152 -1.442,-11.308 -14.118,-14.029 -14.118,-14.029 18.146,-11.268 31.564,8.028 31.883,8.498 -3.143,-9.519 -7.974,-12.982 -11.723,-14.459 -4.939,-1.932 -16.588,0.517 -16.588,0.517 -4.504,-5.191 -15.05,-23.051 -18.37,-32.577 -3.321,-9.525 -1.191,-12.669 -1.191,-12.669 3.232,1.701 6.709,8.505 8.308,11.274 0.775,1.341 1.898,2.457 3.293,3.123 2.762,1.32 4.388,0.055 4.388,0.055 -2.81,-1.184 -8.933,-9.607 -9.437,-10.628 -0.517,-1.02 -1.959,-3.32 -1.959,-3.32 -2.722,-2.803 -13.268,-10.288 -13.268,-10.288 -2.463,-2.891 -11.907,-9.103 -11.907,-9.103 -2.463,0.68 -13.186,-5.865 -16.839,-9.526 -3.654,-3.654 -12.159,-7.144 -13.948,-7.988 -1.79,-0.857 -8.417,-2.469 -11.139,-2.299 -2.721,0.17 -5.361,-1.62 -5.62,-5.525 -0.251,-3.919 2.722,-7.743 6.212,-7.913 2.783,-0.136 8.118,4.116 10.152,5.838 0.578,0.49 1.211,0.898 1.891,1.224 4.573,2.184 9.533,3.436 14.588,3.668 l 12.744,0.585 c 4.599,4.164 20.5,13.349 27.733,14.968 7.225,1.613 22.112,1.783 22.112,1.783 l 8.927,9.784 -6.294,-13.186 c -10.886,1.279 -20.411,-0.939 -20.411,-0.939 1.612,-4.844 12.158,-14.37 12.158,-14.37 0,0 9.362,-7.994 10.886,-18.629 1.538,-10.628 -10.709,-27.216 -12.498,-31.039 -1.79,-3.824 -3.994,-13.268 -2.13,-22.113 1.878,-8.845 9.866,-8.165 9.866,-8.165 0,0 -0.762,-8.164 1.449,-14.029 2.211,-5.872 8.505,-9.526 11.056,-11.826 2.552,-2.299 0.851,-5.524 0.851,-5.524 -7.233,-11.567 -6.634,-22.63 -6.634,-22.63 0,0 -8.845,-5.103 -10.805,-8.165 -1.952,-3.062 -1.442,-11.907 -1.442,-11.907 l 6.634,-3.062 c 1.789,6.723 10.927,6.172 10.927,6.172 0.088,17.35 20.201,33.631 20.201,33.631 0.85,3.919 0.17,13.867 0.17,13.867 -0.681,1.02 -0.851,2.299 -0.851,2.299 0,0 -3.402,6.287 -3.572,12.411 -0.17,6.123 3.742,11.655 3.742,11.655 0,0 2.511,2.511 6.593,10.076 4.083,7.573 5.995,20.684 5.995,20.684 -7.396,5.239 -4.593,9.812 -4.593,9.812 6.124,-12.336 18.452,-10.975 26.454,-7.485 10.968,4.164 20.493,16.418 18.622,30.189 -1.871,13.785 -4.205,20.327 -12.304,35.211 -8.391,15.422 -10.918,24.916 -12.36,30.699 -0.694,2.79 -0.796,5.824 -0.531,8.838 0.299,3.416 1.313,6.729 2.994,9.709 l 0.98,1.735 c 0.68,1.211 1.544,2.327 2.605,3.225 1.776,1.511 4.511,2.844 7.39,0.565 4.932,-3.912 -2.042,-13.267 -2.042,-13.267 7.144,0.081 12.159,2.041 12.159,9.784 0,8.43 -8.587,11.226 -8.587,11.226 16.718,0.429 18.453,-9.063 16.969,-15.697 -0.884,-3.932 -3.197,-7.566 -4.579,-9.477 -0.347,-0.484 0.102,-1.144 0.681,-0.994 4.429,1.143 7.865,2.926 9.763,4.987 10.805,11.737 -4.463,24.324 -4.463,24.324 5.613,-2.211 8.763,-4.164 22.283,-3.402 9.641,0.545 13.036,8.975 14.186,13.772 0.19,0.768 -0.694,1.34 -1.32,0.85"
             style="fill:#ffffff;fill-opacity:1;fill-rule:nonzero;stroke:none"
             id="path142"
             inkscape:connector-curvature="0" /></g><g
           id="g144"
           transform="translate(310.235,546.5337)"><path
             d="m 0,0 c 0,0 -1.417,-0.397 -1.191,-1.701 0.227,-1.304 1.701,-0.454 1.701,-0.454 0,0 1.815,1.517 2.268,2.545 C 3.232,1.417 2.495,2.778 1.417,2.325 0.34,1.871 -0.17,0.85 0,0"
             style="fill:#ffffff;fill-opacity:1;fill-rule:nonzero;stroke:none"
             id="path146"
             inkscape:connector-curvature="0" /></g><g
           id="g148"
           transform="translate(216.5677,509.6224)"><path
             d="m 0,0 c 0,0 -12.587,-6.124 -17.237,7.938 l 2.042,1.247 c 0,0 2.381,0.227 2.721,0.454 0,0 7.825,1.02 9.299,-0.454 0,0 0.907,2.835 -5.443,2.268 l -6.351,-0.567 2.042,3.629 c 0,0 16.556,4.57 17.123,-7.921 z"
             style="fill:#ffffff;fill-opacity:1;fill-rule:nonzero;stroke:none"
             id="path150"
             inkscape:connector-curvature="0" /></g><g
           id="g152"
           transform="translate(260.5663,478.0999)"><path
             d="m 0,0 c -6.348,0.565 -14.853,6.464 -17.234,12.472 0,0 5.327,-5.668 9.75,-7.26 C -3.062,3.626 6.042,1.755 10.9,-3.647 10.9,-3.647 6.348,-0.572 0,0 M 25.515,6.913 C 21.548,6.688 12.131,10.09 9.525,11.451 6.92,12.812 3.177,17.119 0.34,19.16 c -2.837,2.041 -10.886,2.041 -10.886,2.041 0,0 -5.328,0.572 -8.505,2.953 -3.177,2.381 -4.763,4.987 -6.464,9.07 -1.701,4.082 -6.008,2.946 -6.008,2.946 -1.592,1.36 -5.783,1.36 -5.783,1.36 l -4.422,-7.334 3.17,-6.042 c 1.021,0.109 4.994,-3.518 4.994,-3.518 7.825,-0.68 10.431,-6.348 17.459,-14.404 7.035,-8.049 19.507,-10.886 21.432,-11.451 1.933,-0.564 8.621,-3.742 10.662,-6.688 2.041,-2.953 3.287,-2.613 3.287,-2.613 -1.586,6.464 6.239,21.433 6.239,21.433"
             style="fill:#ffffff;fill-opacity:1;fill-rule:nonzero;stroke:none"
             id="path154"
             inkscape:connector-curvature="0" /></g><g
           id="g156"
           transform="translate(214.3847,421.6818)"><path
             d="m 0,0 c 0,0 -1.026,-6.513 1.582,-11.163 0,0 -10.767,-7.293 -24.574,1.014 l 4.196,4.309 c 0,0 7.484,-4.111 13.523,-0.964 0,0 -8.25,-0.34 -13.636,3.572 l 2.721,3.289 c 0,0 8.22,-0.566 12.983,1.362 z"
             style="fill:#ffffff;fill-opacity:1;fill-rule:nonzero;stroke:none"
             id="path158"
             inkscape:connector-curvature="0" /></g><g
           id="g160"
           transform="translate(219.0624,361.8923)"><path
             d="m 0,0 c 0,0 7.399,9.355 14.969,6.719 0,0 2.891,-4.508 5.613,-7.74 0,0 -0.255,-5.528 -4.253,-9.185 0,0 -6.151,-1.681 -14.118,3.147 0,0 5.018,8.76 9.696,8.76 0,0 -4.338,0.85 -9.1,-4.167 z"
             style="fill:#ffffff;fill-opacity:1;fill-rule:nonzero;stroke:none"
             id="path162"
             inkscape:connector-curvature="0" /></g><g
           id="g164"
           transform="translate(301.7029,377.3406)"><path
             d="m 0,0 c -2.177,-4.395 -6.586,-11.601 -14.601,-18.765 0,0 1.959,-14.547 -1.531,-18.031 -3.49,-3.483 -7.995,0.422 -7.995,0.422 0,0 -9.035,5.552 -14.553,11.485 -0.32,0.347 0.129,0.851 0.503,0.579 2.47,-1.81 6.484,-4.103 12.519,-5.852 0,0 6.804,-4.933 7.573,0.681 0.762,5.613 0,11.655 0,11.655 0,0 12.329,14.968 12.751,17.173 0,0 7.205,5.926 4.851,17.724 -0.218,1.102 0.748,1.545 1.191,0.51 C 1.368,16.05 1.994,14.077 2.232,11.567 2.606,7.586 1.776,3.586 0,0 m 7.593,9.131 c 0,0 1.109,7.566 -6.464,18.629 -7.566,11.05 -17.431,8.328 -21.092,8.246 -3.653,-0.081 -18.874,-0.85 -20.323,-15.308 -1.449,-14.459 5.355,-20.242 5.355,-20.242 0,0 0,-6.464 3.402,-10.716 1.844,-2.307 3.286,-5.682 4.565,-8.111 0.701,-1.326 -0.313,-2.578 -1.681,-1.952 -2.673,1.224 -4.327,2.497 -4.327,2.497 0,0 -7.484,6.715 -11.056,9.947 -3.572,3.232 -7.144,6.124 -11.907,6.382 -4.763,0.252 -10.117,-6.382 -10.117,-6.382 l 5.694,-7.824 c 7.315,-1.361 8.165,-6.723 8.165,-6.723 l 1.109,-0.762 c 4.083,-2.463 4.763,0.34 4.763,0.34 l 1.02,-0.17 c 0,0 6.628,-9.273 12.588,-13.608 5.946,-4.334 14.288,-9.273 20.575,-5.014 6.3,4.246 2.898,19.473 2.898,19.473 C 8.614,0.116 7.593,9.131 7.593,9.131"
             style="fill:#ffffff;fill-opacity:1;fill-rule:nonzero;stroke:none"
             id="path166"
             inkscape:connector-curvature="0" /></g><g
           id="g168"
           transform="translate(222.2943,453.9119)"><path
             d="m 0,0 c 0,0 -10.635,-3.402 -15.649,-1.953 0,0 -8.165,-10.376 -11.226,-12.675 l 8.593,13.948 -7.825,15.737 c 0,0 10.288,9.954 11.73,11.995 0,0 -3.313,13.091 -3.225,14.792 l 6.716,-13.914 c 0,0 11.995,-6.722 13.778,-8.736 C 2.892,19.194 3.232,7.403 0,0 m 17.139,14.928 c -1.483,3.524 -3.783,8.593 -5.232,9.995 0,0 -1.089,7.062 -5.368,14.342 -5.716,6.308 -13.384,10.86 -22.215,12.683 l 5.035,-2.973 -8.41,-5.253 c -2.211,1.783 -15.669,2.191 -15.669,2.191 l -8.213,-6.226 c -0.231,-0.177 -0.517,0.143 -0.313,0.347 l 6.695,7.042 -0.306,3.688 C -47.6,47.144 -56.309,38.993 -60.977,28.651 l 1.014,-0.075 c 2.381,2.042 10.124,3.743 10.124,3.743 1.531,-1.783 4.593,-13.772 4.593,-13.772 5.953,-0.428 14.54,-3.061 14.54,-3.061 -4.048,-0.429 -15.649,0.762 -15.649,0.762 -1.021,-1.871 -8.321,-12.628 -8.321,-12.628 -5.6,2.429 -8.6,5.463 -10.009,7.28 0.143,-12.526 6.022,-23.929 15.118,-31.509 l 2.28,4.62 c 0,0 -6.294,14.125 -6.376,15.309 0,0 8.669,-12.329 9.438,-14.289 0,0 9.015,-2.633 15.057,-2.463 0,0 4.585,-8.586 6.715,-9.947 l -5.103,-1.701 0.436,-0.871 c 1.129,-0.102 2.272,-0.15 3.422,-0.15 6.981,0 13.574,1.831 19.35,5.022 2.96,3.266 8.247,9.274 9.451,11.988 l -4.933,11.138 6.545,-9.614 6.417,4.94 c 2.667,5.477 4.164,11.594 4.164,17.996 0,1.198 -0.048,2.389 -0.157,3.559"
             style="fill:#ffffff;fill-opacity:1;fill-rule:nonzero;stroke:none"
             id="path170"
             inkscape:connector-curvature="0" /></g><g
           id="g172"
           transform="translate(313.807,260.3722)"><path
             d="m 0,0 c 0,0 1.247,-5.84 0.284,-9.129 0,0 -4.31,-5.556 -15.026,-3.798 0,0 0.339,5.427 3.328,9.535 0.304,0.417 -0.24,0.924 -0.639,0.596 -1.176,-0.968 -2.579,-2.686 -3.596,-5.709 0,0 -2.44,-0.829 -4.026,1.021 0,0 5.16,12.7 10.773,12.417 0,0 7.598,-4.423 8.902,-4.933"
             style="fill:#ffffff;fill-opacity:1;fill-rule:nonzero;stroke:none"
             id="path174"
             inkscape:connector-curvature="0" /></g></g></g></g></svg>