<?xml version="1.0" encoding="UTF-8" standalone="no"?>
<svg
   xmlns:dc="http://purl.org/dc/elements/1.1/"
   xmlns:cc="http://creativecommons.org/ns#"
   xmlns:rdf="http://www.w3.org/1999/02/22-rdf-syntax-ns#"
   xmlns:svg="http://www.w3.org/2000/svg"
   xmlns="http://www.w3.org/2000/svg"
   xmlns:sodipodi="http://sodipodi.sourceforge.net/DTD/sodipodi-0.dtd"
   xmlns:inkscape="http://www.inkscape.org/namespaces/inkscape"
   width="300"
   height="300"
   viewBox="0 0 224.99999 225"
   version="1.1"
   id="svg89"
   sodipodi:docname="HNK Orijent Logo.svg"
   inkscape:version="0.92.4 (5da689c313, 2019-01-14)">
  <metadata
     id="metadata95">
    <rdf:RDF>
      <cc:Work
         rdf:about="">
        <dc:format>image/svg+xml</dc:format>
        <dc:type
           rdf:resource="http://purl.org/dc/dcmitype/StillImage" />
        <dc:title />
      </cc:Work>
    </rdf:RDF>
  </metadata>
  <defs
     id="defs93" />
  <sodipodi:namedview
     pagecolor="#ffffff"
     bordercolor="#666666"
     borderopacity="1"
     objecttolerance="10"
     gridtolerance="10"
     guidetolerance="10"
     inkscape:pageopacity="0"
     inkscape:pageshadow="2"
     inkscape:window-width="1920"
     inkscape:window-height="1017"
     id="namedview91"
     showgrid="false"
     inkscape:zoom="4"
     inkscape:cx="168.59155"
     inkscape:cy="188.04945"
     inkscape:window-x="-8"
     inkscape:window-y="-8"
     inkscape:window-maximized="1"
     inkscape:current-layer="svg89"
     inkscape:object-paths="true"
     inkscape:snap-intersection-paths="true"
     inkscape:snap-smooth-nodes="true"
     inkscape:snap-midpoints="true"
     inkscape:snap-bbox="true"
     inkscape:bbox-nodes="true"
     inkscape:bbox-paths="true"
     inkscape:snap-bbox-edge-midpoints="true"
     inkscape:snap-bbox-midpoints="true"
     inkscape:pagecheckerboard="true"
     units="px"
     fit-margin-top="0"
     fit-margin-left="0"
     fit-margin-right="0"
     fit-margin-bottom="0"
     inkscape:snap-global="true"
     showguides="true"
     inkscape:guide-bbox="true" />
  <g
     id="g225"
     transform="matrix(1.0000019,0,0,1.0000019,-2.1722862e-4,2.4981949e-6)">
    <path
       inkscape:connector-curvature="0"
       id="path12-5"
       style="fill:#ffffff;fill-opacity:1;fill-rule:nonzero;stroke:none;stroke-width:0.37723178"
       d="m 17.375963,60.748413 c -3.64532,28.391979 -3.622856,63.268577 9.212294,94.397437 19.150303,46.44311 57.067872,65.3919 84.644283,65.76344 l 2.53517,0.004 c 27.57641,-0.37155 65.49396,-19.32034 84.64425,-65.76345 C 225.98837,88.27085 194.41733,4.0908972 194.41733,4.0908972 L 30.582917,4.0870897 c 0,0 -2.970564,7.9203653 -6.29345,20.8322743 0,0 15.901473,5.108017 13.405961,20.992648 -3.064039,19.506109 -20.319465,14.836763 -20.319465,14.836763 z" />
    <path
       inkscape:connector-curvature="0"
       id="path40"
       style="fill:#be202f;fill-opacity:1;fill-rule:nonzero;stroke:none;stroke-width:0.37723178"
       d="M 209.44674,81.263471 196.43657,6.2804306 H 77.654398 L 143.3621,81.243894 Z"
       sodipodi:nodetypes="ccccc" />
    <path
       inkscape:connector-curvature="0"
       id="path77"
       d="m 143.25816,174.60746 h -30.62515 l 0.01,31.25656 h 30.61247 z"
       style="opacity:1;fill:#be202f;fill-opacity:1;stroke:none;stroke-width:0.047594;stroke-miterlimit:2.61310005;stroke-dasharray:none;stroke-opacity:1" />
    <path
       style="opacity:1;fill:#be202f;fill-opacity:1;stroke:none;stroke-width:0.047594;stroke-miterlimit:2.61310005;stroke-dasharray:none;stroke-opacity:1"
       d="m 173.87377,143.35089 h -30.62513 l 0.01,31.25657 h 30.61243 z"
       id="path110"
       inkscape:connector-curvature="0" />
    <path
       sodipodi:nodetypes="ccccc"
       inkscape:connector-curvature="0"
       id="path112"
       d="m 187.60305,174.60746 h -13.72928 l 0.01,18.35573 13.71659,-12.61241 z"
       style="opacity:1;fill:#be202f;fill-opacity:1;stroke:none;stroke-width:0.047594;stroke-miterlimit:2.61310005;stroke-dasharray:none;stroke-opacity:1" />
    <path
       sodipodi:nodetypes="ccccc"
       style="opacity:1;fill:#be202f;fill-opacity:1;stroke:none;stroke-width:0.047594;stroke-miterlimit:2.61310005;stroke-dasharray:none;stroke-opacity:1"
       d="m 158.43671,205.86402 h -15.17855 l 0.01,8.76841 h 6.33952 z"
       id="path114"
       inkscape:connector-curvature="0" />
    <path
       inkscape:connector-curvature="0"
       id="path116"
       d="m 204.4894,112.09432 h -30.62515 l 0.01,31.25657 h 30.61246 z"
       style="opacity:1;fill:#be202f;fill-opacity:1;stroke:none;stroke-width:0.047594;stroke-miterlimit:2.61310005;stroke-dasharray:none;stroke-opacity:1" />
    <path
       style="opacity:1;fill:#be202f;fill-opacity:1;stroke:none;stroke-width:0.047594;stroke-miterlimit:2.61310005;stroke-dasharray:none;stroke-opacity:1"
       d="m 173.86742,80.837758 h -30.62513 l 0.01,31.256562 h 30.61244 z"
       id="path118"
       inkscape:connector-curvature="0" />
    <path
       inkscape:connector-curvature="0"
       id="path120"
       d="m 143.24229,112.09432 h -30.62515 l 0.01,31.25657 h 30.61246 z"
       style="opacity:1;fill:#be202f;fill-opacity:1;stroke:none;stroke-width:0.047594;stroke-miterlimit:2.61310005;stroke-dasharray:none;stroke-opacity:1" />
    <path
       sodipodi:nodetypes="ccccc"
       style="opacity:1;fill:#be202f;fill-opacity:1;stroke:none;stroke-width:0.047594;stroke-miterlimit:2.61310005;stroke-dasharray:none;stroke-opacity:1"
       d="M 51.376355,112.09432 H 14.86173 l 0.0095,-30.850426 h 36.501933 z"
       id="path136"
       inkscape:connector-curvature="0" />
    <path
       inkscape:connector-curvature="0"
       id="path138"
       d="M 81.991989,143.35089 H 51.366836 l 0.0095,-31.25657 h 30.612461 z"
       style="opacity:1;fill:#be202f;fill-opacity:1;stroke:none;stroke-width:0.047594;stroke-miterlimit:2.61310005;stroke-dasharray:none;stroke-opacity:1" />
    <path
       sodipodi:nodetypes="ccccc"
       style="opacity:1;fill:#be202f;fill-opacity:1;stroke:none;stroke-width:0.047594;stroke-miterlimit:2.61310005;stroke-dasharray:none;stroke-opacity:1"
       d="M 112.61714,112.09432 H 81.991989 l 0.0095,-30.850426 h 30.612461 z"
       id="path140"
       inkscape:connector-curvature="0" />
    <path
       style="opacity:1;fill:#be202f;fill-opacity:1;stroke:none;stroke-width:0.047594;stroke-miterlimit:2.61310005;stroke-dasharray:none;stroke-opacity:1"
       d="M 112.60762,174.60746 H 81.98247 l 0.0095,-31.25657 h 30.61246 z"
       id="path144"
       inkscape:connector-curvature="0" />
    <path
       sodipodi:nodetypes="cccccc"
       inkscape:connector-curvature="0"
       id="path146"
       d="M 81.985643,205.86402 H 64.485519 l -13.120269,-15.62828 0.0063,-15.62828 h 30.612461 z"
       style="opacity:1;fill:#be202f;fill-opacity:1;stroke:none;stroke-width:0.047594;stroke-miterlimit:2.61310005;stroke-dasharray:none;stroke-opacity:1" />
    <path
       sodipodi:nodetypes="ccccc"
       style="opacity:1;fill:#be202f;fill-opacity:1;stroke:none;stroke-width:0.047594;stroke-miterlimit:2.61310005;stroke-dasharray:none;stroke-opacity:1"
       d="M 51.36049,174.60746 H 36.560343 L 20.744856,143.35089 h 30.612461 z"
       id="path148"
       inkscape:connector-curvature="0" />
    <path
       sodipodi:nodetypes="ccccc"
       style="opacity:1;fill:#be202f;fill-opacity:1;stroke:none;stroke-width:0.047594;stroke-miterlimit:2.61310005;stroke-dasharray:none;stroke-opacity:1"
       d="m 112.63301,220.79838 -30.625157,-6.4699 0.0095,-8.46446 h 30.612457 z"
       id="path150"
       inkscape:connector-curvature="0" />
    <path
       inkscape:connector-curvature="0"
       id="path42"
       style="fill:#356caf;fill-opacity:1;fill-rule:nonzero;stroke:none;stroke-width:0.37723178"
       d="M 26.6573,2.6894379 C 26.532414,3.0210666 23.572321,10.959213 20.234458,23.929181 l -0.935761,3.638161 3.678191,1.224575 c 1.282182,0.426696 12.470136,4.515503 10.586492,16.503994 -0.77648,4.945105 -2.622683,8.376448 -5.486256,10.199343 -4.163713,2.649799 -9.509281,1.322904 -9.563157,1.309114 l -4.660405,-1.194095 -0.625385,4.63306 C 8.4585603,97.397462 11.64831,129.8387 22.70979,156.66395 c 9.011893,21.85584 23.061895,39.82642 40.629285,51.96912 14.9567,10.33722 31.955564,16.14841 47.868265,16.36249 l 2.58753,0.004 c 15.97623,-0.2148 32.97661,-6.02599 47.93255,-16.36321 17.56814,-12.1427 31.61741,-30.11328 40.62927,-51.96912 14.59387,-35.39218 12.73195,-75.394579 8.60042,-102.720186 C 206.50093,24.46917 198.73759,3.5686768 198.40994,2.6935183 L 197.40081,0.00381002 27.665722,2.5044413e-6 26.6573,2.6897108 m 6.974933,5.484282 c 5.70468,3.554e-4 152.077927,0.00381 157.794587,0.00381 3.27275,9.7399852 14.04329,44.7998202 14.04329,84.2416342 0,20.200213 -2.82691,41.544083 -10.93661,61.212023 -17.78957,43.14201 -53.39486,62.82592 -80.79098,63.19528 l -2.47089,-0.004 C 83.92862,216.45365 48.322597,196.76976 30.532975,153.62773 23.19233,135.82405 19.507349,115.31942 19.507349,92.407733 c 0,-8.688494 0.562561,-17.74345 1.623336,-27.108629 3.195651,0.082 7.497007,-0.416175 11.46622,-2.904871 5.008221,-3.139992 8.135845,-8.478408 9.296885,-15.866856 0.212396,-1.355198 0.312661,-2.654146 0.312661,-3.896864 0,-10.449339 -7.034711,-16.953554 -12.918979,-20.038387 1.780396,-6.588032 3.382727,-11.576676 4.344761,-14.4184124 z" />
    <path
       sodipodi:nodetypes="ccccc"
       d="m 66.181262,74.97735 h 6.361731 v 37.11697 h -6.361731 z"
       id="path8"
       inkscape:connector-curvature="0"
       style="opacity:1;fill:#356caf;stroke-width:0.63458669" />
    <path
       sodipodi:nodetypes="ccccccccccccc"
       d="m 108.54944,74.974177 h 14.44954 v 7.456394 h -9.52197 v 7.297747 h 7.91647 v 6.659987 h -7.91647 v 8.424135 h 9.52197 v 7.28188 h -14.44954 z"
       id="path12"
       inkscape:connector-curvature="0"
       style="opacity:1;fill:#356caf;stroke-width:0.63458669" />
    <path
       d="m 54.095939,25.086146 v 6.073452 h -5.04122 V 25.086146 H 44.373564 V 41.89016 h 4.681155 v -6.433535 h 5.04122 v 6.433535 h 4.657105 V 25.086146 Z"
       style="font-style:normal;font-variant:normal;font-weight:bold;font-stretch:normal;font-size:32px;line-height:100%;font-family:Mont;-inkscape-font-specification:'Mont Bold';text-align:center;direction:ltr;text-anchor:middle;fill:#be202f;fill-opacity:1;stroke:none;stroke-width:0.05626344;stroke-miterlimit:2.61310005;stroke-dasharray:none;stroke-opacity:1"
       id="path63"
       inkscape:connector-curvature="0" />
    <path
       d="m 71.640611,25.086146 v 8.834113 L 65.183057,25.086146 H 61.126081 V 41.89016 h 4.489066 v -9.098171 l 6.673567,9.098171 h 3.840963 V 25.086146 Z"
       style="font-style:normal;font-variant:normal;font-weight:bold;font-stretch:normal;font-size:32px;line-height:100%;font-family:Mont;-inkscape-font-specification:'Mont Bold';text-align:center;direction:ltr;text-anchor:middle;fill:#be202f;fill-opacity:1;stroke:none;stroke-width:0.05626344;stroke-miterlimit:2.61310005;stroke-dasharray:none;stroke-opacity:1"
       id="path65"
       inkscape:connector-curvature="0" />
    <path
       d="m 93.510498,41.89016 -5.881412,-8.642061 5.377297,-8.161953 h -5.377297 l -4.441028,7.105696 V 25.086146 H 78.55494 V 41.89016 h 4.633118 v -7.417772 l 4.825143,7.417772 z"
       style="font-style:normal;font-variant:normal;font-weight:bold;font-stretch:normal;font-size:32px;line-height:100%;font-family:Mont;-inkscape-font-specification:'Mont Bold';text-align:center;direction:ltr;text-anchor:middle;fill:#be202f;fill-opacity:1;stroke:none;stroke-width:0.05626344;stroke-miterlimit:2.61310005;stroke-dasharray:none;stroke-opacity:1"
       id="path67"
       inkscape:connector-curvature="0" />
    <path
       d="m 133.44796,24.629885 v 3.885352 h 2.54735 v 13.225637 h 4.60577 V 24.629885 Z"
       style="font-style:normal;font-variant:normal;font-weight:bold;font-stretch:normal;font-size:32px;line-height:100%;font-family:Mont;-inkscape-font-specification:'Mont Bold';text-align:center;direction:ltr;text-anchor:middle;fill:#ffffff;fill-opacity:1;stroke:none;stroke-width:0.06030659;stroke-miterlimit:2.61310005;stroke-dasharray:none;stroke-opacity:1"
       id="path69"
       inkscape:connector-curvature="0" />
    <path
       d="m 149.52521,24.21819 c -4.01401,0 -6.76723,2.573084 -6.76723,6.32978 0,3.293543 2.36726,5.583589 5.78946,5.583589 0.41166,0 0.77191,-0.0257 1.13216,-0.0772 -1.10646,1.904084 -2.26433,3.808161 -3.39649,5.686513 h 4.94032 l 3.16487,-5.326277 c 1.41519,-2.392969 1.95554,-4.142664 1.95554,-5.892359 0,-3.730964 -2.77891,-6.304048 -6.81863,-6.304048 z m 0.026,8.774208 c -1.49242,0 -2.52166,-0.977771 -2.52166,-2.444428 0,-1.440924 1.02924,-2.444427 2.52166,-2.444427 1.46665,0 2.49589,1.003503 2.49589,2.444427 0,1.466657 -1.02924,2.444428 -2.49589,2.444428 z"
       style="font-style:normal;font-variant:normal;font-weight:bold;font-stretch:normal;font-size:32px;line-height:100%;font-family:Mont;-inkscape-font-specification:'Mont Bold';text-align:center;direction:ltr;text-anchor:middle;fill:#ffffff;fill-opacity:1;stroke:none;stroke-width:0.06030659;stroke-miterlimit:2.61310005;stroke-dasharray:none;stroke-opacity:1"
       id="path71"
       inkscape:connector-curvature="0" />
    <path
       d="m 157.88855,24.629885 v 3.885352 h 2.54736 v 13.225637 h 4.60577 V 24.629885 Z"
       style="font-style:normal;font-variant:normal;font-weight:bold;font-stretch:normal;font-size:32px;line-height:100%;font-family:Mont;-inkscape-font-specification:'Mont Bold';text-align:center;direction:ltr;text-anchor:middle;fill:#ffffff;fill-opacity:1;stroke:none;stroke-width:0.06030659;stroke-miterlimit:2.61310005;stroke-dasharray:none;stroke-opacity:1"
       id="path73"
       inkscape:connector-curvature="0" />
    <path
       d="m 173.94942,24.21819 c -4.01401,0 -6.76722,2.573084 -6.76722,6.32978 0,3.293543 2.36725,5.583589 5.78945,5.583589 0.4117,0 0.77193,-0.0257 1.13216,-0.0772 -1.10643,1.904084 -2.26431,3.808161 -3.39647,5.686513 h 4.94032 l 3.16489,-5.326277 c 1.41519,-2.392969 1.95554,-4.142664 1.95554,-5.892359 0,-3.730964 -2.77893,-6.304048 -6.81867,-6.304048 z m 0.0257,8.774208 c -1.49239,0 -2.52162,-0.977771 -2.52162,-2.444428 0,-1.440924 1.02923,-2.444427 2.52162,-2.444427 1.46666,0 2.49589,1.003503 2.49589,2.444427 0,1.466657 -1.02923,2.444428 -2.49589,2.444428 z"
       style="font-style:normal;font-variant:normal;font-weight:bold;font-stretch:normal;font-size:32px;line-height:100%;font-family:Mont;-inkscape-font-specification:'Mont Bold';text-align:center;direction:ltr;text-anchor:middle;fill:#ffffff;fill-opacity:1;stroke:none;stroke-width:0.06030659;stroke-miterlimit:2.61310005;stroke-dasharray:none;stroke-opacity:1"
       id="path75"
       inkscape:connector-curvature="0" />
    <path
       sodipodi:nodetypes="ccccccccssccccccscccc"
       inkscape:connector-curvature="0"
       id="path164"
       d="m 41.283127,74.970668 v 37.123322 h 6.200229 V 98.291728 h 3.756372 l 4.692451,13.802262 h 7.42917 L 57.07837,96.807208 c 0,0 1.675626,-0.89834 2.910468,-2.999723 1.423759,-2.422776 1.683305,-6.937485 1.488233,-9.199032 -0.416416,-4.827631 -2.12155,-7.13686 -4.306686,-8.387509 -2.191736,-1.254445 -4.235105,-1.250276 -4.235105,-1.250276 z m 6.200229,7.018262 h 3.891159 c 0,0 1.127089,-0.0051 1.769925,0.366246 0.832261,0.480509 1.847028,1.311164 1.847028,4.603234 0,3.292071 -1.014767,4.121793 -1.847028,4.602302 -0.642836,0.371379 -1.769925,0.366252 -1.769925,0.366252 h -3.891159 z"
       style="opacity:1;fill:#356caf;fill-opacity:1;stroke:none;stroke-width:0.047594;stroke-miterlimit:2.61310005;stroke-dasharray:none;stroke-opacity:1" />
    <path
       sodipodi:nodetypes="cccscczcc"
       inkscape:connector-curvature="0"
       id="path182"
       d="m 94.125222,74.974171 h 6.490298 v 18.388735 c 0,6.710304 0.0101,11.014254 -1.983971,14.227094 -2.60612,4.19937 -7.335504,5.16075 -11.823047,4.16165 v -7.06295 c 3.588968,0.25241 5.02269,-0.42439 6.104406,-1.76703 1.081716,-1.34263 1.209966,-3.261614 1.209966,-5.547376 z"
       style="opacity:1;fill:#356caf;fill-opacity:1;stroke:none;stroke-width:0.047594;stroke-miterlimit:2.61310005;stroke-dasharray:none;stroke-opacity:1" />
    <path
       sodipodi:nodetypes="cccccccc"
       style="opacity:1;fill:#356caf;fill-opacity:1;stroke:none;stroke-width:0.047594;stroke-miterlimit:2.61310005;stroke-dasharray:none;stroke-opacity:1"
       d="m 175.24617,74.97735 v 7.627459 l -7.20423,-6e-6 v 29.489517 h -6.27441 V 82.604803 l -7.20421,6e-6 V 74.97735 Z"
       id="path186"
       inkscape:connector-curvature="0" />
    <path
       sodipodi:nodetypes="ccccccccccc"
       inkscape:connector-curvature="0"
       id="path188"
       d="m 129.49366,74.974171 v 37.120149 h 5.47718 V 88.862107 l 11.37915,23.232213 h 4.71676 V 74.97735 h -5.38771 V 97.59018 L 134.82133,74.97735 Z"
       style="opacity:1;fill:#356caf;fill-opacity:1;stroke:none;stroke-width:0.047594;stroke-miterlimit:2.61310005;stroke-dasharray:none;stroke-opacity:1" />
    <path
       inkscape:connector-curvature="0"
       id="path117"
       d="m 111.08455,49.41771 c -21.372053,0 -36.012475,20.919409 -36.012475,46.63283 0,25.71341 14.640422,46.63282 36.012475,46.63282 21.37199,0 36.01337,-20.91941 36.01337,-46.63282 0,-25.713421 -14.64138,-46.63283 -36.01337,-46.63283 z m 0,7.602031 c 17.44219,0 28.93563,17.52868 28.93563,39.030799 0,21.50211 -11.49344,39.02987 -28.93563,39.02987 -17.442248,0 -28.93474,-17.52776 -28.93474,-39.02987 0,-21.502119 11.492492,-39.030799 28.93474,-39.030799 z"
       style="fill:#356caf;fill-opacity:1;fill-rule:nonzero;stroke:none;stroke-width:0.36692208" />
  </g>
</svg>
