<?xml version="1.0" encoding="UTF-8" standalone="no"?>
<!-- Created with Inkscape (http://www.inkscape.org/) -->

<svg
   xmlns:dc="http://purl.org/dc/elements/1.1/"
   xmlns:cc="http://creativecommons.org/ns#"
   xmlns:rdf="http://www.w3.org/1999/02/22-rdf-syntax-ns#"
   xmlns:svg="http://www.w3.org/2000/svg"
   xmlns="http://www.w3.org/2000/svg"
   xmlns:sodipodi="http://sodipodi.sourceforge.net/DTD/sodipodi-0.dtd"
   xmlns:inkscape="http://www.inkscape.org/namespaces/inkscape"
   version="1.1"
   id="svg2"
   xml:space="preserve"
   width="300"
   height="300"
   viewBox="0 0 300 299.99999"
   sodipodi:docname="NK BSK Bijelo Brdo Logo.svg"
   inkscape:version="0.92.5 (2060ec1f9f, 2020-04-08)"><metadata
     id="metadata8"><rdf:RDF><cc:Work
         rdf:about=""><dc:format>image/svg+xml</dc:format><dc:type
           rdf:resource="http://purl.org/dc/dcmitype/StillImage" /><dc:title></dc:title><dc:title /></cc:Work></rdf:RDF></metadata><defs
     id="defs6"><clipPath
       clipPathUnits="userSpaceOnUse"
       id="clipPath18"><path
         d="M 0,841.89 H 595.28 V 0 H 0 Z"
         id="path16"
         inkscape:connector-curvature="0" /></clipPath><clipPath
       clipPathUnits="userSpaceOnUse"
       id="clipPath194"><path
         d="M 17.5394,797.065 H 584.461 V 47.3983 H 17.5394 Z"
         id="path192"
         inkscape:connector-curvature="0" /></clipPath><clipPath
       clipPathUnits="userSpaceOnUse"
       id="clipPath198"><path
         d="M 302.687,47.557 C 241.869,77.912 160.533,117.417 94.533,222.382 51.41,290.964 28.088,379.628 21.32,423.757 c -2.433,15.864 -3.639,31.886 -3.639,47.936 v 234.13 c 133.79,-15.74 285.006,91.067 285.006,91.067 0,0 144.47,-106.807 281.632,-91.067 V 472.648 c 0,-17.072 -1.311,-34.115 -3.963,-50.979 C 573.33,376.997 554.675,293.795 507.467,222.382 439.092,118.949 363.504,77.912 302.687,47.557"
         id="path196"
         inkscape:connector-curvature="0" /></clipPath><radialGradient
       fx="0"
       fy="0"
       cx="0"
       cy="0"
       r="1"
       gradientUnits="userSpaceOnUse"
       gradientTransform="matrix(332.14807,0,0,-247.62291,313.64816,460.16782)"
       spreadMethod="pad"
       id="radialGradient218"><stop
         style="stop-opacity:0;stop-color:#ffffff"
         offset="0"
         id="stop204" /><stop
         style="stop-opacity:0;stop-color:#ffffff"
         offset="0.589042"
         id="stop206" /><stop
         style="stop-opacity:0;stop-color:#ffffff"
         offset="0.62053282"
         id="stop208" /><stop
         style="stop-opacity:0.6512398;stop-color:#ffffff"
         offset="0.779465"
         id="stop210" /><stop
         style="stop-opacity:0.95001144;stop-color:#ffffff"
         offset="0.82269375"
         id="stop212" /><stop
         style="stop-opacity:0.95001144;stop-color:#ffffff"
         offset="0.90146"
         id="stop214" /><stop
         style="stop-opacity:0.95001144;stop-color:#ffffff"
         offset="1"
         id="stop216" /></radialGradient><mask
       maskUnits="userSpaceOnUse"
       x="0"
       y="0"
       width="1"
       height="1"
       id="mask220"><g
         id="g230"><g
           id="g228"><g
             id="g226"><g
               id="g224"><path
                 d="M -32768,32767 H 32767 V -32768 H -32768 Z"
                 style="fill:url(#radialGradient218);stroke:none"
                 id="path222"
                 inkscape:connector-curvature="0" /></g></g></g></g></mask><radialGradient
       fx="0"
       fy="0"
       cx="0"
       cy="0"
       r="1"
       gradientUnits="userSpaceOnUse"
       gradientTransform="matrix(132.91847,0,0,99.09333,-190.51874,121.36543)"
       spreadMethod="pad"
       id="radialGradient246"><stop
         style="stop-opacity:1;stop-color:#161412"
         offset="0"
         id="stop232" /><stop
         style="stop-opacity:1;stop-color:#161412"
         offset="0.589042"
         id="stop234" /><stop
         style="stop-opacity:1;stop-color:#161412"
         offset="0.62053282"
         id="stop236" /><stop
         style="stop-opacity:1;stop-color:#161412"
         offset="0.779465"
         id="stop238" /><stop
         style="stop-opacity:1;stop-color:#161412"
         offset="0.82269375"
         id="stop240" /><stop
         style="stop-opacity:1;stop-color:#161412"
         offset="0.90146"
         id="stop242" /><stop
         style="stop-opacity:1;stop-color:#161412"
         offset="1"
         id="stop244" /></radialGradient></defs><sodipodi:namedview
     pagecolor="#ffffff"
     bordercolor="#666666"
     borderopacity="1"
     objecttolerance="10"
     gridtolerance="10"
     guidetolerance="10"
     inkscape:pageopacity="0"
     inkscape:pageshadow="2"
     inkscape:window-width="1920"
     inkscape:window-height="1017"
     id="namedview4"
     showgrid="false"
     inkscape:zoom="0.59465203"
     inkscape:cx="-386.08164"
     inkscape:cy="16.299472"
     inkscape:window-x="-8"
     inkscape:window-y="-8"
     inkscape:window-maximized="1"
     inkscape:current-layer="svg2"
     showguides="false"
     inkscape:pagecheckerboard="true" /><path
     d="m 233.33571,230.00735 c 17.26456,-27.45681 26.60125,-62.95439 29.31126,-80.6213 0.97408,-6.35125 1.4565,-12.76575 1.4565,-19.19146 V 36.458827 C 210.54024,42.760431 150,4.0418227e-6 150,4.0418227e-6 150,4.0418227e-6 89.459761,42.760431 35.896529,36.458827 v 93.735763 c 0,6.42571 0.482424,12.84021 1.456496,19.19146 2.710013,17.66691 12.046717,53.16449 29.311269,80.6213 C 93.088191,272.03072 125.65155,287.84679 150,300 c 24.34846,-12.15321 56.91181,-27.96928 83.33571,-69.99265 z"
     style="fill:#0093dd;fill-opacity:1;fill-rule:nonzero;stroke:none;stroke-width:0.40017834"
     id="path22"
     inkscape:connector-curvature="0"
     sodipodi:nodetypes="scscccscscs" /><path
     sodipodi:nodetypes="ccccc"
     inkscape:connector-curvature="0"
     id="path1325"
     style="fill:#fff500;fill-opacity:1;fill-rule:nonzero;stroke:none;stroke-width:0.40017834"
     d="M 262.72581,126.70761 V 38.486749 C 206.34927,42.760549 149.98635,2.6793049 149.98635,2.6793049 c 0,0 -56.362926,40.0812441 -112.739462,35.8074441 v 88.220861" /><path
     inkscape:connector-curvature="0"
     style="fill:#ffffff;fill-opacity:1;fill-rule:nonzero;stroke:none;stroke-width:0.40017834"
     d="m 111.59908,249.86525 v 26.87129 c 8.6625,6.25877 17.20146,11.19583 25.2358,15.4424 v -38.00319 c -10.34679,-1.03652 -19.25369,-2.85881 -25.2358,-4.3105 z"
     id="path26" /><path
     d="m 86.618476,204.4636 -7.34253,-4.72621 3.207252,15.52901 -8.480341,5.40121 c 0,0 3.561566,4.19973 12.615619,8.48354 v 25.34574 c -6.529007,-7.15316 -12.915887,-15.42091 -18.995694,-25.08911 -2.285632,-3.63244 -4.358275,-7.41019 -6.238748,-11.26522 v -88.28531 h 25.234442 z"
     style="fill:#ffffff;fill-opacity:1;fill-rule:nonzero;stroke:none;stroke-width:0.40017834"
     id="path34"
     inkscape:connector-curvature="0" /><path
     d="m 187.47172,205.44266 v 11.81891 c -1.00568,0.40155 -2.17072,1.13061 -2.53184,2.39333 -0.42878,1.50214 -0.0808,4.86113 1.131,7.10632 -8.11201,2.60272 -16.14996,4.09484 -23.8336,4.80708 v -7.07911 c -4.42913,1.13742 -9.12811,1.69111 -13.92518,1.69111 -4.00035,0 -7.84898,-0.59413 -11.47781,-1.68429 v 6.84248 c -9.87799,-1.04973 -18.15894,-3.02789 -23.8436,-4.75623 1.73154,-3.05912 1.45489,-5.46566 1.03612,-6.92736 -0.34751,-1.22188 -1.44809,-1.94453 -2.42696,-2.3529 v -14.31032 c -2.79888,-5.59378 -4.36188,-11.81891 -4.36188,-18.2194 0,-6.79565 1.563,-13.1525 4.36188,-18.73947 v -36.17536 h 25.23444 v 15.40049 c 3.62883,-1.01611 7.47746,-1.55939 11.47781,-1.55939 4.79707,0 9.49605,0.77949 13.92518,2.22438 v -16.06548 h 25.23444 v 36.74587 c 2.93702,5.44884 4.61491,11.60311 4.61491,18.16896 0,8.15285 -1.67789,15.01895 -4.61491,20.67038 z"
     style="fill:#ffffff;fill-opacity:1;fill-rule:nonzero;stroke:none;stroke-width:0.40017834"
     id="path38"
     inkscape:connector-curvature="0"
     sodipodi:nodetypes="ccccccsccccccsccccsccccsc" /><path
     d="m 83.045699,205.58888 c 0,0 12.603208,9.39596 27.906811,13.89715 l -9.9024,0.16896 c 0,0 -0.225,4.66975 -2.925801,12.4907 0,0 -18.232215,-8.83025 -19.804814,-11.0278 l 6.976606,-4.50121 z"
     style="fill:#fff500;fill-opacity:1;fill-rule:nonzero;stroke:none;stroke-width:0.40017834"
     id="path46"
     inkscape:connector-curvature="0" /><path
     d="m 196.2866,224.63929 3.78858,15.38328 c 0,0 -2.30606,3.20685 -8.49597,5.34515 -6.19029,2.13791 -23.7435,7.25806 -41.66345,7.14556 -17.92033,-0.1125 -38.62555,-5.06411 -43.46425,-7.427 -4.8387,-2.3633 -7.089102,-4.27621 -7.314101,-5.28871 l 3.825801,-14.854 c 0,0 11.30725,8.80422 46.95255,9.17135 32.77355,0.3375 46.37084,-9.47563 46.37084,-9.47563"
     style="fill:#fff500;fill-opacity:1;fill-rule:nonzero;stroke:none;stroke-width:0.40017834"
     id="path50"
     inkscape:connector-curvature="0" /><path
     d="m 190.84769,218.8672 c 0,0 3.42184,-1.62104 6.64071,-2.44618 1.3592,-0.3483 2.66116,-0.88078 3.89305,-1.55178 5.34556,-2.91139 14.56016,-9.28025 14.56016,-9.28025 0,0 -0.9004,7.7645 -2.2508,10.68991 0,0 6.18909,4.2762 7.652,4.8387 0,0 -15.89454,9.63537 -20.33048,10.80481 0,0 -3.07553,-9.00401 -2.85013,-11.81731 0,0 -2.2508,-2.1383 -7.31451,-1.2379"
     style="fill:#fff500;fill-opacity:1;fill-rule:nonzero;stroke:none;stroke-width:0.40017834"
     id="path54"
     inkscape:connector-curvature="0" /><path
     d="m 103.2445,221.08962 h 8.77701 l -0.42198,4.86673 c 0,0 -7.84857,-2.2504 -8.35503,-4.86673"
     style="fill:#1e1716;fill-opacity:1;fill-rule:nonzero;stroke:none;stroke-width:0.40017834"
     id="path58"
     inkscape:connector-curvature="0" /><path
     d="m 188.20538,225.67017 -0.73346,-3.87745 c 0,0 4.50121,-1.2375 8.21451,0 0,0 -3.40784,2.48861 -7.48105,3.87745"
     style="fill:#1e1716;fill-opacity:1;fill-rule:nonzero;stroke:none;stroke-width:0.40017834"
     id="path62"
     inkscape:connector-curvature="0" /><path
     d="m 120.12375,234.62113 5.51371,-0.3375 2.0258,0.3375 -5.54373,11.51904 2.89937,0.5637 -0.39394,1.08297 -8.55,-1.89609 0.29466,-1.05254 2.90377,0.51006 4.1513,-8.80102 c 0.2326,-0.45401 -0.1161,-0.98888 -0.62536,-0.95926 l -2.73203,0.15854 z"
     style="fill:#1e1716;fill-opacity:1;fill-rule:nonzero;stroke:none;stroke-width:0.40017834"
     id="path66"
     inkscape:connector-curvature="0" /><path
     d="m 143.64323,242.96848 c 0,0 -3.99355,1.10738 -4.10845,-2.72082 0,0 0.63456,-3.11958 3.20725,-3.09596 2.60952,0.0236 2.27842,4.69938 0.9012,5.81678 m -0.675,-7.10953 c -2.79889,-0.20938 -7.86259,2.19435 -7.14675,5.79635 1.0125,4.12207 6.4141,2.58591 6.4141,2.58591 h 0.73265 c -0.28386,3.54475 -7.14675,4.3887 -7.14675,4.3887 l 0.3375,1.4649 c 1.86004,-0.20578 3.6056,-0.76628 4.9556,-1.31997 2.34649,-0.95885 4.3855,-2.58911 5.68506,-4.76664 0.52326,-0.87077 0.96566,-1.87366 1.17464,-2.97424 0.72264,-3.76736 -2.28523,-4.96923 -5.00605,-5.17501"
     style="fill:#1e1716;fill-opacity:1;fill-rule:nonzero;stroke:none;stroke-width:0.40017834"
     id="path70"
     inkscape:connector-curvature="0" /><path
     d="m 157.17363,247.78692 c 0,0 1.01289,-2.51783 -1.43488,-2.43336 -1.43848,0.0496 -1.6951,1.09697 -1.65227,1.81962 0.0484,0.81952 0.55729,1.53136 1.26833,1.94252 0.92642,0.53608 2.58309,1.03052 5.23705,0.37314 4.64894,-1.15142 5.19023,-3.16482 4.93679,-5.06371 -0.25302,-1.89888 -2.82691,-2.19435 -3.92429,-2.19435 0,0 4.30423,-0.72464 4.26219,-3.65364 -0.0424,-2.92901 -3.79777,-2.73084 -3.79777,-2.73084 0,0 -3.73292,-0.33149 -6.20472,2.1327 -0.35912,0.35792 -0.59173,0.83914 -0.60013,1.3464 -0.01,0.60934 0.28706,1.31237 1.65667,1.42847 2.48942,0.21099 1.60342,-3.24929 1.60342,-3.24929 0,0 3.83982,-0.88599 3.71331,1.43488 -0.12651,2.32086 -2.61633,3.33376 -4.76824,3.12277 l 0.14573,1.30636 c 0,0 3.06112,-0.50484 3.86304,0.76108 0.8019,1.26592 0.35911,2.73163 -0.59094,3.65725 -0.9,0.87718 -2.45458,1.29196 -3.71329,0"
     style="fill:#1e1716;fill-opacity:1;fill-rule:nonzero;stroke:none;stroke-width:0.40017834"
     id="path74"
     inkscape:connector-curvature="0" /><path
     d="m 183.46304,232.6941 c 0,0 -5.86561,1.72993 -9.03043,1.85685 v 6.92015 h 0.71744 c 0,0 3.83982,-2.27842 5.44364,0 0.80151,1.13942 0.72785,2.1419 0.4536,2.85894 -0.29906,0.7823 -0.94884,1.37523 -1.72513,1.68871 -0.57171,0.231 -1.36521,0.42718 -2.29885,0.32548 0,0 0.70063,-2.38331 -1.15582,-2.63634 -1.64427,-0.2242 -2.06785,1.05494 -2.06785,1.56139 0,0.50605 1.05494,2.95383 4.00877,2.48941 3.62002,-0.5689 7.51149,-3.3758 6.87853,-6.41411 -0.63298,-3.03829 -3.62923,-4.05079 -8.52399,-1.64546 l -0.0332,-3.20205 c 0,0 6.48937,-0.6802 7.4178,-1.44008 z"
     style="fill:#1e1716;fill-opacity:1;fill-rule:nonzero;stroke:none;stroke-width:0.40017834"
     id="path78"
     inkscape:connector-curvature="0" /><path
     d="m 190.84769,184.71527 c 0.0828,1.98697 -0.4484,13.76944 -4.1637,19.07297 -8.15806,11.64676 -21.46469,20.85094 -37.02173,20.85094 -6.43652,0 -12.6032,-0.42678 -17.73817,-2.87335 -14.80196,-7.05268 -24.2908,-24.8417 -23.67226,-35.532 0,-21.96874 14.80637,-42.89335 41.66385,-41.01649 16.90705,1.18186 31.41755,10.49374 37.95016,24.81247 1.99137,4.36548 2.75685,9.28386 2.98185,14.68546"
     style="fill:#1f1617;fill-opacity:1;fill-rule:nonzero;stroke:none;stroke-width:0.40017834"
     id="path86"
     inkscape:connector-curvature="0" /><path
     d="m 169.35369,152.55995 c -3.54475,-1.15462 -7.96028,0 -7.96028,0 -5.65463,-2.10987 -12.06873,-1.77237 -12.06873,-1.77237 -1.96815,-1.4617 -8.52398,-3.85504 -8.52398,-3.85504 0,0 0.97927,-0.39154 2.46459,-0.93843 1.09017,-0.0844 2.20076,-0.12851 3.33176,-0.12851 1.07016,0 2.16753,0.0404 3.26451,0.1149 6.62349,0.46241 12.87544,2.26842 18.39836,5.14818 0.69862,0.86397 1.09377,1.43127 1.09377,1.43127"
     style="fill:#fefefe;fill-opacity:1;fill-rule:nonzero;stroke:none;stroke-width:0.40017834"
     id="path90"
     inkscape:connector-curvature="0" /><path
     d="m 122.80417,154.45043 -0.31748,7.56193 c -4.72621,7.51108 -7.08911,14.93808 -7.08911,14.93808 -3.37579,3.79778 -5.90765,7.91984 -5.90765,7.91984 -0.10809,-0.21258 -0.23981,-0.5741 -0.38834,-1.06014 v -0.003 c 0.59092,-9.65178 4.24337,-18.79672 9.96205,-25.53511 1.17825,-1.38724 2.42376,-2.66357 3.74053,-3.8214"
     style="fill:#fefefe;fill-opacity:1;fill-rule:nonzero;stroke:none;stroke-width:0.40017834"
     id="path94"
     inkscape:connector-curvature="0" /><path
     d="m 142.93772,171.32288 c 0,0 -5.73911,6.49858 -7.70725,15.19111 l -11.30886,2.33648 c 0,0 -5.23265,-3.79818 -7.51149,-12.23768 0,0 4.64213,-11.39334 6.66753,-13.33466 0,0 8.01753,-2.53186 14.34716,-2.10988 0,0 2.70081,6.27238 5.51291,10.15463"
     style="fill:#fefefe;fill-opacity:1;fill-rule:nonzero;stroke:none;stroke-width:0.40017834"
     id="path98"
     inkscape:connector-curvature="0" /><path
     d="m 166.87921,166.43469 c 0,0 -2.16713,3.17322 -6.21833,6.971 0,0 -8.27096,-2.84253 -16.56873,-2.42055 0,0 -2.33608,-2.248 -5.65423,-10.49174 0,0 5.31673,-7.427 10.38043,-8.69293 0,0 7.17358,-0.3375 11.81571,1.85646 0,0 5.4012,7.41339 6.24515,12.77776"
     style="fill:#fefefe;fill-opacity:1;fill-rule:nonzero;stroke:none;stroke-width:0.40017834"
     id="path102"
     inkscape:connector-curvature="0" /><path
     d="m 184.34919,185.98083 c -3.79778,7.25806 -9.36793,10.12741 -9.36793,10.12741 -3.20726,-0.84395 -11.05584,-5.82318 -11.05584,-5.82318 -0.50644,-9.95886 -2.53185,-16.37296 -2.53185,-16.37296 2.78487,-2.19435 6.49818,-6.92055 6.49818,-6.92055 10.80281,1.77237 13.8411,6.24555 13.8411,6.24555 2.78529,5.14818 2.61634,12.74373 2.61634,12.74373"
     style="fill:#fefefe;fill-opacity:1;fill-rule:nonzero;stroke:none;stroke-width:0.40017834"
     id="path106"
     inkscape:connector-curvature="0" /><path
     d="m 189.23069,194.1031 v 0.003 c -0.66499,0.70583 -0.83034,0.31428 -0.83034,0.31428 0.42198,-2.27882 -3.03829,-7.59595 -3.03829,-7.59595 0.25302,-11.81532 -3.88226,-15.44454 -3.88226,-15.44454 0.5669,-1.22509 0.73265,-2.69719 0.70903,-4.08443 0,-0.13532 -0.004,-0.27024 -0.0104,-0.40516 0,-0.0272 -0.003,-0.054 -0.003,-0.0812 -0.007,-0.1045 -0.01,-0.20899 -0.0204,-0.31388 -0.0168,-0.26304 -0.0368,-0.52327 -0.0672,-0.77309 -0.0104,-0.10129 -0.0204,-0.19898 -0.034,-0.29707 -0.003,-0.0236 -0.003,-0.0472 -0.01,-0.0708 -0.0136,-0.1213 -0.0304,-0.23941 -0.0472,-0.35432 -0.0136,-0.10488 -0.0304,-0.20618 -0.0472,-0.30746 -0.0136,-0.1009 -0.0304,-0.19578 -0.0472,-0.29026 -0.044,-0.24982 -0.0876,-0.48604 -0.13171,-0.69542 -0.0204,-0.1081 -0.044,-0.20578 -0.064,-0.30027 -0.054,-0.23301 -0.10129,-0.42878 -0.13852,-0.57731 -0.0168,-0.0572 -0.0304,-0.1081 -0.0404,-0.15214 -0.0136,-0.0536 -0.0272,-0.0976 -0.0336,-0.12451 -0.004,-0.0104 -0.004,-0.0204 -0.007,-0.0272 -0.004,-0.007 -0.004,-0.0136 -0.004,-0.0136 0.007,0 0.0136,0.004 0.0272,0.0104 0.01,0.003 0.0236,0.006 0.0372,0.0132 0.0572,0.0204 0.14493,0.0576 0.26303,0.10489 0.0472,0.02 0.10129,0.0436 0.15895,0.0672 0.0336,0.0136 0.0708,0.0304 0.11129,0.0472 0.0372,0.0172 0.0776,0.034 0.12131,0.0508 0.0844,0.0372 0.17576,0.074 0.27344,0.1181 1.85366,2.39693 3.43346,4.99645 4.69258,7.76091 1.73835,3.80818 2.66357,8.04475 2.91339,14.0641 0.0572,1.38723 -0.12852,5.2899 -0.85076,9.35432"
     style="fill:#fefefe;fill-opacity:1;fill-rule:nonzero;stroke:none;stroke-width:0.40017834"
     id="path110"
     inkscape:connector-curvature="0" /><path
     d="m 145.13199,210.73589 c 0,0 -6.60987,3.68648 -14.28991,4.19293 0,0 -7.427,-4.55765 -10.63385,-9.87438 0,0 0.3375,-7.59555 3.54435,-14.93809 0,0 11.06263,-1.90409 11.73803,-2.24159 0,0 5.22585,6.22834 11.97746,11.03901 0,0 0.39515,3.83502 -2.33608,11.82212"
     style="fill:#fefefe;fill-opacity:1;fill-rule:nonzero;stroke:none;stroke-width:0.40017834"
     id="path114"
     inkscape:connector-curvature="0" /><path
     d="m 174.62338,197.26967 c 0,0 0.0168,5.92807 -3.01788,14.11456 0,0 -1.20868,2.55106 -7.638,5.55773 -1.76076,0.82354 -3.74052,1.05654 -5.64301,0.655 -3.26411,-0.68942 -8.45233,-2.39494 -12.12238,-6.55063 0,0 2.36329,-4.05081 2.78527,-12.04152 0,0 7.14635,-2.34288 14.23586,-7.34252 0,0 8.27736,4.76343 11.40014,5.60738"
     style="fill:#fefefe;fill-opacity:1;fill-rule:nonzero;stroke:none;stroke-width:0.40017834"
     id="path118"
     inkscape:connector-curvature="0" /><path
     d="m 179.79859,210.75615 c -7.05908,6.94057 -15.70798,11.41696 -24.68436,12.72011 2.22478,-1.59341 4.14569,-3.29493 4.50681,-4.6081 0,0 6.92416,-0.14172 13.25018,-7.14635 0,0 2.97105,0.35071 6.92737,-0.96566"
     style="fill:#fefefe;fill-opacity:1;fill-rule:nonzero;stroke:none;stroke-width:0.40017834"
     id="path122"
     inkscape:connector-curvature="0" /><path
     d="m 133.74527,221.08962 c 0,0 -0.37794,0.0876 -1.03652,0.19577 -0.15174,-0.0676 -0.30388,-0.13852 -0.4556,-0.20939 -8.90553,-4.24337 -16.09953,-12.55796 -20.02221,-20.85255 1.61704,1.68791 3.86223,3.33217 6.96459,4.7126 0,0 3.29132,6.4077 11.98426,11.04582 0,0 1.4617,3.88225 2.56548,5.10775"
     style="fill:#fefefe;fill-opacity:1;fill-rule:nonzero;stroke:none;stroke-width:0.40017834"
     id="path126"
     inkscape:connector-curvature="0" /><path
     d="m 92.17786,104.26821 c 0,1.2303 -0.996086,2.22598 -2.22598,2.22598 h -3.797376 l 0.702625,-3.88186 h 3.798978 c 0.840346,0 1.521753,0.68142 1.521753,1.52216 z m -1.070952,6.92856 c 0,1.41326 -1.14582,2.55908 -2.560678,2.55908 h -3.763747 l 0.903204,-4.45077 h 4.100045 c 0.729449,0 1.321176,0.59174 1.321176,1.32118 z m 3.774957,-7.3209 c 0.1137,-1.04414 -0.139324,-2.04903 -0.857964,-2.83493 -0.646575,-0.70823 -1.575801,-1.116193 -2.535454,-1.116193 h -6.806453 l -3.279717,16.541903 h 6.772022 c 0.829938,0 1.658275,-0.18496 2.40534,-0.55008 2.04662,-1.0029 3.144396,-3.21526 3.152403,-5.44285 0.004,-0.88998 -0.162144,-2.27562 -0.918417,-2.87535 1.069752,-0.97967 1.908898,-2.2528 2.06824,-3.7225"
     style="fill:#1f1617;fill-opacity:1;fill-rule:nonzero;stroke:none;stroke-width:0.40017834"
     id="path130"
     inkscape:connector-curvature="0" /><path
     d="m 95.311246,116.46653 h 2.658364 l 3.3758,-16.738482 h -2.658361 z"
     style="fill:#1f1617;fill-opacity:1;fill-rule:nonzero;stroke:none;stroke-width:0.40017834"
     id="path134"
     inkscape:connector-curvature="0" /><path
     d="m 112.14998,99.727971 -2.73723,13.571669 c -0.444,2.20276 -2.37972,3.78697 -4.62651,3.78697 H 104.303 c -2.23838,0 -3.91107,-2.05743 -3.45426,-4.24858 l 0.49844,-2.39173 h 2.65676 l -0.50284,2.42016 c -0.15694,0.75427 0.41916,1.46209 1.18945,1.46209 h 0.74666 c 0.64698,0 1.20428,-0.4564 1.33199,-1.09057 l 2.72402,-13.510009 z"
     style="fill:#1f1617;fill-opacity:1;fill-rule:nonzero;stroke:none;stroke-width:0.40017834"
     id="path138"
     inkscape:connector-curvature="0" /><path
     d="m 125.70063,99.727971 -0.50285,2.882959 h -7.59236 l -0.78309,3.88226 h 6.92376 l -0.53688,2.8121 h -6.95418 l -0.898,4.44915 h 7.89942 l -0.47242,2.71081 h -10.63386 l 2.17714,-10.7956 1.19867,-5.941679 z"
     style="fill:#1f1617;fill-opacity:1;fill-rule:nonzero;stroke:none;stroke-width:0.40017834"
     id="path142"
     inkscape:connector-curvature="0" /><path
     d="m 135.08886,113.7546 v 2.71081 h -9.85756 l 3.3758,-16.737284 h 2.66037 l -2.82892,14.026474 z"
     style="fill:#1f1617;fill-opacity:1;fill-rule:nonzero;stroke:none;stroke-width:0.40017834"
     id="path146"
     inkscape:connector-curvature="0" /><path
     d="m 149.02774,109.30525 c -1.00249,3.17682 -3.96993,5.50609 -6.03257,4.85431 -2.06263,-0.65138 -2.94381,-3.99675 -1.94132,-7.17357 1.00289,-3.17683 4.10164,-5.29311 6.16108,-4.64173 2.06263,0.65137 2.81891,3.78416 1.81281,6.96099 m -1.62024,-9.641379 c -3.27491,-0.567305 -7.5351,2.427359 -8.78742,7.028659 -1.31676,4.85071 -0.80351,8.8883 3.44667,10.16784 2.67358,0.80672 7.96348,-1.81602 9.29707,-6.66393 1.33679,-4.85111 1.30996,-9.61776 -3.95632,-10.532569"
     style="fill:#1f1617;fill-opacity:1;fill-rule:nonzero;stroke:none;stroke-width:0.40017834"
     id="path150"
     inkscape:connector-curvature="0" /><path
     d="m 171.14156,104.26821 c 0,1.2303 -0.99608,2.22598 -2.22597,2.22598 h -3.79738 l 0.70262,-3.88186 h 3.79898 c 0.84035,0 1.52175,0.68142 1.52175,1.52216 z m -1.07095,6.92856 c 0,1.41326 -1.14582,2.55908 -2.56068,2.55908 h -3.76374 l 0.9032,-4.45077 h 4.10004 c 0.72946,0 1.32118,0.59174 1.32118,1.32118 z m 3.77495,-7.3209 c 0.11371,-1.04414 -0.13932,-2.04903 -0.85796,-2.83493 -0.64657,-0.70823 -1.5758,-1.116193 -2.53545,-1.116193 h -6.80645 l -3.27972,16.541903 h 6.77203 c 0.82994,0 1.65827,-0.18496 2.40533,-0.55008 2.04662,-1.0029 3.1444,-3.21526 3.1524,-5.44285 0.004,-0.88998 -0.16214,-2.27562 -0.91841,-2.87535 1.06975,-0.97967 1.90889,-2.2528 2.06823,-3.7225"
     style="fill:#1f1617;fill-opacity:1;fill-rule:nonzero;stroke:none;stroke-width:0.40017834"
     id="path154"
     inkscape:connector-curvature="0" /><path
     d="m 185.72654,104.36977 c 0,1.52256 -1.2323,2.75806 -2.75486,2.75806 h -3.96311 l 0.9116,-4.51682 h 4.39511 c 0.7799,0 1.41126,0.63457 1.41126,1.41446 z m 0.14172,-4.445949 h -7.62277 v 0.0068 h -0.4456 l -3.37581,16.737289 h 2.66037 l 1.37042,-6.79204 3.04191,-0.16214 c 1.81922,-0.007 2.4742,0.99929 2.04902,2.30925 -0.23301,0.70864 -0.36112,1.44488 -0.38834,2.19075 l -0.074,2.2516 h 3.26411 c 0,0 -0.46521,-1.06294 0.16575,-5.01285 0.0876,-0.26024 0.13171,-0.52007 0.13171,-0.7799 0,-0.97247 -0.60774,-1.90089 -1.66467,-2.43417 l -0.074,-0.0136 c 2.09987,-0.37794 3.68969,-2.21438 3.68969,-4.42234 v -1.14782 c 0,-1.50895 -1.22189,-2.730832 -2.72763,-2.730832"
     style="fill:#1f1617;fill-opacity:1;fill-rule:nonzero;stroke:none;stroke-width:0.40017834"
     id="path158"
     inkscape:connector-curvature="0" /><path
     d="m 199.53365,106.28144 c -0.0676,1.30836 -0.31227,2.60312 -0.75186,3.84022 -0.37353,1.05053 -0.94004,2.05823 -1.85925,2.72482 -0.92282,0.66899 -2.07065,0.90841 -3.19004,0.96285 -0.18257,0.009 -0.36593,0.0128 -0.54889,0.0128 H 192.053 l 2.22798,-11.21118 h 3.3658 c 0.60013,0 1.17424,0.29628 1.52255,0.7851 0.42198,0.59294 0.38354,1.42327 0.38394,2.11709 0,0.25623 -0.006,0.51246 -0.0196,0.76828 m -1.19506,-6.455738 h -6.16428 l -0.5537,2.785268 -2.22798,11.21118 -0.5637,2.84573 h 4.02759 c 6.93737,0 9.44799,-5.82078 9.69541,-11.79849 0,0 0.38556,-5.043688 -4.21334,-5.043688"
     style="fill:#1f1617;fill-opacity:1;fill-rule:nonzero;stroke:none;stroke-width:0.40017834"
     id="path162"
     inkscape:connector-curvature="0" /><path
     d="m 214.79719,109.2532 c -1.0025,3.17683 -3.96993,5.5061 -6.03257,4.85432 -2.06263,-0.65138 -2.94382,-3.99676 -1.94132,-7.17358 1.00288,-3.17643 4.10164,-5.29311 6.16107,-4.64173 2.06264,0.65138 2.81892,3.78416 1.81282,6.96099 m -1.62024,-9.641372 c -3.27491,-0.567305 -7.5351,2.427362 -8.78742,7.028652 -1.31676,4.85112 -0.80351,8.88831 3.44667,10.16784 2.67358,0.80672 7.96348,-1.81601 9.29707,-6.66392 1.33679,-4.85112 1.30996,-9.61776 -3.95632,-10.532572"
     style="fill:#1f1617;fill-opacity:1;fill-rule:nonzero;stroke:none;stroke-width:0.40017834"
     id="path166"
     inkscape:connector-curvature="0" /><path
     d="M 84.73364,93.229472 H 77.700586 L 68.58568,63.803303 62.790926,93.229472 h -7.202004 l 8.495955,-42.141877 h 6.920154 l 9.002406,28.469718 5.682654,-28.469718 h 7.539505 z"
     style="fill:#dc212a;fill-opacity:1;fill-rule:nonzero;stroke:none;stroke-width:0.40017834"
     id="path170"
     inkscape:connector-curvature="0" /><path
     d="m 123.33081,93.229472 h -8.83346 l -7.93306,-18.116912 -4.78265,4.050802 -2.9258,14.06611 h -7.089105 l 7.933053,-42.141877 h 7.427002 l -3.37739,17.74458 0.93002,0.02802 17.07559,-17.772604 h 8.38385 l -17.77941,17.891911 0.056,1.294351 z"
     style="fill:#dc212a;fill-opacity:1;fill-rule:nonzero;stroke:none;stroke-width:0.40017834"
     id="path174"
     inkscape:connector-curvature="0" /><path
     d="m 236.85292,92.891851 h -8.83346 l -7.93305,-17.971582 -4.78266,4.018773 -2.92579,13.952809 h -7.08911 l 7.93305,-41.803176 h 7.42701 l -3.3774,17.601653 0.93002,0.02802 17.07559,-17.629678 h 8.38385 l -17.77941,17.748183 0.056,1.283942 z"
     style="fill:#dc212a;fill-opacity:1;fill-rule:nonzero;stroke:none;stroke-width:0.40017834"
     id="path178"
     inkscape:connector-curvature="0" /><path
     d="m 163.92534,62.043417 c 0,3.102359 -2.51143,5.614193 -5.61419,5.614193 h -9.57692 l 1.77198,-9.789906 h 9.58092 c 2.11988,0 3.83821,1.717927 3.83821,3.838213 z m -2.7008,17.47354 c 0,3.56477 -2.88977,6.454539 -6.45774,6.454539 h -9.49285 l 2.27844,-11.224782 h 10.34038 c 1.83964,0 3.33177,1.492127 3.33177,3.332164 z m 9.52007,-18.46282 c 0.28706,-2.633142 -0.35112,-5.168196 -2.16393,-7.149958 -1.63065,-1.785589 -3.97354,-2.815304 -6.39408,-2.815304 h -17.16607 l -8.27056,41.718701 h 17.07839 c 2.09266,0 4.18253,-0.466014 6.06619,-1.387634 5.16179,-2.528249 7.92986,-8.108811 7.95028,-13.726207 0.01,-2.244796 -0.40877,-5.738703 -2.31607,-7.251248 2.69721,-2.470998 4.81389,-5.681453 5.21585,-9.38835"
     style="fill:#dc212a;fill-opacity:1;fill-rule:nonzero;stroke:none;stroke-width:0.40017834"
     id="path182"
     inkscape:connector-curvature="0" /><path
     d="m 172.36493,80.359066 7.25805,0.548487 c 0,0 -1.18145,7.089505 7.25806,6.583055 8.4395,-0.50645 8.10201,-6.583055 8.10201,-6.583055 0,0 0.67539,-3.713302 -4.47279,-4.979228 -5.14817,-1.265926 -14.854,-2.109876 -14.5161,-10.380832 0.3375,-8.270954 7.34213,-14.263084 13.1657,-15.022559 5.82319,-0.759476 12.99676,-0.675 14.93809,6.161079 0,0 0.59052,3.038302 0,7.005029 h -7.34253 c 0,0 0.92842,-3.966727 -0.675,-5.401603 -1.60383,-1.434876 -8.60846,-2.194352 -11.56229,0.843951 0,0 -2.27882,2.953827 -0.84394,5.992128 0,0 1.0125,2.660367 9.19898,3.735323 8.18647,1.075356 9.48043,5.914058 9.5649,8.952361 0.0844,3.038301 -2.22237,12.293733 -11.16833,15.078609 -4.40952,1.372821 -8.67131,1.823622 -13.07843,0.01642 -2.26761,-0.930028 -4.09244,-2.742439 -4.92598,-5.047289 -1.29476,-3.580784 -0.9004,-7.501871 -0.9004,-7.501871"
     style="fill:#dc212a;fill-opacity:1;fill-rule:nonzero;stroke:none;stroke-width:0.40017834"
     id="path186"
     inkscape:connector-curvature="0" /><path
     inkscape:connector-curvature="0"
     style="fill:#ffffff;fill-opacity:1;fill-rule:nonzero;stroke:none;stroke-width:0.40017834"
     d="m 188.40073,249.86525 c -5.98211,1.45169 -14.889,3.27398 -25.23581,4.3105 v 38.00319 c 8.03435,-4.24657 16.57331,-9.18363 25.23581,-15.4424 z"
     id="path1330" /><path
     inkscape:connector-curvature="0"
     id="path1332"
     style="fill:#ffffff;fill-opacity:1;fill-rule:nonzero;stroke:none;stroke-width:0.40017834"
     d="m 213.38152,204.4636 7.34254,-4.72621 -3.20725,15.52901 8.48033,5.40121 c 0,0 -3.56156,4.19973 -12.61562,8.48354 v 25.34574 c 6.52901,-7.15316 12.91589,-15.42091 18.9957,-25.08911 2.28564,-3.63244 4.35827,-7.41019 6.23875,-11.26522 v -88.28531 h -25.23445 z" /></svg>