<?xml version="1.0" encoding="utf-8"?>
<!-- Generator: Adobe Illustrator 12.0.0, SVG Export Plug-In . SVG Version: 6.00 Build 51448)  -->
<!DOCTYPE svg PUBLIC "-//W3C//DTD SVG 1.1//EN" "http://www.w3.org/Graphics/SVG/1.1/DTD/svg11.dtd" [
	<!ENTITY ns_svg "http://www.w3.org/2000/svg">
	<!ENTITY ns_xlink "http://www.w3.org/1999/xlink">
]>
<svg  version="1.1" id="Ñëîé_1" xmlns="&ns_svg;" xmlns:xlink="&ns_xlink;" width="522.235" height="716.993"
	 viewBox="0 0 522.235 716.993" overflow="visible" enable-background="new 0 0 522.235 716.993" xml:space="preserve">
<g>
	<path fill-rule="evenodd" clip-rule="evenodd" fill="#D4AC62" d="M358.203,61.789c-6.639-10.185-13.167-23.184-15.215-37.036
		L261.117,0l-81.869,24.752c-2.045,13.838-8.563,26.824-15.195,37.003l-0.295,0.502c-16.036,4.281-34.613,8.968-54.142,13.358
		C50.32,88.944,0,91.12,0,91.12v208.625C0,395.76-0.26,467.17,26.656,514.897c26.384,46.783,92.752,137.632,234.462,202.096h0
		c141.71-64.464,208.078-155.313,234.462-202.096c26.915-47.727,26.655-119.137,26.655-215.152V91.12
		c0,0-50.319-2.176-109.615-15.504c-19.492-4.381-38.037-9.059-54.052-13.334L358.203,61.789z"/>
	<path fill-rule="evenodd" clip-rule="evenodd" fill="#21A7DB" d="M261.117,8.525c4.189,1.267,66.608,20.138,74.768,22.605
		c5.185,23.573,20.927,43.731,28.855,52.705c-4.566,7.762-11.438,22.599-11.438,41.645c0,2.332,0.103,4.728,0.325,7.18
		c1.655,18.199,8.184,32.564,12.058,39.707c-6.958,10.26-24.954,37.834-44.651,76.333c-19.736,38.576-30.545,74.15-34.053,86.73
		c-6.345,1.592-22.896,5.749-25.865,6.493c-2.969-0.745-19.52-4.901-25.864-6.493c-3.508-12.581-14.317-48.155-34.053-86.73
		c-19.697-38.499-37.693-66.073-44.65-76.333c3.873-7.143,10.402-21.508,12.057-39.707c0.223-2.452,0.326-4.848,0.326-7.18
		c0-19.046-6.871-33.883-11.438-41.645c7.93-8.974,23.671-29.132,28.857-52.705C194.509,28.663,256.928,9.792,261.117,8.525z"/>
	<path fill-rule="evenodd" clip-rule="evenodd" d="M266.762,291.534c-1.563-0.476-2.447-2.583-2.447-2.583
		c-1.155-0.137-1.699,0.067-2.242,1.767c-0.544,1.7-0.952,3.331-1.632,4.283c-0.68,0.952-0.952,0.205-1.088-1.36
		c-0.136-1.563-0.204-5.642,0.204-7.545c0.408-1.903,0.68-4.011,0.68-5.506c0-1.495,1.496-2.311,1.496-2.311
		s-0.409-0.612-0.136-2.243c0.271-1.632,1.223-1.359,1.767-1.972c0.544-0.612,0.816-1.564,0.34-2.379
		c-0.476-0.815-1.427-0.815-2.447-0.067c-1.02,0.747-2.312,2.04-2.923,1.495c-0.612-0.544,0.136-2.04,0.884-3.399
		c0.748-1.36,0.884-2.175,2.719-3.875c1.835-1.7,3.67-2.039,3.67-2.039c0.408-2.175,2.651-2.244,4.351-1.768
		c1.699,0.476,3.195,1.903,5.099,3.195c1.904,1.292,1.292,1.972,1.835,2.107c0.545,0.136,0.749-0.544,2.176-2.312
		c1.428-1.767,2.379-2.787,3.672-4.69c1.291-1.904,1.835-3.467,1.699-4.895c-0.136-1.428-1.496-2.244-4.079-3.06
		c-2.583-0.815-5.915-1.291-9.109-1.563s-4.487-1.02-5.643-1.972s-1.971-0.272-2.991,1.835c-1.02,2.108-3.263,5.235-5.099,7.682
		c-1.835,2.447-2.923,2.311-4.215,1.428c-1.292-0.884-1.156-1.156,0.34-2.516c1.496-1.359,2.719-2.379,3.467-3.875
		c0.748-1.495,1.496-5.981,1.02-12.984c-0.476-7.002,0.204-9.177,1.768-14.48c1.563-5.302,3.603-7.138,5.778-10.129
		c2.175-2.991,2.311-4.011,1.224-5.709c-1.088-1.7-2.991-2.652-5.575-1.564c-1.597,0.673-2.787,3.059-3.059,4.215
		c-0.271,1.156,0.272,2.447,0.748,3.807c0.476,1.359,1.088,2.515-0.748,4.826c-1.835,2.311-2.855,4.486-3.875,6.187
		c-1.02,1.699-1.632,2.378-1.835,1.563c-0.205-0.816-0.272-1.563,0.747-3.127c1.02-1.563,1.292-2.787,0.408-2.855
		c-0.884-0.067-1.292,0.952-2.38,2.991c-1.087,2.039-1.155,3.467-1.699,5.915c-0.543,2.447-1.087,4.351-0.952,6.05
		c0.136,1.7,1.02,4.079,0.408,4.691c-0.612,0.612-1.768,0.679-2.991-1.088c-1.224-1.767-1.699-2.923-2.923-1.971
		c-1.223,0.951-2.651,2.175-2.04,3.331s0.816,2.515-0.272,4.962c-1.087,2.448-2.107,3.875-4.146,4.623
		c-2.04,0.748-2.583,0.272-4.35,1.156c-1.768,0.883-4.487,1.359-5.643,0.408c-1.156-0.952-1.768-1.088-0.205-2.244
		c1.564-1.155,2.788-0.543,2.991-1.903c0.204-1.359-0.883-0.339-0.952-1.835c-0.068-1.495,0.204-3.807-0.543-4.282
		c-0.748-0.477-1.768,0.068-1.768,0.068s0.068,1.359,0.068,3.807c0,2.447-0.204,2.923-2.651,4.691
		c-2.447,1.768-3.467,2.311-5.574,2.175c-2.107-0.136-3.264-0.475-4.079-1.292c-0.816-0.815-1.836-1.224-1.971-0.204
		c-0.136,1.021-0.68,2.04-0.544,3.06c0.136,1.019-0.204,1.427-0.748,1.902c-0.543,0.477-1.088,0-1.972-1.699
		c-0.883-1.699-1.087-3.807-0.68-5.507c0.408-1.699,0.884-1.903-0.068-2.923c-0.952-1.019-1.903-2.039-2.515-3.738
		s-0.884-2.379-2.244-1.904c-1.359,0.476-2.107,1.156-2.583,1.156c-0.477,0-1.564-0.408-0.477-4.011
		c1.088-3.603,1.768-4.623,3.331-5.71c1.564-1.087,3.399-1.224,3.399-1.224c-0.612-1.428,0.816-2.244,1.7-2.379
		c0.884-0.136,1.224-1.156,1.224-1.156s-0.749-2.04-0.477-3.603c0.272-1.563,1.36-2.108,1.427-2.719
		c0.069-0.612-0.135-1.428-1.767-2.312c-1.631-0.884-1.699-1.019-0.883-1.835c0.815-0.816,3.263-1.156,5.914-0.68
		c2.651,0.476,4.079,1.496,4.079,1.496s2.312-0.476,3.671,0.543c1.36,1.02,2.583,2.719,2.583,4.351c0,1.631-1.223,1.631-1.359,2.651
		c-0.136,1.02,0.136,2.107,1.156,2.379c1.02,0.272,2.922,0,4.962-0.748s4.146-1.428,5.303-2.515
		c1.155-1.088,2.515-3.467,3.807-5.982c1.445-2.814,1.972-4.351,1.7-5.167c-0.272-0.815-1.7-2.311-2.176-3.739
		c-0.476-1.427-1.223-2.379-2.039-2.447s-1.359,0.272-3.331,1.903c-1.971,1.631-3.399,1.496-6.118,1.359
		c-2.719-0.136-3.059-0.271-3.127-1.223c-0.068-0.952,2.447-2.244,3.535-3.263c1.087-1.02,1.155-1.903,0.611-1.971
		c-0.544-0.068-2.787-1.496-4.215-2.651c-1.427-1.156,0-1.225,1.836-1.36c1.835-0.136,3.059-1.496,4.622-3.128
		c1.563-1.631,2.855-4.554,4.759-7.613c1.904-3.059,3.127-4.69,5.371-6.39c2.244-1.699,4.079-2.855,5.778-2.991
		c1.699-0.136,3.263-0.272,4.486-1.36c1.224-1.088,1.972-1.496,2.039-2.515c0.068-1.02-1.087-2.379-2.922-3.671
		c-1.836-1.292-2.379-2.923-2.515-4.215c-0.136-1.292-1.768,0-3.06,1.224s-2.855,1.36-4.895,2.652
		c-2.039,1.291-4.418,3.331-6.322,5.846c-1.903,2.515-2.855,4.283-3.603,7.138c-0.748,2.855-1.156,2.923-2.176,1.971
		s-0.271-1.971,0.409-5.234c0.679-3.264,0.815-5.438,0.679-7.41c-0.136-1.971-0.748-2.855-1.428-3.127s-2.855,1.359-4.758,2.991
		s-2.651,4.215-2.651,6.322c0,2.108,0.068,2.244-0.816,2.379c-0.883,0.137-2.04-0.476-3.127-2.311
		c-1.087-1.836-1.563-5.643-1.563-8.565c0-2.924-0.748-3.196-1.972-2.516c-1.224,0.68-2.244,2.855-3.263,4.623
		c-1.02,1.767-1.428,3.399-0.815,4.418c0.611,1.02,1.087,2.107,0.611,2.651s-1.903,0.136-3.263-1.156
		c-1.36-1.292-1.292-2.719-1.496-4.214c-0.204-1.496-0.476-2.991-0.34-5.167c0.136-2.175,0.068-2.855-0.816-2.787
		c-0.883,0.068-1.563,0.68-2.991,3.603c-1.428,2.923-1.904,4.759-1.836,7.138c0.068,2.379-0.272,2.107-1.087,1.835
		c-0.816-0.272-1.631-1.495-2.719-4.079c-1.087-2.583-1.835-4.011-1.835-6.866c0-2.855,0.272-4.351,0.272-4.351
		c-1.863-0.762-2.923,0.748-2.923,1.835c0,1.088,0.136,1.903-0.952,4.147s-1.632,1.632-3.331,1.7c-1.7,0.067-2.311,1.02-2.72,2.719
		c-0.407,1.699-0.135,2.651,0.885,3.739c1.02,1.087,0.747,2.039,0.407,3.059c-0.34,1.02-2.447-0.34-4.351-2.787
		c-1.903-2.448-2.243-3.807-1.971-6.526c0.272-2.719,1.155-4.215,1.155-4.215c-0.952-1.903,0.068-4.962,0.068-4.962
		c-0.748-0.34-1.767,0.068-2.243,1.223c-0.477,1.156-1.156,2.583-2.583,3.739c-1.428,1.156-3.331,0.952-4.419,0
		c-1.087-0.952-2.243-3.331-2.175-5.506c0.067-2.175,0.407-4.011,1.699-5.574s2.515-1.632,3.467-0.952
		c0.952,0.68,2.107,1.088,2.923,0.544c0.815-0.544,1.7-1.088,1.7-1.088s0.068-2.243,0-4.419c-0.068-2.175,1.156-4.214,3.807-5.438
		s3.807-1.156,4.69-0.748c0.884,0.408,1.359,0.476,1.224-0.68c-0.136-1.156,0.34-2.108,2.515-3.943s3.535-2.175,5.506-1.631
		c1.972,0.544,1.632,1.156,2.379,1.359c0.748,0.205,0.952-1.292,0.204-2.107c-0.748-0.815-2.175-1.699-3.195-2.855
		c-0.407-0.461,1.156-0.748,2.311-0.408c1.156,0.34,1.768,0.136,3.264-0.408c1.495-0.543,3.195,0.544,4.011,1.904
		c0.815,1.359,1.902,1.059,3.059,1.02c1.971-0.068,3.413-1.976,6.934-4.283c3.943-2.583,7.342-4.623,7.342-4.623
		c0.136-1.631,0.952-4.418,2.175-6.322c1.223-1.903,1.972-2.991,1.835-3.875c-0.136-0.884-1.768-0.952-5.234-1.087
		c-3.467-0.137-5.574,0.476-7.002,1.087c-1.427,0.611-3.195-0.068-3.806-1.02c-0.612-0.952-0.409-1.428,0.816-1.632
		c1.223-0.204,3.059-0.748,4.69-2.379c1.631-1.631,2.108-3.059,1.292-4.486c-0.815-1.428-2.107-2.312-3.126-1.835
		c-1.02,0.476-2.175,1.631-2.447,2.787c-0.272,1.155-0.408,1.903-1.292,1.428c-0.883-0.476-1.223-2.244-1.427-4.419
		c-0.205-2.175,0.136-6.118,0.136-6.118c-0.748-0.612-1.36,0-1.768,1.7s-0.543,2.923-1.02,2.991
		c-0.476,0.068-2.175-1.224-3.467-3.06c-1.292-1.835-1.156-4.962-0.612-7.613c0.544-2.651,1.904-4.962,1.904-4.962
		c-1.904,0.067-2.651-0.612-3.535-1.768s-0.748-1.903-0.748-1.903c-2.175,0.204-4.894,0.136-5.03-0.34
		c-0.136-0.476,0.272-1.291,2.039-2.99c1.768-1.7,3.195-2.651,3.195-2.651s0-1.496,1.224-2.923s1.971-1.563,2.312-2.107
		c0.34-0.543-0.136-1.088-1.292-1.292c-1.155-0.204-2.039,0.068-3.875,0.204c-1.835,0.136-2.719-1.223-4.283-3.263
		c-1.563-2.039-0.68-4.214-0.543-5.03c0.135-0.815,0.34-1.563-0.136-1.835c-0.476-0.272-1.972-0.477-3.195-0.205
		s-1.563-0.136-1.563-0.612c0-0.476,1.563-1.427,2.243-3.603c0.571-1.828,1.563-2.651,3.195-4.215s3.671-1.156,4.555-0.611
		c0.883,0.543,1.495,0.747,2.243,0.611s1.836-0.68,3.195-0.272s2.04,0.544,2.04,0.544c-0.068-1.087,1.155-3.603,2.991-5.234
		c1.835-1.632,3.738-1.972,5.098-1.904c1.36,0.068,1.564-0.476,1.496-2.243c-0.068-1.768-1.087-2.787-2.244-3.604
		c-1.156-0.816-0.068-1.019,2.176-0.883c2.243,0.136,3.467,0,5.099,1.292c1.631,1.292,1.767,3.739,1.767,6.322
		c0,2.583,0.612,3.264,1.359,3.332c0.748,0.068,1.7,0.408,2.311,0.135c0.612-0.271,0.612-2.311,0.409-3.671
		c-0.205-1.359-0.612-2.175,0.068-2.719c0.68-0.544,1.563,0.204,3.194,2.243c1.632,2.04,1.904,2.379,1.496,4.759
		c-0.408,2.379-0.884,3.671-0.884,3.671c0.748,2.583,0.816,4.963-0.068,5.914c-0.884,0.952-2.584,2.312-4.283,3.127
		c-1.699,0.815-2.447,2.175-3.194,4.214c-0.748,2.04,0.067,3.875,1.223,6.458c1.156,2.583,1.768,3.06,2.516,5.575
		s2.243,3.943,4.623,5.914c2.052,1.7,2.787,1.835,2.991,1.292c0.204-0.544,0.544-1.563,1.496-2.379
		c0.951-0.815,1.087,0.136,1.087,1.768c0,1.631,0.815,1.155,1.495,0.543c0.68-0.612,0.612-1.768,0.272-3.399
		c-0.34-1.632,0.34-3.603,1.427-5.71c1.088-2.107,3.399-4.894,4.623-5.438c1.223-0.544,1.495,0.067,0.883,0.815
		s-0.748,1.496-1.36,3.195c-0.611,1.699-0.203,2.991,1.156,3.671s3.331,0.34,6.526-0.816c3.195-1.156,6.254-3.399,6.662-4.487
		c0.408-1.087-0.34-1.699-1.971-3.059c-1.558-1.299-1.155-2.312-0.815-3.128c0.34-0.815,1.02,0.408,1.36,1.428
		c0.339,1.02,0.951,1.02,2.243-0.136c1.292-1.156,3.603-2.855,4.962-4.079c1.36-1.224,2.039-2.787,1.427-4.011
		c-0.611-1.224-1.224-0.815-2.583-0.067c-1.359,0.748-3.263,1.292-4.486,1.292c-1.224,0-2.788-0.952-4.555-2.244
		c-1.768-1.291-2.787-3.059-4.419-5.166c-1.631-2.107-1.631-3.06-0.611-2.651c1.02,0.408,0.951,0.884,2.175,1.087
		c1.224,0.204,1.631-0.339,1.631-0.339c-1.427-0.952-2.923-2.651-4.011-4.487c-1.087-1.835-1.495-3.467-1.02-4.418
		c0.476-0.952,1.564,1.292,2.72,2.991c1.155,1.699,1.903,1.904,2.651,1.427c0.748-0.476,0.951-1.835,1.7-3.467
		c0.747-1.631,2.719-2.311,2.719-2.311s-0.816-1.631-2.448-4.011c-1.631-2.379-2.515-3.738-2.787-5.574
		c-0.272-1.835-0.136-5.166-0.204-6.73c-0.068-1.563-1.02-1.904-2.107-2.107c-1.088-0.204-0.884-0.477,0.204-1.7
		c1.087-1.224,2.039-1.019,2.719-1.835c0.68-0.815,1.699-1.223,3.467-0.34c1.768,0.884,2.855,2.992,2.923,4.758
		c0.068,1.769-0.408,3.332-0.612,4.963c-0.204,1.632,0.067,3.807,0.067,3.807c1.496,0,2.38-0.136,3.127-0.748
		c0.748-0.612,1.156-0.544,1.156-0.544c0-2.176,0.543-3.127,1.972-5.915c1.427-2.787,2.311-3.807,2.311-3.807
		s-0.203-2.311,0.68-4.282c0.885-1.972,1.768-1.835,2.924-1.835c1.155,0,1.983,0.705,2.515,1.835
		c0.544,1.156,2.787,2.583,5.37,4.623c2.584,2.04,3.536,2.855,4.487,2.855c0.952,0,1.563-0.408,2.379-0.816
		c0.816-0.408,1.36-0.204,2.312,1.02c0.952,1.224,2.992,3.875,3.807,5.234c0.815,1.359,1.564,2.175,3.604,1.224
		c2.039-0.953,3.33-1.836,5.507-1.836c2.175,0,2.583,0.068,4.419,2.04c1.835,1.972,2.515,2.515,3.806,3.059
		c1.292,0.543,2.107,1.02,1.224,1.835c-0.883,0.815-2.243,0.68-3.807,0.815c0,0-0.271,1.156,0.408,1.564
		c0.68,0.408,2.516,0.68,4.146,3.331c1.631,2.651,3.671,5.438,4.555,6.73c0.883,1.291,1.632,0.884,2.651,0.884
		c1.021,0,2.039,0.136,1.021,2.04c-1.021,1.903-1.769,2.651-3.876,1.359c-2.107-1.292-3.681-1.875-4.826-2.04
		c-1.903-0.272-2.787,1.428-2.787,1.428s0.747,1.155,1.495,3.263s1.972,5.506,2.924,6.186c0.951,0.68,2.175,1.563,2.175,2.244
		c0,0.68-1.36,1.428-4.011,1.088c-2.651-0.34-5.234-1.428-5.914-1.904c-0.68-0.476-1.831,0.214-2.04,1.496
		c-0.544,3.331-1.563,5.438-2.923,7.682c-1.359,2.243-1.903,2.787-1.496,4.283c0,0,5.847-3.059,8.77-4.759
		c0,0,0.545-0.612,1.7-2.788c1.155-2.175,1.428-2.515,2.787-2.447c1.359,0.067,2.312-0.068,5.914-1.632s8.021-3.331,8.837-4.418
		c0.816-1.088,2.379-3.331,5.031-3.195c0,0,0.476-1.563,1.088-2.923c0.611-1.359,1.631-2.04,2.854-2.447
		c1.224-0.408,2.855-0.272,3.942,0.476c0,0,0.545-0.476,1.973-0.884c1.427-0.408,3.467-0.204,4.146,1.496
		c0.68,1.699-0.545,3.603-2.991,5.709c0,0-0.204,1.292-0.816,2.72c-0.611,1.428-1.903,2.991-3.942,3.263
		c-2.04,0.272-2.991,0-4.079-1.087c0,0-2.039,1.36-3.874,1.563c0,0-2.447,6.662-3.195,11.148
		c-0.748,4.487-2.107,14.276-2.787,20.598s-1.156,11.693-1.089,17.811c0.069,6.118,0.341,9.449,0.613,11.489
		c0.271,2.039,0.067,3.331-0.884,2.855c-0.952-0.476-1.021-1.155-1.496-5.302c-0.476-4.146-1.223-6.526-2.175-9.79
		c-0.952-3.263-1.156-5.166-1.292-6.525c-0.136-1.36-1.156-3.399-1.428-7.41s-0.271-4.011-0.271-4.011s-1.225-0.816-1.836,2.583
		c-0.611,3.399-1.835,10.673-2.243,15.84s-1.7,8.973-2.516,13.936c-0.815,4.962-2.447,8.293-3.603,8.905
		c-1.156,0.612-2.244,0.476-1.292-0.748c0.952-1.224,2.176-3.535,2.991-7.274c0.816-3.739,0.884-6.05,0.748-8.498
		s-1.387-10.339-2.107-15.023c-0.815-5.302-1.632-7.274-1.359-14.616c0.271-7.342,0.816-10.605,0.816-10.605
		s-0.272-0.68-1.973,0.612c-1.699,1.292-2.311,2.175-1.768,2.72c0.544,0.543,1.903,1.224,0.544,2.651
		c-1.36,1.428-2.583,1.7-3.331,1.7s-1.699,0.612-1.768,2.379c-0.067,1.768-0.543,4.283-0.747,6.39
		c-0.204,2.108,0.476,3.807,1.835,5.438s2.312,1.835,2.312,2.516c0,0.68-1.292,2.107-3.534,3.059
		c-2.244,0.952-4.624,1.088-6.73-0.204c-2.107-1.292-2.72-1.563-3.06-0.952c-0.34,0.612-0.407,3.671,0.204,7.07
		c0.612,3.399,2.186,9.926,1.768,13.324c-0.544,4.418-1.292,7.069-2.243,8.973c-0.952,1.903-2.651,2.991-3.06,4.35
		c-0.407,1.36-0.68,4.691-0.34,7.41c0.34,2.719,0.885,9.313,1.088,11.285c0.204,1.971,3.467,14.004,5.03,18.49
		s5.574,12.984,7.546,15.771c1.971,2.788,5.235,5.71,7.41,5.982c2.175,0.272,4.622-0.068,6.458-2.175
		c1.835-2.108,2.039-4.147,2.039-5.847c0-1.699-0.204-3.67-2.651-4.554c-2.447-0.884-6.934-2.583-9.449-6.186
		s-3.398-6.322-3.33-10.469c0.067-4.147,1.834-9.518,5.029-13.12c3.195-3.603,8.43-7.002,11.149-9.449
		c2.719-2.447,5.71-5.506,7.342-7.274c1.632-1.767,2.243-4.079,2.651-5.167c0.407-1.088,1.088-1.156,1.155,0.612
		c0.068,1.768,0.136,7.546,0.136,7.546s1.359,0.476,2.244-1.02c0.883-1.496,1.698-3.671,2.106-5.303s1.156-1.903,1.633-0.204
		c0.475,1.699,0.407,6.797-0.409,9.993c-0.815,3.195-2.516,6.526-3.33,7.614c-0.816,1.088-0.885,2.447-0.612,3.467
		c0.271,1.02,0.681,2.72,0.951,3.467c0.272,0.748,1.359,2.176,2.651,2.583c0.639,0.202,1.836,0,2.583-1.632
		c0.748-1.632,1.36-2.719,1.36-0.816s-1.224,4.827-3.194,8.09c-1.972,3.263-4.284,3.467-6.595,3.331
		c-2.312-0.136-3.467-1.768-4.418-2.991c-0.953-1.224-2.634-1.998-3.876-0.34c-1.02,1.359-1.087,4.623-0.407,7.138
		c0.679,2.516,2.175,4.011,4.35,6.594c2.176,2.583,2.924,5.235,2.721,10.129c-0.205,4.895-2.38,7.885-2.38,7.885
		s0.544,1.632,0.884,4.963c0.339,3.331,0.476,5.37-1.563,8.905c-2.04,3.535-3.398,3.671-3.332,2.72
		c0.068-0.953,0.748-2.38,0.748-3.332s-1.359-2.175-2.379-2.855s-2.107-0.476-4.827-0.476c-2.719,0-6.117,0-9.721-2.379
		s-6.39-4.623-8.43-5.847c0,0,0.34,4.487-0.544,9.246c-0.883,4.758-1.359,6.662-0.747,7.342c0.611,0.679,1.563,0.476,2.039-1.088
		c0.477-1.564,0.34-2.787,2.855-2.583s3.467,0.204,4.351,2.175s0.271,4.826,0.68,5.982c0.408,1.156,1.291,2.651,2.379,2.787
		c1.088,0.136,2.108-1.292,2.924-1.903c0.815-0.612,1.292-1.7,1.902-2.244c0.612-0.543,1.769-0.068,1.157,2.107
		c-0.612,2.176-1.36,6.595-2.447,9.382c0,0,1.155,0.612,1.902,3.262c0.748,2.651,0.272,5.643-1.359,7.274c0,0,0.34,1.087-1.02,3.603
		c-1.359,2.516-2.176,2.652-2.107,3.332s0.815,0.884,1.768,2.379c0.951,1.495,1.088,2.311,1.02,3.806
		c-0.068,1.496,0.136,2.651,1.224,2.72c1.088,0.068,2.516,0.068,3.263-0.748c0.748-0.816,1.156-0.884,1.156-0.068
		s-1.224,2.107-1.836,2.788c-0.612,0.68-0.543,1.903-2.311,2.855c-1.769,0.952-3.468,1.699-4.487,1.699s-1.903-0.203-2.175-1.02
		c0,0-2.379,0.407-3.943-0.272c-1.563-0.68-2.447-1.971-2.516-3.195c0,0-1.155,0.612-1.631,1.835
		c-0.476,1.224-1.768,2.379-1.7,3.331c0.069,0.952,1.292,2.447,0.612,4.691c-0.68,2.243-0.068,3.807-1.632,5.438
		c-1.563,1.631-2.991,2.991-4.486,3.262c-1.495,0.272-2.04,0.544-2.175,1.972c-0.137,1.427,0.067,2.991,0.611,4.011
		c0.415,0.78,1.291,1.155,1.156,1.971c-0.137,0.817-1.359,1.496-3.399,0.341c-2.04-1.157-3.128-2.379-3.739-4.623
		c-0.611-2.243-1.495-3.059-2.039-3.262c-0.544-0.205-1.316,0.387-2.312,1.63C270.026,292.622,268.327,292.01,266.762,291.534z
		 M257.109,40.485c0,0,0.043,1.266,1.292,2.243c1.563,1.224,2.243,1.087,2.787,0.952c0,0,0-0.544-0.884-1.292
		c-0.884-0.747-1.36-1.155-1.903-1.631C257.857,40.282,257.109,40.485,257.109,40.485z M270.094,49.526
		c-1.087,0.906-1.359,1.224-0.816,1.972c0.544,0.748,1.088,1.496,1.699,0.476c0.612-1.02,1.156-1.971,0.748-2.651
		S270.91,48.846,270.094,49.526z M261.053,53.401c-0.912-0.281-1.428-0.136-0.544,1.156c0.885,1.292,1.292,2.243,2.175,2.515
		c0.885,0.272,0.612-0.136,0.612-1.156S261.937,53.673,261.053,53.401z"/>
	<path fill-rule="evenodd" clip-rule="evenodd" fill="#FFFFFF" d="M16.441,374.544c-0.512-21.264-0.53-44.356-0.53-69.318
		c0-0.917,0-173.597,0-199.241c19.648-1.63,56.152-5.62,97.193-14.844c11.647-2.618,22.924-5.33,33.523-7.995l0.523-0.186
		c0,0,15.953,20.092,13.328,48.96c-2.176,23.936-13.601,40.8-13.601,40.8s22.343,31.392,47.057,79.696
		c23.936,46.784,34.679,89.76,34.679,89.76l32.502,8.16l32.503-8.16c0,0,10.743-42.976,34.679-89.76
		c24.713-48.304,47.057-79.696,47.057-79.696s-11.425-16.864-13.601-40.8c-2.624-28.868,13.328-48.96,13.328-48.96l0.424,0.16
		c10.628,2.674,21.938,5.395,33.623,8.021c41.042,9.225,77.545,13.214,97.193,14.844c0,25.644,0,198.325,0,199.241
		c0,24.962-0.019,48.054-0.529,69.318l-0.898-0.001H17.335L16.441,374.544z"/>
	<path fill-rule="evenodd" clip-rule="evenodd" fill="#21A7DB" d="M16.441,374.544c1.375,57.127,6.318,101.05,24.074,132.535
		c25.661,45.501,88.257,130.311,220.602,192.345C393.462,637.39,456.059,552.581,481.719,507.08
		c17.757-31.485,22.7-75.408,24.075-132.535l-0.898-0.001H17.335L16.441,374.544z"/>
	<polygon fill="#FFFFFF" points="115.328,474.914 115.328,448.804 106.034,448.804 106.034,474.914 97.923,474.914 97.923,417.673 
		106.034,417.673 106.034,442.08 115.328,442.08 115.328,417.673 123.438,417.673 123.438,474.914 	"/>
	<polygon fill="#FFFFFF" points="147.855,417.673 155.966,417.673 155.966,474.914 147.855,474.914 147.855,463.513 
		139.153,437.444 139.153,474.914 131.042,474.914 131.042,417.673 139.153,417.673 147.855,445.337 	"/>
	<polygon fill="#FFFFFF" points="171.68,446.532 180.382,417.673 187.817,417.673 179.03,446.213 189.675,474.914 181.565,474.914 
		171.68,447.01 171.68,474.914 163.569,474.914 163.569,417.673 171.68,417.673 	"/>
	<polygon fill="#FFFFFF" points="234.113,417.673 224.313,474.914 214.682,474.914 204.881,417.673 212.907,417.673 219.498,461.36 
		226.087,417.673 	"/>
	<path fill="#FFFFFF" d="M264.444,417.673v46.397c-0.051,8.938-3.886,10.843-11.575,10.843h-2.45
		c-7.688,0-11.594-2.449-11.491-10.923v-46.317h8.111v46.557c0,2.472,0.93,3.747,3.549,3.747h2.027c2.45,0,3.717-1.275,3.717-3.747
		v-46.557H264.444z"/>
	<polygon fill="#FFFFFF" points="280.328,446.532 289.03,417.673 296.465,417.673 287.678,446.213 298.324,474.914 290.212,474.914 
		280.328,447.01 280.328,474.914 272.217,474.914 272.217,417.673 280.328,417.673 	"/>
	<path fill="#FFFFFF" d="M311.586,474.914c-6.506,0-9.8-3.269-9.8-9.727v-37.708c0-6.537,3.21-9.806,9.716-9.806h6.928
		c6.506,0,9.716,3.269,9.716,9.806v37.708c0,6.458-3.296,9.727-9.801,9.727H311.586z M317.247,468.535
		c1.859,0,2.789-0.956,2.789-2.949V427c0-1.992-1.099-2.949-3.211-2.949h-3.802c-2.112,0-3.126,0.957-3.126,2.949v38.585
		c0,1.993,1.099,2.949,3.21,2.949H317.247z"/>
	<polygon fill="#FFFFFF" points="361.772,417.673 351.97,474.914 342.339,474.914 332.539,417.673 340.565,417.673 347.155,461.36 
		353.745,417.673 	"/>
	<path fill="#FFFFFF" d="M373.43,474.914h-8.111v-47.435c0-6.537,3.211-9.806,9.717-9.806h6.083c6.505,0,9.716,3.269,9.716,9.806
		v47.435h-8.111v-20.967h-9.293V474.914z M382.723,447.01v-19.053c0-2.232-1.183-3.349-3.548-3.349h-2.197
		c-2.365,0-3.548,1.116-3.548,3.349v19.053H382.723z"/>
	<path fill="#FFFFFF" d="M415.419,474.914l-5.323-23.12h-4.9v23.12h-8.11v-57.24h15.884c6.167,0,9.293,3.269,9.293,9.806v14.111
		c0,5.021-1.605,8.131-4.814,9.486l5.66,23.837H415.419z M405.196,445.256h5.323c2.45,0,3.633-1.355,3.633-4.145v-12.356
		c0-2.791-1.183-4.146-3.633-4.146h-5.323V445.256z"/>
	<path fill="#FFFFFF" d="M210.403,526.737l-3.126-5.857c2.788-1.504,4.816-2.85,6.083-3.879c1.183-0.949,2.282-2.216,3.379-3.72
		h0.845l5.323,2.691v54.141h-8.026v-45.75L210.403,526.737z"/>
	<path fill="#FFFFFF" d="M278.425,549.508c-6.506,0.014-9.559-3.616-9.559-10.345v-15.909c0-6.649,3.211-9.974,9.716-9.974h5.322
		c6.506,0,9.717,3.324,9.717,9.974v36.727c0,6.729-3.211,10.132-9.717,10.132h-4.815c-6.505,0-9.716-3.403-9.716-10.132v-2.801
		h8.111v3.513c0,1.662,0.844,2.533,2.449,2.533h3.464c1.437,0,2.112-0.871,2.112-2.533v-14.041l-0.896,0.001
		C284.614,546.653,282.866,549.5,278.425,549.508z M285.51,542.409v-19.946c0-1.503-1.014-2.295-3.126-2.295h-2.619
		c-1.858,0-2.788,0.792-2.788,2.295v17.176c0,1.821,0.93,2.771,2.788,2.771H285.51z"/>
	<path fill="#FFFFFF" d="M243.729,549.508c-6.506,0.014-9.559-3.616-9.559-10.345v-15.909c0-6.649,3.21-9.974,9.716-9.974h5.323
		c6.505,0,9.716,3.324,9.716,9.974v36.727c0,6.729-3.211,10.132-9.716,10.132h-4.816c-6.505,0-9.716-3.403-9.716-10.132v-2.801
		h8.111v3.513c0,1.662,0.845,2.533,2.45,2.533h3.463c1.437,0,2.113-0.871,2.113-2.533v-14.041l-0.896,0.001
		C249.918,546.653,248.17,549.5,243.729,549.508z M250.814,542.409v-19.946c0-1.503-1.014-2.295-3.126-2.295h-2.62
		c-1.858,0-2.788,0.792-2.788,2.295v17.176c0,1.821,0.93,2.771,2.788,2.771H250.814z"/>
	<path fill="#FFFFFF" d="M303.479,526.737l-3.126-5.857c2.788-1.504,4.816-2.85,6.083-3.879c1.184-0.949,2.281-2.216,3.38-3.72
		h0.845l5.322,2.691v54.141h-8.026v-45.75L303.479,526.737z"/>
	<path fill-rule="evenodd" clip-rule="evenodd" fill="#FEC900" d="M281.651,43.544c-0.681,0-1.564,1.155-1.564,2.175
		s0.137,2.243,1.292,3.126c1.155,0.884,2.107,1.224,3.331,0.884c1.224-0.34,1.902-1.563,1.359-1.699
		c-0.544-0.136-0.951-0.136-1.631,0.271c-0.681,0.408-1.292,0.34-1.836-0.271c-0.543-0.612-0.816-1.496-0.34-2.651
		C282.739,44.224,282.602,43.544,281.651,43.544z"/>
	<path fill-rule="evenodd" clip-rule="evenodd" fill="#FEC900" d="M284.166,45.38c-0.709,0.298-0.68,1.155,0.272,1.495
		c0.952,0.34,1.835-0.068,1.835-0.748S285.457,44.836,284.166,45.38z"/>
	<path fill-rule="evenodd" clip-rule="evenodd" fill="#FEC900" d="M252.419,26.277c-1.02,0-0.952,1.156-0.34,1.7
		s0.612,2.379-0.136,3.875c-0.748,1.496-0.884,4.011-0.34,5.847c0.543,1.835,1.427,2.515,1.427,0.951
		c0-1.563-0.204-3.331,0.408-3.807c0.612-0.476,0.612,0.34,0.543,1.904c-0.067,1.563-0.067,3.942,0.68,5.642
		c0.748,1.7,1.972,3.195,2.788,4.147s1.224,1.427,3.127,0.952c1.903-0.476,2.311-1.427,0.407-2.243
		c-1.903-0.816-3.942-1.564-4.623-3.195c-0.68-1.631-0.748-3.331-0.68-5.846c0.068-2.516,0.63-4.254,0.476-5.846
		C255.954,28.249,254.662,26.277,252.419,26.277z"/>
	<path fill-rule="evenodd" clip-rule="evenodd" fill="#FEC900" d="M260.033,39.261c-0.936,0.268-1.156,0.748-0.409,1.224
		c0.749,0.476,1.496,0.815,1.496-0.068C261.121,39.534,260.984,38.99,260.033,39.261z"/>
	<path fill-rule="evenodd" clip-rule="evenodd" fill="#FEC900" d="M259.625,49.05c-1.102,0.441-1.427,1.496-1.087,1.972
		c0.34,0.476,0.884,0.68,1.632,0.068c0.748-0.612,1.02-0.952,0.884-1.564C260.917,48.915,260.305,48.779,259.625,49.05z"/>
	<path fill-rule="evenodd" clip-rule="evenodd" fill="#FEC900" d="M263.092,47.895c-0.746,0.093-0.952,0.544-0.884,1.631
		c0.068,1.088-0.136,1.564,0.68,1.496s0.952-0.544,0.952-1.563S263.636,47.827,263.092,47.895z"/>
	<path fill-rule="evenodd" clip-rule="evenodd" fill="#FEC900" d="M266.355,47.419c-1.02,0-1.087,0.408-1.087,1.496
		c0,1.087-0.137,1.427,0.543,1.427s1.224-0.476,1.563-1.088C267.715,48.643,267.24,47.419,266.355,47.419z"/>
	<path fill-rule="evenodd" clip-rule="evenodd" fill="#FEC900" d="M265.675,52.178c-0.821,0.889-1.021,1.971-0.34,2.923
		c0.68,0.952,1.088,1.699,1.563,1.699s1.02-0.34,1.563-1.903c0.544-1.564,0-2.447-0.477-3.195
		C267.51,50.954,266.491,51.294,265.675,52.178z"/>
	<path fill-rule="evenodd" clip-rule="evenodd" fill="#FEC900" d="M279.951,40.961c0.477,0.816,0.408,0.952,0.952,0.952
		c0.543,0,0.951,0.068,1.563-0.748c0.611-0.816,1.495-0.408,3.331,1.02c1.835,1.427,2.99,2.787,4.486,3.739
		c1.496,0.951,0.815,1.496,0,2.175s-0.883,1.292,0.136,2.107c1.021,0.816,0.612,1.496-0.067,1.632s-2.107,0.136-3.06-0.544
		s-2.107-0.612-3.807-0.272c-1.7,0.34-2.923,0.611-3.195-0.476c-0.271-1.087-1.224-3.126-1.224-3.943c0-0.815,0.272-2.379,0-3.467
		c-0.271-1.087-0.484-2.273,0.068-3.195C279.339,39.602,279.475,40.145,279.951,40.961z M274.037,48.167
		c-0.204,0.952-0.34,1.767-0.611,2.991c-0.272,1.224-1.428,2.651-3.127,4.759c-1.7,2.107-2.924,3.399-4.419,3.399
		c-1.496,0-2.107-0.137-3.06-0.748c-0.952-0.612-2.447-1.768-2.923-2.991s-1.496-1.224-2.243-1.768
		c-0.748-0.543-0.952-1.359-0.748-2.515s0.068-1.631-1.224-1.292c-0.857,0.226-1.563,0.884-1.563,2.039
		c0,1.156-0.612,2.855-1.428,3.331c-0.815,0.476-2.107-0.136-1.971,0.748s0.068,1.427,1.836,1.632
		c1.767,0.203,2.515,0.883,3.739,1.087c1.223,0.204,1.087,1.156-0.272,1.088c-1.36-0.069-3.535,0.136-4.351,0.068
		c-0.816-0.068-1.768,0.34-0.34,1.087c1.428,0.748,2.515,1.292,3.604,1.971c1.087,0.68,1.496,0.748,3.671,0.612
		c2.175-0.136,3.603-0.204,4.283-0.68c0.681-0.476,2.243,0.067,2.991,2.039c0.748,1.971,1.902,4.418,2.515,6.798
		s0.204,3.739-0.272,3.739c-0.475,0-0.34-0.068-0.815-1.292c-0.476-1.223-1.563-1.903-2.312-2.515
		c-0.747-0.612-1.902-0.543-2.922,0.68c-1.02,1.224-2.38,2.107-2.38,2.583c0,0.476,0.068,0.816,1.971,0.952
		c1.905,0.136,1.799,1.286,1.02,2.515c-1.767,2.787-4.35,6.458-8.769,8.634c-4.419,2.175-6.526,1.903-8.702,1.155
		s-3.06-2.243-3.807-3.06c-0.748-0.815-1.564-1.155-2.175,0.136c-0.612,1.292-0.272,4.487,0.748,6.663
		c1.02,2.175,2.854,3.807,5.166,5.03c2.312,1.224,4.419,1.903,7.818,0.748s5.099-2.651,6.73-5.371
		c1.631-2.719,1.496-4.623,2.107-5.234c0.612-0.612,1.563-0.543,1.632,1.088c0.067,1.631-0.204,4.215-0.68,4.895
		c-0.476,0.68-0.476,1.835-1.02,3.127c-0.544,1.292-2.312,2.175-3.332,2.855c-1.02,0.68-1.496,1.088-0.952,2.039
		c0.544,0.952,2.379,0.544,3.943-0.272c1.563-0.815,3.875-2.515,5.03-3.399s2.923-2.787,3.671-4.69
		c0.747-1.903,1.495-2.379,1.835-3.671s0.204-2.175-0.748-1.088c-0.952,1.088-1.699,1.36-1.428,0c0.272-1.359,1.021-2.312,1.7-3.059
		c0.68-0.748,1.02-1.292,2.379-3.399c1.359-2.107,3.332-5.099,6.934-7.41c1.478-0.947,1.496-0.204,1.224,0.748
		c-0.271,0.952-1.699,2.04-2.446,3.399c-0.748,1.359-1.156,4.146-1.632,6.05s0.203,2.312,0.884,2.312
		c0.68,0,1.699-0.476,2.175-1.835c0.476-1.36,1.02-2.583,1.632-3.195c0.612-0.612,1.428-1.224,2.38-3.399
		c0.816-1.866,1.02-3.875,0.475-5.643c-0.544-1.767-1.291-1.291-3.194-1.02c-1.903,0.272-2.379-0.611-2.923-2.243
		c-0.544-1.631-0.137-1.699,1.224-1.836c1.359-0.135,1.903,0,1.835,0.952c-0.067,0.952,0.068,1.428,0.68,1.428
		c0.612,0,0.612-0.612,1.292-1.835c0.68-1.224,1.835-0.408,2.583,0.475c0.748,0.884,1.768,1.02,2.787,0.272
		c1.021-0.747,1.632-1.359,1.156-2.447c-0.477-1.088-0.205-1.835,1.224-2.312c1.428-0.476,2.107-0.272,2.787-1.292
		c0.68-1.02,1.359-1.428,1.836-0.884c0.475,0.544-0.205,1.631-0.749,2.311c-0.544,0.68-0.271,1.7,0.136,1.835
		c0.408,0.136,1.224,0.068,1.564-0.748c0.34-0.815,1.02-1.767,1.02-2.923s-0.477-2.107-1.632-2.516
		c-1.155-0.407-2.446,0.137-4.079,0.069c-1.631-0.069-1.971-0.612-2.175-1.835c-0.204-1.224,0.544-1.292,1.359-1.972
		s1.495-0.34,2.107,0.476c0.612,0.816,1.224,1.292,2.448,2.04c1.223,0.748,2.379,1.292,2.99,2.175
		c0.611,0.884,0.068,3.399-0.272,4.486c-0.339,1.088,0.204,1.088,1.156,1.496s1.972,1.767,3.468,2.447
		c1.495,0.68,3.738,1.699,4.486,0.815c0.747-0.883-0.205-1.835-1.02-3.942c-0.816-2.107-1.224-2.04-2.38-4.419
		c-1.156-2.379-1.563-2.855-2.855-3.739c-1.292-0.883-2.651-1.291-2.72-1.767c-0.067-0.476,1.564-0.544,2.856-0.884
		c1.291-0.34,3.263-0.476,4.554,0.272c1.292,0.748,1.972,0.816,2.584,0.68c0.611-0.136,0.543-1.835-0.272-3.535
		c-0.815-1.699-2.379-3.467-4.962-5.234c-2.583-1.767-4.487-1.495-6.119-0.68c-1.631,0.816-2.379,0.612-2.582,0.068
		c-0.205-0.543,0.748-1.563,1.563-2.243c0.816-0.68,1.904-0.271,2.447-0.816c0.544-0.544,1.496-1.224,2.651-1.563
		c1.156-0.34,0.68-1.292-0.543-2.175c-1.225-0.884-3.06-1.7-4.624-1.428c-1.563,0.272-3.942,2.107-5.098,2.448
		c-1.155,0.34-2.04-0.476-3.399-1.768c-1.359-1.292-2.312-3.671-3.127-5.371c-0.815-1.699-1.835-1.427-2.719-0.748
		s-1.563,1.631-2.379,1.631c-0.816,0-0.681-0.136-0.749-1.02c-0.067-0.884-0.135-1.36-0.747-1.7s-2.583-1.427-4.351-2.651
		c-1.768-1.224-2.787-1.292-4.011-0.748c-1.224,0.543-2.72,0.611-3.399,0.883c-0.68,0.272-1.902,2.176-3.398,4.963
		c-1.496,2.787-1.292,6.39-0.749,8.498c0.546,2.107,1.157,2.244,2.584,2.244c1.428,0,1.972,1.02,2.855,1.903
		s2.039,0.476,2.651-0.272c0.611-0.748,1.256-1.878,2.379-1.156C274.444,46.399,274.241,47.215,274.037,48.167z"/>
	<path fill-rule="evenodd" clip-rule="evenodd" fill="#FEC900" d="M333.927,61.491c-1.082,0.12-1.632,0.884-1.632,2.312
		s0.271,2.583,0.747,2.651c0.477,0.067,0.816,0.476,1.769-0.476c0.951-0.952,0.68-1.087,0.407-2.379
		C334.947,62.307,334.539,61.423,333.927,61.491z"/>
	<path fill-rule="evenodd" clip-rule="evenodd" fill="#FEC900" d="M329.577,66.454c-0.839,0.279-1.088,0.884-1.973,1.767
		c-0.884,0.884-1.019,1.496,0.069,1.496s1.767-0.612,2.446-1.02s0.612-0.952,0.341-1.496
		C330.188,66.657,329.984,66.317,329.577,66.454z"/>
	<path fill-rule="evenodd" clip-rule="evenodd" fill="#FEC900" d="M337.938,61.151c-1.123,0.468-1.36,1.156-0.748,1.836
		c0.612,0.68,1.292,0.884,1.971,0.204c0.68-0.68,1.768-1.632,1.225-2.244C339.84,60.335,338.753,60.811,337.938,61.151z"/>
	<path fill-rule="evenodd" clip-rule="evenodd" fill="#FEC900" d="M324.41,70.26c-0.664-0.199-0.884,0.204-3.874,1.496
		c-2.992,1.292-5.235,2.583-8.158,3.467c-2.924,0.884-3.738,1.224-5.167,4.963c-1.427,3.739-2.379,7.477-2.583,11.964
		c-0.204,4.486-0.408,9.313,0,13.596c0.408,4.283,0.68,8.361,1.224,13.664s0.34,7.478,0.815,7.478c0.477,0,1.088-0.612,1.428-3.331
		s0.34-4.487,1.292-11.488c0.952-7.002,2.107-9.993,2.72-13.732c0.611-3.739,1.223-5.371,1.291-6.866
		c0.068-1.496,1.247-2.047,1.699-2.107c1.02-0.136,0.544,0.951,0.272,2.787c-0.272,1.835-0.544,5.642-0.544,8.701
		s0.204,5.71,0.748,9.857c0.543,4.147,1.087,7.342,1.563,8.361c0.476,1.02,1.699,1.904,1.563-0.611
		c-0.137-2.515,0.203-8.633,0.679-13.324c0.477-4.69,1.292-11.42,1.972-16.859s1.632-9.177,2.312-12.78
		C324.342,71.892,325.09,70.464,324.41,70.26z"/>
	<path fill-rule="evenodd" clip-rule="evenodd" fill="#FEC900" d="M294.227,66.114c-1.225,0-1.632,0.748-1.972,1.563
		c-0.34,0.815-1.156,2.039-2.787,2.787c-1.632,0.748-2.244,0.34-2.583-0.204c-0.341-0.544-1.293-0.884-1.293,0.068
		c0,0.951,0.545,1.699,1.225,2.311c0.68,0.612,2.651,0.884,3.264-0.34c0.61-1.224,0.883-1.631,2.311-2.243
		c1.428-0.612,2.176-0.815,2.447-2.04C295.111,66.793,295.178,66.114,294.227,66.114z"/>
	<path fill-rule="evenodd" clip-rule="evenodd" fill="#FEC900" d="M297.217,67.201c-0.95-0.042-0.951,1.088-1.428,1.903
		c-0.475,0.816-1.154,1.632-2.447,2.108c-1.291,0.476-2.446,1.971-2.379,2.854c0.068,0.884-0.476,2.176-1.495,3.264
		c-1.02,1.087-0.816,1.835-0.544,3.263c0.271,1.428-0.544,2.855,0,4.146c0.544,1.292,0.34,2.651,1.359,2.583
		c0.682-0.045,1.699-0.748,2.516-1.427c0.815-0.681,0.68-0.816,0.68-2.992s0.748-3.603,2.107-5.778
		c1.359-2.176,2.922-3.195,3.195-5.711C299.053,68.901,298.782,67.269,297.217,67.201z"/>
	<path fill-rule="evenodd" clip-rule="evenodd" fill="#FEC900" d="M304.559,82.497c0.119-1.361-0.475-1.224-2.719,0.136
		c-2.244,1.36-9.313,5.507-10.877,6.594c-1.563,1.087-1.699,1.768-1.495,2.244c0.204,0.476,1.223,0.476,3.059-0.612
		c1.835-1.087,6.866-4.146,8.701-5.166C303.065,84.672,304.423,84.06,304.559,82.497z"/>
	<path fill-rule="evenodd" clip-rule="evenodd" fill="#FEC900" d="M297.217,90.654c-0.973,0.648-0.748,1.36-0.34,1.631
		s1.088,0.34,1.563-0.068c0.477-0.408,0.341-1.02,0-1.427C298.102,90.382,297.83,90.246,297.217,90.654z"/>
	<path fill-rule="evenodd" clip-rule="evenodd" fill="#FEC900" d="M263.092,108.057c1.546-1.593,2.107-2.516,2.787-2.447
		c0.68,0.068,0.748,0.476,0.407,1.088c-0.339,0.611-1.087,1.359-1.019,2.106c0.067,0.748-0.341,1.428-1.021,2.312
		c-0.679,0.884-1.225,2.991-1.155,5.234c0.067,2.244-0.409,2.856-0.749,4.691c-0.34,1.835-0.067,2.583,0.613,2.447
		c0.68-0.136,1.019-1.156,2.038-3.467c1.021-2.311,2.652-5.031,3.264-7.41c0.611-2.38,1.632-4.419,3.535-6.866
		s2.039-2.787,2.312-2.243s0.543,1.292-0.34,2.107c-0.884,0.815-1.156,1.428-1.429,2.787c-0.271,1.359,0.068,1.903,0.477,2.175
		s0.884-0.544,3.398-2.719c2.516-2.175,3.195-3.943,3.672-5.303c0.476-1.359,0.544-2.719,1.428-5.438
		c0.883-2.719,0.951-4.011,0.883-5.846c-0.068-1.835,0.137-2.855,0.748-3.127s0.407,1.427,0.407,4.146s-0.067,4.079,0.341,5.099
		s1.088,3.467,1.155,4.962s-0.407,2.855-1.496,4.691c-1.087,1.835-1.495,2.447-1.495,3.535s0.815,0.68,1.836,0.339
		c1.02-0.339,2.72-1.971,3.331-3.738s0.952-0.612,0.952,0.816c0,1.427,0,2.447,0.271,3.059s1.767,0.816,2.583,1.496
		s2.991,0.68,3.399,0.204c0.408-0.476,0.135-2.107-1.021-2.583c-1.155-0.476-1.224-1.36-1.087-2.516
		c0.136-1.155-0.137-1.631-0.748-2.107c-0.611-0.476-0.476-1.087-0.068-1.631c0.407-0.543,0.68-1.768,0.544-2.311
		c-0.137-0.544-0.544-1.428-0.407-2.312c0.136-0.884,0.747-2.04,0.34-3.263c-0.408-1.224-0.952-1.563-1.699-1.292
		c-0.749,0.272-1.7,0.068-2.448-1.632c-0.747-1.699-0.747-5.234-0.747-8.429c0-3.195,0.067-3.536-0.952-3.671
		c-0.687-0.091-1.359,1.496-1.835,3.195c-0.477,1.7-2.855,4.418-3.671,4.826c-0.816,0.408-2.176,1.496-2.924,2.107
		c-0.747,0.612-1.835,1.088-2.583,0.952c-0.748-0.136-0.477-1.292,0.271-2.583c0.748-1.292,1.564-2.447,0.815-3.331
		c-0.747-0.884-1.155-0.748-2.038,1.088c-0.884,1.835-1.292,3.807-1.768,5.778c-0.477,1.971-2.244,4.827-4.352,6.458
		c-2.106,1.632-3.875,3.263-7.273,3.331c-3.399,0.068-4.283-0.068-5.099,0.544c-0.816,0.611-1.632,1.02-1.496,0
		c0.136-1.02,0.204-1.224,1.02-2.176c0.816-0.951,0.817-1.585,0.136-2.039c-1.02-0.68-2.583-0.136-3.739,0.34
		c-1.155,0.476-3.942,1.359-5.099,0.815c-1.156-0.544-2.787-1.155-4.555-0.952c-1.767,0.204-2.583,0.748-4.351-0.68
		c-1.768-1.428-2.04-2.379-2.447-3.263s-1.768-1.224-1.292,0.748c0.476,1.971,1.36,3.739,2.584,4.895
		c1.223,1.156,2.719,1.903,1.087,1.903c-1.631,0-2.991,0-4.418,1.156c-1.427,1.155-3.739,2.991-5.438,4.283
		c-1.7,1.292-2.515,2.923-3.807,4.486c-1.292,1.563-2.583,2.72-2.447,3.332c0.136,0.611,1.631,1.156,3.535,1.087
		s5.643-0.272,8.089-1.563c2.447-1.292,4.895-2.515,6.322-4.487c1.428-1.971,2.108-3.331,3.06-4.079
		c0.952-0.748,1.156-0.068,1.563,0.476c0.408,0.544,0.476,0.816-0.407,2.788c-0.885,1.971-0.953,3.331-0.953,4.623
		c0,1.291,0.068,2.175,2.448,0.68c2.379-1.496,1.903-2.515,3.126-4.011c1.224-1.496,2.244-2.651,4.351-2.651
		c2.107,0,4.691-0.068,5.846,0.136C259.353,109.417,260.849,110.368,263.092,108.057z"/>
	<path fill-rule="evenodd" clip-rule="evenodd" fill="#FEC900" d="M216.526,46.535c-0.604-0.725-1.292,0.476-0.748,1.427
		c0.544,0.953,0.408,2.924-0.204,3.807c-0.611,0.884-0.883,1.904-0.408,2.652c0.476,0.748,1.496,0.611,2.516-0.884
		s1.631-3.263,1.087-4.487C218.226,47.827,217.206,47.351,216.526,46.535z"/>
	<path fill-rule="evenodd" clip-rule="evenodd" fill="#FEC900" d="M192.393,59.655c-1.138,0.644-1.835,2.107-1.563,2.788
		c0.272,0.68,0.815,0.952,2.04,0.748c1.223-0.204,2.039-1.02,2.515-1.02s1.631,0.816,2.312,0.068c0.679-0.748,0.679-1.7-0.408-2.311
		C196.2,59.316,193.957,58.772,192.393,59.655z"/>
	<path fill-rule="evenodd" clip-rule="evenodd" fill="#FEC900" d="M227.47,53.673c-0.668-0.892-1.087-0.476-1.087,0.544
		c0,1.02-1.087,2.379-1.087,3.127s0,1.224,0.68,1.02c0.68-0.205,1.155-1.156,1.631-2.38S227.878,54.217,227.47,53.673z"/>
	<path fill-rule="evenodd" clip-rule="evenodd" fill="#FEC900" d="M211.02,62.307c0.173-0.52,0.068-0.952-1.155-1.088
		c-1.224-0.136-1.972-0.476-2.448-1.835c-0.476-1.359-0.34-4.011,0.816-5.302c1.155-1.292,3.52-1.809,4.418-1.36
		c0.544,0.272,0.476,1.292,0.544,2.176s0.884,1.971,1.768,2.243s2.175,0.068,2.719-0.952c0.544-1.02,1.36-1.292,1.903-0.748
		c0.544,0.543,0.816,2.312,0.068,3.671c-0.748,1.359-1.427,2.039-2.787,2.039s-1.903,0.34-1.292,1.496
		c0.612,1.156,0.748,2.379,1.632,2.583c0.884,0.204,1.291-0.136,1.496-1.292c0.204-1.155,0.408-1.699,1.427-3.059
		s1.292-1.767,1.428-2.515c0.136-0.748,1.292-1.02,1.563-0.272c0.272,0.748,0.68,1.767,1.904,1.835
		c1.224,0.068,2.04,0.068,2.04,1.563c0,1.496-0.408,2.447-1.7,3.195c-1.292,0.748-1.972,0.408-2.72,0.476
		c-0.747,0.068-1.223,0.748-2.583,2.447c-1.359,1.7-1.564,2.312-2.108,4.555c-0.543,2.244-0.34,2.991,0.477,4.147
		c0.815,1.156,2.175,3.467,2.991,5.098c0.816,1.632,0.816,1.903,1.428,4.555c0.611,2.651,1.7,4.147,3.807,5.643
		c2.107,1.495,3.399,1.359,4.555,2.039c1.156,0.68,0.952,1.36,1.087,2.923c0.136,1.563,0.272,2.312,1.156,3.195
		c0.883,0.884,0.408,1.903-1.087,2.516c-1.496,0.612-3.491,2.154-5.235,4.079c-1.972,2.175-2.855,4.01-3.807,5.302
		c-0.952,1.292-2.991,3.943-4.827,4.894c-1.835,0.952-3.126,1.496-3.126,0.544c0-0.952,0.748-1.428,1.971-2.923
		c1.224-1.496,2.175-3.195,2.243-5.099s-1.02-3.263-2.923-3.807c-1.903-0.543-2.855,0-4.487,0.816
		c-1.631,0.816-2.719,1.496-2.583-0.067c0.136-1.564,0.272-4.759,1.359-5.778c1.088-1.02,2.175-1.768,1.088-2.516
		c-1.088-0.748-3.264-0.816-4.691-0.068c-1.428,0.748-2.379,1.224-3.127,2.583c-0.748,1.359-1.428,1.971-1.768,1.699
		c-0.34-0.272-0.68-2.107-0.408-3.059c0.271-0.952,0.816-2.108,1.155-3.535c0.34-1.428,1.768-2.855,3.06-3.535
		c1.292-0.68,2.175-0.952,3.603-0.476c1.427,0.476,1.563,0.476,1.835-0.272s-0.476-1.428-1.087-2.651
		c-0.612-1.224-0.612-0.952-1.836-1.7c-1.223-0.748-2.311-0.952-2.447-0.068c-0.135,0.884-0.68,1.835-1.903,2.515
		c-1.224,0.68-2.448,1.36-3.264,0.68c-0.815-0.68-1.02-1.359-0.883-2.243c0.136-0.884,1.088-1.496,1.631-2.38
		c0.544-0.883,0.884-1.359,0.136-2.175c-0.748-0.816-1.632-1.428-0.476-2.855c1.156-1.428,2.175-1.972,2.923-1.972
		c0.748,0,0.816,0.137,0.884,1.292c0.068,1.155,0.271,1.359,0.951,1.359c0.68,0,1.088-0.476,1.156-1.428
		c0.068-0.951-0.205-1.563-1.156-3.33c-0.951-1.768-1.631-3.128-1.631-4.147s0.067-1.02-1.156-1.02s-2.039,0.952-2.583,1.632
		s-1.835,1.156-2.991,1.02c-1.156-0.136-2.243-0.884-2.787-1.835s-1.428-2.447-1.428-3.467c0-1.02,0.816-1.768,2.515-2.583
		c1.7-0.816,2.652-1.564,3.399-3.06s0.612-2.108,0-2.788s-0.204-1.291,1.224-1.291c1.427,0,2.447,0.951,2.855,1.699
		s0.136,1.972,0.883,2.923c0.749,0.952,1.632,1.156,2.312,1.156c0.68,0,0.884-0.952,1.972-0.884
		C210,63.53,210.68,63.327,211.02,62.307z"/>
	<path fill-rule="evenodd" clip-rule="evenodd" fill="#FEC900" d="M238.007,94.733c-1.222-0.087-1.224,0.476-0.612,1.36
		c0.612,0.883,1.224,1.087,2.312,0.952c1.087-0.137,1.087-0.408,0.476-1.088C239.571,95.277,238.959,94.801,238.007,94.733z"/>
	<path fill-rule="evenodd" clip-rule="evenodd" fill="#FEC900" d="M199.599,83.244c-0.874-0.131-1.563,0.34-2.583,1.088
		c-1.02,0.748-1.155,1.496-0.272,1.7c0.884,0.204,1.563,0.408,2.243,0.408c0.68,0,1.02-0.612,1.632-1.563
		S200.958,83.449,199.599,83.244z"/>
	<path fill-rule="evenodd" clip-rule="evenodd" fill="#FEC900" d="M256.77,110.776c-2.312,0-3.399,1.02-5.439,2.447
		c-4.097,2.868-43.031,27.532-50.033,31.61c-3.586,2.089-4.758,3.671-4.623,4.283c0.205,0.922,1.754-0.034,5.438-2.175
		c20.938-12.168,45.781-28.111,50.645-31.679C254.798,113.767,261.462,110.776,256.77,110.776z"/>
	<path fill-rule="evenodd" clip-rule="evenodd" fill="#FEC900" d="M239.911,115.67c-0.396,0.264-0.612,0.544-1.496,1.36
		c-0.883,0.816-3.059,2.379-5.778,2.583c-2.719,0.204-3.942,0-5.438,1.563c-1.495,1.563-2.651,3.603-3.263,5.234
		c-0.612,1.632-0.204,3.059,2.04,1.632c2.243-1.428,10.945-6.799,13.052-8.43c2.107-1.632,1.835-2.04,1.7-2.788
		C240.591,116.079,240.319,115.399,239.911,115.67z"/>
	<path fill-rule="evenodd" clip-rule="evenodd" fill="#FEC900" d="M274.92,120.973c0.917-1.757,1.224-2.923,1.02-2.991
		c-0.555-0.185-2.175,1.087-4.215,3.263c-2.039,2.176-4.215,6.187-4.485,8.498c-0.272,2.311-0.545,2.855-0.816,4.894
		c-0.272,2.04-0.272,6.458-0.748,9.11c-0.476,2.651-0.815,4.079-1.495,5.574c-0.681,1.495-2.924,3.535-3.467,3.535
		c-0.544,0-1.292-0.748-1.7-4.215c-0.455-3.867-2.855-4.758-3.603-7.206c-0.748-2.447-2.311-4.215-2.923-5.915
		c-0.611-1.699-0.543-4.418,0.136-6.934c0.68-2.515,0.952-3.603,1.835-4.35c0.884-0.748,1.359-1.496,0.884-2.379
		c-0.476-0.884-1.224-0.272-2.176,0.68c-0.951,0.952-2.243,0.68-2.243,1.768s0.272,1.088-0.408,2.447
		c-0.68,1.359-1.156,0.815-1.767,0.136c-0.612-0.68-1.088-1.292-0.816-3.331c0.272-2.039,0.612-2.923,1.835-3.67
		c1.224-0.748,5.234-3.467,7.41-4.895c2.175-1.428,2.991-1.631,3.535-1.291c0.543,0.34,0,1.223-0.408,2.65
		c-0.408,1.428-0.136,1.836,0.136,3.127s0.68,2.855,0.476,4.351c-0.204,1.495-0.883,3.059-1.903,4.146
		c-1.02,1.088-1.088,1.7-0.476,2.04s1.087-0.34,2.991-2.447c2.481-2.747,3.943-4.962,5.302-7.545s1.02-3.603,1.768-3.875
		s0.544,0.272,1.021,1.564c0.476,1.291,0.067,1.971,1.155,1.835c1.087-0.136,0.883-1.156,0.951-3.059
		c0.068-1.904,1.224-3.604,3.331-5.099c2.108-1.496,3.671-3.331,4.895-5.37c1.224-2.04,1.501-2.472,2.039-1.972
		c0.952,0.884,0.341,2.243-1.02,4.146c-1.359,1.903-2.039,2.855-2.855,3.535c-0.815,0.68-1.019,1.224,0.612,1.224
		c1.632,0,2.787-0.476,3.332,1.359c0.543,1.835,0.814,4.147,0.883,6.118c0.068,1.972,0.952,4.759,0.952,8.021
		c0,3.263,0.68,6.119,0.408,8.021c-0.272,1.904-0.477,4.283-1.563,5.847c-1.088,1.563-1.564,2.175-2.107-0.136
		c-0.545-2.311-1.021-4.418-2.72-7.138c-1.7-2.719-3.06-4.215-3.739-5.302c-0.68-1.088-0.544-2.923-0.544-4.351
		C273.628,123.964,274.105,122.537,274.92,120.973z"/>
	<path fill-rule="evenodd" clip-rule="evenodd" fill="#FEC900" d="M245.078,122.809c-1.048,0.74-1.496,1.496-0.612,2.04
		c0.884,0.544,1.699,0.884,1.768-0.136C246.301,123.692,246.233,121.993,245.078,122.809z"/>
	<path fill-rule="evenodd" clip-rule="evenodd" fill="#FEC900" d="M240.047,126.072c-2.108,1.462-5.506,3.535-7.138,4.555
		c-1.631,1.02-0.952,1.495,0.204,1.631c1.156,0.136,3.807,0.749,5.439,1.02c1.631,0.272,3.942,0.204,5.846-0.476
		c1.903-0.68,3.126-1.224,3.875-2.175c0.748-0.952,0.408-1.36-0.748-1.835c-1.155-0.476-2.379-1.36-3.263-2.583
		C243.378,124.984,243.378,123.76,240.047,126.072z"/>
	<path fill-rule="evenodd" clip-rule="evenodd" fill="#FEC900" d="M222.916,136.405c-1.916,1.094-1.904,1.631-1.904,2.787
		c0,1.155,0.816,1.563,1.224,1.427c0.407-0.136,0.612-1.087,1.359-2.175C224.343,137.356,225.295,135.045,222.916,136.405z"/>
	<path fill-rule="evenodd" clip-rule="evenodd" fill="#FEC900" d="M216.594,140.687c-2.717,1.593-3.739,2.243-4.623,2.719
		s-0.544,0.748-0.136,1.36c0.408,0.612,0,3.195-1.087,3.943c-1.088,0.748-3.807,2.379-3.263,3.127
		c0.543,0.748,1.563,1.02,2.515,1.02c0.952,0,1.155-0.34,3.739-1.7c2.583-1.359,4.283-1.495,6.186-3.127
		c1.903-1.631,6.458-4.759,8.77-6.526c2.311-1.768,5.234-3.399,5.438-4.079c0.204-0.68,0.068-0.952-1.292-0.952
		c-1.359,0-2.855-0.271-4.554,1.088s-2.855,2.583-5.438,5.302c-2.583,2.72-2.719,3.331-3.127,3.263
		c-0.409-0.068-0.612-0.271-0.409-2.447c0.205-2.175,0.205-3.263-0.34-3.671C218.43,139.6,218.565,139.532,216.594,140.687z"/>
	<path fill-rule="evenodd" clip-rule="evenodd" fill="#FEC900" d="M201.162,138.376c-1.104-0.582-2.107,0.068-2.175,0.748
		c-0.067,0.68,0.272,2.107,0.34,3.059c0.068,0.952,1.087,1.428,2.04,0.544c0.951-0.884,1.292-1.632,1.292-2.312
		S202.454,139.056,201.162,138.376z"/>
	<path fill-rule="evenodd" clip-rule="evenodd" fill="#FEC900" d="M249.7,134.433c-0.738-0.138-2.583,0.884-4.962,1.36
		c-2.379,0.476-5.303,1.291-9.79,4.418c-4.486,3.127-8.498,6.662-13.596,9.517c-5.099,2.855-8.022,5.099-10.741,4.962
		c-2.719-0.136-4.487,0.068-4.759-1.427s-0.544-2.515,0.34-3.263c0.883-0.748,2.548-1.257,3.262-1.972
		c0.544-0.544,0.544-1.563,0.137-2.175c-0.408-0.612-1.142-0.453-4.011,1.359c-3.875,2.447-4.759,3.195-4.011,3.942
		c0.748,0.748,0.952,1.292,0.136,1.904c-0.816,0.611-2.923,0.544-3.943,0.204c-1.02-0.34-2.175-1.224-2.583-2.72
		c-0.408-1.495-0.272-4.01,0.544-4.826c0.816-0.815,1.087-1.563-0.408-2.515c-1.495-0.952-3.331-1.088-4.962,0.34
		c-1.632,1.427-2.651,2.991-2.651,5.642c0,2.04,0.68,4.079,0.204,5.303c-0.476,1.223-1.224,1.563-1.903,1.02
		c-0.68-0.544-1.156-0.748-0.68-2.312c0.476-1.563,0.612-2.923,0-3.943s-1.836-0.884-2.991,0s-2.244,1.496-2.855,3.603
		c-0.612,2.107-0.612,3.671-0.068,5.643c0.544,1.971,0.612,3.059,3.059,3.059c2.448,0,3.467-0.476,4.623-1.292
		c1.155-0.816,2.693-1.087,2.651-0.204c-0.067,1.427-0.816,0.816-2.312,1.563c-1.495,0.748-2.379,1.835-2.991,2.651
		c-0.612,0.816-0.85,1.16-1.903,0.749c-1.564-0.612-2.992,0.679-3.332,1.835c-0.34,1.155-0.612,2.174,1.156,3.466
		c1.767,1.292,3.195,1.7,4.079,1.36s1.564-0.884,2.379-1.632c0.816-0.748,1.02-0.951,0.544-2.379
		c-0.476-1.427-0.612-1.903,0.136-2.719c0.748-0.815,2.107-0.476,4.079-0.476s3.399,0.612,3.943,1.292
		c0.543,0.68,0.068,1.563-0.544,2.719c-0.611,1.156-1.087,2.448-0.884,3.875c0.204,1.428,1.156,2.379,2.175,0.544
		c1.02-1.836,3.671-4.555,5.915-5.847c2.244-1.291,4.623-1.699,5.574-1.699c0.952,0,0.748,0.543-0.271,1.631
		c-1.02,1.088-2.787,3.671-3.127,5.099c-0.34,1.428,0,2.176,0.883,2.107c0.884-0.068,1.292-0.679,2.312-2.515
		c1.02-1.835,2.447-2.719,5.031-4.691c2.583-1.971,3.535-2.379,4.894-2.515s0.815,0.544,0.068,1.156
		c-0.748,0.612-2.312,3.467-2.312,6.118s0.137,4.351,0.477,6.39s1.155,2.04,1.767,0.748c0.612-1.292,1.02-2.991,2.379-6.187
		c1.36-3.195,3.467-4.895,4.214-5.167s2.312,0.408,3.399,1.495c1.088,1.088,1.564,2.108,1.836,4.419
		c0.271,2.312-0.136,4.895,0.204,5.099c0.34,0.204,1.156,0.204,2.719-1.835c1.563-2.04,3.127-4.759,5.098-6.391
		c1.972-1.631,5.031-3.263,7.478-4.486c2.447-1.224,4.215-1.972,6.526-4.555c2.312-2.583,2.991-3.603,4.215-6.458
		c1.224-2.855,1.496-4.555,0.408-6.526c-1.088-1.972-2.175-3.604-3.263-5.507c-1.087-1.903-1.427-1.768-1.631-4.623
		S250.788,134.637,249.7,134.433z"/>
	<path fill-rule="evenodd" clip-rule="evenodd" fill="#FEC900" d="M170.572,160.062c-0.414-0.414-1.972,0.272-2.176,0.952
		c-0.204,0.68-0.883,2.243,0.068,3.331c0.952,1.088,1.292,1.768,2.04,0.816C171.251,164.208,171.931,161.421,170.572,160.062z"/>
	<path fill-rule="evenodd" clip-rule="evenodd" fill="#FEC900" d="M175.534,160.198c-2.175,1.359-2.788,2.107-2.108,2.991
		c0.68,0.884,0.748,0.884,2.788-0.476c2.04-1.359,2.583-1.971,2.312-2.787C178.253,159.11,177.709,158.838,175.534,160.198z"/>
	<path fill-rule="evenodd" clip-rule="evenodd" fill="#FEC900" d="M180.361,172.502c-1.058-0.94-1.768-0.272-2.176,1.495
		c-0.408,1.768-0.408,2.855,0.34,3.535c0.748,0.68,1.155,0.408,1.767-1.292C180.904,174.541,181.584,173.589,180.361,172.502z"/>
	<path fill-rule="evenodd" clip-rule="evenodd" fill="#FEC900" d="M275.6,279.978c1.23-1.878,2.29-2.473,3.195-2.516
		c1.428-0.067,2.039-0.339,2.447-1.495s1.155-1.903,1.155-3.127c0-1.223-1.02-0.816-1.495,0.204s-0.952,1.564-1.972,1.7
		c-1.02,0.136-1.155-0.205-2.583,0.884c-1.428,1.087-2.04,2.311-2.516,3.603c-0.476,1.292-1.359,1.225-2.176,1.155
		c-0.815-0.068-0.68-0.951-0.68-2.379s0.544-1.836,1.563-1.903c1.021-0.068,1.564-1.427,1.632-1.972
		c0.068-0.543-0.067-1.02-0.68-0.475c-0.611,0.543-1.224,0.815-2.176,0.543c-0.951-0.271-1.971-0.748-3.398-1.223
		c-1.428-0.477-1.699-0.612-1.903-1.292s0.68-0.748,1.632-1.087c0.951-0.34,1.428-1.36,1.428-2.447c0-1.088-0.816-1.904-1.359-2.719
		c-0.545-0.816,0-1.564,1.02-1.7c1.019-0.136,1.699,0.135,2.854,1.088c1.156,0.952,2.38,2.923,3.399,3.739
		c1.019,0.815,2.107,1.155,3.33,0.952c1.225-0.205,1.768-0.68,1.904-1.7c0.136-1.02,0.951-1.836,3.126-4.011
		c2.176-2.175,2.448-3.059,2.924-4.214c0.476-1.157,0.544-2.108,1.496-3.876c0.951-1.767,0.543-2.446,0.34-2.855
		c-0.204-0.408-1.36-1.631-1.632-2.651c-0.272-1.019-0.748-1.767-1.632-1.767s-2.583-0.409-3.534-0.68
		c-0.952-0.272-2.04-0.544-2.584-0.136c-0.543,0.408-1.224,0.952-2.855,0.748c-1.631-0.204-3.738-0.34-5.846-0.679
		c-2.107-0.34-2.72-1.36-3.671-2.787c-0.952-1.429-2.175-1.156-2.583,0.067c-0.408,1.224-0.952,2.651-1.972,3.875
		s-0.952-0.883-0.68-4.351c0.272-3.467-0.136-8.701-0.068-11.828c0.068-3.127,1.427-6.866,2.922-9.245
		c1.496-2.379,2.584-3.807,5.235-6.866c2.65-3.06,4.622-8.158,5.71-10.809c1.087-2.651,0.884-5.439-0.203-8.43
		c-1.089-2.992-3.264-8.769-4.827-12.712s-5.643-14.548-6.526-17.063c-0.884-2.515-1.291-2.719-1.903-2.039
		c-0.612,0.68-0.952,0.884-1.427,0.544c-0.476-0.34-0.749-0.408-1.36,0.136c-0.612,0.544,0.476,0.952,1.428,1.903
		c0.952,0.951,2.583,4.215,3.807,6.526c1.224,2.311,2.583,4.419,2.651,5.574s-0.136,1.155-0.68,1.155s-1.292-1.36-2.787-2.583
		c-1.496-1.224-2.923-1.903-4.623-2.447c-1.699-0.544-2.855-1.292-3.535-1.971s-2.651-3.739-3.671-5.303
		c-1.02-1.563-0.34-2.515,1.427-4.079c1.768-1.563,2.515-3.467,3.671-5.914c1.156-2.447,1.496-2.651,3.195-2.651
		c1.699,0,3.331-1.767,4.962-4.01c1.632-2.244,2.855-4.963,2.991-6.662c0.137-1.7-0.068-4.147,0.816-8.837
		c0.884-4.69,1.902-5.71,3.06-5.71c1.154,0,2.786,1.495,4.69,4.078c1.902,2.583,2.446,4.487,2.446,5.915
		c0,1.427-0.747,1.903-1.495,3.739c-0.748,1.835-0.34,4.894,0.271,8.701c0.612,3.807,2.04,8.498,3.535,14.412
		c1.496,5.915,5.303,19.238,7.206,24.201s4.079,9.517,6.05,11.829c1.972,2.311,5.37,4.962,8.226,5.302
		c2.855,0.34,5.778-0.135,7.954-2.515c2.175-2.379,3.059-4.214,3.263-7.273c0.204-3.06,0.067-4.759-1.699-6.323
		c-1.768-1.563-4.419-2.243-7.818-5.71c-3.398-3.467-5.507-6.458-5.507-10.333s0.681-7.954,3.74-11.353
		c3.059-3.399,7.002-6.866,9.517-8.974c2.515-2.107,3.671-3.535,5.507-5.506c1.835-1.972,2.651-3.332,3.195-3.332
		s0.611,1.156-0.204,4.079c-0.815,2.923-1.495,4.282-5.234,7.274c-3.739,2.991-7.547,5.914-9.449,7.885
		c-1.904,1.972-3.604,4.895-4.011,6.798c-0.408,1.904-0.204,3.399,0.34,3.807s0.815-0.204,1.156-2.447
		c0.34-2.243,1.834-4.962,5.369-7.953c3.535-2.992,8.702-6.934,11.081-9.042c2.379-2.107,3.331-3.059,4.895-5.914
		s2.106-5.302,2.719-5.234s1.088,0.612,0.408,3.127c-0.68,2.516-1.835,6.458-4.011,9.45c-2.176,2.991-3.671,3.942-5.303,4.418
		c-1.631,0.476-5.099,3.196-6.525,4.555c-1.428,1.359-3.604,4.894-4.079,6.118c-0.476,1.223-1.155,2.311,0.476,0.34
		c1.632-1.972,4.146-4.555,5.983-5.71c1.834-1.155,2.854-1.496,4.281-1.496s2.855,0.408,3.264,2.243
		c0.407,1.835,1.427,2.719,2.787,3.739c1.359,1.02,1.768,1.156,2.787,0.952s1.495,0.204,0.477,1.292
		c-1.021,1.087-2.992,1.496-4.283,0.952c-1.292-0.543-2.516-1.768-4.146-3.127c-1.632-1.359-4.079-1.563-5.371-0.543
		c-1.291,1.02-3.399,4.555-3.399,7.002s0.816,5.71,3.399,9.313c2.584,3.603,4.146,6.526,4.146,9.993c0,3.467-0.543,5.37-1.495,6.322
		c-0.951,0.951-2.312,1.496-1.428,2.107c0.883,0.612,1.632,1.496,1.903,3.195c0.272,1.7,0.477,3.263,0.68,4.351
		c0.204,1.087-0.748,1.903-1.291,1.903c-0.544,0-1.02-1.699-2.923-2.039c-1.904-0.34-3.264,0.068-5.438,0.204
		c-2.176,0.136-6.391-0.272-10.129-2.855c-3.739-2.583-8.022-6.866-9.925-8.837c-1.904-1.972-4.012-2.788-3.399-0.884
		c0.611,1.903,1.428,6.933,1.495,12.576c0.068,5.642-0.816,10.197-1.156,11.285c-0.339,1.087-0.747,1.496,0.612,2.787
		c1.36,1.291,3.876,3.127,5.166,3.535c1.292,0.408,1.429,0.272,1.36-0.476c-0.068-0.748-0.544-0.476-1.36-1.087
		c-0.815-0.612-0.815-0.816,0.069-2.516c0.884-1.699,2.039-3.738,2.515-4.282c0.476-0.543,1.428-0.408,2.175-0.068
		c0.748,0.34,0.544,1.087,0.748,3.127c0.205,2.04,0.816,4.419,1.632,6.05c0.815,1.632,2.107,2.243,3.671,2.243
		c1.564,0,1.972,0.34,1.699,1.428c-0.271,1.087-0.884,1.496-1.631,1.835c-0.748,0.34-0.612,0.883,0.204,1.223
		c0.815,0.34,2.072,0.51,2.616,2.481c0.545,1.971,0.851,5.201,0.238,5.813s-0.952,1.088-1.359,0.068
		c-0.408-1.02-0.476-1.02,0.067-1.427c0.544-0.408,0.476-0.884-0.271-0.884c-0.749,0-1.292,0-1.769-0.748
		c-0.476-0.748-1.02-0.34-0.272,1.156c0.749,1.496,1.769,3.331,1.7,4.962c-0.067,1.631-0.476,2.379-1.428,2.312
		c-0.952-0.068-1.563-0.612-2.311-2.04c-0.749-1.427-1.972-1.903-1.088,0.069c0.884,1.971,0.815,3.942,0.61,5.03
		c-0.202,1.088-0.406,2.108,0.273,2.108c0.679,0,2.039,0,3.127,1.7c1.087,1.699,1.224,3.603,0.884,4.35s-1.769,2.312-1.972,2.787
		c-0.204,0.476,0.203,1.699-1.428,1.699c-1.632,0-2.924-0.203-3.807-1.223c-0.884-1.02-1.225-1.02-1.088-2.855
		c0.137-1.835-0.68-2.243-1.156-1.087c-0.476,1.156-1.359,1.767-2.719,2.312c-1.359,0.544-1.768,1.359-2.379,2.583
		c-0.612,1.224-1.7,1.971-1.904,2.788c-0.203,0.815,0.271,0.883,0.884,1.903c0.612,1.02,0.545,3.943,0.341,6.119
		s-0.272,3.331-1.292,4.215c-1.021,0.883-2.379,1.156-3.671,0c-1.291-1.156-1.971-2.039-2.991-1.496
		c-1.02,0.544-1.088,1.496-2.107,2.176s-2.039,1.36-2.651,0.136C274.241,284.804,274.308,281.949,275.6,279.978z"/>
	<path fill-rule="evenodd" clip-rule="evenodd" fill="#FEC900" d="M258.742,178.416c-1.599-0.818-2.584-0.204-4.556,0.748
		c-1.97,0.952-2.99,1.495-3.942,3.875c-0.952,2.379-1.632,2.923-2.72,2.311s-2.787-1.359-5.371,0.34
		c-2.583,1.7-4.146,3.331-6.118,6.934c-1.971,3.604-2.651,4.895-4.419,7.342c-1.768,2.448-2.107,3.467-1.02,3.604
		c1.088,0.136,1.971,0.68,0.408,1.971s-2.039,1.767-2.039,2.923s0.68,2.04,2.039,0.883c1.36-1.155,3.331-2.65,4.147-3.942
		c0.815-1.292,1.835-2.244,1.835-4.351c0-2.107,0.612-4.487,0.884-1.428c0.271,3.059,0.883,5.846,1.767,7.206
		c0.884,1.359,2.04,1.767,2.72,2.244c0.68,0.476,0.475,1.427,0.748,3.602c0.272,2.176,0.884,3.196-0.136,5.099
		c-1.019,1.904-2.039,3.671-3.535,5.643c-1.496,1.971-1.632,3.331-2.108,4.214c-0.475,0.884-1.971,1.903-3.398,2.175
		c-1.428,0.272-3.127,1.7-7.138,1.903c-4.011,0.204-4.894,0.068-5.438-2.107c-0.544-2.175-0.612-3.059,0.476-4.079
		c1.088-1.02,1.7-1.631,0.68-2.855c-1.02-1.223-2.04-1.563-2.447-1.631c-0.408-0.068-1.088,0.271-1.156,1.359
		c-0.068,1.087-0.748,2.04-1.563,2.516c-0.816,0.476-1.428,0.543-2.855,0.339s-2.651,0.068-2.107,1.563s0.476,2.244,2.107,2.787
		c1.632,0.544,2.04,1.563,1.7,2.04s-1.563,0.68-2.923-0.204c-1.359-0.883-2.719-1.019-3.671,0.068
		c-0.952,1.087-1.632,2.379-1.156,2.923c0.476,0.543,0.476,1.155-0.612,1.087c-1.087-0.067-2.379,0.816-3.535,2.175
		s-1.972,2.04-0.068,2.176c1.903,0.136,3.195,0.476,3.875-0.272s0.748-1.768,0.748-2.719c0-0.951,0.408-1.36,1.291-0.476
		c0.884,0.884,0.884,1.631-0.476,2.719c-1.36,1.087-2.039,2.039-1.971,2.855s0.272,1.381,1.767,1.428
		c2.176,0.067,1.632,0.136,3.467-1.632c1.835-1.767,3.467-2.65,4.351-2.854c0.884-0.204,2.759,0.575,3.059,0.816
		c0.68,0.543,0.204,2.039-0.34,3.059c-0.543,1.019-1.427,1.768-1.359,0.272c0.069-1.496-0.271-2.244-1.496-2.244
		c-1.224,0-2.106,0.476-2.991,1.631c-0.883,1.156-2.243,2.176-2.107,2.719c0.135,0.544,0.544,0.544,1.291,0.953
		c0.748,0.407,1.496,0.884,1.632,2.447c0.136,1.564,0.611,2.379,2.107,3.195c1.496,0.816,3.059,0.748,4.623-0.204
		c1.563-0.952,2.447-1.904,2.787-4.419c0.34-2.515,0.069-3.058-0.204-3.807c-0.272-0.747,0-1.495,1.223-1.564
		c1.225-0.067,2.38-0.203,3.399-1.63c1.02-1.428,2.04-1.428,3.331-1.224c1.292,0.204,1.7,0.408,1.7,1.292s-1.428,1.36-2.04,2.175
		c-0.612,0.816-1.02,1.836-1.02,2.991s0.68,1.632,1.427,1.155c0.749-0.476,1.496-0.543,2.583-0.543c1.087,0,1.156,0.816,0.748,1.292
		c-0.408,0.476-1.359,0.271-2.379,1.291c-1.02,1.02-1.699,2.04-2.447,3.127c-0.259,0.375,0.408,1.088,1.495,0.544
		c1.088-0.544,2.312-1.292,2.991-2.244c0.68-0.952-0.204-1.223,1.292-1.972c1.495-0.747,2.107-0.408,2.039-2.651
		c-0.067-2.244-0.272-3.059-1.427-3.059c-1.156,0-2.244-0.136-1.631-1.564c0.611-1.427,0.75-2.327,2.312-2.243
		c2.515,0.136,3.331,0,4.554-1.292c1.224-1.291,1.292-1.767,1.224-3.943c-0.068-2.175-0.271-3.059,1.088-3.467
		c1.359-0.408,1.563,0.408,1.087,2.107c-0.475,1.7-0.407,3.127,0.068,3.739c0.476,0.612,1.359,1.428,1.564-1.292
		c0.203-2.719,0.883-4.486,1.699-7.478c0.815-2.991,1.224-3.739,2.243-4.963c1.02-1.224,1.087-1.699,1.02-2.583
		c-0.068-0.884,0.476-1.087,1.563-0.068c1.088,1.02,1.292,1.768,1.972,1.768c0.68,0,1.224-0.408,1.02-1.972
		c-0.204-1.564-0.883-3.875-0.816-5.982c0.068-2.107,0.952-3.943,1.904-5.03c0.952-1.088,2.719-1.904,4.011-2.583
		c1.291-0.68,3.671-0.407,5.098,0.068c1.428,0.476,2.448,0.951,3.128,1.292c0.679,0.339,1.155,0.408,1.699-2.04
		c0.543-2.447,0.476-3.738-0.272-3.807c-0.748-0.067-1.835,0.272-2.923,0.205c-1.087-0.068-4.419-1.02-6.39-2.856
		c-1.972-1.835-2.855-2.651-2.855-4.146c0-1.495,0.748-1.903,1.699-1.971c0.952-0.068,3.263,0.34,4.012,0.34
		c0.747,0,1.767-0.68,2.447-1.428c0.679-0.748,0.406-1.972-1.36-4.826C264.587,183.447,261.664,179.912,258.742,178.416z"/>
	<path fill-rule="evenodd" clip-rule="evenodd" fill="#FEC900" d="M214.758,219.476c-1.141-0.602-1.495,0-1.495,1.156
		s0.34,2.312,1.359,2.855c1.02,0.544,1.835,0.34,2.379-0.543C217.545,222.06,217.206,220.768,214.758,219.476z"/>
	<path fill-rule="evenodd" clip-rule="evenodd" fill="#FEC900" d="M212.923,247.551c-0.95-0.047-1.631,0.204-2.108,1.904
		c-0.475,1.7-0.68,1.972,0.205,1.972s1.427-0.749,1.971-1.564C213.535,249.047,214.283,247.619,212.923,247.551z"/>
	<path fill-rule="evenodd" clip-rule="evenodd" fill="#FEC900" d="M264.18,193.576c-1.773,0-2.447,0.204-1.564,1.835
		c0.883,1.631,3.263,2.311,4.758,2.719c1.495,0.408,3.195,0.544,4.079,0.068c0.883-0.476,1.224-1.02,0.68-3.127
		c-0.544-2.108-0.747-2.991-1.632-3.671c-0.883-0.68-1.563-0.272-2.446,0.747C267.17,193.167,266.151,193.576,264.18,193.576z"/>
	<path fill-rule="evenodd" clip-rule="evenodd" fill="#FEC900" d="M266.287,275.083c-1.059,0.823-1.903,2.583-1.019,3.874
		c0.883,1.292,1.631,2.04,1.699,3.399c0.067,1.36-0.612,2.992-1.02,3.467c-0.408,0.477,0,1.02,1.02,2.176
		c1.019,1.156,2.243,1.36,3.059,1.088s1.428-0.815,1.699-2.719c0.272-1.904-0.271-3.127-0.815-4.487
		c-0.544-1.359-1.088-1.224-1.02-2.991c0.067-1.767-0.341-2.583-1.428-3.467C267.375,274.539,266.899,274.608,266.287,275.083z"/>
	<path fill-rule="evenodd" clip-rule="evenodd" fill="#FEC900" d="M263.432,279.637c-0.889,0.255-1.088,1.36-1.359,2.652
		c-0.272,1.292-1.428,2.311-1.564,3.331c-0.135,1.02-0.067,2.855,0.476,2.922c0.544,0.069,0.952,0,1.496-1.36
		c0.543-1.359,1.972-2.106,2.312-2.583s0.815-1.02,0.611-2.379C265.2,280.861,264.383,279.366,263.432,279.637z"/>
	<path fill-rule="evenodd" clip-rule="evenodd" fill="#FEC900" d="M263.975,266.313c-1.399,0.612-2.039,1.699-1.223,2.176
		c0.816,0.476,1.563,1.088,2.719,1.292c1.156,0.204,2.244,0.204,2.244-1.224c0-1.427-0.409-2.176-1.088-2.855
		C265.948,265.022,265.063,265.838,263.975,266.313z"/>
	<path fill-rule="evenodd" clip-rule="evenodd" fill="#FEC900" d="M279.271,285.892c-0.864,0.191-0.748,1.767-0.748,3.195
		c0,1.427,0.408,2.787,1.088,3.399c0.68,0.612,1.292,1.02,1.021-1.155c-0.272-2.176,0-2.448,0.407-3.671
		C281.446,286.436,281.107,285.483,279.271,285.892z"/>
	<path fill-rule="evenodd" clip-rule="evenodd" fill="#FEC900" d="M303.744,269.849c-1.834,0.063-2.379,0.34-1.699,1.02
		c0.68,0.68,1.563,1.359,2.447,1.088c0.883-0.272,1.836-0.477,1.836-1.36C306.328,269.712,305.715,269.781,303.744,269.849z"/>
	<path fill-rule="evenodd" clip-rule="evenodd" fill="#E30B1C" d="M113.991,91.664v281.588l0,1.291H17.335l-0.894,0.001
		c-0.512-21.264-0.53-44.356-0.53-69.318c0-0.116,0-2.986,0-7.964l1.22-0.058h196.112l0.579-0.057
		c10.097,26.247,14.792,45.028,14.792,45.028l32.502,8.16l32.503-8.16c0,0,4.688-18.753,14.77-44.969l0.597-0.002h196.215
		l1.122,0.02c0,5,0,7.885,0,8.002c0,24.962-0.019,48.054-0.529,69.318l-0.898-0.001h-96.652v-1.598V91.936l0.05-0.983
		c-11.387-2.567-22.412-5.222-32.786-7.832l-0.424-0.16c0,0-4.843,6.099-8.752,16.403l1.374-0.083H449l2.664,0.01
		c22.914,3.674,42.185,5.66,54.66,6.695c0,11.304,0,51.175,0,92.313l-1.428-0.057H360.361l-1.61-0.007
		c-8.392,13.623-19.175,32.143-30.451,54.183c-7.211,14.095-13.226,27.845-18.109,40.178l-0.029,0.894v79.764v1.291h-98.085v-1.597
		v-78.983l0.026-1.228c-4.894-12.369-10.926-26.17-18.165-40.32c-11.281-22.05-22.069-40.576-30.462-54.2l-0.754,0.025H16.996
		l-1.084-0.017c0-41.111,0-80.942,0-92.239c12.5-1.037,31.821-3.029,54.792-6.716l1.915,0.011h82.349l0.888-0.044
		c-3.901-10.228-8.703-16.276-8.703-16.276l-0.523,0.186c-10.317,2.595-21.276,5.233-32.594,7.786L113.991,91.664z"/>
</g>
</svg>
