<svg width="153" height="183" viewBox="0 0 153 183" fill="none" xmlns="http://www.w3.org/2000/svg">
<path d="M76.7759 15.3863C76.186 15.4006 75.5386 15.4006 74.8912 15.4006C50.4612 15.4006 31.3115 8.00983 25.9018 5.69397L6.47876 27.3515C9.22677 31.4257 16.3917 43.5768 17.7585 61.3031C18.593 72.139 15.3702 82.7177 12.2625 92.9389C9.84542 100.859 7.54343 108.464 7.18375 115.797L120.701 8.3958C111.478 11.5265 95.5803 15.6865 76.7759 15.3863Z" fill="white"/>
<path d="M128.715 6.80896L7.37091 121.63C7.48601 122.659 7.64427 123.703 7.87447 124.718C9.39954 131.565 15.9027 137.812 23.9309 143.159L146.742 26.9512L128.715 6.80896Z" fill="#58B6E7"/>
<path d="M141.52 37.9015L27.7437 145.56C38.6494 152.122 51.224 157.068 57.9286 159.713C59.8997 160.485 61.4392 161.099 62.4463 161.543C70.5033 165.102 74.6468 169.905 76.7762 173.636C78.8911 169.905 83.0491 165.102 91.1061 161.543C92.1132 161.099 93.6671 160.485 95.6238 159.713C108.299 154.738 141.966 141.5 145.692 124.732C147.922 114.711 144.714 104.146 141.304 92.9531C138.196 82.7319 134.973 72.1533 135.822 61.3174C136.57 51.7537 139.002 43.8341 141.52 37.9015Z" fill="white"/>
<path d="M151.648 28.5523L152.771 27.1228L128.859 0.418959L127.377 1.11943C127.161 1.2195 106.141 11.0547 78.7471 11.0547C78.1285 11.0547 77.481 11.0547 76.776 11.0405C76.143 11.0547 75.5099 11.0547 74.8913 11.0547C47.5695 11.0547 26.4775 1.20521 26.276 1.10514L24.7941 0.404663L0.853394 27.0942L1.97562 28.5237C2.07633 28.6524 11.8454 41.3324 13.4137 61.6319C14.1906 71.6673 11.0829 81.8313 8.09029 91.6809C4.66607 102.903 1.12676 114.511 3.6014 125.647C7.83131 144.674 41.8145 158.04 56.3171 163.744C58.2306 164.502 59.7413 165.088 60.6765 165.502C67.7983 168.662 71.3088 172.779 73.0209 175.824C74.3158 178.125 76.776 182.7 76.776 182.7C76.776 182.7 79.1931 178.225 80.5456 175.824C82.2577 172.779 85.7826 168.647 92.89 165.502C93.8108 165.088 95.3359 164.502 97.2494 163.744C111.766 158.04 145.735 144.688 149.979 125.661C152.468 114.525 148.929 102.917 145.519 91.6809C142.527 81.8456 139.433 71.6673 140.21 61.6319C141.764 41.4468 151.548 28.681 151.648 28.5523ZM12.277 92.9389C15.3847 82.7177 18.6075 72.139 17.7731 61.3031C16.4062 43.5625 9.24128 31.4257 6.49328 27.3515L25.8876 5.70826C31.2973 8.02412 50.447 15.4005 74.8769 15.4148C75.5243 15.4148 76.1718 15.4005 76.7617 15.4005C95.5805 15.7008 111.464 11.5408 120.687 8.3958L7.16949 115.797C7.54356 108.464 9.85995 100.859 12.277 92.9389ZM7.87447 124.718C7.64428 123.688 7.48602 122.659 7.37092 121.63L128.715 6.80901L146.757 26.9655L23.9309 143.173C15.9027 137.812 9.39955 131.551 7.87447 124.718ZM141.318 92.9675C144.714 104.161 147.936 114.725 145.706 124.746C141.966 141.515 108.313 154.738 95.638 159.727C93.6813 160.499 92.1275 161.099 91.1203 161.557C83.0634 165.116 78.9198 169.92 76.7904 173.651C74.6755 169.905 70.5319 165.116 62.4605 161.557C61.4534 161.099 59.8995 160.499 57.9428 159.727C51.2383 157.082 38.6636 152.136 27.7579 145.575L141.534 37.9158C139.016 43.8341 136.585 51.7681 135.851 61.3317C134.988 72.1676 138.211 82.7319 141.318 92.9675Z" fill="#D1A364"/>
<path d="M31.6281 132.023L16.4061 116.069L24.6789 108.278C26.2184 106.834 27.5133 105.862 28.5635 105.362C29.6282 104.861 30.7361 104.718 31.9158 104.976C33.0812 105.219 34.5631 106.248 35.5271 107.263C36.3759 108.149 37.268 109.436 37.4982 110.451C37.7284 111.451 37.6996 112.466 37.4262 113.481C37.2392 114.139 36.8651 114.897 36.2896 115.754L47.4255 117.155L41.8144 122.43L31.1965 121.616L36.6061 127.334L31.6281 132.023ZM28.319 118.585L30.4051 116.612C30.6353 116.398 30.995 115.912 31.513 115.154C31.772 114.782 31.8871 114.368 31.8439 113.896C31.8007 113.439 31.254 112.681 30.9231 112.323C30.4339 111.809 29.4843 111.166 28.8801 111.194C28.2902 111.237 27.542 111.68 26.6356 112.524L24.4487 114.582L28.319 118.585Z" fill="#D1A364"/>
<path d="M41.8602 92.0818L36.8875 96.7606L52.1027 112.725L57.0753 108.046L41.8602 92.0818Z" fill="#D1A364"/>
<path d="M54.4611 80.2731L59.4391 75.5842L67.7119 84.2473C69.4528 86.0628 70.6038 87.6067 71.1937 88.8647C71.7692 90.1227 71.8843 91.5379 71.539 93.1247C71.1937 94.7115 70.2441 96.2268 68.7047 97.6707C67.0789 99.2003 65.6257 100.158 64.3165 100.558C63.0072 100.959 61.7123 100.973 60.4319 100.601C59.1514 100.215 57.8709 99.4576 56.6048 98.2997L60.734 93.1962C61.4102 93.8967 61.9713 94.3541 62.4173 94.5829C62.8633 94.8116 63.3237 94.9116 63.7985 94.8545C64.1151 94.8116 64.4604 94.6257 64.8057 94.2969C65.3524 93.768 65.5682 93.1819 65.4387 92.5243C65.3092 91.8667 64.7769 91.0662 63.8561 90.0941L54.4611 80.2731Z" fill="#D1A364"/>
<path d="M65.2804 70.0948L78.5744 57.572L81.826 60.9743L73.4957 68.8225L75.9127 71.3528L83.6388 64.0764L86.7465 67.3358L79.0204 74.6122L82.0274 77.7572L90.588 69.6945L94.041 73.297L80.488 86.0485L65.2804 70.0948Z" fill="#D1A364"/>
<path d="M128.657 35.6429L123.017 40.9465L124.744 44.3202L119.68 49.0949L110.5 27.4516L115.91 22.3481L137.16 32.6265L131.966 37.5156L128.657 35.6429ZM124.341 33.1698L117.09 29.1099L120.816 36.5006L124.341 33.1698Z" fill="#D1A364"/>
<path d="M84.7754 51.5251L89.7391 46.8505L96.7601 54.1554L95.8106 41.0751L101.537 35.7429L102.342 49.295L117.018 51.4536L110.903 57.2003L98.0982 55.585L104.961 62.8041L99.9973 67.4787L84.7754 51.5251Z" fill="#D1A364"/>
<path d="M30.9376 30.2534H24.6071V22.0193H19.96V43.6626H24.6071V35.4284H30.9376V43.6626H35.5847V22.0193H30.9376V30.2534Z" fill="#D1A364"/>
<path d="M51.037 34.4134L45.1237 22.0336H39.4263V43.6625H43.6706V28.5809L50.8211 43.6625H55.2956V22.0336H51.037V34.4134Z" fill="#D1A364"/>
<path d="M68.4024 32.0689L75.0062 22.0336H69.6253L63.6977 31.6258V22.0336H59.0505V43.6625H63.6977V36.3576L64.6041 34.8708L69.6541 43.6625H75.2796L68.4024 32.0689Z" fill="#D1A364"/>
<path d="M108.745 123.474C105.047 123.474 102.04 120.486 102.04 116.827C102.04 113.153 105.047 110.165 108.745 110.165C112.443 110.165 115.435 113.153 115.435 116.827C115.435 120.486 112.428 123.474 108.745 123.474Z" fill="black"/>
<path d="M104.616 122.044V137.583C105.091 137.798 105.58 137.998 106.069 138.198V122.902C105.551 122.688 105.062 122.402 104.616 122.044Z" fill="#D1A364"/>
<path d="M106.875 138.513C107.349 138.67 107.839 138.827 108.328 138.956V123.445C107.824 123.417 107.335 123.331 106.875 123.202V138.513Z" fill="#D1A364"/>
<path d="M111.392 138.212C111.882 138.027 112.371 137.812 112.846 137.598V122.059C112.4 122.402 111.91 122.702 111.392 122.931V138.212Z" fill="#D1A364"/>
<path d="M109.133 138.956C109.622 138.813 110.112 138.67 110.586 138.513V123.202C110.126 123.331 109.637 123.417 109.133 123.445V138.956Z" fill="#D1A364"/>
<path d="M123.434 114.411C123.434 107.063 116.701 100.716 111.205 99.1288C110.342 98.8858 109.507 98.7428 108.73 98.7428C107.939 98.7428 107.09 98.8858 106.213 99.1431C100.731 100.758 94.0264 107.077 94.0264 114.411C94.0264 120.272 97.1629 125.69 102.04 128.349V125.404C100.846 123.917 100.17 122.059 100.17 120.129C100.17 116.855 102.04 114.025 104.759 112.595C105.954 111.98 107.292 111.623 108.73 111.623C110.14 111.623 111.478 111.966 112.658 112.581C115.406 113.996 117.291 116.841 117.291 120.129C117.291 122.073 116.615 123.917 115.421 125.418V128.363C120.312 125.675 123.434 120.257 123.434 114.411Z" fill="#D1A364"/>
<path d="M103.393 120.815L102.04 123.488V125.389V128.334V134.467V136.183C102.04 136.183 102.04 136.183 102.055 136.183C102.53 136.483 103.004 136.754 103.508 137.026V135.382V123.817L104.472 121.916C104.069 121.601 103.709 121.23 103.393 120.815Z" fill="#D1A364"/>
<path d="M114.083 120.815C113.766 121.23 113.421 121.601 113.018 121.93L113.982 123.831V135.396V137.04C114.486 136.769 114.961 136.497 115.435 136.197V134.481V128.334V125.389V123.474L114.083 120.815Z" fill="#D1A364"/>
<path d="M86.43 101.245C85.6962 112.109 90.3146 128.892 102.04 136.197V134.481V128.349C97.163 125.675 94.0266 120.272 94.0266 114.411C94.0266 107.077 100.731 100.759 106.213 99.1432V95.3263L86.4732 100.73L86.43 101.245Z" fill="#58B6E7"/>
<path d="M131.002 101.245L130.959 100.73L111.205 95.3263V99.1289C116.701 100.716 123.435 107.063 123.435 114.411C123.435 120.272 120.298 125.675 115.435 128.349V134.481V136.168C127.118 128.835 131.736 112.081 131.002 101.245Z" fill="#58B6E7"/>
</svg>
