<?xml version="1.0" encoding="UTF-8"?>
<svg width="300" height="360.87" version="1.1" viewBox="0 0 300 360.87" xmlns="http://www.w3.org/2000/svg" xmlns:cc="http://creativecommons.org/ns#" xmlns:dc="http://purl.org/dc/elements/1.1/" xmlns:rdf="http://www.w3.org/1999/02/22-rdf-syntax-ns#"><metadata><rdf:RDF><cc:Work rdf:about=""><dc:format>image/svg+xml</dc:format><dc:type rdf:resource="http://purl.org/dc/dcmitype/StillImage"/><dc:title/></cc:Work></rdf:RDF></metadata><g transform="matrix(.63653 0 0 .63653 -39.456 -87.51)" fill-rule="evenodd"><path d="m258.95 170.28 38.992-32.797 38.255 32.398c4.5775-5.272 11.614-10.676 22.495-15.382 45.661 41.023 101.35 74.992 167.62 105.81-17.541 7.4251-28.689 20.934-29.514 42.322-2.8763 74.542-3.8047 181.63-4.455 272.87-0.1206 16.908 14.107 31.556 26.73 33.969-78.984 24.085-138.76 61.116-167.62 92.998-6.4972-5.7545-16.892-9.2815-27.844-12.251l0.515-6.9562-26.682 21.158-26.764-21.193 0.518 6.9912c-10.952 2.9697-21.346 6.4967-27.844 12.251-28.863-31.881-88.634-68.912-167.62-92.998 12.623-2.4132 26.85-17.061 26.73-33.969-0.6503-91.234-1.5787-198.33-4.455-272.87-0.8254-21.389-11.974-34.897-29.514-42.322 66.272-30.813 121.96-64.782 167.62-105.81 11.155 4.8241 18.271 10.383 22.837 15.781zm272.68 94.606c3.2483 12.71 2.0135 32.638-6.1684 39.589-1.9483-3.387-9.8184-12.89-21.688-9.373 3.0586-13.633 13.95-25.154 27.857-30.216zm-32.554 318.57c6.2126-5.842 13.218-13.032 19.431-18.874 5.7988 10.229 7.5467 25.304 6.1416 34.116-0.445 2.7926-2.3933 6.1664-6.5268 4.7083-6.6878-2.3597-14.597-7.5063-19.046-19.95zm-435.67-318.34c-2.5582 11.33-2.2435 32.408 5.9384 39.359 1.9483-3.387 9.8184-11.74 21.688-10.293-3.0587-13.633-14.18-24.694-27.627-29.066zm32.324 317.89c-6.2127-5.842-13.218-12.583-19.431-18.425-5.7988 10.229-7.5467 25.304-6.1416 34.116 0.445 2.7926 1.9439 5.717 6.0774 4.259 6.6878-2.3598 15.046-7.5064 19.495-19.95z" fill="#0068a3"/><path d="m119.17 297.38 178.76-150.36 177.53 150.36v256.56l-178.02 141.16-178.27-141.16zm8.7543 185.81c27.386-32.652 47.424-59.821 44.811-89.443-2.118-24.011-20.474-27.457-27.894-26.742-6.3309 0.6109-12.374 2.7936-16.917 5.8372v-42.82c57.54-26.509 82.511 10.317 75.963 60.142-7.7943 59.308-41.842 121.44-69.071 159.12-1.4469 0.7966-2.9215 1.586-4.4287 2.3709l-2.4634-1.9507zm0-82.388c3.1195 0.3244 6.2457-0.0559 8.8482-0.8311 4.8737-1.4513 10.006-6.147 9.4518-12.449-0.6362-7.2408-7.022-9.9512-15.215-9.9128 3.9623-3.0013 9.8583-4.9963 14.909-5.2273 6.6474-0.304 12.635 2.8938 16.482 8.124 2.992 4.0674 4.5994 9.549 4.8027 14.393 0.9679 23.059-8.7426 42.56-39.278 79.621zm0-80.105c63.906-20.719 98.118 19.707 98.074 65.259-0.0355 37.351-16.259 86.514-77.638 155.14 12.406-8.2588 24.06-17.685 35.908-29.889 20.24-20.848 43.815-50.473 62.934-72.35 11.514-13.176 23.101-26.308 35.062-39.082 31.116-33.229 70.54-67.504 114.39-87.615 19.99-9.1682 40.899-15.392 62.359-17.232l-161.1-136.44-169.98 142.98zm338.78-16.776c-36.561 0.5973-73.393 14.784-106.43 36.495-13.243 8.7033-28.364 20.11-39.352 29.859-12.183 10.811-25.537 25.236-36.667 37.122-11.9 12.708-19.74 23.471-31.196 36.579-19.21 21.982-38.261 44.326-58.599 65.273-17.183 17.699-37 34.486-58.865 46.534l161.84 128.15 169.27-134.22z" fill="#fff"/><path d="m296.91 211.3a42.373 42.373 0 0 1 42.373 42.373 42.373 42.373 0 1 1-42.373-42.373z" fill="#fff"/><path d="m286.47 282.75-14.522-10.969-6.3722 2.9152-0.1148-0.1727c-4.0897-6.1553-6.2535-13.317-6.2807-20.706l-5e-4 -0.1814 4.7371-1.4313 5.1816-17.661-2.621-3.171 0.1133-0.1532c4.3898-5.9169 10.432-10.451 17.357-12.984l0.1814-0.0662 2.1964 3.3539 19.152-0.0481 2.3111-3.9288 0.1839 0.0564c7.0642 2.1658 13.341 6.3829 18.041 12.077l0.122 0.1479-2.4614 3.2614 7.0672 17.82 3.8305 0.6561 0.01 0.1945c0.0321 0.6391 0.0486 1.2786 0.0486 1.9182 0 7.0662-1.9546 13.937-5.6942 19.934l-0.1021 0.1634-4.792-1.6346-15.732 10.989 0.2597 6.433-0.1765 0.0564c-3.7158 1.1882-7.5896 1.7854-11.49 1.7854-3.5868 0-7.1532-0.5053-10.596-1.5116l-0.1843-0.054 0.3467-7.0876zm-4.9243-24.592-8.7139 3.1472 0.3107 8.6862 14.507 10.958 8.1381-2.7124v-9.7314zm-9.4138 1.1152 8.7198-3.1496 5.4666-16.822-5.8781-7.197-9.1969 2.761-5.2311 17.831zm49.54-25.406-8.5082-2.8116-5.8289 8.0229 5.4272 16.701 10.749 3.4929 5.1831-7.6994zm1.194 36.475 0.0676-8.9975-10.46-3.3991-14.536 10.561v9.7849l9.2368 3.012zm-36.38-46.67-4.3937 7.0579 5.9923 7.3376h17.329l5.9899-8.2441-5.4004-6.2005z" fill="#0068a2"/><g fill="#fff"><path d="m378.58 490.21h10.926v-14.417c-9e-3 -1.2151 0.105-2.2497 0.3589-3.1226 0.2452-0.8639 0.674-1.539 1.2958-1.9977 0.6213-0.468 1.4883-0.7111 2.5997-0.7111 1.0247 9e-3 1.8127 0.2609 2.3727 0.7471 0.5605 0.4858 0.9457 1.1249 1.156 1.9257 0.2189 0.792 0.3152 1.6649 0.3061 2.6186v14.957h10.926v-16.954c0-2.6008-0.3847-4.7968-1.1555-6.6056-0.7703-1.8089-1.9439-3.1764-3.5195-4.1212-1.576-0.9449-3.5722-1.4129-5.988-1.4222-1.3749 0-2.6089 0.1982-3.7035 0.6031-1.0942 0.396-2.1011 0.9897-3.0118 1.7639-0.9015 0.7738-1.7686 1.7369-2.5825 2.8706v-4.4274h-9.9803z"/><path d="m428.8 480.16 5.8833 10.044h13.133l-11.504-17.333 10.191-10.961h-12.765l-6.987 8.6396v-8.6383h-10.927v28.293h10.927v-7.9373z"/><path d="m207.93 546.54h12.91l9.8495-28.518h-11.13l-5.0643 18.014-5.1193-18.014h-11.575z"/><path d="m263.68 546.54v-0.5444c-0.4917-0.3898-0.8536-0.7618-1.0757-1.1155-0.2136-0.3538-0.3524-0.7258-0.408-1.1249-0.056-0.3991-0.0837-0.8706-0.0748-1.4057v-13.334c0.01-1.1338-0.0273-2.2133-0.1294-3.2382-0.0927-1.016-0.2875-1.9684-0.5939-2.8479-0.3152-0.88-0.7788-1.6693-1.4187-2.3675-0.6306-0.7075-1.4932-1.3062-2.5599-1.8053-1.0762-0.4987-2.4296-0.8795-4.0531-1.152-1.6324-0.2631-3.589-0.3991-5.8802-0.3991-2.8748 0-5.3241 0.2178-7.3457 0.644-2.0215 0.4356-3.6728 1.0613-4.9344 1.8777-1.2611 0.8254-2.1792 1.8231-2.7637 3.0115-0.5933 1.1791-0.8809 2.5306-0.8715 4.0453h11.13c0.1111-0.8071 0.3803-1.4058 0.816-1.8049 0.4358-0.408 0.9553-0.6711 1.5397-0.7982 0.5845-0.1271 1.1501-0.1813 1.7063-0.1724 0.3158-9e-3 0.6871 0.0182 1.1134 0.0724 0.4174 0.0547 0.8343 0.1636 1.2428 0.3178 0.3985 0.1631 0.7421 0.3991 1.0108 0.7075 0.2691 0.3173 0.4079 0.7253 0.4174 1.2427-0.01 0.6528-0.3059 1.1702-0.8904 1.5328-0.5844 0.3627-1.3632 0.644-2.3556 0.8347-0.9831 0.1902-2.087 0.3537-3.3204 0.4897-1.2338 0.136-2.5044 0.2991-3.8121 0.4898-1.3073 0.1902-2.5783 0.4809-3.8121 0.8524-1.224 0.372-2.3369 0.8889-3.3199 1.5511-0.9924 0.6715-1.7717 1.5422-2.3557 2.6217-0.5755 1.0791-0.8719 2.4306-0.8908 4.0363 9e-3 1.4787 0.297 2.7666 0.8537 3.8457 0.5566 1.0796 1.3166 1.9778 2.2813 2.676 0.9741 0.7075 2.0776 1.2244 3.3203 1.5693 1.2428 0.3355 2.56 0.5079 3.9514 0.5079 1.4372 9e-3 2.7915-0.1088 4.0437-0.3355 1.2517-0.236 2.4483-0.6351 3.5801-1.1973 1.1402-0.5627 2.2535-1.3426 3.3391-2.3315l0.5563 3.0479zm-18.252-5.6056c-1.1501-9e-3 -2.0498-0.236-2.6898-0.6622-0.6494-0.4351-0.9741-1.016-0.9835-1.7324 9e-3 -0.7347 0.1948-1.3062 0.5478-1.7324 0.3618-0.4174 0.8437-0.744 1.4559-0.9796 0.6122-0.2271 1.2983-0.4266 2.0592-0.5808 0.76-0.1543 1.5487-0.3262 2.3647-0.5169 0.8164-0.1996 1.6046-0.4716 2.3651-0.8164 0.1021 1.3155 0 2.5035-0.297 3.5648-0.3058 1.0524-0.8437 1.8866-1.6225 2.5035-0.7887 0.6257-1.855 0.9342-3.1999 0.9524z"/><path d="m268.13 546.54h11.575v-9.8508c0-2.0409 0.2687-3.6733 0.7976-4.8888 0.5285-1.2244 1.3171-2.1044 2.3745-2.6488 1.0569-0.5351 2.374-0.7982 3.9509-0.7889 0.3892 9e-3 0.7882 0.0453 1.1962 0.1178 0.4085 0.0817 0.8071 0.1453 1.1967 0.2084v-11.32c-0.2508-0.0276-0.5012-0.0636-0.7515-0.1-0.2504-0.0365-0.5007-0.0636-0.751-0.0636-2.2447-9e-3 -4.0997 0.5351-5.565 1.6147-1.4654 1.0884-2.5971 2.7394-3.3943 4.9705h-0.1115v-5.7687h-10.517z"/><path d="m324.53 546.54v-0.5444c-0.4918-0.3898-0.8536-0.7618-1.0758-1.1155-0.2136-0.3538-0.3524-0.7258-0.4079-1.1249-0.056-0.3991-0.0838-0.8706-0.0749-1.4057v-13.334c0.01-1.1338-0.0277-2.2133-0.1294-3.2382-0.0927-1.016-0.2875-1.9684-0.5938-2.8479-0.3153-0.88-0.7788-1.6693-1.4188-2.3675-0.6306-0.7075-1.4931-1.3062-2.5599-1.8053-1.0762-0.4987-2.4301-0.8795-4.0531-1.152-1.6324-0.2631-3.589-0.3991-5.8802-0.3991-2.8747 0-5.3241 0.2178-7.3456 0.644-2.0221 0.4356-3.6729 1.0613-4.9345 1.8777-1.2611 0.8254-2.1792 1.8231-2.7636 3.0115-0.5934 1.1791-0.8809 2.5306-0.8715 4.0453h11.13c0.111-0.8071 0.3802-1.4058 0.8159-1.8049 0.4358-0.408 0.9553-0.6711 1.5397-0.7982 0.5845-0.1271 1.1501-0.1813 1.7063-0.1724 0.3153-9e-3 0.6866 0.0182 1.1134 0.0724 0.4174 0.0547 0.8343 0.1636 1.2423 0.3178 0.3991 0.1631 0.7421 0.3991 1.0113 0.7075 0.2691 0.3173 0.408 0.7253 0.4174 1.2427-9e-3 0.6528-0.3059 1.1702-0.8903 1.5328-0.5845 0.3627-1.3633 0.644-2.3557 0.8347-0.983 0.1902-2.087 0.3537-3.3204 0.4897-1.2338 0.136-2.5044 0.2991-3.8121 0.4898-1.3077 0.1902-2.5782 0.4809-3.8121 0.8524-1.2239 0.372-2.3368 0.8889-3.3199 1.5511-0.9924 0.6715-1.7717 1.5422-2.3557 2.6217-0.5755 1.0791-0.8724 2.4306-0.8907 4.0363 9e-3 1.4787 0.2964 2.7666 0.8531 3.8457 0.5567 1.0796 1.3171 1.9778 2.2818 2.676 0.9741 0.7075 2.0776 1.2244 3.3204 1.5693 1.2427 0.3355 2.5599 0.5079 3.9514 0.5079 1.4371 9e-3 2.7914-0.1088 4.0436-0.3355 1.2517-0.236 2.4484-0.6351 3.5796-1.1973 1.1407-0.5627 2.2541-1.3426 3.3392-2.3315l0.5567 3.0479zm-18.253-5.6056c-1.15-9e-3 -2.0498-0.236-2.6898-0.6622-0.6493-0.4351-0.974-1.016-0.9835-1.7324 0.01-0.7347 0.1949-1.3062 0.5478-1.7324 0.3619-0.4174 0.8437-0.744 1.4559-0.9796 0.6123-0.2271 1.2983-0.4266 2.0593-0.5808 0.7599-0.1543 1.5486-0.3262 2.3646-0.5169 0.8164-0.1996 1.6046-0.4716 2.3651-0.8164 0.1021 1.3155 0 2.5035-0.297 3.5648-0.3058 1.0524-0.8437 1.8866-1.6225 2.5035-0.7887 0.6257-1.855 0.9342-3.1999 0.9524z"/><path d="m354.12 546.54v-8.2722h-13.356l12.744-12.354v-7.8913h-26.267v8.2722h12.021l-13.189 12.681v7.5647zm-10.74-38.916-3.1166 4.0821-3.1161-4.0821h-8.1804l6.7334 8.0549h9.1267l6.7885-8.0549z"/><path d="m389.38 546.54v-39.185h-11.575v13.551c-0.8065-0.9342-1.6503-1.6782-2.5227-2.2221-0.8715-0.5351-1.8084-0.9254-2.8192-1.152-1.0113-0.2267-2.1242-0.3356-3.3392-0.3267-1.7529 9e-3 -3.3664 0.3809-4.8695 1.1067-1.4931 0.7346-2.8003 1.787-3.9132 3.1474-1.1228 1.3698-1.9943 3.0115-2.6159 4.9253-0.6306 1.923-0.9459 4.0639-0.9553 6.4402 0 2.0227 0.2781 3.9186 0.8348 5.6692 0.5562 1.7507 1.3821 3.2929 2.495 4.6168 1.1039 1.3244 2.4855 2.3586 4.1368 3.1115 1.6503 0.7435 3.5801 1.1244 5.7781 1.1337 1.2334 9e-3 2.3557-0.1359 3.3759-0.4262 1.0108-0.2902 1.9755-0.7711 2.8747-1.4515 0.9096-0.6804 1.8089-1.5964 2.7086-2.7484v3.8097zm-16.472-7.3474c-0.9369-9e-3 -1.7068-0.2084-2.3096-0.5893s-1.0668-0.8888-1.391-1.5239c-0.3247-0.6351-0.5567-1.3333-0.6861-2.0862-0.1209-0.7618-0.1859-1.5146-0.1765-2.2768-9e-3 -0.7982 0.0739-1.5964 0.2226-2.3853 0.1577-0.7893 0.4174-1.5151 0.7887-2.1773 0.3609-0.6529 0.8621-1.1791 1.5021-1.5782 0.631-0.3991 1.4281-0.5986 2.3834-0.6075 0.9553 9e-3 1.7529 0.1995 2.3933 0.5804 0.64 0.3809 1.1496 0.8889 1.5209 1.524 0.3802 0.6346 0.6489 1.3422 0.8066 2.1221 0.1576 0.7711 0.2414 1.5605 0.2324 2.3587 9e-3 0.8342-0.0837 1.6506-0.2602 2.4399-0.176 0.7893-0.4729 1.4964-0.8809 2.1226-0.408 0.6347-0.9458 1.1338-1.6324 1.5058-0.6772 0.3715-1.512 0.5622-2.5133 0.571z"/><path d="m406.52 546.54v-28.518h-11.575v28.518zm-11.575-30.831h11.575v-8.0549h-11.575z"/><path d="m412 546.54h11.575v-14.531c-9e-3 -1.2244 0.1111-2.2675 0.3802-3.1475 0.2598-0.8706 0.7139-1.551 1.3727-2.0137 0.6583-0.4715 1.5769-0.7164 2.7547-0.7164 1.0852 9e-3 1.9195 0.2631 2.5133 0.7529 0.5934 0.4897 1.0014 1.1337 1.2245 1.9412 0.2315 0.7982 0.3336 1.6778 0.3242 2.6395v15.075h11.575v-17.089c0-2.6213-0.408-4.8345-1.2244-6.6581-0.816-1.823-2.0588-3.2017-3.7284-4.1541-1.6695-0.9524-3.7843-1.4239-6.3442-1.4333-1.456 0-2.7637 0.1996-3.9232 0.608-1.159 0.3991-2.2258 0.9978-3.1904 1.7777-0.9553 0.78-1.8734 1.7507-2.7359 2.8933v-4.4625h-10.573z"/></g></g></svg>
