<?xml version="1.0" encoding="UTF-8" standalone="no"?>
<svg
   width="299.71814"
   height="300"
   viewBox="0 0 299.71814 300"
   fill="none"
   version="1.1"
   id="svg2"
   sodipodi:docname="bohemians_logo.svg"
   inkscape:version="1.3 (0e150ed6c4, 2023-07-21)"
   xmlns:inkscape="http://www.inkscape.org/namespaces/inkscape"
   xmlns:sodipodi="http://sodipodi.sourceforge.net/DTD/sodipodi-0.dtd"
   xmlns="http://www.w3.org/2000/svg"
   xmlns:svg="http://www.w3.org/2000/svg">
  <sodipodi:namedview
     id="namedview2"
     pagecolor="#ffffff"
     bordercolor="#000000"
     borderopacity="0.25"
     inkscape:showpageshadow="2"
     inkscape:pageopacity="0.0"
     inkscape:pagecheckerboard="0"
     inkscape:deskcolor="#d1d1d1"
     showgrid="false"
     inkscape:zoom="1.2139587"
     inkscape:cx="52.72008"
     inkscape:cy="198.11217"
     inkscape:window-width="1920"
     inkscape:window-height="1057"
     inkscape:window-x="-8"
     inkscape:window-y="-8"
     inkscape:window-maximized="1"
     inkscape:current-layer="svg2" />
  <g
     clip-path="url(#clip0_248_2448)"
     id="g2"
     transform="matrix(4.6875,0,0,4.6875,-0.14076234,0)">
    <path
       d="m 0.0300293,32 c 0,17.6446 14.3408707,32 31.9698707,32 17.6291,0 31.97,-14.3554 31.97,-32 C 63.9699,14.3554 49.629,0 31.9999,0 14.3709,0 0.0300293,14.3554 0.0300293,32 Z"
       fill="#fefefe"
       id="path1" />
    <path
       fill-rule="evenodd"
       clip-rule="evenodd"
       d="m 28.3126,40.3237 c 4.4692,7.3766 1.0704,7.0626 -3.7331,6.9283 -1.1065,-0.0311 -1.8666,-0.0263 -2.2034,0.6569 0.2261,0.1391 0.4595,0.2709 0.6904,0.4004 0.6037,-1.0333 1.4961,-0.6617 2.8792,-0.7192 4.7458,-0.2038 6.8554,-0.6881 2.3669,-7.2664 z m 13.0733,7.7267 c -0.0217,-0.0024 -0.0433,-0.0024 -0.0674,-0.0048 -1.258,-0.0792 -4.0074,-0.0792 -3.9304,-3.6201 0.0794,-3.5409 0.8227,-6.7725 0.9934,-9.9154 0.1708,-3.143 -2.2514,-4.9578 -4.1372,-6.6096 0,0 -2.7518,-2.3614 -3.1463,-4.4063 -0.4065,-2.1169 0.4258,-6.0917 0.255,-6.5712 -0.2742,-0.7576 -0.2261,-0.5969 -0.3055,-1.2275 -0.0529,-0.4243 0.3079,-1.5199 0.3608,-2.2894 0.1949,-0.0048 0.3945,-0.0072 0.5918,-0.0072 10.2469,0 18.5839,8.3428 18.5839,18.6011 0,6.8325 -3.6994,12.8163 -9.1981,16.0504 z m -16.003,1.3329 c 1.6789,0.0024 7.6034,0.2349 7.9954,0.1582 0.3945,-0.0791 1.1763,-0.6449 0.7072,-1.7333 -0.469,-1.0836 -2.5401,-4.1666 -2.7517,-5.5067 -0.2093,-1.3401 -0.3536,-2.5772 1.1016,-2.4405 1.4553,0.139 1.6501,2.2055 1.7295,3.5409 0.0794,1.3377 0.5508,4.4063 1.7295,5.1159 0.7937,0.4771 2.4078,0.5251 3.5936,0.5059 -2.2899,1.0141 -4.8252,1.5798 -7.4879,1.5798 -2.3309,0 -4.5606,-0.4315 -6.6172,-1.2202 z m 4.6111,-35.493 c 0,0 -0.9381,2.2847 -4.005,3.2293 -1.1786,0.6305 -0.3295,1.2658 0.1564,1.3377 0.4859,0.0719 1.7391,-0.175 1.8088,0.5514 0.0674,0.724 0.3151,1.6518 -1.258,4.0132 -1.5731,2.359 -3.0139,2.3446 -3.2232,3.3827 -0.2093,1.0404 -0.178,2.7545 0.0794,3.0686 0.2549,0.3164 1.1016,0.4723 1.258,-0.549 0.1563,-1.0237 0.7841,-1.5751 1.335,-1.496 0.5508,0.0792 1.258,0.6306 1.3374,2.3614 0.0793,1.7309 0.0793,2.3591 -0.7866,3.541 -0.8659,1.1795 -3.0669,2.9104 -0.9429,6.5304 2.1215,3.62 3.0668,4.1714 2.8287,5.3509 -0.2357,1.1819 -0.9429,1.2586 -2.2779,1.2586 -1.3374,0 -3.6971,-0.5514 -4.5606,0.0791 -0.2886,0.211 -0.5051,0.3668 -0.6374,0.513 -4.6568,-3.3826 -7.69,-8.875 -7.69,-15.0626 0,-4.9697 1.9315,-9.6398 5.4434,-13.1543 3.074,-3.0758 7.0357,-4.9434 11.3053,-5.3581 -0.1083,0.2229 -0.1708,0.4027 -0.1708,0.4027 z M 17.8252,17.81 c -3.7885,3.7903 -5.874,8.8295 -5.874,14.19 0,11.0662 8.9937,20.0683 20.0489,20.0683 11.0551,0 20.0464,-9.0021 20.0464,-20.0683 0,-11.0638 -8.9913,-20.0659 -20.0464,-20.0659 -5.3544,0 -10.3889,2.0857 -14.1749,5.8759 z M 9.05513,34.3518 c 0,0.8631 -0.69756,1.5607 -1.56109,1.5607 -0.86353,0 -1.56109,-0.6976 -1.56109,-1.5607 0,-0.863 0.69756,-1.5631 1.56109,-1.5631 0.86353,0 1.56109,0.7001 1.56109,1.5631 z m 49.16597,0 c 0,0.8631 -0.6975,1.5607 -1.5611,1.5607 -0.8635,0 -1.5611,-0.6976 -1.5611,-1.5607 0,-0.863 0.6976,-1.5631 1.5611,-1.5631 0.8636,0 1.5611,0.7001 1.5611,1.5631 z M 43.505,52.03 l 0.0144,-0.0096 1.6814,1.4048 -1.2508,0.7576 z m -0.1588,5.0728 1.0777,-0.6545 -0.2719,-1.3041 1.8041,-1.0956 1.0175,0.8558 1.1016,-0.6688 -4.729,-3.7375 -1.0896,0.6592 z m -6.177,1.9179 1.1931,-0.3452 -0.6759,-2.3423 2.1961,-0.6353 0.6759,2.3423 1.1931,-0.3429 -1.5659,-5.43 -1.1931,0.3452 0.6013,2.0834 -2.1961,0.6329 -0.6013,-2.0834 -1.1907,0.3453 z m -4.563,-3.8646 h 0.0169 l 0.7721,2.0498 -1.4625,0.0455 z m -2.6339,4.3393 1.2604,-0.0384 0.4042,-1.2706 2.1095,-0.0647 0.4642,1.2466 1.2893,-0.0384 -2.2779,-5.5858 -1.2724,0.0384 z m -3.9737,-5.5188 1.3278,0.2925 c 0.5412,0.1199 0.7842,0.4148 0.6663,0.9494 -0.1227,0.5562 -0.4666,0.724 -1.0079,0.6041 l -1.3277,-0.2925 z m -2.2177,4.3105 1.2123,0.2661 0.4738,-2.1576 1.2124,0.2685 c 0.6109,0.1342 0.7769,0.4387 0.736,1.0356 -0.0361,0.4555 -0.1684,0.9854 -0.0986,1.3641 l 1.2123,0.2685 c -0.1467,-0.3572 0.0024,-1.0044 0.0553,-1.3593 0.0842,-0.5633 0.0409,-1.1795 -0.5195,-1.4671 l 0.0048,-0.0144 c 0.6639,-0.1127 1.0343,-0.5418 1.1762,-1.1915 0.1828,-0.8343 -0.291,-1.6614 -1.2797,-1.8795 l -2.973,-0.6521 z m -2.7157,-6.2907 0.8659,0.4267 c 0.5172,0.2566 0.9213,0.5994 0.6014,1.2443 -0.3175,0.6449 -0.8347,0.5298 -1.3518,0.2757 l -0.866,-0.4291 z m -3.1871,3.6488 1.1113,0.549 0.8996,-1.8148 1.169,0.5802 c 1.2604,0.6233 2.1456,0.0647 2.5521,-0.7576 0.4065,-0.8247 0.3151,-1.8676 -0.9477,-2.4933 L 20.3821,50.5796 Z M 51.628,18.6779 c -1.3206,0.6904 -1.311,2.1096 -0.6783,3.2892 0.7769,1.448 1.9194,1.8219 2.8984,1.2993 1.2075,-0.6497 0.8131,-1.9778 0.7024,-2.4189 -0.3728,-1.5199 -0.457,-1.8004 -0.0481,-2.021 0.4474,-0.2397 0.8371,0.1079 1.0367,0.4819 0.3007,0.5586 0.3801,1.1028 -0.2405,1.4839 l 0.6085,1.1364 c 1.2292,-0.6617 1.1666,-1.9443 0.5701,-3.0566 -0.5171,-0.9638 -1.5899,-1.7142 -2.6796,-1.1292 -0.9982,0.537 -0.8755,1.5007 -0.6615,2.4046 0.2117,0.8966 0.5437,1.7452 -0.0312,2.0545 -0.5436,0.2925 -1.0007,-0.2709 -1.2196,-0.6809 -0.3367,-0.6281 -0.3559,-1.3281 0.3512,-1.7093 z m -5.7705,-3.4067 0.8587,0.9014 2.9249,-2.7977 0.012,0.012 -1.1882,4.6173 0.9188,0.9614 4.3682,-4.181 -0.8587,-0.8991 -2.9322,2.8026 -0.012,-0.012 1.1883,-4.6293 -0.9117,-0.9542 z M 45.1791,9.44802 45.1936,9.45761 44.739,11.7591 43.3847,10.9727 Z m -4.8444,2.45488 1.1666,0.6785 1.0848,-0.9254 1.9556,1.1363 -0.2814,1.3929 1.1931,0.6952 1.0824,-6.36735 -1.1787,-0.68564 z m -1.9243,-0.7048 1.2556,0.4363 1.982,-5.71529 -1.2556,-0.43633 z m -7.4735,-0.9518 1.2364,0.1247 0.4233,-4.22415 0.0144,0.0024 1.0536,4.37035 1.0199,0.1031 1.8978,-4.11864 0.0169,0.0024 -0.4258,4.26494 1.2388,0.1222 L 38.0135,4.87625 36.1517,4.68926 34.4078,8.69525 34.391,8.69285 33.3976,4.41356 31.5358,4.22657 Z m -5.4217,1.11 L 30.006,10.419 29.7775,9.32576 26.588,9.98983 26.2849,8.53942 29.1521,7.94008 28.9404,6.92839 26.0732,7.52774 25.811,6.25953 28.9332,5.60745 28.7047,4.51185 24.2812,5.43484 Z m -5.6719,2.709 1.1786,-0.6137 -1.2027,-2.3134 2.1697,-1.1292 1.2027,2.3135 1.181,-0.6138 -2.7902,-5.36526 -1.1787,0.61372 1.0704,2.05934 -2.1696,1.1292 -1.0704,-2.05938 -1.1787,0.61373 z m -6.1915,1.5943 c -0.7408,-0.7576 -1.1305,-1.798 -0.279,-2.6347 0.8515,-0.8343 1.8834,-0.4243 2.6243,0.3332 0.7047,0.7192 1.0944,1.7597 0.2429,2.5964 -0.8539,0.8366 -1.8834,0.4243 -2.5882,-0.2949 z m -0.9501,0.9302 c 1.2195,1.2466 2.9851,1.4743 4.3201,0.1654 1.3373,-1.3114 1.1449,-3.0806 -0.077,-4.3273 -1.2556,-1.2825 -3.0188,-1.5103 -4.3538,-0.2013 -1.3373,1.3113 -1.1449,3.0806 0.1107,4.3632 z m -4.4644,3.5624 0.60135,-1.0908 c 0.2261,-0.4171 0.54362,-0.7455 1.04874,-0.4674 0.44501,0.2445 0.46181,0.6496 0.23811,1.0596 l -0.64943,1.1795 z m 3.7524,3.5817 1.4096,-2.5676 c 0.5267,-0.9589 0.57,-2.124 -0.5076,-2.7162 -0.6591,-0.3644 -1.335,-0.3116 -1.8762,0.2326 0.0313,-0.5826 -0.19,-1.0429 -0.7096,-1.3282 -0.98618,-0.5418 -1.68855,-0.0383 -2.24178,0.971 l -1.37107,2.4932 z m -1.7199,-2.4621 0.6976,-1.2706 c 0.2742,-0.4962 0.6759,-0.7216 1.2171,-0.4219 0.5485,0.302 0.4763,0.7839 0.2237,1.2442 l -0.6831,1.2466 z M 2.61112,32 C 2.61112,15.7795 15.795,2.58198 32.0001,2.58198 48.2051,2.58198 61.389,15.7795 61.389,32 61.389,48.223 48.2051,61.4181 32.0001,61.4181 15.795,61.4181 2.61112,48.223 2.61112,32 Z m -1.46488,0 c 0,17.0285 13.84056,30.8828 30.85386,30.8828 C 49.0133,62.8828 62.8539,49.0285 62.8539,32 62.8539,14.9715 49.0133,1.11719 32.0001,1.11719 14.9868,1.11719 1.14624,14.9715 1.14624,32 Z"
       fill="#009847"
       id="path2" />
  </g>
  <defs
     id="defs2">
    <clipPath
       id="clip0_248_2448">
      <rect
         width="64"
         height="64"
         fill="#ffffff"
         id="rect2"
         x="0"
         y="0" />
    </clipPath>
  </defs>
</svg>
