<?xml version="1.0" encoding="UTF-8"?>
<svg width="362.12" height="489.11" version="1.1" viewBox="0 0 95.811 129.41" xmlns="http://www.w3.org/2000/svg">
 <g transform="translate(-47.344 -31.968)">
  <g transform="matrix(.1717 0 0 .1717 -7.7727 16.772)" clip-rule="evenodd" fill-rule="evenodd" stroke-linejoin="round" stroke-miterlimit="2">
   <path d="m607.36 88.522-7.355-0.022c-157.76 0-261.81 30.987-261.81 30.987l-17.189 5.087v482.93c0 67.906 44.693 120.71 100.3 158.36 76.965 52.106 173.15 74.992 173.15 74.992l5.594 1.328 5.588-1.351s96.142-23.284 173.07-75.447c55.623-37.716 100.29-90.456 100.29-157.88v-482.93l-17.189-5.087s-100.83-30.028-254.46-30.965z" fill="#002fb9"/>
   <path d="m345 142.5s101.36-30 255-30 255 30 255 30v465c0 148.37-255 210-255 210s-255-60.543-255-210zm245.01 0.043 9.993-0.043c107.42 0 188.41 15.054 225 23.382v441.62c0 49.267-35.954 85.629-76.596 113.19-57.328 38.872-126.57 59.818-148.46 65.82-21.891-5.912-91.077-26.582-148.36-65.364-40.02-27.094-75.456-62.865-76.552-111.33l-0.026-2.317v-441.62c35.441-8.067 112.55-22.446 215.01-23.339z" fill="#ffc007"/>
   <path d="m577.5 283.88v389.62h45v-389.62h112.5v-41.25h-270v41.25zm-82.5 188.51h30.146l14.854-39.635h-45v-57.214l45.164 0.051 14.836-39.587h-105v285h45zm204.02-22.456 64.134 171.07h-48.05l-64.799-172.91 51.722-112.09h49.56z" fill="#fff"/>
  </g>
 </g>
</svg>
