<?xml version="1.0" encoding="UTF-8"?><svg id="Calque_2" xmlns="http://www.w3.org/2000/svg" viewBox="0 0 5789.63 7257.48"><defs><style>.cls-1{fill:#d82333;}.cls-1,.cls-2{fill-rule:evenodd;}.cls-2{fill:#c5a664;}</style></defs><g id="Calque_1-2"><polygon id="Fill-52" class="cls-2" points="2274.98 717.44 2652.15 444.58 2186.1 444.58 2041.28 0 1896.46 444.58 1430.64 444.58 1807.61 717.35 1663.47 1159.85 2041.31 886.49 2419.1 1159.85 2274.98 717.44"/><polygon id="Fill-58" class="cls-1" points="2206.36 5145.92 0 5145.92 1785.5 3853.92 1101.54 1754.38 2894.46 3051.46 4686.79 1754.49 4003.06 3853.46 5789.63 5145.92 3582.06 5145.92 2894.21 7257.48 2206.36 5145.92"/><polygon id="Fill-54" class="cls-2" points="3981.98 717.44 4359.14 444.58 3893.09 444.58 3748.27 0 3603.45 444.58 3137.63 444.58 3514.6 717.35 3370.46 1159.85 3748.3 886.49 4126.09 1159.85 3981.98 717.44"/></g></svg>