<?xml version="1.0" encoding="utf-8"?>
<!-- Generator: Adobe Illustrator 12.0.0, SVG Export Plug-In . SVG Version: 6.00 Build 51448)  -->
<!DOCTYPE svg PUBLIC "-//W3C//DTD SVG 1.1//EN" "http://www.w3.org/Graphics/SVG/1.1/DTD/svg11.dtd" [
	<!ENTITY ns_svg "http://www.w3.org/2000/svg">
	<!ENTITY ns_xlink "http://www.w3.org/1999/xlink">
]>
<svg  version="1.1" id="Layer_1" xmlns="&ns_svg;" xmlns:xlink="&ns_xlink;" width="131.258" height="188.206"
	 viewBox="0 0 131.258 188.206" overflow="visible" enable-background="new 0 0 131.258 188.206" xml:space="preserve">
<g>
	<path fill-rule="evenodd" clip-rule="evenodd" d="M14.832,77.961c3.893-0.373,5.191-4.476,3.522-5.595
		c-1.668-1.119-2.612,0.52-4.82,0.187c-3.708-0.56-3.522-3.357-3.522-5.595c0-2.238,2.499-6.975,4.635-8.766
		c3.337-2.797,6.674-4.663,6.86-5.782c0.185-1.119-1.298-1.678-1.483-3.543c-0.186-1.865,0.927-1.492,0.742-3.357
		c-0.186-1.866-0.556-3.357-1.854-4.476s-2.225-0.56-2.225,1.492c0,3.73-1.237,5.363-1.483,6.154
		c-1.854,5.968-9.145,8.011-9.455,20.142C5.562,76.096,12.248,78.208,14.832,77.961L14.832,77.961z"/>
	<path fill-rule="evenodd" clip-rule="evenodd" d="M21.506,107.987c-0.186-1.119-3.522-2.983-6.86-5.781
		c-2.136-1.791-4.635-6.527-4.635-8.766c0-2.238-0.186-5.035,3.522-5.595c2.208-0.333,3.152,1.306,4.82,0.187
		c1.668-1.119,0.371-5.222-3.522-5.595c-2.584-0.248-9.27,1.865-9.084,9.138c0.31,12.131,7.601,14.174,9.455,20.142
		c0.246,0.792,1.483,2.425,1.483,6.154c0,2.052,0.927,2.611,2.225,1.492c1.298-1.118,1.668-2.611,1.854-4.476
		c0.185-1.865-0.927-1.492-0.742-3.357S21.691,109.106,21.506,107.987L21.506,107.987z"/>
	<path fill-rule="evenodd" clip-rule="evenodd" d="M10.567,80.199c0,0-2.365-2.637-5.284-2.637C2.366,77.562,0,78.742,0,80.199
		c0,1.457,2.366,2.638,5.284,2.638C8.202,82.836,10.567,80.199,10.567,80.199L10.567,80.199z"/>
	<path fill-rule="evenodd" clip-rule="evenodd" d="M109.753,52.41c0.185,1.119,3.521,2.984,6.859,5.782
		c2.136,1.791,4.635,6.528,4.635,8.766c0,2.238,0.186,5.036-3.523,5.595c-2.207,0.333-3.15-1.305-4.819-0.187
		c-1.669,1.119-0.371,5.222,3.522,5.595c2.583,0.248,9.27-1.865,9.084-9.139c-0.31-12.131-7.601-14.174-9.455-20.142
		c-0.246-0.792-1.482-2.424-1.482-6.154c0-2.051-0.928-2.611-2.226-1.492s-1.668,2.61-1.854,4.476
		c-0.186,1.865,0.927,1.492,0.741,3.357C111.05,50.731,109.568,51.291,109.753,52.41L109.753,52.41z"/>
	<path fill-rule="evenodd" clip-rule="evenodd" d="M108.826,111.717c-2.781-9.885,10.012-13.055,7.416-18.463
		c-1.7-3.543-3.894,0.56-6.304-1.119c-2.266-1.578-1.668-5.968,2.78-11.936c-4.448-5.968-5.046-10.358-2.78-11.936
		c2.41-1.679,4.604,2.424,6.304-1.119c2.596-5.408-10.197-8.579-7.416-18.464c-4.078-6.527-0.556-12.029-0.556-12.029
		S94.086,21.544,65.628,19.865C36.5,21.73,22.989,36.65,22.989,36.65s3.522,5.502-0.556,12.029
		c2.781,9.885-10.012,13.056-7.416,18.464c1.7,3.543,3.893-0.56,6.303,1.119c2.266,1.578,1.669,5.968-2.781,11.936
		c4.45,5.968,5.047,10.358,2.781,11.936c-2.41,1.679-4.603-2.424-6.303,1.119c-2.596,5.409,10.197,8.579,7.416,18.463
		c4.078,6.528-0.742,12.962-0.742,12.962l20.208,17.607H89.36l20.208-17.607C109.568,124.679,104.748,118.246,108.826,111.717
		L108.826,111.717z"/>
	<path fill-rule="evenodd" clip-rule="evenodd" d="M116.427,82.437c-3.894,0.373-5.191,4.476-3.522,5.595
		c1.669,1.119,2.612-0.519,4.819-0.187c3.709,0.56,3.523,3.357,3.523,5.595c0,2.238-2.499,6.975-4.635,8.766
		c-3.338,2.798-6.675,4.662-6.859,5.781c-0.186,1.119,1.297,1.679,1.482,3.544s-0.927,1.492-0.741,3.357
		c0.186,1.864,0.556,3.357,1.854,4.476c1.298,1.119,2.226,0.56,2.226-1.492c0-3.729,1.236-5.362,1.482-6.154
		c1.854-5.968,9.146-8.011,9.455-20.142C125.697,84.302,119.01,82.189,116.427,82.437L116.427,82.437z"/>
	<path fill-rule="evenodd" clip-rule="evenodd" d="M125.975,77.562c-2.918,0-5.284,2.637-5.284,2.637s2.366,2.638,5.284,2.638
		s5.283-1.181,5.283-2.638C131.258,78.742,128.893,77.562,125.975,77.562L125.975,77.562z"/>
	
		<path fill-rule="evenodd" clip-rule="evenodd" fill="#FFFFFF" stroke="#000000" stroke-width="1.119" stroke-miterlimit="2.6131" d="
		M85.418,3.66c-3.023-0.977-6.326-1.791-9.896-2.34c-3.103-0.478-9.895-0.759-9.895-0.759c-3.494,0-6.79,0.283-9.894,0.76
		c-3.568,0.549-6.872,1.363-9.895,2.34c-3.732,1.206-7.045,2.649-9.895,4.133v151.685h9.895v14.084h9.895v14.083l19.788-0.001
		v-14.082h9.896v-14.086h9.894V7.793C92.463,6.309,89.151,4.865,85.418,3.66L85.418,3.66z"/>
	
		<path fill-rule="evenodd" clip-rule="evenodd" fill="#EE3224" stroke="#000000" stroke-width="1.119" stroke-miterlimit="2.6131" d="
		M75.523,1.319v172.242h9.896v-14.084V3.659C82.395,2.683,79.092,1.869,75.523,1.319L75.523,1.319z"/>
	
		<path fill-rule="evenodd" clip-rule="evenodd" fill="#EE3224" stroke="#000000" stroke-width="1.119" stroke-miterlimit="2.6131" d="
		M55.735,1.32v172.243v14.082h9.894V0.56C62.135,0.56,58.838,0.842,55.735,1.32L55.735,1.32z"/>
	
		<path fill-rule="evenodd" clip-rule="evenodd" fill="#EE3224" stroke="#000000" stroke-width="1.119" stroke-miterlimit="2.6131" d="
		M45.84,3.66c-3.732,1.206-7.045,2.649-9.895,4.133v151.684h9.895V3.66L45.84,3.66z"/>
	<path fill-rule="evenodd" clip-rule="evenodd" fill="#4D8E42" d="M95.312,136.524l8.879-7.833l-0.175-95.07
		c-6.174-4.696-19.495-12.728-38.388-12.728v-0.001c-18.891,0-32.212,8.031-38.386,12.728l-0.175,95.07l8.878,7.833V80.563h59.366
		V136.524L95.312,136.524z M95.312,55.61l-59.366-0.001v-5.588c0,0,11.886-11.598,29.683-11.563v0.002
		c17.799-0.035,29.684,11.563,29.684,11.563V55.61L95.312,55.61z"/>
	
		<path fill-rule="evenodd" clip-rule="evenodd" fill="#FFFFFF" stroke="#000000" stroke-width="1.119" stroke-miterlimit="2.6131" d="
		M65.628,142.891c10.828,0,19.606-8.83,19.606-19.723c0-10.892-8.778-19.723-19.606-19.723c-10.827,0-19.604,8.831-19.604,19.723
		C46.024,134.061,54.802,142.891,65.628,142.891L65.628,142.891z"/>
	<polygon fill-rule="evenodd" clip-rule="evenodd" points="31.88,37.79 37.17,42.245 35.055,35.643 36.573,34.616 38.902,43.383 
		37.565,44.288 30.374,38.809 31.88,37.79 	"/>
	<polygon fill-rule="evenodd" clip-rule="evenodd" points="41.461,32.2 45.144,39.942 43.621,40.676 39.938,32.933 41.461,32.2 	"/>
	<polygon fill-rule="evenodd" clip-rule="evenodd" points="49.881,38.035 48.266,38.53 45.78,30.319 47.396,29.824 48.439,33.271 
		50.553,28.857 52.584,28.234 50.405,32.521 55.314,36.371 53.406,36.956 49.625,33.876 49.002,35.13 49.881,38.035 	"/>
	<polygon fill-rule="evenodd" clip-rule="evenodd" points="61.217,35.655 59.539,35.833 58.784,28.641 56.1,28.926 55.959,27.583 
		62.981,26.837 63.123,28.181 60.463,28.463 61.217,35.655 	"/>
	<path fill-rule="evenodd" clip-rule="evenodd" d="M70.656,28.373c1.414,0.129,2.26,1.435,2.096,3.242
		c-0.166,1.82-1.23,2.95-2.646,2.82c-1.427-0.131-2.271-1.437-2.106-3.256C68.165,29.358,69.216,28.24,70.656,28.373L70.656,28.373z
		 M70.784,26.963c-2.356-0.216-4.231,1.472-4.46,3.997c-0.242,2.666,1.247,4.663,3.654,4.884c2.37,0.218,4.219-1.473,4.454-4.075
		C74.667,29.18,73.153,27.18,70.784,26.963L70.784,26.963z"/>
	<path fill-rule="evenodd" clip-rule="evenodd" d="M79.948,32.704l0.734-2.385l1.674,0.521c0.354,0.11,0.648,0.242,0.805,0.345
		c0.432,0.295,0.575,0.785,0.404,1.338c-0.233,0.762-0.929,1.018-1.931,0.706L79.948,32.704L79.948,32.704z M79.578,33.909
		l1.271,0.396c1.369,0.426,1.617,1.056,1.126,2.87c-0.158,0.557-0.178,0.752-0.106,1.084l1.528,0.476
		c-0.058-0.422-0.034-0.63,0.144-1.383l0.06-0.238l0.056-0.225l0.044-0.229c0.112-0.45,0.153-0.801,0.136-1.049
		c-0.075-0.629-0.402-1-1.216-1.361c0.624,0.019,0.911,0,1.265-0.105c0.6-0.164,1.11-0.691,1.311-1.343
		c0.193-0.627,0.155-1.245-0.107-1.785c-0.258-0.512-0.719-0.884-1.445-1.178c-0.216-0.081-0.35-0.122-0.826-0.271l-3.35-1.042
		l-2.522,8.2l1.613,0.502L79.578,33.909L79.578,33.909z"/>
	<polygon fill-rule="evenodd" clip-rule="evenodd" points="91.353,33.054 87.636,40.78 86.117,40.04 89.833,32.313 91.353,33.054 	
		"/>
	<path fill-rule="evenodd" clip-rule="evenodd" d="M93.94,40.878l3.135-2.503l-1.185,3.85L93.94,40.878L93.94,40.878z
		 M92.921,41.688l2.573,1.777L94.941,45.3l1.444,0.998l2.445-8.722l-1.55-1.071l-7.308,5.366l1.444,0.998L92.921,41.688
		L92.921,41.688z"/>
	<path fill-rule="evenodd" clip-rule="evenodd" d="M44.493,72.518v1.413h-7.461v-1.319l4.966-6.217h-4.686v-1.413h7.048v1.346
		l-4.952,6.19H44.493L44.493,72.518z M38.74,62.447h1.375l0.694,1.103l0.68-1.103h1.375l-1.001,1.64h-2.083L38.74,62.447
		L38.74,62.447z"/>
	<polygon fill-rule="evenodd" clip-rule="evenodd" points="50.003,64.98 50.003,73.933 48.248,73.933 48.248,64.98 50.003,64.98 	
		"/>
	<path fill-rule="evenodd" clip-rule="evenodd" d="M61.188,72.518v1.413h-7.461v-1.319l4.965-6.217h-4.685v-1.413h7.048v1.346
		l-4.952,6.19H61.188L61.188,72.518z M55.436,62.447h1.375l0.694,1.103l0.681-1.103h1.375l-1.001,1.64h-2.082L55.436,62.447
		L55.436,62.447z"/>
	<polygon fill-rule="evenodd" clip-rule="evenodd" points="66.69,73.933 64.934,73.933 64.934,64.98 66.69,64.98 66.69,68.737 
		70.133,64.98 72.349,64.98 68.878,68.589 72.617,73.933 70.534,73.933 67.691,69.705 66.69,70.767 66.69,73.933 	"/>
	<path fill-rule="evenodd" clip-rule="evenodd" d="M79.393,66.274c1.483,0,2.486,1.278,2.486,3.176c0,1.911-1.003,3.188-2.486,3.188
		c-1.498,0-2.501-1.278-2.501-3.188S77.881,66.274,79.393,66.274L79.393,66.274z M79.393,64.805c-2.475,0-4.257,1.926-4.257,4.577
		c0,2.799,1.729,4.725,4.257,4.725c2.486,0,4.242-1.926,4.242-4.658C83.635,66.731,81.879,64.805,79.393,64.805L79.393,64.805z"/>
	<polygon fill-rule="evenodd" clip-rule="evenodd" points="88.328,64.98 90.33,71.936 92.318,64.98 94.227,64.98 91.17,73.933 
		89.489,73.933 86.432,64.98 88.328,64.98 	"/>
	<path fill-rule="evenodd" clip-rule="evenodd" d="M52.757,129.154h-1.961v-7.419H48.25v-1.315c0.94-0.048,1.501-0.178,1.956-0.502
		c0.486-0.341,0.759-0.828,0.85-1.478h1.702V129.154L52.757,129.154z"/>
	<path fill-rule="evenodd" clip-rule="evenodd" d="M59.386,119.923c1.182,0,2.015,0.909,2.015,2.175c0,1.219-0.864,2.127-2.03,2.127
		c-1.122,0-1.985-0.925-1.985-2.143C57.386,120.849,58.249,119.923,59.386,119.923L59.386,119.923z M55.979,126.754
		c0.076,0.777,0.333,1.297,0.877,1.733c0.666,0.568,1.56,0.877,2.575,0.877c2.56,0,3.968-2.043,3.968-5.74
		c0-3.409-1.454-5.291-4.105-5.291c-2.121,0-3.769,1.655-3.769,3.781c0,2.095,1.527,3.701,3.511,3.701
		c1.137,0,1.909-0.471,2.394-1.477c-0.045,1.249-0.136,1.832-0.379,2.351c-0.348,0.729-0.939,1.085-1.788,1.085
		c-0.818,0-1.242-0.308-1.439-1.021H55.979L55.979,126.754z"/>
	<path fill-rule="evenodd" clip-rule="evenodd" d="M68.983,119.975c0.651,0,1.272,0.323,1.606,0.843
		c0.394,0.615,0.561,1.523,0.561,3.031s-0.167,2.398-0.561,3.031c-0.334,0.519-0.955,0.843-1.606,0.843
		c-0.666,0-1.288-0.324-1.621-0.843c-0.394-0.633-0.561-1.523-0.561-3.031s0.167-2.399,0.561-3.031
		C67.695,120.298,68.317,119.975,68.983,119.975L68.983,119.975z M68.983,118.334c-1.03,0-2.03,0.422-2.713,1.152
		c-0.927,0.958-1.412,2.466-1.412,4.362s0.485,3.404,1.412,4.361c0.698,0.731,1.683,1.153,2.713,1.153c1.016,0,2-0.422,2.698-1.153
		c0.926-0.957,1.412-2.465,1.412-4.361s-0.486-3.42-1.412-4.362C70.983,118.741,70.013,118.334,68.983,118.334L68.983,118.334z"/>
	<path fill-rule="evenodd" clip-rule="evenodd" d="M74.84,121.84c0.075-1.038,0.257-1.622,0.697-2.223
		c0.621-0.812,1.606-1.283,2.759-1.283c1.956,0,3.414,1.234,3.414,2.905c0,1.038-0.638,1.848-1.763,2.253
		c1.397,0.228,2.231,1.2,2.231,2.609c0,1.897-1.609,3.262-3.868,3.262c-2.275,0-3.686-1.396-3.729-3.715H76.4
		c0.167,1.394,0.804,2.074,1.941,2.074c1.122,0,1.895-0.696,1.895-1.719c0-1.068-0.758-1.733-2.015-1.733
		c-0.106,0-0.304,0.016-0.546,0.032v-1.427c0.667,0,1.076-0.064,1.426-0.243c0.483-0.242,0.787-0.713,0.787-1.215
		c0-0.859-0.637-1.427-1.576-1.427c-1.046,0-1.577,0.567-1.743,1.849H74.84L74.84,121.84z"/>
</g>
</svg>
