<?xml version="1.0" encoding="utf-8"?>
<!-- Generator: Adobe Illustrator 13.0.0, SVG Export Plug-In . SVG Version: 6.00 Build 14948)  -->
<!DOCTYPE svg PUBLIC "-//W3C//DTD SVG 1.0//EN" "http://www.w3.org/TR/2001/REC-SVG-20010904/DTD/svg10.dtd">
<svg version="1.0" id="Ebene_1" xmlns="http://www.w3.org/2000/svg" xmlns:xlink="http://www.w3.org/1999/xlink" x="0px" y="0px"
	 width="265.19px" height="453.542px" viewBox="0 0 265.19 453.542" enable-background="new 0 0 265.19 453.542"
	 xml:space="preserve">
<path d="M0,60.48h67.68C70.099,26.784,98.323,0,132.595,0c34.272,0,62.496,26.784,64.915,60.48h67.68l-48.902,147.168l47.175-20.909
	v38.65l1.094,0.403v57.485l-1.094,0.576c-19.239,10.138-40.896,18.144-63.13,23.789c-6.336,1.613-12.557,2.996-18.662,4.147
	l-47.174,141.753h-3.802L83.52,311.789c-6.105-1.152-12.326-2.534-18.663-4.147c-22.234-5.645-43.891-13.651-63.129-23.789
	l-1.095-0.576v-57.485l1.095-0.403v-38.65l47.174,20.909L0,60.48L0,60.48z M212.083,220.435l-8.813,26.438
	c2.938-0.807,5.875-1.613,8.813-2.477V220.435L212.083,220.435z M53.107,220.435v23.962c2.938,0.864,5.875,1.67,8.813,2.477
	L53.107,220.435z"/>
<path fill="#FFFFFF" d="M164.966,348.94l12.038-36.288c-4.032,0.691-8.064,1.325-12.038,1.843V348.94z"/>
<path fill="#05862F" d="M104.371,361.325l28.224,85.018l28.224-85.018v-46.311c-19.008,2.189-37.439,2.189-56.448,0V361.325z"/>
<path fill="#FFFFFF" d="M88.186,312.653l12.038,36.288v-34.444C96.25,313.978,92.217,313.344,88.186,312.653z"/>
<polygon fill="#05862F" points="225.619,166.637 259.488,64.627 225.619,64.627 "/>
<polygon fill="#05862F" points="5.702,64.627 39.571,166.637 39.571,64.627 "/>
<polygon fill="#FFFFFF" points="4.723,224.179 44.524,209.491 4.723,191.462 "/>
<path fill="#FFFFFF" d="M199.354,303.667c21.485-5.472,42.394-13.19,61.114-22.867v-51.091
	c-18.49,9.389-39.053,16.877-60.135,22.233c-47.52,11.981-87.955,11.981-135.475,0c-21.082-5.356-41.645-12.844-60.134-22.233V280.8
	c18.72,9.677,39.629,17.396,61.113,22.867C111.456,315.187,153.734,315.187,199.354,303.667z"/>
<path fill="#FFFFFF" d="M8.583,227.001c12.672,6.336,26.323,11.75,40.377,16.128v-31.623L8.583,227.001z"/>
<path d="M23.558,264.729c-3.859,7.603-2.016,13.248,5.53,16.301c6.969,2.765,11.808,0.23,14.573-6.682l6.451-16.013l-8.525-3.456
	l-6.969,17.222c-0.864,2.074-2.189,2.822-3.456,2.304c-2.247-0.921-1.095-3.859,0-6.566L23.558,264.729z"/>
<path d="M62.208,281.664l-5.587-1.613l5.53-8.928L62.208,281.664L62.208,281.664z M51.264,288.518l2.016-3.283l8.871,2.535v3.859
	l8.813,2.534l-1.901-29.836l-9.043-2.592l-17.453,24.25L51.264,288.518z"/>
<path d="M87.84,285.523c2.88,0.519,4.954,1.037,4.55,3.456c-0.403,2.074-2.131,2.247-4.377,1.843l-3.975-0.691l0.922-5.127
	L87.84,285.523L87.84,285.523z M89.856,275.904c1.9,0.346,3.686,0.691,3.283,2.823c-0.288,1.612-1.728,2.188-3.514,1.901
	l-3.802-0.691l0.807-4.608L89.856,275.904L89.856,275.904z M87.321,297.389c7.2,1.267,12.327-0.058,13.421-6.278
	c0.519-2.995-0.634-5.875-3.513-7.143c1.958-0.806,4.205-2.592,4.723-5.415c0.922-5.529-3.744-7.891-10.022-8.985l-13.248-2.304
	l-4.896,27.705L87.321,297.389z"/>
<polygon points="125.914,301.708 126.374,295.142 113.702,294.278 115.2,272.736 105.984,272.102 104.025,300.211 "/>
<path d="M142.56,279.36c4.032-0.288,5.76,3.744,5.875,7.604c0.173,4.607-1.267,8.121-5.241,8.236
	c-4.436,0.173-5.703-4.262-5.818-7.891C137.261,283.795,138.355,279.475,142.56,279.36L142.56,279.36z M142.387,272.448
	c-8.755,0.346-14.516,6.279-14.17,15.149c0.288,9.562,6.336,14.803,15.207,14.515c8.294-0.288,14.573-5.933,14.227-15.494
	C157.42,279.187,152.409,272.102,142.387,272.448z"/>
<polygon points="166.521,270.778 157.997,272.102 162.374,299.923 171.129,298.541 169.689,289.728 168.365,283.45 180.691,297.043 
	189.216,295.718 184.838,267.84 176.083,269.222 177.523,278.093 178.848,284.371 "/>
<polygon points="217.382,287.597 215.597,281.261 201.831,285.235 200.621,280.973 211.795,277.747 210.009,271.411 
	198.835,274.637 197.683,270.778 210.874,266.976 209.088,260.64 187.027,266.976 194.803,294.048 "/>
<path d="M239.904,260.41c-3.283-6.509-9.331-8.755-17.337-5.703c-7.373,2.823-11.117,10.368-7.833,18.835
	c3.283,8.583,10.598,11.923,19.296,8.583c6.912-2.707,10.195-8.64,8.352-15.725l-8.237,3.168c0.634,2.649,0.058,5.069-2.765,6.163
	c-4.378,1.67-6.509-1.498-7.892-5.184c-1.958-5.069-1.152-8.352,1.901-9.504c2.708-1.095,5.011-0.173,6.336,2.477L239.904,260.41z"
	/>
<path fill="#FFFFFF" d="M146.649,14.227c-3.629-0.691-7.2-1.037-10.829-1.094c-3.226-0.058-6.509,0.115-9.734,0.346
	c-6.509,3.801-10.887,8.755-14.17,15.379c1.555,2.592,3.226,5.184,5.069,7.718c1.901,2.708,3.917,5.357,6.105,7.949
	c8.294-1.037,16.646-1.21,25.287,0.518c1.094-1.44,2.131-2.88,3.226-4.32c2.247-3.168,4.378-6.336,6.394-9.562
	C154.886,24.883,150.969,19.354,146.649,14.227z"/>
<path fill="#FFFFFF" d="M91.181,100.397c2.477,3.168,5.415,5.933,8.755,8.409c3.744,2.708,7.949,5.011,12.729,6.912
	c6.566-1.67,12.729-4.781,18.663-8.467c0.806-4.089,1.325-8.467,1.497-12.787c0.115-2.477,0.058-4.954-0.115-7.315
	c-7.661-3.283-14.343-8.122-19.987-14.573c-3.168,1.383-6.394,2.65-9.677,3.802c-2.938,1.094-5.991,2.131-8.985,3.11
	C92.102,86.458,91.008,93.37,91.181,100.397z"/>
<path fill="#FFFFFF" d="M89.395,35.366c-2.016,4.377-3.687,8.755-5.184,13.133c-1.268,3.802-2.362,7.603-3.283,11.462
	c2.304,6.048,5.99,11.808,12.326,16.877c2.995-0.979,5.933-1.958,8.87-2.995c3.283-1.21,6.566-2.535,9.792-3.917
	c1.67-8.352,3.859-16.531,8.871-23.846c-2.189-2.65-4.205-5.242-6.048-7.891c-1.9-2.65-3.628-5.299-5.241-7.949
	C102.297,31.104,95.673,32.947,89.395,35.366z"/>
<path fill="#FFFFFF" d="M176.141,80.294c0.23,6.221-0.46,13.248-1.613,20.333c-2.995,3.513-6.509,6.739-10.368,9.446
	c-3.226,2.247-6.797,4.147-10.541,5.357c-7.661-1.325-15.667-3.514-19.584-8.064c0.806-4.147,1.382-8.525,1.555-12.787
	c0.058-2.534,0.058-5.011-0.173-7.43c7.431-3.226,14.4-8.122,21.197-13.767c3.11,1.325,6.221,2.534,9.332,3.629
	C169.344,78.221,172.742,79.315,176.141,80.294z"/>
<path fill="#FFFFFF" d="M188.294,60.653c-2.074,6.739-6.048,12.153-11.75,16.877c-3.226-0.922-6.451-1.901-9.677-3.053
	c-3.053-1.095-6.105-2.305-9.101-3.572c-1.498-8.294-3.917-16.358-7.143-24.307c1.095-1.44,2.131-2.822,3.168-4.262
	c2.189-2.995,4.263-6.048,6.164-9.216c6.912-0.057,13.824,1.268,20.793,4.666c1.555,3.11,2.88,6.336,4.09,9.619
	C186.336,51.725,187.488,56.16,188.294,60.653z"/>
<path fill="#FFFFFF" d="M70.618,70.848c-0.173-1.901-0.288-3.802-0.288-5.76c0-15.667,5.817-30.009,15.437-40.954
	c0.346,3.11,0.749,6.394,1.325,9.734c-2.131,4.55-3.917,9.158-5.472,13.709c-1.498,4.55-2.765,9.101-3.802,13.651
	C75.456,64.339,73.094,67.507,70.618,70.848z"/>
<path fill="#FFFFFF" d="M115.315,124.992c-14.688-4.263-27.187-13.824-35.251-26.496c2.592,1.267,5.415,2.246,8.583,3.168
	c2.707,3.514,5.99,6.624,9.676,9.389c4.09,2.938,8.756,5.472,13.997,7.488C113.184,120.672,114.221,122.803,115.315,124.992z"/>
<path fill="#FFFFFF" d="M184.205,99.936c-8.179,12.096-20.505,21.139-34.848,25.171c1.843-2.188,3.687-4.55,4.954-7.027
	c4.089-1.325,7.949-3.341,11.405-5.76c4.377-3.053,8.294-6.797,11.635-10.714L184.205,99.936z"/>
<path fill="#FFFFFF" d="M181.44,26.553c8.41,10.599,13.421,24.02,13.421,38.535c0,0.461,0,0.864,0,1.267
	c-1.095-1.901-2.362-3.687-3.744-5.356c-0.806-4.954-2.074-9.792-3.687-14.516c-1.498-4.205-3.341-8.352-5.472-12.326
	C182.131,31.507,181.901,28.973,181.44,26.553z"/>
<path fill="#FFFFFF" d="M132.595,2.822c11.174,0,21.715,2.995,30.816,8.179c-4.954-0.519-10.483-0.403-15.725,0.634
	c-3.917-0.807-7.891-1.21-11.808-1.268c-3.456-0.058-6.97,0.115-10.541,0.403c-4.723-1.613-9.562-2.995-14.458-4.032
	C117.676,4.205,124.992,2.822,132.595,2.822z"/>
<path fill="#FFFFFF" d="M43.718,179.021l22.982,69.12c11.347,2.823,22.521,4.954,33.523,6.394v-40.262h-14.86V161.51h14.86v-39.975
	c-19.526-11.232-32.659-32.371-32.659-56.448c0-0.115,0-0.288,0-0.46H43.718V179.021z"/>
<path fill="#05862F" d="M104.371,254.995c18.893,2.131,37.555,2.131,56.448,0v-48.614l-7.891-13.133l-4.09,4.32v16.704h-17.107
	V161.51h17.107v17.05l11.98-13.536v-41.299c-8.524,4.146-18.144,6.451-28.224,6.451c-10.08,0-19.699-2.304-28.224-6.451v37.785
	h21.831v12.269h-21.831v9.619h17.049v12.326h-17.049V254.995z"/>
<path fill="#FFFFFF" d="M164.966,254.534c11.001-1.44,22.176-3.571,33.523-6.394l22.982-69.12V64.627h-23.846
	c0,0.172,0,0.345,0,0.46c0,24.077-13.133,45.216-32.659,56.448v39.975h19.181l-19.181,19.872l21.197,32.89h-20.621l-0.576-0.979
	V254.534z"/>
<polygon fill="#FFFFFF" points="260.467,224.179 220.666,209.491 260.467,191.462 "/>
<path fill="#FFFFFF" d="M256.608,227.001c-12.672,6.336-26.323,11.75-40.377,16.128v-31.623L256.608,227.001z"/>
</svg>
