<?xml version="1.0" encoding="utf-8"?>
<!-- Generator: Adobe Illustrator 13.0.0, SVG Export Plug-In . SVG Version: 6.00 Build 14948)  -->
<!DOCTYPE svg PUBLIC "-//W3C//DTD SVG 1.0//EN" "http://www.w3.org/TR/2001/REC-SVG-20010904/DTD/svg10.dtd">
<svg version="1.0" id="Ebene_1" xmlns="http://www.w3.org/2000/svg" xmlns:xlink="http://www.w3.org/1999/xlink" x="0px" y="0px"
	 width="344.16px" height="452.178px" viewBox="0 0 344.16 452.178" enable-background="new 0 0 344.16 452.178"
	 xml:space="preserve">
<path fill-rule="evenodd" clip-rule="evenodd" fill="#00519E" d="M322.57,48.762C227.975-3.307,172.079,3.925,172.079,3.925
	S116.183-3.307,21.588,48.762c50.164,15.911,44.431,69.427,0,75.936V291.03c20.782,76.66,150.491,156.934,150.491,156.934
	S301.789,367.69,322.57,291.03V124.698C278.138,118.189,272.406,64.673,322.57,48.762L322.57,48.762z"/>
<path fill-rule="evenodd" clip-rule="evenodd" fill="#FFED00" d="M107.583,400.122V12.77c-12.671,3.583-27.046,8.524-42.997,15.315
	V359.39C78.057,374.16,93.095,387.983,107.583,400.122L107.583,400.122z"/>
<path fill-rule="evenodd" clip-rule="evenodd" fill="#FFED00" d="M150.58,433.086c13.395,9.419,22.217,14.878,22.217,14.878
	s8.191-5.068,20.781-13.872V4.204c-13.588-1.21-20.781-0.279-20.781-0.279s-7.703-0.995-22.217,0.414V433.086L150.58,433.086z"/>
<path fill-rule="evenodd" clip-rule="evenodd" fill="#FFED00" d="M236.576,401.323c14.414-11.992,29.451-25.698,42.996-40.361
	V27.483c-15.979-6.732-30.356-11.605-42.996-15.112V401.323L236.576,401.323z"/>
<path fill="none" stroke="#000000" stroke-width="7.1662" stroke-miterlimit="2.6131" d="M322.57,48.762
	C227.975-3.307,172.079,3.925,172.079,3.925S116.183-3.307,21.588,48.762c50.164,15.911,44.431,69.427,0,75.936 M21.588,124.698
	V291.03 M21.588,291.03c20.782,76.66,150.491,156.934,150.491,156.934S301.789,367.69,322.57,291.03 M322.57,291.03V124.698
	 M322.57,124.698c-44.432-6.509-50.164-60.025,0-75.936"/>
<path fill-rule="evenodd" clip-rule="evenodd" fill="#FFFFFF" stroke="#000000" stroke-width="2.8665" stroke-linecap="round" stroke-linejoin="bevel" stroke-miterlimit="2.6131" d="
	M331.618,244.404c-3.359,0-5.01,0.269-6.509,0.835c-8.97,1.455-37.842,17.598-65.391,17.427
	c-27.231-0.171-32.964-7.476-49.211-7.378c-9.554,0.059-19.109,2.798-25.799,4.844c-6.629,3.257-10.896,4.58-13.077,5.425
	c-4.658,1.812-10.749,1.084-5.375-0.542c8.958-2.71,15.767-6.87,15.767-11.934c0-1.704-1.613-3.433-7.346-3.252
	c-7.52,0.239-10.391,5.786-25.262,5.786c-14.869,0-32.784-12.837-60.017-12.837c-27.231,0-46.042,12.295-53.208,12.295
	c-7.167,0-13.976-4.521-13.976-4.521c-3.224-1.626-4.118-2.349-9.673-2.349c-5.554,0-11.108,3.975-11.108,8.496l18.812,64.907
	c7.167,0,40.311-18.081,69.154-17.9c27.233,0.171,45.148,12.837,60.017,12.837c5.953,0,11.401-0.894,14.578-1.973
	c0.369,2.72,1.927,5.938,7.28,5.771c7.522-0.239,11.106-7.056,25.976-7.056c14.871,0,33.145,10.308,60.377,10.308
	c27.23,0,46.042-12.29,53.21-12.295c7.524-0.005,15.049,2.715,15.049,2.715c1.24,0.869,16.841-61.113,16.841-61.113
	C342.726,248.384,337.171,244.404,331.618,244.404L331.618,244.404z"/>
<path fill-rule="evenodd" clip-rule="evenodd" fill="#FFFFFF" stroke="#000000" stroke-width="2.8665" stroke-linecap="round" stroke-linejoin="bevel" stroke-miterlimit="2.6131" d="
	M22.574,260.674c0,3.257-4.121,5.244-9.495,5.244c-5.375,0-11.646-4.697-11.646-9.219l0.006,59.292
	c0,4.521,6.271,9.224,11.646,9.224s9.496-1.987,9.496-5.244L22.574,260.674L22.574,260.674z"/>
<path fill-rule="evenodd" clip-rule="evenodd" stroke="#000000" stroke-width="4.5" stroke-miterlimit="2.6131" d="M7.174,315.991
	c0,0,0-0.039,0-0.103c-0.002-0.005-0.009-0.015-0.011-0.02C7.164,315.869,7.174,315.913,7.174,315.991L7.174,315.991z"/>
<path fill-rule="evenodd" clip-rule="evenodd" stroke="#000000" stroke-width="4.5" stroke-miterlimit="2.6131" d="M13.079,271.704
	c-1.926,0-3.951-0.405-5.91-1.133c0.002,16.934,0.006,43.545,0.006,45.317c0.293,1.123,3.305,3.54,5.911,3.54
	c1.886,0,3.109-0.317,3.762-0.586c0-5.747-0.004-32.227-0.005-47.402C15.68,271.611,14.43,271.704,13.079,271.704L13.079,271.704z"
	/>
<path fill-rule="evenodd" clip-rule="evenodd" d="M149.416,261.401c-7.25,0-14.506-2.451-22.904-5.283
	c-10.493-3.545-22.384-7.554-37.111-7.554c-16.969,0-30.299,4.995-40.032,8.647c-5.641,2.119-9.717,3.643-13.177,3.643
	c-3.014,0-6.809-0.537-8.434-1.401c1.088,1.04,0.973,4.297,0.973,4.297l-0.003,49.346c1.339-0.498,2.716-1.021,4.046-1.523
	c14.455-5.488,36.299-13.779,56.663-13.652c16.504,0.103,29.846,4.57,40.57,8.159c7.502,2.51,13.983,4.678,19.41,4.678
	c4.014,0,6.954-0.435,9.365-1.074l0.002-42.319c-0.051-4.336,1.383-5.239,7.832-7.593c1.531-0.557,6.987-2.71,6.987-3.613
	c0-1.113-2.671,0.391-4.299,1.084C165.286,258.95,159.405,261.401,149.416,261.401L149.416,261.401z"/>
<path fill-rule="evenodd" clip-rule="evenodd" fill="#FFFFFF" stroke="#000000" stroke-width="2.8665" stroke-linecap="round" stroke-linejoin="bevel" stroke-miterlimit="2.6131" d="
	M321.585,256.88c0,3.252,4.119,5.244,9.495,5.244c5.374,0,11.646-4.702,11.646-9.224l-0.008,59.297
	c0,4.517-6.271,9.219-11.645,9.219c-5.374,0-9.495-1.987-9.495-5.244L321.585,256.88L321.585,256.88z"/>
<path fill-rule="evenodd" clip-rule="evenodd" stroke="#000000" stroke-width="4.5" stroke-miterlimit="2.6131" d="M336.996,312.07
	c-0.002,0.01-0.01,0.015-0.012,0.02v0.107C336.984,312.114,336.994,312.07,336.996,312.07L336.996,312.07z"/>
<path fill-rule="evenodd" clip-rule="evenodd" stroke="#000000" stroke-width="4.5" stroke-miterlimit="2.6131" d="M331.081,267.91
	c-1.353,0-2.603-0.098-3.765-0.269c0,15.181-0.005,41.66-0.005,47.407c0.654,0.264,1.878,0.581,3.763,0.581
	c2.607,0,5.617-2.417,5.91-3.54l0.008-45.317C335.031,267.505,333.007,267.91,331.081,267.91L331.081,267.91z"/>
<path fill-rule="evenodd" clip-rule="evenodd" d="M191.876,264.355c8.123-2.896,17.197-3.379,24.365-1.934
	c5.322,1.079,11.465,1.934,21.021,3.857c14.814,2.993,18.633,2.412,25.322,2.412c20.361,0,34.29-6.65,48.745-12.139
	c1.328-0.503,4.619-2.065,5.955-2.563c0,0-1.67,1.201-1.49,4.819l-0.303,46.885c-2.148,0-3.581-0.547-7.165,0.181
	c-3.392,0.684-5.026,1.167-10.667,3.286c-9.736,3.652-23.066,8.647-40.033,8.647c-14.727,0-26.951-3.149-37.444-6.689
	c-8.398-2.832-18.188-4.336-25.439-4.336c-9.985,0-18.198,4.8-22.216,6.504c-1.628,0.698-3.702,1.45-3.941-1.084l0.121-40.137
	C177.067,270.137,186.523,266.26,191.876,264.355L191.876,264.355z"/>
<path fill-rule="evenodd" clip-rule="evenodd" fill="#FFFFFF" d="M62.144,287.212c0.859,3.066,2.229,4.331,4.426,3.848
	c1.911-0.42,2.948-1.88,2.562-3.677c-0.557-2.588-2.806-3.745-6.121-5.684c-4.517-2.632-7.74-4.59-8.614-8.667
	c-0.959-4.468,2.012-8.56,6.406-9.521c4.299-0.942,8.015,1.23,9.433,5.967l-4.921,1.763c-0.767-2.632-1.785-3.647-3.696-3.228
	c-1.624,0.356-2.534,1.699-2.157,3.452c0.604,2.808,3.253,4.199,6.779,6.182c4.269,2.412,7.014,4.243,7.937,8.54
	c0.978,4.556-1.783,8.462-6.417,9.478c-5.063,1.108-9.027-1.284-10.434-6.665L62.144,287.212L62.144,287.212z"/>
<polygon fill-rule="evenodd" clip-rule="evenodd" fill="#FFFFFF" points="79.966,261.04 93.839,260.62 93.976,265.19 
	85.426,265.454 85.675,273.745 91.832,273.555 91.969,278.125 85.812,278.315 86.238,292.52 80.914,292.681 79.966,261.04 "/>
<path fill-rule="evenodd" clip-rule="evenodd" fill="#FFFFFF" d="M102.156,268.662c0.857-4.858,4.419-7.314,9.613-6.377
	c4.765,0.854,7.369,4.375,6.48,9.409l-0.529,2.998l-5.39-0.967l0.608-3.442c0.382-2.163-0.344-3.389-2.124-3.706
	c-1.781-0.322-2.883,0.571-3.264,2.734l-3.071,17.393c-0.382,2.163,0.336,3.433,2.117,3.75c1.78,0.322,2.889-0.615,3.271-2.778
	l0.749-4.238l5.389,0.967l-0.579,3.267c-0.974,5.518-4.487,7.983-9.587,7.065c-5.291-0.952-7.511-4.399-6.506-10.093
	L102.156,268.662L102.156,268.662z"/>
<path fill-rule="evenodd" clip-rule="evenodd" fill="#FFFFFF" d="M200.749,294.888c-0.046,2.197-0.999,3.301-2.806,3.262
	c-1.809-0.039-2.712-1.177-2.668-3.374l0.361-17.661c0.044-2.197,0.994-3.257,2.803-3.218s2.715,1.133,2.668,3.33L200.749,294.888
	L200.749,294.888z M190.205,277.314l-0.332,16.226c-0.117,5.781,2.705,8.848,7.98,8.96c5.178,0.107,8.271-2.881,8.387-8.481
	l0.332-16.23c0.104-5.112-3.011-8.179-7.848-8.281C193.449,269.399,190.306,272.383,190.205,277.314L190.205,277.314z"/>
<path fill-rule="evenodd" clip-rule="evenodd" fill="#FFFFFF" d="M222.135,287.837l1.895-9.497l1.868,0.386
	c2.634,0.532,3.181,1.787,2.49,5.259c-0.721,3.604-1.604,4.795-4.195,4.268L222.135,287.837L222.135,287.837z M213.507,303.828
	l5.223,1.064l2.517-12.617l3.594,0.732c4.167,0.845,7.671-1.963,8.884-8.027c1.263-6.333-0.703-9.473-6.354-10.625l-7.669-1.558
	L213.507,303.828L213.507,303.828z"/>
<path fill-rule="evenodd" clip-rule="evenodd" fill="#FFFFFF" d="M242.158,298.496l4.004-12.739l0.339,0.059l-0.339,13.345
	L242.158,298.496L242.158,298.496z M233.395,308.545l5.159,0.854l2.211-6.587l5.303,0.879l-0.041,6.943l5.405,0.894l-0.515-32.163
	l-6.849-1.133L233.395,308.545L233.395,308.545z"/>
<path fill-rule="evenodd" clip-rule="evenodd" fill="#FFFFFF" d="M262.658,279.312l5.662,18.14c0.518,1.646,1.096,3.74,1.462,6.45
	l0.078,0.576c-0.337-3.213-0.413-5.596-0.381-7.188l0.54-18.989l5.18-0.713l-1.809,32.197l-5.52,0.762l-10.345-30.527
	L262.658,279.312L262.658,279.312z"/>
<path fill-rule="evenodd" clip-rule="evenodd" fill="#FFFFFF" d="M290.026,293.711l-2.568-13.11l0.322-0.112l6.074,11.86
	L290.026,293.711L290.026,293.711z M287.135,306.777l4.932-1.758l-1.204-6.851l5.068-1.807l3.279,6.108l5.158-1.841l-15.795-27.939
	l-6.543,2.334L287.135,306.777L287.135,306.777z"/>
<line fill="none" stroke="#000000" stroke-width="2.8665" stroke-linecap="round" stroke-linejoin="round" stroke-miterlimit="2.6131" x1="163.993" y1="314.57" x2="163.928" y2="266.279"/>
<path fill="none" stroke="#000000" stroke-width="2.8665" stroke-linecap="round" stroke-linejoin="bevel" stroke-miterlimit="2.6131" d="
	M16.036,258.325c1.074,1.084,0.716,2.896-1.972,3.076c-2.687,0.181-5.554-1.812-5.375-3.799c0.18-1.987,1.792-3.252,5.375-3.252
	s8.778,3.071,8.778,6.323 M328.662,254.531c-1.074,1.084-0.716,2.891,1.97,3.071c2.688,0.181,5.554-1.807,5.376-3.799
	c-0.181-1.987-1.795-3.252-5.376-3.252s-8.776,3.071-8.776,6.328"/>
<path fill-rule="evenodd" clip-rule="evenodd" fill="#FFFFFF" stroke="#000000" stroke-width="1.7921" stroke-miterlimit="2.6131" d="
	M172.079,395.01c16.624,0,30.098-13.599,30.098-30.376c0-16.772-13.475-30.371-30.098-30.371c-16.621,0-30.098,13.599-30.098,30.371
	C141.981,381.411,155.458,395.01,172.079,395.01L172.079,395.01z"/>
<path fill-rule="evenodd" clip-rule="evenodd" d="M145.277,378.857l5.375-5.063l-1.911-14.585l-4.777-5.903
	C138.829,367.646,145.277,378.857,145.277,378.857L145.277,378.857z"/>
<path fill-rule="evenodd" clip-rule="evenodd" d="M154.833,339.683l7.644-0.239l5.614-4.941
	C160.328,335.586,154.833,339.683,154.833,339.683L154.833,339.683z"/>
<path fill-rule="evenodd" clip-rule="evenodd" d="M181.945,335.947l1.434,3.857l9.436,2.773
	C187.321,337.393,181.945,335.947,181.945,335.947L181.945,335.947z"/>
<path fill-rule="evenodd" clip-rule="evenodd" d="M201.891,361.26l-5.137-3.979l-4.897,3.979l1.316,10.728l5.85,6.27
	C203.444,368.853,201.891,361.26,201.891,361.26L201.891,361.26z"/>
<polygon fill-rule="evenodd" clip-rule="evenodd" points="167.732,345.474 163.074,354.268 172.15,361.382 181.585,355.474 
	176.808,345.107 167.732,345.474 "/>
<polygon fill-rule="evenodd" clip-rule="evenodd" points="171.791,373.433 161.164,380.425 166.299,388.618 178.361,388.618 
	180.99,379.097 171.791,373.433 "/>
<path fill="none" stroke="#000000" stroke-width="1.7921" stroke-miterlimit="2.6131" d="M147.667,359.692l18.394-6.626
	 M149.219,372.954l14.332,8.916 M166.776,387.417l-3.104,6.265 M176.332,387.417l8.121,4.819 M194.486,371.265l-14.929,8.677
	 M171.674,375.244l0.597-18.081 M179.796,354.512l13.135,7.471 M196.754,358.97l0.12-11.45 M184.215,338.965l-8.481,7.349
	 M168.449,346.313l-7.166-8.438"/>
<path fill-rule="evenodd" clip-rule="evenodd" fill="#FFFFFF" stroke="#000000" stroke-width="2.151" stroke-linejoin="bevel" stroke-miterlimit="2.6131" d="
	M107.942,89.098v78.828c0,42.67,38.339,62.196,64.137,62.196s64.138-19.526,64.138-62.196V89.098H107.942L107.942,89.098z"/>
<path fill-rule="evenodd" clip-rule="evenodd" fill="#FFED00" stroke="#000000" stroke-width="1.4332" stroke-linejoin="bevel" stroke-miterlimit="2.6131" d="
	M112.242,93.438v74.487c0,39.469,35.707,57.855,59.837,57.855c24.133,0,59.838-18.386,59.838-57.855V93.438H112.242L112.242,93.438z
	"/>
<path fill-rule="evenodd" clip-rule="evenodd" d="M130.515,177.812c0,0-2.388,1.927-2.149,3.254
	c1.195-0.724,3.464-1.085,3.464-1.085L130.515,177.812L130.515,177.812z"/>
<path fill-rule="evenodd" clip-rule="evenodd" d="M120.603,185.886c0,0-0.598,2.893,1.074,3.977
	c0.478-1.566,1.553-4.097,1.553-4.097L120.603,185.886L120.603,185.886z"/>
<path fill-rule="evenodd" clip-rule="evenodd" d="M126.574,195.048c0,0,0.357,2.409,3.823,1.927
	c-1.793-0.965-1.672-2.411-1.672-2.411L126.574,195.048L126.574,195.048z"/>
<path fill-rule="evenodd" clip-rule="evenodd" d="M150.939,191.31c0,0,2.151,3.496-2.627,3.617c2.986-0.964-0.12-3.856-0.12-3.856
	L150.939,191.31L150.939,191.31z"/>
<path fill-rule="evenodd" clip-rule="evenodd" d="M213.576,177.805c0,0,2.391,1.929,2.15,3.254
	c-1.193-0.723-3.464-1.084-3.464-1.084L213.576,177.805L213.576,177.805z"/>
<path fill-rule="evenodd" clip-rule="evenodd" d="M223.49,185.881c0,0,0.599,2.893-1.074,3.977
	c-0.479-1.566-1.553-4.097-1.553-4.097L223.49,185.881L223.49,185.881z"/>
<path fill-rule="evenodd" clip-rule="evenodd" d="M217.516,195.042c0,0-0.356,2.411-3.821,1.929
	c1.793-0.964,1.673-2.411,1.673-2.411L217.516,195.042L217.516,195.042z"/>
<path fill-rule="evenodd" clip-rule="evenodd" d="M193.154,191.305c0,0-2.151,3.495,2.627,3.616
	c-2.986-0.965,0.119-3.856,0.119-3.856L193.154,191.305L193.154,191.305z"/>
<path fill-rule="evenodd" clip-rule="evenodd" fill="#E32219" d="M219.186,181.301c-4.131,1.145-5.947,3.459-11.302,3.833
	c-0.666-0.27-1.325-0.509-1.957-0.7c0.717-1.567,2.985-3.133,6.689-3.496c1.016-0.099,1.313-1.445,1.672-2.29
	c0.359-0.843-0.598-3.133-2.746-3.013c-2.151,0.12-6.092,6.147-10.271,6.027c-3.947-0.114-12.422-6.388-12.422-6.388
	s-0.771,3.678,0.359,5.063c1.672,2.05,5.971,2.772,6.091,5.183c0.059,1.204,0.239,2.531-0.837,2.892
	c-1.816,0.611-3.346,0.724-3.105,2.531c0.266,2.002,1.953,1.557,3.225,1.206c1.313-0.362,2.391,0.723,4.658-2.411
	c1.047-1.448,2.031-2.531,3.82-2.531c1.793,0,1.912,0.361,3.821,1.204c1.233,0.544,2.71,1.841,3.942,3.615
	c0.838,1.206,2.867,2.653,4.063,3.135c3.611,1.458,3.701,1.085,3.941-1.567c0.111-1.242-2.044-3.331-4.93-5.255
	c0.754-0.431,1.395-0.559,2.541-1.252c1.194-0.724,2.029-1.448,3.584-1.326c0.713,0.054,0.357,1.446,2.148,1.326
	c1.793-0.121,2.148,0.121,2.148-1.688C224.32,183.591,221.374,180.693,219.186,181.301L219.186,181.301z"/>
<path fill-rule="evenodd" clip-rule="evenodd" fill="#E32219" d="M142.818,181.667c-4.18,0.121-8.122-5.906-10.272-6.025
	c-2.148-0.122-3.105,2.169-2.747,3.011c0.358,0.845,0.657,2.192,1.672,2.292c3.704,0.361,5.972,1.929,6.688,3.495
	c-0.631,0.19-1.289,0.43-1.956,0.698c-5.354-0.371-7.17-2.687-11.301-3.832c-2.189-0.608-5.137,2.29-5.137,4.098
	c0,1.808,0.357,1.566,2.149,1.687c1.791,0.121,1.437-1.271,2.151-1.324c1.553-0.121,2.389,0.602,3.582,1.324
	c1.147,0.695,1.787,0.822,2.543,1.254c-2.886,1.924-5.043,4.013-4.931,5.256c0.239,2.651,0.33,3.024,3.943,1.566
	c1.194-0.482,3.224-1.929,4.06-3.135c1.233-1.776,2.709-3.071,3.94-3.615c1.912-0.843,2.032-1.205,3.823-1.205
	s2.773,1.084,3.821,2.532c2.271,3.133,3.345,2.047,4.658,2.41c1.274,0.351,2.96,0.798,3.225-1.205
	c0.239-1.808-1.29-1.92-3.105-2.531c-1.075-0.361-0.895-1.688-0.836-2.894c0.121-2.409,4.419-3.132,6.091-5.182
	c1.129-1.383,0.358-5.063,0.358-5.063S146.765,181.554,142.818,181.667L142.818,181.667z"/>
<path fill-rule="evenodd" clip-rule="evenodd" d="M181.933,133.036c0,0,1.97-3.978,5.375-4.158c1.609-0.085,3.941,2.531,5.195-0.181
	c0.816-1.765-4.951-3.101-4.479-4.881c0.716-2.712,3.584,0,3.942-1.085c0.357-1.084-3.584-6.147-3.405-8.136
	c0.474-5.225,2.866-5.785,5.735-5.604c2.865,0.181,4.648,2.161,9.135,2.35c4.3,0.181,6.629-4.701,10.928-4.701
	c4.3,0,4.658,1.989,5.555,2.712c-10.568,0.723-7.166,4.339-11.108,6.509c5.376,5.243,9.316,5.063,12.722,2.35
	c3.045,9.398-6.809,8.136-8.779,9.402c0.359,3.254,6.807,3.616,10.75,1.085c1.434,7.775-7.883,12.294-15.051,7.051
	c2.51,3.797,11.107,10.307,15.051,4.701c1.074,3.977-2.51,11.391-7.524,11.391c-5.376,0-9.323-11.161-11.646-7.956
	c-3.403,4.701,3.94,14.098,15.408,15.549c-1.973,3.434-5.311,5.785-11.468,5.785c-10.569,0-11.172-18.659-14.868-15.548
	c-3.225,2.711,0.359,11.385,4.119,15.005c-14.69,1.628-10.211-10.305-15.228-10.305c-2.891,0-2.923,3.608-2.866,5.605
	c0.178,6.508,6.909,9.209,12.183,10.849c2.329,0.723-1.792,4.519-1.973,5.603c-0.41,2.504,2.868,12.476-1.253,15.369
	c-1.613-8.135-5.373-15.548-8.957-15.006s-3.047,1.987-3.047,3.796v13.922c0,2.169,1.792,4.7,4.48,4.7
	c2.326,0,4.359-2.354,2.686-5.062c1.076-1.27,5.375-0.724,7.168,3.616c0.938,2.269,9.011-0.392,11.465,0.361
	c4.121,1.266,8.061,9.039,6.986,11.751c-3.044-2.351-3.939-4.52-7.165-4.701s-8.421,7.413-16.126,7.413
	c-6.628,0-9.316-5.605-12.002-5.605l-0.357,2.712c1.254,0.542,3.762,0.363,3.762,0.363l-5.196,5.962l-5.195-5.967
	c0,0,2.508,0.181,3.762-0.361l-0.357-2.713c-2.688,0-5.375,5.605-12.003,5.605c-7.705,0-12.9-7.594-16.125-7.412
	c-3.225,0.181-4.121,2.35-7.167,4.7c-1.074-2.713,2.868-10.486,6.987-11.752c2.455-0.753,10.53,1.909,11.466-0.362
	c1.791-4.339,5.973-5.726,7.167-3.615c-2.151,2.832,0.359,5.062,2.687,5.062c2.687,0,4.479-2.531,4.479-4.701v-13.921
	c0-1.808,0.538-3.255-3.046-3.797c-3.583-0.543-7.345,6.87-8.957,15.005c-4.121-2.892-0.84-12.864-1.255-15.366
	c-0.179-1.085-4.3-4.882-1.971-5.604c5.275-1.64,12.005-4.34,12.183-10.849c0.055-1.996,0.023-5.604-2.866-5.604
	c-5.017,0-0.538,11.931-15.228,10.305c3.583-4.701,7.345-12.295,4.12-15.006c-3.697-3.112-4.299,15.548-14.868,15.548
	c-6.158,0-9.497-2.35-11.467-5.785c10.211-1.266,18.811-10.848,15.406-15.549c-2.319-3.205-6.27,7.955-11.645,7.955
	c-5.017,0-8.599-7.413-7.524-11.391c3.942,5.604,12.542-0.903,15.05-4.701c-7.167,5.243-16.484,0.723-15.05-7.051
	c3.942,2.531,10.391,2.169,10.749-1.085c-1.97-1.265-12.541,0.363-8.778-9.401c3.404,2.712,7.346,2.893,12.72-2.35
	c-3.942-2.17-0.537-5.786-11.107-6.509c0.896-0.723,1.255-2.711,5.554-2.711s6.629,4.881,10.929,4.701
	c4.488-0.189,6.27-2.17,9.137-2.351c2.866-0.181,5.263,0.381,5.732,5.604c0.18,1.99-3.762,7.052-3.403,8.136
	c0.357,1.084,3.225-1.627,3.94,1.084c0.473,1.782-5.295,3.118-4.479,4.883c1.253,2.712,3.586,0.095,5.195,0.181
	c3.404,0.181,5.375,4.158,5.375,4.158c2.151-0.089,3.405-1.356,3.584-2.982c0.178-1.627-1.523-2.712-0.896-3.706
	c0.627-0.995,1.343-0.633,3.135-0.362c1.07,0.162,0.896,1.446,3.494,1.446c0.812,0,1.703-3.073-1.881-3.073
	c-1.304,0,3.314-5.063,3.314-6.509c0-1.447-4.568-3.797-4.568-3.797s-1.256-4.077-0.627-5.876c0.538-1.536,13.54-2.227,15.405,2.079
	c0.63,1.448,1.613,0.724,2.51,4.883c-1.434-1.809-1.88-0.995-1.88-0.995s-0.63,0.995-0.181,2.079
	c0.449,1.085,1.855,0.338,1.792,3.074c-0.088,3.796-3.94,6.238-4.39,7.865c-0.447,1.627-1.434,1.807-1.343,4.519
	C179.74,133.059,180.859,132.498,181.933,133.036L181.933,133.036z"/>
<path fill-rule="evenodd" clip-rule="evenodd" fill="#FFFFFF" d="M174.453,113.008c1.716,0,2.375-0.434,2.375-0.857
	s-0.659-0.677-2.375-0.677c-1.713,0-2.731,0.344-2.731,0.768S172.74,113.008,174.453,113.008L174.453,113.008z"/>
<path fill-rule="evenodd" clip-rule="evenodd" d="M174.14,113.868c0.42,0,0.85-1.071,0.85-1.672s-0.341-1.312-0.76-1.312
	c-0.421,0-0.761,0.711-0.761,1.312S173.72,113.868,174.14,113.868L174.14,113.868z"/>
<path fill-rule="evenodd" clip-rule="evenodd" fill="#E32219" d="M172.975,119.021c0,0-8.982,1.238-11.824,0.09
	c-0.448-0.181-1.372,0.022-2.061-0.904c-0.806-1.084,0.872-1.833,0.178-2.531c-0.895-0.905-2.507,1.085-2.686,2.169
	c-0.222,1.341,0.146,2.561,1.702,3.345c2.507,1.266,13.257,0.181,13.705,0.09C172.438,121.19,172.975,119.021,172.975,119.021
	L172.975,119.021z"/>
<path fill-rule="evenodd" clip-rule="evenodd" fill="#E32219" d="M168.944,108.625c-0.684-0.345-3.285,0.301-4.299,1.265
	c-1.523,1.448-4.121,4.792-0.269,7.233c0.626-1.176,0.806-1.898,2.06-1.898c1.255,0,1.792,1.808,3.225,1.898
	c1.435,0.09,2.509-0.361,2.418,1.175c-0.047,0.812-0.089,0.813-0.626,1.537c-0.538,0.723,0.179,1.355-0.627,1.718
	c-0.806,0.361-2.24,0.27-2.956,0.18c-0.449,0.904,0.178,2.622,2.059,2.712c1.077,0,1.131-1.88,1.523-2.079
	c1.611-0.813,1.895-2.033,2.061-3.977c0.268-3.164-2.73-3.3-3.762-4.34C168.497,112.782,170.02,109.167,168.944,108.625
	L168.944,108.625z"/>
<path fill-rule="evenodd" clip-rule="evenodd" fill="#E32219" d="M179.743,103.065c0,0-1.003,1.877-1.807,1.818
	c-1.569-0.114-1.924-1.872-2.185-3.311c-1.074-0.271-1.766-1.966-1.766-1.966c0.011-0.032-0.688,1.699-1.764,1.971
	c-0.26,1.436-0.614,3.196-2.186,3.311c-0.802,0.058-1.807-1.818-1.807-1.818s-2.681,1.035-3.98-0.408
	c-0.129,2.492,3.021,3.416,3.021,3.416l1.188,2.28l0.485-0.366c3.948-1.323,10.571,0.362,10.571,0.362l1.189-2.28
	c0,0,3.149-0.927,3.02-3.416C182.425,104.101,179.743,103.065,179.743,103.065L179.743,103.065z"/>
<path fill-rule="evenodd" clip-rule="evenodd" fill="#FFFFFF" d="M147.953,143.459c-2.825-0.509-5.375,3.495-4.181,7.352
	C145.206,148.762,150.461,144.784,147.953,143.459L147.953,143.459z"/>
<path fill-rule="evenodd" clip-rule="evenodd" fill="#FFFFFF" d="M157.483,149.69c-2.567-0.27-4.597,3.493-3.273,6.875
	C155.362,154.633,159.822,150.714,157.483,149.69L157.483,149.69z"/>
<path fill-rule="evenodd" clip-rule="evenodd" fill="#FFFFFF" d="M202.656,120.069v-1.695h-1.621v1.693h-1.699v1.636h1.699
	c0.188,3.669-5.066,20.785-25.849,20.062c0-2.894-2.289-3.977-2.289-3.977l-0.009-2.164h1.699v-1.636h-1.699v-1.696l-1.62,0.006
	v1.696h-1.698v1.636h1.698l-0.005,2.162c0,0-2.289,1.085-2.289,3.977c-20.783,0.725-26.038-16.39-25.851-20.06h1.699v-1.637h-1.698
	v-1.693h-1.621v1.694h-1.699v1.639h1.699c0,11.501,12.063,26.085,30.575,26.085v-0.006c18.513,0,30.577-14.585,30.577-26.087h1.699
	v-1.636H202.656L202.656,120.069z"/>
<path fill-rule="evenodd" clip-rule="evenodd" fill="#FFFFFF" d="M196.208,143.452c2.822-0.509,5.374,3.495,4.18,7.353
	C198.955,148.755,193.698,144.778,196.208,143.452L196.208,143.452z"/>
<path fill-rule="evenodd" clip-rule="evenodd" fill="#FFFFFF" d="M186.676,149.683c2.568-0.27,4.597,3.492,3.274,6.876
	C188.795,154.625,184.337,150.707,186.676,149.683L186.676,149.683z"/>
<path fill-rule="evenodd" clip-rule="evenodd" fill="#FFFFFF" d="M121.829,41.513c3.712-1.082,8.484-4.293,10.209-6.393h4.584
	v37.772h-7.659V46.503h-7.134V41.513L121.829,41.513z"/>
<path fill-rule="evenodd" clip-rule="evenodd" fill="#FFFFFF" d="M159.721,51.061c-0.862,1.505-2.191,2.313-3.85,2.313
	c-2.456,0-3.585-1.506-3.585-4.464v-5.324c0-2.582,1.328-3.871,3.585-3.871c2.19,0,3.85,1.182,3.85,3.495V51.061L159.721,51.061z
	 M145.858,64.039c0,6.046,4.232,9.673,10.594,9.673c6.894,0,10.994-3.573,10.994-9.512V44.805c0-6.91-3.836-10.497-10.729-10.497
	c-7.423,0-11.129,4.069-11.129,12.236c0,7.777,3.11,11.62,9.139,11.62c2.124,0,3.916-0.685,5.643-2.105v9.31
	c0,1.828-1.66,3.01-3.719,3.01c-2.257,0-3.715-1.236-3.715-3.01v-2.527l-7.078,0.019V64.039L145.858,64.039z"/>
<path fill-rule="evenodd" clip-rule="evenodd" fill="#FFFFFF" d="M183.41,64.843V42.662c0-1.769,1.66-2.946,3.719-2.946
	c2.258,0,3.718,1.231,3.718,2.999v22.128c0,2.305-1.46,3.536-3.584,3.536C185.07,68.379,183.41,67.094,183.41,64.843L183.41,64.843z
	 M176.378,43.84v19.396c0,6.903,3.823,10.476,10.705,10.476c6.826,0,10.794-3.626,10.794-10.314V44.003
	c0-6.108-4.233-9.695-10.593-9.695C180.4,34.308,176.378,37.895,176.378,43.84L176.378,43.84z"/>
<path fill-rule="evenodd" clip-rule="evenodd" fill="#FFFFFF" d="M205.412,35.113h19.619V42.1
	c-7.605,14.817-7.783,30.728-7.783,30.728h-8.779c0,0,1.076-16.633,10.213-30.917l-13.27,0.073V35.113L205.412,35.113z"/>
</svg>
