<?xml version="1.0" encoding="utf-8"?>
<!-- Generator: Adobe Illustrator 13.0.2, SVG Export Plug-In . SVG Version: 6.00 Build 14948)  -->
<!DOCTYPE svg PUBLIC "-//W3C//DTD SVG 1.0//EN" "http://www.w3.org/TR/2001/REC-SVG-20010904/DTD/svg10.dtd">
<svg version="1.0" id="Ebene_1" xmlns="http://www.w3.org/2000/svg" xmlns:xlink="http://www.w3.org/1999/xlink" x="0px" y="0px"
	 width="508.787px" height="561.259px" viewBox="0 0 508.787 561.259" enable-background="new 0 0 508.787 561.259"
	 xml:space="preserve">
<path fill-rule="evenodd" clip-rule="evenodd" fill="#172983" d="M254.395,0.038c0,0-9.836-1.392-14.565,12.621
	c-6.554,19.421-78.649,65.055-174.775,68.94L0,164.131c0,0,8.738,274.787,254.395,397.128
	c245.656-122.341,254.392-397.128,254.392-397.128l-65.051-82.532c-96.129-3.885-168.223-49.519-174.776-68.94
	C264.229-1.354,254.395,0.038,254.395,0.038L254.395,0.038z"/>
<path fill-rule="evenodd" clip-rule="evenodd" fill="#FFFFFF" d="M202.894,89.287c16.885-7.837,36.324-18.621,51.501-31.91
	c15.177,13.289,34.616,24.073,51.5,31.91c25.799,11.974,66.141,26.376,117.381,31.061c12.46,15.806,33.079,41.96,44.344,56.253
	c-2.452,23.03-9.955,72.264-32.209,128.165c-37.421,93.996-98.276,164.941-181.015,211.187
	c-82.74-46.245-143.596-117.19-181.015-211.187C51.125,248.864,43.623,199.63,41.171,176.6
	c11.266-14.292,31.882-40.447,44.341-56.253C136.755,115.663,177.097,101.26,202.894,89.287L202.894,89.287z"/>
<path fill-rule="evenodd" clip-rule="evenodd" fill="#172983" d="M205.96,95.892c15.668-7.271,33.463-17.043,48.435-29.073
	c14.972,12.029,32.767,21.801,48.435,29.073c25.819,11.982,65.865,26.377,116.684,31.443c12.929,16.402,28.69,36.398,40.538,51.431
	c-2.716,23.695-10.403,70.705-31.597,123.779c-36.255,90.791-94.787,159.595-174.06,204.973
	c-79.274-45.378-137.807-114.182-174.062-204.973C59.139,249.47,51.454,202.46,48.737,178.765
	c11.849-15.032,27.611-35.029,40.541-51.431C140.092,122.269,180.141,107.874,205.96,95.892L205.96,95.892z"/>
<path fill-rule="evenodd" clip-rule="evenodd" fill="#FFFFFF" d="M133.024,284.046c0,0,0,25.242-3.398,43.693
	c-3.4,18.448-3.885,24.759-3.885,24.759s0,20.391,17.477,20.391c14.08,0,11.167-44.18,11.167-44.18s-0.97-31.556,12.136-37.383
	c13.109-5.824,25.731-6.794,23.791,12.624c-1.942,19.421-9.268,48.07-8.739,71.367c0.486,21.363,14.565,19.421,14.565,19.421
	s17.477-0.976,14.563-26.218c-2.912-25.245-6.795-53.889-6.795-92.728s2.912-58.745,2.912-58.745s1.941-7.767,1.941-20.875
	c0-13.107-7.767-19.904-17.476-19.904c-6.312,0-9.483,3.401-9.224,11.167c0.485,14.565,0,23.789,3.397,53.402
	c2.218,19.317-1.941,21.848-12.621,25.731c-10.682,3.883-23.789,11.65-24.275-11.167c-0.486-22.818,0.971-26.701,1.942-38.354
	c0.971-11.65,1.456-11.165,1.456-14.563s-3.398-13.595-14.565-12.623c-11.167,0.971-11.165,6.795-10.68,14.563
	S131.082,235.499,133.024,284.046L133.024,284.046z"/>
<path fill-rule="evenodd" clip-rule="evenodd" fill="#FFFFFF" d="M250.025,143.013c0,0,9.709,0.971,19.178-1.941
	c0,0,6.311-1.699,8.689,2.59c2.719,4.935-0.439,8.09-0.439,8.09s-13.591,12.379-15.776,44.421
	c-2.185,32.042-0.727,147.103,2.912,214.099c0,0,1.148,15.938,3.155,27.431c1.699,9.709,1.942,8.496,1.699,12.621
	c-0.24,4.128-6.067,11.168-6.067,11.168s-8.011,10.679-12.379,10.679c-4.37,0-8.982-5.824-12.379-9.706
	c-3.398-3.885-7.283-9.955-7.526-15.053c-0.275-5.818,1.699-6.794,3.885-11.408c2.184-4.614,5.098-9.952,5.341-26.461
	c0.242-16.503,8.738-163.365-0.486-221.137c0,0-3.398-20.875-14.079-34.469c0,0-6.554-8.496-5.826-12.138
	c0,0,1.456-5.824,6.797-3.397C226.723,138.401,236.432,143.256,250.025,143.013L250.025,143.013z"/>
<path fill-rule="evenodd" clip-rule="evenodd" fill="#FFFFFF" d="M234.732,93.494c-5.228,0-9.467,4.239-9.467,9.467
	s4.239,9.466,9.467,9.466h28.884c5.229,0,9.469-4.238,9.469-9.466s-4.239-9.467-9.469-9.467H234.732L234.732,93.494z"/>
<path fill-rule="evenodd" clip-rule="evenodd" fill="#FFFFFF" d="M299.546,285.989c0,0-0.973,25.731-3.888,49.521
	c-2.912,23.786-2.426,27.185-2.426,27.185s0,25.248,14.563,25.248c12.624,0,12.141-29.616,12.141-29.616s-0.486-15.533-1.945-25.729
	c-1.456-10.195-0.967-26.704-0.967-26.704s-0.489-9.712,9.706-13.594s14.566-0.973,18.448,6.313
	c3.888,7.28,11.168,25.245,12.138,38.353s1.459,34.954,19.421,31.556s3.396-44.663-0.973-54.375
	c-4.368-9.709-10.679-22.333-16.989-30.586c-6.313-8.253-7.77-19.418,2.426-29.613s23.273-30.564,23.789-47.092
	c0.486-15.536-15.053-16.992-15.053-16.992s-5.821-0.971-6.794,5.341c-0.97,6.311,1.456,38.351-34.471,70.395
	c0,0-12.138,12.136-13.107-2.914c-0.973-15.048-2.429-34.469,0.483-49.033c2.915-14.565,2.429-16.994,0.976-22.333
	c-1.459-5.341-6.313-7.767-11.651-7.767c-5.344,0-8.742,4.368-8.742,18.933c0,14.563,0.486,28.644,1.942,46.605
	C300.029,267.054,299.546,285.989,299.546,285.989L299.546,285.989z"/>
</svg>
