<?xml version="1.0" encoding="utf-8"?>
<!-- Generator: Adobe Illustrator 23.0.3, SVG Export Plug-In . SVG Version: 6.00 Build 0)  -->
<svg version="1.1" id="Layer_1" xmlns="http://www.w3.org/2000/svg" xmlns:xlink="http://www.w3.org/1999/xlink" x="0px" y="0px"
	 viewBox="0 0 155.28 155.28" style="enable-background:new 0 0 155.28 155.28;" xml:space="preserve" height="300" width="300">
<style type="text/css">
	.st0{fill-rule:evenodd;clip-rule:evenodd;fill:#FFDD00;}
	.st1{fill-rule:evenodd;clip-rule:evenodd;}
</style>
<g>
	<g>
		<path class="st0" d="M77.64,1.75c41.91,0,75.89,33.98,75.89,75.89c0,41.91-33.98,75.89-75.89,75.89
			c-41.91,0-75.89-33.98-75.89-75.89C1.75,35.73,35.73,1.75,77.64,1.75L77.64,1.75z"/>
		<path d="M77.64,155.28C34.83,155.28,0,120.45,0,77.64C0,34.83,34.83,0,77.64,0c42.81,0,77.64,34.83,77.64,77.64
			C155.28,120.45,120.45,155.28,77.64,155.28z M77.64,3.5C36.76,3.5,3.5,36.76,3.5,77.64c0,40.88,33.26,74.14,74.14,74.14
			c40.88,0,74.14-33.26,74.14-74.14C151.78,36.76,118.52,3.5,77.64,3.5z"/>
	</g>
	<g>
		<g>
			<path class="st1" d="M77.84,17.19c15.84,0,28.69,12.85,28.69,28.69c0,2.08-0.22,4.1-0.64,6.05c-1.84-0.49-3.74-0.81-5.7-0.94
				c0.37-1.64,0.57-3.35,0.57-5.11c0-12.66-10.27-22.92-22.92-22.92c-12.66,0-22.92,10.26-22.92,22.92c0,1.75,0.2,3.45,0.57,5.08
				c-1.96,0.11-3.87,0.4-5.71,0.87c-0.41-1.92-0.62-3.91-0.62-5.95C49.15,30.04,62,17.19,77.84,17.19L77.84,17.19z M102.77,60.07
				c-4.94,8.66-14.25,14.49-24.93,14.49c-10.71,0-20.04-5.87-24.97-14.57c1.39-0.28,2.83-0.43,4.31-0.43c0.8,0,1.6,0.04,2.38,0.13
				c4.19,5.53,10.82,9.11,18.29,9.11c7.49,0,14.14-3.6,18.32-9.15c0.64-0.06,1.29-0.09,1.95-0.09
				C99.71,59.56,101.27,59.74,102.77,60.07L102.77,60.07z"/>
		</g>
		<g>
			<path class="st1" d="M57.17,52.35c7.5,0,14.32,2.88,19.43,7.59c-1.35,1.38-2.57,2.88-3.63,4.49c-4.11-3.91-9.67-6.32-15.8-6.32
				c-12.66,0-22.92,10.26-22.92,22.92s10.26,22.92,22.92,22.92S80.09,93.7,80.09,81.04c0-1.75-0.2-3.45-0.57-5.09
				c1.96-0.11,3.87-0.4,5.71-0.87c0.41,1.92,0.62,3.91,0.62,5.96c0,15.84-12.85,28.69-28.69,28.69S28.48,96.88,28.48,81.04
				C28.48,65.2,41.33,52.35,57.17,52.35L57.17,52.35z"/>
		</g>
		<g>
			<path class="st1" d="M98.11,52.35c15.84,0,28.69,12.85,28.69,28.69c0,15.84-12.85,28.69-28.69,28.69
				c-7.5,0-14.32-2.88-19.43-7.59c1.35-1.38,2.57-2.88,3.64-4.49c4.11,3.91,9.67,6.32,15.8,6.32c12.66,0,22.92-10.26,22.92-22.92
				s-10.27-22.92-22.92-22.92c-7.49,0-14.14,3.59-18.32,9.15c-0.64,0.06-1.29,0.09-1.95,0.09c-1.6,0-3.16-0.18-4.66-0.51
				C78.12,58.19,87.43,52.35,98.11,52.35L98.11,52.35z M73.22,95.31c-2.42-4.2-3.8-9.08-3.8-14.27c0-2.08,0.22-4.1,0.64-6.05
				c1.84,0.49,3.74,0.81,5.7,0.94c-0.38,1.64-0.57,3.35-0.57,5.11c0,3.04,0.6,5.94,1.67,8.6C75.95,91.73,74.71,93.64,73.22,95.31
				L73.22,95.31z"/>
		</g>
	</g>
	<g>
		<path d="M43.01,123.29c0-2.87,2.2-4.8,5.04-4.8c2.5,0,3.73,1.42,4.29,2.7l-2.42,1.13c-0.24-0.72-0.96-1.35-1.86-1.35
			c-1.28,0-2.18,1.03-2.18,2.32c0,1.29,0.9,2.32,2.18,2.32c0.9,0,1.63-0.63,1.86-1.35l2.42,1.11c-0.54,1.24-1.78,2.71-4.29,2.71
			C45.21,128.09,43.01,126.15,43.01,123.29z"/>
		<path d="M71.66,118.49c2.87,0,5.08,1.95,5.08,4.8c0,2.85-2.21,4.8-5.08,4.8c-2.87,0-5.08-1.95-5.08-4.8
			C66.58,120.44,68.79,118.49,71.66,118.49z M71.66,120.97c-1.35,0-2.23,1.03-2.23,2.32c0,1.29,0.88,2.32,2.23,2.32
			c1.35,0,2.23-1.03,2.23-2.32C73.88,122,73.01,120.97,71.66,120.97z"/>
		<path d="M88.21,124.53c0.7,0.67,1.74,1.2,2.99,1.2c0.53,0,1.03-0.18,1.03-0.54c0-0.36-0.39-0.54-1.31-0.71
			c-1.53-0.28-3.87-0.64-3.87-2.96c0-1.57,1.31-3.01,3.85-3.01c1.52,0,2.88,0.43,3.94,1.29l-1.5,1.99
			c-0.81-0.61-1.85-0.92-2.59-0.92c-0.7,0-0.85,0.25-0.85,0.49c0,0.36,0.38,0.49,1.36,0.65c1.53,0.26,3.8,0.71,3.8,2.85
			c0,2.04-1.52,3.23-4.01,3.23c-1.98,0-3.33-0.58-4.31-1.47L88.21,124.53z"/>
		<path d="M107.07,122.95v4.98h-2.81v-9.28h2.89l3.23,4.67v-4.67h2.81v9.28h-2.7L107.07,122.95z"/>
		<path d="M115.41,124.53c0.7,0.67,1.74,1.2,2.99,1.2c0.53,0,1.03-0.18,1.03-0.54c0-0.36-0.39-0.54-1.31-0.71
			c-1.53-0.28-3.87-0.64-3.87-2.96c0-1.57,1.31-3.01,3.85-3.01c1.52,0,2.88,0.43,3.94,1.29l-1.5,1.99
			c-0.81-0.61-1.85-0.92-2.59-0.92c-0.7,0-0.85,0.25-0.85,0.49c0,0.36,0.38,0.49,1.36,0.65c1.53,0.26,3.8,0.71,3.8,2.85
			c0,2.04-1.52,3.23-4.01,3.23c-1.98,0-3.33-0.58-4.31-1.47L115.41,124.53z"/>
		<g>
			<polygon points="62.73,118.65 62.73,121.93 60.47,121.93 59.71,124.38 62.73,124.38 62.73,127.93 65.54,127.93 65.54,118.65 			
				"/>
			<polygon points="59.4,124.38 59.41,121.93 59.4,121.93 59.4,118.65 56.59,118.65 56.59,127.93 59.4,127.93 59.4,124.38 			"/>
		</g>
		<g>
			<polygon points="102.97,124.38 102.97,121.93 99.9,121.93 99.14,124.38 			"/>
			<polygon points="103.07,118.65 96.03,118.65 96.03,127.93 103.07,127.93 103.07,125.59 98.84,125.59 98.84,124.41 98.84,120.98 
				103.07,120.98 			"/>
		</g>
		<g>
			<polygon points="80.9,122.61 80.9,122.61 80.9,122.61 80.9,122.61 			"/>
			<path d="M86.08,127.93l-1.68-3.28c0.74-0.36,1.67-1.21,1.67-2.81c0-1.74-1.17-3.19-3.34-3.19h-4.95v9.28h2.81v-6.94h1.71
				c0.47,0,0.92,0.31,0.92,0.81c0,0.51-0.45,0.82-0.92,0.82l-1.41,0l1.65,5.32L86.08,127.93z"/>
		</g>
		<polygon points="39.97,118.65 36.43,118.65 33.01,127.93 36.06,127.93 36.42,126.74 37.14,124.4 38.2,121.13 39.26,124.4 
			38.2,124.4 37.48,126.74 39.98,126.74 40.34,127.93 43.39,127.93 		"/>
	</g>
</g>
</svg>
