<svg xmlns="http://www.w3.org/2000/svg" xmlns:xlink="http://www.w3.org/1999/xlink" id="Layer_2" viewBox="0 0 132.84 153.47"><defs><style>.cls-1{stroke-linecap:round;}.cls-1,.cls-2{stroke-width:2.14px;}.cls-1,.cls-2,.cls-3,.cls-4{fill:none;}.cls-1,.cls-2,.cls-4{stroke:#154c99;}.cls-3,.cls-5,.cls-6,.cls-7,.cls-8{stroke-width:0px;}.cls-4{stroke-width:.25px;}.cls-9{clip-path:url(#clippath-1);}.cls-10{clip-path:url(#clippath-4);}.cls-11{clip-path:url(#clippath-3);}.cls-12{clip-path:url(#clippath-2);}.cls-5{fill:#004b98;fill-rule:evenodd;}.cls-6{fill:#154c99;}.cls-7{fill:#fff;}.cls-8{fill:#004a93;}</style><clipPath id="clippath-1"><rect class="cls-3" x=".82" y="1.04" width="129.18" height="150.5"></rect></clipPath><clipPath id="clippath-2"><rect class="cls-3" x=".75" y=".95" width="129.18" height="150.5"></rect></clipPath><clipPath id="clippath-3"><rect class="cls-3" width="132.84" height="153.47"></rect></clipPath><clipPath id="clippath-4"><rect class="cls-3" x="33.9" y="40.73" width="62.32" height="57.5"></rect></clipPath></defs><g id="Layer_1-2"><g class="cls-9"><path class="cls-7" d="m124.61,2.65s4.05,20.53,4.05,43.85c0,73.76-63.12,103.42-63.12,103.42,0,0-63.12-29.66-63.12-103.42C2.43,23.18,6.49,2.65,6.49,2.65h118.12Z"></path></g><g class="cls-12"><path class="cls-1" d="m124.54,2.56s4.05,20.53,4.05,43.85c0,73.76-63.12,103.42-63.12,103.42,0,0-63.12-29.66-63.12-103.42C2.36,23.09,6.42,2.56,6.42,2.56h118.12Z"></path></g><g class="cls-11"><path class="cls-6" d="m119.21,24.54c-1.04-9.02-2.48-16.52-2.48-16.52H14.24s-1.44,7.49-2.48,16.52h107.45Z"></path><path class="cls-4" d="m119.21,24.54c-1.04-9.02-2.48-16.52-2.48-16.52H14.24s-1.44,7.49-2.48,16.52h107.45Z"></path><path class="cls-2" d="m119.21,24.54c-1.04-9.03-2.48-16.52-2.48-16.52H14.24s-1.44,7.49-2.48,16.52h107.45ZM11.3,28.99c-.34,3.74-.57,7.56-.57,11.1,0,71.83,54.76,102.14,54.76,102.14,0,0,54.76-30.31,54.76-102.14,0-3.54-.23-7.37-.57-11.1H11.3Z"></path><polygon class="cls-7" points="20.66 11.75 23.01 11.75 23.01 15.04 24.11 15.04 27.08 11.75 30.28 11.75 26.13 16.13 30.77 20.72 27.44 20.72 24.05 17.27 23.01 17.27 23.01 20.72 20.66 20.72 20.66 11.75"></polygon><path class="cls-7" d="m34.11,16.72c0,1.3.23,1.8,1.35,1.8h3.01c1.11,0,1.35-.5,1.35-1.8v-.97c0-1.11-.23-1.79-1.47-1.79h-2.76c-1.24,0-1.47.68-1.47,1.79v.97Zm-2.42-1.82c0-2.62,1.26-3.24,3.38-3.24h3.77c2.12,0,3.38.62,3.38,3.24v2.68c0,2.63-1.26,3.25-3.38,3.25h-3.77c-2.12,0-3.38-.62-3.38-3.25v-2.68Z"></path><polygon class="cls-7" points="44.45 11.75 46.8 11.75 46.8 18.41 52.09 18.41 52.09 20.72 44.45 20.72 44.45 11.75"></polygon><path class="cls-7" d="m55.74,18.41h4.18c1.01,0,1.4-.33,1.4-1.61v-1.21c0-1.28-.39-1.61-1.4-1.61h-4.18v4.43Zm-2.35-6.66h7.1c2.35,0,3.18.9,3.18,3.12v2.72c0,2.22-.83,3.12-3.18,3.12h-7.1v-8.97Z"></path><rect class="cls-7" x="65.43" y="11.75" width="2.35" height="8.97"></rect><polygon class="cls-7" points="69.49 11.75 73.14 11.75 77.56 18.26 77.58 18.26 77.58 11.75 79.93 11.75 79.93 20.72 76.29 20.72 71.87 14.2 71.84 14.2 71.84 20.72 69.49 20.72 69.49 11.75"></polygon><path class="cls-7" d="m81.79,14.9c0-2.62,1.26-3.24,3.38-3.24h3.54c2.67,0,3.04,1.13,3.04,2.87v.29h-2.31c0-.89-.43-1-1.19-1h-2.55c-1.19,0-1.5.33-1.5,1.87v1.11c0,1.54.31,1.87,1.5,1.87h2.51c.61,0,1.23-.11,1.23-.98v-.26h-2.92v-1.86h5.28v2.55c0,2.58-1.14,2.7-3.79,2.7h-2.83c-2.12,0-3.38-.62-3.38-3.25v-2.68Z"></path><rect class="cls-7" x="99.07" y="11.75" width="2.35" height="8.97"></rect><polygon class="cls-7" points="103.48 11.75 111.49 11.75 111.49 13.9 105.83 13.9 105.83 15.58 111.23 15.58 111.23 17.66 105.83 17.66 105.83 20.72 103.48 20.72 103.48 11.75"></polygon><polygon class="cls-6" points="42.19 39.39 39.88 40.88 39.01 39.62 41.66 37.88 43.96 37.88 43.96 44.18 42.19 44.18 42.19 39.39"></polygon><path class="cls-8" d="m51.45,40.33c.56,0,.73-.23.73-.58,0-.44-.26-.57-.59-.57h-2.49c-.33,0-.59.14-.59.57,0,.36.17.58.74.58h2.2Zm.04,2.57c.65,0,.74-.19.74-.64,0-.49-.09-.63-.85-.63h-2.06c-.76,0-.85.14-.85.63,0,.44.1.64.74.64h2.27Zm-4.82-.72c0-.68.28-1.05,1.11-1.17v-.02c-.55-.1-1.08-.43-1.08-1.32v-.36c0-1.41.61-1.51,3.07-1.51h1.9c1.6,0,2.33.3,2.33,1.5v.41c0,.68-.16,1.13-1.05,1.25v.02c.65.18,1.1.48,1.1,1.34v.51c0,1.05-.67,1.43-1.83,1.43h-3.62c-1.35,0-1.94-.51-1.94-1.52v-.55Z"></path><path class="cls-6" d="m80.25,40.56c.79,0,.99-.16.99-.69s-.21-.7-.94-.7h-1.75c-.74,0-.94.16-.94.7s.2.69.98.69h1.67Zm-4.46,1.83h1.76c0,.41.2.51.75.51h2c.66,0,.93-.26.93-.76v-.75c-.31.31-.68.48-1.43.48h-1.79c-1.85,0-2.18-.62-2.18-1.76v-.55c0-1.55.75-1.75,2.24-1.75h2.73c1.5,0,2.24.57,2.24,2.21v1.76c0,1.92-.69,2.47-2.74,2.47h-2.33c-1.44,0-2.2-.37-2.2-1.44v-.43Z"></path><path class="cls-6" d="m84.5,37.88h6.82v1.36h-5.16v1.1c.24-.24.5-.39,1.19-.39h2.17c1.33,0,2.1.43,2.1,1.83v.4c0,1.92-.98,2.08-3.01,2.08h-1.5c-1.89,0-2.82-.19-2.82-1.67v-.37h1.76c0,.53.15.68,1.03.68h1.8c.88,0,.98-.24.98-.85,0-.71-.23-.79-1.12-.79h-2.02c-.3,0-.5.13-.56.42h-1.66v-3.79Z"></path></g><g class="cls-10"><path class="cls-5" d="m96.22,73.11c-.21-2.43-2.05-3-2.54-3.11-.16-.03-.31-.07-.47-.12-3.43-1.01-6.23-4.31-7.4-5.87-.31-.42-.58-.87-.82-1.33-1.59-2.96-4.68-2.39-4.68-2.39-1.76.24-3.42,2.66-4.22,4.01-.65,1.09-1.43,2.1-2.34,2.98-1.33,1.28-2.06,1.46-2.42,1.46-.28,0-.55-.04-.81-.09-2.43-.51-1.63-2.81-1.63-2.81.53-2.07,4.53-4.24,4.53-4.24,2.6-1.45,3.13-3.28,3.13-3.28.03-.09.06-.18.08-.26.43-1.48.06-3.07-.93-4.25l-.03-.04c-.86-1.02-1.85-1.92-2.94-2.69-2.87-2.01-3.88-3.7-4.24-4.62l-.05-.13c-.08-.22-.11-.39-.13-.49-.05-.18-.1-.38-.16-.6-1.18-4.43-2.96-4.51-3.55-4.48-.14,0-.26.01-.4.03-1.62.22-2.61,2.11-3.02,3.05-.24.56-.5,1.1-.8,1.63-1.62,2.83-3.64,5.11-5.91,7.21-.14.13-.49.48-.49.48-2.46,2.46-2.03,4.68-2.03,4.68.1.63.87,3.38,3.95,4.63.12.05.24.1.36.15.82.37,1.44.75,1.9,1.11.97.76,1.57,1.93,1.55,3.17-.04,2.54-2.75,2.03-2.75,2.03-1.98-.34-3.23-4.19-3.23-4.19-.72-2.75-2.61-3.54-3.76-3.77-.54-.11-1.11-.09-1.64.05-.71.19-1.36.53-1.92.92-1.07.74-1.93,1.74-2.55,2.88-1.89,3.49-4.93,4.55-4.93,4.55-.97.32-1.78.66-2.48,1.02-3.57,1.85-3.11,7.09.72,8.32.73.23,1.49.46,2.24.69.29.09.57.21.86.35,2.27,1.13,4.54,3.7,5.44,4.79.47.57,1.01,1.09,1.56,1.59.97.88,1.79,1.01,2.34,1.03.48.02,1.01-.1,1.18-.15,2.55-.76,3.78-3.73,4.11-4.62.1-.27.21-.54.33-.8,2.22-4.77,5.49-3.22,5.49-3.22,3.1,1.15,2.87,5.72,2.63,7.57-.09.71-.18,1.42-.26,2.13-.44,4.04-.98,5.95-1.29,6.78-.23.62-.43,1.26-.45,1.91-.01.36.01.62.04.8.04.26.21.5.45.6.43.18.87-.09,1.16-.34.31-.27.83-.67,1.19-.87,1.61-.92,2.46-.96,2.46-.96,1.83-.11,1.82-.92,1.74-1.26-.04-.16-.08-.32-.11-.48l-.75-4.12-.07-.48c-.12-.81-.94-2.85-.76-7.5.11-2.93,1.52-3.9,2.68-4.2.95-.25,1.95-.08,2.82.37,2.36,1.23,3.52,4.12,3.52,4.12.43.96.91,1.68,1.29,2.17.52.67,1.2,1.22,1.99,1.52,2.06.77,3.8-.27,3.8-.27.93-.45,1.96-1.61,2.66-2.5.43-.54.79-1.13,1.12-1.73,1.72-3.06,5.32-4.58,6.58-5.03.54-.19,1.05-.45,1.5-.8,1.58-1.23,1.55-2.67,1.55-2.67m-31.15.91l-.63,1.35-.67-1.4-1.21-.53,1.3-.82.77-1.35.48,1.35,1.4.63-1.45.77Z"></path></g><path class="cls-7" d="m63.32,59.11v-8.74c0-.45.1-.79.31-1.02.21-.23.47-.34.8-.34s.61.11.82.34c.21.22.31.57.31,1.03v8.74c0,.46-.1.8-.31,1.03-.21.23-.48.34-.82.34s-.59-.12-.8-.34c-.21-.23-.31-.57-.31-1.03Z"></path><path class="cls-7" d="m45.88,69.62v3.89l4.41-4.6c.21-.22.39-.39.54-.49.15-.11.35-.16.59-.16.32,0,.58.09.78.28s.3.42.3.69c0,.33-.17.65-.51.98l-2.73,2.59,3.15,4.51c.22.31.39.59.5.82.11.23.17.46.17.68,0,.25-.1.46-.29.64-.19.18-.46.27-.79.27-.31,0-.57-.07-.76-.2-.2-.13-.36-.31-.5-.53-.14-.22-.26-.42-.36-.61l-2.66-4.09-1.84,1.76v2.29c0,.46-.11.81-.32,1.03s-.48.34-.82.34c-.19,0-.38-.05-.55-.15-.18-.1-.31-.24-.41-.41-.07-.14-.11-.3-.13-.49s-.02-.46-.02-.81v-8.25c0-.45.1-.79.3-1.02.2-.23.47-.34.81-.34s.61.11.82.34c.21.22.31.57.31,1.03Z"></path><path class="cls-7" d="m85.23,69.93h-4.42v2.84h3.7c.34,0,.6.08.77.23.17.15.25.36.25.62s-.09.46-.26.61c-.17.15-.43.23-.76.23h-3.7v3.65c0,.46-.11.81-.31,1.03s-.48.34-.81.34-.6-.11-.81-.34-.31-.57-.31-1.03v-8.53c0-.32.05-.59.14-.79.1-.21.25-.35.45-.45.2-.09.46-.14.78-.14h5.29c.36,0,.62.08.8.24.17.16.26.37.26.62s-.09.47-.26.63c-.17.16-.44.24-.8.24Z"></path><path class="cls-6" d="m46.25,105.13h-2.81v1.8h2.35c.22,0,.38.05.49.15.11.1.16.23.16.39s-.05.29-.16.39c-.11.1-.27.14-.48.14h-2.35v2.32c0,.29-.07.51-.2.65-.13.14-.3.21-.51.21s-.38-.07-.52-.22c-.13-.14-.2-.36-.2-.65v-5.41c0-.2.03-.37.09-.5.06-.13.16-.22.29-.28.13-.06.29-.09.5-.09h3.36c.23,0,.4.05.51.15s.17.23.17.4-.06.3-.17.4-.28.15-.51.15Z"></path><path class="cls-6" d="m51.07,103.91c.73,0,1.35.15,1.88.44s.92.72,1.19,1.26c.27.54.4,1.19.4,1.92,0,.54-.07,1.04-.22,1.48-.15.44-.37.83-.66,1.16s-.66.58-1.08.75c-.43.17-.92.26-1.47.26s-1.04-.09-1.48-.27c-.43-.18-.8-.43-1.09-.75-.29-.32-.51-.71-.66-1.17-.15-.45-.22-.95-.22-1.47s.08-1.04.23-1.49c.16-.45.38-.83.67-1.15.29-.32.65-.56,1.07-.73.42-.17.9-.25,1.44-.25Zm2.02,3.62c0-.51-.08-.96-.25-1.34-.17-.38-.4-.66-.71-.86s-.66-.29-1.06-.29c-.28,0-.55.05-.79.16-.24.11-.45.26-.62.47-.17.21-.31.47-.41.78s-.15.68-.15,1.07.05.76.15,1.08.24.59.43.8c.18.21.4.37.63.48.24.11.5.16.78.16.36,0,.7-.09,1-.27.31-.18.55-.46.73-.84s.27-.85.27-1.41Z"></path><path class="cls-6" d="m56.64,104.03h1.86c.48,0,.9.04,1.24.13.35.09.66.26.94.5.73.63,1.1,1.58,1.1,2.86,0,.42-.04.81-.11,1.16-.07.35-.19.66-.34.94-.15.28-.35.53-.59.75-.19.17-.4.3-.62.41-.22.1-.46.17-.72.22-.26.04-.55.06-.87.06h-1.86c-.26,0-.45-.04-.58-.12-.13-.08-.22-.19-.26-.33-.04-.14-.06-.33-.06-.55v-5.16c0-.31.07-.53.21-.67.14-.14.36-.21.67-.21Zm.55,1.13v4.77h1.08c.24,0,.42,0,.56-.02s.27-.04.42-.1c.14-.05.27-.12.37-.22.48-.4.71-1.1.71-2.08,0-.69-.1-1.21-.31-1.56-.21-.35-.47-.57-.77-.66-.31-.09-.68-.14-1.11-.14h-.94Z"></path><path class="cls-6" d="m66.03,111.06h-2.15c-.31,0-.53-.07-.66-.21-.13-.14-.2-.36-.2-.66v-5.29c0-.31.07-.53.2-.67.14-.14.36-.2.66-.2h2.28c.34,0,.63.02.87.06.25.04.47.12.66.24.17.1.31.22.44.38.13.15.23.32.29.5s.1.38.1.58c0,.7-.35,1.22-1.06,1.54.92.29,1.39.87,1.39,1.72,0,.39-.1.75-.3,1.06-.2.31-.47.55-.82.7-.21.09-.46.15-.74.19-.28.04-.6.05-.97.05Zm-1.59-5.96v1.82h1.3c.35,0,.63-.03.82-.1.19-.07.34-.2.44-.38.08-.13.12-.28.12-.45,0-.35-.13-.59-.38-.71-.25-.12-.64-.17-1.16-.17h-1.16Zm1.48,2.84h-1.48v2.05h1.53c.96,0,1.44-.35,1.44-1.04,0-.36-.12-.61-.37-.77s-.62-.24-1.12-.24Z"></path><path class="cls-6" d="m73.19,103.91c.73,0,1.36.15,1.88.44.52.3.92.72,1.19,1.26.27.54.4,1.19.4,1.92,0,.54-.07,1.04-.22,1.48-.15.44-.37.83-.66,1.16-.29.33-.66.58-1.08.75-.43.17-.92.26-1.47.26s-1.04-.09-1.48-.27-.8-.43-1.09-.75c-.29-.32-.51-.71-.66-1.17-.15-.45-.22-.95-.22-1.47s.08-1.04.23-1.49c.16-.45.38-.83.67-1.15.29-.32.65-.56,1.08-.73.42-.17.9-.25,1.44-.25Zm2.02,3.62c0-.51-.08-.96-.25-1.34-.17-.38-.4-.66-.71-.86s-.66-.29-1.06-.29c-.28,0-.55.05-.79.16-.24.11-.45.26-.62.47-.17.21-.31.47-.41.78s-.15.68-.15,1.07.05.76.15,1.08.24.59.43.8c.18.21.4.37.63.48.24.11.5.16.78.16.36,0,.7-.09,1-.27.31-.18.55-.46.73-.84s.27-.85.27-1.41Z"></path><path class="cls-6" d="m79.27,104.77v5.12h2.89c.23,0,.41.06.53.17.12.11.18.25.18.42s-.06.31-.18.42c-.12.11-.3.16-.53.16h-3.44c-.31,0-.53-.07-.67-.21-.14-.14-.2-.36-.2-.67v-5.42c0-.29.06-.5.19-.65.13-.14.3-.22.51-.22s.39.07.52.21c.13.14.2.36.2.65Z"></path><path class="cls-6" d="m84.69,104.03h1.86c.48,0,.9.04,1.24.13.35.09.66.26.94.5.73.63,1.1,1.58,1.1,2.86,0,.42-.04.81-.11,1.16-.07.35-.19.66-.34.94-.15.28-.35.53-.59.75-.19.17-.4.3-.62.41s-.46.17-.72.22c-.26.04-.55.06-.87.06h-1.86c-.26,0-.45-.04-.58-.12-.13-.08-.22-.19-.26-.33-.04-.14-.06-.33-.06-.55v-5.16c0-.31.07-.53.21-.67.14-.14.36-.21.67-.21Zm.55,1.13v4.77h1.08c.24,0,.42,0,.56-.02.13-.01.27-.04.42-.1s.27-.12.37-.22c.48-.4.71-1.1.71-2.08,0-.69-.1-1.21-.31-1.56-.21-.35-.47-.57-.77-.66-.31-.09-.68-.14-1.11-.14h-.94Z"></path></g></svg>