<svg height="316.227766" viewBox="0 0 71.488279 71.492187" width="316.227766" xmlns="http://www.w3.org/2000/svg" xmlns:xlink="http://www.w3.org/1999/xlink"><clipPath id="a"><path d="m174.01953 55.195313h71.48828v71.492187h-71.48828zm0 0"/></clipPath><clipPath id="b"><path d="m95 424h7v.0625h-7zm0 0"/></clipPath><clipPath id="c"><path d="m109 424h37v.0625h-37zm0 0"/></clipPath><symbol id="d" overflow="visible"><path d="m.53125-4.203125h.90625v-.796875h-.90625zm.046875 4.203125h.828125v-3.640625h-.828125zm0 0"/></symbol><symbol id="e" overflow="visible"><path d="m2.203125.078125c.65625 0 1.140625-.265625 1.484375-.671875l-.484375-.4375c-.296875.28125-.578125.4375-1 .4375-.53125 0-.953125-.34375-1.046875-.9375h2.6875c0-.078125.015625-.15625.015625-.234375 0-1.046875-.59375-1.953125-1.75-1.953125-1.046875 0-1.78125.859375-1.78125 1.890625v.015625c0 1.125.8125 1.890625 1.875 1.890625zm-1.046875-2.15625c.078125-.5625.4375-.953125.9375-.953125.5625 0 .875.40625.9375.953125zm0 0"/></symbol><symbol id="f" overflow="visible"><path d="m.53125 0h.828125v-1.390625c0-.96875.515625-1.4375 1.25-1.4375h.046875v-.890625c-.640625-.03125-1.0625.34375-1.296875.890625v-.8125h-.828125zm0 0"/></symbol><symbol id="g" overflow="visible"><path d="m1.78125.0625c.75 0 1.34375-.375 1.34375-1.140625v-.015625c0-.65625-.59375-.890625-1.125-1.0625-.4375-.140625-.828125-.25-.828125-.515625 0-.21875.1875-.375.515625-.375.296875 0 .671875.125 1.03125.34375l.328125-.59375c-.390625-.25-.890625-.40625-1.34375-.40625-.71875 0-1.296875.421875-1.296875 1.109375v.015625c0 .6875.609375.90625 1.140625 1.0625.421875.140625.8125.234375.8125.515625v.015625c0 .234375-.203125.390625-.5625.390625-.375 0-.796875-.15625-1.203125-.453125l-.359375.578125c.453125.34375 1.015625.53125 1.546875.53125zm0 0"/></symbol><symbol id="h" overflow="visible"><path d="m2.03125.078125c.59375 0 .96875-.3125 1.25-.6875v.609375h.828125v-5.046875h-.828125v1.96875c-.265625-.34375-.65625-.640625-1.25-.640625-.875 0-1.6875.6875-1.6875 1.890625v.015625c0 1.203125.828125 1.890625 1.6875 1.890625zm.203125-.734375c-.5625 0-1.046875-.453125-1.046875-1.15625v-.015625c0-.734375.46875-1.171875 1.046875-1.171875.5625 0 1.046875.46875 1.046875 1.171875v.015625c0 .6875-.484375 1.15625-1.046875 1.15625zm0 0"/></symbol><symbol id="i" overflow="visible"><path d="m.53125 0h.828125v-2.0625c0-.5625.34375-.90625.828125-.90625s.78125.328125.78125.890625v2.078125h.828125v-2.328125c0-.84375-.46875-1.390625-1.296875-1.390625-.5625 0-.90625.296875-1.140625.640625v-.5625h-.828125zm0 0"/></symbol><symbol id="j" overflow="visible"><path d="m2.140625 1.125c.65625 0 1.171875-.171875 1.5-.5.3125-.296875.46875-.75.46875-1.375v-2.890625h-.828125v.546875c-.296875-.34375-.671875-.625-1.28125-.625-.859375 0-1.65625.625-1.65625 1.703125v.015625c0 1.078125.796875 1.703125 1.65625 1.703125.59375 0 .984375-.265625 1.28125-.65625v.28125c0 .734375-.40625 1.109375-1.15625 1.109375-.5 0-.90625-.140625-1.296875-.375l-.3125.625c.46875.28125 1.03125.4375 1.625.4375zm.078125-2.125c-.578125 0-1.03125-.40625-1.03125-1v-.015625c0-.609375.453125-1 1.03125-1s1.0625.40625 1.0625 1v.015625c0 .59375-.484375 1-1.0625 1zm0 0"/></symbol><symbol id="k" overflow="visible"><path d="m3.578125 0v-2.15625c0-.984375-.515625-1.546875-1.59375-1.546875-.59375 0-.984375.125-1.390625.3125l.234375.65625c.328125-.125.625-.21875 1.03125-.21875.578125 0 .90625.28125.90625.78125v.0625c-.28125-.09375-.5625-.15625-1.015625-.15625-.84375 0-1.46875.390625-1.46875 1.203125v.015625c0 .734375.609375 1.125 1.296875 1.125.546875 0 .921875-.234375 1.171875-.53125v.453125zm-.796875-1.3125c0 .453125-.421875.765625-.96875.765625-.390625 0-.703125-.203125-.703125-.546875v-.015625c0-.34375.3125-.5625.828125-.5625.328125 0 .625.0625.84375.140625zm0 0"/></symbol><symbol id="l" overflow="visible"><path d="m.625 0h.84375v-1.546875h.96875c1.0625 0 1.921875-.578125 1.921875-1.65625v-.015625c0-.96875-.703125-1.609375-1.828125-1.609375h-1.90625zm.84375-2.328125v-1.734375h.984375c.640625 0 1.046875.296875 1.046875.859375v.015625c0 .515625-.40625.859375-1.046875.859375zm0 0"/></symbol><g transform="translate(-160.14657 -227.97669)"><path d="m230.52939 263.72279c0 19.1289-15.50782 34.63671-34.63672 34.63671-19.13282 0-34.64063-15.50781-34.64063-34.63671 0-19.13282 15.50781-34.64063 34.64063-34.64063 19.1289 0 34.63672 15.50781 34.63672 34.64063" fill="#fff"/><g clip-path="url(#a)" transform="translate(-13.872959 172.78138)"><path d="m209.76562 125.58203c-19.13281 0-34.64062-15.51172-34.64062-34.640624 0-19.132812 15.50781-34.640625 34.64062-34.640625 19.12891 0 34.63672 15.507813 34.63672 34.640625 0 19.128904-15.50781 34.640624-34.63672 34.640624m0-70.386717c-19.74218 0-35.74609 16.003906-35.74609 35.746093 0 19.742184 16.00391 35.746094 35.74609 35.746094 19.73829 0 35.74219-16.00391 35.74219-35.746094 0-19.742187-16.0039-35.746093-35.74219-35.746093"/></g><path d="m227.85751 258.26575c-2.21875.61719-4.50391 1.16797-6.84766 1.65235 1.29297-3.44531 2.53516-7.14844 3.67578-11.1211 1.54298 2.97266 2.60938 6.16797 3.17188 9.46875m1.49219 7.67188s.0742-.87891.0742-2.21484c0-6.53125-1.86719-12.6211-5.09375-17.77735-2.40625 8.94531-5.32422 16.60938-8.28516 23.00781 1.82812-.29687 3.625-.63281 5.39453-1.00781.71094-2.48437 1.34375-5.19531 1.875-8.16406.85938-.19531 1.71484-.40234 2.5586-.61719-.16016 2.52735-.54297 5.28516-1.17969 8.03516 1.58203-.38672 4.65625-1.26172 4.65625-1.26172" fill="#eb1c23"/><path d="m207.25985 284.76575c2.29688-3.4414 4.96094-7.90625 7.64063-13.40625 1.97265-.29687 3.90625-.63671 5.80078-1.01562-5.38672 16.42969-14.52344 22.02734-20.65234 25.53906 7.52343-2.18359 16.42968-10.74219 21.05859-19.01953 1.24219-2.22266 2.21484-4.70312 2.95703-7.25 1.72266-.40234 3.40625-.83984 5.04688-1.3125-2.17578 15.92578-15.53125 28.29297-31.90235 28.92578 1.55078-1.49609 5.42969-5.52734 10.05078-12.46094" fill="#eb1c23"/><path d="m210.06063 240.70716v7.34375h-7.27734v-7.34375h-13.78516v7.34375h-7.27734v-7.34375h-8.67187c5.85937-5.82031 13.92968-9.41406 22.84375-9.41406 8.91015 0 16.98046 3.59375 22.83984 9.41406zm-14.16796-10.51953c-10.14844 0-19.23829 4.50391-25.38672 11.625h10.10937v7.34375h9.49219v-7.34375h11.57031v7.34375h9.48828v-7.34375h10.10938c-6.14844-7.12109-15.23828-11.625-25.38281-11.625" fill="#002e57"/><path d="m222.18954 242.9181h-9.91797v7.34375h-11.69922v-7.34375h-9.36328v7.34375h-11.69922v-7.34375h-9.91797c-.46093.58203-.90234 1.17969-1.32421 1.78906 9.54296 36.49219 27.74609 52.35547 27.74609 52.35547s18.05469-15.86328 27.50391-52.35156c-.42579-.61328-.86329-1.21094-1.32813-1.79297" fill="#002e57"/><g fill="#ffc528"><path d="m196.99032 281.6056v-26.94922h.008l1.42969-1.74219h-5.07422l1.42969 1.74219h.004v26.94922h-.004l-1.42969 1.74609h5.07422l-1.42969-1.74609zm0 0"/><path d="m189.17001 263.44935h-5.66797v-6.91406h-2.12109v15.41015c.70312.0781 1.41015.15235 2.12109.21875v-6.50781h5.66797v6.91406c.70312.0352 1.41016.0664 2.11719.0899v-16.125h-2.11719zm0 0"/><path d="m208.31063 256.53529-5.70703 8.14453v-8.14453h-2.12109v16.125c.71094-.0234 1.41797-.0508 2.12109-.0859v-4.55078l2.35157-3.27735 3.6289 7.38672c.79297-.0742 1.57422-.16015 2.35547-.25l-4.57031-9 4.53125-6.34765zm0 0"/></g><path d="m167.09579 248.797c1.14063 3.97266 2.38281 7.67579 3.67578 11.1211-2.34375-.48438-4.6289-1.03516-6.84765-1.65235.5625-3.30078 1.6289-6.49609 3.17187-9.46875m-.008 18.40235c-.63672-2.75-1.01953-5.50781-1.17969-8.03516.84375.21485 1.69922.42188 2.55859.61719.53125 2.96875 1.16407 5.67969 1.87891 8.16406 1.76563.375 3.5625.71094 5.39063 1.00781-2.96094-6.39843-5.87891-14.0625-8.28125-23.00781-3.23047 5.15625-5.09766 11.2461-5.09766 17.77735 0 1.33593.0742 2.21484.0742 2.21484s3.07422.875 4.65625 1.26172" fill="#eb1c23"/><path d="m184.52157 284.76575c-2.29297-3.4414-4.96094-7.90625-7.64062-13.40625-1.97266-.29687-3.90625-.63671-5.80078-1.01562 5.38671 16.42969 14.52343 22.02734 20.65234 25.53906-7.52344-2.18359-16.42969-10.74219-21.05859-19.01953-1.24219-2.22266-2.21485-4.70312-2.95704-7.25-1.72265-.40234-3.40625-.83984-5.04687-1.3125 2.17578 15.92578 15.53125 28.29297 31.90234 28.92578-1.55078-1.49609-5.42968-5.52734-10.05078-12.46094" fill="#eb1c23"/><g clip-path="url(#b)"><g><use height="100%" width="100%" x="94.572098" xlink:href="#l" y="429.4194"/><use height="100%" width="100%" x="99.181297" xlink:href="#f" y="429.4194"/></g></g><g clip-path="url(#c)"><g><use height="100%" width="100%" x="109.4554" xlink:href="#g" y="429.4194"/><use height="100%" width="100%" x="112.9054" xlink:href="#e" y="429.4194"/><use height="100%" width="100%" x="117.073" xlink:href="#d" y="429.4194"/><use height="100%" width="100%" x="119.0464" xlink:href="#i" y="429.4194"/><use height="100%" width="100%" x="123.3244" xlink:href="#h" y="429.4194"/><use height="100%" width="100%" x="127.9474" xlink:href="#j" y="429.4194"/><use height="100%" width="100%" x="132.5704" xlink:href="#k" y="429.4194"/><use height="100%" width="100%" x="136.6207" xlink:href="#i" y="429.4194"/><use height="100%" width="100%" x="140.8987" xlink:href="#j" y="429.4194"/></g></g></g></svg>