<?xml version="1.0"?>
<svg xmlns="http://www.w3.org/2000/svg" width="299.99301" height="300">
  <g clip-path="url(#bu)" transform="matrix(7.76922 0 0 -7.76922 -457.5994655 2940.19174)">
    <path fill="#005493" d="M78.2052 339.8269c10.662 0 19.307 8.644 19.307 19.307 0 10.663-8.645 19.307-19.307 19.307-10.662 0-19.307-8.644-19.307-19.307 0-10.663 8.645-19.307 19.307-19.307"/>
    <path fill="#fff" d="M78.2052 340.4381c10.325 0 18.696 8.37 18.696 18.696 0 10.325-8.371 18.696-18.696 18.696-10.325 0-18.696-8.371-18.696-18.696 0-10.326 8.371-18.696 18.696-18.696"/>
    <path fill="#005493" d="M78.2052 343.9514c8.385 0 15.183 6.797 15.183 15.182 0 8.386-6.798 15.183-15.183 15.183s-15.182-6.797-15.182-15.183c0-8.385 6.797-15.182 15.182-15.182"/>
    <path fill="#fff" d="M78.2052 344.5925c8.03 0 14.541 6.511 14.541 14.541 0 8.031-6.511 14.542-14.541 14.542-8.031 0-14.541-6.511-14.541-14.542 0-8.03 6.51-14.541 14.541-14.541"/>
    <path fill="#005493" d="M78.2052 345.2035c7.693 0 13.93 6.237 13.93 13.93 0 7.694-6.237 13.931-13.93 13.931-7.694 0-13.93-6.237-13.93-13.931 0-7.693 6.236-13.93 13.93-13.93"/>
    <path fill="#fff" d="M72.7421 363.5969c-1.769 0-2.024-1.803-2.024-4.168 0-2.364.255-4.168 2.024-4.168 1.769 0 2.025 1.804 2.025 4.168 0 2.365-.256 4.168-2.025 4.168m0-10.462c-3.334 0-5.138 1.837-5.138 6.294 0 4.458 1.804 6.295 5.138 6.295 3.334 0 5.138-1.837 5.138-6.295 0-4.457-1.804-6.294-5.138-6.294m11.024 5.4095h-1.582v-3.045h1.582c.816 0 1.225.306 1.225 1.531 0 1.208-.409 1.514-1.225 1.514m-.153 4.832h-1.429v-2.79h1.429c.765 0 1.14.272 1.14 1.395 0 1.14-.375 1.395-1.14 1.395m.612-9.901h-5.035v11.908h5.086c1.94 0 3.573-.714 3.573-3.045 0-1.667-.919-2.11-2.28-2.484v-.442c1.582-.324 2.535-.868 2.535-2.739 0-2.756-2.484-3.198-3.879-3.198"/>
  </g>
</svg>