<?xml version="1.0" encoding="UTF-8"?>
<svg id="Layer_1" data-name="Layer 1" xmlns="http://www.w3.org/2000/svg" viewBox="0 0 504.07 543.16">
  <defs>
    <style>
      .cls-1 {
        fill: #1f2859;
      }

      .cls-2 {
        fill: #ed1c24;
      }

      .cls-3 {
        fill: #fff;
      }

      .cls-4 {
        fill: #cea72b;
      }
    </style>
  </defs>
  <g>
    <path class="cls-1" d="M244.05,493.54c-30.87-29.52-59.08-61.81-79.83-91.3-3.85-5.47-11.47-16.84-14.27-21.32l-2.01-3.2,1.05-.2c1.25-.26,12.69-2.87,16.7-3.79,4.28-.99,8.34-1.91,30.48-6.92,20.23-4.58,25.04-5.67,30.48-6.92,1.55-.36,4.81-1.09,7.25-1.65,2.44-.56,5.7-1.28,7.25-1.65,4.18-.99,40.36-9.19,42.83-9.72,1.19-.26,4.45-.99,7.25-1.65,2.8-.66,9.72-2.21,15.32-3.49,5.63-1.25,13.41-3.03,17.3-3.92,7.94-1.81,41.78-9.52,47.12-10.71,1.91-.43,5.47-1.22,7.91-1.78,2.44-.56,4.48-1.02,4.51-1.02.23,0-4.78,10.61-8.86,18.78-12.36,24.78-25.83,46.46-43.69,70.41-14.3,19.14-32.19,40.13-48.86,57.26-2.27,2.37-5.04,5.24-6.1,6.39-2.6,2.83-23.89,23.43-24.22,23.43-.13,0-3.56-3.16-7.61-7.05Z"/>
    <path class="cls-1" d="M106.59,288.99c-8.43-26.72-13.48-53.15-15.55-81.65-.4-5.27-.59-13.71-.69-29.06l-.16-21.68h77.49v28.99h46.13v-28.99h75.78v28.99h46.13v-28.99h77.53l-.2,21.02c-.2,21.22-.36,25.34-1.55,38.45-.63,6.72-.92,9.06-1.12,9.06-.23,0-4.55.99-58.19,13.18-44.71,10.18-46.79,10.64-55.85,12.69-10.44,2.34-31.37,7.08-34.1,7.74-1.55.36-4.81,1.09-7.25,1.65-7.31,1.65-11.53,2.6-14.5,3.29-2.83.66-24.38,5.57-34.1,7.74-5.5,1.25-10.05,2.27-16.14,3.66-1.98.46-5.17,1.19-7.08,1.61-1.91.43-19.11,4.32-38.22,8.67-19.11,4.35-35.22,8.01-35.81,8.14l-1.05.2-1.48-4.71Z"/>
    <path class="cls-2" d="M208.5,475.98c-48.83-32.52-90.54-70.02-123.42-110.97-17.73-22.08-32.12-44.25-43.92-67.54-4.28-8.47-8.99-18.65-8.73-18.88.07-.07,2.01.46,4.35,1.19,6.92,2.17,13.74,3.99,19.41,5.17l2.7.56,2.41,5.83c8.86,21.48,19.01,40.43,32.65,60.82,9.59,14.33,19.24,26.72,34.23,43.82,5.96,6.82,23.23,25.53,23.53,25.53.1,0-1.71-2.17-3.99-4.84-19.93-23.26-41.35-53.74-55.55-79.01-6.26-11.17-12.88-24.51-17.46-35.25-2.83-6.62-5.96-14.66-5.8-14.83.07-.07,2.27.23,4.88.63,2.64.43,7.91,1.12,11.7,1.48,3.82.4,7.78.82,8.83.96l1.91.23,1.91,5.77c4.38,13.05,8.27,23,14.33,36.57,3.16,7.05,10.08,21.05,13.38,27.02,1.12,2.08,2.44,4.45,2.9,5.27,19.51,35.58,50.64,76.84,84.22,111.6,1.98,2.08,3.53,3.79,3.43,3.89-.07.07-3.62-2.17-7.87-5.01Z"/>
    <path class="cls-2" d="M289.29,478.88c.43-.53,3.69-4.05,7.25-7.84,49.88-52.95,86.13-109.78,106.49-166.98,1.35-3.79,2.87-8.24,3.36-9.88.49-1.61.99-3.06,1.12-3.23.13-.13,2.01-.4,4.18-.59,5.14-.43,16.38-1.81,19.87-2.44,1.55-.26,2.83-.43,2.9-.36.13.13-3.95,10.41-6.66,16.67-4.74,11.04-15.35,31.66-21.78,42.34-15.19,25.24-33.01,49.85-52.62,72.65-2.27,2.67-2.57,3.1-.99,1.42,28.37-29.72,46.03-51.3,60.72-74.2,11.86-18.52,20.43-34.79,28.2-53.57,1.35-3.26,2.6-6.23,2.73-6.62.23-.53.99-.82,3.69-1.45,6.79-1.52,13.81-3.36,19.74-5.24,1.71-.56,3.16-.92,3.26-.86.43.46-9.52,20.99-14.63,30.15-15.45,27.64-33.15,51.96-57.46,78.91-6.06,6.72-25.9,26.52-32.98,32.95-22.87,20.76-44.22,37.4-69.36,54.2-4.09,2.73-7.51,4.94-7.61,4.94-.13,0,.13-.43.56-.96Z"/>
    <path class="cls-2" d="M84.81,280.63c-4.68-.43-10.54-1.25-16.38-2.31l-3.16-.56-.53-1.35c-.99-2.73-3.82-12.03-5.11-16.84-4.12-15.52-6.69-29.65-8.4-46.69-.82-8.07-1.78-24.48-1.45-24.81.1-.1,1.94.3,4.09.86,2.17.56,5.77,1.52,8.04,2.14,2.27.59,7.22,1.91,11,2.9,3.76,1.02,6.92,1.85,6.95,1.85.07,0,.2,1.81.3,4.05,1.48,27.22,5.34,52.32,11.63,75.52,1.75,6.46,1.81,5.77-.43,5.73-1.09-.03-4.02-.23-6.56-.49Z"/>
    <path class="cls-2" d="M410.51,281.05c0-.07,1.02-4.18,2.27-9.16,5.9-23.33,9.19-44.97,10.58-69.49.2-3.53.43-6.46.49-6.56.1-.07,5.3-1.52,11.6-3.16,6.33-1.68,12.92-3.46,14.73-3.92,1.78-.49,3.33-.79,3.43-.72.2.23-.46,12.65-1.12,20.46-1.81,22.01-6.99,47.64-13.21,65.57l-1.25,3.59-1.98.43c-7.55,1.55-25.53,3.62-25.53,2.97Z"/>
    <path class="cls-2" d="M449.42,271.63c8.3-24.58,13.57-53.74,14.66-80.86.13-3.2.26-5.83.33-5.83s6.16-1.61,13.54-3.59c7.41-1.94,13.84-3.66,14.37-3.79l.89-.2v3.53c0,7.58-1.22,20.96-2.83,31.4-2.17,14.1-6.03,29.69-10.81,43.76-3.49,10.31-3.69,10.74-4.91,11.24-2.67,1.05-15.95,5.34-19.51,6.29-2.17.56-4.65,1.25-5.47,1.45l-1.55.43,1.28-3.82Z"/>
    <path class="cls-2" d="M53.51,275.06c-.16-.07-2.04-.59-4.12-1.15-5.44-1.48-13.38-3.99-17.96-5.67l-3.92-1.42-.92-2.47c-8.01-21.42-13.51-44.97-15.55-66.65-.59-6.19-1.32-19.97-1.09-20.23.16-.13,24.51,6.16,27.81,7.18,1.19.36.99-.86,1.75,11.83,1.45,24.74,5.86,48.47,13.38,72.09.99,3.16,1.91,5.93,2.01,6.19.16.43-.53.59-1.38.3Z"/>
    <path class="cls-4" d="M248.57,512.65c-1.45-.76-4.18-2.31-6.1-3.39-1.91-1.09-3.62-2.04-3.79-2.11-.79-.33-17.79-10.54-21.09-12.65-2.27-1.48-3.79-2.41-6.36-3.95-.3-.2-3.43-2.27-6.92-4.61-3.53-2.37-6.62-4.42-6.92-4.61-.3-.16-1.42-.96-2.47-1.71-1.02-.79-1.94-1.42-2.04-1.42-.07,0-1.09-.69-2.27-1.55-1.15-.89-3.16-2.31-4.45-3.23-1.28-.89-3.79-2.7-5.57-4.02-1.75-1.28-4.15-3.06-5.34-3.95-1.19-.86-2.9-2.17-3.82-2.9s-2.11-1.61-2.64-1.98c-.49-.36-1.45-1.09-2.11-1.65-.66-.53-1.61-1.28-2.14-1.65-1.52-1.09-19.31-15.65-19.93-16.31-.1-.1-1.71-1.48-3.59-3.1-1.88-1.61-3.76-3.26-4.15-3.62-.43-.4-1.85-1.65-3.16-2.83-12.26-10.87-27.78-26.36-39.83-39.67-.82-.89-1.71-1.88-1.98-2.14-1.42-1.48-9.23-10.68-12.55-14.69-5.37-6.56-10.21-12.88-16.28-21.25-.99-1.35-1.91-2.6-2.08-2.8-.3-.4-4.94-7.08-5.67-8.2-.56-.82-1.48-2.27-4.25-6.46-1.02-1.55-1.94-3.03-2.11-3.29-.13-.26-.66-1.12-1.15-1.88-.86-1.32-5.77-9.46-6.52-10.81-.2-.36-1.28-2.27-2.44-4.28-5.54-9.65-11.93-22.7-16.84-34.17-.56-1.32-1.15-2.7-1.32-3.06-.13-.36-.59-1.48-.99-2.47-.36-.99-.99-2.54-1.35-3.46-3.79-9.56-9.26-26.82-11.43-36.08-2.93-12.52-4.38-20.33-6.03-32.95-.63-4.84-.72-7.35-.82-22.83-.13-16.7-.13-17.43.46-17.26,2.67.79,7.41,2.08,14.43,3.92,4.91,1.28,8.57,2.27,11.04,2.97,1.35.4,3,.82,3.62.92.63.13,2.87.72,4.94,1.28,4.05,1.12,8.2,2.24,13.01,3.49,1.65.43,3.85,1.02,4.94,1.32,3.85,1.05,9.29,2.5,13.51,3.59,4.58,1.19,8.5,2.24,11.24,3.03.92.26,1.85.46,2.04.46.3,0,.4-4.84.4-19.27v-19.27h98.52v28.99h24.71v-28.99h97.2v28.99h25.04v-28.99h98.52v19.27c0,10.61.07,19.27.2,19.27.1,0,1.91-.46,4.02-1.02,2.11-.56,4.91-1.28,6.16-1.61,2.37-.63,6.75-1.78,11.7-3.13,1.55-.4,5.47-1.45,8.73-2.31,8.63-2.31,9.79-2.6,14.17-3.79,2.17-.59,4.58-1.19,5.37-1.35.79-.16,1.52-.36,1.65-.43.26-.16,7.51-2.11,14.73-3.99,1.65-.4,5.24-1.38,8.04-2.14,4.15-1.15,5.11-1.32,5.34-.96.4.63.36,16.28-.03,23.03-.99,16.64-3.03,30.91-6.79,47.28-1.65,7.18-5.27,19.8-7.55,26.19-3.95,11.24-6.39,17.43-10.94,27.68-2.93,6.66-9.59,19.93-13.05,26.03-.72,1.25-1.94,3.46-2.97,5.27-1.45,2.64-7.61,12.75-8.34,13.74-.43.56-.79,1.12-.79,1.22,0,.07-.66,1.12-1.48,2.31-.82,1.22-1.48,2.24-1.48,2.34s-.69,1.19-1.55,2.41c-.89,1.25-1.71,2.47-1.91,2.77-.16.26-.76,1.12-1.32,1.91-.53.79-1.22,1.75-1.48,2.14-2.67,3.95-10.68,14.79-13.25,17.96-.53.63-1.05,1.32-1.19,1.48-1.52,2.08-11.33,14.1-13.21,16.14-.66.69-1.68,1.88-2.31,2.64-.59.72-2.21,2.54-3.56,4.02-1.38,1.52-2.77,3.06-3.13,3.46-5.07,5.86-23,23.85-31.76,31.93-5.4,4.94-12.75,11.5-14.63,13.01-.63.53-1.28,1.12-1.48,1.32-.46.53-13.41,11.24-16.8,13.9-3.95,3.13-7.22,5.63-7.94,6.16-.49.36-1.28.96-1.75,1.35-1.22.99-8.93,6.79-9.82,7.38-.4.26-2.47,1.78-4.61,3.33-2.14,1.55-5.14,3.69-6.69,4.74-1.55,1.09-2.87,2.01-2.97,2.11s-.4.36-.69.53c-.3.2-4.45,2.93-9.23,6.13-10.38,6.89-21.35,13.77-29.29,18.35-8.6,4.94-17.69,9.95-18.12,9.95-.26,0-1.68-.66-3.13-1.45ZM262.93,489.95c6.06-5.86,11.89-11.63,12.95-12.78,1.05-1.15,3.82-4.02,6.1-6.39,16.67-17.13,34.56-38.12,48.86-57.26,17.86-23.95,31.33-45.63,43.69-70.41,4.09-8.17,9.09-18.78,8.86-18.78-.03,0-2.08.46-4.51,1.02-2.44.56-6,1.35-7.91,1.78-5.34,1.19-39.18,8.9-47.12,10.71-3.89.89-11.66,2.67-17.3,3.92-5.6,1.28-12.52,2.83-15.32,3.49-2.8.66-6.06,1.38-7.25,1.65-2.47.53-38.65,8.73-42.83,9.72-1.55.36-4.81,1.09-7.25,1.65-2.44.56-5.7,1.28-7.25,1.65-5.44,1.25-10.25,2.34-30.48,6.92-22.14,5.01-26.19,5.93-30.48,6.92-4.02.92-15.45,3.53-16.7,3.79l-1.05.2,2.01,3.2c19.83,31.66,46.59,64.78,78.35,97.07,8.76,8.9,22.93,22.6,23.36,22.6.13,0,5.21-4.81,11.27-10.64ZM212.95,477.1c-33.57-34.76-64.71-76.01-84.22-111.6-.46-.82-1.78-3.2-2.9-5.27-6.92-12.55-16.05-32.26-21.48-46.29-4.22-10.97-9.32-26.19-11.24-33.61-.1-.36-.69-2.57-1.32-4.94-6.33-23.39-10.15-48.3-11.63-75.52-.1-2.24-.23-4.05-.3-4.05-.03,0-3.2-.82-6.95-1.85-10.25-2.73-14.79-3.92-21.71-5.73-3.43-.89-7.55-1.98-9.13-2.41l-2.9-.79-.07,1.35-.03,1.35-.13-1.38c-.13-1.22-.26-1.42-1.19-1.71-3.26-1.02-27.64-7.31-27.81-7.18-.23.26.49,14.04,1.09,20.23,3.16,33.44,13.71,67.94,30.91,101.42,29.36,57.03,77.89,111.96,139.73,157.99,12.13,9.03,34.3,24.28,34.69,23.89.1-.1-1.45-1.81-3.43-3.89ZM296.34,474.89c25.14-16.8,46.49-33.44,69.36-54.2,7.08-6.42,26.92-26.23,32.98-32.95,24.32-26.95,42.01-51.27,57.46-78.91,3.59-6.46,10.31-19.9,12.82-25.7,1.05-2.44,2.14-4.94,2.44-5.57,8.67-19.93,15.72-44.15,18.98-65.27,1.61-10.44,2.83-23.82,2.83-31.4v-3.53l-.89.2c-.89.23-37.23,9.88-45.73,12.16-2.34.63-8.4,2.24-13.44,3.56-5.01,1.35-9.19,2.5-9.29,2.57-.07.1-.3,3.03-.49,6.56-1.05,18.65-3.36,36.47-6.95,53.9-1.58,7.68-5.77,24.55-6.16,24.81-.33.23-2.67,7.87-2.87,9.23-.33,2.67-5.37,17-9.88,28.24-14.04,34.79-33.38,68.57-58.25,101.78-13.05,17.36-27.51,34.56-42.7,50.67-6.66,7.08-8.17,8.8-7.81,8.8.1,0,3.53-2.21,7.61-4.94ZM190.25,357.43c162.7-36.94,197.95-44.97,198.05-45.07.2-.2,4.28-11.17,5.83-15.72,3.59-10.48,7.35-23.53,9.75-33.77,2.37-10.18,5.27-26,4.88-26.42-.13-.1-20.26,4.35-44.78,9.92-24.51,5.57-77.2,17.53-117.07,26.59-39.87,9.06-86.56,19.67-103.79,23.59-17.2,3.89-31.33,7.12-31.4,7.18-.13.1,3.43,9.32,5.8,14.99,4.35,10.41,10.61,23.76,15.35,32.62,5.4,10.15,9.26,16.8,9.75,16.8.26,0,21.71-4.81,47.61-10.71ZM144.94,285.37c19.11-4.35,36.31-8.24,38.22-8.67,1.91-.43,5.11-1.15,7.08-1.61,6.1-1.38,10.64-2.41,16.14-3.66,9.72-2.17,31.27-7.08,34.1-7.74,2.97-.69,7.18-1.65,14.5-3.29,2.44-.56,5.7-1.28,7.25-1.65,2.73-.66,23.66-5.4,34.1-7.74,9.06-2.04,11.14-2.5,55.85-12.69,53.64-12.19,57.96-13.18,58.19-13.18.2,0,.49-2.34,1.12-9.06,1.19-13.11,1.35-17.23,1.55-38.45l.2-21.02h-77.53v28.99h-46.13v-28.99h-75.78v28.99h-46.13v-28.99h-77.49l.16,21.68c.1,15.35.3,23.79.69,29.06,2.08,28.5,7.12,54.92,15.55,81.65l1.48,4.71,1.05-.2c.59-.13,16.7-3.79,35.81-8.14Z"/>
    <path class="cls-4" d="M49.82,195.32c0-.72.07-.99.13-.56.07.4.07.99,0,1.32-.1.3-.16-.03-.13-.76Z"/>
    <path class="cls-4" d="M351.56,421.31c.79-.96,1.52-1.65,1.61-1.58.07.1-.59.86-1.48,1.71l-1.58,1.55,1.45-1.68Z"/>
    <path class="cls-3" d="M354.2,418.35c2.17-2.34,10.97-13.08,15.49-18.91,26.13-33.67,45.83-66.13,58.98-97.13,3.16-7.45,5.96-14.6,5.8-14.79-.1-.07-1.48.1-3.06.36-6.92,1.15-23.62,3-24.09,2.67-.07-.03.53-2.14,1.28-4.68l1.35-4.61,3.99-.2c4.68-.23,12.65-1.25,19.14-2.37,2.5-.46,4.71-.82,4.84-.82.49,0,4.12-11.99,6.82-22.4,4.94-19.14,7.41-36.84,8.86-63.56l.23-4.09,2.31-.63c1.28-.33,3.62-.99,5.24-1.42l2.93-.79-.23,5.21c-1.19,27.97-5.77,53.71-14.2,79.77-.79,2.44-1.52,4.71-1.65,5.01-.2.46.49.36,4.51-.69,6.29-1.68,12.98-3.76,18.35-5.7,2.44-.89,4.45-1.55,4.48-1.52.1.1-3.43,8.86-4.15,10.28-.53,1.12-1.09,1.35-8.9,3.62-4.78,1.38-14.5,3.82-17.13,4.32-.99.16-1.25.43-1.61,1.42-.23.66-1.28,3.29-2.34,5.83-8.53,20.66-18.55,39.27-32.03,59.44-9.95,14.93-20.23,28.01-35.98,45.83-6.75,7.61-19.34,21.22-20,21.61-.23.13.1-.36.76-1.05Z"/>
    <path class="cls-3" d="M144.38,413.84c-29.03-31.27-45.63-52.65-61.45-79.14-7.94-13.31-16.11-29.79-21.84-43.99-1.05-2.64-2.01-4.88-2.11-5.01-.1-.1-2.87-.82-6.13-1.58-5.47-1.28-12.19-3.13-18.25-5.01l-2.44-.76-2.24-5.6c-1.25-3.06-2.21-5.6-2.14-5.67s.92.2,1.88.59c4.71,1.85,19.51,6.42,24.25,7.48l1.38.33-.79-2.21c-3.76-10.41-8.07-27.05-10.71-41.38-2.57-14.04-4.61-33.21-4.61-43.69v-3.16l5.21,1.38,5.17,1.38.07,2.44c.72,23.92,4.42,49.16,10.35,70.81,1.12,4.09,4.94,16.28,5.17,16.54.69.66,17.53,3.1,24.28,3.49l3.92.23,1.38,4.61c.76,2.54,1.38,4.61,1.35,4.65-.56.3-19.93-1.94-26.56-3.06-.63-.1-1.02-.07-.92.1.07.16,1.02,2.44,2.04,5.07,8.6,21.71,19.83,43.59,33.38,64.91,12.55,19.77,30.35,43.85,44.05,59.57.66.76,1.09,1.38.92,1.35-.13,0-2.21-2.14-4.61-4.68Z"/>
    <path class="cls-3" d="M138.78,362.11c-8.67-15.49-15.12-28.67-21.25-43.39-2.37-5.67-5.93-14.89-5.8-14.99.07-.07,14.2-3.29,31.4-7.18,17.23-3.92,63.92-14.53,103.79-23.59,39.87-9.06,92.55-21.02,117.07-26.59,24.51-5.57,44.65-10.02,44.78-9.92.4.43-2.5,16.24-4.88,26.42-2.41,10.25-6.16,23.29-9.75,33.77-1.55,4.55-5.63,15.52-5.83,15.72-.1.1-35.35,8.14-198.05,45.07-25.9,5.9-47.35,10.71-47.61,10.71-.3,0-1.85-2.44-3.85-6.03Z"/>
    <path class="cls-1" d="M179.26,348.79c.39-1.11.46-2.4.2-3.87-.26-1.47-.57-3.02-.93-4.65l-7.07-32.14c-.36-1.62-.73-3.16-1.11-4.6-.38-1.45-.98-2.59-1.81-3.43l34.75-7.65c1.91-.42,3.62-.62,5.14-.59,1.52.03,2.86.21,4.04.55,1.18.34,2.22.79,3.11,1.36.89.57,1.67,1.19,2.32,1.85,1.49,1.54,2.54,3.44,3.17,5.68.53,2.39.64,4.45.34,6.18-.3,1.72-.78,3.14-1.43,4.24-.65,1.1-1.33,1.92-2.04,2.46-.71.54-1.21.84-1.49.9.28-.06.87-.04,1.77.06.89.1,1.88.49,2.97,1.16,1.08.68,2.15,1.74,3.19,3.19,1.04,1.45,1.85,3.47,2.42,6.07.38,2.3.2,4.47-.55,6.5-.32.88-.79,1.77-1.42,2.67-.63.91-1.45,1.77-2.46,2.58-1.01.82-2.26,1.57-3.75,2.26-1.49.69-3.26,1.26-5.33,1.72l-34.02,7.49ZM203.35,308.36c-.25-1.13-.85-1.81-1.79-2.07-.95-.25-2.2-.21-3.74.13l-6.7,1.47,1.34,6.09,6.7-1.47c1.62-.36,2.79-.87,3.49-1.53s.94-1.53.7-2.62ZM207.72,326.48c-.25-1.12-.84-1.8-1.79-2.04-.95-.24-2.19-.18-3.73.16l-7.06,1.55,1.34,6.09,7.06-1.55c3.25-.71,4.64-2.12,4.18-4.2Z"/>
    <path class="cls-1" d="M229.41,324.99l17.29-3.8,2.68,12.17-17.29,3.8-2.68-12.17Z"/>
    <path class="cls-1" d="M277.63,307.16c-.3.36-.73.72-1.29,1.08-.56.36-1.17.69-1.82,1.01-.66.31-1.33.59-2.02.83-.69.24-1.34.42-1.95.56-3.25.71-6.28,1.1-9.09,1.17-2.81.07-5.33-.3-7.55-1.11-2.22-.81-4.09-2.1-5.61-3.87-1.52-1.77-2.61-4.16-3.27-7.16-.71-3.2-.61-6.03.3-8.49.91-2.45,2.36-4.58,4.37-6.39,2.01-1.8,4.41-3.31,7.2-4.52,2.8-1.21,5.76-2.16,8.88-2.85,1.87-.41,3.8-.7,5.81-.86,2.01-.16,3.99-.11,5.94.16,1.95.27,3.86.83,5.73,1.67,1.87.84,3.6,2.09,5.19,3.74,1.6,1.65,3.03,3.73,4.31,6.26,1.28,2.53,2.32,5.6,3.11,9.21.76,3.45,1.02,6.56.78,9.34-.24,2.77-.83,5.27-1.77,7.47-.94,2.21-2.19,4.13-3.74,5.77-1.55,1.64-3.24,3.05-5.07,4.24-1.82,1.19-3.73,2.16-5.71,2.91-1.98.76-3.91,1.34-5.77,1.75-3.49.77-6.86,1.32-10.1,1.65-3.25.33-6.51.31-9.78-.08l-3.05-13.88c.9.23,1.89.47,2.97.72,1.08.25,2.28.45,3.61.58,1.33.13,2.83.15,4.51.06,1.68-.09,3.58-.37,5.69-.84,2.8-.62,5.01-1.73,6.63-3.34,1.62-1.61,2.48-3.87,2.56-6.78ZM274.42,292.62c-.27-1.22-.95-2.16-2.06-2.83-1.1-.67-2.43-.84-3.97-.5-1.62.36-2.79,1.07-3.49,2.14-.7,1.07-.92,2.21-.65,3.43.27,1.22.94,2.16,2.03,2.84,1.08.67,2.44.84,4.06.48,1.54-.34,2.67-1.05,3.39-2.12.72-1.07.95-2.22.68-3.44Z"/>
    <path class="cls-1" d="M347.74,297.8c.58,2.64.46,5-.35,7.1-.82,2.09-2.23,3.97-4.25,5.63-2.02,1.66-4.59,3.11-7.72,4.35-3.13,1.24-6.72,2.31-10.78,3.2-1.58.35-3.11.64-4.59.88-1.48.24-3,.43-4.57.56-1.57.13-3.22.21-4.96.23-1.74.02-3.66-.01-5.77-.1l-3.05-13.88c.9.23,1.96.45,3.18.67,1.22.22,2.59.38,4.12.46,1.53.09,3.21.07,5.03-.05,1.82-.12,3.79-.42,5.9-.88,1.34-.29,2.61-.66,3.81-1.09,1.2-.43,2.24-.92,3.13-1.45.88-.53,1.56-1.09,2.03-1.66.47-.57.64-1.14.52-1.71-.14-.65-.6-1.11-1.36-1.39-.76-.28-1.68-.43-2.75-.45-1.07-.02-2.22.05-3.46.22-1.24.17-2.39.37-3.44.6l-10.77,2.37-2.68-12.17,10.77-2.37c1.05-.23,2.18-.53,3.37-.9,1.2-.37,2.27-.79,3.23-1.25.96-.47,1.73-.99,2.31-1.56.58-.57.79-1.19.65-1.84-.13-.57-.52-1.01-1.19-1.33-.67-.32-1.51-.54-2.54-.65s-2.17-.12-3.45,0c-1.27.11-2.58.31-3.92.61-2.11.46-4.02,1.02-5.73,1.68-1.71.65-3.24,1.34-4.59,2.06-1.35.72-2.53,1.44-3.55,2.15-1.01.71-1.88,1.36-2.6,1.95l-3.05-13.88c1.87-.96,3.6-1.8,5.19-2.51,1.59-.71,3.12-1.33,4.6-1.87,1.48-.54,2.94-1.01,4.38-1.41,1.44-.4,2.96-.78,4.54-1.13,4.06-.89,7.77-1.43,11.13-1.62,3.36-.19,6.31.05,8.83.7,2.53.66,4.6,1.76,6.22,3.32,1.62,1.56,2.72,3.66,3.3,6.29.4,1.83.36,3.53-.12,5.1-.48,1.58-1.15,2.93-2.01,4.08-.86,1.14-1.77,2.07-2.74,2.77-.97.7-1.74,1.12-2.31,1.24.57-.12,1.44-.07,2.62.16,1.18.23,2.39.68,3.65,1.37,1.25.68,2.43,1.63,3.53,2.86,1.1,1.23,1.85,2.75,2.25,4.58Z"/>
  </g>
  <polygon class="cls-4" points="237.51 41.78 252.05 0 266.56 41.79 310.79 42.71 275.52 69.42 288.32 111.77 252.02 86.49 215.7 111.74 228.52 69.4 193.28 42.66 237.51 41.78"/>
</svg>