<?xml version="1.0" encoding="utf-8"?>
<!-- Generator: Adobe Illustrator 16.0.0, SVG Export Plug-In . SVG Version: 6.00 Build 0)  -->
<!DOCTYPE svg PUBLIC "-//W3C//DTD SVG 1.1//EN" "http://www.w3.org/Graphics/SVG/1.1/DTD/svg11.dtd" [
	<!ENTITY ns_extend "http://ns.adobe.com/Extensibility/1.0/">
	<!ENTITY ns_ai "http://ns.adobe.com/AdobeIllustrator/10.0/">
	<!ENTITY ns_graphs "http://ns.adobe.com/Graphs/1.0/">
	<!ENTITY ns_vars "http://ns.adobe.com/Variables/1.0/">
	<!ENTITY ns_imrep "http://ns.adobe.com/ImageReplacement/1.0/">
	<!ENTITY ns_sfw "http://ns.adobe.com/SaveForWeb/1.0/">
	<!ENTITY ns_custom "http://ns.adobe.com/GenericCustomNamespace/1.0/">
	<!ENTITY ns_adobe_xpath "http://ns.adobe.com/XPath/1.0/">
]>
<svg version="1.1" id="Layer_1" xmlns:x="&ns_extend;" xmlns:i="&ns_ai;" xmlns:graph="&ns_graphs;"
	 xmlns="http://www.w3.org/2000/svg" xmlns:xlink="http://www.w3.org/1999/xlink" x="0px" y="0px" width="119.999px" height="120px"
	 viewBox="0 0 119.999 120" enable-background="new 0 0 119.999 120" xml:space="preserve">
<metadata>
	<sfw  xmlns="&ns_sfw;">
		<slices></slices>
		<sliceSourceBounds  height="120" width="120" x="247" y="-457" bottomLeftOrigin="true"></sliceSourceBounds>
	</sfw>
</metadata>
<g>
	<circle fill="#4574AC" cx="60" cy="60" r="60"/>
	<path fill="#FFFFFF" d="M60,1.238C27.598,1.238,1.237,27.599,1.237,60c0,32.402,26.361,58.763,58.762,58.763
		c32.403,0,58.763-26.36,58.763-58.763C118.763,27.599,92.402,1.238,60,1.238z"/>
	<polygon fill="#4574AC" points="17.103,41.553 13.805,40.462 11.974,46.1 10.632,45.664 12.464,40.026 9.166,38.937 5.957,48.815 
		17.965,52.813 19.355,48.537 15.272,47.19 	"/>
	<path fill="#4574AC" d="M23.262,33.347c-0.511,0.71-1.016,1.18-1.516,1.409c-0.5,0.228-0.975,0.293-1.425,0.195
		c-0.451-0.097-0.857-0.278-1.221-0.542c-0.308-0.203-0.584-0.498-0.829-0.888c-0.245-0.389-0.349-0.877-0.31-1.466
		c0.038-0.587,0.328-1.281,0.869-2.079c0.132-0.188,0.31-0.412,0.535-0.672c0.224-0.26,0.458-0.508,0.7-0.741l-2.756-2.667
		c-0.396,0.376-0.762,0.757-1.101,1.147c-0.339,0.389-0.701,0.858-1.086,1.408c-1.397,2.04-1.954,3.896-1.67,5.564
		c0.285,1.67,1.271,3.092,2.958,4.267c1.013,0.707,2.079,1.138,3.199,1.293c1.12,0.155,2.214-0.007,3.284-0.488
		c1.068-0.48,2.033-1.321,2.893-2.523c0.427-0.615,0.791-1.188,1.089-1.715c0.299-0.554,0.556-1.082,0.772-1.581l-3.365-1.665
		C23.991,32.208,23.652,32.791,23.262,33.347z"/>
	<path fill="#4574AC" d="M37.99,18.937c-0.439-0.09-0.852-0.055-1.237,0.101l-0.019-0.031c0.655-0.48,1.032-1.107,1.133-1.883
		c0.1-0.775-0.073-1.535-0.52-2.276c-0.545-0.923-1.301-1.504-2.271-1.746c-0.97-0.241-2.204,0.089-3.698,0.99l-5.671,3.544
		l6.63,10.781l3.799-2.374l-2.096-3.457l0.572-0.357c0.172-0.116,0.357-0.151,0.556-0.105c0.199,0.046,0.451,0.196,0.757,0.45
		l2.532,2.02l4.28-2.674c-1.263-0.971-2.259-1.689-2.991-2.153C39.014,19.302,38.429,19.025,37.99,18.937z M34.043,18.792
		c-0.161,0.265-0.425,0.501-0.792,0.708l-0.789,0.493l-1.333-2.168l0.866-0.541c0.462-0.285,0.838-0.377,1.127-0.275
		c0.288,0.102,0.542,0.339,0.761,0.714C34.151,18.171,34.206,18.528,34.043,18.792z"/>
	<path fill="#4574AC" d="M51.72,9.506c-0.758-0.839-1.702-1.417-2.83-1.737c-1.128-0.319-2.406-0.293-3.838,0.074
		c-1.423,0.396-2.543,1.015-3.361,1.855c-0.817,0.84-1.344,1.813-1.581,2.918c-0.237,1.105-0.197,2.255,0.121,3.448
		c0.321,1.191,0.861,2.208,1.619,3.047c0.758,0.838,1.702,1.417,2.83,1.736s2.407,0.294,3.838-0.073
		c1.424-0.397,2.544-1.015,3.361-1.855c0.818-0.841,1.344-1.813,1.582-2.919c0.237-1.105,0.197-2.255-0.121-3.447
		C53.017,11.361,52.478,10.346,51.72,9.506z M48.902,15.909c-0.15,0.619-0.6,1.04-1.35,1.264c-0.762,0.182-1.362,0.042-1.801-0.419
		c-0.439-0.461-0.761-1.097-0.964-1.909c-0.229-0.804-0.269-1.516-0.12-2.134c0.15-0.62,0.6-1.041,1.35-1.264
		c0.762-0.182,1.362-0.042,1.801,0.42c0.439,0.461,0.761,1.097,0.964,1.909C49.011,14.578,49.051,15.29,48.902,15.909z"/>
	<path fill="#4574AC" d="M62.609,11.033l-2.096-0.42c-0.269-0.061-0.457-0.141-0.56-0.241c-0.104-0.101-0.152-0.22-0.145-0.357
		c-0.022-0.219,0.088-0.407,0.326-0.563c0.237-0.157,0.758-0.232,1.556-0.227c0.478,0.002,1.009,0.036,1.596,0.101
		c0.588,0.066,1.115,0.148,1.581,0.249l0.404-3.288c-0.541-0.103-1.17-0.198-1.885-0.282c-0.717-0.084-1.507-0.136-2.368-0.155
		c-1.098-0.031-2.088,0.074-2.972,0.313c-0.883,0.24-1.59,0.683-2.118,1.329c-0.528,0.646-0.809,1.563-0.842,2.752
		c-0.013,0.466,0.077,0.965,0.269,1.498c0.191,0.532,0.513,1.012,0.964,1.437c0.452,0.425,1.061,0.71,1.828,0.854l1.897,0.308
		c0.245,0.037,0.422,0.108,0.531,0.215c0.108,0.107,0.158,0.277,0.153,0.511c0.007,0.253-0.157,0.43-0.49,0.531
		c-0.334,0.102-0.907,0.143-1.719,0.126c-0.416-0.008-0.863-0.042-1.342-0.101c-0.479-0.059-0.962-0.139-1.449-0.24l-0.48,3.393
		c0.66,0.114,1.391,0.213,2.192,0.296c0.8,0.083,1.646,0.133,2.538,0.151c1.793,0.03,3.147-0.332,4.062-1.084
		c0.915-0.754,1.385-1.891,1.413-3.41c0.017-0.955-0.212-1.758-0.685-2.409C64.295,11.664,63.576,11.236,62.609,11.033z"/>
	<polygon fill="#4574AC" points="82.498,10.589 77.513,9.065 72.537,14.01 72.503,13.999 74.364,8.103 69.987,6.765 66.182,18.835 
		70.558,20.174 72.467,14.12 72.501,14.13 73.603,21.104 78.779,22.688 77.03,15.458 	"/>
	<polygon fill="#4574AC" points="86.105,12.271 79.683,23.178 83.641,25.463 90.063,14.558 	"/>
	<polygon fill="#4574AC" points="90.728,26.786 96.896,20.333 93.552,17.215 84.84,26.396 90.012,31.219 92.597,28.53 	"/>
	<path fill="#4574AC" d="M103.582,38.812c1.538-1.11,2.479-2.204,2.824-3.281c0.343-1.077,0.329-2.106-0.045-3.089
		c-0.372-0.981-0.865-1.884-1.477-2.708l-3.492-4.985l-10.419,7.185l3.772,5.39c0.517,0.779,1.179,1.472,1.981,2.079
		c0.807,0.606,1.773,0.914,2.906,0.923C100.766,40.333,102.082,39.829,103.582,38.812z M98.843,35.779
		c-0.644-0.146-1.219-0.587-1.728-1.32l-0.638-0.912l4.527-3.104l0.786,1.122c0.383,0.533,0.536,1.127,0.458,1.783
		c-0.075,0.657-0.505,1.273-1.285,1.852C100.19,35.732,99.483,35.926,98.843,35.779z"/>
	<polygon fill="#4574AC" points="110.833,50.03 114.044,49.025 110.833,39.145 98.769,42.969 101.972,52.832 105.183,51.827 
		103.357,46.208 104.651,45.807 106.472,51.408 109.579,50.437 107.759,44.835 109.014,44.428 	"/>
	<path fill="#4574AC" d="M100.755,77.545l-5.713-6.809l8.716-4.065l-7.84-5.488c-0.185-1.566-2.542-20.561-8.517-26.727
		c-6.008-6.198-25.862-6.426-27.309-6.434h-0.186c-1.482,0.009-21.308,0.243-27.308,6.434c-6.009,6.2-8.354,25.346-8.518,26.727
		l-7.84,5.488l8.716,4.065l-5.714,6.809l9.454,1.667c0.023,0.045,0.038,0.072,0.061,0.117l-4.177,7.236h9.066
		c0.037,0.041,0.062,0.068,0.099,0.11l-2.533,6.962l8.86-1.563l-0.634,7.256l7.624-3.554l3.101,8.521l5.544-6.607L60,105.125
		l4.293-7.436l5.544,6.607l3.101-8.521l7.624,3.554l-0.636-7.256l8.861,1.563l-2.533-6.962c0.029-0.033,0.07-0.078,0.098-0.11h9.066
		l-4.176-7.236c0.018-0.033,0.043-0.083,0.061-0.117L100.755,77.545z M82.097,42.398c0.604,3.045-0.383,5.889-2.603,6.877
		c-2.734,1.217-6.309-0.841-7.982-4.598c-0.118-0.266-0.224-0.533-0.316-0.8L82.097,42.398z M37.902,42.398l10.903,1.479
		c-0.093,0.267-0.199,0.534-0.318,0.8c-1.673,3.757-5.246,5.815-7.981,4.598C38.285,48.287,37.3,45.443,37.902,42.398z M82.3,80.609
		c-1.517,1.582-8.774,1.451-13.855,1.78C63.364,82.721,60,92.221,60,92.221s-3.365-9.5-8.445-9.831
		c-5.08-0.329-12.337-0.198-13.855-1.78c-1.517-1.584-1.188-8.183,0.726-13.725c1.912-5.537,9.558-20.565,21.553-20.584v-0.001
		h0.008V46.3c0.004,0,0.01,0,0.014,0c12.009,0,19.663,15.043,21.575,20.584C83.487,72.427,83.818,79.025,82.3,80.609z"/>
	<path fill="#4574AC" d="M73.427,65.434C67.092,66.159,60.231,75.266,60,76.122c-0.231-0.856-7.093-9.963-13.427-10.688
		s-8.049,8.313-8.049,11.217c0,2.902,5.212,1.582,9.303,1.318c4.091-0.264,3.233-0.329,6.862,0.529
		C58.317,79.354,60,84.172,60,84.172s1.683-4.817,5.312-5.674c3.628-0.858,2.771-0.793,6.86-0.529
		c4.092,0.264,9.303,1.584,9.303-1.318C81.475,73.747,79.76,64.708,73.427,65.434z"/>
</g>
</svg>
