<?xml version="1.0" encoding="utf-8"?>
<!-- Generator: Adobe Illustrator 13.0.2, SVG Export Plug-In . SVG Version: 6.00 Build 14948)  -->
<!DOCTYPE svg PUBLIC "-//W3C//DTD SVG 1.0//EN" "http://www.w3.org/TR/2001/REC-SVG-20010904/DTD/svg10.dtd">
<svg version="1.0" id="Ebene_1" xmlns="http://www.w3.org/2000/svg" xmlns:xlink="http://www.w3.org/1999/xlink" x="0px" y="0px"
	 width="566px" height="432.3px" viewBox="0 0 566 432.3" enable-background="new 0 0 566 432.3" xml:space="preserve">
<ellipse fill="#C7A200" cx="283" cy="216.149" rx="283" ry="216.149"/>
<path fill="#005EA8" d="M527.667,140.925c-6.805-12.291-15.292-24.04-25.261-35.071v220.605
	c9.977-11.036,18.463-22.795,25.261-35.088c12.936-23.393,19.924-48.648,19.937-75.222
	C547.591,189.577,540.603,164.321,527.667,140.925z"/>
<path fill="#005EA8" d="M18.395,216.149c0.013,26.574,6.999,51.83,19.937,75.222c6.804,12.292,15.291,24.041,25.26,35.073V105.84
	c-9.977,11.035-18.463,22.793-25.26,35.085C25.394,164.321,18.408,189.577,18.395,216.149z"/>
<path fill="#005EA8" d="M242.755,79.068l-0.027,0.067c-0.003,0.008-0.006,0.015-0.009,0.023l-0.014,0.035
	c4.567-11.129,12.848-20,23.073-25.205c-0.012,0.005-0.023,0.011-0.035,0.017l0.064-0.033c-0.01,0.005-0.019,0.01-0.029,0.016
	c9.793-5.025,20.262-6.629,30.357-6.662c0.132-0.003,0.215-0.003,0.263-0.002c0.003,0,0.005,0,0.007,0c0.037,0,0.05,0,0.05,0
	c10.121,0.011,19.395,2.635,27.309,6.788V20.737c-13.28-1.543-26.894-2.346-40.765-2.34c-0.023,0-0.037,0-0.061,0
	c-13.85,0-27.443,0.804-40.705,2.345v59.636c0.159-0.407,0.318-0.814,0.486-1.219L242.755,79.068z"/>
<path fill="#005EA8" d="M317.831,334.23l-0.041-0.037c-1.213-1.12-2.397-2.348-3.522-3.689
	c-2.448,11.599-6.869,23.222-15.394,33.142c-4.473,5.157-10.122,10.075-17.033,14.071c-6.817,3.906-15.513,7.225-25.654,7.259
	h-0.094h-0.057c-4.372-0.033-9.025-0.761-13.803-2.295v28.881c13.28,1.544,26.895,2.347,40.766,2.341
	c13.87,0.002,27.484-0.801,40.765-2.343v-72.843c-1.981-1.251-3.949-2.701-5.859-4.421L317.831,334.23z"/>
<path fill="#005EA8" d="M161.197,74.507c10.072-3.111,20.585-4.448,31.166-4.463c0.117-0.001,0.186-0.001,0.222-0.001
	c0.027,0,0.038,0,0.038,0c0.356,0,0.703,0.012,1.056,0.016V30.003c-21.636,5.824-41.935,13.691-60.471,23.26
	c-7.309,3.769-14.331,7.806-21.061,12.076v54.707c2.394-6.45,5.537-12.433,9.449-17.835
	C131.67,88.199,146.007,79.153,161.197,74.507z"/>
<path fill="#005EA8" d="M172.545,350.089c-0.078,0-0.192,0.002-0.344,0h-0.038l-0.055-0.002l-0.091-0.001
	c-21.776-0.235-41.674-5.695-57.653-17.624c-0.75-0.564-1.489-1.143-2.218-1.732v36.237c23.815,15.108,51.376,27.188,81.531,35.312
	v-54.352c-6.769,1.424-13.836,2.17-21.131,2.162C172.547,350.089,172.545,350.091,172.545,350.089z"/>
<path fill="#005EA8" d="M397.467,352.911c-0.091,0-0.147,0-0.166-0.002c-7.391-0.006-16.032-0.411-24.98-1.304v50.691
	c21.635-5.824,41.935-13.691,60.471-23.261c7.309-3.769,14.33-7.806,21.06-12.075v-31.827c-1.37,1.038-2.771,2.05-4.229,3.009
	C434.987,347.751,417.063,352.922,397.467,352.911z"/>
<path fill="#005EA8" d="M427.791,91.247c8.947,2.755,17.848,6.813,25.612,13.251c0.151,0.126,0.298,0.258,0.447,0.386V65.331
	c-23.815-15.108-51.376-27.188-81.53-35.31V89.41c9.854-1.443,19.468-2.349,27.373-2.382
	C409.174,87.043,418.708,88.499,427.791,91.247z"/>
<path fill="#FFFFFF" d="M471.943,77.927c-5.753-4.4-11.795-8.602-18.093-12.597v39.554c-0.149-0.127-0.296-0.259-0.447-0.386
	c-7.765-6.439-16.665-10.497-25.612-13.251c-9.083-2.748-18.617-4.204-28.098-4.219c-7.905,0.033-17.52,0.938-27.373,2.382V30.021
	c-15.55-4.188-31.782-7.334-48.557-9.284v33.375c-7.914-4.152-17.188-6.776-27.309-6.788c0,0-0.013,0-0.05,0
	c-0.002,0-0.004,0-0.007,0c-0.048-0.001-0.131-0.001-0.263,0.002c-10.096,0.033-20.564,1.637-30.357,6.662
	c-10.225,5.206-18.506,14.076-23.073,25.205l0.014-0.035c-0.168,0.404-0.327,0.812-0.486,1.219V20.741
	c-16.77,1.949-33.008,5.077-48.555,9.262v40.055c-0.353-0.004-0.7-0.017-1.056-0.016c0,0-0.011,0-0.038,0
	c-0.036,0-0.104,0-0.222,0.001c-10.581,0.015-21.094,1.353-31.166,4.463c-15.19,4.646-29.527,13.691-39.602,27.703
	c-3.912,5.402-7.055,11.385-9.449,17.835V65.339c-18.644,11.83-34.985,25.492-48.555,40.501v220.604
	c8.985,9.942,19.17,19.303,30.463,27.926c5.753,4.4,11.795,8.602,18.092,12.597v-36.237c0.729,0.59,1.467,1.168,2.218,1.732
	c15.979,11.929,35.877,17.389,57.653,17.624l0.091,0.001l0.055,0.002h0.038c0.152,0.002,0.266,0,0.344,0c0,0.002,0.001,0,0.001,0
	c7.295,0.008,14.362-0.738,21.131-2.162v54.352c15.549,4.188,31.781,7.334,48.555,9.283v-28.881
	c4.778,1.534,9.431,2.262,13.803,2.295h0.057h0.094c10.142-0.034,18.837-3.353,25.654-7.259c6.911-3.996,12.561-8.914,17.033-14.071
	c8.524-9.92,12.945-21.543,15.394-33.142c1.125,1.342,2.31,2.569,3.522,3.689l0.041,0.037l0.073,0.065
	c1.91,1.72,3.878,3.17,5.859,4.421v72.843c16.771-1.948,33.009-5.078,48.557-9.263v-50.691c8.948,0.893,17.59,1.298,24.98,1.304
	c0.019,0.002,0.075,0.002,0.166,0.002c19.596,0.011,37.521-5.16,52.155-14.769c1.458-0.959,2.858-1.971,4.229-3.009v31.827
	c18.645-11.83,34.985-25.492,48.556-40.502V105.854C493.422,95.912,483.236,86.551,471.943,77.927z"/>
<path fill="#FFFFFF" d="M265.743,54.005c0.012-0.006,0.023-0.012,0.035-0.017c0.01-0.005,0.019-0.011,0.029-0.016L265.743,54.005z"
	/>
<path fill="#FFFFFF" d="M242.755,79.068l-0.036,0.09c0.003-0.008,0.006-0.015,0.009-0.023L242.755,79.068z"/>
<path fill="#005EA8" d="M467.78,212.942c-3.933-5.554-8.721-10.252-14.104-13.923c5.786-8.422,11.341-21.362,11.311-38.406
	c-0.002-9.901-1.419-18.894-4.556-26.917c-3.116-8.011-8.059-14.974-14.445-20.292c-6.196-5.147-13.651-8.636-21.599-11.077
	c-7.954-2.41-16.419-3.699-24.706-3.709c-9.254,0.024-22.342,1.508-34.818,3.743c-6.22,1.126-12.2,2.438-17.436,3.948
	c-1.124,0.325-2.207,0.662-3.265,1.01c0.121-1.188,0.204-2.388,0.208-3.61c-0.015-5.57-1.419-10.919-3.729-15.968
	c-3.494-7.553-9.102-14.533-16.597-19.887c-7.469-5.331-17.015-8.95-27.687-8.939c-9,0.011-17.603,1.429-25.312,5.396
	c-7.709,3.908-14.119,10.728-17.615,19.272c-2.342,5.636-3.797,11.804-4.779,18.699c-1.384-1.409-2.854-2.737-4.408-3.965
	c-5.028-3.962-10.873-7.09-17.307-9.591c-9.162-3.566-20.492-7.112-34.424-7.093c-9.662,0.003-19.071,1.221-27.895,3.947
	c-13.205,4.051-25.219,11.726-33.615,23.397c-8.429,11.649-12.943,26.835-12.917,44.767c0.01,9.447,1.122,17.449,2.158,22.874
	c-8.067,7.192-15.804,15.421-21.91,25.652c-7.493,12.493-12.201,27.938-12.16,46.569c0.021,14.56,3.821,29.129,9.957,42.095
	c6.183,12.949,14.652,24.361,25.184,32.254c13.586,10.136,30.839,15.076,50.838,15.311l0.108,0.001h0.046
	c0.078,0.001,0.159,0.001,0.236,0.001c21.528,0.001,40.325-7.147,54.665-19.334c3.661-3.107,7.217-6.68,10.57-10.576
	c-2.549,6.791-5.167,12.39-7.42,18.082c-2.254,5.747-4.263,11.892-4.275,19.032c-0.029,5.509,1.523,10.821,4.297,14.985
	c3.779,5.622,8.855,8.462,13.298,10.229c4.556,1.729,8.624,2.431,12.469,2.468c7.596-0.024,14.301-2.504,19.936-5.729
	c5.651-3.265,10.34-7.344,14.032-11.603c7.425-8.632,11.259-19.257,13.354-30.696c2.088-11.499,2.535-24.133,2.546-38.05
	c-0.002-15.888-1.017-31.122-2.016-43.505c-0.5-6.188-0.998-11.664-1.361-16.087c-0.368-4.389-0.588-7.858-0.578-9.403
	c-0.005-3.14,0.384-5.281,0.789-6.526c0.693-1.894,0.902-1.73,1.143-1.964c0.263-0.181,1.333-0.608,3.466-0.616
	c0.201,0.014,0.811,0.067,1.549,0.127c0.871,0.068,1.963,0.147,3.263,0.149c4.495,0.02,8.635-1.551,11.689-3.644
	c3.469-2.39,5.854-5.238,7.628-8.132c0.239,4.354,0.37,7.992,0.366,10.456c0.018,19.887-3.481,43.457-7.05,62.249
	c-1.779,9.412-3.564,17.649-4.914,23.782c-0.678,3.071-1.243,5.608-1.662,7.58c-0.211,0.99-0.383,1.832-0.526,2.617
	c-0.071,0.397-0.136,0.778-0.2,1.227c-0.057,0.481-0.138,0.909-0.149,2.037c-0.011,3.501,0.795,7.044,2.288,10.134
	c1.482,3.104,3.574,5.73,5.909,7.885c4.656,4.181,9.82,6.338,15.526,8.28c8.541,2.793,18.455,4.532,28.388,5.699
	c9.916,1.149,19.747,1.663,27.787,1.666c0.039,0,0.077,0.001,0.116,0.001c17.586,0,33.191-4.6,45.8-12.869
	c12.554-8.244,21.557-20.419,27.542-33.646c5.973-13.269,9-27.722,9.018-41.479C479.837,237.573,475.406,223.678,467.78,212.942z
	 M182.925,147.894c2.063-1.765,5.724-3.427,11.521-3.439c2.771,0.022,4.449,0.434,6.346,1.156c1.878,0.729,4.013,1.95,6.883,3.665
	c3.301,1.949,6.976,4.285,11.234,6.34c1.835,0.872,3.813,1.718,5.954,2.4c-3.905,1.301-8.197,3.477-11.846,7.239
	c-1.831,1.886-3.779,4.364-5.274,7.542c-0.058,0.121-0.108,0.25-0.164,0.372c-0.965-1.029-2.017-1.968-3.155-2.798
	c-3.8-2.735-7.4-3.91-10.284-4.87c-2.912-0.929-5.241-1.616-6.941-2.384c-1.121-0.451-3.533-2.128-5.017-4.015
	c-0.767-0.938-1.348-1.906-1.693-2.754c-0.351-0.855-0.483-1.561-0.485-2.233C180.063,151.534,180.88,149.725,182.925,147.894z
	 M246.063,231.211c-8.192-7.3-19.224-11.604-31.199-11.61c-4.966-0.004-9.681,1.001-13.807,2.854
	c-6.215,2.776-10.948,7.373-13.986,12.472c-3.047,5.123-4.567,10.752-4.583,16.408c-0.003,1.847,0.241,3.492,0.489,4.749
	c0.391,1.913,0.698,2.979,0.892,4.09c0.198,1.106,0.36,2.342,0.366,4.405c-0.014,1.815-0.34,2.685-0.641,3.271
	c-0.458,0.809-1.143,1.609-3.384,2.563c-2.181,0.906-5.714,1.565-9.922,1.551c-3.656-0.015-6.485-0.811-9.035-2.194
	c-3.774-2.071-7.15-5.769-9.708-11.364c-2.541-5.554-4.08-12.868-4.07-21.022c-0.011-6.41,2.728-12.384,7.03-16.793
	c4.294-4.419,9.92-6.857,14.739-6.813c2.166,0.001,3.415,0.159,4.27,0.319c0.65,0.125,1.112,0.253,1.783,0.471
	c0.971,0.301,2.601,0.963,5.044,1.573c2.431,0.606,5.397,0.987,8.77,0.977c4.159,0.005,8.162-1.042,11.627-2.874
	c2.689-1.41,5.008-3.347,6.796-5.463c1.715-2.02,2.969-4.17,3.924-6.28c0.494,0.579,1.005,1.133,1.537,1.649
	c3.579,3.476,7.734,5.508,11.718,6.722c4.008,1.208,7.944,1.642,11.674,1.648c3.139-0.034,4.867-0.303,6.254-0.276
	c1.318,0.063,1.491,0.224,2.071,0.683c0.536,0.491,1.569,1.844,2.223,4.972c0.668,3.095,1.081,8.191,1.252,15.352
	C247.5,232.548,246.797,231.861,246.063,231.211z M328.044,162.662c-2.922-2.562-6.419-4.013-9.31-4.615
	c-2.922-0.626-5.296-0.627-7.119-0.64c-0.77,0.001-1.437,0.009-2.005,0.009c-0.061,0-0.096,0-0.113,0v0.001
	c-0.467,0.003-1.301-0.1-2.048-0.341c-1.18-0.377-2.024-0.941-2.56-1.624c-0.51-0.714-1.215-1.745-1.266-5.019
	c-0.001-0.059,0.007-0.29,0.036-0.941c0.025-0.636,0.056-1.552,0.056-2.738c-0.023-4.891-0.483-9.327-0.61-13.491
	c1.089,0.994,2.313,1.897,3.667,2.662c2.909,1.661,6.398,2.567,9.821,2.552c3.095-0.009,5.901-0.719,8.375-1.803
	c0.532,2.983,1.183,5.83,1.498,8.15c0.794,5.626,1.559,11.969,2.252,18.457C328.495,163.071,328.273,162.859,328.044,162.662z
	 M393.029,149.422c10.577,0,13.704,4.813,13.704,10.762c0,7.728-5.513,13.981-12.325,13.981c-2.688,0-6.746-0.352-6.836-2.013
	l-1.012-18.468C386.349,149.821,389.453,149.422,393.029,149.422z M397.536,276.14c-3.078,0-10.616-0.631-10.527-2.578l1.33-29.002
	c0.088-1.932,3.312-2.452,8.646-2.452c12.019,0,16.065,3.985,16.065,15.514C413.05,267.857,407.593,276.14,397.536,276.14z"/>
<path fill="#FFFFFF" d="M434.39,202.801c0,0,19.009-12.632,19.009-42.188c0-17.596-5.07-30.137-14.85-38.323
	c-9.033-7.561-24.763-12.082-38.866-12.082c-16.028,0-51.537,5.655-59.359,11.494c-3.242,2.419-4.41,5.795-4.41,9.085
	c0,2.722,1.371,7.751,2.029,12.418c3.067,21.737,5.603,52.881,5.603,64.958c0,42.352-14.503,96.229-14.503,99.493
	c0,3.685,1.582,6.836,4.473,9.505c9.808,9.059,43.725,12.57,63.837,12.57c15.668,0,28.92-4.009,39.571-10.978
	c20.446-13.377,31.314-41.389,31.314-65.426C468.237,226.103,453.098,207.584,434.39,202.801z M374.959,153.319
	c0-1.421,0.17-2.982,0.649-4.6c0.471-1.613,1.28-3.27,2.361-4.688c2.193-2.905,5.14-4.453,7.328-5.162
	c1.499-0.494,2.784-0.711,3.912-0.846c1.501-0.172,2.742-0.189,3.819-0.192c3.955,0.006,7.646,0.485,11.169,1.743
	c3.501,1.234,6.844,3.406,9.258,6.315c1.616,1.921,2.788,4.091,3.541,6.215c1.009,2.847,1.322,5.583,1.326,8.078
	c-0.007,6.629-2.349,12.827-6.506,17.552c-4.095,4.702-10.353,8.018-17.36,8.018c-0.016,0-0.032,0-0.049,0
	c-1.217-0.001-2.607-0.046-4.178-0.218c-1.595-0.201-3.284-0.411-5.677-1.334c-1.557-0.683-3.757-1.59-6.087-4.589
	c-1.289-1.686-2.357-4.258-2.468-6.827l-1.01-18.437C374.973,154.06,374.959,153.72,374.959,153.319z M421.141,273.194
	c-2.416,4.855-6.464,9.304-11.871,11.912c-3.561,1.742-7.599,2.623-11.681,2.623c-0.018,0-0.036,0-0.054,0
	c-1.405-0.004-3.019-0.079-4.84-0.251c-1.825-0.183-3.753-0.43-5.926-0.979c-1.479-0.418-3.023-0.792-5.367-2.237
	c-1.299-0.872-3.133-2.188-4.662-5.109c-0.782-1.521-1.327-3.521-1.324-5.515c0-0.078,0-0.221,0.007-0.436
	c0.002-0.053,0.005-0.11,0.008-0.173l1.33-29.002c0.071-1.831,0.601-3.881,1.546-5.615c0.937-1.746,2.201-3.118,3.399-4.078
	c2.45-1.915,4.485-2.513,6.171-2.97c3.359-0.794,6.022-0.815,9.107-0.849c4.095,0.014,7.944,0.335,11.885,1.583
	c3.894,1.201,7.989,3.725,10.731,7.38c1.839,2.4,3.041,5.08,3.775,7.683c0.982,3.495,1.254,6.902,1.264,10.457
	C424.63,262.995,423.591,268.312,421.141,273.194z"/>
<path fill="#FFFFFF" d="M202.815,191.365c0,3.219-1.004,4.296-1.822,6.158c-1.224,2.787-2.996,5.064-5.659,6.468
	c-1.867,0.984-3.982,1.539-6.224,1.539c-9.29,0-8.886-3.342-19.867-3.342c-16.924,0-33.358,15.743-33.358,35.198
	c0,25.519,12.507,46.169,34.404,46.169c14.115,0,25.536-5.313,25.536-18.975c0-7.32-1.748-9.75-1.748-13.245
	c0-9.29,6.99-20.144,20.787-20.144c18.354,0,33.205,13.247,33.205,29.618c0,15.521-14.353,37.687-28.339,49.507
	c-12.388,10.47-28.263,16.595-47.422,16.595c-18.285-0.243-32.809-4.636-44.071-13.02c-17.065-12.703-30.472-40.082-30.472-65.052
	c0-33.53,16.29-52.17,35.341-67.993c0,0-3.429-11.519-3.429-27.102c0-42.863,28.104-60.522,62.837-60.522
	c11.998,0,21.596,2.96,30.233,6.31c14.87,5.766,24.586,14.986,24.586,26.435c0,5.626-1.637,10.484-3.192,14.191
	c-2.055,4.9-5.144,7.792-9.96,7.792c-6.807,0-13.685-4.542-20.59-8.641c-5.68-3.371-10.775-6.443-19.146-6.443
	c-16.096,0-26.03,9.503-26.03,21.247c0,9.382,8.08,16.932,14.083,19.597c5.396,2.396,11.102,3.107,15.092,6.021
	C200.54,181.884,202.815,185.938,202.815,191.365"/>
<path fill="#FFFFFF" d="M259.868,242.693c0-12.523-0.338-21.114-1.583-27.139c-2.019-9.773-7.917-14.9-15.643-14.9
	c-2.346,0-4.231,0.276-6.255,0.276c-7.404,0-15.514-2.441-18.283-9.591c-0.796-2.055-1.231-4.5-1.231-7.387
	c0-4.829,2.131-8.224,4.465-10.631c4.239-4.373,10.585-5.481,16.1-5.993c7.975-0.738,16.75-1.609,19.825-11.877
	c0.982-3.279,0.992-7.516,0.992-13.013c0-25.457,1.102-42.998,5.866-54.381c5.222-12.474,16.708-17.554,32.236-17.554
	c21.494,0,36.424,19.132,36.424,33.205c0,10.946-8.094,23.179-16.188,23.179c-6.162,0-9.75-6.006-9.75-13.429
	c0-5.703,1.472-6.163,1.472-10.026c0-3.025-2.447-5.473-5.473-5.473c-8.048,0-11.359,16.51-11.359,33.066
	c0,5.672,0.645,10.983,0.645,15.729c0,2.034-0.093,2.75-0.093,3.679c0,14.441,10.819,18.565,17.477,18.573
	c3.944,0.005,7.806-0.3,10.92,2.393c2.532,2.208,4.164,5.666,4.164,11.411c0,4.967-4.553,15.084-12.325,15.084
	c-1.793,0-3.725-0.276-4.69-0.276c-9.457,0-17.108,4.507-17.108,20.695c0,9.26,3.956,38.202,3.956,68.995
	c0,27.282-1.925,48.236-13.086,61.177c-5.682,6.588-15.336,13.312-25.192,13.312c-4.216,0-12.474-1.988-16.084-7.476
	c-1.479-2.249-2.389-5.087-2.389-8.616C237.676,326.244,259.868,310.414,259.868,242.693z"/>
<path fill="#005EA8" d="M189.938,109.089c9.916,0,20.704,6.22,25.834,9.848c7.418,5.246,8.953,10.158,13.687,10.158
	c3.084,0,5.58-2.522,5.58-5.641c0-2.903-3.164-5.836-7.342-9.491c-2.975-2.602-6.783-5.251-11.332-7.515
	c-7.118-3.543-16.048-6.143-26.427-6.143c-4.139,0-6.623,1.892-6.623,4.231C183.316,107.48,185.799,109.089,189.938,109.089z"/>
<path fill="#005EA8" d="M146.616,145.958c0-10.485,2.146-12.938,2.146-17.967c0-2.33-1.399-3.556-3.127-3.556
	c-3.25,0-5.506,4.328-7.021,11.105c-1.171,5.241-2.3,12.348-2.3,19.248c0,8.155,0.245,16.495,6.806,16.495
	c3.119,0,5.642-2.605,5.642-5.826C148.763,163.618,146.616,157.364,146.616,145.958"/>
<path fill="#005EA8" d="M113.367,270.914c3.142,0,3.636,4.639,5.846,7.915c3.917,5.81,9.236,13.224,19.058,20.118
	c6.982,4.9,16.24,8.465,28.888,8.465c13.858,0,26.189-5.177,34.185-10.65c8.968-6.139,14.248-12.651,17.814-12.651
	c3.05,0,5.519,2.551,5.519,5.703c0,0.785-0.212,1.672-0.622,2.633c-0.671,1.574-9.257,10.284-21.618,17.277
	c-9.614,5.438-20.707,9.032-33.745,9.032c-19.173,0-32.289-7.587-41.87-17.865c-7.364-7.899-16.971-22.299-16.971-26.246
	C109.85,272.582,111.423,270.914,113.367,270.914z"/>
<path fill="#005EA8" d="M223.327,187.349c0-3.152,2.551-5.703,5.703-5.703c2.943,0,11.467,4.967,18.58,4.967
	c3.017,0,5.458,1.655,5.458,4.354c0,3.127-3.017,4.415-6.745,4.415c-5.212,0-10.74-0.452-14.449-1.141
	C226.308,193.207,223.327,191.25,223.327,187.349z"/>
<path fill="#005EA8" d="M262.97,153.776c0-10.671,1.177-30.376,2.053-41.456c0.969-12.251,1.674-20.108,5.765-20.108
	c1.958,0,3.542,1.702,3.542,4.553c0,2.392-0.874,0.92-0.874,11.958c0,21.846,1.012,32.413,1.012,45.054
	c0,3.237-2.633,5.856-5.887,5.856C265.479,159.632,262.97,157.013,262.97,153.776z"/>
<path fill="#005EA8" d="M271.34,207.4c2.575,0,4.331,1.436,5.01,3.269c0.632,1.705,0.632,3.047,0.632,9.609
	c0,12.329-0.314,23.905-0.891,34.271c-0.742,13.336-1.668,25.13-3.038,33.728c-1.446,9.083-1.713,14.6-6.128,14.6
	c-2.339,0-4.231-2.551-4.231-5.703c0-1.337,1.908-8.893,2.621-21.292c0.486-8.462,0.813-18.955,0.813-30.584
	c0-16.438-0.674-26.307-0.674-29.74C265.454,209.423,267.906,207.4,271.34,207.4z"/>
<path fill="#005EA8" d="M434.88,275.219c-3.22,0-5.825-2.605-5.825-5.824c0-2.515,2.269-3.803,2.269-13.062
	c0-10.24-2.82-13.245-2.82-15.515c0-2.271,1.81-4.107,4.047-4.107c3.495,0,5.401,5.606,7.268,12.023
	c1.281,4.405,2.114,9.191,2.114,12.811C441.932,269.104,439.97,275.219,434.88,275.219z"/>
<path fill="#005EA8" d="M412.938,227.032c-2.438,0-4.35-2.675-16.199-2.675c-3.873,0-12.106,0.248-17.175,2.345
	c-2.18,0.901-3.291,3.069-4.269,5.553c-0.969,2.462-1.126,4.976-1.93,6.92c-0.769,1.858-2.129,3.469-5.355,3.469
	c-3.102,0-5.611-2.552-5.611-5.703c0-2.621,1.289-6.574,2.318-9.212c1.831-4.695,4.374-8.01,7.105-9.907
	c4.4-3.055,14.492-3.308,17.803-3.308c13.245,0,22.771,2.669,25.607,4.757c1.29,0.948,1.719,2.082,1.719,3.51
	C416.952,225.131,415.157,227.032,412.938,227.032z"/>
<path fill="#005EA8" d="M433.775,306.992c0-2.101-1.642-3.801-3.67-3.801c-3.468,0-6.355,6.274-39.101,6.274
	c-15.728,0-37.86-2.105-39.655-7.792c-0.285-0.904-0.416-1.911-0.416-3.03c0-10.67,5.457-21.462,5.457-23.854
	c0-3.151-2.495-5.703-5.58-5.703c-1.294,0-2.385,0.34-3.322,0.993c-4.437,3.087-8.267,22.186-8.267,27.46
	c0,3.216,0.526,5.993,1.515,8.387c4.846,11.743,29.818,14.535,43.032,14.535c14.559,0,31.022-2.86,40.952-6.633
	C430.267,311.722,433.775,309.926,433.775,306.992z"/>
<path fill="#005EA8" d="M359.518,179.193c0-7.849-3.617-34.094-3.617-38.018c0-3.618,0.46-6.264,2.269-7.297
	c3.005-1.717,17.415-6.745,20.971-7.113c3.017-0.43,5.458-1.838,5.458-4.109c0-2.271-3.318-4.108-7.42-4.108
	c-2.269,0-15.826,2.559-21.163,4.613c-3.104,1.195-5.089,2.923-6.308,4.523c-1.731,2.273-5.212,7.91-5.212,14.778
	c0,2.575,3.556,32.315,3.556,35.381c0,5.151,2.66,7.052,5.948,7.052C357.049,184.896,359.518,182.345,359.518,179.193z"/>
<path fill="#005EA8" d="M426.464,171.176c1.371,0,2.409-0.5,3.193-1.558c1.368-1.849,2.325-14.4,2.325-19.229
	c0-6.646-0.869-11-2.845-14.315c-3.48-5.839-12.591-10.657-17.989-10.657c-3.118,0-5.642,2.578-5.642,5.764
	c0,1.835,0.843,3.046,1.613,3.876c1.81,1.95,4.641,1.797,6.626,2.69c0.834,0.375,1.644,0.77,2.4,1.272
	c4.009,2.659,7.098,6.79,7.098,19.832c0,4.779-0.644,7.864-0.644,8.646C422.601,169.796,424.328,171.176,426.464,171.176z"/>
</svg>
