<?xml version="1.0" encoding="iso-8859-1"?>
<!-- Generator: Adobe Illustrator 15.0.0, SVG Export Plug-In . SVG Version: 6.00 Build 0)  -->
<!DOCTYPE svg PUBLIC "-//W3C//DTD SVG 1.1//EN" "http://www.w3.org/Graphics/SVG/1.1/DTD/svg11.dtd">
<svg version="1.1" id="Ebene_1" xmlns="http://www.w3.org/2000/svg" xmlns:xlink="http://www.w3.org/1999/xlink" x="0px" y="0px"
	 width="571.18px" height="571.18px" viewBox="0 0 571.18 571.18" style="enable-background:new 0 0 571.18 571.18;"
	 xml:space="preserve">
<circle style="fill:#244A9A;" cx="285.333" cy="285.61" r="283"/>
<circle style="fill:#FFED00;" cx="285.334" cy="285.61" r="274.511"/>
<path style="fill:#244A9A;" d="M278.565,549.263c0,0-11.388,0.645-14.611-10.314c0,0-12.033,0-20.843,3.224
	c0,0-5.587,2.041-12.248,2.041c0,0-13.322-0.322-13.322-10.744v-8.165c0,0-15.847-0.215-22.562,5.05c0,0-5.372,5.157-16.76,5.157
	c0,0,1.612-27.074,1.612-56.62c0,0,6.661-0.752,21.595,13.752c0,0,7.521,6.769,12.141,6.769c0,0,6.876,0.107,12.678-8.487
	c0,0,11.066,3.331,16.868,3.331c0,0,9.025-0.431,21.166-5.157c0,0,10.099-3.653,16.975-3.653c0,0-3.116-1.396-3.331-5.802
	c0,0,0.215-10.421,15.472-10.421c0,0,9.239,0.215,21.702,10.958c0,0,5.64,5.479,37.817,8.918c0,0,23.529,2.148,41.042,8.702
	c0,0,7.735,2.148,7.735,11.926c0,0-3.76-1.611-6.554-1.611c0,0-2.148-0.107-2.148,1.719c0,0-0.107,1.611,2.363,1.611h4.405
	c0,0,1.826-0.107,1.826,1.396c0,0,0.215,6.876-7.091,10.529c0,0-37.28,19.554-63.926,20.843c0,0-15.148,1.235-32.983,0
	c0,0-6.93-0.698-9.455,1.826C288.127,546.039,285.334,549.263,278.565,549.263z"/>
<path style="fill:#FFED00;" d="M322.58,521.83c0,0-0.146,3.295,7.878,3.295c0,0,12.749-0.142,12.749-4.584c0,0,0.43-5.73-3.583-5.73
	c0,0-2.236,0.143-3.579,3.009C336.045,517.819,332.752,521.83,322.58,521.83z"/>
<path style="fill:#FFED00;" d="M335.326,533.863c0,0,6.017,0.141,6.017-3.151c0,0,0.431-3.868-3.868-3.868
	c0,0-4.867,0.144-6.301,4.44C331.174,531.284,330.082,533.863,335.326,533.863z"/>
<path style="fill:#FFED00;" d="M184.987,528.635c0,0,2.579-1.504,2.579-4.298c0,0,0.215-1.611-2.579-3.652
	c0,0-5.479-2.901,1.719-18.05c0,0,1.235-2.418,0-4.298c0,0-0.967-2.256,0.859-4.082c0,0,3.008-3.438-0.859-6.661
	c0,0,15.471,13.752,31.372,13.752c0,0,11.604,0,11.604-6.876c0,0,13.107,3.438,15.901,3.438c0,0,7.521-0.215,16.116-4.083
	c0,0,11.657-5.156,26.214-6.23c0,0-4.941-1.505-4.941-7.951c0,0,0.215-7.521,8.81-7.521c0,0,7.95-0.645,17.405,8.165
	c0,0,7.091,7.736,39.322,10.314c0,0,18.909,1.934,34.596,6.661c0,0,7.734,2.148,7.734,5.157c0,0,1.397,7.95-23.851,15.471
	c0,0-1.505,0.43-1.505,2.471c0,0-0.107,2.149,4.19,1.397c0,0,9.67-1.505,15.794-3.761c0,0,3.33-1.289,7.091-1.289
	c0,0,2.041,0,2.041,0.752c0,0,0.322,0.161-1.934,1.396c0,0-13.646,8.058-24.281,8.058c0,0-15.794,0-15.794-17.189
	c0,0,0.215,10.313-2.793,10.313c0,0-3.223,0.107-3.223-8.058c0,0-0.107-9.347,3.438-12.463c0,0-5.264-0.107-7.198,6.661
	c0,0-1.074,3.546-3.009,3.546c0,0-1.719,0.215-1.719-1.934c0,0,0-2.149,0.859-3.546c0,0,0.967-1.289,0.967-3.33
	c0,0,0-1.397-1.934-1.397c0,0-1.289,0.215-1.719,0.645c0,0-1.074,1.505-3.438,0c0,0-0.537-0.859-4.405-0.859
	c0,0-14.505,0.107-14.505,8.703h7.414c0,0,1.396,0.645,0,1.719H309.83c0,0-6.231,0-6.231,5.157c0,0,1.827-1.72,5.265-1.72h11.604
	c0,0,1.934-0.107,1.934,1.72c0,0,0.322,1.826-1.934,1.826h-2.794c0,0-4.19-0.322-6.339,3.33c0,0-0.43,0.753,0,1.827
	c0,0,0.537,1.719,3.868,1.719c0,0,2.041-0.107,2.041,1.719c0,0,0.107,1.289-1.074,2.901c0,0-0.645,0.967,0,2.148
	c0,0,5.587,6.876,12.463,6.876c0,0,8.702,0.215,19.661-5.05c0,0-2.363,8.488-24.174,8.488h-6.124c0,0-3.224-0.107-5.802,0.967
	c0,0-1.289,0.752-3.438,0.752c0,0-2.471,0-3.546-0.752c0,0-3.976-2.687-8.165-2.687c0,0-3.33-0.107-7.306,2.472
	c0,0-1.343,1.021-3.331,0c0,0-15.686-7.628-30.19-7.628c0,0-7.091-0.107-16.223,5.156c0,0-4.62,3.331-9.025,3.331
	c0,0-3.008,0-3.008-3.438c0,0-0.322-8.38,5.265-8.38h4.62c0,0,2.148,0,2.148-1.719c0,0-0.054-1.128-1.934-1.827
	c0,0-16.761-6.769-24.711-6.769c0,0-2.579-0.215-4.297,0.753c0,0-1.236,0.859-2.686,0.859c0,0-7.628-0.107-7.628-8.488
	c0,0,0.161-2.363,0.967-3.438c0,0,1.182-1.343,1.182-3.224c0,0,0.215-3.652-2.256-3.652c0,0-3.331-0.107-3.331,3.545
	c0,0-0.161,10.153,1.934,13.215c0,0,1.396,2.364,1.396,3.116c0,0,0.538,2.363-2.363,2.363c0,0-1.88-0.215-6.231,2.579
	C190.037,527.775,189.338,528.635,184.987,528.635z M371.93,509.797c0,0,7.231-0.215,7.231-3.295c0,0,0.36-3.438-4.438-3.438
	c0,0-4.156,0.002-4.156,2.005C370.566,505.069,370.496,509.797,371.93,509.797z"/>
<path style="fill:#244A9A;" d="M285.479,466.105c0,0-17.189,1.289-42.259-8.595c0,0-25.928-9.024-42.976-9.455l-10.892,0.144
	c-11.171,0-22.487,4.728-33.803,4.728c0,0-36.53,1.575-56.727-15.471v-72.771c0,0,41.114-50.997,186.656-49.852
	c145.542-1.146,186.654,49.852,186.654,49.852v72.771c-20.627,17.762-56.727,15.471-56.727,15.471
	c-11.174,0-21.918-4.728-35.521-4.728l-9.173-0.144c-17.047,0.431-42.976,9.455-42.976,9.455
	C302.665,467.395,285.479,466.105,285.479,466.105z M285.046,329.447c0,0,0.106,0,0.288,0.001c0.182-0.001,0.289-0.001,0.289-0.001
	H285.046z M451.219,432.155v0.103C451.223,432.193,451.219,432.155,451.219,432.155z M119.45,432.258v-0.103
	C119.45,432.155,119.446,432.193,119.45,432.258z M358.967,335.297v37.007c5.2,0.808,10.167,1.685,14.896,2.612v-37.183
	C368.86,336.824,363.878,336.017,358.967,335.297z M319.142,330.973v37.054c5.126,0.326,10.095,0.721,14.896,1.18v-36.95
	C328.8,331.739,323.804,331.316,319.142,330.973z M397.645,342.878v37.604c5.393,1.482,10.361,3.007,14.896,4.532v-37.858
	C407.699,345.597,402.715,344.174,397.645,342.878z M436.607,356.844v37.822c10.146,4.866,14.898,8.409,14.898,8.409l-0.287-37.245
	C446.893,362.546,441.971,359.561,436.607,356.844z M285.334,329.448c-0.811,0.006-3.397,0.032-7.392,0.146v37.436
	c2.437-0.032,4.893-0.054,7.392-0.054s4.955,0.021,7.393,0.054v-37.436C288.732,329.48,286.146,329.454,285.334,329.448z
	 M196.805,337.733v37.183c4.73-0.93,9.695-1.805,14.898-2.612v-37.007C206.791,336.017,201.807,336.824,196.805,337.733z
	 M236.631,332.256v36.95c4.804-0.459,9.771-0.854,14.898-1.18v-37.054C246.867,331.316,241.871,331.739,236.631,332.256z
	 M158.127,347.155v37.858c4.537-1.525,9.506-3.05,14.898-4.532v-37.604C167.955,344.174,162.969,345.597,158.127,347.155z
	 M119.451,365.83l-0.287,37.245c0,0,4.753-3.544,14.898-8.409v-37.822C128.7,359.561,123.778,362.546,119.451,365.83z
	 M339.912,409.809c-4.969,1.877-10.987,3.239-17.189,4.234V445.4c2.16-0.733,3.438-1.212,3.438-1.212
	c15.109-5.316,30.58-7.353,39.537-8.127v-33.784C352.924,404.194,339.912,409.809,339.912,409.809z M381.169,402.458v33.462
	c4.634,0.383,7.735,0.963,7.735,0.963c17.62,3.867,30.083,2.578,30.083,2.578c0.443,0,0.857-0.007,1.289-0.009v-25.028
	C403.309,406.77,389.314,403.687,381.169,402.458z M451.219,432.258v-0.103c-5.734-4.038-11.342-7.522-16.76-10.563v17.17
	C450.297,437.093,451.183,432.952,451.219,432.258z M285.334,453.213c5.479,0,13.623-1.381,18.05-2.172v-34.639
	c-7.597,0.345-18.05,0.282-18.05,0.282s-10.452,0.063-18.049-0.282v34.639C271.713,451.832,279.855,453.213,285.334,453.213z
	 M230.755,409.809c0,0-13.009-5.614-25.785-7.531v33.784c8.958,0.774,24.427,2.811,39.538,8.127c0,0,1.279,0.479,3.438,1.212
	v-31.357C241.745,413.048,235.725,411.686,230.755,409.809z M150.392,414.424v25.028c0.431,0.002,0.845,0.009,1.29,0.009
	c0,0,12.463,1.289,30.083-2.578c0,0,3.103-0.58,7.735-0.963v-33.462C181.354,403.687,167.361,406.77,150.392,414.424z
	 M119.45,432.155v0.103c0.035,0.694,0.921,4.835,16.76,6.505v-17.17C130.789,424.633,125.182,428.117,119.45,432.155z
	 M322.508,395.374c3.357-0.973,6.278-2.161,8.38-3.615c0,0-2.144-1.289-8.38-2.628V395.374z M306.822,398.311v-11.343
	c-5.805-0.48-12.875-0.796-21.488-0.796c-8.612,0-15.685,0.315-21.487,0.796v11.343c11.168,1.331,21.487,1.398,21.487,1.398
	S295.652,399.642,306.822,398.311z M248.161,389.131c-6.237,1.339-8.38,2.628-8.38,2.628c2.1,1.454,5.023,2.643,8.38,3.615V389.131z
	"/>
<path style="fill:#244A9A;" d="M285.334,28.619c0,0,30.942,0.43,48.563,9.025c0,0,3.867,1.862,3.867,7.306
	c0,0,0.717,8.022-8.595,34.81c0,0-16.761,50.066-16.761,104.43c0,0,1.289,44.265,15.041,101.852c0,0,2.149,7.306,2.149,12.463
	c0,0,0.859,9.454-11.604,9.454h-32.661h-37.818c0,0-9.455,0.43-9.455-10.313c0-2.149,0.859-5.157,3.438-11.174
	c0,0,10.744-20.628,10.744-93.686c0,0,2.579-66.612-17.62-129.785c0,0-5.157-16.331-5.157-20.628c0,0-0.287-6.16,3.438-7.306
	C232.904,35.065,251.813,28.619,285.334,28.619z"/>
<path style="fill:#244A9A;" d="M68.309,150.238c0,0-1.719-40.826,63.173-80.363c0,0,44.98-27.074,71.339-27.074
	c0,0,9.455-0.43,9.455,6.876l-3.008,43.404c0,0-0.43,10.744-7.736,10.744c0,0-8.165,0.859-12.033-3.008c0,0-2.578-3.868-15.9-3.868
	c0,0-33.521-0.859-33.521,20.628c0,0-0.43,7.449,13.466,14.182c0,0,32.374,13.752,63.89,44.694c0,0,20.628,18.05,20.628,48.132
	c0,0,3.294,56.155-77.355,94.259c0,0-57.015,24.067-75.351,57.301c0,0-4.012,9.741-12.033,9.741c0,0-10.314,0.859-10.314-8.596
	c0,0,1.173-12.791,3.438-20.341c0,0,3.438-11.174,3.438-24.353c0,0,0.286-19.482-10.314-41.257c0,0-3.438-7.019-3.438-13.178
	c0,0,0.286-8.883,10.314-8.883c0,0,5.444-0.285,11.747,7.163c0,0,14.611,16.903,42.975,16.903c0,0,48.418-1.432,48.418-38.104
	c0,0,2.579-20.914-24.066-32.661c0,0-44.694-17.19-59.592-32.948C85.929,189.632,68.309,173.445,68.309,150.238z"/>
<path style="fill:#244A9A;" d="M450.93,224.585c0,0,29.799,27.219,29.799,42.689c0,0,32.375,18.051,32.375,71.911
	c0,0,0.859,29.224-8.309,53.289c0,0-1.146,3.725-3.725,3.725c0,0-3.438,0-7.165-9.168c0,0-14.896-35.239-55.868-53.003
	c0,0-6.876-2.292-6.876-11.46c0,0,0.289-5.443,4.873-13.752c0,0,3.722-6.017,3.722-20.341c0,0,0.864-37.818-26.068-53.862
	c0,0-4.584-2.865-7.163,0.286c0,0-6.589,11.461-6.876,37.531c0,0,0.859,13.467,2.865,20.915c0,0,2.291,7.735,2.291,16.33
	c0,0,0.753,12.248-10.027,9.455c0,0-11.459-3.725-43.55-7.163c0,0-9.739-0.286-9.739-9.168c0,0-0.859-6.019,3.438-14.039
	c0,0,15.185-30.654,15.471-77.928c0,0-6.876-2.577-6.876-13.179c0,0-0.859-9.741,11.746-14.325c0,0,2.291-14.325,2.291-30.082
	c0,0-2.004-52.43-7.161-77.355c0,0-3.153-15.758-3.153-22.92c0,0-0.859-10.888,8.883-10.888c0,0,29.224,2.293,80.221,41.257
	c0,0,4.871,3.438,4.871,10.313c0,0,0.43,4.906-10.314,17.477c0,0-27.504,35.526-27.504,80.221c0,0,0,5.729,4.297,5.729
	c0,0,57.874-7.162,57.874-74.776c0,0,0-4.584,4.298-4.584c0,0,7.449-0.573,10.598,2.578c0,0,33.808,38.104,36.959,69.906
	C527.426,190.205,532.227,220.073,450.93,224.585z"/>
</svg>
