<?xml version="1.0" encoding="utf-8"?>
<!-- Generator: Adobe Illustrator 16.0.0, SVG Export Plug-In . SVG Version: 6.00 Build 0)  -->
<!DOCTYPE svg PUBLIC "-//W3C//DTD SVG 1.1//EN" "http://www.w3.org/Graphics/SVG/1.1/DTD/svg11.dtd">
<svg version="1.1" id="jaro2" xmlns="http://www.w3.org/2000/svg" xmlns:xlink="http://www.w3.org/1999/xlink" x="0px" y="0px"
	 width="323.804504189" height="308.828316797" viewBox="0 0 482.371 460.061" enable-background="new 0 0 482.371 460.061"
	 xml:space="preserve">
<g>
	<path fill="#FFFFFF" d="M237.358,0l-0.299,0.022c-23.323,1.773-46.567,6.667-67.211,14.161
		c-19.909,7.244-37.183,16.861-52.82,29.399c-15.515,12.443-28.422,26.936-39.455,44.295c-10.657,16.747-19.471,36.131-25.6,56.247
		c-2.011-0.138-4.342-0.365-6.965-0.688l-1.448-0.174l-1.249,0.751c-2.819,1.685-5.205,3.782-7.298,6.406
		c-2.094,2.601-3.834,5.657-5.313,9.324c-0.994,2.478-1.885,5.308-2.614,8.271c-2.294-0.861-4.325-1.543-6.44-2.164l-3.534-1.043
		l-1.543,3.344c-3.773,8.173-6.224,16.536-7.282,24.858c-0.818,6.476-0.484,12.998,0.063,19.393H5.588H1.769l-0.419,3.8
		c-0.989,9.033-2.016,18.374-0.789,27.038c1,7.108,3.48,13.503,6.174,19.631c-0.658,0.271-1.361,0.564-2.074,0.873l-1.106,0.472
		l-2.753,1.169l0.166,2.989c0.433,7.946,2.6,15.671,6.266,22.339c2.897,5.279,7.136,9.643,11.476,13.77
		c-0.692,1.015-1.559,2.267-2.396,3.463c0.015-0.019,0.028-0.037,0.04-0.054l-0.496,0.688l-1.197,1.663l0.546,1.97
		c1.636,5.896,4.144,11.395,7.454,16.335c2.235,3.35,5.021,6.364,7.802,9.116c-0.184,0.135-0.367,0.269-0.55,0.4
		c-0.624,0.453-1.249,0.903-1.848,1.343l-2.468,1.82l0.936,2.918c1.687,5.236,4.072,10.098,7.098,14.455
		c2.956,4.257,6.445,8.01,10.67,11.471c3.793,3.133,8.252,6.048,12.985,8.501c0.567,2.231,1.32,4.433,2.211,6.46
		c1.216,2.685,2.657,5.012,4.426,7.146c1.657,2.027,3.622,3.851,5.995,5.558c2.493,1.789,5.166,3.211,8.406,4.454
		c1.639,0.621,3.417,1.201,5.253,1.725c-0.045,0.052-0.087,0.107-0.129,0.16c-0.957,1.201-1.702,2.148-2.406,3.033l-0.616,0.782
		l-1.054,1.342l-2.502,3.189l3.061,2.659c5.903,5.126,12.293,8.754,19.534,11.098c4.587,1.491,9.708,2.292,14.934,2.855
		c-0.379,0.481-0.763,0.971-1.145,1.457l-1.158,1.482l-2.793,3.554l3.718,2.578c3.813,2.645,7.751,4.653,12.044,6.149
		c3.967,1.402,7.956,2.256,12.523,2.678c2.24,0.213,4.679,0.323,7.24,0.323c1.136,0,2.281-0.021,3.421-0.066
		c-0.162,1.354-0.312,2.64-0.436,3.833c-0.28,2.696-0.45,4.794-0.621,6.823v0.038l-0.004,0.037l-0.116,1.862l-0.287,4.47
		l4.475,0.067c0.579,0.011,1.153,0.011,1.732,0.011c14.962,0,28.081-1.745,41.286-5.483c13.713-3.906,28.485-10.903,42.856-17.824
		c11.604,6.938,24.182,12.994,34.817,16.746c10.218,3.62,19.237,5.375,28.392,5.521c0.363,0.008,0.761,0.008,1.157,0.008
		c7.952,0,15.275-1.144,22.383-3.497l1.958-0.648l4.87-1.62l-2.484-4.488c-0.591-1.066-1.188-2.18-1.785-3.334
		c2.435,0.31,4.82,0.494,7.055,0.546c0.349,0.008,0.702,0.013,1.057,0.013c4.155,0,7.858-0.46,11.331-1.413
		c3.567-0.986,6.631-2.412,9.38-4.351c2.702-1.892,5.015-4.216,6.867-6.9l0.616-0.897l1.508-2.186l-1.299-2.319
		c-0.434-0.766-0.847-1.507-1.237-2.217c2.902-0.26,5.886-0.778,8.995-1.87c5.491-1.924,10.958-5.513,16.241-8.982l1.924-1.265
		v-2.303v-7.678c7.064-1.154,13.821-3.943,20.147-8.325c3.82-2.672,7.502-5.942,10.645-9.471l1.413-1.59l-0.409-2.087
		c-0.533-2.669-0.991-5.012-1.284-6.596c-0.019-0.12-0.04-0.236-0.062-0.351c3.436-1.555,6.692-3.466,9.725-5.701
		c4.048-2.964,7.609-6.415,10.863-10.551c3.205-4.056,6.147-8.881,8.493-13.946l1.087-2.34l-1.57-2.045
		c-0.788-1.021-1.486-1.944-2.37-3.144c-0.157-0.217-0.32-0.444-0.486-0.681c4.643-2.839,9.447-5.887,13.388-8.89
		c5.282-4.071,9.146-7.969,13.326-12.572l2.546-2.814l-2.5-2.855l-1.206-1.378c-0.782-0.896-1.586-1.812-2.549-2.924
		c-0.352-0.406-0.727-0.834-1.111-1.282c5.036-5.808,9.967-11.75,13.166-17.579c3.776-6.893,5.774-13.637,6.485-21.865l0.36-4.107
		l-4.101-0.493c-1.681-0.201-3.198-0.369-4.574-0.51c2.438-5.938,4.777-12.322,5.91-18.756c1.401-7.965,1.423-16.74,0.068-26.818
		l-0.539-4.045l-4.069,0.366c-1.669,0.152-3.34,0.36-5.027,0.631c0.083-6.107-0.102-12.271-1.598-18.097
		c-1.89-7.314-5.691-13.714-9.444-19.884c-0.896-5.171-1.948-10.917-4.005-15.748c-2.188-5.178-4.999-9.408-8.816-13.309
		l-0.609-0.611l-0.788-0.33c-2.444-1.025-4.528-1.502-6.565-1.502c-3.442,0-6.588,1.373-9.593,4.189
		c-1.102-1.47-2.53-3.408-4.023-5.455c-6.877-21.206-16.632-41.628-28.228-59.085c-11.396-17.133-24.544-31.336-40.197-43.428
		c-15.859-12.229-33.365-21.515-53.52-28.395c0,0,0,0,0.003,0c-21.24-7.269-45.312-11.934-69.601-13.497L237.358,0L237.358,0z"/>
	<path fill-rule="evenodd" clip-rule="evenodd" fill="#1F1A17" d="M53.376,151.944c-1.79-0.065-5.038-0.322-8.061-0.684
		c-1.782,1.214-3.363,2.746-4.854,4.757c-1.495,2.019-2.852,4.518-4.13,8.012c-1.461,4.058-2.614,9.45-3.442,14.691
		c-2.036-0.86-5.142-2.19-7.34-3.024c-1.573-0.62-2.893-1.065-4.187-1.518c-2.412,7.078-4.822,14.154-5.587,21.474
		c-0.846,7.995-0.267,16.334,1.406,24.482H8.501c-0.637,8.407-1.254,16.818,0.074,24.342c1.469,8.324,4.651,15.964,9.222,22.789
		l-2.256,0.631c-1.732,0.438-4.089,1.379-6.662,2.46c0.437,4.206,1.465,8.361,3.022,12.213c1.562,3.85,3.656,7.387,6.294,10.645
		c2.936,3.649,6.595,6.914,10.596,9.607l-0.761,1.37c-1.041,1.938-2.881,4.603-4.913,7.496c1.923,4.818,3.842,9.614,6.812,13.8
		c3.438,4.85,8.026,9.202,13.097,12.83l-2.148,1.321c-1.736,1.122-3.827,2.806-6.17,4.486c1.453,3.874,3.426,7.547,5.937,10.976
		c2.485,3.436,5.542,6.625,9.367,9.647c4.022,3.179,8.959,6.135,14.077,8.567c0.419,2.638,1.245,5.787,2.343,8.25
		c0.962,2.242,2.149,4.142,3.552,5.82c1.411,1.685,3.067,3.146,5.033,4.467c1.948,1.313,4.221,2.495,7.536,3.639
		c4.038,1.4,9.608,2.589,14.916,3.488l-1.835,2.269c-1.866,2.319-3.73,4.639-5.079,6.315c-1.333,1.679-2.178,2.726-2.981,3.76
		c3.064,2.318,6.407,4.271,10.025,5.872c3.622,1.591,7.51,2.819,12.382,3.666c5.945,1.048,13.288,1.338,20.357,1.269l-2.586,2.881
		c-0.986,1.116-1.98,2.246-3.184,3.695c-1.199,1.46-2.607,3.242-4.018,5.03c2.76,1.581,5.712,2.848,8.885,3.793
		c3.151,0.94,6.507,1.59,10.791,1.854c4.908,0.286,11.012-0.014,16.874-0.644l-0.287,2.172c-0.417,3.291-0.82,6.599-1.129,9.204
		c-0.283,2.62-0.462,4.534-0.641,6.452c12.501-0.782,25.012-1.571,38.726-5.633c13.743-4.068,28.71-11.401,43.681-18.733
		c12.035,7.433,24.847,13.733,35.245,17.612c10.417,3.869,18.427,5.343,25.88,5.65c7.434,0.329,14.32-0.486,20.898-2.388
		c-0.668-1.317-1.342-2.641-2.207-4.449c-1.299-2.692-2.965-6.385-4.479-9.741l3.521,0.931c5.088,1.343,10.309,2.272,14.705,2.58
		c4.405,0.313,7.951,0.06,10.992-0.568c3.021-0.61,5.525-1.595,7.693-2.904c2.154-1.317,3.977-2.953,5.442-4.877
		c-1.124-2.016-2.223-4.044-3.039-5.621c-1.465-2.9-2.13-4.662-3.105-6.908l3.208,0.631c2.862,0.571,5.787,0.684,8.834,0.325
		c5.911-0.609,13.147-3.594,20.117-8.653v-13.04c5.729,0.002,11.839-1.275,17.344-3.984c4.986-2.42,9.625-6.508,14.252-10.601
		c-0.449-2.317-0.905-4.635-1.197-6.364c-0.409-2.413-0.542-3.702-0.727-5.357l1.309-0.447c6.021-2.113,11.559-5.363,16.287-9.726
		s8.41-10.386,12.073-16.418c-0.606-0.809-1.21-1.626-2.13-2.898c-1.191-1.654-2.909-4.039-4.488-6.241l1.656-0.965
		c6.218-3.606,12.356-7.402,17.094-10.921c4.737-3.511,8.019-6.853,11.331-10.19c-2.164-2.46-4.651-5.344-7.32-8.442
		c4.864-4.95,9.377-10.262,12.525-14.611c3.162-4.359,4.957-7.735,6.369-11.247c1.398-3.492,2.398-7.097,2.992-10.778
		c-1.853-0.18-3.706-0.366-5.239-0.473c-2.684-0.182-4.577-0.136-6.803-0.14c4.377-8.369,8.059-16.989,9.783-25.493
		c1.532-7.643,1.139-15.25,0.732-22.854c-3.078,0.411-6.96,1.312-10.888,2.267l0.372-2.552c1.176-7.753,0.942-15.651-0.767-22.698
		c-1.724-7.054-5.63-13.34-9.519-19.627c-0.837-5.29-1.681-10.583-3.429-14.923c-1.749-4.324-4.399-7.695-7.043-11.06
		c-3.168-1.309-6.064-0.48-8.826,3.361c-1.151,1.499-2.191,3.599-3.226,5.519l-1.653-2.019c-1.142-1.4-2.293-2.823-3.916-4.959
		c-1.638-2.173-3.771-5.06-5.895-7.962c-6.677-20.975-16.251-41.085-27.409-57.956c-11.144-16.86-23.863-30.468-38.52-41.821
		c-14.671-11.363-31.291-20.443-51.38-27.333c-20.136-6.893-43.743-11.574-67.516-13.12c-22.882,1.761-45.567,6.644-65.218,13.819
		c-19.633,7.188-36.215,16.657-50.782,28.425c-14.571,11.771-27.119,25.824-37.832,42.864
		c-10.924,17.383-19.788,37.925-25.846,59.159c-0.862-0.006-1.782,0-2.644-0.01C54.608,151.988,54.159,151.974,53.376,151.944
		 M433.137,156.75c0.684-1.11,1.472-2.16,2.263-3.031c4.307-4.497,7.988-4.43,12.335-2.604c3.436,3.506,5.963,7.318,7.942,11.988
		c1.933,4.545,2.905,10.067,3.863,15.608c3.798,6.23,7.585,12.478,9.376,19.418c1.782,6.936,1.549,14.576,1.349,22.231
		c3.447-0.788,6.686-1.301,9.792-1.579c1.133,8.461,1.432,17.104-0.04,25.515c-1.385,7.844-4.646,15.562-7.936,23.283
		c2.828,0.12,6.485,0.497,10.29,0.952c-0.591,6.839-2.179,13.25-5.978,20.184c-3.491,6.355-9.284,12.982-15.081,19.618
		c1.25,1.439,2.49,2.88,3.537,4.086c1.469,1.686,2.559,2.923,3.774,4.311c-3.703,4.086-7.502,8.002-12.757,12.05
		c-4.787,3.652-10.866,7.351-16.952,11.034c1.142,1.579,2.274,3.158,3.204,4.445c0.942,1.275,1.675,2.239,2.423,3.217
		c-2.195,4.753-4.926,9.247-7.976,13.097c-3.029,3.848-6.36,7.064-10.039,9.761c-3.675,2.703-7.687,4.883-11.943,6.491
		c0.15,1.013,0.308,2.034,0.618,3.763c0.323,1.757,0.798,4.202,1.29,6.66c-2.989,3.351-6.396,6.36-9.899,8.806
		c-7.136,4.951-14.582,7.488-21.974,8.052v11.457c-5.171,3.396-10.343,6.783-15.32,8.528c-4.963,1.742-9.734,1.835-14.515,1.923
		c1.09,2.183,2.696,5.15,4.454,8.272l-0.615,0.894c-1.549,2.247-3.513,4.222-5.812,5.839c-2.272,1.604-4.913,2.853-8.051,3.721
		c-3.143,0.86-6.771,1.333-11.165,1.248c-4.423-0.101-9.601-0.765-14.665-1.958c1.841,4.002,3.697,7.7,5.562,11.073l-1.948,0.65
		c-6.944,2.298-14.265,3.38-22.133,3.268c-7.878-0.121-16.303-1.467-27.043-5.277c-10.74-3.788-23.78-10.078-36.004-17.568
		c-15.116,7.285-30.232,14.571-44.25,18.565c-14.717,4.173-28.219,5.429-41.791,5.313l0.12-1.862
		c0.171-2.064,0.342-4.116,0.609-6.729c0.274-2.597,0.674-5.734,1.057-8.867c-5.287,0.499-10.624,0.516-15.128,0.088
		c-4.489-0.414-8.135-1.265-11.516-2.455c-4.021-1.402-7.651-3.298-11.016-5.627l1.165-1.483c1.266-1.624,2.532-3.216,3.555-4.484
		c1.008-1.27,1.79-2.193,2.548-3.116c-7.751-0.652-15.495-1.306-21.94-3.398c-7.044-2.278-12.906-5.791-18.051-10.261l1.041-1.326
		c0.891-1.122,1.781-2.252,3.001-3.782c1.242-1.543,2.794-3.479,4.359-5.436c-4.08-0.763-8.101-1.906-11.273-3.104
		c-3.156-1.216-5.455-2.507-7.444-3.94c-2.002-1.44-3.725-3.007-5.205-4.812c-1.494-1.799-2.755-3.821-3.809-6.153
		c-1.028-2.328-1.861-4.954-2.394-7.642c-5.124-2.487-9.992-5.584-13.997-8.892c-4.038-3.308-7.249-6.823-9.875-10.606
		c-2.873-4.138-5.025-8.624-6.536-13.326c1.111-0.817,2.302-1.673,3.435-2.503c0.787-0.588,1.562-1.162,2.073-1.545
		c0.47-0.369,0.72-0.539,0.949-0.71c-3.967-3.76-7.923-7.523-10.845-11.905c-3.077-4.596-5.399-9.728-6.89-15.105l0.495-0.687
		c1.049-1.502,2.102-3.027,2.844-4.118c0.736-1.1,1.173-1.758,1.569-2.454c-5.038-4.716-10.109-9.421-13.255-15.152
		c-3.349-6.091-5.346-13.232-5.746-20.523l1.132-0.482c1.324-0.569,2.648-1.109,3.655-1.519c1.024-0.4,1.732-0.659,2.444-0.925
		c-3.268-7.237-6.532-14.478-7.672-22.569c-1.14-8.08-0.174-17.033,0.808-25.978h7.432c-0.732-7.784-1.461-15.568-0.504-23.121
		c1.024-8.055,3.439-16.064,6.923-23.606c3.643,1.071,6.919,2.306,10.783,3.9c0.779-4.522,2.02-8.979,3.435-12.502
		c1.424-3.53,2.981-6.133,4.688-8.262c1.84-2.309,3.871-4.041,6.154-5.402c3.63,0.44,7.485,0.807,10.615,0.868
		c6.07-21.013,15.122-41.194,26.054-58.38c10.924-17.183,23.714-31.373,38.526-43.253c14.817-11.884,31.679-21.467,51.607-28.715
		c19.925-7.234,42.915-12.161,66.083-13.922c24.109,1.551,48.064,6.292,68.489,13.277c20.443,6.98,37.361,16.22,52.298,27.737
		c14.92,11.526,27.893,25.338,39.248,42.414c11.35,17.084,21.103,37.436,27.93,58.685c1.739,2.386,3.516,4.79,4.812,6.519
		C431.465,154.622,432.297,155.686,433.137,156.75z"/>
	<g>
		<path fill-rule="evenodd" clip-rule="evenodd" fill="#45BE40" d="M294.668,442.266l-1.699-1.127l-2.863-0.132
			c-4.448-0.229-8.601-2.319-12.015-4.638c-3.407-2.303-5.929-5.779-8.44-9.243c0.03-0.479-0.021-0.603-0.203-1.086
			c-0.678-1.499-1.34-2.233-1.21-3.479c0.12-0.413-0.021-0.798,0.97-1.273c0.732-0.444,2.779-0.263,4.137-0.777
			c0.274-0.104,0.518-0.236,0.733-0.396c1.598,0.539,3.198,1.053,4.361,1.517c2.607,0.952,3.916,2.132,5.821,3.7
			c3.023,2.567,6.68,6.472,9.343,10.032c0.933,1.242,1.788,2.524,2.389,3.386c0.819,1.259,1.183,1.595,1.133,2.236
			C296.958,441.777,295.702,442.154,294.668,442.266"/>
		<path fill-rule="evenodd" clip-rule="evenodd" fill="#45BE40" d="M331.653,429.052c-4.155-0.449-8.336-0.905-12.282-1.776
			c-3.931-0.863-7.625-2.175-11.337-3.465c-1.816-2.346-5.132-2.75-8.204-5.614c-0.625-0.602-1.157-1.27-1.613-1.99
			c2.263-1.396,4.418-2.252,6.791-3.692c1.782,0.029,3.189,0.109,4.091,0.155c0.456,0.011,1.056,0.011,1.672-0.001
			c3.706,1.465,7.412,2.926,11.072,5.402c3.667,2.47,7.296,5.95,10.91,9.426"/>
		<path fill-rule="evenodd" clip-rule="evenodd" fill="#45BE40" d="M343.985,409.266c-3.097-0.19-6.178-0.385-8.619-0.716
			c-2.423-0.335-4.181-0.811-5.929-1.268c-0.798-0.951-2.53,0.009-4.205-2.004c2.798-1.832,5.605-3.673,7.638-4.892
			c2.022-1.244,3.281-1.865,4.527-2.482c2.73,0.021,5.446,0.039,9.393,1.232c3.955,1.194,9.137,3.564,14.308,5.923l-0.369,0.811
			c-1.314,0.504-2.647,0.996-5.427,1.554C352.503,407.995,348.239,408.632,343.985,409.266"/>
		<path fill-rule="evenodd" clip-rule="evenodd" fill="#45BE40" d="M268.056,413.532c-1.296,0.158-1.641-0.243-2.515-0.755
			c-0.727-0.494-1.38-0.461-2.161-0.186c-1.103-0.937-2.364-1.931-3.682-2.954l-0.742-2.949l1.542-3.039
			c1.638-0.889,3.414-1.543,5.319-1.969c1.915-0.438,4.002-0.654,7.468-0.366c3.457,0.292,8.3,1.066,13.056,2.205
			c-1.167,0.802-2.354,1.616-3.155,2.321c-0.791,0.708-1.231,1.288-1.659,1.884c-1.13,0.545-2.269,1.105-3.161,1.71
			c-0.89,0.585-1.524,1.204-2.149,1.825c-1.714,0.151-4.189,1.597-6.313,2.065C269.213,413.467,268.511,413.51,268.056,413.532"/>
		<path fill-rule="evenodd" clip-rule="evenodd" fill="#45BE40" d="M294.828,407.056c0.846-1.486,2.804-2.888,4.719-4.849
			c0.478-0.521,0.88-1.063,1.256-1.648l-0.142-1.259l-1.555-0.804c-3.632-0.346-7.086-1.115-10.192-2.881l0.964-1.105
			c3.343-0.717,6.68-1.451,10.005-1.387c3.312,0.08,6.627,0.957,9.931,1.829l0.723,1.325c-2.296,2.234-4.602,4.452-6.418,6.065
			c-1.822,1.587-3.164,2.555-4.488,3.527c-0.4-0.104-1.197,0.148-1.964,0.485C296.924,406.652,295.834,407.17,294.828,407.056"/>
		<path fill-rule="evenodd" clip-rule="evenodd" fill="#45BE40" d="M321.169,396.508c0.169-0.717,0.326-1.43,1.117-2.715
			c0.807-1.271,2.232-3.123,3.688-4.969l-0.509-1.179c-3.078,0.364-6.009,0.305-8.724-0.591l0.815-2.506
			c1.946-1.301,3.913-2.597,5.271-3.363c1.665-0.943,2.559-1.117,3.355-1.371c0.708,0,2.798,0.773,3.106-0.801
			c2.905-0.342,5.812-0.674,7.96-0.729c2.146-0.054,3.553,0.201,4.953,0.423l-0.431,1.332c-0.81,1.217-1.616,2.415-3.141,4.268
			c-1.542,1.861-3.816,4.363-6.098,6.887c-0.914,0.725-1.828,1.436-3.187,2.287c-1.4,0.825-3.223,1.785-5.079,2.723"/>
		<path fill-rule="evenodd" clip-rule="evenodd" fill="#45BE40" d="M281.237,390.67l-0.665-1.324
			c0.28-0.824,0.557-1.657,0.908-2.809c0.781-2.547,1.939-6.433,3.078-10.117l0.893-1.101c1.323-3.027,2.656-6.061,4.744-9.13
			c2.093-3.077,4.891-6.195,7.729-9.322l1.397-0.144c0.351,6.389-0.376,11.998-2.223,17.097c-0.85,2.487-1.822,5.146-2.946,7.773
			c-1.899,0.628-1.01,2.713-2.891,4.729c-1.117,0.651-2.675,0.796-4.321,1.424C284.992,388.405,282.894,389.158,281.237,390.67"/>
		<path fill-rule="evenodd" clip-rule="evenodd" fill="#45BE40" d="M301.677,385.582l-0.591-1.402
			c2.383-6.423,4.756-12.836,8.136-18.27c3.38-5.439,7.727-9.893,12.102-14.351l2.672-1.103c0.249,2.471,0.563,5.704,0.865,8.56
			c-0.25,0.93-0.499,1.87-0.801,3.305c-0.308,1.451-0.674,3.384-1.041,5.325c-0.858,1.547-1.695,3.107-2.188,4.122
			c-0.498,1.021-0.575,1.508-0.692,1.996c-2.413,1.595-4.722,2.878-6.794,3.477c-1.117,0.91-2.29,1.579-3.429,2.469
			c-1.475,1.409-1.982,2.717-3.433,4.325c-0.459,0.485-0.973,0.907-1.549,1.252"/>
		<path fill-rule="evenodd" clip-rule="evenodd" fill="#45BE40" d="M366.115,391.112c-1.905,0.227-3.103,0.227-4.651,0.12
			c-3.271-0.273-7.745-0.765-11.949-0.93c-0.592-1.312-1.475-0.601-2.516-0.647c-0.601,0-1.28,0.098-1.905-0.755l-0.16-1.254
			l1.416-1.69c4.063,0.405,8.303-0.121,12.698-1.331c0.767-0.366,1.499-0.729,3.287-2.006c1.792-1.301,4.615-3.479,7.419-5.672
			c3.731,0.025,7.478,0.043,10.646,0.504c3.186,0.466,5.774,1.384,8.382,2.296l0.591,1.407c-1.265,0.481-3.297,2.667-4.87,3.175
			l-0.806,1.688c-3.39,1.507-6.871,2.764-9.935,3.609C370.681,390.467,368.049,390.895,366.115,391.112"/>
		<path fill-rule="evenodd" clip-rule="evenodd" fill="#45BE40" d="M354.086,377.535c0.132-1.14,0.356-1.721,1.067-2.69
			c0.44-0.589,1.097-1.34,1.819-2.039l-1.847-2.578c-2.589,0.5-3.814,0.459-5.538,0.887l-1.256-2.207
			c-0.04-2.503,2.949-3.938,5.245-6.652c3.39-1.619,6.779-3.227,9.284-4.229c2.506-0.989,4.146-1.369,5.784-1.756l0.512,0.962
			c-1.324,3.685-2.617,7.363-4.215,10.406c-1.591,3.057-3.447,5.475-5.319,7.91c-2.108,0.872-2.724,1.462-4.014,1.828
			C355.142,377.507,354.608,377.564,354.086,377.535"/>
		<path fill-rule="evenodd" clip-rule="evenodd" fill="#45BE40" d="M333.052,372.513l-3.014-0.729
			c1.102-6.645,3.896-12.827,5.152-19.333c0.675-0.791,1.367-1.594,2.353-3.507c1.021-1.914,2.363-4.96,3.703-8.023
			c1.739-1.49,2.056-4.515,5.011-7.08l1.5,0.743c0.418,3.234,0.834,6.473,1.151,8.645c0.289,2.193,0.474,3.33,0.674,4.77
			c0.2,1.45,0.406,3.214,0.591,4.958l-1.533,4.582c-0.649,0.188-1.489,0.962-2.314,1.973c-0.585,0.696-1.317,1.683-2.383,2.743
			c-0.499,0.486-0.957,0.825-1.438,1.106c-1.117,2.367-2.017,4.099-2.733,5.471c-0.357,0.703-0.767,1.604-1.173,2.512
			C337.666,371.928,334.917,371.82,333.052,372.513"/>
		<path fill-rule="evenodd" clip-rule="evenodd" fill="#45BE40" d="M381.255,367.575c-1.157-0.348-3.673,0.411-5.612,0l-1.249-2.295
			c0.415-0.532,0.893-0.763,1.475-0.977c0.64-0.371,3.613-0.371,5.146-0.486c0.505-0.033,1.114-0.117,1.724-0.222
			c2.469-1.731,4.944-3.456,6.825-5.324c1.874-1.867,3.164-3.884,4.448-5.889l2.148-1.635c3.86-0.475,7.727-0.953,11.039-0.902
			c3.315,0.05,6.079,0.625,8.825,1.194l-0.44,1.482c-4.713,3.524-9.435,7.058-15.16,9.564
			C394.701,364.598,387.966,366.086,381.255,367.575"/>
		<path fill-rule="evenodd" clip-rule="evenodd" fill="#45BE40" d="M379.204,355.765l-0.757-1.253l1.176-3.103
			c1.533-0.646,0-2.443,2.429-4.138l-0.132-1.256c-1.364-0.587-4.553,0.339-6.311,0.663c-0.616,0.091-1.373,0.142-2.1,0.155
			c0.067-1.572,0.302-2.995,1.342-4.187c0.459-0.556,1.114-1.15,2.574-1.93c1.456-0.793,3.736-1.781,5.202-2.401
			c1.44-0.631,2.056-0.882,2.989-1.362c0.926-0.466,2.182-1.144,3.38-1.855c0.96,0.49,2.523-1.118,3.838-0.368
			c-0.732,2.213-1.514,4.408-2.105,5.932c-0.572,1.524-0.981,2.377-1.406,3.486c-0.416,1.133-0.874,2.53-1.284,3.946
			c-0.396,0.359-0.837,0.731-1.656,1.739c-0.8,0.987-2.013,2.617-3.204,4.239c-1.191-0.043-2.223,1.801-3.198,1.67
			C379.74,355.77,379.454,355.781,379.204,355.765"/>
		<path fill-rule="evenodd" clip-rule="evenodd" fill="#45BE40" d="M359.048,351.04c-0.967-2.146-1.515-4.468-1.65-7.179
			c-0.431-6.118,2.041-14.799,6.369-22.414c-0.089-0.819,1.028-2.067,1.469-2.799c0.508-0.746,1.007-1.794,1.114-2.73l1.616-0.222
			c0.523,1.324,0.976,2.665,1.357,4.055c0.382,1.37,0.708,2.79,0.967,4.523c0.258,1.747,0.434,3.812,0.582,5.364
			c0.126,1.558,0.239,2.616,0.225,3.268c-0.016,1.237-0.44,1.342-0.767,1.973c-0.4,0.633-0.675,1.381-0.816,2.222
			c-1.323,1.765-2.749,3.492-4.361,5.157c-0.942,1.901-1.216,3.024-1.733,4.384c-0.317,0.76-0.772,1.744-1.28,2.706"/>
		<path fill-rule="evenodd" clip-rule="evenodd" fill="#45BE40" d="M402.222,339.533l-0.899-1.409
			c0.689-0.294,1.397-0.595,2.955-1.469c1.567-0.869,3.996-2.324,6.419-3.775c1.234-1.2,2.465-2.415,3.257-3.284
			c1.732-1.773,1.28-2.609,2.099-3.667c1.3-1.602,2.429-2.52,2.78-3.886c1.021-0.745,2.071-1.487,4.63-2.204
			c2.555-0.704,6.627-1.389,10.706-2.081l1.416,1.689c-0.23,0.699-0.582,1.351-1.25,2.087c-0.658,0.755-1.612,1.594-2.312,2.183
			c-0.711,0.595-1.142,0.93-1.948,1.672c-0.791,0.724-1.939,1.854-3.057,2.995c-2.272,1.53-4.571,3.053-7.229,4.334
			c-2.656,1.29-5.688,2.358-8.708,3.419l-0.884,1.111c-1.709,0.205-3.404,0.436-4.729,0.812
			C404.136,338.436,403.169,338.987,402.222,339.533"/>
		<path fill-rule="evenodd" clip-rule="evenodd" fill="#45BE40" d="M379.771,330.446c-0.923-7.488-1.855-14.99-1.84-20.516
			c0-5.531,0.966-9.078,1.917-12.614c0.142-0.98,0.376-1.954,0.606-2.674c0.416-1.248,0.908-1.921,1.832-2.795
			c0.634,0.674,1.2,1.387,1.915,2.407c1.416,2.111,3.3,5.186,5.322,7.923c0.258,2.508,0.508,5.006,0.692,6.874
			c0.188,1.866,0.305,3.104,0.422,4.352c-0.616,2.931-1.33,5.909-2.281,8.806c-0.357,1.465-0.591,2.941-0.831,4.408
			C385.108,328.888,382.505,330.021,379.771,330.446"/>
		<path fill-rule="evenodd" clip-rule="evenodd" fill="#45BE40" d="M404.37,326.986c-0.145-0.521-0.145-0.81,0-1.294
			c0.508-1.409,0.973-1.926,0.933-3.094c-0.043-0.45-0.191-0.953-0.508-1.442c-0.385-0.079-1.582,0.446-2.715,0.965
			c-0.915,0.431-1.666,0.837-2.69,1.165c-0.982,0.277-1.74,0.248-2.564,0.158c-0.108-1.085-0.157-2.179-0.108-2.993
			c0.074-1.397,0.323-2.09,0.933-2.989c2.922-2.459,5.837-4.925,8.343-6.597c2.472-1.673,4.513-2.565,6.554-3.441
			c0.166,3.04-0.016,6.107-0.468,8.558c-0.435,2.427-1.124,4.245-2.057,5.851c-0.917,1.644-2.081,3.092-3.457,4.342"/>
		<path fill-rule="evenodd" clip-rule="evenodd" fill="#45BE40" d="M426.949,307.288c1.108-2.792,2.14-4.839,3.214-6.76
			c0.526-1.001,1.143-2.196,1.558-3.26c1.197-3.032,0.518-5.146,1.45-7.814c0.182-0.387,0.425-0.682,0.708-0.918
			c2.148-1.144,4.288-2.32,5.467-3.027c1.21-0.701,1.509-0.96,2.284-1.371c0.772-0.412,2.038-0.98,3.315-1.512l1.114-1.547
			c1.373-0.14,2.583-0.241,3.321-0.32c0.312-0.035,0.699-0.075,1.118-0.116l-0.376,2.341c-1.45,2.955-2.906,5.904-4.479,8.454
			c-1.576,2.538-3.272,4.698-4.972,6.842c-0.641,0.328-1.241,0.729-1.949,1.341c-1.558,1.395-3.712,3.511-5.879,5.381
			c-0.475-0.053-1.481,0.397-2.53,0.994C429.147,306.662,428.199,307.217,426.949,307.288"/>
		<path fill-rule="evenodd" clip-rule="evenodd" fill="#45BE40" d="M398.891,306.986c-1.558-12.341-1.808-24.79-0.807-37.345
			c0.855,0.561,1.696,1.119,2.955,2.584c1.24,1.485,2.912,3.882,4.577,6.283c0.825,2.143,1.65,4.312,2.081,5.926
			c0.428,1.633,0.453,2.712,0.502,3.804c-0.658,1.678-1.305,3.358-1.758,4.55c-0.772,2.031-1.024,2.857-1.856,4.023
			c0.758,2.062-1.456,4.754-0.532,7.211c-0.425,1.465-2.456,0.959-3.604,2.816"/>
		<path fill-rule="evenodd" clip-rule="evenodd" fill="#45BE40" d="M422.295,300.199c-0.274-0.496-0.313-1.848-0.259-3.185
			c0.059-1.004,0.102-1.512,0-2.503c-0.073-0.502-0.215-1.001-0.415-1.469l-2.946,0.745l-1.108,2.124
			c-1.542-0.011-3.481,3.062-5.178,2.511c-0.043-0.635-0.012-1.269,0.099-1.945c0.176-1.477,1.416-3.985,3.023-6.545
			c1.465-1.227,2.97-2.439,3.896-3.187c0.948-0.749,1.349-1.031,1.955-1.5c0.566-0.488,1.349-1.175,2.108-1.875l1.274-0.08
			c0.274,3.665,0.563,7.314,0.305,10.112c-0.265,2.789-1.064,4.721-1.865,6.654"/>
		<path fill-rule="evenodd" clip-rule="evenodd" fill="#45BE40" d="M432.638,280.493c2.263-1.709,4.445-3.55,5.729-4.796
			c1.296-1.247,1.689-1.883,2.065-2.633c0.348-0.751,0.705-1.606,0.938-2.843c0.225-1.219,0.326-2.828,0.366-3.939
			c0.059-1.111,0.074-1.717,0.148-2.891c0.076-1.162,0.2-2.896,0.434-4.202c0.209-1.317,0.511-2.217,0.933-3.051
			c0.552-0.428,1.1-0.862,1.964-1.724c0.859-0.884,2.035-2.193,3.199-3.513l2.29-1.704c0.233,0.142,2.364-1.031,3.174-1.387
			c0.615-0.272,1.471-0.64,2.071-0.666l0.067,0.956c-0.341,1.873-0.683,3.768-1.446,6.21c-0.785,2.444-2.001,5.464-3.198,8.466
			c-1.582,2.325-3.184,4.636-5.522,7.27c-2.33,2.629-5.418,5.576-8.5,8.536C435.691,278.604,434.187,281.075,432.638,280.493"/>
		<path fill-rule="evenodd" clip-rule="evenodd" fill="#45BE40" d="M416.898,279.16c-2.761-5.279-5.513-10.54-7.302-13.684
			c-1.788-3.134-2.589-4.133-3.396-5.13c-0.893-3.56-1.801-7.123-2.28-9.631c-0.493-2.512-0.576-3.966-0.659-5.421
			c2.29,0.237,4.079,2.743,6.443,4.923c1.292,1.269,2.523,2.402,3.515,2.827c0.807,1.53,2.466,3.727,4.347,6.112
			c0,4.345-0.009,8.683,0.283,11.67c0.323,2.987,0.942,4.631,1.558,6.271"/>
		<path fill-rule="evenodd" clip-rule="evenodd" fill="#45BE40" d="M431.653,270.534c-0.133-1.492-0.357-2.905-0.724-4.205
			c-1.389,0.069-1.632,1.217-2.995,2.855c-0.644,0.631-1.303,0.873-2.025,1.048l-1.764-2.651c-0.053-1.413-0.102-2.818,0.458-5.266
			c0.548-2.438,1.755-5.889,2.922-9.351c0.508-0.454,0.981-0.927,1.748-1.962c0.767-1.028,1.789-2.649,2.838-4.231
			c1.333,4.354,2.682,8.731,3.131,12.256c0.449,3.505,0.019,6.179-0.406,8.842c-0.649,0.931-0.415,1.224-1.392,2.146
			C432.859,270.483,432.327,270.552,431.653,270.534"/>
		<path fill-rule="evenodd" clip-rule="evenodd" fill="#45BE40" d="M421.187,251.195c-1.721-2.055-3.453-4.09-5.52-7.226
			c-2.081-3.132-4.521-7.363-6.96-11.599l-0.302-2.656c-1.064-0.57-0.689-2.73-2.789-3.759c-0.123-1.022-0.182-2.137-0.381-3.082
			c-0.483-0.9-2.208-2.521-0.283-3.417c3.121,0.799,6.162,2.903,9.542,5.901c1.765,1.603,3.59,3.451,4.655,4.73
			c1.064,1.275,1.397,1.993,1.89,2.779c0.499,0.807,1.148,1.693,1.828,2.525l0.17,1.256c1.197,1.15,2.413,2.303,3.14,3.09
			c0.732,0.783,0.967,1.211,1.213,1.646c-0.031,0.416-0.133,0.814-0.529,1.576c-0.392,0.753-1.084,1.854-1.509,2.544
			c-0.458,0.681-0.634,0.962-1.016,1.646c-0.391,0.675-0.967,1.768-1.515,2.861"/>
		<path fill-rule="evenodd" clip-rule="evenodd" fill="#45BE40" d="M439.78,246.042c-0.416-1.491-0.838-2.955-1.022-3.928
			c-0.203-0.95-0.176-1.396-0.16-1.845l2.813-1.994c0.708-0.9,1.303-1.912,1.776-3.07c0.449-1.164,0.798-2.483,0.881-4.538
			c0.092-2.053-0.09-4.855-0.226-6.595c-0.123-1.739-0.206-2.434-0.206-3.691c0-1.253,0.068-3.075,0.206-4.907
			c0.859-1.145,1.725-2.295,2.35-3.065c0.6-0.771,0.976-1.183,1.348-1.578l1.543-0.588c0.714,2.126,1.416,4.247,1.48,7.581
			c0.073,3.333-0.483,7.879-1.031,12.41l-1.314,1.558l0.139,1.315c-1.666,3.291-3.304,6.571-4.734,8.725
			C442.196,243.982,440.996,245,439.78,246.042"/>
		<path fill-rule="evenodd" clip-rule="evenodd" fill="#45BE40" d="M430.855,234.586c-1.126-0.971-1.988-2.048-2.739-3.178
			c-0.234-1.031-0.449-2.047-0.708-3.719c-0.249-1.676-0.499-3.986-0.767-6.321l1.2-2.795c-0.727-2.041,1.49-4.773,0.649-7.299
			l1.549-0.154l0.815,0.948c1.982,3.379,3.707,6.92,4.686,9.454c1.01,2.545,1.283,4.085,1.317,5.606
			c0.05,1.524-0.132,3.008-0.551,4.433l-1.607-1.397c-0.532,0-1.163,0.491-1.305,0.849c-0.395,0.665-0.395,1.94-1.675,3.04
			C431.465,234.26,431.173,234.444,430.855,234.586"/>
		<path fill-rule="evenodd" clip-rule="evenodd" fill="#45BE40" d="M420.747,214.363c-0.533-0.747-1.872-1.813-3.258-2.952
			c-2.197-2.971-4.38-5.941-6.218-9.1c-1.832-3.162-3.306-6.51-4.771-9.863l0.44-0.881l2.798,0.148l1.117,1.176
			c0.841-0.059,1.217-0.021,2.254,0.612c0.745,0.459,1.419,0.782,2.317,0.863c2.331,1.778,4.661,3.545,6.194,5.164
			c1.518,1.629,2.237,3.104,2.955,4.574c0.459,1.821-1.755,3.783-1.392,5.677c-0.631,0.558-0.529,1.773-0.874,2.818
			C422.113,213.285,421.547,214.021,420.747,214.363"/>
		<path fill-rule="evenodd" clip-rule="evenodd" fill="#45BE40" d="M438.899,210.674c-1.16-1.533-2.333-3.065-3.057-4.189
			c-0.748-1.112-1.05-1.819-1.376-2.515c-0.28-2.597-0.299-5.057,0.292-7.231c1.65-3.207,3.048-6.362,4.205-9.456l1.41-0.146
			c1.305,2.946,2.223,6.074,2.672,8.896c0.44,2.839,0.406,5.373,0.016,7.624c-0.4,2.248-1.157,4.222-2.247,5.985"/>
		<path fill-rule="evenodd" clip-rule="evenodd" fill="#45BE40" d="M425.752,192.747c-4.479-3.725-8.985-7.425-12.415-12.388
			c-3.463-4.946-5.846-11.151-8.237-17.368l0.658-0.581c3.756,2.018,7.213,4.646,10.125,7.742c2.909,3.094,5.313,6.68,7.043,10.432
			c1.752,3.761,2.811,7.712,3.198,11.728"/>
		<path fill-rule="evenodd" clip-rule="evenodd" fill="#45BE40" d="M406.275,184.411c-0.449-0.632-1.856-0.512-2.808-0.915
			c-0.748-0.252-1.613-1.064-1.197-1.742c0.043-0.687,0.102-2.835,2.007-2.875c-0.083,1.113,1.592,2.167,1.782,3.041
			C406.46,182.677,406.3,183.573,406.275,184.411"/>
		<path fill-rule="evenodd" clip-rule="evenodd" fill="#45BE40" d="M177.832,440.493c0.067-0.741,0.254-1.454,0.904-2.774
			c0.652-1.309,1.777-3.208,2.609-4.63c1.62-2.772,2.465-4.239,3.714-6.408c2.064-2.076,4.138-4.16,5.695-5.512
			c1.566-1.347,2.614-1.975,3.68-2.6l1.265-0.15c1.625,1.104,2.765,1.39,4.139,2.52c0.899-0.248,3.489,0.477,5.133,0.637
			c1.065,0.096,2.298,0.088,3.348-0.275l0.953,1.918c-0.162,0.649-0.45,1.074-1,1.67c-1.198,1.178-2.639,2.396-2.914,3.645
			c-4.951,2.93-9.917,5.846-14.288,7.697c-4.363,1.846-8.144,2.618-11.919,3.37"/>
		<path fill-rule="evenodd" clip-rule="evenodd" fill="#45BE40" d="M159.672,426.989c-4.213-0.363-6.812-0.087-9.959-0.454
			l-1.041-0.873l-3.027,0.286l-2.361-0.742c3.972-3.74,7.952-7.509,11.203-10.057c3.264-2.558,5.816-3.92,8.373-5.285
			c1.479-0.173,2.98-0.227,4.113-0.173c1.898,0.101,2.923,0.4,4.155,1.204c0.226,1.753,2.199,0.358,3.506,2.525
			c0.062,0.142,0.083,0.272,0.107,0.42c1.507,0.696,3.032,1.381,4.197,2c1.153,0.607,1.939,1.149,2.734,1.694
			c-0.828,0.133-1.232,0.328-1.952,0.975c-0.441,0.406-1.008,1.023-1.516,1.681l-2.439-0.283l0.591,1.536
			c-1.623,0.951-3.264,1.902-6.049,2.816C167.523,425.189,163.602,426.082,159.672,426.989"/>
		<path fill-rule="evenodd" clip-rule="evenodd" fill="#45BE40" d="M206.017,411.62c-1.819-0.121-3.285-0.157-4.205-0.187
			c-0.475-0.033-1.082-0.092-1.698-0.174c-3.481-1.531-7.037-4.197-10.704-7.812l0.387-1.032c2.573-0.347,5.138-0.702,6.907-0.952
			c1.795-0.257,2.785-0.437,4.084-0.618c1.315-0.187,2.947-0.39,4.571-0.579l4.438,1.404l2.668,2.574l0.271,2.96
			c-0.266,0.996-1.474,2.265-3.014,3.611C208.34,410.826,207.016,410.678,206.017,411.62"/>
		<path fill-rule="evenodd" clip-rule="evenodd" fill="#45BE40" d="M181.75,408.384c-2.169-0.695-4.251-1.711-6.291-3.143
			c-2.041-1.439-4.039-3.311-5.891-5.578c-1.833-2.282-3.527-4.967-4.884-7.812c1.499-0.292,3.031-0.594,5.412-0.759
			c2.36-0.16,5.601-0.186,8.843-0.198c2.556,0.354,4.816,0.753,7.081,2.729c-0.346,0.539-0.25,1.14-1.544,1.709
			c-0.45,0.193-1.024,0.409-2.265,0.669c-1.241,0.25-3.131,0.568-5.055,0.796l-1.532,2.14c0.991,1.6,2.494,3.262,4.147,5.292
			c0.973,1.141,1.952,2.39,2.939,3.632"/>
		<path fill-rule="evenodd" clip-rule="evenodd" fill="#45BE40" d="M140.113,407.457c-3.24,0.283-6-0.032-7.703-0.253
			c-1.69-0.228-2.315-0.337-3.596-0.426c-1.274-0.071-3.182-0.109-5.088-0.09c-4.205-1.328-6.711-1.286-10.033-2.731l-0.441-1.696
			c4.429-2.96,8.867-5.921,12.498-7.694c3.626-1.769,6.448-2.352,9.275-2.938c3.215,3.162,6.653,6.102,9.126,7.939
			c2.489,1.831,4.005,2.547,5.578,3.062c1.582,0.505,3.206,0.8,4.847,0.891l-0.878,1.101c-0.996,0.264-1.995,0.507-4.317,1.076
			C147.032,406.273,143.343,407.17,140.113,407.457"/>
		<path fill-rule="evenodd" clip-rule="evenodd" fill="#45BE40" d="M151.553,393.624c-1.915-0.966-3.73-2.135-5.465-3.525
			c-1.729-1.394-3.365-3.005-4.872-4.818c-1.503-1.831-2.876-3.845-4.056-5.977l0.513-0.882c4.305-0.39,8.576-0.752,11.907-0.783
			c3.326-0.029,5.67,0.307,8.022,0.638c1.496,1.067,2.728,1.89,3.426,2.293c0.559,0.388,1.55,0.941,2.34,2.421
			c-1.228,0.27-2.452,0.536-4.375,0.489c-1.919-0.03-4.534-0.411-7.132-0.772l-0.899,1.101c0.05,0.691,0.217,1.353,0.654,2.289
			c0.438,0.938,1.162,2.151,1.632,2.916c0.461,0.774,0.679,1.103,1.002,1.725c0.326,0.634,0.747,1.576,1.15,2.531
			C154.976,393.334,153.252,393.481,151.553,393.624"/>
		<path fill-rule="evenodd" clip-rule="evenodd" fill="#45BE40" d="M191.112,386.319c-1.428-0.531-2.86-1.062-3.888-1.513
			c-1.024-0.445-1.624-0.791-2.24-1.148c-0.533,0.149-2.431-0.229-4.338-0.59c-0.958-1.524-1.899-3.054-2.506-6.568
			c-0.621-3.521-0.857-9.019-1.125-14.533l2.065-3.549c1.624,0.343,2.644,2.581,4.205,4.289c0.462,0.476,0.986,0.922,1.557,1.324
			c0.642,1.994,1.278,3.981,1.907,5.353c0.641,1.37,1.291,2.094,1.94,2.839c0.987,3.035,1.977,6.068,2.377,8.416
			C191.488,382.985,191.287,384.654,191.112,386.319"/>
		<path fill-rule="evenodd" clip-rule="evenodd" fill="#45BE40" d="M114.576,388.534c-3.023-0.208-6.037-0.417-9.725-1.325
			c-3.668-0.923-8.002-2.56-12.332-4.219c-0.316-0.259-0.649-0.517-1.581-1.083c-0.928-0.547-2.436-1.391-3.964-2.235l0.966-1.099
			c3.956-1.223,7.918-2.436,11.212-2.946c3.293-0.489,5.924-0.243,8.564-0.009c1.565,1.991,3.139,3.977,5.508,5.659
			c2.402,1.696,5.592,3.077,8.796,4.451l0.167,1.034C119.446,386.998,116.857,387.441,114.576,388.534"/>
		<path fill-rule="evenodd" clip-rule="evenodd" fill="#45BE40" d="M125.792,378.646c-2.456-0.831-4.105-0.831-6.049-1.854
			c-1.233-1.846-2.898-2.844-4.725-3.683c-1.715-2.596-3.223-5.334-4.164-7.444c-1.715-3.88-1.757-6.036-1.374-8.797
			c1.964,0.326,3.996,1.083,6.137,2.148c0.482-0.037,0.949-0.074,2.405,0.278c1.649,0.405,4.846,1.419,7.348,2.178
			c0.97,0.561,1.503,1.063,2.107,1.502c0.804,0.621,2.011,1.389,3.039,1.653c0.062,1.133,1.433,2.947,1.469,4.35l-0.883,1.103
			c-1.627-0.141-3.272-0.275-4.475-0.499c-1.236-0.22-2.019-0.523-2.831-0.828l-0.878,1.11c0.191,0.794,0.39,1.579,1.141,2.942
			c0.74,1.373,2.06,3.303,3.363,5.247"/>
		<path fill-rule="evenodd" clip-rule="evenodd" fill="#45BE40" d="M164.918,374.213c-0.334-0.377-0.7-0.709-1.225-1.034
			c-0.533-0.342-1.208-0.666-2.273-1.025c-1.09-0.355-2.573-0.74-3.605-1.014c-1.989-0.501-2.876-0.795-4.263-1.495
			c0.283-4.641,0.595-9.271,0.837-12.096c0.212-2.848,0.328-3.879,0.425-5.41c0.087-1.533,0.137-3.568,0.137-5.6
			c0.7,0.47,1.408,0.938,2.652,2.394c1.238,1.456,3.015,3.882,4.801,6.313c1.248,2.981,2.473,5.967,3.139,9.03
			c0.641,3.059,0.712,6.209,0.774,9.348"/>
		<path fill-rule="evenodd" clip-rule="evenodd" fill="#45BE40" d="M99.663,367.492c-6.598-0.908-13.134-2.419-18.26-4.077
			c-5.107-1.667-8.801-3.508-11.928-5.541c-3.11-2.025-5.683-4.232-7.897-6.76l0.441-0.892c3.023-0.602,6.078-1.216,9.143-1.216
			c3.103,0,6.245,0.614,9.376,1.216c3.772,3.668,7.802,7.113,10.642,9.216c2.831,2.103,4.484,2.878,6.161,3.421
			c1.691,0.539,3.406,0.863,5.13,0.948l0.882,2.726c-0.3,0.345-1.582,0.438-2.015,0.494
			C100.908,367.088,100.195,367.19,99.663,367.492"/>
		<path fill-rule="evenodd" clip-rule="evenodd" fill="#45BE40" d="M137.907,363.595c0.049-0.705-1.217-1.367-2.291-2.297
			c-1.124-1.102-0.592-2.03-2.215-3.027c-2.094-1.467-5.934-2.974-8.934-5.314c-0.055-1.928-0.092-3.868,0.799-6.839
			c0.896-2.958,2.74-6.946,4.58-10.938l1.332-1.037c2.457,5.447,4.896,10.903,6.037,15.807
			C138.327,354.844,138.106,359.222,137.907,363.595"/>
		<path fill-rule="evenodd" clip-rule="evenodd" fill="#45BE40" d="M99.363,355.909c-2.422-0.889-4.654-2.348-6.519-4.444
			c-3.531-4.088-6.241-10.038-7.806-15.029c-0.729-2.441-1.09-4.756-1.178-7.09c2.91,0.745,5.824,1.487,8.834,3.024
			c2.999,1.536,6.096,3.87,9.176,6.2c0.662,0.88,1.299,1.767,2.024,3.105c0.708,1.343,1.491,3.149,2.273,4.938l-0.45,1.481
			c-1.532-0.621-3.077-1.238-4.046-1.691c-0.983-0.46-1.374-0.742-1.778-1.045l-1.562,0.742c0.517,2.219,1.074,3.911,1.657,5.525
			c0.45,1.377,1.07,2.974,0.932,4.139"/>
		<path fill-rule="evenodd" clip-rule="evenodd" fill="#45BE40" d="M113.101,344.024c-1.922-4.391-5.02-8.866-9.149-13.426
			c0.083-1.036,0.299-2.065,0.724-3.284c0.998-2.647,2.564-6.158,3.697-9.628c0.907-1.614,1.977-2.811,2.768-4.441
			c0.342-0.662,0.703-1.852,1.894-2.201l1.1,0.891c0.533,7.142,1.082,14.271,1.19,18.794c0.133,4.519-0.15,6.384-0.458,8.271
			C113.985,340.053,114.31,342.147,113.101,344.024"/>
		<path fill-rule="evenodd" clip-rule="evenodd" fill="#45BE40" d="M68.663,336.061c-4.413-0.871-8.825-3.133-13.255-7.528
			c-2.144-2.141-4.214-4.771-5.929-7.596c0.408-1.328-1.685-2.464-1.511-3.589c-0.012-0.218-0.012-0.462,0.029-0.691
			c1.466-0.093,2.923-0.166,3.826-0.192c0.883-0.037,1.17-0.024,1.869-0.061c0.695-0.038,1.773-0.104,2.864-0.203
			c0.567,0.574,0.667,0.556,1.278,0.748c1.62,0.459,2.54,0.173,4.144,1.151c0.241,0.174,0.42,0.35,0.557,0.548
			c0.587,2.591,1.174,5.188,2.665,8.044c1.49,2.843,3.872,5.96,6.287,9.078"/>
		<path fill-rule="evenodd" clip-rule="evenodd" fill="#45BE40" d="M75.083,328.671c-0.982-1.015-1.832-2.17-2.589-3.568
			c-0.766-1.391-1.465-3.044-2.256-6.161c-0.771-3.11-1.675-7.724-2.315-12.325l2.448-0.293c0.687,0.323,1.369,0.662,2.597,1.723
			c1.225,1.074,2.998,2.889,4.78,4.694c1.49,1.148,2.431,4.299,4.575,6.706l-0.37,0.896c-0.783-0.05-1.449,0.011-2.065-0.697
			c-1.178-0.816-1.591-0.522-2.802-1.854c-0.138-0.192-0.229-0.411-0.299-0.62l-2.885,0.289c0.109,0.826,0.2,1.635,0.399,3.503
			C74.487,322.831,74.792,325.75,75.083,328.671"/>
		<path fill-rule="evenodd" clip-rule="evenodd" fill="#45BE40" d="M92.519,320.713c-1.353-2.835-2.697-5.657-4.039-7.817
			c-1.348-2.141-2.673-3.626-4.029-5.104c0.058-4.64,1.848-9.604,5.953-14.463c1.995-2.344,4.517-4.564,7.269-6.429
			c0.562,4.687,1.116,9.361,1.133,13.644c0.042,4.272-0.475,8.159-0.983,12.053c-0.216,0.481-0.42,0.965-1.02,2.118
			c-0.583,1.163-1.557,2.979-2.527,4.826"/>
		<path fill-rule="evenodd" clip-rule="evenodd" fill="#45BE40" d="M61.207,304.848c-1.195-1.47-2.144-3.136-2.877-5.169
			c-0.74-2.031-1.257-4.422-1.424-7.612c-0.183-3.18,0-7.158,0.533-11.061l1.333-0.139c2.681,2.689,5.358,5.392,7.04,7.849
			c1.669,2.458,2.335,4.678,3.002,6.896c-0.882-1.159-3.181-0.348-4.855-2.378c-0.379-0.648-2.29-2.677-3.714-1.894
			C59.655,294.862,62.069,300.127,61.207,304.848"/>
		<path fill-rule="evenodd" clip-rule="evenodd" fill="#45BE40" d="M50.428,302.479c-0.637,0.202-1.89-0.342-2.451-0.637
			c-0.5-0.271-1.299-0.519-2.053-0.47c-1.499-1.344-3.039-2.693-4.655-4.75c-1.631-2.056-3.347-4.81-5.078-7.575l-1.329-2.952
			c-0.271-1.435-0.479-2.704,0.22-3.837c1.325,0.225,2.641,0.442,4.597,1.049c1.932,0.622,4.504,1.631,7.069,2.642l2.731,2.439
			c0.071,4.518,0.941,9.175,2.444,13.948"/>
		<path fill-rule="evenodd" clip-rule="evenodd" fill="#45BE40" d="M75.97,295.329c-0.945-2.391-1.878-4.771-2.86-6.564
			c-0.966-1.797-1.973-3.008-2.972-4.216c-0.154-0.576-0.125-0.878,0.021-1.421c0.653-1.755,1.407-2.635,0.87-4.109
			c1.582-2.661,3.156-5.3,4.554-7.162c1.383-1.854,2.598-2.916,3.789-3.987c1.199-0.062,2.453-2.084,3.688-1.989
			c0.316,4.342,0.634,8.688,0.433,12.295c-0.175,3.599-0.857,6.469-1.539,9.326c-0.891,1.856-1.898,3.664-2.648,4.833
			C77.78,294.642,77.085,294.794,75.97,295.329"/>
		<path fill-rule="evenodd" clip-rule="evenodd" fill="#45BE40" d="M49.621,279.748c-3.472-1.61-6.636-3.917-9.633-7.21
			c-2.985-3.29-5.82-7.562-8.168-12.792c-2.36-5.225-4.222-11.408-5.312-17.704l1.487,0.292c2.635,1.995,5.291,3.981,7.057,5.576
			c1.739,1.611,2.618,2.806,3.497,4.015c0.595,5.643,1.19,11.268,1.79,16.904c2.177,2.435,4.371,4.89,6.049,6.543
			c1.669,1.659,2.822,2.54,3.976,3.419"/>
		<path fill-rule="evenodd" clip-rule="evenodd" fill="#45BE40" d="M57.66,270.447c-2.068-1.358-1.981-3.214-4.275-5.444
			l-2.282,1.243c0.47,1.29,0.883,2.965-0.142,4.498c-0.57-0.191-1.158-0.245-1.715-0.593c-0.158,0.032-0.792-1.51-0.941-1.854
			c-0.225-0.433-0.633-1.553-1.49-1.899c-0.23-2.248-0.475-4.489-0.617-5.927c-0.149-1.437-0.215-2.08-0.274-2.708
			c0.242-1.66,0.462-3.322,0.674-4.988c0.429-3.127,0.425-5.712,1.132-7.845c0.351-1.039,0.979-2.238,1.749-3.334l1.025,0.518
			c2.76,4.11,5.124,8.513,6.569,12.071c1.445,3.563,1.999,6.255,2.169,8.756c0.162,2.508-0.045,4.795-0.612,7.001"/>
		<path fill-rule="evenodd" clip-rule="evenodd" fill="#45BE40" d="M65.929,266.757c-0.529-3.845-1.045-7.696-1.699-10.499
			c-0.62-2.813-1.336-4.561-2.052-6.324l0.874-1.105c1.278-0.871,2.386-1.605,3.131-2.118c0.558-0.398,1.349-0.92,1.965-1.731
			c2.299-0.751,4.597-1.516,6.196-2.002c1.59-0.491,2.498-0.719,3.405-0.936c0.17,1.536,0.058,3.094-0.5,5.537
			c-0.574,2.446-1.59,5.812-2.735,8.421c-1.161,2.597-2.426,4.451-3.851,6.157C69.238,263.856,67.656,265.411,65.929,266.757"/>
		<path fill-rule="evenodd" clip-rule="evenodd" fill="#45BE40" d="M41.569,243.007l-1.752-1.411
			c-2.765-5.082-5.517-10.16-6.757-15.462c-1.224-5.305-0.932-10.824-0.637-16.353l1.336-1.028c0.534,0.44,1.058,0.865,1.994,2.131
			c0.929,1.272,2.219,3.381,3.527,5.472c-0.617,4.927-0.917,9.92-0.858,13.438c0.055,3.521,0.446,5.59,1.044,7.389
			c0.604,1.813,1.383,3.39,2.402,4.793"/>
		<path fill-rule="evenodd" clip-rule="evenodd" fill="#45BE40" d="M61.053,239.02l-1.32-0.297
			c-0.503-3.908,2.37-9.631,1.395-14.541l1.183-2.952c2.66-1.696,5.337-3.393,7.848-4.467c2.522-1.064,4.917-1.502,7.293-1.95
			c-0.045,0.428-0.104,0.871-0.416,1.806c-0.324,0.93-0.899,2.37-1.502,3.796l-1.262,1.48c-1.14,3.434-2.286,6.858-4.083,9.509
			c-1.815,2.637-4.026,4.904-6.762,6.348"/>
		<path fill-rule="evenodd" clip-rule="evenodd" fill="#45BE40" d="M53.243,235.027c-0.566-0.526-1.125-0.567-1.391-1.868
			c-0.379-0.807-0.871-1.496-1.083-1.937c-0.133-0.275-0.316-0.654-0.478-1.058l-1.421,0.138c-0.854,0.857-1.169,2.702-2.306,4.157
			c-0.274,0.355-0.582,0.657-0.932,0.934c-1.078-1.363-0.308-3.5-1.116-5.305c0.45-3.542,1.099-7.076,1.67-9.363
			c0.561-2.287,1.053-3.321,1.607-4.198c0.565-0.887,1.186-1.616,1.894-2.223c-0.325-1.57,2.415-2.959,1.856-4.439l1.321-1.182
			c1.032,2.771,2.084,5.538,2.293,9.844c0.196,4.301-0.458,10.154-1.111,15.994"/>
		<path fill-rule="evenodd" clip-rule="evenodd" fill="#45BE40" d="M60.845,212.376c-0.37-0.566-0.657-1.182-0.975-2.271
			c-0.308-1.077-0.666-2.661-0.916-3.825c-0.5-2.229-0.875-3.466-1.731-5.194l1.328-2.883c1.132-0.922,2.236-1.822,4.708-3.443
			c2.439-1.616,6.253-3.922,10.063-6.223c1.111,0.97,0.237,2.315,0.812,3.689c-1.332,3.606-2.898,7.126-4.317,9.786
			c-1.395,2.64-2.644,4.43-4.076,6.055C64.293,209.677,62.635,211.145,60.845,212.376"/>
		<path fill-rule="evenodd" clip-rule="evenodd" fill="#45BE40" d="M43.726,209.352l-1.407-1.481
			c-0.125-2.353-0.258-4.714-0.429-6.354c-0.158-1.649-0.383-2.603-0.611-3.532c0.532-3.051,1.065-6.118,1.353-8.051
			c0.291-1.946,0.312-2.774,0.354-3.614c0.45-0.2,0.587-1.549,0.792-2.244c0.162-0.568,0.607-2.709,1.998-2.321
			c1.099,2.469,2.193,4.796,3.551,6.783c-0.004,0.978,1.066,2.717,1.495,3.88c0.653,1.229,0.899,3.058,0.475,4.544
			c-0.816,1.45-2.048,2.669-1.969,4.051C47.798,203.799,45.915,206.574,43.726,209.352"/>
		<path fill-rule="evenodd" clip-rule="evenodd" fill="#45BE40" d="M56.341,192.148c-0.383-1.03-0.774-2.046-0.704-4.194
			c0.041-2.134,0.529-5.381,1.003-8.637c1.07-2.245,2.173-4.486,3.114-6.111c0.925-1.629,1.724-2.639,2.49-3.639
			c0.325-0.884,0.757-1.719,1.673-2.968c0.903-1.253,2.286-2.917,3.376-4.005c2.195-2.189,3.635-2.576,5.567-3.908
			c0.982-0.65,1.982-1.359,2.965-2.103c1.602-0.159,3.105-0.294,4.279-0.441c-0.083,1.146-0.253,2.292-0.407,3.128
			c-0.458,1.724-0.525,2.48-2.307,3.883c-3.189,6.414-6.353,12.835-9.858,17.66C64.03,185.649,60.188,188.903,56.341,192.148"/>
	</g>
	<path fill="#1F1A17" d="M348.338,152.918l-14.179,5.422c-0.012,0.198-0.027,0.369-0.04,0.575c-0.076,1.263-0.092,2.768-0.135,4.328
		l14.48-5.521C348.474,156.25,348.511,153.866,348.338,152.918z"/>
	<path fill-rule="evenodd" clip-rule="evenodd" fill="#E63331" d="M222.699,380.214c0,1.09,0.079,2.414,0.221,3.425
		c0.15,1.01,0.35,1.706,0.675,2.37c1.589,1.637,3.438,1.834,5.836,0.828c0.287-0.178,0.541-0.375,0.716-0.612
		c0.533-1.179,0.583-2.084,0.732-3.709c0.075-1.042,0.095-2.383,0.075-3.54c-0.016-1.161-0.108-2.164-0.208-2.93
		c-0.267-1.445-0.166-2.196-1.573-3.156c-1.241-0.587-2.999-1.136-4.854,0.463c-0.883,1.259-1.249,2.489-1.458,4.111
		C222.744,378.242,222.669,379.125,222.699,380.214 M222.699,369.404c0.737-1.066,1.62-1.59,2.577-1.923
		c2.657-1.021,6.977-1.555,10.895,1.43c0.637,0.592,1.205,1.351,1.686,2.289c0.484,0.935,0.892,2.047,1.174,3.256
		c0.58,2.288,0.65,5.662,0.158,8.816c-0.241,1.5-0.59,2.764-1.022,3.845c-0.413,1.062-0.908,1.943-1.518,2.734
		c-0.681,0.654-1.452,1.205-2.414,1.677c-1.99,1.04-4.913,1.508-7.681,1.496c-1.453-0.014-2.835-0.136-4.055-0.462
		c-1.204-0.326-2.228-0.862-3.144-1.506c-0.899-0.628-1.69-1.34-2.348-2.175c-0.691-1.206-1.199-2.525-1.516-4.134
		c-0.333-1.604-0.491-3.508-0.591-6.238c-0.091-2.735-0.107-6.294-0.024-9.126c0.092-2.819,0.305-4.913,0.558-6.455
		c0.241-1.544,0.545-2.543,1.033-3.477c0.5-0.933,1.194-1.798,1.865-2.482c1.636-1.672,3.097-2.171,5.003-2.66
		c2.007-0.491,4.838-0.668,7.382-0.235c1.154,0.182,2.136,0.459,2.928,0.814c1.315,0.603,2.33,1.283,3.456,2.755
		c1.018,1.459,1.324,3.355,1.24,5.184h-7.669c0.041-0.976-0.071-2.619-1.383-3.383c-1.173-0.588-3.047-0.908-4.879,0.551
		c-0.661,0.724-0.84,1.125-1.125,1.869C222.661,363.529,222.669,366.639,222.699,369.404z"/>
	<path fill-rule="evenodd" clip-rule="evenodd" fill="#E63331" d="M244.105,380.173h7.669c-0.071,1.819,0.163,4.056,1.096,5.836
		c1.499,1.834,3.041,1.947,5.002,1.464c0.702-0.258,1.41-0.725,2.109-1.761c0.541-1.206,0.665-2.347,0.797-3.974
		c0.071-0.999,0.083-2.177,0.056-3.187c-0.019-1.031-0.096-1.899-0.222-2.589c-0.305-1.478-0.478-2.274-1.851-3.556
		c-1.438-1.014-3.604-1.238-5.599-0.049c-0.89,0.713-1.426,1.63-1.389,2.426h-7.373l1.105-20.222h21.326v6.128h-15.059l-0.293,7.754
		c0.549-0.519,1.487-1.099,2.519-1.699c2.01-0.525,4.617-0.612,7.062-0.111c1.875,0.4,3.205,0.988,4.574,2.377
		c1.423,1.496,2.312,3.219,2.866,5.108c0.646,2.158,0.785,5.184,0.412,8.007c-0.163,1.395-0.439,2.659-0.837,3.74
		c-0.372,1.074-0.828,1.985-1.346,2.758c-1.339,1.907-2.619,2.639-4.22,3.31c-1.865,0.768-4.76,1.159-7.453,1.066
		c-1.363-0.051-2.586-0.241-3.635-0.506c-1.819-0.507-3.141-1.124-4.434-2.572c-0.541-0.598-1.053-1.319-1.483-2.175
		C244.418,385.657,244.005,382.872,244.105,380.173"/>
	<path fill="#1F1A17" d="M296.382,172.971l-1.133-0.468c0,0-0.664,1.933-1.997,3.064c0,0,1.815,1.979,1.798,1.999l-2.531,6.594
		c0.958,0.793,2.43,4.424,2.531,4.596l4.983-12.599l12.089-4.605c0.037-1.531-0.09-4.626-0.087-4.644L296.382,172.971z"/>
	<g>
		<g>
			<path fill="#1F1A17" d="M464.419,237.845c-1.607-0.379-2.848-0.115-4.993,0.959c-0.945,0.486-2.226,1.222-3.448,2.047
				l-1.317-1.929c0.225-0.901,0.432-1.81,0.859-3.036c0.415-1.237,1.031-2.78,1.622-4.324c1.025-4.815,1.563-9.734,1.61-14.106
				c0.04-4.386-0.453-8.246-1.238-11.556c-0.797-3.324-1.936-6.081-3.453-8.641l-3.562-1.458c-0.392-2.096-0.792-4.2-2.032-7.645
				c-1.283-3.467-3.398-8.281-5.52-13.096l-1.194-0.588c-0.757,0.379-1.475,0.865-2.137,1.496c-1.391,1.373-2.068,2.338-2.875,3.639
				c-1.016,1.646-2.314,3.51-3.247,3.863l-1.397-0.727c-0.592-1.769-1.176-3.551-2.54-5.796c-1.357-2.262-3.481-4.996-5.611-7.741
				c-0.475-0.198-0.924-0.479-1.343-0.98c-0.708-0.941-0.997-1.832-1.44-2.893c-2.065-1.285-4.112-2.586-5.418-3.52
				c-1.283-0.943-1.791-1.545-2.3-2.117c-2.646-12.286-6.726-24.234-12.331-35.901c-5.597-11.67-12.68-23.035-21.266-33.694
				c-8.591-10.666-18.627-20.597-30.035-29.869c-11.365-9.263-24.069-17.868-36.641-24.242
				c-12.569-6.383-25.024-10.554-37.82-13.376c-12.797-2.818-25.957-4.307-38.967-4.263c-13.031,0.05-25.913,1.64-38.336,4.625
				c-12.415,2.995-24.372,7.399-35.545,13.16c-11.178,5.782-21.574,12.915-31.625,21.143c-10.041,8.224-19.724,17.546-28.239,27.953
				c-8.509,10.408-15.85,21.912-21.956,34.316c-6.096,12.403-10.946,25.732-14.318,39.411c-1.835,0.281-3.464,3.751-4.754,3.513
				c-2.098,2.545-4.213,5.092-5.403,6.862c-1.208,1.776-1.507,2.792-1.82,3.799c-0.367,0.146-0.716,0.351-1.027,0.681
				c-1.4,1.714-1.113,4.115-2.516,4.062c-2.206-2.115-2.114-3.981-4.279-5.29c-0.899-0.162-1.957-0.289-2.664,0.166
				c-0.717,0.314-2.169,1.923-3.256,1.771c-0.158,2.186-0.491,4.331-1.391,7.623c-0.866,3.219-2.36,7.526-3.854,11.821
				c-0.175,1.438,0.149,2.149,0.008,4.089l-1.066,0.982c-0.287-0.125-0.583-0.265-0.851-0.454c-1.324-1.042-1.656-1.884-2.214-2.576
				c-1.029-1.515-1.865-1.576-2.889-1.498l-1.166,1.635c-2.747,9.739-3.747,19.753-2.876,28.123
				c0.404,4.127,1.187,7.913,2.386,11.579c-0.991,0.592-2.07,0.63-2.86,0.516c-0.512-0.055-1.512-0.269-2.328-0.313
				c-0.741-0.021-1.091,0.059-1.873,0.443c0.7,8.534,1.416,17.088,2.781,22.941c1.39,5.873,3.438,9.058,5.474,12.259l-0.253,0.834
				l-2.606,0.739l-1.849,2.69c0.142,1.302,0.279,2.6,1.149,5.405c0.87,2.806,2.452,7.102,4.038,11.411
				c2.853,3.687,4.609,7.479,7.757,11.298c0.254,1.339,2.352,2.324,2.315,3.601l-2.207,2.222c0.437,2.703,0.861,5.406,2.635,9.311
				c1.756,3.889,4.871,8.965,7.968,14.044c0.774,0.746,1.507,1.516,2.127,2.234c1.233,1.52,2.61,3.31,4.392,5.329
				c0.504,0.25,1.016,0.494,1.574,1.063c0.566,0.574,1.199,1.456,1.815,2.354l-0.242,0.859c-2.106,0.928-4.504,1.315-7.052,1.521
				v3.097c1.473,1.853,3.005,3.653,4.229,4.944c1.241,1.298,2.161,2.107,3.318,3.283c1.17,1.168,2.577,2.701,4.109,4.243
				c1.515,1.545,3.164,3.072,6.486,5.158c3.305,2.079,8.301,4.732,13.439,7.046c-0.758,0.951-1.562,1.062-2.14,1.199
				c-1.062,0.212-3.098,0.655-3.436,1.035l-0.329,1.637c1.596,2.399,3.494,4.587,5.604,6.504c2.115,1.912,4.479,3.536,8.123,5.463
				c3.643,1.921,8.6,4.144,13.676,6.032c2.223,0.289,4.488,0.93,6.761,1.913l-0.333,1.298c-1.083,1.268-1.898,1.724-3.485,3.321
				l-1.278,0.604c-0.586,1.184-1.115,2.368-1.215,2.891c-0.379,0.8,0.599,1.711,1.249,2.742c1.573-0.139,2.747,1.716,4.45,0.983
				c6.732,2.58,13.448,5.158,18.838,6.374c5.396,1.222,9.468,1.074,13.522,0.93l0.433,1.042c-1.491,3.009-3.53,6.051-4.892,8.387
				c-0.579,1.055-0.882,1.944-1.057,2.858l0.553,1.533c0.733,0.334,1.192,0.563,1.792,0.965c0.74,0.516,1.48,0.854,1.939,0.891
				c10.046,0.759,19.842,0.889,29.563-0.036l2.031,1.903c-0.953,1.702-1.886,3.401-2.718,5.66c-0.816,2.276-1.508,5.102-2.177,7.933
				l1.17,1.331c8.422-2.025,16.844-4.071,23.571-6.417c6.762-2.338,11.837-5.007,16.912-7.66c1.016-1.207,1.544-1.856,2.852-2.969
				c0.571-0.516,1.461-1.31,2.079-2.012c0.616-0.692,0.949-1.279,1.181-1.894c0.72-3.45,1.428-6.898,2.173-9.615
				c0.75-2.718,1.516-4.702,2.281-6.678l1.233-0.446c1.362,0.96,2.594,1.251,4.563,1.945c1.133,0.403,2.565,0.96,3.989,1.534
				l0.758,1.026c-2.314,2.582-4.655,5.188-6.112,7.101c-1.478,1.916-2.077,3.123-2.689,4.353c-0.142,0.526-0.334,1.047-0.479,1.411
				c-0.249,0.629-0.995,1.674-1.466,2.876c-0.253,0.64-0.349,1.146-0.337,1.662l1.175,1.574c1.27,0.534,2.623-0.02,3.522,0.194
				c0.517,0.469,1.178-0.108,1.766-0.282c0.566-1.558,1.116-3.104,2.439-5.088c1.324-1.979,3.405-4.376,5.479-6.77
				c1.049-0.361,2.078-1.184,3.354-1.988c0.639-0.379,1.034-0.479,1.875-0.502c2.722,2.267,5.454,4.531,7.45,6.88
				c2.01,2.372,3.291,4.82,4.571,7.286c0.551-0.343,1.087-0.695,1.443-0.943c0.582-0.396,1.176-1.037,2.321-1.769
				c0.514-0.311,0.991-0.477,1.475-0.563l0.729-1.859c-0.754-1.369-1.478-2.733-2.62-4.514c-1.123-1.795-2.521-4.092-4.168-6.214
				l-1.711-2.217l0.396-1.299l2.454-1.195c1.345,0.158,2.632,0.743,3.885,1.913c0.422,0.532,0.871,1.031,1.216,1.388
				c0.658,0.713,1.859,1.658,2.749,2.612c0.815,0.908,1.09,1.513,1.385,2.541c-0.059,1.117,0.299,2.441,0.635,3.364
				c0.295,0.839,1.028,2.34,1.486,3.616c0.24,0.65,0.299,1.066,0.323,1.468c1.801,2.898,4.106,5.465,6.997,7.776
				c2.878,2.309,6.369,4.36,12.156,6.266c5.809,1.916,13.945,3.702,22.13,4.69l2.487-0.242c-0.046-2.047-1.438-4.965-2.296-6.815
				c-0.499-1.013-0.758-1.51-1.28-2.583c-0.533-1.064-1.318-2.704-1.783-3.994c-0.452-1.296-0.6-2.247-0.551-3.21l0.312-0.844
				c1.569,0.396,3.155,0.774,4.294,1.224c1.133,0.46,1.822,0.957,2.506,1.472c6.348,1.056,12.747,1.705,17.278,1.825
				c4.537,0.123,7.17-0.278,9.476-0.892c2.323-0.637,4.328-1.475,6.187-2.607l1.309-3.012c-0.893-1.357-1.801-2.709-3.158-4.402
				c-1.357-1.706-3.204-3.757-5.045-5.825l0.597-1.83c6.778-0.17,13.557-0.347,19.178-1.382c5.628-1.041,10.134-2.952,14.622-4.87
				c0.801-1.601,2.839-2.156,3.146-3.47c-0.176-2.656-4.312-5.439-4.245-8.037c3.121-0.865,6.268-1.738,10.774-3.853
				c4.463-2.094,10.318-5.434,16.137-8.752c2.438-2.354,4.278-4.544,4.746-6.358c-1.059-2.277-2.656-3.596-4.057-6.431
				c1.526-1.291,3.022-2.582,7.578-5.713c4.522-3.134,12.113-8.078,19.674-13.032l0.874-1.693c0.776-0.292,1.601-0.936,2.294-1.671
				c1.056-1.07,2.204-2.754,3.103-3.053l-1.29-1.545c-1.08-0.504-2.183-1.009-3.931-1.622c-1.73-0.606-4.112-1.333-6.486-2.057
				l-0.142-1.341c0.967-0.931,1.924-1.859,3.39-2.866c1.456-1.026,3.433-2.133,5.402-3.244c5.538-4.862,11.061-9.714,14.456-13.43
				c3.396-3.714,4.663-6.285,5.929-8.859l-0.641-1.545c-0.791-0.43-1.822-0.474-2.725-0.594c-1.363-0.182-3.829-0.248-4.411-0.82
				c3.005-2.514,6.019-5.014,10.039-10.282c4.029-5.25,9.044-13.279,14.074-21.299c-0.973-1.522,0-2.946-1.324-4.083
				c-1.649-0.552-4.556,0.404-5.72-0.134l-0.409-0.785c0.576-0.839,1.127-1.695,1.49-2.327c0.382-0.641,0.557-1.041,1.01-1.892
				c0.439-0.85,1.114-2.146,1.705-3.039c0.582-0.896,1.108-1.397,1.699-1.799c0.499-1.178,0.991-2.34,1.724-4.271
				c0.724-1.935,1.666-4.608,2.599-7.316c0.588-4.202,1.191-8.407,1.308-11.284C465.143,240.981,464.779,239.421,464.419,237.845z
				 M443.843,215.473c1.45-1.942,2.808-3.729,3.697-4.644l1.543-0.588c0.714,2.126,1.416,4.247,1.48,7.581
				c0.073,3.333-0.483,7.879-1.031,12.41l-1.314,1.558l0.139,1.315c-1.432,3.147-3.082,6.185-4.396,8.226
				c-1.363,2.035-2.373,3.075-2.955,3.629c-0.572,0.571-0.708,0.661-0.831,0.767c-0.142,0.096-0.252,0.197-0.394,0.314
				c-0.416-1.491-0.838-2.955-1.022-3.928c-0.203-0.95-0.176-1.396-0.16-1.845l2.813-1.994c0.732-0.892,1.317-1.895,1.768-3.063
				c0.443-1.171,0.766-2.49,0.883-4.096c0.099-1.617,0.016-3.522-0.092-5.274C443.695,222.506,443.471,219.263,443.843,215.473z
				 M434.759,196.739c1.65-3.207,3.048-6.362,4.205-9.456l1.41-0.146c2.58,5.831,3.546,11.997,2.688,16.521
				c-0.4,2.248-1.157,4.222-2.247,5.985l-1.915,1.031c-1.16-1.533-2.333-3.065-3.057-4.189c-0.748-1.112-1.05-1.819-1.376-2.515
				C434.187,201.332,434.178,198.88,434.759,196.739z M427.842,216.434c0.108-0.691,0.533-1.843,0.724-2.813
				c0.173-0.908,0.173-1.404-0.074-2.346l1.549-0.154l0.815,0.948c1.982,3.379,3.707,6.92,4.686,9.454
				c1.01,2.545,1.283,4.085,1.317,5.606c0.05,1.524-0.132,3.008-0.551,4.433l-1.607-1.397c-0.273,0.021-0.532,0.096-0.754,0.231
				c-1.366,1.596-1.043,2.67-2.001,3.471c-0.498,0.419-0.708,0.537-1.09,0.72c-1.133-0.987-1.988-2.053-2.739-3.178
				c-0.234-1.031-0.449-2.047-0.708-3.719c-0.249-1.676-0.499-3.986-0.767-6.321l1.2-2.795
				C427.617,217.89,427.707,217.067,427.842,216.434z M421.621,293.042l-2.946,0.745l-1.108,2.124
				c-0.674,0.066-1.283,0.438-2.016,1.063c-1.296,1.18-2.022,1.535-3.162,1.447c-0.052-1.392-0.012-2.42,0.921-4.479
				c0.486-1.112,1.302-2.595,2.201-4.011c1.874-1.664,3.247-2.696,4.962-4.016c0.815-0.654,1.924-1.585,2.998-2.546l1.274-0.08
				c0.274,3.665,0.563,7.314,0.305,10.112c-0.265,2.789-1.064,4.721-1.865,6.654l-0.89,0.142c-0.532-1.533-0.2-3.019-0.225-3.993
				C422.138,295.035,422.006,293.795,421.621,293.042z M404.795,321.156c-0.253,0.008-0.526,0.057-0.918,0.188
				c-2.771,1.104-4.888,2.572-7.052,2.101c-0.108-1.085-0.157-2.179-0.108-2.993c0.099-1.267,0.157-1.782,0.933-2.989
				c2.922-2.459,5.837-4.925,8.343-6.597c2.472-1.673,4.513-2.565,6.554-3.441c0.166,3.04-0.016,6.107-0.468,8.558
				c-0.435,2.427-1.124,4.245-2.057,5.851c-0.917,1.644-2.081,3.092-3.457,4.342l-2.194,0.812
				C403.893,324.886,406.294,323.127,404.795,321.156z M381.92,346.016c-2.888-0.748-5.621,1.008-8.41,0.818
				c0.019-0.864,0.16-1.735,0.376-2.425c0.458-1.217,0.689-1.981,3.183-3.504c1.105-0.625,2.645-1.315,4.021-1.913
				c2.57-1.082,5.005-2.156,7.908-3.894c0.169,0.091,0.311,0.118,0.501,0.095c1.364-0.292,2.267-1,3.337-0.463
				c-0.514,1.704-1.099,3.393-1.554,4.619c-0.443,1.203-0.807,1.918-1.324,3.305c-0.532,1.369-1.25,3.393-1.918,5.44
				c-0.396,0.359-0.837,0.731-1.656,1.739c-0.8,0.987-2.013,2.617-3.204,4.239c-0.951-0.147-1.964,1.593-3.048,1.639
				c-0.434,0.068-0.717,0.068-0.927,0.053l-0.757-1.253l1.176-3.103c0.117-0.029,0.225-0.091,0.314-0.159
				c1.182-1.89,0.302-2.865,2.114-3.979L381.92,346.016z M377.931,309.93c0-5.531,0.966-9.078,1.917-12.614
				c0.142-0.98,0.376-1.954,0.606-2.674c0.416-1.13,0.635-1.64,1.832-2.795c1.44,1.572,2.007,2.562,3.639,5.063
				c0.901,1.371,2.241,3.331,3.599,5.267c0.258,2.508,0.508,5.006,0.692,6.87c0.188,1.87,0.305,3.108,0.422,4.355
				c-0.724,4.39-2.672,8.795-3.112,13.214c-0.917,0.963-2.001,1.772-3.155,2.375c-1.865,0.943-3.94,1.416-4.131,1.396
				c-0.157,0.021-0.302,0.05-0.469,0.059C378.848,322.958,377.915,315.456,377.931,309.93z M391.937,257.931
				c-0.382,2.909-0.699,5.829-0.905,8.311c-0.185,2.494-0.259,4.58-0.526,8.433c-0.273,3.871-0.724,9.519-1.234,15.146l-2.281-1.444
				c-0.273-1.172-1.339-2.557-2.139-3.381c-0.323-0.353-0.49-0.506-1.022-1.049c-0.532-0.547-1.432-1.489-2.065-2.284
				c-0.634-0.798-0.991-1.477-1.259-2.186l-1.379-0.378c-1.635,3.625-2.651,7.895-4.199,10.459
				c-0.431,4.208-0.855,8.387-1.456,11.785c-0.634,3.497-1.324,6.08-2.241,8.826c-0.615-0.381-1.197-0.806-1.681-1.359
				c-1.533-1.988-2.271-3.762-3.882-5.335l-1.163,0.978c-1.373,3.418-2.73,6.845-3.999,9.369c-1.266,2.518-2.438,4.134-3.604,5.752
				c-0.309,0.652-0.573,1.317-0.933,2.386c-0.357,1.064-0.782,2.533-1.057,3.466c-0.302,0.938-0.409,1.35-0.526,1.776
				c-0.123,0.455-0.265,0.928-0.391,1.405c-0.483-0.053-0.865-0.09-1.24-0.472c-0.742-1.4-0.382-3.003-1.758-3.181
				c-0.622-2.026-0.881-4.063-1.524-4.764c-0.273-0.395-0.698-0.773-0.948-0.955c2.706-1.815,5.129-4.021,7.32-6.688
				c2.097-2.588,3.987-5.609,5.585-9.169c1.601-3.539,2.948-7.617,3.906-12.464c0.957-4.822,1.542-10.411,1.616-15.995
				c5.959-10.504,11.082-21.528,14.48-31.104c3.395-9.57,5.085-17.686,5.876-22.813c0.801-5.137,0.727-7.277,1.173-9.848
				c0.462-2.588,1.435-5.603,2.715-8.487c1.45-0.973,1.952-2.149,2.426-2.985c0.283-0.513,0.465-0.875,0.958-1.835
				c0.489-0.97,1.289-2.529,1.905-3.569c0.615-1.055,1.05-1.59,1.558-2.046l1.09,0.638c0.092,0.684,0.243,1.355,0.434,1.948
				c0.425,1.296,1.459,3.234,1.998,5.025c0.323,1.039,0.44,1.897,0.44,2.765c0.175,0.088,0.299,0.195,0.443,0.355
				c1.505,2.296,1.139,3.794,2.945,5.039c0.083,1.055,0.225,1.699,1.607,3.334c0.775,0.908,2.016,2.226,3.247,3.531l-1.265,0.682
				c-3.078-1.735-6.052-3.024-8.961-3.422c-1.755-1.502-3.039-1.328-3.845-0.283c0.332,3.719,0.64,7.438,1.474,11.654
				c0.851,4.288,2.164,9.185,3.621,13.902c-0.905,0.049-2.125-0.763-2.78-1.132c-1.025-0.586-1.764-0.531-2.623-0.34
				c-0.399,3.581-0.784,7.131-0.268,11.382c0.518,4.239,1.948,9.169,3.371,14.101l-1.672,0.182
				C395.618,260.759,393.703,258.133,391.937,257.931z M355.126,370.227c-1.865,0.43-2.755,0.323-5.538,0.887l-1.256-2.207
				l0.308-1.415c0.533-0.872,0.816-1.209,2.257-2.56c0.684-0.655,1.681-1.656,2.681-2.678c3.39-1.619,6.779-3.227,9.284-4.229
				c2.506-0.989,4.146-1.369,5.784-1.756l0.512,0.962c-1.324,3.685-2.617,7.363-4.215,10.406c-1.591,3.057-3.447,5.475-5.319,7.91
				c-1.117,0.38-2.143,1.094-3.266,1.572c-0.558,0.219-1.139,0.314-1.49,0.357c-0.489,0.057-0.24,0.043-0.781,0.057
				c0.033-1.358,1.056-2.961,2.887-4.729L355.126,370.227z M325.466,387.646c-3.111,0.364-6.042,0.291-8.724-0.591l0.815-2.506
				c1.946-1.301,3.913-2.597,5.271-3.363c1.349-0.762,2.105-0.991,2.848-1.208c0.449-0.301,0.967-0.102,1.432-0.028
				c0.883,0.373,2.031-0.135,2.183-0.936c2.905-0.342,5.812-0.674,7.96-0.738c2.146-0.045,3.553,0.21,4.953,0.432l-0.431,1.332
				c-2.959,4.043-5.907,8.071-8.811,10.775c-2.924,2.699-5.806,4.045-8.693,5.389l-3.1,0.305c0.169-0.717,0.326-1.43,1.117-2.715
				c0.807-1.271,2.232-3.123,3.688-4.969L325.466,387.646z M300.661,399.3l-1.555-0.804c-3.672-0.346-7.129-1.141-10.192-2.881
				l0.964-1.105c3.343-0.717,6.68-1.451,10.005-1.387c3.312,0.08,6.627,0.957,9.931,1.829l0.723,1.325
				c-2.296,2.234-4.602,4.452-6.428,6.049c-1.812,1.604-3.154,2.571-4.479,3.544c-1.197-0.094-2.071,0.67-3.546,1.067
				c-0.635,0.146-0.924,0.14-1.256,0.118c0.698-1.037,1.336-1.761,2.656-2.907c1.462-1.285,2.755-2.567,3.318-3.59L300.661,399.3z
				 M288.099,387.384c-1.939,0.612-4.033,1.328-4.966,1.922c-0.514,0.309-0.987,0.633-1.237,0.841
				c-0.409,0.305-0.2,0.142-0.658,0.523l-0.665-1.324c0.28-0.824,0.557-1.657,0.791-2.421c0.222-0.771,0.44-1.456,0.964-3.201
				c0.535-1.731,1.382-4.512,2.231-7.304l0.893-1.101c1.323-3.027,2.656-6.061,4.744-9.13c2.093-3.077,4.891-6.195,7.729-9.322
				l1.397-0.144c0.391,5.178-0.268,10.483-1.764,15.945c-1.343,3.243-2.524,6.259-3.405,8.925c-2.435,1.379-1.392,3.692-2.758,4.646
				c-0.435,0.263-0.351,0.297-1.143,0.508C289.822,386.872,289.074,387.075,288.099,387.384z M308.791,380.977
				c-0.511,0.617-1.219,1.819-2.201,2.956c-0.557,0.604-1.071,1.023-1.656,1.354l-3.257,0.295l-0.591-1.402
				c2.383-6.423,4.756-12.836,8.136-18.27c3.38-5.439,7.727-9.893,12.102-14.351l2.672-1.103c0.265,2.707,0.483,4.841,0.717,7.202
				c0.388,1.443-0.271,2.549-0.652,4.662c-0.308,1.451-0.674,3.384-1.041,5.325c-0.858,1.547-1.695,3.107-2.188,4.122
				c-0.498,1.021-0.575,1.508-0.692,1.996c-2.447,1.619-4.762,2.889-6.794,3.477l-2.13,1.624
				C310.389,379.14,309.422,380.133,308.791,380.977z M305.3,350.858c2.623-2.816,5.236-5.638,8.21-8.014
				c2.965-2.378,6.286-4.279,9.583-6.211l1.466-0.145c4.048-2.647,8.102-5.285,11.217-7.406c3.14-2.15,5.319-3.751,7.486-5.409
				l0.592-0.447c-2.251,5.218-6.539,11.265-8.22,15.886c-1.591,2.411-2.848,4.854-4.854,7.81c-1.465-1.394-1.342-3.024-1.432-4.211
				c-0.033-1.05-0.126-2.553-0.308-4.496l-2.306-0.531c-1.841,1.707-3.657,3.441-5.132,4.913c-1.489,1.479-2.613,2.686-4.611,4.736
				c-2.016,2.045-4.854,4.938-6.43,6.496c-1.573,1.56-1.838,1.79-2.121,2.024c-0.309,0.277-0.609,0.551-0.924,0.834
				c-0.732-0.575-0.844-0.839-1.299-2.188C305.959,353.609,305.593,352.251,305.3,350.858z M340.205,367.986
				c-0.409,0.839-1.016,2.094-1.606,3.357c-1.383,0.604-3.032,0.57-4.069,0.791c-0.702,0.112-1.22,0.257-1.376,0.335
				c-1.05-0.102-2.1-0.457-3.115-0.685c0.415-2.14,0.889-4.259,1.366-5.891c0.449-1.636,0.874-2.793,1.499-4.948
				c0.659-2.161,1.49-5.327,2.287-8.494c0.675-0.791,1.367-1.594,2.353-3.507c1.021-1.914,2.363-4.96,3.703-8.023
				c0.941-0.976,1.449-1.867,2.124-3.152c0.791-1.513,1.791-3.185,2.887-3.928l1.5,0.743c0.233,2.049,0.482,4.096,0.741,5.937
				c0.552,3.657,1.133,7.616,1.675,12.436l-1.533,4.582c-0.717,0.22-1.582,1.08-2.13,1.753c-0.468,0.545-1.502,1.856-2.475,2.864
				c-0.582,0.596-1.031,0.932-1.53,1.205C341.661,365.204,341.138,366.241,340.205,367.986z M365.152,342.257
				c-0.751,1.317-1.084,2.649-1.69,4.256c-0.36,0.888-0.81,1.872-1.323,2.834l-3.091,1.692c-0.967-2.146-1.515-4.468-1.65-7.179
				c-0.132-2.724,0.151-5.854,0.991-9.266c1.01-4.259,3.115-8.959,5.378-13.148c0.053-1.555,2.657-3.892,2.583-5.529l1.616-0.222
				c1.064,2.783,1.825,5.255,2.324,8.578c0.455,3.383,0.797,7.422,0.807,8.632c-0.01,0.646-0.117,0.893-0.225,1.117
				c-0.566,0.876-1.3,2.116-1.358,3.077C368.19,338.873,366.765,340.604,365.152,342.257z M402.412,180.475
				c-0.034-0.56,1.016-1.655,1.865-1.597c-0.126,0.954,1.373,1.876,1.782,3.041c0.44,0.876,0.216,1.69,0.216,2.491
				c-1.656-1.006-2.848-0.502-3.799-1.562C401.797,181.959,402.388,181.617,402.412,180.475z M403.951,301.524
				c-0.182,0.901-0.142,1.534,0.102,2.498c-1.163,1.823-2.589,1.32-3.34,2.387c-0.117,0.139-0.209,0.28-0.265,0.43l-1.558,0.147
				c-1.558-12.341-1.808-24.79-0.807-37.345c0.855,0.561,1.696,1.119,2.955,2.584c1.24,1.485,2.912,3.882,4.577,6.283
				c0.825,2.143,1.65,4.312,2.081,5.926c0.428,1.633,0.453,2.712,0.502,3.804c-0.468,1.155-0.933,2.303-1.363,3.498
				c-0.81,2.06-1.444,4.096-2.251,5.075C405.054,298.422,404.336,299.566,403.951,301.524z M406.201,260.346
				c-0.893-3.56-1.801-7.123-2.28-9.631c-0.493-2.512-0.576-3.966-0.659-5.421c1.549,0.133,3.171,1.735,5.027,3.521
				c1.791,1.758,3.706,3.781,4.931,4.229c0.4,0.682,0.782,1.376,1.515,2.401c0.727,1.029,1.773,2.37,2.832,3.711
				c0,4.345-0.009,8.683,0.283,11.67c0.323,2.987,0.942,4.631,1.558,6.271l-2.509,2.062c-2.761-5.279-5.513-10.54-7.302-13.684
				C407.809,262.342,407.008,261.343,406.201,260.346z M415.667,243.969c-2.081-3.132-4.521-7.363-6.96-11.599l-0.302-2.656
				c-1.511-1.726-1.188-3.111-2.789-3.759l-0.289-2.808c-0.019-0.187-0.15-0.397-0.302-0.623c-0.948-1.298-1.616-2.196-0.073-3.068
				c1.474,0.408,2.89,1.007,4.454,1.982c3.306,1.974,7.72,6.307,9.645,8.512c0.963,1.127,1.114,1.543,1.606,2.319
				c0.505,0.796,1.349,1.976,2.21,3.123l0.17,1.256c2.056,1.949,3.946,3.761,4.353,4.736c-0.031,0.954-0.938,2.335-1.589,3.394
				c-0.381,0.61-0.692,1.039-1.173,1.889c-0.482,0.844-1.166,2.077-1.807,3.345l-1.635,1.183
				C419.466,249.14,417.733,247.105,415.667,243.969z M423.185,209.782c-1.056,1.784-0.465,2.925-1.613,4.032
				c-0.375,0.317-0.508,0.397-0.824,0.549c-0.226-0.298-0.475-0.582-1.017-1.078c-0.538-0.484-1.382-1.179-2.241-1.874
				c-2.197-2.971-4.38-5.941-6.218-9.1c-1.832-3.162-3.306-6.51-4.771-9.863l0.44-0.881l2.798,0.148l1.117,1.176
				c1.441-0.416,2.863,1.472,4.571,1.476c2.331,1.778,4.661,3.545,6.194,5.164c1.518,1.629,2.237,3.104,2.955,4.574
				C425.035,205.945,422.778,208.078,423.185,209.782z M424.146,267.581c-0.053-1.413-0.102-2.818,0.458-5.266
				c0.548-2.438,1.755-5.889,2.922-9.351c0.508-0.454,0.981-0.927,1.748-1.962c0.767-1.028,1.789-2.649,2.838-4.231
				c1.333,4.354,2.682,8.731,3.131,12.256c0.449,3.505,0.019,6.179-0.406,8.842c-0.326,0.447-0.459,0.915-0.868,1.599
				c-0.465,0.645-0.914,0.889-1.465,1.01c-0.333,0.061-0.689,0.067-0.739,0.061c-0.356-1.496-0.443-2.925-0.834-4.209
				c-0.732-0.022-1.616,0.719-1.948,1.386c-0.665,1.188-1.715,2.295-3.072,2.518L424.146,267.581z M415.883,170.152
				c2.909,3.094,5.313,6.68,7.043,10.432c1.752,3.761,2.811,7.712,3.198,11.728l-0.372,0.436
				c-4.479-3.725-8.985-7.425-12.415-12.388c-3.463-4.946-5.846-11.151-8.237-17.368l0.658-0.581
				C409.514,164.427,412.971,167.055,415.883,170.152z M386.398,105.618c4.771,8.209,9.552,16.41,13.123,24.853
				c3.607,8.448,6.012,17.138,8.419,25.838l-1.582,1.304l-0.117-0.18c-1.431-1.143-3.423-1.044-3.998-1.561
				c-2.996-9.149-6.01-18.258-8.866-25.169c-2.838-6.896-5.528-11.593-8.2-16.289c0.102-0.372,0.132-0.759,0.117-1.425
				c-0.016-0.67-0.117-1.621-0.234-2.68c-0.19-2.009-0.397-4.23-0.572-6.15L386.398,105.618z M384.259,205.884
				c0.459,4.464,0.376,9.582-0.446,15.343c-0.828,5.757-2.407,12.173-4.731,18.659c-2.33,6.505-5.377,13.062-8.702,18.814
				c-3.34,5.74-6.917,10.636-10.98,15.113c-0.193,0.451-0.492,0.857-1.142,1.352c-0.641,0.48-1.641,1.072-3.405,1.844
				c-1.767,0.753-4.306,1.68-8.493,2.851c-4.171,1.178-10.001,2.598-16.287,3.883c-6.305,1.298-13.024,2.447-19.769,3.387
				l-35.586-47.085l3.017-7.724c-0.23-1.06-1.681-6.877-1.665-7.327l-5.651,14.321L232.57,239.3l0.666,4.145l36.651,0.019
				l36.481,48.505c-0.526,2.938-1.449,5.786-3.3,9.474c-1.838,3.679-4.547,8.21-9.075,14.104
				c-4.546,5.893-10.891,13.163-17.626,20.021c-12.375,3.068-25.122,4.693-36.773,4.578c-11.662-0.093-22.212-1.928-28.09-3.075
				c-5.87-1.151-7.07-1.643-8.271-2.091c-1.191-0.447-2.395-0.853-3.602-1.256c-6.803-8.48-13.572-16.968-17.881-23.909
				c-4.301-6.93-6.141-12.313-7.973-17.692l33.136-48.55l-0.034-0.109h3.243l-0.399-4.148h-4.039l-4.338-13.722H196l5.262,16.636
				l-33.16,48.863c-5.3,0.119-10.596,0.239-18.548-1.876c-7.922-2.107-18.48-6.426-29.034-10.757
				c-1.819-1.579-3.352-3.452-5.774-7.606c-2.402-4.176-5.658-10.643-9.014-18.541c-3.355-7.893-6.752-17.221-9.054-24.622
				c-2.294-7.408-3.468-12.877-4.009-16.703c-0.554-3.831-0.458-6.007,0.008-8.119c6.953-11.176,13.879-22.349,19.347-29.303
				c5.474-6.96,9.492-9.703,13.518-12.445l5.92,1.342l0.004,0.028l7.315,2.021l-0.067-4.996l-6.693-1.969l0.003-0.064l-5.158-1.324
				c-1.167-8.272-2.328-16.561-2.856-24.902c-0.508-8.34-0.388-16.756-0.262-25.182c1.794-3.416,3.592-6.837,7.78-11.826
				c4.197-4.981,10.784-11.535,17.378-18.084c6.736-4.962,13.856-9.474,19.133-12.287c5.271-2.819,8.74-3.95,11.966-4.595
				c3.214-0.663,6.203-0.854,9.15-0.537c2.932,0.285,5.812,1.053,8.501,2.258c7.748,2.275,15.504,4.57,21.783,7.113
				c6.277,2.558,11.098,5.405,15.902,8.242l-0.515,56.203l-19.842,16.031l1,4.464l21.181-17.257l5.395,4.066l0.069-5.196
				l-2.57-1.964l0.093-56.267c6.531-4.154,13.084-8.313,21.279-11.698c8.21-3.391,18.073-5.995,27.933-8.631
				c14.613,7.9,28.934,16.368,38.153,22.319c9.217,5.953,13.313,9.401,16.038,12.042c2.736,2.643,4.079,4.486,5.085,6.514
				c2.18,11.005,1.61,6.976,1.61,16.275c0,0.365,4.565,1.061,4.556,1.42c1.798,0.676,3.408,1.501,4.938,2.582
				c1.69,1.186,3.297,2.638,4.777,4.388c1.466,1.753,2.817,3.815,3.9,6.247c1.071,2.439,2.251,5.621,2.802,10.166
				c0.557,4.576,0.951,21.68,0.821,31.998c-0.027,2.343-0.345,7.641-0.351,10.155c1.256,1.48,0.684,1.307,1.709,2.549
				c4.423,5.365,6.445,8.181,7.936,11.515C382.828,197.594,383.812,201.421,384.259,205.884z M178.939,390.895
				c2.689,0.383,5.187,1.028,7.081,2.729l-0.516,1.03c-0.887,0.72-1.337,0.908-3.293,1.348c-1.241,0.25-3.131,0.568-5.055,0.796
				l-1.532,2.14c0.929,1.43,1.554,2.172,3.439,4.419c0.949,1.146,2.297,2.831,3.647,4.505l-0.962,0.523
				c-4.143-1.301-8.248-3.941-12.181-8.721c-1.833-2.282-3.527-4.967-4.884-7.812c1.499-0.292,3.031-0.594,5.412-0.759
				C172.457,390.933,175.697,390.908,178.939,390.895z M177.016,361.966l2.065-3.549c0.692,0.171,1.432,0.74,1.991,1.448
				c1.102,1.43,2.43,3.385,3.771,4.165c0.642,1.994,1.278,3.981,1.907,5.353c0.641,1.37,1.291,2.094,1.94,2.839
				c1.066,2.769,1.886,5.63,2.282,7.843c0.395,2.214,0.366,3.793,0.315,4.655c-0.029,0.853-0.058,1.008-0.082,1.155
				c-0.034,0.141-0.059,0.293-0.092,0.443c-1.428-0.531-2.86-1.062-3.88-1.505c-1.032-0.453-1.631-0.799-2.248-1.156
				c-0.245,0.031-0.496,0.057-1.215-0.03c-0.732-0.106-1.94-0.328-3.123-0.56c-0.958-1.524-1.899-3.054-2.506-6.568
				C177.519,372.978,177.283,367.481,177.016,361.966z M155.4,393.268c-0.15,0.013-0.296,0.037-0.587,0.063
				c-0.287,0.029-0.717,0.069-1.115,0.1c-0.721,0.082-1.371,0.13-2.145,0.192c-2.818-1.721-5.637-3.442-8.027-5.842
				c-2.398-2.377-4.388-5.433-6.366-8.479l0.513-0.882c4.305-0.39,8.576-0.752,11.907-0.783c3.326-0.029,5.67,0.307,8.022,0.638
				c1.283,0.937,2.195,1.571,3.085,2.077c1.083,0.654,2.252,1.673,2.681,2.637c-1.228,0.27-2.452,0.536-4.375,0.489
				c-1.919-0.03-4.534-0.411-7.132-0.772l-0.899,1.101C151.27,386.975,154.226,389.767,155.4,393.268z M124.06,372.805
				c0.74,1.373,2.06,3.303,3.363,5.247l-1.631,0.594c-2.023-0.783-4.305-0.868-6.049-1.854c-0.279-0.47-0.616-0.911-1.079-1.365
				c-1.224-1.171-2.497-1.875-3.646-2.317c-1.715-2.596-3.223-5.334-4.164-7.438c-0.941-2.092-1.295-3.536-1.453-4.91
				c-0.171-1.353-0.129-2.64,0.08-3.894c1.964,0.326,4.005,1.083,6.137,2.148c0.482-0.037,0.949-0.074,2.405,0.278
				c1.458,0.357,3.868,1.108,6.303,1.854c0.642,0,1.499,0.562,2.007,0.949c0.441,0.339,1.448,1.153,2.49,1.79
				c0.632,0.371,1.141,0.583,1.694,0.74c0.138,1.282,1.507,3.187,1.469,4.35l-0.883,1.103c-2.872-0.217-5.52-0.518-7.306-1.327
				l-0.878,1.11C123.11,370.657,123.31,371.442,124.06,372.805z M99.014,348.744c0.187,0.652,0.312,0.949,0.616,1.825
				c0.312,0.889,0.803,2.358,1.057,3.32c0.283,0.965,0.291,1.425,0.232,1.876l-1.557,0.144c-1.74-1.018-3.488-2.051-4.671-2.885
				c-1.174-0.839-1.797-1.48-2.406-2.133c-2.403-3.876-4.813-7.76-6.211-11.352c-1.403-3.591-1.798-6.893-2.215-10.194
				c2.91,0.745,5.824,1.487,8.834,3.024c2.999,1.536,6.096,3.87,9.176,6.2c0.662,0.88,1.299,1.767,2.024,3.105
				c0.708,1.343,1.491,3.149,2.273,4.938l-0.45,1.481c-1.532-0.621-3.077-1.238-4.046-1.691c-0.983-0.46-1.374-0.742-1.778-1.045
				l-1.562,0.742C98.572,347.096,98.847,348.095,99.014,348.744z M74.15,319.553c0.092,0.897,0.217,2.107,0.326,3.192
				c0.215,2.017,0.391,3.805,0.607,5.926c-0.982-1.015-1.832-2.17-2.589-3.568c-0.766-1.391-1.465-3.044-2.256-6.161
				c-0.771-3.11-1.675-7.724-2.315-12.325l2.448-0.293c0.607,0.219,1.145,0.531,2.056,1.306c0.925,0.772,2.198,2.001,3.269,3.022
				c1.819,1.747,2.972,2.751,3.904,4.618c0.862,1.547,1.803,3.171,2.723,4.177l-0.37,0.896l-1.416-0.077
				c-0.166-0.222-0.366-0.428-0.616-0.601c-1.211-0.77-2.956-1.353-3.135-2.493l-2.885,0.289
				C73.972,318.054,74.042,318.648,74.15,319.553z M60.645,296.572c0.229,1.202,0.5,2.68,0.62,3.972
				c0.129,1.305,0.122,2.424,0.096,3.046c-0.025,0.634-0.058,0.757-0.075,0.88c-0.028,0.117-0.058,0.237-0.079,0.379
				c-1.195-1.47-2.144-3.136-2.877-5.169c-0.74-2.031-1.257-4.422-1.424-7.612c-0.183-3.18,0-7.158,0.533-11.061l1.333-0.139
				c2.681,2.689,5.358,5.392,7.04,7.849c1.669,2.458,2.335,4.678,3.002,6.896c-0.042-0.059-0.092-0.123-0.138-0.179
				c-2.561-1.256-3.352-0.361-4.967-2.501c-1.312-1.758-2.227-1.947-3.465-1.592C59.987,292.911,60.245,294.375,60.645,296.572z
				 M50.961,270.744l-1.482-0.438c-0.719-0.476-0.791-1.287-1.09-1.814c-0.5-1.071-0.716-1.675-1.573-2.094
				c-0.23-2.248-0.475-4.489-0.617-5.927c-0.149-1.437-0.215-2.08-0.274-2.708c0.187-1.04,0.349-2.098,0.533-3.768
				c0.221-1.676,0.454-3.978,0.629-5.561c0.178-1.598,0.282-2.481,0.628-3.505c0.367-1.026,0.995-2.238,1.765-3.334l1.025,0.518
				c2.76,4.11,5.124,8.523,6.569,12.071c1.445,3.563,1.999,6.255,2.169,8.756c0.162,2.508-0.045,4.795-0.612,7.001l-0.971,0.505
				c-1.02-0.593-1.29-1.236-1.64-1.732c-0.704-1.173-1.923-3.266-2.635-3.712l-2.282,1.243
				C51.745,267.92,51.844,269.472,50.961,270.744z M74.134,192.226c-1.453,4.366-3.373,8.607-5.338,11.681
				c-1.944,3.08-3.904,5.022-5.071,6.128c-1.141,1.077-1.503,1.342-1.848,1.588c-0.342,0.246-0.692,0.5-1.033,0.754
				c-0.35-0.567-0.641-1.182-0.908-2.028c-0.253-0.837-0.491-1.908-0.753-3.066c-0.491-2.283-1.053-4.575-1.96-6.196l1.328-2.883
				c1.132-0.922,2.236-1.822,4.708-3.443c2.439-1.616,6.253-3.922,10.063-6.223C74.534,189.868,73.543,191.275,74.134,192.226z
				 M74.271,221.895c-1.14,3.434-2.286,6.858-4.083,9.509c-1.815,2.637-4.026,4.904-6.762,6.348l-2.374,1.269l-1.32-0.297
				c-0.12-2.074,0.175-3.726,0.763-6.347c0.292-1.363,0.621-3.075,0.77-4.502c0.129-1.429,0.08-2.572-0.138-3.692l1.183-2.952
				c2.66-1.696,5.337-3.393,7.848-4.467c2.522-1.064,4.917-1.502,7.293-1.95c-0.045,0.428-0.104,0.871-0.416,1.806
				c-0.324,0.93-0.899,2.37-1.502,3.796L74.271,221.895z M77.748,242.042c0.12,2.053-0.104,4.089-0.891,7.017
				c-0.758,2.906-2.107,6.682-3.726,9.552c-1.628,2.861-3.552,4.841-4.671,5.933c-1.103,1.104-1.403,1.317-1.682,1.542
				c-0.288,0.222-0.57,0.443-0.849,0.673c-0.529-3.845-1.07-7.696-1.699-10.504c-0.62-2.809-1.336-4.556-2.052-6.319
				c0.613-0.823,1.132-1.332,1.873-1.768c1.732-1.206,3.431-2.213,4.097-3.188c2.299-0.751,4.597-1.516,6.196-2.002
				C75.933,242.486,76.841,242.258,77.748,242.042z M81.953,287.5c-0.883,1.774-1.824,3.495-2.532,4.622
				c-0.691,1.123-1.125,1.644-1.594,2.055c-0.862,0.72-1.445,0.999-1.858,1.151c-0.945-2.391-1.878-4.771-2.86-6.564
				c-0.966-1.797-1.973-3.008-2.972-4.216c-0.542-1.956,1.802-3.825,0.891-5.53c1.582-2.661,3.156-5.3,4.554-7.162
				c1.383-1.854,2.598-2.916,3.789-3.987c0.541-0.029,1-0.365,1.557-0.854c0.946-0.848,1.344-1.01,2.131-1.136
				c0.316,4.342,0.634,8.688,0.433,12.295C83.317,281.773,82.635,284.643,81.953,287.5z M81.161,258.329
				c1.341-5.659,2.694-11.325,3.256-15.352c0.583-4.031,0.378-6.438,0.158-8.837c-1.091,0.192-1.649,0.36-3.222,1.05
				c-0.783,0.339-1.932,0.825-2.815,1.118c-0.962,0.324-1.528,0.444-2.294,0.479l-0.18-1.016c0.75-2.156,1.512-4.325,2.174-6.123
				c0.641-1.791,1.182-3.21,2.239-6.098c1.049-2.9,2.648-7.256,4.23-11.621l-0.151-1.32c-1.557-1.124-2.734-0.804-4.42-1.429
				c-1.528,0.082-2.357,0.176-3.922-0.741c-0.046-2.655-0.117-5.301,0.37-7.721c0.521-2.395,1.595-4.562,2.673-6.743
				c0.829,1.175,1.653,2.351,2.21,3.208c0.562,0.848,0.854,1.354,1.407,2.202c0.558,0.852,1.199,2.191,2.224,3.211l1.515,1.523
				c-0.216,5.212,0.279,10.436,2.04,17.424c1.757,6.979,4.796,15.729,6.844,21.369c2.082,5.647,3.173,8.17,6.22,15.532
				c3.055,7.367,8.014,19.564,10.774,27.795c2.723,8.233,3.214,12.517,2.906,16.793c-2.177,1.427-4.317,2.886-5.775,3.901
				c-1.457,1.013-2.202,1.598-2.639,1.956c-0.712,0.552-0.479,0.368-1.395,1.188c-0.05-4.159-0.276-8.236-1.033-14.047
				c-0.757-5.615-2.115-12.843-3.451-20.062l-1.146-0.763c-3.713,3.85-6.802,8.098-10.133,11.058
				c-0.433-4.072-0.574-8.146-0.382-13.183c0.195-4.895,0.85-10.734,1.515-16.549c-0.565-0.019-1.125-0.048-2.773,0.254
				C86.582,257.081,83.859,257.696,81.161,258.329z M98.806,300.543c0.042,4.272-0.475,8.159-0.983,12.053
				c-0.216,0.481-0.42,0.965-1.02,2.118c-0.583,1.163-1.557,2.979-2.527,4.826l-1.757,1.173c-1.353-2.835-2.697-5.657-4.039-7.803
				c-1.348-2.155-2.673-3.641-4.029-5.119c0.032-1.765,0.287-3.513,0.824-5.312c1.619-5.349,5.62-11.017,12.398-15.579
				C98.235,291.586,98.789,296.261,98.806,300.543z M103.952,330.598c0.262-2.154,0.624-3.172,1.973-6.396
				c0.649-1.638,1.573-4.075,2.448-6.517l1.756-2.878c1.225-1.247,1.179-2.715,2.303-3.484c0.604-0.646,1.154,0.254,1.703,0.61
				c0.533,7.142,1.082,14.271,1.19,18.794c0.133,4.519-0.15,6.384-0.458,8.271c-0.891,1.431-0.675,2.342-1.099,3.567
				c-0.233,0.743-0.434,1.071-0.667,1.457C111.179,339.633,108.073,335.158,103.952,330.598z M120.062,312.566
				c0.891,0.391,1.554,0.666,3.256,2.215c1.449,1.291,3.635,3.549,5.804,5.782l0.166,1.509c-0.408,1.154-0.466,1.602-1.474,3.709
				c-0.562,1.239-1.507,3.161-2.423,5.07l-1.84,0.516c-0.591-4.448-1.182-8.92-1.736-11.987c-0.553-3.06-1.02-4.75-1.602-6.41
				L120.062,312.566z M130.646,356.671c-2.24-1.181-4.404-2.336-6.178-3.715c-0.055-1.928-0.092-3.868,0.799-6.839
				c0.896-2.958,2.74-6.946,4.58-10.938l1.332-1.037c2.481,4.608,4.446,9.533,5.554,13.855c1.095,4.337,1.324,8.082,1.419,10.272
				c0.079,2.19,0,2.816-0.062,3.454c-0.066,0.62-0.116,1.235-0.182,1.87c-0.009-0.131-0.051-0.254-0.108-0.37
				c-0.509-0.826-1.217-1.069-2.125-1.873c-1.053-0.836-0.458-1.943-2.272-3.081C132.715,357.79,131.67,357.221,130.646,356.671z
				 M133.972,326.363c1.17,0.329,1.982,0.545,4.434,2.36c2.061,1.503,5.246,4.156,8.443,6.817c0.392,3.634,0.509,7.308,0.342,9.968
				c-0.158,2.666-0.616,4.318-0.874,5.226c-0.258,0.901-0.33,1.058-0.387,1.229c-0.129,0.326-0.266,0.648-0.392,0.968
				c-1.145-3.664-2.314-7.433-3.085-9.386c-0.75-1.853-1.073-2.066-1.731-3.198c-0.633-1.114-1.582-3.149-2.415-5.227
				c-1.161-2.171-1.898-4.105-2.602-5.805C135.292,328.357,134.792,327.269,133.972,326.363z M161.628,372.23
				c-0.849-0.302-1.865-0.571-2.922-0.849c-1.944-0.499-3.805-0.971-5.154-1.736c0.146-3.329,0.333-6.643,0.558-9.284
				c0.204-2.635,0.429-4.591,0.6-6.772c0.141-2.199,0.229-4.622,0.241-7.049c1.121,0.732,2.082,1.648,3.643,3.642
				c1.573,1.995,3.718,5.065,5.058,7.911c1.342,2.859,1.891,5.487,2.241,8.041c0.341,2.561,0.5,5.019,0.425,7.491l-1.398,0.589
				C163.918,373.104,162.977,372.747,161.628,372.23z M172.382,356.617c-0.129,0.615-0.362,1.468-0.616,2.31l-1.229,0.844
				c-0.528-1.429-1.127-2.826-1.665-3.896c-0.557-1.059-1.023-1.779-1.777-3.161c-0.746-1.365-1.77-3.398-2.736-5.458
				c-1.886-1.656-3.78-3.334-4.971-4.389c-1.195-1.069-1.673-1.542-2.139-2.009l-0.8-0.784c3.626,1.707,7.273,3.555,9.921,5.41
				c2.411,1.696,3.976,3.439,5.533,5.163l1.315,2.403C172.812,354.387,172.645,355.314,172.382,356.617z M275.083,28.337
				c1.217-0.158,2.989-0.387,5.329-0.712c11.275,2.613,22.191,6.638,33.548,12.538c11.374,5.91,23.188,13.711,34.123,22.846
				c10.965,9.117,21.049,19.578,29.934,30.982c0.933,2.166,1.649,4.418,2.071,6.771c0.44,2.351,0.616,4.794,0.684,6.202
				c0.049,1.4,0.024,1.748-0.034,2.096c-0.033,0.363-0.059,0.708-0.092,1.074c-3.005-2.559-6.012-5.102-9.959-7.385
				c-3.922-2.289-8.767-4.304-13.612-6.329l-1.576,0.151c-1.511-1.141-3.054-2.283-4.02-3.313c-0.991-1.016-1.423-1.908-1.848-2.823
				c-8.628-7.086-17.254-14.18-26.568-20.456c-9.328-6.261-19.369-11.706-29.401-17.138c-5.073-5.005-10.152-10.006-13.988-13.903
				c-3.856-3.896-6.471-6.694-9.111-9.496C272.039,28.799,273.861,28.49,275.083,28.337z M232.549,22.138
				c10.82-0.301,23.383,0.698,35.731,2.218c-0.585,0.925-1.432,1.082-2.014,1.217c-0.741,0.148-2.352,0.362-2.724,0.689
				c-0.489,0.304-0.739,0.489-1.062,0.875c-5.248-0.936-10.45-1.856-20.268-1.981c-9.81-0.107-24.181,0.478-38.548,1.293
				l-2.145,0.129C211.254,24.216,221,22.458,232.549,22.138z M98.722,100.761c0.253-1.79,0.653-2.88,1.057-3.97
				c7.377-9.623,15.446-18.722,23.772-26.826c8.327-8.089,16.895-15.182,24.801-20.831c7.922-5.641,15.166-9.833,21.594-12.808
				c6.411-2.985,12.032-4.73,17.002-5.668c4.996-0.92,9.334-1.028,13.614-0.458c-7.29,7.631-14.579,15.272-18.785,19.58
				c-4.221,4.304-5.346,5.282-6.452,6.248c-7.049,3.107-14.085,6.225-23.04,13.049c-8.977,6.795-19.875,17.322-30.758,27.835
				c-1.74,0.674-3.472,1.396-5.029,2.111c-1.574,0.708-2.956,1.416-5.546,2.65c-2.58,1.24-6.353,3.031-8.422,4.003
				c-2.098,0.972-2.526,1.138-2.943,1.313c-0.4,0.174-0.824,0.334-1.24,0.51C98.418,105.024,98.498,102.534,98.722,100.761z
				 M77.531,132.168c3.202-7.82,7.631-16.947,13.322-25.264c0.084-0.191,0.192-0.117,0.274-0.05
				c2.082,2.288,1.133,3.142,2.007,5.861c-1.766,2.767-3.331,5.648-4.905,9.124c-1.582,3.453-3.159,7.491-4.604,11.359
				c-1.44,3.852-2.749,7.547-3.626,10.449c-0.903,2.91-1.391,5.02-1.861,6.203c-0.492,1.198-0.954,1.481-1.844,1.973
				c-0.896,0.481-2.194,1.195-2.91,1.574c-0.746,0.367-0.892,0.426-1.049,0.47c-0.242,0.088-0.467,0.182-0.713,0.261
				C71.878,146.984,74.293,140.093,77.531,132.168z M56.64,179.317c1.07-2.245,2.173-4.486,3.114-6.111
				c0.925-1.629,1.724-2.639,2.49-3.639c0.325-0.884,0.757-1.719,1.673-2.968c0.903-1.253,2.286-2.917,3.356-4.005
				c1.082-1.098,1.889-1.616,2.543-2.03c1.486-0.892,3.584-2.271,6.008-3.98c1.727-0.165,3.321-0.331,4.279-0.441
				c-0.158,1.976-0.454,3.876-0.995,4.931c-0.379,0.801-0.849,1.504-1.719,2.08c-2.523,5.928-5.62,11.617-8.668,15.958
				c-3.031,4.354-6.003,7.344-7.776,9.073c-1.783,1.718-2.34,2.161-2.915,2.61c-0.558,0.454-1.125,0.918-1.69,1.354
				c-0.383-1.03-0.774-2.046-0.704-4.194C55.678,185.82,56.166,182.573,56.64,179.317z M52.865,208.683
				c1.032,2.771,2.084,5.538,2.293,9.844c0.196,4.301-0.458,10.154-1.111,15.994l-0.803,0.506l-1.125-0.88
				c-0.095-1.332-1.349-2.498-1.827-3.982l-1.421,0.138c-1.453,2.023-1.482,3.738-3.238,5.091c-1.166-1.817-0.366-3.989-1.116-5.305
				c0.45-3.542,1.099-7.076,1.67-9.363c0.561-2.287,1.053-3.321,1.607-4.198c0.545-0.887,1.186-1.616,1.894-2.223
				c-0.079-0.659,0.175-1.221,0.783-1.862c1.062-1.167,1.103-1.612,1.074-2.577L52.865,208.683z M42.631,189.933
				c0.291-1.946,0.312-2.774,0.354-3.614c0.849-1.213,0.587-1.872,1-2.952c0.141-0.682,0.97-1.856,1.79-1.613
				c1.107,2.54,2.256,4.879,3.551,6.783c0.138,1.624,1.856,3.997,2.062,5.685c0.107,1.376,0.224,2.816-1.017,4.112
				c-0.85,1.09-0.966,1.727-1.045,2.678c-0.545,1.001-1.106,1.984-1.711,2.928c-0.599,0.939-1.228,1.846-1.708,2.521
				c-0.782,1.102-1.177,1.622-2.181,2.892l-1.407-1.481c-0.125-2.353-0.258-4.714-0.429-6.354c-0.158-1.649-0.383-2.592-0.611-3.532
				C41.81,194.933,42.344,191.866,42.631,189.933z M32.423,209.782l1.336-1.028c0.534,0.44,1.058,0.865,1.994,2.131
				c0.929,1.272,2.219,3.381,3.527,5.472c-0.617,4.927-0.917,9.92-0.858,13.438c0.055,3.521,0.446,5.59,1.044,7.389
				c0.604,1.813,1.383,3.39,2.402,4.793l-0.3,1.031l-1.752-1.411c-2.765-5.082-5.517-10.16-6.757-15.462
				C31.836,220.83,32.127,215.31,32.423,209.782z M26.506,242.042l1.487,0.292c2.635,1.995,5.291,3.981,7.057,5.576
				c1.739,1.611,2.618,2.806,3.497,4.015c0.595,5.643,1.19,11.268,1.79,16.904c2.177,2.435,4.371,4.89,6.049,6.543
				c1.669,1.659,2.822,2.54,3.976,3.419l-0.741,0.957c-3.472-1.61-6.636-3.917-9.633-7.21c-2.985-3.29-5.82-7.562-8.168-12.792
				C29.458,254.521,27.597,248.337,26.506,242.042z M45.924,301.373c-1.499-1.344-3.039-2.693-4.655-4.75
				c-1.631-2.056-3.747-4.604-5.078-7.575c-0.692-1.587-1.661-3.409-1.583-4.774c-0.016-0.79,0.013-1.181,0.475-2.015
				c1.325,0.225,2.641,0.442,4.597,1.049c1.932,0.622,4.504,1.631,7.069,2.642l2.731,2.439c0.1,2.206,0.208,4.425,0.625,6.746
				c0.4,2.324,1.107,4.761,1.819,7.202c-1.287,0.164-2.851,0.257-3.801-0.425C47.257,301.46,46.536,301.327,45.924,301.373z
				 M53.917,326.956c-1.583-1.778-3.098-3.842-4.438-6.019c0.059-0.532-0.049-1.066-0.391-1.494
				c-0.949-1.05-1.233-1.815-1.091-2.786c2.823-0.27,5.234-0.133,8.559-0.456c2.606,1.795,4.48,0.593,5.979,2.447
				c0.587,2.591,1.174,5.188,2.665,8.044c1.49,2.843,3.872,5.96,6.287,9.078l-2.824,0.291
				C63.818,335.145,58.664,332.284,53.917,326.956z M69.475,357.874c-3.11-2.025-5.683-4.232-7.897-6.76l0.441-0.892
				c3.023-0.602,6.078-1.216,9.143-1.216c3.103,0,6.245,0.614,9.376,1.216c3.772,3.668,7.802,7.113,10.642,9.216
				c2.831,2.103,4.484,2.878,6.161,3.421c1.691,0.539,3.406,0.863,5.13,0.948l0.882,2.726c-0.991,0.587-1.465,0.345-2.672,0.592
				c-0.484,0.113-0.758,0.251-0.912,0.332c-6.649-0.788-13.227-2.384-18.365-4.042C76.295,361.748,72.602,359.907,69.475,357.874z
				 M104.851,387.208c-3.668-0.923-8.002-2.56-12.332-4.219c-0.316-0.259-0.649-0.517-1.581-1.083
				c-0.928-0.547-2.436-1.391-3.964-2.235l0.966-1.099c3.956-1.223,7.918-2.436,11.212-2.946c3.293-0.489,5.924-0.243,8.564-0.009
				c1.565,1.991,3.139,3.977,5.508,5.659c2.402,1.696,5.592,3.077,8.796,4.451l0.167,1.034c-1.374,0.075-2.731,0.256-3.863,0.515
				c-1.112,0.246-2.002,0.549-2.511,0.752c-0.516,0.182-0.661,0.246-0.799,0.307c-0.146,0.069-0.295,0.131-0.437,0.198
				C111.553,388.326,108.539,388.117,104.851,387.208z M135.425,407.353c-2.648,0.071-3.572-0.248-5.221-0.452
				c-1.682-0.194-4.071-0.267-6.479-0.213c-3.301-1.194-7.006-1.328-10.033-2.731l-0.441-1.696c4.429-2.96,8.867-5.921,12.498-7.694
				c3.626-1.769,6.448-2.352,9.275-2.938c3.215,3.162,6.653,6.102,9.126,7.939c2.489,1.831,4.005,2.547,5.578,3.062
				c1.582,0.505,3.206,0.8,4.847,0.891l-0.878,1.101c-0.729,0.214-1.471,0.396-2.627,0.676c-1.158,0.286-2.74,0.644-5.687,1.079
				C142.411,406.797,138.053,407.267,135.425,407.353z M171.441,423.853c-2.135,0.751-4.966,1.507-6.706,1.939
				c-1.732,0.455-2.407,0.599-3.073,0.749c-0.649,0.139-1.32,0.295-1.989,0.447c-2.232-0.207-3.582-0.226-5.812-0.24
				c-1.053-0.029-2.598-0.101-4.146-0.214l-1.041-0.873l-3.027,0.286l-2.361-0.742c3.972-3.74,7.952-7.509,11.203-10.057
				c3.264-2.558,5.816-3.92,8.373-5.285c2.614-0.301,5.178-0.285,6.636,0.24c0.637,0.212,1.153,0.463,1.631,0.791
				c0.226,1.33,1.466,1.032,2.333,1.421c0.446,0.078,1.273,0.749,1.281,1.524c2.707,1.201,5.171,2.396,6.932,3.694
				c-0.978,0.026-2.209,1.031-3.468,2.655l-2.439-0.283l0.591,1.536C175.018,422.362,173.573,423.111,171.441,423.853z
				 M208.952,423.987c-1.286,1.822-3.364,3.1-3.592,4.545c-4.951,2.93-9.917,5.846-14.288,7.697
				c-4.363,1.846-8.144,2.618-11.919,3.37l-1.32,0.894c0.087-1.676,1.624-4.137,2.59-5.827c0.549-0.954,0.882-1.508,1.615-2.786
				c0.741-1.251,1.873-3.218,3.023-5.199c2.064-2.076,4.138-4.16,5.695-5.512c1.566-1.347,2.614-1.975,3.68-2.6l1.265-0.15
				c1.391,1.016,2.99,1.507,4.139,2.52c0.833-0.126,1.674,0.049,2.856,0.27c2.215,0.425,3.831,0.657,5.625,0.092l0.953,1.918
				C209.214,423.474,209.123,423.725,208.952,423.987z M209.722,410.815c-0.8-0.046-1.624-0.01-2.173,0.083
				c-0.84,0.211-0.941,0.245-1.532,0.722c-1.999-0.229-3.055-0.048-5.903-0.36c-3.481-1.531-7.044-4.203-10.704-7.812l0.387-1.032
				c1.569-0.193,3.131-0.387,4.471-0.584c1.325-0.187,2.415-0.383,4.23-0.645c1.798-0.259,4.32-0.591,6.861-0.921l4.438,1.404
				l2.668,2.574l0.271,2.96C212.503,408.2,211.154,409.613,209.722,410.815z M254.902,400.744c-1.49,1.869-3.488,4.789-5.305,7.817
				c-2.549,0.73-5.836,1.715-7.87,2.28c-1.576,0.426-1.51,0.426-2.909,0.725l-0.062-0.123c-1.698-1.229-3.165-0.782-4.351-1.299
				c-2.227,0.145-4.892-1.044-6.849-2.315c-0.923-0.302-1.756-0.054-2.79,0.05c-1.424,0.131-2.098,0.337-3.272-0.882l-0.6-2.836
				c-0.082-0.594-0.707-1.408-1.141-1.972c-0.507-0.575-1.249-1.588-2.156-2.878c-1.723-1.082-3.455-2.172-4.479-2.88
				c-1.025-0.695-1.333-1.024-1.666-1.339l-1.348,0.139l-1.566-0.819c-3.08-0.103-6.028-0.382-8.817-0.898
				c-0.807-5.771-1.607-11.533-3.127-16.578c-1.544-5.038-3.818-9.339-6.069-13.655l-1.162-0.921
				c0.008-1.139-1.59-3.126-1.689-4.131c-1.357-1.215-2.69-3.168-4.147-3.754c-0.612-0.337-1.777-0.865-2.752-1.45
				c-1.012-0.638-1.469-1.181-1.952-1.923c-0.85,0.13-1.666-0.398-2.311-0.744c-0.924-0.556-1.636-0.643-2.293-0.672l-0.653-1.59
				c7.73-0.768,15.458-1.536,21.386-2.477c5.919-0.94,10.034-2.056,14.172-3.164c6.104,1.555,12.373,2.458,20.317,2.629
				c7.948,0.179,17.566-0.385,27.66-1.041c10.094-0.663,20.681-1.42,28.884-1.371c8.21,0.039,14.047,0.903,19.717,2.479
				l-2.047,2.143l-1.191-1.573c-0.801,0.083-1.549,0.158-2.407,0.933c-1.838,1.657-3.438,3.511-5.055,4.473
				c-5.338,6.842-10.663,13.689-13.877,19.198c-3.241,5.51-4.355,9.672-5.488,13.856c-1.466,3.354-2.447,6.476-2.1,9.102
				c-3.728,0.535-7.416,1.299-9.949,1.998c-2.559,0.7-3.931,1.34-5.098,2.063C257.315,398.08,256.361,398.875,254.902,400.744z
				 M263.38,412.591c-1.13-0.972-2.38-1.937-3.682-2.954l-0.742-2.949l1.542-3.039c1.638-0.889,3.414-1.543,5.319-1.969
				c1.915-0.438,4.002-0.654,7.468-0.366c3.457,0.292,8.3,1.066,13.056,2.205c-1.167,0.802-2.354,1.616-3.155,2.321
				c-0.791,0.708-1.231,1.288-1.659,1.884c-2.047,0.945-3.909,2.001-5.311,3.535c-1.754,0.174-3.961,1.452-5.857,1.947
				c-1.194,0.325-2.201,0.368-2.875,0.355C266.221,413.69,264.906,411.742,263.38,412.591z M297.065,441.16
				c-0.425,0.631-0.526,0.545-0.948,0.754c-0.683,0.24-1.031,0.304-1.449,0.353l-1.699-1.127
				c-5.243-0.003-10.467-1.839-14.931-4.805c-1.689-1.154-3.229-2.502-4.636-4.061c-1.397-1.536-2.672-3.28-3.752-5.147
				c-0.203-2.234-2.327-3.715-1.044-5.464c2.118-1.317,4.152-0.455,5.471-1.547c1.598,0.539,3.198,1.053,4.361,1.517
				c1.176,0.451,1.915,0.842,2.657,1.211c2.256,1.624,4.43,3.505,6.744,5.862c1.148,1.151,2.306,2.422,3.39,3.707
				c2.154,2.488,4.404,5.691,5.387,7.265c0.459,0.745,0.508,0.914,0.518,1.071C297.148,440.887,297.124,441.035,297.065,441.16z
				 M331.653,429.052c-8.136-0.694-16.028-2.333-23.619-5.241c-1.004-1.165-1.816-1.662-3.217-2.408
				c-1.896-0.962-3.938-2.107-4.987-3.206c-0.625-0.602-1.148-1.27-1.613-1.99c0.681-0.417,1.389-0.807,1.924-1.101
				c1.173-0.58,2.845-1.443,4.867-2.592c1.942-0.059,2.881,0.183,5.763,0.154c3.706,1.465,7.412,2.926,11.072,5.402
				c3.667,2.47,7.296,5.95,10.91,9.426L331.653,429.052z M360.729,405.871c-1.084,0.485-2.223,0.856-4.227,1.289
				c-2.001,0.436-4.879,0.92-6.729,1.235c-1.841,0.297-2.632,0.409-3.423,0.533c-0.791,0.115-1.582,0.222-2.364,0.338
				c-3.097-0.19-6.178-0.385-8.619-0.716c-2.423-0.335-4.181-0.811-5.929-1.268c-2.105-1.165-2.896-0.325-4.205-2.004
				c2.798-1.832,5.605-3.673,7.638-4.892c2.022-1.244,3.281-1.865,4.527-2.482c2.73,0.021,5.446,0.039,9.393,1.232
				c3.955,1.194,9.137,3.564,14.308,5.923L360.729,405.871z M387.541,382.383c-1.1,0.876-2.198,1.632-3.039,1.945l-0.806,1.688
				c-3.058,1.336-6.206,2.495-8.869,3.29c-2.69,0.795-4.913,1.244-6.871,1.551c-1.939,0.308-3.613,0.466-5.104,0.442
				c-1.515-0.012-2.832-0.206-5.027-0.404c-2.182-0.197-5.254-0.408-8.311-0.593c-0.044-0.183-0.133-0.363-0.259-0.492
				c-1.725-0.75-2.931,0.604-4.162-0.91l-0.16-1.254l1.416-1.69c4.504,0.141,8.561,0.608,14.114-2.009
				c2.906-1.443,6.335-4.001,9.29-7c3.731,0.025,7.478,0.043,10.646,0.504c3.186,0.466,5.774,1.384,8.382,2.296l0.591,1.407
				C388.809,381.378,388.391,381.694,387.541,382.383z M416.024,351.04l-0.44,1.482c-3.546,3.19-7.502,5.896-12.156,8.146
				c-4.645,2.236-9.974,3.997-13.212,4.978c-3.232,0.975-4.381,1.151-5.538,1.341c-1.151,0.204-2.281,0.396-3.423,0.589
				c-0.674-0.147-1.173-0.094-2.223,0.005c-1.317,0.12-2.725,0.195-3.39-0.005l-1.249-2.295c0.166-0.207,0.342-0.389,0.591-0.551
				c2.899-1.443,5.661-0.529,7.754-1.134c2.469-1.731,4.944-3.456,6.825-5.324c1.874-1.867,3.164-3.884,4.448-5.889l2.148-1.635
				c3.86-0.475,7.727-0.953,11.039-0.902C410.515,349.895,413.278,350.47,416.024,351.04z M432.479,323.331
				c-1.573,1.275-3.47,2.979-5.461,5.053c-2.272,1.53-4.571,3.053-7.229,4.334c-2.656,1.29-5.688,2.358-8.708,3.419l-0.884,1.111
				c-1.563,0.115-3.115,0.363-4.328,0.703c-1.186,0.323-2.041,0.729-2.524,0.954c-0.499,0.239-0.625,0.315-0.757,0.403
				c-0.111,0.071-0.243,0.142-0.366,0.225l-0.899-1.409c0.689-0.294,1.397-0.595,2.955-1.469c1.567-0.869,3.996-2.324,6.419-3.775
				c2.143-2.083,4.057-4.025,4.654-5.165c-0.157-1.758,3.207-3.896,3.481-5.672c1.021-0.745,2.071-1.487,4.63-2.204
				c2.555-0.704,6.627-1.389,10.706-2.081l1.416,1.689C435.169,320.753,433.986,322.059,432.479,323.331z M450.123,282.983
				c-1.45,2.955-2.906,5.904-4.479,8.454c-1.576,2.538-3.272,4.698-4.972,6.842c-1.284,0.739-1.789,1.141-3.799,3.048
				c-0.997,0.927-2.506,2.3-4.029,3.674c-0.616-0.02-1.49,0.438-2.054,0.734c-0.521,0.257-1.194,0.717-2.151,1.157
				c-0.798,0.3-1.216,0.325-1.69,0.396c0.499-1.261,1.025-2.493,1.4-3.294c0.357-0.796,0.573-1.145,1.158-2.207
				c0.566-1.069,1.515-2.851,2.071-4.221c0.576-1.366,0.748-2.338,0.834-2.974c0.123-0.643,0.167-0.968,0.197-1.547
				c0.034-0.578,0.086-1.405,0.145-2.061c0.163-1.021,0.265-1.678,1.124-2.449c2.856-1.331,5.138-2.788,7.468-4.219
				c1.041-0.609,2.306-1.191,3.599-1.691l1.114-1.547c1.65-0.169,2.906-0.27,4.439-0.437L450.123,282.983z M454.571,254.311
				c-0.785,2.444-2.001,5.464-3.198,8.466c-1.582,2.325-3.184,4.636-5.522,7.27c-2.33,2.629-5.418,5.576-8.5,8.536
				c-1.176-0.155-2.549,1.884-3.755,1.9c-0.459,0.059-0.742,0.032-0.958,0.01c2.263-1.709,4.445-3.553,5.729-4.796
				c1.296-1.247,1.689-1.883,2.065-2.633c0.348-0.751,0.698-1.611,0.914-2.656c0.434-2.33,0.357-4.137,0.523-6.61
				c0.086-1.352,0.209-3.192,0.449-4.549c0.209-1.377,0.511-2.276,0.933-3.11c0.552-0.428,1.1-0.862,1.964-1.724
				c0.859-0.884,2.035-2.193,3.199-3.513l2.29-1.704c0.185-0.02,0.351-0.058,0.652-0.167c1.988-0.915,3.411-1.79,4.593-1.886
				l0.067,0.956C455.677,249.974,455.335,251.869,454.571,254.311z"/>
			<polygon fill="#1F1A17" points="160.03,170.641 180.971,176.64 182.212,180.698 183.743,172.904 160.03,165.842 			"/>
		</g>
		<path fill-rule="evenodd" clip-rule="evenodd" fill="#E63331" d="M112.402,224.179h18.452c-0.009,3.254,0.087,6.519,0.183,8.796
			c0.1,2.276,0.238,3.574,0.4,4.536c0.374,1.769,0.403,2.565,1.927,3.863c1.366,0.731,3.468,1.039,5.325-1.031
			c0.275-0.727,0.579-1.446,0.75-2.73c0.167-1.28,0.279-3.104,0.279-4.938v-71.802h19.7v62.942c0,3.959,0,7.908-0.062,10.534
			c-0.05,2.643-0.142,3.943-0.242,5.259c-0.362,3.002-1.132,5.968-2.073,8.164c-0.94,2.198-2.023,3.645-3.355,4.983
			c-1.294,1.356-2.814,2.606-4.442,3.688c-4.555,2.146-9.675,2.931-14.685,2.672c-2.551-0.122-5.079-0.491-7.227-1.087
			c-2.157-0.591-3.897-1.387-5.358-2.321c-1.419-0.93-2.586-2.021-3.655-3.358c-1.079-1.347-2.111-2.963-2.973-5.005
			c-0.883-2.046-1.624-4.525-2.137-7.605C112.402,235.222,112.377,229.503,112.402,224.179"/>
		<path fill-rule="evenodd" clip-rule="evenodd" fill="#E63331" d="M195.804,206.719h11.574l-5.753-41.838 M171.3,242.803
			l18.376-96.367h23.834l18.451,96.367h-20.146l-2.352-18.816h-15.733l-2.352,18.816H171.3z"/>
		<path fill-rule="evenodd" clip-rule="evenodd" fill="#E63331" d="M263.278,172.272c2.081,0,5.328,0.071,7.64-0.72
			c1.426-0.446,2.509-1.191,3.603-1.939c0.465-0.545,0.874-1.157,1.197-1.94c0.8-1.686,1.142-4.592,1.157-7.427
			c0.009-1.57-0.086-3.04-0.283-4.247c-0.348-2.007-0.841-3.359-2.071-4.834c-1.094-0.745-2.192-1.49-3.62-1.93
			c-1.453-0.459-3.408-0.646-5.102-0.688c-0.772,0.445-1.671,0.309-2.521,0.333 M243.511,228.364v-96.391h22.437
			c4.411,0,8.853,0.167,12.036,0.512c3.17,0.357,5.104,0.854,6.751,1.479c1.625,0.627,2.979,1.377,4.288,2.419
			c1.317,1.044,2.598,2.389,3.672,3.762c1.09,1.388,1.992,2.795,2.696,4.673c1.484,3.845,2.066,9.607,1.866,14.833
			c-0.108,2.686-0.406,5.242-0.875,7.297c-0.923,3.931-2.229,6.409-4.903,9.401c-1.29,1.421-2.939,2.819-4.713,4.048
			c1.85,0.933,3.614,2.257,5.313,4.807c0.738,1.15,1.416,2.495,2.016,4.09c0.598,1.595,1.114,3.43,1.472,5.646
			c0.366,2.201,0.566,4.763,0.649,6.179c0.093,1.431,0.064,1.692,0.093,2.167c0.059,1.054,0.308,2.964,0.342,4.719
			c0.033,2.072,0.049,5.549,0.523,9.153c0.273,1.987,0.674,3.885,1.142,5.416c0.465,1.524,1.007,2.69,1.573,3.619
			c0.557,0.92,1.167,1.603,1.865,2.173h-23.863c-0.634-2.83-1.2-4.964-1.333-6.661c-0.067-0.892-0.092-1.993-0.156-2.794
			c-0.053-0.807-0.157-1.326-0.143-2.838c-0.015-2.424,0.432-6.966,0.309-10.737c0-2.194-0.108-4.405-0.323-6.175
			c-0.229-1.79-0.545-3.131-0.893-4.193c-0.342-1.048-0.718-1.785-1.183-2.381c-1.225-1.405-2.48-1.897-3.946-2.276
			c-2.1-0.517-4.608-0.263-6.944-0.326v38.382H243.511z"/>
		<path fill-rule="evenodd" clip-rule="evenodd" fill="#E63331" d="M349.496,172.429v-16.901c0-4.764-0.173-9.525-0.446-12.792
			c-0.302-3.257-0.758-5.01-1.234-6.751c-0.601-0.973-1.247-1.91-2.607-2.79c-2.414-1.362-5.385-1.79-8.367,0.508
			c-1.167,1.087-1.555,1.892-2.014,3.123c-0.258,0.761-0.532,1.697-0.751,3.092c-0.233,1.381-0.449,3.2-0.625,5.875
			c-0.156,2.669-0.258,6.209-0.258,9.735v16.901c0,4.644,0.185,9.272,0.458,12.479c0.283,3.187,0.767,4.956,1.241,6.708
			c0.615,1.029,1.259,1.987,2.792,2.921c2.262,1.193,4.694,1.404,7.609-0.009c1.314-0.85,1.921-1.705,2.463-2.81
			c0.308-0.671,0.535-1.479,0.794-2.814c0.24-1.343,0.474-3.213,0.646-6.048C349.382,180.011,349.496,176.225,349.496,172.429
			 M312.787,166.729c-0.117-5.699-0.019-9.182,0.156-13.496c0.176-4.31,0.435-9.45,0.758-14.594
			c0.566-3.557,1.518-7.071,2.582-9.707c1.057-2.637,2.223-4.387,3.58-5.99c1.364-1.601,2.931-3.043,4.621-4.24
			c1.69-1.199,3.481-2.156,5.504-2.896c3.839-1.507,9.835-2.064,15.413-1.571c2.682,0.253,4.987,0.748,7.01,1.456
			c2.025,0.708,3.773,1.613,5.454,2.803c1.69,1.187,3.297,2.637,4.781,4.389c1.465,1.751,2.813,3.814,3.894,6.245
			c1.074,2.441,1.891,5.249,2.441,9.792c0.558,4.576,0.841,10.877,0.942,18.947c0.073,8.078,0,17.908-0.376,24.448
			c-0.351,6.537-0.967,9.805-1.675,12.412c-0.724,2.598-1.523,4.532-2.598,6.391c-1.065,1.877-2.404,3.64-4.021,5.293
			c-1.632,1.646-3.556,3.156-5.63,4.403c-4.978,2.377-10.691,3.331-16.288,3.04c-2.838-0.134-5.611-0.605-8.225-1.467
			c-2.589-0.865-5.021-2.113-7.053-3.66c-2.032-1.535-3.697-3.36-5.036-5.141c-1.333-1.771-2.364-3.513-3.232-6.046
			c-0.85-2.543-1.523-5.907-2.031-11.553C313.252,180.35,312.913,172.418,312.787,166.729z"/>
	</g>
</g>
</svg>
