<?xml version="1.0" encoding="UTF-8" standalone="no"?>
<!-- Created with Inkscape (http://www.inkscape.org/) -->
<svg
   xmlns:svg="http://www.w3.org/2000/svg"
   xmlns="http://www.w3.org/2000/svg"
   version="1.0"
   width="307.244854137"
   height="325.473311118"
   viewBox="0 0 800 847.463"
   id="Layer_1"
   xml:space="preserve"><defs
   id="defs46" />
<path
   d="M 755.493,6.624 C 771.263,44.432 835.469,218.424 773.625,441.799 C 690.696,680.913 524.082,789.751 412.132,847.463 C 277.95,782.011 119.14,662.586 52.869,492.789 C -25.863,323.323 -3.894,128.542 36.605,5.279 C 214.17,52.695 286.542,40.334 400.689,0 C 526.147,55.352 696.14,26.561 755.493,6.624 L 755.493,6.624 z "
   style="fill:#0c4099"
   id="path3" />
<path
   d="M 745.558,23.086 C 770.542,97.783 811.205,232.096 759.396,438.719 C 662.495,698.985 498.275,780.996 411.019,832.904 C 266.8,743.054 135.174,660.288 64.28,483.807 C -13.106,315.913 18.536,111.524 46.375,22.232 C 198.921,67.157 284.408,57.745 400.491,18.066 C 452.563,42.53 615.046,69.616 745.558,23.086 L 745.558,23.086 z "
   style="fill:white"
   id="path5" />
<path
   d="M 609.799,75.421 C 533.92,224.951 390.391,297.943 355.239,315.452 C 291.263,351.883 155.997,383.431 68.15,388.71 C 53.165,365.889 22.767,215.67 63.689,61.647 C 165.049,86.077 286.148,94.571 393.868,49.448 C 403.771,54.368 541.726,89.652 609.799,75.421 L 609.799,75.421 z "
   style="fill:#0c4099"
   id="path7" />
<path
   d="M 214.4,122.739 C 210.3,124.379 211.94,129.296 207.841,129.296 C 206.955,132.608 206.955,136.708 207.841,139.985 C 216.858,140.841 211.939,128.509 219.319,129.296 C 220.959,135.036 211.939,133.428 213.547,138.348 C 211.94,138.348 211.94,139.985 211.089,139.985 C 210.3,142.478 211.94,144.088 212.761,146.609 C 213.548,146.609 214.401,146.609 215.219,145.757 L 215.219,143.329 C 218.531,147.431 220.959,142.477 224.271,140.84 C 225.123,137.56 228.402,135.886 230.895,133.427 C 231.681,137.56 229.255,143.328 232.535,146.608 C 239.092,149.92 240.764,140.84 247.355,144.087 L 253.095,136.708 C 253.095,138.348 252.307,139.231 252.307,140.841 L 253.095,141.692 C 253.095,140.841 250.635,144.088 248.176,145.757 C 250.634,148.25 252.307,150.711 257.193,149.921 C 262.177,143.33 266.31,144.088 271.262,137.561 C 263.784,141.692 267.096,152.381 258.866,150.711 C 255.587,154.81 249.816,154.81 244.865,154.056 L 244.865,151.563 C 245.684,151.563 245.684,151.563 246.472,150.711 C 246.472,149.921 245.684,149.069 244.865,148.251 C 239.093,149.07 238.306,157.335 236.634,162.285 C 235.813,161.433 234.994,163.071 234.994,163.89 C 234.994,165.499 234.994,167.169 236.634,168.025 L 238.306,166.383 C 240.764,169.695 244.865,167.169 248.177,168.025 C 255.587,164.746 259.72,160.648 266.311,155.661 C 264.637,161.433 250.635,161.433 256.408,168.811 C 267.916,172.123 268.77,159.759 278.64,159.759 C 271.263,163.071 266.311,170.481 258.866,173.793 L 258.866,175.467 C 258.047,174.583 257.194,175.467 257.194,176.22 C 257.194,174.582 255.587,174.582 255.587,173.792 L 248.996,173.792 C 248.177,169.694 242.405,172.973 240.765,170.48 C 234.141,168.81 228.403,164.744 220.961,163.889 C 213.549,158.972 207.843,152.381 199.58,149.069 C 199.58,153.167 189.677,156.479 196.235,160.647 C 198.761,162.285 199.58,156.48 202.038,159.759 C 201.251,161.433 197.121,158.973 196.235,162.285 C 199.58,163.89 196.235,169.695 202.038,168.025 C 200.366,168.025 197.874,168.025 198.761,169.695 C 198.761,173.793 201.252,176.221 204.499,177.862 C 203.71,180.416 200.366,181.174 198.761,178.746 C 197.121,177.862 197.121,179.532 196.235,180.416 C 195.449,182.844 197.121,184.486 197.875,186.124 C 200.366,186.943 188.891,184.486 192.202,191.078 C 194.628,191.078 196.235,194.353 193.809,196.028 L 188.037,192.716 C 183.085,197.666 192.989,199.275 192.202,204.257 C 193.809,202.619 194.628,201.801 197.121,202.619 C 197.874,211.639 202.859,198.521 206.17,200.945 C 206.17,203.438 206.17,204.257 207.842,205.899 C 214.401,204.257 225.123,207.536 232.535,204.257 C 244.864,202.619 258.047,201.801 267.097,210.918 L 271.263,210.918 C 270.409,212.491 272.049,213.342 273.689,212.491 C 274.508,212.491 276.147,213.342 277.001,211.639 L 277.001,210.918 L 278.641,210.918 C 277.787,213.342 273.689,213.342 275.362,217.44 C 276.148,210.918 264.638,215.77 260.54,209.211 C 258.868,210.918 259.721,213.341 259.721,214.951 C 265.426,222.361 266.312,232.264 265.426,242.135 L 264.638,242.135 C 263.786,248.759 261.361,261.086 270.41,262.695 L 272.901,262.695 C 272.05,270.957 263,278.367 258.867,285.744 L 258.867,287.418 C 253.096,290.73 252.308,298.14 252.308,303.88 C 252.308,302.206 248.996,302.206 246.472,302.206 C 244.865,305.55 246.472,309.718 242.405,310.472 C 240.765,309.718 239.914,308.044 240.765,306.374 C 241.586,306.374 242.405,305.551 244.012,303.881 C 244.012,303.127 243.259,303.127 243.259,302.207 C 249.818,294.043 261.361,283.321 260.54,267.678 C 253.949,258.597 246.473,256.989 238.308,254.528 C 239.915,247.085 230.044,242.954 230.044,236.396 C 227.586,234.689 224.273,235.544 221.813,235.544 C 220.173,242.954 209.484,233.902 208.598,242.954 C 220.962,248.759 227.585,256.137 236.635,264.333 L 242.406,260.235 C 245.685,266.007 240.766,271.776 235.815,274.301 C 228.405,276.697 228.405,287.419 220.174,289.093 C 219.323,295.684 211.092,299.75 214.403,308.044 C 215.222,306.374 213.55,304.765 211.943,304.765 C 207.845,307.193 204.501,312.142 200.368,312.142 C 204.501,307.192 202.04,298.141 211.943,298.141 C 216.043,288.27 229.258,280.042 229.258,267.678 C 221.813,260.235 212.763,256.137 208.598,247.085 C 207.844,245.415 205.351,246.266 203.711,245.415 C 202.86,250.397 198.762,248.76 196.236,250.397 C 193.81,243.806 179.807,252.857 182.3,241.313 C 179.807,241.313 178.988,241.313 177.316,242.955 C 179.807,249.546 177.316,252.007 176.528,257.775 C 178.168,273.385 173.216,292.406 181.48,303.881 C 176.528,308.044 176.528,315.454 169.904,315.454 C 166.625,307.192 174.823,306.374 173.216,298.996 C 178.168,294.042 171.576,288.27 172.43,282.502 C 160.034,272.631 174.037,237.182 143.574,248.759 C 138.655,247.904 136.162,245.414 130.424,247.904 C 136.162,254.528 135.343,266.008 140.295,273.385 L 147.672,273.385 C 147.672,275.055 146.853,276.697 146.853,278.367 C 150.132,281.679 157.575,278.367 158.396,284.958 L 158.396,287.418 L 155.117,283.32 C 153.477,286.632 150.133,285.744 146.853,285.744 C 143.574,280.827 139.409,274.301 134.489,269.319 C 135.343,259.481 118.03,250.397 126.258,240.493 C 133.703,238.823 144.425,238.033 147.672,230.622 C 143.574,227.31 149.344,218.263 143.574,214.095 C 142.786,214.95 142.786,215.769 141.934,214.95 C 144.425,214.095 145.213,209.996 143.574,207.535 L 142.786,206.717 C 146.853,205.047 145.214,200.945 145.214,197.665 L 144.426,196.846 C 149.345,196.846 149.345,191.078 151.773,189.469 C 146.033,184.487 155.118,181.175 156.757,177.105 C 163.348,173.793 166.626,169.695 174.038,168.811 C 174.038,167.169 171.578,166.383 170.759,164.746 C 169.119,164.746 167.447,164.746 166.626,166.384 L 166.626,167.17 C 160.855,156.481 148.526,171.305 142.787,161.434 L 148.527,161.434 C 148.527,162.286 149.346,162.286 149.346,163.072 C 151.018,163.891 151.774,162.286 153.479,161.434 C 153.479,158.974 153.479,157.336 151.774,155.662 C 148.527,155.662 145.215,156.481 143.576,153.169 C 144.428,141.693 162.496,150.712 169.12,144.089 C 172.432,139.233 178.991,149.922 178.991,140.842 C 180.631,138.349 177.319,136.709 175.679,135.037 L 175.679,132.609 C 178.991,135.037 183.943,139.233 188.041,137.563 L 188.041,135.889 C 190.534,141.694 197.879,136.71 199.584,143.332 C 202.863,139.987 206.175,135.889 205.354,130.972 C 206.169,127.624 209.481,123.558 214.4,122.739 L 214.4,122.739 z "
   style="fill:#ffd600"
   id="path9" />
<polygon
   points="230.895,131.789 232.534,129.296 235.812,130.97 230.895,131.789 "
   style="fill:white"
   id="polygon11" />
<polygon
   points="272.898,135.887 275.359,132.607 274.506,134.247 272.898,135.887 "
   style="fill:white"
   id="polygon13" />
<path
   d="M 197.12,143.33 L 197.12,145.758 L 192.2,145.758 C 190.528,142.478 195.447,140.841 197.12,143.33 L 197.12,143.33 z "
   id="path15" />
<path
   d="M 230.041,147.432 C 230.041,150.711 234.139,147.432 235.812,149.921 C 233.354,154.81 234.14,158.973 229.255,161.433 C 223.45,160.647 221.81,155.661 216.04,154.809 C 214.4,154.055 212.761,149.069 216.04,148.25 C 220.959,141.692 223.45,149.921 230.041,147.432 L 230.041,147.432 z "
   id="path17" />
<path
   d="M 169.115,152.381 L 163.344,152.381 C 164.163,150.711 162.49,147.431 164.949,146.609 C 166.622,147.432 171.573,149.069 169.115,152.381 L 169.115,152.381 z "
   id="path19" />
<path
   d="M 192.2,151.563 L 192.2,153.168 L 188.888,153.168 C 188.888,152.382 188.888,151.563 189.674,150.711 C 188.888,150.711 184.755,148.251 187.216,146.609 C 192.2,144.087 190.528,149.921 192.2,151.563 L 192.2,151.563 z "
   id="path21" />
<path
   d="M 183.937,164.745 C 185.544,168.024 181.477,168.81 178.985,168.81 L 174.819,168.81 C 177.313,166.383 179.804,164.745 183.937,164.745 L 183.937,164.745 z "
   id="path23" />
<path
   d="M 602.847,170.123 C 590.288,184.487 594.847,268.495 594.847,268.495 C 599.012,270.955 651.97,288.859 656.692,289.943 C 665.71,294.041 703.945,309.847 736.539,303.126 C 738.967,306.373 739.032,309.717 735.721,312.932 C 721.752,325.291 678.893,366.282 678.893,366.282 C 673.483,361.099 678.074,356.542 672.301,350.871 C 657.512,342.605 611.965,325.622 600.653,324.506 C 595.734,331.883 601.505,346.74 601.505,346.74 L 638.166,380.613 C 645.839,387.99 652.268,374.71 659.907,382.808 L 596.455,438.488 C 589.339,430.194 605.638,420.584 594.127,410.681 C 579.273,392.548 503.459,308.797 493.62,296.47 C 481.684,281.352 474.372,296.01 469.225,287.781 L 529.33,230.59 C 534.412,234.823 532.313,241.312 530.609,242.954 C 525.689,260.235 535.592,270.957 544.642,280.828 L 581.729,322.013 C 581.729,322.013 579.008,298.141 578.45,289.945 C 571.533,238.001 582.583,207.114 566.91,198.523 L 567.761,192.718 L 593.634,167.665 C 593.633,167.662 600.323,161.991 602.847,170.123 L 602.847,170.123 z "
   style="fill:#ffd600"
   id="path25" />
<path
   d="M 423.019,442.193 L 454.138,508.823 C 465.156,525.81 473.88,510.367 478.568,522.006 L 402.622,560.144 C 398.228,549.948 412.493,546.045 405.869,531.026 L 335.465,375.528 C 328.513,360.968 320.25,375.365 315.561,364.345 L 423.578,310.47 C 423.578,310.47 443.35,300.632 454.074,298.138 L 469.812,329.555 C 469.812,329.555 437.414,322.569 424.429,329.193 C 424.429,329.193 385.67,347.557 383.211,354.149 L 414.755,422.946 L 437.413,412.647 C 434.068,405.499 437.315,396.776 441.283,394.976 L 459.45,437.175 C 456.925,438.719 447.514,435.928 443.809,430.421 C 431.938,436.946 423.019,442.193 423.019,442.193 L 423.019,442.193 z "
   style="fill:#ffd600"
   id="path27" />
<path
   d="M 756.116,319.62 C 750.047,473.215 652.33,593.361 631.245,620.61 C 583.238,673.405 555.07,721.545 411.018,799.718 C 334.416,767.944 200.987,650.026 193.512,633.824 C 352.55,621.167 460.892,561.259 510.638,527.614 C 559.629,495.905 606.094,468.591 756.116,319.62 L 756.116,319.62 z "
   style="fill:#0c4099"
   id="path29" />
<path
   d="M 193.577,414.122 C 190.723,403.334 173.017,415.107 170,403.893 L 260.176,382.054 C 263.751,395.203 242.338,393.53 246.01,406.121 C 245.223,406.121 288.541,577.522 288.541,577.522 C 292.246,591.067 307.887,578.606 312.118,590.671 L 220.696,611.757 C 219.154,603.133 236.928,603.491 234.172,588.932 L 193.577,414.122 L 193.577,414.122 z "
   style="fill:#ffd600"
   id="path31" />
<path
   d="M 601.601,581.49 C 598.256,589.756 567.826,629.266 567.826,629.266 L 559.104,621.661 C 567.302,615.069 572.778,604.576 576.057,597.133 C 564.286,595.756 547.168,588.379 547.33,567.554 C 549.333,547.422 564.514,539.389 583.501,539.453 C 589.206,540.37 613.997,554.046 601.601,581.49 L 601.601,581.49 z "
   style="fill:#ffd600"
   id="path33" />
<path
   d="M 594.158,573.62 C 593.141,586.049 560.252,594.444 559.923,565.651 C 561.99,556.209 569.27,549.812 579.991,550.603 C 592.223,552.571 594.977,563.717 594.158,573.62 L 594.158,573.62 z "
   style="fill:#0c4099"
   id="path35" />
<polygon
   points="527.133,668.651 515.983,668.781 516.212,594.51 503.358,594.705 508.178,584.802 527.166,584.443 527.133,668.651 "
   style="fill:#ffd600"
   id="polygon37" />
<path
   d="M 486.176,657.241 C 482.897,665.47 452.401,705.017 452.401,705.017 L 443.677,697.374 C 451.973,690.75 457.353,680.289 460.664,672.847 C 448.891,671.437 431.773,664.06 431.906,643.272 C 433.971,623.103 449.089,615.134 468.074,615.232 C 473.845,616.052 498.57,629.76 486.176,657.241 L 486.176,657.241 z "
   style="fill:#ffd600"
   id="path39" />
<path
   d="M 478.436,649.468 C 477.387,661.898 444.563,670.257 444.138,641.5 C 446.268,632.09 453.581,625.531 464.305,626.48 C 476.503,628.415 479.257,639.565 478.436,649.468 L 478.436,649.468 z "
   style="fill:#0c4099"
   id="path41" />
<polygon
   points="406.229,724.693 394.163,724.759 394.391,650.516 381.604,650.649 386.358,640.714 405.345,640.877 406.229,724.693 "
   style="fill:#ffd600"
   id="polygon43" />
</svg>