<?xml version="1.0" encoding="UTF-8" standalone="no"?>
<svg
   xmlns:dc="http://purl.org/dc/elements/1.1/"
   xmlns:cc="http://creativecommons.org/ns#"
   xmlns:rdf="http://www.w3.org/1999/02/22-rdf-syntax-ns#"
   xmlns:svg="http://www.w3.org/2000/svg"
   xmlns="http://www.w3.org/2000/svg"
   xmlns:sodipodi="http://sodipodi.sourceforge.net/DTD/sodipodi-0.dtd"
   xmlns:inkscape="http://www.inkscape.org/namespaces/inkscape"
   width="80.949043mm"
   height="86.254166mm"
   viewBox="0 0 305.94914 326"
   version="1.1"
   id="svg1236"
   inkscape:version="1.0.1 (3bc2e813f5, 2020-09-07)"
   sodipodi:docname="AC Oulo 1.svg">
  <defs
     id="defs1230" />
  <sodipodi:namedview
     id="base"
     pagecolor="#ffffff"
     bordercolor="#666666"
     borderopacity="1.0"
     inkscape:pageopacity="0.0"
     inkscape:pageshadow="2"
     inkscape:zoom="0.35"
     inkscape:cx="162.26029"
     inkscape:cy="137.28572"
     inkscape:document-units="px"
     inkscape:current-layer="layer1"
     inkscape:document-rotation="0"
     showgrid="false"
     inkscape:window-width="1267"
     inkscape:window-height="728"
     inkscape:window-x="26"
     inkscape:window-y="0"
     inkscape:window-maximized="0" />
  <metadata
     id="metadata1233">
    <rdf:RDF>
      <cc:Work
         rdf:about="">
        <dc:format>image/svg+xml</dc:format>
        <dc:type
           rdf:resource="http://purl.org/dc/dcmitype/StillImage" />
        <dc:title></dc:title>
      </cc:Work>
    </rdf:RDF>
  </metadata>
  <g
     inkscape:label="Layer 1"
     inkscape:groupmode="layer"
     id="layer1"
     transform="translate(-212.73971,-382.71428)">
    <g
       id="surface196295"
       transform="matrix(0.32929293,0,0,0.32929293,201.06782,381.06782)">
      <path
         style="fill:#ffffff;fill-opacity:1;fill-rule:evenodd;stroke:none"
         d="M 500,992.41016 C 9.644531,749.73437 176.24609,690.68359 37.902344,135.34766 123.26172,-35.355469 876.73828,-35.355469 962.09766,135.34766 823.75391,690.68359 990.35156,749.73437 500,992.41016"
         id="path1172" />
      <path
         style="fill:#191917;fill-opacity:1;fill-rule:nonzero;stroke:none"
         d="m 40.363281,135.625 c 37.957032,152.57422 52.855469,267.23047 64.828129,359.39062 15.69531,120.81641 26.0664,200.63282 76.66406,272.22657 C 232.03125,838.24609 324.24609,902.76562 500,989.82031 675.75781,902.76562 767.96484,838.24609 818.14062,767.24219 868.73828,695.64844 879.10937,615.83203 894.80859,495.01562 906.78125,402.85547 921.67969,288.19922 959.64062,135.625 939.64062,96.691406 882.08984,64.183594 793.11719,41.574219 712.06641,20.980469 607.96875,9.640625 500,9.640625 392.03125,9.640625 287.93359,20.980469 206.88672,41.574219 117.91016,64.183594 60.359375,96.691406 40.363281,135.625 M 500,995 498.96875,994.48828 C 142.48437,818.0625 131.92578,736.8125 100.58984,495.61328 88.609375,403.40234 73.703125,288.64453 35.652344,135.90625 l -0.207031,-0.83203 0.382812,-0.76563 C 80.492188,44.980469 301.14062,5 500,5 698.85937,5 919.50391,44.980469 964.17187,134.30859 l 0.38282,0.76563 -0.20703,0.83203 c -38.05079,152.73828 -52.96094,267.49609 -64.94141,359.70703 -31.33594,241.19922 -41.89453,322.44922 -398.375,498.875 z m 0,0"
         id="path1174" />
      <path
         style="fill:#0a2633;fill-opacity:1;fill-rule:evenodd;stroke:none"
         d="M 500,952.57031 C 46.769531,725.95703 200.75781,670.8125 72.886719,152.21875 112.33594,72.519531 306.16797,32.671875 500,32.671875 c 193.83203,0 387.66406,39.847656 427.10937,119.546875 C 799.24219,670.8125 953.22656,725.95703 500,952.57031"
         id="path1176" />
      <path
         style="fill:#ffffff;fill-opacity:1;fill-rule:evenodd;stroke:none"
         d="M 802.20703,299.52344 C 673.65625,474 569.21484,648.46875 499.99609,822.95312 430.78906,648.46875 326.34375,474 197.80078,299.52344 l 302.19531,247.05468 z m 0,0"
         id="path1178" />
      <path
         style="fill:#ffffff;fill-opacity:1;fill-rule:evenodd;stroke:none"
         d="m 199.11328,243.67969 0.0156,-77.80078 c 0,-6.24219 4.14062,-11.50391 10.20703,-12.97657 l 64.13281,-15.55468 c 2.13672,-0.51954 4.20312,-0.0312 5.88281,1.39062 1.67969,1.41797 2.50391,3.375 2.34766,5.56641 l -5.53125,78.76953 -26.76172,6.38672 1.67578,-35.30078 -23.83594,6.10937 -0.64843,35.27344 z m 29.04688,-78.67578 24.58984,-6.0586 -0.83594,17.59766 -24.21094,6.08203 z m 0,0"
         id="path1180" />
      <path
         style="fill:#ffffff;fill-opacity:1;fill-rule:evenodd;stroke:none"
         d="m 294.51562,210.70312 6.0586,-68.64062 c 0.54687,-6.24219 5.17578,-11.14063 11.3789,-12.04297 L 377.27344,120.52344 376.13672,128 c -0.90235,5.94922 -5.44141,10.41406 -11.40625,11.22266 l -36.15625,4.91015 -5.91797,52.5 44.05078,-6.57031 -1.19531,7.875 c -0.88281,5.80078 -5.20313,10.19141 -10.99219,11.16016 l -52.24609,8.77734 c -2.10938,0.35156 -4.07032,-0.23047 -5.64063,-1.68359 -1.5664,-1.44922 -2.30469,-3.35938 -2.11719,-5.48829"
         id="path1182" />
      <path
         style="fill:#ffffff;fill-opacity:1;fill-rule:evenodd;stroke:none"
         d="m 432.97656,192.58594 14.26172,-67.125 c 1.31641,-6.20313 6.62109,-10.53125 12.96484,-10.57813 l 64.67579,-0.47656 c 2.17187,-0.0195 4.04687,0.90234 5.36328,2.62891 1.3164,1.72656 1.70312,3.78125 1.10937,5.87109 l -18.83203,66.34766 c -1.61719,5.70312 -6.54297,9.53906 -12.47266,9.70312 l -60.35156,1.69141 c -2.11328,0.0586 -3.96094,-0.77344 -5.3164,-2.40235 -1.35547,-1.625 -1.84375,-3.58984 -1.40235,-5.66015 m 29.69922,-10.25782 24.26172,-0.57031 13.0625,-50.96094 -25.51953,0.28907 z m 0,0"
         id="path1184" />
      <path
         style="fill:#ffffff;fill-opacity:1;fill-rule:evenodd;stroke:none"
         d="m 560.79687,115.46484 -23.25,75.73047 c -0.61718,2.01172 -0.3125,4 0.875,5.73438 1.19141,1.73828 2.9336,2.73828 5.03125,2.88672 l 60.61329,4.32031 c 5.96875,0.42578 11.30078,-2.97266 13.42968,-8.56641 l 27.57032,-72.35937 -28.42188,-3.33985 -23.43359,65.88282 -25.32422,-1.92188 22.07031,-66.41797 z m 0,0"
         id="path1186" />
      <path
         style="fill:#ffffff;fill-opacity:1;fill-rule:evenodd;stroke:none"
         d="m 675.07422,127.55078 29.03906,5.02344 -27.78516,63.88672 43.75391,8.32422 -3.11719,6.58203 c -2.60156,5.5 -8.33593,8.48047 -14.33203,7.45312 l -60.52734,-10.49219 z m 0,0"
         id="path1188" />
      <path
         style="fill:#ffffff;fill-opacity:1;fill-rule:evenodd;stroke:none"
         d="m 766.61719,146.20312 -34.89453,70.57032 c -0.91797,1.85156 -0.95313,3.8164 -0.10547,5.69922 0.85156,1.88281 2.34375,3.16015 4.33593,3.70312 l 58.86329,16.01563 c 5.93359,1.61718 12,-0.88282 15.07421,-6.20704 l 38.05469,-65.91406 -26.97656,-8.72265 -33.31641,60.67187 -25.30078,-7.00391 32.08594,-61.45703 z m 0,0"
         id="path1190" />
    </g>
  </g>
</svg>
