<?xml version="1.0" encoding="UTF-8"?>
<svg id="Calque_2" data-name="Calque 2" xmlns="http://www.w3.org/2000/svg" viewBox="0 0 1530.5 1871.15">
  <defs>
    <style>
      .cls-1 {
        fill: none;
      }

      .cls-2, .cls-3 {
        fill: #ca0202;
      }

      .cls-4, .cls-5, .cls-3 {
        fill-rule: evenodd;
      }

      .cls-4, .cls-6 {
        fill: #fff;
      }

      .cls-5, .cls-7 {
        fill: #021586;
      }
    </style>
  </defs>
  <g id="Calque_4" data-name="Calque 4">
    <path class="cls-5" d="M765.25,1871.15c-202.9,0-394.04-78.57-538.21-221.24-72.6-71.85-129.28-156.61-168.47-251.94C19.71,1303.43,0,1203.32,0,1100.42V45.76C0,20.53,20.53,0,45.76,0h1438.58c25.23,0,45.76,20.53,45.76,45.76v1036.47c.27,8.84.4,16.38.4,23.67,0,203.06-78.68,394.3-221.54,538.51-71.42,72.1-154.97,128.46-248.33,167.52-93.37,39.07-192.17,58.99-293.63,59.22h-1.75Z"/>
    <g>
      <path class="cls-1" d="M1458.99,1105.9c0-7.55-.16-15.06-.4-22.55v45.09c.24-7.49.4-15,.4-22.55Z"/>
      <g>
        <path class="cls-6" d="M766.95,1848.8c-197.74.44-383.79-75.84-524.18-214.78C100.59,1493.33,22.35,1300.44,22.35,1100.42V45.76c0-12.93,10.48-23.41,23.41-23.41h1438.58c12.93,0,23.41,10.48,23.41,23.41v1036.82c.27,8.75.4,16.19.4,23.33,0,197.24-76.35,382.76-215.07,522.78-139.32,140.63-328.17,219.68-526.13,220.12Z"/>
        <g>
          <path class="cls-1" d="M71.11,559.09h1387.48v22.04H71.11v-22.04Z"/>
          <path class="cls-5" d="M71.11,559.09v21.89h1387.39v-21.89H71.11Z"/>
        </g>
        <g>
          <path class="cls-1" d="M322.86,155.54h1135.64v22.04H322.86v-22.04Z"/>
          <path class="cls-5" d="M322.86,155.54v21.89h1135.57v-21.89H322.86Z"/>
        </g>
        <path class="cls-5" d="M622.99,358.6c-1.47-23.76-7.94-44.81-20.11-66.25-.3-.54-.61-1.05-.94-1.59-13.84-23.83-31.09-41.02-54.92-54.92-13.53-7.91-26.95-13.44-41.04-16.79-11.19-2.65-22.8-3.93-35.26-3.93s-24.09,1.29-35.28,3.96c-14.07,3.35-27.46,8.87-40.95,16.76-23.83,13.91-41.09,31.09-54.92,54.92-.33.54-.63,1.05-.94,1.59-12.2,21.44-18.66,42.51-20.13,66.3-.21,3.58-.33,7.21-.33,10.93,0,28.42,6.44,52.58,20.46,77.26,5.29,9.29,11.05,17.56,17.49,25.03,10.65,12.41,23.18,22.62,38.37,31.49,5.01,2.93,10.02,5.55,15.03,7.82,19.29,8.78,38.93,12.9,61.27,12.9s41.88-4.1,61.15-12.9c5.03-2.27,10.04-4.87,15.08-7.82,15.17-8.85,27.67-19.03,38.3-31.42,6.48-7.49,12.27-15.78,17.56-25.1,14.02-24.68,20.46-48.84,20.46-77.26,0-3.72-.12-7.4-.35-10.98ZM324.49,362.46c.98-24.23,7.21-45.42,19.48-66.98.91-1.62,1.85-3.18,2.81-4.73h60.82l24.79,29.57-16.86,57.73-39.47,17.32-51.57-32.92ZM465.9,471.51l-50.4,35.44c-6.02-2.53-11.96-5.55-17.93-9.04-15.8-9.22-28.58-19.95-39.35-33.24l17.58-60.19,36.73-16.13,5.74-2.51,47.64,36.76v48.91ZM441.11,317.95l-25.61-30.55,17.91-61.36c11.82-3.16,24.09-4.68,37.32-4.68s25.49,1.5,37.29,4.66l17.91,61.38-25.59,30.55h-59.23ZM543.95,497.91c-5.99,3.51-11.96,6.53-17.98,9.06l-50.43-35.47v-48.93l47.62-36.73,5.74,2.51,36.73,16.13,17.61,60.28c-10.77,13.25-23.53,23.95-39.28,33.15ZM565.35,395.37l-39.47-17.32-16.83-57.73,1.99-2.36,22.78-27.2h60.94c.94,1.55,1.87,3.11,2.79,4.73,12.27,21.54,18.49,42.73,19.48,66.93l-51.67,32.96Z"/>
        <path class="cls-5" d="M1216.25,358.6c-1.47-23.76-7.94-44.81-20.11-66.25-.3-.54-.61-1.05-.94-1.59-13.84-23.83-31.09-41.02-54.92-54.92-13.53-7.91-26.95-13.44-41.04-16.79-11.19-2.65-22.8-3.93-35.26-3.93s-24.09,1.29-35.28,3.96c-14.07,3.35-27.46,8.87-40.95,16.76-23.83,13.91-41.09,31.09-54.92,54.92-.33.54-.63,1.05-.94,1.59-12.2,21.44-18.66,42.51-20.13,66.3-.21,3.58-.33,7.21-.33,10.93,0,28.42,6.44,52.58,20.46,77.26,5.29,9.29,11.05,17.56,17.49,25.03,10.65,12.41,23.18,22.62,38.37,31.49,5.01,2.93,10.02,5.55,15.03,7.82,19.29,8.78,38.93,12.9,61.27,12.9s41.88-4.1,61.15-12.9c5.03-2.27,10.04-4.87,15.08-7.82,15.17-8.85,27.67-19.03,38.3-31.42,6.48-7.49,12.27-15.78,17.56-25.1,14.02-24.68,20.46-48.84,20.46-77.26,0-3.72-.12-7.4-.35-10.98ZM917.76,362.46c.98-24.23,7.21-45.42,19.48-66.98.91-1.62,1.85-3.18,2.81-4.73h60.82l24.79,29.57-16.86,57.73-39.47,17.32-51.57-32.92ZM1059.16,471.51l-50.4,35.44c-6.02-2.53-11.96-5.55-17.93-9.04-15.8-9.22-28.58-19.95-39.35-33.24l17.58-60.19,36.73-16.13,5.74-2.51,47.64,36.76v48.91ZM1034.37,317.95l-25.61-30.55,17.91-61.36c11.82-3.16,24.09-4.68,37.32-4.68s25.49,1.5,37.29,4.66l17.91,61.38-25.59,30.55h-59.23ZM1137.21,497.91c-5.99,3.51-11.96,6.53-17.98,9.06l-50.43-35.47v-48.93l47.62-36.73,5.74,2.51,36.73,16.13,17.61,60.28c-10.77,13.25-23.53,23.95-39.28,33.15ZM1158.61,395.37l-39.47-17.32-16.83-57.73,1.99-2.36,22.78-27.2h60.94c.94,1.55,1.87,3.11,2.79,4.73,12.27,21.54,18.49,42.73,19.48,66.93l-51.67,32.96Z"/>
        <path class="cls-3" d="M695.82,221.36h65.49v228.27h102.96s0,68.17,0,68.17h-168.45s0-296.44,0-296.44Z"/>
        <path class="cls-7" d="M71.11,71.51h57.24v20.79h-34.3v19.7h30.93v19.76h-30.93v47.2h-22.94v-107.45Z"/>
        <polygon class="cls-2" points="211.02 221.36 178.01 440.35 178.01 440.37 178.01 440.35 145 221.36 71.11 221.36 139.8 517.81 166.33 517.81 189.69 517.81 216.22 517.81 284.91 221.36 211.02 221.36"/>
        <path class="cls-7" d="M217.76,109.2v-10.42c0-2.9-1.14-5.52-3-7.44-1.87-1.9-4.44-3.07-7.27-3.07-5.67,0-10.27,4.71-10.27,10.51v51.55c0,5.81,4.6,10.51,10.27,10.51s10.27-4.71,10.27-10.51v-13.04h24.53v7.54c0,19.67-15.57,35.63-34.8,35.63s-34.8-15.97-34.8-35.63v-40.52c0-19.69,15.57-35.66,34.8-35.66,9.6,0,18.31,4,24.6,10.44s10.2,15.38,10.2,25.21v4.89h-24.53Z"/>
        <rect class="cls-7" x="262.87" y="155.54" width="22.04" height="22.04"/>
        <rect class="cls-7" x="131.67" y="155.54" width="22.04" height="22.04"/>
        <path class="cls-7" d="M368.27,631.04v1043.81c60.03,41.96,127,74.66,198.85,96.03V631.04h-198.85Z"/>
        <path class="cls-2" d="M665.42,631.04v1161.43c32.6,4.7,65.92,7.18,99.83,7.18s66.68-2.44,99.02-7.07V631.04h-198.85Z"/>
        <path class="cls-7" d="M962.58,631.04v1140.09c71.84-21.28,138.81-53.86,198.85-95.71V631.04h-198.85Z"/>
        <path class="cls-2" d="M1270.94,631.04h-11.2v961.38c118.3-120.23,193.08-283.37,198.85-463.97v-497.42h-187.65Z"/>
        <path class="cls-2" d="M259.57,631.04H71.51v474.87c0,189.13,75.72,360.55,198.45,485.69v-960.56h-10.4Z"/>
        <path class="cls-2" d="M1458.43,443.06c0,42.84-32.85,81.75-91.12,81.75-9.6,0-18.28-.82-26.13-2.36-42.89-8.47-60.33-39.03-60.33-79.39v-23.76h60.33v26.1c0,14.42,11.71,26.13,26.13,26.13,7.21,0,13.74-2.93,18.45-7.66,4.73-4.73,7.66-11.26,7.66-18.47,0-.51-.02-1.03-.05-1.55v-.19c-1.64-32.1-49.02-55.27-80-77.44-26.83-19.17-31.77-50.64-32.52-65.97v-4.14c0-52.56,38.7-81.75,86.46-81.75,7.68,0,15.22.59,22.45,1.83,15.31,2.6,29.33,8.08,40.64,16.95,16.62,13.09,27.27,33.55,27.27,63.05v11.52h-67.92v-22.47c0-6.18-2.51-11.8-6.58-15.87-4.07-4.07-9.69-6.58-15.87-6.58s-11.82,2.51-15.9,6.58c-4.05,4.07-6.58,9.69-6.58,15.87,0,0-8.3,23.49,44.93,51.83,39.07,20.81,68.57,49.51,68.57,89.27l.09,16.74Z"/>
        <path class="cls-2" d="M1285.36,300.26c-.28-5.53,0-8.94,0-8.94"/>
        <path class="cls-4" d="M772.48,1665.37c-14.67,0-28.9-3.75-43.49-11.47-12.24-6.33-20.15-17.03-27.14-26.47-2.77-3.75-7.27-9.84-9.74-11.67-14.24.02-28.98.49-42.03.91-10.04.32-18.78.59-25.6.62-3.49.25-7.16.37-10.93.37-16.59,0-31.41-2.36-38.76-3.77-12.18-2.42-18.73-10.53-22.4-16.31-1.14.05-2.3.08-3.5.08-1.97,0-3.85-.08-5.7-.26-24.44-.5-45.04-9.12-58.08-24.34-8.69-10.09-11.68-20.78-13.66-27.85-.5-1.8-1.17-4.16-1.66-5.37-.13-.06-.29-.13-.49-.2-3.6-1.39-6.62-1.91-11.15-1.91-2.49,0-5.21.15-8.37.33-2.92.16-5.97.33-9.22.42-17.27.4-32.37,4.32-48.35,8.48-13.4,3.49-27.27,7.09-42.28,8.42-.09,0-.19.02-.28.02-5.44.42-10.42.62-15.21.62-23.52,0-36.87-5.02-49.78-9.88-3.49-1.31-6.8-2.56-10.44-3.76-9.52-3.13-15.98-11.98-16.09-22-.03-2.98.1-6.55.24-10.67.35-9.71.82-23.01-.62-34.72-.61-4.95-1.78-10.43-2.91-15.73-3.33-15.66-6.78-31.84,1.62-45.84,4.01-6.55,9.07-12.8,13.97-18.84,3.09-3.81,6.01-7.42,8.1-10.41,7.46-10.81,9.03-13.08,7.38-38.35-1.02-15.91-5.41-96.68,7.54-128.41,6.38-15.83,18.2-26.17,28.62-35.29,4.68-4.09,9.1-7.96,12.49-11.87,1.99-2.3,4.66-7.52,7.01-12.12,3.02-5.9,6.44-12.58,10.9-18.49,2.38-3.18,5.17-6.01,8.13-9.01,4.87-4.93,10.94-11.07,12.4-16.7,1.44-5.49,1.78-13.17,2.14-21.3.57-12.89,1.22-27.49,6.42-41.57,5.32-14.38,12.82-25.93,20.13-36.28,1.71-2.42,3.36-4.95,4.95-7.4,5.13-7.89,9.99-15.34,17.57-20.7,7.31-5.22,13.87-7.89,19.15-10.03,3.06-1.24,5.48-2.22,7.81-3.57,4.41-2.52,8.69-5.2,12.83-7.79,7.8-4.88,15.87-9.92,24.62-13.89,14.27-6.44,26.46-10.79,36.26-14.29,4.33-1.55,9.33-3.33,13.02-4.84-1.68-11.73-4.21-23.47-6.68-34.89-1.16-5.35-2.3-10.63-3.34-15.84-6.61-33.01,7.29-51.35,20.11-60.91,10.49-7.84,24.42-14.74,34.26-19.14,6.66-2.98,12.67-4.57,17.97-5.97,5.71-1.51,9.84-2.6,13.66-5.07,7.89-5.06,10.42-9.52,13.91-15.69l.19-.34c.57-1.03,1.25-2.47,2.03-4.13,3.18-6.78,7.99-17.03,19.45-25.14,6.46-4.59,13.29-8.18,19.9-11.66,12.92-6.8,25.12-13.22,37.16-27.75,8.45-10.2,23.28-17.05,36.9-17.05.46,0,.91,0,1.36.02,18.59.64,35.42,12.08,42.88,29.14,1.6,3.66,3.19,7.51,4.81,11.43,5.11,12.35,10.89,26.34,17.33,33.78,3.68,4.25,7.3,8.91,10.77,13.86,7.99,11.41,16.01,20.17,53.27,37.3,13.36,6.14,26.12,14.46,37.93,24.71,12.29,10.67,25.93,18.64,37.97,25.67l.24.14c22.28,12.94,45.66,27.9,65.32,49.3,13.06,14.16,20.38,26.61,25.23,42.95,1.14,3.78,2.01,7.48,2.78,10.74,1.69,7.18,2.75,11.35,4.96,13.61,9.13,9.29,21.18,21.85,33.18,36.26,22.21,26.58,41.2,53.64,61.29,82.3,6.58,9.37,13.37,19.06,20.32,28.78,1.42,1.32,6.44,3.55,9.78,5.04,8.99,3.99,21.24,9.43,29.18,21.16,16.45,22.41,19.51,35.98,21.59,50.16.74,5.05,1.23,8.39,3.16,13.02,2.22,5.3,4.23,10.3,6.15,15.06,5.84,14.49,10.45,25.94,17.77,38.04l4.1,6.78c11.75,19.4,23.9,39.46,38.63,70.81,3.44,7.1,6.11,18.97-.22,35.62-9.91,26.04-37.89,54.59-63.7,64.99-13.2,5.41-26.62,7.92-39.59,10.35-3.66.68-7.31,1.37-10.94,2.12-13.61,2.86-27.16,6.15-38.69,9,.15.99.24,1.99.27,3.01.25,10.44-6.44,19.79-16.41,22.91-9.48,2.97-18.48,3.98-26.43,4.88-2.6.29-5.21.59-7.83.96-7.04,1.04-14.4,2.64-22.19,4.33-3.25.73-6.71,1.54-10.19,2.35-20.96,4.87-42.63,9.92-64.83,9.92h0c-14.35,0-27.04-2.11-38.82-6.46-11.81-4.44-24.18-10.18-35.53-22.33-6.74-7.22-8.22-17.89-3.71-26.67l25.7-50.03c3.96-7.7,11.83-12.58,20.47-12.71,3.37-8.74,11.77-14.83,21.47-14.98,0,0,11.77-.19,11.89-.19,7.23,0,14.07,3.34,18.5,9.07,4.37,5.64,5.92,12.95,4.25,19.86-.18,2.3.52,7.91.87,10.65.47,3.8.91,7.33.69,10.86,4.75-3.37,10.23-6.22,16.63-7.85,7.51-1.93,14.87-2.19,21.09-2.19.73,0,1.47,0,2.19,0,.24-5.37.31-11.38.35-15.17.35-21.39,16.31-27.01,24.7-27.01,7.27,0,12.41,3.18,14.87,4.7l.46.28c1.02.57,2.83,1.66,6.1,4.03.41-1.14.86-2.3,1.35-3.48,3.46-8.49,4.1-22.48,2.81-28.17-3.5-4.15-7.78-6.47-13.01-9.3-2.1-1.14-4.28-2.32-6.48-3.67-18.95-11.36-20.62-32.38-21.83-47.74-.54-6.9-1.11-14.03-2.92-19.17-9.48-27.24-24.25-50.1-41.62-64.45-27.33-22.52-44.03-24.57-67.14-27.41-4.59-.57-10.27-1.05-15.77-1.52-14.25-1.21-23.4-2.1-30.25-4.18-19.25-5.84-27.45-22.23-33.43-34.2-1.9-3.8-5.03-10.06-6.86-11.64-.33-.07-1.17-.19-2.85-.19-2.01,0-4.49.17-7.11.36-3.38.24-7.21.51-11.32.51-4.36,0-8.34-.3-12.18-.92-6.97-1.14-13.07-3.91-18.28-6.95-.02.83-.05,1.66-.1,2.48-.47,7.62-3.53,14.98-8.64,20.72-1.59,1.78-1.85,2.63-1.85,2.64,0,0-.12,4.33,8.85,16.03,4.99,6.51,6.21,15.16,3.21,22.79-3,7.64-9.77,13.15-17.86,14.53l-117.05,19.97c-2.19.37-6.55,2.43-9.21,6.47-2.47,3.74-2.97,8.49-1.51,14.52l27.31,112.02,13.49-24.41c4.14-7.5,12.02-12.09,20.48-12.09.67,0,1.34.03,2.02.09,9.21.79,17.09,6.93,20.12,15.67l29.73,85.98c3.3-1.66,6.9-2.49,10.51-2.49,4.72,0,9.45,1.42,13.5,4.29,8.24,5.82,13.35,13.99,17.87,21.19.88,1.41,1.98,3.16,3.04,4.74.16,0,.33,0,.5,0,10.24,0,19.24,5.85,23.48,15.27,4.82,10.91,2.91,21.36,1.64,28.27-.18.96-.42,2.28-.55,3.19.53,1.95,1.36,4.25,2.23,6.64,1.48,4.12,3.16,8.78,4.28,13.97.19.86.41,1.79.64,2.77,1.63,6.97,4.09,17.49,4.29,28.5.02.77.03,1.55.05,2.34,4.2-1.68,8.51-3.43,12.75-5.16,8.81-3.58,17.91-7.28,26.18-10.39,3.01-1.13,6.16-1.71,9.36-1.71,9.7,0,18.62,5.31,23.29,13.86,4.64,8.51,4.27,18.86-.98,27.02-5.62,8.75-12.83,15.13-22.04,19.51-.45.22-.92.42-1.39.61-7.28,2.9-14.66,6.37-22.47,10.05-6.82,3.21-13.83,6.51-21,9.51-17.91,18.66-41.09,32.63-65.85,39.59-9.56,2.7-21.07,5.47-33.77,5.47Z"/>
        <path class="cls-3" d="M744,712.11h0c-6.48-.22-15.29,3.58-19.42,8.57-21.85,26.37-44.87,31.72-61.56,43.58-8.6,6.08-10.52,14.35-14.63,21.7-4.12,7.26-8.87,15.89-21.77,24.15-11.8,7.63-22.81,7.39-34.79,12.75-11.98,5.36-22.77,11.26-29.81,16.53-12.53,9.35-14.08,22.93-11.16,37.55,3.84,19.16,9,39.23,11.28,60.29,1.74,16.34-22.59,16.89-63.83,35.5-11.61,5.27-22.68,13.35-35.39,20.61-8.78,5.08-16.28,6.08-25.15,12.44-5.58,3.9-10.28,13.08-16.95,22.52-6.68,9.44-12.99,19.25-17.28,30.87-7.04,19.07-3.2,42.86-7.86,60.65-4.21,16.16-19.35,26.97-24.47,33.87-6.95,9.17-11.71,23.52-18.93,31.87-12.35,14.26-30.36,23.88-37.13,40.68-8.41,20.61-8.32,79.36-5.85,118.04,1.92,29.42-.4,37.14-11.56,53.3-6.04,8.63-15.78,19.07-21.18,27.88-5.4,8.99,2.16,28.15,4.44,46.67,2.29,18.61.46,39.02.55,48.01,20.8,6.85,30.93,14.61,66.34,11.91,29.81-2.63,56.61-16.16,92.09-16.98,14.17-.36,24.14-2.54,37.77,2.72,19.75,7.63,12.25,25.04,25.15,40.02,9.42,10.99,25,16.02,41.7,16.18,6.97.81,11.89-.82,17.92.45,8.05,1.73,8.45,14.8,16.68,16.43,12.35,2.36,29.32,4.16,44.41,2.98,15.22,0,43.3-1.52,69.61-1.52,20.52,0,28.8,31.59,46.73,40.86,22.53,11.92,39.4,9.97,59.97,4.16,20.67-5.81,41.98-18.07,58.53-36.77,16.19-6.36,32.28-15.14,48.47-21.59,6.39-3.04,9.88-7.12,12.4-11.03,1.62-2.52-.94-5.65-3.74-4.6-18.82,7.08-42.33,17.41-59.47,23.32-12.44,6.99-10.7-12.44-11.16-31.6-.18-9.99-2.93-20.16-4.39-26.69-1.55-7.35-5.3-14.71-6.86-22.06-1.55-7.17,4.08-17.96.79-25.4-1.92-4.27-7.04,2.57-13.44-2.06-9.33-6.72-14.72-23.37-23.59-29.63-7.04,5.54-20.85,19.37-26.15,5.48l-36.21-104.72-20.67,37.39c-3.1,5.61-9.01,9.1-15.42,9.1h0c-8.12,0-15.19-5.55-17.12-13.45l-30.83-126.47c-7.32-30.24,14.36-47.03,29.54-49.58l117.06-19.98c-16.33-21.31-17.7-35.26-5.9-48.49,1.62-1.82,2.61-4.14,2.76-6.58.34-5.61-.54-13.55-.1-18.32.36-3.94,2.26-7.57,5.3-10.1h0c4.96-4.14,12-4.57,17.5-1.19,6.15,3.78,14.4,11.03,22.79,12.4,15.73,2.54,30.49-4.05,42.29,3.58,15.46,9.99,16.88,37.86,34.53,43.22,7.77,2.36,28.08,3.14,42.07,4.86,25.88,3.18,47.46,6.45,79.2,32.6,21.77,17.98,38.37,44.76,48.8,74.73,7.22,20.52.53,46.22,14.8,54.66,7.96,4.9,19.24,8.86,28.08,21.58,5.21,10.44,3.99,34.15-1.87,48.5-5.94,14.44-4.85,26.24-14.63,32.78-11.36,3.02-7.46-9.1-15.09-13.87-4.66-3.72-9.05-6.99-11.07-8.08-3.38-2-4.85-3.63-4.94,2-.18,15.98-.46,34.78-5.3,36.68-9.14,3.45-23.59-.09-35.94,3.09-12.44,3.18-21.03,17.16-28.62,23.79-5.21,4.63-11.61,10.35-16.92,12.71-7.22-3.18-10.61-4.72-17.92-7.99-.18-16.25,10.33-28.96,17.56-44.31.91-1.91-3.02-18.07-.82-26.06l-11.52.18c-1.74,11.44-13.99,14.98-21.49,14.98l-25.7,50.03c8.14,8.72,17.1,12.8,26.52,16.34,31,11.44,67.67.73,100.78-6.72,7.96-1.73,15.91-3.45,23.87-4.63,10.24-1.45,20.39-1.82,30.54-4.99-11.16-2.91-16.92-6.36-18.38-10.35-2.29-6.17,7.04-8.81,22.41-12.62,14.08-3.45,33.2-8.35,53.04-12.53,15.73-3.27,31.92-5.27,46.55-11.26,28.17-11.35,59.81-52.17,51.56-68.79-15.91-33.87-28.57-53.88-41.65-75.58-10.88-17.98-16.26-34.14-25.5-56.2-8.6-20.61.41-27.97-22.31-58.75-8.14-12.53-29.87-13.6-38.65-25.77-27.8-38.86-51.76-75.29-80.75-109.98-10.43-12.53-21.12-23.88-31.92-34.87-9.24-9.44-9.69-21.61-13.44-34.05-3.29-11.08-8.14-20.88-20.03-33.78-17.19-18.7-37.86-32.12-59.9-44.93-12.86-7.52-27.71-16.17-41.74-28.35-9.77-8.48-20.6-15.71-32.36-21.11-40.54-18.64-51.92-29.79-62.67-45.15-2.9-4.14-5.98-8.14-9.28-11.96-11.26-13.01-18.47-34.16-25.9-51.16-3.89-8.9-12.53-14.78-22.24-15.12Z"/>
      </g>
    </g>
  </g>
</svg>