<?xml version="1.0" encoding="UTF-8"?>
<svg id="Calque_2" data-name="Calque 2" xmlns="http://www.w3.org/2000/svg" xmlns:xlink="http://www.w3.org/1999/xlink" viewBox="0 0 4898.35 5970.39">
  <defs>
    <style>
      .cls-1 {
        fill: none;
      }

      .cls-2 {
        fill: #fff;
      }

      .cls-2, .cls-3, .cls-4, .cls-5, .cls-6, .cls-7, .cls-8, .cls-9, .cls-10, .cls-11 {
        fill-rule: evenodd;
      }

      .cls-3 {
        fill: #030303;
      }

      .cls-12 {
        fill: url(#Dégradé_sans_nom_6);
      }

      .cls-13 {
        fill: url(#Dégradé_sans_nom_7);
      }

      .cls-14 {
        fill: url(#Dégradé_sans_nom_5);
      }

      .cls-15 {
        fill: url(#Dégradé_sans_nom_2);
      }

      .cls-16 {
        fill: url(#Dégradé_sans_nom_8);
      }

      .cls-4 {
        fill: #1f8543;
      }

      .cls-5 {
        fill: #bebabb;
      }

      .cls-6 {
        fill: #009541;
      }

      .cls-17 {
        fill: url(#Dégradé_sans_nom_5-4);
      }

      .cls-18 {
        fill: url(#Dégradé_sans_nom_5-9);
      }

      .cls-19 {
        fill: url(#Dégradé_sans_nom_5-3);
      }

      .cls-20 {
        fill: url(#Dégradé_sans_nom_5-2);
      }

      .cls-21 {
        fill: url(#Dégradé_sans_nom_5-6);
      }

      .cls-22 {
        fill: url(#Dégradé_sans_nom_5-8);
      }

      .cls-23 {
        fill: url(#Dégradé_sans_nom_5-5);
      }

      .cls-24 {
        fill: url(#Dégradé_sans_nom_5-7);
      }

      .cls-8 {
        fill: #555;
      }

      .cls-25 {
        fill: url(#Dégradé_sans_nom_13);
      }

      .cls-26 {
        fill: url(#Dégradé_sans_nom_14);
      }

      .cls-9 {
        fill: #fffffd;
      }

      .cls-10 {
        fill: #ddd;
      }

      .cls-11 {
        fill: #727473;
      }

      .cls-27 {
        fill: url(#Dégradé_sans_nom_5-12);
      }

      .cls-28 {
        fill: url(#Dégradé_sans_nom_5-11);
      }

      .cls-29 {
        fill: url(#Dégradé_sans_nom_5-10);
      }
    </style>
    <linearGradient id="Dégradé_sans_nom_14" data-name="Dégradé sans nom 14" x1="21.8" y1="5348.58" x2="21.8" y2="2212.51" gradientTransform="translate(1391.5 8427.03) scale(.66 -1.5)" gradientUnits="userSpaceOnUse">
      <stop offset="0" stop-color="#4a4542"/>
      <stop offset=".5" stop-color="#2b262a"/>
      <stop offset="1" stop-color="#000"/>
    </linearGradient>
    <linearGradient id="Dégradé_sans_nom_2" data-name="Dégradé sans nom 2" x1="3164.65" y1="2208.24" x2="3164.65" y2="5349.59" gradientTransform="translate(1387.09 8416.23) scale(.67 -1.5)" gradientUnits="userSpaceOnUse">
      <stop offset="0" stop-color="#115c31"/>
      <stop offset=".49" stop-color="#007b3a"/>
      <stop offset="1" stop-color="#009440"/>
    </linearGradient>
    <linearGradient id="Dégradé_sans_nom_13" data-name="Dégradé sans nom 13" x1="-149.77" y1="3269" x2="4723.75" y2="3269" gradientTransform="translate(394.36 6620.29) scale(.9 -1.11)" gradientUnits="userSpaceOnUse">
      <stop offset="0" stop-color="#080808"/>
      <stop offset=".31" stop-color="#585757"/>
      <stop offset=".49" stop-color="#555"/>
      <stop offset=".7" stop-color="#030303"/>
      <stop offset="1" stop-color="#030303"/>
    </linearGradient>
    <linearGradient id="Dégradé_sans_nom_5" data-name="Dégradé sans nom 5" x1="3318.28" y1="5271.53" x2="3318.28" y2="6921.51" gradientTransform="translate(-4748.5 3685.52) scale(2.11 -.47)" gradientUnits="userSpaceOnUse">
      <stop offset="0" stop-color="#a6a2a1"/>
      <stop offset=".38" stop-color="#edebea"/>
      <stop offset=".5" stop-color="#fefdfa"/>
      <stop offset="1" stop-color="#fefdfa"/>
    </linearGradient>
    <linearGradient id="Dégradé_sans_nom_5-2" data-name="Dégradé sans nom 5" x1="3173.92" y1="5211.14" x2="3173.92" y2="6861.1" xlink:href="#Dégradé_sans_nom_5"/>
    <linearGradient id="Dégradé_sans_nom_5-3" data-name="Dégradé sans nom 5" x1="2670.25" y1="4372.07" x2="2670.25" y2="6022.04" xlink:href="#Dégradé_sans_nom_5"/>
    <linearGradient id="Dégradé_sans_nom_5-4" data-name="Dégradé sans nom 5" x1="2862.43" y1="4799.54" x2="2862.43" y2="6449.67" xlink:href="#Dégradé_sans_nom_5"/>
    <linearGradient id="Dégradé_sans_nom_5-5" data-name="Dégradé sans nom 5" x1="3029.44" y1="5075.4" x2="3029.44" y2="6725.36" xlink:href="#Dégradé_sans_nom_5"/>
    <linearGradient id="Dégradé_sans_nom_5-6" data-name="Dégradé sans nom 5" x1="3632.42" y1="5209.35" x2="3632.42" y2="6859.31" xlink:href="#Dégradé_sans_nom_5"/>
    <linearGradient id="Dégradé_sans_nom_5-7" data-name="Dégradé sans nom 5" x1="4029.05" y1="4659.85" x2="4029.05" y2="6309.8" xlink:href="#Dégradé_sans_nom_5"/>
    <linearGradient id="Dégradé_sans_nom_5-8" data-name="Dégradé sans nom 5" x1="4170.08" y1="4287.87" x2="4170.08" y2="5937.83" xlink:href="#Dégradé_sans_nom_5"/>
    <linearGradient id="Dégradé_sans_nom_5-9" data-name="Dégradé sans nom 5" x1="3475" y1="5291.7" x2="3475" y2="6941.5" xlink:href="#Dégradé_sans_nom_5"/>
    <linearGradient id="Dégradé_sans_nom_5-10" data-name="Dégradé sans nom 5" x1="3755.34" y1="5108.19" x2="3755.34" y2="6758.15" xlink:href="#Dégradé_sans_nom_5"/>
    <linearGradient id="Dégradé_sans_nom_5-11" data-name="Dégradé sans nom 5" x1="3876.82" y1="4935.8" x2="3876.82" y2="6585.76" xlink:href="#Dégradé_sans_nom_5"/>
    <linearGradient id="Dégradé_sans_nom_5-12" data-name="Dégradé sans nom 5" x1="412.94" y1="3056.2" x2="412.94" y2="2863.22" gradientTransform="translate(1769.24 9496.33) scale(.58 -1.74)" xlink:href="#Dégradé_sans_nom_5"/>
    <linearGradient id="Dégradé_sans_nom_6" data-name="Dégradé sans nom 6" x1="2706.56" y1="7683.98" x2="4439.65" y2="7683.98" gradientTransform="translate(-6919.09 3260.54) scale(2.62 -.38)" gradientUnits="userSpaceOnUse">
      <stop offset="0" stop-color="#887d85"/>
      <stop offset=".5" stop-color="#b2aaa6"/>
      <stop offset="1" stop-color="#b9b2ad"/>
    </linearGradient>
    <linearGradient id="Dégradé_sans_nom_7" data-name="Dégradé sans nom 7" x1="3432.59" y1="5313.05" x2="3432.59" y2="1631.12" gradientTransform="translate(1389.34 8421.75) scale(.67 -1.5)" gradientUnits="userSpaceOnUse">
      <stop offset="0" stop-color="#717473"/>
      <stop offset=".52" stop-color="#a4a29c"/>
      <stop offset="1" stop-color="#b6b9b2"/>
    </linearGradient>
    <linearGradient id="Dégradé_sans_nom_8" data-name="Dégradé sans nom 8" x1="-254.05" y1="5328.26" x2="-254.05" y2="1636.96" gradientTransform="translate(1394.55 8434.52) scale(.66 -1.51)" gradientUnits="userSpaceOnUse">
      <stop offset="0" stop-color="#71716c"/>
      <stop offset=".49" stop-color="#938b8c"/>
      <stop offset="1" stop-color="#cac5c3"/>
    </linearGradient>
  </defs>
  <g id="svg266">
    <g>
      <path id="path2" class="cls-1" d="M407.92,2694.59c318.63,1235.42,1071,1951.61,2042.37,2405.6,928.27-408.95,1732.85-1178.67,2088.89-2470.66"/>
      <path id="path4" class="cls-1" d="M4527.1,2776.02c-347.9,1287.38-1059.93,2186.63-2077.7,2633.51-922-442.41-1735.57-1231.33-2071.67-2755.9"/>
      <path id="path16" class="cls-26" d="M502.96,695.48c-96.54,507.67-145.56,967.23-138.94,1405.77,3.09,204.44,18.29,404.57,46.43,603.15,319.89,1228.68,1070.14,1942.16,2038.11,2394.98V382.94c-.24,0-.47,0-.71,0-306.4-2.73-624.89,17.84-954.18,69.06-319.76,49.74-650.33,128.64-990.71,243.48h0Z"/>
      <path id="path18" class="cls-4" d="M2450.28,5100.18l-1.72-.8c.57.27,1.14.53,1.72.8ZM2448.56,382.94v5026.19c.28.14.56.27.84.41,906.22-397.9,1570.05-1154.46,1950.26-2224.3,28.7-109.89,52.88-221.45,72.65-334.81,22.52-129.09,39.33-260.51,50.61-394.48,44.5-528.29,3.33-1096.18-112.31-1715.98-320.33-109.35-641.77-196.2-964.57-256.93-331.66-62.39-664.1-97.07-997.49-100.09h0Z"/>
      <path id="path30" class="cls-15" d="M2448.56,382.94v4716.44c.57.27,1.14.53,1.72.8,874.1-385.08,1638.52-1090.06,2022.04-2249.76,22.52-129.09,39.33-260.51,50.61-394.48,44.5-528.29,3.33-1096.18-112.31-1715.98-320.33-109.35-641.77-196.2-964.57-256.93-331.66-62.39-664.1-97.07-997.49-100.09h0Z"/>
      <path id="path45" class="cls-25" d="M440.68,606.64c355.21-121.75,701.39-205.02,1037.12-257.24,335.1-52.13,659.14-73.06,970.86-70.28,340.55,3.03,679.3,38.28,1016.54,101.73,336.73,63.35,672.61,154.96,1007.84,270.82l28.57,9.88,5.63,29.61c121.68,640.81,165.5,1227.51,119.52,1773.33-46.16,547.89-182.59,1054.56-421.31,1533.25l-.08-.04c-195.11,396.56-447.7,722.84-742.29,997.77-293.81,274.21-629.13,497.02-990.61,687.4l-23.65,12.45-23.78-11.84c-471.45-234.74-896.09-545.92-1240.29-940.63-317.03-363.55-568.87-797.45-722.3-1307.14-133.13-442.25-195.34-876.87-202.23-1333.25-6.88-455.13,44.78-930.75,146.27-1456.34l5.74-29.74,28.46-9.76ZM1494.54,453.29c-319.76,49.74-650.33,128.21-990.71,243.05-96.54,507.67-140.61,966.58-133.98,1405.12,6.74,445.86,65.28,870.96,195.79,1304.53,149,494.98,389.93,916.02,697.27,1268.46,328.82,377.06,734.17,676.21,1184.77,903.86,344.78-183.56,664.39-397.51,944.55-658.98,285.75-266.69,530.76-583.17,719.98-967.81v-.2c232.67-466.58,365.68-960.74,410.72-1495.39,44.5-528.29,3.33-1096.18-112.31-1715.98-320.33-109.35-641.77-196.2-964.57-256.93-331.9-62.44-663.31-91.96-996.95-94.94-306.4-2.73-625.28,13.97-954.57,65.2h0Z"/>
      <path id="path47" class="cls-8" d="M2448.56,5099.38c-967.97-452.83-1718.22-1166.3-2038.11-2394.98,11.92,84.1,26.16,167.93,42.78,251.68,372.2,1327.92,1136.69,2040.82,1995.33,2453.05v-309.75Z"/>
      <path id="path49" class="cls-11" d="M2448.56,5409.13c-858.64-412.23-1623.12-1125.13-1995.33-2453.05,29.72,149.78,67.07,299.35,112.4,449.92,149,494.98,389.93,916.02,697.27,1268.46,328.82,377.06,734.17,676.21,1184.77,903.86.29-.16.59-.31.88-.47v-168.72Z"/>
      <path id="path51" class="cls-6" d="M4399.67,3185.23c-380.21,1069.85-1044.04,1826.4-1950.26,2224.3-.28-.14-.56-.27-.84-.41v168.72c344.44-183.46,663.74-397.26,943.67-658.51,285.75-266.69,530.76-583.17,719.98-967.81v-.2c123.17-247,218.41-501.72,287.46-766.1h0Z"/>
      <path id="path53" class="cls-3" d="M2087.65,1124.08l60.4-432.3c2.05-14.69,14.67-25.55,28.86-25.96l160.37-4.63c14.19-.41,27.11,9.92,29.18,24.71l69.03,494.37c2.53,18.09-11.97,34.96-29.45,35.57l-295.55,10.32c-9.72.34-19.02-4.24-25.15-11.52-4.62,6.24-11.59,10.57-19.69,11.3l-219.38,19.88c-14.63,1.33-28.92-8.11-32.47-22.64-2.42,13.72-13.4,25.61-27.42,27.47l-114.66,15.22c-10.99,1.46-21.51-3.71-28.18-12.24-5.36,9.15-14.3,16.09-24.64,18.03l-102.57,19.23c-18.86,3.54-36.3-13.01-36.3-32.27l-.09-500.34c0-15.91,11.47-30.61,27.09-32.67l107.29-14.18c12.21-1.61,24.28,4.6,30.53,14.84,4.85-13.03,16.55-23.25,30.24-24.7l91.18-9.65c20.86-2.21,39.99,19.06,33.71,40.41l-67.06,228.1,79.88,247.57c.06.18.12.37.17.56l.67-491.48c.02-16.03,11.89-30.56,27.82-31.63l214.34-14.43c17.05-1.15,30.57,13.91,30.57,30.85v57.43c0,16.08-12.26,30.45-28.15,31.31l-79.47,4.27-.2,81.58,67.38-4.38c16.6-1.08,30.83,13.27,30.79,30.21l-.13,54.38c-.04,16.51-13.4,30.25-29.16,31.22l-68.61,4.24v121.06s79.97-6.63,79.97-6.63c12.35-1.02,23.75,6.59,28.89,17.57h0ZM1113.86,1311.54l80.2-507.38c2.14-13.53,12.88-24.12,25.76-26.75l133.7-27.29c17.82-3.64,37.37,8.16,40.65,27.16l83.89,486.76c2.79,16.2-7.44,33.11-23.46,36.38l-107.8,21.99c-17.02,3.47-33.66-10.28-35.58-27.63l-11.56-103.94-7.19,1.67-11.63,116.73c-1.51,15.19-10.95,29.36-26,32.93l-106.51,25.3c-14.32,3.4-28.18-5.12-34.41-17.72-.43,14.91-8.77,29.26-23.3,33.63l-95.24,28.65c-11.45,3.44-22.89-1.27-30.24-10.39-4.53-5.63-7.34-12.57-7.32-19.97v-4.13s-5.29,28.52-5.29,28.52c-2.15,11.56-9.49,21.13-20.51,24.87l-72.77,24.68c-17.05,5.78-36.34-5.7-40.61-23.49l-13.11-54.55-.3,71.83c-.06,14.18-9.39,26.91-22.07,31.89l-80.55,31.62c-18.21,7.15-38.75-6.95-38.75-27.22l-.22-531.45c0-14.11,9.64-26.39,22.5-30.47l138.7-44.04c16.5-5.24,35.08,5.43,38.57,23.13l21.27,108,20.58-135.5c1.99-13.11,12.06-23.54,24.39-26.67l142.74-36.22c19.65-4.99,40.45,11.35,40.49,32.35l.99,466.74ZM2430.87,778.64c-.09-90.08,72.91-122.47,148.32-122.76,58.08-.23,127.67,19.44,154.73,78.04,6.68,14.46,9.96,30.05,9.99,46.05l.69,332.41c.06,32.67-17.86,60.3-43.25,78.56-32.03,23.03-73.65,30.66-112.02,30.74-51.14.1-118.64-12.85-146.55-62.65-7.82-13.96-11.57-29.41-11.59-45.49l-.35-334.89ZM2943.16,734.32l-.38-22.19c-.32-18.36,16.33-33.2,33.8-31.2l88.5,10.14c15.22,1.75,28.04,14.79,28.04,31l.27,496.47c0,16.06-13.56,28.71-28.94,27.63l-115.33-8.13c-12.4-.88-23.55-9.3-27.09-21.82l-24.85-88.07-.12,72.21c-.03,17.06-14.36,31.37-30.9,30.88l-90.06-2.66c-16.74-.5-29.39-15.77-29.37-32.51l.58-493.41c.02-16.61,12.03-31.58,29.08-31.16l125.33,3.05c14.73.36,27.87,11.42,31.92,25.86l9.5,33.91ZM3095.61,728.43c.07-19.82,19.88-34.3,37.94-32.19l100.94,11.81c16.43,1.92,30.97,15.64,30.97,33.37l-.21,497.82c0,18.85-17.48,33.9-35.39,31.54l-107.18-14.1c-15.75-2.07-29.07-12.42-29.01-30.17l1.93-498.08ZM3436.34,758c7.81-10.76,21.3-17.05,34.45-14.37l96.84,19.75c18.26,3.73,30.92,22.72,24.47,41.58l-70.53,206.25,81.57,278.82c1.95,6.68,1.65,13.88-.42,20.49-4.77,15.29-18.84,25.9-34.75,22.38l-114.19-25.31c-11.13-2.47-21.02-8.93-25.68-19.45-7.19,7.23-17.61,11.16-27.94,9.53l-105.35-16.65c-16.01-2.53-26.84-17.92-26.85-34.06l-.32-493.53c-.02-20,17.39-38.33,37.38-35.49l103.73,14.78c13.55,1.93,24.42,12.09,27.58,25.29h0ZM3601.24,890.45c.03-19.85,4.77-39.17,16-55.52,31.54-45.88,94.28-44.54,141.98-34.43,71.84,15.22,154.28,65.1,154.38,150.12l.43,358.25c.02,13.74-3.22,27.01-10.11,38.82-29.12,49.9-101.94,47.84-149.85,37.17-72.04-16.05-153.37-67.39-153.26-152.35l.43-342.06ZM4120.44,1073.36l30.38,96.36c2.91,9.24,1.95,18.02-.68,27.07l-38.69,133.55,62.34,21.02c14.08,4.75,24.91,18.52,24.84,34.07l-.43,99.88c-.09,21.26-21.44,33.46-39.64,27.07l-225.56-79.24c-16.09-5.65-25.33-24.8-20.39-41.46l73.3-247.22-72.89-247.66c-7-23.77,15.69-49.63,39.47-42.11l221.25,69.94c13.95,4.41,24.81,17.74,24.88,33.09l.43,98.99c.09,20.86-19.23,39.4-39.87,31.5l-38.75-14.84ZM2256.52,1050.5l-5.51,48.58,11.23-.15-5.72-48.43Z"/>
      <polygon class="cls-1" points="1292.07 934.92 1278.29 1084.86 1312.07 1078.31 1298.28 933.88 1292.07 934.92"/>
      <g>
        <path class="cls-14" d="M2340.66,688.76c-.18-1.1-1.65-1.75-2.67-1.65l-160.4,4.41c-1.56.09-3.49,1.38-3.77,2.94l-69.77,484.51c-.28,2.3,3.22,4.41,5.52,4.41l295.52-10.02c2.21-.09,4.87-2.67,4.6-4.78l-69.03-479.82ZM2221.72,1112.51l32.17-275.49h4.32l33.37,274.57-69.86.92Z"/>
        <path class="cls-20" d="M2060.85,1119.24l-108.11,8.71v-170.28s93.09-5.59,93.09-5.59c2.12-.12,4.66-2.24,4.66-4.36l.13-52.78c0-1.49-1.6-3.35-3.09-3.25l-95.16,6.01.34-131.68,104.1-5.43c1.85-.09,3.45-2.51,3.45-4.37v-55.74c0-1.61-1.2-4.05-2.81-3.94l-214.34,14h0c-1.95.13-3.46,2.78-3.46,4.74l-.68,484.37c0,1.92,3.07,3.05,4.98,2.88l219.38-19.3c1.09-.09,1.93-1.58,1.91-2.68l-.81-57.85c-.02-1.66-1.94-3.59-3.6-3.46Z"/>
        <path class="cls-19" d="M1078.61,833.15l-142.74,35.16c-2.17.53-4.53,2.4-4.88,4.61l-43.01,274.86-50.12-247.02c-.4-1.96-3.44-3.32-5.36-2.73l-138.7,42.75c-1.98.61-4.12,2.59-4.12,4.67l.22,515.84c0,1.38,2.13,2.57,3.42,2.08l80.55-30.69c2.66-1.01,5.28-3.87,5.29-6.72l1.2-279.56,63.56,256.63c.67,2.7,4.53,5.18,7.17,4.31l72.77-23.96c1.85-.61,2.7-2.38,3.07-4.29l57.5-300.26-.56,281.54c0,1.55,2.71,4.84,4.2,4.41l95.24-27.81c3.18-.92,4.58-5.52,4.57-8.84l-1.06-488.84c0-3.42-4.89-6.97-8.2-6.15Z"/>
        <path class="cls-17" d="M1368.51,778.29c-.64-3.77-6.25-6.16-9.93-5.42l-133.74,26.56c-2.21.37-4.69,2.3-5.06,4.6l-83.19,510.8c-.46,2.85,3.12,6.99,5.88,6.34l106.54-24.54c3.49-.83,5.52-5.61,5.88-9.28l13.6-131.91,53.77-12.13,14.8,129.7c.28,1.93,2.76,4.6,4.69,4.23l107.82-21.33c1.84-.37,3.12-3.31,2.85-5.15l-83.92-472.47ZM1278.25,1084.85l13.79-149.92,6.25-1.01,13.79,144.41-33.83,6.53Z"/>
        <path class="cls-23" d="M1705.55,951.81l69.46-229.32c.81-2.67-3.33-6.03-6.11-5.75l-91.18,9.37c-4.01.41-7.72,4.36-8.86,8.22l-48.79,165.42,3.06-160.46c.04-2.21-3.33-3.97-5.53-3.68l-107.29,13.76c-2.41.31-4.34,3.43-4.34,5.86l.09,485.64c0,2.66,2.97,6.17,5.58,5.7l102.57-18.66c4.43-.81,8.59-5.96,8.56-10.47l-1.14-177.17,40.9,176.89c.57,2.48,3.31,5.25,5.83,4.92l114.66-14.77c2.94-.38,5.96-4.55,5.02-7.36l-82.49-248.15Z"/>
        <path class="cls-21" d="M3062.2,715.93l-88.5-9.84c-2.07-.23-4.91,1.84-4.87,3.92l3.88,218.45-64.08-222.14c-.9-3.13-4.24-6.2-7.5-6.27l-125.33-2.96h0c-1.62-.04-2.4,2.61-2.4,4.23l-.58,478.91c0,2.27,1.79,5.41,4.06,5.48l90.06,2.59c1.9.05,4.1-2.07,4.1-3.97l.42-251.97,75.62,260.14c.42,1.46,2.33,2.35,3.84,2.45l115.33,7.89c.45.03,1.1-.35,1.1-.81l-.27-481.89c0-2.14-2.74-3.97-4.87-4.2Z"/>
        <path class="cls-24" d="M3887.59,942c-.09-59.84-59.75-105.07-133.65-120.23-84.2-17.28-126.57,10.57-126.67,61.86l-.37,332.02c-.09,63.61,64.53,107.64,132.64,122.35,73.26,15.81,128.5-2.57,128.41-48.26l-.37-347.74ZM3778.94,1252.42c0,7.17-7.54,15.35-16.09,13.6-13.24-2.76-23.07-10.39-23.07-23.26l.18-343.23c0-6.07,11.49-9.01,17.28-7.08,10.57,3.58,21.97,10.3,21.97,20.22l-.28,339.74Z"/>
        <path class="cls-22" d="M4165.68,1355.68l-77.6-25.4c-4.39-1.44-7.32-8.08-5.99-12.51l43.09-144.34c1.03-3.45,1.97-7.35.86-10.77l-43.95-135.3c-.95-2.92,4.45-6.67,7.33-5.6l78.85,29.3c2.4.89,4.75-3.48,4.74-6.03l-.43-96.08c0-3.26-3.35-6.37-6.46-7.33l-221.25-67.88c-3.46-1.06-7.94,4.94-6.89,8.4l75.19,247.98-75.62,247.54c-.86,2.82,1.08,7.02,3.88,7.97l225.56,76.91c1.72.58,5.16.09,5.17-1.72l.43-96.95c.02-3.57-3.51-7.08-6.9-8.19Z"/>
        <path class="cls-18" d="M2717.9,776.36c-.18-57.54-58-94.77-138.62-94.4-53.41.18-122.44,17.1-122.35,93.02l.37,325.03c0,54.69,61.86,79.14,132,78.96,86.68-.18,129.33-40.17,129.24-79.97l-.64-322.64ZM2605.76,1096.61c0,8.27-12.13,13.05-19.49,13.05-8,0-19.85-4.23-19.95-12.32l-.28-333.21c0-7.26,11.95-12.78,19.3-13.05,7.45-.37,20.5,3.68,20.5,11.12l-.09,334.41Z"/>
        <path class="cls-29" d="M3231.56,732.41l-100.94-11.46c-2.92-.33-8.94,2.52-8.95,5.46l-1.93,483.45c-.01,2.44,3.83,3.02,6.25,3.33l107.18,13.69c2.54.33,6.03-2.22,6.03-4.78l.21-483.2c0-3.39-4.47-6.11-7.85-6.49Z"/>
        <path class="cls-28" d="M3494.16,1000.15l73.36-208.22c1.03-2.93-1.91-5.54-4.96-6.14l-96.84-19.17c-3.84-.76-8.67,2.72-9.8,6.46l-44.92,147.79.21-158.13c0-3.37-2.7-6-6.03-6.46l-103.73-14.34c-3.82-.53-7.76,4.75-7.75,8.62l.32,479.03c0,2.91,1.86,6.89,4.74,7.32l105.35,16.16c2.96.45,7.32-2.18,7.33-5.17l.43-175.8,39.64,185.71c.65,3.04,4.72,4.52,7.75,5.17l114.19,24.57c3.21.69,5.68-5.48,4.74-8.62l-84.03-278.78Z"/>
      </g>
      <path id="path70" class="cls-2" d="M2407.61,1817.3c-349.05-43.12-613.36,10.25-830.03,117.89.23,103.18.63,208.95.86,312.13,41.7,3.44,65.16,14,83.76,35.59l.17,36.28c-120.95,33.7-239.61,78.1-355.05,137.54-.11,101-.23,202-.34,302.99,19.76,11.26,39.53,22.53,59.29,33.79,0,381.59,0,763.18,0,1144.77,9.65-16.89,19.3-33.78,28.95-50.67.46-195.79.93-391.58,1.39-587.37,278.1-87.69,583.24-159.27,966.21-184.41,6.89-8.5,13.79-17.01,20.68-25.51-412.23,25.14-743.9,90.91-988.6,172.35.23-81,1.15-161.84,1.38-242.84l14.14-10.51v-14.48l-14.82,7.58c.23-5.17.46-10.34.69-15.51l14.82-7.59-.35-57.74c-.05-8.66,17.19-36.82,42.4-37.75,12.84-.47,28.02,7.78,35.16,17.93v-36.19c-7.13-19.99-25.69-39.97-44.12-40.16-22.25-.23-39.87,21.2-47.57,48.08v-135.82s-64.81-40.68-64.81-40.68c-.23-68.25.23-136.15,0-204.4,36.02-19.2,79.11-38.71,126.16-55.15v232.33c15.17-5.52,30.33-11.03,45.5-16.55.69-77.21,1.38-154.43,2.07-231.64,64.8-19.42,127.54-39.53,192.35-58.95l1.38,232.33c25.05-5.28,50.1-10.57,75.14-15.86,0-76.75,0-153.5,0-230.26,64.58-10.11,129.15-20.22,193.73-30.33-.46,77.9-.92,155.81-1.38,233.71,30.56-4.14,61.13-8.27,91.69-12.41-.46-77.21-.92-154.43-1.38-231.64,90.15-4.99,179.18-7.18,267.49-7.59v225.44c28.04-.23,56.07-.46,84.11-.69-.23-98.12-.46-196.25-.69-294.38-277.12-7.59-518.8,12.52-707.67,74.79v-49.63c16.2-4.94,32.74-10.22,48.95-15.16.46-20.34.92-45.33,1.38-65.66,10.26-14.79,30.54-37.22,63.43-37.75,24.61-.39,40.94,8.39,59.98,31.54l.17-17.75c-15.73-20.67-34.81-32.99-59.63-33.26-36.95-.41-57.52,16.82-73.59,39.12l-.69,60.32-42.74,15.86c1.61-27.46-12.62-55.79-39.99-60.32-13.98-2.31-30.56-1.72-40.67,12.41l.17-223.71c37.89-15.66,76.27-32.03,115.99-45.85l-1.72,135.12c22.52-7.35,45.04-14.71,67.56-22.06.23-44.12.46-88.24.69-132.37,61.36-17.67,122.72-30.36,184.07-40.68-.23,46.42-.46,92.84-.69,139.26,28.5-2.76,56.99-5.52,85.49-8.27.23-46.42.12-91.98.35-138.4,79.67-3.38,156.45-2.2,230.62,3.61,1.03,44.93,2.07,89.86,3.1,134.78,28.27,1.84,56.54,3.68,84.8,5.52.23-44.58.46-89.16.69-133.75,6.43,1.38,12.87,2.76,19.3,4.14.08-15.17.17-30.33.26-45.5h0Z"/>
      <path id="path72" class="cls-2" d="M1656.62,2824.62l.69-40.36c.19-11.16-22.79-43.76-53.43-43.77-32.71-.02-55.91,29.15-55.84,51.53.12,41.36-.46,75.66-.69,117.03-16.66,7.81-33.32,14.6-49.99,22.41l-.17,23.1c26.77-10.8,53.37-22.29,80.14-33.09v-22.75c-4.83,2.18-8.96,4.02-13.79,6.2l.69-58.25c-.06-12.87,23.57-40.88,52.39-41.71,25.56-.74,34.12,11.23,39.98,19.67h0Z"/>
      <path id="path74" class="cls-2" d="M1673.04,2879.79c10.11-2.64,21.64-5.54,31.75-8.18.23-42.17-1.59-84.4.7-126.51,1.71-31.39,26.19-64.21,70.32-62.39,38.4,1.58,67.68,32.26,67.91,55.84l.35,37.05c-13.39-15.11-36.73-25.66-54.12-24.64-26.16,1.53-64.8,29.27-64.8,52.74v62.05c16.31-4.6,32.28-6.43,48.6-11.03v32.05s-100.65,23.09-100.65,23.09l-.06-30.07Z"/>
      <path id="path76" class="cls-2" d="M1847.82,2829.64l53.6-10v-105.82c0-30.03,35.7-57.78,75.15-56.53,39.6,1.26,83.67,31.67,83.08,65.49l-1.38,77.56h54.12l-.35-97.9c-.12-34.87,42.03-65.38,82.39-64.45,31.8.73,75.26,32.65,75.32,64.46l.18,98.07,55.67,4.14-.34-78.94c-.15-35.09,44.54-66.18,82.83-63.94l-.56,75.26c-31.21-11.3-74.41,21.43-74.16,42.97l.68,59.12-74.45-4.31.69-61.01c.33-28.88-42.68-53-71.52-54.29-26.54-1.19-66.66,20.65-66.53,47.22l.35,69.97c-23.21-.23-46.42-.46-69.63-.69v-51.88c0-23.07-36.98-53.21-68.6-54.81-33.3-1.68-72.73,26-72.73,55.5v68.6c-20.68,3.79-43.26,8.1-63.94,11.89l.14-35.68Z"/>
      <path id="path78" class="cls-2" d="M1881.52,2185.77l.34,31.88,46.71-7.58.17-64.81c.07-27.61,32.47-52.04,66.18-54.12,29.62-1.82,55.67,13.39,73.77,37.92l.34-26.37c-10.51-23.5-38.44-42.42-69.97-42.91-30.87-.48-77.82,25.49-77.91,56.36l-.17,64.29-39.47,5.34Z"/>
      <path id="path80" class="cls-2" d="M2073.86,2162.47c16.43-.69,32.86-1.38,49.29-2.07l-.6-72.56c-.21-25.29,37.9-41.6,63.17-41.71,30.68-.13,54.74,12.82,64.81,32.32l-.18,19.56c-14.91-21.06-35.13-29.09-56.01-29.47-31.69-.58-66.21,25.34-66.36,54.98l-.34,66.87c-18.1,1.66-36.19,3.33-54.29,5,.17-10.98.34-21.95.51-32.93h0Z"/>
      <path id="path82" class="cls-2" d="M2253.99,2156.71c16.2-.34,33.87,0,50.07-.35v-52.57c0-27.64,35.81-47.9,68.94-47.91,13.01,0,27.1,1.36,34.81,9.74v14.22c-9.02-4.94-19.56-7.65-30.5-7.41-34.62.77-67.77,26.65-67.74,54.29l.08,57.31-55.76.69.09-28.01Z"/>
      <path id="path212" class="cls-27" d="M1993.29,4190.06l69.33-.43v335.08h-81.98v-246.05h-29.16v-46.92c17.9-.91,37.35-20.65,41.81-41.68Z"/>
      <g>
        <path class="cls-7" d="M3227.77,2646.31c-1.65,8.06-2.51,16.4-2.51,24.94h0c0,4.92.37,9.75.93,14.53,1.42,12.08,4.53,23.64,9.17,34.4,4.26,9.87,9.81,19.04,16.37,27.38,3.07,3.9,6.28,7.68,9.78,11.19,6.7,6.7,14.23,12.52,22.32,17.54,18.95,11.78,41.23,18.7,65.18,18.7,22.12,0,42.83-5.87,60.8-16.04,37.56-21.25,62.95-61.48,62.95-107.71,0-68.34-55.4-123.75-123.75-123.75h0c-17.09,0-33.36,3.46-48.17,9.72-7.4,3.13-14.44,6.96-21.02,11.41-26.33,17.79-45.45,45.45-52.04,77.67Z"/>
        <path class="cls-7" d="M3458.03,2409.24h0c25.13,9.97,55.95-5.77,62.88-28.03l140.94-453.08c.49-1.57-.38-3.89-2.03-4.58-1.65-.68-4.61-.6-5.39.86l-222.46,420.54c-10.34,19.55.58,54.18,26.06,64.29Z"/>
        <path class="cls-7" d="M3350.92,2540.66h0c37.08,0,69-36.31,66.08-65.77l-60.84-613.27c-.15-1.51-2.34-3.12-5.25-3.12s-4.87,2.42-5.02,3.93l-60.84,613.27c-2.92,29.46,28.8,64.96,65.87,64.96Z"/>
        <path class="cls-7" d="M3241.38,2410.17h0c24.82-10.72,35.48-43.65,24.64-64.28l-220.72-420.03c-.77-1.46-3.02-2.49-4.67-1.8-1.65.68-3.69,2.83-3.2,4.42l140.06,454.67c6.51,21.13,38.72,37.9,63.89,27.03Z"/>
        <path class="cls-7" d="M3166.06,2579.48c18.77,22.9,66.3,25.57,92.51-.64h0c26.22-26.22,23.12-74.47.22-93.23l-476.67-390.62c-1.17-.96-3.85-.55-5.91,1.51-2.06,2.06-1.73,5.15-.77,6.33l390.62,476.67Z"/>
        <path class="cls-7" d="M3024.55,2590.08c19.55,10.34,54.18-.58,64.29-26.06h0c9.97-25.13-5.77-55.95-28.03-62.88l-453.08-140.93c-1.57-.49-3.9.38-4.58,2.03-.68,1.65-.6,4.61.86,5.39l420.54,222.46Z"/>
        <path class="cls-7" d="M3220.27,2671.13h0c0-37.08-36.31-69-65.77-66.08l-613.27,60.84c-1.51.15-3.12,2.33-3.12,5.25s2.42,4.87,3.93,5.02l613.27,60.84c29.46,2.92,64.96-28.8,64.96-65.87Z"/>
        <path class="cls-7" d="M3089.77,2780.67c-10.72-24.82-43.65-35.48-64.28-24.64l-420.03,220.72c-1.46.77-2.49,3.02-1.8,4.67.68,1.65,2.83,3.69,4.42,3.2l454.67-140.06c21.13-6.51,37.9-38.72,27.03-63.89Z"/>
        <path class="cls-7" d="M3258.45,2763.48c-26.22-26.22-74.46-23.12-93.23-.22l-390.62,476.67c-.96,1.17-.55,3.85,1.51,5.91s5.15,1.73,6.33.77l476.67-390.62c22.9-18.77,25.57-66.3-.65-92.51h0Z"/>
        <path class="cls-7" d="M3243.63,2933.2h0c-25.13-9.97-55.95,5.77-62.88,28.03l-140.94,453.08c-.49,1.57.38,3.89,2.03,4.58,1.65.68,4.61.6,5.39-.86l222.46-420.54c10.34-19.55-.58-54.18-26.06-64.29Z"/>
        <path class="cls-7" d="M3350.74,2801.78c-37.08,0-69,36.31-66.08,65.77l60.84,613.27c.15,1.51,2.33,3.12,5.25,3.12s4.87-2.42,5.02-3.93l60.84-613.27c2.92-29.46-28.8-64.96-65.87-64.96Z"/>
        <path class="cls-7" d="M3460.28,2932.27c-24.82,10.72-35.48,43.65-24.64,64.28l220.72,420.03c.77,1.46,3.02,2.49,4.67,1.8,1.65-.68,3.69-2.83,3.2-4.42l-140.06-454.67c-6.51-21.13-38.72-37.9-63.89-27.03Z"/>
        <path class="cls-7" d="M3535.6,2762.96c-18.77-22.9-66.3-25.57-92.51.64h0c-26.22,26.22-23.12,74.47-.22,93.23l476.67,390.62c1.17.96,3.85.55,5.91-1.51,2.06-2.06,1.73-5.15.77-6.33l-390.62-476.67Z"/>
        <path class="cls-7" d="M3677.1,2752.36c-19.55-10.34-54.18.58-64.29,26.06-9.97,25.13,5.77,55.95,28.03,62.88l453.08,140.94c1.57.49,3.9-.38,4.58-2.03.68-1.65.6-4.61-.86-5.39l-420.54-222.46Z"/>
        <path class="cls-7" d="M4159.61,2666.28l-613.27-60.84c-29.46-2.92-64.96,28.8-64.96,65.87s36.31,69,65.77,66.08l613.27-60.84c1.51-.15,3.12-2.33,3.12-5.25s-2.42-4.87-3.93-5.02Z"/>
        <path class="cls-7" d="M3611.88,2561.77h0c10.72,24.82,43.65,35.48,64.28,24.64l420.03-220.72c1.46-.77,2.49-3.02,1.8-4.67-.68-1.65-2.83-3.69-4.42-3.2l-454.67,140.06c-21.13,6.51-37.9,38.72-27.03,63.89Z"/>
        <path class="cls-7" d="M3536.44,2579.18l390.62-476.67c.96-1.17.55-3.85-1.51-5.91s-5.15-1.73-6.33-.77l-476.67,390.62c-22.9,18.77-25.57,66.3.64,92.51,26.22,26.22,74.46,23.12,93.23.21Z"/>
      </g>
      <path id="path214" class="cls-5" d="M3347.95,2548.16c-24.19,0-46.1,9.81-61.95,25.66s-25.66,37.76-25.66,61.95,9.81,46.1,25.66,61.95,37.76,25.66,61.95,25.66,46.1-9.81,61.95-25.66,25.66-37.76,25.66-61.95-9.81-46.1-25.66-61.95c-15.85-15.85-37.76-25.66-61.95-25.66ZM3272.19,2560.01c19.39-19.39,46.18-31.39,75.76-31.39s56.37,12,75.76,31.39c19.39,19.39,31.38,46.18,31.38,75.76s-12,56.38-31.38,75.76c-19.39,19.39-46.18,31.39-75.76,31.39s-56.37-12-75.76-31.39c-19.39-19.39-31.38-46.18-31.38-75.76s12-56.37,31.38-75.76Z"/>
      <path id="path85" class="cls-1" d="M3349,2739.84c-68.34,0-123.75-55.4-123.75-123.75h0c0-68.34,55.4-123.75,123.75-123.75,68.34,0,123.75,55.4,123.75,123.75s-55.4,123.75-123.75,123.75Z"/>
      <g id="Layer1004">
        <path class="cls-9" d="M3536,2166.47l-47.98,152.5c-2.39,7.54-14.8,12.13-21.88,8.73-6.62-3.12-8.27-14.89-4.87-21.42l74.73-139.81Z"/>
        <g id="Layer1005">
          <path class="cls-9" d="M3374.4,2417.05c1.01,12.23-11.58,24.36-22.8,24.82-14.34.64-27.94-10.11-26.84-20.68l26.84-266.75,22.8,262.62Z"/>
          <path class="cls-5" d="M3374.4,2417.05c1.01,12.23-11.58,24.36-22.8,24.82-14.34.64-27.94-10.11-26.84-20.68l26.84-266.75,22.8,262.62Z"/>
          <path class="cls-5" d="M3536,2166.47l-47.98,152.5c-2.39,7.54-14.8,12.13-21.88,8.73-6.62-3.12-8.27-14.89-4.87-21.42l74.73-139.81Z"/>
        </g>
        <path class="cls-9" d="M3416.96,2419.71l-60.85-613.2c-.09-1.56-2.3-3.13-5.24-3.13s-4.87,2.39-4.96,3.86l-60.85,613.29c-2.94,29.51,28.77,64.99,65.91,64.99s68.94-36.31,66-65.82ZM3374.4,2417.05c1.01,12.23-11.58,24.36-22.8,24.82-14.34.64-27.94-10.11-26.84-20.68l26.84-266.75,22.8,262.62Z"/>
        <path class="cls-9" d="M3659.81,1868.38c-1.66-.64-4.6-.55-5.42.92l-222.45,420.54c-10.3,19.49.64,54.14,26.11,64.25,25.09,10.02,55.89-5.79,62.87-28.04l140.91-453.08c.46-1.56-.37-3.86-2.02-4.6ZM3461.27,2306.29l74.73-139.81-47.98,152.5c-2.39,7.54-14.8,12.13-21.88,8.73-6.62-3.12-8.27-14.89-4.87-21.42Z"/>
      </g>
      <path class="cls-9" d="M3228.43,2330.64c-6.89,2.48-16.36-4.69-18.57-11.67l-45.96-151.76,73.9,141.83c3.59,6.89-2.02,18.94-9.38,21.6Z"/>
      <g id="Layer1007">
        <path class="cls-10" d="M3228.25,2492.33c-9.74,10.57-26.93,12.59-33.64,4.41l-169.68-207.65,201.86,169.59c9.38,7.91,9.01,25.37,1.47,33.64Z"/>
        <path class="cls-10" d="M3228.25,2492.33c-9.74,10.57-26.93,12.59-33.64,4.41l-169.68-207.65,201.86,169.59c9.38,7.91,9.01,25.37,1.47,33.64Z"/>
        <path class="cls-10" d="M3228.43,2330.64c-6.89,2.48-16.36-4.69-18.57-11.67l-45.96-151.76,73.9,141.83c3.59,6.89-2.02,18.94-9.38,21.6Z"/>
      </g>
      <path class="cls-9" d="M3258.76,2430.47l-476.61-390.66c-1.2-.92-3.86-.55-5.97,1.56-2.02,2.02-1.75,5.15-.74,6.25l390.57,476.7c18.84,22.89,66.37,25.55,92.56-.64,26.2-26.2,23.07-74.46.18-93.21ZM3228.25,2492.33c-9.74,10.57-26.93,12.59-33.64,4.41l-169.68-207.65,201.86,169.59c9.38,7.91,9.01,25.37,1.47,33.64Z"/>
      <path class="cls-9" d="M3266.03,2290.75l-220.7-420.08c-.83-1.47-3.03-2.48-4.69-1.75-1.65.64-3.68,2.85-3.22,4.41l140.09,454.64c6.53,21.14,38.7,37.87,63.88,27.02,24.82-10.66,35.48-43.66,24.63-64.25ZM3209.86,2318.97l-45.96-151.76,73.9,141.83c3.59,6.89-2.02,18.94-9.38,21.6-6.89,2.48-16.36-4.69-18.57-11.67Z"/>
      <path class="cls-9" d="M3062.42,2500.79c-3.12,6.62-14.89,8.27-21.33,4.87l-139.9-74.82,152.59,48.07c7.45,2.3,12.04,14.8,8.64,21.88Z"/>
      <g id="Layer1009">
        <path class="cls-10" d="M3176.68,2615.23c.55,14.43-10.2,27.94-20.68,26.93l-266.85-26.93,262.71-22.7c12.23-1.1,24.36,11.58,24.82,22.7Z"/>
        <path class="cls-10" d="M3176.68,2615.23c.55,14.43-10.2,27.94-20.68,26.93l-266.85-26.93,262.71-22.7c12.23-1.1,24.36,11.58,24.82,22.7Z"/>
        <path class="cls-10" d="M3062.42,2500.79c-3.12,6.62-14.89,8.27-21.33,4.87l-139.9-74.82,152.59,48.07c7.45,2.3,12.04,14.8,8.64,21.88Z"/>
      </g>
      <path class="cls-9" d="M3154.53,2549.87l-613.29,60.85c-1.47.18-3.13,2.39-3.13,5.24s2.39,4.87,3.95,5.06l613.29,60.85c29.41,2.94,64.9-28.77,64.9-65.91s-36.31-68.94-65.72-66.09ZM3176.68,2615.23c.55,14.43-10.2,27.94-20.68,26.93l-266.85-26.93,262.71-22.7c12.23-1.1,24.36,11.58,24.82,22.7Z"/>
      <path class="cls-9" d="M3060.77,2446l-453.08-140.91c-1.56-.55-3.86.37-4.5,2.02-.74,1.65-.64,4.6.83,5.33l420.54,222.45c19.58,10.39,54.14-.55,64.25-26.01,10.02-25.09-5.7-55.98-28.04-62.87Z"/>
      <path class="cls-10" d="M3053.78,2478.91c7.45,2.3,12.04,14.8,8.64,21.88-3.12,6.62-14.89,8.27-21.33,4.87l-139.9-74.82,152.59,48.07Z"/>
      <path class="cls-9" d="M3053.69,2756.97l-151.76,46.05,141.83-73.9c6.99-3.59,19.03,1.93,21.6,9.38,2.48,6.8-4.69,16.36-11.67,18.48Z"/>
      <g id="Layer1011">
        <path class="cls-9" d="M3231.46,2772.32l-207.65,169.59,169.68-201.77c7.91-9.38,25.37-9.1,33.64-1.47,10.57,9.74,12.5,26.93,4.32,33.64Z"/>
        <path class="cls-5" d="M3231.46,2772.32l-207.65,169.59,169.68-201.77c7.91-9.38,25.37-9.1,33.64-1.47,10.57,9.74,12.5,26.93,4.32,33.64Z"/>
        <path class="cls-5" d="M3053.69,2756.97l-151.76,46.05,141.83-73.9c6.99-3.59,19.03,1.93,21.6,9.38,2.48,6.8-4.69,16.36-11.67,18.48Z"/>
      </g>
      <path class="cls-9" d="M3258.49,2708.35c-26.29-26.2-74.55-23.16-93.3-.28l-390.57,476.7c-1.01,1.2-.55,3.86,1.47,5.88,2.02,2.11,5.15,1.75,6.34.83l476.7-390.66c22.89-18.75,25.55-66.27-.64-92.47Z"/>
      <path class="cls-10" d="M3193.5,2740.15c7.91-9.38,25.37-9.1,33.64-1.47,10.57,9.74,12.5,26.93,4.32,33.64l-207.65,169.59,169.68-201.77Z"/>
      <path class="cls-9" d="M3089.81,2725.53c-10.76-24.82-43.66-35.48-64.34-24.63l-419.98,220.7c-1.47.73-2.48,3.03-1.84,4.69.74,1.66,2.85,3.68,4.41,3.22l454.64-140.09c21.14-6.53,37.96-38.7,27.12-63.88Z"/>
      <path class="cls-10" d="M2901.93,2803.02l141.83-73.9c6.99-3.59,19.03,1.93,21.6,9.38,2.48,6.8-4.69,16.36-11.67,18.48l-151.76,46.05Z"/>
      <path class="cls-9" d="M3240.38,2925.83l-74.73,139.81,47.98-152.5c2.39-7.54,14.8-12.04,21.88-8.73,6.62,3.13,8.27,14.98,4.87,21.42Z"/>
      <g id="Layer1013">
        <path class="cls-9" d="M3376.88,2810.93l-26.84,266.85-22.8-262.71c-1.01-12.23,11.58-24.36,22.8-24.82,14.34-.55,27.94,10.11,26.84,20.68Z"/>
        <path class="cls-5" d="M3376.88,2810.93l-26.84,266.85-22.8-262.71c-1.01-12.23,11.58-24.36,22.8-24.82,14.34-.55,27.94,10.11,26.84,20.68Z"/>
        <path class="cls-10" d="M3240.38,2925.83l-74.73,139.81,47.98-152.5c2.39-7.54,14.8-12.04,21.88-8.73,6.62,3.13,8.27,14.98,4.87,21.42Z"/>
      </g>
      <path class="cls-9" d="M3350.78,2746.58c-37.14,0-69.03,36.31-66.09,65.82l60.85,613.29c.09,1.47,2.3,3.13,5.24,3.13s4.87-2.48,4.96-3.95l60.85-613.29c2.94-29.41-28.77-64.99-65.81-64.99ZM3376.88,2810.93l-26.84,266.85-22.8-262.71c-1.01-12.23,11.58-24.36,22.8-24.82,14.34-.55,27.94,10.11,26.84,20.68Z"/>
      <path class="cls-9" d="M3243.6,2878.03c-25.09-9.93-55.89,5.79-62.87,28.04l-140.91,453.08c-.46,1.56.37,3.95,2.02,4.6s4.6.64,5.42-.83l222.45-420.54c10.3-19.58-.55-54.23-26.11-64.34ZM3240.38,2925.83l-74.73,139.81,47.98-152.5c2.39-7.54,14.8-12.04,21.88-8.73,6.62,3.13,8.27,14.98,4.87,21.42Z"/>
      <g id="Layer1014">
        <path class="cls-9" d="M3537.74,3064.9l-73.9-141.74c-3.59-6.99,2.02-19.03,9.38-21.69,6.89-2.39,16.45,4.69,18.57,11.77l45.96,151.67Z"/>
        <g id="Layer1015">
          <path class="cls-9" d="M3676.73,2943.11l-201.86-169.69c-9.38-7.91-9.01-25.37-1.47-33.64,9.74-10.57,26.93-12.59,33.64-4.41l169.68,207.74Z"/>
          <path class="cls-5" d="M3676.73,2943.11l-201.86-169.69c-9.38-7.91-9.01-25.37-1.47-33.64,9.74-10.57,26.93-12.59,33.64-4.41l169.68,207.74Z"/>
          <path class="cls-5" d="M3537.74,3064.9l-73.9-141.74c-3.59-6.99,2.02-19.03,9.38-21.69,6.89-2.39,16.45,4.69,18.57,11.77l45.96,151.67Z"/>
        </g>
        <path class="cls-9" d="M3926.2,3184.49l-390.57-476.7c-18.84-22.89-66.37-25.55-92.56.64-26.2,26.2-23.07,74.46-.18,93.21l476.7,390.66c1.1.92,3.77.55,5.88-1.47,2.02-2.11,1.75-5.15.74-6.34ZM3474.87,2773.42c-9.38-7.91-9.01-25.37-1.47-33.64,9.74-10.57,26.93-12.59,33.64-4.41l169.68,207.74-201.86-169.69Z"/>
        <path class="cls-9" d="M3524.14,2904.14c-6.53-21.14-38.7-37.87-63.88-27.02-24.82,10.75-35.48,43.66-24.63,64.25l220.7,420.08c.83,1.47,3.03,2.48,4.69,1.84,1.65-.74,3.68-2.85,3.22-4.41l-140.09-454.73ZM3463.84,2923.16c-3.59-6.99,2.02-19.03,9.38-21.69,6.89-2.39,16.45,4.69,18.57,11.77l45.96,151.67-73.9-141.74Z"/>
      </g>
      <g id="Layer1016">
        <path class="cls-9" d="M3800.45,2801.28l-152.59-47.98c-7.45-2.39-12.04-14.89-8.64-21.97,3.13-6.62,14.89-8.27,21.33-4.78l139.9,74.73Z"/>
        <g id="Layer1017">
          <path class="cls-9" d="M3812.49,2616.88l-262.71,22.7c-12.23,1.1-24.36-11.49-24.82-22.7-.55-14.43,10.2-27.94,20.68-26.93l266.85,26.93Z"/>
          <path class="cls-5" d="M3812.49,2616.88l-262.71,22.7c-12.23,1.1-24.36-11.49-24.82-22.7-.55-14.43,10.2-27.94,20.68-26.93l266.85,26.93Z"/>
          <path class="cls-5" d="M3800.45,2801.28l-152.59-47.98c-7.45-2.39-12.04-14.89-8.64-21.97,3.13-6.62,14.89-8.27,21.33-4.78l139.9,74.73Z"/>
        </g>
        <path class="cls-9" d="M4159.59,2611.09l-613.2-60.85c-29.51-2.85-64.99,28.86-64.99,65.91s36.31,69.03,65.72,66.09l613.29-60.85c1.56-.18,3.13-2.3,3.13-5.24s-2.39-4.87-3.95-5.06ZM3524.97,2616.88c-.55-14.43,10.2-27.94,20.68-26.93l266.85,26.93-262.71,22.7c-12.23,1.1-24.36-11.49-24.82-22.7Z"/>
        <path class="cls-9" d="M4097.63,2919.67l-420.54-222.45c-19.58-10.39-54.14.55-64.25,26.01-10.02,25.19,5.7,55.98,28.04,62.87l453.08,141.01c1.56.46,3.86-.46,4.5-2.02.74-1.65.64-4.69-.83-5.42ZM3647.86,2753.29c-7.45-2.39-12.04-14.89-8.64-21.97,3.13-6.62,14.89-8.27,21.33-4.78l139.9,74.73-152.59-47.98Z"/>
      </g>
      <g id="Layer1018">
        <path class="cls-9" d="M3799.72,2429.09l-141.83,73.9c-6.99,3.68-19.03-1.93-21.6-9.28-2.48-6.89,4.69-16.45,11.67-18.57l151.76-46.05Z"/>
        <g id="Layer1019">
          <path class="cls-9" d="M3677.83,2290.2l-169.68,201.76c-7.81,9.47-25.37,9.1-33.55,1.47-10.66-9.74-12.59-26.93-4.41-33.64l207.65-169.59Z"/>
          <path class="cls-5" d="M3677.83,2290.2l-169.68,201.76c-7.81,9.47-25.37,9.1-33.55,1.47-10.66-9.74-12.59-26.93-4.41-33.64l207.65-169.59Z"/>
          <path class="cls-5" d="M3799.72,2429.09l-141.83,73.9c-6.99,3.68-19.03-1.93-21.6-9.28-2.48-6.89,4.69-16.45,11.67-18.57l151.76-46.05Z"/>
        </g>
        <path class="cls-9" d="M3925.56,2041.46c-2.02-2.11-5.15-1.75-6.34-.83l-476.61,390.66c-22.98,18.75-25.65,66.27.64,92.47,26.2,26.29,74.46,23.16,93.21.28l390.57-476.7c1.01-1.2.55-3.86-1.47-5.88ZM3508.14,2491.96c-7.81,9.47-25.37,9.1-33.55,1.47-10.66-9.74-12.59-26.93-4.41-33.64l207.65-169.59-169.68,201.76Z"/>
        <path class="cls-9" d="M4098,2305.83c-.64-1.56-2.85-3.68-4.41-3.12l-454.64,139.99c-21.14,6.53-37.96,38.79-27.02,63.88,10.66,24.82,43.57,35.48,64.25,24.63l419.98-220.7c1.47-.73,2.48-3.03,1.84-4.69ZM3799.72,2429.09l-141.83,73.9c-6.99,3.68-19.03-1.93-21.6-9.28-2.48-6.89,4.69-16.45,11.67-18.57l151.76-46.05Z"/>
      </g>
      <path class="cls-9" d="M3472.76,2616.06c0,68.39-55.43,123.82-123.72,123.82s-123.82-55.43-123.82-123.82,55.43-123.72,123.82-123.72,123.72,55.43,123.72,123.72Z"/>
      <path id="path229" class="cls-12" d="M1477.79,349.4c335.1-52.13,659.14-73.06,970.86-70.28,340.55,3.03,679.3,38.28,1016.54,101.73,336.73,63.35,672.61,154.96,1007.84,270.82l26.63,9.21,223.91-223.92c-.05-.25-.1-.51-.15-.76C3969.62,195.64,3211.93-6.3,2439.76.15,1497.33,8.03,855.28,171.6,178.94,410.78c-.09.43-.18.87-.27,1.3l233.23,206.02.33-1.7,28.46-9.76c355.21-121.75,701.39-205.02,1037.12-257.24h0Z"/>
      <path id="path241" class="cls-13" d="M4626.75,2464.49c-46.16,547.89-182.59,1054.56-421.31,1533.25l-.08-.04c-195.11,396.56-447.7,722.84-742.29,997.77-293.81,274.21-629.13,497.02-990.61,687.4l-23.65,12.45-.4-.2v273.42c1.15.61,2.29,1.23,3.43,1.84,886.07-492.41,1706.96-1127.38,2156.1-2287.09,390.75-1008.93,343.25-2100.42,115.63-3246.34l-223.91,223.92,1.94.67,5.63,29.61c121.68,640.81,165.5,1227.51,119.52,1773.33Z"/>
      <path id="path253" class="cls-16" d="M465.88,3435.72c-133.13-442.25-198.79-876.87-205.68-1333.25-6.88-455.13,44.78-930.75,146.27-1456.34l5.41-28.03-233.23-206.02C-37.42,1438.74-58.82,2352.49,121.67,3135.21c313.15,1358.07,1179.99,2216.31,2329.98,2834.63l-3.23-274.72-23.38-11.64c-471.45-234.74-896.09-545.92-1240.3-940.63-317.03-363.55-565.42-797.45-718.85-1307.14Z"/>
      <g id="Layer1021">
        <path id="path256" class="cls-7" d="M2865.25,4380.8c-22.13-3.58-41.87-28.42-41.87-48.76v-46.32c0-57.78,50.74-59.95,92.5-59.95,43.98,0,86.84,9.72,86.84,59.95v46.32c0,19.8-16.29,46.37-38.42,49.94,18.54,4.44,38.42,6.48,38.42,40.46v76.78c0,56.98-44.91,65.77-89.21,65.77-41.71,0-90.14-9.73-90.14-65.77v-76.78c0-19.77,19.67-38.28,41.87-41.65h0ZM2897.64,4411.15v94.42c0,11.15,9.15,12.51,15.88,12.51s14.95-1.71,14.95-12.51v-94.42c0-10.61-8.42-12.09-14.95-12.09s-15.88,1.13-15.88,12.09ZM2897.64,4348.5c0,11.15,9.15,12.51,15.88,12.51s14.95-1.71,14.95-12.51v-69.12c0-10.61-8.42-12.09-14.95-12.09s-15.88,1.15-15.88,12.09v69.12Z"/>
        <path id="path258" class="cls-7" d="M2689.47,4285.46v43.91c0,5.56-2.34,28.38-5.7,34.12l-89.69,153.13h98v44.87h-181.49v-50.08c20.04-35.68,79.16-129.8,95.96-161.68,2.61-4.96,5.87-16.7,5.9-22.24l.26-40.48c.06-10.49-9.88-12.04-16.83-12.04-7.6,0-16.57.78-16.57,12.04v57.23h-68.95v-58.77c0-40.42,29.31-60.76,88.72-59.9,51.07.74,90.39,12.91,90.39,59.9h0Z"/>
        <path id="path260" class="cls-7" d="M2299.29,4408.43c-11.53,6.44-24.3,5.51-38.88,5.51-29.22,0-64.94-6.25-64.71-55.13l.32-70.44c.24-53.23,41.66-64.95,88.42-64.95,43.35,0,94.38,10.55,94.38,65.06v212.22c0,45.6-48.16,64.64-91.3,64.64s-91.39-11.82-91.39-64.56v-77.43l75.2-.08v81.1c0,11.04,8.05,12.46,14.89,12.46s14.03-1.73,13.94-12.46l-.86-95.93ZM2271.32,4362.28c0,10.8,8.3,12.04,14.89,12.04s13.94-1.51,13.94-12.04v-84.4c0-10.56-7.26-12.04-13.94-12.04s-14.89,1.16-14.89,12.04v84.4Z"/>
        <path id="path262" class="cls-7" d="M1951.48,4268.51v46.92h29.16v246.05h81.98v-335.08l-69.33.43c-4.46,21.03-23.9,40.78-41.81,41.68Z"/>
      </g>
      <g id="Layer1021-2" data-name="Layer1021">
        <path id="path256-2" data-name="path256" class="cls-9" d="M2865.25,4344.03c-22.13-3.58-41.87-28.42-41.87-48.76v-46.32c0-57.78,50.74-59.95,92.5-59.95,43.98,0,86.84,9.72,86.84,59.95v46.32c0,19.8-16.29,46.37-38.42,49.94,18.54,4.44,38.42,6.48,38.42,40.46v76.78c0,56.98-44.91,65.77-89.21,65.77-41.71,0-90.14-9.73-90.14-65.77v-76.78c0-19.77,19.67-38.28,41.87-41.65h0ZM2897.64,4374.38v94.42c0,11.15,9.15,12.51,15.88,12.51s14.95-1.71,14.95-12.51v-94.42c0-10.61-8.42-12.09-14.95-12.09s-15.88,1.13-15.88,12.09ZM2897.64,4311.73c0,11.15,9.15,12.51,15.88,12.51s14.95-1.71,14.95-12.51v-69.12c0-10.61-8.42-12.09-14.95-12.09s-15.88,1.15-15.88,12.09v69.12Z"/>
        <path id="path258-2" data-name="path258" class="cls-9" d="M2689.47,4248.69v43.91c0,5.56-2.34,28.38-5.7,34.12l-89.69,153.13h98v44.87h-181.49v-50.08c20.04-35.68,79.16-129.8,95.96-161.68,2.61-4.96,5.87-16.7,5.9-22.24l.26-40.48c.06-10.49-9.88-12.04-16.83-12.04-7.6,0-16.57.78-16.57,12.04v57.23h-68.95v-58.77c0-40.42,29.31-60.76,88.72-59.9,51.07.74,90.39,12.91,90.39,59.9h0Z"/>
        <path id="path260-2" data-name="path260" class="cls-9" d="M2299.29,4371.67c-11.53,6.44-24.3,5.51-38.88,5.51-29.22,0-64.94-6.25-64.71-55.13l.32-70.44c.24-53.23,41.66-64.95,88.42-64.95,43.35,0,94.38,10.55,94.38,65.06v212.22c0,45.6-48.16,64.64-91.3,64.64s-91.39-11.82-91.39-64.56v-77.43l75.2-.08v81.1c0,11.04,8.05,12.46,14.89,12.46s14.03-1.73,13.94-12.46l-.86-95.93ZM2271.32,4325.51c0,10.8,8.3,12.04,14.89,12.04s13.94-1.51,13.94-12.04v-84.4c0-10.56-7.26-12.04-13.94-12.04s-14.89,1.16-14.89,12.04v84.4Z"/>
        <path id="path262-2" data-name="path262" class="cls-9" d="M1951.48,4231.74v46.92h29.16v246.05h81.98v-335.08l-69.33.43c-4.46,21.03-23.9,40.78-41.81,41.68Z"/>
      </g>
    </g>
  </g>
</svg>