<svg xmlns:inkscape="http://www.inkscape.org/namespaces/inkscape" xmlns:sodipodi="http://sodipodi.sourceforge.net/DTD/sodipodi-0.dtd" xmlns="http://www.w3.org/2000/svg" xmlns:svg="http://www.w3.org/2000/svg" version="1.1" width="265.8290487049749" height="376.1816117808217" id="svg71" viewBox="0 0 595.27557 841.88977" sodipodi:docname="1cc3e2be82982dff77b31c2d14ee7018.cdr">
  <defs id="defs75"/>
  <sodipodi:namedview id="namedview73" pagecolor="#ffffff" bordercolor="#666666" borderopacity="1.0" inkscape:pageshadow="2" inkscape:pageopacity="0.0" inkscape:pagecheckerboard="0"/>
  <path d="m 476.5331,549.953 c 0.4587,-0.3362 0.2824,-0.1687 0.6849,-0.5593 0.0119,-0.011 0.5145,-0.5831 0.5286,-0.6009 7.6578,-9.9034 0.9355,-6.7059 12.121,-10.7354 5.7331,-2.0653 11.6342,-5.1485 15.2223,-9.5221 1.4658,-1.787 5.7269,-7.9589 5.1534,-11.2578 -6.3181,-2.0098 -18.0088,6.7847 -19.4261,6.6353 -0.5984,-2.2983 1.7654,-3.5991 2.4494,-6.5174 0.5196,-2.2161 1.1784,-5.1554 2.325,-6.9545 1.8264,-2.8656 1.8048,-2.7065 5.3124,-4.0193 6.5988,-2.4692 10.9514,-6.2104 14.1372,-13.0595 1.408,-3.0274 3.6522,-10.7552 3.3591,-14.6015 -1.927,0.5139 -12.005,9.5732 -15.4196,10.6339 0.2936,-4.0388 1.8345,-10.4006 2.8924,-14.2022 1.1529,-4.1419 0.6489,-4.0183 3.1238,-5.0462 9.7177,-4.0354 16.4713,-12.613 14.6591,-26.0203 -2.8264,-0.146 -12.9835,10.9301 -14.3342,11.8355 -0.1381,-24.2269 4.7466,-17.9893 4.8248,-31.0581 0.0116,-1.9355 -0.0425,-3.9586 -0.3118,-5.6988 -0.1236,-0.7996 -0.2387,-1.512 -0.4518,-2.3808 l -0.9332,-2.0719 c -4.5575,1.6303 -9.72,9.9383 -7.2615,17.4079 0.5692,1.7303 1.5296,2.874 1.8513,4.5774 0.3472,1.8377 0.2667,4.53 0.1772,6.4261 -0.205,4.345 -0.8623,7.4917 -1.6212,11.4446 -10.3651,-5.286 -7.6697,-6.768 -11.7638,-13.9345 -3.8123,0.4464 -3.1552,11.1526 -1.9128,14.786 4.0652,11.8902 10.1787,9.9839 9.5193,17.5422 -0.4189,4.8053 -1.3887,21.1539 -4.026,23.429 -4.6052,-1.5577 -2.4798,-16.4988 -9.667,-22.6891 -1.8652,0.5357 -3.9901,4.2287 -4.7665,6.5506 -2.2538,6.7396 0.567,12.1464 3.7472,17.2542 1.5366,2.4675 3.2272,4.1629 5.0266,6.1259 -1.1693,6.2105 1.4928,11.0058 -5.3291,19.4491 -1.5421,1.9083 -1.9551,3.6252 -5.017,3.0186 -0.6979,-3.3775 0.062,-8.047 -0.5148,-11.683 -0.5757,-3.6272 -1.2291,-6.0959 -2.9245,-8.8611 -3.9461,-0.2897 -3.6496,-0.5587 -5.3941,2.5923 -6.9378,12.5334 0.3807,21.5028 4.3969,30.6105 1.6166,3.6669 -3.2871,8.5045 -4.383,11.1821 l -4.5842,5.8314 c -8.9251,1.065 -0.0521,-13.509 -6.3946,-17.3704 -3.5655,1.0749 -6.2419,7.9345 -6.7564,13.2202 -0.3093,3.1754 -0.1899,6.704 0.1998,9.8674 0.3286,2.6652 1.1704,6.1033 1.3204,8.7387 l -7.3111,7.5203 c -1.0743,1.8981 -3.2227,4.2012 -4.7446,5.9763 -2.9654,3.4591 -2.4095,4.1825 -6.1322,4.3001 0.0175,-4.4501 0.5933,-22.0957 0.1428,-24.938 -3.7358,1.1619 -8.0484,6.425 -9.6128,10.0474 -2.1974,5.0876 -2.9642,10.3957 -2.8401,16.7893 0.2209,11.3692 4.0763,7.3474 -9.9484,18.4025 -3.4915,2.7522 -3.7026,3.7604 -5.849,2.9917 -0.2756,-1.3283 0.6191,-9.7087 0.5428,-12.4608 -0.1346,-4.8391 -0.3694,-8.0884 -0.091,-13.0071 -7.541,1.7994 -11.2405,13.3999 -12.1195,20.6113 -0.3158,2.592 -0.4524,5.2191 -0.4921,7.8151 -0.0561,3.7049 -1.0599,3.2159 -3.3287,4.9357 -2.4954,1.8915 -7.2136,5.1032 -8.8708,7.2896 l 1.4182,1.9613 c 1.4927,-0.243 4.0275,-2.0725 5.4442,-3.0161 2.9293,-1.9511 2.1753,-1.7002 6.3703,-1.694 7.0121,0.01 7.6042,1.9953 13.28,3.3557 5.4304,1.3016 10.0894,0.5298 14.2714,-1.7589 2.832,-1.5503 7.9415,-5.5018 8.9092,-7.8605 -5.2259,-4.4932 -15.7617,2.3579 -19.5196,-2.8641 1.3657,-1.3797 3.2865,-3.0028 4.6976,-4.498 5.6951,-6.033 5.9916,-7.5062 11.0902,-6.3652 7.0189,1.5706 17.2114,2.8921 22.9992,-1.0798 3.5039,-2.404 4.1718,-5.6539 6.1719,-7.7896 1.6387,-1.7501 1.5984,-0.4291 2.2887,-2.1977 -4.0091,-1.6265 -19.8848,1.7878 -19.6716,-2.3831 0.0539,-1.0519 3.5334,-3.8491 5.305,-6.065 1.7689,-2.2127 3.339,-3.9722 5.1812,-6.0811 4.7908,-5.5571 5.6809,-4.4422 10.5208,-4.7724 21.4537,-1.4653 21.4384,-13.8067 24.6126,-17.578 l 1.9738,-1.7489 c -2.9792,-0.1171 -10.777,2.5001 -14.0726,3.6204 l -4.3257,0.7015 c -1.216,-2.1687 3.638,-6.5928 3.871,-8.4747 z" style="fill:#254478;fill-rule:evenodd" id="path2"/>
  <path d="m 359.1998,252.212 4.2073,-11.4095 -4.3436,-26.0502 8.7231,3.347 2.1497,16.5574 12.5532,-11.404 8.609,3.3711 -20.3035,17.063 -4.1719,11.1381 z" style="fill:#244573;fill-rule:evenodd" id="path4"/>
  <path d="m 322.5141,224.5431 c -1.7014,5.7659 0.8668,11.9032 7.797,13.6831 6.8972,1.7713 11.3193,-2.2547 12.5812,-7.8908 1.1563,-5.1633 -0.3668,-11.4784 -7.4486,-13.2968 -6.955,-1.7858 -11.3609,2.1881 -12.9296,7.5045 z m -7.8259,-1.3717 c 2.7059,-10.766 11.5512,-16.0589 22.6661,-13.2653 10.9743,2.7581 16.094,12.3267 13.4138,22.2406 -2.8511,10.5452 -11.4899,16.0489 -22.3959,13.3078 -10.8635,-2.7303 -16.3574,-11.6464 -13.684,-22.2831 z" style="fill:#244573;fill-rule:evenodd" id="path6"/>
  <path d="m 297.5208,242.3142 0.8804,-35.2122 8.2803,-0.006 -0.8055,35.2492 z" style="fill:#244573;fill-rule:evenodd" id="path8"/>
  <path d="m 272.986,220.7795 -7.3706,23.6441 -8.6726,0.9561 12.6527,-36.9108 4.4076,-0.3555 19.9573,33.3315 -8.7769,0.8932 z" style="fill:#244573;fill-rule:evenodd" id="path10"/>
  <path d="m 224.8749,254.9732 -10.2954,-33.6132 7.6526,-2.0515 4.6834,15.1712 14.0222,-4.2458 -4.8735,-15.2462 7.2872,-2.192 10.3049,33.3039 -7.3524,2.3507 -3.6971,-11.5255 -13.945,4.1331 3.8847,11.5077 z" style="fill:#244573;fill-rule:evenodd" id="path12"/>
  <path d="m 175.9411,282.8483 -19.5134,-28.7597 21.1127,-14.3034 3.8463,5.5488 -15.317,10.1387 4.6621,6.8032 12.3999,-8.5757 3.6026,5.2679 -12.4745,8.4444 4.0241,6.0407 15.897,-11.0472 3.5464,5.6242 z" style="fill:#254478;fill-rule:evenodd" id="path14"/>
  <path d="m 144.7824,295.1184 -13.0465,-4.2169 5.6849,12.3118 z m 17.4931,-1.3763 -5.1477,5.7694 -6.5435,-2.2808 -10.3595,11.5149 2.9619,6.3255 -5.2234,5.783 -14.7305,-35.0002 2.6677,-2.9452 z" style="fill:#254478;fill-rule:evenodd" id="path16"/>
  <path d="m 83.9582,346.4041 13.7012,-26.5866 31.124,16.2535 -3.4878,6.6672 -24.9631,-13.2694 -6.9499,13.4774 25.2252,12.8195 -3.5255,6.7423 z" style="fill:#254478;fill-rule:evenodd" id="path18"/>
  <path d="m 130.7716,329.4992 a 4.5,4.5 0 0 1 -4.5,-4.5 4.5,4.5 0 1 1 4.5,4.5 z" style="fill:#254478;fill-rule:evenodd" id="path20"/>
  <path d="m 165.3466,290.9115 a 4.5,4.5 0 0 1 -4.5,-4.5 4.5,4.5 0 1 1 4.5,4.5 z" style="fill:#254478;fill-rule:evenodd" id="path22"/>
  <path d="m 203.4842,264.9614 a 4.5,4.5 0 0 1 -4.5,-4.5 4.5,4.5 0 1 1 4.5,4.5 z" style="fill:#254478;fill-rule:evenodd" id="path24"/>
  <path d="m 399.5715,230.5176 25.6797,15.3337 -18.164,30.049 -6.4367,-3.8971 14.8014,-24.0863 -13.0174,-7.7774 -14.3686,24.376 -6.5092,-3.9394 z" style="fill:#244573;fill-rule:evenodd" id="path26"/>
  <path d="m 430.2585,270.124 c -4.255,4.2467 -4.9399,10.8643 0.2912,15.7459 5.2064,4.8584 11.0165,3.442 14.8237,-0.9012 3.4879,-3.9788 5.1754,-10.2519 -0.1704,-15.24 -5.2502,-4.8987 -11.0212,-3.5204 -14.9445,0.3953 z m -6.2129,-4.9523 c 7.5316,-8.1549 17.8314,-8.5649 26.2506,-0.7892 8.3129,7.6773 8.2243,18.5291 1.1234,25.9483 -7.5533,7.8916 -17.7729,8.5855 -26.0339,0.9559 -8.2288,-7.5998 -8.7813,-18.058 -1.3401,-26.115 z" style="fill:#244573;fill-rule:evenodd" id="path28"/>
  <path d="m 468.9936,303.4142 -23.9742,6.2131 -5.3879,-6.8629 38.0311,-8.7254 2.6274,3.5567 -17.7857,34.5391 -5.3894,-6.9847 z" style="fill:#244573;fill-rule:evenodd" id="path30"/>
  <path d="m 464.2369,334.9572 31.4111,-15.7853 3.3056,7.2003 -14.1713,7.1608 6.5367,13.1118 14.2134,-7.3607 3.3827,6.8165 -31.1048,15.7429 -3.5501,-6.8543 10.7425,-5.5771 -6.4127,-13.0547 -10.6934,5.7592 z" style="fill:#244573;fill-rule:evenodd" id="path32"/>
  <path d="m 313.7652,633.1765 14.9814,-0.0513 0.0298,1.1673 -6.0792,7.615 c 1.7082,0.2194 3.1521,0.7778 4.2557,1.6444 1.6744,1.3144 2.4224,3.1994 2.4074,5.2965 v 0.003 c -0.0368,4.8436 -4.3327,6.6753 -8.5507,6.8225 -2.5651,0.0864 -5.1324,-0.364 -7.5274,-1.2813 l 0.6044,-1.588 c 2.1894,0.8385 4.524,1.2538 6.8697,1.1753 3.2312,-0.1123 6.8825,-1.3108 6.91,-5.1384 v -0.003 c 0.0108,-1.55 -0.5125,-2.9696 -1.7634,-3.9515 -1.1529,-0.9051 -2.8315,-1.3876 -4.8937,-1.3913 l -0.7251,0.001 -0.002,-1.328 5.9921,-7.3968 -12.4962,0.0984 z m -37.9037,18.7336 c 1.7986,1.3598 3.6796,2.0775 5.9448,2.0996 3.5504,0.036 5.6988,-1.5874 6.9653,-4.8586 0.572,-1.4782 0.8283,-3.0452 0.8685,-4.6247 -1.5789,2.2847 -4.276,3.0422 -6.9426,3.0957 -4.5731,0.0913 -8.5995,-2.0055 -8.7009,-7.0276 v -0.003 c -0.0837,-4.8762 3.518,-7.4554 8.0886,-7.638 5.1256,-0.2049 8.4592,3.2576 9.0709,8.1882 0.3577,2.8862 0.2571,5.883 -0.8033,8.621 -1.5248,3.9382 -4.2931,5.9845 -8.5595,5.9414 -2.6295,-0.0261 -4.8651,-0.8583 -6.9551,-2.4381 z m 13.3599,-11.8825 c -0.8807,-3.4481 -3.4514,-5.525 -7.0698,-5.3805 -3.6298,0.1452 -6.5296,1.9806 -6.461,5.9139 0.0819,4.0414 3.3746,5.4411 6.9735,5.3672 2.2334,-0.0451 3.8477,-0.6205 4.9056,-1.5928 1.1066,-1.0168 1.635,-2.5087 1.6517,-4.3078 z m 5.8567,12.8046 c 0.9706,0.4536 1.9174,0.7671 2.9866,0.955 1.0896,0.1914 2.3037,0.254 3.7913,0.203 2.0166,-0.0689 3.879,-0.4187 5.2078,-1.3133 1.2513,-0.8419 2.0512,-2.2241 2.0719,-4.4087 0.0159,-1.6901 -0.5383,-3.0935 -1.6359,-4.0621 -1.0851,-0.9578 -2.7201,-1.5256 -4.8838,-1.5721 -2.0747,-0.0439 -3.6887,0.5086 -5.646,1.1444 l -1.6671,0.002 0.002,-10.5077 14.16,0.0167 -0.0131,1.694 -12.5308,-0.1055 0.0283,7.1346 c 1.827,-0.5749 3.7721,-1.1138 5.6996,-1.0727 2.5872,0.0559 4.5908,0.777 5.9729,1.9973 1.4803,1.3065 2.2281,3.1519 2.2074,5.3439 -0.0267,2.8298 -1.1166,4.6559 -2.8225,5.8039 -1.6279,1.0956 -3.7927,1.5203 -6.0979,1.5991 -1.6191,0.0552 -2.944,-0.0131 -4.1371,-0.2228 -1.2133,-0.2132 -2.2955,-0.5726 -3.4118,-1.0945 z m -32.8652,-18.4308 6.7386,-1.586 -0.0114,22.2817 -1.6375,0.007 -0.0301,-20.1314 -5.0737,1.2076 z" style="fill:#ffffff;fill-rule:evenodd" id="path34"/>
  <path d="m 108.0009,550.2365 c -0.4587,-0.3362 -0.2824,-0.1687 -0.6849,-0.5593 -0.0119,-0.0111 -0.5145,-0.5831 -0.5287,-0.6009 -7.6578,-9.9034 -0.9354,-6.706 -12.1209,-10.7354 -5.7331,-2.0653 -11.6342,-5.1486 -15.2223,-9.5222 -1.4658,-1.7869 -5.7269,-7.9588 -5.1534,-11.2578 6.3181,-2.0097 18.0088,6.7848 19.4261,6.6354 0.5984,-2.2983 -1.7654,-3.5992 -2.4494,-6.5174 -0.5196,-2.2162 -1.1784,-5.1554 -2.325,-6.9546 -1.8264,-2.8655 -1.8048,-2.7065 -5.3124,-4.0192 -6.5988,-2.4693 -10.9514,-6.2104 -14.1372,-13.0595 -1.408,-3.0274 -3.6522,-10.7552 -3.3591,-14.6015 1.927,0.5139 12.005,9.5731 15.4196,10.6339 -0.2936,-4.0389 -1.8346,-10.4006 -2.8924,-14.2022 -1.1529,-4.142 -0.6489,-4.0184 -3.1238,-5.0462 -9.7178,-4.0354 -16.4713,-12.6131 -14.6591,-26.0204 2.8264,-0.146 12.9835,10.9301 14.3342,11.8355 0.1381,-24.2268 -4.7466,-17.9892 -4.8248,-31.0581 -0.0117,-1.9355 0.0425,-3.9585 0.3118,-5.6987 0.1236,-0.7997 0.2387,-1.512 0.4518,-2.3808 l 0.9332,-2.0719 c 4.5575,1.6302 9.72,9.9383 7.2615,17.4079 -0.5692,1.7302 -1.5296,2.874 -1.8513,4.5773 -0.3473,1.8377 -0.2667,4.5301 -0.1772,6.4262 0.205,4.3449 0.8623,7.4917 1.6212,11.4446 10.3651,-5.2861 7.6697,-6.768 11.7637,-13.9346 3.8124,0.4465 3.1553,11.1527 1.9129,14.7861 -4.0652,11.8902 -10.1787,9.9839 -9.5193,17.5422 0.4189,4.8053 1.3886,21.1538 4.026,23.4289 4.6052,-1.5576 2.4797,-16.4987 9.667,-22.689 1.8652,0.5357 3.99,4.2287 4.7664,6.5505 2.2539,6.7397 -0.5669,12.1465 -3.7471,17.2542 -1.5366,2.4676 -3.2272,4.163 -5.0266,6.126 1.1692,6.2104 -1.4928,11.0058 5.3291,19.4491 1.542,1.9083 1.955,3.6252 5.017,3.0186 0.6979,-3.3775 -0.0621,-8.047 0.5148,-11.683 0.5757,-3.6272 1.2291,-6.0959 2.9245,-8.8611 3.9461,-0.2897 3.6496,-0.5587 5.3941,2.5923 6.9377,12.5334 -0.3807,21.5027 -4.3969,30.6105 -1.6166,3.6669 3.2871,8.5045 4.383,11.1821 l 4.5841,5.8314 c 8.9252,1.065 0.0522,-13.5091 6.3947,-17.3704 3.5654,1.0749 6.2419,7.9344 6.7564,13.2202 0.3093,3.1754 0.1899,6.7039 -0.1998,9.8674 -0.3286,2.6651 -1.1705,6.1033 -1.3204,8.7386 l 7.3111,7.5204 c 1.0743,1.898 3.2227,4.2012 4.7446,5.9762 2.9654,3.4592 2.4095,4.1826 6.1322,4.3002 -0.0176,-4.4501 -0.5933,-22.0958 -0.1428,-24.9381 3.7357,1.1619 8.0484,6.425 9.6128,10.0474 2.1974,5.0876 2.9642,10.3958 2.84,16.7893 -0.2208,11.3692 -4.0762,7.3474 9.9485,18.4026 3.4914,2.7521 3.7026,3.7604 5.849,2.9917 0.2755,-1.3284 -0.6191,-9.7087 -0.5428,-12.4609 0.1346,-4.839 0.3693,-8.0883 0.091,-13.007 7.541,1.7994 11.2405,13.3999 12.1195,20.6113 0.3158,2.592 0.4524,5.2191 0.4921,7.8151 0.0561,3.7049 1.0599,3.2159 3.3287,4.9357 2.4954,1.8915 7.2136,5.1032 8.8708,7.2895 l -1.4182,1.9613 c -1.4927,-0.2429 -4.0275,-2.0724 -5.4442,-3.016 -2.9294,-1.9511 -2.1753,-1.7003 -6.3703,-1.694 -7.0121,0.01 -7.6043,1.9953 -13.2801,3.3556 -5.4303,1.3017 -10.0893,0.5298 -14.2713,-1.7589 -2.8321,-1.5502 -7.9415,-5.5017 -8.9093,-7.8604 5.226,-4.4932 15.7618,2.3578 19.5197,-2.8642 -1.3657,-1.3796 -3.2865,-3.0027 -4.6976,-4.498 -5.6951,-6.033 -5.9916,-7.5061 -11.0903,-6.3652 -7.0188,1.5707 -17.2114,2.8922 -22.9991,-1.0797 -3.5039,-2.4041 -4.1718,-5.654 -6.1719,-7.7896 -1.6387,-1.7501 -1.5985,-0.4292 -2.2887,-2.1977 4.009,-1.6265 19.8848,1.7878 19.6716,-2.3831 -0.0539,-1.0519 -3.5334,-3.8492 -5.305,-6.065 -1.7689,-2.2127 -3.339,-3.9722 -5.1812,-6.0812 -4.7908,-5.557 -5.6809,-4.4421 -10.5208,-4.7724 -21.4537,-1.4652 -21.4384,-13.8067 -24.6127,-17.5779 l -1.9737,-1.749 c 2.9792,-0.117 10.777,2.5002 14.0726,3.6204 l 4.3256,0.7016 c 1.2161,-2.1688 -3.6379,-6.5928 -3.8709,-8.4747 z" style="fill:#254478;fill-rule:evenodd" id="path36"/>
  <path d="m 213.5707,611.282 c 46.5602,20.414 115.7907,19.5106 160.3508,-0.2251 l -11.0248,26.1 18.9003,10.4253 c -52.4795,24.1565 -122.0459,24.6929 -176.3254,0.1499 l 18.9751,-10.65 z" style="fill:none" id="path38"/>
  <path d="m 373.9215,611.0569 c -44.5601,19.7357 -113.7906,20.6391 -160.3508,0.2251 l 10.876,25.8001 -18.9751,10.65 c 54.2795,24.543 123.8459,24.0066 176.3254,-0.1499 l -18.9003,-10.4253 z m -106.6189,44.047 -0.0301,-20.1314 -5.0737,1.2076 0.0141,-1.7787 6.7386,-1.586 -0.0114,22.2817 z m 6.694,-14.5128 c -0.0837,-4.8762 3.518,-7.4554 8.0886,-7.638 5.1256,-0.2049 8.4592,3.2576 9.0709,8.1882 0.3577,2.8862 0.2571,5.883 -0.8033,8.621 -1.5248,3.9382 -4.2931,5.9845 -8.5595,5.9414 -2.6295,-0.0261 -4.8651,-0.8583 -6.9551,-2.4381 l 1.0233,-1.3555 c 1.7986,1.3598 3.6796,2.0775 5.9448,2.0996 3.5504,0.036 5.6988,-1.5874 6.9653,-4.8586 0.572,-1.4782 0.8283,-3.0452 0.8685,-4.6247 -1.5789,2.2847 -4.276,3.0422 -6.9426,3.0957 -4.5731,0.0913 -8.5995,-2.0055 -8.7009,-7.031 z m 21.3063,3.1895 0.002,-10.5077 14.16,0.0167 -0.0131,1.694 -12.5308,-0.1055 0.0283,7.1346 c 1.827,-0.5749 3.7721,-1.1138 5.6996,-1.0727 2.5872,0.0559 4.5908,0.777 5.9729,1.9973 1.4803,1.3065 2.2281,3.1519 2.2074,5.3439 -0.0267,2.8298 -1.1166,4.6559 -2.8225,5.8039 -1.6279,1.0956 -3.7927,1.5203 -6.0979,1.5991 -1.6191,0.0552 -2.944,-0.0131 -4.1371,-0.2228 -1.2133,-0.2132 -2.2955,-0.5726 -3.4118,-1.0945 l 0.7177,-1.5347 c 0.9706,0.4536 1.9174,0.7671 2.9866,0.955 1.0896,0.1914 2.3037,0.254 3.7913,0.203 2.0166,-0.0689 3.879,-0.4187 5.2078,-1.3133 1.2513,-0.8419 2.0512,-2.2241 2.0719,-4.4087 0.0159,-1.6901 -0.5383,-3.0935 -1.6359,-4.0621 -1.0851,-0.9578 -2.7201,-1.5256 -4.8838,-1.5721 -2.0747,-0.0439 -3.6887,0.5086 -5.646,1.1444 z m 34.0574,5.0678 z m -1.694,-0.007 z m 0,-0.003 c 0.0108,-1.55 -0.5125,-2.9696 -1.7634,-3.9515 -1.1529,-0.9051 -2.8315,-1.3876 -4.8937,-1.3913 l -0.7251,0.001 -0.002,-1.328 5.9921,-7.3968 -12.4962,0.0984 -0.0131,-1.694 14.9814,-0.0513 0.0298,1.1673 -6.0792,7.615 c 1.7082,0.2194 3.1521,0.7778 4.2557,1.6444 1.6744,1.3144 2.4224,3.1994 2.4074,5.2996 -0.0368,4.8436 -4.3327,6.6753 -8.5507,6.8225 -2.5651,0.0864 -5.1324,-0.364 -7.5274,-1.2813 l 0.6044,-1.588 c 2.1894,0.8385 4.524,1.2538 6.8697,1.1753 3.2312,-0.1123 6.8825,-1.3108 6.91,-5.1415 z" style="fill:#254478;fill-rule:evenodd" id="path40"/>
  <path d="m 289.2214,640.0276 c -0.8807,-3.4481 -3.4514,-5.525 -7.0698,-5.3805 -3.6298,0.1452 -6.5296,1.9806 -6.461,5.9139 0.0819,4.0414 3.3746,5.4411 6.9735,5.3672 2.2334,-0.0451 3.8477,-0.6205 4.9056,-1.5928 1.1066,-1.0168 1.635,-2.5087 1.6517,-4.3078 z" style="fill:#254478;fill-rule:evenodd" id="path42"/>
  <path d="M 384.0775,593.2043 H 207.5267 c 26.0532,14.7867 56.1781,23.2299 88.2754,23.2299 32.0972,0 62.2222,-8.4432 88.2754,-23.2299 z" style="fill:#254478;fill-rule:evenodd" id="path44"/>
  <path d="M 186.5151,579.2369 H 405.089 c 4.9263,-3.7999 9.6494,-7.8503 14.15,-12.1326 H 172.3652 c 4.5005,4.2823 9.2236,8.3327 14.1499,12.1326 z" style="fill:#254478;fill-rule:evenodd" id="path46"/>
  <path d="m 160.8985,555.1424 h 269.8072 c 2.9526,-3.3783 5.7804,-6.8684 8.4762,-10.4633 H 152.4223 c 2.6957,3.5949 5.5236,7.085 8.4762,10.4633 z" style="fill:#254478;fill-rule:evenodd" id="path48"/>
  <path d="m 145.1095,534.166 h 301.3852 c 1.7288,-2.6847 3.3877,-5.4187 4.9742,-8.1992 H 140.1352 c 1.5866,2.7805 3.2454,5.5145 4.9743,8.1992 z" style="fill:#254478;fill-rule:evenodd" id="path50"/>
  <path d="m 232.465,433.0023 -105.5316,64.1466 c 2.5237,7.1238 5.4851,14.0406 8.8521,20.7179 h 320.0332 c 3.5433,-7.0268 6.6373,-14.3186 9.2446,-21.8381 l -105.0976,-63.1766 -63.4504,63.1505 z" style="fill:#254478;fill-rule:evenodd" id="path52"/>
  <path d="m 209.5163,447.8522 -73.5749,-10.6506 75.8251,-16.9512 -73.7258,-39.2638 86.5514,6.3003 -52.1238,-60.4874 74.1382,37.6503 -19.4992,-76.2749 48.151,62.7749 14.8507,-74.1747 18.2267,70.5005 46.5004,-63.6381 -14.6993,79.0877 61.9506,-42.2246 -37.8374,61.8381 77.9629,-14.8873 -62.3999,44.8504 67.3132,14.9247 -72.5252,15.3" style="fill:none" id="path54"/>
  <path d="m 227.1073,288.1749 48.151,62.7749 14.8507,-74.1747 18.2267,70.5005 46.5004,-63.6381 -14.6993,79.0877 61.9506,-42.2246 -37.8374,61.8381 77.9629,-14.8873 -62.3999,44.8504 67.3132,14.9247 -71.4455,15.0721 89.3826,53.7301 c 6.3754,-18.3881 9.8391,-38.137 9.8391,-58.6947 0,-98.9144 -80.1859,-179.1003 -179.1003,-179.1003 -98.9144,0 -179.1003,80.1859 -179.1003,179.1003 0,20.9758 3.6059,41.1094 10.2316,59.8149 l 81.3861,-49.4699 -72.3781,-10.4774 75.8251,-16.9512 -73.7258,-39.2638 86.5514,6.3003 -52.1238,-60.4874 74.1382,37.6503 z" style="fill:#c32424;fill-rule:evenodd" id="path56"/>
  <g id="Layer1000"/>
  <path d="m 135.9428,437.2004 72.3781,10.4775 24.1456,-14.6767 64.0502,63.0003 63.4504,-63.1505 15.715,9.4464 71.4456,-15.0721 -67.3132,-14.9247 62.3999,-44.8503 -77.963,14.8873 37.8374,-61.8381 -61.9506,42.2246 14.6993,-79.0878 -46.5003,63.6381 -18.2268,-70.5004 -14.8507,74.1747 -48.151,-62.7749 19.4992,76.2749 -74.1381,-37.6503 52.1237,60.4873 -86.5514,-6.3003 73.7258,39.2639 z" style="fill:#ceba1c;fill-rule:evenodd" id="path59"/>
  <path d="m 295.4591,194.1256 c -67.112,0 -127.8703,27.2024 -171.8501,71.1822 -43.9798,43.9798 -71.1822,104.7382 -71.1822,171.8501 0,67.112 27.2024,127.8703 71.1822,171.8501 43.9798,43.9798 104.7381,71.1822 171.8501,71.1822 67.1119,0 127.8703,-27.2024 171.8501,-71.1822 43.9798,-43.9798 71.1822,-104.7381 71.1822,-171.8501 0,-67.1119 -27.2024,-127.8703 -71.1822,-171.8501 C 423.3294,221.328 362.571,194.1256 295.4591,194.1256 Z M 119.2,260.8988 c 45.1085,-45.1086 107.4262,-73.0094 176.2591,-73.0094 68.8328,0 131.1505,27.9008 176.2591,73.0094 45.1086,45.1086 73.0094,107.4263 73.0094,176.2591 0,68.8329 -27.9008,131.1506 -73.0094,176.2591 -45.1086,45.1086 -107.4263,73.0095 -176.2591,73.0095 -68.8329,0 -131.1506,-27.9009 -176.2591,-73.0095 C 74.0914,568.3085 46.1906,505.9908 46.1906,437.1579 c 0,-68.8328 27.9008,-131.1505 73.0094,-176.2591 z" style="fill:#254478;fill-rule:evenodd" id="path61"/>
  <path d="m 175.9411,282.8483 -19.5134,-28.7597 21.1127,-14.3034 3.8463,5.5488 -15.317,10.1387 4.6621,6.8032 12.3999,-8.5757 3.6026,5.2679 -12.4745,8.4444 4.0241,6.0407 15.897,-11.0472 3.5464,5.6242 z m -60.8587,79.6598 -31.1242,-16.1039 13.7013,-26.5867 31.1238,16.2536 -3.4877,6.667 -24.963,-13.2692 -6.95,13.4773 25.2252,12.8194 z m -36.144,92.3831 c 10.3651,-5.2861 7.6697,-6.768 11.7637,-13.9346 3.8124,0.4465 3.1553,11.1527 1.9129,14.7861 -4.0652,11.8902 -10.1787,9.9839 -9.5193,17.5422 0.4189,4.8053 1.3886,21.1538 4.026,23.4289 4.6052,-1.5576 2.4797,-16.4987 9.667,-22.689 1.8652,0.5357 3.99,4.2287 4.7664,6.5505 2.2539,6.7397 -0.5669,12.1465 -3.7471,17.2542 -1.5366,2.4676 -3.2272,4.163 -5.0266,6.126 1.1692,6.2104 -1.4928,11.0058 5.3291,19.4491 1.542,1.9083 1.955,3.6252 5.017,3.0186 0.6979,-3.3775 -0.0621,-8.047 0.5148,-11.683 0.5757,-3.6272 1.2291,-6.0959 2.9245,-8.8611 3.9461,-0.2897 3.6496,-0.5587 5.3941,2.5923 6.9377,12.5334 -0.3807,21.5027 -4.3969,30.6105 -1.6166,3.6669 3.2871,8.5045 4.383,11.1821 l 4.5841,5.8314 c 8.9252,1.065 0.0522,-13.5091 6.3947,-17.3704 3.5654,1.0749 6.2419,7.9344 6.7564,13.2202 0.3093,3.1754 0.1899,6.7039 -0.1998,9.8674 -0.3286,2.6651 -1.1705,6.1033 -1.3204,8.7386 l 7.3111,7.5204 c 1.0743,1.898 3.2227,4.2012 4.7446,5.9762 2.9654,3.4592 2.4095,4.1826 6.1322,4.3002 -0.0176,-4.4501 -0.5933,-22.0958 -0.1428,-24.9381 3.7357,1.1619 8.0484,6.425 9.6128,10.0474 2.1974,5.0876 2.9642,10.3958 2.84,16.7893 -0.2208,11.3692 -4.0762,7.3474 9.9485,18.4026 3.4914,2.7521 3.7026,3.7604 5.849,2.9917 0.2755,-1.3284 -0.6191,-9.7087 -0.5428,-12.4609 0.1346,-4.839 0.3693,-8.0883 0.091,-13.007 7.541,1.7994 11.2405,13.3999 12.1195,20.6113 0.3158,2.592 0.4524,5.2191 0.4921,7.8151 0.0561,3.7049 1.0599,3.2159 3.3287,4.9357 2.4954,1.8915 7.2136,5.1032 8.8708,7.2895 l -1.4182,1.9613 c -1.4927,-0.2429 -4.0275,-2.0724 -5.4442,-3.016 -2.9294,-1.9511 -2.1753,-1.7003 -6.3703,-1.694 -7.0121,0.01 -7.6043,1.9953 -13.2801,3.3556 -5.4303,1.3017 -10.0893,0.5298 -14.2713,-1.7589 -2.8321,-1.5502 -7.9415,-5.5017 -8.9093,-7.8604 5.226,-4.4932 15.7618,2.3578 19.5197,-2.8642 -1.3657,-1.3796 -3.2865,-3.0027 -4.6976,-4.498 -5.6951,-6.033 -5.9916,-7.5061 -11.0903,-6.3652 -7.0188,1.5707 -17.2114,2.8922 -22.9991,-1.0797 -3.5039,-2.4041 -4.1718,-5.654 -6.1719,-7.7896 -1.6387,-1.7501 -1.5985,-0.4292 -2.2887,-2.1977 4.009,-1.6265 19.8848,1.7878 19.6716,-2.3831 -0.0539,-1.0519 -3.5334,-3.8492 -5.305,-6.065 -1.7689,-2.2127 -3.339,-3.9722 -5.1812,-6.0812 -4.7908,-5.557 -5.6809,-4.4421 -10.5208,-4.7724 -21.4537,-1.4652 -21.4384,-13.8067 -24.6127,-17.5779 l -1.9737,-1.749 c 2.9792,-0.117 10.777,2.5002 14.0726,3.6204 l 4.3256,0.7016 c 1.2161,-2.1688 -3.6379,-6.5928 -3.8709,-8.4747 -0.4587,-0.3362 -0.2824,-0.1687 -0.6849,-0.5593 l -0.5287,-0.6009 c -7.6578,-9.9034 -0.9354,-6.706 -12.1209,-10.7354 -5.7331,-2.0653 -11.6342,-5.1486 -15.2223,-9.5222 -1.4658,-1.7869 -5.7269,-7.9588 -5.1534,-11.2578 6.3181,-2.0097 18.0088,6.7848 19.4261,6.6354 0.5984,-2.2983 -1.7654,-3.5992 -2.4494,-6.5174 -0.5196,-2.2162 -1.1784,-5.1554 -2.325,-6.9546 -1.8264,-2.8655 -1.8048,-2.7065 -5.3124,-4.0192 -6.5988,-2.4693 -10.9514,-6.2104 -14.1372,-13.0595 -1.408,-3.0274 -3.6522,-10.7552 -3.3591,-14.6015 1.927,0.5139 12.005,9.5731 15.4196,10.6339 -0.2936,-4.0389 -1.8346,-10.4006 -2.8924,-14.2022 -1.1529,-4.142 -0.6489,-4.0184 -3.1238,-5.0462 -9.7178,-4.0354 -16.4713,-12.6131 -14.6591,-26.0204 2.8264,-0.146 12.9835,10.9301 14.3342,11.8355 0.1381,-24.2268 -4.7466,-17.9892 -4.8248,-31.0581 -0.0117,-1.9355 0.0425,-3.9585 0.3118,-5.6987 0.1236,-0.7997 0.2387,-1.512 0.4518,-2.3808 l 0.9332,-2.0719 c 4.5575,1.6302 9.72,9.9383 7.2615,17.4079 -0.5692,1.7302 -1.5296,2.874 -1.8513,4.5773 -0.3473,1.8377 -0.2667,4.5301 -0.1772,6.4262 0.205,4.3449 0.8623,7.4917 1.6212,11.4446 z m 37.7634,-17.5572 c 0,-98.9144 80.1859,-179.1003 179.1003,-179.1003 98.9144,0 179.1003,80.1859 179.1003,179.1003 0,20.5577 -3.4637,40.3066 -9.8391,58.6947 -2.6073,7.5195 -5.7013,14.8113 -9.2446,21.8381 H 135.7855 c -3.367,-6.6773 -6.3284,-13.5941 -8.8521,-20.7179 -6.6257,-18.7055 -10.2316,-38.8391 -10.2316,-59.8149 z m 23.4334,88.6328 h 311.3337 c -1.5865,2.7805 -3.2454,5.5145 -4.9742,8.1992 H 145.1095 c -1.7289,-2.6847 -3.3877,-5.4187 -4.9743,-8.1992 z m 12.2871,18.7123 h 286.7596 c -2.6958,3.5949 -5.5236,7.085 -8.4762,10.4633 H 160.8985 c -2.9526,-3.3783 -5.7805,-6.8684 -8.4762,-10.4633 z m 19.9429,22.4252 H 419.239 c -4.5006,4.2823 -9.2237,8.3327 -14.15,12.1326 H 186.5151 c -4.9263,-3.7999 -9.6494,-7.8503 -14.1499,-12.1326 z m 35.1615,26.1 h 176.5508 c -26.0532,14.7867 -56.1782,23.2299 -88.2754,23.2299 -32.0973,0 -62.2222,-8.4432 -88.2754,-23.2299 z m -4.0425,-328.2429 c -2.4854,0 -4.5,-2.0146 -4.5,-4.5 0,-2.4854 2.0146,-4.5 4.5,-4.5 2.4854,0 4.5,2.0146 4.5,4.5 0,2.4854 -2.0146,4.5 -4.5,4.5 z m 21.3908,-9.9881 -10.2954,-33.6133 7.6524,-2.0514 4.6837,15.171 14.0221,-4.2457 -4.8736,-15.2462 7.2873,-2.192 10.3048,33.304 -7.3525,2.3508 -3.697,-11.5257 -13.945,4.1332 3.8849,11.5075 z m -62.5995,38.7688 -5.1477,5.7694 -6.5435,-2.2808 -10.3595,11.5149 2.9619,6.3255 -5.2234,5.783 -14.7305,-35.0002 2.6677,-2.9452 z m 3.0711,-2.8306 c -2.4854,0 -4.5,-2.0146 -4.5,-4.5 0,-2.4855 2.0146,-4.5 4.5,-4.5 2.4854,0 4.5,2.0145 4.5,4.5 0,2.4854 -2.0146,4.5 -4.5,4.5 z m 130.1125,-96.7859 c -67.112,0 -127.8703,27.2024 -171.8501,71.1822 -43.9798,43.9798 -71.1822,104.7382 -71.1822,171.8501 0,67.112 27.2024,127.8703 71.1822,171.8501 43.9798,43.9798 104.7381,71.1822 171.8501,71.1822 67.1119,0 127.8703,-27.2024 171.8501,-71.1822 43.9798,-43.9798 71.1822,-104.7381 71.1822,-171.8501 0,-67.1119 -27.2024,-127.8703 -71.1822,-171.8501 C 423.3294,221.328 362.571,194.1256 295.4591,194.1256 Z M 130.7716,329.4992 c -2.4855,0 -4.5,-2.0146 -4.5,-4.5 0,-2.4854 2.0145,-4.5 4.5,-4.5 2.4854,0 4.5,2.0146 4.5,4.5 0,2.4854 -2.0146,4.5 -4.5,4.5 z m 324.0802,222.1625 c 0.5145,-5.2857 3.1909,-12.1453 6.7564,-13.2202 6.3425,3.8614 -2.5305,18.4354 6.3946,17.3704 l 4.5842,-5.8314 c 1.0959,-2.6776 5.9996,-7.5152 4.383,-11.1821 -4.0162,-9.1077 -11.3347,-18.0771 -4.3969,-30.6105 1.7445,-3.151 1.448,-2.882 5.3941,-2.5923 1.6954,2.7652 2.3488,5.2339 2.9245,8.8611 0.5768,3.636 -0.1831,8.3055 0.5148,11.683 3.0619,0.6066 3.4749,-1.1103 5.017,-3.0186 6.8219,-8.4433 4.1598,-13.2386 5.3291,-19.4491 -1.7994,-1.963 -3.49,-3.6584 -5.0266,-6.1259 -3.1802,-5.1078 -6.001,-10.5146 -3.7472,-17.2542 0.7764,-2.3219 2.9013,-6.0149 4.7665,-6.5506 7.1872,6.1903 5.0618,21.1314 9.667,22.6891 2.6373,-2.2751 3.6071,-18.6237 4.026,-23.429 0.6594,-7.5583 -5.4541,-5.652 -9.5193,-17.5422 -1.2424,-3.6334 -1.8995,-14.3396 1.9128,-14.786 4.0941,7.1665 1.3987,8.6485 11.7638,13.9345 0.7589,-3.9529 1.4162,-7.0996 1.6212,-11.4446 0.0895,-1.8961 0.17,-4.5884 -0.1772,-6.4261 -0.3217,-1.7034 -1.2821,-2.8471 -1.8513,-4.5774 -2.4585,-7.4696 2.704,-15.7776 7.2615,-17.4079 l 0.9332,2.0719 c 0.2131,0.8688 0.3282,1.5812 0.4518,2.3808 0.2693,1.7402 0.3234,3.7633 0.3118,5.6988 -0.0782,13.0688 -4.9629,6.8312 -4.8248,31.0581 1.3507,-0.9054 11.5078,-11.9815 14.3342,-11.8355 1.8122,13.4073 -4.9414,21.9849 -14.6591,26.0203 -2.4749,1.0279 -1.9709,0.9043 -3.1238,5.0462 -1.0579,3.8016 -2.5988,10.1634 -2.8924,14.2022 3.4146,-1.0607 13.4926,-10.12 15.4196,-10.6339 0.2931,3.8463 -1.9511,11.5741 -3.3591,14.6015 -3.1858,6.8491 -7.5384,10.5903 -14.1372,13.0595 -3.5076,1.3128 -3.486,1.1537 -5.3124,4.0193 -1.1466,1.7991 -1.8054,4.7384 -2.325,6.9545 -0.684,2.9183 -3.0478,4.2191 -2.4494,6.5174 1.4173,0.1494 13.108,-8.6451 19.4261,-6.6353 0.5735,3.2989 -3.6876,9.4708 -5.1534,11.2578 -3.5881,4.3736 -9.4892,7.4568 -15.2223,9.5221 -11.1855,4.0295 -4.4632,0.832 -12.121,10.7354 l -0.5286,0.6009 c -0.4025,0.3906 -0.2262,0.2231 -0.6849,0.5593 -0.233,1.8819 -5.087,6.306 -3.871,8.4747 l 4.3257,-0.7015 c 3.2956,-1.1203 11.0934,-3.7375 14.0726,-3.6204 l -1.9738,1.7489 c -3.1742,3.7713 -3.1589,16.1127 -24.6126,17.578 -4.8399,0.3302 -5.73,-0.7847 -10.5208,4.7724 -1.8422,2.1089 -3.4123,3.8684 -5.1812,6.0811 -1.7716,2.2159 -5.2511,5.0131 -5.305,6.065 -0.2132,4.1709 15.6625,0.7566 19.6716,2.3831 -0.6903,1.7686 -0.65,0.4476 -2.2887,2.1977 -2.0001,2.1357 -2.668,5.3856 -6.1719,7.7896 -5.7878,3.9719 -15.9803,2.6504 -22.9992,1.0798 -5.0986,-1.141 -5.3951,0.3322 -11.0902,6.3652 -1.4111,1.4952 -3.3319,3.1183 -4.6976,4.498 3.7579,5.222 14.2937,-1.6291 19.5196,2.8641 -0.9677,2.3587 -6.0772,6.3102 -8.9092,7.8605 -4.182,2.2887 -8.841,3.0605 -14.2714,1.7589 -5.6758,-1.3604 -6.2679,-3.3458 -13.28,-3.3557 -4.195,-0.006 -3.441,-0.2571 -6.3703,1.694 -1.4167,0.9436 -3.9515,2.7731 -5.4442,3.0161 l -1.4182,-1.9613 c 1.6572,-2.1864 6.3754,-5.3981 8.8708,-7.2896 2.2688,-1.7198 3.2726,-1.2308 3.3287,-4.9357 0.0397,-2.596 0.1763,-5.2231 0.4921,-7.8151 0.879,-7.2114 4.5785,-18.8119 12.1195,-20.6113 -0.2784,4.9187 -0.0436,8.168 0.091,13.0071 0.0763,2.7521 -0.8184,11.1325 -0.5428,12.4608 2.1464,0.7687 2.3575,-0.2395 5.849,-2.9917 14.0247,-11.0551 10.1693,-7.0333 9.9484,-18.4025 -0.1241,-6.3936 0.6427,-11.7017 2.8401,-16.7893 1.5644,-3.6224 5.877,-8.8855 9.6128,-10.0474 0.4505,2.8423 -0.1253,20.4879 -0.1428,24.938 3.7227,-0.1176 3.1668,-0.841 6.1322,-4.3001 1.5219,-1.7751 3.6703,-4.0782 4.7446,-5.9763 l 7.3111,-7.5203 c -0.15,-2.6354 -0.9918,-6.0735 -1.3204,-8.7387 -0.3897,-3.1634 -0.5091,-6.692 -0.1998,-9.8674 z m 7.6524,-219.5268 -5.3892,-6.9849 11.8785,-21.7358 -23.9743,6.213 -5.3878,-6.8629 38.0313,-8.7254 2.6272,3.5567 z m 1.7325,2.8224 31.4113,-15.7856 3.3055,7.2003 -14.1713,7.1609 6.5367,13.112 14.2135,-7.3608 3.3826,6.8165 -31.1046,15.7428 -3.5504,-6.8542 10.7428,-5.5772 -6.4128,-13.0546 -10.6935,5.7591 z m -38.8511,-43.6705 c -8.2287,-7.6 -8.7811,-18.0581 -1.3399,-26.1151 7.5317,-8.1549 17.8313,-8.5648 26.2505,-0.7891 8.3129,7.6771 8.2245,18.5289 1.1234,25.9483 -7.5532,7.8914 -17.773,8.5853 -26.034,0.9559 z m -24.7351,-19.2836 14.8014,-24.0862 -13.0173,-7.7774 -14.3688,24.3759 -6.5092,-3.9393 18.0151,-30.0586 25.6796,15.3338 -18.1642,30.0489 z M 213.5707,611.282 c 46.5602,20.414 115.7907,19.5106 160.3508,-0.2251 l -11.0248,26.1 18.9003,10.4253 c -52.4795,24.1565 -122.0459,24.6929 -176.3254,0.1499 l 18.9751,-10.65 z m 43.3721,-365.9023 12.6527,-36.9108 4.4076,-0.3555 19.9573,33.3315 -8.7769,0.8932 -12.1975,-21.5586 -7.3706,23.6441 z m 40.5779,-3.0654 0.8805,-35.2123 8.2802,-0.007 -0.8053,35.2494 z m 30.8515,3.1402 c -10.8635,-2.7303 -16.3574,-11.6464 -13.684,-22.2831 2.7059,-10.766 11.5512,-16.0589 22.6661,-13.2653 10.9743,2.7581 16.094,12.3267 13.4138,22.2406 -2.8511,10.5452 -11.4899,16.0489 -22.3959,13.3078 z m 30.8276,6.7575 4.2072,-11.4094 -4.3436,-26.0504 8.7231,3.3471 2.1498,16.5575 12.5532,-11.4041 8.6091,3.371 -20.3034,17.0631 -4.1721,11.1382 z" style="fill:#ffffff;fill-rule:evenodd" id="path63"/>
  <path d="m 144.7824,295.1184 -13.0465,-4.2169 5.6849,12.3118 z" style="fill:#ffffff;fill-rule:evenodd" id="path65"/>
  <path d="m 322.5141,224.5431 c -1.7014,5.7659 0.8668,11.9032 7.797,13.6831 6.8972,1.7713 11.3193,-2.2547 12.5812,-7.8908 1.1563,-5.1633 -0.3668,-11.4784 -7.4486,-13.2968 -6.955,-1.7858 -11.3609,2.1881 -12.9296,7.5045 z" style="fill:#ffffff;fill-rule:evenodd" id="path67"/>
  <path d="m 430.2587,270.1239 c -4.2551,4.2468 -4.9402,10.8643 0.2911,15.7461 5.2064,4.8583 11.0163,3.4419 14.8235,-0.9014 3.488,-3.9787 5.1755,-10.2517 -0.1704,-15.2399 -5.25,-4.8988 -11.0211,-3.5203 -14.9442,0.3952 z" style="fill:#ffffff;fill-rule:evenodd" id="path69"/>
</svg>