<svg id="Layer_1" data-name="Layer 1" xmlns="http://www.w3.org/2000/svg" viewBox="0 0 109 108"><defs><style>.cls-1,.cls-3{fill:#231f20;}.cls-1,.cls-2,.cls-4,.cls-5{fill-rule:evenodd;}.cls-2{fill:#f5c71d;}.cls-4{fill:#d68b30;}.cls-5{fill:#2a9e4f;}</style></defs><path class="cls-1" d="M103.46,66.42c.43,5.16-2.16,10.92-5.31,14.81a34.69,34.69,0,0,1-9.41,7.9,65.94,65.94,0,0,1-9.93,4.64c-1.59.62-3.19,1.21-4.79,1.81-2.36.88-4.71,1.8-7,2.87a56,56,0,0,0-7.41,4.23,30.69,30.69,0,0,0-6.06,5.45,28.41,28.41,0,0,0-5.87-5.45,55.46,55.46,0,0,0-7.42-4.23c-2.27-1.07-4.62-2-7-2.87-1.6-.6-3.2-1.19-4.79-1.81a65.94,65.94,0,0,1-9.93-4.64,34.88,34.88,0,0,1-9.42-7.9C6,77.33,3.41,71.57,3.85,66.39a6.32,6.32,0,0,1-1.5-.89A4.29,4.29,0,0,1,.64,60.41l3.91-10.1a8.52,8.52,0,0,1,1.55-2.4,5.5,5.5,0,0,1,4.2-1.33,7.5,7.5,0,0,1,3.43,1.19,8.68,8.68,0,0,1,1.94,1.76c.37-1.57.78-3.12,1.16-4.69a52.32,52.32,0,0,0,1.43-9.22A43.26,43.26,0,0,0,14.1,14.11l-1-2.11L24.36,0H82.91L94.16,12l-1,2.11A43.38,43.38,0,0,0,89,35.62a53.26,53.26,0,0,0,1.43,9.22c.38,1.54.79,3.06,1.16,4.6a9.88,9.88,0,0,1,2.45-2,7.55,7.55,0,0,1,3-.9,5.24,5.24,0,0,1,5.48,3.56l4.17,10.39c.83,2-.11,3.84-1.7,5.06a5.93,5.93,0,0,1-1.5.83Z"/><path class="cls-2" d="M16.19,52.3c.5-2.55,1.09-4.68,1.7-7.2a53.71,53.71,0,0,0,1.47-9.41,44.4,44.4,0,0,0-4.27-22l-.67-1.43L24.83,1.1H82.44L92.85,12.21l-.67,1.43a44.39,44.39,0,0,0-4.26,22,53.69,53.69,0,0,0,1.46,9.41c.62,2.54,1.21,4.56,1.72,7.13a8,8,0,0,1,3.49-3.79,6.31,6.31,0,0,1,2.52-.77,4.13,4.13,0,0,1,4.37,2.88L105.65,61c.63,1.5-.13,2.84-1.35,3.76a3.83,3.83,0,0,1-2,.85c.86,5.12-1.82,11.11-5,15a33.28,33.28,0,0,1-9.13,7.65,64.66,64.66,0,0,1-9.76,4.56c-1.59.62-3.18,1.2-4.78,1.8-2.38.9-4.76,1.82-7.06,2.91A55.84,55.84,0,0,0,59,101.77a34.94,34.94,0,0,0-5.41,4.75,27.88,27.88,0,0,0-5.3-4.75,55.84,55.84,0,0,0-7.56-4.31c-2.3-1.09-4.68-2-7.06-2.91-1.6-.6-3.2-1.18-4.78-1.8a65.6,65.6,0,0,1-9.76-4.55A33.49,33.49,0,0,1,10,80.54c-3.13-3.87-5.81-9.86-5-15a3.94,3.94,0,0,1-2-.93,3.19,3.19,0,0,1-1.35-3.82l3.91-10.1a8,8,0,0,1,1.27-2,4.38,4.38,0,0,1,3.35-1,6.29,6.29,0,0,1,2.94,1,9.46,9.46,0,0,1,3.06,3.61Z"/><path class="cls-1" d="M8.15,54l2.4-3.47.16,0c3.28.88,3.74,5.06,1.8,7.45l-5.78,7.1c-1.15,4.77,1.53,10.72,4.49,14.39a31.86,31.86,0,0,0,8.72,7.29,62,62,0,0,0,9.53,4.44c1.58.62,3.17,1.2,4.76,1.8,2.43.91,4.83,1.85,7.18,3a57.88,57.88,0,0,1,7.77,4.43,27.19,27.19,0,0,1,4.34,3.61l.13.13.14-.13.45-.46a27.08,27.08,0,0,1,3.89-3.15,57.88,57.88,0,0,1,7.77-4.43c2.35-1.11,4.75-2,7.18-3,1.59-.6,3.18-1.18,4.76-1.8a62.47,62.47,0,0,0,9.53-4.44,31.86,31.86,0,0,0,8.72-7.29c3-3.67,5.64-9.62,4.49-14.39l-5.78-7.1c-1.94-2.39-1.48-6.57,1.8-7.45l.16,0L99.16,54a3,3,0,0,0,.6-3.76,2.68,2.68,0,0,0-2.49-1.05c-2.93.28-4.41,2.72-4.87,5.4-.31,1.87-.17,3.79-.48,5.67-.65,3.87-2.24,8.15-5.16,10.88A38.07,38.07,0,0,1,79,77a41.27,41.27,0,0,1-6.76,2.83,62.43,62.43,0,0,0-8.8,3.44,30.85,30.85,0,0,0-9.06,6.63l-.69.73c-.23-.28-.48-.54-.73-.8a30.8,30.8,0,0,0-9-6.56,62.43,62.43,0,0,0-8.8-3.44A41.74,41.74,0,0,1,28.35,77a38.28,38.28,0,0,1-7.8-5.78c-2.92-2.73-4.51-7-5.16-10.88-.31-1.88-.17-3.8-.49-5.67C14.45,52,13,49.51,10,49.23a2.68,2.68,0,0,0-2.49,1.05A3,3,0,0,0,8.15,54Zm88.32-1.79A2.17,2.17,0,0,0,95.21,55a1.62,1.62,0,0,0,1.23.77,3.44,3.44,0,0,0,2.09-.65l-2.06-2.88Zm-.15.59L97.85,55a2.92,2.92,0,0,1-1.37.32,1.11,1.11,0,0,1-.88-.57,1.58,1.58,0,0,1,0-1,1.67,1.67,0,0,1,.7-.94Zm4.82.25,3.5,8.28a2.14,2.14,0,0,1-1,2.56c-.76.58-2,.77-2.45.15l-5.76-7.53A6,6,0,0,0,99,55.82a4.87,4.87,0,0,0,2.16-2.73Zm0,1.18,3.08,7.29a1.71,1.71,0,0,1-.81,2c-.37.28-1.44.7-1.8.23L96.43,57a6.24,6.24,0,0,0,2.79-.8,5.28,5.28,0,0,0,1.91-2ZM53.64,104.91c-.15-.18-.28-.31-.43-.46s-.38-.4-.59-.6a26.83,26.83,0,0,0-3.7-3,57,57,0,0,0-7.71-4.4c-2.34-1.1-4.73-2-7.15-2.94-1.59-.6-3.18-1.19-4.76-1.8a63.9,63.9,0,0,1-9.6-4.47,32.33,32.33,0,0,1-8.84-7.41C7.79,76.05,5.06,69.94,6.29,65V65l5.84-7.19c1.7-2.08,1.41-5.77-1.39-6.65l-2.5,3.6-.19-.15A3.45,3.45,0,0,1,7.16,50a3.12,3.12,0,0,1,2.93-1.26c3.15.31,4.78,2.9,5.28,5.79.32,1.88.17,3.79.49,5.67.62,3.77,2.17,8,5,10.62a37.75,37.75,0,0,0,7.71,5.71,41.29,41.29,0,0,0,6.69,2.8,62.05,62.05,0,0,1,8.86,3.46,31.4,31.4,0,0,1,9,6.56l.47.51c.16-.17.34-.34.5-.5a31.11,31.11,0,0,1,9-6.57A61.6,61.6,0,0,1,72,79.35a41.29,41.29,0,0,0,6.69-2.8,37.42,37.42,0,0,0,7.7-5.71c2.85-2.66,4.39-6.85,5-10.62.32-1.88.17-3.79.49-5.67.5-2.89,2.13-5.48,5.28-5.79A3.13,3.13,0,0,1,100.15,50a3.45,3.45,0,0,1-.9,4.55l-.19.15-2.5-3.6c-2.8.88-3.09,4.57-1.4,6.65L101,65V65c1.23,4.93-1.5,11-4.57,14.84a32.33,32.33,0,0,1-8.84,7.41A63.9,63.9,0,0,1,78,91.73c-1.58.61-3.17,1.2-4.76,1.8-2.42.9-4.81,1.84-7.15,2.94a57,57,0,0,0-7.71,4.4,27.44,27.44,0,0,0-3.7,3c-.2.19-.4.39-.59.59l-.46.47ZM10.84,52.25A2.17,2.17,0,0,1,12.1,55a1.62,1.62,0,0,1-1.23.77,3.44,3.44,0,0,1-2.09-.65l2.06-2.88Zm.15.59L9.45,55a3,3,0,0,0,1.38.32,1.11,1.11,0,0,0,.88-.57,1.75,1.75,0,0,0-.72-1.9Zm-4.82.25-3.5,8.28a2.12,2.12,0,0,0,1,2.56c.76.58,2,.77,2.45.15l5.75-7.53a6,6,0,0,1-3.5-.73,4.87,4.87,0,0,1-2.16-2.73Zm0,1.18L3.1,61.56a1.68,1.68,0,0,0,.81,2c.37.28,1.44.7,1.8.23L10.87,57a6.24,6.24,0,0,1-2.78-.8,5.28,5.28,0,0,1-1.91-2Z"/><path class="cls-1" d="M16.29,12.51l9.22-9.85H81.76L91,12.51a45.57,45.57,0,0,0-4.63,23.27C87,46.61,90.4,51,90.19,58.34c-.15,5.3-2.69,9.45-6.56,12.73a37.32,37.32,0,0,1-10,6c-2.47,1-5.08,1.66-7.56,2.66-4.86,2-9.25,4.34-12.41,8.37-3.08-3.85-7.56-6.39-12.42-8.37-2.48-1-5.09-1.64-7.55-2.66a37.53,37.53,0,0,1-10-6c-3.87-3.28-6.41-7.43-6.56-12.73-.21-7.34,3.15-11.73,3.84-22.56a45.57,45.57,0,0,0-4.63-23.27Zm46,.63V31.66l-8.37-8.37L45,32.12v-19H31V75c1,.48,1.95.94,3,1.35C36.43,77.38,39,78,41.52,79c1.18.48,2.36,1,3.51,1.57V58l8.84,8.84,8.37-8.38V80.59c1.15-.56,2.32-1.07,3.52-1.56,2.47-1,5.08-1.65,7.55-2.66,1-.41,2-.87,3-1.35V13.14Zm-44.75-.78H89.78L81.42,3.44H25.85l-8.36,8.92Z"/><path class="cls-3" d="M45.1,42.85l-1.74-.61V37.47a6.32,6.32,0,0,1-2.26,1.08v-1.3a3.64,3.64,0,0,0,2.56-2.08H45.1v7.68Z"/><path class="cls-3" d="M47.25,41.17,48.84,41a1.33,1.33,0,0,0,.3.77.85.85,0,0,0,.65.25,1,1,0,0,0,.86-.5,4.57,4.57,0,0,0,.46-2.09,1.92,1.92,0,0,1-1.55.77,2.24,2.24,0,0,1-1.74-.84,3.64,3.64,0,0,1,0-4.45,2.53,2.53,0,0,1,2-.86A2.58,2.58,0,0,1,52,35.13a5.89,5.89,0,0,1,.84,3.57,6,6,0,0,1-.88,3.65,2.72,2.72,0,0,1-2.26,1.12A2.33,2.33,0,0,1,48,42.9a2.86,2.86,0,0,1-.79-1.73ZM51,37.31A2.15,2.15,0,0,0,50.6,36a1,1,0,0,0-.85-.47.9.9,0,0,0-.75.38,2.1,2.1,0,0,0-.3,1.27A2.15,2.15,0,0,0,49,38.47a1,1,0,0,0,.82.42,1,1,0,0,0,.8-.4A1.82,1.82,0,0,0,51,37.31Z"/><path class="cls-3" d="M56.32,34.06a2.28,2.28,0,0,1,2,1,6.53,6.53,0,0,1,.83,3.76,6.49,6.49,0,0,1-.84,3.76,2.27,2.27,0,0,1-1.94,1,2.39,2.39,0,0,1-2-1,6.49,6.49,0,0,1-.77-3.69A6.45,6.45,0,0,1,54.38,35a2.28,2.28,0,0,1,1.94-.95Zm0,1.47a.81.81,0,0,0-.53.2,1.42,1.42,0,0,0-.36.74,11,11,0,0,0-.17,2.31A10.9,10.9,0,0,0,55.41,41a1.64,1.64,0,0,0,.38.81.81.81,0,0,0,.53.2.79.79,0,0,0,.53-.2,1.42,1.42,0,0,0,.37-.74,10.92,10.92,0,0,0,.17-2.3,10.8,10.8,0,0,0-.16-2.24,1.6,1.6,0,0,0-.38-.81.79.79,0,0,0-.53-.2Z"/><path class="cls-3" d="M63.46,42.32V40.86H59.79V39.65L63.68,35h1.44v4.6h1.11v1.22H65.12v1.46Zm0-2.68V37.16L61.4,39.64Z"/><path class="cls-4" d="M39.85,26.39a13.78,13.78,0,0,0-3.68,5.91,15.83,15.83,0,0,0,.33,8.28,19.73,19.73,0,0,0,5.76,9.54,13.83,13.83,0,0,0,7.52,3.29c.65.05,1.32.09,2,.09s1,.1,1.52.12l.1.47c-.85-.1-1.92-.21-2.89-.25l-.73,0a14.62,14.62,0,0,1-7.8-3.46,19.61,19.61,0,0,1-5.71-9.57,16.38,16.38,0,0,1-.33-8.48,13.62,13.62,0,0,1,3.73-6l.11-.1.22.06-.11.1Z"/><path class="cls-4" d="M67.27,26.39A13.8,13.8,0,0,1,71,32.3a16,16,0,0,1-.33,8.28,19.8,19.8,0,0,1-5.76,9.54,13.86,13.86,0,0,1-7.53,3.29c-.64.05-1.31.09-2,.09s-1,.1-1.52.12l-.1.47c.85-.1,1.92-.21,2.89-.25l.74,0a14.66,14.66,0,0,0,7.8-3.46,19.51,19.51,0,0,0,5.7-9.57,16.38,16.38,0,0,0,.33-8.48,13.62,13.62,0,0,0-3.73-6l-.1-.1-.23.06.11.1Z"/><path class="cls-5" d="M51.84,53.5c-1.63-4.53-4.43-7.25-6-7,1.82,2,.77,3.88,1.95,5.41.91,1.17,2.23,1.58,4.08,1.6Z"/><path class="cls-5" d="M45,51.92a8.75,8.75,0,0,0-1-5.34,13.35,13.35,0,0,0-3.1-2.84,7.67,7.67,0,0,0,.66,5.43A7.15,7.15,0,0,0,45,51.92Z"/><path class="cls-5" d="M39.58,26.52a4,4,0,0,0,2.14-.6A3,3,0,0,0,43,24.32,4.63,4.63,0,0,0,40.9,25a3.86,3.86,0,0,0-1.32,1.55Z"/><path class="cls-5" d="M37.28,29.18c.46-.68.21-1.07.31-1.94A9.58,9.58,0,0,1,38,24.91a5.46,5.46,0,0,0-1.69,2,1.92,1.92,0,0,0,1,2.23Z"/><path class="cls-5" d="M35.55,34a2,2,0,0,1-.82-2c.14-1.15-.57-2-.8-2.95A4,4,0,0,0,33.41,32c.14,1,1.27,2.24,2.14,2Z"/><path class="cls-5" d="M36.67,30.85a1.46,1.46,0,0,0,1.79-.08,3.63,3.63,0,0,0,1.18-3.17A6.08,6.08,0,0,1,38,29.36a3.24,3.24,0,0,0-1.36,1.49Z"/><path class="cls-5" d="M39.33,47.18a20.38,20.38,0,0,0-3.23-3.37,9.56,9.56,0,0,0-3.59-1.92c.84,1.3,1.64,3.65,3.2,4.69a4.69,4.69,0,0,0,3.62.6Z"/><path class="cls-5" d="M52.38,54c-.77-.42-1.71,0-2.55.65a19.24,19.24,0,0,0-1.61,1.65c1.21.34,3.48.27,4.27-.55.39-.39.78-1.27-.11-1.75Z"/><path class="cls-5" d="M36.76,41.61a6.08,6.08,0,0,0,.32-3.12c-.12-1.67-.32-3.38.83-4.33.48,1.48,1.41,2.8,1.29,4.34a4.28,4.28,0,0,1-2.44,3.11Z"/><path class="cls-5" d="M36.48,41.57a6.24,6.24,0,0,1-1.08-3.35,4.24,4.24,0,0,0-2.18-3.31,9.2,9.2,0,0,0,.41,4.45,3.32,3.32,0,0,0,2.85,2.21Z"/><path class="cls-5" d="M45.76,52.69a5.58,5.58,0,0,1-4.1-1.63,4.84,4.84,0,0,0-4.06-1.24c.69,1.7,1.39,3.84,3.75,4.47a4.49,4.49,0,0,0,4.41-1.6Z"/><path class="cls-5" d="M55.27,53.5c1.63-4.53,4.43-7.25,6-7-1.82,2-.77,3.88-1.95,5.41-.91,1.17-2.23,1.58-4.08,1.6Z"/><path class="cls-5" d="M62.12,51.92a8.75,8.75,0,0,1,1-5.34,13.35,13.35,0,0,1,3.1-2.84,7.67,7.67,0,0,1-.66,5.43,7.15,7.15,0,0,1-3.4,2.75Z"/><path class="cls-5" d="M67.53,26.52a4,4,0,0,1-2.14-.6,3,3,0,0,1-1.27-1.6,4.63,4.63,0,0,1,2.09.65,3.86,3.86,0,0,1,1.32,1.55Z"/><path class="cls-5" d="M69.83,29.18c-.46-.68-.21-1.07-.31-1.94a9.1,9.1,0,0,0-.42-2.33,5.56,5.56,0,0,1,1.7,2,1.94,1.94,0,0,1-1,2.23Z"/><path class="cls-5" d="M71.56,34a2,2,0,0,0,.82-2c-.14-1.15.57-2,.8-2.95A4,4,0,0,1,73.7,32c-.14,1-1.27,2.24-2.14,2Z"/><path class="cls-5" d="M70.44,30.85a1.45,1.45,0,0,1-1.78-.08,3.61,3.61,0,0,1-1.19-3.17,6.08,6.08,0,0,0,1.61,1.76,3.24,3.24,0,0,1,1.36,1.49Z"/><path class="cls-5" d="M67.78,47.18A20.38,20.38,0,0,1,71,43.81a9.56,9.56,0,0,1,3.59-1.92c-.84,1.3-1.64,3.65-3.2,4.69a4.69,4.69,0,0,1-3.62.6Z"/><path class="cls-5" d="M54.73,54c.78-.42,1.71,0,2.55.65a17.85,17.85,0,0,1,1.61,1.65c-1.21.34-3.48.27-4.27-.55-.39-.39-.78-1.27.11-1.75Z"/><path class="cls-5" d="M70.35,41.61A6.08,6.08,0,0,1,70,38.49c.12-1.67.32-3.38-.83-4.33-.47,1.48-1.41,2.8-1.29,4.34a4.28,4.28,0,0,0,2.44,3.11Z"/><path class="cls-5" d="M70.63,41.57a6.15,6.15,0,0,0,1.08-3.35,4.24,4.24,0,0,1,2.18-3.31,9.2,9.2,0,0,1-.41,4.45,3.32,3.32,0,0,1-2.85,2.21Z"/><path class="cls-5" d="M61.35,52.69a5.58,5.58,0,0,0,4.1-1.63,4.84,4.84,0,0,1,4.06-1.24c-.69,1.7-1.39,3.84-3.75,4.47a4.49,4.49,0,0,1-4.41-1.6Z"/><path class="cls-1" d="M44.38,10H41.73l-.59,1.51H39.29l2.9-7h1.73l3,7H45L44.38,10ZM43.8,8.54,43,6.63l-.75,1.91Zm4,2.93V9.9h1.67v1.57ZM53.53,6l2.18,1.9-2.38,2.2h3.33v1.42H51.18V10l2.33-2.18L51.27,5.93V4.52h5.24V6Zm4.81,5.52V9.9H60v1.57ZM66,10H63.37l-.59,1.51H60.92l2.91-7h1.72l3,7H66.65L66,10Zm-.58-1.42-.76-1.91-.75,1.91Zm3.88,2.93V9.9H71v1.57Z"/><polygon class="cls-3" points="59.12 97.85 57.7 92.24 58.6 91.61 59.23 94.1 59.97 90.69 61.35 89.79 60.49 92.84 63.12 95.02 62.18 95.71 60.19 93.97 59.67 95.79 60.01 97.21 59.12 97.85 59.12 97.85"/><path class="cls-3" d="M68.37,92l-1,.57-.83-1-1.86,1,0,1.41-1,.56-.06-6.09,1-.56,3.73,4Zm-2.47-1.1-1.33-1.59.06,2.31,1.27-.72Z"/><path class="cls-3" d="M68.9,91.77l-1.81-5.12,1.59-.75a6.63,6.63,0,0,1,1.21-.47,1.25,1.25,0,0,1,.88.17,1.61,1.61,0,0,1,.64.87,1.82,1.82,0,0,1,.11.87,1.58,1.58,0,0,1-.24.7,1.65,1.65,0,0,1-.42.48,6.43,6.43,0,0,1-1,.56l-.64.3.68,1.93-1,.46Zm-.51-4.72.51,1.46.54-.26a3.06,3.06,0,0,0,.76-.44.93.93,0,0,0,.22-.4.86.86,0,0,0,0-.45.64.64,0,0,0-.32-.39.72.72,0,0,0-.48,0,4.66,4.66,0,0,0-.72.3l-.48.22Z"/><path class="cls-3" d="M78,87.72l-5.17,2.21,0-5.7,1.1-.47,4.05,4Zm-1.8-.19-2.35-2.4L74,88.51l2.29-1Z"/><polygon class="cls-3" points="79.06 87.21 76.44 82.49 77.45 82.06 80.08 86.78 79.06 87.21 79.06 87.21"/><polygon class="cls-3" points="82.72 85.41 80.37 81.56 78.98 82.35 78.5 81.57 82.23 79.44 82.71 80.22 81.32 81.02 83.67 84.86 82.72 85.41 82.72 85.41"/><polygon class="cls-3" points="83.14 78.75 85.99 76.37 86.49 77.16 84.66 78.69 86.63 79.23 86.5 81.86 88.52 80.17 89.02 80.96 86.02 83.45 85.47 82.58 85.59 80.1 83.67 79.59 83.14 78.75 83.14 78.75"/><path class="cls-3" d="M93.86,76.28l-.9.86-1.06-.62-1.63,1.55.36,1.28-.88.84-1.54-5.73.83-.88,4.82,2.7Zm-2.74-.22L89.4,75l.6,2.09,1.12-1.06Z"/><polygon class="cls-3" points="90.85 71.27 93.06 68.25 93.65 68.98 92.24 70.92 94.15 71.13 94.5 73.92 96.06 71.77 96.66 72.51 94.34 75.68 93.68 74.86 93.35 72.23 91.48 72.05 90.85 71.27 90.85 71.27"/><path class="cls-3" d="M10.15,71.07l-.53-1,.64-1.31-1-1.9-1,.5-.52-1,4.69-2.09.52,1-2.78,5.84Zm.58-3.33,1.06-2.11-1.72.82.66,1.29Z"/><polygon class="cls-3" points="10.97 72.12 14.35 67.79 14.91 68.67 13.83 73.39 16.08 70.5 16.62 71.34 13.24 75.66 12.66 74.76 13.71 70.13 11.51 72.95 10.97 72.12 10.97 72.12"/><path class="cls-3" d="M17.7,80.21l-.83-.83.38-1.28-1.51-1.51-1,.65-.81-.81,4.6-2.72.8.8-1.61,5.7Zm-.17-3.06.64-2.07-1.67,1,1,1Z"/><polygon class="cls-3" points="21.5 76.61 24.26 78.68 23.72 79.36 21.83 77.93 19.21 81.65 18.4 81 21.5 76.61 21.5 76.61"/><polygon class="cls-3" points="21.76 83.4 25.13 79.15 28.44 80.91 27.89 81.64 25.51 80.37 24.77 81.32 26.96 82.48 26.39 83.2 24.2 82.03 23.28 83.19 25.73 84.49 25.18 85.21 21.76 83.4 21.76 83.4"/><polygon class="cls-3" points="26.49 85.86 29.31 81.28 30.27 81.72 30.37 85.68 32.26 82.62 33.17 83.04 30.34 87.61 29.36 87.16 29.24 83.29 27.4 86.27 26.49 85.86 26.49 85.86"/><polygon class="cls-3" points="31.58 88.11 34.54 83.63 35.51 84.06 35.53 87.94 37.52 84.95 38.44 85.36 35.47 89.84 34.47 89.4 34.43 85.6 32.5 88.52 31.58 88.11 31.58 88.11"/><polygon class="cls-3" points="36.88 90.61 39.83 86.11 40.8 86.58 39.63 88.35 41.53 89.28 42.69 87.51 43.66 87.98 40.71 92.48 39.74 92 41.03 90.04 39.13 89.11 37.85 91.08 36.88 90.61 36.88 90.61"/><polygon class="cls-3" points="44.8 88.65 48.04 90.44 47.55 91.18 45.48 90.03 45.79 92.06 43.44 92.87 45.73 94.14 45.24 94.88 41.85 93 42.39 92.18 44.61 91.4 44.28 89.44 44.8 88.65 44.8 88.65"/><polygon class="cls-3" points="46.82 95.88 49.09 91.13 49.95 91.78 49.06 93.65 50.74 94.92 51.63 93.06 52.49 93.71 50.22 98.46 49.36 97.8 50.35 95.73 48.67 94.45 47.68 96.53 46.82 95.88 46.82 95.88"/><path class="cls-4" d="M60.91,55.55a6.59,6.59,0,0,0-2.11-2.21c-.19.07-.2.12-.39.19a5.7,5.7,0,0,1,2.34,2.11c.12,0,0,0,.16-.09Z"/><path class="cls-4" d="M68.37,42.07a9.19,9.19,0,0,1,.33,3.71c-.19.09-.21.24-.39.33a9.46,9.46,0,0,0-.07-3.78c.11,0,0-.21.13-.26Z"/><path class="cls-4" d="M70.64,33.87a7.45,7.45,0,0,1,.87,1.56l0,.74a10.67,10.67,0,0,0-.9-2c.1-.09,0-.2,0-.29Z"/><path class="cls-1" d="M67.51,41.16a.91.91,0,1,0,.91.91.91.91,0,0,0-.91-.91Z"/><path class="cls-1" d="M70.42,33.34a.75.75,0,1,0,.76.75.75.75,0,0,0-.76-.75Z"/><path class="cls-1" d="M60.91,55a.9.9,0,1,0,.9.9.9.9,0,0,0-.9-.9Z"/><path class="cls-4" d="M46.22,55.55a6.59,6.59,0,0,1,2.11-2.21c.19.07.2.12.39.19a5.7,5.7,0,0,0-2.34,2.11c-.12,0,0,0-.16-.09Z"/><path class="cls-4" d="M38.76,42.07a9.19,9.19,0,0,0-.33,3.71c.19.09.21.24.39.33a9.29,9.29,0,0,1,.08-3.78c-.12,0,0-.21-.14-.26Z"/><path class="cls-4" d="M36.49,33.87a7.45,7.45,0,0,0-.87,1.56l0,.74a10.67,10.67,0,0,1,.9-2c-.1-.09.05-.2,0-.29Z"/><path class="cls-1" d="M39.62,41.16a.91.91,0,1,1-.91.91.91.91,0,0,1,.91-.91Z"/><path class="cls-1" d="M36.71,33.34a.75.75,0,1,1-.76.75.75.75,0,0,1,.76-.75Z"/><path class="cls-1" d="M46.22,55a.9.9,0,1,1-.9.9.9.9,0,0,1,.9-.9Z"/></svg>