<?xml version="1.0" encoding="UTF-8"?>
<svg id="Calque_2" data-name="Calque 2" xmlns="http://www.w3.org/2000/svg" viewBox="0 0 586.2 586.2">
  <defs>
    <style>
      .cls-1 {
        fill: #000;
        stroke-width: 0px;
      }
    </style>
  </defs>
  <g id="Calque_1-2" data-name="Calque 1">
    <path class="cls-1" d="M154.54,112.44l-3.2,2.13,2.13,3.2,7.99-5.86-1.6-2.66c-4.26-.53-7.99-2.13-9.59-4.8-3.2-4.26-2.66-9.59,2.13-12.79,4.26-3.2,9.59-1.6,12.79,2.66,2.13,2.66,2.13,6.93,1.6,10.66l1.6,2.66,7.99-5.86-2.13-3.2-3.73,2.13c.53-3.73-.53-7.99-2.13-10.13-4.26-5.86-11.72-7.46-18.65-2.66s-7.99,12.79-3.73,18.65c1.6,2.66,4.8,4.8,8.53,5.86M254.2,51.16l3.2,21.32,4.8-.53-3.73-25.58-7.99.53.53,4.26h3.2ZM276.05,60.75c2.66,0,4.8-1.07,6.39-3.2.53,5.86-2.13,8.53-5.33,8.53-2.13,0-4.26-1.07-4.8-3.2l-3.73,1.6c1.07,4.26,5.33,5.86,9.59,5.86,5.86-.53,9.06-4.8,9.06-10.66v-3.73c-.53-7.46-4.26-12.79-11.19-12.79-6.39,1.07-9.59,5.33-9.06,10.13.53,5.33,4.26,7.46,9.06,7.46M276.05,47.43c2.66,0,4.8,1.6,5.33,4.26,0,.53.53,1.07.53,1.6-1.07,2.13-3.73,3.2-5.86,3.2-2.66,0-4.8-1.07-4.8-4.26,0-2.13,1.6-4.26,4.8-4.8M184.92,96.99l-8.53-15.99,22.38,9.06,3.73-2.13-11.72-22.92-4.26,2.13,8.53,16.52-22.92-9.06-3.2,1.6,11.72,22.92s4.26-2.13,4.26-2.13ZM227.55,69.81c2.66-.53,4.26-3.73,3.2-5.86-.53-2.66-3.73-4.26-5.86-3.2-2.66.53-4.26,3.73-3.2,5.86.53,2.66,3.2,4.26,5.86,3.2M470.03,156.68l22.38-5.33-12.26,19.18,3.2,4.26,14.92-23.98-3.2-4.8-27.71,6.39,2.66,4.26ZM512.66,204.1c-7.46,2.66-11.19,9.06-8.53,17.59,2.66,7.46,10.13,11.19,17.05,8.53,7.46-2.66,11.19-9.59,8.53-17.59-2.13-7.99-10.13-11.19-17.05-8.53M525.98,213.7c1.6,4.8-1.07,9.59-5.86,11.72-4.8,1.6-10.13-.53-11.72-5.33-1.6-5.33,1.07-9.59,5.86-11.19,4.8-2.13,10.13,0,11.72,4.8M134.83,134.83l-7.99-21.85,20.78,10.13,3.73-3.73-25.58-11.72-4.26,4.26,9.59,26.65s3.73-3.73,3.73-3.73ZM494.01,194.51l3.73-2.13-6.93-12.26,5.86-3.2,5.86,10.13,3.2-1.6-5.86-10.13,5.86-3.2,6.39,11.72,3.73-2.13-8.53-15.99-22.38,12.26,9.06,16.52h0ZM498.27,204.1l23.45-10.66-2.13-4.8-23.45,10.66,2.13,4.8ZM511.59,245.14l1.07,4.8,6.39-1.07,21.32,5.86-1.07-5.33-15.99-3.73,13.32-10.13-1.07-5.33-17.05,13.86s-6.93,1.07-6.93,1.07ZM516.39,280.84l10.66-.53v5.33l-10.13,7.46v5.86l12.79-9.06,12.79,7.99v-5.33l-11.19-6.93v-5.33l10.66-.53v-4.8l-26.11.53s.53,5.33.53,5.33ZM413.54,104.45l3.2-4.8,5.86,3.73c5.33,3.73,11.19,1.6,13.86-2.66s2.13-10.13-2.66-13.32l-10.13-6.93-14.39,21.32s4.26,2.66,4.26,2.66ZM425.79,86.33l4.8,3.2c3.2,2.66,3.2,5.86,1.6,8.53s-4.8,3.2-7.99,1.07l-4.8-3.2s6.39-9.59,6.39-9.59ZM358.65,69.81c2.66.53,5.33-.53,5.86-3.2s-.53-5.33-3.2-5.86-5.33.53-5.86,3.2c-1.07,2.13.53,5.33,3.2,5.86M392.75,81l12.79,6.39-4.8,9.59,4.26,2.13,11.72-22.92-4.26-2.13-4.8,10.13-13.32-6.93,4.8-10.13-4.26-2.13-11.19,22.92,4.26,2.13s4.8-9.06,4.8-9.06ZM431.12,117.24l4.26-2.13,10.13,8.53-1.6,4.8,3.73,3.2,8.53-26.65-3.2-3.73-25.05,12.79,3.2,3.2ZM451.91,106.58l-4.26,13.32-7.99-6.93,12.26-6.39ZM323.48,67.68c-2.13-.53-4.26-2.13-4.8-4.26l-4.26,1.6c1.07,4.26,4.26,5.86,8.53,6.39,5.86,1.07,10.13-2.66,10.66-6.93.53-5.33-2.66-8.53-7.46-9.59-1.6,0-3.2,0-4.8.53l1.6-6.39,10.66,1.6.53-4.26-14.39-2.13-3.2,12.26,3.2,2.13c1.07-.53,2.66-1.07,4.26-.53,2.66.53,4.8,2.13,4.26,5.33.53,3.2-1.6,4.8-4.8,4.26M454.57,138.02l7.99-7.46,3.73,4.26-3.2,12.79,3.73,4.26,3.73-15.45,14.92-2.13-3.73-3.73-12.79,1.6-3.2-4.26,7.99-7.46-3.2-3.73-19.18,17.59s3.2,3.73,3.2,3.73ZM310.15,65.55l-10.66-.53c5.33-3.2,10.66-8.53,10.66-14.39,0-4.26-2.66-7.99-8.53-7.99-5.33,0-9.06,3.2-9.06,7.99v1.07l4.26,1.07v-.53c0-2.66,1.6-5.33,4.8-4.8,2.66,0,4.26,1.6,4.26,4.26,0,5.33-7.46,11.19-13.32,14.39v3.2l18.12.53s-.53-4.26-.53-4.26ZM364.51,495.07l2.13,21.32-25.05,3.2-2.13-21.32-10.66,1.07,5.86,53.29,10.66-1.07-2.13-21.32,25.05-3.2,2.13,21.32,10.66-1.07-5.86-53.29-10.66,1.07ZM117.24,137.49l-2.66-2.13-7.46,8.53,2.66,2.13,7.46-8.53ZM293.1,99.65c-106.58,0-193.45,86.86-193.45,193.45s86.86,193.45,193.45,193.45,193.45-86.86,193.45-193.45-86.86-193.45-193.45-193.45M279.24,399.15h-1.6c-10.66-1.6-21.32-4.8-30.91-9.59l-.53-.53v-82.6h33.04s0,92.73,0,92.73ZM279.24,279.78h-33.04v-83.13l.53-.53c9.59-4.8,20.25-7.99,30.91-9.59h1.6s0,93.26,0,93.26ZM279.24,159.87h-1.07c-67.68,7.46-119.37,65.01-119.37,133.23s51.16,125.77,119.37,133.23h1.07v32.51h-1.6c-41.03-3.73-79.4-22.92-107.65-53.29-28.24-30.91-43.7-70.88-43.7-112.44s15.45-81.54,43.7-112.44c28.24-30.38,66.08-49.56,107.65-53.29h1.6v32.51ZM219.56,215.3v155.61l-2.13-2.13c-20.25-20.25-30.91-46.9-30.91-75.14s11.19-55.42,30.91-75.14l2.13-3.2ZM306.42,186.52h1.6c11.19,1.6,21.85,4.8,31.44,9.59l.53.53v83.13h-34.11v-93.26h.53ZM306.42,306.42h34.11v83.13l-.53.53c-10.13,4.8-20.78,7.99-31.44,9.59h-1.6v-93.26h-.53ZM415.67,406.08c-28.24,30.91-66.61,49.56-108.18,53.29h-1.6v-33.04h1.07c68.21-7.46,119.9-64.48,119.9-133.23s-51.69-125.77-119.9-133.23h-1.07v-32.51h1.6c41.57,3.73,79.4,22.38,108.18,53.29,28.24,30.91,44.23,70.88,44.23,112.98s-15.99,81.54-44.23,112.44M366.64,370.9v-155.61l2.13,2.13c20.25,20.25,30.91,46.9,30.91,75.14s-10.66,55.96-30.38,75.67c0,0-2.66,2.66-2.66,2.66ZM236.08,494.54c-14.92-3.73-29.84,5.33-34.11,19.72-3.73,14.92,5.33,29.84,19.72,34.11,2.13.53,4.8,1.07,6.93,1.07,4.8,0,9.59-1.07,13.86-3.73,6.39-3.73,11.19-9.59,12.79-17.05,4.8-14.92-4.26-30.38-19.18-34.11M245.67,525.45c-2.13,9.06-11.72,14.39-20.25,12.26-9.06-2.13-14.39-11.72-12.26-20.25,2.13-7.46,9.06-12.79,16.52-12.79,1.6,0,2.66,0,4.26.53,8.53,2.13,13.86,11.19,11.72,20.25M298.43,502.53v-5.33h-10.66v5.33c-12.79,2.66-22.38,13.86-22.38,27.18s9.59,24.51,22.38,27.18v5.33h10.66v-5.33c12.79-2.66,22.38-13.86,22.38-27.18s-9.59-24.51-22.38-27.18M287.77,545.7c-6.39-2.13-11.19-8.53-11.19-15.99s4.8-13.86,11.19-15.99v31.97ZM298.43,545.7v-31.97c6.39,2.13,11.19,8.53,11.19,15.99.53,7.46-4.26,13.86-11.19,15.99M516.39,308.02l5.86.53-.53,6.93c-.53,6.39,4.26,10.66,9.06,11.19,4.8.53,10.13-3.2,10.66-8.53l1.07-12.26-25.58-2.66s-.53,4.8-.53,4.8ZM525.98,314.95l.53-5.86,11.19,1.07-.53,5.86c-.53,4.26-3.73,5.86-6.39,5.33-2.66,0-5.33-2.13-4.8-6.39M86.33,408.74c-6.39,4.26-9.06,11.72-4.26,19.18,4.26,6.93,12.79,8.53,19.18,4.26,6.39-4.26,8.53-11.72,3.73-18.65-4.26-7.46-12.26-9.06-18.65-4.8M98.59,427.93c-4.26,2.66-10.13,2.13-12.79-2.66-2.66-4.26-1.07-10.13,3.2-12.79,4.26-2.66,9.59-2.13,12.79,2.66,2.66,4.8,1.07,10.13-3.2,12.79M293.1,0C131.1,0,0,131.1,0,293.1s131.1,293.1,293.1,293.1,293.1-131.1,293.1-293.1S455.1,0,293.1,0M293.1,572.88c-154.54,0-279.78-125.23-279.78-279.78S138.56,13.32,293.1,13.32s279.78,125.23,279.78,279.78-125.23,279.78-279.78,279.78M498.27,383.16l9.59,4.8-5.86,12.79-9.59-4.8-2.13,4.26,23.45,11.19,2.13-4.26-10.13-4.8,5.86-12.79,10.13,4.8,2.13-4.26-23.98-11.72-1.6,4.8ZM525.98,370.37l-20.78-6.93-1.6,4.8,20.78,6.93-2.13,6.93,4.26,1.6,6.39-18.65-4.26-1.6s-2.66,6.93-2.66,6.93ZM513.19,334.13l10.66,2.13-3.2,13.86-10.66-2.13-1.07,4.8,25.58,5.33,1.07-4.8-10.66-2.13,3.2-13.86,10.66,2.13,1.07-4.8-25.58-5.33s-1.07,4.8-1.07,4.8ZM494.01,417.8l-3.73-10.66-3.2-2.13-10.66,16.52,3.73,2.66,7.46-11.19,3.2,10.13,11.19-1.07-6.93,11.19,3.73,2.13,10.13-15.99-3.2-2.13-11.72.53ZM83.67,214.76l-24.51-9.06-1.6,4.8,24.51,9.06s1.6-4.8,1.6-4.8ZM59.69,251.53c6.93,1.6,10.66-2.66,12.79-10.13l3.2.53,1.07-4.8-3.2-.53c1.6-7.46,0-13.32-6.39-14.92s-11.19,3.2-12.79,10.13l-2.66-.53-1.07,4.8,2.66.53c-2.13,6.93-.53,12.79,6.39,14.92M66.08,225.95c4.26,1.07,4.8,4.8,3.2,9.59l-11.19-2.66c1.6-5.86,4.26-7.99,7.99-6.93M57.02,237.14l11.19,2.66c-1.07,4.8-3.2,7.46-7.46,6.39-3.73-.53-4.8-3.73-3.73-9.06M87.4,205.7l-15.45-17.05,22.92,1.6,2.13-4.8-28.24-1.6-2.66,5.33,18.65,20.78,2.66-4.26ZM103.38,151.35c5.86,4.8,13.86,4.8,19.18-1.6s4.26-14.39-1.6-19.18c-5.86-4.8-13.86-4.8-19.18,1.6-5.33,5.86-4.26,14.39,1.6,19.18M104.98,134.83c3.2-4.26,9.06-4.26,12.79-.53,3.73,3.2,4.8,8.53,1.07,12.79-3.73,4.26-9.06,4.26-12.79,1.07-3.73-3.73-4.8-9.06-1.07-13.32M100.72,179.06l-2.66-4.26,7.46-11.19,4.8,1.07,2.66-4.26-27.71-5.33-3.2,4.8,15.99,23.45s2.66-4.26,2.66-4.26ZM87.4,159.87l13.86,2.66-5.86,9.06-7.99-11.72ZM57.02,287.77l8.53,7.46h3.73l.53-19.72h-4.26l-.53,13.32-7.99-6.93-9.06,6.39.53-13.32h-4.26l-.53,19.18h3.73s9.59-6.39,9.59-6.39ZM92.73,393.29l-19.18,8.53,15.45-17.05-1.6-3.73h-22.92l19.18-8.53-2.13-4.8-23.98,10.66,3.2,6.93h21.32l-14.92,15.99,3.2,6.93,23.98-10.66s-1.6-4.26-1.6-4.26ZM76.21,347.46l-22.92-4.26,19.18-12.79-1.07-5.33-22.92,15.99,1.07,5.86,27.71,5.33s-1.07-4.8-1.07-4.8ZM78.87,357.05l-24.51,7.46,1.6,4.8,24.51-7.46s-1.6-4.8-1.6-4.8ZM58.62,326.14c7.46-.53,13.32-6.39,12.26-14.92-.53-7.99-6.93-13.32-14.39-12.79s-13.32,6.39-12.79,14.92,6.93,13.32,14.92,12.79M47.96,313.35c-.53-5.33,3.73-9.06,8.53-9.59,5.33-.53,9.59,2.66,10.13,7.99.53,5.33-3.2,9.06-8.53,9.59s-9.59-2.66-10.13-7.99"/>
  </g>
</svg>