<?xml version="1.0" encoding="iso-8859-1"?>
<svg xmlns="http://www.w3.org/2000/svg" width="60" height="60" xmlns:v="https://vecta.io/nano"><path d="M30 0h19a.64.64 0 0 1 .62.71v.32a17.94 17.94 0 0 0 .71 5 16.93 16.93 0 0 0 1 2.67 17.3 17.3 0 0 0 1.94 3.12l1 1.19a.71.71 0 0 1 0 1 15.66 15.66 0 0 0-2.87 4 16.75 16.75 0 0 0-1.55 4.65 18.45 18.45 0 0 0-.25 2.21v1.67a17 17 0 0 0 1.57 6.6A16.2 16.2 0 0 0 52.8 36a14.62 14.62 0 0 0 1.2 1.49c.38.4.79.77 1.2 1.14a.73.73 0 0 1 .21.67 11.54 11.54 0 0 1-.35 1.7l-.33 1a11.33 11.33 0 0 1-.58 1.22 15 15 0 0 1-1 1.6A14.47 14.47 0 0 1 52 46.06a13.55 13.55 0 0 1-2 1.66c-.84.59-1.73 1.1-2.6 1.64l-2.26 1.41-2.42 1.49-2 1.25-1.82 1.16-1.27.78-2.29 1.43-2.2 1.35-2.47 1.53a1.22 1.22 0 0 1-.44.22 1 1 0 0 1-.77-.15l-1.42-.87-1.81-1.13L24.9 57l-1.77-1.09-2.79-1.71-2.72-1.69L15.18 51l-3.11-1.92-2.23-1.42a15 15 0 0 1-1.62-1.36 12.72 12.72 0 0 1-1.33-1.51 11 11 0 0 1-1-1.58 11.92 11.92 0 0 1-1.27-3.65 1.09 1.09 0 0 1 0-.62.67.67 0 0 1 .2-.32 16.76 16.76 0 0 0 1.47-1.45 15.3 15.3 0 0 0 1.43-1.86 15.81 15.81 0 0 0 1.23-2.25A16.6 16.6 0 0 0 10 29.83a19.09 19.09 0 0 0 .38-2.61 19.68 19.68 0 0 0 0-2 16.65 16.65 0 0 0-.9-5A16.93 16.93 0 0 0 8 17a13.85 13.85 0 0 0-1.26-1.8c-.34-.43-.74-.83-1.07-1.2a.64.64 0 0 1 0-.84l.61-.68A13.21 13.21 0 0 0 7.38 11a18.49 18.49 0 0 0 1.16-2 20.73 20.73 0 0 0 .9-2.12 17.77 17.77 0 0 0 .87-3.87 16.72 16.72 0 0 0 .1-2.24 1.45 1.45 0 0 1 .06-.41.55.55 0 0 1 .36-.35 1.33 1.33 0 0 1 .45-.01H30zm24.83 39.13l-.73-.69a14.82 14.82 0 0 1-1.26-1.37 17.16 17.16 0 0 1-1.28-1.79 17 17 0 0 1-1.2-2.28 18.58 18.58 0 0 1-.93-2.88 17.47 17.47 0 0 1-.43-3.49 19.66 19.66 0 0 1 .16-3.25 18.08 18.08 0 0 1 1.05-4.09 16.61 16.61 0 0 1 1.54-3 15.35 15.35 0 0 1 1.9-2.42c.1-.1.18-.21.27-.3A18.13 18.13 0 0 1 48.94.64H11.06a18.1 18.1 0 0 1-4.93 12.9l.28.32a14.94 14.94 0 0 1 1.4 1.69 16.15 16.15 0 0 1 1.54 2.63 17.19 17.19 0 0 1 1.34 4.05 17.77 17.77 0 0 1 .31 2.71 21.44 21.44 0 0 1 0 2.66 18.21 18.21 0 0 1-.54 3 17.33 17.33 0 0 1-1.19 3.2 13.71 13.71 0 0 1-.86 1.54 15.24 15.24 0 0 1-1.9 2.48l-.34.37-1 .92a6.62 6.62 0 0 0 .2 1.08 11.63 11.63 0 0 0 .44 1.38 10.69 10.69 0 0 0 .77 1.6 13 13 0 0 0 1.46 2 13.78 13.78 0 0 0 2.2 2c.69.49 1.42.91 2.14 1.36l3.12 1.93L18 52l2.61 1.62L23 55.11l2.43 1.51 2.78 1.72 1.56 1a.42.42 0 0 0 .33.06l2-1.25 3.13-1.93 3.24-2 3-1.84L44 50.79l2.49-1.54 1.69-1a20.84 20.84 0 0 0 2.11-1.4A13.38 13.38 0 0 0 52 45.12a12.64 12.64 0 0 0 1.71-2.51 10.74 10.74 0 0 0 .62-1.48 11.13 11.13 0 0 0 .39-1.48 1.91 1.91 0 0 0 .11-.52z" fill="#d20d13"/><path d="M54.83 39.13a1.91 1.91 0 0 1-.07.52 11.13 11.13 0 0 1-.39 1.48 10.74 10.74 0 0 1-.62 1.48A12.64 12.64 0 0 1 52 45.12a13.38 13.38 0 0 1-1.77 1.68 20.84 20.84 0 0 1-2.11 1.4l-1.69 1L44 50.79l-2.51 1.55-3 1.84-3.24 2-3.13 1.93-2 1.25a.42.42 0 0 1-.33-.06l-1.56-1-2.78-1.72L23 55.11l-2.41-1.48L18 52l-2.51-1.55-3.12-1.93-2.14-1.36a13.78 13.78 0 0 1-2.2-2 13 13 0 0 1-1.46-2 10.69 10.69 0 0 1-.77-1.6 11.63 11.63 0 0 1-.44-1.38 6.62 6.62 0 0 1-.2-1.08l1-.92.34-.37a15.24 15.24 0 0 0 1.9-2.48 13.71 13.71 0 0 0 .86-1.54 17.33 17.33 0 0 0 1.19-3.2 18.21 18.21 0 0 0 .54-3 21.44 21.44 0 0 0 0-2.66 17.77 17.77 0 0 0-.34-2.71 17.19 17.19 0 0 0-1.34-4.05 16.15 16.15 0 0 0-1.54-2.63 14.94 14.94 0 0 0-1.4-1.69c-.1-.1-.19-.22-.28-.32A18.1 18.1 0 0 0 11.06.64h37.88a18.13 18.13 0 0 0 4.94 12.9c-.09.09-.17.2-.27.3a15.35 15.35 0 0 0-1.9 2.42 16.61 16.61 0 0 0-1.54 3 18.08 18.08 0 0 0-1.05 4.09 19.66 19.66 0 0 0-.12 3.28 17.47 17.47 0 0 0 .47 3.45 18.58 18.58 0 0 0 .89 2.92 17 17 0 0 0 1.2 2.32 17.16 17.16 0 0 0 1.28 1.79 14.82 14.82 0 0 0 1.26 1.37c.24.18.48.4.73.65z" fill="#fffefe"/><g fill="#d20d13"><path d="M31.08 12.69a.86.86 0 0 1 .53.65.66.66 0 0 0 .58.6.16.16 0 0 1-.06.2.45.45 0 0 0-.11.37 1 1 0 0 1 0 .24.78.78 0 0 0 .32.67.91.91 0 0 1 .43.85.86.86 0 0 0 .22.27 1.17 1.17 0 0 1 .3.4l.28.6a2.53 2.53 0 0 1 .2.81.49.49 0 0 0 .05.2 2.25 2.25 0 0 1 .31 1.19 3 3 0 0 0 .47 1.51l3.81 6a26 26 0 0 1 1.92 3.42 13 13 0 0 1 1 3.5 11 11 0 0 1 .12 2.49 15.8 15.8 0 0 1-.26 1.83l-.33 1.53a3.14 3.14 0 0 1-.54 1.12.56.56 0 0 1-.38.23 1.93 1.93 0 0 1-.41 0h-11-1.24a.24.24 0 0 1-.21-.2.72.72 0 0 1 .1-.62l.32-.38.79-.83a1.2 1.2 0 0 1 1.35-.34 3.3 3.3 0 0 0 1.72.36 1 1 0 0 0 .38-.09.65.65 0 0 0 .33-.89 1.94 1.94 0 0 0-.15-.24c-.4-.54-.86-1-1.3-1.52a9.49 9.49 0 0 1-1.25-1.71 4 4 0 0 1-.4-1.09 1.1 1.1 0 0 0-.41-.66 3.64 3.64 0 0 1-.46-.42 2.21 2.21 0 0 0-.45-.4c0 .3-.06.59-.09.88s0 .74 0 1.12a13 13 0 0 1-.6 3.33 15.7 15.7 0 0 0-.61 2.88v.37c0 .29-.14.39-.43.4h-.58H19a.71.71 0 0 1-.72-.64 1.25 1.25 0 0 1 .59-1.33 1 1 0 0 0 .34-.32 1.28 1.28 0 0 1 1.39-.52 5 5 0 0 1 .66.19.56.56 0 0 0 .65-.2 1.82 1.82 0 0 0 .42-1.74 8 8 0 0 1-.21-1.19 2.14 2.14 0 0 1 .09-.94l.2-.59a3.92 3.92 0 0 0 .24-1.35v-4.58a8.55 8.55 0 0 0-.07-1 2.06 2.06 0 0 0-.71-1.41.88.88 0 0 1-.36-.65l-.08-.1a.7.7 0 0 1-.16-.6 1.11 1.11 0 0 1 .07-.26.57.57 0 0 0 0-.54.8.8 0 0 1 0-.59 2 2 0 0 1 .34-.71.39.39 0 0 0 .09-.37.87.87 0 0 1 .14-.75l.41-.6c.14-.2.06-.09.09-.15a4.22 4.22 0 0 0-.29-.37 1.66 1.66 0 0 0 .83-.93l-.73.06a2.68 2.68 0 0 1-.8 0 1.09 1.09 0 0 1-.62-.32 8.17 8.17 0 0 1-.6-.72.85.85 0 0 1-.13-.9.54.54 0 0 0 .05-.11V17a1.69 1.69 0 0 1-.74-1.37l-.28-.09a.8.8 0 0 1-.44-1.19 9.13 9.13 0 0 1 .62-.91 5.55 5.55 0 0 1 .94-1 2.2 2.2 0 0 0 .31-.3.73.73 0 0 0 .16-.42 1.31 1.31 0 0 1 .47-1h0a4 4 0 0 0 1.14-1.41.88.88 0 0 1 .18-.25.75.75 0 0 1 .25-.06 6.26 6.26 0 0 0 .87-.4 3 3 0 0 1 1.62-.3.92.92 0 0 0 .33 0 1.57 1.57 0 0 1 1 .05.82.82 0 0 0 .38 0 1.92 1.92 0 0 1 1.7.55 1.89 1.89 0 0 0 .59.41 1.87 1.87 0 0 1 1 1.27 3.5 3.5 0 0 1 .11.66.37.37 0 0 0 .18.3 1.09 1.09 0 0 1 .52 1 .28.28 0 0 0 .05.15zm-4.23-.54a2 2 0 0 0 .95-.93c.1-.19.05-.31-.14-.41a.83.83 0 0 0-.56-.05 1.63 1.63 0 0 0-1.06.85l.74-.4s.09-.07.15 0a5.32 5.32 0 0 1-.36.47 2.47 2.47 0 0 0-.33.49l.82-.5a1.35 1.35 0 0 1-.18.36s-.07.07 0 .12 0 0 0 0zm7.62 18.47h.07a4.81 4.81 0 0 1 1 1.44.28.28 0 0 0 .1.17.49.49 0 0 0 0-.27 3.72 3.72 0 0 0-.85-1.48 3.25 3.25 0 0 0-3.23-1 2.89 2.89 0 0 0-2.3 1.77 3 3 0 0 0-.18.71c.15-.15.19-.34.35-.48l-.11.74a.2.2 0 0 0 .09-.1l.52-1a2.06 2.06 0 0 1 2.28-1l.73.16a2.72 2.72 0 0 1 1.61.92h.06l-.14-.63zM24.3 15.85h0s-.08-.18-.06-.29a1.77 1.77 0 0 1 .33.19v.11a17.19 17.19 0 0 0-.41 1.72 6.84 6.84 0 0 1-.35 1.17A2.55 2.55 0 0 1 22.77 20h0c0 .06.11.07.14.14a1.81 1.81 0 0 1-.31.6 2.34 2.34 0 0 0-.36.58.59.59 0 0 0-.07.38l.56-.33a.3.3 0 0 1-.09.24 5.39 5.39 0 0 1-.47.6 1.07 1.07 0 0 0-.32.95 1.88 1.88 0 0 1 0 .82 1.62 1.62 0 0 0 0 .19.47.47 0 0 0 .13.44.15.15 0 0 1 .05.07.22.22 0 0 1 0 .14.54.54 0 0 0 .23.55 1 1 0 0 1 .34.43l.31.61a2 2 0 0 1 .22.92v.75l.06 4.14a5.85 5.85 0 0 1 0 .73 4.53 4.53 0 0 1-.32 1.16 3.62 3.62 0 0 0-.1 2.23 4.92 4.92 0 0 1 .17.85 2 2 0 0 1-.6 1.62.92.92 0 0 1-1 .24C21.11 39 21 39 20.83 39a1 1 0 0 0-1 .28 3.79 3.79 0 0 1-.54.45 1.19 1.19 0 0 0-.45.54.31.31 0 0 0 0 .22l.49-.19a.37.37 0 0 0 .21-.2 1.31 1.31 0 0 1 .88-.66.25.25 0 0 1 .22 0 1.61 1.61 0 0 0-.68 1.11l.55-.44c.06.11 0 .18 0 .26s.13 0 .19 0a2.62 2.62 0 0 1 .39-.15 3.53 3.53 0 0 0 .89-.33l.65-.3a1.72 1.72 0 0 0 .37-.89 5.75 5.75 0 0 0 .21-1.7c0-.5-.1-1-.15-1.49a1.12 1.12 0 0 1 .15-.72h.14a.83.83 0 0 0 .16-.21 2.11 2.11 0 0 1 .2-.29.56.56 0 0 0 .15-.31.83.83 0 0 0-.14-.71c.25-.18.52-.32.58-.65.13 0 .18-.13.22-.24a1.93 1.93 0 0 0 .1-.82 1.54 1.54 0 0 1 .16-.79c.33-.66.24-.46.25-1.13v-.51c.12 0 .19 0 .27.05.35 0 .51-.08.51-.43a1.55 1.55 0 0 0-.33-1c-.07-.08-.13-.17-.21-.28a.76.76 0 0 1 .44.21 2 2 0 0 1 .36.45 3.46 3.46 0 0 1 .56 1.52c0 .31-.05.43-.37.44.1.27.23.54.06.82 0 0-.11 0-.13.07s.15.43.23.64a3.81 3.81 0 0 1 .23 1.74 12.14 12.14 0 0 1-.43 2.24c0 .08-.07.16-.05.22a.41.41 0 0 1-.06.34 7.76 7.76 0 0 1-.66 1.15.67.67 0 0 1-.2.18c0 .45-.06.58-.22.75s0 .41-.29.47v.1a2.09 2.09 0 0 0 .5 1.42.63.63 0 0 0 .26.2.26.26 0 0 0 .39-.14 1.87 1.87 0 0 0 .07-.22c.17-1.13.46-2.24.74-3.35a11.79 11.79 0 0 0 .36-1.72l.25-3.46a5.28 5.28 0 0 1 .11-.89 19.75 19.75 0 0 1 .58-2.08l.65-1.93a1.78 1.78 0 0 0-.05-1.32l-.39-1a1.76 1.76 0 0 1-.16-.49h0l.53.67a5.71 5.71 0 0 1 .87 1.41l.55 1.28a5.66 5.66 0 0 1 .43 1.58l.3-.38.85-1.21a2.13 2.13 0 0 1 .75-.65 1.22 1.22 0 0 1 1.4.13 2.92 2.92 0 0 1 .42.44l.12.15a1.1 1.1 0 0 0 0-.16 11.11 11.11 0 0 1 .08-1.16 2.59 2.59 0 0 1 .17-.73c.09-.21.19-.25.39-.15a4.08 4.08 0 0 1 1.27.86 1.77 1.77 0 0 1 .26.35.94.94 0 0 0-.09.12.49.49 0 0 0 .1.73.55.55 0 0 0 .35.12.39.39 0 0 1 .39.24l.44.9 1.39 3.16 1.75 4.18.18.5a1.31 1.31 0 0 0 0-.32 12.3 12.3 0 0 0-.25-2.09 15 15 0 0 0-1.72-4.52l-2.18-3.64q-.52-.89-1.11-1.74l-1.54-2.39a3.67 3.67 0 0 1-.5-1.83 1.82 1.82 0 0 0-.16-.76 1.94 1.94 0 0 1-.2-.66 2.57 2.57 0 0 0-.4-1.1.84.84 0 0 0-.43-.4.48.48 0 0 1-.25-.14.36.36 0 0 0 0-.1.52.52 0 0 0-.28-.68 2 2 0 0 0-1-.31h-.1c-.01 0 .11-.09.13-.16-.17-.07-.36 0-.53-.1.06-.11.18-.14.24-.24h-.46l.6-.62a5.85 5.85 0 0 0-.56.28l-.54.28c.05.1.16.09.18.19a1.64 1.64 0 0 0-1.57.63c.29-.08.56-.23.85-.3h0c0 .07-.12.12-.15.22a.8.8 0 0 0 .46-.07l.5-.19a.71.71 0 0 1 .44 0c-.11.18-.29.3-.37.5a.87.87 0 0 1 .81-.07v.08a1 1 0 0 1 .76 0l-.39.23c.17.07.36.08.48.22a.53.53 0 0 1 0 .52 1.27 1.27 0 0 0-.86 0 2.29 2.29 0 0 0-.74.46 1.54 1.54 0 0 1 0-1.1h-.05l-.54.68h0v-.66c-.08 0-.1.08-.17.05s0-.13-.06-.19a.94.94 0 0 1-.53.37l-.82.3a2.75 2.75 0 0 0-1.13.63h0A2.51 2.51 0 0 1 27 17l-1.23.39a3.54 3.54 0 0 1 1.54-1 2.28 2.28 0 0 0-1.86.95v-.32l-.48.39a5.63 5.63 0 0 1-.07-.9c-.1 0-.12.14-.22.16a1.92 1.92 0 0 1 .68-1.33c0 .11-.06.21 0 .32s0 0 0 0l.13-.08.6-.48s.07-.08.14 0c-.07.2-.23.35-.32.58l.47-.21c0 .1-.08.15-.07.23s0 0 0 0l.4-.26a2.58 2.58 0 0 1 .7-.36 1.68 1.68 0 0 1 .65-.09 1.93 1.93 0 0 0-.34.63l1-.62a1.41 1.41 0 0 0-1.35-.21l-.66.24a.09.09 0 0 1-.06-.06 1.75 1.75 0 0 1 1-.53 2 2 0 0 0 .63-.21 1.35 1.35 0 0 0 .66-.71 4.32 4.32 0 0 1-1.6.7c.08-.13.17-.24.26-.36s.21-.21.23-.38c-.38.26-.72.56-1.11.86a3.65 3.65 0 0 1 .47-1.22 1.4 1.4 0 0 0-.79 1.12 1.36 1.36 0 0 1-.06.33 3 3 0 0 1-.6.36h0v-.15l.26-.58v-.11c-.15.15-.22.37-.4.56v-.5a.58.58 0 0 0-.13-.47 2 2 0 0 1-.63 1.71 1.64 1.64 0 0 0-.84-1.23 1.45 1.45 0 0 1 .51.11 4.16 4.16 0 0 0 .48.26c0-.09-.07-.15-.09-.21a5.42 5.42 0 0 1-.22-.56h0c.08 0 .12 0 .18.06a2 2 0 0 0 .36.19 1.45 1.45 0 0 0-.42-.78 1.52 1.52 0 0 1-.37-.57l-.2-.45c-.06-.15-.06-.08 0-.15l.63.34h0v-.18c0-.07.19.15.32.17a.92.92 0 0 0 0-.46.79.79 0 0 1 .08-.62l.15-.32a.75.75 0 0 0-.37-1A1.14 1.14 0 0 0 24 10a.47.47 0 0 1-.22.09.26.26 0 0 1-.16-.1.4.4 0 0 0-.4-.11 1.19 1.19 0 0 1-.26 0h0 0a.65.65 0 0 1 .76-.24.5.5 0 0 0 .49 0 1.18 1.18 0 0 1 1-.06 1.81 1.81 0 0 1 .57.37c0 .05.1.13.2.14 0-.39-.27-.62-.51-.89a1.36 1.36 0 0 1 .88.5l.31-.57a.87.87 0 0 1-.12.82.86.86 0 0 0-.14.69.73.73 0 0 1 .48-.32 1.68 1.68 0 0 0 .86-.43c.05 0 .1-.11.19-.11a1.64 1.64 0 0 0 0 .44c.19-.07.31-.21.5-.26 0 .17-.07.33 0 .51l.76-.27c0 .11-.06.19 0 .28s.14-.1.22-.07 0 .24 0 .37h.15c.26-.13.3-.28.14-.51a1.24 1.24 0 0 0-.65-.5 1.23 1.23 0 0 1-.55-.32 1.64 1.64 0 0 0-1.3-.53 1.45 1.45 0 0 1-.47-.08 1.93 1.93 0 0 0-1.09-.06.61.61 0 0 1-.27 0 2.6 2.6 0 0 0-1.54.22 6 6 0 0 1-.82.36.65.65 0 0 0-.45.39 3.11 3.11 0 0 1-.32.53l-.23.35a.51.51 0 0 1-.31.28.92.92 0 0 0-.58.66.27.27 0 0 0 0 .26.22.22 0 0 0 .26-.12 3.22 3.22 0 0 1 .24-.28.53.53 0 0 1 .38-.16 1.1 1.1 0 0 0 .78.69.58.58 0 0 1 .11.28.41.41 0 0 1-.27.16 2 2 0 0 0-.77.44.15.15 0 0 1-.13.08l-.6-.16.31-.5a1.26 1.26 0 0 0-.34-.15.27.27 0 0 0-.16.11 1.92 1.92 0 0 1-.46.44A7.32 7.32 0 0 0 19 14.45v.05c0 .05 0 0 0 0a1.92 1.92 0 0 0 .31-.11.66.66 0 0 1 .44 0l-.21.56h0a1.7 1.7 0 0 1 .91-.47 3 3 0 0 0-.28.88.43.43 0 0 0 .22.5c.33 0 .43-.27.53-.53.16.1.27.24.43.33a2 2 0 0 1 0-.35l.49.33c.06 0 0-.11.07-.14l.85.36A1 1 0 0 1 23 16c.19.13.21.27.08.47-.06 0-.08-.07-.14-.05a.6.6 0 0 1-.59.38l-.51.07c-.22 0-.44.07-.67.07l-.17-.38-.07.26a.62.62 0 0 1-.07.23c-.09 0-.13-.08-.21-.08-.3.29-.37.6-.17.82.07-.06 0-.18.12-.24.08.1.1.23.21.32.06-.12.05-.25.14-.35.07.06.06.13.08.19a.69.69 0 0 0 .23.37.58.58 0 0 0 .66.07.26.26 0 0 0 .12-.37 1 1 0 0 0-.14-.22s-.1-.09-.09-.17a3.39 3.39 0 0 0 .93-.26 1.19 1.19 0 0 0 .6-.72c.12 0 .18.14.3.14a1.1 1.1 0 0 0-.12-.54c0-.07-.1-.12-.06-.21h0c.17 0 .28.16.44.2s-.06-.18 0-.27.25.12.4.12zm6.8 16.95a2.35 2.35 0 0 0 .72 1.35l2.2 2 1.86 1.53a3.68 3.68 0 0 1 1.24 1.67s0 .08.08.09v-.43a1.44 1.44 0 0 0-.41-1l-.25-.27-4.23-4.37a.73.73 0 0 1-.14-.16 2.91 2.91 0 0 1-.35-1.56v-.25a7 7 0 0 0-.72 1.4zm4.16 7.26c.05.24.05.24-.18.78l1.12.06a.11.11 0 0 0 .08 0 .41.41 0 0 0 .3-.36.31.31 0 0 0-.15-.38.42.42 0 0 1-.16-.21l-.27-.43-1.15.48a.57.57 0 0 1-.09-.22.83.83 0 0 0-.12-.27.6.6 0 0 1-.12-.64 1.45 1.45 0 0 0-.61-1.54.34.34 0 0 0-.23-.09c0 .12.1.22.08.33a1.83 1.83 0 0 0 0 .47 5.76 5.76 0 0 1-.07 1.1.44.44 0 0 1-.4.39 4.87 4.87 0 0 1-.66 0 .72.72 0 0 0-.65.4 1.06 1.06 0 0 0 .25-.09.72.72 0 0 1 .38-.07 2 2 0 0 0 1.32-.3.36.36 0 0 1 .26-.1 1 1 0 0 1 .28.55 3.72 3.72 0 0 1 0 .69zm-6.76.76a.77.77 0 0 0 .4-.35 2.69 2.69 0 0 1 .34-.49.58.58 0 0 1 .49-.23 1.33 1.33 0 0 1 .87.42.28.28 0 0 0 .23.15.24.24 0 0 0 .14 0 .35.35 0 0 0 .17-.31c0-.15-.15-.18-.26-.21l-1.56-.43a.58.58 0 0 0-.61.14l-.78.72a2.08 2.08 0 0 0-.27.32.21.21 0 0 0-.05.19.35.35 0 0 0 .5-.1l.42-.49s0-.09.11-.07.05.06 0 .1a1.62 1.62 0 0 1-.1.18.54.54 0 0 0-.04.46zM28.44 12a.9.9 0 0 0 .75-.64.35.35 0 0 0-.2-.43.37.37 0 0 0-.31.06c-.19-.07-.32-.23-.54-.29a1.19 1.19 0 0 1-.17.83 4 4 0 0 1-.6.65 1.77 1.77 0 0 0 .73-.28 6.4 6.4 0 0 0 .51-.4s.06-.08.14 0-.1.16-.14.24zm1.68 1.94c-.83.56-.83.56-1.05.57l.37-.44h0l-.93.51a1.61 1.61 0 0 0 .69.27.72.72 0 0 0 .78-.4 1.23 1.23 0 0 0 .14-.54zM29.79 12c.25-.36.12-.69-.32-.84a1.52 1.52 0 0 1 0 .56c-.05.17-.14.34-.21.54.23-.12.32-.35.48-.5.03.04.01.12.05.24zm-7.9.45a.93.93 0 0 0 .48-.2 1.37 1.37 0 0 0-.51-.44c-.14.24-.13.46.03.61zm-.28 3.8a.73.73 0 0 0-.3.06 1 1 0 0 0 .12.33zm-1.76 26.68h-1.93a.34.34 0 0 1-.35-.36v-.67a.34.34 0 0 1 .33-.35h3.94a.33.33 0 0 1 .32.32v.74a.33.33 0 0 1-.31.31h-2zm9.58 0h-1.95a.35.35 0 0 1-.34-.34v-.71a.34.34 0 0 1 .31-.33h3.93a.35.35 0 0 1 .36.34v.71c0 .24-.15.34-.4.34h-1.91zm4.79 0h-2a.35.35 0 0 1-.33-.34v-.71a.34.34 0 0 1 .31-.33h3.95a.34.34 0 0 1 .34.33v.71a.35.35 0 0 1-.4.34h-1.87zm-9.58 0h-1.95a.36.36 0 0 1-.34-.34v-.7a.34.34 0 0 1 .34-.34h3.93a.34.34 0 0 1 .33.33v.71c0 .24-.15.33-.39.34h-1.92zm14.36 0h-2a.32.32 0 0 1-.31-.33v-.7a.34.34 0 0 1 .3-.34h4a.34.34 0 0 1 .31.33v.71a.33.33 0 0 1-.33.33H39zm5.27 1.76h1.85c.34 0 .46.12.46.45v.48a.41.41 0 0 1-.45.46h-3.75c-.27 0-.4-.13-.41-.41v-.54c0-.3.13-.43.43-.43zm-4.76 0h1.83c.33 0 .45.12.45.45v.52a.36.36 0 0 1-.41.41H37.6a.37.37 0 0 1-.42-.41v-.54c0-.31.13-.43.43-.43zm-4.81 1.38h-1.83c-.36 0-.47-.12-.47-.47a4.17 4.17 0 0 1 0-.5.36.36 0 0 1 .41-.41h3.79c.27 0 .4.13.4.41v.56a.36.36 0 0 1-.41.41zm-19.16-1.38h1.88a.43.43 0 0 1 .31.08.34.34 0 0 1 .12.3v.58c0 .19-.13.42-.42.42h-1.68-2a.42.42 0 0 1-.47-.47v-.5c0-.16.13-.42.42-.42zm4.79 0h1.85c.35 0 .46.11.46.46v.52a.35.35 0 0 1-.4.4h-3.81a.35.35 0 0 1-.39-.38v-.58c0-.19.13-.42.42-.42zm4.79 1.38h-1.85c-.32 0-.44-.12-.45-.44v-.52c0-.29.13-.42.42-.42H27c.29 0 .41.13.42.42v.54c0 .3-.13.42-.44.42zm4.78 0h-1.83c-.33 0-.46-.12-.46-.45v-.47c0-.34.12-.46.45-.46h3.7c.34 0 .45.12.45.45a4.86 4.86 0 0 1 0 .54.35.35 0 0 1-.4.39zm11.98-1.57h-2a.35.35 0 0 1-.34-.35v-.66a.35.35 0 0 1 .39-.37h3.87a.34.34 0 0 1 .34.35v.64a.35.35 0 0 1-.39.39h-1.87zm-4.8 0h-2a.33.33 0 0 1-.32-.34q0-.34 0-.69a.34.34 0 0 1 .35-.35H39a.34.34 0 0 1 .37.36v.64a.35.35 0 0 1-.38.38h-1.91zm-9.55 0h-2a.35.35 0 0 1-.33-.34v-.69a.34.34 0 0 1 .36-.35h3.93a.33.33 0 0 1 .3.32q0 .38 0 .75a.33.33 0 0 1-.31.31h-2zm4.77 0h-1.85A.4.4 0 0 1 30 44v-.54a.35.35 0 0 1 .39-.38h3.82a.34.34 0 0 1 .38.37q0 .3 0 .6c0 .28-.12.41-.4.41zM18 43.12h1.95a.33.33 0 0 1 .33.32q0 .36 0 .72a.33.33 0 0 1-.35.34H16a.35.35 0 0 1-.33-.34q0-.34 0-.69a.34.34 0 0 1 .35-.35h2zm4.75 0h1.87a.45.45 0 0 1 .31.1.36.36 0 0 1 .1.28v.6a.35.35 0 0 1-.4.4h-3.76c-.31 0-.43-.12-.44-.43v-.56a.36.36 0 0 1 .4-.39zm-4.6-40.5h-.21V5.8a1.76 1.76 0 0 1-.65 0V2h1.51v3.82h-.65zm4.75 1.17V2a3.49 3.49 0 0 1 .56 0v3.82a5.32 5.32 0 0 1-.57 0l-.37-1.92h0v1.92a3.35 3.35 0 0 1-.55 0V2a3.51 3.51 0 0 1 .57 0l.35 1.84zM38.57 2l-.16.75-.18.79a.92.92 0 0 0 0 .33l.37 1.88v.1a4.37 4.37 0 0 1-.63 0l-.27-1.76h0v1.73a3.53 3.53 0 0 1-.65 0V2h.64v1.38h0L37.93 2zm.72 1.88V2.67a2 2 0 0 1 0-.43.32.32 0 0 1 .29-.24 2.09 2.09 0 0 1 .93 0 .31.31 0 0 1 .25.24 1.1 1.1 0 0 1 .05.35V5.2a1 1 0 0 1-.05.35.3.3 0 0 1-.24.25 2.09 2.09 0 0 1-.93 0 .31.31 0 0 1-.25-.25 1.65 1.65 0 0 1-.05-.44zm.83-1.38h-.14a.39.39 0 0 0 0 .21v2.38a.31.31 0 0 0 0 .21h.14a26.15 26.15 0 0 0 0-2.8z"/><path d="M21.2 5.83h-.62c-.06-.27 0-.54-.08-.8a.58.58 0 0 0-.26 0l-.06.81h-.63l.38-3.86h.88zm-.84-2.93l-.1 1.57a.22.22 0 0 0 .22 0l-.09-1.57a.2.2 0 0 0 0-.15.16.16 0 0 0-.03.15zM32.92 2h.88l.39 3.85h-.63A6.83 6.83 0 0 1 33.5 5a.5.5 0 0 0-.27 0l-.06.8h-.63zm.46.93a.2.2 0 0 0 0-.15.16.16 0 0 0 0 .15c0 .52-.08 1.05-.1 1.57a.21.21 0 0 0 .22 0zM28.06 2a9.78 9.78 0 0 1 1.09 0c.26 0 .38.14.4.4a9.2 9.2 0 0 1 0 1.66c0 .27-.13.36-.4.4h-.2-.23v1.36h-.66zm.66.52v1.41a.16.16 0 0 0 .19 0 12.72 12.72 0 0 0 0-1.38.19.19 0 0 0-.19-.07zM30.35 2a9.78 9.78 0 0 1 1.09 0c.26 0 .38.14.4.4a9.2 9.2 0 0 1 0 1.66c0 .27-.13.36-.4.4h-.43v1.36h-.66zm.85 2a11 11 0 0 0 0-1.41c-.08 0-.13-.06-.18 0v1.35h.07zm1.72 44.9c.09 0 .13 0 .19-.06a.44.44 0 0 1 .57.32v.06a6.22 6.22 0 0 1 0 1.43.32.32 0 0 1-.28.29 2.1 2.1 0 0 1-.75 0 .31.31 0 0 1-.29-.3 2.4 2.4 0 0 1 0-.37v-2.16a2.16 2.16 0 0 1 0-.35.33.33 0 0 1 .3-.32 2.17 2.17 0 0 1 .72 0 .34.34 0 0 1 .31.32 6.36 6.36 0 0 1 0 .88 3.87 3.87 0 0 1-.59 0v-.71a.12.12 0 0 0-.16 0l-.02.97zm.18 1.55a9.55 9.55 0 0 0 0-1.07.14.14 0 0 0-.17 0v1a.12.12 0 0 0 .17.07zm-5.1-.71a3 3 0 0 1 .6 0v.59c0 .07 0 .15.11.15a.11.11 0 0 0 .07-.12v-.9c-.09 0-.16.07-.24.08a.42.42 0 0 1-.54-.34h0a6.4 6.4 0 0 1 0-1.45.33.33 0 0 1 .28-.29 1.94 1.94 0 0 1 .76 0 .33.33 0 0 1 .28.28 2.09 2.09 0 0 1 0 .43v2.06a1.84 1.84 0 0 1 0 .41.33.33 0 0 1-.28.29 2 2 0 0 1-.77 0 .32.32 0 0 1-.27-.27 3.38 3.38 0 0 1 0-.92zm.76-1.82a.11.11 0 0 0-.16 0v1c.07.06.1.06.14 0a4.32 4.32 0 0 0 .01-1zm2.82 1.97s-.1 0-.15.07v1h-.6V50c-.25-.05-.49 0-.74 0a1.62 1.62 0 0 1 0-.54l.43-2h.89v2c0 .09.11.05.16.1a2.54 2.54 0 0 1 .01.33zm-.75-.45a6.28 6.28 0 0 0 0-1.39l-.17 1.41h.12a.08.08 0 0 0 .05-.02zM24.92 5.31h.53a1.62 1.62 0 0 1 0 .49 6.17 6.17 0 0 1-1.22 0 2.28 2.28 0 0 1 0-.78q.07-.43.18-.87a1 1 0 0 0 0-.43l-.22-1.21a1.81 1.81 0 0 1 0-.52h1.13a1.83 1.83 0 0 1 0 .47c-.16.07-.31 0-.46 0a5.21 5.21 0 0 0 .09.57c0 .12 0 .25.07.37a1.74 1.74 0 0 1 0 1c-.02.3-.02.6-.1.91zm17.79-2.83a2.22 2.22 0 0 1-.44 0 .73.73 0 0 0 0 .33c0 .32.12.64.18 1a.66.66 0 0 1 0 .28l-.25 1.23h.53a2.9 2.9 0 0 1 0 .51H41.5a2.58 2.58 0 0 1 0-.79 4.7 4.7 0 0 1 .13-.63 2 2 0 0 0 0-1c-.08-.31-.13-.63-.18-.94a1.48 1.48 0 0 1 0-.47 4.76 4.76 0 0 1 1.15 0 2.57 2.57 0 0 1 .11.48zm-15.45.95v.51c-.11.05-.23 0-.35 0a7.77 7.77 0 0 0 0 1.33h.37v.49h-1V2h1a2.46 2.46 0 0 1 0 .47c-.11.05-.24 0-.36 0v1zm8.61 2.39h-.64V2h.64zm-8.8 45.12h-.59v-2.57h-.29a3.26 3.26 0 0 1 0-.45.48.48 0 0 0 .42-.46h.45a56.97 56.97 0 0 1 .01 3.48zM30 54.32a.26.26 0 0 1-.2-.32l.2-1.92v-.1l.16 1.71V54a.25.25 0 0 1-.14.27zm6.86-4.81a2.93 2.93 0 0 1-.62.08l-1.38.14a.38.38 0 0 1-.15 0 .21.21 0 0 1 0-.42h.36zm-6.76 5.77c.13.06.14.17.12.29l-.15 1.58v.44a2.58 2.58 0 0 1-.07-.52l-.15-1.47c0-.13 0-.25.12-.32zm-6.9-5.77l2-.19c.2 0 .32.06.32.2s-.12.23-.32.21l-1.8-.17a.45.45 0 0 1-.2-.05zm7.32 5.16a.26.26 0 0 1 .24-.1l2 .22h0l-2 .19a.29.29 0 0 1-.28-.07.71.71 0 0 1 .04-.24zm-.85-.2c-.18.07-.22.07-.35-.09l-1.15-1.39v-.08l1.42 1.17c.16.14.17.17.1.36q0 0-.02.03z"/><path d="M29.51 54.9a.24.24 0 0 1-.25.1L28 54.88l-.83-.08a7.4 7.4 0 0 1 .77-.1l1.24-.12c.12 0 .24 0 .31.11zm2.4-1.96l-1.18 1.43c-.08.09-.15.18-.29.14s-.06-.07-.11-.07h0 0c.05 0 0-.13 0-.21l1.54-1.26z"/><path d="M29.1 55.36h.07a1.46 1.46 0 0 0 .16-.19.24.24 0 0 1 .31-.08l.09.11c.05.12 0 .21-.11.28L29 56l-.76.63h-.07l.94-1.15s.12-.07 0-.14zm2.61 1.18l-1.39-1.14-.05-.2h0l.07-.05a.17.17 0 0 0 .06-.06h.24l1.18 1.42zm-2.15-.84c.18.08.21.14.14.28l-.75 1.36.41-1.36v-.12a.2.2 0 0 1 .2-.16z"/><path d="M32.54 55.87l-1.39-.43c-.1 0-.2-.07-.21-.2a.16.16 0 0 1 .13-.16.21.21 0 0 1 .14 0l1.26.68s.08 0 .06.08zm-.12-2.06l-1.17.63c-.18.1-.23.07-.32-.11s.1-.16.2-.19l1.25-.38zm-3.32 1.55l-1.46.46s-.05 0 0 0l1.29-.7a.21.21 0 0 1 .19.09c.05.06 0 .14 0 .2zm-1.47-1.62l1.19.37.18.06a.17.17 0 0 1 .09.22.17.17 0 0 1-.23.08h-.09l-1.13-.61zm1.42-1.27h.07l.58 1.08a.18.18 0 0 1 0 .16.17.17 0 0 1-.11.11.15.15 0 0 1-.17 0l-.06-.11-.34-1.13c-.02-.04-.02-.07.03-.11zm1.87 4.6l-.62-1.16a.21.21 0 0 1 .15-.21c.15 0 .18.11.22.22l.34 1.15c-.01.02-.01.01-.09 0zm.08-4.56l-.36 1.19a.34.34 0 0 1-.05.11.15.15 0 0 1-.19 0 .18.18 0 0 1-.1-.16.3.3 0 0 1 0-.1l.7-1.09zm5.22-50.87a3.12 3.12 0 0 1-.53 0 2.78 2.78 0 0 1 0-.5 1.88 1.88 0 0 1 .53 0zm-1.32 0a.21.21 0 0 1 0-.13v-.36a1.63 1.63 0 0 1 .54 0v.49a2.27 2.27 0 0 1-.54 0z"/><path d="M31 52.4h0v.11h-.05zm-2-.06v.06.05c0 .05 0-.05-.05-.09zm1 2.15a.3.3 0 0 1 .28.3.27.27 0 0 1-.28.28.29.29 0 0 1-.29-.29.3.3 0 0 1 .29-.29zm-3.75-29.84a1.28 1.28 0 0 0-.7 0 1.36 1.36 0 0 0-.95 1.18v.26a.74.74 0 0 1-.21-.65 1.62 1.62 0 0 1 .18-.55l.21-.36-.47-.86a.84.84 0 0 1-1-.17 1.75 1.75 0 0 0 .22 1.15c.06.1.13.19.2.29a.52.52 0 0 1 .12.41 2.91 2.91 0 0 0 0 .93v.13l-.47-.54-.18 1h0l-.23-.59-.2-.53a1.11 1.11 0 0 0-.28-.43.47.47 0 0 1-.14-.31c0-.34-.07-.68-.1-1a3.3 3.3 0 0 1 .06-1 .89.89 0 0 1 .31-.53 8.45 8.45 0 0 1 2.19.49 7.91 7.91 0 0 0 1.38.54c0 .13 0 .25-.05.37a2 2 0 0 0 .13.84zm1.16 4.55c-.07-.05-.05-.11-.06-.16a4.23 4.23 0 0 0-.25-1 .8.8 0 0 0-.22-.33 2.6 2.6 0 0 0-.41-2.47.49.49 0 0 0 .3-.33A3.19 3.19 0 0 0 27 23a2.56 2.56 0 0 1 0-.27.06.06 0 0 1 0 0h.09 0l1.09 2.65.16.56a1.31 1.31 0 0 1-.05.87l-.59 1.53-.16.67a.36.36 0 0 1-.13.19zm3.71-11.58l1.18-.44c0 .1-.06.16-.06.23v.05c0 .05 0 0 0 0s.21-.18.37-.24c-.07.21-.21.37-.26.57.19-.08.33-.24.52-.34a.44.44 0 0 1 0 .37 1.15 1.15 0 0 1-.82.79h-.2a1.29 1.29 0 0 0-.77.34 1.49 1.49 0 0 1-.89.4 1.31 1.31 0 0 1-.67-.12c.05-.07.11-.06.16-.07l.28-.07a.68.68 0 0 0 .48-.53l.17-.69a1.14 1.14 0 0 1 .16-.38.66.66 0 0 1 .46-.29l-.22.36s.09.07.11.06z"/><path d="M34 21.64c-.1 0-.14-.05-.19-.1l-.83-.85a3.81 3.81 0 0 0-1-.8 2.55 2.55 0 0 0-1-.3.13.13 0 0 1-.13-.05l.33-.24a2.15 2.15 0 0 1 1.16-.46 1.25 1.25 0 0 0 .35-.13.73.73 0 0 1 .25-.12.44.44 0 0 1-.14.28l-.21.26c.17 0 .29-.14.45-.17 0 .14-.08.24-.09.36s.11 0 .17 0 .14-.1.23-.07h0c0 .11-.09.2-.11.32s.19-.09.31-.09 0 .23 0 .35a2.41 2.41 0 0 0 .18 1l.27.65c0 .05.06.09 0 .15zm-12.19-7.41c0-.06-.11-.05-.13-.11l.18-.25h-.28c0-.09.09-.11.1-.2s-.14 0-.2 0A1.84 1.84 0 0 1 24 13l-.26.1c.07.13.2.21.3.36h-.4a3.27 3.27 0 0 0-.54 0 .71.71 0 0 0-.68.64 1.78 1.78 0 0 0 0 .26 5 5 0 0 1-.61.13c-.04-.05.02-.15 0-.26zm7.25 3.54l1.08-.77a1.53 1.53 0 0 1-.56 1.09 6.43 6.43 0 0 1-1.38.71.32.32 0 0 1 0-.26 2.52 2.52 0 0 1 1-1.22s.07-.05.12 0h0l-.32.39a.18.18 0 0 0-.1.11h0a.16.16 0 0 0 .16-.05zm-4.87 1.62c0-.12.1-.19.16-.28a2.24 2.24 0 0 1 1.24-.89 2.84 2.84 0 0 0 1-.59s.07-.09.15-.1a1 1 0 0 1-.49.89c-.15.09-.32.17-.48.25l-1.45.66c-.06 0-.11.07-.18.05z"/><path d="M30.19 18.15c.11-.08.15-.22.27-.31a.4.4 0 0 1 0 .38 1.2 1.2 0 0 1-1.12.87 7.35 7.35 0 0 0-1.14.07.75.75 0 0 1 .31-.28 1.21 1.21 0 0 1 .32-.11A1.85 1.85 0 0 0 30 18a3.78 3.78 0 0 0 .22-.33s0-.07.11-.06c0 .17-.13.31-.15.47s0 .05 0 .08zm-4.73 1.08c0 .1-.14.14-.17.26.29-.08.53-.23.81-.33a.2.2 0 0 1-.06.13 3.67 3.67 0 0 1-.87.7l-1 .54-.57.3a3.57 3.57 0 0 1 1.86-1.6zM29 17l.3-.17s.06-.05.1 0h0a1.55 1.55 0 0 1-1.32.84 1.23 1.23 0 0 0-.92.37s-.05.07-.12 0a1 1 0 0 1 .31-.48 7.16 7.16 0 0 1 1.71-.9c.05 0 .1-.05.15 0h0a1.38 1.38 0 0 0-.24.3L29 17z"/><path d="M26.38 18.86a.82.82 0 0 1 .39-.39l1.26-.59-.36.5c.15 0 .25-.07.38-.06a.61.61 0 0 1-.44.34c-.39.08-.8.08-1.23.2zm-2.2-.23l.39-1.51a.48.48 0 0 1 .27.45.74.74 0 0 1-.06.36 1.49 1.49 0 0 1-.6.7zm3.53.37a1 1 0 0 1-.69.4c-.24 0-.48.06-.72.09a1.54 1.54 0 0 1 1.41-.49z"/><path d="M26.19 17.6a1.31 1.31 0 0 1-.58.46l-.76.33h-.07a1.58 1.58 0 0 1 .67-.5 5 5 0 0 0 .73-.36zm-3.02-5.81l-.17-.54c.13 0 .17.15.28.17s-.05-.24 0-.37c.13.06.15.2.26.27s0-.17.07-.25.14.12.26.17zm.83 8.05v.05q-.32.41-.66.81a1.77 1.77 0 0 1 .12-.7 1.26 1.26 0 0 1 .55-.16zm-3.67-6.39a2.92 2.92 0 0 1-.24.5c-.07.09-.07.09-.32.13a2.32 2.32 0 0 1 .56-.63z"/></g><path d="M28.91 17.83a.18.18 0 0 1 .1-.11.08.08 0 0 0 0 .05.16.16 0 0 1-.12.08zm-2.72-.23v-.08h.07a.1.1 0 0 1-.07.08zm-1.41.78h.07a.12.12 0 0 1-.1.07s0-.05.03-.07z" fill="#e98b8e"/><path d="M29.3 17.3a0 0 0 0 1 .06 0v.06zm.04-1.84h.06c.06 0 0 0 0 .06zm-1.25 8.39v-.07c0-.07 0 0 .05 0zm1.34-7.09zm-.19-.15h0zm-5.76-.81zm2.29-.8h0zm8.28 6.63h0zm-9.37-7.87zm-.66 6.08h.01-.02.01zm.16-.46h0zm2.09 5.25h0a0 0 0 0 1 0 0zM23 9.93h0zm10.39 9.29zm1.06 11.43z" fill="#d20d13"/></svg>