<svg height="358.49076" viewBox="0 0 280.11 359.77" width="278.947218" xmlns="http://www.w3.org/2000/svg"><path d="m275.71 5.36c.03.66.08 1.34.08 2.01v78.85c0 22.93.01 45.87-.02 68.8 0 2.14-.32 4.27-.52 6.4-.19 2.05-.37 4.1-.61 6.15-.16 1.35-.42 2.7-.63 4.04-.03.21-.03.43-.06.64-.18 1.38-.36 2.76-.55 4.14-.02.16-.16.31-.18.47-.19 1.21-.37 2.43-.54 3.65-.14 1.01-.21 2.03-.39 3.03-.29 1.58-.64 3.15-.97 4.73-.39 1.84-.76 3.69-1.19 5.52-.73 3.12-.98 6.35-2.03 9.41-.41 1.2-.5 2.51-.84 3.74-.7 2.52-1.49 5.02-2.22 7.53-.26.89-.39 1.83-.68 2.71-1.05 3.27-2.12 6.54-3.23 9.8-.95 2.79-1.94 5.56-2.93 8.34-.54 1.51-1.07 3.04-1.69 4.52-1.49 3.61-3.02 7.2-4.57 10.79-.59 1.36-1.25 2.7-1.93 4.02-1.28 2.5-2.59 4.98-3.9 7.47-1.2 2.3-2.35 4.63-3.62 6.89-1.16 2.06-2.46 4.05-3.69 6.07-.73 1.2-1.4 2.44-2.14 3.64-1.12 1.81-2.2 3.66-3.44 5.38-2.81 3.91-5.65 7.8-8.59 11.61-2.59 3.34-5.21 6.68-8.04 9.81-3.79 4.2-7.61 8.4-11.88 12.14-1.89 1.66-3.66 3.47-5.57 5.1-2.47 2.11-4.98 4.17-7.56 6.14-2.98 2.29-5.99 4.55-9.1 6.65-3.26 2.19-6.64 4.21-10.01 6.24-2.34 1.4-4.74 2.7-7.13 4.01-.85.46-1.76.79-2.63 1.21-1.1.54-2.17 1.13-3.28 1.65-2.23 1.04-4.44 2.11-6.72 3.04-3.33 1.36-6.71 2.6-10.07 3.89-.16.06-.3.17-.46.22-.71.21-1.35.26-2.12-.07-3.94-1.64-7.93-3.16-11.89-4.75-1.06-.42-2.07-.94-3.1-1.43-2.35-1.11-4.71-2.2-7.05-3.33-.69-.33-1.32-.76-1.99-1.13-2.94-1.63-5.9-3.22-8.81-4.91-1.54-.89-2.99-1.93-4.46-2.93-3.33-2.26-6.69-4.47-9.94-6.84-2.73-1.99-5.33-4.16-7.99-6.25-1.08-.85-2.15-1.7-3.21-2.57-.36-.3-.67-.65-1.02-.96-.8-.71-1.61-1.4-2.41-2.12-.57-.51-1.13-1.03-1.67-1.56-2.68-2.66-5.34-5.34-8.02-8-3.29-3.26-6.27-6.8-9.23-10.35-1.83-2.19-3.67-4.38-5.37-6.68-2.18-2.96-4.2-6.04-6.34-9.03-1.63-2.28-3.09-4.66-4.51-7.07-2.31-3.9-4.54-7.84-6.77-11.79-1.08-1.92-2.12-3.86-3.07-5.84-1.51-3.15-2.93-6.34-4.39-9.51-.83-1.79-1.78-3.54-2.48-5.37-1.42-3.72-2.72-7.5-4.04-11.26-1.03-2.91-2.07-5.81-3.02-8.74-.82-2.55-1.53-5.14-2.26-7.72-.62-2.18-1.13-4.4-1.83-6.56-.7-2.15-1-4.39-1.52-6.57-.61-2.54-.97-5.13-1.67-7.64-.39-1.41-.54-2.84-.82-4.25s-.63-2.81-.88-4.23c-.27-1.52-.46-3.05-.68-4.57-.29-2.02-.57-4.05-.88-6.07-.2-1.26-.46-2.51-.68-3.77-.03-.17-.03-.34-.05-.51-.48-5.9-.96-11.79-1.44-17.69-.24-2.94-.47-5.89-.7-8.83-.03-.43.04-.86.03-1.29-.97-37.36-.23-74.72-.45-112.08-.05-8.12 0-16.23 0-24.35 0-.55 0-1.09 0-1.59 1.42-.38 256-.55 270.27-.23zm-262.86 7.32v1.86 103.85c0 10.78.03 21.56.8 32.32.44 6.11.9 12.22 1.68 18.3.19 1.44.21 2.91.42 4.35.38 2.58.85 5.15 1.29 7.73.43 2.53.86 5.07 1.3 7.6.42 2.45.79 4.92 1.3 7.36.51 2.43 1.18 4.83 1.78 7.24.5 1.99 1.11 3.95 1.47 5.96.23 1.25.74 2.38 1.03 3.59.74 3.07 1.5 6.12 2.56 9.1.62 1.76 1.27 3.51 1.86 5.27.59 1.75 1.06 3.55 1.69 5.28.63 1.74 1.41 3.42 2.1 5.14.78 1.95 1.47 3.93 2.3 5.86 1.02 2.38 2.14 4.71 3.23 7.06.91 1.97 1.76 3.97 2.77 5.88 2.11 3.95 4.27 7.87 6.48 11.76 1.55 2.74 3.17 5.45 4.85 8.11 1.21 1.92 2.56 3.75 3.89 5.6 3.29 4.58 6.53 9.19 10.24 13.44 1.38 1.58 2.71 3.22 4.15 4.75 2.61 2.79 5.26 5.54 7.94 8.25 1.87 1.89 3.75 3.78 5.75 5.51 3.12 2.7 6.35 5.28 9.56 7.88 1.58 1.28 3.13 2.6 4.83 3.71 2.44 1.59 4.73 3.41 7.27 4.87 2.48 1.43 4.86 3.02 7.28 4.55.43.27.81.64 1.25.87 1.56.82 3.16 1.59 4.72 2.41.56.29 1.05.7 1.61.99 1.62.82 3.26 1.62 4.91 2.38 2.34 1.08 4.69 2.13 7.06 3.16 2.15.93 4.32 1.8 6.48 2.69 1.46.6 2.92 1.26 4.43.12.03-.02.08-.04.12-.05 5.04-1.45 9.69-3.89 14.49-5.93 1.73-.73 3.33-1.73 5-2.6 4.54-2.35 8.96-4.89 13.2-7.72 2.6-1.73 5.25-3.4 7.73-5.29 3.98-3.04 7.92-6.15 11.73-9.4 6.36-5.43 12.22-11.39 17.64-17.77 1.87-2.19 3.68-4.43 5.45-6.71 2.47-3.19 4.9-6.41 7.27-9.67 1.42-1.95 2.72-4 4.04-6.02 1.02-1.55 2.03-3.11 2.97-4.7 1.31-2.2 2.57-4.43 3.83-6.66.9-1.58 1.8-3.16 2.63-4.77 1.07-2.07 2.19-4.11 3.11-6.27 1.01-2.38 2.25-4.65 3.31-7.01.92-2.03 1.75-4.11 2.6-6.17.45-1.08.85-2.18 1.3-3.27.82-2.02 1.72-4.01 2.47-6.06.86-2.34 1.6-4.73 2.39-7.11 1.02-3.06 2.09-6.11 3.04-9.19.76-2.49 1.38-5.03 2.05-7.55.67-2.51 1.37-5.01 2.01-7.53.38-1.52.67-3.07 1-4.61.2-.91.43-1.81.6-2.73.33-1.77.59-3.56.92-5.33.45-2.38.97-4.76 1.38-7.15.33-1.9.5-3.83.79-5.74.33-2.21.73-4.41 1.05-6.62.2-1.44.3-2.9.45-4.35.34-3.24.81-6.48.99-9.73.42-7.76.94-15.53 1-23.29.15-19.2.08-38.4.08-57.6 0-19.5 0-39 0-58.5 0-.54-.04-1.09-.07-1.7h-256.85z" fill="#00498e"/><path d="m12.85 12.68h256.86c.03.62.07 1.16.07 1.7v58.5c0 19.2.07 38.4-.08 57.6-.06 7.77-.58 15.53-1 23.29-.18 3.25-.65 6.49-.99 9.73-.15 1.45-.25 2.91-.45 4.35-.31 2.21-.72 4.41-1.05 6.62-.28 1.91-.46 3.84-.79 5.74-.41 2.39-.94 4.76-1.38 7.15-.33 1.77-.6 3.56-.92 5.33-.17.92-.4 1.82-.6 2.73-.33 1.54-.62 3.09-1 4.61-.64 2.52-1.34 5.02-2.01 7.53-.68 2.52-1.29 5.05-2.05 7.55-.95 3.08-2.02 6.13-3.04 9.19-.79 2.37-1.53 4.76-2.39 7.11-.75 2.05-1.65 4.04-2.47 6.06-.44 1.08-.85 2.18-1.3 3.27-.85 2.06-1.68 4.14-2.6 6.17-1.07 2.35-2.3 4.63-3.31 7.01-.92 2.16-2.04 4.2-3.11 6.27-.83 1.61-1.74 3.19-2.63 4.77-1.26 2.23-2.52 4.46-3.83 6.66-.95 1.59-1.96 3.15-2.97 4.7-1.33 2.02-2.62 4.07-4.04 6.02-2.37 3.26-4.81 6.48-7.27 9.67-1.76 2.28-3.58 4.52-5.45 6.71-5.42 6.38-11.28 12.33-17.64 17.77-3.81 3.25-7.75 6.36-11.73 9.4-2.48 1.89-5.13 3.56-7.73 5.29-4.25 2.84-8.67 5.38-13.2 7.72-1.67.86-3.28 1.87-5 2.6-4.8 2.04-9.45 4.48-14.49 5.93-.04.01-.08.03-.12.05-1.51 1.14-2.97.49-4.43-.12-2.16-.89-4.33-1.77-6.48-2.69-2.37-1.02-4.72-2.08-7.06-3.16-1.65-.76-3.28-1.56-4.91-2.38-.56-.28-1.05-.69-1.61-.99-1.57-.82-3.16-1.59-4.72-2.41-.45-.23-.82-.6-1.25-.87-2.42-1.53-4.8-3.12-7.28-4.55-2.54-1.46-4.83-3.28-7.27-4.87-1.7-1.11-3.25-2.43-4.83-3.71-3.21-2.6-6.43-5.18-9.56-7.88-2.01-1.73-3.89-3.62-5.75-5.51-2.68-2.72-5.33-5.47-7.94-8.25-1.44-1.53-2.76-3.17-4.15-4.75-3.71-4.25-6.95-8.87-10.24-13.44-1.33-1.84-2.67-3.68-3.89-5.6-1.68-2.66-3.3-5.37-4.85-8.11-2.21-3.89-4.38-7.81-6.48-11.76-1.02-1.91-1.86-3.91-2.77-5.88-1.09-2.35-2.2-4.69-3.23-7.06-.83-1.93-1.52-3.91-2.3-5.86-.69-1.72-1.47-3.4-2.1-5.14s-1.1-3.53-1.69-5.28c-.59-1.77-1.23-3.52-1.86-5.27-1.05-2.98-1.82-6.03-2.56-9.1-.29-1.21-.81-2.34-1.03-3.59-.36-2.01-.98-3.97-1.47-5.96-.6-2.41-1.27-4.81-1.78-7.24-.51-2.44-.88-4.9-1.3-7.36-.44-2.53-.87-5.06-1.3-7.6-.44-2.57-.9-5.14-1.29-7.73-.21-1.44-.23-2.91-.42-4.35-.78-6.08-1.24-12.19-1.68-18.3-.77-10.76-.8-21.54-.8-32.32.01-34.62 0-69.24 0-103.85 0-.59 0-1.18 0-1.86zm10.33 149.52h1.81 113.89c.8 0 1.6.12 2.43.19.02.39.05.69.05.98v26.93c0 .17.01.34 0 .52-.05.67-.28.88-.96.88-.43 0-.86-.04-1.29-.04-36.72 0-73.44 0-110.16 0h-1.19c0 .33-.03.54 0 .73.38 1.91.72 3.83 1.16 5.73.72 3.1 1.47 6.18 2.27 9.26.51 1.95 1.13 3.88 1.71 5.81.59 1.95 1.18 3.91 1.81 5.85.65 2 .68 1.99 2.81 1.99h102.3 1.46v29.45h-94c.22.69.3 1.24.55 1.71 1.26 2.34 2.56 4.65 3.84 6.97 2.13 3.83 4.18 7.71 6.66 11.33 1.96 2.85 3.82 5.77 5.74 8.65.33.5.79.76 1.42.72.43-.03.86 0 1.29 0h72.15c.76 0 1.52.06 2.35.09v29.31c-2.43 0-4.78 0-7.13 0-2.32 0-4.64 0-6.96 0-2.36 0-4.72 0-7.09 0-2.32 0-4.64 0-6.96 0h-7.09c-2.32 0-4.64 0-6.96 0-2.33 0-4.67-.02-7.05.16.31.49.66.85 1.04 1.17 1.57 1.29 3.15 2.56 4.74 3.83 3.15 2.52 6.31 5.01 9.74 7.16.61.38 1.14.88 1.75 1.26 1.72 1.07 3.47 2.11 5.21 3.16.11.07.22.14.32.21.98.63 1.93 1.34 2.96 1.86 3.09 1.55 6.01 3.42 9.18 4.83 1.83.82 3.63 1.71 5.45 2.57.43.2.86.4 1.29.59 2.28.98 4.55 1.97 6.84 2.91.34.14.83.13 1.18 0 2.02-.71 4.06-1.39 6.03-2.24 2.36-1.02 4.67-2.16 6.96-3.31 1.95-.98 3.88-2.02 5.78-3.1 3.51-1.98 7.06-3.91 10.48-6.04 2.45-1.53 4.73-3.35 7.07-5.07 2.7-1.99 5.36-4.04 8.06-6.04.72-.53.99-1.15.98-2.06-.03-17.7-.02-35.39-.02-53.09 0-.37-.06-.74-.09-1.15-2.8-.02-5.48.12-8.22.03-.01-3.12-.04-6.06.01-9.05.92-.06 1.66-.11 2.44-.16-.56-1.6-1.08-3.08-1.6-4.55-.09-.27-.23-.54-.24-.82-.03-1.59-.07-3.17-.03-4.76.02-.75.12-1.53.38-2.22.65-1.75 1.39-3.47 2.46-5.02.15-.21.14-.53.22-.86-.67-.05-1.29.05-1.77-.17-.8-.37-1.57-.25-2.38-.2-.68.05-1.38.05-2.05-.04-1.09-.15-1.55-.8-1.42-1.9.06-.55.09-1.12.27-1.64.71-2.07 1.09-4.24 2.01-6.25.62-1.34.97-2.82 1.36-4.26.6-2.19 1.18-4.39 1.67-6.61.35-1.61.49-3.26.83-4.87.37-1.73.86-3.43 1.3-5.14.46-1.76 1.03-3.5 1.38-5.28.23-1.16.51-2.37.2-3.57-.17-.66-.38-1.31-.58-1.96-.61-1.98-.7-3.86.92-5.47.38-.38.79-.8 1-1.28.28-.67.92-1.25.69-2.08-.12-.05-.2-.11-.27-.11-2.32-.03-4.64-.05-6.95-.07-.3 0-.61.04-.89-.04-.97-.24-1.95-.5-2.9-.8-2.17-.67-4.23-1.57-5.59-3.52-.46-.67-.98-1.41-1.09-2.18-.17-1.16.03-2.36 0-3.54-.02-1.33.33-2.36 1.92-2.55-.2-.31-.36-.55-.51-.77.76-1.51 2.52-1.24 3.64-2.07-.08-.12-.12-.23-.18-.24-.41-.11-.83-.22-1.24-.31-1.4-.3-1.89-1.01-1.75-2.43.13-1.28.23-2.56.3-3.85.07-1.3.9-2.53 2.1-3.01.41-.16.79-.38 1.19-.57-.54-.37-1.02-.48-1.49-.64-1.19-.4-1.85-1.11-1.91-2.5-.07-1.7-.41-3.39-.64-5.08-.07-.51.07-.85.61-.91.34-.04.68-.06 1.03-.07.75-.02 1.5-.03 2.25-.04.02-.1.04-.2.06-.31-1.18-.53-2.34-1.1-3.54-1.59-.58-.23-.87-.51-.96-1.17-.18-1.37-.41-2.75-.74-4.1-.71-2.86-1.48-5.7-2.26-8.54-.22-.81-.61-1.57-.86-2.37-.35-1.12-.63-2.25-.94-3.38-.51-1.84-1.12-3.65-1.49-5.51-.23-1.14-.46-2.38.09-3.54.05-.1.17-.17.3-.29.32.22.62.42.99.68.61-1.14 1.47-.88 2.32-.49.46.21.88.5 1.34.72.3.14.63.32.95.32 1.04.01 1.8.56 2.45 1.26.6.65 1.2 1.33 1.65 2.1 1.28 2.19 2.59 4.36 3.67 6.65 1.23 2.6 2.29 5.29 3.31 7.98 1.05 2.75 1.98 5.54 2.94 8.32.35 1.01.65 2.03.94 3.06.24.85.37 1.73.62 2.57.82 2.71 1.71 5.41 2.52 8.13.39 1.33.93 2.59 1.51 3.84.15.33.41.61.71 1.06.33-.64.51-1.17.84-1.58 2.1-2.63 4.22-5.24 6.38-7.82.48-.57 1.11-1.07 1.77-1.44.63-.35 1.28-.32 2.05.08.99.53 1.7 1.24 2.36 2.08.74.95 1.53 1.85 2.32 2.76.17.2.42.33.7.54v-20.47h-12.91v-3.96h4.29s2.92.02 4.38 0c1.4-.02 2.8.11 4.25-.1v-7.81h-7.78c-.09-1.37-.13-2.58.01-3.94h7.83v-9.17h3.9v9.25h7.79v3.87h-7.73v7.82h9.78c.92-1.98 1.81-3.94 2.73-5.88.89-1.87 1.64-3.82 2.97-5.45.76-.93 1.51-1.87 2.32-2.75.53-.58 1.2-.92 2.04-.98.43-.03.86-.28 1.27-.48.5-.24.96-.58 1.48-.76.28-.1.73-.09.94.08.71.57 1.36.58 2.17-.2.14.64.36 1.09.31 1.5-.25 1.93-.43 3.88-.9 5.76-.48 1.96-1.27 3.84-1.9 5.76-.63 1.96-1.29 3.91-1.81 5.9-.75 2.89-1.46 5.79-2.02 8.72-.17.88-.61 1.24-1.26 1.55-.87.42-1.77.78-2.64 1.19-.14.07-.23.27-.39.48 1.39.2 2.7-.11 3.97.43-.26 2.13-.54 4.21-.77 6.3-.1.95-.68 1.45-1.47 1.78-.57.24-1.18.4-1.77.59.15.9.94.82 1.47 1.1.21.11.52.12.66.28.35.39.64.84.99 1.31.15 1.53.27 3.15.46 4.77.18 1.54.21 1.56-1.23 2.25-.38.18-.8.3-1.19.46-.26.11-.5.25-.99.51 1.32.79 2.81.71 3.78 1.74-.18.31-.34.6-.54.97.32.16.56.33.83.41.52.15.78.49.91.98.48 1.89.42 3.73-.26 5.6-.56 1.53-1.52 2.61-2.87 3.42-1.52.91-3.16 1.5-4.89 1.87-2.67.57-5.38.5-8.08.48-.49 0-.98.07-1.52.12.38 1.51 1.2 2.57 2.05 3.62 1.18 1.46 1.65 3.06.89 4.88-.22.51-.37 1.05-.58 1.57-.44 1.08-.46 2.16-.17 3.28.29 1.14.54 2.29.81 3.43.68 2.88 1.39 5.75 2.02 8.64.52 2.36 1.01 4.73 1.4 7.11.35 2.1 1.07 4.08 1.77 6.07.66 1.87 1.42 3.71 2.04 5.59.4 1.2.66 2.46.9 3.7.34 1.8-.14 2.37-1.93 2.49-.47.03-.96.07-1.41-.02-1.43-.31-2.75.19-4.11.4-.13.88.42 1.37.8 1.9.63.89 1.08 1.82 1.24 2.91.12.82.33 1.65.62 2.43.63 1.72.52 3.49.19 5.19-.35 1.8-1.05 3.54-1.59 5.31-.03.11.04.24.07.45.71.06 1.42.11 2.17.17.04.36.1.65.1.94v6.96c0 1.1-.12 1.2-1.29 1.19-1.8-.02-3.61-.04-5.41-.06-.46 0-.92 0-1.34 0-.32 1.32-.29 29.41.09 30.56.17-.3.26-.5.38-.66 2.31-3.12 4.64-6.22 6.94-9.34 1-1.36 1.93-2.76 2.87-4.16.75-1.12 1.46-2.28 2.18-3.42.64-1.03 1.28-2.06 1.9-3.09.77-1.27 1.56-2.53 2.3-3.82.6-1.05 1.11-2.15 1.68-3.22 1.45-2.69 2.98-5.34 4.35-8.07 1.31-2.62 2.45-5.31 3.66-7.98 1-2.2 2.01-4.39 2.97-6.61.37-.85.59-1.77.93-2.63 1.23-3.12 2.61-6.18 3.71-9.34 1.58-4.56 3.03-9.18 4.4-13.81 1.14-3.86 2.15-7.76 3.13-11.67.61-2.43.96-4.93 1.58-7.35.54-2.12.89-4.26 1.31-6.4.51-2.59 1.15-5.15 1.3-7.81.03-.49.33-.95.41-1.44.22-1.2.36-2.42.57-3.63.65-3.65.88-7.36 1.38-11.04.58-4.21.95-8.45 1.15-12.7.37-7.68.77-15.36.79-23.04.08-34.66.04-69.33.04-103.99 0-.33-.04-.66-.07-1.05h-239.85v82.23h119.8c.28 1.75.2 28.44-.1 29.46h-119.69c0 .57-.01.99 0 1.41.2 7 .54 13.99 1.17 20.96.14 1.54.27 3.08.4 4.62.06.74.11 1.48.18 2.35zm186.35-4.19c.25-.31.39-.41.43-.55.71-2.13 1.42-4.26 2.1-6.39.13-.4.07-.85.2-1.25.42-1.33.89-2.64 1.33-3.96.33-.98.64-1.97.93-2.96.32-1.06.6-2.13.91-3.2.2-.68.42-1.35.67-2.01.55-1.49 1.12-2.97 1.75-4.63-2.9-.11-5.61-.09-8.33-.03v24.99zm-124.64-42.31c.92.26 1.86.36 2.79 0-.11-.54-.13-1.04-.31-1.49-.36-.9-.59-1.83-1.63-2.38-3.48-1.85-7.1-.19-7.74 3.68-.36 2.21-.3 4.46.09 6.66.24 1.35 1.07 2.5 2.3 3.04 2.04.91 4.17.77 6.17-.25.59-.3 1.21-.74 1.23-1.52.04-1.54.02-3.09.02-4.64 0-.39-.18-.68-.6-.69-1.4-.01-2.81 0-4.3 0v2.04c.69.09 1.31.17 1.97.25v1.89c0 .62-.3.96-.93.99-.38.02-.77.06-1.15.02-1.27-.13-1.83-.67-1.86-1.95-.05-1.97-.05-3.94 0-5.91.03-1.26.77-1.86 2.09-1.87 1.23 0 1.63.41 1.75 1.82 0 .08.05.16.1.31zm-13.97-4.29v7.89c0 .82.02 1.63-.04 2.44-.09 1.2-.55 1.59-1.73 1.59-1.17 0-1.61-.39-1.71-1.58-.03-.34-.04-.69-.04-1.03 0-2.75 0-5.49 0-8.24 0-.33-.03-.67-.05-1.06h-2.79c-.06.22-.12.34-.12.46 0 3.18-.01 6.35 0 9.53 0 .51.1 1.03.23 1.52.52 1.86 1.56 2.68 3.48 2.76.68.03 1.38.07 2.06.01.98-.08 1.82-.53 2.46-1.28.85-1 1.22-2.19 1.22-3.5 0-2.88 0-5.75 0-8.63 0-.29-.06-.57-.09-.9h-2.87zm41.21 7.38c-.13-1.4-.15-2.44-.33-3.45-.33-1.78-1.26-3.09-3.01-3.82-2.81-1.17-6.25.38-6.79 3.35-.4 2.18-.36 4.34-.13 6.51.08.77.42 1.55.81 2.23 1.05 1.82 2.78 2.28 4.73 2.13 2.03-.15 3.52-1.17 4.09-3.14.39-1.34.47-2.76.63-3.8zm-56.94 4.41c0-.31-.03-.41 0-.48 1.51-2.69 3.03-5.36 4.52-8.06.54-.98 1.22-1.95.82-3.18-1.2-.25-7.99-.22-8.93.03v2.2h5.7c-.53.83-.98 1.47-1.36 2.15-1.36 2.42-2.68 4.86-4.03 7.28-.42.76-.48 1.51-.25 2.33h9.04v-2.27zm44.69-.01h-5.01v-11.79c-1.04-.05-1.92-.22-2.77.11v13.98h7.79v-2.29zm10.38-15.38c-.05-.11-.11-.22-.16-.33-.75 0-1.51-.04-2.26.02-.3.02-.7.2-.85.44-.49.77-.88 1.6-1.37 2.52.88.15 1.76.41 2.38-.12.85-.73 1.51-1.67 2.26-2.52z" fill="#ffde00"/><path d="m23.18 162.19c-.07-.87-.11-1.61-.18-2.35-.13-1.54-.27-3.08-.4-4.62-.63-6.97-.97-13.96-1.17-20.96-.01-.42 0-.84 0-1.41h119.69c.31-1.02.39-27.7.1-29.46h-119.8v-82.23h239.83c.03.39.07.72.07 1.05 0 34.66.05 69.33-.04 103.99-.02 7.68-.42 15.37-.79 23.04-.21 4.24-.58 8.49-1.15 12.7-.5 3.67-.73 7.38-1.38 11.04-.21 1.21-.36 2.42-.57 3.63-.09.49-.39.95-.41 1.44-.15 2.65-.8 5.21-1.3 7.81-.42 2.14-.77 4.28-1.31 6.4-.61 2.43-.97 4.92-1.58 7.35-.98 3.91-1.98 7.81-3.13 11.67-1.37 4.63-2.82 9.25-4.4 13.81-1.09 3.16-2.47 6.22-3.71 9.34-.34.86-.56 1.78-.93 2.63-.96 2.22-1.97 4.41-2.97 6.61-1.21 2.66-2.36 5.36-3.66 7.98-1.37 2.73-2.9 5.38-4.35 8.07-.57 1.07-1.08 2.17-1.68 3.22-.73 1.29-1.52 2.55-2.3 3.82-.63 1.03-1.26 2.07-1.9 3.09-.72 1.15-1.43 2.3-2.18 3.42-.94 1.4-1.87 2.8-2.87 4.16-2.29 3.13-4.62 6.23-6.94 9.34-.12.17-.21.36-.38.66-.37-1.16-.41-29.24-.09-30.56h1.34c1.8.02 3.61.05 5.41.06 1.17 0 1.29-.09 1.29-1.19 0-2.32 0-4.64 0-6.96 0-.29-.06-.58-.1-.94-.76-.06-1.47-.11-2.17-.17-.04-.2-.1-.34-.07-.45.54-1.77 1.24-3.5 1.59-5.31.33-1.7.44-3.47-.19-5.19-.29-.78-.5-1.61-.62-2.43-.16-1.09-.61-2.02-1.24-2.91-.38-.53-.93-1.03-.8-1.9 1.36-.21 2.68-.71 4.11-.4.45.1.94.05 1.41.02 1.8-.11 2.27-.69 1.93-2.49-.23-1.25-.5-2.5-.9-3.7-.62-1.88-1.38-3.72-2.04-5.59-.7-1.99-1.42-3.97-1.77-6.07-.39-2.38-.88-4.75-1.4-7.11-.64-2.89-1.35-5.76-2.02-8.64-.27-1.15-.52-2.29-.81-3.43-.29-1.12-.27-2.2.17-3.28.21-.52.36-1.05.58-1.57.77-1.82.3-3.42-.89-4.88-.85-1.05-1.67-2.1-2.05-3.62.55-.04 1.04-.12 1.52-.12 2.71.02 5.41.09 8.08-.48 1.73-.37 3.37-.96 4.89-1.87 1.35-.81 2.31-1.88 2.87-3.42.69-1.87.75-3.71.26-5.6-.13-.49-.38-.84-.91-.98-.27-.07-.51-.25-.83-.41.21-.37.37-.66.54-.97-.97-1.02-2.46-.95-3.78-1.74.5-.26.74-.4.99-.51.39-.17.81-.28 1.19-.46 1.44-.69 1.41-.71 1.23-2.25-.19-1.62-.32-3.24-.46-4.77-.34-.47-.63-.92-.99-1.31-.15-.16-.45-.16-.66-.28-.52-.29-1.32-.21-1.47-1.1.59-.19 1.2-.34 1.77-.59.78-.33 1.36-.83 1.47-1.78.22-2.09.5-4.17.77-6.3-1.27-.54-2.58-.23-3.97-.43.16-.21.24-.41.39-.48.87-.41 1.77-.77 2.64-1.19.65-.31 1.09-.67 1.26-1.55.56-2.93 1.27-5.83 2.02-8.72.52-1.99 1.18-3.94 1.81-5.9.62-1.92 1.41-3.8 1.9-5.76.46-1.88.65-3.83.9-5.76.05-.41-.17-.86-.31-1.5-.81.78-1.47.77-2.17.2-.21-.17-.66-.18-.94-.08-.52.19-.98.53-1.48.76-.41.19-.84.44-1.27.48-.83.06-1.51.41-2.04.98-.81.88-1.56 1.82-2.32 2.75-1.33 1.63-2.07 3.59-2.97 5.45-.93 1.94-1.81 3.9-2.73 5.88h-9.78v-7.82h7.73v-3.87h-7.79v-9.25h-3.9v9.17h-7.83c-.14 1.36-.1 2.57-.01 3.94h7.78v7.81c-1.45.21-2.85.08-4.25.1-1.46.02-2.92 0-4.38 0s-2.81 0-4.29 0v3.96h12.91v20.47c-.28-.21-.53-.35-.7-.54-.79-.91-1.58-1.82-2.32-2.76-.66-.85-1.37-1.56-2.36-2.08-.76-.4-1.41-.43-2.05-.08-.66.36-1.29.86-1.77 1.44-2.16 2.58-4.28 5.19-6.38 7.82-.33.41-.51.94-.84 1.58-.3-.44-.56-.73-.71-1.06-.58-1.25-1.12-2.51-1.51-3.84-.8-2.72-1.69-5.41-2.52-8.13-.26-.84-.39-1.72-.62-2.57-.28-1.03-.59-2.05-.94-3.06-.96-2.78-1.89-5.57-2.94-8.32-1.03-2.69-2.08-5.38-3.31-7.98-1.08-2.28-2.39-4.46-3.67-6.65-.44-.76-1.05-1.44-1.65-2.1-.65-.7-1.4-1.25-2.45-1.26-.32 0-.65-.18-.95-.32-.46-.22-.88-.51-1.34-.72-.86-.39-1.71-.65-2.32.49-.37-.26-.67-.46-.99-.68-.13.12-.25.19-.3.29-.55 1.16-.31 2.39-.09 3.54.37 1.86.98 3.68 1.49 5.51.31 1.13.6 2.26.94 3.38.25.8.64 1.57.86 2.37.78 2.84 1.55 5.68 2.26 8.54.33 1.34.56 2.72.74 4.1.08.66.38.94.96 1.17 1.2.48 2.36 1.05 3.54 1.59-.02.1-.04.2-.06.31-.75.01-1.5.02-2.25.04-.34 0-.69.03-1.03.07-.55.07-.68.41-.61.91.24 1.69.58 3.38.64 5.08.06 1.39.72 2.1 1.91 2.5.47.16.96.27 1.49.64-.39.19-.78.41-1.19.57-1.2.48-2.03 1.71-2.1 3.01-.07 1.28-.17 2.57-.3 3.85-.14 1.42.35 2.13 1.75 2.43.42.09.83.19 1.24.31.06.02.09.12.18.24-1.12.83-2.88.56-3.64 2.07.14.22.3.46.51.77-1.59.18-1.94 1.21-1.92 2.55.02 1.18-.18 2.39 0 3.54.11.77.63 1.51 1.09 2.18 1.36 1.95 3.42 2.84 5.59 3.52.96.3 1.93.56 2.9.8.28.07.59.03.89.04 2.32.02 4.64.05 6.95.07.08 0 .15.06.27.11.23.83-.41 1.41-.69 2.08-.2.48-.61.9-1 1.28-1.62 1.61-1.53 3.5-.92 5.47.2.65.41 1.3.58 1.96.31 1.21.03 2.41-.2 3.57-.35 1.78-.92 3.52-1.38 5.28-.45 1.71-.94 3.41-1.3 5.14-.34 1.61-.47 3.27-.83 4.87-.49 2.22-1.07 4.41-1.67 6.61-.39 1.44-.74 2.91-1.36 4.26-.92 2.01-1.31 4.18-2.01 6.25-.18.52-.2 1.09-.27 1.64-.13 1.1.33 1.75 1.42 1.9.67.09 1.37.09 2.05.04.81-.06 1.58-.17 2.38.2.47.22 1.09.12 1.77.17-.08.34-.08.65-.22.86-1.07 1.55-1.81 3.27-2.46 5.02-.26.69-.36 1.48-.38 2.22-.05 1.58 0 3.17.03 4.76 0 .27.14.55.24.82.51 1.47 1.03 2.95 1.6 4.55-.77.05-1.51.1-2.44.16-.05 2.99-.03 5.93-.01 9.05 2.74.09 5.42-.05 8.22-.03.04.41.09.78.09 1.15 0 17.7 0 35.39.02 53.09 0 .91-.26 1.52-.98 2.06-2.7 1.99-5.36 4.04-8.06 6.04-2.33 1.72-4.61 3.54-7.07 5.07-3.42 2.13-6.97 4.06-10.48 6.04-1.9 1.07-3.83 2.12-5.78 3.1-2.3 1.15-4.61 2.3-6.96 3.31-1.97.85-4 1.53-6.03 2.24-.36.12-.84.14-1.18 0-2.29-.94-4.56-1.93-6.84-2.91-.43-.19-.86-.38-1.29-.59-1.82-.86-3.62-1.75-5.45-2.57-3.16-1.41-6.09-3.28-9.18-4.83-1.04-.52-1.98-1.23-2.96-1.86-.11-.07-.21-.14-.32-.21-1.74-1.05-3.48-2.09-5.21-3.16-.61-.38-1.14-.88-1.75-1.26-3.42-2.15-6.59-4.64-9.74-7.16-1.59-1.27-3.16-2.55-4.74-3.83-.38-.31-.73-.68-1.04-1.17 2.38-.17 4.71-.15 7.05-.16h6.96 7.09 6.96 7.09 6.96 7.13v-29.31c-.84-.03-1.6-.09-2.35-.09-24.05 0-48.1 0-72.15 0-.43 0-.86-.03-1.29 0-.63.05-1.09-.22-1.42-.72-1.91-2.88-3.78-5.8-5.74-8.65-2.49-3.62-4.53-7.5-6.66-11.33-1.29-2.32-2.59-4.63-3.84-6.97-.25-.46-.33-1.02-.55-1.71h94.01v-29.45c-.54 0-1 0-1.46 0-34.1 0-68.2 0-102.3 0-2.13 0-2.16.01-2.81-1.99-.63-1.94-1.22-3.9-1.81-5.85-.58-1.93-1.2-3.86-1.71-5.81-.8-3.07-1.55-6.16-2.27-9.26-.44-1.9-.78-3.82-1.16-5.73-.04-.2 0-.41 0-.73h1.19 110.16c.43 0 .86.04 1.29.04.68 0 .91-.22.96-.88.01-.17 0-.34 0-.52 0-8.98 0-17.95 0-26.93 0-.3-.03-.59-.05-.98-.83-.07-1.63-.19-2.43-.19-37.96 0-75.93 0-113.89 0h-1.81zm53.26-101.47c.13-.26.14-.32.17-.33 2.97-1.75 4.79-4.2 5.17-7.75.35-3.27.03-6.32-1.6-9.24-1.11-1.98-2.77-3.34-4.72-4.16-2.65-1.1-5.53-1.54-8.41-1.58-4.5-.07-9.01-.02-13.52-.02-.37 0-.75.05-1.09.07-.29 1.34-.24 46.14.05 47.19.35.02.73.05 1.11.06 4.55 0 9.1.02 13.65 0 2.21 0 4.41-.05 6.57-.73 3.2-1.01 5.75-2.76 7.3-5.81.49-.96.67-2 .98-3.01 1.08-3.52.65-6.89-.67-10.21-.67-1.69-1.84-2.94-3.52-3.7-.49-.22-.94-.5-1.46-.78zm73.85 9.27c-.33 3.1.35 5.88 1.89 8.23 2.05 3.13 4.82 5.48 8.63 6.53 2.48.69 4.93.83 7.44.76 2.2-.06 4.3-.63 6.27-1.56 4.49-2.11 6.23-6.01 6.65-10.66.1-1.12-.19-2.28-.27-3.42-.18-2.85-1.52-5.18-3.36-7.24-1.97-2.2-4.66-3.37-7.23-4.63-1.74-.85-3.67-1.32-5.32-2.4-.78-.51-1.52-1.09-2.29-1.63-1.6-1.12-1.78-2.73-1.72-4.52.05-1.53.61-2.62 1.87-3.53 3.22-2.33 7.72-.75 8.63 3.09.11.46.13.93.17 1.4.11 1.19.12 1.22 1.3 1.22h7.21c.33 0 .65-.07.97-.1.28-.95-.13-1.76-.19-2.59-.15-1.86-.79-3.55-1.68-5.14-1.38-2.5-3.51-4.14-6.11-5.35-1.91-.89-3.86-1.32-5.91-1.37-1.27-.03-2.54.16-3.81.29-2.6.26-4.93 1.1-7.09 2.67-2.52 1.83-4.1 4.25-4.74 7.14-.58 2.62-.51 5.36.58 7.95.57 1.37 1.26 2.72 2.29 3.75 1.95 1.96 4.06 3.74 6.74 4.71.79.29 1.52.75 2.29 1.11 1.75.82 3.59 1.5 5.25 2.47 1.27.74 2.41 1.78 2.69 3.4.31 1.81.23 3.55-.7 5.2-.37.67-.86 1.15-1.53 1.49-1.45.74-2.99.63-4.52.42-2.36-.32-4.5-2.13-4.69-5.1-.05-.8-.17-1.6-.28-2.58-3.14-.01-6.21 0-9.42 0zm-38.68 14.85c.2.03.53.11.87.11 2.75.01 5.5-.02 8.24.02.79.01 1.05-.41 1.23-1.03.83-2.86 1.67-5.72 2.48-8.59.56-1.96 1.05-3.94 1.61-5.91.48-1.67 1.04-3.32 1.53-4.98.79-2.71 1.53-5.43 2.32-8.14.44-1.5.96-2.97 1.37-4.47.53-1.95.95-3.94 1.49-5.89.43-1.53.99-3.03 1.46-4.55.37-1.2.68-2.42 1.04-3.71h-10.6c-.37 1.52-.75 3.04-1.11 4.56-.7 2.97-1.39 5.94-2.08 8.91-.55 2.35-1.11 4.7-1.66 7.05-.77 3.25-1.54 6.5-2.3 9.75-.1.44-.15.9-.25 1.35-.14.65-.31 1.29-.47 1.94-.29-.18-.36-.33-.4-.49-.5-2.11-.99-4.23-1.49-6.34-.5-2.09-1.02-4.17-1.5-6.26-.34-1.47-.6-2.97-.93-4.44-.35-1.52-.76-3.03-1.12-4.56-.43-1.83-.85-3.67-1.27-5.5-.37-1.62-.75-3.24-1.09-4.86-.24-1.12-.21-1.15-1.26-1.16-2.88-.01-5.75-.01-8.63 0-.36 0-.71.11-.95.15 4.49 15.69 8.94 31.26 13.45 47.05zm120.5-31.23c-.07-.47-.15-.83-.18-1.21-.13-1.39-.2-2.79-.75-4.11-.38-.89-.81-1.79-1-2.72-.32-1.55-1.39-2.61-2.25-3.79-1.51-2.08-3.8-3.08-6.1-3.93-2.31-.85-4.78-.93-7.22-.79-3.49.19-6.72 1.16-9.43 3.51-1.77 1.54-3.1 3.41-4.14 5.49-.36.71-.54 1.52-.76 2.3-.3 1.05-.68 2.1-.81 3.17-.21 1.7-.28 3.42-.32 5.13-.05 2.66-.04 5.32-.02 7.99.01 2.65.15 5.28.72 7.89.63 2.9 1.72 5.54 3.59 7.83 1.36 1.67 2.99 3.06 5 3.87 2.87 1.17 5.89 1.48 8.97 1.26 2.46-.18 4.86-.63 7.06-1.8 1.75-.94 3.2-2.22 4.37-3.88.85-1.2 1.55-2.45 1.99-3.82.47-1.47.77-3.01 1.04-4.53.13-.73.31-1.5 0-2.29h-9.22c-.07.38-.13.71-.2 1.03-.28 1.36-.46 2.76-.86 4.08-.39 1.28-1.17 2.25-2.55 2.78-1.49.58-2.98.55-4.51.52-1.74-.03-2.98-.89-3.92-2.24-.39-.56-.67-1.19-.93-1.83-.72-1.77-.88-3.65-.9-5.53-.05-3.65-.02-7.3-.06-10.95-.03-2.76.26-5.47 1.03-8.14.49-1.7 1.65-2.85 3.11-3.48 1.53-.65 3.3-.71 4.93-.27 1.39.38 2.91.76 3.57 2.33.36.85.78 1.64.8 2.63.02 1.13.31 2.26.5 3.48h9.45zm-157.7 98.86c2.81 1.54 6.19.17 6.63-3.2.13-1.01.12-2.06.04-3.08-.06-.88-.19-1.79-.49-2.61-.83-2.34-4.38-2.98-6.12-1.2-1.42 1.45-1.38 3.16-.86 4.88.51 1.71 2.18 2.48 3.91 2.01.34-.09.67-.23 1.05-.35-.19 2.23-.51 2.41-3.94 2.31-.07.42-.15.85-.22 1.25zm-7.78-8.73c-.14 2.63.1 5.09-.14 7.51q-1.99.48-1.96 1.55c1.94.26 3.91.09 5.86.08.14 0 .43-.37.4-.53-.05-.29-.23-.67-.46-.79-.36-.18-.81-.17-1.38-.27v-9.81c-1.51.31-2.81.58-4.2.86v1.24c.63.06 1.18.1 1.88.17zm17.41 9.16h6.01v-1.28c-.65-.13-1.22-.25-1.85-.38-.07-3.26.03-6.41-.07-9.73-1.55.3-2.91.56-4.31.83v1.19c.71.08 1.37.15 2.08.23-.03 2.58.05 5.04-.04 7.52-.7.13-1.23.24-1.82.35zm10.55-9.14v6.85c0 .71-.45.79-1 .88-.93.14-.93.17-.7 1.28 1.27.27 4.9.22 5.86-.09-.04-.28-.08-.56-.11-.83-1.66-.32-1.69-.35-1.69-2 0-2.31 0-4.63 0-6.94 0-.41-.04-.82-.07-1.35-1.12.18-2.07.34-3.03.5-1.05.17-1.09.23-1.06 1.49.57.07 1.15.14 1.82.22z" fill="#00498e"/><path d="m209.54 158v-24.99c2.72-.06 5.42-.08 8.33.03-.63 1.66-1.2 3.14-1.75 4.63-.25.66-.47 1.34-.67 2.01-.32 1.06-.6 2.13-.91 3.2-.3.99-.61 1.98-.93 2.96-.44 1.32-.91 2.63-1.33 3.96-.13.4-.07.85-.2 1.25-.68 2.14-1.39 4.27-2.1 6.39-.05.14-.19.24-.43.55z" fill="#00498e"/><path d="m84.9 115.69c-.05-.15-.1-.23-.1-.31-.11-1.41-.51-1.83-1.75-1.82-1.32 0-2.06.61-2.09 1.87-.05 1.97-.05 3.94 0 5.91.03 1.28.59 1.82 1.86 1.95.38.04.77 0 1.15-.02.63-.03.93-.37.93-.99 0-.6 0-1.19 0-1.89-.66-.08-1.28-.16-1.97-.25v-2.04h4.3c.42 0 .6.3.6.69 0 1.55.02 3.09-.02 4.64-.02.78-.64 1.22-1.23 1.52-2 1.02-4.13 1.16-6.17.25-1.23-.55-2.05-1.69-2.3-3.04-.39-2.21-.46-4.45-.09-6.66.63-3.87 4.26-5.52 7.74-3.68 1.04.55 1.27 1.48 1.63 2.38.18.45.2.95.31 1.49-.94.36-1.88.26-2.79 0z" fill="#00498e"/><path d="m70.94 111.4h2.87c.04.33.09.61.09.9v8.63c0 1.31-.36 2.49-1.22 3.5-.64.75-1.48 1.2-2.46 1.28-.68.06-1.37.01-2.06-.01-1.92-.08-2.96-.9-3.48-2.76-.14-.49-.23-1.01-.23-1.52-.02-3.18-.01-6.35 0-9.53 0-.12.06-.24.12-.46h2.79c.02.39.05.73.05 1.06v8.24c0 .34.01.69.04 1.03.1 1.18.53 1.58 1.71 1.58 1.17 0 1.64-.4 1.73-1.59.06-.81.04-1.63.04-2.44 0-2.57 0-5.14 0-7.89z" fill="#00498e"/><path d="m112.15 118.78c-.16 1.04-.25 2.46-.63 3.8-.57 1.97-2.06 2.99-4.09 3.14-1.95.14-3.68-.32-4.73-2.13-.39-.68-.73-1.46-.81-2.23-.23-2.16-.27-4.33.13-6.51.55-2.96 3.99-4.52 6.79-3.35 1.75.73 2.68 2.05 3.01 3.82.19 1.01.21 2.05.33 3.45zm-2.96.33c-.16-1.89.1-3.23-.61-4.47-.52-.89-1-1.19-2.07-1.05-.86.12-1.44.66-1.63 1.52-.43 1.99-.29 4-.15 6 .03.45.23.91.45 1.32.46.84 1.26.94 2.11.85.77-.08 1.28-.48 1.42-1.25.21-1.16.38-2.33.47-2.93z" fill="#00498e"/><path d="m55.2 123.2h5.51v2.27h-9.04c-.22-.82-.17-1.57.25-2.33 1.36-2.42 2.68-4.86 4.03-7.28.38-.68.83-1.32 1.36-2.15h-5.7v-2.2c.94-.25 7.72-.28 8.93-.03.4 1.23-.28 2.2-.82 3.18-1.49 2.7-3.01 5.37-4.52 8.06-.04.06 0 .16 0 .48z" fill="#00498e"/><path d="m99.9 123.18v2.29h-7.79v-13.98c.86-.33 1.73-.16 2.77-.11v11.79h5.01z" fill="#00498e"/><path d="m110.28 107.81c-.74.85-1.41 1.8-2.26 2.52-.63.53-1.5.28-2.38.12.49-.92.88-1.75 1.37-2.52.15-.24.55-.41.85-.44.75-.06 1.51-.02 2.26-.02.05.11.11.22.16.33z" fill="#00498e"/><g fill="#ffde00"><path d="m76.44 60.72c.52.28.98.56 1.46.78 1.68.76 2.85 2.02 3.52 3.7 1.31 3.32 1.75 6.69.67 10.21-.31 1.01-.49 2.06-.98 3.01-1.55 3.05-4.1 4.8-7.3 5.81-2.16.68-4.36.72-6.57.73-4.55.02-9.1 0-13.65 0-.38 0-.75-.04-1.11-.06-.29-1.05-.33-45.85-.05-47.19.35-.02.72-.07 1.09-.07 4.51 0 9.01-.05 13.52.02 2.88.04 5.76.48 8.41 1.58 1.95.81 3.61 2.17 4.72 4.16 1.63 2.92 1.95 5.97 1.6 9.24-.38 3.55-2.2 6-5.17 7.75-.03.02-.04.07-.17.33zm-14.57 3.73v12.53h6.6c.34 0 .69-.07 1.01-.17 1.18-.37 2.1-.99 2.71-2.17 1.33-2.59 1.17-5.18.14-7.76-.55-1.37-1.59-2.37-3.17-2.41-2.39-.06-4.78-.02-7.29-.02zm.02-18.74c-.23 2.14-.14 10.69.14 11.75 2.18-.1 4.4.2 6.6-.26.92-.19 1.73-.51 2.32-1.38 1.42-2.06 1.7-4.2 1.1-6.62-.51-2.05-1.68-3.29-3.7-3.46-2.11-.18-4.25-.04-6.46-.04z"/><path d="m150.3 69.99c3.21 0 6.28-.01 9.42 0 .11.98.23 1.78.28 2.58.19 2.97 2.33 4.77 4.69 5.1 1.53.21 3.07.32 4.52-.42.67-.34 1.15-.82 1.53-1.49.93-1.65 1-3.4.7-5.2-.27-1.62-1.41-2.66-2.69-3.4-1.67-.97-3.5-1.65-5.25-2.47-.77-.36-1.5-.83-2.29-1.11-2.68-.96-4.79-2.75-6.74-4.71-1.03-1.03-1.72-2.38-2.29-3.75-1.08-2.59-1.16-5.33-.58-7.95.64-2.89 2.22-5.31 4.74-7.14 2.17-1.57 4.5-2.41 7.09-2.67 1.27-.13 2.54-.32 3.81-.29 2.05.05 4 .48 5.91 1.37 2.6 1.21 4.72 2.85 6.11 5.35.88 1.59 1.52 3.28 1.68 5.14.07.83.47 1.63.19 2.59-.31.04-.64.1-.97.1-2.4.01-4.81.02-7.21 0-1.19 0-1.19-.03-1.3-1.22-.04-.47-.07-.95-.17-1.4-.9-3.85-5.41-5.42-8.63-3.09-1.25.91-1.81 1.99-1.87 3.53-.06 1.79.13 3.4 1.72 4.52.77.54 1.51 1.12 2.29 1.63 1.65 1.08 3.58 1.55 5.32 2.4 2.58 1.26 5.26 2.44 7.23 4.63 1.85 2.05 3.18 4.38 3.36 7.24.07 1.14.37 2.3.27 3.42-.42 4.65-2.16 8.55-6.65 10.66-1.97.93-4.07 1.5-6.27 1.56-2.51.07-4.96-.07-7.44-.76-3.81-1.06-6.58-3.4-8.63-6.53-1.54-2.36-2.21-5.13-1.89-8.23z"/><path d="m111.61 84.85c-4.51-15.79-8.97-31.35-13.45-47.05.24-.04.6-.15.95-.15 2.88-.01 5.75-.02 8.63 0 1.05 0 1.02.04 1.26 1.16.34 1.63.72 3.24 1.09 4.86.42 1.84.83 3.67 1.27 5.5.36 1.52.77 3.03 1.12 4.56.34 1.47.59 2.97.93 4.44.48 2.09 1 4.17 1.5 6.26.5 2.11.99 4.23 1.49 6.34.04.16.11.3.4.49.16-.65.33-1.29.47-1.94.1-.45.15-.9.25-1.35.76-3.25 1.53-6.5 2.3-9.75.55-2.35 1.11-4.7 1.66-7.05.7-2.97 1.38-5.94 2.08-8.91.36-1.52.74-3.04 1.11-4.56h10.6c-.36 1.29-.67 2.51-1.04 3.71-.47 1.52-1.03 3.02-1.46 4.55-.54 1.95-.96 3.94-1.49 5.89-.41 1.5-.93 2.98-1.37 4.47-.79 2.71-1.53 5.43-2.32 8.14-.49 1.67-1.05 3.31-1.53 4.98-.56 1.96-1.06 3.94-1.61 5.91-.81 2.87-1.66 5.73-2.48 8.59-.18.62-.44 1.04-1.23 1.03-2.75-.04-5.5-.01-8.24-.02-.34 0-.67-.09-.87-.11z"/><path d="m232.11 53.62h-9.45c-.19-1.22-.48-2.35-.5-3.48-.02-.99-.44-1.79-.8-2.63-.66-1.57-2.18-1.95-3.57-2.33-1.63-.44-3.4-.38-4.93.27-1.47.62-2.63 1.78-3.11 3.48-.77 2.67-1.05 5.38-1.03 8.14.04 3.65 0 7.3.06 10.95.02 1.88.19 3.76.9 5.53.26.63.54 1.27.93 1.83.94 1.36 2.18 2.21 3.92 2.24 1.53.03 3.02.05 4.51-.52 1.38-.53 2.16-1.5 2.55-2.78.4-1.33.58-2.72.86-4.08.07-.33.13-.65.2-1.03h9.22c.31.79.13 1.57 0 2.29-.27 1.53-.58 3.06-1.04 4.53-.44 1.37-1.14 2.62-1.99 3.82-1.17 1.66-2.62 2.94-4.37 3.88-2.2 1.18-4.6 1.62-7.06 1.8-3.08.22-6.1-.1-8.97-1.26-2-.81-3.63-2.2-5-3.87-1.87-2.3-2.97-4.94-3.59-7.83-.57-2.61-.7-5.24-.72-7.89-.01-2.66-.03-5.33.02-7.99.03-1.71.11-3.43.32-5.13.13-1.08.51-2.12.81-3.17.22-.78.4-1.58.76-2.3 1.04-2.08 2.37-3.95 4.14-5.49 2.71-2.35 5.93-3.32 9.43-3.51 2.44-.14 4.9-.06 7.22.79 2.3.85 4.59 1.84 6.1 3.93.86 1.19 1.94 2.24 2.25 3.79.19.94.62 1.83 1 2.72.56 1.32.62 2.72.75 4.11.04.37.11.74.18 1.21z"/><path d="m74.41 152.47c.07-.4.15-.83.22-1.25 3.43.11 3.75-.07 3.94-2.31-.37.13-.7.26-1.05.35-1.73.47-3.4-.3-3.91-2.01-.52-1.72-.56-3.43.86-4.88 1.74-1.78 5.29-1.14 6.12 1.2.29.83.43 1.73.49 2.61.07 1.02.09 2.07-.04 3.08-.44 3.38-3.82 4.74-6.63 3.2zm4.42-6.65c-.17-.65-.3-1.31-.53-1.94-.24-.65-.84-.61-1.41-.59-.54.02-.92.31-.99.8-.11.79-.21 1.6-.13 2.38.09.89.74 1.27 1.63 1.16 1-.12 1.34-.57 1.43-1.82z"/><path d="m66.63 143.75c-.7-.06-1.25-.11-1.88-.17v-1.24c1.38-.28 2.69-.55 4.2-.86v9.81c.57.1 1.03.09 1.38.27.24.12.41.5.46.79.03.15-.25.53-.4.53-1.96.02-3.92.18-5.86-.08q-.03-1.07 1.96-1.55c.23-2.42 0-4.89.14-7.51z"/><path d="m84.04 152.91v-1.27c.59-.11 1.12-.22 1.82-.35.1-2.48.02-4.94.04-7.52-.71-.08-1.36-.15-2.08-.23v-1.19c1.4-.27 2.75-.53 4.31-.83.1 3.32 0 6.47.07 9.73.63.13 1.19.24 1.85.38v1.28z"/><path d="m94.59 143.77c-.66-.08-1.24-.15-1.82-.22-.03-1.25.01-1.31 1.06-1.49.96-.16 1.92-.31 3.03-.5.03.53.07.94.07 1.35v6.94c0 1.65.03 1.69 1.69 2 .04.27.08.56.11.83-.96.31-4.59.35-5.86.09-.23-1.1-.23-1.13.7-1.28.56-.08 1.01-.16 1-.88-.01-2.27 0-4.53 0-6.85z"/><path d="m109.19 119.11c-.09.6-.26 1.77-.47 2.93-.14.77-.65 1.17-1.42 1.25-.86.09-1.66-.01-2.11-.85-.22-.4-.42-.87-.45-1.32-.15-2-.28-4.01.15-6 .18-.85.77-1.4 1.63-1.52 1.07-.15 1.55.15 2.07 1.05.71 1.23.45 2.57.61 4.47z"/></g><path d="m61.88 64.45c2.51 0 4.9-.05 7.29.02 1.58.04 2.63 1.04 3.17 2.41 1.03 2.58 1.19 5.17-.14 7.76-.6 1.18-1.53 1.8-2.71 2.17-.32.1-.67.17-1.01.17-2.17.01-4.35 0-6.6 0z" fill="#00498e"/><path d="m61.89 45.71c2.21 0 4.35-.14 6.46.04 2.02.17 3.19 1.41 3.7 3.46.61 2.42.33 4.56-1.1 6.62-.6.86-1.41 1.19-2.32 1.38-2.2.46-4.42.15-6.6.26-.28-1.05-.36-9.6-.14-11.75z" fill="#00498e"/><path d="m78.83 145.82c-.09 1.25-.43 1.7-1.43 1.82-.89.1-1.54-.28-1.63-1.16-.08-.78.02-1.6.13-2.38.07-.49.44-.78.99-.8.57-.02 1.17-.06 1.41.59.23.63.36 1.29.53 1.94z" fill="#00498e"/></svg>