<?xml version="1.0" encoding="UTF-8" standalone="no"?>
<!-- Creator: CorelDRAW 2018 (64-Bit) -->

<svg
   xml:space="preserve"
   width="269.21539"
   height="300"
   version="1.1"
   style="clip-rule:evenodd;fill-rule:evenodd;image-rendering:optimizeQuality;shape-rendering:geometricPrecision;text-rendering:geometricPrecision"
   viewBox="0 0 269.21539 299.99999"
   id="svg162"
   sodipodi:docname="1912elore_hu_header_2023.svg"
   inkscape:version="1.2.2 (732a01da63, 2022-12-09)"
   xmlns:inkscape="http://www.inkscape.org/namespaces/inkscape"
   xmlns:sodipodi="http://sodipodi.sourceforge.net/DTD/sodipodi-0.dtd"
   xmlns="http://www.w3.org/2000/svg"
   xmlns:svg="http://www.w3.org/2000/svg"><sodipodi:namedview
   id="namedview164"
   pagecolor="#ffffff"
   bordercolor="#000000"
   borderopacity="0.25"
   inkscape:showpageshadow="2"
   inkscape:pageopacity="0.0"
   inkscape:pagecheckerboard="0"
   inkscape:deskcolor="#d1d1d1"
   showgrid="false"
   inkscape:zoom="2"
   inkscape:cx="177.5"
   inkscape:cy="148.75"
   inkscape:window-width="1920"
   inkscape:window-height="1051"
   inkscape:window-x="-9"
   inkscape:window-y="-9"
   inkscape:window-maximized="1"
   inkscape:current-layer="svg162" />
 <defs
   id="defs4">
  <style
   type="text/css"
   id="style2">
   <![CDATA[
    .str0 {stroke:#FEFEFE;stroke-width:2.36;stroke-miterlimit:22.9256}
    .fil0 {fill:none}
    .fil6 {fill:#FEFEFE}
    .fil9 {fill:#FEFEFE}
    .fil7 {fill:#CA914C}
    .fil2 {fill:#683675}
    .fil1 {fill:#6A1C76}
    .fil5 {fill:#FEFEFE;fill-rule:nonzero}
    .fil3 {fill:#FEFEFE;fill-rule:nonzero}
    .fil8 {fill:#CA914C;fill-rule:nonzero}
    .fil4 {fill:#683675;fill-rule:nonzero}
   ]]>
  </style>
 </defs>
 <g
   id="g505"
   style="clip-rule:evenodd;fill-rule:evenodd;image-rendering:optimizeQuality;shape-rendering:geometricPrecision;text-rendering:geometricPrecision"
   transform="matrix(2.3076923,0,0,2.3076923,-785.82734,-36.909175)"><g
     id="_2338353777840"
     transform="translate(323.79518,-1.5060241)"
     style="display:inline">
   <path
   class="fil2"
   d="M 74.76,140.64 C 42.69,121.73 25.4,88.48 22.88,49.1 c 14,-11.48 15,-12.41 30.2,-24.6 14.61,6.82 29.23,6.82 43.84,0 13.8,11.53 14.8,12.67 30.2,24.6 -4.06,39.27 -23.71,75.87 -52.36,91.54 z"
   id="path11"
   style="display:inline" />
   <g
   id="g16"
   style="display:inline">
    <path
   id="path12"
   class="fil4"
   d="M 71.72,145.78 C 55.07,135.96 42.17,122.48 33.04,106.37 23.64,89.77 18.26,70.42 16.92,49.48 l -0.19,-3.04 2.36,-1.94 c 3.59,-2.94 6.32,-5.18 8.65,-7.11 7.08,-5.82 10.68,-8.78 21.6,-17.53 l 2.9,-2.32 3.36,1.57 c 6.47,3.02 12.94,4.53 19.4,4.53 6.46,0 12.92,-1.51 19.4,-4.53 l 3.44,-1.61 2.91,2.43 c 0.58,0.48 3.89,3.27 7.73,6.5 7.07,5.95 10.28,8.65 22.28,17.95 l 2.63,2.04 -0.34,3.29 c -2.15,20.81 -8.5,40.91 -18.16,57.79 -9.47,16.56 -22.17,30.11 -37.29,38.37 l -2.97,1.63 z m -28.31,-45.3 c 7.57,13.35 18.05,24.67 31.44,33.22 11.79,-7.27 21.88,-18.52 29.67,-32.13 8.35,-14.61 14.02,-31.86 16.29,-49.82 C 111.1,44.19 107.69,41.32 100.82,35.54 100.47,35.24 100.08,34.92 95.9,31.43 88.94,34.21 81.97,35.6 75,35.6 68,35.6 61.01,34.2 54.02,31.4 44.54,39 41.27,41.7 35.31,46.6 c -1.78,1.47 -3.8,3.13 -6.25,5.14 1.52,18 6.31,34.54 14.35,48.74 z"
   style="display:inline" />
   </g>
   <path
   class="fil2"
   d="M 74.76,140.64 C 42.69,121.73 25.4,88.48 22.88,49.1 c 14,-11.48 15,-12.41 30.2,-24.6 14.61,6.82 29.23,6.82 43.84,0 13.8,11.53 14.8,12.67 30.2,24.6 -4.06,39.27 -23.71,75.87 -52.36,91.54 z"
   id="path18"
   style="display:inline" />
   <path
   class="fil5"
   d="M 74.6,140.9 C 58.83,131.59 46.61,118.82 37.97,103.57 28.99,87.73 23.87,69.22 22.58,49.12 l -0.01,-0.15 0.12,-0.1 c 3.58,-2.94 6.31,-5.18 8.65,-7.11 6.8,-5.59 10.26,-8.44 21.55,-17.49 l 0.15,-0.12 0.17,0.08 c 7.26,3.39 14.53,5.09 21.79,5.09 7.26,0 14.53,-1.7 21.79,-5.09 l 0.18,-0.08 0.14,0.12 c 2.94,2.46 5.51,4.62 7.73,6.49 7.26,6.1 10.55,8.87 22.46,18.11 l 0.13,0.1 -0.01,0.16 c -2.07,20.01 -8.18,39.33 -17.46,55.55 -8.97,15.69 -20.92,28.49 -35.06,36.22 l -0.15,0.09 z M 38.49,103.27 c 8.56,15.12 20.66,27.78 36.27,37.03 13.97,-7.68 25.79,-20.37 34.68,-35.92 9.22,-16.1 15.29,-35.28 17.37,-55.14 -11.8,-9.15 -15.1,-11.93 -22.35,-18.03 -2.01,-1.69 -4.34,-3.65 -7.59,-6.36 -7.29,3.38 -14.58,5.07 -21.87,5.07 -7.29,0 -14.59,-1.69 -21.88,-5.07 -11.21,8.99 -14.65,11.82 -21.4,17.38 -2.31,1.9 -5.01,4.12 -8.53,7 1.29,19.96 6.39,38.33 15.3,54.04 z"
   id="path20" />
   <path
   class="fil6"
   d="M 36.69,100.61 126.9,49.32 v 0 c -4.06,39.27 -23.7,75.87 -52.36,91.54 -12.78,-7.54 -23.21,-17.35 -31.3,-28.92 z"
   id="path22" />
   <path
   class="fil5"
   d="m 48.36,102.27 c 0,1.39 0,2.53 -0.07,3.16 v 0.01 c -0.03,0.23 -0.06,0.43 -0.13,0.6 -0.01,0.04 -0.02,0.07 -0.04,0.1 l 0.26,-0.02 0.23,-0.01 c 0.03,0 0.25,0.02 0.52,0.03 l 0.49,0.03 c -0.07,-0.02 -0.14,-0.05 -0.2,-0.09 -0.54,-0.29 -0.56,-0.52 -0.6,-1.31 v 0 -0.06 0 c -0.01,-0.11 -0.01,-0.62 -0.01,-1.24 -0.01,-1.09 -0.01,-1.55 -0.01,-1.9 v -0.82 c 0,-0.11 0.03,-0.19 0.09,-0.27 0.02,-0.02 0.05,-0.05 0.08,-0.07 -0.04,-0.03 -0.07,-0.06 -0.1,-0.11 -0.04,-0.07 -0.07,-0.15 -0.07,-0.26 v -3.87 c 0,-0.12 0.04,-0.22 0.12,-0.31 -0.13,0.01 -0.23,0.01 -0.31,0.01 h -0.19 l -0.28,-0.02 0.02,0.03 c 0.11,0.19 0.16,0.41 0.17,0.7 v 0 c 0.02,0.24 0.02,0.46 0.03,0.91 0,0.6 0,1.21 0,2.23 z m -0.66,3.1 c 0.06,-0.59 0.06,-1.72 0.06,-3.1 v -2.55 c 0,-1.23 0,-1.95 0,-2.23 0,-0.43 -0.01,-0.64 -0.02,-0.87 v 0 C 47.73,96.42 47.7,96.28 47.65,96.2 47.62,96.14 47.54,96.1 47.41,96.07 H 47.4 c -0.04,-0.01 -0.09,-0.02 -0.14,-0.03 -0.08,0 -0.16,-0.01 -0.23,-0.01 -0.09,0 -0.19,-0.03 -0.26,-0.09 v 0 c -0.09,-0.07 -0.14,-0.17 -0.14,-0.29 0,-0.17 0.07,-0.28 0.21,-0.36 0.08,-0.04 0.18,-0.06 0.3,-0.06 0.42,0 1.01,0.03 1.31,0.04 0.07,0 0.13,0.01 0.16,0.01 0.14,0 0.3,-0.01 0.47,-0.02 0.28,-0.01 0.61,-0.03 0.95,-0.03 0.94,0 1.6,0.27 2.04,0.64 0.67,0.56 0.86,1.34 0.86,1.83 0,0.65 -0.17,1.17 -0.42,1.62 -0.18,0.32 -0.39,0.6 -0.61,0.86 0.49,0.24 1.01,0.63 1.4,1.16 0.39,0.53 0.66,1.2 0.66,2.01 0,0.91 -0.35,1.84 -1.05,2.5 -0.6,0.58 -1.46,0.95 -2.57,0.95 -0.19,0 -0.79,-0.04 -1.24,-0.06 -0.25,-0.02 -0.45,-0.03 -0.49,-0.03 -0.03,0 -0.11,0.01 -0.21,0.01 -0.29,0.01 -0.8,0.04 -1.07,0.04 -0.12,0 -0.21,-0.02 -0.3,-0.06 v 0 c -0.14,-0.08 -0.2,-0.19 -0.2,-0.36 0,-0.1 0.03,-0.21 0.13,-0.29 v 0 c 0.07,-0.06 0.16,-0.1 0.27,-0.1 0.04,0 0.08,0 0.13,-0.01 0.07,-0.01 0.13,-0.02 0.19,-0.03 v 0 c 0.02,-0.01 0.04,-0.04 0.06,-0.09 0.04,-0.1 0.07,-0.27 0.09,-0.45 z m 4.69,0.14 c 0.04,-0.03 0.07,-0.06 0.11,-0.09 0.57,-0.55 0.86,-1.32 0.86,-2.07 0,-0.67 -0.22,-1.22 -0.54,-1.65 -0.42,-0.57 -1.01,-0.94 -1.51,-1.12 l -0.38,-0.13 c -0.03,0.02 -0.06,0.03 -0.1,0.03 l -0.04,0.02 c 0.2,0.06 0.42,0.17 0.66,0.36 h 0.01 c 0.48,0.37 0.8,0.83 1.02,1.32 0.27,0.62 0.36,1.28 0.36,1.81 0,0.67 -0.18,1.16 -0.45,1.52 z m -0.6,-6.16 c 0.07,-0.1 0.14,-0.21 0.2,-0.32 0.2,-0.37 0.34,-0.79 0.34,-1.33 0,-0.37 -0.14,-0.96 -0.64,-1.37 -0.2,-0.16 -0.45,-0.3 -0.78,-0.39 0.19,0.13 0.35,0.29 0.49,0.48 0.38,0.54 0.54,1.29 0.54,2 0,0.32 -0.05,0.62 -0.14,0.89 z m -2.21,-3.1 c -0.06,0.01 -0.12,0.02 -0.18,0.03 v 3.65 l 0.07,0.01 v 0 c 0.11,0.01 0.28,0.02 0.52,0.02 0.34,0 0.54,-0.01 0.68,-0.05 0.1,-0.03 0.17,-0.09 0.27,-0.21 v 0 c 0.12,-0.16 0.22,-0.35 0.3,-0.58 0.06,-0.21 0.1,-0.44 0.1,-0.7 0,-0.6 -0.13,-1.22 -0.43,-1.65 -0.23,-0.32 -0.56,-0.54 -1.03,-0.54 -0.07,0 -0.19,0.01 -0.3,0.02 z m 0.57,4.72 c -0.11,-0.02 -0.48,-0.02 -0.75,-0.02 v 0.62 1.9 c 0,0.6 0.01,1.1 0.01,1.21 v 0 l 0.01,0.05 v 0 c 0.03,0.54 0.03,0.7 0.28,0.83 0.11,0.06 0.25,0.1 0.4,0.12 0.23,0.05 0.47,0.06 0.6,0.06 0.35,0 0.81,-0.12 1.14,-0.48 0.23,-0.27 0.4,-0.67 0.4,-1.27 0,-0.46 -0.08,-1.04 -0.31,-1.57 -0.18,-0.4 -0.44,-0.79 -0.83,-1.09 v 0 c -0.38,-0.28 -0.66,-0.32 -0.93,-0.36 h -0.01 z"
   id="path24" />
   <path
   class="fil7"
   d="m 48.06,102.27 c 0,1.38 0,2.53 -0.06,3.13 -0.05,0.42 -0.12,0.74 -0.38,0.8 -0.12,0.02 -0.27,0.05 -0.39,0.05 -0.08,0 -0.1,0.05 -0.1,0.09 0,0.09 0.06,0.12 0.2,0.12 0.39,0 1.21,-0.05 1.28,-0.05 0.1,0 1.43,0.09 1.73,0.09 2.23,0 3.32,-1.61 3.32,-3.15 0,-1.69 -1.29,-2.72 -2.25,-3.05 0.61,-0.71 1.22,-1.41 1.22,-2.6 0,-0.72 -0.47,-2.17 -2.6,-2.17 -0.6,0 -1.11,0.04 -1.42,0.04 -0.07,0 -0.89,-0.04 -1.47,-0.04 -0.15,0 -0.21,0.03 -0.21,0.12 0,0.06 0.05,0.08 0.1,0.08 0.12,0 0.34,0.02 0.45,0.05 0.42,0.1 0.53,0.33 0.56,0.82 0.02,0.46 0.02,0.87 0.02,3.12 z m 1.04,-6.1 c 0,-0.09 0.04,-0.13 0.16,-0.16 0.21,-0.06 0.48,-0.07 0.62,-0.07 1.28,0 1.76,1.28 1.76,2.48 0,0.59 -0.19,1.12 -0.47,1.46 -0.27,0.35 -0.45,0.38 -1.18,0.38 -0.48,0 -0.72,-0.05 -0.8,-0.06 -0.06,-0.03 -0.09,-0.06 -0.09,-0.16 z m 0,4.58 c 0,-0.08 0.03,-0.1 0.08,-0.1 0.2,0 0.85,0 1.02,0.02 0.31,0.05 0.63,0.09 1.08,0.42 1,0.77 1.26,2.03 1.26,2.9 0,1.63 -1.13,2.05 -1.84,2.05 -0.23,0 -0.79,-0.03 -1.14,-0.22 -0.41,-0.22 -0.41,-0.42 -0.44,-1.13 -0.02,-0.21 -0.02,-2 -0.02,-3.12 z"
   id="path26" />
   <g
   id="g30">
    <path
   class="fil5"
   d="m 55.74,104.24 c 0,0.71 0,1.31 -0.04,1.64 v 0.01 c -0.01,0.08 -0.02,0.16 -0.04,0.23 0.11,-0.01 0.2,-0.01 0.24,-0.01 0.12,0 0.26,0 0.44,0.01 -0.18,-0.16 -0.23,-0.37 -0.24,-0.7 -0.01,-0.16 -0.01,-0.56 0,-0.87 v -0.31 0 -0.59 c 0,-0.06 0.01,-0.13 0.04,-0.19 v 0 c 0.01,-0.03 0.03,-0.05 0.05,-0.08 -0.02,-0.02 -0.04,-0.04 -0.05,-0.07 -0.03,-0.06 -0.04,-0.13 -0.04,-0.2 v -1.9 c 0,-0.06 0.01,-0.11 0.02,-0.16 h -0.18 c -0.05,0 -0.14,0 -0.25,-0.01 0.02,0.08 0.03,0.17 0.04,0.26 v 0 c 0.01,0.12 0.01,0.24 0.01,0.47 0,0.37 0,0.66 0,1.15 z m -0.63,1.58 v 0 c 0.04,-0.3 0.04,-0.89 0.04,-1.58 v -1.32 c 0,-0.66 0,-1.05 0,-1.14 -0.01,-0.21 -0.01,-0.32 -0.02,-0.45 v 0 c 0,-0.07 -0.01,-0.12 -0.02,-0.13 0,-0.01 -0.02,-0.01 -0.06,-0.02 h -0.01 c -0.02,-0.01 -0.04,-0.01 -0.08,-0.01 v 0 c -0.04,0 -0.1,-0.01 -0.15,-0.01 -0.08,0 -0.15,-0.01 -0.22,-0.04 -0.14,-0.06 -0.2,-0.17 -0.2,-0.32 0,-0.17 0.07,-0.28 0.23,-0.33 0.07,-0.03 0.14,-0.04 0.23,-0.04 0.2,0 0.48,0.01 0.71,0.02 0.14,0 0.26,0 0.38,0 h 0.98 c 0.4,0 0.8,0 0.88,0 0.06,-0.01 0.12,-0.01 0.17,-0.02 0.05,-0.01 0.08,-0.01 0.1,-0.02 h 0.02 l 0.01,-0.01 v 0 c 0.05,-0.01 0.1,-0.03 0.17,-0.03 0.15,0 0.24,0.07 0.3,0.18 v 0 c 0.03,0.07 0.04,0.13 0.04,0.19 0,0.04 -0.01,0.07 -0.02,0.12 v 0.01 c -0.01,0.05 -0.03,0.16 -0.04,0.38 v 0.01 c 0,0.01 -0.01,0.08 -0.01,0.15 -0.01,0.13 -0.02,0.29 -0.03,0.36 l -0.01,0.02 c 0,0.05 -0.02,0.1 -0.06,0.16 v 0 c -0.07,0.09 -0.16,0.16 -0.3,0.16 -0.15,0 -0.25,-0.06 -0.32,-0.18 -0.03,-0.07 -0.05,-0.14 -0.05,-0.23 0,-0.02 0,-0.06 -0.01,-0.1 v 0 c 0,-0.02 -0.01,-0.04 -0.01,-0.05 v -0.01 c -0.01,-0.02 -0.01,-0.02 -0.01,-0.02 -0.04,-0.03 -0.12,-0.05 -0.26,-0.06 -0.04,-0.01 -0.19,-0.02 -0.36,-0.02 -0.13,0 -0.29,-0.01 -0.42,-0.01 v 1.47 h 0.35 c 0.24,-0.01 0.49,-0.01 0.58,-0.02 v 0 c 0.08,0 0.13,-0.01 0.17,-0.02 v 0 0 0 0 0 0 h 0.01 c 0.1,-0.12 0.16,-0.19 0.33,-0.19 0.1,0 0.19,0.03 0.26,0.12 v 0 c 0.06,0.06 0.09,0.14 0.09,0.24 0,0.03 0,0.07 -0.01,0.12 -0.01,0.07 -0.03,0.2 -0.05,0.45 v 0 c -0.01,0.08 -0.01,0.17 -0.02,0.25 0,0.11 -0.01,0.21 -0.01,0.24 0,0.04 0,0.1 -0.02,0.18 v 0 c -0.05,0.15 -0.14,0.26 -0.35,0.26 -0.12,0 -0.21,-0.05 -0.28,-0.13 v 0 c -0.06,-0.07 -0.08,-0.15 -0.08,-0.24 l -0.01,-0.05 c 0,-0.05 -0.01,-0.1 -0.01,-0.15 -0.01,-0.01 -0.01,-0.02 -0.02,-0.03 -0.02,-0.01 -0.07,-0.03 -0.15,-0.04 -0.05,0 -0.19,-0.01 -0.35,-0.01 -0.13,0 -0.29,-0.01 -0.43,-0.01 v 0.37 l -0.01,0.01 v 0.3 c 0,0.31 0,0.7 0,0.85 v 0 c 0.01,0.17 0.02,0.26 0.05,0.28 0.07,0.05 0.24,0.07 0.56,0.07 0.09,0 0.22,0 0.33,-0.01 0.1,-0.01 0.19,-0.03 0.25,-0.05 0.05,-0.02 0.08,-0.05 0.1,-0.08 0.03,-0.06 0.06,-0.14 0.07,-0.26 v -0.01 c 0.02,-0.08 0.04,-0.14 0.08,-0.2 v 0 c 0.08,-0.11 0.17,-0.16 0.3,-0.16 0.36,0 0.36,0.2 0.36,0.44 0,0.1 -0.01,0.28 -0.04,0.46 -0.02,0.18 -0.04,0.36 -0.07,0.45 v 0 c -0.11,0.43 -0.22,0.43 -0.69,0.43 -0.68,0 -1.16,-0.02 -1.53,-0.04 -0.2,-0.01 -0.37,-0.01 -0.56,-0.01 -0.1,0 -0.22,0 -0.35,0.01 -0.21,0 -0.46,0.01 -0.6,0.01 -0.09,0 -0.18,-0.02 -0.24,-0.05 H 54.7 c -0.13,-0.07 -0.2,-0.17 -0.2,-0.32 0,-0.14 0.05,-0.24 0.18,-0.31 v 0 c 0.06,-0.03 0.14,-0.05 0.24,-0.05 0.05,0 0.09,-0.01 0.11,-0.01 0.02,0 0.04,0 0.05,-0.01 0.01,-0.04 0.02,-0.1 0.03,-0.16 z m 2.68,-2.95 0.01,-0.01 v 0 z m 0.07,-4.08 c 0.04,0.04 0.07,0.08 0.1,0.14 v 0 c 0.03,0.06 0.07,0.12 0.11,0.21 v 0 c 0.03,0.08 0.08,0.16 0.12,0.26 0.03,0.07 0.05,0.14 0.05,0.19 0,0.08 -0.02,0.14 -0.06,0.19 v 0 c -0.03,0.06 -0.08,0.1 -0.13,0.12 v 0.01 c -0.06,0.02 -0.12,0.03 -0.17,0.03 -0.02,0 -0.04,0 -0.06,0 -0.03,0 -0.08,-0.01 -0.17,0 -0.15,0.02 -0.35,0.08 -0.54,0.14 -0.25,0.09 -0.49,0.19 -0.63,0.27 h -0.01 l -0.05,0.03 c -0.07,0.04 -0.13,0.07 -0.21,0.07 -0.07,0 -0.17,-0.03 -0.24,-0.1 v 0 c -0.06,-0.06 -0.11,-0.14 -0.11,-0.25 0,-0.15 0.07,-0.22 0.16,-0.31 v 0 h 0.01 c 0.12,-0.12 0.33,-0.29 0.54,-0.45 0.3,-0.24 0.61,-0.47 0.7,-0.53 v 0 c 0.05,-0.03 0.1,-0.06 0.14,-0.07 0.07,-0.04 0.14,-0.05 0.19,-0.05 0.1,0 0.18,0.03 0.26,0.1 z m 3.28,4.13 c 0,-1.15 0,-1.36 0.02,-1.62 v 0 c 0,-0.09 0.01,-0.18 0.03,-0.26 -0.1,0.01 -0.17,0.01 -0.21,0.01 -0.03,0 -0.11,0 -0.22,-0.01 0.03,0.08 0.04,0.17 0.04,0.26 v 0 c 0.01,0.12 0.01,0.24 0.02,0.47 0,0.37 0,0.66 0,1.15 v 1.32 c 0,0.71 0,1.31 -0.04,1.64 v 0.01 c -0.01,0.08 -0.02,0.16 -0.04,0.23 0.11,-0.01 0.19,-0.01 0.23,-0.01 0.04,0 0.12,0 0.24,0.01 -0.03,-0.08 -0.04,-0.16 -0.05,-0.24 v 0 c -0.01,-0.16 -0.01,-0.4 -0.02,-0.69 0,-0.39 0,-0.66 0,-0.95 v -0.68 -0.01 -0.29 -0.01 z m 0.61,-1.58 c -0.01,0.19 -0.01,0.38 -0.01,1.2 l 0.13,-0.13 c 0.39,-0.41 0.83,-0.86 0.96,-1.01 l 0.03,-0.04 c 0.09,-0.11 0.17,-0.21 0.22,-0.27 v 0 0 c -0.1,-0.07 -0.15,-0.16 -0.15,-0.29 0,-0.15 0.06,-0.25 0.19,-0.32 v 0 c 0.07,-0.04 0.14,-0.05 0.23,-0.05 0.05,0 0.2,0.01 0.35,0.01 0.14,0.01 0.29,0.01 0.43,0.01 0.14,0 0.28,0 0.43,-0.01 0.18,0 0.35,-0.01 0.45,-0.01 0.07,0 0.15,0.01 0.21,0.04 v 0 c 0.14,0.06 0.21,0.17 0.21,0.33 0,0.14 -0.06,0.24 -0.18,0.31 -0.07,0.04 -0.14,0.05 -0.23,0.05 -0.04,0 -0.1,0.01 -0.16,0.02 -0.06,0.01 -0.12,0.03 -0.17,0.05 v 0 c -0.1,0.04 -0.2,0.09 -0.31,0.16 -0.12,0.08 -0.25,0.19 -0.4,0.34 -0.14,0.13 -0.59,0.57 -0.99,0.97 -0.16,0.17 -0.33,0.33 -0.45,0.46 0.18,0.2 0.44,0.5 0.72,0.8 0.48,0.52 0.98,1.05 1.13,1.19 v 0 l 0.06,0.05 c 0.29,0.29 0.59,0.58 0.92,0.7 v 0.01 c 0.09,0.03 0.16,0.05 0.22,0.07 0.06,0.01 0.11,0.02 0.14,0.02 0.05,0 0.11,0 0.16,0.02 0.05,-0.01 0.1,-0.02 0.17,-0.02 0.05,0 0.09,-0.01 0.12,-0.01 0.01,0 0.03,0 0.04,-0.01 0.02,-0.04 0.02,-0.1 0.04,-0.16 v 0 c 0.03,-0.3 0.03,-0.89 0.03,-1.58 v -1.32 c 0,-0.66 0,-1.05 0,-1.14 0,-0.21 -0.01,-0.32 -0.01,-0.44 v -0.01 c -0.01,-0.07 -0.01,-0.12 -0.02,-0.13 -0.01,-0.01 -0.03,-0.01 -0.07,-0.02 h -0.01 c -0.01,-0.01 -0.04,-0.01 -0.07,-0.01 H 66.1 c -0.04,0 -0.09,-0.01 -0.14,-0.01 -0.09,0 -0.16,-0.01 -0.23,-0.04 -0.13,-0.06 -0.2,-0.17 -0.2,-0.32 0,-0.17 0.07,-0.28 0.23,-0.33 0.07,-0.03 0.14,-0.04 0.23,-0.04 0.2,0 0.48,0.01 0.72,0.02 0.13,0 0.25,0 0.37,0 h 0.98 c 0.41,0 0.8,0 0.88,0 0.07,-0.01 0.13,-0.01 0.18,-0.02 0.04,-0.01 0.07,-0.01 0.1,-0.02 h 0.01 c 0.01,0 0.01,0 0.01,-0.01 0.05,-0.01 0.1,-0.03 0.17,-0.03 0.15,0 0.24,0.07 0.3,0.18 v 0 c 0.03,0.07 0.04,0.13 0.04,0.19 0,0.04 0,0.07 -0.01,0.12 -0.02,0.06 -0.03,0.17 -0.05,0.39 v 0.01 l -0.01,0.13 c -0.01,0.14 -0.02,0.31 -0.03,0.38 v 0.01 c -0.01,0.05 -0.03,0.11 -0.07,0.17 -0.06,0.09 -0.16,0.16 -0.3,0.16 -0.15,0 -0.24,-0.06 -0.31,-0.18 v 0 c -0.04,-0.07 -0.05,-0.14 -0.05,-0.23 0,-0.02 -0.01,-0.06 -0.02,-0.1 0,-0.02 0,-0.04 -0.01,-0.05 v -0.01 c -0.01,-0.02 -0.01,-0.02 -0.01,-0.02 -0.04,-0.03 -0.11,-0.05 -0.25,-0.06 -0.05,-0.01 -0.2,-0.02 -0.36,-0.02 -0.14,0 -0.3,-0.01 -0.43,-0.01 v 1.47 h 0.35 c 0.25,-0.01 0.49,-0.01 0.58,-0.02 v 0 c 0.08,0 0.13,-0.01 0.17,-0.02 v 0 0 0 0 0 0 h 0.01 c 0.1,-0.12 0.16,-0.19 0.33,-0.19 0.09,0 0.18,0.03 0.25,0.1 v 0 c 0.07,0.07 0.1,0.15 0.1,0.26 0,0.03 0,0.07 -0.01,0.12 -0.01,0.07 -0.03,0.21 -0.05,0.45 v 0 c 0,0.09 -0.01,0.19 -0.02,0.27 v 0 c 0,0.1 -0.01,0.19 -0.01,0.22 0,0.04 0,0.1 -0.02,0.18 v 0 c -0.05,0.15 -0.14,0.26 -0.35,0.26 -0.12,0 -0.21,-0.05 -0.28,-0.13 v 0 c -0.06,-0.07 -0.08,-0.15 -0.08,-0.23 l -0.01,-0.06 v 0 c 0,-0.05 0,-0.1 -0.01,-0.15 -0.01,-0.01 -0.01,-0.02 -0.02,-0.03 -0.02,-0.01 -0.07,-0.03 -0.15,-0.04 -0.05,0 -0.18,-0.01 -0.35,-0.01 -0.13,0 -0.29,-0.01 -0.43,-0.01 v 0.37 0.01 l -0.01,0.3 c 0,0.31 0,0.7 0.01,0.85 v 0 c 0,0.17 0.01,0.26 0.04,0.28 0.07,0.05 0.24,0.07 0.56,0.07 0.1,0 0.22,0 0.33,-0.01 0.1,-0.01 0.2,-0.03 0.26,-0.05 0.04,-0.02 0.07,-0.05 0.09,-0.08 0.03,-0.06 0.06,-0.14 0.08,-0.26 v -0.01 c 0.01,-0.08 0.03,-0.14 0.07,-0.2 v 0 c 0.08,-0.11 0.17,-0.16 0.3,-0.16 0.36,0 0.36,0.2 0.36,0.44 0,0.1 -0.01,0.28 -0.03,0.46 v 0 c -0.02,0.18 -0.05,0.36 -0.07,0.45 v 0 c -0.12,0.43 -0.23,0.43 -0.7,0.43 -0.68,0 -1.16,-0.02 -1.53,-0.04 -0.2,-0.01 -0.37,-0.01 -0.56,-0.01 -0.1,0 -0.21,0 -0.35,0.01 -0.21,0 -0.45,0.01 -0.6,0.01 -0.08,0 -0.14,-0.01 -0.2,-0.03 -0.07,0.02 -0.14,0.03 -0.24,0.03 h -0.66 c -0.09,0 -0.16,0 -0.29,0 -0.09,0 -0.17,-0.01 -0.26,-0.02 -0.25,-0.02 -0.44,-0.08 -0.62,-0.19 -0.16,-0.09 -0.31,-0.22 -0.48,-0.37 -0.15,-0.13 -0.49,-0.51 -0.85,-0.92 -0.26,-0.3 -0.53,-0.62 -0.75,-0.87 0,0.36 0,0.68 0,0.83 0,0.26 0.01,0.48 0.02,0.65 v 0 c 0,0.05 0.01,0.1 0.02,0.13 0.05,0.01 0.11,0.01 0.18,0.02 0.05,0 0.1,0.01 0.14,0.01 0.09,0 0.17,0.02 0.23,0.06 v 0 c 0.11,0.06 0.17,0.17 0.17,0.3 0,0.14 -0.07,0.25 -0.2,0.31 -0.07,0.04 -0.15,0.06 -0.24,0.06 -0.23,0 -0.52,-0.01 -0.75,-0.02 -0.13,0 -0.24,0 -0.34,0 -0.1,0 -0.21,0 -0.34,0.01 -0.22,0 -0.46,0.01 -0.61,0.01 -0.09,0 -0.17,-0.02 -0.24,-0.05 v 0 c -0.14,-0.07 -0.21,-0.17 -0.21,-0.32 0,-0.14 0.05,-0.24 0.18,-0.31 v 0 c 0.07,-0.03 0.14,-0.05 0.24,-0.05 0.05,0 0.09,-0.01 0.12,-0.01 0.01,0 0.03,0 0.04,-0.01 0.02,-0.04 0.03,-0.1 0.04,-0.16 v 0 c 0.03,-0.3 0.03,-0.89 0.03,-1.58 v -1.32 c 0,-0.66 0,-1.05 0,-1.14 0,-0.21 0,-0.32 -0.01,-0.44 v -0.01 c -0.01,-0.07 -0.01,-0.12 -0.02,-0.13 0,-0.01 -0.03,-0.01 -0.07,-0.02 h -0.01 c -0.01,-0.01 -0.04,-0.01 -0.07,-0.01 v 0 c -0.05,0 -0.1,-0.01 -0.15,-0.01 -0.09,0 -0.16,-0.01 -0.23,-0.04 -0.13,-0.06 -0.2,-0.17 -0.2,-0.32 0,-0.17 0.08,-0.28 0.23,-0.33 0.07,-0.03 0.14,-0.04 0.23,-0.04 0.21,0 0.5,0.01 0.73,0.02 0.12,0 0.23,0 0.33,0 0.11,0 0.24,0 0.37,-0.01 0.21,0 0.43,-0.01 0.54,-0.01 0.09,0 0.16,0.01 0.23,0.04 v 0 c 0.15,0.06 0.23,0.16 0.23,0.33 0,0.15 -0.07,0.25 -0.19,0.31 -0.06,0.04 -0.14,0.05 -0.21,0.05 -0.06,0 -0.09,0.01 -0.16,0.02 h -0.01 v 0 c 0,0 0,-0.01 0,-0.01 -0.02,0.02 -0.02,0.08 -0.03,0.16 z m -0.01,2.07 0.06,0.09 v 0 c 0.09,0.12 0.63,0.76 1.13,1.33 0.35,0.4 0.68,0.76 0.8,0.87 0.15,0.13 0.27,0.24 0.39,0.31 0.11,0.06 0.22,0.1 0.38,0.11 0.03,0 0.06,0 0.09,0.01 -0.2,-0.15 -0.38,-0.32 -0.56,-0.5 l -0.05,-0.05 v 0 c -0.17,-0.16 -0.68,-0.7 -1.15,-1.21 -0.41,-0.44 -0.79,-0.87 -0.93,-1.05 l -0.03,-0.05 c -0.06,0.05 -0.1,0.1 -0.13,0.14 z m 1.97,-2.25 c 0.05,-0.04 0.09,-0.08 0.14,-0.12 h -0.12 c 0,0.04 -0.01,0.08 -0.02,0.12 z m -0.32,-0.58 z m 3.5,3.66 c 0,0.71 0,1.31 -0.04,1.64 v 0.01 c -0.01,0.08 -0.03,0.16 -0.05,0.23 0.12,-0.01 0.2,-0.01 0.24,-0.01 0.12,0 0.27,0 0.44,0.01 -0.18,-0.16 -0.23,-0.37 -0.24,-0.7 0,-0.16 0,-0.56 0,-0.87 v -0.31 0 -0.59 c 0,-0.07 0.01,-0.13 0.04,-0.19 v 0 c 0.02,-0.03 0.03,-0.06 0.05,-0.08 -0.02,-0.02 -0.03,-0.04 -0.04,-0.06 -0.04,-0.07 -0.05,-0.13 -0.05,-0.21 v -1.9 c 0,-0.06 0.01,-0.11 0.03,-0.16 h -0.19 c -0.04,0 -0.14,0 -0.25,-0.01 0.02,0.08 0.04,0.17 0.04,0.26 v 0 c 0.01,0.12 0.01,0.24 0.01,0.47 0.01,0.37 0.01,0.66 0.01,1.15 z m 2.05,-1.37 v -0.01 0 z M 69,98.79 c 0.05,0.05 0.07,0.09 0.1,0.15 v 0 c 0.04,0.06 0.07,0.12 0.11,0.2 v 0 c 0.03,0.07 0.07,0.15 0.12,0.26 v 0 c 0.04,0.07 0.05,0.14 0.05,0.19 0,0.08 -0.02,0.14 -0.05,0.19 -0.04,0.06 -0.09,0.1 -0.14,0.12 -0.06,0.03 -0.12,0.04 -0.17,0.04 -0.02,0 -0.03,0 -0.06,0 -0.03,0 -0.08,-0.01 -0.16,0 -0.16,0.02 -0.36,0.08 -0.55,0.14 -0.25,0.09 -0.48,0.19 -0.63,0.27 h -0.01 l -0.05,0.03 v 0 c -0.07,0.04 -0.13,0.07 -0.21,0.07 -0.07,0 -0.17,-0.04 -0.24,-0.1 v 0 c -0.06,-0.06 -0.1,-0.14 -0.1,-0.25 0,-0.08 0.03,-0.16 0.08,-0.22 v 0 c 0.02,-0.04 0.05,-0.06 0.07,-0.09 h 0.01 c 0.12,-0.12 0.33,-0.29 0.54,-0.45 0.3,-0.23 0.61,-0.46 0.71,-0.53 v 0 c 0.04,-0.03 0.09,-0.06 0.13,-0.07 0.07,-0.04 0.14,-0.05 0.19,-0.05 0.11,0 0.18,0.03 0.26,0.1 z m 4.02,7.97 c -0.22,0.06 -0.45,0.08 -0.67,0.08 -0.24,0 -0.45,-0.02 -0.64,-0.05 -0.21,-0.04 -0.4,-0.09 -0.58,-0.18 v 0 c -0.12,-0.05 -0.2,-0.1 -0.26,-0.21 v 0 c -0.05,-0.09 -0.07,-0.18 -0.07,-0.32 0,-0.41 0.03,-0.87 0.04,-1 v 0 0 0 c 0.01,-0.09 0.02,-0.17 0.05,-0.24 0.06,-0.15 0.17,-0.24 0.34,-0.24 0.18,0 0.28,0.09 0.34,0.23 v 0 c 0.03,0.07 0.04,0.14 0.04,0.2 0,0.03 0,0.07 0.01,0.12 0.01,0.06 0.03,0.13 0.04,0.18 0.06,0.19 0.15,0.32 0.27,0.4 0.15,0.1 0.33,0.15 0.52,0.15 0.24,0 0.41,-0.07 0.52,-0.17 0.13,-0.11 0.2,-0.26 0.2,-0.4 0,-0.14 -0.03,-0.27 -0.1,-0.41 -0.09,-0.16 -0.25,-0.34 -0.53,-0.56 l -0.35,-0.27 c -0.44,-0.34 -0.74,-0.67 -0.94,-0.99 -0.2,-0.34 -0.29,-0.67 -0.29,-1.03 0,-0.51 0.22,-0.95 0.6,-1.26 0.35,-0.29 0.85,-0.46 1.45,-0.46 0.25,0 0.47,0.02 0.65,0.04 0.19,0.03 0.32,0.07 0.42,0.09 0.08,0.02 0.14,0.05 0.19,0.09 0.09,0.07 0.14,0.17 0.14,0.29 0,0.03 0,0.08 -0.01,0.14 v 0 c 0,0.13 -0.02,0.35 -0.02,0.77 0,0.11 -0.01,0.2 -0.04,0.27 -0.06,0.18 -0.17,0.25 -0.34,0.25 -0.14,0 -0.25,-0.06 -0.32,-0.19 v 0 c -0.04,-0.07 -0.05,-0.15 -0.05,-0.24 0,-0.02 -0.01,-0.08 -0.04,-0.16 -0.02,-0.05 -0.05,-0.1 -0.09,-0.15 l -0.01,-0.01 c -0.03,-0.05 -0.09,-0.11 -0.18,-0.16 v 0 c -0.09,-0.05 -0.22,-0.09 -0.4,-0.09 -0.2,0 -0.36,0.05 -0.46,0.14 -0.09,0.08 -0.14,0.2 -0.14,0.34 0,0.11 0.03,0.21 0.1,0.32 0.11,0.14 0.29,0.31 0.58,0.53 v 0 l 0.21,0.15 c 0.48,0.37 0.82,0.7 1.03,1.03 0.23,0.36 0.33,0.72 0.33,1.14 0,0.28 -0.06,0.59 -0.23,0.89 -0.13,0.24 -0.33,0.48 -0.62,0.67 v 0 c -0.22,0.14 -0.45,0.23 -0.69,0.28 z m 0.67,-1.05 c 0.04,-0.06 0.09,-0.12 0.12,-0.18 0.11,-0.2 0.15,-0.42 0.15,-0.61 0,-0.31 -0.07,-0.57 -0.23,-0.82 -0.18,-0.27 -0.46,-0.55 -0.89,-0.87 l -0.21,-0.16 v 0 c -0.34,-0.25 -0.56,-0.46 -0.7,-0.65 -0.16,-0.23 -0.22,-0.44 -0.22,-0.67 0,-0.11 0.01,-0.2 0.04,-0.3 -0.12,0.17 -0.19,0.37 -0.19,0.6 0,0.25 0.06,0.49 0.2,0.72 0.16,0.26 0.42,0.53 0.8,0.83 l 0.35,0.27 c 0.35,0.28 0.56,0.51 0.68,0.74 0.14,0.25 0.17,0.48 0.17,0.7 0,0.13 -0.02,0.27 -0.07,0.4 z m -2.25,0.39 c -0.01,-0.01 -0.02,-0.03 -0.04,-0.04 v 0.02 z m -0.05,0 v 0.01 0 z m 8.52,0.68 c -0.28,0.04 -0.57,0.06 -0.84,0.06 -0.54,0 -1.04,-0.06 -1.51,-0.21 -0.47,-0.14 -0.89,-0.36 -1.27,-0.69 v 0 c -0.41,-0.36 -0.67,-0.78 -0.83,-1.2 -0.15,-0.42 -0.21,-0.85 -0.21,-1.25 0,-0.33 0.06,-0.79 0.26,-1.27 0.15,-0.35 0.38,-0.7 0.72,-1.02 0.3,-0.27 0.65,-0.49 1.08,-0.64 0.42,-0.15 0.91,-0.23 1.51,-0.23 0.24,0 0.43,0 0.61,0.02 0.17,0.01 0.33,0.03 0.52,0.05 v 0 c 0.16,0.02 0.28,0.05 0.4,0.07 0.13,0.03 0.25,0.05 0.34,0.06 v 0 c 0.1,0.01 0.18,0.04 0.24,0.09 h 0.01 c 0.09,0.08 0.14,0.19 0.14,0.3 0,0.04 -0.01,0.07 -0.01,0.13 v 0 c -0.01,0.06 -0.02,0.16 -0.03,0.3 v 0 c -0.01,0.12 -0.01,0.27 -0.01,0.42 -0.01,0.15 -0.01,0.31 -0.01,0.4 v 0 c -0.01,0.09 -0.02,0.16 -0.05,0.23 v 0 c -0.07,0.14 -0.17,0.22 -0.34,0.22 -0.17,0 -0.28,-0.08 -0.34,-0.23 -0.03,-0.07 -0.04,-0.15 -0.04,-0.24 v 0 c 0,-0.08 -0.02,-0.17 -0.06,-0.25 v 0 c -0.03,-0.09 -0.08,-0.16 -0.15,-0.23 v 0 c -0.09,-0.1 -0.27,-0.2 -0.49,-0.26 -0.23,-0.07 -0.52,-0.12 -0.82,-0.12 -0.3,0 -0.54,0.04 -0.74,0.11 v 0 c -0.19,0.06 -0.34,0.16 -0.48,0.28 v 0 c -0.23,0.22 -0.38,0.47 -0.47,0.76 -0.09,0.3 -0.13,0.63 -0.13,0.98 0,0.71 0.24,1.27 0.59,1.66 0.43,0.48 1.01,0.72 1.49,0.72 0.31,0 0.56,-0.02 0.75,-0.07 0.16,-0.05 0.3,-0.12 0.4,-0.25 h 0.01 c 0.04,-0.05 0.08,-0.11 0.11,-0.17 0.04,-0.07 0.06,-0.14 0.08,-0.19 0.01,-0.09 0.03,-0.16 0.07,-0.22 0.08,-0.13 0.17,-0.17 0.31,-0.17 0.15,0 0.25,0.07 0.31,0.17 0.05,0.08 0.06,0.16 0.06,0.24 0,0.06 -0.03,0.33 -0.07,0.6 -0.04,0.18 -0.07,0.37 -0.11,0.49 -0.03,0.1 -0.06,0.18 -0.12,0.25 v 0 c -0.07,0.07 -0.14,0.11 -0.25,0.16 v 0 c -0.16,0.07 -0.39,0.12 -0.63,0.14 z m -2.07,-0.69 c -0.28,-0.15 -0.55,-0.35 -0.78,-0.61 -0.44,-0.5 -0.74,-1.18 -0.74,-2.06 0,-0.4 0.03,-0.79 0.15,-1.16 0.1,-0.31 0.26,-0.61 0.49,-0.87 -0.12,0.08 -0.22,0.16 -0.33,0.25 -0.27,0.25 -0.45,0.53 -0.57,0.82 -0.16,0.38 -0.21,0.76 -0.21,1.03 0,0.33 0.04,0.69 0.17,1.04 0.13,0.34 0.33,0.67 0.66,0.96 v 0 c 0.31,0.27 0.66,0.45 1.06,0.57 0.03,0.02 0.07,0.02 0.1,0.03 z m 2.38,-5.03 c 0.09,0.05 0.16,0.11 0.23,0.17 0,-0.05 0,-0.09 0.01,-0.13 -0.08,-0.01 -0.15,-0.03 -0.22,-0.04 z m 3.82,5.7 c -0.23,0.06 -0.46,0.08 -0.68,0.08 -0.23,0 -0.44,-0.02 -0.64,-0.05 -0.2,-0.04 -0.39,-0.09 -0.58,-0.18 v 0 c -0.12,-0.05 -0.2,-0.1 -0.26,-0.21 -0.05,-0.09 -0.06,-0.18 -0.06,-0.32 0,-0.38 0.03,-0.81 0.04,-0.97 v 0 -0.03 0 c 0,-0.09 0.02,-0.17 0.04,-0.24 0.07,-0.15 0.17,-0.24 0.35,-0.24 0.18,0 0.28,0.09 0.34,0.23 v 0 c 0.02,0.07 0.03,0.14 0.03,0.2 0,0.03 0.01,0.07 0.01,0.12 0.02,0.06 0.03,0.13 0.05,0.18 0.05,0.19 0.15,0.32 0.27,0.4 0.14,0.1 0.32,0.15 0.52,0.15 0.23,0 0.4,-0.07 0.52,-0.17 v 0 c 0.13,-0.11 0.19,-0.26 0.19,-0.4 0,-0.14 -0.02,-0.27 -0.1,-0.41 v 0 c -0.09,-0.16 -0.25,-0.34 -0.52,-0.56 l -0.35,-0.27 c -0.45,-0.34 -0.75,-0.67 -0.94,-0.99 -0.21,-0.34 -0.29,-0.67 -0.29,-1.03 0,-0.51 0.21,-0.95 0.59,-1.26 0.36,-0.29 0.86,-0.46 1.45,-0.46 0.26,0 0.47,0.02 0.66,0.04 0.18,0.03 0.32,0.07 0.42,0.09 v 0 z m 0.68,-0.28 c -0.22,0.14 -0.45,0.23 -0.68,0.28 z m 0,0 z m -0.02,-0.77 c 0.05,-0.06 0.09,-0.12 0.12,-0.18 0.11,-0.2 0.15,-0.42 0.15,-0.61 0,-0.31 -0.07,-0.57 -0.23,-0.82 -0.17,-0.27 -0.46,-0.55 -0.89,-0.87 l -0.21,-0.16 v 0 c -0.34,-0.25 -0.55,-0.46 -0.69,-0.65 -0.17,-0.23 -0.23,-0.44 -0.23,-0.67 0,-0.11 0.02,-0.21 0.04,-0.3 -0.12,0.17 -0.18,0.37 -0.18,0.6 0,0.25 0.05,0.49 0.2,0.72 0.15,0.26 0.41,0.53 0.8,0.83 l 0.34,0.27 c 0.35,0.28 0.56,0.52 0.68,0.74 v 0 c 0.14,0.25 0.18,0.48 0.18,0.7 0,0.13 -0.03,0.27 -0.08,0.4 z m 0.65,0.1 c -0.13,0.24 -0.34,0.48 -0.63,0.67 z m 0.22,-0.89 c 0,0.28 -0.06,0.59 -0.22,0.89 z m -0.33,-1.14 c 0.23,0.36 0.33,0.72 0.33,1.14 z m -1.03,-1.03 c 0.49,0.37 0.82,0.7 1.03,1.03 z M 84,102.6 v 0 l 0.21,0.15 z m -0.57,-0.53 c 0.1,0.14 0.28,0.31 0.57,0.53 z m -0.11,-0.32 c 0,0.11 0.03,0.21 0.11,0.32 z m 0.15,-0.34 c -0.1,0.08 -0.15,0.2 -0.15,0.34 z m 0.45,-0.14 c -0.2,0 -0.35,0.05 -0.45,0.14 z m 0.41,0.09 c -0.1,-0.05 -0.22,-0.09 -0.41,-0.09 z m 0.18,0.16 c -0.04,-0.05 -0.1,-0.11 -0.18,-0.16 z m 0,0.01 v -0.01 z m 0.09,0.15 c -0.02,-0.05 -0.05,-0.1 -0.09,-0.15 z m 0.04,0.16 c 0,-0.02 -0.01,-0.08 -0.04,-0.16 z m 0.05,0.24 c -0.03,-0.07 -0.05,-0.15 -0.05,-0.24 z m 0.01,0 h -0.01 z m 0.31,0.19 c -0.14,0 -0.25,-0.06 -0.31,-0.19 z m 0.35,-0.25 c -0.07,0.18 -0.18,0.25 -0.35,0.25 z m 0.03,-0.27 c 0,0.12 -0.01,0.2 -0.03,0.27 z m 0.03,-0.77 c -0.01,0.13 -0.03,0.35 -0.03,0.77 z m 0.01,-0.14 c 0,0.03 -0.01,0.08 -0.01,0.14 z m -0.15,-0.29 c 0.1,0.07 0.15,0.17 0.15,0.29 z m -2.82,5.55 c -0.02,-0.01 -0.03,-0.03 -0.04,-0.04 v 0.02 z m 7.07,-1.9 c 0.02,0.01 0.04,0.02 0.06,0.03 0.06,0.04 0.1,0.1 0.13,0.17 v 0.01 l 0.6,1.59 v 0 c 0.01,0.02 0.02,0.03 0.02,0.05 v 0 c 0.01,0.03 0.01,0.05 0.02,0.07 0.16,0.01 0.32,0.01 0.46,0.01 -0.09,-0.13 -0.19,-0.32 -0.3,-0.57 -0.27,-0.64 -0.77,-1.91 -1.19,-2.96 -0.25,-0.62 -0.46,-1.16 -0.59,-1.47 l -0.27,0.69 c 0.02,-0.01 0.05,-0.01 0.08,-0.01 0.25,0 0.29,0.15 0.32,0.28 l 0.68,1.85 v 0.01 c 0.01,0.03 0.02,0.07 0.02,0.1 0,0.05 -0.01,0.1 -0.04,0.15 z m 0.19,1.87 -0.5,-1.31 h -1.37 l -0.36,0.95 v 0 c -0.04,0.11 -0.07,0.21 -0.08,0.29 h 0.11 c 0.09,0 0.16,0.01 0.23,0.05 v 0 c 0.13,0.07 0.18,0.17 0.18,0.31 0,0.15 -0.07,0.25 -0.19,0.32 -0.08,0.04 -0.15,0.05 -0.24,0.05 -0.1,0 -0.26,0 -0.42,-0.01 -0.12,-0.01 -0.25,-0.01 -0.38,-0.01 -0.04,0 -0.09,0 -0.15,0 -0.19,0.01 -0.49,0.02 -0.74,0.02 -0.09,0 -0.17,-0.01 -0.24,-0.05 -0.14,-0.06 -0.2,-0.17 -0.2,-0.32 0,-0.14 0.05,-0.24 0.16,-0.3 v 0 c 0.07,-0.05 0.14,-0.06 0.23,-0.06 0.03,0 0.06,-0.01 0.09,-0.01 0.03,0 0.07,0 0.1,-0.01 v 0 c 0.09,-0.01 0.16,-0.05 0.21,-0.11 0.07,-0.08 0.13,-0.22 0.2,-0.38 l 1.89,-4.73 v -0.01 c 0.05,-0.12 0.09,-0.21 0.14,-0.28 v 0 c 0.09,-0.14 0.2,-0.2 0.35,-0.2 0.13,0 0.24,0.05 0.33,0.17 0.04,0.06 0.08,0.14 0.13,0.25 0.07,0.17 0.35,0.87 0.68,1.69 0.42,1.05 0.92,2.3 1.19,2.95 0.13,0.3 0.23,0.46 0.32,0.56 0.06,0.05 0.1,0.07 0.13,0.08 0.05,0.01 0.09,0.02 0.12,0.02 0.04,0 0.09,0.01 0.14,0.01 0.07,0 0.13,0 0.2,0.04 v 0 c 0.05,0.02 0.09,0.05 0.12,0.08 0.02,-0.02 0.05,-0.05 0.09,-0.07 h 0.01 c 0.06,-0.04 0.13,-0.05 0.23,-0.05 0.05,0 0.09,-0.01 0.12,-0.01 0.01,0 0.03,0 0.04,-0.01 0.02,-0.04 0.03,-0.1 0.03,-0.16 v 0 c 0.04,-0.3 0.04,-0.89 0.04,-1.58 v -1.32 c 0,-0.67 0,-1.06 0,-1.14 0,-0.21 -0.01,-0.32 -0.01,-0.45 -0.01,-0.07 -0.01,-0.12 -0.02,-0.13 -0.01,-0.01 -0.03,-0.01 -0.07,-0.02 h -0.01 c -0.02,-0.01 -0.04,-0.01 -0.07,-0.01 v 0 c -0.05,0 -0.1,-0.01 -0.15,-0.01 -0.09,0 -0.16,-0.01 -0.23,-0.04 -0.13,-0.06 -0.2,-0.17 -0.2,-0.32 0,-0.17 0.07,-0.28 0.23,-0.33 0.07,-0.03 0.14,-0.04 0.23,-0.04 0.22,0 0.52,0.01 0.75,0.02 0.11,0 0.19,0 0.28,0 0.22,0 0.38,0 0.53,-0.01 0.15,0 0.29,-0.01 0.39,-0.01 0.62,0 1.05,0.15 1.34,0.35 0.46,0.32 0.56,0.77 0.56,1.08 0,0.38 -0.1,0.68 -0.28,0.93 -0.07,0.11 -0.15,0.21 -0.24,0.31 0.25,0.13 0.5,0.32 0.69,0.55 0.26,0.31 0.44,0.7 0.44,1.16 0,0.52 -0.22,1.05 -0.69,1.43 -0.37,0.31 -0.91,0.52 -1.62,0.52 -0.08,0 -0.29,-0.02 -0.51,-0.03 -0.23,-0.01 -0.46,-0.02 -0.59,-0.02 -0.1,0 -0.21,0 -0.34,0.01 -0.22,0 -0.46,0.01 -0.61,0.01 -0.09,0 -0.18,-0.02 -0.24,-0.05 -0.05,-0.02 -0.09,-0.05 -0.12,-0.09 -0.05,0.06 -0.12,0.09 -0.23,0.12 -0.08,0.02 -0.18,0.02 -0.34,0.02 -0.08,0 -0.19,0 -0.59,0 -0.25,0 -0.54,-0.01 -0.84,-0.02 h -0.01 -0.04 c -0.29,-0.01 -0.47,-0.03 -0.47,-0.35 0,-0.13 0.04,-0.22 0.14,-0.29 z m -2.19,-1.9 -0.02,0.04 c 0.01,-0.01 0.02,-0.01 0.03,-0.02 0,-0.01 -0.01,-0.01 -0.01,-0.02 z m -0.72,1.77 c -0.03,0.06 -0.06,0.12 -0.09,0.17 h 0.08 c 0,-0.02 0,-0.03 0,-0.05 0,-0.03 0.01,-0.07 0.01,-0.12 z m 1.73,-3.01 -0.32,0.86 h 0.63 z m 4.72,1.31 c 0,0.7 0,1.31 -0.04,1.64 v 0.01 c -0.01,0.08 -0.03,0.16 -0.04,0.23 0.11,-0.01 0.2,-0.01 0.23,-0.01 0.07,0 0.19,0 0.33,0.01 -0.05,-0.06 -0.09,-0.13 -0.12,-0.21 -0.05,-0.15 -0.06,-0.33 -0.06,-0.61 v -1.79 c 0,-0.09 0.03,-0.16 0.08,-0.22 -0.05,-0.07 -0.08,-0.14 -0.08,-0.24 v -1.87 c 0,-0.05 0.01,-0.09 0.02,-0.13 -0.06,0 -0.13,0 -0.19,0 -0.02,0 -0.09,0 -0.19,0 0.03,0.07 0.04,0.16 0.04,0.25 0.01,0.12 0.01,0.24 0.01,0.47 0.01,0.38 0.01,0.67 0.01,1.15 z m 2.49,1.54 h 0.01 c 0.31,-0.26 0.46,-0.62 0.46,-0.97 0,-0.31 -0.12,-0.57 -0.29,-0.77 -0.21,-0.25 -0.49,-0.43 -0.77,-0.54 0.23,0.19 0.39,0.42 0.51,0.65 0.16,0.34 0.22,0.7 0.22,1 0,0.25 -0.05,0.46 -0.14,0.63 z m -0.35,-3.26 c 0.01,-0.02 0.02,-0.04 0.04,-0.06 0.11,-0.16 0.18,-0.35 0.18,-0.6 0,-0.17 -0.06,-0.42 -0.31,-0.59 -0.08,-0.05 -0.17,-0.1 -0.27,-0.14 0.01,0.02 0.02,0.03 0.03,0.04 0.24,0.3 0.35,0.7 0.35,1.04 0,0.11 -0.01,0.21 -0.02,0.31 z m -1.22,-1.18 h -0.02 v 1.51 c 0.03,0 0.07,0 0.11,0 0.1,0 0.19,0 0.25,-0.02 0.04,-0.01 0.07,-0.02 0.1,-0.05 l 0.01,-0.01 c 0.06,-0.04 0.1,-0.11 0.14,-0.2 0.03,-0.09 0.05,-0.22 0.05,-0.36 0,-0.22 -0.07,-0.48 -0.21,-0.66 -0.1,-0.13 -0.24,-0.21 -0.43,-0.21 z m 0.95,4.3 c 0.1,-0.1 0.16,-0.25 0.16,-0.49 0,-0.23 -0.04,-0.49 -0.16,-0.74 -0.1,-0.19 -0.24,-0.37 -0.44,-0.52 v 0 c -0.06,-0.04 -0.11,-0.06 -0.18,-0.08 v 0 c -0.07,-0.03 -0.17,-0.04 -0.29,-0.05 h -0.06 v 1.54 c 0,0.22 0.01,0.35 0.03,0.42 0,0 0.01,0.01 0.05,0.03 v 0 c 0.08,0.03 0.15,0.04 0.21,0.05 0.07,0.01 0.15,0.02 0.23,0.02 0.14,0 0.33,-0.05 0.45,-0.18 z m 5.6,-1.44 c 0.02,0.01 0.03,0.02 0.05,0.03 0.06,0.04 0.11,0.1 0.14,0.17 v 0.01 l 0.6,1.6 v 0 c 0.01,0.02 0.01,0.03 0.02,0.05 0.01,0.02 0.01,0.04 0.01,0.06 0.17,0.01 0.32,0.01 0.47,0.01 -0.1,-0.13 -0.2,-0.32 -0.3,-0.57 -0.27,-0.65 -0.78,-1.92 -1.2,-2.97 -0.25,-0.61 -0.46,-1.15 -0.58,-1.46 l -0.28,0.69 c 0.03,-0.01 0.06,-0.01 0.08,-0.01 0.25,0 0.29,0.14 0.33,0.28 l 0.67,1.85 v 0.01 c 0.01,0.03 0.02,0.07 0.02,0.1 0,0.05 -0.01,0.1 -0.03,0.15 z m 0.18,1.87 -0.49,-1.31 h -1.38 l -0.35,0.95 v 0 c -0.05,0.11 -0.08,0.21 -0.09,0.29 h 0.11 c 0.1,0 0.17,0.01 0.24,0.05 v 0 c 0.13,0.07 0.17,0.17 0.17,0.31 0,0.15 -0.06,0.25 -0.19,0.32 v 0 c -0.07,0.04 -0.15,0.05 -0.23,0.05 -0.11,0 -0.27,0 -0.42,-0.01 -0.13,-0.01 -0.25,-0.01 -0.38,-0.01 -0.05,0 -0.09,0 -0.16,0 -0.19,0.01 -0.48,0.02 -0.73,0.02 -0.1,0 -0.17,-0.01 -0.24,-0.05 -0.14,-0.06 -0.21,-0.17 -0.21,-0.32 0,-0.14 0.06,-0.24 0.17,-0.3 v 0 c 0.06,-0.05 0.14,-0.06 0.22,-0.06 0.03,0 0.07,-0.01 0.1,-0.01 0.03,0 0.07,0 0.1,-0.01 v 0 c 0.09,-0.01 0.15,-0.05 0.2,-0.11 v 0 c 0.08,-0.08 0.14,-0.22 0.2,-0.38 v 0 l 1.89,-4.74 h 0.01 c 0.05,-0.13 0.09,-0.22 0.13,-0.28 0.1,-0.14 0.2,-0.2 0.35,-0.2 0.14,0 0.24,0.05 0.33,0.17 0.05,0.06 0.09,0.14 0.13,0.25 0.08,0.17 0.35,0.86 0.68,1.68 0.42,1.05 0.92,2.31 1.2,2.96 0.12,0.3 0.23,0.47 0.32,0.56 0.05,0.05 0.09,0.07 0.12,0.08 0.05,0.01 0.09,0.02 0.13,0.02 0.04,0 0.08,0.01 0.13,0.01 0.07,0 0.14,0 0.21,0.04 0.12,0.06 0.19,0.16 0.19,0.32 0,0.18 -0.08,0.3 -0.3,0.35 -0.08,0.02 -0.19,0.02 -0.35,0.02 -0.07,0 -0.18,0 -0.59,0 -0.25,0 -0.54,-0.01 -0.84,-0.02 h -0.01 -0.04 c -0.28,-0.01 -0.47,-0.03 -0.47,-0.35 0,-0.13 0.05,-0.22 0.14,-0.29 z m -2.19,-1.9 -0.01,0.04 c 0,-0.01 0.01,-0.01 0.02,-0.02 0,-0.01 0,-0.01 -0.01,-0.02 z m -0.71,1.77 c -0.03,0.06 -0.06,0.12 -0.1,0.17 H 98 c 0,-0.02 0,-0.03 0,-0.05 0,-0.03 0,-0.07 0.01,-0.12 z m 1.73,-3.01 -0.32,0.86 h 0.63 z"
   id="path28" />
   </g>
   <path
   class="fil7"
   d="m 55.44,104.24 c 0,0.7 0,1.29 -0.03,1.61 -0.03,0.22 -0.07,0.38 -0.22,0.41 -0.07,0.02 -0.16,0.04 -0.27,0.04 -0.09,0 -0.12,0.02 -0.12,0.06 0,0.05 0.05,0.07 0.15,0.07 0.3,0 0.77,-0.02 0.95,-0.02 0.44,0 0.95,0.05 2.09,0.05 0.28,0 0.35,0 0.4,-0.2 0.04,-0.15 0.1,-0.67 0.1,-0.84 0,-0.08 0,-0.14 -0.06,-0.14 -0.05,0 -0.07,0.03 -0.08,0.12 -0.05,0.31 -0.14,0.46 -0.34,0.56 -0.19,0.09 -0.51,0.09 -0.71,0.09 -0.77,0 -0.89,-0.12 -0.9,-0.64 -0.01,-0.22 0,-0.91 0,-1.17 v -0.59 c 0,-0.05 0,-0.08 0.04,-0.08 0.18,0 0.93,0.01 1.07,0.03 0.28,0.02 0.39,0.14 0.42,0.29 0.03,0.1 0.03,0.2 0.04,0.27 0,0.04 0.01,0.07 0.06,0.07 0.07,0 0.07,-0.08 0.07,-0.14 0,-0.06 0.02,-0.36 0.03,-0.51 0.03,-0.38 0.06,-0.51 0.06,-0.55 0,-0.04 -0.02,-0.06 -0.05,-0.06 -0.04,0 -0.07,0.04 -0.12,0.1 -0.07,0.07 -0.18,0.1 -0.37,0.11 -0.17,0.02 -1.04,0.02 -1.2,0.02 -0.05,0 -0.05,-0.03 -0.05,-0.09 v -1.9 c 0,-0.06 0.01,-0.08 0.05,-0.08 0.15,0 0.94,0.01 1.07,0.03 0.38,0.05 0.45,0.13 0.5,0.27 0.04,0.09 0.05,0.22 0.05,0.27 0,0.07 0.01,0.11 0.07,0.11 0.05,0 0.07,-0.05 0.07,-0.09 0.02,-0.08 0.03,-0.42 0.04,-0.49 0.02,-0.35 0.06,-0.44 0.06,-0.49 0,-0.04 -0.01,-0.07 -0.04,-0.07 -0.04,0 -0.09,0.02 -0.12,0.03 -0.07,0.02 -0.18,0.03 -0.33,0.04 -0.14,0.01 -1.64,0.01 -1.88,0.01 -0.22,0 -0.69,-0.02 -1.09,-0.02 -0.11,0 -0.17,0.01 -0.17,0.07 0,0.05 0.05,0.07 0.13,0.07 0.11,0 0.24,0 0.3,0.02 0.25,0.05 0.31,0.17 0.32,0.43 0.01,0.24 0.01,0.45 0.01,1.6 z m 2.26,-5.16 c -0.04,-0.07 -0.05,-0.09 -0.1,-0.09 -0.03,0 -0.08,0.01 -0.15,0.07 -0.13,0.07 -0.92,0.66 -1.22,0.95 -0.04,0.03 -0.07,0.06 -0.07,0.09 0,0.03 0.03,0.05 0.05,0.05 0.01,0 0.07,-0.03 0.13,-0.06 0.27,-0.15 0.87,-0.39 1.28,-0.45 0.16,-0.01 0.22,0 0.26,0 0.04,0 0.09,-0.02 0.04,-0.11 -0.09,-0.2 -0.16,-0.35 -0.22,-0.45 z m 3.74,3.84 c 0,-1.15 0,-1.36 0.02,-1.6 0.01,-0.26 0.07,-0.39 0.27,-0.43 0.09,-0.02 0.14,-0.02 0.22,-0.02 0.06,0 0.1,-0.02 0.1,-0.07 0,-0.06 -0.05,-0.07 -0.16,-0.07 -0.25,0 -0.73,0.02 -0.91,0.02 -0.18,0 -0.66,-0.02 -1.06,-0.02 -0.11,0 -0.16,0.01 -0.16,0.07 0,0.05 0.04,0.07 0.13,0.07 0.1,0 0.23,0 0.29,0.02 0.25,0.05 0.31,0.17 0.32,0.43 0.02,0.24 0.02,0.45 0.02,1.6 v 1.32 c 0,0.7 0,1.29 -0.04,1.61 -0.03,0.22 -0.07,0.38 -0.22,0.41 -0.06,0.02 -0.16,0.04 -0.27,0.04 -0.09,0 -0.12,0.02 -0.12,0.06 0,0.05 0.05,0.07 0.15,0.07 0.3,0 0.78,-0.02 0.95,-0.02 0.19,0 0.67,0.02 1.09,0.02 0.08,0 0.14,-0.02 0.14,-0.07 0,-0.04 -0.04,-0.06 -0.1,-0.06 -0.09,0 -0.26,-0.02 -0.37,-0.04 -0.19,-0.03 -0.25,-0.19 -0.27,-0.4 -0.02,-0.33 -0.02,-0.92 -0.02,-1.62 v -0.68 h 0.04 l 0.08,0.11 c 0.16,0.22 1.64,1.96 1.98,2.25 0.32,0.29 0.52,0.46 0.93,0.5 0.16,0.01 0.29,0.01 0.52,0.01 h 0.66 c 0.14,0 0.18,-0.02 0.18,-0.07 0,-0.05 -0.05,-0.06 -0.1,-0.06 -0.09,0 -0.24,-0.03 -0.47,-0.12 -0.4,-0.16 -0.74,-0.5 -1.07,-0.81 -0.3,-0.28 -1.78,-1.87 -2.05,-2.23 0.26,-0.27 1.4,-1.4 1.63,-1.63 0.32,-0.31 0.58,-0.47 0.82,-0.56 0.14,-0.06 0.33,-0.08 0.43,-0.08 0.08,0 0.11,-0.02 0.11,-0.07 0,-0.06 -0.05,-0.07 -0.12,-0.07 -0.24,0 -0.65,0.02 -0.88,0.02 -0.21,0 -0.62,-0.02 -0.78,-0.02 -0.09,0 -0.12,0.01 -0.12,0.07 0,0.04 0.03,0.06 0.09,0.07 0.08,0.02 0.11,0.07 0.11,0.15 0,0.13 -0.17,0.32 -0.38,0.57 -0.21,0.26 -1.32,1.38 -1.57,1.66 h -0.04 z m 5.15,1.32 c 0,0.7 0,1.29 -0.04,1.61 -0.03,0.22 -0.07,0.38 -0.22,0.41 -0.07,0.02 -0.16,0.04 -0.27,0.04 -0.09,0 -0.12,0.02 -0.12,0.06 0,0.05 0.05,0.07 0.15,0.07 0.3,0 0.78,-0.02 0.95,-0.02 0.45,0 0.95,0.05 2.09,0.05 0.29,0 0.36,0 0.41,-0.2 0.03,-0.15 0.1,-0.67 0.1,-0.84 0,-0.08 0,-0.14 -0.07,-0.14 -0.05,0 -0.06,0.03 -0.08,0.12 -0.05,0.31 -0.14,0.46 -0.34,0.56 -0.19,0.09 -0.51,0.09 -0.71,0.09 -0.77,0 -0.89,-0.12 -0.9,-0.64 -0.01,-0.22 0,-0.91 0,-1.17 v -0.59 c 0,-0.05 0.01,-0.08 0.05,-0.08 0.18,0 0.92,0.01 1.06,0.03 0.28,0.02 0.39,0.14 0.43,0.29 0.02,0.1 0.02,0.2 0.03,0.27 0,0.04 0.01,0.07 0.06,0.07 0.07,0 0.07,-0.08 0.07,-0.14 0,-0.06 0.03,-0.36 0.03,-0.51 0.03,-0.38 0.06,-0.51 0.06,-0.55 0,-0.04 -0.02,-0.06 -0.05,-0.06 -0.04,0 -0.07,0.04 -0.12,0.1 -0.07,0.07 -0.18,0.1 -0.36,0.11 -0.18,0.02 -1.04,0.02 -1.21,0.02 -0.04,0 -0.05,-0.03 -0.05,-0.09 v -1.9 c 0,-0.06 0.01,-0.08 0.05,-0.08 0.15,0 0.94,0.01 1.07,0.03 0.38,0.05 0.46,0.13 0.51,0.27 0.04,0.09 0.04,0.22 0.04,0.27 0,0.07 0.02,0.11 0.07,0.11 0.05,0 0.07,-0.05 0.08,-0.09 0.01,-0.08 0.03,-0.42 0.03,-0.49 0.03,-0.35 0.06,-0.44 0.06,-0.49 0,-0.04 0,-0.07 -0.04,-0.07 -0.04,0 -0.09,0.02 -0.12,0.03 -0.06,0.02 -0.18,0.03 -0.33,0.04 -0.14,0.01 -1.64,0.01 -1.88,0.01 -0.21,0 -0.69,-0.02 -1.09,-0.02 -0.11,0 -0.16,0.01 -0.16,0.07 0,0.05 0.04,0.07 0.13,0.07 0.1,0 0.23,0 0.29,0.02 0.25,0.05 0.31,0.17 0.32,0.43 0.02,0.24 0.02,0.45 0.02,1.6 z m 2.25,-5.16 c -0.03,-0.07 -0.05,-0.09 -0.1,-0.09 -0.02,0 -0.08,0.01 -0.15,0.07 -0.12,0.07 -0.92,0.66 -1.22,0.95 -0.04,0.03 -0.06,0.06 -0.06,0.09 0,0.03 0.02,0.05 0.04,0.05 0.02,0 0.07,-0.03 0.13,-0.06 0.28,-0.15 0.87,-0.39 1.29,-0.45 0.15,-0.01 0.22,0 0.25,0 0.04,0 0.09,-0.02 0.04,-0.11 -0.09,-0.2 -0.16,-0.35 -0.22,-0.45 z m 3.51,7.46 c 0.4,0 0.82,-0.07 1.2,-0.31 0.54,-0.36 0.71,-0.88 0.71,-1.31 0,-0.72 -0.33,-1.24 -1.24,-1.93 l -0.21,-0.16 c -0.63,-0.47 -0.8,-0.74 -0.8,-1.08 0,-0.46 0.34,-0.78 0.9,-0.78 0.49,0 0.71,0.23 0.82,0.37 0.16,0.2 0.19,0.43 0.19,0.5 0,0.09 0.03,0.13 0.08,0.13 0.06,0 0.08,-0.06 0.08,-0.22 0,-0.59 0.03,-0.81 0.03,-0.91 0,-0.05 -0.03,-0.07 -0.1,-0.09 -0.2,-0.05 -0.52,-0.13 -1,-0.13 -1.05,0 -1.75,0.6 -1.75,1.43 0,0.61 0.29,1.14 1.12,1.79 l 0.35,0.27 c 0.62,0.49 0.73,0.84 0.73,1.2 0,0.4 -0.33,0.86 -1.01,0.86 -0.46,0 -0.91,-0.2 -1.07,-0.76 -0.04,-0.13 -0.07,-0.28 -0.07,-0.38 0,-0.06 -0.01,-0.13 -0.08,-0.13 -0.06,0 -0.08,0.08 -0.09,0.2 -0.01,0.12 -0.04,0.57 -0.04,0.98 0,0.17 0.03,0.21 0.15,0.26 0.32,0.14 0.66,0.2 1.1,0.2 z m 6.72,0 c 0.49,0 1.06,-0.06 1.36,-0.18 0.13,-0.05 0.16,-0.09 0.2,-0.22 0.07,-0.25 0.16,-0.91 0.16,-1 0,-0.06 -0.01,-0.11 -0.07,-0.11 -0.06,0 -0.07,0.03 -0.09,0.15 -0.03,0.13 -0.13,0.35 -0.26,0.5 -0.3,0.34 -0.71,0.42 -1.38,0.42 -1.01,0 -2.38,-0.89 -2.38,-2.68 0,-0.74 0.15,-1.45 0.7,-1.96 0.33,-0.3 0.76,-0.47 1.42,-0.47 0.69,0 1.28,0.21 1.53,0.47 0.19,0.2 0.28,0.46 0.29,0.69 0,0.11 0.02,0.17 0.08,0.17 0.06,0 0.08,-0.06 0.09,-0.17 0.01,-0.15 0,-0.57 0.02,-0.82 0.02,-0.26 0.04,-0.35 0.04,-0.41 0,-0.05 -0.03,-0.08 -0.12,-0.09 -0.22,-0.03 -0.46,-0.09 -0.75,-0.13 -0.35,-0.05 -0.62,-0.08 -1.09,-0.08 -1.13,0 -1.84,0.31 -2.39,0.8 -0.72,0.67 -0.88,1.56 -0.88,2.07 0,0.73 0.2,1.58 0.94,2.22 0.68,0.6 1.55,0.83 2.58,0.83 z m 4.29,0 c 0.4,0 0.82,-0.07 1.2,-0.31 0.54,-0.36 0.71,-0.88 0.71,-1.31 0,-0.72 -0.33,-1.24 -1.24,-1.93 l -0.21,-0.16 c -0.62,-0.47 -0.8,-0.74 -0.8,-1.08 0,-0.46 0.34,-0.78 0.9,-0.78 0.49,0 0.71,0.23 0.82,0.37 0.16,0.2 0.2,0.43 0.2,0.5 0,0.09 0.02,0.13 0.07,0.13 0.06,0 0.09,-0.06 0.09,-0.22 0,-0.59 0.03,-0.81 0.03,-0.91 0,-0.05 -0.04,-0.07 -0.11,-0.09 -0.2,-0.05 -0.51,-0.13 -1,-0.13 -1.05,0 -1.74,0.6 -1.74,1.43 0,0.61 0.28,1.14 1.11,1.79 l 0.35,0.27 c 0.63,0.49 0.74,0.84 0.74,1.2 0,0.4 -0.33,0.86 -1.01,0.86 -0.47,0 -0.92,-0.2 -1.08,-0.76 -0.04,-0.13 -0.07,-0.28 -0.07,-0.38 0,-0.06 -0.01,-0.13 -0.07,-0.13 -0.06,0 -0.09,0.08 -0.09,0.2 -0.01,0.12 -0.04,0.57 -0.04,0.98 0,0.17 0.02,0.21 0.14,0.26 0.33,0.14 0.67,0.2 1.1,0.2 z m 6.01,-2.08 c 0.04,0 0.06,0.02 0.07,0.06 l 0.61,1.59 c 0.04,0.09 -0.02,0.16 -0.07,0.18 -0.07,0.01 -0.11,0.02 -0.11,0.07 0,0.05 0.1,0.05 0.23,0.06 0.61,0.01 1.16,0.01 1.43,0.01 0.28,0 0.34,-0.01 0.34,-0.07 0,-0.06 -0.03,-0.06 -0.09,-0.06 -0.09,0 -0.21,-0.01 -0.32,-0.04 -0.16,-0.03 -0.38,-0.14 -0.66,-0.82 -0.49,-1.14 -1.69,-4.22 -1.87,-4.64 -0.08,-0.17 -0.12,-0.24 -0.19,-0.24 -0.08,0 -0.12,0.09 -0.21,0.31 l -1.9,4.73 c -0.15,0.38 -0.29,0.63 -0.64,0.68 -0.06,0.01 -0.17,0.02 -0.23,0.02 -0.06,0 -0.09,0.01 -0.09,0.06 0,0.06 0.04,0.07 0.14,0.07 0.39,0 0.81,-0.02 0.89,-0.02 0.24,0 0.56,0.02 0.8,0.02 0.08,0 0.13,-0.01 0.13,-0.07 0,-0.05 -0.02,-0.06 -0.11,-0.06 H 87.4 c -0.23,0 -0.3,-0.1 -0.3,-0.24 0,-0.09 0.04,-0.27 0.11,-0.46 l 0.41,-1.08 c 0.02,-0.04 0.03,-0.06 0.07,-0.06 z m -1.53,-0.37 c -0.03,0 -0.04,-0.03 -0.03,-0.06 l 0.69,-1.85 c 0.01,-0.03 0.03,-0.07 0.05,-0.07 0.02,0 0.03,0.04 0.04,0.07 l 0.68,1.86 c 0,0.02 0,0.05 -0.04,0.05 z m 5.12,0.15 c 0,0.7 0,1.29 -0.04,1.61 -0.03,0.22 -0.07,0.38 -0.22,0.41 -0.06,0.02 -0.16,0.04 -0.27,0.04 -0.09,0 -0.12,0.02 -0.12,0.06 0,0.05 0.05,0.07 0.15,0.07 0.3,0 0.78,-0.02 0.95,-0.02 0.23,0 0.91,0.05 1.1,0.05 1.38,0 2.01,-0.84 2.01,-1.65 0,-0.88 -0.76,-1.42 -1.38,-1.63 0.42,-0.33 0.77,-0.7 0.77,-1.32 0,-0.4 -0.24,-1.13 -1.6,-1.13 -0.26,0 -0.55,0.02 -0.92,0.02 -0.15,0 -0.63,-0.02 -1.03,-0.02 -0.11,0 -0.16,0.01 -0.16,0.07 0,0.05 0.04,0.07 0.13,0.07 0.1,0 0.23,0 0.29,0.02 0.25,0.05 0.31,0.17 0.32,0.43 0.02,0.24 0.02,0.45 0.02,1.6 z m 0.9,-3.06 c 0,-0.08 0.02,-0.11 0.07,-0.12 0.08,-0.02 0.15,-0.02 0.25,-0.02 0.65,0 0.94,0.66 0.94,1.17 0,0.37 -0.11,0.64 -0.31,0.8 -0.12,0.11 -0.29,0.14 -0.54,0.14 -0.17,0 -0.29,-0.01 -0.35,-0.02 -0.03,-0.01 -0.06,-0.03 -0.06,-0.08 z m 1.73,3.97 c 0,0.78 -0.57,0.96 -0.91,0.96 -0.17,0 -0.35,0 -0.55,-0.09 -0.24,-0.1 -0.27,-0.22 -0.27,-0.72 v -1.79 c 0,-0.04 0.02,-0.05 0.05,-0.05 0.11,0 0.19,0 0.32,0.01 0.3,0.01 0.47,0.06 0.63,0.18 0.57,0.4 0.73,1.03 0.73,1.5 z m 4.98,-0.69 c 0.03,0 0.06,0.02 0.07,0.06 l 0.6,1.59 c 0.04,0.09 -0.01,0.16 -0.06,0.18 -0.08,0.01 -0.11,0.02 -0.11,0.07 0,0.05 0.09,0.05 0.23,0.06 0.6,0.01 1.15,0.01 1.42,0.01 0.28,0 0.35,-0.01 0.35,-0.07 0,-0.06 -0.04,-0.06 -0.1,-0.06 -0.09,0 -0.2,-0.01 -0.32,-0.04 -0.15,-0.03 -0.37,-0.14 -0.66,-0.82 -0.48,-1.14 -1.69,-4.22 -1.87,-4.64 -0.08,-0.17 -0.12,-0.24 -0.19,-0.24 -0.07,0 -0.12,0.09 -0.21,0.31 l -1.89,4.73 c -0.15,0.38 -0.29,0.63 -0.64,0.68 -0.06,0.01 -0.17,0.02 -0.24,0.02 -0.06,0 -0.09,0.01 -0.09,0.06 0,0.06 0.05,0.07 0.15,0.07 0.39,0 0.8,-0.02 0.89,-0.02 0.23,0 0.55,0.02 0.8,0.02 0.08,0 0.12,-0.01 0.12,-0.07 0,-0.05 -0.02,-0.06 -0.11,-0.06 H 98.6 c -0.24,0 -0.3,-0.1 -0.3,-0.24 0,-0.09 0.04,-0.27 0.11,-0.46 l 0.41,-1.08 c 0.01,-0.04 0.03,-0.06 0.06,-0.06 z m -1.53,-0.37 c -0.03,0 -0.04,-0.03 -0.03,-0.06 l 0.69,-1.85 c 0.01,-0.03 0.02,-0.07 0.04,-0.07 0.03,0 0.03,0.04 0.04,0.07 l 0.68,1.86 c 0.01,0.02 0,0.05 -0.04,0.05 z"
   id="path32"
   style="display:inline" />
   <g
   id="g36">
    <path
   class="fil5"
   d="m 82.36,75.82 c -0.15,0.1 -0.31,0.18 -0.49,0.18 -0.01,0 -0.01,0.01 -0.03,0.02 v 0 c -0.12,0.06 -0.25,0.12 -0.45,0.08 -0.15,-0.03 -0.24,-0.11 -0.34,-0.19 -0.03,-0.03 -0.07,-0.06 -0.09,-0.07 L 80.8,75.76 v -0.19 c 0,-0.12 0.02,-0.23 0.05,-0.35 0.01,-0.08 0.03,-0.17 0.03,-0.24 v -0.21 l 0.2,-0.07 c 0.01,0 0.02,-0.01 0.04,-0.02 0.08,-0.04 0.16,-0.08 0.27,-0.08 h 0.04 l -0.02,-0.27 h 0.17 l 0.08,-0.16 c -0.08,-0.05 -0.15,-0.12 -0.18,-0.25 l -0.01,-0.04 c -0.09,-0.01 -0.18,-0.03 -0.25,-0.1 v 0 L 81.2,73.76 c -0.15,-0.15 -0.09,-0.3 -0.05,-0.43 v -0.04 l 0.06,-0.08 c 0.18,-0.26 0.44,-0.3 0.69,-0.24 v 0 c 0.19,0.05 0.36,0.14 0.48,0.22 h 0.01 c 0.01,0.01 0.03,0.02 0.05,0.03 0.34,0.23 0.56,0.55 0.64,0.91 0.09,0.36 0.04,0.75 -0.17,1.09 v 0.01 l -0.02,0.03 z m -0.2,-0.6 0.04,-0.03 c 0,-0.02 0.01,-0.03 0.02,-0.04 -0.03,0 -0.06,0 -0.08,-0.01 0.01,0.03 0.01,0.05 0.02,0.08 z m 0.51,0.33 c -0.08,0.09 -0.19,0.19 -0.31,0.27 z m 0.09,-0.21 v 0.01 l 0.02,0.02 c -0.01,-0.02 -0.02,-0.08 -0.02,-0.03 z m 0,0.02 v 0.11 l -0.09,0.08 z m 0.03,0.02 c -0.01,0 -0.01,0 -0.01,-0.01 l -0.02,-0.01 z m 0,0 z"
   id="path34" />
   </g>
   <path
   class="fil7"
   d="m 81.87,75.7 c 0.21,0 0.45,-0.21 0.59,-0.36 0,-0.08 0.15,-0.19 0.17,-0.23 0.38,-0.57 0.19,-1.31 -0.4,-1.67 -0.21,-0.12 -0.59,-0.33 -0.78,-0.06 0,0.02 -0.06,0.15 -0.04,0.17 l 0.02,0.02 c 0.02,0.02 0.17,0 0.21,0 0,-0.02 0.04,-0.04 0.04,-0.06 0.07,0 0.19,-0.02 0.26,-0.02 0,0.08 0.02,0.29 -0.11,0.29 0,0.02 -0.04,0.06 -0.06,0.06 0.04,0.17 0.52,0.05 0.65,0.15 v 0.17 c -0.13,0 -0.4,-0.04 -0.46,0.09 0.02,0 0.04,0.04 0.04,0.08 0.1,0 0.38,0.23 0.42,0.32 0,0.31 -0.48,0.21 -0.57,0.02 -0.02,0 -0.04,-0.02 -0.06,-0.04 h -0.06 l 0.02,0.46 c 0.08,0.04 0.12,0.17 0.12,0.25 -0.06,0.07 -0.21,0.13 -0.29,0.13 l -0.04,-0.02 c 0,-0.15 -0.05,-0.47 -0.15,-0.55 -0.06,0 -0.15,0.06 -0.21,0.08 0,0.19 -0.09,0.41 -0.09,0.59 0.13,0.07 0.24,0.22 0.36,0.24 0.17,0.04 0.3,-0.11 0.42,-0.11 z"
   id="path38" />
   <path
   class="fil5"
   d="m 61.89,79.9 c 0.15,0 0.29,0.05 0.4,0.09 v 0 c 0.48,0.2 0.72,0.6 0.75,1.03 0.02,0.18 0,0.37 -0.06,0.54 -0.06,0.18 -0.15,0.34 -0.27,0.48 -0.27,0.3 -0.68,0.46 -1.19,0.33 V 82.36 C 61.41,82.33 61.34,82.28 61.27,82.22 61.24,82.2 61.21,82.18 61.21,82.18 l -0.17,-0.09 v -0.18 c 0,-0.1 0.02,-0.19 0.04,-0.28 0.01,-0.05 0.02,-0.11 0.02,-0.15 v -0.21 l 0.2,-0.07 c 0.01,0 0.01,0 0.01,-0.01 h 0.01 c 0.05,-0.03 0.1,-0.06 0.17,-0.07 l -0.01,-0.2 h 0.16 v 0 c -0.04,-0.04 -0.07,-0.09 -0.1,-0.17 -0.06,-0.01 -0.12,-0.03 -0.17,-0.08 v 0 l -0.01,-0.02 v 0 c -0.1,-0.09 -0.11,-0.21 -0.08,-0.33 v 0 c 0.01,-0.05 0.05,-0.14 0.06,-0.15 l 0.01,-0.01 c 0.13,-0.22 0.33,-0.28 0.54,-0.26 z m 0.35,1.77 c -0.01,0 -0.03,0 -0.03,0.01 L 62.2,81.7 c 0.01,-0.01 0.03,-0.02 0.04,-0.03 z"
   id="path40" />
   <path
   class="fil7"
   d="m 62.18,80.27 c -0.17,-0.06 -0.45,-0.15 -0.58,0.05 -0.01,0.01 -0.05,0.1 -0.03,0.12 l 0.01,0.02 c 0.02,0.01 0.12,0 0.15,0 0,-0.02 0.03,-0.04 0.03,-0.05 0.05,0 0.14,-0.02 0.19,-0.02 0,0.07 0.01,0.22 -0.08,0.22 0,0.01 -0.03,0.04 -0.05,0.04 0.04,0.13 0.39,0.03 0.48,0.11 v 0.12 c -0.09,0 -0.29,-0.03 -0.34,0.07 0.02,0 0.03,0.02 0.03,0.06 0.08,0 0.28,0.16 0.31,0.23 0,0.23 -0.35,0.15 -0.41,0.01 -0.02,0 -0.03,-0.01 -0.05,-0.03 h -0.05 l 0.02,0.34 c 0.2,0.1 0.05,0.27 -0.12,0.27 l -0.03,-0.01 c 0,-0.11 -0.03,-0.34 -0.11,-0.4 -0.04,0 -0.11,0.05 -0.15,0.06 0,0.14 -0.06,0.29 -0.06,0.43 0.09,0.04 0.17,0.14 0.26,0.17 1.16,0.31 1.6,-1.41 0.58,-1.81 z"
   id="path42" />
   <path
   class="fil5"
   d="M 60.97,70.96 H 61 v -0.01 l -0.43,-1.32 -0.05,-0.13 0.08,-0.12 0.62,-0.99 0.19,-0.3 0.26,0.24 0.17,0.15 0.05,0.04 0.02,0.05 0.46,0.98 0.04,0.09 -0.01,0.09 -0.21,1.17 v 0.01 l 0.47,-0.05 -0.17,0.44 -0.47,1.31 -0.06,0.17 -0.18,0.03 -0.2,0.03 -0.22,0.03 -0.09,-0.21 -0.59,-1.28 -0.22,-0.47 z m 0.46,0.63 0.18,0.4 0.16,-0.44 z m 0.06,-2.51 -0.31,0.5 0.32,0.98 h 0.15 l 0.14,-0.84 z"
   id="path44" />
   <path
   class="fil7"
   d="m 61.35,71.29 -0.4,-0.03 0.59,1.28 0.2,-0.03 0.47,-1.31 z m 0.13,-2.74 -0.63,0.99 0.43,1.32 0.62,-0.01 0.2,-1.17 -0.46,-0.98 z"
   id="path46" />
   <path
   class="fil5"
   d="M 88.09,74.95 86.61,72.91 C 86.16,72.7 85.8,72.41 85.51,72.09 85.13,71.67 84.89,71.2 84.78,70.82 l -0.06,-0.2 0.17,-0.12 c 0.03,-0.02 0.06,-0.05 0.08,-0.08 0.16,-0.2 0.16,-0.56 0.03,-0.98 -0.13,-0.48 -0.42,-1.02 -0.77,-1.5 -0.27,-0.36 -0.56,-0.68 -0.87,-0.93 l -0.08,-0.07 -0.02,-0.1 -0.66,-3.3 0.5,3.84 c 0.59,0.55 0.89,1.13 1.03,1.72 0.14,0.57 0.12,1.14 0.06,1.7 l 1.43,2.5 0.03,0.05 v 0.06 l 0.2,1.58 z m -1.05,-2.45 1.87,2.57 0.33,0.46 -0.57,0.01 -3.08,0.05 H 85.33 L 85.29,75.33 85.07,73.54 83.62,71 l -0.05,-0.08 0.01,-0.1 c 0.06,-0.52 0.09,-1.06 -0.03,-1.58 -0.12,-0.51 -0.39,-1.01 -0.93,-1.49 l -0.08,-0.07 -0.01,-0.11 -1.41,-10.84 -0.03,-0.27 0.26,-0.06 0.13,-0.03 0.3,-0.07 0.06,0.3 1.99,10.02 c 0.31,0.27 0.61,0.61 0.88,0.97 0.39,0.53 0.71,1.13 0.87,1.68 0.17,0.61 0.15,1.16 -0.15,1.53 l -0.02,0.03 c 0.11,0.26 0.29,0.57 0.54,0.86 0.26,0.28 0.58,0.54 0.97,0.71 L 87,72.43 Z"
   id="path48" />
   <path
   class="fil7"
   d="M 88.67,75.24 86.8,72.67 c -0.98,-0.43 -1.56,-1.32 -1.73,-1.93 0.9,-0.67 -0.24,-2.91 -1.52,-3.96 l -2.01,-10.12 -0.12,0.03 1.4,10.84 c 1.18,1.04 1.19,2.22 1.06,3.33 l 1.48,2.59 0.23,1.84 z"
   id="path50" />
   <path
   class="fil5"
   d="M 81.31,56.23 80.85,55.96 80.77,55.91 80.73,55.82 80.6,55.54 c -0.1,-0.12 -0.09,-0.25 0.01,-0.39 0.02,-0.03 0.06,-0.07 0.1,-0.11 0.13,-0.13 0.38,-0.34 0.61,-0.52 l 0.1,-0.06 0.11,0.01 c 0.22,0.02 0.41,0.14 0.54,0.3 v 0 c 0.13,0.17 0.2,0.39 0.18,0.6 -0.02,0.18 -0.1,0.35 -0.21,0.49 -0.12,0.16 -0.28,0.29 -0.43,0.37 l -0.15,0.09 z m -0.08,-0.73 0.22,0.12 c 0.04,-0.03 0.08,-0.08 0.12,-0.12 0.05,-0.06 0.08,-0.13 0.08,-0.19 0.01,-0.05 -0.01,-0.12 -0.05,-0.17 v 0 c -0.01,-0.01 -0.03,-0.03 -0.05,-0.04 -0.13,0.11 -0.27,0.21 -0.36,0.3 z"
   id="path52" />
   <path
   class="fil7"
   d="M 81.46,55.98 81,55.7 80.85,55.36 c -0.07,-0.01 0.31,-0.34 0.65,-0.6 0.28,0.03 0.48,0.32 0.45,0.58 -0.02,0.27 -0.28,0.52 -0.49,0.64 z"
   id="path54" />
   <path
   class="fil5"
   d="m 77.18,75 c -0.09,-1.8 0.41,-2.32 0.87,-2.81 0.34,-0.35 0.66,-0.68 0.55,-1.82 v 0 c -0.05,-0.41 -0.06,-1.14 0.16,-1.88 0.14,-0.48 0.38,-0.96 0.77,-1.37 l 0.4,-2.88 -0.83,2.84 -0.03,0.09 -0.07,0.05 c -0.01,0.01 -0.02,0.03 -0.05,0.05 v 0 c -0.38,0.34 -0.79,0.96 -1.01,1.61 -0.21,0.6 -0.26,1.21 0.05,1.57 v 0 l 0.02,0.03 0.12,0.13 -0.06,0.17 c -0.18,0.5 -0.44,0.94 -0.81,1.32 -0.32,0.34 -0.73,0.62 -1.23,0.83 l -1.31,2.04 z m 1.3,-2.39 c -0.4,0.42 -0.84,0.87 -0.69,2.67 l 0.03,0.32 h -0.33 l -3.31,-0.04 -0.54,-0.01 0.29,-0.46 1.65,-2.56 0.05,-0.08 0.09,-0.03 c 0.46,-0.19 0.82,-0.44 1.12,-0.74 0.26,-0.27 0.47,-0.59 0.61,-0.95 -0.37,-0.55 -0.33,-1.31 -0.07,-2.05 0.25,-0.73 0.72,-1.45 1.17,-1.85 v 0 0 0 l 1.76,-5.98 0.05,-0.2 0.2,-0.02 0.11,-0.01 0.38,-0.04 -0.06,0.38 -0.89,6.33 -0.01,0.1 -0.07,0.08 c -0.35,0.34 -0.57,0.76 -0.69,1.19 -0.19,0.65 -0.18,1.29 -0.14,1.65 v 0 c 0.14,1.41 -0.27,1.84 -0.71,2.3 z"
   id="path56" />
   <path
   class="fil7"
   d="m 77.5,75.3 c -0.31,-3.62 1.67,-2.23 1.39,-4.96 -0.06,-0.64 -0.07,-2.11 0.92,-3.09 l 0.89,-6.33 -0.11,0.01 -1.78,6.06 c -0.85,0.71 -1.86,2.76 -1.02,3.69 -0.31,0.89 -0.94,1.6 -1.96,2.02 l -1.65,2.56 z"
   id="path58" />
   <path
   class="fil5"
   d="m 80.99,76.66 c -0.59,-0.01 -1.07,-0.21 -1.43,-0.52 -0.36,-0.31 -0.61,-0.73 -0.74,-1.2 -0.13,-0.45 -0.14,-0.95 -0.02,-1.41 0.14,-0.56 0.46,-1.07 0.96,-1.42 h 0.01 c 0.56,-0.4 1.21,-0.56 1.82,-0.49 0.63,0.06 1.22,0.36 1.65,0.86 l 0.51,0.57 -0.76,-0.08 c -0.77,-0.09 -1.34,0.01 -1.74,0.21 -0.33,0.17 -0.55,0.41 -0.67,0.69 v 0 c -0.12,0.29 -0.15,0.62 -0.09,0.95 0.08,0.47 0.33,0.95 0.71,1.33 l 0.51,0.52 z m -1.04,-0.97 c 0.09,0.08 0.19,0.15 0.31,0.21 -0.18,-0.32 -0.3,-0.65 -0.36,-0.98 -0.07,-0.44 -0.03,-0.89 0.14,-1.29 v 0 c 0.17,-0.4 0.48,-0.74 0.93,-0.98 0.31,-0.15 0.68,-0.26 1.12,-0.3 -0.18,-0.07 -0.36,-0.12 -0.56,-0.14 -0.47,-0.05 -0.98,0.07 -1.42,0.38 v 0 c -0.38,0.27 -0.62,0.66 -0.73,1.08 -0.09,0.37 -0.09,0.76 0.01,1.12 0.1,0.35 0.29,0.67 0.56,0.9 z"
   id="path60" />
   <path
   class="fil7"
   d="m 80.99,76.36 c -2.1,-0.02 -2.64,-2.9 -1.05,-4.01 1.02,-0.72 2.31,-0.56 3.08,0.32 -3.18,-0.36 -3.46,2.26 -2.03,3.69 z"
   id="path62" />
   <path
   class="fil5"
   d="m 59.15,81.5 c -0.25,-1.25 0.16,-2.17 0.83,-2.71 0.28,-0.23 0.6,-0.39 0.95,-0.47 0.34,-0.08 0.7,-0.09 1.04,-0.02 0.82,0.16 1.56,0.74 1.85,1.79 l 0.23,0.83 -0.69,-0.51 c -0.4,-0.29 -0.8,-0.48 -1.17,-0.52 -0.32,-0.04 -0.62,0.02 -0.88,0.21 l -0.01,0.02 -0.02,0.01 c -0.14,0.07 -0.25,0.19 -0.34,0.33 -0.12,0.2 -0.18,0.45 -0.18,0.7 -0.01,0.26 0.05,0.52 0.18,0.76 0.11,0.2 0.27,0.38 0.5,0.51 l 0.63,0.37 -0.72,0.18 c -0.36,0.08 -0.89,-0.06 -1.34,-0.36 -0.38,-0.26 -0.72,-0.64 -0.85,-1.09 v 0 z m 1.2,-2.25 c -0.51,0.41 -0.81,1.13 -0.62,2.12 0.1,0.3 0.34,0.56 0.62,0.75 l 0.04,0.03 c -0.16,-0.31 -0.23,-0.66 -0.23,-1 0.01,-0.35 0.1,-0.71 0.27,-0.99 0.13,-0.23 0.32,-0.42 0.54,-0.54 0.39,-0.29 0.83,-0.38 1.3,-0.33 0.18,0.03 0.36,0.08 0.55,0.15 -0.26,-0.3 -0.6,-0.49 -0.96,-0.56 -0.26,-0.05 -0.53,-0.04 -0.79,0.02 -0.26,0.06 -0.51,0.18 -0.72,0.35 z"
   id="path64" />
   <path
   class="fil7"
   d="m 59.44,81.45 c -0.64,-3.18 3.36,-3.95 4.09,-1.28 -0.85,-0.63 -1.72,-0.8 -2.4,-0.3 -0.88,0.48 -0.96,2.15 0.15,2.81 -0.53,0.13 -1.59,-0.42 -1.84,-1.23 z"
   id="path66" />
   <path
   class="fil5"
   d="m 61.8,86.69 0.84,0.22 2.31,0.6 -2.39,-0.02 -1.94,-0.01 h -0.3 v -0.3 -2.19 -0.01 l 0.01,-0.03 c 0.03,-0.21 0.08,-0.41 0.15,-0.59 0.07,-0.18 0.17,-0.34 0.29,-0.46 l 0.01,-0.01 c 0.25,-0.21 0.5,-0.34 0.74,-0.38 v 0 c 0.19,-0.03 0.38,-0.01 0.55,0.05 0.17,0.06 0.32,0.17 0.45,0.31 0.18,0.2 0.31,0.47 0.36,0.79 L 63,85.38 62.41,84.95 c -0.2,-0.14 -0.36,-0.2 -0.47,-0.19 h -0.01 c -0.02,0 -0.05,0 -0.07,0.01 -0.01,0.01 -0.02,0.02 -0.03,0.03 -0.03,0.04 -0.04,0.1 -0.04,0.17 v 0.01 z m -0.88,0.2 h 0.29 L 61.2,85 v 0 c -0.01,-0.22 0.04,-0.4 0.14,-0.55 0.07,-0.08 0.15,-0.16 0.25,-0.21 0.1,-0.05 0.2,-0.07 0.32,-0.08 h 0.04 C 61.92,84.15 61.89,84.13 61.87,84.12 61.79,84.09 61.71,84.09 61.62,84.1 v 0 c -0.13,0.02 -0.28,0.1 -0.43,0.23 -0.06,0.06 -0.12,0.15 -0.16,0.26 -0.05,0.12 -0.09,0.26 -0.11,0.41 z"
   id="path68" />
   <path
   class="fil7"
   d="m 61.51,86.92 1.05,0.27 -1.94,-0.01 v -2.19 c 0.05,-0.38 0.18,-0.69 0.36,-0.88 0.71,-0.63 1.46,-0.26 1.61,0.6 -0.65,-0.47 -1.12,-0.23 -1.1,0.27 z"
   id="path70" />
   <path
   class="fil5"
   d="m 61.83,97.64 2.02,0.46 2.58,0.59 h -2.64 -3.5 -0.27 l -0.03,-0.27 -0.05,-0.48 v -0.01 -0.02 -3.57 0 c 0,-0.81 0.24,-1.42 0.6,-1.84 0.19,-0.23 0.42,-0.4 0.67,-0.51 0.25,-0.11 0.52,-0.17 0.79,-0.16 0.49,0 0.99,0.19 1.42,0.56 l 0.68,0.59 -0.9,-0.07 c -0.6,-0.04 -0.95,0.08 -1.13,0.32 v 0 c -0.2,0.26 -0.25,0.68 -0.24,1.21 v 0.01 z m -1.27,0.45 h 0.67 v -0.21 -3.42 c -0.01,-0.67 0.07,-1.21 0.36,-1.59 v 0 c 0.15,-0.19 0.34,-0.34 0.58,-0.43 -0.06,-0.01 -0.12,-0.02 -0.18,-0.02 -0.18,0 -0.37,0.04 -0.53,0.12 -0.18,0.07 -0.33,0.19 -0.47,0.34 -0.27,0.33 -0.45,0.81 -0.46,1.46 v 3.55 z"
   id="path72" />
   <path
   class="fil7"
   d="m 61.53,97.88 2.26,0.51 h -3.5 l -0.06,-0.48 0.01,-3.57 c 0.01,-2.15 1.78,-2.76 2.98,-1.72 -1.43,-0.11 -1.72,0.63 -1.69,1.83 z"
   id="path74" />
   <path
   class="fil5"
   d="m 81.21,83.81 1.52,0.48 1.87,0.58 H 82.64 79.8 79.55 L 79.5,84.63 79.4,84.13 79.39,84.1 v -0.03 l 0.01,-3.48 v 0 c 0,-0.72 0.16,-1.29 0.4,-1.71 0.22,-0.37 0.52,-0.64 0.84,-0.79 0.33,-0.15 0.7,-0.18 1.06,-0.09 0.33,0.09 0.65,0.27 0.93,0.55 l 0.56,0.58 -0.8,-0.07 c -0.51,-0.04 -0.8,0.08 -0.96,0.32 -0.18,0.29 -0.23,0.74 -0.22,1.32 v 0 z m -1.17,0.47 h 0.65 l -0.08,-0.03 v -0.22 -3.32 c -0.01,-0.69 0.06,-1.25 0.32,-1.65 0.14,-0.22 0.33,-0.39 0.58,-0.49 -0.21,-0.04 -0.43,-0.02 -0.62,0.07 -0.22,0.1 -0.42,0.28 -0.57,0.54 -0.2,0.34 -0.32,0.81 -0.33,1.41 v 3.45 z"
   id="path76" />
   <path
   class="fil7"
   d="m 80.91,84.03 1.73,0.54 H 79.8 l -0.11,-0.5 v -3.48 c 0.02,-2.27 1.66,-2.91 2.72,-1.82 -1.27,-0.11 -1.52,0.67 -1.5,1.93 z"
   id="path78" />
   <path
   class="fil5"
   d="m 91.55,92.92 c 0.38,0.97 1.18,1.36 1.71,1.61 0.19,0.1 0.36,0.17 0.48,0.27 v 0 c 0.07,0.06 0.13,0.13 0.18,0.22 l -0.01,-0.17 c -1.95,-0.88 -2.28,-2.12 -2.62,-3.46 -0.16,-0.62 -0.33,-1.25 -0.68,-1.86 v -0.01 c -0.65,-1.18 -1.74,-1.19 -2.64,-1.21 -0.19,0 -0.38,0 -0.54,-0.01 L 87.15,88.28 V 88 86.49 l -1.32,-0.13 -0.29,-0.03 0.02,-0.29 0.58,-9.73 -0.92,0.01 -0.01,9.73 v 0.29 h -0.29 l -9.59,0.03 0.03,1.63 v 0.29 l -0.29,0.02 c -2.34,0.09 -2.63,1.88 -2.89,3.49 -0.05,0.32 -0.1,0.62 -0.16,0.9 v 0 c -0.1,0.44 -0.49,0.92 -0.99,1.3 -0.15,0.12 -0.32,0.24 -0.5,0.33 0.23,-0.08 0.44,-0.18 0.62,-0.31 0.35,-0.24 0.63,-0.56 0.84,-0.88 0.3,-0.75 0.44,-1.42 0.55,-1.99 0.29,-1.46 0.46,-2.33 2.57,-2.43 l 0.2,-0.01 0.08,0.19 0.1,0.22 0.12,-1.98 0.02,-0.29 0.29,0.01 c 1.63,0.05 3.57,0.09 5.62,0.1 1.62,0 3.32,-0.01 4.98,-0.05 h 0.07 l 0.06,0.03 c 0.16,0.08 0.33,1.83 0.43,3.83 l 0.01,0.27 c 0.09,-1.29 0.21,-2.28 0.43,-2.31 v 0 c 2.27,-0.26 2.58,0.53 3.38,2.6 0.18,0.45 0.38,0.98 0.64,1.57 z M 93,95.07 C 92.39,94.78 91.46,94.33 91,93.14 90.73,92.54 90.53,92 90.35,91.54 89.67,89.79 89.41,89.12 87.59,89.33 v 0 c -0.16,0.01 0.07,2.01 -0.01,3.93 -0.04,1.06 -0.09,2.1 -0.13,2.77 l -0.02,0.27 -0.28,0.01 h -0.17 l -0.3,0.01 v -0.31 c 0,-0.94 -0.09,-3.21 -0.19,-5.21 -0.09,-1.67 -0.04,-3.07 -0.08,-3.29 -1.62,0.04 -3.28,0.05 -4.88,0.04 -1.93,-0.01 -3.77,-0.04 -5.34,-0.09 l -0.18,2.93 -0.08,1.25 -0.49,-1.14 -0.51,-1.17 c -1.45,0.13 -1.58,0.81 -1.81,1.93 -0.11,0.6 -0.26,1.31 -0.59,2.13 l -0.01,0.03 -0.01,0.02 c -0.25,0.39 -0.58,0.77 -1.02,1.07 -0.31,0.22 -0.68,0.39 -1.09,0.48 l -0.12,1.45 -0.03,0.28 -0.27,-0.01 -0.57,-0.01 h -0.29 v -0.29 l -0.01,-1.98 v -0.28 l 0.27,-0.02 c 0.38,-0.03 0.87,-0.28 1.29,-0.6 0.39,-0.3 0.7,-0.65 0.76,-0.95 v 0 c 0.06,-0.28 0.11,-0.57 0.16,-0.87 0.29,-1.78 0.6,-3.74 3.17,-3.98 l -0.03,-1.65 -0.01,-0.3 h 0.31 l 9.59,-0.03 v -9.73 -0.29 h 0.3 l 1.53,-0.02 h 0.32 l -0.02,0.31 -0.58,9.77 1.31,0.14 0.27,0.02 v 0.27 1.49 c 0.07,0 0.15,0.01 0.23,0.01 1.06,0.01 2.33,0.03 3.15,1.51 v 0 c 0.39,0.69 0.56,1.36 0.73,2.01 0.32,1.23 0.62,2.37 2.45,3.13 l 0.18,0.08 v 0.18 l 0.08,1.62 0.01,0.31 h -0.3 -0.45 -0.25 L 93.54,96.32 C 93.52,96.23 93.51,96.12 93.5,95.99 93.48,95.71 93.46,95.34 93.38,95.27 H 93.37 C 93.3,95.22 93.16,95.15 93,95.07 Z M 69.83,94.64 c -0.04,0.02 -0.08,0.03 -0.12,0.04 v 1.35 l 0.11,-1.31 z"
   id="path80" />
   <path
   class="fil7"
   d="m 91.27,93.02 c 0.55,1.43 1.89,1.71 2.29,2.02 0.25,0.19 0.22,0.96 0.27,1.22 h 0.44 L 94.2,94.65 C 91.27,93.43 92,91.37 90.87,89.38 90,87.8 88.5,88.07 87.45,88 v -1.78 l -1.59,-0.16 0.59,-10.05 -1.53,0.01 v 10.03 l -9.89,0.02 0.03,1.94 c -3.04,0.12 -2.94,2.75 -3.34,4.63 -0.15,0.75 -1.47,1.71 -2.31,1.79 v 1.98 h 0.57 l 0.14,-1.66 c 1.02,-0.17 1.72,-0.82 2.13,-1.47 1.05,-2.55 0.16,-4.13 2.87,-4.26 l 0.59,1.36 0.2,-3.22 c 2.93,0.08 6.87,0.14 10.62,0.05 0.11,0.05 0.45,6.95 0.45,8.8 h 0.17 c 0.13,-2 0.27,-6.96 0.41,-6.98 2.53,-0.29 2.36,0.9 3.71,3.99 z"
   id="path82" />
   <path
   class="fil5"
   d="m 79.64,94.1 c 0.1,-0.03 -0.15,-1.01 -0.15,-2.13 0,-1.26 -0.02,-2.58 -0.04,-2.68 l -0.04,-0.1 0.05,-0.11 c 0.16,-0.34 1.09,-0.32 2.03,-0.29 0.41,0.01 0.83,0.02 1.15,0.01 l 0.12,-0.01 0.09,0.08 c 0.2,0.19 0.18,0.42 0.15,0.76 v 0 c 0,0.08 -0.01,0.16 -0.02,0.27 l -0.01,0.26 -0.26,0.02 c -1.48,0.13 -1.48,0.14 -1.46,1.37 l 0.01,0.19 v 0.01 1.91 l 1.52,0.44 2.04,0.58 h -2.12 -2.97 -1.9 z m 0.45,-2.13 c 0,0.81 -0.03,1.6 -0.1,2.12 h 0.67 v -0.2 -2.14 -0.19 c -0.03,-1.7 -0.03,-1.79 1.75,-1.95 v -0.03 0 c 0.01,-0.08 0.02,-0.14 0.03,-0.18 -0.29,0 -0.63,-0.01 -0.96,-0.02 -0.65,-0.01 -1.28,-0.05 -1.44,-0.05 0.03,0.46 0.05,1.58 0.05,2.64 z"
   id="path84" />
   <path
   class="fil7"
   d="m 79.73,94.39 c 0.08,-0.03 0.07,-4.94 0,-5.18 0.11,-0.25 1.95,-0.08 2.92,-0.12 0.13,0.12 0.06,0.38 0.04,0.79 -1.83,0.17 -1.75,0.17 -1.73,1.87 v 2.14 l 1.74,0.5 z"
   id="path86" />
   <path
   class="fil5"
   d="M 95.65,98.69 87.31,98.7 H 87.2 l -0.09,-0.07 c -1.5,-1.3 -3.5,-1.94 -5.53,-1.94 -2.04,0 -4.1,0.65 -5.71,1.96 l -0.08,0.06 h -0.1 l -6.33,0.01 h -0.3 v -0.3 -0.34 l 0.01,-0.3 h 0.3 c 0.75,0.01 1.83,0 2.99,-0.08 0.82,-0.05 1.68,-0.14 2.46,-0.28 2,-1.59 4.22,-2.42 6.47,-2.48 2.27,-0.06 4.56,0.65 6.66,2.13 1.26,0.39 3.25,0.5 5.07,0.61 0.96,0.05 1.89,0.11 2.63,0.19 l 0.21,0.03 0.04,0.22 0.04,0.22 0.07,0.35 z M 87.42,98.1 h 3.02 C 89.42,98 88.46,97.86 87.73,97.62 l -0.05,-0.01 -0.04,-0.02 c -2,-1.43 -4.18,-2.11 -6.34,-2.05 -2.14,0.05 -4.26,0.85 -6.17,2.39 L 75.07,97.98 75,97.99 c -0.26,0.05 -0.53,0.09 -0.8,0.13 h 1.38 c 1.71,-1.35 3.87,-2.02 6,-2.03 2.13,0 4.24,0.67 5.84,2.01 z"
   id="path88" />
   <path
   class="fil7"
   d="m 95.65,98.39 c -2.86,0 -5.48,0.01 -8.34,0.01 -3.11,-2.68 -8.29,-2.68 -11.62,0.01 l -6.33,0.01 v -0.34 c 1.33,0.02 3.67,-0.03 5.58,-0.38 3.94,-3.18 8.78,-3.27 12.88,-0.36 1.95,0.63 5.61,0.57 7.79,0.83 z"
   id="path90" />
   <path
   class="fil5"
   d="m 55.2,89.69 -0.31,-0.3 0.81,1.23 0.04,0.07 0.01,0.08 0.16,7.38 h 0.12 l 0.14,-6.64 c 0,-0.42 0.09,-0.82 0.28,-1.19 0.09,-0.17 0.2,-0.34 0.33,-0.5 l -1.39,-0.05 h -0.11 z m -1.28,-2.1 1.61,1.59 1.95,0.07 0.79,0.03 -0.61,0.5 c -0.3,0.25 -0.53,0.52 -0.68,0.81 -0.14,0.29 -0.21,0.59 -0.21,0.93 v 0 l -0.15,6.94 v 0.3 l -0.3,-0.01 -0.71,-0.01 -0.28,-0.01 -0.01,-0.29 -0.17,-7.57 -1.85,-2.82 -0.19,-0.29 0.32,-0.15 0.16,-0.07 0.19,-0.09 z"
   id="path92" />
   <path
   class="fil7"
   d="m 55.41,89.47 -1.7,-1.66 -0.16,0.07 1.9,2.9 0.17,7.66 0.7,0.01 0.15,-6.93 c -0.01,-0.76 0.33,-1.42 1,-1.97 z"
   id="path94" />
   <path
   class="fil5"
   d="m 76.26,75.77 1.37,-0.05 0.32,-0.01 -0.01,0.31 -0.11,9.91 v 0.28 l -0.29,0.01 -0.78,0.02 -0.29,0.01 -0.02,-0.29 -0.47,-9.87 -0.02,-0.3 z m 1.08,0.56 -0.75,0.03 0.44,9.28 0.21,-0.01 z"
   id="path96" />
   <polygon
   class="fil7"
   points="77.64,76.02 77.53,85.93 76.75,85.95 76.27,76.07 "
   id="polygon98"
   style="display:inline" />
   <path
   class="fil5"
   d="m 56.51,82.04 -0.79,-0.01 0.12,4.29 h 0.23 l 0.14,-3.97 0.01,-0.19 0.18,-0.07 z m -1.09,-0.61 2.57,0.03 1.46,0.01 -1.35,0.56 -1.3,0.53 -0.14,4.07 -0.01,0.29 h -0.29 l -0.82,-0.01 -0.28,-0.01 -0.01,-0.28 -0.13,-4.89 -0.01,-0.3 z"
   id="path100" />
   <polygon
   class="fil7"
   points="56.51,82.36 57.98,81.75 55.42,81.73 55.55,86.61 56.36,86.62 "
   id="polygon102" />
   <path
   class="fil5"
   d="m 69.67,87.27 c -0.32,0.01 -0.99,0.09 -1.52,0.08 -0.3,-0.01 -0.55,-0.01 -0.62,-0.02 l -0.31,-0.01 0.02,-0.31 0.4,-5.04 -0.59,0.01 L 67,87 v 0.3 h -0.3 l -5.56,0.06 6.87,0.45 0.41,0.03 -0.16,0.38 -0.58,1.4 -0.08,0.18 -0.2,0.01 h -1.87 c 0.8,0.19 1.41,0.49 1.59,0.96 l 0.02,0.05 v 0.06 l -0.06,7.04 0.62,0.01 -0.06,-7.17 v -0.09 l 0.04,-0.07 z m -1.5,-0.52 c 0.81,0.02 2.06,0.04 2.18,0.2 l 0.11,0.16 -0.1,0.17 -2.13,3.56 0.06,7.39 0.01,0.31 -0.31,-0.01 -1.22,-0.02 h -0.29 v -0.3 l 0.06,-7.27 C 66.18,90.21 63.58,90.11 61.69,90.03 61.16,90.01 60.68,89.99 60.33,89.96 L 60.12,89.94 60.06,89.75 60.02,89.6 59.91,89.22 h 0.4 l 6.89,-0.01 0.35,-0.83 -12.29,-0.8 -0.28,-0.02 v -0.28 -0.15 -0.29 h 0.3 l 11.13,-0.13 0.05,-5.02 V 81.4 l 0.29,-0.01 1.2,-0.02 0.33,-0.01 -0.02,0.33 -0.4,5.06 z"
   id="path104" />
   <path
   class="fil7"
   d="m 70.11,87.13 c -0.04,-0.06 -2.27,-0.08 -2.57,-0.09 l 0.42,-5.37 -1.2,0.02 L 66.7,87 55.28,87.13 v 0.15 l 12.71,0.83 -0.59,1.4 -7.09,0.01 0.04,0.15 c 1.77,0.14 6.05,0.01 6.49,1.2 l -0.07,7.34 1.23,0.02 -0.06,-7.48 z"
   id="path106" />
   <path
   class="fil5"
   d="m 69.4,80.69 c 0.03,-0.04 0.05,-0.08 0.08,-0.13 v 0 c 0.02,-0.03 0.04,-0.07 0.05,-0.11 l -2.93,-1.56 -0.05,-0.02 -0.03,-0.05 -3.73,-4.27 0.05,0.09 c 1.01,2.09 2.24,4.61 3.57,6.05 z m 0.6,0.15 c -0.06,0.13 -0.13,0.24 -0.21,0.34 L 69.7,81.29 H 69.55 66.28 66.16 L 66.07,81.2 C 64.63,79.71 63.35,77.07 62.3,74.9 62.06,74.41 61.84,73.95 61.63,73.53 l -0.14,-0.27 0.27,-0.13 0.21,-0.1 0.21,-0.1 0.14,0.17 4.61,5.29 3.12,1.66 0.23,0.12 -0.09,0.25 c -0.06,0.15 -0.12,0.3 -0.19,0.42 z"
   id="path108" />
   <path
   class="fil7"
   d="m 69.55,80.99 c 0.14,-0.16 0.25,-0.38 0.36,-0.68 L 66.74,78.63 62.1,73.3 61.89,73.4 c 1.16,2.29 2.67,5.8 4.39,7.59 z"
   id="path110" />
   <path
   class="fil5"
   d="m 57.2,79.36 2.42,-3.88 -3.02,3.12 -0.02,0.02 -0.02,0.02 -2.62,1.82 0.04,0.03 c 0.12,0.07 0.25,0.14 0.38,0.2 h 1.81 v 0.01 l 0.53,-0.02 c 0,-0.12 0.02,-0.24 0.06,-0.37 0.09,-0.36 0.29,-0.76 0.44,-0.95 z m 4.05,-5.37 -3.55,5.7 -0.01,0.02 -0.02,0.03 c -0.11,0.11 -0.26,0.43 -0.34,0.72 -0.04,0.15 -0.06,0.28 -0.05,0.29 l 0.52,0.49 -0.72,0.02 -0.91,0.03 v 0 H 54.3 54.23 L 54.17,81.26 C 53.99,81.18 53.83,81.09 53.67,81 53.51,80.9 53.36,80.8 53.23,80.71 l -0.34,-0.25 0.35,-0.24 2.95,-2.05 4.44,-4.61 0.15,-0.15 0.19,0.09 0.14,0.06 0.32,0.14 z"
   id="path112" />
   <path
   class="fil7"
   d="m 57.45,79.54 3.54,-5.71 -0.14,-0.06 -4.46,4.63 -2.98,2.06 c 0.25,0.19 0.56,0.39 0.89,0.53 h 1.87 l 0.91,-0.02 c -0.25,-0.24 0.14,-1.18 0.37,-1.43 z"
   id="path114" />
   <path
   class="fil5"
   d="m 95.44,95.29 h 0.41 0.3 v 0.3 1.84 0.29 h -0.3 -0.57 -0.3 v 0 h -0.3 -0.29 v -0.3 -0.57 -0.27 l 0.26,-0.03 0.3,-0.03 0.2,-0.99 0.05,-0.24 z m 0.12,1.83 v -0.61 l -0.07,0.34 -0.05,0.21 -0.21,0.02 -0.25,0.04 v 0 h 0.3 z"
   id="path116" />
   <polygon
   class="fil7"
   points="95.28,97.43 95.28,97.42 94.68,97.42 94.68,96.85 95.19,96.79 95.44,95.59 95.85,95.59 95.85,97.43 "
   id="polygon118" />
   <path
   class="fil8"
   d="m 67.77,121.23 h -0.88 v -5.67 c -0.22,0.2 -0.5,0.41 -0.85,0.61 -0.35,0.2 -0.66,0.36 -0.93,0.46 v -0.86 c 0.49,-0.24 0.93,-0.52 1.3,-0.85 0.37,-0.34 0.64,-0.66 0.79,-0.97 h 0.57 z m 2.42,-1.68 0.85,-0.08 c 0.08,0.4 0.21,0.69 0.42,0.88 0.2,0.18 0.47,0.27 0.79,0.27 0.27,0 0.51,-0.06 0.72,-0.19 0.2,-0.13 0.37,-0.29 0.5,-0.5 0.13,-0.21 0.24,-0.49 0.33,-0.85 0.09,-0.35 0.14,-0.72 0.14,-1.09 0,-0.04 -0.01,-0.1 -0.01,-0.17 -0.18,0.28 -0.42,0.51 -0.73,0.68 -0.31,0.18 -0.64,0.27 -1,0.27 -0.6,0 -1.11,-0.22 -1.52,-0.65 -0.42,-0.44 -0.63,-1.01 -0.63,-1.72 0,-0.74 0.22,-1.33 0.65,-1.78 0.44,-0.45 0.98,-0.67 1.63,-0.67 0.48,0 0.91,0.13 1.3,0.38 0.39,0.25 0.68,0.62 0.89,1.08 0.2,0.47 0.3,1.15 0.3,2.04 0,0.93 -0.1,1.67 -0.3,2.22 -0.2,0.55 -0.5,0.96 -0.9,1.25 -0.4,0.29 -0.86,0.43 -1.4,0.43 -0.56,0 -1.02,-0.16 -1.38,-0.47 -0.36,-0.32 -0.58,-0.76 -0.65,-1.33 z m 3.64,-3.2 c 0,-0.51 -0.13,-0.91 -0.4,-1.21 -0.28,-0.3 -0.6,-0.45 -0.99,-0.45 -0.39,0 -0.74,0.16 -1.03,0.48 -0.29,0.32 -0.44,0.74 -0.44,1.26 0,0.46 0.14,0.83 0.42,1.12 0.28,0.29 0.62,0.43 1.03,0.43 0.41,0 0.75,-0.14 1.01,-0.43 0.27,-0.29 0.4,-0.69 0.4,-1.2 z m 5.21,4.88 h -0.89 v -5.67 c -0.22,0.2 -0.5,0.41 -0.84,0.61 -0.35,0.2 -0.67,0.36 -0.94,0.46 v -0.86 c 0.5,-0.24 0.93,-0.52 1.3,-0.85 0.37,-0.34 0.64,-0.66 0.8,-0.97 h 0.57 z m 6.95,-0.86 v 0.86 H 81.2 c 0,-0.22 0.03,-0.42 0.11,-0.62 0.12,-0.33 0.31,-0.65 0.58,-0.97 0.27,-0.31 0.66,-0.68 1.17,-1.09 0.78,-0.65 1.32,-1.16 1.6,-1.54 0.27,-0.38 0.41,-0.73 0.41,-1.07 0,-0.35 -0.13,-0.65 -0.38,-0.89 -0.25,-0.24 -0.58,-0.36 -0.98,-0.36 -0.43,0 -0.78,0.12 -1.03,0.38 -0.26,0.26 -0.39,0.61 -0.39,1.07 l -0.92,-0.09 c 0.06,-0.69 0.3,-1.21 0.71,-1.56 0.41,-0.36 0.96,-0.54 1.64,-0.54 0.7,0 1.25,0.19 1.66,0.58 0.4,0.38 0.61,0.86 0.61,1.43 0,0.29 -0.06,0.58 -0.18,0.86 -0.12,0.28 -0.32,0.57 -0.59,0.88 -0.28,0.31 -0.74,0.74 -1.38,1.28 -0.53,0.45 -0.87,0.75 -1.02,0.91 -0.16,0.16 -0.28,0.32 -0.38,0.48 z"
   id="path120"
   style="display:inline" />
   <path
   class="fil9"
   d="m 44.42,35.41 h 2.63 c 0.52,0 0.9,0.02 1.16,0.07 0.26,0.04 0.48,0.13 0.69,0.26 0.2,0.14 0.36,0.32 0.5,0.55 0.13,0.23 0.2,0.49 0.2,0.77 0,0.31 -0.08,0.59 -0.25,0.84 -0.16,0.26 -0.39,0.45 -0.67,0.58 0.4,0.12 0.7,0.31 0.92,0.6 0.21,0.28 0.32,0.61 0.32,0.99 0,0.3 -0.07,0.59 -0.21,0.87 -0.14,0.28 -0.33,0.51 -0.57,0.68 -0.24,0.16 -0.53,0.27 -0.89,0.31 -0.22,0.02 -0.75,0.04 -1.59,0.04 h -2.24 z m 1.33,1.09 v 1.51 h 0.87 c 0.51,0 0.83,0 0.96,-0.02 0.23,-0.02 0.4,-0.1 0.53,-0.23 0.13,-0.13 0.2,-0.3 0.2,-0.51 0,-0.21 -0.06,-0.37 -0.17,-0.5 -0.11,-0.12 -0.28,-0.2 -0.5,-0.23 -0.13,-0.01 -0.51,-0.02 -1.13,-0.02 z m 0,2.6 v 1.76 h 1.23 c 0.48,0 0.78,-0.01 0.91,-0.04 0.2,-0.03 0.36,-0.12 0.48,-0.26 0.12,-0.14 0.19,-0.32 0.19,-0.56 0,-0.2 -0.05,-0.36 -0.15,-0.5 C 48.32,39.36 48.18,39.26 48,39.2 47.82,39.14 47.43,39.1 46.82,39.1 Z m 5.29,2.87 v -6.56 h 4.86 v 1.11 h -3.53 v 1.46 h 3.28 v 1.11 h -3.28 v 1.77 h 3.65 v 1.11 z m 1.8,-7.15 0.63,-1.34 h 1.4 l -1.24,1.34 z m 4.33,7.15 v -6.56 h 1.33 v 2.91 l 2.68,-2.91 h 1.78 l -2.48,2.56 2.61,4 h -1.72 l -1.8,-3.08 -1.07,1.1 v 1.98 z m 6.6,0 v -6.56 h 4.86 v 1.11 H 65.1 v 1.46 h 3.28 v 1.11 H 65.1 v 1.77 h 3.65 v 1.11 z m 1.8,-7.15 0.63,-1.34 h 1.4 l -1.24,1.34 z m 3.96,5.03 1.3,-0.13 c 0.07,0.43 0.23,0.75 0.47,0.95 0.23,0.2 0.55,0.3 0.96,0.3 0.42,0 0.74,-0.09 0.95,-0.27 0.22,-0.18 0.33,-0.39 0.33,-0.63 0,-0.15 -0.05,-0.29 -0.14,-0.4 -0.09,-0.1 -0.25,-0.2 -0.47,-0.28 -0.16,-0.05 -0.51,-0.15 -1.06,-0.29 -0.7,-0.17 -1.2,-0.39 -1.49,-0.65 -0.4,-0.36 -0.6,-0.8 -0.6,-1.32 0,-0.34 0.1,-0.65 0.28,-0.94 0.19,-0.29 0.47,-0.52 0.82,-0.67 0.36,-0.15 0.78,-0.23 1.29,-0.23 0.82,0 1.44,0.18 1.85,0.55 0.42,0.36 0.63,0.85 0.66,1.46 l -1.33,0.05 c -0.06,-0.34 -0.18,-0.59 -0.37,-0.73 -0.18,-0.15 -0.46,-0.23 -0.83,-0.23 -0.38,0 -0.68,0.08 -0.9,0.24 -0.13,0.1 -0.2,0.24 -0.2,0.41 0,0.16 0.06,0.29 0.19,0.4 0.17,0.14 0.57,0.29 1.22,0.44 0.64,0.15 1.12,0.31 1.42,0.47 0.31,0.16 0.55,0.39 0.73,0.67 0.17,0.28 0.26,0.63 0.26,1.04 0,0.38 -0.11,0.73 -0.32,1.06 -0.21,0.33 -0.5,0.57 -0.88,0.73 -0.38,0.16 -0.86,0.24 -1.43,0.24 -0.83,0 -1.46,-0.19 -1.91,-0.57 -0.44,-0.38 -0.71,-0.94 -0.8,-1.67 z m 10.66,-0.3 1.29,0.4 c -0.2,0.72 -0.53,1.26 -0.99,1.61 -0.46,0.35 -1.04,0.52 -1.74,0.52 -0.87,0 -1.59,-0.3 -2.15,-0.89 -0.56,-0.6 -0.84,-1.41 -0.84,-2.44 0,-1.1 0.28,-1.95 0.84,-2.55 0.57,-0.61 1.31,-0.91 2.23,-0.91 0.8,0 1.45,0.24 1.96,0.71 0.29,0.29 0.52,0.69 0.67,1.22 l -1.31,0.31 c -0.08,-0.34 -0.24,-0.61 -0.49,-0.81 -0.25,-0.19 -0.55,-0.29 -0.9,-0.29 -0.48,0 -0.88,0.17 -1.18,0.52 -0.31,0.35 -0.46,0.92 -0.46,1.7 0,0.83 0.15,1.42 0.45,1.77 0.3,0.35 0.69,0.53 1.16,0.53 0.36,0 0.66,-0.12 0.92,-0.34 0.25,-0.22 0.43,-0.58 0.54,-1.06 z m 2.07,0.3 1.3,-0.13 c 0.07,0.43 0.23,0.75 0.47,0.95 0.23,0.2 0.55,0.3 0.95,0.3 0.43,0 0.75,-0.09 0.96,-0.27 0.22,-0.18 0.33,-0.39 0.33,-0.63 0,-0.15 -0.05,-0.29 -0.14,-0.4 -0.09,-0.1 -0.25,-0.2 -0.47,-0.28 -0.16,-0.05 -0.51,-0.15 -1.06,-0.29 -0.71,-0.17 -1.2,-0.39 -1.49,-0.65 -0.4,-0.36 -0.6,-0.8 -0.6,-1.32 0,-0.34 0.1,-0.65 0.28,-0.94 0.19,-0.29 0.47,-0.52 0.82,-0.67 0.36,-0.15 0.78,-0.23 1.29,-0.23 0.82,0 1.44,0.18 1.85,0.55 0.42,0.36 0.63,0.85 0.66,1.46 l -1.33,0.05 c -0.06,-0.34 -0.18,-0.59 -0.37,-0.73 -0.18,-0.15 -0.46,-0.23 -0.83,-0.23 -0.38,0 -0.68,0.08 -0.9,0.24 -0.13,0.1 -0.2,0.24 -0.2,0.41 0,0.16 0.06,0.29 0.19,0.4 0.17,0.14 0.57,0.29 1.22,0.44 0.64,0.15 1.12,0.31 1.42,0.47 0.31,0.16 0.55,0.39 0.73,0.67 0.17,0.28 0.26,0.63 0.26,1.04 0,0.38 -0.11,0.73 -0.32,1.06 -0.21,0.33 -0.5,0.57 -0.88,0.73 -0.38,0.16 -0.86,0.24 -1.43,0.24 -0.83,0 -1.47,-0.19 -1.91,-0.57 -0.44,-0.38 -0.71,-0.94 -0.8,-1.67 z m 12.37,2.12 H 93.2 l -0.56,-1.49 h -2.63 l -0.55,1.49 h -1.4 l 2.54,-6.56 h 1.41 z m -2.42,-2.6 -0.91,-2.43 -0.89,2.43 z m 3.13,-3.96 h 2.63 c 0.52,0 0.9,0.02 1.16,0.07 0.26,0.04 0.48,0.13 0.69,0.26 0.2,0.14 0.36,0.32 0.5,0.55 0.13,0.23 0.2,0.49 0.2,0.77 0,0.31 -0.08,0.59 -0.25,0.84 -0.16,0.26 -0.39,0.45 -0.67,0.58 0.4,0.12 0.71,0.31 0.92,0.6 0.22,0.28 0.32,0.61 0.32,0.99 0,0.3 -0.07,0.59 -0.21,0.87 -0.14,0.28 -0.32,0.51 -0.56,0.68 -0.25,0.16 -0.54,0.27 -0.9,0.31 -0.22,0.02 -0.75,0.04 -1.59,0.04 h -2.24 z m 1.33,1.09 v 1.51 h 0.87 c 0.51,0 0.83,0 0.96,-0.02 0.22,-0.02 0.4,-0.1 0.53,-0.23 0.13,-0.13 0.2,-0.3 0.2,-0.51 0,-0.21 -0.06,-0.37 -0.17,-0.5 -0.11,-0.12 -0.28,-0.2 -0.5,-0.23 -0.13,-0.01 -0.51,-0.02 -1.13,-0.02 z m 0,2.6 v 1.76 h 1.23 c 0.48,0 0.78,-0.01 0.91,-0.04 0.19,-0.03 0.35,-0.12 0.48,-0.26 0.12,-0.14 0.19,-0.32 0.19,-0.56 0,-0.2 -0.05,-0.36 -0.15,-0.5 -0.09,-0.14 -0.23,-0.24 -0.41,-0.3 -0.18,-0.06 -0.58,-0.1 -1.18,-0.1 z m 11.2,2.87 h -1.43 l -0.57,-1.49 h -2.63 l -0.54,1.49 h -1.41 l 2.55,-6.56 h 1.4 z m -2.43,-2.6 -0.91,-2.43 -0.88,2.43 z M 52.18,52.21 h -1.25 v -4.75 c -0.46,0.43 -1,0.75 -1.63,0.96 v -1.15 c 0.33,-0.11 0.69,-0.31 1.07,-0.61 0.39,-0.3 0.65,-0.65 0.79,-1.05 h 1.02 z m 1.93,-1.52 1.22,-0.14 c 0.02,0.25 0.1,0.44 0.23,0.55 0.12,0.13 0.29,0.18 0.49,0.18 0.26,0 0.47,-0.12 0.65,-0.36 0.19,-0.24 0.3,-0.73 0.35,-1.49 -0.32,0.37 -0.71,0.55 -1.18,0.55 -0.52,0 -0.97,-0.2 -1.34,-0.59 -0.37,-0.4 -0.56,-0.92 -0.56,-1.56 0,-0.66 0.2,-1.2 0.59,-1.61 0.4,-0.4 0.9,-0.61 1.51,-0.61 0.67,0 1.21,0.26 1.64,0.78 0.43,0.51 0.64,1.36 0.64,2.54 0,1.2 -0.22,2.07 -0.66,2.6 -0.45,0.53 -1.02,0.8 -1.74,0.8 -0.51,0 -0.92,-0.14 -1.24,-0.41 -0.31,-0.28 -0.52,-0.69 -0.6,-1.23 z m 2.83,-2.76 c 0,-0.4 -0.09,-0.72 -0.28,-0.94 -0.19,-0.22 -0.4,-0.33 -0.64,-0.33 -0.24,0 -0.43,0.09 -0.58,0.27 -0.16,0.19 -0.23,0.49 -0.23,0.9 0,0.42 0.08,0.73 0.25,0.93 0.16,0.2 0.37,0.3 0.62,0.3 0.24,0 0.45,-0.1 0.61,-0.29 0.17,-0.19 0.25,-0.47 0.25,-0.84 z m 5.44,4.28 h -1.26 v -4.75 c -0.46,0.43 -1,0.75 -1.62,0.96 v -1.15 c 0.33,-0.11 0.68,-0.31 1.06,-0.61 0.39,-0.3 0.65,-0.65 0.8,-1.05 h 1.02 z m 6.13,-1.16 v 1.16 H 64.1 c 0.05,-0.44 0.19,-0.86 0.43,-1.26 0.24,-0.39 0.71,-0.92 1.41,-1.57 0.57,-0.53 0.91,-0.89 1.04,-1.08 0.18,-0.26 0.26,-0.51 0.26,-0.77 0,-0.28 -0.07,-0.49 -0.22,-0.65 -0.15,-0.15 -0.36,-0.22 -0.63,-0.22 -0.26,0 -0.47,0.08 -0.62,0.23 -0.15,0.16 -0.24,0.43 -0.27,0.79 l -1.25,-0.12 c 0.07,-0.7 0.3,-1.19 0.7,-1.49 0.39,-0.31 0.88,-0.46 1.48,-0.46 0.64,0 1.15,0.18 1.52,0.53 0.37,0.35 0.56,0.78 0.56,1.3 0,0.3 -0.06,0.58 -0.16,0.85 -0.11,0.27 -0.28,0.55 -0.51,0.84 -0.15,0.2 -0.42,0.48 -0.82,0.84 -0.4,0.37 -0.65,0.61 -0.76,0.73 -0.1,0.12 -0.19,0.23 -0.26,0.35 z m 3.67,1.16 v -6.56 h 4.86 v 1.11 h -3.53 v 1.45 h 3.28 v 1.11 h -3.28 v 1.78 h 3.66 v 1.11 z m 6.15,0 V 45.7 h 1.33 v 5.4 h 3.29 v 1.11 z m 5.29,-3.24 c 0,-0.67 0.1,-1.23 0.3,-1.69 0.15,-0.33 0.35,-0.63 0.61,-0.9 0.26,-0.26 0.54,-0.46 0.85,-0.59 0.41,-0.17 0.88,-0.26 1.41,-0.26 0.97,0 1.74,0.3 2.33,0.9 0.58,0.6 0.87,1.44 0.87,2.51 0,1.06 -0.29,1.89 -0.87,2.49 -0.57,0.6 -1.35,0.9 -2.31,0.9 -0.97,0 -1.75,-0.3 -2.33,-0.9 -0.57,-0.59 -0.86,-1.41 -0.86,-2.46 z m 1.36,-0.04 c 0,0.74 0.18,1.3 0.52,1.69 0.34,0.38 0.78,0.57 1.31,0.57 0.53,0 0.96,-0.19 1.3,-0.57 0.34,-0.38 0.51,-0.95 0.51,-1.71 0,-0.76 -0.16,-1.32 -0.5,-1.69 -0.33,-0.37 -0.76,-0.55 -1.31,-0.55 -0.55,0 -0.99,0.18 -1.32,0.56 -0.34,0.37 -0.51,0.94 -0.51,1.7 z m 0.4,-3.88 0.62,-1.34 h 1.32 l -1.15,1.34 z m 1.68,0 0.63,-1.34 h 1.28 l -1.1,1.34 z m 3.96,7.16 v -6.56 h 2.79 c 0.7,0 1.21,0.06 1.53,0.18 0.32,0.11 0.57,0.32 0.76,0.62 0.19,0.31 0.29,0.65 0.29,1.04 0,0.49 -0.14,0.9 -0.43,1.22 -0.29,0.32 -0.72,0.52 -1.29,0.6 0.28,0.17 0.52,0.35 0.7,0.55 0.19,0.2 0.44,0.56 0.75,1.07 l 0.8,1.28 h -1.58 l -0.95,-1.43 c -0.34,-0.51 -0.58,-0.83 -0.7,-0.96 -0.13,-0.14 -0.26,-0.23 -0.4,-0.28 -0.14,-0.04 -0.37,-0.07 -0.67,-0.07 h -0.27 v 2.74 z m 1.33,-3.78 h 0.98 c 0.64,0 1.03,-0.03 1.19,-0.09 0.16,-0.05 0.28,-0.14 0.37,-0.27 0.09,-0.13 0.14,-0.3 0.14,-0.5 0,-0.22 -0.06,-0.4 -0.18,-0.53 -0.12,-0.14 -0.29,-0.22 -0.5,-0.26 -0.11,-0.01 -0.43,-0.02 -0.97,-0.02 h -1.03 z m 5.29,3.78 v -6.56 h 4.86 v 1.11 h -3.53 v 1.45 h 3.28 v 1.11 h -3.28 v 1.78 h 3.65 v 1.11 z"
   id="path122"
   style="display:inline" />
  </g></g>
</svg>
