<?xml version="1.0" encoding="UTF-8" standalone="no"?>
<!-- Generator: Adobe Illustrator 26.3.1, SVG Export Plug-In . SVG Version: 6.00 Build 0)  -->

<svg
   version="1.1"
   id="Réteg_1"
   x="0px"
   y="0px"
   viewBox="0 0 242.85714 300"
   xml:space="preserve"
   sodipodi:docname="kbsc.svg"
   width="242.85715"
   height="300"
   inkscape:version="1.2.2 (732a01da63, 2022-12-09)"
   xmlns:inkscape="http://www.inkscape.org/namespaces/inkscape"
   xmlns:sodipodi="http://sodipodi.sourceforge.net/DTD/sodipodi-0.dtd"
   xmlns="http://www.w3.org/2000/svg"
   xmlns:svg="http://www.w3.org/2000/svg"><defs
   id="defs260" /><sodipodi:namedview
   id="namedview258"
   pagecolor="#ffffff"
   bordercolor="#000000"
   borderopacity="0.25"
   inkscape:showpageshadow="2"
   inkscape:pageopacity="0.0"
   inkscape:pagecheckerboard="0"
   inkscape:deskcolor="#d1d1d1"
   showgrid="false"
   inkscape:zoom="2.2351854"
   inkscape:cx="181.19302"
   inkscape:cy="148.30984"
   inkscape:window-width="1920"
   inkscape:window-height="1051"
   inkscape:window-x="-9"
   inkscape:window-y="-9"
   inkscape:window-maximized="1"
   inkscape:current-layer="Réteg_1" />
<style
   type="text/css"
   id="style197">
	.st0{fill:#5567AE;}
</style>


<g
   id="g428"
   transform="scale(3.5714286)"><path
     class="st0"
     d="M 26.7,65.5 26,65.6 25.7,64.4 27.1,64 h 1.2 v 4.7 h -1.5 v -3.2 z m 4.9,1.3 c -0.3,0.3 -0.6,0.4 -1,0.4 -0.8,0 -1.4,-0.6 -1.5,-1.4 v -0.1 c 0,-1 0.8,-1.7 1.7,-1.8 H 31 c 0.6,0 1.1,0.2 1.5,0.6 0.4,0.5 0.6,1.1 0.6,1.7 0,1.5 -0.8,2.6 -2.3,2.6 -0.6,0 -1.2,-0.2 -1.7,-0.5 l 0.7,-1 c 0.3,0.2 0.6,0.3 1,0.3 0.7,0.1 0.8,-0.4 0.8,-0.8 z m 0,-1.1 c 0,-0.3 -0.2,-0.5 -0.5,-0.6 -0.3,0 -0.5,0.2 -0.5,0.5 -0.1,0.3 0.1,0.5 0.4,0.6 0.3,0.1 0.5,-0.1 0.6,-0.5 0,0.2 0,0.1 0,0 z m 1.8,2.4 0.8,-1 c 0.3,0.3 0.7,0.5 1.2,0.5 0.4,0 0.6,-0.2 0.6,-0.4 0,-0.3 -0.2,-0.4 -0.5,-0.4 -0.3,0 -0.5,0.1 -0.7,0.3 L 33.9,66.6 34,64.2 h 3.3 v 1.2 H 35.1 V 66 c 0.3,-0.2 0.6,-0.3 0.9,-0.2 0.8,0 1.5,0.6 1.5,1.4 v 0.1 c 0,1.1 -0.9,1.7 -2.1,1.7 -0.7,-0.1 -1.4,-0.4 -2,-0.9 z m 6.9,-2.7 H 38.2 V 64.1 H 42 v 1.2 l -2,3.5 h -1.7 z"
     id="path199" /><path
     class="st0"
     d="m 36.4,81.6 0.5,-2.3 0.7,0.6 1.2,0.6 -1,0.6 -0.5,0.6 0.5,0.3 v 0.2 l -0.7,-0.2 0.7,0.5 -0.1,0.1 -0.7,-0.5 0.7,0.5 v 0.2 l -0.8,-0.4 0.7,0.5 -0.1,0.1 -0.8,-0.4 0.5,0.3 L 37,83 h -0.5 l 0.2,0.2 -0.1,0.1 -0.3,-0.2 -0.1,0.1 0.5,0.8 h -2.1 l 0.7,-0.9 z M 29,77.1 28.7,78.1 26.4,76.5 23.1,80 23,79.9 25.7,76.1 H 25.6 L 25.5,75.7 24.9,75.3 25.5,75.1 25.6,75 25.3,74.2 V 74 l 0.6,0.8 0.2,-0.2 -0.2,-0.3 0.2,-0.2 0.3,0.2 -0.7,-0.8 0.1,-0.1 0.7,0.5 -0.5,-0.9 0.1,-0.1 0.8,0.9 0.1,-0.1 -0.4,-0.7 0.2,-0.1 0.3,0.4 v -0.2 l 0.2,-0.1 0.1,0.4 h 0.1 l -0.5,-1 0.2,-0.1 0.3,1 0.1,-1 0.2,0.1 -0.1,0.9 V 73 l 0.2,-0.1 0.1,-1 h 0.2 l 0.4,1.3 h 0.1 L 28.4,72 h 0.2 l 0.3,1.1 v -0.8 h 0.3 V 73 h 0.1 0.1 l -0.1,-1.2 h 0.3 l 0.1,0.7 0.2,-0.8 0.3,0.1 -0.3,1.2 0.3,-0.6 0.2,0.1 -0.2,0.5 h 0.1 l 0.1,-0.3 0.2,0.2 v 0.6 h 0.1 l 0.2,-1.3 h 0.2 v 0.4 h 0.1 l 0.1,0.5 0.1,-0.5 h 0.2 v 0.8 l 0.6,-0.8 0.2,0.2 -0.6,1.2 0.1,0.1 0.3,-0.4 0.1,0.2 -0.1,0.3 0.3,-0.3 0.1,0.1 -0.3,0.5 0.1,0.1 0.8,-0.9 0.1,0.1 -0.6,1.1 0.1,0.1 0.7,-0.6 v 0.2 l -0.5,0.6 0.1,0.1 0.5,-0.1 0.2,0.2 -0.3,0.3 0.1,0.1 1,0.1 3.4,-0.4 1.5,0.1 2.4,-0.8 0.9,-1.1 0.7,-0.6 h 0.1 l 0.7,-0.6 v 0.2 l -0.4,0.6 0.3,-0.3 0.2,0.1 -0.2,0.2 0.7,-0.2 0.2,0.1 -0.9,0.4 h 0.5 V 74 l -0.8,0.2 -0.5,0.2 -1.2,0.8 -1.8,0.8 -0.1,0.4 0.3,0.7 0.2,0.7 v 0.7 l 0.1,0.5 0.6,0.6 0.8,1.2 0.3,-0.2 0.1,0.1 -0.2,0.2 0.4,-0.2 0.2,0.1 -0.5,0.3 0.7,-0.5 0.1,0.2 -0.7,0.5 0.8,-0.4 v 0.2 l -0.7,0.5 0.8,-0.4 0.1,0.1 -0.8,0.7 0.7,-0.3 v 0.2 l -0.6,0.3 0.1,0.2 -0.5,0.7 0.6,0.8 h -2.4 l 1,-1.1 L 41.9,82 41.2,80.8 39,80.5 37.6,79.8 36.8,79.1 36.5,79 l -4.4,0.7 -1.9,0.7 -1.6,1.2 0.4,0.4 -0.1,0.2 -0.6,-0.4 0.7,0.6 -0.1,0.1 -0.7,-0.5 0.4,0.7 -0.1,0.1 -0.6,-0.7 -0.1,0.1 0.7,0.7 -0.2,0.2 -0.8,-0.7 0.5,0.5 -0.2,0.1 -0.4,-0.2 0.2,0.3 -0.2,0.1 L 27,83 26.9,83.3 27.4,84 h -2.5 l 0.6,-0.7 0.4,-0.2 3.4,-3.6 0.6,-0.5 -0.3,-1 v -1 l -0.3,-1 -0.8,-0.2 v 0.5 z m 2,-3.6 0.1,-0.6 z m -0.9,9.7 -0.4,0.8 h 1.8 l -0.4,-0.7 v -0.2 l 0.4,0.1 0.1,-0.2 -0.1,-0.1 0.2,-0.1 -0.4,-0.4 v -0.1 l 0.6,0.5 0.2,-0.2 -0.6,-0.6 0.7,0.3 0.1,-0.2 -0.5,-0.3 0.7,0.1 0.1,-0.2 -0.9,-0.2 v -0.1 l 0.7,0.1 v -0.2 l -0.6,-0.2 0.7,-1.4 -0.5,0.1 -1,0.4 z"
     id="path201" /><path
     class="st0"
     d="M 45.2,0 22.6,26.8 C 22.5,26.9 22.3,27 22.1,26.9 22,26.8 22,26.7 22,26.6 V 0 h 3 c 0.6,0 1,0.4 1,1 V 16.5 L 39.2,0.8 C 39.7,0.3 40.4,0 41.1,0 Z M 26,59 V 43.5 l 13.2,15.7 c 0.5,0.5 1.1,0.9 1.8,0.9 h 4.1 L 22.6,33.2 C 22.5,33.1 22.3,33 22.1,33.1 22,33.2 22,33.3 22,33.4 V 60 h 3 c 0.6,0 1.1,-0.5 1,-1 z M 67,0 h -3 v 57.7 0.8 c 0,0 0,0.5 -0.1,0.7 -0.1,0.5 -0.2,0.9 -0.3,1.4 -0.2,0.9 -0.6,1.9 -1,2.7 -0.2,0.4 -0.5,0.8 -0.8,1.2 -0.3,0.4 -0.6,0.8 -0.9,1.1 -0.6,0.7 -1.2,1.3 -1.9,2 -1.3,1.3 -2.6,2.5 -4,3.7 -1.4,1.2 -2.7,2.4 -4.1,3.6 1.3,-1.3 2.6,-2.6 3.8,-3.9 1.2,-1.3 2.4,-2.7 3.6,-4 0.6,-0.7 1.1,-1.4 1.7,-2.1 0.3,-0.3 0.5,-0.7 0.7,-1.1 0.2,-0.4 0.4,-0.7 0.5,-1.1 0.3,-0.8 0.5,-1.6 0.6,-2.4 0,-0.4 0.1,-0.8 0.1,-1.2 0,-0.2 0,-1 0,-1 V 0 h -2.6 l -25,29.8 c -0.1,0.1 -0.1,0.3 0,0.4 L 56,56 v -5.3 c 0,-0.6 -0.2,-1.1 -0.6,-1.5 L 39.4,30 58,7.9 V 58 c 0,2.6 -0.8,5.1 -2.4,7.1 L 47.3,75 C 45.7,76.9 46,80 46,82 L 61.5,70.6 C 65.2,67.4 67.5,62.9 68,58 V 1 C 68,0.4 67.6,0 67,0 Z M 20.8,75.1 12.5,65.2 C 10.9,63.2 10,60.7 10,58.1 V 0 H 6.1 L 6,58 v 1 c 0,0.4 0.1,0.8 0.2,1.2 0.1,0.8 0.3,1.7 0.6,2.4 0.1,0.4 0.3,0.8 0.5,1.1 0.2,0.4 0.5,0.7 0.7,1.1 0.5,0.7 1.1,1.4 1.7,2.1 1.2,1.4 2.4,2.7 3.6,4 1.2,1.3 2.5,2.6 3.7,3.9 C 15.7,73.6 14.3,72.5 13,71.2 11.7,70 10.3,68.8 9,67.5 8.4,66.9 7.7,66.2 7.1,65.5 6.8,65.2 6.5,64.8 6.2,64.4 5.9,64 5.7,63.6 5.4,63.2 5,62.3 4.6,61.4 4.4,60.5 4.3,60 4.2,59.6 4.1,59.1 4.2,58.9 4,58.2 4,58 4,57.8 4,58.3 4,58 V 0 H 1.1 C 0.5,0 0.1,0.4 0.1,1 0.1,8.7 0,57.8 0,58 0.3,62.9 2.7,67.5 6.6,70.6 L 22.1,82 c 0,-2 0.3,-5.1 -1.3,-6.9 z"
     id="path203" /></g>


</svg>
