<?xml version="1.0" standalone="no"?>
<!DOCTYPE svg PUBLIC "-//W3C//DTD SVG 20010904//EN"
 "http://www.w3.org/TR/2001/REC-SVG-20010904/DTD/svg10.dtd">
<svg version="1.0" xmlns="http://www.w3.org/2000/svg"
 width="320.000000pt" height="317.000000pt" viewBox="0 0 320.000000 317.000000"
 preserveAspectRatio="xMidYMid meet">
<metadata>
Created by potrace 1.14, written by Peter Selinger 2001-2017
</metadata>
<g transform="translate(0.000000,317.000000) scale(0.100000,-0.100000)"
fill="#000000" stroke="none">
<path d="M890 3056 c0 -100 -63 -197 -161 -251 -46 -25 -68 -30 -146 -33 l-92
-4 5 -127 c6 -168 22 -397 35 -496 62 -495 293 -971 596 -1230 102 -87 152
-120 163 -109 7 7 -11 25 -47 51 -278 196 -504 548 -621 968 -52 185 -77 364
-92 667 -5 106 -10 205 -10 219 0 26 2 27 73 31 163 11 289 114 318 260 8 38
16 57 24 54 6 -2 59 -16 116 -30 385 -95 728 -94 1114 4 66 16 120 30 121 30
1 0 4 -22 7 -49 17 -143 148 -256 311 -268 l77 -6 -26 -27 c-22 -23 -25 -34
-25 -101 0 -127 -20 -388 -41 -531 -54 -380 -223 -755 -450 -1002 -68 -73
-240 -216 -260 -216 -18 0 -8 -19 21 -40 l31 -22 72 55 c197 151 374 383 490
642 140 314 194 588 212 1086 l7 187 -88 4 c-104 4 -164 28 -227 91 -47 47
-74 105 -83 179 l-6 55 -82 -24 c-188 -55 -444 -93 -626 -93 -183 0 -438 38
-627 94 l-83 24 0 -42z"/>
<path d="M946 2938 c-38 -133 -156 -224 -315 -244 l-54 -7 7 -166 c19 -484 81
-763 237 -1075 48 -96 150 -259 169 -271 5 -3 119 123 254 280 l246 284 0 261
0 260 -205 0 -205 0 0 65 0 65 485 0 484 0 148 173 c81 94 154 179 161 188 10
14 6 22 -25 55 -40 42 -83 126 -83 162 0 28 -2 28 -140 -7 -316 -80 -671 -81
-995 -5 -60 14 -120 28 -132 31 -18 4 -23 -2 -37 -49z m561 -200 c30 -29 32
-94 2 -132 -15 -20 -29 -26 -57 -26 -20 0 -42 4 -49 8 -20 13 3 36 38 36 18 1
34 6 36 12 2 6 -7 9 -25 6 -36 -5 -62 19 -62 58 0 55 73 79 117 38z m198 -3
c52 -51 19 -155 -49 -155 -44 0 -74 24 -82 65 -7 40 10 90 35 105 29 17 71 11
96 -15z m-415 -595 l0 -70 -160 0 -160 0 0 -55 0 -55 145 0 145 0 0 -70 0 -70
-145 0 -145 0 0 -60 0 -60 165 0 165 0 0 -65 0 -65 -240 0 -240 0 0 313 c0
173 3 317 7 320 3 4 109 7 235 7 l228 0 0 -70z"/>
<path d="M1640 2088 c0 -146 2 -170 14 -158 38 41 276 321 276 325 0 3 -65 5
-145 5 l-145 0 0 -172z"/>
</g>
</svg>
