<?xml version="1.0" encoding="UTF-8" standalone="no"?>
<!-- Created with Inkscape (http://www.inkscape.org/) -->

<svg
   width="256.578"
   height="365.29169"
   viewBox="0 0 67.886264 96.650091"
   version="1.1"
   id="svg1"
   xml:space="preserve"
   inkscape:version="1.3 (0e150ed6c4, 2023-07-21)"
   sodipodi:docname="Karcagi SE.svg"
   inkscape:export-filename="karcagise.png"
   inkscape:export-xdpi="96"
   inkscape:export-ydpi="96"
   xmlns:inkscape="http://www.inkscape.org/namespaces/inkscape"
   xmlns:sodipodi="http://sodipodi.sourceforge.net/DTD/sodipodi-0.dtd"
   xmlns="http://www.w3.org/2000/svg"
   xmlns:svg="http://www.w3.org/2000/svg"><sodipodi:namedview
     id="namedview1"
     pagecolor="#ffffff"
     bordercolor="#000000"
     borderopacity="0.25"
     inkscape:showpageshadow="2"
     inkscape:pageopacity="0.0"
     inkscape:pagecheckerboard="0"
     inkscape:deskcolor="#d1d1d1"
     inkscape:document-units="mm"
     inkscape:zoom="0.70710678"
     inkscape:cx="-239.7092"
     inkscape:cy="170.41273"
     inkscape:window-width="1920"
     inkscape:window-height="1057"
     inkscape:window-x="-8"
     inkscape:window-y="-8"
     inkscape:window-maximized="1"
     inkscape:current-layer="g2"
     showgrid="false"
     inkscape:lockguides="true"></sodipodi:namedview><defs
     id="defs1"><clipPath
       clipPathUnits="userSpaceOnUse"
       id="clipPath13"><path
         style="font-weight:bold;font-size:3.82332px;font-family:Arial;-inkscape-font-specification:'Arial Bold';display:inline;fill:#36559e;fill-opacity:1;stroke:#000000;stroke-width:0"
         d="m 109.33199,-94.766865 0.49609,0.05665 q 0.0447,-0.293371 0.18087,-0.430952 0.13781,-0.137581 0.37035,-0.137581 0.24632,0 0.37035,0.121395 0.12574,0.123418 0.12574,0.287301 0,0.105213 -0.0534,0.178047 -0.0517,0.07486 -0.18259,0.129487 -0.0896,0.03641 -0.40825,0.129488 -0.40997,0.119372 -0.57532,0.293371 -0.23255,0.244814 -0.23255,0.59686 0,0.226603 0.10852,0.422859 0.11024,0.198279 0.31523,0.301465 0.2067,0.103186 0.49781,0.103186 0.47542,0 0.71486,-0.244813 0.24115,-0.244814 0.25321,-0.65351 l -0.50987,-0.0263 q -0.0328,0.228627 -0.14125,0.327766 -0.1068,0.10116 -0.32211,0.10116 -0.22222,0 -0.34796,-0.107229 -0.0809,-0.06879 -0.0809,-0.184116 0,-0.105213 0.0757,-0.180069 0.0965,-0.09509 0.46854,-0.198279 0.37207,-0.103186 0.54949,-0.214465 0.17915,-0.109255 0.27905,-0.301464 0.10163,-0.190186 0.10163,-0.471418 0,-0.254929 -0.12058,-0.477487 -0.12057,-0.222558 -0.34106,-0.331813 -0.22049,-0.107229 -0.5495,-0.107229 -0.47886,0 -0.73552,0.258976 -0.25666,0.261 -0.30661,0.758719 z"
         id="path13" /></clipPath><clipPath
       clipPathUnits="userSpaceOnUse"
       id="clipPath14"><path
         style="opacity:1;fill:#36559e;fill-opacity:1;fill-rule:evenodd;stroke:none;stroke-width:3.74048;stroke-dasharray:none"
         d="m 66.85376,94.188361 7.27786,37.004329 7.27786,13.83819 3.382668,2.0501 -1.230061,2.87014 c 0,0 -1.332566,-0.82004 -1.742586,-1.02505 -0.410021,-0.20501 -3.895193,-1.94759 -3.895193,-1.94759 0,0 -5.330264,-10.25051 -6.150305,-11.27556 -0.82004,-1.02505 -5.022749,-15.06825 -5.022749,-15.06825 l -1.537576,-14.86324 -0.717535,-7.277856 -0.20501,-3.690183 0.512525,-1.742586 z"
         id="path19" /></clipPath><clipPath
       clipPathUnits="userSpaceOnUse"
       id="clipPath23"><path
         style="opacity:1;fill:#36559e;fill-opacity:1;fill-rule:evenodd;stroke:none;stroke-width:3.90469;stroke-dasharray:none"
         d="m 65.829303,95.64727 0.814395,0.01952 0.158068,0.654062 1.87964,9.911818 6.817556,28.27112 2.968936,5.72713 1.979292,3.07182 2.525583,1.87629 1.86609,2.50343 -1.71059,1.10446 -3.460044,-1.80394 c 0,0 -1.438448,-1.65669 -1.671709,-1.84077 -0.233262,-0.18407 -2.060478,-4.27057 -2.060478,-4.27057 0,0 -1.438447,-3.05567 -1.827216,-3.75516 -0.38877,-0.69949 -1.593954,-4.78599 -1.593954,-4.78599 l -1.166309,-4.01287 -1.244063,-4.78598 -0.544277,-2.68753 -1.438446,-4.01286 -1.161967,-4.10655 -1.522242,-7.16887 -1.97929,-8.746872 0.219921,-1.457811 z"
         id="path23" /></clipPath><clipPath
       clipPathUnits="userSpaceOnUse"
       id="clipPath25"><path
         style="display:inline;opacity:1;fill:#000000;fill-opacity:1;fill-rule:evenodd;stroke:none;stroke-width:3.74048;stroke-dasharray:none"
         d="m 84.123817,147.28477 v 1.26121 l -7.62874,-3.63046 -6.197211,-16.59839 -1.44964,-6.95827 0.181205,-2.13822 -4.058994,-22.215747 0.711599,-1.333915 0.02563,-0.03363 0.0068,-0.0051 0.144964,0.01925 0.516435,0.01246 0.302386,0.0091 -0.01812,0.960387 3.011552,14.421325 3.126404,13.53067 1.9476,8.55917 3.38267,6.20156 1.23006,2.66513 3.17766,4.35647 0.87129,0.35876 z"
         id="path27" /></clipPath></defs><g
     id="g12"
     style="display:inline"
     transform="matrix(1.8251649,0,0,1.8251649,-167.66877,-167.60625)"><g
       id="g27"
       style="display:inline"><path
         style="display:inline;fill:none;fill-opacity:1;stroke:#36559e;stroke-width:0.665;stroke-dasharray:none;stroke-opacity:1"
         d="M 110.57264,92.163636 H 92.248537 c 4.110419,28.686504 9.307803,51.810504 18.232633,52.289254"
         id="path1"
         sodipodi:nodetypes="ccc"
         inkscape:label="path1" /><path
         id="path31"
         style="display:inline;fill:#36559e;fill-opacity:1;stroke:none;stroke-width:0.00263522;stroke-dasharray:none;stroke-opacity:1"
         d="m 31.599844,0.34050015 c -0.09015,0 -0.161803,0.0728976 -0.161803,0.16327326 V 3.3583875 c 0,0.090376 0.07165,0.1632732 0.161803,0.1632732 h 1.634 c 0.406942,4.2051043 5.831898,38.7264463 8.431868,53.4885313 6.496072,36.883339 12.647046,63.488508 19.877321,85.999118 10.605067,33.01763 22.655428,51.12382 35.984199,54.06052 0.961202,0.21178 1.96126,0.39592 2.220537,0.40872 0.459271,0.0227 0.469901,-0.45484 0.422601,-18.54059 -0.0267,-10.20973 -0.0325,-47.70222 -0.0138,-83.315244 0.0187,-35.613034 0.001,-71.095655 -0.0373,-78.851377 L 100.04902,2.6700787 H 99.937249 V 0.50377341 c 0,-0.0903756 -0.07272,-0.16327326 -0.162867,-0.16327326 z"
         transform="matrix(0.26597858,0,0,0.26531805,83.785153,91.779192)" /><path
         style="display:inline;fill:none;fill-opacity:1;stroke:#36559e;stroke-width:0.665;stroke-dasharray:none;stroke-opacity:1"
         d="M 84.334145,95.352453 H 66.010042 c 4.110419,28.686517 9.307803,51.810517 18.232633,52.289267"
         id="path1-3"
         sodipodi:nodetypes="ccc"
         inkscape:label="path1-0"
         clip-path="url(#clipPath25)"
         transform="translate(26.242223,-3.7969901)" /><path
         style="display:inline;fill:none;fill-opacity:1;stroke:#36559e;stroke-width:0.665;stroke-dasharray:none;stroke-opacity:1"
         d="m 110.35194,92.163242 h 18.32411 c -4.04237,28.211638 -9.13604,51.043408 -17.79248,52.246938 -0.001,1.6e-4 -0.002,3.1e-4 -0.003,4.7e-4 -0.022,0.003 -0.0439,0.006 -0.0659,0.009 -0.12292,0.0154 -0.24656,0.0265 -0.37092,0.0332"
         id="path1-9"
         sodipodi:nodetypes="ccsssc" /><path
         style="display:inline;opacity:1;fill:#36559e;fill-opacity:1;fill-rule:evenodd;stroke:none;stroke-width:3.74048;stroke-dasharray:none"
         d="m 110.26786,144.09872 0.0977,0.0128 0.0833,0.008 h 0.0208 l 0.0545,-0.005 0.0225,0.663 -0.0776,0.005 h -0.007 l -0.009,-0.001 -0.0147,-5.8e-4 -0.0351,-10e-4 -0.0294,-0.003 -0.13534,-0.0119 z"
         id="path28" /><path
         id="path12"
         style="display:inline;fill:#ffffff;fill-opacity:1;fill-rule:evenodd;stroke:none;stroke-width:0.00999998;stroke-dasharray:none;stroke-opacity:1"
         d="m 110.36674,92.450859 v 51.659891 h 0.1664 V 92.452926 Z m 9.09504,-0.0019 -8.92664,0.0047 -0.0204,3.573212 c -0.0112,1.965338 -0.0152,12.629989 -0.009,23.699089 0.006,11.0691 0.007,21.0858 5.4e-4,22.25976 -0.0126,2.41327 -0.0819,2.23771 0.79575,2.01207 5.96832,-1.53448 10.75599,-13.65488 15.01578,-38.01423 0.81853,-4.68073 2.18088,-13.42904 2.10353,-13.506577 -0.0178,-0.01784 -4.0497,-0.03045 -8.95964,-0.02799 z" /><path
         style="display:inline;fill:#ffffff;fill-rule:evenodd;stroke-width:3.74048"
         d="m 110.36604,144.11068 v 0.0457 c 0,0 0.47361,-0.0355 0.52326,-0.0505 0.0157,-0.018 -0.52326,0.005 -0.52326,0.005 z"
         id="path9"
         sodipodi:nodetypes="ccccc" /></g><g
       id="g2"
       transform="matrix(0.62922765,0,0,0.86018338,40.921571,16.722745)"
       style="display:inline"><path
         style="display:inline;fill:none;stroke:#ffffff;stroke-width:0.501565;stroke-dasharray:none;stroke-opacity:1"
         d="M 110.57264,92.163636 H 92.248537 c 4.110419,28.686504 9.307803,51.810504 18.232633,52.289254"
         id="path1-1"
         sodipodi:nodetypes="ccc" /><path
         style="display:inline;fill:none;stroke:#36559e;stroke-width:0.501565;stroke-dasharray:none;stroke-opacity:1"
         d="m 110.36717,92.163242 h 18.32411 c -4.11042,28.686508 -9.30781,51.810508 -18.23264,52.289258"
         id="path1-9-2"
         sodipodi:nodetypes="ccc" /><path
         style="display:inline;fill:#36559e;fill-opacity:1;fill-rule:evenodd;stroke-width:0.00999998"
         d="m 110.36674,141.18897 -8.7e-4,-0.43512 c 0,0 0.03,0.008 0.0507,0.009 0.0207,0.001 0.008,0.0227 0.008,0.0227 l 0.0135,0.40722 c 0,0 -0.0238,0.004 -0.0714,-0.004 z"
         id="path11"
         sodipodi:nodetypes="ccscccc"
         transform="matrix(1.5892499,0,0,1.1625428,-65.034603,-19.440907)" /><path
         style="display:inline;fill:#36559e;fill-opacity:1;fill-rule:evenodd;stroke-width:6.82699"
         d="m 33.770548,89.295839 0.04754,0.01035 0.03824,0.0083 0.04134,-0.0031 0.04237,-0.0052 0.04961,-0.0041 0.04858,-0.0062 0.03824,-0.0041 0.04237,-0.0062 0.02998,-0.0041 v 0.784447 l -0.208775,0.02376 -0.07131,0.0031 -0.05684,-0.0021 -0.02791,-0.0041 -0.01138,-0.695563 z"
         id="path14"
         transform="matrix(0.87074321,0,0,0.63695221,80.961838,87.316263)" /></g><g
       id="g26"
       style="display:inline"><g
         id="g11"
         style="display:inline"><text
           xml:space="preserve"
           style="font-style:normal;font-variant:normal;font-weight:normal;font-stretch:normal;font-size:3.175px;font-family:Calibri;-inkscape-font-specification:Calibri;display:inline;fill:#36559e;fill-opacity:1;stroke:#000000;stroke-width:0;stroke-dasharray:none"
           x="77.754913"
           y="-135.06653"
           id="text4"
           transform="rotate(98.578285)"
           inkscape:label="text4"><tspan
             sodipodi:role="line"
             id="tspan4"
             style="font-style:normal;font-variant:normal;font-weight:bold;font-stretch:normal;font-family:Calibri;-inkscape-font-specification:'Calibri Bold';fill:#36559e;fill-opacity:1;stroke-width:0"
             x="77.754913"
             y="-135.06653">S</tspan></text><text
           xml:space="preserve"
           style="font-style:normal;font-variant:normal;font-weight:normal;font-stretch:normal;font-size:3.175px;font-family:Calibri;-inkscape-font-specification:Calibri;display:inline;fill:#36559e;fill-opacity:1;stroke:#000000;stroke-width:0;stroke-dasharray:none"
           x="89.883636"
           y="-129.20323"
           id="text5"
           transform="rotate(94.59975)"><tspan
             sodipodi:role="line"
             id="tspan5"
             style="font-style:normal;font-variant:normal;font-weight:bold;font-stretch:normal;font-family:Calibri;-inkscape-font-specification:'Calibri Bold';fill:#36559e;fill-opacity:1;stroke-width:0"
             x="89.883636"
             y="-129.20323">P</tspan></text><text
           xml:space="preserve"
           style="font-style:normal;font-variant:normal;font-weight:normal;font-stretch:normal;font-size:3.175px;font-family:Calibri;-inkscape-font-specification:Calibri;display:inline;fill:#36559e;fill-opacity:1;stroke:#000000;stroke-width:0;stroke-dasharray:none"
           x="83.712372"
           y="-135.30879"
           id="text6"
           transform="rotate(98.583168)"><tspan
             sodipodi:role="line"
             id="tspan6"
             style="font-style:normal;font-variant:normal;font-weight:bold;font-stretch:normal;font-family:Calibri;-inkscape-font-specification:'Calibri Bold';fill:#36559e;fill-opacity:1;stroke-width:0"
             x="83.712372"
             y="-135.30879">O</tspan></text><text
           xml:space="preserve"
           style="font-style:normal;font-variant:normal;font-weight:normal;font-stretch:normal;font-size:3.175px;font-family:Calibri;-inkscape-font-specification:Calibri;display:inline;fill:#36559e;fill-opacity:1;stroke:#000000;stroke-width:0;stroke-dasharray:none"
           x="91.510353"
           y="-132.53314"
           id="text7"
           transform="rotate(96.770457)"><tspan
             sodipodi:role="line"
             id="tspan7"
             style="font-style:normal;font-variant:normal;font-weight:bold;font-stretch:normal;font-family:Calibri;-inkscape-font-specification:'Calibri Bold';fill:#36559e;fill-opacity:1;stroke-width:0"
             x="91.510353"
             y="-132.53314">R</tspan></text><text
           xml:space="preserve"
           style="font-style:normal;font-variant:normal;font-weight:normal;font-stretch:normal;font-size:3.175px;font-family:Calibri;-inkscape-font-specification:Calibri;display:inline;fill:#36559e;fill-opacity:1;stroke:#000000;stroke-width:0;stroke-dasharray:none"
           x="90.657867"
           y="-135.16963"
           id="text8"
           transform="rotate(98.40238)"><tspan
             sodipodi:role="line"
             id="tspan8"
             style="font-style:normal;font-variant:normal;font-weight:bold;font-stretch:normal;font-family:Calibri;-inkscape-font-specification:'Calibri Bold';fill:#36559e;fill-opacity:1;stroke-width:0"
             x="90.657867"
             y="-135.16963">T</tspan></text><text
           xml:space="preserve"
           style="font-style:normal;font-variant:normal;font-weight:normal;font-stretch:normal;font-size:3.175px;font-family:Calibri;-inkscape-font-specification:Calibri;display:inline;fill:#36559e;fill-opacity:1;stroke:#000000;stroke-width:0;stroke-dasharray:none"
           x="67.993263"
           y="-164.17322"
           id="text8-3"
           transform="rotate(117.12823)"><tspan
             sodipodi:role="line"
             id="tspan8-7"
             style="font-style:normal;font-variant:normal;font-weight:bold;font-stretch:normal;font-family:Calibri;-inkscape-font-specification:'Calibri Bold';fill:#36559e;fill-opacity:1;stroke-width:0"
             x="67.993263"
             y="-164.17322">T</tspan></text><text
           xml:space="preserve"
           style="font-style:normal;font-variant:normal;font-weight:normal;font-stretch:normal;font-size:3.175px;font-family:Calibri;-inkscape-font-specification:Calibri;display:inline;fill:#36559e;fill-opacity:1;stroke:#000000;stroke-width:0;stroke-dasharray:none"
           x="94.355751"
           y="-134.57071"
           id="text9"
           transform="rotate(98.026856)"><tspan
             sodipodi:role="line"
             id="tspan9"
             style="font-style:normal;font-variant:normal;font-weight:bold;font-stretch:normal;font-family:Calibri;-inkscape-font-specification:'Calibri Bold';fill:#36559e;fill-opacity:1;stroke-width:0"
             x="94.355751"
             y="-134.57071">E</tspan></text><text
           xml:space="preserve"
           style="font-style:normal;font-variant:normal;font-weight:normal;font-stretch:normal;font-size:3.175px;font-family:Calibri;-inkscape-font-specification:Calibri;display:inline;fill:#36559e;fill-opacity:1;stroke:#000000;stroke-width:0;stroke-dasharray:none"
           x="98.303093"
           y="-138.44849"
           id="text9-0"
           transform="rotate(100.30059)"><tspan
             sodipodi:role="line"
             id="tspan9-7"
             style="font-style:normal;font-variant:normal;font-weight:bold;font-stretch:normal;font-family:Calibri;-inkscape-font-specification:'Calibri Bold';fill:#36559e;fill-opacity:1;stroke-width:0"
             x="98.303093"
             y="-138.44849">E</tspan></text><text
           xml:space="preserve"
           style="font-style:normal;font-variant:normal;font-weight:normal;font-stretch:normal;font-size:3.175px;font-family:Calibri;-inkscape-font-specification:Calibri;display:inline;fill:#36559e;fill-opacity:1;stroke:#000000;stroke-width:0;stroke-dasharray:none"
           x="87.577576"
           y="-153.08444"
           id="text9-0-1"
           transform="rotate(109.07837)"><tspan
             sodipodi:role="line"
             id="tspan9-7-4"
             style="font-style:normal;font-variant:normal;font-weight:bold;font-stretch:normal;font-family:Calibri;-inkscape-font-specification:'Calibri Bold';fill:#36559e;fill-opacity:1;stroke-width:0"
             x="87.577576"
             y="-153.08444">E</tspan></text><text
           xml:space="preserve"
           style="font-style:normal;font-variant:normal;font-weight:normal;font-stretch:normal;font-size:3.175px;font-family:Calibri;-inkscape-font-specification:Calibri;display:inline;fill:#36559e;fill-opacity:1;stroke:#000000;stroke-width:0;stroke-dasharray:none"
           x="103.29532"
           y="-137.00484"
           id="text4-0"
           transform="rotate(99.504054)"><tspan
             sodipodi:role="line"
             id="tspan4-9"
             style="font-style:normal;font-variant:normal;font-weight:bold;font-stretch:normal;font-family:Calibri;-inkscape-font-specification:'Calibri Bold';fill:#36559e;fill-opacity:1;stroke-width:0"
             x="103.29532"
             y="-137.00484">S</tspan></text><text
           xml:space="preserve"
           style="font-style:normal;font-variant:normal;font-weight:normal;font-stretch:normal;font-size:3.175px;font-family:Calibri;-inkscape-font-specification:Calibri;display:inline;fill:#36559e;fill-opacity:1;stroke:#000000;stroke-width:0;stroke-dasharray:none"
           x="95.505035"
           y="-144.32359"
           id="text11"
           transform="rotate(103.71997)"><tspan
             sodipodi:role="line"
             id="tspan10"
             style="font-style:normal;font-variant:normal;font-weight:bold;font-stretch:normal;font-family:Calibri;-inkscape-font-specification:'Calibri Bold';fill:#36559e;fill-opacity:1;stroke-width:0"
             x="95.505035"
             y="-144.32359">Ü</tspan></text><text
           xml:space="preserve"
           style="font-style:normal;font-variant:normal;font-weight:normal;font-stretch:normal;font-size:3.175px;font-family:Calibri;-inkscape-font-specification:Calibri;display:inline;fill:#36559e;fill-opacity:1;stroke:#000000;stroke-width:0;stroke-dasharray:none"
           x="93.388977"
           y="-147.8578"
           id="text12"
           transform="rotate(105.81998)"><tspan
             sodipodi:role="line"
             id="tspan11"
             style="font-style:normal;font-variant:normal;font-weight:bold;font-stretch:normal;font-family:Calibri;-inkscape-font-specification:'Calibri Bold';fill:#36559e;fill-opacity:1;stroke-width:0"
             x="93.388977"
             y="-147.8578">L</tspan></text><text
           xml:space="preserve"
           style="font-style:normal;font-variant:normal;font-weight:normal;font-stretch:normal;font-size:3.175px;font-family:Calibri;-inkscape-font-specification:Calibri;display:inline;fill:#36559e;fill-opacity:1;stroke:#000000;stroke-width:0;stroke-dasharray:none"
           x="97.554428"
           y="-136.88077"
           id="text13"
           transform="rotate(99.396703)"
           inkscape:label="text13"><tspan
             sodipodi:role="line"
             id="tspan12"
             style="font-style:normal;font-variant:normal;font-weight:bold;font-stretch:normal;font-family:Calibri;-inkscape-font-specification:'Calibri Bold';fill:#36559e;fill-opacity:1;stroke-width:0"
             x="97.554428"
             y="-136.88077">Y</tspan></text><path
           id="text15"
           style="font-style:normal;font-variant:normal;font-weight:bold;font-stretch:normal;font-size:3.175px;font-family:Calibri;-inkscape-font-specification:'Calibri Bold';display:inline;fill:#36559e;fill-opacity:1;fill-rule:evenodd;stroke-width:0.00999998"
           d="m 98.814456,-134.5085 c 0.0109,0.0917 0.03057,0.17657 0.05964,0.25537 0.04651,0.12506 0.113666,0.23174 0.201515,0.31959 0.08785,0.0868 0.19523,0.1536 0.321321,0.20011 0.127124,0.0455 0.270399,0.0679 0.430596,0.0679 0.05478,0 0.109399,-0.003 0.163143,-0.008 0.05478,-0.005 0.108479,-0.0124 0.161189,-0.0228 0.0537,-0.0103 0.10546,-0.0231 0.15507,-0.0376 0.0496,-0.0145 0.0907,-0.0284 0.12376,-0.0418 0.0341,-0.0134 0.0566,-0.0314 0.0669,-0.0541 0.0114,-0.0238 0.0169,-0.051 0.0169,-0.082 l 4.5e-4,-0.64271 0.0601,0.001 -0.007,-0.28257 -0.1443,-0.003 c -0.006,-8.7e-4 -0.0112,-0.001 -0.0174,-0.001 l -0.0558,4e-5 -0.003,-1.1e-4 -0.618674,5e-5 c -0.0093,0 -0.01713,0.003 -0.02436,0.009 -0.0072,0.005 -0.01376,0.0141 -0.01893,0.0265 -0.0052,0.0114 -0.009,0.0268 -0.01214,0.0464 -0.0021,0.0196 -0.0034,0.044 -0.0034,0.0729 0,0.0558 0.0054,0.0956 0.0157,0.11938 0.01034,0.0227 0.02501,0.0344 0.04361,0.0344 l 0.379394,-3.8e-4 2.2e-4,0.46542 c -0.0382,0.0207 -0.0797,0.0362 -0.124183,0.0466 -0.04444,0.0103 -0.0891,0.0151 -0.134573,0.0151 -0.09302,0 -0.178521,-0.0145 -0.256036,-0.0445 -0.07648,-0.03 -0.142088,-0.0747 -0.196865,-0.1336 -0.05478,-0.0589 -0.09782,-0.13183 -0.128825,-0.21865 -0.02997,-0.0879 -0.04463,-0.18901 -0.04463,-0.30373 0,-0.10439 0.01487,-0.19949 0.04484,-0.28527 0.02997,-0.0868 0.07295,-0.16079 0.128766,-0.22177 0.05581,-0.062 0.122641,-0.10961 0.201189,-0.14268 0.07855,-0.0341 0.166672,-0.0508 0.263823,-0.0508 0.09095,0 0.170474,0.009 0.238684,0.0275 0.0692,0.0186 0.12878,0.0387 0.17839,0.0605 0.0496,0.0217 0.0896,0.0423 0.11955,0.0609 0.03,0.0186 0.0512,0.0275 0.0646,0.0275 0.009,0 0.0173,-0.003 0.0235,-0.008 0.007,-0.005 0.0127,-0.0138 0.0169,-0.0262 0.005,-0.0134 0.009,-0.0309 0.0113,-0.0526 0.003,-0.0217 0.004,-0.0477 0.004,-0.0777 0,-0.0517 -0.003,-0.0902 -0.009,-0.11609 -0.006,-0.0269 -0.0166,-0.0476 -0.0311,-0.0621 -0.0134,-0.0145 -0.0377,-0.0312 -0.0729,-0.0509 -0.0351,-0.0196 -0.0795,-0.0379 -0.13329,-0.0544 -0.0527,-0.0176 -0.11472,-0.0319 -0.18603,-0.0433 -0.0713,-0.0124 -0.150727,-0.0188 -0.237543,-0.0188 -0.15813,0 -0.301659,0.0242 -0.43085,0.0728 -0.128158,0.0486 -0.237806,0.11908 -0.328756,0.21107 -0.09095,0.0909 -0.16094,0.20185 -0.210549,0.33311 -0.04961,0.13023 -0.0748,0.27759 -0.0748,0.44192 0,0.0597 0.0036,0.1172 0.01014,0.17223 z"
           inkscape:label="text15"
           transform="rotate(97.491138)" /></g><g
         id="g10"
         style="display:inline"
         inkscape:label="g10"><text
           xml:space="preserve"
           style="font-size:3.52778px;font-family:Calibri;-inkscape-font-specification:Calibri;display:inline;fill:#ffffff;stroke:#000000;stroke-width:0"
           x="-158.43741"
           y="63.827709"
           id="text1"
           transform="rotate(-106.13558)"><tspan
             sodipodi:role="line"
             id="tspan1"
             style="font-style:normal;font-variant:normal;font-weight:bold;font-stretch:normal;font-size:3.52778px;font-family:Calibri;-inkscape-font-specification:'Calibri Bold';fill:#ffffff;stroke-width:0"
             x="-158.43741"
             y="63.827709">K</tspan></text><text
           xml:space="preserve"
           style="font-style:normal;font-variant:normal;font-weight:bold;font-stretch:normal;font-size:3.52778px;font-family:Calibri;-inkscape-font-specification:'Calibri Bold';display:inline;fill:#ffffff;stroke:#000000;stroke-width:0"
           x="-148.78833"
           y="72.419601"
           id="text2"
           transform="rotate(-102.88193)"><tspan
             sodipodi:role="line"
             id="tspan2"
             style="font-style:normal;font-variant:normal;font-weight:bold;font-stretch:normal;font-size:3.52778px;font-family:Calibri;-inkscape-font-specification:'Calibri Bold';fill:#ffffff;stroke-width:0"
             x="-148.78833"
             y="72.419601">A</tspan></text><text
           xml:space="preserve"
           style="font-style:italic;font-variant:normal;font-weight:bold;font-stretch:normal;font-size:3.175px;font-family:Calibri;-inkscape-font-specification:'Calibri Bold Italic';display:inline;fill:#ffffff;stroke:#000000;stroke-width:0"
           x="-139.75519"
           y="78.117661"
           id="text3"
           transform="rotate(-100.61797)"><tspan
             sodipodi:role="line"
             id="tspan3"
             style="font-style:normal;font-variant:normal;font-weight:bold;font-stretch:normal;font-family:Calibri;-inkscape-font-specification:'Calibri Bold';fill:#ffffff;stroke-width:0"
             x="-139.75519"
             y="78.117661">R</tspan></text><text
           xml:space="preserve"
           style="font-style:normal;font-variant:normal;font-weight:bold;font-stretch:normal;font-size:3.52778px;font-family:Calibri;-inkscape-font-specification:'Calibri Bold';display:inline;fill:#ffffff;stroke:#000000;stroke-width:0"
           x="-132.94008"
           y="79.91861"
           id="text14"
           transform="rotate(-99.913713)"><tspan
             sodipodi:role="line"
             id="tspan13"
             style="font-style:normal;font-variant:normal;font-weight:bold;font-stretch:normal;font-size:3.52778px;font-family:Calibri;-inkscape-font-specification:'Calibri Bold';fill:#ffffff;stroke-width:0"
             x="-132.94008"
             y="79.91861">C</tspan></text><text
           xml:space="preserve"
           style="font-style:normal;font-variant:normal;font-weight:900;font-stretch:normal;font-size:3.52778px;font-family:Arial;-inkscape-font-specification:'Arial Heavy';display:inline;fill:#ffffff;stroke:#000000;stroke-width:0"
           x="-123.25514"
           y="84.88121"
           id="text16"
           transform="rotate(-97.696468)"><tspan
             sodipodi:role="line"
             id="tspan15"
             style="font-style:normal;font-variant:normal;font-weight:bold;font-stretch:normal;font-size:3.52778px;font-family:Calibri;-inkscape-font-specification:'Calibri Bold';fill:#ffffff;stroke-width:0"
             x="-123.25514"
             y="84.88121">A</tspan></text><text
           xml:space="preserve"
           style="font-style:normal;font-variant:normal;font-weight:900;font-stretch:normal;font-size:3.52778px;font-family:Arial;-inkscape-font-specification:'Arial Heavy';display:inline;fill:#ffffff;stroke:#000000;stroke-width:0"
           x="-105.79807"
           y="91.142769"
           id="text17"
           transform="rotate(-94.470783)"><tspan
             sodipodi:role="line"
             id="tspan16"
             style="font-style:normal;font-variant:normal;font-weight:bold;font-stretch:normal;font-size:3.52778px;font-family:Calibri;-inkscape-font-specification:'Calibri Bold';fill:#ffffff;stroke-width:0"
             x="-105.79807"
             y="91.142769">I</tspan></text><text
           xml:space="preserve"
           style="font-style:normal;font-variant:normal;font-weight:bold;font-stretch:normal;font-size:3.52777px;font-family:Calibri;-inkscape-font-specification:'Calibri Bold';display:inline;fill:#ffffff;stroke:#000000;stroke-width:0"
           x="-119.46387"
           y="81.332504"
           id="text18"
           transform="rotate(-99.45313)"><tspan
             sodipodi:role="line"
             id="tspan17"
             style="fill:#ffffff;stroke-width:0"
             x="-119.46387"
             y="81.332504">G</tspan></text></g><g
         id="g9"
         style="display:inline"
         transform="translate(-0.19987967)"><text
           xml:space="preserve"
           style="font-style:normal;font-variant:normal;font-weight:bold;font-stretch:normal;font-size:3.32994px;font-family:Calibri;-inkscape-font-specification:'Calibri Bold';display:inline;fill:#ffffff;stroke:#000000;stroke-width:0"
           x="102.67511"
           y="144.38376"
           id="text19"
           transform="scale(1.0594082,0.94392323)"><tspan
             sodipodi:role="line"
             id="tspan18"
             style="font-style:normal;font-variant:normal;font-weight:bold;font-stretch:normal;font-family:Arial;-inkscape-font-specification:'Arial Bold';fill:#ffffff;stroke-width:0"
             x="102.67511"
             y="144.38376">9</tspan></text><text
           xml:space="preserve"
           style="font-style:normal;font-variant:normal;font-weight:bold;font-stretch:normal;font-size:3.35431px;font-family:Arial;-inkscape-font-specification:'Arial Bold';display:inline;fill:#36559e;fill-opacity:1;stroke:#000000;stroke-width:0"
           x="105.06574"
           y="143.34476"
           id="text20"
           transform="scale(1.0517164,0.95082666)"><tspan
             sodipodi:role="line"
             id="tspan20"
             style="font-size:3.35431px;fill:#36559e;fill-opacity:1;stroke-width:0"
             x="105.06574"
             y="143.34476">4</tspan><tspan
             sodipodi:role="line"
             style="font-size:3.35431px;fill:#36559e;fill-opacity:1;stroke-width:0"
             x="105.06574"
             y="147.53764"
             id="tspan21" /></text><text
           xml:space="preserve"
           style="font-style:normal;font-variant:normal;font-weight:bold;font-stretch:normal;font-size:3.5224px;font-family:Arial;-inkscape-font-specification:'Arial Bold';display:inline;fill:#ffffff;stroke:#000000;stroke-width:0"
           x="96.822838"
           y="150.0955"
           id="text22"
           transform="scale(1.1016808,0.90770394)"><tspan
             sodipodi:role="line"
             id="tspan22"
             style="font-size:3.5224px;fill:#ffffff;stroke-width:0"
             x="96.822838"
             y="150.0955">1</tspan></text><text
           xml:space="preserve"
           style="font-style:normal;font-variant:normal;font-weight:bold;font-stretch:normal;font-size:3.34294px;font-family:Arial;-inkscape-font-specification:'Arial Bold';fill:#36559e;fill-opacity:1;stroke:#000000;stroke-width:0"
           x="106.67034"
           y="143.84824"
           id="text23"
           transform="scale(1.0552893,0.94760745)"><tspan
             sodipodi:role="line"
             id="tspan23"
             style="fill:#36559e;fill-opacity:1;stroke-width:0"
             x="106.67034"
             y="143.84824">5</tspan></text></g><g
         id="g8"
         style="display:inline"><g
           id="g13"
           style="display:inline"><path
             id="text25-0"
             style="font-weight:bold;font-size:3.82332px;font-family:Arial;-inkscape-font-specification:'Arial Bold';display:inline;fill:#ffffff;fill-opacity:1;stroke:#000000;stroke-width:0"
             d="m 110.34503,92.715959 c -0.19407,0 -0.36036,0.03404 -0.49816,0.102836 -0.13666,0.06879 -0.24173,0.169604 -0.31522,0.301791 -0.0724,0.13084 -0.10852,0.271646 -0.10852,0.422713 0,0.2347 0.0775,0.433656 0.23254,0.596863 0.11023,0.116 0.30236,0.213942 0.57568,0.293522 0.0551,0.0161 0.0905,0.02727 0.13539,0.04082 v -0.619083 c -0.19719,-0.05965 -0.324,-0.117082 -0.38034,-0.1726 -0.0505,-0.0499 -0.0755,-0.109687 -0.0755,-0.179834 0,-0.07687 0.0267,-0.138618 0.0806,-0.184485 0.0838,-0.07149 0.20015,-0.10697 0.3483,-0.10697 0.009,0 0.0179,7.54e-4 0.0269,10e-4 v -0.496611 c -0.007,-8.8e-5 -0.0143,0 -0.0217,0 z m -0.51676,1.994711 -0.49609,0.05684 c 0.0333,0.331813 0.13533,0.58461 0.30644,0.75861 0.16979,0.171328 0.41246,0.257584 0.72812,0.258899 V 95.27859 c -0.14906,-0.0025 -0.26826,-0.04775 -0.3576,-0.136943 -0.0907,-0.09172 -0.151,-0.235402 -0.18087,-0.430981 z" /><rect
             style="display:inline;opacity:1;fill:#36559e;fill-opacity:1;fill-rule:evenodd;stroke:none;stroke-width:113.973;stroke-dasharray:none"
             id="rect1"
             width="1.5272192"
             x="110.36531"
             y="-95.792908"
             height="3.3807075"
             transform="scale(1,-1)"
             clip-path="url(#clipPath13)" /></g><text
           xml:space="preserve"
           style="font-style:normal;font-variant:normal;font-weight:bold;font-stretch:normal;font-size:3.90025px;font-family:Arial;-inkscape-font-specification:'Arial Bold';fill:#36559e;fill-opacity:1;stroke:#000000;stroke-width:0"
           x="124.3876"
           y="86.719498"
           id="text26"
           transform="scale(0.90449875,1.1055847)"
           inkscape:label="text26"><tspan
             sodipodi:role="line"
             id="tspan26"
             style="fill:#36559e;fill-opacity:1;stroke-width:0"
             x="124.3876"
             y="86.719498">E</tspan></text><text
           xml:space="preserve"
           style="font-style:normal;font-variant:normal;font-weight:bold;font-stretch:normal;font-size:3.95589px;font-family:Arial;-inkscape-font-specification:'Arial Bold';display:inline;fill:#ffffff;stroke:#000000;stroke-width:0"
           x="112.43674"
           y="89.841843"
           id="text24"
           transform="scale(0.93758787,1.0665667)"><tspan
             sodipodi:role="line"
             id="tspan24"
             style="font-size:3.95589px;fill:#ffffff;stroke-width:0"
             x="112.43674"
             y="89.841843">K</tspan></text><ellipse
           style="fill:#36559e;fill-opacity:1;stroke:#000000;stroke-width:0"
           id="path26"
           cx="115.68297"
           cy="95.594437"
           rx="0.2730386"
           ry="0.28222495" /><ellipse
           style="fill:#36559e;fill-opacity:1;stroke:#000000;stroke-width:0"
           id="path26-7"
           cx="112.01791"
           cy="95.596596"
           rx="0.2730386"
           ry="0.28222495" /><ellipse
           style="fill:#ffffff;stroke:#000000;stroke-width:0"
           id="path26-71"
           cx="108.65157"
           cy="95.572464"
           rx="0.2730386"
           ry="0.28222495" /></g></g><g
       id="g1"
       style="display:inline"><path
         style="display:inline;fill:#ffffff;fill-rule:evenodd;stroke:#ffffff;stroke-width:0.05;stroke-dasharray:none;stroke-opacity:1"
         d="m 104.52091,124.12088 -0.0862,0.32372 c 0,0 -0.14821,0.56546 0.0883,0.4181 0.23657,-0.14736 0.21872,0.0634 0.20904,0.29069 -0.01,0.22732 -0.0993,0.68153 0.15245,0.74924 0.25177,0.0677 0.6349,-0.6349 0.6349,-0.6349 0,0 -0.0453,0.695 0.24597,0.86344 0.29129,0.16843 0.32063,0.15108 0.58982,0.11182 0.26919,-0.0393 0.77101,0.004 0.77101,0.004 l 0.0597,-0.005 0.0456,-0.0172 0.0292,-0.0173 2.85336,-2.93496 c 0,0 -0.006,-0.35558 -0.22011,-0.50574 -0.21404,-0.15016 -0.60362,-1.32669 -0.60362,-1.32669 0,0 -0.15494,-2.27781 0.26259,-2.66694 0.41753,-0.38913 0.70661,-0.8083 0.70661,-0.8083 0,0 0.0866,-1.70667 -1.50387,-0.73432 -1.59047,0.97236 -1.61408,1.0073 -1.61408,1.0073 0,0 -0.47624,0.42969 -0.51332,0.75102 -0.0371,0.32134 -0.41807,1.41814 -0.41807,1.41814 0,0 -0.0814,0.83018 -0.0843,1.16887 -0.001,0.17494 0.44089,0.0553 0.74235,-0.21696 0.88163,-0.79628 0.54927,-0.0748 0.4784,0.0693 -0.007,0.0149 -0.0108,0.0307 -0.0108,0.0307 0,0 -0.003,0.0121 0.002,0.0245 0.0326,0.0903 0.17233,0.46377 0.2577,0.52413 l 0.13616,0.10729 0.89179,0.90855 c 0,0 0.23729,0.40249 -0.22876,0.22182 -0.46604,-0.18066 -0.4445,-0.32109 -0.94271,0.019 -0.49822,0.34004 -1.57761,0.42645 -1.57761,0.42645 0,0 -0.25905,0.29072 -0.59317,0.42897 -0.33412,0.13824 -0.55741,-0.62321 -0.76007,0.001"
         id="path32"
         sodipodi:nodetypes="ccccsccccccccscccccccssscscccscccc" /><path
         style="fill:#ffffff;fill-rule:evenodd;stroke:#ffffff;stroke-width:0.0499999;stroke-opacity:1"
         d="m 110.17582,115.63777 v -5.43726 c 0,0 -0.0468,-0.73666 -0.31571,-0.37418 -0.26894,0.36249 -0.38587,0.90037 -0.52619,0.10524 -0.10783,-0.61105 -0.21562,-1.07274 -0.28098,-1.25041 -0.006,-0.0164 -0.0122,-0.0287 -0.0174,-0.043 -0.008,-0.0213 -0.028,-0.0371 -0.028,-0.0371 0,0 -0.01,-0.008 -0.026,-0.0186 -0.12548,-0.0845 -0.69455,-0.42114 -1.01574,0.17981 -0.36249,0.67819 -1.8592,3.43775 -1.8592,3.43775 0,0 -0.47941,0.68989 -1.05237,1.33301 -0.57296,0.64311 -0.21048,0.5028 -0.8419,0.67819 -0.63142,0.1754 -1.06407,0.72497 -1.06407,0.72497 0,0 -0.17539,0.47942 0,0.49111 0.1754,0.0117 0.56127,0.19878 0.25725,0.53788 -0.30402,0.3391 -0.1637,1.3447 0.0702,1.19269 0.23386,-0.15201 0.46772,-0.68989 0.37417,-0.8419 -0.0935,-0.15201 0.24556,-0.26894 0.14032,0.5028 -0.10524,0.77174 0.0702,1.54348 0.46772,1.09915 0.39757,-0.44434 0.40926,-0.86529 0.40926,-0.86529 0,0 0.37418,0.0936 0.59634,-0.37417 0.22217,-0.46773 0.71328,-1.8592 1.16931,-2.58417 0.45603,-0.72497 1.92935,-3.39098 1.92935,-3.39098 0,0 0.10524,-0.23386 0.24555,-0.10524 0.14032,0.12863 0.15201,0.31572 -0.0234,0.53788 -0.1754,0.22217 -1.80073,2.6894 1.39147,4.50182 z"
         id="path2"
         sodipodi:nodetypes="ccccsscsccccccsccscccscsccc" /><path
         id="path3"
         style="display:inline;fill:#ffffff;fill-rule:evenodd;stroke:#ffffff;stroke-width:0.0499999;stroke-opacity:1"
         d="m 102.38273,107.13833 c -0.0695,0.002 -0.13901,0.0107 -0.20205,0.0279 l 0.009,-0.003 -0.0284,0.008 c -0.0475,0.0148 -0.0899,0.0357 -0.12557,0.0636 l -0.86971,0.43925 c 0,0 -0.26864,0.16386 0.1757,0.0879 0.30407,-0.052 0.4433,-0.13712 0.50126,-0.18552 -0.0455,0.12095 -0.0732,0.19219 -0.0765,0.21342 l -0.0858,0.25838 0.009,-0.0227 c -0.0169,0.0427 -0.0218,0.0652 -0.0465,0.12609 -0.10749,0.26458 -0.62839,1.75286 0.13229,1.00045 0.76068,-0.75241 0.339,0.22324 0.339,0.22324 0,0 -0.21498,1.07074 0.40514,0.8599 0.62012,-0.21084 0.51676,-0.27285 0.72347,-0.27285 0.2067,0 0.5581,0.0703 0.67799,0.12816 0.0995,0.0481 0.31434,-0.10516 0.38689,-0.15894 0.0148,-0.011 0.0317,-0.0147 0.0317,-0.0147 0,0 0.0159,-0.005 0.0326,-0.008 0.0123,-0.003 0.0251,-0.005 0.032,-0.005 0.007,2.1e-4 0.0198,3.9e-4 0.0288,6.7e-4 0.2583,0.008 1.43137,0.0592 1.56176,0.17902 0.12772,0.1175 0.79161,0.0678 0.95136,0.0507 0.0231,-0.002 0.0207,-0.0155 0.0207,-0.0155 h -0.007 l 5.2e-4,-0.002 0.002,-0.0124 0.001,-0.004 -0.001,-0.0103 -0.0372,-0.26924 c 0,0 -1e-5,-0.2513 0.18707,-0.24546 0.18709,0.006 0.15813,-0.55552 0.15813,-0.55552 0,0 0.0465,-0.52017 -0.3452,-0.49093 -0.39172,0.0292 -4.10414,-1.34462 -4.10414,-1.34462 0,0 -0.21809,-0.0522 -0.43822,-0.0455 z"
         sodipodi:nodetypes="ccccccccccccscsscscsssccccccccccccccc" /><path
         style="display:inline;opacity:1;fill:#ffffff;fill-rule:evenodd;stroke:#ffffff;stroke-width:0.0499999;stroke-opacity:1"
         d="m 105.2239,103.70392 c 0,0 -0.85843,-0.96179 -0.75921,-1.42481 0.004,-0.0186 0.0122,-0.039 0.0153,-0.0583 0.0649,-0.40622 -0.0732,-0.93876 -0.10617,-1.05644 -0.004,-0.0153 -0.008,-0.0237 -0.008,-0.0237 0,0 -0.0793,-0.15043 -0.13846,-0.21983 -0.0251,-0.0294 -0.0212,-0.023 -0.0505,-0.0248 -0.0264,-0.002 -0.03,0.001 -0.0574,0.0219 -0.10412,0.0792 -0.2315,0.33338 -0.26839,0.70224 -0.16637,0.82682 0.12203,1.90169 0.59532,2.03398 0.44848,0.12535 0.78727,0.0605 0.78134,0.0558 z"
         id="path4"
         sodipodi:nodetypes="ccsscssscscc" /><path
         style="display:inline;opacity:1;fill:#ffffff;fill-rule:evenodd;stroke:#ffffff;stroke-width:0.0499999;stroke-opacity:1"
         d="m 107.5215,104.29552 v -1.05237 c 0,0 -0.0468,-0.0702 -0.1754,-0.0702 h -1.1693 c -0.002,0.001 -0.0117,0.002 -0.008,0.002 0.0704,-0.005 -0.0244,7e-5 -0.0369,0.002 -0.0366,0.006 -0.0795,0.0256 -0.0835,0.12484 -5.8e-4,0.0144 -0.003,0.026 -0.002,0.0373 6.9e-4,0.0147 -0.002,0.0277 -4.6e-4,0.0389 0.0108,0.0924 -0.0146,0.0939 0.30722,0.28624 0.40461,0.2418 1.1693,0.63142 1.1693,0.63142 z"
         id="path5"
         sodipodi:nodetypes="ccscsssssscc" /><path
         style="display:inline;opacity:1;fill:#ffffff;fill-rule:evenodd;stroke:#ffffff;stroke-width:0.0499999;stroke-opacity:1"
         d="m 107.82529,101.12526 c 0,0 -0.0107,0.001 -0.0298,0.004 -0.14362,0.0166 -0.75787,0.0801 -0.86003,-0.0294 -0.11575,-0.12403 -1.13274,-0.0165 -1.0666,0.42994 0.0662,0.44649 -0.0496,0.95085 -0.0496,0.95085 0,0 -0.0413,0.71934 0.99219,0.30593 1.03353,-0.41342 1.09141,0.59531 1.09141,0.59531 0,0 0.0744,1.71979 -0.58705,1.67018 -0.58868,-0.0441 -1.18082,-0.1424 -1.309,-0.15735 -0.0158,-0.002 -0.0408,0.0271 -0.0408,0.0271 0,0 -0.43615,1.13068 0.29973,1.31258 0.73587,0.1819 0.43821,-1.00873 1.0666,-0.0579 0.62838,0.95085 0.58704,-0.40514 0.58704,-0.40514 0,0 0.21498,-0.39688 0.50436,0.34726 0.28939,0.74414 0.51481,-0.75383 0.51481,-0.75383 0,0 0.12745,-1.11904 0.46486,-1.39732 0.36553,-0.30148 0.0952,-1.05692 0.0952,-1.05692 0,0 -0.21497,-0.5457 0.50437,-0.73587 0.71933,-0.19017 -0.28112,-0.79375 -0.28112,-0.79375 0,0 -0.20671,-0.57051 0.33073,-0.94258 0.53743,-0.37207 0.0827,-0.735874 -0.1323,-0.595314 -0.21497,0.14056 -0.37207,0.380334 -0.37207,0.380334 0,0 -0.33073,0.10749 -0.57877,-0.0248 -0.24805,-0.13229 -0.82683,0.26458 -0.82683,0.26458 l 0.42168,0.0248 c 0,0 0.14056,-0.0413 0.1571,0.25631 0.0165,0.29766 0.21497,1.2237 -0.14056,1.2237 -0.34775,0 -0.61769,-0.23493 -0.6862,-0.8172 -0.002,-0.013 -0.0328,-0.0277 -0.0662,-0.0257 z"
         id="path6"
         sodipodi:nodetypes="csccccccscsccccscsccccscccsscc" /><ellipse
         style="display:inline;opacity:1;fill:#ffffff;fill-rule:evenodd;stroke:#ffffff;stroke-width:0.0499999;stroke-opacity:1"
         id="path7"
         cx="110.01505"
         cy="103.80441"
         rx="0.11400715"
         ry="0.66065687" /><path
         style="display:inline;opacity:1;fill:#ffffff;fill-rule:evenodd;stroke:#ffffff;stroke-width:0.0499999;stroke-opacity:1"
         id="path15"
         sodipodi:type="arc"
         sodipodi:cx="106.55508"
         sodipodi:cy="104.41084"
         sodipodi:rx="0.33486328"
         sodipodi:ry="0.2604492"
         sodipodi:start="0"
         sodipodi:end="4.1504674"
         sodipodi:arc-type="slice"
         d="m 106.88994,104.41084 a 0.33486328,0.2604492 0 0 1 -0.27251,0.2559 0.33486328,0.2604492 0 0 1 -0.37399,-0.1606 0.33486328,0.2604492 0 0 1 0.13322,-0.3157 l 0.17842,0.2204 z" /><path
         style="opacity:1;fill:#ffffff;fill-rule:evenodd;stroke:#ffffff;stroke-width:0.0499999;stroke-opacity:1"
         d="m 107.75502,108.47572 c 0,0 9.7e-4,-0.0116 -0.004,-0.0296 -0.0437,-0.15504 -0.079,-0.92387 0.20174,-1.14549 0.31419,-0.24805 0.27285,-0.71107 0.27285,-0.71107 0,0 -0.0579,-0.339 -0.1571,-0.0413 -0.0992,0.29766 -0.2067,0.57051 -0.3638,0.71107 -0.15551,0.13914 -0.43185,1.21795 0.02,1.23783 0.002,7e-5 0.0205,-0.009 0.009,-8.3e-4 -0.007,0.005 0.0191,-0.003 0.0167,-0.003 l 0.004,-0.0126 z"
         id="path16"
         sodipodi:nodetypes="cscccsssccc" /><path
         style="display:inline;opacity:1;fill:#ffffff;fill-rule:evenodd;stroke:#ffffff;stroke-width:0.0499999;stroke-opacity:1"
         d="m 110.12905,108.57518 v -3.08697 c 0,0 0.031,-0.59634 -0.16771,-0.44433 -0.19878,0.15201 0.0697,0.75247 -0.36249,1.44994 -0.10335,0.15093 -0.2219,0.26113 -0.30415,0.32422 -0.0554,0.0425 -0.0968,0.0629 -0.0968,0.0629 0.16263,-0.087 -0.2824,0.11318 -0.0453,0.22972 0.0114,0.006 0.086,-0.0655 0.0945,-0.071 0.13958,-0.0891 0.29489,-0.006 0.4397,-0.0152 0.0654,-0.004 -0.003,0.32228 -0.0402,0.41632 -0.0953,0.34602 -0.14059,0.45096 -0.19424,0.62994 -0.071,0.19756 -0.25888,0.9954 0.25564,0.94862 0.51449,-0.0468 0.42095,-0.44433 0.42095,-0.44433 z"
         id="path17"
         sodipodi:nodetypes="ccccsccssccccc" /><path
         style="display:inline;opacity:1;fill:#ffffff;fill-rule:evenodd;stroke:#ffffff;stroke-width:0.0499999;stroke-opacity:1"
         d="m 108.28155,108.04899 h 0.74835 c 0,0 -0.26309,-0.26894 -0.21047,-0.70158 0.0526,-0.43264 0.21047,-0.71328 0.21047,-0.71328 0,0 0.0789,-0.14031 0.003,-0.13154 -0.076,0.009 -0.52619,0.78635 -0.52619,0.78635 0,0 -0.17832,-0.006 -0.26017,0.2134 -0.0819,0.21925 0.0721,0.4201 0.0721,0.4201 0,0 0.003,0.004 2e-4,0.0109 -0.0113,0.0344 -0.0435,0.11694 -0.0373,0.11565 z"
         id="path18"
         sodipodi:nodetypes="ccccccccscc" /><path
         id="path10"
         style="display:inline;fill:#36559e;fill-opacity:1;fill-rule:evenodd;stroke:none;stroke-width:0.00999998;stroke-dasharray:none;stroke-opacity:1"
         d="m 110.61583,99.553268 -0.26952,10e-4 v 18.609722 l 0.23681,-0.0434 0.0156,-0.005 c 0.038,-0.0226 0.44171,-0.26881 0.39416,-0.52916 -0.0498,-0.27286 0.44867,-0.9839 0.46529,-0.32247 0.0166,0.66146 0.19941,3.04271 0.58993,3.63803 0.39051,0.59531 0.81187,1.31333 1.02926,1.45365 0.21739,0.14031 0.52864,-0.41496 0.52864,-0.41496 0,0 0.17075,-0.27498 0.30588,-0.21652 0.13513,0.0585 0.45023,0.2589 0.45023,0.2589 0,0 0.0502,0.0322 0.0893,0.0863 0.0318,0.044 0.0618,0.0919 0.007,0.23357 -0.10259,0.26251 -0.0915,0.78001 -0.093,0.94413 -3.1e-4,0.0333 -0.0244,0.0439 -0.0244,0.0439 0,0 -0.20001,0.0644 -0.23525,0.16381 -0.0353,0.0994 0.1414,0.34503 0.006,0.44442 -0.13513,0.0994 -0.86723,0.40929 -1.04173,0.88057 -0.17448,0.47127 0.16619,1.21542 0.16619,1.21542 0,0 0.14125,0.41342 0.108,0.678 -0.0333,0.26458 0.20773,0.15712 0.49023,0.0992 0.1979,-0.0406 0.50885,0.0934 0.68288,0.17001 0.0744,0.0327 0.13139,0.045 0.13139,0.045 0,0 0.4364,-0.0174 0.48866,-0.13281 0.005,-0.011 0.007,-0.0219 0.0101,-0.0326 0.0333,-0.13229 0.71456,-0.10745 0.83088,-0.0331 0.11633,0.0744 0.4653,-0.65319 0.4653,-0.65319 0,0 -0.0333,-0.0992 0.19941,-0.24804 0.23265,-0.14883 0.34898,-1.01699 0.15787,-1.52136 -0.1911,-0.50436 -0.1158,-5.08031 -0.1158,-5.08031 0,0 -0.0118,-0.31563 -0.28198,-0.15192 -0.27027,0.16368 -1.02229,0.25708 -1.29255,-0.88884 -0.27026,-1.14592 -0.5407,-1.64847 -0.012,-1.83555 0.52877,-0.18709 1.66849,-1.20446 1.35123,-2.23345 -0.31725,-1.02898 -2.00866,-4.64313 -2.00866,-4.64313 0,0 -0.58994,-2.3151 0.88073,-0.96738 1.47067,1.34772 1.86833,2.11439 2.5851,1.09709 0.71677,-1.01729 1.29255,-1.95275 1.79782,-2.29185 0.50527,-0.33909 -0.0706,-0.47956 -0.0706,-0.47956 0,0 -0.45822,-0.0352 -0.46997,-0.35088 -0.0118,-0.31571 -0.23463,-0.37402 -0.4814,-0.21032 -0.24675,0.16371 -1.01103,0.24548 -1.57504,0.8418 -0.56401,0.59635 -0.39922,0.88893 -1.02199,0.54984 -0.62278,-0.3391 -1.46903,-0.58505 -1.71578,-0.52658 -0.0287,0.007 -0.0596,0.009 -0.0764,-0.003 -0.12745,-0.0999 0.0649,-0.70952 0.0649,-0.70952 l 0.093,-0.34571 c 0,0 0.21246,-0.68303 0.75298,-0.0749 0.54052,0.60804 1.05773,0.77153 1.49248,0.17519 0.43476,-0.59635 1.03445,-2.28461 0.88489,-2.81378 -0.14956,-0.52917 -0.0166,-1.10794 -0.29912,-0.79375 -0.28248,0.31419 -0.91396,0.5953 -1.04691,0.94257 -0.13294,0.34726 -0.58162,0.21498 -0.73118,-0.26458 -0.14957,-0.47955 -0.63147,-0.33073 -1.14662,0.42995 -0.51515,0.76068 -0.71456,1.55443 -0.81427,1.9513 -0.0997,0.39688 -3e-5,1.7942 -0.19942,2.22415 -0.0454,0.098 -0.25599,0.19597 -0.32975,0.35295 -0.12436,0.26467 -0.16074,0.58235 -0.28042,0.58395 -0.1074,0.002 -0.17437,-0.27802 -0.22281,-0.79999 -0.002,-0.0246 0.003,-0.0286 0.0444,-0.0656 0.0623,-0.04 0.0503,-0.0392 0.12754,-0.0945 0.024,-0.0112 0.0555,-0.0282 0.053,-0.0342 0.003,-0.008 0.005,-0.0157 0.004,-0.0229 -6.3e-4,-0.0433 -0.0523,-0.0744 -0.0699,-0.1103 -0.0403,-0.0586 -0.1017,-0.1211 -0.1667,-0.1788 -0.0155,-0.023 -0.0105,-0.0579 -0.0114,-0.0847 -0.0419,-0.71166 -0.0326,-0.94807 -0.0197,-1.048 0.0116,-0.0899 0.0218,-0.0775 0.0218,-0.0775 0,0 0.25238,-0.13127 0.20253,-0.56121 -0.0499,-0.42995 -1.21669,-4.35201 -1.59271,-4.84312 -0.32634,-0.42623 -0.26734,-0.947157 -0.21835,-1.069 0.008,-0.02058 0.007,-0.03016 0.007,-0.03016 0,0 -0.0546,-0.23431 -0.24512,-0.274919 z"
         sodipodi:nodetypes="cccccscsccccccscccscccccccccssccssscssccccccccccccscsssccscscccscccccccsccc" /><path
         style="opacity:1;fill:#ffffff;fill-opacity:1;fill-rule:evenodd;stroke:#ffffff;stroke-width:0.0499999;stroke-dasharray:none;stroke-opacity:1"
         d="m 112.06999,110.45906 -0.008,-0.68626 c 0,0 0.0248,-0.14056 0.1819,-0.1571 0.1571,-0.0165 0.43822,-0.13229 0.51263,0.17364 0.0744,0.30592 0.58704,1.90169 1.11621,2.06705 0.52917,0.16537 1.60404,1.01699 1.57923,1.78594 -0.0248,0.76895 0.13229,0.98392 -0.31419,1.05833 -0.44648,0.0744 -0.39688,-0.76894 -0.39688,-0.76894 0,0 -0.0661,-0.89297 -0.8847,-1.14102 -0.81855,-0.24804 -1.72806,-1.10794 -1.78593,-2.33164 z"
         id="path20" /><path
         style="opacity:1;fill:#36559e;fill-opacity:1;fill-rule:evenodd;stroke:#36559e;stroke-width:0.0499999;stroke-dasharray:none;stroke-opacity:1"
         d="m 106.3335,124.84028 c 0,0 0.11444,-0.13547 -0.067,-0.15291 -0.3303,-0.0318 -0.1998,-0.34021 -0.35573,-0.29443 -0.31863,0.0935 -0.18124,0.35664 -0.12862,0.42095 0.0526,0.0643 0.25725,0.2514 0.34202,0.23678 0.0848,-0.0146 0.20191,-0.20539 0.20932,-0.21039 z"
         id="path21"
         sodipodi:nodetypes="cscccc" /><ellipse
         style="display:inline;fill:#ffffff;fill-opacity:1;fill-rule:evenodd;stroke:#ffffff;stroke-width:0.050645;stroke-opacity:1"
         id="path8"
         cx="53.42173"
         cy="137.40439"
         rx="0.10391847"
         ry="0.21285969"
         transform="matrix(0.97103107,-0.23895326,0.44999248,0.89303234,0,0)" /></g><path
       style="opacity:1;fill:#36559e;fill-opacity:1;fill-rule:evenodd;stroke:none;stroke-width:3.74048;stroke-dasharray:none"
       d="m 110.16898,99.799238 0.18573,0.140434 0.0136,0.124578 -0.0272,0.17894 -0.11551,0.14723 -0.0793,0.13364 -0.19705,0.36694 -0.0408,0.31711 0.21292,0.28993 0.14949,0.14043 0.0642,0.22496 -0.0705,0.30751 -0.0833,0.20501 -0.0512,0.43565 0.0705,0.25626 0.0128,0.28189 0.0192,0.22423 0.0256,0.23704 -0.032,0.36518 -0.0705,0.22423 0.0192,1.00583 v 3.37169 l -0.25288,0.67499 0.0544,0.17214 0.0815,0.0453 0.0634,0.0589 0.068,0.20385 0.0362,0.0997 0.009,0.15855 v 5.53589 l -0.21346,0.2883 -0.0577,0.32673 0.032,0.27548 -0.0192,0.23705 0.0192,0.0769 0.0705,0.0961 0.0705,0.0833 0.0769,0.11532 0.032,0.16657 0.0577,0.0961 -0.01,0.26907 0.01,0.20501 -0.016,0.0961 0.016,0.0737 0.0136,0.0272 0.0144,0.002 0.032,-0.007 0.0296,-0.004 0.0408,-0.009 0.0465,-0.006 0.0352,-0.01 0.0496,-0.009 0.0312,-0.0104 0.0344,-0.0192 0.0392,-0.028 0.0352,-0.0248 0.21942,-0.28349 -0.0513,-0.18579 0.14094,-0.25626 0.0705,-0.22423 0.17297,-0.17938 0.21783,-0.12814 0.32673,-7.11129 0.25626,-4.56147 -0.205,-1.79383 -0.78075,-2.07602 -0.31711,-0.82449 0.009,-0.52549 0.0634,-0.117783 -0.0589,-0.09966 -0.14044,-0.07248 -0.15402,-0.01812 -0.11325,-0.01359 h -0.0951 l -0.10872,0.02718 -0.11325,0.04077 -0.005,0.06342 0.0317,0.03171 0.0544,0.04077 z"
       id="path29" /></g></svg>
