<?xml version="1.0" encoding="utf-8"?>
<!DOCTYPE svg PUBLIC "-//W3C//DTD SVG 1.1//EN" "http://www.w3.org/Graphics/SVG/1.1/DTD/svg11.dtd" [
<!ENTITY ns_svg "http://www.w3.org/2000/svg">
<!ENTITY ns_xlink "http://www.w3.org/1999/xlink">
]>
<svg  version="1.1" id="Layer_1" xmlns="&ns_svg;" xmlns:xlink="&ns_xlink;" width="176.071" height="176.07"
viewBox="0 0 176.071 176.07" overflow="visible" enable-background="new 0 0 176.071 176.07" xml:space="preserve">
<g>
<defs>
<path id="XMLID_7_" d="M17.129,95.849c-15.686,0-16.967-7.479-16.967-7.479v-0.024c0,0,1.282-7.479,16.967-7.479
c5.208,0,136.604,0,141.813,0c15.687,0,16.968,7.479,16.968,7.479v0.024c0,0-1.281,7.479-16.967,7.479
C153.733,95.849,22.096,95.849,17.129,95.849z"/>
</defs>
<clipPath id="XMLID_11_">
<use xlink:href="#XMLID_7_" />
</clipPath>
<path clip-path="url(#XMLID_11_)" fill="#CCCDD7" d="M0.162,80.867h175.748H0.162z"/>
<rect x="0.162" y="80.867" clip-path="url(#XMLID_11_)" fill="#CCCDD7" width="175.748" height="0.117"/>
<rect x="0.162" y="80.984" clip-path="url(#XMLID_11_)" fill="#CACBD5" width="175.748" height="0.117"/>
<rect x="0.162" y="81.102" clip-path="url(#XMLID_11_)" fill="#C9C9D4" width="175.748" height="0.117"/>
<rect x="0.162" y="81.219" clip-path="url(#XMLID_11_)" fill="#C7C8D2" width="175.748" height="0.116"/>
<rect x="0.162" y="81.335" clip-path="url(#XMLID_11_)" fill="#C5C6D0" width="175.748" height="0.117"/>
<rect x="0.162" y="81.452" clip-path="url(#XMLID_11_)" fill="#C3C4CF" width="175.748" height="0.117"/>
<rect x="0.162" y="81.569" clip-path="url(#XMLID_11_)" fill="#C1C2CD" width="175.748" height="0.117"/>
<rect x="0.162" y="81.687" clip-path="url(#XMLID_11_)" fill="#C0C0CB" width="175.748" height="0.117"/>
<rect x="0.162" y="81.804" clip-path="url(#XMLID_11_)" fill="#BEBECA" width="175.748" height="0.117"/>
<rect x="0.162" y="81.921" clip-path="url(#XMLID_11_)" fill="#BCBDC8" width="175.748" height="0.116"/>
<rect x="0.162" y="82.037" clip-path="url(#XMLID_11_)" fill="#BABBC6" width="175.748" height="0.117"/>
<rect x="0.162" y="82.154" clip-path="url(#XMLID_11_)" fill="#B9B9C5" width="175.748" height="0.117"/>
<rect x="0.162" y="82.271" clip-path="url(#XMLID_11_)" fill="#B7B7C3" width="175.748" height="0.117"/>
<rect x="0.162" y="82.389" clip-path="url(#XMLID_11_)" fill="#B5B6C2" width="175.748" height="0.117"/>
<rect x="0.162" y="82.506" clip-path="url(#XMLID_11_)" fill="#B4B4C0" width="175.748" height="0.117"/>
<rect x="0.162" y="82.623" clip-path="url(#XMLID_11_)" fill="#B2B2BF" width="175.748" height="0.117"/>
<rect x="0.162" y="82.739" clip-path="url(#XMLID_11_)" fill="#B0B0BD" width="175.748" height="0.117"/>
<rect x="0.162" y="82.856" clip-path="url(#XMLID_11_)" fill="#AFAFBC" width="175.748" height="0.117"/>
<rect x="0.162" y="82.974" clip-path="url(#XMLID_11_)" fill="#ADADBA" width="175.748" height="0.117"/>
<rect x="0.162" y="83.091" clip-path="url(#XMLID_11_)" fill="#ABABB9" width="175.748" height="0.117"/>
<rect x="0.162" y="83.208" clip-path="url(#XMLID_11_)" fill="#AAAAB7" width="175.748" height="0.117"/>
<rect x="0.162" y="83.325" clip-path="url(#XMLID_11_)" fill="#A8A8B6" width="175.748" height="0.117"/>
<rect x="0.162" y="83.442" clip-path="url(#XMLID_11_)" fill="#A7A7B4" width="175.748" height="0.116"/>
<rect x="0.162" y="83.559" clip-path="url(#XMLID_11_)" fill="#A5A5B3" width="175.748" height="0.117"/>
<rect x="0.162" y="83.676" clip-path="url(#XMLID_11_)" fill="#A4A4B2" width="175.748" height="0.117"/>
<rect x="0.162" y="83.793" clip-path="url(#XMLID_11_)" fill="#A2A2B0" width="175.748" height="0.117"/>
<rect x="0.162" y="83.91" clip-path="url(#XMLID_11_)" fill="#A1A1AF" width="175.748" height="0.117"/>
<rect x="0.162" y="84.027" clip-path="url(#XMLID_11_)" fill="#A09FAE" width="175.748" height="0.117"/>
<rect x="0.162" y="84.145" clip-path="url(#XMLID_11_)" fill="#9E9EAC" width="175.748" height="0.116"/>
<rect x="0.162" y="84.261" clip-path="url(#XMLID_11_)" fill="#9D9CAB" width="175.748" height="0.117"/>
<rect x="0.162" y="84.378" clip-path="url(#XMLID_11_)" fill="#9B9BAA" width="175.748" height="0.117"/>
<rect x="0.162" y="84.495" clip-path="url(#XMLID_11_)" fill="#9A99A8" width="175.748" height="0.117"/>
<rect x="0.162" y="84.612" clip-path="url(#XMLID_11_)" fill="#9998A7" width="175.748" height="0.117"/>
<rect x="0.162" y="84.729" clip-path="url(#XMLID_11_)" fill="#9796A6" width="175.748" height="0.117"/>
<rect x="0.162" y="84.847" clip-path="url(#XMLID_11_)" fill="#9695A4" width="175.748" height="0.117"/>
<rect x="0.162" y="84.964" clip-path="url(#XMLID_11_)" fill="#9494A3" width="175.748" height="0.116"/>
<rect x="0.162" y="85.08" clip-path="url(#XMLID_11_)" fill="#9392A2" width="175.748" height="0.117"/>
<rect x="0.162" y="85.197" clip-path="url(#XMLID_11_)" fill="#9291A0" width="175.748" height="0.117"/>
<rect x="0.162" y="85.314" clip-path="url(#XMLID_11_)" fill="#908F9F" width="175.748" height="0.117"/>
<rect x="0.162" y="85.432" clip-path="url(#XMLID_11_)" fill="#8F8E9E" width="175.748" height="0.117"/>
<rect x="0.162" y="85.549" clip-path="url(#XMLID_11_)" fill="#8E8D9D" width="175.748" height="0.117"/>
<rect x="0.162" y="85.666" clip-path="url(#XMLID_11_)" fill="#8C8B9C" width="175.748" height="0.116"/>
<rect x="0.162" y="85.782" clip-path="url(#XMLID_11_)" fill="#8B8A9A" width="175.748" height="0.117"/>
<rect x="0.162" y="85.899" clip-path="url(#XMLID_11_)" fill="#8A8999" width="175.748" height="0.117"/>
<rect x="0.162" y="86.017" clip-path="url(#XMLID_11_)" fill="#898798" width="175.748" height="0.117"/>
<rect x="0.162" y="86.134" clip-path="url(#XMLID_11_)" fill="#878697" width="175.748" height="0.117"/>
<rect x="0.162" y="86.251" clip-path="url(#XMLID_11_)" fill="#868596" width="175.748" height="0.117"/>
<rect x="0.162" y="86.368" clip-path="url(#XMLID_11_)" fill="#858394" width="175.748" height="0.117"/>
<rect x="0.162" y="86.484" clip-path="url(#XMLID_11_)" fill="#838293" width="175.748" height="0.117"/>
<rect x="0.162" y="86.602" clip-path="url(#XMLID_11_)" fill="#828192" width="175.748" height="0.117"/>
<rect x="0.162" y="86.719" clip-path="url(#XMLID_11_)" fill="#818091" width="175.748" height="0.117"/>
<rect x="0.162" y="86.836" clip-path="url(#XMLID_11_)" fill="#807F90" width="175.748" height="0.117"/>
<rect x="0.162" y="86.953" clip-path="url(#XMLID_11_)" fill="#7E7D8F" width="175.748" height="0.117"/>
<rect x="0.162" y="87.07" clip-path="url(#XMLID_11_)" fill="#7D7C8E" width="175.748" height="0.117"/>
<rect x="0.162" y="87.188" clip-path="url(#XMLID_11_)" fill="#7C7B8D" width="175.748" height="0.116"/>
<rect x="0.162" y="87.304" clip-path="url(#XMLID_11_)" fill="#7B7A8B" width="175.748" height="0.117"/>
<rect x="0.162" y="87.421" clip-path="url(#XMLID_11_)" fill="#7A788A" width="175.748" height="0.117"/>
<rect x="0.162" y="87.538" clip-path="url(#XMLID_11_)" fill="#787789" width="175.748" height="0.117"/>
<rect x="0.162" y="87.655" clip-path="url(#XMLID_11_)" fill="#777688" width="175.748" height="0.117"/>
<rect x="0.162" y="87.772" clip-path="url(#XMLID_11_)" fill="#767587" width="175.748" height="0.117"/>
<rect x="0.162" y="87.89" clip-path="url(#XMLID_11_)" fill="#757486" width="175.748" height="0.116"/>
<rect x="0.162" y="88.006" clip-path="url(#XMLID_11_)" fill="#747385" width="175.748" height="0.117"/>
<rect x="0.162" y="88.123" clip-path="url(#XMLID_11_)" fill="#727284" width="175.748" height="0.117"/>
<rect x="0.162" y="88.24" clip-path="url(#XMLID_11_)" fill="#717083" width="175.748" height="0.117"/>
<rect x="0.162" y="88.357" clip-path="url(#XMLID_11_)" fill="#706F82" width="175.748" height="0.117"/>
<rect x="0.162" y="88.475" clip-path="url(#XMLID_11_)" fill="#6F6E81" width="175.748" height="0.117"/>
<rect x="0.162" y="88.592" clip-path="url(#XMLID_11_)" fill="#6E6D80" width="175.748" height="0.117"/>
<rect x="0.162" y="88.709" clip-path="url(#XMLID_11_)" fill="#6D6C7F" width="175.748" height="0.116"/>
<rect x="0.162" y="88.825" clip-path="url(#XMLID_11_)" fill="#6B6B7E" width="175.748" height="0.117"/>
<rect x="0.162" y="88.942" clip-path="url(#XMLID_11_)" fill="#6A6A7D" width="175.748" height="0.117"/>
<rect x="0.162" y="89.06" clip-path="url(#XMLID_11_)" fill="#69697C" width="175.748" height="0.117"/>
<rect x="0.162" y="89.177" clip-path="url(#XMLID_11_)" fill="#68687B" width="175.748" height="0.117"/>
<rect x="0.162" y="89.294" clip-path="url(#XMLID_11_)" fill="#67677A" width="175.748" height="0.117"/>
<rect x="0.162" y="89.412" clip-path="url(#XMLID_11_)" fill="#666679" width="175.748" height="0.116"/>
<rect x="0.162" y="89.527" clip-path="url(#XMLID_11_)" fill="#646578" width="175.748" height="0.117"/>
<rect x="0.162" y="89.645" clip-path="url(#XMLID_11_)" fill="#636477" width="175.748" height="0.117"/>
<rect x="0.162" y="89.762" clip-path="url(#XMLID_11_)" fill="#626376" width="175.748" height="0.117"/>
<rect x="0.162" y="89.88" clip-path="url(#XMLID_11_)" fill="#616275" width="175.748" height="0.117"/>
<rect x="0.162" y="89.996" clip-path="url(#XMLID_11_)" fill="#606174" width="175.748" height="0.117"/>
<rect x="0.162" y="90.113" clip-path="url(#XMLID_11_)" fill="#5F6073" width="175.748" height="0.117"/>
<rect x="0.162" y="90.23" clip-path="url(#XMLID_11_)" fill="#5E5F72" width="175.748" height="0.117"/>
<rect x="0.162" y="90.348" clip-path="url(#XMLID_11_)" fill="#5D5E71" width="175.748" height="0.117"/>
<rect x="0.162" y="90.464" clip-path="url(#XMLID_11_)" fill="#5B5D70" width="175.748" height="0.117"/>
<rect x="0.162" y="90.581" clip-path="url(#XMLID_11_)" fill="#5A5C70" width="175.748" height="0.117"/>
<rect x="0.162" y="90.699" clip-path="url(#XMLID_11_)" fill="#595B6F" width="175.748" height="0.117"/>
<rect x="0.162" y="90.815" clip-path="url(#XMLID_11_)" fill="#585A6E" width="175.748" height="0.117"/>
<rect x="0.162" y="90.933" clip-path="url(#XMLID_11_)" fill="#57596D" width="175.748" height="0.116"/>
<rect x="0.162" y="91.05" clip-path="url(#XMLID_11_)" fill="#56586C" width="175.748" height="0.117"/>
<rect x="0.162" y="91.167" clip-path="url(#XMLID_11_)" fill="#55576B" width="175.748" height="0.117"/>
<rect x="0.162" y="91.283" clip-path="url(#XMLID_11_)" fill="#54566A" width="175.748" height="0.117"/>
<rect x="0.162" y="91.4" clip-path="url(#XMLID_11_)" fill="#525569" width="175.748" height="0.117"/>
<rect x="0.162" y="91.519" clip-path="url(#XMLID_11_)" fill="#515469" width="175.748" height="0.117"/>
<rect x="0.162" y="91.635" clip-path="url(#XMLID_11_)" fill="#505368" width="175.748" height="0.117"/>
<rect x="0.162" y="91.751" clip-path="url(#XMLID_11_)" fill="#4F5267" width="175.748" height="0.117"/>
<rect x="0.162" y="91.869" clip-path="url(#XMLID_11_)" fill="#4E5166" width="175.748" height="0.117"/>
<rect x="0.162" y="91.986" clip-path="url(#XMLID_11_)" fill="#4D5065" width="175.748" height="0.117"/>
<rect x="0.162" y="92.103" clip-path="url(#XMLID_11_)" fill="#4C5065" width="175.748" height="0.117"/>
<rect x="0.162" y="92.221" clip-path="url(#XMLID_11_)" fill="#4B4F64" width="175.748" height="0.117"/>
<rect x="0.162" y="92.338" clip-path="url(#XMLID_11_)" fill="#494E63" width="175.748" height="0.117"/>
<rect x="0.162" y="92.455" clip-path="url(#XMLID_11_)" fill="#484D62" width="175.748" height="0.116"/>
<rect x="0.162" y="92.57" clip-path="url(#XMLID_11_)" fill="#474C61" width="175.748" height="0.117"/>
<rect x="0.162" y="92.688" clip-path="url(#XMLID_11_)" fill="#464B61" width="175.748" height="0.117"/>
<rect x="0.162" y="92.806" clip-path="url(#XMLID_11_)" fill="#454A60" width="175.748" height="0.117"/>
<rect x="0.162" y="92.923" clip-path="url(#XMLID_11_)" fill="#44495F" width="175.748" height="0.117"/>
<rect x="0.162" y="93.04" clip-path="url(#XMLID_11_)" fill="#43485E" width="175.748" height="0.117"/>
<rect x="0.162" y="93.157" clip-path="url(#XMLID_11_)" fill="#42485D" width="175.748" height="0.116"/>
<rect x="0.162" y="93.273" clip-path="url(#XMLID_11_)" fill="#41475D" width="175.748" height="0.117"/>
<rect x="0.162" y="93.391" clip-path="url(#XMLID_11_)" fill="#40465C" width="175.748" height="0.117"/>
<rect x="0.162" y="93.508" clip-path="url(#XMLID_11_)" fill="#3E455B" width="175.748" height="0.117"/>
<rect x="0.162" y="93.625" clip-path="url(#XMLID_11_)" fill="#3D445A" width="175.748" height="0.117"/>
<rect x="0.162" y="93.742" clip-path="url(#XMLID_11_)" fill="#3C4359" width="175.748" height="0.117"/>
<rect x="0.162" y="93.859" clip-path="url(#XMLID_11_)" fill="#3B4259" width="175.748" height="0.117"/>
<rect x="0.162" y="93.976" clip-path="url(#XMLID_11_)" fill="#3A4158" width="175.748" height="0.117"/>
<rect x="0.162" y="94.093" clip-path="url(#XMLID_11_)" fill="#394057" width="175.748" height="0.117"/>
<rect x="0.162" y="94.21" clip-path="url(#XMLID_11_)" fill="#384056" width="175.748" height="0.117"/>
<rect x="0.162" y="94.327" clip-path="url(#XMLID_11_)" fill="#373F56" width="175.748" height="0.117"/>
<rect x="0.162" y="94.444" clip-path="url(#XMLID_11_)" fill="#363E55" width="175.748" height="0.117"/>
<rect x="0.162" y="94.562" clip-path="url(#XMLID_11_)" fill="#343D54" width="175.748" height="0.117"/>
<rect x="0.162" y="94.679" clip-path="url(#XMLID_11_)" fill="#333C53" width="175.748" height="0.116"/>
<rect x="0.162" y="94.795" clip-path="url(#XMLID_11_)" fill="#323B53" width="175.748" height="0.117"/>
<rect x="0.162" y="94.912" clip-path="url(#XMLID_11_)" fill="#313B52" width="175.748" height="0.117"/>
<rect x="0.162" y="95.029" clip-path="url(#XMLID_11_)" fill="#303A51" width="175.748" height="0.117"/>
<rect x="0.162" y="95.146" clip-path="url(#XMLID_11_)" fill="#2F3951" width="175.748" height="0.117"/>
<rect x="0.162" y="95.264" clip-path="url(#XMLID_11_)" fill="#2E3850" width="175.748" height="0.117"/>
<rect x="0.162" y="95.381" clip-path="url(#XMLID_11_)" fill="#2D374F" width="175.748" height="0.116"/>
<rect x="0.162" y="95.497" clip-path="url(#XMLID_11_)" fill="#2B364F" width="175.748" height="0.117"/>
<rect x="0.162" y="95.614" clip-path="url(#XMLID_11_)" fill="#2A364E" width="175.748" height="0.117"/>
<rect x="0.162" y="95.731" clip-path="url(#XMLID_11_)" fill="#29354D" width="175.748" height="0.117"/>
<path clip-path="url(#XMLID_11_)" fill="#29354D" d="M0.162,95.849h175.748H0.162z"/>
</g>
<path fill="none" stroke="#221E1F" stroke-width="0.3228" stroke-miterlimit="2.6131" d="M17.129,95.849
c-15.686,0-16.967-7.479-16.967-7.479v-0.024c0,0,1.282-7.479,16.967-7.479c5.208,0,136.605,0,141.813,0
c15.687,0,16.968,7.479,16.968,7.479v0.024c0,0-1.281,7.479-16.967,7.479C153.734,95.849,22.096,95.849,17.129,95.849z"/>
<g>
<defs>
<path id="XMLID_9_" d="M95.365,158.942c0,15.686-7.479,16.967-7.479,16.967h-0.024c0,0-7.479-1.281-7.479-16.968
c0-5.208,0-136.604,0-141.813c0-15.685,7.479-16.967,7.479-16.967h0.024c0,0,7.479,1.281,7.479,16.967
C95.365,22.336,95.365,153.976,95.365,158.942z"/>
</defs>
<clipPath id="XMLID_12_">
<use xlink:href="#XMLID_9_" />
</clipPath>
<polygon clip-path="url(#XMLID_12_)" fill="#CCCDD7" points="80.384,175.909 80.384,175.909 80.384,0.161 	"/>
<rect x="80.384" y="0.161" clip-path="url(#XMLID_12_)" fill="#CCCDD7" width="0.117" height="175.748"/>
<rect x="80.501" y="0.161" clip-path="url(#XMLID_12_)" fill="#CACBD5" width="0.117" height="175.748"/>
<rect x="80.618" y="0.161" clip-path="url(#XMLID_12_)" fill="#C9C9D4" width="0.117" height="175.748"/>
<rect x="80.735" y="0.161" clip-path="url(#XMLID_12_)" fill="#C7C8D2" width="0.116" height="175.748"/>
<rect x="80.852" y="0.161" clip-path="url(#XMLID_12_)" fill="#C5C6D0" width="0.117" height="175.748"/>
<rect x="80.969" y="0.161" clip-path="url(#XMLID_12_)" fill="#C3C4CF" width="0.117" height="175.748"/>
<rect x="81.086" y="0.161" clip-path="url(#XMLID_12_)" fill="#C1C2CD" width="0.117" height="175.748"/>
<rect x="81.203" y="0.161" clip-path="url(#XMLID_12_)" fill="#C0C0CB" width="0.117" height="175.748"/>
<rect x="81.32" y="0.161" clip-path="url(#XMLID_12_)" fill="#BEBECA" width="0.117" height="175.748"/>
<rect x="81.438" y="0.161" clip-path="url(#XMLID_12_)" fill="#BCBDC8" width="0.116" height="175.748"/>
<rect x="81.554" y="0.161" clip-path="url(#XMLID_12_)" fill="#BABBC6" width="0.117" height="175.748"/>
<rect x="81.671" y="0.161" clip-path="url(#XMLID_12_)" fill="#B9B9C5" width="0.117" height="175.748"/>
<rect x="81.788" y="0.161" clip-path="url(#XMLID_12_)" fill="#B7B7C3" width="0.117" height="175.748"/>
<rect x="81.905" y="0.161" clip-path="url(#XMLID_12_)" fill="#B5B6C2" width="0.117" height="175.748"/>
<rect x="82.022" y="0.161" clip-path="url(#XMLID_12_)" fill="#B4B4C0" width="0.117" height="175.748"/>
<rect x="82.14" y="0.161" clip-path="url(#XMLID_12_)" fill="#B2B2BF" width="0.116" height="175.748"/>
<rect x="82.257" y="0.161" clip-path="url(#XMLID_12_)" fill="#B0B0BD" width="0.116" height="175.748"/>
<rect x="82.373" y="0.161" clip-path="url(#XMLID_12_)" fill="#AFAFBC" width="0.117" height="175.748"/>
<rect x="82.49" y="0.161" clip-path="url(#XMLID_12_)" fill="#ADADBA" width="0.117" height="175.748"/>
<rect x="82.607" y="0.161" clip-path="url(#XMLID_12_)" fill="#ABABB9" width="0.117" height="175.748"/>
<rect x="82.725" y="0.161" clip-path="url(#XMLID_12_)" fill="#AAAAB7" width="0.117" height="175.748"/>
<rect x="82.842" y="0.161" clip-path="url(#XMLID_12_)" fill="#A8A8B6" width="0.117" height="175.748"/>
<rect x="82.959" y="0.161" clip-path="url(#XMLID_12_)" fill="#A7A7B4" width="0.116" height="175.748"/>
<rect x="83.075" y="0.161" clip-path="url(#XMLID_12_)" fill="#A5A5B3" width="0.117" height="175.748"/>
<rect x="83.192" y="0.161" clip-path="url(#XMLID_12_)" fill="#A4A4B2" width="0.117" height="175.748"/>
<rect x="83.31" y="0.161" clip-path="url(#XMLID_12_)" fill="#A2A2B0" width="0.117" height="175.748"/>
<rect x="83.427" y="0.161" clip-path="url(#XMLID_12_)" fill="#A1A1AF" width="0.117" height="175.748"/>
<rect x="83.544" y="0.161" clip-path="url(#XMLID_12_)" fill="#A09FAE" width="0.117" height="175.748"/>
<rect x="83.661" y="0.161" clip-path="url(#XMLID_12_)" fill="#9E9EAC" width="0.116" height="175.748"/>
<rect x="83.777" y="0.161" clip-path="url(#XMLID_12_)" fill="#9D9CAB" width="0.117" height="175.748"/>
<rect x="83.895" y="0.161" clip-path="url(#XMLID_12_)" fill="#9B9BAA" width="0.117" height="175.748"/>
<rect x="84.012" y="0.161" clip-path="url(#XMLID_12_)" fill="#9A99A8" width="0.117" height="175.748"/>
<rect x="84.129" y="0.161" clip-path="url(#XMLID_12_)" fill="#9998A7" width="0.117" height="175.748"/>
<rect x="84.246" y="0.161" clip-path="url(#XMLID_12_)" fill="#9796A6" width="0.117" height="175.748"/>
<rect x="84.363" y="0.161" clip-path="url(#XMLID_12_)" fill="#9695A4" width="0.117" height="175.748"/>
<rect x="84.48" y="0.161" clip-path="url(#XMLID_12_)" fill="#9494A3" width="0.116" height="175.748"/>
<rect x="84.597" y="0.161" clip-path="url(#XMLID_12_)" fill="#9392A2" width="0.117" height="175.748"/>
<rect x="84.714" y="0.161" clip-path="url(#XMLID_12_)" fill="#9291A0" width="0.117" height="175.748"/>
<rect x="84.831" y="0.161" clip-path="url(#XMLID_12_)" fill="#908F9F" width="0.117" height="175.748"/>
<rect x="84.948" y="0.161" clip-path="url(#XMLID_12_)" fill="#8F8E9E" width="0.117" height="175.748"/>
<rect x="85.065" y="0.161" clip-path="url(#XMLID_12_)" fill="#8E8D9D" width="0.117" height="175.748"/>
<rect x="85.183" y="0.161" clip-path="url(#XMLID_12_)" fill="#8C8B9C" width="0.117" height="175.748"/>
<rect x="85.299" y="0.161" clip-path="url(#XMLID_12_)" fill="#8B8A9A" width="0.117" height="175.748"/>
<rect x="85.416" y="0.161" clip-path="url(#XMLID_12_)" fill="#8A8999" width="0.117" height="175.748"/>
<rect x="85.533" y="0.161" clip-path="url(#XMLID_12_)" fill="#898798" width="0.117" height="175.748"/>
<rect x="85.65" y="0.161" clip-path="url(#XMLID_12_)" fill="#878697" width="0.117" height="175.748"/>
<rect x="85.768" y="0.161" clip-path="url(#XMLID_12_)" fill="#868596" width="0.117" height="175.748"/>
<rect x="85.885" y="0.161" clip-path="url(#XMLID_12_)" fill="#858394" width="0.116" height="175.748"/>
<rect x="86.002" y="0.161" clip-path="url(#XMLID_12_)" fill="#838293" width="0.117" height="175.748"/>
<rect x="86.118" y="0.161" clip-path="url(#XMLID_12_)" fill="#828192" width="0.117" height="175.748"/>
<rect x="86.235" y="0.161" clip-path="url(#XMLID_12_)" fill="#818091" width="0.117" height="175.748"/>
<rect x="86.353" y="0.161" clip-path="url(#XMLID_12_)" fill="#807F90" width="0.117" height="175.748"/>
<rect x="86.47" y="0.161" clip-path="url(#XMLID_12_)" fill="#7E7D8F" width="0.117" height="175.748"/>
<rect x="86.587" y="0.161" clip-path="url(#XMLID_12_)" fill="#7D7C8E" width="0.117" height="175.748"/>
<rect x="86.704" y="0.161" clip-path="url(#XMLID_12_)" fill="#7C7B8D" width="0.116" height="175.748"/>
<rect x="86.821" y="0.161" clip-path="url(#XMLID_12_)" fill="#7B7A8B" width="0.117" height="175.748"/>
<rect x="86.938" y="0.161" clip-path="url(#XMLID_12_)" fill="#7A788A" width="0.117" height="175.748"/>
<rect x="87.055" y="0.161" clip-path="url(#XMLID_12_)" fill="#787789" width="0.117" height="175.748"/>
<rect x="87.172" y="0.161" clip-path="url(#XMLID_12_)" fill="#777688" width="0.117" height="175.748"/>
<rect x="87.29" y="0.161" clip-path="url(#XMLID_12_)" fill="#767587" width="0.117" height="175.748"/>
<rect x="87.406" y="0.161" clip-path="url(#XMLID_12_)" fill="#757486" width="0.116" height="175.748"/>
<rect x="87.523" y="0.161" clip-path="url(#XMLID_12_)" fill="#747385" width="0.117" height="175.748"/>
<rect x="87.64" y="0.161" clip-path="url(#XMLID_12_)" fill="#727284" width="0.117" height="175.748"/>
<rect x="87.757" y="0.161" clip-path="url(#XMLID_12_)" fill="#717083" width="0.117" height="175.748"/>
<rect x="87.874" y="0.161" clip-path="url(#XMLID_12_)" fill="#706F82" width="0.117" height="175.748"/>
<rect x="87.992" y="0.161" clip-path="url(#XMLID_12_)" fill="#6F6E81" width="0.117" height="175.748"/>
<rect x="88.109" y="0.161" clip-path="url(#XMLID_12_)" fill="#6E6D80" width="0.117" height="175.748"/>
<rect x="88.226" y="0.161" clip-path="url(#XMLID_12_)" fill="#6D6C7F" width="0.117" height="175.748"/>
<rect x="88.342" y="0.161" clip-path="url(#XMLID_12_)" fill="#6B6B7E" width="0.117" height="175.748"/>
<rect x="88.459" y="0.161" clip-path="url(#XMLID_12_)" fill="#6A6A7D" width="0.117" height="175.748"/>
<rect x="88.577" y="0.161" clip-path="url(#XMLID_12_)" fill="#69697C" width="0.117" height="175.748"/>
<rect x="88.693" y="0.161" clip-path="url(#XMLID_12_)" fill="#68687B" width="0.117" height="175.748"/>
<rect x="88.811" y="0.161" clip-path="url(#XMLID_12_)" fill="#67677A" width="0.117" height="175.748"/>
<rect x="88.928" y="0.161" clip-path="url(#XMLID_12_)" fill="#666679" width="0.116" height="175.748"/>
<rect x="89.044" y="0.161" clip-path="url(#XMLID_12_)" fill="#646578" width="0.117" height="175.748"/>
<rect x="89.162" y="0.161" clip-path="url(#XMLID_12_)" fill="#636477" width="0.117" height="175.748"/>
<rect x="89.279" y="0.161" clip-path="url(#XMLID_12_)" fill="#626376" width="0.117" height="175.748"/>
<rect x="89.396" y="0.161" clip-path="url(#XMLID_12_)" fill="#616275" width="0.117" height="175.748"/>
<rect x="89.513" y="0.161" clip-path="url(#XMLID_12_)" fill="#606174" width="0.117" height="175.748"/>
<rect x="89.63" y="0.161" clip-path="url(#XMLID_12_)" fill="#5F6073" width="0.116" height="175.748"/>
<rect x="89.748" y="0.161" clip-path="url(#XMLID_12_)" fill="#5E5F72" width="0.116" height="175.748"/>
<rect x="89.864" y="0.161" clip-path="url(#XMLID_12_)" fill="#5D5E71" width="0.117" height="175.748"/>
<rect x="89.981" y="0.161" clip-path="url(#XMLID_12_)" fill="#5B5D70" width="0.117" height="175.748"/>
<rect x="90.098" y="0.161" clip-path="url(#XMLID_12_)" fill="#5A5C70" width="0.117" height="175.748"/>
<rect x="90.215" y="0.161" clip-path="url(#XMLID_12_)" fill="#595B6F" width="0.117" height="175.748"/>
<rect x="90.333" y="0.161" clip-path="url(#XMLID_12_)" fill="#585A6E" width="0.117" height="175.748"/>
<rect x="90.45" y="0.161" clip-path="url(#XMLID_12_)" fill="#57596D" width="0.116" height="175.748"/>
<rect x="90.566" y="0.161" clip-path="url(#XMLID_12_)" fill="#56586C" width="0.117" height="175.748"/>
<rect x="90.683" y="0.161" clip-path="url(#XMLID_12_)" fill="#55576B" width="0.117" height="175.748"/>
<rect x="90.8" y="0.161" clip-path="url(#XMLID_12_)" fill="#54566A" width="0.117" height="175.748"/>
<rect x="90.917" y="0.161" clip-path="url(#XMLID_12_)" fill="#525569" width="0.117" height="175.748"/>
<rect x="91.035" y="0.161" clip-path="url(#XMLID_12_)" fill="#515469" width="0.117" height="175.748"/>
<rect x="91.152" y="0.161" clip-path="url(#XMLID_12_)" fill="#505368" width="0.116" height="175.748"/>
<rect x="91.268" y="0.161" clip-path="url(#XMLID_12_)" fill="#4F5267" width="0.117" height="175.748"/>
<rect x="91.385" y="0.161" clip-path="url(#XMLID_12_)" fill="#4E5166" width="0.117" height="175.748"/>
<rect x="91.502" y="0.161" clip-path="url(#XMLID_12_)" fill="#4D5065" width="0.117" height="175.748"/>
<rect x="91.62" y="0.161" clip-path="url(#XMLID_12_)" fill="#4C5065" width="0.117" height="175.748"/>
<rect x="91.737" y="0.161" clip-path="url(#XMLID_12_)" fill="#4B4F64" width="0.117" height="175.748"/>
<rect x="91.854" y="0.161" clip-path="url(#XMLID_12_)" fill="#494E63" width="0.117" height="175.748"/>
<rect x="91.971" y="0.161" clip-path="url(#XMLID_12_)" fill="#484D62" width="0.116" height="175.748"/>
<rect x="92.087" y="0.161" clip-path="url(#XMLID_12_)" fill="#474C61" width="0.117" height="175.748"/>
<rect x="92.205" y="0.161" clip-path="url(#XMLID_12_)" fill="#464B61" width="0.117" height="175.748"/>
<rect x="92.322" y="0.161" clip-path="url(#XMLID_12_)" fill="#454A60" width="0.117" height="175.748"/>
<rect x="92.439" y="0.161" clip-path="url(#XMLID_12_)" fill="#44495F" width="0.117" height="175.748"/>
<rect x="92.556" y="0.161" clip-path="url(#XMLID_12_)" fill="#43485E" width="0.117" height="175.748"/>
<rect x="92.673" y="0.161" clip-path="url(#XMLID_12_)" fill="#42485D" width="0.116" height="175.748"/>
<rect x="92.79" y="0.161" clip-path="url(#XMLID_12_)" fill="#41475D" width="0.117" height="175.748"/>
<rect x="92.907" y="0.161" clip-path="url(#XMLID_12_)" fill="#40465C" width="0.117" height="175.748"/>
<rect x="93.024" y="0.161" clip-path="url(#XMLID_12_)" fill="#3E455B" width="0.117" height="175.748"/>
<rect x="93.141" y="0.161" clip-path="url(#XMLID_12_)" fill="#3D445A" width="0.117" height="175.748"/>
<rect x="93.258" y="0.161" clip-path="url(#XMLID_12_)" fill="#3C4359" width="0.117" height="175.748"/>
<rect x="93.375" y="0.161" clip-path="url(#XMLID_12_)" fill="#3B4259" width="0.116" height="175.748"/>
<rect x="93.493" y="0.161" clip-path="url(#XMLID_12_)" fill="#3A4158" width="0.116" height="175.748"/>
<rect x="93.609" y="0.161" clip-path="url(#XMLID_12_)" fill="#394057" width="0.117" height="175.748"/>
<rect x="93.726" y="0.161" clip-path="url(#XMLID_12_)" fill="#384056" width="0.117" height="175.748"/>
<rect x="93.843" y="0.161" clip-path="url(#XMLID_12_)" fill="#373F56" width="0.117" height="175.748"/>
<rect x="93.96" y="0.161" clip-path="url(#XMLID_12_)" fill="#363E55" width="0.117" height="175.748"/>
<rect x="94.078" y="0.161" clip-path="url(#XMLID_12_)" fill="#343D54" width="0.117" height="175.748"/>
<rect x="94.195" y="0.161" clip-path="url(#XMLID_12_)" fill="#333C53" width="0.116" height="175.748"/>
<rect x="94.311" y="0.161" clip-path="url(#XMLID_12_)" fill="#323B53" width="0.117" height="175.748"/>
<rect x="94.428" y="0.161" clip-path="url(#XMLID_12_)" fill="#313B52" width="0.117" height="175.748"/>
<rect x="94.545" y="0.161" clip-path="url(#XMLID_12_)" fill="#303A51" width="0.117" height="175.748"/>
<rect x="94.663" y="0.161" clip-path="url(#XMLID_12_)" fill="#2F3951" width="0.117" height="175.748"/>
<rect x="94.78" y="0.161" clip-path="url(#XMLID_12_)" fill="#2E3850" width="0.117" height="175.748"/>
<rect x="94.897" y="0.161" clip-path="url(#XMLID_12_)" fill="#2D374F" width="0.116" height="175.748"/>
<rect x="95.013" y="0.161" clip-path="url(#XMLID_12_)" fill="#2B364F" width="0.117" height="175.748"/>
<rect x="95.13" y="0.161" clip-path="url(#XMLID_12_)" fill="#2A364E" width="0.117" height="175.748"/>
<rect x="95.248" y="0.161" clip-path="url(#XMLID_12_)" fill="#29354D" width="0.117" height="175.748"/>
<polygon clip-path="url(#XMLID_12_)" fill="#29354D" points="95.365,175.909 95.365,175.909 95.365,0.161 	"/>
</g>
<path fill="none" stroke="#221E1F" stroke-width="0.3228" stroke-miterlimit="2.6131" d="M95.365,158.942
c0,15.686-7.479,16.967-7.479,16.967h-0.024c0,0-7.479-1.281-7.479-16.968c0-5.208,0-136.604,0-141.813
c0-15.686,7.479-16.968,7.479-16.968h0.024c0,0,7.479,1.281,7.479,16.968C95.365,22.336,95.365,153.976,95.365,158.942z"/>
<path fill-rule="evenodd" clip-rule="evenodd" fill="#0060AF" d="M87.288,35.808c-9.109,0-17.737,2.374-25.892,7.118
c-8.155,4.747-14.524,11.137-19.104,19.177c-4.583,8.039-6.87,16.995-6.87,26.873c0,14.627,5.068,26.979,15.207,37.051
c10.135,10.076,22.356,15.112,36.658,15.112c9.549,0,18.388-2.313,26.519-6.946c8.126-4.633,14.467-10.967,19.018-19.006
c4.549-8.039,6.829-16.968,6.829-26.796c0-9.768-2.279-18.602-6.829-26.499c-4.551-7.896-10.96-14.219-19.229-18.966
C105.328,38.182,96.558,35.808,87.288,35.808 M86.674,18.422c20.208,0,37.12,6.744,50.734,20.222
c13.614,13.482,20.424,30.076,20.424,49.783c0,19.53-6.792,36.095-20.376,49.697s-30.149,20.401-49.69,20.401
c-19.788,0-36.49-6.77-50.103-20.312c-13.614-13.542-20.42-29.927-20.42-49.152c0-12.813,3.101-24.689,9.3-35.635
c6.2-10.941,14.658-19.509,25.37-25.707C62.621,21.521,74.209,18.422,86.674,18.422z"/>
<path fill-rule="evenodd" clip-rule="evenodd" fill="#0060AF" d="M65.177,116.695C58.253,104.763,56.3,95.713,56.3,81.348
c0-14.366,0-35.35,0-35.35h63.272c0,0,0,20.983,0,35.35c0,14.365-1.953,23.415-8.877,35.348
c-15.172,26.148-22.759,25.503-22.759,25.503S80.35,142.844,65.177,116.695"/>
<path fill-rule="evenodd" clip-rule="evenodd" fill="#EE1B28" d="M56.3,83.728c0,3.592,0.408,7.465,0.408,7.465h31.228V45.998H56.3
C56.3,45.998,56.3,83.364,56.3,83.728"/>
<path fill-rule="evenodd" clip-rule="evenodd" fill="#EE1B28" d="M102.543,129.366c-4.257,6.013-9.119,10.531-12.105,12.065
c-1.542,0.791-2.502,0.767-2.502,0.767V91.192h31.233c-0.015,0.021-0.399,5.142-1.876,10.492
C114.569,111.551,107.729,122.043,102.543,129.366"/>
<path fill="#FFFFFF" d="M110.884,55.183l0.432,8.663l-2.42,0.981c-0.509-2.064-1.189-3.576-2.037-4.534
c-0.85-0.959-1.818-1.438-2.908-1.438c-0.705,0-1.287,0.218-1.745,0.649c-0.458,0.434-0.72,0.915-0.784,1.448
c-0.075,0.606,0.038,1.169,0.34,1.688c0.293,0.519,0.893,0.983,1.801,1.391l3.141,1.447c1.743,0.791,2.926,1.839,3.55,3.146
c0.614,1.321,0.813,2.857,0.599,4.609c-0.274,2.232-1.102,4.122-2.48,5.664c-1.541,1.702-3.299,2.554-5.276,2.554
c-0.919,0-1.74-0.176-2.467-0.526c-0.727-0.353-1.457-0.941-2.191-1.77l-0.772,1.853h-1.849l0.017-10.021l2.402-0.834
c0.294,2.048,0.934,3.757,1.918,5.126c0.986,1.372,2.167,2.058,3.547,2.058c0.619,0,1.148-0.117,1.585-0.351
s0.785-0.559,1.042-0.977c0.258-0.417,0.414-0.847,0.468-1.289c0.09-0.736-0.07-1.368-0.48-1.897
c-0.419-0.527-1.198-1.049-2.339-1.564l-2.746-1.267c-0.415-0.186-0.961-0.535-1.642-1.05c-0.681-0.514-1.187-1.05-1.518-1.607
c-0.33-0.558-0.574-1.271-0.729-2.146c-0.157-0.872-0.175-1.793-0.057-2.759c0.168-1.375,0.576-2.642,1.225-3.799
c0.649-1.158,1.524-2.097,2.63-2.815c1.105-0.719,2.275-1.077,3.511-1.077c1.491,0,2.766,0.58,3.826,1.739l0.641-1.296H110.884"/>
<path fill="none" stroke="#221E1F" stroke-width="0.3228" stroke-miterlimit="2.6131" d="M110.884,55.183l0.432,8.663l-2.42,0.981
c-0.509-2.064-1.189-3.576-2.037-4.534c-0.85-0.959-1.818-1.438-2.908-1.438c-0.705,0-1.287,0.218-1.745,0.649
c-0.458,0.434-0.72,0.915-0.784,1.448c-0.075,0.606,0.038,1.169,0.34,1.688c0.293,0.519,0.893,0.983,1.801,1.391l3.141,1.448
c1.743,0.79,2.926,1.838,3.55,3.146c0.614,1.321,0.813,2.857,0.599,4.609c-0.274,2.232-1.102,4.122-2.48,5.664
c-1.541,1.702-3.299,2.554-5.276,2.554c-0.919,0-1.74-0.176-2.467-0.526c-0.727-0.353-1.457-0.941-2.191-1.77l-0.772,1.853h-1.849
l0.017-10.021l2.401-0.834c0.294,2.048,0.934,3.757,1.918,5.126c0.985,1.372,2.167,2.058,3.546,2.058
c0.619,0,1.148-0.117,1.585-0.351s0.785-0.559,1.042-0.977c0.258-0.417,0.414-0.847,0.468-1.289c0.09-0.736-0.07-1.368-0.48-1.897
c-0.419-0.527-1.198-1.049-2.339-1.564l-2.746-1.267c-0.415-0.186-0.961-0.535-1.642-1.05c-0.681-0.514-1.187-1.05-1.518-1.607
c-0.33-0.558-0.574-1.271-0.729-2.146c-0.157-0.872-0.175-1.793-0.057-2.759c0.168-1.375,0.576-2.642,1.225-3.799
c0.649-1.158,1.524-2.097,2.63-2.815c1.105-0.718,2.275-1.077,3.511-1.077c1.491,0,2.766,0.58,3.826,1.74l0.641-1.297H110.884z"/>
<path fill="#FFFFFF" d="M61.439,55.667h4.602l2.168,15.064l0.745-9.201c0.064-0.787,0.084-1.279,0.062-1.478
c-0.03-0.295-0.087-0.501-0.171-0.619c-0.083-0.116-0.258-0.175-0.524-0.175h-0.555l0.291-3.592h4.721l-0.291,3.592h-0.519
c-0.261,0-0.451,0.067-0.573,0.203c-0.122,0.136-0.215,0.32-0.277,0.556c-0.063,0.234-0.125,0.739-0.188,1.517l-1.617,19.958h-2.34
l-2.737-19.019l-1.076,13.284c-0.063,0.764-0.082,1.25-0.059,1.46s0.083,0.376,0.179,0.498c0.096,0.124,0.273,0.185,0.532,0.185
h0.545l-0.292,3.592h-4.72l0.291-3.592h0.487c0.27,0,0.459-0.052,0.568-0.156c0.108-0.104,0.204-0.286,0.283-0.545
c0.081-0.259,0.143-0.646,0.185-1.164l1.197-14.781c0.046-0.566,0.053-0.982,0.02-1.247c-0.033-0.266-0.091-0.455-0.173-0.573
c-0.083-0.116-0.231-0.175-0.447-0.175h-0.609L61.439,55.667"/>
<path fill="none" stroke="#221E1F" stroke-width="0.3228" stroke-miterlimit="2.6131" d="M61.439,55.667h4.602l2.168,15.064
l0.745-9.201c0.064-0.787,0.084-1.279,0.062-1.478c-0.03-0.295-0.087-0.501-0.171-0.619c-0.082-0.116-0.258-0.175-0.524-0.175
h-0.555l0.291-3.592h4.721l-0.291,3.592h-0.519c-0.261,0-0.451,0.067-0.573,0.203c-0.122,0.137-0.215,0.32-0.277,0.556
c-0.063,0.234-0.125,0.739-0.188,1.517l-1.617,19.958h-2.34l-2.737-19.019l-1.076,13.284c-0.063,0.764-0.082,1.251-0.059,1.46
c0.023,0.21,0.083,0.376,0.179,0.498c0.096,0.124,0.273,0.185,0.532,0.185h0.545l-0.292,3.592h-4.72l0.291-3.592h0.487
c0.27,0,0.459-0.052,0.568-0.156s0.204-0.285,0.283-0.545c0.081-0.259,0.143-0.646,0.185-1.164l1.197-14.781
c0.046-0.566,0.053-0.982,0.02-1.247c-0.033-0.266-0.091-0.455-0.173-0.573c-0.083-0.116-0.231-0.175-0.447-0.175h-0.609
L61.439,55.667z"/>
<path fill="#FFFFFF" d="M73.262,55.667h5.649l-0.291,3.592h-0.428c-0.302,0-0.495,0.053-0.581,0.158
c-0.086,0.106-0.138,0.276-0.157,0.513c-0.025,0.318,0.024,0.796,0.152,1.433l1.083,5.564l2.146-5.799
c0.188-0.5,0.293-0.781,0.315-0.844c0.033-0.136,0.055-0.272,0.066-0.41c0.018-0.211-0.003-0.367-0.059-0.466
c-0.056-0.1-0.205-0.149-0.441-0.149h-0.604l0.292-3.592h4.52l-0.292,3.592c-0.386,0.012-0.667,0.117-0.838,0.314
c-0.172,0.196-0.396,0.671-0.674,1.423l-3.838,10.013l-0.372,4.601c-0.067,0.814-0.085,1.34-0.058,1.581
c0.027,0.24,0.091,0.418,0.195,0.535c0.102,0.117,0.318,0.175,0.646,0.175h0.402l-0.291,3.592h-5.569l0.291-3.592h0.299
c0.387,0,0.639-0.058,0.757-0.175c0.116-0.117,0.214-0.313,0.293-0.591c0.08-0.277,0.153-0.834,0.221-1.672l0.326-4.028
l-2.222-10.438c-0.169-0.813-0.331-1.325-0.489-1.535c-0.117-0.135-0.365-0.202-0.742-0.202L73.262,55.667"/>
<path fill="none" stroke="#221E1F" stroke-width="0.3228" stroke-miterlimit="2.6131" d="M73.262,55.667h5.649l-0.291,3.592h-0.428
c-0.302,0-0.495,0.053-0.581,0.158c-0.086,0.106-0.138,0.276-0.157,0.513c-0.025,0.318,0.024,0.796,0.152,1.433l1.083,5.564
l2.146-5.799c0.188-0.5,0.293-0.781,0.315-0.844c0.033-0.136,0.055-0.272,0.066-0.41c0.018-0.211-0.003-0.367-0.059-0.466
c-0.056-0.1-0.205-0.149-0.441-0.149h-0.604l0.292-3.592h4.52l-0.292,3.592c-0.386,0.012-0.667,0.117-0.838,0.314
c-0.172,0.196-0.396,0.671-0.674,1.423l-3.838,10.013l-0.372,4.601c-0.067,0.814-0.085,1.34-0.058,1.581
c0.027,0.24,0.091,0.418,0.195,0.535c0.102,0.117,0.318,0.175,0.646,0.175h0.402l-0.291,3.592h-5.569l0.291-3.592h0.299
c0.387,0,0.639-0.058,0.757-0.175c0.116-0.117,0.214-0.313,0.293-0.591c0.08-0.277,0.153-0.834,0.221-1.672l0.326-4.028
l-2.222-10.438c-0.168-0.813-0.331-1.325-0.489-1.535c-0.117-0.135-0.365-0.202-0.742-0.202L73.262,55.667z"/>
<path fill="#FFFFFF" d="M105.439,96.482h1.497l0.476,9.278l-2.07,0.999c-0.423-2.214-0.875-3.785-1.355-4.714
c-0.67-1.273-1.473-1.911-2.409-1.911c-0.684,0-1.356,0.335-2.022,1.002c-0.665,0.669-1.24,1.652-1.723,2.951
c-0.484,1.3-0.817,2.821-0.999,4.564c-0.278,2.661-0.118,4.949,0.481,6.866c0.599,1.919,1.547,2.878,2.842,2.878
c0.823,0,1.659-0.415,2.506-1.244c1.058-1.026,2.021-2.405,2.894-4.139l1.415,2.13c-1.328,2.543-2.483,4.313-3.466,5.313
c-1.518,1.542-3.11,2.313-4.776,2.313c-1.386,0-2.578-0.583-3.578-1.75c-0.999-1.167-1.723-2.801-2.172-4.899
c-0.449-2.101-0.543-4.391-0.284-6.873c0.258-2.47,0.817-4.72,1.68-6.752c0.862-2.03,1.913-3.614,3.153-4.75
c1.24-1.138,2.549-1.706,3.927-1.706c1.399,0,2.572,0.518,3.519,1.549L105.439,96.482"/>
<path fill="none" stroke="#221E1F" stroke-width="0.3228" stroke-miterlimit="2.6131" d="M105.439,96.482h1.497l0.476,9.278
l-2.07,0.999c-0.423-2.214-0.875-3.785-1.355-4.714c-0.67-1.273-1.473-1.911-2.409-1.911c-0.684,0-1.356,0.335-2.022,1.002
c-0.665,0.669-1.24,1.652-1.723,2.951c-0.484,1.3-0.817,2.821-0.999,4.564c-0.278,2.661-0.118,4.949,0.481,6.866
c0.599,1.919,1.547,2.878,2.842,2.878c0.823,0,1.659-0.415,2.506-1.244c1.058-1.026,2.021-2.405,2.894-4.139l1.415,2.13
c-1.328,2.543-2.483,4.313-3.466,5.313c-1.518,1.542-3.11,2.313-4.776,2.313c-1.386,0-2.578-0.583-3.577-1.75
s-1.723-2.801-2.172-4.899c-0.449-2.101-0.543-4.391-0.284-6.873c0.258-2.469,0.817-4.719,1.68-6.752
c0.862-2.03,1.913-3.614,3.153-4.75c1.24-1.138,2.549-1.706,3.927-1.706c1.399,0,2.572,0.518,3.519,1.549L105.439,96.482z"/>
<path fill="#FFFFFF" d="M73.167,96.859h12.244l0.817,8.243l-2.043,1.167c-0.186-1.2-0.388-2.106-0.606-2.719
c-0.219-0.612-0.501-1.122-0.847-1.531c-0.346-0.407-0.738-0.68-1.176-0.816c-0.295-0.086-0.828-0.129-1.598-0.129h-1.824
l-0.716,6.862h0.937c0.354,0,0.641-0.092,0.863-0.278c0.221-0.185,0.392-0.426,0.512-0.722c0.119-0.297,0.214-0.791,0.288-1.482
l0.143-1.371h1.896l-1.207,11.56h-1.896l0.173-1.662c0.051-0.479,0.062-0.831,0.036-1.053c-0.033-0.294-0.097-0.535-0.191-0.72
c-0.094-0.185-0.21-0.314-0.348-0.389c-0.138-0.072-0.397-0.11-0.781-0.11h-0.818l-0.566,5.426
c-0.068,0.654-0.083,1.096-0.046,1.323c0.038,0.229,0.121,0.398,0.247,0.51c0.125,0.111,0.385,0.166,0.777,0.166h0.589l-0.373,3.572
H70.47l0.372-3.572h0.479c0.531,0,0.893-0.12,1.084-0.361c0.191-0.24,0.326-0.726,0.401-1.455l1.553-14.865
c0.07-0.68,0.085-1.131,0.045-1.354c-0.042-0.223-0.129-0.39-0.267-0.501c-0.137-0.11-0.426-0.167-0.864-0.167h-0.479L73.167,96.859
"/>
<path fill="none" stroke="#221E1F" stroke-width="0.3228" stroke-miterlimit="2.6131" d="M73.167,96.859h12.244l0.817,8.243
l-2.043,1.167c-0.186-1.2-0.388-2.106-0.606-2.719c-0.219-0.612-0.501-1.122-0.847-1.531c-0.346-0.407-0.738-0.68-1.176-0.816
c-0.295-0.086-0.828-0.129-1.598-0.129h-1.824l-0.716,6.862h0.937c0.354,0,0.641-0.092,0.863-0.278
c0.221-0.185,0.392-0.426,0.512-0.722c0.119-0.297,0.214-0.791,0.288-1.482l0.143-1.371h1.896l-1.207,11.56h-1.896l0.173-1.662
c0.051-0.479,0.062-0.831,0.036-1.053c-0.033-0.294-0.097-0.535-0.191-0.72c-0.094-0.185-0.21-0.314-0.348-0.389
c-0.138-0.072-0.397-0.11-0.781-0.11h-0.819l-0.566,5.426c-0.068,0.654-0.083,1.096-0.046,1.323c0.038,0.229,0.121,0.398,0.247,0.51
s0.385,0.166,0.777,0.166h0.589l-0.373,3.572H70.47l0.372-3.572h0.479c0.531,0,0.893-0.12,1.084-0.361
c0.191-0.24,0.326-0.726,0.401-1.455l1.553-14.865c0.07-0.68,0.085-1.131,0.045-1.354c-0.041-0.223-0.129-0.39-0.267-0.501
c-0.137-0.11-0.426-0.167-0.864-0.167h-0.479L73.167,96.859z"/>
<path fill="#EE1B28" d="M87.548,13.326c0,0-3.373-0.969-3.421-5.327c-0.047-4.357,3.748-4.855,3.748-4.855s3.79,0.506,3.743,4.863
c-0.048,4.358-3.422,5.326-3.422,5.326L87.548,13.326"/>
<path fill="none" stroke="#221E1F" stroke-width="0.1614" stroke-miterlimit="2.6131" d="M87.548,13.326
c0,0-3.373-0.969-3.421-5.327c-0.047-4.357,3.748-4.855,3.748-4.855s3.79,0.506,3.743,4.863c-0.048,4.358-3.422,5.326-3.422,5.326
L87.548,13.326z"/>
<path fill="#EE1B28" d="M77.805,29.46c0,0,0.053-0.645-0.375-0.914c-0.429-0.27-0.912,0.107-0.912,0.107s-0.228-1.641-1.783-1.103
c-1.556,0.538-0.765,1.896-0.765,1.896s-0.67-0.027-0.791,0.538c-0.136,0.641,0.229,0.888,0.229,0.888S75.713,31.666,77.805,29.46"
/>
<path fill="none" stroke="#221E1F" stroke-width="0.1614" stroke-miterlimit="2.6131" d="M77.805,29.46c0,0,0.053-0.645-0.375-0.914
c-0.429-0.27-0.912,0.107-0.912,0.107s-0.228-1.641-1.783-1.103c-1.556,0.538-0.765,1.896-0.765,1.896s-0.67-0.027-0.791,0.538
c-0.136,0.641,0.229,0.888,0.229,0.888S75.713,31.666,77.805,29.46z"/>
<path fill="#EE1B28" d="M90.36,28.798v-2.774h0.724c0,0,0.332,0.427,1.157,0.427c0.613,0,1.548-0.735,1.548-2.028
c0-0.925-0.643-1.909-1.639-1.909c-0.926,0-1.126,0.486-1.126,0.486H90.36v-2.847h-5.067v2.847h-0.664c0,0-0.201-0.486-1.126-0.486
c-0.996,0-1.64,0.984-1.64,1.909c0,1.293,0.936,2.028,1.55,2.028c0.824,0,1.156-0.427,1.156-0.427h0.724v2.774H90.36"/>
<path fill="none" stroke="#221E1F" stroke-width="0.1614" stroke-miterlimit="2.6131" d="M90.36,28.799v-2.775h0.724
c0,0,0.332,0.427,1.157,0.427c0.613,0,1.548-0.735,1.548-2.028c0-0.925-0.643-1.909-1.639-1.909c-0.926,0-1.126,0.486-1.126,0.486
H90.36v-2.847h-5.067v2.847h-0.664c0,0-0.201-0.486-1.126-0.486c-0.996,0-1.64,0.984-1.64,1.909c0,1.293,0.936,2.028,1.549,2.028
c0.824,0,1.156-0.427,1.156-0.427h0.724v2.775H90.36z"/>
<path fill="#EE1B28" d="M88.13,20.69c0,0,1.002-0.591,1.002,0.378c0,0.86,2.793,2.259,4.164-0.108
c1.535-2.652,1.001-4.789-0.263-5.273c0,0,0.421,0.323,0.474-1.021c0.036-0.914,5.22-1.542,9.224,0
c4.156,1.599,7.102,5.809,7.222,6.778c0.316,2.583-0.496,2.332,1.529,3.121c2.899,1.13,0.685-1.775,5.797-2.959
c2.282-0.528,5.93,0.267,4.429,5.272c-0.791,2.637-7.538,8.984-7.538,8.984l3.531,2.853c0,0,4.48-2.745,7.169-7.21
c3.754-6.238,3.427-10.786-0.844-13.611c-4.796-3.176-10.173,0.86-10.173,0.86s-2.003-5.649-8.329-8.34
C99.236,7.74,94.351,9.661,94.351,9.661s1.423-1.399,1.423-3.39c0-3.874-1.845-4.412-1.845-4.412s-0.717,0.265-0.792,2.529
c-0.052,1.613-0.738,1.075-0.738,2.475c0,1.575-1.212,3.39-4.533,3.39h-0.031c-3.321,0-4.534-1.814-4.534-3.39
c0-1.399-0.686-0.861-0.738-2.475c-0.074-2.265-0.79-2.529-0.79-2.529s-1.845,0.538-1.845,4.412c0,1.99,1.423,3.39,1.423,3.39
s-4.885-1.921-11.175,0.753c-6.325,2.69-8.328,8.34-8.328,8.34s-5.376-4.036-10.174-0.86c-4.27,2.825-4.597,7.373-0.842,13.611
c2.688,4.465,7.169,7.21,7.169,7.21l3.531-2.853c0,0-6.747-6.348-7.538-8.984c-1.501-5.006,2.147-5.801,4.428-5.272
c5.113,1.184,2.9,4.089,5.798,2.959c2.025-0.789,1.212-0.538,1.528-3.121c0.119-0.97,3.066-5.18,7.221-6.778
c4.004-1.542,9.189-0.914,9.225,0c0.053,1.345,0.475,1.021,0.475,1.021c-1.265,0.484-1.799,2.621-0.264,5.273
c1.37,2.367,4.164,0.969,4.164,0.108c0-0.969,1.002-0.378,1.002-0.378H88.13"/>
<path fill="none" stroke="#221E1F" stroke-width="0.1614" stroke-miterlimit="2.6131" d="M88.13,20.69c0,0,1.002-0.591,1.002,0.378
c0,0.86,2.793,2.259,4.164-0.108c1.535-2.652,1.001-4.789-0.263-5.273c0,0,0.421,0.323,0.474-1.021c0.036-0.914,5.22-1.542,9.224,0
c4.156,1.599,7.103,5.809,7.222,6.778c0.316,2.583-0.496,2.332,1.529,3.121c2.899,1.13,0.685-1.775,5.797-2.959
c2.282-0.528,5.93,0.267,4.429,5.273c-0.791,2.636-7.538,8.983-7.538,8.983l3.531,2.853c0,0,4.48-2.745,7.169-7.21
c3.754-6.238,3.427-10.786-0.844-13.611c-4.796-3.176-10.172,0.86-10.172,0.86s-2.003-5.649-8.329-8.34
C99.236,7.74,94.351,9.661,94.351,9.661s1.423-1.399,1.423-3.39c0-3.874-1.845-4.412-1.845-4.412s-0.717,0.265-0.792,2.529
c-0.052,1.613-0.738,1.075-0.738,2.475c0,1.575-1.212,3.39-4.533,3.39h-0.031c-3.321,0-4.534-1.814-4.534-3.39
c0-1.399-0.686-0.861-0.738-2.475c-0.074-2.265-0.79-2.529-0.79-2.529s-1.845,0.538-1.845,4.412c0,1.99,1.423,3.39,1.423,3.39
s-4.885-1.921-11.175,0.753c-6.325,2.69-8.328,8.34-8.328,8.34s-5.376-4.036-10.174-0.86c-4.27,2.825-4.597,7.373-0.842,13.611
c2.688,4.465,7.169,7.21,7.169,7.21l3.531-2.853c0,0-6.747-6.348-7.538-8.983c-1.501-5.007,2.147-5.802,4.428-5.273
c5.113,1.184,2.9,4.089,5.798,2.959c2.025-0.789,1.212-0.538,1.528-3.121c0.119-0.97,3.066-5.18,7.221-6.778
c4.004-1.542,9.189-0.914,9.225,0c0.053,1.345,0.475,1.021,0.475,1.021c-1.265,0.484-1.799,2.621-0.264,5.273
c1.37,2.367,4.164,0.969,4.164,0.108c0-0.969,1.002-0.378,1.002-0.378H88.13z"/>
<path fill="#EE1B28" d="M98.041,29.38c0,0-0.053-0.646,0.375-0.915c0.429-0.27,0.912,0.108,0.912,0.108s0.228-1.642,1.784-1.104
c1.555,0.538,0.764,1.896,0.764,1.896s0.67-0.027,0.791,0.538c0.137,0.641-0.229,0.888-0.229,0.888S100.132,31.586,98.041,29.38"/>
<path fill="none" stroke="#221E1F" stroke-width="0.1614" stroke-miterlimit="2.6131" d="M98.041,29.38c0,0-0.053-0.646,0.375-0.915
c0.429-0.27,0.912,0.108,0.912,0.108s0.228-1.642,1.784-1.104c1.555,0.538,0.764,1.896,0.764,1.896s0.67-0.026,0.791,0.538
c0.137,0.641-0.229,0.888-0.229,0.888S100.132,31.586,98.041,29.38z"/>
<path fill="#EE1B28" d="M107.563,33.263l1.59,0.105l1.526-2.688c0,0,2.026,2.158,3.185-0.206c1.126-2.299-1.501-2.738-1.501-2.738
s2.109-2.101-0.017-3.502l-1.159-0.442c-2.455-0.667-2.624,2.311-2.624,2.311s-2.07-1.682-3.039,0.688
c-0.997,2.438,1.958,2.528,1.958,2.528l-0.994,2.93L107.563,33.263"/>
<path fill="none" stroke="#221E1F" stroke-width="0.1614" stroke-miterlimit="2.6131" d="M107.563,33.263l1.59,0.106l1.526-2.689
c0,0,2.026,2.158,3.185-0.206c1.126-2.299-1.501-2.738-1.501-2.738s2.109-2.101-0.017-3.502l-1.159-0.442
c-2.455-0.667-2.624,2.311-2.624,2.311s-2.07-1.682-3.039,0.688c-0.997,2.438,1.958,2.529,1.958,2.529l-0.994,2.929L107.563,33.263z
"/>
<path fill="#EE1B28" d="M68.114,33.424l-1.59,0.106l-1.527-2.688c0,0-2.026,2.157-3.185-0.207c-1.125-2.299,1.501-2.737,1.501-2.737
s-2.109-2.102,0.017-3.503l1.159-0.442c2.455-0.667,2.623,2.311,2.623,2.311s2.071-1.682,3.04,0.688
c0.996,2.438-1.959,2.528-1.959,2.528l0.994,2.929L68.114,33.424"/>
<path fill="none" stroke="#221E1F" stroke-width="0.1614" stroke-miterlimit="2.6131" d="M68.114,33.424l-1.59,0.106l-1.527-2.688
c0,0-2.026,2.157-3.185-0.207c-1.125-2.299,1.501-2.737,1.501-2.737s-2.109-2.102,0.017-3.503l1.159-0.442
c2.455-0.667,2.623,2.311,2.623,2.311s2.071-1.682,3.04,0.688c0.996,2.438-1.959,2.528-1.959,2.528l0.994,2.93L68.114,33.424z"/>
<path fill="#EE1B28" d="M87.9,36.858c10.782,0,20.941,3.596,28.724,8.231c2.575,1.534,3.138,1.211,3.138-1.855
c0-3.47,0.493-5.115-2.172-6.779c-5.257-3.282-17.218-7.99-29.367-7.937h-0.71c-12.149-0.054-24.11,4.654-29.367,7.937
c-2.665,1.664-2.172,3.31-2.172,6.779c0,3.066,0.563,3.39,3.138,1.855c7.783-4.636,17.942-8.231,28.724-8.231H87.9"/>
<path fill="none" stroke="#221E1F" stroke-width="0.1614" stroke-miterlimit="2.6131" d="M87.9,36.858
c10.782,0,20.941,3.596,28.724,8.231c2.575,1.534,3.138,1.211,3.138-1.855c0-3.47,0.493-5.115-2.172-6.779
c-5.256-3.282-17.218-7.99-29.367-7.936h-0.709c-12.149-0.055-24.111,4.653-29.368,7.936c-2.665,1.664-2.172,3.31-2.172,6.779
c0,3.066,0.563,3.39,3.138,1.855c7.783-4.636,17.942-8.231,28.724-8.231H87.9z"/>
<polyline fill="#EE1B28" points="51.686,44.176 49.757,46.014 43.607,44.619 47.232,48.421 45.29,50.272 38.746,43.409 
40.688,41.558 46.804,42.943 43.201,39.163 45.142,37.312 51.686,44.176 "/>
<polyline fill="#EE1B28" points="45.055,50.433 43.206,52.955 39.537,52.551 41.024,55.929 39.186,58.438 36.841,52.315 
33.638,49.967 35.308,47.688 38.511,50.037 45.055,50.433 "/>
<polyline fill="#EE1B28" points="38.887,58.994 37.508,61.46 29.232,56.83 30.611,54.365 38.887,58.994 "/>
<path fill="#EE1B28" d="M38.999,59.379c0,0,2.19,0.15,1.697,1.67c-0.493,1.52,0.534,2.313,0.534,2.313s-2.766-0.206-2.23-1.548
C39.673,60.118,38.999,59.379,38.999,59.379"/>
<path fill="#EE1B28" d="M34.84,108.677c0,0,1.923-1.059,2.332,0.486c0.409,1.544,1.702,1.655,1.702,1.655s-2.437,1.325-2.714-0.092
C35.809,108.934,34.84,108.677,34.84,108.677"/>
<path fill="#EE1B28" d="M32.544,63.456l-0.471,1.107c-0.052,0.119-0.111,0.368-0.179,0.746c-0.039,0.189-0.008,0.369,0.091,0.542
c0.098,0.172,0.243,0.299,0.432,0.379c0.28,0.119,0.532,0.124,0.755,0.015c0.225-0.11,0.439-0.405,0.643-0.884l0.492-1.154
L32.544,63.456 M28.469,58.606l8.724,3.716l-1.863,4.375c-0.346,0.812-0.682,1.401-1.006,1.769
c-0.325,0.367-0.738,0.602-1.235,0.699c-0.499,0.099-1.026,0.029-1.58-0.207c-0.484-0.206-0.857-0.484-1.123-0.835
c-0.264-0.352-0.431-0.751-0.498-1.196c-0.043-0.285-0.026-0.643,0.049-1.073c-0.241,0.265-0.445,0.445-0.614,0.542
c-0.112,0.066-0.325,0.141-0.64,0.223c-0.313,0.082-0.546,0.128-0.7,0.135l-3.073,0.206l1.264-2.969l3.267-0.264
c0.421-0.03,0.713-0.093,0.875-0.188c0.216-0.131,0.375-0.316,0.477-0.556l0.099-0.23l-3.546-1.511L28.469,58.606z"/>
<polyline fill="#EE1B28" points="33.8,70.447 31.884,77.851 29.931,77.345 31.129,72.716 29.684,72.342 28.572,76.639 
26.696,76.153 27.809,71.856 25.992,71.387 24.758,76.152 22.668,75.611 24.62,68.071 33.8,70.447 "/>
<polyline fill="#EE1B28" points="30.682,86.83 30.875,89.994 27.803,92.048 31.101,93.713 31.293,96.859 25.574,93.609 
21.61,93.852 21.436,90.992 25.399,90.75 30.682,86.83 "/>
<polyline fill="#EE1B28" points="31.398,97.345 32.002,100.146 28.748,100.848 29.402,103.885 32.656,103.183 33.26,105.983 
23.991,107.982 23.387,105.182 27.134,104.373 26.479,101.337 22.732,102.145 22.128,99.344 31.398,97.345 "/>
<path fill="#EE1B28" d="M29.72,113.122l2.803-2.17l-3.532,0.301L29.72,113.122 M28.022,114.432l-1.169-2.995l-1.635,0.139
l-1.06-2.72l10.088-0.231l1.14,2.924l-7.578,6.668l-1.085-2.784L28.022,114.432z"/>
<polyline fill="#EE1B28" points="36.458,114.158 40.722,121.011 39.118,122.009 31.665,120.546 34.496,125.098 32.765,126.174 
28.141,118.738 29.81,117.699 37.186,119.147 34.745,115.224 36.458,114.158 "/>
<path fill="#EE1B28" d="M39.81,129.061l1.997-2.928l-3.267,1.375L39.81,129.061 M38.597,130.829l-2.035-2.488l-1.512,0.637
l-1.848-2.259l9.525-3.333l1.986,2.43l-5.15,8.681l-1.892-2.313L38.597,130.829z"/>
<path fill="#EE1B28" d="M45.08,135.34l2.235,1.566c-0.238,0.391-0.361,0.735-0.368,1.034c-0.012,0.482,0.195,0.896,0.62,1.235
c0.317,0.254,0.624,0.373,0.918,0.358c0.293-0.017,0.522-0.124,0.683-0.326c0.154-0.191,0.21-0.428,0.169-0.71
c-0.042-0.281-0.308-0.729-0.797-1.343c-0.799-1.011-1.257-1.868-1.375-2.577c-0.121-0.71,0.052-1.356,0.516-1.936
c0.305-0.381,0.701-0.654,1.188-0.821c0.485-0.166,1.023-0.173,1.611-0.021c0.586,0.152,1.257,0.529,2.009,1.132
c0.924,0.74,1.486,1.479,1.689,2.22c0.203,0.739,0.043,1.53-0.48,2.371l-2.194-1.553c0.208-0.375,0.281-0.71,0.221-1.004
c-0.06-0.295-0.249-0.568-0.565-0.823c-0.262-0.209-0.504-0.311-0.727-0.304c-0.222,0.007-0.397,0.091-0.527,0.252
c-0.094,0.118-0.125,0.268-0.091,0.449c0.027,0.182,0.205,0.474,0.531,0.874c0.803,0.996,1.327,1.773,1.574,2.332
c0.246,0.559,0.333,1.077,0.264,1.558c-0.068,0.479-0.264,0.921-0.588,1.324c-0.378,0.475-0.858,0.809-1.434,1.003
c-0.577,0.194-1.178,0.211-1.802,0.05c-0.625-0.162-1.288-0.523-1.987-1.084c-1.227-0.983-1.884-1.906-1.969-2.77
C44.319,136.965,44.544,136.136,45.08,135.34"/>
<path fill="#EE1B28" d="M64.545,146.668l0.323-3.53l-2.187,2.789L64.545,146.668 M64.346,148.802l-2.988-1.187l-1.013,1.291
l-2.712-1.077l6.707-7.539l2.917,1.158l-0.286,10.09l-2.777-1.104L64.346,148.802z"/>
<path fill="#EE1B28" d="M56.619,140.847l0.606,0.352c0.477,0.276,0.861,0.386,1.154,0.328c0.292-0.059,0.514-0.22,0.668-0.485
c0.149-0.257,0.192-0.524,0.128-0.801c-0.063-0.276-0.327-0.55-0.789-0.817l-0.706-0.409L56.619,140.847 M56.174,135.9l4.11,2.383
c0.895,0.52,1.438,1.127,1.63,1.823c0.192,0.694,0.055,1.446-0.413,2.253c-0.481,0.829-1.101,1.336-1.857,1.521
c-0.757,0.186-1.635-0.012-2.632-0.591l-1.355-0.786l-1.761,3.037l-2.479-1.437L56.174,135.9z"/>
<path fill="#EE1B28" d="M71.638,146.741l1.171,0.276c0.126,0.03,0.383,0.047,0.766,0.05c0.193,0.005,0.366-0.055,0.518-0.182
c0.153-0.128,0.253-0.29,0.301-0.491c0.07-0.296,0.032-0.546-0.114-0.747c-0.147-0.202-0.474-0.363-0.981-0.483l-1.221-0.288
L71.638,146.741 M67.549,151.58l2.182-9.229l4.628,1.094c0.858,0.202,1.496,0.433,1.914,0.692c0.418,0.257,0.717,0.624,0.899,1.099
c0.181,0.474,0.202,1.005,0.063,1.592c-0.121,0.511-0.332,0.927-0.632,1.247c-0.302,0.321-0.667,0.553-1.094,0.694
c-0.274,0.091-0.629,0.135-1.066,0.133c0.303,0.192,0.515,0.363,0.639,0.513c0.083,0.101,0.192,0.299,0.327,0.593
c0.134,0.294,0.218,0.518,0.251,0.668l0.725,2.993l-3.141-0.742l-0.813-3.175c-0.102-0.41-0.213-0.688-0.333-0.831
c-0.167-0.19-0.376-0.314-0.628-0.375l-0.246-0.058l-0.887,3.751L67.549,151.58z"/>
<polyline fill="#EE1B28" points="78.039,144.373 86.682,145.129 86.479,147.461 83.584,147.208 82.962,154.323 80.108,154.073 
80.729,146.958 77.835,146.706 78.039,144.373 "/>
<path fill="#EE1B28" d="M90.81,150.698l-1.044-3.388l-0.962,3.411L90.81,150.698 M91.438,152.748l-3.215,0.039l-0.445,1.58
l-2.918,0.035l3.334-9.524l3.139-0.039l3.573,9.44l-2.987,0.036L91.438,152.748z"/>
<path fill="#EE1B28" d="M100.751,149.214l2.596,0.365c-0.05,0.739-0.213,1.378-0.492,1.914c-0.278,0.537-0.662,0.969-1.151,1.299
c-0.489,0.33-1.143,0.563-1.96,0.696c-0.992,0.164-1.827,0.149-2.505-0.043c-0.677-0.192-1.305-0.622-1.884-1.292
c-0.578-0.668-0.963-1.584-1.155-2.745c-0.254-1.547-0.048-2.803,0.62-3.766c0.667-0.964,1.736-1.566,3.207-1.809
c1.151-0.189,2.095-0.099,2.833,0.271c0.736,0.369,1.346,1.021,1.829,1.958l-2.395,0.978c-0.135-0.271-0.261-0.464-0.378-0.58
c-0.194-0.194-0.416-0.333-0.665-0.415c-0.249-0.08-0.514-0.099-0.797-0.053c-0.641,0.106-1.089,0.45-1.344,1.032
c-0.194,0.434-0.223,1.068-0.084,1.904c0.17,1.036,0.44,1.721,0.812,2.054c0.371,0.333,0.833,0.455,1.392,0.363
c0.54-0.089,0.922-0.313,1.146-0.67C100.598,150.317,100.724,149.829,100.751,149.214"/>
<path fill="#EE1B28" d="M108.34,141.293l2.696-0.907l1.802,5.354c0.178,0.53,0.266,1.06,0.264,1.585
c-0.003,0.526-0.116,1.024-0.342,1.493c-0.226,0.47-0.503,0.839-0.834,1.109c-0.458,0.377-1.056,0.689-1.792,0.937
c-0.427,0.144-0.902,0.271-1.426,0.378c-0.525,0.109-0.987,0.129-1.387,0.062c-0.4-0.067-0.797-0.223-1.189-0.463
c-0.394-0.24-0.702-0.521-0.926-0.842c-0.36-0.516-0.613-0.993-0.762-1.434l-1.801-5.355l2.696-0.906l1.842,5.477
c0.165,0.488,0.427,0.827,0.785,1.013c0.358,0.187,0.773,0.199,1.245,0.041c0.467-0.157,0.788-0.416,0.962-0.776
s0.178-0.79,0.011-1.288L108.34,141.293"/>
<path fill="#EE1B28" d="M25.251,82.445l1.968,0.19l-0.427,4.398l-4.022-0.391c-0.507-0.899-0.835-1.683-0.985-2.35
c-0.149-0.668-0.182-1.446-0.096-2.334c0.106-1.092,0.383-1.965,0.833-2.616c0.449-0.652,1.07-1.131,1.862-1.438
c0.792-0.306,1.677-0.41,2.656-0.314c1.029,0.099,1.906,0.394,2.627,0.883c0.722,0.488,1.241,1.152,1.558,1.991
c0.245,0.653,0.315,1.508,0.213,2.564c-0.098,1.018-0.267,1.77-0.504,2.256c-0.238,0.488-0.571,0.878-1,1.172
c-0.429,0.296-0.957,0.497-1.581,0.605l-0.237-2.8c0.368-0.079,0.66-0.244,0.876-0.495c0.215-0.252,0.343-0.588,0.384-1.006
c0.06-0.623-0.114-1.143-0.522-1.556c-0.409-0.414-1.094-0.667-2.055-0.761c-1.023-0.1-1.771,0.017-2.245,0.35
c-0.475,0.333-0.745,0.834-0.809,1.506c-0.031,0.318-0.013,0.626,0.052,0.925c0.067,0.299,0.194,0.646,0.385,1.04l0.884,0.086
L25.251,82.445"/>
<path fill="#EE1B28" d="M114.114,145.778l2.313-1.449c0.267,0.372,0.537,0.619,0.809,0.742c0.44,0.198,0.9,0.169,1.379-0.091
c0.358-0.192,0.587-0.428,0.688-0.705c0.1-0.277,0.089-0.529-0.034-0.757c-0.117-0.216-0.313-0.36-0.588-0.432
c-0.277-0.071-0.792-0.001-1.548,0.212c-1.241,0.343-2.21,0.431-2.908,0.263c-0.702-0.165-1.23-0.574-1.583-1.229
c-0.232-0.429-0.33-0.899-0.293-1.413c0.036-0.513,0.238-1.01,0.607-1.492c0.369-0.481,0.977-0.951,1.825-1.41
c1.041-0.562,1.941-0.793,2.702-0.692c0.76,0.102,1.426,0.556,1.998,1.364l-2.285,1.417c-0.264-0.336-0.543-0.535-0.838-0.594
c-0.295-0.061-0.621,0.007-0.979,0.2c-0.295,0.159-0.482,0.343-0.562,0.551c-0.082,0.207-0.072,0.402,0.026,0.584
c0.072,0.133,0.198,0.22,0.379,0.259c0.178,0.045,0.516-0.005,1.011-0.15c1.231-0.352,2.151-0.532,2.762-0.542
c0.609-0.008,1.122,0.112,1.538,0.362c0.415,0.251,0.746,0.603,0.992,1.058c0.289,0.534,0.411,1.104,0.365,1.711
c-0.044,0.607-0.264,1.167-0.655,1.68s-0.982,0.983-1.771,1.409c-1.384,0.748-2.489,0.994-3.318,0.735
C115.316,147.112,114.639,146.582,114.114,145.778"/>
<polyline fill="#EE1B28" points="121.296,134.094 126.71,129.56 128.018,131.123 124.801,133.816 125.863,135.086 128.616,132.779 
129.847,134.249 127.093,136.555 129.58,139.525 127.382,141.364 121.296,134.094 "/>
<path fill="#EE1B28" d="M132.16,130.809c0.709,0.642,1.335,0.974,1.876,0.997c0.542,0.022,1.013-0.188,1.411-0.628
c0.41-0.454,0.576-0.942,0.497-1.466c-0.079-0.523-0.512-1.14-1.298-1.85c-0.661-0.598-1.262-0.904-1.802-0.92
c-0.539-0.016-1.011,0.199-1.412,0.645c-0.386,0.425-0.54,0.908-0.462,1.445C131.048,129.571,131.444,130.163,132.16,130.809
M130.233,132.93c-1.149-1.038-1.763-2.157-1.838-3.36c-0.077-1.202,0.388-2.36,1.394-3.476c1.031-1.142,2.141-1.738,3.328-1.788
c1.187-0.051,2.346,0.435,3.48,1.457c0.823,0.744,1.375,1.487,1.658,2.232c0.282,0.745,0.339,1.506,0.172,2.281
c-0.168,0.774-0.595,1.543-1.284,2.304c-0.698,0.775-1.403,1.302-2.115,1.58c-0.711,0.279-1.482,0.33-2.314,0.151
C131.882,134.132,131.056,133.672,130.233,132.93z"/>
<path fill="#EE1B28" d="M138.788,122.478c0.803,0.519,1.475,0.744,2.013,0.68c0.539-0.064,0.969-0.348,1.291-0.848
c0.331-0.515,0.415-1.023,0.253-1.526c-0.163-0.505-0.689-1.043-1.581-1.615c-0.749-0.483-1.391-0.688-1.926-0.616
c-0.535,0.071-0.965,0.359-1.29,0.863c-0.311,0.483-0.385,0.983-0.221,1.502C137.49,121.436,137.977,121.956,138.788,122.478
M137.229,124.882c-1.301-0.837-2.088-1.843-2.358-3.018c-0.27-1.174,0.001-2.393,0.815-3.655c0.833-1.295,1.831-2.063,2.994-2.305
s2.386,0.051,3.669,0.877c0.933,0.6,1.599,1.244,1.998,1.934c0.399,0.69,0.58,1.431,0.538,2.223
c-0.04,0.792-0.337,1.619-0.893,2.482c-0.565,0.877-1.175,1.511-1.832,1.901s-1.409,0.564-2.259,0.523
C139.052,125.803,138.161,125.481,137.229,124.882z"/>
<polyline fill="#EE1B28" points="138.336,114.592 141.547,106.532 143.721,107.398 142.646,110.098 149.282,112.741 
148.221,115.401 141.585,112.759 140.51,115.458 138.336,114.592 "/>
<path fill="#EE1B28" d="M149.526,104.941l0.327-1.422c0.111-0.48,0.102-0.839-0.027-1.076c-0.128-0.236-0.339-0.389-0.634-0.456
c-0.272-0.063-0.514-0.017-0.724,0.142c-0.211,0.156-0.373,0.479-0.485,0.968l-0.325,1.415L149.526,104.941 M145.889,104.105
l0.279-1.216c0.101-0.435,0.094-0.755-0.021-0.961c-0.114-0.206-0.316-0.342-0.605-0.408c-0.269-0.063-0.498-0.024-0.688,0.11
c-0.19,0.136-0.333,0.415-0.431,0.838l-0.284,1.233L145.889,104.105z M141.624,106.084l1.201-5.221
c0.201-0.87,0.575-1.488,1.124-1.852c0.548-0.365,1.147-0.473,1.798-0.323c0.547,0.126,0.977,0.399,1.29,0.822
c0.21,0.281,0.341,0.653,0.394,1.115c0.308-0.61,0.693-1.021,1.152-1.237c0.458-0.216,0.982-0.256,1.571-0.12
c0.479,0.109,0.885,0.317,1.218,0.623c0.333,0.306,0.567,0.673,0.703,1.101c0.084,0.267,0.105,0.643,0.059,1.129
c-0.061,0.646-0.114,1.072-0.161,1.278l-1.107,4.811L141.624,106.084z"/>
<path fill="#EE1B28" d="M149.861,93.05l-3.472,0.716l3.305,1.283L149.861,93.05 M151.963,92.62l-0.27,3.205l1.53,0.594l-0.244,2.909
l-9.162-4.229l0.261-3.129l9.739-2.655l-0.249,2.978L151.963,92.62z"/>
<polyline fill="#EE1B28" points="144.22,88.74 144.086,85.878 151.221,85.545 151.013,81.091 153.35,80.982 153.692,88.299 
144.22,88.74 "/>
<polyline fill="#EE1B28" points="143.795,81.067 143.276,78.249 150.3,76.953 149.492,72.568 151.792,72.144 153.122,79.347 
143.795,81.067 "/>
<path fill="#EE1B28" d="M144.355,62.406l-0.184-2.615c0.733-0.105,1.391-0.078,1.973,0.082c0.583,0.16,1.087,0.445,1.511,0.854
c0.426,0.411,0.789,1.001,1.09,1.773c0.367,0.936,0.527,1.756,0.48,2.458c-0.047,0.703-0.337,1.407-0.871,2.112
c-0.533,0.706-1.348,1.272-2.444,1.702c-1.459,0.571-2.732,0.631-3.812,0.179c-1.082-0.45-1.895-1.371-2.437-2.759
c-0.425-1.087-0.534-2.028-0.327-2.826c0.208-0.797,0.719-1.53,1.535-2.198l1.454,2.14c-0.236,0.188-0.398,0.351-0.487,0.49
c-0.151,0.23-0.24,0.477-0.268,0.736c-0.027,0.26,0.011,0.523,0.115,0.791c0.236,0.604,0.667,0.972,1.289,1.099
c0.464,0.1,1.09-0.006,1.88-0.313c0.978-0.383,1.59-0.79,1.84-1.222c0.249-0.433,0.27-0.912,0.065-1.437
c-0.2-0.51-0.498-0.837-0.896-0.982C145.466,62.325,144.963,62.304,144.355,62.406"/>
<polyline fill="#EE1B28" points="137.978,61.965 136.488,59.518 142.589,55.803 140.27,51.995 142.269,50.778 146.078,57.033 
137.978,61.965 "/>
<path fill="#EE1B28" d="M130.526,51.15l-1.805-2.199l4.367-3.584c0.433-0.355,0.896-0.626,1.389-0.81
c0.493-0.185,0.999-0.254,1.518-0.21c0.52,0.045,0.963,0.174,1.333,0.388c0.515,0.294,1.019,0.742,1.513,1.343
c0.286,0.349,0.572,0.748,0.858,1.199c0.288,0.452,0.471,0.878,0.549,1.275c0.078,0.397,0.075,0.823-0.01,1.276
c-0.085,0.453-0.238,0.841-0.458,1.163c-0.355,0.519-0.711,0.927-1.071,1.222l-4.368,3.584l-1.805-2.2l4.467-3.665
c0.399-0.327,0.623-0.692,0.669-1.093c0.047-0.401-0.088-0.794-0.404-1.178c-0.313-0.382-0.668-0.59-1.067-0.625
c-0.399-0.035-0.802,0.113-1.208,0.446L130.526,51.15"/>
<path fill="#EE1B28" d="M130.759,40.938l-1.098-0.96c-0.372-0.324-0.691-0.486-0.961-0.485c-0.269,0.002-0.503,0.115-0.702,0.343
c-0.184,0.21-0.256,0.445-0.218,0.704c0.038,0.26,0.246,0.555,0.624,0.886l1.092,0.956L130.759,40.938 M128.301,43.749l-0.938-0.82
c-0.337-0.296-0.622-0.44-0.857-0.438c-0.235,0.004-0.451,0.117-0.647,0.341c-0.181,0.207-0.257,0.427-0.228,0.659
c0.03,0.231,0.208,0.491,0.535,0.777l0.952,0.832L128.301,43.749z M128.027,48.441l-4.031-3.527
c-0.672-0.588-1.039-1.209-1.101-1.865c-0.062-0.655,0.127-1.234,0.567-1.736c0.369-0.422,0.813-0.672,1.334-0.748
c0.348-0.052,0.737,0.008,1.169,0.18c-0.392-0.56-0.574-1.094-0.545-1.6c0.027-0.506,0.24-0.987,0.637-1.441
c0.325-0.37,0.699-0.63,1.126-0.777c0.427-0.149,0.86-0.182,1.302-0.099c0.275,0.051,0.615,0.211,1.022,0.48
c0.541,0.359,0.892,0.609,1.05,0.747l3.714,3.251L128.027,48.441z"/>
</svg>
