<svg xmlns="http://www.w3.org/2000/svg" xmlns:svg="http://www.w3.org/2000/svg" version="1.1" id="svg1" width="333.3333333333333" height="300.0" viewBox="0 0 499.99999 450">
  <defs id="defs1">
    <clipPath clipPathUnits="userSpaceOnUse" id="clipPath2">
      <path d="M 0,600 H 800 V 0 H 0 Z" transform="translate(-569.37701,-265.91211)" id="path2"/>
    </clipPath>
    <clipPath clipPathUnits="userSpaceOnUse" id="clipPath4">
      <path d="M 0,600 H 800 V 0 H 0 Z" transform="translate(-400.00201,-338.10011)" id="path4"/>
    </clipPath>
    <clipPath clipPathUnits="userSpaceOnUse" id="clipPath6">
      <path d="M 0,600 H 800 V 0 H 0 Z" transform="translate(-457.91411,-364.84671)" id="path6"/>
    </clipPath>
    <clipPath clipPathUnits="userSpaceOnUse" id="clipPath8">
      <path d="M 0,600 H 800 V 0 H 0 Z" transform="translate(-304.65971,-259.6387)" id="path8"/>
    </clipPath>
    <clipPath clipPathUnits="userSpaceOnUse" id="clipPath10">
      <path d="M 0,600 H 800 V 0 H 0 Z" transform="translate(-448.48831,-198.19341)" id="path10"/>
    </clipPath>
    <clipPath clipPathUnits="userSpaceOnUse" id="clipPath12">
      <path d="M 0,600 H 800 V 0 H 0 Z" transform="translate(-566.48632,-263.13961)" id="path12"/>
    </clipPath>
    <clipPath clipPathUnits="userSpaceOnUse" id="clipPath14">
      <path d="M 0,600 H 800 V 0 H 0 Z" transform="translate(-296.06841,-241.65231)" id="path14"/>
    </clipPath>
    <clipPath clipPathUnits="userSpaceOnUse" id="clipPath16">
      <path d="M 0,600 H 800 V 0 H 0 Z" transform="translate(-309.56301,-239.0566)" id="path16"/>
    </clipPath>
    <clipPath clipPathUnits="userSpaceOnUse" id="clipPath18">
      <path d="M 0,600 H 800 V 0 H 0 Z" transform="translate(-322.76171,-236.74611)" id="path18"/>
    </clipPath>
    <clipPath clipPathUnits="userSpaceOnUse" id="clipPath20">
      <path d="M 0,600 H 800 V 0 H 0 Z" transform="translate(-342.00681,-227.9551)" id="path20"/>
    </clipPath>
    <clipPath clipPathUnits="userSpaceOnUse" id="clipPath22">
      <path d="M 0,600 H 800 V 0 H 0 Z" transform="translate(-352.68211,-221.59771)" id="path22"/>
    </clipPath>
    <clipPath clipPathUnits="userSpaceOnUse" id="clipPath24">
      <path d="M 0,600 H 800 V 0 H 0 Z" transform="translate(-359.80661,-220.97461)" id="path24"/>
    </clipPath>
    <clipPath clipPathUnits="userSpaceOnUse" id="clipPath26">
      <path d="M 0,600 H 800 V 0 H 0 Z" transform="translate(-376.59621,-231.34371)" id="path26"/>
    </clipPath>
    <clipPath clipPathUnits="userSpaceOnUse" id="clipPath28">
      <path d="M 0,600 H 800 V 0 H 0 Z" transform="translate(-390.92431,-228.25)" id="path28"/>
    </clipPath>
    <clipPath clipPathUnits="userSpaceOnUse" id="clipPath30">
      <path d="M 0,600 H 800 V 0 H 0 Z" transform="translate(-414.50201,-231.24411)" id="path30"/>
    </clipPath>
    <clipPath clipPathUnits="userSpaceOnUse" id="clipPath32">
      <path d="M 0,600 H 800 V 0 H 0 Z" transform="translate(-430.07321,-231.91021)" id="path32"/>
    </clipPath>
    <clipPath clipPathUnits="userSpaceOnUse" id="clipPath34">
      <path d="M 0,600 H 800 V 0 H 0 Z" transform="translate(-432.63091,-220.41211)" id="path34"/>
    </clipPath>
    <clipPath clipPathUnits="userSpaceOnUse" id="clipPath36">
      <path d="M 0,600 H 800 V 0 H 0 Z" transform="translate(-450.67191,-231.63961)" id="path36"/>
    </clipPath>
    <clipPath clipPathUnits="userSpaceOnUse" id="clipPath38">
      <path d="M 0,600 H 800 V 0 H 0 Z" transform="translate(-451.47751,-221.98831)" id="path38"/>
    </clipPath>
    <clipPath clipPathUnits="userSpaceOnUse" id="clipPath40">
      <path d="M 0,600 H 800 V 0 H 0 Z" transform="translate(-468.20311,-235.41991)" id="path40"/>
    </clipPath>
    <clipPath clipPathUnits="userSpaceOnUse" id="clipPath42">
      <path d="M 0,600 H 800 V 0 H 0 Z" transform="translate(-488.02641,-237.16801)" id="path42"/>
    </clipPath>
    <clipPath clipPathUnits="userSpaceOnUse" id="clipPath44">
      <path d="M 0,600 H 800 V 0 H 0 Z" transform="translate(-493.26561,-229.459)" id="path44"/>
    </clipPath>
    <clipPath clipPathUnits="userSpaceOnUse" id="clipPath46">
      <path d="M 0,600 H 800 V 0 H 0 Z" transform="translate(-502.93651,-239.40231)" id="path46"/>
    </clipPath>
    <clipPath clipPathUnits="userSpaceOnUse" id="clipPath48">
      <path d="M 0,600 H 800 V 0 H 0 Z" transform="translate(-509.98541,-232.89751)" id="path48"/>
    </clipPath>
  </defs>
  <g id="layer-MC0" transform="translate(6.6180149e-6,0.00146079)">
    <path id="path1" d="m 0,0 -14.667,15.291 14.037,15.687 6.354,7.099 -9.518,-0.428 c -1.301,-0.059 -29.417,-1.448 -52.695,-12.147 0.103,1.424 0.137,2.444 0.149,3.021 l 0.001,0.041 v 0.045 l 0.002,0.073 v 136.125 9.218 l -6.659,-6.218 c -0.407,-0.335 -8.66,-6.885 -27.63,-6.885 -41.962,0 -76.546,17.838 -76.89,18.018 l -1.856,0.971 -1.86,-0.971 c -0.345,-0.18 -34.927,-18.018 -76.89,-18.018 -18.97,0 -27.223,6.55 -27.63,6.885 l -6.722,6.276 0.063,-9.276 V 28.682 28.635 l 0.003,-0.074 0.001,-0.044 c 0.011,-0.578 0.046,-1.596 0.149,-3.015 -23.277,10.699 -51.395,12.088 -52.696,12.147 l -9.517,0.428 6.353,-7.099 14.037,-15.687 L -338.748,0 l -7.306,-7.617 10.528,0.854 c 0.009,0.001 0.957,0.076 2.605,0.076 6.954,0 24.535,-1.272 40.884,-12.752 v -18.653 c -0.29,-2.332 0.258,-8.355 12.135,-12.576 0.768,-0.273 1.601,-0.584 2.512,-0.922 6.231,-2.31 16.563,-6.144 34.949,-9.185 5.781,-5.731 12.147,-10.926 18.94,-15.45 l 51.931,-34.068 2.196,-1.441 2.196,1.441 51.908,34.053 c 6.816,4.539 13.183,9.734 18.963,15.465 18.386,3.041 28.719,6.875 34.949,9.185 0.912,0.338 1.745,0.649 2.514,0.922 11.874,4.221 12.423,10.244 12.133,12.576 v 18.653 c 16.349,11.48 33.93,12.752 40.885,12.752 1.648,0 2.596,-0.075 2.604,-0.076 L 7.3,-7.617 Z" style="fill:#9cbcda;fill-opacity:1;fill-rule:nonzero;stroke:none" transform="matrix(1.3333333,0,0,-1.3333333,476.64144,270.97717)" clip-path="url(#clipPath2)"/>
    <path id="path3" d="M 0,0 -28.014,-19.492 -18.13,13.174 -45.329,33.791 -11.206,34.49 0,66.731 11.205,34.49 45.33,33.791 18.132,13.174 28.016,-19.492 Z" style="fill:#630636;fill-opacity:1;fill-rule:nonzero;stroke:none" transform="matrix(1.3333333,0,0,-1.3333333,250.80811,174.72651)" clip-path="url(#clipPath4)"/>
    <path id="path5" d="m 0,0 c 0.385,-2.702 0.595,-5.464 0.595,-8.28 0,-32.308 -26.193,-58.507 -58.506,-58.507 -32.313,0 -58.506,26.199 -58.506,58.507 0,2.816 0.211,5.578 0.596,8.28 -5.961,-10.042 -9.392,-21.757 -9.392,-34.281 0,-37.168 30.133,-67.3 67.302,-67.3 37.169,0 67.303,30.132 67.303,67.3 C 9.392,-21.757 5.959,-10.042 0,0" style="fill:#630636;fill-opacity:1;fill-rule:nonzero;stroke:none" transform="matrix(1.3333333,0,0,-1.3333333,328.02424,139.06437)" clip-path="url(#clipPath6)"/>
    <path id="path7" d="m 0,0 c -6.851,19.321 -7.437,32.538 -7.485,34.992 0,0.013 0,0.026 0,0.038 v 125.786 c 5.535,-2.033 13.436,-3.827 24.08,-3.827 37.871,0 69.274,13.301 78.748,17.767 9.476,-4.466 40.877,-17.767 78.748,-17.767 10.645,0 18.544,1.794 24.081,3.827 V 35.031 c 0,-0.013 0,-0.026 -0.001,-0.039 -0.047,-2.454 -0.633,-15.671 -7.485,-34.992 -0.416,-1.175 -0.856,-2.334 -1.301,-3.49 2.742,0.657 5.185,1.331 7.355,2.011 0,0 0,0.002 0.001,0.002 0,0.002 10e-4,0.002 10e-4,0.003 7.613,21.737 7.618,36.218 7.633,36.429 V 171.08 c 0,0 -8.818,-7.888 -30.284,-7.888 -43.526,0 -78.748,18.474 -78.748,18.474 0,0 -35.221,-18.474 -78.748,-18.474 -21.466,0 -30.283,7.888 -30.283,7.888 V 34.955 c 0.015,-0.211 0.02,-14.694 7.635,-36.434 2.17,-0.68 4.612,-1.354 7.355,-2.011 C 0.857,-2.334 0.417,-1.175 0,0" style="fill:#630636;fill-opacity:1;fill-rule:nonzero;stroke:none" transform="matrix(1.3333333,0,0,-1.3333333,123.68504,279.34171)" clip-path="url(#clipPath8)"/>
    <path id="path9" d="M 0,0 -48.485,-31.807 -96.971,0 c -4.219,2.813 -8.227,5.885 -12.019,9.197 -3.827,0.465 -7.362,0.967 -10.642,1.492 5.562,-5.632 11.929,-10.994 19.24,-15.863 L -48.485,-39.227 3.422,-5.174 C 10.732,-0.305 17.101,5.057 22.661,10.689 19.381,10.164 15.846,9.662 12.02,9.197 8.227,5.885 4.22,2.813 0,0" style="fill:#630636;fill-opacity:1;fill-rule:nonzero;stroke:none" transform="matrix(1.3333333,0,0,-1.3333333,315.45651,361.26877)" clip-path="url(#clipPath10)"/>
    <path id="path11" d="m 0,0 -17.234,17.969 16.511,18.452 c 0,0 -34.07,-1.535 -57.697,-15.121 -0.268,-1.791 -0.615,-3.802 -1.055,-5.998 10.243,-2.985 11.651,-8.258 11.651,-8.258 0,0 0.116,-0.337 0,-0.922 -0.011,-0.055 -0.025,-0.111 -0.039,-0.172 0,0 -10e-4,-0.003 -10e-4,-0.006 -0.016,-0.058 -0.033,-0.121 -0.054,-0.187 V 5.754 c -0.619,-2.003 -3.663,-6.491 -17.167,-10.729 0,-0.001 -0.001,-0.003 -0.002,-0.004 -15.628,-4.901 -45.268,-9.467 -101.396,-9.467 -56.129,0 -85.769,4.566 -101.396,9.467 -10e-4,0.001 -0.002,0.003 -0.002,0.004 -13.505,4.238 -16.548,8.726 -17.167,10.729 0,0.001 -10e-4,0.002 -10e-4,0.003 -0.02,0.066 -0.037,0.129 -0.053,0.187 0,0.003 -0.001,0.006 -0.001,0.006 -0.015,0.061 -0.028,0.117 -0.039,0.172 -0.115,0.585 0,0.922 0,0.922 0,0 1.408,5.273 11.651,8.258 -0.44,2.196 -0.788,4.207 -1.056,5.998 -23.627,13.586 -57.696,15.121 -57.696,15.121 L -315.731,17.969 -332.967,0 c 0,0 25.4,2.153 47.825,-14.624 v -21.002 c 0,0 -1.455,-4.613 9.471,-8.497 10.926,-3.887 34.41,-14.753 109.188,-14.753 74.778,0 98.262,10.866 109.187,14.753 10.926,3.884 9.472,8.497 9.472,8.497 v 21.002 C -25.399,2.153 0,0 0,0" style="fill:#ffffff;fill-opacity:1;fill-rule:nonzero;stroke:none" transform="matrix(1.3333333,0,0,-1.3333333,472.78718,274.67384)" clip-path="url(#clipPath12)"/>
    <path id="path13" d="m 0,0 c -0.597,0.125 -1.153,0.225 -1.569,0.277 v -9.131 c 0.359,-0.136 0.891,-0.292 1.394,-0.398 2.54,-0.536 4.368,0.543 4.368,3.75 C 4.193,-2.592 3.061,-0.643 0,0 m -0.416,-11.426 c -1.391,0.293 -3.095,0.745 -3.733,0.882 -0.572,0.129 -1.148,0.258 -1.724,0.388 v 1.622 c 0.516,-0.011 1.129,-0.05 1.724,-0.141 V 1.133 C -4.744,1.307 -5.357,1.547 -5.873,1.759 V 3.381 C -5.315,3.26 -4.759,3.135 -4.206,3.014 -3.156,2.785 -1.491,2.504 0.178,2.15 4.33,1.277 6.961,-1.091 6.961,-5.852 c 0,-4.65 -3.009,-6.502 -7.377,-5.574" style="fill:#630636;fill-opacity:1;fill-rule:nonzero;stroke:none" transform="matrix(1.3333333,0,0,-1.3333333,112.22998,303.32357)" clip-path="url(#clipPath14)"/>
    <path id="path15" d="m 0,0 c -0.363,0.064 -0.739,0.118 -0.997,0.125 v -3.908 c 0.18,-0.059 0.518,-0.139 0.919,-0.213 1.571,-0.293 2.51,0.35 2.51,1.613 C 2.432,-1.082 1.653,-0.299 0,0 m 2.648,-11.973 c -1.095,2.061 -2.19,4.127 -3.286,6.194 -0.122,0.019 -0.241,0.046 -0.359,0.068 v -3.734 c 0.378,-0.112 0.819,-0.251 1.214,-0.446 v -1.64 c -1.847,0.334 -3.692,0.683 -5.536,1.037 v 1.622 c 0.518,0.005 1.132,-0.015 1.73,-0.087 v 9.811 c -0.598,0.152 -1.212,0.373 -1.73,0.574 v 1.625 c 0.518,-0.102 1.035,-0.197 1.552,-0.299 0.518,-0.1 2.39,-0.373 4.042,-0.678 2.974,-0.539 4.891,-1.906 4.891,-4.673 0,-1.888 -1.279,-3.055 -3.175,-3.115 0.241,-0.369 0.479,-0.749 0.682,-1.106 0.688,-1.211 1.381,-2.424 2.073,-3.637 0.382,-0.121 0.86,-0.285 1.32,-0.44 v -1.671 c -1.14,0.201 -2.277,0.394 -3.418,0.595" style="fill:#630636;fill-opacity:1;fill-rule:nonzero;stroke:none" transform="matrix(1.3333333,0,0,-1.3333333,130.22278,306.78451)" clip-path="url(#clipPath16)"/>
    <path id="path17" d="m 0,0 c -1.86,0.289 -3.58,-0.916 -3.58,-3.963 0,-2.869 1.122,-4.924 3.542,-5.297 1.759,-0.277 3.642,0.806 3.642,4.059 0,3.01 -1.28,4.84 -3.604,5.201 m -0.217,-11.604 c -4.124,0.646 -6.14,3.629 -6.14,7.824 0,4.472 2.977,6.653 6.594,6.091 3.604,-0.555 6.148,-3.078 6.148,-7.713 0,-4.473 -2.945,-6.772 -6.602,-6.202" style="fill:#630636;fill-opacity:1;fill-rule:nonzero;stroke:none" transform="matrix(1.3333333,0,0,-1.3333333,147.82104,309.86517)" clip-path="url(#clipPath18)"/>
    <path id="path19" d="m 0,0 v -4.591 c -1.347,-0.388 -3.032,-0.487 -4.677,-0.282 -4.273,0.545 -6.798,3.436 -6.798,7.566 0,4.317 2.884,6.87 7.503,6.297 1.263,-0.161 2.528,-0.492 3.773,-0.959 V 4.402 C -0.868,4.479 -1.537,4.559 -2.208,4.639 -2.327,5.235 -2.39,5.764 -2.449,6.291 -2.988,6.5 -3.571,6.626 -4.113,6.693 -6.744,7.024 -8.646,5.615 -8.646,2.545 c 0,-2.869 1.56,-4.765 4.311,-5.108 0.642,-0.083 1.202,-0.071 1.727,0.024 v 2.83 C -3.21,0.406 -3.834,0.58 -4.335,0.763 V 2.389 C -2.513,2.165 -0.693,1.944 1.123,1.739 V 0.074 C 0.762,0.037 0.384,0.021 0,0" style="fill:#630636;fill-opacity:1;fill-rule:nonzero;stroke:none" transform="matrix(1.3333333,0,0,-1.3333333,173.48118,321.58651)" clip-path="url(#clipPath20)"/>
    <path id="path21" d="m 0,0 v 1.645 c 0.445,0.08 0.988,0.09 1.471,0.087 V 5.74 C -0.45,5.919 -2.365,6.105 -4.284,6.299 V 2.287 C -3.801,2.203 -3.275,2.086 -2.813,1.918 V 0.273 c -1.946,0.194 -3.891,0.403 -5.829,0.62 V 2.52 c 0.522,0.041 1.145,0.071 1.747,0.044 v 9.811 c -0.602,0.106 -1.225,0.277 -1.747,0.434 v 1.627 c 1.938,-0.218 3.883,-0.426 5.829,-0.621 V 12.17 C -3.275,12.098 -3.801,12.091 -4.284,12.102 V 8.545 C -2.365,8.352 -0.45,8.162 1.471,7.986 v 3.553 C 0.988,11.623 0.445,11.733 0,11.893 v 1.65 C 1.946,13.355 3.891,13.185 5.841,13.021 V 11.398 C 5.316,11.346 4.693,11.297 4.087,11.309 V 1.496 C 4.693,1.404 5.316,1.25 5.841,1.105 V -0.518 C 3.891,-0.357 1.946,-0.187 0,0" style="fill:#630636;fill-opacity:1;fill-rule:nonzero;stroke:none" transform="matrix(1.3333333,0,0,-1.3333333,187.71491,330.06304)" clip-path="url(#clipPath22)"/>
    <path id="path23" d="m 0,0 v 1.625 c 0.524,0.059 1.148,0.107 1.753,0.1 v 9.814 C 1.148,11.627 0.524,11.775 0,11.92 v 1.621 C 3.09,13.295 6.179,13.074 9.268,12.885 V 9.473 C 8.618,9.514 7.964,9.557 7.314,9.598 7.233,10.105 7.151,10.594 7.113,10.977 6.198,11.037 5.284,11.099 4.37,11.167 V 7.554 C 5.105,7.5 5.836,7.451 6.568,7.4 6.627,7.781 6.708,8.153 6.809,8.488 7.366,8.454 7.926,8.416 8.481,8.377 V 4.305 C 7.926,4.339 7.366,4.381 6.809,4.415 6.688,4.764 6.627,5.171 6.568,5.536 5.836,5.582 5.105,5.631 4.37,5.684 V 1.777 C 5.292,1.709 6.209,1.645 7.132,1.584 7.174,2.044 7.252,2.5 7.354,3.013 8.008,2.971 8.658,2.934 9.312,2.891 V -0.658 C 6.205,-0.468 3.101,-0.247 0,0" style="fill:#630636;fill-opacity:1;fill-rule:nonzero;stroke:none" transform="matrix(1.3333333,0,0,-1.3333333,197.21424,330.89384)" clip-path="url(#clipPath24)"/>
    <path id="path25" d="m 0,0 c -0.604,0.03 -1.169,0.033 -1.592,0.019 v -9.128 c 0.363,-0.079 0.906,-0.147 1.409,-0.17 C 2.401,-9.4 4.255,-8.021 4.255,-4.814 4.255,-1.904 3.108,-0.141 0,0 m -0.42,-11.494 c -1.413,0.068 -3.148,0.24 -3.794,0.273 -0.587,0.034 -1.173,0.065 -1.756,0.103 v 1.622 c 0.527,0.068 1.152,0.133 1.756,0.137 V 0.459 C -4.818,0.528 -5.443,0.665 -5.97,0.798 V 2.424 C -5.401,2.39 -4.837,2.359 -4.273,2.324 -3.204,2.264 -1.511,2.257 0.186,2.186 4.4,1.982 7.062,0.041 7.062,-4.712 c 0,-4.655 -3.048,-6.995 -7.482,-6.782" style="fill:#630636;fill-opacity:1;fill-rule:nonzero;stroke:none" transform="matrix(1.3333333,0,0,-1.3333333,219.60038,317.06837)" clip-path="url(#clipPath26)"/>
    <path id="path27" d="m 0,0 c -0.264,0.73 -0.463,1.398 -0.626,2.162 h -0.02 C -0.809,1.459 -1.008,0.681 -1.292,-0.071 -1.685,-1.143 -2.075,-2.207 -2.464,-3.277 -1.236,-3.305 -0.015,-3.328 1.21,-3.348 0.81,-2.234 0.405,-1.117 0,0 m 1.007,-8.822 v 1.627 c 0.426,0.068 0.969,0.162 1.436,0.196 -0.193,0.536 -0.393,1.076 -0.587,1.615 -1.654,0.019 -3.307,0.054 -4.963,0.095 -0.189,-0.531 -0.379,-1.064 -0.565,-1.588 0.462,-0.057 1.006,-0.172 1.43,-0.258 v -1.626 c -1.708,0.037 -3.416,0.087 -5.124,0.144 v 1.623 c 0.324,0.09 0.728,0.154 1.07,0.166 1.385,3.865 2.771,7.737 4.155,11.609 C -1.069,4.758 0,4.734 1.07,4.716 2.482,0.791 3.895,-3.131 5.307,-7.049 5.654,-7.07 6.059,-7.154 6.378,-7.253 v -1.63 C 4.586,-8.868 2.797,-8.85 1.007,-8.822" style="fill:#630636;fill-opacity:1;fill-rule:nonzero;stroke:none" transform="matrix(1.3333333,0,0,-1.3333333,238.70451,321.19331)" clip-path="url(#clipPath28)"/>
    <path id="path29" d="m 0,0 v -6.482 c 0,-3.689 -1.995,-5.483 -5.631,-5.544 -4.297,-0.068 -5.27,2.27 -5.27,4.849 v 6.984 c -0.442,0.039 -0.886,0.114 -1.269,0.209 v 1.646 c 1.785,0.006 3.564,0.029 5.35,0.057 V 0.072 c -0.465,-0.129 -0.989,-0.193 -1.452,-0.238 v -6.825 c -0.007,-1.706 0.543,-2.907 2.804,-2.868 2.022,0.041 2.884,0.904 2.884,3.211 v 6.58 c -0.482,0.035 -1.007,0.076 -1.455,0.19 V 1.768 C -2.276,1.803 -0.514,1.852 1.25,1.9 V 0.258 C 0.87,0.145 0.445,0.054 0,0" style="fill:#630636;fill-opacity:1;fill-rule:nonzero;stroke:none" transform="matrix(1.3333333,0,0,-1.3333333,270.14144,317.20117)" clip-path="url(#clipPath30)"/>
    <path id="path31" d="m 0,0 v -11.654 c -1.121,-0.069 -2.246,-0.133 -3.363,-0.19 -1.387,2.219 -2.773,4.449 -4.156,6.676 -0.609,0.981 -1.072,1.961 -1.453,2.826 0.138,-2.04 0.122,-4.908 0.122,-7.879 0.464,-0.019 0.988,-0.076 1.453,-0.175 v -1.645 c -1.916,-0.088 -3.834,-0.164 -5.754,-0.229 v 1.627 c 0.524,0.118 1.152,0.262 1.755,0.319 v 9.795 c -0.603,0.019 -1.231,0.095 -1.755,0.179 v 1.621 c 1.718,0.062 3.435,0.127 5.149,0.2 1.364,-2.216 2.724,-4.436 4.092,-6.643 0.603,-0.953 1.011,-1.775 1.513,-2.77 -0.161,2.021 -0.145,4.829 -0.145,7.797 -0.479,0.012 -0.942,0.073 -1.368,0.167 v 1.646 c 1.729,0.09 3.458,0.189 5.182,0.297 V 0.318 C 0.893,0.193 0.444,0.091 0,0" style="fill:#630636;fill-opacity:1;fill-rule:nonzero;stroke:none" transform="matrix(1.3333333,0,0,-1.3333333,290.90304,316.31304)" clip-path="url(#clipPath32)"/>
    <path id="path33" d="M 0,0 V 1.626 C 0.523,1.763 1.146,1.9 1.752,1.979 v 9.815 c -0.606,0 -1.229,0.058 -1.752,0.125 v 1.627 c 2.044,0.133 4.088,0.272 6.129,0.433 V 12.353 C 5.604,12.216 4.977,12.067 4.377,11.98 V 2.168 C 4.977,2.178 5.6,2.12 6.129,2.059 V 0.437 C 4.088,0.277 2.044,0.133 0,0" style="fill:#630636;fill-opacity:1;fill-rule:nonzero;stroke:none" transform="matrix(1.3333333,0,0,-1.3333333,294.31331,331.64384)" clip-path="url(#clipPath34)"/>
    <path id="path35" d="M 0,0 C -0.639,-0.064 -1.285,-0.129 -1.931,-0.19 -2.029,0.422 -2.129,0.954 -2.17,1.448 -2.873,1.38 -3.564,1.315 -4.264,1.255 v -9.533 c 0.601,0.017 1.223,-0.024 1.752,-0.078 v -1.625 c -2.041,-0.195 -4.078,-0.377 -6.121,-0.547 v 1.622 c 0.524,0.147 1.151,0.3 1.754,0.391 v 9.53 C -7.57,0.958 -8.261,0.894 -8.953,0.84 -8.994,0.339 -9.094,-0.212 -9.195,-0.844 -9.842,-0.9 -10.488,-0.95 -11.126,-0.999 v 3.807 c 3.709,0.296 7.417,0.627 11.126,1 z" style="fill:#630636;fill-opacity:1;fill-rule:nonzero;stroke:none" transform="matrix(1.3333333,0,0,-1.3333333,318.36798,316.67384)" clip-path="url(#clipPath36)"/>
    <path id="path37" d="m 0,0 v 1.627 c 0.523,0.156 1.147,0.318 1.751,0.422 v 9.81 C 1.147,11.836 0.523,11.871 0,11.92 v 1.623 C 3.081,13.858 6.163,14.2 9.24,14.58 V 11.168 C 8.59,11.088 7.94,11.012 7.295,10.932 7.212,11.426 7.132,11.896 7.094,12.277 6.186,12.167 5.273,12.064 4.362,11.965 V 8.353 c 0.729,0.083 1.459,0.163 2.188,0.251 0.064,0.382 0.144,0.777 0.244,1.13 0.555,0.061 1.109,0.13 1.664,0.194 V 5.855 C 7.903,5.791 7.349,5.723 6.794,5.662 6.671,5.988 6.614,6.381 6.55,6.734 5.821,6.65 5.091,6.566 4.362,6.486 v -3.91 c 0.919,0.1 1.83,0.207 2.75,0.313 0.045,0.47 0.121,0.933 0.221,1.469 0.653,0.072 1.3,0.156 1.953,0.232 V 1.037 C 6.192,0.665 3.101,0.319 0,0" style="fill:#630636;fill-opacity:1;fill-rule:nonzero;stroke:none" transform="matrix(1.3333333,0,0,-1.3333333,319.44211,329.54224)" clip-path="url(#clipPath38)"/>
    <path id="path39" d="M 0,0 C -0.601,-0.078 -1.162,-0.174 -1.58,-0.27 V -9.4 c 0.36,-0.011 0.896,0.019 1.397,0.087 2.57,0.35 4.409,2.064 4.409,5.274 C 4.226,-1.123 3.086,0.427 0,0 m -0.422,-11.57 c -1.402,-0.19 -3.127,-0.334 -3.765,-0.417 -0.585,-0.072 -1.17,-0.15 -1.748,-0.221 v 1.627 c 0.517,0.162 1.144,0.341 1.748,0.46 v 9.813 c -0.604,-0.038 -1.231,-0.018 -1.748,0.02 v 1.622 c 0.562,0.072 1.124,0.141 1.687,0.213 1.06,0.14 2.743,0.433 4.431,0.669 4.187,0.571 6.824,-0.882 6.824,-5.639 0,-4.655 -3.017,-7.546 -7.429,-8.147" style="fill:#630636;fill-opacity:1;fill-rule:nonzero;stroke:none" transform="matrix(1.3333333,0,0,-1.3333333,341.74291,311.63344)" clip-path="url(#clipPath40)"/>
    <path id="path41" d="M 0,0 C -0.079,0.448 -0.156,0.871 -0.201,1.35 -1.099,1.189 -1.994,1.033 -2.896,0.879 v -3.733 c 0.756,0.129 1.505,0.26 2.257,0.393 0.042,0.387 0.118,0.786 0.221,1.143 0.552,0.095 1.103,0.194 1.653,0.297 v -4.196 c -0.55,-0.101 -1.101,-0.197 -1.653,-0.296 -0.103,0.324 -0.179,0.669 -0.221,1.068 -0.752,-0.133 -1.501,-0.266 -2.257,-0.395 v -3.872 c 0.598,0.064 1.221,0.072 1.737,0.061 v -1.622 c -2.022,-0.358 -4.043,-0.696 -6.072,-1.027 v 1.622 c 0.517,0.188 1.14,0.392 1.74,0.533 v 9.811 c -0.6,-0.061 -1.223,-0.061 -1.74,-0.047 v 1.623 c 3.063,0.498 6.119,1.023 9.166,1.577 V 0.347 C 1.288,0.232 0.646,0.114 0,0" style="fill:#630636;fill-opacity:1;fill-rule:nonzero;stroke:none" transform="matrix(1.3333333,0,0,-1.3333333,368.17398,309.30264)" clip-path="url(#clipPath42)"/>
    <path id="path43" d="m 0,0 c 0,-0.908 -0.721,-1.781 -1.611,-1.949 -0.896,-0.163 -1.637,0.445 -1.637,1.345 0,0.908 0.741,1.778 1.637,1.945 C -0.721,1.508 0,0.9 0,0" style="fill:#630636;fill-opacity:1;fill-rule:nonzero;stroke:none" transform="matrix(1.3333333,0,0,-1.3333333,375.15958,319.58131)" clip-path="url(#clipPath44)"/>
    <path id="path45" d="m 0,0 c -0.118,0.594 -0.198,1.141 -0.262,1.654 -0.471,0 -0.889,-0.023 -1.348,-0.123 -2.246,-0.459 -3.478,-2.504 -3.478,-5.213 0,-2.873 1.132,-4.339 4.134,-3.719 0.973,0.201 2.006,0.638 2.843,1.155 0.049,-0.791 0.106,-1.584 0.159,-2.375 -1.094,-0.592 -2.324,-1.068 -3.58,-1.326 -4.311,-0.881 -6.42,1.217 -6.42,5.266 -0.004,4.396 2.248,7.763 6.82,8.699 0.991,0.209 2.067,0.31 3.078,0.28 V 0.407 C 1.3,0.273 0.649,0.141 0,0" style="fill:#630636;fill-opacity:1;fill-rule:nonzero;stroke:none" transform="matrix(1.3333333,0,0,-1.3333333,388.05411,306.32357)" clip-path="url(#clipPath46)"/>
    <path id="path47" d="m 0,0 c 0,-0.903 -0.719,-1.806 -1.611,-2.002 -0.893,-0.198 -1.626,0.388 -1.626,1.291 0,0.901 0.736,1.806 1.626,1.999 C -0.719,1.485 0,0.904 0,0" style="fill:#630636;fill-opacity:1;fill-rule:nonzero;stroke:none" transform="matrix(1.3333333,0,0,-1.3333333,397.45264,314.99664)" clip-path="url(#clipPath48)"/>
  </g>
</svg>