<svg xmlns="http://www.w3.org/2000/svg" xmlns:svg="http://www.w3.org/2000/svg" version="1.1" id="Layer_1" x="0px" y="0px" viewBox="0 0 750 750" xml:space="preserve" width="316.22776601683796" height="316.22776601683796"><defs id="defs123"/>


<g id="g123" transform="translate(-125,-147.30506)">
	<path id="path127" style="display:inline;fill:#ffffff;stroke-width:1.22153" d="m 502.59961,306.11351 c -1.07816,0.44023 -2.02147,0.81131 -2.73828,1.0918 -6.03615,2.43187 -12.11928,4.74218 -18.29688,6.7832 -18.90587,15.60867 -51.88153,35.48055 -102.01367,42.01953 -47.22366,6.15911 -87.69302,-1.59204 -113.39258,-9.19726 0.0162,0.94562 0.0285,1.89042 0.041,2.83593 0.0361,3.09007 0.0467,6.17929 0.0547,9.26954 -0.0314,3.75292 -0.61615,7.46238 -0.91602,11.19531 -0.0886,1.48256 -0.13937,2.96786 -0.17383,4.45312 5.49339,16.86367 10.73173,36.72809 13.66211,57.59961 4.36923,31.1238 9.12695,72.19617 9.12695,116.87891 0,25.65125 -1.57056,52.4899 -5.67968,79.32031 -3.09445,20.20531 -5.71875,41.29625 -5.71875,62.18164 0,2.64537 0.0423,5.28706 0.13086,7.92383 0.12969,0.46952 0.26039,0.9393 0.39257,1.4082 0.50368,1.72119 1.04017,3.43583 1.59961,5.14453 2.23992,2.13462 4.49446,4.25541 6.79493,6.32422 -0.28469,-1.44651 -0.65527,-3.02328 -1.11524,-4.74023 -0.37609,-1.40385 -0.79422,-2.79665 -1.1289,-4.21094 -0.0115,-0.0484 -0.0142,-0.0786 -0.0117,-0.0898 v -0.002 l 0.002,-0.002 h 0.002 0.002 0.002 c 0.0701,0.0527 0.463,0.96732 0.63086,1.30469 0.33382,0.67094 0.64822,1.3527 0.98242,2.02344 0.42046,0.8439 0.56642,1.29029 0.61523,1.34375 l 0.002,0.002 0.002,0.002 0.002,0.002 h 0.002 0.002 0.002 l 0.002,-0.002 v -0.002 l 0.002,-0.002 c 0.0106,-0.0291 0.008,-0.1396 0.006,-0.32813 2.75329,4.21019 6.40599,7.71234 9.93945,11.25391 2.09378,2.26551 4.30312,4.41034 6.55469,6.51172 2.05882,1.48187 4.13376,2.94256 6.21484,4.39062 4.88514,3.49373 9.87529,6.84116 14.88672,10.15039 5.01811,2.75075 10.19157,5.205 15.27735,7.82617 6.37347,3.08884 12.70628,6.27007 19.19531,9.11133 4.1342,1.96385 8.34637,3.71027 12.62891,5.33008 4.40552,1.91821 8.88696,3.62299 13.41601,5.23242 4.25891,1.47671 8.52251,2.94643 12.77539,4.44141 3.3092,0.42901 6.6141,0.88331 9.91406,1.37109 7.08485,1.04311 14.15265,2.1123 21.16993,3.54688 5.66673,1.0868 11.27576,2.39659 16.82617,3.9707 6.20476,1.86858 11.94989,4.81851 17.6289,7.87109 5.17067,2.92412 9.98453,6.41827 14.66407,10.0625 0.387,0.32105 0.77384,0.64283 1.16015,0.96485 6.25072,-0.14677 12.50588,-0.22071 18.76367,-0.22071 8.24501,0 16.48813,0.12733 24.71875,0.38086 2.17198,-2.86988 4.59145,-5.53229 7.09766,-8.14648 3.00564,-2.79428 6.34019,-5.0151 9.88281,-6.83594 -1.66803,-2.2062 -3.5525,-4.4872 -5.67773,-6.79687 -15.13815,-16.45492 -34.64721,-26.97732 -46.74024,-33.38282 l -0.29492,-0.17578 c 2.32645,0.19299 4.48683,0.3073 6.39844,0.3711 15.38929,0.52436 23.93885,1.11002 26.39648,1.29101 0.50116,0.0386 0.92482,-0.50887 1.00782,-0.79101 3.87703,-12.91746 3.3583,-19.98122 2.91992,-22.53516 -0.13005,-0.75727 -0.7575,-0.65843 -1.00977,-0.4375 -7.24393,6.32697 -14.86358,7.20761 -29.31445,7.42188 -13.0023,0.19164 -22.91835,-4.24349 -27.30664,-10.80469 -2.18742,-3.26863 -1.42816,-6.22754 1.30078,-6.75196 2.00467,-0.38594 4.06286,-0.38594 7.17188,0 0.86555,0.10646 2.66855,0.90606 3.39843,1.33594 4.49145,2.65376 11.63635,4.69985 16.25,5.03125 3.10007,0.22359 5.06112,-0.52002 6.16211,-1.18945 0.80501,-0.48711 0.56067,-1.84399 0.28711,-2.22461 -2.34439,-3.26199 -3.88761,-2.97285 -11.16406,-3.14453 -8.1263,-0.19299 -12.83997,-4.82619 -14.4668,-8.10547 -0.81286,-1.63963 -1.13755,-3.22968 -1.25976,-4.41016 -0.12221,-1.18449 0.26047,-1.99725 0.77734,-2.125 1.38241,-0.33405 4.30766,-1.2502 7.14649,-3.49804 2.6258,-2.07616 4.07454,-5.02748 4.73828,-6.73633 0.32401,-0.82913 0.6007,-0.97615 0.91015,-0.27344 1.5248,3.42833 7.24218,14.27926 21.82422,23.21875 12.94176,7.93466 31.8597,7.1534 36.38477,6.83399 0.64804,-0.0453 0.88242,0.93765 0.79492,1.44335 -1.60665,9.29084 -9.42767,16.8267 -12.07813,19.1504 -0.55275,0.48311 -0.71992,1.25477 -0.33984,2.08789 1.13463,2.49938 4.20911,7.88504 10.67383,11.00195 4.99597,2.41022 16.59481,2.504 23.4082,-0.57031 0.27581,-0.12644 0.82351,0.0171 0.75391,0.73047 -0.33298,3.32186 -2.53376,13.23723 -16.74805,19.33398 -0.29936,0.12775 -0.79798,0.77058 -0.61523,1.47461 0.39622,1.51412 1.12558,4.46996 1.78906,8.09375 1.76352,-0.50402 3.53968,-0.96693 5.31641,-1.40625 6.59201,-1.57685 13.32592,-2.28716 20.07617,-2.70508 1.07205,-0.0551 2.14423,-0.10322 3.21679,-0.14453 1.27845,-0.59879 2.54989,-1.21074 3.81055,-1.84766 5.55022,-2.80043 10.97502,-5.83108 16.38477,-8.89062 8.10378,-4.82336 16.31448,-9.46956 24.66406,-13.85352 9.44159,-4.94678 19.27388,-9.04927 29.22851,-12.83008 10.37395,-3.8354 20.76813,-7.61027 31.14063,-11.44921 3.80593,-3.67971 7.57614,-7.3974 11.3457,-11.11133 2.82295,-2.81134 5.6265,-5.64583 8.38672,-8.52149 0.16157,-2.81302 0.3535,-5.625 0.56836,-8.43554 0.52036,-6.19163 0.95105,-12.3881 1.2207,-18.59571 0.35457,-3.75372 0.0149,-7.47265 -0.36914,-11.20312 -0.64334,-5.7008 -1.03021,-11.4236 -1.30859,-17.15235 -0.25055,-5.36776 -0.30526,-10.74265 -0.35156,-16.11523 -0.0368,-5.0611 -0.0503,-10.12237 -0.0606,-15.18359 -0.0101,-8.48455 -0.2538,-11.75294 2.93945,-13.00782 -0.85862,-8.24055 -1.49985,-16.45112 -1.95507,-24.5957 -1.22717,-3.93999 -2.24843,-7.94421 -3.1875,-11.96094 -1.29332,-6.14141 -2.13605,-12.36868 -2.93946,-18.58984 -0.90637,-7.23513 -1.39933,-14.51273 -1.79101,-21.79102 -0.22404,-4.29144 -0.34707,-8.58655 -0.42579,-12.88281 -0.26553,-5.1937 0.19156,-10.34446 1,-15.47265 0.99167,-6.00105 2.80571,-11.80058 4.73438,-17.55274 1.84383,-5.16066 3.47115,-10.39416 5.28711,-15.56445 0.50458,-1.3512 1.01729,-2.69912 1.53516,-4.04492 1.27694,-11.38229 2.66947,-21.99612 4.02539,-31.65235 1.02285,-7.28365 2.32694,-14.44482 3.82422,-21.39844 0.12763,-0.98771 0.2673,-1.97396 0.41406,-2.95898 0.68213,-3.80667 1.70453,-7.52549 2.94922,-11.17383 3.61244,-13.88331 7.81126,-26.59864 11.79296,-37.36523 0.16848,-1.53531 0.29678,-3.07378 0.0508,-4.48047 -0.35868,-3.28213 -0.4272,-6.56376 -0.32032,-9.8457 -25.1236,8.10206 -68.32603,17.73259 -119.43554,11.0664 C 554.32379,348.29908 519.06705,322.052 502.60028,306.11346 Z M 706.84766,627.01 c 0.12098,0.94111 0.21984,1.92205 0.57812,2.44335 -0.19846,-0.81343 -0.39613,-1.6263 -0.57812,-2.44335 z"/><path style="fill:#ca2a2d" d="m 550.216,698.699 c 0.526,-2.64 0.442,-6.122 0.032,-9.974 -0.569,-5.349 -2.033,-10.431 -2.635,-12.369 -0.163,-0.529 0.283,-1.012 0.55,-1.108 12.678,-4.581 14.641,-12.032 14.938,-14.528 0.062,-0.536 -0.427,-0.644 -0.673,-0.549 -6.077,2.31 -16.422,2.24 -20.878,0.429 -5.766,-2.342 -8.509,-6.388 -9.521,-8.266 -0.339,-0.626 -0.189,-1.207 0.304,-1.57 2.364,-1.746 9.34,-7.408 10.773,-14.389 0.078,-0.38 -0.132,-1.119 -0.71,-1.085 -4.036,0.24 -20.909,0.827 -32.452,-5.135 -13.006,-6.717 -18.105,-14.869 -19.465,-17.445 -0.276,-0.528 -0.523,-0.418 -0.812,0.205 -0.592,1.284 -1.884,3.502 -4.226,5.062 -2.532,1.689 -5.141,2.377 -6.374,2.628 -0.461,0.096 -0.802,0.706 -0.693,1.596 0.109,0.887 0.398,2.083 1.123,3.315 1.451,2.464 5.655,5.944 12.903,6.089 6.49,0.129 7.867,-0.088 9.958,2.363 0.244,0.286 0.462,1.306 -0.256,1.672 -0.982,0.503 -2.732,1.061 -5.497,0.893 -4.115,-0.249 -10.487,-1.786 -14.493,-3.78 -0.651,-0.323 -2.259,-0.924 -3.031,-1.004 -2.773,-0.29 -4.609,-0.29 -6.397,0 -2.434,0.394 -3.111,2.618 -1.16,5.074 3.914,4.93 12.758,8.263 24.355,8.119 12.889,-0.161 19.685,-0.823 26.146,-5.577 0.225,-0.166 0.784,-0.241 0.9,0.328 0.391,1.919 0.854,7.227 -2.604,16.933 -0.074,0.212 -0.452,0.624 -0.899,0.595 -2.192,-0.136 -9.817,-0.577 -23.543,-0.971 -1.705,-0.048 -3.632,-0.133 -5.707,-0.278 l 0.263,0.132 c 10.786,4.813 28.187,12.719 41.689,25.083 7.33,6.711 11.449,13.091 13.602,17.212 l 0.068,0.102 c -15.21,-0.822 -30.498,-1.235 -45.798,-1.235 -47.856,0 -95.615,4.063 -141.165,11.911 l -0.193,0.033 c -3.665,-2.189 -7.172,-4.408 -10.478,-6.662 -34.81,-23.709 -44.33,-54.728 -44.33,-86.368 0,-15.693 2.342,-31.54 5.102,-46.722 3.665,-20.16 5.065,-40.327 5.065,-59.601 0,-33.574 -4.244,-64.434 -8.141,-87.82 -4.566,-27.397 -15.412,-52.486 -22.784,-67.276 21.046,6.296 62.584,15.551 112.623,10.053 60.546,-6.653 93.035,-31.675 104.302,-42.24 11.268,10.565 43.756,35.588 104.304,42.24 50.037,5.498 91.575,-3.757 112.62,-10.053 -7.373,14.791 -18.215,39.879 -22.782,67.276 -3.898,23.386 -8.142,54.247 -8.142,87.822 0,19.272 1.398,39.439 5.064,59.599 2.761,15.182 5.103,31.029 5.103,46.722 0,31.64 -9.52,62.659 -44.329,86.368 -3.289,2.242 -6.776,4.448 -10.421,6.626 l -0.062,0.036 c -29.636,-5.115 -60.208,-8.626 -91.136,-10.458" id="path92"/>
	<path style="fill:#231f20" d="m 277.646,727.922 c -6.473,-5.44 -11.704,-10.89 -15.585,-16.496 -24.76,-35.761 -23.032,-73.451 -12.291,-144.588 14.595,-96.65 -1.537,-212.63 -36.105,-277.386 0,0 70.289,24.355 153.252,14.498 93.892,-11.157 133.086,-56.251 133.086,-56.251 h -0.006 c 0,0 39.193,45.094 133.086,56.251 82.963,9.857 153.252,-14.498 153.252,-14.498 -34.568,64.756 -50.7,180.736 -36.105,277.386 10.743,71.136 12.469,108.827 -12.289,144.588 -3.871,5.592 -9.086,11.03 -15.537,16.455 l -0.059,0.045 c -2.223,-0.662 -4.485,-1.313 -6.783,-1.964 -21.026,-5.959 -42.888,-11.027 -65.328,-15.167 l 0.059,-0.041 c 1.679,-1.073 3.322,-2.153 4.923,-3.243 53.351,-36.341 51.031,-88.097 41.754,-139.127 -9.28,-51.03 -3.865,-103.608 3.093,-145.36 6.959,-41.753 29.381,-78.866 29.381,-78.866 0,0 -54.124,22.422 -124.485,14.691 -74.183,-8.152 -104.958,-44.846 -104.958,-44.846 v 0 c 0,0 -30.775,36.694 -104.957,44.846 -70.361,7.732 -124.485,-14.691 -124.485,-14.691 0,0 22.422,37.113 29.381,78.866 6.959,41.753 12.372,94.33 3.093,145.36 -9.277,51.03 -11.597,102.786 41.753,139.127 1.591,1.083 3.223,2.157 4.893,3.222 l 0.097,0.059 c -22.442,4.143 -44.308,9.212 -65.336,15.171 -2.248,0.637 -4.464,1.275 -6.642,1.921 z" id="path93"/>
	<path style="fill:#231f20" d="m 499.999,773.522 c 48.518,0 87.977,3.592 140.654,14.776 32.153,6.826 58.075,17.12 82.605,23.933 10.437,2.899 19.136,8.409 18.846,12.468 -0.29,4.06 -3.77,6.959 -15.368,8.99 -10.034,1.756 -15.259,2.013 -18.973,8.222 -1.323,2.214 -0.852,4.794 0.886,7.073 4.505,5.907 15.466,17.893 36.935,25.297 33.634,11.598 68.718,8.409 68.718,8.409 L 782.696,843.257 823,823.539 c 0,0 -28.995,-0.871 -46.973,-7.829 -17.976,-6.959 -28.125,-15.657 -30.153,-21.747 -2.294,-6.877 2.898,-12.757 7.537,-20.587 6.849,-11.556 14.208,-15.657 8.41,-22.034 C 751.61,740.11 735.144,734.525 714.77,728.751 651.2,710.735 577.999,700.164 499.999,700.164 v 0 c -77.999,0 -151.2,10.571 -214.77,28.587 -20.374,5.774 -36.841,11.36 -47.05,22.591 -5.799,6.377 1.561,10.478 8.409,22.034 4.639,7.83 9.831,13.71 7.538,20.587 -2.029,6.089 -12.178,14.788 -30.154,21.747 -17.977,6.958 -46.972,7.829 -46.972,7.829 l 40.303,19.717 -31.605,39.433 c 0,0 35.084,3.189 68.718,-8.409 21.468,-7.403 32.428,-19.389 36.934,-25.297 1.738,-2.279 2.209,-4.859 0.885,-7.073 -3.713,-6.209 -8.937,-6.467 -18.972,-8.222 -11.598,-2.031 -15.078,-4.929 -15.367,-8.99 -0.29,-4.059 8.408,-9.569 18.846,-12.468 24.529,-6.813 50.451,-17.107 82.604,-23.933 52.676,-11.183 92.135,-14.775 140.653,-14.775 z" id="path94"/>
	<path style="fill:#ffffff" d="m 291.728,784.931 -10.412,-33.15 c -0.179,-0.573 -0.454,-0.968 -0.821,-1.189 -0.369,-0.22 -0.933,-0.316 -1.693,-0.288 l -0.282,-0.898 20.618,-6.475 c 4.677,-1.469 8.461,-1.945 11.35,-1.428 3.641,0.639 6.811,2.39 9.515,5.251 2.361,2.511 4.132,5.643 5.312,9.402 1.397,4.447 1.637,8.586 0.721,12.416 -0.838,3.41 -2.393,6.157 -4.663,8.242 -2.272,2.086 -5.592,3.816 -9.964,5.189 l -20.62,6.474 -0.282,-0.898 c 0.64,-0.41 1.049,-0.812 1.226,-1.203 0.177,-0.39 0.175,-0.873 -0.005,-1.445 z m 4.253,-2.184 14.099,-4.427 c 4.136,-1.298 7.006,-2.903 8.608,-4.807 1.884,-2.269 2.885,-5.149 3.003,-8.643 0.066,-2.324 -0.293,-4.737 -1.076,-7.234 -1.427,-4.539 -3.76,-7.932 -7,-10.184 -1.793,-1.237 -3.712,-1.912 -5.758,-2.025 -2.047,-0.112 -4.612,0.317 -7.7,1.287 l -14.1,4.429 z" id="path95"/>
	<path style="fill:#ffffff" d="m 334.376,736.355 4.698,22.163 c 0.556,2.623 1.083,4.438 1.585,5.445 0.501,1.008 1.267,1.812 2.297,2.412 2.501,1.431 6.621,1.539 12.36,0.323 6.248,-1.324 10.112,-3.3 11.589,-5.921 0.491,-0.88 0.736,-1.858 0.733,-2.932 -0.002,-1.074 -0.257,-2.814 -0.767,-5.22 l -4.698,-22.162 c -0.169,-0.803 -0.419,-1.347 -0.752,-1.635 -0.331,-0.288 -0.898,-0.448 -1.697,-0.484 l -0.195,-0.922 8.013,-1.697 0.195,0.922 c -0.72,0.337 -1.174,0.704 -1.361,1.102 -0.187,0.397 -0.193,1.006 -0.019,1.827 l 4.893,23.085 c 0.602,2.839 0.785,5.06 0.551,6.666 -0.456,2.877 -1.959,5.241 -4.51,7.092 -2.551,1.848 -6.319,3.302 -11.302,4.359 -7.458,1.582 -12.866,1.226 -16.222,-1.071 -1.364,-0.917 -2.423,-2.07 -3.177,-3.455 -0.756,-1.384 -1.398,-3.33 -1.93,-5.837 l -4.893,-23.084 c -0.174,-0.823 -0.427,-1.376 -0.758,-1.664 -0.333,-0.288 -0.897,-0.438 -1.692,-0.455 l -0.195,-0.922 8.438,-1.787 0.195,0.921 c -0.716,0.356 -1.168,0.733 -1.354,1.13 -0.186,0.4 -0.194,0.999 -0.025,1.801 z" id="path96"/>
	<path style="fill:#ffffff" d="m 382.584,728.358 4.684,31.911 c 0.119,0.812 0.335,1.373 0.649,1.68 0.312,0.309 0.867,0.505 1.663,0.591 l 0.136,0.932 -8.104,1.189 -0.137,-0.932 c 0.758,-0.314 1.237,-0.658 1.441,-1.033 0.202,-0.373 0.243,-0.975 0.121,-1.807 l -4.924,-33.547 c -0.121,-0.831 -0.34,-1.4 -0.652,-1.709 -0.314,-0.309 -0.866,-0.495 -1.659,-0.562 l -0.136,-0.933 11.662,-1.71 0.138,0.932 c -0.886,0.452 -1.287,0.967 -1.202,1.542 0.058,0.396 0.633,1.072 1.725,2.023 l 28.607,25.002 -4.342,-29.595 c -0.122,-0.831 -0.34,-1.402 -0.653,-1.711 -0.314,-0.307 -0.866,-0.492 -1.659,-0.559 l -0.136,-0.933 8.103,-1.19 0.138,0.933 c -0.74,0.291 -1.216,0.63 -1.427,1.015 -0.213,0.385 -0.256,0.992 -0.134,1.824 l 4.923,33.547 c 0.122,0.832 0.338,1.398 0.65,1.696 0.312,0.298 0.866,0.49 1.662,0.576 l 0.136,0.932 -9.374,1.375 -0.138,-0.932 c 0.877,-0.371 1.274,-0.844 1.189,-1.42 -0.063,-0.434 -0.585,-1.086 -1.563,-1.954 z" id="path97"/>
	<path style="fill:#ffffff" d="m 431.947,754.584 -2.268,-34.672 c -0.039,-0.599 -0.212,-1.051 -0.517,-1.351 -0.306,-0.301 -0.832,-0.526 -1.577,-0.679 l -0.061,-0.94 21.564,-1.411 c 4.892,-0.32 8.681,0.115 11.366,1.302 3.386,1.483 6.052,3.934 8,7.354 1.7,2.996 2.679,6.459 2.937,10.391 0.304,4.651 -0.443,8.729 -2.239,12.234 -1.622,3.114 -3.781,5.416 -6.481,6.904 -2.7,1.49 -6.336,2.385 -10.91,2.684 l -21.566,1.409 -0.061,-0.94 c 0.719,-0.247 1.21,-0.541 1.475,-0.878 0.265,-0.339 0.377,-0.808 0.338,-1.407 z m 4.649,-1.115 14.746,-0.966 c 4.327,-0.282 7.494,-1.16 9.501,-2.632 2.368,-1.758 4.022,-4.32 4.964,-7.686 0.613,-2.243 0.837,-4.671 0.665,-7.284 -0.31,-4.746 -1.774,-8.595 -4.39,-11.549 -1.449,-1.629 -3.153,-2.738 -5.115,-3.333 -1.961,-0.592 -4.556,-0.783 -7.786,-0.571 l -14.746,0.966 z" id="path98"/>
	<path style="fill:#ffffff" d="m 505.093,743.391 -21.909,0.132 -3.569,7.833 c -0.335,0.744 -0.503,1.268 -0.501,1.569 0.004,0.604 0.592,1.002 1.769,1.197 l 0.005,0.941 -9.095,0.055 -0.006,-0.941 c 0.819,-0.146 1.443,-0.45 1.871,-0.912 0.428,-0.463 0.987,-1.468 1.679,-3.014 l 14.82,-32.495 c 0.355,-0.783 0.532,-1.314 0.531,-1.595 -0.005,-0.519 -0.497,-0.908 -1.479,-1.162 l -0.005,-0.941 9.961,-0.061 0.006,0.941 c -0.978,0.328 -1.465,0.751 -1.462,1.269 10e-4,0.222 0.184,0.721 0.55,1.501 l 14.552,31.145 c 1.073,2.295 1.781,3.642 2.125,4.041 0.342,0.398 1.085,0.734 2.226,1.007 l 0.005,0.941 -9.712,0.061 -0.006,-0.944 c 1.153,-0.168 1.729,-0.613 1.724,-1.337 -0.002,-0.322 -0.227,-0.942 -0.672,-1.865 z m -1.758,-3.905 -9.332,-20.187 -9.095,20.3 z" id="path99"/>
	<path style="fill:#ffffff" d="m 526.013,751.366 26.103,1.163 c 0.837,0.038 1.436,-0.069 1.798,-0.317 0.359,-0.249 0.649,-0.757 0.864,-1.523 l 0.94,0.041 -0.349,7.822 -0.94,-0.041 c -0.146,-0.783 -0.389,-1.314 -0.726,-1.595 -0.337,-0.28 -0.926,-0.44 -1.766,-0.477 l -32.761,-1.459 0.042,-0.941 c 0.804,-0.163 1.34,-0.411 1.61,-0.74 0.27,-0.328 0.424,-0.912 0.461,-1.753 l 1.51,-33.872 c 0.036,-0.838 -0.069,-1.434 -0.319,-1.787 -0.25,-0.35 -0.757,-0.644 -1.522,-0.879 l 0.041,-0.941 8.617,0.384 -0.041,0.941 c -0.783,0.167 -1.314,0.414 -1.593,0.74 -0.28,0.329 -0.439,0.912 -0.476,1.75 z" id="path100"/>
	<path style="fill:#ffffff" d="m 566.737,741.967 -1.356,12.117 c -0.093,0.817 -0.025,1.414 0.199,1.791 0.224,0.377 0.711,0.71 1.458,0.993 l -0.105,0.937 -8.572,-0.96 0.105,-0.935 c 0.792,-0.112 1.34,-0.324 1.641,-0.632 0.302,-0.308 0.497,-0.881 0.593,-1.717 l 3.771,-33.695 c 0.094,-0.837 0.028,-1.441 -0.196,-1.818 -0.224,-0.38 -0.712,-0.7 -1.461,-0.967 l 0.103,-0.937 8.572,0.96 -0.103,0.938 c -0.793,0.112 -1.341,0.323 -1.642,0.631 -0.301,0.31 -0.497,0.883 -0.592,1.719 l -1.894,16.924 23.816,-14.744 c 0.844,-0.509 1.286,-0.952 1.328,-1.333 0.049,-0.436 -0.298,-0.757 -1.04,-0.962 l 0.105,-0.937 10.784,1.208 -0.106,0.937 c -1.2,-0.054 -2.427,0.302 -3.678,1.068 l -17.958,10.987 15.588,25.102 c 0.374,0.606 0.738,1.025 1.094,1.256 0.357,0.23 0.919,0.41 1.689,0.535 l -0.106,0.938 -9.937,-1.112 0.106,-0.937 c 0.878,-0.103 1.336,-0.345 1.379,-0.723 0.027,-0.238 -0.334,-0.974 -1.082,-2.206 l -12.564,-20.507 z" id="path101"/>
	<path style="fill:#ffffff" d="m 629.464,729.312 -2.724,13.723 17.444,3.463 c 0.825,0.166 1.435,0.15 1.83,-0.041 0.396,-0.192 0.758,-0.65 1.086,-1.375 l 0.925,0.184 -1.525,7.678 -0.924,-0.184 c -0.029,-0.794 -0.187,-1.355 -0.48,-1.683 -0.291,-0.328 -0.851,-0.575 -1.674,-0.739 l -17.444,-3.464 -3.042,15.318 c -0.163,0.824 -0.154,1.427 0.031,1.809 0.185,0.384 0.646,0.751 1.388,1.101 l -0.183,0.924 -8.462,-1.678 0.184,-0.925 c 0.799,-0.047 1.362,-0.21 1.689,-0.491 0.326,-0.283 0.57,-0.837 0.734,-1.662 l 6.605,-33.257 c 0.161,-0.823 0.148,-1.432 -0.045,-1.83 -0.192,-0.394 -0.65,-0.756 -1.374,-1.085 l 0.183,-0.925 32.729,6.501 c 0.825,0.163 1.435,0.152 1.831,-0.035 0.395,-0.186 0.756,-0.649 1.087,-1.38 l 0.925,0.182 -1.526,7.678 -0.924,-0.182 c -0.026,-0.807 -0.183,-1.371 -0.477,-1.694 -0.292,-0.321 -0.852,-0.565 -1.676,-0.729 z" id="path102"/>
	<path style="fill:#ffffff" d="m 717.68,751.853 -6.438,5.768 -0.631,-0.699 c 0.349,-0.518 0.575,-0.941 0.674,-1.266 0.243,-0.783 -0.677,-2.146 -2.756,-4.089 -2.856,-2.684 -6.272,-4.641 -10.246,-5.872 -5.354,-1.658 -10.149,-1.523 -14.391,0.404 -4.315,1.965 -7.214,5.342 -8.697,10.128 -1.477,4.769 -0.945,9.272 1.595,13.505 2.45,4.123 6.167,6.957 11.153,8.502 4.873,1.508 9.603,1.44 14.196,-0.209 2.076,-0.76 3.199,-1.407 3.364,-1.942 0.082,-0.267 0.056,-0.757 -0.079,-1.471 l 0.857,-0.331 3.183,7.773 -0.893,0.35 c -0.389,-0.643 -0.753,-1.018 -1.099,-1.123 -0.209,-0.065 -0.636,0.022 -1.274,0.263 -2.165,0.77 -3.927,1.304 -5.287,1.604 -1.358,0.297 -2.798,0.464 -4.314,0.495 -3.149,0.089 -6.433,-0.394 -9.853,-1.454 -6.592,-2.042 -11.383,-5.537 -14.375,-10.482 -3.146,-5.185 -3.797,-10.758 -1.949,-16.722 1.456,-4.702 4.074,-8.353 7.853,-10.953 5.912,-4.074 13.104,-4.801 21.574,-2.177 5.601,1.733 10.558,4.899 14.878,9.495 0.284,0.297 0.494,0.465 0.626,0.508 0.249,0.077 0.811,-0.148 1.687,-0.675 z" id="path103"/>
	<path style="fill:#231f20" d="m 288.073,834.209 c -3.113,-1.489 -6.864,-2.12 -11.46,-2.892 l -2.851,-0.487 c -12.681,-2.217 -13.112,-5.045 -12.974,-6.337 0.007,-1.751 5.772,-6.424 16.73,-9.468 2.398,-0.666 4.801,-1.362 7.221,-2.086 0,0.001 1.325,11.932 3.334,21.27 z" id="path104"/>
	<path style="fill:#231f20" d="m 711.927,834.209 c 3.111,-1.489 6.863,-2.12 11.457,-2.892 l 2.852,-0.487 c 12.681,-2.217 13.112,-5.045 12.974,-6.337 -0.007,-1.751 -5.773,-6.424 -16.73,-9.468 -2.398,-0.666 -4.801,-1.362 -7.221,-2.086 10e-4,0.001 -1.324,11.932 -3.332,21.27 z" id="path105"/>
	<path style="fill:#ca2a2d" d="m 487.519,776.489 c 4.703,3.504 8.899,7.113 12.48,10.86 3.553,-3.719 7.713,-7.301 12.37,-10.779 l 0.066,-0.062 c -4.074,-0.057 -8.215,-0.086 -12.436,-0.086 -4.181,0 -8.282,0.028 -12.32,0.085 z" id="path106"/>
	<path style="fill:#231f20" d="m 379.45,787.332 c 19.573,10.142 40.983,21.288 63.9,33.887 53.697,29.523 56.652,41.173 56.652,41.173 h -0.007 0.008 -0.007 c 0,0 2.957,-11.65 56.652,-41.173 22.97,-12.628 44.427,-23.797 64.039,-33.958 l -0.12,-0.032 C 586.71,780.875 556.74,777.655 522.565,776.72 l -0.047,0.029 c -9.448,6.269 -17.237,12.792 -22.52,19.73 v 0 c -5.275,-6.93 -13.053,-13.444 -22.484,-19.707 l -0.072,-0.053 c -34.219,0.937 -64.222,4.163 -98.131,10.532 z" id="path107"/>
	<path style="fill:#231f20" d="m 379.571,410.216 c -5.785,-9.092 -12.612,-18.847 -18.483,-23.776 -6.477,-5.437 -15.736,-3.083 -18.557,-0.508 -2.501,2.284 -3.329,5.26 -3.588,6.605 -0.087,0.449 -0.535,1.169 -0.767,1.428 -2.934,3.27 -7.757,9.741 -9.293,11.821 -0.31,0.42 -0.095,0.791 0.543,1.014 1.922,0.669 6.078,2.168 8.508,3.437 0.442,0.231 1.368,1.395 1.461,2.733 0.16,2.289 0.072,6.469 -1.576,12.323 -2.609,9.278 -6.813,28.56 3.625,42.768 10.439,14.208 23.513,14.665 31.604,26.241 6.06,8.67 4.206,18.412 2.582,22.819 -1.625,4.407 -2.243,9.47 0.076,9.703 2.32,0.233 6.052,-1.482 8.97,-4.368 3.401,-3.364 7.018,-5.303 13.222,-2.32 5.064,2.436 8.156,5.334 12.023,5.334 3.865,0 5.652,-2.989 3.092,-6.764 -3.472,-5.12 -5.389,-10.238 -2.971,-21.898 0.138,-0.668 1.286,-1.788 2.686,-1.253 4.504,1.719 14.939,6.042 22.901,11.94 9.433,6.988 19.815,16.662 26.15,26.449 0.673,1.04 2.202,3.905 2.787,4.892 0.984,1.663 2.709,3.911 4.891,4.033 3.479,0.193 4.833,-0.58 6.185,-8.892 1.264,-7.768 1.517,-14.862 -0.821,-21.595 -0.164,-0.47 -0.255,-1.528 0.247,-1.798 1.508,-0.815 5.053,-3 9.322,-7.439 5.437,-5.654 5.981,-12.124 5.912,-15.005 -0.022,-0.96 -0.59,-1.409 -1.416,-1.229 -3.331,0.723 -12.343,2.52 -18.849,2.317 -6.958,-0.218 -10.003,-2.392 -11.09,-3.466 -0.363,-0.358 -0.213,-0.823 0.284,-1.247 1.22,-1.044 3.653,-3.269 5.877,-6.16 3.972,-5.164 5.525,-8.877 5.102,-14.341 -0.04,-0.519 -0.441,-1.575 -0.928,-1.525 -3.417,0.347 -17.657,1.568 -26.79,-1.096 -10.438,-3.045 -20.459,-8.023 -29.14,-19.427 -7.589,-9.967 -13.938,-12.236 -16.353,-12.751 -0.676,-0.145 -1.376,-0.699 -1.969,-1.513 -1.021,-1.404 -2.817,-3.603 -5.019,-5.162 -3.48,-2.466 -5.364,-4.35 -10.44,-12.324 z" id="path108"/>
	<path style="fill:#ffffff" d="m 392.475,434.137 c -4.641,0 -6.814,-0.145 -8.119,0.58 -1.306,0.725 -1.015,2.755 1.304,4.495 2.32,1.739 4.204,4.494 2.32,5.219 -1.885,0.725 -3.189,1.305 -3.045,2.899 0.09,0.99 1.02,2.093 1.71,2.787 0.422,0.422 0.611,0.956 0.189,1.453 -0.619,0.727 -1.836,1.954 -4.073,3.589 -3.77,2.755 -5.944,4.204 -3.625,6.814 2.32,2.61 5.074,5.509 6.959,2.9 1.653,-2.288 3.416,-3.128 5.78,-3.495 0.331,-0.051 1.034,-0.529 1.052,-1.253 0.019,-0.725 0.054,-1.776 0.127,-3.081 0.146,-2.609 -1.885,-5.219 -0.435,-5.219 1.45,0 5.944,0.29 7.249,-0.29 1.304,-0.58 2.609,-2.029 2.609,-5.364 0,-2.462 -1.422,-4.292 -2.167,-5.081 -0.263,-0.279 -0.315,-0.51 -0.134,-0.655 0.543,-0.435 1.576,-1.441 1.141,-2.528 -0.579,-1.451 -2.173,-3.77 -8.842,-3.77 z" id="path109"/>
	<path style="fill:#ffffff" d="m 411.096,488.645 c 10.787,4.814 28.187,12.72 41.688,25.084 10.36,9.485 14.308,18.306 15.352,21.032 0.214,0.557 0.692,0.581 0.867,0.416 2.374,-2.226 2.578,-7.565 1.904,-13.91 -0.569,-5.35 -2.033,-10.431 -2.635,-12.368 -0.164,-0.53 0.283,-1.014 0.55,-1.11 12.679,-4.581 14.641,-12.033 14.937,-14.528 0.063,-0.536 -0.424,-0.643 -0.672,-0.549 -6.076,2.311 -16.422,2.24 -20.879,0.429 -5.764,-2.342 -8.508,-6.387 -9.521,-8.266 -0.337,-0.626 -0.189,-1.206 0.304,-1.57 2.365,-1.746 9.342,-7.407 10.775,-14.39 0.077,-0.378 -0.133,-1.117 -0.71,-1.083 -4.036,0.24 -20.909,0.827 -32.453,-5.135 -13.006,-6.718 -18.105,-14.87 -19.463,-17.446 -0.276,-0.528 -0.523,-0.418 -0.811,0.206 -0.593,1.284 -1.885,3.501 -4.227,5.062 -2.532,1.689 -5.141,2.378 -6.374,2.628 -0.461,0.095 -0.801,0.707 -0.693,1.595 0.109,0.888 0.398,2.084 1.123,3.316 1.45,2.464 5.655,5.944 12.903,6.089 6.491,0.13 7.867,-0.089 9.958,2.363 0.244,0.286 0.462,1.307 -0.256,1.673 -0.982,0.502 -2.731,1.061 -5.497,0.893 -4.116,-0.249 -10.485,-1.786 -14.493,-3.78 -0.651,-0.324 -2.259,-0.923 -3.031,-1.004 -2.773,-0.29 -4.609,-0.29 -6.397,0 -2.434,0.394 -3.11,2.618 -1.16,5.074 3.914,4.93 12.757,8.263 24.355,8.118 12.887,-0.16 19.685,-0.822 26.145,-5.577 0.226,-0.166 0.786,-0.241 0.901,0.328 0.391,1.919 0.853,7.226 -2.604,16.934 -0.075,0.211 -0.452,0.623 -0.899,0.594 -2.19,-0.137 -9.817,-0.578 -23.543,-0.97 -1.705,-0.049 -3.632,-0.135 -5.709,-0.278 z" id="path110"/>
	<path style="fill:#ffffff" d="m 353.621,396.734 c 0,1.321 -0.989,2.392 -2.212,2.392 -1.22,0 -2.21,-1.071 -2.21,-2.392 0,-1.321 0.991,-2.393 2.21,-2.393 1.223,0 2.212,1.071 2.212,2.393 z m 53.354,91.459 c -9.699,-0.954 -21.399,-3.23 -29.143,-8.534 -13.166,-9.017 -20.365,-18.13 -19.613,-40.557 0.012,-0.347 0.367,-1.123 1.817,-1.16 0.556,-0.014 0.972,-0.005 1.269,0.008 0.652,0.028 0.558,0.789 0.549,1.152 -0.369,15.388 1.519,22.793 11.339,31.858 10.051,9.279 23.97,11.598 32.958,13.435 7.865,1.608 26.386,1.29 30.894,1.186 0.643,-0.015 1.106,-0.485 1.148,-0.712 0.516,-2.746 0.142,-5.052 -0.093,-6.083 -0.085,-0.371 -0.801,-0.474 -1.123,-0.424 -24.794,3.82 -38.15,0.426 -51.412,-7.111 -9.543,-5.425 -11.824,-13.127 -12.357,-16.058 -0.138,-0.756 0.086,-1.225 0.573,-1.426 0.577,-0.237 1.492,-0.712 2.747,-1.653 2.319,-1.74 2.609,-2.609 2.464,-4.059 -0.146,-1.45 -2.32,-3.334 -3.77,-4.205 -1.449,-0.87 -2.899,-0.58 -2.32,-1.449 0.435,-0.652 1.931,-1.142 2.651,-1.346 0.24,-0.068 0.33,-0.34 0.258,-0.757 -0.219,-1.25 -0.517,-4.132 0.57,-7.176 1.45,-4.059 6.234,-3.334 10.584,-3.334 4.349,0 2.464,-1.884 -0.725,-3.479 -3.19,-1.595 -6.089,-4.349 -10.148,-10.583 -4.06,-6.234 -11.73,-17.513 -16.528,-22.761 -4.639,-5.074 -11.018,-4.349 -14.642,-2.465 -1.521,0.791 -1.873,2.307 -1.927,3.324 -0.032,0.599 0.279,1.177 0.649,1.465 1.287,1.009 4.178,3.702 4.178,7.534 0,3.773 -3.624,6.379 -3.624,6.379 0,0 0.29,7.394 -1.16,17.397 -1.45,10.003 -2.049,30.026 6.669,40.592 9.569,11.598 17.302,10.222 26.821,22.617 2.078,2.706 4.978,7.539 5.074,15.464 0.096,7.925 -1.45,12.854 -2.32,14.882 -0.87,2.031 -0.87,3.384 0.676,2.127 1.547,-1.256 3.479,-4.059 6.574,-6.282 3.093,-2.222 11.114,-1.159 14.303,0.774 3.189,1.933 4.059,2.803 5.026,2.706 0.967,-0.096 0.483,-2.61 -0.87,-5.316 -1.353,-2.706 -1.739,-7.442 -1.643,-14.401 0.083,-6.089 3.055,-10.551 3.797,-11.571 z" id="path111"/>
	<path style="fill:#ffffff" d="m 341.035,397.153 c -0.211,-0.326 -0.515,-0.335 -0.787,-0.038 -0.815,0.893 -2.965,3.327 -3.974,4.74 -1.45,2.03 -0.394,3.19 1.691,4.157 1.209,0.56 2.235,0.828 2.884,0.954 0.469,0.092 0.893,-0.085 1.1,-0.438 0.429,-0.736 1.091,-2.168 1.091,-3.996 -0.002,-2.045 -1.348,-4.367 -2.005,-5.379 z" id="path112"/>
	<path style="fill:#231f20" d="m 560.391,410.216 c -5.786,-9.092 -12.614,-18.847 -18.484,-23.776 -6.477,-5.437 -15.735,-3.083 -18.557,-0.508 -2.501,2.284 -3.329,5.26 -3.588,6.605 -0.086,0.449 -0.535,1.169 -0.767,1.428 -2.934,3.27 -7.757,9.741 -9.293,11.821 -0.309,0.42 -0.095,0.791 0.544,1.014 1.921,0.669 6.075,2.168 8.507,3.437 0.442,0.231 1.369,1.395 1.462,2.733 0.159,2.289 0.071,6.469 -1.577,12.323 -2.609,9.278 -6.812,28.56 3.624,42.768 10.44,14.208 23.514,14.665 31.607,26.241 6.06,8.67 4.205,18.412 2.579,22.819 -1.623,4.407 -2.242,9.47 0.079,9.703 2.32,0.233 6.051,-1.482 8.968,-4.368 3.402,-3.364 7.018,-5.303 13.222,-2.32 5.064,2.436 8.158,5.334 12.024,5.334 3.865,0 5.651,-2.989 3.09,-6.764 -3.472,-5.12 -5.389,-10.238 -2.971,-21.898 0.139,-0.668 1.284,-1.788 2.686,-1.253 4.504,1.719 14.939,6.042 22.902,11.94 9.434,6.988 19.813,16.662 26.149,26.449 0.674,1.04 2.202,3.905 2.787,4.892 0.985,1.663 2.71,3.911 4.891,4.033 3.479,0.193 4.833,-0.58 6.185,-8.892 1.266,-7.768 1.518,-14.862 -0.821,-21.595 -0.164,-0.47 -0.254,-1.528 0.247,-1.798 1.509,-0.815 5.054,-3 9.322,-7.439 5.437,-5.654 5.98,-12.124 5.913,-15.005 -0.023,-0.96 -0.59,-1.409 -1.418,-1.229 -3.328,0.723 -12.342,2.52 -18.848,2.317 -6.958,-0.218 -10.001,-2.392 -11.089,-3.466 -0.362,-0.358 -0.212,-0.823 0.284,-1.247 1.221,-1.044 3.653,-3.269 5.878,-6.16 3.971,-5.164 5.524,-8.877 5.101,-14.341 -0.04,-0.519 -0.439,-1.575 -0.928,-1.525 -3.418,0.347 -17.656,1.568 -26.79,-1.096 -10.438,-3.045 -20.458,-8.023 -29.14,-19.427 -7.588,-9.967 -13.937,-12.236 -16.353,-12.751 -0.676,-0.145 -1.376,-0.699 -1.968,-1.513 -1.021,-1.404 -2.817,-3.603 -5.019,-5.162 -3.482,-2.466 -5.366,-4.35 -10.44,-12.324 z" id="path113"/>
	<path style="fill:#ffffff" d="m 573.294,434.137 c -4.639,0 -6.814,-0.145 -8.119,0.58 -1.304,0.725 -1.014,2.755 1.304,4.495 2.32,1.739 4.205,4.494 2.32,5.219 -1.884,0.725 -3.189,1.305 -3.045,2.899 0.092,0.99 1.02,2.093 1.711,2.787 0.422,0.422 0.611,0.956 0.188,1.453 -0.618,0.727 -1.834,1.954 -4.072,3.589 -3.771,2.755 -5.945,4.204 -3.625,6.814 2.318,2.61 5.073,5.509 6.959,2.9 1.651,-2.288 3.415,-3.128 5.779,-3.495 0.333,-0.051 1.034,-0.529 1.053,-1.253 0.018,-0.725 0.054,-1.776 0.126,-3.081 0.146,-2.609 -1.884,-5.219 -0.434,-5.219 1.449,0 5.944,0.29 7.249,-0.29 1.303,-0.58 2.608,-2.029 2.608,-5.364 0,-2.462 -1.421,-4.292 -2.166,-5.081 -0.264,-0.279 -0.316,-0.51 -0.134,-0.655 0.542,-0.435 1.576,-1.441 1.14,-2.528 -0.579,-1.451 -2.173,-3.77 -8.842,-3.77 z" id="path114"/>
	<path style="fill:#ffffff" d="m 591.916,488.645 c 10.786,4.814 28.187,12.72 41.688,25.084 10.36,9.485 14.307,18.306 15.35,21.032 0.215,0.557 0.692,0.581 0.868,0.416 2.373,-2.226 2.578,-7.565 1.902,-13.91 -0.569,-5.35 -2.032,-10.431 -2.635,-12.368 -0.163,-0.53 0.283,-1.014 0.55,-1.11 12.678,-4.581 14.641,-12.033 14.937,-14.528 0.065,-0.536 -0.423,-0.643 -0.672,-0.549 -6.076,2.311 -16.422,2.24 -20.878,0.429 -5.765,-2.342 -8.509,-6.387 -9.521,-8.266 -0.338,-0.626 -0.189,-1.206 0.304,-1.57 2.366,-1.746 9.341,-7.407 10.773,-14.39 0.077,-0.378 -0.132,-1.117 -0.709,-1.083 -4.036,0.24 -20.91,0.827 -32.453,-5.135 -13.005,-6.718 -18.105,-14.87 -19.463,-17.446 -0.277,-0.528 -0.523,-0.418 -0.812,0.206 -0.594,1.284 -1.885,3.501 -4.226,5.062 -2.533,1.689 -5.141,2.378 -6.374,2.628 -0.462,0.095 -0.804,0.707 -0.693,1.595 0.108,0.888 0.397,2.084 1.123,3.316 1.449,2.464 5.655,5.944 12.903,6.089 6.49,0.13 7.867,-0.089 9.958,2.363 0.243,0.286 0.461,1.307 -0.256,1.673 -0.982,0.502 -2.732,1.061 -5.497,0.893 -4.116,-0.249 -10.486,-1.786 -14.494,-3.78 -0.65,-0.324 -2.259,-0.923 -3.029,-1.004 -2.773,-0.29 -4.61,-0.29 -6.398,0 -2.432,0.394 -3.109,2.618 -1.16,5.074 3.915,4.93 12.758,8.263 24.357,8.118 12.887,-0.16 19.684,-0.822 26.145,-5.577 0.224,-0.166 0.784,-0.241 0.9,0.328 0.391,1.919 0.854,7.226 -2.604,16.934 -0.074,0.211 -0.452,0.623 -0.899,0.594 -2.192,-0.137 -9.816,-0.578 -23.542,-0.97 -1.706,-0.049 -3.632,-0.135 -5.709,-0.278 z" id="path115"/>
	<path style="fill:#ffffff" d="m 534.44,396.734 c 0,1.321 -0.99,2.392 -2.212,2.392 -1.22,0 -2.209,-1.071 -2.209,-2.392 0,-1.321 0.989,-2.393 2.209,-2.393 1.223,0 2.212,1.071 2.212,2.393 z m 53.354,91.459 c -9.698,-0.954 -21.399,-3.23 -29.143,-8.534 -13.165,-9.017 -20.365,-18.13 -19.613,-40.557 0.012,-0.347 0.368,-1.123 1.818,-1.16 0.553,-0.014 0.972,-0.005 1.268,0.008 0.652,0.028 0.559,0.789 0.55,1.152 -0.37,15.388 1.519,22.793 11.339,31.858 10.05,9.279 23.969,11.598 32.958,13.435 7.864,1.608 26.384,1.29 30.894,1.186 0.643,-0.015 1.103,-0.485 1.147,-0.712 0.517,-2.746 0.142,-5.052 -0.093,-6.083 -0.085,-0.371 -0.803,-0.474 -1.123,-0.424 -24.794,3.82 -38.15,0.426 -51.412,-7.111 -9.543,-5.425 -11.824,-13.127 -12.358,-16.058 -0.136,-0.756 0.086,-1.225 0.573,-1.426 0.578,-0.237 1.492,-0.712 2.747,-1.653 2.32,-1.74 2.61,-2.609 2.464,-4.059 -0.145,-1.45 -2.319,-3.334 -3.769,-4.205 -1.45,-0.87 -2.9,-0.58 -2.32,-1.449 0.435,-0.652 1.931,-1.142 2.65,-1.346 0.24,-0.068 0.33,-0.34 0.259,-0.757 -0.219,-1.25 -0.517,-4.132 0.571,-7.176 1.449,-4.059 6.233,-3.334 10.583,-3.334 4.35,0 2.464,-1.884 -0.726,-3.479 -3.188,-1.595 -6.087,-4.349 -10.147,-10.583 -4.06,-6.234 -11.729,-17.513 -16.528,-22.761 -4.638,-5.074 -11.017,-4.349 -14.642,-2.465 -1.519,0.791 -1.873,2.307 -1.926,3.324 -0.032,0.599 0.278,1.177 0.647,1.465 1.286,1.009 4.179,3.702 4.179,7.534 0,3.773 -3.624,6.379 -3.624,6.379 0,0 0.289,7.394 -1.161,17.397 -1.45,10.003 -2.048,30.026 6.669,40.592 9.569,11.598 17.302,10.222 26.821,22.617 2.079,2.706 4.978,7.539 5.075,15.464 0.095,7.925 -1.45,12.854 -2.321,14.882 -0.87,2.031 -0.87,3.384 0.677,2.127 1.545,-1.256 3.479,-4.059 6.571,-6.282 3.094,-2.222 11.115,-1.159 14.306,0.774 3.188,1.933 4.059,2.803 5.025,2.706 0.967,-0.096 0.483,-2.61 -0.868,-5.316 -1.354,-2.706 -1.74,-7.442 -1.644,-14.401 0.085,-6.089 3.055,-10.551 3.798,-11.571 z" id="path116"/>
	<path style="display:inline;fill:#ffffff" d="m 521.853,397.153 c -0.213,-0.326 -0.515,-0.335 -0.787,-0.038 -0.814,0.893 -2.965,3.327 -3.974,4.74 -1.45,2.03 -0.393,3.19 1.691,4.157 1.21,0.56 2.235,0.828 2.884,0.954 0.469,0.092 0.893,-0.085 1.1,-0.438 0.43,-0.736 1.091,-2.168 1.091,-3.996 -10e-4,-2.045 -1.348,-4.367 -2.005,-5.379 z" id="path117"/>
	<path style="fill:#231f20" d="m 550.216,698.699 c 0.526,-2.64 0.442,-6.122 0.032,-9.974 -0.569,-5.349 -2.033,-10.431 -2.635,-12.369 -0.163,-0.529 0.283,-1.012 0.55,-1.108 12.678,-4.581 14.641,-12.032 14.938,-14.528 0.062,-0.536 -0.427,-0.644 -0.673,-0.549 -6.077,2.31 -16.422,2.24 -20.878,0.429 -5.766,-2.342 -8.509,-6.388 -9.521,-8.266 -0.339,-0.626 -0.189,-1.207 0.304,-1.57 2.364,-1.746 9.34,-7.408 10.773,-14.389 0.078,-0.38 -0.132,-1.119 -0.71,-1.085 -4.036,0.24 -20.909,0.827 -32.452,-5.135 -13.006,-6.717 -18.105,-14.869 -19.465,-17.445 -0.276,-0.528 -0.523,-0.418 -0.812,0.205 -0.592,1.284 -1.884,3.502 -4.226,5.062 -2.532,1.689 -5.141,2.377 -6.374,2.628 -0.461,0.096 -0.802,0.706 -0.693,1.596 0.109,0.887 0.398,2.083 1.123,3.315 1.451,2.464 5.655,5.944 12.903,6.089 6.49,0.129 7.867,-0.088 9.958,2.363 0.244,0.286 0.462,1.306 -0.256,1.672 -0.982,0.503 -2.732,1.061 -5.497,0.893 -4.115,-0.249 -10.487,-1.786 -14.493,-3.78 -0.651,-0.323 -2.259,-0.924 -3.031,-1.004 -2.773,-0.29 -4.609,-0.29 -6.397,0 -2.434,0.394 -3.111,2.618 -1.16,5.074 3.914,4.93 12.758,8.263 24.355,8.119 12.889,-0.161 19.685,-0.823 26.146,-5.577 0.225,-0.166 0.784,-0.241 0.9,0.328 0.391,1.919 0.854,7.227 -2.604,16.933 -0.074,0.212 -0.452,0.624 -0.899,0.595 -2.192,-0.136 -9.817,-0.577 -23.543,-0.971 -1.705,-0.048 -3.632,-0.133 -5.707,-0.278 l 0.263,0.132 c 10.786,4.813 28.187,12.719 41.689,25.083 7.33,6.711 11.449,13.091 13.602,17.212 l 0.068,0.102 c -2.306,-0.123 -4.612,-0.239 -6.921,-0.346 l -0.056,-0.073 c -6.374,-8.625 -15.484,-16.933 -23.848,-23.13 -7.963,-5.897 -18.398,-10.22 -22.903,-11.939 -1.4,-0.536 -2.548,0.585 -2.685,1.254 -2.418,11.659 -0.502,16.777 2.971,21.898 2.561,3.773 0.773,6.765 -3.093,6.765 -3.865,0 -6.959,-2.9 -12.021,-5.336 -6.204,-2.984 -9.822,-1.045 -13.222,2.32 -2.918,2.886 -6.65,4.602 -8.97,4.368 -2.32,-0.232 -1.702,-5.296 -0.076,-9.702 1.624,-4.409 3.478,-14.151 -2.582,-22.821 -8.092,-11.575 -21.166,-12.033 -31.605,-26.24 -10.438,-14.208 -6.234,-33.489 -3.625,-42.767 1.648,-5.856 1.736,-10.035 1.576,-12.323 -0.093,-1.338 -1.019,-2.503 -1.461,-2.733 -2.43,-1.269 -6.585,-2.769 -8.508,-3.437 -0.638,-0.223 -0.853,-0.595 -0.543,-1.013 1.536,-2.081 6.358,-8.551 9.293,-11.822 0.233,-0.258 0.68,-0.979 0.767,-1.428 0.258,-1.345 1.087,-4.322 3.588,-6.604 2.822,-2.576 12.08,-4.932 18.557,0.506 5.871,4.93 12.698,14.684 18.483,23.776 5.075,7.973 6.96,9.858 10.438,12.322 2.202,1.559 3.997,3.758 5.019,5.162 0.593,0.815 1.294,1.369 1.969,1.514 2.415,0.515 8.764,2.785 16.352,12.751 8.683,11.403 18.703,16.382 29.141,19.427 9.133,2.663 23.373,1.443 26.79,1.096 0.489,-0.049 0.888,1.005 0.928,1.524 0.423,5.465 -1.13,9.178 -5.102,14.342 -2.223,2.891 -4.656,5.115 -5.877,6.16 -0.496,0.424 -0.646,0.89 -0.284,1.247 1.087,1.074 4.132,3.248 11.09,3.466 6.504,0.202 15.518,-1.595 18.847,-2.317 0.828,-0.18 1.395,0.269 1.418,1.229 0.067,2.881 -0.477,9.35 -5.913,15.005 -4.268,4.439 -7.814,6.623 -9.323,7.437 -0.501,0.273 -0.41,1.33 -0.246,1.8 2.089,6.013 2.111,12.313 1.19,19.125 l -0.021,0.103 c -1.703,-0.11 -3.407,-0.216 -5.112,-0.317" id="path118"/>
	<path style="fill:#ffffff" d="m 471.816,601.595 c -4.64,0 -6.814,-0.146 -8.119,0.581 -1.305,0.724 -1.015,2.753 1.304,4.494 2.32,1.739 4.205,4.494 2.32,5.22 -1.885,0.724 -3.189,1.304 -3.045,2.899 0.09,0.991 1.02,2.093 1.71,2.786 0.422,0.422 0.611,0.956 0.189,1.455 -0.619,0.725 -1.836,1.953 -4.073,3.586 -3.77,2.756 -5.944,4.204 -3.625,6.814 2.32,2.61 5.074,5.51 6.959,2.899 1.653,-2.287 3.416,-3.127 5.78,-3.494 0.331,-0.052 1.034,-0.529 1.052,-1.254 0.018,-0.724 0.054,-1.776 0.127,-3.08 0.146,-2.61 -1.885,-5.22 -0.435,-5.22 1.45,0 5.944,0.29 7.248,-0.29 1.304,-0.579 2.61,-2.029 2.61,-5.363 0,-2.462 -1.422,-4.293 -2.167,-5.08 -0.263,-0.281 -0.315,-0.51 -0.134,-0.657 0.543,-0.434 1.576,-1.439 1.142,-2.526 -0.579,-1.45 -2.174,-3.77 -8.843,-3.77 z" id="path119"/>
	<path style="fill:#ffffff" d="m 432.962,564.191 c 0,1.323 -0.989,2.393 -2.211,2.393 -1.221,0 -2.211,-1.069 -2.211,-2.393 0,-1.321 0.99,-2.391 2.211,-2.391 1.222,0 2.211,1.071 2.211,2.391 z m 53.354,91.46 c -9.699,-0.953 -21.399,-3.23 -29.143,-8.534 -13.166,-9.017 -20.366,-18.131 -19.613,-40.557 0.012,-0.347 0.367,-1.123 1.817,-1.161 0.556,-0.013 0.972,-0.003 1.269,0.008 0.652,0.029 0.558,0.79 0.549,1.153 -0.369,15.387 1.519,22.792 11.339,31.858 10.051,9.277 23.97,11.597 32.958,13.434 7.865,1.608 26.385,1.29 30.895,1.185 0.642,-0.014 1.103,-0.483 1.147,-0.71 0.516,-2.747 0.141,-5.053 -0.093,-6.084 -0.085,-0.37 -0.803,-0.474 -1.125,-0.424 -24.793,3.82 -38.149,0.425 -51.411,-7.112 -9.543,-5.424 -11.824,-13.127 -12.357,-16.058 -0.137,-0.756 0.086,-1.226 0.573,-1.425 0.577,-0.237 1.492,-0.712 2.747,-1.653 2.318,-1.74 2.609,-2.61 2.464,-4.059 -0.146,-1.451 -2.32,-3.335 -3.77,-4.205 -1.449,-0.871 -2.899,-0.579 -2.32,-1.45 0.435,-0.652 1.931,-1.141 2.651,-1.345 0.24,-0.068 0.33,-0.341 0.259,-0.756 -0.219,-1.251 -0.517,-4.132 0.57,-7.177 1.45,-4.059 6.234,-3.335 10.584,-3.335 4.349,0 2.464,-1.884 -0.725,-3.478 -3.19,-1.595 -6.089,-4.349 -10.148,-10.584 -4.06,-6.233 -11.73,-17.513 -16.528,-22.761 -4.639,-5.074 -11.018,-4.349 -14.643,-2.464 -1.519,0.791 -1.872,2.307 -1.926,3.324 -0.032,0.598 0.278,1.175 0.649,1.465 1.287,1.008 4.178,3.703 4.178,7.534 0,3.771 -3.624,6.379 -3.624,6.379 0,0 0.29,7.394 -1.16,17.396 -1.45,10.004 -2.049,30.026 6.669,40.594 9.569,11.597 17.301,10.22 26.821,22.616 2.078,2.707 4.978,7.537 5.074,15.464 0.096,7.925 -1.45,12.855 -2.32,14.884 -0.87,2.029 -0.87,3.383 0.676,2.126 1.546,-1.256 3.48,-4.059 6.574,-6.282 3.093,-2.222 11.114,-1.16 14.303,0.772 3.189,1.935 4.059,2.804 5.026,2.707 0.967,-0.097 0.483,-2.61 -0.87,-5.316 -1.353,-2.705 -1.74,-7.441 -1.643,-14.4 0.083,-6.089 3.055,-10.551 3.796,-11.571 z" id="path120"/>
	<path style="fill:#ffffff" d="m 420.376,564.611 c -0.212,-0.326 -0.516,-0.335 -0.787,-0.038 -0.815,0.892 -2.965,3.328 -3.974,4.74 -1.45,2.029 -0.394,3.19 1.691,4.156 1.209,0.56 2.235,0.828 2.884,0.954 0.469,0.092 0.893,-0.086 1.1,-0.437 0.429,-0.736 1.09,-2.167 1.09,-3.997 -10e-4,-2.043 -1.347,-4.365 -2.004,-5.378 z" id="path121"/>
	<path style="fill:#ffffff" d="m 659.315,768.884 c 0,2.082 -1.689,3.77 -3.77,3.77 -2.082,0 -3.769,-1.688 -3.769,-3.77 0,-2.081 1.686,-3.77 3.769,-3.77 2.082,0 3.77,1.689 3.77,3.77 z" id="path122"/>
	<path style="fill:#ffffff" d="m 723.393,787.586 c 0,2.081 -1.686,3.769 -3.768,3.769 -2.081,0 -3.77,-1.688 -3.77,-3.769 0,-2.082 1.689,-3.769 3.77,-3.769 2.082,0 3.768,1.686 3.768,3.769 z" id="path123"/>
	<polygon style="fill:#f9b233" points="527.098,200.356 543.844,251.937 499.985,220.074 456.121,251.937 472.863,200.356 429.002,168.491 483.217,168.491 499.985,116.909 516.752,168.491 570.966,168.491 " id="polygon123" transform="matrix(0.49373695,0,0,0.49373695,253.13942,105.03554)"/>
<path id="path124" style="fill:#ffffff" d="m 490.13477,612.37109 c -0.14853,0.004 -0.29643,0.19197 -0.45899,0.54297 -0.594,1.284 -1.88556,3.5015 -4.22656,5.0625 -2.533,1.689 -5.14005,2.37696 -6.37305,2.62696 -0.462,0.095 -0.80436,0.7077 -0.69336,1.5957 0.108,0.888 0.39705,2.08441 1.12305,3.3164 1.449,2.46402 5.65434,5.9429 12.90234,6.0879 6.49,0.13 7.86799,-0.0887 9.95899,2.36328 0.243,0.286 0.46114,1.30783 -0.25586,1.67382 -0.982,0.502 -2.73305,1.06058 -5.49805,0.89258 -4.116,-0.249 -10.48614,-1.78529 -14.49414,-3.77929 -0.65,-0.324 -2.2593,-0.92486 -3.0293,-1.00586 -2.773,-0.29 -4.60848,-0.29 -6.39648,0 -2.432,0.394 -3.10916,2.61822 -1.16016,5.07422 3.915,4.93 12.75647,8.26414 24.35547,8.11914 12.887,-0.16 19.68549,-0.82313 26.14649,-5.57813 0.224,-0.166 0.78439,-0.24087 0.90039,0.32813 0.391,1.919 0.85253,7.22559 -2.60547,16.93359 -0.074,0.211 -0.45144,0.6247 -0.89844,0.5957 -2.192,-0.137 -9.81697,-0.5787 -23.54297,-0.9707 -1.706,-0.049 -3.63198,-0.13434 -5.70898,-0.27734 l 0.26758,0.1289 c 10.786,4.814 28.1865,12.71999 41.6875,25.08399 9.38183,8.58945 13.50514,16.63451 14.97461,20.10156 0.0797,0.004 0.15857,0.008 0.23828,0.0117 0.34177,0.0112 0.68212,0.0445 1.02343,0.0645 0.30369,0.0111 0.60641,0.0305 0.90821,0.0644 1.48812,-2.64584 1.54911,-7.31074 0.97461,-12.70312 -0.569,-5.35 -2.03177,-10.43214 -2.63477,-12.36914 -0.163,-0.53 0.28378,-1.01338 0.55078,-1.10938 12.678,-4.581 14.6415,-12.03234 14.9375,-14.52734 0.065,-0.536 -0.42287,-0.64283 -0.67187,-0.54883 -6.076,2.311 -16.42291,2.23874 -20.87891,0.42774 -5.765,-2.342 -8.50948,-6.38663 -9.52148,-8.26563 -0.338,-0.626 -0.18832,-1.20631 0.30468,-1.57031 2.366,-1.746 9.34144,-7.40763 10.77344,-14.39063 0.077,-0.378 -0.13198,-1.11603 -0.70898,-1.08203 -4.036,0.24 -20.91013,0.82724 -32.45313,-5.13476 -13.005,-6.718 -18.10489,-14.87127 -19.46289,-17.44727 -0.12119,-0.231 -0.238,-0.33879 -0.35351,-0.33594 z"/></g>
</svg>