<svg xmlns="http://www.w3.org/2000/svg" width="285.74877167718756" height="349.9577597938749" viewBox="0 0 761 932" fill="none"><g clip-path="url(#clip0_2606_145)"><path d="M755.52 147.27C735.97 115.83 686.59 79.37 626.64 52.12C574.35 28.34 489.16 0 380.32 0C271.48 0 186.3 28.34 134 52.12C74.06 79.37 24.67 115.83 5.13 147.27L0 155.52V349.41C0 370.39 0 434.24 15.69 509.81C33.66 596.37 66.43 672.62 113.11 736.45C217.7 879.47 364.09 926.07 370.27 927.99L380.33 931.11L390.39 927.99C396.57 926.08 542.96 879.47 647.55 736.45C694.22 672.63 727 596.38 744.97 509.81C751.47 478.48 755.28 449.16 757.51 424.08C760.66 388.66 760.66 361.69 760.66 349.4V155.51L755.53 147.26L755.52 147.27ZM620.09 716.37C520.95 851.95 380.33 895.5 380.33 895.5C380.33 895.5 239.71 851.95 140.57 716.37C67.7 616.73 44.58 502.84 37.31 424.09C34.39 392.47 34.02 366.51 34.02 349.41V165.24C61.44 121.12 195.34 34.02 380.32 34.02C565.3 34.02 699.21 121.12 726.63 165.23V349.4C726.63 366.49 726.26 392.46 723.34 424.08C716.07 502.84 692.95 616.72 620.08 716.36L620.09 716.37Z" fill="#1A1A1A"/><path d="M140.56 716.36C239.7 851.94 380.32 895.49 380.32 895.49C380.32 895.49 520.94 851.94 620.08 716.36C692.95 616.72 716.07 502.83 723.34 424.08H37.3C44.57 502.84 67.69 616.72 140.56 716.36Z" fill="#DF1F31"/><path d="M726.63 165.23C699.21 121.12 565.3 34.02 380.32 34.02C195.34 34.02 61.44 121.12 34.02 165.23V349.4C34.02 366.49 34.39 392.46 37.31 424.08H723.35C726.27 392.46 726.64 366.5 726.64 349.4V165.23H726.63Z" fill="white"/><mask id="mask0_2606_145" style="mask-type:luminance" maskUnits="userSpaceOnUse" x="37" y="424" width="687" height="472"><path d="M140.56 716.36C239.7 851.94 380.32 895.49 380.32 895.49C380.32 895.49 520.94 851.94 620.08 716.36C692.95 616.72 716.07 502.83 723.34 424.08H37.3C44.57 502.84 67.69 616.72 140.56 716.36Z" fill="white"/></mask><g mask="url(#mask0_2606_145)"><path d="M190.83 643.83L179.12 632.12C179.12 632.12 179.12 629.11 179.12 578.94C179.12 528.77 139.32 452.51 47 441.47C47 441.47 145 430.77 190.83 530.44C236.65 430.76 334.66 441.47 334.66 441.47C242.34 452.51 202.54 528.77 202.54 578.94V632.12L190.83 643.83Z" fill="white"/><path d="M248.2 587.18V578.94C248.2 528.77 288 452.51 380.32 441.47C380.32 441.47 282.32 430.77 236.49 530.44C190.67 430.76 92.6602 441.47 92.6602 441.47C184.98 452.51 224.78 528.77 224.78 578.94C224.78 592.51 224.78 603.7 224.78 611.24L248.19 587.18H248.2Z" fill="white"/><path d="M133.46 587.18V578.94C133.46 528.77 93.6601 452.51 1.34009 441.47C1.34009 441.47 99.3401 430.77 145.17 530.44C190.99 430.76 289 441.47 289 441.47C196.68 452.51 156.88 528.77 156.88 578.94C156.88 592.51 156.88 603.7 156.88 611.24L133.47 587.18H133.46Z" fill="white"/><path d="M380.33 653.65C433.261 653.65 476.17 610.741 476.17 557.81C476.17 504.879 433.261 461.97 380.33 461.97C327.399 461.97 284.49 504.879 284.49 557.81C284.49 610.741 327.399 653.65 380.33 653.65Z" fill="white"/><path d="M365.83 636.08C365.83 636.08 370.88 638.18 380.32 638.18C389.76 638.18 394.81 636.08 394.81 636.08C409.3 624.92 413.52 609.7 413.52 609.7L397.6 588.31H363.03L347.11 609.7C347.11 609.7 351.33 624.92 365.82 636.08H365.83Z" fill="#DF1F31"/><path d="M380.32 643.39C374.87 643.39 369.53 642.88 364.36 641.9L355.03 643.61C363.05 645.97 371.54 647.24 380.32 647.24C389.1 647.24 397.59 645.97 405.61 643.61L396.28 641.9C391.11 642.88 385.77 643.39 380.32 643.39Z" fill="#DF1F31"/><path d="M301.69 570.23C301.69 570.23 301.39 575.69 304.54 584.6C307.69 593.51 311.35 597.57 311.35 597.57C326.7 607.52 342.46 606.42 342.46 606.42L357.32 584.28L351.56 567.98L345.8 551.68L320.33 543.79C320.33 543.79 307.39 552.84 301.7 570.22L301.69 570.23Z" fill="#DF1F31"/><path d="M299.64 586.33C297.82 581.19 296.53 575.99 295.72 570.79L290.99 562.56C291.44 570.91 293.07 579.33 296 587.62C298.93 595.91 302.95 603.48 307.85 610.26L306.36 600.89C303.72 596.34 301.46 591.48 299.64 586.34V586.33Z" fill="#DF1F31"/><path d="M345.6 486.18C345.6 486.18 340.29 487.48 332.68 493.08C325.07 498.68 322.25 503.36 322.25 503.36C317.19 520.94 322.81 535.7 322.81 535.7L348.31 543.49L362.23 533.25L376.15 523.01L376.3 496.35C376.3 496.35 363.88 486.59 345.59 486.2L345.6 486.18Z" fill="#DF1F31"/><path d="M329.6 488.89C333.99 485.66 338.59 482.91 343.34 480.63L349.84 473.72C341.98 476.57 334.39 480.58 327.32 485.79C320.25 491 314.16 497.05 309.1 503.7L317.63 499.55C321.22 495.7 325.21 492.13 329.6 488.89Z" fill="#DF1F31"/><path d="M458.96 570.23C458.96 570.23 459.26 575.69 456.11 584.6C452.96 593.51 449.3 597.57 449.3 597.57C433.95 607.52 418.19 606.42 418.19 606.42L403.33 584.28L409.09 567.98L414.85 551.68L440.32 543.79C440.32 543.79 453.26 552.84 458.95 570.22L458.96 570.23Z" fill="#DF1F31"/><path d="M461.01 586.33C462.83 581.19 464.12 575.99 464.93 570.79L469.66 562.56C469.21 570.91 467.58 579.33 464.65 587.62C461.72 595.9 457.7 603.48 452.8 610.26L454.29 600.89C456.93 596.34 459.19 591.48 461.01 586.34V586.33Z" fill="#DF1F31"/><path d="M415.05 486.18C415.05 486.18 420.36 487.48 427.97 493.08C435.58 498.68 438.4 503.36 438.4 503.36C443.46 520.94 437.84 535.7 437.84 535.7L412.34 543.49L398.42 533.25L384.5 523.01L384.35 496.35C384.35 496.35 396.77 486.59 415.06 486.2L415.05 486.18Z" fill="#DF1F31"/><path d="M431.05 488.89C426.66 485.66 422.06 482.91 417.31 480.63L410.81 473.72C418.67 476.57 426.26 480.58 433.33 485.79C440.41 491 446.49 497.05 451.55 503.7L443.02 499.55C439.43 495.7 435.44 492.13 431.05 488.89Z" fill="#DF1F31"/><path d="M569.82 643.83L581.53 632.12V578.94C581.53 528.77 621.33 452.51 713.65 441.47C713.65 441.47 615.65 430.77 569.82 530.44C524 430.76 425.99 441.47 425.99 441.47C518.31 452.51 558.11 528.77 558.11 578.94C558.11 629.11 558.11 632.12 558.11 632.12L569.82 643.83Z" fill="white"/><path d="M512.45 587.18C512.45 584.59 512.45 581.84 512.45 578.94C512.45 528.77 472.65 452.51 380.33 441.47C380.33 441.47 478.33 430.77 524.16 530.44C569.98 430.76 667.99 441.47 667.99 441.47C575.67 452.51 535.87 528.77 535.87 578.94C535.87 592.51 535.87 603.7 535.87 611.24L512.46 587.18H512.45Z" fill="white"/><path d="M627.19 587.18V578.94C627.19 528.77 666.99 452.51 759.31 441.47C759.31 441.47 661.31 430.77 615.48 530.44C569.66 430.76 471.65 441.47 471.65 441.47C563.97 452.51 603.77 528.77 603.77 578.94C603.77 592.51 603.77 603.7 603.77 611.24L627.18 587.18H627.19Z" fill="white"/></g><path d="M276.56 708.92V714.37H256.49V686.23H262.55V708.92H276.56Z" fill="white"/><path d="M288.59 686.23H294.65V714.37H288.59V686.23Z" fill="white"/><path d="M308.58 686.23H314.6L323.32 702.12L332 686.23H338.06V714.37H332V696.84L323.32 712.73L314.6 696.84V714.37H308.58V686.23Z" fill="white"/><path d="M357.96 691.68V697.29H372.09V702.74H357.96V708.92H373.56V714.37H351.89V686.23H373.56V691.68H357.96Z" fill="white"/><path d="M403.13 714.37L396.7 705.24H392.24V714.37H386.22V686.23H398.87C404.97 686.23 409.48 690.16 409.48 695.73C409.48 699.91 406.94 703.18 403.09 704.54L410.01 714.37H403.13ZM392.24 699.71H398.22C401.21 699.71 403.26 698.15 403.26 695.74C403.26 693.33 401.21 691.77 398.22 691.77H392.24V699.72V699.71Z" fill="white"/><path d="M422.13 686.23H428.19V714.37H422.13V686.23Z" fill="white"/><path d="M440.77 700.28C440.77 692.38 447.65 685.74 455.72 685.74C459.98 685.74 463.91 687.54 466.65 690.45L462.27 694.38C460.63 692.5 458.3 691.23 455.72 691.23C451.01 691.23 447 695.41 447 700.28C447 705.15 451.01 709.37 455.72 709.37C458.3 709.37 460.63 708.1 462.27 706.22L466.65 710.15C463.91 713.02 459.97 714.86 455.72 714.86C447.65 714.86 440.77 708.18 440.77 700.28Z" fill="white"/><path d="M478.65 686.23H484.67V699.13L496.06 686.23H503.39L492.41 698.43L504.16 714.36H496.83L488.19 702.73L484.67 706.5V714.36H478.65V686.22V686.23Z" fill="white"/><path d="M186.28 152.53H158.2V322.81H142.07V152.53H113.75V138.01H186.28V152.53Z" fill="#DF1F31"/><path d="M283.67 322.81H266.73L232.96 223.85L235.17 220.54H263.95V152.52H222.52V322.8H206.39V138H267.2C270.99 138 274.09 139.22 276.48 141.66C278.88 144.1 280.08 147.25 280.08 151.11V221.25C280.08 230.15 274.2 234.59 262.44 234.59C261.28 234.59 259.58 234.53 257.33 234.41C255.08 234.29 253.46 234.23 252.46 234.23C262.9 263.67 273.31 293.2 283.68 322.79L283.67 322.81Z" fill="#DF1F31"/><path d="M368.65 322.81H309V138.01H367.95V152.53H325.13V221.49H364.12V236.25H325.13V308.28H368.65V322.8V322.81Z" fill="#DF1F31"/><path d="M468.25 322.81H452.24L445.86 281.72H409.77L403.39 322.81H387.84V322.34L420.22 137.53H436.12L468.27 322.81H468.25ZM443.76 267.19L427.86 167.05L411.85 267.19H443.76Z" fill="#DF1F31"/><path d="M553.8 152.53H525.72V322.81H509.59V152.53H481.27V138.01H553.8V152.53Z" fill="#DF1F31"/><path d="M646.9 139.07L624.85 213.82C622.06 221.3 618.39 233.78 613.83 251.25V322.81H597.7V251.25C596.62 245.27 594.95 238.97 592.71 232.36C589 221.02 586.98 214.84 586.68 213.82L564.63 139.07V138.01H580.99L605.94 230.47L630.66 138.01H646.91V139.07H646.9Z" fill="#DF1F31"/><path d="M309.67 401.85C309.67 403.2 309.23 404.3 308.35 405.15C307.47 406 306.34 406.43 304.98 406.43H287.12C285.75 406.43 284.63 406 283.77 405.15C282.9 404.3 282.47 403.2 282.47 401.85V341.85H288.3V401.35H303.85V341.85H309.68V401.85H309.67Z" fill="#DF1F31"/><path d="M350.45 406.43H346.43L328.91 358.94V406.43H323.42V341.85H327.78L344.97 388.52V341.85H350.46V406.43H350.45Z" fill="#DF1F31"/><path d="M370.35 406.43H364.52V341.85H370.35V406.43Z" fill="#DF1F31"/><path d="M407.15 346.93H397.01V406.43H391.18V346.93H380.95V341.85H407.15V346.93Z" fill="#DF1F31"/><path d="M438.79 406.43H417.24V341.85H438.54V346.93H423.07V371.03H437.15V376.19H423.07V401.36H438.79V406.44V406.43Z" fill="#DF1F31"/><path d="M478.19 394.75C478.19 398.16 477.05 400.96 474.77 403.15C472.49 405.34 469.62 406.43 466.16 406.43H451.15V341.85H466.16C469.65 341.85 472.53 342.94 474.79 345.13C477.05 347.32 478.19 350.12 478.19 353.53V394.75ZM472.36 394.17V354.02C472.36 351.9 471.68 350.19 470.33 348.88C468.97 347.57 467.22 346.92 465.07 346.92H456.98V401.35H464.73C466.99 401.35 468.83 400.71 470.24 399.43C471.65 398.15 472.36 396.4 472.36 394.17Z" fill="#DF1F31"/><path d="M337.6 747.92V755.14H349.72V758.6H337.6V766.3H351.02V769.76H334.21V744.44H351.02V747.9H337.6V747.92Z" fill="white"/><path d="M354.01 766.12L356.04 763.36C358.07 765.5 360.47 766.9 363.56 766.9C366.65 766.9 368.35 765.06 368.35 763.03C368.35 760.63 366.45 759.71 362.62 758.75C357.96 757.53 354.86 755.99 354.86 751.42C354.86 747.18 358.19 743.98 362.78 743.98C366.31 743.98 368.94 745.42 371.14 747.55L369.21 750.35C367.28 748.4 364.98 747.25 362.65 747.25C360.09 747.25 358.29 749.06 358.29 751.08C358.29 753.44 360.25 754.25 364.02 755.24C368.58 756.42 371.74 758.11 371.74 762.65C371.74 766.92 368.81 770.17 363.42 770.17C359.59 770.17 356.43 768.7 354 766.12H354.01Z" fill="white"/><path d="M382.24 747.92H374.75V744.46H393.13V747.92H385.61V769.77H382.25V747.92H382.24Z" fill="white"/><path d="M397.35 744.46H405.24C412.63 744.46 417.89 749.69 417.89 757.1C417.89 764.51 412.63 769.78 405.24 769.78H397.35V744.46ZM405.44 766.39C410.73 766.39 414.43 762.56 414.43 757.1C414.43 751.64 410.73 747.85 405.44 747.85H400.71V766.39H405.44Z" fill="white"/><path d="M422.05 767.71C422.05 766.46 423.02 765.31 424.28 765.31C425.48 765.31 426.44 766.45 426.44 767.71C426.44 769.07 425.47 770.22 424.28 770.22C423.01 770.22 422.05 769.08 422.05 767.71Z" fill="white"/><path d="M292.68 824.28L310.48 809.37C316.98 803.85 319.45 799.62 319.45 795.18C319.45 789.8 315.07 786.65 310.27 786.65C304.97 786.65 301.09 789.52 297.69 793.96L292.89 789.66C297.13 783.71 302.85 780.13 310.55 780.13C319.59 780.13 326.8 786.08 326.8 795.04C326.8 801.63 323.69 806.87 315.36 813.75L303.99 823.5H327.23V830.24H292.68V824.29V824.28Z" fill="white"/><path d="M335.28 805.57C335.28 790.66 343.83 780.13 356.05 780.13C368.27 780.13 376.75 790.67 376.75 805.57C376.75 820.47 368.13 831.08 356.05 831.08C343.97 831.08 335.28 820.54 335.28 805.57ZM369.4 805.57C369.4 794.53 363.89 786.79 356.05 786.79C348.21 786.79 342.56 794.53 342.56 805.57C342.56 816.61 348.14 824.42 356.05 824.42C363.96 824.42 369.4 816.61 369.4 805.57Z" fill="white"/><path d="M383.89 824.28L401.69 809.37C408.19 803.85 410.66 799.62 410.66 795.18C410.66 789.8 406.28 786.65 401.48 786.65C396.18 786.65 392.3 789.52 388.9 793.96L384.1 789.66C388.34 783.71 394.06 780.13 401.76 780.13C410.8 780.13 418.01 786.08 418.01 795.04C418.01 801.63 414.9 806.87 406.56 813.75L395.19 823.5H418.43V830.24H383.88V824.29L383.89 824.28Z" fill="white"/><path d="M426.5 805.57C426.5 790.66 435.05 780.13 447.27 780.13C459.49 780.13 467.97 790.67 467.97 805.57C467.97 820.47 459.35 831.08 447.27 831.08C435.19 831.08 426.5 820.54 426.5 805.57ZM460.62 805.57C460.62 794.53 455.11 786.79 447.27 786.79C439.43 786.79 433.78 794.53 433.78 805.57C433.78 816.61 439.36 824.42 447.27 824.42C455.18 824.42 460.62 816.61 460.62 805.57Z" fill="white"/></g><defs><clipPath id="clip0_2606_145"><rect width="760.65" height="931.1" fill="white"/></clipPath></defs></svg>