<?xml version="1.0" encoding="UTF-8" standalone="no"?>
<svg
   viewBox="0 0 600 600"
   id="svg2"
   height="300"
   width="300"
   version="1.1"
   xmlns:xlink="http://www.w3.org/1999/xlink"
   xmlns="http://www.w3.org/2000/svg"
   xmlns:svg="http://www.w3.org/2000/svg"
   xmlns:rdf="http://www.w3.org/1999/02/22-rdf-syntax-ns#"
   xmlns:cc="http://creativecommons.org/ns#"
   xmlns:dc="http://purl.org/dc/elements/1.1/">
  <metadata
     id="metadata197">
    <rdf:RDF>
      <cc:Work
         rdf:about="">
        <dc:format>image/svg+xml</dc:format>
        <dc:type
           rdf:resource="http://purl.org/dc/dcmitype/StillImage" />
      </cc:Work>
    </rdf:RDF>
  </metadata>
  <defs
     id="defs195" />
  <g
     id="g4"
     transform="translate(2.36235,-120.94475)">
    <defs
       id="defs6">
      <linearGradient
         id="grad1"
         gradientTransform="scale(0.95360947,1.0486473)"
         x1="41.802437"
         y1="131.10242"
         x2="582.4314"
         y2="131.10242"
         gradientUnits="userSpaceOnUse">
        <stop
           id="stop9"
           stop-opacity="1"
           stop-color="#8a2525"
           offset="201392128.0000%" />
        <stop
           id="stop11"
           stop-opacity="1"
           stop-color="#8a2525"
           offset="201392148.0000%" />
        <stop
           id="stop13"
           stop-opacity="1"
           stop-color="#a72127"
           offset="201392164.0000%" />
        <stop
           id="stop15"
           stop-opacity="1"
           stop-color="#a72127"
           offset="201392191.0000%" />
        <stop
           id="stop17"
           stop-opacity="1"
           stop-color="#8c2526"
           offset="201392209.0000%" />
        <stop
           id="stop19"
           stop-opacity="1"
           stop-color="#8a2525"
           offset="100.0000%" />
      </linearGradient>
    </defs>
    <path
       id="path21"
       style="fill:url(#grad1)"
       d="m 63.1454,182.5927 c 66.7583,-27.4306 155.5809,-45.1125 234.5828,-45.1125 79.0019,0 161.6408,14.7237 238.2183,45.2471 4.4657,56.958 11.2163,164.121 -33.6336,288.7696 l 53.0992,-4.5735 -23.2137,103.172 -94.5302,23.607 C 399.7299,646.789 348.5944,685.5838 299.3441,704.4093 235.1806,679.1128 194.1292,637.5127 161.9362,594.4074 L 63.4264,570.2542 39.8632,466.488 96.7528,470.9904 C 67.0891,393.2602 52.4151,291.0684 63.1454,182.5927 Z" />
    <path
       id="path23"
       style="fill:#a91e26;fill-rule:evenodd"
       d="m 63.1998,182.5705 c 66.752,-27.4179 155.5477,-45.0903 234.5284,-45.0903 79.0019,0 161.6408,14.7237 238.2183,45.2471 l 0.004,0.0482 L 503.4927,207.774 96.004,208.3127 63.2,182.5705 Z" />
    <path
       id="path25"
       style="fill:#c41d2a;fill-rule:evenodd"
       d="m 516.5616,197.7253 c -69.2495,-25.8111 -145.0875,-39.014 -218.8334,-39.014 -69.1984,0 -149.4713,14.185 -215.1432,39.0874 -8.2262,102.6868 3.2958,189.5648 41.6426,288.7162 1.3113,0.0861 2.6226,0.1708 3.9344,0.255 -9.5368,-24.5148 -17.8943,-49.4771 -24.6484,-74.9079 -6.9373,-26.1193 -12.1327,-52.608 -15.425,-79.4339 -5.3979,-43.9813 -5.5294,-87.9584 -2.115,-132.0821 31.8586,-11.9164 65.2761,-20.744 98.672,-27.0198 37.0526,-6.9629 75.363,-11.0366 113.0826,-11.0366 72.7065,0 147.1066,12.8365 215.3989,37.9793 1.9392,33.2821 2.8128,66.4706 0.5513,99.7786 -2.0713,30.5115 -6.3273,60.7558 -12.9717,90.6108 -7.3441,32.9984 -17.5247,65.1311 -30.0213,96.5016 1.3166,-0.082 2.6332,-0.1646 3.9497,-0.2488 24.214,-61.1785 38.1786,-121.2988 42.6135,-186.6212 2.3512,-34.6322 1.3626,-68.2435 -0.687,-102.5646 z M 180.4805,585.1611 c 32.4351,42.5569 69.6552,75.1701 118.9414,96.3241 46.374,-19.7285 88.1619,-54.9781 117.9474,-95.165 l -4.099,1.0671 -1.1801,7e-4 c -29.042,38.101 -68.807,71.2046 -112.663,90.2009 C 252.6689,657.2126 217.012,626.2564 186.105,586.5972 Z" />
    <path
       id="path27"
       style="fill:#ffffff;fill-rule:evenodd"
       d="m 299.0908,425.512 c 16.4486,-7.7272 32.6864,-18.5534 43.8652,-33.0051 5.6567,-7.3133 11.8118,-18.3518 11.6771,-27.9185 l -1.011,-71.7845 H 244.5249 l -1.0083,68.8246 c -0.4344,29.6455 31.1052,52.1925 55.5742,63.8835 z" />
    <path
       id="path29"
       style="fill:#ffffff;fill-rule:evenodd"
       d="m 157.58,243.1458 c 2.7724,9.2043 8.8607,17.4279 17.8341,22.3213 7.7279,4.2145 16.904,6.1536 25.6593,6.4242 18.8163,0.5813 38.5853,-6.7508 47.2584,-24.2777 1.3757,-2.7801 2.1495,-5.3884 2.8745,-8.4447 -30.907,0.4988 -62.4166,1.5766 -93.6263,3.9769 z m 98.6495,-4.053 c 0.7273,3.323 1.6646,6.5897 3.2655,9.6227 8.3939,15.9038 22.4151,20.6178 40.1829,20.8847 16.2203,0.2438 32.1212,-6.4989 39.4751,-21.2139 1.5522,-3.1064 2.4513,-5.5864 3.4055,-9.4908 -14.0743,-0.2157 -28.2593,-0.1875 -42.5798,-0.1434 -14.3677,0.0446 -28.9836,0.131 -43.7492,0.3407 z m 91.0423,-0.116 c 0.631,3.3579 1.4177,6.6232 3.1074,9.6554 4.6735,8.3866 11.5376,14.5264 20.5343,18.4064 8.1308,3.5068 17.1049,5.1005 25.9337,4.7565 21.5033,-0.8382 37.3224,-8.0275 44.2485,-28.6801 -0.1186,-0.042 -0.2543,-0.0709 -0.4129,-0.0837 -28.059,-1.8335 -62.1838,-3.4652 -93.411,-4.0545 z" />
    <path
       id="path31"
       style="fill:#82c0e0;fill-rule:evenodd"
       d="m 228.1126,444.0016 a 8.678,8.678 0 0 1 8.678,8.6781 8.678,8.678 0 1 1 -8.678,-8.6781 z" />
    <path
       id="path33"
       style="fill:#82c0e0;fill-rule:evenodd"
       d="m 263.673,450.8633 a 8.678,8.678 0 0 1 8.6781,8.6781 8.678,8.678 0 1 1 -8.6781,-8.6781 z" />
    <path
       id="path35"
       style="fill:#82c0e0;fill-rule:evenodd"
       d="m 299.472,454.1229 a 8.678,8.678 0 0 1 8.6781,8.678 8.678,8.678 0 1 1 -8.6781,-8.678 z" />
    <path
       id="path37"
       style="fill:#82c0e0;fill-rule:evenodd"
       d="m 335.1365,450.7593 a 8.678,8.678 0 0 1 8.678,8.6781 8.678,8.678 0 1 1 -8.678,-8.6781 z" />
    <path
       id="path39"
       style="fill:#82c0e0;fill-rule:evenodd"
       d="m 370.862,444.2707 a 8.678,8.678 0 0 1 8.678,8.6781 8.678,8.678 0 1 1 -8.678,-8.6781 z" />
    <defs
       id="defs41">
      <linearGradient
         id="grad2">
        <stop
           id="stop44"
           stop-opacity="1"
           stop-color="#5cb8de"
           offset="201392128.0000%" />
        <stop
           id="stop46"
           stop-opacity="1"
           stop-color="#5eb8de"
           offset="201392155.0000%" />
        <stop
           id="stop48"
           stop-opacity="1"
           stop-color="#b2d2e7"
           offset="201392174.0000%" />
        <stop
           id="stop50"
           stop-opacity="1"
           stop-color="#b2d2e7"
           offset="201392203.0000%" />
        <stop
           id="stop52"
           stop-opacity="1"
           stop-color="#e2eef5"
           offset="100.0000%" />
      </linearGradient>
      <linearGradient
         gradientUnits="userSpaceOnUse"
         gradientTransform="scale(0.93520937,1.0692793)"
         y2="633.6875"
         x2="79.697021"
         y1="151.77475"
         x1="79.697021"
         id="grad3"
         xlink:href="#grad2" />
    </defs>
    <path
       id="path55"
       style="fill:url(#grad3)"
       d="m 85.9736,200.346 c -3.4144,44.1237 -3.2829,88.1008 2.115,132.0821 3.2923,26.8259 8.4877,53.3146 15.425,79.4339 3.8011,14.3122 8.1103,28.476 12.8515,42.4949 h 40.0362 c -5.7768,-8.5976 -10.836,-17.7647 -15.0271,-27.6073 l 13.8804,-7.5559 -19.8361,-8.8276 c -2.9015,-9.5452 -5.0349,-19.6832 -6.2878,-30.4934 28.3367,19.1462 60.2053,31.351 93.2972,40.4632 l 18.5173,-44.0126 c -1.4931,-4.7501 -2.2736,-9.6783 -2.1992,-14.7647 l 1.0773,-73.5257 h 35.57 l 6.0847,-16.6612 c -10.8259,-3.0399 -21.53,-9.7914 -27.9193,-24.5453 -9.7399,23.0689 -34.7143,29.9096 -52.6179,29.3567 -13.0819,-0.4042 -38.7014,-4.7988 -47.8642,-31.0318 -0.8001,-0.003 -1.6,-0.006 -2.4003,0.0589 -3.0523,-1.616 -3.8598,-5.9247 0.5391,-8.3491 47.8862,-3.2863 96.0651,-5.3378 144.4188,-5.2598 l 0.4253,-33.9788 c 0.0248,-1.9831 0.7522,-8.2525 2.9197,-8.1421 2.1278,0.1086 2.895,5.6439 2.9275,7.6349 l 0.5661,34.5094 c 48.211,0.234 96.712,1.7228 145.1351,5.1019 2.4657,1.162 3.2856,3.1474 3.1115,5.0449 -0.1353,1.4759 -0.9294,2.8998 -3.246,3.8426 l -2.6537,-0.2577 c -9.2668,26.5582 -32.0351,30.1148 -47.8053,30.7293 -16.1495,0.6293 -42.0373,-5.5191 -52.2893,-29.1245 -5.6063,13.8353 -16.7309,21.1893 -27.9991,24.5186 l 6.0451,16.5531 h 35.5552 l 1.0773,76.4883 c 0.047,3.3395 -0.6009,7.397 -2.135,11.9192 l 18.5173,44.0131 c 37.0166,-10.6251 69.2781,-24.5224 93.7717,-42.1968 -0.5757,9.1449 -3.1613,20.6183 -7.2487,32.6642 l -19.108,8.5037 13.0808,7.1205 c -4.1814,9.6721 -9.1709,19.2325 -14.7175,27.8118 h 41.2265 c 7.0893,-20.8814 13.1101,-42.1046 17.916,-63.6986 6.6444,-29.855 10.9004,-60.0993 12.9717,-90.6108 2.2615,-33.308 1.3879,-66.4965 -0.5513,-99.7786 -68.2923,-25.1428 -142.6924,-37.9793 -215.3989,-37.9793 -37.7196,0 -76.03,4.0737 -113.0826,11.0366 -33.3959,6.2758 -66.8134,15.1034 -98.672,27.0198 z m 142.139,245.4448 c 3.8039,0 6.8889,3.0849 6.8889,6.8889 0,3.8039 -3.085,6.8889 -6.8889,6.8889 -3.804,0 -6.8889,-3.085 -6.8889,-6.8889 0,-3.804 3.0849,-6.8889 6.8889,-6.8889 z m 35.5604,6.8617 c 3.804,0 6.8889,3.0849 6.8889,6.8889 0,3.8039 -3.0849,6.8889 -6.8889,6.8889 -3.8039,0 -6.8889,-3.085 -6.8889,-6.8889 0,-3.804 3.085,-6.8889 6.8889,-6.8889 z m 35.799,3.2595 c 3.804,0 6.8889,3.085 6.8889,6.8889 0,3.804 -3.0849,6.8889 -6.8889,6.8889 -3.8039,0 -6.8889,-3.0849 -6.8889,-6.8889 0,-3.8039 3.085,-6.8889 6.8889,-6.8889 z m 35.6645,-3.3635 c 3.8039,0 6.8889,3.0849 6.8889,6.8889 0,3.8039 -3.085,6.8889 -6.8889,6.8889 -3.804,0 -6.8889,-3.085 -6.8889,-6.8889 0,-3.804 3.0849,-6.8889 6.8889,-6.8889 z m 35.7255,-6.4886 c 3.8039,0 6.8889,3.0849 6.8889,6.8889 0,3.8039 -3.085,6.8889 -6.8889,6.8889 -3.804,0 -6.8889,-3.085 -6.8889,-6.8889 0,-3.804 3.0849,-6.8889 6.8889,-6.8889 z M 312.3703,272.5716 c -1.3898,0.2891 -2.771,0.5217 -4.1337,0.7016 l 3.3956,14.7597 h 6.3021 z m 42.5025,109.7517 c -1.474,3.11 -3.3426,6.3665 -5.6556,9.7041 l 0.4719,1.4105 9.0132,-1.8115 z m 5.4259,13.1815 -9.2933,1.8678 3.3364,9.9729 9.9662,-2.1007 z m 5.6055,13.6172 -10.2456,2.1596 4.4829,13.4 c 3.6982,-0.9399 7.3552,-1.9104 10.9695,-2.9109 z M 303.8108,273.6835 c -0.2166,0.0117 -0.4327,0.0222 -0.6477,0.0313 l 0.235,14.3181 h 3.6014 z m 42.6287,124.6068 -2.4499,0.4924 c -1.6637,1.9416 -3.4824,3.8948 -5.464,5.8481 l 1.4854,5.7353 9.7098,-2.0466 z m -11.5208,9.7301 c -7.5676,6.7846 -17.1815,13.4817 -29.2312,19.5808 l 0.2066,12.6003 h 36.6396 z m 9.7598,20.3673 c 3.627,-0.8187 7.2208,-1.6641 10.7783,-2.5368 l -4.4464,-13.5895 -9.9645,2.1004 z m -106.8127,-32.8829 9.2932,1.8678 -3.3364,9.9729 -9.9662,-2.1007 z m 13.8594,2.7855 2.2671,0.4557 c 1.761,2.0355 3.6442,4.0167 5.6318,5.9416 l -1.4707,5.6785 -9.7098,-2.0466 z m -3.2498,-4.8524 -9.0132,-1.8115 3.8077,-9.2501 c 1.5353,3.3772 3.4282,6.6513 5.6224,9.815 z m -16.2151,15.6841 10.2455,2.1596 -4.3948,13.1366 c -3.6747,-0.9058 -7.3388,-1.8414 -10.9896,-2.8123 z m 14.8937,3.1394 9.9646,2.1004 -3.5461,13.6914 c -3.5964,-0.8086 -7.1869,-1.639 -10.7687,-2.4957 z m 42.8184,-139.1826 -3.4402,14.9541 h -6.302 l 5.6222,-15.6235 c 1.3836,0.2717 2.7598,0.4919 4.12,0.6694 z m -34.3417,167.1227 7.6127,-32.1713 c 8.7358,7.703 19.1106,14.3994 29.9332,19.8902 l -0.1536,12.2811 z m 35.5342,-152.1686 3.2245,-14.5107 c 0.2407,0.0175 0.4807,0.0337 0.7195,0.0489 l -0.1811,14.4618 z M 120.0066,464.8606 c 1.2965,3.6506 2.6212,7.2911 3.9729,10.9221 h 49.2213 c -3.1889,-3.5361 -6.2539,-7.1733 -9.1797,-10.9221 z m 304.041,10.9221 h 51.0551 c 1.3726,-3.6303 2.7133,-7.2711 4.0222,-10.9221 h -45.0445 c -3.2265,4.0814 -6.5841,7.7672 -10.0328,10.9221 z m -292.8465,18.687 1.9151,4.7929 -58.5828,-5.3454 12.3245,55.755 89.9563,22.9241 4.0563,7.1449 c 0.7347,0.9828 1.4721,1.9604 2.2121,2.9332 h 232.5286 c 0.6102,-0.8344 1.2154,-1.6708 1.8151,-2.5093 l 5.2959,-8.3453 90.4271,-22.1426 12.0734,-55.1462 -59.9281,5.8419 2.2667,-5.5018 0.1649,-0.4014 z m 65.7468,105.4415 c 3.2951,3.8653 6.648,7.6365 10.0657,11.3117 h 184.8827 c 3.4726,-3.6985 6.8448,-7.4724 10.1084,-11.3117 z m 20.2834,21.8154 c 4.0534,3.9788 8.2,7.8299 12.45,11.5502 h 139.2515 c 4.3161,-3.7339 8.5254,-7.5886 12.6182,-11.5502 z m 25.182,22.0538 c 5.3242,4.1322 10.8102,8.0738 16.4746,11.8196 h 80.7422 c 5.6112,-3.7334 11.1043,-7.6814 16.4615,-11.8196 z m 33.7696,22.3232 c 7.4397,4.1368 15.176,7.9693 23.2443,11.4853 7.8371,-3.3945 15.5428,-7.2414 23.0806,-11.4853 z" />
    <defs
       id="defs57">
      <linearGradient
         id="grad4"
         gradientTransform="scale(2.1388648,0.46753773)"
         x1="26.024879"
         y1="1030.3365"
         x2="252.31914"
         y2="1030.3365"
         gradientUnits="userSpaceOnUse">
        <stop
           id="stop60"
           stop-opacity="1"
           stop-color="#abacad"
           offset="201392128.0000%" />
        <stop
           id="stop62"
           stop-opacity="1"
           stop-color="#fcfbfd"
           offset="201392170.0000%" />
        <stop
           id="stop64"
           stop-opacity="1"
           stop-color="#fcfbfd"
           offset="201392184.0000%" />
        <stop
           id="stop66"
           stop-opacity="1"
           stop-color="#d4d4d3"
           offset="100.0000%" />
      </linearGradient>
    </defs>
    <path
       id="path68"
       style="fill:url(#grad4)"
       d="m 55.6637,481.7212 17.0111,77.027 117.0541,28.7741 223.5414,-0.135 109.9772,-28.6391 16.429,-76.6231 c -79.1842,7.136 -157.2946,10.1823 -236.3008,10.1928 -81.5144,0.011 -167.186,-3.2364 -247.712,-10.5967 z" />
    <defs
       id="defs70">
      <linearGradient
         id="grad5"
         gradientTransform="scale(2.2047018,0.45357608)"
         x1="28.001566"
         y1="1072.0508"
         x2="242.32085"
         y2="1072.0508"
         gradientUnits="userSpaceOnUse">
        <stop
           id="stop73"
           stop-opacity="1"
           stop-color="#f2f2f3"
           offset="201392128.0000%" />
        <stop
           id="stop75"
           stop-opacity="1"
           stop-color="#f2f2f3"
           offset="201392153.0000%" />
        <stop
           id="stop77"
           stop-opacity="1"
           stop-color="#f7f7f7"
           offset="201392166.0000%" />
        <stop
           id="stop79"
           stop-opacity="1"
           stop-color="#ffffff"
           offset="201392175.0000%" />
        <stop
           id="stop81"
           stop-opacity="1"
           stop-color="#ffffff"
           offset="201392185.0000%" />
        <stop
           id="stop83"
           stop-opacity="1"
           stop-color="#f7f8f8"
           offset="201392193.0000%" />
        <stop
           id="stop85"
           stop-opacity="1"
           stop-color="#f3f4f4"
           offset="201392209.0000%" />
        <stop
           id="stop87"
           stop-opacity="1"
           stop-color="#f2f3f3"
           offset="100.0000%" />
      </linearGradient>
    </defs>
    <path
       id="path89"
       style="fill:url(#grad5)"
       d="m 61.7351,486.2566 14.685,68.8694 113.8171,28.3407 222.5128,-0.1346 106.7431,-27.5658 14.7521,-68.8012 c -77.276,6.7939 -153.2984,9.3977 -230.869,9.4082 -79.7756,0.011 -162.1728,-3.0277 -241.6411,-10.1167 z" />
    <defs
       id="defs91">
      <linearGradient
         id="grad6"
         gradientTransform="scale(1.6508767,0.60573875)"
         x1="182.5977"
         y1="319.39084"
         x2="222.31467"
         y2="319.39084"
         gradientUnits="userSpaceOnUse">
        <stop
           id="stop94"
           stop-opacity="1"
           stop-color="#8a2525"
           offset="201392128.0000%" />
        <stop
           id="stop96"
           stop-opacity="1"
           stop-color="#8a2525"
           offset="201392140.0000%" />
        <stop
           id="stop98"
           stop-opacity="1"
           stop-color="#a72127"
           offset="201392174.0000%" />
        <stop
           id="stop100"
           stop-opacity="1"
           stop-color="#a72127"
           offset="201392184.0000%" />
        <stop
           id="stop102"
           stop-opacity="1"
           stop-color="#8c2526"
           offset="201392216.0000%" />
        <stop
           id="stop104"
           stop-opacity="1"
           stop-color="#8a2525"
           offset="100.0000%" />
      </linearGradient>
    </defs>
    <path
       id="path106"
       style="fill:url(#grad6)"
       d="m 301.4463,193.4674 c 9.1553,3.2419 17.8396,5.4046 25.9761,5.959 16.133,1.0995 24.5716,-3.9755 39.5917,7.012 -15.0635,-5.0211 -23.2433,1.8289 -38.2892,6.8199 -6.9306,2.299 -15.634,4.1771 -26.4835,4.2672 l -0.3347,-20.4102 c -0.0134,-0.8223 -0.1525,-2.2488 -0.4604,-3.6479 z" />
    <path
       id="path108"
       style="fill:#a72127;fill-rule:evenodd"
       d="m 305.7385,412.0996 c -0.3678,1.0143 -2.0482,0.3395 -1.714,2.4511 0.0771,0.4864 0.386,1.0771 0.8271,1.9693 -1.1417,-0.4795 -2.6608,-1.6842 -3.4595,-2.8896 -1.2624,-0.7197 -1.8111,-1.5205 -1.812,-2.6622 -0.001,-1.1835 0.4117,-2.3271 0.6744,-3.6902 0.3375,-1.7529 0.4716,-3.6062 -0.3758,-3.5847 -2.9885,0.0763 -3.5821,3.8891 -5.4905,5.6382 -0.9995,0.9158 -2.0401,0.6073 -3.5358,0.2872 -0.6066,0.8015 -0.3802,1.4678 -0.2662,2.2698 -1.2512,-0.8934 -1.3576,-2.1248 -1.2627,-3.5582 -0.724,-1.0814 -0.2939,-2.2207 0.5482,-3.0788 1.6076,-1.6386 4.9891,-1.6193 4.1768,-6.3381 -0.9802,0.1422 -4.317,1.6346 -5.1625,-1.0582 -1.3764,0.4709 -2.0794,0.8066 -2.7827,1.9526 -0.2547,-2.0766 0.2982,-2.8703 2.3328,-4.1365 0.2632,-1.8195 1.6489,-2.2882 3.8889,-2.8662 2.5387,-0.6551 5.0296,-0.7882 5.3958,-0.3407 3.1754,3.8822 4.3512,4.5673 6.5225,4.7806 3.0773,0.302 4.7725,-1.1799 5.6966,-3.4499 2.4397,-5.9927 -4.245,-6.8574 -7.5285,-11.5813 -2.3199,-3.338 -1.8287,-8.8097 -1.385,-10.1045 0.8412,-2.4547 3.4082,-1.2054 4.6074,-2.7486 0.9936,-1.2784 0.4697,-5.1513 0.1501,-5.8038 -3.5318,-1.9623 -7.9161,1.2677 -9.6654,5.3548 0.1529,2.8402 2.5615,13.0083 -2.2906,17.2309 -0.6508,0.5663 -2.2947,-1.6422 -5.1153,-0.7202 0.1739,1.3755 0.2183,3.1503 -0.1975,5.3213 -0.3142,-2.4341 -1.4487,-8.0482 -4.9829,-7.167 -2.3578,0.5878 -1.9385,2.823 -2.8891,5.3209 -0.7068,1.8576 -2.1419,2.1665 -4.1992,2.5911 -0.4072,1.0838 -0.183,2.1985 0.9766,3.3985 -2.1019,-0.2589 -3.4745,-1.8452 -3.2421,-3.544 -1.6666,-0.9053 -1.236,-2.9482 -0.2298,-4.5492 1.0709,-1.7042 2.8395,-3.0093 2.3655,-3.656 -1.1844,-1.6155 -6.4099,2.4387 -7.6959,0.4351 -1.626,-0.0465 -1.5017,1.0551 -1.8481,2.6964 -0.5963,-1.9139 -0.6541,-3.2878 0.1634,-5.4717 -0.0436,-1.6725 1.391,-2.5632 3.0836,-2.959 2.3194,-0.5422 5.4261,-0.334 5.276,-1.5604 -0.3385,-2.7643 -6.5616,-0.0357 -7.2918,-3.5897 -0.662,-0.3743 -1.4587,-0.2085 -2.7942,0.1601 0.6129,-2.1646 1.9664,-1.9669 3.0509,-2.714 0.8225,-1.4984 2.5897,-1.579 4.4886,-1.5384 1.8988,0.0403 4.2677,0.2032 5.8889,1.8907 2.011,2.0935 1.1028,6.7174 3.8132,8.4378 2.625,0.5155 7.4362,-0.2869 8.132,-2.2502 0.4805,-1.356 0.4258,-4.168 -0.5262,-6.4159 -1.1489,-1.2385 -2.1012,-2.0868 -2.7801,-3.4375 -1.3316,0.5272 -1.9893,1.2567 -2.7825,2.5942 -0.1803,-4.1011 1.2002,-6.0799 4.1811,-6.9836 4.095,-4.1283 7.7825,-5.7398 12.6771,-8.4931 1.1391,-0.6408 2.1379,0.0942 4.7627,-1.9838 0.8485,-0.6718 0.2746,-1.3445 -0.1097,-1.1298 -1.7092,0.9549 -6.5242,1.9203 -7.408,0.7724 -0.6873,-0.8924 -0.2564,-2.7715 2.5091,-5.6861 0.3278,-0.3454 -0.1854,-1.1818 -0.6947,-0.8657 -3.807,2.3645 -5.151,4.4934 -7.1582,7.2687 -2.4809,-3.3123 -3.7679,-3.8283 -5.2539,1.4046 -1.5193,-1.8302 -8.1303,-1.4516 -10.6093,-0.7911 -0.5115,1.6386 -0.2734,2.445 -1.4044,3.418 -1.099,-0.8399 -2.8869,-1.6155 -4.1081,-1.1861 -0.869,0.3056 -1.4695,0.9089 -1.8879,1.8493 -0.9914,2.2285 -0.9804,5.0864 -3.9063,4.2946 -0.7399,0.5132 -1.4124,1.5034 -1.7462,3.0397 -0.8416,-1.226 -1.094,-2.4645 -0.5959,-4.2685 -1.688,-1.5634 0.6816,-3.2648 1.7403,-4.8039 0.4809,-0.6994 0.453,-1.6606 0.1724,-1.9409 -1.4189,-1.4186 -3.1925,0.6947 -5.1837,1.5511 -1.8313,0.7877 -1.4451,-1.3841 -3.636,-0.6651 -1.011,0.3318 -1.62,0.8252 -1.9843,1.736 -0.5212,-2.1721 0.4609,-3.3231 1.8896,-4.147 -0.004,-1.3032 0.5472,-2.0833 1.3254,-2.5869 1.7126,-1.1078 4.5268,-0.8788 4.9626,-1.9397 1.1281,-2.7464 -5.3848,-2.3468 -4.8452,-6.9289 -0.8975,-0.5449 -1.9185,-0.4821 -4.0735,0.0534 1.0808,-2.4487 3.1722,-3.1866 6.4082,-2.7536 1.7252,-1.5351 3.5988,-0.322 5.3388,1.9487 2.0999,2.7408 3.3946,8.7847 6.3519,8.8811 5.6121,-0.812 10.3245,-2.9383 13.8973,-5.7525 3.0551,-2.4062 5.1623,-5.661 6.2219,-8.6236 -3.3392,-0.38 -5.8032,-2.4025 -6.5165,-4.6491 3.9664,1.4826 6.8383,-0.0392 9.188,-3.9569 1.9037,0.9377 3.3364,2.6172 4.2978,3.5544 1.2238,-1.0773 2.1894,-2.661 3.2336,-4.2786 1.4811,1.5613 2.4685,3.2629 3.2311,5.0043 1.6069,-2.1186 3.4824,-5.2498 4.3488,-8.3808 -1.2991,1.6727 -2.2619,3.5477 -3.6286,4.7481 -0.7247,-1.6758 -2.28,-4.094 -4.2622,-5.7693 -1.1097,2.291 -1.546,3.3678 -3.1274,5.2541 -0.8146,-1.0404 -2.5728,-2.6888 -3.9929,-2.7835 -2.0758,-0.1386 -4.1529,1.8817 -6.2295,1.7427 -0.7285,-1.2267 -1.1556,-2.2625 -1.448,-3.7472 -0.2782,-1.4127 0.2383,-1.8347 1.7996,-1.3008 1.0962,0.3745 2.3054,1.2466 3.7951,1.4799 0.1234,-0.5615 0.3643,-1.1569 0.7734,-1.5494 -0.02,0.4915 -0.0909,1.0339 0.0234,1.6429 2.3161,-0.0178 3.1055,-1.2958 3.2262,-3.3437 0.0997,-1.6899 -0.9974,-4.2837 -2.506,-5.2272 l -0.5589,1.3643 -0.4504,-1.7672 c -0.5394,-0.0417 -1.012,0.0177 -1.4843,0.1446 l -0.6219,2.396 -0.6634,-2.0516 c -0.5811,0.1379 -0.9268,0.3774 -1.3734,0.5155 l -0.4644,2.4693 -0.7223,-1.9876 c -0.2658,0.0978 -0.532,0.1961 -0.7973,0.2259 -0.7113,0.0804 -0.6262,-0.0255 -0.6245,-0.7023 0.003,-1.2715 0.1815,-3.1885 0.0403,-4.0322 -1.1594,-1.3612 -1.4852,-2.3698 0.9668,-2.9495 2.4476,-0.5785 6.8381,0.6861 9.6426,-0.1381 1.7643,-0.5184 2.7893,-2.5156 4.4191,-3.3691 2.2963,0.0224 6.6108,-1.3325 9.5795,-0.1176 2.5676,-1.5134 6.8849,-1.1224 10.529,-1.4397 -1.7393,3.6959 -4.241,6.3606 -7.4154,9.967 1.527,2.9105 3.1432,5.9552 3.9519,8.8655 -1.3655,-0.422 -3.2241,-0.8893 -5.0831,-0.9967 0.142,4.4798 1.8271,7.4884 3.4585,11.472 -1.0117,0.1744 -2.9203,0.4385 -5.0981,0.2541 0.5017,4.7025 1.6158,6.5022 4.5092,7.3779 -0.351,3.3624 -2.1826,4.4301 -3.9703,4.823 0.5668,4.6351 2.8498,4.86 2.9094,6.6442 0.0604,1.8037 -2.1,2.7469 -1.7145,5.9349 2.1828,3.5165 4.949,4.8782 7.1318,8.3949 5.3419,1.271 7.8448,-0.3225 8.4574,-2.9046 0.9344,-3.9373 -2.4116,-11.0793 -4.986,-17.9081 -1.7615,-4.672 -2.8841,-9.2666 -2.7307,-12.5192 0.2653,-5.6296 3.0279,-9.7742 7.5704,-12.508 1.5671,-0.943 2.6136,-2.5518 2.6961,-3.8951 0.0993,-1.6111 -1.0124,-3.8471 -4.7679,-5.0096 5.1215,-2.4993 11.7017,1.6482 7.4252,8.7986 3.4547,1.171 5.5811,3.3583 7.1477,6.0158 1.7758,3.0117 3.0833,6.0704 6.7563,6.541 -2.1961,0.6728 -3.5177,0.8753 -5.5118,0.4702 0.3908,4.7959 -1.6622,6.9896 1.3755,11.2921 -1.7111,0.0947 -2.7495,-0.3497 -4.2586,-0.7266 0.0942,2.9239 0.1205,5.7784 -1.1983,8.9729 -0.3969,-2.032 -3.3156,-5.9629 -3.1665,-10.9417 0.121,-4.0422 3.2522,-6.5184 3.4168,-10.0702 0.1393,-3.0048 -3.2372,-7.6332 -6.355,-7.9586 -4.4729,-0.4668 -8.2766,5.6907 -7.2849,12.5598 1.1596,8.0335 7.5833,18.0314 7.6487,24.723 3.3855,-2.8123 6.053,-2.3955 8.0034,-0.4983 -2.6415,-0.0134 -4.7312,1.0897 -5.7019,2.5305 -3.262,4.8422 -5.9469,10.3203 -15.4255,9.3265 -1.4893,3.1293 -5.4103,3.0331 -6.3335,7.3225 -0.4797,2.2293 1.4497,5.3329 2.1844,6.7992 5.3073,-0.1727 4.756,-3.5179 6.3593,-5.5131 -0.822,3.9354 2.329,7.1954 -3.5434,11.2661 1.5847,3.6927 1.1939,6.0356 -0.6334,8.6487 -0.4291,-2.9834 -2.2042,-4.268 -3.9139,-3.6842 -1.2305,0.4201 -1.4134,1.5696 -1.2789,4.9533 -1.266,2.3724 -4.84,2.8468 -6.1448,5.3418 -1.3016,2.4886 0.2294,5.1029 -0.6945,6.8343 z m -7.6074,-104.7688 c 0.2021,1.6197 1.5914,2.0265 2.8283,1.8225 1.3683,-0.2259 1.9976,-1.3051 2.8955,-2.7677 -1.5658,-0.4683 -2.322,0.0675 -3.167,0.5255 -0.6572,0.3562 -1.234,0.3283 -2.5568,0.4197 z" />
    <path
       id="path110"
       style="fill:#a72127;fill-rule:evenodd"
       d="m 281.9029,314.0136 c -0.8304,0.5622 -1.3187,1.9649 -1.0775,2.8349 0.4499,1.6241 1.9143,2.2381 3.8151,2.0878 2.7782,-0.2199 4.7327,-2.0596 6.9591,0.005 0.008,-1.0969 -0.985,-2.1532 -2.5499,-2.0571 -1.386,0.0852 -3.4566,0.9178 -4.9259,0.6845 -1.2965,-0.2057 -2.1486,-1.2346 -2.2209,-3.5549 z" />
    <path
       id="path112"
       style="fill:#a72127;fill-rule:evenodd"
       d="m 289.1098,336.041 c -3.8102,5.0143 -8.3772,7.1226 -13.2642,8.5494 -0.8478,-6.0325 -2.3569,-10.637 -4.3727,-13.4806 -0.91,-1.2836 -1.8428,-2.3459 -3.0076,-2.3886 -0.906,-0.0334 -2.0477,0.277 -2.9891,2.0012 -1.526,-4.02 1.3104,-7.5718 -1.2788,-9.1582 -1.8247,-1.1181 -2.4464,3.7517 -6.5314,2.8261 -1.0773,0.6961 -1.1445,1.3922 -1.6832,2.4929 -0.7183,-1.526 -0.5608,-2.6472 0.4041,-4.241 -0.3957,-2.0654 0.4807,-2.9463 1.9843,-3.6119 2.5065,-1.1095 6.5638,-1.4141 6.7687,-2.449 0.4098,-2.0673 -2.7639,-2.4583 -4.0721,-4.5511 -0.4358,-0.6975 -0.2202,-1.2183 -0.1023,-2.5196 -0.4712,-0.7201 -2.4915,-0.9005 -3.2995,-0.8108 0.9426,-1.167 2.424,-1.7262 4.5786,-1.2059 1.3917,-1.4876 4.3025,3.0852 7.0024,1.6792 0.663,-0.3452 0.6601,-1.4225 0.068,-2.0873 -1.0561,-1.1859 -3.1536,-1.8171 -1.2126,-3.7021 -0.4711,-0.808 -0.9427,-1.8185 -2.4914,-2.6265 1.5263,-0.2703 2.6489,0 3.9729,1.0127 1.5756,-1.105 2.7688,-0.1539 3.9921,1.9568 1.0134,1.7491 2.0413,4.0435 2.2026,6.1241 0.2557,3.2951 -5.8658,5.5664 -5.7584,9.7604 0.1634,6.3834 10.3462,12.4328 13.4338,16.9002 1.3914,0.1798 3.5687,0.2025 5.6558,-0.4704 z" />
    <defs
       id="defs114">
      <linearGradient
         id="grad7"
         gradientTransform="scale(0.99163243,1.0084382)"
         x1="269.82144"
         y1="590.3512"
         x2="333.91858"
         y2="590.3512"
         gradientUnits="userSpaceOnUse">
        <stop
           id="stop117"
           stop-opacity="1"
           stop-color="#dadbdb"
           offset="201392128.0000%" />
        <stop
           id="stop119"
           stop-opacity="1"
           stop-color="#dadbdb"
           offset="201392148.0000%" />
        <stop
           id="stop121"
           stop-opacity="1"
           stop-color="#eeeeef"
           offset="201392164.0000%" />
        <stop
           id="stop123"
           stop-opacity="1"
           stop-color="#fbfafa"
           offset="201392176.0000%" />
        <stop
           id="stop125"
           stop-opacity="1"
           stop-color="#ffffff"
           offset="100.0000%" />
      </linearGradient>
    </defs>
    <path
       id="path127"
       style="fill:url(#grad7)"
       d="m 299.3441,595.3327 a 31.7804,32.319 0 0 1 31.7804,32.319 31.7804,32.319 0 1 1 -31.7804,-32.319 z" />
    <path
       id="path129"
       style="fill:#a91e26;fill-rule:evenodd"
       d="m 299.3446,615.642 c 4.251,2.0492 8.0738,4.6878 11.2704,8.1883 -0.6353,4.6764 -1.9635,9.1273 -4.3049,13.2492 -4.6436,0.8409 -9.2873,0.953 -13.9309,0 -2.2348,-4.1565 -3.7763,-8.5382 -4.305,-13.2492 3.2627,-3.4096 6.9536,-6.2297 11.2704,-8.1883 z" />
    <path
       id="path131"
       style="fill:#a91e26;fill-rule:evenodd"
       d="m 291.1191,596.4284 c -0.8356,1.0868 -1.7412,2.1856 -2.807,3.3743 3.891,0.9683 7.5676,2.302 11.0996,4.1708 2.7345,-1.3903 6.0752,-2.7133 10.9652,-4.1033 -0.9146,-1.0661 -1.8118,-2.2181 -2.6283,-3.3924 -2.6773,-0.745 -5.4948,-1.1451 -8.4045,-1.1451 -2.8447,0 -5.6011,0.3824 -8.225,1.0957 z" />
    <path
       id="path133"
       style="fill:#a91e26;fill-rule:evenodd"
       d="m 267.6611,625.113 c 0.8311,1.1995 1.6475,2.4707 2.5043,3.9478 2.1232,-3.4015 4.5278,-6.4857 7.3966,-9.2675 -0.4771,-3.0303 -0.7033,-6.6162 -0.5141,-11.6966 -1.2937,0.5393 -2.6637,1.0355 -4.0301,1.4487 -3.0038,4.5077 -4.918,9.8276 -5.3567,15.5676 z" />
    <path
       id="path135"
       style="fill:#a91e26;fill-rule:evenodd"
       d="m 287.1327,657.4962 c 1.5437,-0.4776 3.1455,-0.9079 5.0067,-1.3075 -2.579,-3.0704 -4.7691,-6.3104 -6.5282,-9.8985 -3.0296,-0.4826 -6.5098,-1.3757 -11.2833,-3.1255 0.1212,1.4946 0.1685,3.0568 0.1253,4.5783 3.324,4.2522 7.6782,7.6339 12.6795,9.7532 z" />
    <path
       id="path137"
       style="fill:#a91e26;fill-rule:evenodd"
       d="m 323.8709,648.2029 c 0.035,-1.4093 0.1221,-2.8693 0.2907,-4.5064 -3.7171,1.5038 -7.4752,2.5856 -11.4314,3.1498 -1.395,2.7321 -3.3199,5.766 -6.4592,9.7651 1.4361,0.3411 2.9125,0.7708 4.3259,1.2717 5.2195,-2.0107 9.7837,-5.3776 13.274,-9.6802 z" />
    <path
       id="path139"
       style="fill:#a91e26;fill-rule:evenodd"
       d="m 326.1011,610.2088 c -1.3173,-0.4659 -2.6673,-0.9957 -4.1575,-1.6558 0.2815,4 0.1491,7.9085 -0.5367,11.8453 2.1672,2.1711 4.4578,4.9392 7.2911,9.1609 0.7235,-1.1873 1.5324,-2.3841 2.3874,-3.5132 -0.2798,-5.8152 -2.0718,-11.2267 -4.9843,-15.8372 z" />
    <g
       id="g141">
      <path
         id="path143"
         style="fill:#8a2525;fill-rule:evenodd"
         d="m 117.7149,523.2538 -14.5066,-0.4547 v 6.8474 l 6.0106,0.1885 v 8.113 c -0.3563,0.1423 -0.915,0.2398 -1.6569,0.3124 -0.7511,0.0723 -1.6276,0.1023 -2.6197,0.0714 -1.8108,-0.057 -3.4677,-0.3966 -4.9703,-0.9998 -1.5029,-0.6128 -2.8032,-1.4785 -3.8917,-2.5962 -1.0981,-1.1183 -1.9457,-2.4679 -2.5429,-4.0595 -0.597,-1.5817 -0.8958,-3.3749 -0.9054,-5.3892 0.0096,-2.1189 0.337,-3.9598 0.9921,-5.5217 0.6452,-1.5618 1.5602,-2.8377 2.7258,-3.8463 1.1755,-1.0085 2.5432,-1.7424 4.1131,-2.2113 1.5604,-0.4688 3.2751,-0.6738 5.1151,-0.6162 1.4159,0.0445 2.6776,0.1604 3.7661,0.3288 1.0885,0.178 2.0613,0.4099 2.9089,0.6857 0.8572,0.2764 1.6376,0.5885 2.3406,0.9462 l 1.8496,-7.0869 c -0.6358,-0.2979 -1.4834,-0.593 -2.5333,-0.904 -1.0497,-0.3013 -2.2635,-0.5695 -3.6604,-0.7954 -1.3967,-0.2166 -2.9282,-0.3603 -4.614,-0.4229 -3.2074,-0.1004 -6.1645,0.2577 -8.852,1.0749 -2.6972,0.8166 -5.0474,2.0571 -7.0413,3.7304 -1.9941,1.6733 -3.545,3.744 -4.6525,6.222 -1.1078,2.4874 -1.6761,5.3465 -1.705,8.587 0,1.8989 0.212,3.7182 0.6452,5.4482 0.424,1.73 1.0406,3.3412 1.8592,4.8342 0.8093,1.4831 1.8108,2.8188 2.9863,3.9872 1.7819,1.7533 3.9779,3.1167 6.5979,4.0717 2.6104,0.9544 5.6928,1.4922 9.2376,1.6033 1.7339,0.0448 3.4194,-0.0272 5.0573,-0.2061 1.6372,-0.1789 3.1399,-0.4096 4.5076,-0.7024 1.3776,-0.2926 2.524,-0.5825 3.439,-0.8705 z" />
      <path
         id="path145"
         style="fill:#8a2525;fill-rule:evenodd"
         d="m 145.3229,536.3753 3.0203,9.9567 9.5851,0.3357 -12.1989,-38.8058 -11.6178,-0.4065 -11.9086,37.9616 9.1199,0.3192 2.7887,-9.7532 z m -9.9334,-6.8391 2.3235,-8.0612 c 0.2129,-0.7421 0.4164,-1.5321 0.6197,-2.3791 0.2032,-0.8473 0.4065,-1.6943 0.6001,-2.5415 0.1936,-0.857 0.3875,-1.6566 0.5808,-2.4186 l 0.1165,0.004 c 0.1933,0.7756 0.3969,1.5891 0.6197,2.4418 0.2128,0.8614 0.4354,1.7232 0.6678,2.5761 0.2228,0.862 0.455,1.6767 0.6874,2.4537 l 2.4401,8.2278 z" />
      <path
         id="path147"
         style="fill:#8a2525;fill-rule:evenodd"
         d="m 163.5834,547.1334 24.5642,0.7103 v -7.3607 l -15.6742,-0.4532 v -31.398 l -8.89,-0.2571 z" />
      <path
         id="path149"
         style="fill:#8a2525;fill-rule:evenodd"
         d="m 205.8403,547.9435 3.754,-16.5801 c 0.3126,-1.2858 0.5961,-2.5722 0.8504,-3.85 0.2642,-1.2677 0.5085,-2.5744 0.7429,-3.9005 0.2347,-1.326 0.4598,-2.7099 0.6942,-4.1508 l 0.1171,0.003 c 0.1565,1.4695 0.3328,2.8726 0.5281,4.2091 0.1956,1.3366 0.4011,2.6445 0.6256,3.9246 0.2248,1.2796 0.4691,2.5693 0.7234,3.869 l 3.3435,16.7528 9.678,0.2352 10.2059,-38.4981 -9.0916,-0.2211 -3.2261,15.7306 c -0.4201,2.3178 -0.8308,4.6077 -1.2317,6.8493 -0.4005,2.2516 -0.7526,4.4561 -1.0556,6.6045 l -0.1176,-0.003 c -0.2931,-2.1535 -0.6058,-4.2973 -0.9479,-6.4329 -0.3422,-2.1354 -0.7234,-4.3387 -1.1634,-6.6107 l -3.1674,-16.4033 -9.5023,-0.2313 -3.3429,15.7278 c -0.4986,2.412 -0.9777,4.7571 -1.4176,7.0461 -0.4499,2.2887 -0.8308,4.4733 -1.1636,6.5732 l -0.1171,-0.003 c -0.2151,-1.3181 -0.4498,-2.732 -0.6942,-4.2327 -0.2543,-1.5106 -0.5182,-3.0594 -0.7917,-4.6568 -0.2835,-1.5876 -0.5669,-3.1657 -0.8603,-4.7344 l -2.9914,-15.997 -9.5607,-0.2327 9.3846,38.9749 9.7954,0.2381 z" />
      <path
         id="path151"
         style="fill:#8a2525;fill-rule:evenodd"
         d="m 258.8301,539.2097 3.0288,9.8725 9.6106,0.0675 -12.2315,-38.4645 -11.6493,-0.0822 -11.9404,38.2947 9.1443,0.0643 2.7961,-9.8314 z m -9.9601,-6.5614 2.3301,-8.126 c 0.2131,-0.7484 0.4175,-1.5441 0.6213,-2.3967 0.2038,-0.8527 0.4076,-1.7053 0.6015,-2.5583 0.1945,-0.8623 0.3887,-1.6673 0.5825,-2.4347 l 0.1166,9e-4 c 0.1941,0.7702 0.3982,1.578 0.6216,2.4242 0.2132,0.8555 0.4365,1.7112 0.6695,2.5577 0.2234,0.8555 0.4561,1.6639 0.6894,2.4344 l 2.4463,8.1598 z" />
      <path
         id="path153"
         style="fill:#8a2525;fill-rule:evenodd"
         d="m 289.2328,549.1497 v -16.0005 l 12.6411,-22.3781 h -9.737 l -3.8721,9.2245 c -0.5695,1.3476 -1.082,2.6192 -1.5565,3.7962 -0.4746,1.1863 -0.9205,2.3629 -1.3476,3.5492 h -0.1137 c -0.3039,-0.8257 -0.6075,-1.6321 -0.9017,-2.4009 -0.3036,-0.7688 -0.6265,-1.5565 -0.9584,-2.3536 -0.3419,-0.8068 -0.7024,-1.6705 -1.101,-2.5909 l -3.8721,-9.2245 h -9.9646 l 12.1286,22.6627 v 15.7159 z" />
      <path
         id="path155"
         style="fill:#8a2525;fill-rule:evenodd"
         d="m 318.6028,510.5863 v 21.4101 c 0.01,4.0521 0.6384,7.3788 1.8859,9.9606 1.2476,2.5912 3.045,4.5046 5.4023,5.7306 2.3573,1.2262 5.2152,1.8221 8.5646,1.7883 3.467,-0.0252 6.4335,-0.6732 8.9084,-1.9627 2.4653,-1.29 4.3512,-3.2301 5.6673,-5.8306 1.3062,-2.5905 1.9744,-5.8603 1.984,-9.8084 v -21.5237 l -8.9575,0.0652 v 22.0362 c -0.01,3.407 -0.6383,5.936 -1.8859,7.5869 -1.2472,1.6509 -3.0546,2.4803 -5.4218,2.4883 -2.2884,0.0164 -4.0464,-0.8059 -5.294,-2.4764 -1.2472,-1.6613 -1.8759,-4.1621 -1.8955,-7.4933 v -22.0363 z" />
      <path
         id="path157"
         style="fill:#8a2525;fill-rule:evenodd"
         d="m 366.9823,548.4498 v -11.5591 c 0,-3.1224 -0.0295,-6.0639 -0.0975,-8.8246 -0.0584,-2.7609 -0.1653,-5.4167 -0.3113,-7.9676 l 0.2336,-0.003 c 0.6324,1.5001 1.3232,3.0186 2.0823,4.574 0.7589,1.5457 1.5469,3.0725 2.3545,4.5796 0.8076,1.5075 1.6055,2.9387 2.3939,4.3042 l 8.4067,14.6885 9.3407,-0.1289 v -38.3786 l -8.1734,0.1128 v 11.1606 c 0,2.8944 0.0487,5.665 0.1559,8.3015 0.1069,2.6465 0.292,5.2254 0.5448,7.7463 l -0.1168,0.002 c -0.6029,-1.4437 -1.2552,-2.9152 -1.946,-4.4054 -0.7004,-1.4989 -1.4207,-2.9789 -2.1699,-4.4492 -0.7588,-1.4604 -1.5276,-2.8639 -2.3057,-4.21 l -8.1734,-13.9519 -10.3918,0.1435 v 38.3785 l 8.1734,-0.1128 z" />
      <path
         id="path159"
         style="fill:#8a2525;fill-rule:evenodd"
         d="m 399.2284,509.1381 v 38.9511 l 8.8191,-0.153 V 508.985 Z" />
      <path
         id="path161"
         style="fill:#8a2525;fill-rule:evenodd"
         d="m 423.6463,547.3576 8.8356,-0.2897 v -31.2834 l 10.6957,-0.3507 V 508.1 l -30.1108,0.9871 v 7.3338 l 10.5795,-0.3467 z" />
      <path
         id="path163"
         style="fill:#8a2525;fill-rule:evenodd"
         d="m 471.3752,522.248 -14.4414,0.6001 v -7.9716 l 15.3148,-0.6363 v -7.1178 l -24.1657,1.004 v 38.3785 l 24.9809,-1.0377 v -7.1178 l -16.13,0.6701 v -9.1106 l 14.4414,-0.6 z" />
      <path
         id="path165"
         style="fill:#8a2525;fill-rule:evenodd"
         d="m 479.4052,545.0323 c 1.0752,0.1148 2.442,0.1905 4.1185,0.2458 1.6667,0.0556 3.6436,0.0425 5.9405,-0.0292 2.5679,-0.091 4.9618,-0.3574 7.2003,-0.8002 2.2286,-0.4422 4.2735,-1.0596 6.1053,-1.8604 1.8411,-0.811 3.4594,-1.7954 4.8356,-2.9721 1.2501,-1.0959 2.3646,-2.4066 3.3239,-3.9317 0.9692,-1.5352 1.7348,-3.2921 2.2873,-5.2809 0.5524,-1.9789 0.8331,-4.2063 0.843,-6.6725 -0.01,-2.2748 -0.2812,-4.3103 -0.8141,-6.1171 -0.5332,-1.8069 -1.2989,-3.3948 -2.287,-4.7552 -0.9885,-1.3603 -2.1611,-2.5137 -3.5274,-3.4594 -1.2308,-0.8739 -2.6167,-1.5894 -4.1576,-2.1464 -1.5506,-0.5567 -3.3046,-0.9533 -5.262,-1.1897 -1.9672,-0.2361 -4.1961,-0.3101 -6.6866,-0.2216 -1.4828,0.0527 -2.9172,0.1417 -4.3319,0.2588 -1.4054,0.1264 -2.7525,0.2698 -4.0317,0.449 -1.2787,0.1698 -2.4614,0.3645 -3.5561,0.5754 z m 8.8379,-32.0272 c 0.3778,-0.1091 0.9011,-0.2041 1.5701,-0.2948 0.6684,-0.0904 1.4825,-0.1576 2.442,-0.1916 2.5679,-0.0913 4.7872,0.2985 6.6379,1.1599 1.8513,0.8615 3.2854,2.1869 4.2837,3.9773 1.0077,1.7802 1.5117,4.0181 1.5214,6.6937 -0.01,3.0785 -0.5721,5.6407 -1.6668,7.6867 -1.1049,2.0464 -2.6456,3.5921 -4.642,4.6378 -2.0061,1.046 -4.3512,1.607 -7.0645,1.6844 -0.5429,0.0192 -1.0857,0.0385 -1.6475,0.0394 -0.5621,8e-4 -1.0369,-0.0304 -1.4343,-0.1021 z" />
    </g>
    <path
       id="path167"
       style="fill:#8b2525;fill-rule:evenodd"
       d="m 534.9682,451.9477 v -9.1012 h -3.909 v -1.5711 h 9.5202 v 1.5711 h -3.901 v 9.1012 z" />
    <path
       id="path169"
       style="fill:#8b2525;fill-rule:evenodd"
       d="m 543.3075,452.0262 v -10.9556 h 1.6455 l 4.2409,7.0816 4.1852,-7.0816 h 1.6541 v 10.9556 h -1.6843 v -8.0576 l -4.175,7.116 -4.4656,-7.3994 0.2834,8.341 z" />
    <g
       id="g171">
      <path
         id="path173"
         style="fill:#8a2525;fill-rule:evenodd"
         d="m 225.6024,563.7263 -7.8231,0.4688 c -1.2506,-2.6132 -5.4102,-2.7723 -8.0586,-2.5815 -6.4244,0.4635 -11.38,3.1266 -11.501,7.6672 -0.1355,5.0864 6.3181,7.2385 11.0302,7.1997 2.0568,-0.017 6.5267,-0.5797 7.5747,-2.7241 0.4762,-0.9746 0.5896,-2.6691 0.0938,-4.6321 l 7.6672,-0.1565 c -1.5721,2.6595 -2.672,5.5287 0.7826,8.6071 -7.5124,-0.7069 -9.4994,0.1001 -16.2734,0.3118 -9.7183,0.3042 -17.5399,-2.1577 -17.1337,-8.6071 0.4342,-6.8907 9.9402,-8.5263 18.229,-8.7613 5.3671,-0.1522 11.1617,-0.7302 15.4123,3.208 z" />
      <path
         id="path175"
         style="fill:#8a2525;fill-rule:evenodd"
         d="m 269.3367,560.2054 h -8.257 c 1.7014,3.3261 1.4324,14.9088 0,17.6813 h 8.257 c -1.501,-3.0163 -1.6057,-15.0448 0,-17.6813 z" />
      <path
         id="path177"
         style="fill:#8a2525;fill-rule:evenodd"
         d="m 239.6846,561.8588 -10.3533,16.0279 h 6.1458 c -0.0839,-0.9961 0.9465,-3.1895 2.2539,-5.6259 h 9.3361 c 1.2246,2.4803 1.988,4.6111 2.107,5.6259 h 8.9805 c -5.7002,-4.6686 -11.0336,-15.0448 -11.094,-17.6813 h -9.5473 c 0.7412,0.4555 1.4669,1.0162 2.1713,1.6534 z m -0.8864,8.4586 c 1.2325,-2.2065 2.5109,-4.4079 3.2593,-5.948 1.5199,1.8423 2.878,3.9411 3.9912,5.948 z" />
      <path
         id="path179"
         style="fill:#8a2525;fill-rule:evenodd"
         d="m 282.8162,560.2054 h -8.1302 c 1.7336,3.3261 1.5347,13.5484 0.8504,17.6813 5.4769,-0.2588 11.0241,-0.259 17.0169,0 l 2.14,-3.2768 c -4.518,0.7971 -8.6815,1.3187 -12.4887,1.273 -0.9087,-4.5419 -0.769,-13.4529 0.6116,-15.6775 z" />
      <path
         id="path181"
         style="fill:#8a2525;fill-rule:evenodd"
         d="m 306.3438,560.2054 h -8.1303 c 1.7337,3.3261 1.5347,13.5484 0.8505,17.6813 5.4768,-0.2588 11.024,-0.259 17.0169,0 l 2.1399,-3.2768 c -4.5179,0.7971 -8.6815,1.3187 -12.4886,1.273 -0.9087,-4.5419 -0.769,-13.4529 0.6116,-15.6775 z" />
      <path
         id="path183"
         style="fill:#8a2525;fill-rule:evenodd"
         d="m 330.1546,560.2054 h -8.1389 c 1.6771,3.3261 1.412,14.9088 0,17.6813 h 8.1389 c -1.4795,-3.0163 -1.5827,-15.0448 0,-17.6813 z" />
      <path
         id="path185"
         style="fill:#8a2525;fill-rule:evenodd"
         d="m 334.7719,560.2054 2.2264,2.3079 0.004,11.103 c 6e-4,1.9642 -0.6726,3.4379 -1.0967,4.2704 h 7.005 c -1.8355,-2.351 -1.2028,-6.4128 -1.2422,-12.4205 -5e-4,-0.0879 6e-4,-0.1746 0.003,-0.2608 3.8379,4.2208 7.5524,8.4416 10.9174,12.6629 h 4.248 3.4863 c -0.8535,-0.5454 -1.6721,-1.2858 -2.2135,-1.8048 l 8.7587,-11.3119 0.0343,11.5358 -1.8008,1.5993 h 10.1228 c -0.8978,-0.7645 -2.5515,-1.7713 -2.5104,-5.383 l 0.0921,-8.0254 c 0.0219,-1.9327 1.1492,-3.5005 2.1348,-4.2729 h -9.2721 l -10.0627,13.6406 c -3.6125,-3.6987 -6.1937,-6.9095 -9.3132,-10.6036 -0.7297,-0.864 -1.3859,-1.9004 -1.6872,-3.06 l -9.8343,0.023 z" />
      <path
         id="path187"
         style="fill:#8a2525;fill-rule:evenodd"
         d="m 387.4144,560.2054 h -8.697 c 2.1215,2.4516 1.937,15.0057 0.2835,17.6813 h 8.1301 c -0.69,-1.3606 -1.1509,-4.4759 -1.2456,-7.7638 h 15.0543 c -0.0947,3.2879 -0.5556,6.4032 -1.2456,7.7638 h 8.1301 c -1.6535,-2.6756 -1.838,-15.2297 0.2834,-17.6813 h -8.697 c 0.9817,1.3388 1.4488,4.3659 1.533,7.5852 h -15.0622 c 0.0842,-3.2193 0.5514,-6.2464 1.533,-7.5852 z" />
      <path
         id="path189"
         style="fill:#8a2525;fill-rule:evenodd"
         d="m 174.9317,566.2556 c 3.1555,1.0171 6.4763,2.4951 9.0754,4.2769 l -6.4676,1.3561 c -2.2949,-1.5298 -5.9459,-2.9554 -8.9711,-3.8596 z" />
      <path
         id="path191"
         style="fill:#8a2525;fill-rule:evenodd"
         d="m 423.9746,566.2556 c -3.1556,1.0171 -6.4764,2.4951 -9.0755,4.2769 l 6.4676,1.3561 c 2.2949,-1.5298 5.9459,-2.9554 8.9711,-3.8596 z" />
    </g>
  </g>
</svg>
