<?xml version="1.0" encoding="UTF-8" standalone="no"?>
<!-- Generator: Adobe Illustrator 26.0.1, SVG Export Plug-In . SVG Version: 6.00 Build 0)  -->

<svg
   version="1.1"
   id="Layer_1"
   x="0px"
   y="0px"
   viewBox="0 0 900 900"
   xml:space="preserve"
   width="300"
   height="300"
   xmlns="http://www.w3.org/2000/svg"
   xmlns:svg="http://www.w3.org/2000/svg"><defs
   id="defs144" />

<g
   id="g92"
   transform="translate(0,-50)">
</g>
<g
   id="g144"
   transform="translate(-49.9929,-50)">
	
		<circle
   transform="matrix(0.7071,-0.7071,0.7071,0.7071,-207.1071,500)"
   style="fill:#c61d23"
   cx="500"
   cy="500"
   id="ellipse92"
   r="396" />
	
		<circle
   transform="matrix(0.7071,-0.7071,0.7071,0.7071,-207.107,500.0005)"
   style="fill:#ffffff"
   cx="500"
   cy="500.00101"
   id="ellipse93"
   r="381.32599" />
	
		<ellipse
   transform="matrix(0.7071,-0.7071,0.7071,0.7071,-207.1071,500)"
   style="fill:#c61d23"
   cx="500"
   cy="500"
   rx="272.151"
   ry="272.15201"
   id="ellipse94" />
	
		<ellipse
   transform="matrix(0.7071,-0.7071,0.7071,0.7071,-207.1071,499.9999)"
   style="fill:#ffffff"
   cx="500"
   cy="500"
   rx="265.108"
   ry="265.10901"
   id="ellipse95" />
	<polygon
   style="fill:#c61d23"
   points="255.833,662.871 235.94,627.497 176.426,660.954 177.001,661.979 180.319,667.882 207.779,652.449 222.318,678.309 228.998,674.555 214.456,648.695 233.162,638.18 249.156,666.625 "
   id="polygon95" />
	<path
   style="fill:#c61d23"
   d="m 283.68,704.104 c 0.005,-5.954 -2.1,-11.909 -6.675,-17.344 -5.463,-6.52 -12.562,-9.518 -20.013,-9.507 -8.687,0.006 -17.827,3.982 -25.883,10.808 -9.368,7.874 -15.373,17.879 -15.388,28.029 -0.005,5.856 2.044,11.715 6.517,17.027 5.622,6.711 12.786,9.764 20.239,9.764 0.016,0 0.03,0 0.045,0 8.683,-0.007 17.724,-4.013 25.679,-10.694 9.482,-7.978 15.468,-17.943 15.479,-28.083 z m -7.771,-0.149 c 0.007,7.109 -4.237,14.927 -12.825,22.144 -6.525,5.489 -13.989,9.024 -20.777,9.012 -5.209,-0.015 -10.041,-1.987 -14.156,-6.858 -3.291,-3.929 -4.671,-7.969 -4.679,-12.037 -0.019,-7.678 5.109,-15.653 12.756,-22.069 6.511,-5.487 14.087,-9.052 20.959,-9.052 0.012,0 0.023,0 0.036,0 5.196,0.012 9.999,1.95 14.024,6.718 3.15,3.757 4.655,7.849 4.662,12.142 z"
   id="path95" />
	<path
   style="fill:#c61d23"
   d="m 322.058,730.095 c -4.998,-3.87 -10.464,-5.661 -15.933,-5.659 -10.478,0.015 -20.81,6.459 -28.642,16.678 -6.08,7.867 -9.684,16.622 -9.689,24.96 -0.015,7.859 3.283,15.332 10.579,20.951 5.17,4 10.741,5.843 16.269,5.843 0.008,0 0.014,0 0.023,0 10.509,-0.015 20.691,-6.509 28.427,-16.513 6.155,-7.971 9.763,-16.715 9.768,-25.04 0.02,-7.953 -3.371,-15.496 -10.802,-21.22 z m 3.005,21.114 c 0.005,6.08 -2.691,13.083 -8.26,20.286 -6.238,8.081 -14.36,13.674 -22.308,13.647 -3.799,-0.005 -7.612,-1.226 -11.373,-4.125 -5.362,-4.168 -7.525,-9.231 -7.545,-14.775 -0.01,-6.528 3.153,-13.748 8.202,-20.269 6.217,-8.069 14.482,-13.739 22.496,-13.739 0.019,0 0.038,0 0.058,0 3.76,0.004 7.51,1.198 11.173,4.023 5.075,3.939 7.542,9.035 7.557,14.952 z"
   id="path96" />
	<polygon
   style="fill:#c61d23"
   points="347.164,750.614 346.633,751.662 343.692,757.437 360.435,765.96 332.938,819.974 340.022,823.583 367.523,769.568 384.266,778.092 387.741,771.268 "
   id="polygon96" />
	<path
   style="fill:#c61d23"
   d="m 414.917,780.051 -21.615,-6.607 -19.967,65.284 1.122,0.344 23.173,7.085 c 2.923,0.887 5.759,1.396 8.457,1.396 0.062,0 0.124,10e-4 0.186,10e-4 7.507,0 13.824,-4.362 16.781,-14.292 0.719,-2.363 1.097,-4.658 1.097,-6.847 0.028,-4.713 -1.816,-8.94 -5.545,-11.887 4.36,-0.857 8.702,-4.333 10.844,-11.481 0.655,-2.152 1.015,-4.259 1.015,-6.298 0.049,-7.375 -4.875,-13.507 -15.548,-16.698 z m -3.248,57.732 c -1.481,1.293 -3.213,1.848 -5.592,1.856 -2.693,0.007 -6.141,-0.783 -10.385,-2.084 l -12.512,-3.825 6.973,-22.796 13.141,4.018 c 4.069,1.238 7.394,2.624 9.597,4.395 2.196,1.787 3.336,3.808 3.361,6.852 0,1.357 -0.25,2.93 -0.802,4.74 -1.033,3.373 -2.301,5.546 -3.781,6.844 z m 0.545,-29.069 c -2.018,0 -4.466,-0.409 -7.389,-1.302 l -12.433,-3.799 6.276,-20.521 11.253,3.441 c 4.626,1.407 7.86,2.913 9.833,4.571 1.966,1.675 2.748,3.359 2.771,5.664 0.002,1.149 -0.223,2.465 -0.678,3.959 -1.731,5.323 -4.194,7.906 -9.633,7.987 z"
   id="path97" />
	<path
   style="fill:#c61d23"
   d="m 464.122,790.444 -31.42,65.256 1.65,0.182 6.574,0.719 9.208,-19.814 25.187,2.748 4.553,21.315 8.214,0.897 -16.001,-70.432 z m 9.368,41.186 -19.855,-2.167 13.157,-28.493 z"
   id="path98" />
	<polygon
   style="fill:#c61d23"
   points="501.161,793.105 505.407,861.25 506.582,861.179 545.097,858.779 544.618,851.135 512.869,853.11 509.099,792.612 "
   id="polygon98" />
	<polygon
   style="fill:#c61d23"
   points="547.571,789.282 562.569,855.892 563.714,855.635 601.36,847.164 599.673,839.691 568.644,846.672 555.328,787.538 "
   id="polygon99" />
	<path
   style="fill:#c61d23"
   d="m 682.666,784.316 -7.263,3.893 0.265,0.91 c 0.814,2.822 1.241,5.592 1.241,8.199 -0.026,6.577 -2.618,12.035 -8.657,15.301 -3.144,1.678 -6.07,2.397 -8.814,2.4 -9.084,0.057 -16.817,-8.184 -22.093,-18.055 -3.312,-6.166 -5.276,-12.555 -5.272,-18.18 0.034,-6.662 2.615,-12.178 9.068,-15.671 3.398,-1.824 6.511,-2.76 9.415,-2.758 4.455,0.01 8.619,2.152 12.971,7.353 l 0.611,0.735 0.846,-0.45 6.272,-3.364 -0.797,-1.089 c -5.391,-7.413 -12.32,-11.121 -19.596,-11.111 -4.001,0 -8.073,1.108 -12.035,3.233 -8.976,4.772 -14.951,12.509 -14.928,23.229 0.004,6.326 2.036,13.623 6.524,21.991 6.76,12.594 16.603,22.16 28.553,22.2 3.848,0 7.862,-1.015 11.947,-3.207 10.146,-5.403 14.015,-13.81 13.975,-22.633 0,-3.808 -0.686,-7.704 -1.824,-11.544 z"
   id="path99" />
	<polygon
   style="fill:#c61d23"
   points="668.407,739.936 710.919,793.365 711.839,792.635 742.035,768.599 737.265,762.612 712.374,782.418 674.631,734.988 "
   id="polygon100" />
	<path
   style="fill:#c61d23"
   d="m 767.869,702.455 -31.801,-27.867 -5.239,5.978 30.421,26.663 c 6.998,6.122 10.452,11.424 10.428,16.372 -0.003,3.251 -1.428,6.58 -4.643,10.256 -3.62,4.104 -7.125,6.003 -10.999,6.009 -4.437,0.018 -9.717,-2.595 -16.156,-8.25 l -30.422,-26.659 -5.241,5.977 0.884,0.775 30.917,27.096 c 6.589,5.775 13.194,8.926 19.63,8.931 0.007,0 0.015,0 0.023,0 6.16,0 11.992,-2.958 17.122,-8.83 4.433,-5.056 6.693,-10.335 6.693,-15.657 -0.008,-7.194 -4.087,-14.195 -11.617,-20.794 z"
   id="path100" />
	<path
   style="fill:#c61d23"
   d="m 807.213,650.33 c -3.435,-1.992 -6.92,-3.085 -10.277,-3.088 -3.229,-0.008 -6.317,1.039 -8.988,3.17 0.005,-0.146 0.01,-0.294 0.01,-0.441 0.017,-4.352 -2.469,-9.139 -8.718,-12.738 -3.114,-1.808 -6.293,-2.845 -9.467,-2.845 -5.977,-0.011 -11.596,3.728 -16.234,11.768 l -11.35,19.545 59.048,34.29 0.592,-1.017 12.162,-20.955 c 2.357,-4.067 3.793,-8.143 3.793,-12.125 0.026,-5.891 -3.263,-11.358 -10.571,-15.564 z m -35.848,23.117 -18.561,-10.775 5.907,-10.176 c 4.206,-7.259 7.594,-10.159 11.026,-10.159 0.027,0 0.053,0 0.079,0 1.576,-10e-4 3.351,0.564 5.43,1.772 3.941,2.327 5.902,4.839 5.925,8.489 0.004,2.483 -0.978,5.64 -3.28,9.607 z m 27.24,15.817 -20.618,-11.972 6.9,-11.883 c 3.729,-6.446 7.232,-10.324 11.671,-10.324 0.029,0 0.056,0 0.085,10e-4 1.841,0 3.996,0.62 6.578,2.121 4.964,2.923 6.628,5.486 6.649,8.661 0.023,3.024 -1.711,6.966 -4.694,12.08 z"
   id="path101" />
	<path
   style="fill:#c61d23"
   d="m 190.237,367.635 c 8.776,-0.036 14.746,-6.5 20.165,-12.56 5.435,-6.159 10.416,-11.85 16.407,-11.773 1.757,0.003 3.672,0.453 5.838,1.555 4.793,2.466 8.022,6.552 8.034,12.145 0,2.609 -0.715,5.592 -2.414,8.929 -3.351,6.508 -8.105,10.569 -14.952,10.586 -2.652,0 -5.656,-0.62 -9.05,-2.031 l -1.004,-0.417 -0.491,0.968 -3.379,6.638 1.044,0.532 c 4.632,2.358 9.074,3.474 13.217,3.474 0.009,0 0.019,0 0.029,0 9.402,0.001 17.026,-5.808 21.624,-14.888 2.592,-5.1 3.896,-9.982 3.896,-14.499 0.029,-8.284 -4.495,-15.224 -12.836,-19.436 -3.854,-1.962 -7.341,-2.828 -10.524,-2.828 -8.895,0.033 -14.833,6.603 -20.161,12.756 -5.342,6.26 -10.197,12.026 -16.078,11.942 -1.095,0 -2.249,-0.184 -3.5,-0.601 -4.941,-1.693 -9.02,-5.978 -9.026,-12.219 0,-2.538 0.68,-5.439 2.325,-8.67 2.706,-5.29 7.245,-9.022 13.034,-9.022 2.354,0 4.958,0.615 7.801,2.061 l 1.047,0.534 3.866,-7.593 -1.035,-0.536 c -3.83,-1.989 -7.891,-3.069 -11.897,-3.069 -7.941,-0.024 -15.594,4.338 -20.37,13.781 -2.294,4.5 -3.329,8.83 -3.329,12.808 -0.01,8.478 4.728,15.272 11.489,18.698 3.724,1.896 7.117,2.735 10.23,2.735 z"
   id="path102" />
	<polygon
   style="fill:#c61d23"
   points="282.172,297.943 259.604,326.887 204.454,283.878 199.034,290.826 260.869,339.048 261.59,338.123 288.857,303.157 "
   id="polygon102" />
	<polygon
   style="fill:#c61d23"
   points="249.467,233.213 243.116,239.326 297.492,295.83 298.339,295.016 303.846,289.718 "
   id="polygon103" />
	<path
   style="fill:#c61d23"
   d="m 323.428,268.99 c 5.588,0 11.007,-1.776 15.951,-5.098 9.91,-6.614 13.602,-14.699 13.617,-23.498 l 5.523,8.221 6.528,-4.383 -23.226,-34.574 -26.261,17.639 4.724,7.037 0.976,-0.655 18.185,-12.216 c 2.741,4.376 4.777,8.679 5.515,13.253 0.224,1.352 0.329,2.649 0.329,3.891 0,8.11 -4.443,14.077 -9.531,17.503 -3.75,2.515 -7.684,3.634 -11.639,3.636 -9.132,0.019 -18.515,-6.109 -24.89,-15.611 -6.037,-8.979 -9.421,-17.537 -9.412,-24.895 0.024,-7.115 3.037,-13.16 10.138,-17.963 3.529,-2.37 7.534,-3.614 11.577,-3.614 5.153,0.004 10.369,2.011 14.798,6.401 l 0.683,0.678 7.491,-5.033 -0.979,-1.009 c -6.548,-6.754 -13.943,-9.916 -21.339,-9.909 -5.961,0 -11.875,2.037 -17.352,5.716 -9.679,6.473 -14.046,15.426 -14.024,25.099 0.005,8.784 3.503,18.129 9.512,27.075 10.18,15.171 21.864,22.304 33.106,22.309 z"
   id="path103" />
	<path
   style="fill:#c61d23"
   d="m 393.087,232.969 c 3.516,0 7.185,-0.638 10.954,-1.981 14.355,-5.081 20.905,-17.249 20.859,-31.11 -0.002,-6.023 -1.2,-12.39 -3.46,-18.734 -6.157,-17.325 -18.345,-29.736 -34.078,-29.753 -3.606,0 -7.376,0.659 -11.26,2.043 -13.942,4.938 -20.533,17.076 -20.49,31.036 0,6.052 1.205,12.468 3.523,18.885 6.065,17.065 18.278,29.592 33.952,29.614 z m -28.685,-48.795 c 0.048,-10.394 4.206,-19.039 14.723,-22.82 2.726,-0.974 5.384,-1.442 7.954,-1.442 10.789,-0.01 20.384,8.332 26.06,24.19 1.947,5.465 3.044,11.021 3.044,16.173 -0.052,10.333 -4.236,18.856 -14.898,22.695 -2.828,1.008 -5.503,1.468 -8.025,1.468 -11.818,0.04 -20.916,-10.288 -25.825,-24.049 -1.943,-5.44 -3.033,-11.021 -3.033,-16.215 z"
   id="path104" />
	<path
   style="fill:#c61d23"
   d="m 520.334,179.791 c 2.037,1.199 3.516,3.135 4.143,7.044 0.417,2.733 0.376,7.775 0.526,12.741 0.175,4.999 0.466,9.888 1.88,12.917 l 0.307,0.644 9.019,0.264 0.07,-2.449 -0.395,-0.363 c -1.103,-0.887 -2.04,-3.666 -2.002,-14.33 0,-0.339 0,-0.684 0.003,-1.037 0,-0.409 0.003,-0.818 0.003,-1.236 -0.003,-3.906 -0.128,-8.127 -1.279,-11.887 -0.921,-3.051 -2.611,-5.849 -5.452,-7.702 6.852,-3.723 10.071,-9.271 10.25,-18.262 0.004,-0.351 0.012,-0.691 0.012,-1.038 0.015,-6.888 -2.126,-12.126 -6.289,-15.563 -4.153,-3.433 -10.101,-5.025 -17.568,-5.248 l -27.975,-0.816 -2.287,78.387 8.81,0.26 1.008,-34.537 19.164,0.562 c 3.174,0.082 6,0.452 8.052,1.649 z m -26.967,-10.685 0.785,-26.908 19.354,0.565 c 4.12,0.114 7.96,0.892 10.652,2.791 2.672,1.902 4.412,4.834 4.437,9.986 10e-4,0.215 -0.003,0.434 -0.007,0.659 -0.159,4.907 -1.852,8.153 -4.519,10.297 -2.673,2.14 -6.468,3.176 -10.88,3.174 -0.281,0.002 -0.564,-0.002 -0.849,-0.01 z"
   id="path105" />
	<path
   style="fill:#c61d23"
   d="m 594.858,144.405 c -2.86,-0.768 -5.648,-1.134 -8.338,-1.134 -16.593,0.022 -29.06,13.861 -33.962,32.6 -1.38,5.156 -2.096,10.277 -2.096,15.169 -0.057,15.452 7.33,28.815 23.386,33.071 2.995,0.802 5.895,1.185 8.685,1.185 16.864,-0.02 29.035,-13.953 33.93,-32.346 1.399,-5.256 2.129,-10.434 2.129,-15.362 0.061,-15.599 -7.478,-28.882 -23.734,-33.183 z m 15.008,32.802 c 0,4.103 -0.623,8.621 -1.919,13.468 -3.931,14.639 -12.811,26.179 -25.539,26.135 -1.981,0 -4.075,-0.274 -6.28,-0.863 -12.1,-3.279 -16.862,-12.75 -16.93,-24.502 0,-4.252 0.66,-8.767 1.875,-13.302 3.899,-14.572 12.949,-26.337 25.618,-26.338 0.027,0 0.053,0 0.079,0.001 1.925,0 3.953,0.266 6.082,0.835 11.037,2.996 16.955,11.675 17.014,24.566 z"
   id="path106" />
	<polygon
   style="fill:#c61d23"
   points="645.025,164.368 630.306,243.576 638.136,247.719 696.462,189.854 688.317,185.544 640.649,233.594 653.461,167.105 645.316,162.8 "
   id="polygon106" />
	<polygon
   style="fill:#c61d23"
   points="714.203,202.417 664.535,263.093 665.441,263.839 702.334,294.033 707.702,287.471 676.723,262.117 694.374,240.553 721.676,262.898 727.044,256.337 699.743,233.995 715.656,214.556 745.899,239.307 751.268,232.749 "
   id="polygon107" />
	<path
   style="fill:#c61d23"
   d="m 713.686,306.913 26.904,-21.678 12.033,14.93 c 2.395,2.958 4.124,5.771 4.104,8.571 -10e-4,1.891 -0.721,3.931 -2.785,6.346 -1.809,2.091 -5.67,5.34 -9.345,8.681 -3.687,3.38 -7.21,6.778 -8.595,9.823 l -0.291,0.654 5.663,7.024 1.909,-1.539 0.018,-0.535 c 0.031,-0.773 0.336,-1.716 1.856,-3.519 1.506,-1.782 4.154,-4.287 8.53,-7.99 5.179,-4.433 11.476,-9.779 11.552,-17.074 0,-0.522 -0.035,-1.052 -0.105,-1.587 2.527,0.96 4.925,1.476 7.296,1.476 4.467,0.005 8.684,-1.856 13.248,-5.54 5.693,-4.57 8.553,-9.729 8.542,-15.301 -0.008,-5.465 -2.674,-11.106 -7.432,-17.019 l -17.564,-21.79 -61.066,49.205 z m 54.466,-43.887 12.151,15.077 c 2.853,3.53 4.863,7.316 4.848,10.895 -0.012,3.057 -1.357,6.129 -5.25,9.294 -3.051,2.45 -5.946,3.46 -8.68,3.462 -4.343,0.01 -8.542,-2.619 -12.117,-7.057 L 747.19,279.916 Z"
   id="path107" />
	<path
   style="fill:#c61d23"
   d="m 828.057,333.201 c -4.986,-9.842 -12.908,-14.313 -20.635,-14.296 -3.341,0 -6.634,0.823 -9.638,2.352 -8.983,4.502 -11.722,11.283 -11.662,18.196 0.03,8.576 3.732,17.653 3.698,24.796 -0.06,4.861 -1.458,8.576 -6.819,11.365 -2.3,1.169 -4.719,1.815 -7.087,1.815 -4.843,-0.025 -9.627,-2.604 -13.256,-9.67 -1.681,-3.298 -2.62,-6.571 -2.617,-9.677 0.022,-5.348 2.677,-10.37 9.829,-14.764 l 0.929,-0.564 -0.492,-0.969 -3.381,-6.641 -1.044,0.534 c -10.022,5.061 -14.795,12.968 -14.771,21.552 0,4.387 1.216,8.918 3.476,13.357 5.115,10.11 12.701,15.672 21.368,15.672 0.008,0 0.015,0 0.023,0 3.657,0 7.464,-0.981 11.301,-2.934 9.125,-4.582 11.951,-11.352 11.894,-18.246 -0.036,-8.824 -4.109,-18.129 -4.07,-25.317 0.03,-3.957 1.086,-7.078 4.564,-9.59 2.257,-1.6 5.011,-2.566 7.825,-2.564 4.591,0.023 9.438,2.48 13.01,9.436 1.334,2.626 2.089,5.428 2.089,8.129 -0.031,4.911 -2.374,9.545 -8.728,12.816 l -1.045,0.532 3.859,7.593 1.044,-0.52 c 8.03,-3.992 13.519,-11.218 13.512,-20.163 0.003,-3.837 -1.002,-7.959 -3.176,-12.23 z"
   id="path108" />
	<polygon
   style="fill:#c61d23"
   points="425.974,734.208 407.195,734.208 407.195,721.956 423.742,721.956 423.742,718.059 407.195,718.059 407.195,707.026 425.525,707.029 425.525,703.13 402.988,703.13 402.988,738.108 403.577,738.108 425.974,738.108 "
   id="polygon108" />
	<path
   style="fill:#c61d23"
   d="m 443.377,718.575 c -2.382,-0.581 -4.766,-1.026 -6.569,-1.828 -1.81,-0.823 -2.978,-1.873 -3.299,-3.828 -0.046,-0.301 -0.071,-0.601 -0.071,-0.907 0.039,-2.896 2.013,-5.836 7.341,-5.879 3.92,0.056 7.276,1.971 7.309,6.786 v 0.586 h 4.091 l -0.021,-0.604 c 0,-0.022 0,-0.044 0,-0.085 0.003,-2.852 -0.95,-5.51 -2.874,-7.453 -1.922,-1.943 -4.793,-3.128 -8.506,-3.125 -3.707,-0.003 -6.586,1.133 -8.531,2.924 -1.947,1.79 -2.941,4.221 -2.938,6.724 -0.023,7.039 5.374,8.852 10.232,10.029 2.462,0.615 4.873,1.149 6.589,2.115 1.71,0.987 2.736,2.238 2.758,4.663 -0.055,3.439 -2.061,6.354 -7.574,6.407 -4.749,-0.066 -8.125,-1.949 -8.649,-7.724 l -0.044,-0.54 h -0.54 -3.532 v 0.589 c -0.005,3.789 1.299,6.73 3.51,8.679 2.211,1.95 5.271,2.894 8.719,2.894 3.794,-0.003 6.873,-0.94 9.02,-2.745 2.149,-1.802 3.304,-4.47 3.297,-7.702 0.032,-6.913 -5.004,-8.874 -9.718,-9.976 z"
   id="path109" />
	<polygon
   style="fill:#c61d23"
   points="454.601,707.027 464.769,707.027 464.769,738.107 468.978,738.107 468.978,707.027 479.147,707.027 479.147,703.13 454.601,703.13 454.601,703.719 "
   id="polygon109" />
	<polygon
   style="fill:#c61d23"
   points="487.178,738.107 487.178,732.803 482.748,732.803 482.748,738.107 483.337,738.107 "
   id="polygon110" />
	<path
   style="fill:#c61d23"
   d="m 519.217,708.45 c -0.428,2.398 -1.227,3.527 -2.394,4.203 -1.177,0.683 -2.889,0.885 -5.079,1.025 l -0.547,0.034 v 2.864 h 7.476 v 21.531 h 3.807 v -30.142 h -3.18 z"
   id="path110" />
	<path
   style="fill:#c61d23"
   d="m 540.709,707.962 c -3.288,-0.005 -5.813,1.084 -7.473,2.934 -1.662,1.848 -2.443,4.392 -2.44,7.23 -0.003,2.935 0.925,5.428 2.607,7.18 1.678,1.756 4.093,2.737 6.938,2.733 2.965,0.011 5.396,-1.153 7.189,-3.241 -0.18,2.156 -0.552,4.482 -1.384,6.369 -1.099,2.436 -2.781,4.101 -5.97,4.123 -2.988,-0.052 -4.421,-1.36 -5.053,-4.253 l -0.094,-0.474 h -0.481 -3.316 l 0.06,0.644 c 0.444,4.989 4.239,7.477 8.871,7.477 0.045,0 0.092,0 0.137,-10e-4 3.225,0.008 6.074,-1.367 8.046,-4.011 1.975,-2.639 3.101,-6.495 3.103,-11.491 -0.004,-4.104 -0.583,-7.852 -2.232,-10.649 -1.636,-2.806 -4.443,-4.587 -8.508,-4.57 z m 5.906,10.082 c -0.033,3.683 -2.16,6.588 -5.906,6.603 -3.964,-0.057 -6.049,-2.267 -6.11,-6.438 h -0.003 c 0.07,-4.336 1.973,-6.718 6.123,-6.853 3.731,0.111 5.848,2.628 5.896,6.688 z"
   id="path111" />
	<path
   style="fill:#c61d23"
   d="m 561.443,729.932 c 4.063,-3.173 12.778,-5.149 12.848,-13.367 0,-2.354 -0.825,-4.526 -2.452,-6.095 -1.622,-1.57 -4.018,-2.509 -7.052,-2.508 -2.986,-10e-4 -5.507,0.996 -7.264,2.781 -1.76,1.781 -2.734,4.32 -2.734,7.3 v 0.586 h 0.588 3.423 L 558.758,718 c -0.007,-0.094 -0.007,-0.193 -0.007,-0.302 0.011,-3.494 2.406,-6.335 5.708,-6.342 3.345,0.041 5.757,1.921 5.782,5.37 -0.015,3.135 -1.741,4.58 -4.482,6.302 -2.718,1.683 -6.32,3.446 -9.429,7.039 -1.966,2.26 -2.367,4.656 -2.401,7.443 l -0.011,0.596 h 20.126 v -3.396 h -16.089 c 0.319,-2.116 1.774,-3.466 3.488,-4.778 z"
   id="path112" />
	<path
   style="fill:#c61d23"
   d="m 592.599,722.042 c 2.207,-1.459 3.244,-3.677 3.218,-6.421 0.011,-2.662 -1.189,-4.653 -2.96,-5.881 -1.768,-1.237 -4.068,-1.774 -6.376,-1.776 -0.101,-0.01 -0.226,-0.007 -0.333,-0.007 -4.682,0.007 -8.504,3.396 -8.516,7.665 -0.048,3.199 1.161,4.739 3.39,6.239 -2.87,1.528 -4.43,4.408 -4.418,7.688 0.008,6.062 5.205,9.127 9.63,9.136 3.179,-0.003 5.866,-0.806 7.784,-2.409 1.919,-1.6 3.001,-4.002 2.994,-6.973 0.009,-3.196 -1.687,-5.852 -4.413,-7.261 z m -5.75,1.889 c 3.694,0.053 6.33,1.748 6.357,5.455 -0.015,3.534 -2.639,5.879 -6.19,5.902 -4.153,-0.029 -6.584,-2.498 -6.606,-5.739 0.044,-3.936 2.573,-5.553 6.439,-5.618 z m 0.166,-3.393 c -3.06,-0.048 -5.57,-1.383 -5.578,-4.548 0.022,-3.054 2.24,-4.589 5.288,-4.632 3.841,0.078 5.228,1.451 5.29,4.056 -0.068,3.838 -2.029,5.047 -5,5.124 z"
   id="path113" />
	<path
   style="fill:#c61d23"
   d="M 499.605,696.756 C 430.526,671.953 380.071,620.381 354.056,522.313 v 0 C 340.584,471.554 334.39,370.587 334.383,370.548 v 0 l -0.106,-1.707 1.63,0.515 c 0.035,0.007 15.001,4.738 32.822,9.475 v 0 c 17.803,4.738 38.51,9.462 49.549,9.45 v 0 c 23.022,0.027 57.287,-13.782 72.872,-20.7 v 0 c 5.204,-2.303 8.326,-3.83 8.336,-3.835 v 0 l 0.512,-0.251 0.518,0.251 c 0.007,0.005 3.131,1.533 8.336,3.835 v 0 c 5.204,2.303 12.469,5.376 20.704,8.447 v 0 c 16.455,6.147 36.838,12.262 52.169,12.253 v 0 c 11.04,0.012 31.748,-4.712 49.547,-9.45 v 0 c 17.823,-4.736 32.792,-9.464 32.825,-9.475 v 0 l 1.628,-0.517 -0.104,1.71 c -0.008,0.039 -6.2,101.007 -19.675,151.765 v 0 c -26.01,98.068 -76.468,149.64 -145.547,174.443 v 0 L 500,696.899 Z"
   id="path114" />
	<path
   style="fill:#ffffff"
   d="m 408.709,400.663 v 24.194 H 406.8 c -0.619,-4.643 -1.728,-8.34 -3.328,-11.091 -1.599,-2.752 -3.877,-4.935 -6.835,-6.552 -2.959,-1.616 -6.019,-2.425 -9.183,-2.425 -3.578,0 -6.535,1.092 -8.873,3.276 -2.339,2.184 -3.508,4.669 -3.508,7.454 0,2.133 0.739,4.076 2.219,5.829 2.132,2.579 7.204,6.019 15.218,10.318 6.534,3.508 10.996,6.199 13.388,8.073 2.39,1.875 4.23,4.084 5.52,6.629 1.289,2.545 1.934,5.21 1.934,7.996 0,5.296 -2.055,9.862 -6.165,13.696 -4.11,3.835 -9.397,5.752 -15.863,5.752 -2.03,0 -3.939,-0.155 -5.726,-0.465 -1.067,-0.172 -3.276,-0.799 -6.63,-1.883 -3.353,-1.083 -5.477,-1.625 -6.371,-1.625 -0.86,0 -1.54,0.258 -2.038,0.773 -0.499,0.516 -0.869,1.582 -1.109,3.199 h -1.909 v -23.989 h 1.909 c 0.894,5.022 2.098,8.779 3.611,11.272 1.513,2.494 3.826,4.565 6.939,6.216 3.112,1.651 6.526,2.476 10.24,2.476 4.299,0 7.695,-1.135 10.189,-3.405 2.494,-2.27 3.74,-4.952 3.74,-8.048 0,-1.719 -0.473,-3.456 -1.418,-5.21 -0.946,-1.755 -2.417,-3.388 -4.411,-4.901 -1.341,-1.032 -5.004,-3.224 -10.988,-6.578 -5.984,-3.353 -10.24,-6.028 -12.768,-8.022 -2.528,-1.994 -4.445,-4.196 -5.752,-6.604 -1.308,-2.406 -1.96,-5.055 -1.96,-7.944 0,-5.021 1.925,-9.345 5.778,-12.975 3.852,-3.628 8.752,-5.442 14.703,-5.442 3.714,0 7.652,0.911 11.813,2.734 1.926,0.86 3.284,1.29 4.076,1.29 0.894,0 1.625,-0.266 2.193,-0.799 0.568,-0.533 1.024,-1.608 1.367,-3.224 h 1.907 z"
   id="path115" />
	<path
   style="fill:#ffffff"
   d="m 496.447,472.216 h -18.675 l -23.679,-32.707 c -1.754,0.07 -3.181,0.103 -4.282,0.103 -0.447,0 -0.929,-0.008 -1.444,-0.025 -0.516,-0.017 -1.049,-0.043 -1.599,-0.078 v 20.326 c 0,4.403 0.481,7.137 1.444,8.202 1.307,1.514 3.267,2.271 5.881,2.271 h 2.734 v 1.908 h -29.973 v -1.908 h 2.631 c 2.958,0 5.072,-0.963 6.345,-2.889 0.722,-1.065 1.083,-3.593 1.083,-7.583 v -45.191 c 0,-4.402 -0.482,-7.136 -1.444,-8.202 -1.341,-1.513 -3.336,-2.27 -5.984,-2.27 h -2.631 v -1.909 h 25.484 c 7.429,0 12.905,0.542 16.431,1.625 3.524,1.083 6.516,3.078 8.976,5.984 2.458,2.906 3.688,6.371 3.688,10.395 0,4.3 -1.402,8.031 -4.204,11.195 -2.804,3.164 -7.145,5.4 -13.027,6.706 l 14.445,20.068 c 3.302,4.609 6.139,7.669 8.513,9.182 2.373,1.514 5.468,2.476 9.285,2.889 v 1.908 z m -49.679,-35.957 c 0.652,0 1.22,0.008 1.702,0.025 0.482,0.018 0.877,0.026 1.187,0.026 6.672,0 11.701,-1.444 15.09,-4.333 3.386,-2.889 5.081,-6.569 5.081,-11.04 0,-4.367 -1.367,-7.919 -4.102,-10.653 -2.733,-2.734 -6.353,-4.101 -10.859,-4.101 -1.995,0 -4.695,0.327 -8.099,0.98 z"
   id="path116" />
	<path
   style="fill:#ffffff"
   d="m 523.156,406.08 v 27.496 h 12.741 c 2.924,0 5.064,-0.644 6.424,-1.934 1.357,-1.29 2.26,-3.843 2.708,-7.661 h 1.908 v 23.679 h -1.908 c -0.036,-2.717 -0.388,-4.712 -1.058,-5.984 -0.671,-1.272 -1.6,-2.227 -2.786,-2.863 -1.188,-0.636 -2.949,-0.954 -5.288,-0.954 h -12.741 v 21.977 c 0,3.543 0.223,5.881 0.67,7.016 0.344,0.859 1.067,1.599 2.167,2.218 1.513,0.825 3.095,1.239 4.746,1.239 h 2.528 v 1.908 h -30.025 v -1.908 h 2.478 c 2.889,0 4.986,-0.843 6.293,-2.528 0.825,-1.101 1.238,-3.748 1.238,-7.945 v -45.191 c 0,-3.541 -0.223,-5.881 -0.67,-7.016 -0.344,-0.859 -1.049,-1.599 -2.115,-2.218 -1.48,-0.825 -3.061,-1.238 -4.746,-1.238 h -2.478 v -1.909 h 52.053 l 0.671,15.374 h -1.805 c -0.895,-3.267 -1.935,-5.666 -3.122,-7.197 -1.185,-1.53 -2.648,-2.639 -4.384,-3.327 -1.738,-0.688 -4.429,-1.032 -8.073,-1.032 h -15.426 z"
   id="path117" />
	<path
   style="fill:#ffffff"
   d="m 629.93,400.663 1.599,23.782 h -1.599 c -2.133,-7.119 -5.176,-12.244 -9.132,-15.373 -3.955,-3.129 -8.701,-4.695 -14.238,-4.695 -4.643,0 -8.838,1.179 -12.588,3.534 -3.748,2.356 -6.699,6.113 -8.847,11.272 -2.151,5.159 -3.225,11.574 -3.225,19.242 0,6.328 1.015,11.813 3.045,16.457 2.029,4.643 5.081,8.202 9.157,10.678 4.075,2.476 8.726,3.714 13.955,3.714 4.54,0 8.546,-0.972 12.02,-2.915 3.474,-1.943 7.292,-5.804 11.453,-11.581 l 1.599,1.032 c -3.508,6.225 -7.6,10.782 -12.278,13.671 -4.678,2.889 -10.231,4.334 -16.663,4.334 -11.589,0 -20.566,-4.299 -26.928,-12.897 -4.747,-6.397 -7.119,-13.929 -7.119,-22.596 0,-6.982 1.565,-13.395 4.694,-19.242 3.131,-5.847 7.438,-10.377 12.923,-13.594 5.485,-3.215 11.479,-4.823 17.979,-4.823 5.056,0 10.042,1.238 14.96,3.714 1.444,0.756 2.476,1.135 3.095,1.135 0.929,0 1.737,-0.327 2.424,-0.98 0.895,-0.929 1.53,-2.218 1.909,-3.869 z"
   id="path118" />
	<path
   style="fill:#ffffff"
   d="M 429.273,499.216 414.6,511.542 589.999,632.605 c 11.875,-14.21 22.432,-30.698 31.591,-49.787 z"
   id="path119" />
	<path
   d="m 498.734,594.497 c -0.487,-2.041 -1.218,-3.822 -2.436,-5.049 -0.808,-0.814 -1.904,-1.349 -3.128,-1.339 -0.008,0 -0.016,10e-4 -0.025,10e-4 -0.031,-2.309 -0.357,-4.576 -1.127,-6.58 -0.807,-2.103 -2.138,-3.938 -4.13,-5.052 -1.323,-0.742 -2.915,-1.146 -4.745,-1.145 -0.172,0 -0.348,0.007 -0.523,0.014 -0.185,-0.65 -0.402,-1.263 -0.659,-1.838 -0.665,-1.47 -1.641,-2.691 -2.981,-3.502 -1.339,-0.812 -2.985,-1.198 -4.934,-1.198 -0.859,0 -1.785,0.078 -2.782,0.224 -0.327,-0.507 -0.704,-0.974 -1.142,-1.384 -1.074,-1.011 -2.54,-1.619 -4.254,-1.61 -2.397,10e-4 -4.223,1.145 -5.403,2.226 -0.355,0.327 -0.657,0.65 -0.908,0.944 -0.251,-0.294 -0.553,-0.618 -0.908,-0.944 -1.18,-1.081 -3.006,-2.225 -5.402,-2.226 -1.713,-0.01 -3.179,0.598 -4.254,1.61 -0.439,0.41 -0.814,0.877 -1.143,1.384 -0.994,-0.146 -1.921,-0.224 -2.781,-0.224 -1.949,0 -3.596,0.387 -4.934,1.198 -1.34,0.812 -2.316,2.032 -2.981,3.502 -0.258,0.575 -0.475,1.188 -0.659,1.838 -0.176,-0.007 -0.351,-0.014 -0.523,-0.014 -1.83,-10e-4 -3.422,0.403 -4.745,1.145 -1.993,1.114 -3.323,2.949 -4.13,5.052 -0.77,2.003 -1.096,4.27 -1.128,6.58 -0.009,0 -0.016,-10e-4 -0.025,-10e-4 -1.223,-0.01 -2.32,0.525 -3.128,1.339 -1.22,1.227 -1.949,3.008 -2.436,5.049 -0.481,2.043 -0.692,4.362 -0.692,6.678 v 0 c 0.056,5.07 2.203,9.423 4.438,12.885 2.292,3.486 4.831,6.226 7.059,8.39 0.694,0.661 1.36,1.268 1.99,1.822 -0.012,0.067 -0.021,0.135 -0.021,0.202 v 0 15.052 c 10e-4,2.923 2.367,5.287 5.288,5.288 h 14.594 l 3.105,3.332 0.093,0.089 c 0.09,0.052 1.378,1.213 3.325,1.242 1.947,-0.029 3.234,-1.19 3.325,-1.242 l 0.093,-0.089 3.105,-3.332 h 14.594 c 2.921,0 5.288,-2.365 5.288,-5.287 v -15.053 c 0,-0.068 -0.008,-0.135 -0.021,-0.201 0.631,-0.555 1.295,-1.161 1.99,-1.823 2.228,-2.165 4.767,-4.904 7.061,-8.39 2.234,-3.461 4.38,-7.815 4.437,-12.885 -0.004,-2.316 -0.216,-4.635 -0.697,-6.678 z"
   id="path120" />
	<path
   style="fill:#b3b3b3"
   d="m 493.344,613.015 c -2.093,3.373 -4.442,6.145 -6.485,8.389 -4.134,4.471 -7.08,6.883 -6.891,7.126 0.105,0.148 1.585,-0.68 3.877,-2.503 v 13.501 c -0.004,1.753 -1.42,3.17 -3.173,3.174 h -12.62 l 6.626,-7.106 c 0.398,-0.428 0.374,-1.096 -0.053,-1.493 -0.428,-0.399 -1.096,-0.376 -1.495,0.052 l -11.658,12.503 c -0.222,0.164 -1.106,0.728 -1.916,0.705 -0.487,0.005 -1.001,-0.178 -1.382,-0.379 -0.191,-0.1 -0.347,-0.198 -0.45,-0.271 -0.04,-0.027 -0.071,-0.051 -0.094,-0.068 l -11.649,-12.491 c -0.4,-0.429 -1.069,-0.451 -1.495,-0.052 -0.427,0.398 -0.451,1.067 -0.052,1.493 l 6.625,7.106 -12.621,-10e-4 c -1.752,-0.003 -3.169,-1.42 -3.172,-3.174 v -13.5 c 2.292,1.823 3.774,2.651 3.878,2.503 0.19,-0.243 -2.757,-2.655 -6.891,-7.126 -2.044,-2.244 -4.393,-5.016 -6.485,-8.389 -2.052,-3.352 -3.931,-7.424 -3.968,-11.839 -0.003,-2.912 0.369,-5.823 1.138,-7.887 0.379,-1.032 0.859,-1.839 1.366,-2.339 0.517,-0.5 1,-0.716 1.638,-0.726 0.018,0 0.036,0.003 0.053,0.004 0.428,10.141 4.96,18.569 9.025,23.646 4.352,5.481 8.069,7.833 8.214,7.607 0.206,-0.238 -3.099,-2.958 -7.012,-8.498 -3.875,-5.455 -8.201,-14.182 -8.147,-24.499 v 0 c -0.004,-3.001 0.555,-5.849 1.801,-7.83 0.622,-0.995 1.399,-1.778 2.382,-2.33 0.984,-0.548 2.189,-0.875 3.713,-0.875 0.021,0 0.043,0 0.063,0 -0.376,2.278 -0.478,4.926 -0.484,7.932 v 0 c 0.029,9.636 3.195,17.902 6.001,23.359 2.853,5.503 5.413,8.401 5.631,8.228 0.248,-0.175 -1.835,-3.33 -4.282,-8.871 -2.406,-5.504 -5.213,-13.554 -5.236,-22.715 h 0.001 c -0.003,-3.642 0.174,-6.681 0.733,-8.967 0.566,-2.301 1.455,-3.759 2.835,-4.598 0.929,-0.564 2.154,-0.891 3.835,-0.892 0.551,0 1.152,0.036 1.799,0.109 -0.325,0.876 -0.566,1.815 -0.752,2.782 -0.456,2.42 -0.553,5.067 -0.554,7.476 -0.185,19.007 5.911,33.526 6.557,33.136 0.418,-0.111 -4.626,-14.52 -4.442,-33.136 v 0 c -0.004,-3.128 0.188,-6.603 1.039,-9.142 0.421,-1.275 0.999,-2.289 1.718,-2.954 0.724,-0.661 1.566,-1.033 2.814,-1.043 1.693,0 3.023,0.808 3.975,1.675 0.471,0.43 0.836,0.868 1.075,1.19 0.083,0.113 0.15,0.208 0.202,0.286 v 16.617 c 0,16.657 0.473,30.138 1.058,30.138 0.585,0 1.058,-13.481 1.058,-30.138 v 0 -16.617 c 0.053,-0.078 0.12,-0.172 0.202,-0.286 0.24,-0.322 0.605,-0.76 1.076,-1.19 0.952,-0.868 2.282,-1.675 3.974,-1.675 1.248,0.01 2.09,0.381 2.814,1.043 0.719,0.666 1.296,1.679 1.716,2.954 0.852,2.539 1.044,6.014 1.039,9.142 v 0 c 0.183,18.616 -4.861,33.026 -4.442,33.136 0.646,0.389 6.741,-14.13 6.557,-33.136 -10e-4,-2.409 -0.098,-5.056 -0.554,-7.476 -0.186,-0.967 -0.426,-1.906 -0.751,-2.782 0.647,-0.074 1.247,-0.109 1.798,-0.109 1.682,10e-4 2.907,0.328 3.835,0.892 1.38,0.839 2.27,2.297 2.836,4.598 0.559,2.286 0.736,5.325 0.733,8.967 v 0 c -0.023,9.161 -2.829,17.211 -5.236,22.715 -2.446,5.541 -4.53,8.696 -4.283,8.871 0.219,0.174 2.779,-2.725 5.633,-8.228 2.805,-5.457 5.972,-13.722 6.001,-23.359 v 0 c -0.006,-3.006 -0.109,-5.655 -0.485,-7.932 0.02,0 0.043,0 0.064,0 1.524,0 2.729,0.327 3.713,0.875 0.983,0.552 1.76,1.335 2.382,2.33 1.246,1.981 1.804,4.829 1.8,7.83 0.055,10.317 -4.271,19.044 -8.146,24.499 -3.914,5.54 -7.218,8.26 -7.012,8.498 0.145,0.226 3.862,-2.126 8.214,-7.607 4.065,-5.076 8.598,-13.505 9.025,-23.646 0.017,-10e-4 0.034,-0.004 0.052,-0.004 0.639,0.01 1.121,0.225 1.638,0.726 0.508,0.5 0.987,1.308 1.367,2.339 0.769,2.065 1.142,4.975 1.137,7.887 -0.037,4.416 -1.916,8.488 -3.968,11.84 z"
   id="path121" />
	<path
   style="fill:#ffffff"
   d="m 403.599,521.499 c -1.762,-1.82 -3.253,-3.915 -4.412,-6.22 -2.353,-0.405 -4.007,-1.464 -4.936,-2.222 2.596,6.746 7.793,12.2 14.365,15.134 -0.269,-0.649 -0.646,-1.744 -0.91,-3.274 -1.488,-0.985 -2.864,-2.131 -4.107,-3.418 z"
   id="path122" />
	<path
   style="fill:#ffffff"
   d="m 437.144,522.427 c -2.821,2.619 -6.237,4.57 -10.016,5.609 -0.218,0.223 -1.166,1.179 -2.221,2.021 5.515,-1.06 10.441,-3.776 14.236,-7.615 -0.363,0.068 -0.696,0.096 -0.985,0.096 -0.471,0 -0.827,-0.066 -1.014,-0.111 z"
   id="path123" />
	<path
   style="fill:#ffffff"
   d="m 419.66,478.528 c 0.394,-0.021 0.788,-0.03 1.185,-0.03 3.957,-10e-4 7.695,0.976 11.001,2.704 0.345,-0.189 1.377,-0.701 2.698,-0.873 -4.267,-2.761 -9.352,-4.366 -14.813,-4.366 -0.896,0 -1.782,0.044 -2.656,0.129 0.585,0.485 1.567,1.346 2.585,2.436 z"
   id="path124" />
	<path
   style="fill:#ffffff"
   d="m 403.045,486.473 c 0.011,-2.272 0.362,-4.233 0.585,-5.254 -6.008,4.397 -10.15,11.19 -11.02,18.972 0.89,-0.829 2.747,-2.477 4.916,-3.889 1.101,-3.715 3.012,-7.065 5.519,-9.829 z"
   id="path125" />
	<path
   style="fill:#ffffff"
   d="m 445.232,503.691 c 0,0.562 -0.02,1.121 -0.055,1.673 0.771,0.35 1.325,0.73 1.671,1.002 0.115,-1.022 0.176,-2.057 0.176,-3.109 0,-3.345 -0.604,-6.55 -1.704,-9.514 -0.377,0.067 -1.108,0.176 -1.981,0.202 1.219,2.998 1.893,6.291 1.893,9.746 z"
   id="path126" />
	<path
   style="fill:#ffffff"
   d="m 437.973,511.863 c -0.848,-0.342 -4.921,-2.072 -7.974,-5.045 -0.787,0.612 -4.267,3.184 -9.631,5.281 -0.027,5.258 -1.276,9.581 -1.54,10.436 0.01,0.011 0.018,0.018 0.03,0.03 0.092,0.082 0.23,0.206 0.415,0.361 0.366,0.309 0.909,0.747 1.623,1.252 1.411,1.002 3.48,2.274 6.116,3.371 3.716,-1.023 7.074,-2.946 9.844,-5.534 0.027,-0.102 0.085,-0.321 0.162,-0.642 0.108,-0.463 0.255,-1.126 0.4,-1.946 0.29,-1.634 0.582,-3.884 0.582,-6.326 -10e-4,-0.408 -0.011,-0.823 -0.027,-1.238 z"
   id="path127" />
	<path
   style="fill:#ffffff"
   d="m 418.358,522.416 c 0.04,-0.134 0.113,-0.369 0.203,-0.701 0.147,-0.536 0.343,-1.315 0.539,-2.272 0.387,-1.895 0.773,-4.505 0.784,-7.389 -3.346,-2.554 -6.715,-7.192 -7.251,-7.942 -4.367,0.014 -8.108,0.698 -9.709,1.044 -0.326,0.07 -0.56,0.123 -0.698,0.157 -0.719,2.128 -1.371,4.553 -1.845,6.455 -0.414,1.662 -0.69,2.92 -0.762,3.252 1.137,2.272 2.604,4.34 4.34,6.13 1.222,1.263 2.575,2.39 4.035,3.355 5.334,-0.737 8.563,-1.565 9.841,-1.931 0.249,-0.072 0.421,-0.127 0.523,-0.158 z"
   id="path128" />
	<path
   style="fill:#ffffff"
   d="m 437.546,491.749 c -1.101,-0.413 -1.91,-0.694 -2.233,-0.804 -0.563,0.68 -3.189,3.797 -6.379,6.526 0.164,0.753 0.939,4.445 1.316,8.914 2.489,2.462 5.771,4.095 7.259,4.754 0.311,0.139 0.543,0.232 0.673,0.284 2.61,-1.662 4.98,-4.231 6.002,-5.417 0.246,-0.283 0.412,-0.485 0.488,-0.578 0.039,-0.574 0.06,-1.155 0.06,-1.738 0,-3.484 -0.699,-6.798 -1.958,-9.802 -1.92,-0.863 -3.81,-1.608 -5.228,-2.139 z"
   id="path129" />
	<path
   style="fill:#ffffff"
   d="m 399.22,499.794 c 0.746,1.804 1.785,3.885 2.899,5.049 0.842,-0.205 5.193,-1.196 10.48,-1.216 2.257,-5.241 4.936,-8.174 5.592,-8.842 -2.241,-3.189 -4.306,-7.968 -4.686,-8.865 -0.331,-0.02 -1.222,-0.068 -2.406,-0.068 -2.169,-10e-4 -5.308,0.164 -7.664,0.936 -2.471,2.718 -4.352,6.013 -5.435,9.671 0.044,0.136 0.148,0.469 0.31,0.936 0.214,0.62 0.524,1.473 0.91,2.399 z"
   id="path130" />
	<path
   style="fill:#ffffff"
   d="m 413.946,485.724 c 0.066,0.152 0.182,0.427 0.345,0.795 0.258,0.582 0.629,1.395 1.075,2.315 0.88,1.813 2.064,4.046 3.279,5.755 0.744,0.127 5.48,0.964 9.968,2.518 2.663,-2.276 4.945,-4.844 5.924,-5.993 0.205,-0.241 0.354,-0.419 0.436,-0.519 -0.515,-2.965 -2.132,-6.535 -2.913,-8.136 -0.193,-0.394 -0.332,-0.667 -0.394,-0.787 -3.247,-1.71 -6.925,-2.674 -10.821,-2.674 -0.394,0 -0.784,0.012 -1.174,0.031 -2.969,3.243 -4.748,5.445 -5.453,6.345 -0.124,0.158 -0.213,0.273 -0.272,0.35 z"
   id="path131" />
	<path
   d="m 445.177,505.363 c 0.035,-0.552 0.055,-1.111 0.055,-1.673 0,-3.455 -0.674,-6.748 -1.893,-9.746 0.874,-0.025 1.605,-0.135 1.981,-0.202 -0.06,-0.158 -0.12,-0.316 -0.182,-0.475 -2.002,-5.09 -5.491,-9.43 -9.928,-12.492 -0.221,-0.152 -0.443,-0.301 -0.666,-0.447 -1.321,0.172 -2.353,0.685 -2.698,0.873 -3.306,-1.728 -7.044,-2.706 -11.001,-2.704 -0.397,0 -0.791,0.01 -1.185,0.03 -1.019,-1.09 -2.001,-1.951 -2.585,-2.436 -0.234,0.022 -0.467,0.047 -0.699,0.076 -4.468,0.548 -8.601,2.175 -12.132,4.613 -0.207,0.141 -0.413,0.289 -0.615,0.437 -0.223,1.021 -0.574,2.982 -0.585,5.254 -2.507,2.764 -4.417,6.114 -5.519,9.829 -2.169,1.412 -4.026,3.06 -4.916,3.889 -0.027,0.253 -0.053,0.505 -0.075,0.76 -0.063,0.76 -0.097,1.528 -0.097,2.305 0,3.073 0.508,6.028 1.446,8.787 0.115,0.34 0.239,0.678 0.368,1.014 0.929,0.758 2.583,1.817 4.936,2.222 1.159,2.305 2.65,4.4 4.412,6.22 1.242,1.287 2.619,2.432 4.107,3.418 0.264,1.53 0.642,2.625 0.91,3.274 0.226,0.1 0.453,0.198 0.681,0.291 3.215,1.331 6.738,2.069 10.434,2.069 1.39,0 2.755,-0.104 4.089,-0.305 0.366,-0.056 0.728,-0.12 1.088,-0.189 1.055,-0.842 2.003,-1.798 2.221,-2.021 3.778,-1.04 7.195,-2.99 10.016,-5.609 0.187,0.045 0.543,0.111 1.015,0.111 0.289,0 0.623,-0.027 0.985,-0.096 0.232,-0.238 0.457,-0.473 0.681,-0.715 3.684,-4.007 6.184,-9.115 6.951,-14.773 0.025,-0.195 0.05,-0.392 0.073,-0.589 -0.347,-0.27 -0.902,-0.65 -1.673,-1 z m -0.445,-1.672 c 0,0.584 -0.021,1.164 -0.06,1.738 -0.076,0.093 -0.242,0.295 -0.488,0.578 -1.022,1.186 -3.392,3.755 -6.002,5.417 -0.13,-0.052 -0.361,-0.145 -0.673,-0.284 -1.488,-0.659 -4.77,-2.292 -7.259,-4.754 -0.377,-4.47 -1.152,-8.161 -1.316,-8.914 3.19,-2.73 5.816,-5.847 6.379,-6.526 0.323,0.11 1.132,0.392 2.233,0.804 1.418,0.531 3.308,1.276 5.228,2.14 1.259,3.003 1.958,6.316 1.958,9.801 z m -25.061,-24.662 c 0.39,-0.019 0.78,-0.031 1.174,-0.031 3.895,0 7.573,0.964 10.821,2.674 0.062,0.12 0.202,0.393 0.394,0.787 0.782,1.601 2.398,5.172 2.913,8.136 -0.082,0.1 -0.231,0.277 -0.436,0.519 -0.979,1.149 -3.261,3.717 -5.924,5.993 -4.488,-1.554 -9.224,-2.391 -9.968,-2.518 -1.215,-1.709 -2.399,-3.942 -3.279,-5.755 -0.447,-0.92 -0.817,-1.733 -1.075,-2.315 -0.163,-0.368 -0.279,-0.644 -0.345,-0.795 0.059,-0.077 0.148,-0.193 0.272,-0.35 0.705,-0.899 2.485,-3.102 5.453,-6.345 z m -16.236,7.759 c 2.356,-0.772 5.495,-0.937 7.664,-0.936 1.185,0 2.075,0.048 2.406,0.068 0.379,0.896 2.445,5.676 4.686,8.865 -0.655,0.668 -3.334,3.601 -5.592,8.842 -5.287,0.021 -9.638,1.011 -10.48,1.216 -1.114,-1.164 -2.153,-3.246 -2.899,-5.049 -0.385,-0.926 -0.696,-1.779 -0.91,-2.399 -0.161,-0.467 -0.266,-0.8 -0.31,-0.936 1.082,-3.658 2.964,-6.953 5.435,-9.671 z m 0.523,34.363 c -1.735,-1.79 -3.202,-3.858 -4.34,-6.13 0.072,-0.332 0.348,-1.591 0.762,-3.252 0.475,-1.902 1.127,-4.328 1.845,-6.455 0.137,-0.034 0.372,-0.087 0.698,-0.157 1.601,-0.346 5.342,-1.03 9.709,-1.044 0.536,0.75 3.906,5.388 7.251,7.942 -0.011,2.883 -0.396,5.493 -0.784,7.389 -0.196,0.958 -0.392,1.737 -0.539,2.272 -0.09,0.332 -0.163,0.567 -0.203,0.701 -0.102,0.031 -0.274,0.086 -0.524,0.158 -1.278,0.366 -4.507,1.194 -9.841,1.931 -1.459,-0.965 -2.812,-2.093 -4.034,-3.355 z m 33.059,0.221 c -0.077,0.321 -0.135,0.54 -0.162,0.642 -2.771,2.588 -6.129,4.511 -9.844,5.534 -2.636,-1.097 -4.705,-2.369 -6.116,-3.371 -0.714,-0.504 -1.257,-0.943 -1.623,-1.252 -0.185,-0.154 -0.323,-0.279 -0.415,-0.361 -0.012,-0.012 -0.02,-0.019 -0.03,-0.03 0.264,-0.855 1.513,-5.178 1.54,-10.436 5.364,-2.098 8.844,-4.669 9.631,-5.281 3.053,2.973 7.126,4.703 7.974,5.045 0.016,0.415 0.026,0.831 0.026,1.238 0,2.442 -0.291,4.691 -0.582,6.326 -0.144,0.82 -0.291,1.483 -0.399,1.946 z"
   id="path132" />
	<path
   d="m 477.694,359.663 c 1.196,-3.159 2.056,-7.397 2.759,-10.746 0.745,-3.549 -0.312,-7.867 3.401,-9.002 3.558,-1.086 8.043,-2.576 11.741,-2.421 1.6,0.068 3.107,-0.512 4.699,-0.374 2.848,0.247 2.177,1.504 2.667,3.495 0.631,2.567 16.401,-7.425 18.659,-8.255 3.487,-1.28 6.383,-2.954 9.076,0.573 0.941,1.233 1.413,2.404 1.897,3.851 0.664,1.984 2.312,2.984 3.65,4.486 4.591,5.151 -1.897,15.122 -4.893,19.849 -2.083,3.283 -9.227,12.802 -0.156,10.344 1.357,-0.368 2.991,-0.238 4.216,-1.034 1.481,-0.961 2.45,-2.637 4.318,-2.949 2.473,-0.412 -0.911,-5.424 -0.098,-7.202 2.923,-6.389 10.769,-10.63 10.664,-18.453 4.463,0.4 4.192,8.621 5.077,11.636 1.041,3.549 1.776,4.376 0.055,8.059 -0.877,1.873 -3.135,5.631 -3.285,7.576 3.304,0.169 7.281,1.38 10.301,-0.574 1.164,-0.753 3.542,-5.465 3.029,-6.729 -1.186,-2.919 -2.949,-5.252 -1.391,-8.613 1.398,-3.02 -0.292,-6.81 -0.422,-10.161 -0.15,-3.845 -3.254,-5.757 -3.735,-9.139 -0.331,-2.327 -2.229,-5.105 -3.107,-7.306 -1.317,-3.298 -0.089,-7.064 -1.387,-10.53 -0.701,-1.872 -0.369,-3.142 0.522,-4.861 1.081,-2.084 0.518,-4.788 0.7,-7.076 0.302,-3.792 -1.808,-6.495 -3.573,-9.508 -1.774,-3.027 2.376,-2.881 3.608,-4.276 2.554,-2.891 5.179,-3.48 4.206,-8.082 -0.69,-3.26 -2.569,-5.949 -5.517,-7.54 -11.942,-6.442 -26.55,2.879 -38.931,-1.786 -6.045,-2.279 4.755,-4.906 6.901,-4.578 6.093,0.933 15.294,1.949 19.952,-3.531 2.327,-2.74 -0.139,-2.412 -2.065,-1.858 -2.404,0.691 -4.519,-1.541 -7.158,-0.834 -2.509,0.673 -3.703,3.631 -5.927,4.047 -3.93,0.732 -7.801,-2.083 -11.671,-0.433 -6.352,2.708 -6.719,10.674 1.365,11.099 8.388,0.441 17.002,0.502 25.346,-0.454 3.378,-0.387 14.636,-0.903 13.873,5.506 -1.123,9.389 -12.13,5.735 -18.043,6.925 -6.916,1.392 -12.458,-4.95 -19.892,-1.833 -6.416,2.69 -14.967,3.28 -22.01,3.501 -2.747,0.086 -6.537,-0.128 -9.164,-0.731 -1.173,-0.269 -1.93,-1.232 -3.082,-1.493 -1.591,-0.361 -2.881,0.068 -4.497,-0.59 -3.211,-1.308 -5.118,-0.193 -8.157,0.888 -3.849,1.368 -5.117,-1.67 -8.577,-2.495 -1.741,-0.415 -3.482,-0.774 -5.165,-1.402 -1.633,-0.61 -0.999,-2.225 -1.366,-3.505 -0.816,-2.838 -3.312,-4.417 -5.11,-6.569 -0.57,-0.683 -4.207,-6.711 -5.013,-2.778 -0.691,3.368 4.551,5.217 2.891,8.966 -1.543,3.485 -4.997,0.545 -7.497,0.59 -3.752,0.068 -7.788,0.298 -11.476,1.141 -2.674,0.612 -6.317,1.225 -8.399,-1.133 -2.323,-2.63 -0.096,-6.921 -2.567,-9.53 -1.895,-2.004 -3.685,5.379 -3.968,6.427 -0.789,2.932 -0.68,6.727 2.13,8.584 1.584,1.046 3.416,1.659 5.253,2.078 -0.4,1.237 -0.236,2.441 0.596,3.454 2.1,2.557 6.567,4.923 5.149,8.993 -0.566,1.627 0.418,3.192 -0.846,4.647 -1.185,1.366 -1.636,2.932 -1.313,4.708 0.557,3.064 3.698,4.661 6.753,4.35 1.392,-0.141 2.957,-0.806 4.272,0.072 1.785,1.187 1.145,1.939 3.343,2.539 3.813,1.041 4.15,6.23 5.765,9.404 1.419,2.79 5.015,4.488 7.643,6.024 3.47,2.027 4.585,4.711 6.964,7.755 1.764,2.259 4.666,-0.453 4.423,4.12 -0.218,4.11 0.39,6.384 1.89,10.186 0.931,2.361 2.257,5.765 0.605,8.126 -1.3,1.855 -3.857,5.251 -3.816,7.67 0.058,3.39 5.502,1.651 7.158,1.256 3.862,-0.924 4.694,0.597 7.569,-3.191 1.697,-2.245 0.01,-7.224 -1.812,-9.37"
   id="path133" />
	<path
   style="fill:#c61d23"
   d="m 472.157,370.531 c -0.232,-4.511 2.975,-7.961 2.197,-12.72 -0.727,-4.453 -2.81,-7.463 -2.517,-11.832 0.29,-4.307 -1.631,-9.19 -4.592,-12.227 -0.979,-1.003 -7.234,-4.553 -8.623,-4.025 1.291,1.248 1.172,3.231 3.486,2.87 0.777,1.686 3.121,1.481 3.872,3.286 0.786,1.89 -2.016,1.867 -3.026,1.146 -1.96,-1.403 -2.561,-4.712 -5.09,-5.468 -5.907,-1.774 -7.779,-8.202 -9.724,-13.091 -0.503,-1.266 -3.724,-3.096 -2.253,-4.281 0.393,-0.316 2.621,-2.639 2.705,-2.9 0.57,-1.765 2.879,-1.992 3.34,-4.066 0.647,-2.909 -0.4,-5.842 -0.368,-8.758 0.032,-3.002 2.532,-2.225 4.649,-3.181 3.202,-1.446 2.75,-4.167 4.689,-6.216 1.555,-1.643 4.413,1.076 5.562,1.885 2.658,1.869 6.142,-0.572 8.636,-1.723 4.679,-2.158 11.546,3.655 16.679,3.256 6.141,-0.478 12.372,0.846 18.424,-0.713 3.009,-0.776 5.726,-0.602 8.64,-1.904 2.984,-1.334 8.013,-2.452 11.086,-0.73 1.929,1.082 4.365,2.51 6.625,2.794 3.01,0.379 5.976,-1.592 9.314,-1.062 5.294,0.835 6.3,8.027 8.105,12.512 1.997,4.958 -2.824,9.647 -0.652,15.066 0.978,2.44 1.457,4.722 1.806,7.321 0.463,3.443 1.767,5.379 3.214,8.372 2.598,5.374 4.582,13.819 2.853,19.611 -0.917,3.064 1.906,11.885 -3.11,12.881 -2.017,-4.235 1.552,-6.508 0.832,-10.547 -0.43,-2.413 -1.205,-4.59 -1.444,-7.05 -0.2,-2.036 -1.766,-3.236 -2.066,-5.101 -0.332,-2.028 -4.292,-7.091 -5.809,-8.364 -3.248,-2.726 -0.472,-8.033 0.775,-11.121 0.877,-2.174 2.682,-8.922 -2.3,-7.751 -3.595,0.844 -2.752,7.255 -2.774,9.82 -0.021,2.466 -0.571,4.893 -0.43,7.368 0.134,2.363 1.972,3.976 2.322,6.242 0.719,4.66 -2.712,8.407 -4.835,12.113 -1.425,2.489 -4.026,6.279 -4.889,8.903 -0.881,2.678 -0.589,7.795 -5.246,7.706 -4.045,-0.079 1.231,-6.831 2.282,-7.756 0.001,-1.976 1.603,-4.089 2.164,-5.969 0.697,-2.329 1.372,-4.685 2.441,-6.878 2.08,-4.269 -2.749,-8.543 -4.244,-12.216 -0.892,-2.189 -5.377,-9.044 -7.949,-9.899 -1.716,-0.57 -2.017,-2.659 -4.102,-2.594 -2.256,0.068 -4.044,1.524 -5.648,2.943 -1.496,1.323 -3.039,2.844 -4.657,4.012 -1.519,1.095 -3.945,0.439 -3.847,3.125 0.388,-0.245 0.799,-0.437 1.235,-0.578 2.102,0.52 -1.958,3.058 -2.121,3.173 -2.644,1.849 -3.848,-1.019 -6.384,-1.595 -3.817,-0.866 -9.632,0.337 -12.878,2.054 -9.518,5.032 -2.014,-15.47 -7.949,-16.585 -1.85,1.067 -0.563,3.345 -0.03,4.739 1.224,3.201 -0.269,5.866 -0.823,8.974 -0.359,2.02 -0.31,4.115 -0.883,6.097 -0.624,2.156 -2.801,2.798 -1.292,5.143 1.162,1.806 0.279,3.691 -0.553,5.424 -1.3,2.709 -1.766,5.221 -1.198,8.201 0.911,4.763 2.121,10.853 -3.627,11.864"
   id="path134" />
	<path
   style="fill:#c61d23"
   d="m 470.721,359.458 c -0.43,-4.311 -4.73,-9.343 -1.64,-13.532 2.102,1.11 1.347,4.106 1.78,5.977 0.519,2.243 1.599,4.225 1.899,6.531 0.424,3.255 0.217,8.943 -4.089,9.432 0.275,-2.918 2.352,-5.394 2.05,-8.408"
   id="path135" />
	<path
   style="fill:#c61d23"
   d="m 455.751,289.538 c 3.975,-0.506 -1.33,5.068 0,0"
   id="path136" />
	<path
   style="fill:#ffffff"
   d="m 454.725,283.181 c -0.22,1.729 -2.982,2.555 -4.279,3.157 -1.444,0.67 -2.695,1.753 -4.334,1.969 -0.368,-0.785 -1.332,-2.24 -0.387,-3.052 2.03,-1.739 5.581,-0.004 6.645,-3.519 0.808,-2.671 2.545,-0.045 2.355,1.445"
   id="path137" />
	<path
   style="fill:#ffffff"
   d="m 418.425,278.671 c 1.116,1.566 1.585,3.506 2.835,4.988 0.524,0.621 6.045,1.619 4.213,2.951 -4.361,3.172 -9.033,-4.216 -7.048,-7.939"
   id="path138" />
	<path
   style="fill:#ffffff"
   d="m 451.854,278.056 c 0.508,0.334 0.59,1.405 0.206,1.845 -1.26,-0.001 -1.114,-1.259 -0.206,-1.845"
   id="path139" />
	<path
   style="fill:#ffffff"
   d="m 532.657,266.573 c 0,-2.119 3.765,-2.636 5.331,-2.46 -0.268,2.39 -3.478,2.726 -5.331,2.46"
   id="path140" />
	<path
   style="fill:#c61d23"
   d="m 448.401,295.187 c 3.409,-4.935 1.406,-3.612 -2.945,-5.765 -1.702,-0.842 -2.416,-2.939 -2.453,-4.707 -0.041,-1.869 -5.38,-1.543 -6.56,-1.586 -4.618,-0.168 -8.936,2.855 -9.202,7.825 -0.123,2.289 1.416,2.047 2.803,3.127 1.036,0.809 0.771,3.456 0.765,4.559 -0.021,3.303 -1.449,6.47 2.537,7.505 3.107,0.807 6.785,-0.409 7.472,3.575 0.534,3.127 6.521,-1.428 7.075,-2.966 0.698,-1.937 0.872,-4.284 2.526,-5.732 -1.242,-1.617 -3.549,-3.621 -2.018,-5.835"
   id="path141" />
	<path
   style="fill:#ffffff"
   d="m 438.461,306.602 c -0.935,-0.021 -1.848,0.107 -2.738,0.384 0.773,0.471 1.737,1.936 0.442,2.542 -1.225,0.573 -1.342,-1.295 -1.972,-1.775 -2.333,-1.774 -5.847,1.243 -5.162,3.828 0.637,2.402 5.762,1.824 7.416,1.538 1.408,-0.243 3.298,-0.502 3.064,-2.246 -0.04,-0.301 -0.495,-3.799 0.776,-2.971 -0.338,-0.814 -0.946,-1.248 -1.826,-1.3"
   id="path142" />
	<path
   d="m 458.416,327.062 c 0.505,-1.244 -0.356,-2.502 -1.545,-2.468 -1.758,0.05 -0.384,3.829 1.545,2.468"
   id="path143" />
	<path
   d="m 442.419,295.689 c 0.933,0.598 3.267,-0.131 3.077,-1.436 -0.384,-2.641 -5.483,-0.11 -3.077,1.436 z"
   id="path144" />
</g>
</svg>
