<svg xmlns="http://www.w3.org/2000/svg" xmlns:svg="http://www.w3.org/2000/svg" version="1.1" id="Layer_1" x="0px" y="0px" viewBox="0.0 0.0 500.0 500.0" style="enable-background:new 0 0 500 500;" xml:space="preserve" width="316.22776601683796" height="316.22776601683796"><defs id="defs103"/>


<g id="g103">
	<path style="fill-rule:evenodd;clip-rule:evenodd;fill:#12592E;" d="M250,25c124.264,0,225,100.736,225,225S374.264,475,250,475   S25,374.264,25,250S125.736,25,250,25" id="path92"/>
	<path style="fill-rule:evenodd;clip-rule:evenodd;fill:#FFFFFF;" d="M250,35.966c118.208,0,214.033,95.826,214.033,214.034   S368.208,464.033,250,464.033S35.966,368.208,35.966,250S131.792,35.966,250,35.966" id="path93"/>
	<path style="fill-rule:evenodd;clip-rule:evenodd;fill:#12592E;" d="M250,42.962c114.344,0,207.038,92.694,207.038,207.038   S364.344,457.038,250,457.038S42.962,364.344,42.962,250S135.656,42.962,250,42.962" id="path94"/>
	<path style="fill-rule:evenodd;clip-rule:evenodd;fill:#459A4B;" d="M250,47.311c111.942,0,202.689,90.747,202.689,202.689   c0,111.942-90.747,202.689-202.689,202.689c-111.942,0-202.689-90.747-202.689-202.689C47.311,138.058,138.058,47.311,250,47.311" id="path95"/>
	<path style="fill-rule:evenodd;clip-rule:evenodd;fill:#12592E;" d="M250,110.462c77.065,0,139.538,62.473,139.538,139.538   c0,77.065-62.473,139.538-139.538,139.538c-77.065,0-139.538-62.473-139.538-139.538C110.462,172.936,172.935,110.462,250,110.462" id="path96"/>
	<path style="fill-rule:evenodd;clip-rule:evenodd;fill:#FFFFFF;" d="M250,114.811c74.663,0,135.189,60.526,135.189,135.189   c0,74.663-60.526,135.189-135.189,135.189c-74.663,0-135.189-60.526-135.189-135.189C114.811,175.337,175.337,114.811,250,114.811" id="path97"/>
	<path style="fill:#FFFFFF;" d="M437.115,256.88v3.6h-13.074v-2.745l7.089-8.298c1.31-1.505,1.964-2.898,1.964-4.179   c0-0.814-0.256-1.444-0.767-1.891c-0.511-0.448-1.136-0.671-1.872-0.671c-0.736,0-1.345,0.224-1.826,0.671   c-0.481,0.447-0.752,1.078-0.813,1.891h-3.806c0-1.79,0.645-3.254,1.934-4.393c1.289-1.139,2.864-1.708,4.726-1.708   c1.903,0,3.494,0.585,4.772,1.754c1.279,1.169,1.918,2.618,1.918,4.347c0,0.854-0.194,1.729-0.583,2.624   c-0.389,0.895-0.762,1.581-1.12,2.059c-0.358,0.478-0.854,1.093-1.488,1.846l-4.358,5.094H437.115z M419.105,256.88v3.6h-13.074   v-2.745l7.089-8.298c1.31-1.505,1.964-2.898,1.964-4.179c0-0.814-0.256-1.444-0.767-1.891c-0.512-0.448-1.136-0.671-1.872-0.671   c-0.736,0-1.345,0.224-1.826,0.671c-0.481,0.447-0.752,1.078-0.813,1.891h-3.806c0-1.79,0.645-3.254,1.934-4.393   c1.289-1.139,2.864-1.708,4.726-1.708c1.903,0,3.494,0.585,4.772,1.754c1.279,1.169,1.918,2.618,1.918,4.347   c0,0.854-0.194,1.729-0.583,2.624c-0.389,0.895-0.762,1.581-1.12,2.059c-0.358,0.478-0.854,1.093-1.488,1.846l-4.358,5.094H419.105   z M90.836,245.745c0-0.915-0.245-1.642-0.736-2.181c-0.491-0.539-1.197-0.808-2.118-0.808c-0.9,0-1.596,0.27-2.087,0.808   c-0.491,0.539-0.736,1.266-0.736,2.181c0,0.895,0.245,1.612,0.736,2.151c0.491,0.539,1.187,0.808,2.087,0.808   c0.921,0,1.626-0.269,2.118-0.808C90.59,247.357,90.836,246.64,90.836,245.745z M84.299,260.479l4.45-8.664   c-0.593,0.264-1.279,0.397-2.056,0.397c-1.637,0-3.018-0.595-4.143-1.785c-1.125-1.19-1.688-2.69-1.688-4.5   c0-2.217,0.665-3.9,1.995-5.049c1.33-1.149,3.038-1.723,5.125-1.723c2.107,0,3.826,0.569,5.156,1.708   c1.33,1.139,1.995,2.817,1.995,5.033c0,1.363-0.655,3.366-1.964,6.01l-4.266,8.572H84.299z M72.856,239.43v21.049h-4.297v-16.595   l-3.038,1.983v-4.118l3.468-2.318H72.856z" id="path98"/>
	<path style="fill:#FFFFFF;" d="M291.353,72.284l5.909,1.812l1.612,10.75l7.398-7.987l5.873,1.801l-12.407,12.477l-3.154,10.287   l-5.107-1.566l3.155-10.286L291.353,72.284z M269.735,76.343l-4.058,8.852l5.91,0.708L269.735,76.343z M261.555,94.269   l-5.683-0.681l12.223-25.05l5.076,0.608l5.961,27.228l-5.645-0.676l-0.997-5.153l-8.751-1.048L261.555,94.269z M199.083,78.91   l1.505,5.719l3.431-0.903c2.706-0.712,3.803-2.04,3.292-3.983c-0.252-0.959-0.764-1.581-1.536-1.864   c-0.772-0.283-2.043-0.192-3.814,0.274L199.083,78.91z M201.734,88.983l1.758,6.678l3.726-0.981   c3.05-0.803,4.281-2.323,3.692-4.562c-0.311-1.181-0.94-1.922-1.888-2.225c-0.948-0.303-2.295-0.225-4.041,0.235L201.734,88.983z    M192.772,75.915l8.523-2.243c6.199-1.631,9.884-0.221,11.056,4.232c0.66,2.509,0.017,4.611-1.93,6.307   c3.045,0.277,4.966,1.928,5.762,4.954c0.563,2.14,0.268,4.092-0.885,5.855c-1.154,1.763-3.317,3.063-6.49,3.898l-9.335,2.457   L192.772,75.915z M232.602,79.724l3.577-0.261c1.7-0.124,2.937-0.463,3.713-1.017c0.776-0.554,1.116-1.478,1.022-2.772   c-0.094-1.294-0.573-2.171-1.435-2.63c-0.862-0.46-2.131-0.629-3.805-0.506l-3.577,0.261L232.602,79.724z M248.523,93.442   l-5.86,0.428l-5.472-9.967l-4.262,0.311l0.753,10.312l-5.327,0.389l-1.918-26.256l9.399-0.687c3.095-0.226,5.555,0.283,7.38,1.527   c1.825,1.244,2.833,3.172,3.024,5.785c0.252,3.45-1.073,5.906-3.976,7.368L248.523,93.442z M352.104,374.157l-1.543,4.675   c-1.028-0.414-1.984-0.558-2.868-0.43c-0.884,0.127-1.85,0.573-2.896,1.34c-0.965,0.706-1.553,1.452-1.766,2.238   c-0.213,0.786-0.049,1.549,0.492,2.288c0.586,0.801,1.367,1.19,2.345,1.168c0.977-0.022,2.35-0.396,4.119-1.123   c2.699-1.093,4.908-1.52,6.628-1.281c1.719,0.239,3.247,1.272,4.584,3.099c1.337,1.827,1.805,3.769,1.404,5.828   c-0.4,2.058-1.802,3.966-4.203,5.724c-3.695,2.704-7.273,3.542-10.736,2.515l1.627-4.689c1.136,0.303,2.182,0.365,3.138,0.186   c0.956-0.18,1.968-0.66,3.035-1.441c2.196-1.607,2.716-3.201,1.56-4.782c-0.556-0.759-1.309-1.154-2.26-1.183   s-2.426,0.357-4.424,1.158c-2.54,1.008-4.714,1.354-6.522,1.038c-1.807-0.316-3.342-1.337-4.604-3.061   c-1.307-1.786-1.757-3.671-1.349-5.655c0.407-1.984,1.822-3.863,4.244-5.635C345.576,373.592,348.908,372.934,352.104,374.157z    M324.517,400.807l3.17-1.678c1.506-0.797,2.503-1.606,2.99-2.425c0.487-0.819,0.427-1.802-0.179-2.948   c-0.607-1.147-1.398-1.757-2.372-1.831c-0.974-0.074-2.204,0.281-3.687,1.067l-3.17,1.678L324.517,400.807z M344.612,406.962   l-5.193,2.749l-9.019-6.925l-3.777,1.999l4.838,9.138l-4.721,2.499l-12.317-23.267l8.329-4.409c2.743-1.452,5.2-1.975,7.371-1.571   c2.171,0.405,3.87,1.765,5.096,4.08c1.618,3.057,1.393,5.839-0.677,8.344L344.612,406.962z M295.102,400.527l15.425-5.587   l1.546,4.269l-10.403,3.768l2.014,5.56l9.327-3.378l1.533,4.233l-9.327,3.378l2.339,6.457l10.403-3.768l1.533,4.233l-15.425,5.587   L295.102,400.527z M279.244,416.14l3.511-0.733c1.668-0.348,2.85-0.849,3.545-1.5c0.695-0.652,0.91-1.613,0.645-2.883   c-0.265-1.27-0.856-2.075-1.771-2.417c-0.916-0.341-2.195-0.34-3.839,0.003l-3.511,0.733L279.244,416.14z M296.844,427.626   l-5.752,1.201l-6.745-9.154l-4.183,0.873l2.114,10.121l-5.229,1.092l-5.381-25.77l9.225-1.926c3.038-0.635,5.543-0.456,7.517,0.535   c1.974,0.991,3.229,2.769,3.764,5.333c0.707,3.386-0.281,5.996-2.964,7.83L296.844,427.626z M251.109,407.563l16.376-0.997   l0.276,4.532l-11.044,0.673l0.359,5.903l9.902-0.603l0.274,4.494l-9.902,0.603l0.417,6.855l11.044-0.673l0.274,4.494l-16.375,0.997   L251.109,407.563z M158.842,389.276L144.349,401.5l-4.267-2.747l9.18-25.399l4.812,3.098l-6.424,16.465l13.578-11.86l4.042,2.602   l-5.106,17.449l12.356-12.783l4.844,3.118l-19.35,18.853l-4.299-2.767L158.842,389.276z M185.471,402.598l-6.331,7.398l5.489,2.302   L185.471,402.598z M172.686,417.591l-5.277-2.214l18.628-20.733l4.715,1.978l-1.74,27.818l-5.242-2.199l0.456-5.229l-8.127-3.41   L172.686,417.591z M216.299,404.246l4.932,1.193l-6.191,25.587l-4.339-1.05l-6.144-18.248l-3.832,15.835l-4.932-1.193l6.192-25.587   l4.302,1.041l6.127,18.48L216.299,404.246z M234.401,428.75c1.725,0.132,2.992-0.338,3.801-1.412   c0.809-1.073,1.304-2.789,1.485-5.148l0.262-3.424c0.179-2.333-0.05-4.092-0.687-5.276c-0.637-1.184-1.817-1.842-3.541-1.974   l-3.994-0.306l-1.32,17.233L234.401,428.75z M234.057,433.239l-9.32-0.714l2.01-26.249l9.32,0.714   c6.721,0.515,9.79,4.576,9.207,12.185l-0.262,3.424C244.43,430.207,240.778,433.754,234.057,433.239z" id="path99"/>
	<path style="fill-rule:evenodd;clip-rule:evenodd;fill:#12592E;" d="M249.752,352.585c-9.654,6.391-18.06,15.517-24.056,27.542   c2.979,0.553,5.993,1.006,9.038,1.356c5.151-9.342,12.012-16.531,19.793-21.682c9.569-6.335,20.535-9.594,31.424-9.988   c7.976-0.288,15.932,0.981,23.241,3.672c4.841,1.782,9.385,4.187,13.446,7.173c2.521-1.658,4.983-3.401,7.38-5.223   c-5.286-4.302-11.345-7.686-17.845-10.079c-6.803-2.505-14.11-3.927-21.532-4.184c-2.019-2.385-4.644-5.691-7.419-12.936   c-2.416-6.306-5.304-13.572-6.7-17.327c-0.366-0.983-0.681-1.56-1.239-1.778c-0.384-0.15-0.958-0.17-1.448,0.11   c-1.278,0.732-0.969,1.557-0.547,2.819c0.307,0.919,9.719,26.41,10.712,29.194c-0.609,0.036-1.219,0.08-1.828,0.132   c-5.679-7.023-6.297-9.813-8.707-15.876c-1.866-4.694-4.222-11.013-5.76-14.961c-0.269-0.692-0.611-1.229-1.174-1.423   c-0.389-0.134-0.929-0.121-1.441,0.188c-1.244,0.752-0.819,1.728-0.63,2.306c0.499,1.527,8.695,23.19,11.141,30.638   C266.573,343.887,257.738,347.299,249.752,352.585" id="path100"/>
	<path style="fill-rule:evenodd;clip-rule:evenodd;fill:#12592E;" d="M267.101,204.603c2.449,1.782,5.015,3.168,7.853,4.123   c2.842,0.956,5.879,1.454,9.256,1.454c3.944,0,9.011-1.282,14.826-2.754c7.027-1.778,15.219-3.851,22.977-4.011   c1.98-0.041,3.793,0.076,5.449,0.336c5.69,0.893,9.552,3.529,11.997,7.246c2.107,3.204,3.26,7.268,3.679,11.781   c0.29,3.123-0.34,4.581-0.03,7.288c-1.972,0.309-7.503-1.476-8.571-1.894c0.674,0.682,1.31,1.953,1.578,2.577   c-4.114-1.366-10.925-1.604-15.185,0.246c-0.917,0.405-1.471,1.647-1.977,2.533c-0.702,1.229-1.353,2.479-1.963,3.746   c-5.309,6.736-17.042,2.699-27.52-2.107c5.576,5.006,2.504,16.532-0.338,21.844c-6.821,12.747-3.826,22.481,4.701,30.669   c-1.112,1.26-1.221,3.126-0.264,4.507c3.273,5.414,7.092,9.007,11.963,13.375c1.057,0.948,1.912,1.757,3.099,2.853   c-4.149,4.798-8.111,12.444-12.192,22.339c7.037-6.491,14.011-13.283,20.498-20.323c1.356-1.472,0.858-3.81-0.299-4.96   c-2.057-1.981-4.199-3.698-6.109-5.411c-3.591-3.22-6.625-5.94-9.103-9.28c0.774-0.727,1.673-1.708,3.032-3.457   c6.669-8.58,8.996-16.519,11.083-25.595c0.342-1.222,0.813-2.639,1.212-3.881c1.978-6.165,4.607-13.021,8.532-20.408   c1.661-0.387,3.996-0.429,6.517-0.138c3.668,0.424,4.557,2.115,6.804,4.721c2.212,2.565,8.995,10.006,10.203,12.561   c0.118,1.132,0.587,2.436,1.882,3.044c2.475,1.161,4.164-0.014,4.95-1.253c2.577-4.067,2.156-8.377,2.149-8.436   c-0.38-3.325-1.019-7.817-6.066-15.73c-1.742-2.732-1.064-4.593-1.102-6.418c-0.146-7.065-1.65-13.624-5.058-18.806   c-3.552-5.4-9.031-9.208-16.984-10.456c-2.07-0.325-4.303-0.472-6.71-0.422c-0.427,0.009-0.854,0.022-1.281,0.041   c-1.989-3.283-3.047-6.35-3.078-9.227c-0.037-3.362,1.459-6.284,4.211-8.896c2.275-2.159,5.581-4.259,9.687-6.89   c2.327-1.491,8.796-5.098,17.848-8.689c-1.563-1.77-3.172-3.499-4.827-5.183c-8.047,2.727-17.222,8.253-17.347,8.316   c-6.281,3.152-12.285,7.101-15.389,13.77c-2.395,5.144-1.978,12.407,0.837,17.628c-5.392,0.842-10.58,2.155-15.273,3.342   c-2.252,0.57-4.382,1.109-6.323,1.541c-1.312-7.007-0.287-14.579,2.044-21.224c1.559-4.442,3.909-8.512,5.768-11.566   c2.097-3.446,9.582-12.757,15.767-16.328c0.958-0.553,8.321-4.687,13.129-9.939c-0.678-0.492-1.36-0.977-2.047-1.456   c-4.408,4.752-11.708,8.686-12.968,9.467c-2.682,1.661-7.095,5.008-10.148,8.195c-3.677,3.839-6.297,7.491-6.352,7.562   c-8.256,10.556-12.414,26.993-12.853,36.257c-2.218-0.076-4.191-0.429-5.998-1.037c-2.061-0.693-3.985-1.744-5.876-3.12   c-2.187-1.591-4.428-3.436-6.632-5.436c-2.34-2.125-4.585-4.36-6.632-6.599c-3.576-3.91-7.531-8.386-11.589-13.192   c-3.436-4.07-6.852-8.277-10.035-12.43c-1.484-1.937-2.359-3.099-3.241-4.27c-5.895-7.833-12.082-16.053-20.246-22.927   c-4.11-3.461-8.567-6.601-13.22-9.379c-1.663-0.992-3.35-1.939-5.055-2.837c-6.762-3.56-13.825-6.388-20.765-8.362   c-13.901-3.955-27.683-5.718-41.647-5.702c-13.398,0.015-26.885,1.664-40.746,4.58c-0.105,0.022-0.976,0.205-1.4,0.298   c-1.725,0.378-2.996,1.574-3.111,3.404c-0.126,2.018,1.407,3.757,3.425,3.883c5.862,0.385,10.014,1.71,13.088,3.428   c2.991,1.672,5.026,3.774,6.633,5.732c1.445,1.761,3.854,4.748,6.621,8.18c7.162,8.883,16.857,20.906,25.631,31   c5.049,5.809,9.794,10.979,13.575,14.544c1.699,1.601,3.53,3.23,5.339,4.624c1.845,1.421,3.686,2.602,5.395,3.292   c0.251,0.118,0.52,0.209,0.803,0.27c4.277,0.91,7.575,1.026,11.861,1.176c1.212,0.042,2.513,0.088,4.067,0.167   c7.353,10.983,15.493,21.088,22.453,29.728l0.78,0.969c5.04,6.258,14.093,15.862,23.52,24.533   c6.845,6.296,13.941,12.147,19.946,15.962c-0.027,0.359-0.063,0.716-0.107,1.076c-0.129,1.041-0.312,1.994-0.536,2.986   c-0.81,3.588-1.841,5.912-3.152,7.54c-1.247,1.548-2.901,2.596-4.952,3.607c-8.156,4.02-20.525,9.627-32.571,14.203   c-8.69,3.301-17.161,6.053-23.648,7.253c-1.93,0.221-3.364,1.923-3.234,3.882c1.138,16.646,7.385,28.395,16.346,36.266   c10.732,9.428,25.248,13.109,39.445,12.906c12.972-0.186,19.489-2.349,25.772-4.435c1.929-0.641,3.558-1.63,1.97-5.019   c-1.516-3.235-2.576-2.475-4.263-1.917c-5.756,1.911-11.727,3.894-23.565,4.063c-12.565,0.18-25.306-2.986-34.544-11.1   c-7.008-6.156-12.061-15.269-13.56-28.09c6.453-1.477,14.112-4.014,21.86-6.957c12.296-4.671,24.913-10.39,33.23-14.49   c2.925-1.442,5.354-3.024,7.416-5.585c1.999-2.481,3.506-5.744,4.585-10.521c0.298-1.319,0.533-2.523,0.679-3.703   c0.151-1.224,0.222-2.529,0.188-4.054c-0.024-1.226-0.649-2.298-1.588-2.943c0.641-3.749,1.889-13.853,5.462-19.174   c-9.944,7.823-19.707,6.36-28.733,0.518c-8.241-7.778-15.872-15.937-20.265-21.392l-0.78-0.969   c-5.44-6.753-11.607-14.408-17.458-22.548l2.25-7.254c-3.709-1.274-7.502-2.373-11.433-2.59c-1.873-0.104-3.688-0.167-5.354-0.225   c-3.778-0.133-6.706-0.235-10.311-0.978c-0.979-0.421-2.195-1.231-3.506-2.241c-1.567-1.207-3.226-2.686-4.795-4.165   c-3.815-3.597-8.708-8.964-13.92-14.995c-8.433-9.757-17.702-21.253-24.597-29.804c-2.458-3.048-4.597-5.701-6.679-8.238   c-2.058-2.508-4.693-5.215-8.675-7.452c8.51-1.239,16.868-1.912,25.139-1.921c13.253-0.015,26.369,1.668,39.641,5.444   c6.492,1.847,13.078,4.481,19.361,7.789c0.03,0.015,0.059,0.031,0.089,0.047c6.045,3.19,11.794,6.984,16.897,11.28   c7.508,6.322,13.444,14.208,19.1,21.724c1.302,1.73,2.591,3.442,3.269,4.328c3.271,4.268,6.763,8.57,10.264,12.717   c3.912,4.633,7.965,9.211,11.789,13.393c2.299,2.514,4.699,4.915,7.091,7.086C262.248,200.838,264.703,202.858,267.101,204.603" id="path101"/>
	<path style="fill-rule:evenodd;clip-rule:evenodd;fill:#12592E;" d="M334.471,218.615c-0.151-0.296-0.547-1.28-0.573-1.822   c-0.053-1.121-0.082-2.986-1.901-4.111c-1.077-0.666-1.847-0.521-2.329-0.126c-0.819,0.671-0.787,2.3,0.149,3.629   c0.759,1.077,1.616,1.411,2.187,1.449C332.986,217.698,333.982,218.293,334.471,218.615" id="path102"/>
	<path style="fill-rule:evenodd;clip-rule:evenodd;fill:#FFFFFF;" d="M208.325,139.403l-47.256,37.85   c-3.815-3.597-8.708-8.964-13.92-14.995c-8.433-9.757-17.702-21.253-24.597-29.804c-2.458-3.048-4.597-5.701-6.679-8.238   c-2.058-2.508-4.693-5.215-8.675-7.452c8.51-1.239,16.868-1.912,25.139-1.921c13.253-0.015,26.369,1.668,39.641,5.444   c6.492,1.847,13.078,4.481,19.361,7.789c0.03,0.015,0.059,0.031,0.089,0.047C197.473,131.314,203.223,135.107,208.325,139.403" id="path103"/>
</g>
</svg>