<?xml version="1.0" encoding="UTF-8" standalone="no"?>
<!-- Generator: Adobe Illustrator 27.0.0, SVG Export Plug-In . SVG Version: 6.00 Build 0)  -->

<svg
   version="1.1"
   id="Layer_1"
   x="0px"
   y="0px"
   viewBox="0 0 828.67102 852.42102"
   xml:space="preserve"
   width="311"
   height="320"
   xmlns="http://www.w3.org/2000/svg"
   xmlns:svg="http://www.w3.org/2000/svg"><defs
   id="defs137" />

<g
   id="g92"
   transform="translate(-101.665,-14.578686)">
</g>
<g
   id="g137"
   transform="translate(-85.66499,-14.578686)">
	<path
   style="fill:#ffffff"
   d="m 761.082,556.164 c 11.28,-35.635 15.569,-74.086 11.412,-113.633 l 47.515,39.966 44.22,-49.606 c 5.527,52.572 -0.175,103.699 -15.169,151.069 z"
   id="path92" />
	<path
   style="fill:#ffffff"
   d="M 238.911,556.164 C 227.632,520.529 223.343,482.078 227.499,442.53 l -47.515,39.967 -44.222,-49.607 c -5.525,52.572 0.176,103.7 15.17,151.07 z"
   id="path93" />
	<path
   style="fill:#15872e"
   d="m 857.919,427.266 c 0,0 -30.358,34.057 -38.755,43.475 -9.463,-7.961 -57.269,-48.17 -57.269,-48.17 l 2.193,20.844 c 3.943,37.5 0.221,74.555 -11.065,110.2 l -2.552,8.063 104.101,32.888 2.549,-8.054 c 15.82,-49.988 21.04,-101.946 15.516,-154.505 l -1.998,-19.009 z m -31.6,60.856 c 0,0 18.048,-20.247 31.038,-34.818 0.334,6.397 0.505,12.784 0.505,19.155 0,34.183 -4.88,67.937 -14.466,100.848 -12.184,-3.85 -60.433,-19.095 -72.013,-22.754 7.281,-25.564 11.131,-51.707 11.131,-78.242 0,-3.506 -0.149,-7.023 -0.277,-10.539 14.06,11.827 38.613,32.48 38.613,32.48 z"
   id="path94" />
	<path
   style="fill:#15872e"
   d="m 127.356,432.007 c -5.524,52.563 -0.302,104.521 15.518,154.506 l 2.55,8.054 104.099,-32.888 -2.552,-8.063 c -11.283,-35.648 -15.006,-72.7 -11.064,-110.202 l 2.191,-20.843 c 0,0 -47.804,40.209 -57.269,48.171 -8.396,-9.419 -51.475,-57.744 -51.475,-57.744 z m 14.775,40.451 c 0,-6.37 0.172,-12.757 0.506,-19.155 12.989,14.572 36.503,40.949 36.503,40.949 0,0 24.555,-20.654 38.615,-32.481 -0.127,3.515 -0.277,7.032 -0.277,10.537 0,26.536 3.852,52.68 11.129,78.244 -11.579,3.659 -59.827,18.904 -72.011,22.754 -9.587,-32.909 -14.465,-66.662 -14.465,-100.848 z"
   id="path95" />
	<path
   style="fill:#ffffff"
   d="m 887.904,548.395 c -47.846,169.18 -203.398,293.152 -387.888,293.152 -184.511,0 -340.069,-123.969 -387.917,-293.152 l 88.774,-25.141 c 36.904,130.461 156.86,226.053 299.141,226.053 142.27,0 262.225,-95.602 299.121,-226.066 z"
   id="path96" />
	<path
   style="fill:#ffffff"
   d="m 670.866,158.453 97.719,97.718 c -30.147,40.013 -48.017,89.796 -48.017,143.753 0,26.863 4.431,52.693 12.6,76.797 l 0.013,-0.004 c 4.844,14.289 7.469,29.579 7.469,45.486 0,53.941 -30.13,100.849 -74.479,124.805 l -0.007,-0.003 c -28.07,15.163 -58.448,26.601 -90.467,33.66 v -0.003 c -29.853,6.581 -56.176,23.926 -75.681,47.046 -19.521,-23.12 -45.844,-40.466 -75.698,-47.046 l -10e-4,0.003 c -32.021,-7.059 -62.397,-18.498 -90.467,-33.66 l -0.007,0.003 c -44.35,-23.956 -74.48,-70.864 -74.48,-124.805 0,-15.907 2.626,-31.198 7.468,-45.486 l 0.015,0.004 c 8.17,-24.104 12.6,-49.934 12.6,-76.797 0,-53.958 -17.872,-103.74 -48.018,-143.753 l 97.705,-97.709 z"
   id="path97" />
	<path
   style="fill:#ffffff"
   d="m 584.75,489.521 c 0,46.782 -37.943,84.728 -84.733,84.728 -46.806,0 -84.751,-37.946 -84.751,-84.728 0,-46.806 37.945,-84.747 84.751,-84.747 46.79,0 84.733,37.941 84.733,84.747 z"
   id="path98" />
	<path
   style="fill:#15872e"
   d="m 791.001,520.942 c -17.56,62.084 -55.579,118.039 -107.06,157.55 -53.155,40.799 -116.761,62.361 -183.928,62.361 -67.181,0 -130.786,-21.562 -183.94,-62.358 -51.481,-39.508 -89.504,-95.46 -107.066,-157.544 l -2.302,-8.134 -105.04,29.746 2.299,8.129 c 23.9,84.508 75.643,160.661 145.698,214.427 72.349,55.53 158.92,84.881 250.354,84.881 91.414,0 177.982,-29.351 250.332,-84.881 70.051,-53.769 121.79,-129.919 145.69,-214.427 l 2.298,-8.129 -105.032,-29.761 z m -96.767,170.963 c 52.099,-39.99 91.088,-95.955 110.567,-158.274 11.847,3.358 60.218,17.065 72.501,20.545 -23.863,77.781 -72.313,147.691 -137.25,197.531 -69.368,53.244 -152.376,81.387 -240.036,81.387 -87.678,0 -170.69,-28.143 -240.061,-81.384 -64.937,-49.84 -113.388,-119.749 -137.256,-197.534 12.288,-3.48 60.661,-17.177 72.509,-20.532 19.48,62.315 58.471,118.28 110.571,158.263 56.133,43.081 123.297,65.851 194.233,65.851 70.923,10e-4 138.091,-22.769 194.222,-65.853 z"
   id="path99" />
	<polygon
   style="fill:#15872e"
   points="206.715,512.802 212.942,569.659 249.502,561.665 "
   id="polygon99" />
	<polygon
   style="fill:#15872e"
   points="793.286,512.806 786.104,570.065 750.486,561.688 "
   id="polygon100" />
	<polygon
   style="fill:#15872e"
   points="279.142,387.773 508.438,158.461 460.642,158.461 273.296,345.808 "
   id="polygon101" />
	
		<rect
   x="232.039"
   y="229.855"
   transform="matrix(0.7071,-0.7071,0.7071,0.7071,-67.4764,313.7151)"
   style="fill:#15872e"
   width="225.813"
   height="16.907"
   id="rect101" />
	<polygon
   style="fill:#15872e"
   points="505.668,732.202 738.761,499.146 728.581,461.513 481.922,708.151 "
   id="polygon102" />
	
		<rect
   x="405.487"
   y="554.508"
   transform="matrix(0.7071,-0.7072,0.7072,0.7071,-224.8927,583.0376)"
   style="fill:#15872e"
   width="371.569"
   height="16.906"
   id="rect102" />
	<rect
   x="490.31601"
   y="314.70001"
   style="fill:#15872e"
   width="19.426001"
   height="90.455002"
   id="rect103" />
	<path
   style="fill:#15872e"
   d="m 408.927,489.521 c 0,50.199 40.863,91.068 91.091,91.068 50.211,0 91.072,-40.868 91.072,-91.068 0,-50.225 -40.862,-91.086 -91.072,-91.086 -50.229,0 -91.091,40.861 -91.091,91.086 z m 12.679,0 c 0,-43.233 35.175,-78.407 78.411,-78.407 43.217,0 78.393,35.173 78.393,78.407 0,43.206 -35.176,78.388 -78.393,78.388 -43.236,0 -78.411,-35.182 -78.411,-78.388 z"
   id="path103" />
	<path
   style="fill:#15872e"
   d="m 416.63,463.708 c 12.897,18.248 45.628,30.04 83.387,30.04 v -8.453 c -34.56,0 -65.297,-10.636 -76.485,-26.465 z"
   id="path104" />
	<path
   style="fill:#15872e"
   d="m 422.14,532.122 c 15.496,14.651 45.338,23.748 77.877,23.748 6.694,0 13.364,-0.38 19.809,-1.129 l -0.977,-8.397 c -6.122,0.713 -12.462,1.073 -18.832,1.073 -30.466,0 -58.081,-8.212 -72.071,-21.436 z"
   id="path105" />
	<path
   style="fill:#15872e"
   d="m 411.261,484.426 c 3.247,24.612 41.403,43.196 88.756,43.196 5.023,0 10.049,-0.215 14.916,-0.641 l -0.736,-8.42 c -4.623,0.403 -9.401,0.608 -14.179,0.608 -41.713,0 -77.77,-16.066 -80.376,-35.847 z"
   id="path106" />
	<path
   style="fill:#15872e"
   d="m 496.356,491.634 c 17.259,29.903 23.414,61.843 15.298,79.442 l 7.677,3.54 c 9.358,-20.287 3.206,-54.535 -15.668,-87.207 z"
   id="path107" />
	<path
   style="fill:#15872e"
   d="m 539.804,444.775 c 3.685,4.952 7.169,10.263 10.358,15.787 15.235,26.384 21.928,54.374 17.464,73.106 l 8.222,1.961 c 4.946,-20.753 -2.094,-51.107 -18.366,-79.294 -3.351,-5.806 -7.017,-11.392 -10.896,-16.605 z"
   id="path108" />
	<path
   style="fill:#15872e"
   d="m 518.073,462.693 c 2.681,3.84 5.25,7.877 7.631,11.995 20.855,36.093 24.943,75.37 9.11,87.518 l 5.145,6.706 c 19.726,-15.13 16.741,-57.471 -6.934,-98.453 -2.503,-4.329 -5.201,-8.569 -8.02,-12.605 z"
   id="path109" />
	<path
   style="fill:#15872e"
   d="m 496.357,487.408 7.306,4.227 c 17.279,-29.929 41.859,-51.227 61.162,-52.997 l -0.773,-8.418 c -22.251,2.04 -48.832,24.488 -67.695,57.188 z"
   id="path110" />
	<path
   style="fill:#15872e"
   d="m 442.531,456.335 c -3.333,5.771 -6.336,11.739 -8.927,17.737 l 7.76,3.352 c 2.462,-5.699 5.317,-11.373 8.488,-16.862 15.235,-26.385 36.16,-46.193 54.591,-51.693 l -2.404,-8.101 c -20.431,6.094 -43.235,27.386 -59.508,55.567 z"
   id="path111" />
	<path
   style="fill:#15872e"
   d="m 466.994,470.459 c -2.494,4.325 -4.817,8.781 -6.906,13.247 l 7.657,3.581 c 1.987,-4.248 4.198,-8.488 6.57,-12.602 20.864,-36.123 52.813,-59.302 71.241,-51.667 l 3.236,-7.809 c -22.959,-9.512 -58.114,14.241 -81.798,55.25 z"
   id="path112" />
	<path
   style="fill:#15872e"
   d="m 146.926,591.261 c -1.473,-3.279 -2.724,-6.828 -3.452,-10.358 l 12.441,-4.729 c 0.257,3.051 1.266,7.396 2.899,11.035 1.441,3.206 3.724,4.666 5.934,3.675 6.987,-3.14 -5.216,-19.25 11.254,-26.644 9.553,-4.293 18.983,0.3 24.681,12.99 1.089,2.424 2.308,5.904 3.154,9.123 l -11.8,4.441 c -0.464,-3.134 -1.246,-6.211 -2.558,-9.133 -1.665,-3.708 -3.867,-4.603 -5.72,-3.771 -6.061,2.721 4.36,19.63 -10.684,26.386 -9.624,4.323 -20.386,-0.181 -26.149,-13.015 z"
   id="path113" />
	<path
   style="fill:#15872e"
   d="m 178.202,647.454 17.66,-10.969 -8.331,-13.409 -17.66,10.969 -7.67,-12.349 44.813,-27.836 7.67,12.349 -16.332,10.144 8.331,13.409 16.331,-10.144 7.67,12.349 -44.813,27.836 z"
   id="path114" />
	<path
   style="fill:#15872e"
   d="m 214.415,694.82 4.777,-7.654 -10.531,-12.382 -8.271,3.543 -9.316,-10.956 51.328,-21.076 10.784,12.683 -28.494,47.928 z m 14.784,-23.754 c 1.715,-2.688 3.25,-5.227 5.396,-7.77 l -0.102,-0.119 c -2.626,1.618 -5.963,3.12 -9.292,4.514 l -5.571,2.378 5.874,6.908 z"
   id="path115" />
	<path
   style="fill:#15872e"
   d="m 268.879,745.294 9.028,-15.364 c 1.83,-3.051 3.91,-6.406 6.45,-10.19 l -0.121,-0.099 c -3.611,2.992 -7.192,5.706 -11.313,8.582 l -13.295,9.371 -10.452,-8.701 5.768,-13.403 c 2.019,-4.623 4.449,-9.619 7.308,-14.152 l -0.121,-0.099 c -3.711,3.725 -6.682,6.439 -9.652,9.15 l -12.133,11.154 -11.233,-9.351 40.48,-34.942 12.614,10.5 -7.437,17.606 c -1.509,3.523 -3.199,6.894 -5.488,10.989 l 0.12,0.099 c 3.451,-2.922 6.472,-5.085 10.144,-7.42 l 15.875,-10.276 12.254,10.203 -27.085,46.092 z"
   id="path116" />
	<path
   style="fill:#15872e"
   d="m 311.988,773.041 1.105,-21.608 -0.472,-0.277 -9.681,16.612 -12.56,-7.32 26.565,-45.577 c 4.411,2.209 10.055,5.409 15.795,8.753 11.614,6.769 15.695,14.664 9.792,24.794 -3.148,5.402 -9.217,8.83 -15.586,7.651 0.153,2.533 0.249,4.851 0.239,7.195 l 0.063,18.673 z m 14.055,-39.482 c -0.81,-0.472 -1.997,-1.073 -2.442,-1.242 l -5.707,9.79 c 0.433,0.343 1.34,0.961 2.015,1.357 3.443,2.004 6.87,1.559 8.837,-1.816 1.575,-2.7 1.416,-5.688 -2.703,-8.089 z"
   id="path117" />
	<path
   style="fill:#15872e"
   d="m 356.298,795.455 c -15.391,-6.135 -19.238,-18.438 -13.046,-33.974 6.308,-15.826 21.626,-21.753 35.348,-16.285 12.778,5.092 20.194,16.041 13.105,33.829 -6.366,15.971 -21.467,21.983 -35.407,16.43 z m 16.366,-38.323 c -4.719,-1.879 -10.958,-0.158 -14.632,9.061 -3.328,8.351 -2.667,14.502 3.867,17.107 4.211,1.677 11.031,1.03 15.168,-9.351 3.416,-8.569 2.059,-14.241 -4.403,-16.817 z"
   id="path118" />
	<path
   style="fill:#15872e"
   d="m 415.211,813.411 c -20.134,-4.857 -20.958,-19.769 -18.465,-30.101 4.124,-17.094 16.431,-25.785 33.222,-21.734 3.343,0.809 6.804,2.123 9.583,3.599 l -4.675,12.379 c -2.266,-1.271 -5.119,-2.44 -8.006,-3.137 -6.686,-1.615 -11.983,2.011 -13.981,10.292 -2.145,8.892 0.119,14.502 8.096,16.427 2.203,0.532 5.75,0.826 8.098,0.426 l -1.372,13.016 c -3.845,0.279 -8.397,-0.177 -12.5,-1.167 z"
   id="path119" />
	<path
   style="fill:#15872e"
   d="m 464.841,820.54 -8.554,-25.125 -2.561,23.936 -14.454,-1.545 5.61,-52.458 14.454,1.545 -2.401,22.46 13.748,-21.245 17.486,1.869 -17.7,23.652 12.946,28.896 z"
   id="path120" />
	<path
   style="fill:#15872e"
   d="m 537.433,820.414 -11.458,-18.356 -0.545,0.043 1.565,19.165 -14.489,1.182 -4.293,-52.581 c 4.884,-0.713 11.342,-1.317 17.963,-1.859 13.399,-1.093 21.265,3.048 22.219,14.733 0.509,6.231 -2.506,12.514 -8.407,15.192 1.575,1.988 2.982,3.834 4.316,5.765 l 10.735,15.278 z m -11.062,-40.422 c -0.934,0.076 -2.252,0.261 -2.714,0.38 l 0.921,11.293 c 0.552,0.033 1.651,0.023 2.427,-0.04 3.976,-0.324 6.528,-2.652 6.211,-6.545 -0.254,-3.117 -2.093,-5.475 -6.845,-5.088 z"
   id="path121" />
	<path
   style="fill:#15872e"
   d="m 586.167,813.543 c -16.137,3.758 -26.32,-4.144 -30.114,-20.433 -3.863,-16.596 5.326,-30.21 19.713,-33.558 13.396,-3.12 25.739,1.631 30.078,20.281 3.899,16.748 -5.063,30.309 -19.677,33.71 z m -8.453,-40.803 c -4.95,1.153 -9.087,6.128 -6.835,15.793 2.037,8.754 6.092,13.429 12.944,11.834 4.415,-1.03 9.645,-5.455 7.109,-16.341 -2.091,-8.981 -6.446,-12.864 -13.218,-11.286 z"
   id="path122" />
	<path
   style="fill:#15872e"
   d="m 651.948,790.911 -15.863,6.432 -35.909,-42.364 14.486,-5.874 17.391,21.453 c 1.852,2.285 3.84,4.682 5.914,7.72 l 0.145,-0.056 c -0.654,-3.279 -1.057,-5.31 -1.502,-10.358 l -2.394,-26.69 13.759,-5.584 z"
   id="path123" />
	<path
   style="fill:#15872e"
   d="m 678.691,778.321 -26.389,-45.679 26.73,-15.443 6.178,10.692 -14.142,8.172 3.715,6.429 13.399,-7.743 5.94,10.289 -13.399,7.74 4.263,7.377 14.142,-8.172 6.297,10.897 z"
   id="path124" />
	<path
   style="fill:#15872e"
   d="m 736.789,740.374 -19.534,-9.302 -0.436,0.33 11.633,15.308 -11.573,8.796 -31.923,-42.001 c 3.731,-3.229 8.849,-7.215 14.139,-11.237 10.702,-8.133 19.561,-8.876 26.653,0.456 3.784,4.979 4.626,11.897 1.096,17.329 2.397,0.829 4.573,1.628 6.736,2.536 l 17.273,7.096 z m -31.081,-28.109 c -0.746,0.568 -1.757,1.433 -2.084,1.78 l 6.858,9.021 c 0.482,-0.267 1.4,-0.868 2.021,-1.341 3.173,-2.41 4.075,-5.749 1.71,-8.859 -1.891,-2.49 -4.711,-3.487 -8.505,-0.601 z"
   id="path125" />
	<path
   style="fill:#15872e"
   d="m 765.474,716.891 c -2.572,2.513 -5.475,4.913 -8.536,6.812 l -8.727,-10.051 c 2.78,-1.294 6.512,-3.738 9.361,-6.525 2.516,-2.457 3.101,-5.102 1.407,-6.835 -5.352,-5.478 -16.272,11.527 -28.889,-1.387 -7.32,-7.492 -6.257,-17.923 3.692,-27.647 1.902,-1.856 4.748,-4.2 7.479,-6.102 l 8.235,9.546 c -2.784,1.516 -5.402,3.309 -7.694,5.547 -2.906,2.84 -2.988,5.217 -1.569,6.67 4.643,4.751 16.926,-10.857 28.45,0.941 7.373,7.545 6.852,19.201 -3.209,29.031 z"
   id="path126" />
	<path
   style="fill:#15872e"
   d="m 776.717,641.923 6.855,5.059 8.724,-11.824 9.622,7.102 -8.727,11.821 15.912,11.742 -8.635,11.699 -42.447,-31.329 17.87,-24.21 10.061,7.426 z"
   id="path127" />
	<path
   style="fill:#15872e"
   d="m 823.654,630.64 c 3.976,2.49 5.217,7.875 2.727,11.847 -2.486,3.976 -7.872,5.217 -11.847,2.727 -3.976,-2.486 -5.214,-7.872 -2.727,-11.847 2.49,-3.975 7.875,-5.213 11.847,-2.727 z"
   id="path128" />
	<path
   style="fill:#15872e"
   d="m 845.896,606.354 c -9.328,18.491 -24.035,15.886 -33.525,11.098 -15.698,-7.921 -21.344,-21.889 -13.565,-37.309 1.549,-3.071 3.622,-6.138 5.693,-8.509 l 10.982,7.38 c -1.753,1.919 -3.546,4.428 -4.884,7.079 -3.097,6.138 -0.776,12.125 6.829,15.962 8.162,4.121 14.142,3.2 17.84,-4.128 1.021,-2.024 2.117,-5.412 2.265,-7.786 l 12.359,4.309 c -0.609,3.808 -2.092,8.137 -3.994,11.904 z"
   id="path129" />
	<path
   style="fill:#15872e"
   d="m 853.118,568.748 c 4.365,1.72 6.568,6.789 4.847,11.151 -1.72,4.362 -6.789,6.564 -11.151,4.844 -4.362,-1.717 -6.564,-6.786 -4.847,-11.148 1.72,-4.365 6.789,-6.568 11.151,-4.847 z"
   id="path130" />
	<path
   style="fill:#15872e"
   d="m 670.866,150 -345.235,0.008 -105.376,105.381 4.42,5.868 c 30.301,40.218 46.317,88.168 46.317,138.666 0,25.366 -4.089,50.291 -12.153,74.084 -5.267,15.494 -7.93,31.706 -7.93,48.196 0,55.275 30.239,105.947 78.915,132.244 29.169,15.747 60.346,27.347 92.672,34.473 26.702,5.881 51.937,21.595 71.059,44.24 l 6.459,7.651 6.442,-7.651 c 19.122,-22.645 44.355,-38.359 71.059,-44.243 32.323,-7.122 63.5,-18.722 92.663,-34.476 48.684,-26.29 78.924,-76.962 78.924,-132.237 0,-16.488 -2.661,-32.699 -7.915,-48.2 -8.08,-23.791 -12.168,-48.716 -12.168,-74.08 0,-50.498 16.015,-98.448 46.314,-138.666 L 779.754,255.39 674.369,150 Z m -3.501,16.906 c 4.458,4.458 81.519,81.519 90.256,90.257 -29.688,41.909 -45.508,91.049 -45.508,142.761 0,27.213 4.388,53.964 13.046,79.511 4.676,13.744 7.036,28.121 7.036,42.769 0,49.057 -26.838,94.03 -70.045,117.369 -27.786,15.001 -57.484,26.049 -88.275,32.838 -27.387,6.033 -53.268,21.136 -73.862,42.771 -20.61,-21.635 -46.493,-36.738 -73.878,-42.774 -30.79,-6.786 -60.489,-17.834 -88.27,-32.841 -43.212,-23.332 -70.051,-68.305 -70.051,-117.362 0,-14.649 2.363,-29.026 7.021,-42.773 8.672,-25.54 13.062,-52.291 13.062,-79.507 0,-51.713 -15.82,-100.853 -45.509,-142.761 8.738,-8.738 85.787,-85.791 90.245,-90.249 6.79,-0.001 327.944,-0.009 334.732,-0.009 z"
   id="path131" />
	<path
   style="fill:#15872e"
   d="m 542.99,246.467 c 0,-11.857 -9.619,-21.474 -21.476,-21.474 -11.861,0 -21.463,9.617 -21.463,21.474 0,-11.857 -9.615,-21.474 -21.479,-21.474 -11.857,0 -21.469,9.617 -21.469,21.474 0,2.074 0.309,4.071 0.857,5.968 -0.002,0.002 -0.016,0.005 -0.016,0.008 5.43,22.057 42.108,57.461 42.108,57.461 0,0 36.662,-35.404 42.1,-57.461 0,-0.003 -0.016,-0.007 -0.02,-0.008 0.548,-1.897 0.858,-3.894 0.858,-5.968 z"
   id="path132" />
	<path
   style="fill:#15872e"
   d="m 500.051,235.642 c -3.987,-7.869 -12.069,-13.328 -21.479,-13.328 -13.317,0 -24.149,10.835 -24.149,24.154 0,2.244 0.324,4.502 0.963,6.713 5.506,22.454 41.285,57.185 42.805,58.653 1.039,1.002 2.683,1.002 3.716,0 1.512,-1.468 37.289,-36.2 42.846,-58.747 0.594,-2.12 0.918,-4.379 0.918,-6.619 0,-13.318 -10.837,-24.154 -24.157,-24.154 -9.411,-0.001 -17.491,5.459 -21.463,13.328 z m 2.672,10.825 c 0,-10.363 8.427,-18.795 18.791,-18.795 10.365,0 18.798,8.432 18.798,18.795 0,1.737 -0.254,3.495 -0.753,5.224 -4.517,18.38 -32.102,46.994 -39.508,54.441 -7.423,-7.446 -35.006,-36.046 -39.507,-54.329 -0.51,-1.838 -0.763,-3.596 -0.763,-5.336 0,-10.363 8.43,-18.795 18.79,-18.795 10.366,0 18.8,8.432 18.8,18.795 0,1.479 1.2,2.68 2.68,2.68 1.476,0 2.672,-1.201 2.672,-2.68 z"
   id="path133" />
	<path
   style="fill:#15872e"
   d="m 431.649,289.98 c -0.002,0 0,0.02 -0.002,0.021 -1.968,0.134 -3.949,0.527 -5.894,1.233 -11.146,4.058 -16.89,16.384 -12.835,27.529 4.058,11.144 16.378,16.89 27.525,12.833 -11.148,4.056 -16.893,16.384 -12.838,27.53 4.062,11.141 16.384,16.89 27.529,12.835 1.948,-0.708 3.715,-1.684 5.31,-2.843 0,0 0.01,0.013 0.01,0.011 18.877,-12.651 39.597,-59.226 39.597,-59.226 0,0 -45.805,-22.359 -68.402,-19.923 z"
   id="path134" />
	<path
   style="fill:#15872e"
   d="m 431.372,287.316 c 0.031,0 0.063,0.015 0.094,0.013 -2.291,0.155 -4.52,0.622 -6.627,1.387 -9.799,3.568 -15.896,12.856 -15.896,22.727 0,2.737 0.469,5.519 1.458,8.237 3.199,8.788 11.007,14.557 19.703,15.661 -4.119,4.448 -6.474,10.34 -6.474,16.465 0,2.737 0.469,5.519 1.458,8.237 4.562,12.513 18.451,18.99 30.963,14.436 2.09,-0.759 4.099,-1.834 5.968,-3.193 19.224,-12.863 39.619,-58.362 40.472,-60.292 0.583,-1.319 0.025,-2.866 -1.266,-3.498 -1.897,-0.926 -46.751,-22.665 -69.853,-20.18 z m -15.935,30.531 c -3.543,-9.741 1.497,-20.55 11.233,-24.094 1.633,-0.593 3.37,-0.956 5.159,-1.078 0.035,-0.002 0.073,-0.027 0.107,-0.03 18.745,-2.022 55.07,14.136 64.568,18.551 -4.456,9.521 -21.895,45.222 -37.543,55.709 -1.559,1.111 -3.122,1.95 -4.743,2.538 -9.736,3.543 -20.55,-1.498 -24.094,-11.233 -0.769,-2.115 -1.134,-4.279 -1.134,-6.409 0,-7.682 4.745,-14.91 12.371,-17.685 1.088,-0.396 1.765,-1.423 1.765,-2.518 0,-0.304 -0.053,-0.614 -0.163,-0.916 -0.505,-1.39 -1.128,-2.27 -2.518,-1.765 -0.304,0 -0.614,0.053 -0.916,0.163 -9.739,3.542 -20.54,-1.497 -24.092,-11.233 z m 15.925,-30.531 c 0.003,0 0.007,0 0.01,0 -0.004,0 -0.007,0 -0.01,0 z"
   id="path135" />
	<path
   style="fill:#15872e"
   d="m 574.336,291.235 c -1.945,-0.707 -3.929,-1.1 -5.894,-1.233 0,-0.002 0,-0.021 0,-0.021 -22.602,-2.437 -68.39,19.924 -68.39,19.924 0,0 20.707,46.574 39.587,59.226 0,0.002 0.007,-0.008 0.007,-0.008 1.595,1.157 3.365,2.133 5.303,2.84 11.151,4.055 23.474,-1.694 27.535,-12.835 4.052,-11.146 -1.694,-23.474 -12.845,-27.53 11.151,4.056 23.467,-1.689 27.529,-12.833 4.057,-11.145 -1.698,-23.472 -12.832,-27.53 z"
   id="path136" />
	<path
   style="fill:#15872e"
   d="m 498.876,307.496 c -1.298,0.634 -1.859,2.179 -1.273,3.498 0.859,1.93 21.243,47.43 40.543,60.362 1.793,1.289 3.797,2.363 5.884,3.124 12.518,4.552 26.409,-1.927 30.973,-14.435 0.987,-2.717 1.456,-5.498 1.456,-8.233 0,-6.127 -2.358,-12.023 -6.478,-16.472 8.694,-1.104 16.503,-6.873 19.706,-15.658 0.991,-2.717 1.459,-5.501 1.459,-8.24 0,-9.868 -6.095,-19.155 -15.892,-22.724 0,0 0,0 -0.003,-0.002 -2.103,-0.764 -4.336,-1.232 -6.627,-1.387 -22.999,-2.505 -67.85,19.241 -69.748,20.167 z m 69.278,-14.851 c 1.895,0.152 3.632,0.515 5.267,1.108 7.621,2.78 12.363,10.005 12.363,17.684 0,2.13 -0.363,4.296 -1.133,6.411 -3.55,9.734 -14.357,14.773 -24.095,11.232 -0.304,-0.111 -0.614,-0.163 -0.918,-0.163 -1.093,0 -2.12,0.68 -2.516,1.765 -0.112,0.302 -0.165,0.612 -0.165,0.916 0,1.095 0.677,2.123 1.767,2.518 7.628,2.775 12.372,10.005 12.372,17.69 0,2.13 -0.363,4.292 -1.133,6.406 -3.546,9.734 -14.36,14.775 -24.098,11.233 -1.618,-0.591 -3.183,-1.428 -4.646,-2.491 -15.727,-10.528 -33.181,-46.236 -37.636,-55.757 9.498,-4.416 45.823,-20.574 64.571,-18.552 z"
   id="path137" />
</g>
<path
   style="fill:#e5c974"
   d="m 323.34678,107.12 1.43063,-4.4 1.8916,-5.839996 1.8916,-5.84 1.94811,-6 1.9481,-6.000004 0.8964,-2.80461 0.89639,-2.8046 -3.2445,-2.37788 -3.2445,-2.37789 -6.4,-4.65993 -6.4,-4.65993 -6.49031,-4.71758 -6.49031,-4.71758 20.0637,-0.16 20.0637,-0.16 0.24225,-0.8 0.24224,-0.8 1.91259,-5.92 1.91258,-5.92 3.42203,-10.56 3.42204,-10.56 0.52485,-1.52 0.52486,-1.52 h 0.2102 0.2102 l 0.21227,0.88 0.21228,0.88 3.84623,11.84 3.84624,11.84 1.13587,3.52 1.13588,3.52 0.88144,2.56 0.88144,2.56 20.06022,0.0824 20.06021,0.0824 -1.38135,1.04478 -1.38135,1.04478 -9.23219,6.71281 -9.23219,6.71281 -4.38958,3.2 -4.38959,3.2 -1.17604,0.8 -1.17604,0.8 -0.004,0.32 -0.004,0.32 0.78839,2.23999 0.78838,2.24 3.87985,12.000004 3.87984,11.999996 1.41405,4.32 1.41404,4.32001 -7.3e-4,0.23366 -7.4e-4,0.23366 -3.02234,-2.15366 -3.02234,-2.15367 -9.21766,-6.70151 -9.21766,-6.701516 -2.88,-2.1153 -2.88,-2.1153 -1.05509,-0.73572 -1.05509,-0.73572 -1.18491,0.82583 -1.1849,0.82582 -2.78265,2.00671 -2.78264,2.00671 -9.85736,7.170256 -9.85735,7.17025 -2.29615,1.70975 -2.29615,1.70975 h -0.14613 -0.14609 z m 118.49383,4.12231 v -0.3322 l 0.30314,-0.73505 0.30315,-0.73506 3.08698,-9.599996 3.08698,-9.6 2.07587,-6.4 2.07587,-6.400004 0.68995,-1.99668 0.68995,-1.99668 -0.63595,-0.44998 -0.63594,-0.44998 -9.1678,-6.67334 -9.1678,-6.67334 -6.37005,-4.64 -6.37005,-4.64 20.01785,-0.0829 20.01785,-0.0829 0.93506,-2.95715 0.93507,-2.95714 1.83357,-5.6 1.83357,-5.6 3.23137,-9.94932 3.23136,-9.94932 V 12.37069 12 h 0.27441 0.27441 l 1.83912,5.68 1.83913,5.68 0.90357,2.72 0.90357,2.72 3.39855,10.4776 3.39855,10.4776 20.00955,0.0824 20.00956,0.0824 -13.86521,10.07761 -13.86522,10.07761 -2.16,1.59441 -2.15999,1.59441 v 0.51993 0.51993 l 1.09565,3.32805 1.09566,3.32805 3.37365,10.400004 3.37366,10.399996 1.56255,4.8 1.56255,4.8 -0.0705,0.092 -0.0705,0.092 -11.32131,-8.21525 -11.32131,-8.215256 -1.6,-1.17543 -1.6,-1.17544 -3.17157,-2.3461 -3.17156,-2.34611 -0.66844,0.41471 -0.66843,0.41472 -11.68,8.47765 -11.68,8.477636 -2.24,1.64811 -2.24,1.64809 -1.68,1.21157 -1.68,1.21157 z"
   id="path307" /></svg>
