<?xml version="1.0" encoding="UTF-8" standalone="no"?>
<svg
   xmlns:dc="http://purl.org/dc/elements/1.1/"
   xmlns:cc="http://creativecommons.org/ns#"
   xmlns:rdf="http://www.w3.org/1999/02/22-rdf-syntax-ns#"
   xmlns:svg="http://www.w3.org/2000/svg"
   xmlns="http://www.w3.org/2000/svg"
   xmlns:sodipodi="http://sodipodi.sourceforge.net/DTD/sodipodi-0.dtd"
   xmlns:inkscape="http://www.inkscape.org/namespaces/inkscape"
   width="77.694733mm"
   height="89.958328mm"
   viewBox="0 0 77.694733 89.958328"
   version="1.1"
   id="svg18793"
   inkscape:version="1.0.1 (3bc2e813f5, 2020-09-07)"
   sodipodi:docname="sapporo.svg">
  <defs
     id="defs18787" />
  <sodipodi:namedview
     id="base"
     pagecolor="#ffffff"
     bordercolor="#666666"
     borderopacity="1.0"
     inkscape:pageopacity="0.0"
     inkscape:pageshadow="2"
     inkscape:zoom="0.35"
     inkscape:cx="38.253272"
     inkscape:cy="264.28571"
     inkscape:document-units="mm"
     inkscape:current-layer="layer1"
     inkscape:document-rotation="0"
     showgrid="false"
     inkscape:window-width="1267"
     inkscape:window-height="728"
     inkscape:window-x="83"
     inkscape:window-y="0"
     inkscape:window-maximized="0" />
  <metadata
     id="metadata18790">
    <rdf:RDF>
      <cc:Work
         rdf:about="">
        <dc:format>image/svg+xml</dc:format>
        <dc:type
           rdf:resource="http://purl.org/dc/dcmitype/StillImage" />
        <dc:title></dc:title>
      </cc:Work>
    </rdf:RDF>
  </metadata>
  <g
     inkscape:label="Layer 1"
     inkscape:groupmode="layer"
     id="layer1"
     transform="translate(-95.712155,-78.241072)">
    <path
       class="cls-1"
       d="m 134.56765,168.1994 2.07013,-1.52278 a 85.622993,85.622993 0 0 0 7.96619,-6.5843 88.034527,88.034527 0 0 0 25.38342,-6.62766 l 0.88875,-0.38476 -4.33534,-9.80871 1.90213,0.0596 3.97225,-3.90722 -1.95632,-2.11348 2.70959,-4.00477 -2.47115,-1.41441 2.70959,-5.35415 -5.96109,-1.36021 -1.46318,0.7912 a 47.108904,47.108904 0 0 0 1.73414,-12.2365 V 95.121806 l -13.44498,-3.598332 -1.57698,-2.514498 a 15.558456,15.558456 0 0 0 4.19986,-4.562947 l 1.08384,-1.820843 -1.78291,0.335988 a 18.967118,18.967118 0 0 0 1.62575,-2.937193 l 0.74243,-1.782909 -1.88588,0.503983 -3.05099,0.807457 a 20.739189,20.739189 0 0 1 -4.96939,0.601529 12.83803,12.83803 0 0 1 -2.97512,-0.390181 c -1.96175,-0.438953 -4.6605,-0.980871 -11.11474,-0.980871 -6.45424,0 -9.15299,0.541918 -11.12557,0.980871 a 12.83803,12.83803 0 0 1 -2.97512,0.390181 20.739189,20.739189 0 0 1 -4.95855,-0.617786 l -3.051,-0.807458 -1.88587,-0.487725 0.75326,1.799166 a 18.967118,18.967118 0 0 0 1.62576,2.937194 l -1.78291,-0.335989 1.08383,1.820843 a 15.558456,15.558456 0 0 0 4.19987,4.562948 l -1.57698,2.514498 -13.46666,3.582074 v 18.604034 a 47.108904,47.108904 0 0 0 1.72872,12.2365 l -1.46318,-0.7912 -5.961095,1.36022 2.709589,5.35414 -2.449468,1.42525 2.709588,4.00477 -1.956323,2.11348 3.972259,3.90722 1.89671,-0.065 -4.335342,9.81955 0.888745,0.38476 a 88.034527,88.034527 0 0 0 25.383427,6.62766 85.622993,85.622993 0 0 0 7.96619,6.5843 z"
       id="path18027"
       style="fill:#ffffff;stroke-width:0.541917" />
    <path
       d="m 171.78656,133.62506 -2.56327,3.79342 1.84252,1.98884 -3.01307,2.96429 -7.15331,-0.20593 4.54669,1.05132 4.17277,9.39685 a 87.167458,87.167458 0 0 1 -25.43762,6.58972 83.644991,83.644991 0 0 1 -8.12876,6.7252 l -1.50654,1.08384 -1.50652,-1.08384 a 83.634154,83.634154 0 0 1 -8.12877,-6.73062 86.929013,86.929013 0 0 1 -25.421358,-6.5843 l 4.189028,-9.40769 4.5521,-1.05132 -7.15331,0.20593 -3.018481,-2.96429 1.84252,-1.98884 -2.563271,-3.79342 2.335665,-1.36563 -2.49824,-5.0561 4.394957,-1.00796 3.15938,1.70704 A 47.954295,47.954295 0 0 1 102.394,113.72584 V 95.842558 l 13.07106,-3.511627 2.30315,-3.657944 c -2.70959,-1.257249 -4.72553,-4.714684 -4.72553,-4.714684 l 2.54702,0.476887 c -1.93465,-1.322279 -3.38699,-4.779713 -3.38699,-4.779713 l 3.04558,0.807457 a 21.817605,21.817605 0 0 0 5.2295,0.650301 13.694259,13.694259 0 0 0 3.17564,-0.411857 c 1.92923,-0.406438 4.57379,-0.970033 10.92506,-0.970033 6.35127,0 8.99584,0.541918 10.92506,0.970033 a 13.694259,13.694259 0 0 0 3.17564,0.411857 21.817605,21.817605 0 0 0 5.20783,-0.650301 l 3.04558,-0.807457 c 0,0 -1.46318,3.462854 -3.39783,4.779713 l 2.54701,-0.476887 c 0,0 -2.03761,3.457435 -4.72552,4.714684 l 2.31399,3.657944 13.09815,3.506208 v 17.883281 a 48.051839,48.051839 0 0 1 -2.33566,14.17657 l 3.17021,-1.71788 4.40038,1.00797 -2.54702,5.06692 z"
       id="path18029"
       style="stroke-width:0.541917" />
    <path
       class="cls-1"
       d="m 118.96042,141.94891 -0.12464,0.54192 a 0.43353413,0.43353413 0 0 1 0.0379,0.37934 v 0.0325 l -0.0921,0.38476 v 0.0759 h -0.0813 l -0.42811,-0.10296 h -0.0813 v -0.0813 l 0.0921,-0.37935 v -0.0704 a 0.43353413,0.43353413 0 0 1 0.20593,-0.32515 l 0.13006,-0.54191 -1.20306,-0.28722 -0.12464,0.54192 a 0.41185743,0.41185743 0 0 1 0.0325,0.37934 v 0.0325 l -0.39018,1.62575 v 0.0325 a 0.4443725,0.4443725 0 0 1 -0.20593,0.32515 l -0.12464,0.54192 1.19764,0.28722 0.13006,-0.54192 a 0.4172766,0.4172766 0 0 1 -0.0379,-0.37934 v -0.065 l 0.13006,-0.54192 v -0.0813 h 0.0813 l 0.42811,0.10296 h 0.0813 v 0.0813 l -0.12464,0.54192 v 0.0325 a 0.4443725,0.4443725 0 0 1 -0.20593,0.32515 l -0.12464,0.54192 1.20306,0.28722 0.12464,-0.54192 a 0.43353413,0.43353413 0 0 1 -0.0379,-0.37935 v -0.0325 l 0.38476,-1.62575 v -0.0325 a 0.43353413,0.43353413 0 0 1 0.20593,-0.32515 l 0.12464,-0.54192 z"
       id="path18031"
       style="fill:#ffffff;stroke-width:0.541917" />
    <path
       class="cls-1"
       d="m 123.57756,142.79972 a 1.4360818,1.4360818 0 0 0 -1.08383,0.11923 1.013386,1.013386 0 0 0 -0.37393,0.70991 l -0.2547,1.5282 c -0.12464,0.73701 0.19509,1.08384 1.08384,1.25184 a 1.4035668,1.4035668 0 0 0 1.08383,-0.11923 1.0242244,1.0242244 0 0 0 0.37393,-0.70991 l 0.2547,-1.52821 c 0.15173,-0.737 -0.17884,-1.10009 -1.08384,-1.25183 z m 0.15174,1.01339 -0.27638,1.62575 a 0.36850402,0.36850402 0 0 1 -0.1409,0.26554 0.30347391,0.30347391 0 0 1 -0.22218,0.0488 0.29263554,0.29263554 0 0 1 -0.19509,-0.11922 0.40101909,0.40101909 0 0 1 -0.0434,-0.29805 l 0.27096,-1.62576 a 0.40643826,0.40643826 0 0 1 0.14089,-0.26012 0.31973142,0.31973142 0 0 1 0.41728,0.0704 0.37934236,0.37934236 0 0 1 0.0488,0.29264 z"
       id="path18033"
       style="fill:#ffffff;stroke-width:0.541917" />
    <path
       class="cls-1"
       d="m 128.70952,143.55841 -0.0542,0.49314 c 0,0.17342 -0.0379,0.21135 -0.26012,0.49857 l -0.31431,0.3956 -0.17883,0.22218 0.0325,-0.28179 0.0488,-0.46605 v -0.0325 a 0.46063003,0.46063003 0 0 1 0.16257,-0.35225 l 0.0596,-0.54192 -1.22473,-0.1138 -0.0542,0.54192 a 0.4389533,0.4389533 0 0 1 0.0867,0.37392 v 0.0325 l -0.17342,1.62576 v 0.0271 a 0.43353413,0.43353413 0 0 1 -0.15715,0.34682 l -0.0596,0.54192 1.23015,0.13006 0.0542,-0.54192 a 0.44979167,0.44979167 0 0 1 -0.0867,-0.37392 v -0.0325 l 0.0596,-0.57985 v -0.0867 h 0.0813 0.0596 v 0.0488 l 0.23303,0.58527 v 0.065 a 1.0188052,1.0188052 0 0 1 0.0867,0.58527 l -0.0379,0.35225 1.14886,0.12464 0.0542,-0.54192 a 0.54191768,0.54191768 0 0 1 -0.21134,-0.30348 v 0 l -0.42811,-1.12719 v -0.0434 -0.0325 l 0.54192,-0.737 a 0.54191768,0.54191768 0 0 1 0.2547,-0.20051 l 0.0542,-0.51482 z"
       id="path18035"
       style="fill:#ffffff;stroke-width:0.541917" />
    <path
       class="cls-1"
       d="m 133.55968,144.27916 c 0,0.17341 0,0.21677 -0.22218,0.54192 l -0.28722,0.41727 -0.15715,0.23303 v -0.2818 -0.47147 -0.0325 a 0.4660492,0.4660492 0 0 1 0.13548,-0.36308 v -0.54192 l -1.241,-0.0379 v 0.54191 a 0.42811496,0.42811496 0 0 1 0.11381,0.36851 v 0.0325 l -0.0542,1.62575 v 0.0325 a 0.4172766,0.4172766 0 0 1 -0.13548,0.35766 v 0.54192 l 1.23557,0.0379 v -0.54192 a 0.4443725,0.4443725 0 0 1 -0.1138,-0.3685 v -0.0325 -0.57985 -0.0867 h 0.1409 v 0.0434 l 0.27637,0.56901 v 0.0596 a 1.0079669,1.0079669 0 0 1 0.12465,0.58527 v 0.35225 l 1.15428,0.0379 v -0.54192 a 0.54191768,0.54191768 0 0 1 -0.23302,-0.28721 v 0 l -0.50941,-1.08384 v -0.0434 -0.0379 l 0.54192,-0.77494 a 0.48230674,0.48230674 0 0 1 0.23303,-0.21677 v -0.54192 l -1.08384,-0.0325 z"
       id="path18037"
       style="fill:#ffffff;stroke-width:0.541917" />
    <path
       class="cls-1"
       d="m 137.68368,146.45767 a 0.54191768,0.54191768 0 0 1 0,-0.13006 v -0.065 h 0.065 l 0.54192,-0.0325 h 0.0596 v 0.0596 a 0.42269579,0.42269579 0 0 1 0,0.12464 0.28721637,0.28721637 0 0 1 -0.11923,0.26012 l 0.0325,0.54192 1.28977,-0.0813 -0.0325,-0.54192 a 0.60152862,0.60152862 0 0 1 -0.21677,-0.38476 l -0.68281,-2.56327 -1.50112,0.0921 c -0.0488,0.40102 -0.31973,2.56869 -0.31973,2.56869 v 0.0867 a 0.62862449,0.62862449 0 0 1 -0.13006,0.35224 l 0.0325,0.54192 1.08384,-0.065 v -0.51482 a 0.27637801,0.27637801 0 0 1 -0.10296,-0.24928 z m 0.0379,-0.84539 0.1138,-1.08384 v -0.0704 h 0.14632 v 0.0704 l 0.2547,1.08384 v 0.0975 h -0.0976 -0.37934 -0.0975 z"
       id="path18039"
       style="fill:#ffffff;stroke-width:0.541917" />
    <path
       class="cls-1"
       d="m 141.65052,144.32251 v 0.0325 l 0.19509,1.62576 v 0.0325 a 0.47146837,0.47146837 0 0 1 -0.0813,0.37934 l 0.0596,0.54192 1.23015,-0.14632 -0.065,-0.54192 a 0.4443725,0.4443725 0 0 1 -0.16799,-0.34682 v -0.0325 l -0.19509,-1.62576 v -0.0271 a 0.43353413,0.43353413 0 0 1 0.0813,-0.37934 l -0.0596,-0.54192 -1.23016,0.14632 0.065,0.54192 a 0.4443725,0.4443725 0 0 1 0.168,0.34141 z"
       id="path18041"
       style="fill:#ffffff;stroke-width:0.541917" />
    <path
       class="cls-1"
       d="m 147.71458,145.81279 a 0.99170934,0.99170934 0 0 0 0.11922,-0.87791 l -0.23303,-1.3548 a 0.96461345,0.96461345 0 0 0 -0.44437,-0.7912 1.3981476,1.3981476 0 0 0 -0.905,-0.0325 l -1.49028,0.2547 0.0867,0.54192 a 0.37934236,0.37934236 0 0 1 0.20593,0.30347 l 0.30348,1.76665 a 0.37934236,0.37934236 0 0 1 -0.0867,0.35225 l 0.0921,0.54192 1.52278,-0.26554 a 1.197638,1.197638 0 0 0 0.82914,-0.43895 z m -1.17055,-0.168 h -0.0921 -0.0813 v -0.0813 l -0.36308,-2.07012 v -0.0813 h 0.0813 0.0867 a 0.41185743,0.41185743 0 0 1 0.32515,0.0434 0.47688754,0.47688754 0 0 1 0.15715,0.31973 l 0.23303,1.36563 c 0.0325,0.29805 -0.0596,0.45521 -0.34683,0.50398 z"
       id="path18043"
       style="fill:#ffffff;stroke-width:0.541917" />
    <path
       class="cls-1"
       d="m 152.55932,144.72353 a 1.0838353,1.0838353 0 0 0 0.0542,-0.80204 l -0.39018,-1.50111 c -0.18425,-0.72075 -0.62321,-0.92668 -1.51195,-0.69907 a 1.4523394,1.4523394 0 0 0 -0.93752,0.54191 1.0242244,1.0242244 0 0 0 -0.0542,0.79662 l 0.38476,1.50112 c 0.18968,0.72617 0.62863,0.92667 1.51737,0.69907 a 1.4252435,1.4252435 0 0 0 0.93752,-0.5365 z m -0.91042,-0.20051 a 0.26553967,0.26553967 0 0 1 -0.18426,0.13548 0.29263554,0.29263554 0 0 1 -0.2276,-0.0271 0.38476155,0.38476155 0 0 1 -0.16258,-0.2547 l -0.41185,-1.62575 a 0.36308485,0.36308485 0 0 1 0,-0.29805 0.31973142,0.31973142 0 0 1 0.41185,-0.10297 0.34140812,0.34140812 0 0 1 0.15716,0.24928 l 0.41728,1.62576 a 0.38476155,0.38476155 0 0 1 0,0.29805 z"
       id="path18045"
       style="fill:#ffffff;stroke-width:0.541917" />
    <path
       class="cls-1"
       d="m 107.20081,146.88036 -0.69907,1.81001 -1.08384,-0.4227 0.27096,-0.68823 c 0,0 0.20051,-0.54192 -0.16258,-0.66114 -0.36308,-0.11922 -0.57443,0.40102 -0.57443,0.40102 l -1.31144,3.35989 c 0,0 -0.26554,0.59611 0.0921,0.7641 0.35766,0.168 0.6503,-0.54192 0.6503,-0.54192 l 0.36308,-0.91042 1.08384,0.4227 -0.86707,2.2056 a 1.9238077,1.9238077 0 0 1 -1.77207,0.0704 c -0.97545,-0.45521 -1.08384,-1.31144 -0.71533,-2.34108 l 1.4144,-3.60917 c 0,0 0.61779,-1.67995 1.978,-1.20848 a 2.2597967,2.2597967 0 0 1 1.33312,1.34937 z"
       id="path18047"
       style="fill:#ffffff;stroke-width:0.541917" />
    <path
       class="cls-1"
       d="m 107.47177,148.01839 a 5.0831877,5.0831877 0 0 1 0.54192,-0.85081 1.3439558,1.3439558 0 0 1 1.57156,-0.30889 c 0.94293,0.33057 1.02422,0.94835 1.02422,0.94835 a 2.8179718,2.8179718 0 0 1 -0.0542,1.23016 l -1.21389,3.61459 a 5.0777685,5.0777685 0 0 1 -0.54192,1.00255 c -0.23303,0.27095 -0.62863,0.82371 -1.72872,0.41727 -1.10009,-0.40644 -1.0188,-1.19764 -1.0188,-1.19764 a 4.9477083,4.9477083 0 0 1 0.21676,-1.32769 z m -0.10838,4.10232 c 0,0 -0.15174,0.54191 0.16799,0.64488 0.45521,0.1409 0.60695,-0.4227 0.60695,-0.4227 l 1.18138,-3.50079 c 0,0 0.16257,-0.54191 -0.20051,-0.66655 -0.36309,-0.12464 -0.54192,0.39018 -0.54192,0.39018 z"
       id="path18049"
       style="fill:#ffffff;stroke-width:0.541917" />
    <path
       class="cls-1"
       d="m 111.56867,147.6824 1.31144,0.35767 -0.14632,3.52246 0.20593,0.0596 0.49314,-1.73413 a 0.66113956,0.66113956 0 0 0 0,-0.48231 l 0.32515,-1.12719 1.19764,0.33057 -0.32515,1.13803 a 0.92126004,0.92126004 0 0 0 -0.27638,0.41185 l -1.53904,5.48421 -1.15429,-0.33057 0.0867,-3.49537 -0.21676,-0.0704 -0.47147,1.6962 a 0.72616968,0.72616968 0 0 0 0,0.48231 l -0.32515,1.13261 -1.15429,-0.33599 0.31431,-1.12177 c 0,0 0.15174,0 0.26554,-0.39018 l 1.08384,-3.8422 a 0.84539156,0.84539156 0 0 0 0,-0.56901 z"
       id="path18051"
       style="fill:#ffffff;stroke-width:0.541917" />
    <path
       class="cls-1"
       d="m 118.44018,149.95304 -0.36308,1.56614 -1.08384,-0.23845 0.0813,-0.3956 c 0,0 0.14632,-0.54191 -0.27096,-0.6232 -0.41727,-0.0813 -0.51482,0.44437 -0.51482,0.44437 a 0.82371486,0.82371486 0 0 0 0.27096,0.9592 c 0.50398,0.34682 1.28976,0.81287 1.14886,1.94006 a 4.5900427,4.5900427 0 0 1 -0.62862,2.12974 1.4252435,1.4252435 0 0 1 -1.72872,0.64488 1.77749,1.77749 0 0 1 -1.3006,-1.03506 l 0.41728,-1.82626 1.14344,0.26012 -0.12464,0.57443 c 0,0 -0.12464,0.60153 0.27638,0.68282 0.40102,0.0813 0.54192,-0.44438 0.54192,-0.44438 0,0 0.35225,-0.89958 -0.29806,-1.29518 -0.6503,-0.3956 -1.37105,-0.88333 -0.97003,-2.50366 0.40102,-1.62034 0.95378,-2.16767 2.27064,-1.79917 a 1.9888379,1.9888379 0 0 1 1.1326,0.9592 z"
       id="path18053"
       style="fill:#ffffff;stroke-width:0.541917" />
    <path
       class="cls-1"
       d="m 142.61513,151.1019 0.11922,1.62576 -1.08383,0.0975 -0.0434,-0.40644 c 0,0 0,-0.54192 -0.43896,-0.54192 -0.43895,0 -0.36308,0.57985 -0.36308,0.57985 a 0.82913403,0.82913403 0 0 0 0.54191,0.83456 c 0.58528,0.17883 1.47402,0.3956 1.67453,1.51194 a 4.6063003,4.6063003 0 0 1 0,2.19477 1.4306626,1.4306626 0 0 1 -1.46318,1.12719 1.7666516,1.7666516 0 0 1 -1.54446,-0.60695 l -0.14632,-1.86419 1.17054,-0.0921 0.0542,0.58527 c 0,0 0.0596,0.61237 0.46605,0.57443 0.40644,-0.0379 0.35767,-0.57985 0.35767,-0.57985 0,0 0.0705,-0.95919 -0.67198,-1.14887 -0.74243,-0.18967 -1.56614,-0.43353 -1.66369,-2.10264 -0.0975,-1.6691 0.27096,-2.3465 1.62575,-2.39527 a 1.9888379,1.9888379 0 0 1 1.40899,0.60695 z"
       id="path18055"
       style="fill:#ffffff;stroke-width:0.541917" />
    <path
       class="cls-1"
       d="m 119.7733,149.67666 1.81542,0.31973 -0.28179,5.6522 c 0,0 0,0.47689 0.1138,0.58527 l -0.19509,1.12719 -1.57698,-0.27638 0.19509,-1.15428 c 0,0 0.31973,-0.0975 0.27638,-0.76411 l -0.88875,-0.16799 c 0,0 -0.2547,0.63404 0,0.85081 l -0.20051,1.12719 -1.34937,-0.24928 0.19509,-1.14887 c 0,0 0.1409,-0.0596 0.27638,-0.48772 z m -0.27638,4.12941 0.74243,0.1409 0.17341,-2.50908 -0.2276,-0.0379 z"
       id="path18057"
       style="fill:#ffffff;stroke-width:0.541917" />
    <path
       class="cls-1"
       d="m 143.85612,150.41909 1.83168,-0.23303 1.41441,5.48421 c 0,0 0.11922,0.46063 0.2818,0.54192 l 0.14631,1.14886 -1.5824,0.20593 -0.15715,-1.15428 c 0,0 0.27637,-0.18968 0.0325,-0.81288 l -0.89959,0.10296 c 0,0 -0.0488,0.68282 0.2547,0.81288 l 0.14632,1.13261 -1.36021,0.16799 -0.15174,-1.15428 c 0,0 0.1138,-0.10297 0.1138,-0.54192 z m 0.97003,4.03186 0.74785,-0.0921 -0.58527,-2.41695 -0.22219,0.0325 z"
       id="path18059"
       style="fill:#ffffff;stroke-width:0.541917" />
    <path
       class="cls-1"
       d="m 122.81346,150.16438 2.13515,0.27096 c 0,0 1.23558,0 0.99713,1.978 l -0.45521,3.5875 c 0,0 -0.16799,1.87503 -1.47943,1.71246 l -2.10806,-0.26554 0.14631,-1.14345 c 0,0 0.17884,0 0.25471,-0.57985 l 0.4823,-3.79342 c 0,0 0.0813,-0.45521 -0.1138,-0.63947 z m 0.64488,6.11284 0.26554,0.0325 c 0.54192,0.0704 0.59069,-0.6503 0.59069,-0.6503 l 0.39018,-3.0781 c 0.0975,-0.83455 -0.4227,-0.81287 -0.4227,-0.81287 h -0.24386 z"
       id="path18061"
       style="fill:#ffffff;stroke-width:0.541917" />
    <path
       class="cls-1"
       d="m 126.52559,152.36999 c 0,0 0.0596,-1.94548 1.70163,-1.85336 1.81,0.0975 1.52278,1.9509 1.52278,1.9509 l -0.27637,3.76633 c 0,0 0,2.04845 -1.77207,1.93465 -1.62576,-0.10839 -1.45776,-2.07013 -1.45776,-2.07013 z m 0.93752,3.79342 c 0,0 -0.10296,0.54192 0.33599,0.59611 0.43895,0.0542 0.46063,-0.59069 0.46063,-0.59069 l 0.27638,-3.69046 c 0,0 -0.0325,-0.54192 -0.3685,-0.57443 -0.33599,-0.0325 -0.42812,0.5094 -0.42812,0.5094 z"
       id="path18063"
       style="fill:#ffffff;stroke-width:0.541917" />
    <path
       class="cls-1"
       d="m 154.85163,150.31612 c 0,0 -0.61237,-1.84794 0.96461,-2.32483 1.73956,-0.54191 2.09723,1.31686 2.09723,1.31686 l 1.02964,3.63627 c 0,0 0.68824,1.92923 -1.00255,2.42238 -1.57698,0.45521 -2.08096,-1.45234 -2.08096,-1.45234 z m 2.16767,3.25151 c 0,0 0.0975,0.54192 0.54192,0.44437 0.44437,-0.0975 0.23302,-0.70991 0.23302,-0.70991 l -1.00796,-3.57124 c 0,0 -0.21677,-0.5094 -0.54192,-0.41728 -0.32515,0.0921 -0.23303,0.62321 -0.23303,0.62321 z"
       id="path18065"
       style="fill:#ffffff;stroke-width:0.541917" />
    <path
       class="cls-1"
       d="m 162.41138,148.00213 c 0,0 -0.80745,-1.76665 0.70991,-2.41695 1.66369,-0.70991 2.22729,1.08384 2.22729,1.08384 l 1.4144,3.50078 c 0,0 0.89416,1.84252 -0.73701,2.51992 -1.51195,0.62321 -2.22186,-1.21389 -2.22186,-1.21389 z m 2.5145,2.98055 c 0,0 0.15716,0.54192 0.54192,0.39018 0.38476,-0.15174 0.15174,-0.73701 0.15174,-0.73701 l -1.38189,-3.43034 c 0,0 -0.27096,-0.4823 -0.58528,-0.35224 -0.31431,0.13006 -0.16257,0.64488 -0.16257,0.64488 z"
       id="path18067"
       style="fill:#ffffff;stroke-width:0.541917" />
    <path
       class="cls-1"
       d="m 130.3407,150.85804 1.53362,0.0379 v 1.1868 c 0,0 -0.16257,0.0867 -0.17883,0.49856 l -0.11922,4.29741 h 0.26012 c 0,0 0.46605,0.0542 0.49856,-0.60153 l 0.0542,-1.45776 h 1.02423 l -0.0921,3.43034 -3.15939,-0.0867 v -1.18138 c 0,0 0.17342,0 0.18426,-0.54191 l 0.11922,-3.91807 a 0.75326557,0.75326557 0 0 0 -0.14632,-0.54192 z"
       id="path18069"
       style="fill:#ffffff;stroke-width:0.541917" />
    <path
       class="cls-1"
       d="m 133.97154,150.91223 3.25151,-0.0542 v 2.32483 h -1.08384 v -0.46063 c 0,0 0,-0.49315 -0.43895,-0.49315 h -0.31973 v 1.62576 h 0.91584 v 1.23557 h -0.91042 v 1.77207 h 0.26554 a 0.54191768,0.54191768 0 0 0 0.48772,-0.54192 v -0.60695 h 1.08384 l 0.0379,2.49824 -3.25151,0.0488 v -1.17054 c 0,0 0.15716,-0.0434 0.15716,-0.59069 l -0.0542,-3.86387 a 0.75868474,0.75868474 0 0 0 -0.17883,-0.54192 z"
       id="path18071"
       style="fill:#ffffff;stroke-width:0.541917" />
    <path
       class="cls-1"
       d="m 146.93421,149.99639 2.07555,-0.38476 c 0,0 1.11635,-0.22219 1.46859,1.24641 a 12.128117,12.128117 0 0 1 0.36851,1.92381 c 0,0 0.32515,1.66369 -0.85623,1.90213 l -0.81288,0.16257 0.0813,0.42812 c 0,0 0.0488,0.40102 0.24929,0.54192 l 0.21676,1.14886 -1.50111,0.26554 -0.21677,-1.15428 c 0,0 0.13548,-0.10297 0.0596,-0.59069 l -0.68281,-3.79343 a 0.92126004,0.92126004 0 0 0 -0.24929,-0.54191 z m 2.01594,3.50621 0.34682,-0.0704 c 0.46064,-0.0976 0.29806,-0.77495 0.29806,-0.77495 a 11.06054,11.06054 0 0 0 -0.24386,-1.26266 0.50398344,0.50398344 0 0 0 -0.54192,-0.37935 l -0.30889,0.065 z"
       id="path18073"
       style="fill:#ffffff;stroke-width:0.541917" />
    <path
       class="cls-1"
       d="m 150.64093,149.36235 2.05387,-0.48231 c 0,0 1.08384,-0.27638 1.52279,1.17054 a 11.342337,11.342337 0 0 1 0.46063,1.90755 c 0,0 0.41185,1.62575 -0.75869,1.94007 l -0.80204,0.20051 0.0921,0.42269 c 0,0 0.0759,0.3956 0.2818,0.54192 l 0.27096,1.14345 -1.49027,0.33598 -0.27096,-1.14344 c 0,0 0.13548,-0.10838 0.0325,-0.59611 l -0.86165,-3.75007 a 0.92126004,0.92126004 0 0 0 -0.2818,-0.54192 z m 2.16767,3.40324 0.34141,-0.0867 c 0.45521,-0.11922 0.26554,-0.78578 0.26554,-0.78578 a 11.228534,11.228534 0 0 0 -0.30889,-1.25183 0.49856424,0.49856424 0 0 0 -0.54192,-0.35224 l -0.30347,0.0759 z"
       id="path18075"
       style="fill:#ffffff;stroke-width:0.541917" />
    <path
       class="cls-1"
       d="m 157.96224,147.55776 2.16767,-0.70449 a 1.0838353,1.0838353 0 0 1 1.30602,0.57443 4.0427058,4.0427058 0 0 1 0.54192,1.43066 c 0,0 0.26554,0.8183 -0.27638,1.23016 l 0.0596,0.17883 a 0.82913403,0.82913403 0 0 1 0.84539,0.64488 c 0.24387,0.72075 0.31432,0.92126 0.31432,0.92126 0,0 0.13005,0.40644 0.35224,0.47147 l 0.3685,1.08383 -1.26808,0.4227 a 11.672907,11.672907 0 0 1 -0.48231,-1.21931 l -0.31431,-0.94294 c 0,0 -0.24386,-0.60695 -0.68282,-0.46063 l -0.21676,0.0759 0.40101,1.20305 c 0,0 0.11381,0.34683 0.3089,0.43354 l 0.37392,1.11093 -1.4415,0.48773 -0.38476,-1.08384 c 0,0 0.13006,-0.0921 0,-0.54192 l -1.24099,-3.73923 a 0.6719779,0.6719779 0 0 0 -0.31432,-0.44437 z m 2.28147,2.53076 0.31431,-0.10297 c 0.34683,-0.12464 0.29264,-0.54192 0.26554,-0.63946 a 2.942613,2.942613 0 0 0 -0.29263,-0.80204 0.47688754,0.47688754 0 0 0 -0.54192,-0.27096 l -0.32515,0.1138 z"
       id="path18077"
       style="fill:#ffffff;stroke-width:0.541917" />
    <path
       class="cls-1"
       d="m 100.37807,132.97476 -1.625757,0.95919 2.059287,3.04558 8.1667,1.20847 c -0.54192,-1.01338 -1.01339,-2.02677 -1.47402,-3.05099 z"
       id="path18079"
       style="fill:#ffffff;stroke-width:0.541917" />
    <path
       class="cls-1"
       d="m 101.40771,127.20333 -2.850487,0.6503 2.097217,4.17277 6.30251,1.91839 c -0.6774,-1.57156 -1.28435,-3.15396 -1.82085,-4.72552 z"
       id="path18081"
       style="fill:#ffffff;stroke-width:0.541917" />
    <path
       class="cls-1"
       d="m 109.50396,139.22307 -8.77907,-1.26809 -1.306018,1.40898 2.059288,2.02678 9.08796,-0.26012 c -0.11922,-0.20051 -0.23303,-0.40102 -0.34683,-0.60153 -0.24386,-0.43354 -0.4823,-0.86707 -0.71533,-1.30602 z"
       id="path18083"
       style="fill:#ffffff;stroke-width:0.541917" />
    <path
       class="cls-1"
       d="m 168.76808,132.97476 1.62575,0.95919 -2.05929,3.04558 -8.1667,1.20847 c 0.54192,-1.01338 1.01339,-2.02677 1.47402,-3.05099 z"
       id="path18085"
       style="fill:#ffffff;stroke-width:0.541917" />
    <path
       class="cls-1"
       d="m 167.73843,127.20333 2.85049,0.6503 -2.09722,4.17277 -6.28625,1.91839 c 0.68282,-1.57156 1.28435,-3.15396 1.82085,-4.72552 z"
       id="path18087"
       style="fill:#ffffff;stroke-width:0.541917" />
    <path
       class="cls-1"
       d="m 159.64218,139.22307 8.78449,-1.26809 1.30602,1.40898 -2.06471,2.02678 -9.08796,-0.26012 c 0.11923,-0.20051 0.23303,-0.40102 0.34683,-0.60153 0.24386,-0.43354 0.48231,-0.86707 0.71533,-1.30602 z"
       id="path18089"
       style="fill:#ffffff;stroke-width:0.541917" />
    <path
       class="cls-1"
       d="m 111.4657,142.65341 c -0.0379,-0.0596 -0.0759,-0.11923 -0.10838,-0.17884 l -6.05322,1.38731 q 3.50621,1.40357 7.15873,2.46031 l -1.52279,-2.45489 z"
       id="path18091"
       style="fill:#ffffff;stroke-width:0.541917" />
    <path
       class="cls-1"
       d="m 156.57493,146.36012 a 75.868474,75.868474 0 0 0 7.28337,-2.49824 l -6.06948,-1.38731 -0.16799,0.27096 0.50398,1.12177 z"
       id="path18093"
       style="fill:#ffffff;stroke-width:0.541917" />
    <path
       class="cls-1"
       d="m 116.98784,145.89407 a 45.109228,45.109228 0 0 1 -4.79055,-1.59323 l 1.49569,2.35192 c 1.38731,0.3685 2.90468,0.73159 4.5196,1.08383 z"
       id="path18095"
       style="fill:#ffffff;stroke-width:0.541917" />
    <path
       class="cls-1"
       d="m 156.85131,144.30084 a 44.404735,44.404735 0 0 1 -4.79597,1.59323 l -1.23558,1.84252 c 1.62576,-0.33599 3.12687,-0.69365 4.5196,-1.08383 z"
       id="path18097"
       style="fill:#ffffff;stroke-width:0.541917" />
    <path
       class="cls-1"
       d="m 152.83028,93.485216 -3.38157,-5.381243 a 10.589071,10.589071 0 0 0 3.54414,-2.227282 17.298012,17.298012 0 0 1 -5.72265,0.541918 c 1.37105,-0.379342 5.64679,-2.416953 6.94739,-4.676749 a 22.879764,22.879764 0 0 1 -5.56008,0.688235 c -3.64168,0 -4.12941,-1.387309 -14.08986,-1.387309 -9.96044,0 -10.45901,1.387309 -14.08986,1.387309 a 22.879764,22.879764 0 0 1 -5.54381,-0.699074 c 1.3006,2.259797 5.57633,4.297407 6.94738,4.67675 a 17.298012,17.298012 0 0 1 -5.72265,-0.541918 10.589071,10.589071 0 0 0 3.53872,2.227282 l -3.3924,5.392081 -12.62668,3.381568 v 16.859056 c 0,8.09083 2.70958,17.38472 7.67355,26.15837 0.24928,0.43895 0.50398,0.86707 0.75868,1.3006 l 0.62863,-1.40357 a 66.244015,66.244015 0 0 1 -3.83678,-7.78194 c -0.26554,-0.6503 -0.54192,-1.3006 -0.7641,-1.94548 a 53.573982,53.573982 0 0 1 -2.46573,-8.76281 v 0 a 40.893108,40.893108 0 0 1 -0.74243,-7.58685 V 97.825977 l 12.20941,-3.251506 17.42807,10.041729 17.42807,-10.057987 12.06309,3.251506 -29.49116,16.994541 v 2.38985 l 29.63206,-17.0975 v 10.18805 l -29.63206,17.09751 v 2.38985 l 29.63206,-17.0975 v 1.05132 a 42.719371,42.719371 0 0 1 -1.22473,9.83581 l -28.40733,16.39301 v 2.38985 l 27.6378,-15.95405 a 62.66194,62.66194 0 0 1 -5.82019,13.37994 l 0.54192,1.4957 c 0.27095,-0.45521 0.54191,-0.91585 0.80745,-1.38189 5.01274,-8.77365 7.72233,-18.06754 7.72233,-26.15837 V 96.866784 Z"
       id="path18099"
       style="fill:#ffffff;stroke-width:0.541917" />
    <path
       class="cls-1"
       d="m 139.98683,159.52872 q -2.57411,2.23812 -5.41918,4.33534 -2.84507,-2.07554 -5.41918,-4.33534 c 0,0 -0.87248,-0.0434 -2.05928,-0.1409 a 84.230263,84.230263 0 0 0 6.73604,5.46795 l 0.73158,0.54192 0.73159,-0.54192 a 83.059722,83.059722 0 0 0 6.73604,-5.46795 c -1.17054,0.0975 -2.03761,0.1409 -2.03761,0.1409 z"
       id="path18101"
       style="fill:#ffffff;stroke-width:0.541917" />
    <path
       class="cls-1"
       d="m 142.74519,147.65531 v 0 l -2.70959,1.57156 c 1.86962,-0.13006 3.67962,-0.32515 5.41918,-0.54192 l 3.45201,-1.98884 c -1.99425,0.36851 -4.0427,0.72075 -6.1616,0.9592 z"
       id="path18103"
       style="fill:#ffffff;stroke-width:0.541917" />
    <path
       class="cls-2"
       d="m 132.86061,92.016619 c -3.79342,0.959194 -4.37327,0.932099 -6.3296,0.254702 -1.95632,-0.677398 -2.28147,-2.460307 -1.26267,-4.48166 z"
       id="path18105"
       style="fill:#d20a11;stroke-width:0.541917" />
    <path
       class="cls-2"
       d="m 136.27469,92.016619 c 3.79343,0.959194 4.37328,0.932099 6.3296,0.254702 1.95633,-0.677398 2.28147,-2.460307 1.26267,-4.48166 z"
       id="path18107"
       style="fill:#d20a11;stroke-width:0.541917" />
    <path
       class="cls-2"
       d="m 164.06423,97.788042 -12.06309,-3.251506 -17.43349,10.079664 -28.88421,16.67481 a 53.573982,53.573982 0 0 0 2.46573,8.76281 c 0.24386,0.64488 0.49856,1.29518 0.7641,1.94548 l 25.65438,-14.80519 v -2.38985 z"
       id="path18109"
       style="fill:#d20a11;stroke-width:0.541917" />
    <path
       class="cls-2"
       d="m 139.98683,159.52872 q -2.70959,0.16258 -5.41918,0.16258 -2.70959,0 -5.41918,-0.16258 2.5687,2.23812 5.41918,4.33534 2.85049,-2.0918 5.41918,-4.33534 z"
       id="path18111"
       style="fill:#d20a11;stroke-width:0.541917" />
    <path
       class="cls-2"
       d="m 150.60842,146.27342 c -0.54192,0.14089 -1.14345,0.27096 -1.72872,0.3956 l -3.52247,2.03219 0.70991,-0.0921 0.2818,-0.0434 c 0.70992,-0.10297 1.41983,-0.21677 2.12432,-0.33599 h 0.0867 c 0.28722,-0.0488 0.56901,-0.10839 0.85081,-0.16258 z"
       id="path18113"
       style="fill:#d20a11;stroke-width:0.541917" />
    <path
       class="cls-2"
       d="m 134.56765,142.34451 v -2.38985 l 28.40733,-16.39301 a 42.719371,42.719371 0 0 0 1.22473,-9.83581 v -1.05132 l -47.7863,27.57819 a 58.689684,58.689684 0 0 0 17.28717,2.59579 z"
       id="path18115"
       style="fill:#d20a11;stroke-width:0.541917" />
    <path
       class="cls-2"
       d="m 125.54472,147.55776 a 63.501913,63.501913 0 0 1 -7.10996,-1.28434 l 1.1868,1.75581 0.96462,0.18425 h 0.0705 c 0.68282,0.11922 1.37105,0.22761 2.05929,0.33057 l 0.39017,0.0542 c 0.16258,0.0271 0.33057,0.0434 0.49857,0.065 z"
       id="path18117"
       style="fill:#d20a11;stroke-width:0.541917" />
    <path
       class="cls-3"
       d="m 117.15042,94.558213 -12.20941,3.251506 v 15.899861 a 40.893108,40.893108 0 0 0 0.74243,7.58685 l 28.88421,-16.68023 z"
       id="path18119"
       style="fill:#03506b;stroke-width:0.541917" />
    <path
       class="cls-3"
       d="m 134.56765,127.38217 29.63206,-17.09751 v -10.18805 l -55.2756,31.90269 a 66.244015,66.244015 0 0 0 3.83677,7.78194 l 0.35225,-0.7912 c 1.04048,0.46063 2.16767,0.87791 3.31112,1.26267 l 18.1434,-10.48069 z"
       id="path18121"
       style="fill:#03506b;stroke-width:0.541917" />
    <path
       class="cls-3"
       d="m 133.70058,142.8485 h 0.83456 c 7.8578,0 15.17369,-1.27351 20.76086,-3.59292 0.21677,-0.0867 0.54192,-0.2547 0.76411,-0.35224 l 0.34141,0.85622 a 62.66194,62.66194 0 0 0 5.80393,-13.3691 l -27.6378,15.95405 v 0 z"
       id="path18123"
       style="fill:#03506b;stroke-width:0.541917" />
    <path
       class="cls-3"
       d="m 134.53514,148.1051 a 73.435263,73.435263 0 0 1 -8.99042,-0.54192 l -1.94006,1.12719 c 0.50398,0.0704 1.00796,0.1409 1.51737,0.20051 h 0.24928 c 0.70991,0.0813 1.42524,0.15174 2.16767,0.21677 v 0 c 0.7641,0.065 1.53363,0.11922 2.30315,0.16257 h 0.0542 q 2.33025,0.13006 4.69843,0.13006 2.36818,0 4.69842,-0.13006 h 0.0434 c 0.23303,0 0.46063,-0.0325 0.69365,-0.0488 l 2.73669,-1.5824 a 72.351429,72.351429 0 0 1 -8.23173,0.46605 z"
       id="path18125"
       style="fill:#03506b;stroke-width:0.541917" />
    <path
       class="cls-1"
       d="m 129.14847,114.06725 c -0.14089,-2.78546 -1.94548,-3.69588 -4.63339,-4.51418 -2.31941,-0.71533 -3.46286,-1.32769 -3.55498,-3.09434 a 2.4169528,2.4169528 0 0 1 2.4007,-2.70959 c 2.29231,-0.11381 3.44117,1.95632 4.07521,3.21899 l 0.59069,-0.38476 -1.69078,-4.69843 c -0.12464,1.45234 -0.80203,1.52821 -0.95919,1.53363 a 2.8884211,2.8884211 0 0 1 -0.91042,-0.16258 5.0615109,5.0615109 0 0 0 -1.33854,-0.16257 c -1.81,0.0921 -3.52246,1.7829 -3.3924,4.38411 0.16257,3.25151 2.87216,4.12399 4.20528,4.53585 2.16767,0.69907 3.69588,1.31144 3.79342,3.01306 0.0704,1.41441 -0.91042,3.00765 -2.59578,3.08893 a 13.764709,13.764709 0 0 1 -5.51673,-0.85623 12.697131,12.697131 0 0 0 3.20816,-3.63626 l -0.35767,-0.34683 a 11.223115,11.223115 0 0 1 -4.05896,3.44118 11.526589,11.526589 0 0 1 -4.14567,-3.44118 l -0.37393,0.38476 a 12.035991,12.035991 0 0 0 3.25151,3.59292 10.166375,10.166375 0 0 1 -2.25438,0.33057 c -3.17022,0.17341 -5.01815,-3.68505 -5.2566,-7.19125 -0.10838,-1.57698 0.0488,-3.50621 0.58527,-4.64966 a 3.1702184,3.1702184 0 0 1 2.59579,-2.03219 3.8747113,3.8747113 0 0 1 2.70959,1.12719 7.5868474,7.5868474 0 0 1 1.65285,2.12432 l 0.60152,-0.37934 -1.79916,-4.67675 a 1.8371009,1.8371009 0 0 1 -0.45521,1.31144 0.89416416,0.89416416 0 0 1 -0.47147,0.21134 2.3952761,2.3952761 0 0 1 -0.95378,-0.13548 4.4220482,4.4220482 0 0 0 -1.57698,-0.18425 c -3.11603,0.21677 -5.18615,4.48708 -4.87726,8.86578 0.33599,4.96396 3.4466,7.2075 6.26457,7.31047 a 8.4322391,8.4322391 0 0 0 4.47082,-1.08384 22.419134,22.419134 0 0 0 1.82626,1.30602 1.8371009,1.8371009 0 0 1 1.82085,-0.76952 8.2967595,8.2967595 0 0 1 1.1597,0.14632 9.570266,9.570266 0 0 0 2.16767,0.0542 c 1.83168,-0.0867 3.91807,-1.96716 3.79342,-4.87184 z"
       id="path18127"
       style="fill:#ffffff;stroke-width:0.541917" />
    <polygon
       class="cls-1"
       points="82.02,141.6 84.83,144.63 82.99,140.9 86.55,139.31 82.62,139.77 82.02,136.03 81.43,139.77 77.49,139.31 81.06,140.9 79.22,144.63 "
       id="polygon18129"
       transform="matrix(0.54191768,0,0,0.54191768,69.537531,58.190118)"
       style="fill:#ffffff" />
    <polygon
       class="cls-1"
       points="90.65,136.62 93.46,139.65 91.62,135.92 95.18,134.33 91.24,134.79 90.65,131.06 90.06,134.79 86.12,134.33 89.68,135.92 87.84,139.65 "
       id="polygon18131"
       transform="matrix(0.54191768,0,0,0.54191768,69.537531,58.190118)"
       style="fill:#ffffff" />
    <polygon
       class="cls-1"
       points="99.28,131.64 102.08,134.67 100.24,130.94 103.81,129.35 99.87,129.81 99.28,126.08 98.68,129.81 94.75,129.35 98.31,130.94 96.47,134.67 "
       id="polygon18133"
       transform="matrix(0.54191768,0,0,0.54191768,69.537531,58.190118)"
       style="fill:#ffffff" />
    <polygon
       class="cls-1"
       points="107.9,126.66 110.71,129.69 108.87,125.96 112.43,124.37 108.5,124.83 107.9,121.1 107.31,124.83 103.37,124.37 106.94,125.96 105.09,129.69 "
       id="polygon18135"
       transform="matrix(0.54191768,0,0,0.54191768,69.537531,58.190118)"
       style="fill:#ffffff" />
    <polygon
       class="cls-1"
       points="116.53,121.68 119.34,124.71 117.5,120.98 121.06,119.39 117.12,119.85 116.53,116.12 115.94,119.85 112,119.39 115.56,120.98 113.72,124.71 "
       id="polygon18137"
       transform="matrix(0.54191768,0,0,0.54191768,69.537531,58.190118)"
       style="fill:#ffffff" />
    <polygon
       class="cls-1"
       points="125.16,116.7 127.97,119.73 126.12,116 129.69,114.41 125.75,114.87 125.16,111.14 124.56,114.87 120.63,114.41 124.19,116 122.35,119.73 "
       id="polygon18139"
       transform="matrix(0.54191768,0,0,0.54191768,69.537531,58.190118)"
       style="fill:#ffffff" />
    <polygon
       class="cls-1"
       points="133.78,111.73 136.59,114.75 134.75,111.02 138.31,109.43 134.38,109.89 133.78,106.16 133.19,109.89 129.25,109.43 132.82,111.02 130.97,114.75 "
       id="polygon18141"
       transform="matrix(0.54191768,0,0,0.54191768,69.537531,58.190118)"
       style="fill:#ffffff" />
    <polygon
       class="cls-1"
       points="142.41,106.75 145.22,109.77 143.38,106.05 146.94,104.45 143,104.91 142.41,101.18 141.81,104.91 137.88,104.45 141.44,106.05 139.6,109.77 "
       id="polygon18143"
       transform="matrix(0.54191768,0,0,0.54191768,69.537531,58.190118)"
       style="fill:#ffffff" />
    <polygon
       class="cls-1"
       points="151.04,101.77 153.84,104.8 152,101.07 155.56,99.48 151.63,99.93 151.04,96.2 150.44,99.93 146.51,99.48 150.07,101.07 148.23,104.8 "
       id="polygon18145"
       transform="matrix(0.54191768,0,0,0.54191768,69.537531,58.190118)"
       style="fill:#ffffff" />
    <polygon
       class="cls-1"
       points="159.66,96.79 162.47,99.82 160.63,96.09 164.19,94.5 160.26,94.95 159.66,91.22 159.07,94.95 155.13,94.5 158.7,96.09 156.85,99.82 "
       id="polygon18147"
       transform="matrix(0.54191768,0,0,0.54191768,69.537531,58.190118)"
       style="fill:#ffffff" />
    <polygon
       class="cls-1"
       points="168.29,91.81 171.1,94.84 169.25,91.11 172.82,89.52 168.88,89.98 168.29,86.24 167.69,89.98 163.76,89.52 167.32,91.11 165.48,94.84 "
       id="polygon18149"
       transform="matrix(0.54191768,0,0,0.54191768,69.537531,58.190118)"
       style="fill:#ffffff" />
  </g>
</svg>
