<?xml version="1.0" encoding="UTF-8" standalone="no"?>
<svg
   xmlns:dc="http://purl.org/dc/elements/1.1/"
   xmlns:cc="http://creativecommons.org/ns#"
   xmlns:rdf="http://www.w3.org/1999/02/22-rdf-syntax-ns#"
   xmlns:svg="http://www.w3.org/2000/svg"
   xmlns="http://www.w3.org/2000/svg"
   xmlns:sodipodi="http://sodipodi.sourceforge.net/DTD/sodipodi-0.dtd"
   xmlns:inkscape="http://www.inkscape.org/namespaces/inkscape"
   width="90.222916mm"
   height="77.704567mm"
   viewBox="0 0 90.222916 77.704567"
   version="1.1"
   id="svg226018"
   inkscape:version="1.0.1 (3bc2e813f5, 2020-09-07)"
   sodipodi:docname="Kashiwa Reyol logo.svg">
  <defs
     id="defs226012" />
  <sodipodi:namedview
     id="base"
     pagecolor="#ffffff"
     bordercolor="#666666"
     borderopacity="1.0"
     inkscape:pageopacity="0.0"
     inkscape:pageshadow="2"
     inkscape:zoom="0.35"
     inkscape:cx="204.78571"
     inkscape:cy="312.55755"
     inkscape:document-units="mm"
     inkscape:current-layer="layer1"
     inkscape:document-rotation="0"
     showgrid="false"
     inkscape:window-width="1267"
     inkscape:window-height="728"
     inkscape:window-x="78"
     inkscape:window-y="0"
     inkscape:window-maximized="0" />
  <metadata
     id="metadata226015">
    <rdf:RDF>
      <cc:Work
         rdf:about="">
        <dc:format>image/svg+xml</dc:format>
        <dc:type
           rdf:resource="http://purl.org/dc/dcmitype/StillImage" />
        <dc:title></dc:title>
      </cc:Work>
    </rdf:RDF>
  </metadata>
  <g
     inkscape:label="Layer 1"
     inkscape:groupmode="layer"
     id="layer1"
     transform="translate(-51.650447,-65.469147)">
    <path
       class="cls-1"
       d="m 139.34493,104.32143 c 0,0.88242 -0.96499,0.94434 -1.31589,0.98046 -0.3509,0.0361 -9.44856,1.48618 -9.44856,1.48618 0.55216,0.0516 7.37411,0.51603 7.82822,0.51603 1.71323,0 3.29229,1.24364 4.09214,2.47696 1.84224,2.84334 2.12089,7.53923 -0.98562,10.64575 -0.68633,0.68632 -1.66679,1.07335 -3.1478,1.07335 h -4.85071 a 38.702454,38.702454 0 0 1 -69.509609,0 h -4.850708 c -1.481014,0 -2.461476,-0.38703 -3.147799,-1.07335 -3.096197,-3.09619 -2.82786,-7.80241 -0.985623,-10.64575 0.799851,-1.23332 2.378911,-2.47696 4.09214,-2.47696 0.454108,0 7.276061,-0.51603 7.828216,-0.51603 0,0 -9.097657,-1.4449 -9.448559,-1.48618 -0.350902,-0.0413 -1.315883,-0.0981 -1.315883,-0.98046 0,-0.88242 0.964981,-0.94434 1.315883,-0.98046 0.350902,-0.0361 9.448559,-1.48618 9.448559,-1.48618 -0.552155,-0.0516 -7.374108,-0.51603 -7.828216,-0.51603 -1.713229,0 -3.292289,-1.24364 -4.09214,-2.476957 -1.842237,-2.843339 -2.120894,-7.539237 0.985623,-10.645755 0.686323,-0.686324 1.666785,-1.073349 3.147799,-1.073349 h 4.850708 a 38.702454,38.702454 0 0 1 69.509609,0 h 4.85071 c 1.48101,0 2.46147,0.387025 3.1478,1.073349 3.09619,3.096196 2.82786,7.802416 0.98562,10.645755 -0.79985,1.233317 -2.37891,2.476957 -4.09214,2.476957 -0.45411,0 -7.27606,0.51603 -7.82822,0.51603 0,0 9.09766,1.4449 9.44856,1.48618 0.3509,0.0413 1.31589,0.0981 1.31589,0.98046 z"
       id="path225300"
       style="fill:#ffffff;stroke-width:0.516033" />
    <path
       d="m 132.82743,104.32143 -20.64131,2.58016 c -0.0413,0.2477 -0.0929,0.51604 -0.14965,0.73277 1.03207,0.0877 2.2241,0.38186 2.90527,1.10947 a 11.19791,11.19791 0 0 1 1.3004,1.88352 2.8743024,2.8743024 0 0 0 1.6255,1.08367 3.9992535,3.9992535 0 0 0 2.27571,-0.23738 5.8930937,5.8930937 0 0 1 -1.06303,1.40361 3.4109763,3.4109763 0 0 1 -2.62145,0.86694 4.73202,4.73202 0 0 1 -2.29634,-0.97531 3.8392836,3.8392836 0 0 0 -2.12606,-0.70696 5.3460991,5.3460991 0 0 0 -2.03833,0.36639 c -0.20125,0.32509 -0.42314,0.64504 -0.6502,0.94949 1.94545,1.06819 2.45632,2.51824 2.5234,3.66384 a 3.2458459,3.2458459 0 0 0 3.34905,3.16328 4.2056666,4.2056666 0 0 1 -2.82785,1.03206 4.1282617,4.1282617 0 0 1 -2.84851,-1.82159 3.9992535,3.9992535 0 0 0 -1.14559,-1.41909 5.5783139,5.5783139 0 0 0 -2.82786,-1.03207 c -0.27349,0.18577 -0.55215,0.36122 -0.84113,0.51603 1.38297,1.75451 1.29008,3.29229 0.89274,4.37596 a 3.2561665,3.2561665 0 0 0 1.84223,4.22631 4.1747048,4.1747048 0 0 1 -3.00847,-0.15481 4.1282617,4.1282617 0 0 1 -1.90932,-2.79174 3.8702454,3.8702454 0 0 0 -0.51603,-1.75451 5.5576724,5.5576724 0 0 0 -2.218943,-2.06413 l -0.356061,0.0568 -2.688531,12.43123 -2.688529,-12.43123 -0.356063,-0.0568 a 5.4905881,5.4905881 0 0 0 -2.218942,2.06413 3.8650852,3.8650852 0 0 0 -0.516033,1.75451 4.1282617,4.1282617 0 0 1 -1.904161,2.79174 4.1747048,4.1747048 0 0 1 -3.008471,0.15481 3.2510061,3.2510061 0 0 0 1.837079,-4.22631 c -0.392187,-1.08367 -0.516033,-2.62145 0.897895,-4.37596 -0.288978,-0.17029 -0.567634,-0.34574 -0.841134,-0.51603 a 5.5628328,5.5628328 0 0 0 -2.827859,1.03207 3.9424901,3.9424901 0 0 0 -1.145593,1.41909 4.1282617,4.1282617 0 0 1 -2.853661,1.82159 4.2108271,4.2108271 0 0 1 -2.827858,-1.03206 3.2510061,3.2510061 0 0 0 3.354212,-3.16328 c 0.06709,-1.1456 0.577956,-2.58017 2.5234,-3.66384 -0.227054,-0.30445 -0.448947,-0.6244 -0.655362,-0.94949 a 5.3048165,5.3048165 0 0 0 -1.997046,-0.36639 3.828963,3.828963 0 0 0 -2.100252,0.69148 4.73202,4.73202 0 0 1 -2.286026,0.98047 3.4109763,3.4109763 0 0 1 -2.621446,-0.86694 5.7589253,5.7589253 0 0 1 -1.063027,-1.40361 3.9992535,3.9992535 0 0 0 2.275705,0.23738 2.8743024,2.8743024 0 0 0 1.625502,-1.08367 11.19791,11.19791 0 0 1 1.300403,-1.88352 c 0.676002,-0.72761 1.862878,-1.03207 2.905265,-1.10947 -0.05676,-0.24254 -0.108368,-0.48507 -0.149651,-0.73277 l -20.682591,-2.56984 20.672269,-2.58016 c 0.04128,-0.2477 0.09289,-0.51604 0.149651,-0.73277 -1.032065,-0.0877 -2.229262,-0.38187 -2.905265,-1.109469 a 11.19791,11.19791 0 0 1 -1.300403,-1.883522 2.8743024,2.8743024 0 0 0 -1.625502,-1.083667 3.9992535,3.9992535 0 0 0 -2.275705,0.237374 5.8569714,5.8569714 0 0 1 1.06303,-1.403609 3.4109763,3.4109763 0 0 1 2.631765,-0.856613 4.73202,4.73202 0 0 1 2.296345,0.975302 3.8702454,3.8702454 0 0 0 2.089933,0.696643 5.3048165,5.3048165 0 0 0 2.03317,-0.366382 c 0.206412,-0.325102 0.428307,-0.639882 0.655362,-0.9495 -1.945444,-1.068189 -2.456318,-2.51824 -2.5234,-3.663835 a 3.2510061,3.2510061 0 0 0 -3.354213,-3.163281 4.2108271,4.2108271 0 0 1 2.827859,-1.032066 4.1282617,4.1282617 0 0 1 2.853661,1.821596 3.9424901,3.9424901 0 0 0 1.145593,1.41909 5.5628328,5.5628328 0 0 0 2.827858,1.032065 c 0.273497,-0.185772 0.552157,-0.361222 0.841135,-0.516033 -1.388129,-1.75451 -1.290082,-3.292287 -0.897898,-4.375957 a 3.2510061,3.2510061 0 0 0 -1.837077,-4.226308 4.1747048,4.1747048 0 0 1 3.008472,0.15481 4.1282617,4.1282617 0 0 1 1.904161,2.791738 3.8650852,3.8650852 0 0 0 0.516033,1.75451 5.4905881,5.4905881 0 0 0 2.218938,2.064131 l 0.356063,-0.05676 2.688532,-12.431228 2.688529,12.431228 0.356063,0.05676 a 5.5576724,5.5576724 0 0 0 2.21894,-2.064131 3.8702454,3.8702454 0 0 0 0.51603,-1.75451 4.1282617,4.1282617 0 0 1 1.90932,-2.791738 4.1747048,4.1747048 0 0 1 3.00848,-0.15481 3.2561665,3.2561665 0 0 0 -1.84224,4.226308 c 0.39734,1.08367 0.51603,2.621447 -0.89274,4.375957 0.28898,0.170292 0.56764,0.345745 0.84114,0.516033 a 5.5783139,5.5783139 0 0 0 2.82785,-1.032065 3.9992535,3.9992535 0 0 0 1.1456,-1.41909 4.1282617,4.1282617 0 0 1 2.8485,-1.821596 4.2056666,4.2056666 0 0 1 2.82786,1.032066 3.2458459,3.2458459 0 0 0 -3.34906,3.163281 c -0.0671,1.145595 -0.57795,2.580165 -2.5234,3.663835 0.22706,0.309618 0.44895,0.624398 0.6502,0.9495 a 5.3460991,5.3460991 0 0 0 2.03834,0.366382 3.8857264,3.8857264 0 0 0 2.10025,-0.691484 4.73202,4.73202 0 0 1 2.29634,-0.975301 3.4109763,3.4109763 0 0 1 2.62145,0.866936 5.9963002,5.9963002 0 0 1 1.06303,1.403607 3.9992535,3.9992535 0 0 0 -2.27571,-0.237374 2.8743024,2.8743024 0 0 0 -1.6255,1.083667 11.19791,11.19791 0 0 1 -1.3004,1.883521 c -0.68117,0.727609 -1.86288,1.032069 -2.90527,1.109469 0.0568,0.24254 0.10837,0.48507 0.14965,0.73277 z"
       id="path225302"
       style="stroke-width:0.516033" />
    <ellipse
       class="cls-2"
       cx="96.663864"
       cy="104.32143"
       rx="14.371511"
       ry="14.098014"
       id="ellipse225304"
       style="fill:#ffed00;stroke-width:0.516033" />
    <path
       class="cls-3"
       d="m 88.815002,87.142699 a 4.2159872,4.2159872 0 0 0 -0.325101,-3.679314 c 1.455211,0.603761 1.692587,2.120895 1.821595,3.163282 0.103206,0.835972 1.073348,2.275705 2.255062,2.910424 a 15.480982,15.480982 0 0 0 -2.853661,1.099151 3.4470986,3.4470986 0 0 1 -0.897895,-3.493543 z"
       id="path225306"
       style="fill:#d51130;stroke-width:0.516033" />
    <path
       class="cls-3"
       d="M 82.663889,91.632184 A 4.2263081,4.2263081 0 0 0 80.9197,88.376018 c 1.548099,0 2.384071,1.284922 2.915584,2.193139 0.423149,0.722445 1.868038,1.666786 3.199403,1.790635 a 15.532585,15.532585 0 0 0 -2.193139,2.126054 3.4419384,3.4419384 0 0 1 -2.177659,-2.853662 z"
       id="path225308"
       style="fill:#d51130;stroke-width:0.516033" />
    <path
       class="cls-3"
       d="m 81.796956,100.12608 a 4.2314683,4.2314683 0 0 1 -1.795794,-0.433464 4.0869793,4.0869793 0 0 1 -1.496496,-1.620343 3.9063679,3.9063679 0 0 0 -1.145593,-1.346845 3.7721992,3.7721992 0 0 0 -1.584219,-0.670841 2.6111256,2.6111256 0 0 1 1.10431,-0.237376 c 1.548098,0.15997 1.950603,1.073348 3.447097,1.548098 a 4.5772102,4.5772102 0 0 0 2.66273,-0.06708 12.658283,12.658283 0 0 0 -1.192035,2.827861 z"
       id="path225310"
       style="fill:#d51130;stroke-width:0.516033" />
    <path
       class="cls-3"
       d="m 104.76041,87.142699 a 4.2159872,4.2159872 0 0 1 0.3251,-3.679314 c -1.45521,0.603761 -1.69259,2.120895 -1.82159,3.163282 -0.10321,0.835972 -1.07335,2.275705 -2.25507,2.910424 a 15.480982,15.480982 0 0 1 2.85366,1.099151 3.4470986,3.4470986 0 0 0 0.8979,-3.493543 z"
       id="path225312"
       style="fill:#d51130;stroke-width:0.516033" />
    <path
       class="cls-3"
       d="m 110.91152,91.632184 a 4.2263081,4.2263081 0 0 1 1.74419,-3.256166 c -1.5739,0 -2.38407,1.284922 -2.91558,2.193139 -0.42315,0.722445 -1.86804,1.666786 -3.19941,1.790635 a 15.532585,15.532585 0 0 1 2.19314,2.126054 3.4470986,3.4470986 0 0 0 2.17766,-2.853662 z"
       id="path225314"
       style="fill:#d51130;stroke-width:0.516033" />
    <path
       class="cls-3"
       d="m 96.787707,88.974616 a 16.363398,16.363398 0 0 1 1.821596,0.103206 l -1.821596,-8.019148 -1.821595,8.019148 a 16.363398,16.363398 0 0 1 1.821595,-0.103206 z"
       id="path225316"
       style="fill:#d51130;stroke-width:0.516033" />
    <path
       class="cls-3"
       d="m 111.77846,100.12608 a 4.2314683,4.2314683 0 0 0 1.79579,-0.433464 4.0869793,4.0869793 0 0 0 1.4965,-1.620343 3.8496042,3.8496042 0 0 1 1.14559,-1.346845 3.7721992,3.7721992 0 0 1 1.58422,-0.670841 2.6214463,2.6214463 0 0 0 -1.10947,-0.237376 c -1.5481,0.15997 -1.94545,1.073348 -3.44194,1.548098 a 4.5772102,4.5772102 0 0 1 -2.66273,-0.06708 12.658283,12.658283 0 0 1 1.19204,2.827861 z"
       id="path225318"
       style="fill:#d51130;stroke-width:0.516033" />
    <path
       class="cls-3"
       d="m 88.815002,121.50016 a 4.2159872,4.2159872 0 0 1 -0.325101,3.67931 c 1.455211,-0.60376 1.692587,-2.12089 1.821595,-3.16328 0.103206,-0.83597 1.073348,-2.2757 2.255062,-2.91042 a 15.480982,15.480982 0 0 1 -2.853661,-1.09915 3.4470986,3.4470986 0 0 0 -0.897895,3.49354 z"
       id="path225320"
       style="fill:#d51130;stroke-width:0.516033" />
    <path
       class="cls-3"
       d="m 82.663889,117.01067 a 4.2263081,4.2263081 0 0 1 -1.744189,3.25617 c 1.548099,0 2.384071,-1.28492 2.915584,-2.19314 0.423149,-0.72244 1.868038,-1.66162 3.199403,-1.79063 a 15.532585,15.532585 0 0 1 -2.193139,-2.12606 3.4419384,3.4419384 0 0 0 -2.177659,2.85366 z"
       id="path225322"
       style="fill:#d51130;stroke-width:0.516033" />
    <path
       class="cls-3"
       d="m 81.167395,104.32143 a 12.420908,12.420908 0 0 0 0.108368,1.64614 L 68.3027,104.32143 81.280923,102.67528 a 12.420908,12.420908 0 0 0 -0.113528,1.64615 z"
       id="path225324"
       style="fill:#d51130;stroke-width:0.516033" />
    <path
       class="cls-3"
       d="m 81.796956,108.51678 a 4.2314683,4.2314683 0 0 0 -1.795794,0.43346 4.0869793,4.0869793 0 0 0 -1.496496,1.62035 3.9063679,3.9063679 0 0 1 -1.145593,1.34684 3.7721992,3.7721992 0 0 1 -1.584219,0.67084 2.6111256,2.6111256 0 0 0 1.10431,0.23738 c 1.548098,-0.15997 1.950603,-1.07335 3.447097,-1.5481 a 4.5772102,4.5772102 0 0 1 2.66273,0.0671 12.658283,12.658283 0 0 1 -1.192035,-2.82786 z"
       id="path225326"
       style="fill:#d51130;stroke-width:0.516033" />
    <path
       class="cls-3"
       d="m 104.76041,121.50016 a 4.2159872,4.2159872 0 0 0 0.3251,3.67931 c -1.45521,-0.60376 -1.69259,-2.12089 -1.82159,-3.16328 -0.10321,-0.83597 -1.07335,-2.2757 -2.25507,-2.91042 a 15.480982,15.480982 0 0 0 2.85366,-1.09915 3.4470986,3.4470986 0 0 1 0.8979,3.49354 z"
       id="path225328"
       style="fill:#d51130;stroke-width:0.516033" />
    <path
       class="cls-3"
       d="m 110.91152,117.01067 a 4.2263081,4.2263081 0 0 0 1.74419,3.25617 c -1.5739,0 -2.38407,-1.28492 -2.91558,-2.19314 -0.42315,-0.72244 -1.86804,-1.66162 -3.19941,-1.79063 a 15.532585,15.532585 0 0 0 2.19314,-2.12606 3.4470986,3.4470986 0 0 1 2.17766,2.85366 z"
       id="path225330"
       style="fill:#d51130;stroke-width:0.516033" />
    <path
       class="cls-3"
       d="m 96.787707,119.66824 a 16.363398,16.363398 0 0 0 1.821596,-0.1032 l -1.821596,8.01915 -1.821595,-8.01915 a 16.363398,16.363398 0 0 0 1.821595,0.1032 z"
       id="path225332"
       style="fill:#d51130;stroke-width:0.516033" />
    <path
       class="cls-3"
       d="m 125.27271,104.32143 -12.97306,1.64614 a 12.555076,12.555076 0 0 0 0,-3.29229 z"
       id="path225334"
       style="fill:#d51130;stroke-width:0.516033" />
    <path
       class="cls-3"
       d="m 111.77846,108.51678 a 4.2314683,4.2314683 0 0 1 1.79579,0.43346 4.0869793,4.0869793 0 0 1 1.4965,1.62035 3.8496042,3.8496042 0 0 0 1.14559,1.34684 3.7721992,3.7721992 0 0 0 1.58422,0.67084 2.6214463,2.6214463 0 0 1 -1.10947,0.23738 c -1.5481,-0.15997 -1.94545,-1.07335 -3.44194,-1.5481 a 4.5772102,4.5772102 0 0 0 -2.66273,0.0671 12.658283,12.658283 0 0 0 1.19204,-2.82786 z"
       id="path225336"
       style="fill:#d51130;stroke-width:0.516033" />
    <path
       d="m 96.844471,95.636598 c 0.928857,-0.67084 3.539979,-1.868037 4.432719,-1.795793 2.35311,0.190934 4.55657,2.693691 5.03132,4.706218 a 4.8352265,4.8352265 0 0 1 -0.21674,3.271647 6.6000585,6.6000585 0 0 1 -5.37189,3.57611 3.3800142,3.3800142 0 0 1 2.47179,1.94544 11.223712,11.223712 0 0 1 0.62956,1.67195 c 0.34574,1.23331 1.07335,1.39845 1.64615,1.21267 a 2.7349736,2.7349736 0 0 0 1.2746,-1.32104 l 0.51603,0.38703 c -0.41283,1.99188 -1.15591,3.91668 -1.88352,4.72169 a 2.2808646,2.2808646 0 0 1 -1.64614,0.86694 3.3851747,3.3851747 0 0 1 -2.36343,-0.9495 4.7939441,4.7939441 0 0 1 -1.25396,-2.4718 29.800891,29.800891 0 0 0 -1.083671,-4.32951 c -0.221895,-0.51603 -0.479912,-1.34685 -1.450052,-1.27976 v 4.79394 a 3.2045632,3.2045632 0 0 0 0.799849,-0.64504 l 0.717285,0.54183 a 57.315756,57.315756 0 0 1 -4.912629,4.05086 1.3365248,1.3365248 0 0 1 -0.934019,0.14965 c -1.171395,-0.25802 -1.646145,-1.34169 -2.64209,-1.42941 a 2.4872777,2.4872777 0 0 0 -2.492436,1.21268 l -0.562477,-0.39219 a 5.975659,5.975659 0 0 1 0.392186,-0.99594 5.0209984,5.0209984 0 0 1 2.729812,-2.83818 5.6144361,5.6144361 0 0 1 2.791738,-0.25286 v -4.48432 h -1.212678 v -1.88868 h 1.207516 v -1.98673 c 0,-0.48507 -0.65536,-0.69664 -1.140431,-0.73792 v -0.46959 l 0.516033,-0.0258 c 1.455211,-0.0929 3.596748,-1.806119 4.009575,-4.81459 z"
       id="path225338"
       style="stroke-width:0.516033" />
    <path
       class="cls-2"
       d="m 95.239609,110.62219 c -0.149651,-0.0671 -0.356063,-0.15997 -0.60376,-0.2477 a 1.5480982,1.5480982 0 0 0 1.032065,-1.26428 v -8.2978 l 0.851456,-0.70697 v 10.83669 a 2.8588213,2.8588213 0 0 1 -1.279761,-0.31994 z"
       id="path225340"
       style="fill:#ffed00;stroke-width:0.516033" />
    <path
       class="cls-2"
       d="m 99.424632,103.39257 a 4.9384331,4.9384331 0 0 1 -1.842235,0.16513 v -4.210826 a 19.908542,19.908542 0 0 1 2.642083,-1.413928 c 0.26834,-0.118689 0.77405,0.376703 0.90822,0.562475 0.41283,0.562475 1.36749,2.064129 0.45411,3.400659 a 3.6947943,3.6947943 0 0 1 -2.162178,1.49649 z"
       id="path225342"
       style="fill:#ffed00;stroke-width:0.516033" />
    <path
       d="m 90.889452,102.89202 a 4.448202,4.448202 0 0 0 1.310724,-0.14965 v -0.73793 a 3.896047,3.896047 0 0 1 -1.192037,0.14965 c -0.779209,0 -2.291184,-0.7018 -1.950604,-2.02285 a 1.2591199,1.2591199 0 0 1 1.310725,-0.758564 7.5547191,7.5547191 0 0 0 1.821595,0.29414 2.9310658,2.9310658 0 0 0 2.218941,-0.913378 4.7113788,4.7113788 0 0 0 1.496494,-2.729815 2.8020576,2.8020576 0 0 1 -2.85882,0.242536 c -1.109472,-0.412825 -1.71323,-1.192036 -2.97235,-1.192036 a 3.2148838,3.2148838 0 0 0 -2.120895,1.032066 4.3811179,4.3811179 0 0 0 0.175453,5.609271 3.9321695,3.9321695 0 0 0 2.760774,1.17656 z"
       id="path225344"
       style="stroke-width:0.516033" />
    <path
       d="m 96.761905,78.235975 c 12.642805,0 21.755935,7.859178 25.094675,18.974524 a 3.9166885,3.9166885 0 0 0 1.29524,2.064131 c 0.60892,0.433467 0.69664,0.562475 1.82159,0.516033 1.12496,-0.04644 7.14706,-0.650201 8.92221,-0.825651 a 3.9631313,3.9631313 0 0 1 -1.64614,-2.378911 36.246139,36.246139 0 0 0 -70.975146,0 3.9631313,3.9631313 0 0 1 -1.666785,2.399551 c 1.775152,0.17545 7.797254,0.779208 8.922206,0.825653 1.124951,0.04644 1.212676,-0.08772 1.821596,-0.516032 a 3.9166885,3.9166885 0 0 0 1.295241,-2.064131 C 75.005964,86.095153 84.119103,78.235975 96.761905,78.235975 Z"
       id="path225346"
       style="stroke-width:0.516033" />
    <path
       d="m 60.711859,94.795467 0.06192,-0.237376 h -4.221148 c 0.278658,-1.300401 -0.0774,-3.576107 -0.443788,-4.592692 -0.08256,-0.232214 -0.227055,-0.185772 -0.371544,-0.04644 -2.182818,2.18282 -1.935122,5.609277 -0.660522,7.580521 0.479911,0.743087 1.367487,1.367488 2.064131,1.367488 a 3.0652344,3.0652344 0 0 0 1.924802,-0.691483 c 1.228158,-1.078511 1.475854,-2.750455 1.646145,-3.380015 z"
       id="path225348"
       style="stroke-width:0.516033" />
    <path
       d="m 57.156393,89.562893 c 0.345742,0.825651 0.696644,2.884624 0.516033,3.792841 h 3.46258 a 37.892284,37.892284 0 0 1 1.372647,-3.792841 z"
       id="path225350"
       style="stroke-width:0.516033" />
    <path
       d="m 132.83775,94.795467 c 0,-0.08257 -0.0464,-0.15997 -0.0671,-0.237376 h 4.24179 c -0.28382,-1.300401 0.0774,-3.576107 0.44379,-4.592692 0.0826,-0.232214 0.22705,-0.185772 0.36638,-0.04644 2.18282,2.18282 1.94029,5.609277 0.66053,7.580521 -0.47992,0.743087 -1.36233,1.367488 -2.03317,1.367488 A 3.0961962,3.0961962 0 0 1 134.52,98.175485 c -1.26428,-1.078511 -1.51713,-2.750455 -1.68226,-3.380015 z"
       id="path225352"
       style="stroke-width:0.516033" />
    <path
       d="m 136.38806,89.562893 a 9.004771,9.004771 0 0 0 -0.51603,3.792841 h -3.46259 a 39.218486,39.218486 0 0 0 -1.3778,-3.792841 z"
       id="path225354"
       style="stroke-width:0.516033" />
    <path
       d="m 96.761905,130.35012 c 12.642805,0 21.755935,-7.85918 25.094675,-18.97452 a 3.9166885,3.9166885 0 0 1 1.29524,-2.06413 c 0.60892,-0.43347 0.69664,-0.56248 1.82159,-0.51604 1.12496,0.0464 7.14706,0.65021 8.92221,0.82566 A 3.9631313,3.9631313 0 0 0 132.24948,112 a 36.246139,36.246139 0 0 1 -70.975146,0 3.9631313,3.9631313 0 0 0 -1.666785,-2.39956 c 1.775152,-0.17545 7.797254,-0.7792 8.922206,-0.82565 1.124951,-0.0464 1.212676,0.0877 1.821596,0.51604 a 3.9166885,3.9166885 0 0 1 1.295241,2.06413 c 3.359372,11.13598 12.472511,18.99516 25.115313,18.99516 z"
       id="path225356"
       style="stroke-width:0.516033" />
    <path
       d="m 60.711859,113.79063 0.06192,0.23737 h -4.221148 c 0.278658,1.30041 -0.0774,3.57611 -0.443788,4.5927 -0.08256,0.23221 -0.227055,0.18577 -0.371544,0.0464 -2.182818,-2.18282 -1.935122,-5.61444 -0.660522,-7.58568 0.479911,-0.73793 1.367487,-1.36233 2.064131,-1.36233 a 3.0394328,3.0394328 0 0 1 1.924802,0.69148 c 1.228158,1.05787 1.475854,2.75046 1.646145,3.38002 z"
       id="path225358"
       style="stroke-width:0.516033" />
    <path
       d="m 57.156393,119.0232 c 0.345742,-0.82565 0.696644,-2.88462 0.516033,-3.79284 h 3.46258 a 37.892284,37.892284 0 0 0 1.372647,3.79284 z"
       id="path225360"
       style="stroke-width:0.516033" />
    <path
       d="m 132.83775,113.79063 c 0,0.0826 -0.0464,0.15997 -0.0671,0.23737 h 4.24179 c -0.28382,1.30041 0.0774,3.57611 0.44379,4.5927 0.0826,0.23221 0.22705,0.18577 0.36638,0.0464 2.18282,-2.18282 1.94029,-5.61444 0.66053,-7.58568 -0.47992,-0.73793 -1.36233,-1.36233 -2.03317,-1.36233 a 3.0394328,3.0394328 0 0 0 -1.92997,0.69148 c -1.26428,1.05787 -1.51713,2.75046 -1.68226,3.38002 z"
       id="path225362"
       style="stroke-width:0.516033" />
    <path
       d="m 136.38806,119.0232 a 9.004771,9.004771 0 0 1 -0.51603,-3.79284 h -3.46259 a 39.218486,39.218486 0 0 1 -1.3778,3.79284 z"
       id="path225364"
       style="stroke-width:0.516033" />
    <path
       class="cls-2"
       d="m 71.223447,90.682684 v 0.0258 a 0.34574192,0.34574192 0 0 0 0.07224,0.361222 l 0.108366,0.129009 a 0.3044593,0.3044593 0 0 0 0.263178,0.123848 0.27865768,0.27865768 0 0 0 0.221893,-0.15481 l 1.465532,-2.327309 a 0.33026093,0.33026093 0 0 0 0,-0.33542 v 0 0 l -0.129008,-0.16513 a 0.31994028,0.31994028 0 0 0 -0.232214,-0.13417 0.3044593,0.3044593 0 0 0 -0.247695,0.113528 c -0.278659,0.273497 -0.304461,0.278659 -0.552156,0.123848 l -1.032066,-0.639881 h 1.919642 l 0.190931,-0.0258 c 0.516033,-0.06708 0.825654,-0.118687 1.032066,-0.459269 l 0.805013,-1.28492 0.09289,-0.15481 -0.113528,-0.13417 -0.242535,-0.154808 a 0.57279633,0.57279633 0 0 0 -0.448948,0 l -0.15481,0.04128 c -0.402506,0.0774 -2.095093,0.268335 -3.354213,0.33542 l -0.516033,-1.548098 a 2.8020576,2.8020576 0 0 1 -0.134167,-0.903058 c 0,-0.227054 0,-0.423145 -0.175451,-0.516032 l -0.232217,-0.144489 -0.154807,-0.09805 -0.09289,0.15481 -0.624399,0.995942 -0.04128,0.07224 v 0.07741 l 1.011424,2.910425 -1.068187,-0.665684 a 0.35606257,0.35606257 0 0 1 -0.180612,-0.459269 v 0 0 a 0.34574192,0.34574192 0 0 0 -0.07224,-0.361222 l -0.108367,-0.129008 a 0.31994028,0.31994028 0 0 0 -0.258017,-0.129009 0.30961962,0.30961962 0 0 0 -0.227054,0.154811 l -1.470693,2.358268 a 0.33026093,0.33026093 0 0 0 -0.0258,0.335423 v 0 0 l 0.129008,0.15997 a 0.29413867,0.29413867 0 0 0 0.47991,0 c 0.278658,-0.268338 0.304459,-0.278657 0.552155,-0.118687 l 3.349053,2.064131 a 0.35090224,0.35090224 0 0 1 0.175451,0.454107 z"
       id="path225366"
       style="fill:#ffed00;stroke-width:0.516033" />
    <path
       class="cls-2"
       d="m 82.457477,79.851157 c 0,0 -0.04644,-0.180611 -0.04644,-0.180611 v 0 a 0.29929897,0.29929897 0 0 0 -0.15997,-0.175452 0.34058159,0.34058159 0 0 0 -0.268338,0 c -0.258016,0.113528 -0.350901,0.09805 -0.712126,-0.123847 -1.413928,-0.763729 -3.01363,-1.718389 -4.283069,-2.580164 v 0 a 0.42830716,0.42830716 0 0 0 -0.546997,-0.07225 l -1.475853,1.135272 a 0.34574192,0.34574192 0 0 0 -0.154808,0.412827 c 0,0 0.06192,0.15481 0.06192,0.15481 v -0.03096 a 0.31477995,0.31477995 0 0 0 0.144489,0.221895 0.43862781,0.43862781 0 0 0 0.376703,0 0.51603272,0.51603272 0 0 1 0.242536,-0.0516 h 0.04128 c 0.13417,0 0.278659,0.04644 0.387024,0.361223 0,0 1.099151,3.581266 1.099151,3.581266 0.134167,0.459272 0.118687,0.474753 -0.06192,0.706967 a 0.42830716,0.42830716 0 0 0 -0.113528,0.423145 l 0.04128,0.123849 a 0.32510061,0.32510061 0 0 0 0.206414,0.232214 0.39734519,0.39734519 0 0 0 0.356063,-0.129008 l 0.04128,-0.03096 1.109469,-0.851453 a 0.35606257,0.35606257 0 0 0 0.103206,-0.397346 v 0 -0.113528 c -0.05676,-0.278656 -0.33542,-0.227055 -0.428307,-0.211574 -0.09289,0.01548 -0.206413,0.04128 -0.263176,-0.113527 0,0 -0.134167,-0.485072 -0.201252,-0.717286 l 1.212674,-0.94434 0.516033,0.299299 c 0.180613,0.123849 0.159973,0.175451 0.103209,0.319942 a 0.51603272,0.51603272 0 0 0 -0.04128,0.366382 l 0.05676,0.201253 a 0.28897834,0.28897834 0 0 0 0.479909,0.144489 l 2.002208,-1.548098 a 0.34058159,0.34058159 0 0 0 0.17545,-0.412826 z m -5.196448,-0.562476 1.032065,0.645041 -0.696644,0.516032 z"
       id="path225368"
       style="fill:#ffed00;stroke-width:0.516033" />
    <path
       class="cls-2"
       d="m 86.353525,73.927101 h -0.09289 c -0.810167,-0.149649 -1.176552,-0.232215 -1.295238,-0.686324 a 0.54183436,0.54183436 0 0 1 0.299299,-0.614079 0.59343764,0.59343764 0 0 1 0.655362,0.09289 l 0.05676,0.0516 c 0.309618,0.263177 0.454107,0.366383 0.593437,0.340582 a 0.20641309,0.20641309 0 0 0 0.139329,-0.113527 v 0 l 0.221893,-0.330261 v -0.0258 -0.03096 0 a 0.29929897,0.29929897 0 0 0 0,-0.201253 l -0.23737,-0.598598 v 0 c -0.08773,-0.294138 -0.417988,-0.283818 -0.655362,-0.278657 a 3.2819681,3.2819681 0 0 0 -1.212678,0.31994 c -1.795793,0.779209 -2.064131,1.868038 -1.75451,2.626606 a 1.8731988,1.8731988 0 0 0 1.604862,1.032066 l 0.190931,0.04128 0.516033,0.09805 c 0.815332,0.14965 1.186876,0.232215 1.357167,0.670843 a 0.83597303,0.83597303 0 0 1 -0.546995,1.032065 0.74308713,0.74308713 0 0 1 -0.696645,-0.129008 c -0.123849,-0.09289 -0.237374,-0.201253 -0.330261,-0.283818 -0.196093,-0.175451 -0.33542,-0.299299 -0.479909,-0.180611 l -0.268338,0.263176 a 0.33026093,0.33026093 0 0 0 0,0.407666 v 0.04644 l 0.330261,0.763729 c 0.144489,0.33026 0.283819,0.31994 0.737926,0.268336 a 5.9240558,5.9240558 0 0 0 1.403609,-0.428307 3.0961962,3.0961962 0 0 0 1.795796,-1.548098 1.6925873,1.6925873 0 0 0 -0.08257,-1.357166 c -0.335419,-0.753406 -1.083666,-1.032064 -2.249899,-1.248797 z"
       id="path225370"
       style="fill:#ffed00;stroke-width:0.516033" />
    <path
       class="cls-2"
       d="m 99.409152,75.511322 c -0.376704,-0.08773 -0.397344,-0.108368 -0.402506,-0.402506 l -0.06708,-3.94249 a 0.34574192,0.34574192 0 0 1 0.283816,-0.392185 v 0 0 a 0.34058159,0.34058159 0 0 0 0.263178,-0.258016 l 0.0516,-0.159971 A 0.30961962,0.30961962 0 0 0 99.50204,70.072336 0.29929897,0.29929897 0 0 0 99.249183,69.96397 l -2.776255,0.0516 a 0.32510061,0.32510061 0 0 0 -0.299299,0.15997 v 0.03096 l -0.06708,0.196092 a 0.32510061,0.32510061 0 0 0 0,0.268337 0.31477995,0.31477995 0 0 0 0.232214,0.144489 c 0.376706,0.08773 0.397346,0.108367 0.402506,0.402506 0,0 0,0.970141 0,1.243639 h -1.57906 c 0,-0.273498 0,-1.243639 0,-1.243639 a 0.35090224,0.35090224 0 0 1 0.288978,-0.397345 v 0 a 0.35606257,0.35606257 0 0 0 0.268337,-0.258017 l 0.04644,-0.16513 a 0.30961962,0.30961962 0 0 0 -0.03612,-0.283818 0.28381801,0.28381801 0 0 0 -0.252857,-0.103207 l -2.776255,0.04644 a 0.31477995,0.31477995 0 0 0 -0.29414,0.15997 v 0 0 l -0.06708,0.201253 a 0.29413867,0.29413867 0 0 0 0,0.263177 0.29929897,0.29929897 0 0 0 0.227055,0.149649 c 0.381865,0.08257 0.402506,0.103207 0.407668,0.397345 l 0.06192,3.94249 a 0.34574192,0.34574192 0 0 1 -0.283819,0.392186 v 0 a 0.34574192,0.34574192 0 0 0 -0.268338,0.258017 l -0.04644,0.15997 a 0.3044593,0.3044593 0 0 0 0.03612,0.288978 0.28897834,0.28897834 0 0 0 0.247695,0.103207 l 2.781416,-0.04644 a 0.33026093,0.33026093 0 0 0 0.294137,-0.159971 v 0 0 l 0.06193,-0.196092 a 0.3044593,0.3044593 0 0 0 0,-0.268337 0.31477995,0.31477995 0 0 0 -0.232214,-0.144489 c -0.376714,-0.08773 -0.397354,-0.10321 -0.402514,-0.397349 l -0.01032,-1.72871 h 1.57906 l 0.03096,1.739031 a 0.35090224,0.35090224 0 0 1 -0.283818,0.397345 v 0 0 a 0.33542126,0.33542126 0 0 0 -0.263176,0.252857 l -0.05161,0.16513 a 0.28381801,0.28381801 0 0 0 0.288978,0.392185 l 2.776255,-0.0516 a 0.32510061,0.32510061 0 0 0 0.299299,-0.159971 v 0 0 l 0.06192,-0.201252 a 0.29413867,0.29413867 0 0 0 0,-0.263177 0.28897834,0.28897834 0 0 0 -0.242535,-0.190932 z"
       id="path225372"
       style="fill:#ffed00;stroke-width:0.516033" />
    <path
       class="cls-2"
       d="m 107.75856,71.775244 -2.66789,-0.768888 a 0.31994028,0.31994028 0 0 0 -0.33026,0.06708 v 0 0 l -0.11869,0.17029 a 0.29929897,0.29929897 0 0 0 -0.0671,0.258017 0.29413867,0.29413867 0 0 0 0.17545,0.206413 c 0.34059,0.196092 0.35091,0.216734 0.26834,0.516033 l -1.08883,3.787681 a 0.34058159,0.34058159 0 0 1 -0.38702,0.294138 h -0.0722 a 0.3612229,0.3612229 0 0 0 -0.33026,0.170291 l -0.0929,0.139329 a 0.29413867,0.29413867 0 0 0 -0.0464,0.283818 0.28897834,0.28897834 0 0 0 0.20641,0.175451 l 2.67305,0.768889 a 0.33026093,0.33026093 0 0 0 0.33026,-0.06708 v 0 0 l 0.12385,-0.170291 a 0.3044593,0.3044593 0 0 0 0.0619,-0.258017 0.31477995,0.31477995 0 0 0 -0.17546,-0.206413 c -0.33542,-0.190932 -0.3509,-0.216733 -0.26833,-0.516033 l 1.1301,-3.782524 a 0.35090224,0.35090224 0 0 1 0.38702,-0.294138 h 0.031 a 0.35090224,0.35090224 0 0 0 0.33027,-0.165131 l 0.0929,-0.144489 a 0.29413867,0.29413867 0 0 0 0.0464,-0.283818 0.28381801,0.28381801 0 0 0 -0.21158,-0.180612 z"
       id="path225374"
       style="fill:#ffed00;stroke-width:0.516033" />
    <path
       class="cls-2"
       d="m 119.38994,79.397048 a 0.44378814,0.44378814 0 0 0 0.41799,0 l 0.18577,-0.149649 a 0.26317669,0.26317669 0 0 0 0.0981,-0.211574 0.39734519,0.39734519 0 0 0 -0.20125,-0.273497 l -1.31589,-0.913378 a 0.31994028,0.31994028 0 0 0 -0.36638,0 l -0.13417,0.07225 c -0.23737,0.139329 -0.10321,0.376703 -0.0516,0.464429 l 0.0464,0.08773 c 0.0774,0.15997 0.11869,0.258016 -0.0619,0.407666 l -1.9248,1.620343 0.98046,-3.127159 a 0.60891862,0.60891862 0 0 1 0.0361,-0.103207 c 0.0568,-0.15997 0.12385,-0.356062 -0.0361,-0.464429 l -0.88242,-0.614079 c -0.15997,-0.108367 -0.31994,0 -0.47475,0.129008 l -0.0722,0.05676 -2.72981,2.017688 0.88757,-2.456316 c 0.0671,-0.190932 0.13933,-0.190932 0.35091,-0.170291 a 0.51603272,0.51603272 0 0 0 0.40766,-0.06192 l 0.18061,-0.139329 a 0.23737505,0.23737505 0 0 0 0.1032,-0.201262 0.39218486,0.39218486 0 0 0 -0.20125,-0.294138 l -2.10542,-1.460373 a 0.27865768,0.27865768 0 0 0 -0.3767,0 v 0 l -0.16513,0.113527 c -0.21157,0.14965 -0.0929,0.387025 -0.0516,0.47475 l 0.0258,0.04644 c 0.0929,0.180612 0.13417,0.258017 0,0.608919 0,0 -1.68227,4.375958 -1.68227,4.375958 -0.0619,0.190932 -0.0671,0.516033 0.11869,0.660522 l 0.9495,0.66052 c 0.2477,0.170292 0.51603,-0.03096 0.63988,-0.129008 l 2.42019,-1.811273 -0.95982,2.822699 c -0.0619,0.185772 -0.0671,0.516032 0.11869,0.655362 l 1.03207,0.717285 c 0.26833,0.185772 0.55215,-0.0516 0.64504,-0.129008 l 3.56578,-3.096197 c 0.2735,-0.263177 0.36123,-0.252856 0.58312,-0.185772 z"
       id="path225376"
       style="fill:#ffed00;stroke-width:0.516033" />
    <path
       class="cls-2"
       d="m 124.91149,84.913439 -1.05787,-1.548098 a 0.35606257,0.35606257 0 0 0 -0.40766,-0.175453 l -0.15997,0.05676 h 0.031 a 0.29929897,0.29929897 0 0 0 -0.22706,0.139329 0.42830716,0.42830716 0 0 0 0,0.371544 0.54699469,0.54699469 0 0 1 0.0361,0.247695 0.23221473,0.23221473 0 0 1 0,0.04128 c 0,0.129008 -0.0619,0.273497 -0.38186,0.366384 l -3.61223,0.928857 c -0.46443,0.108368 -0.47991,0.09805 -0.70181,-0.09288 a 0.41282617,0.41282617 0 0 0 -0.42314,-0.134168 l -0.12385,0.03612 a 0.31994028,0.31994028 0 0 0 -0.23738,0.190931 0.39218486,0.39218486 0 0 0 0.10837,0.361225 l 0.031,0.04644 0.79469,1.145592 a 0.35606257,0.35606257 0 0 0 0.39219,0.123847 v 0 h 0.11352 c 0.27866,-0.04644 0.24254,-0.325099 0.22706,-0.417986 -0.0155,-0.09288 -0.031,-0.206413 0.12901,-0.258017 l 0.7276,-0.165129 0.88242,1.274601 -0.3251,0.516033 c -0.13417,0.170288 -0.18578,0.144489 -0.31994,0.08256 a 0.51603272,0.51603272 0 0 0 -0.37155,-0.05676 l -0.19609,0.04645 a 0.30961962,0.30961962 0 0 0 -0.22705,0.185772 0.33026093,0.33026093 0 0 0 0.0568,0.288978 l 1.43973,2.064131 a 0.34058159,0.34058159 0 0 0 0.41283,0.185772 l 0.18577,-0.03612 v 0 a 0.29929897,0.29929897 0 0 0 0.18577,-0.149649 0.35090224,0.35090224 0 0 0 0,-0.268338 c -0.10321,-0.263175 -0.0826,-0.356063 0.15997,-0.706964 0.82565,-1.377807 1.85772,-2.925905 2.75561,-4.128262 v 0 a 0.41282617,0.41282617 0 0 0 0.10321,-0.562475 z m -2.58016,0.686322 -0.69665,1.032065 -0.51603,-0.722445 z"
       id="path225378"
       style="fill:#ffed00;stroke-width:0.516033" />
    <path
       class="cls-2"
       d="m 74.226756,120.9222 a 0.32510061,0.32510061 0 0 0 -0.376703,-0.0774 l -0.190934,0.0774 a 0.26833703,0.26833703 0 0 0 -0.165129,0.15997 0.39734519,0.39734519 0 0 0 0.06192,0.3251 c 0.170291,0.2735 0.15481,0.40767 -0.06708,0.60892 l -2.85366,2.61113 a 0.34574192,0.34574192 0 0 1 -0.485072,0.0464 v 0 0 a 0.33542126,0.33542126 0 0 0 -0.366384,-0.031 l -0.15481,0.0723 a 0.31477995,0.31477995 0 0 0 -0.190932,0.21673 0.3044593,0.3044593 0 0 0 0.08773,0.25802 l 1.873199,2.06413 a 0.32510061,0.32510061 0 0 0 0.31994,0.11352 v 0 0 l 0.190931,-0.0826 a 0.30961962,0.30961962 0 0 0 0.190934,-0.18577 0.31994028,0.31994028 0 0 0 -0.04644,-0.26833 c -0.185772,-0.34059 -0.185772,-0.36639 0.03096,-0.56764 l 0.939178,-0.90822 v 0 l -0.712123,2.48212 v 0.031 a 0.44378814,0.44378814 0 0 0 0.06192,0.45927 l 1.25912,1.37781 0.118687,0.12901 0.134168,-0.11869 0.252857,-0.23222 0.0774,-0.0722 v -0.1032 c -0.0774,-0.31994 0.0516,-1.27976 0.485071,-2.70402 a 1.9196418,1.9196418 0 0 0 2.20862,-0.38702 c 0.799851,-0.74825 0.433467,-1.899 -0.06708,-2.44599 z m -0.516033,3.81864 1.501656,-1.37264 0.268335,0.28898 c 0.185772,0.20641 0.335423,0.51603 -0.201252,1.03206 a 1.388128,1.388128 0 0 1 -0.975302,0.45927 0.55215502,0.55215502 0 0 1 -0.407665,-0.19609 z"
       id="path225380"
       style="fill:#ffed00;stroke-width:0.516033" />
    <path
       class="cls-2"
       d="m 85.925218,130.26756 a 0.43862781,0.43862781 0 0 0 -0.237377,-0.28382 l -3.844443,-1.99705 a 0.33542126,0.33542126 0 0 0 -0.376703,0.0568 l -0.154811,0.13933 a 0.27865768,0.27865768 0 0 0 -0.09805,0.20641 0.38702454,0.38702454 0 0 0 0.165131,0.28382 c 0.258017,0.20125 0.288978,0.33026 0.149649,0.5986 l -1.981565,3.81864 a 0.73792681,0.73792681 0 0 0 -0.118687,0.5728 c 0.09288,0.27865 0.397346,0.43862 1.145593,0.82565 h 0.04644 l 2.34795,1.21784 a 0.63472026,0.63472026 0 0 0 0.516032,0.0826 0.31994028,0.31994028 0 0 0 0.201253,-0.16514 l 0.423146,-0.82049 a 0.25801636,0.25801636 0 0 0 -0.04644,-0.30962 l -0.149648,-0.14965 c -0.129008,-0.12384 -0.278659,-0.0361 -0.381865,0.0258 a 0.8875763,0.8875763 0 0 1 -0.939181,0.0516 l -0.614077,-0.31994 c -0.273497,-0.14449 -0.397346,-0.20641 -0.07224,-0.83081 l 0.603758,-1.16623 1.264279,0.65536 a 0.48507076,0.48507076 0 0 0 0.443789,0.031 v 0 0 l 0.356063,-0.2219 v 0 a 0.24769571,0.24769571 0 0 0 0.144489,-0.21673 0.29929897,0.29929897 0 0 0 -0.185772,-0.26318 l -1.599703,-0.82565 0.681165,-1.30556 0.949499,0.51603 c 0.216734,0.11353 0.258017,0.3251 0.288978,0.5728 a 0.40250552,0.40250552 0 0 0 0.118687,0.31478 0.23221473,0.23221473 0 0 0 0.175453,0.0361 l 0.201253,-0.0413 a 0.28381801,0.28381801 0 0 0 0.190931,-0.14449 l 0.356063,-0.68117 v 0 a 0.33026093,0.33026093 0 0 0 0.03096,-0.26317 z"
       id="path225382"
       style="fill:#ffed00;stroke-width:0.516033" />
    <path
       class="cls-2"
       d="m 96.245873,132.33685 -1.548099,-0.21674 a 0.28897834,0.28897834 0 0 0 -0.29414,0.12901 l -0.09805,0.14449 c -0.154808,0.22705 0.06193,0.38187 0.15481,0.44895 l 0.09289,0.0671 c 0.09288,0.0826 0.118687,0.1032 0,0.27349 l -1.25912,1.63583 -0.660522,-1.78547 c 0,-0.2219 0.03612,-0.2735 0.06708,-0.2993 a 0.51603272,0.51603272 0 0 1 0.139327,-0.0826 0.39734519,0.39734519 0 0 0 0.221896,-0.18577 c 0,0 0.09288,-0.1961 0.09288,-0.1961 a 0.26317669,0.26317669 0 0 0 -0.211574,-0.38702 l -2.507916,-0.34574 a 0.29929897,0.29929897 0 0 0 -0.345745,0.15997 l -0.09804,0.17545 a 0.24769571,0.24769571 0 0 0 -0.03096,0.20125 0.4179865,0.4179865 0 0 0 0.237377,0.25802 c 0.113527,0.0774 0.227054,0.15997 0.371543,0.58828 0,0 0.825651,2.49243 0.939179,2.82785 l -0.154808,1.11464 a 0.35090224,0.35090224 0 0 1 -0.345744,0.34574 h -0.0258 a 0.35606257,0.35606257 0 0 0 -0.304462,0.21673 l -0.07224,0.14965 a 0.3044593,0.3044593 0 0 0 0,0.28898 0.28897834,0.28897834 0 0 0 0.232217,0.14449 l 2.750452,0.3767 a 0.31994028,0.31994028 0 0 0 0.31478,-0.10837 v 0 0 l 0.08773,-0.17545 a 0.31994028,0.31994028 0 0 0 0.03612,-0.27865 0.30961962,0.30961962 0 0 0 -0.206412,-0.17545 c -0.361225,-0.14449 -0.376706,-0.17029 -0.335423,-0.45927 l 0.118689,-0.88241 a 2.1312152,2.1312152 0 0 1 0.304459,-0.69665 L 95.4099,133.6166 c 0.258017,-0.38187 0.412827,-0.42315 0.516033,-0.45927 h 0.05676 a 0.51603272,0.51603272 0 0 0 0.356063,-0.21157 v 0 0 l 0.06708,-0.16514 a 0.29413867,0.29413867 0 0 0 0,-0.25285 0.27865768,0.27865768 0 0 0 -0.15997,-0.19093 z"
       id="path225384"
       style="fill:#ffed00;stroke-width:0.516033" />
    <path
       class="cls-2"
       d="m 103.72318,133.66305 -0.0877,-0.031 c -0.76372,-0.31478 -1.09914,-0.46959 -1.12495,-0.93918 a 0.54183436,0.54183436 0 0 1 0.41799,-0.51603 0.59343764,0.59343764 0 0 1 0.61924,0.22706 l 0.0464,0.0619 c 0.25286,0.31993 0.36638,0.45411 0.51603,0.44894 a 0.20125276,0.20125276 0 0 0 0.16513,-0.0774 v 0 l 0.28382,-0.27865 0.0258,-0.0258 v 0 0 a 0.28897834,0.28897834 0 0 0 0.0361,-0.20126 l -0.11868,-0.66052 v 0 c 0,-0.30446 -0.34575,-0.36122 -0.58312,-0.4025 a 3.0549138,3.0549138 0 0 0 -1.2488,0.0671 c -1.91965,0.39218 -2.42536,1.40361 -2.26023,2.21378 0.16513,0.81017 0.83598,1.11979 1.36749,1.34685 l 0.17545,0.0774 c 0.17545,0.0774 0.33542,0.13933 0.51603,0.20125 0.76889,0.31478 1.11464,0.46959 1.19204,0.93402 a 0.8308127,0.8308127 0 0 1 -0.75341,0.91338 0.7172855,0.7172855 0 0 1 -0.6502,-0.26834 4.2572699,4.2572699 0 0 1 -0.26834,-0.34574 c -0.15481,-0.20641 -0.26317,-0.36122 -0.43346,-0.2735 l -0.31478,0.20126 a 0.33026093,0.33026093 0 0 0 -0.0877,0.39734 0.29929897,0.29929897 0 0 1 0,0.0516 l 0.17029,0.81533 c 0.0722,0.35607 0.21157,0.37155 0.66568,0.41283 a 5.7589253,5.7589253 0 0 0 1.46553,-0.13417 3.0961962,3.0961962 0 0 0 2.06413,-1.17655 1.671946,1.671946 0 0 0 0.19609,-1.34169 c -0.21673,-0.82565 -0.89273,-1.2488 -1.99188,-1.69774 z"
       id="path225386"
       style="fill:#ffed00;stroke-width:0.516033" />
    <path
       class="cls-2"
       d="m 111.2521,127.91961 a 3.3387318,3.3387318 0 0 0 -1.41393,4.60817 3.1890822,3.1890822 0 0 0 4.37596,1.25912 3.3748541,3.3748541 0 0 0 1.36749,-4.68042 3.0961962,3.0961962 0 0 0 -4.32952,-1.18687 z m 2.69886,4.91779 a 0.76372844,0.76372844 0 0 1 -0.62956,0.12385 c -0.35607,-0.0826 -0.92886,-0.44379 -1.64099,-1.70291 -0.51603,-0.90306 -0.70696,-2.06413 -0.13417,-2.40471 a 0.85661434,0.85661434 0 0 1 0.66568,-0.0826 c 0.47991,0.13417 1.00111,0.66052 1.46554,1.48101 0.53667,0.95466 0.79469,2.21894 0.2735,2.58532 z"
       id="path225388"
       style="fill:#ffed00;stroke-width:0.516033" />
    <path
       class="cls-2"
       d="m 123.43048,123.54365 a 0.24253538,0.24253538 0 0 0 -0.30962,0 l -0.18061,0.11353 c -0.14449,0.0981 -0.0929,0.25801 -0.0568,0.3767 a 0.8875763,0.8875763 0 0 1 -0.15481,0.92886 l -0.44895,0.51603 c -0.10837,0.12901 -0.19094,0.19093 -0.26834,0.20125 -0.0774,0.0103 -0.29414,-0.0929 -0.55732,-0.31478 l -2.66788,-2.24474 a 0.35090224,0.35090224 0 0 1 -0.11353,-0.47475 v 0 0 a 0.35606257,0.35606257 0 0 0 0,-0.37154 l -0.0929,-0.13933 a 0.29929897,0.29929897 0 0 0 -0.23738,-0.15997 0.29413867,0.29413867 0 0 0 -0.24253,0.11869 l -1.79064,2.12605 a 0.33026093,0.33026093 0 0 0 -0.0722,0.33026 v 0 0 l 0.10837,0.18062 a 0.3044593,0.3044593 0 0 0 0.20641,0.16512 0.31477995,0.31477995 0 0 0 0.26318,-0.0774 c 0.31478,-0.23221 0.34058,-0.23221 0.56764,-0.0464 l 3.01363,2.53888 a 0.35090224,0.35090224 0 0 1 0.11353,0.47475 v 0 0 a 0.36638323,0.36638323 0 0 0 0,0.37155 l 0.0929,0.14449 a 0.31477995,0.31477995 0 0 0 0.23737,0.15997 0.28381801,0.28381801 0 0 0 0.24253,-0.12385 l 2.97235,-3.53482 c 0.2735,-0.32511 0.21158,-0.5728 0.0722,-0.69149 z"
       id="path225390"
       style="fill:#ffed00;stroke-width:0.516033" />
  </g>
</svg>
