<?xml version="1.0" encoding="UTF-8" standalone="no"?>
<svg
   xmlns:dc="http://purl.org/dc/elements/1.1/"
   xmlns:cc="http://creativecommons.org/ns#"
   xmlns:rdf="http://www.w3.org/1999/02/22-rdf-syntax-ns#"
   xmlns:svg="http://www.w3.org/2000/svg"
   xmlns="http://www.w3.org/2000/svg"
   xmlns:sodipodi="http://sodipodi.sourceforge.net/DTD/sodipodi-0.dtd"
   xmlns:inkscape="http://www.inkscape.org/namespaces/inkscape"
   width="82.504875mm"
   height="84.402084mm"
   viewBox="0 0 311.82945 319"
   version="1.1"
   id="svg37390"
   inkscape:version="1.0.1 (3bc2e813f5, 2020-09-07)"
   sodipodi:docname="chiba.svg">
  <defs
     id="defs37384" />
  <sodipodi:namedview
     id="base"
     pagecolor="#ffffff"
     bordercolor="#666666"
     borderopacity="1.0"
     inkscape:pageopacity="0.0"
     inkscape:pageshadow="2"
     inkscape:zoom="0.35"
     inkscape:cx="-14.799538"
     inkscape:cy="242.35714"
     inkscape:document-units="px"
     inkscape:current-layer="layer1"
     inkscape:document-rotation="0"
     showgrid="false"
     inkscape:window-width="1267"
     inkscape:window-height="728"
     inkscape:window-x="83"
     inkscape:window-y="0"
     inkscape:window-maximized="0" />
  <metadata
     id="metadata37387">
    <rdf:RDF>
      <cc:Work
         rdf:about="">
        <dc:format>image/svg+xml</dc:format>
        <dc:type
           rdf:resource="http://purl.org/dc/dcmitype/StillImage" />
        <dc:title></dc:title>
      </cc:Work>
    </rdf:RDF>
  </metadata>
  <g
     inkscape:label="Layer 1"
     inkscape:groupmode="layer"
     id="layer1"
     transform="translate(-389.79954,-277.64286)">
    <path
       class="cls-1"
       d="m 692.73535,501.33394 c -0.15881,-0.13896 -15.14699,-12.5464 -21.30108,-17.8667 a 225.17998,225.17998 0 0 0 2.68001,-53.04424 c -2.34253,-40.59712 9.78698,-79.54652 9.92595,-79.92371 l 2.91822,-9.17157 c 0.43674,-1.46904 1.40949,-3.97038 1.40949,-3.97038 0,0 -4.86371,-1.608 -8.79439,-2.97778 l -10.36269,-3.6329 -11.03765,-3.97038 5.95556,-16.85425 1.27053,-3.65275 -3.51378,-1.64771 -8.09957,-3.79171 a 255.49381,255.49381 0 0 0 -104.38124,-23.187 255.57322,255.57322 0 0 0 -104.26212,23.20686 l -8.09957,3.79171 -3.49394,1.6477 1.27053,3.65275 5.95556,16.85425 -26.20449,9.11202 -3.97038,1.38963 1.27052,3.97039 0.15882,0.47643 a 204.11712,204.11712 0 0 1 7.10697,25.92658 v 0.51614 l 0.19852,0.4566 3.69245,8.23853 a 19.355591,19.355591 0 0 0 -4.2483,2.144 v 0 l -0.59556,0.33749 v 0 h -0.0993 l -3.07704,2.60059 -10.66047,-1.66755 h -0.15881 -0.13896 a 12.526542,12.526542 0 0 0 -12.28832,19.13722 c 0,0 8.53631,14.90876 8.53631,14.90876 a 17.8667,17.8667 0 0 0 11.35528,7.52387 c 0.33748,0 6.11438,1.86608 13.18165,4.14905 a 11.335429,11.335429 0 0 0 -8.65542,8.51645 c -0.89333,4.10935 0.59556,9.80684 7.40475,13.45959 l 0.73452,0.39704 c 0.47645,56.87565 20.44745,96.59929 57.86826,114.94243 l 24.81487,11.91114 c 14.49188,6.94815 28.16983,13.47943 35.51502,17.56891 l 4.80416,2.66016 1.98519,1.17126 1.98519,-1.17126 4.82402,-2.66016 c 7.32534,-4.08948 21.00329,-10.62076 35.49517,-17.56891 l 24.79501,-11.91114 c 22.21426,-10.87883 38.27444,-29.18227 47.80334,-54.39417 H 701.629 Z"
       id="path36738"
       style="fill:#ffffff;stroke-width:1.98519" />
    <path
       class="cls-1"
       d="m 666.72937,485.05539 a 217.23922,217.23922 0 0 0 3.03734,-54.43388 c -2.40207,-41.55 9.92594,-81.07511 10.10461,-81.39274 l 2.93808,-9.23113 -30.17486,-10.58106 7.30548,-20.90404 -8.09956,-3.79171 A 251.2058,251.2058 0 0 0 549.40471,281.93087 251.2058,251.2058 0 0 0 446.96896,304.72083 l -8.11942,3.79171 7.30549,20.90404 -30.17487,10.58106 a 212.41521,212.41521 0 0 1 7.36505,26.93901 l 6.17394,13.77721 a 15.504325,15.504325 0 0 0 -1.82637,-0.15881 11.315577,11.315577 0 0 0 -1.68741,0 11.911133,11.911133 0 0 0 -4.90342,1.98519 l -0.35733,0.25808 -4.32771,3.41452 a 8.19883,8.19883 0 0 1 -1.21097,0 c -0.59556,0 -11.53395,-1.80652 -11.53395,-1.80652 a 8.7348311,8.7348311 0 0 0 -8.31794,3.73215 8.6157197,8.6157197 0 0 0 0.11911,9.01276 l 8.53631,14.94848 a 13.697803,13.697803 0 0 0 8.81424,5.59823 c 0.21837,0 7.94076,2.44178 16.51677,5.22104 q 0,3.39468 -0.23822,6.78935 h -1.23082 a 7.6231253,7.6231253 0 0 0 -7.50401,5.61808 c -0.25807,1.27052 -0.67496,5.61808 5.26075,8.79439 0.69482,0.35734 1.70726,0.93304 2.97778,1.66756 0,56.53817 18.91885,95.66625 55.58529,113.59251 l 24.79501,11.91113 c 14.53159,6.96801 28.2691,13.53899 35.73341,17.68803 l 4.824,2.66015 4.80416,-2.66015 c 7.44446,-4.14904 21.18197,-10.72002 35.73341,-17.68803 l 24.77515,-11.91113 c 22.0753,-10.81929 37.71859,-29.3808 46.71149,-54.81107 h 28.50732 c 0,0 -18.97841,-15.52417 -23.34583,-19.51441 z"
       id="path36740"
       style="fill:#ffffff;stroke-width:1.98519" />
    <path
       class="cls-2"
       d="m 666.72937,485.05539 a 217.23922,217.23922 0 0 0 3.03734,-54.43388 c -2.40207,-41.55 9.92594,-81.07511 10.10461,-81.39274 l 2.93808,-9.23113 -30.17486,-10.58106 7.30548,-20.90404 -8.09956,-3.79171 A 251.2058,251.2058 0 0 0 549.40471,281.93087 251.2058,251.2058 0 0 0 446.96896,304.72083 l -8.11942,3.79171 7.30549,20.90404 -30.17487,10.58106 a 212.41521,212.41521 0 0 1 7.36505,26.93901 l 6.17394,13.77721 a 15.504325,15.504325 0 0 0 -1.82637,-0.15881 11.315577,11.315577 0 0 0 -1.68741,0 11.911133,11.911133 0 0 0 -4.90342,1.98519 l -0.35733,0.25808 -4.32771,3.41452 a 8.19883,8.19883 0 0 1 -1.21097,0 c -0.59556,0 -11.53395,-1.80652 -11.53395,-1.80652 a 8.7348311,8.7348311 0 0 0 -8.31794,3.73215 8.6157197,8.6157197 0 0 0 0.11911,9.01276 l 8.53631,14.94848 a 13.697803,13.697803 0 0 0 8.81424,5.59823 c 0.21837,0 7.94076,2.44178 16.51677,5.22104 q 0,3.39468 -0.23822,6.78935 h -1.23082 a 7.6231253,7.6231253 0 0 0 -7.50401,5.61808 c -0.25807,1.27052 -0.67496,5.61808 5.26075,8.79439 0.69482,0.35734 1.70726,0.93304 2.97778,1.66756 0,56.53817 18.91885,95.66625 55.58529,113.59251 l 24.79501,11.91113 c 14.53159,6.96801 28.2691,13.53899 35.73341,17.68803 l 4.824,2.66015 4.80416,-2.66015 c 7.44446,-4.14904 21.18197,-10.72002 35.73341,-17.68803 l 24.77515,-11.91113 c 22.0753,-10.81929 37.71859,-29.3808 46.71149,-54.81107 h 28.50732 c 0,0 -18.97841,-15.52417 -23.34583,-19.51441 z m -6.51142,17.86671 -0.59555,1.6477 c -8.83409,24.73545 -24.15975,42.76097 -45.65935,53.30232 l -24.77515,11.91114 c -14.57128,6.98786 -28.3088,13.57868 -35.7334,17.72773 l -3.97038,2.22342 -3.97037,-2.22342 c -7.50402,-4.14905 -21.26138,-10.73987 -35.83266,-17.72773 l -24.75532,-11.91114 c -35.7334,-17.50936 -54.43388,-55.76395 -54.57284,-111.17057 0,-0.63526 0,-1.27052 0,-1.98519 l -3.97038,-2.22341 c -4.92327,-2.62046 -4.62549,-5.95557 -4.40712,-6.96802 a 5.9555666,5.9555666 0 0 1 5.95557,-4.32771 h 2.75941 c 0,-0.17867 0.31763,-8.93335 0.31763,-9.4892 -0.55585,-0.19852 -17.35055,-5.53868 -17.76744,-5.65779 a 12.129504,12.129504 0 0 1 -7.80179,-4.7049 l -8.49661,-14.90876 a 6.9680129,6.9680129 0 0 1 -0.15881,-7.3055 7.126828,7.126828 0 0 1 6.78934,-2.97779 h 0.19852 l 11.29573,1.76682 a 6.3327525,6.3327525 0 0 0 2.1043,-0.11911 h 0.11911 l 4.50638,-3.53364 v 0 h 0.11911 a 9.9259444,9.9259444 0 0 1 4.28801,-1.78667 9.3502396,9.3502396 0 0 1 1.68741,0 14.392619,14.392619 0 0 1 1.98519,0.21837 c 0.59555,0 2.44178,0.51615 2.66015,0.57571 l -7.36505,-16.08003 a 225.39834,225.39834 0 0 0 -7.06727,-25.80746 l 30.21457,-10.58105 -7.3452,-21.04301 6.72979,-3.15645 a 249.31987,249.31987 0 0 1 101.72109,-22.63115 249.43898,249.43898 0 0 1 101.62181,22.27382 l 6.7298,3.15645 -2.46165,7.00772 -4.9034,14.03528 30.21457,10.58106 -2.42193,7.62313 a 266.65056,266.65056 0 0 0 -10.32299,62.03714 l -0.13896,4.86372 q -0.13896,7.46431 0.25808,15.16684 a 215.80988,215.80988 0 0 1 -2.81897,52.96485 c -0.11911,0.6551 -0.25808,1.29036 -0.37719,1.98518 l 20.40774,17.39026 z"
       id="path36742"
       style="fill:#008e5c;stroke-width:1.98519" />
    <path
       class="cls-2"
       d="m 645.70622,332.73185 7.46432,-21.36063 -3.65275,-1.70727 A 245.13112,245.13112 0 0 0 549.40471,287.37028 245.19068,245.19068 0 0 0 449.27178,309.66395 l -3.65275,1.70727 1.33008,3.79171 6.15408,17.56892 -26.22434,9.13187 -4.12919,1.50874 1.33007,4.1292 c 0,0.15881 2.34253,7.44445 4.78431,18.99825 0.13896,0.69482 0.29778,1.40949 0.43674,2.14401 l 5.12179,2.83882 c -0.13896,-0.71467 -0.25808,-1.40949 -0.39704,-2.1043 a 234.74858,234.74858 0 0 0 -5.71734,-23.24656 l 30.43294,-10.66047 -7.62313,-21.83708 a 242.47097,242.47097 0 0 1 98.247,-21.83708 242.35186,242.35186 0 0 1 98.22715,21.83708 l -7.60327,21.83708 30.4131,10.66047 a 270.87902,270.87902 0 0 0 -10.18403,55.58528 c 0,0.59557 0,1.21097 -0.13896,1.82638 a 21.698115,21.698115 0 0 1 4.24831,3.7123 c 0,-0.73452 0,-1.48889 0.13896,-2.22341 a 270.36288,270.36288 0 0 1 10.18402,-57.57048 l 1.31022,-4.12919 z"
       id="path36744"
       style="fill:#008e5c;stroke-width:1.98519" />
    <path
       class="cls-2"
       d="m 664.3273,430.93915 c -0.17867,-3.25572 -0.27793,-6.51142 -0.31763,-9.70758 v -2.22341 a 14.928621,14.928621 0 0 1 -4.44682,3.07704 c 0,0.59556 0,1.21097 0,1.80652 0,2.42194 0.13896,4.84387 0.27792,7.3055 a 218.37077,218.37077 0 0 1 -1.76682,45.65935 c -0.0993,0.6551 -0.19851,1.33007 -0.31763,1.98518 1.25067,1.23082 2.54104,2.46164 3.83142,3.69246 l 0.35733,-1.9852 a 215.43269,215.43269 0 0 0 2.38223,-49.60986 z"
       id="path36746"
       style="fill:#008e5c;stroke-width:1.98519" />
    <path
       class="cls-2"
       d="m 651.54268,502.98165 c -0.19852,0.55586 -0.41688,1.09186 -0.61541,1.6477 -7.3452,18.99827 -19.85189,35.73341 -40.5574,45.91742 -23.22671,11.39499 -49.09372,23.26642 -60.96516,29.77783 -11.91113,-6.61067 -37.71859,-18.4821 -60.96516,-29.77783 -39.04867,-19.13722 -49.05401,-61.77907 -49.80838,-98.74329 0,-0.65511 0,-1.31022 0,-1.98518 l -4.60564,-2.73957 c 0,0.65511 0,1.29038 0,1.98519 0.63526,52.58765 18.50196,88.87691 52.44868,105.49293 l 24.73547,11.91114 c 14.61099,7.00771 28.42791,13.61839 36.03117,17.8667 l 2.16386,1.21097 2.16386,-1.21097 c 7.58342,-4.2086 21.40033,-10.81928 36.01133,-17.8667 l 24.73545,-11.91114 c 20.18937,-9.92594 34.72096,-26.78019 43.29697,-49.9275 0.19852,-0.55584 0.39704,-1.09184 0.57571,-1.6477 z"
       id="path36748"
       style="fill:#008e5c;stroke-width:1.98519" />
    <path
       class="cls-2"
       d="m 434.76005,423.0381 c 0,0.55584 0,1.1117 0,1.68741 0,1.62785 -0.0993,3.29541 -0.17867,4.94311 0,0.41689 0,0.83379 0,1.27053 v 0.25807 l 4.46668,-0.11911 v -1.31023 c 0,-1.17126 0.11911,-2.32267 0.15881,-3.47408 0,-0.536 0,-1.072 0,-1.608 z"
       id="path36750"
       style="fill:#008e5c;stroke-width:1.98519" />
    <path
       class="cls-2"
       d="m 632.56427,502.98165 -0.67496,-0.47645 c -22.11501,-15.2661 -55.08899,-29.44035 -76.90622,-37.06347 -1.33008,0.19852 -2.60059,0.41689 -3.77185,0.63526 7.94075,10.20387 21.49959,28.64628 24.02078,32.91443 l 2.34252,3.97038 h -29.91679 l -0.79407,-1.01245 a 253.07188,253.07188 0 0 0 -45.44099,-43.29697 l -17.27114,-2.40208 16.19914,12.84418 -9.07231,-0.97275 -21.83708,-2.34252 a 26.422864,26.422864 0 0 1 -11.91114,-4.2483 c -2.64029,-1.64772 -8.13928,-5.04238 -13.89631,-8.53631 l -1.98519,-1.17127 v 1.98519 a 160.95912,160.95912 0 0 0 6.59083,42.5029 c 7.5437,24.27885 21.49959,41.55 41.45073,51.33698 l 24.65606,11.91113 c 13.89632,6.61069 26.8596,12.86402 34.87977,17.19174 7.94075,-4.32772 21.0827,-10.58105 34.85991,-17.19174 l 24.6759,-11.91113 c 17.58877,-8.63557 30.51236,-23.08775 38.49281,-43.01905 l 0.65512,-1.6477 z m -24.45752,42.97934 -24.65605,11.91113 c -13.32062,6.37246 -25.94642,12.42728 -34.04599,16.75499 -8.11942,-4.32771 -20.74522,-10.38253 -34.06584,-16.75499 l -24.65605,-11.91113 c -1.07201,-0.536 -2.12416,-1.09186 -3.1763,-1.66757 a 72.816727,72.816727 0 0 1 -10.50165,-7.02756 c -12.28832,-9.92594 -21.28123,-23.82227 -26.80006,-41.5103 a 158.65629,158.65629 0 0 1 -6.45185,-40.73607 l 12.92357,7.94075 a 27.792644,27.792644 0 0 0 12.5861,4.50638 l 36.58704,3.97037 -15.88151,-12.60594 10.81928,1.50874 a 255.65262,255.65262 0 0 1 41.88749,39.16778 q 1.52859,1.78667 2.91822,3.57334 l 1.29037,1.62785 h 33.60926 l -3.79172,-6.49157 c -0.49629,-0.83377 -1.36978,-2.16385 -2.52119,-3.8314 -1.70726,-2.4815 -3.97038,-5.7372 -6.61068,-9.27084 -4.32771,-5.95556 -9.37009,-12.68536 -13.34047,-17.8667 h 0.63527 c 7.62312,2.66016 16.63588,6.15408 26.06553,10.20387 4.20859,1.80653 8.47675,3.73216 12.7449,5.73719 a 268.63576,268.63576 0 0 1 37.32156,20.76508 l 1.09185,0.77422 h 13.36032 c -7.8812,19.03796 -20.38788,32.91443 -37.3414,41.23238 z"
       id="path36752"
       style="fill:#008e5c;stroke-width:1.98519" />
    <path
       class="cls-2"
       d="m 656.64462,431.37589 c -0.11911,-2.10431 -0.19852,-4.18875 -0.25808,-6.2732 0,-0.5757 0,-1.15141 0,-1.72711 -0.59556,0.19852 -1.21096,0.39703 -1.86608,0.5757 a 121.31489,121.31489 0 0 1 -23.32596,3.27556 c -1.82638,0.11911 -10.77958,0.15882 -16.755,0.11911 a 344.7876,344.7876 0 0 0 38.94941,47.08869 l 1.64771,1.6477 c 0.1191,-0.67496 0.21836,-1.34993 0.31762,-1.98518 a 217.06055,217.06055 0 0 0 1.29038,-42.72127 z m -3.05719,40.99415 c -5.2409,-5.36002 -10.0252,-10.58106 -14.35292,-15.58374 q -3.97038,-4.54608 -7.40476,-8.79438 c -5.95557,-7.3055 -10.70016,-13.79707 -14.31321,-18.97841 5.49898,0 12.10965,0 13.6978,-0.13896 a 124.21327,124.21327 0 0 0 23.30612,-3.19615 c 0,1.98519 0.13897,3.85126 0.25807,5.79675 0,1.072 0.0993,2.12415 0.15883,3.1763 q 0.29777,6.61068 0.27792,12.92358 a 199.27326,199.27326 0 0 1 -1.62785,24.79501 z"
       id="path36754"
       style="fill:#008e5c;stroke-width:1.98519" />
    <path
       class="cls-2"
       d="m 635.8994,337.4566 7.70252,-22.05545 a 242.19304,242.19304 0 0 0 -94.19721,-20.34819 242.19304,242.19304 0 0 0 -94.21707,20.34819 l 7.70254,22.05545 -30.55206,10.72002 c 1.21096,4.16889 3.39467,12.40743 5.43942,23.22671 0.13896,0.67496 0.25807,1.36978 0.37718,2.08445 0.71467,0.35734 1.40949,0.75437 2.1043,1.1117 46.41371,24.27886 91.53707,34.1254 132.57092,38.39355 -6.51142,-1.72711 -11.77217,-3.97037 -14.39261,-6.8489 a 7.0474205,7.0474205 0 0 1 -1.98519,-5.20119 c 0.69481,-13.63825 43.47563,-12.14935 45.28215,-12.0898 19.29604,0.75437 40.75593,5.43942 53.6001,11.91113 0.61541,0.31763 1.23081,0.63527 1.80652,0.97275 0,-0.59556 0,-1.17127 0.13896,-1.76682 a 279.91163,279.91163 0 0 1 9.31055,-51.73403 z m 19.43499,61.54086 c -13.75736,-6.7298 -35.97162,-11.11706 -53.6001,-11.79203 a 166.31912,166.31912 0 0 0 -23.32597,0.91319 c -15.36536,1.84622 -23.32597,6.13423 -23.66345,12.72506 a 8.6752754,8.6752754 0 0 0 2.48149,6.41216 15.623437,15.623437 0 0 0 3.25571,2.62046 368.59002,368.59002 0 0 1 -79.7252,-19.11738 330.35528,330.35528 0 0 1 -40.85518,-18.22403 c -1.98519,-10.26342 -3.97038,-18.38285 -5.26075,-23.16715 l 30.65131,-10.75973 -7.76209,-22.19441 a 240.52548,240.52548 0 0 1 91.87455,-19.47471 242.60993,242.60993 0 0 1 72.89614,12.18906 c 6.21364,1.98519 12.56624,4.48653 18.95855,7.28565 l -7.76208,22.19441 30.67116,10.75973 a 280.38808,280.38808 0 0 0 -8.83409,49.62972 z"
       id="path36756"
       style="fill:#008e5c;stroke-width:1.98519" />
    <path
       class="cls-2"
       d="m 444.24925,426.53202 -1.86607,-0.71467 c 0,0.51616 0,1.01245 0,1.5286 l -0.11912,2.36238 v 1.25067 h 1.98519 c 3.31527,0 6.88861,0 10.54136,0 -3.63291,-1.5683 -7.06728,-3.03734 -10.54136,-4.42698 z m -0.13896,3.17631 c 0,-0.55585 0,-1.13156 0,-1.68741 1.66756,0.61541 3.15645,1.19111 4.38726,1.68741 z"
       id="path36758"
       style="fill:#008e5c;stroke-width:1.98519" />
    <path
       class="cls-2"
       d="m 425.44951,390.85818 c 1.60801,-1.31022 3.1366,-0.75437 5.2012,-0.25808 2.0646,0.49631 11.69276,2.99765 16.61603,4.52623 l -5.22105,-10.95823 a 418.87485,418.87485 0 0 0 157.72327,39.56481 c 15.66314,24.91412 43.05874,54.19566 70.25583,76.60844 h 7.8415 a 346.91175,346.91175 0 0 1 -68.50887,-75.69526 c 2.40207,0.11912 19.11736,0.11912 21.5393,0 25.13248,-1.72711 33.23205,-5.36 32.95414,-12.28831 -0.33749,-8.73483 -31.20718,-19.59382 -62.29523,-20.80479 -14.80952,-0.55584 -42.12572,1.4095 -42.5426,9.58847 -0.41689,8.17898 25.50967,12.88388 47.64453,13.7375 16.23885,0.61541 28.94405,-2.20355 29.77784,-5.81659 0.83377,-3.61305 -8.71498,-8.59588 -19.07767,-7.54373 4.06963,0.89334 6.65038,2.73957 6.59082,4.42698 -0.13895,4.20859 -12.52654,3.49393 -19.33574,3.23585 -16.73513,-0.59555 -31.0285,-4.76445 -30.81012,-7.72238 0.25807,-3.29542 10.99794,-5.36001 26.80005,-4.84386 31.76301,1.05215 48.9349,8.63558 48.59742,14.25365 -0.33748,5.61809 -18.76004,8.23854 -35.1577,7.62313 -47.20779,-1.80652 -114.94243,-7.58342 -184.02701,-46.41372 l 7.52387,15.02788 c 0,0 -5.28061,-1.50874 -8.07972,-1.98518 a 6.789346,6.789346 0 0 0 -5.95557,1.23081 l -4.50638,3.55349 c -0.85363,0.91319 -3.33512,0.85363 -4.1689,0.75438 -0.83378,-0.0993 -11.39498,-1.78667 -11.39498,-1.78667 -3.97038,-0.35734 -6.11438,2.85866 -4.10934,6.33274 l 8.53631,14.92863 c 1.54845,2.56089 5.14164,3.13659 7.44446,3.97037 18.66077,5.95557 34.52243,10.66047 51.15831,20.22908 a 343.43767,343.43767 0 0 0 -38.19503,-0.11911 c -4.10934,0.29778 -5.36001,3.77186 -0.51615,6.35261 4.84386,2.58073 25.1722,15.06757 31.30643,18.91884 a 23.941378,23.941378 0 0 0 10.73987,3.97038 l 21.83708,2.34252 -7.94076,-6.23349 c -1.36978,-0.19852 -11.67291,-1.33008 -13.04269,-1.48889 a 13.697803,13.697803 0 0 1 -6.47172,-2.14401 c -1.21096,-0.89333 -20.36803,-12.78462 -24.53693,-15.16684 -1.608,-0.91318 -1.072,-1.76682 1.70727,-1.76682 10.0649,0 29.77783,1.40948 38.51266,2.56089 a 103.607,103.607 0 0 1 11.69277,7.52387 278.10511,278.10511 0 0 0 -28.20955,-2.36238 l 7.94076,5.7372 c 6.90846,0.61541 23.12746,2.40208 31.24688,3.97038 a 255.71217,255.71217 0 0 1 46.39386,44.13075 h 8.19884 A 265.8962,265.8962 0 0 0 501.20433,449.16318 C 470.65226,428.47751 457.41105,422.52194 415.8412,409.4594 a 7.2856432,7.2856432 0 0 1 -4.82401,-2.97778 l -5.55853,-9.92595 c -1.42933,-2.50134 -0.75437,-2.85867 1.46904,-2.42193 1.38963,0.25808 5.95557,0.97275 8.15913,1.54845 3.73215,1.01245 4.92327,-0.27793 5.7769,-0.9926 z"
       id="path36760"
       style="fill:#008e5c;stroke-width:1.98519" />
    <path
       class="cls-2"
       d="m 651.42357,500.30164 h 7.94076 c -15.78226,-14.63084 -51.85314,-36.82525 -72.9954,-45.91742 -14.61099,-0.15881 -39.52511,2.89839 -50.8804,6.2335 a 283.66364,283.66364 0 0 1 29.77784,39.70378 h 7.74224 c -2.75941,-4.68505 -19.4747,-27.39561 -26.50227,-35.97163 2.62045,-0.61541 5.61808,-1.17126 8.77453,-1.62786 23.08774,7.94076 56.33967,22.51205 78.17674,37.57963 h 8.05987 c -12.40743,-9.78698 -41.19267,-26.36331 -72.9954,-39.10821 5.61809,-0.4566 11.05751,-1.23083 14.47202,-1.11171 20.56656,8.21868 55.089,29.28153 68.42947,40.21992 z"
       id="path36762"
       style="fill:#008e5c;stroke-width:1.98519" />
    <path
       class="cls-3"
       d="m 546.84382,504.64921 -1.29038,-1.62786 q -1.38962,-1.78666 -2.91822,-3.57333 l -65.63035,37.81784 a 72.816727,72.816727 0 0 0 10.50165,7.08713 l 68.76695,-39.70378 z"
       id="path36764"
       style="fill:#d60f3c;stroke-width:1.98519" />
    <path
       class="cls-3"
       d="m 567.52948,485.05539 c 2.58075,3.53364 4.90342,6.78935 6.61069,9.27083 l 19.49455,-11.23617 c -4.26815,-1.98518 -8.53631,-3.97037 -12.74491,-5.73719 z"
       id="path36766"
       style="fill:#d60f3c;stroke-width:1.98519" />
    <path
       class="cls-3"
       d="m 639.23451,456.7863 15.88151,-9.21127 q 0,-6.3129 -0.27792,-12.92358 l -23.1076,13.34047 q 3.55349,4.22845 7.50401,8.79438 z"
       id="path36768"
       style="fill:#d60f3c;stroke-width:1.98519" />
    <path
       class="cls-3"
       d="m 549.40471,296.93889 a 240.52548,240.52548 0 0 0 -91.87455,19.47471 l 7.76209,22.19441 -30.63146,10.75973 c 1.33008,4.7843 3.37482,12.90373 5.26075,23.16715 a 330.35528,330.35528 0 0 0 40.85519,18.22403 L 622.3207,309.12795 a 242.60993,242.60993 0 0 0 -72.91599,-12.18906 z"
       id="path36770"
       style="fill:#d60f3c;stroke-width:1.98519" />
    <path
       class="cls-2"
       d="m 576.66136,498.15764 3.79171,6.49157 h -24.1796 l -68.76695,39.70378 c 1.05214,0.5757 2.10429,1.13155 3.1763,1.66755 l 24.65605,11.91114 c 13.32062,6.37246 25.94642,12.42727 34.06584,16.75499 8.09957,-4.32772 20.72537,-10.38253 34.04599,-16.75499 l 24.65605,-11.91114 c 16.95352,-8.31793 29.4602,-22.1944 37.3017,-41.33163 h -13.36032 l -1.09186,-0.77423 a 268.63576,268.63576 0 0 0 -37.32155,-20.76507 l -19.49455,11.23618 c 1.15141,1.60799 2.02489,2.93807 2.52119,3.77185 z"
       id="path36772"
       style="fill:#008e5c;stroke-width:1.98519" />
    <path
       class="cls-2"
       d="m 653.58743,472.37004 a 199.27326,199.27326 0 0 0 1.62785,-24.79501 l -15.88151,9.21127 c 4.22846,5.00268 9.01276,10.14432 14.25366,15.58374 z"
       id="path36774"
       style="fill:#008e5c;stroke-width:1.98519" />
    <path
       class="cls-4"
       d="m 500.74773,460.26038 -10.81927,-1.50874 15.8815,12.60595 -36.58704,-3.97038 a 27.792644,27.792644 0 0 1 -12.54639,-4.42697 l -12.92357,-7.94075 a 158.65629,158.65629 0 0 0 6.45185,40.77578 c 5.51883,17.72773 14.51174,31.64391 26.80006,41.51029 l 65.63035,-37.8377 a 255.65262,255.65262 0 0 0 -41.88749,-39.20748 z"
       id="path36776"
       style="fill:#ffdd00;stroke-width:1.98519" />
    <path
       class="cls-4"
       d="m 554.82428,467.14899 h -0.63526 c 3.97038,5.12179 9.01276,11.91114 13.34046,17.8667 l 13.36033,-7.70254 c -9.42965,-4.01007 -18.44241,-7.504 -26.06553,-10.16416 z"
       id="path36778"
       style="fill:#ffdd00;stroke-width:1.98519" />
    <path
       class="cls-4"
       d="m 654.52046,425.6784 a 124.21327,124.21327 0 0 1 -23.32596,3.19615 c -1.58816,0.11911 -8.19883,0.15881 -13.6978,0.13896 3.61304,5.18134 8.39734,11.67291 14.31321,18.97841 l 23.20685,-13.34047 c 0,-1.05215 -0.0993,-2.1043 -0.15881,-3.1763 -0.19852,-1.94549 -0.27793,-3.87112 -0.33749,-5.79675 z"
       id="path36780"
       style="fill:#ffdd00;stroke-width:1.98519" />
    <path
       class="cls-4"
       d="m 557.22636,407.25584 a 8.6752754,8.6752754 0 0 1 -2.48149,-6.41216 c 0.33748,-6.59083 8.29809,-10.87884 23.66345,-12.72506 a 166.31912,166.31912 0 0 1 23.32597,-0.91319 c 17.62848,0.67497 39.84274,5.06223 53.6001,11.79203 a 280.38808,280.38808 0 0 1 8.83409,-49.62972 l -30.67116,-10.75973 7.76208,-22.19441 c -6.39231,-2.79912 -12.74491,-5.22105 -18.95855,-7.28565 l -141.54398,81.63097 a 368.59002,368.59002 0 0 0 79.7252,19.11738 15.623437,15.623437 0 0 1 -3.25571,-2.62046 z"
       id="path36782"
       style="fill:#ffdd00;stroke-width:1.98519" />
    <path
       class="cls-4"
       d="m 444.11029,429.70833 c 0,-0.55585 0,-1.13156 0,-1.68741 1.66756,0.61541 3.15645,1.19111 4.38726,1.68741 z"
       id="path36784"
       style="fill:#ffdd00;stroke-width:1.98519" />
  </g>
</svg>
