<?xml version="1.0" encoding="UTF-8" standalone="no"?>
<svg
   xmlns:dc="http://purl.org/dc/elements/1.1/"
   xmlns:cc="http://creativecommons.org/ns#"
   xmlns:rdf="http://www.w3.org/1999/02/22-rdf-syntax-ns#"
   xmlns:svg="http://www.w3.org/2000/svg"
   xmlns="http://www.w3.org/2000/svg"
   xmlns:sodipodi="http://sodipodi.sourceforge.net/DTD/sodipodi-0.dtd"
   xmlns:inkscape="http://www.inkscape.org/namespaces/inkscape"
   width="87.3125mm"
   height="80.207176mm"
   viewBox="0 0 330 303.14523"
   version="1.1"
   id="svg389"
   inkscape:version="1.0.1 (3bc2e813f5, 2020-09-07)"
   sodipodi:docname="sendai.svg">
  <defs
     id="defs383" />
  <sodipodi:namedview
     id="base"
     pagecolor="#ffffff"
     bordercolor="#666666"
     borderopacity="1.0"
     inkscape:pageopacity="0.0"
     inkscape:pageshadow="2"
     inkscape:zoom="0.35"
     inkscape:cx="388.57143"
     inkscape:cy="331.57261"
     inkscape:document-units="px"
     inkscape:current-layer="layer1"
     inkscape:document-rotation="0"
     showgrid="false"
     inkscape:window-width="1267"
     inkscape:window-height="728"
     inkscape:window-x="26"
     inkscape:window-y="0"
     inkscape:window-maximized="0" />
  <metadata
     id="metadata386">
    <rdf:RDF>
      <cc:Work
         rdf:about="">
        <dc:format>image/svg+xml</dc:format>
        <dc:type
           rdf:resource="http://purl.org/dc/dcmitype/StillImage" />
        <dc:title></dc:title>
      </cc:Work>
    </rdf:RDF>
  </metadata>
  <g
     inkscape:label="Layer 1"
     inkscape:groupmode="layer"
     id="layer1"
     transform="translate(13.571429,-188.42739)">
    <path
       class="cls-1"
       d="m 312.01812,241.62727 h -7.25275 c -21.327,0 -38.7728,-10.23226 -58.98248,-22.07188 -24.87496,-14.6035 -53.14107,-31.128 -94.30531,-31.128 -41.16425,0 -69.430359,16.5245 -94.305319,31.128 C 36.962578,231.3166 19.51678,241.62727 -1.8102166,241.62727 H -13.571429 l 0.117612,4.54767 0.215622,7.25275 1.293734,41.45827 a 216.13187,216.13187 0 0 0 13.7214134,69.07752 208.83992,208.83992 0 0 0 33.9114936,58.80605 198.54886,198.54886 0 0 0 50.377195,43.98694 189.17909,189.17909 0 0 0 63.216509,24.4045 l 1.31333,0.25484 0.82329,0.15681 0.82328,-0.15681 1.31334,-0.25484 a 189.17909,189.17909 0 0 0 63.21651,-24.4045 198.54886,198.54886 0 0 0 50.35759,-44.04574 208.83992,208.83992 0 0 0 33.91149,-58.80606 216.13187,216.13187 0 0 0 13.72142,-69.07752 l 1.33294,-41.36026 0.21562,-7.25275 0.11761,-4.54767 z"
       id="path292"
       style="fill:#ffffff;stroke-width:1.9602" />
    <path
       class="cls-2"
       d="m -7.5340066,294.63113 c -0.842887,-25.11018 -1.313335,-41.16424 -1.332937,-41.32106 l -0.19602,-7.27234 h 7.252747 c 22.5227196,0 40.4585676,-10.50669 61.2171076,-22.67955 24.38491,-14.30947 52.023759,-30.52034 92.129489,-30.52034 40.10573,0 67.68577,16.21087 92.12949,30.52034 20.75854,12.17286 38.69439,22.67955 61.21711,22.67955 h 7.25275 l -0.19602,7.27234 c 0,0.15682 -0.49005,16.21088 -1.33294,41.32106 a 211.70181,211.70181 0 0 1 -13.50579,67.66617 204.95872,204.95872 0 0 1 -33.18622,57.61034 194.29522,194.29522 0 0 1 -49.27948,43.02643 184.4354,184.4354 0 0 1 -61.72676,23.83605 l -1.43094,0.21563 -1.31334,-0.25484 A 184.4354,184.4354 0 0 1 88.437481,462.89487 194.29522,194.29522 0 0 1 39.158004,419.90764 204.95872,204.95872 0 0 1 5.9717854,362.2973 211.70181,211.70181 0 0 1 -7.5340066,294.63113 Z"
       id="path294"
       style="fill:#3b4395;stroke-width:1.9602" />
    <path
       class="cls-1"
       d="m 236.84437,234.80576 c -24.05168,-14.11345 -49.00505,-28.69735 -85.36679,-28.69735 -36.36175,0 -61.315119,14.5839 -85.366799,28.69735 -19.60202,11.5456 -38.419959,22.50313 -61.5307396,24.24771 0.215622,6.88031 0.607663,19.15117 1.156519,35.12682 a 196.54945,196.54945 0 0 0 43.6732996,117.33769 181.31868,181.31868 0 0 0 45.927531,40.18414 170.8512,170.8512 0 0 0 56.140189,21.79744 170.8512,170.8512 0 0 0 56.14018,-21.79744 181.31868,181.31868 0 0 0 45.92753,-40.08613 196.54945,196.54945 0 0 0 43.6733,-117.33769 c 0.54886,-15.97565 0.9409,-28.24651 1.15652,-35.12682 -23.11078,-1.84259 -41.83071,-12.80012 -61.53074,-24.34572 z"
       id="path296"
       style="fill:#ffffff;stroke-width:1.9602" />
    <path
       class="cls-2"
       d="m 294.98396,262.05258 -1.03891,32.01009 a 193.31512,193.31512 0 0 1 -42.94802,115.35789 178.37838,178.37838 0 0 1 -45.08465,39.38045 168.40095,168.40095 0 0 1 -54.4348,21.34661 A 168.40095,168.40095 0 0 1 97.042771,448.80101 178.37838,178.37838 0 0 1 51.958121,409.42056 193.1779,193.1779 0 0 1 9.0100984,294.06267 l -1.038907,-32.01009 c 22.4247096,-2.45026 40.5957816,-13.15296 59.8057596,-24.42413 23.67924,-13.87823 48.162159,-28.2269 83.700629,-28.2269 35.53846,0 60.02138,14.34867 83.70062,28.2269 19.20998,11.27117 37.38105,21.97387 59.80576,24.42413 z"
       id="path298"
       style="fill:#3b4395;stroke-width:1.9602" />
    <path
       class="cls-3"
       d="m 199.77695,280.55688 c -10.6831,-6.40986 3.09712,-31.24562 21.56222,-44.53579 -9.80101,-0.84289 -25.93347,10.31067 -40.20374,21.83665 -14.27027,11.52599 -30.99079,13.5646 -33.32343,7.25275 -1.62697,-4.29284 2.66587,-22.2679 55.45411,-42.39917 q -3.48916,-1.56816 -7.11553,-2.94031 a 149.26938,149.26938 0 0 1 -23.11078,7.7036 C 158.71072,230.96377 65.914761,260.79805 21.124146,349.49719 v 0 c 14.701514,-15.89724 49.985145,-27.85447 61.079895,-14.5055 6.89991,8.33085 -7.35076,14.99555 -1.21533,21.40541 6.68429,6.9783 27.874069,-0.33325 37.773089,-6.03744 5.33175,-3.07751 14.62311,-8.7425 14.62311,-15.68161 0,-12.34926 -20.52331,-22.42471 -27.1684,-24.69854 -10.271459,-3.52837 -17.112559,-2.46986 -18.347489,2.64627 -9.97743,-13.01573 1.9602,-26.32551 20.248889,-28.22691 2.27383,-3.07751 6.88031,-5.21414 11.97683,-5.88061 14.25067,-1.9602 43.47728,1.43095 50.31839,0.8625 a 44.829819,44.829819 0 0 1 -7.84081,5.41015 c 12.6825,3.13632 32.50015,11.54559 47.18206,14.11345 a 62.942085,62.942085 0 0 1 -11.11435,4.37126 c 34.95041,13.83902 69.52837,9.36977 93.36442,-8.93853 v -0.17641 l 0.99971,-30.26551 a 109.18325,109.18325 0 0 1 -33.71548,-10.80072 c -28.08969,27.07039 -51.14167,32.48055 -59.51173,27.46243 z"
       id="path300"
       style="fill:#d20a11;stroke-width:1.9602" />
    <path
       class="cls-3"
       d="m 129.01366,427.65044 a 119.31749,119.31749 0 0 0 -46.574399,8.7229 q 5.66499,4.37125 11.76121,8.27205 c 9.918629,-8.62489 22.405109,-13.38818 34.813189,-16.99495 z"
       id="path302"
       style="fill:#d20a11;stroke-width:1.9602" />
    <path
       class="cls-3"
       d="m 204.91268,447.15444 a 176.41818,176.41818 0 0 0 44.57499,-38.94921 182.4556,182.4556 0 0 0 14.5643,-20.60172 c -9.25215,7.07633 -19.26878,14.17226 -35.0092,24.89457 -10.34987,7.05672 -29.91269,14.6231 -43.12445,18.97475 -15.87763,5.25334 -32.44134,21.56222 -34.30353,36.65578 a 166.16632,166.16632 0 0 0 53.29789,-20.97417 z"
       id="path304"
       style="fill:#d20a11;stroke-width:1.9602" />
    <path
       class="cls-4"
       d="m 202.54084,277.51857 c 5.8806,4.17523 23.3068,-2.66588 38.49836,-18.81794 3.21473,-3.43035 6.15504,-6.89991 8.87972,-10.40867 -3.52837,-1.9602 -7.05673,-3.92041 -10.6047,-5.99822 -0.92129,0.68607 -1.9602,1.37214 -2.9795,2.11701 -7.21355,4.88091 -14.09385,8.40926 -24.48292,15.52481 -9.27176,6.33145 -13.545,14.6231 -9.31096,17.58301 z"
       id="path306"
       style="fill:#fdc300;stroke-width:1.9602" />
    <path
       class="cls-4"
       d="m 155.49599,262.97387 c 1.9602,2.23463 18.66112,-1.17612 40.87021,-25.48263 a 40.223344,40.223344 0 0 1 15.4856,-10.58509 c -1.17613,-0.60766 -2.39145,-1.17612 -3.58717,-1.76418 -6.99793,2.07781 -13.72142,4.21443 -19.83725,6.72349 -26.09029,10.60469 -36.57737,26.87437 -32.93139,31.10841 z"
       id="path308"
       style="fill:#fdc300;stroke-width:1.9602" />
    <path
       class="cls-4"
       d="m 19.81081,345.51798 a 193.21711,193.21711 0 0 1 -8.860112,-51.51411 c 0,0 -0.784081,-23.52243 -0.9997026,-30.26552 21.9542606,-2.8815 39.9097106,-13.34898 58.8060556,-24.44372 23.52243,-13.72142 47.691719,-27.97209 82.720529,-27.97209 a 124.66884,124.66884 0 0 1 14.07425,0.82329 C 84.575881,236.31512 43.352836,301.45264 19.81081,345.51798 Z m 9.154144,-71.07693 H 13.577368 l 12.447283,9.05614 -4.743689,14.6427 12.447282,-9.03653 12.486487,9.05614 -4.763291,-14.66231 12.466881,-9.05614 H 38.491535 l -4.763291,-14.68191 z"
       id="path310"
       style="fill:#fdc300;stroke-width:1.9602" />
    <path
       class="cls-4"
       d="m 288.24087,325.87675 a 193.31512,193.31512 0 0 1 -7.05673,25.48263 90.404514,90.404514 0 0 0 -41.49748,33.69587 c -17.87704,26.32551 -21.56222,34.22512 -58.04158,41.16424 -24.60053,4.68488 -45.86872,15.11316 -56.66944,34.22512 a 166.26433,166.26433 0 0 1 -20.75853,-9.70299 c 8.31125,-11.48679 21.77784,-18.32789 47.33887,-25.93348 -31.65726,-2.58746 -56.395009,0 -74.762099,7.01753 a 179.73092,179.73092 0 0 1 -23.2676,-23.52243 187.25809,187.25809 0 0 1 -31.363228,-56.06177 c 18.092664,-16.85774 40.203738,-19.50401 45.927528,-15.21117 9.13454,6.8411 -3.80279,15.68162 11.6044,26.1883 15.40719,10.50667 36.322539,3.56756 47.182059,-1.54857 9.80101,-4.54767 17.64182,-11.97682 17.64182,-20.52332 0,-14.25066 -18.15147,-25.77665 -25.83546,-31.36323 a 15.5248,15.5248 0 0 0 6.31185,-2.21502 22.581527,22.581527 0 0 1 -12.72171,-18.15148 c 0,-0.21562 0,-0.43124 0,-0.64686 0,-5.13572 3.78319,-7.35075 13.21176,-7.35075 8.82091,0 24.58093,1.9602 30.34392,2.15622 l -5.27294,2.92069 c 12.19246,1.27415 32.73537,11.97684 40.57618,14.25068 -2.86189,0.66647 -10.27146,1.96019 -14.81913,2.37184 28.99139,25.60024 74.99733,36.26374 111.92754,22.75795 z m -152.71934,-38.96881 -20.20968,0.47044 1.82299,1.96021 a 6.8607069,6.8607069 0 0 0 11.76121,3.9204 c 0.13721,-0.13721 0.25482,-0.31363 0.39204,-0.47045 l 4.31244,-2.15622 c 0.39204,-0.19602 0.39204,-0.52925 0,-0.74488 l -0.94089,-0.52925 3.17552,-1.48975 c 1.11732,-0.54886 1.01931,-0.99971 -0.31363,-0.9605 z"
       id="path312"
       style="fill:#fdc300;stroke-width:1.9602" />
    <path
       class="cls-1"
       d="m 113.05762,298.37512 a 23.267597,23.267597 0 0 0 7.8408,8.27205 c -4.64567,0.76448 -9.97742,0 -16.72052,-1.05851 -6.743089,-1.05851 -14.740719,-0.56846 -16.720519,4.29284 -5.13573,-13.11375 7.40956,-21.20938 21.954259,-22.15028 1.76418,0.0392 0.21562,4.76329 3.64598,10.6439 z"
       id="path314"
       style="fill:#ffffff;stroke-width:1.9602" />
    <polygon
       class="cls-1"
       points="169.77,86.57 177.63,86.57 180.07,79.08 182.5,86.57 190.35,86.57 184,91.19 186.42,98.67 180.06,94.05 173.7,98.67 176.13,91.19 "
       id="polygon316"
       transform="matrix(1.960202,0,0,1.960202,-83.746659,104.74636)"
       style="fill:#ffffff" />
    <path
       class="cls-1"
       d="m 127.83754,289.37779 h -1.72498 a 2.7246807,2.7246807 0 0 1 0.17642,0.90169 2.665875,2.665875 0 1 1 -5.33175,0 2.4894565,2.4894565 0 0 1 0.11761,-0.76447 h -1.11731 a 4.3516484,4.3516484 0 0 0 0,0.72527 4.038016,4.038016 0 1 0 8.07603,0 3.9204039,3.9204039 0 0 0 -0.19602,-0.86249 z"
       id="path318"
       style="fill:#ffffff;stroke-width:1.9602" />
    <path
       class="cls-2"
       d="m 127.68072,410.02822 v 0 c 0,0.9801 0.86249,1.52896 2.58747,1.52896 1.31334,0 1.9602,-0.39204 1.9602,-1.09771 0,-0.70568 -0.56846,-0.82329 -1.76418,-0.9605 l -1.56816,-0.15682 c -2.27384,-0.23522 -3.37155,-0.9997 -3.37155,-2.50906 0,-1.50935 1.60737,-2.9599 4.29284,-2.9599 2.68548,0 4.44966,1.15652 4.44966,2.9011 v 0 h -2.23463 c -0.098,-0.88209 -0.82328,-1.33294 -2.17582,-1.33294 -1.35254,0 -1.9602,0.39204 -1.9602,1.01929 0,0.62728 0.56845,0.76449 1.80338,0.8821 l 1.64657,0.17642 c 2.25423,0.25483 3.33234,1.05851 3.33234,2.62667 0,1.96021 -1.60736,3.03832 -4.74368,3.03832 -3.13633,0 -4.60648,-1.17612 -4.60648,-3.13633 v -0.19602 z"
       id="path320"
       style="fill:#3b4395;stroke-width:1.9602" />
    <path
       class="cls-2"
       d="m 141.53935,404.20642 h 7.84081 v 1.82299 h -5.68459 v 1.48975 h 5.05732 v 1.82299 h -5.05732 v 1.9602 h 5.8218 v 1.82299 h -7.8408 z"
       id="path322"
       style="fill:#3b4395;stroke-width:1.9602" />
    <path
       class="cls-2"
       d="m 156.47609,404.20642 h 2.72468 l 4.46926,6.29225 v -6.29225 h 2.13662 v 8.91892 h -2.70508 l -4.50846,-6.35105 v 6.35105 h -2.11702 z"
       id="path324"
       style="fill:#3b4395;stroke-width:1.9602" />
    <path
       class="cls-2"
       d="m 180.46896,404.79448 a 4.6652807,4.6652807 0 0 1 0,7.84081 6.8215028,6.8215028 0 0 1 -3.44995,0.58806 h -3.97921 v -8.91892 h 3.9204 a 6.8215028,6.8215028 0 0 1 3.50876,0.49005 z m -5.13573,6.50787 h 1.72498 c 2.07781,0 3.13632,-0.9605 3.13632,-2.66587 0,-1.70538 -1.05851,-2.60708 -3.13632,-2.60708 h -1.72498 z"
       id="path326"
       style="fill:#3b4395;stroke-width:1.9602" />
    <path
       class="cls-2"
       d="m 191.40689,404.20642 h 2.13662 l 4.05762,8.91892 h -2.46986 l -0.82328,-1.9602 h -3.92041 l -0.80368,1.9602 h -2.41105 z m 2.09742,5.21414 -1.19573,-2.74428 -1.15652,2.74428 z"
       id="path328"
       style="fill:#3b4395;stroke-width:1.9602" />
    <path
       class="cls-2"
       d="m 203.89338,404.20642 h 2.23463 v 8.91892 h -2.23463 z"
       id="path330"
       style="fill:#3b4395;stroke-width:1.9602" />
    <path
       class="cls-2"
       d="m 237.49124,395.52273 h -0.11762 c -1.0389,-0.11762 -1.35253,-0.15683 -2.17582,-2.68548 l -5.42976,-17.81825 0.29403,-0.11761 0.47045,-0.21561 V 369.158 h -57.88476 v 5.62578 l 0.62726,0.11761 c 0.9605,0.21563 1.11732,0.50965 1.11732,2.21504 v 13.81942 l -1.35254,-4.11642 -2.95991,-9.80102 -0.62726,-2.07781 0.29403,-0.11761 0.47045,-0.21562 v -5.52777 h -16.38729 v 5.46897 l 0.47045,0.23522 0.31363,0.13721 c -0.50965,1.58777 -2.62667,8.01723 -4.07722,12.44729 V 371.9807 l -0.43125,-0.23522 -0.9997,-0.50966 a 24.130086,24.130086 0 0 0 -11.09474,-2.68547 14.701515,14.701515 0 0 0 -7.7036,1.9602 13.035343,13.035343 0 0 0 -3.9204,3.80279 l -1.15652,-5.29254 H 109.0196 a 17.641818,17.641818 0 0 1 4.58687,-2.80309 l 1.13692,-0.47045 0.49005,-0.19602 v -5.97862 l -0.9605,0.21563 -2.25423,0.49005 a 40.517375,40.517375 0 0 0 -21.307399,11.52598 19.347193,19.347193 0 0 0 -5.01811,10.09504 l -1.9602,-5.19453 c -0.37244,-1.03891 -0.33324,-1.31334 -0.31364,-1.37214 0.0196,-0.0588 0.23523,-0.17642 1.17612,-0.17642 h 0.78408 V 369.158 h -20.73893 v 5.97863 l 0.58806,0.11761 1.48975,0.29403 c 0.86249,0.17642 1.15652,0.49004 2.19543,3.37155 l 12.78052,35.12682 0.96049,2.66587 2.60707,-1.15652 a 22.816751,22.816751 0 0 0 11.76121,-12.17285 48.613009,48.613009 0 0 0 3.430359,-14.11346 v 0 a 42.810811,42.810811 0 0 1 2.60707,-11.07514 v 15.32878 c 0,1.78378 0,1.78378 -1.01931,1.96019 v 0 l -0.62726,0.13723 v 5.8806 h 23.52242 c 0,0 1.09771,-3.9204 1.54856,-5.46897 a 15.936442,15.936442 0 0 0 1.47015,1.76418 14.07425,14.07425 0 0 0 10.17345,3.92042 c 0.56846,0 1.19572,0 1.9602,0 1.19572,0 2.70508,-0.15682 4.54767,-0.15682 h 14.21146 v -5.88061 h -0.68607 v 0 c -0.35283,0 -0.86249,-0.13722 -0.94089,-0.27443 -0.0784,-0.13721 -0.17642,-0.33323 0.19602,-1.43094 l 0.70567,-2.27384 c 2.54826,0.72528 3.9204,2.35225 3.9204,3.72439 a 3.6067716,3.6067716 0 0 1 -1.15652,0.23522 h -0.70567 v 5.88061 h 58.80606 v -5.88061 h -0.68607 v 0 c -0.35284,0 -0.84289,-0.13721 -0.9409,-0.27443 -0.098,-0.13721 -0.17642,-0.33323 0.19602,-1.43094 l 0.70568,-2.27384 c 2.54826,0.72528 3.9204,2.35224 3.9204,3.72438 a 3.5871696,3.5871696 0 0 1 -1.13692,0.23523 h -0.72527 v 5.88061 h 17.73983 v -5.88061 z m -29.16781,-0.9017 q 0,-0.52925 0,-1.64657 v -14.62311 a 6.2922483,6.2922483 0 0 1 1.84259,3.27355 l 0.45085,1.64656 0.19602,0.70568 1.33294,-0.25484 -2.62667,8.05644 a 12.270864,12.270864 0 0 1 -1.19573,2.84229 z m -16.07365,-10.78111 0.72527,0.13722 0.19602,-0.70568 0.47045,-1.64656 a 6.1550342,6.1550342 0 0 1 1.82299,-3.27355 v 6.7039 l -1.37214,-0.52926 -0.27443,0.76448 -0.66647,1.74458 c -1.58776,4.29284 -3.50876,6.44907 -5.66498,6.44907 h -0.19603 c 0,-0.37244 0,-0.99971 0,-1.9602 v -8.6641 l 0.52926,0.11761 z m -54.49362,2.46986 a 13.290169,13.290169 0 0 1 0,1.64657 v 4.43004 a 11.761212,11.761212 0 0 1 -1.84259,-6.46866 l 0.45085,0.098 z m 6.17464,-6.31186 h -7.13514 a 6.0962281,6.0962281 0 0 1 1.31334,-2.11701 3.038313,3.038313 0 0 1 2.19542,-0.9801 h 0.11762 c 1.52895,0 2.78348,1.13692 3.56756,3.09711 z m -27.97208,13.42739 c 0,-0.23522 0,-0.60766 0,-1.17613 v -4.05761 a 8.1544402,8.1544402 0 0 1 0.84288,2.15622 l 0.37244,1.37215 0.15682,0.58806 h 1.9602 a 3.7243837,3.7243837 0 0 1 -2.84229,1.11731 z m 0,-14.5447 v -1.66617 a 3.9204039,3.9204039 0 0 1 0.68607,0 5.8806059,5.8806059 0 0 1 -0.66647,1.66617 z m 7.50757,5.62578 -0.66647,1.58776 v -2.50905 h 0.21562 l 0.49005,-0.13723 c 0,0.31365 0,0.68608 -0.0196,1.05852 z m 64.90229,-9.605 c -0.47045,2.56787 -0.9605,5.33176 -0.9605,5.33176 0,0 -0.13722,0.74487 -0.21563,1.25452 v -4.39085 c 0.0196,-1.9602 0.23523,-2.07782 1.19573,-2.19543 z"
       id="path332"
       style="fill:#3b4395;stroke-width:1.9602" />
    <path
       class="cls-1"
       d="M 234.43332,393.07247 228.90555,374.921 v -0.19602 a 0.25482625,0.25482625 0 0 1 0.11761,-0.25482 l 0.76448,-0.33324 v -4.19483 h -14.77992 v 4.15563 l 0.80368,0.37244 a 0.23522424,0.23522424 0 0 1 0.13722,0.17642 c 0,0 0,0 0,0.15681 v 0 0 l -0.86249,2.64628 -1.39174,-7.56638 h -23.52243 l -1.9602,10.42827 -0.31363,1.80339 4.48886,0.88209 0.45085,-1.64657 c 0.82328,-2.94031 2.13662,-3.92041 3.41075,-4.35165 v 9.09534 l -1.70538,-0.64687 -0.64686,1.76418 c -1.72498,4.62608 -3.92041,6.95872 -6.42947,6.95872 a 2.2542323,2.2542323 0 0 1 -0.84288,-0.098 9.036531,9.036531 0 0 1 -0.21563,-2.62667 v -14.40749 c 0,-1.9602 0.21563,-2.80309 1.96021,-2.99911 v -4.15562 h -14.87794 v 4.15562 c 1.60737,0.35284 1.74458,1.31334 1.74458,2.99911 v 16.40689 a 17.641818,17.641818 0 0 1 0,2.05822 13.87823,13.87823 0 0 1 -0.92129,-2.48946 l -5.52777,-18.15147 v -0.19602 a 0.21562222,0.21562222 0 0 1 0.11761,-0.25483 l 0.76448,-0.33323 v -4.19483 h -14.77992 v 4.15562 l 0.80368,0.37244 a 0.23522424,0.23522424 0 0 1 0.13721,0.17642 c 0,0 0,0 0,0.15682 v 0 0 l -5.60617,17.17137 a 3.6655777,3.6655777 0 0 0 -0.13722,0.43124 v -19.81764 l -1.0193,-0.52926 a 23.522424,23.522424 0 0 0 -10.72231,-2.58746 12.800119,12.800119 0 0 0 -12.07484,7.19394 l -1.13692,-5.21414 -0.31363,-1.45055 h -17.64182 a 18.171072,18.171072 0 0 1 6.29225,-4.33204 l 1.13692,-0.47045 v -4.62608 l -2.23463,0.49005 a 39.7921,39.7921 0 0 0 -20.954559,11.34957 17.916246,17.916246 0 0 0 -4.99852,12.17285 c 0,0.52926 0,1.07812 0,1.60737 l -3.33234,-9.15414 c -0.66647,-1.96021 -0.54886,-2.60707 1.60736,-2.62667 v -4.41046 h -19.24918 v 4.50847 l 1.48975,0.29403 c 1.35254,0.25482 1.76419,1.0193 2.80309,3.9204 l 12.76092,35.12682 0.68607,1.9602 1.80338,-0.80368 a 21.993466,21.993466 0 0 0 11.38878,-11.76121 47.044847,47.044847 0 0 0 3.37155,-13.89784 v 0 a 44.398574,44.398574 0 0 1 3.920399,-14.42708 v 0 a 11.623998,11.623998 0 0 1 0.13721,2.31304 v 16.40689 c 0,2.46985 -0.25482,2.46985 -1.74458,2.80309 v 4.35164 h 22.07188 l 1.9602,-6.66468 a 13.074547,13.074547 0 0 0 2.31304,3.19513 13.231363,13.231363 0 0 0 9.60499,3.70478 c 0.52925,0 1.17612,0 1.9602,0 1.19572,0 2.72468,-0.15682 4.58687,-0.15682 h 13.40778 v -4.35165 c -1.17612,-0.17641 -2.21502,-0.29403 -1.43094,-2.74428 l 0.94089,-2.9599 c 3.44996,0.68607 5.31215,2.86189 5.31215,4.80249 0,0.66647 -1.09771,0.80368 -1.86219,0.90169 v 4.27324 h 57.2771 v -4.35164 c -1.17612,-0.17642 -2.21503,-0.29403 -1.43095,-2.74429 l 0.9409,-2.9599 c 3.44995,0.68607 5.31215,2.86189 5.31215,4.80249 0,0.66647 -1.09772,0.80369 -1.96021,0.9017 v 4.35164 h 16.13247 v -4.35164 c -1.13692,-0.23523 -1.74458,-0.21563 -2.76389,-3.31275 z M 115.17463,377.74369 a 7.2723493,7.2723493 0 0 1 0,-1.31333 h 0.56846 a 7.95842,7.95842 0 0 1 1.96021,0.21562 l -0.098,0.33323 c -0.64687,2.43065 -1.29374,3.13633 -2.41105,3.31275 z m 1.31334,16.4853 a 2.6070686,2.6070686 0 0 1 -1.11732,-0.13722 4.7044847,4.7044847 0 0 1 -0.19602,-1.84259 v -5.42975 c 1.11732,0.19601 1.76419,0.88209 2.41105,3.31273 l 0.37244,1.37215 h 3.03831 a 5.018117,5.018117 0 0 1 -4.50846,2.72468 z m 7.84081,-9.56578 -1.07811,2.50906 c -0.41165,0.9801 -0.82329,1.84258 -1.19573,2.58745 v -9.19333 l 0.23523,0.60766 0.58806,1.56816 1.58776,-0.39204 a 17.877042,17.877042 0 0 0 -0.17642,2.31304 z m 12.34927,-3.92042 v 4.43007 l 1.47015,0.31363 a 0.96049896,0.96049896 0 0 1 0.37244,0.13722 7.978022,7.978022 0 0 1 0.19602,2.27383 v 3.9204 a 10.369468,10.369468 0 0 1 -0.15682,2.23464 c -0.96049,-0.49005 -3.31274,-3.15593 -3.31274,-8.95813 a 11.114345,11.114345 0 0 1 2.39145,-7.84081 3.9204039,3.9204039 0 0 1 2.76388,-1.21533 h 0.11762 c 2.09741,0 3.80279,1.74459 4.62607,4.70448 z m 73.60558,11.29078 c -0.88209,2.68547 -1.27413,3.50875 -2.21502,3.78319 v 0 h -0.25483 a 10.232254,10.232254 0 0 1 -0.21562,-2.80309 v -15.91684 c 1.27413,0.35283 2.56786,1.41134 3.39115,4.35165 l 0.47045,1.64657 1.9602,-0.39204 z"
       id="path334"
       style="fill:#ffffff;stroke-width:1.9602" />
    <path
       class="cls-2"
       d="m 112.58717,362.82656 a 37.55747,37.55747 0 0 0 -19.915649,10.78111 16.01485,16.01485 0 0 0 -4.50847,10.91832 15.269973,15.269973 0 0 0 0.82329,4.93971 l 2.99911,8.25245 a 7.8408078,7.8408078 0 0 1 -0.80369,7.03713 l -9.80101,-27.1684 a 9.8010098,9.8010098 0 0 1 -0.60766,-2.76389 c 0,-1.25452 0.72528,-1.9602 2.11702,-1.9602 v -1.11731 h -15.58361 v 1.11731 c 2.46986,0.49005 3.15593,2.27384 4.15563,5.07693 l 12.78052,35.12681 a 20.150876,20.150876 0 0 0 10.38907,-10.7027 46.162756,46.162756 0 0 0 3.27354,-13.38818 46.20196,46.20196 0 0 1 4.312439,-15.36798 20.229284,20.229284 0 0 1 10.36947,-9.80101 z"
       id="path336"
       style="fill:#3b4395;stroke-width:1.9602" />
    <path
       class="cls-2"
       d="m 222.71131,387.54471 -2.66587,-9.80101 -2.54826,7.8408 a 10.506683,10.506683 0 0 1 5.21413,1.96021 z m -14.50549,10.11464 c 2.23463,-0.47045 2.84229,-2.25424 3.76359,-5.05732 l 5.60618,-17.17137 a 3.6263736,3.6263736 0 0 0 0.21562,-1.15652 1.4309474,1.4309474 0 0 0 -0.9801,-1.35254 v -1.11732 h 11.11434 v 1.11732 a 1.4701515,1.4701515 0 0 0 -0.9801,1.21532 4.3516484,4.3516484 0 0 0 0.21562,1.29374 l 5.54737,18.19067 c 0.78409,2.58747 1.29374,3.92041 2.8619,4.03802 v 1.11731 h -12.42768 v -1.13691 a 1.960202,1.960202 0 0 0 1.9602,-2.25424 c 0,-3.29314 -3.23433,-6.48827 -8.44847,-6.8411 l -1.41135,4.44966 a 9.8010098,9.8010098 0 0 0 -0.54885,2.74428 1.6857737,1.6857737 0 0 0 1.9602,1.9602 v 1.0781 h -20.85655 v -1.1369 c 2.07782,-0.15682 2.29344,-1.56817 2.29344,-4.68489 v -17.93585 h -0.47045 c -3.31274,0 -5.46896,1.96021 -6.56668,5.88061 l -1.0193,-0.19602 1.60736,-8.89932 h 20.3861 l 1.62697,8.89932 -1.0193,0.19602 c -1.09772,-3.9204 -3.25394,-5.88061 -6.56668,-5.88061 h -0.47045 v 17.87705 c 0,3.23433 0.25483,4.56727 2.25423,4.68488 z"
       id="path338"
       style="fill:#3b4395;stroke-width:1.9602" />
    <path
       class="cls-2"
       d="m 124.91684,387.91714 c -2.41105,5.54737 -4.43006,8.17404 -8.42887,8.17404 -2.62667,0 -3.17553,-0.9801 -3.17553,-3.9204 v -7.33116 h 0.9213 c 3.01871,0 4.25364,1.37215 5.17493,4.74369 h 0.70567 v -12.23167 h -0.76448 c -0.92129,3.35195 -2.15622,4.72409 -5.17493,4.72409 h -0.90169 v -4.41045 c 0,-2.31304 0.29403,-3.19513 2.50906,-3.19513 a 8.2132462,8.2132462 0 0 1 8.25245,6.07662 l 0.94089,-0.25482 -1.86219,-8.48768 h -19.01396 v 1.11732 c 1.68578,0.33323 1.74458,1.50935 1.74458,4.17523 v 16.40689 c 0,2.66587 0,3.9204 -1.74458,4.15563 v 1.11731 h 18.83754 l 2.95991,-10.56549 z"
       id="path340"
       style="fill:#3b4395;stroke-width:1.9602" />
    <path
       class="cls-2"
       d="m 162.47431,387.54471 -2.66588,-9.80101 -2.54826,7.8408 a 10.506683,10.506683 0 0 1 5.21414,1.96021 z m -14.5055,10.11464 c 2.21503,-0.47045 2.8423,-2.25424 3.76359,-5.05732 l 5.60618,-17.17137 a 3.6263736,3.6263736 0 0 0 0.21562,-1.15652 1.4309474,1.4309474 0 0 0 -0.9801,-1.35254 v -1.11732 h 11.07514 v 1.11732 a 1.4309474,1.4309474 0 0 0 -0.9801,1.21532 4.3516484,4.3516484 0 0 0 0.21562,1.29374 l 5.52777,18.19067 c 0.80368,2.58747 1.31334,3.92041 2.8815,4.03802 1.68577,-0.31364 1.74458,-1.48976 1.74458,-4.15563 v -16.40689 c 0,-2.66588 0,-3.92041 -1.74458,-4.17523 v -1.11732 h 11.19275 v 1.11732 c -1.78378,0.41164 -1.9602,1.58776 -1.9602,4.17523 v 14.40748 c 0,2.95991 0,4.58688 2.9207,4.58688 q 5.07692,0 8.15444,-8.17405 l 0.84289,0.31364 -2.64627,10.54588 h -30.93199 v -1.13691 a 1.960202,1.960202 0 0 0 1.9602,-2.25424 c 0,-3.29314 -3.23433,-6.48827 -8.44847,-6.8411 l -1.43095,4.44966 a 10.565489,10.565489 0 0 0 -0.54885,2.74428 1.7053757,1.7053757 0 0 0 1.9602,1.9602 v 1.0781 h -11.54559 c -3.13632,0 -5.33175,0.25484 -6.56668,0.25484 -7.46837,0 -11.93763,-5.33175 -11.93763,-13.4862 v -0.82328 c 0,-8.13483 4.46926,-13.46658 11.93763,-13.46658 a 21.444609,21.444609 0 0 1 9.80101,2.39144 v 7.05673 h -0.9801 c -1.03891,-4.31244 -3.66558,-6.46867 -6.50787,-6.46867 h -0.11761 c -3.68518,0 -6.99792,3.60678 -6.99792,10.89873 0,7.29195 3.43035,10.89871 5.37095,10.89871 1.47015,0 1.80339,-1.47015 1.80339,-4.17522 v -3.9204 c 0,-2.60707 -0.15682,-3.8224 -1.96021,-4.21445 v -1.09771 h 9.46778 z"
       id="path342"
       style="fill:#3b4395;stroke-width:1.9602" />
  </g>
</svg>
