<svg xmlns="http://www.w3.org/2000/svg" viewBox="0 0 139.52 135.66" width="321" height="312"><defs><style>.cls-1{fill:#fff;}.cls-2{fill:#e60012;}.cls-3{fill:#fdd000;}</style></defs><title>アセット 1</title><g><g><path class="cls-1" d="M124.88,119.84h-.37l-.38-.16c-9.32-4.29-18.64-9-27.71-13.92A4,4,0,0,1,96,106c-1.21,1.61-2,2.23-3,2.23a1.84,1.84,0,0,1-.89-.23l-.36-.2c-1.31-.73-1-2.29-.67-3.43a3.73,3.73,0,0,1,0-1.63A430.34,430.34,0,0,1,12.91,46.26a8,8,0,0,1-2.26-7.56L11.28,36l2.1,1.89a421.81,421.81,0,0,0,77.7,55.35l2.18,1.22,1.85,1a3.59,3.59,0,0,1,1.42-.83,3.32,3.32,0,0,1,2.37-1.47,1.85,1.85,0,0,1,.9.23l.35.2c1.57.88.92,2.9.35,4.34a3.92,3.92,0,0,1,0,.48c8.89,4.86,18,9.44,27.15,13.64a1.75,1.75,0,0,1,.93,1c.11.3.45,1.19-.71,3.71-1.41,3.08-2.51,3.08-3,3.08Z"/><path class="cls-1" d="M14.64,119.84c-.47,0-1.57,0-3-3.08a11.16,11.16,0,0,1-.72-2c-.42-1.8.41-2.48.94-2.73C21,107.85,30.13,103.27,39,98.4a3.92,3.92,0,0,1,0-.48c-.57-1.44-1.22-3.47.34-4.34l.36-.2a1.85,1.85,0,0,1,.9-.23A3.35,3.35,0,0,1,43,94.62a3.59,3.59,0,0,1,1.42.83l1.78-1,2.25-1.26a421.81,421.81,0,0,0,77.7-55.35l2.1-1.89.63,2.75a8,8,0,0,1-2.22,7.52,430.78,430.78,0,0,1-78.19,56.56,3.9,3.9,0,0,1-.05,1.63c.36,1.14.64,2.71-.68,3.43l-.35.2a1.84,1.84,0,0,1-.89.23c-.93,0-1.76-.62-3-2.23-.14-.08-.28-.18-.42-.28-9.06,4.95-18.38,9.63-27.71,13.92l-.33.15Z"/><path class="cls-1" d="M69.76,135.66a78.56,78.56,0,0,1-69-41L0,93.27l1.41-.81L7,89.25A65.79,65.79,0,0,1,4.1,72.64l-.13-3,2.62,1.51L16.71,77l4.87-5.81a29.87,29.87,0,0,1-.25-3.78V58.63a7.11,7.11,0,0,1-1-8.34,2,2,0,0,0,.11-.2,2.12,2.12,0,0,0-.11-.21,7.11,7.11,0,0,1,1-8.34V8.88l1.12-.39C34.85,4.19,48.69,0,69.48,0A145.22,145.22,0,0,1,117.1,8.5l1.08.4V41.54a7.09,7.09,0,0,1,1.93,4.86,7.17,7.17,0,0,1-.91,3.48,2.12,2.12,0,0,0-.11.21l.11.2a7.17,7.17,0,0,1,.91,3.48,7.1,7.1,0,0,1-1.93,4.86v8.75a29.74,29.74,0,0,1-.24,3.78L122.81,77l10.12-5.85,2.62-1.51-.13,3a65.79,65.79,0,0,1-2.86,16.61l5.55,3.21,1.41.81-.78,1.42a78.56,78.56,0,0,1-69,41ZM29.16,92.83A53.83,53.83,0,0,0,68,111.17l-32-18.49a28.26,28.26,0,0,1-2.69-1.76l-.79.37-3.3,1.54Zm77.11-1.91a29.43,29.43,0,0,1-2.68,1.76l-32,18.49a53.83,53.83,0,0,0,38.8-18.34l-3.3-1.54-.79-.37Z"/><path d="M98.6,99.27q14,7.71,28.34,14.28c.26.11,0,1.24-.59,2.52s-1.27,2.21-1.52,2.09q-14.49-6.64-28.69-14.45a2.67,2.67,0,0,1-1.22,1c-.93,1.31-1.68,2.06-2,1.9l-.36-.2c-.25-.13-.1-.94.34-2.13-.4-.22-.35-1.12,0-2.3A428.08,428.08,0,0,1,14,45a6.33,6.33,0,0,1-1.76-6,423.16,423.16,0,0,0,78,55.57c1.49.82,3.41,1.91,5.15,2.87.8-1,1.53-1.49,1.92-1.27.79-1,1.4-1.55,1.65-1.41l.36.19c.29.17,0,1.21-.57,2.69A2.65,2.65,0,0,1,98.6,99.27Z"/><path d="M94,99.63A13.66,13.66,0,0,1,95,98l-1.73-1a15.76,15.76,0,0,0-1.82,3.29l1.72,1A15.29,15.29,0,0,1,94,99.63Zm-2.3-1.29L89,96.81A425,425,0,0,1,14.18,43a6.14,6.14,0,0,1-1.43-2.3,5.73,5.73,0,0,0,1.71,3.89,427.35,427.35,0,0,0,76.45,55.49A11.32,11.32,0,0,1,91.71,98.34Zm7.17,2.23-1.28,1-.21,1.63,1.28-1Zm2,1.08-1.27,1-.2,1.63,1.26-1Zm2,1.07-1.26,1-.2,1.63,1.27-1.05Zm2,1.06-1.26,1-.18,1.63,1.26-1Zm2,1-1.26,1.06-.17,1.63,1.25-1.06Zm2,1-1.25,1.06-.17,1.64,1.25-1.07Zm2,1L109.65,108l-.16,1.63,1.24-1.07Zm2,1L111.68,109l-.15,1.64,1.23-1.08Zm2,1L113.71,110l-.14,1.63,1.23-1.08Zm2,1L115.75,111l-.13,1.64,1.22-1.09Zm2,1-1.22,1.1-.12,1.63,1.22-1.1Zm2,1L119.84,113l-.12,1.63,1.22-1.1Zm2,1L121.89,114l-.1,1.63,1.2-1.11Z"/><path d="M40.92,99.27q-14,7.71-28.34,14.28c-.26.11,0,1.24.59,2.52s1.27,2.21,1.52,2.09q14.49-6.64,28.69-14.45a2.67,2.67,0,0,0,1.22,1c.93,1.31,1.68,2.06,2,1.9l.36-.2c.25-.13.1-.94-.34-2.13.4-.22.35-1.12,0-2.3A427.75,427.75,0,0,0,125.49,45a6.36,6.36,0,0,0,1.76-6,423.16,423.16,0,0,1-78,55.57c-1.49.82-3.41,1.91-5.15,2.87-.8-1-1.53-1.49-1.92-1.27-.79-1-1.4-1.55-1.65-1.41l-.36.19c-.29.17,0,1.21.56,2.69A2.77,2.77,0,0,0,40.92,99.27Z"/><path d="M45.51,99.63a13.66,13.66,0,0,0-1-1.59l1.73-1A15.31,15.31,0,0,1,48,100.37l-1.72,1A15.29,15.29,0,0,0,45.51,99.63Zm2.3-1.29,2.7-1.53A425,425,0,0,0,125.34,43a6.14,6.14,0,0,0,1.43-2.3,5.73,5.73,0,0,1-1.71,3.89,427.35,427.35,0,0,1-76.45,55.49A11.32,11.32,0,0,0,47.81,98.34Zm-7.17,2.23,1.28,1,.21,1.63-1.28-1Zm-2,1.08,1.27,1,.2,1.63-1.27-1Zm-2,1.07,1.26,1,.2,1.63-1.27-1.05Zm-2,1.06,1.26,1,.18,1.63-1.26-1Zm-2,1,1.26,1.06.17,1.63-1.25-1.06Zm-2,1,1.25,1.06.17,1.64-1.25-1.07Zm-2,1L29.87,108,30,109.6l-1.25-1.07Zm-2,1L27.84,109l.15,1.64-1.23-1.08Zm-2,1L25.81,110l.14,1.63-1.23-1.08Zm-2,1L23.77,111l.13,1.64-1.22-1.09Zm-2,1,1.22,1.1.12,1.63-1.22-1.1Zm-2,1L19.68,113l.12,1.63-1.22-1.1Zm-2,1L17.63,114l.1,1.63-1.2-1.11Z"/><path d="M109.72,85.5a27.54,27.54,0,0,1-7,5.74l-33,19.05-33-19.05a27.54,27.54,0,0,1-7-5.74,42.52,42.52,0,0,0,2,4.28l-5.28,2.47a55.75,55.75,0,0,0,86.56,0l-5.28-2.47A42.52,42.52,0,0,0,109.72,85.5ZM23,57.92a5.45,5.45,0,0,1-1.23-6.81,9.63,9.63,0,0,0,.5-1,8.77,8.77,0,0,0-.5-1A5.47,5.47,0,0,1,23,42.25V10.06c11.51-4,25.3-8.4,46.48-8.4a143.47,143.47,0,0,1,47,8.4V42.25a5.47,5.47,0,0,1,1.23,6.82,8.77,8.77,0,0,0-.5,1,9.63,9.63,0,0,0,.5,1,5.45,5.45,0,0,1-1.23,6.81v9.46a27.37,27.37,0,0,1-.33,4.28l6.24,7.44,11.33-6.53A63.76,63.76,0,0,1,130.56,90l6.72,3.88a76.89,76.89,0,0,1-135,0L9,90a63.76,63.76,0,0,1-3.2-17.45L17.09,79.1l6.24-7.44A27.37,27.37,0,0,1,23,67.38Z"/><path class="cls-2" d="M109.47,15V42.25a5.44,5.44,0,0,0-1.22,6.82,8.71,8.71,0,0,1,.49,1,9.55,9.55,0,0,1-.49,1,5.43,5.43,0,0,0,1.22,6.81v9.46A20.49,20.49,0,0,1,99.23,85.14l-29.47,17V8.45A122.71,122.71,0,0,1,109.47,15Z"/><path class="cls-2" d="M24.92,67.38V57.61a3.94,3.94,0,0,0,1.28.31v9.46A24.35,24.35,0,0,0,38.37,88.47l31.39,18.12,31.39-18.12a24.35,24.35,0,0,0,12.17-21.09V57.92a3.94,3.94,0,0,0,1.28-.31v9.77a25.61,25.61,0,0,1-12.81,22.2l-32,18.49-32-18.49A25.61,25.61,0,0,1,24.92,67.38Zm1.92,0V57.92a3.88,3.88,0,0,0,1.28-.31v9.77A22.42,22.42,0,0,0,39.33,86.8l30.43,17.57L100.19,86.8A22.42,22.42,0,0,0,111.4,67.38V57.61a3.88,3.88,0,0,0,1.28.31v9.46a23.71,23.71,0,0,1-11.85,20.53L69.76,105.85,38.69,87.91A23.71,23.71,0,0,1,26.84,67.38Zm1.28-53.74V46.4a1.6,1.6,0,0,1-.2.79,13.36,13.36,0,0,0-.83,1.75,13.26,13.26,0,0,1-.25-2.54V12.73a126.88,126.88,0,0,1,85.84,0V46.4a13.26,13.26,0,0,1-.25,2.54,13.36,13.36,0,0,0-.83-1.75,1.6,1.6,0,0,1-.2-.79V13.64a125.49,125.49,0,0,0-83.28,0ZM26.2,12.29V46.4A12.5,12.5,0,0,1,26,48.94a13.31,13.31,0,0,0-.82-1.75,1.6,1.6,0,0,1-.21-.79v-35a128.76,128.76,0,0,1,89.68,0v35a1.71,1.71,0,0,1-.2.79,12.19,12.19,0,0,0-.83,1.75,12.5,12.5,0,0,1-.25-2.54V12.29a127.37,127.37,0,0,0-87.12,0Zm84.56,31.4V46.4a2.25,2.25,0,0,0,.28,1.1,12.76,12.76,0,0,1,1.64,6.27v1.57a1.61,1.61,0,0,1-1.28-1.57,11.46,11.46,0,0,0-1.48-5.64,3.58,3.58,0,0,1-.44-1.73A3.47,3.47,0,0,1,110.76,43.69Zm4.48,0a3.52,3.52,0,0,1,.83,4.44,11.45,11.45,0,0,0-1.47,5.64,1.61,1.61,0,0,1-1.28,1.57V53.77A12.76,12.76,0,0,1,115,47.5a2.15,2.15,0,0,0,.29-1.1Zm0,10.08a11,11,0,0,1,.34-2.71c.15.34.31.67.49,1a3.45,3.45,0,0,1,.45,1.72,3.52,3.52,0,1,1-6.6-1.72c.18-.32.35-.65.5-1a11,11,0,0,1,.34,2.71,2.24,2.24,0,0,0,4.48,0ZM28.76,43.69V46.4a2.25,2.25,0,0,1-.28,1.1,12.76,12.76,0,0,0-1.64,6.27v1.57a1.61,1.61,0,0,0,1.28-1.57,11.46,11.46,0,0,1,1.48-5.64,3.59,3.59,0,0,0,.45-1.73A3.48,3.48,0,0,0,28.76,43.69Zm-4.48,0a3.52,3.52,0,0,0-.83,4.44,11.45,11.45,0,0,1,1.47,5.64,1.61,1.61,0,0,0,1.28,1.57V53.77a12.76,12.76,0,0,0-1.63-6.27,2.15,2.15,0,0,1-.29-1.1Zm0,10.08a11,11,0,0,0-.34-2.71c-.15.34-.31.67-.49,1A3.45,3.45,0,0,0,23,53.77a3.53,3.53,0,1,0,6.6-1.72c-.18-.32-.35-.65-.5-1a11,11,0,0,0-.34,2.71,2.24,2.24,0,1,1-4.48,0Zm2.24-4.43c-.05.25-.12.5-.19.75s.14.5.19.75c.06-.25.12-.51.19-.75S26.58,49.59,26.52,49.34Zm86.48,0c-.06.25-.12.5-.19.75s.13.5.19.75c0-.25.12-.51.19-.75S113.05,49.59,113,49.34Z"/><path class="cls-2" d="M11.29,90.89A62,62,0,0,1,7.93,76l9.59,5.53L25,72.65a44.64,44.64,0,0,0,4.15,16.23L19.83,86a57.67,57.67,0,0,0,99.87,0l-9.34,2.92a44.64,44.64,0,0,0,4.15-16.23L122,81.57,131.59,76a62,62,0,0,1-3.36,14.85l6.45,3.72a75,75,0,0,1-129.84,0Z"/><polygon class="cls-1" points="19.24 90.87 10.14 97.48 11.45 99.28 15.22 96.54 16.42 98.19 18.11 96.96 16.91 95.31 18.85 93.9 20.19 95.73 21.88 94.51 19.24 90.87"/><path class="cls-1" d="M22.55,95.38,16.35,101c-1.57,1.41-1.46,3-.07,4.52,2.14,2.38,3.74,1.12,4.63.33L27,100.32l-1.48-1.65-5.77,5.18c-.63.55-1.24,1.1-2,.29s.22-1.68.85-2.25L24,97Z"/><polygon class="cls-1" points="27.94 101.26 20.71 109.87 22.41 111.3 26.1 106.91 26.12 106.93 24 112.63 25.8 114.14 27.89 107.99 32.82 105.35 31.08 103.89 26.43 106.55 26.41 106.53 29.64 102.68 27.94 101.26"/><path class="cls-1" d="M33.6,106l-4.55,7c-1.15,1.77-.64,3.25,1.1,4.38,2.69,1.75,3.91.12,4.56-.88l4.47-6.88-1.87-1.21-4.22,6.5c-.47.7-.91,1.38-1.83.79s-.22-1.68.24-2.39l4-6.1Z"/><path class="cls-1" d="M44.3,112.64a3.87,3.87,0,0,0-1.53-1.36c-1.71-.83-3.31.1-4.09,1.69s-.38,2.57.4,3.91c.37.68.84,1.28.46,2.05a1.21,1.21,0,0,1-1.69.54,2.84,2.84,0,0,1-1.25-1.27l-.93,1.9a3.43,3.43,0,0,0,1.47,1.35c1.87.91,3.57.06,4.44-1.74,1.34-2.73-1.66-4.31-.85-6a1,1,0,0,1,1.49-.5,2.51,2.51,0,0,1,1.13,1.35Z"/><polygon class="cls-1" points="45.72 112.95 41.69 123.44 43.76 124.24 45.47 119.8 47.57 120.61 45.86 125.05 47.94 125.84 51.97 115.34 49.89 114.55 48.32 118.66 46.21 117.85 47.79 113.74 45.72 112.95"/><rect class="cls-1" x="47.46" y="120.22" width="11.25" height="2.22" transform="matrix(0.26, -0.97, 0.97, 0.26, -77.85, 141.21)"/><polygon class="cls-1" points="57.31 116.69 54.77 127.68 57.13 128.02 58.58 120.04 58.61 120.05 58.58 120.25 58.6 122.79 58.93 128.27 60.63 128.51 62.31 123.37 63.06 120.67 63.09 120.68 62.49 128.77 64.75 129.09 65.15 117.79 62.19 117.37 60.38 123.82 60.35 123.82 60.2 117.09 57.31 116.69"/><path class="cls-1" d="M68.62,117.83l-2.41,11.29,2.21,0,.37-1.9,2.25,0,.45,1.89,2.37,0L71,117.8Zm2.06,7.56-1.57,0,.43-3,.21-1.7h0l.28,1.69Z"/><path class="cls-1" d="M76.16,117.61l1.31,8.25c.33,2.08,1.7,2.84,3.75,2.52,3.17-.51,3-2.53,2.79-3.71l-1.28-8.1-2.19.35,1.21,7.66c.11.82.24,1.63-.83,1.8s-1.29-1.09-1.43-1.93l-1.13-7.19Z"/><path class="cls-1" d="M84.16,116.18l3.29,10.76,2.12-.65-1.51-4.94-.15-.43-.43-1.06,0,0,4.61,5.68,2-.61-3.29-10.76-2.12.65,1.48,4.84a6.88,6.88,0,0,0,.67,1.57l0,0-4.64-5.68Z"/><rect class="cls-1" x="94.22" y="112.73" width="2.22" height="11.24" transform="translate(-37.39 44.32) rotate(-22)"/><polygon class="cls-1" points="95.27 112.32 96.25 114.16 97.79 113.34 102.09 121.42 104.05 120.38 99.75 112.3 101.3 111.47 100.32 109.63 95.27 112.32"/><polygon class="cls-1" points="101.25 109.09 107.37 118.52 111.15 116.06 110.01 114.31 108.1 115.55 106.72 113.43 108.38 112.35 107.25 110.6 105.58 111.67 104.25 109.63 106.14 108.4 105 106.65 101.25 109.09"/><path class="cls-1" d="M115,113.15c2.68-2.25,2.14-4.83.07-7.29-4-4.8-7.23-1.38-7.53-1.13l-1.29,1.08,7.23,8.62Zm-1.1-1.68-4.66-5.55c1.4-1.18,3.2.26,4.12,1.36S115.27,110.38,113.85,111.47Z"/><polygon class="cls-1" points="113.55 99.24 121.91 106.77 123.39 105.11 119.92 101.99 121.29 100.47 119.74 99.07 118.37 100.59 116.59 98.99 118.11 97.3 116.56 95.91 113.55 99.24"/><path class="cls-1" d="M120.63,90.5a3,3,0,0,0-.83.8c-1.78,2.44-.55,5.62,1.7,7.26s5.78,2,7.66-.59a2.77,2.77,0,0,0,.45-1l-1.7-1.23a3,3,0,0,1-.37.78c-1.14,1.57-3.3,1.05-4.66.07s-2.33-2.75-1.18-4.33a3.09,3.09,0,0,1,.59-.61Z"/><path class="cls-2" d="M50.43,69.36A19.33,19.33,0,1,1,69.76,88.69,19.34,19.34,0,0,1,50.43,69.36Z"/><path class="cls-3" d="M68.83,67.48a.93.93,0,0,0,0,.23.83.83,0,0,0,.19.26s.17-.06.22,0,0,.14,0,.13.09-.08.14-.08.08.14.13.11a2.59,2.59,0,0,0,.61-.73c0-.07,0-.13,0-.2s.05-.13.06-.18a.86.86,0,0,1-.09-.27c0-.07.08-.15.09-.24s-.1-.06-.12-.1-.07-.17-.12-.2-.35,0-.44-.06,0-.31,0-.39a.83.83,0,0,0-.16-.12,2.67,2.67,0,0,0-.47,0c-.07,0-.17,0-.24,0a5.7,5.7,0,0,0-.43.42c-.06.06-.11-.1-.2-.09a.53.53,0,0,0,0,.33.49.49,0,0,0,.1.19s0,.24.06.26.08-.16.15-.13a.47.47,0,0,1,.08.26,1.15,1.15,0,0,0,0,.19C68.51,67.22,68.84,67.38,68.83,67.48Zm-11.13,11a.43.43,0,0,1-.16,0c-.08,0-.14-.11-.21-.13a1.41,1.41,0,0,0-.35,0c0-.07-.1-.27-.16-.24a.36.36,0,0,1-.24.06l-.33,0-.19-.16s-.16,0-.21,0-.11-.08-.28-.13-.28.18-.38.18S55.05,78,55,78s.06-.12.06-.13.12,0,.14-.06,0-.09,0-.15a1.31,1.31,0,0,0,.1-.21c0-.17,0-.28,0-.34s.08-.1.09-.2-.19-.4-.18-.56.26-.5.27-.64-.22-.4-.2-.54,0-.11,0-.17-.19-.14-.2-.25a2.23,2.23,0,0,1,0-.47c0-.09.09-.13.11-.21s0-.29.07-.4a1.82,1.82,0,0,0,.11-.33c0-.05-.13-.14-.14-.19a.79.79,0,0,0-.13-.36c-.12-.14-.22-.43-.3-.47a2,2,0,0,1-.17.3.4.4,0,0,1-.18,0,.52.52,0,0,0-.07-.25c-.16-.2-.46-.51-.46-.62a.94.94,0,0,1,.2-.45c.19-.25.47-.49.58-.62s0-.29,0-.44.13-.15.14-.2-.09-.3-.08-.34.14-.06.22-.21a.63.63,0,0,0,0-.3,1.43,1.43,0,0,0,.06-.26.62.62,0,0,0-.13-.34c-.09-.1-.23,0-.29-.11s-.11-.32-.19-.37.1-.11.1-.15,0-.2,0-.24.08-.15.1-.21a.74.74,0,0,1,.15-.18s.21.07.3,0a.63.63,0,0,1,.21-.08.49.49,0,0,0,.18,0l.7-.19a1.1,1.1,0,0,1,.31-.06,1.06,1.06,0,0,0,.22,0c.08,0,.2-.17.34-.2s.14.07.28.11l.11,0s.11.09.18.09a.13.13,0,0,0,.08,0,.26.26,0,0,0,.12-.11s0-.12,0-.19.11-.35.12-.45,0-.17,0-.21a.76.76,0,0,1,.33-.1c.13,0,.24-.11.32-.08s.32.3.36.28.23-.16.28-.17.2.1.31.08.18-.09.23-.09.56.25.68.23a.71.71,0,0,0,.28-.21.54.54,0,0,0,.08-.27c0-.07-.23-.13-.3-.26a2.88,2.88,0,0,1-.05-.33,1.07,1.07,0,0,1,.05-.32,1.36,1.36,0,0,0-.06-.29,1.23,1.23,0,0,0-.07-.32c0-.09-.24-.16-.26-.26s.07-.08.07-.15-.11-.17-.1-.25.12-.19.12-.24-.06-.12,0-.16.28,0,.31-.08a3.44,3.44,0,0,1,.36-.28s.1,0,.14,0,.15-.26.23-.39l.25-.06s-.17-.24-.09-.35.5-.58.54-.64,0-.3.09-.36.13-.11.17-.17a2.8,2.8,0,0,1,.47-.53s0-.09.07-.12.13-.09.15-.13a2.33,2.33,0,0,1,.26-.28s.15,0,.17,0l0-.11c.06,0,.14,0,.21,0s.12-.06.2-.12l.31-.09a1.49,1.49,0,0,1,.2.27s.1.05.12.08.08.22.12.23.1-.11.25-.19.18,0,.23-.05a2.6,2.6,0,0,1,.33-.23c.11,0,.32.32.34.33.19,0,.3-.07.48-.1s.17,0,.26,0,0-.28.13-.32.2.23.23.25.22.06.24.11,0,.26,0,.38a2.26,2.26,0,0,0,.13.33c0,.07.1.07.13.13s0,.15,0,.21.18.09.23.1a5.27,5.27,0,0,0,.72-.2s.23-.18.27-.2.21.31.31.37.21,0,.29.07.16.33.31.41a.8.8,0,0,0,.54,0c.06,0,0-.23.12-.26a1.28,1.28,0,0,1,.43-.08,4.22,4.22,0,0,1,.77.18,1.08,1.08,0,0,0,.31,0c.06-.11.2-.32.26-.43a3.29,3.29,0,0,1,.36-.33,1.55,1.55,0,0,1,.1-.33c0-.09.23-.1.25-.23s-.1-.11-.22-.18-.34-.22-.35-.32.08-.41.1-.65a7.29,7.29,0,0,1,0-1c.05-.16.23-.23.23-.36s-.14-.44-.14-.67a.51.51,0,0,1,.11-.27c.09,0,.22.13.3.14s.24.18.34.24a1.77,1.77,0,0,0,.58.18c.06,0,0-.12.12-.17s.33.15.41.13,0-.4.16-.43a.63.63,0,0,1,.23,0l0,.23.38.18a5,5,0,0,1,.64.15s-.09.24-.06.45a1,1,0,0,0,.26.51h.07s.14,0,.19,0,.06-.07.15-.08l.44,0a2.11,2.11,0,0,0,.41-.06s0-.19.14-.22.26.25.46.28.27-.17.35-.15.06.26.16.31a.56.56,0,0,0,.26,0c.12,0,.24-.06.28-.06a2.4,2.4,0,0,1,.27.16s.22.07.23.1-.13.18-.13.28.16.32.16.38-.13.21-.14.43a1.26,1.26,0,0,0,0,.39,2.11,2.11,0,0,0,.16.26,1.18,1.18,0,0,1,.31.09c.1,0,.21.33.22.39a.74.74,0,0,1,.3-.15,2.14,2.14,0,0,1,.75.31.69.69,0,0,0,.15-.09,1.9,1.9,0,0,0-.54-.44s.11-.19.15-.19.31.17.46.2.17,0,.27,0a2.61,2.61,0,0,0,.53,0c.07,0,0-.51,0-.59a1.56,1.56,0,0,1,0-.3.48.48,0,0,1,0-.17c0-.07.13-.18.13-.25s-.07-.18-.07-.23,0-.39.08-.44a2.69,2.69,0,0,1,.56-.21c.08,0,.11.1.19.12s.18.1.23.1l.15-.07a.85.85,0,0,1,0,.24,2.15,2.15,0,0,0,.09.44,1.19,1.19,0,0,1,.2.47,2.77,2.77,0,0,1,.29.22.22.22,0,0,1,0,.13H83.4s0,.11,0,.14.17-.06.22,0,0,.11,0,.19-.13.35-.13.45,0,0,.09,0a2.11,2.11,0,0,0,.15.19,2.74,2.74,0,0,0,0-.4c0-.2,0-.22,0-.41a.78.78,0,0,1,0-.14,6.58,6.58,0,0,1,.06,1,1.62,1.62,0,0,0,.23.37,1.75,1.75,0,0,1,.12.32,1.48,1.48,0,0,1,0,.42v.09a4.67,4.67,0,0,1,0,.7c0,.08,0,.19.06.3s0,.24,0,.34.06.1.07.16a5.42,5.42,0,0,1,0,.57c0,.11.06.25.07.37s0,.21,0,.3a1.36,1.36,0,0,0,0,.21,1.1,1.1,0,0,0,0,.18,6.76,6.76,0,0,0,.08,1l0,.16a3.21,3.21,0,0,1,.11.59c0,.12,0,.25,0,.36a1.09,1.09,0,0,1,0,.25c0,.16,0,.43,0,.56v.4a5,5,0,0,0,0,.55.86.86,0,0,1,0,.17V69c0,.17-.16.52-.17.77a1.11,1.11,0,0,1,0,.19s0,.1,0,.14c0,.3-.1.74-.14,1s0,.34,0,.46.14.07.17.1,0,.15,0,.19h-.14c-.05.18-.13.71-.17.92s0,.35,0,.49a.42.42,0,0,1,.06.25s-.08.11-.09.17,0,.5,0,.6-.18.17-.23.37-.12.43-.13.54a4.12,4.12,0,0,0,0,.66,1.55,1.55,0,0,0,0,.37c0,.09.06.09.09.17a.42.42,0,0,1-.05.28c0,.06-.08,0-.11.06a.56.56,0,0,0,0,.3s-.33.34-.45.45a.56.56,0,0,0-.15.16s-.09.22-.15.23-.09-.13-.15-.17a.42.42,0,0,0-.39.06c-.06,0-.09.12-.13.15s-.13-.06-.18,0,.06.12,0,.14l-.17.12c-.06,0-.12,0-.16,0a.67.67,0,0,0-.17.2s-.2-.06-.26-.06a.35.35,0,0,0-.14.07c-.14.11-.45.47-.44.67s0,.17,0,.24,0,.08.06.11-.09.07-.13,0l-.13-.14c-.07,0-.11.06-.18,0s0-.13-.1-.16-.07,0-.11,0a2,2,0,0,0-.29-.11,1.32,1.32,0,0,0-.34,0c-.11,0-.29-.25-.46-.3s-.31,0-.42-.09-.13-.09-.23-.11-.16.06-.22.06a1.22,1.22,0,0,1-.34-.12.84.84,0,0,0,0-.12c0-.09-.18-.15-.21-.23s-.11-.15-.11-.22a.33.33,0,0,0-.14-.27.55.55,0,0,0-.29.19s0,.13,0,.17-.12.17-.11.23.24.14.26.22,0,.16,0,.25.21.31.18.36a.59.59,0,0,0-.19.11c-.07,0-.15.12-.2.12a3,3,0,0,0-.5.13.69.69,0,0,0-.23.33,1.29,1.29,0,0,1-.19.37c-.12.11-.28.06-.4.14s0,.13,0,.17-.31.38-.4.4-.08-.18-.13-.22-.23-.32-.3-.38-.18,0-.23,0-.1-.19-.19-.22-.39-.05-.53-.1-.09-.19-.13-.3-.07-.06-.1-.15.06-.27,0-.3-.09-.32-.13-.31a.79.79,0,0,1-.63-.13c0-.08,0-.29-.1-.37s-.28-.32-.3-.34-.18-.18-.28-.18-.1.11-.16.12-.17-.08-.19-.07-.25-.19-.33-.23,0-.16,0-.2.1-.08.13-.14-.11-.18-.1-.29.06-.12,0-.16-.22-.18-.14-.32a1.36,1.36,0,0,0,.1-.21c0-.11.06-.28,0-.33a1.66,1.66,0,0,1-.55.08s-.29-.12-.27-.19a.64.64,0,0,0,0-.51c-.05-.08,0-.18-.11-.25s-.28-.07-.4-.18a1.73,1.73,0,0,1-.25-.42.55.55,0,0,0-.17-.17c-.06,0-.15,0-.19,0a1.78,1.78,0,0,0-.47-.37c-.1,0-.47-.05-.71-.11-.06,0-.18-.18-.27-.21a1,1,0,0,0-.46-.07,2.54,2.54,0,0,1-.57-.1l-.23,0a.31.31,0,0,0-.33-.14,4.34,4.34,0,0,1-.59.14s-.05-.1-.15-.1a2.3,2.3,0,0,0-.5.13c-.06,0-.14.19-.22.2s-.16,0-.26,0a.84.84,0,0,0-.41.4s0,.15,0,.22a1.28,1.28,0,0,1,0,.41c-.25,0-.6-.13-.73-.05a1,1,0,0,0-.14.15.69.69,0,0,1-.34.23,2.14,2.14,0,0,0-.44,0,.43.43,0,0,0-.19.13c-.08.09-.23,0-.33,0a.73.73,0,0,0-.27.15c0,.06,0,.17-.08.22a1.09,1.09,0,0,1-.4.13s-.07.08-.1.1-.16,0-.19,0,0,.22-.09.29a.49.49,0,0,1-.23.11c-.11,0-.32,0-.39,0s0,.15-.1.22-.34.13-.37.15a1,1,0,0,0-.27.27c-.08.1-.22,0-.35.1s-.14.15-.19.2a.3.3,0,0,1-.24,0s0-.09-.09-.09a1.38,1.38,0,0,0-.39.11c-.06,0,0,.15-.07.28s-.19.18-.31.25-.08.33-.14.37-.27-.09-.41,0A.78.78,0,0,0,57.7,78.51Z"/><path class="cls-3" d="M60.73,50.1a1.92,1.92,0,1,1,3.61-1.32,9.54,9.54,0,0,1,.16,6.08A9.54,9.54,0,0,1,60.73,50.1Z"/><path class="cls-3" d="M75.32,48.82a9.49,9.49,0,0,1-2.89,5.34,9.53,9.53,0,0,1-.89-6,1.92,1.92,0,0,1,3.78.67Z"/><path class="cls-3" d="M78.94,52.75A9.63,9.63,0,0,1,76,55.26a9.56,9.56,0,0,1,.59-6,1.93,1.93,0,0,1,3.64,1.2,1.92,1.92,0,0,1,2.93,2.44,9.58,9.58,0,0,1-4.81,3.71A9.41,9.41,0,0,1,78.94,52.75Z"/><path class="cls-3" d="M56.16,52.51a1.92,1.92,0,0,1,3.37-1.8,9.49,9.49,0,0,1,1.63,5.85,9.49,9.49,0,0,1-3.31-2,9.74,9.74,0,0,1,1.23,3.66,9.61,9.61,0,0,1-5.39-2.82,1.92,1.92,0,0,1,2.47-2.92Z"/><polygon class="cls-3" points="64.76 81.89 64.76 82.68 65.2 82.68 65.2 86.47 66.08 86.47 66.08 81.89 64.76 81.89"/><path class="cls-3" d="M68.37,86.47l.38-.79a5.23,5.23,0,0,0,.65-2.25c0-.81-.34-1.61-1.25-1.61s-1.28.85-1.28,1.67c0,.55.23,1.43.92,1.43a.78.78,0,0,0,.57-.26v0l-.87,1.79Zm-.24-3.87c.31,0,.39.51.39.72s-.06.8-.41.8-.36-.5-.36-.72S67.79,82.6,68.13,82.6Z"/><polygon class="cls-3" points="70.06 81.89 70.06 82.68 71.29 82.68 69.86 86.47 70.8 86.47 72.53 81.89 70.06 81.89"/><polygon class="cls-3" points="73.03 81.89 73.03 82.68 74.26 82.68 72.84 86.47 73.78 86.47 75.5 81.89 73.03 81.89"/><path class="cls-3" d="M77.85,6.57c.28-.66,1.08-.52,1.81-.76a25.27,25.27,0,0,0-3,6.86,22.16,22.16,0,0,0-13.79,0,25.27,25.27,0,0,0-3-6.86c.73.24,1.53.1,1.81.76a.84.84,0,0,1-.12.83,1.77,1.77,0,0,1,2,.76,1.24,1.24,0,0,1-.08,1.09l-.07.16c-.29.73-.2,1.45.2,1.62A.67.67,0,0,0,64,11c.33-.11.66-.2,1-.29l.07,0a.85.85,0,0,1-.57-.61c-.14-.71.6-1,1.06-1.65.67.37,1.47.39,1.62,1.1a.81.81,0,0,1-.28.78H67l.82-.1h0a.77.77,0,0,0,.52-.18c.31-.31.11-1-.44-1.56a1.59,1.59,0,0,0-.13-.13,1.24,1.24,0,0,1-.5-1c0-.67.63-1.25,1.53-1.49a.82.82,0,0,1-.43-.71c0-.72.79-.9,1.37-1.4.57.5,1.36.68,1.36,1.4a.8.8,0,0,1-.43.71c.9.24,1.54.82,1.54,1.49a1.27,1.27,0,0,1-.5,1l-.14.13c-.55.55-.75,1.25-.44,1.56a.76.76,0,0,0,.51.18h.07l.82.1h.08a.83.83,0,0,1-.28-.78c.15-.71,1-.73,1.62-1.1.47.6,1.2.94,1.06,1.65a.82.82,0,0,1-.57.61l.07,0c.34.09.66.18,1,.29a.6.6,0,0,0,.42,0c.41-.16.5-.88.2-1.61l-.07-.16A1.28,1.28,0,0,1,76,8.16a1.77,1.77,0,0,1,2-.76A.84.84,0,0,1,77.85,6.57Zm10.63,58c2.28-10.2,9.78-14.25,9.78-23a14,14,0,0,1,1.63,7.11c0,10.42-6.52,15.2-6.52,23.79,0,5.69,3.88,10.31,8.67,10.31a5.63,5.63,0,0,0,.58,0,20.5,20.5,0,0,1-3.39,2.46L96.69,86.6a17.52,17.52,0,0,1-8.41-11.71,19.31,19.31,0,0,0,.2-10.35Zm-42.08.09a2.14,2.14,0,0,1,2-2.26,1.89,1.89,0,0,1,1.36.6,5.36,5.36,0,0,0,1.56-3.91,3.84,3.84,0,0,0-3.91-3.78c-3.69,0-6.69,3.85-6.69,8.59a23,23,0,0,0,1.45,7.79c.65,1.69,1.73,3.43,2.47,5.38a8.5,8.5,0,0,0-2.56-1.16c-1.64-5.51-4.2-8.4-4.2-14.09,0-5.48,3.32-9.92,7.42-9.92a7.67,7.67,0,0,1,7.61,7.72v.32a18.94,18.94,0,0,0-2.14,5.9,3.36,3.36,0,0,1-2.37,1.09A2.15,2.15,0,0,1,46.4,64.63Zm62.38,6.52a3.73,3.73,0,0,1,.62-2.06,20.41,20.41,0,0,1-.91,4.59,5.91,5.91,0,0,0-2.08-.37,5.55,5.55,0,0,0-2.69.7,10.25,10.25,0,0,1-2.3-6.56c0-6.55,4.8-12.2,1.8-19.36,1.77,2.32,2.37,5.24,2.37,8.73,0,3-.6,6.41-.6,7.66,0,3.48,1.62,6.41,3.84,7.28A3.08,3.08,0,0,1,108.78,71.15Zm-30,25.77a14,14,0,0,1-.15-2.09c0-7.9,5.3-8.88,8.07-16.2l.18-.36c.75,9.43-5.15,11.79-5.15,16.43,0,.17,0,.34,0,.51Zm6.41-3.7a5.14,5.14,0,0,1,4.46-2.57Zm5.69-6.63a8.51,8.51,0,0,1,4.06,1l-2.65,1.53a8.46,8.46,0,0,0-2.56-.4,7.27,7.27,0,0,0-4.47,1.52A6.16,6.16,0,0,1,90.91,86.59ZM69.64,98.72a2.21,2.21,0,0,1,2.2-2.2A2.61,2.61,0,0,1,74.56,99a2.73,2.73,0,0,1,0,.41l-4.77,2.76L63,98.25c.16-3.23,2.69-5.39,8.27-6.93,1.54-.42,4.46-1.2,5.92-2.45C76,92.15,66.65,93.45,66.65,97.54a3.21,3.21,0,0,0,3.22,3.2,3.58,3.58,0,0,0,.87-.11A2.21,2.21,0,0,1,69.64,98.72ZM54,93.07a16.92,16.92,0,0,1,9.54-2.68h.32a11.64,11.64,0,0,0-5.09,5.4h0ZM45,87.84c1.7-.77,3-2.26,4.08-5a31.42,31.42,0,0,0,6.88,4.85,20.07,20.07,0,0,0-7.42,2.18ZM33.84,79.27a8.66,8.66,0,0,1,5.75-2.13c3.66,0,6.63,2.48,6.63,5.54a3.52,3.52,0,0,1-3.41,3.6,2.77,2.77,0,0,1-.71-.1L41,85.52a2.58,2.58,0,0,1-.61-1,1.84,1.84,0,0,0,.41.05,1.76,1.76,0,0,0,0-3.52,3.43,3.43,0,0,0-3.13,2.2A21.25,21.25,0,0,1,33.84,79.27Zm49.25-61a3.37,3.37,0,0,1,3.58-3.12,6.63,6.63,0,0,1,6.59,6.67,5.49,5.49,0,0,1,0,.58,7.27,7.27,0,0,1,3.23-1.87c-1.25,3.13-2.32,5.19-5,6.46s-4.7.91-7.48,2.88c-3.31,2.35-6.76,9.2-11.17,9.2-3.3,0-5.47-2.22-6.34-5a6.9,6.9,0,0,0,4.81,1.75c5,0,6.82-3.89,11-7.76,2.94-2.74,8.58-2.66,8.58-7.48a2.27,2.27,0,1,0-4.54,0,2.66,2.66,0,0,0,.14.85A3.34,3.34,0,0,1,83.09,18.28Zm-6.86,6.45a2.38,2.38,0,0,1,2.32,2.43c0,3.23-3.31,6.69-7.35,6.69-2.73,0-4.55-1.55-4.55-4.41A8.29,8.29,0,0,1,68.41,24a10.8,10.8,0,0,0-.6,3.55c0,2.2,1.13,4.49,3.21,4.49,2.31,0,4.53-1.76,4.53-3.76,0-.57-.66-1-1.47-1a1.57,1.57,0,0,0-1.33.6A3.83,3.83,0,0,1,76.23,24.73ZM50,28.15a2,2,0,0,1-2-2c0-1.66.9-3,2-3a2.82,2.82,0,0,0-.86-.14c-2.78,0-5,4.39-5,9.8a30.38,30.38,0,0,0,2.34,11,22.21,22.21,0,0,1-5.59-14.53c0-6.64,3.7-12,8.27-12A5.54,5.54,0,0,1,54.4,23C54.4,25.84,52.44,28.15,50,28.15Zm1.19,4.66a1.83,1.83,0,1,1,0,3.66,1.86,1.86,0,0,1-1.35-.59,5.83,5.83,0,0,0-1.68,4.43c0,2.86,1.69,5.26,4.25,7.43a9.86,9.86,0,0,1-5.51-8.66C46.93,35.62,48.85,32.81,51.21,32.81Zm-21.16,0A4.62,4.62,0,0,1,32.74,32c8.17,0,8.09,12.31,16.72,15.79a17.25,17.25,0,0,1-8.87-6.16c.48,4.05,5.86,7.9,10.85,8.14-4.88,1.5-10.43,1.64-10.81-3.53-5.18-.59-3.71-6.49-2.62-8.42C36.61,35.59,35.44,34,33.47,34a2.62,2.62,0,0,0-2.71,2.52,2.51,2.51,0,0,0,2.71,2.25,2.1,2.1,0,0,0,1.75-1,2.82,2.82,0,0,1,.43,1.51,3.33,3.33,0,0,1-3.51,3.13,4,4,0,0,1-2.09-.59Zm1.57,11.67c2.07,1.61,3,4.74,3.08,7.31.37,8.73,1.73,14.61,4.56,21.2-6.33-9.06-4.52-19.77-8.37-22.64,0-.09-.08-.18-.11-.27a8.71,8.71,0,0,1,.49-1A5.37,5.37,0,0,0,32,46.4,5.31,5.31,0,0,0,31.62,44.49ZM50.69,91.14a14.43,14.43,0,0,1,10.82-2.28A18.21,18.21,0,0,0,52.16,92Zm9.51,5.49c1.45-3.55,5.13-5.77,9-6.41-3.63.81-7.31,3-8,7ZM76.43,98.3a4.56,4.56,0,0,0-4.09-3.68c1.3-.65,2.64-1.28,3.73-2,.29-.18.59-.38.89-.61a16.82,16.82,0,0,0-.22,2.77,15.62,15.62,0,0,0,.31,3.11Zm24.85-17.57c-3.15-.47-6-3.75-6-8.33a16.18,16.18,0,0,1,.92-5.26A52.13,52.13,0,0,1,98.38,62a31.31,31.31,0,0,0,3.41-12.22,13.27,13.27,0,0,1-.2,7.74c-.42,1.57-.92,3.11-1.33,4.68a21,21,0,0,0-.76,5.26,12.26,12.26,0,0,0,2.74,7.78,5.44,5.44,0,0,0-1,5.5Zm8.19-14.33a5.6,5.6,0,0,0-1.73,1.73,7.81,7.81,0,0,1-.83-3.65c0-1.25.6-4.66.6-7.66a22.22,22.22,0,0,0-.38-4.37,7.25,7.25,0,0,1,.46.67c0,.21,0,.43,0,.65a5.43,5.43,0,0,0,1.6,3.85c.25,1.75.21,3.36.32,4.52ZM37.58,74c-5.59-5.2-5.13-13.74-7.24-16.3a5.49,5.49,0,0,0,1.43-2.41C32.73,59.44,33.16,66.67,37.58,74Zm-7.53-9.6c2.18,3.09,3.36,6.73,6.36,10.48-2.68-2.22-4.38-4.55-6.34-6.39,0-.35,0-.7,0-1.06Zm.39,7A23.78,23.78,0,0,0,34.82,76a18.26,18.26,0,0,1-3.39-1.22A20.79,20.79,0,0,1,30.44,71.39Zm2.48,6.1-.15.11-.12-.2Zm44.32-61.6C74.73,14.15,72.05,13.56,68,14c-3.24.34-5.44,2-6.9,2.18-.49,0-1.13,0-1.2-.61-.11-1.1.62-1.82,1.3-2.65,0,.58.29,1.22.89,1.16,2.5-.27,3.7-.88,6.4-1.17C71.3,12.6,75.77,13.53,77.24,15.89ZM54.42,33.31a32.22,32.22,0,0,1,1.92-4.22,16.62,16.62,0,0,0,1.79,4.65l.25.48a10.43,10.43,0,0,1-2.6,5.48A8.32,8.32,0,0,1,54.42,33.31Zm10.14-1.86c.26,3.43-.16,5.74-1.65,7.9C61.47,37.78,60.64,37,60.14,35l.77-.52A21.43,21.43,0,0,0,64.56,31.45Zm-7.43,9.14a19,19,0,0,1-1.81,7.78c-1.79-3-2.17-6.29-2.17-10.4a10.83,10.83,0,0,0,1.29,2.6l1.13,1.73L57,40.78Zm11.76-.52a9.43,9.43,0,0,1-.58,4,8.27,8.27,0,0,1-4.53-3.11l.45-.66a10.66,10.66,0,0,0,1.51-3.16A8.48,8.48,0,0,0,68.89,40.07Zm-6.6,1a15.13,15.13,0,0,1-.3,5.07c-2.67-1.76-3.34-3.69-3.93-6.71a10,10,0,0,0,1.15-2.26,7.57,7.57,0,0,0,.65,1.1,13.75,13.75,0,0,0,.88,1.11c.29.33.62.68,1,1.08Zm23.33,1.77c0-1.92,1.26-3.48,2.83-3.51h0a2.2,2.2,0,0,1,1.36,3.93,3.41,3.41,0,0,0,2.75-3.49,3.13,3.13,0,0,0-3.16-3.12A5.17,5.17,0,0,0,85,39.18a10.35,10.35,0,0,0-.31-1.75,7.43,7.43,0,0,1,6.18-3,5.63,5.63,0,0,1,5.53,5.73c0,4-2.34,7.26-5.23,7.26a5.87,5.87,0,0,1-4.56-2,3.9,3.9,0,0,1-1-2.6Zm13.84-20.9a4.22,4.22,0,0,1,3.94,4.45c0,2.19-2.51,4-5.6,4-1.63,0-2.59-.17-4.21-.17a15.78,15.78,0,0,0-10.36,4.39c-.16-.19-.33-.38-.51-.56l-.16-.17c2.42-3,6-4.31,10.79-4.31,2.17,0,2.86.2,4,.2,2.33,0,4.22-1.33,4.22-3,0-1.16-.68-2.1-1.52-2.1-1.25,0-2.27,1.29-2.27,2.89a2.09,2.09,0,0,0,0,.25,2.8,2.8,0,0,1-1.17-2.29C96.65,23.51,97.9,21.91,99.46,21.91Zm5.78,10.56a7.18,7.18,0,0,1,4.23,2.12v7.66a6,6,0,0,0-.7.72c-2.41-4.56-4.54-9.27-11.73-9.27,5.21,0,6.61,6.23,10.56,11.95a6.3,6.3,0,0,0,0,.75,5.48,5.48,0,0,0,.7,2.67,8.71,8.71,0,0,1,.49,1c0,.12-.1.24-.16.36a39.75,39.75,0,0,1-3.66-3c-6.8-6-6.1-14.64-13.34-14.64a10.29,10.29,0,0,0-7.37,3.32L84,35.77a11.78,11.78,0,0,1,9.35-4c2.2,0,3.54,1,5.39,1,3.87,0,6.81-3.79,6.81-6.17C106.41,28.33,106,30.48,105.24,32.47ZM49.93,39.28a.79.79,0,0,1,.79-.74.8.8,0,0,1,.79.79s0,.08,0,.12c-.34,3-.27,4.51.94,7.11C50.11,44.88,49.63,42.87,49.93,39.28ZM58.83,87C43,79.8,42.63,66.35,42.63,63.87c0-4.15,2.56-6.67,4.77-6.67a1.93,1.93,0,0,1,2,1.86,3.92,3.92,0,0,1-.27,1.46,3.48,3.48,0,0,0-.73-.07,4.06,4.06,0,0,0-3.92,4.18C44.47,65.84,44.79,78.07,58.83,87ZM39.26,32.87c-5.55-3.17-3.48-8.21,1.44-11.44A18.18,18.18,0,0,0,39,29.23,22.93,22.93,0,0,0,39.26,32.87Zm30.5-16.12c-4.67.4-7.34,2.81-11.92,2.81-2.86,0-3.15-1.85-3.15-2.46a5.35,5.35,0,0,1,4.21-4.82,3.93,3.93,0,0,0-1.6,2.66c0,1.48,1.41,2.21,3.11,2.21,3.24,0,5.46-2,9.53-2,2.88,0,7.27.21,8.22,3.78a6.05,6.05,0,0,1,3.74,5.34c-1.49-3.09-4.25-5.16-7.41-5.16-4.54,0-8.89,5.27-9.79,9.29a20.62,20.62,0,0,1-4.86,4.43,13.61,13.61,0,0,1-1.91-6.49A35.64,35.64,0,0,1,69.76,16.75Zm1.5.57a6.73,6.73,0,0,0,4.46,0,4,4,0,0,0-4.46,0ZM35.38,44.48c3.42,3.27,3.73,5.83,1.52,12.81C36.9,49.94,35.38,46.62,35.38,44.48Zm21.73,3.87a18.14,18.14,0,0,0,1.14-3.66,8.9,8.9,0,0,0,2,2.1,3.62,3.62,0,0,0-1.07,1.68A3.51,3.51,0,0,0,57.11,48.35ZM81.9,46.82a11.2,11.2,0,0,1-.55,1.31,3.52,3.52,0,0,0-4.75-1.19,3.53,3.53,0,0,0-6.64.93c0,.1,0,.2,0,.3h-.15a20.88,20.88,0,0,0-3.82.34l-.1-.27a3.52,3.52,0,0,0-2.21-2.15A18.73,18.73,0,0,0,64,43.5a11.3,11.3,0,0,0,3.85,2l1.41.47.57-1.38a9,9,0,0,0,.61-2.36,15.48,15.48,0,0,0,.09-1.58,8.67,8.67,0,0,0,2.28.3c3.15,0,5.64-2.39,7.42-4.34.39-.44.78-.88,1.16-1.33C84,38,83.25,42.73,81.9,46.82Zm2.16,6.92a15.94,15.94,0,0,1,1.63-1.46c2.82-2.26,5.31-2.11,8.75-3.9-1.61,2.38-2.45,4.67-4.52,7.52a15.44,15.44,0,0,1-2.11,2.4A21.11,21.11,0,0,0,84.06,53.74Zm18.79,25.05a3.56,3.56,0,0,1,3.56-3.56,4.14,4.14,0,0,1,1.4.26A20.5,20.5,0,0,1,104,81.38,3.57,3.57,0,0,1,102.85,78.79Z"/></g></g></svg>