<?xml version="1.0" encoding="utf-8"?>
<!-- Generator: Adobe Illustrator 21.0.0, SVG Export Plug-In . SVG Version: 6.00 Build 0)  -->
<svg version="1.1" id="Layer_1" xmlns="http://www.w3.org/2000/svg" xmlns:xlink="http://www.w3.org/1999/xlink" x="0px" y="0px"
	 viewBox="0 0 101.5 97.9" width="249px" height="240px" style="enable-background:new 0 0 101.5 97.9;" xml:space="preserve">
<style type="text/css">
	.st0{fill:#B3A15B;}
	.st1{fill:#FFFFFF;}
	.st2{fill:#073E21;}
	.st3{fill:#0C8241;}
	.st4{fill:#12411F;}
	.st5{fill:#123F1E;}
</style>
<path class="st0" d="M99.6,36.1c-0.1-1.2-0.4-2.4-0.8-3.6v-0.1c-0.4-0.9-0.8-1.7-1.3-2.5c-0.2-0.4-0.4-0.7-0.6-1
	c-0.2-0.3-0.4-0.5-0.6-0.7c-0.4-0.5-1.1-0.8-1.7-0.8h-0.2c-0.7,0-1.4,0.4-1.8,1l-1.1,1.7c-1.6,2.5-3.6,4.7-6,6.5
	c-1-1.2-2.3-2.1-3.8-2.6c-0.8-0.2-1.5-0.4-2.3-0.4c-1.2,0-2.4,0.3-3.5,0.9h-0.9V12.1c0-0.9-0.5-1.7-1.4-2.1c-0.3-0.1-0.7-0.2-1-0.2
	c-0.6,0-1.1,0.2-1.5,0.6l-2.3,2c-0.5,0.4-1,0.7-1.6,0.9c-1,0.5-2.1,0.8-3.3,0.8h-0.1c-1.5,0-3-0.5-4.3-1.4c-2.4-1.7-4.4-3.9-5.8-6.5
	l-1.2-1.9c-0.4-0.7-1.1-1.1-1.9-1.1h-0.1c-0.8,0-1.5,0.4-1.9,1.1l-1.2,1.9C46,8.8,44,11,41.6,12.7c-1.3,0.9-2.8,1.4-4.3,1.4h-0.1
	c-1.2,0-2.3-0.3-3.4-0.8c-0.4-0.2-0.7-0.4-1.1-0.6c-0.1-0.1-0.2-0.1-0.3-0.2l-0.1-0.1l-2.3-2c-0.4-0.4-1-0.6-1.5-0.6
	c-0.3,0-0.7,0.1-1,0.2c-0.8,0.4-1.3,1.2-1.3,2.1v22.5h-0.9c-1.1-0.6-2.3-0.9-3.5-0.9h-0.1c-0.8,0-1.6,0.1-2.3,0.3
	c-1.5,0.4-2.9,1.3-3.8,2.6c-2.4-1.8-4.4-4-6-6.5l-1.1-1.7c-0.4-0.6-1.1-1-1.8-1H6.6c-0.7,0-1.3,0.3-1.8,0.8
	c-0.2,0.2-0.4,0.5-0.6,0.7c-0.7,1.1-1.4,2.3-1.9,3.5v0.1c-0.4,1.1-0.7,2.3-0.9,3.5c-0.1,1.1-0.2,2.3-0.2,3.4v0.9
	c0.3,2.8,0.8,6.4,2.8,9.3c1.8,2.7,4.3,5,7.2,6.4c0.5,0.2,1,0.4,1.5,0.6l-0.1,0.2c-0.1,0.2-0.3,0.3-0.4,0.4c-0.3,0.2-0.6,0.4-0.9,0.5
	c-0.3,0.1-0.7,0.3-1,0.4L10,58.3H9.9l-1.4,0.3c-0.6,0.1-1.2,0.5-1.6,1c-0.2,0.4-0.4,0.8-0.4,1.3c0,0.2,0,0.4,0.1,0.6l0.4,1.4
	c0.2,0.8,0.6,1.6,1.2,2.2c0.5,0.5,1,1,1.6,1.3c0.6,0.3,1.2,0.5,1.8,0.6c0.9,0.6,1.9,0.9,2.9,0.9c0.3,0,0.6,0,0.9-0.1
	c0.1,0.2,0.1,0.3,0.2,0.5l-1.3,1.2c-0.4,0.3-0.7,0.7-1,1.1c-0.7,1-1.1,2.2-1.2,3.4c0,1.4,0.6,2.7,1.5,3.6c0.9,1,1.8,1.9,2.7,2.7
	c1.1,1.1,2.5,1.7,4,1.7h0c0.3,1,0.9,1.9,1.7,2.7c3.3,3,7.1,4.8,11.5,6.2h0.1c3.4,1.1,6.9,1.8,10.5,2.1c1.4,1.1,2.9,2.1,4.5,2.9
	l0.6,0.3c0.3,0.2,0.7,0.3,1,0.3h0.1c0.3,0,0.7-0.1,1-0.3l0.6-0.3c1.6-0.8,3.1-1.8,4.5-2.9c3.5-0.2,7.1-0.9,10.5-1.8h0.1
	c4.4-1.4,8.2-3.2,11.5-6.2c0.8-0.7,1.4-1.6,1.7-2.7c1.5,0,2.9-0.7,4-1.7c1-0.9,1.9-1.8,2.7-2.7c1-1,1.6-2.3,1.6-3.7
	c0-1.2-0.4-2.4-1.2-3.4c-0.3-0.4-0.6-0.8-1-1.1l-1.3-1.2l0.2-0.5c0.3,0,0.6,0.1,0.9,0.1c1.1,0,2.1-0.3,3-0.9
	c0.6-0.1,1.2-0.3,1.8-0.6c0.6-0.3,1.2-0.7,1.7-1.3c0.6-0.7,1-1.4,1.2-2.3l0.4-1.4c0-0.2,0.1-0.4,0.1-0.6c0-1.1-0.8-2.1-1.9-2.3
	l-1.4-0.3c-0.5-0.1-1-0.3-1.4-0.5c-0.3-0.1-0.6-0.3-0.9-0.5c-0.2-0.1-0.3-0.3-0.4-0.4l-0.1-0.2c0.5-0.2,1-0.4,1.4-0.7
	c2.9-1.5,5.4-3.7,7.2-6.4c2-2.9,2.6-6.5,2.8-9.3c0-0.3,0-0.6,0-0.9C99.8,38.4,99.8,37.2,99.6,36.1z"/>
<path class="st1" d="M97.2,33.1c-0.5-1.4-1.3-2.6-2.2-3.8c-0.1-0.2-0.3-0.2-0.4-0.2c-0.2,0-0.4,0.1-0.4,0.3L93,31.1
	c-2.1,3.3-4.9,6-8.2,8.1c-0.1-0.4-0.3-0.8-0.5-1.2c-0.7-1.1-1.9-1.9-3.2-2.3c-0.6-0.2-1.2-0.3-1.8-0.3c-1.2,0-2.3,0.4-3.2,1.1
	c-0.3-0.1-0.5-0.2-0.8-0.2c-0.4,0-0.8,0.1-1.1,0.3c-0.3,0.2-0.5,0.5-0.7,0.8c-0.1,0.2-0.2,0.4-0.2,0.6c0,0,0,0.1-0.1,0.1
	s0-0.1,0-0.1V12.1c0-0.2-0.1-0.4-0.3-0.5c-0.2-0.1-0.4,0-0.6,0.1l-2.3,2c-1.7,1.3-3.9,2.1-6.1,2.2h-0.1c-1.9,0-3.7-0.6-5.3-1.7
	c-2.6-1.8-4.8-4.2-6.4-7L51,5.3C50.9,5.1,50.7,5,50.6,5c-0.2,0-0.4,0.1-0.5,0.3L49,7.1c-1.6,2.8-3.7,5.2-6.3,7
	c-1.6,1.1-3.4,1.6-5.3,1.7h-0.1c-2.2-0.1-4.3-0.8-6.1-2.2l-2.3-2c-0.2-0.2-0.6-0.2-0.8,0.1C28.1,11.7,28,11.9,28,12v26
	c0,0,0,0.1,0,0.1s0,0,0-0.1c0-0.2-0.1-0.4-0.2-0.6c-0.2-0.3-0.4-0.6-0.7-0.8c-0.3-0.2-0.7-0.3-1.1-0.3h0c-0.3,0-0.5,0.1-0.8,0.2
	c-0.9-0.7-2-1.1-3.2-1.1c-0.6,0-1.2,0.1-1.8,0.3c-1.3,0.3-2.4,1.2-3.1,2.3c-0.2,0.4-0.4,0.8-0.5,1.2c-3.3-2-6.2-4.7-8.3-8l-1.1-1.7
	c-0.1-0.2-0.3-0.2-0.4-0.3c-0.2,0-0.4,0.1-0.5,0.2c-0.9,1.1-1.7,2.4-2.2,3.7c-0.7,2.3-1,4.7-0.9,7.2c0.2,2.6,0.8,6,2.5,8.4
	c4.8,6.9,9.8,6.7,9.8,6.7c-0.3,0.8-0.7,1.6-1.2,2.4c-0.5,0.8-1.3,1.4-2.2,1.7c-0.6,0.3-1.2,0.5-1.8,0.6l-1.4,0.3
	c-0.1,0-0.3,0.1-0.4,0.2c-0.1,0.1-0.1,0.3-0.1,0.4l0.4,1.4c0.3,1,1,1.9,1.9,2.3c0.5,0.3,1.1,0.5,1.7,0.5l0.2,0.2
	c0.6,0.4,1.3,0.6,2,0.6c0.7,0,1.4-0.2,2-0.4c0.4,1,0.8,2.1,1.3,3.1l-2.2,2.1c-0.3,0.2-0.5,0.5-0.7,0.8c-0.5,0.7-0.8,1.5-0.8,2.4
	c0,0.9,0.4,1.8,1,2.4c0.8,0.9,1.7,1.8,2.7,2.7c0.7,0.8,1.8,1.2,2.8,1.3c0.6,0,1.1-0.1,1.7-0.3v0.6c0,1.1,0.5,2.1,1.4,2.9
	c3,2.8,6.6,4.5,10.9,5.8c3.5,1.1,7,1.8,10.6,2.1c1.4,1.2,3,2.2,4.6,3l0.6,0.3c0.1,0.1,0.3,0.1,0.5,0l0.6-0.3c1.6-0.8,3.2-1.8,4.6-3
	c3.6-0.3,7.2-1,10.6-2.1h0.1c4.3-1.4,7.8-3,10.9-5.8c0.8-0.7,1.3-1.8,1.3-2.9v-0.1c0-0.2,0-0.3,0-0.5c0.5,0.2,1,0.4,1.6,0.4
	c1.1,0,2.1-0.5,2.8-1.3c0.9-0.8,1.8-1.7,2.7-2.7c0.7-0.6,1-1.5,1.1-2.4c0-0.9-0.3-1.7-0.8-2.4c-0.2-0.3-0.5-0.6-0.7-0.8l-2.2-2.1
	c0.5-1,0.9-2,1.3-3.1c0.6,0.3,1.3,0.4,2,0.4c0.7,0,1.4-0.2,2-0.6l0.2-0.2c0.6-0.1,1.2-0.2,1.7-0.5c1-0.5,1.7-1.3,1.9-2.3l0.4-1.5
	c0-0.1,0-0.3-0.1-0.4c-0.1-0.1-0.2-0.2-0.4-0.2l-1.4-0.3c-0.6-0.1-1.2-0.4-1.8-0.6c-0.9-0.4-1.6-1-2.1-1.7c-0.5-0.8-0.8-1.6-1.2-2.4
	c0,0,5,0.1,9.8-6.7c1.7-2.4,2.3-5.8,2.5-8.4C98.2,37.8,97.9,35.4,97.2,33.1L97.2,33.1z"/>
<path class="st2" d="M50.5,8.1c-10,16.3-20.7,7-20.7,7v29.7c0,0,0,37.3,20.7,48c20.6-10.7,20.6-48,20.6-48V15.1
	C71.2,15.1,60.6,24.4,50.5,8.1"/>
<path class="st3" d="M48.3,38.3v45.5h4.4V38.3H48.3 M57.2,38.5v40.5c0.1-0.1,0.1-0.2,0.2-0.3c1.8-3,3.2-6.2,4.3-9.5V38.8
	C60.2,38.7,58.7,38.5,57.2,38.5 M39.4,69.1c1.1,3.3,2.5,6.5,4.2,9.5c0.1,0.1,0.1,0.2,0.2,0.3V38.5c-1.5,0.1-3,0.2-4.4,0.3L39.4,69.1
	z"/>
<path class="st1" d="M51.3,23.4h1.5v2.9h-1.5V23.4z M48.3,23.4h1.5v2.9h-1.5V23.4z"/>
<path class="st4" d="M56.2,75c0,0-0.1-0.1-0.2-0.1v-0.3v-0.3c0.1-0.1,0.2-0.2,0.2-0.4c0-0.2,0-0.3,0-0.4c0-0.1,0-0.3-0.1-0.4
	c-0.1-0.1-0.2-0.2-0.4-0.3h-1.9c-0.1,0-0.2,0-0.3,0.1c-0.1,0-0.2-0.1-0.3-0.1c-0.2,0-0.4,0-0.6,0c-0.4,0-0.8,0.1-1.1,0.2v-0.1
	C51.6,73,51.4,73,51.3,73h-0.7c-0.3,0-0.5,0.2-0.6,0.5l-0.3-0.3c-0.1-0.1-0.3-0.2-0.5-0.2h-0.8c-0.1,0-0.1,0-0.2,0h-1
	c-0.1,0-0.2,0-0.3,0.1c-0.1,0-0.2-0.1-0.3-0.1c-0.2,0-0.3,0-0.5,0c-0.4,0-0.8,0.1-1.2,0.4c-0.3,0.3-0.4,0.6-0.4,1
	c0,0.2,0.1,0.4,0.2,0.6c-0.1,0.1-0.1,0.2-0.1,0.3c0,0.1,0,0.2,0,0.3c0,0,0,0.1,0,0.1c-0.1,0.2,0,0.5,0.3,0.6
	c0.2,0.1,0.3,0.2,0.5,0.2c0.2,0,0.4,0.1,0.5,0.1h0.1C46,76.7,46,76.8,46,77v0.4c0,0.2,0.1,0.3,0.2,0.4c0.1,0.1,0.1,0.1,0.2,0.1V79
	c-0.1,0-0.3,0.1-0.4,0.2c-0.1,0.1-0.1,0.2-0.1,0.3v0.1c0,0.1,0,0.2,0.1,0.3c0.1,0.1,0.3,0.2,0.4,0.2h1.7c0.1,0.1,0.2,0.1,0.3,0.1
	c0.4,0,0.8-0.1,1.2-0.4c0.2-0.1,0.3-0.3,0.5-0.4c0.1,0.2,0.3,0.4,0.5,0.5c0.2,0.2,0.5,0.2,0.8,0.2c0.3,0,0.6-0.1,0.9-0.3
	c0.1,0.1,0.1,0.1,0.2,0.2c0.1,0.1,0.2,0.1,0.4,0.1c0.1,0,0.3,0,0.4,0c0.5,0,0.9-0.2,1.3-0.5c0.4-0.3,0.6-0.8,0.6-1.3
	c0-0.4-0.1-0.7-0.4-1c0.1-0.1,0.2-0.2,0.2-0.4l0.1-0.6v-0.1h0.8c0.3,0,0.5-0.3,0.5-0.5c0-0.2,0-0.3,0-0.5
	C56.3,75.3,56.3,75.1,56.2,75L56.2,75z"/>
<path class="st1" d="M48.6,75.9h0.8v-0.2h-0.2c0-0.1,0-0.2,0-0.3v-1.4c0.1,0.2,1.3,1.6,1.6,2c0.1,0,0.2,0,0.3,0v-2.1v-0.3h0.2v-0.2
	h-0.8v0.2h0.2c0,0.1,0,0.1,0,0.2v1.4c-0.2-0.2-1.2-1.5-1.5-1.8h-0.7v0.2h0.2c0,0.1,0,0.2,0,0.3v1.4c0,0.1,0,0.2,0,0.3c0,0,0,0,0,0.1
	c-0.1,0-0.1,0-0.2,0L48.6,75.9z M53.6,73.9h-0.2c0-0.1-0.1-0.1-0.1-0.2c-0.1,0-0.2-0.1-0.2-0.1c-0.1,0-0.2,0-0.3,0
	c-0.3,0-0.5,0.1-0.7,0.3c-0.2,0.2-0.3,0.5-0.3,0.7c0,0.3,0.1,0.6,0.3,0.8c0.2,0.2,0.5,0.3,0.8,0.3c0.1,0,0.2,0,0.4,0
	c0.1,0,0.3-0.1,0.4-0.1c0,0.1-0.1,0.1-0.1,0.2c-0.1,0.1-0.3,0.1-0.4,0.2C53,76,52.8,76,52.7,76c-0.3,0-0.6-0.1-0.8-0.2
	c-0.2-0.1-0.4-0.3-0.5-0.5c-0.1-0.2-0.2-0.4-0.2-0.7c0-0.3,0.1-0.7,0.4-0.9c0.3-0.3,0.7-0.4,1.1-0.4c0.2,0,0.3,0,0.5,0
	c0.2,0,0.3,0.1,0.5,0.1L53.6,73.9z M54,75.9L54,75.9c0.1-0.1,0.1-0.2,0.2-0.2c0-0.4,0-0.8,0-1.2v-0.8c0,0,0-0.1,0-0.1
	c-0.1,0-0.1,0-0.2,0v-0.2h1.9c0,0.2-0.1,0.3-0.1,0.5h-0.1c0-0.1,0-0.2,0-0.2h-0.1c-0.2,0-0.3,0-0.5,0h-0.4v0.9h0.4
	c0.1,0,0.2,0,0.3,0c0-0.1,0-0.1,0-0.2h0.2v0.7h-0.1c0-0.1,0-0.1,0-0.2h0c-0.1,0-0.3,0-0.4,0h-0.2v1h0.4c0.2,0,0.4,0,0.6,0
	c0-0.1,0-0.2,0.1-0.3h0.2c0,0.2,0,0.4,0,0.6H54L54,75.9z M47.2,75.9v-0.2h0.2c0,0,0-0.1,0-0.1V74c0-0.1,0-0.2,0-0.4
	c-0.1,0-0.2,0-0.2,0v-0.3h1.1v0.2c-0.1,0-0.2,0-0.2,0c0,0,0,0.1,0,0.1v1.7c0,0.1,0,0.2,0,0.3c0.1,0,0.1,0,0.2,0v0.2L47.2,75.9
	L47.2,75.9z M45.2,75.2h0.2c0,0.1,0,0.2,0,0.3c0,0,0.1,0.1,0.1,0.1c0.1,0.1,0.1,0.1,0.2,0.1c0.1,0,0.2,0,0.3,0c0.1,0,0.3,0,0.4-0.1
	c0.1-0.1,0.2-0.2,0.2-0.3c0-0.1,0-0.2-0.1-0.3c-0.1-0.1-0.2-0.1-0.4-0.1c-0.2,0-0.4-0.1-0.6-0.1c-0.1,0-0.2-0.1-0.2-0.2
	c-0.1-0.1-0.1-0.2-0.1-0.3c0-0.2,0.1-0.4,0.2-0.6c0.2-0.2,0.5-0.3,0.8-0.2c0.1,0,0.2,0,0.4,0c0.1,0,0.2,0.1,0.3,0.1
	c0,0.1,0,0.3-0.1,0.4h-0.2c0-0.1,0-0.1,0-0.2c0-0.1-0.1-0.1-0.2-0.1c-0.1,0-0.2-0.1-0.3-0.1c-0.1,0-0.3,0-0.4,0.1
	c-0.1,0.1-0.1,0.2-0.1,0.3c0,0.1,0,0.1,0.1,0.2c0,0.1,0.1,0.1,0.2,0.1c0.1,0,0.3,0.1,0.4,0.1l0.4,0.1c0.1,0,0.2,0.1,0.3,0.2
	C47,74.7,47,74.8,47,75c0,0.2-0.1,0.5-0.3,0.6c-0.2,0.2-0.5,0.3-0.8,0.3c-0.1,0-0.3,0-0.4-0.1c-0.1,0-0.3-0.1-0.4-0.1
	c0-0.1,0-0.2,0-0.2V75 M49.5,78.1c-0.1,0.1-0.2,0.2-0.4,0.3c-0.1,0-0.2,0.1-0.3,0.1c-0.2,0-0.4-0.1-0.5-0.2
	c-0.1-0.2-0.2-0.4-0.2-0.6c0-0.3,0.1-0.6,0.3-0.8c0.2-0.2,0.5-0.3,0.7-0.3c0.2,0,0.4,0,0.5,0.1c0.2,0.1,0.3,0.3,0.3,0.4
	c0.1,0.2,0.1,0.5,0.1,0.7c0,0.3-0.1,0.7-0.2,1c-0.1,0.3-0.3,0.5-0.6,0.7c-0.3,0.2-0.6,0.3-0.9,0.3l-0.2-0.2l0.1-0.1h0.2
	c0.2,0,0.3-0.1,0.5-0.2c0.2-0.1,0.3-0.3,0.4-0.4C49.4,78.6,49.5,78.4,49.5,78.1z M49.1,78.1c0.1,0,0.2,0,0.3-0.1
	c0.1-0.1,0.1-0.3,0.1-0.4c0-0.2,0-0.4-0.1-0.6c-0.1-0.1-0.2-0.2-0.3-0.2c-0.1,0-0.2,0.1-0.3,0.2c-0.1,0.1-0.1,0.3-0.1,0.5
	c0,0.2,0,0.4,0.1,0.6C48.8,78.1,49,78.1,49.1,78.1z M51,78.1c0.1-0.1,0.2-0.2,0.4-0.3c0.1,0,0.2-0.1,0.3-0.1c0.2,0,0.4,0.1,0.5,0.2
	c0.1,0.2,0.2,0.4,0.2,0.7c0,0.3-0.1,0.6-0.3,0.8c-0.2,0.2-0.4,0.3-0.7,0.3c-0.2,0-0.4-0.1-0.5-0.2c-0.2-0.1-0.3-0.3-0.3-0.4
	c-0.1-0.2-0.1-0.5-0.1-0.7c0-0.3,0.1-0.7,0.2-1c0.1-0.3,0.4-0.5,0.6-0.7c0.3-0.2,0.5-0.3,0.8-0.3l0.2,0.2l-0.1,0.1H52
	c-0.2,0-0.3,0.1-0.5,0.2c-0.2,0.1-0.3,0.3-0.4,0.4C51,77.6,51,77.8,51,78.1z M51.4,78.1c-0.1,0-0.2,0-0.3,0.1
	c-0.1,0.1-0.1,0.3-0.1,0.4c0,0.2,0,0.5,0.1,0.7c0.1,0.1,0.2,0.2,0.3,0.2c0.1,0,0.2-0.1,0.3-0.2c0.1-0.1,0.1-0.3,0.1-0.5
	c0-0.2,0-0.4-0.1-0.6C51.6,78.2,51.5,78.1,51.4,78.1z M54.4,77.1h-1.3v0.8c0.1-0.1,0.2-0.1,0.3-0.1c0.1,0,0.2,0,0.3,0
	c0.3,0,0.5,0.1,0.7,0.2c0.2,0.2,0.3,0.4,0.2,0.6c0,0.3-0.1,0.6-0.4,0.8c-0.3,0.2-0.6,0.4-1,0.4c-0.1,0-0.2,0-0.3,0l-0.3-0.1
	c0-0.2-0.1-0.4-0.1-0.6h0.1c0.1,0.2,0.2,0.3,0.3,0.4c0.1,0.1,0.3,0.1,0.4,0.1c0.2,0,0.3-0.1,0.4-0.2c0.1-0.1,0.2-0.3,0.2-0.5
	c0-0.2-0.1-0.3-0.2-0.5c-0.1-0.1-0.3-0.2-0.5-0.2c-0.1,0-0.2,0-0.3,0l-0.3,0.2h-0.1v-0.9v-0.8h1.6L54.4,77.1z M47.9,79.5
	c-0.1,0-0.3,0-0.4-0.1c0,0,0,0,0-0.1c0-0.2,0-0.4,0-0.7v-1.3v-0.8h-0.1c-0.3,0.1-0.7,0.3-1,0.4v0.4l0.3-0.1h0.1v1.7
	c0,0.1,0,0.3,0,0.4l-0.1,0.1c-0.1,0-0.3,0.1-0.4,0.1v0.1h1.6V79.5L47.9,79.5z"/>
<path class="st5" d="M75.4,38.3c0.7,1.1,0.7,2.4,0.1,3.5c0,0,1.4,2.6-3.3,5.3c0,0,0-5.6,3-5.4c0.5-1,0.5-2.2-0.1-3.1
	c0,0-0.1-0.1,0.1-0.2C75.3,38.2,75.4,38.2,75.4,38.3"/>
<path class="st1" d="M50.5,14.9c0,0-7.4,10.1-18.6,6v24.2c0.2,6.9,1.1,13.7,2.8,20.4c1.3,5.2,3.2,10.2,5.9,14.9
	c2.3,4.1,5.6,7.5,9.5,10l0.3,0.2l0.3-0.2c4-2.5,7.2-5.9,9.5-10c2.7-4.7,4.7-9.7,5.9-14.9c1.7-6.7,2.6-13.5,2.8-20.4V20.9
	C58,25,50.5,14.9,50.5,14.9z M50.5,17.8c0.6,0,1.1,0.5,1.1,1.1S51.1,20,50.5,20c-0.6,0-1.1-0.5-1.1-1.1c0,0,0,0,0,0
	C49.5,18.3,49.9,17.8,50.5,17.8C50.5,17.8,50.5,17.8,50.5,17.8z M67.9,45.1c-0.2,6.8-1.1,13.5-2.7,20.1c-1.2,5.1-3.2,10-5.8,14.6
	c-2.2,3.8-5.2,7-8.8,9.4c-3.7-2.4-6.7-5.6-8.8-9.4c-2.6-4.6-4.6-9.5-5.8-14.6c-1.7-6.6-2.6-13.3-2.8-20.1v-7.8
	c5.8-0.9,11.6-1.4,17.4-1.3c5.8,0,11.6,0.4,17.4,1.3V45.1z M67.9,31.2h-3.6c-1.5,0-2.9-0.6-3.8-1.7c-0.8-1.2-2.2-2-3.6-2.1H44.2
	c-1.5,0.1-2.8,0.9-3.6,2.1c-1,1.1-2.4,1.7-3.8,1.7h-3.6v-5.3c5.3,0.1,10.5-1.6,14.7-5c0.1,0.5,0.4,0.8,0.9,0.8
	c0.2,0,0.4-0.1,0.5-0.2c0.2,0.6,0.7,1,1.3,1c0.6,0,1.2-0.4,1.3-1c0.2,0.1,0.3,0.2,0.5,0.2c0.5,0,0.9-0.4,0.9-0.8
	c4.1,3.4,9.3,5.1,14.7,5V31.2z"/>
<path class="st2" d="M44.3,30.9v-0.1h0.2c0,0,0.1,0,0.1-0.2v-1.4c0-0.2,0-0.3,0-0.5h-0.2v-0.1h1v0.1c-0.1,0-0.1,0-0.2,0
	c0,0.1,0,0.1,0,0.2v0.7h1.1v-0.8c0,0,0-0.1,0-0.1H46v-0.1h1v0.1c-0.1,0-0.1,0-0.2,0c0,0.1,0,0.2,0,0.3v1.4c0,0.1,0,0.2,0,0.3
	c0,0,0,0,0,0.1H47v0.1h-1v-0.1c0.1,0,0.1,0,0.2,0c0,0,0-0.1,0-0.1v-0.8h-1.1v1c0,0,0.1,0,0.2,0v0.1L44.3,30.9L44.3,30.9z M47.3,30.9
	v-0.1h0.2c0,0,0-0.1,0-0.1v-0.9V29c0-0.1,0-0.2,0-0.3c0,0,0,0,0,0c-0.1,0-0.1,0-0.2,0v-0.1h1v0.1H48c0,0,0,0,0,0.1v1.6
	c0,0.1,0,0.2,0,0.3c0.1,0,0.1,0,0.2,0v0.1L47.3,30.9L47.3,30.9z M48.6,30.9h0.7v-0.1c-0.1,0-0.1,0-0.2,0c0-0.1,0-0.2,0-0.3V29
	c0.1,0.2,1.2,1.6,1.5,1.9c0.1,0,0.2,0,0.3,0V29c0-0.1,0-0.2,0-0.3c0.1,0,0.1,0,0.2,0v-0.1h-0.7v0.1h0.2c0,0.1,0,0.1,0,0.2v1.4
	c-0.2-0.2-1.2-1.4-1.4-1.8h-0.7v0.1h0.2c0,0.1,0,0.2,0,0.3v1.4c0,0.1,0,0.2,0,0.3h-0.2L48.6,30.9z M56.3,28.6c0,0.1,0,0.1,0,0.2v1.3
	c0,0.2,0,0.3,0.1,0.5c0.1,0.1,0.2,0.2,0.3,0.3c0.2,0.1,0.4,0.1,0.6,0.1c0.2,0,0.4,0,0.6-0.1c0.1-0.1,0.3-0.2,0.3-0.3
	c0.1-0.1,0.1-0.3,0.1-0.4c0-0.1,0-0.3,0-0.4v-0.9c0-0.3,0-0.2,0.1-0.2s0,0,0.2,0v-0.1h-0.7v0.1H58c0,0.1,0,0.2,0,0.3v0.6
	c0,0.2,0,0.5,0,0.7c0,0.1-0.1,0.2-0.2,0.3c-0.1,0.1-0.3,0.1-0.4,0.1c-0.1,0-0.3,0-0.4-0.1c-0.1,0-0.1-0.1-0.2-0.2
	c-0.1-0.1-0.1-0.3-0.1-0.4v-0.6v-0.6c0,0,0-0.1,0-0.1c0.1,0,0.1,0,0.2,0v-0.1h-0.8v0.1L56.3,28.6z M51.3,30.1h0.2c0,0.1,0,0.2,0,0.3
	c0,0,0.1,0.1,0.1,0.1c0.1,0.1,0.1,0.1,0.2,0.1c0.1,0,0.2,0,0.3,0c0.1,0,0.3,0,0.4-0.1c0.1-0.1,0.1-0.2,0.1-0.3c0-0.1,0-0.2-0.1-0.3
	c-0.1-0.1-0.2-0.1-0.4-0.1c-0.2,0-0.4-0.1-0.6-0.1c-0.1,0-0.2-0.1-0.2-0.2c-0.1-0.1-0.1-0.2-0.1-0.3c0-0.2,0.1-0.4,0.2-0.5
	c0.2-0.2,0.5-0.3,0.7-0.2c0.1,0,0.2,0,0.3,0c0.1,0,0.2,0.1,0.3,0.1c0,0.1,0,0.2-0.1,0.4h-0.1c0-0.1,0-0.1,0-0.2
	c-0.1,0-0.1-0.1-0.2-0.1c-0.1,0-0.2-0.1-0.3-0.1c-0.1,0-0.3,0-0.4,0.1c-0.1,0.1-0.1,0.2-0.1,0.3c0,0.1,0,0.1,0,0.2
	c0,0.1,0.1,0.1,0.2,0.1c0.1,0,0.3,0.1,0.4,0.1l0.4,0.1c0.1,0,0.2,0.1,0.3,0.2c0.1,0.1,0.1,0.2,0.1,0.4c0,0.2-0.1,0.5-0.3,0.6
	c-0.2,0.2-0.5,0.3-0.8,0.2c-0.1,0-0.3,0-0.4,0c-0.1,0-0.3-0.1-0.4-0.1c0-0.1,0-0.1,0-0.2L51.3,30.1 M53.2,30.9v-0.1h0.2
	c0,0,0.1,0,0.1-0.2v-1.4c0-0.2,0-0.3,0-0.5h-0.2v-0.1h1v0.1c-0.1,0-0.1,0-0.2,0c0,0.1,0,0.1,0,0.2v0.7h1.1v-0.8c0,0,0-0.1,0-0.1
	h-0.2v-0.1h1v0.1c-0.1,0-0.1,0-0.2,0c0,0.1,0,0.2,0,0.3v1.4c0,0.1,0,0.2,0,0.3c0,0,0,0,0,0.1c0.1,0,0.1,0,0.2,0v0.1h-1v-0.1
	c0.1,0,0.1,0,0.2,0c0,0,0-0.1,0-0.1v-0.8h-1.2v1c0,0,0.1,0,0.2,0v0.1L53.2,30.9L53.2,30.9z M42.4,30.1h0.2c0,0.1,0,0.2,0,0.3
	c0,0,0.1,0.1,0.1,0.1c0.1,0.1,0.1,0.1,0.2,0.1c0.1,0,0.2,0,0.3,0c0.1,0,0.3,0,0.4-0.1c0.2-0.2,0.2-0.4,0-0.6
	c-0.1-0.1-0.2-0.1-0.4-0.1c-0.2,0-0.4-0.1-0.5-0.1c-0.1,0-0.2-0.1-0.2-0.2c-0.1-0.1-0.1-0.2-0.1-0.3c0-0.2,0.1-0.4,0.2-0.5
	c0.2-0.2,0.5-0.3,0.7-0.2c0.1,0,0.2,0,0.4,0c0.1,0,0.2,0.1,0.3,0.1v0.4h-0.2c0-0.1,0-0.1,0-0.2c0-0.1-0.1-0.1-0.2-0.1
	c-0.1,0-0.2-0.1-0.3-0.1c-0.1,0-0.3,0-0.4,0.1c-0.1,0.1-0.1,0.2-0.1,0.3c0,0.1,0,0.1,0,0.2c0,0.1,0.1,0.1,0.2,0.1
	c0.1,0,0.3,0.1,0.4,0.1l0.4,0.1c0.1,0,0.2,0.1,0.3,0.2c0.1,0.1,0.1,0.2,0.1,0.4c0,0.2-0.1,0.5-0.3,0.6c-0.2,0.2-0.5,0.3-0.8,0.2
	c-0.1,0-0.3,0-0.4,0c-0.1,0-0.2-0.1-0.4-0.1c0-0.1,0-0.1,0-0.2L42.4,30.1 M92.7,44.7l-1,0.3L91,45.2c-0.4,0.1-0.9,0.2-1.3,0.3h-0.1
	c-0.1,0-0.2-0.1-0.2-0.2c0-0.1,0.1-0.1,0.1-0.2l0.3-0.1c1.1-0.4,2.2-0.8,3.3-1.3c0.7-0.3,1.3-0.7,1.9-1.2c0.8-0.7,1.2-1.8,1.2-2.8
	c-1.3,1-2.7,1.8-4.2,2.5l-1,0.5l-0.7,0.3l-1.2,0.5H89c-0.1,0-0.2-0.1-0.2-0.2c0-0.1,0-0.2,0.1-0.2l0.3-0.1c1.2-0.5,2.3-1.1,3.4-1.8
	c0.3-0.2,0.6-0.4,0.8-0.6c0.7-0.5,1.3-1,1.8-1.7c0.7-0.9,1-2.1,0.6-3.2c-1.9,2.2-4.2,4.1-6.8,5.6c-0.4,0.2-0.8,0.4-1.2,0.6
	c-0.1,0-0.2,0-0.2-0.1c0-0.1,0-0.2,0.1-0.2l0.3-0.2c1.6-1,3.2-2.2,4.6-3.5c0.7-0.6,1.3-1.4,1.8-2.2c0.7-1.2,0.8-2.6,0.2-3.9
	c-2.4,3.8-5.8,7-9.7,9.1c-1.3,0.6-2.3,2-1.4,3.4c0.4,0.7,1,1.3,0.2,1.8s-1.7,0.8-2,0.6c-0.2-0.8-0.3-1.7-0.1-2.5
	c0.2-0.9,0.6-1.7,1-2.5c0.5-0.9,0.6-2.1,0.1-3c-0.5-0.7-1.2-1.2-2-1.4c-1.4-0.6-3.1-0.1-4,1.2c-0.3-0.1-0.6,0-0.8,0.3
	c-0.8,0-1.4,0.8-1,2c0,0,1.9-1.1,2,1.6c0.7,0.4,1,1.3,0.6,2c-0.4,0.9-1.2,0.8-2.2,0.7c0,0,0.4,1.3-1.8,3.7c-1.7,1.8-1.5,5.7-0.7,7.4
	c2,4.2-0.8,4.9,0.6,6.3c0.9,0.9,1.2,1.4,1.2,1.7c0,0.6-0.3,0.7-0.9,1.1c-0.3,0.2,0.4,0.7,0.1,0.9c-0.1,0.1-0.6-0.4-0.7-0.6
	c-0.4-0.8,0.1-1,0-1.3c0-0.1-0.4,0-0.4-0.1c0.8-1,0.3-1.7-0.3-1.9c-0.2-0.1-0.5-0.1-0.8,0c-0.4-0.4-1-0.4-1.3,0
	c-0.1,0.1-0.2,0.2-0.2,0.3c0,0,0.8-0.2,1,0.3c-0.4,0.4,0.3,0.8,0.4,1.3c-1-0.3-1.5-0.2-1.7,0.4c-0.4-0.1-0.8,0.2-0.9,0.6
	c0,0.1,0,0.1,0,0.2c0.5-0.3,0.9-0.2,1,0.1c0.2,0.7,1.2,0.2,1.6-0.1c0.1,0.1,0.1,0.2,0,0.3c0,0-1.3,0.2-1.2,1.1
	c-0.4,0.3-0.5,0.9-0.2,1.4c0,0,0.1,0.1,0.1,0.1c0,0,0.1-0.7,0.5-0.8s1.2-0.2,1.4-0.8c0.7,1.2-0.2,0.6,0,1.6c0,0.2,0.3,0.7-0.4,1.1
	c0.5,0.2,1-0.1,1.3-0.6c0.7-0.4,0.2-0.7,0.4-1.1c0.3-0.4,0.7-0.6,1.1-0.8c0.1,0-0.6,1,1,0.8c-0.1-0.5-0.1-1,0.2-1.4
	c0.1,0,0.1,0.6,1,0.8c-0.1-0.9,0.1-1.4,0.5-1.6c0.5-0.2,0.6-0.4,0.4-0.9c-0.1-0.2-1.5-2.7-1.6-2.8s0.1-0.3,0.2-0.2
	c0.6,0.9,1.2,1.9,1.7,2.9c0.5,1,0.7,2,0.7,3.1c-0.3,0-0.6,0.1-0.9,0.2c-5,1.5-9.6,4.1-13.3,7.7c-1.3,1.2-2.4,2.6-3.3,4.1
	c-3.5,0.8-7,1.2-10.6,1.2c-3.6,0-7.1-0.4-10.6-1.2c-1-1.5-2.1-2.9-3.3-4.1c-3.7-3.6-8.3-6.2-13.2-7.7c-0.3-0.1-0.7-0.2-1-0.2
	c0-1.1,0.3-2.1,0.8-3.1c0.5-1,1.1-2,1.7-2.9c0.1-0.1,0.3,0,0.2,0.2s-1.5,2.6-1.6,2.8c-0.2,0.5-0.1,0.8,0.4,0.9
	c0.3,0.1,0.6,0.6,0.5,1.6c0.9-0.2,0.9-0.8,1-0.8c0.2,0.4,0.3,0.9,0.2,1.4c1.6,0.2,0.8-0.8,1-0.8c0.4,0.2,0.8,0.5,1.1,0.8
	c0.3,0.4-0.2,0.7,0.4,1.1c0.3,0.5,0.8,0.7,1.3,0.5c-0.6-0.4-0.3-0.9-0.4-1.1c0.1-0.9-0.8-0.4,0-1.6c0.2,0.6,0.9,0.7,1.4,0.8
	s0.5,0.8,0.5,0.8c0.4-0.4,0.4-1,0-1.4c0,0-0.1-0.1-0.1-0.1c0.1-0.9-1.2-1.1-1.2-1.1c0-0.1,0-0.2,0-0.3c0.4,0.3,1.5,0.8,1.6,0.1
	c0.1-0.3,0.5-0.4,1-0.1c0-0.4-0.3-0.8-0.7-0.8c-0.1,0-0.1,0-0.2,0c-0.1-0.6-0.6-0.7-1.6-0.4c0.1-0.5,0.9-0.9,0.4-1.3
	c0.2-0.5,1-0.3,1-0.3c-0.2-0.5-0.7-0.7-1.2-0.6c-0.1,0-0.2,0.1-0.3,0.2c-0.2-0.1-0.5-0.1-0.8,0c-0.6,0.2-1,1-0.3,1.9
	c0,0.1-0.4,0-0.4,0.1c-0.1,0.3,0.4,0.4,0,1.3c-0.1,0.2-0.6,0.6-0.7,0.6s0.4-0.7,0.1-0.9c-0.6-0.3-0.9-0.4-0.9-1.1
	c0-0.3,0.3-0.8,1.2-1.7c1.4-1.4-1.4-2.1,0.6-6.3c0.8-1.8,1-5.6-0.7-7.4c-2.1-2.4-1.8-3.7-1.8-3.7c-1,0.1-1.8,0.2-2.2-0.7
	c-0.4-0.7-0.1-1.6,0.6-2c0.1-2.7,2-1.6,2-1.6c0.5-1.2-0.2-2-1-2c-0.2-0.3-0.5-0.4-0.8-0.3c-0.9-1.3-2.5-1.8-4-1.2
	c-0.8,0.2-1.6,0.7-2,1.4c-0.5,1-0.4,2.1,0.1,3c0.4,0.8,0.8,1.6,1,2.5c0.2,0.8,0.2,1.7-0.1,2.5c-0.3,0.2-1.3-0.2-2.1-0.6
	s-0.3-1,0.2-1.8c0.9-1.4-0.1-2.8-1.4-3.4c-4-2.1-7.4-5.3-9.8-9.1c-0.7,1-0.4,2.7,0.2,3.8c0.5,0.8,1.1,1.5,1.8,2.2
	c1.4,1.3,3,2.5,4.6,3.5l0.3,0.2c0.1,0.1,0.1,0.2,0,0.3c0,0.1-0.1,0.1-0.2,0.1c-0.3-0.1-0.7-0.3-1.1-0.6c-2.6-1.5-4.9-3.3-6.8-5.6
	c-0.3,1.1-0.1,2.3,0.6,3.1c0.5,0.7,1.1,1.2,1.8,1.7C8,41,8.3,41.2,8.6,41.4c1.1,0.7,2.2,1.3,3.4,1.8l0.3,0.1c0.1,0,0.1,0.1,0.1,0.2
	c0,0.1-0.1,0.2-0.2,0.2h-0.1c-0.4-0.2-0.9-0.3-1.3-0.5l-0.7-0.3l-1-0.5c-1.5-0.7-2.8-1.5-4.2-2.5c-0.1,1.1,0.4,2.1,1.2,2.8
	c0.6,0.5,1.2,0.9,1.9,1.2c1.1,0.5,2.2,0.9,3.4,1.3l0.3,0.1c0.1,0,0.1,0.1,0.1,0.2c0,0.1-0.1,0.2-0.2,0.2h-0.1
	c-0.4-0.1-0.9-0.2-1.3-0.3L9.4,45l-1-0.3c-0.9-0.3-1.8-0.7-2.7-1.1l-0.2-0.1c0.1,1.1,0.8,2,1.8,2.4c1.4,0.5,2.8,0.9,4.2,1.2
	c0.1,0,0.2,0,0.2,0.2s-0.2,0.1-0.2,0.1c-1.6-0.1-3.3-0.4-4.9-0.8c0.3,0.9,1.1,1.6,2,1.9c1,0.2,2,0.2,3,0.2c0.1,0,0.1,0,0.1,0.1
	c0,0.1-0.1,0.1-0.1,0.1c-1.1,0.1-2.2,0.2-3.4,0.3c0.4,0.7,1.1,1.1,1.9,1.1c0.7,0,1.3-0.1,1.9-0.3c0,0,0.1,0,0.1,0v0.1
	c-0.7,0.3-1.3,0.5-2,0.7c0.6,0.5,1.3,0.8,2.1,0.6l0.4-0.1c0,0,0.1,0,0.1,0c0,0,0,0.1,0,0.1c0,0,0,0,0,0c-0.2,0.2-0.4,0.5-0.7,0.7
	c0.6,0.3,1.3,0.4,1.9,0.1l0.1,0.1c-0.1,0.2-0.2,0.5-0.3,0.8c0.7,0.4,1.5-0.1,1.7,0s-0.1,0.3,0.3,0.5s1.3-0.2,1.4-0.1
	c0.5,0.2,1,1.4-1.2,5.3c-1.5,2.6-5.3,3.3-5.3,3.3c0.4,1,1.5,1.6,2.7,1.4c0.2,0.5,1,1.3,2.7,0.5c-0.1-1.1,0.6-1.6,0.8-1.4
	c1,0.7,2.3,1.1,3.5,1.2c0.8,0,0.1,3.3-1,3.6c0.3,0.8,1.3,0.5,1.5,1.4L17,72.2c0,0-1.8,1.6-0.4,2.9c0.8,0.9,1.6,1.8,2.5,2.6
	c0.7,0.8,2,0.9,2.8,0.2c0.1-0.1,0.3-0.2,0.4-0.4l0.5-0.6c0.9,0.3,1.7,0.7,2.6,1.2l-0.7,0.8c-0.8,0.9-0.7,2.2,0.2,3
	c2.7,2.5,6,4.1,10.1,5.4c5,1.6,10.3,2.3,15.5,2.3h0.1c5.3,0,10.5-0.7,15.5-2.3c4.2-1.3,7.4-2.9,10.2-5.4c0.9-0.8,1-2.1,0.2-3
	l-0.7-0.8c0.8-0.4,1.7-0.8,2.6-1.2l0.5,0.6c0.6,0.9,1.9,1.1,2.8,0.5c0.1-0.1,0.3-0.2,0.4-0.4c0.9-0.8,1.8-1.7,2.6-2.6
	c1.4-1.4-0.4-2.9-0.4-2.9l-3.8-3.5c0.2-0.9,1.2-0.6,1.5-1.4c-1.1-0.3-1.8-3.6-1-3.6c1.3-0.1,2.5-0.5,3.5-1.2
	c0.3-0.2,0.9,0.3,0.8,1.4c1.7,0.7,2.5,0,2.7-0.5c1.1,0.2,2.2-0.3,2.7-1.4c0,0-3.8-0.7-5.3-3.3c-2.3-4-1.7-5.1-1.2-5.3
	c0.1-0.1,0.9,0.2,1.4,0.1s0.1-0.5,0.3-0.5s1.1,0.4,1.7,0c0-0.3-0.1-0.5-0.3-0.8l0.1-0.1c0.6,0.3,1.3,0.2,1.9-0.1
	c-0.2-0.2-0.5-0.4-0.7-0.7c0,0,0-0.1,0-0.1c0,0,0.1,0,0.1,0l0.4,0.1c0.8,0.2,1.6-0.1,2.1-0.6c-0.7-0.2-1.3-0.4-2-0.7
	c0,0,0-0.1,0-0.1c0,0,0,0,0,0c0,0,0.1,0,0.1,0c0.6,0.2,1.2,0.3,1.8,0.3c0.8,0,1.5-0.4,1.9-1.1c-1.1,0-2.3-0.1-3.4-0.3
	c0,0-0.1,0-0.1-0.1c0-0.1,0.1-0.1,0.1-0.1c1,0,2,0,3-0.2c0.9-0.3,1.7-1,2-1.9c-1.6,0.4-3.2,0.6-4.8,0.7c0,0-0.2,0-0.2-0.1
	s0.1-0.2,0.2-0.2c1.4-0.2,2.8-0.6,4.2-1.2c1-0.4,1.7-1.4,1.8-2.4l-0.2,0.1C94.5,44,93.6,44.3,92.7,44.7L92.7,44.7z"/>
<path class="st0" d="M71.3,76.8c-0.1,0.1-0.3,0.2-0.4,0.3l3.8,4.4l0.3-0.3L71.3,76.8z M29.8,76.8L26,81.2l0.4,0.3l3.9-4.4L29.8,76.8
	z M63,80.8c-4.1,1.1-8.3,1.7-12.5,1.7c-4.2,0-8.4-0.5-12.5-1.7c-2.5-0.7-4.8-1.7-7-3.1l-4,4.4c2.8,2,6,3.4,9.3,4.3
	c4.6,1.3,9.3,1.9,14.1,1.9c4.8,0,9.5-0.6,14.1-1.9c3.3-0.9,6.5-2.4,9.3-4.3l-3.8-4.4C67.9,79.1,65.5,80.1,63,80.8z"/>
<path class="st2" d="M34.2,84.6c0.1,0,0.2,0,0.4,0c0.1,0,0.2-0.1,0.2-0.2c0.2-0.2,0.5-0.5,0.8-0.9l1.8-2.2l0.4,0.1l0.4,3.6
	c0,0.3,0.1,0.5,0.1,0.8c0.1,0.1,0.2,0.2,0.4,0.2l-0.1,0.3l-0.9-0.3l-1-0.3l0.1-0.3c0.1,0,0.3,0.1,0.4,0.1c0,0,0.1,0,0.1-0.1
	c0-0.1,0-0.3,0-0.4l0-0.6l-0.8-0.3c-0.3-0.1-0.5-0.2-0.7-0.2l-0.2,0.3l-0.3,0.4c0,0,0,0.1,0,0.1c0,0,0,0.1,0,0.1
	c0.1,0.1,0.3,0.1,0.4,0.2l-0.1,0.3C35.2,85.1,35,85,34.7,85c-0.3-0.1-0.5-0.1-0.7-0.2L34.2,84.6z M37,82.3l-1.1,1.3
	c0.2,0.1,0.4,0.1,0.6,0.2l0.7,0.2L37,82.3z M39,86.3v-0.3h0.5c0,0,0.1-0.2,0.1-0.4c0.1-0.5,0.2-1,0.3-1.6c0-0.3,0.1-0.7,0.2-1.1
	c0-0.1,0-0.3,0-0.4c0,0,0-0.1,0-0.1l-0.4-0.1v-0.3l0.7,0.1l0.8,0.1c0.1,0.3,0.1,0.6,0.2,0.8s0.3,1,0.7,2.5c0.9-1.3,1.6-2.2,2-2.8
	l0.7,0.1l0.8,0.1v0.3c-0.2,0-0.3,0-0.5,0c0,0-0.1,0.1-0.1,0.3s-0.2,0.7-0.3,1.4c-0.1,0.4-0.1,0.7-0.2,1.1c0,0.2-0.1,0.5-0.1,0.7
	c0,0,0,0.1,0,0.1c0.1,0.1,0.3,0.1,0.4,0.1v0.3c-0.3-0.1-0.6-0.1-0.9-0.2S43.3,87,42.9,87v-0.3h0.5c0.1-0.1,0.1-0.2,0.1-0.3
	c0-0.1,0.1-0.5,0.2-1l0.3-1.8c-0.4,0.6-1,1.3-1.6,2.3c-0.3,0.4-0.5,0.7-0.6,0.9h-0.2c-0.1-0.4-0.2-0.8-0.4-1.4l-0.7-2.3l-0.1,0.4
	c-0.2,1.1-0.3,1.9-0.4,2.4c0,0.1,0,0.2,0,0.3c0.1,0.1,0.3,0.1,0.4,0.2v0.3c-0.2-0.1-0.4-0.1-0.6-0.1L39,86.3 M45.2,87
	c0.1,0,0.2,0,0.4,0c0.1-0.1,0.1-0.1,0.2-0.2c0.1-0.3,0.3-0.6,0.5-1.1l1.3-2.6h0.5l1.2,3.4c0.1,0.2,0.2,0.5,0.3,0.7
	c0.1,0.1,0.3,0.1,0.4,0.1v0.3l-1-0.1h-1v-0.3c0.1,0,0.3,0,0.4,0c0,0,0.1-0.1,0.1-0.1c0-0.1-0.1-0.3-0.1-0.4l-0.1-0.6h-1.6l-0.2,0.3
	c-0.1,0.1-0.1,0.3-0.2,0.4c0,0,0,0.1,0,0.1c0,0,0,0.1,0.1,0.1c0.1,0,0.3,0.1,0.4,0.1v0.3l-0.8-0.1h-0.7L45.2,87z M47.4,84.1
	l-0.7,1.5h1.3L47.4,84.1z M52.5,85.9v-0.3h1.9v0.2L54.1,86c0,0.2,0,0.4,0,0.5v0.6c-0.3,0.1-0.7,0.2-1,0.3c-0.3,0.1-0.6,0.1-0.8,0.1
	c-0.7,0.1-1.4-0.1-1.9-0.6c-0.5-0.4-0.7-1-0.7-1.6c0-0.6,0.2-1.2,0.6-1.6c0.6-0.5,1.3-0.7,2-0.7c0.3,0,0.6,0,0.9,0
	c0.3,0,0.5,0.1,0.8,0.2c-0.1,0.3-0.1,0.7-0.1,1h-0.3c0-0.2,0-0.3,0-0.5c-0.1-0.2-0.3-0.3-0.5-0.3c-0.2-0.1-0.5-0.1-0.7-0.1
	c-0.5,0-0.9,0.2-1.3,0.5c-0.3,0.4-0.5,0.8-0.4,1.3c0,0.5,0.2,1,0.5,1.4c0.3,0.3,0.8,0.5,1.2,0.5c0.3,0,0.6-0.1,0.8-0.2
	c0-0.1,0-0.3,0-0.4c0-0.2,0-0.4-0.1-0.5C53,85.9,52.7,85.9,52.5,85.9 M54.8,87.1c0.1,0,0.2-0.1,0.3-0.1c0.1-0.1,0.1-0.2,0.1-0.3
	c0.1-0.3,0.2-0.7,0.3-1.2l0.8-2.8l0.5-0.1l1.8,3.1c0.1,0.2,0.2,0.4,0.4,0.6c0.1,0,0.3,0,0.4,0v0.3c-0.3,0-0.7,0.1-1,0.1l-1,0.1v-0.3
	c0.1,0,0.3,0,0.4-0.1v-0.1c0-0.1-0.1-0.2-0.2-0.4l-0.3-0.5l-0.9,0.1l-0.7,0.1l-0.1,0.4c0,0.1-0.1,0.3-0.1,0.4c0,0,0,0.1,0,0.1
	c0,0,0,0.1,0.1,0.1h0.4v0.3c-0.2,0-0.5,0-0.8,0.1s-0.5,0.1-0.7,0.1L54.8,87.1z M56.4,83.9L56,85.5l0.6-0.1l0.7-0.1L56.4,83.9z
	 M61.2,86.5l-0.1-0.3c0.2,0,0.3-0.1,0.4-0.2v-0.2c-0.1-0.4-0.2-0.8-0.3-1.3c-0.1-0.4-0.2-0.8-0.3-1.2c-0.1-0.3-0.1-0.5-0.2-0.7h-0.1
	c-0.1,0-0.3,0-0.4,0l-0.1-0.3l1-0.2l1.2-0.3l0.7-0.2l0.4-0.1v0.1c0,0.3,0.1,0.6,0.1,0.9l-0.3,0.1l-0.1-0.3c0-0.1,0-0.1-0.1-0.2h-0.2
	c-0.2,0-0.4,0.1-0.5,0.1l-0.5,0.2c0.1,0.3,0.1,0.6,0.1,0.7l0.2,0.6v0.1l0.4-0.1c0.2,0,0.4-0.1,0.5-0.2c0,0,0.1,0,0.1-0.1
	c0-0.1,0-0.3,0-0.4l0.3-0.1l0.1,0.5c0,0.2,0.1,0.4,0.2,0.8l-0.3,0.1c0-0.2-0.1-0.3-0.2-0.4h-0.1c-0.2,0-0.4,0.1-0.6,0.1l-0.4,0
	l0.3,1.1c0,0.2,0.1,0.3,0.2,0.5c0,0,0.1,0,0.1,0c0.2,0,0.3,0,0.5-0.1l0.1,0.3l-0.9,0.2L61.2,86.5 M64.8,84.5
	c0.3-0.1,0.5,0.1,0.6,0.3c0,0.1,0,0.3,0,0.4c-0.1,0.2-0.4,0.3-0.7,0.2c-0.1-0.1-0.2-0.2-0.2-0.3c-0.1-0.1-0.1-0.3,0-0.4
	C64.6,84.7,64.7,84.6,64.8,84.5 M69.6,83L69.6,83l0.1,0.3c-0.2,0.2-0.3,0.4-0.5,0.5c-0.2,0.1-0.4,0.3-0.7,0.4
	c-0.4,0.2-0.9,0.3-1.4,0.3c-0.4,0-0.8-0.2-1.1-0.4c-0.3-0.3-0.6-0.6-0.7-1c-0.3-0.5-0.3-1.2,0-1.7c0.3-0.6,0.9-1.1,1.5-1.3
	c0.2-0.1,0.5-0.2,0.8-0.2c0.3-0.1,0.5-0.1,0.8-0.1c0,0.1,0,0.2,0,0.3c0,0.2,0.1,0.4,0.2,0.6l-0.2,0.1c-0.1-0.2-0.1-0.3-0.2-0.5
	c-0.1,0-0.1-0.1-0.2-0.1c-0.1,0-0.3,0-0.4,0c-0.2,0-0.4,0.1-0.6,0.1c-0.4,0.1-0.7,0.5-0.9,0.9c-0.1,0.5,0,1,0.2,1.4
	c0.2,0.5,0.5,0.9,1,1.1c0.5,0.2,1,0.2,1.4,0c0.2-0.1,0.4-0.2,0.6-0.3C69.2,83.4,69.4,83.2,69.6,83 M70.2,82.3c0.1,0,0.3,0,0.4,0
	c0.1,0,0.2,0.1,0.3,0.2c0.1,0.1,0.1,0.3,0,0.4c-0.1,0.3-0.3,0.4-0.6,0.3c-0.1,0-0.2-0.1-0.3-0.3c-0.1-0.1-0.1-0.3,0-0.4
	C70,82.5,70.1,82.4,70.2,82.3"/>
<path class="st1" d="M76.7,40.5c-0.5-0.3-0.7-0.4-1.1-0.3c0,0-0.2-0.7,0.8-0.6c0,0-0.2,0.4,0.2,0.5s0.4-0.2,0.4-0.2
	S77.3,40.8,76.7,40.5 M80.5,39.3c0-0.4-0.3-0.4-0.4-0.3s-0.5,0.1-0.6-0.1c-0.1-0.2-0.2-0.2-0.4-0.2c0,0-0.1,0-0.1,0.1
	c-0.1,0.1-0.4,0.1-0.5,0c0,0,0,0,0,0c-0.1-0.1-0.3-0.1-0.4,0c0,0-0.1,0.1-0.1,0.2c-0.1,0.2-0.6,0.3-0.6,0.3s-0.1-0.1,0-0.2
	c1.1-1.1,2.9-1.1,4,0c0.4,0.4,0.7,0.9,0.8,1.5c0,0.1,0,2.6-2.2,1.8c-0.1,0.6-0.7,0.9-1.2,0.9c0.3-0.7-0.9-0.9-1.2-1.1
	c-0.2-0.2-0.2-0.4,0-0.6c0,0,0,0,0.1-0.1c0.2-0.1,0.3-0.4,0.2-0.7c0-0.1-0.1-0.1-0.1-0.1c-0.3-0.2-0.3-0.5,0-0.5
	c0.2,0.1,0.4,0.2,0.5,0.5c0.1,0.2,0.4,0.6,0.6,0.4c0.1-0.2,0.3-0.2,0.5-0.2c0.7,0.2,1.4-0.1,1.6-0.8c0-0.1,0.1-0.2,0.1-0.3
	C81,39.6,80.5,39.6,80.5,39.3"/>
<path class="st1" d="M78.9,39.6c0,0.2-0.2,0.4-0.4,0.4l0,0c-0.2,0-0.4-0.2-0.4-0.3c0,0,0,0,0,0c0-0.2,0.2-0.4,0.4-0.4l0,0
	C78.7,39.2,78.9,39.4,78.9,39.6 M77.3,47.5c0.3-0.1,0.8-1,0.9-1.5c0.2-1.5,2.1-1.3,2.1-1.3s-2.3,2-0.2,3.7c-0.1,0.6-0.4,1.1-0.8,1.5
	c-2.1-0.9-2,1.2-2.5,1.1C76,50.7,76,49.6,76,49.6c-0.2,0.4-0.5,0.8-0.9,1.1c-0.8,0.8-1.3,2.2-0.6,4.5c0.4,1.3-0.6,0.1-0.6,0
	c-1.2-4,0.3-5.3,0.8-5.8c0.6-0.7,1.1-1.5,1.4-2.3C76.6,45.6,76.7,47.7,77.3,47.5 M24.4,40.5c-0.7,0.3-0.3-0.6-0.3-0.6s0,0.3,0.4,0.2
	s0.2-0.5,0.2-0.5c0.9-0.1,0.8,0.6,0.8,0.6C25.1,40.1,24.9,40.2,24.4,40.5 M20.6,39.3c0,0.4-0.5,0.4-0.5,0.4c0.1,0.7,0.7,1.2,1.4,1.1
	c0.1,0,0.2,0,0.3-0.1c0.2,0,0.4,0,0.5,0.2c0.2,0.2,0.4-0.2,0.6-0.4c0.1-0.2,0.3-0.4,0.5-0.5c0.2-0.1,0.2,0.3,0,0.5
	c-0.2,0.2-0.2,0.5,0,0.7c0,0.1,0.1,0.1,0.2,0.1c0.2,0.1,0.3,0.4,0.1,0.6c0,0,0,0.1-0.1,0.1c-0.2,0.3-1.4,0.4-1.2,1.1
	c-0.6,0-1.1-0.3-1.2-0.9c-2.2,0.8-2.2-1.7-2.2-1.8c0.3-1.5,1.7-2.6,3.3-2.3c0.6,0.1,1.1,0.4,1.5,0.8c0.1,0.1,0,0.2,0,0.2
	s-0.7,0-0.7-0.3c0-0.2-0.2-0.3-0.3-0.3c-0.1,0-0.1,0-0.2,0.1c-0.1,0.1-0.3,0.1-0.5,0c0,0,0,0,0,0c-0.1-0.1-0.3-0.1-0.4,0
	c0,0-0.1,0.1-0.1,0.1c-0.1,0.2-0.3,0.2-0.6,0.1S20.6,38.9,20.6,39.3"/>
<path class="st1" d="M22.2,39.6c0,0.2,0.2,0.4,0.4,0.4s0.4-0.2,0.4-0.4c0,0,0,0,0,0c0-0.2-0.2-0.4-0.4-0.4
	C22.3,39.2,22.2,39.4,22.2,39.6 M23.8,47.5c-0.3-0.1-0.8-1-0.9-1.5c-0.2-1.5-2.1-1.3-2.1-1.3s2.4,2,0.2,3.7c0.1,0.6,0.4,1.1,0.8,1.5
	c2.1-0.9,2,1.2,2.5,1.1c0.7-0.2,0.7-1.4,0.7-1.4c0.2,0.4,0.5,0.8,0.9,1.1c0.8,0.8,1.3,2.2,0.6,4.5c-0.4,1.3,0.6,0.1,0.6,0
	c1.2-4-0.3-5.3-0.8-5.8c-0.6-0.7-1.1-1.5-1.4-2.3C24.4,45.6,24.3,47.7,23.8,47.5"/>
<path class="st0" d="M79.5,69.9l-0.3,0.3l4.3,4c0.1-0.1,0.2-0.2,0.3-0.3L79.5,69.9z M76.5,72.9l3.9,4.4c0.8-0.7,1.6-1.5,2.3-2.2
	l-4.3-4C77.9,71.6,77.2,72.3,76.5,72.9L76.5,72.9z M75.4,73.8l-1-1.1c0,0-0.6-0.6,0.3-1.7c0.1-0.1,0.1-0.2,0-0.2
	c-0.1-0.1-0.2-0.1-0.3-0.1c-2.4,1-4.7,2.4-6.8,4c-0.1,0.1-0.2,0.4-0.1,0.5c0.1,0.2,0.4,0.2,0.6,0.1c0.8-0.5,1.6-0.9,2.4-1.2
	c1.4-0.5,1.7,0,1.7,0l2.5,2.9c0.8-0.4,1.7-0.8,2.5-1.2L75.4,73.8z M17.3,73.9l0.3,0.3l4.3-4c-0.1-0.1-0.2-0.2-0.3-0.3L17.3,73.9z
	 M22.6,71l-4.3,4c0.8,0.8,1.5,1.5,2.3,2.2l3.9-4.4C23.9,72.3,23.2,71.6,22.6,71z M25.6,73.8l1-1.1c0,0,0.6-0.6-0.3-1.7
	c0-0.1,0-0.2,0-0.2c0.1-0.1,0.2-0.1,0.3-0.1c2.4,1,4.7,2.4,6.8,4c0.1,0.1,0.2,0.4,0.1,0.5c-0.1,0.2-0.4,0.2-0.6,0.1
	c-0.8-0.5-1.6-0.9-2.4-1.2c-1.4-0.5-1.7,0-1.7,0l-2.5,2.9c-0.8-0.4-1.7-0.8-2.5-1.2L25.6,73.8z"/>
<path class="st2" d="M37.6,31.9H37l-1,3l-1-3h-1.4v0.2h0.3c0,0.1,0,0.2,0,0.3v3.3c0,0.1,0,0.2,0,0.3c0,0-0.1,0.1-0.2,0.1h-0.2v0.3
	l0.7-0.1l0.5,0v-0.1h-0.4c0-0.1,0-0.1,0-0.2v-3.6v0.1l1.2,3.8h0.2l1.2-3.5v2.8c0,0.1,0,0.1,0,0.2c-0.1,0-0.1,0.1-0.2,0.1h-0.2v0.3
	l0.9-0.1c0.2,0,0.7-0.1,0.7-0.1v-0.3h-0.3v-3.2v-0.2c0.1-0.1,0.2-0.1,0.3-0.1v-0.3L37.6,31.9L37.6,31.9z M56.1,35c0-0.2,0-0.3,0-0.5
	v-2.1c0-0.1,0-0.1,0-0.2h0.3V32h-1.2c-0.2,0.5-0.6,1.3-1.1,2.3l-0.8-1.7c-0.1-0.2-0.2-0.4-0.3-0.6h-1.3v0.1h0.3c0,0.1,0,0.2,0,0.3
	v2.4c0,0-0.1,0-0.2,0h-0.2v0.3H53v-0.3c-0.1,0-0.2,0-0.3-0.1c0-0.1,0-0.2,0-0.2v-2l0.8,1.5c0.2,0.4,0.4,0.7,0.5,1h0.2
	c0.1-0.2,0.2-0.5,0.4-0.8c0.3-0.7,0.6-1.3,0.9-1.8v2.1c0,0.1,0,0.1,0,0.2H55V35h1.5v0.1L56.1,35z M45,31.9h-3v0.8h0.3v-0.4H43v2.8
	c0,0,0,0.1,0,0.1h-0.4v0.3c0,0,0.5-0.1,0.9-0.1h0.8v-0.3h-0.4c0-0.1,0-0.1,0-0.2v-2.6c0,0,0-0.1,0-0.1c0.3,0,0.5,0,0.8,0h0.1v0.4H45
	c0,0,0-0.6,0.1-0.8v0L45,31.9z M60.1,32.6c-0.1-0.2-0.4-0.4-0.6-0.6c-0.3-0.1-0.7-0.2-1-0.2c-0.3,0-0.7,0.1-1,0.2
	c-0.3,0.1-0.5,0.3-0.6,0.6c-0.2,0.3-0.2,0.7-0.2,1c0,0.1,0,0.3,0,0.4c0,0.4,0.2,0.7,0.4,1c0.4,0.3,0.9,0.5,1.4,0.5h0.2
	c0.3,0,0.5-0.1,0.8-0.2c0.3-0.1,0.5-0.3,0.7-0.6c0.2-0.3,0.2-0.7,0.2-1v-0.4C60.3,33.2,60.3,32.9,60.1,32.6z M59.2,34.9
	c-0.2,0.2-0.4,0.3-0.6,0.3h-0.1c-0.2,0-0.4-0.1-0.6-0.2c-0.2-0.1-0.3-0.3-0.4-0.5c-0.1-0.3-0.1-0.7-0.1-1c0-0.4,0.1-0.7,0.3-1
	c0.2-0.2,0.5-0.3,0.8-0.3c0.3,0,0.6,0.1,0.8,0.3c0.2,0.3,0.3,0.7,0.3,1.1V34C59.5,34.3,59.4,34.7,59.2,34.9L59.2,34.9z M67.5,33.4
	c0-0.3-0.1-0.6-0.2-0.8c-0.1-0.2-0.3-0.4-0.6-0.6c-0.3-0.2-0.7-0.2-1-0.2h-0.1c-0.3,0-0.6,0.1-0.9,0.2c-0.3,0.1-0.5,0.3-0.7,0.6
	c-0.2,0.3-0.3,0.7-0.3,1v0.9c0,0.5,0.2,0.9,0.4,1.3c0.3,0.3,0.8,0.5,1.3,0.5c0.2,0,0.4,0,0.5,0c0.2,0,0.4,0,0.6-0.1
	c0.3-0.1,0.5-0.3,0.7-0.5c0.2-0.3,0.3-0.7,0.3-1.1V33.4z M65.6,32.2c0.3,0,0.6,0.1,0.8,0.3c0.2,0.3,0.3,0.7,0.3,1.1v1.1
	c0,0.4-0.1,0.7-0.3,1c-0.2,0.2-0.4,0.2-0.7,0.2h-0.1c-0.2,0-0.4-0.1-0.6-0.2c-0.2-0.1-0.3-0.3-0.4-0.5c-0.1-0.3-0.1-0.5-0.1-0.8v-1
	c0-0.4,0.1-0.7,0.3-1C65,32.2,65.3,32.1,65.6,32.2z M63.6,31.9h-3v0.8h0.3c0-0.1,0-0.3,0-0.4h0.8v3.1c0,0,0,0.1,0,0.1h-0.4v0.3
	c0.2,0,0.5,0,0.8,0.1l0.7,0.1v-0.3c-0.1,0-0.2,0-0.3-0.1v-0.2v-3c0,0,0-0.1,0-0.1c0.2,0,0.5,0,0.7,0c0,0.1,0,0.3,0,0.4h0.3
	C63.5,32.4,63.5,32.2,63.6,31.9L63.6,31.9L63.6,31.9z M41.8,35.2l-1.3-3.4h-0.4l-1.3,3.5c0,0.1-0.1,0.1-0.1,0.2l-0.3,0.1v0.3
	c0,0,0.4-0.1,0.6-0.1h0.6v-0.3h-0.4c0,0,0-0.1,0-0.1l0.2-0.6h1.2l0.2,0.6c0,0,0,0.1-0.1,0.1l-0.3,0v0.3c0,0,0.6-0.1,0.9-0.1H42v-0.3
	C41.8,35.3,41.8,35.2,41.8,35.2z M40,34.4h-0.5l0.5-1.5l0.5,1.5L40,34.4z M51.1,31.9h-0.6v0.3c0.1,0,0.2,0,0.3,0c0,0.1,0,0.2,0,0.3
	v0.9c0,0.3,0,0.6-0.1,1c0,0.1-0.1,0.2-0.3,0.3c-0.2,0.1-0.4,0.1-0.6,0.1c-0.2,0-0.3,0-0.5-0.1c-0.1-0.1-0.2-0.1-0.2-0.2
	c-0.1-0.2-0.1-0.3-0.1-0.5v-0.9v-0.8c0,0,0-0.1,0-0.1c0.1,0,0.2,0,0.3,0v-0.3h-1.5v0.3c0.1,0,0.2,0,0.3,0c0,0.1,0,0.1,0,0.2v1.7
	c0,0.2,0,0.4,0.1,0.6c0.1,0.2,0.3,0.3,0.5,0.4c0.3,0.1,0.5,0.1,0.8,0.1c0.3,0,0.5,0,0.8-0.2c0.2-0.1,0.4-0.2,0.5-0.4
	c0.1-0.2,0.1-0.4,0.2-0.6v-0.6v-1.2c0-0.1,0-0.2,0.1-0.3c0.1,0,0.2,0,0.3,0v-0.3L51.1,31.9L51.1,31.9z M47.3,33.3
	c-0.2,0-0.4-0.1-0.5-0.1c-0.2,0-0.4,0-0.6-0.1c-0.1,0-0.1-0.1-0.2-0.1c0-0.1-0.1-0.2-0.1-0.2c0-0.1,0.1-0.3,0.2-0.4
	c0.1-0.1,0.3-0.2,0.5-0.2c0.1,0,0.2,0,0.4,0.1c0.1,0,0.2,0.1,0.2,0.1c0,0.1,0,0.2,0,0.3h0.3v-0.3c0-0.1,0-0.2,0-0.3v0
	c-0.1-0.1-0.3-0.1-0.4-0.1c-0.1,0-0.2,0-0.4,0h-0.1c-0.4,0-0.7,0.1-1,0.4c-0.2,0.2-0.3,0.5-0.3,0.8c0,0.2,0,0.3,0.1,0.5
	c0.1,0.1,0.2,0.2,0.3,0.3c0.2,0.1,0.5,0.1,0.8,0.1c0.2,0,0.3,0.1,0.5,0.2c0.1,0.1,0.1,0.2,0.1,0.3c0,0.2-0.1,0.3-0.2,0.4
	c-0.1,0.1-0.3,0.2-0.5,0.2h0c-0.1,0-0.2,0-0.3,0c-0.1,0-0.2-0.1-0.3-0.1c-0.1,0-0.1-0.1-0.1-0.1c0-0.1,0-0.3,0-0.4h-0.3v0.5
	c0,0.1-0.1,0.2-0.1,0.3c0.1,0.1,0.3,0.2,0.5,0.2c0.1,0,0.3,0,0.4,0h0.1c0.4,0,0.8-0.1,1.1-0.4c0.3-0.2,0.4-0.5,0.4-0.9
	c0-0.2,0-0.3-0.1-0.5C47.6,33.5,47.5,33.4,47.3,33.3z M35.2,80.6l-0.1,0.2c0.1,0,0.1,0.1,0,0.2c-0.7,0.5-1.5,1.1-1.5,1.1
	c0-0.5-0.2-1.4-0.3-2c0,0,0-0.1,0.2-0.1l0.1-0.2c-0.7-0.3-1.4-0.7-1.4-0.7l-0.1,0.2c0.2,0.1,0.3,0.2,0.3,0.4c0,0.1,0.2,1.1,0.3,1.6
	c0.1,0.3,0.1,0.6,0.1,0.9c0,0.2-0.1,0.3-0.2,0.5L32.6,83l-0.3,0.5c0,0.1-0.1,0.1-0.2,0.1c-0.1,0-0.3-0.1-0.4-0.1l-0.1,0.2
	c0.4,0.2,0.7,0.3,1,0.4s0.6,0.3,0.8,0.4l0.1-0.2c-0.2-0.1-0.3-0.1-0.4-0.2c0-0.1,0-0.1,0-0.2c0.1-0.2,0.2-0.5,0.4-1
	c0.1-0.1,0.1-0.3,0.2-0.4c0.4-0.3,0.8-0.6,1.2-0.9l0.5-0.3c0.1-0.1,0.3-0.1,0.5-0.1h0.1l0.1-0.2C36.1,81,35.7,80.8,35.2,80.6
	L35.2,80.6z"/>
</svg>
