<?xml version="1.0" encoding="UTF-8" standalone="no"?>
<svg
   xmlns:dc="http://purl.org/dc/elements/1.1/"
   xmlns:cc="http://creativecommons.org/ns#"
   xmlns:rdf="http://www.w3.org/1999/02/22-rdf-syntax-ns#"
   xmlns:svg="http://www.w3.org/2000/svg"
   xmlns="http://www.w3.org/2000/svg"
   xmlns:sodipodi="http://sodipodi.sourceforge.net/DTD/sodipodi-0.dtd"
   xmlns:inkscape="http://www.inkscape.org/namespaces/inkscape"
   width="77.320694mm"
   height="90.752083mm"
   viewBox="0 0 292.23569 343"
   version="1.1"
   id="svg3121"
   inkscape:version="1.0.1 (3bc2e813f5, 2020-09-07)"
   sodipodi:docname="ehime.svg">
  <defs
     id="defs3115" />
  <sodipodi:namedview
     id="base"
     pagecolor="#ffffff"
     bordercolor="#666666"
     borderopacity="1.0"
     inkscape:pageopacity="0.0"
     inkscape:pageshadow="2"
     inkscape:zoom="0.35"
     inkscape:cx="152.54641"
     inkscape:cy="137.21428"
     inkscape:document-units="px"
     inkscape:current-layer="layer1"
     inkscape:document-rotation="0"
     showgrid="false"
     inkscape:window-width="1267"
     inkscape:window-height="728"
     inkscape:window-x="52"
     inkscape:window-y="0"
     inkscape:window-maximized="0" />
  <metadata
     id="metadata3118">
    <rdf:RDF>
      <cc:Work
         rdf:about="">
        <dc:format>image/svg+xml</dc:format>
        <dc:type
           rdf:resource="http://purl.org/dc/dcmitype/StillImage" />
        <dc:title></dc:title>
      </cc:Work>
    </rdf:RDF>
  </metadata>
  <g
     inkscape:label="Layer 1"
     inkscape:groupmode="layer"
     id="layer1"
     transform="translate(-222.45359,-382.78572)">
    <path
       class="cls-1"
       d="m 511.11075,444.35973 a 16.587845,16.587845 0 0 0 -0.45419,-1.97474 l -0.11848,-0.25672 a 15.797947,15.797947 0 0 0 -2.76464,-5.23307 l -0.35546,-0.43444 v 0 a 4.5419098,4.5419098 0 0 0 -0.39494,-0.43444 v 0 c -5.68727,-5.92423 -20.71506,-9.08382 -34.12357,0 l -42.00279,-32.24756 a 3.3175689,3.3175689 0 0 0 -3.69277,-0.23697 l -27.88338,16.05466 -28.25858,-35.54538 a 3.3175689,3.3175689 0 0 0 -5.21332,0 l -28.25858,35.54538 -27.88339,-16.05466 a 3.3175689,3.3175689 0 0 0 -3.69277,0.23697 l -41.90405,32.08958 c -13.40851,-9.06407 -28.4363,-5.92423 -34.12356,0 v 0 a 4.5419098,4.5419098 0 0 0 -0.39495,0.43444 v 0 l -0.23697,0.29621 -0.11849,0.13823 a 15.797947,15.797947 0 0 0 -2.76464,5.23307 l -0.11848,0.25672 a 16.587845,16.587845 0 0 0 -0.45419,1.97474 14.395879,14.395879 0 0 0 -0.92813,17.47648 c 1.52055,2.15247 7.44478,8.66912 19.74743,2.2907 a 3.3373164,3.3373164 0 0 0 -1.08611,-6.27968 c -4.36418,-0.61217 -9.2418,-2.19197 -10.03169,-3.25833 v 0 a 16.094159,16.094159 0 0 1 -1.40207,-6.9116 l 0.19747,-0.17772 a 21.722177,21.722177 0 0 1 12.00644,-3.94949 12.6976,12.6976 0 0 1 9.51827,3.73226 c 3.94948,3.94949 5.92423,10.54513 5.92423,19.88567 0,25.15824 -16.74583,34.99246 -17.45673,35.40716 a 3.3373164,3.3373164 0 0 0 -1.5403,3.94948 l 4.14696,12.91482 v 0 l 0.86888,2.7054 v 0 l 0.11849,0.35546 1.63904,5.11458 c -0.80965,1.26384 -1.44157,2.2907 -1.97475,3.19909 v 0 c -1.1256,1.81676 -2.09323,3.4163 -2.84363,4.71963 v 0 c -0.55293,0.96763 -0.94788,1.69828 -1.22434,2.25121 -5.92423,11.37452 -6.49691,21.82092 7.89897,41.5881 l 6.71413,9.28129 7.42504,10.24892 a 138.70598,138.70598 0 0 0 24.28934,66.37112 h -19.51046 a 3.3373164,3.3373164 0 0 0 -3.33732,3.33732 v 34.20256 a 3.3570638,3.3570638 0 0 0 3.33732,3.35706 h 61.07882 c 4.68014,3.15959 9.08382,5.92423 12.99381,8.03721 a 156.73538,156.73538 0 0 0 24.94101,11.57199 3.4360535,3.4360535 0 0 0 2.09322,0 156.73538,156.73538 0 0 0 24.94101,-11.57199 c 3.94949,-2.19197 8.31367,-4.87762 12.99382,-8.03721 h 61.07881 a 3.3570638,3.3570638 0 0 0 3.33732,-3.35706 v -34.12357 a 3.3373164,3.3373164 0 0 0 -3.33732,-3.33732 h -19.31299 a 138.70598,138.70598 0 0 0 24.28934,-66.37112 l 7.42504,-10.24892 6.71413,-9.28129 c 14.37613,-19.74744 13.8232,-30.21358 7.89897,-41.5881 -0.27646,-0.55293 -0.67141,-1.28358 -1.22434,-2.25121 v 0 c -0.7504,-1.30333 -1.71803,-2.90287 -2.84363,-4.71963 v 0 c -0.53318,-0.90839 -1.1651,-1.97475 -1.97475,-3.19909 l 1.63904,-5.11458 0.11849,-0.35546 v 0 l 0.86888,-2.7054 v 0 l 4.14696,-12.91482 a 3.3175689,3.3175689 0 0 0 -1.5403,-3.94948 c -0.7109,-0.4147 -17.45673,-10.24892 -17.45673,-35.40716 0,-9.34054 1.97475,-16.03492 5.92423,-19.88567 a 12.6976,12.6976 0 0 1 9.45902,-3.63352 21.722177,21.722177 0 0 1 12.00644,3.94948 l 0.19748,0.17773 a 16.173149,16.173149 0 0 1 -1.28359,7.01033 v 0 c -0.78989,1.06637 -5.66751,2.64616 -10.05144,3.25833 a 3.3373164,3.3373164 0 0 0 -1.06636,6.27969 c 12.3224,6.37842 18.24663,-0.13824 19.74743,-2.29071 a 14.395879,14.395879 0 0 0 -1.08611,-17.59496 z m -248.34373,108.86761 -7.89898,-24.82252 c 2.27096,-3.59403 4.93686,-7.7015 7.89898,-12.26316 z m 211.29755,0 v -37.08568 c 3.02136,4.56166 5.68726,8.66913 7.89897,12.26316 z M 263.31995,596.80993 Z M 511.26873,445.54458 Z m -6.85236,1.69828 z"
       id="path2964"
       style="fill:#ffffff;stroke-width:1.97474" />
    <path
       class="cls-1"
       d="m 504.89031,438.63298 0.47394,0.59242 a 26.698531,26.698531 0 0 0 -12.83583,-3.4163 25.256968,25.256968 0 0 0 -18.46385,6.81286 c -4.28519,4.28519 -6.89186,10.42664 -7.76074,18.30587 -0.15798,1.67853 -0.23697,3.4558 -0.23697,5.29231 a 69.313494,69.313494 0 0 0 4.71963,23.9339 v 1.20459 a 116.68759,116.68759 0 0 0 17.21977,29.62115 l 0.86888,-2.74489 c -13.30977,-17.39749 -20.51758,-35.24917 -20.51758,-51.02738 0,-10.28841 2.48818,-18.04915 7.36579,-22.92677 q 6.12171,-6.08221 16.80507,-6.08221 a 25.908634,25.908634 0 0 1 14.90931,5.13434 12.460631,12.460631 0 0 0 -2.54742,-4.69989 z"
       id="path2966"
       style="fill:#ffffff;stroke-width:1.97474" />
    <path
       class="cls-1"
       d="m 467.56766,597.02715 c 0,0 -6.51665,26.46156 -14.51436,43.04941 -6.87211,14.37613 -10.74261,21.07051 -35.99957,42.85193 -24.66455,21.20874 -45.77456,28.43631 -48.59844,29.40393 -2.82388,-0.92813 -23.93389,-8.15569 -48.59844,-29.36443 -25.25697,-21.72218 -29.12747,-28.4758 -35.99958,-42.85194 -7.89897,-16.58784 -14.51436,-43.0494 -14.51436,-43.0494 -2.2512,-8.09645 -18.22688,-56.43817 -20.97177,-64.63335 -1.22434,1.97474 -2.15247,3.55453 -2.84363,4.73938 0.35545,-0.59242 0.7504,-1.28358 1.24409,-1.97474 3.69277,11.09805 16.44961,49.76353 19.74743,60.76285 v 0 l 1.5008,5.56878 c 2.82389,10.42664 7.50403,27.78464 13.70472,40.65996 7.06958,14.71184 10.95983,21.54445 36.61174,43.62209 26.81703,23.16374 49.92153,29.89761 50.119,29.93711 0.19748,0.0395 23.30197,-6.77337 50.11899,-29.93711 25.67166,-22.07764 29.62115,-28.91025 36.61174,-43.62209 6.2007,-12.87532 10.88084,-30.23332 13.70472,-40.65996 l 1.50081,-5.56878 v 0 c 3.29782,-10.99932 16.05466,-49.6648 19.74743,-60.76285 0.49369,0.78989 0.88863,1.48105 1.24409,1.97474 -0.69116,-1.18485 -1.61929,-2.74489 -2.84363,-4.73938 -2.7449,8.09644 -18.72057,56.4974 -20.97178,64.59385 z"
       id="path2968"
       style="fill:#ffffff;stroke-width:1.97474" />
    <path
       class="cls-1"
       d="m 268.55302,467.20751 c 0,15.79796 -7.20782,33.57065 -20.51759,51.02738 l 0.86889,2.74489 a 116.68759,116.68759 0 0 0 17.21976,-29.62115 v -1.20459 a 69.313494,69.313494 0 0 0 4.71964,-23.9339 c 0,-1.83651 0,-3.61378 -0.23697,-5.29231 -0.86889,-7.89898 -3.47555,-14.02068 -7.76074,-18.30587 a 25.256968,25.256968 0 0 0 -18.46385,-6.75362 26.698531,26.698531 0 0 0 -12.83584,3.4163 l 0.47394,-0.59242 a 12.460631,12.460631 0 0 0 -2.54742,4.69989 25.908634,25.908634 0 0 1 14.90932,-5.13433 q 10.66361,0 16.80506,6.08221 c 4.87762,4.81837 7.3658,12.57911 7.3658,22.86752 z"
       id="path2970"
       style="fill:#ffffff;stroke-width:1.97474" />
    <path
       class="cls-1"
       d="m 308.28485,419.22125 30.92449,17.77269 29.24595,-36.82896 29.24595,36.80921 30.92448,-17.77269 36.9277,28.23883 c 0.80965,-1.04661 1.63904,-1.97474 2.52768,-3.02135 l -39.71209,-30.4308 -31.43792,18.08865 -28.4758,-35.70336 -28.4758,35.70336 -31.43792,-18.08865 -39.71209,30.45054 c 0.88863,0.96763 1.71803,1.97475 2.52767,3.02136 z"
       id="path2972"
       style="fill:#ffffff;stroke-width:1.97474" />
    <path
       class="cls-2"
       d="m 507.43773,443.33287 a 25.908634,25.908634 0 0 0 -14.90931,-5.13434 q -10.66362,0 -16.80507,6.08221 c -4.87761,4.87762 -7.36579,12.63836 -7.36579,22.92677 0,15.79796 7.20781,33.57065 20.51758,51.02738 v 0 l 4.14696,-12.93457 c 0,0 -19.15501,-10.72286 -19.15501,-38.31003 0,-26.5208 15.36351,-26.896 18.66133,-26.87625 a 24.862019,24.862019 0 0 1 14.15891,4.6209 l 1.14535,0.98737 0.17773,0.17772 v 0 a 12.934569,12.934569 0 0 0 -0.47394,-2.54742 z"
       id="path2974"
       style="fill:#15462e;stroke-width:1.97474" />
    <path
       class="cls-2"
       d="m 508.12889,446.09751 -0.19747,-0.19748 v 0 a 19.490717,19.490717 0 0 1 -1.61929,10.28841 c -1.85626,3.4953 -12.51988,4.95661 -12.51988,4.95661 16.50886,8.55064 21.2285,-8.55064 14.33664,-15.04754 z"
       id="path2976"
       style="fill:#15462e;stroke-width:1.97474" />
    <path
       class="cls-2"
       d="m 491.38307,537.13318 c -0.35546,-0.59242 -0.7504,-1.28358 -1.24409,-1.97474 -3.69277,11.09806 -16.44961,49.76354 -19.74743,60.76286 v 0 c -0.21723,0.73065 -1.50081,5.52928 -1.50081,5.52928 -2.82388,10.42664 -7.50402,27.78464 -13.70472,40.65996 -7.06958,14.71184 -10.95982,21.54445 -36.61174,43.62209 -26.81702,23.08475 -49.92151,29.81862 -50.11899,29.85812 -0.19747,0.0395 -23.30197,-6.77337 -50.119,-29.93711 -25.67166,-22.07763 -29.62115,-28.91025 -36.61174,-43.62209 -6.20069,-12.87532 -10.88083,-30.23332 -13.70472,-40.65996 0,0 -1.28358,-4.79863 -1.5008,-5.52928 v 0 c -3.29782,-10.99932 -16.05466,-49.6648 -19.74743,-60.76286 -0.49369,0.7899 -0.88864,1.48106 -1.24409,1.97475 -0.53318,0.90838 -0.90838,1.59954 -1.14535,1.97474 -5.21333,10.22917 -6.25994,19.27349 7.56326,38.31002 l 14.6526,20.22137 v 0 a 136.41527,136.41527 0 0 0 31.22069,75.55369 c 29.16697,35.68361 70.57734,49.36858 70.57734,49.36858 0,0 41.46961,-13.68497 70.57733,-49.36858 a 136.41527,136.41527 0 0 0 31.22069,-75.55369 v 0 l 14.77108,-20.22137 c 13.82321,-18.97728 12.81609,-28.08085 7.60276,-38.13229 -0.27646,-0.47394 -0.65166,-1.1651 -1.18484,-2.07349 z"
       id="path2978"
       style="fill:#15462e;stroke-width:1.97474" />
    <path
       class="cls-2"
       d="m 229.15688,445.74205 1.14536,-0.98737 a 24.862019,24.862019 0 0 1 14.07992,-4.60115 c 3.29782,0 18.66132,0.35545 18.66132,26.87625 0,27.64642 -19.15501,38.31004 -19.15501,38.31004 l 4.14696,12.93457 v 0 c 13.30977,-17.39749 20.51759,-35.24917 20.51759,-51.02738 0,-10.28842 -2.48818,-18.04915 -7.3658,-22.92677 q -6.14145,-6.08221 -16.80506,-6.08221 a 25.908634,25.908634 0 0 0 -14.90932,5.13433 v 0 a 12.934569,12.934569 0 0 0 -0.47394,2.54742 v 0 z"
       id="path2980"
       style="fill:#15462e;stroke-width:1.97474" />
    <path
       class="cls-2"
       d="m 230.5787,456.18844 a 19.490717,19.490717 0 0 1 -1.61929,-10.28841 v 0 a 1.8562588,1.8562588 0 0 0 -0.19747,0.19748 c -6.89186,6.4969 -2.17222,23.59818 14.31689,15.04754 0.0197,0 -10.64387,-1.46131 -12.50013,-4.95661 z"
       id="path2982"
       style="fill:#15462e;stroke-width:1.97474" />
    <path
       class="cls-2"
       d="m 262.84601,442.62196 c 4.28519,4.28519 6.89185,10.42664 7.76074,18.30587 0.15798,1.67853 0.23697,3.4558 0.23697,5.29231 a 69.313494,69.313494 0 0 1 -4.71964,23.9339 v 1.20459 a 116.68759,116.68759 0 0 1 -17.21976,29.62115 v 0 l 0.11848,0.35546 2.13273,6.61539 v 0 l 0.43444,-0.71091 c 3.41631,-5.4108 8.15569,-12.6581 14.53411,-22.07763 v 69.41223 l -14.96855,-46.62369 v 0 l -0.29622,0.45419 q -1.42181,2.19196 -2.48817,3.94949 v 0 c 2.74489,8.19518 18.72057,56.5369 20.97177,64.63335 0,0 6.51666,26.46156 14.51436,43.0494 6.87211,14.37614 10.74261,21.07052 35.99958,42.85194 24.66455,21.20874 45.77456,28.4363 48.59844,29.36443 2.82388,-0.92813 23.93389,-8.15569 48.59844,-29.36443 25.25696,-21.72218 29.12746,-28.4758 35.99957,-42.85194 7.89897,-16.58784 14.51436,-43.0494 14.51436,-43.0494 2.25121,-8.09645 18.22688,-56.43817 20.97178,-64.63335 v 0 q -1.06636,-1.77727 -2.48818,-3.94949 l -0.29621,-0.45419 v 0 l -14.96856,46.62369 v -69.41223 c 6.37843,9.41953 11.11781,16.66683 14.53412,22.07763 l 0.43444,0.71091 v 0 l 2.13272,-6.61539 0.11849,-0.35546 v 0 a 116.68759,116.68759 0 0 1 -17.21977,-29.62115 v -1.20459 a 69.313494,69.313494 0 0 1 -4.71963,-23.9339 c 0,-1.83651 0,-3.61378 0.23697,-5.29231 0.86888,-7.89898 3.47555,-14.02068 7.76074,-18.30587 a 25.256968,25.256968 0 0 1 18.46385,-6.75362 26.698531,26.698531 0 0 1 12.83583,3.4163 l -0.47394,-0.59242 v 0 l -0.3357,-0.3752 c -4.54191,-4.77888 -18.91805,-8.23468 -31.77362,1.85626 v 0 l -43.85906,-33.57064 -30.43079,17.41724 -30.03585,-37.83609 -30.03585,37.83609 -30.37156,-17.59497 -43.85905,33.57064 v 0 c -12.87532,-10.05144 -27.25146,-6.55615 -31.79337,-1.77727 l -0.3357,0.3752 v 0 l -0.47394,0.59243 a 26.698531,26.698531 0 0 1 12.79634,-3.31757 25.256968,25.256968 0 0 1 18.46385,6.75362 z m 45.69556,-28.63378 31.43792,18.08865 28.4758,-35.70336 28.4758,35.78235 31.43792,-18.08865 39.71209,30.45054 c -0.88864,0.96763 -1.71803,1.97475 -2.52768,3.02136 l -36.9277,-28.23883 -30.92448,17.77269 -29.24595,-36.90795 -29.24595,36.80921 -30.92449,-17.77269 -36.9277,28.23883 c -0.80964,-1.04661 -1.63904,-1.97474 -2.52767,-3.02135 z"
       id="path2984"
       style="fill:#15462e;stroke-width:1.97474" />
    <path
       class="cls-3"
       d="m 395.3513,645.01342 a 36.039067,36.039067 0 0 0 14.65259,-2.46843 V 629.3932 a 44.076273,44.076273 0 0 1 -20.85329,6.04271 c -11.84846,0 -37.04618,-7.3263 -46.70268,-7.3263 a 41.765823,41.765823 0 0 0 -15.46224,3.67303 v 12.61861 a 38.724718,38.724718 0 0 1 21.50495,-7.10908 c 15.0673,0 28.87075,7.72125 46.86067,7.72125 z"
       id="path2986"
       style="fill:#482683;stroke-width:1.97474" />
    <path
       class="cls-3"
       d="m 395.3513,628.95875 a 35.703361,35.703361 0 0 0 14.65259,-2.46843 v -189.7136 l -12.57911,8.96533 -28.96949,-28.71276 -28.96948,28.71276 -12.50013,-8.96533 v 191.55012 a 38.704971,38.704971 0 0 1 21.58394,-7.06959 c 14.98831,0.0593 28.79176,7.7015 46.78168,7.7015 z"
       id="path2988"
       style="fill:#482683;stroke-width:1.97474" />
    <path
       class="cls-3"
       d="m 342.44792,660.25844 a 41.765823,41.765823 0 0 0 -15.46224,3.63352 v 18.36512 a 308.81037,308.81037 0 0 0 41.46961,25.3952 308.81037,308.81037 0 0 0 41.46961,-25.3952 v -20.73481 a 44.313242,44.313242 0 0 1 -20.85329,5.92423 c -11.80896,0.079 -36.96719,-7.18806 -46.62369,-7.18806 z"
       id="path2990"
       style="fill:#482683;stroke-width:1.97474" />
    <path
       class="cls-3"
       d="m 389.1506,651.49058 c -11.84846,0 -37.04618,-7.30656 -46.70268,-7.30656 a 41.765823,41.765823 0 0 0 -15.46224,3.65328 v 12.63836 a 38.704971,38.704971 0 0 1 21.58394,-7.08933 c 15.0673,0 28.87075,7.662 46.86067,7.662 a 36.039067,36.039067 0 0 0 14.65259,-2.46843 v -13.13204 a 44.076273,44.076273 0 0 1 -20.93228,6.04272 z"
       id="path2992"
       style="fill:#482683;stroke-width:1.97474" />
    <path
       class="cls-1"
       d="m 421.77336,428.54204 -11.84846,8.23468 v 189.7136 a 35.703361,35.703361 0 0 1 -14.65259,2.46843 c -17.98992,0 -31.79337,-7.64225 -46.86066,-7.64225 a 38.704971,38.704971 0 0 0 -21.42597,7.06958 V 436.83596 l -11.84847,-8.23468 -37.83608,19.35249 v 116.17416 c 0,26.61954 2.2907,52.80464 11.17704,70.06389 6.47716,12.53962 10.86109,27.48843 38.50751,48.06526 v -18.36512 a 41.765823,41.765823 0 0 1 15.54123,-3.63352 c 9.6565,0 34.81473,7.26705 46.70268,7.26705 a 44.313242,44.313242 0 0 0 20.85329,-5.92423 v 20.73481 c 27.64641,-20.57683 31.95135,-35.54538 38.44826,-48.1245 8.88634,-17.25926 11.17704,-43.44435 11.17704,-70.0639 V 447.89452 Z M 409.9249,658.5799 a 36.039067,36.039067 0 0 1 -14.65259,2.46843 c -17.98992,0 -31.79337,-7.662 -46.86066,-7.662 a 38.704971,38.704971 0 0 0 -21.42597,7.08933 V 647.8373 a 41.765823,41.765823 0 0 1 15.54123,-3.65328 c 9.6565,0 34.81473,7.30656 46.70268,7.30656 a 44.076273,44.076273 0 0 0 20.69531,-6.04272 z m 0,-16.03491 a 36.039067,36.039067 0 0 1 -14.65259,2.46843 c -17.98992,0 -31.79337,-7.66201 -46.86066,-7.66201 a 38.724718,38.724718 0 0 0 -21.42597,7.04984 v -12.61861 a 41.765823,41.765823 0 0 1 15.54123,-3.65328 c 9.6565,0 34.81473,7.3263 46.70268,7.3263 a 44.076273,44.076273 0 0 0 20.69531,-6.06246 z"
       id="path2994"
       style="fill:#ffffff;stroke-width:1.97474" />
    <polygon
       class="cls-1"
       points="120,140.5 122.82,142.57 121.75,145.93 118.25,145.93 117.19,142.57 "
       id="polygon2996"
       transform="matrix(1.9747434,0,0,1.9747434,131.48608,317.38373)"
       style="fill:#ffffff" />
    <path
       class="cls-1"
       d="m 364.30833,585.37617 -1.65878,1.79701 5.80574,3.77176 5.80575,-3.77176 -1.65879,-1.79701 a 17.219763,17.219763 0 0 0 -4.14696,-0.57268 16.686582,16.686582 0 0 0 -4.14696,0.57268 z"
       id="path2998"
       style="fill:#ffffff;stroke-width:1.97474" />
    <path
       class="cls-1"
       d="m 384.62844,600.04851 a 15.383251,15.383251 0 0 0 -2.54742,-7.80024 l -2.23146,-1.06636 -1.75752,6.67463 5.3713,4.38393 z"
       id="path3000"
       style="fill:#ffffff;stroke-width:1.97474" />
    <path
       class="cls-1"
       d="m 381.01466,611.12682 0.29621,-2.48818 -6.93135,0.33571 -2.42893,6.47716 2.38944,0.49368 a 16.706329,16.706329 0 0 0 6.67463,-4.81837 z"
       id="path3002"
       style="fill:#ffffff;stroke-width:1.97474" />
    <path
       class="cls-1"
       d="m 352.26239,600.04851 a 15.383251,15.383251 0 0 1 2.54742,-7.80024 l 2.23146,-1.06636 1.75753,6.67463 -5.35156,4.38393 z"
       id="path3004"
       style="fill:#ffffff;stroke-width:1.97474" />
    <path
       class="cls-1"
       d="m 355.87618,611.12682 -0.29622,-2.48818 6.93135,0.33571 2.42894,6.47716 -2.38944,0.49368 a 16.706329,16.706329 0 0 1 -6.67463,-4.81837 z"
       id="path3006"
       style="fill:#ffffff;stroke-width:1.97474" />
    <path
       class="cls-4"
       d="m 437.25535,584.84299 c -10.54513,0 -10.84134,-6.24019 -10.84134,-6.24019 12.93457,1.26383 21.07051,-3.1201 23.8549,-11.25604 2.78439,-8.13594 -2.58691,-17.65421 -2.58691,-17.65421 a 25.31621,25.31621 0 0 1 -4.64065,16.33113 c -7.54352,11.55225 -19.45122,4.64065 -19.45122,4.64065 11.1178,-2.98186 12.10517,-9.2813 10.92033,-14.43538 -2.56717,7.89898 -19.98441,13.82321 -27.52793,5.35156 -7.54352,-8.47165 1.59955,-18.08865 -5.43054,-29.73964 -7.03009,-11.65098 -23.1045,-16.9038 -23.1045,-16.9038 4.64065,3.69277 7.80024,13.50724 4.14696,23.14399 -3.4163,8.88635 0.33571,20.73481 2.88313,25.67167 a 20.142383,20.142383 0 0 0 1.97474,3.10034 c -1.42181,5.68726 -5.60827,12.99381 -6.5364,13.42826 -1.97474,0.92813 -2.48817,-1.61929 -4.34443,-1.97475 a 2.8041356,2.8041356 0 0 0 -2.82389,1.46131 3.3570638,3.3570638 0 0 1 2.82389,-0.69116 c 1.32307,0.7899 1.97474,2.34995 3.94948,2.34995 2.31045,0 6.37842,-8.4914 8.39266,-13.05305 a 14.257647,14.257647 0 0 0 11.39427,4.36418 c 7.26706,-0.59242 9.26155,3.94949 10.72286,5.92423 a 29.621151,29.621151 0 0 0 25.19772,13.21103 c 16.27189,0 20.51759,-18.16764 20.51759,-18.16764 0,0 -8.92584,11.13756 -19.49072,11.13756 z"
       id="path3008"
       style="fill:#f39200;stroke-width:1.97474" />
    <path
       class="cls-4"
       d="m 299.65522,584.84299 c 10.54513,0 10.84134,-6.24019 10.84134,-6.24019 -12.93457,1.26383 -21.07051,-3.1201 -23.8549,-11.25604 -2.78439,-8.13594 2.58692,-17.65421 2.58692,-17.65421 a 25.31621,25.31621 0 0 0 4.64064,16.33113 c 7.54352,11.55225 19.45122,4.64065 19.45122,4.64065 -11.1178,-2.98186 -12.10517,-9.2813 -10.92033,-14.43538 2.56717,7.89898 19.98441,13.82321 27.52794,5.35156 7.54352,-8.47165 -1.59955,-18.08865 5.43054,-29.73964 7.03009,-11.65098 23.1045,-16.9038 23.1045,-16.9038 -4.64065,3.69277 -7.89897,13.50724 -4.14696,23.14399 3.4163,8.88635 -0.33571,20.73481 -2.88313,25.67167 a 20.142383,20.142383 0 0 1 -1.97474,3.10034 c 1.42181,5.68726 5.60827,12.99381 6.5364,13.42826 1.97474,0.92813 2.48818,-1.61929 4.34444,-1.97475 a 2.8041356,2.8041356 0 0 1 2.82388,1.46131 3.3570638,3.3570638 0 0 0 -2.82388,-0.69116 c -1.32308,0.7899 -1.97475,2.34995 -3.94949,2.34995 -2.31045,0 -6.37842,-8.4914 -8.39266,-13.05305 a 14.257647,14.257647 0 0 1 -11.39427,4.36418 c -7.26706,-0.59242 -9.26155,3.94949 -10.72286,5.92423 a 29.621151,29.621151 0 0 1 -25.19773,13.21103 c -16.27189,0 -20.51759,-18.16764 -20.51759,-18.16764 0,0 8.92584,11.13756 19.49072,11.13756 z"
       id="path3010"
       style="fill:#f39200;stroke-width:1.97474" />
    <path
       class="cls-5"
       d="m 351.74896,509.26956 h -22.53182 v -1.97475 h 2.19196 v -52.42945 h -2.19196 v -1.97474 h 22.43308 v 18.22688 h -1.65878 c -0.13823,-1.1256 -0.29621,-1.97474 -0.33571,-2.15247 l -0.29621,-1.65878 -0.23697,-1.73778 -0.35545,-1.81676 a 28.55479,28.55479 0 0 0 -1.97474,-7.89897 c -0.49369,-0.8294 -1.08611,-1.12561 -2.54742,-1.12561 h -5.05535 v 24.36834 h 1.61929 c 1.97475,0 2.64616,-1.85626 3.71252,-11.45352 h 1.22434 v 24.46709 h -1.22434 c -1.1256,-9.69601 -1.56005,-11.01908 -3.75201,-11.01908 h -1.69828 v 26.2246 h 5.05534 c 2.38944,0 2.98186,-0.86889 3.94949,-5.4108 0.39495,-1.97474 0.86889,-4.81837 1.22434,-7.50402 0.17773,-1.36258 0.33571,-1.97475 0.53318,-4.18646 l 0.13823,-0.86889 v -0.92813 h 1.65879 z"
       id="path3012"
       style="fill:#c7b18e;stroke-width:1.97474" />
    <path
       class="cls-5"
       d="m 375.88033,492.10904 h -1.1651 a 57.267559,57.267559 0 0 0 -1.56005,-9.3603 c -0.59242,-1.59954 -0.92813,-1.85626 -2.44868,-1.85626 h -1.50081 v 26.42208 h 3.31757 v 1.97474 h -13.17154 v -1.97474 h 2.25121 v -52.4492 h -2.25121 v -1.97474 h 21.9394 v 18.22688 h -1.85626 c -0.13823,-1.02686 -0.23697,-1.79701 -0.3357,-2.15247 l -0.29621,-1.69828 -0.19748,-1.97474 -0.27646,-1.81676 c -0.25672,-1.46131 -0.82939,-4.2852 -1.18485,-5.54903 -0.73065,-2.78439 -1.20459,-3.21884 -3.25832,-3.21884 h -4.68015 v 24.09187 h 1.46131 c 1.42182,0 1.85626,-0.25671 2.3302,-1.46131 a 17.338247,17.338247 0 0 0 0.88864,-3.71251 l 0.13823,-1.56005 0.25671,-1.52055 0.17773,-1.56005 c 0,-0.23697 0.15798,-0.77015 0.25672,-1.50081 h 1.1651 z"
       id="path3014"
       style="fill:#c7b18e;stroke-width:1.97474" />
    <path
       class="cls-5"
       d="m 406.78506,506.30744 a 12.677853,12.677853 0 0 1 -8.8666,4.08772 c -9.06407,0 -12.08543,-11.01907 -12.08543,-28.31783 0,-17.98991 3.41631,-30.23332 12.42114,-30.23332 a 13.586235,13.586235 0 0 1 7.89897,3.02135 v 16.1929 h -1.75752 c -1.1256,-5.70701 -0.98737,-5.17383 -1.46131,-7.42503 l -0.33571,-1.30334 c -1.65878,-7.03008 -2.2512,-8.19518 -4.40367,-8.19518 -2.15247,0 -2.52768,1.97474 -3.4953,6.43766 -0.96762,4.46292 -0.82939,11.84846 -0.82939,22.33436 0,18.81931 0,25.15823 4.5814,25.15823 2.3302,0 3.25833,-1.38232 4.42343,-6.39817 0.39495,-1.75752 0.69116,-3.55453 1.56005,-8.19518 0.69116,-4.12722 0.45419,-2.86338 0.73065,-4.38393 h 1.65879 z"
       id="path3016"
       style="fill:#c7b18e;stroke-width:1.97474" />
    <polygon
       class="cls-2"
       points="69.33,195.14 170.67,195.14 170.67,177.82 169.87,177.82 69.33,177.82 "
       id="polygon3018"
       transform="matrix(1.9747434,0,0,1.9747434,131.48608,317.38373)"
       style="fill:#15462e" />
    <path
       class="cls-5"
       d="m 465.35595,671.6922 v 27.90312 H 271.55463 V 671.6922 Z"
       id="path3020"
       style="fill:#c7b18e;stroke-width:1.97474" />
    <path
       class="cls-2"
       d="m 282.69217,696.77144 h -9.02457 v -0.82939 h 0.92813 V 674.8123 h -0.92813 v -0.8294 h 9.02457 v 7.3658 h -0.73065 c 0,-0.49369 -0.13823,-0.7899 -0.13823,-0.88864 v -0.63192 -0.73065 -0.73066 a 10.426645,10.426645 0 0 0 -0.82939,-3.15959 c -0.19748,-0.29621 -0.43445,-0.39494 -1.02687,-0.39494 h -2.34995 v 9.87371 h 0.67142 c 0.82939,0 1.06636,-0.7899 1.52055,-4.68014 h 0.47394 v 9.87372 h -0.47394 c -0.45419,-3.94949 -0.63192,-4.48267 -1.52055,-4.48267 h -0.67142 v 10.56488 h 1.97475 c 0.98737,0 1.22434,-0.33571 1.56004,-2.13273 a 22.354095,22.354095 0 0 0 0.4542,-3.02135 c 0,-0.59243 0.13823,-0.8294 0.23696,-1.65879 v -0.39495 -0.3357 h 0.67142 z"
       id="path3022"
       style="fill:#15462e;stroke-width:1.97474" />
    <polygon
       class="cls-2"
       points="77.39,181.04 77.39,180.62 79.86,180.62 79.86,181.04 79.39,181.04 79.39,185.95 80.85,185.95 80.85,181.04 80.38,181.04 80.38,180.62 82.84,180.62 82.84,181.04 82.38,181.04 82.38,191.71 82.84,191.71 82.84,192.12 80.38,192.12 80.38,191.71 80.85,191.71 80.85,186.35 79.39,186.35 79.39,191.71 79.86,191.71 79.86,192.12 77.39,192.12 77.39,191.71 77.86,191.71 77.86,181.04 "
       id="polygon3024"
       transform="matrix(1.9747434,0,0,1.9747434,131.48608,317.38373)"
       style="fill:#15462e" />
    <polygon
       class="cls-2"
       points="83.56,181.04 83.56,180.62 86.03,180.62 86.03,181.04 85.58,181.04 85.58,191.71 86.03,191.71 86.03,192.12 83.56,192.12 83.56,191.71 84,191.71 84,181.04 "
       id="polygon3026"
       transform="matrix(1.9747434,0,0,1.9747434,131.48608,317.38373)"
       style="fill:#15462e" />
    <polygon
       class="cls-2"
       points="87.19,191.71 87.19,181.04 86.75,181.04 86.75,180.62 88.92,180.62 90.1,188.35 91.39,180.62 93.51,180.62 93.51,181.04 93.09,181.04 93.09,191.71 93.51,191.71 93.51,192.12 90.77,192.12 90.77,191.71 91.51,191.71 91.51,181.29 89.76,192.12 89.27,192.12 87.46,181.41 87.46,191.71 88.23,191.71 88.23,192.12 86.75,192.12 86.75,191.71 "
       id="polygon3028"
       transform="matrix(1.9747434,0,0,1.9747434,131.48608,317.38373)"
       style="fill:#15462e" />
    <path
       class="cls-2"
       d="m 326.63023,696.77144 h -9.02459 v -0.82939 h 0.92813 V 674.8123 h -0.92813 v -0.8294 h 8.96534 v 7.3658 h -0.63191 a 5.2528175,5.2528175 0 0 0 -0.19748,-0.88864 l -0.0987,-0.63192 v -0.73065 l -0.15798,-0.73066 a 10.347655,10.347655 0 0 0 -0.77015,-3.15959 c -0.19747,-0.29621 -0.39494,-0.39494 -1.02686,-0.39494 h -1.9748 v 9.87371 h 0.73066 c 0.8294,0 1.02688,-0.7899 1.52056,-4.68014 h 0.47394 v 9.87372 h -0.47394 c -0.49368,-3.94949 -0.69116,-4.48267 -1.52056,-4.48267 h -0.73066 v 10.56488 h 1.97476 c 0.96762,0 1.20459,-0.33571 1.56005,-2.13273 0.13823,-0.78989 0.3357,-1.97474 0.47393,-3.02135 a 15.126534,15.126534 0 0 1 0.25672,-1.65879 v -0.39495 -0.3357 h 0.63192 z"
       id="path3030"
       style="fill:#15462e;stroke-width:1.97474" />
    <path
       class="cls-2"
       d="m 339.40682,689.85984 h -0.57268 a 18.641578,18.641578 0 0 0 -0.63192,-3.81125 c -0.19747,-0.63192 -0.3357,-0.73066 -0.96762,-0.73066 h -0.59243 v 10.62412 h 1.32308 v 0.82939 h -5.27256 v -0.82939 h 0.92813 V 674.8123 h -0.92813 v -0.8294 h 8.76786 v 7.3658 h -0.65167 a 5.5687764,5.5687764 0 0 0 -0.13823,-0.88864 l -0.0987,-0.67141 -0.15798,-0.73066 v -0.73065 c -0.0987,-0.63192 -0.29621,-1.75752 -0.45419,-2.2907 -0.27646,-1.08611 -0.43444,-1.22434 -1.30333,-1.22434 h -1.85626 v 9.87371 h 0.59243 c 0.57267,0 0.73065,-0.13823 0.90838,-0.57267 a 5.9242302,5.9242302 0 0 0 0.35545,-1.52056 v -0.67141 -0.65166 -0.57268 a 5.6082713,5.6082713 0 0 0 0,-0.63192 h 0.49369 z"
       id="path3032"
       style="fill:#15462e;stroke-width:1.97474" />
    <path
       class="cls-2"
       d="m 346.27892,677.4782 c 0,0.77015 -0.19747,2.42893 -0.23697,4.04822 -0.0395,1.61929 0,3.06085 0,5.60827 0,3.06086 0,5.64777 0.23697,6.91161 0.25672,1.61929 0.69116,2.44868 1.38232,2.44868 0.69116,0 1.1651,-0.82939 1.36258,-2.34995 a 36.907954,36.907954 0 0 0 0.23696,-4.5814 c 0,-1.36257 0,-2.92262 0,-4.48267 0,-2.98186 0,-4.87762 0,-6.39817 -0.19747,-3.12009 -0.63191,-4.28519 -1.56004,-4.28519 -0.92813,0 -1.22434,0.92813 -1.42182,3.0806 z m 6.47716,8.0372 a 24.585555,24.585555 0 0 1 -1.1651,7.66201 c -0.88863,2.62641 -2.2907,4.08772 -3.94948,4.08772 -3.0806,0 -5.11459,-4.81838 -5.11459,-11.84846 0,-6.69438 2.13272,-11.74973 5.11459,-11.74973 2.98186,0 5.11458,4.93686 5.11458,11.84846 z"
       id="path3034"
       style="fill:#15462e;stroke-width:1.97474" />
    <path
       class="cls-2"
       d="m 357.6337,677.4782 c 0,0.77015 -0.13824,2.42893 -0.19748,4.04822 -0.0592,1.61929 0,3.06085 0,5.60827 0,3.06086 0,5.64777 0.23697,6.91161 0.23697,1.61929 0.69116,2.44868 1.32308,2.44868 0.63192,0 1.1651,-0.82939 1.36257,-2.34995 0.13823,-0.86888 0.23697,-2.78439 0.29621,-4.5814 0,-1.36257 0,-2.92262 0,-4.48267 0,-2.98186 0,-4.87762 0,-6.39817 -0.19747,-3.12009 -0.63191,-4.28519 -1.5008,-4.28519 -0.86889,0 -1.28358,0.92813 -1.52055,3.0806 z m 6.47716,8.0372 a 26.540551,26.540551 0 0 1 -1.10586,7.66201 c -0.88864,2.62641 -2.34995,4.08772 -3.94949,4.08772 -3.02136,0 -5.07509,-4.81838 -5.07509,-11.84846 0,-6.69438 2.19197,-11.74973 5.07509,-11.74973 2.88313,0 5.05535,4.93686 5.05535,11.84846 z"
       id="path3036"
       style="fill:#15462e;stroke-width:1.97474" />
    <path
       class="cls-2"
       d="m 374.1623,681.36844 h -0.69116 c -0.17773,-1.97474 -0.23697,-2.38944 -0.33571,-2.96211 -0.39495,-3.02136 -0.63192,-3.51505 -1.5008,-3.51505 h -0.49369 v 21.05077 h 1.02687 v 0.82939 h -5.11459 v -0.82939 h 1.00712 V 674.8123 h -0.43444 c -0.77015,0 -1.02687,0.29621 -1.30333,1.97474 a 24.763282,24.763282 0 0 0 -0.39495,2.68565 l -0.15798,1.10586 v 0.25671 0.23697 0.23697 h -0.67141 v -7.30655 h 9.16281 z"
       id="path3038"
       style="fill:#15462e;stroke-width:1.97474" />
    <path
       class="cls-2"
       d="m 380.10628,695.94205 c 1.97474,0 2.48817,-1.20459 2.48817,-5.21332 0,-4.00873 -0.73065,-5.35156 -2.92262,-5.35156 h -0.53318 v 10.56488 z m -0.3752,-11.35478 c 1.63903,0 2.27095,-1.30333 2.27095,-4.97635 0,-3.67302 -0.47394,-4.71964 -1.97474,-4.71964 h -0.92813 v 9.79473 z m 0.47393,-10.52538 c 3.27808,0 4.87762,1.79702 4.87762,5.47004 0,3.06085 -1.22434,4.85787 -3.61378,5.35156 a 4.4629201,4.4629201 0 0 1 2.84363,1.26383 7.3657929,7.3657929 0 0 1 -0.7504,9.75523 6.8326122,6.8326122 0 0 1 -4.42343,0.86889 h -3.94948 v -0.82939 h 0.92813 V 674.8123 h -0.92813 v -0.8294 z"
       id="path3040"
       style="fill:#15462e;stroke-width:1.97474" />
    <path
       class="cls-2"
       d="m 391.95474,687.27293 -1.42182,-8.76786 -1.44156,8.76786 z m -4.2457,8.66912 h 1.61929 v 0.82939 h -3.10035 v -0.82939 h 1.02687 l 3.55454,-21.88016 h 1.97474 l 3.79151,21.88016 h 0.88863 v 0.82939 h -5.50953 v -0.82939 h 1.32308 l -1.22435,-7.89897 h -3.0806 z"
       id="path3042"
       style="fill:#15462e;stroke-width:1.97474" />
    <path
       class="cls-2"
       d="m 406.58759,696.77144 h -8.51115 v -0.82939 h 0.92813 V 674.8123 h -0.92813 v -0.8294 h 5.31206 v 0.8294 h -1.36257 v 21.12975 h 1.5008 c 0.7899,0 1.08611,-0.23697 1.32308,-1.20459 0.13823,-0.63192 0.29621,-1.42182 0.53318,-3.0806 a 6.733875,6.733875 0 0 0 0,-0.8294 l 0.29621,-2.23146 a 4.502415,4.502415 0 0 1 0.0987,-0.78989 h 0.63192 z"
       id="path3044"
       style="fill:#15462e;stroke-width:1.97474" />
    <path
       class="cls-2"
       d="m 416.24408,696.77144 h -8.53089 v -0.82939 h 0.90838 V 674.8123 h -0.90838 v -0.8294 h 5.25282 v 0.8294 h -1.26384 v 21.12975 h 1.56005 c 0.73065,0 1.02687,-0.23697 1.26383,-1.20459 0.15798,-0.63192 0.29622,-1.42182 0.53319,-3.0806 a 4.3049406,4.3049406 0 0 0 0.0987,-0.8294 l 0.29621,-2.23146 a 6.595643,6.595643 0 0 0 0,-0.78989 h 0.69116 z"
       id="path3046"
       style="fill:#15462e;stroke-width:1.97474" />
    <path
       class="cls-2"
       d="m 430.91642,695.56685 a 4.7393842,4.7393842 0 0 1 -3.47554,1.65878 c -3.4953,0 -5.74651,-4.44317 -5.74651,-11.41401 0,-7.26706 2.38944,-12.18417 5.92423,-12.18417 a 5.1145854,5.1145854 0 0 1 3.06086,1.26383 v 6.43767 h -0.67142 c -0.43444,-2.25121 -0.39495,-1.97475 -0.59242,-2.92262 l -0.13823,-0.55293 c -0.63192,-2.82388 -0.88864,-3.29782 -1.71803,-3.29782 -0.82939,0 -1.36257,0.73065 -1.69828,2.58691 a 54.838624,54.838624 0 0 0 -0.53318,9.00483 c 0,7.60276 0.57268,10.15018 2.3302,10.15018 0.92813,0 1.28358,-0.53318 1.71802,-2.58691 a 27.527923,27.527923 0 0 0 0.63192,-3.31757 c 0.29621,-1.65878 0.19748,-1.1256 0.29621,-1.75752 h 0.63192 z"
       id="path3048"
       style="fill:#15462e;stroke-width:1.97474" />
    <path
       class="cls-2"
       d="m 440.84938,696.77144 h -8.53089 v -0.82939 h 0.88864 V 674.8123 h -0.88864 v -0.8294 h 5.25282 v 0.8294 h -1.36257 v 21.12975 h 1.61929 c 0.73065,0 1.06636,-0.23697 1.26383,-1.20459 0.13823,-0.63192 0.29621,-1.42182 0.53318,-3.0806 0,-0.29622 0.0987,-0.57268 0.15798,-0.8294 l 0.27647,-2.23146 a 3.9494868,3.9494868 0 0 1 0,-0.78989 h 0.67141 z"
       id="path3050"
       style="fill:#15462e;stroke-width:1.97474" />
    <path
       class="cls-2"
       d="m 450.46638,689.32666 c 0,5.7465 -1.0861,7.89897 -3.85075,7.89897 a 3.1595895,3.1595895 0 0 1 -3.02135,-1.75752 10.979573,10.979573 0 0 1 -0.98737,-5.80574 V 674.8123 h -0.86889 v -0.8294 h 5.25282 v 0.8294 H 445.727 v 15.79794 a 19.135264,19.135264 0 0 0 0.25672,3.94949 c 0.23697,0.98737 0.86888,1.61929 1.5008,1.61929 0.63192,0 1.42182,-0.59242 1.79702,-1.65879 a 14.15891,14.15891 0 0 0 0.65166,-5.41079 V 674.8123 h -1.36257 v -0.8294 h 2.6659 v 0.8294 h -0.77015 z"
       id="path3052"
       style="fill:#15462e;stroke-width:1.97474" />
    <path
       class="cls-2"
       d="m 457.43723,695.94205 c 1.97474,0 2.48818,-1.20459 2.48818,-5.21332 0,-4.00873 -0.73066,-5.35156 -2.92262,-5.35156 h -0.55293 v 10.56488 z m -0.39495,-11.35478 c 1.65878,0 2.2907,-1.30333 2.2907,-4.97635 0,-3.67302 -0.49368,-4.71964 -1.97474,-4.71964 h -0.92813 v 9.79473 z m 0.49369,-10.52538 c 3.21883,0 4.87761,1.79702 4.87761,5.47004 0,3.06085 -1.22434,4.85787 -3.61378,5.35156 a 4.502415,4.502415 0 0 1 2.82388,1.26383 5.9242302,5.9242302 0 0 1 1.46131,4.38393 6.1217046,6.1217046 0 0 1 -2.19196,5.3713 7.0103391,7.0103391 0 0 1 -4.44317,0.86889 h -3.94949 v -0.82939 h 0.86889 V 674.8123 h -0.92813 v -0.8294 z"
       id="path3054"
       style="fill:#15462e;stroke-width:1.97474" />
  </g>
</svg>
