<?xml version="1.0" encoding="UTF-8" standalone="no"?>
<svg
   xmlns:dc="http://purl.org/dc/elements/1.1/"
   xmlns:cc="http://creativecommons.org/ns#"
   xmlns:rdf="http://www.w3.org/1999/02/22-rdf-syntax-ns#"
   xmlns:svg="http://www.w3.org/2000/svg"
   xmlns="http://www.w3.org/2000/svg"
   xmlns:sodipodi="http://sodipodi.sourceforge.net/DTD/sodipodi-0.dtd"
   xmlns:inkscape="http://www.inkscape.org/namespaces/inkscape"
   width="93.662491mm"
   height="74.62838mm"
   viewBox="0 0 353.99997 282.06002"
   version="1.1"
   id="svg4419"
   inkscape:version="1.0.1 (3bc2e813f5, 2020-09-07)"
   sodipodi:docname="imabari.svg">
  <defs
     id="defs4413" />
  <sodipodi:namedview
     id="base"
     pagecolor="#ffffff"
     bordercolor="#666666"
     borderopacity="1.0"
     inkscape:pageopacity="0.0"
     inkscape:pageshadow="2"
     inkscape:zoom="0.35"
     inkscape:cx="529.14284"
     inkscape:cy="158.17287"
     inkscape:document-units="px"
     inkscape:current-layer="layer1"
     inkscape:document-rotation="0"
     showgrid="false"
     inkscape:window-width="1267"
     inkscape:window-height="728"
     inkscape:window-x="78"
     inkscape:window-y="0"
     inkscape:window-maximized="0" />
  <metadata
     id="metadata4416">
    <rdf:RDF>
      <cc:Work
         rdf:about="">
        <dc:format>image/svg+xml</dc:format>
        <dc:type
           rdf:resource="http://purl.org/dc/dcmitype/StillImage" />
        <dc:title></dc:title>
      </cc:Work>
    </rdf:RDF>
  </metadata>
  <g
     inkscape:label="Layer 1"
     inkscape:groupmode="layer"
     id="layer1"
     transform="translate(154.14284,-361.82713)">
    <path
       id="白ふち"
       class="cls-1"
       d="m 195.94794,439.30331 a 31.038398,31.038398 0 0 1 -16.13775,-12.92497 c -0.62778,-1.07093 -6.40709,-10.83851 -14.05129,-21.62163 -10.28458,-14.53136 -19.14742,-24.09584 -26.20076,-28.47187 l -0.27697,-0.16618 c -1.47714,-0.79396 -8.89976,-4.68991 -15.06682,-7.12719 0,-0.20311 0,-0.38775 0,-0.59086 a 8.1981252,8.1981252 0 0 0 -3.96981,-5.72392 5.4100241,5.4100241 0 0 0 -0.94168,-0.44314 7.3856984,7.3856984 0 0 0 -2.38189,-0.40621 8.253518,8.253518 0 0 0 -7.20106,4.83763 l -51.884529,64.62486 -10.76465,-11.07855 a 2.9727436,2.9727436 0 0 0 -2.10493,-0.90475 h -4.56066 a 20.199885,20.199885 0 1 0 -36.9285001,0 H 0.43004092 a 2.9727436,2.9727436 0 0 0 -2.12339002,0.90475 l -10.4876899,10.87544 -51.69989,-64.42175 a 8.253518,8.253518 0 0 0 -7.20105,-4.83763 6.6655928,6.6655928 0 0 0 -2.34496,0.40621 5.5392738,5.5392738 0 0 0 -0.99707,0.44314 8.2350537,8.2350537 0 0 0 -3.951349,5.74238 c 0,0.18465 0,0.36929 0,0.5724 -6.167058,2.43728 -13.589685,6.33323 -15.066825,7.12719 v 0 l -0.221571,0.11079 c -17.042496,10.52462 -39.384236,48.50557 -40.381306,50.11196 a 30.429077,30.429077 0 0 1 -16.15621,12.92497 5.4100241,5.4100241 0 0 0 0,10.41384 c 5.0592,1.45867 8.93669,8.25352 9.54601,9.37984 a 25.148303,25.148303 0 0 0 14.23593,15.52843 c 3.0466,1.66178 3.21278,6.25938 3.23125,7.03487 -1.45868,11.90944 9.49062,24.00352 9.97069,24.53899 a 5.3546313,5.3546313 0 0 0 3.69285,1.84642 h 0.40621 c 5.07767,0 14.549828,-4.65299 17.319465,-6.05627 l 0.258499,-0.12925 c 21.104637,-11.9833 34.509677,-33.23564 35.082067,-34.19578 l 0.12925,-0.18465 c 3.52667,-6.0378 14.42058,-18.46424 15.65768,-19.92292 a 35.377495,35.377495 0 0 1 15.67615,-8.78898 l 2.49267,3.06507 -25.84995,26.82855 a 2.9542794,2.9542794 0 0 0 -0.83089,2.04953 v 43.96337 a 2.9542794,2.9542794 0 0 0 0.83089,2.04953 l 11.63248,12.02022 -0.517,-0.27696 a 53.287814,53.287814 0 0 1 -23.33881,-20.93846 5.6685235,5.6685235 0 0 0 -5.15152,-3.13892 h -0.29543 a 5.6869878,5.6869878 0 0 0 -5.02227,3.69285 52.733887,52.733887 0 0 0 3.52667,46.80686 5.7423805,5.7423805 0 0 0 4.76377,2.52961 6.2409152,6.2409152 0 0 0 1.32943,-0.14772 5.705452,5.705452 0 0 0 3.08353,-2.03106 c 0.90475,1.47713 1.84642,2.89888 2.7881,4.32063 a 17.891854,17.891854 0 0 0 -4.15446,-0.49854 12.924972,12.924972 0 0 0 -7.55187,2.27111 l -1.71718,1.45867 -0.14771,0.14772 a 13.774328,13.774328 0 0 0 -1.84643,2.30803 l -0.14771,0.24003 a 13.294257,13.294257 0 0 0 -0.86782,2.19725 l -14.642147,25.22216 0.184642,1.47714 c 1.403283,11.59554 9.379835,13.81125 9.712195,13.90357 l 3.0466,0.81243 0.48007,-0.57239 -1.10786,2.10492 3.04661,2.27111 c 0.40621,0.31389 41.85844,30.94607 93.87222,31.01993 h 0.18464 c 51.81068,0 91.361089,-30.70604 91.767309,-31.01993 l 2.99121,-2.27111 -1.0894,-2.10492 0.46161,0.57239 3.0466,-0.81243 c 0.35082,-0.0923 8.32738,-2.34496 9.71219,-13.88511 l 0.18465,-1.4956 -14.64215,-25.22216 a 11.207797,11.207797 0 0 0 -0.90475,-2.27111 l -0.14771,-0.25849 a 14.217469,14.217469 0 0 0 -1.68025,-2.10493 l -1.84642,-1.56946 -0.20311,-0.14771 a 12.924972,12.924972 0 0 0 -7.55188,-2.27111 17.411784,17.411784 0 0 0 -3.286629,0.3139 c 0.904749,-1.34789 1.846419,-2.73271 2.658849,-4.13599 a 5.7608448,5.7608448 0 0 0 3.0466,1.93874 5.9085587,5.9085587 0 0 0 6.11167,-2.40035 52.918529,52.918529 0 0 0 3.52667,-46.7884 5.705452,5.705452 0 0 0 -10.35845,-0.53546 53.546313,53.546313 0 0 1 -21.363129,20.01524 l 10.4323,-10.80158 a 2.9542794,2.9542794 0 0 0 0.83089,-2.04954 v -43.96337 a 2.9173509,2.9173509 0 0 0 -0.83089,-2.04953 l -25.60991,-26.6439 2.69578,-3.32357 a 35.082067,35.082067 0 0 1 15.62075,8.86284 c 0.48007,0.55393 12.09408,13.75586 15.731539,19.99678 l 0.0923,0.12925 c 0.55393,0.90475 14.06976,22.30481 35.08207,34.21425 l 0.24004,0.14771 c 2.7881,1.42175 12.27872,6.07474 17.37485,6.07474 h 0.38775 a 5.4284883,5.4284883 0 0 0 3.69285,-1.73564 c 0.46161,-0.517 11.44783,-12.59262 9.97069,-24.57591 0,-0.75704 0.16618,-5.35464 3.23125,-7.01642 a 25.203696,25.203696 0 0 0 14.23593,-15.52843 c 0.60932,-1.12632 4.46835,-7.9027 9.54601,-9.37984 a 5.4100241,5.4100241 0 0 0 0,-10.39537 z m -214.037539,108.69902 16.4147199,16.98711 a 2.9727436,2.9727436 0 0 0 2.12339002,0.90474 H 7.6126309 c -3.19431,3.58207 -5.7793,3.69285 -6.20398,3.69285 v 0 a 63.276971,63.276971 0 0 1 -27.6963699,-11.4109 z m -19.20281,-9.23212 a 5.7423805,5.7423805 0 0 0 3.37896,-5.20692 5.631595,5.631595 0 0 0 -0.70165,-2.69578 l 6.85024,7.07181 -8.4197,10.56154 a 47.767004,47.767004 0 0 1 -4.91149,-7.99501 z m -1.99414,49.02257 c 0.68318,-1.40328 1.40328,-2.88042 2.14185,-4.46835 a 9.6383364,9.6383364 0 0 0 0.75704,-2.80656 100.40857,100.40857 0 0 0 13.12808,9.12133 88.628381,88.628381 0 0 0 24.00350992,9.84145 19.793672,19.793672 0 0 1 8.58587998,5.53927 133.09029,133.09029 0 0 1 -48.6163599,-17.22714 z m 61.19051,-175.02259 a 1.6433179,1.6433179 0 1 1 1.64332,-1.64331 1.6433179,1.6433179 0 0 1 -1.64332,1.56946 z m 12.79572,192.02816 a 19.461315,19.461315 0 0 1 8.38277,-5.3177 88.960737,88.960737 0 0 0 24.13277,-9.84145 99.910035,99.910035 0 0 0 12.5003,-8.58587 9.9891571,9.9891571 0 0 0 0.66471,2.32649 v 0.11079 c 0.7201,1.51407 1.42174,2.95428 2.08646,4.32063 a 132.57329,132.57329 0 0 1 -47.76701,16.93172 z m 43.2802,-71.84438 c 0,0.22157 0,0.4616 0,0.68318 a 5.7239163,5.7239163 0 0 0 3.36049,5.20691 l 3.8221,1.69871 a 44.960439,44.960439 0 0 1 -4.06214,6.83177 l -7.71805,-9.61987 z m -6.49942,24.44666 a 62.279902,62.279902 0 0 1 -28.76729,12.27872 h -0.14772 c -0.40621,0 -2.97274,-0.16617 -6.16706,-3.69285 h 8.49356 a 2.9727436,2.9727436 0 0 0 2.10492,-0.90474 l 16.61782,-17.26407 z"
       style="fill:#ffffff;stroke-width:1.84642" />
    <path
       id="黄色枠"
       class="cls-2"
       d="m 195.68944,440.1896 a 31.573861,31.573861 0 0 1 -16.61782,-13.31272 c -0.62778,-1.07093 -6.37016,-10.80159 -13.9959,-21.56624 -10.21072,-14.40211 -18.92585,-24.00352 -25.84994,-28.21337 l -0.2585,-0.16618 a 166.52903,166.52903 0 0 0 -15.54689,-7.29338 7.0348777,7.0348777 0 0 0 0,-1.08939 7.2749129,7.2749129 0 0 0 -3.50821,-5.0592 5.0961319,5.0961319 0 0 0 -0.79396,-0.36928 6.0932012,6.0932012 0 0 0 -2.068,-0.35083 7.3856984,7.3856984 0 0 0 -6.42556,4.41296 l -52.789279,65.51114 -11.50322,-11.90944 a 2.0495313,2.0495313 0 0 0 -1.44021,-0.60932 h -6.07474 a 19.239744,19.239744 0 1 0 -36.1529901,-9.23212 19.313601,19.313601 0 0 0 2.32649,9.23212 H 0.44851092 a 1.9756743,1.9756743 0 0 0 -1.44021,0.60932 l -11.18933992,11.70634 -52.43846,-65.30804 a 7.3856984,7.3856984 0 0 0 -6.42555,-4.41296 5.9085587,5.9085587 0 0 0 -2.04953,0.35083 3.6928492,3.6928492 0 0 0 -0.81243,0.36928 6.9425565,6.9425565 0 0 0 -3.58207,6.14859 166.52903,166.52903 0 0 0 -15.546891,7.29338 h -0.09232 l -0.166179,0.11079 c -16.747071,10.3769 -38.904171,48.26553 -39.882771,49.7796 a 31.389218,31.389218 0 0 1 -16.61782,13.36812 4.4683475,4.4683475 0 0 0 0,8.60434 c 5.53927,1.58792 9.47216,8.6228 10.1738,9.9153 a 24.00352,24.00352 0 0 0 13.75586,15.04836 c 3.60053,1.84642 3.69285,7.01641 3.69285,7.93962 -1.45868,11.48476 9.23212,23.35727 9.71219,23.85581 a 4.505276,4.505276 0 0 0 3.12046,1.44021 h 0.35082 c 4.8561,0 14.199007,-4.57913 16.913251,-5.96395 l 0.203107,-0.11079 c 20.846133,-11.83558 34.214243,-33.01407 34.731243,-33.86343 l 0.11079,-0.16617 c 3.69285,-6.38863 15.34379,-19.59057 15.80539,-20.0891 a 36.633064,36.633064 0 0 1 16.61783,-9.23213 l 3.39742,4.17292 -26.4962,27.49327 a 1.9387458,1.9387458 0 0 0 -0.55392,1.38481 v 43.96337 a 1.9387458,1.9387458 0 0 0 0.55392,1.38482 l 21.19696,21.97246 -9.67527,12.07561 a 46.677614,46.677614 0 0 1 -6.16706,-9.98915 l 4.67146,-2.08646 a 4.7637755,4.7637755 0 0 0 0,-8.69666 54.026384,54.026384 0 0 1 -23.78195,-21.34467 4.6899185,4.6899185 0 0 0 -4.20985,-2.585 h -0.24003 a 4.7637755,4.7637755 0 0 0 -4.19139,3.08353 51.810674,51.810674 0 0 0 3.43435,45.93905 4.7637755,4.7637755 0 0 0 8.38277,-0.86782 c 1.56946,2.69578 3.28664,5.29923 5.1146,7.82884 a 19.461315,19.461315 0 0 0 -6.49942,-1.25557 12.020224,12.020224 0 0 0 -6.99795,2.12339 l -1.64332,1.38481 v 0.0923 a 12.371045,12.371045 0 0 0 -1.69871,2.14185 l -0.12925,0.2031 a 9.5829437,9.5829437 0 0 0 -0.81242,2.12339 l -14.549828,25.05599 0.129249,1.16324 c 1.329426,10.96776 8.733589,12.92497 9.029019,13.10962 l 2.47421,0.66471 1.20017,-1.4956 a 4.4498833,4.4498833 0 0 1 1.31096,-0.14772 h 0.46161 l -2.21571,3.85903 2.34496,1.84642 c 0.40621,0.29543 41.59995,30.74297 93.29984,30.81683 h 0.18464 c 51.49678,0 90.788699,-30.5214 91.194909,-30.81683 l 2.36342,-1.84642 -2.06799,-3.95135 h 0.53546 a 4.4683475,4.4683475 0 0 1 1.21864,0.12925 l 1.2371,1.53253 2.45575,-0.66471 c 0.31389,-0.0923 7.69959,-2.17878 9.02902,-13.10961 l 0.14771,-1.16325 -14.54983,-25.05598 a 11.447833,11.447833 0 0 0 -0.84935,-2.16032 l -0.0554,-0.24004 a 13.34965,13.34965 0 0 0 -1.56947,-1.97567 l -1.71717,-1.4956 -0.11079,-0.0923 a 12.112545,12.112545 0 0 0 -7.01641,-2.12338 18.464246,18.464246 0 0 0 -5.539269,0.92321 c 1.71717,-2.41882 3.360489,-4.91149 4.856089,-7.49649 a 4.7637755,4.7637755 0 0 0 8.38277,0.84936 51.866067,51.866067 0 0 0 3.43435,-45.93904 4.7453112,4.7453112 0 0 0 -8.64127,-0.42468 54.137169,54.137169 0 0 1 -23.781939,21.36313 4.7637755,4.7637755 0 0 0 0,8.69666 l 4.68991,2.10493 a 46.40065,46.40065 0 0 1 -5.29923,8.8259 l -8.99209,-11.20779 20.99385,-21.67703 a 1.9572101,1.9572101 0 0 0 0.57239,-1.38482 v -43.96337 a 1.9572101,1.9572101 0 0 0 -0.57239,-1.38481 l -26.27463,-27.17937 3.69285,-4.44989 a 36.522279,36.522279 0 0 1 16.61782,9.23213 c 0.48007,0.55392 12.13101,13.79279 15.842329,20.14449 v 0.11078 c 0.55392,0.90475 13.92204,22.1571 34.73124,33.90036 l 0.20311,0.11078 c 2.75117,1.40329 12.07562,5.98242 16.95018,5.98242 h 0.35082 a 4.505276,4.505276 0 0 0 3.12046,-1.44021 c 0.44314,-0.49854 11.18933,-12.31565 9.71219,-23.87427 0,-0.90475 0.12925,-6.00088 3.69285,-7.92116 a 24.00352,24.00352 0 0 0 13.75586,-15.04836 c 0.70164,-1.2925 4.67146,-8.32738 10.1738,-9.9153 a 4.4683475,4.4683475 0 0 0 0,-8.60434 z m -213.834429,106.39098 17.15328992,17.76261 a 1.9756743,1.9756743 0 0 0 1.44021,0.60932 H 9.6806309 c -3.87749,5.28077 -7.3857,5.63159 -8.14273,5.63159 h -0.2585 A 63.683185,63.683185 0 0 1 -27.654079,558.3977 Z m -22.3602,41.48916 2.47421,-5.18845 a 10.820048,10.820048 0 0 0 0.79396,-4.3391 98.395967,98.395967 0 0 0 14.43904,10.19227 88.296024,88.296024 0 0 0 23.8004099,9.76758 22.78488,22.78488 0 0 1 10.8200501,7.75499 133.84732,133.84732 0 0 1 -52.32767,-18.18729 z m 62.40915,-174.43173 a 2.5849944,2.5849944 0 1 1 2.585,-2.58499 2.5849944,2.5849944 0 0 1 -2.585,2.58499 z m 59.41794,169.35407 c 0.84936,1.84642 1.68025,3.47127 2.45575,5.07766 a 133.62575,133.62575 0 0 1 -51.53371,17.98418 22.378666,22.378666 0 0 1 10.6354,-7.53341 88.388346,88.388346 0 0 0 24.00352,-9.78605 98.082075,98.082075 0 0 0 13.70047,-9.60141 11.614011,11.614011 0 0 0 0.73857,3.85903 z m -8.56741,-25.51759 a 62.889222,62.889222 0 0 1 -29.98593,13.09115 h -0.2585 c -0.81243,0 -4.24678,-0.35082 -8.12427,-5.6316 h 10.45076 a 2.0495313,2.0495313 0 0 0 1.44022,-0.60932 l 17.41178,-18.03957 z"
       style="fill:#ffed3b;stroke-width:1.84642" />
    <path
       class="cls-3"
       d="m -54.962699,586.94342 a 3.9328844,3.9328844 0 0 1 -2.80656,-1.14478 5.0038107,5.0038107 0 0 1 -1.31096,-3.69285 3.4343498,3.4343498 0 0 1 0.79396,-2.21571 L 111.67713,368.06825 a 6.0747369,6.0747369 0 0 1 5.16998,-3.69285 4.5975973,4.5975973 0 0 1 1.56946,0.2585 l 0.53547,0.24004 a 5.705452,5.705452 0 0 1 2.7881,4.0252 7.1456632,7.1456632 0 0 1 -2.16032,5.94549 l -171.126629,210.4924 -0.27696,0.3139 a 4.65299,4.65299 0 0 1 -3.13893,1.29249 z M 116.75479,369.06532 a 3.3235643,3.3235643 0 0 0 -0.90475,1.25557 4.1729196,4.1729196 0 0 1 -0.29542,0.48007 l -82.664429,103.04896 83.089099,-102.14421 0.0923,-0.11079 a 2.9173509,2.9173509 0 0 0 1.01553,-2.03106 0.90474806,0.90474806 0 0 0 -0.31389,-0.517 z"
       id="path3484"
       style="fill:#272459;stroke-width:1.84642" />
    <path
       class="cls-3"
       d="m 100.76476,586.94342 a 4.6160615,4.6160615 0 0 1 -3.138929,-1.32942 2.2157095,2.2157095 0 0 1 -0.33235,-0.36929 l -171.07124,-210.4924 a 7.1456632,7.1456632 0 0 1 -2.16032,-5.94549 5.6685235,5.6685235 0 0 1 2.82503,-4.0252 2.6403872,2.6403872 0 0 1 0.517,-0.24004 c 2.75117,-0.96014 5.26231,0.48007 6.77638,3.45282 L 104.14371,579.92701 a 3.4343498,3.4343498 0 0 1 0.79397,2.21571 4.9484179,4.9484179 0 0 1 -1.31097,3.69285 3.8774917,3.8774917 0 0 1 -2.86195,1.10785 z M -70.952729,369.06532 a 0.90474806,0.90474806 0 0 0 -0.24004,0.46161 2.9173509,2.9173509 0 0 0 1.01554,2.04953 l 0.0923,0.11079 83.08912,102.25499 -82.77521,-103.15974 a 2.4926732,2.4926732 0 0 1 -0.27696,-0.48007 2.9912079,2.9912079 0 0 0 -0.94168,-1.23711 z"
       id="path3486"
       style="fill:#272459;stroke-width:1.84642" />
    <path
       class="cls-2"
       d="m 119.37672,369.15764 a 3.2681715,3.2681715 0 0 0 -1.56947,-2.28956 l -0.18464,-0.0923 a 2.2157095,2.2157095 0 0 0 -0.7755,-0.12925 c -1.73564,0 -2.82503,1.95721 -3.13892,2.64038 l -170.203419,212.1357 a 1.1632475,1.1632475 0 0 0 -0.2585,0.73857 2.6773157,2.6773157 0 0 0 0.60932,1.93875 1.5879252,1.5879252 0 0 0 1.12632,0.46161 2.3449592,2.3449592 0 0 0 1.47714,-0.64625 l 0.0923,-0.11079 171.163559,-210.62165 a 4.9114894,4.9114894 0 0 0 1.66179,-4.02521 z"
       id="path3488"
       style="fill:#ffed3b;stroke-width:1.84642" />
    <path
       class="cls-3"
       d="m 154.865,505.5161 c -4.65299,0 -14.36519,-4.83763 -16.267,-5.79777 h -0.11079 C 117.9919,488.08585 104.78996,467.20279 104.23603,466.3165 100.4324,459.79863 89.003031,446.78133 88.172141,445.85812 a 38.534881,38.534881 0 0 0 -20.10756,-10.19226 2.9912079,2.9912079 0 0 1 -0.79397,-0.22157 l -0.83089,-0.35083 a 12.924972,12.924972 0 0 1 -3.69285,-2.2711 2.9727436,2.9727436 0 0 1 0.24004,-3.69285 l 1.64332,-1.84642 a 2.9173509,2.9173509 0 0 1 2.34496,-0.97861 6.3886291,6.3886291 0 0 1 3.43435,1.21864 c 5.87163,-4.19138 18.7412,-18.24267 26.23769,-26.99472 8.031949,-9.23213 13.663539,-21.88013 15.343789,-25.84995 a 2.7881011,2.7881011 0 0 1 -1.45868,-1.12632 2.9727436,2.9727436 0 0 1 0,-3.21277 l 1.18171,-2.10493 a 2.9727436,2.9727436 0 0 1 2.41882,-1.4956 7.2749129,7.2749129 0 0 1 6.07474,3.45281 140.66063,140.66063 0 0 1 17.98417,8.14273 h 0.16618 c 16.32239,10.09995 38.46103,47.67469 39.4027,49.28108 a 32.903286,32.903286 0 0 0 17.5595,13.99589 2.9727436,2.9727436 0 0 1 0,5.72392 c -5.53927,1.60639 -9.80452,8.12427 -11.07855,10.78312 a 22.489452,22.489452 0 0 1 -12.92497,14.2544 c -4.57913,2.38189 -4.63453,8.53048 -4.61606,9.3983 1.44021,10.85698 -8.89977,22.26788 -9.34291,22.76641 a 3.0281363,3.0281363 0 0 1 -2.068,0.96015 z"
       id="path3490"
       style="fill:#272459;stroke-width:1.84642" />
    <path
       class="cls-1"
       d="M 111.52941,451.02811 A 84.935532,84.935532 0 0 0 76.982811,425.78748 l 0.22157,-0.22157 a 33.475678,33.475678 0 0 1 -7.27492,5.53928 4.6160615,4.6160615 0 0 0 -3.13892,-1.95721 l -1.64331,1.84642 3.23124,1.58793 a 41.415304,41.415304 0 0 1 21.89859,11.07855 c 0,0 12.334119,13.92204 16.414719,20.90152 0,0 13.12808,21.01231 33.23564,32.40475 0,0 11.07855,5.53928 15.08529,5.53928 a 43.464835,43.464835 0 0 0 4.32063,-5.85317 c -25.75762,-14.43904 -44.9789,-41.61841 -47.80393,-45.62515 z"
       id="path3492"
       style="fill:#ffffff;stroke-width:1.84642" />
    <path
       class="cls-1"
       d="m 132.4494,423.64563 a 85.563316,85.563316 0 0 0 -31.38922,-23.91119 c -0.70164,0.92321 -1.440209,1.84642 -2.197239,2.67731 0,0 -3.00967,3.52667 -7.14566,8.1058 l 0.11078,-0.12924 a 105.87399,105.87399 0 0 1 35.543669,28.23183 l 0.3139,0.36928 0.2585,0.40621 c 0.2031,0.29543 15.93464,23.46806 36.44842,36.9285 0,0.2585 -0.16618,0.517 -0.24004,0.75703 a 11.39244,11.39244 0 0 1 5.76085,-7.3857 19.922921,19.922921 0 0 0 5.37309,-3.28663 C 152.03997,451.45279 135.0344,427.39387 132.4494,423.64563 Z"
       id="path3494"
       style="fill:#ffffff;stroke-width:1.84642" />
    <path
       class="cls-1"
       d="m 148.29172,411.2192 0.3139,0.38775 0.2585,0.40621 c 0.2031,0.29543 16.61782,24.39127 37.68552,37.72245 v 0 a 18.464246,18.464246 0 0 1 7.93963,-5.24384 35.931423,35.931423 0 0 1 -19.35053,-15.36226 c 0,0 -22.50792,-38.40563 -38.38717,-48.24707 0,0 -12.31565,-6.57327 -18.46424,-8.23505 0,0 -1.69872,-3.13893 -3.98828,-3.00968 l -1.21864,2.12339 c 0,0 2.64038,-0.29543 2.21571,2.65885 0,0 -1.34789,3.50821 -3.69285,8.4197 l 0.18464,-0.33236 a 105.96631,105.96631 0 0 1 36.50381,28.71191 z"
       id="path3496"
       style="fill:#ffffff;stroke-width:1.84642" />
    <path
       class="cls-1"
       d="m 109.68299,375.1216 -39.938169,50.42585 35.340569,-40.49209 c 0,0 5.74238,-7.14566 4.5976,-9.93376 z"
       id="path3498"
       style="fill:#ffffff;stroke-width:1.84642" />
    <polygon
       class="cls-1"
       points="77.64,162.73 79.04,161.87 94.84,141.99 94.84,141.02 "
       id="polygon3500"
       transform="matrix(1.8464246,0,0,1.8464246,-198.66992,281.2863)"
       style="fill:#ffffff" />
    <path
       class="cls-2"
       d="M 102.29729,581.42261 -67.906129,369.28689 c -0.31389,-0.68317 -1.40328,-2.64038 -3.13892,-2.64038 a 2.2157095,2.2157095 0 0 0 -0.7755,0.12925 l -0.18464,0.0923 a 3.2681715,3.2681715 0 0 0 -1.56947,2.28956 4.9114894,4.9114894 0 0 0 1.60639,4.02521 l 171.16356,210.62165 0.0923,0.11079 a 2.3449592,2.3449592 0 0 0 1.477139,0.64625 1.5879252,1.5879252 0 0 0 1.12631,-0.46161 2.6773157,2.6773157 0 0 0 0.60932,-1.93875 1.1632475,1.1632475 0 0 0 -0.2031,-0.73857 z"
       id="path3502"
       style="fill:#ffed3b;stroke-width:1.84642" />
    <path
       class="cls-3"
       d="m -109.06294,505.5161 h -0.29542 a 3.0281363,3.0281363 0 0 1 -2.068,-0.96014 c -0.44314,-0.48007 -10.76465,-11.90944 -9.34291,-22.76642 0,-0.83089 0,-7.03487 -4.63452,-9.3983 a 22.581773,22.581773 0 0 1 -12.92498,-14.23593 c -0.7201,-1.36636 -4.94841,-8.99209 -11.07854,-10.80159 a 2.9727436,2.9727436 0 0 1 0,-5.72391 33.364893,33.364893 0 0 0 17.57796,-14.03283 c 0.92321,-1.56946 23.06184,-39.1442 39.384236,-49.24414 h 0.166178 a 140.66063,140.66063 0 0 1 17.984177,-8.14273 7.3856984,7.3856984 0 0 1 6.07474,-3.45282 2.9542794,2.9542794 0 0 1 2.41881,1.51407 l 1.18171,2.08646 a 2.9173509,2.9173509 0 0 1 -1.51406,4.3391 c 1.68024,4.00674 7.38569,16.61782 15.32532,25.84994 7.51495,8.78898 20.31067,22.84027 26.25616,27.03166 a 6.3886291,6.3886291 0 0 1 3.43435,-1.21864 3.0466006,3.0466006 0 0 1 2.34496,0.96014 l 1.45867,1.62485 a 2.9727436,2.9727436 0 0 1 0.40622,3.74824 13.774328,13.774328 0 0 1 -3.69285,2.30803 l -0.83089,0.35082 a 2.9912079,2.9912079 0 0 1 -0.79397,0.22158 38.904166,38.904166 0 0 0 -20.10756,10.19226 c -0.83089,0.92321 -12.26026,13.9405 -16.02697,20.31067 -0.59085,0.96014 -13.79279,21.8432 -34.288101,33.47568 h -0.110786 c -1.846425,0.96014 -11.614014,5.79777 -16.267004,5.79777 z"
       id="path3504"
       style="fill:#272459;stroke-width:1.84642" />
    <path
       class="cls-1"
       d="m -21.062339,429.2403 a 4.6160615,4.6160615 0 0 0 -3.13892,1.95721 33.475678,33.475678 0 0 1 -7.27491,-5.53927 l 0.22157,0.22157 a 84.935532,84.935532 0 0 0 -34.47275,25.1483 c -2.75117,4.00674 -21.972454,31.18611 -47.748541,45.66208 -0.46161,-0.73857 4.32063,5.85317 4.32063,5.85317 4.02521,0.14771 15.066828,-5.53928 15.066828,-5.53928 20.070633,-11.39244 33.235643,-32.40475 33.235643,-32.40475 3.96981,-6.92409 16.28547,-20.82767 16.28547,-20.82767 a 41.489161,41.489161 0 0 1 21.91706,-11.07855 l 3.2497,-1.58792 z"
       id="path3506"
       style="fill:#ffffff;stroke-width:1.84642" />
    <path
       class="cls-1"
       d="m -103.06206,412.01316 0.2585,-0.40621 0.3139,-0.38775 a 105.96631,105.96631 0 0 1 36.596131,-28.73037 v 0 c -2.36342,-4.78224 -3.69285,-8.17966 -3.69285,-8.17966 -0.44314,-2.95428 2.21571,-2.65885 2.21571,-2.65885 l -1.18171,-2.10493 c -2.30803,-0.12925 -4.00674,3.00968 -4.00674,3.00968 -6.16706,1.66178 -18.464248,8.23505 -18.464248,8.23505 -15.879253,9.84144 -38.387163,48.24707 -38.387163,48.24707 a 36.00528,36.00528 0 0 1 -19.369,15.36225 18.279604,18.279604 0 0 1 7.93963,5.24385 c 21.21542,-13.25733 37.57474,-37.26085 37.77784,-37.63013 z"
       id="path3508"
       style="fill:#ffffff;stroke-width:1.84642" />
    <path
       class="cls-1"
       d="m -82.215921,439.39563 0.258499,-0.40621 0.313892,-0.36928 a 105.87399,105.87399 0 0 1 35.543671,-28.23183 l -7.03487,-7.97656 c -0.75704,-0.86782 -1.47714,-1.7541 -2.19725,-2.67731 v 0 a 85.563316,85.563316 0 0 0 -31.389218,23.91119 c -2.566531,3.69285 -19.590563,27.80716 -42.910913,42.74473 a 19.922921,19.922921 0 0 0 5.44696,3.23124 11.244726,11.244726 0 0 1 5.70545,7.3857 c 0,-0.2031 -0.11079,-0.40621 -0.18464,-0.62778 20.513774,-13.51583 36.319169,-36.68846 36.448419,-36.98389 z"
       id="path3510"
       style="fill:#ffffff;stroke-width:1.84642" />
    <polygon
       class="cls-1"
       points="73.77,52.54 93.45,76.84 90.87,75.12 "
       id="polygon3512"
       transform="matrix(1.8464246,0,0,1.8464246,-198.66992,281.2863)"
       style="fill:#ffffff" />
    <path
       class="cls-1"
       d="m 66.772081,542.8508 30.17058,36.72539 c 0,0 1.58792,1.84642 2.38188,1.20018 l -30.96454,-37.72246 z"
       id="path3514"
       style="fill:#ffffff;stroke-width:1.84642" />
    <path
       class="cls-3"
       d="m 113.00655,568.66382 a 8.4935532,8.4935532 0 0 0 -0.75703,-2.0126 v -0.14772 a 10.229192,10.229192 0 0 0 -1.40329,-1.84642 l -1.60639,-1.40328 a 10.65387,10.65387 0 0 0 -6.20398,-1.84643 23.320343,23.320343 0 0 0 -11.392439,3.8221 c -13.14655,6.99795 -9.04748,17.00557 -8.95516,17.19021 1.05246,2.21571 2.06799,4.28371 3.02814,6.20399 a 135.21367,135.21367 0 0 1 -63.81244,19.81214 h -0.33236 a 135.10289,135.10289 0 0 1 -63.81243,-19.81214 c 0.96014,-1.95721 1.97567,-4.04367 3.0466,-6.29631 0,-0.0923 4.15446,-10.09994 -8.99209,-17.09789 a 23.228021,23.228021 0 0 0 -11.39244,-3.8221 10.65387,10.65387 0 0 0 -6.20398,1.84643 l -1.53254,1.31096 a 11.52169,11.52169 0 0 0 -1.47714,1.84642 l -0.0923,0.14772 a 9.3613727,9.3613727 0 0 0 -0.75703,2.0126 l -14.549827,24.90827 v 0.70164 c 1.21864,9.97069 7.718057,11.83558 7.995017,11.90944 l 1.56946,0.42468 0.75704,-0.92322 c 0.44314,-0.7201 4.33909,-0.7201 4.76377,0 l -2.16031,4.35756 1.40328,1.0894 c 0.40621,0.29542 40.36284,30.466 91.39802,30.52139 h 0.16617 c 51.03518,0 90.991809,-30.22597 91.398019,-30.52139 l 1.40328,-1.0894 -2.2711,-4.35756 a 5.1515246,5.1515246 0 0 1 4.78224,0 l 0.73857,0.92322 1.56946,-0.42468 c 0.27697,0 6.77638,-1.84643 7.99502,-11.90944 v -0.70164 z"
       id="path3517"
       style="fill:#272459;stroke-width:1.84642" />
    <path
       class="cls-1"
       d="m -53.984089,579.66851 c 3.26817,0.83089 8.64127,1.51407 10.91237,0.64625 0.40621,-1.40328 1.2925,-6.90563 -7.3857,-11.42937 l -0.20311,-0.12925 a 19.239744,19.239744 0 0 0 -9.01055,-3.12046 6.3147721,6.3147721 0 0 0 -5.53927,2.99121 6.4994146,6.4994146 0 0 0 -0.31389,0.90475 c 0.2031,0.70164 1.2371,3.34203 6.0378,6.85024 l 1.53254,1.10785 -10.1738,17.68875 -2.2711,4.15445 a 5.0222749,5.0222749 0 0 1 1.99413,0.86782 8.6228029,8.6228029 0 0 1 1.551,1.25557 l 11.68787,-22.39713 z"
       id="path3519"
       style="fill:#ffffff;stroke-width:1.84642" />
    <path
       class="cls-1"
       d="m -47.761639,584.91236 1.84643,1.31096 0.64624,-1.2925 h -1.07092 q -0.70164,0.0369 -1.42175,-0.0185 z"
       id="path3521"
       style="fill:#ffffff;stroke-width:1.84642" />
    <path
       class="cls-1"
       d="m 89.593891,584.96775 h -1.07093 c 0.22157,0.42468 0.44314,0.86782 0.64625,1.2925 l 1.84642,-1.31096 q -0.70164,0.0185 -1.42174,0.0185 z"
       id="path3523"
       style="fill:#ffffff;stroke-width:1.84642" />
    <path
       class="cls-1"
       d="m 101.30022,577.4528 1.53253,-1.10785 c 4.72685,-3.45282 5.79777,-6.07474 6.03781,-6.8687 a 4.874561,4.874561 0 0 0 -0.31389,-0.88629 6.2963079,6.2963079 0 0 0 -5.53928,-2.9912 18.925852,18.925852 0 0 0 -9.102869,3.15738 l -0.20311,0.12925 c -8.58587,4.52374 -7.69959,10.02609 -7.29337,11.42937 2.28956,0.86782 7.64419,0.18464 10.91237,-0.64625 l 1.18171,-0.57239 11.687869,22.39713 a 11.300119,11.300119 0 0 1 1.64331,-1.32943 5.0961319,5.0961319 0 0 1 1.84643,-0.79396 l -2.28957,-4.19138 z"
       id="path3525"
       style="fill:#ffffff;stroke-width:1.84642" />
    <path
       class="cls-1"
       d="m -17.240239,615.6184 a 6.7394498,6.7394498 0 0 1 4.8007,-0.38775 7.6257336,7.6257336 0 0 1 3.8590299,2.73271 c 0.40621,-0.94168 0.79396,-1.84643 1.20018,-2.86196 l -0.16618,-0.14771 a 9.8599074,9.8599074 0 0 0 -4.1175299,-2.30804 10.192264,10.192264 0 0 0 -7.69959,0.70165 8.2165895,8.2165895 0 0 0 -3.89595,4.5422 7.0718062,7.0718062 0 0 0 0.48007,6.57327 10.063014,10.063014 0 0 0 6.20398,4.61606 11.854046,11.854046 0 0 0 5.53928,0.22157 v 0 c 0.33235,-1.20017 0.68317,-2.38188 1.01553,-3.56359 l -0.62778,0.24003 c -0.53547,0.20311 -1.05247,0.36929 -1.51407,0.49853 a 9.4906225,9.4906225 0 0 1 -1.32943,0.22158 7.0348777,7.0348777 0 0 1 -2.5296,-0.27697 6.2593794,6.2593794 0 0 1 -3.91442,-2.88042 4.8191682,4.8191682 0 0 1 -0.33236,-4.39449 5.5392738,5.5392738 0 0 1 3.02814,-3.52667 z"
       id="path3527"
       style="fill:#ffffff;stroke-width:1.84642" />
    <path
       class="cls-1"
       d="m 12.376411,634.96893 c -0.35082,0.68318 -0.70164,1.36635 -1.07093,2.04953 a 143.68876,143.68876 0 0 0 93.558339,-26.47773 l -0.99707,-1.84642 a 141.69462,141.69462 0 0 1 -91.490339,26.27462 z"
       id="path3529"
       style="fill:#ffffff;stroke-width:1.84642" />
    <path
       class="cls-1"
       d="m -35.852199,622.87485 c -0.31389,0.60932 -0.62779,1.2371 -0.92321,1.84642 A 143.74416,143.74416 0 0 0 8.0188509,636.6861 c -0.22157,-0.7201 -0.46161,-1.45867 -0.66471,-2.19724 A 141.80541,141.80541 0 0 1 -35.852199,622.87485 Z"
       id="path3531"
       style="fill:#ffffff;stroke-width:1.84642" />
    <path
       class="cls-1"
       d="m -61.591359,610.54073 a 145.6829,145.6829 0 0 0 19.5721,11.74326 l 0.96014,-1.84642 a 141.54691,141.54691 0 0 1 -19.53517,-11.74326 z"
       id="path3533"
       style="fill:#ffffff;stroke-width:1.84642" />
    <path
       class="cls-1"
       d="m 52.794641,608.38041 1.51407,1.69871 a 120.0176,120.0176 0 0 0 39.73506,-19.5721 l -0.9786,-1.84642 a 118.17117,118.17117 0 0 1 -40.27053,19.71981 z"
       id="path3535"
       style="fill:#ffffff;stroke-width:1.84642" />
    <path
       class="cls-1"
       d="m 50.172721,611.16852 c 0.14772,-0.73857 0.27697,-1.47714 0.42468,-2.21571 a 119.40828,119.40828 0 0 1 -20.31067,3.2497 l 1.05246,1.97568 a 122.14099,122.14099 0 0 0 18.83353,-3.00967 z"
       id="path3537"
       style="fill:#ffffff;stroke-width:1.84642" />
    <path
       class="cls-1"
       d="m 16.143121,614.45515 c 0.35082,-0.68318 0.68317,-1.34789 0.99707,-2.03107 -3.8775,-0.14771 -7.7549901,-0.48007 -11.5955501,-0.99707 0.18464,0.72011 0.38775,1.44022 0.59085,2.14186 3.32357,0.44314 6.6656001,0.7201 10.0076301,0.88628 z"
       id="path3539"
       style="fill:#ffffff;stroke-width:1.84642" />
    <path
       class="cls-1"
       d="m 27.110881,614.45515 0.27696,-2.08646 c -2.7881,0.14771 -5.53927,0.18464 -8.38277,0.11079 0.18465,0.70164 0.35082,1.38481 0.53547,2.06799 2.5296,0.0554 5.04074,0.0185 7.57034,-0.0923 z"
       id="path3541"
       style="fill:#ffffff;stroke-width:1.84642" />
    <path
       class="cls-1"
       d="m 69.689431,615.24911 a 5.2253816,5.2253816 0 0 0 0.16618,-3.91442 5.5392738,5.5392738 0 0 0 -3.69285,-3.12045 10.469227,10.469227 0 0 0 -6.03781,0.64624 c -1.12632,0.36929 -2.25264,0.73857 -3.39742,1.07093 l -2.068,0.64625 1.84643,2.04953 c 1.64332,-0.48007 3.26817,-0.99707 4.89302,-1.551 2.71425,-0.92321 4.61606,-0.38775 5.41003,1.45868 0.79396,1.84642 -0.60932,3.69285 -3.69285,4.67145 l -2.25264,0.75704 2.14185,1.99414 0.57239,-0.20311 c 2.95428,1.84642 6.00088,3.5636 9.23213,5.16999 1.38482,-0.53546 2.73271,-1.10786 4.09906,-1.68025 -3.45281,-1.53253 -6.79484,-3.19431 -9.98916,-4.98534 a 5.7423805,5.7423805 0 0 0 2.76964,-3.00968 z"
       id="path3543"
       style="fill:#ffffff;stroke-width:1.84642" />
    <path
       class="cls-1"
       d="m 83.002151,620.54835 q -4.46835,-8.69666 -8.84437,-17.33793 l -2.7881,1.2925 q 4.13599,8.75205 8.34584,17.57796 z"
       id="path3545"
       style="fill:#ffffff;stroke-width:1.84642" />
    <path
       class="cls-1"
       d="m 18.931221,634.74736 v 0 c 1.2371,0 2.45574,0 3.69285,0 h 0.18464 q 3.96981,-8.06888 7.01641,-16.13775 3.69285,7.64419 8.29045,15.17761 c 1.27403,-0.16618 2.56653,-0.33236 3.85903,-0.53547 a 174.74562,174.74562 0 0 1 -12.92498,-21.86166 172.97306,172.97306 0 0 1 -7.57034,18.16881 q -1.84642,-9.12133 -3.19431,-18.07649 a 203.58678,203.58678 0 0 1 -8.3827701,19.01817 201.81421,201.81421 0 0 1 -5.0592,-20.12603 c -2.21571,6.64713 -4.67145998,13.2758 -7.3857,19.94139 q 1.55100002,-8.58588 3.10199002,-17.0425 -1.4956,-0.24004 -2.99121002,-0.55393 c -1.32942,6.33324 -2.69578,12.7034 -4.04367,19.14742 1.01554,0.22158 2.04954,0.40622 3.06507,0.59086 v 0 c 1.21864,0.24004 2.43728002,0.44314 3.69285002,0.62779 Q 2.3687909,627.34319 4.2521409,621.65621 c 1.45868,5.42849 3.17585,10.87544 5.18845,16.37778 q 4.0436701,-7.60727 7.3857001,-15.28839 c 0.53547,4.00674 1.31096,7.97655 2.10493,12.00176 z"
       id="path3547"
       style="fill:#ffffff;stroke-width:1.84642" />
    <path
       class="cls-1"
       d="m 48.270901,625.21981 a 5.4100241,5.4100241 0 0 0 -1.27403,-1.68025 5.6500593,5.6500593 0 0 0 -3.08353,-1.32943 4.7083827,4.7083827 0 0 0 1.47714,-3.87749 5.1699889,5.1699889 0 0 0 -0.9786,-2.12339 5.5392738,5.5392738 0 0 0 -1.69871,-1.56946 5.1145961,5.1145961 0 0 0 -2.21571,-0.68317 14.771397,14.771397 0 0 0 -3.23125,0.16617 c -1.84642,0.24004 -3.69285,0.42468 -5.53927,0.59086 l 1.40328,2.45574 c 1.84643,-0.16617 3.69285,-0.36928 5.53928,-0.62778 a 3.8774917,3.8774917 0 0 1 2.5296,0.44314 2.6034587,2.6034587 0 0 1 1.18171,1.84643 2.8804224,2.8804224 0 0 1 -0.88628,2.32649 3.8036347,3.8036347 0 0 1 -2.47421,1.16325 l -2.99121,0.35082 c 0.38775,0.64625 0.79396,1.27403 1.20018,1.84642 l 2.51113,-0.29542 a 6.9610208,6.9610208 0 0 1 4.0806,0.59085 2.8619581,2.8619581 0 0 1 1.07093,0.96014 c 2.56653,3.21278 -0.64625,4.35757 -1.20018,4.54221 a 13.811256,13.811256 0 0 1 -2.17878,0.48007 c 0,0 1.4956,2.16032 1.53253,2.14185 0.72011,-0.0923 2.54807,-0.42468 3.3051,-0.55393 v 0 c 1.27404,-0.24003 2.54807,-0.48007 3.80364,-0.75703 q 2.17878,-8.58587 3.47128,-17.0425 c 3.52667,4.46835 7.38569,8.84437 11.4109,13.07269 1.2371,-0.40622 2.47421,-0.83089 3.69285,-1.27404 a 165.99357,165.99357 0 0 1 -17.33793,-18.70428 173.36081,173.36081 0 0 1 -3.12046,17.54104 z"
       id="path3549"
       style="fill:#ffffff;stroke-width:1.84642" />
    <path
       class="cls-1"
       d="m -22.096339,611.7963 0.97861,-2.30803 q -5.53928,-2.03107 -10.78312,-4.57913 c -3.00967,5.94548 -6.07474,11.90943 -9.1398,17.87339 1.10785,0.55392 2.23417,1.08939 3.36049,1.60639 q 3.8221,-7.95809 7.5888,-15.86079 c 2.62193,1.10785 5.29924,2.19724 7.99502,3.26817 z"
       id="path3551"
       style="fill:#ffffff;stroke-width:1.84642" />
    <path
       class="cls-1"
       d="m -49.792709,588.67906 -0.9786,1.84643 a 121.34702,121.34702 0 0 0 18.83353,11.55862 l 0.92321,-1.84643 a 118.61432,118.61432 0 0 1 -18.77814,-11.55862 z"
       id="path3553"
       style="fill:#ffffff;stroke-width:1.84642" />
    <path
       class="cls-1"
       d="M 3.8828609,611.18698 A 118.66971,118.66971 0 0 1 -29.962109,600.71775 l -0.90474,1.84643 a 120.40535,120.40535 0 0 0 34.0111399,10.56155 c 0.24003,-0.62779 0.48007,-1.32943 0.73857,-1.93875 z"
       id="path3555"
       style="fill:#ffffff;stroke-width:1.84642" />
    <path
       class="cls-3"
       d="m 21.903961,393.29041 a 17.762605,17.762605 0 1 0 17.76261,17.76261 17.799533,17.799533 0 0 0 -17.76261,-17.76261 z m 0,13.70047 a 4.0805984,4.0805984 0 1 1 -4.06213,4.06214 4.0805984,4.0805984 0 0 1 4.06213,-4.06214 z"
       id="path3558"
       style="fill:#272459;stroke-width:1.84642" />
    <path
       class="cls-2"
       d="m 21.903961,425.54745 a 14.494433,14.494433 0 1 1 14.49443,-14.49443 14.512897,14.512897 0 0 1 -14.49443,14.49443 z m 0,-21.8432 a 7.3856984,7.3856984 0 1 0 7.3857,7.3857 7.3856984,7.3856984 0 0 0 -7.3857,-7.3857 z"
       id="path3560"
       style="fill:#ffed3b;stroke-width:1.84642" />
    <path
       class="cls-1"
       d="m 16.493941,399.88215 c 0,0 -7.3857001,2.84349 -7.3857001,9.67526 0,0 0,5.96396 3.2866301,8.64127 0,0 -2.08646,-6.11166 -1.05246,-8.93669 a 12.74033,12.74033 0 0 1 5.15153,-9.37984 z"
       id="path3562"
       style="fill:#ffffff;stroke-width:1.84642" />
    <path
       class="cls-1"
       d="m 34.810471,412.08702 c 0,0 -0.44314,6.70252 -5.53927,8.64126 l 2.38188,-4.17292 c 0,0 3.3051,-2.97274 3.15739,-4.46834 z"
       id="path3564"
       style="fill:#ffffff;stroke-width:1.84642" />
    <polygon
       class="cls-3"
       points="107.84,152.54 82.54,126.35 82.54,102.54 107.84,76.34 131.91,76.34 157.2,102.54 157.2,126.35 131.91,152.54 "
       id="polygon3566"
       transform="matrix(1.8464246,0,0,1.8464246,-198.66992,281.2863)"
       style="fill:#272459" />
    <path
       class="cls-2"
       d="M 40.626711,432.26844 H 4.6952809 l -40.8798399,42.3939 v 35.87603 L 4.7506809,553.00614 H 40.626711 l 40.95369,-42.46777 v -35.87603 z"
       id="path3568"
       style="fill:#ffed3b;stroke-width:1.84642" />
    <polygon
       class="cls-1"
       points="89.58,105.39 89.58,123.5 110.83,145.51 128.92,145.51 150.16,123.5 150.16,105.39 128.92,83.38 110.83,83.38 "
       id="polygon3570"
       transform="matrix(1.8464246,0,0,1.8464246,-198.66992,281.2863)"
       style="fill:#ffffff" />
    <polygon
       class="cls-3"
       points="119.87,118.05 111.27,123.07 102.46,117.93 102.46,108.5 111.27,113.65 119.87,108.63 128.47,113.65 137.28,108.5 137.28,117.93 128.47,123.07 "
       id="polygon3572"
       transform="matrix(1.8464246,0,0,1.8464246,-198.66992,281.2863)"
       style="fill:#272459" />
    <polygon
       class="cls-3"
       points="119.87,104.75 111.27,109.77 102.46,104.63 102.46,95.2 111.27,100.35 119.87,95.33 128.47,100.35 137.28,95.2 137.28,104.63 128.47,109.77 "
       id="polygon3574"
       transform="matrix(1.8464246,0,0,1.8464246,-198.66992,281.2863)"
       style="fill:#272459" />
    <polygon
       class="cls-3"
       points="119.87,131.35 111.27,136.37 102.46,131.23 102.46,121.8 111.27,126.95 119.87,121.92 128.47,126.95 137.28,121.8 137.28,131.23 128.47,136.37 "
       id="polygon3576"
       transform="matrix(1.8464246,0,0,1.8464246,-198.66992,281.2863)"
       style="fill:#272459" />
    <path
       class="cls-3"
       d="m 112.72959,508.83966 a 2.9358151,2.9358151 0 0 0 -0.33236,-0.62778 3.2681715,3.2681715 0 0 0 -5.8347,0 54.635704,54.635704 0 0 1 -24.483589,22.02784 3.2866358,3.2866358 0 0 0 -1.84643,2.99121 3.2127788,3.2127788 0 0 0 0.5724,1.84643 3.2866358,3.2866358 0 0 0 1.56946,1.51407 l 5.72391,2.56653 c -3.08353,7.38569 -14.10668,27.19783 -45.25586,32.534 a 1.8464246,1.8464246 0 0 1 -0.40622,0 c -1.47714,0 -6.03781,-0.68318 -10.67233,-8.21659 a 40.621341,40.621341 0 0 1 -2.36343,-4.5976 2.9727436,2.9727436 0 0 0 -0.31389,-0.517 3.3051,3.3051 0 0 0 -2.67731,-1.84642 l -4.15446,-0.29543 h -0.7755 l -4.15445,0.29543 a 3.2681715,3.2681715 0 0 0 -2.76964,1.93874 C 9.1267009,570.67642 3.0335009,571.63656 1.3163309,571.63656 H 0.74393092 C -23.850439,567.48211 -35.833739,554.40942 -41.299149,545.32501 a 46.160615,46.160615 0 0 1 -3.0466,-6.11166 l 6.05627,-2.71425 a 3.6928492,3.6928492 0 0 0 -0.20311,-6.3517 55.688166,55.688166 0 0 1 -24.00352,-21.23388 4.3390978,4.3390978 0 0 0 -0.24003,-0.42468 1.3848185,1.3848185 0 0 0 -0.12925,-0.22157 0.88628381,0.88628381 0 0 0 0,-0.14771 3.2866358,3.2866358 0 0 0 -5.96395,0.29543 50.370463,50.370463 0 0 0 2.9912,44.07415 l 0.517,0.84936 a 3.2681715,3.2681715 0 0 0 5.98242,-1.45868 6.2593794,6.2593794 0 0 1 0.81243,-2.19724 c 0.62778,1.14478 1.25556,2.2711 1.84642,3.36049 A 94.758511,94.758511 0 0 0 1.4455809,597.0249 c 7.64419,2.10493 13.0726801,9.61987 15.6946101,13.9959 0.9786,1.68025 1.4956,2.80657 1.51406,2.84349 a 3.0281363,3.0281363 0 0 0 0.29543,0.53547 3.3051,3.3051 0 0 0 2.89889,1.84642 h 0.31389 a 3.2866358,3.2866358 0 0 0 2.97274,-1.84642 c 0,-0.14772 6.51788,-14.18054 17.43025,-17.20868 a 94.813903,94.813903 0 0 0 60.064189,-47.28693 5.2438459,5.2438459 0 0 1 0.60932,1.84642 3.5820637,3.5820637 0 0 0 0.5724,1.51407 3.4158855,3.4158855 0 0 0 2.12338,1.68025 3.3051,3.3051 0 0 0 3.50821,-1.36636 50.204285,50.204285 0 0 0 3.28664,-44.73887 z"
       id="path3578"
       style="fill:#272459;stroke-width:1.84642" />
    <path
       class="cls-2"
       d="m 109.68299,509.63363 -0.14772,-0.36929 -0.16618,0.35082 a 58.439339,58.439339 0 0 1 -25.979189,23.44959 l -0.35082,0.14772 8.99209,4.04367 a 48.00704,48.00704 0 0 1 -9.04748,16.04543 c -6.46249,7.77345 -18.57503,17.818 -39.60581,21.41852 a 5.5392738,5.5392738 0 0 1 -0.97861,0 c -2.84349,0 -10.08147,-1.45867 -16.08235,-14.99296 v -0.11079 l -4.28371,-0.29543 -4.57913,0.29543 v 0.11079 c -6.01935,13.53429 -13.2573301,14.99296 -16.0823601,14.99296 a 6.2593794,6.2593794 0 0 1 -1.01552998,0 C -20.637659,571.11957 -32.768669,561.09348 -39.231159,553.30157 a 47.803933,47.803933 0 0 1 -9.04748,-16.04543 l 8.99209,-4.04367 -0.35082,-0.14772 a 58.439339,58.439339 0 0 1 -26.08998,-23.44959 l -0.16618,-0.35082 -0.14771,0.36929 a 47.859326,47.859326 0 0 0 2.9912,41.69226 l 0.27697,0.40622 v -0.48007 c 0.36928,-3.45282 3.69285,-6.73945 4.52374,-7.47802 a 93.115193,93.115193 0 0 0 37.51935,40.62134 83.827677,83.827677 0 0 0 22.6371599,9.23212 c 12.4264401,3.36049 19.4797801,18.7966 19.5351701,18.96278 v 0 h 0.517 v 0 a 44.923511,44.923511 0 0 1 5.05921,-8.21659 c 3.02813,-3.93288 7.99502,-8.99209 14.4575,-10.74619 a 83.329142,83.329142 0 0 0 22.63717,-9.23212 93.133657,93.133657 0 0 0 37.537809,-40.62134 c 0.79396,0.73857 4.15445,4.0252 4.52374,7.47802 v 0.48007 l 0.27696,-0.40622 a 47.859326,47.859326 0 0 0 3.23125,-41.69226 z"
       id="path3580"
       style="fill:#ffed3b;stroke-width:1.84642" />
    <path
       class="cls-1"
       d="M 20.500681,566.11575 V 603.432 c 0,0 -2.585,-9.32445 -17.6702901,-14.49444 0,0 -40.2889799,-16.17468 -56.5744499,-43.1694 -2.17878,-3.69285 -1.14478,-3.84057 -1.08939,-3.91442 a 2.7696369,2.7696369 0 0 0 0.79397,-0.75704 22.674094,22.674094 0 0 1 1.2371,2.19725 c 6.16706,11.70633 34.085,36.3561 57.7930899,40.28898 0,0 4.56067,1.20018 6.5363401,-0.79396 1.97568,-1.99414 6.16706,-15.47304 6.16706,-15.47304 0,0 2.01261,-1.40328 2.80657,-1.20018 z"
       id="path3582"
       style="fill:#ffffff;stroke-width:1.84642" />
  </g>
</svg>
