<svg xmlns="http://www.w3.org/2000/svg" xml:space="preserve" id="レイヤー_1" x="0" y="0" version="1.1" viewBox="0 0 590 620"><style>.st0{fill:#fff}.st1{fill:#000e32}</style><path d="M287.2 613.4c-2.8-.6-69-15.2-135.7-61.8-90.5-63-138.3-154-138.3-263V63l21-10.2C38.2 50.9 134.1 5 295 5s256.8 45.9 260.8 47.8l21 10.2v225.6c0 109-47.8 200-138.2 263.1-67.7 47.3-135.1 61.6-135.8 61.8l-7.8 1.7z" class="st0"/><path d="M566.2 90.8V289c0 105.2-46.1 192.9-133.3 253.8-64.4 45-128.5 59.2-131.3 59.7L295 604l-6.6-1.4c-2.7-.6-66.9-14.8-131.2-59.7C69.9 481.9 23.8 394.2 23.8 289V71l17.8-8.6C45.5 60.5 139.3 16 295 16c155.8 0 249.5 44.5 253.4 46.4l17.8 8.6z" class="st1"/><path d="M295 47.6c-150.3 0-239.7 43.2-239.7 43.2V289C55.3 519.8 295 571.7 295 571.7S534.7 519.8 534.7 289V90.8S445.3 47.6 295 47.6" class="st0"/><path d="M506.7 239.3h-70.5V464c-10.7 10.6-22.8 20.6-35.9 29.9-8.4 6-17 11.4-25.3 16.1V178.1h131.6zm-423.4 0v-61.2h131.3v331.7c-8.2-4.7-16.5-10-24.8-15.8-13.4-9.5-25.5-19.5-36.3-30.3V239.3zM325 533.7c-13.2 5.1-23.8 8.3-30 10-6.4-1.7-17.5-5.1-31.3-10.5V178.1h61.2zm-241.7-407v-16.3c30.9-11.4 105.6-34 211.7-34s180.9 22.7 211.7 34v16.3z" class="st1"/></svg>