<?xml version="1.0" encoding="UTF-8" standalone="no"?>
<svg
   xmlns:dc="http://purl.org/dc/elements/1.1/"
   xmlns:cc="http://creativecommons.org/ns#"
   xmlns:rdf="http://www.w3.org/1999/02/22-rdf-syntax-ns#"
   xmlns:svg="http://www.w3.org/2000/svg"
   xmlns="http://www.w3.org/2000/svg"
   xmlns:sodipodi="http://sodipodi.sourceforge.net/DTD/sodipodi-0.dtd"
   xmlns:inkscape="http://www.inkscape.org/namespaces/inkscape"
   width="82.205925mm"
   height="84.931252mm"
   viewBox="0 0 310.69956 321.00001"
   version="1.1"
   id="svg3380"
   inkscape:version="1.0.1 (3bc2e813f5, 2020-09-07)"
   sodipodi:docname="gifu.svg">
  <defs
     id="defs3374" />
  <sodipodi:namedview
     id="base"
     pagecolor="#ffffff"
     bordercolor="#666666"
     borderopacity="1.0"
     inkscape:pageopacity="0.0"
     inkscape:pageshadow="2"
     inkscape:zoom="0.35"
     inkscape:cx="367.49264"
     inkscape:cy="189.07143"
     inkscape:document-units="px"
     inkscape:current-layer="layer1"
     inkscape:document-rotation="0"
     showgrid="false"
     inkscape:window-width="1267"
     inkscape:window-height="728"
     inkscape:window-x="83"
     inkscape:window-y="0"
     inkscape:window-maximized="0" />
  <metadata
     id="metadata3377">
    <rdf:RDF>
      <cc:Work
         rdf:about="">
        <dc:format>image/svg+xml</dc:format>
        <dc:type
           rdf:resource="http://purl.org/dc/dcmitype/StillImage" />
        <dc:title></dc:title>
      </cc:Work>
    </rdf:RDF>
  </metadata>
  <g
     inkscape:label="Layer 1"
     inkscape:groupmode="layer"
     id="layer1"
     transform="translate(-7.5073629,-330.92857)">
    <path
       class="cls-1"
       d="m 140.43793,351.77326 -10.66614,-14.22152 -69.726073,37.28069 v 115.62095 l 0.386013,0.42665 c 0.162532,0.18284 17.187723,19.36158 17.451833,32.9736 0.10158,5.74956 3.00684,11.86481 7.0295,17.655 -5.4245,-3.25063 -20.31646,-10.84898 -32.506333,-4.83531 -13.18538,-6.2981 -23.38424,-3.92108 -29.662025,-0.7314 a 32.140633,32.140633 0 0 0 -11.255317,9.50811 l -0.203164,0.26411 a 21.14943,21.14943 0 0 0 -2.5192411,4.06329 l -1.25962,2.60051 2.9052531,-0.6095 a 13.449494,13.449494 0 0 1 4.368038,-0.34538 h 0.223481 c 0.426646,0 10.381709,0 29.662025,14.22152 a 254.91057,254.91057 0 0 0 22.876333,15.25766 l -1.44247,0.99551 0.28443,0.97519 2.94588,11.25531 a 34.314494,34.314494 0 0 0 -8.309426,14.72943 v 0.42665 l 0.121899,0.42665 c 0.426646,1.3612 10.462977,33.52215 10.930257,34.8224 2.17386,6.09494 6.39968,7.39519 9.56905,7.39519 7.17171,0 11.29595,-9.10177 13.12443,-14.50595 l 0.22348,-0.65013 c 0,0 -0.62981,-1.03614 -0.89393,-1.50341 a 9.8737975,9.8737975 0 0 0 5.01817,-8.12659 9.406519,9.406519 0 0 0 -0.22348,-2.03164 l -0.69076,-2.78336 c 17.695627,-6.88727 40.632907,-10.70677 64.728227,-10.70677 24.09531,0 47.03259,3.8195 64.74854,10.70677 -0.26411,0.97519 -0.71108,2.78336 -0.71108,2.78336 a 9.406519,9.406519 0 0 0 -0.22348,2.03164 9.853481,9.853481 0 0 0 5.03848,8.12659 l -0.89392,1.50341 0.20316,0.65013 c 1.82849,5.40418 5.95273,14.50595 13.12444,14.50595 3.16936,0 7.39519,-1.27994 9.56905,-7.37487 0.46727,-1.32057 10.5036,-33.48152 10.93025,-34.84272 l 0.14221,-0.42665 -0.12189,-0.42665 a 34.192595,34.192595 0 0 0 -8.30943,-14.72943 l 3.25063,-12.18987 -1.42215,-0.97519 a 254.91057,254.91057 0 0 0 22.87633,-15.25766 c 19.28031,-14.22152 29.23538,-14.22152 29.66202,-14.22152 h 0.22348 a 13.449494,13.449494 0 0 1 4.36804,0.34538 l 2.82399,0.58918 -1.15804,-2.62082 a 21.14943,21.14943 0 0 0 -2.51924,-4.06329 l -0.20317,-0.26412 a 31.917152,31.917152 0 0 0 -11.25531,-9.5081 c -6.27779,-3.18968 -16.47665,-5.56671 -29.66203,0.73139 -12.18987,-6.09493 -27.18342,1.58469 -32.50633,4.83532 4.06329,-5.79019 6.92791,-11.90544 7.0295,-17.655 0.26411,-13.61203 17.2893,-32.79076 17.45183,-32.97361 l 0.38601,-0.42664 V 374.83243 L 195.90185,337.633 185.23571,351.85452 162.78603,330.92857 Z m -60.522717,201.4986 v 0 c 0.28443,-1.25962 5.03848,-3.5757 10.25981,-5.01816 a 140.46797,140.46797 0 0 0 17.390877,16.53759 c -4.40867,1.07677 -8.695437,2.27544 -12.799357,3.61633 -14.50595,-10.19886 -14.85133,-14.89196 -14.85133,-15.13576 z m 155.481827,-4.95721 c 5.22133,1.44246 9.97538,3.75854 10.15823,5.01816 v 0 c 0,0.2438 -0.32506,4.91658 -14.85133,15.11544 -4.06329,-1.34088 -8.39069,-2.53955 -12.77905,-3.61633 a 140.52892,140.52892 0 0 0 17.47215,-16.51727 z"
       id="path3223"
       style="fill:#ffffff;stroke-width:2.03165" />
    <path
       d="m 311.09616,547.35977 c 0,0 -13.46981,-19.46316 -37.82924,-6.58253 -13.34791,-8.2688 -32.50633,5.07911 -32.50633,5.07911 0,0 9.85348,2.70209 9.34557,7.04981 -0.2438,2.03165 -2.03165,8.12659 -18.60988,19.56475 a 174.39646,174.39646 0 0 0 -21.9824,-5.87145 c 1.44247,-1.05646 2.90525,-2.15355 4.40867,-3.3319 6.94823,-5.4245 29.74329,-24.37975 30.02772,-39.47488 0.28443,-15.09512 17.81753,-34.74114 17.81753,-34.74114 V 377.04693 l -64.80949,-34.65988 -11.235,14.95291 -22.93728,-21.37291 -22.93728,21.37291 -11.21468,-14.89196 -64.890758,34.59893 v 112.00461 c 0,0 17.533101,19.40222 17.817531,34.74114 0.28443,15.33893 23.079487,34.05038 30.027717,39.47488 1.50342,1.17835 2.96621,2.27544 4.42899,3.3319 a 174.72152,174.72152 0 0 0 -21.880817,5.87145 c -16.61886,-11.3569 -18.28481,-17.55342 -18.60988,-19.56475 -0.50791,-4.34772 9.34557,-7.04981 9.34557,-7.04981 0,0 -19.15841,-13.34791 -32.506326,-5.07911 -24.35943,-12.77905 -37.89019,6.58253 -37.89019,6.58253 0,0 11.29595,0 32.221899,15.37956 a 230.8762,230.8762 0 0 0 27.996077,18.08165 50.222278,50.222278 0 0 0 -4.42899,2.66145 c 0,0 1.34089,4.97753 3.12874,11.76323 a 27.671013,27.671013 0 0 0 -8.67513,14.01835 c 0,0 10.15823,32.77045 10.68645,34.05038 a 6.3793671,6.3793671 0 0 0 6.09494,4.9369 c 4.36804,0 7.57804,-6.44031 9.28462,-11.05215 l -1.80816,-3.02715 c 0.81266,-0.56886 1.66595,-1.07677 2.51924,-1.58469 4.06329,-2.39734 4.06329,-5.28227 3.65696,-6.70443 -0.40633,-1.42215 -1.19867,-4.6931 -1.50342,-5.8105 18.934937,-8.025 43.274047,-12.18988 69.075947,-12.18988 25.8019,0 50.20196,4.0633 69.07595,12.18988 -0.30475,1.1174 -1.21899,4.65247 -1.50342,5.8105 -0.28443,1.15804 -0.44696,4.30709 3.65697,6.70443 0.85329,0.50792 1.70658,1.01583 2.51924,1.58469 l -1.80817,3.02715 c 1.70658,4.61184 4.91658,11.05215 9.28462,11.05215 a 6.3793671,6.3793671 0 0 0 6.09494,-4.9369 c 0.46728,-1.27993 10.68645,-34.05038 10.68645,-34.05038 a 27.671013,27.671013 0 0 0 -8.55322,-14.01835 c 1.78784,-6.7857 3.12873,-11.76323 3.12873,-11.76323 a 51.319367,51.319367 0 0 0 -4.40867,-2.66145 232.50152,232.50152 0 0 0 27.91481,-18.08165 c 20.94627,-15.44051 32.28285,-15.37956 32.28285,-15.37956 z"
       id="path3225"
       style="stroke-width:2.03165" />
    <path
       class="cls-2"
       d="m 239.72445,523.67079 c 0.44696,-16.02969 17.83785,-36.22425 17.83785,-36.22425 V 379.68807 l -59.32405,-31.69368 -12.18988,15.56241 -23.26234,-21.73861 -23.34361,21.61671 -12.18987,-15.5624 -59.242777,31.81557 v 107.67721 c 0,0 17.39088,20.19456 17.81753,36.22424 0.30474,10.48329 14.871637,25.59873 28.443027,36.24456 2.35671,1.84879 4.91659,3.73822 7.59836,5.58702 a 251.92405,251.92405 0 0 1 81.91595,0 c 2.68177,-1.8488 5.24164,-3.73823 7.59835,-5.58702 13.49013,-10.56456 28.05703,-25.74095 28.34146,-36.16329 z"
       id="path3227"
       style="fill:#1a507d;stroke-width:2.03165" />
    <path
       class="cls-1"
       d="m 198.96964,351.00123 c 0,0 -4.55089,6.33873 -9.77222,12.43367 l 2.66146,8.67513 -29.07285,-26.95994 -29.1338,26.93962 2.72241,-8.65481 c -5.16038,-6.09494 -9.71127,-12.41335 -9.71127,-12.41335 l -56.276577,30.0074 v 105.52367 l 21.88082,-11.68196 a 14.871646,14.871646 0 0 1 8.248477,-4.87595 1.5034177,1.5034177 0 0 1 0.7314,0 v 0 c 0.44696,-1.32057 0.75171,-1.50342 0.97519,-1.54405 a 1.6253165,1.6253165 0 0 1 0.60949,0 3.7382278,3.7382278 0 0 1 0.81266,-1.56437 c 0,-0.10158 0.36569,-0.44696 1.90975,-0.62981 a 3.3115823,3.3115823 0 0 1 0.16253,-0.58918 14.668481,14.668481 0 0 1 7.19202,-6.54189 c 1.3612,-0.56887 8.12658,-3.25064 9.02051,-2.03165 a 0.67044304,0.67044304 0 0 1 0,0.1219 3.3522152,3.3522152 0 0 1 -0.44696,1.90975 l 9.67063,-5.16038 a 36.56962,36.56962 0 0 0 63.30608,0.12189 l 10.70677,5.72924 a 4.368038,4.368038 0 0 1 -0.77203,-2.6005 0.22348101,0.22348101 0 0 1 0,-0.1219 c 0.95488,-1.27994 7.65931,1.40184 9.04082,2.03165 a 14.688797,14.688797 0 0 1 7.17171,6.54189 3.3115823,3.3115823 0 0 1 0.16254,0.58918 c 1.56436,0.18285 1.82848,0.52823 1.93006,0.62981 a 4.0632911,4.0632911 0 0 1 0.81266,1.56437 1.5237342,1.5237342 0 0 1 0.58917,0 c 0.2438,0 0.54855,0.22348 0.99551,1.56437 a 1.6862658,1.6862658 0 0 1 0.77203,0 14.770063,14.770063 0 0 1 8.32974,4.99784 l 0.62981,0.77203 20.21488,10.78804 V 381.02895 Z m -86.97475,107.35215 a 14.587215,14.587215 0 0 1 -8.32975,4.97753 1.4831013,1.4831013 0 0 1 -0.77202,0 c -0.46728,1.32057 -0.73139,1.50342 -1.01582,1.56437 a 1.8081646,1.8081646 0 0 1 -0.56886,0 3.8601266,3.8601266 0 0 1 -0.81266,1.56437 c 0,0.12189 -0.3657,0.46727 -2.031647,0.62981 a 1.8487975,1.8487975 0 0 1 -0.16253,0.58917 14.607532,14.607532 0 0 1 -7.17171,6.56222 c -1.38152,0.56886 -8.12658,3.25063 -9.04082,2.03164 0,0 0,0 0,-0.12189 a 6.8872785,6.8872785 0 0 1 1.58468,-3.90076 h -1.44247 c -1.38151,-0.1219 -7.80151,-0.69076 -8.81734,-2.03165 a 0.60949367,0.60949367 0 0 1 -0.1219,-0.40633 c 0,-0.81266 2.72241,-2.94588 5.93241,-3.94139 a 1.605,1.605 0 0 1 -0.26412,-0.28443 0.73139241,0.73139241 0 0 1 -0.18284,-0.40633 1.6253165,1.6253165 0 0 1 0.89392,-1.27994 22.795063,22.795063 0 0 1 -4.06329,-3.59601 1.5440506,1.5440506 0 0 1 -0.42665,-1.01582 1.3205696,1.3205696 0 0 1 0.52823,-0.79234 9.2439873,9.2439873 0 0 1 5.81051,-0.79235 16.131266,16.131266 0 0 1 4.53057,2.03165 l -0.54855,-0.71108 c -0.85329,-1.15803 -1.34088,-2.31607 -1.03614,-2.88493 0.30475,-0.56886 2.03165,-0.91424 3.6976,-0.81266 -1.80817,-3.29127 -2.35671,-6.96855 -1.68627,-7.67962 1.05646,-1.15804 6.31842,2.78335 7.55772,3.94139 a 21.433861,21.433861 0 0 1 2.15355,2.58019 l 0.14221,0.20316 c -1.64563,-3.04746 -3.18968,-8.24848 -2.41765,-9.10177 a 1.1174051,1.1174051 0 0 1 0.8736,-0.34538 9.0205063,9.0205063 0 0 1 5.16038,2.60051 l 0.162537,0.14221 c -0.609497,-3.14905 -0.792347,-7.51708 0,-8.12658 0.79234,-0.60949 3.06778,1.17836 5.32291,3.5757 l 0.26411,0.34538 c 0.1219,0.16253 0.22348,0.34538 0.32506,0.50791 1.30026,-3.49443 2.03165,-3.35222 2.23481,-3.27095 a 1.7878481,1.7878481 0 0 1 0.85329,0.77203 13.368228,13.368228 0 0 1 2.03165,9.32525 8.1265823,8.1265823 0 0 1 5.07911,-0.67044 v 0.12189 a 0.77202532,0.77202532 0 0 1 0.14222,0.3657 c 0.40633,1.27994 -2.03165,4.89627 -4.36804,7.74057 z m 141.05715,11.74291 c -0.9955,1.3612 -7.4155,2.03165 -8.81734,2.03165 h -1.42215 c 1.07677,1.62531 1.80816,3.35221 1.56437,3.90076 v 0.1219 c -0.93456,1.27993 -7.65931,-1.40184 -9.04083,-2.03165 a 14.810696,14.810696 0 0 1 -7.1717,-6.56222 1.7675316,1.7675316 0 0 1 -0.14222,-0.58917 c -1.56437,-0.16253 -1.8488,-0.50791 -2.03165,-0.62981 a 3.6366456,3.6366456 0 0 1 -0.81265,-1.56437 2.0316456,2.0316456 0 0 1 -0.58918,0 c -0.26411,0 -0.54855,-0.2438 -0.99551,-1.56437 a 1.5237342,1.5237342 0 0 1 -0.77202,0 14.566899,14.566899 0 0 1 -8.35007,-4.97753 c -2.31607,-2.8443 -4.77436,-6.46063 -4.65246,-7.67962 a 1.0564557,1.0564557 0 0 1 0.14221,-0.3657 v -0.12189 a 8.1265823,8.1265823 0 0 1 5.09943,0.67044 13.46981,13.46981 0 0 1 2.03165,-9.32525 2.0316456,2.0316456 0 0 1 0.85329,-0.77203 c 0.30474,0 0.93456,-0.22348 2.23481,3.27095 0.1219,-0.16253 0.20316,-0.34538 0.34538,-0.50791 a 2.0316456,2.0316456 0 0 1 0.26411,-0.34538 c 2.23481,-2.39734 4.18519,-4.32741 5.3026,-3.5757 1.1174,0.75171 0.69076,4.95722 0,8.12659 l 0.14221,-0.14222 a 9.0611392,9.0611392 0 0 1 5.1807,-2.60051 1.1377215,1.1377215 0 0 1 0.87361,0.34538 c 0.77202,0.85329 -0.79235,6.09494 -2.41766,9.10178 a 0.60949367,0.60949367 0 0 1 0.14221,-0.20317 18.28481,18.28481 0 0 1 2.15355,-2.58019 c 1.2393,-1.15804 6.50126,-5.09943 7.55772,-3.94139 0.67044,0.71107 0.1219,4.38835 -1.70658,7.67962 1.70658,0 3.37253,0 3.71791,0.81266 0.34538,0.81266 -0.18285,1.7269 -1.05646,2.88493 a 8.3500633,8.3500633 0 0 1 -0.54854,0.71108 16.39538,16.39538 0 0 1 4.53057,-2.03165 9.3252532,9.3252532 0 0 1 5.79019,0.67045 1.2799367,1.2799367 0 0 1 0.50791,0.79234 1.605,1.605 0 0 1 -0.40633,1.01582 22.795063,22.795063 0 0 1 -4.06329,3.59601 c 0.46728,0.32507 0.91424,0.75171 0.87361,1.27994 a 0.69075949,0.69075949 0 0 1 -0.16254,0.40633 l -0.26411,0.28443 c 3.18968,0.99551 5.85114,3.12873 5.91209,3.94139 a 0.50791139,0.50791139 0 0 1 0.20316,0.46728 z"
       id="path3229"
       style="fill:#ffffff;stroke-width:2.03165" />
    <path
       class="cls-3"
       d="m 70.386793,486.55262 c 0,0 17.35025,19.95076 17.81753,37.05722 0,0.28443 0,0.56886 0,0.8736 l 52.253927,-59.89291 a 36.732152,36.732152 0 0 1 -9.28462,-10.56455 z"
       id="path3231"
       style="fill:#205f3d;stroke-width:2.03165" />
    <path
       class="cls-4"
       d="m 194.54065,454.14787 a 36.813418,36.813418 0 0 1 -9.36588,10.58488 l 52.1117,59.75069 a 6.5418987,6.5418987 0 0 0 0,-0.8736 c 0.4876,-17.10646 17.83785,-37.05722 17.83785,-37.05722 z"
       id="path3233"
       style="fill:#983029;stroke-width:2.03165" />
    <path
       d="m 102.01951,397.76971 0.83298,2.62082 -8.451647,2.64114 -0.69076,-2.19418 c 1.21899,-4.87595 1.90975,-7.86246 2.03165,-9.00019 a 5.6073418,5.6073418 0 0 0 0,-2.49892 1.7065823,1.7065823 0 0 0 -0.50791,-0.85329 0.75170886,0.75170886 0 0 0 -0.75171,0 0.69075949,0.69075949 0 0 0 -0.52823,0.52823 3.0271519,3.0271519 0 0 0 0.20316,1.44247 l 0.46728,1.46278 -3.4538,1.07677 -0.16253,-0.56886 a 11.072468,11.072468 0 0 1 -0.50791,-2.03164 3.7788608,3.7788608 0 0 1 0.18285,-1.68627 3.656962,3.656962 0 0 1 1.01582,-1.52373 5.5260759,5.5260759 0 0 1 1.88943,-0.99551 5.1400633,5.1400633 0 0 1 3.83981,0 4.0632911,4.0632911 0 0 1 2.03165,2.49893 7.2529747,7.2529747 0 0 1 0.20316,3.00683 57.617468,57.617468 0 0 1 -2.03164,7.47645 z m 42.66456,-15.19671 0.48759,5.36355 a 13.226013,13.226013 0 0 1 0,2.66145 4.0632911,4.0632911 0 0 1 -0.69076,1.64563 3.7991772,3.7991772 0 0 1 -1.42215,1.17836 5.7292405,5.7292405 0 0 1 -2.03164,0.48759 7.5374051,7.5374051 0 0 1 -2.41766,-0.1219 3.1490506,3.1490506 0 0 1 -1.605,-0.91424 4.0632911,4.0632911 0 0 1 -0.93456,-1.40183 9.3252532,9.3252532 0 0 1 -0.46728,-2.45829 l -0.48759,-5.60734 a 10.727089,10.727089 0 0 1 0,-3.35222 3.4131646,3.4131646 0 0 1 1.3612,-1.90975 5.3432278,5.3432278 0 0 1 2.70209,-0.89392 5.749557,5.749557 0 0 1 2.39734,0.2438 4.0632911,4.0632911 0 0 1 1.66595,0.9955 3.7991772,3.7991772 0 0 1 0.83298,1.44247 13.916772,13.916772 0 0 1 0.60949,2.64114 z m -4.06329,-0.9955 a 6.643481,6.643481 0 0 0 -0.26412,-1.605 0.56886076,0.56886076 0 0 0 -0.60949,-0.26412 0.5485443,0.5485443 0 0 0 -0.54854,0.38601 5.3432278,5.3432278 0 0 0 0,1.605 l 0.69076,7.84216 a 5.8308228,5.8308228 0 0 0 0.28443,1.66594 0.71107595,0.71107595 0 0 0 1.17835,-0.14221 5.9527215,5.9527215 0 0 0 0,-1.52373 z m 49.22677,1.62531 -0.42665,5.38386 a 12.372722,12.372722 0 0 1 -0.42664,2.64114 3.7788608,3.7788608 0 0 1 -0.95487,1.50342 3.4741139,3.4741139 0 0 1 -1.58469,0.91424 6.42,6.42 0 0 1 -2.03164,0.16253 7.9234177,7.9234177 0 0 1 -2.37703,-0.52823 3.3928481,3.3928481 0 0 1 -1.42215,-1.17835 4.368038,4.368038 0 0 1 -0.69076,-1.54405 9.4877848,9.4877848 0 0 1 0,-2.49893 l 0.46728,-5.60734 a 10.544241,10.544241 0 0 1 0.65012,-3.29126 3.2912658,3.2912658 0 0 1 1.66595,-1.64564 5.3838608,5.3838608 0 0 1 2.80367,-0.44696 5.6073418,5.6073418 0 0 1 2.3364,0.65013 4.0632911,4.0632911 0 0 1 1.46278,1.25962 3.8398101,3.8398101 0 0 1 0.58918,1.56437 14.973228,14.973228 0 0 1 -0.1219,2.66145 z m -3.90076,-1.66595 a 6.643481,6.643481 0 0 0 0,-1.62531 q 0,-0.34538 -0.54854,-0.3657 a 0.60949367,0.60949367 0 0 0 -0.62981,0.30475 5.3432278,5.3432278 0 0 0 -0.26412,1.56436 l -0.65012,7.86247 a 6.9279114,6.9279114 0 0 0 0,1.68627 0.71107595,0.71107595 0 0 0 1.17835,0 5.4244937,5.4244937 0 0 0 0.26411,-1.52374 z m 45.38696,18.28481 -0.79234,2.64114 -8.49228,-2.55987 0.67045,-2.19418 q 5.64797,-5.03848 6.78569,-6.27778 a 6.6637975,6.6637975 0 0 0 1.40184,-2.03165 1.8081646,1.8081646 0 0 0 0,-1.01582 0.87360759,0.87360759 0 0 0 -1.32057,-0.3657 3.1490506,3.1490506 0 0 0 -0.62981,1.30026 l -0.44696,1.48309 -3.4538,-1.05645 0.18285,-0.54854 a 10.645823,10.645823 0 0 1 0.7517,-2.03165 3.7788608,3.7788608 0 0 1 1.09709,-1.27994 3.3522152,3.3522152 0 0 1 1.70659,-0.69076 6.0949367,6.0949367 0 0 1 5.24164,2.43798 4.0632911,4.0632911 0 0 1 0.32506,3.23031 6.9888608,6.9888608 0 0 1 -1.52373,2.62083 60.096076,60.096076 0 0 1 -5.79019,5.09943 z"
       id="path3235"
       style="stroke-width:2.03165" />
    <path
       class="cls-2"
       d="m 157.72723,522.89876 a 0.60949367,0.60949367 0 0 0 0,-0.20316 0.71107595,0.71107595 0 0 0 -0.16253,-0.44697 5.6682911,5.6682911 0 0 0 3.0881,-0.83297 v 0 a 4.9165823,4.9165823 0 0 0 1.15804,-2.51924 0.48759494,0.48759494 0 0 0 0.34538,0 h 0.67044 a 0.48759494,0.48759494 0 0 0 0.40633,-0.2438 7.6389873,7.6389873 0 0 0 1.05646,-2.37702 0.65012658,0.65012658 0 0 0 0.48759,0.38601 c 1.46279,0.38601 8.47197,-1.93007 12.73842,-7.15139 4.26646,-5.22133 6.86696,-9.54874 6.70443,-10.93026 a 0.69075949,0.69075949 0 0 0 -0.48759,-0.60949 14.912278,14.912278 0 0 0 -7.43583,1.38152 v -0.32507 a 14.221519,14.221519 0 0 0 0.3657,-3.16936 19.788228,19.788228 0 0 0 -3.37253,-10.64583 l -0.67044,-0.73139 a 0.58917722,0.58917722 0 0 0 -0.87361,0 14.445,14.445 0 0 0 -2.55988,5.1807 8.2687975,8.2687975 0 0 0 -0.85329,-1.4831 l -0.34538,-0.44696 h -0.10158 c -4.18519,-4.46963 -6.09494,-5.79019 -7.19202,-5.09944 l -0.16254,0.14222 a 7.7405696,7.7405696 0 0 0 -0.54854,3.75854 40.957975,40.957975 0 0 0 1.11741,9.26431 10.747405,10.747405 0 0 0 -1.19868,-1.52374 c -2.03164,-1.88943 -5.34322,-3.83981 -7.31392,-3.73822 l -1.01582,0.40633 c -0.14222,0 0,0 -0.10158,0.14221 -0.77203,1.46279 2.03164,10.93025 4.6931,14.46532 l 0.85329,0.9955 0.28443,0.26412 a 0.83297468,0.83297468 0 0 0 0.71107,0.16253 v 0 a 1.0158228,1.0158228 0 0 0 0,0.2438 c 0,0 0,0.24379 0,0.28443 v 0 c 0,0 0,1.19867 0,1.93006 -1.17835,-1.8488 -2.45829,-3.73823 -3.59601,-5.28228 a 29.23538,29.23538 0 0 0 -3.14905,-3.79918 c -2.92557,-2.7224 -8.69544,-6.25746 -10.15823,-5.95272 a 0.67044304,0.67044304 0 0 0 -0.50791,0.38602 c -0.48759,1.01582 0,6.09493 2.98652,11.21468 v 0 c -2.8443,-0.28443 -5.24165,0 -5.72924,0.85329 v 0 a 1.3205696,1.3205696 0 0 0 0,0.40633 8.3703797,8.3703797 0 0 0 1.66595,3.49443 16.253165,16.253165 0 0 0 3.25063,3.27095 h 0.28443 a 1.0970886,1.0970886 0 0 0 0.18285,0.2438 l 0.46728,0.26411 -0.18285,0.1219 v 0 a 0.42664557,0.42664557 0 0 0 0,-0.14222 0.60949367,0.60949367 0 0 0 -0.28443,-0.38601 33.095506,33.095506 0 0 0 -9.83316,-5.0588 c -2.82399,-0.42664 -6.6638,-0.20316 -8.12659,0.91424 l -0.60949,0.87361 v 0.1219 c 0,0 0,0 0,0.14222 l 0.44696,0.89392 a 30.291835,30.291835 0 0 0 6.23715,5.50576 c 0,0 0,0 0.16254,0 -1.07678,0.60949 -1.62532,1.19867 -1.62532,1.78785 0,0.22348 0,0.32506 0.14221,0.46728 l 0.8533,0.77202 a 17.573734,17.573734 0 0 0 -8.93925,5.38386 0.67044304,0.67044304 0 0 0 0,0.79234 c 0.93456,1.05646 6.21684,2.19418 12.55557,2.70209 a 18.853671,18.853671 0 0 0 2.80368,0 14.221519,14.221519 0 0 0 -2.74273,5.68861 0.73139241,0.73139241 0 0 0 0.44697,0.67044 c 1.30025,0.52823 6.52158,-0.85329 12.41335,-3.29126 a 20.194557,20.194557 0 0 0 10.30044,-9.58937 z"
       id="path3237"
       style="fill:#1a507d;stroke-width:2.03165" />
    <path
       class="cls-2"
       d="m 204.86141,517.0273 c -0.95487,-1.05645 -6.23715,-2.19417 -12.55557,-2.68177 a 18.752089,18.752089 0 0 0 -2.80367,0 14.079304,14.079304 0 0 0 2.74272,-5.68861 0.73139241,0.73139241 0 0 0 -0.42664,-0.67044 c -1.30026,-0.54854 -6.5419,0.83298 -12.45399,3.29127 a 20.499304,20.499304 0 0 0 -10.48329,9.81285 0.58917722,0.58917722 0 0 0 0,0.18284 0.71107595,0.71107595 0 0 0 0.16253,0.44697 v 0 c -1.76753,0.14221 -2.82399,0.44696 -3.12873,0.8736 a 4.7946835,4.7946835 0 0 0 -1.15804,2.47861 0.71107595,0.71107595 0 0 0 -0.3657,0 h -0.62981 a 0.5485443,0.5485443 0 0 0 -0.48759,0.28443 8.5735443,8.5735443 0 0 0 -0.99551,2.35671 c 0,-0.2438 -0.22348,-0.34538 -0.50791,-0.40633 -1.46279,-0.38601 -8.49228,2.03165 -12.7181,7.15139 -3.88045,4.73374 -6.72475,9.32526 -6.72475,10.82867 v 0 a 0.69075949,0.69075949 0 0 0 0.50791,0.6095 15.115443,15.115443 0 0 0 7.43582,-1.38152 v 0.14221 a 18.670823,18.670823 0 0 0 3.00684,13.99804 l 0.65013,0.73139 c 0.26411,0.28443 0.56886,0.20317 0.8736,0 a 14.526266,14.526266 0 0 0 2.58019,-5.20101 l 0.83298,1.46279 0.32506,0.42664 c 5.3026,5.72924 6.5419,5.70893 7.31393,5.24165 a 0.5485443,0.5485443 0 0 0 0.16253,-0.14222 7.578038,7.578038 0 0 0 0.54854,-3.71791 42.298861,42.298861 0 0 0 -1.09709,-9.28462 8.7767089,8.7767089 0 0 0 1.15804,1.4831 c 2.03165,1.90975 5.42449,3.83981 7.33424,3.73823 l 0.97519,-0.3657 c 0.16253,0 0,0 0.14222,-0.18284 0.77202,-1.44247 -2.03165,-10.93026 -4.67279,-14.46532 l -0.85329,-0.95487 -0.34538,-0.30475 a 0.75170886,0.75170886 0 0 0 -0.71108,-0.1219 v 0 a 0.73139241,0.73139241 0 0 0 0,-0.22348 v -0.1219 -2.03165 c 1.17836,1.80817 2.39735,3.61633 3.59602,5.24165 a 33.258038,33.258038 0 0 0 3.12873,3.77886 c 2.94589,2.72241 8.71576,6.27779 10.15823,6.09494 a 0.79234177,0.79234177 0 0 0 0.50791,-0.40633 2.8646203,2.8646203 0 0 0 0.18285,-1.21899 21.49481,21.49481 0 0 0 -2.9662,-9.95506 c 2.88493,0.28443 5.28228,0 5.74955,-0.87361 v 0 a 1.0361392,1.0361392 0 0 0 0.10159,-0.44696 8.3703797,8.3703797 0 0 0 -1.66595,-3.47412 15.846835,15.846835 0 0 0 -3.27095,-3.27094 h -0.20317 v 0 a 1.0158228,1.0158228 0 0 0 -0.28443,-0.30475 l -0.40633,-0.22348 0.18285,-0.1219 c 0,0 0,0 0,0 l 0.10158,0.18285 a 1.1783544,1.1783544 0 0 0 0.28443,0.34538 33.258038,33.258038 0 0 0 9.79254,5.05879 c 2.82398,0.42665 6.66379,0.20317 8.12658,-0.91424 l 0.60949,-0.83297 c 0,-0.10158 0.1219,-0.1219 0.1219,-0.16253 0,-0.0406 0,0 -0.10158,-0.16253 l -0.44696,-0.87361 a 30.474684,30.474684 0 0 0 -6.23716,-5.50576 c 0,0 0,0 -0.14221,0 1.25962,-0.75171 1.52373,-1.30025 1.605,-1.64563 a 0.83297468,0.83297468 0 0 0 0,-0.22349 0.50791139,0.50791139 0 0 0 -0.18285,-0.40632 l -0.83297,-0.75171 a 17.776899,17.776899 0 0 0 8.93924,-5.38386 0.71107595,0.71107595 0 0 0 -0.0813,-1.13773 z"
       id="path3239"
       style="fill:#1a507d;stroke-width:2.03165" />
    <path
       class="cls-1"
       d="m 140.53951,464.59053 -52.253917,59.89291 c 0.52823,4.59152 4.06329,10.54424 9.58936,16.88298 L 144.6028,467.2723 v 0 a 37.626076,37.626076 0 0 1 -4.06329,-2.68177 z"
       id="path3241"
       style="fill:#ffffff;stroke-width:2.03165" />
    <path
       class="cls-1"
       d="m 185.13413,464.73275 a 37.219747,37.219747 0 0 1 -4.06329,2.66145 l 46.72785,73.9519 c 5.46513,-6.31842 9.06114,-12.18987 9.56905,-16.86266 z"
       id="path3243"
       style="fill:#ffffff;stroke-width:2.03165" />
    <path
       class="cls-3"
       d="m 98.484453,467.33325 a 0.65012658,0.65012658 0 0 0 0,-0.28443 c 1.584677,-0.16253 1.869107,-0.50791 2.031637,-0.62981 a 4.0632911,4.0632911 0 0 0 0.81266,-1.56436 v 0 h 0.52823 a 0.46727848,0.46727848 0 0 0 0.40633,-0.22349 4.3274051,4.3274051 0 0 0 0.65013,-1.3612 0.38601266,0.38601266 0 0 0 0.16253,0 c 1.17835,0.30475 6.09493,-1.34088 8.93924,-4.95721 2.31607,-2.84431 4.75405,-6.46064 4.63215,-7.63899 a 0.75170886,0.75170886 0 0 0 -0.48759,-0.60949 9.9550633,9.9550633 0 0 0 -4.85564,0.79234 9.6909494,9.6909494 0 0 0 0.22348,-2.03165 13.612025,13.612025 0 0 0 -2.35671,-7.39519 l -0.52822,-0.56886 c -0.2438,-0.26411 -0.56886,-0.18285 -0.85329,0 a 9.2439873,9.2439873 0 0 0 -1.64564,3.18969 l -0.34538,-0.6095 -0.24379,-0.32506 c -3.10842,-3.31158 -4.36804,-4.16488 -5.28228,-3.59601 a 0.5485443,0.5485443 0 0 0 -0.16253,0.14221 5.4244937,5.4244937 0 0 0 -0.446967,2.74272 30.068354,30.068354 0 0 0 0.528227,5.3026 1.828481,1.828481 0 0 0 -0.18285,-0.20317 9.4268354,9.4268354 0 0 0 -5.160377,-2.62082 l -0.85329,0.3657 v 0 c 0,0 0,0 0,0 v 0 a 1.7675316,1.7675316 0 0 0 0,0.67044 24.643861,24.643861 0 0 0 2.70209,8.49228 l -0.2438,-0.3657 a 19.54443,19.54443 0 0 0 -2.17386,-2.62082 c -1.86911,-1.7269 -5.97304,-4.36804 -7.15139,-4.06329 a 0.69075949,0.69075949 0 0 0 -0.50791,0.40633 2.0316456,2.0316456 0 0 0 -0.14222,0.89392 15.135759,15.135759 0 0 0 2.03165,6.58253 c -1.62532,-0.10158 -3.29127,0 -3.6976,0.73139 a 1.1986709,1.1986709 0 0 0 0,0.46728 5.3432278,5.3432278 0 0 0 0.77203,2.68178 v 0 c 0.16253,0.20316 0.34538,0.44696 0.58918,0.71107 a 16.517278,16.517278 0 0 0 -4.63216,-2.03164 9.2643038,9.2643038 0 0 0 -5.74955,0.67044 c 0,0 -0.52823,0.73139 -0.52823,0.73139 0,0 -0.10158,0 0,0.28443 l 0.34538,0.69076 a 20.113291,20.113291 0 0 0 4.06329,3.65696 c -0.60949,0.40633 -0.91424,0.81266 -0.91424,1.23931 a 0.42664557,0.42664557 0 0 0 0.16253,0.42664 l 0.32507,0.30475 a 11.742911,11.742911 0 0 0 -5.85114,3.59601 0.71107595,0.71107595 0 0 0 0,0.81266 c 0.79234,0.89392 5.07911,1.62532 8.73607,1.90975 h 1.4831 a 9.406519,9.406519 0 0 0 -1.66595,3.63664 0.71107595,0.71107595 0 0 0 0.44697,0.67045 c 1.1174,0.46727 5.28227,-0.83298 8.65481,-2.23481 a 14.058987,14.058987 0 0 0 7.43582,-6.86697 z"
       id="path3245"
       style="fill:#205f3d;stroke-width:2.03165" />
    <path
       class="cls-3"
       d="m 121.88901,461.218 h -1.50342 a 9.2236709,9.2236709 0 0 0 1.68626,-3.63665 0.75170886,0.75170886 0 0 0 -0.44696,-0.67044 c -1.1174,-0.46728 -5.28228,0.83298 -8.67512,2.23481 a 14.221519,14.221519 0 0 0 -7.2733,6.82633 0.77202532,0.77202532 0 0 0 0,0.30475 c -1.62531,0.18285 -1.90974,0.52823 -2.03164,0.67044 a 3.6163291,3.6163291 0 0 0 -0.77203,1.52374 h -0.50791 a 0.58917722,0.58917722 0 0 0 -0.52823,0.32506 4.5712025,4.5712025 0 0 0 -0.56886,1.25962 h -0.18285 a 13.286962,13.286962 0 0 0 -8.918917,4.97753 c -2.39734,2.90525 -4.75405,6.46063 -4.65247,7.61867 a 0.77202532,0.77202532 0 0 0 0.50791,0.62981 9.8941139,9.8941139 0 0 0 4.83532,-0.81266 13.12443,13.12443 0 0 0 2.15354,9.42684 c 0,0 0.50792,0.54854 0.50792,0.54854 0,0 0.56886,0.20317 0.8736,0 a 9.2439873,9.2439873 0 0 0 1.64564,-3.18968 c 0.18284,0.30475 0.32506,0.58918 0.34538,0.58918 l 0.24379,0.34538 c 3.372537,3.63664 4.489937,4.06329 5.261967,3.59601 l 0.18284,-0.14222 a 5.3432278,5.3432278 0 0 0 0.44697,-2.7224 30.474684,30.474684 0 0 0 -0.54855,-5.34323 l 0.20317,0.22348 a 9.3252532,9.3252532 0 0 0 5.14006,2.62082 l 0.83297,-0.32506 c 0.16254,0 0,0 0.1219,-0.18285 0.54855,-1.01582 -0.9955,-6.21683 -2.53955,-9.06114 l 0.18284,0.28443 a 21.251013,21.251013 0 0 0 2.17386,2.60051 c 1.86912,1.74722 6.09494,4.38836 7.17171,4.06329 a 0.71107595,0.71107595 0 0 0 0.50792,-0.38601 2.5598734,2.5598734 0 0 0 0.14221,-0.93456 15.07481,15.07481 0 0 0 -2.03165,-6.58253 c 1.66595,0.1219 3.3319,0 3.71792,-0.75171 a 1.0361392,1.0361392 0 0 0 0,-0.44696 5.3025949,5.3025949 0 0 0 -1.15804,-2.51924 v 0 c -0.16253,-0.20317 -0.3657,-0.46728 -0.6095,-0.73139 a 16.923608,16.923608 0 0 0 4.63216,2.03164 9.406519,9.406519 0 0 0 5.74955,-0.67044 c 0,0 0.52823,-0.71108 0.52823,-0.71108 0,0 0.1219,0 0,-0.30474 l -0.34538,-0.69076 a 21.068165,21.068165 0 0 0 -4.06329,-3.67728 2.0316456,2.0316456 0 0 0 0.89392,-1.07677 0.91424051,0.91424051 0 0 0 0,-0.22348 0.50791139,0.50791139 0 0 0 -0.16253,-0.38602 l -0.32506,-0.26411 a 11.783544,11.783544 0 0 0 5.87146,-3.6976 0.71107595,0.71107595 0 0 0 -0.1219,-0.79234 c -0.67045,-0.77202 -4.95722,-1.4831 -8.59386,-1.76753 z"
       id="path3247"
       style="fill:#205f3d;stroke-width:2.03165" />
    <path
       class="cls-4"
       d="m 252.97078,470.21819 a 0.79234177,0.79234177 0 0 0 0.10158,-0.81266 11.844494,11.844494 0 0 0 -5.87146,-3.67728 l 0.32507,-0.30474 a 0.46727848,0.46727848 0 0 0 0.14221,-0.42665 c 0,-0.42664 -0.28443,-0.81266 -0.89392,-1.2393 a 20.438354,20.438354 0 0 0 4.06329,-3.65696 l 0.34538,-0.69076 c 0,-0.14222 0.10158,-0.14222 0.10158,-0.16254 l -0.10158,-0.12189 -0.50791,-0.7314 a 9.3455696,9.3455696 0 0 0 -5.76988,-0.67044 16.720443,16.720443 0 0 0 -4.61183,2.03165 l 0.58918,-0.71108 a 5.5463924,5.5463924 0 0 0 1.17835,-2.53956 0.79234177,0.79234177 0 0 0 0,-0.36569 c -0.42664,-0.65013 -2.03164,-0.83298 -3.69759,-0.71108 a 12.189873,12.189873 0 0 0 1.84879,-7.49677 0.69075949,0.69075949 0 0 0 -0.50791,-0.40633 c -1.17835,-0.2438 -5.30259,2.39734 -7.17171,4.06329 a 23.302975,23.302975 0 0 0 -2.17386,2.62082 l -0.24379,0.3657 c 1.56436,-2.8443 3.14905,-8.12658 2.6005,-9.16272 0,-0.14222 0,0 0,-0.1219 l -0.85329,-0.3657 a 9.4877848,9.4877848 0 0 0 -5.16038,2.62083 l -0.18285,0.20316 a 28.321139,28.321139 0 0 0 0.54855,-5.30259 5.4244937,5.4244937 0 0 0 -0.44697,-2.74273 l -0.18284,-0.14221 c -0.89393,-0.56886 -2.17386,0.28443 -5.22133,3.55538 l -0.32507,0.38601 v 0 l -0.30474,0.56886 a 9.6909494,9.6909494 0 0 0 -1.64564,-3.16937 c -0.30474,-0.22348 -0.60949,-0.30474 -0.8736,0 l -0.52823,0.56887 a 13.774557,13.774557 0 0 0 -2.35671,7.39519 9.7112658,9.7112658 0 0 0 0.2438,2.03164 10.158228,10.158228 0 0 0 -4.85564,-0.79234 0.73139241,0.73139241 0 0 0 -0.48759,0.60949 c -0.14222,1.17836 2.29576,4.79469 4.63215,7.63899 2.92557,3.61633 7.76089,5.26196 8.91893,4.95722 h 0.18284 a 4.0632911,4.0632911 0 0 0 0.62981,1.3612 0.50791139,0.50791139 0 0 0 0.42665,0.22348 h 0.52823 v 0 a 3.8194937,3.8194937 0 0 0 0.77202,1.58468 v 0 c 0,0.1219 0.38602,0.46728 2.03165,0.62981 a 0.67044304,0.67044304 0 0 0 0,0.28443 14.221519,14.221519 0 0 0 7.27329,6.84665 v 0 c 3.39285,1.40183 7.5374,2.70209 8.65481,2.23481 a 0.73139241,0.73139241 0 0 0 0.46728,-0.67044 9.2236709,9.2236709 0 0 0 -1.68627,-3.63665 h 1.50342 c 3.4538,-0.32506 7.76089,-1.05646 8.55323,-1.95038 z"
       id="path3249"
       style="fill:#983029;stroke-width:2.03165" />
    <path
       class="cls-4"
       d="m 234.34059,475.01287 v 0 a 13.327595,13.327595 0 0 0 -8.91893,-4.97753 h -0.18284 a 5.4244937,5.4244937 0 0 0 -0.56887,-1.25962 0.62981013,0.62981013 0 0 0 -0.52822,-0.32506 h -0.40633 a 4.0632911,4.0632911 0 0 0 -0.79234,-1.54405 c -0.1219,-0.14222 -0.40633,-0.4876 -2.03165,-0.65013 0,0 0,0 0,-0.1219 a 0.58917722,0.58917722 0 0 0 0,-0.18285 14.221519,14.221519 0 0 0 -7.25297,-6.82632 v 0 c -3.41317,-1.40184 -7.57804,-2.70209 -8.67513,-2.23481 a 0.73139241,0.73139241 0 0 0 -0.44696,0.67044 9.406519,9.406519 0 0 0 1.66595,3.63664 h -1.50342 c -3.61633,0.28443 -7.9031,0.99551 -8.71576,1.90975 a 0.71107595,0.71107595 0 0 0 -0.1219,0.79234 11.86481,11.86481 0 0 0 5.87146,3.6976 l -0.30475,0.26411 a 0.52822785,0.52822785 0 0 0 -0.18285,0.38601 1.0564557,1.0564557 0 0 0 0,0.22349 1.8691139,1.8691139 0 0 0 0.87361,1.07677 20.905633,20.905633 0 0 0 -4.06329,3.65696 v 0 l -0.34538,0.69076 c 0,0.1219 0,0.14221 0,0.16253 0,0.0203 0,0 0,0.14222 l 0.48759,0.69076 a 9.3862025,9.3862025 0 0 0 5.76988,0.69075 16.984557,16.984557 0 0 0 4.65246,-2.03164 c -0.24379,0.26411 -0.44696,0.52823 -0.60949,0.73139 a 5.4244937,5.4244937 0 0 0 -1.17835,2.51924 0.91424051,0.91424051 0 0 0 0,0.40633 c 0.38601,0.69076 2.03164,0.87361 3.69759,0.75171 a 11.925759,11.925759 0 0 0 -1.8488,7.51709 0.71107595,0.71107595 0 0 0 0.50792,0.38601 c 1.15803,0.2438 5.28227,-2.39734 7.1717,-4.06329 a 25.659684,25.659684 0 0 0 2.15355,-2.62082 l 0.22348,-0.32507 c -1.56437,2.86462 -3.10842,8.12659 -2.58019,9.10178 0,0.16253 0,0.12189 0.14222,0.18284 l 0.83297,0.32507 a 9.3658861,9.3658861 0 0 0 5.14006,-2.64114 1.828481,1.828481 0 0 0 0.18285,-0.20317 30.698165,30.698165 0 0 0 -0.52823,5.34323 5.3432278,5.3432278 0 0 0 0.44697,2.72241 0.5485443,0.5485443 0 0 0 0.16253,0.14221 c 0.79234,0.4876 1.88943,0 5.26196,-3.61633 l 0.30475,-0.38601 0.28443,-0.50791 a 9.6909494,9.6909494 0 0 0 1.66595,3.16937 c 0.30474,0.22348 0.60949,0.30474 0.8736,0 l 0.50791,-0.54855 a 13.12443,13.12443 0 0 0 2.15355,-9.42683 9.8941139,9.8941139 0 0 0 4.83532,0.81265 0.75170886,0.75170886 0 0 0 0.48759,-0.62981 v 0 c 0,-1.2393 -2.29576,-4.6931 -4.63215,-7.5374 z"
       id="path3251"
       style="fill:#983029;stroke-width:2.03165" />
    <path
       class="cls-5"
       d="m 108.21603,441.51104 a 2.3160759,2.3160759 0 0 1 0.3657,0.38601 12.393038,12.393038 0 0 1 2.03164,9.14241 v 0.14221 a 13.043165,13.043165 0 0 0 -3.00683,1.88943 18.508291,18.508291 0 0 0 -0.87361,-8.12658 9.8737975,9.8737975 0 0 1 1.4831,-3.43348 z m -10.442657,13.65266 0.52823,0.58917 0.20317,0.18285 c 0.65012,-2.90525 3.839807,-8.00468 5.079107,-7.9031 1.2393,0.10158 1.68626,2.94589 1.42215,5.64798 0,0.83297 -0.26411,2.03164 -0.50791,3.39284 a 21.535443,21.535443 0 0 1 2.03165,-2.8443 l 0.30474,-0.34538 a 18.853671,18.853671 0 0 0 -0.93456,-8.61418 v 0 0 a 5.5870253,5.5870253 0 0 0 -0.65012,-1.17835 2.2957595,2.2957595 0 0 0 -0.20317,-0.26412 c -0.91424,-0.95487 -3.63664,-3.90076 -4.34772,-3.47411 a 20.824367,20.824367 0 0 0 0.65013,9.12209 0.34537975,0.34537975 0 0 1 -0.20317,0.42664 0.3656962,0.3656962 0 0 1 -0.46727,-0.12189 8.4516456,8.4516456 0 0 0 -1.117407,-1.52374 8.6344937,8.6344937 0 0 0 -4.63215,-2.41766 0.50791139,0.50791139 0 0 0 -0.34538,0.1219 21.433861,21.433861 0 0 0 3.18968,9.20336 z m -8.59386,0.22348 v 0 a 17.695633,17.695633 0 0 1 5.01817,1.44247 c 1.40183,0.62981 3.0881,1.66595 3.39284,3.21 a 2.7833544,2.7833544 0 0 1 0,0.71107 v 0 l 0.8533,0.30475 a 15.745253,15.745253 0 0 1 -0.22349,-2.03165 0.42664557,0.42664557 0 0 1 0.14222,-0.30474 v 0 0 c -0.89392,-1.44247 -1.82848,-2.80367 -2.66146,-3.92108 a 22.002722,22.002722 0 0 0 -2.03164,-2.51924 17.268987,17.268987 0 0 0 -6.52158,-3.94139 12.291456,12.291456 0 0 0 1.93006,7.04981 z m -2.88493,3.29126 a 9.5284177,9.5284177 0 0 0 2.03164,2.13323 v 0 a 0.26411392,0.26411392 0 0 1 0.20317,0.20317 l 0.62981,0.36569 a 10.361392,10.361392 0 0 0 6.74506,0.83298 2.3770253,2.3770253 0 0 0 0.85329,-2.03165 c -0.18285,-0.95487 -1.2393,-1.90975 -2.94589,-2.66145 a 18.28481,18.28481 0 0 0 -4.815,-1.40184 0.40632911,0.40632911 0 0 1 -0.22348,0 5.8105063,5.8105063 0 0 0 -3.67728,0.32506 v 0 a 3.8601266,3.8601266 0 0 0 1.09709,2.23481 z m -5.83083,4.63216 v 0 a 11.763228,11.763228 0 0 1 4.22583,-1.09709 13.835506,13.835506 0 0 1 3.90075,0.65012 3.7585443,3.7585443 0 0 1 -0.54854,-1.05645 23.973418,23.973418 0 0 0 -6.50127,-3.37253 8.8173418,8.8173418 0 0 0 -5.22132,0.54854 0.44696203,0.44696203 0 0 0 -0.22349,0.28443 1.0361392,1.0361392 0 0 0 0.20317,0.40633 20.600886,20.600886 0 0 0 4.06329,3.63665 z m -0.75171,1.70658 a 2.6208228,2.6208228 0 0 0 0.62981,0.56886 c 0,0 0,0 0,0 0,0 0,0 0,0 v 0 a 21.413544,21.413544 0 0 0 8.93924,3.37253 16.253165,16.253165 0 0 0 7.09045,-2.03165 10.869304,10.869304 0 0 1 -3.59602,-0.69076 9.8941139,9.8941139 0 0 1 -3.59601,-2.62082 h -0.16253 a 15.399873,15.399873 0 0 0 -4.42899,-0.87361 11.58038,11.58038 0 0 0 -3.94139,1.03614 v 0 a 0.38601266,0.38601266 0 0 1 -0.14221,0.1219 c -0.91425,0.52823 -0.99551,0.81266 -0.99551,0.89393 z m 18.28481,2.03164 h -0.54854 c -0.30475,1.70659 -6.82633,2.62083 -7.82184,2.70209 -2.21449,0.16253 -7.25297,-2.03164 -9.42683,-3.51475 v 0 a 11.722595,11.722595 0 0 0 -5.81051,3.43349 c 0.40633,0.46727 3.47412,1.27993 8.22817,1.66595 a 12.311772,12.311772 0 0 0 2.03164,0 0.38601266,0.38601266 0 0 1 0.32507,0.16253 v 0 a 0.3656962,0.3656962 0 0 1 0,0.40633 9.7925316,9.7925316 0 0 0 -1.90975,3.79917 c 0.56886,0.2438 3.65696,-0.40633 8.12658,-2.23481 a 13.571392,13.571392 0 0 0 6.58253,-6.31841 z m 2.823987,-2.74272 c 0,0 0,0 0,0 v 0 c 0,-1.09709 -1.218987,-2.03164 -3.250627,-2.78335 v 0 a 4.0632911,4.0632911 0 0 1 -0.89393,1.25962 c -0.81265,0.83297 -5.11974,0.58917 -7.61867,-0.69076 v 0 a 9.6096835,9.6096835 0 0 0 4.26646,3.73823 12.189873,12.189873 0 0 0 4.6931,0.62981 0.22348101,0.22348101 0 0 1 0.14222,0 4.0632911,4.0632911 0 0 0 2.031637,-0.40633 2.6411392,2.6411392 0 0 0 0.42665,-1.64564 z m 1.86911,-2.31607 a 9.0611392,9.0611392 0 0 1 0.56887,-2.2145 53.351013,53.351013 0 0 0 1.09708,-6.25747 7.9843671,7.9843671 0 0 0 -0.52822,-4.67278 0.44696203,0.44696203 0 0 0 -0.20317,-0.16253 16.375063,16.375063 0 0 0 -4.368037,7.80152 v 0 c 0,0.50791 0,1.09708 0,1.70658 a 0.40632911,0.40632911 0 0 1 -0.14221,0.30475 0.34537975,0.34537975 0 0 1 0.14221,0.28443 11.905443,11.905443 0 0 0 0.30475,2.53955 3.433481,3.433481 0 0 1 2.031647,2.62083 h 0.32506 a 6.4606329,6.4606329 0 0 0 0.56886,-1.8488 z m 13.40887,-11.31627 a 10.462975,10.462975 0 0 0 -4.95722,1.03614 v 0 a 10.341076,10.341076 0 0 0 -4.06329,2.88494 20.418038,20.418038 0 0 0 -3.21,5.48544 c -0.16253,0.77202 -0.34538,1.50342 -0.52823,2.15354 a 2.0316456,2.0316456 0 0 0 0,0.3657 13.205696,13.205696 0 0 0 8.12658,-4.71342 c 2.98652,-3.71791 4.59152,-6.50126 4.42899,-7.09044 z m -18.284807,37.68703 a 18.28481,18.28481 0 0 1 -0.89393,-8.12659 12.433671,12.433671 0 0 1 -2.98652,1.86912 v 0.16253 a 12.189873,12.189873 0 0 0 2.03165,9.1424 2.4786076,2.4786076 0 0 0 0.34538,0.38602 9.2846203,9.2846203 0 0 0 1.25962,-3.3319 z m 8.939237,-10.28013 a 5.3229114,5.3229114 0 0 0 -0.52823,-0.58918 l -0.22348,-0.18285 c -0.62981,2.90526 -3.8195,8.00469 -5.0588,7.9031 -1.239297,-0.10158 -1.686267,-2.94588 -1.422147,-5.66829 0,-0.81265 0.26411,-2.03164 0.507907,-3.37253 a 21.738608,21.738608 0 0 1 -2.031647,2.84431 l -0.30474,0.34538 a 19.300633,19.300633 0 0 0 0.69076,8.59386 c 0,0 0,0 0,0 a 7.1717089,7.1717089 0 0 0 0.67044,1.15803 0.83297468,0.83297468 0 0 0 0.20316,0.26412 c 0.893927,0.97519 3.636647,3.92107 4.347727,3.47411 a 21.047848,21.047848 0 0 0 -0.65013,-9.10177 0.3656962,0.3656962 0 0 1 0.18285,-0.44696 0.34537975,0.34537975 0 0 1 0.46728,0.14221 9.3252532,9.3252532 0 0 0 1.1174,1.50342 8.7970253,8.7970253 0 0 0 4.65247,2.43798 0.50791139,0.50791139 0 0 0 0.34538,-0.1219 21.352595,21.352595 0 0 0 -3.21,-9.08146 z m 8.57354,-0.22348 v 0 a 17.817532,17.817532 0 0 1 -4.99785,-1.46279 c -1.40183,-0.60949 -3.10842,-1.66595 -3.39285,-3.18968 a 2.2144937,2.2144937 0 0 1 0,-0.73139 v 0 l -0.83297,-0.32507 a 13.307278,13.307278 0 0 1 0.20316,2.03165 0.32506329,0.32506329 0 0 1 -0.14221,0.30475 v 0 0 c 0.91424,1.44246 1.8488,2.78335 2.66145,3.90076 a 20.600886,20.600886 0 0 0 2.03165,2.51924 17.573734,17.573734 0 0 0 6.5419,4.06329 12.189873,12.189873 0 0 0 -2.31608,-7.00918 z m 2.76304,-3.18969 a 9.5284177,9.5284177 0 0 0 -2.03165,-2.03164 v 0 a 0.3656962,0.3656962 0 0 1 -0.22348,-0.20317 4.8353165,4.8353165 0 0 0 -0.60949,-0.36569 10.361392,10.361392 0 0 0 -6.74507,-0.83298 2.3973418,2.3973418 0 0 0 -0.8736,2.03165 c 0.18285,0.95487 1.2393,1.88943 2.98652,2.66145 a 17.065823,17.065823 0 0 0 4.77436,1.38152 h 0.22348 c 2.31608,0.26412 3.55538,-0.1219 3.67728,-0.34538 v 0 a 4.0632911,4.0632911 0 0 0 -1.17835,-2.29576 z m 5.8105,-4.65246 a 12.189873,12.189873 0 0 1 -4.22582,1.09708 13.205696,13.205696 0 0 1 -3.88044,-0.67044 6.643481,6.643481 0 0 1 0.54854,1.05646 22.551266,22.551266 0 0 0 6.50127,3.37253 8.6141772,8.6141772 0 0 0 5.20101,-0.52823 0.79234177,0.79234177 0 0 0 0.2438,-0.28443 1.0361392,1.0361392 0 0 0 -0.22348,-0.40633 20.560253,20.560253 0 0 0 -4.26646,-3.63664 z m 0.77203,-1.70659 a 2.6208228,2.6208228 0 0 0 -0.62981,-0.56886 v 0 c 0,0 0,0 0,0 a 22.043354,22.043354 0 0 0 -8.95956,-3.39285 17.126772,17.126772 0 0 0 -7.11076,2.03165 12.189873,12.189873 0 0 1 3.61633,0.69076 10.158228,10.158228 0 0 1 3.59602,2.64114 h 0.14221 a 15.785886,15.785886 0 0 0 4.42899,0.89392 11.702278,11.702278 0 0 0 4.06329,-1.03614 v 0 l 0.14221,-0.1219 c 0.89393,-0.50791 0.97519,-0.79234 0.99551,-0.8736 z m -18.28481,-2.13322 h 0.54854 c 0.28443,-1.70659 6.80602,-2.62083 7.82184,-2.70209 2.21449,-0.18285 7.23266,2.03164 9.42684,3.51474 v 0 a 11.966392,11.966392 0 0 0 5.83082,-3.43348 21.271329,21.271329 0 0 0 -8.22817,-1.66595 10.727089,10.727089 0 0 0 -2.03164,0 0.42664557,0.42664557 0 0 1 -0.32507,-0.16253 c 0,0 0,0 0,0 a 0.3656962,0.3656962 0 0 1 0,-0.40633 9.4877848,9.4877848 0 0 0 1.93007,-3.77886 c -0.56886,-0.2438 -3.67728,0.38601 -8.12658,2.23481 a 13.551076,13.551076 0 0 0 -6.84665,6.39969 z m -2.8443,2.74272 v 0.16253 c 0,1.07677 1.19867,2.03164 3.25063,2.78335 v 0 a 4.7946835,4.7946835 0 0 1 0.87361,-1.27993 c 0.81265,-0.81266 5.11974,-0.58918 7.61867,0.69076 v 0 a 9.7722152,9.7722152 0 0 0 -4.24614,-3.71792 12.352405,12.352405 0 0 0 -4.6931,-0.62981 h -0.16253 a 4.0632911,4.0632911 0 0 0 -2.03165,0.42665 2.9458861,2.9458861 0 0 0 -0.60949,1.56437 z m -1.8488,2.31607 a 9.9550633,9.9550633 0 0 1 -0.56886,2.23481 58.917722,58.917722 0 0 0 -1.11741,6.25747 8.4110127,8.4110127 0 0 0 0.52823,4.67279 0.44696203,0.44696203 0 0 0 0.20317,0.16253 16.253165,16.253165 0 0 0 4.38835,-7.82184 v 0 0 c 0,-0.48759 0,-1.07677 0,-1.70658 a 0.38601266,0.38601266 0 0 1 0.14221,-0.28443 0.34537975,0.34537975 0 0 1 -0.14221,-0.28443 13.083797,13.083797 0 0 0 -0.32506,-2.53956 3.433481,3.433481 0 0 1 -2.03165,-2.62082 h -0.34538 a 7.7202532,7.7202532 0 0 0 -0.73139,1.93006 z M 88.265273,482.5706 a 10.666139,10.666139 0 0 0 4.95722,-1.03614 v 0 a 10.442658,10.442658 0 0 0 4.06329,-2.90526 19.666329,19.666329 0 0 0 3.149047,-5.38386 c 0.18285,-0.75171 0.36569,-1.4831 0.54854,-2.03164 a 1.5643671,1.5643671 0 0 0 0,-0.3657 13.083797,13.083797 0 0 0 -8.126577,4.71342 c -3.21,3.67728 -4.65247,6.39968 -4.59152,7.00918 z"
       id="path3253"
       style="fill:#f3d4e5;stroke-width:2.03165" />
    <path
       class="cls-5"
       d="m 219.89559,444.88357 a 18.813038,18.813038 0 0 0 -0.87361,8.12658 12.49462,12.49462 0 0 0 -2.98652,-1.88943 v -0.14221 a 12.189873,12.189873 0 0 1 2.03165,-9.14241 1.7472152,1.7472152 0 0 1 0.34538,-0.38601 9.8737975,9.8737975 0 0 1 1.4831,3.43348 z m 12.18987,0.93456 a 0.5485443,0.5485443 0 0 0 -0.34538,-0.1219 8.6344937,8.6344937 0 0 0 -4.63215,2.41766 7.578038,7.578038 0 0 0 -1.11741,1.52373 0.38601266,0.38601266 0 0 1 -0.48759,0.1219 0.34537975,0.34537975 0 0 1 -0.18285,-0.42665 21.047848,21.047848 0 0 0 0.62981,-9.12208 c -0.69076,-0.42665 -3.43348,2.51924 -4.3274,3.47411 l -0.22348,0.26411 a 6.6637975,6.6637975 0 0 0 -0.65013,1.17836 c 0,0 0,0 0,0 v 0 a 19.422532,19.422532 0 0 0 -0.69076,8.61417 2.4786076,2.4786076 0 0 1 0.30475,0.34538 21.738608,21.738608 0 0 1 2.03164,2.84431 30.799747,30.799747 0 0 1 -0.50791,-3.39285 c -0.26411,-2.70209 0.14222,-5.52608 1.42215,-5.64797 1.27994,-0.1219 4.42899,4.99784 5.07912,7.9031 l 0.18284,-0.18285 a 3.7382278,3.7382278 0 0 0 0.52823,-0.58918 21.251013,21.251013 0 0 0 2.90526,-9.20335 z m 7.47646,2.39734 a 17.268987,17.268987 0 0 0 -6.52159,3.94139 21.677658,21.677658 0 0 0 -2.03164,2.51924 c -0.81266,1.11741 -1.74722,2.47861 -2.64114,3.92108 v 0 0 a 0.38601266,0.38601266 0 0 1 0.16253,0.30474 20.052342,20.052342 0 0 1 -0.22348,2.03165 l 0.85329,-0.30475 v 0 a 2.7833544,2.7833544 0 0 1 0,-0.71107 c 0.30475,-1.54405 2.03165,-2.58019 3.41317,-3.21 a 17.756582,17.756582 0 0 1 4.99784,-1.44247 v 0 a 12.474304,12.474304 0 0 0 1.90975,-7.04981 z m 1.86911,8.28911 v 0 c -0.1219,-0.20316 -1.3612,-0.58917 -3.67728,-0.32506 a 0.34537975,0.34537975 0 0 1 -0.20316,0 17.878481,17.878481 0 0 0 -4.815,1.40183 c -1.7269,0.75171 -2.76304,1.70659 -2.94589,2.66146 a 2.3363924,2.3363924 0 0 0 0.83298,2.03165 10.422342,10.422342 0 0 0 6.76538,-0.83298 l 0.60949,-0.36569 a 0.32506329,0.32506329 0 0 1 0.22348,-0.20317 v 0 a 9.9753797,9.9753797 0 0 0 2.03165,-2.13323 3.9413924,3.9413924 0 0 0 1.09709,-2.23481 z m 8.93924,3.16937 a 1.1783544,1.1783544 0 0 0 0.22348,-0.40633 0.52822785,0.52822785 0 0 0 -0.22348,-0.28443 8.8376582,8.8376582 0 0 0 -5.22133,-0.54854 23.688987,23.688987 0 0 0 -6.50126,3.37253 3.7585443,3.7585443 0 0 1 -0.54855,1.05645 13.81519,13.81519 0 0 1 3.88045,-0.65012 11.641329,11.641329 0 0 1 4.22582,1.09709 v 0 a 20.600886,20.600886 0 0 0 4.08361,-3.63665 z m -3.43348,5.34323 c 0,0 0,-0.3657 -0.97519,-0.89393 a 0.26411392,0.26411392 0 0 1 -0.14221,-0.1219 v 0 a 11.58038,11.58038 0 0 0 -4.0633,-1.03613 15.399873,15.399873 0 0 0 -4.42898,0.8736 h -0.14222 a 9.8128481,9.8128481 0 0 1 -3.61633,2.62083 10.767722,10.767722 0 0 1 -3.59601,0.69076 16.517278,16.517278 0 0 0 7.11076,2.03164 21.515127,21.515127 0 0 0 8.93924,-3.37253 v 0 c 0,0 0,0 0,0 a 2.4989241,2.4989241 0 0 0 0.65013,-0.56886 z m -11.3569,8.51259 c 4.44931,1.82848 7.53741,2.47861 8.12658,2.23481 a 9.6503165,9.6503165 0 0 0 -1.93006,-3.79917 0.3656962,0.3656962 0 0 1 0,-0.40633 v 0 a 0.42664557,0.42664557 0 0 1 0.32506,-0.16254 12.332089,12.332089 0 0 0 2.03165,0 21.738608,21.738608 0 0 0 8.24848,-1.66594 11.824177,11.824177 0 0 0 -5.83082,-3.43349 v 0 c -2.17386,1.50342 -7.21234,3.67728 -9.42684,3.51475 -1.01582,0 -7.51709,-0.99551 -7.84215,-2.70209 h -0.52823 a 13.490127,13.490127 0 0 0 6.82633,6.39969 z m -8.97987,-7.55772 a 4.0632911,4.0632911 0 0 0 2.03164,0.40633 0.26411392,0.26411392 0 0 1 0.16254,0 12.352405,12.352405 0 0 0 4.6931,-0.62981 9.853481,9.853481 0 0 0 4.26645,-3.73823 v 0 c -2.49892,1.27994 -6.78569,1.52374 -7.59835,0.69076 a 3.7991772,3.7991772 0 0 1 -0.89393,-1.25962 v 0 c -2.03164,0.67044 -3.23031,1.68627 -3.25063,2.78336 a 2.9255696,2.9255696 0 0 0 0.58918,1.72689 z m -1.78785,-1.8488 h 0.32506 a 3.4537975,3.4537975 0 0 1 2.03165,-2.62082 15.257658,15.257658 0 0 0 0.30475,-2.53956 0.34537975,0.34537975 0 0 1 0.14221,-0.28443 0.40632911,0.40632911 0 0 1 -0.14221,-0.30474 c 0,-0.6095 0,-1.19867 0,-1.70659 v 0 a 16.375063,16.375063 0 0 0 -4.38836,-7.9031 0.44696203,0.44696203 0 0 0 -0.20316,0.16253 8.1265823,8.1265823 0 0 0 -0.52823,4.67279 c 0.14221,1.40183 0.58918,4.06329 1.09709,6.25747 a 9.2846203,9.2846203 0 0 1 0.58917,2.21449 6.9075949,6.9075949 0 0 0 0.77203,2.03165 z m -9.73158,-6.21683 a 13.266646,13.266646 0 0 0 8.12658,4.71342 1.5643671,1.5643671 0 0 0 0,-0.3657 c -0.18285,-0.65013 -0.3657,-1.38152 -0.54854,-2.15354 a 20.316456,20.316456 0 0 0 -3.14905,-5.38387 10.341076,10.341076 0 0 0 -4.0633,-2.88493 v 0 a 10.483291,10.483291 0 0 0 -4.97753,-1.03614 c 0.0813,0.58918 1.58469,3.37253 4.61184,7.09044 z m 15.48114,33.9488 a 1.3408861,1.3408861 0 0 0 0.34538,-0.38602 12.311772,12.311772 0 0 0 2.03164,-9.1424 v -0.16253 a 13.002532,13.002532 0 0 1 -3.00683,-1.86912 18.28481,18.28481 0 0 1 -0.87361,8.12658 9.8737975,9.8737975 0 0 0 1.50342,3.41317 z m -13.69329,-4.30709 a 0.50791139,0.50791139 0 0 0 0.34538,0.1219 8.7563924,8.7563924 0 0 0 4.63215,-2.43798 7.4155063,7.4155063 0 0 0 1.1174,-1.50342 0.3656962,0.3656962 0 0 1 0.46728,-0.14221 0.34537975,0.34537975 0 0 1 0.20317,0.44696 21.047848,21.047848 0 0 0 -0.65013,9.10177 c 0.71108,0.44696 3.4538,-2.49892 4.34772,-3.47411 a 1.3002532,1.3002532 0 0 0 0.20317,-0.26412 7.1717089,7.1717089 0 0 0 0.67044,-1.15803 v 0 a 19.341266,19.341266 0 0 0 0.71107,-8.59386 l -0.32506,-0.34538 a 23.668671,23.668671 0 0 1 -2.03164,-2.84431 c 0.24379,1.34089 0.42664,2.55988 0.50791,3.37253 0.26411,2.72241 -0.14222,5.5464 -1.42216,5.66829 -1.27993,0.1219 -4.4493,-4.99784 -5.07911,-7.9031 l -0.20316,0.18285 a 3.8398101,3.8398101 0 0 0 -0.52823,0.58918 21.352595,21.352595 0 0 0 -2.9662,9.16272 z m -7.47646,-2.39734 a 17.390886,17.390886 0 0 0 6.52158,-4.0633 18.853671,18.853671 0 0 0 2.03165,-2.51924 c 0.83297,-1.1174 1.76753,-2.45829 2.66145,-3.90076 v 0 0 a 0.42664557,0.42664557 0 0 1 -0.14221,-0.30474 20.743101,20.743101 0 0 1 0.20316,-2.03165 6.4809494,6.4809494 0 0 1 -0.83297,0.32506 v 0 a 2.2144937,2.2144937 0 0 1 0,0.7314 c -0.30475,1.52373 -2.03165,2.58019 -3.39285,3.18968 a 17.817532,17.817532 0 0 1 -4.99785,1.46279 v 0 a 12.189873,12.189873 0 0 0 -2.05196,7.09044 z m -1.88943,-8.30944 v 0 c 0,0.22349 1.3612,0.6095 3.67728,0.34538 h 0.20316 a 16.984557,16.984557 0 0 0 4.79469,-1.38151 c 1.74721,-0.77203 2.78335,-1.70659 2.9662,-2.66146 a 2.3770253,2.3770253 0 0 0 -0.85329,-2.03165 10.361392,10.361392 0 0 0 -6.74507,0.83298 5.038481,5.038481 0 0 0 -0.62981,0.3657 c 0,0 0,0.18284 -0.20316,0.20316 v 0 a 9.5284177,9.5284177 0 0 0 -2.03165,2.03165 4.0632911,4.0632911 0 0 0 -1.19867,2.27544 z m -8.93924,-3.14905 a 1.2189873,1.2189873 0 0 0 -0.20317,0.40633 c 0,0.10159 0.14222,0.20317 0.22349,0.28443 a 8.7157595,8.7157595 0 0 0 5.22132,0.52823 22.81538,22.81538 0 0 0 6.50127,-3.37253 5.0994304,5.0994304 0 0 1 0.52823,-1.05646 12.961899,12.961899 0 0 1 -3.86013,0.67045 12.311772,12.311772 0 0 1 -4.24614,-1.09709 21.819873,21.819873 0 0 0 -4.16487,3.61633 z m 3.35221,-5.32291 c 0,0 0,0.3657 0.99551,0.87361 l 0.1219,0.1219 v 0 a 11.702278,11.702278 0 0 0 4.06329,1.03614 16.029684,16.029684 0 0 0 4.42899,-0.89393 h 0.0203 a 10.158228,10.158228 0 0 1 3.59602,-2.64113 12.189873,12.189873 0 0 1 3.59601,-0.69076 16.903291,16.903291 0 0 0 -7.09044,-2.03165 21.941772,21.941772 0 0 0 -8.95956,3.39285 v 0 0 a 3.7382278,3.7382278 0 0 0 -0.65013,0.56886 c 0,0 -0.10158,0.2438 -0.1219,0.2438 z m 11.37722,-8.51259 c -4.4493,-1.8488 -7.55772,-2.47861 -8.12658,-2.23481 a 9.63,9.63 0 0 0 1.90974,3.77886 0.34537975,0.34537975 0 0 1 0,0.40633 c 0,0 0,0 0,0 a 0.38601266,0.38601266 0 0 1 -0.32506,0.16253 10.503608,10.503608 0 0 0 -2.03164,0 c -4.75406,0.3657 -7.82184,1.19867 -8.22817,1.66595 a 11.86481,11.86481 0 0 0 5.83082,3.43348 c 0,0 0,0 0,0 2.17386,-1.50342 7.21235,-3.6976 9.42684,-3.51475 1.01582,0 7.51709,0.99551 7.82183,2.70209 h 0.54855 a 13.652658,13.652658 0 0 0 -6.82633,-6.42 z m 8.95956,7.55772 c 0,0 -0.52823,-0.30475 -2.03165,-0.42665 h -0.14221 a 12.189873,12.189873 0 0 0 -4.69311,0.62981 9.9550633,9.9550633 0 0 0 -4.26645,3.71792 v 0 c 2.49892,-1.27994 6.80601,-1.50342 7.61867,-0.69076 a 4.0632911,4.0632911 0 0 1 0.87361,1.27993 v 0 c 2.03164,-0.69076 3.25063,-1.70658 3.27095,-2.78335 v 0 c 0,0 0,0 0,0 a 2.6614557,2.6614557 0 0 0 -0.62981,-1.74722 z m 1.80816,1.82848 h -0.32506 a 3.4741139,3.4741139 0 0 1 -2.03165,2.62082 14.993544,14.993544 0 0 0 -0.30474,2.53956 0.42664557,0.42664557 0 0 1 -0.14222,0.28443 0.3656962,0.3656962 0 0 1 0.1219,0.28443 c 0,0.62981 0,1.21899 0,1.70658 v 0 0 a 16.253165,16.253165 0 0 0 4.36804,7.82184 0.3656962,0.3656962 0 0 0 0.20316,-0.16253 8.1265823,8.1265823 0 0 0 0.52823,-4.67279 53.351013,53.351013 0 0 0 -1.09709,-6.25747 8.959557,8.959557 0 0 1 -0.56886,-2.23481 7.7202532,7.7202532 0 0 0 -0.75171,-1.95038 z m 9.71127,6.23715 a 13.063481,13.063481 0 0 0 -8.12659,-4.71342 2.0316456,2.0316456 0 0 0 0,0.3657 l 0.52823,2.03165 a 20.316456,20.316456 0 0 0 3.14905,5.38386 10.60519,10.60519 0 0 0 4.06329,2.90525 v 0 a 10.767722,10.767722 0 0 0 4.97754,1.03614 21.413544,21.413544 0 0 0 -4.59152,-7.02949 z"
       id="path3255"
       style="fill:#f3d4e5;stroke-width:2.03165" />
    <path
       class="cls-6"
       d="m 162.78603,604.34743 c -36.73215,0 -60.84778,7.9031 -71.960887,12.63684 0,0 -5.89177,2.90525 -7.23265,3.63664 -0.28443,-1.05645 -8.89861,-34.17228 -9.24399,-35.57411 5.54639,-3.43348 34.212907,-19.34127 88.437527,-19.34127 54.22462,0 82.89114,15.90779 88.43753,19.34127 -0.34538,1.40183 -8.95955,34.53797 -9.24398,35.57411 -1.34089,-0.73139 -7.23266,-3.63664 -7.23266,-3.63664 -11.01152,-4.73374 -35.22874,-12.63684 -71.96089,-12.63684 z m 88.31563,-4.99785 -7.31392,27.22405 c -5.11975,-4.06329 -9.67063,-3.06778 -9.89411,-0.42664 -0.26412,3.4538 3.53506,3.29126 8.12658,7.43582 3.06778,2.80367 5.16038,6.64348 4.87595,8.97987 l 10.50361,-32.95329 a 19.280316,19.280316 0 0 0 -6.29811,-10.25981 z m -8.12658,43.11152 a 12.189873,12.189873 0 0 0 -3.63664,-6.09494 l -0.62981,1.07678 a 17.065823,17.065823 0 0 0 2.88493,5.6886 c 1.80817,2.01133 1.32057,-0.67044 1.32057,-0.67044 z m -174.721517,-32.85171 10.52393,32.95329 c -0.28443,-2.33639 1.78784,-6.09493 4.85563,-8.97987 4.5712,-4.06329 8.37038,-4.06329 8.12658,-7.43582 -0.22348,-2.64114 -4.77437,-3.55538 -9.89411,0.42664 l -7.31393,-27.22405 a 19.280316,19.280316 0 0 0 -6.35905,10.25981 z m 15.84684,33.44089 a 17.065823,17.065823 0 0 0 2.88493,-5.68861 l -0.62981,-1.07677 a 12.189873,12.189873 0 0 0 -3.63664,6.09494 c 0,0 -0.54855,2.76303 1.32057,0.67044 z M 303.90413,545.40939 c -13.49012,-10.78804 -27.67101,-2.94588 -30.47468,-1.17835 a 2.7224051,2.7224051 0 0 1 0.48759,0.2438 4.3274051,4.3274051 0 1 1 -5.18069,1.46278 4.4696203,4.4696203 0 0 1 3.45379,-2.03164 c -2.21449,-1.50342 -9.42683,-4.91659 -23.18107,1.50341 0,0 7.07013,2.68177 5.28228,8.12659 0,0 -2.03165,8.12658 -18.91462,20.15392 4.815,1.78785 8.73607,3.51475 11.80386,5.01816 a 197.94323,197.94323 0 0 0 30.47468,-19.78822 c 16.05,-12.31178 26.18791,-13.51045 26.18791,-13.51045 z m -232.542147,8.2688 c -1.78785,-5.50576 5.28228,-8.12658 5.28228,-8.12658 -13.754242,-6.42 -20.966584,-3.00684 -23.181077,-1.50342 a 4.4696203,4.4696203 0 0 1 3.453797,2.03165 3.433481,3.433481 0 1 1 -5.180696,-1.46279 2.7224051,2.7224051 0 0 1 0.487595,-0.2438 c -2.823987,-1.76753 -17.004873,-9.60968 -30.474684,1.17836 0,0 10.158228,1.19867 26.228545,13.65266 a 197.94323,197.94323 0 0 0 30.47468,19.78822 c 3.06779,-1.50341 6.98886,-3.23031 11.80386,-5.01816 -16.86265,-12.23051 -18.8943,-20.29614 -18.8943,-20.29614 z"
       id="path3257"
       style="fill:#fde38c;stroke-width:2.03165" />
    <path
       d="m 84.933373,585.98135 c 1.27994,-0.42664 2.60051,-0.81265 3.92108,-1.15803 q 5.97304,-1.54405 6.64348,-1.76753 c 1.7269,-0.56887 3.37253,-1.15804 4.916577,-1.78785 l 4.91658,-2.03165 c 0.54855,-0.18285 0.89393,0 1.03614,0.40633 l 2.3364,7.61867 -1.34089,0.42665 c -1.05646,-2.19418 -2.86462,-4.75405 -4.51025,-4.99785 a 14.221519,14.221519 0 0 0 -5.424497,1.01582 l -2.8443,0.91424 3.06778,9.42684 2.29576,-0.75171 a 3.1084177,3.1084177 0 0 0 2.336397,-2.03165 14.038671,14.038671 0 0 0 -0.83298,-4.61183 l 1.46279,-0.4876 c 0.16253,0.56886 0.8736,2.80367 1.2393,4.06329 0.3657,1.25962 0.54854,2.03165 0.58918,2.03165 l 0.95487,2.78335 c 0.46728,1.30026 1.15804,3.31159 1.19867,3.43349 l -1.605,0.52822 a 15.359241,15.359241 0 0 0 -1.90975,-4.06329 2.9458861,2.9458861 0 0 0 -3.04746,-0.32506 l -2.295757,0.75171 2.336387,7.23266 c 0.48759,1.4831 0.97519,2.33639 1.44247,2.53955 a 7.1920253,7.1920253 0 0 0 3.61633,-0.62981 l 0.38601,1.19867 c -0.75171,0.2438 -1.86911,0.56886 -3.37253,0.97519 -1.50342,0.40633 -2.620827,0.7314 -3.372527,0.97519 -0.75171,0.2438 -1.8488,0.62981 -3.31159,1.17836 -1.46278,0.54854 -2.55987,0.95487 -3.29126,1.19867 l -0.38601,-1.19867 a 8.5125949,8.5125949 0 0 0 2.8443,-1.27994 q 0.42664,-0.48759 0,-1.64563 l -5.99336,-18.48798 a 0.75170886,0.75170886 0 0 0 -0.79234,-0.50791 16.009367,16.009367 0 0 0 -2.86462,0.42665 z"
       id="path3259"
       style="stroke-width:2.03165" />
    <path
       d="m 133.14432,584.47794 a 11.946076,11.946076 0 0 0 -3.73823,-6.27779 6.7044304,6.7044304 0 0 0 -4.97753,-1.1174 7.2529747,7.2529747 0 0 0 -5.83082,4.48993 16.253165,16.253165 0 0 0 -0.38601,8.91893 13.408861,13.408861 0 0 0 3.12873,6.78569 7.0498101,7.0498101 0 0 0 11.33658,-0.71107 21.393228,21.393228 0 0 0 1.56437,-7.11076 h 1.07677 c 0,1.52373 0.30475,4.06329 0.34538,5.07911 a 23.912468,23.912468 0 0 0 0.40633,3.14905 c 0,0 -2.03164,0.79235 -5.58702,2.31608 a 17.147089,17.147089 0 0 1 -3.75855,1.17835 13.388544,13.388544 0 0 1 -10.03633,-1.76753 12.189873,12.189873 0 0 1 -5.34322,-8.43133 12.027342,12.027342 0 0 1 2.03164,-9.81285 13.571392,13.571392 0 0 1 8.79703,-5.20101 14.445,14.445 0 0 1 4.18519,-0.16253 l 4.22582,0.42665 a 1.0564557,1.0564557 0 0 0 0.97519,-0.99551 h 1.07677 c 0,0.40633 0.16253,1.03614 0.26411,1.88943 0.10159,0.85329 0.18285,1.50342 0.26412,2.03165 0.0813,0.52822 0.22348,1.01582 0.42664,1.84879 0.20317,0.83298 0.58918,2.84431 0.67045,3.31159 z"
       id="path3261"
       style="stroke-width:2.03165" />
    <path
       d="m 173.26932,596.70844 a 9.183038,9.183038 0 0 0 2.94589,0 1.1783544,1.1783544 0 0 0 0.71107,-1.09709 l 1.40184,-19.44284 a 1.1986709,1.1986709 0 0 0 -0.62981,-1.17836 7.9031013,7.9031013 0 0 0 -2.62082,-0.75171 v -1.25962 c 1.1174,0.2438 2.23481,0.42665 3.35221,0.6095 1.11741,0.18284 2.15355,0.28443 3.0881,0.34538 0.93456,0.0609 2.2145,0.1219 3.21,0.1219 h 3.27095 v 1.27993 a 8.3297468,8.3297468 0 0 0 -2.76304,0.34538 1.1174051,1.1174051 0 0 0 -0.77202,1.09709 l -1.40184,19.36158 a 1.1986709,1.1986709 0 0 0 0.52823,1.19867 9.7315823,9.7315823 0 0 0 3.02715,0.50791 v 1.25963 c -0.73139,0 -1.84879,-0.18285 -3.31158,-0.3657 -1.46278,-0.18285 -2.60051,-0.28443 -3.35221,-0.32506 -0.75171,-0.0406 -1.8488,0 -3.3319,-0.14222 -1.4831,-0.14221 -2.62083,0 -3.37253,-0.14221 z"
       id="path3263"
       style="stroke-width:2.03165" />
    <path
       d="m 191.85888,574.25876 c 1.34089,0.20316 2.68177,0.44696 4.06329,0.75171 l 6.72475,1.40183 c 1.80816,0.28443 3.53506,0.4876 5.20101,0.62981 l 5.28228,0.42665 c 0.56886,0 0.83297,0.3657 0.75171,0.83297 l -1.36121,7.86247 -1.38151,-0.22348 c 0,-2.45829 -0.40633,-5.54639 -1.78785,-6.50126 a 14.221519,14.221519 0 0 0 -5.28228,-1.54405 l -2.94589,-0.44697 -1.52373,9.77222 2.39734,0.38601 a 3.1287342,3.1287342 0 0 0 3.02715,-0.81266 14.221519,14.221519 0 0 0 1.32057,-4.48993 l 1.52374,0.22348 c 0,0.58917 -0.4876,2.90525 -0.7314,4.18519 -0.24379,1.27993 -0.36569,2.03164 -0.38601,2.03164 -0.10158,0.58918 -0.22348,1.54405 -0.38601,2.90526 -0.16253,1.3612 -0.46728,3.47411 -0.4876,3.59601 l -1.66595,-0.2438 a 14.891962,14.891962 0 0 0 0.16254,-4.55088 2.9458861,2.9458861 0 0 0 -2.55988,-1.66595 l -2.39734,-0.3657 -1.17835,7.49677 c -0.22348,1.54405 -0.18285,2.51924 0.14221,2.92557 a 7.0294937,7.0294937 0 0 0 3.51475,1.05646 l -0.20317,1.25962 c -0.77202,-0.1219 -1.90974,-0.34538 -3.43348,-0.65013 -1.52373,-0.30475 -2.68177,-0.52823 -3.45379,-0.65013 -0.77203,-0.12189 -2.03165,-0.26411 -3.49444,-0.42664 -1.46278,-0.16253 -2.7224,-0.30475 -3.47411,-0.42665 l 0.18285,-1.2393 a 8.471962,8.471962 0 0 0 3.10842,0.14221 c 0.40633,-0.16253 0.69076,-0.65012 0.81265,-1.44246 l 2.96621,-19.19905 a 0.77202532,0.77202532 0 0 0 -0.46728,-0.83298 16.39538,16.39538 0 0 0 -2.76304,-0.91424 z"
       id="path3265"
       style="stroke-width:2.03165" />
    <path
       d="m 215.8323,578.15952 c 1.03614,0.46728 2.03164,0.89392 3.14905,1.27994 1.1174,0.38601 2.03164,0.71107 2.94588,0.97519 0.91424,0.26411 2.03165,0.56886 3.10842,0.77202 l 3.23032,0.58918 -0.34538,1.15804 a 8.7970253,8.7970253 0 0 0 -2.76304,-0.22348 1.2189873,1.2189873 0 0 0 -0.99551,0.91424 l -3.57569,12.55557 a 8.3906962,8.3906962 0 0 0 0,5.5667 4.9368987,4.9368987 0 0 0 3.45379,3.00684 5.3025949,5.3025949 0 0 0 5.14007,-1.11741 10.158228,10.158228 0 0 0 2.98652,-5.01816 l 2.98652,-10.48329 a 2.5192405,2.5192405 0 0 0 0,-2.03165 6.5215823,6.5215823 0 0 0 -2.72241,-1.62531 l 0.38601,-1.38152 c 0.67045,0.32506 1.36121,0.62981 2.03165,0.93456 a 16.354747,16.354747 0 0 0 2.03164,0.73139 19.706962,19.706962 0 0 0 2.13323,0.48759 l 2.19418,0.28443 -0.40633,1.38152 a 5.7292405,5.7292405 0 0 0 -2.90525,0 2.7020886,2.7020886 0 0 0 -1.15804,1.76753 l -2.51924,8.79703 a 13.896456,13.896456 0 0 1 -4.89627,7.92342 9.3049367,9.3049367 0 0 1 -8.12658,0.8736 8.6548101,8.6548101 0 0 1 -5.56671,-4.6931 10.706772,10.706772 0 0 1 -0.54854,-8.025 l 3.31158,-11.53974 a 1.2189873,1.2189873 0 0 0 -0.34538,-1.27994 8.3906962,8.3906962 0 0 0 -2.43797,-1.27994 z"
       id="path3267"
       style="stroke-width:2.03165" />
    <path
       d="m 168.88097,582.85262 a 11.86481,11.86481 0 0 0 -2.49893,-6.76538 6.6028481,6.6028481 0 0 0 -4.63215,-2.03164 7.1107595,7.1107595 0 0 0 -6.46063,3.31158 15.968734,15.968734 0 0 0 -2.03165,8.57354 13.551076,13.551076 0 0 0 1.8488,7.21234 6.4606329,6.4606329 0 0 0 5.70892,3.4538 4.9572152,4.9572152 0 0 0 3.00684,-0.77202 2.4786076,2.4786076 0 0 0 1.05646,-2.03165 v -6.7857 a 1.4221519,1.4221519 0 0 0 -0.62981,-1.38151 6.5622152,6.5622152 0 0 0 -2.78336,-0.3657 v -1.2393 q 0.97519,0 2.92557,0.12189 c 1.30025,0 2.27544,0 2.92557,0.1219 0.65013,0.1219 1.605,0 2.90525,-0.10158 1.30026,-0.10158 2.27545,0 2.92557,0 v 1.2393 a 4.1851899,4.1851899 0 0 0 -2.03164,0.30475 1.5846835,1.5846835 0 0 0 -0.46728,1.34089 v 7.98436 c -0.89392,0.2438 -2.23481,0.69076 -4.06329,1.36121 a 21.311962,21.311962 0 0 1 -6.76538,1.58468 13.551076,13.551076 0 0 1 -9.67063,-3.51475 12.982215,12.982215 0 0 1 0,-18.28481 13.327595,13.327595 0 0 1 9.46746,-3.47411 14.709114,14.709114 0 0 1 4.06329,0.58918 l 4.0633,1.17835 a 1.0767722,1.0767722 0 0 0 1.1174,-0.79234 l 1.07677,0.18285 c 0,0.40633 0,1.03614 0,1.86911 0,0.83298 0,1.50342 0,2.03165 0,0.52822 0,1.03614 0,1.88943 0,0.85329 0,2.8443 0,3.31158 z"
       id="path3269"
       style="stroke-width:2.03165" />
    <path
       class="cls-5"
       d="m 172.31445,485.15079 a 2.2957595,2.2957595 0 0 1 0.50791,0.54854 18.041013,18.041013 0 0 1 2.86462,13.38854 v 0.22348 a 17.980063,17.980063 0 0 0 -4.38835,2.78336 27.203734,27.203734 0 0 0 -1.27994,-12.02734 14.566899,14.566899 0 0 1 2.29576,-4.91658 z"
       id="path3271"
       style="fill:#f3d4e5;stroke-width:2.03165" />
    <path
       class="cls-5"
       d="m 152.24179,491.42857 a 0.79234177,0.79234177 0 0 1 0.50791,-0.16253 12.738418,12.738418 0 0 1 6.7857,3.55538 11.356899,11.356899 0 0 1 1.62531,2.21449 0.56886076,0.56886076 0 0 0 0.71108,0.20317 0.52822785,0.52822785 0 0 0 0.28443,-0.65013 c -1.50342,-4.89627 -1.605,-12.57589 -0.93456,-13.34791 1.01583,-0.62981 5.01817,3.67728 6.33874,5.09943 a 2.0316456,2.0316456 0 0 1 0.32506,0.38601 8.6751266,8.6751266 0 0 1 0.93456,1.70658 v 0 l 0.1219,0.1219 a 27.691329,27.691329 0 0 1 1.01582,12.5962 l -0.44696,0.52823 a 31.673354,31.673354 0 0 0 -2.86462,4.06329 c 0.36569,-2.03164 0.62981,-3.73822 0.73139,-4.95721 0.38601,-4.06329 -0.20316,-8.12658 -2.03165,-8.28912 -1.82848,-0.16253 -6.48095,7.31393 -7.45613,11.58038 l -0.28444,-0.26411 a 6.9075949,6.9075949 0 0 1 -0.77202,-0.87361 c -2.62082,-3.35221 -5.11975,-12.51493 -4.59152,-13.51044 z"
       id="path3273"
       style="fill:#f3d4e5;stroke-width:2.03165" />
    <path
       class="cls-5"
       d="m 141.29122,494.96363 c 0.95487,-0.20316 6.2981,2.76304 9.54873,5.79019 a 28.991582,28.991582 0 0 1 3.04747,3.67728 c 1.21899,1.64563 2.58019,3.63665 3.88045,5.72924 v 0 l 0.1219,0.10158 a 0.5485443,0.5485443 0 0 0 -0.22349,0.44697 26.716139,26.716139 0 0 0 0.32507,3.0881 c -0.38602,-0.16253 -0.79234,-0.32507 -1.23931,-0.46728 v 0 a 3.6975949,3.6975949 0 0 0 0,-1.05646 c -0.44696,-2.23481 -2.94588,-3.77886 -4.97753,-4.6931 a 26.411392,26.411392 0 0 0 -7.35456,-2.03164 h -0.10158 a 18.00038,18.00038 0 0 1 -3.02715,-10.58488 z"
       id="path3275"
       style="fill:#f3d4e5;stroke-width:2.03165" />
    <path
       class="cls-5"
       d="m 138.52818,507.11287 v 0 c 0.18285,-0.30474 2.03165,-0.8736 5.38386,-0.48759 a 0.58917722,0.58917722 0 0 0 0.32507,0 25.720633,25.720633 0 0 1 7.04981,2.03164 c 2.49892,1.11741 4.06329,2.49893 4.3274,3.88045 a 3.4537975,3.4537975 0 0 1 -1.25962,3.00683 c -0.56886,0.56886 -6.09493,0.7314 -9.8738,-1.21898 a 9.8128481,9.8128481 0 0 1 -0.91424,-0.52823 0.56886076,0.56886076 0 0 0 -0.30474,-0.30475 h -0.14222 a 15.379557,15.379557 0 0 1 -3.0881,-3.10842 6.0949367,6.0949367 0 0 1 -1.50342,-3.27095 z"
       id="path3277"
       style="fill:#f3d4e5;stroke-width:2.03165" />
    <path
       class="cls-5"
       d="m 125.44439,511.74503 a 2.0316456,2.0316456 0 0 1 -0.32507,-0.58918 0.79234177,0.79234177 0 0 1 0.34538,-0.42665 12.900949,12.900949 0 0 1 7.63899,-0.79234 33.623734,33.623734 0 0 1 9.52842,4.95722 5.8714557,5.8714557 0 0 0 0.79234,1.54405 19.422532,19.422532 0 0 0 -5.68861,-0.97519 17.472152,17.472152 0 0 0 -6.09494,1.605 v 0 a 29.946456,29.946456 0 0 1 -6.19651,-5.32291 z"
       id="path3279"
       style="fill:#f3d4e5;stroke-width:2.03165" />
    <path
       class="cls-5"
       d="m 130.2797,519.52623 c 0,-0.10158 0,-0.52823 1.44247,-1.27994 0,0 0.14222,0 0.18285,-0.18285 0.0406,-0.18284 0,0 0,0 a 16.720443,16.720443 0 0 1 5.79019,-1.50341 22.795063,22.795063 0 0 1 6.48095,1.27993 0.28443038,0.28443038 0 0 0 0.22348,0 15.054494,15.054494 0 0 0 5.30259,3.86013 16.923608,16.923608 0 0 0 5.26197,1.01582 c -0.71108,0.89393 -6.09494,2.53956 -10.40203,2.88494 -2.88494,0.22348 -10.15823,-2.90525 -13.10411,-4.97753 v 0 c 0,0 0,0 0,0 0,0 0,0 -0.1219,0 a 5.4041772,5.4041772 0 0 1 -0.95488,-0.83298 z"
       id="path3281"
       style="fill:#f3d4e5;stroke-width:2.03165" />
    <path
       class="cls-5"
       d="m 147.00014,532.06148 c -6.52158,2.70209 -11.03183,3.61633 -11.86481,3.29127 a 14.221519,14.221519 0 0 1 2.80368,-5.56671 0.52822785,0.52822785 0 0 0 0,-0.58918 v 0 a 0.52822785,0.52822785 0 0 0 -0.4876,-0.20316 19.442848,19.442848 0 0 1 -3.04747,0 c -6.98886,-0.54855 -11.45848,-1.76754 -12.06797,-2.43798 a 17.268987,17.268987 0 0 1 8.51259,-5.01816 h 0.1219 c 3.18968,2.19417 10.54424,5.40417 13.79487,5.14006 1.48311,-0.1219 11.03184,-1.44247 11.4788,-3.94139 h 0.79234 a 19.869494,19.869494 0 0 1 -10.03633,9.32525 z"
       id="path3283"
       style="fill:#f3d4e5;stroke-width:2.03165" />
    <path
       class="cls-5"
       d="m 160.14489,520.94838 a 5.8308228,5.8308228 0 0 1 -2.82399,0.58918 h -0.22348 a 17.472152,17.472152 0 0 1 -6.88728,-0.93456 14.221519,14.221519 0 0 1 -6.23715,-5.44481 v 0 c 3.65696,1.86911 9.97538,2.21449 11.15374,0.99551 a 6.2574684,6.2574684 0 0 0 1.32057,-1.8488 v 0 c 2.98652,0.99551 4.71341,2.47861 4.73373,4.06329 0,0 0,0 0,0 a 0.22348101,0.22348101 0 0 0 0,0.14222 4.0632911,4.0632911 0 0 1 -1.03614,2.43797 z"
       id="path3285"
       style="fill:#f3d4e5;stroke-width:2.03165" />
    <path
       class="cls-5"
       d="m 162.78603,518.24629 h -0.48759 a 5.038481,5.038481 0 0 0 -3.04747,-3.83981 21.677658,21.677658 0 0 1 -0.44696,-3.73823 0.52822785,0.52822785 0 0 0 -0.20317,-0.40633 0.56886076,0.56886076 0 0 0 0.20317,-0.42664 c 0,-0.91424 0,-1.78785 0,-2.49893 0,0 0,0 0,0 0,0 0,0 0,0 0.38601,-4.06329 5.36354,-11.13341 6.39968,-11.43816 a 0.62981013,0.62981013 0 0 1 0.30475,0.22348 12.189873,12.189873 0 0 1 0.77202,6.86696 90.22538,90.22538 0 0 1 -1.605,9.16272 12.880633,12.880633 0 0 0 -0.85329,3.25064 11.052152,11.052152 0 0 1 -1.03614,2.8443 z"
       id="path3287"
       style="fill:#f3d4e5;stroke-width:2.03165" />
    <path
       class="cls-5"
       d="m 177.00755,509.10389 c -4.24614,5.24164 -10.97089,7.17171 -11.98671,6.90759 a 1.7675316,1.7675316 0 0 1 0,-0.52823 c 0.26411,-0.93455 0.54855,-2.03164 0.79234,-3.12873 a 29.601076,29.601076 0 0 1 4.63215,-7.88279 15.724937,15.724937 0 0 1 5.85114,-4.26645 v 0 a 15.562405,15.562405 0 0 1 7.29361,-1.50342 c 0.061,0.85329 -2.15354,4.91658 -6.58253,10.40203 z"
       id="path3289"
       style="fill:#f3d4e5;stroke-width:2.03165" />
    <path
       class="cls-5"
       d="m 154.33439,558.85889 a 4.0632911,4.0632911 0 0 1 -0.50792,-0.56886 18.061329,18.061329 0 0 1 -2.86462,-13.38855 c 0,0 0,-0.22348 0,-0.2438 a 18.508291,18.508291 0 0 0 4.38836,-2.74272 26.614557,26.614557 0 0 0 1.30025,12.00703 14.221519,14.221519 0 0 1 -2.31607,4.9369 z"
       id="path3291"
       style="fill:#f3d4e5;stroke-width:2.03165" />
    <path
       class="cls-5"
       d="m 174.40704,552.56079 a 0.99550633,0.99550633 0 0 1 -0.50791,0.16253 12.921266,12.921266 0 0 1 -6.80601,-3.5757 13.083797,13.083797 0 0 1 -1.62532,-2.19418 0.52822785,0.52822785 0 0 0 -0.69076,-0.20316 0.52822785,0.52822785 0 0 0 -0.28443,0.65013 c 1.50342,4.89626 1.62532,12.57588 0.95488,13.34791 -1.03614,0.62981 -5.0588,-3.67728 -6.35905,-5.09943 a 1.828481,1.828481 0 0 1 -0.30475,-0.38602 10.036329,10.036329 0 0 1 -0.97519,-1.70658 c 0,0 0,0 0,-0.1219 l -0.1219,-0.10158 a 28.280506,28.280506 0 0 1 -1.03614,-12.5962 5.4448101,5.4448101 0 0 0 0.46728,-0.52823 31.673354,31.673354 0 0 0 2.86462,-4.06329 c -0.3657,2.03164 -0.62981,3.73823 -0.73139,4.9369 -0.38602,4.06329 0.20316,8.12658 2.03164,8.28911 1.82848,0.16253 6.50127,-7.29361 7.43583,-11.56006 l 0.30474,0.2438 c 0.2438,0.24379 0.50791,0.54854 0.77203,0.8736 2.64114,3.53507 5.18069,12.63684 4.61183,13.63235 z"
       id="path3293"
       style="fill:#f3d4e5;stroke-width:2.03165" />
    <path
       class="cls-5"
       d="m 185.35761,549.02572 c -0.95487,0.20317 -6.2981,-2.78335 -9.56905,-5.79019 a 31.165443,31.165443 0 0 1 -3.02715,-3.67728 c -1.21899,-1.64563 -2.58019,-3.63664 -3.90076,-5.72924 v 0 c 0,0 0,0 0,-0.10158 a 0.48759494,0.48759494 0 0 0 0.20317,-0.44696 23.038861,23.038861 0 0 0 -0.30475,-3.0881 c 0.38601,0.16253 0.79234,0.32506 1.2393,0.46728 v 0 a 3.1084177,3.1084177 0 0 0 0,1.05645 c 0.42665,2.23481 2.92557,3.77886 4.95722,4.67279 a 25.984747,25.984747 0 0 0 7.33424,2.13322 v 0 a 17.919114,17.919114 0 0 1 3.06778,10.50361 z"
       id="path3295"
       style="fill:#f3d4e5;stroke-width:2.03165" />
    <path
       class="cls-5"
       d="m 188.12065,536.87648 v 0 c -0.16253,0.30475 -2.03164,0.87361 -5.38386,0.4876 a 0.91424051,0.91424051 0 0 0 -0.32506,0 25.822215,25.822215 0 0 1 -7.00918,-2.03165 c -2.53956,-1.13772 -4.06329,-2.51924 -4.34772,-3.92108 a 3.4131646,3.4131646 0 0 1 1.25962,-2.98651 c 0.56886,-0.56886 6.09494,-0.7314 9.8738,1.21898 0.30474,0.14222 0.60949,0.34538 0.91424,0.52823 a 0.50791139,0.50791139 0 0 0 0.30474,0.30475 h 0.1219 a 14.993544,14.993544 0 0 1 3.10842,3.10842 c 1.07677,1.62531 1.64563,2.94588 1.4831,3.29126 z"
       id="path3297"
       style="fill:#f3d4e5;stroke-width:2.03165" />
    <path
       class="cls-5"
       d="m 201.20445,532.24433 a 2.0316456,2.0316456 0 0 1 0.32506,0.58918 c 0,0.16253 -0.22348,0.30474 -0.34538,0.42664 a 12.779051,12.779051 0 0 1 -7.63899,0.77203 33.115823,33.115823 0 0 1 -9.5081,-4.9369 9.3252532,9.3252532 0 0 0 -0.79234,-1.54405 19.869494,19.869494 0 0 0 5.64798,0.97519 17.472152,17.472152 0 0 0 6.21683,-1.605 v 0 a 30.881013,30.881013 0 0 1 6.09494,5.32291 z"
       id="path3299"
       style="fill:#f3d4e5;stroke-width:2.03165" />
    <path
       class="cls-5"
       d="m 196.30818,524.46313 c 0,0.10158 -0.14221,0.52822 -1.44247,1.27993 a 0.87360759,0.87360759 0 0 0 -0.20316,0.18285 v 0 a 16.964241,16.964241 0 0 1 -5.83082,1.50342 22.551266,22.551266 0 0 1 -6.48095,-1.30025 h -0.20317 a 14.688797,14.688797 0 0 0 -5.28228,-3.86013 16.700127,16.700127 0 0 0 -5.28227,-1.01582 c 0.69076,-0.89393 6.09493,-2.53956 10.40202,-2.88494 2.88494,-0.22348 10.15823,2.90525 13.12443,4.97753 0,0 0,0 0,0 v 0 a 0.34537975,0.34537975 0 0 0 0.1219,0.1219 4.815,4.815 0 0 1 0.93456,0.83298 z"
       id="path3301"
       style="fill:#f3d4e5;stroke-width:2.03165" />
    <path
       class="cls-5"
       d="m 179.64869,511.98882 c 6.50126,-2.70209 11.05215,-3.63664 11.86481,-3.29126 a 14.038671,14.038671 0 0 1 -2.80367,5.54639 0.5485443,0.5485443 0 0 0 0,0.60949 v 0 a 0.48759494,0.48759494 0 0 0 0.46728,0.22348 17.695633,17.695633 0 0 1 3.0881,0 c 6.96854,0.54855 11.43816,1.74722 12.04766,2.43798 a 17.37057,17.37057 0 0 1 -8.53292,5.01816 v 0 c -3.21,-2.19417 -10.58487,-5.40417 -13.81518,-5.14006 -1.50342,0.1219 -11.03184,1.44247 -11.45849,3.94139 h -0.81265 a 19.950759,19.950759 0 0 1 9.95506,-9.34557 z"
       id="path3303"
       style="fill:#f3d4e5;stroke-width:2.03165" />
    <path
       class="cls-5"
       d="m 166.50394,523.04098 a 5.8511392,5.8511392 0 0 1 2.82399,-0.6095 0.40632911,0.40632911 0 0 0 0.22348,0 17.472152,17.472152 0 0 1 6.88728,0.93456 14.221519,14.221519 0 0 1 6.23715,5.44481 v 0 c -3.67728,-1.86912 -9.97538,-2.2145 -11.15373,-1.01582 a 6.0949367,6.0949367 0 0 0 -1.30026,1.86911 v 0 c -3.00683,-0.99551 -4.75405,-2.49892 -4.77436,-4.06329 v -0.10158 c 0,0 0,0 0,-0.1219 a 4.0632911,4.0632911 0 0 1 1.05645,-2.33639 z"
       id="path3305"
       style="fill:#f3d4e5;stroke-width:2.03165" />
    <path
       class="cls-5"
       d="m 163.88312,525.74306 a 2.0316456,2.0316456 0 0 1 0.48759,0 5.038481,5.038481 0 0 0 3.02716,3.83981 21.555759,21.555759 0 0 1 0.46727,3.73823 0.52822785,0.52822785 0 0 0 0.20317,0.40633 0.5485443,0.5485443 0 0 0 -0.20317,0.42665 c 0,0.91424 0,1.78784 0,2.49892 v 0 c -0.36569,4.06329 -5.36354,11.13342 -6.39968,11.43816 a 0.50791139,0.50791139 0 0 1 -0.30475,-0.24379 11.966392,11.966392 0 0 1 -0.77202,-6.84665 84.861835,84.861835 0 0 1 1.605,-9.16272 12.880633,12.880633 0 0 0 0.85329,-3.25063 9.8737975,9.8737975 0 0 1 1.03614,-2.84431 z"
       id="path3307"
       style="fill:#f3d4e5;stroke-width:2.03165" />
    <path
       class="cls-5"
       d="m 149.64128,534.88547 c 4.24614,-5.24165 10.97089,-7.17171 11.98671,-6.92791 a 2.0316456,2.0316456 0 0 1 0,0.54854 c -0.26411,0.93456 -0.52822,2.03165 -0.79234,3.12874 a 29.458861,29.458861 0 0 1 -4.61183,7.88278 15.643671,15.643671 0 0 1 -5.89178,4.24614 v 0 a 15.217025,15.217025 0 0 1 -7.27329,1.50342 c -0.0609,-0.87361 2.13323,-4.95722 6.58253,-10.38171 z"
       id="path3309"
       style="fill:#f3d4e5;stroke-width:2.03165" />
    <path
       class="cls-2"
       d="m 199.59945,435.59895 a 36.56962,36.56962 0 1 1 -36.56962,-36.56962 36.56962,36.56962 0 0 1 36.56962,36.56962 z"
       id="path3311"
       style="fill:#1a507d;stroke-width:2.03165" />
    <path
       class="cls-7"
       d="m 191.8792,418.73629 -4.38836,3.37253 c -0.38601,-0.83297 -0.69076,-1.44247 -0.89392,-1.78784 -0.20317,-0.34538 0,-0.46728 0,-0.69076 a 23.160759,23.160759 0 0 0 -4.28678,-11.31627 33.583101,33.583101 0 0 1 9.56906,10.42234 z m -41.75032,-14.22152 a 33.339304,33.339304 0 0 1 25.61905,0 47.763987,47.763987 0 0 1 4.51025,6.09494 c -0.69076,-0.22348 -1.50341,-0.44696 -2.41766,-0.67044 v -1.66595 a 0.56886076,0.56886076 0 1 0 -1.1174,0 v 1.42215 c -0.54854,-0.1219 -1.13772,-0.2438 -1.76753,-0.34538 v -2.03165 a 0.56886076,0.56886076 0 0 0 -1.11741,0 v 1.7269 l -1.76753,-0.2438 v -2.03164 a 0.56886076,0.56886076 0 1 0 -1.1174,0 v 1.82848 l -1.76754,-0.16253 V 406.648 a 0.56886076,0.56886076 0 1 0 -1.1174,0 v 2.03165 l -1.76753,-0.10159 v -2.21449 a 0.56886076,0.56886076 0 1 0 -1.11741,0 v 2.21449 h -1.74721 v -2.4786 a 0.56886076,0.56886076 0 0 0 -1.13772,0 v 2.37702 h -1.80817 v -2.11291 a 0.56886076,0.56886076 0 0 0 -1.13772,0 v 2.27544 h -1.74722 v -2.03164 a 0.56886076,0.56886076 0 0 0 -1.13772,0 v 2.17386 l -1.74721,0.16253 v -1.8488 a 0.56886076,0.56886076 0 1 0 -1.13772,0 v 2.03165 l -1.74722,0.26411 v -1.76753 a 0.56886076,0.56886076 0 0 0 -1.13772,0 v 2.03165 l -1.74722,0.36569 v -1.46278 a 0.56886076,0.56886076 0 1 0 -1.13772,0 v 1.605 c -0.81266,0.20316 -1.56436,0.40633 -2.19417,0.60949 a 47.763987,47.763987 0 0 1 4.51025,-6.15589 z m -6.50127,10.15823 a 25.862848,25.862848 0 0 1 4.18519,-1.44247 v 2.03165 a 0.56886076,0.56886076 0 0 0 1.13772,0 v -2.11291 l 1.74722,-0.38602 v 1.80817 a 0.56886076,0.56886076 0 0 0 1.13772,0 v -2.03165 l 1.74722,-0.28443 v 1.80817 a 0.56886076,0.56886076 0 0 0 1.13772,0 v -1.86912 l 1.74721,-0.18285 v 1.64564 a 0.56886076,0.56886076 0 0 0 1.13772,0 v -1.7269 c 0.56887,0 1.15804,0 1.74722,-0.1219 v 1.56437 a 0.56886076,0.56886076 0 0 0 1.13772,0 v -1.605 h 1.80817 v 1.46278 a 0.56886076,0.56886076 0 1 0 1.13772,0 v -1.46278 h 1.74721 v 1.605 a 0.56886076,0.56886076 0 1 0 1.11741,0 v -1.56437 h 1.76753 v 1.74722 a 0.56886076,0.56886076 0 0 0 1.1174,0 v -1.66595 l 1.7269,0.30474 v 2.03165 a 0.56886076,0.56886076 0 1 0 1.11741,0 v -2.03165 l 1.76753,0.26412 v 2.03164 a 0.56886076,0.56886076 0 1 0 1.1174,0 v -1.8488 l 1.76754,0.3657 v 2.33639 a 0.56886076,0.56886076 0 1 0 1.1174,0 v -2.03164 a 26.980253,26.980253 0 0 1 4.38836,1.50342 V 414.673 a 12.636835,12.636835 0 0 1 1.21898,4.87595 60.746203,60.746203 0 0 1 -41.18145,0 12.636835,12.636835 0 0 1 1.21899,-4.87595 z m -0.1219,-6.56221 a 23.160759,23.160759 0 0 0 -4.28677,11.31626 c 0,0.22348 0,0.44696 0,0.69076 a 17.675316,17.675316 0 0 0 -0.89392,1.78785 l -4.38836,-3.37253 a 33.583101,33.583101 0 0 1 9.56905,-10.21918 z m -13.97772,30.1293 4.57121,3.31158 c 0,1.66595 -0.16254,3.41317 -0.16254,5.28228 0,1.86911 0,3.65696 0.16254,5.62766 a 33.440886,33.440886 0 0 1 -4.57121,-14.01836 z m 4.87595,-0.32506 -4.95721,-3.37254 a 33.379937,33.379937 0 0 1 3.06778,-12.98221 l 4.6931,3.59601 a 59.059937,59.059937 0 0 0 -2.86462,12.9619 z m 17.61437,29.17443 a 33.867532,33.867532 0 0 1 -14.36373,-9.69095 c -2.17387,-19.8695 2.27544,-31.44988 3.94139,-34.94431 a 54.630949,54.630949 0 0 0 10.42234,2.74272 z m 18.71146,0.89392 a 32.343797,32.343797 0 0 1 -15.60304,0 v -42.13633 a 65.358038,65.358038 0 0 0 15.60304,0 z m 17.49246,-10.58487 a 33.867532,33.867532 0 0 1 -14.36373,9.69095 v -41.68937 a 54.630949,54.630949 0 0 0 10.42234,-2.74272 c 1.66595,3.49443 6.09494,15.07481 3.94139,34.9443 z m 0.44697,-32.50633 4.6931,-3.59602 a 33.379937,33.379937 0 0 1 3.06778,13.24633 l -4.95721,3.59602 a 59.059937,59.059937 0 0 0 -2.80367,-13.00253 z m 3.10841,27.5288 c 0,-2.03165 0.16253,-3.83982 0.16253,-5.62766 0,-1.78785 0,-3.61633 -0.16253,-5.28228 l 4.55089,-3.31158 a 33.136139,33.136139 0 0 1 -4.55089,14.46531 z"
       id="path3313"
       style="fill:#eed3aa;stroke-width:2.03165" />
  </g>
</svg>
