<?xml version="1.0" encoding="UTF-8" standalone="no"?>
<svg
   xmlns:dc="http://purl.org/dc/elements/1.1/"
   xmlns:cc="http://creativecommons.org/ns#"
   xmlns:rdf="http://www.w3.org/1999/02/22-rdf-syntax-ns#"
   xmlns:svg="http://www.w3.org/2000/svg"
   xmlns="http://www.w3.org/2000/svg"
   xmlns:sodipodi="http://sodipodi.sourceforge.net/DTD/sodipodi-0.dtd"
   xmlns:inkscape="http://www.inkscape.org/namespaces/inkscape"
   width="75.19416mm"
   height="93.133331mm"
   viewBox="0 0 284.1984 351.99999"
   version="1.1"
   id="svg5047"
   inkscape:version="1.0.1 (3bc2e813f5, 2020-09-07)"
   sodipodi:docname="tochigi.svg">
  <defs
     id="defs5041" />
  <sodipodi:namedview
     id="base"
     pagecolor="#ffffff"
     bordercolor="#666666"
     borderopacity="1.0"
     inkscape:pageopacity="0.0"
     inkscape:pageshadow="2"
     inkscape:zoom="0.35"
     inkscape:cx="228.52778"
     inkscape:cy="210.28572"
     inkscape:document-units="px"
     inkscape:current-layer="layer1"
     inkscape:document-rotation="0"
     showgrid="false"
     inkscape:window-width="1267"
     inkscape:window-height="728"
     inkscape:window-x="83"
     inkscape:window-y="0"
     inkscape:window-maximized="0" />
  <metadata
     id="metadata5044">
    <rdf:RDF>
      <cc:Work
         rdf:about="">
        <dc:format>image/svg+xml</dc:format>
        <dc:type
           rdf:resource="http://purl.org/dc/dcmitype/StillImage" />
        <dc:title></dc:title>
      </cc:Work>
    </rdf:RDF>
  </metadata>
  <g
     inkscape:label="Layer 1"
     inkscape:groupmode="layer"
     id="layer1"
     transform="translate(-146.47222,-309.71428)">
    <path
       d="m 430.67063,523.77786 v -0.24529 l -0.30663,-23.242 a 1.1038418,1.1038418 0 0 0 -0.5928,-0.91987 1.0425172,1.0425172 0 0 0 -1.06296,0 l -18.70399,13.79802 -7.44071,5.49877 -3.3524,-3.02535 -3.29109,-2.94358 c 20.58461,-34.75057 31.03022,-68.33598 31.03022,-99.7137 0,-30.66227 -4.64022,-54.51752 -14.20685,-73.07842 l -6.13246,-11.9174 a 1.0834002,1.0834002 0 0 0 -0.63368,-0.53148 1.0425172,1.0425172 0 0 0 -0.81766,0.10221 l -11.63123,6.8479 a 78.250116,78.250116 0 0 1 -38.83887,10.05723 c -22.09728,0 -42.35482,-8.58544 -55.58048,-23.52818 l -9.60751,-10.87489 a 1.0220757,1.0220757 0 0 0 -0.77678,-0.34751 1.0629587,1.0629587 0 0 0 -0.77678,0.34751 l -9.60751,10.87489 c -13.22566,14.94274 -33.4832,23.52818 -55.58047,23.52818 a 78.290999,78.290999 0 0 1 -38.83888,-10.05723 l -11.75387,-6.7457 a 1.0425172,1.0425172 0 0 0 -0.81766,-0.1022 1.0834002,1.0834002 0 0 0 -0.63369,0.53148 l -6.13245,11.9174 c -9.54619,18.56089 -14.30906,42.45703 -14.30906,73.07842 0,31.37772 10.44561,64.92224 31.03021,99.7137 l -3.29108,2.94358 -3.35241,3.02534 -7.44071,-5.49876 -9.36221,-6.90924 -6.41864,-4.74243 c -3.43417,-2.5143 -3.43417,-2.5143 -4.0883,-2.22812 a 1.0016342,1.0016342 0 0 0 -0.55192,0.91987 l -0.32707,23.22156 v 1.71708 a 141.88455,141.88455 0 0 0 19.17414,71.32045 l 5.78495,9.93457 a 1.0629587,1.0629587 0 0 0 1.39003,0.40883 l 4.53801,-2.43254 a 136.48799,136.48799 0 0 0 222.24014,0 l 4.53802,2.43254 a 1.0629587,1.0629587 0 0 0 1.39002,-0.40883 l 5.78495,-9.93457 a 141.86411,141.86411 0 0 0 19.17414,-71.3 z"
       id="path4278"
       style="stroke-width:2.04415" />
    <path
       class="cls-1"
       d="m 428.60603,523.79831 v -0.2453 l -0.28618,-21.21829 -16.9869,12.59197 -8.1766,5.98936 a 1.0220757,1.0220757 0 0 1 -1.30826,0 l -3.96565,-3.55682 -3.92477,-3.51594 a 1.0016342,1.0016342 0 0 1 -0.18398,-1.28782 c 20.66637,-34.75057 31.15287,-68.17245 31.15287,-99.40708 0,-30.27388 -4.5789,-53.86339 -13.982,-72.11767 l -5.74406,-11.03841 -10.71135,6.13245 a 80.416916,80.416916 0 0 1 -39.90184,10.22076 c -22.69008,0 -43.49954,-8.83074 -57.11359,-24.2232 l -8.78985,-9.89369 -8.85118,9.91414 c -13.63449,15.47422 -34.42351,24.30496 -57.11359,24.30496 a 80.457799,80.457799 0 0 1 -39.90183,-10.22076 l -10.71136,-6.13246 -5.64186,10.9771 c -9.40309,18.23383 -13.96155,41.84378 -13.96155,72.11766 0,31.23464 10.46606,64.67695 31.13243,99.40709 a 1.0016342,1.0016342 0 0 1 -0.18398,1.28781 l -3.92477,3.51594 -3.96565,3.55683 a 1.0220757,1.0220757 0 0 1 -1.30826,0 l -8.1766,-5.98937 -17.08911,-12.59197 c 0,5.64186 -0.28618,21.21829 -0.28618,21.21829 v 1.71709 a 139.8404,139.8404 0 0 0 18.9084,70.25748 l 5.27391,9.07603 4.49713,-2.45298 a 1.0425172,1.0425172 0 0 1 1.3287,0.30663 134.44384,134.44384 0 0 0 219.95069,0 1.0425172,1.0425172 0 0 1 1.3287,-0.30663 l 4.45625,2.37122 c 1.41047,-2.39166 5.27391,-9.07603 5.27391,-9.07603 a 139.77907,139.77907 0 0 0 18.9084,-70.25749 z"
       id="path4280"
       style="fill:#ffffff;stroke-width:2.04415" />
    <path
       class="cls-2"
       d="m 188.78619,545.30278 a 102.8617,102.8617 0 0 1 -2.04415,-19.88959 l -11.20195,10.03678 -15.94438,-11.75387 c 0,0.53148 0,1.04252 0,1.574 a 128.55668,128.55668 0 0 0 17.41617,64.77915 l 4.9264,-2.61651 a 122.64908,122.64908 0 0 1 -14.59524,-38.94108 z"
       id="path4282"
       style="fill:#005ca9;stroke-width:2.04415" />
    <path
       class="cls-2"
       d="m 417.73115,525.2701 c 0,-0.53148 0,-1.04252 0,-1.574 l -15.92394,11.75387 -11.22239,-10.03678 a 102.8617,102.8617 0 0 1 -2.04416,19.88959 l 21.40227,3.18888 a 122.64908,122.64908 0 0 1 -14.59524,38.94108 l 4.9264,2.61651 a 128.55668,128.55668 0 0 0 17.45706,-64.77915 z"
       id="path4284"
       style="fill:#005ca9;stroke-width:2.04415" />
    <path
       class="cls-3"
       d="m 388.58155,545.30278 -9.1578,-1.34914 a 92.640942,92.640942 0 0 1 -181.45932,0 l -9.17824,1.34914 -21.40227,3.18888 a 123.50763,123.50763 0 0 0 242.59989,0 z"
       id="path4286"
       style="fill:#00a13a;stroke-width:2.04415" />
    <path
       class="cls-1"
       d="m 182.4902,562.39188 c -1.30826,0.44972 -2.20768,0.7359 -2.5143,2.18725 v 0 l -1.67621,-4.53802 v 0 c 0.8381,1.00163 2.47342,0.30662 3.51594,0 l 10.22076,-3.4955 -0.67457,-2.04415 a 4.2313934,4.2313934 0 0 0 -1.86018,-2.43254 v 0 l 3.02535,-0.12265 v 0 a 5.1717031,5.1717031 0 0 0 0.12264,0.94031 l 0.20442,0.57236 2.90269,8.58544 a 2.7391629,2.7391629 0 0 0 0.53149,1.00163 v 0 l -2.98447,0.18398 v 0 c 0.69501,-0.57237 0.4906,-1.53312 0.2453,-2.28945 l -0.71545,-2.04415 z"
       id="path4288"
       style="fill:#ffffff;stroke-width:2.04415" />
    <path
       class="cls-1"
       d="m 197.69869,583.14002 a 8.6876435,8.6876435 0 0 1 -11.75387,-3.92477 8.5241114,8.5241114 0 0 1 3.33196,-11.77431 8.667202,8.667202 0 0 1 11.67211,4.0883 8.4014623,8.4014623 0 0 1 -3.2502,11.54946 m -6.92968,-13.36875 a 6.602609,6.602609 0 0 0 -3.20931,8.72852 5.9075976,5.9075976 0 0 0 8.4219,2.4121 6.4595184,6.4595184 0 0 0 3.33197,-8.64676 6.0098051,6.0098051 0 0 0 -8.54456,-2.43254 z"
       id="path4290"
       style="fill:#ffffff;stroke-width:2.04415" />
    <path
       class="cls-1"
       d="m 211.21053,592.8293 a 8.4832283,8.4832283 0 0 0 -1.65576,-4.41537 5.6214164,5.6214164 0 0 0 -8.17661,-0.85854 6.4186354,6.4186354 0 0 0 -1.57399,9.05559 11.099742,11.099742 0 0 0 4.39492,3.16843 v 0 l -3.0049,0.75634 a 8.6058774,8.6058774 0 0 1 -2.84137,-2.43254 c -3.51594,-4.53802 -3.148,-9.32133 0.98119,-12.51021 a 8.0539565,8.0539565 0 0 1 11.85608,1.63532 19.296789,19.296789 0 0 1 2.22812,3.88389 z"
       id="path4292"
       style="fill:#ffffff;stroke-width:2.04415" />
    <path
       class="cls-1"
       d="m 212.19172,601.35341 -3.0049,3.22976 c -0.73589,0.79722 -2.04415,2.04415 -1.47179,3.16843 v 0 l -3.39329,-3.14799 v 0 c 1.20605,0.4906 2.28945,-0.89943 3.04579,-1.71709 l 6.2551,-6.7457 c 0.73589,-0.79721 2.04415,-2.04415 1.49223,-3.16843 v 0 l 3.43417,3.08667 v 0 c -1.22649,-0.47016 -2.30989,0.91987 -3.08666,1.73753 l -2.04416,2.22812 6.43908,5.96892 2.04415,-2.20768 c 0.75634,-0.81766 2.04415,-2.04415 1.49223,-3.18888 v 0 l 3.39329,3.16844 v 0 c -1.22649,-0.51104 -2.33033,0.89943 -3.06622,1.69664 l -6.25511,6.76615 c -0.75633,0.79722 -2.04415,2.04415 -1.47179,3.18887 v 0 l -3.45461,-3.0049 v 0 c 1.22649,0.51104 2.30989,-0.89943 3.06623,-1.71709 l 2.98446,-3.22976 z"
       id="path4294"
       style="fill:#ffffff;stroke-width:2.04415" />
    <path
       class="cls-1"
       d="m 227.64551,608.32397 c 0.65413,-0.91987 1.83973,-2.24857 1.10384,-3.35241 v 0 l 3.7408,2.69828 v 0 c -1.24694,-0.32707 -2.18725,1.20605 -2.82093,2.04415 l -5.35568,7.44071 c -0.63369,0.89943 -1.79885,2.24857 -1.0834,3.33197 v 0 l -3.7408,-2.69828 v 0 c 1.24694,0.36795 2.1668,-1.18561 2.80049,-2.04415 z"
       id="path4296"
       style="fill:#ffffff;stroke-width:2.04415" />
    <path
       class="cls-1"
       d="m 244.7755,618.01324 v 0 a 5.9689221,5.9689221 0 0 0 -3.10711,-3.39329 6.2551033,6.2551033 0 0 0 -8.95339,2.39166 6.8274657,6.8274657 0 0 0 2.82093,9.38266 11.835637,11.835637 0 0 0 3.18888,1.22649 l 1.69664,-3.06623 c 0.53148,-0.98119 1.0834,-2.04415 0.34751,-2.96402 v 0 l 3.27064,1.79885 v 0 a 3.4137328,3.4137328 0 0 0 -0.61324,0.85855 l -2.67784,4.90596 a 2.8004874,2.8004874 0 0 0 -0.42927,1.02208 32.195385,32.195385 0 0 1 -5.45789,-2.14636 c -5.45788,-3.00491 -7.05232,-7.76778 -4.70155,-12.0605 2.35078,-4.29271 7.74734,-5.43744 12.91904,-2.61651 a 19.787386,19.787386 0 0 1 3.14799,2.20768 z"
       id="path4298"
       style="fill:#ffffff;stroke-width:2.04415" />
    <path
       class="cls-1"
       d="m 249.23175,620.58888 c 0.40883,-1.04252 1.22649,-2.63696 0.24529,-3.51595 v 0 l 4.29272,1.71709 v 0 c -1.30825,0 -1.83973,1.69665 -2.24856,2.71872 l -3.41374,8.52411 c -0.40883,1.02208 -1.20605,2.61652 -0.24529,3.4955 v 0 l -4.29272,-1.71708 v 0 c 1.30825,0 1.83973,-1.69665 2.24856,-2.69828 z"
       id="path4300"
       style="fill:#ffffff;stroke-width:2.04415" />
    <path
       class="cls-1"
       d="m 272.04448,626.51691 a 5.5192088,5.5192088 0 0 0 -3.43418,-2.269 c -1.36958,-0.28618 -3.18887,0 -3.51594,1.53311 -0.67457,3.27064 7.54292,4.90596 6.64349,9.32133 -0.53148,2.53475 -3.67947,4.37448 -7.39982,3.61815 a 12.121818,12.121818 0 0 1 -4.08831,-1.59444 v -3.10711 a 8.5649944,8.5649944 0 0 0 4.8242,3.04579 c 1.34914,0.26574 3.57726,-0.12265 3.90433,-1.77842 0.77678,-3.72035 -7.56336,-4.74243 -6.54129,-9.79148 0.61325,-3.0049 3.92478,-3.51594 6.82747,-2.92314 a 12.040052,12.040052 0 0 1 3.45462,1.24693 z"
       id="path4302"
       style="fill:#ffffff;stroke-width:2.04415" />
    <path
       class="cls-1"
       d="m 293.26277,632.97643 a 8.6876435,8.6876435 0 0 1 -9.28045,8.17661 8.5445529,8.5445529 0 0 1 -8.54455,-8.81029 8.6263189,8.6263189 0 0 1 9.44398,-7.99264 8.4014623,8.4014623 0 0 1 8.38102,8.58544 m -15.04496,-0.69501 a 6.5821675,6.5821675 0 0 0 5.94848,7.15453 5.9075976,5.9075976 0 0 0 6.31643,-6.13246 6.5004015,6.5004015 0 0 0 -5.84627,-7.23629 5.9893636,5.9893636 0 0 0 -6.41864,6.2551 z"
       id="path4304"
       style="fill:#ffffff;stroke-width:2.04415" />
    <path
       class="cls-1"
       d="m 308.2464,626.21029 a 8.5445529,8.5445529 0 0 0 -4.66067,-0.79722 5.6009748,5.6009748 0 0 0 -4.86508,6.68438 6.3981939,6.3981939 0 0 0 7.01144,5.92804 10.772678,10.772678 0 0 0 4.94685,-2.20769 v 0 l -0.85855,2.96402 a 8.7285265,8.7285265 0 0 1 -3.55682,1.18561 c -5.70318,0.75634 -9.64839,-2.04415 -10.22076,-7.15453 a 8.0539565,8.0539565 0 0 1 7.39983,-9.4031 20.441514,20.441514 0 0 1 4.47669,0 z"
       id="path4306"
       style="fill:#ffffff;stroke-width:2.04415" />
    <path
       class="cls-1"
       d="m 323.43444,622.08111 a 8.4219038,8.4219038 0 0 0 -4.72199,0 5.5805333,5.5805333 0 0 0 -3.80212,7.3385 6.3981939,6.3981939 0 0 0 7.8291,4.78331 10.752236,10.752236 0 0 0 4.55846,-2.92313 v 0 l -0.40883,3.06622 a 8.5445529,8.5445529 0 0 1 -3.33197,1.73753 c -5.51921,1.59444 -9.83237,-0.49059 -11.28371,-5.49876 a 8.1766056,8.1766056 0 0 1 5.86671,-10.44562 19.03105,19.03105 0 0 1 4.41537,-0.63369 z"
       id="path4308"
       style="fill:#ffffff;stroke-width:2.04415" />
    <path
       class="cls-1"
       d="m 333.92094,629.48093 2.94358,-1.00163 a 6.1324542,6.1324542 0 0 0 3.51594,-3.16844 v 0 l 0.32706,3.37285 -9.09647,4.17007 v 0 c 0.94031,-0.91986 0,-2.49386 -0.38839,-3.4955 l -3.78168,-8.36057 c -0.47016,-1.02208 -1.06296,-2.69828 -2.39166,-2.61652 v 0 l 7.11365,-3.22976 a 2.3098911,2.3098911 0 0 0 0.98119,-0.57236 v 0 l 1.18561,2.59607 v 0 a 3.4546159,3.4546159 0 0 0 -3.02534,0.28618 15.842173,15.842173 0 0 0 -2.18725,1.18561 l 1.86018,4.0883 2.63696,-1.20605 a 2.0441514,2.0441514 0 0 0 0.91986,-0.57236 v 0 l 1.0834,2.35078 v 0 c -0.63368,-0.47016 -1.55355,0 -2.24856,0.28618 l -1.63532,0.73589 z"
       id="path4310"
       style="fill:#ffffff;stroke-width:2.04415" />
    <path
       class="cls-1"
       d="m 341.66827,609.63222 c 2.75961,-1.73753 5.17171,-1.22649 6.33687,0.65413 a 4.7219897,4.7219897 0 0 1 -1.00163,5.68274 l 5.31479,1.88062 a 17.477494,17.477494 0 0 0 5.15126,0.77678 l -1.90106,1.20605 a 3.1888762,3.1888762 0 0 1 -3.04578,0.44971 l -4.45625,-1.53311 -3.72036,-1.71709 c 1.49223,-1.28781 2.92314,-3.2502 1.71709,-5.19214 a 2.7800459,2.7800459 0 0 0 -4.0883,-0.61325 10.445614,10.445614 0 0 0 -1.30826,1.04252 l 5.78495,9.23956 c 0.5928,0.94031 1.41046,2.53475 2.69828,2.24857 v 0 l -3.94522,2.47342 v 0 c 0.83811,-1.04251 -0.26573,-2.47342 -0.85854,-3.39329 l -4.86508,-7.78822 c -0.5928,-0.9403 -1.39002,-2.53474 -2.69828,-2.269 v 0 z"
       id="path4312"
       style="fill:#ffffff;stroke-width:2.04415" />
    <path
       class="cls-1"
       d="m 365.17601,594.01491 a 8.6467604,8.6467604 0 0 0 -4.0883,2.18724 5.5805333,5.5805333 0 0 0 0.16353,8.1766 6.3777524,6.3777524 0 0 0 9.1578,0.47016 10.731795,10.731795 0 0 0 2.49387,-4.70155 v 0 l 1.10384,2.88225 a 8.9125001,8.9125001 0 0 1 -2.04415,3.10711 c -4.08831,4.08831 -8.87162,4.2314 -12.53065,0.53148 a 8.1766056,8.1766056 0 0 1 0.18397,-11.95828 20.666371,20.666371 0 0 1 3.57727,-2.67784 z"
       id="path4314"
       style="fill:#ffffff;stroke-width:2.04415" />
    <path
       class="cls-1"
       d="m 380.28229,592.95195 a 5.9689221,5.9689221 0 0 0 1.43091,-4.3336 v 0 l 1.79885,2.98446 -6.13245,7.95175 v 0 c 0.40883,-1.24694 -1.12429,-2.22813 -2.04415,-2.88226 l -7.29762,-5.56009 c -0.89943,-0.67457 -2.20769,-1.88062 -3.33197,-1.16516 v 0 l 2.82093,-3.69992 v 0 c -0.38839,1.26738 1.14472,2.22813 2.04415,2.88226 l 8.4219,6.43907 z"
       id="path4316"
       style="fill:#ffffff;stroke-width:2.04415" />
    <path
       class="cls-1"
       d="m 390.58482,576.59874 a 6.602609,6.602609 0 0 1 -4.08831,8.1766 6.3368694,6.3368694 0 0 1 -4.80375,-1.20605 l -5.70318,-3.10711 c -0.96076,-0.53148 -2.43255,-1.53311 -3.43418,-0.67457 v 0 l 2.22813,-4.0883 v 0 c -0.18398,1.28782 1.45134,2.04415 2.41209,2.53475 l 5.70319,3.10711 c 2.84137,1.55355 4.80375,1.0834 6.0098,-1.10384 a 4.2722764,4.2722764 0 0 0 0.20442,-3.94522 3.1684347,3.1684347 0 0 0 -1.69665,-1.51267 l -6.41863,-3.51594 c -0.96076,-0.51104 -2.45299,-1.49223 -3.43418,-0.65413 v 0 l 2.20769,-4.0883 v 0 c -0.18398,1.30826 1.4309,2.04415 2.41209,2.55519 l 8.05396,4.41537 c 0.96075,0.51103 2.45298,1.49223 3.45462,0.63368 v 0 l -1.71709,3.12756 z"
       id="path4318"
       style="fill:#ffffff;stroke-width:2.04415" />
    <path
       class="cls-1"
       d="m 384.04353,564.59957 c -1.02207,-0.38839 -2.63695,-1.14473 -3.4955,-0.12265 v 0 l 2.04415,-5.43744 c 1.06296,-3.02535 2.98447,-4.3336 5.02862,-3.61815 a 3.4341744,3.4341744 0 0 1 2.1668,3.37285 4.4358085,4.4358085 0 0 1 5.39656,-2.28945 4.8650803,4.8650803 0 0 1 3.02534,4.0883 12.264908,12.264908 0 0 1 -1.12428,5.39656 l -1.34914,3.78168 v 0 c 0,-1.28781 -1.75797,-1.75797 -2.80049,-2.04415 l -8.6672,-3.08667 m 11.79475,-0.69501 a 3.2502007,3.2502007 0 0 0 -1.51267,-4.80376 c -2.22813,-0.79722 -3.96565,1.02208 -4.5789,3.06623 l -0.47015,1.65576 5.6623,2.04416 0.89942,-1.94195 m -7.80866,-1.39002 c 0.53148,-1.49223 0.77678,-3.80212 -1.10384,-4.47669 a 2.5551893,2.5551893 0 0 0 -3.27064,2.04415 l -0.38839,1.59444 4.49713,1.59443 z"
       id="path4320"
       style="fill:#ffffff;stroke-width:2.04415" />
    <path
       class="cls-2"
       d="m 308.12375,544.42379 c 0,-21.03431 14.06376,-35.73176 34.19865,-35.73176 a 67.456996,67.456996 0 0 1 16.65984,2.43254 l 3.0049,0.75633 v 21.27962 l -6.23466,-4.25184 a 24.529817,24.529817 0 0 0 -13.67538,-4.57889 15.167603,15.167603 0 0 0 -10.93621,4.3336 20.11445,20.11445 0 0 0 -5.21258,14.30906 23.773481,23.773481 0 0 0 6.39819,16.86425 15.780849,15.780849 0 0 0 7.84954,4.37448 c 34.2191,-38.04166 72.89444,-93.72434 72.89444,-151.2672 0,-29.45623 -4.55846,-50.98114 -12.6533,-66.72111 a 92.191228,92.191228 0 0 1 -45.76855,11.89696 c -26.90103,0 -50.79716,-11.0793 -65.96476,-28.20929 -15.1676,17.12999 -39.06373,28.20929 -65.96477,28.20929 a 92.191228,92.191228 0 0 1 -45.76855,-11.89696 c -8.1766,15.73997 -12.6533,37.26488 -12.6533,66.72111 0,57.76771 39.08418,113.75702 73.44637,151.81912 a 30.273882,30.273882 0 0 0 5.84627,0.63369 c 4.0883,0 10.22076,-2.24857 10.22076,-5.60098 0,-3.69991 -4.80376,-5.96892 -12.73507,-9.23956 -9.62795,-3.84301 -21.54535,-8.78985 -21.54535,-21.95419 0,-12.26491 11.40636,-20.05312 29.04739,-20.05312 a 57.624628,57.624628 0 0 1 15.98526,2.18724 l 2.88226,0.8381 v 22.71052 l -6.7457,-6.39819 a 19.664737,19.664737 0 0 0 -12.91904,-4.70155 12.264908,12.264908 0 0 0 -8.05396,2.28945 2.7596044,2.7596044 0 0 0 -0.81766,2.04415 c 0,3.18888 6.78658,6.13246 12.79639,8.60588 9.58707,4.0883 21.52491,9.09647 21.52491,20.91167 a 19.869152,19.869152 0 0 1 -6.13245,13.92067 31.86832,31.86832 0 0 1 -15.82173,8.1766 433.56451,433.56451 0 0 0 37.40797,34.40307 436.16058,436.16058 0 0 0 39.493,-36.38589 32.011411,32.011411 0 0 1 -10.3434,-6.82747 c -6.35731,-6.35731 -9.70972,-15.31069 -9.70972,-25.8994 z"
       id="path4322"
       style="fill:#005ca9;stroke-width:2.04415" />
    <polygon
       class="cls-3"
       points="118.67,61.34 121.33,61.34 120,48.43 "
       id="polygon4324"
       transform="matrix(2.0441514,0,0,2.0441514,43.385704,240.37671)"
       style="fill:#00a13a" />
    <path
       class="cls-3"
       d="m 277.78854,412.28985 2.37122,-0.89943 -0.65413,-12.26491 -9.03515,-20.44151 a 6.7252581,6.7252581 0 0 0 -3.51594,1.51267 7.7882168,7.7882168 0 0 1 -1.34914,1.0834 h -0.16353 l 4.45625,20.87079 7.89042,12.2649 z"
       id="path4326"
       style="fill:#00a13a;stroke-width:2.04415" />
    <path
       class="cls-3"
       d="m 262.66182,368.11573 a 15.944381,15.944381 0 0 1 1.04252,-2.84137 h 0.75633 l -4.82419,-10.85444 2.98446,13.85934 z"
       id="path4328"
       style="fill:#00a13a;stroke-width:2.04415" />
    <path
       class="cls-3"
       d="m 227.35933,359.32588 19.39899,33.4832 a 74.427553,74.427553 0 0 1 13.96156,9.85281 64.043263,64.043263 0 0 1 6.76614,6.991 l -3.82256,-9.83237 z"
       id="path4330"
       style="fill:#00a13a;stroke-width:2.04415" />
    <polygon
       class="cls-3"
       points="131.85,61.1 133.07,61.1 134.21,55.79 "
       id="polygon4332"
       transform="matrix(2.0441514,0,0,2.0441514,43.385704,240.37671)"
       style="fill:#00a13a" />
    <path
       class="cls-3"
       d="m 299.41566,412.96442 v 1.77841 l 8.03352,-12.42844 4.47669,-20.89123 h -1.65576 a 24.366285,24.366285 0 0 1 -2.71872,-0.10221 l -0.83811,-2.04415 -8.83073,19.93048 -0.67457,12.26491 0.2453,0.16353 a 11.242833,11.242833 0 0 1 1.96238,1.3287 z"
       id="path4334"
       style="fill:#00a13a;stroke-width:2.04415" />
    <path
       class="cls-3"
       d="m 348.10735,426.742 a 17.191313,17.191313 0 0 1 -1.26737,3.02534 l 41.14876,-18.23383 -37.67371,8.17661 q -1.53311,1.22649 -3.18887,2.39165 a 4.8855219,4.8855219 0 0 1 0.98119,4.64023 z"
       id="path4336"
       style="fill:#00a13a;stroke-width:2.04415" />
    <path
       class="cls-3"
       d="m 337.13026,439.08867 a 38.021216,38.021216 0 0 1 -11.48813,4.0883 54.783258,54.783258 0 0 0 -6.72526,1.67621 l 15.00407,4.0883 48.79389,-5.15126 z"
       id="path4338"
       style="fill:#00a13a;stroke-width:2.04415" />
    <path
       class="cls-3"
       d="m 309.90216,409.69377 a 62.735007,62.735007 0 0 1 6.78658,-7.03188 74.427553,74.427553 0 0 1 13.96156,-9.85281 l 19.35811,-33.4832 -36.30413,40.49464 z"
       id="path4340"
       style="fill:#00a13a;stroke-width:2.04415" />
    <path
       class="cls-3"
       d="m 229.26039,426.742 a 4.8855219,4.8855219 0 0 1 0.98119,-4.74243 q -1.65576,-1.16517 -3.18888,-2.39166 l -37.67371,-8.17661 41.14877,18.23383 a 17.191313,17.191313 0 0 1 -1.26737,-2.92313 z"
       id="path4342"
       style="fill:#00a13a;stroke-width:2.04415" />
    <path
       class="cls-3"
       d="m 348.35265,525.31098 -1.24693,-0.34751 2.94357,3.29109 z"
       id="path4344"
       style="fill:#00a13a;stroke-width:2.04415" />
    <path
       class="cls-3"
       d="m 305.87518,467.44105 7.8291,20.31887 19.7465,21.99507 a 38.021216,38.021216 0 0 1 5.35568,-0.89943 l -16.04659,-27.67781 z"
       id="path4346"
       style="fill:#00a13a;stroke-width:2.04415" />
    <path
       class="cls-3"
       d="m 312.23249,460.12299 c -0.2453,0.34751 -0.49059,0.67457 -0.75633,0.98119 l 10.85444,13.36875 42.37526,24.52982 -36.44722,-32.70642 z"
       id="path4348"
       style="fill:#00a13a;stroke-width:2.04415" />
    <path
       class="cls-3"
       d="m 305.03708,481.40261 v 5.417 l -6.13245,-3.86345 a 12.121818,12.121818 0 0 0 -1.3287,-0.73589 l 0.32706,6.13245 3.31153,7.46115 h 0.18397 a 7.318062,7.318062 0 0 1 1.06296,-0.53148 h 7.11365 l -2.49387,5.47833 -1.69664,3.843 a 2.0441514,2.0441514 0 0 0 -0.16354,0.38839 l 8.38102,18.9084 a 26.246904,26.246904 0 0 1 1.61488,-2.33033 l -7.76777,-36.30413 z"
       id="path4350"
       style="fill:#00a13a;stroke-width:2.04415" />
    <polygon
       class="cls-3"
       points="144.24,104.51 133.6,103.93 142.54,109.72 168.58,115.3 "
       id="polygon4352"
       transform="matrix(2.0441514,0,0,2.0441514,43.385704,240.37671)"
       style="fill:#00a13a" />
    <path
       class="cls-3"
       d="m 290.38051,511.2881 v -1.26737 a 27.963991,27.963991 0 0 1 -3.31152,-0.55193 v 1.92151 l -1.77841,0.67457 c 0,0.51104 0,1.22649 0,1.65576 v 1.34914 0.40883 h 6.78658 l 0.12265,-1.16517 v -0.65412 a 14.186411,14.186411 0 0 0 0,-1.59444 11.815195,11.815195 0 0 1 -1.8193,-0.77678 z"
       id="path4354"
       style="fill:#00a13a;stroke-width:2.04415" />
    <polygon
       class="cls-3"
       points="118.89,139.9 119.2,142.88 120.8,142.88 121.11,139.9 "
       id="polygon4356"
       transform="matrix(2.0441514,0,0,2.0441514,43.385704,240.37671)"
       style="fill:#00a13a" />
    <path
       class="cls-3"
       d="m 286.84413,482.79263 a 7.1749714,7.1749714 0 0 0 -1.24693,1.81929 l -0.85854,3.20932 c 0,0.30662 0,0.61325 0,0.94031 a 10.220757,10.220757 0 0 0 2.80048,7.2363 7.6451262,7.6451262 0 0 0 5.53965,2.26901 h 0.83811 l 0.42927,-4.08831 -3.61815,-13.26654 a 6.9501148,6.9501148 0 0 0 -3.88389,1.88062 z"
       id="path4358"
       style="fill:#00a13a;stroke-width:2.04415" />
    <path
       class="cls-3"
       d="m 263.66346,487.71903 7.8291,-20.31886 -16.8847,13.7367 -16.4963,28.43414 a 45.972965,45.972965 0 0 1 6.78659,-0.96075 z"
       id="path4360"
       style="fill:#00a13a;stroke-width:2.04415" />
    <path
       class="cls-3"
       d="m 249.1091,466.31677 -36.44722,32.70642 42.37526,-24.52982 10.85444,-13.36875 c -0.26574,-0.30662 -0.51104,-0.63368 -0.75634,-0.98119 z"
       id="path4362"
       style="fill:#00a13a;stroke-width:2.04415" />
    <polygon
       class="cls-3"
       points="97.46,109.72 106.4,103.93 95.76,104.5 71.42,115.3 "
       id="polygon4364"
       transform="matrix(2.0441514,0,0,2.0441514,43.385704,240.37671)"
       style="fill:#00a13a" />
    <path
       class="cls-3"
       d="m 258.45087,444.79185 a 58.748911,58.748911 0 0 0 -6.72526,-1.6762 38.021216,38.021216 0 0 1 -11.48813,-4.0883 l -45.58458,4.76287 48.7939,5.08994 z"
       id="path4366"
       style="fill:#00a13a;stroke-width:2.04415" />
    <path
       class="cls-3"
       d="m 276.41896,475.45413 a 18.070298,18.070298 0 0 1 4.0883,-3.37285 v -1.00164 l -1.0834,-0.3475 z"
       id="path4368"
       style="fill:#00a13a;stroke-width:2.04415" />
    <polygon
       class="cls-3"
       points="106.75,141.06 106.34,140.67 105.79,143.23 "
       id="polygon4370"
       transform="matrix(2.0441514,0,0,2.0441514,43.385704,240.37671)"
       style="fill:#00a13a" />
    <path
       class="cls-3"
       d="m 267.44514,511.55384 v 4.0883 l 6.66393,-15.02451 a 21.320499,21.320499 0 0 1 -2.88225,-11.05886 22.710522,22.710522 0 0 1 1.86017,-9.13736 l -3.16843,4.92641 -5.45789,25.42924 v 0 z"
       id="path4372"
       style="fill:#00a13a;stroke-width:2.04415" />
    <path
       class="cls-3"
       d="m 263.45904,524.98391 a 23.732598,23.732598 0 0 0 -15.67864,-5.82583 c -5.68274,0 -12.87815,2.04415 -12.87815,8.40146 0,12.63286 34.34174,12.44889 34.34174,29.51755 0,9.87325 -11.18151,19.09238 -26.75794,19.09238 a 55.989307,55.989307 0 0 1 -17.86589,-2.75961 l -2.88225,-11.52901 a 36.222363,36.222363 0 0 0 21.85198,7.60424 c 5.68274,0 14.30906,-3.12755 14.30906,-9.58707 0,-14.30906 -34.3213,-11.8152 -34.3213,-31.35728 0,-11.63122 12.85771,-16.06703 25.04085,-16.06703 a 53.904273,53.904273 0 0 1 14.88142,2.04415 z"
       id="path4374"
       style="fill:#00a13a;stroke-width:2.04415" />
    <path
       class="cls-3"
       d="m 358.00104,525.59716 a 28.61812,28.61812 0 0 0 -15.92394,-5.25347 c -11.87652,0 -20.15533,9.32133 -20.15533,22.69008 0,13.36875 8.60588,25.6541 21.87242,25.6541 a 35.997506,35.997506 0 0 0 18.39736,-5.82583 h 0.26574 l -4.45625,10.71135 a 28.842976,28.842976 0 0 1 -13.0008,2.75961 c -20.31887,0 -32.8904,-12.1627 -32.8904,-31.90921 0,-19.09237 12.57153,-31.74567 30.21256,-31.74567 a 64.595184,64.595184 0 0 1 15.67864,2.30989 z"
       id="path4376"
       style="fill:#00a13a;stroke-width:2.04415" />
    <path
       class="cls-4"
       d="m 311.16953,425.78125 a 51.655706,51.655706 0 0 1 19.82827,-16.00571 c 21.93375,-9.30089 29.45622,-19.01061 38.83888,-34.38263 1.53311,-2.49386 0.57236,-3.33197 -1.8193,-1.30826 -23.13979,19.60342 -32.91083,17.55927 -48.67124,31.54126 a 60.833946,60.833946 0 0 0 -12.63286,15.63776 26.103813,26.103813 0 0 1 2.04416,1.88062 31.111984,31.111984 0 0 1 2.41209,2.63696 z"
       id="path4378"
       style="fill:#ffed00;stroke-width:2.04415" />
    <path
       class="cls-4"
       d="m 330.46632,426.39449 c 13.90023,-5.60097 26.24691,-15.00407 29.92638,-27.16677 0.5928,-2.04415 0.40883,-2.59607 -1.02208,-1.20605 -13.92067,13.38919 -23.26244,14.47259 -34.60748,21.79065 a 59.464364,59.464364 0 0 0 -11.28371,9.48487 28.434146,28.434146 0 0 1 2.22812,5.11038 76.55347,76.55347 0 0 1 14.75877,-8.01308 z"
       id="path4380"
       style="fill:#ffed00;stroke-width:2.04415" />
    <path
       class="cls-4"
       d="m 324.92667,439.27265 c 8.48323,-1.55356 17.21176,-6.41864 19.37856,-13.67538 0.3475,-1.16516 -0.53148,-1.53311 -1.39002,-0.85854 -7.95175,6.13245 -12.26491,6.41863 -19.54209,9.1578 a 32.031852,32.031852 0 0 0 -6.84791,3.69991 27.432512,27.432512 0 0 1 0.47016,3.67947 58.421847,58.421847 0 0 1 7.9313,-2.00326 z"
       id="path4382"
       style="fill:#ffed00;stroke-width:2.04415" />
    <path
       class="cls-4"
       d="M 270.71578,421.30455 A 60.649972,60.649972 0 0 0 258.0216,405.62591 c -15.76041,-13.98199 -25.53145,-11.93784 -48.67125,-31.54126 -2.39165,-2.04415 -3.35241,-1.1856 -1.81929,1.30826 9.48486,15.37202 17.00734,25.08174 38.83887,34.38263 a 51.369525,51.369525 0 0 1 19.82827,16.02615 27.841342,27.841342 0 0 1 4.51758,-4.49714 z"
       id="path4384"
       style="fill:#ffed00;stroke-width:2.04415" />
    <path
       class="cls-4"
       d="m 252.6046,419.89409 c -11.34504,-7.31806 -20.68682,-8.40146 -34.60749,-21.79065 -1.4309,-1.39003 -1.61488,-0.75634 -1.02207,1.20605 3.67947,12.2649 16.02614,21.56579 29.92637,27.16677 a 77.207599,77.207599 0 0 1 14.77922,8.09484 27.064565,27.064565 0 0 1 2.22812,-5.11038 61.017919,61.017919 0 0 0 -11.30415,-9.56663 z"
       id="path4386"
       style="fill:#ffed00;stroke-width:2.04415" />
    <path
       class="cls-4"
       d="m 253.93329,433.89653 c -7.21585,-2.73917 -11.59033,-2.92314 -19.54208,-9.1578 -0.85855,-0.67457 -1.73753,-0.30662 -1.39003,0.85854 2.1668,7.25674 10.89533,12.12182 19.37856,13.67538 a 58.421847,58.421847 0 0 1 7.93131,2.04415 26.717059,26.717059 0 0 1 0.49059,-3.65903 33.197019,33.197019 0 0 0 -6.86835,-3.76124 z"
       id="path4388"
       style="fill:#ffed00;stroke-width:2.04415" />
    <path
       class="cls-1"
       d="m 293.01747,502.21207 c -7.46115,0 -12.26491,-6.33687 -12.26491,-13.45052 0,-7.11365 4.64022,-11.9174 11.3246,-11.9174 a 16.7416,16.7416 0 0 1 8.87162,2.69828 v -5.56009 a 38.61402,38.61402 0 0 0 -8.8103,-1.20605 c -9.91413,0 -16.98689,6.62305 -16.98689,16.63939 0,10.36385 7.07276,16.76204 18.39736,16.76204 a 17.129989,17.129989 0 0 0 7.29762,-1.45135 l 2.47342,-5.62141 h -0.14309 a 21.381824,21.381824 0 0 1 -10.15943,3.10711 z"
       id="path4390"
       style="fill:#ffffff;stroke-width:2.04415" />
    <path
       class="cls-1"
       d="m 294.34617,508.65114 c 2.04415,0.77678 1.79885,3.78168 1.79885,5.68275 v 5.08993 H 281.30448 V 514.293 c 0,-1.90106 -0.2453,-4.90596 1.79886,-5.68274 v -0.12265 h -7.80866 v 0.12265 c 2.04415,0.77678 1.79885,3.78168 1.79885,5.64186 v 15.55599 c 0,1.83974 0.2453,4.84464 -1.79885,5.64186 v 0.12265 h 7.80866 v -0.12265 c -2.04416,-0.79722 -1.79886,-3.80212 -1.79886,-5.64186 v -7.3385 h 14.84054 v 7.46115 c 0,1.83974 0.28618,4.84464 -1.79885,5.64186 v 0.12265 h 7.84954 v -0.12265 c -2.04415,-0.79722 -1.83974,-3.80212 -1.83974,-5.64186 V 514.293 c 0,-1.86018 -0.2453,-4.86508 1.83974,-5.64186 v -0.12264 h -7.84954 z"
       id="path4392"
       style="fill:#ffffff;stroke-width:2.04415" />
    <path
       class="cls-1"
       d="m 285.51543,559.26433 v 0.10221 h 6.6435 v -0.10221 c -1.73753,-0.65413 -1.53312,-3.20931 -1.53312,-4.78331 v -13.18478 c 0,-1.57399 -0.20441,-4.0883 1.53312,-4.84464 v -0.1022 h -6.6435 v 0.1022 c 1.77842,0.67457 1.53312,3.22976 1.53312,4.84464 v 13.18478 c 0,1.63532 0.22485,4.23139 -1.53312,4.78331 z"
       id="path4394"
       style="fill:#ffffff;stroke-width:2.04415" />
    <path
       class="cls-1"
       d="m 293.95778,571.63145 c 1.34914,0.53148 1.36958,2.04415 1.36958,3.37285 v 4.27228 a 14.922305,14.922305 0 0 1 -4.0883,0.57236 8.3810208,8.3810208 0 0 1 -8.50367,-8.42191 7.6655678,7.6655678 0 0 1 8.1766,-7.8291 7.277179,7.277179 0 0 1 5.29436,1.79886 v 0 -3.43418 a 22.28125,22.28125 0 0 0 -4.66067,-0.49059 c -7.19541,0 -12.26491,3.98609 -12.26491,10.36384 0,5.98937 4.49714,10.22076 12.10138,10.22076 a 38.021216,38.021216 0 0 0 7.11365,-0.87898 3.3524083,3.3524083 0 0 1 -0.1431,-1.34914 v -6.82747 a 3.7203556,3.7203556 0 0 1 0.1431,-1.28781 v 0 h -4.55846 z"
       id="path4396"
       style="fill:#ffffff;stroke-width:2.04415" />
    <path
       class="cls-1"
       d="m 286.63972,584.03945 c 1.28781,0.47015 1.12428,2.33033 1.12428,3.47506 v 9.54618 c 0,1.12429 0.14309,3.00491 -1.12428,3.45462 v 0 h 4.80375 v 0 c -1.26737,-0.4906 -1.10384,-2.33033 -1.10384,-3.45462 v -9.54618 c 0,-1.12429 -0.16353,-3.00491 1.10384,-3.47506 v 0 z"
       id="path4398"
       style="fill:#ffffff;stroke-width:2.04415" />
    <path
       class="cls-1"
       d="m 308.77788,423.14429 a 28.209289,28.209289 0 0 0 -13.32787,-7.48159 v -0.63369 c -3.65903,-2.04415 -3.59771,-4.84464 -3.59771,-8.78985 V 374.6979 h 12.46933 c 2.269,0 5.04905,0.3475 5.94848,2.78005 h 0.20441 l 2.20769,-8.17661 h -0.20442 a 7.8086584,7.8086584 0 0 1 -3.18888,0.4906 h -39.9836 a 11.34504,11.34504 0 0 1 -2.63695,-0.4906 h -0.20442 l -2.43254,8.17661 h 0.22486 a 11.87652,11.87652 0 0 1 8.1766,-2.78005 h 12.26491 v 30.86669 c 0,3.10711 0.40883,8.1766 -3.04578,9.46442 v 0.67457 a 28.393263,28.393263 0 1 0 27.02368,7.44071 z"
       id="path4400"
       style="fill:#ffffff;stroke-width:2.04415" />
    <path
       d="m 306.38622,425.51551 a 25.020413,25.020413 0 1 0 7.3385,17.70235 24.877323,24.877323 0 0 0 -7.3385,-17.70235 z m -16.35321,0.16353 5.76451,-3.67947 a 22.097277,22.097277 0 0 1 8.76941,5.417 20.850344,20.850344 0 0 1 2.24856,2.61651 l -1.77841,6.37775 -8.17661,2.63696 -7.01144,-5.08994 z m -17.06867,1.73753 a 22.097277,22.097277 0 0 1 8.76941,-5.417 l 5.76451,3.67947 v 8.1766 l -6.991,5.19215 -8.1766,-2.63696 -1.65577,-6.37775 a 20.850344,20.850344 0 0 1 2.20769,-2.61651 z m -2.30989,28.9043 a 22.485665,22.485665 0 0 1 -4.25183,-12.95992 l 5.27391,-4.35404 8.44234,2.73916 2.45299,7.60424 -5.35568,7.35895 z m 24.89777,8.1766 a 22.608315,22.608315 0 0 1 -13.57317,0 l -2.49386,-6.35731 5.33523,-7.35894 h 7.89043 l 5.33523,7.35894 z m 4.76287,-7.8291 -5.35568,-7.35894 2.45299,-7.60424 8.44234,-2.73917 5.27391,4.35405 a 22.485665,22.485665 0 0 1 -4.25183,12.95992 z"
       id="path4402"
       style="stroke-width:2.04415" />
  </g>
</svg>
