<svg xmlns="http://www.w3.org/2000/svg" viewBox="0 0 154 200" width="154" height="200">
	<style>
		tspan { white-space:pre }
		.shp0 { fill: #211915 } 
		.shp1 { fill: #ffffff } 
		.shp2 { fill: #0056b3 } 
	</style>
	<g >
		<path class="shp0" d="M0.07 69.32C0.07 114.66 0.09 139.03 0.13 139.77C0.17 140.39 0.25 141.35 0.3 141.9C0.36 142.45 0.45 143.22 0.5 143.6C0.56 143.99 0.74 144.97 0.9 145.8C1.07 146.63 1.32 147.75 1.46 148.3C1.6 148.85 1.86 149.75 2.03 150.3C2.2 150.85 2.56 151.9 2.83 152.63C3.1 153.37 3.56 154.54 3.86 155.23C4.16 155.93 4.71 157.11 5.08 157.87C5.45 158.62 5.98 159.62 6.25 160.1C6.52 160.58 6.97 161.36 7.25 161.83C7.54 162.31 8.17 163.3 8.66 164.03C9.14 164.77 9.86 165.8 10.24 166.33C10.62 166.85 11.38 167.84 11.93 168.53C12.47 169.21 13.26 170.17 13.69 170.67C14.11 171.16 14.85 171.99 15.33 172.5C15.81 173.01 16.91 174.12 17.76 174.96C18.62 175.81 19.86 176.98 20.52 177.56C21.18 178.15 22.27 179.09 22.94 179.64C23.62 180.19 24.78 181.11 25.53 181.68C26.28 182.25 27.27 182.98 27.73 183.31C28.19 183.64 29.1 184.27 29.76 184.71C30.41 185.15 31.39 185.78 31.92 186.11C32.45 186.44 33.43 187.05 34.11 187.45C34.79 187.85 35.84 188.46 36.44 188.79C37.04 189.13 38.39 189.83 39.43 190.36C40.47 190.89 41.98 191.62 42.79 191.99C43.59 192.35 44.75 192.86 45.35 193.12C45.95 193.37 46.81 193.73 47.24 193.9C47.68 194.07 48.51 194.39 49.07 194.6C49.64 194.81 50.58 195.15 51.17 195.35C51.75 195.56 52.61 195.84 53.06 195.99C53.52 196.14 54.34 196.39 54.89 196.56C55.44 196.72 56.5 197.03 57.25 197.23C58 197.43 59.48 197.8 60.54 198.03C61.6 198.27 63.2 198.6 64.1 198.76C65 198.92 66.15 199.12 66.66 199.19C67.17 199.27 68.25 199.41 69.05 199.5C69.86 199.59 71.12 199.71 71.85 199.76C72.58 199.82 73.76 199.89 74.47 199.93C75.19 199.97 76.34 200 77.03 200C77.73 200 78.88 199.97 79.59 199.93C80.31 199.9 81.49 199.82 82.22 199.76C82.95 199.71 84.21 199.59 85.01 199.49C85.82 199.4 86.88 199.27 87.37 199.2C87.87 199.12 88.61 199 89.04 198.93C89.46 198.85 90.28 198.7 90.86 198.59C91.45 198.48 92.53 198.25 93.26 198.09C93.99 197.93 95.07 197.67 95.65 197.53C96.24 197.38 97.19 197.12 97.78 196.96C98.36 196.79 99.28 196.52 99.81 196.36C100.34 196.19 101.28 195.89 101.9 195.69C102.52 195.48 103.59 195.11 104.26 194.86C104.94 194.62 105.99 194.22 106.59 193.98C107.19 193.74 108.2 193.33 108.82 193.07C109.44 192.8 110.7 192.24 111.61 191.82C112.52 191.4 113.98 190.7 114.84 190.25C115.69 189.81 116.76 189.25 117.2 189.01C117.63 188.77 118.31 188.4 118.69 188.18C119.08 187.96 120.03 187.39 120.82 186.91C121.61 186.43 122.94 185.59 123.78 185.04C124.62 184.48 125.92 183.58 126.67 183.04C127.42 182.49 128.41 181.76 128.87 181.41C129.32 181.06 130.09 180.46 130.56 180.07C131.04 179.69 131.72 179.12 132.09 178.8C132.46 178.49 133.14 177.89 133.62 177.47C134.09 177.05 135.09 176.11 135.85 175.39C136.6 174.68 137.65 173.63 138.18 173.06C138.71 172.5 139.4 171.75 139.71 171.4C140.02 171.05 140.65 170.32 141.1 169.77C141.56 169.22 142.29 168.3 142.73 167.73C143.17 167.16 143.79 166.34 144.1 165.9C144.41 165.46 144.97 164.65 145.33 164.1C145.7 163.55 146.19 162.78 146.43 162.4C146.67 162.01 147.16 161.19 147.52 160.57C147.88 159.94 148.48 158.82 148.85 158.07C149.23 157.31 149.71 156.3 149.93 155.8C150.15 155.3 150.53 154.39 150.78 153.77C151.02 153.14 151.42 152.05 151.66 151.33C151.89 150.62 152.23 149.51 152.4 148.87C152.58 148.22 152.84 147.15 152.99 146.47C153.14 145.79 153.34 144.77 153.43 144.2C153.52 143.63 153.64 142.75 153.7 142.23C153.75 141.72 153.84 140.61 153.9 139.77C153.99 138.41 154 130.25 154 69.12L154 0L0.07 0L0.07 69.32Z" />
		<path class="shp1" d="M3.54 71.65C3.56 134.88 3.57 139.91 3.67 140.9C3.74 141.49 3.85 142.4 3.93 142.93C4 143.47 4.15 144.35 4.26 144.9C4.36 145.45 4.53 146.23 4.62 146.63C4.72 147.04 4.96 147.92 5.15 148.6C5.35 149.28 5.64 150.19 5.79 150.63C5.94 151.07 6.25 151.91 6.48 152.5C6.71 153.09 7.07 153.96 7.28 154.43C7.49 154.91 7.86 155.69 8.1 156.17C8.33 156.64 8.78 157.5 9.09 158.07C9.41 158.63 9.93 159.55 10.26 160.1C10.59 160.65 11.22 161.64 11.66 162.3C12.1 162.96 12.71 163.84 13.02 164.27C13.33 164.69 13.99 165.54 14.48 166.17C14.98 166.79 15.82 167.81 16.35 168.43C16.89 169.05 17.83 170.1 18.46 170.76C19.09 171.43 20.04 172.39 20.59 172.9C21.13 173.42 22.04 174.26 22.61 174.77C23.17 175.28 23.91 175.93 24.24 176.21C24.57 176.48 25.34 177.12 25.97 177.61C26.59 178.11 27.68 178.95 28.39 179.48C29.11 180.01 30.17 180.78 30.75 181.18C31.34 181.59 32.46 182.33 33.25 182.84C34.03 183.34 35.32 184.13 36.11 184.59C36.89 185.04 38.03 185.69 38.63 186.02C39.24 186.35 40.64 187.07 41.76 187.63C42.87 188.18 44.37 188.9 45.08 189.21C45.8 189.53 46.9 190 47.54 190.27C48.18 190.53 49.37 191 50.17 191.3C50.97 191.6 52.32 192.08 53.16 192.35C54 192.63 55.3 193.04 56.05 193.27C56.8 193.49 58.05 193.84 58.81 194.04C59.58 194.23 60.76 194.52 61.44 194.67C62.12 194.82 63.09 195.03 63.6 195.13C64.11 195.24 65.3 195.44 66.23 195.59C67.16 195.74 68.6 195.94 69.42 196.03C70.24 196.12 71.3 196.22 71.78 196.26C72.26 196.3 73.23 196.36 73.94 196.4C74.65 196.44 76.05 196.47 77.03 196.47C78.02 196.47 79.41 196.44 80.13 196.4C80.84 196.36 81.81 196.3 82.29 196.26C82.76 196.22 83.82 196.12 84.65 196.03C85.47 195.94 86.88 195.74 87.77 195.6C88.67 195.45 89.94 195.22 90.6 195.09C91.26 194.96 92.38 194.72 93.09 194.56C93.8 194.4 94.85 194.14 95.42 193.99C95.99 193.84 96.91 193.59 97.48 193.42C98.05 193.26 99.3 192.87 100.27 192.56C101.24 192.24 102.8 191.7 103.73 191.35C104.66 191 106.05 190.45 106.82 190.13C107.59 189.81 108.77 189.3 109.45 188.99C110.13 188.69 111.44 188.06 112.37 187.59C113.31 187.13 114.61 186.46 115.27 186.1C115.93 185.74 117.09 185.08 117.86 184.63C118.63 184.18 119.86 183.43 120.59 182.96C121.32 182.5 122.19 181.93 122.52 181.71C122.84 181.49 123.58 180.98 124.14 180.58C124.71 180.17 125.53 179.57 125.97 179.24C126.41 178.91 127.26 178.25 127.87 177.77C128.47 177.3 129.26 176.65 129.63 176.34C130 176.03 130.97 175.17 131.79 174.43C132.61 173.69 134.01 172.35 134.88 171.46C135.76 170.56 137.02 169.2 137.68 168.43C138.33 167.66 139.22 166.6 139.64 166.07C140.06 165.53 140.67 164.72 141.01 164.27C141.34 163.81 141.97 162.89 142.41 162.23C142.85 161.57 143.46 160.61 143.77 160.1C144.09 159.59 144.62 158.66 144.96 158.03C145.3 157.41 145.85 156.31 146.19 155.6C146.53 154.88 146.94 153.97 147.12 153.57C147.29 153.16 147.59 152.41 147.78 151.9C147.97 151.39 148.27 150.55 148.44 150.03C148.6 149.52 148.86 148.68 149 148.17C149.15 147.65 149.33 146.96 149.4 146.63C149.48 146.3 149.63 145.6 149.74 145.07C149.85 144.53 150 143.7 150.07 143.2C150.14 142.7 150.26 141.84 150.32 141.27C150.43 140.29 150.44 136.43 150.46 71.85L150.47 3.47L3.52 3.47L3.54 71.65Z" />
		<path class="shp0" d="M6.92 18.63L6.92 29.6L146.85 29.6L146.83 7.67L6.92 7.67L6.92 18.63Z" />
		<path class="shp1" d="M129.63 11.68C129.26 11.7 128.75 11.77 128.48 11.83C128.22 11.89 127.77 12.02 127.49 12.13C127.2 12.24 126.78 12.44 126.54 12.58C126.3 12.72 125.85 13.09 125.54 13.4C125.06 13.87 124.91 14.08 124.63 14.63C124.44 15 124.25 15.46 124.19 15.67C124.13 15.87 124.04 16.3 123.98 16.63C123.92 16.98 123.88 17.62 123.88 18.17C123.88 18.73 123.92 19.31 123.98 19.63C124.04 19.93 124.13 20.33 124.19 20.53C124.25 20.73 124.4 21.11 124.53 21.37C124.66 21.62 124.87 22 125.01 22.2C125.15 22.4 125.43 22.73 125.65 22.94C125.86 23.14 126.17 23.4 126.34 23.51C126.5 23.63 126.88 23.82 127.17 23.95C127.46 24.07 127.88 24.22 128.1 24.28C128.32 24.34 128.77 24.43 129.1 24.47C129.48 24.52 130.1 24.54 130.79 24.51C131.58 24.49 132.05 24.44 132.46 24.34C132.77 24.26 133.29 24.06 133.62 23.9C133.95 23.74 134.43 23.44 134.68 23.22C134.94 23 135.29 22.65 135.47 22.43C135.64 22.21 135.91 21.79 136.06 21.5C136.21 21.21 136.4 20.68 136.49 20.33C136.58 19.98 136.68 19.32 136.71 18.83C136.75 18.29 136.75 17.68 136.71 17.2C136.68 16.78 136.59 16.19 136.51 15.9C136.44 15.61 136.26 15.13 136.12 14.83C135.99 14.54 135.75 14.13 135.6 13.93C135.45 13.73 135.18 13.43 135.01 13.26C134.83 13.09 134.49 12.82 134.25 12.67C134.01 12.52 133.61 12.31 133.35 12.2C133.1 12.09 132.63 11.95 132.32 11.87C132.01 11.8 131.43 11.71 131.03 11.68C130.62 11.66 130 11.65 129.63 11.68ZM23.17 11.74C22.95 11.77 22.56 11.86 22.31 11.93C22.05 12 21.66 12.14 21.44 12.24C21.22 12.33 20.79 12.58 20.48 12.79C20.12 13.03 19.78 13.34 19.53 13.63C19.32 13.89 19.01 14.37 18.85 14.7C18.69 15.03 18.47 15.6 18.37 15.97C18.2 16.6 18.19 16.72 18.19 18.1C18.19 19.42 18.2 19.62 18.34 20.13C18.42 20.45 18.57 20.88 18.67 21.1C18.76 21.32 19 21.74 19.19 22.03C19.38 22.33 19.74 22.76 19.99 22.99C20.24 23.22 20.66 23.53 20.91 23.69C21.17 23.84 21.62 24.05 21.91 24.15C22.2 24.25 22.71 24.37 23.04 24.43C23.39 24.49 24.03 24.53 24.6 24.53C25.18 24.53 25.81 24.49 26.17 24.43C26.49 24.37 26.97 24.25 27.23 24.17C27.49 24.08 27.72 24.03 27.76 24.05C27.8 24.07 28.08 24.28 28.39 24.5C28.7 24.73 29.28 25.11 29.67 25.34C30.07 25.58 30.4 25.75 30.42 25.73C30.43 25.71 30.67 25.22 30.95 24.63C31.23 24.05 31.45 23.56 31.44 23.56C31.43 23.55 31.22 23.45 30.99 23.33C30.75 23.21 30.35 22.98 30.11 22.81C29.86 22.64 29.68 22.47 29.7 22.43C29.73 22.4 29.85 22.23 29.96 22.07C30.08 21.9 30.27 21.57 30.38 21.33C30.49 21.09 30.67 20.6 30.77 20.23C30.93 19.61 30.95 19.47 30.95 18.17C30.95 17.05 30.93 16.65 30.83 16.2C30.76 15.89 30.62 15.41 30.52 15.13C30.41 14.86 30.19 14.42 30.02 14.17C29.85 13.91 29.59 13.57 29.43 13.41C29.28 13.25 28.98 12.99 28.76 12.84C28.54 12.68 28.14 12.44 27.88 12.31C27.61 12.18 27.1 11.99 26.75 11.89C26.18 11.74 25.94 11.72 24.84 11.7C24.14 11.69 23.39 11.7 23.17 11.74ZM33.13 16.05C33.15 20.19 33.15 20.24 33.3 20.87C33.39 21.21 33.58 21.74 33.73 22.03C33.93 22.42 34.15 22.71 34.54 23.11C34.96 23.53 35.2 23.7 35.64 23.92C36 24.1 36.44 24.25 36.84 24.34C37.3 24.44 37.84 24.48 38.83 24.51C39.92 24.54 40.32 24.53 40.83 24.44C41.17 24.38 41.68 24.25 41.96 24.16C42.23 24.06 42.68 23.83 42.95 23.64C43.23 23.45 43.61 23.1 43.82 22.86C44.02 22.62 44.3 22.2 44.43 21.93C44.57 21.66 44.74 21.21 44.83 20.93C44.98 20.44 44.98 20.4 44.98 16.15L44.99 11.87L41.16 11.87C41.16 19.29 41.14 20.02 41.06 20.3C41.01 20.48 40.88 20.75 40.77 20.9C40.66 21.05 40.43 21.25 40.25 21.35C40.08 21.44 39.74 21.56 39.5 21.6C39.17 21.66 38.96 21.66 38.63 21.6C38.4 21.56 38.1 21.47 37.97 21.4C37.84 21.33 37.63 21.16 37.49 21.02C37.36 20.88 37.2 20.66 37.13 20.53C37.01 20.31 37 20.05 36.99 16.08L36.97 11.87L33.11 11.87L33.13 16.05ZM47.54 18.1L47.54 24.33L58.05 24.33L58.05 21.5L51.4 21.53L51.4 19L57.45 19L57.45 16.5L51.4 16.53L51.4 14.5L57.92 14.53L57.92 11.87L47.54 11.87L47.54 18.1ZM60.18 18.1L60.18 24.33L64.03 24.33L64.03 19.27C64.5 19.27 64.79 19.32 64.98 19.4C65.18 19.47 65.42 19.62 65.53 19.75C65.64 19.87 65.83 20.15 65.95 20.37C66.08 20.59 66.6 21.56 67.12 22.53L68.06 24.3C71.43 24.33 72.41 24.32 72.41 24.3C72.41 24.28 71.97 23.42 71.44 22.38C70.83 21.19 70.34 20.34 70.13 20.07C69.94 19.84 69.66 19.54 69.52 19.41C69.37 19.27 69.07 19.09 68.85 19L68.46 18.84C69.28 18.57 69.7 18.37 69.92 18.22C70.14 18.07 70.45 17.8 70.61 17.63C70.78 17.45 70.99 17.12 71.09 16.9C71.2 16.68 71.31 16.34 71.35 16.13C71.39 15.93 71.42 15.54 71.42 15.27C71.42 14.99 71.37 14.59 71.32 14.38C71.26 14.17 71.14 13.86 71.06 13.68C70.97 13.51 70.75 13.2 70.57 13C70.39 12.8 70.11 12.55 69.95 12.46C69.78 12.36 69.46 12.22 69.22 12.14C68.98 12.07 68.47 11.97 68.09 11.93C67.7 11.9 65.79 11.87 63.78 11.87L60.18 11.87L60.18 18.1ZM73.68 18.1L73.68 24.33L84.11 24.33L84.11 21.5L77.53 21.53L77.53 19L83.52 19L83.48 16.53L77.53 16.53L77.53 14.5L83.98 14.53L83.98 11.87L73.68 11.87L73.68 18.1ZM85.38 13.4L85.38 14.93L89.3 14.93L89.3 24.33L93.09 24.33L93.09 14.93L97.08 14.93L97.08 11.87L85.38 11.87L85.38 13.4ZM98.72 18.05C97.45 21.45 96.41 24.26 96.41 24.28C96.42 24.31 97.29 24.33 98.36 24.32L100.31 24.3L100.9 22.27L105.26 22.27C105.51 23.12 105.65 23.58 105.72 23.85L105.86 24.33C108.95 24.33 109.85 24.31 109.85 24.28C109.84 24.26 108.8 21.46 107.53 18.07L105.22 11.9L101.03 11.86L98.72 18.05ZM111.18 18.1L111.18 24.33L115.03 24.33L115.03 19.27C115.47 19.26 115.7 19.3 115.83 19.34C115.96 19.38 116.17 19.5 116.3 19.59C116.42 19.69 116.69 20.02 116.89 20.33C117.1 20.64 117.67 21.67 118.16 22.62L119.06 24.34L123.41 24.33C122.57 22.71 122.14 21.86 121.9 21.4C121.66 20.94 121.34 20.39 121.18 20.17C121.03 19.95 120.78 19.66 120.64 19.52C120.5 19.38 120.19 19.18 119.94 19.07C119.69 18.96 119.49 18.85 119.49 18.83C119.49 18.82 119.66 18.75 119.87 18.69C120.08 18.63 120.39 18.52 120.55 18.44C120.72 18.35 121.04 18.13 121.27 17.94C121.5 17.75 121.77 17.46 121.87 17.28C121.97 17.11 122.12 16.77 122.2 16.53C122.3 16.26 122.37 15.88 122.4 15.5C122.42 15.06 122.4 14.79 122.32 14.47C122.26 14.23 122.13 13.87 122.03 13.68C121.93 13.48 121.71 13.16 121.55 12.98C121.36 12.77 121.06 12.54 120.78 12.39C120.53 12.25 120.1 12.09 119.82 12.03C119.39 11.93 118.82 11.91 115.26 11.88L111.19 11.86L111.18 18.1Z" />
		<path class="shp0" d="M64.03 15.68L64.03 16.97C65.76 16.89 66.41 16.83 66.59 16.78C66.78 16.73 66.99 16.65 67.06 16.61C67.13 16.56 67.27 16.42 67.36 16.28C67.5 16.09 67.52 15.96 67.52 15.59C67.52 15.24 67.49 15.1 67.38 14.95C67.31 14.85 67.17 14.71 67.08 14.65C67 14.58 66.79 14.5 66.63 14.47C66.46 14.43 65.81 14.4 65.18 14.4L64.03 14.4L64.03 15.68ZM115.04 15.68L115.03 16.97C116.71 16.9 117.35 16.84 117.53 16.8C117.71 16.75 117.96 16.64 118.09 16.54C118.22 16.45 118.38 16.23 118.45 16.07C118.54 15.85 118.56 15.69 118.53 15.47C118.51 15.3 118.42 15.06 118.34 14.94C118.26 14.81 118.09 14.65 117.96 14.57C117.75 14.45 117.6 14.43 116.39 14.41L115.05 14.39L115.04 15.68ZM24 14.6C23.84 14.64 23.57 14.74 23.41 14.82C23.24 14.9 22.98 15.1 22.82 15.27C22.66 15.43 22.44 15.75 22.34 15.97C22.23 16.19 22.11 16.58 22.07 16.83C22.02 17.12 22.01 17.72 22.02 18.37C22.05 19.29 22.08 19.51 22.23 19.97C22.33 20.26 22.49 20.62 22.59 20.76C22.69 20.9 22.92 21.11 23.11 21.24C23.29 21.36 23.62 21.51 23.84 21.56C24.06 21.62 24.4 21.66 24.6 21.66C24.8 21.66 25.04 21.63 25.13 21.61C25.3 21.56 25.3 21.56 25 21.34C24.84 21.22 24.51 21.03 24.27 20.92C24.03 20.81 23.82 20.7 23.8 20.69C23.79 20.68 23.91 20.37 24.07 20L24.37 19.32C24.73 19.39 24.99 19.48 25.17 19.57C25.35 19.66 25.77 19.91 26.1 20.13L26.7 20.52C26.84 20.25 26.93 20.02 26.98 19.83C27.04 19.64 27.09 19.04 27.11 18.4C27.14 17.52 27.12 17.19 27.03 16.73C26.97 16.42 26.84 16.01 26.74 15.81C26.64 15.61 26.43 15.33 26.27 15.18C26.1 15.03 25.82 14.84 25.63 14.76C25.43 14.67 25.1 14.6 24.8 14.58C24.53 14.56 24.17 14.57 24 14.6ZM129.73 14.6C129.57 14.64 129.3 14.74 129.14 14.82C128.98 14.9 128.7 15.12 128.53 15.32C128.35 15.51 128.14 15.81 128.06 15.98C127.99 16.16 127.88 16.52 127.83 16.78C127.78 17.05 127.73 17.64 127.73 18.1C127.73 18.56 127.78 19.16 127.83 19.45C127.89 19.73 128.02 20.15 128.13 20.37C128.23 20.59 128.45 20.88 128.61 21.03C128.77 21.17 129.06 21.37 129.26 21.46C129.58 21.61 129.72 21.63 130.33 21.63C130.97 21.63 131.06 21.61 131.46 21.43C131.7 21.31 131.99 21.12 132.12 20.99C132.24 20.87 132.4 20.65 132.47 20.5C132.55 20.35 132.65 20.1 132.7 19.93C132.75 19.77 132.82 19.3 132.86 18.9C132.9 18.47 132.92 17.88 132.89 17.47C132.86 17.08 132.79 16.6 132.73 16.4C132.67 16.2 132.54 15.9 132.45 15.73C132.35 15.57 132.13 15.3 131.95 15.15C131.77 14.99 131.47 14.8 131.28 14.73C131.08 14.66 130.72 14.59 130.48 14.57C130.23 14.55 129.89 14.57 129.73 14.6ZM103.05 15.27C103.02 15.32 102.72 16.3 102.38 17.43L101.75 19.5C102.85 19.53 103.45 19.53 103.81 19.52L104.45 19.5C103.42 16.19 103.12 15.22 103.11 15.21C103.1 15.19 103.07 15.22 103.05 15.27ZM6.85 84.62C6.85 116 6.88 137.17 6.91 138.2C6.95 139.13 7.01 140.22 7.05 140.6C7.09 140.99 7.18 141.72 7.25 142.23C7.33 142.75 7.46 143.56 7.56 144.03C7.65 144.51 7.84 145.36 7.98 145.93C8.12 146.5 8.38 147.46 8.57 148.07C8.75 148.67 9.09 149.68 9.33 150.3C9.57 150.92 9.99 151.97 10.28 152.63C10.56 153.29 11.06 154.34 11.37 154.97C11.69 155.59 12.18 156.5 12.47 157C12.75 157.5 13.28 158.38 13.65 158.97C14.01 159.55 14.6 160.44 14.95 160.93C15.3 161.43 15.98 162.36 16.46 163C16.95 163.64 17.65 164.54 18.04 165C18.42 165.46 19.12 166.27 19.59 166.8C20.06 167.33 21.06 168.39 21.81 169.16C22.56 169.92 23.71 171.03 24.36 171.62C25.02 172.22 25.89 172.99 26.29 173.34C26.7 173.69 27.59 174.43 28.27 174.97C28.95 175.52 30.1 176.4 30.83 176.93C31.56 177.46 32.73 178.29 33.45 178.77C34.16 179.25 35.22 179.95 35.81 180.31C36.39 180.68 37.3 181.23 37.84 181.55C38.37 181.86 39.25 182.37 39.8 182.67C40.35 182.97 41.45 183.56 42.26 183.97C43.06 184.39 44.41 185.04 45.25 185.43C46.09 185.82 47.45 186.42 48.27 186.77C49.1 187.11 50.44 187.64 51.27 187.95C52.09 188.26 53.59 188.79 54.59 189.12C55.6 189.45 57.18 189.93 58.12 190.19C59.05 190.45 60.32 190.78 60.94 190.93C61.56 191.07 62.58 191.3 63.2 191.43C63.82 191.56 65.04 191.78 65.9 191.93C66.75 192.08 67.79 192.24 68.19 192.29C68.59 192.35 69.5 192.45 70.22 192.53C70.93 192.6 71.96 192.7 72.51 192.75C73.16 192.8 74.69 192.83 76.87 192.83C79.04 192.83 80.58 192.8 81.22 192.75C81.77 192.7 82.8 192.6 83.52 192.53C84.23 192.45 85.14 192.35 85.54 192.29C85.95 192.24 86.98 192.08 87.84 191.93C88.7 191.78 89.91 191.56 90.53 191.43C91.15 191.3 92.05 191.1 92.53 190.99C93 190.89 93.96 190.65 94.65 190.46C95.35 190.27 96.55 189.93 97.31 189.7C98.08 189.46 99.34 189.06 100.11 188.8C100.87 188.54 102.04 188.12 102.7 187.87C103.36 187.62 104.53 187.15 105.29 186.84C106.06 186.52 107.15 186.05 107.72 185.79C108.29 185.53 109.29 185.06 109.95 184.74C110.61 184.42 111.89 183.76 112.81 183.27C113.72 182.78 115.05 182.03 115.77 181.61C116.48 181.19 117.42 180.62 117.86 180.35C118.3 180.07 119.12 179.54 119.69 179.16C120.26 178.79 121.09 178.22 121.55 177.9C122.01 177.58 122.77 177.03 123.25 176.67C123.72 176.32 124.6 175.64 125.21 175.17C125.81 174.69 126.63 174.01 127.04 173.67C127.44 173.32 128.16 172.69 128.63 172.27C129.11 171.85 129.97 171.05 130.56 170.49C131.15 169.94 132.2 168.87 132.9 168.13C133.6 167.38 134.56 166.32 135.03 165.77C135.5 165.22 136.07 164.54 136.29 164.27C136.51 163.99 136.96 163.41 137.29 162.97C137.62 162.53 138.05 161.94 138.25 161.67C138.45 161.39 138.95 160.67 139.35 160.07C139.75 159.46 140.32 158.55 140.62 158.05C140.92 157.55 141.46 156.6 141.81 155.95C142.17 155.3 142.66 154.32 142.92 153.77C143.17 153.22 143.56 152.32 143.79 151.77C144.02 151.22 144.36 150.35 144.55 149.83C144.73 149.32 145.04 148.39 145.22 147.77C145.41 147.14 145.65 146.26 145.76 145.8C145.87 145.34 146.02 144.7 146.09 144.37C146.15 144.04 146.29 143.26 146.39 142.63C146.48 142.01 146.61 141.06 146.67 140.53C146.77 139.64 146.78 135.32 146.8 86.15L146.82 32.73L6.85 32.73L6.85 84.62Z" />
		<path class="shp1" d="M7.71 86.05C7.71 121.45 7.74 138.87 7.78 139.5C7.82 140.01 7.9 140.84 7.95 141.33C8.01 141.83 8.16 142.77 8.28 143.43C8.4 144.09 8.6 145.02 8.71 145.5C8.82 145.98 9 146.67 9.11 147.03C9.22 147.4 9.44 148.12 9.61 148.63C9.78 149.15 10.02 149.85 10.15 150.2C10.28 150.55 10.55 151.22 10.75 151.7C10.95 152.18 11.38 153.11 11.7 153.77C12.01 154.43 12.48 155.34 12.73 155.8C12.98 156.26 13.46 157.08 13.79 157.63C14.12 158.18 14.63 159.01 14.93 159.47C15.23 159.93 15.76 160.69 16.09 161.17C16.43 161.64 17.01 162.42 17.38 162.9C17.75 163.38 18.42 164.22 18.88 164.76C19.34 165.31 20.03 166.11 20.41 166.53C20.79 166.95 21.5 167.7 21.97 168.19C22.45 168.68 23.35 169.57 23.97 170.16C24.59 170.75 25.61 171.68 26.23 172.23C26.85 172.77 27.81 173.58 28.36 174.02C28.91 174.46 29.88 175.22 30.52 175.7C31.16 176.18 32.13 176.89 32.68 177.28C33.23 177.67 34.16 178.3 34.74 178.68C35.33 179.07 36.56 179.83 37.47 180.38C38.38 180.93 39.75 181.72 40.49 182.13C41.24 182.54 42.7 183.29 43.72 183.8C44.74 184.31 46.14 184.97 46.81 185.27C47.49 185.57 48.77 186.1 49.67 186.46C50.57 186.82 51.93 187.34 52.7 187.62C53.46 187.9 54.71 188.32 55.46 188.56C56.21 188.79 57.3 189.13 57.88 189.29C58.47 189.46 59.67 189.77 60.54 189.99C61.42 190.21 62.51 190.47 62.97 190.56C63.43 190.66 64.55 190.87 65.46 191.04C66.38 191.2 67.96 191.44 68.99 191.56C70.01 191.69 71.25 191.82 71.75 191.86C72.24 191.9 73.17 191.96 73.81 192C74.45 192.04 75.82 192.06 76.87 192.07C77.91 192.07 79.27 192.04 79.89 192C80.51 191.97 81.44 191.9 81.95 191.86C82.47 191.82 83.62 191.7 84.51 191.59C85.41 191.49 86.94 191.26 87.91 191.1C88.87 190.93 90.09 190.7 90.6 190.6C91.11 190.49 92.26 190.22 93.16 190C94.05 189.78 95.16 189.49 95.62 189.36C96.08 189.23 97.02 188.95 97.71 188.73C98.41 188.51 99.69 188.08 100.57 187.78C101.45 187.47 102.96 186.9 103.93 186.52C104.9 186.13 106.13 185.62 106.66 185.38C107.19 185.14 108.14 184.7 108.78 184.4C109.42 184.1 110.47 183.58 111.11 183.25C111.75 182.92 112.6 182.47 113.01 182.25C113.41 182.03 114.11 181.64 114.57 181.38C115.03 181.12 116.03 180.52 116.8 180.05C117.56 179.57 118.63 178.9 119.16 178.55C119.69 178.2 120.62 177.57 121.22 177.14C121.82 176.72 122.76 176.03 123.31 175.61C123.86 175.19 124.8 174.45 125.41 173.96C126.01 173.48 127.01 172.63 127.64 172.09C128.26 171.54 129.33 170.55 130.03 169.89C130.72 169.23 131.71 168.24 132.22 167.69C132.74 167.15 133.39 166.43 133.69 166.1C133.98 165.77 134.66 164.97 135.19 164.33C135.72 163.69 136.46 162.76 136.82 162.27C137.19 161.77 137.74 161.01 138.05 160.57C138.36 160.13 138.82 159.44 139.08 159.03C139.34 158.63 139.78 157.93 140.05 157.47C140.32 157.01 140.75 156.26 141 155.8C141.25 155.34 141.72 154.43 142.04 153.77C142.35 153.11 142.78 152.18 142.98 151.7C143.18 151.22 143.45 150.55 143.58 150.2C143.71 149.85 143.95 149.16 144.11 148.67C144.28 148.17 144.5 147.45 144.61 147.07C144.73 146.68 144.91 145.99 145.02 145.53C145.12 145.07 145.32 144.15 145.45 143.47C145.58 142.79 145.73 141.81 145.79 141.3C145.84 140.79 145.92 139.98 145.95 139.5C146 138.93 146.02 120.73 146.02 86.08L146.02 33.53L128.13 33.53C128.2 74.17 128.24 104.76 128.26 127.73L128.31 169.5C127.83 169.97 127.34 170.41 126.9 170.8C126.46 171.19 125.91 171.67 125.67 171.87C125.44 172.08 124.66 172.71 123.94 173.28C123.23 173.84 122.3 174.56 121.88 174.87C121.46 175.17 120.76 175.68 120.32 175.99C119.88 176.3 119.07 176.85 118.53 177.22C117.98 177.59 116.99 178.23 116.33 178.63C115.67 179.04 114.81 179.57 114.4 179.8C114 180.03 113.27 180.44 112.77 180.71C112.28 180.98 111.85 181.2 111.83 181.2C111.8 181.2 111.78 175.57 111.78 168.7C111.78 161.82 111.8 156.2 111.83 156.2C111.85 156.2 111.92 156.25 111.98 156.3C112.06 156.38 112.82 155.61 118.13 150C121.45 146.49 124.18 143.58 124.18 143.54C124.18 143.51 122.65 142.04 120.79 140.28C118.92 138.53 117.16 136.86 116.86 136.59L116.33 136.08C116.55 135.84 116.79 135.44 117.01 135.03C117.23 134.63 117.58 133.96 117.8 133.53C118.01 133.11 118.35 132.39 118.56 131.93C118.77 131.47 119.15 130.57 119.41 129.93C119.66 129.29 120.09 128.12 120.35 127.33C120.61 126.55 120.97 125.34 121.15 124.67C121.34 123.99 121.61 122.83 121.75 122.1C121.89 121.37 122.09 120.3 122.18 119.73C122.27 119.16 122.39 118.23 122.44 117.67C122.5 117.1 122.58 116.15 122.61 115.57C122.65 114.98 122.68 113.75 122.68 112.83C122.68 111.92 122.64 110.51 122.58 109.7C122.53 108.89 122.43 107.77 122.35 107.2C122.28 106.63 122.16 105.79 122.09 105.33C122.01 104.88 121.87 104.11 121.78 103.63C121.68 103.16 121.49 102.29 121.34 101.7C121.2 101.11 120.93 100.15 120.75 99.57C120.58 98.98 120.28 98.08 120.1 97.57C119.92 97.05 119.62 96.26 119.44 95.8C119.26 95.34 118.91 94.53 118.67 94C118.44 93.47 118.07 92.69 117.86 92.27C117.65 91.84 117.24 91.06 116.94 90.53C116.65 90 116.17 89.18 115.88 88.7C115.59 88.22 115.09 87.46 114.78 87C114.47 86.54 113.96 85.82 113.65 85.4C113.34 84.98 112.8 84.29 112.46 83.87L111.85 83.1L111.84 33.53L107.59 33.53L107.59 78.67C107.05 78.19 106.52 77.74 106.06 77.36C105.6 76.97 104.75 76.29 104.16 75.85C103.58 75.41 102.64 74.74 102.07 74.37C101.5 73.99 100.63 73.45 100.14 73.15C99.65 72.86 98.64 72.3 97.91 71.91C97.18 71.52 96.03 70.96 95.35 70.66C94.68 70.37 93.69 69.96 93.16 69.76C92.63 69.56 92.11 69.36 92.01 69.31L91.82 69.23L91.83 33.53L88 33.57C87.98 60.28 87.96 68.04 87.95 68.05C87.94 68.06 87.4 67.95 86.74 67.81C86.08 67.66 85.13 67.47 84.61 67.37C84.1 67.28 83.47 67.18 83.22 67.14C82.96 67.1 82.33 67.03 81.82 66.97C81.31 66.92 80.49 66.84 79.99 66.79C79.46 66.74 78.11 66.71 76.7 66.71C75.03 66.71 73.93 66.75 73.08 66.82C72.4 66.88 71.76 66.93 71.66 66.93L71.48 66.93L71.48 33.53L7.71 33.53L7.71 86.05Z" />
		<path class="shp2" d="M91.83 51.38L91.82 69.23C92.11 69.36 92.63 69.56 93.16 69.76C93.69 69.96 94.68 70.37 95.35 70.66C96.03 70.96 97.18 71.52 97.91 71.91C98.64 72.3 99.65 72.86 100.14 73.15C100.63 73.45 101.5 73.99 102.07 74.37C102.64 74.74 103.58 75.41 104.16 75.85C104.75 76.29 105.6 76.97 106.06 77.36C106.52 77.74 107.05 78.19 107.24 78.36L107.59 78.67L107.59 33.53L91.83 33.53L91.83 51.38Z" />
		<path class="shp0" d="M73.97 68.51C73.83 68.52 73.18 68.58 72.54 68.64C71.9 68.69 70.89 68.82 70.28 68.91C69.68 69 68.8 69.15 68.32 69.24C67.85 69.33 67.08 69.49 66.63 69.59C66.17 69.7 65.32 69.92 64.73 70.09C64.15 70.26 63.14 70.57 62.5 70.79C61.86 71.01 60.97 71.33 60.51 71.52C60.05 71.7 59.23 72.05 58.68 72.3C58.13 72.54 57.28 72.95 56.79 73.2C56.29 73.46 55.38 73.95 54.76 74.31C54.14 74.66 53.21 75.23 52.7 75.56C52.18 75.9 51.38 76.45 50.9 76.8C50.43 77.14 49.68 77.71 49.24 78.06C48.8 78.4 47.99 79.09 47.44 79.57C46.89 80.05 45.85 81.06 45.12 81.81C44.38 82.56 43.35 83.69 42.82 84.33C42.28 84.98 41.57 85.88 41.23 86.33C40.89 86.79 40.29 87.65 39.9 88.23C39.51 88.82 38.95 89.7 38.66 90.2C38.36 90.69 38.05 91.23 37.95 91.4C37.86 91.56 37.5 92.27 37.15 92.97C36.8 93.66 36.32 94.7 36.07 95.27C35.83 95.84 35.45 96.76 35.24 97.33C35.03 97.9 34.69 98.89 34.49 99.53C34.28 100.17 34 101.16 33.85 101.73C33.7 102.3 33.51 103.13 33.42 103.57C33.33 104.01 33.18 104.82 33.09 105.37C32.99 105.92 32.86 106.85 32.79 107.43C32.71 108.02 32.62 108.95 32.57 109.5C32.52 110.05 32.49 111.54 32.49 112.8C32.49 114.07 32.52 115.55 32.57 116.1C32.62 116.65 32.7 117.47 32.75 117.93C32.81 118.39 32.91 119.17 32.99 119.67C33.06 120.16 33.21 121.02 33.32 121.57C33.43 122.12 33.62 122.99 33.75 123.5C33.88 124.01 34.15 124.97 34.35 125.63C34.54 126.29 34.85 127.24 35.03 127.73C35.21 128.23 35.52 129.02 35.71 129.5C35.9 129.98 36.3 130.88 36.58 131.5C36.87 132.12 37.37 133.11 37.68 133.7C38 134.29 38.48 135.14 38.75 135.6C39.03 136.06 39.55 136.88 39.92 137.43C40.29 137.98 40.92 138.87 41.32 139.4C41.72 139.93 42.33 140.71 42.68 141.13C43.03 141.55 43.66 142.27 44.08 142.73C44.49 143.19 45.36 144.08 46.01 144.7C46.65 145.32 47.46 146.08 47.81 146.37C48.16 146.67 48.8 147.2 49.24 147.54C49.68 147.89 50.47 148.49 51 148.88C51.53 149.26 52.41 149.86 52.96 150.21C53.51 150.56 54.26 151.02 54.62 151.23C54.99 151.45 55.83 151.9 56.49 152.24C57.14 152.58 58.13 153.06 58.68 153.3C59.23 153.55 60.05 153.9 60.51 154.08C60.97 154.26 61.82 154.58 62.4 154.78C62.99 154.98 63.98 155.29 64.6 155.47C65.22 155.64 66.34 155.93 67.09 156.09C67.84 156.26 68.92 156.47 69.49 156.56C70.05 156.66 71.03 156.79 71.65 156.86C72.27 156.94 73.23 157.03 73.78 157.06C74.32 157.1 75.63 157.13 76.67 157.13C77.71 157.13 79.15 157.09 79.86 157.04C80.57 156.98 81.54 156.89 82.02 156.84C82.5 156.78 83.26 156.67 83.72 156.6C84.17 156.52 84.95 156.39 85.44 156.29C85.94 156.2 86.82 156 87.41 155.86C87.99 155.71 88.87 155.47 89.37 155.33C89.86 155.18 90.68 154.92 91.2 154.74C91.71 154.56 92.5 154.26 92.96 154.08C93.42 153.9 94.19 153.57 94.69 153.35C95.18 153.13 95.87 152.81 96.22 152.63C96.56 152.46 97.31 152.06 97.88 151.75C98.45 151.43 99.3 150.94 99.77 150.64C100.25 150.35 100.97 149.89 101.37 149.61C101.77 149.34 102.43 148.87 102.83 148.57C103.24 148.28 103.92 147.75 104.35 147.4L105.13 146.77C105.5 147.13 107.04 148.72 108.79 150.53L111.99 153.83C113.81 151.97 115.78 149.96 117.54 148.17C119.29 146.37 121.04 144.59 121.41 144.2L122.09 143.5C120.25 141.69 118.53 139.99 117.08 138.56L114.43 135.97C115.4 134.26 115.92 133.29 116.22 132.7C116.51 132.11 116.83 131.45 116.93 131.23C117.03 131.01 117.24 130.52 117.41 130.13C117.57 129.75 117.82 129.12 117.97 128.73C118.12 128.35 118.39 127.6 118.57 127.07C118.75 126.54 119.06 125.55 119.25 124.87C119.45 124.19 119.71 123.15 119.85 122.57C119.98 121.98 120.16 121.09 120.25 120.6C120.34 120.11 120.47 119.2 120.55 118.6C120.62 117.99 120.73 117.02 120.79 116.43C120.84 115.85 120.9 114.74 120.93 113.97C120.95 113.19 120.93 111.87 120.89 111C120.85 110.14 120.76 108.86 120.69 108.17C120.62 107.47 120.5 106.48 120.42 105.97C120.34 105.45 120.17 104.54 120.05 103.93C119.92 103.33 119.69 102.32 119.52 101.7C119.36 101.08 119.1 100.15 118.94 99.63C118.78 99.12 118.53 98.39 118.39 98C118.26 97.61 117.99 96.89 117.79 96.4C117.6 95.91 117.26 95.09 117.03 94.6C116.81 94.11 116.35 93.16 116.01 92.5C115.67 91.84 115.07 90.76 114.67 90.1C114.28 89.44 113.67 88.48 113.32 87.97C112.97 87.45 112.43 86.69 112.12 86.27C111.81 85.84 111.27 85.16 110.92 84.73C110.57 84.31 109.92 83.56 109.48 83.07C109.03 82.57 108.18 81.69 107.58 81.1C106.98 80.51 106.15 79.73 105.73 79.36C105.3 78.99 104.6 78.4 104.16 78.05C103.72 77.71 102.98 77.14 102.5 76.8C102.03 76.45 101.22 75.9 100.71 75.56C100.19 75.22 99.3 74.67 98.71 74.34C98.13 74 97.06 73.43 96.35 73.08C95.64 72.72 94.57 72.22 93.99 71.97C93.4 71.72 92.46 71.35 91.89 71.14C91.33 70.93 90.37 70.6 89.77 70.41C89.16 70.23 88.27 69.97 87.77 69.84C87.28 69.71 86.53 69.53 86.11 69.44C85.69 69.35 84.7 69.17 83.92 69.04C83.13 68.9 81.9 68.73 81.19 68.66C80.13 68.54 79.38 68.52 77.07 68.5C75.51 68.49 74.12 68.49 73.97 68.51Z" />
		<path class="shp1" d="M75.27 69.04C75.07 69.05 74.38 69.1 73.74 69.14C73.1 69.18 72.01 69.28 71.31 69.37C70.62 69.46 69.56 69.62 68.95 69.73C68.35 69.84 67.45 70.02 66.96 70.13C66.47 70.25 65.58 70.47 65 70.64C64.41 70.8 63.52 71.08 63 71.24C62.49 71.41 61.76 71.67 61.37 71.81C60.99 71.96 60.21 72.27 59.65 72.51C59.08 72.75 58 73.26 57.25 73.64C56.5 74.02 55.45 74.58 54.92 74.89C54.39 75.19 53.57 75.69 53.1 76C52.62 76.31 51.69 76.95 51.03 77.43C50.38 77.91 49.45 78.62 48.97 79.02C48.5 79.42 47.69 80.13 47.18 80.6C46.67 81.07 45.81 81.9 45.28 82.44C44.75 82.99 44.06 83.74 43.75 84.1C43.43 84.47 42.82 85.22 42.39 85.77C41.96 86.32 41.32 87.17 40.97 87.67C40.62 88.16 40.1 88.94 39.81 89.4C39.52 89.86 39.07 90.59 38.81 91.03C38.56 91.47 37.97 92.6 37.51 93.53C37.05 94.47 36.45 95.79 36.18 96.47C35.91 97.14 35.51 98.22 35.3 98.87C35.08 99.51 34.79 100.44 34.65 100.93C34.5 101.43 34.28 102.31 34.14 102.9C34.01 103.49 33.81 104.46 33.7 105.07C33.59 105.67 33.43 106.74 33.35 107.43C33.26 108.13 33.16 109.15 33.12 109.7C33.08 110.25 33.03 111.24 33.01 111.9C32.98 112.56 33 113.76 33.04 114.57C33.08 115.37 33.16 116.5 33.22 117.07C33.28 117.64 33.4 118.61 33.49 119.23C33.58 119.86 33.76 120.89 33.89 121.53C34.02 122.17 34.25 123.21 34.41 123.83C34.57 124.46 34.87 125.49 35.08 126.13C35.29 126.77 35.63 127.78 35.85 128.37C36.08 128.95 36.44 129.85 36.67 130.37C36.9 130.88 37.36 131.85 37.69 132.52C38.03 133.19 38.56 134.18 38.87 134.72C39.19 135.26 39.76 136.18 40.15 136.77C40.53 137.35 41.14 138.24 41.51 138.73C41.88 139.23 42.53 140.07 42.96 140.6C43.39 141.13 44.18 142.05 44.73 142.63C45.27 143.22 46.24 144.18 46.88 144.78C47.52 145.37 48.39 146.15 48.81 146.5C49.23 146.86 50.06 147.51 50.67 147.95C51.27 148.4 52.27 149.1 52.9 149.51C53.52 149.92 54.43 150.48 54.92 150.77C55.42 151.05 56.33 151.55 56.95 151.86C57.57 152.18 58.53 152.64 59.08 152.88C59.63 153.13 60.59 153.52 61.21 153.76C61.83 153.99 62.71 154.3 63.17 154.45C63.63 154.6 64.42 154.84 64.93 154.99C65.44 155.14 66.48 155.4 67.23 155.56C67.98 155.73 69.16 155.95 69.85 156.06C70.55 156.17 71.55 156.31 72.08 156.36C72.61 156.42 73.55 156.49 74.17 156.53C74.8 156.57 75.98 156.6 76.8 156.6C77.62 156.6 78.9 156.55 79.63 156.5C80.36 156.45 81.27 156.37 81.65 156.33C82.04 156.29 82.74 156.2 83.22 156.13C83.69 156.06 84.55 155.9 85.11 155.79C85.68 155.68 86.68 155.46 87.34 155.3C88 155.14 89.24 154.78 90.1 154.5C90.96 154.22 92.14 153.79 92.73 153.55C93.31 153.31 94.18 152.94 94.65 152.73C95.13 152.52 95.83 152.19 96.22 152C96.6 151.81 97.35 151.4 97.88 151.1C98.41 150.8 99.14 150.36 99.51 150.13C99.87 149.9 100.58 149.44 101.07 149.11C101.56 148.78 102.31 148.25 102.73 147.93C103.15 147.61 103.87 147.05 104.33 146.67C104.79 146.3 105.18 146 105.19 146.01C105.21 146.01 105.6 146.41 106.06 146.89C106.52 147.37 108.02 148.94 109.4 150.38C110.78 151.82 111.94 153 111.98 153C112.01 153 114.12 150.88 116.67 148.28L121.29 143.57L113.7 136.03C114.36 134.95 114.77 134.21 115.05 133.7C115.33 133.19 115.83 132.21 116.16 131.53C116.48 130.85 116.99 129.7 117.28 128.97C117.57 128.23 117.96 127.17 118.15 126.6C118.33 126.03 118.62 125.09 118.78 124.5C118.94 123.91 119.18 122.95 119.31 122.37C119.44 121.78 119.64 120.76 119.75 120.1C119.86 119.44 119.99 118.51 120.05 118.03C120.1 117.56 120.19 116.78 120.23 116.3C120.28 115.8 120.32 114.42 120.32 113C120.32 111.56 120.29 110.13 120.23 109.5C120.19 108.91 120.07 107.88 119.99 107.2C119.9 106.52 119.75 105.53 119.65 105C119.56 104.47 119.37 103.52 119.22 102.9C119.08 102.28 118.8 101.21 118.6 100.53C118.4 99.86 118.12 98.95 117.97 98.53C117.83 98.11 117.5 97.23 117.23 96.57C116.97 95.91 116.38 94.62 115.94 93.7C115.49 92.78 114.88 91.6 114.57 91.07C114.27 90.54 113.76 89.71 113.45 89.23C113.14 88.76 112.6 87.96 112.25 87.47C111.9 86.97 111.35 86.22 111.02 85.8C110.69 85.38 110.02 84.58 109.54 84.03C109.07 83.48 108.15 82.51 107.52 81.87C106.88 81.23 105.94 80.34 105.43 79.89C104.91 79.44 104.13 78.79 103.68 78.44C103.23 78.09 102.48 77.52 102.02 77.19C101.55 76.85 100.75 76.3 100.24 75.97C99.73 75.64 98.84 75.11 98.28 74.78C97.71 74.46 96.78 73.96 96.22 73.67C95.65 73.39 94.84 73 94.42 72.81C94 72.63 93.18 72.29 92.59 72.05C92.01 71.81 91.07 71.46 90.5 71.28C89.93 71.09 89.09 70.83 88.64 70.71C88.18 70.58 87.3 70.35 86.67 70.2C86.05 70.05 84.96 69.83 84.25 69.7C83.53 69.57 82.44 69.41 81.82 69.34C81.2 69.27 80.23 69.18 79.66 69.14C79.09 69.1 77.96 69.06 77.13 69.05C76.31 69.03 75.47 69.03 75.27 69.04Z" />
		<path class="shp0" d="M81.57 72.58C81.55 72.61 81.18 73.56 80.76 74.7C80.33 75.84 79.97 76.81 79.97 76.86C79.96 76.93 80.12 77.01 80.42 77.1L80.89 77.24C81.68 76.7 81.7 76.7 82.29 76.7C82.8 76.7 82.94 76.73 83.25 76.88C83.45 76.97 83.69 77.14 83.79 77.24C83.88 77.35 84.02 77.61 84.1 77.82C84.19 78.06 84.25 78.34 84.25 78.58C84.25 78.82 84.18 79.15 84.08 79.43C83.98 79.7 83.81 80.03 83.66 80.2C83.52 80.36 83.24 80.59 83.04 80.69C82.72 80.86 82.64 80.88 82.19 80.85C81.89 80.83 81.59 80.77 81.46 80.7C81.33 80.64 81.15 80.52 81.07 80.44C80.98 80.36 80.85 80.19 80.78 80.05C80.71 79.91 80.62 79.59 80.57 79.34C80.51 78.97 80.46 78.86 80.36 78.84C80.28 78.82 80.03 78.8 79.79 78.8L79.36 78.8C79.44 79.71 79.51 79.95 79.68 80.3C79.86 80.65 80 80.84 80.27 81.05C80.46 81.2 80.79 81.4 80.99 81.49C81.19 81.58 81.56 81.69 81.82 81.74C82.09 81.78 82.47 81.8 82.72 81.77C82.96 81.75 83.31 81.66 83.52 81.56C83.72 81.47 84 81.3 84.15 81.2C84.29 81.09 84.52 80.86 84.66 80.69C84.8 80.51 84.98 80.22 85.07 80.03C85.16 79.85 85.28 79.46 85.35 79.17C85.45 78.72 85.45 78.56 85.39 78.13C85.35 77.86 85.24 77.48 85.15 77.3C85.06 77.12 84.86 76.82 84.7 76.64C84.54 76.46 84.28 76.24 84.11 76.14C83.95 76.05 83.64 75.92 83.43 75.85C83.22 75.79 82.87 75.73 82.65 75.73C82.43 75.73 82.07 75.79 81.84 75.86C81.61 75.94 81.41 75.98 81.41 75.96C81.4 75.95 81.57 75.46 81.8 74.88C82.02 74.31 82.22 73.82 82.24 73.79C82.27 73.77 83.06 73.88 84.02 74.04C84.97 74.2 85.76 74.31 85.78 74.29C85.8 74.27 85.84 74.05 85.88 73.79C85.93 73.4 85.93 73.33 85.84 73.3C85.79 73.29 84.88 73.12 83.82 72.93C82.76 72.75 81.82 72.58 81.75 72.56C81.67 72.54 81.59 72.55 81.57 72.58ZM69.35 72.88C69.12 72.95 68.8 73.1 68.66 73.2C68.51 73.3 68.27 73.51 68.13 73.67C67.98 73.84 67.78 74.15 67.68 74.37C67.54 74.66 67.48 74.91 67.45 75.33C67.42 75.79 67.44 76.02 67.56 76.53C67.68 77.01 67.78 77.27 67.99 77.57C68.17 77.84 68.39 78.06 68.69 78.25C68.93 78.41 69.27 78.59 69.45 78.64C69.64 78.69 69.97 78.73 70.2 78.73C70.43 78.73 70.76 78.69 70.93 78.63C71.11 78.57 71.41 78.4 71.6 78.26C71.79 78.12 72.07 77.84 72.23 77.63L72.51 77.27C72.59 77.71 72.61 78.18 72.59 78.6C72.57 79.2 72.53 79.45 72.41 79.77C72.32 79.99 72.15 80.28 72.02 80.42C71.89 80.57 71.7 80.72 71.6 80.77C71.5 80.83 71.24 80.9 71.03 80.94C70.73 80.99 70.58 80.99 70.32 80.91C70.13 80.85 69.91 80.72 69.81 80.62C69.71 80.52 69.57 80.31 69.49 80.15C69.42 79.99 69.32 79.87 69.29 79.87C69.25 79.87 69.03 79.92 68.79 79.98C68.55 80.05 68.35 80.12 68.36 80.15C68.36 80.18 68.44 80.37 68.54 80.58C68.64 80.78 68.83 81.06 68.95 81.2C69.08 81.33 69.38 81.54 69.62 81.66C70.04 81.87 70.07 81.88 70.78 81.85C71.44 81.83 71.56 81.81 71.95 81.62C72.18 81.51 72.53 81.27 72.72 81.09C72.91 80.91 73.14 80.6 73.24 80.4C73.34 80.2 73.48 79.81 73.55 79.53C73.64 79.19 73.68 78.8 73.68 78.27C73.68 77.84 73.63 77.21 73.57 76.87C73.52 76.52 73.4 75.95 73.3 75.6C73.21 75.25 73.03 74.74 72.89 74.47C72.74 74.17 72.5 73.82 72.28 73.59C72.08 73.39 71.78 73.15 71.61 73.07C71.45 72.98 71.18 72.87 71.02 72.83C70.85 72.78 70.51 72.74 70.25 72.74C69.97 72.74 69.61 72.8 69.35 72.88Z" />
		<path class="shp1" d="M69.59 73.82C69.4 73.91 69.18 74.09 69.08 74.21C68.98 74.33 68.84 74.57 68.75 74.73C68.65 74.93 68.59 75.19 68.57 75.5C68.55 75.83 68.58 76.08 68.66 76.37C68.73 76.59 68.87 76.89 68.99 77.03C69.1 77.18 69.34 77.38 69.52 77.48C69.7 77.58 70 77.68 70.18 77.7C70.41 77.73 70.64 77.71 70.9 77.64C71.11 77.58 71.38 77.45 71.49 77.35C71.6 77.25 71.78 77.03 71.87 76.87C72.01 76.63 72.05 76.45 72.07 76C72.09 75.57 72.07 75.34 71.97 75.03C71.91 74.81 71.76 74.51 71.64 74.37C71.53 74.22 71.29 74.01 71.12 73.9C70.86 73.74 70.7 73.7 70.36 73.68C70 73.66 69.86 73.69 69.59 73.82Z" />
		<path class="shp0" d="M57.94 76.79C57.74 76.91 57.72 76.96 57.6 77.57C57.53 77.94 57.38 78.47 57.26 78.77C57.15 79.06 56.92 79.5 56.75 79.75L56.45 80.2L56.97 81.17C57.38 80.6 57.62 80.22 57.76 79.97C57.91 79.71 58.07 79.39 58.12 79.25C58.17 79.11 58.25 79.01 58.28 79.02C58.32 79.04 59.1 80.4 60.01 82.05L61.67 85.06C62.39 84.65 62.6 84.51 62.59 84.47C62.58 84.43 61.61 82.66 60.43 80.53C59.25 78.4 58.25 76.66 58.22 76.67C58.18 76.67 58.05 76.73 57.94 76.79ZM94.35 76.87C94.19 76.89 93.88 77 93.66 77.11C93.43 77.22 93.07 77.48 92.8 77.73C92.55 77.97 92.19 78.38 92 78.63C91.81 78.89 91.5 79.37 91.32 79.7C91.14 80.03 90.88 80.56 90.75 80.87C90.62 81.18 90.46 81.61 90.41 81.83C90.35 82.05 90.29 82.4 90.26 82.6C90.24 82.81 90.26 83.16 90.3 83.4C90.34 83.64 90.44 83.95 90.52 84.1C90.59 84.25 90.79 84.52 90.97 84.7C91.15 84.89 91.46 85.12 91.7 85.24C91.94 85.36 92.31 85.49 92.54 85.53C92.88 85.59 93.05 85.58 93.44 85.49C93.75 85.42 94.04 85.29 94.27 85.14C94.46 85.01 94.77 84.75 94.96 84.57C95.16 84.38 95.45 84.05 95.62 83.83C95.79 83.61 96.14 83.04 96.4 82.57C96.66 82.09 96.95 81.52 97.04 81.3C97.13 81.08 97.25 80.67 97.31 80.38C97.37 80.1 97.41 79.66 97.41 79.42C97.41 79.17 97.37 78.82 97.3 78.63C97.24 78.45 97.11 78.18 97.01 78.03C96.91 77.89 96.73 77.67 96.61 77.55C96.48 77.44 96.2 77.25 95.97 77.14C95.74 77.03 95.39 76.9 95.2 76.87C95.01 76.83 94.81 76.8 94.75 76.81C94.7 76.81 94.52 76.84 94.35 76.87Z" />
		<path class="shp1" d="M94.55 77.82C94.39 77.86 94.13 77.99 93.99 78.11C93.84 78.22 93.58 78.48 93.4 78.67C93.22 78.87 92.9 79.3 92.68 79.63C92.46 79.96 92.14 80.53 91.96 80.9C91.78 81.27 91.56 81.81 91.46 82.1C91.31 82.54 91.29 82.71 91.32 83.07C91.34 83.31 91.4 83.61 91.45 83.73C91.5 83.86 91.66 84.07 91.8 84.21C91.98 84.37 92.17 84.47 92.41 84.52C92.68 84.58 92.84 84.58 93.11 84.52C93.3 84.48 93.59 84.35 93.76 84.24C93.93 84.12 94.28 83.73 94.61 83.3C94.97 82.81 95.31 82.25 95.62 81.63C95.87 81.12 96.13 80.55 96.19 80.37C96.25 80.18 96.32 79.78 96.33 79.47C96.36 78.92 96.35 78.89 96.14 78.54C95.99 78.3 95.81 78.11 95.62 77.99C95.45 77.89 95.21 77.8 95.09 77.78C94.96 77.76 94.72 77.78 94.55 77.82Z" />
		<path class="shp0" d="M74.54 85.07C74.23 85.1 73.71 85.16 73.38 85.2C73.05 85.24 72.42 85.34 71.98 85.41C71.54 85.48 70.76 85.64 70.25 85.77C69.74 85.89 68.84 86.15 68.26 86.34C67.67 86.53 66.85 86.82 66.43 86.98C66.01 87.15 65.12 87.54 64.47 87.87C63.81 88.19 62.82 88.73 62.27 89.07C61.72 89.41 61 89.89 60.68 90.12C60.35 90.36 59.72 90.85 59.28 91.2C58.84 91.56 58.17 92.14 57.78 92.49C57.4 92.85 56.78 93.47 56.4 93.89C56.02 94.3 55.42 94.99 55.06 95.43C54.71 95.87 54.1 96.7 53.72 97.27C53.33 97.84 52.8 98.67 52.55 99.13C52.29 99.59 51.87 100.4 51.61 100.93C51.36 101.46 51 102.29 50.82 102.77C50.63 103.24 50.34 104.08 50.17 104.63C50 105.18 49.78 106.01 49.67 106.47C49.57 106.92 49.41 107.76 49.31 108.33C49.22 108.9 49.11 109.67 49.07 110.03C49.03 110.4 48.98 111.34 48.96 112.13C48.94 113.03 48.95 113.98 49 114.67C49.05 115.27 49.13 116.08 49.18 116.47C49.23 116.85 49.34 117.5 49.41 117.9C49.49 118.3 49.62 118.95 49.71 119.33C49.8 119.72 50.01 120.48 50.17 121.02C50.34 121.56 50.62 122.37 50.79 122.82C50.97 123.27 51.26 123.95 51.43 124.33C51.6 124.72 51.97 125.45 52.25 125.97C52.52 126.48 52.96 127.23 53.22 127.63C53.48 128.04 53.87 128.62 54.09 128.93C54.31 129.25 54.78 129.88 55.15 130.33C55.52 130.79 56.1 131.46 56.45 131.82C56.8 132.19 57.31 132.7 57.58 132.97C57.86 133.23 58.31 133.64 58.58 133.88C58.86 134.11 59.3 134.49 59.58 134.71C59.85 134.93 60.33 135.29 60.64 135.51C60.95 135.73 61.54 136.13 61.94 136.38C62.34 136.64 63.07 137.07 63.57 137.33C64.06 137.6 64.84 137.99 65.3 138.2C65.75 138.41 66.53 138.73 67.03 138.92C67.52 139.1 68.39 139.39 68.95 139.56C69.52 139.72 70.51 139.96 71.15 140.09C71.79 140.22 72.66 140.37 73.08 140.43C73.5 140.48 74.31 140.56 74.87 140.61C75.5 140.65 76.48 140.67 77.4 140.64C78.22 140.62 79.18 140.57 79.53 140.53C79.87 140.49 80.62 140.38 81.19 140.29C81.76 140.2 82.7 140 83.28 139.86C83.87 139.71 84.72 139.47 85.18 139.32C85.64 139.17 86.46 138.87 87.01 138.65C87.56 138.43 88.42 138.05 88.94 137.8C89.45 137.54 90.32 137.06 90.88 136.72C91.44 136.38 92.26 135.85 92.69 135.55C93.13 135.25 93.49 134.98 93.49 134.95C93.49 134.92 92.9 134.24 92.17 133.43L90.85 131.97C95.88 126.85 97.98 124.72 98.77 123.93L100.21 122.5L101.98 124.37C102.71 122.51 103.06 121.52 103.23 120.98C103.39 120.44 103.61 119.68 103.7 119.28C103.79 118.89 103.93 118.25 104 117.87C104.07 117.48 104.15 116.93 104.19 116.63C104.23 116.34 104.31 115.62 104.36 115.03C104.42 114.45 104.46 113.46 104.46 112.83C104.46 112.21 104.42 111.2 104.36 110.58C104.31 109.97 104.23 109.25 104.2 108.98C104.16 108.72 104.08 108.23 104.02 107.9C103.96 107.57 103.8 106.81 103.65 106.2C103.51 105.59 103.25 104.69 103.09 104.2C102.92 103.7 102.64 102.92 102.45 102.47C102.27 102.01 101.92 101.21 101.67 100.7C101.43 100.19 101.04 99.44 100.81 99.03C100.58 98.63 100.07 97.84 99.69 97.27C99.3 96.7 98.81 96.01 98.59 95.73C98.37 95.46 98 95.02 97.78 94.77C97.56 94.51 97.13 94.03 96.83 93.7C96.52 93.37 95.97 92.82 95.6 92.47C95.22 92.13 94.56 91.56 94.12 91.2C93.68 90.85 93.05 90.36 92.73 90.12C92.4 89.89 91.72 89.44 91.23 89.13C90.74 88.83 89.97 88.39 89.53 88.16C89.1 87.93 88.42 87.6 88.04 87.43C87.65 87.26 86.96 86.97 86.49 86.79C86.03 86.61 85.29 86.36 84.86 86.23C84.43 86.1 83.68 85.89 83.18 85.77C82.69 85.64 81.81 85.47 81.22 85.37C80.64 85.28 79.68 85.16 79.09 85.1C78.46 85.04 77.44 85 76.57 85.01C75.76 85.01 74.85 85.04 74.54 85.07Z" />
		<path class="shp2" d="M74.47 85.67C74.09 85.7 73.34 85.79 72.81 85.87C72.28 85.95 71.49 86.08 71.05 86.18C70.61 86.27 69.94 86.43 69.55 86.53C69.17 86.64 68.53 86.83 68.12 86.97C67.72 87.1 67 87.37 66.53 87.57C66.05 87.76 65.38 88.05 65.03 88.22C64.68 88.38 64.01 88.73 63.53 88.99C63.06 89.26 62.21 89.79 61.64 90.17C61.07 90.55 60.21 91.18 59.71 91.58C59.22 91.98 58.44 92.67 57.98 93.11C57.4 93.68 57.18 93.93 57.25 93.96C57.31 93.98 67.15 95.48 79.13 97.29C91.11 99.1 100.91 100.57 100.92 100.56C100.93 100.54 100.78 100.24 100.6 99.88C100.41 99.53 100.02 98.86 99.74 98.4C99.46 97.94 98.91 97.15 98.53 96.63C98.14 96.12 97.55 95.37 97.2 94.97C96.85 94.56 96.14 93.81 95.61 93.3C95.08 92.79 94.29 92.08 93.86 91.72C93.42 91.37 92.71 90.83 92.29 90.53C91.87 90.23 91.13 89.75 90.65 89.46C90.16 89.17 89.31 88.7 88.75 88.43C88.2 88.15 87.39 87.77 86.97 87.6C86.55 87.43 85.75 87.13 85.18 86.95C84.61 86.76 83.79 86.52 83.35 86.41C82.91 86.3 82.24 86.15 81.85 86.07C81.47 85.99 80.71 85.87 80.16 85.79C79.38 85.69 78.71 85.65 77.17 85.63C76.07 85.62 74.86 85.64 74.47 85.67Z" />
		<path class="shp1" d="M56.05 95.14C55.74 95.51 55.19 96.2 54.83 96.69C54.47 97.17 53.94 97.96 53.64 98.43C53.34 98.91 52.84 99.82 52.52 100.45L51.93 101.6C52.08 102.81 52.19 103.81 52.27 104.6C52.41 106.01 52.41 106.19 52.37 113.78L52.33 121.53C53.34 121.48 53.74 121.45 53.88 121.43L54.13 121.4L54.16 105.43C54.44 104.4 54.62 103.89 54.75 103.63C54.87 103.38 55.1 102.97 55.26 102.73C55.42 102.49 55.74 102.1 55.98 101.86C56.22 101.62 56.7 101.24 57.05 101.01C57.4 100.78 57.92 100.5 58.22 100.39C58.51 100.28 58.97 100.13 59.25 100.06C59.52 100 60.07 99.9 60.48 99.86C61.05 99.8 61.38 99.8 62.01 99.86C62.44 99.91 63.12 100.04 63.5 100.15C63.89 100.25 64.41 100.44 64.67 100.56C64.92 100.68 65.37 100.94 65.66 101.13C65.96 101.33 66.37 101.68 66.59 101.9C66.81 102.12 67.13 102.51 67.3 102.77C67.48 103.02 67.7 103.43 67.79 103.67C67.89 103.91 68.03 104.33 68.11 104.6C68.25 105.1 68.25 105.18 68.27 112.72C68.28 116.91 68.31 120.33 68.34 120.33C68.37 120.33 68.9 120.29 69.52 120.23C70.14 120.18 70.67 120.13 70.7 120.13C70.73 120.13 70.76 117.14 70.77 113.48L70.78 106.83C71.01 106.16 71.19 105.77 71.33 105.54C71.47 105.3 71.79 104.88 72.05 104.61C72.3 104.34 72.71 103.97 72.94 103.8C73.18 103.62 73.72 103.31 74.14 103.11C74.56 102.91 75.1 102.69 75.34 102.61C75.58 102.54 76.02 102.43 76.34 102.37C76.65 102.31 77.24 102.27 77.66 102.27C78.09 102.27 78.67 102.31 78.96 102.36C79.25 102.41 79.69 102.53 79.93 102.61C80.16 102.7 80.54 102.87 80.75 103C80.97 103.13 81.37 103.46 81.65 103.73C82.05 104.12 82.22 104.36 82.44 104.8C82.59 105.11 82.77 105.59 82.85 105.87C82.93 106.16 83.02 106.78 83.05 107.33C83.1 107.92 83.12 110.45 83.1 113.75C83.09 117.35 83.11 119.2 83.15 119.2C83.19 119.2 83.73 119.15 84.35 119.1C84.97 119.05 85.52 119 85.56 119C85.63 119 85.64 117.98 85.64 114.12C85.64 110.19 85.66 109.11 85.74 108.6C85.79 108.25 85.9 107.79 85.98 107.57C86.05 107.35 86.24 106.93 86.4 106.64C86.55 106.36 86.87 105.91 87.11 105.65C87.35 105.38 87.79 105.01 88.1 104.8C88.44 104.58 88.88 104.36 89.2 104.25C89.49 104.15 89.93 104.02 90.17 103.96C90.48 103.88 90.87 103.84 91.56 103.84C92.26 103.83 92.66 103.87 92.99 103.95C93.25 104.01 93.73 104.17 94.06 104.3C94.38 104.44 94.85 104.67 95.09 104.83C95.32 104.98 95.7 105.29 95.92 105.5C96.14 105.72 96.44 106.08 96.58 106.3C96.73 106.52 96.93 106.92 97.02 107.2C97.12 107.47 97.24 107.94 97.28 108.23C97.34 108.64 97.35 109.91 97.32 113.45L97.28 118.13C97.72 118.08 98.25 118.03 98.74 118C99.24 117.96 99.65 117.92 99.65 117.91C99.66 117.91 99.68 116.16 99.71 114.03C99.73 111.91 99.78 109.95 99.81 109.68C99.85 109.42 99.94 109.01 100.01 108.78C100.09 108.55 100.3 108.13 100.49 107.84C100.68 107.55 101.03 107.13 101.27 106.91C101.51 106.68 101.93 106.35 102.21 106.17C102.49 105.98 102.77 105.8 102.84 105.77C102.95 105.7 102.93 105.63 102.67 104.8C102.52 104.31 102.28 103.61 102.16 103.27C102.03 102.92 101.77 102.31 101.58 101.92C101.27 101.28 101.22 101.2 101.04 101.17C100.93 101.15 94.36 100.16 86.44 98.97C78.52 97.77 68.58 96.27 64.35 95.63C60.12 94.99 56.65 94.47 56.64 94.47C56.63 94.47 56.37 94.77 56.05 95.14Z" />
		<path class="shp2" d="M60.04 100.47C59.84 100.5 59.42 100.6 59.1 100.7C58.78 100.79 58.3 100.98 58.03 101.11C57.77 101.24 57.37 101.48 57.15 101.63C56.93 101.79 56.52 102.17 56.23 102.47C55.82 102.91 55.63 103.18 55.38 103.7C55.2 104.07 54.97 104.67 54.88 105.03L54.7 105.7L54.66 121.93C54.32 121.98 53.88 122.01 53.46 122.03C53.04 122.05 52.49 122.09 52.25 122.12L51.8 122.17C51.79 109.35 51.77 105.26 51.74 104.8C51.7 104.34 51.64 103.68 51.6 103.33C51.56 102.98 51.5 102.73 51.47 102.77C51.44 102.8 51.27 103.22 51.1 103.7C50.93 104.18 50.68 104.97 50.54 105.47C50.4 105.96 50.22 106.65 50.14 107C50.07 107.35 49.95 107.99 49.88 108.43C49.81 108.87 49.71 109.52 49.66 109.87C49.61 110.27 49.57 111.29 49.57 112.73C49.57 114.51 49.6 115.16 49.69 115.9C49.76 116.41 49.89 117.24 49.98 117.73C50.07 118.23 50.23 118.99 50.34 119.43C50.44 119.87 50.64 120.58 50.77 121C50.9 121.42 51.19 122.23 51.42 122.8C51.64 123.37 52.09 124.36 52.41 125C52.73 125.64 53.27 126.62 53.61 127.17C53.95 127.72 54.53 128.57 54.9 129.07C55.27 129.56 55.9 130.34 56.3 130.8C56.71 131.26 57.36 131.95 57.76 132.33C58.16 132.72 58.69 133.21 58.94 133.43C59.2 133.65 59.66 134.04 59.97 134.29C60.29 134.54 60.98 135.04 61.51 135.4C62.04 135.75 62.79 136.23 63.17 136.45C63.55 136.67 64.29 137.06 64.8 137.32C65.31 137.57 66.15 137.95 66.66 138.15C67.17 138.35 67.97 138.64 68.42 138.79C68.88 138.94 69.55 139.13 69.92 139.23C70.28 139.32 70.97 139.47 71.45 139.57C71.92 139.67 72.76 139.8 73.31 139.87C73.98 139.96 74.91 140.02 76.14 140.04C77.57 140.07 78.22 140.06 79.13 139.97C79.77 139.91 80.73 139.78 81.26 139.69C81.79 139.6 82.59 139.44 83.05 139.32C83.51 139.21 84.44 138.94 85.11 138.72C85.79 138.5 86.76 138.14 87.27 137.92C87.79 137.7 88.44 137.4 88.74 137.25C89.03 137.1 89.67 136.76 90.17 136.48C90.66 136.2 91.29 135.83 91.56 135.65C91.84 135.46 92.2 135.21 92.38 135.09L92.69 134.87C91.69 133.76 91.14 133.15 90.83 132.8C90.52 132.45 90.23 132.11 90.18 132.05C90.11 131.95 90.68 131.34 95.17 126.79L100.24 121.65L101.79 123.3C102.02 122.78 102.26 122.11 102.47 121.47C102.68 120.83 102.94 119.92 103.05 119.47C103.16 119.01 103.33 118.24 103.42 117.77C103.52 117.29 103.65 116.48 103.71 115.97C103.8 115.24 103.83 114.54 103.83 112.8C103.83 111.05 103.8 110.37 103.71 109.67C103.65 109.17 103.55 108.51 103.49 108.2C103.43 107.89 103.33 107.38 103.26 107.07C103.19 106.75 103.12 106.46 103.1 106.42C103.07 106.36 102.98 106.38 102.75 106.5C102.58 106.59 102.2 106.87 101.92 107.12C101.64 107.36 101.29 107.72 101.15 107.9C101.01 108.08 100.8 108.41 100.69 108.63C100.58 108.85 100.45 109.21 100.41 109.43C100.36 109.69 100.32 111.41 100.29 114.11C100.26 116.46 100.21 118.41 100.18 118.44C100.15 118.48 99.55 118.54 98.85 118.58C98.15 118.62 97.39 118.68 97.16 118.7L96.75 118.73L96.72 107.97C96.43 107.19 96.22 106.77 96.07 106.54C95.91 106.3 95.59 105.94 95.35 105.72C95.09 105.48 94.69 105.21 94.32 105.03C93.99 104.87 93.45 104.67 93.12 104.59C92.64 104.47 92.34 104.44 91.53 104.44C90.7 104.44 90.44 104.46 89.97 104.59C89.66 104.68 89.18 104.86 88.9 105C88.63 105.15 88.22 105.42 87.99 105.6C87.76 105.78 87.44 106.12 87.28 106.35C87.12 106.58 86.91 106.92 86.82 107.12C86.72 107.31 86.56 107.73 86.46 108.05L86.29 108.63C86.19 117.06 86.16 119.5 86.15 119.51C86.15 119.51 85.35 119.58 84.38 119.66C83.41 119.74 82.6 119.8 82.57 119.8C82.54 119.8 82.51 116.84 82.5 113.22L82.48 106.63C82.25 105.81 82.11 105.42 82.02 105.23C81.94 105.05 81.72 104.71 81.54 104.47C81.37 104.23 81.04 103.91 80.82 103.75C80.6 103.58 80.26 103.38 80.06 103.29C79.86 103.2 79.47 103.06 79.19 102.98C78.79 102.87 78.52 102.84 77.7 102.84C76.82 102.84 76.61 102.86 75.97 103.03C75.57 103.13 74.98 103.32 74.67 103.46C74.36 103.59 73.97 103.78 73.81 103.88C73.64 103.97 73.28 104.23 72.99 104.46C72.71 104.68 72.34 105.05 72.17 105.28C72 105.51 71.78 105.88 71.68 106.1C71.58 106.32 71.46 106.66 71.42 106.85C71.37 107.1 71.35 109.21 71.35 113.93L71.35 120.67C70.5 120.72 69.7 120.78 69.02 120.83C68.34 120.88 67.78 120.9 67.76 120.89C67.74 120.87 67.71 117.3 67.69 112.94L67.65 105.03C67.42 104.26 67.23 103.81 67.08 103.53C66.94 103.26 66.71 102.89 66.57 102.71C66.44 102.53 66.13 102.22 65.89 102.01C65.64 101.8 65.22 101.51 64.96 101.35C64.69 101.2 64.17 100.96 63.8 100.84C63.44 100.71 62.87 100.56 62.54 100.5C62.2 100.44 61.61 100.4 61.17 100.41C60.75 100.41 60.25 100.44 60.04 100.47Z" />
		<path class="shp0" d="M40.43 116.36C38.11 116.77 36.21 117.14 36.21 117.17C36.21 117.2 36.24 117.47 36.29 117.75C36.36 118.17 36.39 118.27 36.49 118.27C36.55 118.27 37.46 118.12 38.5 117.94C39.54 117.75 40.4 117.61 40.41 117.62C40.41 117.63 40.57 118.55 40.77 119.67C40.96 120.79 41.12 121.71 41.12 121.71C41.12 121.72 41.34 121.69 41.59 121.65C41.85 121.61 42.08 121.56 42.11 121.54C42.14 121.52 42.01 120.63 41.83 119.57C41.64 118.5 41.48 117.57 41.46 117.5C41.43 117.38 41.52 117.35 42.81 117.15C43.57 117.03 44.19 116.94 44.19 116.95C44.19 116.96 44.38 118.03 44.61 119.33C44.84 120.64 45.03 121.71 45.04 121.71C45.04 121.72 45.26 121.69 45.53 121.65C45.79 121.6 46.02 121.55 46.04 121.53C46.06 121.51 45.86 120.3 45.61 118.83C45.35 117.37 45.12 116.05 45.09 115.9C45.05 115.66 45.03 115.63 44.85 115.62C44.74 115.62 42.75 115.95 40.43 116.36ZM109.95 115.9C109.91 115.91 109.72 115.97 109.52 116.02C109.28 116.09 109.04 116.22 108.85 116.38C108.69 116.53 108.46 116.79 108.34 116.97C108.22 117.15 108.07 117.49 107.99 117.73C107.92 117.97 107.72 118.93 107.55 119.87C107.39 120.8 107.23 121.61 107.22 121.67C107.19 121.75 107.34 121.8 107.94 121.91C108.35 122 109.79 122.26 111.14 122.5C112.5 122.74 114.16 123.03 114.84 123.14C115.51 123.25 116.07 123.33 116.07 123.32C116.08 123.31 116.22 122.47 116.4 121.47C116.66 119.97 116.72 119.49 116.72 118.83C116.73 118.09 116.71 118 116.54 117.63C116.43 117.39 116.2 117.09 115.98 116.86C115.68 116.57 115.51 116.46 115.15 116.35C114.9 116.27 114.53 116.2 114.32 116.2C114.11 116.2 113.79 116.24 113.6 116.3C113.42 116.35 113.15 116.48 112.99 116.6C112.83 116.71 112.61 116.94 112.49 117.1C112.37 117.27 112.26 117.4 112.24 117.4C112.22 117.4 112.17 117.3 112.13 117.18C112.09 117.06 111.92 116.82 111.76 116.64C111.61 116.46 111.36 116.25 111.21 116.18C111.06 116.11 110.8 116.01 110.61 115.96C110.43 115.91 110.22 115.87 110.15 115.87C110.07 115.88 109.98 115.89 109.95 115.9Z" />
		<path class="shp1" d="M109.78 117.2C109.58 117.27 109.36 117.4 109.28 117.49C109.21 117.58 109.09 117.83 109.02 118.04C108.96 118.26 108.8 118.96 108.69 119.6C108.53 120.42 108.49 120.78 108.54 120.81C108.58 120.83 109.19 120.95 109.88 121.06C110.58 121.18 111.15 121.27 111.15 121.25C111.15 121.24 111.24 120.77 111.33 120.2C111.43 119.63 111.53 118.97 111.55 118.73C111.58 118.46 111.56 118.19 111.51 118C111.46 117.83 111.33 117.61 111.22 117.49C111.11 117.38 110.89 117.25 110.75 117.21C110.6 117.17 110.4 117.12 110.31 117.1C110.22 117.08 109.98 117.13 109.78 117.2ZM113.84 117.44C113.78 117.46 113.63 117.52 113.5 117.58C113.36 117.64 113.17 117.82 113.05 117.99C112.93 118.16 112.77 118.49 112.7 118.73C112.63 118.97 112.49 119.68 112.38 120.3C112.28 120.92 112.19 121.44 112.2 121.45C112.2 121.46 112.88 121.59 113.7 121.73C114.53 121.88 115.21 122 115.22 121.99C115.23 121.97 115.32 121.44 115.43 120.8C115.54 120.16 115.65 119.44 115.67 119.2C115.7 118.94 115.68 118.66 115.64 118.5C115.6 118.35 115.48 118.12 115.38 117.98C115.26 117.82 115.08 117.68 114.87 117.59C114.69 117.51 114.4 117.44 114.24 117.43C114.07 117.41 113.89 117.42 113.84 117.44Z" />
		<path class="shp0" d="M77.37 123.77C77.33 123.78 77.09 123.83 76.83 123.89C76.58 123.95 76.19 124.07 75.97 124.16C75.75 124.25 75.39 124.42 75.17 124.55C74.95 124.68 74.59 124.94 74.37 125.12C74.15 125.31 73.8 125.68 73.59 125.95C73.37 126.22 73.05 126.73 72.87 127.1C72.69 127.47 72.49 128.01 72.41 128.3C72.34 128.59 72.26 129.12 72.23 129.47C72.21 129.82 72.23 130.33 72.27 130.63C72.31 130.93 72.42 131.38 72.5 131.63C72.59 131.89 72.76 132.31 72.89 132.57C73.02 132.82 73.27 133.23 73.45 133.46C73.63 133.7 73.97 134.07 74.21 134.28C74.44 134.5 74.83 134.79 75.07 134.94C75.31 135.08 75.74 135.29 76.04 135.41C76.33 135.52 76.75 135.66 76.97 135.72C77.23 135.79 77.66 135.82 78.26 135.83C79 135.83 79.26 135.8 79.73 135.67C80.04 135.59 80.55 135.4 80.86 135.25C81.17 135.11 81.6 134.86 81.82 134.7C82.04 134.54 82.4 134.22 82.62 133.99C82.84 133.76 83.16 133.37 83.32 133.13C83.48 132.89 83.69 132.5 83.8 132.27C83.91 132.03 84.07 131.55 84.16 131.2C84.28 130.71 84.32 130.4 84.32 129.78C84.31 129.33 84.27 128.8 84.21 128.52C84.15 128.25 84.03 127.84 83.94 127.6C83.84 127.36 83.64 126.96 83.49 126.7C83.34 126.44 83.05 126.04 82.85 125.8C82.65 125.56 82.27 125.21 82.02 125.01C81.76 124.82 81.26 124.51 80.89 124.34C80.52 124.16 79.97 123.95 79.66 123.87C79.23 123.77 78.9 123.73 78.26 123.74C77.81 123.74 77.4 123.75 77.37 123.77Z" />
		<path class="shp1" d="M77.27 123.93C77.1 123.96 76.79 124.03 76.57 124.1C76.35 124.16 76.09 124.26 75.99 124.31C75.89 124.36 75.8 124.43 75.8 124.47C75.8 124.5 75.86 124.53 75.94 124.53C76.01 124.53 76.33 124.45 76.65 124.36C77.11 124.22 77.41 124.18 78.1 124.16C78.66 124.14 78.99 124.1 79.05 124.05C79.12 123.98 79.12 123.96 79.05 123.92C79 123.89 78.65 123.87 78.26 123.88C77.88 123.88 77.43 123.9 77.27 123.93Z" />
		<path class="shp0" d="M44.19 125.3C42.76 126.01 41.44 126.69 41.25 126.81C41.06 126.93 40.74 127.19 40.55 127.37C40.35 127.56 40.12 127.86 40.02 128.04C39.92 128.22 39.81 128.55 39.77 128.77C39.73 128.99 39.7 129.27 39.7 129.4C39.7 129.53 39.74 129.81 39.8 130.03C39.85 130.25 40.07 130.78 40.27 131.2C40.57 131.82 40.74 132.05 41.09 132.41C41.37 132.69 41.67 132.92 41.92 133.04C42.29 133.22 42.38 133.23 43.05 133.23C43.66 133.23 43.88 133.19 44.32 133.05C44.61 132.95 45.99 132.3 47.39 131.6C48.79 130.9 49.94 130.32 49.94 130.3C49.94 130.28 49.83 130.05 49.7 129.78C49.57 129.52 49.45 129.3 49.42 129.3C49.39 129.3 48.35 129.81 47.11 130.42C45.87 131.04 44.6 131.65 44.28 131.77C43.97 131.89 43.54 132.02 43.32 132.07C43.1 132.11 42.82 132.13 42.69 132.1C42.56 132.08 42.33 131.98 42.17 131.9C42.02 131.81 41.77 131.58 41.62 131.38C41.47 131.19 41.26 130.85 41.15 130.63C41.04 130.41 40.92 130.04 40.88 129.8C40.82 129.43 40.82 129.31 40.93 128.97C41.02 128.65 41.12 128.49 41.42 128.19C41.76 127.84 42.01 127.71 44.57 126.44C46.09 125.68 47.34 125.06 47.35 125.05C47.35 125.04 47.24 124.8 47.11 124.52C46.98 124.23 46.86 124 46.83 124C46.8 124.01 45.61 124.59 44.19 125.3Z" />
		<path class="shp1" d="M77.4 124.4C77.2 124.43 76.85 124.52 76.63 124.59C76.41 124.67 76.18 124.8 76.12 124.88C76.05 124.97 75.94 125.18 75.88 125.37C75.81 125.55 75.74 125.81 75.72 125.93C75.68 126.16 75.69 126.18 76.06 126.41C76.26 126.54 76.62 126.83 76.85 127.04L77.26 127.43C77.98 127.19 78.43 127.11 78.82 127.08L79.47 127.03L80.29 125.47C79.78 124.95 79.46 124.7 79.26 124.58C78.94 124.4 78.82 124.37 78.33 124.36C78.02 124.35 77.6 124.37 77.4 124.4Z" />
		<path class="shp0" d="M105.97 125.03C105.84 125.31 105.73 125.55 105.73 125.57C105.73 125.59 106.96 126.21 108.47 126.96C110.75 128.1 111.28 128.39 111.6 128.68C111.82 128.87 112.05 129.15 112.12 129.3C112.18 129.45 112.24 129.7 112.24 129.87C112.24 130.03 112.2 130.33 112.14 130.53C112.09 130.74 111.94 131.11 111.82 131.37C111.68 131.65 111.48 131.94 111.3 132.1C111.14 132.25 110.89 132.42 110.74 132.49C110.57 132.58 110.33 132.62 110.08 132.63C109.83 132.63 109.51 132.57 109.22 132.47C108.96 132.38 107.61 131.75 106.21 131.06L103.66 129.8L103.13 130.87C104.7 131.63 105.91 132.22 106.82 132.66C107.74 133.11 108.71 133.55 108.98 133.64C109.35 133.76 109.63 133.81 110.05 133.81C110.44 133.81 110.72 133.77 110.95 133.68C111.13 133.62 111.41 133.47 111.58 133.36C111.74 133.25 112.03 132.96 112.22 132.73C112.41 132.49 112.67 132.09 112.8 131.83C112.93 131.58 113.1 131.19 113.17 130.97C113.25 130.75 113.33 130.36 113.35 130.1C113.38 129.77 113.36 129.51 113.28 129.2C113.22 128.96 113.09 128.65 112.99 128.5C112.9 128.35 112.66 128.07 112.48 127.88C112.29 127.68 111.9 127.38 111.61 127.2C111.32 127.03 109.99 126.36 108.67 125.71C107.34 125.06 106.25 124.53 106.24 124.53C106.22 124.53 106.1 124.76 105.97 125.03Z" />
		<path class="shp1" d="M80.08 126.36L79.66 127.2C79.88 127.38 80.05 127.63 80.19 127.87C80.33 128.1 80.51 128.47 80.6 128.68C80.75 129.06 80.76 129.07 81.01 129.07C81.14 129.07 81.49 129.11 81.77 129.17C82.05 129.23 82.38 129.32 82.49 129.38C82.67 129.47 82.69 129.47 82.84 129.32C82.92 129.24 83.07 128.99 83.16 128.77C83.26 128.55 83.34 128.26 83.34 128.13C83.34 128 83.24 127.69 83.12 127.43C83 127.18 82.78 126.78 82.61 126.55C82.45 126.32 82.22 126.06 82.1 125.98C81.98 125.89 81.75 125.77 81.59 125.71C81.42 125.64 81.11 125.57 80.89 125.55L80.49 125.52L80.08 126.36ZM82.32 125.68C82.32 125.81 82.41 125.97 82.6 126.19C82.76 126.36 83.01 126.75 83.16 127.04C83.31 127.33 83.47 127.67 83.51 127.8C83.55 127.93 83.65 128.11 83.75 128.2C83.84 128.29 83.93 128.35 83.95 128.33C83.97 128.31 83.91 128.07 83.82 127.8C83.72 127.52 83.52 127.08 83.37 126.81C83.21 126.54 82.91 126.13 82.7 125.91C82.34 125.52 82.33 125.51 82.32 125.68ZM73.22 126.7C73.1 126.88 72.92 127.27 72.81 127.55C72.7 127.83 72.56 128.27 72.5 128.52C72.43 128.8 72.39 129.25 72.38 129.75C72.38 130.52 72.38 130.52 72.58 130.73L72.78 130.93C73.04 130.34 73.17 130.12 73.24 130.07C73.33 129.99 73.35 129.85 73.35 129.38C73.34 129.05 73.4 128.51 73.48 128.12C73.61 127.48 73.61 127.39 73.52 126.9L73.43 126.37L73.22 126.7ZM74.97 126.59C74.75 126.7 74.42 126.93 74.22 127.09C73.88 127.39 73.87 127.42 73.74 128.02C73.66 128.36 73.58 128.92 73.56 129.27L73.52 129.9C74.09 130.42 74.41 130.65 74.6 130.75L74.94 130.93C75.33 130.58 75.63 130.36 75.87 130.21C76.11 130.05 76.41 129.9 76.53 129.86L76.77 129.79C76.85 128.74 76.92 128.24 76.97 128L77.08 127.57C76.37 126.91 76.03 126.65 75.85 126.56C75.68 126.47 75.5 126.4 75.45 126.4C75.41 126.4 75.19 126.49 74.97 126.59ZM80.58 129.44C80.52 129.55 80.27 129.85 80.02 130.11C79.77 130.37 79.46 130.66 79.34 130.76L79.13 130.93C79.38 131.99 79.48 132.48 79.51 132.69C79.56 133.08 79.57 133.09 79.83 133.18C79.97 133.23 80.35 133.33 80.66 133.4L81.22 133.53C81.58 133.29 81.8 133.12 81.95 132.99C82.09 132.87 82.33 132.6 82.49 132.4C82.64 132.2 82.82 131.93 82.88 131.8C82.98 131.62 83 131.47 82.97 131.1C82.95 130.84 82.88 130.44 82.82 130.2C82.75 129.96 82.65 129.73 82.59 129.68C82.53 129.63 82.31 129.54 82.09 129.47C81.87 129.4 81.46 129.33 81.19 129.3C80.69 129.26 80.69 129.26 80.58 129.44ZM76.37 130.2C76.08 130.35 75.66 130.61 75.44 130.78L75.05 131.1C75.11 132.34 75.16 132.82 75.21 132.96C75.3 133.2 75.37 133.26 76.04 133.61C76.44 133.82 76.92 134.06 77.12 134.13L77.47 134.27C78.26 133.84 78.67 133.6 78.88 133.44C79.24 133.18 79.26 133.15 79.26 132.87C79.26 132.7 79.23 132.39 79.19 132.17C79.16 131.95 79.07 131.58 79.01 131.35L78.9 130.93C77.97 130.51 77.53 130.29 77.32 130.16C77.11 130.04 76.93 129.93 76.92 129.93C76.91 129.93 76.66 130.05 76.37 130.2ZM72.55 131.18C72.55 131.21 72.6 131.41 72.68 131.63C72.76 131.85 72.95 132.29 73.12 132.6C73.28 132.91 73.49 133.26 73.58 133.37C73.71 133.54 73.74 133.55 73.77 133.45C73.79 133.38 73.72 133.21 73.58 133.02C73.46 132.84 73.29 132.56 73.21 132.4C73.12 132.24 72.98 131.89 72.88 131.64C72.79 131.39 72.68 131.17 72.64 131.15C72.59 131.13 72.56 131.15 72.55 131.18ZM83.43 131.79C83.23 131.89 83.01 132.04 82.96 132.13C82.9 132.22 82.71 132.48 82.53 132.69C82.36 132.9 82.02 133.22 81.78 133.4C81.45 133.64 81.34 133.77 81.28 133.97C81.23 134.12 81.12 134.38 81.03 134.55C80.93 134.72 80.86 134.88 80.86 134.9C80.86 134.92 80.94 134.93 81.04 134.94C81.14 134.94 81.36 134.84 81.52 134.72C81.69 134.61 81.98 134.37 82.18 134.21C82.37 134.04 82.69 133.69 82.88 133.43C83.08 133.18 83.33 132.82 83.43 132.63C83.54 132.45 83.67 132.16 83.72 131.98C83.78 131.81 83.82 131.65 83.81 131.64C83.81 131.63 83.64 131.7 83.43 131.79Z" />
		<path class="shp0" d="M50.88 132.42L50.53 132.77C52.03 134.42 52.45 134.93 52.44 134.97C52.43 135 51.5 135.9 50.36 136.95C49.23 138.01 47.95 139.21 47.52 139.62L46.73 140.37L47.58 141.21C51.8 137.25 53.09 136.04 53.18 135.97L53.34 135.83C54.08 136.61 54.53 137.09 54.83 137.4L55.37 137.97L56.15 137.28C55.28 136.36 54.19 135.19 53.16 134.08C52.14 132.97 51.28 132.07 51.26 132.07C51.24 132.07 51.07 132.22 50.88 132.42Z" />
		<path class="shp1" d="M74.87 133.47C74.78 133.5 74.55 133.52 74.36 133.53L74.01 133.53C74.15 133.99 74.27 134.16 74.44 134.3C74.59 134.42 74.9 134.64 75.14 134.79C75.38 134.95 75.81 135.16 76.1 135.28C76.39 135.39 76.8 135.51 77 135.55C77.26 135.6 77.43 135.6 77.6 135.54C77.73 135.5 77.88 135.44 77.93 135.41C78.01 135.36 77.99 135.3 77.78 135.06C77.64 134.9 77.51 134.71 77.49 134.63C77.48 134.55 77.37 134.47 77.21 134.42C77.08 134.37 76.7 134.21 76.37 134.05C76.04 133.89 75.64 133.68 75.49 133.58C75.33 133.48 75.17 133.4 75.12 133.41C75.08 133.41 74.96 133.44 74.87 133.47ZM80.19 135.21C80.1 135.25 79.81 135.32 79.54 135.37C79.28 135.42 78.87 135.47 78.65 135.46C78.35 135.46 78.2 135.49 78.13 135.57C78.04 135.66 78.06 135.67 78.4 135.67C78.6 135.67 79 135.62 79.29 135.57C79.59 135.52 79.99 135.42 80.19 135.36C80.39 135.3 80.59 135.23 80.62 135.19C80.66 135.16 80.62 135.13 80.52 135.14C80.43 135.14 80.28 135.17 80.19 135.21Z" />
		<path class="shp0" d="M98.02 136.27L97.61 136.73C98.01 137.07 99.5 138.44 101.18 139.99L104.23 142.82C104.5 142.52 105.34 141.61 106.28 140.6L107.97 138.77L107.22 137.99C104.96 140.45 104.29 141.17 104.26 141.17C104.23 141.17 103.05 140.09 101.63 138.77C100.21 137.45 98.91 136.24 98.74 136.09L98.43 135.81L98.02 136.27ZM57.9 138.78C57.81 138.92 57.13 140.01 56.39 141.2C55.64 142.39 54.65 143.97 54.18 144.72C53.71 145.46 53.33 146.08 53.33 146.1C53.33 146.12 53.72 146.38 54.21 146.69C54.69 147 55.54 147.51 56.09 147.84C56.69 148.19 57.28 148.49 57.58 148.59C58 148.72 58.16 148.74 58.55 148.7C58.82 148.68 59.16 148.59 59.36 148.5C59.55 148.41 59.85 148.19 60.03 148.02C60.2 147.84 60.43 147.52 60.54 147.3C60.67 147.03 60.74 146.76 60.76 146.47C60.78 146.18 60.76 145.92 60.69 145.7C60.63 145.52 60.5 145.25 60.41 145.1C60.31 144.95 60.25 144.83 60.26 144.82C60.27 144.81 60.46 144.78 60.68 144.75C60.9 144.71 61.21 144.62 61.37 144.55C61.54 144.48 61.79 144.31 61.93 144.16C62.07 144.02 62.26 143.74 62.36 143.53C62.51 143.23 62.54 143.08 62.54 142.63C62.53 142.2 62.5 142.04 62.37 141.77C62.28 141.59 62.07 141.29 61.91 141.11C61.74 140.93 61.35 140.61 61.04 140.4C60.73 140.19 60.04 139.75 59.51 139.42C58.98 139.09 58.44 138.76 58.31 138.67L58.06 138.53L57.9 138.78ZM93.96 139.54C93.79 139.57 93.48 139.66 93.26 139.73C93.04 139.8 92.63 140.01 92.36 140.19C92.09 140.37 91.7 140.69 91.49 140.91C91.29 141.12 91.06 141.4 90.98 141.53C90.9 141.66 90.76 141.98 90.66 142.23C90.55 142.53 90.47 142.9 90.45 143.23C90.43 143.6 90.45 143.94 90.52 144.3C90.58 144.59 90.7 145.01 90.78 145.23C90.87 145.45 91.09 145.89 91.27 146.19C91.46 146.53 91.81 146.98 92.13 147.3C92.42 147.6 92.85 147.97 93.09 148.13C93.33 148.28 93.72 148.47 93.96 148.54C94.19 148.61 94.61 148.69 94.89 148.71C95.24 148.74 95.51 148.72 95.82 148.64C96.06 148.58 96.46 148.43 96.72 148.31C96.97 148.19 97.36 147.97 97.58 147.82C97.8 147.67 98.07 147.45 98.19 147.32C98.31 147.2 98.51 146.92 98.64 146.7C98.77 146.48 98.93 146.13 98.99 145.93C99.05 145.72 99.1 145.32 99.1 144.97C99.11 144.64 99.06 144.18 99.01 143.96L98.91 143.55C98.19 143.75 97.93 143.84 97.88 143.87C97.79 143.92 97.79 143.98 97.87 144.35C97.92 144.6 97.94 144.96 97.92 145.23C97.9 145.57 97.83 145.81 97.69 146.1C97.58 146.33 97.34 146.64 97.15 146.82C96.97 146.99 96.61 147.23 96.37 147.35C95.94 147.55 95.88 147.57 95.18 147.57C94.47 147.57 94.43 147.56 93.99 147.33C93.68 147.18 93.41 146.96 93.14 146.67C92.91 146.43 92.59 146.01 92.41 145.73C92.23 145.46 92 144.99 91.88 144.7C91.77 144.41 91.65 143.99 91.62 143.77C91.58 143.55 91.57 143.21 91.59 143.02C91.61 142.82 91.69 142.49 91.77 142.28C91.88 142 92.03 141.79 92.32 141.5C92.57 141.25 92.9 141.01 93.19 140.86C93.59 140.67 93.73 140.63 94.22 140.61C94.65 140.59 94.86 140.62 95.09 140.71C95.25 140.77 95.53 140.93 95.7 141.05L96.02 141.27L96.89 140.5C96.55 140.21 96.27 140.03 96.05 139.9C95.83 139.78 95.46 139.63 95.22 139.57C94.98 139.51 94.67 139.47 94.52 139.47C94.37 139.48 94.12 139.51 93.96 139.54Z" />
		<path class="shp1" d="M57.78 141.19L57.09 142.32C58.48 143.2 59.1 143.56 59.36 143.69C59.67 143.85 59.94 143.93 60.11 143.93C60.26 143.93 60.46 143.89 60.56 143.84C60.66 143.79 60.85 143.63 60.99 143.47C61.13 143.32 61.27 143.13 61.31 143.03C61.34 142.94 61.37 142.72 61.37 142.55C61.37 142.34 61.32 142.14 61.22 141.97C61.13 141.82 60.85 141.55 60.6 141.36C60.35 141.17 59.78 140.81 59.35 140.54C58.91 140.28 58.53 140.07 58.51 140.07C58.49 140.07 58.16 140.57 57.78 141.19ZM56.43 143.35C56.38 143.43 56.03 144 55.65 144.6C55.28 145.2 54.96 145.73 54.94 145.77C54.93 145.8 55.36 146.12 55.9 146.47C56.44 146.82 57.04 147.19 57.23 147.29C57.43 147.39 57.73 147.5 57.9 147.54C58.12 147.59 58.29 147.59 58.48 147.54C58.63 147.5 58.88 147.35 59.04 147.22C59.2 147.08 59.39 146.85 59.47 146.7C59.56 146.51 59.6 146.32 59.6 146.03C59.6 145.81 59.55 145.54 59.49 145.43C59.44 145.32 59.28 145.12 59.14 144.99C59 144.86 58.61 144.57 58.28 144.35C57.95 144.13 57.42 143.79 57.1 143.58L56.52 143.2L56.43 143.35Z" />
		<path class="shp0" d="M67.82 143.57C67.62 143.62 67.24 143.77 66.98 143.9C66.71 144.03 66.33 144.29 66.12 144.48C65.91 144.68 65.62 145.03 65.46 145.27C65.3 145.5 65.08 145.93 64.97 146.22C64.86 146.5 64.71 146.99 64.63 147.3C64.56 147.61 64.5 148.09 64.5 148.37C64.5 148.64 64.55 149.1 64.6 149.38C64.66 149.67 64.78 150.06 64.87 150.27C64.95 150.47 65.15 150.81 65.31 151.02C65.47 151.24 65.79 151.57 66.03 151.77C66.27 151.96 66.61 152.19 66.79 152.28C66.98 152.38 67.38 152.51 67.69 152.59C68.03 152.68 68.47 152.73 68.79 152.73C69.08 152.73 69.5 152.7 69.72 152.66C69.94 152.62 70.33 152.49 70.58 152.37C70.84 152.25 71.21 152.03 71.4 151.88C71.59 151.72 71.86 151.44 72.01 151.25C72.15 151.06 72.37 150.7 72.5 150.47C72.63 150.23 72.81 149.78 72.9 149.47C72.99 149.15 73.1 148.66 73.14 148.37C73.19 147.98 73.19 147.67 73.14 147.27C73.1 146.95 73.03 146.55 72.97 146.37C72.92 146.18 72.76 145.83 72.62 145.57C72.46 145.27 72.22 144.96 71.91 144.67C71.66 144.43 71.27 144.14 71.05 144.02C70.83 143.91 70.46 143.75 70.22 143.67C69.89 143.55 69.59 143.51 68.99 143.49C68.41 143.47 68.09 143.5 67.82 143.57Z" />
		<path class="shp1" d="M68.26 144.57C68.04 144.63 67.68 144.77 67.46 144.89C67.21 145.03 66.95 145.25 66.77 145.47C66.61 145.67 66.38 146.04 66.25 146.3C66.13 146.56 65.97 147.01 65.89 147.3C65.78 147.69 65.74 148.04 65.74 148.6C65.73 149.2 65.76 149.45 65.86 149.73C65.93 149.94 66.1 150.26 66.24 150.47C66.37 150.67 66.63 150.94 66.8 151.08C66.98 151.21 67.34 151.41 67.59 151.51C67.99 151.67 68.15 151.69 68.75 151.7C69.32 151.7 69.51 151.67 69.75 151.56C69.92 151.49 70.22 151.3 70.42 151.16C70.62 151.01 70.88 150.77 71 150.63C71.12 150.48 71.3 150.2 71.41 150C71.51 149.8 71.67 149.39 71.76 149.1C71.88 148.66 71.91 148.41 71.91 147.67C71.91 146.96 71.89 146.7 71.79 146.43C71.72 146.25 71.56 145.94 71.42 145.73C71.27 145.51 71.02 145.26 70.78 145.1C70.56 144.95 70.21 144.76 70 144.68C69.79 144.6 69.4 144.52 69.14 144.5C68.82 144.48 68.52 144.5 68.26 144.57Z" />
		<path class="shp0" d="M76.55 144.58L76.14 144.6C76.19 145.14 76.35 147.16 76.54 149.43C76.73 151.71 76.88 153.57 76.89 153.58C76.9 153.59 78.16 153.49 79.69 153.36C81.23 153.23 82.49 153.12 82.5 153.11C82.5 153.1 82.49 152.89 82.46 152.62C82.44 152.36 82.39 152.12 82.36 152.09C82.33 152.06 81.35 152.13 80.17 152.24C78.99 152.36 78.02 152.45 78.02 152.44C78.01 152.44 77.85 150.71 77.67 148.6C77.48 146.49 77.33 144.71 77.33 144.65C77.33 144.56 77.28 144.54 77.15 144.55C77.05 144.55 76.78 144.57 76.55 144.58Z" />
		<path class="shp2" d="M104.33 149.67C103.8 150.07 102.9 150.71 102.33 151.09C101.77 151.47 100.76 152.11 100.11 152.5C99.45 152.9 98.25 153.56 97.45 153.96C96.64 154.37 95.42 154.95 94.72 155.24C94.03 155.54 93.07 155.93 92.61 156.11L91.76 156.43C91.76 181.57 91.78 188.87 91.79 188.87C91.81 188.87 92.31 188.74 92.91 188.6C93.5 188.45 94.6 188.15 95.35 187.93C96.1 187.72 97.15 187.41 97.68 187.24C98.21 187.08 99.36 186.69 100.24 186.38C101.12 186.07 102.61 185.5 103.56 185.12C104.52 184.73 105.81 184.18 106.44 183.89L107.59 183.37L107.59 151.4C105.89 149.49 105.37 148.94 105.34 148.94C105.32 148.94 104.86 149.27 104.33 149.67Z" />
		<path class="shp0" d="M87.17 157.74C86.9 157.8 86.24 157.95 85.71 158.06C85.18 158.17 84.25 158.34 83.65 158.43C83.05 158.52 82.15 158.64 81.65 158.69C81.16 158.75 80.14 158.83 79.39 158.87C78.52 158.92 77.26 158.94 75.9 158.91C74.73 158.89 73.43 158.84 73.01 158.8C72.59 158.77 72.06 158.72 71.83 158.7L71.41 158.67C71.41 189.6 71.42 190.4 71.53 190.4C71.59 190.4 72.34 190.45 73.18 190.51C74.37 190.59 75.36 190.61 77.66 190.58C79.95 190.55 80.96 190.51 82.09 190.41C82.89 190.33 83.92 190.22 84.38 190.16C84.84 190.11 85.69 189.99 86.28 189.9C86.86 189.81 87.45 189.71 87.59 189.69L87.84 189.63C87.84 160.84 87.82 157.6 87.76 157.61C87.71 157.61 87.45 157.67 87.17 157.74Z" />
		<path class="shp1" d="M15.96 173.22C15.96 173.23 16.19 173.46 16.47 173.73L16.99 174.23C16.25 173.43 16.02 173.2 16 173.2C15.97 173.2 15.96 173.21 15.96 173.22Z" />
	</g>
</svg>