<svg xmlns="http://www.w3.org/2000/svg" viewBox="0 0 187 200" width="187" height="200">
	<style>
		tspan { white-space:pre }
		.shp0 { fill: #21cb35 } 
		.shp1 { fill: #1f1d1c } 
		.shp2 { fill: #d9232e } 
	</style>
	<g >
		<path class="shp0" d="M89.89 0.07C89.25 0.1 88.23 0.18 87.62 0.23C87.01 0.29 85.93 0.41 85.21 0.5C84.5 0.59 83.37 0.76 82.71 0.87C82.04 0.98 80.93 1.19 80.23 1.34C79.54 1.49 78.42 1.75 77.76 1.91C77.1 2.07 75.99 2.37 75.29 2.57C74.59 2.77 73.36 3.15 72.55 3.41C71.74 3.67 70.34 4.15 69.44 4.48C68.54 4.81 67.05 5.38 66.13 5.75C65.21 6.11 64.1 6.56 63.66 6.75C63.22 6.93 61.83 7.53 60.58 8.08C59.33 8.63 56.07 10.11 53.33 11.37C50.59 12.62 47.87 13.87 47.28 14.13C46.7 14.4 45.24 15.04 44.04 15.57C42.85 16.09 41.03 16.88 40 17.32C38.97 17.76 37.48 18.37 36.69 18.69C35.9 19 34.88 19.39 34.42 19.55C33.96 19.72 33.13 20 32.58 20.17C32.03 20.34 31.07 20.61 30.44 20.77C29.82 20.93 28.98 21.12 28.57 21.2C28.17 21.27 27.43 21.39 26.93 21.46C26.44 21.53 25.61 21.62 25.1 21.66C24.58 21.7 23.74 21.73 23.22 21.73C22.71 21.73 21.76 21.69 21.12 21.63C20.48 21.57 19.63 21.48 19.25 21.43C18.86 21.37 18.1 21.24 17.54 21.13C16.99 21.02 16.15 20.82 15.67 20.69C15.19 20.56 14.13 20.19 13.32 19.86C12.5 19.53 11.58 19.2 11.28 19.11C10.97 19.02 10.57 18.93 10.38 18.91C10.18 18.89 10.02 18.89 10.02 18.92C10.02 18.94 10.31 20.24 10.66 21.8C11.02 23.36 11.77 26.78 12.34 29.4C12.91 32.02 13.67 35.58 14.04 37.3C14.41 39.02 14.95 41.59 15.24 43C15.52 44.41 15.9 46.3 16.07 47.2C16.24 48.1 16.45 49.3 16.54 49.87C16.62 50.43 16.68 50.91 16.67 50.92C16.65 50.93 16.5 50.85 16.32 50.75C16.15 50.65 15.34 50.16 14.54 49.66C13.73 49.16 11.98 48.07 10.66 47.23C9.34 46.4 7.67 45.35 6.95 44.91C6.23 44.48 5.17 43.84 4.58 43.5C3.99 43.16 3.1 42.68 2.61 42.42C2.11 42.16 1.43 41.84 1.1 41.71C0.77 41.58 0.38 41.45 0.23 41.43L-0.03 41.38C0.04 42.4 0.17 43.33 0.3 44.1C0.42 44.87 0.64 46.05 0.77 46.73C0.9 47.41 1.18 48.82 1.4 49.87C1.62 50.91 2.35 54.2 3.03 57.17C3.71 60.14 4.66 64.41 5.14 66.67C5.63 68.92 6.38 72.49 6.82 74.6C7.27 76.71 8 80.28 8.46 82.53C8.92 84.79 9.67 88.48 10.13 90.73C10.58 92.99 11.36 96.78 11.86 99.17C12.35 101.55 13.13 105.25 13.59 107.4C14.05 109.55 14.79 112.89 15.24 114.83C15.68 116.78 16.41 119.97 16.85 121.93C17.29 123.89 18.29 128.59 19.08 132.37C19.87 136.14 20.8 140.57 21.15 142.2C21.5 143.83 21.84 145.32 21.9 145.5C21.96 145.68 22.12 146.06 22.27 146.33C22.42 146.61 22.67 147 22.82 147.2C22.98 147.4 23.34 147.79 23.63 148.07C23.92 148.34 24.42 148.76 24.73 149.01C25.04 149.25 26.06 149.98 27 150.63C27.94 151.29 29.04 152.08 29.45 152.39C29.86 152.71 31.02 153.63 32.03 154.44C33.03 155.25 35.72 157.31 37.99 159.02C40.27 160.73 43.91 163.47 46.08 165.11C48.25 166.75 52.15 169.68 54.74 171.63C57.33 173.58 60.74 176.13 62.32 177.3C63.9 178.47 66.32 180.24 67.7 181.23C69.08 182.23 71.65 184.06 73.42 185.3C75.18 186.54 77.26 188.02 78.03 188.59C78.8 189.15 81.03 190.84 82.97 192.33C84.92 193.82 87.13 195.51 87.89 196.08C88.64 196.65 89.75 197.47 90.36 197.91C90.97 198.35 91.87 198.98 92.36 199.32L93.27 199.93C94.41 199.34 95.22 198.84 95.81 198.44C96.39 198.03 97.54 197.23 98.35 196.64C99.15 196.06 100.42 195.13 101.15 194.58C101.89 194.02 103.69 192.66 105.16 191.54C106.63 190.42 108.29 189.16 108.84 188.73C109.39 188.31 121.39 179.35 135.5 168.83C149.62 158.31 161.8 149.24 162.57 148.68C163.34 148.11 164.09 147.54 164.23 147.41C164.38 147.26 164.52 147.04 164.57 146.87C164.62 146.7 164.69 146.3 164.71 145.97C164.73 145.64 164.86 144.72 165 143.93L165.25 142.5C165.61 142.43 165.08 142.42 164.31 142.44L162.91 142.47C162.51 142.91 162.34 143.15 162.27 143.3C162.2 143.45 162.12 143.8 162.1 144.1C162.07 144.42 162 144.74 161.92 144.9C161.85 145.05 161.56 145.39 161.28 145.67C161 145.94 159.91 146.8 158.87 147.57C157.83 148.34 146.75 156.58 134.24 165.89C121.74 175.2 109.14 184.6 106.24 186.79C103.34 188.98 100.31 191.26 99.49 191.86C98.68 192.45 97.52 193.3 96.91 193.73C96.3 194.16 95.4 194.79 94.9 195.12C94.41 195.45 93.84 195.81 93.63 195.92L93.27 196.13C89.74 193.63 87.64 192.1 86.32 191.13C84.99 190.16 82.17 188.06 80.03 186.47C77.9 184.87 72.26 180.62 67.5 177.03C62.74 173.43 51.33 164.84 42.14 157.94C32.95 151.04 25.38 145.34 25.31 145.28C25.23 145.2 25.05 144.56 24.76 143.33C24.52 142.32 23.74 138.9 23.02 135.73C22.31 132.56 21 126.68 20.12 122.67C19.23 118.65 17.69 111.65 16.7 107.1C15.71 102.55 14.04 94.86 12.99 90C11.95 85.14 10.37 77.76 9.48 73.6C8.6 69.44 7.28 63.12 6.54 59.57C5.81 56.01 4.99 51.82 4.71 50.27C4.44 48.71 4.22 47.43 4.23 47.42C4.24 47.41 8.05 49.64 12.7 52.38C17.35 55.11 21.21 57.37 21.27 57.39C21.38 57.43 21.38 57.41 21.29 57.03C21.24 56.81 19.65 49.29 17.77 40.32C15.88 31.35 14.35 23.99 14.37 23.97C14.39 23.95 15.67 24.08 17.21 24.27C18.75 24.45 20.57 24.65 21.24 24.7C21.91 24.76 23.08 24.8 23.84 24.8C24.61 24.8 25.69 24.75 26.27 24.7C26.84 24.64 27.74 24.52 28.27 24.43C28.8 24.34 29.57 24.19 29.97 24.09C30.38 24 31.06 23.84 31.48 23.72C31.9 23.61 32.85 23.35 33.58 23.13C34.32 22.91 35.43 22.57 36.06 22.36C36.68 22.16 37.66 21.82 38.23 21.62C38.8 21.42 40 20.96 40.9 20.6C41.8 20.24 43.35 19.59 44.34 19.15C45.34 18.71 46.72 18.08 47.42 17.75C48.12 17.42 49.39 16.8 50.26 16.38C51.12 15.96 53.38 14.86 55.27 13.94C57.16 13.01 59.57 11.86 60.62 11.37C61.67 10.88 63.35 10.13 64.36 9.7C65.37 9.27 66.95 8.62 67.87 8.26C68.79 7.91 70.35 7.34 71.34 7C72.34 6.67 73.72 6.23 74.42 6.02C75.12 5.82 76.26 5.51 76.96 5.33C77.66 5.15 78.88 4.87 79.67 4.71C80.46 4.54 81.75 4.3 82.54 4.17C83.33 4.04 84.46 3.88 85.05 3.8C85.63 3.73 86.79 3.61 87.62 3.53C88.45 3.46 90.14 3.37 91.39 3.32C93.18 3.26 94.11 3.26 95.71 3.32C96.83 3.37 98.29 3.45 98.95 3.5C99.61 3.56 100.53 3.65 100.99 3.7C101.44 3.76 102.26 3.86 102.79 3.94C103.32 4.01 104.1 4.13 104.53 4.21C104.95 4.28 105.84 4.45 106.5 4.57C107.16 4.7 108.38 4.98 109.21 5.18C110.03 5.38 111.37 5.73 112.18 5.97C112.99 6.2 114.21 6.58 114.89 6.8C115.57 7.03 116.57 7.38 117.13 7.58C117.68 7.78 118.52 8.1 119 8.28C119.47 8.46 120.59 8.91 121.47 9.28C122.35 9.65 123.83 10.28 124.74 10.7C125.66 11.11 127.18 11.81 128.12 12.25C129.06 12.69 131.3 13.76 133.1 14.63C134.9 15.5 137.08 16.55 137.94 16.95C138.81 17.35 140.37 18.07 141.42 18.55C142.47 19.02 143.78 19.61 144.33 19.85C144.88 20.08 145.87 20.5 146.53 20.77C147.19 21.04 148.37 21.49 149.14 21.79C149.91 22.08 150.96 22.45 151.48 22.62C151.99 22.79 152.79 23.03 153.25 23.16C153.71 23.29 154.48 23.48 154.95 23.59C155.43 23.7 156.33 23.9 156.96 24.02C157.58 24.15 158.59 24.33 159.2 24.43C159.8 24.52 160.77 24.65 161.34 24.71C162.01 24.78 162.95 24.82 164.01 24.82C165.28 24.82 165.87 24.78 166.65 24.68C167.2 24.6 168.28 24.45 169.06 24.33C169.83 24.22 170.91 24.08 171.46 24.03C172.01 23.99 172.47 23.95 172.48 23.96C172.49 23.96 172.05 26.07 171.5 28.63C170.95 31.2 169.35 38.64 167.95 45.17C166.55 51.69 165.42 57.08 165.43 57.14C165.44 57.23 167.54 56.03 174.03 52.27C178.76 49.52 182.63 47.28 182.64 47.29C182.64 47.29 178.91 64.97 174.33 86.57C169.76 108.16 166.03 125.84 166.03 125.85C166.04 125.86 166.54 126.03 167.15 126.22L168.25 126.58L168.99 126.28C169.69 123.87 170.3 121.38 170.8 119.2C171.29 117.02 172.24 112.71 172.9 109.63C173.55 106.55 174.68 101.21 175.4 97.77C176.12 94.32 177.9 85.77 179.35 78.77C180.8 71.76 182.53 63.45 183.2 60.3C183.86 57.15 184.82 52.69 185.34 50.4C185.85 48.11 186.37 45.78 186.5 45.23C186.63 44.68 186.77 43.88 186.83 43.45C186.89 43.02 186.93 42.38 186.93 42.03L186.93 41.4C186.54 41.46 186.22 41.56 185.96 41.65C185.71 41.74 185.09 42.02 184.59 42.27C184.1 42.52 183.18 43.01 182.56 43.37C181.93 43.72 180.88 44.35 180.22 44.75C179.55 45.16 177.57 46.4 175.81 47.52C174.04 48.64 172.09 49.87 171.46 50.24C170.84 50.62 170.32 50.91 170.31 50.88C170.29 50.85 171.17 46.44 172.26 41.07C173.35 35.69 174.39 30.57 174.57 29.67C174.76 28.77 175.18 26.79 175.51 25.27C175.83 23.75 176.28 21.7 176.51 20.73C176.73 19.76 176.91 18.94 176.91 18.92C176.91 18.89 176.77 18.88 176.59 18.91C176.42 18.93 175.81 19.1 175.24 19.3C174.67 19.49 173.74 19.82 173.17 20.02C172.6 20.22 171.71 20.51 171.19 20.66C170.68 20.8 169.85 21.02 169.36 21.13C168.86 21.23 167.99 21.4 167.42 21.49C166.85 21.59 165.96 21.7 165.45 21.74C164.72 21.8 164.22 21.8 163.21 21.74C162.49 21.7 161.42 21.6 160.83 21.53C160.25 21.45 159.36 21.32 158.86 21.23C158.37 21.14 157.46 20.96 156.86 20.83C156.25 20.7 155.45 20.5 155.09 20.4C154.72 20.29 153.74 19.98 152.91 19.7C152.09 19.41 150.6 18.86 149.61 18.47C148.61 18.07 147.01 17.4 146.03 16.98C145.06 16.56 143.42 15.82 142.39 15.35C141.36 14.87 138.95 13.74 137.04 12.83C135.13 11.92 132.68 10.77 131.6 10.27C130.51 9.76 128.86 9.02 127.92 8.62C126.98 8.21 125.12 7.42 123.78 6.87C122.43 6.31 120.75 5.61 120.03 5.32C119.32 5.03 118.03 4.54 117.18 4.23C116.32 3.92 114.95 3.47 114.13 3.24C113.32 3 112.02 2.65 111.24 2.47C110.47 2.28 109 1.95 107.97 1.74C106.94 1.52 105.53 1.24 104.83 1.11C104.13 0.98 103.14 0.81 102.62 0.74C102.11 0.66 101.19 0.54 100.58 0.46C99.98 0.39 98.76 0.27 97.88 0.2C96.74 0.1 95.52 0.05 93.67 0.04C92.23 0.02 90.53 0.04 89.89 0.07Z" />
		<path class="shp1" d="M90.63 3.34C89.91 3.37 88.74 3.44 88.02 3.5C87.3 3.56 86.21 3.67 85.58 3.74C84.96 3.81 83.86 3.96 83.14 4.07C82.42 4.18 81.09 4.42 80.17 4.61C79.25 4.79 77.86 5.1 77.09 5.3C76.32 5.5 75.12 5.82 74.42 6.02C73.72 6.23 72.34 6.67 71.34 7C70.35 7.34 68.79 7.91 67.87 8.26C66.95 8.62 65.37 9.27 64.36 9.7C63.35 10.13 61.67 10.88 60.62 11.37C59.57 11.86 57.16 13.01 55.27 13.94C53.38 14.86 51.12 15.96 50.26 16.38C49.39 16.8 48.12 17.42 47.42 17.75C46.72 18.08 45.34 18.71 44.34 19.15C43.35 19.59 41.8 20.24 40.9 20.6C40 20.96 38.8 21.42 38.23 21.62C37.66 21.82 36.68 22.16 36.06 22.36C35.43 22.57 34.32 22.91 33.58 23.13C32.85 23.35 31.9 23.61 31.48 23.72C31.06 23.84 30.38 24 29.97 24.09C29.57 24.19 28.8 24.34 28.27 24.43C27.74 24.52 26.84 24.64 26.27 24.7C25.69 24.75 24.61 24.8 23.84 24.8C23.08 24.8 21.91 24.76 21.24 24.7C20.57 24.65 18.75 24.45 17.21 24.27C15.67 24.08 14.39 23.95 14.37 23.97C14.35 23.99 15.88 31.35 17.77 40.32C19.65 49.29 21.24 56.81 21.29 57.03C21.38 57.41 21.38 57.43 21.27 57.39C21.21 57.37 17.35 55.11 12.7 52.38C8.05 49.64 4.24 47.41 4.23 47.42C4.22 47.43 4.44 48.71 4.71 50.27C4.99 51.82 5.81 56.01 6.54 59.57C7.28 63.12 8.6 69.44 9.48 73.6C10.37 77.76 11.95 85.14 12.99 90C14.04 94.86 15.71 102.55 16.7 107.1C17.69 111.65 19.23 118.65 20.12 122.67C21 126.68 22.31 132.56 23.02 135.73C23.74 138.9 24.52 142.32 24.76 143.33C25.05 144.56 25.23 145.2 25.31 145.28C25.38 145.34 32.95 151.04 42.14 157.94C51.33 164.84 62.74 173.43 67.5 177.03C72.26 180.62 77.9 184.87 80.03 186.47C82.17 188.06 84.99 190.16 86.32 191.13C87.64 192.1 89.74 193.63 90.99 194.51L93.27 196.13C93.84 195.81 94.41 195.45 94.9 195.12C95.4 194.79 96.3 194.16 96.91 193.73C97.52 193.3 98.68 192.45 99.49 191.86C100.31 191.26 103.34 188.98 106.24 186.79C109.14 184.6 121.74 175.2 134.24 165.89C146.75 156.58 157.83 148.34 158.87 147.57C159.91 146.8 161 145.94 161.28 145.67C161.56 145.39 161.85 145.05 161.92 144.9C162 144.74 162.07 144.42 162.1 144.1C162.12 143.8 162.2 143.45 162.27 143.3C162.34 143.15 162.51 142.9 162.65 142.75L162.91 142.46C167 142.37 171.4 142.26 175.34 142.16C180.09 142.04 182.52 141.95 182.58 141.91C182.65 141.85 182.67 141.7 182.63 141.22C182.61 140.84 182.53 140.45 182.44 140.22C182.35 139.97 182.17 139.7 181.96 139.47C181.77 139.28 181.27 138.88 180.85 138.58C180.32 138.21 179.82 137.78 179.22 137.17C178.75 136.69 177.81 135.69 177.15 134.94C176.48 134.18 175.67 133.27 175.35 132.9C175.02 132.53 174.23 131.68 173.59 131C172.96 130.32 172.11 129.47 171.71 129.12C171.32 128.76 170.67 128.22 170.28 127.92C169.89 127.61 169.3 127.2 168.98 127C168.52 126.71 168.14 126.55 167.22 126.25C166.57 126.04 166.04 125.86 166.03 125.85C166.03 125.84 169.76 108.16 174.33 86.57C178.91 64.97 182.64 47.29 182.64 47.29C182.63 47.28 178.76 49.52 174.03 52.27C167.54 56.03 165.44 57.23 165.43 57.14C165.42 57.08 166.55 51.69 167.95 45.17C169.35 38.64 170.95 31.2 171.5 28.63C172.05 26.07 172.49 23.96 172.48 23.96C172.47 23.95 172.01 23.99 171.46 24.03C170.91 24.08 169.83 24.22 169.06 24.33C168.28 24.45 167.2 24.6 166.65 24.68C165.87 24.78 165.28 24.82 164.01 24.82C162.95 24.82 162.01 24.78 161.34 24.71C160.77 24.65 159.8 24.52 159.2 24.43C158.59 24.33 157.58 24.15 156.96 24.02C156.33 23.9 155.43 23.7 154.95 23.59C154.48 23.48 153.71 23.29 153.25 23.16C152.79 23.03 151.99 22.79 151.48 22.62C150.96 22.45 149.91 22.08 149.14 21.79C148.37 21.49 147.19 21.04 146.53 20.77C145.87 20.5 144.88 20.08 144.33 19.85C143.78 19.61 142.47 19.02 141.42 18.55C140.37 18.07 138.81 17.35 137.94 16.95C137.08 16.55 134.9 15.5 133.1 14.63C131.3 13.76 129.06 12.69 128.12 12.25C127.18 11.81 125.66 11.11 124.74 10.7C123.83 10.28 122.35 9.65 121.47 9.28C120.59 8.91 119.47 8.46 119 8.28C118.52 8.1 117.68 7.78 117.13 7.58C116.57 7.38 115.57 7.03 114.89 6.8C114.21 6.58 112.99 6.2 112.18 5.97C111.37 5.73 110.03 5.38 109.21 5.18C108.38 4.98 107.16 4.7 106.5 4.57C105.84 4.45 104.95 4.28 104.53 4.21C104.1 4.13 103.22 4 102.56 3.91C101.89 3.82 100.93 3.7 100.42 3.64C99.9 3.58 99.05 3.51 98.51 3.47C97.98 3.43 96.9 3.37 96.11 3.33C95.32 3.3 94.05 3.27 93.3 3.28C92.55 3.28 91.34 3.31 90.63 3.34Z" />
		<path class="shp0" d="M97.31 8.78C97.18 8.79 96.85 8.85 96.57 8.91C96.3 8.96 95.88 9.08 95.64 9.18C95.4 9.27 95.14 9.4 95.07 9.47C95 9.53 94.87 9.81 94.79 10.08C94.7 10.35 94.61 10.79 94.57 11.07C94.54 11.34 94.47 12.14 94.43 12.83C94.38 13.66 94.37 15.01 94.39 16.7C94.41 18.17 94.48 19.74 94.53 20.3C94.59 20.85 94.67 21.45 94.73 21.63C94.79 21.83 94.94 22.1 95.12 22.29C95.28 22.47 95.53 22.7 95.67 22.8C95.82 22.9 96.13 23.05 96.37 23.14C96.78 23.28 96.97 23.29 99.58 23.35C101.11 23.38 103.12 23.42 104.06 23.42L105.76 23.43C106.48 23.09 106.55 23.02 106.67 22.75C106.74 22.58 106.89 21.91 107 21.27C107.11 20.63 107.3 19.72 107.43 19.25C107.56 18.78 107.67 18.38 107.67 18.35C107.67 18.32 106.91 18.26 105.98 18.21C105.05 18.17 104.07 18.11 103.79 18.09L103.29 18.05L102.84 20.5C101.48 20.7 100.81 20.76 100.48 20.76C100.14 20.76 99.77 20.72 99.62 20.67C99.47 20.62 99.24 20.48 99.11 20.36C98.99 20.25 98.81 20 98.73 19.81C98.63 19.59 98.55 19.2 98.5 18.75C98.45 18.27 98.44 17.24 98.47 15.67C98.5 14.17 98.55 13.04 98.61 12.6C98.66 12.21 98.71 11.88 98.71 11.85C98.71 11.82 99.62 11.8 100.72 11.8C101.82 11.8 102.72 11.82 102.72 11.85C102.72 11.88 102.79 12.47 102.87 13.17C102.95 13.86 103.01 14.44 103.02 14.45C103.02 14.45 104.06 14.52 105.33 14.6C106.6 14.67 107.64 14.72 107.65 14.72C107.66 14.71 107.58 14.43 107.47 14.1C107.37 13.77 107.23 13.21 107.18 12.87C107.12 12.52 107.03 11.92 106.96 11.53C106.9 11.15 106.78 10.62 106.68 10.37C106.59 10.11 106.47 9.82 106.42 9.72C106.36 9.6 106.27 9.52 106.15 9.51C106.05 9.5 105.57 9.4 105.1 9.31C104.62 9.21 103.85 9.08 103.39 9.03C102.93 8.97 102.07 8.88 101.49 8.83C100.9 8.78 99.77 8.74 98.98 8.74C98.19 8.75 97.44 8.77 97.31 8.78ZM84.85 9.05C81.76 9.15 79.22 9.22 79.21 9.23C79.21 9.23 79.32 9.59 79.46 10.03C79.6 10.47 79.78 11.1 79.86 11.43C79.94 11.76 80.06 12.39 80.14 12.83C80.21 13.27 80.3 14.08 80.34 14.63C80.39 15.22 80.4 16.17 80.38 16.93C80.36 17.65 80.29 18.59 80.24 19.03C80.18 19.47 80.07 20.18 80 20.6C79.92 21.02 79.77 21.71 79.66 22.13C79.56 22.55 79.41 23.08 79.33 23.3C79.26 23.52 79.22 23.71 79.24 23.73C79.26 23.75 80.53 23.7 82.06 23.61C83.59 23.53 84.95 23.45 85.08 23.43L85.31 23.39C84.72 22.18 84.48 21.59 84.41 21.3C84.31 20.93 84.27 20.55 84.26 20.07C84.26 19.65 84.3 19.18 84.37 18.9C84.43 18.64 84.49 18.42 84.51 18.4C84.54 18.38 84.91 18.37 85.33 18.37C85.95 18.37 86.22 18.41 86.62 18.53C86.89 18.61 87.36 18.79 87.65 18.92C87.95 19.04 88.25 19.17 88.34 19.21L88.49 19.27C88.49 14.69 88.47 14.13 88.4 14.13C88.36 14.13 87.99 14.33 87.59 14.57C87.18 14.81 86.68 15.07 86.48 15.15C86.17 15.27 85.98 15.29 85.27 15.3C84.8 15.3 84.41 15.29 84.39 15.27C84.37 15.25 84.34 14.5 84.31 13.6L84.27 11.97C85.08 11.74 85.6 11.62 85.95 11.56C86.4 11.48 86.83 11.46 87.45 11.48C88.15 11.51 88.42 11.55 88.86 11.69C89.15 11.78 89.83 12.09 90.38 12.36C90.92 12.64 91.39 12.87 91.43 12.87C91.47 12.87 91.49 12.16 91.49 10.87L91.49 8.87C90.69 8.88 87.93 8.96 84.85 9.05Z" />
		<path class="shp2" d="M115.41 21.39L115.42 24.37C120.47 25.34 122.69 25.78 123.61 25.97C124.53 26.17 126.21 26.54 127.35 26.8C128.49 27.07 130.31 27.5 131.39 27.77C132.48 28.04 134.13 28.47 135.07 28.73C136.01 28.98 137.33 29.36 138.01 29.56C138.69 29.76 140.54 30.3 142.12 30.76C143.7 31.22 145.6 31.76 146.33 31.96C147.07 32.16 148.15 32.44 148.74 32.59C149.33 32.74 150.38 32.98 151.08 33.13C151.78 33.27 152.68 33.44 153.08 33.5C153.49 33.55 153.83 33.59 153.85 33.57C153.87 33.55 153.78 33.5 153.65 33.44C153.52 33.39 152.83 33.09 152.11 32.77C151.4 32.45 149.74 31.72 148.44 31.15C147.13 30.59 144.76 29.57 143.16 28.9C141.56 28.23 138.85 27.1 137.14 26.4C135.43 25.7 132.83 24.64 131.36 24.05C129.89 23.47 128.07 22.75 127.32 22.45C126.56 22.16 125.23 21.65 124.34 21.32C123.46 20.99 121.85 20.41 120.77 20.03C119.68 19.66 118.42 19.24 117.96 19.1C117.5 18.96 116.74 18.75 116.27 18.63L115.41 18.41L115.41 21.39ZM70.41 18.66C69.93 18.76 69.04 18.99 68.44 19.16C67.83 19.33 66.69 19.7 65.9 19.96C65.11 20.23 63.81 20.69 63.02 20.99C62.23 21.28 60.97 21.76 60.22 22.07C59.46 22.37 57.91 23 56.78 23.48C55.64 23.96 54.07 24.63 53.3 24.97C52.53 25.31 47.69 27.33 42.54 29.47C37.39 31.6 33.15 33.37 33.12 33.4C33.08 33.44 33.18 33.47 33.39 33.47C33.57 33.47 34.23 33.36 34.85 33.24C35.48 33.11 36.73 32.83 37.63 32.6C38.53 32.38 39.78 32.06 40.4 31.89C41.03 31.73 43.76 30.97 46.48 30.2C49.31 29.41 52.58 28.54 54.1 28.17C55.57 27.82 58.97 27.07 61.65 26.5C64.34 25.93 67.62 25.21 68.94 24.9C70.26 24.59 71.37 24.33 71.39 24.33C71.42 24.33 71.44 23.01 71.44 21.4C71.44 19.09 71.43 18.47 71.36 18.47C71.32 18.48 70.89 18.56 70.41 18.66Z" />
		<path class="shp0" d="M85.21 25.64C84.09 25.68 83.03 25.72 82.86 25.73L82.54 25.73C80.01 28.65 79.28 29.51 79.29 29.52C79.29 29.53 80.25 29.49 81.42 29.43C82.59 29.38 83.65 29.33 83.79 29.33C84.02 29.33 84.24 29.18 86.28 27.53C87.51 26.54 88.56 25.68 88.62 25.63C88.7 25.55 88.62 25.53 87.98 25.54C87.58 25.55 86.33 25.59 85.21 25.64ZM97.75 31.92C97.92 32.24 98.22 32.8 98.41 33.17C98.6 33.53 98.81 34.06 98.88 34.33C99.01 34.81 99.01 35.14 99.01 42.93L99.01 51.03C98.78 51.83 98.63 52.22 98.54 52.42C98.44 52.61 98.24 52.96 98.08 53.2C97.93 53.44 97.73 53.76 97.65 53.92C97.58 54.07 97.52 54.21 97.53 54.22C97.54 54.24 99.51 54.32 101.92 54.42C104.33 54.52 106.31 54.58 106.32 54.56C106.32 54.55 106.09 54.08 105.8 53.52C105.51 52.96 105.19 52.3 105.1 52.05C105.01 51.8 104.9 51.46 104.85 51.28C104.81 51.08 104.78 50 104.77 48.32C104.76 46 104.77 45.67 104.86 45.67C104.92 45.67 105.73 45.72 106.68 45.79C107.62 45.85 108.42 45.93 108.46 45.97C108.49 46 108.6 46.27 108.71 46.57C108.81 46.86 109.14 47.64 109.44 48.3C109.74 48.96 110.13 49.84 110.3 50.27C110.46 50.69 110.66 51.27 110.74 51.57C110.82 51.86 110.88 52.28 110.88 52.5C110.87 52.74 110.82 53.01 110.75 53.17C110.69 53.31 110.5 53.63 110.34 53.87C110.18 54.11 110 54.43 109.93 54.58C109.86 54.74 109.81 54.88 109.82 54.89C109.83 54.9 110.41 54.98 111.11 55.06C111.81 55.13 113.87 55.36 115.69 55.57C117.51 55.77 119 55.92 119.01 55.9C119.02 55.88 118.67 55.29 118.24 54.58C117.81 53.88 117.23 52.91 116.96 52.43C116.69 51.96 116.19 51.01 115.86 50.33C115.52 49.66 115.02 48.52 114.73 47.8C114.45 47.09 114.22 46.48 114.22 46.45C114.22 46.42 114.69 46.17 115.27 45.89C116.15 45.47 116.39 45.32 116.69 45.01C116.98 44.72 117.09 44.54 117.19 44.23C117.31 43.87 117.32 43.55 117.34 40.43C117.36 38.17 117.34 36.75 117.29 36.2C117.25 35.74 117.16 35.19 117.09 34.97C117.02 34.75 116.85 34.39 116.7 34.17C116.55 33.95 116.32 33.66 116.18 33.52C116.04 33.39 115.74 33.18 115.52 33.05C115.3 32.93 114.99 32.78 114.82 32.72C114.65 32.66 114.34 32.56 114.12 32.51C113.9 32.45 113.52 32.38 113.28 32.34C113.04 32.3 112.43 32.23 111.91 32.17C111.4 32.11 110.06 31.99 108.94 31.9C107.82 31.81 106.22 31.69 105.4 31.63C104.57 31.58 102.99 31.49 101.89 31.43C100.78 31.38 99.33 31.33 98.65 31.33L97.43 31.33L97.75 31.92ZM82.82 31.66L78.39 31.83C77.94 33.23 77.66 34.11 77.5 34.7C77.33 35.29 77.07 36.25 76.93 36.83C76.78 37.42 76.28 39.64 75.8 41.77C75.32 43.89 74.79 46.19 74.62 46.87C74.45 47.54 74.18 48.55 74.02 49.1C73.86 49.65 73.56 50.58 73.36 51.17C73.16 51.75 72.82 52.64 72.61 53.13C72.4 53.63 72.07 54.36 71.87 54.75C71.51 55.46 71.51 55.47 71.68 55.47C71.77 55.47 73.67 55.28 75.91 55.06C78.14 54.84 79.97 54.64 79.98 54.63C79.99 54.61 79.84 54.22 79.64 53.75C79.44 53.28 79.23 52.71 79.17 52.47C79.11 52.23 79.06 51.82 79.06 51.57C79.06 51.31 79.11 50.84 79.16 50.52L79.26 49.93C79.65 49.83 79.98 49.76 80.23 49.71C80.49 49.65 81.06 49.56 81.5 49.5C82.03 49.42 82.97 49.38 84.28 49.36C85.74 49.33 86.37 49.35 86.71 49.41L87.18 49.5C87.31 50.22 87.35 50.7 87.35 51.03C87.35 51.42 87.31 51.81 87.23 52.13C87.16 52.41 86.93 52.97 86.72 53.38C86.52 53.8 86.36 54.15 86.37 54.17C86.37 54.19 88.3 54.18 90.64 54.15C94.86 54.1 94.9 54.1 94.86 53.97C94.84 53.89 94.59 53.43 94.3 52.93C94.02 52.44 93.68 51.82 93.55 51.57C93.43 51.31 93.26 50.93 93.18 50.73C93.1 50.53 92.95 50.05 92.84 49.67C92.73 49.28 92.31 47.69 91.9 46.13C91.5 44.58 90.73 41.61 90.2 39.53C89.67 37.46 88.99 34.8 88.68 33.62L88.12 31.47C87.45 31.48 85.26 31.56 82.82 31.66ZM69.61 32.91C69.09 33 67.15 33.33 65.3 33.64C63.44 33.95 61.88 34.22 61.84 34.24C61.78 34.26 61.8 34.35 61.92 34.55C62.02 34.71 62.23 35.1 62.39 35.42C62.56 35.74 62.75 36.16 62.83 36.35C62.9 36.54 63.03 36.98 63.12 37.33C63.21 37.68 63.31 38.21 63.35 38.5C63.39 38.84 63.41 41.29 63.39 45.3C63.37 50.88 63.36 51.61 63.26 51.97C63.2 52.19 63.1 52.47 63.04 52.6C62.98 52.73 62.81 52.95 62.66 53.1C62.51 53.25 62.21 53.46 61.99 53.58C61.77 53.69 61.32 53.88 60.99 53.99C60.65 54.1 60.14 54.24 59.85 54.3C59.56 54.36 59.01 54.43 58.65 54.45C58.22 54.47 57.87 54.46 57.68 54.41C57.42 54.34 57.36 54.29 57.22 54.01C57.13 53.84 57.02 53.48 56.97 53.2C56.92 52.92 56.84 52.21 56.8 51.6C56.75 50.85 56.74 49.6 56.78 47.67C56.81 46.11 56.84 43.63 56.84 42.17C56.85 39.97 56.87 39.4 56.96 38.93C57.02 38.62 57.15 38.11 57.25 37.8C57.35 37.49 57.65 36.8 57.92 36.27C58.19 35.73 58.4 35.29 58.39 35.28C58.39 35.27 56.42 35.78 54.03 36.41C51.65 37.04 49.68 37.57 49.66 37.58C49.64 37.59 49.74 37.84 49.88 38.12C50.02 38.4 50.34 38.96 50.58 39.37C50.82 39.77 51.06 40.22 51.1 40.37C51.14 40.51 51.2 40.93 51.23 41.3C51.25 41.67 51.24 44.62 51.2 47.87C51.15 51.94 51.15 54.22 51.19 55.23C51.23 56.04 51.29 56.97 51.33 57.3C51.37 57.63 51.46 58.17 51.53 58.5C51.66 59.1 51.66 59.1 51.91 59.18C52.05 59.22 52.37 59.3 52.63 59.34C52.92 59.39 53.43 59.4 53.97 59.38C54.52 59.36 55.12 59.28 55.61 59.18C56.03 59.08 56.66 58.92 57.01 58.81C57.36 58.71 58.28 58.42 59.05 58.17C59.82 57.92 61.56 57.43 62.92 57.06C64.28 56.7 65.71 56.3 66.1 56.16C66.48 56.03 66.97 55.83 67.17 55.73C67.37 55.62 67.7 55.39 67.9 55.21C68.12 55.02 68.36 54.72 68.48 54.49C68.6 54.28 68.74 53.91 68.81 53.67C68.87 53.43 68.96 52.89 69.01 52.47C69.08 51.9 69.1 50.67 69.1 47.67C69.1 45.45 69.07 42.42 69.04 40.93C69 39.16 69 37.97 69.04 37.47C69.08 37.04 69.18 36.41 69.28 36.07C69.37 35.72 69.6 35.07 69.79 34.63C69.97 34.19 70.24 33.6 70.39 33.32C70.53 33.03 70.64 32.78 70.64 32.77C70.64 32.75 70.62 32.74 70.59 32.74C70.57 32.74 70.12 32.82 69.61 32.91ZM121.95 34.28C122.08 34.59 122.33 35.19 122.51 35.63C122.7 36.1 122.91 36.77 123.01 37.23C123.16 37.96 123.18 38.26 123.24 40.5C123.28 41.86 123.32 44.05 123.35 45.37C123.38 46.89 123.36 48.39 123.31 49.47C123.27 50.4 123.19 51.54 123.14 52C123.08 52.46 122.97 53.13 122.9 53.5C122.82 53.87 122.69 54.39 122.6 54.67C122.52 54.94 122.28 55.44 122.07 55.78C121.87 56.12 121.71 56.41 121.72 56.42C121.73 56.43 122.58 56.7 123.61 57.02C124.64 57.34 126.67 57.93 128.12 58.34C129.57 58.74 132.05 59.42 133.63 59.84C135.21 60.27 137.17 60.76 137.98 60.94C138.79 61.12 139.45 61.26 139.46 61.25C139.46 61.24 139.48 60.01 139.51 58.52C139.53 57.02 139.53 55.8 139.5 55.8C139.47 55.8 139.19 55.89 138.88 55.99C138.57 56.1 138.07 56.24 137.78 56.3C137.48 56.36 136.9 56.43 136.47 56.45C136.03 56.47 135.43 56.45 135.04 56.4C134.67 56.36 134.01 56.23 133.57 56.12C133.13 56.01 132.06 55.69 131.19 55.4C130.33 55.11 129.47 54.81 129.29 54.74L128.96 54.61C128.87 50.19 128.87 48.88 128.89 48.87C128.91 48.85 129.18 48.87 129.48 48.92C129.78 48.96 130.25 49.06 130.53 49.12C130.8 49.19 131.25 49.35 131.53 49.48C131.91 49.65 132.29 49.92 133.09 50.6C133.68 51.1 134.16 51.52 134.18 51.55C134.19 51.58 134.32 51.67 134.47 51.77C134.62 51.86 134.75 51.93 134.76 51.92C134.78 51.91 134.81 50.28 134.84 48.3C134.88 45.22 134.88 44.71 134.8 44.74C134.75 44.77 134.27 44.91 133.73 45.06C133.2 45.22 132.51 45.38 132.2 45.42C131.69 45.49 131.55 45.48 130.89 45.34C130.49 45.26 129.88 45.1 129.54 44.99L128.92 44.8L128.92 39.2C129.52 39.26 130.04 39.32 130.46 39.38C130.88 39.43 131.54 39.55 131.93 39.64C132.32 39.73 132.81 39.86 133.03 39.93C133.25 40 133.63 40.13 133.87 40.22C134.11 40.31 134.57 40.51 134.9 40.66C135.23 40.82 135.76 41.1 136.07 41.29C136.39 41.48 136.88 41.81 137.18 42.03C137.47 42.24 138.02 42.72 138.4 43.09L139.08 43.77C139.08 41.54 139.1 40.3 139.13 39.57L139.17 38.23C138.35 37.91 137.59 37.65 136.94 37.44C136.3 37.23 135.13 36.87 134.34 36.64C133.54 36.4 132.28 36.05 131.53 35.84C130.77 35.64 129.68 35.35 129.09 35.21C128.5 35.06 127.42 34.81 126.68 34.64C125.95 34.48 124.96 34.27 124.48 34.17C124 34.08 123.23 33.94 122.77 33.87C122.31 33.79 121.89 33.73 121.82 33.73C121.73 33.73 121.75 33.82 121.95 34.28Z" />
		<path class="shp1" d="M83.06 35.48C82.96 35.64 82.79 36 82.68 36.28C82.56 36.57 82.37 37.15 82.23 37.58C82.1 38.01 81.86 38.91 81.7 39.57C81.53 40.23 81.21 41.73 80.97 42.9C80.74 44.07 80.53 45.13 80.51 45.25L80.47 45.47C81.01 45.42 82.16 45.37 83.37 45.33C84.59 45.28 85.6 45.24 85.61 45.22C85.63 45.2 85.64 44.84 85.64 44.41C85.63 43.8 85.58 43.39 85.39 42.47C85.26 41.83 85.04 40.89 84.92 40.4C84.79 39.91 84.5 38.88 84.28 38.13C84.05 37.38 83.73 36.42 83.56 36C83.4 35.58 83.26 35.22 83.25 35.21C83.24 35.2 83.15 35.32 83.06 35.48ZM104.8 38.53L104.79 41.8C105.18 41.9 105.69 42 106.16 42.09C106.64 42.18 107.33 42.29 107.69 42.33C108.04 42.37 108.65 42.4 109.02 42.4C109.4 42.4 109.92 42.35 110.17 42.3C110.43 42.24 110.76 42.13 110.91 42.05C111.07 41.96 111.22 41.8 111.29 41.67C111.35 41.54 111.46 41.21 111.52 40.93C111.62 40.54 111.64 40.16 111.64 39.17C111.64 38.15 111.62 37.81 111.52 37.47C111.45 37.23 111.34 36.93 111.28 36.8C111.21 36.67 111.04 36.45 110.88 36.32C110.73 36.18 110.53 36.02 110.43 35.97C110.32 35.92 110.05 35.82 109.81 35.74C109.57 35.67 109.1 35.56 108.77 35.51C108.44 35.45 107.7 35.39 107.13 35.37C106.56 35.35 105.81 35.32 105.45 35.3L104.8 35.26L104.8 38.53Z" />
		<path class="shp0" d="M38.9 40.47C34.76 41.49 31.3 42.34 31.21 42.35L31.04 42.39C30.97 46.56 30.95 47.77 30.96 47.78C30.97 47.79 31.2 47.66 31.48 47.48C31.78 47.28 32.17 46.95 32.45 46.63C32.77 46.28 33.06 46.03 33.32 45.89C33.54 45.77 34 45.58 34.35 45.47C34.7 45.35 35.33 45.17 35.76 45.07C36.18 44.96 37.08 44.75 37.76 44.6C38.44 44.45 39.11 44.3 39.25 44.26L39.5 44.2L39.5 59.8C38.75 60.15 38.21 60.36 37.83 60.5C37.44 60.63 36.95 60.78 36.72 60.83C36.5 60.88 36.1 60.94 35.82 60.97C35.51 61 35.19 60.99 34.99 60.94C34.8 60.9 34.52 60.78 34.35 60.68C34.16 60.56 33.99 60.37 33.87 60.16C33.73 59.92 33.68 59.7 33.64 59.3C33.62 58.93 33.64 58.57 33.71 58.15C33.77 57.81 33.94 57.17 34.08 56.72C34.23 56.27 34.34 55.89 34.34 55.89C34.33 55.88 33.13 56.02 31.68 56.2C30.23 56.38 28.7 56.56 28.28 56.61C27.86 56.66 27.49 56.72 27.46 56.73C27.42 56.75 27.45 57 27.53 57.3C27.6 57.59 27.74 58.25 27.83 58.77C27.92 59.28 28.06 60.33 28.14 61.1C28.22 61.87 28.34 62.76 28.4 63.07C28.47 63.38 28.6 63.78 28.69 63.97C28.78 64.15 28.98 64.41 29.12 64.55C29.26 64.68 29.54 64.87 29.74 64.96C29.94 65.05 30.35 65.16 30.64 65.21C30.98 65.25 31.55 65.27 32.18 65.24C32.73 65.22 33.66 65.15 34.25 65.1C34.84 65.04 35.74 64.94 36.26 64.86C36.77 64.79 37.55 64.65 37.99 64.56C38.44 64.47 39.2 64.28 39.7 64.13C40.2 63.98 40.9 63.71 41.27 63.54C41.64 63.37 42.12 63.1 42.34 62.96C42.56 62.81 42.93 62.51 43.17 62.29C43.4 62.08 43.73 61.72 43.89 61.5C44.06 61.28 44.3 60.86 44.44 60.57C44.58 60.27 44.76 59.82 44.84 59.57C44.92 59.31 45.05 58.71 45.13 58.23C45.26 57.46 45.27 57.13 45.27 55.23C45.26 54.06 45.21 52.09 45.15 50.87C45.09 49.64 45.05 47.52 45.05 46.15C45.05 44.78 45.08 43.3 45.12 42.85C45.16 42.4 45.27 41.79 45.35 41.48C45.44 41.18 45.77 40.43 46.08 39.82C46.39 39.2 46.65 38.68 46.65 38.65C46.65 38.62 46.6 38.6 46.53 38.61C46.47 38.61 43.03 39.45 38.9 40.47ZM143.27 41.14C143.25 42.04 143.22 43.27 143.22 43.88C143.22 44.5 143.24 45 143.26 45C143.28 45 143.57 44.89 143.91 44.76C144.25 44.63 144.86 44.43 145.26 44.32C145.72 44.2 146.25 44.11 146.67 44.09C147.07 44.06 147.59 44.08 147.97 44.13C148.32 44.18 149.06 44.34 149.61 44.5C150.16 44.66 150.92 44.9 151.31 45.04C151.7 45.18 152.02 45.29 152.03 45.29C152.04 45.3 151.83 45.75 151.57 46.3C151.31 46.85 150.87 47.72 150.59 48.23C150.32 48.75 149.74 49.77 149.32 50.5C148.9 51.23 147.88 52.96 147.07 54.33C146.25 55.71 145.3 57.31 144.96 57.9C144.62 58.49 144.07 59.46 143.74 60.07C143.41 60.67 143.09 61.3 143.02 61.47C142.96 61.63 142.85 61.88 142.8 62.02L142.69 62.27C143.91 62.77 144.7 63.06 145.23 63.22C145.76 63.39 146.74 63.66 147.4 63.82C148.06 63.99 149.15 64.23 149.81 64.36C150.47 64.49 151.54 64.69 152.18 64.8C152.82 64.91 154.01 65.07 154.82 65.17C155.78 65.28 156.86 65.36 157.94 65.39L159.6 65.43L159.6 59.93C159.11 60.14 158.67 60.42 158.32 60.69C157.96 60.95 157.51 61.23 157.31 61.3C157 61.42 156.8 61.43 155.72 61.43C154.63 61.42 154.34 61.4 153.28 61.21C152.62 61.09 151.81 60.95 151.48 60.89C151.15 60.84 150.79 60.8 150.69 60.8C150.59 60.8 150.49 60.77 150.48 60.73C150.46 60.7 150.52 60.45 150.61 60.18C150.71 59.92 151.08 59.12 151.45 58.4C151.81 57.68 152.74 55.96 153.52 54.57C154.3 53.17 155.6 50.85 156.4 49.4C157.21 47.95 158.1 46.3 158.38 45.73C158.65 45.16 159.06 44.27 159.27 43.73C159.48 43.2 159.65 42.76 159.65 42.75C159.64 42.74 159.23 42.66 158.73 42.57C158.23 42.48 157.21 42.31 156.46 42.2C155.7 42.1 154.7 41.94 154.22 41.87C153.74 41.79 152.75 41.61 152.01 41.47C151.28 41.32 149.74 40.93 148.6 40.61C147.46 40.28 146.1 39.92 145.56 39.8C145.03 39.68 144.31 39.57 143.96 39.55L143.32 39.52L143.27 41.14Z" />
		<path class="shp2" d="M97.43 57.92C97.49 58.09 97.64 58.38 97.74 58.57C97.85 58.75 98.07 59.05 98.24 59.23C98.41 59.4 99 59.89 99.55 60.3C100.4 60.93 100.6 61.11 100.86 61.5C101.04 61.76 101.24 62.13 101.31 62.33C101.37 62.53 101.45 62.8 101.48 62.92C101.52 63.12 101.51 63.14 101.25 63.23C101.08 63.3 100.75 63.33 100.33 63.33C99.95 63.33 99.27 63.26 98.68 63.17C98.13 63.07 97.35 62.97 96.94 62.92C96.5 62.88 95.72 62.86 94.97 62.89C94.29 62.91 93.27 62.99 92.7 63.07C92.13 63.14 91.26 63.28 90.76 63.37C90.26 63.46 89.32 63.67 88.65 63.83C87.99 63.99 86.88 64.29 86.18 64.49C85.48 64.69 83.86 65.17 82.57 65.56C81.29 65.94 79.63 66.42 78.9 66.63C78.16 66.83 77.2 67.08 76.76 67.19C76.32 67.3 75.52 67.48 74.99 67.59C74.45 67.7 73.61 67.85 73.12 67.92C72.62 68 71.79 68.09 71.28 68.14C70.7 68.19 69.85 68.2 69.04 68.18C68.32 68.16 67.37 68.09 66.93 68.04C66.49 67.99 65.76 67.88 65.3 67.8C64.84 67.72 63.99 67.56 63.42 67.43C62.86 67.31 61.7 67.03 60.85 66.81C60.01 66.59 59.3 66.42 59.28 66.44C59.26 66.45 59.35 66.64 59.47 66.85C59.6 67.06 59.85 67.44 60.04 67.7C60.24 67.96 60.63 68.38 60.92 68.64C61.21 68.89 61.63 69.23 61.85 69.38C62.07 69.52 62.48 69.77 62.76 69.92C63.03 70.07 63.62 70.33 64.06 70.5C64.5 70.67 65.21 70.91 65.63 71.04C66.05 71.16 66.67 71.32 67 71.39C67.33 71.47 68.04 71.6 68.57 71.69C69.1 71.79 70.14 71.94 70.88 72.03C71.61 72.12 73.31 72.3 74.65 72.44C75.99 72.58 77.11 72.71 77.14 72.74C77.17 72.77 77.05 73 76.88 73.25C76.7 73.49 76.21 74.04 75.79 74.47C75.37 74.89 74.7 75.51 74.3 75.84C73.9 76.17 73.21 76.69 72.76 77.01C72.31 77.33 71.5 77.86 70.94 78.19C70.39 78.52 69.69 78.92 69.37 79.08C69.06 79.25 68.47 79.52 68.07 79.7C67.67 79.87 66.97 80.14 66.53 80.28C66.09 80.43 65.05 80.68 64.19 80.84C63.35 81 62.39 81.2 62.05 81.28C61.72 81.36 61.2 81.53 60.89 81.65C60.57 81.78 60.29 81.9 60.26 81.92C60.24 81.95 60.52 82.08 60.9 82.21C61.28 82.35 61.75 82.51 61.95 82.56C62.16 82.62 62.67 82.73 63.09 82.81C63.73 82.93 64.11 82.96 65.33 82.96C66.4 82.96 67.01 82.93 67.57 82.85C67.99 82.78 68.62 82.67 68.97 82.59C69.32 82.52 69.98 82.35 70.44 82.22C70.9 82.09 71.7 81.84 72.21 81.65C72.73 81.47 73.63 81.11 74.22 80.86C74.81 80.6 75.8 80.13 76.42 79.8C77.05 79.48 78.78 78.52 80.27 77.67C81.76 76.82 83.53 75.84 84.21 75.5C84.89 75.16 85.78 74.75 86.18 74.58C86.59 74.41 87.23 74.17 87.62 74.04C88 73.9 88.84 73.66 89.47 73.5C90.11 73.33 91.14 73.11 91.78 73C92.41 72.9 93.52 72.74 94.24 72.67C94.95 72.59 95.7 72.51 95.91 72.48L96.27 72.43C94.72 71.62 93.79 71.13 93.2 70.83C92.61 70.52 91.9 70.19 91.63 70.08C91.35 69.97 90.83 69.8 90.46 69.71C90.09 69.62 89.41 69.49 88.96 69.43C88.35 69.35 87.45 69.31 85.73 69.29C84.42 69.28 83.34 69.24 83.34 69.22C83.34 69.19 83.54 69.06 83.79 68.92C84.04 68.79 84.54 68.56 84.91 68.41C85.28 68.27 85.96 68.04 86.42 67.91C86.88 67.78 87.61 67.6 88.05 67.51C88.49 67.41 89.24 67.28 89.71 67.2C90.18 67.13 91.11 67.01 91.78 66.94C92.45 66.87 93.89 66.77 94.97 66.73C96.41 66.68 97.41 66.67 98.68 66.73C99.64 66.77 100.88 66.84 101.45 66.9C102.02 66.96 102.91 67.06 103.42 67.14C103.94 67.22 104.8 67.37 105.33 67.48C105.86 67.58 106.69 67.79 107.17 67.93C107.65 68.08 108.35 68.32 108.74 68.48C109.12 68.64 109.67 68.9 109.94 69.06C110.24 69.23 110.42 69.37 110.38 69.4C110.34 69.43 109.9 69.7 109.41 69.99C108.91 70.29 108.3 70.65 108.04 70.81C107.79 70.97 107.43 71.24 107.26 71.42C107.08 71.59 106.86 71.86 106.77 72.02C106.68 72.17 106.54 72.47 106.47 72.68C106.37 72.95 106.36 73.06 106.42 73.04C106.46 73.03 106.89 72.89 107.37 72.74C107.85 72.59 108.69 72.34 109.24 72.2C109.79 72.05 110.66 71.85 111.18 71.74C111.69 71.63 112.64 71.46 113.28 71.37C113.93 71.28 114.95 71.17 115.56 71.13C116.18 71.08 117.18 71.07 117.86 71.09C118.52 71.11 119.44 71.18 119.9 71.23C120.36 71.29 121.11 71.41 121.57 71.5C122.03 71.59 122.72 71.76 123.11 71.87C123.49 71.98 124.23 72.22 124.74 72.41C125.26 72.61 126.07 72.96 126.55 73.2C127.03 73.45 127.75 73.85 128.15 74.11C128.56 74.36 129.19 74.79 129.56 75.06C129.92 75.33 130.5 75.79 130.83 76.07C131.16 76.36 131.81 76.97 132.28 77.44C132.74 77.92 133.45 78.69 133.85 79.17C134.24 79.65 136.26 81.93 138.32 84.24C140.38 86.55 142.49 88.84 143.01 89.33C143.68 89.98 144.13 90.49 144.62 91.15C144.99 91.65 145.3 92.09 145.3 92.12C145.3 92.14 145.05 92.14 144.75 92.11C144.44 92.08 143.91 92 143.56 91.93C143.21 91.85 142.08 91.59 141.05 91.33C140.02 91.08 138.86 90.81 138.48 90.73C138.09 90.66 137.48 90.57 137.11 90.54C136.69 90.5 136.29 90.5 136.04 90.54C135.82 90.58 135.65 90.62 135.67 90.63C135.69 90.64 135.98 90.85 136.32 91.09C136.66 91.33 137.43 91.79 138.03 92.1C138.63 92.4 139.96 93.04 140.99 93.5C142.01 93.96 143.31 94.55 143.86 94.81C144.41 95.07 145.21 95.49 145.63 95.74C146.05 95.98 146.65 96.38 146.97 96.62C147.28 96.86 147.87 97.38 148.27 97.78C148.68 98.18 149.68 99.2 150.49 100.07C151.3 100.93 152.2 101.86 152.49 102.13C152.78 102.41 153.33 102.95 153.72 103.33C154.22 103.82 154.49 104.15 154.64 104.43C154.75 104.65 154.89 105.01 154.96 105.23C155.05 105.55 155.07 105.82 155.05 106.55C155.03 107.28 155 107.48 154.92 107.53C154.86 107.57 154.58 107.66 154.29 107.74C153.99 107.82 153.57 107.91 153.35 107.94C153.04 107.99 152.87 107.98 152.61 107.91C152.39 107.84 152.19 107.71 152 107.52C151.85 107.36 151.64 107.05 151.55 106.83C151.45 106.61 151.28 106.09 151.17 105.67C151.07 105.24 150.96 104.89 150.94 104.88C150.93 104.87 150.74 104.98 150.53 105.11C150.31 105.24 149.98 105.49 149.77 105.67C149.57 105.84 149.29 106.16 149.14 106.37C149 106.59 148.81 106.96 148.73 107.2C148.63 107.48 148.57 107.79 148.57 108.07C148.57 108.31 148.62 108.67 148.67 108.88C148.73 109.09 148.84 109.41 148.93 109.58C149.02 109.76 149.2 110.04 149.33 110.2C149.46 110.36 149.76 110.66 149.99 110.85C150.22 111.05 150.63 111.32 150.91 111.46C151.19 111.6 151.61 111.78 151.85 111.85C152.08 111.93 152.43 112.01 152.61 112.04C152.78 112.07 152.94 112.11 152.95 112.13C152.96 112.15 152.76 113.04 152.51 114.1C152.26 115.16 152.05 116.07 152.05 116.12C152.05 116.17 152.17 116.2 152.46 116.2C152.69 116.2 153.08 116.17 153.32 116.13C153.55 116.09 153.96 115.99 154.22 115.9C154.48 115.81 154.9 115.61 155.15 115.45C155.41 115.3 156.07 114.81 156.62 114.38C157.18 113.94 157.79 113.43 157.99 113.24C158.18 113.05 158.42 112.75 158.5 112.57C158.59 112.38 158.66 112.14 158.66 112.03C158.66 111.92 158.59 111.56 158.5 111.23C158.42 110.9 158.27 110.45 158.19 110.22L158.03 109.81C158.28 109.36 158.56 108.92 158.82 108.53C159.07 108.15 159.37 107.65 159.47 107.43C159.57 107.21 159.69 106.84 159.74 106.6C159.79 106.33 159.8 105.93 159.78 105.53C159.76 105.19 159.69 104.72 159.63 104.5C159.57 104.28 159.41 103.86 159.26 103.57C159.12 103.27 158.81 102.78 158.57 102.47C158.34 102.16 157.79 101.53 157.34 101.07C156.9 100.61 155.98 99.71 155.29 99.07C154.57 98.4 152.71 96.5 150.95 94.63C149.26 92.84 147.66 91.14 147.41 90.87C147.16 90.59 146.75 90.11 146.51 89.8C146.27 89.49 145.85 88.98 145.57 88.67C145.3 88.36 144.71 87.71 144.26 87.23C143.81 86.76 143.02 85.84 142.49 85.2C141.96 84.56 141.24 83.7 140.89 83.3C140.53 82.9 140.02 82.3 139.74 81.97C139.47 81.64 138.38 80.24 137.34 78.87C136.29 77.5 135.11 75.98 134.71 75.5C134.31 75.03 133.53 74.17 132.97 73.61C132.42 73.05 131.59 72.29 131.13 71.92C130.67 71.55 130.04 71.08 129.72 70.87C129.41 70.66 128.92 70.35 128.62 70.19C128.33 70.02 127.77 69.73 127.38 69.53C127 69.34 126.41 69.06 126.08 68.92C125.75 68.78 125.13 68.53 124.71 68.37C124.29 68.21 123.66 67.99 123.31 67.88C122.96 67.77 122.37 67.6 122 67.5C121.64 67.41 121.1 67.3 120.8 67.26C120.49 67.22 120 67.21 119.63 67.24C119.13 67.27 118.95 67.26 118.8 67.18C118.69 67.13 117.66 66.17 116.52 65.06C115.21 63.77 114.18 62.83 113.72 62.48C113.23 62.11 112.67 61.77 112.05 61.47C111.53 61.21 110.75 60.88 110.31 60.73C109.87 60.58 108.84 60.28 108.04 60.05C107.23 59.83 105.87 59.49 105.03 59.29C104.18 59.09 102.12 58.63 100.43 58.26C98.75 57.9 97.36 57.6 97.34 57.6C97.33 57.6 97.36 57.74 97.43 57.92Z" />
		<path class="shp1" d="M103.46 60.83C103.46 60.85 103.5 61.07 103.56 61.32C103.62 61.56 103.74 62.01 103.83 62.3C103.93 62.59 104.14 63.12 104.31 63.47C104.56 63.99 104.7 64.19 105.15 64.64C105.48 64.95 105.86 65.26 106.1 65.38C106.32 65.5 107.13 65.8 107.9 66.06C108.67 66.33 109.61 66.69 109.97 66.86C110.34 67.04 111 67.43 111.44 67.71C111.89 68 112.28 68.26 112.33 68.29C112.39 68.32 112.4 68.27 112.37 68.08C112.35 67.95 112.27 67.64 112.2 67.4C112.13 67.16 111.93 66.7 111.77 66.37C111.6 66.04 111.32 65.57 111.15 65.33C110.97 65.09 110.5 64.58 110.1 64.2C109.67 63.78 109.08 63.3 108.64 63.01C108.23 62.74 107.48 62.32 106.97 62.07C106.45 61.82 105.81 61.53 105.53 61.43C105.25 61.33 104.76 61.17 104.43 61.07C104.1 60.97 103.74 60.87 103.64 60.84C103.54 60.82 103.46 60.81 103.46 60.83Z" />
		<path class="shp2" d="M16.24 65.22C16.24 65.26 17.44 70.97 18.92 77.9C20.39 84.83 21.63 90.66 21.67 90.85L21.75 91.2C22.63 91.14 23.24 91.1 23.66 91.06C24.08 91.02 24.76 90.95 25.16 90.89C25.57 90.84 26.3 90.72 26.8 90.63C27.3 90.53 28.12 90.36 28.64 90.23C29.15 90.11 30.03 89.87 30.59 89.7C31.15 89.54 31.99 89.26 32.45 89.1L33.28 88.8C33.23 88.46 32.78 85.56 32.25 82.13C31.72 78.7 31.25 75.73 31.21 75.53C31.17 75.33 31.1 75 31.04 74.8C30.98 74.6 30.82 74.23 30.69 73.97C30.53 73.68 30.29 73.37 30.04 73.14C29.82 72.93 29.43 72.63 29.17 72.46C28.92 72.29 27.95 71.73 27.03 71.23C26.12 70.73 24.84 70.01 24.19 69.65C23.55 69.28 22.39 68.59 21.62 68.11C20.85 67.63 19.87 67.03 19.45 66.78C19.03 66.52 18.15 66.04 17.51 65.72C16.87 65.4 16.32 65.13 16.29 65.13C16.26 65.13 16.24 65.17 16.24 65.22ZM169.89 65.46C169.5 65.63 168.95 65.9 168.65 66.06C168.36 66.22 167.7 66.59 167.18 66.89C166.67 67.18 164.97 68.21 163.41 69.19C161.85 70.16 159.95 71.29 159.2 71.69C158.44 72.09 157.65 72.54 157.43 72.69C157.21 72.84 156.88 73.1 156.7 73.26C156.52 73.43 156.27 73.72 156.15 73.92C156.01 74.13 155.87 74.49 155.79 74.82C155.71 75.12 155.57 75.89 155.46 76.53C155.35 77.17 155.12 78.6 154.96 79.7C154.79 80.8 154.57 82.21 154.46 82.83C154.35 83.46 154.09 84.84 153.88 85.9C153.68 86.96 153.46 88.15 153.41 88.53C153.36 88.92 153.32 89.54 153.32 89.92C153.32 90.29 153.36 90.83 153.42 91.12C153.48 91.4 153.63 91.84 153.75 92.1C153.87 92.36 154.12 92.76 154.3 93C154.49 93.24 154.92 93.7 155.26 94.03C155.6 94.36 156.02 94.77 156.19 94.93C156.35 95.1 157.68 96.57 159.13 98.19C160.58 99.82 161.91 101.34 162.07 101.56C162.24 101.79 162.46 102.08 162.56 102.21C162.66 102.33 162.76 102.42 162.77 102.4C162.78 102.38 163.92 97.04 165.3 90.53C166.68 84.03 168.45 75.7 169.22 72.03C170 68.37 170.64 65.31 170.65 65.25C170.66 65.19 170.66 65.13 170.63 65.14C170.61 65.14 170.28 65.28 169.89 65.46ZM58.91 73.94C58.4 74.05 57.38 74.24 56.64 74.36C55.91 74.49 54.4 74.7 53.3 74.83C52.2 74.97 50.6 75.16 49.76 75.27C48.91 75.38 47.81 75.55 47.32 75.64C46.82 75.73 46.02 75.91 45.55 76.04C45.07 76.17 44.35 76.4 43.94 76.54C43.54 76.69 42.92 76.96 42.57 77.14C42.22 77.33 41.76 77.6 41.54 77.75C41.32 77.9 40.9 78.22 40.6 78.47C40.31 78.71 39.89 79.12 39.67 79.37C39.45 79.63 39.07 80.15 38.81 80.53C38.56 80.92 38.18 81.56 37.98 81.97C37.78 82.37 37.48 83.02 37.32 83.42C37.16 83.81 37.03 84.16 37.04 84.19C37.05 84.23 37.3 84.12 37.59 83.95C37.89 83.78 38.81 83.25 39.63 82.76C40.46 82.28 41.39 81.74 41.7 81.58C42.02 81.41 42.62 81.14 43.04 80.98C43.46 80.82 44.14 80.59 44.54 80.47C44.95 80.36 45.7 80.18 46.22 80.07C46.73 79.96 47.53 79.81 47.99 79.74C48.45 79.67 49.72 79.5 50.83 79.37C51.93 79.24 53.57 79.04 54.47 78.93C55.37 78.82 56.81 78.61 57.68 78.47C58.54 78.33 59.7 78.1 60.25 77.97C60.8 77.84 61.6 77.62 62.02 77.49C62.44 77.36 63.14 77.12 63.56 76.95C63.98 76.79 64.55 76.54 64.83 76.39C65.1 76.25 65.37 76.11 65.43 76.08C65.51 76.03 65.47 75.98 65.23 75.83C65.06 75.73 64.55 75.5 64.09 75.32C63.63 75.14 63 74.88 62.69 74.75C62.38 74.62 61.87 74.39 61.55 74.23C61.24 74.08 60.82 73.9 60.62 73.84C60.42 73.78 60.16 73.73 60.05 73.74C59.94 73.74 59.43 73.83 58.91 73.94Z" />
		<path class="shp0" d="M123.25 78.76C123.24 78.78 123.42 79.09 123.65 79.45C123.87 79.81 124.22 80.4 124.41 80.77C124.61 81.13 124.92 81.88 125.11 82.43C125.38 83.19 125.53 83.52 125.74 83.8C125.9 84 126.17 84.28 126.35 84.42C126.53 84.55 126.83 84.74 127.02 84.83C127.2 84.91 127.64 85.08 127.99 85.19C128.34 85.3 128.98 85.47 129.42 85.56C129.86 85.65 130.56 85.77 130.96 85.83C131.36 85.88 132.03 85.95 132.45 85.98C132.86 86.01 133.2 86.01 133.2 85.98C133.2 85.96 132.46 84.94 131.55 83.72C130.65 82.5 129.69 81.23 129.43 80.91C129.17 80.58 128.79 80.17 128.59 79.99C128.39 79.81 128.05 79.58 127.85 79.47C127.65 79.36 127.3 79.23 127.08 79.17C126.86 79.12 126.37 79.03 125.98 78.97C125.6 78.92 124.98 78.86 124.61 78.84C124.24 78.81 123.79 78.78 123.6 78.76C123.41 78.74 123.25 78.74 123.25 78.76ZM78.96 86.98C75.51 88.61 65.39 93.41 56.47 97.63C44.68 103.21 40.27 105.33 40.28 105.4C40.29 105.45 40.53 106.98 40.8 108.8C41.08 110.61 41.32 112.11 41.34 112.12C41.35 112.13 47.14 108.49 54.19 104.04C61.23 99.59 70.82 93.54 75.49 90.6C80.16 87.65 84.16 85.11 84.38 84.95C84.6 84.78 84.91 84.52 85.06 84.37C85.22 84.22 85.35 84.08 85.35 84.05C85.35 84.02 85.32 84 85.3 84C85.27 84 82.42 85.34 78.96 86.98Z" />
		<path class="shp2" d="M50.23 84.97C50.12 84.99 49.72 85.05 49.36 85.11C48.99 85.16 48.23 85.33 47.67 85.47C47.11 85.62 46.18 85.9 45.6 86.11C45.02 86.31 44.06 86.7 43.48 86.97C42.89 87.25 42.14 87.62 41.8 87.81C41.47 88 40.6 88.56 39.87 89.07C39.13 89.57 38.2 90.19 37.79 90.45C37.39 90.7 36.82 91.05 36.52 91.21C36.23 91.38 35.79 91.61 35.56 91.73C35.32 91.85 34.79 92.08 34.39 92.25C33.98 92.41 33.24 92.66 32.75 92.81C32.25 92.95 31.33 93.17 30.71 93.3C30.09 93.42 28.82 93.65 27.9 93.8C26.98 93.95 26.2 94.08 26.17 94.09C26.13 94.1 26.28 94.2 26.5 94.31C26.72 94.43 27.13 94.61 27.4 94.72C27.68 94.83 28.11 94.98 28.37 95.06C28.63 95.13 29.06 95.23 29.34 95.29C29.62 95.35 30.16 95.43 30.54 95.47C30.93 95.5 31.52 95.53 31.85 95.53C32.18 95.53 32.76 95.5 33.15 95.47C33.54 95.43 34.21 95.34 34.65 95.27C35.09 95.19 35.89 95.01 36.42 94.87C36.96 94.72 37.75 94.49 38.2 94.34C38.64 94.2 39.4 93.91 39.9 93.71C40.4 93.51 41.27 93.15 41.84 92.9C42.41 92.65 43.9 91.93 45.15 91.3C46.4 90.67 48.55 89.58 49.92 88.88C51.3 88.18 52.96 87.38 53.6 87.1C54.24 86.82 55.05 86.49 55.39 86.38C55.73 86.26 56.01 86.14 56.01 86.12C56.01 86.09 55.83 85.97 55.62 85.85C55.41 85.73 55.03 85.55 54.79 85.45C54.54 85.35 54.07 85.2 53.75 85.12C53.27 85.01 52.92 84.98 51.8 84.96C51.04 84.95 50.34 84.96 50.23 84.97Z" />
		<path class="shp0" d="M100.29 88.97C100.23 89.09 100.17 89.37 100.14 89.58C100.12 89.79 100.14 90.42 100.18 90.97C100.22 91.52 100.32 92.33 100.39 92.77C100.46 93.21 100.61 93.88 100.72 94.27C100.83 94.65 101.07 95.31 101.26 95.73C101.44 96.16 101.75 96.77 101.95 97.1C102.15 97.43 102.49 97.94 102.7 98.23C102.92 98.53 103.4 99.07 103.76 99.43C104.13 99.8 104.71 100.32 105.06 100.57C105.41 100.83 105.95 101.19 106.27 101.38C106.58 101.56 107.13 101.84 107.5 102.01C107.87 102.18 108.49 102.43 108.87 102.55C109.26 102.68 109.93 102.87 110.38 102.96C110.82 103.06 111.49 103.19 111.88 103.24C112.29 103.29 113.16 103.33 113.95 103.33C114.79 103.33 115.58 103.29 115.99 103.24C116.36 103.18 117.26 102.99 117.99 102.81C118.73 102.63 119.53 102.46 119.78 102.44C120.03 102.42 120.5 102.43 120.82 102.47C121.14 102.51 121.78 102.66 122.24 102.81C122.7 102.96 123.57 103.27 124.18 103.5C124.78 103.73 127.02 104.58 129.16 105.4C131.29 106.21 133.51 107.05 134.1 107.26C134.69 107.48 135.82 107.86 136.61 108.12C137.4 108.38 138.24 108.64 138.48 108.7C138.72 108.76 138.94 108.8 138.97 108.79C139 108.78 138.82 108.56 138.57 108.3C138.32 108.04 137.81 107.62 137.44 107.36C137.08 107.1 136.47 106.7 136.11 106.48C135.74 106.26 134.69 105.67 133.77 105.17C132.85 104.66 131.16 103.67 130.02 102.97C128.88 102.27 127.68 101.54 127.35 101.35C127.02 101.16 126.4 100.84 125.98 100.65C125.56 100.45 125.02 100.23 124.79 100.16C124.56 100.09 124.37 100 124.38 99.95C124.38 99.9 124.53 99.57 124.71 99.22C124.93 98.79 125.3 98.24 125.79 97.63C126.2 97.12 126.65 96.5 126.79 96.27C126.93 96.03 127.2 95.47 127.38 95.03C127.56 94.59 127.8 93.9 127.91 93.5C128.03 93.1 128.12 92.73 128.12 92.68C128.12 92.64 128.11 92.6 128.1 92.6C128.09 92.6 127.89 92.68 127.65 92.77C127.41 92.87 127.11 93 126.98 93.06C126.85 93.13 126.7 93.23 126.63 93.29C126.57 93.35 126.52 93.48 126.52 93.58C126.52 93.68 126.43 93.95 126.33 94.17C126.22 94.39 125.95 94.79 125.73 95.07C125.51 95.34 125.11 95.76 124.84 96C124.57 96.24 124.21 96.54 124.04 96.67C123.88 96.81 123.44 97.1 123.07 97.33C122.71 97.57 122.1 97.9 121.74 98.07C121.37 98.24 120.78 98.49 120.43 98.62C120.08 98.75 119.41 98.96 118.93 99.09C118.45 99.23 117.67 99.39 117.19 99.47C116.61 99.56 115.87 99.62 114.95 99.64C113.96 99.67 113.35 99.65 112.75 99.58C112.29 99.52 111.55 99.4 111.11 99.3C110.67 99.2 109.93 98.99 109.47 98.82C109.01 98.66 108.32 98.36 107.94 98.15C107.55 97.95 107.01 97.63 106.73 97.45C106.46 97.27 106.01 96.93 105.73 96.7C105.45 96.47 105.01 96.05 104.74 95.76C104.47 95.47 104.07 95.01 103.87 94.73C103.66 94.46 103.35 94.01 103.18 93.73C103.02 93.46 102.35 92.22 101.71 90.98C101.07 89.75 100.51 88.73 100.47 88.73C100.44 88.73 100.35 88.84 100.29 88.97Z" />
		<path class="shp2" d="M23.06 96.97C23.06 96.98 23.22 98 23.43 99.22C23.63 100.44 24.02 102.59 24.3 104C24.57 105.41 25.05 107.75 25.36 109.2C25.67 110.65 26.21 113.09 26.56 114.63C26.91 116.17 27.74 119.8 28.4 122.7C29.07 125.6 29.88 129.18 30.21 130.67C30.54 132.15 31.09 134.76 31.44 136.47C31.8 138.17 32.16 139.88 32.26 140.27C32.35 140.65 32.48 141.07 32.55 141.2C32.62 141.33 32.79 141.54 32.93 141.68C33.07 141.81 33.49 142.14 33.86 142.41C34.24 142.68 40.13 147.06 46.96 152.15C53.79 157.24 60.87 162.53 62.69 163.9C64.51 165.28 67.41 167.46 69.14 168.76C70.87 170.05 72.71 171.42 73.24 171.8C73.77 172.19 74.91 173 75.78 173.61C76.65 174.23 77.4 174.73 77.44 174.73C77.49 174.73 77.28 174.5 76.98 174.22C76.67 173.94 75.72 173.01 74.85 172.14C73.99 171.27 72.7 169.9 71.99 169.1C71.27 168.29 69.77 166.68 68.65 165.51C67.52 164.34 66.14 162.94 65.58 162.41C65.03 161.87 63.4 160.29 61.97 158.9C60.55 157.5 56.87 153.95 53.8 150.99C50.73 148.04 47.41 144.88 46.42 143.96C45.42 143.04 44.25 141.9 43.81 141.43C43.37 140.95 42.81 140.3 42.57 139.97C42.32 139.64 42.03 139.2 41.92 139C41.8 138.8 41.65 138.45 41.57 138.23C41.49 138.01 41.31 137.17 41.17 136.37C41.02 135.56 40.74 133.88 40.54 132.63C40.34 131.39 39.71 127.32 39.13 123.6C38.56 119.88 37.88 115.5 37.62 113.87C37.37 112.23 36.95 109.67 36.69 108.17C36.43 106.66 36.07 104.68 35.89 103.77C35.7 102.85 35.44 101.74 35.31 101.3C35.18 100.86 35.02 100.45 34.96 100.38C34.9 100.31 34.69 100.2 34.49 100.12C34.28 100.05 33.79 99.92 33.38 99.83C32.98 99.74 31.96 99.55 31.11 99.4C30.27 99.25 29.29 99.06 28.94 98.97C28.59 98.88 27.9 98.67 27.4 98.51C26.91 98.34 26.14 98.07 25.7 97.9C25.26 97.73 24.5 97.44 24.03 97.26C23.55 97.08 23.14 96.93 23.11 96.93C23.08 96.93 23.06 96.95 23.06 96.97Z" />
		<path class="shp0" d="M96.44 99.48C95.69 100.04 94.29 101.11 93.33 101.86C92.38 102.61 89.66 104.79 87.28 106.7C84.91 108.61 80.22 112.42 76.86 115.17C73.5 117.92 69.89 120.86 68.84 121.7C67.79 122.54 65.93 124.07 64.69 125.1C63.46 126.13 62.11 127.24 61.69 127.57C61.26 127.91 60.62 128.4 60.25 128.68C59.88 128.95 59.31 129.36 58.98 129.57C58.64 129.79 58.17 130.07 57.92 130.2C57.68 130.33 57.49 130.45 57.49 130.48C57.5 130.5 57.65 130.63 57.81 130.77L58.11 131.01C58.92 130.93 61.58 130.12 68.4 127.97C73.55 126.34 81.28 123.9 85.58 122.54C89.88 121.19 94.33 119.79 95.47 119.43C96.61 119.08 97.75 118.69 98.01 118.57C98.27 118.45 98.54 118.29 98.61 118.21C98.69 118.13 98.72 118.04 98.69 118.02C98.66 117.99 93.75 118.79 87.77 119.79C81.78 120.79 76.88 121.6 76.87 121.59C76.86 121.58 77.04 121.39 77.27 121.17C77.51 120.96 77.87 120.65 78.09 120.5C78.32 120.34 78.89 120 79.36 119.75C79.84 119.5 80.38 119.19 80.57 119.07C80.75 118.94 81.2 118.6 81.57 118.3C81.94 118 82.66 117.35 83.17 116.86C83.69 116.37 86.38 113.79 89.16 111.13C91.93 108.47 95.42 105.13 96.91 103.7C98.4 102.28 99.62 101.09 99.63 101.06C99.64 101.03 99.25 100.43 98.76 99.73C98.28 99.03 97.86 98.46 97.84 98.46C97.82 98.47 97.19 98.92 96.44 99.48ZM63.59 109.06C63.04 109.34 62.21 109.78 61.75 110.03C61.29 110.28 60.14 110.94 59.18 111.49C58.23 112.04 56.72 112.91 55.84 113.42C54.96 113.93 53.2 114.97 51.93 115.72C50.66 116.47 48.87 117.55 47.95 118.12C47.03 118.69 45.77 119.48 45.15 119.89C44.52 120.29 43.77 120.8 43.48 121.03C43.19 121.25 42.93 121.45 42.9 121.47C42.87 121.48 42.89 121.86 42.94 122.3C42.99 122.74 43.08 123.4 43.14 123.77C43.2 124.13 43.31 124.63 43.38 124.87C43.46 125.11 43.59 125.44 43.68 125.62C43.77 125.79 43.87 125.93 43.91 125.93C43.95 125.93 44.12 125.82 44.29 125.68C44.47 125.55 45.09 125.01 45.68 124.5C46.27 123.98 47.35 123.07 48.09 122.46C48.82 121.85 51.48 119.68 54 117.63C56.52 115.59 59.23 113.37 60.02 112.71C60.81 112.04 61.81 111.19 62.26 110.8C62.7 110.42 63.42 109.78 63.86 109.37C64.3 108.97 64.66 108.62 64.67 108.59C64.67 108.56 64.66 108.53 64.64 108.53C64.61 108.54 64.14 108.77 63.59 109.06Z" />
		<path class="shp2" d="M159.23 116.79C159.05 116.89 158.78 117.06 158.63 117.17C158.48 117.28 158.08 117.6 157.73 117.89C157.38 118.18 156.88 118.55 156.62 118.72C156.37 118.9 155.92 119.14 155.62 119.26C155.33 119.38 154.86 119.54 154.59 119.61C154.26 119.69 153.85 119.73 153.42 119.73C152.96 119.73 152.57 119.69 152.18 119.59C151.87 119.52 151.15 119.24 150.58 118.99C150.01 118.73 149.36 118.46 149.14 118.37L148.74 118.22C148.32 120.71 148.2 121.44 148.2 121.45C148.2 121.46 150.43 122.05 153.15 122.76C155.87 123.48 158.1 124.05 158.11 124.05C158.11 124.04 158.45 122.4 158.86 120.4C159.27 118.4 159.61 116.73 159.62 116.68C159.63 116.64 159.62 116.6 159.6 116.6C159.58 116.6 159.41 116.68 159.23 116.79Z" />
		<path class="shp0" d="M120.03 120.81C118.99 120.84 117.96 120.88 117.76 120.9L117.39 120.95C118.27 121.78 118.78 122.19 119.1 122.4C119.41 122.6 119.91 122.87 120.2 122.99C120.49 123.12 121.01 123.29 121.34 123.37C121.67 123.45 122.21 123.55 122.54 123.59C122.87 123.63 123.56 123.67 124.08 123.67C124.59 123.67 125.99 123.62 127.18 123.56C128.47 123.5 129.77 123.47 130.36 123.49C130.91 123.52 131.83 123.61 132.4 123.7C132.97 123.79 133.96 123.97 134.6 124.1C135.25 124.24 137.13 124.69 138.78 125.11C140.43 125.53 147.65 127.31 154.82 129.07C161.99 130.83 167.9 132.29 167.95 132.31C168.03 132.34 167.98 132.4 167.79 132.58C167.64 132.7 167.37 132.89 167.18 133C167 133.1 166.53 133.31 166.15 133.47C165.76 133.62 165.28 133.83 165.08 133.93C164.88 134.03 164.5 134.28 164.23 134.48L163.75 134.83C165.72 136.89 165.9 137.04 166.28 137.21C166.52 137.32 166.99 137.48 167.32 137.57C167.65 137.66 168.19 137.77 168.52 137.83C168.85 137.89 169.57 137.99 170.12 138.06C170.68 138.14 171.97 138.27 173 138.36C174.03 138.46 175.26 138.56 175.74 138.6C176.22 138.64 176.61 138.66 176.62 138.64C176.63 138.62 176.59 138.52 176.53 138.42C176.46 138.32 176.23 138.01 176.01 137.73C175.79 137.46 175.06 136.67 174.37 135.98C173.69 135.28 172.7 134.34 172.16 133.88C171.63 133.41 170.79 132.72 170.29 132.33C169.8 131.95 169.01 131.38 168.55 131.08C168.09 130.78 167.36 130.35 166.92 130.13C166.23 129.79 165.84 129.66 164.18 129.21C163.11 128.91 160.61 128.27 158.63 127.77C156.64 127.27 154 126.59 152.75 126.26C151.5 125.93 149.39 125.36 148.07 124.99C146.75 124.62 144.71 124.06 143.54 123.73C142.37 123.4 140.66 122.94 139.73 122.7C138.8 122.46 137.64 122.18 137.14 122.06C136.65 121.95 135.85 121.79 135.37 121.69C134.89 121.6 134.14 121.47 133.7 121.4C133.26 121.33 132.42 121.21 131.83 121.14C131.24 121.07 130.34 120.98 129.82 120.94C129.31 120.9 128.23 120.83 127.42 120.8C126.61 120.76 125.05 120.74 123.94 120.74C122.84 120.75 121.08 120.78 120.03 120.81ZM125.34 130.15C125.53 130.56 125.9 131.23 126.15 131.63C126.4 132.04 126.9 132.86 127.26 133.47C127.63 134.07 127.97 134.72 128.04 134.9C128.13 135.16 128.15 135.46 128.15 136.22C128.15 136.76 128.16 137.2 128.17 137.2C128.18 137.2 129.28 137.53 130.61 137.93C131.94 138.34 133.05 138.67 133.08 138.67C133.11 138.67 133.07 138.46 132.99 138.22C132.91 137.97 132.72 137.42 132.55 137C132.39 136.58 132.09 135.92 131.89 135.53C131.69 135.15 131.35 134.59 131.13 134.3C130.91 134.01 130.51 133.55 130.24 133.28C129.98 133.01 129.55 132.61 129.29 132.41C129.03 132.2 128.28 131.64 127.62 131.16C126.96 130.68 126.11 130.09 125.73 129.85C125.35 129.6 125.03 129.4 125.02 129.4C125 129.4 125.15 129.74 125.34 130.15ZM101.09 130.63C100.53 130.78 99.38 131.15 98.51 131.45C97.65 131.74 96.22 132.26 95.34 132.59C94.46 132.92 92.76 133.57 91.56 134.03C90.37 134.5 88.46 135.25 87.32 135.71C86.18 136.17 84.49 136.86 83.58 137.25C82.66 137.63 81.32 138.2 80.6 138.51C79.88 138.83 79.06 139.2 78.76 139.35C78.47 139.5 78.21 139.63 78.2 139.64C78.18 139.66 78.18 139.68 78.2 139.7C78.21 139.72 78.68 139.64 79.23 139.53C79.78 139.43 80.91 139.17 81.74 138.98C82.56 138.78 84.53 138.28 86.11 137.87C87.7 137.46 90.42 136.74 92.16 136.27C93.91 135.8 96.75 135.03 98.48 134.57C100.21 134.1 102.24 133.57 102.99 133.39C103.74 133.2 104.68 133.01 105.06 132.96C105.45 132.91 105.96 132.87 106.2 132.87C106.44 132.87 107.38 132.94 108.3 133.03C109.22 133.12 110.09 133.2 110.22 133.21C110.36 133.22 110.48 133.21 110.49 133.19C110.5 133.16 110.28 132.98 109.99 132.77C109.71 132.57 109.21 132.24 108.89 132.04C108.57 131.84 108.12 131.59 107.9 131.48C107.68 131.37 107.25 131.17 106.93 131.05C106.62 130.92 106.14 130.75 105.86 130.68C105.59 130.6 105.11 130.5 104.79 130.44C104.41 130.37 103.88 130.33 103.16 130.34C102.12 130.35 102.06 130.35 101.09 130.63Z" />
		<path class="shp2" d="M146.02 135.15C146 135.23 145.92 135.54 145.84 135.83C145.76 136.13 145.64 136.76 145.57 137.23C145.49 137.71 145.39 138.25 145.34 138.43C145.28 138.62 145.09 138.99 144.9 139.27C144.67 139.61 144.03 140.3 142.84 141.47C141.9 142.41 140.89 143.35 140.6 143.55L140.08 143.93C140.08 144.63 140.13 145.1 140.19 145.43C140.24 145.76 140.47 146.78 140.7 147.7C141.05 149.13 141.15 149.46 141.45 150.05C141.66 150.48 141.81 150.71 141.85 150.67C141.89 150.64 144.03 149.06 146.61 147.16C149.19 145.26 151.67 143.44 152.12 143.12C152.58 142.8 153.14 142.37 153.38 142.17C153.62 141.97 153.92 141.64 154.05 141.45C154.19 141.26 154.36 140.92 154.44 140.7C154.53 140.48 154.68 139.93 154.78 139.47C154.89 139.01 155.04 138.25 155.13 137.79C155.22 137.32 155.27 136.92 155.25 136.91C155.24 136.89 154.11 136.65 152.75 136.37C151.39 136.1 149.37 135.69 148.27 135.47C147.17 135.24 146.22 135.05 146.16 135.03C146.09 135.01 146.04 135.05 146.02 135.15Z" />
		<path class="shp0" d="M92.65 139.95C92.39 140.22 92 140.69 91.79 141C91.58 141.31 91.28 141.84 91.12 142.17C90.96 142.5 90.73 143.08 90.6 143.47C90.47 143.85 90.31 144.42 90.25 144.73C90.16 145.13 90.13 145.58 90.13 146.23C90.13 147.07 90.16 147.25 90.35 147.97C90.47 148.41 90.69 149.23 90.83 149.8C90.98 150.37 91.15 151.22 91.2 151.7C91.27 152.27 91.3 152.78 91.27 153.2C91.25 153.55 91.18 154.03 91.12 154.27C91.06 154.5 90.92 154.88 90.81 155.1C90.7 155.32 90.47 155.64 90.3 155.82C90.13 156 89.86 156.22 89.69 156.32C89.53 156.41 89.25 156.54 89.09 156.6L88.79 156.72C88.33 156.34 88.06 156.05 87.88 155.83C87.71 155.61 87.46 155.25 87.33 155.03C87.2 154.81 86.98 154.48 86.82 154.28C86.66 154.07 86.32 153.78 85.96 153.54C85.64 153.33 85.03 152.97 84.61 152.75C84.19 152.53 83.41 152.16 82.87 151.92C82.18 151.62 81.83 151.43 81.65 151.25C81.47 151.07 81.12 150.43 80.36 148.88L79.31 146.77C79.21 147.18 79.17 147.95 79.17 148.73C79.17 149.64 79.2 150.34 79.25 150.63C79.3 150.89 79.41 151.34 79.51 151.63C79.61 151.93 79.76 152.32 79.85 152.5C79.94 152.68 80.17 153.04 80.36 153.3C80.55 153.56 80.89 153.91 81.11 154.08C81.33 154.25 81.71 154.56 81.97 154.75C82.29 155 82.55 155.27 82.77 155.6C82.96 155.88 83.29 156.52 83.51 157.03C83.89 157.93 83.9 157.99 83.9 158.53C83.9 158.95 83.87 159.15 83.79 159.28C83.73 159.38 83.58 159.53 83.46 159.6C83.31 159.69 83.12 159.73 82.86 159.73C82.65 159.73 82.27 159.69 82.02 159.63C81.71 159.56 81.39 159.42 80.97 159.17C80.64 158.96 80.19 158.71 79.97 158.6C79.75 158.49 79.32 158.34 79.03 158.27C78.74 158.19 78.01 158.1 77.43 158.05C76.6 157.99 76.05 157.99 74.99 158.05C74.23 158.1 73.33 158.14 72.98 158.13C72.63 158.13 72.08 158.09 71.75 158.04C71.41 157.98 70.91 157.86 70.63 157.77C70.34 157.68 69.86 157.48 69.56 157.32C69.25 157.17 68.83 156.93 68.6 156.78C68.38 156.63 67.84 156.23 67.4 155.88C66.96 155.53 66.41 155.12 66.18 154.96C65.95 154.8 65.75 154.67 65.73 154.68C65.71 154.69 65.75 154.86 65.82 155.07C65.89 155.27 66.06 155.66 66.2 155.93C66.34 156.21 66.6 156.66 66.78 156.93C66.97 157.21 67.25 157.6 67.4 157.8C67.56 158 67.91 158.39 68.18 158.67C68.45 158.94 68.93 159.37 69.24 159.62C69.55 159.87 70.12 160.23 70.51 160.43C71.09 160.73 71.52 160.88 73.02 161.29C74.01 161.57 75.06 161.87 75.35 161.97C75.65 162.06 76.16 162.27 76.49 162.43C76.82 162.59 77.33 162.9 77.63 163.12C77.92 163.33 78.55 163.91 79.01 164.39L79.87 165.27C79.5 166.48 79.32 167.07 79.23 167.35L79.06 167.87C87.53 176.16 90.73 179.3 91.64 180.2L93.29 181.83C93.95 181.35 94.48 180.91 94.9 180.53C95.33 180.15 97.34 178.18 99.38 176.14C101.42 174.1 103.91 171.65 104.92 170.7C105.92 169.75 106.86 168.82 107 168.63C107.14 168.45 107.31 168.19 107.36 168.05C107.42 167.91 107.47 167.66 107.47 167.5C107.47 167.34 107.39 166.82 107.3 166.35C107.2 165.88 107.11 165.45 107.1 165.38C107.07 165.29 107.28 165.16 108.15 164.74C108.81 164.42 109.52 164.01 109.94 163.71C110.33 163.44 110.87 162.98 111.16 162.69C111.44 162.4 111.77 162.03 111.9 161.87C112.02 161.7 112.24 161.39 112.38 161.17C112.52 160.95 112.93 160.15 113.3 159.4C113.66 158.65 114.09 157.84 114.25 157.6C114.41 157.36 114.76 156.96 115.03 156.7C115.31 156.44 115.74 156.12 115.99 155.99C116.25 155.85 117.19 155.47 118.09 155.13C119 154.79 119.89 154.41 120.08 154.29C120.28 154.17 120.45 154.04 120.47 154C120.49 153.96 120.43 153.92 120.35 153.9C120.27 153.89 119.64 153.85 118.96 153.83C118.18 153.8 117.41 153.81 116.86 153.86C116.38 153.9 115.73 154 115.42 154.07C115.11 154.14 114.69 154.27 114.49 154.34C114.28 154.42 113.94 154.57 113.72 154.68C113.5 154.79 113.12 155.02 112.88 155.19C112.64 155.36 112.03 155.9 111.51 156.4C111 156.9 110.4 157.44 110.17 157.61C109.95 157.77 109.5 158.09 109.17 158.31C108.84 158.54 108.21 158.9 107.77 159.12C107.33 159.35 106.64 159.64 106.23 159.77C105.62 159.98 105.38 160.03 104.79 160.05C104.41 160.07 103.97 160.05 103.83 160.01C103.68 159.97 103.48 159.88 103.39 159.81C103.24 159.69 103.22 159.63 103.22 159.25C103.22 158.87 103.25 158.78 103.52 158.33C103.68 158.06 103.91 157.65 104.03 157.43C104.15 157.21 104.36 156.76 104.49 156.43C104.61 156.1 104.74 155.64 104.77 155.4C104.79 155.12 104.77 154.64 104.69 154.03C104.61 153.38 104.59 152.83 104.61 152.2C104.64 151.47 104.67 151.21 104.81 150.8C104.91 150.53 105.09 150.12 105.22 149.9C105.35 149.68 105.61 149.32 105.81 149.09C106 148.87 106.41 148.42 106.7 148.09C107 147.77 107.3 147.39 107.39 147.25C107.47 147.11 107.53 146.99 107.52 146.97C107.51 146.95 107.25 147.02 106.93 147.13C106.62 147.23 106.17 147.4 105.93 147.5C105.69 147.6 105.32 147.77 105.1 147.88C104.88 147.99 104.53 148.2 104.33 148.33C104.12 148.47 103.8 148.73 103.6 148.91C103.4 149.09 103.13 149.4 102.99 149.6C102.85 149.8 102.66 150.13 102.56 150.33C102.45 150.53 102.19 151.18 101.97 151.77C101.76 152.35 101.43 153.13 101.25 153.5C101.06 153.87 100.71 154.45 100.46 154.79C100.22 155.14 99.82 155.65 99.58 155.92C99.34 156.2 99.04 156.49 98.91 156.56C98.75 156.66 98.57 156.69 98.31 156.69C98.11 156.68 97.7 156.6 97.39 156.51C96.94 156.37 96.84 156.31 96.81 156.18C96.79 156.1 96.7 155.37 96.61 154.57C96.52 153.76 96.41 152.78 96.37 152.4C96.33 152.01 96.25 151.56 96.19 151.4C96.14 151.24 96.02 150.97 95.92 150.8C95.83 150.63 95.31 149.87 94.78 149.1C94.24 148.33 93.61 147.39 93.38 147C93.15 146.62 92.89 146.07 92.8 145.8C92.71 145.53 92.6 145.09 92.56 144.83C92.51 144.54 92.5 144.14 92.53 143.77C92.55 143.44 92.67 142.61 92.8 141.93C92.92 141.25 93.06 140.44 93.1 140.11C93.14 139.79 93.16 139.51 93.15 139.5C93.13 139.48 92.91 139.69 92.65 139.95ZM180.18 142.05C180.31 142.06 180.54 142.06 180.68 142.05C180.83 142.03 180.73 142.02 180.45 142.02C180.17 142.02 180.05 142.03 180.18 142.05ZM177.64 142.12C177.77 142.13 178 142.13 178.14 142.12C178.29 142.1 178.19 142.09 177.91 142.09C177.63 142.09 177.51 142.1 177.64 142.12ZM175.1 142.18C175.23 142.2 175.46 142.2 175.6 142.18C175.75 142.17 175.65 142.16 175.37 142.16C175.1 142.16 174.97 142.17 175.1 142.18ZM172.56 142.25C172.69 142.26 172.92 142.26 173.07 142.25C173.21 142.23 173.11 142.22 172.83 142.22C172.56 142.22 172.44 142.23 172.56 142.25ZM170.02 142.32C170.15 142.33 170.38 142.33 170.53 142.32C170.67 142.3 170.57 142.29 170.29 142.29C170.02 142.29 169.9 142.3 170.02 142.32ZM167.48 142.38C167.61 142.4 167.84 142.4 167.99 142.38C168.13 142.37 168.03 142.36 167.75 142.36C167.48 142.36 167.36 142.37 167.48 142.38ZM129.3 142.71C129.41 142.82 129.86 143.2 130.29 143.57C130.73 143.93 131.43 144.58 131.86 145C132.29 145.42 132.84 146.04 133.09 146.37C133.33 146.7 133.52 146.98 133.5 147C133.49 147.02 133.23 147.14 132.92 147.27C132.62 147.39 132.19 147.61 131.98 147.75C131.77 147.89 131.51 148.13 131.4 148.28C131.29 148.44 131.15 148.7 131.09 148.87C131.02 149.06 130.97 149.37 130.97 149.73C130.97 150.17 131 150.37 131.1 150.6C131.17 150.76 131.34 151.02 131.47 151.17C131.6 151.31 131.99 151.63 132.34 151.86C132.68 152.1 133.81 152.93 134.84 153.7C135.87 154.47 137.07 155.35 137.51 155.64C137.95 155.94 138.44 156.24 138.6 156.32C138.83 156.44 138.88 156.45 138.88 156.37C138.88 156.31 138.8 155.82 138.71 155.28C138.61 154.74 138.4 153.69 138.24 152.93C138.07 152.18 137.77 150.91 137.57 150.1C137.37 149.29 137.05 148.14 136.87 147.53C136.68 146.93 136.42 146.21 136.3 145.93C136.17 145.66 135.93 145.24 135.77 145C135.61 144.76 135.31 144.4 135.09 144.2C134.88 143.99 134.49 143.7 134.23 143.55C133.98 143.4 133.45 143.17 133.07 143.04C132.65 142.91 132.03 142.77 131.56 142.71C131.12 142.65 130.38 142.59 129.92 142.57L129.09 142.52L129.3 142.71Z" />
		<path class="shp2" d="M128.02 155.89C127.69 156.16 127.06 156.71 126.62 157.11C126.17 157.51 125.47 158.23 125.04 158.71C124.61 159.18 123.71 160.23 123.04 161.03C122.36 161.84 121.53 162.77 121.2 163.11C120.87 163.44 118.42 165.84 115.76 168.44C113.09 171.04 110.55 173.51 110.12 173.93C109.69 174.36 109.36 174.71 109.4 174.72C109.44 174.73 110.7 173.84 112.2 172.75C113.69 171.66 116.35 169.72 118.09 168.44C119.84 167.16 122.49 165.2 123.98 164.08C125.46 162.97 127.97 161.06 129.54 159.85C131.11 158.63 132.39 157.62 132.4 157.6C132.4 157.58 131.59 157.08 130.6 156.48C129.6 155.89 128.75 155.4 128.7 155.4C128.66 155.41 128.35 155.63 128.02 155.89Z" />
	</g>
</svg>