<svg version="1.1" xmlns="http://www.w3.org/2000/svg" viewBox="0 0 200 188" width="200" height="188">
	<style>
		.s0 { fill: #ffffff } 
		.s1 { fill: #132347 } 
		.s2 { fill: #cbab58 } 
	</style>
		<path class="s0" d="m95 0.3c-1.2 0.1-3 0.4-4 0.6-1 0.2-2.6 0.5-3.5 0.7-0.9 0.3-2.3 0.7-3.1 0.9-0.8 0.3-2.1 0.7-2.9 1.1-0.8 0.3-2.2 0.8-3.1 1.2-0.8 0.4-2.2 1.1-3.1 1.6-0.9 0.5-2.4 1.4-3.3 2-0.9 0.6-2.4 1.6-3.2 2.2-0.9 0.6-2.3 1.8-3.2 2.6-0.9 0.8-2.3 2.1-3.1 2.9-0.8 0.9-1.9 2.1-2.5 2.8-0.5 0.6-1.5 1.9-2.2 2.8-0.6 0.9-1.6 2.3-2.2 3.2-0.5 0.9-1.6 2.8-2.3 4.1-0.7 1.4-10.7 18.7-22.1 38.5-11.5 19.8-21.3 36.7-21.9 37.5-0.5 0.7-1.3 2-1.8 2.9-0.5 0.8-1.3 2.3-1.8 3.2-0.4 0.9-1.1 2.4-1.5 3.3-0.4 0.9-0.9 2.3-1.2 3.2-0.3 0.8-0.7 2.2-1 3-0.2 0.8-0.6 2.3-0.8 3.4-0.2 1.1-0.5 2.8-0.7 4-0.1 1.1-0.3 3.1-0.4 4.4-0.1 1.9-0.1 3 0 4.9 0.1 1.3 0.3 3.3 0.5 4.5 0.1 1.1 0.4 3 0.7 4.2 0.2 1.2 0.7 3 1 4 0.3 1 0.8 2.6 1.2 3.6 0.4 1 1.2 2.9 1.9 4.2 0.6 1.4 1.6 3.2 2.2 4.2 0.6 1 1.4 2.3 1.9 3 0.5 0.7 1.5 2.1 2.2 3 0.8 0.9 2.4 2.6 3.5 3.9 1.2 1.2 3 2.8 3.9 3.6 1 0.8 2.5 2 3.3 2.6 0.9 0.6 2.4 1.6 3.3 2.1 1 0.6 2.7 1.6 3.9 2.1 1.1 0.6 3 1.4 4.1 1.9 1.2 0.5 2.7 1 3.4 1.2 0.8 0.3 2.3 0.7 3.5 1 1.2 0.3 3.1 0.7 4.3 0.9 1.2 0.1 3 0.4 4.1 0.5 1.4 0.1 12.2 0.1 51.1 0.1 38.9 0 49.6 0 51.1-0.1 1-0.1 2.8-0.4 4-0.5 1.2-0.2 3.1-0.6 4.3-0.9 1.2-0.3 2.7-0.7 3.3-0.9 0.6-0.2 2-0.7 3.1-1.1 1.1-0.4 2.8-1.2 3.9-1.7 1.2-0.5 2.7-1.3 3.5-1.8 0.9-0.5 2.4-1.4 3.4-2.1 1-0.7 2.6-1.9 3.4-2.6 0.9-0.6 2.3-1.9 3.2-2.7 0.9-0.9 2.2-2.1 2.8-2.8 0.6-0.7 1.6-1.9 2.2-2.6 0.6-0.7 1.5-1.9 2-2.6 0.5-0.7 1.4-2.2 2-3.2 0.7-1 1.6-2.7 2.2-3.9 0.6-1.2 1.4-3 1.8-3.9 0.3-1 0.9-2.5 1.2-3.4 0.3-0.9 0.7-2.4 1-3.5 0.2-1 0.6-2.7 0.7-3.8 0.2-1.1 0.5-2.7 0.6-3.5 0.1-1 0.1-3.1 0.1-5.4 0-2.9 0-4.5-0.2-5.9-0.1-1.1-0.4-2.8-0.6-3.8-0.2-1-0.5-2.5-0.7-3.4-0.3-0.9-0.7-2.4-1-3.3-0.3-0.9-0.8-2.4-1.2-3.3-0.3-0.9-0.9-2.3-1.3-3.1-0.4-0.9-1.1-2.2-1.5-3-0.5-0.8-1.3-2.1-1.8-2.9-0.5-0.9-10.3-17.9-21.6-37.9-11.4-19.9-20.9-36.8-21.2-37.4-0.3-0.6-1-2-1.5-2.9-0.6-1-1.4-2.5-1.8-3.2-0.5-0.7-1.3-1.9-1.8-2.7-0.6-0.7-1.6-2.1-2.4-3-0.8-0.9-2.2-2.5-3.1-3.5-1-0.9-2.4-2.2-3.1-2.9-0.8-0.6-2.1-1.6-2.9-2.2-0.8-0.7-2.3-1.7-3.3-2.3-1-0.6-2.9-1.7-4.3-2.4-1.4-0.7-3.5-1.7-4.7-2.1-1.1-0.5-2.9-1.1-3.8-1.4-1-0.3-2.5-0.7-3.3-0.9-0.7-0.2-2.1-0.4-2.9-0.6-0.9-0.1-2.6-0.4-3.9-0.5-1.8-0.2-3.2-0.3-5.6-0.3-2.2 0-3.9 0.1-5.4 0.3z"/>
		<path class="s1" d="m98.2 6.8c-0.4 0-1.4 0.1-2.3 0.2-0.8 0.1-2.3 0.3-3.2 0.4-0.8 0.2-2.3 0.5-3.2 0.7-1 0.2-2.4 0.6-3.3 0.9-0.9 0.3-2.4 0.8-3.3 1.2-0.9 0.4-2.5 1.1-3.5 1.6-1 0.5-2.6 1.4-3.5 2-0.9 0.6-2.3 1.5-3 2-0.8 0.6-1.9 1.5-2.6 2.1-0.6 0.5-1.9 1.7-2.7 2.5-0.9 0.9-2.1 2.2-2.8 3-0.7 0.8-1.6 2.1-2.2 2.8-0.5 0.8-1.4 2.2-2 3.2-0.6 0.9-1.5 2.5-1.9 3.5-0.5 0.9-10.3 17.8-21.7 37.6-11.4 19.7-21.3 36.6-21.9 37.6-0.7 1-1.6 2.4-2.1 3.2-0.4 0.8-1.2 2.2-1.6 3.1-0.4 0.9-1 2.3-1.4 3.2-0.3 0.8-0.8 2.3-1.1 3.3-0.3 1-0.8 2.9-1 4.1-0.3 1.3-0.6 3.2-0.7 4.2-0.2 1.3-0.3 3-0.3 5.2 0 1.8 0.1 3.9 0.2 4.7 0.1 0.8 0.3 2.2 0.4 3.1 0.2 0.9 0.5 2.4 0.7 3.3 0.2 1 0.7 2.4 0.9 3.3 0.3 0.9 0.9 2.4 1.2 3.3 0.4 0.9 1.2 2.5 1.7 3.5 0.5 1 1.4 2.6 1.9 3.5 0.6 0.9 1.5 2.3 2.1 3 0.5 0.8 1.3 1.7 1.6 2.2 0.4 0.4 1.3 1.4 1.9 2.1 0.7 0.7 1.9 2 2.8 2.7 0.8 0.8 2.3 2 3.3 2.7 1 0.7 2.4 1.7 3.2 2.2 0.7 0.5 2.4 1.4 3.6 2.1 1.3 0.6 3.2 1.5 4.2 1.9 1 0.4 2.8 1 3.8 1.3 1.1 0.3 2.8 0.7 3.9 0.9 1 0.2 2.7 0.5 3.7 0.6 1.8 0.3 4.3 0.3 52.1 0.3 47.8 0 50.2 0 52-0.3 1-0.1 2.7-0.4 3.6-0.5 0.9-0.2 2.5-0.6 3.6-0.9 1.1-0.3 2.7-0.8 3.6-1.2 0.8-0.3 2.5-1 3.7-1.6 1.2-0.6 2.8-1.4 3.5-1.8 0.8-0.5 1.9-1.2 2.5-1.6 0.6-0.4 1.8-1.2 2.5-1.8 0.8-0.6 2.1-1.7 2.9-2.4 0.8-0.8 2.1-2.1 2.9-2.9 0.7-0.9 1.8-2.1 2.3-2.8 0.6-0.6 1.5-2 2.2-3 0.7-1.1 1.7-2.7 2.2-3.5 0.4-0.9 1.2-2.5 1.6-3.5 0.5-1 1.1-2.7 1.5-3.6 0.3-1 0.8-2.5 1-3.4 0.2-0.8 0.5-2.3 0.7-3.3 0.2-0.9 0.4-2.6 0.5-3.7 0.2-1.1 0.2-3.2 0.2-4.9 0-1.6 0-3.7-0.2-4.8-0.1-1.1-0.3-2.8-0.5-3.8-0.2-0.9-0.5-2.3-0.7-3-0.1-0.7-0.5-1.9-0.7-2.6-0.2-0.7-0.7-2-1-2.9-0.4-0.8-1.1-2.5-1.7-3.6-0.5-1.2-1.4-2.7-1.8-3.4-0.4-0.7-0.9-1.5-1.1-1.8-0.2-0.3-9.7-16.9-21.1-36.9-11.4-20-20.9-36.9-21.3-37.6-0.3-0.7-0.9-1.9-1.3-2.8-0.5-0.8-1.1-1.9-1.5-2.5-0.4-0.6-1-1.6-1.5-2.2-0.4-0.7-1.3-1.8-1.9-2.5-0.6-0.8-1.8-2.1-2.8-3.1-0.9-1-2.3-2.3-3.2-3-0.8-0.7-2.2-1.8-3-2.4-0.9-0.6-2.4-1.6-3.3-2.2-0.9-0.5-2.5-1.3-3.4-1.8-1-0.5-2.6-1.2-3.6-1.6-1.1-0.4-2.6-0.9-3.5-1.2-0.9-0.3-2.3-0.6-3.2-0.8-0.8-0.2-2.3-0.5-3.3-0.6-1-0.2-2.8-0.4-4-0.4-1.2-0.1-2.7-0.2-3.4-0.2-0.6 0.1-1.5 0.1-1.9 0.1z"/>
		<path class="s2" d="m98.3 63c-1 0.1-2.6 0.3-3.5 0.4-1 0.2-2.6 0.5-3.6 0.8-1.3 0.3-2.3 0.7-3.4 1.2-0.9 0.5-2 0.9-2.4 1-0.4 0.1-2.1 0.7-3.7 1.2l-3.1 1c-7.2 0.4-9.1 0.5-9.5 0.7-0.4 0.1-1.3 0.5-2.1 0.9-0.8 0.3-1.9 1-2.5 1.4-0.7 0.4-1.8 1.4-2.6 2.2-0.9 0.9-1.6 1.7-2 2.5-0.4 0.6-0.9 1.6-1.1 2.3-0.4 1.3-0.4 1.4-0.4 3.5 0 1.9 0 2.4 0.3 3.4 0.2 0.8 0.9 2.5 2.4 5.4l2.1 4.3c1.6 5.4 2.6 8.9 3.1 11.3 0.6 2.4 1.7 6.1 2.3 8.3 0.7 2.1 2 7.1 3 10.9 0.9 3.8 1.8 7.1 1.9 7.4 0.1 0.2 0.3 0.5 0.5 0.6 0.2 0.3 0.8 0.3 8.8 0.2h8.6c1.1-0.6 1.6-1 1.8-1.3 0.2-0.2 0.4-0.6 0.5-0.9 0.1-0.2 0.2-0.8 0.2-1.2 0-0.6-0.1-1.1-0.3-1.4-0.1-0.3-0.5-0.8-0.8-1.1-0.4-0.4-0.9-0.7-1.4-0.8-0.5-0.2-1.5-0.2-5-0.2h-4.3c0.1-0.7 0.6-6 1.3-12.2 0.6-6.2 1.1-11.3 1.1-11.4-0.1 0-0.5-0.2-1-0.4-0.4-0.2-1.3-0.7-1.8-1.1-0.6-0.3-1.4-1-1.9-1.5-0.5-0.5-1.2-1.3-1.5-1.8-0.3-0.4-0.8-1.3-1-1.8-0.3-0.6-0.6-1.6-0.8-2.3l-0.3-1.2c11.5 0 14.8 0 14.8 0 0 0-0.5 6-1.1 13.3-0.6 7.2-1.1 13.3-1.1 13.4 0 0.1 2.3 0.1 11.1 0.1h11c0-0.5-0.4-6.6-1-13.7-0.6-7.2-1.1-13.1-1.1-13.1 0 0 3.3 0 7.4 0h7.4c-0.2 0.6-0.3 1.3-0.5 1.9-0.2 0.6-0.6 1.5-0.9 2.1-0.3 0.5-0.8 1.4-1.2 1.9-0.4 0.6-1.2 1.3-1.7 1.8-0.5 0.4-1.3 1-1.8 1.3-0.5 0.2-1.1 0.6-1.5 0.7-0.4 0.2-0.7 0.3-0.7 0.3 0 0.1 0.5 5.1 1.1 11.2 0.6 6.1 1.1 11.4 1.2 11.8l0.1 0.7c-8 0-8.9 0-9.4 0.2-0.4 0.1-0.9 0.4-1.2 0.7-0.2 0.3-0.6 0.7-0.7 1-0.2 0.3-0.3 0.8-0.4 1.1 0 0.4 0 0.8 0.2 1.4 0.2 0.6 0.4 0.9 0.9 1.5 0.4 0.4 0.9 0.7 1.2 0.8 0.4 0.2 2.4 0.2 9 0.2 5.4 0.1 8.5 0 8.7-0.1 0.2 0 0.4-0.3 0.5-0.7 0.1-0.3 0.8-3.5 1.7-7.2 1.2-4.9 1.9-7.8 2.9-11 0.8-2.4 1.8-6.2 2.4-8.5 0.5-2.2 1.4-5.6 2-7.6l1-3.5c3.8-7.7 4.4-9 4.6-10 0.2-0.7 0.4-1.8 0.4-2.5 0.1-0.9 0-1.7-0.1-2.5-0.1-0.7-0.4-1.8-0.6-2.3-0.3-0.6-0.7-1.5-1.1-2.1-0.4-0.5-1-1.4-1.4-1.8-0.5-0.5-1.3-1.3-1.9-1.7-0.6-0.5-1.3-1-1.6-1.2-0.3-0.2-1.1-0.6-1.8-0.9-0.6-0.4-1.5-0.8-1.9-0.9-0.6-0.3-1.4-0.4-5.3-0.6l-4.6-0.3c-6.6-2-8.2-2.6-9-3.1-0.7-0.3-1.9-0.8-2.5-1-0.7-0.1-2-0.4-2.8-0.6-0.9-0.2-2.4-0.4-3.3-0.6-1-0.1-2.1-0.2-2.7-0.2-0.5 0-1.7 0-2.6 0zm-10.1 76.7c-0.4 0.2-0.9 0.4-1.2 0.7-0.3 0.2-0.7 0.6-0.9 1-0.2 0.3-0.5 0.9-0.6 1.2 0 0.4-0.1 1 0 1.3 0 0.4 0.1 0.9 0.3 1.2 0.1 0.4 0.5 0.9 0.8 1.2 0.3 0.3 0.8 0.7 1.2 0.8l0.8 0.4c20.7 0 22.4 0 23.1-0.1 0.4-0.2 1-0.4 1.3-0.6 0.3-0.2 0.8-0.7 1-1.1 0.2-0.3 0.5-0.9 0.6-1.3 0.1-0.4 0.1-1 0.1-1.3-0.1-0.3-0.2-0.9-0.4-1.2-0.1-0.3-0.4-0.8-0.7-1.1-0.2-0.3-0.8-0.7-1.2-0.9l-0.7-0.3c-21.9-0.1-22.9-0.1-23.5 0.1z"/>
</svg>