<svg xmlns="http://www.w3.org/2000/svg" xmlns:svg="http://www.w3.org/2000/svg" width="275.9399520599675" height="362.3976856322275" viewBox="0 0 141.14038 185.20839" version="1.1" id="svg1" xml:space="preserve"><defs id="defs1"/><g id="layer1" transform="translate(-34.545638,-50.96366)"><g id="g1" transform="matrix(0.26458333,0,0,0.26458333,-0.71749744,37.734546)"><g id="g30"><path d="m 400.1694,750 c -8.0818,-4e-4 -16.2682,-0.3788 -24.3317,-1.1241 -36.9673,-3.4178 -71.9871,-14.1756 -104.0866,-31.9739 -30.8506,-17.1059 -57.7007,-39.9489 -79.8048,-67.8942 -22.5937,-28.5643 -38.9932,-60.8655 -48.7426,-96.0056 -10.0811,-36.3348 -12.4977,-73.8585 -7.1826,-111.5278 5.5534,-39.3562 20.2871,-77.9014 42.6084,-111.4686 21.1602,-31.8212 49.0745,-59.0783 80.9899,-79.1401 l -0.1389,-28.32 c -18.1466,-7.9332 -31.3004,-16.6557 -41.0638,-27.1737 -9.2076,-9.9196 -18.357,-26.5445 -16.4222,-43.4564 1.2654,-11.0612 7.0401,-20.362 16.6999,-26.897 7.8265,-5.2945 16.7866,-7.9789 26.6319,-7.9789 5.3722,0 10.998,0.7848 17.0198,2.3836 8.2286,-16.3777 24.3482,-28.9703 44.1801,-33.9475 7.6852,-1.9289 15.4887,-2.9068 23.1937,-2.9068 6.2643,0 12.6219,0.6464 18.8963,1.9212 4.8478,0.9852 9.3841,2.5174 13.7346,4.2901 0.0253,-0.8329 0.0555,-1.6589 0.0856,-2.4774 0.0758,-2.07 0.1474,-4.0252 0.1289,-5.862 -0.0124,-1.2256 -0.1336,-2.7631 -0.2506,-4.2499 -0.0587,-0.7418 -0.116,-1.4738 -0.1633,-2.1811 l -0.9331,-13.989 14.9902,3.4019 -3.1951,-13.423 h 51.7782 l -3.1721,13.3278 13.6559,-3.1747 v 29.5546 c 0.7583,-0.3642 1.5492,-0.7218 2.373,-1.0584 9.8189,-4.0099 21.0646,-6.1293 32.521,-6.1293 11.1114,0 22.1706,2.0115 31.9809,5.8169 10.9356,4.242 20.0245,10.475 27.014,18.5258 3.492,4.0219 6.1527,8.2649 8.3471,12.5155 5.6405,-1.5382 11.3371,-2.3345 16.8375,-2.3345 14.6128,0 26.8138,5.4497 35.2845,15.7599 7.1547,8.709 9.9579,19.5015 8.1061,31.2109 -1.4561,9.2086 -5.8803,18.7838 -12.458,26.9623 -9.8154,12.2039 -24.7787,22.8903 -42.6661,30.5742 l -0.0287,31.0034 c 0.7006,0.4392 1.4196,0.8823 2.1567,1.3366 2.1901,1.3504 4.4552,2.7467 6.719,4.3382 26.0033,18.2814 48.3674,40.7301 66.4707,66.7226 17.6319,25.3158 30.7442,53.2798 38.9716,83.1152 8.238,29.8721 11.3139,60.6606 9.1427,91.5104 -2.2341,31.7407 -9.9779,62.6608 -23.0164,91.9013 -42.9389,96.2964 -138.2674,158.5211 -242.8509,158.5211 h -0.0106 z" style="fill:#ffffff" id="path2"/><g id="g7"><path d="m 411.5627,60.4497 -4.017,16.8782 17.2801,-4.017 v 24.5165 l -17.2811,-3.6161 2.8857,16.6038 0.9117,0.6814 c 7.1378,-2.6348 14.143,-5.6078 21.1141,-8.651 3.1118,-1.3585 5.9761,-3.2285 9.1431,-4.5219 25.346,-10.3511 61.1563,-5.9395 79.6745,15.3899 4.8467,5.5824 7.8875,11.8838 10.6873,18.6657 16.3545,-7.0885 37.3672,-7.8292 49.5979,7.0579 11.3615,13.8291 5.7365,32.3616 -4.4205,44.9906 -11.357,14.121 -28.9754,24.2191 -45.8053,30.3613 l 0.0474,0.7615 0.7904,0.609 -0.0385,41.4307 c 0.1471,0.7667 1.3559,1.5034 2.0488,1.9703 3.6828,2.4819 7.6243,4.6532 11.2709,7.217 101.8312,71.5919 139.1677,205.7735 88.0349,320.4456 C 589.1356,686.6873 486.3114,748.5957 376.7997,738.4705 229.2685,724.8301 125.7249,589.2374 146.3685,442.9342 157.2543,365.7854 203.4728,296.4484 270.0977,256.7009 l -0.2016,-41.1207 c -15.7144,-6.3126 -32.1687,-14.7645 -43.8208,-27.3174 -14.0502,-15.1365 -21.8682,-40.8269 -1.5255,-54.5889 13.6495,-9.234 29.3958,-6.809 43.9292,-1.2815 5.2474,-18.8631 22.0707,-32.1335 40.5906,-36.7814 12.437,-3.1213 24.8905,-3.4354 37.4656,-0.8802 14.1617,2.8776 26.4804,11.7462 40.2683,15.9413 0.6437,-0.1794 0.7082,-1.4034 0.8576,-1.9808 1.2136,-4.6906 1.5686,-10.1 2.5961,-14.883 l -16.6774,4.0245 c -0.8795,0.2492 -0.748,-1.9828 -0.7784,-2.6177 -0.2323,-4.8487 0.2617,-10.0045 0.2128,-14.8789 -0.0226,-2.2501 -0.2862,-4.7683 -0.4365,-7.0218 l 17.682,4.0128 -4.0175,-16.8777 h 25.3204 z M 387.0462,180.621 c -13.8855,-8.8681 -13.3624,-29.9317 -0.0653,-39.2516 l -0.1318,-5.3644 c -7.1839,-3.1185 -14.5805,-5.673 -21.779,-8.7662 -9.7768,-4.2011 -17.6213,-9.1785 -28.514,-10.4713 -17.5158,-2.0789 -40.6843,4.0016 -46.0813,22.9468 -4.3714,15.3452 11.0557,28.8462 22.0915,36.8131 3.4451,2.487 13.4385,9.4025 17.1913,9.7367 3.435,0.3059 8.075,-1e-4 11.655,2e-4 2.2511,2e-4 4.5067,-0.008 6.7553,-0.0357 5.5033,-9.2428 18.4792,-8.8389 23.8726,0.355 l 15.0056,0.468 v -6.4306 z m 115.9052,-51.9975 c -11.1435,-12.0455 -31.0617,-14.4287 -46.4576,-10.5825 -7.6951,1.9224 -15.9159,6.8585 -23.3582,10.0003 -6.5783,2.7771 -13.3606,5.0593 -19.9683,7.7635 l -0.4063,5.1458 c 14.7472,9.1512 14.7091,31.0886 0.2059,40.4716 l -0.2005,5.6314 14.9988,-0.4789 c 6.1507,-9.169 17.9143,-9.5984 24.2649,-0.4023 3.1659,0.5425 6.5246,-0.3032 9.5564,-0.3507 3.2288,-0.0506 6.7305,0.9885 10.0634,0.2067 2.2751,-0.5336 10.0246,-5.5286 12.382,-7.0909 16.8344,-11.1565 37.3696,-30.3706 18.9196,-50.3141 z m -259.8765,22.3694 c -13.3662,1.7061 -5.7774,14.3039 -0.5203,20.3888 10.4049,12.0435 27.828,20.2481 42.8943,24.4297 l 8.3534,-3.7423 c 0.1654,-0.7212 -5.132,-4.764 -6.0336,-5.6149 -6.7492,-6.3693 -12.4355,-13.1563 -16.7577,-21.4238 -0.7746,-1.4816 -1.6819,-4.9042 -2.5497,-5.8904 -0.7913,-0.8992 -6.8188,-3.9396 -8.275,-4.5861 -4.944,-2.1947 -11.6926,-4.2527 -17.1113,-3.5611 z m 312.2305,23.0563 c 4.4907,-4.4898 14.1319,-17.3498 5.4958,-21.8926 -8.4817,-4.4616 -21.8851,2.5502 -29.368,6.8622 -3.3903,9.7824 -9.8972,18.3704 -17.2236,25.58 -2.3671,2.3293 -5.4886,4.4296 -7.7702,6.6986 -0.3336,0.3318 -0.5734,0.3579 -0.4264,0.9745 l 8.7318,3.5485 c 11.8329,-3.2922 23.9718,-8.8821 33.8347,-16.2388 1.8553,-1.3839 5.1604,-3.967 6.7259,-5.5323 z m -161.8288,47.1607 c -2.8454,-2.1579 -5.6019,-3.4861 -8.029,-6.2347 -0.7044,-0.7977 -1.185,-2.4707 -2.2299,-2.6258 -24.3138,1.7626 -48.3176,6.2741 -71.4974,13.641 -0.11,4.5764 -1.1309,8.4073 -3.8502,12.1 27.4167,-10.0462 56.2451,-16.4571 85.6065,-16.8805 z m 94.8115,4.0617 c -18.0689,-5.2673 -36.4517,-9.6622 -55.228,-11.6891 -4.4356,-0.4788 -10.0847,-1.1183 -14.4604,-1.2395 -0.5971,-0.0165 -1.2738,-0.0885 -1.811,0.2337 -2.2038,3.9092 -5.8154,6.3194 -9.645,8.4382 11.047,0.707 22.1041,1.411 33.0447,3.1234 17.5906,2.7532 34.8787,7.8667 51.5507,13.9608 l -2.8114,-6.4326 -0.6395,-6.3949 z" style="fill:#9e7844" id="path3"/><path d="m 399.9973,728.8448 c -42.9585,0 -85.1656,-11.2121 -122.058,-32.4236 -39.2432,-22.563 -71.5707,-56.0631 -93.4878,-96.8784 -10.5454,-19.6379 -18.4361,-40.4118 -23.4527,-61.7435 -4.8435,-20.5957 -7.0234,-41.762 -6.4792,-62.9109 1.0434,-40.5625 12.1831,-80.8604 32.2143,-116.5375 20.0559,-35.7209 48.6194,-66.1052 82.603,-87.8681 17.6693,-11.3156 36.7309,-20.2771 56.6553,-26.6354 20.646,-6.5889 42.2563,-10.3909 64.2311,-11.3004 3.4527,-0.143 6.9473,-0.2155 10.3865,-0.2155 45.2232,0 89.2316,12.5397 127.2675,36.2635 35.7147,22.2759 65.5342,53.9028 86.2349,91.4614 20.6945,37.5467 31.5739,79.7827 31.4632,122.1423 -0.0585,22.1928 -3.1223,44.2757 -9.107,65.6356 -6.2163,22.1857 -15.5925,43.6047 -27.8684,63.6616 -11.6491,19.0324 -25.6057,36.284 -41.4827,51.2754 -15.3166,14.4622 -32.4539,26.8578 -50.9359,36.8426 -35.3972,19.1224 -75.5729,29.2306 -116.1841,29.2306 z" style="fill:#187b56" id="path4"/><path d="M 392.6076,295.1209 C 541.2515,289.0345 638.0908,453.3191 559.0426,581.0731 483.6773,702.8749 303.9934,697.9695 235.6683,572.1095 169.165,449.6054 254.9923,300.7558 392.6076,295.1209 Z" style="fill:#ffffff" id="path5"/><path d="m 399.9971,659.0874 c -31.0672,0 -61.5255,-7.9829 -88.0816,-23.0859 -13.7387,-7.8137 -26.3249,-17.4741 -37.4091,-28.7127 -11.5869,-11.7484 -21.564,-25.2619 -29.6544,-40.1648 -15.157,-27.9206 -22.434,-57.7731 -21.629,-88.728 0.7512,-28.8795 8.8014,-57.6275 23.2804,-83.1362 14.5082,-25.5604 35.1214,-47.2708 59.6113,-62.7842 12.6545,-8.016 26.303,-14.3636 40.5665,-18.8662 14.853,-4.6887 30.4486,-7.3963 46.3537,-8.0476 2.5206,-0.1032 5.069,-0.1554 7.5749,-0.1554 16.6267,0 32.9755,2.2794 48.5923,6.7752 14.9547,4.3052 29.2833,10.6502 42.5888,18.8592 25.747,15.8851 47.2849,38.5112 62.2855,65.4321 14.9778,26.8807 22.8524,57.0291 22.7723,87.185 -0.0416,15.68 -2.2301,31.2835 -6.5055,46.3767 -4.4767,15.8056 -11.2688,31.1273 -20.1866,45.5403 -16.7123,27.0093 -39.0414,48.1084 -66.367,62.7106 -25.466,13.6088 -54.4412,20.802 -83.7925,20.802 z" style="fill:#187b56" id="path6"/><path d="m 399.9971,651.853 c -29.816,0 -59.0373,-7.6559 -84.505,-22.14 -13.161,-7.4852 -25.2175,-16.7389 -35.8348,-27.5042 -11.1098,-11.2645 -20.6807,-24.23 -28.4473,-38.5363 -14.5435,-26.7906 -21.5265,-55.4185 -20.7549,-85.0885 0.7204,-27.6957 8.4454,-55.2741 22.34,-79.7531 13.9242,-24.5317 33.7006,-45.3637 57.191,-60.2438 12.1268,-7.6818 25.2056,-13.7645 38.8729,-18.0789 14.2433,-4.4962 29.2058,-7.0929 44.4719,-7.7181 2.4201,-0.0991 4.869,-0.1493 7.2789,-0.1493 15.95,0 31.6253,2.1844 46.591,6.4928 14.3224,4.1233 28.0466,10.2008 40.7916,18.064 24.6975,15.2377 45.3641,36.9524 59.7646,62.7966 14.3762,25.8008 21.9343,54.7246 21.8574,83.6445 -0.04,15.0206 -2.1363,29.9671 -6.2316,44.4245 -4.2935,15.1576 -10.8131,29.8623 -19.3781,43.7054 -16.0325,25.9103 -37.4389,46.1432 -63.6247,60.1366 -24.4208,13.0499 -52.2166,19.948 -80.3829,19.948 z" style="fill:#ffffff" id="path7"/></g><g id="g15"><path d="m 379.02,262.9453 0.2056,0.796 c 6.2168,0.1104 8.1448,8.3229 3.8164,12.2646 -1.4433,1.3143 -2.8927,1.6826 -4.7482,2.0843 -6.0243,1.3041 -12.8437,1.5302 -18.9712,2.5269 0.5192,-0.977 0.4576,-1.936 0.3988,-3.0028 -0.3069,-5.5678 -1.7388,-14.9112 -2.8454,-20.47 -0.1903,-0.956 -0.3834,-1.7372 -0.7671,-2.6454 6.2142,0.2536 15.7295,-3.4361 21.6318,-1.7409 4.1394,1.1888 5.3281,8.3256 1.2793,10.1873 z m -14.876,-4.43 c -0.0553,1.0978 0.1368,4.8506 1.0601,5.6006 2.9345,-0.678 11.4194,0.3131 9.2994,-5.3104 -1.0132,-2.6878 -7.5792,-0.3286 -10.3595,-0.2902 z m 2.0416,16.0441 c 1.0514,-0.0228 10.7199,-0.4168 11.9529,-2.6644 1.264,-2.3041 -0.2709,-4.7202 -3.358,-4.555 -0.8524,0.0456 -8.8521,0.9941 -9.0397,1.4113 -0.6073,1.3512 0.0181,4.8189 0.4447,5.8081 z" style="fill:#ffffff" id="path8"/><path d="m 533.7557,312.772 c 0,0 6.1865,-7.5326 8.0057,-10.6403 0.1869,-0.3193 0.4348,-1.4147 0.4348,-1.4147 l 6.4245,4.6196 c -1.5156,0.7366 -3.1774,3.2663 -4.586,5.0601 -3.1373,3.9953 -7.0544,8.9224 -9.805,13.1039 -0.6387,0.971 -0.9198,1.4841 -1.4808,2.9363 l -5.3878,-4.2893 c 0.3872,-3.0372 0.1882,-4.1174 0.1598,-6.9029 -0.0487,-4.7756 0.0355,-9.3814 -0.6056,-14.1262 -3.0327,3.325 -7.6942,9.1803 -9.6486,13.2634 l -6.4236,-4.4277 c 1.1582,-0.8776 1.4615,-1.3073 1.766,-1.6437 3.7062,-4.0956 10.297,-12.631 13.2888,-17.2553 0.4071,-0.6292 0.6505,-1.2335 0.6227,-1.9941 l 6.3728,4.6947 c -0.6511,1.6962 -0.1894,3.0374 -0.0855,4.5481 0.3355,4.8782 0.4024,9.6062 0.9479,14.4681 z" style="fill:#ffffff" id="path9"/><path d="m 491.0439,272.2765 c 6.4109,-1.0763 16.5925,3.4134 19.1916,9.5547 2.8875,6.8228 -2.8733,18.3742 -10.4884,19.2412 -5.7988,0.6602 -16.2846,-4.4524 -18.3268,-10.1197 -2.2669,-6.2906 2.7037,-17.5146 9.6236,-18.6763 z m -0.1532,7.2823 c -2.3374,2.3354 -4.706,8.1938 -2.8966,11.2513 2.4144,4.0801 9.5182,6.5288 13.2008,2.469 2.9239,-3.2234 5.0171,-9.5999 1.1769,-12.828 -3.1215,-2.6239 -8.3029,-4.0677 -11.481,-0.8923 z" style="fill:#ffffff" id="path10"/><path d="m 475.4752,263.3502 -0.8084,6.4192 c -5.2792,-3.4994 -11.5483,-5.0017 -17.6533,-6.4137 -0.4584,1.1282 -0.9416,2.8905 -1.4343,5.2023 1.4569,1.1767 11.099,2.8219 13.3688,3.2593 -0.2842,0.4832 -0.6752,1.2932 -1.0801,2.2171 -0.4059,0.9263 -0.7675,1.9613 -0.8368,2.9719 l -12.61,-3.5956 -1.6731,5.221 c 6.0785,1.8233 13.045,4.328 19.109,4.0026 l -2.4136,6.0259 -25.3158,-6.8355 7.235,-25.3168 z" style="fill:#ffffff" id="path11"/><path d="m 342.0395,258.1169 c 0.006,4.9044 2.97,9.793 4.1336,14.5533 2.0704,8.4702 -1.9566,13.0844 -9.9902,15.1554 -15.998,4.1242 -14.9505,-11.3997 -19.8654,-21.6697 l 7.2333,-2.015 c 0.7374,4.4632 2.2972,9.6739 4.0116,13.877 1.8005,4.4142 3.2512,6.3899 8.36,4.7244 3.7133,-1.2106 4.5286,-2.8516 4.1095,-6.7468 -0.2584,-2.4018 -3.3213,-11.2134 -4.3997,-13.6838 -0.3927,-0.8996 -1.2223,-1.2464 -1.2264,-2.1856 l 7.6337,-2.0093 z" style="fill:#ffffff" id="path12"/><path d="m 270.8468,291.9109 4.0743,4.3807 c -8.3869,1.9471 -19.2533,7.916 -11.2426,17.4763 6.3821,7.6166 15.8152,-0.8495 18.08,-7.8255 l 3.9498,4.144 c -6.1139,10.1044 -19.5344,19.4469 -28.403,6.4375 -8.0026,-11.7392 3.3588,-20.6213 13.5414,-24.6129 z" style="fill:#ffffff" id="path13"/><path d="m 421.6169,251.6859 -2.7813,20.6387 -0.0941,0.6392 c 7.305,0.4832 13.9278,1.5633 18.1457,0.423 l -1.9344,6.4083 L 410.7671,277 c 0.7212,-1.1716 0.946,-2.5295 1.1558,-3.8642 0.8589,-5.4657 1.5782,-12.1076 2.0553,-17.6383 0.1309,-1.5168 0.1965,-3.0654 0.006,-4.616 z" style="fill:#ffffff" id="path14"/><path d="m 289.3885,279.8159 0.1842,1.9309 9.0635,16.3864 0.8029,0.0117 c 4.8513,-3.2129 11.2905,-4.5207 14.6705,-9.4837 l 1.7866,6.3962 -21.6812,11.2839 c 0.1242,-0.9818 -1.0836,-3.53 -1.4589,-4.4134 -2.7287,-6.4239 -6.5944,-12.6203 -8.982,-16.6566 -0.2506,-0.4236 -1.1118,-1.4424 -1.6184,-1.4439 -0.4269,-0.5775 6.9433,-4.3157 7.2327,-4.0116 z" style="fill:#ffffff" id="path15"/></g><g id="g19"><path d="m 362.2248,702.0313 c 1.3375,0.9411 4.0993,2.7882 4.9648,3.0698 4.7418,1.5426 10.034,0.6697 10.4224,-4.8829 -8.0394,3.7276 -18.689,-0.9113 -14.7414,-11.1242 3.1906,-8.2545 20.479,-6.105 21.8282,3.273 2.1222,14.7507 -7.5394,22.6138 -21.4604,16.5928 -1.5731,-0.6804 -2.6054,-1.3574 -2.6054,-1.3574 0,0 1.2996,-3.1141 1.5918,-5.5711 z m 15.0794,-11.7614 c -1.3332,-1.4441 -6.9036,-1.9378 -8.0355,0.3973 -2.9797,6.1474 6.395,8.2329 8.2251,4.6119 0.6801,-1.3457 0.8892,-3.8406 -0.1897,-5.0092 z" style="fill:#ffffff" id="path16"/><path d="m 415.9919,685.7469 c -0.6518,5.2416 -0.2538,10.2348 -0.0264,16.6587 0,0 4.1878,0.0189 5.1921,-0.2842 0.482,-0.1455 1.2623,-0.6983 1.2623,-0.6983 l -0.5991,5.9094 -5.3816,0.0568 0.3565,4.0799 h -6.6315 c -0.1068,0 -0.1299,0.07 -0.6605,0.0132 l 0.0593,-3.632 -15.9579,0.3206 12.734,-22.2466 c 0.5306,-0.1516 2.3906,-0.1774 2.6193,-0.1774 h 7.0334 z m -6.4977,17.1656 c -0.199,-4.0647 -0.2481,-5.815 -0.3553,-8.712 -0.018,-0.4853 -0.0142,-1.4781 -0.1137,-1.8902 0,0 -2.4966,5.7843 -5.6138,10.6591 1.8949,0.1848 6.0828,-0.0568 6.0828,-0.0568 z" style="fill:#ffffff" id="path17"/><path d="m 450.1448,680.0608 c 0.2204,5.2774 1.4352,10.1368 2.7175,16.4355 0,0 4.1338,-0.671 5.0744,-1.1355 0.4515,-0.2229 1.1301,-0.8966 1.1301,-0.8966 l 0.3823,5.9274 -5.2988,0.9424 1.0236,3.9655 -6.541,1.0922 c -0.1053,0.0176 -0.1166,0.0905 -0.6493,0.1218 l -0.5397,-3.5922 -15.6872,2.9444 8.8963,-24.04 c 0.4984,-0.2369 2.3288,-0.5687 2.5543,-0.6063 l 6.9374,-1.1583 z m -3.5819,18.0012 c -0.8657,-3.9764 -1.2024,-5.6948 -1.7852,-8.5345 -0.0976,-0.4757 -0.2574,-1.4555 -0.4234,-1.8457 0,0 -1.5099,6.1165 -3.7817,11.4381 1.8995,-0.1298 5.9904,-1.0578 5.9904,-1.0578 z" style="fill:#ffffff" id="path18"/><path d="m 353.6028,680.5995 -5.9384,25.6434 -7.6333,-2.0124 c 0.4095,-0.6805 0.8797,-1.086 1.1029,-1.9067 1.2696,-4.6697 3.4299,-12.2874 4.1196,-16.3873 0.0552,-0.3284 0.0157,-0.6646 0.003,-0.9931 l -4.0192,-0.002 1.221,-5.2147 c 3.5805,0.803 7.4757,0.9984 11.1439,0.8733 z" style="fill:#ffffff" id="path19"/></g><circle cx="183.8443" cy="482.57309" r="8.5271997" style="fill:#9e7844" id="circle19"/><circle cx="616.08557" cy="482.57309" r="8.5271997" style="fill:#9e7844" id="circle20"/><g id="g22"><path d="m 508.0294,400.3904 h 6.0287 c 0.471,4.9793 4.3931,8.5027 8.8505,10.2402 l 5.8237,1.4176 c -6.0064,4.6462 -13.4291,8.486 -20.9757,4.8924 l -6.5596,-4.8948 v 11.2535 c -4.0827,-0.1588 -9.706,-2.0132 -11.5471,-5.936 -1.9454,-4.1451 0.0945,-8.1444 0.6382,-12.4082 1.2715,-9.9713 -1.031,-15.6078 -12.1943,-14.6061 -11.0385,0.9904 -14.0599,9.4242 -11.4573,19.2863 l 6.8265,-2.8123 c -0.1553,3.518 -0.3916,6.7183 0.007,10.2424 1.0864,9.6161 6.5101,21.5882 13.0519,28.7467 0.4625,0.5061 2.9511,3.223 3.4191,2.8068 l 4.0178,-11.2505 c 1.0623,4.2378 1.8917,9.1961 3.4292,13.2521 1.4298,3.7719 3.7045,7.314 5.124,11.3544 6.5775,18.7227 11.5796,59.1884 -19.9534,53.3119 -15.5035,-2.8892 -12.9938,-16.7064 -21.9498,-24.6718 -3.0418,-2.7053 -7.415,-4.0143 -10.828,-1.1616 0.2689,1.4265 1.5271,2.1146 2.2051,3.3539 6.323,11.5584 3.4415,25.0722 8.4315,36.5825 1.0417,2.4028 3.5684,6.2847 6.198,7.065 6.7433,2.0012 15.1528,-3.326 18.9075,-8.6587 v 6.6315 c 0,0.0917 -0.3037,0.219 -0.3144,0.403 l 0.2917,0.4111 c 9.3124,0.794 14.4014,10.4116 15.6972,18.6785 h -6.0287 v 17.0812 c 0,0.4407 -0.5984,0.9447 -0.0286,1.6139 2.3567,1.9113 11.684,6.9521 11.684,10.0415 v 6.2296 l -4.6111,-2.7866 -7.0261,2.1782 c 1.3865,2.1858 0.3732,6.5486 -1.2171,8.4525 -2.0446,2.4477 -5.841,3.075 -8.447,4.4142 v 5.8277 c -5.3942,-1.5383 -10.1798,-4.5788 -11.2592,-10.4486 -0.7061,-0.5319 -1.5159,1.6391 -2.0151,2.2001 -2.4068,2.705 -5.0654,4.344 -8.8331,4.2277 l 3e-4,3.617 c -4.5348,-1.3138 -3.9685,-7.1116 -3.6131,-10.8514 l -6.1533,-0.0755 -1.678,-1.9265 -5.8316,4.0133 c -0.1251,-1.676 0.0762,-5.9526 1.307,-7.1282 0.4096,-0.3912 1.3488,-0.3425 1.7018,-0.9115 0.9836,-1.5855 0.1514,-3.8657 2.5994,-6.2425 2.6746,-2.5967 4.7255,-2.1819 7.659,-3.1926 1.5866,-0.5467 3.217,-1.8521 4.7298,-2.5046 3.1924,-1.3769 9.7367,-2.8071 9.7332,-7.1463 -6e-4,-0.7575 -0.4119,-1.5404 -0.4225,-2.3987 -0.0338,-2.7497 0.0619,-5.5096 0.0194,-8.2555 -8.3127,-0.2014 -18.7961,1.0802 -25.1206,-5.2288 -1.3603,0.8428 0.1441,6.0737 -0.203,6.4328 -3.4272,-0.093 -5.1318,-3.4026 -6.6337,-6.031 -1.0115,-0.005 -3.962,6.161 -6.2255,6.0331 v -7.4353 c 0,-1.2051 -10.5933,-18.0782 -12.1265,-20.8301 -7.8359,-14.0647 -7.3329,-20.8859 -25.1648,-25.8778 -15.2094,-4.2577 -32.2412,-2.9063 -43.3489,-16.5505 l -10.1875,7.5937 c 0.1298,-2.8375 0.2183,-7.733 -3.6194,-7.6373 0.312,5.5421 -0.7352,12.2254 -5.432,15.6718 l -3.4901,-8.3556 -12.3808,-0.0767 c 2.6742,6.8924 2.4868,16.8996 -5.6269,19.6897 v -9.2439 l -3.8257,0.3943 c -1.2176,5.238 -9.5538,4.1929 -13.5754,2.8797 l -5.7087,6.3639 c -4.3748,-5.7002 3.1084,-10.6168 0.9498,-16.4163 -3.7257,0.0338 -6.8947,-1.2601 -9.7172,-3.609 l -8.3117,3.9548 c -0.7471,-6.6968 4.2714,-10.3245 9.6228,-12.8927 l -3.5963,-6.7989 h -8.842 c 2.0619,-3.0853 6.1754,-2.9756 8.9362,-4.1259 4.6825,-1.9511 5.5659,-2.8774 11.3565,-2.3008 4.0745,0.4057 7.1042,3.5982 9.2559,4.0071 2.9452,0.5598 7.6078,-0.318 10.752,-0.0834 l 35.4578,-19.4629 9.8465,6.6912 -7.2216,-13.0838 c -4.9786,1.9393 -9.9629,3.7474 -15.4488,3.0026 -1.2989,-0.1763 -4.1418,-1.4889 -4.2269,-2.9522 -0.1,-1.7189 3.1477,-8.417 2.3787,-9.4715 -4.4877,3.3631 -9.8502,6.4637 -15.6704,6.0286 v -13.0621 l -6.6362,-9.0403 -2.4023,3.2169 c -2.2086,2.7732 -5.6062,3.7996 -9.0728,3.0357 l -0.3784,-9.8731 c -10.1334,2.1716 -12.652,-5.7566 -13.7047,-14.0233 l -4.7793,-0.0471 4.8283,-4.6105 c 2.7578,-0.8697 6.3225,0.9052 8.4257,-1.2205 2.5583,-2.5858 0.009,-5.8975 0.2093,-9.0565 -3.9608,-1.0876 -7.8738,-3.0539 -9.8481,-6.8115 h 13.0621 l 0.6029,-0.6029 v -15.8755 c 2.5245,0.3884 4.7059,2.0606 6.2029,4.0458 0.8001,1.0611 1.7744,3.7051 2.4516,4.3809 1.0598,1.0575 3.0082,1.4911 4.379,3.2573 3.3716,4.344 1.892,8.0464 2.7345,12.5381 2.473,13.1841 14.6755,20.2011 21.3057,30.5407 1.4697,2.2919 1.756,5.4621 2.8333,8.0183 3.5305,8.3764 13.6586,15.3909 22.9668,13.9587 3.4107,-0.5248 7.9611,-4.5075 10.9668,-5.1097 1.0759,-0.2156 2.1449,0.0648 3.1208,-0.0945 2.348,-0.3834 4.6715,-0.9492 7.0379,-1.1972 l -3.6152,8.4339 12.4533,-2.4091 -1.6022,14.4659 c 1.0531,0.9559 11.9858,-6.9494 12.4557,-6.4259 2.3758,11.0189 15.3157,16.9444 25.5778,18.4316 2.2332,0.3236 6.7736,0.0823 8.3039,0.5382 1.3512,0.4025 6.2683,5.9753 7.4037,6.2917 1.5882,0.4426 2.2299,-1.388 3.3545,-2.128 4.7066,-3.0969 10.717,-4.1333 16.0453,-2.0296 8.9726,3.5424 7.5043,11.6748 11.4921,18.6512 5.1041,8.9294 18.5895,19.3601 21.7622,2.9366 1.9911,-10.307 -3.7798,-18.5778 -10.7417,-25.4115 h 12.0573 c -9.335,-18.5631 -22.1451,-36.4917 -39.7881,-47.8324 0.8271,-1.6849 7.615,-3.1981 7.6363,-4.5997 0.009,-0.5677 -3.8683,-8.7104 -4.4371,-10.452 -3.4963,-10.7052 -5.0153,-24.7414 7.5397,-29.8679 8.3654,-3.4158 19.4239,-4.0381 27.7153,-0.1622 0.8588,0.4015 6.2806,4.3564 6.5586,4.088 -3.5294,-12.0924 -15.6771,-15.5365 -26.9277,-12.0572 6.4012,-7.6564 15.4546,-10.062 24.834,-6.1415 12.709,5.3122 12.4129,22.2404 9.3282,33.4753 z" style="fill:#9e7844" id="path20"/><path d="m 434.8814,372.2523 -8.2371,0.8067 -0.2001,0.7977 c 2.8518,1.7808 5.3663,4.9678 7.1547,7.9219 2.2175,3.6627 3.9926,8.0273 4.902,12.1795 -2.5864,0.3565 -5.2565,0.4208 -7.8369,0.8145 -0.3907,0.0596 -0.886,-0.146 -0.6006,0.5872 0.4248,1.0911 3.0921,3.95 3.9383,5.3077 2.0738,3.3271 4.2494,7.9022 5.1817,11.6985 0.5523,2.2488 0.5464,5.7704 1.2342,7.6079 0.9244,2.4698 4.7363,5.9367 5.7131,8.3558 0.2837,0.7025 -0.1962,0.541 -0.5904,0.5965 -1.6831,0.237 -3.4787,-0.1812 -5.0279,-0.8038 l 4.4154,15.27 c -0.5245,0.4709 -5.2457,-1.5342 -5.8281,-2.4069 0.081,6.6502 4.9705,12.3217 9.4469,16.8741 -5.463,-0.3592 -10.3038,-2.3448 -14.4736,-5.8188 -2.1108,-1.7586 -3.7501,-4.0805 -5.6291,-6.0262 -0.3046,-0.3154 -0.8074,-1.0604 -1.2047,-0.4034 0.7289,7.1481 4.5761,13.4043 8.5207,19.2114 l 6.3524,8.3131 c -8.7671,-0.7639 -17.9113,-1.0138 -26.1073,-4.6346 -9.4291,-4.1655 -14.5544,-12.77 -11.6701,-23.0942 -0.6956,-0.1813 -0.8036,0.2859 -1.207,0.5977 -3.4141,2.639 -6.0329,7.2672 -9.639,9.8494 l 0.3939,-12.057 -10.0434,2.4076 4.4184,-10.0422 c -2.7407,0.8482 -5.148,2.3265 -7.9473,3.1012 -8.045,2.2263 -16.1302,1.5672 -22.5939,-4.1096 4.6915,-0.754 9.4893,-1.3566 13.8142,-3.4644 0.4661,-0.2271 3.3316,-1.8176 3.4631,-1.9672 0.6196,-0.7044 -0.1351,-0.6718 -0.5844,-0.8048 -4.0804,-1.2078 -5.4585,-2.5902 -6.6468,-6.82 5.7487,0.6874 11.4737,0.2915 15.4849,-4.4355 l -0.1713,-4.3705 c 5.1371,-0.8761 9.6212,-3.536 13.8273,-6.4679 l 0.6024,4.8183 c 5.8786,-2.4956 6.7979,-9.7759 5.9845,-15.4293 -0.2238,-1.5552 -0.8122,-4.4198 -1.9635,-5.468 -0.1893,4.0301 -0.6536,8.1172 -3.422,11.2516 -0.9454,-1.7793 -0.4162,-3.817 -0.7028,-5.7278 -0.0529,-0.3527 -0.1753,-1.2104 -0.698,-1.1009 0.1997,2.7489 -1.5663,6.4426 -3.6524,8.206 -8.0926,6.8405 -23.8028,1.7476 -27.8997,13.8953 -1.1254,-2.3382 -4.8816,-6.8625 -5.3384,-9.1304 -0.7169,-3.5595 -0.0578,-6.7026 0.7191,-10.157 l 3.3469,4.3814 c 3.3385,-3.3841 8.087,-2.1161 11.8947,-4.2094 1.9537,-1.0741 5.7046,-4.4748 3.3515,-6.6252 -3.3394,-3.0518 -17.2771,-1.2323 -21.6371,0.3969 -0.6339,0.9348 0.1471,4.8742 -1.3772,5.6515 -0.304,-2.3606 -2.8723,-4.6013 -3.4326,-6.82 -0.4409,-1.7457 0.0463,-3.6459 -0.5936,-5.4312 l 4.8217,-6.2361 -5.7734,1.576 c -1.2407,-0.3547 -0.2247,-3.8408 -1.0656,-4.9577 6.1526,-4.5696 13.3672,-6.3714 20.9055,-7.2734 1.333,-1.3739 1.5878,-6.2133 3.1069,-6.9409 1.4625,-0.7005 8.3511,-1.493 10.3653,-1.692 16.8916,-1.6689 38.2343,-0.9177 50.4357,12.451 z m -28.9393,-8.4336 c -3.3736,0.6876 -7.3175,0.8269 -10.6093,1.6448 -0.4736,0.1177 -0.9662,0.1498 -1.044,0.7605 6.746,0.5551 12.2565,6.4564 15.5961,11.9387 1.3364,2.1938 3.7389,6.8143 4.4934,9.1736 0.0838,0.262 0.0801,0.6808 -0.1925,0.5923 l -7.8359,-4.4183 c 1.1139,2.4709 2.8395,4.6891 3.807,7.2415 1.1283,2.9767 1.6815,5.78 1.3645,8.9865 l -1.7612,6.2769 c 3.8887,-4.308 6.2068,-10.5457 3.4184,-16.0704 l 4.8208,2.0042 c 0.4096,-10.6319 -6.3478,-19.4517 -14.4565,-25.5201 l 2.3992,-2.6101 z m -29.1365,7.6342 c 3.9287,-0.2147 7.9255,0.1583 11.8564,0 l -0.6084,-4.0253 -12.6553,3.6275 c -0.2166,1.6077 0.9768,0.4214 1.4074,0.3979 z" style="fill:#9e7844" id="path21"/><path d="m 344.4518,537.04 c 0.5878,-6.0905 3.0315,-11.8716 8.4383,-15.0735 -3.3321,-0.7524 -5.6834,-2.3018 -6.4286,-5.8236 7.3477,-1.2262 14.6532,-4.2707 21.4539,-7.2849 1.5926,-0.7059 4.6186,-2.8042 6.1798,-3.096 1.8371,-0.3434 10.5614,1.2832 12.8957,1.801 6.4182,1.4237 16.8389,4.7857 21.5844,9.3627 4.0833,3.9383 6.7257,10.8458 8.4512,16.1109 -10.4669,4.8515 -23.544,7.7805 -34.3891,2.3957 -1.3646,9.414 4.1513,16.897 12.4474,20.6983 -3.2648,3.3455 -8.1002,3.8189 -12.4497,2.6107 0.1669,9.8068 -11.2712,12.9789 -17.6859,18.0878 v -5.6267 l -13.0871,7.6245 c 1.7549,5.2039 7.3055,10.958 3.2384,16.4882 l -2.2726,-4.7552 -6.9158,-0.0121 c -1.0636,1.5165 -1.4648,2.9933 -2.856,4.3784 -3.2301,3.2161 -8.5699,3.8441 -12.8638,2.8094 l -0.4548,0.8182 0.2433,4.3976 c -3.2433,-1.3145 -4.3722,-5.4237 -3.9833,-8.6078 0.1401,-1.147 1.004,-2.1849 0.7499,-3.4264 -1.1098,0.2369 -2.0089,-1.001 -2.6867,-1.1526 -0.7832,-0.1752 -5.1712,1.7182 -6.7798,1.892 -1.4418,0.1558 -3.7446,-0.3351 -4.6305,-0.1485 -1.2843,0.2706 -5.9251,4.2801 -7.1509,2.5629 0.064,-4.1354 1.9044,-7.2369 4.7899,-10 -1.136,-0.1266 -4.3555,-3.2227 -5.024,-3.2227 h -9.4449 c 0.2557,-3.328 2.4622,-4.9729 5.2976,-6.1569 0.71,-0.2965 1.6697,-0.1393 2.3318,-0.4816 0.6866,-0.3549 2.6455,-3.3328 4.4155,-4.4265 6.3874,-3.9472 15.4451,-1.4438 22.624,-2.2945 l 23.8292,-15.9582 0.565,-1.3689 -2.3936,-13.1218 h -8.0382 z" style="fill:#9e7844" id="path22"/></g><g id="g29"><rect x="283.50931" y="216.40021" width="22.908899" height="22.908899" rx="11.4544" ry="11.4544" style="fill:#187b56" id="rect22"/><rect x="387.64099" y="190.0762" width="25.7223" height="25.7223" rx="12.8611" ry="12.8611" style="fill:#187b56" id="rect23"/><rect x="384.3623" y="145.45309" width="32.152802" height="32.152802" rx="16.076401" ry="16.076401" style="fill:#187b56" id="rect24"/><rect x="317.38379" y="198.1216" width="18.4879" height="18.4879" rx="9.2439003" ry="9.2439003" style="fill:#187b56" id="rect25"/><rect x="350.88641" y="184.1749" width="18.4879" height="18.4879" rx="9.2439003" ry="9.2439003" style="fill:#187b56" id="rect26"/><rect x="493.84821" y="216.40021" width="22.908899" height="22.908899" rx="11.4544" ry="11.4544" transform="rotate(180,505.3026,227.85465)" style="fill:#187b56" id="rect27"/><rect x="430.89209" y="184.1749" width="18.4879" height="18.4879" rx="9.2439003" ry="9.2439003" transform="rotate(180,440.13605,193.4188)" style="fill:#187b56" id="rect28"/><rect x="464.39471" y="198.1216" width="18.4879" height="18.4879" rx="9.2439003" ry="9.2439003" style="fill:#187b56" id="rect29"/></g></g></g></g></svg>