<?xml version="1.0" encoding="utf-8"?>
<!-- Generator: Adobe Illustrator 23.0.0, SVG Export Plug-In . SVG Version: 6.00 Build 0)  -->
<svg version="1.1" id="Capa_1" xmlns="http://www.w3.org/2000/svg" xmlns:xlink="http://www.w3.org/1999/xlink" x="0px" y="0px"
	 width="100px" height="100px" viewBox="0 0 100 100" style="enable-background:new 0 0 100 100;" xml:space="preserve">
<style type="text/css">
	.st0{fill:#FFFFFF;}
	.st1{fill:#00603E;}
	.st2{fill:#D53741;}
	.st3{fill:#09154C;}
	.st4{fill:#000001;}
</style>
<g>
	<path class="st0" d="M99.4,50c0,27.3-22.1,49.4-49.4,49.4S0.6,77.3,0.6,50S22.7,0.6,50,0.6C77.3,0.6,99.4,22.7,99.4,50"/>
	<path class="st1" d="M13.4,50.2c0-0.5,0.1-1,0.1-1.5H2.1c0,0.5-0.1,1-0.1,1.5C2,67.1,10.8,82,24.1,90.5l6.6-9.3
		C20.3,74.7,13.4,63.3,13.4,50.2"/>
	<path class="st2" d="M98,50.2c0-0.5-0.1-1-0.1-1.5H86.5c0,0.5,0.1,1,0.1,1.5c0,12.9-6.7,24.3-16.8,30.8L75,91.2
		C88.7,82.7,98,67.6,98,50.2"/>
	<path class="st0" d="M50,86.8c-7.1,0-13.7-2.1-19.3-5.6l-6.6,9.3c7.5,4.8,16.3,7.6,25.9,7.6c9.1,0,17.7-2.6,24.9-7l-5.2-10.2
		C64,84.6,57.3,86.8,50,86.8"/>
	<path class="st3" d="M50,13.6c19.7,0,35.7,15.6,36.5,35.1h11.4C97.1,22.9,76,2.3,50,2.3S2.9,23,2.1,48.8h11.4
		C14.3,29.2,30.3,13.6,50,13.6"/>
	<path class="st0" d="M7.6,41.3c-1-0.2-1.4-0.2-1.5,0.4c-0.1,0.6,0.5,0.8,2.2,1.1c2,0.4,2.5,0.4,2.6-0.2c0.1-0.6-0.5-0.8-1.6-1
		l0.3-1.5h0.2c1.4,0.3,2.4,0.9,2.1,2.8c-0.4,2-1.9,1.9-3.9,1.5c-1.7-0.3-3.4-0.7-3-3c0.3-1.4,1-2,2.6-1.7l0.3,0.1L7.6,41.3z"/>
	<polygon class="st0" points="7.3,33.8 7.9,32.4 13,34.5 13.9,32.4 15.1,32.9 13.5,36.5 	"/>
	<path class="st0" d="M17.8,24.5c1.1,0.8,1.7,1.7,0.6,3.2s-2.1,1.2-3.2,0.4l-3.7-2.6l0.9-1.3l4.1,2.9c0.4,0.3,0.8,0.3,1.1,0
		c0.2-0.3,0.1-0.7-0.3-1l-4.1-2.9l0.9-1.3L17.8,24.5z"/>
	<path class="st0" d="M18.1,17.4l1.9-1.6c0.9-0.8,1.8-0.9,2.6,0c0.5,0.6,0.6,1.3,0.2,1.9l0,0c0.4-0.3,1.1-0.6,2.1,0.4
		c0.5,0.6,1,1.6-0.4,2.9l-1.9,1.5L18.1,17.4z M21.1,18.4l0.3-0.3c0.4-0.4,0.4-0.8,0.1-1.1c-0.2-0.3-0.6-0.4-1.1,0l-0.3,0.3
		L21.1,18.4z M23,20.6l0.4-0.3c0.5-0.4,0.4-0.9,0.1-1.2c-0.5-0.6-1-0.6-1.3-0.2l-0.4,0.3L23,20.6z"/>
	<path class="st0" d="M32.9,7.7l2.2-0.8c1.5-0.5,2.4,0,3.2,2.3s0.9,3.5-1.1,4.2l-2.1,0.7L32.9,7.7z M36.3,12.5l0.4-0.1
		c0.7-0.2,0.8-0.6,0.2-2.5c-0.5-1.6-0.8-1.9-1.6-1.7l-0.4,0.1L36.3,12.5z"/>
	<polygon class="st0" points="43,5 46.9,4.6 47.1,5.8 44.8,6.1 44.9,7.5 47.1,7.2 47.2,8.5 45.1,8.7 45.2,10.3 47.7,10 47.8,11.3 
		43.8,11.7 	"/>
	<path class="st0" d="M52.8,4.5l2.5,0.3C57,5,57.2,6.2,57.1,7.1c-0.1,1.2-0.8,2-2.4,1.8L54,8.8l-0.3,2.7l-1.6-0.2L52.8,4.5z
		 M54.1,7.6h0.4c0.6,0.1,0.8-0.3,0.9-0.8c0.1-0.5-0.1-0.9-0.7-1h-0.4L54.1,7.6z"/>
	<path class="st0" d="M62.8,13.6c-2-0.7-1.8-2.1-1.1-4.1s1.4-3.2,3.4-2.5c2.1,0.7,1.7,2.3,1.1,4.1C65.6,12.8,64.9,14.3,62.8,13.6
		 M63.1,12.6c0.6,0.2,0.9-0.3,1.5-2.1s0.7-2.4,0.1-2.6c-0.6-0.2-0.9,0.3-1.5,2.1C62.7,11.8,62.6,12.4,63.1,12.6"/>
	<path class="st0" d="M72.6,10.5l2.3,1.4c1.1,0.7,1.1,1.7,0.6,2.5s-1.1,1-1.9,0.8l0,0c0.8,0.7,0.5,1.2,0,2c-0.7,1.1-0.7,1.3-0.6,1.5
		v0.1l-1.4-0.9c0-0.3,0.2-0.6,0.6-1.3c0.6-1,0.6-1.3,0.2-1.6l-0.5-0.3l-1.5,2.4l-1.3-0.9L72.6,10.5z M72.5,13.7l0.4,0.3
		c0.5,0.3,0.9,0,1.2-0.3c0.3-0.4,0.3-0.8-0.2-1.2l-0.4-0.3L72.5,13.7z"/>
	<polygon class="st0" points="80.7,18.1 79.7,17.1 80.6,16.2 83.8,19.4 82.9,20.3 81.9,19.3 78,23.2 76.9,22 	"/>
	<rect x="81.5" y="25.4" transform="matrix(0.8228 -0.5683 0.5683 0.8228 0.1559 52.8694)" class="st0" width="6.8" height="1.6"/>
	<polygon class="st0" points="90.9,29.7 91.6,31.3 87.1,34.1 87.1,34.1 92.3,32.8 92.9,34.3 86.1,35.6 85.3,33.8 	"/>
	<path class="st0" d="M88.1,43c-0.4-2.1,0.9-2.6,3-3s3.5-0.4,3.9,1.7c0.4,2.2-1.2,2.7-3,3S88.5,45.2,88.1,43 M89.1,42.8
		c0.1,0.6,0.7,0.6,2.6,0.3c1.8-0.3,2.4-0.5,2.3-1.2c-0.1-0.6-0.7-0.6-2.6-0.3C89.6,42,89,42.2,89.1,42.8"/>
	<polygon class="st0" points="10.5,57.5 10.2,56.1 11.4,55.9 12.3,60.2 11.1,60.5 10.8,59.1 5.4,60.2 5.1,58.7 	"/>
	<path class="st0" d="M13.6,78.1c-1.3-1.7-0.4-2.7,1.3-4s3-1.9,4.3-0.3c1.4,1.8,0.2,2.9-1.3,4C16.4,79,15,79.9,13.6,78.1 M14.5,77.5
		c0.4,0.5,0.9,0.2,2.4-0.9s1.9-1.6,1.5-2.1s-0.9-0.2-2.4,0.9S14.1,77,14.5,77.5"/>
	<path class="st0" d="M81.9,76.4c-0.8-0.6-1.2-0.8-1.5-0.4c-0.4,0.5,0,0.9,1.4,2.1c1.5,1.3,2,1.6,2.4,1.1c0.4-0.4-0.1-0.9-0.9-1.6
		l1-1.2l0.2,0.2c1.1,1,1.7,2,0.4,3.5c-1.3,1.6-2.6,0.7-4.2-0.6c-1.3-1.1-2.6-2.3-1.1-4.1c0.9-1.1,1.9-1.3,3.1-0.2l0.2,0.2L81.9,76.4
		z"/>
	<path class="st0" d="M87.5,60.6l0.5-1.9h7l-0.4,1.6l-1.3-0.1l-0.4,1.6l1.2,0.5l-0.4,1.6L87.5,60.6z M88.9,60L88.9,60l2.8,1.3
		l0.3-1.1L88.9,60z"/>
	<polygon class="st4" points="38.9,87.5 40.5,87.9 39.2,93.3 41.4,93.8 41.1,95.1 37.3,94.1 	"/>
	<path class="st4" d="M61.2,92.3c0.3,1.3,0.1,2.4-1.7,2.8s-2.4-0.6-2.7-1.9l-0.9-4.5l1.6-0.3l1,4.9c0.1,0.5,0.4,0.8,0.8,0.7
		c0.4-0.1,0.6-0.4,0.4-1l-1-4.9l1.6-0.3L61.2,92.3z"/>
	<path class="st2" d="M75.7,60.3c-4,10.4-14.2,17.8-26,17.8c-15.4,0-27.9-12.5-27.9-27.9s12.5-27.9,27.9-27.9
		c11.9,0,22.1,7.5,26.1,18h5.5c-4.2-13.4-16.8-23.2-31.6-23.2c-18.3,0-33.1,14.8-33.1,33.1s14.8,33.1,33.1,33.1
		c14.7,0,27.2-9.6,31.5-23C81.2,60.3,75.7,60.3,75.7,60.3z"/>
	<path class="st2" d="M50.5,26.6v5.5c1.1,0,2.2,0.2,3.3,0.4v35.3v5.6c2.3-0.4,4.5-1.2,6.6-2.2v-6.3V35.5c1.7,1.2,3.2,2.7,4.4,4.5
		h6.1C67.2,32.3,59.5,26.9,50.5,26.6"/>
	<path class="st2" d="M36.6,37.6c1.6-1.7,3.6-3.1,5.7-4.1v32.9c-2.2-1-4.1-2.4-5.7-4.1V37.6z M48.6,29.3c0-1.3-1-2.3-2.3-2.3
		c-0.1,0-0.2,0-0.3,0s-0.1,0-0.2,0c-0.1,0-0.1,0-0.2,0c-7.2,1.3-13.3,5.8-16.6,12c-0.1,0.2-0.1,0.5-0.1,0.7c0,1.3,0.9,2.3,2.1,2.3
		c0.2,0,0.3,0,0.5-0.1v14.4v0.6v1.4c-0.2,0-0.3-0.1-0.5-0.1c-1.2,0-2.1,1-2.1,2.3c0,0.2,0,0.4,0.1,0.6c3.3,6.3,9.4,10.9,16.7,12.1
		c0.1,0,0.2,0,0.2,0H46c0.1,0,0.2,0,0.3,0c1.3,0,2.3-1,2.3-2.3L48.6,29.3L48.6,29.3C48.6,29.3,48.6,29.3,48.6,29.3L48.6,29.3"/>
</g>
</svg>
