<svg version="1.2" xmlns="http://www.w3.org/2000/svg" viewBox="79 130 350 419" width="351" height="420">
	<style>
		tspan { white-space:pre } 
		.s0 { fill: #000000 } 
		.s1 { fill: #ffffff } 
		.s2 { fill: #27416d } 
		.s3 { fill: #d32020 } 
		.s4 { fill: #116332 } 
		.t5 { font-size: 25px;fill: #000100;font-weight: 800;font-family: "Arial" } 
	</style>
	<g id="Layer 1">
		<g id="MAT Logo 1 ">
			<path id="&lt;Path&gt;" class="s0" d="m410.14 326.18c-24.46 83.74-74.42 156.38-148.53 215.91l-4.26 3.43-3.34 2.68-3.35-2.68-4.26-3.43c-74.11-59.52-124.08-132.17-148.54-215.9-20.17-69.11-18.54-129.86-17.56-166.12l0.48-25.1 0.1-5.24h5.24l335.77-0.01h5.23l0.11 5.23 0.47 25.08c0.98 36.3 2.62 97.04-17.56 166.15z"/>
			<g id="White solid 1">
				<path id="&lt;Path&gt;" fill-rule="evenodd" class="s1" d="m422.37 160.17l-0.48-25.12-335.77 0.02-0.49 25.1c-1.94 72.04-6.48 240.74 164.11 377.76l4.27 3.43 4.26-3.43c170.59-137.02 166.04-305.72 164.1-377.76z"/>
			</g>
			<path id="Black solid 2" class="s0" d="m383.49 207.85c-0.39 17.47-2.28 45-9.09 76.96-7.65 35.94-19.83 70.05-36.2 101.39-20.48 39.2-47.6 74.13-80.61 103.82l-3.59 3.22-3.58-3.22c-33.01-29.69-60.14-64.62-80.61-103.82-16.37-31.34-28.56-65.45-36.21-101.39-6.81-31.96-8.7-59.49-9.09-76.96-0.42-19.03 0.77-30.38 0.82-30.85l0.51-4.79h256.32l0.51 4.79c0.06 0.47 1.24 11.82 0.82 30.85z"/>
			<path id="White solid 2" class="s1" d="m254 486.03c-46.28-41.62-75.51-88.71-93.89-133.33l4.39-3.47 207.97-164.4 5.14-4.05c1.76 24.72 7.85 187.02-123.61 305.25z"/>
			<g id="white solid 3">
				<path id="&lt;Compound Path&gt;" class="s1" d="m373.02 177.57l-6.78 5.36-203.81 161.11-4.41 3.48c-35.84-90.76-27.36-169.95-27.36-169.95 0 0 117.47 0 123.34 0z"/>
			</g>
			<path id="blue solid" class="s2" d="m361.45 181.59l-106.89 84.5-14.34 11.33-3.39 2.68-6.77 5.35-2.63 2.08-5.94 4.7-2.68 2.12-3.16 2.49-2.69 2.13-10.49 8.29-2.68 2.12-4.58 3.62-2.68 2.12-32.6 25.76-0.12 0.11c-4.77-12.59-8.92-25.57-12.43-38.81q-0.34-1.32-0.68-2.64-1.27-4.9-2.4-9.84-0.9-3.84-1.71-7.71c-3.72-17.66-6.3-35.68-7.66-53.56-1.76-22.95-1.03-39.82-0.56-46.84z"/>
			<g id="Mosque">
				<g id="&lt;Group&gt;">
					<path id="&lt;Path&gt;" class="s1" d="m175.16 207.43c-2.41-0.63-6.71-1.31-11.51-0.01 0.28-3.12 0.84-6.55 1.66-9.36 0.99-3.41 2.37-5.94 4.09-5.94 3.13 0 5.14 8.4 5.76 15.31z"/>
					<path id="&lt;Path&gt;" class="s1" d="m183.67 222.12h-28.6c0.12-2.54 1.1-8.47 7.64-11.59 5.54-2.08 10.73-0.85 12.64-0.26v0.05l0.91 0.27c0.29 0.08 6.83 2.14 7.41 11.53z"/>
					<path id="&lt;Compound Path&gt;" class="s1" d="m183.7 224.8h-28.61v56.91l24.12-11.41c0.15-9.56 2.87-15.8 4.5-18.7zm-6.4 36.44h-15.8v-23.72l0.23-0.34c0.13-0.19 3.17-4.61 7.63-4.7h0.15c2.71 0 5.24 1.56 7.53 4.66l0.26 0.35z"/>
					<path id="&lt;Compound Path&gt;" class="s1" d="m147.35 302.29c3.5 13.24 7.66 26.22 12.42 38.82l0.13-0.11 32.6-25.77v-34.24zm22.99 20.24l-14.01 6.47v-21.77l0.08-0.21c1.3-3.63 3.28-5.95 5.9-6.9 3.72-1.36 7.25 0.66 7.39 0.75l0.64 0.38zm17.09-7.6l-14.01 6.47v-21.76l0.08-0.21c1.29-3.63 3.27-5.95 5.9-6.91 3.72-1.35 7.24 0.67 7.39 0.76l0.64 0.37z"/>
					<path id="&lt;Path&gt;" class="s1" d="m167.75 302.81v18.06l-8.82 4.07v-17.25q1.53-4.11 4.24-5.13c1.81-0.66 3.64-0.13 4.58 0.25z"/>
					<path id="&lt;Path&gt;" class="s1" d="m184.84 295.23v18.05l-8.82 4.08v-17.26q1.53-4.12 4.24-5.12c1.81-0.67 3.64-0.14 4.58 0.25z"/>
					<path id="&lt;Path&gt;" class="s1" d="m227.4 287.65l-5.95 4.7v-2.26c0.68-0.68 2.43-2.23 4.74-2.45q0.6-0.06 1.21 0.01z"/>
					<path id="&lt;Path&gt;" class="s1" d="m212.93 290.09v9l-10.5 8.29v-17.29c0.75-0.73 2.73-2.41 5.19-2.47 1.81-0.06 3.59 0.78 5.31 2.47z"/>
					<path id="&lt;Path&gt;" class="s1" d="m236.8 280.22l-6.78 5.35q-2.03-0.8-4.11-0.6c-4.09 0.41-6.73 3.62-6.84 3.76l-0.3 0.37v5.37l-3.16 2.49v-7.94l-0.37-0.39c-2.37-2.52-4.96-3.76-7.69-3.69-4.36 0.11-7.35 3.6-7.48 3.75l-0.32 0.37v20.43l-4.58 3.62v-32.89z"/>
					<path id="&lt;Path&gt;" class="s1" d="m238.58 263.52h-45.04l-11.61 5.5q0.13-2.76 0.51-5.08 0-0.01 0-0.02 0-0.01 0.01-0.02c0.47-2.95 1.19-5.38 1.92-7.3 0.81-2.14 1.63-3.63 2.14-4.45q0.04-0.08 0.09-0.14c1.74-2.62 9.39-12.72 23.74-12.72 7.53 0 14.78 3.17 20.4 8.92 4.47 4.57 7.39 10.31 7.84 15.31z"/>
				</g>
				<g id="&lt;Group&gt;">
					<path id="&lt;Path&gt;" fill-rule="evenodd" class="s1" d="m192.5 266.98v11.05l-45.84 21.63q-1.26-4.9-2.4-9.85l10.06-4.77 0.77-0.36 4.52-2.14h0.01z"/>
					<path id="&lt;Path&gt;" fill-rule="evenodd" class="s1" d="m254.52 266.21l-14.33 11.33h-45.02v-11.33z"/>
				</g>
				<g id="&lt;Group&gt;">
					<path id="&lt;Path&gt;" fill-rule="evenodd" class="s1" d="m174.63 238.38v20.17h-10.44v-20.18c0.67-0.84 2.74-3.17 5.24-3.22 1.72-0.05 3.5 1.05 5.2 3.23z"/>
				</g>
			</g>
			<path id="Tree" class="s1" d="m186.25 235.21c-0.33-0.66 12.77-13.87 17.67-20.37q0.01-0.02-0.01-0.02c-0.62 0.2-7.7 2.51-13.44 5.73q-0.03 0.01-0.02-0.02c0.21-0.51 2.71-6 10.82-8.75q0.02-0.01 0-0.03c-0.7-0.16-9.15-2.12-12.83-0.51q-0.03 0.01-0.02-0.02c0.48-0.53 5.29-5.52 14.36-1.72q0.01 0 0.02-0.01c0.03-0.32 0.43-5.92-14.07-5.97q-0.03 0-0.01-0.02c0.62-0.4 8.33-4.97 18.43 2.05q0.02 0.01 0.02-0.02c-0.12-0.57-1.96-7.78-13.39-9.67q-0.02 0-0.01-0.02c0.26-0.31 3.94-4.16 17.68 5.72q0.02 0.01 0.02-0.01c-0.22-0.69-3.12-9.53-4.86-11.48q-0.01-0.02 0.02-0.02c0.7 0.23 9.11 3.11 8.44 11.64q0 0.02 0.03 0.01c0.32-0.28 3.59-3 6.65-3.27q0.01-0.01 0.01-0.01c-0.04 0.14-1.12 5.17-3.76 7.56 0.15-0.49 10.74 0.11 11.62 3.95q0 0.02-0.02 0.02c-0.47-0.1-7.6-1.63-10.04-0.85q-0.02 0.02 0 0.03c0.88 0.37 15.54 6.69 10.2 18.4q-0.01 0.02-0.03 0c-0.22-0.53-3.21-7.45-10.88-13.99q-0.03-0.02-0.03 0.01c0.46 0.93 5.78 11.91 3.41 14.98q-0.01 0.02-0.02 0c-0.27-0.63-6.5-15.34-9.62-14.73q-0.02 0-0.02 0.02c0.52 2.87 1.17 7.92 0.25 12.32-0.15 0.68-0.29 1.17-0.54 1.2-0.93 0.1-2.43-6.44-3.59-12.32q-0.01-0.02-0.03 0c-2.23 3.16-5.25 6.87-9.25 10.6-4.72 4.41-9.37 7.48-13.13 9.59q-0.02 0.01-0.03 0z"/>
			<path id="Crescent" class="s1" d="m288.46 223.32c-2.16 1.21-4.62 1.99-7.25 2.19-9.64 0.73-18.05-6.49-18.78-16.12-0.73-9.64 6.49-18.05 16.12-18.78q1.98-0.15 3.85 0.13c-5.73 3.23-9.39 9.58-8.86 16.57 0.63 8.33 6.99 14.85 14.92 16.01z"/>
			<g id="red rectangles">
				<path id="&lt;Path&gt;" fill-rule="evenodd" class="s3" d="m373.72 188.98v29.36c-1.05 20.84-4.12 48.27-11.86 79.02q-3.08 12.25-6.88 24.16v-117.73z"/>
				<path id="&lt;Path&gt;" fill-rule="evenodd" class="s3" d="m337.37 217.7v148.96q-5.53 11.93-11.86 23.32-3.33 6-6.88 11.85v-169.31z"/>
				<path id="&lt;Path&gt;" fill-rule="evenodd" class="s3" d="m299.43 247.34v182.39q-8.89 11.97-18.76 23.18v-190.74z"/>
				<path id="&lt;Path&gt;" fill-rule="evenodd" class="s3" d="m261.47 276.98v195.68q-4.12 4.03-8.38 7.94-5.29-4.86-10.37-9.89v-178.91z"/>
				<path id="&lt;Path&gt;" fill-rule="evenodd" class="s3" d="m223.5 307.53v141.78q-9.87-11.51-18.71-23.81l0.34-103.45z"/>
				<path id="&lt;Path&gt;" fill-rule="evenodd" class="s3" d="m185.57 337.7v57.7q-10.36-17.92-18.75-37.18v-5.69l0.17-0.14z"/>
			</g>
			<g id="Star">
				<path id="&lt;Path&gt;" class="s1" d="m288.67 387.91c0 19.66-16 35.66-35.66 35.66-19.67 0-35.66-16-35.66-35.66 0-19.66 15.99-35.66 35.66-35.66 19.66 0 35.66 16 35.66 35.66z"/>
				<path id="&lt;Path&gt;" class="s4" d="m284.88 387.91c0 17.57-14.3 31.87-31.87 31.87-17.57 0-31.87-14.3-31.87-31.87 0-17.57 14.3-31.87 31.87-31.87 17.57 0 31.87 14.3 31.87 31.87z"/>
				<g id="&lt;Group&gt;">
					<path id="&lt;Path&gt;" class="s1" d="m281.08 387.91c0 15.51-12.57 28.08-28.07 28.08-15.51 0-28.08-12.57-28.08-28.08 0-15.51 12.57-28.08 28.08-28.08 15.5 0 28.07 12.57 28.07 28.08z"/>
				</g>
				<g id="&lt;Group&gt;">
					<g id="&lt;Group&gt;">
						<path id="&lt;Path&gt;" class="s4" d="m255.73 379l0.01 0.01h-4.21q-0.14 0.01-0.19 0.13l-0.86 2.3c-0.05 0.13 0.05 0.27 0.19 0.27h18.28c0.19 0 0.27 0.24 0.12 0.35l-6.28 4.88q-0.11 0.09-0.07 0.22l0.76 2.32c0.04 0.13 0.2 0.18 0.31 0.1l13.15-10.21c0.15-0.12 0.07-0.36-0.12-0.36h-18.25v-0.01z"/>
					</g>
					<g id="&lt;Group&gt;">
						<path id="&lt;Path&gt;" class="s4" d="m262.42 390.64l-0.69-2.09-1.77-5.33q-0.05-0.13-0.18-0.14l-2.43 0.01c-0.14 0-0.23 0.13-0.19 0.26l2.1 6.33h-0.01l0.41 1.23 3.27 9.88c0.07 0.18-0.15 0.34-0.3 0.22l-5.7-4.21q-0.12-0.08-0.24 0l-1.91 1.44c-0.11 0.08-0.11 0.24 0 0.32l13.07 9.67c0.16 0.12 0.37-0.04 0.31-0.22l-5.74-17.37z"/>
					</g>
					<g id="&lt;Group&gt;">
						<path id="&lt;Path&gt;" class="s4" d="m247.01 387.38l5.65-16.53c0.06-0.18 0.32-0.18 0.38 0l2.2 6.65q0.05 0.13 0.18 0.14h2.42c0.14 0 0.24-0.14 0.19-0.26l-4.95-14.99c-0.06-0.18-0.32-0.18-0.38 0l-8 23.41q-0.04 0.14 0.07 0.23l1.93 1.44c0.11 0.08 0.27 0.04 0.31-0.09z"/>
					</g>
					<g id="&lt;Group&gt;">
						<path id="&lt;Path&gt;" class="s4" d="m257.99 391l-15.46 10.62c-0.16 0.11-0.37-0.05-0.3-0.23l2.81-8.23q0.04-0.14-0.07-0.23l-1.93-1.45c-0.11-0.08-0.27-0.03-0.31 0.1l-5.62 16.45c-0.06 0.18 0.14 0.34 0.3 0.23l21.49-14.88q0.11-0.09 0.07-0.22l-0.68-2.06c-0.04-0.13-0.19-0.18-0.3-0.1z"/>
					</g>
					<g id="&lt;Group&gt;">
						<path id="&lt;Path&gt;" class="s4" d="m252.02 393.46c0.11-0.07 0.11-0.24 0-0.32l-7.57-5.66-0.26-0.19-6.99-5.22c-0.16-0.12-0.08-0.36 0.11-0.36h7.18q0.13-0.01 0.18-0.14l0.76-2.3c0.04-0.12-0.06-0.26-0.19-0.26h-16.04c-0.19 0-0.27 0.25-0.12 0.36l20.67 15.48q0.12 0.08 0.23 0.01z"/>
					</g>
				</g>
			</g>
			<g id="TETUAN">
				<g id="&lt;Group&gt;">
					<path id="&lt;Path&gt;" class="s0" d="m273 510.29c0.03 0.76 0.04 5.89-4.73 8.7-1.11 0.66-2.32 0.99-3.51 0.99-1.05 0-2.09-0.26-3.03-0.78-2.06-1.15-3.31-3.4-3.41-6.17-0.26-7.04-0.17-12.14-0.17-12.18 0.03-1.08 0.94-1.93 2.02-1.91 1.08 0.04 1.93 0.95 1.89 2.04 0 0.04-0.08 5.13 0.17 11.9 0.05 1.38 0.55 2.39 1.39 2.86 0.78 0.43 1.78 0.37 2.67-0.15 2.94-1.73 2.81-5 2.8-5.14v-0.12l0.02-17.81c0.09-1.06 1.02-1.9 2.04-1.85 0.52 0.02 1.02 0.26 1.38 0.67 0.37 0.42 0.55 0.97 0.51 1.53z"/>
				</g>
				<g id="&lt;Group&gt;">
					<path id="&lt;Path&gt;" class="s0" d="m305.51 457.92v21.33c0 0.61-0.31 1.15-0.78 1.48q0 0-0.01 0.01-0.08 0.07-0.17 0.15c-0.36 0.28-0.79 0.42-1.22 0.42-0.59 0-1.16-0.26-1.55-0.75l-5.84-7.41v16.46c0 1.05-0.89 1.9-1.97 1.9-1.09 0-1.98-0.85-1.98-1.9v-21.65q0-0.22 0.05-0.42c-0.01-0.59 0.25-1.18 0.75-1.57 0.36-0.28 0.79-0.42 1.22-0.42 0.58 0 1.16 0.25 1.55 0.75l6.01 7.62v-16c0-1.03 0.88-1.87 1.97-1.87 1.09 0 1.97 0.84 1.97 1.87z"/>
				</g>
				<g id="&lt;Group&gt;">
					<path id="&lt;Compound Path&gt;" class="s0" d="m290.83 493.56l-10.46-12.28c-0.38-0.44-0.94-0.69-1.51-0.69q-0.34 0-0.67 0.12c-0.78 0.29-1.29 1.03-1.29 1.86l0.06 23.35c0 1.08 0.88 1.97 1.97 1.97 1.09-0.01 1.97-0.9 1.97-1.98l-0.01-6.59 5.33-5.09 1.61 1.89c0.71 0.83 1.96 0.93 2.78 0.22 0.83-0.7 0.93-1.95 0.22-2.78zm-7.31-2.51l-2.65 2.65-0.01-5.77z"/>
				</g>
				<g id="&lt;Group&gt;">
					<path id="&lt;Path&gt;" class="s0" d="m249.88 502.83c-0.37 0.48-0.92 0.73-1.48 0.73q-0.61 0.01-1.13-0.38c-0.08-0.06-1.44-1.1-3.32-2.77v16.46c0 1.06-0.83 1.92-1.86 1.92-1.02 0-1.86-0.86-1.86-1.92v-19.76q0-0.07 0.01-0.14c-2.88-2.81-4.26-4.33-4.28-4.35-0.33-0.37-0.51-0.84-0.48-1.34 0.02-0.49 0.24-0.95 0.6-1.29 0.36-0.32 0.8-0.48 1.25-0.48 0.51 0 1.01 0.21 1.38 0.61 0.07 0.08 1.88 2.04 5.55 5.55 2.81 2.67 5.25 4.54 5.27 4.55 0.81 0.63 0.97 1.8 0.35 2.61z"/>
				</g>
				<g id="&lt;Group&gt;">
					<path id="&lt;Path&gt;" class="s0" d="m231.77 507.3c-0.34 0.37-0.8 0.6-1.31 0.63h-0.11c-0.46 0-0.91-0.17-1.26-0.48l-4.19-3.76c-2.48-2.22-4.13-3.95-4.44-4.28q-0.17-0.17-0.27-0.37c-0.42-0.35-0.69-0.88-0.69-1.47v-21.29c0-1.06 0.86-1.92 1.9-1.92 0.48 0 0.94 0.19 1.27 0.5q0.43 0.18 0.73 0.56c0.01 0.02 1.23 1.55 3.92 4.08 2.98 2.8 4.38 4.44 4.4 4.45 0.68 0.79 0.59 2-0.2 2.69-0.35 0.31-0.8 0.46-1.24 0.46-0.53 0-1.06-0.22-1.43-0.65-0.06-0.07-1.43-1.64-4.12-4.17q-0.79-0.75-1.43-1.39v5.77q0.33 0.1 0.62 0.32c0.01 0.01 1.29 1.01 3.11 2.71l3.07 2.75c0.38 0.34 0.61 0.81 0.65 1.33 0.04 0.52-0.13 1.02-0.46 1.39-0.39 0.44-0.91 0.66-1.43 0.66-0.43 0-0.86-0.16-1.21-0.47l-3.21-2.88q-0.62-0.58-1.14-1.04v5.45c0.37 0.38 1.91 1.98 4.13 3.97l4.19 3.76c0.78 0.7 0.84 1.9 0.15 2.69z"/>
				</g>
				<g id="&lt;Group&gt;">
					<path id="&lt;Path&gt;" class="s0" d="m216.42 468.39c0 0.49-0.2 0.96-0.55 1.31-0.36 0.36-0.84 0.55-1.32 0.55-0.47 0-0.95-0.18-1.31-0.54-0.04-0.05-0.97-0.97-2.25-2.44v19.29c0 1.03-0.84 1.86-1.86 1.86-1.03 0-1.86-0.83-1.86-1.86v-23.83q0-0.07 0.02-0.15c-1.9-2.61-2.87-4.2-3.34-4.97l-0.12-0.19q-0.02-0.01-0.07-0.1l-0.02-0.04c-0.12-0.21-0.58-1.13-0.13-2.02 0.45-0.9 1.03-1.1 1.44-1.12 0.72-0.04 1.48 0.53 2.06 1.52 0.49 0.83 1.66 2.69 3.93 5.76 2.33 3.13 4.73 5.55 4.83 5.65 0.35 0.35 0.55 0.82 0.55 1.32z"/>
				</g>
			</g>
			<text id="MOGHREB ATLETICO
" style="transform: matrix(1,0,0,1,102.939,163.264)" >
				<tspan x="0" y="0" class="t5" dx="0 1 1 1 1 1 1 1 1 1 1 1 1 1 1 1 1" >MOGHREB ATLETICO
</tspan>
			</text>
		</g>
	</g>
</svg>