<?xml version="1.0" encoding="UTF-8"?>
<svg xmlns="http://www.w3.org/2000/svg" xmlns:xlink="http://www.w3.org/1999/xlink" width="357.22pt" height="477.29pt" viewBox="0 0 357.22 477.29" version="1.1">
<defs>
<clipPath id="clip1">
  <path d="M 0 0 L 357.21875 0 L 357.21875 477.289063 L 0 477.289063 Z M 0 0 "/>
</clipPath>
</defs>
<g id="surface1">
<g clip-path="url(#clip1)" clip-rule="nonzero">
<path style=" stroke:none;fill-rule:nonzero;fill:rgb(1.599121%,40.79895%,21.998596%);fill-opacity:1;" d="M 171.140625 477.289063 C 171.140625 477.289063 81.960938 423.183594 80.773438 422.460938 C 32.078125 392.820313 16 352.339844 14.207031 347.464844 C -16.144531 270.496094 11.394531 191.078125 12.582031 187.734375 L 12.660156 187.523438 L 13.035156 186.585938 L 13.082031 186.484375 C 39.921875 126.460938 28.839844 91.335938 19.847656 75.738281 C 19.390625 74.945313 19 74.269531 18.609375 73.453125 L 16.808594 69.699219 L 38.683594 49.238281 L 42.308594 51.285156 C 59.214844 60.839844 75.078125 65.679688 89.453125 65.679688 C 138.992188 65.679688 161.757813 6.15625 161.980469 5.558594 L 164.058594 0.00390625 L 193.160156 0.00390625 L 195.207031 5.46875 C 195.433594 6.070313 218.457031 65.679688 267.75 65.679688 C 282.144531 65.679688 298.007813 60.835938 314.910156 51.285156 L 318.53125 49.238281 L 340.410156 69.699219 L 338.609375 73.453125 C 338.21875 74.269531 337.828125 74.945313 337.375 75.734375 C 328.378906 91.335938 317.296875 126.460938 344.136719 186.484375 L 344.222656 186.691406 L 344.597656 187.628906 L 344.636719 187.734375 C 345.824219 191.078125 373.363281 270.496094 343.011719 347.464844 C 341.214844 352.351563 325.160156 392.808594 276.453125 422.457031 C 275.253906 423.183594 186.074219 477.289063 186.074219 477.289063 L 171.140625 477.289063 "/>
</g>
<path style=" stroke:none;fill-rule:nonzero;fill:rgb(100%,100%,100%);fill-opacity:1;" d="M 172.726563 471.621094 C 172.726563 471.621094 84.90625 418.339844 83.71875 417.617188 C 36.632813 388.957031 21.3125 350.390625 19.507813 345.449219 C -10.121094 270.402344 16.765625 192.898438 17.925781 189.632813 L 18.257813 188.800781 C 46.125 126.480469 34.292969 89.4375 24.757813 72.90625 C 24.34375 72.191406 24.019531 71.621094 23.71875 71 L 39.519531 56.222656 C 57.289063 66.261719 74.089844 71.351563 89.453125 71.351563 C 143.257813 71.351563 167.0625 8.160156 167.296875 7.523438 L 167.988281 5.675781 L 189.230469 5.675781 L 189.894531 7.453125 C 190.152344 8.144531 214.226563 71.351563 267.75 71.351563 C 267.757813 71.351563 267.757813 71.351563 267.761719 71.351563 C 283.132813 71.347656 299.933594 66.257813 317.699219 56.222656 L 333.496094 71 C 333.199219 71.621094 332.871094 72.191406 332.460938 72.90625 C 322.925781 89.4375 311.09375 126.480469 338.960938 188.800781 L 339.292969 189.632813 C 340.453125 192.898438 367.339844 270.402344 337.710938 345.449219 C 335.941406 350.300781 320.640625 388.921875 273.503906 417.613281 C 272.3125 418.339844 184.492188 471.621094 184.492188 471.621094 L 172.726563 471.621094 "/>
<path style=" stroke:none;fill-rule:nonzero;fill:rgb(1.599121%,40.79895%,21.998596%);fill-opacity:1;" d="M 177.941406 11.429688 C 177.941406 11.429688 136.609375 124.09375 33.941406 66.09375 C 35.773438 69.90625 65.277344 111.429688 28.609375 193.429688 C 28.609375 193.429688 1.609375 269.429688 30.109375 341.429688 C 30.390625 342.195313 43.609375 379.929688 89.609375 407.929688 C 90.796875 408.652344 178.609375 461.929688 178.609375 461.929688 C 178.609375 461.929688 266.417969 408.652344 267.609375 407.929688 C 313.609375 379.929688 326.828125 342.195313 327.109375 341.429688 C 355.609375 269.429688 328.609375 193.429688 328.609375 193.429688 C 291.941406 111.429688 321.445313 69.90625 323.277344 66.09375 C 220.609375 124.09375 179.277344 11.429688 179.277344 11.429688 L 178.609375 9.648438 L 177.941406 11.429688 "/>
<path style=" stroke:none;fill-rule:nonzero;fill:rgb(100%,100%,100%);fill-opacity:1;" d="M 181.757813 31.695313 L 181.757813 199.164063 L 324.96875 199.164063 L 308.992188 151.230469 C 308.992188 151.230469 297.75 119.273438 310.472656 79.035156 C 308.746094 79.925781 235.015625 120.757813 181.757813 31.695313 "/>
<path style=" stroke:none;fill-rule:nonzero;fill:rgb(100%,100%,100%);fill-opacity:1;" d="M 175.792969 31.695313 L 175.792969 199.164063 L 32.585938 199.164063 L 48.558594 151.230469 C 48.558594 151.230469 59.800781 119.273438 47.078125 79.035156 C 48.804688 79.925781 122.535156 120.757813 175.792969 31.695313 "/>
<path style=" stroke:none;fill-rule:nonzero;fill:rgb(1.599121%,40.79895%,21.998596%);fill-opacity:1;" d="M 162.425781 104.195313 L 158.847656 104.195313 L 152.21875 118.699219 L 146.667969 118.699219 L 140.9375 105.808594 L 138.429688 105.808594 L 135.207031 192.484375 L 164.933594 192.484375 L 162.425781 104.195313 "/>
<path style=" stroke:none;fill-rule:nonzero;fill:rgb(14.498901%,61.199951%,35.699463%);fill-opacity:1;" d="M 148.5 155.34375 L 143.523438 155.34375 L 143.523438 147.421875 L 148.5 147.421875 L 148.5 155.34375 "/>
<path style=" stroke:none;fill-rule:nonzero;fill:rgb(14.498901%,61.199951%,35.699463%);fill-opacity:1;" d="M 156.535156 155.34375 L 151.554688 155.34375 L 151.554688 147.421875 L 156.535156 147.421875 L 156.535156 155.34375 "/>
<path style=" stroke:none;fill-rule:nonzero;fill:rgb(14.498901%,61.199951%,35.699463%);fill-opacity:1;" d="M 138.429688 105.808594 L 135.207031 192.484375 L 115.609375 192.484375 L 119.234375 106.054688 L 122.109375 106.054688 L 128.859375 119.679688 L 132.234375 119.679688 L 135.609375 106.179688 L 138.429688 105.808594 "/>
<path style=" stroke:none;fill-rule:nonzero;fill:rgb(1.599121%,40.79895%,21.998596%);fill-opacity:1;" d="M 57.710938 192.316406 L 60.234375 104.179688 L 62.734375 104.179688 L 68.859375 117.679688 L 72.859375 117.679688 L 79.109375 104.054688 L 82.234375 104.054688 L 82.234375 151.554688 L 92.984375 151.554688 L 93.484375 133.304688 L 95.859375 133.304688 L 96.257813 137.742188 L 99.578125 137.699219 L 100.984375 133.429688 L 102.234375 133.429688 L 102.234375 151.429688 L 117.234375 151.429688 L 115.609375 192.484375 L 57.710938 192.316406 "/>
<path style=" stroke:none;fill-rule:nonzero;fill:rgb(14.498901%,61.199951%,35.699463%);fill-opacity:1;" d="M 70.609375 153.554688 L 65.484375 153.554688 L 65.484375 145.179688 L 70.609375 145.179688 L 70.609375 153.554688 "/>
<path style=" stroke:none;fill-rule:nonzero;fill:rgb(14.498901%,61.199951%,35.699463%);fill-opacity:1;" d="M 77.796875 153.554688 L 72.671875 153.554688 L 72.671875 145.179688 L 77.796875 145.179688 L 77.796875 153.554688 "/>
<path style=" stroke:none;fill-rule:nonzero;fill:rgb(14.498901%,61.199951%,35.699463%);fill-opacity:1;" d="M 93.984375 192.433594 L 93.984375 167.554688 C 93.984375 162.582031 98.011719 158.554688 102.984375 158.554688 L 103.359375 158.554688 C 108.328125 158.554688 112.359375 162.582031 112.359375 167.554688 L 112.359375 192.433594 L 93.984375 192.433594 "/>
<path style=" stroke:none;fill-rule:nonzero;fill:rgb(14.498901%,61.199951%,35.699463%);fill-opacity:1;" d="M 109.605469 133.4375 L 107.710938 133.4375 L 106.804688 137.503906 L 105.578125 137.503906 L 104.472656 133.515625 L 102.234375 133.515625 L 102.234375 151.429688 L 110.632813 151.429688 L 109.605469 133.4375 "/>
<path style=" stroke:none;fill-rule:nonzero;fill:rgb(100%,100%,100%);fill-opacity:1;" d="M 108.617188 146.46875 L 106.527344 146.46875 L 106.527344 142.320313 L 108.617188 142.320313 L 108.617188 146.46875 "/>
<path style=" stroke:none;fill-rule:nonzero;fill:rgb(100%,100%,100%);fill-opacity:1;" d="M 105.695313 146.46875 L 103.605469 146.46875 L 103.605469 142.320313 L 105.695313 142.320313 L 105.695313 146.46875 "/>
<path style=" stroke:none;fill-rule:nonzero;fill:rgb(1.599121%,40.79895%,21.998596%);fill-opacity:1;" d="M 213.367188 170.574219 C 213.65625 151.851563 207.4375 145.917969 207.363281 145.917969 C 204.578125 164.070313 213.367188 170.574219 213.367188 170.574219 "/>
<path style=" stroke:none;fill-rule:nonzero;fill:rgb(1.599121%,40.79895%,21.998596%);fill-opacity:1;" d="M 218.546875 160.367188 C 220.550781 159.429688 219.078125 156.570313 218.996094 156.570313 C 217.730469 153.628906 216.261719 154.445313 216.136719 154.484375 C 212.667969 156.160156 214.054688 158.609375 214.054688 158.609375 C 215.566406 162.816406 218.546875 160.367188 218.546875 160.367188 "/>
<path style=" stroke:none;fill-rule:nonzero;fill:rgb(1.599121%,40.79895%,21.998596%);fill-opacity:1;" d="M 258.734375 154.269531 C 262.0625 152.703125 259.617188 147.949219 259.480469 147.949219 C 257.375 143.054688 254.925781 144.414063 254.722656 144.484375 C 248.949219 147.269531 251.257813 151.347656 251.257813 151.347656 C 253.773438 158.34375 258.734375 154.269531 258.734375 154.269531 "/>
<path style=" stroke:none;fill-rule:nonzero;fill:rgb(1.599121%,40.79895%,21.998596%);fill-opacity:1;" d="M 259.515625 162.585938 C 254.570313 160.605469 253.796875 163.296875 253.699219 163.488281 C 251.574219 169.539063 256.089844 170.796875 256.089844 170.796875 C 262.8125 173.980469 263.449219 167.589844 263.449219 167.589844 C 264.703125 164.132813 259.613281 162.488281 259.515625 162.585938 "/>
<path style=" stroke:none;fill-rule:nonzero;fill:rgb(1.599121%,40.79895%,21.998596%);fill-opacity:1;" d="M 221.300781 155.496094 C 222.445313 148.066406 218.800781 145.847656 218.941406 145.992188 C 216.796875 152.425781 221.300781 155.496094 221.300781 155.496094 "/>
<path style=" stroke:none;fill-rule:nonzero;fill:rgb(1.599121%,40.79895%,21.998596%);fill-opacity:1;" d="M 244.167969 136.699219 C 235.449219 152.066406 246.457031 163.429688 246.457031 163.429688 C 253.460938 145.566406 244.238281 136.773438 244.167969 136.699219 "/>
<path style=" stroke:none;fill-rule:nonzero;fill:rgb(1.599121%,40.79895%,21.998596%);fill-opacity:1;" d="M 233.234375 169.574219 C 233.65625 167.46875 233.925781 165.519531 234.09375 163.699219 C 239 164.003906 243.28125 162.132813 243.238281 161.929688 C 240.355469 159.542969 237.203125 158.277344 234.28125 157.644531 C 233.992188 150.191406 231.8125 146.417969 231.660156 146.417969 C 230.195313 150.023438 229.855469 153.734375 230.054688 157.101563 C 226.246094 156.9375 223.515625 157.640625 223.515625 157.640625 C 225.566406 160.804688 228.265625 162.449219 231.003906 163.199219 C 231.953125 167.023438 233.234375 169.574219 233.234375 169.574219 "/>
<path style=" stroke:none;fill-rule:nonzero;fill:rgb(1.599121%,40.79895%,21.998596%);fill-opacity:1;" d="M 219.296875 165.929688 C 220.300781 172.074219 225.660156 171.359375 225.515625 171.433594 C 224.160156 164.929688 219.296875 165.929688 219.296875 165.929688 "/>
<path style=" stroke:none;fill-rule:nonzero;fill:rgb(1.599121%,40.79895%,21.998596%);fill-opacity:1;" d="M 241.382813 168.429688 C 253.175781 185.867188 261.464844 181.511719 261.464844 181.578125 C 261.894531 170.144531 241.382813 168.429688 241.382813 168.429688 "/>
<path style=" stroke:none;fill-rule:nonzero;fill:rgb(1.599121%,40.79895%,21.998596%);fill-opacity:1;" d="M 223.660156 175.507813 C 223.660156 175.507813 224.800781 187.726563 238.597656 190.65625 C 238.523438 190.730469 240.097656 181.9375 223.660156 175.507813 "/>
<path style=" stroke:none;fill-rule:nonzero;fill:rgb(1.599121%,40.79895%,21.998596%);fill-opacity:1;" d="M 262.894531 156.425781 C 270.542969 166.929688 284.691406 163.5 284.691406 163.359375 C 279.046875 154.140625 262.894531 156.425781 262.894531 156.425781 "/>
<path style=" stroke:none;fill-rule:nonzero;fill:rgb(1.599121%,40.79895%,21.998596%);fill-opacity:1;" d="M 293.75 116.320313 C 290.515625 116.226563 290.171875 116.910156 287.734375 119.050781 C 278.675781 127.96875 278.527344 135.5625 278.941406 138.597656 C 253 166.921875 221.234375 174.035156 213.417969 175.402344 C 219.886719 166.710938 224.421875 154.441406 224.421875 154.304688 C 225.90625 149.15625 227.488281 145.09375 228.992188 141.90625 C 237.074219 144.472656 240.167969 137.382813 240.128906 137.460938 C 235.105469 137.375 231.296875 139.5625 229.511719 140.828125 C 233.046875 133.71875 236.019531 131.476563 236.019531 131.476563 C 250.222656 124.375 250.078125 113.691406 248.476563 113.785156 C 239.15625 112.816406 233.902344 130.476563 233.652344 130.601563 C 231.570313 132.285156 229.71875 135.097656 228.15625 138.167969 C 227.964844 136.632813 227.234375 135.273438 227.160156 135.273438 C 224.945313 130.125 222.371094 131.554688 222.15625 131.628906 C 216.082031 134.558594 218.511719 138.84375 218.511719 138.84375 C 221.15625 146.203125 226.375 141.917969 226.375 141.917969 C 226.398438 141.90625 226.417969 141.890625 226.441406 141.878906 C 224.171875 147.273438 222.816406 152.4375 222.691406 153.023438 C 221.570313 159.503906 214.09375 170.09375 214.09375 170.09375 C 214.09375 170.09375 205.375 180.683594 205.25 180.558594 C 202.261719 182.925781 196.03125 180.683594 196.03125 180.683594 C 196.453125 186.105469 204.9375 182.941406 205.941406 182.59375 C 207.867188 181.523438 209.726563 179.84375 211.476563 177.835938 C 215.476563 177.257813 252.019531 171.183594 280.707031 139.636719 C 287.3125 137.152344 292.714844 124.453125 293.316406 123.328125 C 295.425781 118.492188 293.75 116.386719 293.75 116.320313 "/>
<path style=" stroke:none;fill-rule:nonzero;fill:rgb(100%,100%,100%);fill-opacity:1;" d="M 178.257813 455.417969 L 90.214844 402.011719 C 90.214844 402.011719 26.902344 365.191406 24.261719 299.515625 C 24.261719 300.175781 174.632813 299.515625 174.632813 299.515625 L 181.886719 299.515625 C 181.886719 299.515625 332.257813 300.175781 332.257813 299.515625 C 329.617188 365.191406 266.304688 402.011719 266.304688 402.011719 L 178.257813 455.417969 "/>
<path style=" stroke:none;fill-rule:nonzero;fill:rgb(1.599121%,40.79895%,21.998596%);fill-opacity:1;" d="M 54.609375 302.429688 L 54.609375 371.347656 C 69.410156 388.457031 84.90625 398.714844 89.109375 401.335938 L 89.109375 302.429688 L 54.609375 302.429688 "/>
<path style=" stroke:none;fill-rule:nonzero;fill:rgb(1.599121%,40.79895%,21.998596%);fill-opacity:1;" d="M 125.109375 302.429688 L 125.109375 423.175781 L 159.609375 444.105469 L 159.609375 302.429688 L 125.109375 302.429688 "/>
<path style=" stroke:none;fill-rule:nonzero;fill:rgb(1.599121%,40.79895%,21.998596%);fill-opacity:1;" d="M 195.609375 302.429688 L 195.609375 444.894531 L 230.109375 423.964844 L 230.109375 302.429688 L 195.609375 302.429688 "/>
<path style=" stroke:none;fill-rule:nonzero;fill:rgb(1.599121%,40.79895%,21.998596%);fill-opacity:1;" d="M 300.609375 372.832031 L 300.609375 302.429688 L 266.109375 302.429688 L 266.109375 402.128906 L 266.304688 402.011719 C 266.304688 402.011719 283.683594 391.898438 300.609375 372.832031 "/>
<path style=" stroke:none;fill-rule:nonzero;fill:rgb(90.59906%,90.59906%,90.59906%);fill-opacity:1;" d="M 178.734375 311.902344 C 151.90625 311.902344 130.082031 333.726563 130.082031 360.554688 C 130.082031 387.378906 151.90625 409.203125 178.734375 409.203125 C 205.5625 409.203125 227.386719 387.378906 227.386719 360.554688 C 227.386719 333.726563 205.5625 311.902344 178.734375 311.902344 "/>
<path style=" stroke:none;fill-rule:nonzero;fill:rgb(1.599121%,40.79895%,21.998596%);fill-opacity:1;" d="M 211.78125 363.414063 L 206.371094 353.003906 L 206.132813 339.203125 L 213.1875 335.5 C 218.320313 342.539063 221.359375 351.195313 221.359375 360.554688 C 221.359375 361.613281 221.308594 362.65625 221.230469 363.695313 Z M 191.222656 401.308594 L 186.859375 393.140625 L 193.527344 383.34375 L 204.582031 379.957031 L 211.992188 387.167969 C 206.703125 393.765625 199.496094 398.765625 191.222656 401.308594 Z M 170.726563 392.621094 L 164.089844 381.96875 L 169.679688 373.535156 L 186.59375 373.535156 L 192.613281 382.90625 L 186 392.621094 Z M 144.9375 386.484375 L 152.453125 379.863281 L 163.179688 382.398438 L 169.902344 393.191406 L 166.351563 401.335938 C 157.746094 398.722656 150.296875 393.449219 144.9375 386.484375 Z M 136.109375 360.554688 C 136.109375 351.464844 138.976563 343.035156 143.847656 336.109375 L 150.988281 339.679688 L 150.476563 352.992188 L 144.648438 363.457031 L 136.210938 363.367188 C 136.152344 362.4375 136.109375 361.5 136.109375 360.554688 Z M 178.734375 317.929688 C 183.859375 317.929688 188.777344 318.839844 193.332031 320.503906 L 191.59375 327.863281 L 178.636719 330.964844 L 165.339844 328.117188 L 163.449219 320.773438 C 168.199219 318.941406 173.347656 317.929688 178.734375 317.929688 Z M 179.128906 331.875 L 191.949219 328.808594 L 205.132813 339.085938 L 205.363281 352.742188 L 192.339844 355.964844 L 178.613281 345.988281 Z M 164.082031 355.816406 L 151.5 352.429688 L 151.996094 339.515625 L 164.996094 329.070313 L 178.128906 331.878906 L 177.613281 345.984375 Z M 163.273438 381.394531 L 152.78125 378.914063 L 145.484375 364.015625 L 151.378906 353.429688 L 163.574219 356.714844 L 168.855469 372.96875 Z M 204.339844 378.984375 L 193.429688 382.328125 L 187.382813 372.910156 L 192.570313 356.9375 L 205.609375 353.710938 L 210.941406 363.964844 Z M 178.734375 314.929688 C 153.574219 314.929688 133.109375 335.394531 133.109375 360.554688 C 133.109375 385.710938 153.574219 406.179688 178.734375 406.179688 C 203.890625 406.179688 224.359375 385.710938 224.359375 360.554688 C 224.359375 335.394531 203.890625 314.929688 178.734375 314.929688 "/>
<path style=" stroke:none;fill-rule:nonzero;fill:rgb(77.999878%,78.399658%,79.199219%);fill-opacity:1;" d="M 74.265625 231.066406 C 74.265625 233.3125 73.019531 235.296875 70.53125 237.027344 C 68.042969 238.761719 65.203125 239.628906 62.015625 239.628906 C 59.355469 239.628906 57.273438 238.996094 55.773438 237.738281 C 54.273438 236.480469 53.523438 234.722656 53.523438 232.46875 C 53.523438 230.355469 53.800781 228.515625 54.363281 226.941406 C 55 225.167969 56.242188 222.992188 58.09375 220.414063 L 59.542969 221.332031 C 58.328125 223.035156 57.464844 224.511719 56.953125 225.765625 C 56.4375 227.015625 56.179688 228.261719 56.179688 229.496094 C 56.179688 230.820313 56.707031 231.84375 57.757813 232.566406 C 58.804688 233.285156 60.289063 233.644531 62.203125 233.644531 C 64.941406 233.644531 67.164063 233.148438 68.875 232.160156 C 70.585938 231.171875 71.441406 229.875 71.441406 228.273438 C 71.441406 227.996094 71.441406 227.777344 71.441406 227.617188 C 71.441406 227.460938 71.441406 227.335938 71.441406 227.246094 C 71.441406 226.679688 71.390625 226.054688 71.289063 225.371094 C 71.1875 224.6875 70.929688 223.273438 70.507813 221.136719 C 69.839844 217.6875 69.171875 214.230469 68.503906 210.765625 L 67.335938 209.980469 C 67.335938 208.554688 68.050781 206.371094 69.480469 203.429688 L 70.554688 203.910156 C 70.492188 204.113281 70.460938 204.347656 70.460938 204.609375 C 70.460938 205.191406 70.78125 205.664063 71.417969 206.027344 C 72.367188 206.523438 73.261719 206.996094 74.101563 207.445313 C 73.929688 208.699219 73.761719 209.59375 73.589844 210.132813 C 73.417969 210.671875 73.058594 211.480469 72.515625 212.554688 L 71.816406 212.292969 C 71.816406 212.511719 72.035156 213.753906 72.480469 216.015625 C 72.921875 218.277344 73.300781 220.234375 73.613281 221.878906 C 74.046875 224.234375 74.265625 225.667969 74.265625 226.179688 L 74.265625 231.066406 "/>
<path style=" stroke:none;fill-rule:nonzero;fill:rgb(77.999878%,78.399658%,79.199219%);fill-opacity:1;" d="M 94.078125 220.675781 C 94.078125 221.113281 94.007813 221.519531 93.867188 221.890625 C 93.726563 222.261719 93.472656 222.742188 93.097656 223.339844 C 92.179688 221.402344 91.167969 219.816406 90.066406 218.582031 C 88.960938 217.34375 87.652344 216.355469 86.144531 215.609375 C 86.144531 216.238281 86.066406 216.691406 85.910156 216.976563 C 85.757813 217.261719 85.539063 217.402344 85.257813 217.402344 C 84.792969 217.402344 83.9375 216.988281 82.691406 216.15625 C 81.351563 215.269531 80.390625 214.417969 79.796875 213.605469 C 79.378906 213.035156 79.0625 212.214844 78.851563 211.136719 C 78.644531 210.058594 78.539063 209.179688 78.539063 208.492188 C 78.539063 207.445313 78.832031 206.921875 79.425781 206.921875 C 80.34375 206.921875 81.710938 207.429688 83.53125 208.441406 C 85.351563 209.453125 87.0625 210.664063 88.664063 212.074219 C 92.273438 215.191406 94.078125 218.058594 94.078125 220.675781 "/>
<path style=" stroke:none;fill-rule:nonzero;fill:rgb(77.999878%,78.399658%,79.199219%);fill-opacity:1;" d="M 121.289063 225.304688 C 121.132813 225.304688 120.425781 225.085938 119.164063 224.648438 C 118.746094 224.503906 118.132813 224.285156 117.320313 223.996094 C 117.742188 222.6875 118.257813 222.03125 118.863281 222.03125 C 119.40625 222.03125 120.050781 222.46875 120.800781 223.339844 C 121.46875 224.128906 121.800781 224.679688 121.800781 225 C 121.800781 225.203125 121.632813 225.304688 121.289063 225.304688 Z M 124.320313 220.28125 C 123.15625 218.042969 122.175781 216.921875 121.382813 216.921875 C 120.527344 216.921875 119.484375 217.453125 118.257813 218.515625 C 116.871094 219.710938 115.734375 221.230469 114.847656 223.078125 C 114.445313 224.082031 113.714844 224.789063 112.65625 225.195313 C 111.832031 225.515625 110.71875 225.675781 109.320313 225.675781 L 101.523438 225.675781 C 100.558594 225.675781 99.949219 224.46875 99.703125 222.054688 C 99.5625 219.214844 99.429688 216.375 99.304688 213.539063 C 99.085938 209.523438 98.574219 206.269531 97.765625 203.777344 C 95.960938 206.808594 95.058594 208.816406 95.058594 209.804688 C 95.292969 211.070313 95.523438 212.34375 95.746094 213.625 C 95.972656 214.90625 96.085938 216.222656 96.085938 217.574219 C 96.085938 219.832031 95.5625 221.738281 94.523438 223.296875 C 93.636719 224.621094 92.195313 225.886719 90.207031 227.097656 C 89.085938 227.777344 86.9375 228.871094 83.765625 230.371094 C 83.21875 230.632813 82.398438 230.941406 81.304688 231.300781 C 80.207031 231.652344 79.097656 232.015625 77.976563 232.378906 L 77.976563 233.773438 L 80.683594 233.820313 C 85.585938 233.820313 89.226563 233.128906 91.605469 231.746094 C 94.0625 230.320313 95.976563 227.691406 97.34375 223.863281 C 97.34375 225.933594 97.8125 227.765625 98.746094 229.363281 C 99.617188 230.863281 100.542969 231.613281 101.523438 231.613281 L 109.320313 231.613281 C 110.421875 231.613281 111.292969 231.519531 111.933594 231.328125 C 113.253906 230.9375 114.367188 230.109375 115.269531 228.84375 C 116.746094 229.554688 118.457031 230.175781 120.402344 230.695313 C 122.609375 231.296875 124.53125 231.59375 126.164063 231.59375 L 126.164063 226.835938 C 126.164063 224.839844 125.550781 222.65625 124.320313 220.28125 "/>
<path style=" stroke:none;fill-rule:nonzero;fill:rgb(77.999878%,78.399658%,79.199219%);fill-opacity:1;" d="M 162.222656 244.648438 L 159.9375 247.09375 L 157.460938 245.652344 L 155.640625 247.488281 L 152.703125 245.960938 L 154.894531 243.339844 L 157.460938 244.867188 L 159.28125 242.902344 L 162.222656 244.648438 "/>
<path style=" stroke:none;fill-rule:nonzero;fill:rgb(77.999878%,78.399658%,79.199219%);fill-opacity:1;" d="M 188.125 207.839844 L 185.324219 212.730469 L 179.867188 210.066406 L 182.6875 205.132813 L 188.125 207.839844 "/>
<path style=" stroke:none;fill-rule:nonzero;fill:rgb(77.999878%,78.399658%,79.199219%);fill-opacity:1;" d="M 189.457031 225.675781 L 201.730469 225.675781 C 201.5625 224.6875 201.25 223.851563 200.800781 223.164063 C 200.566406 222.785156 200.019531 222.132813 199.164063 221.199219 L 201.03125 216.003906 C 202.199219 217.242188 202.996094 218.535156 203.425781 219.890625 C 203.851563 221.242188 204.066406 223.253906 204.066406 225.914063 L 204.066406 231.613281 L 169.503906 231.613281 C 168.800781 231.613281 168.300781 231.628906 167.996094 231.65625 C 167.695313 231.6875 167.542969 231.78125 167.542969 231.941406 C 167.992188 232.191406 168.417969 232.359375 168.8125 232.453125 C 169.210938 232.550781 169.472656 232.675781 169.597656 232.824219 C 169.71875 232.980469 169.78125 233.222656 169.78125 233.558594 C 169.78125 234.59375 169.46875 235.824219 168.835938 237.257813 C 168.207031 238.691406 167.589844 239.585938 166.980469 239.933594 C 166.40625 240.382813 164.699219 240.90625 161.859375 241.496094 C 159.019531 242.085938 156.574219 242.378906 154.523438 242.378906 C 151.597656 242.378906 149.234375 241.8125 147.429688 240.675781 C 145.625 239.539063 144.722656 238.054688 144.722656 236.222656 C 144.722656 234.445313 145.117188 232.75 145.910156 231.136719 C 146.875 229.183594 148.65625 226.71875 151.253906 223.734375 L 152.65625 224.648438 C 151.023438 226.496094 149.890625 228.007813 149.261719 229.171875 C 148.628906 230.335938 148.316406 231.476563 148.316406 232.597656 C 148.316406 234.152344 149.003906 235.308594 150.378906 236.058594 C 151.757813 236.808594 153.882813 237.183594 156.761719 237.183594 C 158.253906 237.183594 160.324219 236.929688 162.96875 236.417969 C 165.613281 235.90625 166.9375 235.464844 166.9375 235.085938 C 166.9375 234.910156 166.429688 234.753906 165.417969 234.605469 C 164.40625 234.460938 163.296875 234.386719 162.082031 234.386719 C 160.308594 234.386719 159.421875 234.023438 159.421875 233.296875 C 159.421875 232.960938 159.632813 232.363281 160.050781 231.507813 C 160.347656 230.90625 160.652344 230.3125 160.960938 229.714844 C 161.539063 228.507813 162.636719 227.53125 164.265625 226.789063 C 165.890625 226.046875 167.589844 225.675781 169.363281 225.675781 L 185.652344 225.675781 C 185.480469 224.6875 185.167969 223.851563 184.71875 223.164063 C 184.484375 222.785156 183.941406 222.132813 183.085938 221.199219 L 184.953125 216.003906 C 186.117188 217.242188 186.914063 218.535156 187.34375 219.890625 C 187.773438 221.242188 187.984375 222.910156 187.984375 225.574219 L 189.457031 225.675781 "/>
<path style=" stroke:none;fill-rule:nonzero;fill:rgb(77.999878%,78.399658%,79.199219%);fill-opacity:1;" d="M 201.6875 236.222656 L 198.886719 241.113281 L 193.472656 238.359375 L 196.273438 233.382813 L 201.6875 236.222656 "/>
<path style=" stroke:none;fill-rule:nonzero;fill:rgb(77.999878%,78.399658%,79.199219%);fill-opacity:1;" d="M 242.386719 223.164063 L 240.519531 228.1875 C 238.105469 228.738281 236.132813 229.363281 234.589844 230.066406 C 233.160156 230.71875 231.847656 231.550781 230.648438 232.554688 C 229.871094 233.210938 228.726563 234.34375 227.21875 235.960938 L 225.816406 235.480469 C 225.816406 234.519531 226.082031 233.550781 226.613281 232.574219 C 227.015625 231.816406 227.730469 230.820313 228.757813 229.585938 C 227.296875 228.21875 226.332031 227.21875 225.863281 226.59375 C 225.398438 225.96875 225.164063 225.347656 225.164063 224.738281 C 225.164063 223.921875 225.761719 222.503906 226.960938 220.480469 C 228.160156 218.457031 229.191406 217.074219 230.054688 216.332031 C 230.917969 215.589844 231.933594 215.21875 233.097656 215.21875 C 234.203125 215.21875 235.171875 215.4375 236.003906 215.875 C 236.835938 216.3125 237.75 217.097656 238.746094 218.234375 L 235.617188 223.078125 C 234.886719 222.308594 234.203125 221.742188 233.566406 221.386719 C 232.925781 221.027344 232.320313 220.851563 231.746094 220.851563 C 231.261719 220.851563 230.832031 220.980469 230.449219 221.234375 C 230.070313 221.488281 229.878906 221.78125 229.878906 222.117188 C 229.878906 222.585938 230.199219 223.066406 230.847656 223.570313 C 231.492188 224.070313 232.585938 224.691406 234.125 225.4375 C 236.085938 224.5625 237.554688 224 238.535156 223.742188 C 239.515625 223.488281 240.796875 223.296875 242.386719 223.164063 "/>
<path style=" stroke:none;fill-rule:nonzero;fill:rgb(77.999878%,78.399658%,79.199219%);fill-opacity:1;" d="M 258.933594 231.613281 L 255.664063 231.613281 C 253.84375 231.613281 252.53125 230.914063 251.722656 229.519531 C 250.820313 227.976563 250.367188 225.378906 250.367188 221.726563 L 250.367188 215.503906 C 250.367188 214.09375 250.160156 212.992188 249.738281 212.207031 C 249.535156 211.828125 249.070313 211.28125 248.339844 210.566406 L 250.859375 205.109375 C 251.761719 206.273438 252.390625 207.425781 252.75 208.5625 C 253.167969 209.886719 253.378906 211.574219 253.378906 213.625 L 253.378906 217.925781 C 253.378906 220.96875 253.597656 223.078125 254.03125 224.257813 C 254.375 225.203125 254.917969 225.675781 255.664063 225.675781 L 276.996094 225.675781 C 275.113281 223.859375 273.371094 222.546875 271.769531 221.746094 C 270.351563 221.03125 268.96875 220.675781 267.613281 220.675781 C 267.210938 220.675781 266.839844 220.695313 266.507813 220.730469 C 266.171875 220.769531 265.6875 220.851563 265.046875 220.984375 C 265.902344 219.148438 266.855469 217.796875 267.90625 216.921875 C 268.957031 216.050781 270.148438 215.609375 271.488281 215.609375 C 272.515625 215.609375 273.503906 215.84375 274.453125 216.3125 C 275.398438 216.777344 276.464844 217.523438 277.648438 218.558594 C 278.582031 219.375 279.902344 220.648438 281.613281 222.378906 C 282.78125 223.601563 283.671875 224.394531 284.285156 224.761719 C 284.902344 225.121094 285.824219 225.429688 287.050781 225.675781 L 287.050781 231.613281 L 258.933594 231.613281 "/>
<path style=" stroke:none;fill-rule:nonzero;fill:rgb(77.999878%,78.399658%,79.199219%);fill-opacity:1;" d="M 278.417969 236.398438 L 275.476563 241.332031 L 270.113281 238.621094 L 272.980469 233.691406 L 278.417969 236.398438 "/>
<path style=" stroke:none;fill-rule:nonzero;fill:rgb(77.999878%,78.399658%,79.199219%);fill-opacity:1;" d="M 310.832031 232.117188 C 310.832031 233.003906 310.285156 234.179688 309.199219 235.644531 C 308.109375 237.105469 306.832031 238.375 305.371094 239.453125 C 303.753906 240.648438 302.371094 241.242188 301.21875 241.242188 C 299.847656 241.242188 298.378906 240.878906 296.808594 240.152344 C 295.4375 239.523438 293.300781 238.273438 290.390625 236.398438 L 291.371094 235.042969 C 292.769531 235.914063 293.898438 236.507813 294.753906 236.8125 C 295.609375 237.117188 296.535156 237.269531 297.53125 237.269531 C 298.605469 237.269531 299.679688 236.984375 300.75 236.417969 C 301.824219 235.851563 303.285156 234.796875 305.136719 233.253906 C 307.71875 231.097656 309.011719 229.441406 309.011719 228.273438 C 309.011719 227.691406 308.761719 226.929688 308.265625 225.984375 C 307.703125 224.90625 307.019531 224.011719 306.210938 223.296875 L 307.519531 217.402344 C 308.574219 218.421875 309.394531 219.59375 309.96875 220.917969 C 310.542969 222.242188 310.832031 223.746094 310.832031 225.4375 L 310.832031 232.117188 "/>
<path style=" stroke:none;fill-rule:nonzero;fill:rgb(77.999878%,78.399658%,79.199219%);fill-opacity:1;" d="M 54.75 272.078125 C 54.90625 272.078125 55.046875 272.078125 55.164063 272.082031 C 55.28125 272.089844 55.378906 272.09375 55.453125 272.09375 C 57.082031 272.09375 58.304688 271.644531 59.132813 270.75 C 59.960938 269.855469 60.371094 268.714844 60.371094 267.332031 C 60.371094 265.980469 60.039063 264.878906 59.371094 264.035156 C 58.707031 263.1875 57.824219 262.765625 56.722656 262.765625 C 56.238281 262.765625 55.578125 262.867188 54.75 263.066406 Z M 66.863281 283.207031 L 62.308594 283.207031 L 56.535156 273.082031 C 56.109375 273.101563 55.761719 273.113281 55.492188 273.113281 C 55.382813 273.113281 55.265625 273.109375 55.140625 273.105469 C 55.015625 273.101563 54.882813 273.09375 54.75 273.082031 L 54.75 279.375 C 54.75 280.738281 54.867188 281.582031 55.101563 281.914063 C 55.421875 282.382813 55.898438 282.617188 56.535156 282.617188 L 57.203125 282.617188 L 57.203125 283.207031 L 49.894531 283.207031 L 49.894531 282.617188 L 50.535156 282.617188 C 51.257813 282.617188 51.773438 282.316406 52.082031 281.722656 C 52.257813 281.390625 52.347656 280.609375 52.347656 279.375 L 52.347656 265.382813 C 52.347656 264.019531 52.230469 263.171875 51.996094 262.84375 C 51.667969 262.375 51.179688 262.140625 50.535156 262.140625 L 49.894531 262.140625 L 49.894531 261.550781 L 56.109375 261.550781 C 57.917969 261.550781 59.253906 261.71875 60.113281 262.054688 C 60.972656 262.386719 61.703125 263.007813 62.304688 263.90625 C 62.902344 264.804688 63.203125 265.878906 63.203125 267.125 C 63.203125 268.457031 62.859375 269.609375 62.175781 270.589844 C 61.492188 271.570313 60.433594 272.261719 59 272.664063 L 62.523438 278.878906 C 63.328125 280.304688 64.019531 281.253906 64.597656 281.722656 C 65.175781 282.191406 65.933594 282.488281 66.863281 282.617188 L 66.863281 283.207031 "/>
<path style=" stroke:none;fill-rule:nonzero;fill:rgb(77.999878%,78.399658%,79.199219%);fill-opacity:1;" d="M 79.746094 274.773438 L 76.851563 266.023438 L 73.882813 274.773438 Z M 80.097656 275.957031 L 73.492188 275.957031 L 72.335938 279.375 C 72.050781 280.214844 71.910156 280.84375 71.910156 281.257813 C 71.910156 281.589844 72.03125 281.878906 72.28125 282.128906 C 72.527344 282.378906 73.0625 282.542969 73.882813 282.617188 L 73.882813 283.207031 L 68.511719 283.207031 L 68.511719 282.617188 C 69.226563 282.457031 69.6875 282.25 69.898438 281.992188 C 70.324219 281.484375 70.796875 280.445313 71.316406 278.878906 L 77.316406 261.054688 L 77.757813 261.054688 L 83.695313 279.070313 C 84.171875 280.519531 84.605469 281.457031 84.996094 281.890625 C 85.386719 282.320313 85.929688 282.5625 86.628906 282.617188 L 86.628906 283.207031 L 79.898438 283.207031 L 79.898438 282.617188 C 80.578125 282.574219 81.035156 282.429688 81.273438 282.183594 C 81.515625 281.941406 81.632813 281.640625 81.632813 281.292969 C 81.632813 280.824219 81.464844 280.082031 81.128906 279.070313 L 80.097656 275.957031 "/>
<path style=" stroke:none;fill-rule:nonzero;fill:rgb(77.999878%,78.399658%,79.199219%);fill-opacity:1;" d="M 91.15625 262.140625 L 91.15625 261.550781 L 98.464844 261.550781 L 98.464844 262.140625 L 97.847656 262.140625 C 97.152344 262.140625 96.644531 262.402344 96.328125 262.921875 C 96.125 263.265625 96.023438 264.085938 96.023438 265.382813 L 96.023438 275.972656 C 96.023438 277.601563 95.886719 278.921875 95.601563 279.933594 C 95.324219 280.945313 94.839844 281.824219 94.152344 282.578125 C 93.464844 283.328125 92.632813 283.703125 91.660156 283.703125 C 90.871094 283.703125 90.25 283.453125 89.796875 282.960938 C 89.34375 282.464844 89.117188 281.898438 89.117188 281.257813 C 89.117188 280.738281 89.222656 280.34375 89.433594 280.078125 C 89.710938 279.746094 90.03125 279.582031 90.402344 279.582031 C 90.671875 279.582031 90.910156 279.695313 91.125 279.917969 C 91.339844 280.140625 91.609375 280.738281 91.9375 281.707031 C 92.128906 282.28125 92.378906 282.566406 92.679688 282.566406 C 92.90625 282.566406 93.117188 282.394531 93.316406 282.042969 C 93.511719 281.691406 93.609375 281.066406 93.609375 280.171875 L 93.609375 265.382813 C 93.609375 264.289063 93.554688 263.5625 93.445313 263.210938 C 93.363281 262.945313 93.1875 262.714844 92.917969 262.523438 C 92.558594 262.269531 92.175781 262.140625 91.773438 262.140625 L 91.15625 262.140625 "/>
<path style=" stroke:none;fill-rule:nonzero;fill:rgb(77.999878%,78.399658%,79.199219%);fill-opacity:1;" d="M 111.726563 274.773438 L 108.832031 266.023438 L 105.863281 274.773438 Z M 112.078125 275.957031 L 105.472656 275.957031 L 104.316406 279.375 C 104.03125 280.214844 103.890625 280.84375 103.890625 281.257813 C 103.890625 281.589844 104.011719 281.878906 104.261719 282.128906 C 104.507813 282.378906 105.042969 282.542969 105.863281 282.617188 L 105.863281 283.207031 L 100.492188 283.207031 L 100.492188 282.617188 C 101.203125 282.457031 101.664063 282.25 101.875 281.992188 C 102.304688 281.484375 102.777344 280.445313 103.296875 278.878906 L 109.296875 261.054688 L 109.738281 261.054688 L 115.675781 279.070313 C 116.152344 280.519531 116.585938 281.457031 116.976563 281.890625 C 117.367188 282.320313 117.910156 282.5625 118.605469 282.617188 L 118.605469 283.207031 L 111.875 283.207031 L 111.875 282.617188 C 112.554688 282.574219 113.015625 282.429688 113.253906 282.183594 C 113.492188 281.941406 113.613281 281.640625 113.613281 281.292969 C 113.613281 280.824219 113.445313 280.082031 113.109375 279.070313 L 112.078125 275.957031 "/>
<path style=" stroke:none;fill-rule:nonzero;fill:rgb(77.999878%,78.399658%,79.199219%);fill-opacity:1;" d="M 132.574219 281.640625 C 133.546875 281.929688 134.507813 282.074219 135.453125 282.074219 C 136.972656 282.074219 138.128906 281.640625 138.925781 280.769531 C 139.722656 279.902344 140.121094 278.832031 140.121094 277.554688 C 140.121094 276.710938 139.9375 275.902344 139.578125 275.125 C 139.21875 274.347656 138.632813 273.738281 137.816406 273.289063 C 137.003906 272.84375 135.996094 272.617188 134.800781 272.617188 C 134.277344 272.617188 133.835938 272.628906 133.464844 272.648438 C 133.097656 272.671875 132.800781 272.710938 132.574219 272.761719 Z M 132.574219 271.292969 C 132.882813 271.367188 133.238281 271.421875 133.636719 271.460938 C 134.035156 271.5 134.472656 271.515625 134.949219 271.515625 C 136.175781 271.515625 137.09375 271.347656 137.710938 271.015625 C 138.328125 270.675781 138.800781 270.164063 139.125 269.472656 C 139.453125 268.78125 139.617188 268.023438 139.617188 267.203125 C 139.617188 265.9375 139.210938 264.855469 138.398438 263.960938 C 137.582031 263.066406 136.398438 262.621094 134.835938 262.621094 C 134 262.621094 133.242188 262.738281 132.574219 262.972656 Z M 139.164063 272.15625 C 140.347656 272.472656 141.230469 272.984375 141.816406 273.6875 C 142.632813 274.667969 143.039063 275.867188 143.039063 277.28125 C 143.039063 278.359375 142.769531 279.386719 142.234375 280.371094 C 141.695313 281.359375 140.960938 282.078125 140.027344 282.527344 C 139.089844 282.980469 137.664063 283.207031 135.742188 283.207031 L 127.691406 283.207031 L 127.691406 282.617188 L 128.332031 282.617188 C 129.046875 282.617188 129.558594 282.328125 129.867188 281.753906 C 130.0625 281.382813 130.15625 280.589844 130.15625 279.375 L 130.15625 265.382813 C 130.15625 264.042969 130.035156 263.195313 129.792969 262.84375 C 129.464844 262.375 128.980469 262.140625 128.332031 262.140625 L 127.691406 262.140625 L 127.691406 261.550781 L 135.0625 261.550781 C 136.4375 261.550781 137.542969 261.679688 138.371094 261.933594 C 139.628906 262.316406 140.589844 262.996094 141.253906 263.96875 C 141.914063 264.945313 142.246094 266.066406 142.246094 267.332031 C 142.246094 268.417969 141.984375 269.390625 141.464844 270.246094 C 140.945313 271.105469 140.179688 271.738281 139.164063 272.15625 "/>
<path style=" stroke:none;fill-rule:nonzero;fill:rgb(77.999878%,78.399658%,79.199219%);fill-opacity:1;" d="M 151.507813 262.730469 L 151.507813 271.292969 L 155.253906 271.292969 C 156.226563 271.292969 156.878906 271.105469 157.203125 270.734375 C 157.640625 270.242188 157.882813 269.382813 157.933594 268.148438 L 158.398438 268.148438 L 158.398438 275.683594 L 157.933594 275.683594 C 157.816406 274.628906 157.699219 273.953125 157.582031 273.65625 C 157.429688 273.285156 157.183594 272.992188 156.839844 272.777344 C 156.496094 272.566406 155.96875 272.457031 155.253906 272.457031 L 151.507813 272.457031 L 151.507813 279.597656 C 151.507813 280.558594 151.539063 281.140625 151.605469 281.347656 C 151.675781 281.554688 151.789063 281.71875 151.960938 281.84375 C 152.125 281.964844 152.445313 282.027344 152.914063 282.027344 L 155.808594 282.027344 C 156.773438 282.027344 157.472656 281.941406 157.910156 281.769531 C 158.34375 281.597656 158.765625 281.265625 159.167969 280.765625 C 159.6875 280.105469 160.21875 279.109375 160.765625 277.777344 L 161.269531 277.777344 L 159.796875 283.207031 L 146.648438 283.207031 L 146.648438 282.617188 L 147.253906 282.617188 C 147.65625 282.617188 148.039063 282.492188 148.398438 282.25 C 148.667969 282.078125 148.851563 281.824219 148.945313 281.484375 C 149.042969 281.140625 149.089844 280.445313 149.089844 279.390625 L 149.089844 265.320313 C 149.089844 263.945313 148.980469 263.101563 148.765625 262.78125 C 148.460938 262.355469 147.960938 262.140625 147.253906 262.140625 L 146.648438 262.140625 L 146.648438 261.550781 L 159.796875 261.550781 L 159.984375 266.292969 L 159.492188 266.292969 C 159.316406 265.15625 159.121094 264.371094 158.910156 263.945313 C 158.695313 263.519531 158.378906 263.195313 157.960938 262.972656 C 157.625 262.8125 157.03125 262.730469 156.1875 262.730469 L 151.507813 262.730469 "/>
<path style=" stroke:none;fill-rule:nonzero;fill:rgb(77.999878%,78.399658%,79.199219%);fill-opacity:1;" d="M 163.195313 261.550781 L 167.824219 261.550781 L 178.25 277.792969 L 178.25 265.304688 C 178.25 263.972656 178.132813 263.140625 177.898438 262.8125 C 177.589844 262.363281 177.097656 262.140625 176.425781 262.140625 L 175.835938 262.140625 L 175.835938 261.550781 L 181.773438 261.550781 L 181.773438 262.140625 L 181.167969 262.140625 C 180.449219 262.140625 179.9375 262.417969 179.636719 262.972656 C 179.449219 263.3125 179.359375 264.089844 179.359375 265.304688 L 179.359375 283.558594 L 178.90625 283.558594 L 167.660156 266.117188 L 167.660156 279.453125 C 167.660156 280.785156 167.773438 281.617188 168 281.945313 C 168.316406 282.394531 168.808594 282.617188 169.472656 282.617188 L 170.074219 282.617188 L 170.074219 283.207031 L 164.136719 283.207031 L 164.136719 282.617188 L 164.726563 282.617188 C 165.457031 282.617188 165.972656 282.339844 166.273438 281.785156 C 166.460938 281.445313 166.550781 280.667969 166.550781 279.453125 L 166.550781 264.394531 C 166.058594 263.660156 165.683594 263.171875 165.425781 262.9375 C 165.171875 262.703125 164.796875 262.488281 164.300781 262.285156 C 164.058594 262.1875 163.6875 262.140625 163.195313 262.140625 L 163.195313 261.550781 "/>
<path style=" stroke:none;fill-rule:nonzero;fill:rgb(77.999878%,78.399658%,79.199219%);fill-opacity:1;" d="M 191.761719 282.617188 L 191.761719 283.207031 L 184.453125 283.207031 L 184.453125 282.617188 L 185.058594 282.617188 C 185.761719 282.617188 186.273438 282.355469 186.59375 281.832031 C 186.792969 281.492188 186.894531 280.671875 186.894531 279.375 L 186.894531 265.382813 C 186.894531 264.289063 186.839844 263.5625 186.730469 263.210938 C 186.648438 262.945313 186.476563 262.714844 186.214844 262.523438 C 185.847656 262.269531 185.460938 262.140625 185.058594 262.140625 L 184.453125 262.140625 L 184.453125 261.550781 L 191.761719 261.550781 L 191.761719 262.140625 L 191.148438 262.140625 C 190.449219 262.140625 189.941406 262.402344 189.625 262.921875 C 189.414063 263.265625 189.308594 264.085938 189.308594 265.382813 L 189.308594 279.375 C 189.308594 280.472656 189.363281 281.195313 189.472656 281.546875 C 189.558594 281.8125 189.734375 282.042969 190 282.234375 C 190.363281 282.488281 190.742188 282.617188 191.148438 282.617188 L 191.761719 282.617188 "/>
<path style=" stroke:none;fill-rule:nonzero;fill:rgb(77.999878%,78.399658%,79.199219%);fill-opacity:1;" d="M 212.722656 283.207031 L 206.132813 264.984375 L 206.132813 279.453125 C 206.132813 280.785156 206.246094 281.617188 206.472656 281.945313 C 206.78125 282.394531 207.273438 282.617188 207.941406 282.617188 L 208.546875 282.617188 L 208.546875 283.207031 L 202.609375 283.207031 L 202.609375 282.617188 L 203.214844 282.617188 C 203.933594 282.617188 204.445313 282.339844 204.746094 281.785156 C 204.933594 281.445313 205.023438 280.667969 205.023438 279.453125 L 205.023438 265.304688 C 205.023438 264.34375 204.941406 263.652344 204.773438 263.226563 C 204.65625 262.917969 204.4375 262.660156 204.125 262.453125 C 203.8125 262.246094 203.304688 262.140625 202.609375 262.140625 L 202.609375 261.550781 L 207.441406 261.550781 L 213.628906 278.496094 L 219.71875 261.550781 L 224.546875 261.550781 L 224.546875 262.140625 L 223.957031 262.140625 C 223.226563 262.140625 222.710938 262.417969 222.410156 262.972656 C 222.222656 263.3125 222.132813 264.089844 222.132813 265.304688 L 222.132813 279.453125 C 222.132813 280.785156 222.25 281.617188 222.484375 281.945313 C 222.792969 282.394531 223.285156 282.617188 223.957031 282.617188 L 224.546875 282.617188 L 224.546875 283.207031 L 217.300781 283.207031 L 217.300781 282.617188 L 217.90625 282.617188 C 218.636719 282.617188 219.148438 282.339844 219.441406 281.785156 C 219.625 281.445313 219.71875 280.667969 219.71875 279.453125 L 219.71875 264.984375 L 213.136719 283.207031 L 212.722656 283.207031 "/>
<path style=" stroke:none;fill-rule:nonzero;fill:rgb(77.999878%,78.399658%,79.199219%);fill-opacity:1;" d="M 232.148438 262.730469 L 232.148438 271.292969 L 235.894531 271.292969 C 236.867188 271.292969 237.519531 271.105469 237.84375 270.734375 C 238.28125 270.242188 238.523438 269.382813 238.574219 268.148438 L 239.039063 268.148438 L 239.039063 275.683594 L 238.574219 275.683594 C 238.457031 274.628906 238.339844 273.953125 238.222656 273.65625 C 238.070313 273.285156 237.824219 272.992188 237.480469 272.777344 C 237.136719 272.566406 236.609375 272.457031 235.894531 272.457031 L 232.148438 272.457031 L 232.148438 279.597656 C 232.148438 280.558594 232.179688 281.140625 232.246094 281.347656 C 232.316406 281.554688 232.433594 281.71875 232.601563 281.84375 C 232.765625 281.964844 233.085938 282.027344 233.554688 282.027344 L 236.449219 282.027344 C 237.414063 282.027344 238.113281 281.941406 238.550781 281.769531 C 238.984375 281.597656 239.40625 281.265625 239.808594 280.765625 C 240.328125 280.105469 240.859375 279.109375 241.40625 277.777344 L 241.910156 277.777344 L 240.4375 283.207031 L 227.292969 283.207031 L 227.292969 282.617188 L 227.894531 282.617188 C 228.296875 282.617188 228.679688 282.492188 229.039063 282.25 C 229.308594 282.078125 229.492188 281.824219 229.585938 281.484375 C 229.683594 281.140625 229.730469 280.445313 229.730469 279.390625 L 229.730469 265.320313 C 229.730469 263.945313 229.621094 263.101563 229.40625 262.78125 C 229.101563 262.355469 228.601563 262.140625 227.894531 262.140625 L 227.292969 262.140625 L 227.292969 261.550781 L 240.4375 261.550781 L 240.625 266.292969 L 240.132813 266.292969 C 239.957031 265.15625 239.761719 264.371094 239.550781 263.945313 C 239.335938 263.519531 239.019531 263.195313 238.601563 262.972656 C 238.265625 262.8125 237.671875 262.730469 236.828125 262.730469 L 232.148438 262.730469 "/>
<path style=" stroke:none;fill-rule:nonzero;fill:rgb(77.999878%,78.399658%,79.199219%);fill-opacity:1;" d="M 258.941406 277.21875 L 259.359375 277.328125 L 257.898438 283.207031 L 244.691406 283.207031 L 244.691406 282.617188 L 245.332031 282.617188 C 246.054688 282.617188 246.570313 282.316406 246.878906 281.722656 C 247.054688 281.382813 247.144531 280.59375 247.144531 279.359375 L 247.144531 265.382813 C 247.144531 264.03125 247.023438 263.183594 246.789063 262.84375 C 246.464844 262.375 245.976563 262.140625 245.332031 262.140625 L 244.691406 262.140625 L 244.691406 261.550781 L 252.414063 261.550781 L 252.414063 262.140625 C 251.507813 262.132813 250.875 262.238281 250.507813 262.460938 C 250.144531 262.683594 249.894531 262.964844 249.761719 263.308594 C 249.625 263.648438 249.558594 264.460938 249.558594 265.75 L 249.558594 279.359375 C 249.558594 280.242188 249.625 280.847656 249.761719 281.179688 C 249.859375 281.402344 250.015625 281.566406 250.226563 281.675781 C 250.433594 281.78125 251.089844 281.832031 252.1875 281.832031 L 253.433594 281.832031 C 254.742188 281.832031 255.660156 281.710938 256.1875 281.46875 C 256.714844 281.222656 257.199219 280.789063 257.632813 280.164063 C 258.070313 279.542969 258.507813 278.558594 258.941406 277.21875 "/>
<path style=" stroke:none;fill-rule:nonzero;fill:rgb(77.999878%,78.399658%,79.199219%);fill-opacity:1;" d="M 276.355469 277.21875 L 276.769531 277.328125 L 275.308594 283.207031 L 262.101563 283.207031 L 262.101563 282.617188 L 262.742188 282.617188 C 263.464844 282.617188 263.980469 282.316406 264.289063 281.722656 C 264.464844 281.382813 264.554688 280.59375 264.554688 279.359375 L 264.554688 265.382813 C 264.554688 264.03125 264.4375 263.183594 264.203125 262.84375 C 263.875 262.375 263.386719 262.140625 262.742188 262.140625 L 262.101563 262.140625 L 262.101563 261.550781 L 269.824219 261.550781 L 269.824219 262.140625 C 268.917969 262.132813 268.285156 262.238281 267.917969 262.460938 C 267.554688 262.683594 267.304688 262.964844 267.171875 263.308594 C 267.035156 263.648438 266.96875 264.460938 266.96875 265.75 L 266.96875 279.359375 C 266.96875 280.242188 267.035156 280.847656 267.171875 281.179688 C 267.269531 281.402344 267.425781 281.566406 267.636719 281.675781 C 267.84375 281.78125 268.5 281.832031 269.597656 281.832031 L 270.84375 281.832031 C 272.152344 281.832031 273.070313 281.710938 273.597656 281.46875 C 274.125 281.222656 274.609375 280.789063 275.046875 280.164063 C 275.480469 279.542969 275.917969 278.558594 276.355469 277.21875 "/>
<path style=" stroke:none;fill-rule:nonzero;fill:rgb(77.999878%,78.399658%,79.199219%);fill-opacity:1;" d="M 290.433594 274.773438 L 287.539063 266.023438 L 284.570313 274.773438 Z M 290.785156 275.957031 L 284.179688 275.957031 L 283.023438 279.375 C 282.738281 280.214844 282.59375 280.84375 282.59375 281.257813 C 282.59375 281.589844 282.71875 281.878906 282.964844 282.128906 C 283.214844 282.378906 283.746094 282.542969 284.570313 282.617188 L 284.570313 283.207031 L 279.199219 283.207031 L 279.199219 282.617188 C 279.910156 282.457031 280.371094 282.25 280.582031 281.992188 C 281.007813 281.484375 281.484375 280.445313 282.003906 278.878906 L 288.003906 261.054688 L 288.445313 261.054688 L 294.382813 279.070313 C 294.859375 280.519531 295.292969 281.457031 295.683594 281.890625 C 296.074219 282.320313 296.617188 282.5625 297.3125 282.617188 L 297.3125 283.207031 L 290.582031 283.207031 L 290.582031 282.617188 C 291.261719 282.574219 291.722656 282.429688 291.960938 282.183594 C 292.199219 281.941406 292.320313 281.640625 292.320313 281.292969 C 292.320313 280.824219 292.152344 280.082031 291.816406 279.070313 L 290.785156 275.957031 "/>
<path style=" stroke:none;fill-rule:nonzero;fill:rgb(77.999878%,78.399658%,79.199219%);fill-opacity:1;" d="M 314.042969 277.21875 L 314.460938 277.328125 L 313 283.207031 L 299.792969 283.207031 L 299.792969 282.617188 L 300.433594 282.617188 C 301.15625 282.617188 301.671875 282.316406 301.980469 281.722656 C 302.15625 281.382813 302.246094 280.59375 302.246094 279.359375 L 302.246094 265.382813 C 302.246094 264.03125 302.128906 263.183594 301.894531 262.84375 C 301.566406 262.375 301.078125 262.140625 300.433594 262.140625 L 299.792969 262.140625 L 299.792969 261.550781 L 307.515625 261.550781 L 307.515625 262.140625 C 306.609375 262.132813 305.976563 262.238281 305.609375 262.460938 C 305.246094 262.683594 304.996094 262.964844 304.863281 263.308594 C 304.726563 263.648438 304.660156 264.460938 304.660156 265.75 L 304.660156 279.359375 C 304.660156 280.242188 304.726563 280.847656 304.863281 281.179688 C 304.960938 281.402344 305.117188 281.566406 305.328125 281.675781 C 305.535156 281.78125 306.191406 281.832031 307.289063 281.832031 L 308.535156 281.832031 C 309.84375 281.832031 310.761719 281.710938 311.289063 281.46875 C 311.816406 281.222656 312.300781 280.789063 312.734375 280.164063 C 313.171875 279.542969 313.609375 278.558594 314.042969 277.21875 "/>
</g>
</svg>
