<?xml version="1.0" encoding="UTF-8" standalone="no"?>
<svg
   xmlns:dc="http://purl.org/dc/elements/1.1/"
   xmlns:cc="http://creativecommons.org/ns#"
   xmlns:rdf="http://www.w3.org/1999/02/22-rdf-syntax-ns#"
   xmlns:svg="http://www.w3.org/2000/svg"
   xmlns="http://www.w3.org/2000/svg"
   viewBox="0 0 193.52571 253.99999"
   height="254"
   width="193.52571"
   xml:space="preserve"
   id="svg2"
   version="1.1"><metadata
     id="metadata8"><rdf:RDF><cc:Work
         rdf:about=""><dc:format>image/svg+xml</dc:format><dc:type
           rdf:resource="http://purl.org/dc/dcmitype/StillImage" /><dc:title></dc:title></cc:Work></rdf:RDF></metadata><defs
     id="defs6" /><g
     transform="matrix(1.3333333,0,0,-1.3333333,-65.989769,358.72592)"
     id="g10"><g
       transform="matrix(0.25935029,0,0,0.25935029,45.168956,67.611583)"
       id="g81"><path
         d="M 23.2417,740.87988 22.46338,740.70996 22.4585,339.68359 C 22.42188,316.59668 22.38965,296.6582 30.66455,275.38086 44.94336,238.66309 69.83252,205.72461 111.36523,168.57715 190.25586,98.0166 295.02637,48.625 296.07568,48.13379 l 0.41944,-0.19531 0.41845,0.19531 c 1.04932,0.49121 105.81592,49.88281 184.70752,120.44336 v 0 c 41.53125,37.14648 66.41993,70.08594 80.69922,106.80371 8.27539,21.27637 8.24317,41.21387 8.20703,64.2998 l -0.005,401.0293 -0.7793,0.16992 c -53.1914,11.60596 -174.40625,30.01905 -273.22949,30.01905 -98.86377,0 -220.08008,-18.41309 -273.27197,-30.01905 z"
         style="fill:#2b63b7;fill-opacity:1;fill-rule:nonzero;stroke:none"
         id="path12" /><path
         d="m 296.47266,768.91895 c 98.24414,0 218.57422,-18.20997 272.06933,-29.80713 0,-1.59522 0.01,-402.44971 0.01,-403.93897 0,-21.00293 -0.47559,-39.53027 -8.07617,-59.07422 -14.16114,-36.41211 -38.8877,-69.11816 -80.17481,-106.0459 v 0 C 404.14551,101.93848 303.78125,53.5918 296.49512,50.12598 c -7.28662,3.46582 -107.65576,51.8125 -183.81055,119.92675 -41.2876,36.92872 -66.01465,69.63477 -80.17432,106.0459 -7.60107,19.5459 -8.07666,38.0752 -8.07666,59.08008 0,1.48828 0.0098,402.33789 0.0098,403.93311 53.49463,11.59716 173.82617,29.80713 272.0293,29.80713 z"
         style="fill:#ffffff;fill-opacity:1;fill-rule:nonzero;stroke:none"
         id="path14" /><path
         d="M 117.02588,732.93408 V 195.05469 l 0.0229,-0.79492 c -42.2749,39.81738 -57.05078,68.51367 -65.16309,89.37402 -6.24658,16.0625 -6.66211,31.96484 -6.66211,51.50976 0,1.48047 0.0098,354.56641 0.0098,386.9961 19.45361,3.76465 44.20264,7.91846 71.80469,11.77978 l -0.0122,-0.98535 z"
         style="fill:#2b63b7;fill-opacity:1;fill-rule:nonzero;stroke:none"
         id="path16" /><path
         d="m 188.81787,137.81934 v 71.57226 l 0.67529,0.0186 h 70.35157 l 0.76465,-0.0195 V 93.27058 l 0.0117,-0.85449 c -20.37402,11.43554 -45.70898,26.60937 -71.78857,44.60839 l -0.0146,0.79493 z"
         style="fill:#2b63b7;fill-opacity:1;fill-rule:nonzero;stroke:none"
         id="path18" /><path
         d="M 332.37891,93.33203 V 209.3916 l 0.66308,0.0186 h 70.53711 l 0.58496,-0.0635 v -71.15527 l 0.0166,-1.14942 c -26.06152,-17.9873 -51.37988,-33.15429 -71.75,-44.58886 l -0.0517,0.8789 z"
         style="fill:#2b63b7;fill-opacity:1;fill-rule:nonzero;stroke:none"
         id="path20" /><path
         d="m 475.95801,194.88965 v 537.85889 l 0.0147,1.1665 c 27.59277,-3.85986 52.33203,-8.01172 71.77929,-11.77539 0,-32.42969 0.01,-385.52149 0.01,-387.00195 0,-19.54297 -0.41699,-35.44239 -6.66211,-51.50391 -8.11133,-20.85645 -22.88184,-49.54492 -65.13574,-89.34863 l -0.006,0.60449 z"
         style="fill:#2b63b7;fill-opacity:1;fill-rule:nonzero;stroke:none"
         id="path22" /><path
         d="m 475.96387,194.28516 c -3.03028,-2.8545 -6.20215,-5.76661 -9.52344,-8.73633 v 9.7e-4 c -19.76855,-17.68261 -41.25586,-34.01074 -62.25977,-48.50781 l -0.0166,1.14942 v 71.15527 l -0.58496,0.0635 h -70.53711 l -0.66308,-0.0186 V 93.33201 l 0.0517,-0.8789 C 317.00684,83.79395 304.41992,77.27539 296.49512,73.29297 288.58105,77.26953 276.0166,83.77539 260.62109,92.41602 l -0.0117,0.85449 v 116.12012 l -0.76465,0.0195 h -70.35157 l -0.67529,-0.0186 v -71.57226 l 0.0146,-0.79493 c -21.01318,14.50098 -42.50977,30.83594 -62.2876,48.52539 -3.31152,2.96094 -6.47363,5.86426 -9.49609,8.70997 l -0.0229,0.79492 V 732.9345 l 0.0122,0.98535 c 54.92773,7.68311 121.15332,14.20899 179.43457,14.20899 58.31543,0 124.56347,-6.52784 179.5,-14.21387 l -0.0147,-1.16602 V 194.88958 l 0.006,-0.60449 z"
         style="fill:#fee816;fill-opacity:1;fill-rule:nonzero;stroke:none"
         id="path24" /><path
         d="m 256.44092,607.26611 c 0,0 1.18213,12.07373 5.56836,19.42871 4.20752,7.05372 10.51904,13.36524 17.82031,15.2212 8.02832,2.04101 14.23096,2.97021 18.5625,6.55908 3.58643,2.97168 3.95947,7.17724 2.35107,7.7959 -1.60839,0.61914 -6.31103,-0.24756 -9.28125,-0.98975 -2.96972,-0.74268 -5.19726,-2.72266 -5.19726,-2.72266 0,0 -0.24756,2.72266 0.24707,3.83643 0.49512,1.11377 0.37158,1.73242 -0.12354,3.46484 -0.49511,1.73243 -0.12353,3.34131 -0.12353,3.34131 5.44482,-0.49512 10.51855,0.12354 12.12744,2.10352 1.60889,1.98047 0.24756,6.68261 -1.85645,8.2915 -2.10351,1.60889 -6.68261,0.98975 -9.5288,0.12354 -2.8462,-0.86621 -6.43506,-2.96973 -6.43506,-2.96973 -3.34131,5.32129 -2.96973,8.29102 -2.96973,8.29102 -3.7124,2.84619 -1.73242,5.07373 3.21729,8.16748 4.95019,3.09375 10.02392,5.32129 10.02392,5.32129 3.46485,7.54882 10.89014,7.05371 18.06787,6.80615 7.17676,-0.24707 9.4043,-0.12354 10.39453,1.23779 0.99024,1.36133 1.11426,4.45508 1.11426,4.45508 4.70215,-3.95996 1.85547,-7.67285 -1.98047,-9.77637 -3.83593,-2.104 -6.80664,-6.80615 -6.43457,-9.15771 0.3711,-2.35108 1.73242,-2.59864 1.73242,-2.59864 0.49512,6.06397 8.29102,11.63282 15.34473,11.75635 7.05371,0.12354 11.75586,-3.46484 11.75586,-3.46484 -1.48437,-7.54883 -9.4043,-10.7666 -12.375,-9.15772 -2.50488,1.35694 -2.96973,5.44483 -2.96973,5.44483 0,0 -0.74218,-0.49463 -0.74218,-3.58838 0,-3.09375 5.44433,-8.53906 12.375,-4.70264 0,0 2.72265,-1.85644 4.82617,-5.93994 2.10351,-4.08398 1.85644,-9.77637 0.49512,-15.22119 -1.36133,-5.44531 -0.99024,-10.27149 1.48437,-12.49902 2.47559,-2.22754 7.05371,-0.98975 7.05371,-0.98975 0,0 -0.0762,-3.7627 -3.46484,-5.81641 -4.08399,-2.47509 -9.65235,0.3711 -9.65235,0.3711 0,0 -2.96972,-4.0835 -3.46484,-9.52832 -0.49512,-5.44532 4.08398,-9.03418 8.53906,-9.15772 0,0 -1.85937,-2.79199 -6.68261,-3.09375 -5.94043,-0.37109 -10.39551,5.69238 -10.39551,5.69238 0,0 -1.23731,-2.59863 -1.73242,-8.53857 -0.49512,-5.93994 4.70214,-11.1377 4.70214,-11.1377 0,0 -1.11328,-3.09375 -7.54785,-5.81591 -6.43554,-2.72266 -7.30175,-2.72266 -7.30175,-2.72266 0,0 -6.06348,5.44482 -8.53907,9.77637 0,0 -1.36133,-4.82617 -0.61816,-10.7666 0,0 -10.48779,-0.59278 -17.07764,2.59912 -7.91992,3.83593 -14.35498,8.04345 -20.04736,9.8999 -4.99463,1.62842 -11.26123,0.37109 -11.26123,0.37109 m 45.66357,80.18994 c 0,0 -4.82617,0.24756 -7.17773,0.12403 -2.35108,-0.12403 -4.57862,-1.85645 -5.32129,-3.71289 0,0 2.104,-2.96973 5.07422,-3.09375 2.96972,-0.12354 7.30078,2.22754 7.4248,6.68261 z"
         style="fill:#2b63b7;fill-opacity:1;fill-rule:nonzero;stroke:none"
         id="path26" /><path
         d="m 287.00684,667.40869 c 0,0 -0.38379,-0.92041 -3.71241,-1.2373 -2.59863,-0.24756 -7.30127,-1.48535 -12.0039,-3.71289 -4.70215,-2.22754 -10.271,-2.72217 -13.36475,-0.12354 -3.09375,2.59863 -2.72265,6.55859 -2.4751,9.52881 0,0 2.97022,-4.20752 7.05371,-5.44531 3.93799,-1.19287 6.06397,-0.61866 10.14747,0.37158 4.08398,0.98975 10.14746,1.11377 14.35498,0.61865 z"
         style="fill:#2b63b7;fill-opacity:1;fill-rule:nonzero;stroke:none"
         id="path28" /><path
         d="m 253.09961,627.18994 c 0,0 0.86621,3.46485 3.95996,8.41504 3.09375,4.94971 9.28125,8.04346 9.28125,8.04346 0,0 -9.40527,2.22754 -14.8501,4.45508 -5.44482,2.22753 -12.25146,5.93994 -14.97363,10.7666 0,0 0.37109,3.95996 -1.73242,5.93994 -2.10401,1.97998 -5.69287,1.48486 -5.69287,1.48486 0,0 0.24756,1.73242 1.48535,3.34131 1.2373,1.60889 1.36084,4.94971 -3.46533,6.68262 0,0 0.61865,-1.97998 0.37158,-3.46533 -0.24756,-1.48487 -0.99024,-3.09375 -3.21777,-3.21729 0,0 0.61865,4.70264 -1.48487,6.55859 -2.104,1.85645 -5.19775,1.60889 -7.54883,-0.12353 0,0 2.10401,-0.61865 3.58887,-1.97998 1.48486,-1.36133 0.86621,-4.70264 0.86621,-4.70264 0,0 -1.48486,1.23731 -4.08398,2.10352 -2.59864,0.8667 -5.93994,-1.73242 -6.5586,-4.0835 0,0 1.60889,0.3711 3.21729,0.3711 1.60889,0 3.58887,-2.35108 4.45508,-4.0835 0,0 -0.98975,-6.06397 3.83642,-7.42529 0,0 -1.36133,-1.85596 -1.73242,-4.33106 -0.37158,-2.4751 1.60889,-5.8164 1.60889,-5.8164 0,0 0.86621,4.08398 2.35107,5.19775 1.48487,1.11377 3.95996,0.24756 5.44483,-1.23779 1.48535,-1.48487 1.97998,-3.34131 0.86621,-5.81592 -1.11377,-2.4751 1.11377,-6.31153 2.35156,-7.79639 0,0 0.49463,3.09375 1.85596,4.0835 1.36132,0.99023 2.97021,0.74267 7.05371,-2.35108 4.08398,-3.09375 12.74658,-11.01367 12.74658,-11.01367 z"
         style="fill:#2b63b7;fill-opacity:1;fill-rule:nonzero;stroke:none"
         id="path30" /><path
         d="m 376.97363,457.65234 c 0,0 -2.47558,-4.20752 -8.29199,-4.33105 -3.46582,-0.0742 -7.05371,3.46484 -7.05371,3.46484 -3.34082,-0.98974 -4.33105,-3.58886 -3.09375,-6.31103 1.2373,-2.72266 5.07422,-5.56885 5.07422,-5.56885 0,0 -4.33106,0 -8.66309,1.73242 -4.33105,1.73242 -3.58789,5.19776 -3.58789,5.19776 0,0 -3.09375,-1.48536 -5.44531,-2.59913 -2.35156,-1.11376 -6.1875,-0.61865 -8.91016,0.86622 -2.72265,1.48535 -6.06347,0.99023 -8.66211,-1.11377 -2.59961,-2.10352 -2.10449,-5.44483 -2.10449,-5.44483 -3.09375,2.10401 -4.57812,7.54883 -2.35058,10.64258 2.22753,3.09375 6.43457,3.83643 6.43457,3.83643 -1.73243,2.72216 -4.82618,3.21728 -7.42481,2.10351 -2.59863,-1.11377 -3.95996,-2.59863 -3.95996,-2.59863 0,0 -0.99023,3.21728 1.11328,6.43506 2.10449,3.21728 5.69238,3.83593 8.66309,3.21728 3.14941,-0.65625 4.70215,-2.35107 4.70215,-2.35107 0,0 0.37109,3.83594 -2.22754,6.1875 -2.02051,1.82812 -4.9502,0.86621 -4.9502,0.86621 1.23828,3.21728 7.30176,5.07373 10.02442,3.34131 2.72265,-1.73242 3.71191,-4.9502 6.55859,-5.56885 2.8457,-0.61865 8.78613,0 8.78613,0 0,0 0.49512,5.81641 -3.09375,14.23096 -3.58886,8.41504 -8.91015,12.12793 -15.96386,15.22168 -7.05372,3.09375 -14.47852,4.45459 -18.19141,7.7959 -3.71192,3.3413 -4.82617,7.54882 -4.82617,7.54882 -1.36133,-2.59863 -5.69239,-5.07373 -10.76612,-2.47509 -5.07373,2.59912 -4.20752,6.43505 -4.20752,6.43505 0,0 1.23731,-3.09375 6.1875,-1.97998 4.9502,1.11377 10.14747,7.54883 11.01368,18.43897 0.86621,10.88965 -4.82618,19.55224 -11.75586,26.72998 -6.93018,7.17725 -15.34522,11.50879 -24.87403,14.60254 -9.52881,3.09375 -19.55273,0.24756 -24.75,-1.48535 -5.19726,-1.73243 -9.15771,-4.45459 -9.15771,-4.45459 1.11377,-1.73291 4.20752,-1.60889 4.20752,-1.60889 -3.95996,-3.34131 -6.68213,-2.4751 -9.40479,-1.11377 -2.72265,1.36133 -3.95996,0.49512 -7.79638,-1.97998 -3.83594,-2.4751 -3.95996,-4.57861 -3.83594,-6.1875 0.12353,-1.60889 2.59863,-3.46484 2.59863,-3.46484 0,0 -2.22754,-0.61914 -4.57861,0.37109 -2.35156,0.98975 -3.21778,3.46484 -3.21778,3.46484 -3.09375,-1.73242 -5.8164,-0.61865 -7.4248,-0.24755 -1.60889,0.37158 -4.45508,0.49511 -6.1875,-0.3711 -1.73242,-0.86621 -1.97998,-3.83642 -1.97998,-3.83642 -1.85645,2.104 -1.97998,5.32128 -0.49512,7.17773 1.48487,1.85596 3.58887,2.4751 3.58887,2.4751 0,0 -1.11377,1.6084 -3.46533,1.73242 -2.35108,0.12353 -3.7124,-1.85645 -3.7124,-1.85645 -2.10352,3.21778 1.85644,6.80616 4.33154,6.80616 2.47461,0 4.82617,-2.22705 4.82617,-2.22705 0,0 1.11377,2.84619 -0.49512,4.20703 -1.60888,1.36133 -4.08398,0.8667 -4.08398,0.8667 0,0 1.73291,2.59863 4.08398,2.84619 2.35108,0.24756 4.82617,-2.72266 5.93994,-4.82617 1.11377,-2.10401 3.58887,-0.24756 10.27149,4.20703 6.68213,4.45508 16.0874,11.26172 25.61621,17.94384 9.52881,6.68262 15.83984,5.19776 21.90381,2.22754 6.06347,-2.96972 15.46875,-9.77636 28.09131,-10.51855 12.62207,-0.74268 20.29492,3.7124 20.29492,3.7124 0,0 6.68262,-4.33105 12.62207,-15.71631 5.94043,-11.38476 8.66308,-28.21484 8.66308,-28.21484 0,0 7.30079,-3.09375 13.9834,-2.72266 6.68262,0.3711 11.87989,1.85645 13.73633,9.03369 1.85645,7.17774 -3.21777,16.58252 -9.40527,22.89405 -6.1875,6.31103 -12.87012,14.47851 -13.73633,22.64599 -0.86621,8.16748 3.21777,16.45899 9.77637,20.66651 6.55859,4.20752 12.12793,3.83593 24.3789,3.83593 12.25098,0 16.83008,-2.22753 22.02735,8.53907 0,0 0.99023,-2.35157 1.60937,-8.04395 0.61817,-5.69238 -3.1084,-12.15381 -10.51953,-12.74609 -6.1875,-0.49512 -11.63184,1.73242 -11.63184,1.73242 0,0 1.11329,-1.11377 2.84571,-4.45508 1.73242,-3.34131 -0.24707,-10.51855 -0.24707,-10.51855 0,0 -2.84668,8.53857 -9.5293,12.74609 -6.68262,4.20752 -14.97363,4.0835 -19.30469,-0.37109 -4.33105,-4.45508 -3.83593,-13.73633 0.61914,-19.55274 4.45508,-5.8164 15.83985,-16.83008 20.29493,-25.86377 4.08691,-8.28906 3.24609,-21.07568 -6.31153,-28.21484 -10.27148,-7.67236 -26.48242,-4.20752 -26.48242,-4.20752 0,0 1.11328,-9.65234 5.32129,-14.479 4.20703,-4.82618 11.13769,-7.7959 15.96387,-6.31104 4.82617,1.48486 4.33105,8.53858 4.33105,8.53858 0,0 1.66504,-0.85743 2.35156,-5.32129 0.74219,-4.82618 -1.98046,-10.14746 -8.91015,-11.13721 0,0 0.58008,-0.54932 2.47461,-2.97022 2.22754,-2.84619 3.95996,-9.5288 3.09375,-17.69628 -0.86621,-8.16749 -2.10352,-16.33497 -1.23731,-19.67627 0.86621,-3.34131 3.34082,-4.94971 9.90039,-4.82618 z"
         style="fill:#2b63b7;fill-opacity:1;fill-rule:nonzero;stroke:none"
         id="path32" /><path
         d="m 223.39941,471.75977 c -3.3413,3.46533 -3.21728,8.66259 -1.2373,11.13769 1.97998,2.4751 5.93994,3.7124 5.93994,3.7124 0,0 -3.34912,2.06641 -6.1875,1.85645 -3.34131,-0.24756 -5.32129,-2.35156 -5.32129,-2.35156 -0.86621,8.16748 5.93994,9.90039 9.03369,9.15771 3.09375,-0.74267 5.07373,-2.35107 5.07373,-2.35107 0,0 0.99024,3.09375 -1.48486,5.44482 -2.4751,2.35108 -5.32129,1.73242 -5.32129,1.73242 0.98975,2.4751 4.82617,4.33155 7.67236,3.46485 2.8462,-0.86621 5.69239,-4.94971 7.05372,-7.05371 1.36132,-2.10352 4.57861,-1.23731 9.5288,1.73291 4.9502,2.96972 8.04395,5.69238 8.16748,6.92968 0.12403,1.2378 -2.72265,2.72266 -6.1875,9.03369 -3.46484,6.31153 -2.72265,11.75635 -2.72265,11.75635 0,0 -5.93994,-1.97998 -8.29102,0.74268 -2.35107,2.72217 -2.22754,6.92969 -2.22754,6.92969 2.59864,-3.09375 4.82618,-3.09375 11.1377,1.85644 6.31103,4.9502 11.50879,10.39502 19.42871,16.21143 7.91992,5.81591 17.94385,6.31103 24.87354,3.09375 6.92968,-3.21778 10.02343,-6.31153 10.02343,-6.31153 0,0 -2.2832,-0.25 -2.47461,-4.9497 -0.24707,-6.06397 5.81641,-6.93018 5.81641,-6.93018 0,0 -8.6626,-3.83643 -18.31494,-7.67236 -9.65283,-3.83643 -15.59278,-6.31153 -16.08789,-13.86035 -0.49463,-7.54834 1.73291,-15.96338 4.08398,-19.42872 2.35108,-3.46484 5.44483,-4.33105 8.53858,-4.08349 0,0 -3.83594,-4.82617 -8.29102,-4.08399 -4.45508,0.74268 -6.80615,2.97022 -8.91016,3.09375 -2.10351,0.12403 -6.93017,-1.85595 -10.39502,-5.07373 -3.46484,-3.21728 -3.46484,-6.80615 -2.22753,-9.28125 1.23779,-2.47509 3.83642,-3.46484 3.83642,-3.46484 0,0 -10.27148,-1.60889 -11.75635,5.56885 0,0 -1.36132,0.37109 -2.47509,-0.99024 -1.11377,-1.36132 -4.20752,-1.11377 -7.05371,0.3711 -2.8462,1.48535 -8.31641,1.47705 -10.02344,0.24756 -3.09375,-2.22754 -3.21778,-6.1875 -3.21778,-6.1875 z"
         style="fill:#2b63b7;fill-opacity:1;fill-rule:nonzero;stroke:none"
         id="path34" /><path
         d="m 213.48779,349.56055 h -18.33838 v -32.05078 h -19.02246 v 95.59277 H 212.521 c 22.05859,0 33.08789,-10.49609 33.08789,-31.48633 0,-12.46777 -4.59815,-21.65234 -13.78662,-27.55371 l 13.37255,-36.55273 h -20.81689 l -10.89014,32.05078 m 12.68067,31.77343 c 0,4.68262 -1.17188,8.38379 -3.51514,11.10254 -2.34375,2.71875 -5.72363,4.07911 -10.13232,4.07911 h -17.37159 v -30.36426 h 17.646 c 4.50147,0 7.8584,1.40332 10.0625,4.21484 2.20459,2.81152 3.31055,6.46582 3.31055,10.96777 z"
         style="fill:#2b63b7;fill-opacity:1;fill-rule:nonzero;stroke:none"
         id="path36" /><path
         d="m 316.54395,317.50977 -15.7168,38.0957 -12.68408,-1.4043 v -36.6914 h -19.02295 v 95.59277 h 19.02295 v -42.03223 l 12.68408,1.40723 15.4414,40.625 h 21.64161 l -20.40332,-47.9375 20.95605,-47.65527 z"
         style="fill:#2b63b7;fill-opacity:1;fill-rule:nonzero;stroke:none"
         id="path38" /><path
         d="m 416.71777,334.98535 0.41407,-15.88672 c -9.74121,-2.15332 -18.84082,-3.23242 -27.29493,-3.23242 -7.16894,0 -13.09765,0.98535 -17.78515,2.9502 -4.68653,1.96875 -8.36426,5.10839 -11.02832,9.42089 -2.66504,4.30762 -4.50196,9.37012 -5.51465,15.18262 -1.01367,5.8086 -1.5166,13.1211 -1.5166,21.93067 0,18.46191 2.54883,31.32421 7.64941,38.58691 5.10059,7.2627 14.49805,10.89746 28.19531,10.89746 7.90528,0 17.04688,-1.26855 27.43457,-3.79785 l -0.55371,-15.46484 c -9.09863,1.4082 -17.13867,2.11132 -24.12304,2.11132 -5.0586,0 -8.8711,-0.82324 -11.44336,-2.46289 -2.5752,-1.63965 -4.48145,-4.75683 -5.72266,-9.34668 -1.24219,-4.59472 -1.86035,-11.43554 -1.86035,-20.52343 0,-13.02832 1.26074,-21.67579 3.79004,-25.9375 2.52832,-4.26563 7.78808,-6.39649 15.78515,-6.39649 7.16993,0 15.02833,0.6543 23.57422,1.96875 z"
         style="fill:#2b63b7;fill-opacity:1;fill-rule:nonzero;stroke:none"
         id="path40" /><path
         d="m 179.15869,281.61816 h 6.34326 l 3.67481,-26.15039 h 0.65527 l 5.33692,26.15039 h 6.99951 l 5.33691,-26.15039 h 0.65625 l 3.67481,26.15039 h 6.34326 l -5.68653,-31.64062 h -9.14306 l -4.68115,24.05566 -4.68018,-24.05566 h -9.14307 z"
         style="fill:#2b63b7;fill-opacity:1;fill-rule:nonzero;stroke:none"
         id="path42" /><path
         d="m 223.49121,249.97754 6.69336,31.64062 H 241.646 l 6.69287,-31.64062 h -6.03662 l -1.18164,5.72363 h -10.41114 l -1.18164,-5.72363 h -6.03662 m 11.37451,26.33594 -3.01855,-15.0293 h 8.13672 l -3.01856,15.0293 z"
         style="fill:#2b63b7;fill-opacity:1;fill-rule:nonzero;stroke:none"
         id="path44" /><path
         d="m 254.36963,249.97754 6.69336,31.64062 h 11.46142 l 6.69288,-31.64062 h -6.03663 l -1.18115,5.72363 h -10.41162 l -1.18115,-5.72363 h -6.03711 m 11.37451,26.33594 -3.01807,-15.0293 h 8.13623 l -3.01806,15.0293 z"
         style="fill:#2b63b7;fill-opacity:1;fill-rule:nonzero;stroke:none"
         id="path46" /><path
         d="m 304.65332,249.97754 h -16.93018 v 31.64062 h 6.03809 V 255.6543 h 10.89209 z"
         style="fill:#2b63b7;fill-opacity:1;fill-rule:nonzero;stroke:none"
         id="path48" /><path
         d="m 308.5791,281.61816 h 6.34278 l 3.6748,-26.15039 h 0.65625 l 5.33594,26.15039 h 7 l 5.33691,-26.15039 h 0.65625 l 3.67481,26.15039 h 6.34277 l -5.68652,-31.64062 h -9.14258 l -4.68164,24.05566 -4.67969,-24.05566 h -9.14355 z"
         style="fill:#2b63b7;fill-opacity:1;fill-rule:nonzero;stroke:none"
         id="path50" /><path
         d="m 356.2168,249.97754 v 31.64062 h 6.03808 v -31.64062 z"
         style="fill:#2b63b7;fill-opacity:1;fill-rule:nonzero;stroke:none"
         id="path52" /><path
         d="m 380.17871,281.61816 0.0439,-26.28906 c 0,-3.38183 -0.70801,-5.66113 -2.12207,-6.83984 -1.41407,-1.17871 -3.82813,-1.76856 -7.23926,-1.76856 v 5.58301 c 1.16601,0 2.01172,0.23242 2.53711,0.69824 0.52441,0.46485 0.78711,1.33301 0.78711,2.60547 v 26.01074 h 5.99316 z"
         style="fill:#2b63b7;fill-opacity:1;fill-rule:nonzero;stroke:none"
         id="path54" /><path
         d="m 406.08008,249.97754 -4.98731,12.61035 -4.02343,-0.46582 v -12.14453 h -6.03809 v 31.64062 h 6.03809 v -13.91211 l 4.02343,0.46485 4.89942,13.44726 h 6.86816 l -6.47461,-15.86718 6.65039,-15.77344 z"
         style="fill:#2b63b7;fill-opacity:1;fill-rule:nonzero;stroke:none"
         id="path56" /></g></g></svg>