<?xml version="1.0" encoding="UTF-8"?>
<!DOCTYPE svg PUBLIC "-//W3C//DTD SVG 1.1//EN" "http://www.w3.org/Graphics/SVG/1.1/DTD/svg11.dtd">
<!-- Creator: CorelDRAW -->
<svg xmlns="http://www.w3.org/2000/svg" xml:space="preserve" width="289px" height="300px" style="shape-rendering:geometricPrecision; text-rendering:geometricPrecision; image-rendering:optimizeQuality; fill-rule:evenodd; clip-rule:evenodd"
viewBox="0 0 288.962 299.72"
 xmlns:xlink="http://www.w3.org/1999/xlink">
 <defs>
  <style type="text/css">
   <![CDATA[
    .fil0 {fill:#1F1A17}
    .fil3 {fill:white}
    .fil7 {fill:#1F538A}
    .fil4 {fill:#20578F}
    .fil6 {fill:#4A93CF}
    .fil8 {fill:#84B4CF}
    .fil2 {fill:#CC1A26}
    .fil1 {fill:#E75051}
    .fil5 {fill:white;fill-rule:nonzero}
   ]]>
  </style>
 </defs>
 <g id="Layer_x0020_1">
  <metadata id="CorelCorpID_0Corel-Layer"/>
  <g id="_186013720">
   <path id="_186015784" class="fil0" d="M144.499 0.897261l118.158 -0.897261 1.91773 5.15695c5.87196,15.7954 10.8467,31.9546 14.7722,48.3439 19.6978,82.2334 14.0371,177.198 -63.598,227.416 -20.5353,13.2832 -45.0228,18.8029 -69.2799,18.8029 -0.656649,0 -1.3133,-0.00511941 -1.97029,-0.0143343 -0.656649,0.00921493 -1.3133,0.0143343 -1.96995,0.0143343 -24.2571,0 -48.7442,-5.51974 -69.2799,-18.8029 -23.2988,-15.0708 -41.472,-35.1413 -53.8766,-59.9745 -12.4866,-24.9967 -18.1152,-52.7493 -19.181,-80.5368 -1.11569,-29.096 2.68803,-58.636 9.45964,-86.905 3.92556,-16.3893 8.90026,-32.5485 14.7722,-48.3439l1.91773 -5.15695 118.158 0.897261z"/>
   <path id="_186015472" class="fil1" d="M29.1253 4.03819l115.374 0.876101 115.374 -0.876101 0.936169 2.51875c35.3901,95.1991 41.2505,213.746 -47.2422,270.987 -19.8404,12.8337 -43.5627,18.1589 -67.098,18.1589 -0.656649,0 -1.31364,-0.00511941 -1.96995,-0.0150169 -0.656649,0.00989752 -1.3133,0.0150169 -1.97029,0.0150169 -23.5349,0 -47.2576,-5.32521 -67.098,-18.1589 -88.4927,-57.2414 -82.6323,-175.788 -47.2422,-270.987l0.93651 -2.51875z"/>
   <path id="_186015448" class="fil2" d="M29.1253 4.03819l95.6172 0.725932 -120.671 120.671c0.716034,-39.7805 10.0965,-81.1617 24.1172,-118.878l0.936851 -2.51875zm134.585 0.730027l96.1633 -0.730027 0.468255 1.25972 -1.6307 0 -227.809 227.809c-13.5029,-21.0766 -21.3691,-45.174 -24.8039,-70.7263l157.613 -157.613zm104.811 24.4527c9.01493,29.1693 14.9886,59.8131 16.2207,89.7186l-173.402 173.402c-12.7006,-2.87062 -24.9022,-7.67808 -35.9085,-14.7975 -10.8968,-7.0484 -20.3599,-15.0289 -28.513,-23.7803l2.29895 0 219.304 -219.305 0 -5.23818zm14.7637 130.147c-5.70848,47.4596 -26.4083,90.1616 -69.7178,118.176 -19.7049,12.746 -43.2388,18.0845 -66.6158,18.1572l136.334 -136.334z"/>
   <path id="_186015568" class="fil3" d="M29.1253 4.03819l115.374 0.876101 115.374 -0.876101 0.936169 2.51875c35.3898,95.1991 41.2505,213.746 -47.2422,270.987 -19.8404,12.8333 -43.5631,18.1589 -67.098,18.1589 -0.656649,0 -1.31364,-0.00511941 -1.96995,-0.0150169 -0.656649,0.00989752 -1.31364,0.0150169 -1.97029,0.0150169 -23.5349,0 -47.2576,-5.32555 -67.098,-18.1589 -88.4927,-57.2414 -82.632,-175.788 -47.2422,-270.987l0.93651 -2.51875zm3.43956 4.98767c-32.1287,86.9299 -43.3808,206.822 45.5607,264.352 19.0626,12.3309 41.8996,17.3633 64.4035,17.3633 0.656649,0 1.3133,-0.0150169 1.97029,-0.0150169 0.656649,0 1.3133,0.0150169 1.96995,0.0150169 22.5039,0 45.3409,-5.03238 64.4035,-17.3633 88.9415,-57.5309 77.6897,-177.423 45.5607,-264.352l-111.972 0.849821 -111.897 -0.849821z"/>
   <path id="_186015832" class="fil4" d="M32.5649 9.01254c-32.1287,86.9302 -43.3808,206.822 45.5607,264.352 19.0626,12.3309 41.8996,17.3637 64.4035,17.3637 0.656649,0 1.3133,-0.0150169 1.97029,-0.0150169 0.656649,0 1.3133,0.0150169 1.96995,0.0150169 22.5039,0 45.3409,-5.03272 64.4035,-17.3637 88.9415,-57.5309 77.6897,-177.422 45.5607,-264.352l-111.972 0.849821 -111.897 -0.849821zm3.4614 4.98801c-8.66374,24.0513 -15.2306,49.1855 -18.8971,74.4669 -9.94291,68.557 1.44435,140.468 63.6912,180.732 18.2466,11.803 40.1781,16.5681 61.7086,16.5681 0.656649,0 1.3133,-0.0150169 1.97029,-0.0150169 0.656649,0 1.3133,0.0150169 1.96995,0.0150169 21.5305,0 43.462,-4.76514 61.7086,-16.5681 22.766,-14.7258 39.9832,-34.501 51.2394,-59.1697 27.0526,-59.2899 15.0712,-136.251 -6.44601,-196.029l-108.548 0.8232 -108.397 -0.8232z"/>
   <path id="_186015352" class="fil5" d="M69.2188 227.562l-4.68118 -4.66651 0 5.29858 4.57061 4.55593 0 2.77574 -4.57061 -4.55627 0 10.0927 -3.84945 -3.83819 0 -21.0141 8.53064 8.50436 0 2.84775zm12.2514 24.3851c0,1.41773 -0.661086,1.96449 -1.98326,1.64128 -1.01296,-0.217063 -2.21158,-0.884975 -3.59553,-2.00339 -1.38463,-1.11842 -2.58325,-2.38701 -3.59519,-3.80577 -1.34367,-1.85391 -2.015,-3.47744 -2.015,-4.87129l0 -13.9855c0,-1.39384 0.671325,-1.93275 2.015,-1.61671 1.01194,0.241295 2.21056,0.921493 3.59519,2.03991 1.34299,1.08463 2.54161,2.34127 3.59553,3.76891 1.32217,1.81363 1.98326,3.42932 1.98326,4.84705l0 13.9855zm-4.30815 -3.37266l0 -14.3456c0,-0.86518 -0.423545,-1.63992 -1.27064,-2.32421 -0.847432,-0.684294 -1.27098,-0.594192 -1.27098,0.270987l0 14.3456c0,0.88907 0.423545,1.67575 1.27098,2.36039 0.847091,0.684294 1.27064,0.581906 1.27064,-0.307164zm18.3807 12.3384c0,1.41773 -0.743679,2.04674 -2.2307,1.8877 -1.1389,-0.0907841 -2.48667,-0.609892 -4.04331,-1.5563 -1.55766,-0.946407 -2.90509,-2.06585 -4.04399,-3.35867 -1.51091,-1.68736 -2.26585,-3.22727 -2.26585,-4.62112l0 -13.9855c0,-1.39384 0.754942,-2.01636 2.26585,-1.86688 1.1389,0.115016 2.48632,0.64641 4.04399,1.59248 1.50988,0.91808 2.85799,2.02558 4.04331,3.32249 1.48702,1.64913 2.2307,3.18256 2.2307,4.6003l0 13.9855zm-4.84501 -2.83717l0 -14.3456c0,-0.86518 -0.476446,-1.58736 -1.429,-2.16619 -0.953575,-0.579175 -1.42968,-0.436515 -1.42968,0.428665l0 14.3459c0,0.88907 0.476105,1.62319 1.42968,2.20237 0.952551,0.578834 1.429,0.423887 1.429,-0.465183zm21.3551 -5.8153l-4.79347 -1.62012 0 18.3469 -5.55319 -1.87712 0 -18.3466 -4.83443 -1.63377 0 -2.70373 15.1811 5.13101 0 2.70339zm16.6975 16.6613c0,3.3399 -2.49588,4.60473 -7.48696,3.79314 -5.10336,-0.830026 -7.65522,-2.5911 -7.65522,-5.2822l0 -14.0937c0,-2.73922 2.55185,-3.69382 7.65522,-2.8638 4.99108,0.811596 7.48696,2.58666 7.48696,5.32623l0 3.06413c0,2.01841 -1.49453,2.86857 -4.48358,2.55083 2.98905,0.726273 4.48358,1.91841 4.48358,3.57676l0 3.92863zm-5.58322 -12.9108c0,-1.75425 -0.634465,-2.7341 -1.90374,-2.94059 -1.15562,-0.188053 -1.73411,0.137883 -1.73411,0.979513l0 5.47845 0.169623 0.0276448c2.28394,0.371328 3.42591,-0.0675762 3.42591,-1.31705l0.0423204 -2.22797zm-0.295902 13.0364l0 -4.82999c0,-0.745044 -0.296584,-1.2976 -0.888388,-1.65835 -0.367232,-0.227984 -1.04368,-0.42218 -2.03036,-0.582588l-0.423204 -0.0689413 0 6.59618c0,0.88907 0.563817,1.42524 1.69213,1.60886 1.09931,0.178838 1.64981,-0.176108 1.64981,-1.06518zm23.4496 5.00849l-5.98527 -0.174742 0 -8.29037 -3.53102 -0.103412 0 8.29037 -6.02895 -0.176108 0 -17.5179c0,-1.41773 0.918763,-2.47233 2.75697,-3.16379 1.46347,-0.533783 3.14263,-0.772689 5.0375,-0.717741 1.86585,0.0549483 3.53102,0.391464 4.99517,1.01091 1.83718,0.798969 2.75561,1.90715 2.75561,3.32488l0 17.5179zm-5.98527 -11.2047l0 -6.59652c0,-0.88907 -0.58839,-1.35084 -1.76551,-1.38531 -1.17712,-0.0341294 -1.76551,0.39317 -1.76551,1.28224l0 6.59652 3.53102 0.103071zm21.5585 10.6323l-13.2384 0.774395 0 -21.0503 5.974 -0.349485 0 18.1667 7.26444 -0.425252 0 2.88393zm14.7302 -2.79963l-12.877 2.68564 0 -21.0503 5.81155 -1.21193 0 18.1667 7.06546 -1.47405 0 2.88393zm23.2397 -25.9687l0 3.28017 -5.22384 2.52284 0 -4.64979c0,-0.86518 -0.497265,-1.05733 -1.49248,-0.576786 -0.995554,0.480883 -1.49282,1.15357 -1.49282,2.01875l0 14.4538c0,0.88907 0.497265,1.09351 1.49282,0.612622 0.995212,-0.480542 1.49248,-1.16552 1.49248,-2.05459l0 -4.72146 5.22384 -2.52284 0 4.61361c0,2.76346 -2.23923,5.22657 -6.71632,7.38901 -4.47743,2.16278 -6.71666,1.86244 -6.71666,-0.901015l0 -14.0937c0,-2.66721 2.23923,-5.0822 6.71666,-7.24498 4.47709,-2.16244 6.71632,-1.53787 6.71632,1.87439zm11.6859 8.1518l-10.1661 7.13645 0 -21.0503 4.58801 -3.22045 0 18.1667 5.5781 -3.916 0 2.88359zm11.7722 -13.7709c0,1.41773 -0.638561,3.05219 -1.91602,4.90337 -0.977806,1.44777 -2.13513,2.75083 -3.47164,3.90918 -1.33719,1.15801 -2.49452,1.86039 -3.47232,2.10612 -1.29657,0.354604 -1.94572,-0.164504 -1.94572,-1.55801l0 -17.4821 4.1904 -3.63 0 17.5899c0,0.88907 0.40887,0.97883 1.22763,0.270305 0.81774,-0.708526 1.22661,-1.50749 1.22661,-2.39656l0 -17.5899 4.16105 -3.60406 0 17.4817zm10.5419 -13.0303c0,3.3399 -1.53002,6.70847 -4.58972,10.1054 -3.12898,3.47369 -4.69381,3.86481 -4.69381,1.17337l0 -14.0934c0,-2.73956 1.56483,-5.84568 4.69381,-9.31937 3.0597,-3.3969 4.58972,-3.7259 4.58972,-0.986339l0 3.06379c0,2.01875 -0.916374,4.12897 -2.74912,6.33134 1.83275,-1.79384 2.74912,-1.86176 2.74912,-0.203752l0 3.92897zm-3.42283 -8.20299c0,-1.75425 -0.389075,-2.19964 -1.16688,-1.33582 -0.708867,0.787023 -1.06313,1.60033 -1.06313,2.44162l0 5.47879 0.103412 -0.115016c1.39999,-1.55459 2.10032,-2.95663 2.10032,-4.20644l0.0262796 -2.26312zm-0.18191 13.2859l0 -4.82999c0,-0.745385 -0.181568,-1.04811 -0.544705,-0.909206 -0.224571,0.0808866 -0.639243,0.457675 -1.24436,1.129l-0.259042 0.287711 0 6.59652c0,0.88907 0.345389,0.94982 1.03719,0.18191 0.674055,-0.748116 1.01091,-1.56688 1.01091,-2.45595z"/>
   <path id="_186014944" class="fil5" d="M78.9638 43.015l-5.15524 0 0 -8.53064 -3.04161 0 0 8.53064 -5.1921 0 0 -18.0251c0,-1.45869 0.791119,-2.57131 2.37336,-3.33785 1.26074,-0.593168 2.70748,-0.890094 4.33955,-0.890094 1.60681,0 3.04093,0.296926 4.30269,0.890094 1.58224,0.766546 2.37336,1.87916 2.37336,3.33785l0 18.0251zm-5.15524 -11.349l0 -6.78731c0,-0.914667 -0.507162,-1.372 -1.5208,-1.372 -1.01364,0 -1.5208,0.457334 -1.5208,1.372l0 6.78731 3.04161 0zm21.5111 11.3859l-5.45183 0 -3.74638 -10.904 0 10.904 -5.1549 0 0 -21.6592 5.1549 0 0 9.60571 4.19143 -9.60571 5.00678 0 -4.26481 9.90161 4.26481 11.7576zm23.4029 -3.78324c0,1.43446 -0.753576,2.55936 -2.26209,3.37471 -1.23617,0.667912 -2.63274,1.0017 -4.1904,1.0017 -1.70681,0 -3.15321,-0.407505 -4.33955,-1.22422 -1.08804,0.816716 -2.49793,1.22422 -4.22795,1.22422 -1.53343,0 -2.94298,-0.333785 -4.22829,-1.0017 -1.55766,-0.815351 -2.3365,-1.94025 -2.3365,-3.37471l0 -17.8759 5.19176 0 0 18.0241c0,0.915691 0.507162,1.37302 1.5208,1.37302 0.346072,0 0.679857,-0.111262 1.0017,-0.333785 0.321499,-0.222523 0.481565,-0.507504 0.481565,-0.853576l0 -18.2097 5.19278 0 0 17.8759c0,1.01364 0.494193,1.52115 1.48326,1.52115 1.03924,0 1.55766,-0.457334 1.55766,-1.37302l0 -18.0241 5.15524 0 0 17.8759zm15.3545 3.74638l-5.1549 0 0 -8.53064 -3.04195 0 0 8.53064 -5.19176 0 0 -18.0251c0,-1.45869 0.791119,-2.57131 2.37336,-3.33785 1.26074,-0.593168 2.70714,-0.890094 4.33955,-0.890094 1.60647,0 3.04093,0.296926 4.30235,0.890094 1.58224,0.766546 2.37336,1.87916 2.37336,3.33785l0 18.0251zm-5.1549 -11.349l0 -6.78731c0,-0.914667 -0.507162,-1.372 -1.5208,-1.372 -1.01364,0 -1.52115,0.457334 -1.52115,1.372l0 6.78731 3.04195 0zm28.2984 7.71392c0,1.45869 -0.791119,2.57165 -2.37336,3.33819 -1.21193,0.618424 -2.64605,0.926954 -4.30269,0.926954 -1.65664,0 -3.09076,-0.30853 -4.30269,-0.926954 -1.60681,-0.791119 -2.41022,-1.90374 -2.41022,-3.33819l0 -17.9872 5.1921 0 0 18.0985c0,0.914667 0.507162,1.372 1.5208,1.372 1.01364,0 1.5208,-0.457334 1.5208,-1.372l0 -18.0985 5.15524 0 0 17.9872zm15.3179 3.67198l-5.15524 0 0 -18.1732c0,-0.914667 -0.507162,-1.372 -1.5208,-1.372 -1.01364,0 -1.52115,0.457334 -1.52115,1.372l0 18.1732 -5.19176 0 0 -18.0619c0,-1.45869 0.791119,-2.57131 2.37336,-3.33785 1.26074,-0.593168 2.70714,-0.890094 4.33955,-0.890094 1.60681,0 3.04093,0.296926 4.30235,0.890094 1.58258,0.766546 2.3737,1.87916 2.3737,3.33785l0 18.0619zm7.15761 0l-5.1549 0 0 -21.6592 5.1549 0 0 21.6592zm15.578 -18.8776l-4.45047 0 0 18.8776 -5.15592 0 0 -18.8776 -4.48733 0 0 -2.78154 14.0937 0 0 2.78154zm12.907 18.8776l-11.4238 0 0 -21.6223 11.4238 0 0 2.92967 -6.26854 0 0 5.45183 6.1194 0 0 2.85629 -6.1194 0 0 7.41699 6.26854 0 0 2.96755zm15.2425 -5.08152c0,3.38802 -2.29895,5.08152 -6.89857,5.08152l-6.49004 0 0 -21.6592 6.52758 0c4.57436,0 6.86103,1.70579 6.86103,5.11736l0 11.4603zm-5.19176 1.0389l0 -13.6855c0,-0.939923 -0.779174,-1.40954 -2.33684,-1.40954l-0.705113 0 0 16.5039 0.705113 0c1.55766,0 2.33684,-0.46962 2.33684,-1.40886z"/>
   <path id="_186014704" class="fil6" d="M64.1823 52.9121c-17.0876,61.0834 -23.1168,144.514 37.6478,183.819 11.835,7.65556 26.7861,10.3651 40.6989,10.3651 0.419109,0 0.838559,-0.00341294 1.25767,-0.00955622l0.718423 -0.0102388 0.706478 0.0102388c0.419109,0.00614329 0.838559,0.00955622 1.25767,0.00955622 13.9122,0 28.8639,-2.70953 40.6986,-10.3647 43.4119,-28.081 52.7275,-78.6839 48.2794,-127.569l-11.3415 0c-18.893,0 -34.2147,-15.3217 -34.2147,-34.2147l0 -21.7704 -45.3951 0.344365 -80.3136 -0.609551z"/>
   <path id="_186014536" class="fil3" d="M63.5451 52.0647c-18.1094,64.295 -22.324,146.466 37.8273,185.374 11.978,7.74771 27.0871,10.4999 41.1566,10.4999 0.423204,0 0.846408,-0.00307164 1.26995,-0.00955622l0.699993 -0.00989752 0.700335 0.00989752c0.423545,0.00648458 0.846408,0.00955622 1.26995,0.00955622 14.0692,0 29.1786,-2.75219 41.1563,-10.4996 43.2433,-27.9721 53.22,-78.3034 48.6838,-128.277l-2.23718 0 -3.4085 0 -6.55796 0c-18.893,0 -34.2147,-15.3217 -34.2147,-34.2147l0 -16.9947 0 -5.5177 0 -0.100682 -45.3921 0.344707 -80.9538 -0.61467zm167.575 62.7172c3.20509,45.5651 -6.39107,91.9657 -46.5463,117.94 -11.0292,7.13406 -25.1479,9.59854 -38.1044,9.59854 -0.395559,0 -0.791801,-0.00307164 -1.18736,-0.00887364l-0.782928 -0.0112627 -0.78088 0.0112627c-0.397266,0.00580199 -0.793508,0.00887364 -1.18907,0.00887364 -12.9572,0 -27.0748,-2.46448 -38.1051,-9.59889 -57.5653,-37.2365 -52.3442,-116.452 -36.6068,-175.006l76.6392 0.581906 39.8153 -0.302386 0 16.9524c0,21.9947 17.8394,39.8341 39.8341,39.8341l7.01427 0z"/>
   <path id="_186014824" class="fil7" d="M80.5248 74.1051c-3.43444,15.006 -5.86104,30.398 -6.67741,45.775 -1.9952,37.5744 5.69858,77.3453 39.4249,99.1615 8.24873,5.3351 19.5903,6.98662 29.2567,6.98662 0.316721,0 0.634124,-0.00238906 0.951186,-0.00716717l1.02456 -0.0146756 1.02081 0.0146756c0.314673,0.00477811 0.629004,0.00716717 0.943677,0.00716717 9.66544,0 21.008,-1.65152 29.2557,-6.98628 10.8456,-7.01563 19.4862,-16.2193 25.8748,-27.4366 10.5651,-18.5486 13.9616,-40.7211 13.8374,-62.0506 -26.4083,-4.16276 -46.6176,-27.0332 -46.6176,-54.607l0 -0.542316 -24.3667 0.184981 -63.9281 -0.48532z"/>
   <path id="_186014560" class="fil3" d="M79.8552 73.2573c-11.5132,49.8357 -14.4159,115.847 32.9594,146.492 8.39275,5.42828 19.8875,7.12178 29.7144,7.12178 0.318768,0 0.639926,-0.00238906 0.963472,-0.00750846l1.00648 -0.0143343 1.01364 0.0143343c0.317744,0.00511941 0.638902,0.00750846 0.956646,0.00750846 9.82585,0 21.3216,-1.6935 29.7134,-7.12143 29.0557,-18.7947 39.1942,-50.8947 40.0382,-84.4057l0.00204776 0.000341294 0 -0.0856647c0.0460747,-1.8563 0.0658697,-3.71669 0.0563135,-5.57981l-0.10034 -0.0146756c-0.395218,-0.056996 -0.789754,-0.118088 -1.18292,-0.183275l-0.0245731 -0.00409552 -0.0296926 -0.00511941 -0.00273035 -0.000341294c-26.1626,-4.37095 -46.1194,-27.1233 -46.1194,-54.5234l0 -1.29146 0 -0.0931732 -24.3633 0.18464 -64.6011 -0.490439zm130.77 61.0929c-0.394877,19.6165 -4.04331,38.8566 -13.1763,54.8909 -6.01018,10.5518 -14.1162,19.1906 -24.3189,25.7899 -7.41222,4.79449 -17.9875,6.22042 -26.6612,6.22042 -0.289758,0 -0.580882,-0.00170647 -0.870299,-0.00648458l-1.10033 -0.0160408 -1.08873 0.0160408c-0.294878,0.00477811 -0.588732,0.00648458 -0.880879,0.00648458 -8.67466,0 -19.2493,-1.42593 -26.6625,-6.22076 -32.1751,-20.8128 -39.1474,-59.1482 -37.2491,-94.8977 0.734123,-13.8272 2.79827,-27.6714 5.73066,-41.2221l60.0656 0.45631 18.9357 -0.143343c1.88019,27.0779 21.4803,49.2924 47.2763,55.1264z"/>
   <g>
    <path id="_186014776" class="fil8" d="M136.408 92.8162c2.56516,3.99518 2.21158,5.64875 3.38905,11.7439 1.31262,-0.112968 2.62523,-0.225595 3.93785,-0.338563 2.41704,3.76242 4.83443,7.5245 7.25147,11.2869 24.2349,2.55356 5.95011,13.6128 16.7981,27.3602 5.98322,7.58218 11.9675,15.165 17.951,22.7476 -0.00580199,5.07265 -0.0112627,10.1446 -0.0170647,15.2169 -24.1759,-0.0624567 -48.3521,-0.124572 -72.528,-0.187029 -1.42558,-1.17098 -2.85117,-2.34196 -4.27675,-3.51294 -0.1529,-0.916374 -0.305458,-1.83309 -0.458357,-2.74946 3.27949,-1.42593 3.6928,-0.631735 3.05492,-3.81874 -1.32354,-0.814668 -2.64742,-1.62934 -3.97095,-2.444 -0.102047,-1.83309 -0.203752,-3.66618 -0.305799,-5.49927 1.27268,-0.407163 2.54571,-0.814327 3.81839,-1.22183 0.305458,-1.83309 0.611257,-3.66584 0.916715,-5.49892 -6.21359,-4.65968 -3.66891,-6.08185 -7.33201,-16.6493 -0.458016,-1.27268 -0.916374,-2.54571 -1.37473,-3.81874 4.23102,-0.445388 7.11666,0.104095 11.3033,-6.7211 0.50921,-1.17098 1.01876,-2.34196 1.52763,-3.51328 -1.99384,-1.39521 -1.33821,-0.498971 -2.444,-3.81839 2.70919,-4.51429 3.59826,-7.5443 -0.458357,-11.1507 0,-0.66211 0,-1.32354 0,-1.98565 4.42965,0 8.85964,0 13.2893,0 0.101706,-3.00407 0.203752,-6.00779 0.305458,-9.01186 0.814327,-0.356652 1.62934,-0.712963 2.44366,-1.06961 -0.948114,-4.73989 -0.117064,-5.56206 4.27709,-7.02621 0.967226,0.560063 1.93479,1.12047 2.90202,1.68019z"/>
    <g>
     <g>
      <path id="_186015088" class="fil3" d="M135.256 99.1929l4.49211 0 0 48.2217 -4.49211 0 0 -48.2217zm0.984632 0.984291l0 46.2531 2.52284 0 0 -46.2531 -2.52284 0z"/>
      <path id="_186014752" class="fil3" d="M139.106 85.0763l4.49177 0 0 62.3383 -4.49177 0 0 -62.3383zm0.984632 0.984291l0 60.3697 2.52284 0 0 -60.3697 -2.52284 0z"/>
      <path id="_186014584" class="fil3" d="M143.598 90.5305l4.49211 0 0 56.8841 -4.49211 0 0 -56.8841zm0.984632 0.984291l0 54.9155 2.52284 0 0 -54.9155 -2.52284 0z"/>
      <path id="_186014680" class="fil3" d="M148.09 114.272l4.49177 0 0 33.1423 -4.49177 0 0 -33.1423zm0.984291 0.984291l0 31.1738 2.52318 0 0 -31.1738 -2.52318 0z"/>
     </g>
     <path id="_186013984" class="fil3" d="M131.887 146.43l24.0626 0 0 22.779 -24.0626 0 0 -22.779zm0.984974 0.984974l22.0923 0 0 20.8083 -22.0923 0 0 -20.8083z"/>
     <path id="_186014344" class="fil3" d="M143.919 168.409l-14.9449 -0.233786c1.80032,6.75352 -7.95795,24.938 -18.608,35.5881 10.7787,7.69856 17.8957,9.90605 29.568,10.4385l0 0.149145c1.38838,0 2.71328,-0.00955622 3.98495,-0.0303751 1.27132,0.0208189 2.59622,0.0303751 3.9846,0.0303751l0 -0.149145c11.6722,-0.532418 18.7892,-2.73991 29.568,-10.4385 -10.6497,-10.6501 -20.408,-28.8345 -18.608,-35.5881l-14.9446 0.233786zm-13.7732 0.769959c0.692826,7.39242 -7.33065,20.452 -11.048,25.6673 -2.18838,3.07062 -4.5945,6.0566 -7.21768,8.78046 9.48865,6.62929 16.3128,9.05316 28.0991,9.59104l0.940264 0.0426617 0 0.10034c0.999991,-0.00853234 1.99964,-0.025597 2.99963,-0.025597 0.999991,0 1.9993,0.0170647 2.99929,0.025597l0 -0.10034 0.940264 -0.0426617c11.7866,-0.537879 18.6104,-2.96175 28.0991,-9.59104 -2.62318,-2.72387 -5.0293,-5.70984 -7.21734,-8.78046 -3.71737,-5.21531 -11.7412,-18.2749 -11.048,-25.6673l-13.7732 0.215356 -13.7732 -0.215356z"/>
     <polygon id="_186014488" class="fil3" points="126.007,178.497 161.619,178.497 161.619,175.449 126.007,175.449 "/>
     <path id="_186013888" class="fil3" d="M164.108 212.296c-1.21466,0.847432 -2.41977,1.44947 -3.62625,1.87439 1.20033,-0.534125 2.39725,-1.15494 3.62625,-1.87439z"/>
     <path id="_186014200" class="fil3" d="M163.552 211.483c-1.48975,-1.5464 -5.59619,-5.21838 -6.83884,-6.96239 -2.1109,-2.96175 -5.06377,-11.1804 -4.67026,-15.3787l-7.82143 0.122524 -0.302728 -0.00477811 0 -0.984632 0.294878 0.00477811 8.91186 -0.139248 -0.102388 1.09351c-0.348461,3.71566 2.33581,11.69 4.49177,14.7152 0.824224,1.15664 2.20851,2.44673 3.23512,3.44399 1.16313,1.12968 2.38837,2.24128 3.51089,3.40679l0.156995 0.163138c-0.290441,0.178838 -0.579175,0.352215 -0.865862,0.51979z"/>
     <path id="_186014392" class="fil3" d="M119.73 208.43l0.0675762 -0.0703065c1.88701,-1.95903 3.60338,-4.09075 5.18118,-6.30472 2.86072,-4.01293 8.35692,-13.1685 7.89515,-18.092l-0.102729 -1.09453 11.1402 0.174401 11.1555 -0.174401 -0.102388 1.09453c-0.46177,4.9235 5.03442,14.079 7.89481,18.092 1.5778,2.21397 3.29451,4.34569 5.18152,6.30472l0.0675762 0.0703065c-0.309212,0.156995 -0.617742,0.309553 -0.92593,0.458016 -1.85937,-1.94845 -3.56788,-4.07539 -5.12555,-6.26103 -2.71636,-3.81089 -8.57978,-13.3541 -8.0733,-18.7561l-10.0644 0.157336 -10.0644 -0.157336c0.506139,5.402 -5.35729,14.9453 -8.07364,18.7561 -1.55732,2.18564 -3.26584,4.31259 -5.12521,6.26103 -0.308188,-0.148463 -0.616718,-0.301021 -0.92593,-0.458016z"/>
     <polygon id="_186013840" class="fil3" points="143.066,183.043 144.051,183.043 144.051,214.664 143.066,214.664 "/>
    </g>
   </g>
   <g>
    <path id="_186013792" class="fil0" d="M224.105 50.9255c13.2651,0 24.0226,10.7576 24.0226,24.0223 0,13.2651 -10.7576,24.0226 -24.0226,24.0226 -13.2647,0 -24.0223,-10.7576 -24.0223,-24.0226 0,-13.2647 10.7576,-24.0223 24.0223,-24.0223z"/>
    <g>
     <path id="_186013768" class="fil3" d="M224.105 52.4449c12.4262,0 22.5032,10.077 22.5032,22.5029 0,12.4258 -10.077,22.5029 -22.5032,22.5029 -12.4258,0 -22.5029,-10.077 -22.5029,-22.5029 0,-12.4258 10.077,-22.5029 22.5029,-22.5029z"/>
     <path id="_186014176" class="fil0" d="M224.105 83.549l4.53306 -0.202728c0.4959,-0.0143343 0.441634,0.00443682 0.747433,0.394536 0.695898,0.886681 3.51567,3.77403 3.51567,4.80337 0,0.729003 -2.56585,3.88392 -3.04263,4.5218 -0.496582,0.664499 -0.956305,1.11671 -1.48565,1.42354 -0.944018,0.547094 -1.98428,0.682246 -3.97983,0.682246 -0.0972687,0 -0.193172,-0.00102388 -0.288052,-0.00238906 -0.0945384,0.00136517 -0.190442,0.00238906 -0.287711,0.00238906 -1.99554,0 -3.03581,-0.135152 -3.97983,-0.682246 -0.529347,-0.306823 -0.989069,-0.759037 -1.48565,-1.42354 -0.476787,-0.637878 -3.04263,-3.7928 -3.04263,-4.5218 0,-1.02934 2.81977,-3.91669 3.51567,-4.80337 0.305799,-0.390099 0.251533,-0.40887 0.747092,-0.394536l4.53306 0.202728zm0 -31.2932c12.5306,0 22.6923,10.1617 22.6923,22.6919 0,12.5303 -10.1617,22.6919 -22.6923,22.6919 -12.5303,0 -22.6919,-10.1617 -22.6919,-22.6919 0,-12.5303 10.1617,-22.6919 22.6919,-22.6919zm0.417402 0.45904c5.65114,0.104095 10.7876,2.3167 14.6552,5.88493 0.0518766,0.166893 0.0993165,0.339929 0.0993165,0.645728 0,0.109555 0,0.219452 0,0.329007 0,0.317744 -0.0320816,1.61568 -0.489074,1.50408 -2.56926,-0.957329 -4.9235,-0.891459 -7.49583,-1.04197 -0.305117,-0.0180886 -0.556991,-0.151193 -0.748798,-0.280543 -1.00374,-0.678492 -1.8894,-1.34333 -2.99792,-1.93548 -0.409552,-0.219111 -3.02284,-1.51466 -3.02284,-1.78121l0 -3.32454zm21.2978 17.4251c0.341635,1.54845 0.523203,3.15697 0.523203,4.8078 0,3.93853 -1.02559,7.63747 -2.8225,10.8463 -0.0170647,0.00375423 -0.0337881,0.0054607 -0.0501702,0.0054607 -0.283615,0 -1.73241,-0.958011 -2.48837,-1.37644 -0.441634,-0.244708 -0.391464,-0.160408 -0.351191,-0.688731 0.0460747,-0.59897 0.0921493,-1.19828 0.138224,-1.79725 -0.00409552,-0.658356 -0.00819105,-1.31637 -0.0122866,-1.97438 -0.0638219,-1.12286 -0.127644,-2.24605 -0.191466,-3.36891 0.0238906,-0.0467572 2.98734,-5.46206 2.98734,-7.48286 0.852552,0.0187712 1.71466,0.524568 2.26721,1.029zm-2.6481 16.2558c-2.78871,4.63409 -7.21836,8.16921 -12.4849,9.79922 -0.669618,-0.13447 -1.24982,-0.5488 -1.64674,-0.985315 -0.396925,-0.435832 -0.243342,-0.366208 0.151876,-0.707843 1.472,-1.27337 3.38905,-4.13648 4.29859,-5.69005 0.244708,-0.417402 2.29895,-1.22115 3.4498,-1.89486 1.1505,-0.674055 2.25493,-1.46313 3.01567,-1.93036 0.326618,-0.200681 0.341976,-0.197609 0.703406,-0.0337881 0.743679,0.338222 2.21875,1.19009 2.51226,1.44299zm-25.6489 9.79922c-5.26616,-1.63036 -9.69615,-5.16514 -12.4849,-9.79922 0.293513,-0.252899 1.76858,-1.10477 2.51226,-1.44299 0.36143,-0.163821 0.376788,-0.166893 0.703406,0.0337881 0.760402,0.467231 1.86517,1.2563 3.01567,1.93036 1.15084,0.673714 3.20509,1.47746 3.4498,1.89486 0.909548,1.55357 2.82659,4.41668 4.29859,5.69005 0.395218,0.341635 0.5488,0.272011 0.151876,0.707843 -0.396925,0.436515 -0.977124,0.850845 -1.64674,0.985315zm-12.8337 -10.4009c-1.79691,-3.20884 -2.8225,-6.90778 -2.8225,-10.8463 0,-1.65084 0.181568,-3.25935 0.522862,-4.8078 0.552896,-0.504432 1.415,-1.01023 2.26756,-1.029 0,2.0208 2.96311,7.43611 2.987,7.48286 -0.0634806,1.12286 -0.127303,2.24605 -0.191124,3.36891 -0.00409552,0.658014 -0.00819105,1.31603 -0.0122866,1.97438 0.0457334,0.59897 0.0921493,1.19828 0.138224,1.79725 0.0402727,0.528323 0.0904428,0.444023 -0.351191,0.688731 -0.755966,0.418426 -2.20476,1.37644 -2.48837,1.37644 -0.0167234,0 -0.0334468,-0.00170647 -0.0501702,-0.0054607zm4.3433 -27.1943c3.86822,-3.56754 9.00401,-5.78083 14.6552,-5.88493l0 3.32454c0,0.26655 -2.61329,1.5621 -3.02284,1.78121 -1.10852,0.592145 -1.99452,1.25698 -2.99792,1.93548 -0.191807,0.12935 -0.443682,0.262455 -0.748798,0.280543 -2.57233,0.150511 -4.92657,0.0846408 -7.49583,1.04197 -0.456992,0.111603 -0.489074,-1.18634 -0.489074,-1.50408 0,-0.109555 0,-0.219452 0,-0.329007 0,-0.305799 0.0474398,-0.478835 0.0993165,-0.645728zm15.0722 8.28013c0.507162,0.00375423 1.01432,0.00750846 1.52149,0.0112627 0.636513,0.0494876 1.27303,0.0986339 1.90954,0.148121 0.520473,0.0402727 0.570643,-0.0269622 0.850845,0.396242 0.338905,0.512282 0.790778,1.07064 1.13821,1.64162 0.434808,0.714328 0.869616,1.37917 1.27951,2.09145 0.335833,0.584295 2.22285,3.91293 2.22285,4.43682 0,0.484978 -1.5249,3.19553 -1.82524,3.68358 -0.172695,0.280202 -1.23036,1.95288 -1.78428,2.8382 -0.316379,0.505797 -0.227302,0.541974 -0.792484,0.575762 -1.46483,0.0887364 -2.92967,0.177131 -4.3945,0.265527 -0.0597264,-0.0324229 -0.0996578,-0.0368597 -0.125937,-0.0211602 -0.0259383,-0.0156995 -0.0658697,-0.0112627 -0.125596,0.0211602 -1.46483,-0.0883951 -2.92967,-0.17679 -4.3945,-0.265527 -0.565182,-0.0337881 -0.476105,-0.0699652 -0.792484,-0.575762 -0.55392,-0.885316 -1.61159,-2.558 -1.78428,-2.8382 -0.30068,-0.48805 -1.82524,-3.1986 -1.82524,-3.68358 0,-0.523886 1.88667,-3.85252 2.22285,-4.43682 0.409894,-0.71228 0.844702,-1.37712 1.27951,-2.09145 0.347437,-0.570984 0.79931,-1.12934 1.13821,-1.64162 0.280202,-0.423204 0.330372,-0.355969 0.850504,-0.396242 0.636854,-0.0494876 1.27337,-0.0986339 1.90988,-0.148121 0.507162,-0.00375423 1.01432,-0.00750846 1.52115,-0.0112627zm-4.64603 -0.153241c0,-0.626615 -1.69794,-4.05832 -2.2894,-5.62316 -0.22696,-0.600677 -0.129692,-0.543681 -0.795214,-0.541633 -2.40851,0.00819105 -4.55456,0.0856647 -6.3955,0.715352 -1.19726,0.409552 -1.43446,0.805112 -2.08189,1.78258 -0.537879,0.812279 -0.951868,1.47234 -1.45732,2.32455 -1.16006,1.95561 -1.85459,3.15901 -0.938899,5.67879 0.288052,0.793508 1.9778,5.03579 2.61021,5.03579 0.109897,0 0.219452,0 0.329007,0l5.55558 -0.6331c0.367573,-0.104436 0.666888,-0.287028 0.831733,-0.626957 0.292489,-0.602725 0.570643,-1.0604 0.876101,-1.67268 0.389416,-0.780197 3.7556,-6.39038 3.7556,-6.43953zm9.2924 0c0,-0.626615 1.69794,-4.05832 2.2894,-5.62316 0.22696,-0.600677 0.129692,-0.543681 0.795214,-0.541633 2.40851,0.00819105 4.55456,0.0856647 6.3955,0.715352 1.19692,0.409552 1.43446,0.805112 2.08189,1.78258 0.537538,0.812279 0.951868,1.47234 1.45732,2.32455 1.16006,1.95561 1.85425,3.15901 0.938899,5.67879 -0.288052,0.793508 -1.9778,5.03579 -2.61056,5.03579 -0.109555,0 -0.219111,0 -0.328666,0l-5.55558 -0.6331c-0.367573,-0.104436 -0.666888,-0.287028 -0.831733,-0.626957 -0.292489,-0.602725 -0.570643,-1.0604 -0.876101,-1.67268 -0.389416,-0.780197 -3.7556,-6.39038 -3.7556,-6.43953z"/>
    </g>
   </g>
  </g>
 </g>
</svg>
