<svg id="Layer_1" data-name="Layer 1" xmlns="http://www.w3.org/2000/svg" viewBox="0 0 1080 1080"><defs><style>.cls-1{fill:#1d2d57;}</style></defs><path class="cls-1" d="M839.21,670.39V243.12H240.61V698h.84a299.77,299.77,0,0,0,140.19,237.7l8.28-17.32A280.82,280.82,0,0,1,260.19,688.29l-.23-9.35h-.27V262.2H820.13V671c.15,3.63.23,7.29.23,11,0,98.09-50.69,184.57-127.25,234.61l8.28,17.36c83-53.24,138.05-146.29,138.05-252C839.44,678.06,839.36,674.21,839.21,670.39Z"/><path class="cls-1" d="M279.76,137.69l-12.53-2.51c-5.58-1.05-9.62-6.33-9.62-12.54a13.09,13.09,0,0,1,13-13.16h3.75a16.65,16.65,0,0,1,16.3,13.22l.05.25h17.19l0-.34a33.74,33.74,0,0,0-33.5-30h-3.75a30.07,30.07,0,0,0-5.54,59.63l12.53,2.19a16.86,16.86,0,0,1-3.24,33.38,17,17,0,0,1-16.45-13.23l-.06-.24H240.68l0,.34A33.76,33.76,0,0,0,308,170.87C308,154.63,296.4,141,279.76,137.69Z"/><path class="cls-1" d="M357.68,92.59H323.09V204.68h17.05v-47.6h18.33a32.29,32.29,0,0,0,32.25-32.25C390.72,107.05,375.9,92.59,357.68,92.59Zm16,32.24c0,8.32-7.31,15.35-16,15.35H340.14v-30.7h18.33A15.29,15.29,0,0,1,373.66,124.83Z"/><path class="cls-1" d="M436.93,92.59a33.77,33.77,0,0,0-33.66,33.81v44.47a33.74,33.74,0,1,0,67.47,0V126.4A33.85,33.85,0,0,0,436.93,92.59Zm16.92,78.28a16.84,16.84,0,1,1-33.68,0V126.4a16.84,16.84,0,1,1,33.68,0Z"/><path class="cls-1" d="M555.62,124.83c0-17.78-14.82-32.24-33-32.24H488V204.68h17.05V162.25a5.24,5.24,0,0,1,5.17-5.17,5.55,5.55,0,0,1,4.59,3l23.88,44.63h17.13L530.1,156.36A32.43,32.43,0,0,0,555.62,124.83Zm-17,0c0,8.32-7.32,15.35-16,15.35H505.05v-30.7h18.32A15.3,15.3,0,0,1,538.57,124.83Z"/><polygon class="cls-1" points="565.36 109.48 590.57 109.48 590.57 204.68 607.47 204.68 607.47 109.48 632.83 109.48 632.83 92.58 565.36 92.58 565.36 109.48"/><rect class="cls-1" x="649.3" y="92.59" width="16.89" height="112.09"/><path class="cls-1" d="M738.09,147.85a4.12,4.12,0,0,1-4.08,4.24,4,4,0,0,1-3.64-2.17L704.54,92.76l-.08-.17h-17V204.68h17V149.41a4.12,4.12,0,0,1,4.08-4.23,4,4,0,0,1,3.64,2.17l25.84,57.15.08.18h16.94V92.59h-17Z"/><path class="cls-1" d="M839.24,126.7v-.3a33.74,33.74,0,1,0-67.47,0v44.47a33.74,33.74,0,1,0,67.47,0V140.18H805.12v16.9h17.22v13.79a16.84,16.84,0,1,1-33.67,0V126.4a16.84,16.84,0,1,1,33.67,0v.3Z"/><path class="cls-1" d="M756.55,758.59a234.89,234.89,0,0,1-36.26,58.71l-86-49.64V881.57a233.86,233.86,0,0,1-69,18.24V742.44a25.3,25.3,0,0,0-50.6,0V899.78a233.74,233.74,0,0,1-69-18.35V767.65L360,817.18a235.22,235.22,0,0,1-36.22-58.74l109.35-63.13a25.3,25.3,0,0,0-25.31-43.82L308.73,708.7a236.25,236.25,0,0,1-3.85-37.61h-.39V631.5l47-27.13-47-27.13V497.59l116.11,67L634.17,687.93Z"/><path class="cls-1" d="M775.38,656.55V631.38l-46.79-27,46.79-27V497.7L672.26,557.24A25.3,25.3,0,1,1,647,513.42l128.42-74.14V359.63L634.31,441.08V307.59h-69V466.3a25.3,25.3,0,0,1-50.6,0V307.59h-69V441.08L304.49,359.51v79.65l141.42,81.65,188,108.53,137.74,79.53a235.65,235.65,0,0,0,4-43.12C775.58,662.67,775.5,659.6,775.38,656.55Z"/><polygon class="cls-1" points="445.56 911 435.03 907.63 416.51 965.48 452.18 976.89 455.55 966.37 430.41 958.32 445.56 911"/><path class="cls-1" d="M500.8,924l-10.43-1.58-22.81,57.94,11,1.7,1.62-4.17a1.49,1.49,0,0,1,1.59-.82l10.9,1.71a1.38,1.38,0,0,1,1.2,1.23l.27,4.45,11.09,1.7Zm-8,42.1a1.18,1.18,0,0,1-.58.89,1.3,1.3,0,0,1-1,.27l-4.6-.7a1.79,1.79,0,0,1-1-.58,1.7,1.7,0,0,1-.27-1,.85.85,0,0,1,.12-.35l3.79-9.55a1.56,1.56,0,0,1,1.43-1h.19a1.58,1.58,0,0,1,1.24,1.44l.73,10.2,0,.12A1.31,1.31,0,0,1,492.8,966.12Z"/><path class="cls-1" d="M560,968.36a18.78,18.78,0,0,1-18.47,19h-.31a18.79,18.79,0,0,1-18.67-18.47l-.39-23.19a18.69,18.69,0,0,1,5.3-13.34,18.36,18.36,0,0,1,13.1-5.72h.31a18.71,18.71,0,0,1,18.67,17.36l-11.13,0a7.74,7.74,0,0,0-2.21-4.17,7.64,7.64,0,0,0-13,5.64l.38,23.23a7.7,7.7,0,0,0,2.32,5.41,7.42,7.42,0,0,0,5.41,2.17,7.67,7.67,0,0,0,7.62-7.85l-.12-3.67L541,965l-.15-11.06,18.82-.35Z"/><path class="cls-1" d="M612.4,961.56l-3.64-22.93a18.73,18.73,0,1,0-37,5.88l3.63,22.92a18.87,18.87,0,0,0,18.48,15.85,19.82,19.82,0,0,0,2.94-.23A18.8,18.8,0,0,0,612.4,961.56Zm-17.32,10.55a7.68,7.68,0,0,1-8.74-6.42l-3.63-22.92a7.82,7.82,0,0,1,1.35-5.76,7.69,7.69,0,0,1,5-3c.39,0,.81-.08,1.2-.08a7.74,7.74,0,0,1,7.61,6.49l3.64,22.93A7.74,7.74,0,0,1,595.08,972.11Z"/><path class="cls-1" d="M662.62,946.5c-2.78-8.57-11.25-13.78-20.58-12.68l-6.63.78a5.37,5.37,0,0,1-5.59-3.91,5.74,5.74,0,0,1,.32-4.4,5.6,5.6,0,0,1,3.29-2.82l1.87-.61a7.56,7.56,0,0,1,8.9,3.43l.52.9,10.59-3.43-.59-1.31a18.74,18.74,0,0,0-22.84-10.1L630,913a16.82,16.82,0,0,0,7.37,32.67l6.56-.93a7.68,7.68,0,0,1,3.28,14.92,7.75,7.75,0,0,1-9-3.42l-.52-.88-10.58,3.43.59,1.3a18.76,18.76,0,0,0,22.92,10.08,18.47,18.47,0,0,0,10.84-9.31A18.69,18.69,0,0,0,662.62,946.5Z"/></svg>