<?xml version="1.0" encoding="UTF-8" standalone="no"?>
<!-- Created with Inkscape (http://www.inkscape.org/) -->

<svg
   xmlns:dc="http://purl.org/dc/elements/1.1/"
   xmlns:cc="http://creativecommons.org/ns#"
   xmlns:rdf="http://www.w3.org/1999/02/22-rdf-syntax-ns#"
   xmlns:svg="http://www.w3.org/2000/svg"
   xmlns="http://www.w3.org/2000/svg"
   xmlns:sodipodi="http://sodipodi.sourceforge.net/DTD/sodipodi-0.dtd"
   xmlns:inkscape="http://www.inkscape.org/namespaces/inkscape"
   version="1.1"
   width="300.58652"
   height="300.58624"
   viewBox="0 0 708.66125 708.6606"
   id="svg3204"
   xml:space="preserve"
   sodipodi:docname="Sandnes_Ulf_logo.svg"
   inkscape:version="0.92.4 (5da689c313, 2019-01-14)"><sodipodi:namedview
     pagecolor="#ffffff"
     bordercolor="#666666"
     borderopacity="1"
     objecttolerance="10"
     gridtolerance="10"
     guidetolerance="10"
     inkscape:pageopacity="0"
     inkscape:pageshadow="2"
     inkscape:window-width="1366"
     inkscape:window-height="705"
     id="namedview2217"
     showgrid="false"
     inkscape:zoom="1.4936709"
     inkscape:cx="127.05325"
     inkscape:cy="150.32242"
     inkscape:window-x="-8"
     inkscape:window-y="-8"
     inkscape:window-maximized="1"
     inkscape:current-layer="svg3204" /><metadata
     id="metadata3210"><rdf:RDF><cc:Work
         rdf:about=""><dc:format>image/svg+xml</dc:format><dc:type
           rdf:resource="http://purl.org/dc/dcmitype/StillImage" /><dc:title /></cc:Work></rdf:RDF></metadata><defs
     id="defs3208" /><g
     transform="matrix(1.25,0,0,-1.25,-17.71625,726.76125)"
     id="g3212"><path
       inkscape:connector-curvature="0"
       style="fill:#ffffff;fill-opacity:1;fill-rule:evenodd;stroke:none"
       id="path2219"
       d="m 297.638,574.884 c 152.923,0 276.939,-124.016 276.939,-276.939 0,-152.923 -124.016,-276.9391 -276.939,-276.9391 -152.924,0 -276.9392,124.0161 -276.9392,276.9391 0,152.923 124.0152,276.939 276.9392,276.939"
       sodipodi:nodetypes="csssc" /><path
       d="m 297.638,469.24 c 73.354,0 135.942,-46.137 160.352,-110.966 -41.959,-18.758 -107.095,-29.782 -169.65,-28.658 -57.923,1.041 -110.86,12.798 -150.669,29.673 24.678,64.295 86.995,109.951 159.967,109.951 z M 464.632,259.671 C 447.24,183.504 379.068,126.649 297.638,126.649 c -81.116,0 -149.074,56.415 -166.79,132.138 107.741,-35.291 224.309,-41.992 333.784,0.884"
       id="path3218"
       style="fill:#6faad9;fill-opacity:1;fill-rule:evenodd;stroke:none"
       inkscape:connector-curvature="0" /><path
       d="m 297.638,581.409 c 156.527,0 283.464,-126.937 283.464,-283.464 0,-156.527 -126.937,-283.4645 -283.464,-283.4645 -156.527,0 -283.465,126.9375 -283.465,283.4645 0,156.527 126.938,283.464 283.465,283.464 z m 0,-6.525 c 152.923,0 276.939,-124.016 276.939,-276.939 0,-152.923 -124.016,-276.9391 -276.939,-276.9391 -152.924,0 -276.9392,124.0161 -276.9392,276.9391 0,152.923 124.0152,276.939 276.9392,276.939"
       id="path3220"
       style="fill:#e8bf29;fill-opacity:1;fill-rule:evenodd;stroke:none"
       inkscape:connector-curvature="0" /><path
       d="m 297.638,470.871 c 95.489,0 172.926,-77.437 172.926,-172.926 0,-95.49 -77.437,-172.927 -172.926,-172.927 -95.49,0 -172.927,77.437 -172.927,172.927 0,19.663 3.291,38.559 9.34,56.173 l 2.24,6.129 c 25.01,64.711 87.822,110.624 161.347,110.624 z m 10.042,-36.499 c 6.257,4.148 12.796,8.015 19.332,11.652 6.611,3.678 13.755,7.481 20.903,10.586 -15.863,5.026 -32.752,7.736 -50.277,7.736 -17.24,0 -33.865,-2.623 -49.503,-7.493 7.066,-3.085 14.125,-6.844 20.661,-10.48 6.642,-3.696 13.288,-7.628 19.636,-11.853 2.556,1.304 5.865,2.09 9.484,2.09 3.752,0 7.173,-0.845 9.764,-2.238 z m 47.279,19.828 c -8.648,-3.294 -17.533,-7.983 -25.567,-12.453 -6.024,-3.351 -12.054,-6.901 -17.853,-10.693 0.659,-1 1.022,-2.091 1.022,-3.231 0,-0.248 -0.018,-0.49 -0.052,-0.732 34.947,-0.22 74.164,-5.889 107.524,-16.442 -17.753,19.274 -39.999,34.345 -65.074,43.551 z m -70.508,-22.916 c -5.854,3.837 -11.947,7.426 -18.034,10.812 -7.971,4.435 -16.779,9.086 -25.363,12.375 -25.346,-9.169 -47.833,-24.323 -65.749,-43.752 33.605,10.525 73.043,16.117 108.043,16.201 -0.05,0.297 -0.078,0.598 -0.078,0.903 0,1.228 0.422,2.4 1.181,3.461 z M 426.348,403.39 c -35.47,12.426 -79.182,18.955 -117.19,18.809 -0.528,-0.38 -1.106,-0.734 -1.733,-1.055 28.023,-24.143 46.921,-51.997 56.37,-84.505 30.149,4.111 59.783,11.268 89.092,21.28 -6.423,16.609 -15.435,31.932 -26.539,45.471 z m -139.414,18.623 c -38.081,0.328 -82.12,-6.11 -117.927,-18.523 -11.103,-13.518 -20.121,-28.818 -26.555,-45.402 29.23,-10.069 59.006,-16.835 89.248,-20.863 9.497,32.35 28.37,60.082 56.304,84.132 -0.376,0.208 -0.732,0.427 -1.07,0.656 z m 71.952,-86.017 c -9.516,32.168 -28.595,59.591 -56.938,83.379 -1.282,-0.22 -2.633,-0.34 -4.032,-0.34 -1.597,0 -3.132,0.155 -4.571,0.439 -28.173,-23.666 -47.183,-50.927 -56.732,-82.878 20.499,-2.527 41.208,-3.814 62.107,-4.031 20.319,-0.212 40.355,0.952 60.166,3.431 z m 5.943,-104.727 c -7.447,-33.977 -21.197,-66.717 -37.796,-97.126 63.215,11.277 114.082,58.26 130.985,119.341 -29.161,-9.696 -61.204,-17.608 -93.189,-22.215 z m -43.92,-98.099 c 16.889,30.386 31.031,63.245 38.745,97.382 -18.985,-2.522 -37.894,-3.851 -56.115,-3.662 -22.156,0.23 -45.088,1.696 -67.989,4.571 7.691,-34.475 21.96,-67.658 39.019,-98.319 7.542,-1.047 15.24,-1.599 23.069,-1.599 7.899,0 15.667,0.559 23.271,1.627 z m -52.459,0.936 c -16.763,30.674 -30.634,63.724 -38.061,98.028 -32.008,4.317 -63.834,11.419 -93.251,21.793 16.797,-61.364 67.847,-108.585 131.312,-119.821 z M 136.225,261.18 c 52.07,-18.889 112.221,-27.191 167.382,-27.764 51.063,-0.53 107.73,11.064 155.854,27.436 l 0.453,0.154 c 2.695,11.882 4.125,24.243 4.125,36.939 0,18.842 -3.139,36.955 -8.915,53.843 -50.863,-17.388 -102.708,-26.309 -156.472,-25.749 -54.2,0.565 -107.151,8.235 -158.441,25.918 -5.813,-16.936 -8.975,-35.106 -8.975,-54.012 0,-12.507 1.389,-24.691 4.009,-36.409 l 0.98,-0.356"
       id="path3222"
       style="fill:#e8bf29;fill-opacity:1;fill-rule:evenodd;stroke:none"
       inkscape:connector-curvature="0" /><path
       d="m 250.004,525.677 c 5.567,-4.507 12.041,-7.822 17.998,-10.951 8.25,-4.335 21.359,-10.908 13.603,-21.796 -2.623,-3.683 -6.14,-7.721 -7.385,-13.683 h 47.187 c -0.689,5.789 -3.828,10.039 -6.391,13.732 -5.988,8.628 -3.504,12.322 4.021,18.849 10.47,9.081 30.073,18.031 36.97,28.044 1.591,2.31 1.248,5.268 1.054,6.832 -5.826,1.631 -8.772,2.259 -14.596,3.89 -0.569,-0.932 -1.495,-2.142 -2.677,-3.187 -1.504,-1.332 -3.629,-2.175 -5.159,-2.136 -2.854,0.073 -7.109,2.693 -9.756,3.901 -7.598,3.464 -16.471,4.631 -24.734,4.9 -11.201,0.367 -22.782,-1.416 -33.608,-5.614 -0.277,3.689 1.733,5.838 1.048,9.058 -1.312,6.172 -8.424,8.107 -13.898,7.366 -10.706,-1.448 -15.631,-13.051 -14.452,-22.373 0.842,-6.66 4.686,-11.9 10.775,-16.832 z m 35.733,19.144 c 2.476,0.377 4.568,0.14 4.67,-0.527 0.1,-0.666 -1.827,-1.513 -4.305,-1.889 -2.476,-0.377 -4.569,-0.141 -4.671,0.527 -0.1,0.666 1.828,1.513 4.306,1.889 z m -31.791,12.931 c 3.743,0 6.78,-3.037 6.78,-6.779 0,-3.743 -3.037,-6.779 -6.78,-6.779 -3.742,0 -6.779,3.036 -6.779,6.779 0,3.742 3.037,6.779 6.779,6.779"
       id="path3224"
       style="fill:#4aba53;fill-opacity:1;fill-rule:evenodd;stroke:none"
       inkscape:connector-curvature="0" /><path
       d="m 185.025,142.303 c -6.197,-23.216 14.451,-42.3346 32.666,-52.5878 14.168,-7.9746 27.382,-10.6898 37.157,-18.632 5.091,12.0004 2.427,23.734 -3.211,31.8598 -6.005,8.654 -13.725,13.498 -22.139,17.015 -14.997,6.267 -31.51,8.674 -44.473,22.345 z m 21.09,-22.695 c -2.156,-11.399 8.059,-20.2049 18.723,-24.4076 6.968,-2.7453 13.837,-4.3988 18.341,-8.0586 1.858,6.4602 0.712,12.6586 -4.419,17.0952 -3.167,2.738 -7.953,4.46 -11.102,5.776 -6.91,2.887 -13.646,3.47 -21.543,9.595"
       id="path3226"
       style="fill:#4aba53;fill-opacity:1;fill-rule:evenodd;stroke:none"
       inkscape:connector-curvature="0" /><path
       d="m 120.966,216.45 c -12.63,-20.442 1.628,-44.355 16.111,-59.426 11.265,-11.72 23.483,-17.435 30.552,-27.859 9.383,7.229 9.169,22.025 6.116,31.431 -3.254,10.019 -9.248,16.885 -16.29,22.678 -12.551,10.327 -28.019,16.347 -36.489,33.176 z m 13.998,-27.814 c -5.353,-10.292 1.888,-20.624 10.887,-27.722 5.879,-4.639 11.98,-8.204 15.237,-13.007 3.642,5.649 4.333,11.916 0.7,17.643 -2.243,3.534 -6.679,6.216 -9.314,8.383 -5.783,4.756 -11.715,6.56 -17.51,14.703"
       id="path3228"
       style="fill:#4aba53;fill-opacity:1;fill-rule:evenodd;stroke:none"
       inkscape:connector-curvature="0" /><path
       d="M 98.5684,307.277 C 79.0578,295.432 79.7023,266.911 85.148,246.732 c 4.2368,-15.694 12.1993,-25.535 13.3805,-38.075 13.1005,3.218 18.6355,13.85 20.4825,23.565 1.969,10.348 0.017,19.252 -3.369,27.718 -6.036,15.091 -17.7455,28.508 -17.0736,47.337 z m -0.0637,-31.816 c -9.6442,-6.447 -8.2664,-18.988 -3.7934,-29.541 2.9223,-6.895 6.5557,-12.956 7.0997,-18.734 5.911,3.202 9.532,8.362 9.102,15.131 -0.265,4.178 -2.864,8.663 -4.131,11.83 -2.782,6.952 -7.1148,11.388 -8.2773,21.314"
       id="path3230"
       style="fill:#4aba53;fill-opacity:1;fill-rule:evenodd;stroke:none"
       inkscape:connector-curvature="0" /><path
       d="m 126.626,395.036 c -24.914,-1.222 -38.5928,-25.561 -43.9455,-45.764 -4.1629,-15.713 -2.1758,-28.216 -7.4114,-39.671 13.6567,-2.703 23.0618,2.699 29.5119,10.195 6.871,7.984 9.623,16.675 10.915,25.7 2.303,16.089 0.949,33.561 10.93,49.54 z m -16.984,-27.188 c -11.5752,-0.772 -17.6885,-12.677 -19.0803,-24.053 -0.9082,-7.433 -0.7859,-14.499 -3.1988,-19.777 6.7199,-0.177 12.434,2.489 15.4391,8.568 1.856,3.752 2.541,9.635 3.023,13.011 1.06,7.411 -0.131,13.069 3.817,22.251"
       id="path3232"
       style="fill:#4aba53;fill-opacity:1;fill-rule:evenodd;stroke:none"
       inkscape:connector-curvature="0" /><path
       d="m 198.707,460.366 c -21.949,11.851 -46.251,-1.892 -61.289,-16.407 -11.696,-11.289 -16.468,-23.014 -26.877,-30.106 10.285,-9.382 21.128,-9.628 30.527,-6.554 10.012,3.274 16.866,9.285 22.643,16.338 10.299,12.574 18.185,28.224 34.996,36.729 z m -28.605,-14.47 c -10.304,5.331 -21.697,-1.69 -28.776,-10.703 -4.626,-5.889 -8.178,-11.998 -12.975,-15.265 5.658,-3.63 11.927,-4.307 17.645,-0.662 3.529,2.249 7.161,6.929 9.322,9.568 4.743,5.792 6.653,11.25 14.784,17.062"
       id="path3234"
       style="fill:#4aba53;fill-opacity:1;fill-rule:evenodd;stroke:none"
       inkscape:connector-curvature="0" /><path
       d="m 195.438,527.583 c 4.907,-24.456 -15.348,-43.671 -33.629,-53.802 -14.217,-7.879 -26.827,-9.009 -36.654,-16.887 -5.961,12.581 -3.022,23.021 2.668,31.108 6.062,8.615 13.816,13.409 22.251,16.869 15.038,6.167 32.31,9.127 45.364,22.712 z m -22.209,-23.117 c 2.081,-11.412 -7.967,-20.251 -18.658,-24.382 -6.985,-2.699 -13.866,-4.308 -18.394,-7.938 -1.815,6.472 -0.628,12.665 4.532,17.066 3.184,2.716 8.721,4.819 11.877,6.113 6.927,2.839 12.705,3.068 20.643,9.141"
       id="path3236"
       style="fill:#4aba53;fill-opacity:1;fill-rule:evenodd;stroke:none"
       inkscape:connector-curvature="0" /><path
       d="m 104.29,473.605 c 16.339,-22.524 4.725,-51.423 -9.1088,-70.19 -10.7589,-14.597 -23.0222,-21.602 -29.3289,-34.158 -11.8906,9.99 -13.7613,21.944 -11.7472,32.79 2.1449,11.553 7.7816,20.019 14.7293,27.447 12.3855,13.241 28.5285,24.268 35.4556,44.111 z M 92.5059,439.841 c 7.4132,-10.607 1.3293,-24.24 -7.5938,-33.397 -5.8309,-5.983 -12.0617,-10.811 -14.9676,-16.597 -4.8476,5.721 -6.5211,12.553 -3.3328,19.414 1.9668,4.234 6.6063,8.94 9.2059,11.718 5.7062,6.098 11.4594,9.016 16.6883,18.862"
       id="path3238"
       style="fill:#4aba53;fill-opacity:1;fill-rule:evenodd;stroke:none"
       inkscape:connector-curvature="0" /><path
       d="m 43.3949,360.032 c 25.3278,-11.525 29.4903,-42.391 26.7219,-65.541 -2.1523,-18.005 -9.3602,-30.15 -8.6484,-44.183 -15.2723,2.82 -22.7989,12.293 -26.4004,22.72 -3.8371,11.106 -3.1129,21.251 -0.7371,31.14 4.2363,17.63 12.8332,35.187 9.064,55.864 z m 6.416,-35.181 c 11.6832,-5.566 13.1203,-20.426 9.8801,-32.794 -2.1183,-8.081 -5.1543,-15.356 -4.8258,-21.822 -7.0398,2.583 -11.8672,7.699 -12.4808,15.24 -0.3793,4.653 1.3328,11.036 2.2226,14.734 1.9528,8.12 5.5164,13.497 5.2039,24.642"
       id="path3240"
       style="fill:#4aba53;fill-opacity:1;fill-rule:evenodd;stroke:none"
       inkscape:connector-curvature="0" /><path
       d="m 45.1578,235.509 c 27.727,2.351 46.468,-22.525 55.3882,-44.066 6.939,-16.754 6.6,-30.873 14.091,-42.76 -14.6972,-5.019 -25.8979,-0.444 -34.1432,6.885 -8.7836,7.806 -13.1184,17.005 -15.8887,26.792 -4.9371,17.446 -6.0375,36.965 -19.4473,53.149 z M 67.977,207.973 c 12.9121,0.867 21.4406,-11.387 24.6699,-23.757 2.1097,-8.084 3.0242,-15.913 6.4765,-21.391 -7.4035,-1.194 -14.1172,0.904 -18.3437,7.178 -2.6094,3.872 -4.241,10.276 -5.2762,13.936 -2.2726,8.037 -1.7976,14.47 -7.5265,24.034"
       id="path3242"
       style="fill:#4aba53;fill-opacity:1;fill-rule:evenodd;stroke:none"
       inkscape:connector-curvature="0" /><path
       d="m 108.691,126.274 c 21.953,13.724 48.733,1.441 65.266,-12.601 12.859,-10.92 19.973,-23.7992 31.223,-30.457 -10.034,-10.3972 -22.646,-10.3203 -32.584,-7.7566 -10.585,2.7308 -18.083,8.5039 -24.533,15.4285 -11.497,12.3431 -21.397,27.6851 -39.372,35.3861 z m 31.284,-12.752 c 10.32,6.202 22.586,-0.318 30.513,-9.186 5.179,-5.795 10.309,-12.5864 15.493,-15.654 -5.62,-4.1332 -13.116,-4.5504 -19.28,-1.1523 -3.803,2.0973 -7.875,6.7043 -10.287,9.2949 -5.295,5.6874 -7.634,11.2134 -16.439,16.6974"
       id="path3244"
       style="fill:#4aba53;fill-opacity:1;fill-rule:evenodd;stroke:none"
       inkscape:connector-curvature="0" /><path
       d="m 409.968,142.303 c 6.197,-23.216 -14.451,-42.3346 -32.666,-52.5878 -14.168,-7.9746 -27.382,-10.6898 -37.157,-18.632 -5.091,12.0004 -2.427,23.734 3.21,31.8598 6.006,8.654 13.725,13.498 22.14,17.015 14.997,6.267 31.51,8.674 44.473,22.345 z m -21.09,-22.695 c 2.156,-11.399 -8.059,-20.2049 -18.723,-24.4076 -6.968,-2.7453 -13.837,-4.3988 -18.341,-8.0586 -1.858,6.4602 -0.712,12.6586 4.419,17.0952 3.167,2.738 7.953,4.46 11.101,5.776 6.91,2.887 13.646,3.47 21.544,9.595"
       id="path3246"
       style="fill:#4aba53;fill-opacity:1;fill-rule:evenodd;stroke:none"
       inkscape:connector-curvature="0" /><path
       d="m 474.026,216.45 c 12.63,-20.442 -1.627,-44.355 -16.11,-59.426 -11.265,-11.72 -23.483,-17.435 -30.552,-27.859 -9.383,7.229 -9.169,22.025 -6.116,31.431 3.254,10.019 9.248,16.885 16.29,22.678 12.551,10.327 28.019,16.347 36.488,33.176 z m -13.997,-27.814 c 5.353,-10.292 -1.888,-20.624 -10.887,-27.722 -5.88,-4.639 -11.98,-8.204 -15.237,-13.007 -3.643,5.649 -4.333,11.916 -0.7,17.643 2.243,3.534 6.679,6.216 9.313,8.383 5.784,4.756 11.716,6.56 17.511,14.703"
       id="path3248"
       style="fill:#4aba53;fill-opacity:1;fill-rule:evenodd;stroke:none"
       inkscape:connector-curvature="0" /><path
       d="m 496.425,307.277 c 19.51,-11.845 18.866,-40.366 13.42,-60.545 -4.237,-15.694 -12.199,-25.535 -13.381,-38.075 -13.1,3.218 -18.635,13.85 -20.483,23.565 -1.969,10.348 -0.016,19.252 3.37,27.718 6.035,15.091 17.745,28.508 17.074,47.337 z m 0.063,-31.816 c 9.644,-6.447 8.267,-18.988 3.794,-29.541 -2.923,-6.895 -6.557,-12.956 -7.101,-18.734 -5.911,3.202 -9.531,8.362 -9.101,15.131 0.265,4.178 2.864,8.663 4.131,11.83 2.782,6.952 7.114,11.388 8.277,21.314"
       id="path3250"
       style="fill:#4aba53;fill-opacity:1;fill-rule:evenodd;stroke:none"
       inkscape:connector-curvature="0" /><path
       d="m 468.367,395.036 c 24.914,-1.222 38.593,-25.561 43.945,-45.764 4.163,-15.713 2.176,-28.216 7.411,-39.671 -13.656,-2.703 -23.061,2.699 -29.511,10.195 -6.871,7.984 -9.623,16.675 -10.916,25.7 -2.302,16.089 -0.948,33.561 -10.929,49.54 z m 16.984,-27.188 c 11.575,-0.772 17.688,-12.677 19.08,-24.053 0.909,-7.433 0.786,-14.499 3.199,-19.777 -6.72,-0.177 -12.434,2.489 -15.44,8.568 -1.855,3.752 -2.54,9.635 -3.022,13.011 -1.06,7.411 0.13,13.069 -3.817,22.251"
       id="path3252"
       style="fill:#4aba53;fill-opacity:1;fill-rule:evenodd;stroke:none"
       inkscape:connector-curvature="0" /><path
       d="m 396.286,460.366 c 21.949,11.851 46.251,-1.892 61.289,-16.407 11.695,-11.289 16.468,-23.014 26.877,-30.106 -10.285,-9.382 -21.129,-9.628 -30.527,-6.554 -10.011,3.274 -16.865,9.285 -22.643,16.338 -10.299,12.574 -18.185,28.224 -34.996,36.729 z m 28.605,-14.47 c 10.304,5.331 21.697,-1.69 28.776,-10.703 4.625,-5.889 8.178,-11.998 12.975,-15.265 -5.658,-3.63 -11.927,-4.307 -17.646,-0.662 -3.529,2.249 -7.161,6.929 -9.321,9.568 -4.743,5.792 -6.654,11.25 -14.784,17.062"
       id="path3254"
       style="fill:#4aba53;fill-opacity:1;fill-rule:evenodd;stroke:none"
       inkscape:connector-curvature="0" /><path
       d="m 399.555,527.583 c -4.907,-24.456 15.348,-43.671 33.629,-53.802 14.217,-7.879 26.827,-9.009 36.654,-16.887 5.961,12.581 3.022,23.021 -2.669,31.108 -6.061,8.615 -13.815,13.409 -22.25,16.869 -15.038,6.167 -32.31,9.127 -45.364,22.712 z m 22.209,-23.117 c -2.081,-11.412 7.967,-20.251 18.657,-24.382 6.986,-2.699 13.867,-4.308 18.395,-7.938 1.814,6.472 0.628,12.665 -4.532,17.066 -3.184,2.716 -8.722,4.819 -11.877,6.113 -6.927,2.839 -12.705,3.068 -20.643,9.141"
       id="path3256"
       style="fill:#4aba53;fill-opacity:1;fill-rule:evenodd;stroke:none"
       inkscape:connector-curvature="0" /><path
       d="m 490.703,473.605 c -16.339,-22.524 -4.725,-51.423 9.109,-70.19 10.758,-14.597 23.022,-21.602 29.329,-34.158 11.89,9.99 13.761,21.944 11.747,32.79 -2.145,11.553 -7.782,20.019 -14.729,27.447 -12.386,13.241 -28.529,24.268 -35.456,44.111 z m 11.784,-33.764 c -7.413,-10.607 -1.329,-24.24 7.593,-33.397 5.831,-5.983 12.062,-10.811 14.968,-16.597 4.848,5.721 6.521,12.553 3.333,19.414 -1.967,4.234 -6.606,8.94 -9.206,11.718 -5.706,6.098 -11.459,9.016 -16.688,18.862"
       id="path3258"
       style="fill:#4aba53;fill-opacity:1;fill-rule:evenodd;stroke:none"
       inkscape:connector-curvature="0" /><path
       d="m 551.598,360.032 c -25.328,-11.525 -29.49,-42.391 -26.722,-65.541 2.153,-18.005 9.36,-30.15 8.648,-44.183 15.272,2.82 22.8,12.293 26.401,22.72 3.837,11.106 3.113,21.251 0.737,31.14 -4.236,17.63 -12.833,35.187 -9.064,55.864 z m -6.416,-35.181 c -11.683,-5.566 -13.12,-20.426 -9.88,-32.794 2.118,-8.081 5.154,-15.356 4.826,-21.822 7.04,2.583 11.867,7.699 12.48,15.24 0.38,4.653 -1.333,11.036 -2.222,14.734 -1.953,8.12 -5.516,13.497 -5.204,24.642"
       id="path3260"
       style="fill:#4aba53;fill-opacity:1;fill-rule:evenodd;stroke:none"
       inkscape:connector-curvature="0" /><path
       d="m 549.835,235.509 c -27.727,2.351 -46.468,-22.525 -55.389,-44.066 -6.938,-16.754 -6.599,-30.873 -14.09,-42.76 14.697,-5.019 25.898,-0.444 34.143,6.885 8.784,7.806 13.119,17.005 15.889,26.792 4.937,17.446 6.037,36.965 19.447,53.149 z m -22.819,-27.536 c -12.912,0.867 -21.441,-11.387 -24.67,-23.757 -2.11,-8.084 -3.024,-15.913 -6.476,-21.391 7.403,-1.194 14.116,0.904 18.343,7.178 2.609,3.872 4.241,10.276 5.276,13.936 2.273,8.037 1.798,14.47 7.527,24.034"
       id="path3262"
       style="fill:#4aba53;fill-opacity:1;fill-rule:evenodd;stroke:none"
       inkscape:connector-curvature="0" /><path
       d="m 486.302,126.274 c -21.953,13.724 -48.733,1.441 -65.266,-12.601 -12.859,-10.92 -19.973,-23.7992 -31.223,-30.457 10.034,-10.3972 22.646,-10.3203 32.584,-7.7566 10.585,2.7308 18.083,8.5039 24.532,15.4285 11.498,12.3431 21.398,27.6851 39.373,35.3861 z m -31.284,-12.752 c -10.32,6.202 -22.586,-0.318 -30.513,-9.186 -5.179,-5.795 -10.309,-12.5864 -15.494,-15.654 5.621,-4.1332 13.117,-4.5504 19.28,-1.1523 3.804,2.0973 7.876,6.7043 10.288,9.2949 5.294,5.6874 7.634,11.2134 16.439,16.6974"
       id="path3264"
       style="fill:#4aba53;fill-opacity:1;fill-rule:evenodd;stroke:none"
       inkscape:connector-curvature="0" /><path
       d="m 268.769,294.499 3.984,-0.142 16.131,-20.662 v 20.086 l 5.946,-0.212 V 262.9 l -4.221,0.151 -15.893,20.092 v -19.525 l -5.947,0.212 v 30.669"
       id="path3266"
       style="fill:#e8bf29;fill-opacity:1;fill-rule:evenodd;stroke:none"
       inkscape:connector-curvature="0" /><path
       d="m 202.709,302.421 3.995,-0.578 15.281,-22.244 0.893,19.903 5.962,-0.863 -1.363,-30.389 -4.233,0.613 -15.068,21.654 -0.868,-19.346 -5.963,0.863 1.364,30.387"
       id="path3268"
       style="fill:#e8bf29;fill-opacity:1;fill-rule:evenodd;stroke:none"
       inkscape:connector-curvature="0" /><path
       d="M 262.209,64.0402 V 45.5578 h 6.647 v -5.9711 h -20.945 v 5.9711 h 8.327 v 12.6055 h -7.102 v 5.9711 l 13.073,-0.0942"
       id="path3270"
       style="fill:#e8bf29;fill-opacity:1;fill-rule:evenodd;stroke:none"
       inkscape:connector-curvature="0" /><path
       d="M 342.022,64.0402 V 45.5578 h 6.647 v -5.9711 h -20.944 v 5.9711 h 8.326 v 12.6055 h -7.102 v 5.9711 l 13.073,-0.0942"
       id="path3272"
       style="fill:#e8bf29;fill-opacity:1;fill-rule:evenodd;stroke:none"
       inkscape:connector-curvature="0" /><path
       d="M 315.434,64.0402 V 45.5578 h 6.647 v -5.9711 h -20.945 v 5.9711 h 8.326 v 12.6055 h -7.102 v 5.9711 l 13.074,-0.0942"
       id="path3274"
       style="fill:#e8bf29;fill-opacity:1;fill-rule:evenodd;stroke:none"
       inkscape:connector-curvature="0" /><path
       d="m 302.691,293.107 21.463,0.015 v -5.847 h -15.492 v -6.423 l 14.513,0.001 v -5.846 l -14.513,-0.001 v -6.337 l 15.999,0.001 v -5.847 l -21.97,-0.075 v 30.359"
       id="path3276"
       style="fill:#e8bf29;fill-opacity:1;fill-rule:evenodd;stroke:none"
       inkscape:connector-curvature="0" /><path
       d="m 294.101,47.1809 -7.305,-12.4973 -6.873,0.0152 5.906,9.9539 c -7.204,-0.3523 -12.25,3.5672 -12.25,10.2473 0,6.5848 5.13,10.9465 11.669,10.9465 6.54,0 11.19,-4.4598 11.318,-10.4215 0.05,-2.3516 -0.614,-5.0793 -2.465,-8.2441 z m -8.853,12.9246 c -2.305,0 -5.485,-1.377 -5.573,-4.8559 -0.088,-3.4808 3.005,-4.6812 5.573,-4.6812 2.752,0 5.397,1.4496 5.397,4.6812 0,3.2309 -2.994,4.8559 -5.397,4.8559"
       id="path3278"
       style="fill:#e8bf29;fill-opacity:1;fill-rule:evenodd;stroke:none"
       inkscape:connector-curvature="0" /><path
       d="m 375.306,298.198 5.971,0.923 0.824,-20.505 c 0.113,-2.828 3.65,-4.09 6.87,-3.35 3.956,0.912 5.633,2.922 5.475,6.852 l -0.773,19.234 5.971,0.923 0.831,-20.686 c 0.12,-2.969 -0.514,-11.009 -11.434,-12.356 -7.277,-0.898 -12.649,1.958 -12.941,9.208 l -0.794,19.757"
       id="path3280"
       style="fill:#e8bf29;fill-opacity:1;fill-rule:evenodd;stroke:none"
       inkscape:connector-curvature="0" /><path
       d="m 340.491,294.886 12.465,0.663 -0.482,-6.187 -13.12,-0.657 c -1.31,-0.065 -2.239,-1.592 -2.239,-2.943 0,-1.417 1.205,-2.766 2.582,-2.755 l 8.046,0.056 c 2.175,0.001 4.067,-0.902 5.341,-2.375 1.443,-1.672 2.231,-4.081 1.925,-6.745 -0.249,-2.157 -0.67,-3.736 -1.572,-5.14 -1.847,-2.875 -5.16,-4.434 -9.271,-4.641 l -12.887,-0.657 0.366,6.15 12.775,0.69 c 2.069,0.113 3.56,0.612 4.006,3.617 0.269,1.811 -0.774,3.081 -2.517,3.034 l -6.725,-0.185 c -4.959,-0.272 -8.801,3.89 -8.302,9.068 0.286,2.974 1.259,4.978 3.021,6.498 1.555,1.341 3.728,2.368 6.588,2.509"
       id="path3282"
       style="fill:#e8bf29;fill-opacity:1;fill-rule:evenodd;stroke:none"
       inkscape:connector-curvature="0" /><path
       d="m 154.324,315.58 12.203,-3.912 -1.115,-6.106 -12.84,4.16 c -1.282,0.416 -2.345,-0.793 -2.486,-2.166 -0.148,-1.438 0.884,-3.252 2.226,-3.748 l 7.838,-2.903 c 2.117,-0.799 3.864,-2.412 4.95,-4.377 1.231,-2.229 1.747,-4.966 1.17,-7.559 -0.467,-2.099 -1.041,-3.548 -2.066,-4.641 -2.098,-2.24 -5.484,-2.605 -9.508,-1.302 l -12.613,4.074 0.998,6.111 12.507,-3.999 c 2.025,-0.648 3.529,-0.689 4.277,2.198 0.451,1.741 -0.432,3.415 -2.134,4.008 l -6.565,2.287 c -4.856,1.549 -8.161,7.188 -7.135,12.264 0.589,2.915 1.744,4.592 3.619,5.487 1.653,0.79 3.875,1.034 6.674,0.124"
       id="path3284"
       style="fill:#e8bf29;fill-opacity:1;fill-rule:evenodd;stroke:none"
       inkscape:connector-curvature="0" /><path
       d="m 179.575,288.886 7.152,-1.529 -2.423,9.53 z m 8.788,-7.968 -11.983,2.563 -3.118,-5.275 -6.283,1.106 16.203,28.716 4.553,-0.773 8.826,-33.921 -6.496,0.891 -1.702,6.693"
       id="path3286"
       style="fill:#e8bf29;fill-opacity:1;fill-rule:evenodd;stroke:none"
       inkscape:connector-curvature="0" /><path
       d="m 235.978,297.939 11.358,-1.541 c 10.795,-1.47 14.382,-8.243 14.239,-17.227 -0.152,-9.532 -5.557,-14.732 -13.796,-13.497 l -12.578,1.463 z m 5.836,-6.915 -0.466,-18.469 5.823,-0.733 c 6.183,-0.782 7.783,2.126 7.997,8.216 0.188,5.366 -2.688,9.602 -7.739,10.278 l -5.615,0.708"
       id="path3288"
       style="fill:#e8bf29;fill-opacity:1;fill-rule:evenodd;stroke:none"
       inkscape:connector-curvature="0" /><path
       d="m 429.552,309.685 18.527,5.096 0.729,-6.002 -12.555,-3.43 0.699,-6.179 12.09,3.302 0.729,-6.002 -12.138,-3.315 1.13,-10.85 -6.025,-1.625 -3.186,29.005"
       id="path3290"
       style="fill:#e8bf29;fill-opacity:1;fill-rule:evenodd;stroke:none"
       inkscape:connector-curvature="0" /><path
       d="m 408.254,274.307 18.523,3.892 -0.353,6.13 -12.549,-2.661 -1.632,23.397 -6.018,-1.296 2.029,-29.462"
       id="path3292"
       style="fill:#e8bf29;fill-opacity:1;fill-rule:evenodd;stroke:none"
       inkscape:connector-curvature="0" /></g></svg>