<?xml version="1.0" encoding="UTF-8" standalone="no"?>
<svg
   xmlns:dc="http://purl.org/dc/elements/1.1/"
   xmlns:cc="http://creativecommons.org/ns#"
   xmlns:rdf="http://www.w3.org/1999/02/22-rdf-syntax-ns#"
   xmlns:svg="http://www.w3.org/2000/svg"
   xmlns="http://www.w3.org/2000/svg"
   xmlns:sodipodi="http://sodipodi.sourceforge.net/DTD/sodipodi-0.dtd"
   xmlns:inkscape="http://www.inkscape.org/namespaces/inkscape"
   width="299.16797pt"
   height="100.80078pt"
   viewBox="0 0 299.16796 100.80078"
   version="1.2"
   id="svg19"
   sodipodi:docname="Ranheim IL logo.svg"
   inkscape:version="0.92.4 (5da689c313, 2019-01-14)">
  <metadata
     id="metadata25">
    <rdf:RDF>
      <cc:Work
         rdf:about="">
        <dc:format>image/svg+xml</dc:format>
        <dc:type
           rdf:resource="http://purl.org/dc/dcmitype/StillImage" />
        <dc:title></dc:title>
      </cc:Work>
    </rdf:RDF>
  </metadata>
  <defs
     id="defs23" />
  <sodipodi:namedview
     pagecolor="#ffffff"
     bordercolor="#666666"
     borderopacity="1"
     objecttolerance="10"
     gridtolerance="10"
     guidetolerance="10"
     inkscape:pageopacity="0"
     inkscape:pageshadow="2"
     inkscape:window-width="1366"
     inkscape:window-height="705"
     id="namedview21"
     showgrid="false"
     inkscape:zoom="2.0769246"
     inkscape:cx="170.04437"
     inkscape:cy="67.620171"
     inkscape:window-x="-8"
     inkscape:window-y="-8"
     inkscape:window-maximized="1"
     inkscape:current-layer="svg19" />
  <g
     id="surface44"
     transform="translate(-63.855469,-30.152344)">
    <path
       style="fill:#ffffff;fill-opacity:1;fill-rule:nonzero;stroke:none"
       d="m 213.44141,129.43359 c -38.84375,0 -75.41016,-4.71484 -102.97266,-13.27343 -29.5,-9.16407 -45.09375,-21.476566 -45.09375,-35.605472 0,-14.132813 15.59375,-26.445313 45.09375,-35.605469 27.5625,-8.558594 64.13281,-13.277344 102.97266,-13.277344 38.83593,0 75.40625,4.71875 102.97265,13.277344 29.5,9.160156 45.08985,21.472656 45.08985,35.605469 0,14.128906 -15.58985,26.441402 -45.08985,35.605472 -27.5625,8.55859 -64.13281,13.27343 -102.97265,13.27343"
       id="path2"
       inkscape:connector-curvature="0" />
    <path
       style="fill:#1e3378;fill-opacity:1;fill-rule:nonzero;stroke:none"
       d="m 213.44141,30.152344 c -38.98829,0 -75.71875,4.738281 -103.42578,13.34375 -14.683599,4.558594 -26.042974,9.910156 -33.773442,15.90625 -8.21875,6.378906 -12.386719,13.492187 -12.386719,21.152344 0,7.65625 4.167969,14.773437 12.386719,21.148442 7.730468,5.99609 19.089843,11.34765 33.773442,15.90625 27.70703,8.60546 64.43749,13.34374 103.42578,13.34374 38.98437,0 75.71484,-4.73828 103.42187,-13.34374 14.68359,-4.5586 26.04297,-9.91016 33.77344,-15.90625 8.21875,-6.378911 12.38672,-13.492192 12.38672,-21.148442 0,-7.65625 -4.16797,-14.773438 -12.38672,-21.152344 -7.73047,-5.996094 -19.09375,-11.347656 -33.77344,-15.90625 -27.70703,-8.605469 -64.4375,-13.34375 -103.42187,-13.34375 m 0,3.042969 c 38.6875,0 75.09765,4.6875 102.51953,13.203125 28.80078,8.945312 44.02343,20.757812 44.02343,34.15625 0,13.398437 -15.22265,25.207032 -44.02343,34.152342 -27.42188,8.51563 -63.83203,13.20703 -102.51953,13.20703 -38.69141,0 -75.10157,-4.6914 -102.52344,-13.20703 C 82.117188,105.76172 66.894531,93.953125 66.894531,80.554688 66.894531,67.15625 82.117188,55.34375 110.91797,46.398438 138.33984,37.882813 174.75,33.195313 213.44141,33.195313"
       id="path4"
       inkscape:connector-curvature="0" />
    <path
       style="fill:#1e3378;fill-opacity:1;fill-rule:nonzero;stroke:none"
       d="m 70.46875,80.554688 c 0,-24.144532 64.13672,-43.785157 142.97266,-43.785157 78.83203,0 142.96875,19.640625 142.96875,43.785157 0,24.140622 -64.13672,43.781252 -142.96875,43.781252 -78.83594,0 -142.97266,-19.64063 -142.97266,-43.781252"
       id="path6"
       inkscape:connector-curvature="0" />
    <path
       style="fill:#ffffff;fill-opacity:1;fill-rule:nonzero;stroke:none"
       d="M 144.125,60.933594 V 80.21875 h 1.85937 c 3.02344,0 5.28907,-0.277344 6.78907,-0.828125 1.5,-0.550781 2.67968,-1.546875 3.54297,-2.988281 0.85546,-1.4375 1.28906,-3.316406 1.28906,-5.632813 0,-3.355468 -0.78906,-5.832031 -2.36719,-7.4375 -1.57812,-1.597656 -4.12109,-2.398437 -7.62109,-2.398437 z m 0,21.59375 v 12.433594 c 0,2.390625 0.14844,3.898437 0.44922,4.515625 0.30078,0.621097 0.82812,1.113277 1.58203,1.484377 0.75391,0.37109 2.16406,0.55469 4.22266,0.55469 v 1.11718 h -22.85938 v -1.11718 c 2.08594,0 3.5,-0.19141 4.24219,-0.57032 0.74219,-0.38281 1.26562,-0.875 1.5625,-1.484372 0.30078,-0.609375 0.44922,-2.109375 0.44922,-4.5 V 66.144531 c 0,-2.390625 -0.14844,-3.894531 -0.44922,-4.515625 -0.29688,-0.617187 -0.82422,-1.113281 -1.57813,-1.484375 -0.7539,-0.367187 -2.16406,-0.554687 -4.22656,-0.554687 v -1.113281 h 20.60156 c 5.35938,0 9.28516,0.367187 11.76953,1.105468 2.48438,0.742188 4.51172,2.101563 6.08204,4.09375 1.57031,1.988282 2.35546,4.316407 2.35546,6.992188 0,3.257812 -1.17578,5.953125 -3.52343,8.085937 -1.5,1.347657 -3.59766,2.355469 -6.29297,3.03125 l 10.59765,14.945313 c 1.39063,1.925781 2.38282,3.128906 2.96875,3.605471 0.89063,0.67187 1.92188,1.03906 3.09766,1.10547 v 1.1914 H 161.28516 L 147.03125,82.527344 Z m 0,0"
       id="path8"
       inkscape:connector-curvature="0" />
    <path
       style="fill:#ffffff;fill-opacity:1;fill-rule:nonzero;stroke:none"
       d="m 223.22266,101.51563 v 1.11718 H 200.0625 v -1.11718 h 1.47656 c 1.28516,0 2.32422,-0.23438 3.10938,-0.69922 0.5664,-0.3086 1.0039,-0.839847 1.30859,-1.593754 0.24219,-0.53125 0.36328,-1.925781 0.36328,-4.1875 V 66.070313 c 0,-2.304688 -0.12109,-3.742188 -0.36328,-4.320313 -0.23828,-0.574219 -0.72656,-1.078125 -1.45703,-1.511719 -0.73047,-0.429687 -1.71875,-0.648437 -2.96094,-0.648437 h -1.47656 v -1.113281 h 23.16016 v 1.113281 h -1.46875 c -1.28125,0 -2.3125,0.234375 -3.09375,0.699219 -0.56641,0.3125 -1.00782,0.839843 -1.33594,1.59375 -0.23828,0.535156 -0.35938,1.929687 -0.35938,4.1875 v 28.964843 c 0,2.304688 0.125,3.746094 0.375,4.320313 0.25,0.578125 0.73828,1.078121 1.46485,1.511721 0.73047,0.43359 1.71093,0.64844 2.94922,0.64844 z m 0,0"
       id="path10"
       inkscape:connector-curvature="0" />
    <path
       style="fill:#ffffff;fill-opacity:1;fill-rule:nonzero;stroke:none"
       d="m 299.35937,87.070313 -1.64062,15.562497 h -39.31641 v -1.11718 h 1.47657 c 1.28515,0 2.32421,-0.23438 3.10937,-0.69922 0.57031,-0.3086 1.00391,-0.839847 1.30859,-1.593754 0.24219,-0.53125 0.36329,-1.925781 0.36329,-4.1875 V 66.070313 c 0,-2.304688 -0.1211,-3.742188 -0.36329,-4.320313 -0.23828,-0.574219 -0.72656,-1.078125 -1.45703,-1.511719 -0.73047,-0.429687 -1.71484,-0.648437 -2.96093,-0.648437 h -1.47657 v -1.113281 h 23.60547 v 1.113281 h -1.91797 c -1.28125,0 -2.3125,0.234375 -3.08984,0.699219 -0.56641,0.3125 -1.01172,0.84375 -1.33203,1.59375 -0.24219,0.535156 -0.35938,1.929687 -0.35938,4.1875 V 94.1875 c 0,2.257813 0.12891,3.691406 0.39063,4.3125 0.25781,0.617188 0.76562,1.078125 1.52344,1.382813 0.54296,0.195317 1.85156,0.292967 3.92968,0.292967 h 3.67188 c 2.33594,0 4.28515,-0.414061 5.84765,-1.246092 1.5586,-0.828125 2.90235,-2.140625 4.03907,-3.933594 1.13672,-1.789063 2.21484,-4.433594 3.23437,-7.925781 z m 0,0"
       id="path12"
       inkscape:connector-curvature="0" />
    <path
       style="fill:#ffffff;fill-opacity:1;fill-rule:nonzero;stroke:none"
       d="m 186.54687,74.894531 c -3.125,0 -5.66015,2.53125 -5.66015,5.660157 0,3.125 2.53515,5.65625 5.66015,5.65625 3.125,0 5.66016,-2.53125 5.66016,-5.65625 0,-3.128907 -2.53516,-5.660157 -5.66016,-5.660157"
       id="path14"
       inkscape:connector-curvature="0" />
    <path
       style="fill:#ffffff;fill-opacity:1;fill-rule:nonzero;stroke:none"
       d="m 240.8125,74.894531 c -3.125,0 -5.66016,2.53125 -5.66016,5.660157 0,3.125 2.53516,5.65625 5.66016,5.65625 3.125,0 5.66016,-2.53125 5.66016,-5.65625 0,-3.128907 -2.53516,-5.660157 -5.66016,-5.660157"
       id="path16"
       inkscape:connector-curvature="0" />
  </g>
</svg>
