<?xml version="1.0" encoding="UTF-8" standalone="no"?>
<!-- Created with Inkscape (http://www.inkscape.org/) -->
<svg
   xmlns:svg="http://www.w3.org/2000/svg"
   xmlns="http://www.w3.org/2000/svg"
   version="1.0"
   width="354.087441596"
   height="282.416116057" viewBox="0 0 708.66156 565.2204"
   id="svg2951"
   xml:space="preserve"><defs
     id="defs2954" /><g
     transform="matrix(1.25,0,0,-1.25,-17.71641,655.041)"
     id="g2960"><path
       d="M 63.86904,268.5696 L 14.173128,294.396 L 18.134064,309.3 C 51.76584,435.8544 166.6752,524.0328 297.588,524.0328 C 428.6928,524.0328 543.7272,435.6072 577.1832,308.8032 L 581.1024,293.9448 L 530.9904,267.7992 L 530.9904,182.63064 L 515.1696,181.43808 C 491.5488,179.65968 469.86,169.74192 450.9384,155.8752 C 435.5112,144.56712 423.5664,129.6984 409.776,116.61552 C 379.3968,87.78552 339.48,71.85648 297.5904,71.85648 C 256.3488,71.85648 217.00224,87.29616 186.77064,115.33776 C 171.69384,129.3216 160.17288,147.07776 143.43192,159.19968 C 124.63224,172.81224 102.8352,180.61416 79.6884,182.35776 L 63.86904,183.54936 L 63.86904,268.5696"
       id="path2966"
       style="fill:#231f20;fill-opacity:1;fill-rule:evenodd;stroke:none" /><path
       d="M 145.93968,162.66288 C 126.6768,176.61 104.18808,184.8 80.00904,186.6216 L 68.14512,187.51584 L 68.14512,271.1664 L 19.185,296.6088 L 22.266552,308.2008 C 55.39968,432.8808 168.60936,519.7584 297.588,519.7584 C 426.756,519.7584 540.0888,432.636 573.048,307.7136 L 576.0984,296.1552 L 526.7136,270.3912 L 526.7136,186.59616 L 514.8504,185.70288 C 488.688,183.73224 466.1208,172.3032 448.4112,159.32448 C 432.4128,147.59808 420.948,133.10808 406.8336,119.71776 C 378.372,92.7084 339.912,76.13256 297.5904,76.13256 C 255.924,76.13256 218.00256,92.20032 189.67872,118.47384 C 174.26616,132.76776 163.26744,150.11712 145.93968,162.66288"
       id="path2968"
       style="fill:#d6d8d8;fill-opacity:1;fill-rule:evenodd;stroke:none" /><path
       d="M 297.5904,357.8112 C 365.472,357.8112 420.5208,302.76 420.5208,234.88032 C 420.5208,166.99968 365.472,111.94968 297.5904,111.94968 C 229.71,111.94968 174.66,166.99968 174.66,234.88032 C 174.66,302.76 229.71,357.8112 297.5904,357.8112"
       id="path2970"
       style="fill:#231f20;fill-opacity:1;fill-rule:evenodd;stroke:none" /><path
       d="M 238.96224,355.1496 L 295.7616,367.0584 L 356.2224,355.1496 C 317.6832,279.0384 318.9048,194.91192 356.2224,104.1384 L 238.96224,104.1384 C 277.332,187.81128 279.216,271.4832 238.96224,355.1496"
       id="path2972"
       style="fill:#ffffff;fill-opacity:1;fill-rule:evenodd;stroke:none" /><path
       d="M 297.5904,380.8008 C 378.168,380.8008 443.5104,315.456 443.5104,234.88128 C 443.5104,154.30416 378.168,88.95936 297.5904,88.95936 C 217.01448,88.95936 151.67064,154.30416 151.67064,234.88128 C 151.67064,315.456 217.01448,380.8008 297.5904,380.8008 z M 297.5904,354.0768 C 363.4104,354.0768 416.7864,300.6984 416.7864,234.88032 C 416.7864,169.06128 363.4104,115.68384 297.5904,115.68384 C 231.7716,115.68384 178.39416,169.06128 178.39416,234.88032 C 178.39416,300.6984 231.7716,354.0768 297.5904,354.0768"
       id="path2974"
       style="fill:#f7c92a;fill-opacity:1;fill-rule:evenodd;stroke:none" /><path
       d="M 297.588,504.792 C 422.772,504.792 528.072,419.5104 558.5784,303.8952 L 455.6016,250.1688 C 447.9048,330.6552 380.088,393.6288 297.5904,393.6288 C 215.33352,393.6288 147.6648,331.0224 139.64256,250.8744 L 36.72936,304.3584 C 67.39224,419.7384 172.57416,504.792 297.588,504.792"
       id="path2976"
       style="fill:#231f20;fill-opacity:1;fill-rule:evenodd;stroke:none" /><path
       d="M 80.97288,264.4992 L 80.97288,199.41288 C 100.65288,197.93064 130.80648,191.57712 151.2948,173.15904 C 143.33352,192.00192 138.91032,212.69904 138.8484,234.42096 L 80.97288,264.4992"
       id="path2978"
       style="fill:#81868d;fill-opacity:1;fill-rule:evenodd;stroke:none" /><path
       d="M 513.8856,263.8104 L 513.8856,198.49416 C 494.2056,197.01096 464.052,190.6584 443.5632,172.24032 C 451.5264,191.0832 456.408,213.15744 456.0096,233.50128 L 513.8856,263.8104"
       id="path2980"
       style="fill:#81868d;fill-opacity:1;fill-rule:evenodd;stroke:none" /><path
       d="M 102.25968,362.6568 L 87.88968,334.452 C 86.34192,331.416 85.77936,328.908 86.1948,326.9184 C 86.6016,324.9168 88.03224,323.2992 90.48936,322.0488 C 92.46936,321.0384 94.2516,320.892 95.85096,321.6024 C 97.44384,322.2984 98.85384,323.8512 100.0668,326.232 L 107.76552,341.3424 C 110.95032,347.592 114.40224,351.4392 118.10712,352.884 C 121.82448,354.324 126.43032,353.6448 131.95128,350.832 C 137.5332,347.988 140.86512,344.3688 141.93192,339.984 C 142.99968,335.5968 141.86352,330.1272 138.52416,323.5752 L 123.04224,293.1912 L 113.36448,298.1232 L 127.92744,326.7048 C 129.58416,329.9544 130.2684,332.4816 130.00224,334.2984 C 129.73224,336.1032 128.50968,337.5672 126.31776,338.6832 C 124.04808,339.84 122.12808,340.056 120.54648,339.3216 C 118.96584,338.5896 117.4284,336.7536 115.91904,333.7896 L 109.04904,320.3064 C 105.86352,314.0568 102.2916,310.1304 98.31936,308.5032 C 94.34064,306.8952 89.65776,307.4544 84.27648,310.1976 C 78.5052,313.1376 75.0732,316.8072 73.96128,321.1992 C 72.84936,325.5912 73.98648,331.092 77.36352,337.7208 L 92.58192,367.5888 L 102.25968,362.6568"
       id="path2982"
       style="fill:#ffffff;fill-opacity:1;fill-rule:nonzero;stroke:none" /><path
       d="M 132.56448,374.8512 C 125.82744,382.8792 122.73552,390.4584 123.28872,397.5864 C 123.85416,404.7264 128.04744,411.588 135.89256,418.1712 C 143.80128,424.8072 151.31616,427.7352 158.42712,426.96 C 165.5484,426.1968 172.57128,421.6752 179.49936,413.4216 C 186.41808,405.1752 189.65904,397.464 189.1932,390.2952 C 188.73648,383.1384 184.55904,376.2336 176.64936,369.5976 C 168.65256,362.8872 161.09808,359.9664 153.97416,360.7992 C 146.86032,361.6416 139.71936,366.324 132.56448,374.8512 z M 142.60224,410.1744 C 138.3984,406.6464 136.3452,402.6912 136.46448,398.3208 C 136.59384,393.9432 138.88128,389.1048 143.33616,383.796 C 148.17288,378.0336 152.7168,374.664 156.98808,373.6872 C 161.24904,372.7032 165.55032,374.0232 169.8852,377.6592 C 174.15384,381.24 176.1984,385.2288 176.04192,389.6184 C 175.87224,394.0008 173.46648,398.9592 168.82968,404.4864 C 164.18352,410.0232 159.71712,413.2536 155.43096,414.1824 C 151.14384,415.0896 146.87064,413.7552 142.60224,410.1744"
       id="path2984"
       style="fill:#ffffff;fill-opacity:1;fill-rule:nonzero;stroke:none" /><path
       d="M 221.05128,427.5216 L 217.18872,437.5824 L 245.472,448.44 L 258.4224,414.7008 L 232.68744,404.8224 C 227.94648,403.0032 224.1552,401.988 221.32128,401.7936 C 218.47872,401.58 215.61,401.9496 212.70744,402.8784 C 208.8984,404.0832 205.55808,406.272 202.6752,409.4376 C 199.78128,412.5984 197.34192,416.7816 195.3552,421.9584 C 191.5032,431.9928 190.84584,440.256 193.37616,446.7264 C 195.9084,453.1968 201.7332,458.1912 210.85776,461.6928 L 236.59224,471.5712 L 240.348,461.7888 L 214.61256,451.9104 C 209.92512,450.1104 207.08808,447.2784 206.10744,443.4024 C 205.11936,439.5384 205.90224,434.2656 208.4568,427.6104 C 210.8448,421.3896 213.63744,417.3096 216.84552,415.3464 C 220.0548,413.3832 224.02512,413.2992 228.73872,415.1088 L 242.208,420.2784 L 237.0684,433.668 L 221.05128,427.5216"
       id="path2986"
       style="fill:#ffffff;fill-opacity:1;fill-rule:nonzero;stroke:none" /><path
       d="M 274.9968,478.9272 L 291.1944,478.3632 L 314.5896,433.7568 L 315.4944,477.5136 L 328.584,477.0552 L 326.4576,416.1768 L 311.5872,416.6952 L 287.0304,463.6632 L 286.0032,417.5904 L 272.8704,418.0488 L 274.9968,478.9272"
       id="path2988"
       style="fill:#ffffff;fill-opacity:1;fill-rule:nonzero;stroke:none" /><path
       d="M 387.1392,448.8072 L 373.3824,454.3656 L 358.5096,417.5544 L 372.2664,411.996 C 377.5248,409.872 381.6792,409.7352 384.7368,411.5664 C 387.8088,413.3904 390.7512,417.8016 393.5808,424.8024 C 396.3936,431.7672 397.3416,436.9824 396.4056,440.4432 C 395.4816,443.8968 392.3976,446.6832 387.1392,448.8072 z M 365.4888,468.996 L 391.3488,458.5488 C 400.4352,454.8768 406.1904,449.7888 408.6,443.2944 C 411.0072,436.7856 410.1912,428.5416 406.1544,418.548 C 404.0784,413.4072 401.5656,409.2672 398.6136,406.1568 C 395.6784,403.0416 392.3016,400.9104 388.4712,399.7752 C 385.5168,398.88 382.6152,398.5704 379.7784,398.8344 C 376.944,399.108 373.3032,400.1376 368.868,401.928 L 342.6672,412.5144 L 365.4888,468.996"
       id="path2990"
       style="fill:#ffffff;fill-opacity:1;fill-rule:nonzero;stroke:none" /><path
       d="M 456.9288,401.1096 L 434.2296,390.432 L 447.2832,377.8272 L 456.9288,401.1096 z M 460.812,414.192 L 470.58,404.76 L 446.952,342.8904 L 436.6968,352.7952 L 442.7496,367.104 L 423.7032,385.4952 L 409.7256,378.84 L 399.948,388.2816 L 460.812,414.192"
       id="path2992"
       style="fill:#ffffff;fill-opacity:1;fill-rule:nonzero;stroke:none" /><path
       d="M 463.3176,309.4296 C 460.824,314.5392 459.4032,318.552 459.0456,321.4464 C 458.688,324.3408 459.0912,327.2904 460.2456,330.276 C 461.2536,333.0192 462.7632,335.3448 464.7816,337.2408 C 466.8048,339.156 469.968,341.1552 474.2904,343.2648 L 506.8464,359.1432 L 512.4576,347.6376 L 480.2832,331.944 C 477.0792,330.3816 474.8832,329.1408 473.7312,328.2144 C 472.5576,327.2952 471.7584,326.292 471.2904,325.2168 C 470.5392,323.496 470.2704,321.696 470.4984,319.8384 C 470.7264,317.9832 471.5304,315.6552 472.896,312.8592 L 479.5104,299.2944 L 470.4216,294.8616 L 463.3176,309.4296"
       id="path2994"
       style="fill:#ffffff;fill-opacity:1;fill-rule:nonzero;stroke:none" /></g></svg>