<?xml version="1.0" encoding="UTF-8" standalone="no"?>
<svg
   xmlns:dc="http://purl.org/dc/elements/1.1/"
   xmlns:cc="http://creativecommons.org/ns#"
   xmlns:rdf="http://www.w3.org/1999/02/22-rdf-syntax-ns#"
   xmlns:svg="http://www.w3.org/2000/svg"
   xmlns="http://www.w3.org/2000/svg"
   xmlns:sodipodi="http://sodipodi.sourceforge.net/DTD/sodipodi-0.dtd"
   xmlns:inkscape="http://www.inkscape.org/namespaces/inkscape"
   width="79.297699mm"
   height="88.106178mm"
   viewBox="0 0 79.297699 88.106179"
   version="1.1"
   id="svg70297"
   inkscape:version="1.0.1 (3bc2e813f5, 2020-09-07)"
   sodipodi:docname="Tromso IL logo.svg">
  <defs
     id="defs70291" />
  <sodipodi:namedview
     id="base"
     pagecolor="#ffffff"
     bordercolor="#666666"
     borderopacity="1.0"
     inkscape:pageopacity="0.0"
     inkscape:pageshadow="2"
     inkscape:zoom="0.35"
     inkscape:cx="-111.86453"
     inkscape:cy="56.831794"
     inkscape:document-units="mm"
     inkscape:current-layer="layer1"
     inkscape:document-rotation="0"
     showgrid="false"
     inkscape:pagecheckerboard="true"
     inkscape:window-width="1366"
     inkscape:window-height="705"
     inkscape:window-x="-8"
     inkscape:window-y="-8"
     inkscape:window-maximized="1" />
  <metadata
     id="metadata70294">
    <rdf:RDF>
      <cc:Work
         rdf:about="">
        <dc:format>image/svg+xml</dc:format>
        <dc:type
           rdf:resource="http://purl.org/dc/dcmitype/StillImage" />
        <dc:title></dc:title>
      </cc:Work>
    </rdf:RDF>
  </metadata>
  <g
     inkscape:label="Layer 1"
     inkscape:groupmode="layer"
     id="layer1"
     transform="translate(-135.43082,-133.12992)">
    <path
       style="fill:#000000;fill-opacity:1;fill-rule:nonzero;stroke:none;stroke-width:3.90279"
       d="m 199.01653,207.80027 0.8076,0.83858 -0.67041,0.96027 c -2.11925,3.07963 -7.54645,4.22299 -10.59576,4.37545 -1.75316,0.0774 -3.47578,-0.25888 -4.77149,-1.03662 -0.96027,0.31973 -1.93625,0.45691 -2.85105,0.36619 l -0.23011,0.12169 c 0.74675,0.48788 1.43311,0.97577 2.02741,1.47881 0.99125,0.79322 2.28706,2.05816 2.1802,3.56739 l -0.0443,0.50336 -0.3507,0.38057 c -0.85407,0.93041 -3.78102,3.03382 -6.15947,1.06758 l -0.3352,-0.27435 -0.13608,-0.39606 c -0.28874,-0.91491 -1.28043,-1.95141 -2.80492,-3.06436 -1.55492,1.11295 -2.56143,2.14955 -2.85095,3.06436 l -0.12058,0.39606 -0.33522,0.27435 c -2.39316,1.96668 -5.28979,-0.13717 -6.17418,-1.06758 l -0.3507,-0.38057 -0.0443,-0.50336 c -0.11061,-1.50923 1.17402,-2.77462 2.16493,-3.56739 0.5952,-0.50337 1.29603,-0.99125 2.05828,-1.47881 l -0.25777,-0.12169 c -0.89942,0.0885 -1.86014,-0.0443 -2.80536,-0.3507 -1.31097,0.76225 -3.01845,1.09746 -4.75634,1.02113 -3.06446,-0.15268 -8.50693,-1.29582 -10.62617,-4.37533 l -0.66157,-0.96027 0.82309,-0.82309 c -2.77494,-1.14337 -6.06764,-3.18627 -7.05856,-5.9152 l -0.39716,-1.11293 0.76225,-0.45692 c -2.30189,-1.70746 -4.81719,-4.25341 -5.10715,-6.99759 l -0.13607,-1.1739 0.83858,-0.27436 c -1.85959,-2.05807 -3.62835,-4.89374 -3.39968,-7.53117 l 0.12058,-1.17391 0.68591,-0.0885 c -1.38741,-2.4239 -2.59185,-5.6406 -1.73788,-8.2018 l 0.36728,-1.11295 0.64055,0.0332 c -0.82309,-2.51552 -1.25001,-5.6103 0,-7.88176 l 0.54873,-1.02111 0.85296,0.18253 c -0.3507,-2.66785 -0.19913,-5.97614 1.52482,-8.06473 l 0.74676,-0.89944 0.91491,0.38057 c 0.21462,-2.77461 1.14348,-6.23535 3.4457,-7.98852 l 0.94478,-0.70139 0.71688,0.50337 c 0.86956,-2.62228 2.51574,-5.68652 5.07673,-6.92138 l 1.08307,-0.51885 0.73127,0.79322 c 1.49396,-2.46971 3.97894,-5.29013 6.93642,-5.94562 l 1.17401,-0.24449 0.56422,1.02112 c 0.11062,0.21352 0.21462,0.44252 0.30423,0.68591 2.13439,-2.01237 5.32066,-4.16202 8.3547,-4.05527 l 1.2197,0.0332 0.25777,1.14337 c 0.11062,0.45691 0.13608,0.94479 0.13608,1.41785 0.94479,-0.0663 1.87529,-0.0885 2.83568,-0.0885 0.9304,0 1.87529,0.0332 2.80504,0.0885 0,-0.47239 0.0443,-0.96028 0.13608,-1.41785 l 0.25775,-1.14337 1.2196,-0.0332 c 3.04931,-0.11061 6.22031,2.0429 8.33911,4.04 l 0.31972,-0.67042 0.54872,-1.02112 1.20444,0.24449 c 2.97275,0.65494 5.44247,3.5216 6.93642,5.97616 l 0.77773,-0.82309 1.08308,0.51885 c 2.56109,1.23496 4.17718,4.23825 5.06156,6.86042 l 0.64055,-0.44252 0.9304,0.70139 c 2.31716,1.75317 3.23196,5.21391 3.46064,7.98851 l 0.91491,-0.38056 0.74676,0.89943 c 1.738,2.08859 1.8753,5.39688 1.52448,8.06474 l 0.88394,-0.18254 0.54873,1.02112 c 1.23486,2.27157 0.8076,5.36635 0,7.88176 l 0.64055,-0.0332 0.3673,1.11295 c 0.85405,2.5612 -0.33522,5.77801 -1.72275,8.20192 l 0.67153,0.0885 0.12058,1.1739 c 0.24228,2.63733 -1.5548,5.48827 -3.39967,7.54633 l 0.79322,0.25888 -0.13607,1.17378 c -0.30423,2.71377 -2.78967,5.27497 -5.09199,6.98244 l 0.79322,0.4724 -0.39606,1.11294 c -0.99125,2.72881 -4.2689,4.74118 -7.02824,5.89992"
       id="path58476" />
    <path
       style="fill:#c20c19;fill-opacity:1;fill-rule:nonzero;stroke:none;stroke-width:3.90279"
       d="m 174.51752,138.38839 -20.70317,7.57697 -11.63235,38.14373 19.72752,23.76741 12.80581,7.22627 14.17851,-7.04328 19.48313,-24.4687 -13.94939,-38.89081 z m 0,0"
       id="path58478" />
    <path
       style="fill:#ffffff;fill-opacity:1;fill-rule:nonzero;stroke:none;stroke-width:3.90279"
       d="m 147.70102,165.98239 48.89149,-15.24531 11.09878,30.99379 -53.73998,16.54114 -11.76931,-14.16292 z m 0,0"
       id="path58480" />
    <path
       style="fill:#000000;fill-opacity:1;fill-rule:nonzero;stroke:none;stroke-width:3.90279"
       d="m 147.48751,166.66842 49.33367,-15.29101 -0.73127,-2.0428 -47.82456,14.83366 z m 0,0"
       id="path58482" />
    <path
       style="fill:#000000;fill-opacity:1;fill-rule:nonzero;stroke:none;stroke-width:3.90279"
       d="m 154.77484,199.27819 53.31261,-16.51071 -0.74675,-2.05806 -54.05958,16.7698 z m 0,0"
       id="path58484" />
    <path
       style="fill:#000000;fill-opacity:1;fill-rule:nonzero;stroke:none;stroke-width:3.90279"
       d="m 169.66947,169.04675 0.21463,-7.13478 -15.06246,4.68022 -0.21462,7.07383 3.97882,-1.25001 -0.59407,21.23662 7.08909,-2.16482 0.64054,-21.22147 z m 0,0"
       id="path58486" />
    <path
       style="fill:#000000;fill-opacity:1;fill-rule:nonzero;stroke:none;stroke-width:3.90279"
       d="m 178.4355,187.37159 0.83858,-28.37152 -7.10425,2.21061 -0.83858,28.34099 z m 0,0"
       id="path58488" />
    <path
       style="fill:#000000;fill-opacity:1;fill-rule:nonzero;stroke:none;stroke-width:3.90279"
       d="m 195.54074,182.0663 0.23012,-7.21112 -5.2294,1.63125 0.64056,-21.16051 -6.89074,2.13439 -0.85406,28.35625 z m 0,0"
       id="path58490" />
    <path
       style="fill:#000000;fill-opacity:1;fill-rule:nonzero;stroke:none;stroke-width:3.90279"
       d="m 167.58066,215.33145 c 1.11305,-0.9304 2.63754,-1.87519 4.16192,-2.72893 3.04931,-1.70746 8.94912,-4.43628 10.07744,-5.00038 l 0.51886,-0.25888 0.53323,0.22901 c 0.16816,0.0554 0.42704,0.16815 0.7014,0.28985 0.27326,0.13718 0.62506,0.33521 0.93041,0.56422 0.54872,0.39605 1.738,1.85991 -0.0774,2.89653 -1.53953,0.88393 -6.41801,3.2626 -8.49155,4.61936 -2.08848,1.3569 -3.58244,2.69839 -3.97893,3.93336 l -0.11062,0.30535 -0.25777,0.229 c -2.18008,1.78369 -4.90933,-0.12169 -5.76284,-1.0366 l -0.28875,-0.30424 -0.0443,-0.39606 c -0.0885,-1.3415 1.06649,-2.50014 2.07322,-3.33871"
       id="path58492" />
    <path
       style="fill:#eec214;fill-opacity:1;fill-rule:nonzero;stroke:none;stroke-width:3.90279"
       d="m 166.66586,218.50245 c 0.89942,0.94478 2.80536,1.95141 4.05537,0.9304 1.05211,-3.32344 9.90963,-7.40915 13.00418,-9.19283 1.17389,-0.67043 -0.83858,-1.46354 -1.38709,-1.70748 -2.27179,1.09746 -15.85512,7.1652 -15.67246,9.97035"
       id="path58494" />
    <path
       style="fill:#000000;fill-opacity:1;fill-rule:nonzero;stroke:none;stroke-width:3.90279"
       d="m 182.55183,215.33145 c -1.11315,-0.9304 -2.62226,-1.87519 -4.17761,-2.72893 -3.03361,-1.70746 -8.93353,-4.43628 -10.07701,-5.00038 l -0.51885,-0.25888 -0.51886,0.22901 c -0.16815,0.0554 -0.41155,0.16815 -0.7014,0.28985 -0.27326,0.13718 -0.62506,0.33521 -0.9304,0.56422 -0.53324,0.39605 -1.73789,1.85991 0.0663,2.89653 1.54009,0.88393 6.41857,3.2626 8.50694,4.61936 2.10396,1.3569 3.59803,2.69839 3.99453,3.93325 l 0.0774,0.30534 0.27326,0.229 c 2.18019,1.7837 4.89373,-0.12169 5.77812,-1.0366 l 0.27326,-0.30423 v -0.39606 c 0.11061,-1.34151 -1.05211,-2.50014 -2.05795,-3.33872"
       id="path58496" />
    <path
       style="fill:#eec214;fill-opacity:1;fill-rule:nonzero;stroke:none;stroke-width:3.90279"
       d="m 183.45104,218.50245 c -0.89943,0.94478 -2.7745,1.95141 -4.02462,0.9304 -1.08308,-3.32344 -9.94004,-7.40915 -13.01966,-9.19283 -1.15842,-0.67043 0.82309,-1.46354 1.38742,-1.70748 2.28661,1.09746 15.83984,7.1652 15.65686,9.97035"
       id="path58498" />
    <path
       style="fill:#000000;fill-opacity:1;fill-rule:nonzero;stroke:none;stroke-width:3.90279"
       d="m 202.24849,152.26168 c -0.93041,0.71688 -2.46972,0.86844 -3.50632,-0.33522 -5.93035,-6.87568 -14.37632,-11.11382 -23.66076,-11.11382 -9.31476,0 -17.776,4.23814 -23.69108,11.11382 -1.0521,1.20432 -2.59185,1.0521 -3.50665,0.33522 -0.91492,-0.68592 -1.41752,-2.07334 -0.3673,-3.27777 6.75378,-7.85133 16.55641,-12.85183 27.56348,-12.85183 10.96138,0 20.76401,5.0005 27.53305,12.85183 1.0366,1.20443 0.54872,2.59175 -0.3673,3.27777"
       id="path58500" />
    <path
       style="fill:#eec214;fill-opacity:1;fill-rule:nonzero;stroke:none;stroke-width:3.90279"
       d="m 148.34102,149.60898 c 6.58595,-7.62266 16.09906,-12.4706 26.74039,-12.4706 10.61056,0 20.12368,4.84794 26.70962,12.4706 1.17401,1.3873 -1.02111,3.07951 -2.22577,1.6922 -6.09806,-7.08898 -14.84893,-11.60159 -24.48385,-11.60159 -9.68084,0 -18.41644,4.51261 -24.52977,11.60159 -1.17356,1.38731 -3.39978,-0.30424 -2.21062,-1.6922"
       id="path58502" />
    <path
       style="fill:#000000;fill-opacity:1;fill-rule:nonzero;stroke:none;stroke-width:3.90279"
       d="m 189.22906,139.12021 c 1.84454,2.22578 2.48498,5.09199 0.85405,6.93665 l -0.0443,0.0443 -1.2197,0.88393 -0.0443,0.0332 c -2.31705,1.02111 -5.12231,-0.25888 -6.96685,-2.46972 -1.95129,-2.3478 -4.14665,-6.87568 -3.4457,-10.04669 l 0.21463,-0.93041 0.99125,-0.0115 c 3.73533,-0.13718 7.74469,3.30819 9.63525,5.56449"
       id="path58504" />
    <path
       style="fill:#eec214;fill-opacity:1;fill-rule:nonzero;stroke:none;stroke-width:3.90279"
       d="m 182.84136,143.83097 c -1.8753,-2.27147 -3.81145,-6.43349 -3.20143,-9.08619 3.04887,-0.11062 6.72291,2.8661 8.58305,5.12252 1.70747,2.02752 1.95141,4.22288 0.88394,5.42731 -0.47239,-0.59519 -1.61576,-2.0429 -2.50014,-2.98813 -1.14348,-1.20443 -4.52756,-4.63453 -4.52756,-4.63453 0,0 2.69839,3.93324 3.70447,5.25959 0.73127,1.03661 1.95141,2.42403 2.45444,3.01856 -1.50922,0.65603 -3.70446,-0.0885 -5.39677,-2.11913"
       id="path58506" />
    <path
       style="fill:#000000;fill-opacity:1;fill-rule:nonzero;stroke:none;stroke-width:3.90279"
       d="m 197.6904,143.89204 c 1.15831,2.59163 0.99125,5.50353 -1.09746,6.9061 l -0.0443,0.0443 -1.41784,0.54874 -0.0663,0.0116 c -2.51541,0.44252 -4.86332,-1.49418 -6.03733,-4.05539 -1.23485,-2.74408 -2.11913,-7.66835 -0.53323,-10.56498 l 0.42703,-0.83858 0.97576,0.21351 c 3.62835,0.79322 6.58594,5.09188 7.77511,7.72931"
       id="path58508" />
    <path
       style="fill:#eec214;fill-opacity:1;fill-rule:nonzero;stroke:none;stroke-width:3.90279"
       d="m 190.21997,146.88005 c -1.18917,-2.63743 -1.90572,-7.11951 -0.57859,-9.5588 2.95759,0.65604 5.6864,4.40597 6.87557,7.0434 1.06758,2.37822 0.7014,4.55831 -0.65604,5.47301 -0.28874,-0.70141 -1.00564,-2.36308 -1.58523,-3.49118 -0.76224,-1.44826 -3.09499,-5.57975 -3.09499,-5.57975 0,0 1.52448,4.45165 2.11923,5.97614 0.42703,1.1739 1.23486,2.80515 1.55492,3.49117 -1.64663,0.28985 -3.56762,-0.97576 -4.63465,-3.35399"
       id="path58510" />
    <path
       style="fill:#000000;fill-opacity:1;fill-rule:nonzero;stroke:none;stroke-width:3.90279"
       d="m 185.31107,147.79486 c 2.7745,1.00563 5.88466,0.74676 7.28734,-1.23497 l 0.0443,-0.0553 0.54874,-1.35678 v -0.0443 c 0.38278,-2.37833 -1.7379,-4.51261 -4.52766,-5.53406 -2.94234,-1.06759 -8.20204,-1.7379 -11.22048,-0.15267 l -0.86956,0.45691 0.25777,0.88393 c 0.94478,3.39978 5.61029,6.00668 8.4765,7.0434"
       id="path58512" />
    <path
       style="fill:#eec214;fill-opacity:1;fill-rule:nonzero;stroke:none;stroke-width:3.90279"
       d="m 188.20771,140.67523 c -2.83579,-1.02111 -7.62288,-1.53975 -10.16871,-0.229 0.79323,2.77461 4.87847,5.2139 7.71427,6.25062 2.56098,0.91491 4.87846,0.50336 5.79294,-0.80761 -0.74676,-0.25886 -2.53056,-0.86955 -3.75026,-1.37215 -1.58523,-0.67041 -6.05238,-2.72881 -6.05238,-2.72881 0,0 4.77193,1.28055 6.43372,1.7837 1.26528,0.38168 3.0336,1.06759 3.76541,1.34151 0.24228,-1.53975 -1.15874,-3.30818 -3.73499,-4.23814"
       id="path58514" />
    <path
       style="fill:#000000;fill-opacity:1;fill-rule:nonzero;stroke:none;stroke-width:3.90279"
       d="m 204.19979,151.04209 c 0.47239,2.78988 -0.44252,5.57975 -2.82009,6.46402 l -0.0443,0.0116 -1.54008,0.22901 h -0.0443 c -2.56098,-0.15267 -4.36017,-2.54605 -4.83278,-5.30539 -0.48787,-2.94234 -0.0885,-7.92757 2.19525,-10.38202 l 0.64054,-0.7014 0.88394,0.42704 c 3.30807,1.58555 5.06123,6.43349 5.549,9.25391"
       id="path58516" />
    <path
       style="fill:#eec214;fill-opacity:1;fill-rule:nonzero;stroke:none;stroke-width:3.90279"
       d="m 196.19601,152.24641 c -0.48788,-2.82042 0,-7.34819 1.8753,-9.39109 2.71354,1.29582 4.40585,5.54933 4.87846,8.38491 0.44253,2.54593 -0.47239,4.58884 -2.04268,5.15294 -0.11061,-0.71688 -0.3507,-2.51551 -0.64054,-3.73511 -0.3673,-1.58555 -1.57007,-6.12859 -1.57007,-6.12859 0,0 0.3507,4.66507 0.53323,6.2963 0.1206,1.23487 0.45691,3.0033 0.5941,3.75038 -1.66135,-0.11062 -3.20144,-1.76854 -3.62836,-4.32974"
       id="path58518" />
    <path
       style="fill:#000000;fill-opacity:1;fill-rule:nonzero;stroke:none;stroke-width:3.90279"
       d="m 190.78396,153.48126 c 2.24105,1.84466 5.25982,2.59174 7.3025,1.15864 l 0.0663,-0.0115 1.00673,-1.11294 0.0443,-0.0332 c 1.2197,-2.11902 0,-4.83267 -2.25652,-6.67744 -2.37801,-1.93614 -7.07383,-4.2534 -10.48877,-3.75037 l -0.97576,0.13719 -0.0885,0.94478 c -0.31972,3.49116 3.095,7.45494 5.41205,9.3454"
       id="path58520" />
    <path
       style="fill:#eec214;fill-opacity:1;fill-rule:nonzero;stroke:none;stroke-width:3.90279"
       d="m 196.08947,147.71853 c -2.28674,-1.87508 -6.60121,-3.91798 -9.46742,-3.47591 -0.25777,2.85084 2.69838,6.46404 4.98544,8.33922 2.07311,1.6922 4.40587,2.02763 5.73199,1.11283 -0.59408,-0.48788 -2.0731,-1.63113 -3.0336,-2.50013 -1.23486,-1.15875 -4.69582,-4.51263 -4.69582,-4.51263 0,0 4.04012,2.75935 5.41238,3.73511 1.03661,0.77774 2.45445,1.98184 3.0336,2.48498 0.8076,-1.37215 0.12059,-3.49116 -1.96657,-5.18347"
       id="path58522" />
    <path
       style="fill:#000000;fill-opacity:1;fill-rule:nonzero;stroke:none;stroke-width:3.90279"
       d="m 208.6822,159.00007 c -0.15266,2.80514 -1.67704,5.36634 -4.19278,5.778 h -0.0663 l -1.53963,-0.0774 -0.0443,-0.0116 c -2.46971,-0.64054 -3.70457,-3.33871 -3.55234,-6.14386 0.16815,-2.97286 1.67704,-7.75984 4.43627,-9.71125 l 0.77774,-0.56422 0.77773,0.57971 c 2.88137,2.2105 3.55191,7.27196 3.38441,10.15332"
       id="path58524" />
    <path
       style="fill:#eec214;fill-opacity:1;fill-rule:nonzero;stroke:none;stroke-width:3.90279"
       d="m 200.57144,158.60368 c 0.16816,-2.86611 1.61609,-7.19574 3.93358,-8.82698 2.36273,1.81411 3.07929,6.31157 2.91147,9.16241 -0.15157,2.59174 -1.49396,4.39059 -3.14014,4.6498 0.0774,-0.74676 0.21462,-2.53067 0.19913,-3.7808 0,-1.63125 -0.18364,-6.31158 -0.18364,-6.31158 0,0 -0.70141,4.63454 -0.88394,6.25062 -0.15268,1.23486 -0.21462,3.04897 -0.23011,3.79607 -1.6161,-0.42704 -2.74398,-2.36308 -2.60701,-4.93954"
       id="path58526" />
    <path
       style="fill:#000000;fill-opacity:1;fill-rule:nonzero;stroke:none;stroke-width:3.90279"
       d="m 211.18234,167.9338 c -0.8076,2.71366 -2.89663,4.87848 -5.45773,4.7413 l -0.0443,-0.0115 -1.49395,-0.39606 -0.0443,-0.0116 c -2.24104,-1.15874 -2.77461,-4.05537 -1.96668,-6.75376 0.86955,-2.83557 3.47579,-7.19575 6.63163,-8.52209 l 0.91491,-0.38168 0.5941,0.74676 c 2.30221,2.74408 1.72262,7.83607 0.86955,10.59541"
       id="path58528" />
    <path
       style="fill:#eec214;fill-opacity:1;fill-rule:nonzero;stroke:none;stroke-width:3.90279"
       d="m 203.39196,165.82995 c 0.83858,-2.74419 3.27755,-6.6469 5.91508,-7.75984 1.8753,2.2563 1.50922,6.78419 0.67043,9.52826 -0.76225,2.48499 -2.50014,3.9639 -4.17718,3.8724 0.24228,-0.70139 0.8076,-2.42402 1.09744,-3.64361 0.38279,-1.60082 1.32658,-6.18966 1.32658,-6.18966 0,0 -1.78392,4.37543 -2.34791,5.91518 -0.44252,1.17391 -0.91491,2.91191 -1.12788,3.64362 -1.46353,-0.76224 -2.10398,-2.88137 -1.357,-5.36635"
       id="path58530" />
    <path
       style="fill:#000000;fill-opacity:1;fill-rule:nonzero;stroke:none;stroke-width:3.90279"
       d="m 195.40334,161.13447 c 1.75316,2.28672 4.49757,3.65876 6.84515,2.69837 l 0.0443,-0.0116 1.25045,-0.85406 0.0443,-0.0332 c 1.69219,-1.81423 1.1583,-4.71086 -0.57971,-6.96717 -1.8597,-2.40876 -5.89992,-5.65598 -9.33002,-5.88466 l -0.99125,-0.0774 -0.31972,0.88394 c -1.14347,3.33871 1.23486,7.92755 3.04886,10.24482"
       id="path58532" />
    <path
       style="fill:#eec214;fill-opacity:1;fill-rule:nonzero;stroke:none;stroke-width:3.90279"
       d="m 201.95886,156.65238 c -1.78359,-2.30211 -5.51892,-5.19876 -8.39996,-5.39689 -0.9304,2.72892 1.08197,6.87558 2.86579,9.19284 1.60093,2.08871 3.781,2.9119 5.32065,2.28685 -0.48788,-0.5941 -1.63092,-2.02765 -2.36273,-3.06436 -0.93041,-1.38719 -3.49139,-5.39678 -3.49139,-5.39678 0,0 3.26272,3.53686 4.36016,4.80225 0.83858,0.94479 1.92099,2.43929 2.37835,3.04909 1.11271,-1.1739 0.9304,-3.38453 -0.67043,-5.473"
       id="path58534" />
    <path
       style="fill:#000000;fill-opacity:1;fill-rule:nonzero;stroke:none;stroke-width:3.90279"
       d="m 211.92932,176.71511 c -1.34173,2.48498 -3.82671,4.25351 -6.31158,3.65887 h -0.0663 l -1.40267,-0.7014 c -1.98184,-1.53975 -1.92099,-4.45165 -0.57972,-6.9519 1.44838,-2.65258 4.86333,-6.44865 8.24784,-7.18047 l 0.96028,-0.21352 0.4569,0.83858 c 1.6922,3.12531 0.0885,8.00378 -1.31097,10.54972"
       id="path58536" />
    <path
       style="fill:#eec214;fill-opacity:1;fill-rule:nonzero;stroke:none;stroke-width:3.90279"
       d="m 204.70294,173.26974 c 1.38741,-2.56121 4.58884,-5.96099 7.40948,-6.57079 1.38697,2.56121 0.0774,6.93664 -1.31142,9.48259 -1.23486,2.28684 -3.26227,3.41493 -4.87847,3.04907 0.38278,-0.67041 1.29614,-2.22588 1.82961,-3.3844 0.6859,-1.49406 2.54582,-5.8238 2.54582,-5.8238 0,0 -2.62194,3.97904 -3.50632,5.36634 -0.65604,1.06759 -1.49396,2.68324 -1.84476,3.36925 -1.28055,-1.00562 -1.49406,-3.20153 -0.24228,-5.48826"
       id="path58538" />
    <path
       style="fill:#000000;fill-opacity:1;fill-rule:nonzero;stroke:none;stroke-width:3.90279"
       d="m 198.66606,170.00714 c 1.2957,2.51551 3.76541,4.2992 6.25028,3.75037 h 0.0443 l 1.40269,-0.64055 0.0443,-0.0443 c 1.9971,-1.49407 1.9971,-4.42113 0.7014,-6.95192 -1.37183,-2.66796 -4.75634,-6.52498 -8.09517,-7.3025 l -0.96027,-0.24448 -0.47239,0.82309 c -1.75317,3.09477 -0.24228,8.01904 1.09745,10.61067"
       id="path58540" />
    <path
       style="fill:#eec214;fill-opacity:1;fill-rule:nonzero;stroke:none;stroke-width:3.90279"
       d="m 205.96854,166.65326 c -1.34171,-2.57647 -4.4823,-6.03721 -7.28723,-6.6927 -1.41794,2.53067 -0.21462,6.92137 1.11262,9.51301 1.2197,2.31726 3.20153,3.49116 4.8329,3.14057 -0.3673,-0.68591 -1.25013,-2.28684 -1.75317,-3.43021 -0.67041,-1.50921 -2.45445,-5.86939 -2.45445,-5.86939 0,0 2.54583,4.00948 3.39968,5.44258 0.67043,1.06759 1.46353,2.69839 1.76843,3.39967 1.32612,-0.99124 1.57007,-3.18627 0.38277,-5.50353"
       id="path58542" />
    <path
       style="fill:#000000;fill-opacity:1;fill-rule:nonzero;stroke:none;stroke-width:3.90279"
       d="m 210.93841,185.26772 c -1.7836,2.24105 -4.55842,3.58266 -6.90601,2.57648 l -0.0443,-0.0332 -1.23485,-0.85406 -0.0443,-0.0443 c -1.67693,-1.84466 -1.08196,-4.6956 0.71689,-6.93664 1.90572,-2.39349 5.97636,-5.54933 9.43688,-5.71695 l 0.99126,-0.0663 0.28873,0.88393 c 1.09746,3.33872 -1.3874,7.89714 -3.23184,10.18386"
       id="path58544" />
    <path
       style="fill:#eec214;fill-opacity:1;fill-rule:nonzero;stroke:none;stroke-width:3.90279"
       d="m 204.47415,180.67888 c 1.81445,-2.28673 5.61029,-5.09187 8.49178,-5.24432 0.88394,2.72891 -1.20443,6.84515 -3.03372,9.11662 -1.6465,2.07343 -3.85712,2.85094 -5.36634,2.21061 0.48788,-0.59409 1.69231,-1.9971 2.42414,-3.03382 0.94478,-1.35688 3.59758,-5.32055 3.59758,-5.32055 0,0 -3.3385,3.47589 -4.45155,4.71075 -0.86845,0.94479 -1.98183,2.40876 -2.45444,3.01855 -1.06758,-1.20443 -0.86845,-3.3844 0.79211,-5.45784"
       id="path58546" />
    <path
       style="fill:#000000;fill-opacity:1;fill-rule:nonzero;stroke:none;stroke-width:3.90279"
       d="m 199.42829,178.48364 c 0.54874,2.72881 2.43919,5.07661 5.00028,5.15284 h 0.0443 l 1.52483,-0.27437 0.0443,-0.0115 c 2.33232,-0.96027 3.14058,-3.79607 2.59152,-6.54026 -0.60957,-2.91179 -2.80493,-7.47021 -5.82336,-9.0405 l -0.86956,-0.4569 -0.67152,0.68591 c -2.53057,2.5612 -2.43919,7.66834 -1.84444,10.48876"
       id="path58548" />
    <path
       style="fill:#eec214;fill-opacity:1;fill-rule:nonzero;stroke:none;stroke-width:3.90279"
       d="m 207.38606,177.03527 c -0.5786,-2.8203 -2.6527,-6.90611 -5.18326,-8.23246 -2.07322,2.10386 -2.11924,6.6469 -1.53964,9.45205 0.51775,2.53079 2.11879,4.14677 3.79584,4.17729 -0.16816,-0.73127 -0.5797,-2.48498 -0.74676,-3.70468 -0.23011,-1.60071 -0.76225,-6.26577 -0.76225,-6.26577 0,0 1.37227,4.49734 1.79919,6.06763 0.31972,1.20433 0.65493,2.98802 0.77773,3.71984 1.5245,-0.62506 2.37801,-2.69838 1.8597,-5.2139"
       id="path58550" />
    <path
       style="fill:#000000;fill-opacity:1;fill-rule:nonzero;stroke:none;stroke-width:3.90279"
       d="m 207.85867,193.86604 c -2.24093,1.82949 -5.27464,2.59173 -7.31765,1.15874 l -0.0443,-0.0332 -1.00563,-1.09746 -0.0443,-0.0443 c -1.21959,-2.10386 0,-4.81752 2.2562,-6.66218 2.37833,-1.93626 7.07372,-4.25352 10.50392,-3.75037 l 0.96027,0.13719 0.11061,0.9304 c 0.31972,3.50643 -3.10983,7.47021 -5.41204,9.36067"
       id="path58552" />
    <path
       style="fill:#eec214;fill-opacity:1;fill-rule:nonzero;stroke:none;stroke-width:3.90279"
       d="m 202.53801,188.1034 c 2.30233,-1.87518 6.6168,-3.91808 9.46742,-3.47589 0.25777,2.85084 -2.69839,6.46392 -4.985,8.3391 -2.0584,1.67694 -4.3907,2.02763 -5.73243,1.09746 0.60957,-0.4724 2.0887,-1.61598 3.03404,-2.50025 1.23486,-1.14337 4.69538,-4.51262 4.69538,-4.51262 0,0 -4.02452,2.77472 -5.39678,3.75037 -1.05209,0.77774 -2.46972,1.98184 -3.0492,2.48498 -0.79322,-1.3873 -0.12059,-3.50643 1.96657,-5.18337"
       id="path58554" />
    <path
       style="fill:#000000;fill-opacity:1;fill-rule:nonzero;stroke:none;stroke-width:3.90279"
       d="m 197.58343,186.39594 c -0.30424,2.7746 0.76223,5.54922 3.20142,6.31147 l 0.0443,0.0116 1.55535,0.15266 0.0443,-0.0115 c 2.53056,-0.27437 4.19235,-2.75946 4.49713,-5.54935 0.35181,-2.94232 -0.3507,-7.89701 -2.74408,-10.21428 l -0.67042,-0.68591 -0.86844,0.47239 c -3.23186,1.738 -4.71065,6.64702 -5.0463,9.51311"
       id="path58556" />
    <path
       style="fill:#eec214;fill-opacity:1;fill-rule:nonzero;stroke:none;stroke-width:3.90279"
       d="m 205.66343,187.18871 c 0.31973,-2.83567 -0.39606,-7.3483 -2.3936,-9.29971 -2.6371,1.43311 -4.10074,5.77801 -4.42112,8.62885 -0.28875,2.56121 0.76224,4.54304 2.33275,5.06146 0.0663,-0.74676 0.21462,-2.54594 0.44252,-3.7808 0.27326,-1.6161 1.23475,-6.18967 1.23475,-6.18967 0,0 -0.11062,4.66507 -0.18365,6.29632 -0.0443,1.25011 -0.30423,3.01855 -0.41154,3.76563 1.66177,-0.16815 3.11004,-1.92087 3.39967,-4.48208"
       id="path58558" />
    <path
       style="fill:#000000;fill-opacity:1;fill-rule:nonzero;stroke:none;stroke-width:3.90279"
       d="m 203.33112,201.59545 c -2.56142,1.38731 -5.67158,1.60071 -7.40948,-0.16815 l -0.0443,-0.0443 -0.76225,-1.26528 -0.0443,-0.0332 c -0.76224,-2.30212 0.97576,-4.74129 3.55235,-6.12861 2.74407,-1.49406 7.80563,-2.92717 11.08318,-1.81422 l 0.91492,0.31973 -0.11062,0.91491 c -0.38278,3.49116 -4.5427,6.78418 -7.21067,8.21718"
       id="path58560" />
    <path
       style="fill:#eec214;fill-opacity:1;fill-rule:nonzero;stroke:none;stroke-width:3.90279"
       d="m 199.29089,194.97898 c 2.62228,-1.433 7.27208,-2.63744 10.00089,-1.72274 -0.31972,2.86622 -3.93324,5.8695 -6.58594,7.3025 -2.37834,1.29593 -4.72592,1.20443 -5.85424,0.0443 0.70141,-0.35071 2.3936,-1.2196 3.49106,-1.89047 1.44837,-0.89942 5.51903,-3.58265 5.51903,-3.58265 0,0 -4.49724,1.98194 -6.05249,2.71365 -1.20444,0.54874 -2.83535,1.49407 -3.50632,1.87519 -0.48789,-1.49395 0.60957,-3.46063 2.98801,-4.74128"
       id="path58562" />
    <path
       style="fill:#000000;fill-opacity:1;fill-rule:nonzero;stroke:none;stroke-width:3.90279"
       d="m 193.42151,194.14051 c -1.02113,2.63743 -0.70141,5.56449 1.46353,6.86041 l 0.0443,0.0116 1.46353,0.51886 h 0.0443 c 2.531,0.30533 4.77193,-1.72263 5.79328,-4.37533 1.08306,-2.78988 1.70746,-7.74469 -0.0443,-10.54973 l -0.48788,-0.82308 -0.94478,0.25887 c -3.58278,0.97576 -6.29643,5.41215 -7.33304,8.09527"
       id="path58564" />
    <path
       style="fill:#eec214;fill-opacity:1;fill-rule:nonzero;stroke:none;stroke-width:3.90279"
       d="m 201.02878,196.76268 c 1.03662,-2.68312 1.50923,-7.21101 0.0774,-9.55881 -2.94233,0.77773 -5.45807,4.66506 -6.50983,7.36345 -0.93041,2.40887 -0.44253,4.57369 0.96028,5.42742 0.25777,-0.71689 0.86844,-2.40875 1.3874,-3.55224 0.70141,-1.49394 2.80493,-5.73219 2.80493,-5.73219 0,0 -1.2957,4.51261 -1.79885,6.05237 -0.38278,1.21969 -1.06758,2.88136 -1.37215,3.58265 1.67694,0.21352 3.50621,-1.15863 4.45144,-3.58265"
       id="path58566" />
    <path
       style="fill:#000000;fill-opacity:1;fill-rule:nonzero;stroke:none;stroke-width:3.90279"
       d="m 196.83645,208.45587 c -2.85107,0.82309 -5.91508,0.3507 -7.19563,-1.738 v -0.0443 l -0.4569,-1.38731 v -0.0443 c -0.19914,-2.40875 2.0731,-4.40585 4.92416,-5.22916 3.01833,-0.86845 8.32383,-1.18907 11.22047,0.5797 l 0.83858,0.51885 -0.33521,0.86956 c -1.20443,3.32345 -6.03722,5.62556 -8.97954,6.47929"
       id="path58568" />
    <path
       style="fill:#eec214;fill-opacity:1;fill-rule:nonzero;stroke:none;stroke-width:3.90279"
       d="m 194.45811,201.13811 c 2.92706,-0.82309 7.74469,-1.02112 10.16872,0.4569 -0.99126,2.71366 -5.24422,4.87847 -8.15613,5.71705 -2.62228,0.74676 -4.89363,0.16817 -5.71716,-1.18916 0.77773,-0.19803 2.62227,-0.68591 3.84186,-1.12821 1.63137,-0.56421 6.23514,-2.302 6.23514,-2.302 0,0 -4.86287,0.97576 -6.53992,1.35688 -1.29615,0.28985 -3.11015,0.83858 -3.85713,1.09745 -0.12059,-1.57029 1.40268,-3.23196 4.02462,-4.00946"
       id="path58570" />
    <path
       style="fill:#000000;fill-opacity:1;fill-rule:nonzero;stroke:none;stroke-width:3.90279"
       d="m 187.55212,200.61981 c -1.70747,2.31726 -2.19536,5.19863 -0.47239,6.98233 l 0.0443,0.0443 1.28054,0.82309 0.0443,0.0116 c 2.36273,0.9304 5.09199,-0.50337 6.78387,-2.78989 1.8296,-2.43929 3.781,-7.07382 2.88136,-10.2144 l -0.25777,-0.89943 -0.97576,0.0116 c -3.71984,0.0443 -7.5617,3.67415 -9.31486,6.02195"
       id="path58572" />
    <path
       style="fill:#eec214;fill-opacity:1;fill-rule:nonzero;stroke:none;stroke-width:3.90279"
       d="m 194.19891,204.99513 c 1.73788,-2.3478 3.43021,-6.58594 2.69839,-9.22337 -3.06403,0.0554 -6.57068,3.20153 -8.30868,5.54934 -1.58534,2.10374 -1.70748,4.2991 -0.56423,5.47299 0.42704,-0.62506 1.4787,-2.11912 2.31705,-3.09478 1.08308,-1.28065 4.28416,-4.86319 4.28416,-4.86319 0,0 -2.5154,4.04 -3.41504,5.4273 -0.70141,1.06758 -1.82917,2.53067 -2.31705,3.11004 1.55491,0.60958 3.71973,-0.25887 5.30506,-2.37833"
       id="path58574" />
    <path
       style="fill:#000000;fill-opacity:1;fill-rule:nonzero;stroke:none;stroke-width:3.90279"
       d="m 188.61904,213.79169 c -2.98791,0.15268 -5.85412,-1.00563 -6.53982,-3.32345 v -0.0443 l -0.0885,-1.46353 v -0.0332 c 0.44253,-2.37833 3.171,-3.81133 6.12849,-3.94862 3.171,-0.15267 8.36998,0.73127 10.7327,3.11004 l 0.68592,0.68591 -0.53324,0.77773 c -2.04269,2.95771 -7.33292,4.0858 -10.38211,4.23826"
       id="path58576" />
    <path
       style="fill:#eec214;fill-opacity:1;fill-rule:nonzero;stroke:none;stroke-width:3.90279"
       d="m 188.19256,206.16903 c 3.03359,-0.15267 7.7595,0.76224 9.74167,2.74419 -1.66177,2.40876 -6.342,3.53686 -9.37604,3.67415 -2.74408,0.13718 -4.80236,-0.91491 -5.24421,-2.43929 0.79321,-0.0116 2.71364,-0.0774 4.02461,-0.21352 1.72264,-0.18254 6.63164,-0.83858 6.63164,-0.83858 0,0 -4.96985,-0.15267 -6.70775,-0.15267 -1.31129,-0.0116 -3.21669,0.1217 -4.02495,0.16815 0.27326,-1.53975 2.21051,-2.80514 4.95503,-2.94232"
       id="path58578" />
    <path
       style="fill:#000000;fill-opacity:1;fill-rule:nonzero;stroke:none;stroke-width:3.90279"
       d="m 180.61559,204.50737 c -2.42402,1.60071 -3.93358,4.17718 -2.97309,6.40296 v 0.0443 l 0.88394,1.18917 0.0443,0.0332 c 1.89057,1.63124 4.97019,1.1739 7.40948,-0.44252 2.59141,-1.69231 6.11333,-5.42742 6.41812,-8.65938 l 0.0774,-0.94478 -0.91491,-0.28986 c -3.52192,-1.14347 -8.44608,1.02112 -10.96138,2.66797"
       id="path58580" />
    <path
       style="fill:#eec214;fill-opacity:1;fill-rule:nonzero;stroke:none;stroke-width:3.90279"
       d="m 185.26539,210.77314 c 2.5154,-1.66178 5.64071,-5.10715 5.89991,-7.80564 -2.88147,-0.94479 -7.31775,0.88394 -9.8179,2.51551 -2.24137,1.4788 -3.171,3.82659 -2.531,5.29013 0.64055,-0.45691 1.95141,-1.58556 3.3084,-2.48499 2.13451,-1.41784 5.79339,-3.18626 5.79339,-3.18626 0,0 -3.15585,2.46971 -5.18369,4.00947 -1.28055,0.97576 -2.63755,2.08859 -3.29282,2.48498 1.23486,1.06758 3.59793,0.64055 5.82371,-0.82309"
       id="path58582" />
    <path
       style="fill:#000000;fill-opacity:1;fill-rule:nonzero;stroke:none;stroke-width:3.90279"
       d="m 161.05556,139.12021 c -1.84443,2.22578 -2.48487,5.09199 -0.86845,6.93665 l 0.0443,0.0443 1.23486,0.88393 0.0443,0.0332 c 2.30233,1.02111 5.12241,-0.25888 6.93686,-2.46972 1.95141,-2.3478 4.17719,-6.87568 3.44537,-10.04669 l -0.21462,-0.93041 -0.97576,-0.0115 c -3.71985,-0.13718 -7.75996,3.30819 -9.63525,5.56449"
       id="path58584" />
    <path
       style="fill:#eec214;fill-opacity:1;fill-rule:nonzero;stroke:none;stroke-width:3.90279"
       d="m 167.45885,143.83097 c 1.87497,-2.27147 3.78069,-6.43349 3.18627,-9.08619 -3.04919,-0.11062 -6.72334,2.8661 -8.59864,5.12252 -1.6766,2.02752 -1.92055,4.22288 -0.86845,5.42731 0.47239,-0.59519 1.6162,-2.0429 2.48499,-2.98813 1.14347,-1.20443 4.52799,-4.63453 4.52799,-4.63453 0,0 -2.69839,3.93324 -3.67404,5.25959 -0.76225,1.03661 -1.96668,2.42403 -2.48532,3.01856 1.50956,0.65603 3.73533,-0.0885 5.42754,-2.11913"
       id="path58586" />
    <path
       style="fill:#000000;fill-opacity:1;fill-rule:nonzero;stroke:none;stroke-width:3.90279"
       d="m 152.59465,143.89204 c -1.15863,2.59163 -0.99125,5.50353 1.08197,6.9061 l 0.0443,0.0443 1.43311,0.54874 0.0443,0.0116 c 2.50058,0.44252 4.86331,-1.49418 6.03733,-4.05539 1.23485,-2.74408 2.11923,-7.66835 0.54872,-10.56498 l -0.44141,-0.83858 -0.96027,0.21351 c -3.62847,0.79322 -6.58606,5.09188 -7.79038,7.72943"
       id="path58588" />
    <path
       style="fill:#eec214;fill-opacity:1;fill-rule:nonzero;stroke:none;stroke-width:3.90279"
       d="m 160.06465,146.88005 c 1.18916,-2.63743 1.89056,-7.11951 0.59519,-9.5588 -2.97275,0.65604 -5.7019,4.40597 -6.89074,7.0434 -1.08307,2.37822 -0.70139,4.55831 0.65494,5.47301 0.28874,-0.70141 0.99124,-2.36308 1.58578,-3.49118 0.77773,-1.44826 3.10971,-5.57975 3.10971,-5.57975 0,0 -1.55491,4.45165 -2.11879,5.97614 -0.45692,1.1739 -1.23486,2.80515 -1.57052,3.49117 1.63136,0.28985 3.56751,-0.97576 4.63453,-3.35399"
       id="path58590" />
    <path
       style="fill:#000000;fill-opacity:1;fill-rule:nonzero;stroke:none;stroke-width:3.90279"
       d="m 164.98925,147.79486 c -2.7901,1.00563 -5.90026,0.74676 -7.31776,-1.23497 v -0.0553 l -0.56422,-1.35678 v -0.0443 c -0.36729,-2.37833 1.75316,-4.51261 4.54326,-5.53406 2.94233,-1.06759 8.21697,-1.7379 11.23574,-0.15267 l 0.86845,0.45691 -0.25777,0.88393 c -0.96027,3.39978 -5.62556,6.00668 -8.47617,7.0434"
       id="path58592" />
    <path
       style="fill:#eec214;fill-opacity:1;fill-rule:nonzero;stroke:none;stroke-width:3.90279"
       d="m 162.06207,140.67523 c 2.85062,-1.02111 7.65309,-1.53975 10.18366,-0.229 -0.80761,2.77461 -4.87858,5.2139 -7.71393,6.25062 -2.57659,0.91491 -4.87848,0.50336 -5.79328,-0.80761 0.74675,-0.25886 2.54571,-0.86955 3.76542,-1.37203 1.55524,-0.67042 6.03722,-2.72893 6.03722,-2.72893 0,0 -4.77161,1.28055 -6.41813,1.7837 -1.28054,0.38168 -3.04931,1.06759 -3.76586,1.34151 -0.25776,-1.53975 1.15875,-3.30818 3.7049,-4.23814"
       id="path58594" />
    <path
       style="fill:#000000;fill-opacity:1;fill-rule:nonzero;stroke:none;stroke-width:3.90279"
       d="m 146.08482,151.04209 c -0.47239,2.78988 0.45691,5.57975 2.82053,6.46402 l 0.0443,0.0116 1.52449,0.22901 h 0.0663 c 2.54627,-0.15267 4.34501,-2.54605 4.80247,-5.30539 0.50337,-2.94234 0.0885,-7.92757 -2.16494,-10.38202 l -0.65603,-0.7014 -0.86845,0.42704 c -3.33883,1.58555 -5.09199,6.43349 -5.56461,9.25391"
       id="path58596" />
    <path
       style="fill:#eec214;fill-opacity:1;fill-rule:nonzero;stroke:none;stroke-width:3.90279"
       d="m 154.08872,152.24641 c 0.47239,-2.82042 0.0443,-7.34819 -1.8753,-9.39109 -2.71365,1.29582 -4.40585,5.54933 -4.87847,8.38491 -0.42704,2.54593 0.48788,4.58884 2.02742,5.15294 0.11061,-0.71688 0.36729,-2.51551 0.65603,-3.73511 0.38278,-1.58555 1.57051,-6.12859 1.57051,-6.12859 0,0 -0.3518,4.66507 -0.51886,6.2963 -0.12059,1.23487 -0.47239,3.0033 -0.62505,3.75038 1.67693,-0.11062 3.21657,-1.76854 3.64361,-4.32974"
       id="path58598" />
    <path
       style="fill:#000000;fill-opacity:1;fill-rule:nonzero;stroke:none;stroke-width:3.90279"
       d="m 159.51592,153.48126 c -2.2562,1.84466 -5.25938,2.59174 -7.33292,1.15864 l -0.0443,-0.0115 -1.0366,-1.11294 v -0.0332 c -1.20444,-2.11902 0,-4.83267 2.24093,-6.67744 2.40887,-1.93614 7.08908,-4.2534 10.5193,-3.75037 l 0.97575,0.13719 0.0774,0.94478 c 0.33521,3.49116 -3.09455,7.45494 -5.39678,9.34529"
       id="path58600" />
    <path
       style="fill:#eec214;fill-opacity:1;fill-rule:nonzero;stroke:none;stroke-width:3.90279"
       d="m 154.17999,147.71853 c 2.28706,-1.87508 6.61648,-3.91798 9.46742,-3.47591 0.27326,2.85084 -2.66797,6.46404 -4.96985,8.33922 -2.05828,1.6922 -4.3906,2.02763 -5.74758,1.11283 0.62506,-0.48788 2.10396,-1.63113 3.03404,-2.50013 1.23486,-1.15875 4.69538,-4.51263 4.69538,-4.51263 0,0 -4.0097,2.75935 -5.38151,3.73511 -1.06759,0.77774 -2.46972,1.98184 -3.06447,2.48498 -0.77773,-1.37215 -0.11061,-3.49116 1.96657,-5.18347"
       id="path58602" />
    <path
       style="fill:#000000;fill-opacity:1;fill-rule:nonzero;stroke:none;stroke-width:3.90279"
       d="m 141.60285,159.00007 c 0.15267,2.80514 1.66145,5.36634 4.20761,5.778 h 0.0443 l 1.55492,-0.0774 0.0443,-0.0116 c 2.46971,-0.64054 3.68931,-3.33871 3.52148,-6.14386 -0.15267,-2.97286 -1.64662,-7.75984 -4.40586,-9.71125 l -0.79322,-0.56422 -0.77773,0.57971 c -2.89664,2.21039 -3.53719,7.27184 -3.38452,10.15322"
       id="path58604" />
    <path
       style="fill:#eec214;fill-opacity:1;fill-rule:nonzero;stroke:none;stroke-width:3.90279"
       d="m 149.71329,158.60368 c -0.16817,-2.86611 -1.61621,-7.19574 -3.91799,-8.82698 -2.37843,1.81411 -3.07972,6.31157 -2.92717,9.16241 0.13608,2.59174 1.49407,4.39059 3.15585,4.6498 -0.0774,-0.74676 -0.21463,-2.53067 -0.21463,-3.7808 0,-1.63125 0.18365,-6.31158 0.18365,-6.31158 0,0 0.68591,4.63454 0.89942,6.25062 0.13608,1.23486 0.18366,3.04897 0.19915,3.79607 1.61608,-0.42704 2.75923,-2.36308 2.62226,-4.93954"
       id="path58606" />
    <path
       style="fill:#000000;fill-opacity:1;fill-rule:nonzero;stroke:none;stroke-width:3.90279"
       d="m 139.08711,167.9338 c 0.83858,2.71366 2.91191,4.87848 5.47333,4.7413 l 0.0443,-0.0115 1.49396,-0.39606 0.0443,-0.0116 c 2.22588,-1.15896 2.79021,-4.05549 1.96668,-6.75398 -0.86845,-2.83557 -3.47579,-7.19575 -6.63164,-8.52209 l -0.89942,-0.38168 -0.60957,0.74676 c -2.28662,2.74408 -1.72263,7.83607 -0.88395,10.59541"
       id="path58608" />
    <path
       style="fill:#eec214;fill-opacity:1;fill-rule:nonzero;stroke:none;stroke-width:3.90279"
       d="m 146.90791,165.82995 c -0.85407,-2.74419 -3.30796,-6.6469 -5.9455,-7.75984 -1.8753,2.2563 -1.49396,6.78419 -0.64055,9.52826 0.74676,2.48499 2.50047,3.9639 4.16193,3.8724 -0.24228,-0.70139 -0.80761,-2.42402 -1.11262,-3.64361 -0.3673,-1.60082 -1.31097,-6.18966 -1.31097,-6.18966 0,0 1.76831,4.37543 2.36273,5.91518 0.42703,1.17391 0.91491,2.91191 1.11305,3.64362 1.4788,-0.76224 2.11881,-2.88137 1.37183,-5.36635"
       id="path58610" />
    <path
       style="fill:#000000;fill-opacity:1;fill-rule:nonzero;stroke:none;stroke-width:3.90279"
       d="m 154.89654,161.13447 c -1.75305,2.28672 -4.49713,3.65876 -6.86031,2.69837 l -0.0443,-0.0116 -1.23485,-0.85406 -0.0443,-0.0332 c -1.69232,-1.81434 -1.15875,-4.71098 0.59409,-6.96728 1.86013,-2.40876 5.86949,-5.65599 9.33001,-5.88466 l 0.99126,-0.0774 0.30423,0.88395 c 1.14314,3.33882 -1.25046,7.92766 -3.03404,10.24493"
       id="path58612" />
    <path
       style="fill:#eec214;fill-opacity:1;fill-rule:nonzero;stroke:none;stroke-width:3.90279"
       d="m 148.32587,156.65238 c 1.78391,-2.30211 5.50364,-5.19876 8.38513,-5.39689 0.96027,2.72892 -1.05211,6.87558 -2.8358,9.19284 -1.61608,2.08871 -3.79629,2.9119 -5.33592,2.28685 0.48788,-0.5941 1.64662,-2.02765 2.36317,-3.06436 0.93041,-1.38719 3.49105,-5.39678 3.49105,-5.39678 0,0 -3.24711,3.53686 -4.34501,4.80225 -0.85296,0.94479 -1.95141,2.43929 -2.3936,3.04909 -1.09745,-1.1739 -0.94478,-3.38453 0.67042,-5.473"
       id="path58614" />
    <path
       style="fill:#000000;fill-opacity:1;fill-rule:nonzero;stroke:none;stroke-width:3.90279"
       d="m 138.34013,176.71511 c 1.357,2.48498 3.85714,4.25351 6.32685,3.65887 h 0.0443 l 1.38742,-0.68591 0.0443,-0.0116 c 1.96668,-1.53975 1.93614,-4.45165 0.5797,-6.9519 -1.4331,-2.65259 -4.87847,-6.44877 -8.24783,-7.18047 l -0.96028,-0.21352 -0.44252,0.83858 c -1.70747,3.12531 -0.11062,8.00389 1.28055,10.54984"
       id="path58616" />
    <path
       style="fill:#eec214;fill-opacity:1;fill-rule:nonzero;stroke:none;stroke-width:3.90279"
       d="m 145.58179,173.26974 c -1.38742,-2.56121 -4.58896,-5.96099 -7.39388,-6.57079 -1.38741,2.56121 -0.0885,6.93664 1.28054,9.48259 1.25003,2.28684 3.26228,3.41493 4.87848,3.04907 -0.38279,-0.67041 -1.28055,-2.22588 -1.79885,-3.3844 -0.7014,-1.49406 -2.57658,-5.8238 -2.57658,-5.8238 0,0 2.63753,3.97904 3.50631,5.36634 0.68592,1.06759 1.50956,2.68324 1.84478,3.36925 1.28054,-1.00562 1.49405,-3.20153 0.25776,-5.48826"
       id="path58618" />
    <path
       style="fill:#000000;fill-opacity:1;fill-rule:nonzero;stroke:none;stroke-width:3.90279"
       d="m 151.63427,170.00714 c -1.31141,2.51551 -3.78102,4.2992 -6.266,3.75037 h -0.0443 l -1.38742,-0.64055 -0.0443,-0.0443 c -1.99711,-1.49407 -2.02753,-4.42113 -0.71689,-6.95192 1.38742,-2.66796 4.75667,-6.52498 8.11043,-7.3025 l 0.96027,-0.24448 0.4569,0.82309 c 1.75316,3.09477 0.24229,8.01904 -1.08197,10.61067"
       id="path58620" />
    <path
       style="fill:#eec214;fill-opacity:1;fill-rule:nonzero;stroke:none;stroke-width:3.90279"
       d="m 144.33166,166.65326 c 1.3414,-2.57647 4.46682,-6.03721 7.25691,-6.6927 1.44827,2.53067 0.23013,6.92137 -1.11305,9.51301 -1.18916,2.31726 -3.18627,3.49116 -4.80246,3.14057 0.36729,-0.68591 1.23485,-2.28684 1.7536,-3.43021 0.65493,-1.50921 2.45445,-5.86939 2.45445,-5.86939 0,0 -2.56143,4.00948 -3.41495,5.44258 -0.65603,1.06759 -1.44836,2.69839 -1.78402,3.39967 -1.31086,-0.99124 -1.5548,-3.18627 -0.35181,-5.50353"
       id="path58622" />
    <path
       style="fill:#000000;fill-opacity:1;fill-rule:nonzero;stroke:none;stroke-width:3.90279"
       d="m 139.34633,185.26772 c 1.78391,2.24105 4.57368,3.58266 6.89117,2.57648 l 0.0663,-0.0332 1.23475,-0.85406 0.0443,-0.0443 c 1.64663,-1.84466 1.06759,-4.6956 -0.73126,-6.93664 -1.89057,-2.39349 -5.97594,-5.54933 -9.42174,-5.71695 l -0.99125,-0.0663 -0.30423,0.88393 c -1.09745,3.33872 1.38753,7.89714 3.23196,10.18386"
       id="path58624" />
    <path
       style="fill:#eec214;fill-opacity:1;fill-rule:nonzero;stroke:none;stroke-width:3.90279"
       d="m 145.82573,180.67888 c -1.84487,-2.28673 -5.6103,-5.09187 -8.49178,-5.24432 -0.89942,2.72891 1.20444,6.84515 3.01889,9.11662 1.64618,2.07343 3.84153,2.85094 5.36635,2.21061 -0.50337,-0.59409 -1.67705,-1.9971 -2.40887,-3.03382 -0.96027,-1.35688 -3.59792,-5.32055 -3.59792,-5.32055 0,0 3.30796,3.47589 4.45144,4.71075 0.85406,0.94479 1.98184,2.40876 2.42402,3.01855 1.09745,-1.20443 0.88394,-3.3844 -0.76224,-5.45784"
       id="path58626" />
    <path
       style="fill:#000000;fill-opacity:1;fill-rule:nonzero;stroke:none;stroke-width:3.90279"
       d="m 150.85676,178.48364 c -0.56421,2.72881 -2.43918,5.07661 -5.0006,5.15284 h -0.0443 l -1.50923,-0.27437 -0.0663,-0.0115 c -2.34747,-0.96027 -3.15541,-3.79607 -2.57627,-6.54026 0.5941,-2.91179 2.78978,-7.47021 5.80855,-9.0405 l 0.85407,-0.4569 0.68591,0.68591 c 2.54583,2.5612 2.43929,7.66834 1.84488,10.48876"
       id="path58628" />
    <path
       style="fill:#eec214;fill-opacity:1;fill-rule:nonzero;stroke:none;stroke-width:3.90279"
       d="m 142.91382,177.03527 c 0.56421,-2.8203 2.6527,-6.90611 5.1681,-8.23246 2.08871,2.10386 2.11925,6.6469 1.52438,9.45205 -0.51885,2.53079 -2.11879,4.14677 -3.78057,4.17729 0.16816,-0.73127 0.5797,-2.48498 0.74675,-3.70468 0.24228,-1.60071 0.76225,-6.26577 0.76225,-6.26577 0,0 -1.37182,4.49734 -1.79885,6.06763 -0.33522,1.20433 -0.65604,2.98802 -0.79323,3.71984 -1.52481,-0.62506 -2.36317,-2.69838 -1.8296,-5.2139"
       id="path58630" />
    <path
       style="fill:#000000;fill-opacity:1;fill-rule:nonzero;stroke:none;stroke-width:3.90279"
       d="m 142.42594,193.86604 c 2.2562,1.82949 5.25982,2.59173 7.31777,1.15874 l 0.0443,-0.0332 1.02113,-1.09746 v -0.0443 c 1.21969,-2.10386 0,-4.81752 -2.24094,-6.66218 -2.378,-1.93626 -7.08899,-4.25352 -10.50403,-3.75037 l -0.97576,0.13719 -0.0885,0.9304 c -0.31972,3.50643 3.11015,7.47021 5.41193,9.36067"
       id="path58632" />
    <path
       style="fill:#eec214;fill-opacity:1;fill-rule:nonzero;stroke:none;stroke-width:3.90279"
       d="m 147.74661,188.1034 c -2.28696,-1.87518 -6.61637,-3.91808 -9.46732,-3.47589 -0.27326,2.85084 2.68312,6.46392 4.96974,8.3391 2.08881,1.67694 4.40586,2.02763 5.7477,1.09746 -0.62507,-0.4724 -2.07355,-1.61598 -3.03371,-2.50025 -1.23518,-1.14337 -4.68055,-4.51262 -4.68055,-4.51262 0,0 4.00968,2.77472 5.38151,3.75037 1.05209,0.77774 2.47015,1.98184 3.04931,2.48498 0.8076,-1.3873 0.11061,-3.50643 -1.96668,-5.18337"
       id="path58634" />
    <path
       style="fill:#000000;fill-opacity:1;fill-rule:nonzero;stroke:none;stroke-width:3.90279"
       d="m 152.68603,186.39594 c 0.31973,2.7746 -0.74675,5.54922 -3.171,6.31147 l -0.0663,0.0116 -1.52448,0.15266 -0.0663,-0.0115 c -2.53067,-0.27437 -4.19245,-2.75946 -4.51251,-5.54935 -0.31972,-2.94232 0.3518,-7.89701 2.74408,-10.21428 l 0.70139,-0.68591 0.85407,0.47239 c 3.2323,1.738 4.72625,6.64702 5.03104,9.51311"
       id="path58636" />
    <path
       style="fill:#eec214;fill-opacity:1;fill-rule:nonzero;stroke:none;stroke-width:3.90279"
       d="m 144.6213,187.18871 c -0.31972,-2.83567 0.38278,-7.3483 2.40875,-9.29971 2.63755,1.43311 4.07065,5.77801 4.40597,8.62885 0.27326,2.56121 -0.74675,4.54304 -2.33275,5.06146 -0.0663,-0.74676 -0.23011,-2.54594 -0.42704,-3.7808 -0.30423,-1.6161 -1.23485,-6.18967 -1.23485,-6.18967 0,0 0.0885,4.66507 0.18364,6.29632 0.0443,1.25011 0.28875,3.01855 0.39606,3.76563 -1.66189,-0.16815 -3.11016,-1.92087 -3.39978,-4.48208"
       id="path58638" />
    <path
       style="fill:#000000;fill-opacity:1;fill-rule:nonzero;stroke:none;stroke-width:3.90279"
       d="m 146.93879,201.59545 c 2.5914,1.38731 5.70155,1.60071 7.43945,-0.16815 v -0.0443 l 0.77773,-1.26528 v -0.0332 c 0.76224,-2.30212 -0.97576,-4.74129 -3.55201,-6.12861 -2.72881,-1.49406 -7.8208,-2.92717 -11.06825,-1.81422 l -0.94478,0.31973 0.11062,0.91491 c 0.39605,3.49116 4.57368,6.78418 7.21122,8.21718"
       id="path58640" />
    <path
       style="fill:#eec214;fill-opacity:1;fill-rule:nonzero;stroke:none;stroke-width:3.90279"
       d="m 151.00899,194.97898 c -2.6527,-1.433 -7.3025,-2.63744 -10.01616,-1.72274 0.31973,2.86622 3.94852,5.8695 6.58595,7.3025 2.36317,1.29593 4.72635,1.20443 5.85423,0.0443 -0.71689,-0.35071 -2.37833,-1.2196 -3.49106,-1.89047 -1.44826,-0.89942 -5.50375,-3.58265 -5.50375,-3.58265 0,0 4.49769,1.98194 6.03732,2.71365 1.18917,0.54874 2.82053,1.49407 3.49106,1.87519 0.50337,-1.49395 -0.60957,-3.46063 -2.95759,-4.74128"
       id="path58642" />
    <path
       style="fill:#000000;fill-opacity:1;fill-rule:nonzero;stroke:none;stroke-width:3.90279"
       d="m 156.87838,194.14051 c 1.02111,2.63743 0.6859,5.56449 -1.46353,6.86041 l -0.0443,0.0116 -1.44827,0.51886 h -0.0443 c -2.54594,0.30533 -4.80247,-1.72263 -5.80865,-4.37533 -1.09745,-2.78988 -1.70747,-7.74469 0,-10.54973 l 0.50337,-0.82308 0.96027,0.25887 c 3.58277,0.97576 6.28116,5.41215 7.33303,8.09527"
       id="path58644" />
    <path
       style="fill:#eec214;fill-opacity:1;fill-rule:nonzero;stroke:none;stroke-width:3.90279"
       d="m 149.24067,196.76268 c -1.03661,-2.68312 -1.49406,-7.21101 -0.0443,-9.55881 2.9119,0.77773 5.44246,4.66506 6.47907,7.36345 0.94478,2.40887 0.4569,4.57369 -0.96027,5.42742 -0.23012,-0.71689 -0.83858,-2.40875 -1.38708,-3.55224 -0.68592,-1.49394 -2.77484,-5.73219 -2.77484,-5.73219 0,0 1.28088,4.51261 1.76876,6.05237 0.38278,1.21969 1.08196,2.88136 1.37182,3.58265 -1.64663,0.21352 -3.50633,-1.15863 -4.45155,-3.58265"
       id="path58646" />
    <path
       style="fill:#000000;fill-opacity:1;fill-rule:nonzero;stroke:none;stroke-width:3.90279"
       d="m 153.44828,208.45587 c 2.85094,0.82309 5.93067,0.3507 7.19596,-1.738 v -0.0443 l 0.45691,-1.38731 v -0.0443 c 0.19913,-2.40875 -2.07366,-4.40585 -4.92461,-5.22916 -3.01844,-0.86845 -8.32384,-1.18907 -11.22058,0.5797 l -0.82309,0.51885 0.31971,0.86956 c 1.20443,3.32345 6.05249,5.62556 8.97954,6.47929"
       id="path58648" />
    <path
       style="fill:#eec214;fill-opacity:1;fill-rule:nonzero;stroke:none;stroke-width:3.90279"
       d="m 155.81134,201.13811 c -2.89663,-0.82309 -7.72942,-1.02112 -10.13828,0.4569 0.99124,2.71366 5.24466,4.87847 8.14129,5.71705 2.62184,0.74676 4.89374,0.16817 5.71683,-1.18916 -0.76223,-0.19803 -2.60711,-0.68591 -3.85713,-1.12821 -1.61575,-0.56421 -6.21998,-2.302 -6.21998,-2.302 0,0 4.84816,0.97576 6.54037,1.35688 1.2957,0.28985 3.09455,0.83858 3.87239,1.09745 0.12059,-1.57029 -1.4331,-3.23196 -4.05549,-4.00946"
       id="path58650" />
    <path
       style="fill:#000000;fill-opacity:1;fill-rule:nonzero;stroke:none;stroke-width:3.90279"
       d="m 162.74787,200.61981 c 1.69221,2.31726 2.18009,5.19863 0.45691,6.98233 l -0.0443,0.0443 -1.26527,0.82309 -0.0443,0.0116 c -2.36319,0.9304 -5.092,-0.50337 -6.81462,-2.78989 -1.79919,-2.43929 -3.76587,-7.07382 -2.86623,-10.2144 l 0.24229,-0.89943 0.99125,0.0116 c 3.735,0.0443 7.56159,3.67415 9.33002,6.02195"
       id="path58652" />
    <path
       style="fill:#eec214;fill-opacity:1;fill-rule:nonzero;stroke:none;stroke-width:3.90279"
       d="m 156.08571,204.99513 c -1.73789,-2.3478 -3.4301,-6.58594 -2.68312,-9.22337 3.04931,0.0554 6.54025,3.20153 8.30868,5.54934 1.55491,2.10374 1.69221,4.2991 0.56421,5.47299 -0.4569,-0.62506 -1.50911,-2.11912 -2.3323,-3.09478 -1.06759,-1.28065 -4.2688,-4.86319 -4.2688,-4.86319 0,0 2.48532,4.04 3.38453,5.4273 0.71687,1.06758 1.84476,2.53067 2.31737,3.11004 -1.55524,0.60958 -3.70446,-0.25887 -5.29024,-2.37833"
       id="path58654" />
    <path
       style="fill:#000000;fill-opacity:1;fill-rule:nonzero;stroke:none;stroke-width:3.90279"
       d="m 161.66558,213.79169 c 2.98801,0.15268 5.85423,-1.00563 6.5251,-3.32345 l 0.0443,-0.0443 0.0774,-1.46353 v -0.0332 c -0.41155,-2.37833 -3.14058,-3.81133 -6.12859,-3.94851 -3.14058,-0.15268 -8.36954,0.73126 -10.71745,3.10993 l -0.67041,0.68591 0.53324,0.77773 c 2.01269,2.9576 7.31776,4.0857 10.36706,4.23814"
       id="path58656" />
    <path
       style="fill:#eec214;fill-opacity:1;fill-rule:nonzero;stroke:none;stroke-width:3.90279"
       d="m 162.10776,206.16903 c -3.04919,-0.15267 -7.79037,0.76224 -9.75694,2.74419 1.66179,2.40876 6.34201,3.53686 9.39087,3.67415 2.74408,0.13718 4.7872,-0.91491 5.24455,-2.43929 -0.80871,-0.0116 -2.71354,-0.0774 -4.04011,-0.21352 -1.70747,-0.18254 -6.63164,-0.83858 -6.63164,-0.83858 0,0 4.96974,-0.15267 6.69248,-0.15267 1.34184,-0.0116 3.24756,0.1217 4.02496,0.16815 -0.27325,-1.53975 -2.19535,-2.80514 -4.92417,-2.94232"
       id="path58658" />
    <path
       style="fill:#000000;fill-opacity:1;fill-rule:nonzero;stroke:none;stroke-width:3.90279"
       d="m 169.65421,204.50737 c 2.45444,1.60071 3.96367,4.17718 2.98801,6.40296 v 0.0443 l -0.88393,1.18917 -0.0443,0.0332 c -1.89056,1.63124 -4.96985,1.1739 -7.40914,-0.44252 -2.59185,-1.69231 -6.11334,-5.42742 -6.41856,-8.65938 l -0.0885,-0.94478 0.9304,-0.28986 c 3.53675,-1.14347 8.44565,1.02112 10.94622,2.66797"
       id="path58660" />
    <path
       style="fill:#eec214;fill-opacity:1;fill-rule:nonzero;stroke:none;stroke-width:3.90279"
       d="m 165.01968,210.77314 c -2.50059,-1.66178 -5.62556,-5.10715 -5.88466,-7.80564 2.88104,-0.94479 7.30216,0.88394 9.8179,2.51551 2.22577,1.4788 3.01844,3.84186 2.3936,5.30539 -0.65604,-0.4569 -1.89056,-1.60082 -3.20187,-2.50025 -2.10364,-1.44836 -5.76252,-3.18626 -5.76252,-3.18626 0,0 3.15585,2.43929 5.15284,4.00947 1.25012,0.97576 2.50013,2.10386 3.15584,2.50025 -1.21959,1.06758 -3.4302,0.62506 -5.67113,-0.83858"
       id="path58662" />
  </g>
</svg>
