<?xml version="1.0" encoding="UTF-8" standalone="no"?>
<svg
   xmlns:dc="http://purl.org/dc/elements/1.1/"
   xmlns:cc="http://creativecommons.org/ns#"
   xmlns:rdf="http://www.w3.org/1999/02/22-rdf-syntax-ns#"
   xmlns:svg="http://www.w3.org/2000/svg"
   xmlns="http://www.w3.org/2000/svg"
   xmlns:sodipodi="http://sodipodi.sourceforge.net/DTD/sodipodi-0.dtd"
   xmlns:inkscape="http://www.inkscape.org/namespaces/inkscape"
   width="187.08661pt"
   height="170.65625pt"
   viewBox="0 0 187.08661 170.65625"
   version="1.2"
   id="svg67"
   sodipodi:docname="Bryne FK logo.svg"
   inkscape:version="0.92.4 (5da689c313, 2019-01-14)">
  <metadata
     id="metadata73">
    <rdf:RDF>
      <cc:Work
         rdf:about="">
        <dc:format>image/svg+xml</dc:format>
        <dc:type
           rdf:resource="http://purl.org/dc/dcmitype/StillImage" />
        <dc:title></dc:title>
      </cc:Work>
    </rdf:RDF>
  </metadata>
  <defs
     id="defs71" />
  <sodipodi:namedview
     pagecolor="#ffffff"
     bordercolor="#666666"
     borderopacity="1"
     objecttolerance="10"
     gridtolerance="10"
     guidetolerance="10"
     inkscape:pageopacity="0"
     inkscape:pageshadow="2"
     inkscape:window-width="640"
     inkscape:window-height="480"
     id="namedview69"
     showgrid="false"
     inkscape:pagecheckerboard="true"
     inkscape:zoom="0.91237113"
     inkscape:cx="105.67664"
     inkscape:cy="113.08852"
     inkscape:window-x="0"
     inkscape:window-y="0"
     inkscape:window-maximized="0"
     inkscape:current-layer="surface48" />
  <g
     id="surface48"
     transform="translate(-3.0952085,-11.726563)">
    <path
       style="fill:#211e1e;fill-opacity:1;fill-rule:evenodd;stroke:none"
       d="m 185.90625,98.667969 c 0,0 -1.26172,-1.085938 -1.26172,-1.085938 -1.54297,-1.3125 -2.03906,-1.761718 -2.24219,-2.476562 -0.38672,-1.351563 -0.13672,-3.425781 0.0664,-5.09375 0.125,-1.042969 0.23437,-1.941406 0.20703,-2.65625 -0.0547,-1.386719 -0.26172,-2.816406 -1.40234,-3.871094 -0.86719,-0.800781 -2.15235,-1.257812 -4.01953,-1.410156 l -0.0234,-0.08203 c -0.30469,-1.25 -0.52344,-2.15625 -0.52344,-3.378907 l 0.008,-0.835937 c 0.0195,-1.527344 0.0391,-3.101563 -0.51172,-4.480469 -0.68359,-1.714844 -1.71093,-3.585937 -3.14453,-5.734375 -1.24609,-1.867187 -1.54297,-2.308594 -1.58593,-4.613281 l -0.004,-0.710938 c -0.004,-1.472656 -0.008,-2.863281 -0.92969,-3.804687 -0.51562,-0.523438 -1.05078,-0.832031 -1.61328,-1.011719 0.55078,-1.414062 1.08203,-2.847656 1.37891,-4.210937 0.52343,-2.371094 0.34765,-5.09375 0.10937,-7.445313 -0.16015,-1.582031 -0.48828,-2.890625 -0.77734,-4.042969 -0.33594,-1.339843 -0.6211,-2.5 -0.61719,-3.828125 l 0.0195,-2.835937 -0.004,-0.03125 c -0.1211,-2.511719 -1.48047,-3.90625 -2.57813,-5.023438 -1.13281,-1.160156 -1.66406,-1.773437 -1.375,-3.042968 0.62109,-2.730469 0.19531,-5.855469 -1.03906,-7.59375 -0.64844,-0.90625 -1.34375,-1.160157 -1.8125,-1.214844 l -0.0625,-0.0039 h -0.0586 c -2.73828,0.01172 -5.33984,0.585937 -7.85546,1.144531 l -3.17969,0.660156 c -0.6836,0.125 -1.46875,0.144531 -2.22656,0.164063 l -1.04297,0.03516 c -0.043,0.0039 -4.1836,0.242187 -5.36328,1.019531 -1.47657,0.96875 -3.24219,1.515625 -5.24219,1.628906 -4.78516,0.269532 -10.41406,0.222657 -12.98438,0.148438 l -1.32421,-0.01172 c -1.61329,-0.0078 -3.28125,-0.01172 -4.53907,-0.476562 -1.10547,-0.40625 -1.61718,-1.136719 -2.21093,-1.980469 -0.54688,-0.78125 -1.17188,-1.664063 -2.28125,-2.195313 -0.89063,-0.425781 -1.92188,-0.472656 -2.91407,-0.519531 l -1.08593,-0.07031 c -1.17579,-0.132813 -2.78125,-1.300782 -4.19141,-2.332032 -0.83203,-0.605468 -1.61719,-1.175781 -2.34375,-1.570312 -2.56641,-1.390625 -4.753907,-2.066406 -6.687501,-2.066406 -1.929688,0 -4.117188,0.675781 -6.683594,2.066406 -0.726562,0.394531 -1.511719,0.964844 -2.34375,1.570312 -1.414062,1.03125 -3.015625,2.199219 -4.195312,2.332032 l -1.085938,0.07031 c -0.992187,0.04687 -2.019531,0.09375 -2.910156,0.519531 -1.113281,0.53125 -1.734375,1.414063 -2.28125,2.195313 -0.597656,0.84375 -1.109375,1.574219 -2.210938,1.980469 -1.261718,0.464843 -2.929687,0.46875 -4.542968,0.476562 L 69.0625,22.949219 C 66.492188,23.023438 60.859375,23.070313 56.078125,22.800781 54.074219,22.6875 52.3125,22.140625 50.835938,21.171875 49.652344,20.394531 45.511719,20.15625 45.472656,20.152344 c 0,0 -1.042968,-0.03516 -1.042968,-0.03516 -0.761719,-0.01953 -1.546875,-0.03906 -2.230469,-0.164063 L 39.019531,19.292969 C 36.503906,18.734375 33.90625,18.160156 31.167969,18.148438 h -0.0625 l -0.05859,0.0039 c -0.472656,0.05469 -1.167969,0.308594 -1.8125,1.214844 -1.234375,1.738281 -1.664062,4.863281 -1.039062,7.59375 0.289062,1.269531 -0.246094,1.882812 -1.378907,3.042968 -1.09375,1.117188 -2.457031,2.511719 -2.578125,5.023438 v 0.03125 l 0.01563,2.835937 c 0.0078,1.332032 -0.28125,2.488282 -0.617187,3.828125 -0.289063,1.152344 -0.617188,2.460938 -0.777344,4.042969 -0.238281,2.351563 -0.410156,5.074219 0.109375,7.445313 0.300781,1.363281 0.832031,2.796875 1.382813,4.210937 -0.5625,0.179688 -1.101563,0.488281 -1.613282,1.011719 -0.921875,0.941406 -0.925781,2.332031 -0.929687,3.804687 l -0.0078,0.710938 c -0.03906,2.304687 -0.335937,2.746094 -1.585937,4.613281 -1.429688,2.144531 -2.457031,4.015625 -3.140625,5.734375 -0.550781,1.378906 -0.53125,2.953125 -0.511719,4.480469 l 0.0078,0.835937 c 0,1.222657 -0.222657,2.125 -0.527344,3.371094 l -0.01953,0.08594 C 14.160156,82.222656 12.871094,82.679688 12,83.484375 c -1.140625,1.054688 -1.347656,2.484375 -1.402344,3.871094 -0.02734,0.714844 0.08203,1.613281 0.210938,2.65625 0.203125,1.667969 0.453125,3.742187 0.06641,5.09375 -0.203125,0.714844 -0.703125,1.164062 -2.242187,2.476562 l -1.265625,1.085938 c -1.660157,1.453121 -4.421875,4.539061 -4.265625,8.863281 0.136718,3.8125 1.539062,6.03516 3.035156,7.86719 0,0 0.828125,0.95312 0.828125,0.95312 0.921875,1.02344 1.714844,1.90625 1.769531,3.11328 0,0 0.00391,2.44141 0.00391,2.44141 l -0.011718,1.42969 c 0.015625,2.88281 1.476562,4.17578 3.023437,5.54687 0.992188,0.87891 2.023438,1.78906 2.90625,3.28906 1.210938,2.05079 1.824219,3.54297 2.316406,4.73829 0.558594,1.34765 0.996094,2.41015 1.960938,3.3125 0.355469,0.33593 0.875,0.63281 1.476562,0.97656 1.128907,0.64453 2.53125,1.44922 3.109375,2.63672 0.210938,0.4414 0.277344,1.49609 0.339844,2.51562 0.101563,1.66016 0.21875,3.53906 0.957031,5.0625 2.101563,4.35156 12.039063,7.90235 14.007813,8.57031 1.777344,0.60157 3.445312,1.65625 4.660156,2.42579 l 0.289063,0.17968 c 1.671875,1.05078 2.933593,1.65625 5.160156,0.5625 2.730469,-1.34375 4.566406,-1.85156 6.546875,-1.8164 2.761719,0.0508 5.640625,2.12109 8.691406,4.30859 l 3.199219,2.21484 c 0,0.004 0.09375,0.0625 0.09375,0.0625 1.761719,1.13672 2.871094,1.3086 7.601562,-1.40625 2.007813,-1.15234 8.6875,1.19532 11.914063,4.1875 1.953125,1.80469 3.425781,4.33204 4.722656,6.5625 1.667969,2.85938 2.980469,5.11719 4.933594,5.11719 1.953125,0 3.269531,-2.25781 4.933593,-5.11719 1.30078,-2.23046 2.77344,-4.75781 4.72266,-6.5625 3.22656,-2.99218 9.91016,-5.33984 11.91797,-4.1875 4.72656,2.71485 5.83984,2.54297 7.60156,1.40625 l 0.0937,-0.0586 c 0,-0.004 3.19922,-2.21875 3.19922,-2.21875 3.04687,-2.1875 5.92969,-4.25781 8.6914,-4.30859 1.98047,-0.0352 3.8125,0.47265 6.54688,1.8164 2.22656,1.09375 3.48828,0.48828 5.16016,-0.5625 l 0.28906,-0.18359 c 1.21484,-0.76563 2.88281,-1.82031 4.66015,-2.42188 1.96875,-0.66796 11.90235,-4.21875 14.00782,-8.57031 0.73828,-1.52344 0.85156,-3.40234 0.95312,-5.0625 0.0664,-1.01953 0.12891,-2.07422 0.34375,-2.51562 0.57422,-1.1875 1.98047,-1.99219 3.10938,-2.63672 0.60156,-0.34375 1.11718,-0.64063 1.47656,-0.97656 0.96094,-0.90235 1.40234,-1.96485 1.95703,-3.3125 0.49609,-1.19532 1.10547,-2.6875 2.31641,-4.73829 0.88672,-1.5 1.91406,-2.41015 2.90625,-3.28906 1.55078,-1.37109 3.01172,-2.66406 3.02734,-5.54687 l -0.0117,-1.42188 0.004,-2.44922 c 0.0508,-1.20703 0.84765,-2.08984 1.76953,-3.11328 l 0.82812,-0.95312 c 1.4961,-1.83203 2.89844,-4.0586 3.03516,-7.86719 0.15234,-4.32422 -2.60937,-7.41016 -4.26953,-8.863281"
       id="path4"
       inkscape:connector-curvature="0" />
    <path
       style="fill:#26973a;fill-opacity:1;fill-rule:evenodd;stroke:none"
       d="m 184.53125,100.24609 -1.24609,-1.070309 c -1.61719,-1.378906 -2.50782,-2.140625 -2.89454,-3.492187 -0.5039,-1.761719 -0.22656,-4.070313 0,-5.925781 0.11329,-0.914063 0.21485,-1.773438 0.19532,-2.320313 -0.0508,-1.300781 -0.25782,-1.976562 -0.73047,-2.414062 -0.44922,-0.414063 -1.21875,-0.683594 -2.32031,-0.816407 -0.0312,1.027344 -0.39454,1.9375 -1.17579,3.257813 l -0.97656,1.742187 c -1.26172,2.320313 -2.44922,4.515625 -5.6914,7.042969 -0.53125,0.414063 -0.55469,1.214844 -0.55079,2.488281 0.004,1.121094 0.008,2.394529 -0.55078,3.609379 -0.61718,1.35547 -1.8125,2.32812 -3.07422,3.35937 -0.91015,0.73828 -1.84375,1.50391 -2.53125,2.40235 -0.375,0.49218 -0.6289,1.72265 -0.85156,2.80859 -0.32422,1.55078 -0.625,3.01172 -1.4414,3.79687 -0.91797,0.87891 -2.37891,2.42188 -3.78907,3.91407 l -2.01172,2.11718 c -1.73828,1.80079 -2.7539,2.75782 -5.03906,3.09766 l -0.0781,0.0117 H 43.5 l -0.07422,-0.0117 c -2.289061,-0.33984 -3.30078,-1.29687 -5.039061,-3.09766 L 36.371094,118.625 c -1.410156,-1.48828 -2.867188,-3.03125 -3.785156,-3.91016 -0.816407,-0.78515 -1.121094,-2.24609 -1.441407,-3.79687 -0.226562,-1.08594 -0.480468,-2.31641 -0.855468,-2.80859 -0.683594,-0.89844 -1.621094,-1.66407 -2.527344,-2.40235 -1.261719,-1.03125 -2.457031,-2.0039 -3.078125,-3.35937 -0.554688,-1.21485 -0.550781,-2.488285 -0.546875,-3.609379 0.0039,-1.273437 -0.01953,-2.074218 -0.550781,-2.488281 -3.242188,-2.527344 -4.433594,-4.722656 -5.695313,-7.042969 l -0.972656,-1.742187 c -0.785156,-1.320313 -1.144531,-2.230469 -1.179688,-3.257813 -1.09375,0.132813 -1.867187,0.402344 -2.316406,0.816407 -0.476562,0.4375 -0.679687,1.117187 -0.730469,2.414062 -0.02344,0.546875 0.08203,1.40625 0.191407,2.320313 0.226562,1.855468 0.507812,4.164062 0.0039,5.925781 -0.390625,1.351562 -1.28125,2.113281 -2.898438,3.488281 l -1.242187,1.070315 c -1.382813,1.21094 -3.679688,3.7539 -3.554688,7.21484 0.121094,3.35156 1.386719,5.17578 2.566407,6.6211 l 0.761718,0.87109 c 1.039063,1.15625 2.21875,2.46875 2.304688,4.42578 l 0.0078,2.56641 c 0,0 -0.01563,1.38281 -0.01563,1.38281 0.01172,1.94531 0.929688,2.76172 2.320313,3.99219 1.011719,0.89453 2.269531,2.00781 3.320312,3.79296 1.285157,2.17969 1.960938,3.8125 2.453125,5 0.511719,1.2461 0.820313,1.9961 1.453125,2.58985 0.179688,0.16406 0.640625,0.42969 1.085938,0.68359 1.304687,0.7461 3.09375,1.76953 3.953125,3.53906 0.394531,0.81641 0.464844,1.96875 0.546875,3.30079 0.08984,1.46875 0.191406,3.1289 0.75,4.28125 1.257812,2.59765 7.515625,5.70703 12.796875,7.5 2.011719,0.67968 3.800781,1.8125 5.105469,2.63671 l 0.285156,0.17969 c 1.5625,0.98047 1.941406,1.03516 3.125,0.45313 3.015625,-1.48047 5.191406,-2.07032 7.503906,-2.02735 3.414063,0.0625 6.699219,2.41797 9.875,4.69922 l 3.113281,2.15625 0.09375,0.0625 c 0.933594,0.60156 1.355469,0.875 5.425782,-1.46094 3.257812,-1.875 11.035156,1.35938 14.382812,4.46485 2.175781,2.01953 3.734375,4.6875 5.105469,7.04687 1.058594,1.81641 2.375,4.07422 3.125,4.07422 0.753906,0 2.070312,-2.25781 3.125,-4.07422 1.375004,-2.35937 2.929694,-5.02734 5.109374,-7.04687 3.34766,-3.10547 11.1211,-6.33985 14.38282,-4.46485 4.0664,2.33594 4.49218,2.0625 5.42187,1.46094 l 0.0977,-0.0625 3.10937,-2.15625 c 3.17578,-2.28125 6.46094,-4.63672 9.875,-4.69922 2.31641,-0.043 4.48828,0.54688 7.50781,2.02735 1.1836,0.58203 1.5625,0.52734 3.125,-0.45313 l 0.28516,-0.18359 c 1.30469,-0.82422 3.09375,-1.95313 5.10547,-2.63281 5.28125,-1.79297 11.53906,-4.90235 12.79687,-7.5 0.5586,-1.15235 0.66016,-2.8125 0.75,-4.28125 0.082,-1.33204 0.15235,-2.48438 0.54688,-3.30079 0.85547,-1.76953 2.64453,-2.79296 3.95312,-3.53906 0.44532,-0.2539 0.90625,-0.51953 1.08594,-0.68359 0.63281,-0.59375 0.94141,-1.34375 1.45313,-2.58985 0.48828,-1.1875 1.16406,-2.82031 2.44922,-5 1.05078,-1.78515 2.3125,-2.89843 3.32421,-3.79296 1.39063,-1.23047 2.3086,-2.04688 2.32032,-3.99219 l -0.0156,-1.375 c 0,0 0.008,-2.57422 0.008,-2.57422 0.082,-1.95703 1.26172,-3.26953 2.30469,-4.42578 l 0.76172,-0.87109 c 1.17578,-1.44532 2.44531,-3.26954 2.56641,-6.6211 0.12109,-3.46094 -2.17578,-6.0039 -3.55469,-7.21094"
       id="path6"
       inkscape:connector-curvature="0" />
    <path
       style="fill:#26973a;fill-opacity:1;fill-rule:evenodd;stroke:none"
       d="m 175.22266,82.574219 -0.0234,-0.08594 c -0.32813,-1.34375 -0.58594,-2.402343 -0.58594,-3.875 l 0.008,-0.859375 c 0.004,-0.277343 0.008,-0.550781 0.008,-0.820312 0,-1.074219 -0.0547,-2.070313 -0.3711,-2.863281 -0.625,-1.574219 -1.58594,-3.324219 -2.9375,-5.34375 -1.43359,-2.144532 -1.88672,-2.957032 -1.9375,-5.742188 l -0.008,-0.738281 c -0.004,-0.992188 -0.004,-2.015625 -0.33203,-2.347656 -0.26953,-0.277344 -0.53906,-0.433594 -0.88281,-0.519532 l -0.10157,0.265625 c -0.82812,2.179688 -1.51953,4.347657 -2.14062,6.367188 l -1.07422,3.582031 c -0.78516,2.664063 -1.60156,5.421875 -2.52734,8.003906 -1.14454,3.195313 -1.46485,3.488282 -4.00782,5.179688 0,0 -0.49609,0.332031 -0.51172,0.34375 l -9.48828,6.078125 H 44.96875 L 35.464844,83.109375 34.96875,82.78125 C 32.421875,81.085938 32.105469,80.796875 30.957031,77.597656 30.03125,75.015625 29.21875,72.257813 28.429688,69.59375 l -1.070313,-3.582031 c -0.625,-2.023438 -1.316406,-4.195313 -2.140625,-6.367188 l -0.105469,-0.265625 c -0.339843,0.08594 -0.609375,0.242188 -0.882812,0.519532 -0.324219,0.332031 -0.328125,1.355468 -0.328125,2.347656 0,0 -0.0078,0.738281 -0.0078,0.738281 -0.05078,2.785156 -0.507812,3.597656 -1.9375,5.742188 -1.351562,2.019531 -2.3125,3.765625 -2.941406,5.34375 -0.316406,0.792968 -0.367187,1.785156 -0.367187,2.859375 0,0.269531 0,0.542968 0.0039,0.824218 l 0.0078,0.859375 c 0,1.472657 -0.257812,2.53125 -0.582031,3.867188 l -0.02344,0.09375 c -0.148438,0.597656 -0.226563,1.046875 -0.226563,1.453125 0,0.722656 0.261719,1.308594 0.890625,2.371094 l 1.011719,1.8125 c 1.203125,2.214843 2.242187,4.128906 5.140625,6.386718 1.285156,1.003907 1.355469,2.507813 1.355469,3.882813 0,0.08984 0,0.449219 0,0.539062 0,0.863282 0.03125,1.738279 0.359375,2.457029 0.417968,0.91016 1.429687,1.73438 2.5,2.60938 1,0.8164 2.03125,1.66015 2.871093,2.75781 0.660157,0.87109 0.941407,2.22266 1.238282,3.64844 0.207031,1.0039 0.492187,2.3789 0.835937,2.71094 0.957031,0.91406 2.433594,2.47656 3.859375,3.98437 l 2.003906,2.10547 c 1.609375,1.67187 2.214844,2.22656 3.777344,2.47266 0.1875,0 105.746093,0 105.933593,0 1.55859,-0.2461 2.16406,-0.80079 3.77734,-2.47266 l 1.9961,-2.10156 c 1.42968,-1.50782 2.91015,-3.07032 3.86328,-3.98828 0.34765,-0.33204 0.63281,-1.70704 0.83984,-2.71094 0.29688,-1.42969 0.57422,-2.77735 1.23828,-3.64844 0.83594,-1.09766 1.8711,-1.94141 2.8711,-2.75781 1.07031,-0.875 2.07812,-1.69922 2.49609,-2.60938 0.33203,-0.71875 0.35937,-1.593747 0.35937,-2.457029 0,-0.08984 0,-0.449218 0,-0.542968 0,-1.371094 0.0742,-2.875 1.35938,-3.878907 2.89453,-2.257812 3.93359,-4.171875 5.13672,-6.386718 l 1.01562,-1.8125 c 0.62891,-1.0625 0.89063,-1.648438 0.89063,-2.371094 0,-0.40625 -0.082,-0.855469 -0.22656,-1.453125"
       id="path8"
       inkscape:connector-curvature="0" />
    <path
       style="fill:#26973a;fill-opacity:1;fill-rule:evenodd;stroke:none"
       d="m 69.121094,25.042969 1.269531,-0.01563 c 1.710938,-0.0078 3.652344,-0.01172 5.257813,-0.601563 1.714843,-0.632812 2.535156,-1.800781 3.199218,-2.742187 0.476563,-0.679688 0.855469,-1.214844 1.472657,-1.511719 0.507812,-0.242187 1.320312,-0.28125 2.105468,-0.316406 l 1.222657,-0.08203 c 1.730468,-0.195313 3.570312,-1.535157 5.191406,-2.71875 0.773437,-0.5625 1.503906,-1.09375 2.109375,-1.421875 2.21875,-1.203125 4.132812,-1.8125 5.6875,-1.8125 1.554687,0 3.468751,0.609375 5.691411,1.8125 0.60546,0.328125 1.33203,0.859375 2.10937,1.421875 1.62109,1.183593 3.46094,2.523437 5.19141,2.71875 l 1.22265,0.08203 c 0.78516,0.03516 1.59375,0.07422 2.10157,0.316406 0.62109,0.296875 0.99609,0.832031 1.47656,1.511719 0.66015,0.941406 1.48047,2.109375 3.19922,2.742187 1.60547,0.589844 3.54297,0.59375 5.25781,0.601563 l 1.26953,0.01563 c 2.60156,0.07031 8.30859,0.117187 13.16016,-0.152344 2.375,-0.132812 4.48437,-0.796875 6.27343,-1.972656 0,0 -0.008,0.0039 -0.008,0.0039 0.42188,-0.242187 2.65234,-0.589844 4.33203,-0.679687 l 0.98438,-0.03125 c 0.83984,-0.02344 1.70703,-0.04687 2.55468,-0.199219 l 3.25391,-0.675781 c 2.48047,-0.550782 4.82422,-1.066407 7.29688,-1.089844 0.45703,0.183594 1.27343,1.871094 1.27343,4.144531 0,0.660156 -0.0664,1.371094 -0.23828,2.105469 -0.0898,0.398437 -0.1289,0.765625 -0.1289,1.109375 0,1.761719 1.08203,2.867187 2.05078,3.859375 0.97656,1 1.89843,1.945312 1.98437,3.65625 0,0.09375 -0.0156,2.804687 -0.0156,2.828125 0,1.566406 0.32812,2.882812 0.67968,4.28125 0.28516,1.136719 0.57813,2.3125 0.72266,3.746094 0.12109,1.167968 0.22266,2.429687 0.22266,3.667968 0,1.082032 -0.0781,2.144532 -0.29297,3.117188 -0.31641,1.441406 -0.92578,2.992187 -1.57422,4.636719 l -0.58594,1.503906 c -0.85156,2.238281 -1.58203,4.539062 -2.18359,6.496094 l -1.07813,3.605468 c -0.78125,2.632813 -1.58593,5.359375 -2.49218,7.886719 -0.95313,2.652344 -0.95313,2.652344 -3.19922,4.144531 l -0.5,0.335938 c 0,0 -8.46485,5.421875 -8.95313,5.734375 -0.60547,0 -101.50781,0 -102.113279,0 -0.488281,-0.3125 -8.972656,-5.746094 -8.972656,-5.746094 C 36.625,81.371094 36.125,81.035156 36.125,81.035156 33.878906,79.542969 33.878906,79.542969 32.925781,76.890625 32.019531,74.363281 31.214844,71.636719 30.4375,69 l -1.082031,-3.601562 c -0.632813,-2.058594 -1.335938,-4.269532 -2.179688,-6.496094 l -0.585937,-1.503906 c -0.648438,-1.644532 -1.261719,-3.195313 -1.578125,-4.636719 -0.210938,-0.972656 -0.292969,-2.035156 -0.292969,-3.117188 0,-1.238281 0.105469,-2.5 0.222656,-3.667968 0.144532,-1.433594 0.441407,-2.609375 0.726563,-3.746094 0.347656,-1.394531 0.679687,-2.714844 0.679687,-4.28125 0,-0.02344 -0.01563,-2.734375 -0.01953,-2.828125 0.08594,-1.710938 1.007813,-2.65625 1.984375,-3.65625 0.972656,-0.992188 2.050781,-2.097656 2.050781,-3.859375 0,-0.34375 -0.03906,-0.710938 -0.128906,-1.109375 -0.167969,-0.734375 -0.238281,-1.445313 -0.238281,-2.105469 0,-2.273437 0.820312,-3.960937 1.273437,-4.144531 2.472657,0.02344 4.816407,0.539062 7.296875,1.089844 l 3.257813,0.675781 c 0.84375,0.152344 1.710937,0.175781 2.554687,0.199219 l 0.980469,0.03125 c 1.683594,0.08984 3.910156,0.4375 4.335938,0.679687 l -0.0078,-0.0039 c 1.789063,1.175781 3.898438,1.839844 6.273438,1.972656 4.851562,0.269531 10.554687,0.222656 13.160156,0.152344"
       id="path10"
       inkscape:connector-curvature="0" />
    <path
       style="fill:#211e1e;fill-opacity:1;fill-rule:evenodd;stroke:none"
       d="M 153.73828,33.796875 H 38.25 v 79.191405 c 0,12.60938 5.511719,24.17578 15.519531,32.56641 10.660157,8.9375 25.484375,13.66406 42.867188,13.66406 17.386721,0 32.210941,-4.72656 42.867191,-13.66406 10.00781,-8.39063 15.51953,-19.95703 15.51953,-32.56641 V 33.796875 h -1.28516"
       id="path12"
       inkscape:connector-curvature="0" />
    <path
       style="fill:#ffffff;fill-opacity:1;fill-rule:evenodd;stroke:none"
       d="m 152.45703,36.363281 c 0,2.484375 0,76.624999 0,76.624999 0,11.83594 -5.1875,22.70313 -14.60156,30.60156 -10.19141,8.54297 -24.44531,13.0586 -41.218751,13.0586 -16.773438,0 -31.027344,-4.51563 -41.21875,-13.0586 -9.414063,-7.89843 -14.597656,-18.76562 -14.597656,-30.60156 0,0 0,-74.140624 0,-76.624999 2.480468,0 109.152347,0 111.636717,0"
       id="path14"
       inkscape:connector-curvature="0" />
    <path
       style="fill:#211e1e;fill-opacity:1;fill-rule:evenodd;stroke:none"
       d="m 126.42188,41.488281 v 22.339844 h -3.51563 L 111.48828,45.558594 v 18.269531 h -2.84765 V 41.488281 h 3.66796 l 11.26172,18.023438 V 41.488281 h 2.85157"
       id="path16"
       inkscape:connector-curvature="0" />
    <path
       style="fill:#211e1e;fill-opacity:1;fill-rule:evenodd;stroke:none"
       d="m 133.88672,60.976563 h 13.18359 v 2.851562 H 131.03516 V 41.488281 h 16.03515 v 2.851563 h -13.18359 v 6.417969 h 12.3164 v 2.851562 h -12.3164 v 7.367188"
       id="path18"
       inkscape:connector-curvature="0" />
    <path
       style="fill:#211e1e;fill-opacity:1;fill-rule:evenodd;stroke:none"
       d="M 98.472656,63.828125 H 95.621094 V 54.695313 L 87.367188,41.488281 h 3.363281 l 6.316406,10.109375 6.316405,-10.109375 h 3.36328 l -8.253904,13.210938 v 9.128906"
       id="path20"
       inkscape:connector-curvature="0" />
    <path
       style="fill:#211e1e;fill-opacity:1;fill-rule:evenodd;stroke:none"
       d="m 57.519531,60.988281 c 1.753907,0 3.015625,-0.3125 3.789063,-0.929687 0.769531,-0.617188 1.15625,-1.25 1.15625,-2.632813 0,-1.339843 -0.414063,-2.292968 -1.234375,-2.953125 -0.820313,-0.660156 -2.058594,-0.988281 -3.710938,-0.988281 h -5.808593 v 7.503906 z m -8.660156,2.839844 0.0039,-22.339844 h 8.6875 c 1.695313,0 3.410157,0.117188 4.804688,0.878907 0.730469,0.398437 1.375,0.976562 1.882812,1.804687 0.53125,0.871094 0.800782,1.878906 0.800782,3.019531 0,2.222657 -1,4.257813 -2.445313,4.828125 1.128906,0.457032 1.980469,1.207032 2.53125,2.203125 0.492188,0.878907 0.746094,1.949219 0.761719,3.175782 0.01953,2.207031 -1.101563,3.992187 -2.492188,5.015625 -1.574218,1.164062 -3.558593,1.414062 -5.839843,1.414062 z m 8.371094,-13.175781 c 1.667969,0 2.851562,-0.257813 3.558594,-0.765625 0.707031,-0.511719 1.058593,-1.292969 1.058593,-2.457031 0,-2.003907 -1.835937,-3.089844 -3.761718,-3.089844 h -6.375 v 6.3125 h 5.519531"
       id="path22"
       inkscape:connector-curvature="0" />
    <path
       style="fill:#211e1e;fill-opacity:1;fill-rule:evenodd;stroke:none"
       d="M 69.683594,63.828125 V 41.488281 h 8.570312 c 2.460938,0 4.132813,0.472657 5.375,1.449219 1.242188,0.976563 1.914063,2.476563 1.914063,4.402344 0,2.617187 -0.800781,4.933594 -2.578125,5.550781 0.621094,0.238281 1.03125,0.527344 1.296875,0.851563 0.5,0.605468 0.570312,1.929687 0.695312,2.734375 0.08594,0.542968 0.105469,1.433593 0.265625,2.667968 0.238282,1.800782 0.550782,3.363282 0.929688,4.683594 H 82.960938 C 82.648438,62.570313 82.390625,60.746094 82.183594,59.125 81.960938,57.371094 81.785156,56.457031 81.628906,56.019531 81.074219,54.472656 78.4375,54.296875 77.105469,54.296875 h -4.570313 v 9.53125 z m 8.042969,-12.398437 c 2.757812,0 4.84375,-0.765625 4.84375,-3.769532 0,-2.972656 -2.351563,-3.320312 -4.84375,-3.320312 h -5.191407 v 7.089844 h 5.191407"
       id="path24"
       inkscape:connector-curvature="0" />
    <path
       style="fill:#211e1e;fill-opacity:1;fill-rule:evenodd;stroke:none"
       d="m 54.074219,110.70703 c 0,23.46875 19.09375,42.5625 42.5625,42.5625 23.468751,0 42.562501,-19.09375 42.562501,-42.5625 0,-23.468749 -19.09375,-42.562499 -42.562501,-42.562499 -23.46875,0 -42.5625,19.09375 -42.5625,42.562499"
       id="path26"
       inkscape:connector-curvature="0" />
    <path
       style="fill:#ee2621;fill-opacity:1;fill-rule:evenodd;stroke:none"
       d="m 103.80859,73.808594 c 0.97657,-0.289063 1.82032,-0.628906 2.50782,-0.996094 -1.4336,-0.789062 -2.92578,-1.410156 -4.46485,-1.839844 0.6875,0.796875 1.33985,1.75 1.95703,2.835938"
       id="path28"
       inkscape:connector-curvature="0" />
    <path
       style="fill:#ee2621;fill-opacity:1;fill-rule:evenodd;stroke:none"
       d="m 101.62891,147.08984 c -1.4961,-0.27343 -3.175785,-0.4414 -4.992191,-0.4414 -1.8125,0 -3.496094,0.16797 -4.992188,0.4414 1.601563,2.63672 3.324219,4.08594 4.992188,4.08594 1.667969,0 3.390621,-1.44922 4.992191,-4.08594"
       id="path30"
       inkscape:connector-curvature="0" />
    <path
       style="fill:#ee2621;fill-opacity:1;fill-rule:evenodd;stroke:none"
       d="m 91.644531,74.324219 c 1.496094,0.277344 3.179688,0.441406 4.992188,0.441406 1.816406,0 3.496091,-0.164062 4.992191,-0.441406 -1.60157,-2.636719 -3.324222,-4.085938 -4.992191,-4.085938 -1.667969,0 -3.390625,1.449219 -4.992188,4.085938"
       id="path32"
       inkscape:connector-curvature="0" />
    <path
       style="fill:#ee2621;fill-opacity:1;fill-rule:evenodd;stroke:none"
       d="m 91.425781,70.972656 c -1.539062,0.429688 -3.03125,1.050782 -4.46875,1.839844 0.691407,0.367188 1.535157,0.707031 2.507813,0.996094 0.617187,-1.085938 1.269531,-2.039063 1.960937,-2.835938"
       id="path34"
       inkscape:connector-curvature="0" />
    <path
       style="fill:#ee2621;fill-opacity:1;fill-rule:evenodd;stroke:none"
       d="m 101.85156,150.44141 c 1.53907,-0.42969 3.03125,-1.04688 4.46485,-1.83985 -0.6875,-0.36719 -1.53125,-0.70703 -2.50782,-0.99609 -0.61718,1.08594 -1.26953,2.03906 -1.95703,2.83594"
       id="path36"
       inkscape:connector-curvature="0" />
    <path
       style="fill:#ee2621;fill-opacity:1;fill-rule:evenodd;stroke:none"
       d="m 91.425781,150.44141 c -0.691406,-0.79688 -1.34375,-1.75 -1.960937,-2.83594 -0.972656,0.28906 -1.816406,0.6289 -2.507813,0.99609 1.4375,0.79297 2.929688,1.41016 4.46875,1.83985"
       id="path38"
       inkscape:connector-curvature="0" />
    <path
       style="fill:#ee2621;fill-opacity:1;fill-rule:evenodd;stroke:none"
       d="m 83.433594,72.59375 c -0.02344,-0.03516 -0.04687,-0.07031 -0.07422,-0.109375 -10.382812,3.617188 -18.855469,11.351563 -23.449219,21.238281 h 9.507813 C 72.214844,84.546875 77.203125,77.046875 83.433594,72.59375"
       id="path40"
       inkscape:connector-curvature="0" />
    <path
       style="fill:#ee2621;fill-opacity:1;fill-rule:evenodd;stroke:none"
       d="m 83.359375,148.92969 c 0.02734,-0.0352 0.05078,-0.0742 0.07422,-0.10938 -6.230469,-4.45312 -11.21875,-11.95312 -14.015625,-21.1289 h -9.507813 c 4.59375,9.88671 13.066407,17.61718 23.449219,21.23828"
       id="path42"
       inkscape:connector-curvature="0" />
    <path
       style="fill:#ee2621;fill-opacity:1;fill-rule:evenodd;stroke:none"
       d="m 84.949219,147.35547 c 0.957031,-0.66406 2.175781,-1.21094 3.546875,-1.64063 -2.15625,-4.61328 -3.773438,-10.96484 -4.769531,-18.02343 H 71.589844 c 2.734375,8.6289 7.484375,15.62109 13.359375,19.66406"
       id="path44"
       inkscape:connector-curvature="0" />
    <path
       style="fill:#ee2621;fill-opacity:1;fill-rule:evenodd;stroke:none"
       d="M 88.496094,75.703125 C 87.125,75.269531 85.90625,74.722656 84.949219,74.058594 c -5.875,4.042969 -10.625,11.035156 -13.359375,19.664062 H 83.726563 C 84.722656,86.664063 86.339844,80.3125 88.496094,75.703125"
       id="path46"
       inkscape:connector-curvature="0" />
    <path
       style="fill:#ee2621;fill-opacity:1;fill-rule:evenodd;stroke:none"
       d="m 108.32813,74.058594 c -0.95704,0.664062 -2.17579,1.210937 -3.54688,1.644531 2.15625,4.609375 3.76953,10.960938 4.76953,18.019531 H 121.6875 C 118.94922,85.09375 114.19922,78.101563 108.32813,74.058594"
       id="path48"
       inkscape:connector-curvature="0" />
    <path
       style="fill:#ee2621;fill-opacity:1;fill-rule:evenodd;stroke:none"
       d="m 104.78125,145.71484 c 1.37109,0.42969 2.58984,0.97657 3.54688,1.64063 5.87109,-4.04297 10.62109,-11.03516 13.35937,-19.66406 h -12.13672 c -1,7.05859 -2.61328,13.41015 -4.76953,18.02343"
       id="path50"
       inkscape:connector-curvature="0" />
    <path
       style="fill:#ee2621;fill-opacity:1;fill-rule:evenodd;stroke:none"
       d="m 90.601563,145.16797 c 1.925781,-0.40625 4.011718,-0.61328 6.035156,-0.61328 2.023437,0 4.109371,0.20703 6.035161,0.61328 1.99218,-4.08203 3.71484,-10.07813 4.78906,-17.47656 H 85.816406 c 1.070313,7.39843 2.796875,13.39453 4.785157,17.47656"
       id="path52"
       inkscape:connector-curvature="0" />
    <path
       style="fill:#ee2621;fill-opacity:1;fill-rule:evenodd;stroke:none"
       d="m 102.67188,76.246094 c -1.92579,0.40625 -4.011724,0.613281 -6.035161,0.613281 -2.023438,0 -4.109375,-0.207031 -6.035156,-0.613281 -1.988282,4.082031 -3.714844,10.078125 -4.785157,17.476562 h 21.644534 c -1.07422,-7.398437 -2.79688,-13.394531 -4.78906,-17.476562"
       id="path54"
       inkscape:connector-curvature="0" />
    <path
       style="fill:#ee2621;fill-opacity:1;fill-rule:evenodd;stroke:none"
       d="m 109.91406,72.484375 c -0.0234,0.03906 -0.0469,0.07422 -0.0742,0.109375 6.23047,4.453125 11.21875,11.953125 14.01563,21.128906 h 9.51172 C 128.77344,83.835938 120.29688,76.105469 109.91406,72.484375"
       id="path56"
       inkscape:connector-curvature="0" />
    <path
       style="fill:#ee2621;fill-opacity:1;fill-rule:evenodd;stroke:none"
       d="m 109.83984,148.82031 c 0.0273,0.0352 0.0508,0.0742 0.0742,0.10938 10.38672,-3.6211 18.85938,-11.35157 23.45313,-21.23828 h -9.51172 c -2.79688,9.17578 -7.78516,16.67578 -14.01563,21.1289"
       id="path58"
       inkscape:connector-curvature="0" />
    <path
       style="fill:#ffffff;fill-opacity:1;fill-rule:evenodd;stroke:none"
       d="m 134.23047,95.816406 c 1.89062,4.746094 2.875,9.746094 2.875,14.890624 0,5.14063 -0.98438,10.14453 -2.875,14.89063 -1.42578,0 -73.76172,0 -75.183595,0 -1.894531,-4.7461 -2.878906,-9.75 -2.878906,-14.89063 0,-5.14453 0.984375,-10.14453 2.878906,-14.890624 1.421875,0 73.757815,0 75.183595,0"
       id="path60"
       inkscape:connector-curvature="0" />
    <path
       style="fill:#211e1e;fill-opacity:1;fill-rule:evenodd;stroke:none"
       d="m 95.632813,99.109375 h 11.550777 v 2.792965 h -0.39062 c -0.73438,0 -1.1875,0.0352 -1.35547,0.11719 -0.27344,0.125 -0.46875,0.30078 -0.58594,0.52344 -0.12109,0.23047 -0.17968,0.65234 -0.17968,1.27734 v 5.73438 l 5.94531,-5.69922 c 0.32422,-0.3125 0.77344,-1.09375 0.83984,-1.19922 0.0664,-0.10937 0.0977,-0.20312 0.0977,-0.28125 0,-0.16016 -0.0625,-0.27734 -0.19141,-0.35547 -0.13281,-0.0859 -0.46484,-0.11719 -0.99609,-0.11719 h -0.95313 v -2.824215 h 11.10938 v 2.824215 h -0.35938 c -0.49609,0 -0.83984,0.0273 -1.03125,0.0742 -0.19531,0.0508 -0.42968,0.16407 -0.70703,0.33203 -0.27734,0.16797 -1.13281,0.53125 -1.5625,0.92579 l -5.14062,4.67578 6.58203,10.375 c 0.52734,0.83203 1.01953,1.26172 1.29297,1.41015 0.36328,0.20313 0.8789,0.3086 1.5664,0.3086 h 0.7461 l 0.008,2.80468 h -12.74609 l 0.008,-2.80468 h 0.51562 c 1.73438,0 3.07032,0.12109 1.97657,-1.67578 l -4.26172,-6.99219 -2.73828,2.34765 v 4.50782 c 0,1.44531 0.66406,1.8125 2.51171,1.8125 v 2.80468 H 95.632813 v -2.80468 c 1.558593,0 2.621093,-0.55469 2.621093,-2.54688 v -13.45312 c 0,-1.45703 -0.941406,-2.40235 -2.621093,-2.10157 v -2.792965"
       id="path62"
       inkscape:connector-curvature="0" />
    <path
       style="fill:#211e1e;fill-opacity:1;fill-rule:evenodd;stroke:none"
       d="m 72.535156,99.078125 h 19.421875 l 2.894532,6.828125 -1.871094,1.08203 c -1.503906,-1.41015 -3.320313,-3.47656 -5.296875,-4.45312 -1.351563,-0.67188 -3.816406,-0.96094 -5.15625,-0.38282 -0.441406,0.19141 -0.824219,0.48829 -1.117188,0.89844 l -0.0625,5.45703 h 1.445313 c 2.503906,0 2.597656,-2.05078 2.597656,-3.53515 h 2.753906 L 88.128906,115.5 h -2.738281 c 0,-2.30469 -0.539062,-3.60937 -3.03125,-3.54297 h -0.949219 l 0.01172,5.73828 c 0.0039,1.82422 1.207031,2.3086 1.953125,2.3086 h 0.96875 v 2.80468 H 72.535156 v -2.80468 c 1.796875,0 2.75,-0.41797 2.75,-2.53907 v -13.37109 c 0,-2.22266 -1.125,-2.19141 -2.75,-2.19141 v -2.824215"
       id="path64"
       inkscape:connector-curvature="0" />
  </g>
</svg>
