<?xml version="1.0" encoding="UTF-8"?>
<svg id="svg68" xmlns="http://www.w3.org/2000/svg" version="1.1" xmlns:cc="http://creativecommons.org/ns#" xmlns:dc="http://purl.org/dc/elements/1.1/" xmlns:inkscape="http://www.inkscape.org/namespaces/inkscape" xmlns:rdf="http://www.w3.org/1999/02/22-rdf-syntax-ns#" xmlns:sodipodi="http://sodipodi.sourceforge.net/DTD/sodipodi-0.dtd" xmlns:svg="http://www.w3.org/2000/svg" viewBox="0 0 590 1000">
  <!-- Generator: Adobe Illustrator 30.0.0, SVG Export Plug-In . SVG Version: 2.1.1 Build 123)  -->
  <defs>
    <style>
      .st0 {
        fill: #3cbeef;
      }

      .st1 {
        fill: #fff;
      }

      .st2 {
        fill: #e10a19;
      }

      .st3 {
        fill: #ffdb01;
      }
    </style>
  </defs>
  <sodipodi:namedview id="namedview70" bordercolor="#666666" borderlayer="true" borderopacity="1" gridtolerance="10" guidetolerance="10" inkscape:current-layer="g2083" inkscape:cx="500.40267" inkscape:cy="499.55882" inkscape:deskcolor="#d1d1d1" inkscape:document-rotation="0" inkscape:guide-bbox="true" inkscape:pagecheckerboard="0" inkscape:pageopacity="0" inkscape:pageshadow="2" inkscape:showpageshadow="false" inkscape:snap-global="true" inkscape:window-height="705" inkscape:window-maximized="1" inkscape:window-width="1366" inkscape:window-x="-8" inkscape:window-y="-8" inkscape:zoom="0.59252281" objecttolerance="10" pagecolor="#ffffff" showgrid="false" showguides="false">
    <sodipodi:guide id="guide1080" inkscape:locked="false" orientation="0,-1" position="125,22.80518"/>
    <sodipodi:guide id="guide907" inkscape:locked="false" orientation="0,-1" position="65.615227,147.7498"/>
    <sodipodi:guide id="guide909" inkscape:locked="false" orientation="1,0" position="65.615227,174.23941"/>
    <sodipodi:guide id="guide911" inkscape:locked="false" orientation="1,0" position="184.375,177.48075"/>
    <sodipodi:guide id="guide913" inkscape:locked="false" orientation="0,-1" position="184.38476,56.24481"/>
    <sodipodi:guide id="guide1383" inkscape:locked="false" orientation="1,0" position="62.5,177.48075"/>
    <sodipodi:guide id="guide1385" inkscape:locked="false" orientation="0,-1" position="62.5,177.48075"/>
    <sodipodi:guide id="guide1387" inkscape:locked="false" orientation="1,0" position="187.5,177.48075"/>
    <sodipodi:guide id="guide1421" inkscape:locked="false" orientation="0,-1" position="65.625,174.35575"/>
    <sodipodi:guide id="guide1565" inkscape:locked="false" orientation="0,-1" position="62.490227,54.393738"/>
    <sodipodi:guide id="guide1591" inkscape:locked="false" orientation="0,-1" position="125,19.237024"/>
    <sodipodi:guide id="guide1697" inkscape:locked="false" orientation="1,0" position="125,19.236818"/>
    <sodipodi:guide id="guide905" inkscape:locked="false" orientation="0,-1" position="153.04206,201.3576"/>
  </sodipodi:namedview>
  <g id="_x3C_defs">
    <inkscape:path-effect id="path-effect1008" effect="powerclip" flatten="false" hide_clip="false" inverse="true" is_visible="true" lpeversion="1" message="Use fill-rule evenodd on &lt;b&gt;fill and stroke&lt;/b&gt; dialog if no flatten result after convert clip to paths."/>
  </g>
  <g id="g2083" inkscape:groupmode="layer" inkscape:label="Escudo Sporting Cristal 2018" sodipodi:insensitive="true">
    <g id="g2123">
      <path id="path949-5" class="st3" d="M132.68,237.84l-50.68-37.01-50.69,36.99,19.53-59.64L0,141.39l62.75.15,19.27-59.73,19.25,59.73,62.75-.13-50.85,36.77,19.51,59.65Z" inkscape:flatsided="false" inkscape:randomized="0" inkscape:rounded="0" inkscape:transform-center-x="17.745233" inkscape:transform-center-y="4.2598805" sodipodi:arg1="0.91014936" sodipodi:arg2="1.5384679" sodipodi:cx="197.77966" sodipodi:cy="49.564304" sodipodi:r1="7.7866139" sodipodi:r2="2.9589133" sodipodi:sides="5" sodipodi:type="star"/>
      <path id="path949-9" class="st3" d="M367.9,224.5l-72.92-53.25-72.94,53.22,28.1-85.82-73.15-52.93,90.29.21L295.02,0l27.7,85.95,90.29-.18-73.17,52.91,28.07,85.83Z" inkscape:flatsided="false" inkscape:randomized="0" inkscape:rounded="0" inkscape:transform-center-x="25.532667" inkscape:transform-center-y="6.1293152" sodipodi:arg1="0.91014936" sodipodi:arg2="1.5384679" sodipodi:cx="197.77966" sodipodi:cy="49.564304" sodipodi:r1="7.7866139" sodipodi:r2="2.9589133" sodipodi:sides="5" sodipodi:type="star"/>
      <path id="path949-5-7" class="st3" d="M558.66,237.84l-50.68-37.01-50.69,36.99,19.53-59.64-50.84-36.79,62.75.15,19.27-59.73,19.25,59.73,62.75-.13-50.85,36.77,19.51,59.65Z" inkscape:flatsided="false" inkscape:randomized="0" inkscape:rounded="0" inkscape:transform-center-x="17.745212" inkscape:transform-center-y="4.2598823" sodipodi:arg1="0.91014936" sodipodi:arg2="1.5384679" sodipodi:cx="197.77966" sodipodi:cy="49.564304" sodipodi:r1="7.7866139" sodipodi:r2="2.9589133" sodipodi:sides="5" sodipodi:type="star"/>
      <path id="path1695" class="st3" d="M0,252.88h590v581.13l-295,165.99L0,834.01V252.88Z"/>
      <path id="path1700" class="st1" d="M14.7,393.25h560.55v432.02l-280.25,157.88L14.7,825.27v-432.02Z" sodipodi:nodetypes="cccccc"/>
      <rect id="rect1389" class="st2" x="14.7" y="267.64" width="186.85" height="110.86"/>
      <rect id="rect1389-3" class="st1" x="201.55" y="267.64" width="186.85" height="110.86"/>
      <rect id="rect1389-3-5" class="st2" x="388.4" y="267.64" width="186.85" height="110.86"/>
      <path id="path1703" class="st0" d="M110.28,393.25h464.97v262.11L110.28,393.25Z"/>
      <path id="path1703-3" class="st0" d="M14.7,615.45v209.83l280.3,157.88,186.06-104.82L14.7,615.45Z"/>
      <path id="path2077" class="st0" d="M378.63,592.36c-14.18.23-28.44,3.64-40.82,10.67-14.35,8.23-25.32,21.65-31.82,36.76-3.82,8.75-6.13,18.12-7.08,27.61-1.84,16.83-1.17,34.13,3.69,50.43,3.31,11.15,8.78,21.7,16.38,30.54,9.74,11.67,23.48,19.61,38.1,23.43,8.26,2.19,16.83,3.04,25.36,2.78,13.89-.17,28-3.07,40.14-10.03,11.4-6.04,20.34-16.26,25.47-28.04,1.69-3.75,2.85-7.71,3.91-11.68-9.18-1.66-18.35-3.33-27.53-4.99-.52,1.91-.99,3.84-1.67,5.7-.15.39-.45,1.2-.68,1.73-3.23,7.81-9.26,14.56-17.03,18.03-14.14,6.62-30.9,6.79-45.46,1.41-9.82-3.62-17.87-11.13-23.18-20.04-5.76-9.54-8.77-20.58-9.49-31.66-.2-2.6-.37-5.22-.44-7.73-.09-2.75-.11-5.58-.03-8.22.34-12.35,2.55-24.92,8.4-35.92,3.88-7.2,9.21-13.78,16.12-18.26,3.78-2.5,8.13-4.47,12.34-5.78,11.99-3.7,25.11-3.39,37.02.46,10.27,3.48,19.16,11.44,22.93,21.71.22.76.48,1.44,1.36.98,8.8-1.6,17.61-3.19,26.41-4.79-1.58-4.33-3.33-8.63-5.78-12.55-8.1-13.27-21.25-23.21-35.97-28.01-9.88-3.18-20.28-4.71-30.65-4.56h0Z"/>
      <path id="path2079" class="st0" d="M203.43,493.61c-13.14.36-26.49,3.26-37.78,10.2-8.44,5.22-15.67,12.77-19.55,21.99-5.32,12.61-5.01,27.66,1.46,39.8,3,5.66,7.48,10.49,12.86,13.95,10.69,7.24,23.19,11.13,35.63,14.12,13.85,3.37,28.07,5.83,41.19,11.62,7.51,2.49,13.72,9.2,14.73,17.17.23,2,.11,4.02.08,6.03-.43,6.67-4.48,12.62-9.69,16.58-3.88,3.05-8.52,4.96-13.28,6.13-4.95,1.3-10.05,2.03-15.17,2.22-.48,0-1.38.05-2.03.04-11.24.1-22.55-2.57-32.37-8.07-7.22-4.28-12.38-11.55-14.81-19.52-.18-.77-.39-1.48-1.3-1.01-8.49,1.54-16.98,3.08-25.47,4.62,1.38,5.62,3.13,11.18,5.84,16.31,3.09,6,7.36,11.36,12.32,15.92,8.59,7.75,19.57,12.39,30.78,14.78,10.25,2.19,20.81,2.75,31.27,2.33,12.87-.66,25.86-3.97,36.7-11.13,3.04-2.06,5.98-4.3,8.68-6.8,11.58-10.88,17.44-27.49,15.25-43.23-.61-9.24-5-17.94-11.28-24.63-4.94-5.3-11-9.52-17.63-12.45-13.95-6.46-29.15-9.38-44-12.93-4.66-1.11-9.45-2.33-13.93-3.69-1.69-.52-3.19-.99-4.88-1.57-3.37-1.08-6.76-2.29-9.69-4.32-3.9-2.55-7.18-6.54-7.65-11.31-.28-2.46-.5-4.97.07-7.42,1.51-7.26,7.15-13.19,13.83-16.1,6.09-2.42,12.62-3.68,19.15-4.1,4.24-.26,8.5-.13,12.72.36.7.08,1.76.22,2.6.35,4.11.69,8.24,1.53,12.13,3.05,8.18,3.37,14.21,10.91,16.59,19.33.33.46.15,1.77.86,1.61,8.86-1.61,17.72-3.21,26.58-4.82-1.31-4.86-2.92-9.66-4.99-14.25-4.83-9.72-13.18-17.39-22.74-22.35-10.42-5.48-22.17-8.12-33.89-8.61-3.06-.2-6.12-.25-9.18-.18h0Z"/>
    </g>
  </g>
</svg>