<?xml version="1.0" encoding="UTF-8"?>
<svg id="Calque_2" data-name="Calque 2" xmlns="http://www.w3.org/2000/svg" viewBox="0 0 571.02 690.51">
  <defs>
    <style>
      .cls-1 {
        fill: #222677;
      }

      .cls-2 {
        fill: #fff;
      }
    </style>
  </defs>
  <g id="_Слой_2" data-name="Слой 2">
    <g>
      <path class="cls-1" d="M0,0h571.02v641.05c0,27.29-22.16,49.45-49.45,49.45H49.45c-27.29,0-49.45-22.16-49.45-49.45V0h0Z"/>
      <rect class="cls-2" x="92.23" y="93.68" width="386.65" height="503.04" rx="32.91" ry="32.91"/>
      <g>
        <g>
          <path class="cls-2" d="M137.36,17.03h-12.2l-21.96,61.08h14.08l3.94-12.29h20.1l3.96,12.29h14.02l-21.95-61.08ZM124.88,54.47l6.39-19.89,6.41,19.89h-12.8Z"/>
          <path class="cls-2" d="M267.97,17.03h-12.2l-21.96,61.08h14.08l3.94-12.29h20.1l3.96,12.29h14.02l-21.95-61.08ZM255.48,54.47l6.39-19.89,6.41,19.89h-12.8Z"/>
          <path class="cls-2" d="M447.36,17.03h-12.2l-21.96,61.08h14.08l3.94-12.29h20.1l3.96,12.29h14.02l-21.95-61.08ZM434.87,54.47l6.39-19.89,6.41,19.89h-12.8Z"/>
          <polygon class="cls-2" points="203.41 66.29 203.41 78.11 167.39 78.11 167.39 17.03 180.15 17.03 180.15 66.29 203.41 66.29"/>
          <rect class="cls-2" x="212.8" y="17.03" width="13.32" height="61.08"/>
          <polygon class="cls-2" points="349.4 78.11 337.39 78.11 310.19 39.64 310.56 78.11 297.8 78.11 297.8 17.03 309.06 17.03 336.83 54.47 337.02 17.03 349.4 17.03 349.4 78.11"/>
          <path class="cls-2" d="M408.51,78.11h-47.39c-1.37,0-2.23-1.49-1.54-2.67l26.22-45.13-25.9-.61v-12.66h46.85c1.76,0,2.85,1.92,1.95,3.44l-27.21,45.44h27.02s0,12.2,0,12.2Z"/>
        </g>
        <g>
          <path class="cls-2" d="M551.06,179.15v-12.2l-60.34-21.96v14.08l12.14,3.94v20.1l-12.14,3.96v14.02l60.34-21.95ZM514.07,166.66l19.65,6.39-19.65,6.41v-12.8Z"/>
          <polygon class="cls-2" points="502.53 288.84 490.91 288.84 490.91 252.81 550.91 252.81 550.91 265.57 502.53 265.57 502.53 288.84"/>
          <polygon class="cls-2" points="550.91 198.02 550.91 244.93 538.37 244.93 538.37 228.04 490.91 228.04 490.91 214.91 538.37 214.91 538.37 198.02 550.91 198.02"/>
          <polygon class="cls-2" points="550.91 346.63 550.91 393.55 538.37 393.55 538.37 376.66 490.91 376.66 490.91 363.53 538.37 363.53 538.37 346.63 550.91 346.63"/>
          <g>
            <polygon class="cls-2" points="550.91 297.85 550.91 344.01 538.75 344.01 538.75 311.36 526.74 311.36 526.74 339.5 514.53 339.5 514.53 311.36 502.36 311.36 502.36 344.01 490.91 344.01 490.91 297.85 550.91 297.85"/>
            <polygon class="cls-2" points="569.52 318.73 569.52 332.37 556.57 322.24 556.57 313.24 569.52 318.73"/>
          </g>
          <rect class="cls-2" x="490.91" y="400.68" width="60" height="13.32"/>
          <path class="cls-2" d="M551.72,456.83c0,7.76-2.81,14.86-7.44,20.33l-11.3-7.49c3.36-3.19,5.44-7.64,5.44-12.58,0-9.7-8.07-17.57-18.04-17.57s-18.03,7.87-18.03,17.57c0,4.94,2.09,9.4,5.45,12.58l-10.64,7.57c-4.69-5.47-7.52-12.61-7.52-20.41,0-17.28,13.9-31.29,31.04-31.29s31.04,14.01,31.04,31.29Z"/>
          <path class="cls-2" d="M520.67,482.05c-17.14,0-31.04,14.23-31.04,31.78s13.9,31.78,31.04,31.78,31.04-14.23,31.04-31.78-13.9-31.78-31.04-31.78ZM520.67,532.03c-9.82,0-17.77-8.15-17.77-18.2s7.96-18.21,17.77-18.21,17.77,8.15,17.77,18.21-7.96,18.2-17.77,18.2Z"/>
        </g>
        <g>
          <polygon class="cls-2" points="69.23 352.79 80.85 352.79 80.85 388.81 20.84 388.81 20.84 376.05 69.23 376.05 69.23 352.79"/>
          <path class="cls-2" d="M19.8,417.16c0-7.76,2.81-14.86,7.44-20.33l11.3,7.49c-3.36,3.19-5.44,7.64-5.44,12.58,0,9.7,8.07,17.57,18.04,17.57s18.03-7.87,18.03-17.57c0-4.94-2.09-9.4-5.45-12.58l10.64-7.57c4.69,5.47,7.52,12.61,7.52,20.41,0,17.28-13.9,31.29-31.04,31.29s-31.04-14.01-31.04-31.29Z"/>
          <path class="cls-2" d="M81.88,322.81v2.75c0,12.89-10.44,23.33-23.32,23.33H20.84v-13.51h37.12c3.13,0,5.96-1.27,8.01-3.32,2.04-2.05,3.31-4.88,3.31-8.01,0-6.25-5.07-11.33-11.33-11.33H20.84v-13.23h37.72c12.88,0,23.32,10.44,23.32,23.32Z"/>
          <path class="cls-2" d="M75.73,246.76c-3.16-3.16-7.52-5.11-12.35-5.11-8.24,0-14.92,6.68-14.92,14.92-.56-3.56-2-6.08-4.19-7.73-2.19-1.64-5.13-2.4-8.68-2.4-8.15,0-14.74,6.6-14.74,14.74v25.65h60v-27.71c0-4.83-1.95-9.19-5.12-12.35ZM44.66,273.88h-12.67v-6.9c0-3.5,2.84-6.33,6.34-6.33,1.75,0,3.34,1.06,4.48,2.56,1.14,1.5,1.86,3.44,1.86,5.18v5.49ZM68.87,273.88h-12.95v-10.2c0-3.57,2.9-7.96,6.48-7.96,1.79,0,3.41,1.1,4.58,2.64,1.17,1.54,1.9,3.53,1.9,5.32v10.2Z"/>
        </g>
        <g>
          <path class="cls-2" d="M332.16,612.4h-12.3l-22.15,60.43h14.2l3.98-12.16h20.28l3.99,12.16h14.15l-22.14-60.43ZM319.56,649.43l6.44-19.68,6.47,19.68h-12.91Z"/>
          <path class="cls-2" d="M455.56,612.4h-12.3l-22.15,60.43h14.2l3.98-12.16h20.28l3.99,12.16h14.15l-22.14-60.43ZM442.97,649.43l6.44-19.68,6.47,19.68h-12.91Z"/>
          <polygon class="cls-2" points="249.29 661.32 249.29 672.94 213.26 672.94 213.26 612.93 226.02 612.93 226.02 661.32 249.29 661.32"/>
          <polygon class="cls-2" points="294.05 660.99 294.05 672.61 258.02 672.61 258.02 612.61 270.78 612.61 270.78 660.99 294.05 660.99"/>
          <polygon class="cls-2" points="413.51 673.15 401.5 673.15 374.29 634.68 374.66 673.15 361.9 673.15 361.9 612.07 373.16 612.07 400.94 649.51 401.12 612.07 413.51 612.07 413.51 673.15"/>
          <path class="cls-2" d="M175.3,673.96h-2.75c-12.89,0-23.33-10.44-23.33-23.32v-37.72h13.51v37.12c0,3.13,1.27,5.96,3.32,8.01,2.05,2.04,4.88,3.31,8.01,3.31,6.25,0,11.33-5.07,11.33-11.33v-37.12h13.23v37.72c0,12.88-10.44,23.32-23.32,23.32Z"/>
          <path class="cls-2" d="M130.09,628.82l7.04-10.27s-4.64-5.94-20.83-5.94-19.98,10.02-19.98,10.02c0,0-5.07,12.67,6.33,20.97,0,0,6.9,3.66,16.61,6.19,4.86,1.27,6.26,3.66,6.46,5.74.21,2.29-1.19,4.42-3.29,5.34-3.35,1.47-10.01,2.6-19.49-4.32l-8.44,9.57s9.57,8.16,22.38,8.16,18.86-7.32,18.86-7.32c0,0,9.48-11.61.74-22.16-1.79-2.16-4.08-3.83-6.62-5.01-3.05-1.42-8.22-3.67-12.66-4.77-6.8-1.69-9.61-4.5-7.5-8.16,2.11-3.66,11.4-3.94,20.41,1.97Z"/>
        </g>
      </g>
      <g>
        <rect x="369.11" y="307.04" width="4.5" height="27.4"/>
        <rect x="379.04" y="306.58" width="4.14" height="27.86"/>
        <rect x="388.44" y="306.58" width="4.4" height="27.86"/>
        <rect x="398" y="306.58" width="4.32" height="27.86"/>
        <path d="M473.44,446.66l-.47-88.95s1.31-25.99-14.73-29.74c0,0-10.79,2.9-13.23,14.35l-7.24.04v-29.92c0-.82-.07-1.63-.23-2.43-.69-3.57-2.69-11.48-9.29-13.99-1.03-.39-2.18-.43-3.22-.06-6.17,2.17-8.55,10.4-9.25,13.98-.16.82-.24,1.66-.24,2.5v30.04l-3.91.02v-97.33h-1.62v-25.19h-3.1c-.61-26.93-19.39-34.16-24.27-35.59-.71-.2-1.46-.24-2.18-.06-25.47,6.2-26.9,28.31-26.64,35.65h-3.2v25.19h-4.17v97.68h-.33v-30.4c0-.84-.08-1.67-.25-2.5-.7-3.58-3.08-11.81-9.24-13.98-1.05-.37-2.19-.33-3.23.06-6.6,2.51-8.6,10.41-9.29,13.99-.16.8-.23,1.61-.23,2.43v30.52h-3.1s-4.22-13.4-12.95-14.99c0,0-15.95,2.82-15.95,29.18h-1.6v71.87l-51.13,16.23s-5.42,2.79-12.52-1.92c-7.11-4.72-15.72-7.64-21.07-6.89,0,0-2.16-.1-4.23,5.63-1.58,4.4-9.83,3.64-13.56,3.05v-69.27h-1.76c.08-.16.16-.32.22-.49,2.11-5.91,3.02-8.45,4.64-8.45s6.34,1.83,13.09,6.47c4.95,3.41,9.57,5.9,13.53,7.11,1.67.51,2.76-.61,2.23-2.27-1.05-3.26-1.57-8.6.14-13.41,1.97-5.51,5.41-10.22,7.31-12.55.74-.91,2.04-1.08,2.99-.4l1.05.75c.82.59,1.89.74,2.84.41h.03c.69-.25,1.44-.04,1.94.5.53.59,1.46,1.37,3,2.12,1.55.77,2.79,2.07,3.43,3.69.74,1.86,1.89,4.28,3.39,5.8.94.95,2.36,1.23,3.58.71.43-.19.85-.5,1.29-.9,1.33-1.2,2.99-1.98,4.77-2.17l4.04-.41c1.47-.15,2.84-.8,3.88-1.84l2.89-2.9c1.33-1.33.25-3.59-1.62-3.39-4.18.45-9.27,1-9.92,1-.95,0-3.49.62-7.38-1.13-.94-.42-.94-1.75,0-2.15,3.67-1.59,11.22-4.86,16.1-10.66,3.8-4.5,6.08-7.85,7.35-9.92.9-1.47,1.37-3.15,1.37-4.87v-1.78c0-.99,1.24-1.43,1.86-.65l4.09,5.11c1.53,1.91,4.63,1.03,4.89-1.4.27-2.53.19-6.18-.79-11.39,0,0-1.05-3.39-4.91-9.69-1.18-1.92-1.87-4.11-1.98-6.37-.09-2.08.18-4.5,1.49-6.33,2.82-3.94,7.74-12.81,7.74-17.03s-11.77-8.86-11.77-8.86c0,0-16.51-7.74-26.23-7.74-5.9,0-11.79,3.58-15.52,6.39-2.35,1.78-5.67,1.56-7.75-.53l-2.92-2.91c-2.05-2.05-2.05-5.39,0-7.44l.61-.61c3.04-3.04,4.55-7.28,4.14-11.57-.07-.71-.15-1.43-.24-2.12-.18-1.46-2.12-1.83-2.82-.55l-.25.61c-.64,1.64-2.28,2.67-4.03,2.53-6.16-.51-20.03-1.78-23.29-3.08-4.23-1.69-5.02-5.49-5.02-5.49,0,0-.8-3.26-7.4-1.71-2.73.64-5.28,1.89-7.53,3.57l-12,8.97s-6.49,5.45-18.98,4.76c-1.38-.07-2.76.06-4.09.39-2.27.56-5.44,1.5-8.08,3.71-5.41,4.52-7.92,11.83-9.87,19.51-.3,1.2.66,2.33,1.89,2.23l9.34-.96c4.3-.37,8.48,1.6,10.9,5.18,2.27,3.35,5.01,7.58,7.53,10.79,1.49,1.89,4.32,2.01,5.97.26,1.96-2.06,4.53-5.62,7.08-11.68l3.2-6.28c.32-.62.51-1.28.56-1.97.14-1.79.3-5.57-.34-9.33-.27-1.6.37-3.21,1.66-4.2,1.88-1.43,5.01-3.03,9.42-2.71,0,0,6.05-.84,4.5,4.51-1.28,4.4-3.65,11.54-2.67,15.68.34,1.46,1.79,2.35,3.25,2.08,1.86-.36,4.95-1.43,9.39-4.49,1.26-.88,2.41-1.9,3.4-3.07,1.16-1.37,2.88-3.45,4.46-5.59,1.15-1.57,3.66-.82,3.71,1.13.04,1.83-.32,3.94-1,6.64,0,0,6.34,6.47,20.27,16.04,0,0,1.89,2.18,8.16-4.09l9.98-4.23c1.2-.51,2.58-.28,3.56.59,2.77,2.47,8.36,7.3,9.83,7.3h5.07c2.56,0,4.22.99,3.45,4.8-.95,8.47-4.08,24.14-15.55,33.97-12.02,10.31-27.24,17.54-33.78,20.4-2.01.88-3.9,2.01-5.65,3.34-2.09,1.58-5.28,3.7-8.56,4.77-5.63,1.83-14.07.71-14.07.71,0,0-22.24,1.97-31.81,6.33,0,0-4.65,2.96.98,6.76,5.63,3.8,12.11,7.88,12.11,7.88v38.98c-2.99,1.11-9.25,3.66-13.93,7.18l-4.37.78v-48.07h-5.23c-1.31-1.45-2.76-4.34-1.62-9.62,0,0,6.78-12.83,35.49-19.3,0,0,18.65-2.54,24-3.1,5.35-.56,16.88-1.41,21.11-19.63,0,0,1.97-14.01,7.03-15.06,5.07-1.05,11.61-1.26,14.01-6.4,2.39-5.14,2.74-8.23,2.74-8.23l-20.12-2.26-10.87-1.79s-24.08-5.8-25.3,9.54c-1.13,14.14,19.71,13.51,19.71,13.51,0,0,.07,6.12-3.66,6.75-3.73.63-38.14,3.94-44.89,7.18-6.76,3.24-13.51,4.09-13.51,4.09,0,0-8.12.23-8.82,6.94,0,0-1.29,7.93-9.27,6.94-7.98-.98-10.93-3.19-15.29-1.27-2.44,1.08-4.71,4.77-6.22,7.8-1.68,3.35-2.44,7.11-2.01,10.83.39,3.33,1.64,6.77,5.1,7.23,0,0,2.91.43,8.51-4.68,1.4-1.28,3.65-.85,4.44.88.98,2.17,2.15,5.38,2.94,9.66h-1.63v40.38c-.1-.65,0-.88,0-.88,0,0-5.49-3.28-8.49-6.28,0,0,.56-7.98-2.91-8.35-3.47-.38-17.92,1.87-17.92,8.35s20.55,16.04,20.55,16.04c0,0-7.5-.56-7.5,3.47s1.22,12.01,4.4,16.61l15.39,1.78s6.28.65,6.28-3.1-12.9-16.66-13.31-17.07c.62.27,37.07,16.43,39.96,18.48,0,0,13.6,6.47,23.92,6.47,6.88,0,15.97.42,21.27.7,1.2.06,1.47,1.73.35,2.15-1.79.68-4.11,1.34-6.8,1.65-6.47.76-23.64-2.06-29.27-3.94-5.63-1.88-23.08-2.44-23.08-2.44,0,0-6.75,5.07-15.48,13.79,0,0-9.29,6.38-15.67,9.11,0,0-4.12,2.34-8.82,8.25l-8.07,7.04v48.5l39.59-4.13s-16.98,5.07-27.59,13.98c-10.6,8.91,3.1,17.92,3.1,17.92,0,0,20.17,13.98,30.12,13.98,0,0,3.85-1.5,5.73-7.98,1.87-6.47,5.07-5.72,5.07-5.72,0,0,19.14-.38,23.08,6.66l3.94,7.03,47.57-1.03s28.24-7.88,28.24-14.35c0,0,.75-3.76-15.2-3.76s-52.54-1.97-52.54-1.97c0,0-7.32,0-12.86-8.35l40.44,1.6s8.25-.1,12.85-3.19c0,0,6.38-.37,8.54,1.78,2.15,2.16,4.97,6.28,11.54,3.85,0,0,7.32-.85,8.45-.85s4.23-1.22,1.13-3.47c-3.1-2.25-4.69-2.91-4.69-2.91h-9.1s-4.32-.56-4.32-2.44,11.91-1.13,11.91-1.13c0,0,4.55,2.3,6.85,0,0,0,1.41-11.16-9.57-11.82-10.98-.66-23.74.28-23.74.28,0,0-7.13-2.82-10.6-6.29l43.44-3.75,96.64-9.57s35.75-4.13,41.94-4.13c0,0-6.38,3.94-7.79,7.41-1.4,3.47-7.6,5.63-7.6,5.63,0,0-36.31-1.03-41.66,4.32s-4.03,11.91-4.03,11.91c0,0,2.62,14.08,10.88,13.61,0,0,7.46-1.27,14.63-8.45,0,0,13.89-1.5,13.89,2.62s-4.32,5.54-4.32,5.54h-8.26s-31.14,11.82-38,12.95c-6.85,1.12-8.44,1.4-11.82-.28-3.38-1.69-11.45-5.07-14.92-5.07s-21.76,2.15-22.8,13.23c0,0,1.4,9,12.86,10.98l22.7-.94s5.44.38,7.7,1.41c2.25,1.03,7.6,4.22,15.01.94,7.41-3.28,9.1-7.97,17.92-9.2,8.82-1.22,23.93-1.87,23.93-1.87,0,0,16.04-7.6,22.89-12.67,0,0,7.6-2.06,14.08-1.31,0,0,13.79,8.25,20.83,8.25s15.58-7.7,15.58-7.7c0,0,5.63-5.15,5.63-7.78s-8.26-10.7-12.67-12.76c-4.4-2.06-9.85-1.5-21.58,6.48,0,0-8.45-6.76-13.04-6.29s-10.22,4.6-10.22,4.6c0,0-3.19.38-4.41-1.78-1.22-2.15,0-4.13,0-4.13,0,0,7.88-7.88,10.32-11.07,2.44-3.19,14.17-2.53,14.17-2.53l24.86-4.32s6.76-4.41,6-9.76c-.75-5.35-12.38-6.85-12.38-6.85l24.39-1.31,9.76-54.6ZM144.3,424.89l-8.41-2.64c-2.35-.82-4.4-2.05-4.4-4.54v-36.03h12.81v43.21ZM182.3,443.65l-9-4.97v-57h9v61.97ZM460.96,343.92s6.66,1.97,6.66,11.73h-14.26s1.22-11.07,7.6-11.73ZM453.07,450.03h9.54c-1.33,2.69-4.3,8.72-7.72,15.82-1.57-3.6-3.22-7.24-4.82-10.54l3-5.28ZM444.09,454.96l-9.57,16.56-4.52-6.71,7.68-14.78h3.95c.56,1.08,1.4,2.76,2.46,4.93ZM326.93,477.57l6.3,11.31c-.66,1.4-1.3,2.79-1.92,4.11l-6.72-10.67,2.35-4.76ZM322.31,457.78c1.51-3.19,2.97-5.85,4.09-7.75h1.24l3.82,6.22c-1.7,3.3-3.32,6.45-4.85,9.49-1.5-2.77-2.95-5.45-4.3-7.96ZM329.82,471.7l4.95-10.05,6.38,10.38c-1.71,3.6-3.48,7.35-5.21,11.05-2-3.72-4.08-7.58-6.13-11.38ZM337.3,456.54l3.22-6.51h7.15l1.78,2.77-5.81,13.79-6.33-10.05ZM352.85,458.13l3.85,5.98-5.98,13.76-3.94-6.27,6.08-13.47ZM355.68,451.86l.82-1.83h6.31l-3.39,7.81-3.74-5.97ZM360.37,469.83l4.61,7.18-6.74,12.81-3.94-6.26,6.08-13.73ZM363.09,463.7l4.19-9.48,5.11,8.71-4.47,8.5-4.83-7.72ZM381.54,351.61c-7.13,0-13.36,3.93-16.75,9.78v-13.82h32.65v12.48c-3.52-5.11-9.33-8.45-15.9-8.45ZM396.02,371.59c0,8.15-6.6,14.74-14.74,14.74s-14.74-6.6-14.74-14.74,6.6-14.74,14.74-14.74,14.74,6.6,14.74,14.74ZM381.54,391.53c6.57,0,12.37-3.34,15.9-8.45v34.67c0-3.86-7.05-14.37-12.6-17.26-1.28-.67-2.8-.74-4.14-.19-10.43,4.17-14.42,14.73-15.9,20.78v1.17h-.27c.08-.36.17-.76.27-1.17v-39.33c3.39,5.86,9.63,9.78,16.75,9.78ZM394.73,427.54c.39,2.15.73,4.51,1,7.11l.77,8.25h-11.26v-15.36h9.49ZM385.24,422.26v-14.6c2.55,1.71,5.93,5.63,8.32,14.6h-8.32ZM367.23,442.9v-5.44c0-3.34.36-6.66,1.08-9.92h11.58v15.36h-12.66ZM378.37,451.54l-2.99,5.69-4.28-7.2h6.26l1,1.52ZM369.85,422.26c3.46-10.07,7.71-13.82,10.05-15.18v15.18h-10.05ZM375.68,468.55l6.24,10.63-4.34,7.7-6.27-10.03,4.37-8.3ZM378.69,462.83l3.17-6.02,6.84,10.32-3.63,6.45-6.38-10.75ZM384.7,451.4l.73-1.37h10.38l1.26,2.24-5.41,9.63-6.94-10.5ZM400.26,457.95l6.59,11.71c-1,2.01-2.03,4.06-3.1,6.08-.44.83-.87,1.66-1.31,2.49l-7.32-11.07,5.14-9.21ZM435.09,443.08l.16-15.55h4.88v17.34h-37.44v-17.34h5.31l-.16,15.55h27.25ZM416.42,427.54v10.47h-3.1v-10.47h3.1ZM415.1,414.96c1.46,0,1.14,6.94,1.14,6.94h-2.39s-.35-6.94,1.26-6.94ZM429.91,427.54v10.47h-3.1v-10.47h3.1ZM428.58,414.96c1.46,0,1.14,6.94,1.14,6.94h-2.4s-.34-6.94,1.26-6.94ZM403.26,452.58l1.43-2.55h8.98l1.82,2.67c-1.78,3.05-3.76,7.06-5.92,11.46l-6.31-11.58ZM418.98,457.81l4.93,7.21-6.65,12.12-4.41-7.31c2.44-4.67,4.47-8.6,6.13-12.03ZM421.77,452.59c.69-1.02,1.34-1.87,1.91-2.56h8.45l-5.42,9.89-4.94-7.33ZM428.35,308.26c2.96-.24,4.41,6.28,4.41,6.28h-7.98s.61-6.05,3.57-6.28ZM421.07,319.75h11.91v22.63l-11.91.06v-22.69ZM421.07,347.58h11.91v25.05h-11.91v-25.05ZM415.54,347.58v18.63c-.95-2.27-2.35-4.2-4.38-4.92-.68-.24-1.43-.19-2.06.15-5.29,2.86-4.46,15.13-4.46,15.13v21.3h12.95v-19.7h7.07c.4,2.78,1.1,8.68.33,11.63l-4.13,5.44s7.51.19,7.51,3.28-5.53,6.47-5.53,6.47c0,0,14.26-2.35,14.26-10.32,0-6.19-5.26-10.79-5.26-10.79l.54-5.72h5.39v-30.59h2.36v74.68h-4.82v-.11s.03-12.27-5.26-15.13c-.64-.34-1.38-.39-2.06-.15-6.1,2.14-6.43,15.28-6.43,15.28,0,0,.3-12.27-4.99-15.13-.64-.34-1.37-.39-2.06-.15-6.11,2.14-6.44,15.28-6.44,15.28v.11h-5.37v-74.68h12.84ZM412.34,381.35v11.07h-3.1v-11.07h3.1ZM410.56,369.39c1.6,0,1.26,6.94,1.26,6.94h-2.39s-.33-6.94,1.13-6.94ZM384.96,245.16c.46-11.74-.71-17.08-1.83-19.42h21.25v19.42h-19.42ZM388.9,265.86c0,4.09-3.32,7.41-7.41,7.41s-7.41-3.31-7.41-7.41,3.32-7.41,7.41-7.41,7.41,3.31,7.41,7.41ZM378.07,208.01c8.02-6.19,8.02-16.04,8.02-16.04,0,0,15.37,4.72,15.09,28.01h-29.87c.22-2.88,1.43-7.86,6.75-11.97ZM354,312.87l4.32-2.93v26.41h4.69v-29.58l38.84-26.29h-47.85v-2.44c.71-14.34,11.94-16.19,15.64-16.4-.47,1.31-.72,2.73-.72,4.2,0,6.94,5.62,12.57,12.57,12.57s12.58-5.63,12.58-12.57c0-4.28-2.14-8.06-5.4-10.32.13-.09.25-.19.34-.28.91-.91.94-2.94.82-4.32h16.39v89.65h-52.21v-27.71ZM337.02,308.26c2.96.24,3.57,6.28,3.57,6.28h-7.98s1.46-6.52,4.41-6.28ZM328.67,319.75h11.92v23.12l-11.92.06v-23.17ZM328.67,347.58h11.92v25.05h-11.92v-25.05ZM322.05,347.58h1.83v30.59h7.62l.54,5.72s-5.25,4.6-5.25,10.79c0,7.97,14.26,10.32,14.26,10.32,0,0-5.53-3.38-5.53-6.47s7.5-3.28,7.5-3.28l-4.13-5.44c-.77-2.96-.07-8.85.33-11.63h5.59v19.7h12.95v-21.3s.84-12.27-4.45-15.13c-.64-.34-1.37-.39-2.06-.15-2.64.93-4.2,3.91-5.13,7v-20.71h13.04v74.68h-4.37v-.29s.03-12.27-5.27-15.13c-.63-.34-1.37-.39-2.06-.15-6.1,2.13-6.43,15.28-6.43,15.28,0,0,.3-12.27-4.99-15.13-.64-.34-1.37-.39-2.06-.15-6.11,2.13-6.44,15.28-6.44,15.28v.29h-5.49v-74.68ZM353.16,381.35v11.07h-3.1v-11.07h3.1ZM351.84,369.39c1.45,0,1.13,6.94,1.13,6.94h-2.39s-.35-6.94,1.26-6.94ZM349.38,427.54v10.28h-3.1v-10.28h3.1ZM348.06,414.78c1.46,0,1.14,6.94,1.14,6.94h-2.4s-.34-6.94,1.26-6.94ZM335.89,427.54v10.28h-3.1v-10.28h3.1ZM334.57,414.78c1.46,0,1.14,6.94,1.14,6.94h-2.39s-.35-6.94,1.26-6.94ZM322.05,427.54h5.43l-.16,15.36h27.25l.16-15.36h4.43v17.34h-37.11v-17.34ZM323.64,471.67c-.88,1.77-1.74,3.48-2.55,5.15l-4.63-7.35c.99-1.92,1.95-3.78,2.86-5.56l4.32,7.75ZM313.73,474.82c1.55,2.5,3.13,5.02,4.68,7.52-2.38,4.91-4.42,9.26-6.14,12.99l-4.61-8.61c2-3.94,4.06-7.98,6.07-11.9ZM312.96,463.93l-8.09-12.81.5-1.08h6.21l4.4,7.89-3.02,6.01ZM310.09,343.92s6.66,1.97,6.66,11.73h-14.26s1.22-11.07,7.6-11.73ZM302.4,456.51c2.24,3.65,4.96,8.07,7.88,12.77l-5.79,11.52-7.12-13.33,5.02-10.96ZM301.4,486.98l-4.7,9.37-7.01-13.15,4.72-9.51,6.99,13.28ZM295.02,450.03h3.45c.27.45.57.96.9,1.5-1.65,2.76-3.46,6.05-5.36,9.63l-2.42-4.52,3.43-6.61ZM286.18,476.63l-2.52-4.72,4.87-9.37,2.41,4.56c-1.57,3.08-3.16,6.28-4.75,9.53ZM288.08,435.53l2.78-.88v12.28l-2.19,4.24-4.23-7.9,3.64-7.73ZM285.63,457.03l-4.87,9.43-3.83-7.2,4.66-9.91,4.05,7.69ZM277.64,472.48l-6.54,12.65-3.19-6.71,6.05-12.88,3.68,6.94ZM270.56,441.08l5.72-1.81,2,3.8-4.71,9.89-4.49-8.42,1.48-3.46ZM270.61,459.18l-5.92,12.46-3.79-7.98,5.4-12.63,4.31,8.16ZM261.55,478.25l-3.88,8.15-3.36-7.32,3.65-8.55,3.59,7.72ZM262.41,443.66l.65,1.23-5.22,12.35-5.01-10.53,9.57-3.04ZM248.65,450.45l6.31,13.6-3.62,8.57-5.91-12.84,3.22-9.34ZM248.53,479.25l-4.5,10.64-5.16-11.11,4.03-11.69,5.63,12.16ZM233.06,452.97l2.88-.91,3.48,7.52-4,11.79-5.13-11.05,2.76-7.35ZM227.67,467.3l5.25,11.45-3.45,10.15-5.85-10.84,4.04-10.76ZM218.43,457.61l4.2-1.33,1.95,4.26-4.24,11.42-4.25-7.9,2.35-6.45ZM217.75,478.9l-4.6,12.38-4.37-7.18,4.76-13.06,4.21,7.86ZM207.88,505.49c-1.43-2.06-2.96-4.24-4.53-6.48l3.04-8.33,4.35,7.12-2.86,7.7ZM211.93,520.65l-4.49.45,1.67-4.44,2.82,3.99ZM205.59,511.67l-3.09,8.3-4.23-7.01,2.8-7.68,4.52,6.39ZM204.67,461.97l3.42-1.08,2,3.73-4.95,13.52-3.74-6.13,3.27-10.03ZM199.17,478.87l3.57,5.83-3.23,8.82c-1.16-1.64-2.32-3.3-3.49-4.94l3.16-9.72ZM191.65,501.99l2.23-6.86,3.32,4.69-2.59,7.08-2.96-4.91ZM192.09,513.78l-2.56,6.96-2.51-4.55,2.32-7.12,2.74,4.72ZM187.28,467.48l4.13-1.31,4.06,6.65-3.3,10.41c-2.25-3.13-4.43-6.14-6.46-8.87l1.57-6.88ZM184.13,481.33l5.98,8.45-2.01,6.32-5.33-8.84,1.36-5.93ZM185.88,503.11l-2.21,6.99-4.32-7.85,1.7-7.45,4.83,8.31ZM176.7,470.83l3.28,4.63-1.19,5.2-5.31-8.8,3.22-1.03ZM168.08,473.57l.53-.16,8.5,14.62-1.64,7.18-8.71-15.81,1.32-5.83ZM143.04,467.11l20.97.66c.71.02.86,1,.2,1.23-6.92,2.44-23.74,8.19-36.93,11.41l15.76-13.3ZM146.79,510.31l4.67,10.47-1.5,6.12-7.34.74-1.37-3.31,5.54-14.03ZM146.39,496.38l-6.27-13.94,7.98-2.53c.59,1.26,1.5,3.22,2.63,5.64l-4.35,10.84ZM149.54,503.36l4.37-11.06c.94,2.03,1.95,4.17,2.99,6.37l-3.35,13.61-4.01-8.92ZM156.73,485.16l2.55-6.46,1.7.2.53,1.01-2.47,10.07c-.8-1.7-1.57-3.32-2.3-4.82ZM127.62,486.4l5.29-1.68-3.5,11.07-2.87-6.92-.79-1.89,1.86-.59ZM120.09,488.79l.53,1.23-5.39,11.85-5.09-9.92,9.95-3.16ZM106.27,497.27l5.87,11.36-5.59,12.26-.28-23.63ZM118.56,530.08l-10.38,1.05,7.12-16.38,5.04,9.75-1.77,5.57ZM118.29,507.85l5.02-11.56,3.42,7.94-3.92,12.42-4.52-8.8ZM133.5,528.57l-4.36.44-2.92-5.69,3.78-11.5,5.29,12.29-1.79,4.46ZM138.17,516.92l-5.5-13.24,4.72-14.4,6.24,13.99-5.47,13.66ZM165.69,546.69c-11.25,4.98-25.35,5.17-30.64,5.04-1.65-.04-2.86-1.64-2.35-3.22,1.06-3.28,5.27-6.54,5.27-6.54l15.41-10.06,14-1.06c-.75,2.58-1.69,15.84-1.69,15.84ZM168.66,525.01l-8.98.91-2.31-5.15,3.23-14.26c3.22,6.77,6.32,13.21,8.36,17.2l-.3,1.29ZM170.86,515.39c-2.35-5.13-5.33-11.57-8.24-17.78l2.46-10.81,8.54,16.46-2.76,12.13ZM174.52,523.4l2.93-12.8,3.77,7.26-1.92,6.08-4.32.44c-.12-.28-.27-.61-.45-.98ZM181.83,538.51s-2.63-4.13-3.57-9.01l26.27-2.62s.79,2.86,3.85,5.91c3.05,3.05,6.1,5.89,6.1,8.53,0,0-28.9.95-32.65-2.8ZM218.93,519.93l-1.03.1c-1.08-1.59-3.43-5.02-6.5-9.46l2.72-7.25,6.72,10.99-1.91,5.61ZM216.56,496.86l4.46-11.86,5.99,11.16-3.89,11.46-6.56-10.76ZM231.88,518.62l-1.94.19-3.11-5.11,3.75-10.88,4.46,8.33-3.16,7.47ZM233.08,495.58l3.25-9.4,4.82,10.53-3.28,7.75-4.79-8.88ZM243.83,515.52l-2.85-5.29,3.08-7.18,2.8,6.11-3.02,6.36ZM246.97,496.22l4.52-10.58,3.22,6.97-4.77,10.02-2.98-6.42ZM255.67,514.98l-2.46-5.3,4.74-10.07,2.67,5.79-4.95,9.58ZM264.75,485.15l3,6.47-4.06,7.85-2.81-6.1,3.86-8.22ZM260.95,515.68l2.35-4.52,1.9,4.1-4.25.42ZM269.55,512.18l-3.19-6.93,4.07-7.86,2.96,6.36c-1.52,3.31-2.83,6.19-3.84,8.43ZM280.53,477.95l2.61,4.95c-2.29,4.78-4.51,9.49-6.52,13.83l-2.79-5.87,6.7-12.91ZM274.22,514.35l2.11-4.25,1.79,3.86-3.9.39ZM288.39,512.91l-3.89.39-4.78-10.05,6.87-13.83,6.97,13.18-5.17,10.3ZM294.71,512.27c.53-1.06,1.18-2.35,1.93-3.83l1.83,3.45-3.76.38ZM304.88,512.01s.02-.06.07-.17l.11.22-.18-.04ZM305.21,511.21l-.56.06-4.84-9.08c1.43-2.83,3.03-5.97,4.72-9.28l4.75,9.02c-2.15,4.78-3.48,7.91-4.06,9.28ZM310.6,510.67l1.58-3.2,1.52,2.88-3.1.32ZM323.69,509.35l-3.74.37-4.62-8.64,6.52-13.22c2.45,3.92,4.77,7.63,6.78,10.84-2.26,4.86-4.05,8.7-4.95,10.64ZM330.02,508.7l2.04-4.52c1.06,1.68,1.93,3.06,2.56,4.06l-4.59.46ZM338.91,505.05l-4.22-6.69,1.71-3.78,3.97,7.12-1.46,3.35ZM339.02,488.78l5.26-11.67,3.97,6.45-5.38,12.37c-1.2-2.22-2.49-4.63-3.85-7.16ZM349.35,506.75l-.65.07c-.65-1.22-1.53-2.84-2.57-4.78l5.63-12.73,3.64,5.93-6.05,11.52ZM355.94,506.09l2.83-5.39,2.95,4.8-5.78.59ZM367.44,504.92l.14-.25-5.93-9.43,6.77-12.87,6.25,9.73-7.08,12.58.14.22-.28.03ZM374.44,504.21l3.72-6.66,3.79,5.91-7.51.76ZM389.62,502.68l-2.03.21-6.56-10.48,4.22-7.55,7.24,12.34c-1.18,2.25-2.16,4.13-2.87,5.49ZM388.41,479.19l3.8-6.8,7.43,11.19c-1.42,2.7-2.79,5.3-4.04,7.7l-7.18-12.1ZM404.06,501.22l-2.44.25-2.86-4.38c1.49-2.96,2.92-5.76,4.27-8.39l4.32,6.52-3.29,6ZM405.81,483.3c1.49-2.89,2.9-5.56,4.2-8.04l4.2,7.46-3.98,7.26-4.41-6.68ZM418.19,499.79l-1.37.14-3.56-5.38,3.9-6.6,3.88,6.91-2.85,4.93ZM420.44,482.4l3.51-5.96,3.36-6.46,4.39,6.43-7.28,12.6-3.98-6.6ZM440.26,497.56l-10.06,1.02-2.42-4.03,7.41-13.05,7.35,10.75c-.86,1.95-1.63,3.74-2.27,5.31ZM437.96,476.62l8.94-15.72c1.49,3.22,3.16,7,4.96,11.25-2.38,4.96-4.8,10.12-6.94,14.8l-6.96-10.32ZM459.37,495.63l-8.04.81-2.89-4.29,6.22-13.21c1.71,4.29,3.48,8.93,5.24,13.87l-.52,2.82ZM457.7,472.44l9.83-20.89-5.73,30.91c-1.01-2.53-2.44-6.08-4.1-10.02Z"/>
      </g>
      <path d="M469.13,158.61c-29.65-27.59-106.59-40.53-106.59-40.53,0,0,3.38-12.39-74.68-12.39s-80.13,12.76-80.13,12.76c-91.95,18.39-106.3,40.96-106.3,40.96l33.31,7.37s-23.83,31.81-32.65,43.82c0,0,65.39-23.92,91.38-30.31,25.99-6.38,29.58-7.53,31.84-7.53s6.97.85,11.75-10.98l97.44.21c.47,2.93,1.44,5.13,2.53,6.77,1.75,2.63,4.65,4.27,7.8,4.52l7.02.54c68.34,17.31,116.53,37.03,117.28,37.33l-32.46-44.49,32.47-8.04ZM222.37,167.24s-17.92,3.28-41.57,10.13c-23.64,6.85-62.46,21.27-62.46,21.27l26.88-35.82-31.15-7.15s37.18-22.59,93.85-30.85v44.48s12.76-5.79,21.48-6.66c0,0,.94,4.6-7.03,4.6ZM330.64,155.8h-89.79s-18.15.84-26.88,5.07v-40.53s7.32-8.02,72.2-8.02,70.79,8.02,70.79,8.02v41.41s-9.57-5.94-26.32-5.94ZM452.7,198.65s-38.82-14.42-62.46-21.27c-23.65-6.85-41.57-10.13-41.57-10.13-7.98,0-7.04-4.6-7.04-4.6,8.73.87,21.49,6.66,21.49,6.66v-44.48c56.67,8.26,93.85,30.85,93.85,30.85l-31.15,7.15,26.88,35.82Z"/>
      <g>
        <polygon points="258.44 144.68 258.44 150.31 242.12 150.31 242.12 144.68 247.25 144.68 247.25 124.06 241.49 124.06 241.49 119.34 247.25 117.09 253.52 117.09 253.52 144.68 258.44 144.68"/>
        <path d="M281.78,126.9c-.11-2.24-.54-4.11-1.85-5.92-1.65-2.27-4.58-4.53-9.69-4.53-10.24,0-11.42,9.76-11.42,12.14,0,2.05,1.59,8.33,7.52,10.02,1.71.5,3.52.45,5.26.05,1.08-.24,2.41-.62,3.48-1.16,0,0-1.02,7.72-5.73,7.72s-6.3-2.18-6.3-2.18l-3.54,5.06s3.6,3.36,10.26,3.36,12.26-7.7,12.26-14.51c0-4.41-.14-8.05-.23-10.07ZM275.16,130.11s-.88,2.77-5.45,2.77-4.58-5.47-4.58-5.47c0,0,.28-4.99,4.99-4.99s5.46,5.58,5.04,7.69Z"/>
        <path d="M286.52,126.95l-3.87-4.86s5.28-5.63,12.53-5.63,9.57,5.96,9.57,5.96c0,0,3.45,9.8-5.49,14.16-8.94,4.36-8.51,6.33-8.51,7.88h14.66v6.26h-22.4s-1.69-11.19,5.21-14.99c6.9-3.8,12.11-6.16,9.92-10.91-1.86-4.05-8.58-.28-11.61,2.11Z"/>
        <path d="M320.75,116.51c-9.26,0-12.21,7.83-12.21,17.49s3.02,17.49,12.21,17.49,12.2-7.83,12.2-17.49-3.37-17.49-12.2-17.49ZM320.72,145.45c-3.15,0-5.7-5.07-5.7-11.33s2.55-11.33,5.7-11.33,5.7,5.07,5.7,11.33-2.55,11.33-5.7,11.33Z"/>
      </g>
    </g>
  </g>
</svg>