<?xml version="1.0" encoding="UTF-8"?>
<svg id="Calque_2" data-name="Calque 2" xmlns="http://www.w3.org/2000/svg" viewBox="0 0 448.22 524.66">
  <defs>
    <style>
      .cls-1 {
        fill: #f30f14;
      }

      .cls-2 {
        fill: #fdef13;
      }
    </style>
  </defs>
  <g id="_Слой_2" data-name="Слой 2">
    <g>
      <g>
        <g>
          <path class="cls-1" d="M104.97,125.71c0,12.8,9.96,23.18,22.24,23.18,7.38,0,13.92-3.76,17.96-9.53l14.27,14.27c-8.01,9.06-19.81,14.79-32.99,14.79-24.13,0-43.7-19.23-43.7-42.96s19.57-42.96,43.7-42.96c13.45,0,25.48,5.98,33.49,15.37l-14.82,14.11c-4.05-5.73-10.56-9.45-17.91-9.45-12.28,0-22.24,10.38-22.24,23.18Z"/>
          <path class="cls-1" d="M234.34,84.16h-28.56l-28.58,83.86h22.04l4.65-15.71h32.35l4.65,15.71h22.03l-28.58-83.86ZM208.54,136.61l11.52-38.93,11.53,38.93h-23.05Z"/>
          <path class="cls-1" d="M366.72,116.65v5.7c0,25.54-13.5,43.59-41.74,43.59s-43.92-18.67-43.92-42.92,20.23-42.58,44.26-42.58c14.5,0,28.28,7.62,35.91,18.83l-19.65,9.18c-3.87-5.67-9.78-9.46-16.82-9.46-13.3,0-22.12,9.99-22.12,24.03s5.7,26.59,22.23,26.59c11.46,0,18.95-6.61,20.42-15.08h-22.34v-17.88h43.77Z"/>
        </g>
        <g>
          <path class="cls-1" d="M79.18,205.55v246.75c-.28-.17-.56-.34-.84-.51-.76-.47-1.52-.94-2.27-1.42-.7-.44-1.4-.89-2.09-1.35-2.01-1.31-3.96-2.66-5.86-4.03-.68-.49-1.35-.99-2.01-1.49-.19-.13-.38-.28-.56-.42-.58-.43-1.15-.87-1.71-1.31-.15-.12-.3-.24-.45-.36-.73-.57-1.45-1.15-2.16-1.74-.77-.63-1.53-1.26-2.27-1.91-.01,0-.02-.01-.03-.02-.74-.63-1.46-1.27-2.18-1.92-.64-.57-1.27-1.15-1.89-1.73-.2-.18-.4-.37-.6-.56-.42-.4-.85-.81-1.26-1.22-.32-.3-.64-.61-.95-.93-1.16-1.15-2.29-2.31-3.39-3.5v-184.88c.51-.97,1.01-1.94,1.5-2.91.49-.94.96-1.89,1.43-2.83.47-.94.94-1.88,1.4-2.83.41-.84.82-1.67,1.21-2.51,1.17-2.46,2.29-4.93,3.35-7.42.3-.73.61-1.45.9-2.18.09-.22.18-.45.28-.68.23-.59.47-1.18.69-1.77.26-.67.51-1.34.76-2.01.07-.19.14-.39.22-.59.25-.7.5-1.41.74-2.11.21-.62.42-1.23.62-1.85.04-.12.08-.24.11-.36.12-.36.23-.72.34-1.08.42-1.35.81-2.7,1.18-4.07.2-.75.39-1.5.57-2.25h15.22Z"/>
          <path class="cls-1" d="M143.25,205.55v273.42c-1.26-.38-2.53-.77-3.8-1.17-6-1.86-12.05-3.85-18.06-6.02-.83-.3-1.66-.6-2.49-.91-.93-.34-1.85-.68-2.76-1.03-1.14-.42-2.27-.86-3.4-1.3V205.55h30.51Z"/>
          <path class="cls-1" d="M207.33,205.55v292.65c-2.89-1.07-5.89-2.1-8.97-3.11-2.27-.75-4.6-1.48-6.98-2.21-1.64-.5-3.3-1-4.99-1.5-.83-.25-1.67-.5-2.52-.74-2.31-.68-4.66-1.35-7.05-2.03V205.55h30.51Z"/>
          <path class="cls-1" d="M271.4,205.55v283.06c-2.39.68-4.74,1.35-7.05,2.03-.85.24-1.69.49-2.52.74-1.69.5-3.35,1-4.99,1.5-2.38.73-4.71,1.46-6.98,2.21-3.08,1.01-6.08,2.04-8.97,3.11V205.55h30.51Z"/>
          <path class="cls-1" d="M335.48,205.55v262.99c-1.13.44-2.26.88-3.4,1.3-.91.35-1.83.69-2.76,1.03-.83.31-1.66.61-2.49.91-6.01,2.17-12.06,4.16-18.06,6.02-1.27.4-2.54.79-3.8,1.17V205.55h30.51Z"/>
          <path class="cls-1" d="M399.56,243v184.88c-1.1,1.19-2.23,2.35-3.39,3.5-.31.32-.63.63-.95.93-.41.41-.84.82-1.26,1.22-.2.19-.4.38-.6.56-.62.58-1.25,1.16-1.89,1.73-.72.65-1.44,1.29-2.18,1.92-.01,0-.02.02-.03.02-.74.65-1.5,1.28-2.27,1.91-.71.59-1.43,1.17-2.16,1.74-.15.12-.3.24-.45.36-.56.44-1.13.88-1.71,1.31-.18.14-.37.29-.56.42-.66.5-1.33,1-2.01,1.49-1.9,1.37-3.85,2.72-5.86,4.03-.69.46-1.39.91-2.09,1.35-.75.48-1.51.95-2.27,1.42-.28.17-.56.34-.84.51v-246.75h15.22c.18.75.37,1.5.57,2.25.37,1.37.76,2.72,1.18,4.07.11.36.22.72.34,1.08.03.12.07.24.11.36.2.62.41,1.23.62,1.85.24.7.49,1.41.74,2.11.08.2.15.4.22.59.25.67.5,1.34.76,2.01.22.59.46,1.18.69,1.77.1.23.19.46.28.68.29.73.6,1.45.9,2.18,1.06,2.49,2.18,4.96,3.35,7.42.39.84.8,1.67,1.21,2.51.46.95.93,1.89,1.4,2.83.47.94.94,1.89,1.43,2.83.49.97.99,1.94,1.5,2.91Z"/>
        </g>
      </g>
      <path class="cls-2" d="M104.97,125.71c0,12.8,9.96,23.18,22.24,23.18,7.38,0,13.92-3.76,17.96-9.53l14.27,14.27c-8.01,9.06-19.81,14.79-32.99,14.79-24.13,0-43.7-19.23-43.7-42.96s19.57-42.96,43.7-42.96c13.45,0,25.48,5.98,33.49,15.37l-14.82,14.11c-4.05-5.73-10.56-9.45-17.91-9.45-12.28,0-22.24,10.38-22.24,23.18Z"/>
      <path class="cls-2" d="M234.34,84.16h-28.56l-28.58,83.86h22.04l4.65-15.71h32.35l4.65,15.71h22.03l-28.58-83.86ZM208.54,136.61l11.52-38.93,11.53,38.93h-23.05Z"/>
      <path class="cls-2" d="M366.72,116.65v5.7c0,25.54-13.5,43.59-41.74,43.59s-43.92-18.67-43.92-42.92,20.23-42.58,44.26-42.58c14.5,0,28.28,7.62,35.91,18.83l-19.65,9.18c-3.87-5.67-9.78-9.46-16.82-9.46-13.3,0-22.12,9.99-22.12,24.03s5.7,26.59,22.23,26.59c11.46,0,18.95-6.61,20.42-15.08h-22.34v-17.88h43.77Z"/>
      <g>
        <path class="cls-1" d="M63.96,205.55c-.18.75-.37,1.5-.57,2.25-.37,1.37-.76,2.72-1.18,4.07-.11.36-.22.72-.34,1.08-.03.12-.07.24-.11.36-.2.62-.41,1.23-.62,1.85-.24.7-.49,1.41-.74,2.11-.08.2-.15.4-.22.59-.25.67-.5,1.34-.76,2.01-.22.59-.46,1.18-.69,1.77-.1.23-.19.46-.28.68-.29.73-.6,1.45-.9,2.18-1.06,2.49-2.18,4.96-3.35,7.42-.39.84-.8,1.67-1.21,2.51-.46.95-.93,1.89-1.4,2.83-.47.94-.94,1.89-1.43,2.83-.49.97-.99,1.94-1.5,2.91v184.88c1.1,1.19,2.23,2.35,3.39,3.5.31.32.63.63.95.93.41.41.84.82,1.26,1.22.2.19.4.38.6.56.62.58,1.25,1.16,1.89,1.73.72.65,1.44,1.29,2.18,1.92,0,0,.02.02.03.02.74.65,1.5,1.28,2.27,1.91.71.59,1.43,1.17,2.16,1.74.15.12.3.24.45.36.56.44,1.13.88,1.71,1.31.18.14.37.29.56.42.66.5,1.33,1,2.01,1.49,1.9,1.37,3.85,2.72,5.86,4.03.69.46,1.39.91,2.09,1.35.75.48,1.51.95,2.27,1.42.28.17.56.34.84.51v-246.75h-15.22ZM112.74,205.55v262.99c1.13.44,2.26.88,3.4,1.3.91.35,1.83.69,2.76,1.03.83.31,1.66.61,2.49.91,6.01,2.17,12.06,4.16,18.06,6.02,1.27.4,2.54.79,3.8,1.17V205.55h-30.51ZM176.82,205.55v283.06c2.39.68,4.74,1.35,7.05,2.03.85.24,1.69.49,2.52.74,1.69.5,3.35,1,4.99,1.5,2.38.73,4.71,1.46,6.98,2.21,3.08,1.01,6.08,2.04,8.97,3.11V205.55h-30.51ZM240.89,205.55v292.65c2.89-1.07,5.89-2.1,8.97-3.11,2.27-.75,4.6-1.48,6.98-2.21,1.64-.5,3.3-1,4.99-1.5.83-.25,1.67-.5,2.52-.74,2.31-.68,4.66-1.35,7.05-2.03V205.55h-30.51ZM304.97,205.55v273.42c1.26-.38,2.53-.77,3.8-1.17,6-1.86,12.05-3.85,18.06-6.02.83-.3,1.66-.6,2.49-.91.93-.34,1.85-.68,2.76-1.03,1.14-.42,2.27-.86,3.4-1.3V205.55h-30.51ZM127.21,148.89c-12.28,0-22.24-10.38-22.24-23.18s9.96-23.18,22.24-23.18c7.35,0,13.86,3.72,17.91,9.45l14.82-14.11c-8.01-9.39-20.04-15.37-33.49-15.37-24.13,0-43.7,19.24-43.7,42.96s19.57,42.96,43.7,42.96c13.18,0,24.98-5.73,32.99-14.79l-14.27-14.27c-4.04,5.77-10.58,9.53-17.96,9.53ZM234.34,84.16h-28.56l-28.58,83.86h22.04l4.65-15.71h32.35l4.65,15.71h22.03l-28.58-83.86ZM208.54,136.61l11.52-38.93,11.53,38.93h-23.05ZM322.95,116.65v17.88h22.34c-1.47,8.47-8.96,15.08-20.42,15.08-16.53,0-22.23-12.34-22.23-26.59s8.82-24.03,22.12-24.03c7.04,0,12.95,3.79,16.82,9.46l19.65-9.18c-7.63-11.21-21.41-18.83-35.91-18.83-24.03,0-44.26,17.54-44.26,42.58s15.91,42.92,43.92,42.92,41.74-18.05,41.74-43.59v-5.7h-43.77ZM398.06,240.09c-.49-.94-.96-1.89-1.43-2.83-.47-.94-.94-1.88-1.4-2.83-.41-.84-.82-1.67-1.21-2.51-1.17-2.46-2.29-4.93-3.35-7.42-.3-.73-.61-1.45-.9-2.18-.09-.22-.18-.45-.28-.68-.23-.59-.47-1.18-.69-1.77-.26-.67-.51-1.34-.76-2.01-.07-.19-.14-.39-.22-.59-.25-.7-.5-1.41-.74-2.11-.21-.62-.42-1.23-.62-1.85-.04-.12-.08-.24-.11-.36-.12-.36-.23-.72-.34-1.08-.42-1.35-.81-2.7-1.18-4.07-.2-.75-.39-1.5-.57-2.25h-15.22v246.75c.28-.17.56-.34.84-.51.76-.47,1.52-.94,2.27-1.42.7-.44,1.4-.89,2.09-1.35,2.01-1.31,3.96-2.66,5.86-4.03.68-.49,1.35-.99,2.01-1.49.19-.13.38-.28.56-.42.58-.43,1.15-.87,1.71-1.31.15-.12.3-.24.45-.36.73-.57,1.45-1.15,2.16-1.74.77-.63,1.53-1.26,2.27-1.91.01,0,.02-.01.03-.02.74-.63,1.46-1.27,2.18-1.92.64-.57,1.27-1.15,1.89-1.73.2-.18.4-.37.6-.56.42-.4.85-.81,1.26-1.22.32-.3.64-.61.95-.93,1.16-1.15,2.29-2.31,3.39-3.5v-184.88c-.51-.97-1.01-1.94-1.5-2.91Z"/>
        <path class="cls-2" d="M420.71,67.04l-48.51-45.51c-44.1,28.68-95.02,43.77-148.09,43.77s-103.99-15.09-148.09-43.77l-48.51,45.51c14.97,18.97,38.99,58.63,38.99,117.78,0,.91-.01,1.82-.05,2.72h315.32c-.04-.9-.05-1.81-.05-2.72,0-59.15,24.02-98.81,38.99-117.78ZM127.21,148.89c7.38,0,13.92-3.76,17.96-9.53l14.27,14.27c-8.01,9.06-19.81,14.79-32.99,14.79-24.13,0-43.7-19.23-43.7-42.96s19.57-42.96,43.7-42.96c13.45,0,25.48,5.98,33.49,15.37l-14.82,14.11c-4.05-5.73-10.56-9.45-17.91-9.45-12.28,0-22.24,10.38-22.24,23.18s9.96,23.18,22.24,23.18ZM240.89,168.02l-4.65-15.71h-32.35l-4.65,15.71h-22.04l28.58-83.86h28.56l28.58,83.86h-22.03ZM366.72,122.35c0,25.54-13.5,43.59-41.74,43.59s-43.92-18.67-43.92-42.92,20.23-42.58,44.26-42.58c14.5,0,28.28,7.62,35.91,18.83l-19.65,9.18c-3.87-5.67-9.78-9.46-16.82-9.46-13.3,0-22.12,9.99-22.12,24.03s5.7,26.59,22.23,26.59c11.46,0,18.95-6.61,20.42-15.08h-22.34v-17.88h43.77v5.7Z"/>
        <path class="cls-1" d="M104.97,125.71c0,12.8,9.96,23.18,22.24,23.18,7.38,0,13.92-3.76,17.96-9.53l14.27,14.27c-8.01,9.06-19.81,14.79-32.99,14.79-24.13,0-43.7-19.23-43.7-42.96s19.57-42.96,43.7-42.96c13.45,0,25.48,5.98,33.49,15.37l-14.82,14.11c-4.05-5.73-10.56-9.45-17.91-9.45-12.28,0-22.24,10.38-22.24,23.18Z"/>
        <path class="cls-1" d="M234.34,84.16h-28.56l-28.58,83.86h22.04l4.65-15.71h32.35l4.65,15.71h22.03l-28.58-83.86ZM208.54,136.61l11.52-38.93,11.53,38.93h-23.05Z"/>
        <path class="cls-1" d="M322.95,116.65h43.77v5.7c0,25.54-13.5,43.59-41.74,43.59s-43.92-18.67-43.92-42.92,20.23-42.58,44.26-42.58c14.5,0,28.28,7.62,35.91,18.83l-19.65,9.18c-3.87-5.67-9.78-9.46-16.82-9.46-13.3,0-22.12,9.99-22.12,24.03s5.7,26.59,22.23,26.59c11.46,0,18.95-6.61,20.42-15.08h-22.34v-17.88Z"/>
        <path class="cls-1" d="M443.81,302.79c-5.58-23.21-15.76-42.37-24.77-59.31l-.1-.2c-1.84-3.47-3.61-6.8-5.3-10.09v-.21l-1.92-3.56c-.4-.8-.8-1.61-1.22-2.46-.88-1.82-1.68-3.52-2.41-5.11l-.13-.29c-.32-.72-.65-1.44-.96-2.16l-.26-.6c-.26-.61-.52-1.21-.8-1.88l-.24-.59c-.27-.65-.53-1.3-.81-2.01l-.15-.37c-.3-.79-.6-1.59-.91-2.45l.02.08-.11-.33c-.24-.66-.47-1.32-.7-1.98l-.24-.73c-.17-.53-.34-1.06-.51-1.6l-.24-.8c-.16-.53-.32-1.07-.47-1.59l-.2-.71c-.2-.76-.4-1.53-.59-2.3l-1.68-6.94-.35-7.82c-.03-.65-.03-1.3-.03-1.96,0-54.36,22.14-90.52,35.33-107.24l9.67-12.26L374.11,0l-11.18,7.27c-41.27,26.84-89.27,41.02-138.82,41.02S126.56,34.11,85.29,7.27l-11.18-7.27L4.49,65.32l9.67,12.26c13.19,16.72,35.33,52.89,35.33,107.24,0,.66,0,1.31-.03,1.96l-.35,7.82-1.68,6.94c-.18.77-.38,1.53-.6,2.32l-.19.67c-.15.54-.31,1.09-.46,1.61l-.25.79c-.17.54-.34,1.07-.51,1.61l-.24.73c-.23.66-.46,1.32-.68,1.94l-.13.36c-.29.8-.59,1.59-.9,2.4l-.16.41c-.26.65-.52,1.3-.79,1.96l-.26.63c-.26.61-.52,1.23-.79,1.85l-.25.57c-.31.73-.63,1.44-.97,2.19l-.09.2c-.75,1.64-1.57,3.39-2.48,5.24-2.62,5.37-5.51,10.82-8.53,16.5-8.98,16.91-19.16,36.07-24.73,59.26-6.37,26.4-5.86,54.17,1.57,84.89l.18.74.24.72c5.7,16.84,14.18,32.01,25.24,45.18v.25l4.55,4.9c.15.16.3.31.46.48.91.97,1.83,1.92,2.79,2.88l.77.78c1.04,1.02,2.12,2.07,3.26,3.12l.83.77c1.17,1.07,2.25,2.04,3.35,2.99l.3.26c1.09.93,2.26,1.9,3.59,2.97l.87.7c1.23.98,2.49,1.95,3.7,2.86l.77.56c1.21.9,2.44,1.78,3.64,2.62l.5.36c1.27.87,2.61,1.77,4.1,2.74l.88.57c1.45.93,2.78,1.76,4.09,2.56l.16.1,16.09,8.39c6.55,3.42,13.29,6.49,20.17,9.2.18.07.36.14.58.22,2.06.8,4.21,1.61,6.59,2.49.69.25,1.38.5,2.08.74l.64.23c1.52.55,3.04,1.08,4.56,1.6l.39.14c.76.25,1.51.51,2.26.77,2.24.75,4.49,1.49,6.72,2.2l.74.24c2.25.71,4.5,1.41,6.79,2.11l1.34.4c1.68.51,3.36,1.01,5.03,1.51l16.02,4.78v-.19c1.08.31,2.15.61,3.2.9,2.95.83,5.85,1.65,8.72,2.46,1.34.38,4.19,1.2,4.19,1.2,1.19.34,4.28,1.25,4.28,1.25.99.29,1.98.58,2.96.88l1.01.3c.88.27,1.75.53,2.62.8l1.12.35c.82.26,1.63.51,2.44.77l1.14.37c.78.25,1.56.51,2.31.75l1.12.38c.76.26,1.52.52,2.26.77l1.03.37c.76.26,1.5.53,2.25.8,6.04,2.21,11.06,4.37,15.35,6.61l7.85,4.09,7.86-4.09c4.28-2.24,9.3-4.4,15.35-6.61.74-.27,1.48-.54,2.22-.8l1.05-.37c.75-.25,1.5-.51,2.24-.76l1.14-.38c.76-.26,1.53-.51,2.28-.75l1.17-.38c.8-.26,3.57-1.12,3.57-1.12.86-.27,3.63-1.11,3.63-1.11.98-.29,3.71-1.1,3.71-1.1,1.19-.35,2.39-.69,3.57-1.03,0,0,2.8-.81,4.18-1.2,0,0,6.44-1.82,8.68-2.45,3.91-1.1,7.89-2.22,11.91-3.37l1.08-.31c1.64-.47,3.28-.95,4.95-1.44l1.49-.44c1.6-.47,3.2-.95,4.8-1.43l1.41-.43c2.24-.68,4.49-1.38,6.75-2.09l.73-.23c2.23-.72,4.48-1.46,6.71-2.21.75-.25,1.51-.51,2.27-.77l.39-.14c1.51-.52,3.03-1.05,4.56-1.6l.64-.23c.69-.24,1.39-.49,2.08-.75,2.4-.87,4.56-1.69,6.59-2.48.2-.07.39-.15.58-.22,6.88-2.71,13.63-5.77,20.2-9.17l14.57-7.53c.13-.08,1.53-.91,1.65-.99,1.39-.84,2.75-1.69,4.11-2.57l.85-.55c1.5-.98,2.84-1.88,4.14-2.78l.42-.29c1.25-.87,2.48-1.76,3.71-2.67l.73-.54c1.23-.91,2.48-1.88,3.73-2.88l.86-.69c1.34-1.08,2.52-2.05,3.59-2.97l.33-.29c1.05-.91,2.14-1.88,3.31-2.95l.87-.8c1.11-1.03,2.19-2.08,3.24-3.11l.77-.78c.96-.96,1.9-1.94,2.77-2.86.16-.16.31-.33.47-.49l4.55-4.9v-.25c11.06-13.17,19.54-28.34,25.24-45.18l.24-.72.18-.74c7.43-30.72,7.94-58.49,1.58-84.88ZM66.45,187.54c.04-.9.05-1.81.05-2.72,0-59.15-24.02-98.81-38.99-117.78l48.51-45.51c44.1,28.68,95.02,43.77,148.09,43.77s103.99-15.09,148.09-43.77l48.51,45.51c-14.97,18.97-38.99,58.63-38.99,117.78,0,.91.01,1.82.05,2.72H66.45Z"/>
        <path class="cls-1" d="M79.18,205.55v246.75c-.28-.17-.56-.34-.84-.51-.76-.47-1.52-.94-2.27-1.42-.7-.44-1.4-.89-2.09-1.35-2.01-1.31-3.96-2.66-5.86-4.03-.68-.49-1.35-.99-2.01-1.49-.19-.13-.38-.28-.56-.42-.58-.43-1.15-.87-1.71-1.31-.15-.12-.3-.24-.45-.36-.73-.57-1.45-1.15-2.16-1.74-.77-.63-1.53-1.26-2.27-1.91-.01,0-.02-.01-.03-.02-.74-.63-1.46-1.27-2.18-1.92-.64-.57-1.27-1.15-1.89-1.73-.2-.18-.4-.37-.6-.56-.42-.4-.85-.81-1.26-1.22-.32-.3-.64-.61-.95-.93-1.16-1.15-2.29-2.31-3.39-3.5v-184.88c.51-.97,1.01-1.94,1.5-2.91.49-.94.96-1.89,1.43-2.83.47-.94.94-1.88,1.4-2.83.41-.84.82-1.67,1.21-2.51,1.17-2.46,2.29-4.93,3.35-7.42.3-.73.61-1.45.9-2.18.09-.22.18-.45.28-.68.23-.59.47-1.18.69-1.77.26-.67.52-1.34.76-2.01.07-.19.14-.39.22-.59.25-.7.5-1.41.74-2.11.21-.62.42-1.23.62-1.85.04-.12.08-.24.11-.36.12-.36.23-.72.34-1.08.42-1.35.81-2.7,1.18-4.07.2-.75.39-1.5.57-2.25h15.22Z"/>
        <path class="cls-1" d="M143.25,205.55v273.42c-1.26-.38-2.53-.77-3.8-1.17-6-1.86-12.05-3.85-18.06-6.02-.83-.3-1.66-.6-2.49-.91-.93-.34-1.85-.68-2.76-1.03-1.14-.42-2.27-.86-3.4-1.3V205.55h30.51Z"/>
        <path class="cls-1" d="M207.33,205.55v292.65c-2.89-1.07-5.89-2.1-8.97-3.11-2.27-.75-4.6-1.48-6.98-2.21-1.64-.5-3.3-1-4.99-1.5-.83-.25-1.67-.5-2.52-.74-2.31-.68-4.66-1.35-7.05-2.03V205.55h30.51Z"/>
        <path class="cls-1" d="M271.4,205.55v283.06c-2.39.68-4.74,1.35-7.05,2.03-.85.24-1.69.49-2.52.74-1.69.5-3.35,1-4.99,1.5-2.38.73-4.71,1.46-6.98,2.21-3.08,1.01-6.08,2.04-8.97,3.11V205.55h30.51Z"/>
        <path class="cls-1" d="M335.48,205.55v262.99c-1.13.44-2.26.88-3.4,1.3-.91.35-1.83.69-2.76,1.03-.83.31-1.66.61-2.49.91-6.01,2.17-12.06,4.16-18.06,6.02-1.27.4-2.54.79-3.8,1.17V205.55h30.51Z"/>
        <path class="cls-1" d="M399.56,243v184.88c-1.1,1.19-2.23,2.35-3.39,3.5-.31.32-.63.63-.95.93-.41.41-.84.82-1.26,1.22-.2.19-.4.38-.6.56-.62.58-1.25,1.16-1.89,1.73-.72.65-1.44,1.29-2.18,1.92-.01,0-.02.02-.03.02-.74.65-1.5,1.28-2.27,1.91-.71.59-1.43,1.17-2.16,1.74-.15.12-.3.24-.45.36-.56.44-1.13.88-1.71,1.31-.18.14-.37.29-.56.42-.66.5-1.33,1-2.01,1.49-1.9,1.37-3.85,2.72-5.86,4.03-.69.46-1.39.91-2.09,1.35-.75.48-1.51.95-2.27,1.42-.28.17-.56.34-.84.51v-246.75h15.22c.18.75.37,1.5.57,2.25.37,1.37.76,2.72,1.18,4.07.11.36.22.72.34,1.08.03.12.07.24.11.36.2.62.41,1.23.62,1.85.24.7.49,1.41.74,2.11.08.2.15.4.22.59.24.67.5,1.34.76,2.01.22.59.46,1.18.69,1.77.1.23.19.46.28.68.29.73.6,1.45.9,2.18,1.06,2.49,2.18,4.96,3.35,7.42.39.84.8,1.67,1.21,2.51.46.95.93,1.89,1.4,2.83.47.94.94,1.89,1.43,2.83.49.97.99,1.94,1.5,2.91Z"/>
        <g>
          <path class="cls-2" d="M271.4,205.55v283.06c-2.39.68-4.74,1.35-7.05,2.03-.85.24-1.69.49-2.52.74-1.69.5-3.35,1-4.99,1.5-2.38.73-4.71,1.46-6.98,2.21-3.08,1.01-6.08,2.04-8.97,3.11V205.55h30.51Z"/>
          <path class="cls-2" d="M335.48,205.55v262.99c-1.13.44-2.26.88-3.4,1.3-.91.35-1.83.69-2.76,1.03-.83.31-1.66.61-2.49.91-6.01,2.17-12.06,4.16-18.06,6.02-1.27.4-2.54.79-3.8,1.17V205.55h30.51Z"/>
          <path class="cls-2" d="M399.56,243v184.88c-1.1,1.19-2.23,2.35-3.39,3.5-.31.32-.63.63-.95.93-.41.41-.84.82-1.26,1.22-.2.19-.4.38-.6.56-.62.58-1.25,1.16-1.89,1.73-.72.65-1.44,1.29-2.18,1.92-.01,0-.02.02-.03.02-.74.65-1.5,1.28-2.27,1.91-.71.59-1.43,1.17-2.16,1.74-.15.12-.3.24-.45.36-.56.44-1.13.88-1.71,1.31-.18.14-.37.29-.56.42-.66.5-1.33,1-2.01,1.49-1.9,1.37-3.85,2.72-5.86,4.03-.69.46-1.39.91-2.09,1.35-.75.48-1.51.95-2.27,1.42-.28.17-.56.34-.84.51v-246.75h15.22c.18.75.37,1.5.57,2.25.37,1.37.76,2.72,1.18,4.07.11.36.22.72.34,1.08.03.12.07.24.11.36.2.62.41,1.23.62,1.85.24.7.49,1.41.74,2.11.08.2.15.4.22.59.25.67.5,1.34.76,2.01.22.59.46,1.18.69,1.77.1.23.19.46.28.68.29.73.6,1.45.9,2.18,1.06,2.49,2.18,4.96,3.35,7.42.39.84.8,1.67,1.21,2.51.45.94.92,1.89,1.4,2.83.47.94.94,1.89,1.43,2.83.49.97.99,1.94,1.5,2.91Z"/>
        </g>
      </g>
      <g>
        <path class="cls-2" d="M207.33,205.55v292.65c-2.89-1.07-5.89-2.1-8.97-3.11-2.27-.75-4.6-1.48-6.98-2.21-1.64-.5-3.3-1-4.99-1.5-.83-.25-1.67-.5-2.52-.74-2.31-.68-4.66-1.35-7.05-2.03V205.55h30.51Z"/>
        <path class="cls-2" d="M143.25,205.55v273.42c-1.26-.38-2.53-.77-3.8-1.17-6-1.86-12.05-3.85-18.06-6.02-.83-.3-1.66-.6-2.49-.91-.93-.34-1.85-.68-2.76-1.03-1.14-.42-2.27-.86-3.4-1.3V205.55h30.51Z"/>
        <path class="cls-2" d="M79.18,205.55v246.75c-.28-.17-.56-.34-.84-.51-.76-.47-1.52-.94-2.27-1.42-.7-.44-1.4-.89-2.09-1.35-2.01-1.31-3.96-2.66-5.86-4.03-.68-.49-1.35-.99-2.01-1.49-.19-.13-.38-.28-.56-.42-.58-.43-1.15-.87-1.71-1.31-.15-.12-.3-.24-.45-.36-.73-.57-1.45-1.15-2.16-1.74-.77-.63-1.53-1.26-2.27-1.91-.01,0-.02-.01-.03-.02-.74-.63-1.46-1.27-2.18-1.92-.64-.57-1.27-1.15-1.89-1.73-.2-.18-.4-.37-.6-.56-.42-.4-.85-.81-1.26-1.22-.32-.3-.64-.61-.95-.93-1.16-1.15-2.29-2.31-3.39-3.5v-184.88c.51-.97,1.01-1.94,1.5-2.91.49-.94.96-1.89,1.43-2.83.48-.94.95-1.89,1.4-2.83.41-.84.82-1.67,1.21-2.51,1.17-2.46,2.29-4.93,3.35-7.42.3-.73.61-1.45.9-2.18.09-.22.18-.45.28-.68.23-.59.47-1.18.69-1.77.26-.67.51-1.34.76-2.01.07-.19.14-.39.22-.59.25-.7.5-1.41.74-2.11.21-.62.42-1.23.62-1.85.04-.12.08-.24.11-.36.12-.36.23-.72.34-1.08.42-1.35.81-2.7,1.18-4.07.2-.75.39-1.5.57-2.25h15.22Z"/>
      </g>
      <path class="cls-1" d="M322.95,116.65v17.88h22.34c-1.47,8.47-8.96,15.08-20.42,15.08-16.53,0-22.23-12.34-22.23-26.59s8.82-24.03,22.12-24.03c7.04,0,12.95,3.79,16.82,9.46l19.65-9.18c-7.63-11.21-21.41-18.83-35.91-18.83-24.03,0-44.26,17.54-44.26,42.58s15.91,42.92,43.92,42.92,41.74-18.05,41.74-43.59v-5.7h-43.77Z"/>
      <path class="cls-1" d="M145.17,139.36l14.27,14.27c-8.01,9.06-19.81,14.79-32.99,14.79-24.13,0-43.7-19.23-43.7-42.96s19.57-42.96,43.7-42.96c13.45,0,25.48,5.98,33.49,15.37l-14.82,14.11c-4.05-5.73-10.56-9.45-17.91-9.45-12.28,0-22.24,10.38-22.24,23.18s9.96,23.18,22.24,23.18c7.38,0,13.92-3.76,17.96-9.53Z"/>
      <path class="cls-1" d="M234.34,84.16h-28.56l-28.58,83.86h22.04l4.65-15.71h32.35l4.65,15.71h22.03l-28.58-83.86ZM208.54,136.61l11.52-38.93,11.53,38.93h-23.05Z"/>
      <polygon class="cls-2" points="231.59 136.61 208.54 136.61 220.06 97.68 231.59 136.61"/>
    </g>
  </g>
</svg>