<?xml version="1.0" encoding="UTF-8"?>
<svg id="Calque_2" data-name="Calque 2" xmlns="http://www.w3.org/2000/svg" viewBox="0 0 2551.18 2551.18">
  <defs>
    <style>
      .cls-1 {
        fill: #fff;
      }

      .cls-1, .cls-2 {
        fill-rule: evenodd;
      }

      .cls-2 {
        fill: #ed0103;
      }
    </style>
  </defs>
  <g id="Calque_1-2" data-name="Calque 1">
    <g>
      <path class="cls-2" d="M1275.59,2551.18C571.1,2551.18,0,1980.08,0,1275.59S571.1,0,1275.59,0s1275.59,571.1,1275.59,1275.59-571.1,1275.59-1275.59,1275.59h0Z"/>
      <path class="cls-1" d="M1275.59,2399.52c-620.73,0-1123.93-503.2-1123.93-1123.93S654.86,151.66,1275.59,151.66s1123.93,503.2,1123.93,1123.93-503.2,1123.93-1123.93,1123.93h0Z"/>
      <path class="cls-2" d="M1275.59,2170.18c-494.07,0-894.59-400.52-894.59-894.59s400.52-894.59,894.59-894.59c388.2,0,718.6,247.29,842.39,592.93h-363.23c-100.26-158.92-277.37-264.51-479.16-264.51-312.69,0-566.17,253.48-566.17,566.17s253.48,566.17,566.17,566.17c219.42,0,409.68-124.83,503.66-307.34h-769v-311.05h1158.37c1,17.28,1.56,34.69,1.56,52.22,0,494.07-400.52,894.59-894.59,894.59h0Z"/>
    </g>
  </g>
</svg>