<?xml version="1.0" encoding="UTF-8"?>
<svg id="Calque_2" data-name="Calque 2" xmlns="http://www.w3.org/2000/svg" viewBox="0 0 996.84 996.84">
  <defs>
    <style>
      .cls-1 {
        fill: #8b1712;
      }

      .cls-1, .cls-2, .cls-3, .cls-4 {
        fill-rule: evenodd;
      }

      .cls-2 {
        fill: #fdfeff;
      }

      .cls-3 {
        fill: #e5122a;
      }

      .cls-4 {
        fill: #f0821b;
      }

      .cls-5 {
        fill: #8a1712;
      }

      .cls-6 {
        fill: #fff;
      }

      .cls-7 {
        fill: #f1e727;
      }
    </style>
  </defs>
  <g id="Capa_1" data-name="Capa 1">
    <g>
      <path class="cls-7" d="M850.85,145.99C756.72,51.85,631.55,0,498.42,0S240.13,51.85,145.99,145.99,0,365.29,0,498.42s51.85,258.3,145.99,352.43c94.13,94.14,219.3,145.99,352.43,145.99s258.3-51.85,352.43-145.99c94.14-94.13,145.99-219.3,145.99-352.43s-51.85-258.29-145.99-352.43ZM835.3,835.3c-89.98,89.98-209.62,139.54-336.88,139.54s-246.89-49.56-336.88-139.54c-82.16-82.17-130.62-189.04-138.41-303.88h167.6c7.39,70.17,38.31,135.2,88.9,185.79,58.44,58.44,136.14,90.63,218.79,90.63s160.35-32.19,218.79-90.63c50.59-50.59,81.51-115.62,88.9-185.79h167.6c-7.79,114.84-56.25,221.72-138.41,303.88ZM211,498.42c0-158.74,128.68-287.42,287.42-287.42s287.42,128.68,287.42,287.42-128.68,287.42-287.42,287.42-287.42-128.68-287.42-287.42ZM807.65,509.42c.13-3.66.19-7.32.19-11s-.06-7.34-.19-11c-.26-7.38-.77-14.72-1.54-22-7.39-70.17-38.31-135.2-88.9-185.79-58.44-58.44-136.14-90.63-218.79-90.63s-160.35,32.19-218.79,90.63c-50.59,50.59-81.51,115.62-88.9,185.79-.77,7.28-1.28,14.62-1.54,22-.13,3.66-.19,7.32-.19,11s.06,7.34.19,11H22.12c-.08-3.66-.12-7.33-.12-11s.04-7.34.12-11c.17-7.36.5-14.7,1.01-22,7.79-114.84,56.25-221.71,138.41-303.88C251.53,71.56,371.16,22,498.42,22s246.89,49.56,336.88,139.54c82.16,82.17,130.62,189.04,138.41,303.88.51,7.3.84,14.64,1.01,22,.08,3.66.12,7.33.12,11s-.04,7.34-.12,11h-167.07Z"/>
      <path class="cls-5" d="M806.11,531.42c-7.39,70.17-38.31,135.2-88.9,185.79-58.44,58.44-136.14,90.63-218.79,90.63s-160.35-32.19-218.79-90.63c-50.59-50.59-81.51-115.62-88.9-185.79H23.13c7.79,114.84,56.25,221.71,138.41,303.88,89.99,89.98,209.62,139.54,336.88,139.54s246.9-49.56,336.88-139.54c82.16-82.16,130.62-189.04,138.41-303.88h-167.6ZM974.72,487.42c-.17-7.36-.5-14.7-1.01-22-7.79-114.84-56.25-221.71-138.41-303.88C745.31,71.56,625.68,22,498.42,22s-246.89,49.56-336.88,139.54C79.38,243.71,30.92,350.58,23.13,465.42c-.51,7.3-.84,14.64-1.01,22-.08,3.66-.12,7.33-.12,11s.04,7.34.12,11h167.07c-.13-3.66-.19-7.32-.19-11s.06-7.34.19-11c.26-7.38.77-14.72,1.54-22,7.39-70.17,38.31-135.2,88.9-185.79,58.44-58.44,136.14-90.63,218.79-90.63s160.35,32.19,218.79,90.63c50.59,50.59,81.51,115.62,88.9,185.79.77,7.28,1.28,14.62,1.54,22,.13,3.66.19,7.32.19,11s-.06,7.34-.19,11h167.07c.08-3.66.12-7.33.12-11s-.04-7.34-.12-11Z"/>
      <circle class="cls-6" cx="498.42" cy="498.42" r="287.42"/>
      <path class="cls-4" d="M189,498.42c0,3.68.06,7.34.19,11H22.12c-.08-3.66-.12-7.33-.12-11s.04-7.34.12-11h167.07c-.13,3.66-.19,7.32-.19,11Z"/>
      <path class="cls-3" d="M190.73,465.42c-.77,7.28-1.28,14.62-1.54,22H22.12c.17-7.36.5-14.7,1.01-22h167.6Z"/>
      <path class="cls-4" d="M974.84,498.42c0,3.67-.04,7.34-.12,11h-167.07c.13-3.66.19-7.32.19-11s-.06-7.34-.19-11h167.07c.08,3.66.12,7.33.12,11Z"/>
      <path class="cls-3" d="M974.72,487.42h-167.07c-.26-7.38-.77-14.72-1.54-22h167.6c.51,7.3.84,14.64,1.01,22Z"/>
      <g>
        <path class="cls-1" d="M344.93,486.73c4.22-5.71,3.56-8.68,6.05-16.06,10.02,13.1.9,7.74-8.66,25.13-6.3,11.44-24.38,53.4-22.44,65.6,2.02,12.7,16.23,13.86,29.42,14.91-2.03,4.61-7.74,11.31-8.79,15.35-2.02,7.78,4.92,11.45,7.51,15.01-5.36,21.15,4.01,14.82,10.55,27.48,6.1,11.8-3.88,25.87,6.07,33.83,20.88,16.68,47.28-2.55,71.89.88-.82,2.24-7.01,7.53-4.7,11.3,6.61,6.13,11.62-5.46,20.95-4.6,12.05,5.67-10.07,44.55-8.58,55.53l32.26.04c-4.64,10.13-20.55,18.53-21.04,30.77,12.12,2,11.64-.61,21.44-5.61,20.29-10.37,39.17-19.91,56.21-35.2,10.87-9.75,20.28-18.76,29.27-31.62,3.95-5.65,8.16-11.93,11.78-18.65,3.45-6.42,6.72-14.2,10.16-20.24-2.31,21.57-17.93,51.08-29.36,69.31-4.18,6.67-11.45,14.37-8.63,21.3,4.96,1.59,6.78.86,9.44-2.64,26.65-35.08,54.77-76.78,75.21-115.93,3.14-6,6.03-14.1,10.2-19.09-1.49,27.5-24.87,82.64-45.31,106.84-2.15,2.55-3.2,3.55-4.83,5.67-.39.5-1.97,2.81-2.15,3.41-1.19,4.12-.74,2.71.89,4.79,5.65,6.88,14.88-8.78,23.11-18.9,14.09-17.33,27.15-34.29,38.01-54.4,4.69-8.68,11.16-23.37,16.34-30.6-1.27,18.66-13.63,49.74-21.72,67.27-3.27,7.09-8.34,13.27-7.01,22.53,6.17.77,8.32-.55,11.52-4.44,22.16-26.94,31.71-37.26,49.57-72.25,79.38-155.41-27.85-252.27-27.83-262.95,0-3.15,19.36-37.31,13.73-54.76-6.07-1.73-9.59,2.18-14.65,4.53-4.75,2.2-12.77,2.95-18.14,3.69-11.92,1.63-26.54,5.71-36.15-.22-18.51-11.4-32.45-22.02-57.28-29.87-23.74-7.51-51.21-4.57-76.31-10.88-32.94-8.3-24.39-11.68-62.37,12.88-12.92,8.36-13.74,8.25-31.26,11.78-32.28,6.49-52.23,13.13-80.29,28.93-6.52,3.68-5,8.1-4.35,16.38,2.6,32.57,3.24,45.57,13.1,74.21,1.83,5.32,4.08,9.65,5.47,15.5,3.86,16.1,4.49,17.71,11.17,32.94,2.97,6.77,2.55,11.21,10.5,11.18h-.01Z"/>
        <path class="cls-2" d="M455.67,625.15c24.33-9.68,30.26-24.82,40.28-20.24,1.46,6.65-15.89,30.94-20.22,37.16,22.78-16.37,33.36-30.65,49.46-56.92,6.58-10.74,13.26-22.71,18.83-34.7,5.09-10.94,13.24-37.55,20.57-31.06,7.51,12.02-16.08,76.85-20.97,88.3-5.87,13.73-11.63,24.48-18.34,37.35-2.98,5.73-6.78,11.99-9.96,17.33l-10.82,17.96c13.17-8.89,30.98-34.16,37.96-51.71,2.15-5.39,4.49-21.05,13.17-11.82,2.1,7.15-8.02,30.66-11.04,36.99-5.52,11.59-11.72,21.73-18.64,31.73l-43.49,56.7c11.02-3.13,32.25-19.8,40.4-26.17,12.41-9.71,22.67-21.16,32.69-34.47,15.25-20.25,25.36-46.9,26.96-73.84.52-8.83-3.05-25.4,6.26-27.38,7.88.88,9.88,33.8,9.82,41-.14,18.39-4.46,29.44-6.61,45.44,13.9-13.73,45.29-78.73,52.96-101.59,5.51-16.44,7.78-38.99,9.62-42.66,12.03-1.29,8.56,4.18,5.91,27.76-1.26,11.15-2.55,22.6-4.32,33.37l-13.35,61.23c.8-3.02,7.2-14.7,9.19-19.15,7.42-16.67,11.32-26.22,14.83-44.94,1.96-10.52.63-18.2,7.02-23.65,16.47,9.42,3.23,71.52-1.5,87.84-1.42,4.88-7.96,22.59-6.9,25.33,3.69-2.24,15.6-24.95,18.7-30.29,35.44-60.94,47.1-130.86,18.64-197.76-5.06-11.89-10.9-22.39-17.02-32.3-3.67-5.94-16.28-25.02-20.32-28.71-3.29,1.8-26.57,21.09-28.33,23.84,2.36,5.84,6.54,11.96,9.5,18.85,6.66,15.48,9.4,32.16,7.18,49.28-1.13,8.7-1.4,19.2-11.08,17.53-2.87-4.4-3.22-12.65-4.15-18.86-.54-3.6-1.02-6.65-1.53-10.16-.23-1.64-.42-4.02-.79-5.58-1.22-5.2.41-2.49-2.08-3.77.68,30.04,1.83,43.93-15.28,70.94-2.3,3.63-2.46,4.76-8.34,4.53-7.04-13.51,12.48-47.98-11.91-93.84-16.63-31.27-18.23-14.03-30.77-23.74-9.68-7.5-16.87-21.53-26.62-29.06-11.22-8.68-23.2-11.68-36.03-18.56-13.45-7.22-22.24-12.79-39.69-15.97-15.44-2.81-35.81-4.13-48.2,3.57-17.84,11.08-10,18.89-4.98,38.09,4.41,16.84,12.48,20.07,28.01,26.51,14.59,6.05,25.7,10.59,43.14,12.69,16.74,2.02,45.09-.49,48.18,6.34,3.72,8.24,4.71,40.16,3.86,50.52-4.09,49.88-30.91,95.54-65.69,127.2-4.75,4.32-9.57,9.66-14.12,13.53h-.04Z"/>
        <path class="cls-2" d="M372.92,566.11c1.3-5.48,1.27-5.28-.86-9.89,11.75,4.78.99,10.71,6.73,18.8,8.12,11.41,20.39,22.63,21.1,33.7.35,5.45-2.19,19.89-4.41,23.82-2.6-4.76,2.91-19.66-.16-27.79-2.47-6.53-16.34-20.35-21.6-26.71-11.02-13.34-15.24,2.29-16.86,5.78-1.97,4.24-4.97,7.01-4.68,12.68,5.2,2.09,28.3,14.24,31.91,13.6l.23-1.39c0-.13.02-.53,0-.68l-4.48-8.45c14.87,4.71,12.45,18.54,2.3,23.69l2.64-9.55c-8.94-.9-38.79-6.58-24.22,6.83,21.59,19.87-2.82,38.86,20.17,44.91,7.47,1.96,16.63,1.16,23.74-.45,7.34-1.66,13.87-3.91,21.54-4.6,23.78-2.14,13.51,11.17,33.59-14.88,2.82-3.65,10.29-11.53,10.13-15.32-10.06,5.51-41.06,16.24-53.29,16.61-5.98.19-14.59-4.61.56-11.34,4.28-1.9,8.11-4,11.76-6.04,20.91-11.6,43.43-31.83,57.66-50.5,20.85-27.37,39.31-61.69,39.47-106.65.02-7.82-.56-20.02-2.29-27.22-1.73-7.17-9.44-5.93-23.04-6.16-59.94-1.05-82.09-28.06-90.18-27.33-1.99.18-15.25,7.47-20.48,8.99-19.15,5.6-29.23-5.93-33.7,25.98-3.89,27.75,18.28,25.9,3.25,43.21-5.33,6.14-8.56,9.01-12.16,18.33-5.18,13.41-11.82,28.85-16.01,42.76-3.44,11.42,2.06,14.25,12.7,14.63,7.12.25,23.12,2.4,28.95.65l-.02-.04Z"/>
        <path class="cls-2" d="M674.85,330.27c-49.43,8.42-36.71,8.28-91.35,6.75-27.48-.76-24.89-5.4-31.41,18.89-5.05,18.83-5.38,16.05,10.43,33.38,11.42,12.53,9.53,16.1,34.56,14.29,14.52-1.05,28.03-4.92,38.58-11.41,19.91-12.26,36.91-38.9,39.19-61.91h0Z"/>
        <path class="cls-2" d="M405.67,400.79c-8.21-25.37-19.5-45.99,8.62-60.92,4.36-2.31,6.09-2.38,5.02-8.27-3.51-1.51-6.53.09-8.41-3.84-1.72-3.57-.13-8.86-.36-12.88-8.88-.27-23.85,3.41-32.93,5.13-18.54,3.53-14.43,1.96-22.13,16.68-5.54,10.59-17.01,25.01-25.54,32.23-15.42,13.06-15.12,3.73-7.46,38.83,4.23,19.41,4.53,12.19,21.26,8.5,25.25-5.58,43.57.08,61.93-15.49h0Z"/>
        <path class="cls-2" d="M418.7,319.46h2.02v-3.57c.02-1.21.29-2.41.87-3.47.32-.58.7-1.04,1.1-.99,9.85,1.35,48.32,22.21,58.21,27.18,8.12,4.07,52.24,26.89,57.42,27.36,2.16-4.12,2.4-10.37,3.57-14.99,8.07-31.61,14.81-24.31,59.54-24.8-8.2-6.96-28.35-16.93-40.74-21.05-29.65-9.87-52.46-5.01-80.06-12.36-23.84-6.35-21.27-10.33-46.57,6.04-3.45,2.23-6.59,3.98-9.52,6.27-4.08,3.19-5.93,3.13-5.83,9.87l-.02,4.51Z"/>
        <path class="cls-1" d="M661.31,347.49c-1.89-2.04-1.05-1.91-4.95-2.58l-35.07-.25c-17.08,0-35.68-2.75-48.39-2.75-7.67,0-7.75,1.87-9.47,8.54-5.12,19.9-8.59,21.58,6.31,36.86,3.09,3.17,4.9,6.6,8.46,9.41,6.12,4.85,20.18-1.55,26.94-3.55,9-2.67,17.6-5.58,25.09-9.58,12.06-6.45,35.39-27.21,31.07-36.09h0Z"/>
        <path class="cls-2" d="M646.2,353.87l-68.04-1.46c-5.12.52-5.33,2.22-6.91,6.85-4.06,11.95-.11,13.4,5.27,20.24,9.06,11.52,13.6,8.71,39.31-.87,10.58-3.95,30.71-15.09,30.37-24.76Z"/>
        <path class="cls-2" d="M458.96,669.84c1.08,5.14,3.66,11.98,6.29,15.9.35.52.98.78,1.6.64,5.51-1.3,11.58-3.56,16.83-5.31,9.69-3.22,8.67-2.15,13.43-10.64l33.73-60.77,10.18-24.48c1.48-3.79,3.24-6.38,1.52-8.72-7.19,10.57-11.18,22.91-25.52,40.37-3.05,3.71-7.08,8.98-10.14,11.95-14.86,14.44-28.22,28.35-47.11,39.28-.62.36-.95,1.08-.8,1.78Z"/>
        <path class="cls-1" d="M359.76,461.79c1,2.57,8.13,9.93,10.44,12.63,6.51,7.59,4.53,10.82,1.61,16.87,8.86,1.12,12.35-.49,21.29-1.63,9.21-1.16,13.63-.53,22.47.7-5.32-11.15-23.39-15.45-29.65-19.14,10.94-12.77,28.5-.75,42.68,2.62-2.88-9.37-18.4-17.88-28.89-18.49-7.18-.41-34.81,3.77-39.94,6.42h-.01Z"/>
        <path class="cls-1" d="M391.87,524.18c27.2,1.74,48.07,2.34,72.46,14.74,7.51,3.82,11.84,7.55,18.3,11.32-4.33-9.35-28.66-22.2-42.64-27.98-8.53-3.52-17.43-6.54-27.17-8.44-4.95-.96-11.29-1.9-16.32-1.62-5.3.29-7.11,2.21-4.62,11.99h-.01Z"/>
        <path class="cls-2" d="M599.29,414.55c5.74,12.22,8.18,10.88,15.6,31.59,4.62,12.88,6.06,27.88,7.3,42.71,5.17-9.86,2.63-31.78.27-42.98-2.13-13.87-6.25-22.09-11.68-33.44-3.41,0-7.57,0-12.17,1.31l.68.81Z"/>
        <path class="cls-2" d="M314.84,345.32l.25,21.35c5.5-1.56,31.45-27.6,30.72-36.72-9.44,3.96-22.32,10.38-30.97,15.37h0Z"/>
        <path class="cls-2" d="M331.86,432.76c-.68,5.21,2.02,13.51,3.3,19.04l3.16,13.64c1.75,5-.2,2.29,2.55,3.28,1.7-2.58,10.3-38.52,10.06-42.14-4.68-.52-15.85,4.07-19.07,6.18h0Z"/>
        <path class="cls-1" d="M409.43,539.3c10.44,1.97,20.33.68,30.91,3.58,10.78,2.96,16.18,8.35,24.47,11.39-5.76-10.37-35.79-25.77-55.44-24.35l.05,9.39h.01Z"/>
        <path class="cls-6" d="M430.53,325.19v9.68h18.61l-18.61-9.68Z"/>
        <path class="cls-6" d="M385.47,477.58l-3.51,9.2h25.64s-11.34-7.18-22.13-9.2Z"/>
      </g>
      <path class="cls-2" d="M622.9,408.88s2.45-3.43,5.59,1.67,7.46,15.6,7.46,15.6c0,0-15.8-15.01-13.05-17.27Z"/>
      <path class="cls-2" d="M463.06,691.72l-8.8,31.01,7.21.39s8.02-15.93,23.83-33.08c.58-.63.07-1.65-.79-1.54l-21.45,3.23Z"/>
      <path class="cls-2" d="M501.5,698.91l-24.69,21.29c-.38.33-.14.96.37.93,3.1-.15,10.24-1,13.62-5.43,4.02-5.27,13.12-14.39,11.75-16.7-.21-.36-.74-.37-1.06-.1Z"/>
      <g>
        <path class="cls-6" d="M528.25,849.1l-22.29,34.42c-.89,1.37-1.36,2.96-1.36,4.59v21.43h-6.8s-6.8,0-6.8,0v-21.43c0-1.63-.47-3.22-1.36-4.59l-22.29-34.42h13.25c1.24,0,2.4.62,3.08,1.65l14.12,21.26,14.11-21.26c.69-1.03,1.85-1.65,3.08-1.65h13.26Z"/>
        <path class="cls-6" d="M438.65,884.56h0c0,7.52-6.1,13.62-13.62,13.62h-.09c-7.52,0-13.62-6.1-13.62-13.62v-10.46c0-7.52,6.1-13.62,13.62-13.62h.09c6.99,0,12.75,5.27,13.52,12.05l13.1-3.22c-1.59-12.21-12.02-21.65-24.67-21.65h-4.53c-13.74,0-24.88,13.14-24.88,26.88v10.57c0,13.74,11.14,25.88,24.88,25.88h4.53c13.42,0,24.35-9.22,24.86-23.81l-13.2-2.63Z"/>
        <path class="cls-6" d="M586.06,884.56h0c0,7.52-6.1,13.62-13.62,13.62h-.09c-7.52,0-13.62-6.1-13.62-13.62v-10.46c0-7.52,6.1-13.62,13.62-13.62h.09c6.99,0,12.75,5.27,13.52,12.05l13.1-3.22c-1.59-12.21-12.02-21.65-24.67-21.65h-4.53c-13.74,0-24.88,13.14-24.88,26.88v10.57c0,13.74,11.14,25.88,24.88,25.88h4.53c13.42,0,24.35-9.22,24.86-23.81l-13.2-2.63Z"/>
      </g>
      <g>
        <path class="cls-6" d="M179.51,373.81l-54.68-24.78,5.36-11.83,45.04,20.41,10.65-23.5,9.63,4.37-16.01,35.33Z"/>
        <path class="cls-6" d="M189.57,290.23c-15.59-11.89-20.2-24.7-10.45-37.49,9.75-12.79,23.33-11.73,38.92.15,15.59,11.89,20.2,24.7,10.45,37.49-9.75,12.79-23.33,11.74-38.92-.15ZM213.8,266.96l-8.27-6.31c-7.66-5.84-13.7-7.42-18.13-1.61s-1.31,11.22,6.35,17.06l8.34,6.36c7.66,5.84,13.7,7.42,18.13,1.6s1.31-11.22-6.42-17.11Z"/>
        <path class="cls-6" d="M259.54,241.38l.58-11.13c6.44.96,12.06-.73,16.19-4.1,4.73-3.86,5.54-8.18,2.28-12.18-2.66-3.27-5.65-3.39-10.78-.43l-5.52,3.17c-9.47,5.39-17.19,3.14-22.73-3.66-7.28-8.93-5.32-19.19,5.22-27.77,7.13-5.81,14.55-7.87,20.92-6.73l-.5,10.95c-4.69-.72-9.52.44-13.72,3.86-4.47,3.64-5.21,7.35-2.22,11.02,2.61,3.2,5.62,3.08,10.8.18l5.57-3.1c8.55-4.75,16.47-3.88,22.45,3.45,7.12,8.73,6.2,20.13-5.47,29.64-7.73,6.3-15.95,8.34-23.07,6.82Z"/>
      </g>
      <g>
        <path class="cls-6" d="M397.23,139.93c-4.22-19.24.75-31.94,16.46-35.38,12.1-2.65,19.85,2.6,24.45,12.34l-11.13,5.43c-2.48-5.27-5.46-8.84-11.34-7.55-6.8,1.49-8.16,7.77-6.11,17.1l2.25,10.25c2.04,9.32,5.9,14.46,12.7,12.98,5.88-1.29,7.1-5.78,7.14-11.6l12.38.28c-.11,10.76-4.95,18.78-17.05,21.43-15.71,3.44-25.53-6.03-29.74-25.26Z"/>
        <path class="cls-6" d="M511.96,131.58l-15.13-.24-.39,25.11-12.98-.2.94-60.02,12.98.2-.38,24.34,15.13.24.38-24.33,12.98.2-.94,60.02-12.98-.2.39-25.11Z"/>
        <path class="cls-6" d="M593.57,169.82l-.11-14.94-15.92-4.04-7.14,13.09-12.67-3.22,30.53-54.18,17.67,4.49.98,62.18-13.34-3.39ZM594.02,120.87l-.67-.17-11.26,20.57,12,3.05-.08-23.45Z"/>
        <path class="cls-6" d="M666.78,155.77l-.84-.43-18.23,35.49-9.79-5.03,27.42-53.39,13.77,7.07-6.07,41.74.84.43,18.23-35.49,9.79,5.03-27.43,53.39-13.77-7.07,6.07-41.74Z"/>
        <path class="cls-6" d="M736.6,219.29l-8.92,2.2-11.44,13.3-9.78-8.41,39.13-45.52,9.78,8.41-16.37,19.04.52.45,11.46-3.3,17.89-4.58,10.96,9.42-30.17,7.52-8.31,38.56-11.02-9.48,6.27-27.61Z"/>
        <path class="cls-6" d="M781.88,306.91l9.47-11.54-9.64-13.3-13.87,5.49-7.67-10.58,58.13-22.08,10.7,14.76-39.05,48.4-8.08-11.14ZM813.57,269.59l-.4-.56-21.81,8.59,7.27,10.03,14.95-18.06Z"/>
        <path class="cls-6" d="M812.43,341.87l10.5,3.72c-2.75,5.9-2.72,11.77-.67,16.69,2.36,5.63,6.27,7.63,11.03,5.64,3.89-1.62,4.85-4.45,3.47-10.21l-1.47-6.19c-2.48-10.62,1.87-17.38,9.96-20.76,10.63-4.44,19.91.35,25.15,12.88,3.55,8.49,3.41,16.19.52,21.97l-10.36-3.59c2.03-4.3,2.28-9.25.19-14.25-2.22-5.32-5.57-7.08-9.94-5.26-3.81,1.59-4.55,4.51-3.24,10.3l1.39,6.22c2.13,9.55-.95,16.9-9.68,20.55-10.39,4.35-21.06.23-26.87-13.65-3.85-9.2-3.47-17.66,0-24.06Z"/>
      </g>
    </g>
  </g>
</svg>