<svg xmlns:inkscape="http://www.inkscape.org/namespaces/inkscape" xmlns:sodipodi="http://sodipodi.sourceforge.net/DTD/sodipodi-0.dtd" xmlns="http://www.w3.org/2000/svg" xmlns:svg="http://www.w3.org/2000/svg" version="1.1" id="svg1" width="316.22776601683796" height="316.22776601683796" viewBox="0 0 404.40929 404.28128" sodipodi:docname="Księga Znaku.pdf">
  <defs id="defs1">
    <clipPath clipPathUnits="userSpaceOnUse" id="clipPath1">
      <path d="M 0,595.276 H 841.89 V 0 H 0 Z" id="path1"/>
    </clipPath>
    <mask maskUnits="userSpaceOnUse" x="0" y="0" width="1" height="1" id="mask1">
      <path id="path3" d="M -32768,32767 H 32767 V -32768 H -32768 Z" style="fill:url(#linearGradient3);stroke:none"/>
    </mask>
    <linearGradient x1="0" y1="0" x2="1" y2="0" gradientUnits="userSpaceOnUse" gradientTransform="matrix(792.53152,792.53152,792.53152,-792.53152,298.04168,-371.9905)" spreadMethod="pad" id="linearGradient3">
      <stop style="stop-opacity:1;stop-color:#ffffff" offset="0" id="stop1"/>
      <stop style="stop-opacity:0;stop-color:#ffffff" offset="0.68965993" id="stop2"/>
      <stop style="stop-opacity:0;stop-color:#ffffff" offset="1" id="stop3"/>
    </linearGradient>
    <clipPath clipPathUnits="userSpaceOnUse" id="clipPath4">
      <path d="M -250.098,968.68 H 1091.99 V -373.405 H -250.098 Z" transform="translate(248.68341,-174.7346)" id="path4"/>
    </clipPath>
    <clipPath clipPathUnits="userSpaceOnUse" id="clipPath5">
      <path d="M -250.098,968.68 H 1091.99 V -373.405 H -250.098 Z" transform="translate(101.88711,-27.938298)" id="path5"/>
    </clipPath>
    <clipPath clipPathUnits="userSpaceOnUse" id="clipPath6">
      <path d="M -250.098,968.68 H 1091.99 V -373.405 H -250.098 Z" transform="translate(-191.7055,265.65441)" id="path6"/>
    </clipPath>
    <clipPath clipPathUnits="userSpaceOnUse" id="clipPath7">
      <path d="M -250.098,968.68 H 1091.99 V -373.405 H -250.098 Z" transform="translate(-44.909201,118.85801)" id="path7"/>
    </clipPath>
    <clipPath clipPathUnits="userSpaceOnUse" id="clipPath8">
      <path d="M 0,595.276 H 841.89 V 0 H 0 Z" transform="matrix(1.3333333,0,0,-1.3333333,0,793.70133)" id="path8"/>
    </clipPath>
    <clipPath clipPathUnits="userSpaceOnUse" id="clipPath9">
      <path d="M 0,595.276 H 841.89 V 0 H 0 Z" transform="translate(-571.72942,-449.24341)" id="path9"/>
    </clipPath>
    <clipPath clipPathUnits="userSpaceOnUse" id="clipPath10">
      <path d="M 0,595.276 H 841.89 V 0 H 0 Z" transform="translate(-570.86051,-447.53871)" id="path10"/>
    </clipPath>
    <clipPath clipPathUnits="userSpaceOnUse" id="clipPath11">
      <path d="M 0,595.276 H 841.89 V 0 H 0 Z" transform="translate(-558.68711,-436.45891)" id="path11"/>
    </clipPath>
    <clipPath clipPathUnits="userSpaceOnUse" id="clipPath12">
      <path d="M 0,595.276 H 841.89 V 0 H 0 Z" transform="translate(-557.81311,-434.75431)" id="path12"/>
    </clipPath>
    <clipPath clipPathUnits="userSpaceOnUse" id="clipPath13">
      <path d="M 0,595.276 H 841.89 V 0 H 0 Z" transform="translate(-473.04381,-286.74071)" id="path13"/>
    </clipPath>
    <clipPath clipPathUnits="userSpaceOnUse" id="clipPath14">
      <path d="M 0,595.276 H 841.89 V 0 H 0 Z" transform="translate(-409.10781,-374.54681)" id="path14"/>
    </clipPath>
    <clipPath clipPathUnits="userSpaceOnUse" id="clipPath15">
      <path d="M 0,595.276 H 841.89 V 0 H 0 Z" transform="translate(-430.75691,-381.60391)" id="path15"/>
    </clipPath>
    <clipPath clipPathUnits="userSpaceOnUse" id="clipPath16">
      <path d="M 0,595.276 H 841.89 V 0 H 0 Z" transform="translate(-384.15231,-353.40021)" id="path16"/>
    </clipPath>
    <clipPath clipPathUnits="userSpaceOnUse" id="clipPath17">
      <path d="M 0,595.276 H 841.89 V 0 H 0 Z" transform="translate(-394.18771,-353.40021)" id="path17"/>
    </clipPath>
    <clipPath clipPathUnits="userSpaceOnUse" id="clipPath18">
      <path d="M 0,595.276 H 841.89 V 0 H 0 Z" transform="translate(-404.09031,-367.57371)" id="path18"/>
    </clipPath>
    <clipPath clipPathUnits="userSpaceOnUse" id="clipPath19">
      <path d="M 0,595.276 H 841.89 V 0 H 0 Z" transform="translate(-423.08321,-357.91691)" id="path19"/>
    </clipPath>
    <clipPath clipPathUnits="userSpaceOnUse" id="clipPath20">
      <path d="M 0,595.276 H 841.89 V 0 H 0 Z" transform="translate(-434.28981,-357.63341)" id="path20"/>
    </clipPath>
    <clipPath clipPathUnits="userSpaceOnUse" id="clipPath21">
      <path d="M 0,595.276 H 841.89 V 0 H 0 Z" id="path21"/>
    </clipPath>
    <clipPath clipPathUnits="userSpaceOnUse" id="clipPath22">
      <path d="M 0,595.276 H 841.89 V 0 H 0 Z" transform="translate(-450.74971,-362.62241)" id="path22"/>
    </clipPath>
    <clipPath clipPathUnits="userSpaceOnUse" id="clipPath23">
      <path d="M 0,595.276 H 841.89 V 0 H 0 Z" transform="translate(-455.90901,-353.40021)" id="path23"/>
    </clipPath>
    <clipPath clipPathUnits="userSpaceOnUse" id="clipPath24">
      <path d="M 0,595.276 H 841.89 V 0 H 0 Z" transform="translate(-392.64731,-208.63711)" id="path24"/>
    </clipPath>
    <clipPath clipPathUnits="userSpaceOnUse" id="clipPath25">
      <path d="M 0,595.276 H 841.89 V 0 H 0 Z" transform="translate(-410.92711,-198.17161)" id="path25"/>
    </clipPath>
    <clipPath clipPathUnits="userSpaceOnUse" id="clipPath26">
      <path d="M 0,595.276 H 841.89 V 0 H 0 Z" transform="translate(-432.69601,-210.22291)" id="path26"/>
    </clipPath>
    <clipPath clipPathUnits="userSpaceOnUse" id="clipPath27">
      <path d="M 0,595.276 H 841.89 V 0 H 0 Z" transform="translate(-440.43981,-201.56491)" id="path27"/>
    </clipPath>
    <clipPath clipPathUnits="userSpaceOnUse" id="clipPath28">
      <path d="M 0,595.276 H 841.89 V 0 H 0 Z" transform="translate(-463.16011,-323.83111)" id="path28"/>
    </clipPath>
    <clipPath clipPathUnits="userSpaceOnUse" id="clipPath29">
      <path d="M 0,595.276 H 841.89 V 0 H 0 Z" transform="translate(-395.97511,-274.66511)" id="path29"/>
    </clipPath>
    <clipPath clipPathUnits="userSpaceOnUse" id="clipPath30">
      <path d="M 0,595.276 H 841.89 V 0 H 0 Z" transform="translate(-388.81761,-324.76411)" id="path30"/>
    </clipPath>
    <clipPath clipPathUnits="userSpaceOnUse" id="clipPath31">
      <path d="M 0,595.276 H 841.89 V 0 H 0 Z" transform="translate(-420.74271,-327.55471)" id="path31"/>
    </clipPath>
    <clipPath clipPathUnits="userSpaceOnUse" id="clipPath32">
      <path d="M 0,595.276 H 841.89 V 0 H 0 Z" transform="translate(-382.79061,-320.33591)" id="path32"/>
    </clipPath>
    <clipPath clipPathUnits="userSpaceOnUse" id="clipPath33">
      <path d="M 0,595.276 H 841.89 V 0 H 0 Z" id="path33"/>
    </clipPath>
    <clipPath clipPathUnits="userSpaceOnUse" id="clipPath34">
      <path d="M 0,595.276 H 841.89 V 0 H 0 Z" transform="translate(-430.39181,-310.31771)" id="path34"/>
    </clipPath>
    <clipPath clipPathUnits="userSpaceOnUse" id="clipPath35">
      <path d="M 0,595.276 H 841.89 V 0 H 0 Z" transform="translate(-448.62661,-315.12211)" id="path35"/>
    </clipPath>
    <clipPath clipPathUnits="userSpaceOnUse" id="clipPath36">
      <path d="M 0,595.276 H 841.89 V 0 H 0 Z" transform="translate(-458.81951,-304.45781)" id="path36"/>
    </clipPath>
    <clipPath clipPathUnits="userSpaceOnUse" id="clipPath37">
      <path d="M 0,595.276 H 841.89 V 0 H 0 Z" transform="translate(-450.96401,-291.92711)" id="path37"/>
    </clipPath>
    <clipPath clipPathUnits="userSpaceOnUse" id="clipPath38">
      <path d="M 0,595.276 H 841.89 V 0 H 0 Z" transform="translate(-443.07151,-293.2595)" id="path38"/>
    </clipPath>
    <clipPath clipPathUnits="userSpaceOnUse" id="clipPath39">
      <path d="M 0,595.276 H 841.89 V 0 H 0 Z" transform="translate(-439.76561,-307.67531)" id="path39"/>
    </clipPath>
    <clipPath clipPathUnits="userSpaceOnUse" id="clipPath40">
      <path d="M 0,595.276 H 841.89 V 0 H 0 Z" transform="translate(-438.43281,-304.45781)" id="path40"/>
    </clipPath>
    <clipPath clipPathUnits="userSpaceOnUse" id="clipPath41">
      <path d="M 0,595.276 H 841.89 V 0 H 0 Z" transform="translate(-450.96401,-312.31381)" id="path41"/>
    </clipPath>
    <clipPath clipPathUnits="userSpaceOnUse" id="clipPath42">
      <path d="M 0,595.276 H 841.89 V 0 H 0 Z" transform="translate(-457.48691,-307.67531)" id="path42"/>
    </clipPath>
    <clipPath clipPathUnits="userSpaceOnUse" id="clipPath43">
      <path d="M 0,595.276 H 841.89 V 0 H 0 Z" transform="translate(-454.18101,-293.2595)" id="path43"/>
    </clipPath>
    <clipPath clipPathUnits="userSpaceOnUse" id="clipPath44">
      <path d="M 0,595.276 H 841.89 V 0 H 0 Z" transform="matrix(1,0,0,-1,-248.30241,84.892902)" id="path44"/>
    </clipPath>
  </defs>
  <g transform="translate(-376.62766,-176.16115)">
    <g id="g85" transform="translate(17.572724,-18.548986)">
      <path d="M 0,0 H 841.89 V 595.276 H 0 Z" style="fill:#f8e11a;fill-opacity:1;fill-rule:nonzero;stroke:none" transform="matrix(1.3333333,0,0,-1.3333333,-755.62712,1457.5598)" clip-path="url(#clipPath1)" id="path45"/>
      <g opacity="1" mask="url(#mask1)" clip-path="url(#clipPath8)" id="g49" transform="translate(-177.67976,-335.83428)">
        <path d="M 0,0 106.336,-106.336 898.868,686.195 792.531,792.531 Z" style="fill:#fff200;fill-opacity:1;fill-rule:nonzero;stroke:none" transform="matrix(1.3333333,0,0,-1.3333333,-331.57787,560.72187)" clip-path="url(#clipPath4)" id="path46"/>
        <path d="M 0,0 106.336,-106.336 898.868,686.195 792.531,792.531 Z" style="fill:#fff200;fill-opacity:1;fill-rule:nonzero;stroke:none" transform="matrix(1.3333333,0,0,-1.3333333,-135.84947,756.45027)" clip-path="url(#clipPath5)" id="path47"/>
        <path d="M 0,0 106.336,-106.336 898.868,686.195 792.531,792.531 Z" style="fill:#fff200;fill-opacity:1;fill-rule:nonzero;stroke:none" transform="matrix(1.3333333,0,0,-1.3333333,255.60733,1147.9072)" clip-path="url(#clipPath6)" id="path48"/>
        <path d="M 0,0 106.336,-106.336 898.868,686.195 792.531,792.531 Z" style="fill:#fff200;fill-opacity:1;fill-rule:nonzero;stroke:none" transform="matrix(1.3333333,0,0,-1.3333333,59.878933,952.17867)" clip-path="url(#clipPath7)" id="path49"/>
      </g>
      <path d="m 0,0 h -302.438 v -10.76 c 0,-33.176 1.643,-80.469 9.467,-117.366 10.208,-48.132 28.357,-82.935 58.848,-112.845 14.073,-13.805 35.136,-30.244 59.308,-46.289 l 24.031,-15.951 24.03,15.951 c 24.172,16.045 45.234,32.484 59.307,46.289 30.492,29.91 48.642,64.713 58.848,112.845 7.826,36.898 9.468,84.19 9.468,117.366 V 0 Z" style="fill:#231f20;fill-opacity:1;fill-rule:nonzero;stroke:none" transform="matrix(1.3333333,0,0,-1.3333333,762.30587,194.71013)" clip-path="url(#clipPath9)" id="path50"/>
      <path d="m 0,0 v -9.056 c 0,-33.095 -1.636,-80.262 -9.431,-117.018 -10.134,-47.788 -28.138,-82.326 -58.375,-111.987 -13.998,-13.731 -34.97,-30.096 -59.054,-46.083 0,0 -22.121,-14.684 -23.055,-15.304 -0.935,0.62 -23.057,15.304 -23.057,15.304 -24.084,15.987 -45.055,32.352 -59.053,46.083 -30.238,29.661 -48.241,64.199 -58.376,111.987 -7.794,36.755 -9.43,83.922 -9.43,117.018 V 0 Z" style="fill:#ffffff;fill-opacity:1;fill-rule:nonzero;stroke:none" transform="matrix(1.3333333,0,0,-1.3333333,761.14733,196.98307)" clip-path="url(#clipPath10)" id="path51"/>
      <path d="m 0,0 h -276.356 l 0.003,-0.855 c 0.09,-31.709 1.757,-76.859 9.185,-111.883 9.659,-45.548 26.715,-78.366 55.304,-106.408 13.505,-13.248 33.889,-29.138 57.395,-44.741 l 16.727,-11.103 16.726,11.102 c 23.507,15.604 43.891,31.494 57.396,44.742 28.588,28.042 45.645,60.86 55.304,106.408 7.427,35.024 9.094,80.174 9.185,111.883 L 0.872,0 Z" style="fill:#231f20;fill-opacity:1;fill-rule:nonzero;stroke:none" transform="matrix(1.3333333,0,0,-1.3333333,744.91613,211.75613)" clip-path="url(#clipPath11)" id="path52"/>
      <path d="m 0,0 c -0.118,-31.584 -1.81,-76.108 -9.143,-110.686 -9.586,-45.204 -26.497,-77.757 -54.832,-105.551 -13.429,-13.173 -33.722,-28.989 -57.141,-44.534 0,0 -13.065,-8.673 -15.752,-10.456 -0.916,0.608 -15.753,10.456 -15.753,10.456 -23.418,15.545 -43.71,31.361 -57.141,44.534 -28.334,27.794 -45.245,60.347 -54.831,105.551 -7.333,34.578 -9.026,79.102 -9.144,110.686 z" style="fill:#1d7338;fill-opacity:1;fill-rule:nonzero;stroke:none" transform="matrix(1.3333333,0,0,-1.3333333,743.7508,214.02893)" clip-path="url(#clipPath12)" id="path53"/>
      <path d="m 0,0 c 0,-26.213 -22.077,-47.462 -49.308,-47.462 -27.234,0 -49.31,21.249 -49.31,47.462 v 74.832 c 0,26.213 22.076,47.463 49.31,47.463 C -22.077,122.295 0,101.045 0,74.832 Z" style="fill:#fee103;fill-opacity:1;fill-rule:nonzero;stroke:none" transform="matrix(1.3333333,0,0,-1.3333333,630.72507,411.3804)" clip-path="url(#clipPath13)" id="path54"/>
      <path d="M 0,0 H -4.789 V 22.927 H 0 v -9.324 l 8.749,9.324 h 6.195 L 5.588,13.539 15.487,0 H 9.324 L 2.235,10.058 0,7.759 Z" style="fill:#231f20;fill-opacity:1;fill-rule:nonzero;stroke:none" transform="matrix(1.3333333,0,0,-1.3333333,545.47707,294.3056)" clip-path="url(#clipPath14)" id="path55"/>
      <path d="m 0,0 c 0.032,-1.278 0.671,-3.704 4.853,-3.704 2.268,0 4.79,0.543 4.79,2.969 0,1.788 -1.725,2.267 -4.151,2.842 L 3.033,2.682 c -3.704,0.862 -7.28,1.693 -7.28,6.737 0,2.555 1.373,7.057 8.813,7.057 7.025,0 8.909,-4.597 8.941,-7.408 H 8.908 c -0.127,1.022 -0.51,3.449 -4.693,3.449 -1.82,0 -3.991,-0.671 -3.991,-2.746 0,-1.789 1.468,-2.172 2.426,-2.396 L 8.238,6.003 c 3.129,-0.766 6.003,-2.044 6.003,-6.163 0,-6.897 -7.025,-7.504 -9.036,-7.504 -8.366,0 -9.803,4.822 -9.803,7.664 z" style="fill:#231f20;fill-opacity:1;fill-rule:nonzero;stroke:none" transform="matrix(1.3333333,0,0,-1.3333333,574.34253,284.89613)" clip-path="url(#clipPath15)" id="path56"/>
      <path d="m 0,0 v 14.174 h 3.326 v -5.67 h 0.038 l 2.457,5.67 H 9.223 L 6.199,7.918 9.412,0 H 5.896 L 4.063,4.932 3.326,3.496 V 0 Z" style="fill:#231f20;fill-opacity:1;fill-rule:nonzero;stroke:none" transform="matrix(1.3333333,0,0,-1.3333333,512.20307,322.50107)" clip-path="url(#clipPath16)" id="path57"/>
      <path d="M 0,0 3.099,14.174 H 7.106 L 10.186,0 H 6.822 L 6.35,2.759 H 3.742 L 3.344,0 Z M 5.102,11.603 H 5.065 L 4.101,5.253 h 1.927 z" style="fill:#231f20;fill-opacity:1;fill-rule:nonzero;stroke:none" transform="matrix(1.3333333,0,0,-1.3333333,525.5836,322.50107)" clip-path="url(#clipPath17)" id="path58"/>
      <path d="M 0,0 H 8.617 V -2.835 H 5.934 V -14.174 H 2.608 V -2.835 H 0 Z" style="fill:#231f20;fill-opacity:1;fill-rule:nonzero;stroke:none" transform="matrix(1.3333333,0,0,-1.3333333,538.78707,303.60307)" clip-path="url(#clipPath18)" id="path59"/>
      <path d="m 0,0 c 0,-3.194 -1.115,-4.857 -4.479,-4.857 -3.364,0 -4.535,1.663 -4.535,4.857 v 5.764 c 0,2.721 1.624,4.233 4.535,4.233 C -1.569,9.997 0,8.485 0,5.764 Z m -3.327,5.537 c 0,0.869 -0.075,1.909 -1.171,1.909 -1.058,0 -1.191,-1.04 -1.191,-1.909 v -5.821 c 0,-0.812 0.133,-2.022 1.21,-2.022 1.077,0 1.152,1.21 1.152,2.022 z" style="fill:#231f20;fill-opacity:1;fill-rule:nonzero;stroke:none" transform="matrix(1.3333333,0,0,-1.3333333,564.11093,316.4788)" clip-path="url(#clipPath19)" id="path60"/>
      <path d="M 0,0 H 0.038 L 1.077,9.94 H 4.233 L 1.871,-4.233 H -1.871 L -2.892,5.745 H -2.93 L -4.026,-4.233 H -7.711 L -10.092,9.94 h 3.213 l 1.002,-9.959 0.037,0.038 1.342,9.921 h 3.213 z" style="fill:#231f20;fill-opacity:1;fill-rule:nonzero;stroke:none" transform="matrix(1.3333333,0,0,-1.3333333,579.05307,316.8568)" clip-path="url(#clipPath20)" id="path61"/>
      <path d="m 439.864,367.574 h 3.326 V 353.4 h -3.326 z" style="fill:#231f20;fill-opacity:1;fill-rule:nonzero;stroke:none" transform="matrix(1.3333333,0,0,-1.3333333,0,793.70133)" clip-path="url(#clipPath21)" id="path62"/>
      <path d="M 0,0 V 0.907 C 0,2.117 -0.435,2.74 -1.058,2.74 -2.097,2.759 -2.343,2.192 -2.343,1.266 l -0.019,-7.011 c 0,-0.794 0.321,-1.266 1.191,-1.266 1.134,0 1.228,1.171 1.228,2.041 v 1.285 h 3.326 v -1.739 c 0,-2.438 -1.399,-4.139 -4.8,-4.139 -3.061,0 -4.252,1.626 -4.252,4.517 v 5.821 c 0,3.08 1.417,4.517 4.46,4.517 2.835,0 4.535,-1.21 4.535,-4.101 L 3.326,0 Z" style="fill:#231f20;fill-opacity:1;fill-rule:nonzero;stroke:none" transform="matrix(1.3333333,0,0,-1.3333333,600.9996,310.2048)" clip-path="url(#clipPath22)" id="path63"/>
      <path d="M 0,0 V 14.174 H 7.616 V 11.339 H 3.326 V 8.731 H 7.484 V 5.896 H 3.326 V 2.834 H 7.843 V 0 Z" style="fill:#231f20;fill-opacity:1;fill-rule:nonzero;stroke:none" transform="matrix(1.3333333,0,0,-1.3333333,607.87867,322.50107)" clip-path="url(#clipPath23)" id="path64"/>
      <path d="M 0,0 H -5.338 V 3.648 C -2.512,3.615 0.976,4.409 1.604,7.231 H 5.547 V -16.047 H 0 Z" style="fill:#ffffff;fill-opacity:1;fill-rule:nonzero;stroke:none" transform="matrix(1.3333333,0,0,-1.3333333,523.52973,515.51853)" clip-path="url(#clipPath24)" id="path65"/>
      <path d="m 0,0 c 0.035,-0.603 0.105,-1.174 0.383,-1.554 0.28,-0.381 0.768,-0.634 1.535,-0.634 2.234,0 1.919,2.727 1.919,4.091 V 3.489 C 2.442,2.537 1.605,2.315 -0.14,2.315 c -4.744,0 -5.791,3.552 -5.791,7.136 0,5.36 1.57,8.753 8.024,8.753 5.86,0 7.57,-3.615 7.57,-8.373 V 3.552 c 0,-4.948 -0.697,-9.705 -7.256,-9.705 -4.954,0 -7.779,1.364 -7.954,6.153 z m -0.105,10.022 c 0,-1.459 -0.174,-3.742 2.059,-3.742 2.127,0 1.918,2.251 1.918,3.583 0,1.491 0.419,4.377 -1.988,4.377 -2.163,0 -1.989,-2.95 -1.989,-4.218" style="fill:#ffffff;fill-opacity:1;fill-rule:nonzero;stroke:none" transform="matrix(1.3333333,0,0,-1.3333333,547.9028,529.47253)" clip-path="url(#clipPath25)" id="path66"/>
      <path d="m 0,0 c 0,0.634 -0.105,1.174 -0.384,1.554 -0.28,0.412 -0.733,0.634 -1.535,0.634 -2.233,0 -1.919,-2.727 -1.919,-4.091 v -1.586 c 1.395,0.952 2.233,1.174 3.977,1.174 4.745,0 5.791,-3.552 5.791,-7.136 0,-5.359 -1.57,-8.753 -8.024,-8.753 -5.86,0 -7.57,3.615 -7.57,8.373 v 6.279 c 0,4.947 0.699,9.705 7.257,9.705 4.953,0 7.779,-1.364 7.953,-6.153 z m 0.104,-11.132 v 2.379 c 0,1.237 -0.418,2.473 -2.058,2.473 -1.535,0 -1.849,-1.204 -1.884,-2.41 v -3.488 c 0,-1.11 0.593,-2.062 1.954,-2.062 1.639,0 1.988,1.713 1.988,3.108" style="fill:#ffffff;fill-opacity:1;fill-rule:nonzero;stroke:none" transform="matrix(1.3333333,0,0,-1.3333333,576.928,513.40413)" clip-path="url(#clipPath26)" id="path67"/>
      <path d="m 0,0 8.163,14.303 h 6.105 V -0.475 h 2.303 V -4.439 H 14.268 V -8.975 H 8.721 v 4.536 H 0 Z M 8.721,-0.475 V 7.231 H 8.652 L 4.396,-0.475 Z" style="fill:#ffffff;fill-opacity:1;fill-rule:nonzero;stroke:none" transform="matrix(1.3333333,0,0,-1.3333333,587.25307,524.94813)" clip-path="url(#clipPath27)" id="path68"/>
      <path d="M 0,0 V -17.758 H 9.884 V -37.09 c 0,-3.448 -0.384,-6.808 -1.109,-10.047 h -96.4 c -0.726,3.239 -1.109,6.599 -1.109,10.047 v 74.832 c 0,26.213 22.076,47.463 49.309,47.463 15.533,0 29.386,-6.917 38.425,-17.722 13.439,-9.31 32.398,-24.634 45.096,-37.992 v 29.945 c -36.71,26.366 -61.854,41.897 -86.311,41.897 -44.257,0 -80.134,-45.247 -80.134,-101.061 0,-55.815 35.877,-101.062 80.134,-101.062 56.805,0 77.314,35.26 79.967,83.032 H 55.826 V 0 Z m -39.425,-84.553 c -12.943,0 -24.718,4.802 -33.515,12.653 h 67.029 c -8.796,-7.851 -20.572,-12.653 -33.514,-12.653 m 36.932,16.02 h -73.865 c -0.724,0.787 -1.416,1.601 -2.085,2.432 2.177,0.881 4.092,2.062 6.546,2.062 3.897,0 6.825,-2.935 10.824,-2.935 3.998,0 6.927,2.935 10.824,2.935 3.897,0 6.825,-2.935 10.824,-2.935 3.998,0 6.926,2.935 10.823,2.935 3.898,0 6.826,-2.935 10.825,-2.935 3.998,0 6.927,2.935 10.824,2.935 2.454,0 4.368,-1.181 6.545,-2.062 -0.668,-0.832 -1.361,-1.645 -2.085,-2.432 m 3.354,4.076 c -2.673,0.943 -4.814,2.402 -7.814,2.402 -3.999,0 -6.927,-2.935 -10.824,-2.935 -3.897,0 -6.826,2.935 -10.825,2.935 -3.998,0 -6.927,-2.935 -10.823,-2.935 -3.898,0 -6.825,2.935 -10.824,2.935 -3.999,0 -6.927,-2.935 -10.824,-2.935 -3.897,0 -6.825,2.935 -10.824,2.935 -3,0 -5.142,-1.458 -7.814,-2.402 -0.61,0.832 -1.183,1.69 -1.739,2.56 3.404,0.398 6.072,2.854 9.553,2.854 3.897,0 6.825,-2.935 10.824,-2.935 3.998,0 6.927,2.935 10.824,2.935 3.897,0 6.825,-2.935 10.824,-2.935 3.999,0 6.926,2.935 10.823,2.935 3.898,0 6.826,-2.935 10.825,-2.935 3.998,0 6.927,2.935 10.824,2.935 3.48,0 6.149,-2.456 9.552,-2.854 -0.555,-0.87 -1.128,-1.728 -1.738,-2.56 m 2.893,4.468 c -3.85,0.05 -6.744,2.93 -10.707,2.93 -3.999,0 -6.927,-2.935 -10.824,-2.935 -3.897,0 -6.826,2.935 -10.825,2.935 -3.998,0 -6.926,-2.935 -10.823,-2.935 -3.898,0 -6.825,2.935 -10.824,2.935 -3.999,0 -6.927,-2.935 -10.824,-2.935 -3.897,0 -6.825,2.935 -10.824,2.935 -3.964,0 -6.857,-2.88 -10.707,-2.93 -0.585,1.02 -1.143,2.056 -1.65,3.119 2.642,-0.375 4.991,0.341 7.373,1.453 3.657,1.706 6.321,1.702 9.977,-0.004 4.193,-1.96 7.478,-1.954 11.67,0.004 3.659,1.705 6.321,1.702 9.978,-0.004 4.192,-1.958 7.478,-1.956 11.668,0.003 3.66,1.706 6.322,1.703 9.98,-0.003 4.193,-1.959 7.478,-1.955 11.67,0.003 3.658,1.706 6.321,1.704 9.977,-0.003 2.379,-1.111 4.727,-1.823 7.364,-1.449 -0.507,-1.063 -1.065,-2.099 -1.649,-3.119 m 2.648,5.367 c -5.002,-1.498 -8.527,2.559 -13.355,2.559 -3.999,0 -6.927,-2.934 -10.824,-2.934 -3.897,0 -6.825,2.934 -10.825,2.934 -3.998,0 -6.926,-2.934 -10.823,-2.934 -3.898,0 -6.826,2.934 -10.824,2.934 -3.999,0 -6.927,-2.934 -10.824,-2.934 -3.898,0 -6.825,2.934 -10.824,2.934 -4.83,0 -8.352,-4.056 -13.355,-2.559 -0.555,1.344 -1.053,2.717 -1.482,4.118 H 7.883 c -0.429,-1.401 -0.926,-2.774 -1.481,-4.118" style="fill:#231f20;fill-opacity:1;fill-rule:nonzero;stroke:none" transform="matrix(1.3333333,0,0,-1.3333333,617.5468,361.92653)" clip-path="url(#clipPath28)" id="path69"/>
      <path d="m 0,0 -1.964,17.968 h -3.317 l -0.542,4.581 h -4.605 l -0.677,-4.463 h -3.251 l -2.031,-18.145 z" style="fill:#231f20;fill-opacity:1;fill-rule:nonzero;stroke:none" transform="matrix(1.3333333,0,0,-1.3333333,527.9668,427.4812)" clip-path="url(#clipPath29)" id="path70"/>
      <path d="m 0,0 -4.893,-22.147 8.885,-1.931 4.764,21.889 z" style="fill:#231f20;fill-opacity:1;fill-rule:nonzero;stroke:none" transform="matrix(1.3333333,0,0,-1.3333333,518.42347,360.68253)" clip-path="url(#clipPath30)" id="path71"/>
      <path d="M 0,0 C -4.853,0 -8.66,-3.909 -9.005,-8.857 H 9.005 C 8.661,-3.909 4.854,0 0,0" style="fill:#231f20;fill-opacity:1;fill-rule:nonzero;stroke:none" transform="matrix(1.3333333,0,0,-1.3333333,560.99027,356.96173)" clip-path="url(#clipPath31)" id="path72"/>
      <path d="M 0,0 -2.575,-10.687 27.481,-17.217 25.292,-46.374 50.4,-46.76 47.182,-4.083 H 28.511 l -0.386,-1.932 z m 37.764,-10.898 c 1.754,0 3.176,-1.422 3.176,-3.176 0,-1.754 -1.422,-3.176 -3.176,-3.176 -1.754,0 -3.176,1.422 -3.176,3.176 0,1.754 1.422,3.176 3.176,3.176" style="fill:#231f20;fill-opacity:1;fill-rule:nonzero;stroke:none" transform="matrix(1.3333333,0,0,-1.3333333,510.38747,366.5868)" clip-path="url(#clipPath32)" id="path73"/>
      <path d="m 365.911,277.551 h 118.703 v -4.139 H 365.911 Z" style="fill:#231f20;fill-opacity:1;fill-rule:nonzero;stroke:none" transform="matrix(1.3333333,0,0,-1.3333333,0,793.70133)" clip-path="url(#clipPath33)" id="path74"/>
      <path d="m 0,0 9.146,-1.939 -2.13,-10.923 -9.146,1.939 z" style="fill:#231f20;fill-opacity:1;fill-rule:nonzero;stroke:none" transform="matrix(1.3333333,0,0,-1.3333333,573.85573,379.9444)" clip-path="url(#clipPath34)" id="path75"/>
      <path d="m 0,0 c 3.445,0 6.565,-1.397 8.823,-3.655 2.258,-2.258 3.655,-5.378 3.655,-8.823 0,-3.445 -1.397,-6.565 -3.655,-8.823 -2.258,-2.258 -5.378,-3.655 -8.823,-3.655 -3.445,0 -6.565,1.397 -8.823,3.655 -2.258,2.258 -3.655,5.378 -3.655,8.823 0,3.445 1.397,6.565 3.655,8.823 C -6.565,-1.397 -3.445,0 0,0 M 5.935,-6.543 C 4.416,-5.024 2.317,-4.085 0,-4.085 c -2.317,0 -4.416,-0.94 -5.935,-2.458 -1.519,-1.519 -2.459,-3.618 -2.459,-5.935 0,-2.317 0.94,-4.416 2.459,-5.935 1.519,-1.519 3.618,-2.458 5.935,-2.458 2.317,0 4.416,0.939 5.935,2.458 1.519,1.519 2.458,3.618 2.458,5.935 0,2.317 -0.939,4.416 -2.458,5.935" style="fill:#231f20;fill-opacity:1;fill-rule:nonzero;stroke:none" transform="matrix(1.3333333,0,0,-1.3333333,598.1688,373.53853)" clip-path="url(#clipPath35)" id="path76"/>
      <path d="M 0,0 H 5.101 V -1.244 -3.431 -4.675 H 0 v 1.244 h -10.194 v 2.187 H 0 Z" style="fill:#231f20;fill-opacity:1;fill-rule:nonzero;stroke:none" transform="matrix(1.3333333,0,0,-1.3333333,611.75933,387.7576)" clip-path="url(#clipPath36)" id="path77"/>
      <path d="M 0,0 V -5.101 H -1.244 -3.432 -4.675 V 0 h 1.243 v 10.193 h 2.188 L -1.244,0 Z" style="fill:#231f20;fill-opacity:1;fill-rule:nonzero;stroke:none" transform="matrix(1.3333333,0,0,-1.3333333,601.28533,404.4652)" clip-path="url(#clipPath37)" id="path78"/>
      <path d="m 0,0 -3.607,-3.607 -0.88,0.88 -1.546,1.547 -0.88,0.879 3.607,3.607 0.879,-0.88 L 4.781,9.634 6.328,8.087 -0.879,0.88 Z" style="fill:#231f20;fill-opacity:1;fill-rule:nonzero;stroke:none" transform="matrix(1.3333333,0,0,-1.3333333,590.762,402.68867)" clip-path="url(#clipPath38)" id="path79"/>
      <path d="m 0,0 -3.607,3.607 0.88,0.879 1.546,1.547 0.88,0.88 L 3.306,3.306 2.426,2.426 9.634,-4.781 8.087,-6.329 0.879,0.879 Z" style="fill:#231f20;fill-opacity:1;fill-rule:nonzero;stroke:none" transform="matrix(1.3333333,0,0,-1.3333333,586.35413,383.4676)" clip-path="url(#clipPath39)" id="path80"/>
      <path d="M 0,0 H -5.101 V -1.244 -3.431 -4.675 H 0 v 1.244 h 10.193 v 2.187 L 0,-1.244 Z" style="fill:#231f20;fill-opacity:1;fill-rule:nonzero;stroke:none" transform="matrix(1.3333333,0,0,-1.3333333,584.57707,387.7576)" clip-path="url(#clipPath40)" id="path81"/>
      <path d="M 0,0 V 5.101 H -1.244 -3.432 -4.675 V 0 h 1.243 v -10.193 h 2.188 V 0 Z" style="fill:#231f20;fill-opacity:1;fill-rule:nonzero;stroke:none" transform="matrix(1.3333333,0,0,-1.3333333,601.28533,377.28293)" clip-path="url(#clipPath41)" id="path82"/>
      <path d="M 0,0 3.607,3.607 2.728,4.486 1.18,6.033 0.301,6.913 -3.306,3.306 l 0.879,-0.88 -7.207,-7.207 1.547,-1.548 7.208,7.208 z" style="fill:#231f20;fill-opacity:1;fill-rule:nonzero;stroke:none" transform="matrix(1.3333333,0,0,-1.3333333,609.98253,383.4676)" clip-path="url(#clipPath42)" id="path83"/>
      <path d="m 0,0 3.607,-3.607 0.879,0.88 1.547,1.547 0.88,0.879 L 3.306,3.306 2.427,2.426 -4.781,9.634 -6.328,8.087 0.879,0.88 Z" style="fill:#231f20;fill-opacity:1;fill-rule:nonzero;stroke:none" transform="matrix(1.3333333,0,0,-1.3333333,605.57467,402.68867)" clip-path="url(#clipPath43)" id="path84"/>
      <path d="m 28.324553,-14.014936 v -4.992187 H 15.410491 v 5.613281 h 6.28125 v 1.253906 c 0,1.769531 -0.421875,3.3046876 -1.535157,4.5585938 -1.054687,1.1953125 -2.683593,1.921875 -4.746093,1.921875 -1.828125,0 -3.269532,-0.6796875 -4.277344,-1.78125 -1.2421876,-1.4414062 -1.6289064,-3.1171878 -1.6289064,-9.6445308 0,-6.527344 0.3867188,-8.15625 1.6289064,-9.597657 1.007812,-1.113281 2.449219,-1.828125 4.277344,-1.828125 3.410156,0 5.378906,1.722657 6.140625,4.992188 h 6.726562 c -0.914062,-5.765625 -4.898437,-10.945313 -12.867187,-10.945313 -3.890625,0 -6.7734379,1.300782 -9.1171879,3.597657 -3.4101562,3.410156 -3.4570312,7.253906 -3.4570312,13.78125 0,6.527343 0.046875,10.3710933 3.4570312,13.7695308 2.34375,2.3085938 5.2265629,3.60937501 9.1171879,3.60937501 3.644531,0 6.808593,-0.9140625 9.644531,-3.89062501 2.496094,-2.5898437 3.269531,-5.4726562 3.269531,-10.4179688 z M 62.921233,6.890625e-4 50.780608,-20.589155 62.112639,-34.171186 H 53.991545 L 41.94467,-19.300092 V -34.171186 H 35.276702 V 6.890625e-4 H 41.94467 V -10.276655 l 4.417969,-5.273437 8.789063,15.5507810625 z M 90.929045,-10.077436 c 0,-3.070312 -0.820312,-5.519531 -2.636718,-7.207031 -1.488282,-1.429688 -3.410157,-2.25 -6.527344,-2.683594 l -4.078125,-0.621094 c -1.441406,-0.199218 -2.449219,-0.679687 -3.128906,-1.300781 -0.714844,-0.667969 -0.960938,-1.535156 -0.960938,-2.449219 0,-2.34375 1.6875,-4.3125 5.238281,-4.3125 2.25,0 4.898438,0.28125 7.007813,2.34375 l 4.21875,-4.171875 c -2.917969,-2.835937 -6.328125,-3.984375 -11.039063,-3.984375 -7.382812,0 -11.894531,4.277344 -11.894531,10.371094 0,2.882813 0.808594,5.132813 2.4375,6.714844 1.535156,1.488281 3.609375,2.402344 6.632813,2.835937 l 4.078125,0.621094 c 1.722656,0.246094 2.402343,0.527344 3.070312,1.148438 0.714844,0.726562 1.054688,1.6875 1.054688,2.8359371 0,2.7421875 -2.109375,4.2773437 -6.09375,4.2773437 -3.117188,0 -6.046875,-0.7265625 -8.214844,-2.8828125 l -4.3125,4.3242188 c 3.363281,3.39843746 7.289062,4.51171871 12.480469,4.51171871 7.195312,0 12.667968,-3.75000001 12.667968,-10.37109381 z M 136.9603,6.890625e-4 124.81967,-20.589155 136.1517,-34.171186 h -8.12109 l -12.04688,14.871094 v -14.871094 h -6.66797 V 6.890625e-4 h 6.66797 V -10.276655 l 4.41797,-5.273437 8.78906,15.5507810625 z m 33.72949,0 L 158.20932,-34.171186 h -5.23828 L 140.53744,6.890625e-4 h 6.96094 L 149.5726,-6.0461859 h 12.14062 l 2.01563,6.0468749625 z M 159.93197,-11.659467 h -8.49609 l 4.32422,-12.433594 z m 34.65235,-16.558594 v -5.953125 h -24.52735 v 5.953125 h 8.92969 V 6.890625e-4 h 6.66797 V -28.218061 Z m 29.92383,11.132813 c 0,-6.527344 -0.0937,-10.371094 -3.50391,-13.78125 -2.29687,-2.296875 -5.17969,-3.597657 -9.11719,-3.597657 -3.9375,0 -6.86718,1.300782 -9.16406,3.597657 -3.41016,3.410156 -3.45703,7.253906 -3.45703,13.78125 0,6.527343 0.0469,10.3710933 3.45703,13.7695308 2.29688,2.3085938 5.22656,3.60937501 9.16406,3.60937501 3.9375,0 6.82032,-1.30078121 9.11719,-3.60937501 3.41016,-3.3984375 3.50391,-7.2421878 3.50391,-13.7695308 z m -6.66797,0 c 0,6.527343 -0.4336,8.1093746 -1.6875,9.5507808 -0.94922,1.1015625 -2.4375,1.875 -4.26563,1.875 -1.82812,0 -3.3164,-0.7734375 -4.32422,-1.875 -1.24218,-1.4414062 -1.6289,-3.0234378 -1.6289,-9.5507808 0,-6.527344 0.38672,-8.15625 1.6289,-9.597657 1.00782,-1.113281 2.4961,-1.828125 4.32422,-1.828125 1.82813,0 3.31641,0.714844 4.26563,1.828125 1.2539,1.441407 1.6875,3.070313 1.6875,9.597657 z m 52.08398,-17.085938 h -6.96094 l -5.33203,21.550781 -6.23437,-21.550781 h -4.99219 l -6.24609,21.550781 -5.28516,-21.550781 h -6.94922 l 9.11719,34.1718750625 h 5.56641 L 248.90072,-20.72978 255.18197,6.890625e-4 h 5.56641 z M 281.9769,6.890625e-4 V -34.171186 h -6.66797 V 6.890625e-4 Z M 314.18002,-10.51103 h -6.77344 c -0.66796,2.7890628 -2.4375,4.8515628 -5.7539,4.8515628 -1.82813,0 -3.31641,-0.6796875 -4.27735,-1.78125 -1.24218,-1.4414062 -1.67578,-3.1171878 -1.67578,-9.6445308 0,-6.527344 0.4336,-8.214844 1.67578,-9.644532 0.96094,-1.113281 2.44922,-1.78125 4.27735,-1.78125 3.3164,0 5.03906,2.0625 5.70703,4.851563 h 6.82031 c -1.2539,-7.160156 -6.14062,-10.804688 -12.52734,-10.804688 -3.9375,0 -6.82031,1.300782 -9.16406,3.597657 -3.41016,3.410156 -3.45704,7.253906 -3.45704,13.78125 0,6.527343 0.0469,10.3710933 3.45704,13.7695308 2.34375,2.3085938 5.22656,3.60937501 9.16406,3.60937501 6.33984,0 11.27344,-3.65625001 12.52734,-10.80468781 z M 342.73862,6.890625e-4 V -5.9524359 H 326.89487 V -14.26103 h 13.48828 v -5.941406 h -13.48828 v -8.015625 h 15.84375 v -5.953125 H 320.2269 V 6.890625e-4 Z m 0,0" style="fill:#231f20;fill-opacity:1;fill-rule:nonzero;stroke:none" transform="matrix(1.3333333,0,0,1.3333333,331.06987,680.5108)" clip-path="url(#clipPath44)" id="path85"/>
    </g>
  </g>
</svg>