<svg enable-background="new 0 0 595.28 841.89" height="320.650747" viewBox="0 0 426.00959 437.68935" width="311.865795" xmlns="http://www.w3.org/2000/svg"><g clip-rule="evenodd" fill-rule="evenodd"><path d="m187.52562 437.65919h-98.312996s-15.964 1.362-13.238-14.212 22.193-152.435 22.193-152.435h-45.555s-21.026 1.168-18.689-13.628c2.336-14.796 7.592-51.2 7.592-51.2s.389-2.336 4.088-2.336h61.712996l6.425-43.219h-55.678996s-9.54-.584-8.76-6.619c.779-6.035 4.477-31.733 4.477-31.733h-33.874s-23.361 2.337-19.46799996-24.919005c3.89299996-27.255 9.73399996-68.333 9.73399996-68.333s3.894-29.00699998 34.069-29.00699998h125.762996s11.875-.584 17.521 4.86699998h24.53s1.558-4.67199998 11.681-4.67199998h27.256s8.565-.194 11.681 4.86799998h18.884l144.453 114.861005-39.91 34.458h-138.613l-38.352 267.1s-.779 16.159-21.609 16.159z"/><g fill="#009640"><path d="m168.83662 434.93419h-80.402996s-12.07.195-10.123-11.486 22.582996-152.629 22.582996-152.629l91.694-.001z"/><path d="m111.40562 195.08819h51.396l-4.867 31.927s-1.168 3.31-4.088 3.31-45.166 0-45.166 0-3.31 0-2.336-4.478c.973-4.478 5.061-30.759 5.061-30.759z"/><path d="m206.79862 175.81519h-62.493l1.947-14.99s1.167-6.035 7.397-6.035 56.068.194 56.068.194z"/><path d="m56.505624 122.27719h73.977996s-12.265 5.841-14.017 18.884c-1.751 13.043-2.336 16.938-2.336 16.938h-56.067996s-7.398.779-6.229-6.619c1.168-7.398 4.672-29.202 4.672-29.203z"/><path d="m117.44062 103.00519h-34.652996s-3.31-.194-2.531-5.062005c.778-4.867 3.504-22.389 3.504-22.389h35.041996s2.142-.584 1.752 3.504c-.388 4.089-3.114 23.947005-3.114 23.947005z"/><path d="m197.06462 119.55219h-28.618s6.619-3.31 7.982-8.955c1.363-5.646 7.592-48.670005 7.592-48.670005s.584-2.142-2.92-2.142-95.198996 0-95.198996 0l5.451-36.6s.583-2.92 4.283-2.92h30.953996s2.142-.584 1.947 2.336-3.31 22.583-3.31 22.583h61.519l4.478-31.149s.389-3.504-.195-5.646h19.857l-15.575 101.818005c.002.001-1.75 6.036 1.754 9.345z"/><path d="m304.13962 119.35719h-58.015s1.168-.973 1.946-7.787c.779-6.814 4.673-33.096005 4.673-33.096005z"/><path d="m257.60962 45.574185 5.646-37.379h18.689l139.976 111.162005h-24.725l-14.99-11.68h-28.618l-54.9-43.998005s-2.141-1.167.195-3.115c2.337-1.947 7.203-6.813 7.203-6.813s3.115-2.726-.39-5.646c-3.504-2.92-23.556-18.689-23.556-18.689s-3.699-3.504-7.203 0c-3.504 3.503-17.327 16.158-17.327 16.158z"/></g><path d="m184.41062 42.459185h-56.068l3.31-22.583s1.168-2.531-3.31-2.531-33.874996 0-33.874996 0-5.451-.584-6.23 6.035c-.778 6.619-5.256 36.6-5.256 36.6h-50.811s-3.115-.778-3.504 1.752c-.39 2.531-2.142 12.459-2.142 12.459s-.584 1.752 2.531 1.752 51.59.194 51.59.194l-3.31 24.140005s-.974 5.841 5.451 5.841c6.424 0 35.041996-.195 35.041996-.195s1.947.195 2.336-2.336 3.31-28.618005 3.31-28.618005.584-2.531-2.92-2.531-90.330996 0-90.330996 0l1.557-9.15h148.930996l-5.646 42.246005s-1.363 13.238-18.105 13.238c-16.743 0-140.169996 0-140.169996 0s-16.15899996.39-13.822-17.911c2.336-18.300005 10.707-72.811005 10.707-72.811005s3.699-24.724 28.618-24.724h128.877996s18.883-.974 16.937 12.07c-1.946 13.046-3.698 27.063-3.698 27.063z" fill="#ffed00"/><path d="m392.71862 119.35719h-84.102l-54.899-44.191005s-2.531-2.337-3.311 1.752c-.778 4.088-5.84 37.184005-5.84 37.184005s.778 5.451-5.841 5.451c-6.618 0-34.653 0-34.653 0s-6.814-.584-5.646-8.955c1.168-8.372 15.185-101.624005 15.185-101.624005s.389-5.84 7.787-5.84c7.397 0 30.37.195 30.37.195s9.15 0 8.371 5.256c-.778 5.256-5.84 40.493-5.84 40.493s-.195 4.478 2.725 1.947 20.053-19.273 20.053-19.273 1.362-1.752 3.894.195c2.531 1.946 21.999 17.326 21.999 17.326s2.142.974-.195 3.504c-2.336 2.531-7.981 7.787-7.981 7.787s-2.531 1.363 0 3.31c2.53 1.947 58.209 46.528005 58.209 46.528005h28.035z" fill="#ffed00"/><path d="m385.12662 151.86919h-230.502s-9.734-.195-10.902 8.371-2.141 15.575-2.141 15.575-1.168 2.725 1.947 2.725h76.703c.001 0 12.46-.389 11.098 12.265-1.363 12.654-7.982 61.518-7.982 61.518s-1.558 15.575-15.379 15.575-157.106996 0-157.106996 0-15.575 1.167-14.017-10.124 7.788-50.421 7.788-50.421h61.323996l-2.531 19.857s-1.752 6.035 6.229 6.035h45.555s4.672.39 5.841-7.203c1.168-7.592 4.867-30.954 4.867-30.954s.973-3.115-3.31-3.115-50.422 0-50.422 0l7.009-48.475s2.141-20.636 23.75-20.636h275.473z" fill="#ffed00"/></g></svg>