<svg height="293.776016" viewBox="0 0 460.02898 396.567" width="340.395384" xmlns="http://www.w3.org/2000/svg" xmlns:xlink="http://www.w3.org/1999/xlink"><clipPath id="a"><path d="m0 504.567h566.929v-504.567h-566.929z" transform="matrix(1 0 0 -1 0 504.567)"/></clipPath><g clip-path="url(#a)" transform="translate(-54.011364 -54.288579)"><path d="m0 0c10.207 3.527 24.203 1.372 28.196-10.191.831-2.406 1.051-4.86.739-7.27 15.034-5.397 32.89-4.637 48.15-.685 11.218 2.901 21.797 8.113 32.845 11.673 13.702 4.417 27.968 7.365 42.405 7.47 23.725.174 44.991-7.899 66.424-16.828 17.232-7.177 33.468-13.419 52.435-13.722 15.243.02 30.359 2.701 45.629 2.701 23.277 0 45.546-4.491 68.08-9.861-1.007-9.054-2.105-18.088-2.268-27.203-.297-16.352 2.911-32.356 9.536-47.265 7.257-16.339 20.03-29.298 29.244-44.465 4.075-6.709 7.625-13.791 10.628-21.165 7.413-18.195 10.5-35.863 10.569-55.632.056-16.033-2.565-31.546-4.987-47.303-14.335 13.095-26.941 25.18-46.659 30.181-23.733 6.02-43.771-2.262-66.766-5.668-34.846-5.162-70.982-.833-103.71 12.125-10.985 4.344-21.389 10.252-32.647 13.878-10.292 3.314-20.883 3.713-31.435 1.431-21.003-4.548-35.567-18.44-45.771-36.49l4.678-13.54c9.194-5.508 13.018-16.865 9.24-26.745l6.037-17.473c9.178-5.507 13.002-16.851 9.234-26.724l15.86-45.905h-38.297l-7.124 20.62c-9.22 5.509-13.053 16.9-9.256 26.791l-6.02 17.426c-9.208 5.51-13.039 16.888-9.25 26.773l-6.028 17.445c-9.191 5.508-13.022 16.87-9.242 26.753l-71.361 206.539c-3.834 2.538-6.894 6.299-8.502 10.951-.966 2.795-1.318 5.661-1.128 8.447-2.47 1.921-4.358 4.452-5.422 7.532-3.981 11.518 5.791 21.891 15.944 25.399" fill="#fff" transform="matrix(1 0 0 -1 70.9502 56.032777)"/><path d="m0 0c0-17.598-2.666-34.586-7.614-50.593l-66.26 191.781c44.599-31.158 73.874-82.86 73.874-141.188m329.965-11.556c-3.375 14.464-9 28.371-16.76 41.143-4.189 6.895-8.579 12.781-12.889 18.561-6.16 8.259-12.141 16.283-16.889 26.967-4.386 9.872-7.409 20.267-9.042 30.866-2.117 13.752-1.331 26.641.185 40.292-19.402 4.623-38.222 7.76-58.212 7.76-15.298 0-30.413-2.702-45.773-2.702-21.856.351-38.015 7.038-55.758 14.429-13.338 5.558-26.706 11.129-41.75 14.114-14.503 2.878-28.128 2.482-41.498-.012-13.103-2.446-25.683-6.834-38.508-12.081-12.977-5.307-26.679-8.039-40.518-8.1-12.431-.053-25.096 1.344-35.588 8.619 2.23 2.666 3.155 5.758 2.203 8.512-1.758 5.086-9.261 7.138-16.702 4.568-7.442-2.571-12.078-8.817-10.321-13.903 1.013-2.926 3.925-4.846 7.633-5.461-1.818-3.071-2.333-6.895-1.081-10.519 1.253-3.628 4.019-6.315 7.347-7.61l73.745-213.443c-2.112-3.159-2.838-7.204-1.628-11.099 1.297-4.175 4.528-7.236 8.402-8.505l8.498-24.597c-2.117-3.161-2.847-7.21-1.635-11.11 1.298-4.178 4.534-7.238 8.413-8.507l8.493-24.58c-2.123-3.162-2.853-7.22-1.641-11.125 1.3-4.182 4.537-7.243 8.423-8.507l6.254-18.099h19.148l-12.944 37.463c2.108 3.157 2.833 7.2 1.623 11.09-1.296 4.171-4.523 7.234-8.393 8.503l-8.501 24.608c2.111 3.156 2.839 7.206 1.629 11.1-1.298 4.176-4.526 7.233-8.402 8.502l-7.256 20.999c8.846 16.993 21.049 31.279 38.865 39.443 9.286 4.254 19.654 6.63 30.612 6.63 14.93 0 26.47-5.283 38.878-10.962 4.942-2.26 10.005-4.578 14.722-6.445 11.234-4.449 23.054-7.901 35.341-10.238 11.956-2.274 24.219-3.465 36.672-3.465 18.244 0 36.029 3.143 53.689 7.447 29.843 7.284 58.886.137 81.732-20.731 2.947 19.176 3.484 38.725-.818 60.185" fill="#d11533" transform="matrix(1 0 0 -1 171.417 245.97028)"/><path d="m0 0c14.776-4.468 28.706-11.396 43.301-16.419 17.853-6.184 34.836-9.73 56.216-7.276 23.537 2.669 45.241 6.634 68.977 3.719 1.994-8.341 4.807-16.532 8.428-24.316-24.19 2.414-45.729-2.549-69.586-5.536-22.343-2.819-40.593 1.178-60.481 8.131-12.36 4.302-24.497 9.902-37.034 13.904-.08.026-.164.051-.245.077zm-.999-24.819c-17.014 4.038-34.06 4.998-54.529 2.708-15.833-1.772-32.628-5.715-48.34-12.34-13.975 29.198-35.377 54.21-61.736 72.565 21.478-3.474 42.973-1.204 63.189 7.067 22.979 9.396 48.146 16.502 73.054 12.089zm-17.966 79.712c30.59-8.376 56.272-26.678 90.495-26.62 15.37 0 30.164 2.665 45.813 2.665 16.633 0 32.819-1.958 48.346-5.658-.804-7.239-1.005-14.523-.612-21.767-25.149 4.321-48.174 1.478-73.378-1.072-20.416-2.09-36.134 1.005-51.951 6.42-16.675 5.679-32.416 13.952-49.341 18.907zm211.551-124.23c4.601-6.188 9.332-12.37 13.859-19.821 3.588-5.905 6.681-12.041 9.275-18.354-13.699 4.22-28.235 6.492-43.289 6.492-17.73 0-30.333-3.461-46.404-7.078-25.476-5.735-53.284-4.099-77.667 5.397-25.985 10.116-46.823 22.049-77.625 22.049-20.627 0-40.19-4.683-57.691-13.039-1.248 11.341-3.529 22.379-6.744 33.019 13.746 5.805 28.104 9.505 42.588 11.294 25.171 3.11 45.484 1.256 66.707-4.925 11.116-3.238 22.927-8.487 34.811-12.674 21.925-7.721 41.441-12.171 64.748-8.987 18.225 2.492 35.442 7.931 55.051 7.914 7.423-.007 14.883-.442 22.381-1.287m32.039-72.381c1.079-8.965 1.236-18.072.448-27.187-21.868 14.72-49.561 19.62-77.158 12.628-17.225-4.202-33.654-7.166-51.567-7.166-24.224 0-47.402 4.637-68.689 13.068-19.659 7.783-34.331 18.042-56.924 18.042-24.972 0-47.422-11.139-62.641-28.705 2.978 11.322 4.912 23.062 5.683 35.107 16.466 10.552 36.019 16.677 56.959 16.677 27.609 0 44.804-11.546 68.307-20.361 29.988-11.244 63.107-13.391 94.276-6.157 14.315 3.319 23.501 6.151 39.111 6.151 18.704 0 36.422-4.352 52.195-12.097" fill="#fff" transform="matrix(1 0 0 -1 270.4307 131.9303)"/><g fill="#d11533"><path d="m0 0 1.481 6.107c-6.055 1.464-14.467 3.317-20.37.247-2.883-1.499-4.949-4.137-5.149-7.418-.513-8.381 8.758-10.119 15.249-10.777 2.038-.208 4.642-.307 6.53-1.176 1.123-.516 1.724-1.37 1.625-2.229-.17-1.497-2.221-2.267-3.503-2.554-4.583-1.021-10.552.253-14.899 2.06l-2.496-6.281c5.227-2.695 11.426-3.611 17.153-2.968 3.142.354 6.388 1.287 8.726 3.395 2.781 2.509 3.882 6.534 2.16 10.179-.401.846-.957 1.663-1.678 2.42h.001c-4.301 4.518-11.042 3.89-16.621 4.71-1.676.246-6.121 1.107-4.597 3.642 1.235 2.049 5.392 2.156 7.483 2.072 3.173-.126 6.589-.84 8.905-1.429m-34.59-26.378 10.23 1.657-19.494 15.838 7.485 12.922-9.876-1.6-8.411-14.521-4.305 12.46-7.771-1.259 10.046-29.078 7.77 1.26-2.398 6.94 3.534 6.098z" transform="matrix(1 0 0 -1 230.9351 105.607)"/><path d="m0 0c-1.911 2.598-2.744 6.298-2.126 9.467 1.564 8.054 12.185 11.392 19.301 10.886 2.748-.194 5.399-1.006 7.479-2.777l-4.9-4.295c-1.885 1.849-4.804 2.729-7.761 2.064-2.981-.669-5.965-2.611-6.597-5.813-.412-2.09.169-4.664 1.433-6.377 1.9-2.578 5.498-3.086 8.449-2.423 2.947.662 5.205 2.696 6.126 5.16l6.216-1.763c-1.144-2.559-3.244-4.465-5.677-5.804-6.197-3.415-17.11-4.888-21.943 1.675m54.597-1.431-6.152 7.165-6.124.396 1.195-6.785c-.43.01-.859.018-1.294.025-2.126.03-4.238.014-6.338-.052l-3.787 22.288c6.667.291 13.052.187 19.299-.298 4.372-.853 9.101-3.413 9.979-8.393.739-4.199-1.847-6.398-5.326-7.232l7.96-8.579c-3.056.598-6.186 1.091-9.412 1.465m-14.31 18.923 1.26-7.155 8.034-.518c2.682-.174 4.841.636 4.041 3.792-.608 2.386-2.457 3.179-4.658 3.322zm49.281-22.263-12.001 3.201-2.987-4.014c-2.607.708-5.26 1.35-7.973 1.91l15.133 19.674c2.688-.717 5.348-1.499 7.991-2.368l10.407-28.231c-2.763 1.128-5.518 2.229-8.284 3.284zm-1.568 4.483-3.133 9.018-4.901-6.875zm24.563-19.914c-3.565 1.934-6.68 4.741-8.129 8.629-1.26 3.377-1.095 7.266.42 9.957 1.788 3.179 5.198 4.39 8.964 4.489 4.378.117 9.768-1.237 14.013-3.538 2.792-1.51 5.307-3.555 6.968-6.231l-6.255-1.685c-1.44 2.656-4.216 4.893-7.457 5.693-3.268.807-6.894.419-8.432-2.298-1.004-1.773-1.118-4.482-.286-6.707 1.252-3.348 4.833-5.566 8.069-6.365 3.232-.797 6.13.029 7.763 1.916l5.941-4.669c-.613-.609-1.325-1.125-2.138-1.527-1.503-.742-3.306-1.144-5.339-1.208-4.373-.136-9.854 1.24-14.102 3.544m35.313-10.033c-3.372 1.016-6.363 2.983-7.855 6.386-1.295 2.957-1.295 6.748 0 9.704 1.531 3.491 4.638 5.47 8.117 6.464 4.046 1.153 9.511 1.128 13.529-.078 3.382-1.016 6.38-2.982 7.877-6.388 2.042-4.648.897-10.506-3.166-13.713-1.359-1.076-3.012-1.891-4.89-2.437-4.04-1.172-9.59-1.149-13.612.062m-.5 14.503c-.859-1.949-.857-4.59-.003-6.536.802-1.821 2.354-3.058 4.231-3.638 1.99-.616 4.334-.616 6.326 0 1.515.47 2.678 1.303 3.485 2.392 1.565 2.11 1.793 5.4.742 7.788-2.429 5.524-12.354 5.497-14.781-.006m39.495-14.294-14.203 22.552c2.733.047 5.503.194 8.321.449l8.949-15.035 4.99 16.995c2.668.471 5.291.975 7.907 1.486l-8.049-24.973c-2.613-.571-5.253-1.063-7.915-1.474m23.582 5.022-2.199 22.485c2.475.483 4.952.958 7.448 1.403l2.192-22.401c-2.49-.452-4.956-.952-7.441-1.487m34.113 8.037-11.96-.247-1.867-4.513c-2.76-.256-5.427-.588-8.043-.984l10.348 23.874c2.935.208 5.872.296 8.805.277l13.217-23.087c-2.697.213-5.409.356-8.136.426zm-2.258 4.149-4.522 8.345-3.484-8.512z" transform="matrix(1 0 0 -1 199.835 206.60169)"/></g></g></svg>