<?xml version="1.0" encoding="UTF-8" standalone="no"?>
<!-- Created with Inkscape (http://www.inkscape.org/) -->

<svg
   xmlns:dc="http://purl.org/dc/elements/1.1/"
   xmlns:cc="http://creativecommons.org/ns#"
   xmlns:rdf="http://www.w3.org/1999/02/22-rdf-syntax-ns#"
   xmlns:svg="http://www.w3.org/2000/svg"
   xmlns="http://www.w3.org/2000/svg"
   xmlns:sodipodi="http://sodipodi.sourceforge.net/DTD/sodipodi-0.dtd"
   xmlns:inkscape="http://www.inkscape.org/namespaces/inkscape"
   id="svg2"
   version="1.1"
   inkscape:version="0.48.2 r9819"
   width="275.64511"
   height="300"
   xml:space="preserve"
   sodipodi:docname="raport_podsumowujcy_dziaalno_ekstraklasy_sa_w_sezonie_20102011_mp3.pdf"><metadata
     id="metadata8"><rdf:RDF><cc:Work
         rdf:about=""><dc:format>image/svg+xml</dc:format><dc:type
           rdf:resource="http://purl.org/dc/dcmitype/StillImage" /><dc:title></dc:title></cc:Work></rdf:RDF></metadata><defs
     id="defs6"><clipPath
       clipPathUnits="userSpaceOnUse"
       id="clipPath22"><path
         d="m 0,841.89 1190.55,0 L 1190.55,0 0,0 0,841.89 z"
         id="path24"
         inkscape:connector-curvature="0" /></clipPath><clipPath
       clipPathUnits="userSpaceOnUse"
       id="clipPath30"><path
         d="m -8.226,850.394 -0.278,-79.369 335.678,0 78.181,79.369 -413.581,0 z"
         id="path32"
         inkscape:connector-curvature="0" /></clipPath><clipPath
       clipPathUnits="userSpaceOnUse"
       id="clipPath40"><path
         d="m 0,-0.0958862 1,0 0,0.1917724 -1,0 0,-0.1917724 z"
         id="path42"
         inkscape:connector-curvature="0" /></clipPath><linearGradient
       x1="0"
       y1="0"
       x2="1"
       y2="0"
       gradientUnits="userSpaceOnUse"
       gradientTransform="matrix(413.85875,0,0,-413.85875,-8.5039673,810.70955)"
       spreadMethod="pad"
       id="linearGradient44"><stop
         style="stop-opacity:1;stop-color:#77a02e"
         offset="0"
         id="stop46" /><stop
         style="stop-opacity:1;stop-color:#9aca3c"
         offset="1"
         id="stop48" /></linearGradient><clipPath
       clipPathUnits="userSpaceOnUse"
       id="clipPath56"><path
         d="m 785.197,850.394 78.179,-79.369 335.679,0 -0.279,79.369 -413.579,0 z"
         id="path58"
         inkscape:connector-curvature="0" /></clipPath><clipPath
       clipPathUnits="userSpaceOnUse"
       id="clipPath66"><path
         d="m 0,-0.0958862 1,0 0,0.1917724 -1,0 0,-0.1917724 z"
         id="path68"
         inkscape:connector-curvature="0" /></clipPath><linearGradient
       x1="0"
       y1="0"
       x2="1"
       y2="0"
       gradientUnits="userSpaceOnUse"
       gradientTransform="matrix(413.85777,0,0,-413.85777,785.19688,810.70955)"
       spreadMethod="pad"
       id="linearGradient70"><stop
         style="stop-opacity:1;stop-color:#9aca3c"
         offset="0"
         id="stop72" /><stop
         style="stop-opacity:1;stop-color:#77a02e"
         offset="1"
         id="stop74" /></linearGradient><clipPath
       clipPathUnits="userSpaceOnUse"
       id="clipPath82"><path
         d="m 327.691,48.189 -58.399,-56.693 651.97,0 -57.897,56.693 -535.674,0 z"
         id="path84"
         inkscape:connector-curvature="0" /></clipPath><clipPath
       clipPathUnits="userSpaceOnUse"
       id="clipPath92"><path
         d="m 0,-0.0434723 1,0 0,0.0869446 -1,0 0,-0.0869446 z"
         id="path94"
         inkscape:connector-curvature="0" /></clipPath><linearGradient
       x1="0"
       y1="0"
       x2="1"
       y2="0"
       gradientUnits="userSpaceOnUse"
       gradientTransform="matrix(651.97028,0,0,-651.97028,269.29118,19.842682)"
       spreadMethod="pad"
       id="linearGradient96"><stop
         style="stop-opacity:1;stop-color:#9aca3c"
         offset="0"
         id="stop98" /><stop
         style="stop-opacity:1;stop-color:#77a02e"
         offset="0.5"
         id="stop100" /><stop
         style="stop-opacity:1;stop-color:#9aca3c"
         offset="1"
         id="stop102" /></linearGradient><clipPath
       clipPathUnits="userSpaceOnUse"
       id="clipPath110"><path
         d="m -7.989,850.394 -0.278,-79.361 335.678,0 78.172,79.361 -413.572,0 z"
         id="path112"
         inkscape:connector-curvature="0" /></clipPath><clipPath
       clipPathUnits="userSpaceOnUse"
       id="clipPath118"><path
         d="m -557.7,1662.71 2250.66,0 0,-2802.2 -2250.66,0 0,2802.2 z"
         id="path120"
         inkscape:connector-curvature="0" /></clipPath><clipPath
       clipPathUnits="userSpaceOnUse"
       id="clipPath130"><path
         d="m 327.691,48.189 -58.399,-56.693 651.97,0 -57.897,56.693 -535.674,0 z"
         id="path132"
         inkscape:connector-curvature="0" /></clipPath><clipPath
       clipPathUnits="userSpaceOnUse"
       id="clipPath138"><path
         d="m -556.457,1667.58 2266.107,0 0,-2814.19 -2266.107,0 0,2814.19 z"
         id="path140"
         inkscape:connector-curvature="0" /></clipPath><clipPath
       clipPathUnits="userSpaceOnUse"
       id="clipPath150"><path
         d="m -519.098,1667.58 2266.108,0 0,-2814.19 -2266.108,0 0,2814.19 z"
         id="path152"
         inkscape:connector-curvature="0" /></clipPath><clipPath
       clipPathUnits="userSpaceOnUse"
       id="clipPath162"><path
         d="m 785.196,850.394 78.179,-79.369 335.68,0 -0.279,79.369 -413.58,0 z"
         id="path164"
         inkscape:connector-curvature="0" /></clipPath><clipPath
       clipPathUnits="userSpaceOnUse"
       id="clipPath170"><path
         d="m -502.17,1662.7 2250.66,0 0,-2802.2 -2250.66,0 0,2802.2 z"
         id="path172"
         inkscape:connector-curvature="0" /></clipPath><clipPath
       clipPathUnits="userSpaceOnUse"
       id="clipPath200"><path
         d="m 42.52,600.945 113.386,0 0,141.732 -113.386,0 0,-141.732 z"
         id="path202"
         inkscape:connector-curvature="0" /></clipPath><clipPath
       clipPathUnits="userSpaceOnUse"
       id="clipPath272"><path
         d="m 297.638,600.945 113.386,0 0,141.732 -113.386,0 0,-141.732 z"
         id="path274"
         inkscape:connector-curvature="0" /></clipPath><clipPath
       clipPathUnits="userSpaceOnUse"
       id="clipPath408"><path
         d="m 68.292,453.543 61.841,0 0,85.039 -61.841,0 0,-85.039 z"
         id="path410"
         inkscape:connector-curvature="0" /></clipPath><clipPath
       clipPathUnits="userSpaceOnUse"
       id="clipPath450"><path
         d="m 297.638,425.197 113.386,0 0,141.732 -113.386,0 0,-141.732 z"
         id="path452"
         inkscape:connector-curvature="0" /></clipPath><clipPath
       clipPathUnits="userSpaceOnUse"
       id="clipPath474"><path
         d="m 42.52,249.449 113.386,0 0,141.733 -113.386,0 0,-141.733 z"
         id="path476"
         inkscape:connector-curvature="0" /></clipPath><clipPath
       clipPathUnits="userSpaceOnUse"
       id="clipPath784"><path
         d="m 71.741,104.882 54.944,0 0,85.04 -54.944,0 0,-85.04 z"
         id="path786"
         inkscape:connector-curvature="0" /></clipPath><clipPath
       clipPathUnits="userSpaceOnUse"
       id="clipPath892"><path
         d="m 297.638,76.535 113.386,0 0,141.733 -113.386,0 0,-141.733 z"
         id="path894"
         inkscape:connector-curvature="0" /></clipPath><clipPath
       clipPathUnits="userSpaceOnUse"
       id="clipPath1012"><path
         d="m 297.638,249.449 113.386,0 0,141.733 -113.386,0 0,-141.733 z"
         id="path1014"
         inkscape:connector-curvature="0" /></clipPath><clipPath
       clipPathUnits="userSpaceOnUse"
       id="clipPath1052"><path
         d="m 651.968,600.945 113.387,0 0,141.732 -113.387,0 0,-141.732 z"
         id="path1054"
         inkscape:connector-curvature="0" /></clipPath><clipPath
       clipPathUnits="userSpaceOnUse"
       id="clipPath1112"><path
         d="m 907.087,600.945 113.386,0 0,141.732 -113.386,0 0,-141.732 z"
         id="path1114"
         inkscape:connector-curvature="0" /></clipPath><clipPath
       clipPathUnits="userSpaceOnUse"
       id="clipPath1778"><path
         d="m 651.968,425.197 113.387,0 0,141.732 -113.387,0 0,-141.732 z"
         id="path1780"
         inkscape:connector-curvature="0" /></clipPath><clipPath
       clipPathUnits="userSpaceOnUse"
       id="clipPath1978"><path
         d="m 907.087,425.197 113.386,0 0,141.732 -113.386,0 0,-141.732 z"
         id="path1980"
         inkscape:connector-curvature="0" /></clipPath><linearGradient
       x1="0"
       y1="0"
       x2="1"
       y2="0"
       gradientUnits="userSpaceOnUse"
       gradientTransform="matrix(82.578766,0,0,-19.307526,922.53659,473.74043)"
       spreadMethod="pad"
       id="linearGradient2006"><stop
         style="stop-opacity:1;stop-color:#009cd0"
         offset="0"
         id="stop2008" /><stop
         style="stop-opacity:1;stop-color:#035e99"
         offset="1"
         id="stop2010" /></linearGradient><linearGradient
       x1="0"
       y1="0"
       x2="1"
       y2="0"
       gradientUnits="userSpaceOnUse"
       gradientTransform="matrix(34.868805,68.433899,18.788696,-9.5733185,916.05095,473.92621)"
       spreadMethod="pad"
       id="linearGradient2026"><stop
         style="stop-opacity:1;stop-color:#009cd0"
         offset="0"
         id="stop2028" /><stop
         style="stop-opacity:1;stop-color:#8ed8f8"
         offset="1"
         id="stop2030" /></linearGradient><linearGradient
       x1="0"
       y1="0"
       x2="1"
       y2="0"
       gradientUnits="userSpaceOnUse"
       gradientTransform="matrix(41.242996,0,0,-72.0298,963.84329,537.47668)"
       spreadMethod="pad"
       id="linearGradient2046"><stop
         style="stop-opacity:1;stop-color:#00b4e3"
         offset="0"
         id="stop2048" /><stop
         style="stop-opacity:1;stop-color:#035e99"
         offset="1"
         id="stop2050" /></linearGradient><clipPath
       clipPathUnits="userSpaceOnUse"
       id="clipPath2058"><path
         d="m 907.087,425.197 113.386,0 0,141.732 -113.386,0 0,-141.732 z"
         id="path2060"
         inkscape:connector-curvature="0" /></clipPath><linearGradient
       x1="0"
       y1="0"
       x2="1"
       y2="0"
       gradientUnits="userSpaceOnUse"
       gradientTransform="matrix(0,-42.45256,-47.632355,0,989.78665,515.76123)"
       spreadMethod="pad"
       id="linearGradient2086"><stop
         style="stop-opacity:1;stop-color:#00b4e3"
         offset="0"
         id="stop2088" /><stop
         style="stop-opacity:1;stop-color:#035e99"
         offset="1"
         id="stop2090" /></linearGradient><linearGradient
       x1="0"
       y1="0"
       x2="1"
       y2="0"
       gradientUnits="userSpaceOnUse"
       gradientTransform="matrix(0,-42.414642,-13.973633,0,971.66441,515.9115)"
       spreadMethod="pad"
       id="linearGradient2106"><stop
         style="stop-opacity:1;stop-color:#00b4e3"
         offset="0"
         id="stop2108" /><stop
         style="stop-opacity:1;stop-color:#035e99"
         offset="1"
         id="stop2110" /></linearGradient><linearGradient
       x1="0"
       y1="0"
       x2="1"
       y2="0"
       gradientUnits="userSpaceOnUse"
       gradientTransform="matrix(0,-42.128906,-5.2966461,0,989.5703,515.61096)"
       spreadMethod="pad"
       id="linearGradient2126"><stop
         style="stop-opacity:1;stop-color:#00b4e3"
         offset="0"
         id="stop2128" /><stop
         style="stop-opacity:1;stop-color:#035e99"
         offset="1"
         id="stop2130" /></linearGradient><linearGradient
       x1="0"
       y1="0"
       x2="1"
       y2="0"
       gradientUnits="userSpaceOnUse"
       gradientTransform="matrix(0,-43.40004,-21.255005,0,978.94577,516.51257)"
       spreadMethod="pad"
       id="linearGradient2146"><stop
         style="stop-opacity:1;stop-color:#00b4e3"
         offset="0"
         id="stop2148" /><stop
         style="stop-opacity:1;stop-color:#035e99"
         offset="1"
         id="stop2150" /></linearGradient><linearGradient
       x1="0"
       y1="0"
       x2="1"
       y2="0"
       gradientUnits="userSpaceOnUse"
       gradientTransform="matrix(0,-43.250534,-9.4512177,0,947.22371,516.3623)"
       spreadMethod="pad"
       id="linearGradient2166"><stop
         style="stop-opacity:1;stop-color:#00b4e3"
         offset="0"
         id="stop2168" /><stop
         style="stop-opacity:1;stop-color:#035e99"
         offset="1"
         id="stop2170" /></linearGradient><clipPath
       clipPathUnits="userSpaceOnUse"
       id="clipPath2178"><path
         d="m 907.087,425.197 113.386,0 0,141.732 -113.386,0 0,-141.732 z"
         id="path2180"
         inkscape:connector-curvature="0" /></clipPath><clipPath
       clipPathUnits="userSpaceOnUse"
       id="clipPath2334"><path
         d="m 651.968,249.449 113.387,0 0,141.733 -113.387,0 0,-141.733 z"
         id="path2336"
         inkscape:connector-curvature="0" /></clipPath><clipPath
       clipPathUnits="userSpaceOnUse"
       id="clipPath2534"><path
         d="m 651.968,76.535 113.387,0 0,141.733 -113.387,0 0,-141.733 z"
         id="path2536"
         inkscape:connector-curvature="0" /></clipPath><clipPath
       clipPathUnits="userSpaceOnUse"
       id="clipPath3082"><path
         d="m 907.087,76.535 113.386,0 0,141.733 -113.386,0 0,-141.733 z"
         id="path3084"
         inkscape:connector-curvature="0" /></clipPath><clipPath
       clipPathUnits="userSpaceOnUse"
       id="clipPath3274"><path
         d="m 907.087,249.449 113.386,0 0,141.733 -113.386,0 0,-141.733 z"
         id="path3276"
         inkscape:connector-curvature="0" /></clipPath></defs><sodipodi:namedview
     pagecolor="#ffffff"
     bordercolor="#666666"
     borderopacity="1"
     objecttolerance="10"
     gridtolerance="10"
     guidetolerance="10"
     inkscape:pageopacity="0"
     inkscape:pageshadow="2"
     inkscape:window-width="1366"
     inkscape:window-height="716"
     id="namedview4"
     showgrid="false"
     fit-margin-top="0"
     fit-margin-left="0"
     fit-margin-right="0"
     fit-margin-bottom="0"
     inkscape:zoom="1"
     inkscape:cx="471.75021"
     inkscape:cy="173.96339"
     inkscape:window-x="-8"
     inkscape:window-y="-8"
     inkscape:window-maximized="1"
     inkscape:current-layer="g10" /><g
     id="g10"
     inkscape:groupmode="layer"
     inkscape:label="raport_podsumowujcy_dziaalno_ekstraklasy_sa_w_sezonie_20102011_mp3"
     transform="matrix(1.25,0,0,-1.25,-79.74843,652.21783)"><g
       id="g16"
       transform="matrix(3.1126711,0,0,3.1126711,-134.78577,-595.29637)"><g
         id="g18"><g
           id="g20"
           clip-path="url(#clipPath22)"><g
             id="g26"><g
               id="g28"
               clip-path="url(#clipPath30)"><g
                 id="g34"><g
                   id="g36"><g
                     id="g38"
                     clip-path="url(#clipPath40)"><path
                       d="m -8.226,850.394 -0.278,-79.369 335.678,0 78.181,79.369 -413.581,0 z"
                       style="fill:url(#linearGradient44);stroke:none"
                       id="path50"
                       inkscape:connector-curvature="0" /></g></g></g></g></g><g
             id="g52"><g
               id="g54"
               clip-path="url(#clipPath56)"><g
                 id="g60"><g
                   id="g62"><g
                     id="g64"
                     clip-path="url(#clipPath66)"><path
                       d="m 785.197,850.394 78.179,-79.369 335.679,0 -0.279,79.369 -413.579,0 z"
                       style="fill:url(#linearGradient70);stroke:none"
                       id="path76"
                       inkscape:connector-curvature="0" /></g></g></g></g></g><g
             id="g78"><g
               id="g80"
               clip-path="url(#clipPath82)"><g
                 id="g86"><g
                   id="g88"><g
                     id="g90"
                     clip-path="url(#clipPath92)"><path
                       d="m 327.691,48.189 -58.399,-56.693 651.97,0 -57.897,56.693 -535.674,0 z"
                       style="fill:url(#linearGradient96);stroke:none"
                       id="path104"
                       inkscape:connector-curvature="0" /></g></g></g></g></g><g
             id="g106"><g
               id="g108"
               clip-path="url(#clipPath110)"><g
                 id="g114"><g
                   id="g116" /><g
                   id="g122"><g
                     clip-path="url(#clipPath118)"
                     id="g124"
                     style="opacity:0.5" /></g></g></g></g><g
             id="g126"><g
               id="g128"
               clip-path="url(#clipPath130)"><g
                 id="g134"><g
                   id="g136" /><g
                   id="g142"><g
                     clip-path="url(#clipPath138)"
                     id="g144"
                     style="opacity:0.5" /></g></g><g
                 id="g146"><g
                   id="g148" /><g
                   id="g154"><g
                     clip-path="url(#clipPath150)"
                     id="g156"
                     style="opacity:0.5" /></g></g></g></g><g
             id="g158"><g
               id="g160"
               clip-path="url(#clipPath162)"><g
                 id="g166"><g
                   id="g168" /><g
                   id="g174"><g
                     clip-path="url(#clipPath170)"
                     id="g176"
                     style="opacity:0.5" /></g></g></g></g></g></g></g><g
       id="g470"
       transform="matrix(3.1126711,0,0,3.1126711,-134.78577,-595.29637)"><g
         id="g472"
         clip-path="url(#clipPath474)"><g
           id="g478"
           transform="translate(73.3096,353.6626)"><path
             d="m 0,0 50.279,0 0,-0.274 c -1.576,-1.322 -3.124,-2.85 -4.113,-4.662 -1.361,-2.507 -1.371,-5.161 0.803,-7.198 1.626,-1.518 3.653,-2.145 5.788,-2.585 2.429,-0.5 4.877,-0.853 7.335,-1.166 1.322,-5.866 1.597,-11.909 0.784,-17.863 -1.459,-10.626 -6.346,-20.556 -13.926,-28.136 -3.389,-3.399 -7.267,-6.298 -11.527,-8.726 -0.353,-0.196 -0.666,-0.314 -1.078,-0.333 -1.4,-0.559 -3.437,-1.107 -5.229,-0.901 -1.283,0.147 -2.449,0.666 -3.183,1.841 -0.842,-0.294 -1.626,-0.421 -2.36,-0.412 -1.156,0.01 -2.312,0.392 -3.281,1.019 -0.715,0.46 -1.352,1.126 -1.782,1.87 -0.03,0.049 -0.059,0.098 -0.079,0.147 -0.803,-0.019 -1.812,-0.019 -2.811,0.079 -2.125,0.205 -3.839,0.891 -4.837,2.928 -0.471,0.94 -0.706,2.076 -0.745,3.339 -0.617,0.059 -1.165,0.206 -1.665,0.441 -0.558,0.255 -1.057,0.627 -1.488,1.078 l 0,0.009 0,-0.009 0,0.009 c -0.696,0.715 -1.048,1.548 -1.175,2.429 -0.108,0.735 -0.059,1.508 0.078,2.272 -1.077,0.206 -2.341,0.578 -3.487,1.136 -1.655,0.803 -2.996,1.988 -3.545,3.79 -0.254,0.872 -0.362,2.057 -0.088,2.948 -1.165,0.588 -2.292,1.381 -2.84,2.605 -0.617,1.41 -0.627,2.928 -0.098,4.348 0.098,0.265 0.186,0.519 0.284,0.784 -1.469,1.116 -3.006,2.331 -3.526,4.191 -0.313,1.146 0.04,2.449 0.51,3.487 0.117,0.245 0.372,0.813 0.705,1.244 -0.744,0.734 -1.528,1.498 -1.959,2.477 -0.352,0.774 -0.548,1.636 -0.548,2.458 0,0.745 0.147,1.45 0.489,2.037 0.265,0.471 0.431,0.98 0.735,1.43 0.059,0.088 0.117,0.177 0.186,0.245 -1.028,0.872 -2.057,2.008 -2.115,3.428 -0.049,1.528 0.881,3.036 1.89,4.093 0.078,0.079 0.147,0.147 0.205,0.216 -0.724,0.872 -1.41,1.939 -1.743,3.075 -0.284,0.96 -0.333,1.959 0.03,2.938 0.186,0.5 0.47,0.979 0.773,1.42 -0.45,1.028 -0.695,2.125 -0.323,3.212 0.362,1.078 1.077,2.174 1.792,3.056 0.431,0.529 1.244,1.488 2.008,1.459 0.049,1.577 1.322,2.821 2.576,3.614 0.607,0.392 0.959,0.411 1.155,0.176 C -0.94,4.828 -0.901,4.358 -0.852,3.761 -0.764,2.664 -0.793,1.195 -0.813,0.646 -0.411,0.637 -0.167,0.343 0,0"
             style="fill:#000000;fill-opacity:1;fill-rule:nonzero;stroke:none"
             id="path480"
             inkscape:connector-curvature="0" /></g><g
           id="g482"
           transform="translate(119.3973,349.2164)"><path
             d="M 0,0 C 0.94,1.587 2.272,2.938 3.653,4.133 L 0,4.133 0,0 z"
             style="fill:#ed1d24;fill-opacity:1;fill-rule:nonzero;stroke:none"
             id="path484"
             inkscape:connector-curvature="0" /></g><g
           id="g486"
           transform="translate(119.3973,291.3667)"><path
             d="m 0,0 c 0.215,0.206 0.431,0.421 0.637,0.627 7.531,7.541 12.388,17.403 13.838,27.96 0.793,5.788 0.558,11.732 -0.725,17.54 -2.39,0.313 -4.789,0.656 -7.149,1.146 -2.184,0.45 -4.26,1.097 -5.935,2.664 C 0.421,50.172 0.196,50.407 0,50.661 L 0,0 z"
             style="fill:#ed1d24;fill-opacity:1;fill-rule:nonzero;stroke:none"
             id="path488"
             inkscape:connector-curvature="0" /></g><g
           id="g490"
           transform="translate(82.3489,301.7967)"><path
             d="m 0,0 c 0.039,-0.01 0.078,-0.02 0.117,-0.029 l 0,51.581 -9.029,0 c 0.049,-0.137 0.078,-0.264 0.118,-0.391 0.352,-1.283 0.568,-2.968 0.254,-4.27 -0.176,-0.715 -0.519,-1.401 -1.087,-2.184 0.098,-0.186 0.186,-0.382 0.265,-0.578 0.558,-1.283 0.754,-2.546 0.254,-3.917 -0.333,-0.901 -0.95,-1.802 -1.831,-2.693 0.235,-0.304 0.44,-0.657 0.656,-0.98 0.774,-1.155 1.459,-2.164 1.557,-3.359 0.098,-1.205 -0.568,-2.82 -1.42,-3.672 0.108,-0.206 0.235,-0.422 0.353,-0.637 0.548,-0.989 1.116,-2.008 1.194,-3.095 0.098,-1.42 -0.617,-2.722 -1.488,-3.79 0.538,-0.489 1.185,-1.322 1.596,-1.841 0.725,-0.94 1.322,-1.665 1.596,-2.879 0.216,-0.911 0.245,-1.949 0.079,-3.095 0.597,-0.411 1.175,-0.881 1.674,-1.4 0.294,-0.314 0.588,-0.657 0.833,-1.009 C -3.261,10.224 -3.33,8.52 -3.898,6.836 -0.431,6.092 0.343,3.134 0,0"
             style="fill:#ffe600;fill-opacity:1;fill-rule:nonzero;stroke:none"
             id="path492"
             inkscape:connector-curvature="0" /></g><path
           d="m 100.77,310.072 -4.466,0 0,-2.047 4.466,0 0,2.047 z"
           style="fill:#ed1d24;fill-opacity:1;fill-rule:nonzero;stroke:none"
           id="path494"
           inkscape:connector-curvature="0" /><path
           d="m 100.77,307.134 -4.466,0 0,-2.047 4.466,0 0,2.047 z"
           style="fill:#ed1d24;fill-opacity:1;fill-rule:nonzero;stroke:none"
           id="path496"
           inkscape:connector-curvature="0" /><g
           id="g498"
           transform="translate(82.7798,301.6596)"><path
             d="m 0,0 c 1.018,-0.333 2.066,-0.734 2.918,-1.391 1.616,-1.263 2.419,-3.055 2.282,-5.092 1.469,0.421 3.712,-0.079 4.907,-0.921 0.999,-0.695 1.704,-1.792 2.066,-3.359 1.058,0.01 2.233,-0.196 3.212,-0.578 1.166,-0.46 2.018,-1.204 2.605,-2.321 l 0,15.395 -6.63,0 -4.309,27.353 c -1.586,0.079 -2.85,1.401 -2.85,3.007 0,1.665 1.352,3.016 3.017,3.016 1.655,0 3.016,-1.351 3.016,-3.016 0,-1.165 -0.685,-2.194 -1.665,-2.683 l 4.633,-15.19 0.812,17.403 c -1.429,0.235 -2.526,1.479 -2.526,2.967 0,1.665 1.361,3.017 3.016,3.017 1.665,0 3.007,-1.352 3.007,-3.017 0,-1.332 -0.872,-2.468 -2.067,-2.859 L 17.99,15.738 17.99,51.69 0,51.69 0,0 z"
             style="fill:#ed1d24;fill-opacity:1;fill-rule:nonzero;stroke:none"
             id="path500"
             inkscape:connector-curvature="0" /></g><path
           d="m 101.084,305.087 4.466,0 0,2.047 -4.466,0 0,-2.047 z"
           style="fill:#ffe600;fill-opacity:1;fill-rule:nonzero;stroke:none"
           id="path502"
           inkscape:connector-curvature="0" /><path
           d="m 101.084,308.025 4.466,0 0,2.047 -4.466,0 0,-2.047 z"
           style="fill:#ffe600;fill-opacity:1;fill-rule:nonzero;stroke:none"
           id="path504"
           inkscape:connector-curvature="0" /><g
           id="g506"
           transform="translate(101.0836,287.2339)"><path
             d="M 0,0 C 0.46,0.313 1.214,0.509 1.773,0.49 3.535,0.421 5.386,-0.509 6.601,-1.753 7.149,-2.311 7.56,-2.967 7.747,-3.761 11.488,-1.606 14.925,0.921 18,3.829 l 0,51.406 c -1.224,1.87 -1.077,4.074 0,6.179 l 0,4.701 -18,0 0,-35.951 2.546,15.992 c -1.204,0.392 -2.076,1.528 -2.076,2.86 0,1.665 1.361,3.016 3.016,3.016 1.665,0 3.017,-1.351 3.017,-3.016 0,-1.489 -1.097,-2.732 -2.527,-2.967 L 4.789,28.646 9.421,43.835 c -0.979,0.49 -1.655,1.518 -1.655,2.684 0,1.665 1.352,3.016 3.017,3.016 1.655,0 3.016,-1.351 3.016,-3.016 0,-1.606 -1.273,-2.929 -2.86,-3.007 L 6.63,16.159 0,16.159 0,0 z"
             style="fill:#ffe600;fill-opacity:1;fill-rule:nonzero;stroke:none"
             id="path508"
             inkscape:connector-curvature="0" /></g><g
           id="g510"
           transform="translate(91.7702,296.1165)"><path
             d="m 0,0 0,4.143 0.881,0 0,-1.881 1.381,1.881 1.019,0 L 1.802,2.252 3.34,0 2.272,0 0.881,2.164 0.881,0 0,0 z"
             style="fill:#000000;fill-opacity:1;fill-rule:nonzero;stroke:none"
             id="path512"
             inkscape:connector-curvature="0" /></g><path
           d="m 95.531,300.259 0.881,0 0,-4.143 -0.881,0 0,4.143 z"
           style="fill:#000000;fill-opacity:1;fill-rule:nonzero;stroke:none"
           id="path514"
           inkscape:connector-curvature="0" /><g
           id="g516"
           transform="translate(97.4601,296.1165)"><path
             d="m 0,0 0,4.143 2.429,0 0,-0.755 -1.548,0 0,-0.842 1.548,0 0,-0.754 -1.548,0 0,-1.038 1.548,0 L 2.429,0 0,0 z"
             style="fill:#000000;fill-opacity:1;fill-rule:nonzero;stroke:none"
             id="path518"
             inkscape:connector-curvature="0" /></g><g
           id="g520"
           transform="translate(100.7703,296.1165)"><path
             d="m 0,0 0,4.143 0.881,0 0,-3.389 1.411,0 L 2.292,0 0,0 z"
             style="fill:#000000;fill-opacity:1;fill-rule:nonzero;stroke:none"
             id="path522"
             inkscape:connector-curvature="0" /></g><g
           id="g524"
           transform="translate(106.8324,299.1819)"><path
             d="M 0,0 C -0.176,0.157 -0.362,0.274 -0.548,0.353 -0.734,0.421 -0.94,0.46 -1.156,0.46 c -0.44,0 -0.793,-0.127 -1.048,-0.391 -0.264,-0.265 -0.391,-0.617 -0.391,-1.068 0,-0.431 0.117,-0.774 0.362,-1.038 0.245,-0.255 0.578,-0.382 0.989,-0.382 0.245,0 0.47,0.049 0.666,0.127 0.206,0.079 0.402,0.196 0.578,0.353 L -0.01,-2.84 c -0.186,-0.118 -0.382,-0.196 -0.587,-0.255 -0.206,-0.049 -0.421,-0.078 -0.657,-0.078 -0.656,0 -1.194,0.206 -1.615,0.617 -0.431,0.411 -0.637,0.93 -0.637,1.557 0,0.627 0.206,1.146 0.637,1.557 0.421,0.412 0.969,0.617 1.635,0.617 0.225,0 0.441,-0.029 0.646,-0.068 0.216,-0.049 0.421,-0.128 0.627,-0.226 L 0,0 z"
             style="fill:#000000;fill-opacity:1;fill-rule:nonzero;stroke:none"
             id="path526"
             inkscape:connector-curvature="0" /></g><g
           id="g528"
           transform="translate(107.655,296.1165)"><path
             d="m 0,0 0,4.143 2.439,0 0,-0.755 -1.548,0 0,-0.842 1.548,0 0,-0.754 -1.548,0 0,-1.038 1.548,0 L 2.439,0 0,0 z"
             style="fill:#000000;fill-opacity:1;fill-rule:nonzero;stroke:none"
             id="path530"
             inkscape:connector-curvature="0" /></g><g
           id="g532"
           transform="translate(84.8168,341.8517)"><path
             d="m 0,0 0,5.22 1.116,0 0,-2.36 1.744,2.36 1.283,0 L 2.272,2.84 4.211,0 2.869,0 1.116,2.732 1.116,0 0,0 z"
             style="fill:#000000;fill-opacity:1;fill-rule:nonzero;stroke:none"
             id="path534"
             inkscape:connector-curvature="0" /></g><g
           id="g536"
           transform="translate(94.434,343.3893)"><path
             d="m 0,0 c -0.147,-0.333 -0.343,-0.627 -0.607,-0.872 -0.274,-0.264 -0.578,-0.46 -0.921,-0.597 -0.636,-0.264 -1.341,-0.274 -1.988,-0.049 -0.303,0.108 -0.587,0.264 -0.842,0.47 -0.323,0.255 -0.578,0.568 -0.754,0.93 -0.333,0.696 -0.353,1.528 -0.059,2.233 0.147,0.333 0.343,0.627 0.607,0.882 0.265,0.254 0.568,0.45 0.911,0.597 0.695,0.274 1.449,0.274 2.135,0 C -1.175,3.447 -0.872,3.251 -0.607,2.997 -0.343,2.742 -0.137,2.448 0,2.115 0.274,1.449 0.274,0.666 0,0 m -1.41,-0.186 c 0.626,0.676 0.617,1.821 0,2.497 -0.627,0.676 -1.724,0.676 -2.351,0 -0.617,-0.666 -0.626,-1.831 0,-2.497 0.617,-0.666 1.734,-0.666 2.351,0"
             style="fill:#000000;fill-opacity:1;fill-rule:nonzero;stroke:none"
             id="path538"
             inkscape:connector-curvature="0" /></g><g
           id="g540"
           transform="translate(99.5069,341.8517)"><path
             d="m 0,0 -1.273,0 -1.371,2.439 0,-2.439 -1.117,0 0,5.22 1.597,0 c 0.636,0 1.106,-0.118 1.42,-0.372 0.323,-0.245 0.47,-0.617 0.47,-1.107 0,-0.362 -0.098,-0.666 -0.314,-0.921 C -0.803,2.566 -1.087,2.419 -1.43,2.37 L 0,0 z m -2.644,2.997 0.166,0 c 0.451,0 0.745,0.049 0.891,0.147 0.147,0.098 0.216,0.274 0.216,0.519 0,0.254 -0.078,0.431 -0.225,0.548 -0.157,0.108 -0.451,0.157 -0.882,0.157 l -0.166,0 0,-1.371 z"
             style="fill:#000000;fill-opacity:1;fill-rule:nonzero;stroke:none"
             id="path542"
             inkscape:connector-curvature="0" /></g><g
           id="g544"
           transform="translate(105.3046,343.3893)"><path
             d="m 0,0 c -0.147,-0.333 -0.343,-0.627 -0.607,-0.872 -0.274,-0.264 -0.578,-0.46 -0.911,-0.597 -0.646,-0.264 -1.351,-0.274 -1.998,-0.049 -0.303,0.108 -0.587,0.264 -0.842,0.47 -0.323,0.255 -0.578,0.568 -0.754,0.93 -0.333,0.696 -0.353,1.528 -0.049,2.233 0.137,0.333 0.333,0.627 0.607,0.882 0.255,0.254 0.558,0.45 0.911,0.597 0.685,0.274 1.439,0.274 2.125,0 C -1.175,3.447 -0.872,3.251 -0.607,2.997 -0.343,2.742 -0.137,2.448 0,2.115 0.274,1.449 0.274,0.666 0,0 m -1.41,-0.186 c 0.636,0.676 0.617,1.821 0,2.497 -0.627,0.676 -1.714,0.676 -2.351,0 -0.617,-0.666 -0.626,-1.831 0,-2.497 0.617,-0.666 1.734,-0.666 2.351,0"
             style="fill:#000000;fill-opacity:1;fill-rule:nonzero;stroke:none"
             id="path546"
             inkscape:connector-curvature="0" /></g><g
           id="g548"
           transform="translate(106.2839,341.8517)"><path
             d="m 0,0 0,5.22 1.165,0 2.312,-3.036 C 3.545,2.096 3.614,1.978 3.692,1.822 3.78,1.665 3.859,1.479 3.947,1.263 3.917,1.42 3.898,1.577 3.888,1.724 3.878,1.88 3.868,2.066 3.868,2.301 l 0,2.919 1.068,0 0,-5.22 -1.097,0 -2.38,3.095 C 1.401,3.183 1.322,3.3 1.244,3.457 1.165,3.614 1.087,3.8 0.999,4.015 1.019,3.868 1.038,3.712 1.058,3.555 1.068,3.408 1.068,3.212 1.068,2.977 L 1.068,0 0,0 z"
             style="fill:#000000;fill-opacity:1;fill-rule:nonzero;stroke:none"
             id="path550"
             inkscape:connector-curvature="0" /></g><g
           id="g552"
           transform="translate(115.0882,343.8398)"><path
             d="M 0,0 -0.588,1.684 C -0.597,1.733 -0.627,1.822 -0.646,1.939 -0.676,2.066 -0.705,2.213 -0.734,2.39 -0.764,2.223 -0.793,2.066 -0.823,1.929 -0.852,1.802 -0.872,1.704 -0.881,1.665 L -1.449,0 0,0 z m -3.32,-1.988 1.978,5.22 1.283,0 2.018,-5.22 -1.273,0 -0.422,1.107 -2.027,0 -0.362,-1.107 -1.195,0 z"
             style="fill:#000000;fill-opacity:1;fill-rule:nonzero;stroke:none"
             id="path554"
             inkscape:connector-curvature="0" /></g><g
           id="g556"
           transform="translate(79.1562,299.1623)"><path
             d="m 0,0 c 0.069,0.313 0.098,0.617 0.255,0.911 0.215,0.382 0.568,0.431 0.93,0.284 0,0.127 -0.01,0.313 -0.02,0.509 C -0.49,2.605 -1.645,3.389 -2.282,4.456 -2.752,5.23 -2.938,6.14 -2.83,7.325 -3.3,7.531 -4.133,7.796 -4.926,7.933 -5.426,8.021 -6.532,8.236 -6.816,7.639 -7.188,6.885 -7.012,5.475 -6.787,4.72 -6.268,2.987 -4.985,1.88 -3.408,1.116 -2.292,0.568 -1.058,0.206 0,0"
             style="fill:#008c44;fill-opacity:1;fill-rule:nonzero;stroke:none"
             id="path558"
             inkscape:connector-curvature="0" /></g><g
           id="g560"
           transform="translate(80.3314,301.2189)"><path
             d="M 0,0 C 0.02,0.274 0.078,0.539 0.215,0.676 0.441,0.921 1.087,0.832 1.714,0.666 2.037,3.751 1.244,6.552 -2.213,7.159 -2.82,7.267 -3.271,7.482 -3.437,6.777 -3.888,4.858 -3.8,3.575 -3.193,2.566 -2.605,1.587 -1.528,0.842 0,0"
             style="fill:#008c44;fill-opacity:1;fill-rule:nonzero;stroke:none"
             id="path562"
             inkscape:connector-curvature="0" /></g><g
           id="g564"
           transform="translate(76.3553,306.8109)"><path
             d="M 0,0 C 0.049,0.392 0.127,0.803 0.235,1.254 0.451,2.184 1.018,2.017 1.782,1.88 2.331,3.486 2.429,5.112 1.43,6.562 1.195,6.914 0.911,7.237 0.627,7.541 0.108,8.07 -0.646,8.755 -1.312,9.088 -1.508,9.186 -1.655,9.206 -1.782,9.118 -2.272,8.785 -2.762,7.179 -2.967,6.62 -1.871,5.621 -1.195,4.436 -0.842,2.997 -0.627,2.125 -0.529,1.185 -0.499,0.196 -0.313,0.127 -0.147,0.069 0,0"
             style="fill:#008c44;fill-opacity:1;fill-rule:nonzero;stroke:none"
             id="path566"
             inkscape:connector-curvature="0" /></g><g
           id="g568"
           transform="translate(72.0952,307.0166)"><path
             d="M 0,0 C 0.401,0.686 1.557,0.499 2.184,0.392 2.615,0.313 3.046,0.206 3.437,0.088 3.408,1.019 3.31,1.91 3.114,2.723 2.752,4.211 2.037,5.377 0.872,6.366 0.392,6.767 -0.176,7.149 -0.823,7.521 -1.136,7.698 -1.724,8.04 -2.096,7.864 -2.439,7.707 -2.634,6.885 -2.772,6.532 -3.251,5.191 -3.251,3.77 -2.664,2.448 -2.155,1.303 -1.077,0.558 0,0"
             style="fill:#008c44;fill-opacity:1;fill-rule:nonzero;stroke:none"
             id="path570"
             inkscape:connector-curvature="0" /></g><g
           id="g572"
           transform="translate(69.4509,314.7632)"><path
             d="M 0,0 C 0.098,0.167 0.225,0.313 0.411,0.401 0.911,0.637 1.547,0.294 1.978,0.049 2.625,-0.323 3.193,-0.705 3.682,-1.116 3.741,-0.97 3.8,-0.784 3.878,-0.578 3.163,0.137 2.556,0.842 2.066,1.538 1.557,2.272 1.175,3.007 0.911,3.741 0.666,4.397 0.568,5.063 0.588,5.739 0.597,6.023 0.617,6.317 0.666,6.601 0.411,6.865 0.137,7.198 -0.147,7.531 -0.519,7.972 -0.911,8.432 -1.283,8.775 -1.577,9.039 -1.9,8.804 -2.164,8.461 -2.488,8.05 -2.742,7.512 -2.85,7.257 -3.291,6.287 -3.643,5.053 -3.349,3.986 -2.86,2.223 -1.381,1.058 0,0"
             style="fill:#008c44;fill-opacity:1;fill-rule:nonzero;stroke:none"
             id="path574"
             inkscape:connector-curvature="0" /></g><g
           id="g576"
           transform="translate(73.4565,314.5085)"><path
             d="M 0,0 C 0.274,0.695 0.627,1.469 0.94,1.684 1.224,1.871 1.518,1.782 1.782,1.635 1.919,2.693 1.89,3.643 1.694,4.476 1.43,5.641 0.832,6.366 0.147,7.247 -0.441,7.991 -1.547,9.421 -1.871,9.353 -2.399,9.245 -2.625,8.344 -2.762,7.913 -2.86,7.6 -2.938,7.286 -2.997,6.973 l 0,-0.01 C -3.056,6.64 -3.095,6.307 -3.105,5.984 -3.114,5.347 -3.026,4.72 -2.801,4.103 -2.546,3.398 -2.174,2.683 -1.675,1.978 -1.224,1.322 -0.666,0.656 0,0"
             style="fill:#008c44;fill-opacity:1;fill-rule:nonzero;stroke:none"
             id="path578"
             inkscape:connector-curvature="0" /></g><g
           id="g580"
           transform="translate(70.1953,321.7458)"><path
             d="M 0,0 C 0.049,0.264 0.118,0.519 0.206,0.764 0.392,1.352 0.627,2.272 1.322,2.429 1.459,2.458 1.626,2.38 1.822,2.233 2.634,3.242 3.34,4.466 3.242,5.807 3.173,6.826 2.615,7.815 2.086,8.765 1.861,9.167 1.645,9.558 1.459,9.95 1.293,10.293 1.087,10.312 0.881,10.195 0.372,9.911 -0.186,9.127 -0.519,8.657 -0.695,8.403 -0.842,8.168 -0.93,7.991 -0.372,7.13 -0.137,6.121 -0.01,5.112 0.108,4.221 0.137,3.33 0.167,2.556 0.196,1.812 0.108,0.979 -0.313,0.353 -0.206,0.235 -0.108,0.117 0,0"
             style="fill:#008c44;fill-opacity:1;fill-rule:nonzero;stroke:none"
             id="path582"
             inkscape:connector-curvature="0" /></g><g
           id="g584"
           transform="translate(67.2181,323.6262)"><path
             d="M 0,0 C 0.343,0.353 0.744,0.519 1.156,0.147 1.557,-0.206 1.949,-0.685 2.331,-1.136 2.37,-1.185 2.409,-1.234 2.448,-1.283 2.791,-0.715 2.85,0.02 2.83,0.666 2.801,1.44 2.771,2.331 2.664,3.193 2.527,4.231 2.272,5.259 1.665,6.121 1.44,6.444 1.175,6.718 0.891,6.993 0.48,7.394 0.118,7.864 -0.304,8.246 -0.725,8.628 -0.921,8.452 -1.224,7.991 -1.528,7.551 -1.684,7.051 -1.939,6.601 -2.262,6.062 -2.399,5.396 -2.399,4.701 -2.399,3.927 -2.213,3.105 -1.88,2.37 -1.459,1.44 -0.705,0.705 0,0"
             style="fill:#008c44;fill-opacity:1;fill-rule:nonzero;stroke:none"
             id="path586"
             inkscape:connector-curvature="0" /></g><g
           id="g588"
           transform="translate(66.1408,332.264)"><path
             d="M 0,0 C 0.382,0.274 0.666,0.127 0.979,-0.157 1.41,-0.548 1.773,-1.019 2.184,-1.42 2.448,-1.675 2.703,-1.939 2.928,-2.233 3.046,-2.017 3.183,-1.822 3.32,-1.616 2.674,-0.94 2.223,-0.225 1.959,0.519 1.41,2.057 1.733,3.575 2.341,5.034 2.115,5.377 1.9,5.739 1.626,6.052 1.459,6.258 1.283,6.532 1.126,6.797 0.921,7.13 0.725,7.443 0.548,7.57 0.372,7.698 0.157,7.482 -0.225,7.081 -1.175,6.082 -2.076,4.652 -2.017,3.222 -1.968,1.88 -0.96,0.803 0,0"
             style="fill:#008c44;fill-opacity:1;fill-rule:nonzero;stroke:none"
             id="path590"
             inkscape:connector-curvature="0" /></g><g
           id="g592"
           transform="translate(69.6566,330.9027)"><path
             d="M 0,0 C 0.323,0.441 0.793,1.048 1.263,1.312 1.635,1.518 2.008,1.508 2.282,0.921 2.321,0.852 2.35,0.774 2.39,0.695 3.134,1.498 3.731,2.958 3.643,4.054 3.555,5.171 2.899,6.14 2.145,7.257 1.919,7.59 1.675,8.04 1.4,8.344 1.185,8.589 0.881,8.814 0.578,8.54 0.098,8.119 -0.323,7.453 -0.666,6.757 -1.391,5.269 -1.841,3.594 -1.263,1.978 -1.019,1.293 -0.597,0.637 0,0"
             style="fill:#008c44;fill-opacity:1;fill-rule:nonzero;stroke:none"
             id="path594"
             inkscape:connector-curvature="0" /></g><g
           id="g596"
           transform="translate(68.6381,337.6406)"><path
             d="M 0,0 C 0.333,0.734 0.774,1.498 1.381,2.037 1.782,2.399 2.223,2.243 2.566,1.91 3.408,2.772 3.986,3.624 4.299,4.476 4.779,5.768 4.583,6.953 4.064,8.168 3.878,8.599 3.663,9.02 3.457,9.382 2.84,10.489 1.998,9.294 1.518,8.755 1.038,8.197 0.656,7.57 0.206,6.992 0.264,6.797 0.313,6.601 0.362,6.405 0.568,5.553 0.646,4.671 0.48,3.692 0.382,3.105 0.245,2.576 0.02,2.125 -0.176,1.714 -0.441,1.371 -0.803,1.116 -0.744,1.028 -0.686,0.95 -0.627,0.881 -0.392,0.607 -0.196,0.304 0,0"
             style="fill:#008c44;fill-opacity:1;fill-rule:nonzero;stroke:none"
             id="path598"
             inkscape:connector-curvature="0" /></g><g
           id="g600"
           transform="translate(66.131,339.991)"><path
             d="m 0,0 c 0.255,0.225 0.47,0.294 0.744,0.098 0.226,-0.157 0.431,-0.5 0.656,-0.862 0.04,-0.068 0.089,-0.137 0.128,-0.215 0.313,0.235 0.538,0.528 0.715,0.891 0.205,0.421 0.342,0.92 0.431,1.479 C 2.83,2.321 2.762,3.163 2.566,3.986 2.37,4.808 2.047,5.612 1.714,6.444 1.606,6.738 1.498,7.032 1.391,7.306 1.116,8.05 0.901,8.647 0.783,8.667 0.362,8.736 -0.255,7.913 -0.48,7.629 -0.94,7.051 -1.4,6.385 -1.655,5.69 -1.988,4.779 -1.949,3.849 -1.675,2.958 -1.352,1.871 -0.705,0.842 0,0"
             style="fill:#008c44;fill-opacity:1;fill-rule:nonzero;stroke:none"
             id="path602"
             inkscape:connector-curvature="0" /></g><g
           id="g604"
           transform="translate(65.1615,347.5123)"><path
             d="M 0,0 C 0.088,0.108 0.166,0.206 0.235,0.304 0.568,0.715 1.205,1.557 1.802,1.449 2.106,1.4 2.35,0.734 2.654,-0.108 2.752,-0.372 2.86,-0.666 2.977,-0.96 3.183,-1.489 3.389,-1.998 3.565,-2.517 3.761,-2.243 3.947,-1.959 4.152,-1.685 3.761,-1.126 3.437,-0.568 3.222,0 2.987,0.617 2.879,1.234 2.928,1.861 3.026,2.997 3.692,3.986 4.446,4.799 4.26,5.435 4.035,6.062 3.761,6.669 3.222,7.835 1.91,6.248 1.508,5.759 0.823,4.916 0.118,3.849 -0.235,2.811 -0.558,1.861 -0.362,0.901 0,0"
             style="fill:#008c44;fill-opacity:1;fill-rule:nonzero;stroke:none"
             id="path606"
             inkscape:connector-curvature="0" /></g><g
           id="g608"
           transform="translate(69.5097,346.0922)"><path
             d="M 0,0 C 0.127,0.167 0.264,0.343 0.411,0.509 1.068,1.254 2.086,2.478 2.86,1.087 2.928,0.97 2.987,0.852 3.056,0.725 3.535,1.42 3.839,2.037 3.996,2.664 4.299,3.917 4.074,5.553 3.741,6.787 3.614,7.228 3.437,7.991 2.83,7.893 2.585,7.854 2.292,7.707 1.978,7.463 0.676,6.454 -0.96,5.014 -1.107,3.261 -1.146,2.674 -1.048,2.096 -0.832,1.538 -0.637,1.019 -0.353,0.509 0,0"
             style="fill:#008c44;fill-opacity:1;fill-rule:nonzero;stroke:none"
             id="path610"
             inkscape:connector-curvature="0" /></g><g
           id="g612"
           transform="translate(69.8623,352.5657)"><path
             d="M 0,0 C 0.451,0.451 0.95,0.862 1.43,1.244 1.743,1.479 2.047,1.645 2.321,1.714 2.341,2.194 2.37,3.712 2.282,4.828 2.243,5.357 2.233,5.778 2.076,5.935 1.959,6.052 1.763,6.003 1.312,5.719 0.127,4.965 -1.097,3.79 -1.116,2.292 -0.94,2.204 -0.783,2.027 -0.656,1.743 -0.402,1.175 -0.186,0.597 0,0"
             style="fill:#008c44;fill-opacity:1;fill-rule:nonzero;stroke:none"
             id="path614"
             inkscape:connector-curvature="0" /></g><g
           id="g616"
           transform="translate(106.7344,282.7192)"><path
             d="M 0,0 C -0.754,0.02 -1.518,0.108 -2.252,0.255 -3.016,0.421 -3.741,0.666 -4.348,0.979 -4.74,1.185 -5.288,1.743 -5.68,2.341 -6.003,2.331 -7.629,2.38 -7.551,1.841 -7.531,1.684 -7.443,1.469 -7.267,1.175 -6.601,0.049 -5.494,-0.451 -4.28,-0.588 -2.86,-0.754 -1.273,-0.421 0,0"
             style="fill:#008c44;fill-opacity:1;fill-rule:nonzero;stroke:none"
             id="path618"
             inkscape:connector-curvature="0" /></g><g
           id="g620"
           transform="translate(100.8682,285.3731)"><path
             d="m 0,0 c -0.245,0.431 -0.372,0.872 -0.304,1.234 0.03,0.157 0.118,0.294 0.245,0.421 C -0.176,2.106 -0.392,2.527 -0.637,2.918 -1.156,3.761 -1.939,4.309 -2.82,4.652 -3.712,5.004 -4.701,5.151 -5.602,5.2 -6.013,5.23 -6.62,5.23 -6.973,4.975 -7.747,4.436 -5.778,3.026 -5.357,2.644 -4.241,2.586 -3.046,2.272 -2.076,1.714 -1.352,1.303 -0.715,0.735 -0.255,-0.01 -0.166,-0.01 -0.078,0 0,0"
             style="fill:#008c44;fill-opacity:1;fill-rule:nonzero;stroke:none"
             id="path622"
             inkscape:connector-curvature="0" /></g><g
           id="g624"
           transform="translate(108.5462,283.3067)"><path
             d="M 0,0 C -0.157,0.774 -0.558,1.41 -1.087,1.959 -2.243,3.144 -4.015,4.045 -5.7,4.103 -6.18,4.113 -7.551,3.8 -7.668,3.232 -7.835,2.448 -6.659,1.009 -6.013,0.676 -5.435,0.362 -4.74,0.137 -3.996,-0.02 c 0.803,-0.176 1.665,-0.254 2.488,-0.264 0.548,0 1.009,0.01 1.508,0.284"
             style="fill:#008c44;fill-opacity:1;fill-rule:nonzero;stroke:none"
             id="path626"
             inkscape:connector-curvature="0" /></g><g
           id="g628"
           transform="translate(99.0956,283.9335)"><path
             d="M 0,0 C -0.127,0.235 -0.206,0.431 -0.225,0.588 -0.333,1.303 0.676,1.371 1.156,1.41 0.734,2.037 0.176,2.517 -0.46,2.879 -2.262,3.908 -4.711,4.064 -6.64,3.32 -7.257,3.085 -7.335,2.928 -7.002,2.36 -6.601,1.665 -6.003,1.028 -5.328,0.597 -4.397,0 -3.31,-0.362 -2.204,-0.372 -1.528,-0.382 -0.793,-0.264 0,0"
             style="fill:#008c44;fill-opacity:1;fill-rule:nonzero;stroke:none"
             id="path630"
             inkscape:connector-curvature="0" /></g><g
           id="g632"
           transform="translate(91.6134,286.5973)"><path
             d="m 0,0 c -0.147,0.539 0.274,0.774 0.735,0.95 0.832,0.323 1.772,0.46 2.663,0.48 0,0 -0.009,0 -0.009,0.01 C 3.183,1.606 2.928,1.812 2.683,2.047 0.95,1.851 -0.568,2.135 -1.753,2.879 -2.918,3.614 -3.751,4.799 -4.123,6.424 -4.182,6.66 -4.24,6.904 -4.289,7.149 -5.239,7.58 -6.248,7.874 -7.286,8.031 -7.962,8.138 -7.913,8.187 -7.942,7.482 -7.972,6.865 -7.972,6.248 -7.933,5.641 -7.864,4.583 -7.639,3.633 -7.237,2.83 -6.287,0.901 -4.671,0.274 -2.654,0.069 -1.724,-0.02 -0.774,-0.02 0,0"
             style="fill:#008c44;fill-opacity:1;fill-rule:nonzero;stroke:none"
             id="path634"
             inkscape:connector-curvature="0" /></g><g
           id="g636"
           transform="translate(94.0031,288.9282)"><path
             d="m 0,0 c -0.411,0.441 -0.989,1.195 -0.284,1.684 0.255,0.177 0.597,0.245 0.921,0.275 -0.353,1.459 -1.009,2.468 -1.93,3.114 -0.969,0.676 -2.242,0.97 -3.751,0.97 -0.372,0 -0.92,-0.02 -1.234,-0.265 C -6.601,5.533 -6.287,4.505 -6.209,4.162 -5.847,2.625 -5.063,1.508 -3.976,0.813 -2.909,0.147 -1.547,-0.127 0,0"
             style="fill:#008c44;fill-opacity:1;fill-rule:nonzero;stroke:none"
             id="path638"
             inkscape:connector-curvature="0" /></g><g
           id="g640"
           transform="translate(87.2749,294.1089)"><path
             d="M 0,0 C -0.029,0.392 0.02,0.734 0.382,0.93 0.558,2.928 -0.186,4.681 -1.773,5.905 -2.448,6.424 -3.232,6.767 -4.025,7.051 -4.387,7.188 -6.248,7.844 -6.503,7.57 -6.728,7.335 -6.61,6.454 -6.61,6.082 -6.219,5.876 -5.778,5.621 -5.328,5.357 -4.133,4.642 -2.713,3.849 -1.89,2.693 -1.449,2.076 -1.165,1.352 -0.921,0.353 -0.617,0.255 -0.304,0.137 0,0"
             style="fill:#008c44;fill-opacity:1;fill-rule:nonzero;stroke:none"
             id="path642"
             inkscape:connector-curvature="0" /></g><g
           id="g644"
           transform="translate(83.338,292.9435)"><path
             d="M 0,0 C 0,0.382 0,0.764 0.02,1.146 0.049,2.047 0.157,2.135 1.038,1.998 1.587,1.91 2.135,1.792 2.664,1.626 2.439,2.497 2.174,3.134 1.792,3.673 0.999,4.789 -0.402,5.563 -1.557,6.248 -1.978,6.503 -2.39,6.738 -2.772,6.943 -3.036,7.09 -3.447,7.355 -3.643,6.983 -3.829,6.65 -3.888,6.131 -3.947,5.759 -4.064,5.053 -4.103,4.358 -4.006,3.692 -3.888,2.869 -3.565,2.096 -2.918,1.43 l 0.009,0 C -2.507,0.999 -2.047,0.656 -1.528,0.411 -1.068,0.196 -0.558,0.059 0,0"
             style="fill:#008c44;fill-opacity:1;fill-rule:nonzero;stroke:none"
             id="path646"
             inkscape:connector-curvature="0" /></g><g
           id="g648"
           transform="translate(102.0434,285.7845)"><path
             d="M 0,0 C 0.392,0.117 0.764,0.127 1.116,0.039 1.048,0.333 0.842,0.734 0.558,0.842 1.205,0.813 1.273,0.509 1.577,-0.137 2.84,-0.872 2.703,-1.587 4.544,-1.684 4.035,-1.792 3.663,-1.763 3.34,-1.724 c -0.823,0.118 -1.127,0 -1.597,0.167 0.245,0.078 0.539,0.166 0.833,0.186 C 1.704,-0.764 1.195,0 0,0"
             style="fill:#000000;fill-opacity:1;fill-rule:nonzero;stroke:none"
             id="path650"
             inkscape:connector-curvature="0" /></g><g
           id="g652"
           transform="translate(100.8584,283.7867)"><path
             d="m 0,0 c 0.255,-0.333 0.617,-0.627 1.018,-0.705 0.715,-0.127 1.548,-0.167 2.165,-0.333 -0.167,-0.02 -0.539,0 -0.95,-0.03 C 1.635,-1.107 0.95,-1.058 0.725,-0.94 0.411,-0.764 0.108,-0.529 0,0"
             style="fill:#000000;fill-opacity:1;fill-rule:nonzero;stroke:none"
             id="path654"
             inkscape:connector-curvature="0" /></g><g
           id="g656"
           transform="translate(95.9128,289.8292)"><path
             d="M 0,0 C 0.823,-0.274 1.293,-0.176 1.704,-0.979 2.057,-1.665 2.448,-2.497 2.683,-2.566 2.517,-2.272 2.429,-1.861 2.311,-1.518 2.125,-0.95 2.155,-0.568 2.125,0.01 1.988,-0.186 1.949,-0.411 1.939,-0.646 1.861,-0.529 1.753,-0.421 1.635,-0.323 1.273,-0.02 0.793,-0.029 0,0"
             style="fill:#000000;fill-opacity:1;fill-rule:nonzero;stroke:none"
             id="path658"
             inkscape:connector-curvature="0" /></g><g
           id="g660"
           transform="translate(93.4644,286)"><path
             d="M 0,0 C 0.646,-0.362 1.459,-0.196 2.203,-0.098 1.694,0.215 1.312,0.901 0.685,0.872 0.842,1.048 1.165,1.028 1.381,0.921 1.782,0.705 2.301,0.245 2.713,-0.049 3.535,-0.01 4.642,-0.49 5.318,-1.028 4.241,-0.646 3.359,-0.294 2.184,-0.411 1.283,-0.509 0.372,-0.676 0,0"
             style="fill:#000000;fill-opacity:1;fill-rule:nonzero;stroke:none"
             id="path662"
             inkscape:connector-curvature="0" /></g><g
           id="g664"
           transform="translate(89.4295,293.7368)"><path
             d="M 0,0 C 0.451,-0.578 0.695,-1.116 1.067,-1.616 1.381,-2.047 1.704,-2.448 2.125,-2.781 1.792,-2.85 1.283,-2.762 0.97,-2.762 1.165,-2.84 1.714,-3.173 2.409,-2.997 2.83,-3.271 3.32,-3.506 3.81,-3.643 2.762,-2.948 2.145,-2.458 1.371,-1.449 1.351,-0.842 1.332,-0.049 0.94,0.431 1.038,-0.02 1.058,-0.607 1.097,-1.107 0.764,-0.715 0.323,-0.245 0,0"
             style="fill:#000000;fill-opacity:1;fill-rule:nonzero;stroke:none"
             id="path666"
             inkscape:connector-curvature="0" /></g><g
           id="g668"
           transform="translate(90.164,287.9391)"><path
             d="m 0,0 c -0.784,0.402 -1.9,0.96 -2.458,1.665 -0.48,0.607 -0.686,1.449 -1.205,2.105 -0.509,0.637 -1.175,0.931 -1.968,0.931 0.754,-0.118 1.253,-0.529 1.635,-1.048 0.402,-0.549 0.676,-1.371 1.107,-1.978 -0.304,0.088 -0.509,0.333 -0.852,0.333 -0.353,0 -0.764,0.303 -0.862,0.646 -0.029,-0.411 0.343,-0.901 0.744,-0.901 0.451,0 0.784,-0.353 1.244,-0.411 C -1.988,0.725 -0.734,0.176 0,0"
             style="fill:#000000;fill-opacity:1;fill-rule:nonzero;stroke:none"
             id="path670"
             inkscape:connector-curvature="0" /></g><g
           id="g672"
           transform="translate(83.3674,300.122)"><path
             d="m 0,0 c 0,-1.205 0.979,-1.753 1.802,-2.36 0.754,-0.549 0.803,-1.43 1.43,-2.194 -0.206,0.686 -0.421,1.43 -0.833,2.027 -0.274,0.412 -0.577,0.5 -0.646,1.048 -0.068,0.5 0.088,0.911 -0.509,1.254 0.117,-0.206 0.176,-0.402 0.176,-0.617 0,-0.333 0.069,-0.696 0.127,-0.911 C 1.361,-1.626 1.156,-1.479 0.94,-1.283 0.509,-0.901 0.137,-0.392 0,0"
             style="fill:#000000;fill-opacity:1;fill-rule:nonzero;stroke:none"
             id="path674"
             inkscape:connector-curvature="0" /></g><g
           id="g676"
           transform="translate(79.832,298.4963)"><path
             d="m 0,0 c 0.137,-0.862 0.891,-1.538 1.704,-2.106 -0.02,0.206 -0.029,0.422 0.01,0.666 0.039,0.294 -0.049,0.588 -0.088,0.892 0.509,-0.529 0.215,-1.176 0.391,-1.763 0.49,-0.314 1.567,-0.999 1.567,-1.215 -0.734,0.617 -2.262,0.088 -2.409,0.745 0,-0.039 0.255,-0.147 0.588,-0.137 0.294,0 0.538,0.049 0.832,0 C 1.851,-2.556 0.97,-2.174 0.46,-1.43 0.186,-1.028 -0.049,-0.597 0,0"
             style="fill:#000000;fill-opacity:1;fill-rule:nonzero;stroke:none"
             id="path678"
             inkscape:connector-curvature="0" /></g><g
           id="g680"
           transform="translate(79.5871,306.5367)"><path
             d="M 0,0 C 0.167,-0.421 0.147,-0.784 0.137,-1.205 0.127,-1.498 0.245,-1.645 0.264,-1.929 0.47,-1.763 0.666,-0.215 0,0"
             style="fill:#000000;fill-opacity:1;fill-rule:nonzero;stroke:none"
             id="path682"
             inkscape:connector-curvature="0" /></g><g
           id="g684"
           transform="translate(78.2259,307.3985)"><path
             d="m 0,0 c -0.157,-1.195 0.353,-1.9 0.744,-2.321 0.813,-0.852 1.225,-1.763 1.792,-2.732 -0.303,1.38 -0.754,1.9 -1.508,2.898 C 0.548,-1.528 -0.059,-0.441 0,0"
             style="fill:#000000;fill-opacity:1;fill-rule:nonzero;stroke:none"
             id="path686"
             inkscape:connector-curvature="0" /></g><g
           id="g688"
           transform="translate(77.6579,306.4682)"><path
             d="M 0,0 0.401,-0.372 C 0.45,-0.421 0.676,-0.548 0.676,-0.627 0.235,-0.842 -0.01,-0.362 0,0"
             style="fill:#000000;fill-opacity:1;fill-rule:nonzero;stroke:none"
             id="path690"
             inkscape:connector-curvature="0" /></g><g
           id="g692"
           transform="translate(76.0125,302.9719)"><path
             d="M 0,0 C 0.274,-0.01 0.519,0.127 0.715,-0.01 0.911,-0.147 1.156,-0.225 1.244,-0.284 1.077,-0.323 0.793,-0.343 0.539,-0.284 0.333,-0.235 0.078,-0.01 0,0"
             style="fill:#000000;fill-opacity:1;fill-rule:nonzero;stroke:none"
             id="path694"
             inkscape:connector-curvature="0" /></g><g
           id="g696"
           transform="translate(75.5621,304.1961)"><path
             d="m 0,0 c 0.862,-0.421 1.097,-0.842 1.871,-1.43 -1.009,0.382 -1.117,0.96 -2.194,0.921 -0.715,-0.03 -1.391,-0.128 -1.881,0.421 0.598,-0.157 0.794,-0.245 1.979,-0.157 C -1.224,0.167 -1.391,0.568 -1.753,1.391 -1.43,1.126 -1.273,0.558 0,0"
             style="fill:#000000;fill-opacity:1;fill-rule:nonzero;stroke:none"
             id="path698"
             inkscape:connector-curvature="0" /></g><g
           id="g700"
           transform="translate(71.6349,312.3834)"><path
             d="M 0,0 C 0.264,0.47 0.45,0.656 0.206,1.41 0.94,0.93 0.431,0.176 0.137,-0.441 0.196,-0.656 0.225,-0.872 0.245,-1.068 0.499,-2.899 0.666,-2.977 1.498,-3.976 0.46,-3.398 0.167,-2.752 0.02,-1.773 c -1.372,0.275 -1.068,1.048 -1.038,1.371 -0.01,-0.244 0.254,-0.871 0.989,-1.057 -0.01,0.108 -0.02,0.225 -0.04,0.343 -0.088,0.91 -0.382,1.664 -0.656,2.536 C -0.441,1.068 -0.176,0.539 0,0"
             style="fill:#000000;fill-opacity:1;fill-rule:nonzero;stroke:none"
             id="path702"
             inkscape:connector-curvature="0" /></g><g
           id="g704"
           transform="translate(76.5218,309.0536)"><path
             d="m 0,0 c -0.108,0.803 0.039,1.596 -0.372,2.331 -0.255,0.45 -0.529,0.754 -0.744,1.165 -0.853,0.343 -1.039,0.617 -0.999,1.224 0.049,-0.303 0.45,-0.626 0.793,-0.803 -0.127,0.343 -0.216,0.774 -0.196,1.401 0.186,-1.077 0.617,-1.606 1.048,-2.194 0.059,0.46 0.147,0.94 0.166,1.322 C 0.108,3.868 -0.274,3.065 0.049,2.262 0.353,1.538 0.235,0.862 0,0"
             style="fill:#000000;fill-opacity:1;fill-rule:nonzero;stroke:none"
             id="path706"
             inkscape:connector-curvature="0" /></g><g
           id="g708"
           transform="translate(73.3585,320.9232)"><path
             d="m 0,0 c -0.245,-1.126 -0.137,-1.773 0.049,-2.155 0.01,0.412 0.069,0.774 0.098,1.048 C 0.186,-0.617 0.098,-0.235 0,0"
             style="fill:#000000;fill-opacity:1;fill-rule:nonzero;stroke:none"
             id="path710"
             inkscape:connector-curvature="0" /></g><g
           id="g712"
           transform="translate(72.1442,320.982)"><path
             d="M 0,0 C 0.167,-0.686 0.147,-1.146 0.333,-1.459 0.774,-2.203 1.116,-2.527 1.293,-3.575 1.342,-3.839 1.43,-4.113 1.43,-4.338 1.616,-3.271 1.44,-2.625 1.116,-2.115 0.901,-1.763 0.568,-1.498 0.441,-1.087 0.372,-0.891 0.196,0.069 0,0"
             style="fill:#000000;fill-opacity:1;fill-rule:nonzero;stroke:none"
             id="path714"
             inkscape:connector-curvature="0" /></g><g
           id="g716"
           transform="translate(69.1866,320.7861)"><path
             d="m 0,0 c 0.597,-0.725 0.578,-1.635 0.039,-2.556 0.049,0.47 0.079,0.911 0.127,1.332 C 0.225,-0.764 0.118,-0.353 0,0"
             style="fill:#000000;fill-opacity:1;fill-rule:nonzero;stroke:none"
             id="path718"
             inkscape:connector-curvature="0" /></g><g
           id="g720"
           transform="translate(67.8938,321.7165)"><path
             d="M 0,0 C -0.186,-0.705 -0.137,-1.498 0.127,-2.174 0.499,-3.154 1.322,-3.996 2.204,-5.102 1.557,-3.976 0.911,-2.987 0.451,-2.066 0.108,-1.381 0.02,-0.646 0,0"
             style="fill:#000000;fill-opacity:1;fill-rule:nonzero;stroke:none"
             id="path722"
             inkscape:connector-curvature="0" /></g><g
           id="g724"
           transform="translate(67.8938,326.3488)"><path
             d="m 0,0 c -0.372,0.548 -0.274,0.793 -0.118,1.342 0.108,0.382 0.079,0.724 0.03,1.116 C 0.255,1.998 0.255,1.684 0.118,1.214 -0.01,0.774 -0.059,0.48 0,0"
             style="fill:#000000;fill-opacity:1;fill-rule:nonzero;stroke:none"
             id="path726"
             inkscape:connector-curvature="0" /></g><g
           id="g728"
           transform="translate(71.0767,324.9287)"><path
             d="M 0,0 C 0.313,1.185 0.735,1.802 0.411,3.056 0.284,3.526 0.098,3.976 -0.069,4.476 0.313,4.074 0.539,3.643 0.666,3.163 0.989,1.969 0.832,0.97 0,0"
             style="fill:#000000;fill-opacity:1;fill-rule:nonzero;stroke:none"
             id="path730"
             inkscape:connector-curvature="0" /></g><g
           id="g732"
           transform="translate(67.3258,326.8776)"><path
             d="M 0,0 C 0.734,-0.783 0.803,-1.263 0.617,-2.243 0.48,-1.381 0.421,-1.048 -0.215,-0.294 -1.048,0.48 -1.185,1.939 -0.441,3.134 -0.783,1.959 -0.813,0.921 0,0"
             style="fill:#000000;fill-opacity:1;fill-rule:nonzero;stroke:none"
             id="path734"
             inkscape:connector-curvature="0" /></g><g
           id="g736"
           transform="translate(70.0875,337.239)"><path
             d="m 0,0 c 0.499,-0.588 0.95,-1.087 0.979,-1.831 0.03,-0.95 -0.646,-2.145 -0.901,-3.056 0.549,0.607 1.332,2.067 1.264,3.056 0.391,0.636 0.342,0.999 0.235,1.42 0,-0.372 -0.157,-0.627 -0.382,-0.862 C 0.93,-0.764 0.421,-0.313 0,0"
             style="fill:#000000;fill-opacity:1;fill-rule:nonzero;stroke:none"
             id="path738"
             inkscape:connector-curvature="0" /></g><g
           id="g740"
           transform="translate(66.8557,338.2673)"><path
             d="m 0,0 c -0.215,-0.793 -0.519,-1.871 -0.49,-2.664 0.03,-0.734 0.333,-1.273 0.745,-2.38 -0.754,0.843 -1.097,1.538 -1.156,2.204 -0.656,0.871 -0.705,1.41 -0.392,2.008 -0.039,-0.657 0.294,-1.156 0.402,-1.421 C -0.803,-1.567 -0.46,-0.862 0,0"
             style="fill:#000000;fill-opacity:1;fill-rule:nonzero;stroke:none"
             id="path742"
             inkscape:connector-curvature="0" /></g><g
           id="g744"
           transform="translate(71.1746,345.6516)"><path
             d="m 0,0 c 0.48,-0.725 0.617,-1.498 0.362,-2.331 -0.147,-0.46 -0.391,-0.862 -0.705,-1.293 -0.264,-0.372 -0.509,-0.685 -0.568,-0.852 -0.029,0.568 0.549,1.156 0.774,1.763 0.01,0.744 -0.196,1.528 -0.705,1.959 0.235,0.02 0.793,-0.578 0.969,-1.019 C 0.215,-1.234 0.274,-0.49 0,0"
             style="fill:#000000;fill-opacity:1;fill-rule:nonzero;stroke:none"
             id="path746"
             inkscape:connector-curvature="0" /></g><g
           id="g748"
           transform="translate(66.6109,346.7484)"><path
             d="m 0,0 c 0.235,-0.656 0.235,-1.508 0.176,-2.311 -0.313,0.303 -0.235,1.057 -0.852,1.449 0.167,-0.196 0.206,-0.362 0.245,-0.715 0.069,-0.607 0.313,-0.93 0.558,-1.283 C 0.049,-3.496 -0.157,-4.446 0.039,-5.073 0.088,-4.681 0.402,-3.565 0.49,-2.566 0.568,-1.557 0.451,-0.421 0,0"
             style="fill:#000000;fill-opacity:1;fill-rule:nonzero;stroke:none"
             id="path750"
             inkscape:connector-curvature="0" /></g><g
           id="g752"
           transform="translate(70.2834,347.9138)"><path
             d="M 0,0 C -0.176,0.921 -0.127,1.929 0.069,2.478 0.304,3.144 1.077,3.868 1.773,4.76 1.44,3.976 1.077,3.545 0.784,3.114 0.529,2.752 0.372,2.272 0.255,1.812 0.529,2.066 1.283,3.202 2.086,3.153 2.008,3.114 1.704,2.899 1.4,2.595 0.284,1.479 0.225,1.753 0,0"
             style="fill:#000000;fill-opacity:1;fill-rule:nonzero;stroke:none"
             id="path754"
             inkscape:connector-curvature="0" /></g><g
           id="g756"
           transform="translate(68.2562,353.0652)"><path
             d="m 0,0 c -0.676,-1.028 -1.205,-2.301 -1.195,-3.545 -0.088,0.284 -0.176,0.45 -0.166,0.715 0,0.049 0.009,0.107 0.019,0.156 -0.284,0.431 -0.264,0.882 -0.303,1.313 0.303,-0.196 0.176,-0.333 0.372,-0.794 0.225,0.911 0.48,1.46 1.273,2.155"
             style="fill:#000000;fill-opacity:1;fill-rule:nonzero;stroke:none"
             id="path758"
             inkscape:connector-curvature="0" /></g><g
           id="g760"
           transform="translate(69.9309,353.0652)"><path
             d="M 0,0 C -0.059,0.47 0.147,0.695 0.362,1.077 0.539,1.361 0.676,1.665 0.764,2.027 0.921,2.595 1.009,3.242 1.146,3.77 1.254,3.144 1.244,2.478 1.077,1.861 0.93,1.263 0.646,0.979 0.372,0.588 0.235,0.392 0.137,0.176 0,0"
             style="fill:#000000;fill-opacity:1;fill-rule:nonzero;stroke:none"
             id="path762"
             inkscape:connector-curvature="0" /></g><g
           id="g764"
           transform="translate(89.9975,332.0583)"><path
             d="M 0,0 C 0.94,0 1.704,0.764 1.704,1.694 1.704,2.634 0.94,3.398 0,3.398 -0.94,3.398 -1.704,2.634 -1.704,1.694 -1.704,0.764 -0.94,0 0,0"
             style="fill:#ed1d24;fill-opacity:1;fill-rule:nonzero;stroke:none"
             id="path766"
             inkscape:connector-curvature="0" /></g><g
           id="g768"
           transform="translate(97.2936,334.5556)"><path
             d="M 0,0 C 0.94,0 1.704,0.764 1.704,1.694 1.704,2.634 0.94,3.398 0,3.398 -0.93,3.398 -1.694,2.634 -1.694,1.694 -1.694,0.764 -0.93,0 0,0"
             style="fill:#ed1d24;fill-opacity:1;fill-rule:nonzero;stroke:none"
             id="path770"
             inkscape:connector-curvature="0" /></g><g
           id="g772"
           transform="translate(111.8564,332.0583)"><path
             d="M 0,0 C 0.94,0 1.704,0.764 1.704,1.694 1.704,2.634 0.94,3.398 0,3.398 -0.93,3.398 -1.694,2.634 -1.694,1.694 -1.694,0.764 -0.93,0 0,0"
             style="fill:#ffe600;fill-opacity:1;fill-rule:nonzero;stroke:none"
             id="path774"
             inkscape:connector-curvature="0" /></g><g
           id="g776"
           transform="translate(104.5603,334.5556)"><path
             d="M 0,0 C 0.94,0 1.704,0.764 1.704,1.694 1.704,2.634 0.94,3.398 0,3.398 -0.94,3.398 -1.704,2.634 -1.704,1.694 -1.704,0.764 -0.94,0 0,0"
             style="fill:#ffe600;fill-opacity:1;fill-rule:nonzero;stroke:none"
             id="path778"
             inkscape:connector-curvature="0" /></g></g></g></g></svg>