<svg height="349.95662" viewBox="0 0 493.86798 605.4093" width="285.749703" xmlns="http://www.w3.org/2000/svg"><g transform="matrix(1.3333333 0 0 -1.3333333 -149.91608 699.425318)"><path d="m297.638 70.512c-7.198 4.612-11.475 10.22-15.933 17.478v.017c-3.791 6.171-6.51 13.132-7.882 19.477-5.138-.063-9.319 1.561-13.245 4.89-17.267-.603-29.814 9.003-39.767 16.624-3.32 2.542-6.336 4.852-9.054 6.385-19.628 5.616-32.245 16.367-42.326 33.899-18.932 10.362-33.962 31.987-36.52 53.468-16.746 15.036-22.05 48.415-16.168 69.269-9.699 20.263-1.789 52.135 11.565 69.077-1.139 22.329 17.998 48.736 36.705 59.378 7.801 20.775 35.174 38.26 56.5 41.077 14.009 15.441 41.521 18.348 61.171 13.26l.859 8.513c-5.435 4.222-8.947 10.816-8.947 18.203 0 12.691 10.351 23.042 23.042 23.042 12.69 0 23.041-10.351 23.041-23.042 0-7.387-3.511-13.981-8.947-18.203l.859-8.513c19.651 5.088 47.162 2.181 61.172-13.26 21.326-2.817 48.699-20.302 56.5-41.077 18.707-10.642 37.843-37.049 36.705-59.378 13.354-16.942 21.262-48.814 11.565-69.077 5.882-20.854.578-54.233-16.168-69.269-2.558-21.481-17.588-43.106-36.521-53.468-10.08-17.532-22.697-28.283-42.326-33.899-2.717-1.533-5.733-3.843-9.053-6.385-9.953-7.621-22.501-17.227-39.767-16.624-3.927-3.329-8.108-4.953-13.245-4.89-1.372-6.345-4.092-13.306-7.883-19.477v-.017c-4.457-7.258-8.734-12.866-15.932-17.478z" fill="#040606"/><path d="m162.79 327.114c-2.144-12.934 1.842-23.095 3.031-35.487.735-7.652-.151-15.644-4.223-22.323 2.703-10.112 7.183-16.339 11.738-22.668 6.893-9.578 12.198-18.094 10.711-30.679 6.674-8.074 14.711-13.149 21.487-17.004 12.05-6.857 21.832-14.271 27.849-27.442 7.846-3.717 16.023-2.951 24.403-3.222 10.332-.335 20.987-2.12 28.993-9.45 3.207 1.201 7.049 1.801 10.86 1.801 3.809 0 7.65-.6 10.857-1.801 8.006 7.33 18.662 9.115 28.994 9.45 8.378.271 16.556-.495 24.403 3.222 6.017 13.171 15.798 20.585 27.849 27.442 6.776 3.855 14.813 8.93 21.486 17.004-1.486 12.585 3.819 21.101 10.711 30.679 4.554 6.329 9.036 12.556 11.739 22.668-4.073 6.679-4.957 14.671-4.224 22.323 1.19 12.392 5.176 22.553 3.032 35.487-6.551 5.788-10.445 11.83-13.574 21.852-3.27 10.472-5.674 21.175-9.043 31.647-11.915 8.252-19.992 24.68-25.103 37.772-18.15 4.146-36.419 12.203-49.494 26.412-6.875 8.318-12.651 14.506-21.86 20.22l3.901-41.975c6.965-.397 13.885-1.003 20.753-1.812 15.372-1.81 30.355-4.81 45.383-8.403l-16.359-35.668c-12.817 9.343-26.697 18.881-42.605 21.822v-19.055h-53.694v19.055c-15.908-2.941-29.789-12.479-42.605-21.822l-16.359 35.668c15.027 3.593 30.009 6.593 45.381 8.403 6.87.809 13.789 1.415 20.755 1.812l3.9 41.975c-9.209-5.714-14.986-11.902-21.861-20.22-13.073-14.209-31.343-22.266-49.491-26.412-5.112-13.092-13.19-29.52-25.105-37.772-3.369-10.472-5.773-21.175-9.043-31.647-3.129-10.022-7.022-16.064-13.573-21.852z" fill="#f25b2a"/><path d="m297.638 384.601v9.982c-7.268 4.173-14.479 5.664-22.173 5.029v-15.011z" fill="#f25b2a"/><path d="m216.804 340.728c-3.622-6.967-6.465-14.053-8.332-21.704-1.702-6.975-2.607-14.239-2.607-21.684 0-25.275 10.307-48.218 26.931-64.842 16.623-16.624 39.567-26.93 64.843-26.93 25.272 0 48.217 10.306 64.84 26.93 16.625 16.624 26.931 39.567 26.931 64.842 0 7.445-.904 14.709-2.605 21.684-1.867 7.651-4.71 14.735-8.333 21.704z" fill="#040606"/><path d="m297.638 336.054v-125.812c-7.658 0-15.09 1-22.173 2.872v122.94z" fill="#f25b2a"/><path d="m270.791 336.054h-51.138c-6.007-12.027-9.112-25.272-9.112-38.714 0-37.711 24.667-71.268 60.25-82.851z" fill="#22529c"/><path d="m324.485 214.488c35.583 11.585 60.25 45.141 60.25 82.852 0 13.442-3.106 26.687-9.113 38.714h-51.137z" fill="#0c703c"/><path d="m297.638 76.16c-9.791 6.275-16.807 21.032-19.243 32.283 1.173 4.44 3.649 7.933 8.087 9.62 3.864-1.53 7.503-2.296 11.156-2.296z" fill="#f25b2a"/><g fill="#d8d0cd"><path d="m287.009 132.842c-4.57-.703-8.839-2.588-12.424-5.346-4.247-3.268-7.539-7.752-9.243-12.946 1.353-.926 2.79-1.562 4.301-1.942 1.574-.396 3.248-.522 5.006-.422 1.808 4.82 5.796 8.724 10.663 10.413.818 3.543 1.388 6.923 1.697 10.243z"/><path d="m289.942 154.972c1.375-5.795 2.031-11.19 2.012-16.578-.02-5.415-.716-10.821-2.042-16.621 2.659-.887 5.197-1.332 7.727-1.332 2.526 0 5.063.445 7.725 1.332-1.327 5.8-2.022 11.206-2.041 16.621-.019 5.388.635 10.783 2.01 16.578-2.338.663-5.006.993-7.693.993-2.692 0-5.362-.33-7.698-.993z"/><path d="m308.267 132.842c4.569-.703 8.837-2.588 12.422-5.346 4.248-3.268 7.54-7.752 9.244-12.946-1.353-.926-2.789-1.562-4.3-1.942-1.575-.396-3.249-.522-5.007-.422-1.808 4.82-5.796 8.724-10.663 10.413-.818 3.543-1.388 6.923-1.696 10.243z"/><path d="m297.638 519.895c-10.116 0-18.367-8.251-18.367-18.367s8.251-18.368 18.367-18.368 18.367 8.252 18.367 18.368-8.251 18.367-18.367 18.367z"/><path d="m287.962 480.626-4.924-57.852c4.463.151 8.943.208 13.424.172 5.274-.042 10.553-.212 15.807-.511l-4.956 58.191c-2.944-1.371-6.222-2.14-9.675-2.14-3.452 0-6.731.769-9.676 2.14z"/><path d="m230.036 384.297c18.512 13.495 45.019 27.614 67.602 15.644 22.584 11.97 49.089-2.149 67.601-15.644l11.608 25.305c-25.438 6.082-51.954 9.328-79.209 9.328s-53.772-3.246-79.208-9.328z"/><path d="m285.461 153.651c-4.179 4.41-9.621 6.82-15.472 8.166-6.474 1.49-13.558 1.697-20.04 1.839-5.534.123-11.088.685-16.299 2.668.207-7.16 1.929-15.866 7.539-20.87 6.7 1.425 12.473 1.722 18.03.542 6.538-1.389 12.63-4.787 19.403-10.756 1.891.818 5.028 1.779 7.065 2.217-7.068 10.022-17.942 14.558-27.832 19.11 11.073-3.135 22.028-6.85 29.384-16.178-.15 4.184-.734 8.794-1.778 13.262zm-11.272-20.753c-11.662 9.784-21.763 10.826-36.274 6.973-6.238-1.656-12.61-2.773-19.011-3.602 13.101-9.485 24.759-20.148 42.391-19.165 1.035 2.79 2.847 5.839 4.59 8.189-11.287.083-20.503 3.026-28.891 7.685 10.171-2.938 20.137-4.919 30.976-5.047 1.018 1.027 2.62 2.371 3.766 3.254.791.607 1.61 1.179 2.453 1.713zm-38.241 11.279c-1.958 2.348-3.444 5.128-4.531 8.138-.956 2.651-1.603 5.484-1.993 8.353-13.84 7.847-23.753 7.088-33.8 6.319-6.162-.471-12.373-.944-19.591.38 3.935-6.176 8.23-11.375 13.44-15.679 5.983-4.942 13.219-8.738 22.561-11.523 4.49.465 8.769 1.017 12.876 1.704.04.007.079.014.119.021-11.184 3.506-23.71 11.11-30.331 17.629 9.865-5.528 25.133-13.018 36.076-16.572 1.074.245 4.124.96 5.174 1.23zm-6.974 22.034c-.166 5.773-5.72 13.184-12.145 19.644-1.249 1.107-2.547 2.117-3.84 3.033-3.324 2.35-6.553 4.188-9.756 6.01-6.971 3.967-13.832 7.872-20.804 16.066-1.188-5.867-2.038-11.794-2.05-17.544-.017-7.89 1.545-15.492 5.999-22.224 3.038.02 5.974.241 8.9.466 3.031.232 7.43.462 10.543.482-3.758 8.266-11.289 15.341-17.206 22.535 7.896-6.731 15.909-13.342 21.134-22.735 5.746-.496 11.963-2.018 19.225-5.733zm-51.373 12.941c-1.36 4.605-1.906 9.396-1.897 14.268.006 2.791.195 5.604.516 8.421-5.867 3.93-12.158 6.174-18.53 8.444-6.462 2.305-13.005 4.639-19.467 8.756 1.744-8.648 5.599-17.18 10.822-24.726 6.244-9.019 14.424-16.602 23.267-21.281 2.72-.78 5.304-1.262 7.791-1.532-9.896 7.628-21.676 23.265-25.914 31.488 5.547-6.946 13.634-17.662 23.412-23.838zm-.669 27.768c4.422 16.387 1.939 24.054-7.374 36.995-4.388 6.097-8.709 12.101-11.643 21.352-10.251-12.702-11.515-31.616-8.118-46.991 3.144-1.342 6.304-2.47 9.445-3.59.788-.282 1.575-.561 2.361-.845.281 10.234-2.225 22.459-3.504 31.599 2.224-7.346 5.666-18.673 7.83-33.214 3.717-1.454 7.393-3.105 11.003-5.306zm-33.494 22.186c-.334 5.171-.168 11.206.575 16.267.656 4.471 1.762 8.84 3.367 12.994-3.711 5.219-8.192 9.258-12.722 13.343-4.972 4.482-9.999 9.018-14.328 15.264-1.948-9.67-1.513-21.034.873-31.633 3.496-15.528 9.347-27.038 22.982-34.379-6.974 10.48-14.424 33.37-15.525 42.88 3.079-8.304 9.127-24.99 14.778-34.736zm6.381 34.141c12.607 12.314 13.153 22.913 9.538 39.051-1.311 6.446-2.569 12.632-1.763 21.096-14.478-11.71-23.416-22.699-26.872-41.579 2.299-2.344 4.686-4.497 7.059-6.636.223-.203.447-.405.672-.606 3.737 8.189 9.513 22.766 12.672 31.527-1.024-8.857-5.879-23.893-9.595-34.287 2.896-2.625 5.766-5.372 8.289-8.566zm-20.646 31.178c2.942 8.69 8.9 16.985 15.265 23.447-1.547 5.724-4.891 12.474-7.334 17.556-2.902 6.035-5.835 12.136-7.472 19.566-5.494-8.17-9.436-18.662-11.261-29.183-2.647-15.258-1.547-27.069 7.777-38.843-2.426 12.371-1.656 34.258 1.103 43.468-.432-9.025.054-24.792 1.922-36.011zm42.257 54.532c3.175 9.155 4.97 18.878 7.966 28.191-18.21-5.587-31.743-14.723-42.098-30.879 1.248-3.065 2.685-6.05 4.12-9.032 5.019 3.283 14.742 14.274 21.638 22.008-4.594-9.285-13.911-20.782-19.779-25.941 1.777-3.843 3.647-8.177 4.824-11.908 10.167 8.628 18.255 11.72 23.329 27.561zm-8.05 27.024c.831 5.949.49 11.678.147 17.465-.397 6.679-.796 13.436.514 20.944-8.159-5.473-15.748-13.692-21.403-22.742-8.302-13.285-11.816-24.887-7.451-39.444 2.562 12.313 11.814 30.992 17.691 38.414-3.28-7.702-9.616-22.285-13.077-33.195 3.456 3.935 8.422 8.945 12.579 12.028 3.458 2.564 7.138 4.774 11 6.53zm42.323 42.735c-16.881-.051-31.883-7.86-37.875-15.301-.006-3.286.184-6.5.373-9.695.092-1.543.184-3.082.254-4.626 4.645 3.945 14.11 11.73 20.679 17.043-6.832-8.466-16.719-17.647-20.557-22.679-.016-1.814-.094-3.649-.267-5.522 20.86 6.213 30.113 21.749 37.393 40.78zm-4.927 3.963c6.108 8.128 8.825 22.936 17.611 33.615-9.589-2.005-19.752-6.853-28.469-13.191-7.485-5.443-13.856-11.954-17.818-18.658-2.412-4.084-3.406-9.352-3.907-14.054.252.215.511.431.774.645 7.488 10.168 21.722 22.669 29.461 27.066-5.115-5.099-13.84-13.737-20.717-21.461 7.026 3.449 12.623 4.972 23.065 6.038zm5.857.436c16.505.675 40.202 12.098 51.358 26.023-12.516 4.378-35.661 1.435-40.707-2.941-1.453-2.688-2.719-5.501-3.899-8.275 7.496 2.342 21.555 5.9 29.5 6.51-9.555-3.313-24.101-7.977-31.152-10.456-1.628-3.911-3.197-7.61-5.1-10.861zm53.941 30.071c5.73 6.891 13.228 12.578 21.524 17.426-22.241 4.209-47.188 2.871-59.973-17.236 9.411 4.499 22.784 10.341 38.277 12.101-5.717-1.987-18.099-5.864-25.143-9.739 7.91.521 17.891.03 24.266-2.2l.52-.183c.177-.054.353-.11.529-.169z"/><path d="m309.814 153.651c4.18 4.41 9.622 6.82 15.472 8.166 6.475 1.49 13.56 1.697 20.04 1.839 5.533.123 11.088.685 16.299 2.668-.206-7.16-1.928-15.866-7.537-20.87-6.701 1.425-12.475 1.722-18.031.542-6.537-1.389-12.63-4.787-19.404-10.756-1.89.818-5.026 1.779-7.063 2.217 7.067 10.022 17.94 14.558 27.831 19.11-11.073-3.135-22.027-6.85-29.385-16.178.151 4.184.735 8.794 1.778 13.262zm11.272-20.753c11.662 9.784 21.763 10.826 36.274 6.973 6.239-1.656 12.611-2.773 19.012-3.602-13.101-9.485-24.76-20.148-42.392-19.165-1.035 2.79-2.846 5.839-4.589 8.189 11.287.083 20.504 3.026 28.891 7.685-10.172-2.938-20.137-4.919-30.976-5.047-1.019 1.027-2.62 2.371-3.767 3.254-.791.607-1.608 1.179-2.453 1.713zm38.241 11.279c1.959 2.348 3.444 5.128 4.531 8.138.957 2.651 1.604 5.484 1.994 8.353 13.84 7.847 23.752 7.088 33.799 6.319 6.162-.471 12.374-.944 19.591.38-3.934-6.176-8.229-11.375-13.439-15.679-5.984-4.942-13.219-8.738-22.562-11.523-4.489.465-8.768 1.017-12.876 1.704-.039.007-.078.014-.119.021 11.186 3.506 23.71 11.11 30.331 17.629-9.864-5.528-25.133-13.018-36.074-16.572-1.075.245-4.125.96-5.176 1.23zm6.975 22.034c.167 5.773 5.719 13.184 12.144 19.644 1.25 1.107 2.548 2.117 3.841 3.033 3.323 2.35 6.553 4.188 9.756 6.01 6.971 3.967 13.832 7.872 20.805 16.066 1.186-5.867 2.037-11.794 2.048-17.544.017-7.89-1.544-15.492-5.999-22.224-3.037.02-5.973.241-8.9.466-3.03.232-7.43.462-10.543.482 3.76 8.266 11.29 15.341 17.207 22.535-7.895-6.731-15.908-13.342-21.134-22.735-5.746-.496-11.964-2.018-19.225-5.733zm51.373 12.941c1.359 4.605 1.905 9.396 1.896 14.268-.006 2.791-.194 5.604-.515 8.421 5.867 3.93 12.159 6.174 18.53 8.444 6.462 2.305 13.005 4.639 19.467 8.756-1.743-8.648-5.6-17.18-10.823-24.726-6.244-9.019-14.422-16.602-23.265-21.281-2.722-.78-5.306-1.262-7.792-1.532 9.896 7.628 21.676 23.265 25.914 31.488-5.547-6.946-13.635-17.662-23.412-23.838zm.67 27.768c-4.423 16.387-1.94 24.054 7.374 36.995 4.386 6.097 8.707 12.101 11.641 21.352 10.251-12.702 11.516-31.616 8.119-46.991-3.143-1.342-6.304-2.47-9.446-3.59-.788-.282-1.573-.561-2.359-.845-.282 10.234 2.223 22.459 3.504 31.599-2.226-7.346-5.667-18.673-7.831-33.214-3.717-1.454-7.394-3.105-11.002-5.306zm33.494 22.186c.333 5.171.167 11.206-.575 16.267-.658 4.471-1.763 8.84-3.368 12.994 3.71 5.219 8.193 9.258 12.721 13.343 4.973 4.482 9.999 9.018 14.328 15.264 1.949-9.67 1.515-21.034-.873-31.633-3.496-15.528-9.346-27.038-22.981-34.379 6.974 10.48 14.423 33.37 15.524 42.88-3.079-8.304-9.126-24.99-14.776-34.736zm-6.382 34.141c-12.607 12.314-13.153 22.913-9.538 39.051 1.31 6.446 2.568 12.632 1.763 21.096 14.477-11.71 23.416-22.699 26.872-41.579-2.299-2.344-4.686-4.497-7.06-6.636-.222-.203-.446-.405-.671-.606-3.737 8.189-9.512 22.766-12.672 31.527 1.024-8.857 5.878-23.893 9.595-34.287-2.896-2.625-5.767-5.372-8.289-8.566zm20.647 31.178c-2.943 8.69-8.902 16.985-15.266 23.447 1.547 5.724 4.891 12.474 7.334 17.556 2.901 6.035 5.835 12.136 7.471 19.566 5.495-8.17 9.436-18.662 11.26-29.183 2.649-15.258 1.548-27.069-7.775-38.843 2.426 12.371 1.656 34.258-1.104 43.468.432-9.025-.053-24.792-1.92-36.011zm-42.258 54.532c-3.175 9.155-4.971 18.878-7.966 28.191 18.209-5.587 31.742-14.723 42.099-30.879-1.25-3.065-2.685-6.05-4.121-9.032-5.019 3.283-14.743 14.274-21.638 22.008 4.593-9.285 13.911-20.782 19.778-25.941-1.776-3.843-3.647-8.177-4.823-11.908-10.167 8.628-18.255 11.72-23.329 27.561zm8.05 27.024c-.831 5.949-.491 11.678-.148 17.465.398 6.679.798 13.436-.514 20.944 8.16-5.473 15.749-13.692 21.404-22.742 8.301-13.285 11.815-24.887 7.45-39.444-2.561 12.313-11.814 30.992-17.691 38.414 3.282-7.702 9.618-22.285 13.079-33.195-3.456 3.935-8.423 8.945-12.58 12.028-3.458 2.564-7.138 4.774-11 6.53zm-42.324 42.735c16.881-.051 31.883-7.86 37.876-15.301.005-3.286-.184-6.5-.374-9.695-.091-1.543-.183-3.082-.254-4.626-4.644 3.945-14.109 11.73-20.678 17.043 6.833-8.466 16.718-17.647 20.556-22.679.017-1.814.095-3.649.268-5.522-20.861 6.213-30.113 21.749-37.394 40.78zm4.928 3.963c-6.108 8.128-8.825 22.936-17.611 33.615 9.59-2.005 19.752-6.853 28.469-13.191 7.485-5.443 13.856-11.954 17.818-18.658 2.412-4.084 3.405-9.352 3.906-14.054-.252.215-.51.431-.773.645-7.489 10.168-21.721 22.669-29.461 27.066 5.115-5.099 13.84-13.737 20.716-21.461-7.026 3.449-12.623 4.972-23.064 6.038zm-5.856.436c-16.506.675-40.203 12.098-51.359 26.023 12.517 4.378 35.66 1.435 40.706-2.941 1.453-2.688 2.72-5.501 3.9-8.275-7.495 2.342-21.554 5.9-29.5 6.51 9.554-3.313 24.099-7.977 31.152-10.456 1.628-3.911 3.196-7.61 5.101-10.861zm-53.943 30.071c-5.728 6.891-13.227 12.578-21.522 17.426 22.241 4.209 47.186 2.871 59.971-17.236-9.411 4.499-22.784 10.341-38.277 12.101 5.718-1.987 18.101-5.864 25.144-9.739-7.911.521-17.89.03-24.267-2.2l-.52-.183c-.176-.054-.352-.11-.529-.169z"/></g><path d="m425.479 292.314c-2.475 6.594-9.357 9.646-16.097 9.118-5.699-.45-10.781-3.897-12.403-9.449l.001-.005c-1.32-4.52-.341-9.516 2.998-12.976 2.705-2.8 6.417-4.25 10.252-4.566 4.699-.383 9.576.964 12.811 4.654 3.105 3.546 4.106 8.794 2.438 13.224zm-4.754-8.842c-1.607-2.818-4.694-4.166-7.851-4.381-3.379-.229-7.198.643-9.684 3.068-2.274 2.22-2.817 5.565-1.947 8.555 1.134 3.892 4.704 5.781 8.523 6.017 2.793.174 5.89-.368 8.261-1.909 1.505-.982 2.671-2.371 3.302-4.058.858-2.282.591-5.203-.604-7.292zm-22.333 21.789 25.929 15.273-1.094 4.206-18.868.996 16.12 9.562-1.087 4.175-30.235 1.327 1.213-4.659 21.604-.668-16.395-9.86 1.02-3.92 19.174-.951-18.632-10.674zm-1.793 55.01c0 2.158-1.76 3.918-3.917 3.918-2.159 0-3.918-1.76-3.918-3.918 0-2.157 1.759-3.917 3.918-3.917 2.157 0 3.917 1.76 3.917 3.917zm-5.163-123.072c-4.942 2.879-11.082 2.936-15.577-.703v-.004c-3.66-2.967-5.702-7.63-4.926-12.374.629-3.844 2.855-7.147 5.829-9.59 3.642-2.993 8.419-4.659 13.178-3.469 4.574 1.145 8.385 4.889 9.539 9.48 1.717 6.83-2.202 13.258-8.043 16.66zm-2.363-4.082c2.396-1.446 4.635-3.654 5.704-6.271.68-1.666.844-3.471.405-5.218-.594-2.363-2.479-4.613-4.65-5.651-2.927-1.4-6.23-.751-8.948.87-2.908 1.735-5.55 4.628-6.212 8.037-.606 3.121.851 6.179 3.269 8.14 3.15 2.555 7.159 2.072 10.432.093zm-22.055-38.263-3.332 4.708 1.918 8.935-2.614 3.342-1.861-8.665-8.263 11.672-3.796-2.689 16.719-23.619 13.641 9.657-2.568 3.628zm-2.418 161.13h-.001c-.056.32-.124.626-.205.919-1.431 5.172-6.995 6.08-11.505 6.918-1.788.332-3.411.484-4.761 1.02-1.823.724-2.924 2.455-2.101 3.795 1.03 1.679 4.478 1.959 6.176 1.972 3.085.021 6.168-1.123 8.737-2.737l2.549 3.853c-3.355 2.11-7.314 3.597-11.331 3.567-4.174-.03-9.819-1.488-11.18-6.019-.915-3.046.425-6.562 3.701-8.283 3.874-2.034 8.468-1.724 12.445-3.322 2.141-.862 3.456-2.624 2.016-4.723-.858-1.246-2.479-2.153-3.716-2.463-4.106-1.028-9.613 1.109-12.458 4.075l-3.584-3.448c4.097-4.265 11.627-6.979 17.484-5.405 4.487 1.206 8.564 5.402 7.734 10.281zm-22.928-151.136c-4.362 1.366-8.876.889-12.747-1.503-3.156-1.951-5.282-5.05-5.967-8.695-.757-4.024.209-8.267 2.243-11.785 1.874-3.238 4.861-5.848 8.524-6.793 3.668-.945 7.376-.094 10.681 1.668 2.318 1.234 4.116 2.843 5.601 4.992l-4.574 12.178-10.055-3.777 1.591-4.237 5.704 2.143 2.09-5.565c-2.064-2.022-5.538-3.488-8.312-3.311-.608.038-1.185.138-1.729.298h-.005c-2.452.717-4.278 2.653-5.476 4.841-1.387 2.532-2.19 5.577-1.716 8.461.395 2.392 1.728 4.478 3.786 5.775 3.008 1.898 6.061 1.747 9.402.789zm-20.743 158.03 12.636 11.497-7.016.003-14.786-13.086v13.201h-4.988v-27.976h4.988v8.103l5.431 4.925 3.83-5.703c3.219-4.788 6.513-6.308 11.969-7.605v4.999c-3.187.738-5.8 2.451-7.654 5.172zm-19.373-178.708c0 2.157-1.76 3.918-3.916 3.918-2.158 0-3.918-1.761-3.918-3.918s1.76-3.918 3.918-3.918c2.156 0 3.916 1.761 3.916 3.918zm-30.721 162.088h27.035v4.435h-20.259l19.994 17.722.088.082v5.79h-26.743v-4.637h20.361l-20.386-18.298zm5.895-146.405-9.707-9.716-3.79 13.383-.181.642-.638.172-2.521.681-1.995.539.571-1.983 5.022-17.473-2.728-10.091-.304-1.123 1.127-.306 2.201-.595 1.124-.302.305 1.127 2.73 10.097 12.865 12.636 1.453 1.427-1.966.53-2.441.66-.647.175zm-18.476 146.369h4.993l-2.719 28.101h-6.38l-8.214-17.767-6.856 17.767h-6.364l-4.462-28.101h5.046l3.311 20.693 7.109-18.423h3.972l8.529 18.453zm-28.569-121.601c-.617 1.101-1.472 2.233-2.564 3.398l-5.418 5.778-21.105-19.797 6.58-7.017c2.522-2.689 5.993-4.648 9.723-3.25 2.666 1.004 5.167 3.691 5.623 6.537.149.935.104 1.895-.135 2.876 2.326-.326 4.388.567 6.053 2.127 2.773 2.602 3.123 5.991 1.243 9.348zm-13.967-8.204c2.13-2.273 3.632-4.886.968-7.385-.436-.409-.895-.701-1.372-.875l-.005-.007c-1.947-.709-3.715.56-5.004 1.935l-3.316 3.534 6.039 5.664zm9.544 2.251c-1.311-1.23-2.923-1.595-4.515-.657-.645.38-1.326.952-2.042 1.715l-2.436 2.597 5.434 5.098 2.321-2.474c1.53-1.633 3.373-4.277 1.238-6.279zm-12.144 26.818-.003.002c-1.54 4.453-5.227 7.963-9.953 8.851-3.827.718-7.692-.247-11.003-2.209-4.055-2.403-7.25-6.327-7.755-11.206-.482-4.691 1.738-9.55 5.66-12.2 5.836-3.943 13.215-2.451 18.404 1.879 4.391 3.664 6.539 9.417 4.65 14.883zm-7.681-11.269c-2.177-1.758-5.016-3.111-7.84-3.223-1.798-.072-3.551.389-5.044 1.398-2.019 1.366-3.491 3.903-3.727 6.297-.319 3.229 1.419 6.115 3.869 8.117 2.623 2.142 6.244 3.637 9.673 3.099 3.141-.495 5.52-2.908 6.539-5.85 1.328-3.831-.493-7.435-3.47-9.838zm1.075 126.054c0 2.158-1.76 3.918-3.918 3.918-2.157 0-3.917-1.76-3.917-3.918 0-2.157 1.76-3.917 3.917-3.917 2.158 0 3.918 1.76 3.918 3.917zm-8.78-22.047c-3.093 2.449-7.317 3.816-11.236 3.756-10.331-.157-15.71-10.345-11.889-19.432l4.346 1.233c-2.836 6.483.142 13.397 7.6 13.478 2.839.033 6.059-1.022 8.318-2.738 5.94-4.518 4.246-11.331-1.287-15.168l2.63-3.609c8.33 5.144 9.339 16.286 1.518 22.48zm.883-27.561-28.942.289-.046-4.657 12.515-.124-.127-12.707-12.515.124-.046-4.656 28.942-.289.046 4.657-11.977.118.126 12.708 11.977-.12zm.519-29.294-27.833-7.92 1.273-4.472 10.639 3.027.856-3.008-6.044-6.111c-.503-.483-.92-.983-1.249-1.5-1.39-2.19-.82-4.297-.163-6.604l4.198 1.196c-.699 2.451-.552 2.529 1.225 4.294l4.116 4.092c1.45-2.068 3.645-3.644 6.226-3.827 1.87-.134 4.03.458 5.657 1.394 1.369.789 2.491 1.922 3.203 3.356.534 1.077.812 2.305.834 3.681.015 1.034-.09 2.08-.275 3.127-.555 3.142-1.821 6.307-2.663 9.275zm-1.531-11.937c-.014-1.273-.461-2.365-1.494-3.141-2.021-1.52-5.058-1.517-6.54.855-.589.945-.913 1.993-1.213 3.044l-.862 3.032 8.675 2.467 1.008-3.544.003.002c.291-1.02.432-1.927.423-2.715zm-19.581-6.549.003.002c.008.008.014.016.023.025zm61.727-46.274-14.086-25.277 4.063-2.265 5.384 9.663 2.732-1.521.045-8.598c-.014-.694.044-1.342.177-1.941.566-2.531 2.459-3.619 4.553-4.785l2.125 3.812c-2.227 1.239-2.178 1.4-2.17 3.904l.019 5.803c2.487-.438 5.153 0 7.108 1.696 1.417 1.229 2.527 3.172 3.015 4.985.411 1.524.403 3.12-.107 4.638-.383 1.139-1.055 2.205-2.013 3.193-.72.742-1.533 1.407-2.405 2.016-2.613 1.831-5.747 3.175-8.44 4.677zm-2.473-13.99 4.391 7.878 3.219-1.793v.004c.928-.518 1.668-1.061 2.219-1.623.891-.91 1.346-1.998 1.164-3.279-.356-2.501-2.505-4.648-5.23-4.016-1.085.251-2.055.763-3.01 1.295zm.611-14.008c0 .012-.001.023-.001.035zm153.647 101.953 3.462-3.467.111 4.568-3.437 4.446zm10.731-48.007c3.667-.735 7.6-.221 10.731 1.903 3.134 2.127 4.947 5.472 5.811 9.115.608 2.556.589 4.969-.042 7.506l-12.161 4.618-3.814-10.04 4.231-1.608 2.164 5.695 5.557-2.112c.151-2.884-1.044-6.46-3.013-8.423-.431-.432-.886-.798-1.366-1.102l-.004-.004c-2.158-1.364-4.817-1.454-7.252-.906-2.816.633-5.632 2.044-7.481 4.308-1.535 1.877-2.217 4.256-1.829 6.657.562 3.512 2.696 5.703 5.624 7.576l-2.757 3.708c-3.91-2.369-6.538-6.071-7.302-10.557-.622-3.658.297-7.301 2.576-10.224 2.52-3.231 6.342-5.311 10.327-6.11z" fill="#040606"/></g></svg>