<svg enable-background="new 0 0 566.9 566.9" height="316.227766" viewBox="0 0 566.9 566.9" width="316.227766" xmlns="http://www.w3.org/2000/svg" xmlns:xlink="http://www.w3.org/1999/xlink"><mask id="a" height="510.2" maskUnits="userSpaceOnUse" width="430.7" x="68.1" y="29.4"><path d="m68.1 29.4h430.7v510.2h-430.7z" fill="url(#c)"/></mask><linearGradient id="b"><stop offset="0" stop-color="#fff"/><stop offset="1"/></linearGradient><linearGradient id="c" gradientUnits="userSpaceOnUse" x1="62.2398" x2="278.0107" xlink:href="#b" y1="57.5654" y2="278.9026"/><mask id="d" height="510.2" maskUnits="userSpaceOnUse" width="430.7" x="68.1" y="29.4"><path d="m68.1 29.4h430.7v510.2h-430.7z" fill="url(#e)"/></mask><linearGradient id="e" gradientUnits="userSpaceOnUse" x1="427.0646" x2="291.077" xlink:href="#b" y1="478.5206" y2="294.7795"/><path clip-rule="evenodd" d="m553.9 182.9 13.1 7-.1 9.3c-.5 44-5.8 87.8-15.9 130.7l-4.6 19.4-15.1-8.1c-42 106.3-133.8 184.6-243.5 216.8l-2.1.6h-4.4l-2.1-.6c-109.7-32.2-201.5-110.5-243.4-216.8l-15.1 8.1-4.7-19.4c-10.1-42.8-15.4-86.6-15.9-130.7l-.1-9.2 13.1-7c3.2-37.3 12.1-73.7 25.6-108.7l2.1-5.4 5.1-2.7c146.2-77.4 329-77 475.3 0l5.1 2.7 2.1 5.4c13.3 34.9 22.2 71.4 25.5 108.6z" fill="#fff" fill-rule="evenodd"/><path d="m553.9 182.9 13.1 7-.1 9.3c-.5 44-5.8 87.8-15.9 130.7l-4.6 19.4-15.1-8.1c-42 106.3-133.8 184.6-243.5 216.8l-2.1.6h-4.4l-2.1-.6c-109.7-32.2-201.5-110.5-243.4-216.8l-15.1 8.1-4.7-19.4c-10.1-42.8-15.4-86.6-15.9-130.7l-.1-9.2 13.1-7c3.2-37.3 12.1-73.7 25.6-108.7l2.1-5.4 5.1-2.7c146.2-77.4 329-77 475.3 0l5.1 2.7 2.1 5.4c13.3 34.9 22.2 71.4 25.5 108.6z" fill="none" stroke="#000" stroke-miterlimit="22.9256" stroke-width=".2925"/><g clip-rule="evenodd" fill-rule="evenodd"><path d="m53 79.5c-82.2 213 40.6 407.8 230.5 463.5 189.8-55.6 312.7-250.5 230.5-463.5-141.8-74.6-319.2-75.1-461 0" fill="#006c38"/><path d="m31 326.1c-9.7-40.9-15-83.5-15.5-127.3l72-38.8c-1.9 45.2.7 89.2 7.2 131.8z" fill="#e3000f"/><path d="m31 326.1c-4.9-20.7-8.7-41.8-11.3-63.3l68.2-36.7c1.2 22.3 3.5 44.2 6.8 65.8z" fill="#ffed00"/><path d="m536 326.1c9.7-40.9 15-83.5 15.5-127.3l-72-38.8c1.9 45.2-.7 89.2-7.2 131.8z" fill="#e3000f"/><path d="m536 326.1c4.9-20.7 8.7-41.8 11.3-63.3l-68.2-36.7c-1.2 22.3-3.5 44.2-6.8 65.8z" fill="#ffed00"/><path d="m88 76.5c120-68.8 270.5-67.1 390.9 0l1.3.7.5 1.5c15.4 46.5 23.2 95.2 21.8 144.2-1.2 44.6-10 88.9-26.4 130.4-30.4 76.6-86.7 142.6-161.8 178.1-9.6 4.6-19.5 8.6-29.6 12l-.6.2h-1.3l-.6-.2c-10.1-3.4-20-7.5-29.7-12-75.1-35.5-131.4-101.5-161.8-178.1-16.4-41.5-25.2-85.8-26.4-130.4-1.3-49 6.4-97.7 21.8-144.2l.5-1.4z" fill="#fff"/><path d="m89.9 79.9c-69 208.2 34.1 405.3 193.5 459.7 159.5-54.4 262.6-251.6 193.6-459.7-120.6-67.1-269.6-67.5-387.1 0" fill="#e3000f"/><path d="m89.9 79.9c-69 208.2 34.1 405.3 193.5 459.7 159.5-54.4 262.6-251.6 193.6-459.7-120.6-67.1-269.6-67.5-387.1 0" fill="#952624" mask="url(#a)"/><path d="m89.9 79.9c-69 208.2 34.1 405.3 193.5 459.7 159.5-54.4 262.6-251.6 193.6-459.7-120.6-67.1-269.6-67.5-387.1 0" fill="#952624" mask="url(#d)"/><path d="m156.3 453.3c34.9 39.6 78.4 69.7 127.2 86.3 48.8-16.6 92.3-46.7 127.2-86.3z" fill="#ffed00"/></g><path d="m374.2 478.5h-7.7c-1.4 0-2.6-.3-3.7-1-1-.7-1.5-1.5-1.5-2.5v-15.8c0-.6.4-.9 1.4-.9h11.4c.9 0 1.4.3 1.4.9v1.9c0 .6-.4.9-1.4.9h-7.3v4.5h6.1c.9 0 1.4.3 1.4.9v1.9c0 .6-.5.9-1.4.9h-6.1v4.5h7.4c.9 0 1.4.3 1.4.9v1.9c-.1.7-.5 1-1.4 1m-17.6-.9c-1 .6-2.1.9-3.4.9h-5.8c-1.4 0-2.7-.4-3.8-1.1s-1.6-1.6-1.6-2.6v-12.8c0-1 .6-1.9 1.7-2.6s2.4-1.1 3.8-1.1h5.8c1.4 0 2.7.4 3.8 1.1 1.1.8 1.7 1.6 1.7 2.6v.6c0 .6-.4.9-1.4.9h-2.8c-.9 0-1.3-.3-1.3-.9v-.6h-5.9v12.8h5.9v-.8c0-.6.4-.9 1.3-.9h2.8c.9 0 1.4.3 1.4.9v.7c-.1 1.1-.8 2.1-2.2 2.9zm-18.6.9h-2.8c-.9 0-1.4-.3-1.4-.9v-18.4c0-.6.4-.9 1.4-.9h2.8c.9 0 1.4.3 1.4.9v18.4c-.1.6-.5.9-1.4.9zm-8.1 0h-2.8c-.9 0-1.4-.3-1.4-.9v-10.5l-3.5 5.2c-.2.4-.6.5-1.2.5s-1-.2-1.2-.5l-3.5-5.2v10.5c0 .6-.5.9-1.4.9h-2.8c-.9 0-1.3-.3-1.3-.9v-18.4c0-.6.4-.9 1.3-.9h3.2c.6 0 1 .2 1.2.5l4.4 6.4 4.4-6.4c.2-.4.6-.5 1.2-.5h3.2c.9 0 1.4.3 1.4.9v18.4c.1.6-.3.9-1.2.9zm-27.1-3.7v-12.8h-6.2v12.8zm0 3.7h-6.2c-1.5 0-2.7-.4-3.8-1.1s-1.6-1.6-1.6-2.6v-12.8c0-1 .6-1.9 1.6-2.6 1.1-.7 2.4-1.1 3.8-1.1h6.2c1.4 0 2.7.4 3.8 1.1s1.7 1.6 1.7 2.6v12.8c0 1-.6 1.9-1.7 2.6-1.2.7-2.4 1.1-3.8 1.1zm-35.9-3.7v-12.8h-6.2v12.8zm0 3.7h-6.2c-1.5 0-2.7-.4-3.8-1.1s-1.6-1.6-1.6-2.6v-12.8c0-1 .6-1.9 1.6-2.6 1.1-.7 2.4-1.1 3.8-1.1h6.2c1.4 0 2.7.4 3.8 1.1s1.7 1.6 1.7 2.6v12.8c0 1-.6 1.9-1.7 2.6s-2.4 1.1-3.8 1.1zm-19.7-10.6v-5.9h-5.5v5.9zm-.1 3.7h-5.5v6c0 .6-.4.9-1.3.9h-2.8c-.9 0-1.4-.3-1.4-.9v-18.4c0-.6.4-.9 1.4-.9h9.6c1.4 0 2.7.4 3.8 1.1 1.1.8 1.7 1.6 1.7 2.6v5.9c0 1-.6 1.9-1.7 2.6s-2.4 1.1-3.8 1.1zm-14.9 6.9h-7.7c-1.4 0-2.6-.3-3.7-1-1-.7-1.5-1.5-1.5-2.5v-15.8c0-.6.4-.9 1.4-.9h11.4c.9 0 1.4.3 1.4.9v1.9c0 .6-.4.9-1.4.9h-7.3v4.5h6.1c.9 0 1.4.3 1.4.9v1.9c0 .6-.5.9-1.4.9h-6.1v4.5h7.4c.9 0 1.4.3 1.4.9v1.9c-.1.7-.5 1-1.4 1zm-16.8 0h-2.8c-.9 0-1.4-.3-1.4-.9v-18.4c0-.6.4-.9 1.4-.9h2.8c.9 0 1.4.3 1.4.9v18.4c-.1.6-.5.9-1.4.9zm69.4-10.3-4.3 2.7v3.8h6.7c.9 0 1.3.3 1.3.9v1.9c0 .6-.4.9-1.3.9h-7c-1.4 0-2.7-.3-3.7-1s-1.5-1.5-1.5-2.5v-15.8c0-.6.4-.9 1.4-.9h2.8c.9 0 1.4.3 1.4.9v7.4l2.3-1.5c.7-.5 1.3-.4 1.6.1l1 1.6c.2.5 0 1-.7 1.5zm-82.4 9.7-5.6-10v9.7c0 .6-.5.9-1.4.9h-2.7c-.9 0-1.4-.3-1.4-.9v-18.4c0-.6.4-.9 1.4-.9h3.6c.6 0 1 .2 1.3.6l5.6 10.1v-9.7c0-.6.4-.9 1.4-.9h2.7c.9 0 1.4.3 1.4.9v18.4c0 .6-.4.9-1.3.9h-3.6c-.7-.1-1.1-.3-1.4-.7z"/><path clip-rule="evenodd" d="m270.8 166.9h25.3c65.4 0 118.9 53.5 118.9 118.9l.2 162.2c-1.5 1.8-3 3.5-4.6 5.3h-254.3c-1.4-1.6-2.8-3.2-4.2-4.9l-.2-162.6c0-65.4 53.5-118.9 118.9-118.9" fill="#fff" fill-rule="evenodd"/><path clip-rule="evenodd" d="m283.5 173.5-.3.7c-10.3 26.3-29.1 52.6-55.1 79 10.6 0 21.9-4 33.5-9.1-4.8 14.6-22.3 26.2-48.5 35.7 1.4 3.1 4.8 5.5 10.1 7.2-2.2 4.9-8.6 9.8-18.3 14.7 4.2 2.1 11.3 3 20.1 3.2-13.7 11.1-30.7 21.1-50.9 30.3 17.8 1.4 41-2 66.8-7.5-13 11.8-30.6 22.1-60.8 28.3 3 2.6 7.7 4.2 14 4.9-4.4 5.2-13.1 10.4-23.8 15.6 19.4 3.5 44.6.7 76.2-9-11.4 20.4-40.3 30.4-83.8 31.8 10.3 15.3 40.9 18.5 96 7-8.3 13.4-34.7 20.9-81.9 21.6 9.6 11.2 37.9 14.1 86.9 7.9l-.2 17.6h39.8l-.2-17.6c49 6.3 77.3 3.4 86.9-7.9-47.3-.7-73.6-8.2-81.9-21.6 55.1 11.5 85.7 8.3 96-7-43.5-1.4-72.4-11.4-83.8-31.8 31.6 9.7 56.8 12.5 76.2 9-10.8-5.2-19.4-10.4-23.8-15.6 6.4-.6 11.1-2.3 14-4.9-30.2-6.2-47.8-16.5-60.8-28.3 25.7 5.6 49 9 66.8 7.5-20.2-9.1-37.2-19.2-50.9-30.3 8.8-.2 15.9-1.1 20.1-3.2-9.7-4.9-16.1-9.8-18.3-14.7 5.3-1.7 8.7-4.1 10.1-7.2-26.2-9.5-43.7-21.1-48.5-35.7 11.6 5.1 22.9 9.1 33.5 9.1-25.9-26.3-44.8-52.6-55.1-79z" fill="#006c38" fill-rule="evenodd"/><path d="m306.6 513.8h-4.7c-1.2 0-2.3-.5-3.2-1.4s-1.4-2-1.4-3.2v-.9c0-.8.4-1.1 1.1-1.1h2.3c.7 0 1.1.4 1.1 1.1v.9h4.7v-5.6h-3.9c-.8 0-1.1-.4-1.1-1.1v-2.3c0-.8.4-1.1 1.1-1.1h3.9v-5.6h-4.7v.7c0 .7-.4 1.1-1.1 1.1h-2.3c-.8 0-1.1-.4-1.1-1.1v-.7c0-1.2.5-2.3 1.4-3.2s2-1.4 3.2-1.4h4.7c1.2 0 2.3.5 3.2 1.4s1.4 2 1.4 3.2v4.1c0 1-.3 2-1 2.8l-.8 1 .8 1c.7.8 1 1.7 1 2.8v4.1c0 1.2-.5 2.3-1.4 3.2s-2 1.3-3.2 1.3m-16.2-10.1h-4.7v5.6h8.2c.8 0 1.1.4 1.1 1.1v2.3c0 .8-.4 1.1-1.1 1.1h-11.7c-.8 0-1.1-.4-1.1-1.1v-9c0-1.2.5-2.3 1.4-3.2s2-1.4 3.2-1.4h4.7v-5.6h-4.7v.7c0 .8-.4 1.1-1.1 1.1h-2.4c-.8 0-1.1-.4-1.1-1.1v-.7c0-1.2.5-2.3 1.4-3.2s2-1.4 3.2-1.4h4.7c1.2 0 2.3.5 3.2 1.4s1.4 2 1.4 3.2v5.5c0 1.2-.5 2.3-1.4 3.2-.9 1-2 1.5-3.2 1.5zm-16.1-4.6v-5.6h-4.7v5.6zm0 14.7h-4.6c-1.2 0-2.3-.5-3.2-1.4s-1.4-2-1.4-3.2v-.9c0-.8.4-1.1 1.1-1.1h2.2c.8 0 1.1.4 1.1 1.1v.9h4.7v-5.6h-4.8c-1.1 0-2.1-.4-2.9-1.1l-.2-.2c-1-.9-1.5-2-1.5-3.3v-5.6c0-1.2.5-2.3 1.4-3.2s2-1.4 3.2-1.4h4.7c1.2 0 2.3.5 3.2 1.4s1.4 2 1.4 3.2v15.7c0 1.2-.5 2.3-1.4 3.2-.7 1.1-1.8 1.5-3 1.5zm-12.7 0h-2.3c-.8 0-1.1-.4-1.1-1.1v-18.1h-.2c-.8 0-1.1-.4-1.1-1.1v-2.7c0-.5.2-.9.7-1.1l1.9-.7c.1-.1.3-.1.4-.1h1.7c.8 0 1.1.4 1.1 1.1v22.6c0 .9-.3 1.2-1.1 1.2z"/><path d="m456 155.2c-1.4-3.5-2.7-7.1-4-10.6-1.4-3.6-2.7-7.1-4-10.7-.5 3-.9 6.1-1.4 9.1-.4 3-.9 6.1-1.4 9.2zm10.2 26.1c-1.8-4.3-3.4-8.7-5.1-13-5.9-1.6-11.7-3.1-17.6-4.6-.6 3.9-1.2 7.8-1.8 11.7-.2 1.6-1.5 2.1-3.8 1.6-2.8-.6-5.7-1.2-8.5-1.7-1.4-.3-2.5-.8-3.4-1.7s-1.3-1.8-1.2-2.8c1.5-9.9 3.1-19.8 4.5-29.5s2.8-19.2 4.3-28.5c.2-1.5 1.3-1.9 3.5-1.1 5.4 1.9 10.8 3.8 16.3 5.9 2.3.9 3.7 2.3 4.4 4 4.1 10.8 8.2 21.5 12.5 32.2 4.2 10.5 8.5 20.9 12.8 31.2.4 1 .2 1.7-.6 2.1-.8.5-1.8.5-3 .2-3-.8-5.9-1.6-8.8-2.3-2.4-.8-3.9-2-4.5-3.7zm-53.4-9.2c-13.1-2.2-26.1-4.1-39.1-5.6-2.7-.3-4.1-1.6-4.3-3.9 0-.7-.1-1.4-.2-2.1 0-.4 0-.8.2-1.2 3.6-8.3 7.3-16.5 10.8-24.7 3.5-8.1 7-16 10.4-23.8-6.4-1.4-12.8-2.6-19.1-3.8-2.6-.5-4-1.8-4.1-4.1-.2-2.3-.3-4.5-.5-6.8-.1-2.2 1-3.1 3.6-2.6 11.5 2.3 23.2 5.1 34.9 8.1 2.5.7 4 2.2 4.2 4.3.1 1.1.2 2.2.3 3.3.1.5 0 .8-.2 1.1-3.2 7.2-6.5 14.6-9.8 22.1-3.3 7.6-6.8 15.2-10.2 23 7.2 1.2 14.4 2.4 21.6 3.8 2.7.5 4.2 1.9 4.4 4.1s.5 4.4.7 6.5c.4 2-.9 2.7-3.6 2.3zm-57.4-10.8c-2.7 1.9-6.1 2.7-9.9 2.4-5.8-.5-11.5-.9-17.2-1.2-4.3-.2-8.1-1.8-11.4-4.7-3.3-3-5-6.3-5.1-10-.2-8-.3-16-.5-24s-.4-16-.6-24c-.1-3.7 1.4-6.9 4.4-9.6 3-2.5 6.4-3.6 10.5-3.2 5.3.5 10.7 1 16.1 1.7 4 .5 7.7 2.5 11 5.8 3.4 3.2 5.1 6.6 5.4 10.3 0 .7.1 1.4.1 2.2.2 2.2-1.1 3.2-3.6 2.9-2.7-.3-5.3-.7-7.9-1-2.5-.3-3.8-1.6-3.9-3.9 0-.7-.1-1.5-.2-2.2-5.5-.7-11-1.1-16.5-1.6.3 8 .6 15.9.9 23.8s.6 15.9.9 23.8c5.7.3 11.4.7 17.2 1.3 0-.9-.1-1.7-.1-2.6-.1-2.3 1.1-3.3 3.7-3 2.7.3 5.4.6 8.1.8 2.6.3 4.1 1.5 4.2 3.8 0 .9.1 1.7.2 2.6 0 3.6-1.9 7-5.8 9.6zm-55.1.2c-12.8-.2-25.6-.1-38.4.2-2.7.1-4-1-4-3.3 0-.7 0-1.4 0-2.2 0-.4.1-.8.3-1.3 4.3-9.4 8.8-18.7 12.9-28 4.2-9.3 8.4-18.5 12.5-27.8-6.3.1-12.5.1-18.8.4-2.4.1-3.7-.9-3.7-3.3.1-2.3 0-4.7.1-7 0-2.3 1.4-3.7 3.8-3.7 11.3-.4 22.6-.5 33.9-.1 2.4.1 3.7 1.3 3.8 3.7 0 1.2.1 2.4.1 3.5 0 .5-.1.9-.2 1.2-3.8 8.8-7.7 17.7-11.7 26.5-4 9-8 18-12.1 27.1 7.1-.1 14.1-.1 21.1.1 2.6.1 4 1.3 4 3.6 0 2.4.1 4.7.2 7.1.2 2.2-1.1 3.4-3.8 3.3zm-66.3 1.7c-5.5.4-10.9.9-16.3 1.3-4.3.4-8-.6-11.1-3-3.1-2.3-4.5-5.3-4.2-9 .1-.9.1-1.7.1-2.6.2-2.3 1.6-3.6 4.2-3.9 2.7-.4 5.4-.7 8.1-1 2.6-.3 3.9.8 3.8 3 0 .9-.1 1.8-.1 2.6 5.4-.5 10.8-1 16.2-1.4.2-5.6.4-11.2.7-16.8-5.3.5-10.7 1-15.9 1.6-4.2.4-7.9-.5-10.9-2.8s-4.4-5.2-4.2-8.9c.4-5.5.7-11 1-16.5.2-3.6 2.1-7.1 5.3-10.3 3.2-3.3 6.9-5.4 11-5.9 5-.7 10.2-1.2 15.4-1.9 4-.5 7.5.5 10.5 3.1s4.5 5.8 4.4 9.5c0 .8-.1 1.5-.1 2.3-.1 2.3-1.4 3.5-3.9 3.7-2.6.2-5.2.3-7.8.6s-3.8-.7-3.7-3c0-.8 0-1.5.1-2.3-5.2.6-10.4 1.2-15.6 1.8-.3 5.6-.6 11.1-.8 16.7 5.3-.6 10.5-1.1 15.8-1.7 4.1-.4 7.7.7 10.7 3.3s4.6 5.8 4.5 9.5c-.2 5.7-.3 11.4-.4 17.1-.1 3.8-1.8 7.1-5.1 10.1-3.6 3-7.5 4.5-11.7 4.8zm-57.1 6.2c-6.1.9-12.1 1.7-18.2 2.7-4.4.7-8.2.2-11.2-1.7s-4.4-4.6-4-8.1c1-8.9 2-17.9 3-26.8s2-17.9 3-26.8c.2-2.1 1.7-3.6 4.3-4.3 2.6-.8 5.3-1.5 7.9-2.3 2.6-.7 3.8 0 3.6 2.2-.9 9.1-1.8 18.2-2.7 27.4-.9 9.1-1.8 18.2-2.7 27.4 6.1-1.1 12.2-2.1 18.3-3.1.8-9.3 1.5-18.6 2.3-27.9s1.6-18.6 2.4-27.9c.2-2.2 1.6-3.6 4-4.2 2.6-.6 5.3-1.3 7.9-1.8s3.7.5 3.6 2.7c-.7 9.4-1.4 18.9-2 28.3-.7 9.4-1.3 18.9-2 28.3-.3 3.7-2.2 7.1-5.7 10.2s-7.4 5-11.8 5.7zm-55-24.3c.4-3.2.9-6.5 1.3-9.7.4-3.3.8-6.5 1.2-9.8-5.5 1.7-11.1 3.7-16.7 5.7-.4 3.1-.9 6.3-1.3 9.4-.4 3.2-.9 6.3-1.4 9.4 5.7-1.7 11.4-3.4 16.9-5zm-1.7 12.4c-5.6 1.4-11.2 3-16.8 4.6-.4 3.2-.9 6.3-1.4 9.5s-.9 6.3-1.4 9.5c-.3 2-1.9 3.3-4.6 4-2.9.7-5.8 1.4-8.7 2.1-2.8.7-4 .1-3.7-1.8 1.5-9.4 3-18.9 4.4-28.4 1.5-9.4 2.9-18.9 4.4-28.4.3-1.9 1.8-3.4 4.5-4.5 9.7-3.8 19.3-7.6 28.9-10.9 4.3-1.5 7.9-1.5 10.9 0 3 1.4 4.3 3.9 3.9 7.3-.4 3.3-.8 6.7-1.2 10s-.8 6.6-1.2 10-2.4 6.9-6.1 10.3c-3.5 3.4-7.5 5.6-11.9 6.7z" fill="#c2181e"/><path d="m456 151.6c-1.4-3.5-2.7-7.1-4-10.6-1.4-3.6-2.7-7.1-4-10.7-.5 3-.9 6.1-1.4 9.1-.4 3-.9 6.1-1.4 9.2 3.6.9 7.2 1.9 10.8 3m10.2 26.1c-1.8-4.3-3.4-8.7-5.1-13-5.9-1.6-11.7-3.1-17.6-4.6-.6 3.9-1.2 7.8-1.8 11.7-.2 1.6-1.5 2.1-3.8 1.6-2.8-.6-5.7-1.2-8.5-1.7-1.4-.3-2.5-.8-3.4-1.7s-1.3-1.8-1.2-2.8c1.5-9.9 3.1-19.8 4.5-29.5s2.8-19.2 4.3-28.5c.2-1.5 1.3-1.9 3.5-1.1 5.4 1.9 10.8 3.8 16.3 5.9 2.3.9 3.7 2.3 4.4 4 4.1 10.8 8.2 21.5 12.5 32.2 4.2 10.5 8.5 20.9 12.8 31.2.4 1 .2 1.7-.6 2.1-.8.5-1.8.5-3 .2-3-.8-5.9-1.6-8.8-2.3-2.4-.9-3.9-2-4.5-3.7zm-53.4-9.3c-13.1-2.2-26.1-4.1-39.1-5.6-2.7-.3-4.1-1.6-4.3-3.9 0-.7-.1-1.4-.2-2.1 0-.4 0-.8.2-1.2 3.6-8.3 7.3-16.5 10.8-24.7 3.5-8.1 7-16 10.4-23.8-6.4-1.4-12.8-2.6-19.1-3.8-2.6-.5-4-1.8-4.1-4.1-.2-2.3-.3-4.5-.5-6.8-.1-2.2 1-3.1 3.6-2.6 11.5 2.3 23.2 5.1 34.9 8.1 2.5.7 4 2.2 4.2 4.3.1 1.1.2 2.2.3 3.3.1.5 0 .8-.2 1.1-3.2 7.2-6.5 14.6-9.8 22.1-3.3 7.6-6.8 15.2-10.2 23 7.2 1.2 14.4 2.4 21.6 3.8 2.7.5 4.2 1.9 4.4 4.1s.5 4.4.7 6.5c.4 2.1-.9 2.8-3.6 2.3zm-57.4-10.7c-2.7 1.9-6.1 2.7-9.9 2.4-5.8-.5-11.5-.9-17.2-1.2-4.3-.2-8.1-1.8-11.4-4.7-3.3-3-5-6.3-5.1-10-.2-8-.3-16-.5-24s-.4-16-.6-24c-.1-3.7 1.4-6.9 4.4-9.6 3-2.5 6.4-3.6 10.5-3.2 5.3.5 10.7 1 16.1 1.7 4 .5 7.7 2.5 11 5.8 3.4 3.2 5.1 6.6 5.4 10.3 0 .7.1 1.4.1 2.2.2 2.2-1.1 3.2-3.6 2.9-2.7-.3-5.3-.7-7.9-1-2.5-.3-3.8-1.6-3.9-3.9 0-.7-.1-1.5-.2-2.2-5.5-.7-11-1.1-16.5-1.6.3 8 .6 15.9.9 23.8s.6 15.9.9 23.8c5.7.3 11.4.7 17.2 1.3 0-.9-.1-1.7-.1-2.6-.1-2.3 1.1-3.3 3.7-3 2.7.3 5.4.6 8.1.8 2.6.3 4.1 1.5 4.2 3.8 0 .9.1 1.7.2 2.6 0 3.6-1.9 6.9-5.8 9.6zm-55.1.2c-12.8-.2-25.6-.1-38.4.2-2.7.1-4-1-4-3.3 0-.7 0-1.4 0-2.2 0-.4.1-.8.3-1.3 4.3-9.4 8.8-18.7 12.9-28 4.2-9.3 8.4-18.5 12.5-27.8-6.3.1-12.5.1-18.8.4-2.4.1-3.7-.9-3.7-3.3.1-2.3 0-4.7.1-7 0-2.3 1.4-3.7 3.8-3.7 11.3-.4 22.6-.5 33.9-.1 2.4.1 3.7 1.3 3.8 3.7 0 1.2.1 2.4.1 3.5 0 .5-.1.9-.2 1.2-3.8 8.8-7.7 17.7-11.7 26.5-4 9-8 18-12.1 27.1 7.1-.1 14.1-.1 21.1.1 2.6.1 4 1.3 4 3.6 0 2.4.1 4.7.2 7.1.2 2.2-1.1 3.3-3.8 3.3zm-66.3 1.7c-5.5.4-10.9.9-16.3 1.3-4.3.4-8-.6-11.1-3-3.1-2.3-4.5-5.3-4.2-9 .1-.9.1-1.7.1-2.6.2-2.3 1.6-3.6 4.2-3.9 2.7-.4 5.4-.7 8.1-1 2.6-.3 3.9.8 3.8 3 0 .9-.1 1.8-.1 2.6 5.4-.5 10.8-1 16.2-1.4.2-5.6.4-11.2.7-16.8-5.3.5-10.7 1-15.9 1.6-4.2.4-7.9-.5-10.9-2.8s-4.4-5.2-4.2-8.9c.4-5.5.7-11 1-16.5.2-3.6 2.1-7.1 5.3-10.3 3.2-3.3 6.9-5.4 11-5.9 5-.7 10.2-1.2 15.4-1.9 4-.5 7.5.5 10.5 3.1s4.5 5.8 4.4 9.5c0 .8-.1 1.5-.1 2.3-.1 2.3-1.4 3.5-3.9 3.7-2.6.2-5.2.3-7.8.6s-3.8-.7-3.7-3c0-.8 0-1.5.1-2.3-5.2.6-10.4 1.2-15.6 1.8-.3 5.6-.6 11.1-.8 16.7 5.3-.6 10.5-1.1 15.8-1.7 4.1-.4 7.7.7 10.7 3.3s4.6 5.8 4.5 9.5c-.2 5.7-.3 11.4-.4 17.1-.1 3.8-1.8 7.1-5.1 10.1-3.6 2.9-7.5 4.4-11.7 4.8zm-57.1 6.1c-6.1.9-12.1 1.7-18.2 2.7-4.4.7-8.2.2-11.2-1.7s-4.4-4.6-4-8.1c1-8.9 2-17.9 3-26.8s2-17.9 3-26.8c.2-2.1 1.7-3.6 4.3-4.3 2.6-.8 5.3-1.5 7.9-2.3 2.6-.7 3.8 0 3.6 2.2-.9 9.1-1.8 18.2-2.7 27.4-.9 9.1-1.8 18.2-2.7 27.4 6.1-1.1 12.2-2.1 18.3-3.1.8-9.3 1.5-18.6 2.3-27.9s1.6-18.6 2.4-27.9c.2-2.2 1.6-3.6 4-4.2 2.6-.6 5.3-1.3 7.9-1.8s3.7.5 3.6 2.7c-.7 9.4-1.4 18.9-2 28.3-.7 9.4-1.3 18.9-2 28.3-.3 3.7-2.2 7.1-5.7 10.2-3.5 3.2-7.4 5.1-11.8 5.7zm-55-24.2c.4-3.2.9-6.5 1.3-9.7.4-3.3.8-6.5 1.2-9.8-5.5 1.7-11.1 3.7-16.7 5.7-.4 3.2-.9 6.3-1.3 9.4-.4 3.2-.9 6.3-1.4 9.4 5.7-1.8 11.4-3.5 16.9-5zm-1.7 12.4c-5.6 1.4-11.2 3-16.8 4.6-.4 3.2-.9 6.3-1.4 9.5s-.9 6.3-1.4 9.5c-.3 2-1.9 3.3-4.6 4-2.9.7-5.8 1.4-8.7 2.1-2.8.7-4 .1-3.7-1.8 1.5-9.4 3-18.9 4.4-28.4 1.5-9.4 2.9-18.9 4.4-28.4.3-1.9 1.8-3.4 4.5-4.5 9.7-3.8 19.3-7.6 28.9-10.9 4.3-1.5 7.9-1.5 10.9 0 3 1.4 4.3 3.9 3.9 7.3-.4 3.3-.8 6.7-1.2 10s-.8 6.6-1.2 10-2.4 6.9-6.1 10.3c-3.5 3.3-7.5 5.5-11.9 6.7z" fill="#fff"/><path d="m321.5 73.9c-2.9-.3-5.8-.5-8.7-.7-2.3-.2-4.3-.8-6.1-2-1.7-1.2-2.6-2.6-2.6-4.1 0-.4 0-.7 0-1.1 0-.9.7-1.4 2.1-1.3 1.5.1 2.9.2 4.4.3 1.4.1 2.1.6 2.1 1.5v1.1c2.9.2 5.8.5 8.7.7 0-2.2 0-4.4 0-6.7-2.9-.3-5.8-.6-8.7-.8-2.3-.2-4.3-.9-6.1-2.1-1.7-1.2-2.6-2.6-2.6-4.1 0-2.3 0-4.5 0-6.8 0-1.5.9-2.7 2.6-3.7s3.8-1.4 6.1-1.2l8.7.9c2.3.3 4.3 1.1 6 2.4s2.6 2.7 2.6 4.2v.9c0 .9-.7 1.2-2.1 1.1-1.5-.2-2.9-.4-4.4-.5-1.4-.2-2.1-.7-2.1-1.6 0-.3 0-.6 0-.9-2.9-.3-5.8-.6-8.7-.9v6.7c2.9.3 5.8.5 8.7.8 2.3.2 4.3 1 6 2.3s2.6 2.7 2.6 4.1v6.7c0 1.5-.9 2.7-2.6 3.6-1.6 1.1-3.6 1.5-5.9 1.2m-22.1-29.7c-1.7 2.1-3.4 4.2-5 6.4-1.7 2.2-3.4 4.3-5 6.5 1.7 2.2 3.4 4.5 5 6.7 1.7 2.2 3.4 4.5 5 6.8.3.5.3.9-.1 1.3s-1 .6-1.8.6c-1.6-.1-3.2-.1-4.9-.1-.9 0-1.6-.3-2-.8-1.5-2-2.9-3.9-4.4-5.9-1.4-1.9-2.9-3.9-4.3-5.8v5.5 5.5c0 .9-.7 1.4-2.1 1.4-1.5 0-2.9 0-4.4.1-1.4 0-2.1-.4-2.1-1.4 0-4.6 0-9.2 0-13.8s0-9.2 0-13.8c0-.9.7-1.4 2.1-1.5 1.5 0 2.9-.1 4.4-.1 1.4 0 2.1.5 2.1 1.4v5.5 5.5c1.4-1.9 2.9-3.9 4.3-5.8s2.9-3.8 4.4-5.7c.4-.5 1.1-.8 2-.7 1.6 0 3.2.1 4.9.2.8 0 1.4.3 1.8.8.4.3.5.8.1 1.2zm-32.4 28.4c-1.5.1-2.9.1-4.4.2-1.4.1-2.1-.4-2.1-1.3 0-2.6 0-5.2 0-7.8s0-5.2 0-7.9c-.9 1.4-1.9 2.7-2.8 4.1s-1.9 2.7-2.8 4.1c-.4.5-1 .9-1.9.9-.9.1-1.6-.1-1.9-.6-.9-1.2-1.9-2.4-2.8-3.6s-1.9-2.4-2.8-3.5v7.8 7.8c0 .9-.7 1.4-2.1 1.6-1.5.1-2.9.3-4.4.4-1.4.1-2.1-.2-2.1-1.1 0-4.5 0-9 0-13.5s0-9 0-13.5c0-.9.7-1.5 2.1-1.7 1.7-.2 3.4-.5 5.2-.7.9-.1 1.5.1 1.9.6 1.2 1.4 2.3 2.9 3.5 4.4s2.3 3 3.5 4.4c1.2-1.7 2.3-3.4 3.5-5.1s2.3-3.4 3.5-5.1c.4-.6 1-.9 1.9-.9 1.7-.1 3.4-.2 5.2-.3 1.4-.1 2.1.4 2.1 1.3v13.8 13.8c-.1.8-.8 1.3-2.3 1.4z" fill="#c2181e"/><path d="m321.5 71.7c-2.9-.3-5.8-.5-8.7-.7-2.3-.2-4.3-.8-6.1-2-1.7-1.2-2.6-2.6-2.6-4.1 0-.4 0-.7 0-1.1 0-.9.7-1.4 2.1-1.3 1.5.1 2.9.2 4.4.3 1.4.1 2.1.6 2.1 1.5v1.1c2.9.2 5.8.5 8.7.7 0-2.2 0-4.4 0-6.7-2.9-.3-5.8-.6-8.7-.8-2.3-.2-4.3-.9-6.1-2.1-1.7-1.2-2.6-2.6-2.6-4.1 0-2.3 0-4.5 0-6.8 0-1.5.9-2.7 2.6-3.7s3.8-1.4 6.1-1.2l8.7.9c2.3.3 4.3 1.1 6 2.4s2.6 2.7 2.6 4.2v.9c0 .9-.7 1.2-2.1 1.1-1.5-.2-2.9-.4-4.4-.5-1.4-.2-2.1-.7-2.1-1.6 0-.3 0-.6 0-.9-2.9-.3-5.8-.6-8.7-.9v6.7c2.9.3 5.8.5 8.7.8 2.3.2 4.3 1 6 2.3s2.6 2.7 2.6 4.1v6.7c0 1.5-.9 2.7-2.6 3.6-1.6 1.1-3.6 1.4-5.9 1.2m-22.1-29.8c-1.7 2.1-3.4 4.2-5 6.4-1.7 2.2-3.4 4.3-5 6.5 1.7 2.2 3.4 4.5 5 6.7 1.7 2.2 3.4 4.5 5 6.8.3.5.3.9-.1 1.3s-1 .6-1.8.6c-1.6-.1-3.2-.1-4.9-.1-.9 0-1.6-.3-2-.8-1.5-2-2.9-3.9-4.4-5.9-1.4-1.9-2.9-3.9-4.3-5.8v5.5 5.5c0 .9-.7 1.4-2.1 1.4-1.5 0-2.9 0-4.4.1-1.4 0-2.1-.4-2.1-1.4 0-4.6 0-9.2 0-13.8s0-9.2 0-13.8c0-.9.7-1.4 2.1-1.5 1.5 0 2.9-.1 4.4-.1 1.4 0 2.1.5 2.1 1.4v5.5 5.5c1.4-1.9 2.9-3.9 4.3-5.8s2.9-3.8 4.4-5.7c.4-.5 1.1-.8 2-.7 1.6 0 3.2.1 4.9.2.8 0 1.4.3 1.8.8.4.4.5.8.1 1.2zm-32.4 28.4c-1.5.1-2.9.1-4.4.2-1.4.1-2.1-.4-2.1-1.3 0-2.6 0-5.2 0-7.8s0-5.2 0-7.9c-.9 1.4-1.9 2.7-2.8 4.1s-1.9 2.7-2.8 4.1c-.4.5-1 .9-1.9.9-.9.1-1.6-.1-1.9-.6-.9-1.2-1.9-2.4-2.8-3.6s-1.9-2.4-2.8-3.5v7.8 7.8c0 .9-.7 1.4-2.1 1.6-1.5.1-2.9.3-4.4.4-1.4.1-2.1-.2-2.1-1.1 0-4.5 0-9 0-13.5s0-9 0-13.5c0-.9.7-1.5 2.1-1.7 1.7-.2 3.4-.5 5.2-.7.9-.1 1.5.1 1.9.6 1.2 1.4 2.3 2.9 3.5 4.4s2.3 3 3.5 4.4c1.2-1.7 2.3-3.4 3.5-5.1s2.3-3.4 3.5-5.1c.4-.6 1-.9 1.9-.9 1.7-.1 3.4-.2 5.2-.3 1.4-.1 2.1.4 2.1 1.3v13.8 13.8c-.1.9-.8 1.4-2.3 1.4z" fill="#fff"/><path d="m456 151.6c-1.4-3.5-2.7-7.1-4-10.6-.7-1.9-1.5-3.9-2.2-5.8.2-1.2.4-2.3.6-3.5 1.3 3.6 2.6 7.1 4 10.7 1.4 3.5 2.6 7.1 4 10.6-3.6-1-7.2-2-10.8-3l.1-.7c2.7.7 5.5 1.5 8.3 2.3m-27.4 19.8c-1-.3-1.9-.8-2.6-1.5-.9-.9-1.3-1.8-1.2-2.8 1.5-9.9 3.1-19.8 4.5-29.5s2.8-19.2 4.3-28.5c.2-1.5 1.3-1.9 3.5-1.1 5.4 1.9 10.8 3.8 16.3 5.9 1 .4 1.8.8 2.4 1.4h-.1c-5.5-2.1-10.9-4-16.3-5.9-2.2-.8-3.4-.4-3.5 1.1-1.4 9.3-2.9 18.9-4.3 28.5-1.4 9.8-3 19.6-4.5 29.5-.1 1 .3 1.9 1.2 2.8.2 0 .2 0 .3.1zm37.6 6.3c-1.7-4.1-3.2-8.2-4.8-12.2.7.2 1.4.4 2.1.6 1.6 4.3 3.3 8.7 5.1 13 .3.7.7 1.3 1.3 1.9-2-.8-3.2-1.9-3.7-3.3zm-73.7-25.6c6.3 1.1 12.6 2.1 18.9 3.3 1.5.3 2.6.8 3.3 1.6-.3-.1-.6-.2-1-.2-7.2-1.3-14.4-2.5-21.6-3.8zm-21.7-49c-2.1-.6-3.3-1.9-3.4-3.9-.2-2.3-.3-4.5-.5-6.8-.1-2.2 1-3.1 3.6-2.6 11.5 2.3 23.2 5.1 34.9 8.1 1.2.3 2.2.8 2.9 1.5-.2-.1-.3-.1-.5-.1-11.7-3-23.4-5.8-34.9-8.1-2.5-.5-3.7.4-3.6 2.6.1 2.3.3 4.5.5 6.8 0 1 .4 1.8 1 2.5zm1.8 59.5c-2-.5-3.1-1.7-3.2-3.7 0-.7-.1-1.4-.2-2.1 0-.4 0-.8.2-1.2 3.6-8.3 7.3-16.5 10.8-24.7 3.3-7.8 6.7-15.5 10-23 .9.2 1.8.4 2.7.6-3.4 7.8-6.9 15.7-10.4 23.8-3.5 8.2-7.2 16.4-10.8 24.7-.2.4-.2.9-.2 1.2.1.7.1 1.4.2 2.1.2.9.4 1.7.9 2.3zm-42.5-17.5c4.9.3 9.9.7 14.8 1.1 0-.9-.1-1.7-.1-2.6-.1-2.3 1.1-3.3 3.7-3 2.7.3 5.4.6 8.1.8 1.6.2 2.7.7 3.4 1.5-.3-.1-.7-.1-1.1-.2-2.7-.3-5.4-.6-8.1-.8-2.6-.3-3.8.8-3.7 3 0 .9.1 1.8.1 2.6-5.7-.5-11.5-.9-17.2-1.3zm15.7-40.2c-2-.5-3.1-1.7-3.2-3.8 0-.4 0-.8-.1-1.1.8.1 1.5.2 2.3.3.1.7.1 1.5.2 2.2.1 1 .3 1.8.8 2.4zm-24.4 52.3c-1.6-.8-3.1-1.8-4.5-3-3.3-3-5-6.3-5.1-10-.2-8-.3-16-.5-24s-.4-16-.6-24c-.1-3.7 1.4-6.9 4.4-9.6 3-2.5 6.4-3.6 10.5-3.2 5.3.5 10.7 1 16.1 1.7 2.7.4 5.2 1.3 7.5 2.9-1.7-.8-3.4-1.3-5.2-1.6-5.4-.7-10.8-1.2-16.1-1.7-4-.4-7.5.7-10.5 3.2-3 2.7-4.5 5.9-4.4 9.6.2 8 .4 16 .6 24s.3 16 .5 24c.1 3.7 1.8 7.1 5.1 10 .7.6 1.4 1.2 2.2 1.7zm-39.4-13.5c6-.1 12.1 0 18.1.1 1.7 0 2.8.5 3.4 1.4-.3-.1-.7-.1-1.1-.1-7.1-.1-14.1-.2-21.1-.1zm-17.9-47.9c-1.8-.2-2.8-1.2-2.7-3.2.1-2.3 0-4.7.1-7 0-2.3 1.4-3.7 3.8-3.7 11.3-.4 22.6-.5 33.9-.1 1.5 0 2.5.5 3.2 1.4-.2 0-.5-.1-.8-.1-11.3-.3-22.6-.2-33.9.1-2.4.1-3.8 1.4-3.8 3.7s0 4.7-.1 7c-.1.8 0 1.5.3 1.9zm-3.4 62.2c-1.9-.2-2.8-1.3-2.8-3.2 0-.7 0-1.4 0-2.2 0-.4.1-.8.3-1.3 4.3-9.4 8.8-18.7 12.9-28 4-8.8 8-17.6 11.9-26.4h3c-4.1 9.3-8.3 18.5-12.5 27.8s-8.6 18.6-12.9 28c-.2.5-.3.9-.3 1.3v2.2c0 .7.1 1.3.4 1.8zm-38.3-41.7c4.4-.5 8.9-1 13.4-1.4 3.6-.4 6.8.4 9.5 2.4-2.2-1-4.6-1.3-7.2-1.1-5.3.5-10.5 1.1-15.8 1.7zm16.5-13c-1.9-.1-2.7-1.1-2.6-3v-.6l2.4-.3c0 .8-.1 1.5-.1 2.3 0 .6.1 1.2.3 1.6zm-27.8 26c-1-.4-1.9-1-2.8-1.6-3-2.3-4.4-5.2-4.2-8.9.4-5.5.7-11 1-16.5.2-3.6 2.1-7.1 5.3-10.3 3.2-3.3 6.9-5.4 11-5.9 5-.7 10.2-1.2 15.4-1.9 3.6-.4 6.7.3 9.4 2.3-2.1-.9-4.5-1.2-7-.9-5.1.6-10.3 1.2-15.4 1.9-4.1.5-7.7 2.6-11 5.9-3.2 3.3-5.1 6.7-5.3 10.3-.4 5.5-.7 11-1 16.5-.3 3.7 1.2 6.6 4.2 8.9.2 0 .3.1.4.2zm9.7 17.6c4.6-.4 9.2-.8 13.7-1.2.2-5.1.4-10.1.6-15.2l2.4-.2c-.2 5.6-.4 11.2-.7 16.8-5.3.5-10.7 1-16.2 1.4zm-11.5 12.7c-1-.4-1.9-1-2.8-1.7-3.1-2.3-4.5-5.3-4.2-9 .1-.9.1-1.7.1-2.6.2-2.3 1.6-3.6 4.2-3.9 2.7-.4 5.4-.7 8.1-1 1.8-.2 3 .3 3.5 1.3-.4 0-.7 0-1.2 0-2.7.3-5.4.7-8.1 1-2.6.3-4 1.7-4.2 3.9-.1.9-.1 1.7-.1 2.6-.2 3.7 1.2 6.7 4.2 9 .2.2.4.3.5.4zm-46.8-4.7c5.2-.9 10.5-1.8 15.7-2.6.8-9.3 1.5-18.6 2.3-27.9s1.6-18.6 2.4-27.9c.2-2.2 1.6-3.6 4-4.2 2.6-.6 5.3-1.3 7.9-1.8 1.9-.4 3 .1 3.4 1.2-.3 0-.7.1-1.1.1-2.6.5-5.3 1.2-7.9 1.8-2.5.6-3.9 2-4 4.2-.8 9.3-1.6 18.6-2.4 27.9s-1.6 18.6-2.3 27.9c-6.1 1-12.2 2-18.3 3.1zm-13.2 12.7c-.6-.3-1.2-.6-1.8-.9-3-1.9-4.4-4.6-4-8.1 1-8.9 2-17.9 3-26.8s2-17.9 3-26.8c.2-2.1 1.7-3.6 4.3-4.3 2.6-.8 5.3-1.5 7.9-2.3 2.2-.6 3.3-.2 3.6 1.1-.4 0-.8.1-1.2.3-2.7.8-5.3 1.5-7.9 2.3s-4.1 2.2-4.3 4.3c-1 8.9-2 17.9-3 26.8s-2 17.9-3 26.8c-.3 3.2.8 5.7 3.4 7.6zm-27.4-26.1c.4-3.2.9-6.5 1.3-9.7.3-2.5.6-5 1-7.6.9-.3 1.8-.6 2.7-.9-.4 3.3-.8 6.5-1.2 9.8s-.9 6.5-1.3 9.7c-5.6 1.6-11.2 3.3-16.9 5.1.1-.7.2-1.5.3-2.2 4.7-1.5 9.4-2.9 14.1-4.2zm-36 42.4c-1.8.2-2.6-.5-2.3-2.1 1.5-9.4 3-18.9 4.4-28.4 1.5-9.4 2.9-18.9 4.4-28.4.3-1.9 1.8-3.4 4.5-4.5 9.7-3.8 19.3-7.6 28.9-10.9 4.3-1.5 7.9-1.5 10.9 0 .6.3 1.2.7 1.7 1-2.8-1.1-6.3-1-10.2.3-9.6 3.3-19.2 7.1-28.9 10.9-2.8 1.1-4.2 2.6-4.5 4.5-1.5 9.5-3 18.9-4.4 28.4-1.5 9.4-2.9 18.9-4.4 28.4-.1.3-.1.5-.1.8z" fill="#d9dada"/><path d="m314.3 53.3c2.4.2 4.8.4 7.3.7 2.3.2 4.3 1 6 2.3.3.2.5.4.7.6-1.6-1-3.3-1.6-5.3-1.8-2.9-.3-5.8-.6-8.7-.8zm8.8-3.6c-1-.2-1.5-.7-1.5-1.4.5.1 1 .1 1.5.2v.9c-.1.1-.1.2 0 .3zm-15.8 7.3c-.2-.1-.4-.2-.5-.4-1.7-1.2-2.6-2.6-2.6-4.1 0-2.3 0-4.5 0-6.8 0-1.5.9-2.7 2.6-3.7s3.8-1.4 6.1-1.2l8.7.9c2.3.3 4.3 1.1 6 2.4.2.2.4.3.6.5-1.5-1-3.3-1.6-5.2-1.8-2.9-.3-5.8-.7-8.7-.9-2.3-.2-4.3.2-6.1 1.2-1.7 1-2.6 2.3-2.6 3.7v6.8c0 1.3.6 2.4 1.7 3.4zm7 8.6c2.4.2 4.8.4 7.3.6v-5.7c.5 0 1 .1 1.5.1v6.7c-2.9-.3-5.8-.5-8.7-.7v-1zm-7.1 3.7c-.2-.1-.3-.2-.5-.3-1.7-1.2-2.6-2.6-2.6-4.1 0-.4 0-.7 0-1.1 0-.9.7-1.4 2.1-1.3 1.5.1 2.9.2 4.4.3 1.2.1 2 .5 2.1 1.2-.2 0-.4-.1-.6-.1-1.5-.1-2.9-.2-4.4-.3-1.4-.1-2.1.4-2.1 1.3v1.1c0 1.2.6 2.3 1.6 3.3zm-23.7-19.4c1-1.3 1.9-2.5 2.9-3.8 1.4-1.9 2.9-3.8 4.4-5.7.4-.5 1.1-.8 2-.7 1.6 0 3.2.1 4.9.2.8 0 1.4.3 1.8.8.1.2.2.3.3.4-.2 0-.4-.1-.6-.1-1.6-.1-3.2-.1-4.9-.2-.9 0-1.6.2-2 .7-1.5 1.9-2.9 3.8-4.4 5.7-1.4 1.9-2.9 3.8-4.3 5.8v-3.1zm-8.7 20.1c-1-.1-1.5-.5-1.5-1.3 0-4.6 0-9.2 0-13.8s0-9.2 0-13.8c0-.9.7-1.4 2.1-1.5 1.5 0 2.9-.1 4.4-.1 1.3 0 2 .4 2.1 1.2-.2 0-.4 0-.6 0-1.5 0-2.9 0-4.4.1-1.4 0-2.1.5-2.1 1.5v13.8 13.8zm17.1 0c-.6-.1-1-.4-1.2-.8-1.5-2-2.9-3.9-4.4-5.9-1-1.3-1.9-2.6-2.9-3.8v-.9c1.4 1.9 2.9 3.9 4.3 5.8 1.5 1.9 2.9 3.8 4.2 5.6zm-38.7-19.1c1.1-1.6 2.1-3.1 3.2-4.7 1.2-1.7 2.3-3.4 3.5-5.1.4-.6 1-.9 1.9-.9 1.7-.1 3.4-.2 5.2-.3 1.3-.1 2 .3 2.1 1.1-.2 0-.4 0-.6 0-1.7.1-3.4.2-5.2.3-.9.1-1.6.4-1.9.9-1.2 1.7-2.3 3.4-3.5 5.1s-2.3 3.4-3.5 5.1zm-15 21.5c-1 0-1.5-.4-1.5-1.2 0-4.5 0-9 0-13.5s0-9 0-13.5c0-.9.7-1.5 2.1-1.7 1.7-.2 3.4-.5 5.2-.7.9-.1 1.5.1 1.9.6l.4.5c-.3 0-.6 0-.9 0-1.7.2-3.4.5-5.2.7-1.4.2-2.1.8-2.1 1.7v13.5c.1 4.5.1 9 .1 13.6zm13.9-9.8c-.5-.1-.9-.3-1.1-.6-.9-1.2-1.9-2.4-2.8-3.6l-1.3-1.7v-.8c.9 1.2 1.9 2.4 2.8 3.5.8 1.1 1.6 2.1 2.4 3.2zm9.9 7.9c-1-.1-1.5-.5-1.5-1.3 0-2.6 0-5.2 0-7.8v-4.6c.5-.7 1-1.4 1.5-2.1v7.9 7.8z" fill="#d9dada"/></svg>