<?xml version="1.0" encoding="UTF-8" standalone="no"?>
<!-- Source : http://wisla-plock.pl/userfiles/files/herb%20klubu/wisla%20info2.pdf -->
<svg height="495.23441" viewBox="0 0 105.83333 131.03077" width="400" xmlns="http://www.w3.org/2000/svg">
  <g transform="matrix(0 .0928287408 .0928287408 0 -138.198681 -57.273369)">
    <path d="m773.9 2476.14c-35.31-68.75-51.19-136.75-67.04-204.76-15.64-67.02-34.91-138.09-70.78-203.73-1.17-2.15-4.85-8.86-4.85-8.86 0 0 3.68-6.72 4.85-8.87 35.87-65.63 55.14-136.7 70.78-203.72 15.85-68.01 31.73-136.02 67.04-204.77V1503h321.73l.39 17.56c.35 16.25 11.26 35.04 22.17 53.83 10.14 17.46 20.28 34.92 24.74 53.52l411.76-.17 9.9.07c194.76 5.08 216.69 39.51 346.78 260.26 25.13 42.64 54.68 92.8 93.66 156.13l9.23 14.59-9.23 14.59c-38.98 63.33-68.53 113.48-93.66 156.13-130.09 220.74-152.02 255-346.78 260.08l-9.9.07h-411.76c-4.46 18.6-14.6 36.07-24.74 53.54-10.91 18.78-21.82 37.57-22.17 53.81l-.39 17.58H773.9" fill="#3871c1"/>
    <path d="m810.77 2472.15v-4.39l-2.02-3.87c-34.73-66.24-50.37-133.26-65.99-200.28-15.55-66.66-33.94-137.46-67.81-204.82 33.87-67.37 52.26-138.16 67.81-204.83 15.62-67.02 31.26-134.05 65.99-200.28l2.02-3.88v-111.33h252.8c4.46 18.58 14.59 36.03 24.73 53.48 10.91 18.79 21.82 37.57 22.17 53.82l.39 17.5 444.07-.04c184.22 3.87 200.48 33.42 323.71 242.54 25.24 42.84 58.03 98.43 91.5 153.02-33.47 54.59-66.26 110.17-91.5 153.01-123.23 209.11-139.49 238.5-323.71 242.37l-444.07.13-.39 17.5c-.35 16.25-11.26 35.04-22.17 53.83-10.14 17.44-20.27 34.89-24.73 53.46h-252.8" fill="#fff"/>
    <path d="m1174.19 2169.64c-13.06 0-22.13 9.03-23.26 22.75h46.7c-1.11-13.92-10.06-22.75-23.44-22.75m-352.34 302.52v-7.11l-1.27-2.42-2.03-3.87c-8.16-15.57-15.45-31.51-22.28-48.75-6.09-15.4-11.69-31.49-17.09-49.19-10.1-33.07-18-66.95-25.65-99.71-4.73-20.33-8.57-36.03-12.46-50.94-1.59-6.11-3.16-12.03-4.75-17.78h113.5v-49.75h80.84l4.52-6.85 1.97-2.99h65.06l-6.5 9.84h42.97v49.75h80.78c-.02-.59-.03-1.18-.03-1.77 0-9.22 1.23-17.17 3.75-24.32 1.28-3.6 2.92-7.06 4.88-10.25 1.94-3.18 4.26-6.22 6.91-9.04 2.65-2.82 5.47-5.32 8.41-7.43 2.96-2.13 6.12-3.93 9.39-5.34 3.28-1.42 6.76-2.49 10.36-3.19 3.55-.69 7.31-1.05 11.2-1.05 3.93 0 7.72.36 11.29 1.05 3.61.7 7.09 1.77 10.36 3.18 3.27 1.41 6.42 3.22 9.35 5.36 2.89 2.11 5.67 4.61 8.24 7.42 5.19 5.55 9.14 11.88 11.77 18.83 2.61 6.9 3.93 14.52 3.93 22.61 0 1.34-.02 2.66-.07 3.94h648.02c-2.84 4.83-5.56 9.44-8.12 13.79l-.29.5c-30.54 51.81-54.65 94.27-76.15 125.98-11.06 16.32-21.05 29.63-30.55 40.68-9.93 11.58-19.55 20.99-29.42 28.77-9.93 7.84-20.25 14.14-31.53 19.25-11.24 5.09-23.56 9.07-37.7 12.15-13.67 2.99-29.3 5.2-47.75 6.75-16.88 1.42-36.24 2.32-60.91 2.83l-443.99.15-10.79.03-.24 10.79-.38 17.5c-.3 13.4-10.66 31.24-20.69 48.51-8.89 15.31-18.03 31.07-23.51 47.96H821.85" fill="#3871c1"/>
    <path d="m920.34 2068.4c-3.51-6.6-6.16-11.48-8.39-14.23-.68-.83-1.13-1.26-1.45-1.47-.23.73-.54 2.09-.54 4.39 0 5.36 1.36 10.52 4.28 16.22 2.9 5.69 7.4 12.05 14.17 20.03l14.27 16.79h-69.89l-3.07-4c-6.82-8.89-11.76-18.05-15.06-27.99-3.28-9.84-4.88-20.14-4.88-31.49 0-18.41 5.88-35.26 16.56-47.43 11.04-12.58 26.47-19.51 43.43-19.51 12.45 0 23.27 3.72 33.09 11.38 8.77 6.85 16.6 16.7 24.61 30.88 1.6 2.71 2.97 5.18 4.34 7.64 1.96 3.5 4.3 7.71 5.87 9.68.35-1.03.79-3.02.79-6.55 0-4.38-1.19-9.62-3.54-15.6-2.57-6.52-6.52-13.88-11.75-21.87l-10.31-15.77h69.95l2.83 5.68c4.42 8.98 7.78 18.12 9.97 27.18 2.19 9.08 3.29 18.43 3.29 27.78 0 23.27-4.94 41.74-14.7 54.86-10.31 13.88-25.68 21.22-44.45 21.22-15.42 0-27.25-4.56-37.25-14.34-8.44-8.27-14.52-19.09-22.17-33.48" fill="#3871c1"/>
    <path d="m1194.4 2039.79c0-10.7-8.5-18.45-20.21-18.45-11.62 0-20.04 7.75-20.04 18.45 0 10.86 8.24 18.45 20.04 18.45 11.71 0 20.21-7.76 20.21-18.45m-59.51 41.76c-10.17-11.02-15.55-25.46-15.55-41.76 0-16.13 5.38-30.47 15.56-41.49 10.62-11.47 23.51-17.05 39.43-17.05 15.76 0 28.99 5.75 39.31 17.04 10.29 10.99 15.73 25.34 15.73 41.5 0 16.34-5.44 30.78-15.72 41.76-10.38 11.22-23.61 16.91-39.32 16.91-15.65 0-28.92-5.68-39.44-16.91" fill="#3871c1"/>
    <path d="m849.82 1925.19h-113.5c1.59-5.75 3.16-11.67 4.75-17.78 3.88-14.91 7.73-30.61 12.46-50.93 7.65-32.77 15.55-66.64 25.65-99.72 5.4-17.7 11-33.78 17.09-49.18 6.83-17.24 14.12-33.19 22.28-48.75l2.03-3.88 1.26-2.41v-102.99h233.36c5.48 16.9 14.62 32.65 23.51 47.96 10.03 17.27 20.39 35.11 20.69 48.51l.38 17.5.24 10.79 10.79.05 443.99-.05c24.67.52 44.03 1.42 60.91 2.83 18.45 1.56 34.08 3.76 47.75 6.75 14.13 3.09 26.46 7.06 37.7 12.16 11.28 5.1 21.59 11.4 31.53 19.25 9.87 7.78 19.49 17.19 29.42 28.76 9.5 11.06 19.49 24.37 30.55 40.69 21.5 31.72 45.61 74.35 76.15 126.15l.29.5c2.56 4.35 5.28 8.96 8.12 13.79h-647.9v25.45h-30.83v-25.45h-30.42l-1.41 2.13h-29.95l1.4-2.13h-99.43v28.78H849.82v-6.64" fill="#3871c1"/>
    <g fill="#fff">
      <path d="m1024.43 2156.9v117.49h-35.58v-67.14h-42.53l-18.8 28.64h-31.14l18.8-28.64h-51.1v-50.35h74.26l6.49-9.85h30.9l-6.49 9.85zm7.61 125.1v-132.71h-48.66l6.49-9.84h-49.14l-6.49 9.84h-77.77v65.57h44.61l-18.8 28.65h49.35l18.8-28.65h30.8V2282"/>
      <path d="m1014.18 1993.39c7.29 15.43 10.84 30.75 10.84 46.75 0 40.1-16.08 62.18-45.26 62.18-24.5 0-33.02-13.87-47.15-40.43-7.45-14.02-12.36-23.28-22.4-23.28-3.32 0-14.14 1.34-14.14 18.48 0 14.11 6.53 26.18 16.75 39.15h-33.16c-10.89-14.77-15.98-30.58-15.98-49.58 0-30.74 19.39-53.05 46.09-53.05 18.27 0 31.5 10.23 45.67 35.3 1.58 2.68 2.95 5.15 4.22 7.43 5.66 10.16 9.75 17.5 17.71 17.5 5.59 0 15-2.75 15-21.09 0-10.78-4.69-24-13.97-39.36zm18.23 46.75c0-17.88-4.12-34.91-12.59-52.09l-1.02-2.06h-53.92l3.74 5.72c10.84 16.6 16.34 30.41 16.34 41.04 0 13.69-5.72 13.69-7.59 13.69-3.46 0-6.24-4.69-11.24-13.7-1.3-2.32-2.7-4.84-4.28-7.52-15.44-27.33-31.03-39.02-52.08-39.02-31 0-53.49 25.43-53.49 60.46 0 21.05 6.08 39.21 18.6 55.53l1.1 1.44h52.66l-5.18-6.09c-14.39-16.95-19.99-28.28-19.99-40.45 0-7.35 2.27-11.08 6.74-11.08 5.11 0 8.42 5.3 15.86 19.35 13.2 24.78 23.61 44.36 53.69 44.36 33.46 0 52.65-25.36 52.65-69.58"/>
      <path d="m1024.43 1888.69v51.02H864.08v-51.02zm7.6 58.63v-66.25H856.46v66.25"/>
      <path d="m1024.43 1759.44v38.21l-160.35 56.84v-44.91l83.72-28-.28-7.3-83.44-20.98v-33.97l83.51-22.95.13-7.31-83.64-26.24v-50.25l160.35 57.07v37.89l-81.16 23.82.13 7.33zm7.61 43.6v-49.51l-73.33-18.78 73.33-21.51v-48.95l-175.57-62.5v66.63l76.63 24.04-76.63 21.07v45.7l76.57 19.26-76.57 25.61v61.16"/>
      <path d="m1024.43 2452.61v49.89l-160.35-73.07v-56.44l160.35-74.81v50.13l-28.88 11.87v81.24zm7.61 61.72v-66.94l-28.88-11.18v-70.93l28.88-11.86v-67.2l-175.57 81.92v66.19"/>
      <path d="m966.21 2377.33v47.36l-58.7-23.26zm7.61 58.56v-69.92l-77.94 32 .05 7.06"/>
    </g>
    <path d="m1459.37 2181.2h-2.45v-62.52h17.21v31.21l53.34-27.74v23.89zm40.84-101.16v-19.84l-25.25 19.84zm13.07 32.15h-13.07v-10.9h-43.29v-20.21l39.26-30.84h17.1v29.8h14.19v21.25h-14.19zm-31.02-86.96c5.74 0 10.44-4.6 10.44-10.62 0-6.02-4.7-10.72-10.44-10.72-5.81 0-10.32 4.7-10.32 10.72 0 6.02 4.6 10.62 10.32 10.62m2.72 19.18c-17.17 0-29.21-11.66-29.21-29.52 0-19.18 10.71-30.75 26.49-30.75 13.26 0 22.19 9.31 22.19 24.26v1.5c6.57-4.31 10.52-11.56 11.75-21.9l12.52 15.99c-6.03 25.47-23.43 40.42-43.74 40.42m-28.06-85.64v-21.63h70.56v21.63" fill="#3871c1" fill-rule="evenodd"/>
    <path d="m1224.63 2383.57-53.89-42.55-46.54 41.75v-37.47l44.8-40.01h-44.8v-31.26h100.43v31.26h-46.69l46.69 36" fill="#fff" fill-rule="evenodd"/>
    <path d="m1193.13 1867.89-3.93 5.97h35.36v72.01h-21.31v-40.67h-27.77l-11.39 17.35h-18.57l11.39-17.35h-32.72v-31.34h46.58l3.94-5.97" fill="#fff" fill-rule="evenodd"/>
    <path d="m1199.25 2039.79c0-13.5-10.54-23.3-25.06-23.3-14.42 0-24.9 9.8-24.9 23.3 0 13.5 10.48 23.3 24.9 23.3 14.52 0 25.06-9.8 25.06-23.3m-75.06 0c0-15.09 4.8-27.95 14.27-38.2 9.64-10.42 21.38-15.48 35.87-15.48 14.55 0 26.24 5.05 35.74 15.47 9.59 10.24 14.44 23.09 14.44 38.21 0 15.3-4.85 28.24-14.41 38.46-9.57 10.34-21.26 15.36-35.77 15.36-14.45 0-26.2-5.02-35.89-15.36-9.31-10.1-14.25-23.41-14.25-38.46" fill="#fff" fill-rule="evenodd"/>
    <path d="m1172.07 1772.89h-33.6v10.24c0 8.43 1.73 19.64 16.66 19.64 11.39 0 16.94-6.61 16.94-20.2zm-17.37 59.25c-20.57 0-30.57-14.65-30.57-44.8v-45.78h100.33v31.33h-37.62v14.87c0 29.44-10.81 44.38-32.14 44.38" fill="#fff" fill-rule="evenodd"/>
    <path d="m1194.59 2223.87c5.32-9.41 7.92-18.76 7.92-28.51 0-18.22-11.38-30.47-28.32-30.47-16.56 0-28.15 12.53-28.15 30.47 0 9.84 2.55 19.19 7.77 28.48h-21.98c-5.13-10.96-7.63-21.84-7.63-33.22 0-17.17 4.52-29.99 14.25-40.35 9.77-10.43 21.51-15.5 35.88-15.5 14.55 0 26.24 5.06 35.75 15.48 9.58 10.23 14.44 23.08 14.44 38.2 0 13.25-2.49 24.58-7.75 35.42" fill="#fff" fill-rule="evenodd"/>
  </g>
</svg>
