<?xml version="1.0" encoding="UTF-8" standalone="no"?>
<svg
   xmlns:dc="http://purl.org/dc/elements/1.1/"
   xmlns:cc="http://creativecommons.org/ns#"
   xmlns:rdf="http://www.w3.org/1999/02/22-rdf-syntax-ns#"
   xmlns:svg="http://www.w3.org/2000/svg"
   xmlns="http://www.w3.org/2000/svg"
   viewBox="0 0 199.16349 252"
   height="252"
   width="199.1635"
   xml:space="preserve"
   id="svg2"
   version="1.1"><metadata
     id="metadata8"><rdf:RDF><cc:Work
         rdf:about=""><dc:format>image/svg+xml</dc:format><dc:type
           rdf:resource="http://purl.org/dc/dcmitype/StillImage" /><dc:title></dc:title></cc:Work></rdf:RDF></metadata><defs
     id="defs6"><clipPath
       id="clipPath18"
       clipPathUnits="userSpaceOnUse"><path
         id="path16"
         d="M 0,600 H 800 V 0 H 0 Z" /></clipPath><linearGradient
       id="linearGradient108"
       spreadMethod="pad"
       gradientTransform="matrix(0,-235.20255,-235.20255,0,400.00049,395.39197)"
       gradientUnits="userSpaceOnUse"
       y2="0"
       x2="1"
       y1="0"
       x1="0"><stop
         id="stop100"
         offset="0"
         style="stop-opacity:1;stop-color:#0c2d83" /><stop
         id="stop102"
         offset="0.36"
         style="stop-opacity:1;stop-color:#0c2d83" /><stop
         id="stop104"
         offset="0.52"
         style="stop-opacity:1;stop-color:#ef1209" /><stop
         id="stop106"
         offset="1"
         style="stop-opacity:1;stop-color:#ef1209" /></linearGradient><clipPath
       id="clipPath118"
       clipPathUnits="userSpaceOnUse"><path
         id="path116"
         d="M 0,600 H 800 V 0 H 0 Z" /></clipPath></defs><g
     transform="matrix(1.3333333,0,0,-1.3333333,-369.57652,444.62799)"
     id="g10"><g
       transform="matrix(0.60570038,0,0,0.60570038,109.58864,57.260585)"
       id="g614"><g
         id="g12"><g
           id="g14"
           clip-path="url(#clipPath18)"><g
             id="g20"
             transform="translate(522.0508,369.75)"><path
               d="m 0,0 c -0.068,8.829 -0.332,14.139 -0.332,14.139 -21.989,0 -41.472,2.461 -58.056,5.949 0.008,0.421 0.016,0.842 0.016,1.264 0,35.112 -28.566,63.678 -63.679,63.678 -35.112,0 -63.678,-28.566 -63.678,-63.678 0,-0.422 0.008,-0.843 0.016,-1.263 -16.584,-3.489 -36.067,-5.95 -58.057,-5.95 0,0 -0.263,-5.31 -0.332,-14.139 -0.223,-28.55 1.581,-93.912 20.861,-135.648 17.609,-38.119 50.2,-70.459 101.19,-88.881 50.99,18.422 83.582,50.762 101.191,88.881 C -1.58,-93.912 0.224,-28.55 0,0"
               style="fill:#c98844;fill-opacity:1;fill-rule:nonzero;stroke:none"
               id="path22" /></g><g
             id="g24"
             transform="translate(400,447.292)"><path
               d="m 0,0 c 30.842,0 55.958,-24.979 56.186,-55.769 -7.361,1.772 -14.07,3.72 -20.082,5.7 -3.656,16.578 -18.427,28.984 -36.104,28.984 -17.677,0 -32.448,-12.406 -36.104,-28.984 -6.011,-1.98 -12.72,-3.928 -20.081,-5.699 C -55.957,-24.979 -30.842,0 0,0"
               style="fill:#0c2d83;fill-opacity:1;fill-rule:nonzero;stroke:none"
               id="path26" /></g><g
             id="g28"
             transform="translate(356.813,410.0273)"><path
               d="M 0,0 C 0.742,-0.223 1.266,-0.419 1.571,-0.587 1.995,-0.823 2.339,-1.153 2.607,-1.58 3.024,-2.245 3.025,-3.261 2.612,-4.627 L 2.456,-5.146 4.332,-5.711 3.439,-8.664 1.565,-8.099 1.428,-8.553 c -0.414,-1.371 -0.977,-2.219 -1.692,-2.544 -0.459,-0.207 -0.929,-0.292 -1.412,-0.253 -0.348,0.029 -0.892,0.155 -1.635,0.379 l -0.195,0.058 c -0.742,0.225 -1.265,0.421 -1.57,0.589 -0.424,0.234 -0.77,0.565 -1.037,0.992 -0.403,0.656 -0.396,1.672 0.018,3.048 0.031,0.103 0.071,0.257 0.117,0.462 l -1.918,0.577 0.892,2.954 1.917,-0.579 c 0.086,0.235 0.145,0.405 0.177,0.512 0.415,1.377 0.972,2.224 1.669,2.543 0.459,0.208 0.93,0.291 1.411,0.253 0.348,-0.028 0.893,-0.155 1.635,-0.378 z m -0.198,-7.566 -4.017,1.211 -0.074,-0.244 c -0.066,-0.22 -0.005,-0.44 0.183,-0.663 0.187,-0.222 0.474,-0.39 0.861,-0.508 l 1.463,-0.441 c 0.382,-0.115 0.712,-0.132 0.992,-0.051 0.28,0.081 0.451,0.232 0.518,0.451 z m -0.053,4.428 -1.463,0.442 c -0.388,0.117 -0.72,0.134 -1,0.053 -0.278,-0.082 -0.453,-0.234 -0.519,-0.458 l -0.091,-0.3 4.017,-1.212 0.09,0.301 c 0.069,0.224 0.009,0.446 -0.179,0.668 -0.187,0.222 -0.473,0.392 -0.855,0.506"
               style="fill:#c98844;fill-opacity:1;fill-rule:nonzero;stroke:none"
               id="path30" /></g><g
             id="g32"
             transform="translate(355.4204,419.6187)"><path
               d="M 0,0 6.438,-4.556 C 7.453,-5.275 8.143,-5.822 8.506,-6.198 8.868,-6.573 9.038,-7.003 9.013,-7.485 8.988,-7.969 8.733,-8.644 8.249,-9.512 l -0.876,-1.57 -1.335,0.746 0.09,0.16 c 0.198,0.353 0.29,0.587 0.279,0.702 -0.01,0.116 -0.075,0.207 -0.194,0.274 -0.008,0.004 -0.329,0.116 -0.96,0.334 l -8.567,2.933 1.303,2.334 6.915,-2.743 -6.207,4.01 z"
               style="fill:#c98844;fill-opacity:1;fill-rule:nonzero;stroke:none"
               id="path34" /></g><g
             id="g36"
             transform="translate(360.4341,426.1826)"><path
               d="M 0,0 1.862,-1.464 0.732,-2.9 8.175,-8.749 6.273,-11.167 -1.168,-5.319 -2.293,-6.751 -4.155,-5.287 Z"
               style="fill:#c98844;fill-opacity:1;fill-rule:nonzero;stroke:none"
               id="path38" /></g><g
             id="g40"
             transform="translate(373.3901,425.9121)"><path
               d="M 0,0 C 0.588,-0.657 0.926,-1.206 1.013,-1.645 1.099,-2.084 1.001,-2.496 0.72,-2.878 0.438,-3.262 -0.081,-3.793 -0.839,-4.473 l -2.651,-2.377 -7.905,8.816 4.49,4.025 1.371,-1.529 -2.194,-1.966 1.338,-1.492 0.353,0.318 c 0.708,0.635 1.281,1.072 1.719,1.314 0.436,0.242 0.873,0.302 1.308,0.177 0.435,-0.123 0.926,-0.49 1.472,-1.1 z m -2.536,-1.793 -1.142,1.273 c -0.332,0.371 -0.57,0.562 -0.716,0.576 -0.146,0.012 -0.398,-0.132 -0.757,-0.434 l 2.596,-2.894 c 0.291,0.259 0.454,0.474 0.491,0.641 0.036,0.167 -0.121,0.446 -0.472,0.838"
               style="fill:#c98844;fill-opacity:1;fill-rule:nonzero;stroke:none"
               id="path42" /></g><g
             id="g44"
             transform="translate(379.251,432.0376)"><path
               d="M 0,0 C 0.613,-1.02 1.023,-1.755 1.229,-2.208 1.437,-2.66 1.519,-3.138 1.477,-3.642 1.436,-4.144 1.257,-4.619 0.939,-5.065 0.623,-5.512 0.178,-5.907 -0.395,-6.251 -0.937,-6.578 -1.478,-6.782 -2.017,-6.864 -2.556,-6.947 -3.063,-6.89 -3.54,-6.693 c -0.477,0.197 -0.865,0.489 -1.167,0.876 -0.301,0.388 -0.765,1.104 -1.393,2.148 l -1.045,1.734 c -0.611,1.019 -1.022,1.754 -1.228,2.208 -0.208,0.452 -0.289,0.93 -0.248,1.434 0.041,0.501 0.221,0.976 0.538,1.423 0.317,0.447 0.762,0.842 1.333,1.185 0.543,0.327 1.085,0.531 1.623,0.614 0.54,0.082 1.048,0.025 1.524,-0.172 0.477,-0.196 0.865,-0.488 1.166,-0.876 0.301,-0.387 0.766,-1.104 1.394,-2.147 z m -4.64,1.746 c -0.283,0.472 -0.492,0.757 -0.623,0.858 -0.132,0.1 -0.278,0.101 -0.442,0.003 -0.137,-0.083 -0.211,-0.2 -0.22,-0.35 -0.009,-0.15 0.144,-0.486 0.458,-1.008 l 2.847,-4.735 c 0.355,-0.589 0.598,-0.938 0.728,-1.047 0.131,-0.109 0.284,-0.111 0.459,-0.005 0.18,0.108 0.247,0.256 0.202,0.445 -0.045,0.189 -0.248,0.581 -0.607,1.179 z"
               style="fill:#c98844;fill-opacity:1;fill-rule:nonzero;stroke:none"
               id="path46" /></g><g
             id="g48"
             transform="translate(389.4229,430.6758)"><path
               d="M 0,0 -2.901,-1.045 -6.11,7.867 -6.956,7.562 -4.686,1.256 c 0.3,-0.829 0.408,-1.464 0.323,-1.902 -0.083,-0.439 -0.326,-0.784 -0.729,-1.032 -0.401,-0.248 -1.08,-0.544 -2.032,-0.888 l -0.453,-0.163 -0.692,1.919 c 0.354,0.128 0.582,0.258 0.683,0.393 0.102,0.135 0.061,0.457 -0.124,0.966 l -2.95,8.197 6.649,2.395 z"
               style="fill:#c98844;fill-opacity:1;fill-rule:nonzero;stroke:none"
               id="path50" /></g><g
             id="g52"
             transform="translate(396.8096,434.6284)"><path
               d="m 0,0 c 0.13,-0.873 0.111,-1.515 -0.059,-1.93 -0.168,-0.415 -0.476,-0.704 -0.922,-0.87 -0.447,-0.164 -1.172,-0.324 -2.18,-0.474 l -3.52,-0.526 -1.751,11.709 3.05,0.457 0.601,-4.012 0.469,0.071 c 0.939,0.14 1.658,0.191 2.157,0.152 0.499,-0.038 0.896,-0.229 1.191,-0.572 0.295,-0.343 0.503,-0.918 0.624,-1.728 z m -3.103,-0.102 -0.252,1.691 c -0.074,0.492 -0.169,0.783 -0.283,0.875 -0.114,0.091 -0.404,0.109 -0.87,0.055 l 0.577,-3.847 c 0.385,0.058 0.639,0.146 0.761,0.266 0.123,0.119 0.145,0.439 0.067,0.96"
               style="fill:#c98844;fill-opacity:1;fill-rule:nonzero;stroke:none"
               id="path54" /></g><g
             id="g56"
             transform="translate(405.3975,443.4409)"><path
               d="m 0,0 -0.486,-11.824 -3.076,0.127 0.205,4.967 -0.918,0.038 -0.206,-4.967 -3.074,0.127 0.487,11.824 3.073,-0.127 -0.173,-4.228 0.92,-0.038 0.174,4.228 z"
               style="fill:#c98844;fill-opacity:1;fill-rule:nonzero;stroke:none"
               id="path58" /></g><g
             id="g60"
             transform="translate(410.9619,436.1914)"><path
               d="m 0,0 c -0.067,0.13 -0.322,0.269 -0.769,0.413 l -1.075,-3.738 c 0.375,-0.107 0.642,-0.133 0.803,-0.075 0.16,0.058 0.313,0.338 0.46,0.845 l 0.473,1.642 C 0.029,-0.435 0.066,-0.13 0,0 M 2.921,-1.542 2.284,-3.754 C 2.04,-4.602 1.754,-5.178 1.429,-5.485 1.101,-5.791 0.7,-5.927 0.225,-5.891 c -0.474,0.035 -1.199,0.194 -2.177,0.476 L -5.374,-4.43 -2.093,6.948 0.869,6.093 -0.255,2.196 0.203,2.064 C 1.115,1.801 1.79,1.548 2.229,1.305 2.665,1.062 2.945,0.724 3.073,0.29 3.196,-0.145 3.148,-0.754 2.921,-1.542 M 8.766,3.818 5.484,-7.559 2.521,-6.705 5.799,4.673 Z"
               style="fill:#c98844;fill-opacity:1;fill-rule:nonzero;stroke:none"
               id="path62" /></g><g
             id="g64"
             transform="translate(422.7969,424.7729)"><path
               d="M 0,0 5.867,10.285 3.633,11.559 -0.514,7.773 2.135,12.414 -0.101,13.688 -5.969,3.404 -3.625,2.067 0.435,5.953 -2.235,1.274 Z M 4.868,13.815 5.949,13.2 C 5.594,12.639 5.162,12.271 4.649,12.098 4.139,11.924 3.605,11.996 3.051,12.312 2.493,12.63 2.161,13.054 2.055,13.582 1.95,14.11 2.048,14.668 2.35,15.253 l 1.076,-0.615 c -0.28,-0.609 -0.205,-1.036 0.222,-1.28 0.431,-0.245 0.837,-0.093 1.22,0.457"
               style="fill:#c98844;fill-opacity:1;fill-rule:nonzero;stroke:none"
               id="path66" /></g><g
             id="g68"
             transform="translate(433.5859,431.374)"><path
               d="m 0,0 2.225,-2.134 -3.451,-3.619 c 0.43,-0.391 0.869,-0.367 1.318,0.073 l 1.642,1.627 c 0.603,0.602 1.12,0.903 1.551,0.901 L 5.339,-5.119 C 4.937,-5.135 4.428,-5.47 3.808,-6.124 L 2.411,-7.6 C 1.568,-8.494 0.585,-8.519 -0.538,-7.677 0.348,-8.765 0.357,-9.755 -0.513,-10.649 L -1.829,-12 c -0.624,-0.643 -0.967,-1.199 -1.029,-1.666 l -2.053,1.968 c -0.033,0.445 0.245,0.974 0.837,1.59 l 1.596,1.667 c 0.205,0.211 0.302,0.442 0.296,0.693 -0.003,0.252 -0.108,0.478 -0.307,0.677 l -3.481,-3.609 -2.227,2.135 z"
               style="fill:#c98844;fill-opacity:1;fill-rule:nonzero;stroke:none"
               id="path70" /></g><g
             id="g72"
             transform="translate(435.1338,411.439)"><path
               d="M 0,0 -1.777,2.522 5.968,7.977 5.449,8.712 -0.029,4.852 C -0.751,4.345 -1.336,4.072 -1.779,4.037 -2.225,4 -2.622,4.144 -2.967,4.466 -3.314,4.789 -3.778,5.363 -4.361,6.191 l -0.278,0.394 1.667,1.174 C -2.755,7.453 -2.569,7.268 -2.41,7.207 -2.255,7.144 -1.956,7.268 -1.514,7.58 L 5.61,12.597 9.681,6.818 Z"
               style="fill:#c98844;fill-opacity:1;fill-rule:nonzero;stroke:none"
               id="path74" /></g><g
             id="g76"
             transform="translate(448.7461,410.1958)"><path
               d="m 0,0 -7.465,-2.547 c -1.177,-0.402 -2.024,-0.64 -2.54,-0.714 -0.518,-0.072 -0.964,0.042 -1.344,0.344 -0.375,0.303 -0.775,0.905 -1.192,1.807 l -0.759,1.63 1.385,0.644 0.078,-0.166 c 0.171,-0.368 0.305,-0.581 0.406,-0.639 0.099,-0.059 0.21,-0.06 0.333,-0.002 0.01,0.005 0.289,0.199 0.836,0.581 l 7.396,5.224 1.128,-2.424 -6.276,-3.996 6.888,2.68 z"
               style="fill:#c98844;fill-opacity:1;fill-rule:nonzero;stroke:none"
               id="path78" /></g><g
             id="g80"
             transform="translate(442.6152,398.8223)"><path
               d="m 0,0 c -0.852,-0.228 -1.494,-0.281 -1.925,-0.159 -0.431,0.122 -0.754,0.395 -0.967,0.82 -0.217,0.423 -0.454,1.129 -0.716,2.112 L -4.528,6.211 6.911,9.27 8.468,3.443 6.484,2.913 5.724,5.759 3.787,5.242 3.912,4.783 C 4.155,3.865 4.288,3.156 4.305,2.657 4.322,2.156 4.179,1.741 3.87,1.409 3.565,1.077 3.016,0.806 2.223,0.595 Z M -0.451,3.072 1.201,3.513 C 1.682,3.642 1.96,3.769 2.039,3.893 2.116,4.017 2.101,4.307 1.994,4.763 L -1.761,3.758 c 0.101,-0.376 0.217,-0.619 0.348,-0.727 0.134,-0.109 0.454,-0.094 0.962,0.041"
               style="fill:#c98844;fill-opacity:1;fill-rule:nonzero;stroke:none"
               id="path82" /></g><g
             id="g84"
             transform="translate(509.4307,369.9458)"><path
               d="m 0,0 -0.119,2.398 h -2.402 c -29.543,0 -53.767,5.2 -70.515,10.349 -3.087,-17.308 -18.201,-30.449 -36.395,-30.449 -18.193,0 -33.307,13.141 -36.394,30.448 -16.719,-5.14 -40.953,-10.348 -70.515,-10.348 h -2.402 L -218.861,0 c -0.01,-0.21 -1.022,-21.345 0.703,-48.071 2.324,-35.998 8.231,-64.488 17.557,-84.678 8.164,-17.674 19.617,-33.263 34.04,-46.332 15.492,-14.038 34.425,-25.158 56.273,-33.048 l 0.857,-0.311 0.858,0.311 c 21.848,7.89 40.781,19.01 56.273,33.048 14.423,13.069 25.876,28.658 34.04,46.332 9.325,20.19 15.234,48.68 17.557,84.678 C 1.022,-21.345 0.011,-0.21 0,0"
               style="fill:#0c2d83;fill-opacity:1;fill-rule:nonzero;stroke:none"
               id="path86" /></g></g></g><g
         id="g88"><g
           id="g90"><g
             id="g96"><g
               id="g98"><path
                 d="m 400,352.244 c -16.432,0 -30.353,10.72 -35.17,25.545 v 0 c -16.641,-5.093 -40.412,-10.207 -69.31,-10.48 v 0 c -0.206,-6.216 -0.583,-23.896 0.793,-45.168 v 0 c 1.573,-24.302 5.815,-58.399 17.098,-82.827 v 0 c 7.879,-17.056 18.93,-32.098 32.848,-44.709 v 0 c 14.799,-13.41 32.877,-24.084 53.741,-31.73 v 0 c 20.864,7.646 38.942,18.32 53.741,31.73 v 0 c 13.917,12.611 24.969,27.653 32.848,44.709 v 0 c 11.29,24.442 15.531,58.565 17.101,82.886 v 0 c 1.374,21.26 0.997,38.902 0.792,45.108 v 0 c -28.899,0.274 -52.67,5.388 -69.311,10.481 v 0 C 430.352,362.964 416.432,352.244 400,352.244"
                 style="fill:url(#linearGradient108);stroke:none"
                 id="path110" /></g></g></g></g><g
         id="g120"
         transform="translate(400.0015,420.9302)"><path
           d="m 0,0 c -17.511,0 -31.706,-14.194 -31.706,-31.705 0,-17.508 14.195,-31.705 31.706,-31.705 17.511,0 31.704,14.197 31.704,31.705 C 31.704,-14.194 17.511,0 0,0"
           style="fill:#0c2d83;fill-opacity:1;fill-rule:nonzero;stroke:none"
           id="path122" /></g><g
         id="g124"
         transform="translate(410.2646,417.3032)"><path
           d="M 0,0 C 5.259,-1.922 9.824,-5.281 13.227,-9.6 L 10.077,-10.324 0.052,-3.041 0,-3.057 Z"
           style="fill:#c98844;fill-opacity:1;fill-rule:nonzero;stroke:none"
           id="path126" /></g><g
         id="g128"
         transform="translate(400.4004,410.0698)"><path
           d="m 0,0 9.74,3.092 9.45,-6.867 0.008,-10.174 -5.501,-1.827 -4.218,-1.369 -9.455,6.869 -0.029,4.412 z"
           style="fill:#c98844;fill-opacity:1;fill-rule:nonzero;stroke:none"
           id="path130" /></g><g
         id="g132"
         transform="translate(399.3638,410.0352)"><path
           d="m 0,0 0.038,-5.833 -0.002,-4.398 -9.453,-6.868 -4.238,1.346 -5.544,1.805 0.069,10.219 9.452,6.866 z"
           style="fill:#c98844;fill-opacity:1;fill-rule:nonzero;stroke:none"
           id="path134" /></g><g
         id="g136"
         transform="translate(389.6006,417.252)"><path
           d="m 0,0 -0.069,-0.369 -0.021,-2.607 -10.231,-7.435 -2.96,0.616 C -9.891,-5.395 -5.3,-1.967 0,0"
           style="fill:#c98844;fill-opacity:1;fill-rule:nonzero;stroke:none"
           id="path138" /></g><g
         id="g140"
         transform="translate(375.2979,372.3994)"><path
           d="M 0,0 C -3.05,4.47 -4.92,9.811 -5.157,15.572 L -2.495,14.632 1.422,2.573 Z"
           style="fill:#c98844;fill-opacity:1;fill-rule:nonzero;stroke:none"
           id="path142" /></g><g
         id="g144"
         transform="translate(377.5142,375.7446)"><path
           d="M 0,0 -3.609,11.11 2.365,19.345 7.889,17.591 12.107,16.218 15.717,5.105 13.146,1.516 9.698,-3.223 Z"
           style="fill:#c98844;fill-opacity:1;fill-rule:nonzero;stroke:none"
           id="path146" /></g><g
         id="g148"
         transform="translate(400.0015,359.3398)"><path
           d="M 0,0 C -2.813,0 -5.535,0.388 -8.115,1.115 L -6.491,3.43 -6.452,3.379 H 6.239 L 6.291,3.448 8.308,1.169 C 5.669,0.408 2.882,0 0,0"
           style="fill:#c98844;fill-opacity:1;fill-rule:nonzero;stroke:none"
           id="path150" /></g><g
         id="g152"
         transform="translate(405.7402,363.7134)"><path
           d="m 0,0 h -11.685 l -5.984,8.227 3.394,4.737 2.59,3.563 H 0 L 2.619,12.97 6.06,8.227 Z"
           style="fill:#c98844;fill-opacity:1;fill-rule:nonzero;stroke:none"
           id="path154" /></g><g
         id="g156"
         transform="translate(422.29,375.7285)"><path
           d="m 0,0 -9.672,-3.15 -3.458,4.693 -2.586,3.563 3.612,11.112 4.222,1.402 5.542,1.797 5.951,-8.306 z"
           style="fill:#c98844;fill-opacity:1;fill-rule:nonzero;stroke:none"
           id="path158" /></g><g
         id="g160"
         transform="translate(423.1689,375.2144)"><path
           d="M 0,0 3.806,11.707 6.703,13.07 C 6.524,7.26 4.686,1.868 1.646,-2.65 Z"
           style="fill:#c98844;fill-opacity:1;fill-rule:nonzero;stroke:none"
           id="path162" /></g><g
         id="g164"
         transform="translate(300.8843,321.4404)"><path
           d="M 0,0 H 12.19 V 46.642 C 8.246,46.332 4.18,46.106 0,45.979 Z"
           style="fill:#1f61a9;fill-opacity:1;fill-rule:nonzero;stroke:none"
           id="path166" /></g><g
         id="g168"
         transform="translate(321.5562,321.4404)"><path
           d="M 0,0 H 12.189 V 49.134 C 8.291,48.498 4.226,47.93 0,47.453 Z"
           style="fill:#1f61a9;fill-opacity:1;fill-rule:nonzero;stroke:none"
           id="path170" /></g><g
         id="g172"
         transform="translate(342.2271,321.4404)"><path
           d="M 0,0 H 12.19 V 53.434 C 8.383,52.464 4.315,51.531 0,50.67 Z"
           style="fill:#1f61a9;fill-opacity:1;fill-rule:nonzero;stroke:none"
           id="path174" /></g><g
         id="g176"
         transform="translate(362.9956,377.2378)"><path
           d="m 0,0 c -0.033,-0.01 -0.064,-0.02 -0.097,-0.03 v -55.767 h 12.19 v 37.918 C 6.527,-13.231 2.285,-7.058 0,0"
           style="fill:#1f61a9;fill-opacity:1;fill-rule:nonzero;stroke:none"
           id="path178" /></g><g
         id="g180"
         transform="translate(383.5698,321.4404)"><path
           d="M 0,0 H 12.19 V 29.123 C 7.875,29.591 3.774,30.767 0,32.528 Z"
           style="fill:#1f61a9;fill-opacity:1;fill-rule:nonzero;stroke:none"
           id="path182" /></g><g
         id="g184"
         transform="translate(404.2412,321.4404)"><path
           d="M 0,0 H 12.189 V 32.529 C 8.416,30.767 4.315,29.591 0,29.124 Z"
           style="fill:#1f61a9;fill-opacity:1;fill-rule:nonzero;stroke:none"
           id="path186" /></g><g
         id="g188"
         transform="translate(424.9121,359.3594)"><path
           d="m 0,0 v -37.919 h 12.189 v 55.768 c -0.033,0.01 -0.063,0.019 -0.096,0.029 C 9.808,10.821 5.565,4.647 0,0"
           style="fill:#1f61a9;fill-opacity:1;fill-rule:nonzero;stroke:none"
           id="path190" /></g><g
         id="g192"
         transform="translate(445.583,321.4404)"><path
           d="M 0,0 H 12.19 V 50.67 C 7.875,51.531 3.808,52.464 0,53.434 Z"
           style="fill:#1f61a9;fill-opacity:1;fill-rule:nonzero;stroke:none"
           id="path194" /></g><g
         id="g196"
         transform="translate(466.2559,321.4404)"><path
           d="M 0,0 H 12.189 V 47.453 C 7.963,47.93 3.898,48.498 0,49.134 Z"
           style="fill:#1f61a9;fill-opacity:1;fill-rule:nonzero;stroke:none"
           id="path198" /></g><g
         id="g200"
         transform="translate(486.9268,368.082)"><path
           d="M 0,0 V -46.642 H 12.189 V -0.663 C 8.01,-0.536 3.943,-0.31 0,0"
           style="fill:#1f61a9;fill-opacity:1;fill-rule:nonzero;stroke:none"
           id="path202" /></g><g
         id="g240"
         transform="translate(387.1777,283.3945)"><path
           d="M 0,0 -0.766,-2.535 V -114.92 c 0.787,-0.361 1.574,-0.725 2.37,-1.076 v 104.989 h -1.841 z"
           style="fill:#ffffff;fill-opacity:1;fill-rule:nonzero;stroke:none"
           id="path242" /></g><g
         id="g244"
         transform="translate(373.2666,272.3877)"><path
           d="m 0,0 v -97.194 c 0.785,-0.446 1.576,-0.883 2.371,-1.319 V 0 Z"
           style="fill:#ffffff;fill-opacity:1;fill-rule:nonzero;stroke:none"
           id="path246" /></g><g
         id="g248"
         transform="translate(483.9668,311.3022)"><path
           d="m 0,0 0.041,3.492 h 0.98 z m -17.082,-18.558 h -3.101 v 6.764 h 3.101 z m -12.637,-5.178 v 1.61 h 0.315 z m -18.587,6.653 h -13.836 l -0.694,-3.765 v 8.733 l 0.11,-0.697 h 14.42 z m -73.476,-6.442 h -0.256 v 16.128 h 0.256 z m -38.028,4.967 h -5.223 v 6.764 h 5.223 z m -14.757,-5.183 v 1.615 h 0.31 z M 28.605,-7.396 V 7.992 H 9.355 l 2.916,10.224 H -6.013 V 7.992 h -61.322 c -4.822,0 -5.873,-0.638 -9.602,-4.235 -0.208,-0.202 -0.407,-0.396 -0.596,-0.587 v 4.822 h -24.831 l -2.337,-7.99 0.097,7.99 h -36.249 V -7.082 h -0.198 V 7.992 h -55.487 V -7.396 h 3.38 v -16.129 h -3.38 v -15.39 h 55.487 v 16.328 h 0.198 v -16.328 h 32.524 v -98.512 c 3.486,-1.905 7.078,-3.705 10.774,-5.401 v 112.385 l 0.766,2.535 -0.237,-11.007 h 19.493 v 4.878 c 0.131,-0.129 0.265,-0.256 0.406,-0.39 4.165,-4.102 5.564,-4.488 10.249,-4.488 H 4.585 l 3.326,11.007 -0.239,-11.007 h 20.933 v 15.39 h -3.377 v 16.129 z"
           style="fill:#0c2d83;fill-opacity:1;fill-rule:nonzero;stroke:none"
           id="path250" /></g><g
         id="g252"
         transform="translate(345.3623,301.9722)"><path
           d="M 0,0 H -4.697 V 15.073 H -20.898 V 4.183 h 1.942 v -20.629 h -1.942 v -10.889 h 16.201 v 16.33 H 0 v -16.33 h 16.261 v 10.889 H 14.316 V 4.183 h 1.945 v 10.89 H 0 Z"
           style="fill:#c98844;fill-opacity:1;fill-rule:nonzero;stroke:none"
           id="path254" /></g><g
         id="g256"
         transform="translate(311.415,286.1445)"><path
           d="M 0,0 C -0.05,-0.217 -0.183,-0.791 -0.243,-0.881 -0.278,-0.9 -0.44,-0.957 -1.089,-0.957 H -4.266 V 5.279 H 5.27 v 9.635 h -9.536 v 5.324 h 2.74 c 0.69,-0.022 0.831,-0.092 0.826,-0.081 0.079,-0.112 0.181,-0.626 0.233,-0.886 L 0.204,15.615 H 11.802 L 10.677,30.9 H -21.737 V 20.01 h 3.381 V -0.618 h -3.381 v -10.89 H 11.654 L 12.708,4.35 H 0.842 Z"
           style="fill:#c98844;fill-opacity:1;fill-rule:nonzero;stroke:none"
           id="path258" /></g><g
         id="g260"
         transform="translate(376.8218,294.9219)"><path
           d="m 0,0 0.265,22.123 h -14.594 v -10.89 h 1.941 V -20.285 H 5.361 L 12.96,4.861 12.417,-20.285 h 14.946 v 10.889 h -1.942 v 20.629 h 1.942 v 10.89 H 6.465 Z"
           style="fill:#c98844;fill-opacity:1;fill-rule:nonzero;stroke:none"
           id="path262" /></g><g
         id="g264"
         transform="translate(481.5225,294.9199)"><path
           d="m 0,0 0.264,22.124 h 6.201 z m 28.8,11.235 v 10.89 H 8.819 l 2.915,10.224 H -1.316 V 22.125 H -14.33 v -3.386 l -0.247,3.386 h -30.979 v -10.89 h 1.944 V -9.394 h -1.944 v -10.889 h 31.953 l 1.051,15.857 h -11.863 l -0.843,-4.351 c -0.05,-0.215 -0.181,-0.789 -0.242,-0.879 -0.034,-0.02 -0.197,-0.076 -0.848,-0.076 h -3.175 v 6.236 h 9.535 v 9.635 h -9.535 v 5.324 h 2.743 c 0.67,-0.022 0.821,-0.087 0.823,-0.081 0.08,-0.112 0.182,-0.626 0.233,-0.886 l 0.673,-3.657 h 11.596 l -0.324,4.396 h 1.391 V -20.283 H 5.359 l 7.6,25.146 -0.543,-25.146 H 28.8 v 10.889 h -3.378 v 20.629 z"
           style="fill:#c98844;fill-opacity:1;fill-rule:nonzero;stroke:none"
           id="path266" /></g><g
         id="g268"
         transform="translate(422.7373,286.7656)"><path
           d="m 0,0 c -0.226,-1.239 -0.266,-1.239 -0.738,-1.239 -1.734,0 -2.043,0.024 -2.441,0.298 -0.576,0.447 -0.677,1.281 -0.677,2.871 v 14.581 c 0,2.463 0,2.841 1.919,2.878 0.593,0 1.267,0 1.395,-0.056 0.034,-0.042 0.127,-0.215 0.253,-0.888 L 0.424,13.977 H 11.859 L 10.81,30.279 H -6.105 c -4.161,0 -4.669,-0.356 -8.039,-3.603 -3.427,-3.313 -3.916,-4.634 -3.916,-7.778 V 0.152 c 0.062,-3.935 0.223,-5.101 3.741,-8.439 3.782,-3.726 4.657,-3.842 8.671,-3.842 H 11.317 L 12.55,5.205 H 0.959 Z"
           style="fill:#c98844;fill-opacity:1;fill-rule:nonzero;stroke:none"
           id="path270" /></g><g
         id="g272"
         transform="translate(418.3174,284.1309)"><path
           d="m 0,0 c -1.536,1.189 -1.536,3.061 -1.536,4.564 v 14.582 c 0,2.409 0,4.898 3.999,4.976 H 2.47 c 2.186,0 3.25,-0.115 3.727,-2.684 L 6.635,18.71 H 14.04 L 13.263,30.816 H -1.686 c -3.42,0 -3.482,-0.027 -6.58,-3.016 -3.136,-3.029 -3.276,-3.859 -3.276,-6.267 V 2.85 c 0.056,-3.487 0.066,-4.113 3.102,-6.996 3.301,-3.249 3.597,-3.249 7.211,-3.249 H 13.782 L 14.716,5.74 H 7.126 L 6.483,2.258 C 6.271,1.08 5.946,-0.701 3.682,-0.701 1.905,-0.701 1.013,-0.701 0,0"
           style="fill:#ffffff;fill-opacity:1;fill-rule:nonzero;stroke:none"
           id="path274" /></g><g
         id="g276"
         transform="translate(438.0664,314.9468)"><path
           d="M 0,0 V -6.694 H 1.942 V -31.517 H 0 v -6.693 h 27.89 l 0.772,11.658 h -7.889 l -0.522,-2.688 c -0.445,-1.943 -0.985,-2.618 -3.143,-2.618 h -5.274 v 10.431 h 9.536 v 5.439 h -9.536 v 9.523 h 4.876 c 2.319,-0.078 2.734,-0.914 3.085,-2.671 l 0.359,-1.954 h 7.587 L 26.927,0 Z"
           style="fill:#ffffff;fill-opacity:1;fill-rule:nonzero;stroke:none"
           id="path278" /></g><g
         id="g280"
         transform="translate(490.4766,325.1689)"><path
           d="m 0,0 h -8.173 v -6.027 h 6.454 z"
           style="fill:#ffffff;fill-opacity:1;fill-rule:nonzero;stroke:none"
           id="path282" /></g><g
         id="g284"
         transform="translate(374.6323,287.2891)"><path
           d="m 0,0 0.329,27.658 h -10.371 v -6.694 h 1.943 V -10.553 H 5.99 l 9.369,31 2.054,-0.326 -0.663,-30.674 h 10.704 v 6.694 h -1.942 v 24.823 h 1.942 v 6.694 H 10.229 L 2.057,-0.307 Z"
           style="fill:#ffffff;fill-opacity:1;fill-rule:nonzero;stroke:none"
           id="path286" /></g><g
         id="g288"
         transform="translate(338.5679,314.9468)"><path
           d="m 0,0 h -12.005 v -6.694 h 1.942 v -24.823 h -1.942 V -38.21 H 0 v 16.326 H 8.892 V -38.21 h 12.065 v 6.693 h -1.944 v 24.823 h 1.944 V 0 H 8.892 V -15.074 H 0 Z"
           style="fill:#ffffff;fill-opacity:1;fill-rule:nonzero;stroke:none"
           id="path290" /></g><g
         id="g292"
         transform="translate(305.0493,283.0889)"><path
           d="M 0,0 V 10.431 H 9.536 V 15.87 H 0 v 9.523 h 4.875 c 2.319,-0.079 2.734,-0.914 3.084,-2.671 l 0.36,-1.954 h 7.59 l -0.816,11.09 h -28.364 v -6.694 h 3.379 V 0.341 h -3.379 V -6.353 H 16.056 L 16.831,5.306 H 8.939 L 8.419,2.618 C 7.97,0.675 7.431,0 5.276,0 Z"
           style="fill:#ffffff;fill-opacity:1;fill-rule:nonzero;stroke:none"
           id="path294" /></g><g
         id="g296"
         transform="translate(508.2246,308.2529)"><path
           d="m 0,0 v 6.694 h -18.662 l -8.174,-27.965 -2.057,0.307 0.329,27.658 H -38.933 V 0 h 1.942 v -31.517 h 14.09 l 9.368,31 2.054,-0.326 -0.663,-30.674 H 0 v 6.694 H -3.381 V 0 Z"
           style="fill:#ffffff;fill-opacity:1;fill-rule:nonzero;stroke:none"
           id="path298" /></g><g
         id="g300"
         transform="translate(418.6074,185.5342)"><path
           d="M 0,0 C -0.033,0.36 -0.278,0.739 -0.278,0.739 -1.004,0.624 -1.649,0.273 -2.35,0.009 -2.103,-0.259 -1.83,-0.509 -1.632,-0.802 -1.649,-2.206 0.079,-0.604 0,0 M 4.65,55.532 C 4.083,55.611 3.425,55.173 3.425,55.173 3.454,55.021 3.442,55.037 3.551,54.661 3.688,54.394 3.817,54.03 4.139,53.804 c 0.572,-0.399 1.285,-0.363 1.59,0.082 0.315,0.445 0.111,1.129 -0.47,1.526 -0.102,0.073 -0.512,0.112 -0.609,0.12 M -1.83,27.605 c -2.277,4.764 -3.807,10.046 -3.306,15.98 -0.296,-1.147 -1.23,-1.361 -2.129,-1.549 0.576,-0.791 0.928,-1.738 1.676,-2.399 -0.735,-0.898 -1.61,-1.587 -2.709,-1.439 0.461,-2.99 1.195,-6.152 2.119,-9.224 0.992,-1.78 1.571,-3.269 1.571,-3.269 1.25,-2.606 0.717,-4.432 1.805,-4.95 0.562,-0.262 1.493,0.101 1.757,0.539 1.386,2.223 0.031,4.471 -0.784,6.311 m -17.473,49.137 c 0.278,-3.202 -1.497,-5.01 -1.497,-5.01 l -3.067,-3.454 c 1.158,0.498 4.783,0.465 4.783,0.465 0.323,0.055 0.97,0.079 1.147,0.155 1.768,0.794 4.062,0.556 6.076,-0.176 1.392,0.303 4.062,0.486 5.627,-0.514 1.06,-0.682 1.492,-1.843 2.381,-2.211 l 1.484,-0.484 c -0.109,-0.553 -0.434,-0.95 -0.863,-1.362 0.411,-0.226 1.227,-0.493 1.227,-0.493 -0.098,-0.8 -1.571,-1.649 -1.571,-1.649 0.815,-1.192 0.344,-3.481 -0.019,-5.024 l -0.936,0.432 c 0.189,-1.639 -0.205,-3.414 -0.792,-4.814 0.334,-0.273 0.775,-0.303 1.107,-0.572 -0.392,-0.926 -0.948,-1.83 -1.793,-2.227 0.392,-1.274 -0.357,-2.657 0.117,-4.018 0.184,-0.508 0.324,-1.031 0.807,-1.381 0.422,3.74 1.418,7.047 3.598,10.013 0.05,1.501 -1.805,0.47 -1.805,0.47 -0.833,2.685 2.477,6.154 5.732,3.392 1.228,0.912 6.912,1.491 7.02,-3.672 C 9.49,53.192 8.723,51.354 7.487,50.563 6.221,49.753 2.519,49.21 0.683,51.051 0.079,49.925 -0.296,48.793 -0.76,47.093 -2.778,39.604 0.471,33.569 3.177,27.403 4.522,24.306 5.356,19.009 3.375,16.258 1.54,13.717 -0.809,12.413 -4.089,13.789 -4.608,11.735 -5.215,9.107 -5.606,6.993 -2.724,6.79 -0.236,7.71 2.019,9.31 2.863,9.508 3.726,9.823 4.453,9.14 4.933,8.535 5.437,8.171 5.701,7.46 5.865,6.743 5.503,5.917 5.503,5.917 6.614,3.979 6.13,1.359 6.86,-0.753 7.193,-1.651 7.96,-3.101 7.193,-3.999 6.584,-4.771 5.72,-5.157 4.836,-5.196 3.509,-6.061 2.678,-7.784 1.354,-8.671 0.478,-9.465 -0.387,-8.321 -1.3,-8.714 c -1.009,-0.272 -1.903,-1.783 -3.042,-0.751 -0.635,0.241 -1.03,-1.029 -1.759,-0.47 -0.44,0.309 -0.893,0.721 -1.128,1.244 l -0.02,1.179 c -0.423,-0.094 -0.921,0.089 -1.136,0.529 l 0.087,1.558 c -0.903,0.324 -1.009,1.396 -1.239,2.112 0.051,0.584 1.159,1.822 1.592,2.373 -0.572,-0.219 -2.474,-1.295 -3.181,-1.264 -1.088,0.041 -1.777,0.094 -2.511,1.072 -0.255,0.69 -0.639,1.234 -0.618,2.037 -1.629,2.076 -2.396,5.182 -2.849,7.828 -2.847,-0.576 -5.849,-0.836 -8.882,-0.973 -0.493,-2.536 -1.936,-4.634 -3.043,-6.9 0.194,-1.092 0.519,-1.68 0.165,-3.371 -0.902,-0.967 -1.981,-1.244 -3.141,-1.264 -0.697,-1.045 -1.474,-2.714 -2.779,-3.05 -1.009,-0.209 -1.464,-1.753 -2.514,-1.981 -0.943,-0.121 -1.981,-0.691 -2.729,0.244 -0.527,0.668 -1.106,-0.439 -1.637,0.228 l -0.725,0.683 c -0.677,-0.371 -1.632,-1 -2.387,-0.337 -0.513,0.688 -0.385,1.702 -0.488,2.583 -0.736,0.344 -0.846,1.229 -1.171,1.898 -0.048,0.863 1.581,2.045 0.158,2.483 -0.412,0.187 -0.383,0.673 -0.383,0.673 0.362,0.965 0.509,2.435 1.734,2.708 1.004,-0.321 1.487,0.72 2.192,1.175 1.294,0.425 3.015,0.178 3.728,-0.841 l 0.561,-1.128 c 0.817,0.35 1.62,0.637 2.356,1.176 0.205,3.881 0.019,7.925 0.894,11.502 -0.049,0.988 -0.049,2.332 0.53,3.078 0.9,0.988 1.971,1.248 3.219,1.414 4.368,3.883 13.929,4.643 13.929,4.643 0,0 -0.343,2.638 -0.579,2.801 0.109,-0.082 -5.062,3.456 -6.191,2.917 l -8.111,-4.882 c -1.825,-1.063 -3.741,-1.895 -5.771,-2.479 -1.738,-0.451 -1.344,0.579 -2.259,1.116 -0.361,-0.491 -1.835,-2.084 -3.005,0.3 -0.55,-0.283 -0.834,-1.435 -1.483,-0.541 l -0.577,0.645 -0.667,2.452 c 0.05,0.38 0.539,0.915 0.539,0.915 0,0 -1.353,2.19 -0.508,3.344 -0.21,0.881 -0.186,2.78 -0.186,2.78 0,0.786 1.521,1.384 1.521,1.384 l -0.953,2.747 c 2.14,0.769 6.27,2.126 6.165,4.5 -0.108,2.279 -1.23,2.688 -3.271,3.048 0,0 -3.132,0.242 -4.956,-1.483 l -1.66,2.637 c 2.475,2.365 6.501,2.764 8.473,2.342 2.111,-0.461 5.082,-1.885 6.104,-4.648 2.13,-5.741 -3.257,-9.178 -4.349,-9.663 0.327,-0.646 0.071,-1.084 -0.243,-1.721 0.49,-0.601 1.16,-1.095 1.757,-1.568 2.355,1.637 4.325,4.18 6.536,6.136 -0.186,1.47 0.295,2.765 0.719,4.038 -2.338,3.923 -5.134,7.604 -7.091,11.678 -0.488,-0.006 -0.959,0.07 -1.306,0.464 l -1.017,1.277 c -0.533,0.056 -0.522,-0.059 -0.981,0.207 l -5.443,-5.091 -2.265,2.955 c 1.962,2.097 3.878,3.83 5.89,5.93 -0.442,1.7 0.725,4.983 2.012,4.603 -0.049,1.047 1.353,2.322 2.138,2.506 l 0.386,-0.244 c 0.206,0.692 0.188,1.092 1.267,1.531 0.743,0.167 1.519,-0.305 1.981,-0.617 2.365,2.131 4.151,4.155 6.499,6.365 -0.404,0.624 -1.46,1.68 -1.932,2.263 1.225,1.474 4.269,4.097 4.269,4.097 2.148,1.266 3.276,1.346 4.871,0.914 1.757,-0.485 1.757,-0.814 1.891,-2.589 m -5.409,-8.666 -1.069,1.073 c -2.287,-2.187 -4.654,-4.361 -6.874,-6.523 0.533,-1.259 1.209,-4.336 1.209,-4.336 0,0 3.694,-4.125 5.685,-5.757 0.423,-0.013 2.895,1.277 3.045,1.337 1.649,0.66 2.048,2.041 2.343,3.884 l -0.635,0.018 c 0.184,-0.009 -3.358,-0.132 -4.428,-0.638 -0.887,-0.414 -0.856,2.637 -0.856,2.693 0.041,0.684 0.315,1.33 0.294,1.372 -0.855,1.407 -0.598,2.574 -0.578,2.695 0.029,0.351 -0.127,0.543 -0.157,0.738 -0.482,1.648 -0.501,2.117 0.097,2.724 0.717,0.731 1.376,0.498 1.924,0.72"
           style="fill:#000000;fill-opacity:1;fill-rule:evenodd;stroke:none"
           id="path302" /></g><g
         id="g304"
         transform="translate(419.9404,190.9404)"><path
           d="m 0,0 c -2.331,-1.22 -5.115,-1.772 -7.863,-1.38 -0.216,0.123 -0.108,0.378 0.031,0.507 2.942,-0.56 6.112,0.105 8.519,1.812 C 0.951,1.301 0.666,0.327 0,0 m -7.783,56.768 c 0.674,-0.455 1.471,0.432 1.914,-1.023 0.154,-0.519 0.036,-1.974 -0.072,-2.502 -0.598,1.483 -0.696,1.796 -2.755,2.18 -0.525,0.098 -0.525,0.427 -0.465,0.828 0,0 0.67,0.869 0.699,1.135 0.134,-0.422 0.274,-0.415 0.679,-0.618 M -13.25,35.613 c -0.504,0.173 -2.211,0.769 -3.164,1.993 0,0 -1.167,2.717 -0.949,4.438 -0.139,0.72 0.016,2.031 0.47,3.922 l 0.979,3.146 c 0,0 -0.237,-4.785 -0.175,-6.336 0.087,-2.025 0.881,-3.134 1.303,-4.026 0.207,-0.432 1.466,-2.813 1.536,-3.137 m 1.353,9.691 c 0,0 1.373,-0.67 1.96,-1.892 0.306,-1.119 0.208,-2.574 0.208,-2.574 -0.077,-0.614 0.61,-1.758 0.61,-1.758 -0.966,0.47 -1.631,1.412 -2.035,2.825 z m -0.912,10.517 c -0.441,0.092 -0.708,0.174 -0.945,0.293 0.56,-2.526 0.608,-4.913 0.166,-7.164 -0.216,-1.107 -0.273,-1.981 -0.273,-3.054 0,-1.072 0.816,-4.573 1.836,-5.928 0.223,-0.309 -1.358,1.074 -1.908,2.144 -0.487,0.731 -0.929,2.643 -0.929,2.643 -0.57,3.578 0.423,6.998 0.912,11.468 -0.206,0.117 -0.41,0.262 -0.726,0.467 -0.411,-0.345 -0.777,-0.527 -1.13,-0.627 l -0.186,-1.125 c 0,-0.353 -0.037,-0.731 -0.146,-1.132 0.235,0.347 0.492,0.67 0.736,0.955 -1.443,-2.854 -2.144,-5.851 -2.898,-8.42 -0.724,-2.265 -1.147,-4.773 -0.55,-6.92 l 0.757,-2.027 1.96,-3.168 -1.026,1.003 c 0,0 -1.412,1.55 -1.62,1.754 -0.207,0.204 -1.629,2.151 -1.757,3.58 0,0 -0.547,1.958 0.373,4.665 0.783,1.668 2.021,5.375 3.641,8.005 0.137,0.661 0.029,1.2 0.049,2.743 -0.316,0 -0.629,0.039 -0.951,0.064 -0.012,-0.105 -0.018,-0.223 -0.059,-0.346 0.12,-0.429 0.066,-1.039 -0.147,-1.822 -0.294,-0.816 -1.22,-2.625 -1.938,-3.551 0.633,1.398 0.972,2.602 1.034,3.621 -0.539,-0.586 -1.197,-1.066 -1.837,-1.154 -0.165,-1.584 -0.186,-2.662 -1.255,-3.835 -1.893,-2.63 -3.988,-1.623 -5.745,-3.757 -1.655,-1.529 -0.931,-4.257 -2.954,-5.427 l 0.491,-0.602 c 0.639,-0.369 1.599,-0.395 2.289,-0.088 l 0.077,-0.105 c -0.538,-0.936 -1.354,-1.811 -2.121,-2.626 1.318,0.338 2.591,1.308 3.27,2.686 0.44,2.139 1.236,4.111 2.618,5.82 l 0.079,-0.08 c -0.892,-1.533 -1.067,-3.369 -1.244,-5.224 -0.205,-1.313 -1.509,-2.326 -2.348,-2.949 0.895,0.163 1.779,0.386 2.535,0.865 0.763,0.474 1.492,1.394 1.512,2.321 -0.352,2.839 0.962,5.093 1.992,7.345 -0.138,-0.863 -0.561,-4.349 -0.597,-5.359 0.815,-4.68 2.483,-8.447 8.205,-9.618 0,0 -1.699,2.162 -1.905,3.358 1.19,-1.075 3.026,-1.793 4.596,-1.807 -0.236,0.205 -1.475,1.92 -1.758,3.89 l -0.647,1.399 c 0.185,-0.188 0.472,-0.494 0.472,-0.494 1.029,-1.035 1.233,-2.628 2.276,-3.645 0.539,-0.582 1.442,-1.011 2.188,-0.359 -1.396,1.006 -3.202,5.629 -3.202,5.629 0,0 1.1,-2.076 2.269,-2.355 0.659,-0.074 1.386,0.107 1.757,0.681 -0.46,0.44 -0.704,0.981 -0.89,1.549 -0.466,1.316 0.107,2.719 -0.11,4.039 -0.145,0.614 -0.656,1.109 -1.141,1.352 0.826,-0.048 1.886,-0.116 2.406,0.781 -0.782,0.26 -1.659,0.846 -1.856,1.81 -0.02,0.38 -0.166,0.873 0.06,1.106 0.137,-0.334 0.616,-1.293 1.353,-1.506 l 0.395,1.412 c 0.382,1.585 0.776,4.09 -0.667,5.198 -0.677,0.399 -2.012,0.425 -2.308,1.783 -0.325,-0.196 -0.69,-0.278 -1.08,-0.298 l 0.707,-1.613 c 0.911,-1.043 2.789,-1.019 2.855,-2.982 -0.007,-0.652 -0.163,-1.246 -0.487,-1.781 v 0.126 l -0.099,-0.191 c -0.028,0.973 -0.215,2.148 -1.13,2.662 -0.541,0.323 -1.059,0.307 -1.491,1.117 -0.199,0.381 -0.312,0.79 -0.336,1.204 -0.078,0.402 -0.207,0.912 -0.419,1.521 -0.071,0.01 -0.238,0.024 -0.434,0.031 0.089,-1.399 0.404,-5.654 1.257,-6.822 0.046,-0.18 1.571,-2.592 1.571,-2.592 0,0 -2.448,1.034 -2.786,2.176 -0.681,2.248 -0.422,4.617 -0.109,7.243 -0.234,0.012 -0.463,0.027 -0.549,0.044 m -3.751,-24.64 c -0.542,0.027 -1.698,0.166 -1.543,0.558 -0.384,-0.595 -0.402,-1.748 -1.513,-2.076 0.442,1.193 -0.147,1.713 -0.469,2.621 0,-1.014 -0.817,-3.45 -1.747,-3.866 l 0.364,2.169 c 0.313,3.367 -0.286,3.668 -0.324,6.938 0.89,-4.086 4.664,-5.69 5.232,-6.344 m 1.128,29.118 v -0.167 c -0.914,0.033 -1.177,0.989 -1.956,1.014 -0.382,-0.19 0,-0.452 0,-0.684 0.188,-0.186 0.423,-0.279 0.611,-0.516 -0.697,-0.117 -1.147,-0.164 -1.945,0 -0.658,0.741 -0.598,0.955 -0.588,0.951 -0.4,-0.152 -0.748,-0.435 -1.2,-0.435 0.964,0.773 2.114,1.668 3.545,1.174 0.629,-0.164 1.114,-0.845 1.533,-1.337 m 2.042,1.759 c -1.219,0.515 -2.562,0.775 -3.998,0.775 -2.983,-1.269 -6.782,0.121 -9.628,-1.527 0,-0.305 0.168,-0.561 0.265,-0.844 0.353,-0.361 1.287,0.26 1.947,0.425 l 0.076,-0.685 c 0.931,0.049 1.807,-0.047 2.622,-0.256 0.42,-0.164 1.01,-0.284 1.18,-0.754 -1.821,0.027 -4.217,0.45 -5.756,-0.681 -0.218,-0.562 0.07,-1.125 0.089,-1.692 1.789,0.145 3.672,0.801 5.667,0.425 0.555,-0.352 1.116,-0.985 0.763,-1.69 -1.288,-1.505 -3.723,-0.61 -5.487,-1.104 -0.678,-0.094 -1.08,-0.869 -0.78,-1.506 2.26,1.295 5.099,-0.185 7.12,1.435 0.714,0.728 0.893,1.788 0.914,2.702 h 2.463 c 1.599,0.282 3.035,1.9 3.544,3.381 0.54,-0.211 1.16,-0.234 1.599,-0.68 0.444,-0.47 0.637,-1.13 0.423,-1.761 -0.334,-0.446 -0.913,-0.917 -1.53,-0.612 0.587,0.166 0.738,0.659 0.775,1.197 -0.209,0.375 -0.658,0.776 -1.1,0.495 -0.224,-0.849 -0.982,-1.551 -1.532,-2.186 l 0.687,-0.352 c 1.287,-0.211 2.679,-0.421 3.71,0.518 0.424,0.563 0.608,1.243 0.521,2.02 -0.216,1.198 -1.363,2.064 -2.444,2.371 0.607,0.211 1.248,0 1.758,-0.258 1.127,-0.633 1.769,-1.762 1.955,-2.962 0.242,-0.396 0.674,-1.195 1.36,-1.008 0.464,0.07 0.777,0.271 1.238,0.589 -0.44,0.211 -0.979,0.26 -1.343,0.678 0.26,0.133 0.558,0.349 1.009,0.847 -0.53,0.189 -1.081,0.399 -1.51,0.844 -1.255,2.797 -4.214,1.928 -6.577,1.856 m -7.775,-6.256 c -1.216,-0.967 -2.728,0.543 -4.093,-0.115 -0.315,-0.167 -0.57,-0.457 -0.826,-0.711 -0.346,0.912 0.501,1.187 0.982,1.359 1.365,0.481 2.629,-0.563 3.937,-0.533 m -16.106,-20.98 c -0.188,-2.327 -2.339,-4.762 -4.392,-5.401 l -1.001,0.633 -2.092,-0.979 -0.499,1.521 c 0.983,0.351 5.114,2.048 5.439,4.594 0.448,3.569 -1.593,4.997 -4.135,5.184 -1.04,0.072 -2.452,0.035 -4.995,-1.059 l -0.382,0.598 c 2.483,1.573 5.271,1.967 7.871,1.126 2.7,-0.88 4.427,-3.206 4.186,-6.217 m -4.796,-9.947 c -0.019,-0.442 -0.087,-0.864 -0.204,-1.249 -0.399,-0.029 -1.265,0.656 -2.061,0.137 0.067,0.029 -1.324,-0.703 -1.697,-1.399 -0.14,0.02 -0.188,0.283 -0.219,0.452 -0.048,0.692 0.177,1.226 0.865,1.71 -0.078,-0.062 -0.117,-0.083 -0.117,-0.083 -0.01,0.015 1.864,1.335 2.75,0.978 0.421,-0.174 0.596,-0.352 0.683,-0.546 m -4.53,0.586 c 0.066,0.786 0.183,1.313 0.575,1.735 0.935,0.582 1.858,0.963 2.776,1.146 0.315,-0.068 0.707,-0.371 1.191,-0.911 0,-0.179 -0.09,-0.462 -0.274,-0.85 -0.825,0.215 -1.689,0.127 -2.593,-0.254 -0.697,-0.216 -1.187,-0.444 -1.675,-0.866 m 46.264,26.87 c 0.166,-0.146 0.401,-0.432 0.528,-0.795 0.563,-1.543 0.992,-4.062 2.711,-4.512 1.39,-0.404 2.489,0.44 2.716,1.145 0.639,1.983 -1.246,2.955 -1.676,3.094 -0.55,0.052 -1.088,0.002 -2.092,-0.33 -0.089,0.294 -0.362,0.643 -0.385,0.958 1.075,0.371 2.131,0.49 2.986,0.39 0.688,-0.086 3.859,-1.897 1.816,-5.278 -0.901,-1.482 -3.397,-1.412 -4.21,-1.246 -2.297,0.47 -3.359,2.31 -3.907,4.33 -0.266,1.603 -1.847,0.835 -1.847,0.835 0.602,2.04 2.909,1.911 3.36,1.409 m -1.375,-5.65 -0.521,0.776 -0.541,-0.767 c -3.867,-7.018 -2.652,-17.41 1.062,-24.128 0.803,-2.076 1.995,-4.713 0.834,-7.006 -0.706,-1.412 -1.769,-2.224 -3.208,-1.975 -0.737,0.175 -1.395,0.709 -1.828,1.364 -0.142,3.718 -1.553,6.425 -2.688,7.5 -1.092,3.376 -1.779,6.193 -2.292,9.839 -0.45,0.034 -1.084,0.047 -1.569,0.292 l 1.111,-1.123 c -0.787,-0.451 -3.043,-0.811 -4.253,0.201 l 0.975,-1.528 c -1.666,-0.788 -2.133,-1.091 -2.948,-0.522 -1.009,-1.656 -2.042,-2.038 -2.718,-1.058 -0.332,-0.924 -1.578,-2.101 -2.483,-2.096 -0.168,-1.203 0.019,-0.039 -0.697,-1.021 0.087,-0.11 0.146,-0.342 0.817,-0.903 2.363,-0.437 5.817,3.291 5.817,3.291 l 0.396,-0.054 c 0,0 -3.047,-2.979 -5.078,-4.231 1.534,-0.873 3.89,1.543 5.832,3.517 0,0 0.314,0.044 0.432,0.005 -1.353,-1.354 -3.308,-3.268 -4.643,-4.385 0,0 2.101,-0.465 4.173,2.181 h 0.216 c -0.543,-1.021 -2.869,-3.071 -2.869,-3.071 0,0 1.052,-3.188 0.985,-3.555 -0.08,-0.858 -0.08,-0.849 -0.18,-2.2 -0.431,-5.801 -0.646,-15.666 3.339,-20.065 0.041,-0.364 0.05,-0.46 0.06,-0.556 0.019,-0.097 0.038,-0.193 0.096,-0.576 0.679,-1.903 2.739,-1.078 3.16,-0.05 0.404,-0.059 6.276,0.949 8.621,1.728 1.044,0.271 1.894,1.212 3.003,1.212 0.65,-0.624 0.697,-1.275 0.697,-1.275 -0.01,-0.296 0.688,-1.229 -0.639,-1.107 0,0 -0.157,0.523 -0.55,1.044 -0.312,0.247 -0.784,0.093 -0.971,-0.248 0.609,-0.875 0.372,-2.009 -0.007,-2.62 -0.519,-0.807 -0.974,-1.123 -1.747,-1.392 0.214,-0.272 0.26,-0.632 0.304,-0.985 0.283,-0.647 0.861,0.181 1.346,0.189 l 0.587,-0.64 c -0.63,-0.522 -1.275,-0.954 -1.933,-1.342 -0.357,0.205 -0.345,0.648 -0.617,0.918 -0.307,0.183 -0.641,0.283 -1.045,0.231 -0.587,-0.112 -1.02,-0.797 -1.354,-1.202 -0.755,0.203 -1.315,-0.297 -1.792,-0.892 -0.278,-0.616 -0.326,-1.565 0.123,-2.064 l 0.728,0.79 c 0.192,-0.119 0.332,-0.413 0.568,-0.474 0.621,-0.348 1.407,-0.101 1.914,0.326 l -0.362,0.357 c 0.816,1.233 1.873,-0.075 2.846,0.045 1.726,0.074 1.914,2.248 3.141,3.258 0.627,0.429 1.502,0.279 2.208,0.521 0.561,0.344 0.64,0.803 0.412,1.57 -0.539,1.007 -0.746,1.555 -0.894,2.448 0.078,2.153 -0.447,4.018 -1.195,5.796 L 2.591,1.098 C 2.925,1.629 2.701,1.972 2.393,2.3 1.972,2.628 1.305,2.704 0.853,2.407 -1.237,1.192 -2.103,0.956 -4.487,0.454 -5.539,0.286 -8,-0.351 -8.648,0.694 c 0.392,2.073 2.12,8.385 2.387,9.616 0.755,-0.558 1.833,-0.979 2.843,-0.909 1.746,0.01 3.945,1.344 4.566,3.169 2.668,6.831 -3.042,11.832 -4.346,17.877 -1.536,5.601 -1.25,11.593 1.49,16.234 m -9.731,-27.447 0.2,-0.21 c -2.515,-2.191 -2.859,-6.171 -3.37,-9.277 -0.331,-3.926 0.157,-11.337 2.984,-11.648 0.855,-0.098 1.286,0.187 1.405,0.65 0.283,-0.334 -0.777,-1.839 -1.413,-1.918 -0.985,-0.039 -2.043,0.84 -2.523,1.736 -2.366,5.207 -1.228,12.858 0.206,17.377 0.096,0.194 0.01,0.081 0.118,0.264 l -0.481,2.26 0.138,0.107 0.775,-1.711 c 0.7,1.141 1.328,1.836 1.961,2.37 m 7.883,-27.704 -0.58,0.961 c -0.526,-0.053 -1.056,-0.101 -1.529,-0.345 -0.387,-0.953 -1.394,-0.508 -1.954,-1.022 -0.315,-0.68 -0.745,-1.339 -0.709,-2.182 -0.055,-0.275 0.22,-0.398 0.394,-0.33 0.5,0.684 1.08,1.618 1.944,1.675 -0.137,0.105 -0.187,0.251 -0.271,0.375 l 0.615,0.454 c 0.188,0.255 0.356,-0.185 0.471,-0.31 0.436,0.388 0.991,0.713 1.619,0.724 m -1.029,2.027 c -0.541,-0.326 -1.519,0.143 -1.799,-0.767 -0.056,0.021 -0.232,0.141 -0.321,0.246 l -0.707,-0.519 0.156,-0.31 c -0.607,0.051 -1.155,-0.36 -1.44,-0.974 -0.032,-0.17 -0.073,-0.404 -0.257,-0.492 -0.395,-0.025 -0.303,0.434 -0.504,0.662 0.542,1.09 2.428,3.033 3.438,3.035 0.57,-0.009 1.001,-0.447 1.434,-0.881 m -36.844,2.569 c -0.341,0.924 -1.635,0.818 -1.971,0.678 -0.498,-0.223 -0.982,-0.6 -1.413,-1.115 -0.268,-0.167 -1.072,-0.03 -1.229,-0.252 -0.242,-0.247 -0.459,-0.473 -0.44,-0.958 0.119,-0.185 0.295,-0.246 0.46,-0.286 0.403,0.345 0.737,-0.178 1.158,0.023 0.453,0.111 0.235,0.572 0.061,0.82 0.283,0.258 0.628,0.393 0.93,0.586 l 0.375,-0.522 c 0.639,0.559 1.737,0.43 2.434,0.337 z m 22.778,20.342 c -0.469,-2.708 -0.167,-4.549 -0.335,-7.375 -1.491,-0.742 -5.184,-2.364 -9.678,-2.827 -1.209,-0.124 -1.798,0.526 -1.903,1.053 -0.11,0.393 0.098,1.137 0.793,1.737 -0.244,-0.055 -1.179,-0.402 -1.11,-2.202 0.668,-1.072 1.894,-1.395 3.3,-1.21 3.148,0.404 5.653,0.82 8.432,1.753 l 0.217,-2.189 c -4.136,-0.908 -7.689,-1.477 -12.036,-0.94 -0.061,-1.665 -0.296,-3.302 -0.357,-5.203 0.671,1.317 0.847,2.344 1.249,3.827 l 1.317,-0.12 c -0.343,-2.597 -1.817,-4.687 -2.985,-6.899 l 0.294,-2.427 c -0.008,-0.721 -0.884,-1.005 -1.307,-1.013 -0.676,-0.016 -1.403,0.193 -1.866,-0.658 -0.832,-1.171 -1.541,-2.637 -2.88,-3.124 -0.709,-1.129 -1.82,-1.548 -3.017,-1.421 -0.444,0.267 -0.608,0.832 -0.923,1.226 -0.324,-0.049 -0.647,-0.076 -0.91,-0.312 0.077,-0.102 0.034,-0.271 0.046,-0.396 -0.765,-0.497 -1.176,1.283 -1.854,0.45 l -1.034,-0.271 0.049,1.517 c 0.805,1.239 1.947,1.825 3.25,1.911 0.326,0.028 0.618,-0.303 0.757,-0.6 0.029,-0.229 0.15,-0.438 0.343,-0.604 0.658,0.352 1.346,0.658 2.03,1.049 -0.007,0.357 -0.165,0.734 -0.34,1.067 l -1.335,-0.632 c -0.277,0.438 -0.687,0.917 -1.152,1.03 l -0.96,-0.141 c -0.139,0.25 -0.217,0.547 -0.431,0.772 -0.306,-0.257 -0.686,-0.241 -0.953,-0.542 0.786,-0.893 -0.616,-0.708 -0.832,-1.278 -0.309,-0.239 -0.413,-0.638 -0.671,-0.831 -0.332,0.014 -0.726,0.194 -0.824,0.592 0.119,0.68 0.275,1.398 0.824,1.786 0.876,-0.237 1.335,0.781 2.035,1.046 0.725,0.287 1.776,0.643 2.501,0.086 0.326,-0.311 0.294,-0.795 0.549,-1.131 0.363,0.092 0.707,0.205 1.032,0.419 l -0.343,1.029 c 1.237,0.57 2.513,0.99 3.533,2.06 0.223,3.481 0.012,7.168 0.718,10.443 0.126,0.257 0.212,0.596 0.501,0.706 0.498,0.196 -0.187,0.963 -0.305,1.132 -0.668,2.522 1.461,2.977 2.325,2.906 0.315,0.074 0.905,-0.13 0.905,-0.13 -0.175,0.565 0.284,0.879 0.658,1.106 4.434,2.697 7.658,3.097 12.683,3.773 m -6.413,11.645 c 0,0 -4.976,-5.078 -11.21,-6.874 -0.714,-0.724 -1.155,-1.4 -2.434,-1.49 0.254,0.172 0.519,0.246 0.825,0.443 0.688,0.348 1.136,0.897 1.276,1.614 5.595,0.564 11.928,7.905 11.928,8.097 0.134,-0.89 -0.385,-1.79 -0.385,-1.79 m -17.052,-5.93 c -0.725,0.577 -1.747,0.289 -2.47,-0.041 -0.415,-0.435 -0.953,-0.801 -0.828,-1.448 0.356,-0.33 -0.264,-0.552 -0.392,-0.831 -0.236,-0.384 0.15,-0.649 0.096,-1.05 0.387,0.131 0.455,0.68 0.839,0.874 0.128,0.086 0.351,0.285 0.449,0.013 0.433,-0.267 0.7,0.28 1.049,0.252 0.943,-0.073 1.318,-0.094 2.742,-1.707 1.106,-0.949 2.464,0 3.542,0.377 3.201,1.592 6.353,3.315 9.209,5.741 0.864,0.652 1.922,0.856 2.737,1.611 2.356,1.976 2.616,5.226 2.271,8.318 -1.964,-2.626 -5.224,-1.967 -7.64,-3.42 l -6.917,-6.586 -1.124,-0.842 c -0.99,-0.375 -1.793,0.516 -2.439,1.137 0.067,-0.291 0.24,-0.583 0.193,-0.857 -0.99,-0.799 0.186,-1.77 0.276,-2.653 l -0.166,0.614 -1.149,-0.123 c -0.098,0.205 -0.207,0.407 -0.278,0.621 m -1.922,-3.984 c 0,0.37 0.323,0.674 0.726,0.674 0.404,0 0.727,-0.304 0.727,-0.674 0,-0.375 -0.323,-0.675 -0.727,-0.675 -0.403,0 -0.726,0.3 -0.726,0.675 m 4.144,36.44 c -0.053,1.097 0.026,2.411 0.078,3.299 -0.759,-0.179 -1.151,-0.8 -1.333,-1.58 l -0.012,-1.828 c 0.537,-0.157 0.144,-0.798 0.205,-1.195 0.126,-0.533 1.117,-0.949 1.707,-0.981 -0.077,0.439 -0.184,0.922 -0.096,1.387 0,0 -0.549,0.421 -0.549,0.898 m -2.228,-2.064 c 0.213,-0.354 0.536,-0.347 0.793,-0.512 -0.048,-0.591 0.198,-1.367 -0.166,-1.732 -0.363,-0.047 -0.935,0.335 -1.436,1.051 -0.292,3.069 -0.302,2.927 0.828,4.187 0.096,-0.724 -0.061,-1.771 -0.019,-2.994 m 13.966,-6.49 c -1.796,1.91 -5.359,5.659 -5.359,5.659 l -0.786,-1.171 c -0.536,-0.302 -1.236,-0.187 -1.854,-0.282 l -0.156,-0.597 3.945,-7.367 -0.117,-0.262 -4.095,6.883 c 0,0 -0.675,-1.4 -1.069,-1.396 0.244,-1.033 0.727,-1.594 1.186,-2.427 l 5.411,-8.508 0.266,-0.165 0.755,1.069 c -0.954,0.595 -1.661,1.654 -1.995,2.643 0.413,-0.058 0.726,0.073 0.974,0.416 1.449,1.732 1.293,3.984 2.894,5.505 m -19.201,-0.287 -0.666,0.906 4.133,4.1 c -0.05,-0.244 0.058,-0.535 0.548,-1.196 z m 11.281,12.657 8.862,8.806 c 0,0 0.886,1.024 1.237,0.722 0.551,-0.457 0.295,-1.222 0.295,-1.222 0,0 1.505,1.404 0.315,2.465 -0.882,0.804 -1.668,-0.053 -1.668,-0.053 l -1.924,-1.889 -1.209,1.279 3.575,3.266 c 1.226,0.746 2.125,0.942 2.809,0.942 1.757,0 1.963,-0.711 2.043,-2.282 0.035,-1.067 -0.181,-2.136 -0.732,-2.927 l -3.226,-3.776 -1.582,1.674 -8.354,-8.456 z m -1.041,0.855 c -1.022,0.321 -1.809,1.154 -1.865,-2.618 0.557,-0.56 -0.198,-1.14 0.067,-1.767 0.442,-0.078 0.735,-0.662 1.051,-1.036 0.372,-0.142 0.865,-0.091 1.179,0.146 -0.066,0.59 -0.756,1.148 -0.158,1.706 0.803,1.044 -0.235,2.408 -0.274,3.569 m 2.328,-7.713 c -0.907,-0.352 -2.27,0.09 -2.592,-1.288 -0.2,-0.613 -0.284,-1.352 -0.799,-1.761 -0.391,-0.194 -0.802,-0.283 -1.175,0.015 -1.426,1.397 -0.551,0.454 -0.592,2.362 0.422,0.014 0.973,-0.359 1.649,0.062 0.083,0.594 0.211,1.153 0.118,1.705 0.286,-0.011 0.867,-0.162 1.241,-0.198 0.586,0.226 1.098,0.404 1.43,1.359 0.17,0.908 -0.343,0.898 0.697,1.981 0.465,-1.195 1.051,-3.123 0.023,-4.237 m 10.716,-16.546 c -1.94,-1.804 -4.797,-1.306 -6.782,-3.025 0.186,1.247 1.689,1.762 2.65,2.344 0.266,0.109 0.58,0.203 0.778,0.412 l -3.388,-0.836 c 0.273,0.592 0.804,1.192 1.352,1.455 2.538,0.043 4.912,0.467 6.716,2.329 0.256,-1.155 -0.56,-2.055 -1.326,-2.679 m -0.931,9.909 c -1.608,-1.166 -0.616,-3.887 -2.601,-4.809 -0.491,-0.259 -1.051,-0.418 -1.638,-0.425 2.294,1.112 1.618,4.598 4.201,5.275 z"
           style="fill:#c98844;fill-opacity:1;fill-rule:evenodd;stroke:none"
           id="path306" /></g></g></g></svg>