<?xml version="1.0" encoding="utf-8"?>
<!-- Generator: Adobe Illustrator 28.1.0, SVG Export Plug-In . SVG Version: 6.00 Build 0)  -->
<svg version="1.1" id="Слой_1" xmlns="http://www.w3.org/2000/svg" xmlns:xlink="http://www.w3.org/1999/xlink" x="0px" y="0px"
	 viewBox="0 0 751.8 777.7" style="enable-background:new 0 0 751.8 777.7;" xml:space="preserve">
<style type="text/css">
	.st0{fill-rule:evenodd;clip-rule:evenodd;fill:#F9E204;}
	.st1{fill-rule:evenodd;clip-rule:evenodd;fill:#1E1E1C;}
</style>
<path class="st0" d="M359.7,1.1c-4.8,0.6-9.1,1.5-9.5,2c-0.9,0.9,7.3,0,16.7-1.9C375-0.4,371.3-0.4,359.7,1.1 M386.4,1.6
	c7.7,1.6,15,2.2,14,1.2c-0.5-0.5-4.8-1.2-9.5-1.5C385.2,1,383.7,1.1,386.4,1.6 M327.7,5.6c-2.6,0.4-5.1,1-5.5,1.4
	c-0.8,0.8,7.8,0,13.7-1.4l3.5-0.8l-3.5,0C334,5,330.3,5.3,327.7,5.6 M414.9,5.6c6.2,1.5,14.6,2.3,13.5,1.2c-0.5-0.5-4.6-1.2-9-1.5
	C414.1,5,412.6,5.1,414.9,5.6 M298.9,9.8c-9.1,1.2-13.3,2-12.8,2.5c0.5,0.5,23-2.5,23.7-3.2C310.4,8.6,306.9,8.8,298.9,9.8
	 M440.4,9.2c1.6,0.7,23.8,3.6,24.2,3.2c0.2-0.2-2.4-0.9-5.9-1.4C451.4,9.7,438.9,8.5,440.4,9.2 M474.4,14.1
	c10.9,2.1,17.7,2.8,17.1,1.8c-0.5-0.8-4.5-1.4-19.1-2.7C468.5,12.9,468.9,13,474.4,14.1 M264.4,14.4c-2.2,0.2-4.4,0.8-4.9,1.3
	c-1,1,7.3,0.3,13.4-1.1l3.5-0.8l-4,0.1C270.2,14,266.6,14.2,264.4,14.4 M236.9,18.4c-2.5,0.2-5,0.8-5.5,1.4c-1,1,5.3,0.5,12.5-1.2
	c3.3-0.8,3.3-0.8,0.5-0.7C242.8,18,239.4,18.2,236.9,18.4 M509.9,19.2c9,1.6,12.2,1.8,10,0.6c-0.8-0.5-5.1-1.1-9.5-1.4l-8-0.5
	L509.9,19.2 M204.9,23.2c-4.7,0.7-9.1,1.3-9.9,1.4c-0.8,0-1.2,0.3-0.8,0.7c0.6,0.6,23.9-2.4,24.7-3.1
	C219.5,21.4,213.9,21.9,204.9,23.2 M531.4,22.2c1.5,0.7,23.7,3.6,24.2,3.2c0.2-0.2-2.4-0.9-5.9-1.5
	C542.5,22.6,529.9,21.5,531.4,22.2 M370.9,25.4c-12.3,1.9-31.8,4.7-89.5,12.8c-74.1,10.5-81.9,11.6-101.5,14.4
	c-19.9,2.9-70,10-81.5,11.5c-19.7,2.6-68,9.7-68.4,10.1c-0.2,0.2,0.1,2.7,0.7,5.6c2.4,11.3,5.1,23.4,11.5,51.3
	c7.5,33,16,70.7,18.3,81c0.9,3.9,2.4,10.6,3.4,15c1,4.4,3,13.2,4.4,19.5c1.4,6.3,3.5,15.3,4.5,20c1.1,4.7,4,17.5,6.4,28.5
	c2.5,11,6.6,29.2,9.2,40.5c2.6,11.3,5.6,24.5,6.7,29.5c3.7,16.6,5.6,24.9,10.3,45.5c2.6,11.3,5.3,23.4,6.1,27
	c5.6,25.9,5.8,26.7,12.1,33.3c14.9,15.8,35.8,38.2,67.9,72.7c19.2,20.6,37.3,40.2,40.4,43.4c6.3,6.7,6.6,7,21.6,23.2
	c6,6.5,14.6,15.7,19.1,20.4c4.4,4.7,16.8,18,27.5,29.5c10.7,11.5,26.4,28.4,34.9,37.5c8.5,9.1,18.2,19.5,21.5,23.1
	c12.2,13.2,16.3,17.5,17.8,18.7c1.3,1.1,5.1-2.6,27.4-26.4c14.2-15.2,27-28.9,28.4-30.4c1.4-1.4,7.2-7.7,13-14
	c5.8-6.2,11-11.8,11.5-12.4c0.6-0.6,7.9-8.5,16.4-17.6c8.5-9.1,17.7-19,20.5-22c2.8-3,20.4-21.9,39.1-42
	c18.7-20.1,40.5-43.5,48.5-52c8-8.6,19.9-21.4,26.5-28.5c6.6-7.1,14.8-15.9,18.2-19.5c9.4-10,9.9-10.8,12.2-21.5
	c3.1-14,5.6-25.5,8.1-36c2-8.5,5-22.1,9-40c1.8-7.8,3.2-14.4,8.5-37.5c1.4-6.3,3.5-15.3,4.5-20c1-4.7,4-17.7,6.5-29
	c2.6-11.3,5.6-24.5,6.7-29.5c1.1-5,2.8-12.6,3.8-17s3.6-16.3,5.9-26.5c2.3-10.2,4.5-20.1,5-22s2.5-10.7,4.5-19.5s4.7-20.9,6.1-27
	s3.4-14.8,4.4-19.5c1-4.7,4.2-19,7.1-31.8c2.9-12.8,5.1-23.4,4.9-23.6c-0.2-0.2-23.1-3.6-50.9-7.5s-56.3-8-63.5-9.1
	s-18.2-2.7-24.5-3.5c-19.6-2.8-38.9-5.5-53-7.4c-17.3-2.4-36.8-5.2-59.5-8.5c-9.9-1.4-24.3-3.5-32-4.6c-15.3-2.1-35.1-5-51.5-7.4
	c-5.8-0.8-11-1.5-11.5-1.4C373.9,24.9,372.3,25.2,370.9,25.4 M172.7,27.6c-2.6,0.4-5.1,1-5.5,1.4c-0.8,0.8,7.8,0,13.7-1.4l3.5-0.8
	l-3.5,0C179,27,175.3,27.3,172.7,27.6 M572.9,28.2c9.1,1.7,12.2,1.9,10,0.6c-0.8-0.5-5.1-1.1-9.5-1.4l-8-0.5L572.9,28.2 M145.2,31.6
	c-2.9,0.3-5.6,1-6,1.5c-0.9,0.9,8.1,0,13.8-1.4c3.4-0.8,3.4-0.8,0.4-0.8C151.8,31,148.1,31.3,145.2,31.6 M597.9,31.6
	c5.7,1.4,14.7,2.2,13,1.2c-0.8-0.5-4.9-1.2-9-1.5C596.8,31,595.5,31.1,597.9,31.6 M115.9,35.8c-3,0.5-7.3,1.3-9.5,1.8
	c-3.7,1-3.7,1,1.5,0.4c9-1,20.8-3.1,17-3.1C123,35,118.9,35.3,115.9,35.8 M623.4,35.2c0.5,0.2,6.1,1.2,12.3,2.1
	c12,1.7,16.6,1.4,6-0.4C634.6,35.7,621.9,34.5,623.4,35.2 M657.9,40.2c12.1,2,17.6,2.6,16,1.6c-1.4-0.8-19.4-3.2-22.2-3
	C651,38.9,653.8,39.5,657.9,40.2 M80.6,40.8c-2.7,0.4-5.1,1.1-5.5,1.4c-0.7,0.7,7.4-0.2,14.3-1.5l4-0.8l-4,0
	C87.2,39.9,83.2,40.3,80.6,40.8 M53.9,44.4c-2.5,0.2-4.9,0.8-5.4,1.3c-1,1,7.3,0.3,13.4-1.1l3.5-0.8L61.9,44
	C60,44,56.4,44.2,53.9,44.4 M689.4,44.6c8.2,1.7,14,2.2,13,1.3c-0.5-0.5-4.6-1.2-9-1.5C688,44,686.7,44.1,689.4,44.6 M27.9,48.3
	c-9,1.3-16.1,2.6-15.7,3c0.5,0.5,23-2.6,23.6-3.2C36.3,47.7,31.8,47.8,27.9,48.3 M720.9,49.1c4.1,0.7,10,1.5,13,1.9l5.5,0.6
	l-5.2-1.3c-2.8-0.7-8.7-1.5-13-1.9l-7.8-0.6L720.9,49.1 M749.7,53.6c1,0.7,1,2-0.2,7.2c-0.8,3.5-1.3,6.6-1.1,6.8
	c0.6,0.6,1.1-1.2,2.4-7.6c1.4-6.9,1.4-7.2-0.7-7.2C748.9,52.7,748.8,53,749.7,53.6 M0,58.3c-0.2,2.1,2.2,12.9,3.1,13.9
	c0.5,0.6,0.6-0.5,0.2-2.5C2.2,64.5,0.1,57.1,0,58.3 M745.1,79.8c-1.4,6-1.5,8-0.2,5.9c1-1.7,2.5-11,1.8-11
	C746.5,74.7,745.7,77,745.1,79.8 M5.5,84.2c0.3,2.8,1,5.4,1.6,6c0.6,0.6,0.7-0.4,0.2-3C6.2,80.8,4.9,78.6,5.5,84.2 M741,98.5
	c-0.7,3.2-1.4,6.7-1.7,7.8c-0.4,1.6-0.3,1.7,0.5,0.5c1.1-1.8,3.5-13,2.9-13.6C742.4,92.9,741.7,95.3,741,98.5 M9,98.5
	c-0.2,2,3.1,15.8,3.5,14.7c0.2-0.6-0.5-4.4-1.5-8.5C10,100.6,9.1,97.8,9,98.5 M421.5,101.8c-10.1,2.4-14.1,8.4-14,20.9
	c0.1,15.4,5.8,20.1,24.9,20.8c23.7,0.9,31.2-3.4,32.3-18.6c0.9-13.3-3.2-20.4-13.3-22.7C444.8,100.6,427.6,100.4,421.5,101.8
	 M548.4,101.6c-4.6,1.1-7.1,2.8-9.7,6.3c-1.9,2.7-2.3,4.8-2.6,12.8c-0.3,8.4-0.1,10.1,2,14c3.7,7.2,6.9,8.4,22.5,8.9
	c7.3,0.2,15.7,0.1,18.8-0.3l5.5-0.7V137v-5.6l-3.2,0.7c-1.8,0.4-9.7,0.9-17.5,1.3l-14.2,0.6v-11.8v-11.8l12.8,0.6
	c7.1,0.4,14.9,0.9,17.5,1.3l4.7,0.6v-5.5V102l-3.8-0.6C576.1,100.5,552.2,100.7,548.4,101.6 M108.1,102.5c0.2,0.4,4.1,6.5,8.7,13.6
	c6.8,10.4,8.9,12.9,11.3,13.4c3,0.6,3.3,1,2,3.1c-0.6,0.9-2.8,1.3-6.7,1.2c-3.2-0.1-6.3-0.1-6.9-0.1c-0.6,0-0.9,2.2-0.7,5.1l0.3,5
	h7.3c13.2,0,14.1-0.8,25.5-22c4-7.4,8.1-15,9.2-16.8l2-3.2h-7h-7l-5.1,10c-2.8,5.5-5.3,10-5.5,10c-0.5,0-8.9-13-11-17
	c-1.5-3-1.7-3-9.1-3C111.2,101.7,107.9,102.1,108.1,102.5 M170.1,112c-0.7,5.6-1.2,11.9-1.2,13.9c0,6.4-0.5,6.9-7.1,6.2l-5.9-0.6
	l0,4.9c0,7.3,0.5,7.7,9.3,7.2c12-0.6,15-4.6,16.2-21.1l0.7-9.7h8.9h8.9v15v15h6.5h6.5v-20.5v-20.5h-20.8h-20.8L170.1,112
	 M225.9,122.2v20.5h19.5c22,0,25.1-0.7,28.4-6.2c2.5-4,2.6-10.7,0.4-15.5c-2.7-5.6-6-6.7-21.9-7.3l-14-0.5l-0.3-5.8l-0.3-5.8h-5.9
	h-6V122.2 M289.2,103.2c-9.6,4.2-9.5,19.5,0.3,24.5c1.6,0.8,3.2,1.7,3.4,1.8c0.2,0.2-2.4,3.2-6,6.8l-6.4,6.5h8.1h8.1l6-6.5l6-6.5
	h5.6h5.6v6.5v6.5h6h6v-20.5v-20.5l-19.8,0C297.5,101.8,291.6,102.1,289.2,103.2 M344.9,122.2v20.5h6.5h6.5v-7.5v-7.5h13h13v7.5v7.5
	h6.5h6.5v-20.5v-20.5h-6.5H384l-0.3,7.2l-0.3,7.2h-12.5h-12.5l-0.3-7.2l-0.3-7.2h-6.5h-6.5V122.2 M475.4,122.2v20.5l21.8,0
	c28.3,0,30.7-0.9,30.7-11.5c0-3.9-0.5-5.1-2.9-7.2l-2.9-2.5l2.4-2.4c2.8-2.8,3.2-8.8,0.7-12.3c-3.1-4.5-6.8-5.1-29.1-5.1h-20.8
	V122.2 M593.9,122.2v20.5h6.5h6.5v-7.5c0-7.1,0.1-7.5,2.3-7.5c1.5,0,4.8,2.5,9.7,7.5l7.5,7.5h8.5h8.5L632.7,132l-10.7-10.7l10.2-9.7
	l10.2-9.7l-8,0l-8,0l-7.5,7.5c-4.9,5-8.2,7.5-9.7,7.5c-2.2,0-2.3-0.4-2.3-7.5v-7.5h-6.5h-6.5V122.2 M737.1,116
	c-0.7,2.9-1.5,6.4-1.8,7.8c-0.4,1.7-0.3,2.2,0.4,1.5c1.1-1.1,3.7-13.4,3-14.1C738.4,110.9,737.7,113.1,737.1,116 M296.1,116l0.3,4.2
	l9.5,0.3c13.1,0.4,14,0.1,14-4.8v-4h-12.1h-12.1L296.1,116 M421.7,121.8c-0.2,5.5-0.1,10.3,0.1,10.5c0.2,0.2,6.9,0.4,14.8,0.4h14.3
	v-10.5v-10.5h-14.4h-14.4L421.7,121.8 M487.9,114.7v3h13h13v-3v-3h-13h-13V114.7 M14.5,124.2c0.3,2.8,1,5.4,1.6,6
	c0.6,0.6,0.7-0.4,0.2-3C15.2,120.8,13.9,118.6,14.5,124.2 M238.6,124.3c-0.4,0.4-0.7,2.4-0.7,4.5v3.8h12.6H263l-0.3-4.2l-0.3-4.2
	l-11.6-0.3C244.5,123.8,239,124,238.6,124.3 M487.9,129.7v3h13.5h13.5v-3v-3h-13.5h-13.5V129.7 M732,137.8c-1.3,6-1.3,7-0.2,5
	c1-1.8,2.5-10,1.8-10C733.3,132.7,732.6,135,732,137.8 M18.6,141.7c0.6,4.9,2.3,9.1,2.2,5.5c0-1.1-0.7-3.8-1.4-6l-1.4-4L18.6,141.7
	 M727.5,157.8c-0.9,3.9-1.4,7.3-1.1,7.6c0.5,0.5,2.1-4.9,3.2-11C730.6,147.9,729.1,150.4,727.5,157.8 M22.5,158.7
	c0.7,5.7,2.5,12.8,3,11.5c0.2-0.6-0.5-4.4-1.6-8.5C22.6,156.4,22.2,155.5,22.5,158.7 M723.6,175.3c-0.9,4.2-1.5,7.8-1.2,8.1
	c0.5,0.5,1.2-1.6,2.6-9C726.7,165.7,725.5,166.5,723.6,175.3 M26,173.7c-0.1,2.3,2.6,14,3.4,14.8c0.4,0.4,0.4-1,0-3.2
	C28.3,179.7,26.1,172,26,173.7 M115.9,187.2c-1.4,3.7-1.2,6.5,0.5,6.5c0.8,0,3.4,0.6,5.8,1.4c2.4,0.8,12.6,3.7,22.8,6.6
	c10.2,2.8,21.4,6,25,7c3.6,1,13.9,4,23,6.5c9.1,2.5,19.4,5.5,23,6.5c3.6,1,14.8,4.2,25,7.1c47.5,13.3,62,17.6,61.3,18.2
	c-0.4,0.4-10.4,0.7-22.4,0.7h-21.7l-2.1,6.8c-1.1,3.7-5.7,18.7-10.2,33.2c-4.4,14.6-9.5,31-11.2,36.5c-1.7,5.5-3.7,12-4.4,14.5
	c-4.1,13.7-14.8,48.3-16.4,53.5c-1,3.3-3.1,10-4.6,15c-1.5,5-3.7,12.4-5,16.5c-1.3,4.1-5.1,16.5-8.4,27.5c-3.4,11-6.3,20.6-6.5,21.3
	c-0.3,1,26.8,1.2,136.8,1.2c130.2-0.1,137.9-0.2,150.1-2c50.1-7.5,80.4-28.4,94.7-65.4c10.9-28.3,8.5-51.1-7-66.6
	c-9.3-9.3-21.6-14.8-37.6-16.9c-12.5-1.7-12.8-1.8-6.1-4.6c16.2-6.6,29.8-20.7,38.5-40c10.3-22.8,6.1-50.9-10.5-68.4
	c-10.3-10.9-23.5-17.6-44-22.3l-10-2.3l-188.8-0.3l-188.8-0.3L115.9,187.2 M719.6,192.6c-0.3,1.6-0.9,4.2-1.3,5.8
	c-0.5,2-0.4,2.6,0.4,1.9c0.6-0.6,1.4-3.1,1.7-5.8C721.2,189.3,720.5,187.9,719.6,192.6 M31.5,199.2c0.3,2.8,1,5.4,1.6,6
	c0.6,0.6,0.7-0.4,0.2-3C32.2,195.8,30.9,193.6,31.5,199.2 M714.6,215.3c-0.9,4.2-1.5,7.8-1.2,8.1c0.2,0.2,1.2-3,2.1-7.2
	c0.9-4.2,1.5-7.8,1.2-8.1C716.4,207.9,715.5,211.1,714.6,215.3 M35,213.5c-0.2,2,3.1,15.8,3.5,14.7c0.2-0.5-0.5-4.4-1.5-8.5
	C36,215.6,35.1,212.8,35,213.5 M710.5,233.5c-0.4,2.1-0.9,4.6-1.2,5.8c-0.4,1.4-0.2,1.7,0.5,1c1.1-1,2.8-10.5,1.9-10.5
	C711.4,229.7,710.8,231.4,710.5,233.5 M40.5,239.2c0.3,2.8,1,5.5,1.6,6c0.7,0.7,0.8-0.3,0.3-3C41.2,235.7,39.8,233.5,40.5,239.2
	 M331.9,258c-1.7,5.6-4.5,14.8-6.2,20.2c-1.7,5.5-3.7,11.9-4.4,14.3c-0.8,2.4-1.4,4.7-1.4,5.2c0,1.4,138.3,1.3,143.5-0.2
	c2.3-0.7,5.7-2.8,8.1-5.2c3.6-3.6,4.6-5.8,8.2-17.2c4.9-15.7,5.6-18.6,4.7-21.9c-1.4-5.6-0.1-5.6-78-5.6h-71.5L331.9,258
	 M706.1,252.6c-0.7,3-1,5.6-0.8,5.9c0.7,0.7,2.8-7.7,2.3-9.6C707.5,248,706.8,249.6,706.1,252.6 M44.5,256.7c0.3,2.5,1,5.2,1.5,6
	c1.1,1.8,0-5.5-1.3-8.5C44.2,252.9,44.1,253.8,44.5,256.7 M701.5,272.8c-0.9,3.9-1.4,7.3-1.1,7.6c0.5,0.5,2.1-4.9,3.2-11
	C704.6,262.9,703.1,265.4,701.5,272.8 M48.5,274c0.3,2.6,1.2,6.5,2,8.5l1.4,3.7l-0.6-3.9c-0.3-2.1-1.2-5.9-2-8.5l-1.4-4.6L48.5,274
	 M698,288.5c-0.7,3.2-1.5,6.6-1.8,7.6c-0.3,1.1-0.1,1.6,0.5,1.3c1-0.6,3.7-13.5,2.9-14.3C699.4,282.9,698.7,285.3,698,288.5
	 M52.5,291.7c0.7,5.7,2.5,12.8,3,11.5c0.2-0.5-0.5-4.4-1.6-8.5C52.6,289.4,52.2,288.5,52.5,291.7 M693,310.8c-1.3,6-1.3,7-0.2,5
	c1-1.8,2.5-10,1.8-10C694.3,305.7,693.6,308,693,310.8 M57.5,314.2c0.3,2.8,1,5.4,1.5,6c1.3,1.3,1.1,0-0.6-6l-1.5-5L57.5,314.2
	 M688.5,330.4c-1.8,8.1-1.7,11,0.1,4.6c1.3-4.7,2.6-12.3,2-12.3C690.4,322.7,689.5,326.1,688.5,330.4 M61,328.5
	c-0.2,2,3.1,15.8,3.5,14.7c0.2-0.5-0.5-4.4-1.5-8.5S61.1,327.8,61,328.5 M684.6,348.3c-0.9,4.2-1.5,7.8-1.2,8.1
	c0.5,0.5,1.2-1.6,2.6-9C687.7,338.7,686.5,339.5,684.6,348.3 M66.5,354.2c0.3,2.8,1,5.4,1.5,5.9c1,1.1,0.1-5.9-1.2-8.9
	C66.2,349.9,66.1,351,66.5,354.2 M298.9,366c-1.2,4-2.5,8.4-3,9.8c-0.5,1.4-2.3,7.2-4,13c-1.7,5.8-4,13-5,16l-1.8,5.5l96.6,0.3
	c95.7,0.3,96.6,0.2,100.8-1.8c6.5-3.2,8.8-7.1,14.3-24.9c5.4-17.4,5.6-19.8,1.3-23.1c-2.5-1.9-4.3-2-99.8-2H301L298.9,366
	 M680.6,365.6c-0.3,1.6-0.9,4.2-1.3,5.8c-0.5,1.9-0.3,2.5,0.3,1.9c0.6-0.5,1.3-3.1,1.7-5.8C682.1,362.3,681.5,360.9,680.6,365.6
	 M70.5,371.7c0.3,2.5,1,5.2,1.5,6c1.1,1.8,0-5.5-1.3-8.5C70.2,367.9,70.1,368.8,70.5,371.7 M675.9,386.4c-0.6,3.2-1.4,6.7-1.6,7.8
	c-0.4,1.6-0.3,1.7,0.5,0.5c1.2-1.9,3.5-13,2.8-13.7C677.3,380.8,676.6,383.2,675.9,386.4 M74.4,389.2c1,5.9,2.6,11.8,3,11.3
	c0.5-0.5-2.3-13.9-3.1-14.7C74,385.5,74,387,74.4,389.2 M78.5,406.7c0.7,5.7,2.5,12.8,3,11.5c0.2-0.5-0.5-4.4-1.6-8.5
	C78.6,404.4,78.2,403.5,78.5,406.7 M671,407.8c-1.3,6.1-1.3,6.6-0.2,5.4c1-1,2.5-10.5,1.8-10.5C672.3,402.7,671.6,405,671,407.8
	 M667.4,424c-0.4,1.8-0.9,4.1-1.2,5.2c-0.4,1.3-0.2,1.7,0.5,1c1.1-1.1,2.7-9.5,1.9-9.5C668.3,420.7,667.8,422.2,667.4,424
	 M83.5,429.2c0.3,2.8,1,5.4,1.5,6c1,1,0.3-3.9-1.3-8.5C83.2,425.1,83.1,425.9,83.5,429.2 M663,443.5c-2.1,9.6-2.2,11-0.7,7
	c1.5-3.8,3.2-12.8,2.4-12.8C664.4,437.7,663.7,440.3,663,443.5 M87.6,447.2c0.3,2.8,1.2,6.6,1.9,8.5l1.3,3.5l-0.6-3.9
	c-0.3-2.1-1.2-5.9-1.9-8.5l-1.3-4.6L87.6,447.2 M659,461.5c-0.7,3.2-1.5,6.7-1.8,7.8c-0.4,1.3-0.2,1.7,0.4,1c1-1.1,3.7-13.4,3-14.1
	C660.4,455.9,659.7,458.3,659,461.5 M91.1,461.7c0,0.8,0.5,4.3,1.3,7.7c1.4,6.6,5.5,12.3,16.2,22.3l4.8,4.5l-5.4-6
	c-3-3.3-7-7.7-9-9.8c-2.7-2.9-4-5.6-5.7-12C92.1,463.9,91.1,460.9,91.1,461.7 M656,474.6c-0.1,1-17.1,20.3-22.1,25.1
	c-0.3,0.3-2.9,3.2-5.9,6.5c-2.9,3.3,1.2-0.8,9.3-9c16.9-17.2,20-20.9,19.3-22.7C656.2,473.5,656.1,473.5,656,474.6 M119.1,503.2
	c6.1,7,8.9,9.7,9.3,9.3c0.2-0.2-2.3-3.1-5.8-6.4C119.2,502.9,117.6,501.6,119.1,503.2 M601.4,534.4c-27.6,29.8-31.7,34.3-31.2,34.3
	c0.4,0,25.8-26.7,36.7-38.5c3-3.3,7.7-8.3,10.4-11.2s4.6-5.2,4.1-5.2C620.8,513.8,611.9,523.1,601.4,534.4 M132.5,517.7
	c1.6,1.9,6.3,7.1,10.5,11.5c4.2,4.4,11.4,12.1,16,17c4.6,5,8.9,9.2,9.4,9.4s-4.6-5.6-11.5-13C142.1,526.8,128.4,512.8,132.5,517.7
	 M347.5,550.9c-3.8,0.5-8.3,1.7-10,2.7c-3.8,2.2-5.7,7.2-5,13.2c1.1,8.9,5.5,11,22.9,11h12.5v2.5v2.5l-16.2,0.3l-16.2,0.3v4.5v4.5
	l16.3,0.3c19.7,0.3,23.2-0.4,26.4-5.5c2.1-3.4,2.3-4.9,2.3-15.7c0-13.1-0.8-15.6-5.3-17.9c-2.3-1.2-18.2-3.9-20.1-3.4
	C354.7,549.9,351.3,550.4,347.5,550.9 M301.9,554.7v3h-6.5h-6.5v5v5h6.5h6.5v7.5v7.5h-8.5h-8.5v5v5h22.5h22.5v-5v-5h-7.5h-7.5v-15.5
	v-15.5h-6.5h-6.5V554.7 M394.7,562.6c-8.5,10.5-8.8,11-8.8,16v5.1h15h15v4.5v4.5h5.9h5.9l0.3-4.2l0.3-4.2l4.8-0.3l4.8-0.3v-4.9v-4.9
	h-5h-5v-5.9v-5.9l-5.6-0.3c-3.1-0.2-5.8-0.2-6,0.1c-0.2,0.2-0.4,3-0.4,6.2v5.8h-7.5c-4.1,0-7.5-0.3-7.5-0.6s3.9-5.3,8.6-11l8.6-10.4
	l-7.3,0l-7.3,0L394.7,562.6 M435.9,556.7v5h15c9.7,0,15,0.4,15,1c0,0.6-4.8,7-10.7,14.2c-5.9,7.3-11.1,13.8-11.6,14.5
	c-0.7,1,0.7,1.2,6.6,1.2h7.5l11.6-14.9l11.6-14.9v-5.6v-5.6h-22.5h-22.5V556.7 M170,557.5c0.5,1.3,17,19.3,44.3,48.3
	c4.4,4.7,11.1,11.8,14.9,15.8s7,7.2,7.2,6.9s-2.2-3.1-5.4-6.3c-3.2-3.3-18.3-19.4-33.6-35.9C182.2,569.9,169.8,556.9,170,557.5
	 M346.6,561.4c-0.4,0.4-0.7,2.2-0.7,4v3.3h11h11v-3.4c0-2.2-0.6-3.6-1.6-4C364.2,560.5,347.4,560.5,346.6,561.4 M558.9,580.2
	c-3.5,3.6-6.1,6.5-5.8,6.5c0.7,0,4-3.2,10.2-9.9C568.7,571.2,565.5,573.6,558.9,580.2 M524.8,617c-15,16.1-36.5,39.2-47.8,51.2
	c-11.3,12.1-22.8,24.5-25.7,27.5c-2.9,3-5.1,5.6-4.9,5.8c0.2,0.2,3.2-2.7,6.7-6.4c3.5-3.7,10.2-10.8,15-15.8c4.7-5,11.5-12.2,15-16
	c3.5-3.8,7.1-7.7,7.9-8.6c0.8-0.9,6-6.5,11.5-12.5c5.5-6,10.7-11.6,11.5-12.4c0.8-0.9,8.2-8.7,16.4-17.5c8.2-8.8,15.4-16.5,16-17
	c2.8-2.7,6.9-7.5,6.4-7.5C552.3,587.7,539.8,600.9,524.8,617 M239.6,632.7c3,3.5,10.8,11.9,27.8,30c16.9,18,21.8,23,22.3,23
	c0.3,0-1.9-2.6-4.9-5.7c-6.5-6.9-5.6-5.9-20.9-22.4C250.9,643.6,234.3,626.6,239.6,632.7 M294.8,692.2c2.9,3,6.6,7,8.3,8.8
	c1.7,1.8,2.7,2.5,2.2,1.6c-1-1.9-14.3-15.8-15.1-15.8C289.9,686.7,292,689.2,294.8,692.2 M443.9,704c-3.1,2.6-12.5,12.9-11.4,12.5
	c0.6-0.2,3.9-3.4,7.4-7.1C445.9,703,447.1,701.3,443.9,704 M310.1,708.6c1.8,2.1,10.1,11,18.3,19.8c8.2,8.8,18.1,19.2,21.8,23.3
	c3.7,4,7,7.2,7.2,7c0.2-0.2-2.2-3.1-5.3-6.4c-3.1-3.3-14.4-15.3-25-26.7s-19.5-20.8-19.8-20.8C307,704.7,308.3,706.4,310.1,708.6
	 M421.4,728c-3.3,3.4-8.2,8.7-11,11.8c-4.3,4.7-3.9,4.5,2.3-1.5c6.7-6.4,15.9-16.5,15-16.5C427.5,721.7,424.7,724.5,421.4,728
	 M404.4,746.5c-0.6,0.4-3.5,3.4-6.5,6.7l-5.4,6l6.7-6.5c3.7-3.6,6.7-6.6,6.7-6.8C405.9,745.5,405.5,745.7,404.4,746.5 M383.5,768.4
	l-7.9,8.5l-8-8.1c-4.4-4.5-8.1-8-8.2-7.8c-0.5,0.5,15,16.8,15.9,16.8c0.8,0,4-3.1,12.6-12.3c3-3.2,5-5.7,4.5-5.7
	C391.8,759.8,387.8,763.7,383.5,768.4"/>
<path class="st1" d="M369.7,0.7c-2,0.5-10.6,1.9-19,3c-26.5,3.6-41.7,5.8-60.3,8.5c-9.9,1.4-24.1,3.5-31.5,4.5
	c-7.4,1-19.8,2.8-27.5,3.9c-7.7,1.1-22.3,3.2-32.5,4.6s-24.6,3.5-32,4.5c-7.4,1.1-20,2.8-28,3.9c-8,1.1-15.6,2.2-17,2.5
	c-1.4,0.3-7.7,1.2-14,2c-6.3,0.8-19.4,2.7-29,4.1c-9.6,1.4-23.6,3.4-31,4.4c-7.4,1-20.2,2.8-28.4,3.9c-8.2,1.1-15.4,2.1-16,2.1
	c-3.7,0.1-3.9,1.5-1.2,13.6C3.9,72.9,5.5,79.8,6,81.7c0.5,1.9,2.8,11.8,5,22c4.2,19.1,6.2,28,9.7,43.5c1.1,4.9,4.1,18,6.6,29
	c2.5,11,4.8,20.9,5,22c0.5,1.7,3,13,10.5,47c1,4.4,2.7,12,3.8,17c1.1,5,4.1,18,6.6,29c2.5,11,6.6,29.2,9.1,40.5
	c2.5,11.3,5.5,24.5,6.7,29.5c4.2,18.6,5.7,25.2,7.7,34c1.1,5,4.1,18,6.5,29c12.2,54.1,11.6,51.8,14.4,54.9c1.5,1.6,3.6,3.9,4.7,5.1
	c10.4,11.3,54.7,58.9,61.9,66.6c3.4,3.6,18.5,19.8,33.5,36s29.7,32,32.6,35s11.9,12.7,20.1,21.5c8.2,8.8,15.6,16.7,16.4,17.6
	c0.8,0.9,6.2,6.7,12,13c12.2,13.3,22.3,24.1,33.5,36c7,7.4,16.1,17.2,39.5,42.5c3,3.3,9.6,10.2,14.5,15.3l9,9.4l9-9.4
	c5-5.2,13.7-14.6,19.5-20.8c5.8-6.3,14.5-15.7,19.5-20.9c8.2-8.7,12.8-13.7,28.1-30c30.2-32.6,105.3-113.2,121-129.9
	c2.8-3,14.8-15.8,26.5-28.5c11.8-12.6,22.1-23.7,22.9-24.6c0.8-0.9,6.3-6.7,12-13c5.8-6.3,13.1-14.1,16.2-17.5l5.7-6l3.5-16
	c1.9-8.8,4.7-20.9,6.1-27c1.4-6,3.4-15,4.5-20c1.9-8.6,2.8-12.6,9.8-43.5c1.7-7.4,5.1-22.7,7.7-34c2.5-11.3,5.2-23.2,6-26.5
	c1.2-5.2,4-17.5,11.5-51c1.9-8.3,11.9-52.6,19.7-87c2.5-11,5.3-23.6,6.3-28c1-4.4,2.7-12.1,3.8-17c2-8.7,8.8-38.7,13.7-60.9
	c1.3-6,2.2-11.1,2-11.4c-0.3-0.3-33-5.1-72.8-10.7c-76.3-10.8-87.4-12.4-108.3-15.4c-7.2-1-29.4-4.2-49.5-7s-40.8-5.7-46-6.5
	c-5.2-0.8-19.4-2.8-31.5-4.5C430.3,8,416.1,6,410.9,5.2c-9.6-1.5-27.5-4-34-4.9C375,0,371.8,0.2,369.7,0.7 M370.9,25.4
	c-12.3,1.9-31.8,4.7-89.5,12.8c-74.1,10.5-81.9,11.6-101.5,14.4c-19.9,2.9-70,10-81.5,11.5c-19.7,2.6-68,9.7-68.4,10.1
	c-0.2,0.2,0.1,2.7,0.7,5.6c2.4,11.3,5.1,23.4,11.5,51.3c7.5,33,16,70.7,18.3,81c0.9,3.9,2.4,10.6,3.4,15c1,4.4,3,13.2,4.4,19.5
	c1.4,6.3,3.5,15.3,4.5,20c1.1,4.7,4,17.5,6.4,28.5c2.5,11,6.6,29.2,9.2,40.5c2.6,11.3,5.6,24.5,6.7,29.5
	c3.7,16.6,5.6,24.9,10.3,45.5c2.6,11.3,5.3,23.4,6.1,27c5.6,25.9,5.8,26.7,12.1,33.3c14.9,15.8,35.8,38.2,67.9,72.7
	c19.2,20.6,37.3,40.2,40.4,43.4c6.3,6.7,6.6,7,21.6,23.2c6,6.5,14.6,15.7,19.1,20.4c4.4,4.7,16.8,18,27.5,29.5
	c10.7,11.5,26.4,28.4,34.9,37.5c8.5,9.1,18.2,19.5,21.5,23.1c12.2,13.2,16.3,17.5,17.8,18.7c1.3,1.1,5.1-2.6,27.4-26.4
	c14.2-15.2,27-28.9,28.4-30.4c1.4-1.4,7.2-7.7,13-14c5.8-6.2,11-11.8,11.5-12.4c0.6-0.6,7.9-8.5,16.4-17.6c8.5-9.1,17.7-19,20.5-22
	c2.8-3,20.4-21.9,39.1-42c18.7-20.1,40.5-43.5,48.5-52c8-8.6,19.9-21.4,26.5-28.5c6.6-7.1,14.8-15.9,18.2-19.5
	c9.4-10,9.9-10.8,12.2-21.5c3.1-14,5.6-25.5,8.1-36c2-8.5,5-22.1,9-40c1.8-7.8,3.2-14.4,8.5-37.5c1.4-6.3,3.5-15.3,4.5-20
	c1-4.7,4-17.7,6.5-29c2.6-11.3,5.6-24.5,6.7-29.5c1.1-5,2.8-12.6,3.8-17s3.6-16.3,5.9-26.5c2.3-10.2,4.5-20.1,5-22
	s2.5-10.7,4.5-19.5s4.7-20.9,6.1-27s3.4-14.8,4.4-19.5c1-4.7,4.2-19,7.1-31.8c2.9-12.8,5.1-23.4,4.9-23.6
	c-0.2-0.2-23.1-3.6-50.9-7.5s-56.3-8-63.5-9.1s-18.2-2.7-24.5-3.5c-19.6-2.8-38.9-5.5-53-7.4c-17.3-2.4-36.8-5.2-59.5-8.5
	c-9.9-1.4-24.3-3.5-32-4.6c-15.3-2.1-35.1-5-51.5-7.4c-5.8-0.8-11-1.5-11.5-1.4C373.9,24.9,372.3,25.2,370.9,25.4 M421.5,101.8
	c-10.1,2.4-14.1,8.4-14,20.9c0.1,15.4,5.8,20.1,24.9,20.8c23.7,0.9,31.2-3.4,32.3-18.6c0.9-13.3-3.2-20.4-13.3-22.7
	C444.8,100.6,427.6,100.4,421.5,101.8 M548.4,101.6c-4.6,1.1-7.1,2.8-9.7,6.3c-1.9,2.7-2.3,4.8-2.6,12.8c-0.3,8.4-0.1,10.1,2,14
	c3.7,7.2,6.9,8.4,22.5,8.9c7.3,0.2,15.7,0.1,18.8-0.3l5.5-0.7V137v-5.6l-3.2,0.7c-1.8,0.4-9.7,0.9-17.5,1.3l-14.2,0.6v-11.8v-11.8
	l12.8,0.6c7.1,0.4,14.9,0.9,17.5,1.3l4.7,0.6v-5.5V102l-3.8-0.6C576.1,100.5,552.2,100.7,548.4,101.6 M108.1,102.5
	c0.2,0.4,4.1,6.5,8.7,13.6c6.8,10.4,8.9,12.9,11.3,13.4c3,0.6,3.3,1,2,3.1c-0.6,0.9-2.8,1.3-6.7,1.2c-3.2-0.1-6.3-0.1-6.9-0.1
	c-0.6,0-0.9,2.2-0.7,5.1l0.3,5h7.3c13.2,0,14.1-0.8,25.5-22c4-7.4,8.1-15,9.2-16.8l2-3.2h-7h-7l-5.1,10c-2.8,5.5-5.3,10-5.5,10
	c-0.5,0-8.9-13-11-17c-1.5-3-1.7-3-9.1-3C111.2,101.7,107.9,102.1,108.1,102.5 M170.1,112c-0.7,5.6-1.2,11.9-1.2,13.9
	c0,6.4-0.5,6.9-7.1,6.2l-5.9-0.6l0,4.9c0,7.3,0.5,7.7,9.3,7.2c12-0.6,15-4.6,16.2-21.1l0.7-9.7h8.9h8.9v15v15h6.5h6.5v-20.5v-20.5
	h-20.8h-20.8L170.1,112 M225.9,122.2v20.5h19.5c22,0,25.1-0.7,28.4-6.2c2.5-4,2.6-10.7,0.4-15.5c-2.7-5.6-6-6.7-21.9-7.3l-14-0.5
	l-0.3-5.8l-0.3-5.8h-5.9h-6V122.2 M289.2,103.2c-9.6,4.2-9.5,19.5,0.3,24.5c1.6,0.8,3.2,1.7,3.4,1.8c0.2,0.2-2.4,3.2-6,6.8l-6.4,6.5
	h8.1h8.1l6-6.5l6-6.5h5.6h5.6v6.5v6.5h6h6v-20.5v-20.5l-19.8,0C297.5,101.8,291.6,102.1,289.2,103.2 M344.9,122.2v20.5h6.5h6.5v-7.5
	v-7.5h13h13v7.5v7.5h6.5h6.5v-20.5v-20.5h-6.5H384l-0.3,7.2l-0.3,7.2h-12.5h-12.5l-0.3-7.2l-0.3-7.2h-6.5h-6.5V122.2 M475.4,122.2
	v20.5l21.8,0c28.3,0,30.7-0.9,30.7-11.5c0-3.9-0.5-5.1-2.9-7.2l-2.9-2.5l2.4-2.4c2.8-2.8,3.2-8.8,0.7-12.3
	c-3.1-4.5-6.8-5.1-29.1-5.1h-20.8V122.2 M593.9,122.2v20.5h6.5h6.5v-7.5c0-7.1,0.1-7.5,2.3-7.5c1.5,0,4.8,2.5,9.7,7.5l7.5,7.5h8.5
	h8.5L632.7,132l-10.7-10.7l10.2-9.7l10.2-9.7l-8,0l-8,0l-7.5,7.5c-4.9,5-8.2,7.5-9.7,7.5c-2.2,0-2.3-0.4-2.3-7.5v-7.5h-6.5h-6.5
	V122.2 M296.1,116l0.3,4.2l9.5,0.3c13.1,0.4,14,0.1,14-4.8v-4h-12.1h-12.1L296.1,116 M421.7,121.8c-0.2,5.5-0.1,10.3,0.1,10.5
	c0.2,0.2,6.9,0.4,14.8,0.4h14.3v-10.5v-10.5h-14.4h-14.4L421.7,121.8 M487.9,114.7v3h13h13v-3v-3h-13h-13V114.7 M238.6,124.3
	c-0.4,0.4-0.7,2.4-0.7,4.5v3.8h12.6H263l-0.3-4.2l-0.3-4.2l-11.6-0.3C244.5,123.8,239,124,238.6,124.3 M487.9,129.7v3h13.5h13.5v-3
	v-3h-13.5h-13.5V129.7 M115.9,187.2c-1.4,3.7-1.2,6.5,0.5,6.5c0.8,0,3.4,0.6,5.8,1.4c2.4,0.8,12.6,3.7,22.8,6.6
	c10.2,2.8,21.4,6,25,7c3.6,1,13.9,4,23,6.5c9.1,2.5,19.4,5.5,23,6.5c3.6,1,14.8,4.2,25,7.1c47.5,13.3,62,17.6,61.3,18.2
	c-0.4,0.4-10.4,0.7-22.4,0.7h-21.7l-2.1,6.8c-1.1,3.7-5.7,18.7-10.2,33.2c-4.4,14.6-9.5,31-11.2,36.5c-1.7,5.5-3.7,12-4.4,14.5
	c-4.1,13.7-14.8,48.3-16.4,53.5c-1,3.3-3.1,10-4.6,15c-1.5,5-3.7,12.4-5,16.5c-1.3,4.1-5.1,16.5-8.4,27.5c-3.4,11-6.3,20.6-6.5,21.3
	c-0.3,1,26.8,1.2,136.8,1.2c130.2-0.1,137.9-0.2,150.1-2c50.1-7.5,80.4-28.4,94.7-65.4c10.9-28.3,8.5-51.1-7-66.6
	c-9.3-9.3-21.6-14.8-37.6-16.9c-12.5-1.7-12.8-1.8-6.1-4.6c16.2-6.6,29.8-20.7,38.5-40c10.3-22.8,6.1-50.9-10.5-68.4
	c-10.3-10.9-23.5-17.6-44-22.3l-10-2.3l-188.8-0.3l-188.8-0.3L115.9,187.2 M331.9,258c-1.7,5.6-4.5,14.8-6.2,20.2
	c-1.7,5.5-3.7,11.9-4.4,14.3c-0.8,2.4-1.4,4.7-1.4,5.2c0,1.4,138.3,1.3,143.5-0.2c2.3-0.7,5.7-2.8,8.1-5.2c3.6-3.6,4.6-5.8,8.2-17.2
	c4.9-15.7,5.6-18.6,4.7-21.9c-1.4-5.6-0.1-5.6-78-5.6h-71.5L331.9,258 M298.9,366c-1.2,4-2.5,8.4-3,9.8c-0.5,1.4-2.3,7.2-4,13
	c-1.7,5.8-4,13-5,16l-1.8,5.5l96.6,0.3c95.7,0.3,96.6,0.2,100.8-1.8c6.5-3.2,8.8-7.1,14.3-24.9c5.4-17.4,5.6-19.8,1.3-23.1
	c-2.5-1.9-4.3-2-99.8-2H301L298.9,366 M347.5,550.9c-3.8,0.5-8.3,1.7-10,2.7c-3.8,2.2-5.7,7.2-5,13.2c1.1,8.9,5.5,11,22.9,11h12.5
	v2.5v2.5l-16.2,0.3l-16.2,0.3v4.5v4.5l16.3,0.3c19.7,0.3,23.2-0.4,26.4-5.5c2.1-3.4,2.3-4.9,2.3-15.7c0-13.1-0.8-15.6-5.3-17.9
	c-2.3-1.2-18.2-3.9-20.1-3.4C354.7,549.9,351.3,550.4,347.5,550.9 M301.9,554.7v3h-6.5h-6.5v5v5h6.5h6.5v7.5v7.5h-8.5h-8.5v5v5h22.5
	h22.5v-5v-5h-7.5h-7.5v-15.5v-15.5h-6.5h-6.5V554.7 M394.7,562.6c-8.5,10.5-8.8,11-8.8,16v5.1h15h15v4.5v4.5h5.9h5.9l0.3-4.2
	l0.3-4.2l4.8-0.3l4.8-0.3v-4.9v-4.9h-5h-5v-5.9v-5.9l-5.6-0.3c-3.1-0.2-5.8-0.2-6,0.1c-0.2,0.2-0.4,3-0.4,6.2v5.8h-7.5
	c-4.1,0-7.5-0.3-7.5-0.6s3.9-5.3,8.6-11l8.6-10.4l-7.3,0l-7.3,0L394.7,562.6 M435.9,556.7v5h15c9.7,0,15,0.4,15,1
	c0,0.6-4.8,7-10.7,14.2c-5.9,7.3-11.1,13.8-11.6,14.5c-0.7,1,0.7,1.2,6.6,1.2h7.5l11.6-14.9l11.6-14.9v-5.6v-5.6h-22.5h-22.5V556.7
	 M346.6,561.4c-0.4,0.4-0.7,2.2-0.7,4v3.3h11h11v-3.4c0-2.2-0.6-3.6-1.6-4C364.2,560.5,347.4,560.5,346.6,561.4"/>
</svg>
