<?xml version="1.0" encoding="utf-8"?>
<!-- Generator: Adobe Illustrator 13.0.0, SVG Export Plug-In . SVG Version: 6.00 Build 14948)  -->
<!DOCTYPE svg PUBLIC "-//W3C//DTD SVG 1.1//EN" "http://www.w3.org/Graphics/SVG/1.1/DTD/svg11.dtd">
<svg version="1.1" id="Ebene_1" xmlns="http://www.w3.org/2000/svg" xmlns:xlink="http://www.w3.org/1999/xlink" x="0px" y="0px"
	 width="528.133px" height="561.259px" viewBox="0 0 528.133 561.259" enable-background="new 0 0 528.133 561.259"
	 xml:space="preserve">
<polygon fill-rule="evenodd" clip-rule="evenodd" points="0,111.987 63.763,111.987 63.763,24.186 0,24.186 0,24.772 18.324,68.161 
	0,111.401 0,111.987 "/>
<polygon fill-rule="evenodd" clip-rule="evenodd" points="59.659,107.883 59.659,28.143 6.743,28.291 22.868,68.161 6.743,108.029 
	59.659,107.883 "/>
<polygon fill-rule="evenodd" clip-rule="evenodd" fill="#E32219" points="59.659,108.029 6.743,108.029 6.743,107.883 
	13.192,91.906 17.443,81.353 59.659,81.353 59.659,108.029 "/>
<polygon fill-rule="evenodd" clip-rule="evenodd" fill="#007AB1" points="59.659,81.353 17.443,81.353 22.868,68.013 17.443,54.675 
	59.659,54.675 59.659,81.353 "/>
<polygon fill-rule="evenodd" clip-rule="evenodd" fill="#FFFFFF" points="59.659,54.82 17.59,54.82 13.192,44.121 6.889,28.291 
	59.659,28.291 59.659,54.82 "/>
<polygon fill-rule="evenodd" clip-rule="evenodd" points="528.133,111.987 464.369,111.987 464.369,24.186 528.133,24.186 
	528.133,24.772 509.811,68.161 528.133,111.401 528.133,111.987 "/>
<polygon fill-rule="evenodd" clip-rule="evenodd" points="468.473,107.883 468.473,28.143 521.389,28.291 505.267,68.161 
	521.389,108.029 468.473,107.883 "/>
<polygon fill-rule="evenodd" clip-rule="evenodd" fill="#E32219" points="468.473,108.029 521.389,108.029 521.389,107.883 
	514.938,91.906 510.69,81.353 468.473,81.353 468.473,108.029 "/>
<polygon fill-rule="evenodd" clip-rule="evenodd" fill="#007AB1" points="468.473,81.353 510.69,81.353 505.267,68.013 
	510.69,54.675 468.473,54.675 468.473,81.353 "/>
<polygon fill-rule="evenodd" clip-rule="evenodd" fill="#FFFFFF" points="468.473,54.82 510.541,54.82 514.938,44.121 
	521.246,28.291 468.473,28.291 468.473,54.82 "/>
<path fill-rule="evenodd" clip-rule="evenodd" d="M264.139,561.259c122.982,0,223.538-100.263,223.831-223.242L487.827,0
	L40.311,0.145v337.286v0.586C40.604,460.997,141.012,561.259,264.139,561.259L264.139,561.259z"/>
<path fill-rule="evenodd" clip-rule="evenodd" fill="#FFFFFF" d="M264.139,556.715c121.078,0,219.873-98.648,220.166-219.724V4.69
	H43.973v331.715v0.586C44.268,458.067,143.064,556.715,264.139,556.715L264.139,556.715z"/>
<path fill-rule="evenodd" clip-rule="evenodd" fill="#004494" d="M264.139,552.171c38.991,0,75.489-10.406,107.303-28.436H156.844
	C188.503,541.765,225.149,552.171,264.139,552.171L264.139,552.171z M378.327,519.485c12.021-7.477,23.309-16.271,33.715-25.945
	H116.24c10.408,9.674,21.694,18.469,33.713,25.945H378.327L378.327,519.485z M419.811,485.917
	c7.623-7.913,14.804-16.415,21.105-25.503H87.362c6.303,9.088,13.34,17.59,21.108,25.503H419.811L419.811,485.917z M448.393,449.272
	c5.276-8.502,9.97-17.443,14.071-26.678H65.815c4.103,9.234,8.795,18.176,14.071,26.678H448.393L448.393,449.272z M468.037,408.376
	c3.076-8.502,5.716-17.443,7.623-26.531H52.477c2.052,9.088,4.69,18.029,7.768,26.531H468.037L468.037,408.376z M479.468,359.418
	c0.735-7.623,1.172-15.39,1.321-23.309V9.234H47.492v326.29v0.586c0.148,7.919,0.587,15.686,1.32,23.309H479.468L479.468,359.418z"
	/>
<path fill-rule="evenodd" clip-rule="evenodd" fill="#FFFFFF" d="M230.426,158.016V9.234h-74.023v174.579
	C178.976,171.062,203.896,162.119,230.426,158.016L230.426,158.016z"/>
<path fill-rule="evenodd" clip-rule="evenodd" fill="#FFFFFF" d="M371.878,183.813V9.234h-74.024v148.781
	C324.385,162.119,349.452,171.062,371.878,183.813L371.878,183.813z"/>
<path fill-rule="evenodd" clip-rule="evenodd" fill="#FFFFFF" d="M479.908,344.175c-13.192-106.126-105.1-188.799-215.769-188.799
	c-110.814,0-202.721,82.673-215.767,188.799H479.908L479.908,344.175z"/>
<path fill-rule="evenodd" clip-rule="evenodd" d="M38.991,0.145h-9.968h-0.732c-8.648,0.148-14.805,7.77-6.596,31.077L39.577,85.31
	h64.789V0.145H38.991L38.991,0.145z"/>
<path fill-rule="evenodd" clip-rule="evenodd" fill="#FFFFFF" d="M33.274,3.958c-8.355,0-15.245,2.199-6.01,28.291L42.803,81.5
	h60.391l-3.517-25.506V3.958H42.362H33.274L33.274,3.958z"/>
<path fill-rule="evenodd" clip-rule="evenodd" fill="#176FA5" d="M34.594,55.701h65.083V30.048c-10.702,0-73.146,0-73.146,0
	L34.594,55.701L34.594,55.701z"/>
<path fill-rule="evenodd" clip-rule="evenodd" fill="#FFFFFF" d="M26.531,30.048h73.146V3.958h-59.66c-3.664,0-6.596,0-8.941,0
	c-8.208,0.441-8.208,6.155-8.208,10.26c0,1.759,0.439,3.371,0.439,4.25C24.186,22.28,24.625,24.04,26.531,30.048L26.531,30.048z"/>
<polygon fill-rule="evenodd" clip-rule="evenodd" fill="#E32219" points="42.803,81.5 103.339,81.5 99.677,55.701 34.594,55.701 
	42.803,81.5 "/>
<path fill-rule="evenodd" clip-rule="evenodd" d="M488.263,0.145h10.116h0.583c8.795,0.148,14.95,7.77,6.598,31.077L487.827,85.31
	h-64.79V0.145H488.263L488.263,0.145z"/>
<path fill-rule="evenodd" clip-rule="evenodd" fill="#FFFFFF" d="M493.982,3.958c8.502,0,15.39,2.199,6.155,28.291L484.601,81.5
	h-60.393l3.516-25.506V3.958h57.313H493.982L493.982,3.958z"/>
<path fill-rule="evenodd" clip-rule="evenodd" fill="#176FA5" d="M492.661,55.701h-64.937V30.048c10.702,0,73.143,0,73.143,0
	L492.661,55.701L492.661,55.701z"/>
<path fill-rule="evenodd" clip-rule="evenodd" fill="#FFFFFF" d="M500.867,30.048h-73.143V3.958h59.514c3.665,0,6.595,0,8.941,0
	c8.355,0.441,8.355,6.155,8.355,10.26c0,1.759-0.442,3.371-0.586,4.25C503.213,22.28,502.777,24.04,500.867,30.048L500.867,30.048z"
	/>
<polygon fill-rule="evenodd" clip-rule="evenodd" fill="#E32219" points="484.601,81.5 424.062,81.5 427.724,55.701 492.661,55.701 
	484.601,81.5 "/>
<polygon fill-rule="evenodd" clip-rule="evenodd" points="101.288,0.145 78.567,0.145 101.728,85.31 425.087,85.31 449.861,0.145 
	426.845,0.145 426.845,0 101.288,0 101.288,0.145 "/>
<polygon fill-rule="evenodd" clip-rule="evenodd" fill="#FFFFFF" points="105.686,3.958 83.553,3.958 104.807,81.5 422.448,81.5 
	445.021,3.958 422.594,3.958 105.686,3.958 "/>
<path fill-rule="evenodd" clip-rule="evenodd" d="M391.373,49.544v-2.785h5.423l-5.423-14.805v-7.037h7.919l10.553,28.733
	c0,0,0,0.145,0.144,0.293c0,0.145,0,0.292,0.149,0.439c0.437,1.611,1.172,2.93,1.904,4.25c0.729,1.32,1.758,2.052,2.933,2.199
	c0,0,0,0,0.144,0h0.149h0.583v2.052h-0.583h-20.522v-2.052c1.468-0.146,2.783-0.439,3.809-0.731c1.175-0.294,1.764-0.88,1.764-2.054
	c0-0.439,0-0.734,0-1.027c-0.149-0.145-0.149-0.438-0.296-0.732c0,0,0,0,0-0.146l-2.344-6.596H391.373L391.373,49.544z
	 M391.373,24.917v7.037h-0.296l-4.98,14.805h5.276v2.785h-6.155l-1.468,4.69c0,0.148-0.146,0.294-0.146,0.441
	c0,0.293-0.146,0.438-0.146,0.586c0,0.146-0.144,0.439-0.144,0.586c0,0.293,0,0.439,0,0.586c0,1.32,0.437,2.347,1.315,3.079
	s2.051,1.172,3.372,1.318v2.052h-0.583h-13.046v-2.052c1.172-0.439,2.197-1.173,3.226-2.199c1.025-1.172,1.901-2.931,2.783-5.423
	l9.82-28.292h0.589H391.373L391.373,24.917z M173.994,49.544v-2.785h5.276l-5.276-14.805v-7.037h7.915l10.408,28.733
	c0,0,0.145,0.145,0.145,0.293c0.146,0.145,0.146,0.292,0.146,0.439c0.587,1.611,1.32,2.93,2.052,4.25
	c0.734,1.32,1.761,2.052,2.933,2.199h0.148c0,0,0,0,0.145,0h0.439v2.052h-0.439h-20.522v-2.052c1.466-0.146,2.64-0.439,3.812-0.731
	c1.173-0.294,1.759-0.88,1.759-2.054c0-0.439,0-0.734-0.146-1.027c0-0.145,0-0.438-0.146-0.732c0,0,0,0,0-0.146
	c-0.146,0-0.146,0-0.146,0l-2.199-6.596H173.994L173.994,49.544z M209.465,24.917h0.586h31.663v2.054
	c-2.347,0.146-3.812,0.586-4.104,1.32c-0.441,0.732-0.587,1.613-0.587,2.638v0.145c0,0,0,0,0,0.148v25.211c0,0,0,0.148,0,0.293
	c0,0,0,0.148,0,0.293c0,0.88,0.294,1.761,0.734,2.638c0.586,0.734,1.906,1.173,3.958,1.173v2.052h-0.587h-18.908v-2.052
	c1.906-0.146,3.226-0.439,3.812-1.173c0.586-0.732,0.879-1.758,0.879-3.224V29.755c0-0.146,0-0.293,0-0.586
	c0-0.146-0.146-0.293-0.146-0.439c-0.293-0.439-0.732-0.88-1.318-1.173c-0.587-0.439-1.613-0.586-2.933-0.586
	c-1.613,0-2.638,0.293-3.079,1.027c-0.438,0.732-0.732,2.931-1.025,6.448c0,0.587,0,1.027,0,1.613s-0.146,1.173-0.146,1.759
	c0,0.439,0,0.879,0,1.466c-0.146,0.438-0.146,0.879-0.146,1.318c0,0.732,0,1.32,0,2.052c-0.146,0.732-0.146,1.32-0.146,2.054
	c-0.293,4.689-0.879,9.086-2.052,13.044c-1.172,3.81-3.519,5.864-7.329,5.864h-0.587c-1.904,0-3.371-0.586-4.542-1.466
	c-1.027-0.88-1.906-1.906-2.347-3.078c-0.145-0.441-0.293-0.734-0.439-1.173c0-0.439,0-0.732,0-1.173v-0.145
	c0-0.148,0-0.148,0-0.294c0-1.173,0.587-2.199,1.468-3.224c0.877-1.025,1.903-1.466,3.224-1.466h0.584c0,0,0,0,0.148,0
	c0,0,0,0,0.145,0c0.88,0,1.759,0.441,2.493,1.172c0.732,0.734,1.173,1.614,1.173,2.64c0,0.293,0,0.732-0.148,1.025
	c-0.146,0.441-0.293,0.734-0.586,1.173c-0.146,0.146-0.439,0.439-0.586,0.439c-0.293,0.148-0.439,0.293-0.587,0.439
	c-0.146,0-0.146,0-0.146,0.146c-0.146,0-0.146,0-0.146,0c-0.439,0.148-0.732,0.441-0.879,0.587
	c-0.293,0.293-0.439,0.438-0.439,0.732c0,0.439,0.146,0.586,0.586,0.879c0.293,0.294,0.732,0.439,1.32,0.439
	c1.904-0.145,3.224-1.17,4.103-3.076c0.734-1.907,1.32-4.106,1.613-6.451c0.146-0.88,0.293-1.759,0.293-2.637
	c0.146-0.88,0.146-1.761,0.293-2.64V46.32c0-0.148,0-0.293,0-0.293c0.148-1.466,0.294-2.493,0.294-3.224
	c0.146-0.734,0.146-1.468,0.146-2.054c0-0.146,0-0.439,0-0.586c0-0.148,0-0.293,0-0.441c0-0.145,0-0.292,0-0.438
	c0-0.148,0-0.294,0-0.439c0.146-0.88,0.146-1.613,0.146-2.054c0-0.438,0-0.879,0.145-1.172c0-0.293,0-0.439,0-0.88
	c0-0.293,0-0.731,0-1.172c0-2.493-0.292-3.958-0.732-4.69c-0.439-0.734-1.025-1.172-1.611-1.32c-0.146,0-0.146,0-0.293,0
	c0-0.146-0.146-0.146-0.146-0.146c-0.294,0-0.441-0.146-0.587-0.146c-0.293,0-0.439-0.146-0.586-0.146
	c-0.293,0-0.587-0.146-0.879-0.146c-0.294,0-0.734,0-1.027,0V24.917L209.465,24.917z M267.805,56.433
	c0,1.613,0.293,2.64,1.025,3.224c0.588,0.587,1.906,0.88,3.664,1.173v2.052h-0.586H253v-2.052c1.759-0.293,3.078-0.586,3.664-1.173
	c0.732-0.584,1.027-1.611,1.027-3.224V27.41h-0.294c-0.438,0-0.732,0-1.172,0s-0.732,0-1.172,0.146
	c-1.466,0.293-2.786,1.173-4.106,2.64c-1.318,1.611-2.49,4.689-3.224,9.234h-0.586h-2.052l0.439-14.514h0.587h33.857l0.296,14.514
	h-0.437h-2.2c-0.442-3.665-1.321-6.303-2.347-7.916c-1.025-1.759-2.051-2.785-3.226-3.372c-0.732-0.438-1.318-0.586-2.051-0.732
	c-0.586,0-1.32,0-1.906,0h-0.293V56.433L267.805,56.433z M327.904,24.917v2.054c-1.758,0.146-3.079,0.439-3.814,1.027
	c-0.586,0.439-1.025,1.611-1.025,3.224v25.211c0,1.613,0.439,2.64,1.025,3.224c0.735,0.587,2.057,0.88,3.814,1.173v2.052h-0.589
	H308.41v-2.052c1.901-0.146,3.076-0.586,3.809-1.173c0.589-0.732,0.882-1.758,0.882-3.224V30.196l-14.367,32.687h-0.583h-14.514
	v-2.052c1.758-0.293,3.079-0.586,3.809-1.173c0.589-0.584,1.028-1.611,1.028-3.224V31.222c0-1.613-0.439-2.785-1.028-3.224
	c-0.729-0.587-2.051-0.88-3.809-1.027v-2.054h0.583h18.911v2.054c0,0,0,0-0.146,0c0,0,0,0-0.146,0
	c-1.465,0.146-2.637,0.586-3.372,1.027c-0.732,0.439-1.025,1.465-1.025,3.224v25.211l14.071-31.516h0.589H327.904L327.904,24.917z
	 M346.956,41.335c2.347,0,4.104-0.292,5.279-1.025c1.172-0.587,2.051-2.638,2.347-6.302c0-0.587,0-1.173,0.146-1.906
	c0.146-0.587,0.293-1.32,0.442-2.054c0.437-1.611,1.172-2.931,2.197-4.103c1.169-1.32,2.93-1.906,5.423-1.906h0.586
	c2.197,0,4.104,0.586,5.273,1.759c1.178,1.172,1.907,2.492,2.203,3.957c0,0.293,0,0.441,0.144,0.586c0,0.294,0,0.441,0,0.587
	c0,1.466-0.589,2.785-1.465,3.957c-1.025,1.027-2.2,1.613-3.516,1.613h-0.589c-0.293,0-0.586,0-0.729,0
	c-0.296,0-0.589-0.145-0.738-0.293c-0.879-0.293-1.608-0.732-2.194-1.32c-0.735-0.732-1.028-1.611-1.028-2.637
	c0-0.294,0-0.587,0-0.88c0-0.294,0.146-0.586,0.146-0.88c0.146-0.146,0.146-0.439,0.293-0.584c0-0.148,0.149-0.294,0.293-0.441
	c0,0,0.149-0.146,0.149-0.293c0.146,0,0.146-0.146,0.29-0.146c0.146-0.146,0.293-0.293,0.442-0.586
	c0.146-0.146,0.146-0.294,0.146-0.587c0-0.145,0-0.145,0-0.145c0-0.148-0.146-0.294-0.146-0.441
	c-0.149-0.146-0.296-0.146-0.442-0.146c-0.144,0-0.439,0-0.583,0c-0.149,0-0.442,0.146-0.589,0.293
	c-0.439,0.146-0.882,0.732-1.318,1.466c-0.439,0.879-0.732,2.197-0.882,3.958c0,0.293,0,0.439,0,0.586c0,0.293,0,0.439,0,0.587
	c-0.144,2.051-0.437,3.664-0.879,5.128c-0.437,1.32-1.611,2.347-3.372,2.933v0.734c0.442,0,0.589,0.145,0.885,0.145
	c0.287,0.148,0.437,0.148,0.583,0.293c0.146,0,0.146,0,0.146,0c0.296,0,0.442,0,0.586,0.146c0.146,0,0.293,0,0.586,0.146
	c3.372,0.734,5.426,1.906,6.155,3.372c0.732,1.465,1.321,3.226,1.471,5.276c0,0,0,0.148,0.144,0.148c0,0.146,0,0.146,0,0.293
	c0,0.145,0,0.292,0,0.439c0,0.146,0.149,0.439,0.149,0.587c0,0,0,0.145,0,0.293c0,0.145,0,0.145,0,0.292
	c0.144,0.879,0.29,1.759,0.437,2.492c0.296,0.734,0.732,1.173,1.321,1.32c0.437-0.146,0.876-0.439,1.318-1.32
	c0.439-0.732,0.732-1.613,1.028-2.638h0.437h2.64c-0.442,2.786-1.175,4.837-2.493,6.303c-1.172,1.466-2.493,2.345-3.955,2.786
	c-0.442,0.146-0.732,0.292-1.175,0.292c-0.293,0-0.589,0.148-1.025,0.148h-0.589c-3.366,0-5.566-1.32-6.448-3.665
	c-0.879-2.345-1.611-5.276-1.904-8.5c0-0.441,0-0.88-0.149-1.468c0-0.586-0.146-1.172-0.29-1.758
	c-0.293-1.172-0.882-2.054-1.611-3.079c-0.732-0.879-1.907-1.318-3.668-1.318h-2.051v12.605c0,1.613,0.439,2.64,1.025,3.224
	c0.735,0.587,1.907,0.88,3.812,1.173v2.052h-0.589h-19.055v-2.052c1.907-0.293,3.079-0.586,3.814-1.173
	c0.586-0.584,1.025-1.611,1.025-3.224V31.222c0-1.613-0.439-2.785-1.025-3.224c-0.735-0.587-1.907-0.88-3.814-1.027v-2.054h0.589
	h19.055v2.054c-1.904,0.146-3.076,0.439-3.812,1.027c-0.586,0.439-1.025,1.611-1.025,3.224v10.113H346.956L346.956,41.335z
	 M149.074,24.917l0.292,11.436h-0.584h-2.638c-0.734-3.079-2.052-5.424-3.519-7.037c-1.32-1.466-3.226-2.199-5.571-2.345v-2.054
	H149.074L149.074,24.917z M137.054,41.043c4.545,0.145,8.502,0.732,11.728,1.904c3.371,1.32,5.128,4.251,5.128,8.941
	c0,2.931-0.732,5.13-2.196,6.596c-1.613,1.614-3.226,2.64-4.985,3.372c-1.32,0.293-2.493,0.586-3.665,0.734
	c-1.173,0.145-2.052,0.292-2.638,0.292h-0.586h-2.786v-2.638c1.466-0.293,2.786-0.732,3.812-1.32
	c1.613-1.025,2.345-2.931,2.345-5.569c0-3.519-0.732-6.01-2.199-7.329c-1.172-1.173-2.492-1.906-3.958-2.345V41.043L137.054,41.043z
	 M173.994,24.917v7.037H173.7l-4.983,14.805h5.278v2.785h-6.157l-1.613,4.69c0,0.148,0,0.294,0,0.441
	c-0.148,0.293-0.148,0.438-0.148,0.586c-0.146,0.146-0.146,0.439-0.146,0.586c0,0.293-0.146,0.439-0.146,0.586
	c0,1.32,0.441,2.347,1.466,3.079c0.879,0.732,1.906,1.172,3.224,1.318v2.052h-0.586h-12.899v-2.052
	c1.027-0.439,2.199-1.173,3.226-2.199c1.025-1.172,1.906-2.931,2.786-5.423l9.674-28.292h0.586H173.994L173.994,24.917z
	 M137.054,26.971c-0.293,0-0.586,0-0.879,0h-1.906c-0.146,0-0.293,0-0.439,0s-0.146,0-0.294,0c-0.731,0-1.318,0.146-1.904,0.439
	c-0.439,0.146-0.732,0.732-0.732,1.613v12.021h5.276c0.293,0,0.586,0,0.879,0v2.638c-0.293,0-0.586-0.148-0.731-0.148
	c-0.589-0.146-1.175-0.146-1.761-0.146c-0.439,0-1.027,0-1.465,0c-0.146,0-0.146,0-0.293,0c0,0,0,0-0.148,0c-0.439,0-1.025,0-1.32,0
	c-0.293,0.146-0.438,0.441-0.438,0.88v12.166c0,1.466,0.145,2.492,0.732,3.079c0.441,0.587,1.32,0.879,2.492,1.025
	c1.025-0.146,2.052-0.146,2.931-0.293v2.638h-20.96v-2.052c1.759-0.146,2.931-0.439,3.664-1.173
	c0.732-0.584,1.025-1.758,1.025-3.224V31.222c0-1.759-0.293-2.785-1.025-3.224c-0.732-0.587-1.904-0.88-3.664-1.027v-2.054h0.586
	h20.375V26.971L137.054,26.971z"/>
<path fill="none" stroke="#FFFFFF" stroke-width="5.8498" stroke-miterlimit="2.6131" d="M478.786,336.365
	c-16.614-102.344-106.705-180.989-214.646-180.989c-109.131,0-199.923,80.177-215.118,183.974"/>
<path fill-rule="evenodd" clip-rule="evenodd" d="M338.017,193.635l68.306,56.142l4.251,52.475l-72.557,27.85v2.933l73.729-28.146
	l44.417,39.141l20.669-17.739c-2.786-13.485-7.327-28.289-13.488-41.774c-7.62-17.004-16.708-32.249-28.286-46.761
	c-8.944,3.226-18.182,6.451-27.12,9.675l-69.92-57.46V193.635L338.017,193.635z M329.515,186.598l8.502,7.037v-3.665l-8.063-6.596
	l-7.031-19.935c-19.207-5.571-38.555-7.768-58.636-8.063c-19.789,0.146-39.87,2.64-59.952,8.355
	c-1.906,6.155-3.958,12.458-5.864,18.615l-8.5,6.45v3.665l9.527-7.329l63.322,23.306v83.553l-60.538,43.389l-12.312-4.547v2.933
	l11.432,4.397l3.372,6.012H323.36l3.955-7.04l10.702-4.102v-2.933l-11.581,4.397l-60.684-43.535v-82.23L329.515,186.598
	L329.515,186.598z M189.971,188.796v3.665l-71.534,54.382l-1.463,56.58l72.998,27.41v2.933l-74.026-27.703l-39.136,38.112
	c-8.648-5.133-17.297-9.823-25.945-14.953c3.372-18.322,9.381-35.033,17.443-51.891c6.303-13.484,14.659-26.53,23.159-37.23
	l25.359,4.251L189.971,188.796L189.971,188.796z"/>
<path fill="none" stroke="#FFFFFF" stroke-width="5.8498" stroke-miterlimit="2.6131" d="M48.428,343.724
	c-0.019,0.149-0.037,0.299-0.056,0.451 M50.949,328.261c-1.025,5.095-2.036,10.761-2.688,15.979"/>
<path fill="none" stroke="#000000" stroke-width="5.8498" stroke-miterlimit="2.6131" d="M476.679,325.264
	c-21.1-96.876-108.536-169.888-212.54-169.888c-105.211,0-193.377,74.522-213.19,172.885"/>
<path fill="none" stroke="#FFFFFF" stroke-width="5.8498" stroke-miterlimit="2.6131" d="M476.823,325.923
	c-0.047-0.22-0.097-0.439-0.144-0.659 M479.99,344.269c-0.768-6.167-1.881-12.352-3.167-18.346"/>
<polygon fill-rule="evenodd" clip-rule="evenodd" points="54.686,331.452 49.532,328.46 49.724,327.634 54.495,328.141 
	54.686,331.452 "/>
<polygon fill-rule="evenodd" clip-rule="evenodd" points="473.117,329.509 478.015,325.214 477.76,324.166 472.797,325.789 
	473.117,329.509 "/>
<polygon fill-rule="evenodd" clip-rule="evenodd" fill="#004494" points="477.092,344.175 480.529,344.175 478.557,345.16 
	477.092,344.175 "/>
<polygon fill-rule="evenodd" clip-rule="evenodd" fill="#004494" points="51.028,344.175 47.752,344.175 48.229,345.066 
	51.028,344.175 "/>
</svg>
