<?xml version="1.0" encoding="UTF-8"?>
<!DOCTYPE svg PUBLIC "-//W3C//DTD SVG 1.1//EN" "http://www.w3.org/Graphics/SVG/1.1/DTD/svg11.dtd">
<svg xmlns="http://www.w3.org/2000/svg" version="1.1" width="1662px" height="2364px" style="shape-rendering:geometricPrecision; text-rendering:geometricPrecision; image-rendering:optimizeQuality; fill-rule:evenodd; clip-rule:evenodd" xmlns:xlink="http://www.w3.org/1999/xlink">
<g><path style="opacity:0.993" fill="#0233ab" d="M 221.5,-0.5 C 627.833,-0.5 1034.17,-0.5 1440.5,-0.5C 1518.15,3.37197 1579.65,36.7053 1625,99.5C 1648.22,137.648 1660.38,178.981 1661.5,223.5C 1661.5,657.5 1661.5,1091.5 1661.5,1525.5C 1660.14,1591.65 1652.97,1657.32 1640,1722.5C 1592.05,1913.93 1490.89,2070.1 1336.5,2191C 1282.71,2233.25 1224.05,2267.92 1160.5,2295C 1060.18,2338.08 955.513,2360.92 846.5,2363.5C 835.833,2363.5 825.167,2363.5 814.5,2363.5C 729.212,2361.01 645.879,2346.51 564.5,2320C 416.757,2268.25 292.59,2182.75 192,2063.5C 151.53,2013.93 116.53,1960.6 87,1903.5C 54.768,1837.14 31.1013,1767.8 16,1695.5C 5.96656,1634.42 0.466558,1573.09 -0.5,1511.5C -0.5,1084.17 -0.5,656.833 -0.5,229.5C 1.42397,130.764 46.7573,60.2636 135.5,18C 163.215,6.77588 191.882,0.60921 221.5,-0.5 Z"/></g>
<g><path style="opacity:1" fill="#fefefe" d="M 207.5,37.5 C 623.167,37.3333 1038.83,37.5 1454.5,38C 1528.11,47.6968 1580.28,86.1968 1611,153.5C 1617.85,170.89 1622.18,188.89 1624,207.5C 1624.67,658.5 1624.67,1109.5 1624,1560.5C 1610.55,1802.24 1511.05,1999.74 1325.5,2153C 1136.72,2299.03 924.051,2352.7 687.5,2314C 473.114,2270.44 302.948,2159.94 177,1982.5C 92.3867,1858 46.0534,1720.33 38,1569.5C 37.3333,1113.5 37.3333,657.5 38,201.5C 49.0054,131.627 86.5054,81.7935 150.5,52C 168.946,44.4724 187.946,39.6391 207.5,37.5 Z"/></g>
<g><path style="opacity:1" fill="#121c26" d="M 247.5,114.5 C 259.167,114.5 270.833,114.5 282.5,114.5C 282.168,166.003 282.501,217.336 283.5,268.5C 300.5,268.5 317.5,268.5 334.5,268.5C 334.5,217.167 334.5,165.833 334.5,114.5C 346.167,114.5 357.833,114.5 369.5,114.5C 369.5,165.833 369.5,217.167 369.5,268.5C 386.5,268.5 403.5,268.5 420.5,268.5C 421.499,217.336 421.832,166.003 421.5,114.5C 433.167,114.5 444.833,114.5 456.5,114.5C 456.5,176.833 456.5,239.167 456.5,301.5C 386.833,301.5 317.167,301.5 247.5,301.5C 247.5,239.167 247.5,176.833 247.5,114.5 Z"/></g>
<g><path style="opacity:1" fill="#83888e" d="M 247.5,114.5 C 259.322,113.505 271.322,113.172 283.5,113.5C 283.5,165.167 283.5,216.833 283.5,268.5C 282.501,217.336 282.168,166.003 282.5,114.5C 270.833,114.5 259.167,114.5 247.5,114.5 Z"/></g>
<g><path style="opacity:1" fill="#777d83" d="M 456.5,114.5 C 444.833,114.5 433.167,114.5 421.5,114.5C 421.832,166.003 421.499,217.336 420.5,268.5C 420.5,216.833 420.5,165.167 420.5,113.5C 432.678,113.172 444.678,113.505 456.5,114.5 Z"/></g>
<g><path style="opacity:1" fill="#121c26" d="M 530.5,114.5 C 530.333,156.501 530.5,198.501 531,240.5C 531.717,239.956 532.217,239.289 532.5,238.5C 556.848,197.131 581.182,155.798 605.5,114.5C 618.5,114.5 631.5,114.5 644.5,114.5C 644.5,176.5 644.5,238.5 644.5,300.5C 632.167,300.5 619.833,300.5 607.5,300.5C 607.667,258.832 607.5,217.165 607,175.5C 582.081,217.002 557.415,258.668 533,300.5C 519.913,301.489 506.746,301.823 493.5,301.5C 493.5,239.167 493.5,176.833 493.5,114.5C 505.833,114.5 518.167,114.5 530.5,114.5 Z"/></g>
<g><path style="opacity:1" fill="#a9acb0" d="M 530.5,114.5 C 531.167,155.833 531.833,197.167 532.5,238.5C 532.217,239.289 531.717,239.956 531,240.5C 530.5,198.501 530.333,156.501 530.5,114.5 Z"/></g>
<g><path style="opacity:1" fill="#82888d" d="M 605.5,114.5 C 618.656,113.504 631.99,113.171 645.5,113.5C 645.5,176.167 645.5,238.833 645.5,301.5C 632.656,301.829 619.989,301.495 607.5,300.5C 619.833,300.5 632.167,300.5 644.5,300.5C 644.5,238.5 644.5,176.5 644.5,114.5C 631.5,114.5 618.5,114.5 605.5,114.5 Z"/></g>
<g><path style="opacity:1" fill="#121c26" d="M 719.5,114.5 C 719.5,138.167 719.5,161.833 719.5,185.5C 744.5,185.5 769.5,185.5 794.5,185.5C 794.5,161.833 794.5,138.167 794.5,114.5C 807.167,114.5 819.833,114.5 832.5,114.5C 832.5,176.5 832.5,238.5 832.5,300.5C 819.833,300.5 807.167,300.5 794.5,300.5C 794.831,272.662 794.498,244.995 793.5,217.5C 769.167,217.5 744.833,217.5 720.5,217.5C 719.502,244.995 719.169,272.662 719.5,300.5C 706.833,300.5 694.167,300.5 681.5,300.5C 681.5,238.5 681.5,176.5 681.5,114.5C 694.167,114.5 706.833,114.5 719.5,114.5 Z"/></g>
<g><path style="opacity:1" fill="#898e93" d="M 832.5,114.5 C 819.833,114.5 807.167,114.5 794.5,114.5C 794.5,138.167 794.5,161.833 794.5,185.5C 769.5,185.5 744.5,185.5 719.5,185.5C 719.5,161.833 719.5,138.167 719.5,114.5C 720.498,137.661 720.831,160.994 720.5,184.5C 744.833,184.5 769.167,184.5 793.5,184.5C 793.5,160.833 793.5,137.167 793.5,113.5C 806.677,113.171 819.677,113.505 832.5,114.5 Z"/></g>
<g><path style="opacity:1" fill="#121c26" d="M 869.5,114.5 C 882.167,114.5 894.833,114.5 907.5,114.5C 907.5,138.167 907.5,161.833 907.5,185.5C 932.339,185.831 957.006,185.498 981.5,184.5C 981.5,161.167 981.5,137.833 981.5,114.5C 994.5,114.5 1007.5,114.5 1020.5,114.5C 1020.5,176.833 1020.5,239.167 1020.5,301.5C 1007.5,301.5 994.5,301.5 981.5,301.5C 981.5,273.5 981.5,245.5 981.5,217.5C 957.167,217.5 932.833,217.5 908.5,217.5C 907.502,244.995 907.169,272.662 907.5,300.5C 894.833,300.5 882.167,300.5 869.5,300.5C 869.5,238.5 869.5,176.5 869.5,114.5 Z"/></g>
<g><path style="opacity:1" fill="#121c26" d="M 1057.5,114.5 C 1069.83,114.5 1082.17,114.5 1094.5,114.5C 1094.33,156.501 1094.5,198.501 1095,240.5C 1095.72,239.956 1096.22,239.289 1096.5,238.5C 1120.32,197.527 1144.16,156.527 1168,115.5C 1181.42,114.51 1194.92,114.177 1208.5,114.5C 1208.5,176.5 1208.5,238.5 1208.5,300.5C 1196.17,300.5 1183.83,300.5 1171.5,300.5C 1171.67,258.499 1171.5,216.499 1171,174.5C 1170.28,175.044 1169.78,175.711 1169.5,176.5C 1145.15,217.869 1120.82,259.202 1096.5,300.5C 1083.5,300.5 1070.5,300.5 1057.5,300.5C 1057.5,238.5 1057.5,176.5 1057.5,114.5 Z"/></g>
<g><path style="opacity:1" fill="#ced0d2" d="M 1094.5,114.5 C 1095.17,155.833 1095.83,197.167 1096.5,238.5C 1096.22,239.289 1095.72,239.956 1095,240.5C 1094.5,198.501 1094.33,156.501 1094.5,114.5 Z"/></g>
<g><path style="opacity:1" fill="#121c26" d="M 1286.5,114.5 C 1286.17,139.842 1286.5,165.175 1287.5,190.5C 1288.11,190.376 1288.44,190.043 1288.5,189.5C 1311.63,164.536 1334.96,139.703 1358.5,115C 1375.5,114.333 1392.5,114.333 1409.5,115C 1384.29,140.374 1358.96,165.541 1333.5,190.5C 1359.6,227.04 1385.93,263.373 1412.5,299.5C 1396.34,300.496 1380.01,300.83 1363.5,300.5C 1344.39,273.784 1325.39,246.95 1306.5,220C 1299.85,225.474 1293.52,231.641 1287.5,238.5C 1286.5,258.993 1286.17,279.66 1286.5,300.5C 1273.83,300.5 1261.17,300.5 1248.5,300.5C 1248.5,238.5 1248.5,176.5 1248.5,114.5C 1261.17,114.5 1273.83,114.5 1286.5,114.5 Z"/></g>
<g><path style="opacity:1" fill="#434b53" d="M 1286.5,114.5 C 1287.17,139.5 1287.83,164.5 1288.5,189.5C 1288.44,190.043 1288.11,190.376 1287.5,190.5C 1286.5,165.175 1286.17,139.842 1286.5,114.5 Z"/></g>
<g><path style="opacity:1" fill="#5e656c" d="M 1208.5,300.5 C 1196.01,301.495 1183.34,301.829 1170.5,301.5C 1170.83,259.663 1170.5,217.997 1169.5,176.5C 1169.78,175.711 1170.28,175.044 1171,174.5C 1171.5,216.499 1171.67,258.499 1171.5,300.5C 1183.83,300.5 1196.17,300.5 1208.5,300.5 Z"/></g>
<g><path style="opacity:1" fill="#94999d" d="M 907.5,114.5 C 908.498,137.661 908.831,160.994 908.5,184.5C 932.833,184.5 957.167,184.5 981.5,184.5C 957.006,185.498 932.339,185.831 907.5,185.5C 907.5,161.833 907.5,138.167 907.5,114.5 Z"/></g>
<g><path style="opacity:1" fill="#596067" d="M 720.5,217.5 C 720.5,245.5 720.5,273.5 720.5,301.5C 707.323,301.829 694.323,301.495 681.5,300.5C 694.167,300.5 706.833,300.5 719.5,300.5C 719.169,272.662 719.502,244.995 720.5,217.5 Z"/></g>
<g><path style="opacity:1" fill="#7b8086" d="M 793.5,217.5 C 794.498,244.995 794.831,272.662 794.5,300.5C 807.167,300.5 819.833,300.5 832.5,300.5C 819.677,301.495 806.677,301.829 793.5,301.5C 793.5,273.5 793.5,245.5 793.5,217.5 Z"/></g>
<g><path style="opacity:1" fill="#575e65" d="M 869.5,114.5 C 869.5,176.5 869.5,238.5 869.5,300.5C 882.167,300.5 894.833,300.5 907.5,300.5C 907.169,272.662 907.502,244.995 908.5,217.5C 908.5,245.5 908.5,273.5 908.5,301.5C 895.167,301.5 881.833,301.5 868.5,301.5C 868.168,238.998 868.501,176.664 869.5,114.5 Z"/></g>
<g><path style="opacity:1" fill="#4a5159" d="M 1287.5,238.5 C 1287.5,259.5 1287.5,280.5 1287.5,301.5C 1274.32,301.829 1261.32,301.495 1248.5,300.5C 1261.17,300.5 1273.83,300.5 1286.5,300.5C 1286.17,279.66 1286.5,258.993 1287.5,238.5 Z"/></g>
<g><path style="opacity:1" fill="#7c8287" d="M 1057.5,114.5 C 1057.5,176.5 1057.5,238.5 1057.5,300.5C 1070.5,300.5 1083.5,300.5 1096.5,300.5C 1083.34,301.496 1070.01,301.829 1056.5,301.5C 1056.17,238.998 1056.5,176.664 1057.5,114.5 Z"/></g>
<g><path style="opacity:1" fill="#5c636a" d="M 1412.5,299.5 C 1413.04,299.56 1413.38,299.893 1413.5,300.5C 1396.67,301.827 1380,301.827 1363.5,300.5C 1380.01,300.83 1396.34,300.496 1412.5,299.5 Z"/></g>
<g><path style="opacity:1" fill="#0033ab" d="M 830.5,340.5 C 830.5,430.167 830.5,519.833 830.5,609.5C 720.665,609.167 610.999,609.501 501.5,610.5C 501.833,690.169 501.5,769.836 500.5,849.5C 336.054,930.78 214.887,1054.45 137,1220.5C 132.261,1230.64 128.094,1240.97 124.5,1251.5C 123.5,1002.67 123.167,753.667 123.5,504.5C 126.884,442.874 154.551,395.707 206.5,363C 227.491,350.447 250.158,343.114 274.5,341C 459.833,340.5 645.166,340.333 830.5,340.5 Z"/></g>
<g><path style="opacity:1" fill="#121c26" d="M 830.5,340.5 C 1019.18,340.012 1207.85,340.512 1396.5,342C 1460.21,354.607 1504.04,391.107 1528,451.5C 1533.35,466.713 1536.51,482.38 1537.5,498.5C 1537.83,749.334 1537.5,1000 1536.5,1250.5C 1472.3,1093.62 1367.97,970.783 1223.5,882C 1202.76,869.964 1181.76,858.464 1160.5,847.5C 1160.5,768.167 1160.5,688.833 1160.5,609.5C 1050.5,609.5 940.5,609.5 830.5,609.5C 830.5,519.833 830.5,430.167 830.5,340.5 Z"/></g>
<g><path style="opacity:1" fill="#fdfdfe" d="M 664.5,386.5 C 664.5,427.833 664.5,469.167 664.5,510.5C 675.833,510.5 687.167,510.5 698.5,510.5C 698.5,520.833 698.5,531.167 698.5,541.5C 663.167,541.5 627.833,541.5 592.5,541.5C 592.5,530.833 592.5,520.167 592.5,509.5C 604.833,509.5 617.167,509.5 629.5,509.5C 629.667,485.831 629.5,462.164 629,438.5C 617.553,445.482 605.386,450.815 592.5,454.5C 592.168,442.814 592.501,431.148 593.5,419.5C 611.942,413.962 626.275,403.129 636.5,387C 645.827,386.5 655.161,386.334 664.5,386.5 Z"/></g>
<g><path style="opacity:1" fill="#7c96d4" d="M 664.5,386.5 C 665.499,427.33 665.832,468.33 665.5,509.5C 676.679,509.172 687.679,509.505 698.5,510.5C 687.167,510.5 675.833,510.5 664.5,510.5C 664.5,469.167 664.5,427.833 664.5,386.5 Z"/></g>
<g><path style="opacity:1" fill="#fcfcfe" d="M 713.5,508.5 C 713.5,507.5 713.5,506.5 713.5,505.5C 723.5,505.5 733.5,505.5 743.5,505.5C 745.302,515.796 751.468,520.796 762,520.5C 773.652,520.523 780.986,514.856 784,503.5C 787.502,495.154 788.836,486.487 788,477.5C 775.82,489.569 761.32,493.402 744.5,489C 720.983,481.795 709.317,465.795 709.5,441C 709.535,413.651 722.535,395.984 748.5,388C 782.615,381.623 804.782,394.79 815,427.5C 820.874,453.133 820.874,478.8 815,504.5C 803.222,537.151 780.056,550.318 745.5,544C 734.825,542.089 726.659,536.589 721,527.5C 717.612,521.499 715.112,515.166 713.5,508.5 Z"/></g>
<g><path style="opacity:1" fill="#fcfcfc" d="M 848.5,390.5 C 877.5,390.5 906.5,390.5 935.5,390.5C 935.5,398.833 935.5,407.167 935.5,415.5C 913.474,414.844 891.808,415.511 870.5,417.5C 869.17,426.487 867.837,435.487 866.5,444.5C 866.833,445.5 867.167,446.5 867.5,447.5C 886.015,437.914 904.348,438.414 922.5,449C 939.807,461.902 946.307,479.069 942,500.5C 932.733,536.576 909.566,551.076 872.5,544C 855.571,541.628 843.404,532.795 836,517.5C 835.333,511.833 835.333,506.167 836,500.5C 845.089,499.35 854.255,499.183 863.5,500C 868.759,520.458 881.092,526.124 900.5,517C 907.786,509.56 911.119,500.56 910.5,490C 908.811,469.627 897.811,461.627 877.5,466C 872.81,467.525 869.143,470.359 866.5,474.5C 856.851,475.294 847.184,475.294 837.5,474.5C 841.169,446.474 844.836,418.474 848.5,390.5 Z"/></g>
<g><path style="opacity:1" fill="#fdfdfd" d="M 956.5,390.5 C 993.833,390.5 1031.17,390.5 1068.5,390.5C 1068.67,398.174 1068.5,405.841 1068,413.5C 1039.96,443.233 1021.63,478.233 1013,518.5C 1011.42,526.081 1010.58,533.748 1010.5,541.5C 999.833,541.5 989.167,541.5 978.5,541.5C 978.785,522.126 982.619,503.46 990,485.5C 1001.11,460.24 1015.95,437.574 1034.5,417.5C 1008.67,416.502 982.672,416.169 956.5,416.5C 956.5,407.833 956.5,399.167 956.5,390.5 Z"/></g>
<g><path style="opacity:1" fill="#0534ab" d="M 756.5,411.5 C 772.887,408.942 783.387,415.608 788,431.5C 791.262,455.229 781.096,466.396 757.5,465C 748.904,462.071 743.404,456.237 741,447.5C 737.918,434.428 741.085,423.261 750.5,414C 752.611,413.155 754.611,412.322 756.5,411.5 Z"/></g>
<g><path style="opacity:1" fill="#586067" d="M 848.5,390.5 C 877.662,389.502 906.995,389.169 936.5,389.5C 936.5,398.5 936.5,407.5 936.5,416.5C 914.425,416.178 892.425,416.511 870.5,417.5C 891.808,415.511 913.474,414.844 935.5,415.5C 935.5,407.167 935.5,398.833 935.5,390.5C 906.5,390.5 877.5,390.5 848.5,390.5 Z"/></g>
<g><path style="opacity:1" fill="#adb1b4" d="M 956.5,390.5 C 956.5,399.167 956.5,407.833 956.5,416.5C 982.672,416.169 1008.67,416.502 1034.5,417.5C 1008.17,417.5 981.833,417.5 955.5,417.5C 955.173,408.318 955.507,399.318 956.5,390.5 Z"/></g>
<g><path style="opacity:1" fill="#5775c6" d="M 743.5,505.5 C 733.5,505.5 723.5,505.5 713.5,505.5C 713.5,506.5 713.5,507.5 713.5,508.5C 712.566,507.432 712.232,506.099 712.5,504.5C 723.014,504.172 733.347,504.506 743.5,505.5 Z"/></g>
<g><path style="opacity:1" fill="#ebeff8" d="M 123.5,504.5 C 123.167,753.667 123.5,1002.67 124.5,1251.5C 124.44,1252.04 124.107,1252.38 123.5,1252.5C 122.167,1003 122.167,753.667 123.5,504.5 Z"/></g>
<g><path style="opacity:1" fill="#a2a6aa" d="M 1537.5,498.5 C 1538.67,749.666 1538.83,1001 1538,1252.5C 1537.28,1251.96 1536.78,1251.29 1536.5,1250.5C 1537.5,1000 1537.83,749.334 1537.5,498.5 Z"/></g>
<g><path style="opacity:1" fill="#b4b9c0" d="M 501.5,610.5 C 610.999,609.501 720.665,609.167 830.5,609.5C 940.5,609.5 1050.5,609.5 1160.5,609.5C 1160.5,688.833 1160.5,768.167 1160.5,847.5C 1159.5,768.668 1159.17,689.668 1159.5,610.5C 940.167,610.5 720.833,610.5 501.5,610.5 Z"/></g>
<g><path style="opacity:1" fill="#0233ab" d="M 1147.5,1273.5 C 1149.04,1301.24 1146.54,1328.57 1140,1355.5C 1127.98,1390.52 1105.15,1415.68 1071.5,1431C 1046.76,1440.64 1021.09,1445.14 994.5,1444.5C 970.856,1442.91 947.189,1442.41 923.5,1443C 893.811,1446.7 871.645,1461.54 857,1487.5C 850.563,1499.71 845.23,1512.37 841,1525.5C 834.223,1526.81 827.39,1526.81 820.5,1525.5C 814.33,1504.49 804.496,1485.49 791,1468.5C 775.505,1452.84 756.671,1444.34 734.5,1443C 709.645,1442.35 684.811,1442.85 660,1444.5C 624.682,1445.3 592.516,1435.8 563.5,1416C 536.133,1394.44 520.299,1366.28 516,1331.5C 515.002,1322.19 514.502,1312.86 514.5,1303.5C 514.5,1076.83 514.5,850.167 514.5,623.5C 725.167,623.5 935.833,623.5 1146.5,623.5C 1146.17,840.334 1146.5,1057 1147.5,1273.5 Z"/></g>
<g><path style="opacity:1" fill="#6480cb" d="M 1147.5,1273.5 C 1146.5,1057 1146.17,840.334 1146.5,623.5C 935.833,623.5 725.167,623.5 514.5,623.5C 514.5,850.167 514.5,1076.83 514.5,1303.5C 513.5,1076.67 513.167,849.667 513.5,622.5C 724.833,622.5 936.167,622.5 1147.5,622.5C 1147.5,839.5 1147.5,1056.5 1147.5,1273.5 Z"/></g>
<g><path style="opacity:1" fill="#fefefe" d="M 544.5,653.5 C 735.167,653.5 925.833,653.5 1116.5,653.5C 1116.5,688.5 1116.5,723.5 1116.5,758.5C 1110.55,762.48 1104.22,765.98 1097.5,769C 1087.74,769.563 1078.07,770.729 1068.5,772.5C 1065.6,777.632 1063.27,782.965 1061.5,788.5C 1057.23,788.797 1053.07,788.464 1049,787.5C 1046.91,790.682 1045.08,794.015 1043.5,797.5C 1034.44,789.475 1030.6,779.475 1032,767.5C 1036.06,758.444 1042.89,752.611 1052.5,750C 1056.5,749.167 1060.5,748.333 1064.5,747.5C 1049.02,722.392 1027.02,713.892 998.5,722C 977.604,729.563 962.437,743.396 953,763.5C 947.941,781.39 950.941,797.723 962,812.5C 970.106,800.697 981.273,795.197 995.5,796C 1005.3,798.465 1011.97,804.465 1015.5,814C 993.748,826.626 971.915,839.126 950,851.5C 947.651,846.802 945.318,842.136 943,837.5C 942.378,820.265 936.712,804.931 926,791.5C 921.62,786.789 917.62,781.789 914,776.5C 912.292,774.457 910.292,772.79 908,771.5C 908.171,758.987 902.671,750.154 891.5,745C 882.292,742.68 877.125,746.18 876,755.5C 875.481,756.516 874.647,757.182 873.5,757.5C 870.778,757.046 868.111,756.38 865.5,755.5C 864.314,751.743 862.481,748.41 860,745.5C 849.612,743.377 844.445,747.711 844.5,758.5C 837.429,759.703 831.095,762.536 825.5,767C 819.167,774.667 812.833,782.333 806.5,790C 805.167,790.667 803.833,791.333 802.5,792C 793.5,792.333 784.5,792.667 775.5,793C 771.673,796.308 770.506,800.474 772,805.5C 774.157,811.316 777.49,816.316 782,820.5C 782.513,828.253 784.513,835.587 788,842.5C 794.294,849.245 801.794,854.412 810.5,858C 813.04,860.205 815.207,862.705 817,865.5C 819.452,893.223 807.285,902.723 780.5,894C 768.113,888.269 759.946,878.769 756,865.5C 752.038,850.986 748.705,836.319 746,821.5C 740.976,802.476 729.476,788.976 711.5,781C 704.476,778.042 697.476,775.875 690.5,774.5C 691.5,777.167 692.5,779.833 693.5,782.5C 692.667,782.833 691.833,783.167 691,783.5C 683.755,781.564 676.589,779.731 669.5,778C 673.617,782.406 677.617,786.906 681.5,791.5C 674.795,792.504 668.129,793.671 661.5,795C 682.961,803.125 694.461,818.625 696,841.5C 696.114,859.864 696.781,878.197 698,896.5C 699.423,914.196 707.59,927.696 722.5,937C 730.481,941.491 738.815,945.158 747.5,948C 734.176,947.655 720.843,947.655 707.5,948C 693.862,951.24 682.696,958.407 674,969.5C 670.167,974.5 666.333,979.5 662.5,984.5C 666.167,985.167 669.833,985.833 673.5,986.5C 672.225,989.373 671.392,992.373 671,995.5C 670.829,1000.86 670.329,1006.2 669.5,1011.5C 650.003,1022.41 630.67,1033.58 611.5,1045C 615.041,1051.25 618.707,1057.42 622.5,1063.5C 654.167,1045 685.833,1026.5 717.5,1008C 723.175,1007.63 728.841,1007.8 734.5,1008.5C 733.956,1012.67 734.623,1016.51 736.5,1020C 759.173,1026 782.173,1030.33 805.5,1033C 794.913,1034.81 784.247,1035.98 773.5,1036.5C 777.543,1043.25 781.043,1050.25 784,1057.5C 784.667,1067.5 784.667,1077.5 784,1087.5C 783.222,1095.17 781.222,1102.5 778,1109.5C 772.581,1118.01 766.914,1126.34 761,1134.5C 752.731,1151.37 749.565,1169.2 751.5,1188C 751.914,1212.19 752.914,1236.36 754.5,1260.5C 755.018,1268.43 753.851,1276.1 751,1283.5C 747.111,1290.2 741.277,1294.03 733.5,1295C 724.5,1296.4 715.5,1297.73 706.5,1299C 692.705,1304.62 681.372,1313.46 672.5,1325.5C 676.816,1326.36 681.149,1327.03 685.5,1327.5C 683.939,1332.58 682.606,1337.74 681.5,1343C 681.833,1343.5 682.167,1344 682.5,1344.5C 687.167,1341.83 691.833,1339.17 696.5,1336.5C 696.833,1336.83 697.167,1337.17 697.5,1337.5C 695.117,1341.51 694.117,1345.84 694.5,1350.5C 711.408,1345.13 728.742,1343.13 746.5,1344.5C 746.007,1346.81 745.674,1349.14 745.5,1351.5C 766.33,1350.51 783.497,1342.18 797,1326.5C 801.108,1318.85 804.442,1310.85 807,1302.5C 826.855,1279.79 840.689,1253.79 848.5,1224.5C 846.5,1224.5 844.5,1224.5 842.5,1224.5C 841.553,1215.66 843.053,1207.33 847,1199.5C 851.095,1217.88 856.428,1235.88 863,1253.5C 868.714,1262.24 875.38,1270.24 883,1277.5C 887.216,1283.88 888.549,1290.88 887,1298.5C 883.995,1302.09 880.162,1304.25 875.5,1305C 857.489,1302.84 844.489,1309.84 836.5,1326C 839.478,1327.49 842.478,1328.99 845.5,1330.5C 841.619,1335.92 839.786,1341.92 840,1348.5C 844.743,1345.25 849.91,1343.42 855.5,1343C 852.758,1344.89 851.091,1347.39 850.5,1350.5C 867.42,1348.06 884.42,1347.23 901.5,1348C 900.5,1349 899.5,1350 898.5,1351C 906.507,1350.4 914.507,1349.4 922.5,1348C 928.833,1347.67 935.167,1347.33 941.5,1347C 956.872,1327.08 966.372,1304.58 970,1279.5C 973.302,1254.17 973.302,1228.83 970,1203.5C 967.392,1192.62 962.892,1182.62 956.5,1173.5C 968.106,1158.84 972.94,1142.18 971,1123.5C 964.611,1100.89 960.278,1077.89 958,1054.5C 957.333,1044.83 957.333,1035.17 958,1025.5C 960.69,1005.05 964.023,984.718 968,964.5C 968.745,932.962 964.912,901.962 956.5,871.5C 956.833,870.5 957.167,869.5 957.5,868.5C 980.485,855.093 1003.65,842.093 1027,829.5C 1037.9,833.643 1041.57,841.309 1038,852.5C 1037,856.164 1035.16,859.331 1032.5,862C 1027.25,864.528 1021.92,866.861 1016.5,869C 1031.32,872.573 1044.16,869.073 1055,858.5C 1059.18,852.46 1060.51,845.794 1059,838.5C 1056.7,831.887 1053.36,825.887 1049,820.5C 1048.41,819.101 1048.57,817.768 1049.5,816.5C 1055.8,815.504 1062.13,815.17 1068.5,815.5C 1069.34,811.824 1070.67,808.324 1072.5,805C 1078.5,804.667 1084.5,804.333 1090.5,804C 1095.7,797.768 1100.53,791.268 1105,784.5C 1108.78,780.869 1112.95,777.869 1117.5,775.5C 1117.67,955.834 1117.5,1136.17 1117,1316.5C 1113.13,1368.04 1085.96,1399.54 1035.5,1411C 1027.85,1412.15 1020.19,1413.15 1012.5,1414C 980.5,1414.33 948.5,1414.67 916.5,1415C 891.784,1416.77 871.284,1426.94 855,1445.5C 846.609,1456.38 838.442,1467.38 830.5,1478.5C 822.224,1467.05 813.724,1455.72 805,1444.5C 789.394,1427.11 769.894,1417.28 746.5,1415C 712.5,1414.67 678.5,1414.33 644.5,1414C 612.437,1412.22 585.937,1399.38 565,1375.5C 552.05,1357.32 545.05,1336.99 544,1314.5C 544.456,1094.17 544.623,873.838 544.5,653.5 Z"/></g>
<g><path style="opacity:1" fill="#849cd6" d="M 544.5,653.5 C 735.333,652.5 926.333,652.167 1117.5,652.5C 1117.5,687.833 1117.5,723.167 1117.5,758.5C 1117.17,758.5 1116.83,758.5 1116.5,758.5C 1116.5,723.5 1116.5,688.5 1116.5,653.5C 925.833,653.5 735.167,653.5 544.5,653.5 Z"/></g>
<g><path style="opacity:1" fill="#121c26" d="M 1116.5,758.5 C 1116.83,758.5 1117.17,758.5 1117.5,758.5C 1124.03,754.769 1131.03,752.435 1138.5,751.5C 1138.74,754.226 1137.9,756.559 1136,758.5C 1130.04,764.533 1123.88,770.199 1117.5,775.5C 1112.95,777.869 1108.78,780.869 1105,784.5C 1100.53,791.268 1095.7,797.768 1090.5,804C 1084.5,804.333 1078.5,804.667 1072.5,805C 1070.67,808.324 1069.34,811.824 1068.5,815.5C 1062.13,815.17 1055.8,815.504 1049.5,816.5C 1048.57,817.768 1048.41,819.101 1049,820.5C 1053.36,825.887 1056.7,831.887 1059,838.5C 1060.51,845.794 1059.18,852.46 1055,858.5C 1044.16,869.073 1031.32,872.573 1016.5,869C 1021.92,866.861 1027.25,864.528 1032.5,862C 1035.16,859.331 1037,856.164 1038,852.5C 1041.57,841.309 1037.9,833.643 1027,829.5C 1003.65,842.093 980.485,855.093 957.5,868.5C 957.167,869.5 956.833,870.5 956.5,871.5C 964.912,901.962 968.745,932.962 968,964.5C 964.023,984.718 960.69,1005.05 958,1025.5C 957.333,1035.17 957.333,1044.83 958,1054.5C 960.278,1077.89 964.611,1100.89 971,1123.5C 972.94,1142.18 968.106,1158.84 956.5,1173.5C 962.892,1182.62 967.392,1192.62 970,1203.5C 973.302,1228.83 973.302,1254.17 970,1279.5C 966.372,1304.58 956.872,1327.08 941.5,1347C 935.167,1347.33 928.833,1347.67 922.5,1348C 914.507,1349.4 906.507,1350.4 898.5,1351C 899.5,1350 900.5,1349 901.5,1348C 884.42,1347.23 867.42,1348.06 850.5,1350.5C 851.091,1347.39 852.758,1344.89 855.5,1343C 849.91,1343.42 844.743,1345.25 840,1348.5C 839.786,1341.92 841.619,1335.92 845.5,1330.5C 842.478,1328.99 839.478,1327.49 836.5,1326C 844.489,1309.84 857.489,1302.84 875.5,1305C 880.162,1304.25 883.995,1302.09 887,1298.5C 888.549,1290.88 887.216,1283.88 883,1277.5C 875.38,1270.24 868.714,1262.24 863,1253.5C 856.428,1235.88 851.095,1217.88 847,1199.5C 843.053,1207.33 841.553,1215.66 842.5,1224.5C 844.5,1224.5 846.5,1224.5 848.5,1224.5C 840.689,1253.79 826.855,1279.79 807,1302.5C 804.442,1310.85 801.108,1318.85 797,1326.5C 783.497,1342.18 766.33,1350.51 745.5,1351.5C 745.674,1349.14 746.007,1346.81 746.5,1344.5C 728.742,1343.13 711.408,1345.13 694.5,1350.5C 694.117,1345.84 695.117,1341.51 697.5,1337.5C 697.167,1337.17 696.833,1336.83 696.5,1336.5C 691.833,1339.17 687.167,1341.83 682.5,1344.5C 682.167,1344 681.833,1343.5 681.5,1343C 682.606,1337.74 683.939,1332.58 685.5,1327.5C 681.149,1327.03 676.816,1326.36 672.5,1325.5C 681.372,1313.46 692.705,1304.62 706.5,1299C 715.5,1297.73 724.5,1296.4 733.5,1295C 741.277,1294.03 747.111,1290.2 751,1283.5C 753.851,1276.1 755.018,1268.43 754.5,1260.5C 752.914,1236.36 751.914,1212.19 751.5,1188C 749.565,1169.2 752.731,1151.37 761,1134.5C 766.914,1126.34 772.581,1118.01 778,1109.5C 781.222,1102.5 783.222,1095.17 784,1087.5C 784.667,1077.5 784.667,1067.5 784,1057.5C 781.043,1050.25 777.543,1043.25 773.5,1036.5C 784.247,1035.98 794.913,1034.81 805.5,1033C 782.173,1030.33 759.173,1026 736.5,1020C 734.623,1016.51 733.956,1012.67 734.5,1008.5C 728.841,1007.8 723.175,1007.63 717.5,1008C 685.833,1026.5 654.167,1045 622.5,1063.5C 618.707,1057.42 615.041,1051.25 611.5,1045C 630.67,1033.58 650.003,1022.41 669.5,1011.5C 670.329,1006.2 670.829,1000.86 671,995.5C 671.392,992.373 672.225,989.373 673.5,986.5C 669.833,985.833 666.167,985.167 662.5,984.5C 666.333,979.5 670.167,974.5 674,969.5C 682.696,958.407 693.862,951.24 707.5,948C 720.843,947.655 734.176,947.655 747.5,948C 738.815,945.158 730.481,941.491 722.5,937C 707.59,927.696 699.423,914.196 698,896.5C 696.781,878.197 696.114,859.864 696,841.5C 694.461,818.625 682.961,803.125 661.5,795C 668.129,793.671 674.795,792.504 681.5,791.5C 677.617,786.906 673.617,782.406 669.5,778C 676.589,779.731 683.755,781.564 691,783.5C 691.833,783.167 692.667,782.833 693.5,782.5C 692.5,779.833 691.5,777.167 690.5,774.5C 697.476,775.875 704.476,778.042 711.5,781C 729.476,788.976 740.976,802.476 746,821.5C 748.705,836.319 752.038,850.986 756,865.5C 759.946,878.769 768.113,888.269 780.5,894C 807.285,902.723 819.452,893.223 817,865.5C 815.207,862.705 813.04,860.205 810.5,858C 801.794,854.412 794.294,849.245 788,842.5C 784.513,835.587 782.513,828.253 782,820.5C 777.49,816.316 774.157,811.316 772,805.5C 770.506,800.474 771.673,796.308 775.5,793C 784.5,792.667 793.5,792.333 802.5,792C 803.833,791.333 805.167,790.667 806.5,790C 812.833,782.333 819.167,774.667 825.5,767C 831.095,762.536 837.429,759.703 844.5,758.5C 844.445,747.711 849.612,743.377 860,745.5C 862.481,748.41 864.314,751.743 865.5,755.5C 868.111,756.38 870.778,757.046 873.5,757.5C 874.647,757.182 875.481,756.516 876,755.5C 877.125,746.18 882.292,742.68 891.5,745C 902.671,750.154 908.171,758.987 908,771.5C 910.292,772.79 912.292,774.457 914,776.5C 917.62,781.789 921.62,786.789 926,791.5C 936.712,804.931 942.378,820.265 943,837.5C 945.318,842.136 947.651,846.802 950,851.5C 971.915,839.126 993.748,826.626 1015.5,814C 1011.97,804.465 1005.3,798.465 995.5,796C 981.273,795.197 970.106,800.697 962,812.5C 950.941,797.723 947.941,781.39 953,763.5C 962.437,743.396 977.604,729.563 998.5,722C 1027.02,713.892 1049.02,722.392 1064.5,747.5C 1060.5,748.333 1056.5,749.167 1052.5,750C 1042.89,752.611 1036.06,758.444 1032,767.5C 1030.6,779.475 1034.44,789.475 1043.5,797.5C 1045.08,794.015 1046.91,790.682 1049,787.5C 1053.07,788.464 1057.23,788.797 1061.5,788.5C 1063.27,782.965 1065.6,777.632 1068.5,772.5C 1078.07,770.729 1087.74,769.563 1097.5,769C 1104.22,765.98 1110.55,762.48 1116.5,758.5 Z"/></g>
<g><path style="opacity:1" fill="#f4f5f5" d="M 828.5,787.5 C 832.311,786.355 836.311,786.188 840.5,787C 842.747,788.995 843.747,791.495 843.5,794.5C 837.448,794.268 832.448,791.934 828.5,787.5 Z"/></g>
<g><path style="opacity:1" fill="#a7b9e2" d="M 1161.5,908.5 C 1160.5,977.665 1160.17,1047 1160.5,1116.5C 1159.17,1047 1159.17,977.332 1160.5,907.5C 1161.11,907.624 1161.44,907.957 1161.5,908.5 Z"/></g>
<g><path style="opacity:1" fill="#0233ab" d="M 1160.5,1116.5 C 1160.17,1047 1160.5,977.665 1161.5,908.5C 1331.35,1001.88 1446.52,1140.88 1507,1325.5C 1556.13,1492.99 1546.46,1656.99 1478,1817.5C 1393.94,1999.9 1258.1,2126.73 1070.5,2198C 928.494,2247.47 784.827,2252.81 639.5,2214C 454.091,2158.21 312.591,2047.04 215,1880.5C 127.196,1721.54 102.529,1553.21 141,1375.5C 182.776,1206.01 272.943,1068.84 411.5,964C 439.999,943.19 469.832,924.357 501,907.5C 501.667,977.167 501.667,1046.83 501,1116.5C 387.13,1209.19 320.797,1328.86 302,1475.5C 287.785,1649.79 342.618,1797.95 466.5,1920C 599.221,2039.95 754.221,2084.95 931.5,2055C 1098.06,2018.69 1221.89,1925.85 1303,1776.5C 1368.97,1643.51 1379.63,1506.17 1335,1364.5C 1300.34,1265.05 1242.17,1182.39 1160.5,1116.5 Z"/></g>
<g><path style="opacity:1" fill="#adb1b4" d="M 1161.5,1188.5 C 1160.5,1200.99 1160.17,1213.66 1160.5,1226.5C 1159.17,1213.66 1159.17,1200.66 1160.5,1187.5C 1161.11,1187.62 1161.44,1187.96 1161.5,1188.5 Z"/></g>
<g><path style="opacity:1" fill="#121c26" d="M 1160.5,1226.5 C 1160.17,1213.66 1160.5,1200.99 1161.5,1188.5C 1275.3,1302.39 1322.8,1439.72 1304,1600.5C 1277.96,1753.77 1198.46,1869.94 1065.5,1949C 947.271,2013.47 823.271,2027.47 693.5,1991C 543.746,1941.91 439.912,1844.08 382,1697.5C 339.085,1576.21 343.085,1456.55 394,1338.5C 420.072,1281.35 455.739,1231.02 501,1187.5C 501.333,1231.17 501.667,1274.83 502,1318.5C 503.09,1337.12 506.924,1355.12 513.5,1372.5C 512.293,1374.45 510.627,1375.95 508.5,1377C 494.787,1383.18 481.787,1390.35 469.5,1398.5C 454.682,1458.68 449.516,1519.68 454,1581.5C 456.217,1599.92 460.217,1617.92 466,1635.5C 466.795,1637.9 467.962,1640.07 469.5,1642C 505.425,1666.54 541.592,1690.71 578,1714.5C 613.243,1689.76 648.076,1664.43 682.5,1638.5C 683.5,1577.84 683.833,1517.17 683.5,1456.5C 700.153,1455.46 716.819,1455.29 733.5,1456C 760.097,1457.96 779.93,1470.46 793,1493.5C 800.714,1508.15 806.547,1523.48 810.5,1539.5C 823.833,1539.5 837.167,1539.5 850.5,1539.5C 855.881,1517.16 865.381,1496.83 879,1478.5C 891.534,1464.98 907.034,1457.48 925.5,1456C 937.5,1455.33 949.5,1455.33 961.5,1456C 976.749,1479.16 991.749,1502.5 1006.5,1526C 1051.16,1519.95 1095.82,1513.62 1140.5,1507C 1141.42,1506.63 1142.25,1506.13 1143,1505.5C 1159.46,1457.27 1175.63,1408.94 1191.5,1360.5C 1181.6,1347.09 1171.1,1334.09 1160,1321.5C 1160.12,1313.19 1160.45,1304.85 1161,1296.5C 1177.29,1315.57 1193.45,1334.74 1209.5,1354C 1220.79,1355.29 1232.13,1355.79 1243.5,1355.5C 1223.42,1307.46 1195.76,1264.46 1160.5,1226.5 Z"/></g>
<g><path style="opacity:1" fill="#fafbfd" d="M 200.5,1321.5 C 210.161,1333.17 219.494,1345.17 228.5,1357.5C 238.819,1342.56 251.819,1339.73 267.5,1349C 276.654,1355.49 280.154,1364.32 278,1375.5C 274.017,1391.93 269.184,1408.1 263.5,1424C 261.833,1424.67 260.167,1424.67 258.5,1424C 232.5,1416 206.5,1408 180.5,1400C 178.59,1399.59 177.59,1398.43 177.5,1396.5C 178.841,1391.48 180.174,1386.48 181.5,1381.5C 192.738,1384.52 203.904,1387.86 215,1391.5C 218.26,1387.05 219.927,1382.05 220,1376.5C 211.285,1366.12 202.952,1355.45 195,1344.5C 195.719,1336.62 197.553,1328.95 200.5,1321.5 Z"/></g>
<g><path style="opacity:1" fill="#0b36ac" d="M 245.5,1362.5 C 257.924,1361.75 263.091,1367.42 261,1379.5C 258.805,1387.62 256.305,1395.62 253.5,1403.5C 246.808,1401.44 240.141,1399.27 233.5,1397C 232.422,1396.33 231.755,1395.33 231.5,1394C 233.666,1386.84 235.832,1379.67 238,1372.5C 240.01,1368.68 242.51,1365.34 245.5,1362.5 Z"/></g>
<g><path style="opacity:1" fill="#fdfdfd" d="M 409.5,1373.5 C 423.768,1378.42 438.101,1383.26 452.5,1388C 453.428,1388.39 454.095,1389.05 454.5,1390C 438.286,1454.59 432.786,1520.09 438,1586.5C 440.342,1608.06 445.508,1628.9 453.5,1649C 453.355,1649.77 453.022,1650.44 452.5,1651C 435.451,1655.35 418.451,1659.85 401.5,1664.5C 400.201,1663.91 399.368,1662.91 399,1661.5C 371.209,1564.3 374.709,1468.3 409.5,1373.5 Z"/></g>
<g><path style="opacity:1" fill="#fafbfd" d="M 175.5,1438.5 C 174.791,1437.6 173.791,1437.26 172.5,1437.5C 172.5,1436.17 172.5,1434.83 172.5,1433.5C 172.671,1428.8 173.171,1424.14 174,1419.5C 174.725,1418.94 175.558,1418.61 176.5,1418.5C 205.72,1423.37 235.053,1427.37 264.5,1430.5C 262.597,1446.19 260.43,1461.86 258,1477.5C 251.695,1493.85 239.861,1500.01 222.5,1496C 211.631,1493.13 204.798,1486.3 202,1475.5C 201.303,1464.11 201.803,1452.77 203.5,1441.5C 194.15,1440.63 184.817,1439.63 175.5,1438.5 Z"/></g>
<g><path style="opacity:1" fill="#fafbfd" d="M 1411.5,1497.5 C 1410.96,1497.56 1410.62,1497.89 1410.5,1498.5C 1416.8,1499.5 1423.13,1499.83 1429.5,1499.5C 1451.49,1500.38 1473.49,1500.71 1495.5,1500.5C 1495.5,1506.83 1495.5,1513.17 1495.5,1519.5C 1470.49,1519.67 1445.49,1519.33 1420.5,1518.5C 1420.5,1526.5 1420.5,1534.5 1420.5,1542.5C 1436.13,1543.75 1451.8,1544.58 1467.5,1545C 1477.01,1545.06 1485.51,1547.89 1493,1553.5C 1498.38,1561.55 1498.88,1569.89 1494.5,1578.5C 1489.54,1579.49 1484.54,1579.83 1479.5,1579.5C 1480.93,1576.3 1481.43,1572.97 1481,1569.5C 1479.89,1567.19 1478.06,1565.69 1475.5,1565C 1453.18,1563.53 1430.85,1562.03 1408.5,1560.5C 1407.43,1559.57 1406.1,1559.23 1404.5,1559.5C 1404.5,1550.17 1404.5,1540.83 1404.5,1531.5C 1404.67,1517.83 1404.5,1504.16 1404,1490.5C 1403.7,1487.29 1403.2,1484.13 1402.5,1481C 1416.88,1471.63 1431.55,1462.63 1446.5,1454C 1430.54,1450.11 1414.54,1446.27 1398.5,1442.5C 1396.3,1436.17 1394.97,1429.67 1394.5,1423C 1395.45,1422.52 1396.45,1422.35 1397.5,1422.5C 1391.98,1403.1 1386.14,1383.76 1380,1364.5C 1379.28,1362.89 1379.45,1361.39 1380.5,1360C 1384.36,1358.91 1388.19,1357.74 1392,1356.5C 1392.77,1356.64 1393.44,1356.98 1394,1357.5C 1398.35,1372.05 1403.18,1386.39 1408.5,1400.5C 1414.4,1398.42 1420.4,1396.75 1426.5,1395.5C 1423.97,1385.75 1421.14,1376.09 1418,1366.5C 1414.27,1347.58 1421.77,1336.08 1440.5,1332C 1454.69,1329.84 1464.52,1335.34 1470,1348.5C 1474.87,1363.44 1479.54,1378.44 1484,1393.5C 1484.78,1394.94 1484.61,1396.28 1483.5,1397.5C 1455.89,1406.15 1428.22,1414.65 1400.5,1423C 1423.72,1429.91 1447.05,1436.58 1470.5,1443C 1488.91,1447.25 1496.91,1458.75 1494.5,1477.5C 1488.55,1478.56 1482.55,1479.22 1476.5,1479.5C 1476.99,1474.3 1476.32,1469.3 1474.5,1464.5C 1471.45,1462.53 1468.12,1462.03 1464.5,1463C 1446.8,1474.51 1429.14,1486.01 1411.5,1497.5 Z"/></g>
<g><path style="opacity:1" fill="#0835ac" d="M 1442.5,1350.5 C 1447.86,1349.35 1452.02,1351.01 1455,1355.5C 1459.07,1364.88 1462.24,1374.55 1464.5,1384.5C 1456.43,1386.18 1448.43,1388.18 1440.5,1390.5C 1437.96,1380.89 1435.63,1371.22 1433.5,1361.5C 1433.92,1355.74 1436.92,1352.08 1442.5,1350.5 Z"/></g>
<g><path style="opacity:1" fill="#8298d5" d="M 172.5,1433.5 C 172.5,1434.83 172.5,1436.17 172.5,1437.5C 173.791,1437.26 174.791,1437.6 175.5,1438.5C 174.167,1438.5 172.833,1438.5 171.5,1438.5C 171.216,1436.59 171.549,1434.92 172.5,1433.5 Z"/></g>
<g><path style="opacity:1" fill="#0c36ac" d="M 219.5,1444.5 C 228.447,1445.92 237.447,1446.92 246.5,1447.5C 245.008,1454.76 243.841,1462.1 243,1469.5C 239.422,1476.82 233.589,1479.32 225.5,1477C 222.063,1475.9 219.563,1473.73 218,1470.5C 217.255,1461.76 217.755,1453.09 219.5,1444.5 Z"/></g>
<g><path style="opacity:1" fill="#fafbfd" d="M 201.5,1496.5 C 215.302,1494.96 228.302,1497.46 240.5,1504C 255.896,1516.18 261.396,1532.01 257,1551.5C 248.802,1574.03 232.635,1584.7 208.5,1583.5C 175.785,1581.61 160.619,1564.28 163,1531.5C 164.847,1519.34 171.014,1510.17 181.5,1504C 187.878,1500.38 194.545,1497.88 201.5,1496.5 Z"/></g>
<g><path style="opacity:1" fill="#3e5fbd" d="M 1411.5,1497.5 C 1417.5,1498.17 1423.5,1498.83 1429.5,1499.5C 1423.13,1499.83 1416.8,1499.5 1410.5,1498.5C 1410.62,1497.89 1410.96,1497.56 1411.5,1497.5 Z"/></g>
<g><path style="opacity:1" fill="#0534ab" d="M 202.5,1515.5 C 214.577,1514.51 225.577,1517.34 235.5,1524C 242.492,1533.22 243.326,1543.06 238,1553.5C 233.108,1559.2 226.941,1562.7 219.5,1564C 205.15,1567.54 192.983,1564.04 183,1553.5C 175.444,1533.61 181.944,1520.94 202.5,1515.5 Z"/></g>
<g><path style="opacity:1" fill="#fefefe" d="M 1136.5,1524.5 C 1139.9,1524.18 1143.23,1524.51 1146.5,1525.5C 1165.17,1564.83 1183.83,1604.17 1202.5,1643.5C 1177.01,1701.87 1143.51,1754.87 1102,1802.5C 1088.2,1816.47 1073.04,1828.63 1056.5,1839C 1012.2,1836.53 967.864,1834.37 923.5,1832.5C 912.682,1795.52 901.849,1758.52 891,1721.5C 889.347,1716.23 888.347,1710.9 888,1705.5C 928.5,1651.67 969,1597.83 1009.5,1544C 1052,1537.62 1094.33,1531.12 1136.5,1524.5 Z"/></g>
<g><path style="opacity:1" fill="#899ed8" d="M 1404.5,1531.5 C 1404.5,1540.83 1404.5,1550.17 1404.5,1559.5C 1406.1,1559.23 1407.43,1559.57 1408.5,1560.5C 1406.83,1560.5 1405.17,1560.5 1403.5,1560.5C 1403.17,1550.65 1403.51,1540.99 1404.5,1531.5 Z"/></g>
<g><path style="opacity:1" fill="#fafbfd" d="M 1482.5,1644.5 C 1483.21,1645.4 1484.21,1645.74 1485.5,1645.5C 1485.5,1646.83 1485.5,1648.17 1485.5,1649.5C 1485.33,1654.18 1485,1658.85 1484.5,1663.5C 1454.5,1660.11 1424.5,1656.77 1394.5,1653.5C 1394.65,1647.15 1394.99,1640.82 1395.5,1634.5C 1407.91,1635.43 1420.24,1636.59 1432.5,1638C 1421.88,1625.26 1411.38,1612.43 1401,1599.5C 1401.24,1591.47 1402.07,1583.47 1403.5,1575.5C 1414.8,1588.76 1425.64,1602.43 1436,1616.5C 1454.59,1605.45 1473.42,1594.79 1492.5,1584.5C 1492.88,1592.14 1492.38,1599.8 1491,1607.5C 1476.75,1615.37 1462.59,1623.37 1448.5,1631.5C 1450.45,1634.79 1452.78,1637.79 1455.5,1640.5C 1464.44,1642.24 1473.44,1643.58 1482.5,1644.5 Z"/></g>
<g><path style="opacity:1" fill="#fafafd" d="M 209.5,1588.5 C 229.125,1584.77 245.625,1590.1 259,1604.5C 266.482,1616.59 268.482,1629.59 265,1643.5C 261.346,1655.15 253.68,1662.82 242,1666.5C 241.055,1666.09 240.388,1665.43 240,1664.5C 239.213,1659.49 238.38,1654.49 237.5,1649.5C 241.044,1646.46 244.544,1643.13 248,1639.5C 253.206,1624.75 248.706,1614.25 234.5,1608C 224.715,1607.02 215.049,1607.69 205.5,1610C 188.41,1616.35 183.577,1627.85 191,1644.5C 195.613,1649.76 201.446,1652.43 208.5,1652.5C 209.26,1658.49 209.927,1664.49 210.5,1670.5C 193.335,1670.85 181.168,1663.18 174,1647.5C 165.816,1615.88 177.649,1596.21 209.5,1588.5 Z"/></g>
<g><path style="opacity:1" fill="#99acdd" d="M 1482.5,1644.5 C 1483.83,1644.5 1485.17,1644.5 1486.5,1644.5C 1486.78,1646.41 1486.45,1648.08 1485.5,1649.5C 1485.5,1648.17 1485.5,1646.83 1485.5,1645.5C 1484.21,1645.74 1483.21,1645.4 1482.5,1644.5 Z"/></g>
<g><path style="opacity:1" fill="#fdfdfd" d="M 1218.5,1646.5 C 1233.42,1650.7 1248.09,1655.7 1262.5,1661.5C 1232.34,1757.61 1177.01,1835.61 1096.5,1895.5C 1085.84,1882.67 1075.34,1869.67 1065,1856.5C 1064.33,1855.5 1064.33,1854.5 1065,1853.5C 1096.92,1831.58 1124.25,1804.92 1147,1773.5C 1175.44,1733.96 1199.28,1691.63 1218.5,1646.5 Z"/></g>
<g><path style="opacity:1" fill="#fefefe" d="M 691.5,1651.5 C 751.577,1671.69 811.577,1692.19 871.5,1713C 883.69,1754.6 894.857,1796.43 905,1838.5C 869.94,1865.9 834.607,1892.9 799,1919.5C 740.491,1899.72 681.991,1880.05 623.5,1860.5C 611.821,1816.95 599.821,1773.45 587.5,1730C 621.961,1703.6 656.628,1677.43 691.5,1651.5 Z"/></g>
<g><path style="opacity:1" fill="#fafbfd" d="M 270.5,1676.5 C 271.833,1676.5 273.167,1676.5 274.5,1676.5C 279.35,1694.55 284.516,1712.55 290,1730.5C 290.72,1732.11 290.554,1733.61 289.5,1735C 261.157,1743.33 232.824,1751.5 204.5,1759.5C 203.914,1759.29 203.414,1758.96 203,1758.5C 201.578,1753.31 200.078,1748.14 198.5,1743C 199.093,1741.12 200.427,1740.12 202.5,1740C 225.042,1733.2 247.708,1727.03 270.5,1721.5C 268.694,1713.25 266.194,1705.25 263,1697.5C 246.562,1701.79 230.062,1705.96 213.5,1710C 191.537,1714.35 181.037,1705.52 182,1683.5C 186.687,1681.66 191.52,1680.33 196.5,1679.5C 196.263,1683.27 196.763,1686.94 198,1690.5C 199.907,1691.93 202.074,1692.6 204.5,1692.5C 226.563,1686.82 248.563,1681.48 270.5,1676.5 Z"/></g>
<g><path style="opacity:1" fill="#fbfbfd" d="M 1363.5,1747.5 C 1364.87,1747.34 1366.21,1747.51 1367.5,1748C 1394.2,1760.01 1420.87,1772.01 1447.5,1784C 1445.03,1789.43 1442.2,1794.6 1439,1799.5C 1420.75,1791.45 1402.58,1783.61 1384.5,1776C 1397.67,1794.5 1410.83,1813 1424,1831.5C 1423.22,1838.41 1420.72,1844.75 1416.5,1850.5C 1391.62,1839.05 1366.62,1828.22 1341.5,1818C 1363.67,1833.5 1385.83,1849 1408,1864.5C 1405.62,1870.41 1402.12,1875.75 1397.5,1880.5C 1372.66,1863.25 1347.99,1845.75 1323.5,1828C 1327,1823.17 1330.5,1818.33 1334,1813.5C 1336.61,1807.94 1339.44,1802.61 1342.5,1797.5C 1360.67,1806.05 1379.01,1813.88 1397.5,1821C 1384.12,1802.41 1370.62,1783.91 1357,1765.5C 1356.33,1764.5 1356.33,1763.5 1357,1762.5C 1359.46,1757.6 1361.63,1752.6 1363.5,1747.5 Z"/></g>
<g><path style="opacity:1" fill="#a6b7e2" d="M 1333.5,1754.5 C 1337.3,1753.52 1341.3,1753.18 1345.5,1753.5C 1345.5,1754.83 1345.5,1756.17 1345.5,1757.5C 1344.6,1756.79 1344.26,1755.79 1344.5,1754.5C 1340.83,1754.5 1337.17,1754.5 1333.5,1754.5 Z"/></g>
<g><path style="opacity:1" fill="#f8f9fc" d="M 1333.5,1754.5 C 1337.17,1754.5 1340.83,1754.5 1344.5,1754.5C 1344.26,1755.79 1344.6,1756.79 1345.5,1757.5C 1346.86,1764.48 1347.2,1771.48 1346.5,1778.5C 1340.4,1782.63 1334.24,1786.63 1328,1790.5C 1325.08,1788.24 1322.91,1785.41 1321.5,1782C 1324.97,1778.2 1328.8,1774.7 1333,1771.5C 1333.5,1765.84 1333.67,1760.18 1333.5,1754.5 Z"/></g>
<g><path style="opacity:1" fill="#fafbfd" d="M 294.5,1764.5 C 298.226,1764.18 301.893,1764.51 305.5,1765.5C 308.328,1771.84 310.828,1778.17 313,1784.5C 290,1806.17 267,1827.83 244,1849.5C 241.046,1843.76 238.213,1837.93 235.5,1832C 240.167,1827.33 244.833,1822.67 249.5,1818C 245.551,1808.15 241.217,1798.48 236.5,1789C 230.115,1788.21 223.782,1788.37 217.5,1789.5C 213.973,1783.78 210.973,1777.78 208.5,1771.5C 237.295,1768.93 265.962,1766.59 294.5,1764.5 Z"/></g>
<g><path style="opacity:1" fill="#0c37ac" d="M 286.5,1782.5 C 287.552,1782.35 288.552,1782.52 289.5,1783C 280.352,1790.65 271.352,1798.48 262.5,1806.5C 258.673,1799.85 255.673,1792.85 253.5,1785.5C 264.72,1785.34 275.72,1784.34 286.5,1782.5 Z"/></g>
<g><path style="opacity:1" fill="#fbfbfd" d="M 326.5,1812.5 C 327.496,1812.41 328.329,1812.75 329,1813.5C 338.836,1828.5 348.169,1843.83 357,1859.5C 359.595,1876.89 352.261,1886.89 335,1889.5C 331.615,1889.64 328.615,1888.64 326,1886.5C 326.767,1894.64 324.267,1901.47 318.5,1907C 304.235,1917.9 291.069,1916.74 279,1903.5C 269.334,1889.51 260.168,1875.17 251.5,1860.5C 276.698,1844.74 301.698,1828.74 326.5,1812.5 Z"/></g>
<g><path style="opacity:1" fill="#0e36ac" d="M 322.5,1836.5 C 323.822,1836.33 324.989,1836.66 326,1837.5C 330.667,1845.5 335.333,1853.5 340,1861.5C 340.811,1867.38 338.311,1871.21 332.5,1873C 330.029,1873.71 327.695,1873.37 325.5,1872C 318.343,1864.69 312.677,1856.36 308.5,1847C 312.962,1843.26 317.628,1839.76 322.5,1836.5 Z"/></g>
<g><path style="opacity:1" fill="#0935ac" d="M 293.5,1854.5 C 298.447,1860.35 302.947,1866.68 307,1873.5C 314.385,1885.74 311.052,1893.07 297,1895.5C 293.72,1894.02 290.72,1892.02 288,1889.5C 283.302,1882.3 278.802,1874.97 274.5,1867.5C 281.073,1863.39 287.406,1859.06 293.5,1854.5 Z"/></g>
<g><path style="opacity:1" fill="#fbfbfd" d="M 1344.5,1869.5 C 1361.1,1867.97 1372.93,1874.63 1380,1889.5C 1381.72,1898.21 1380.05,1906.21 1375,1913.5C 1367,1925 1358.83,1936.33 1350.5,1947.5C 1325.53,1930.52 1300.87,1913.19 1276.5,1895.5C 1279.92,1890.32 1283.59,1885.32 1287.5,1880.5C 1297.17,1887.17 1306.83,1893.83 1316.5,1900.5C 1321.91,1893.34 1327.08,1886.01 1332,1878.5C 1335.79,1874.86 1339.96,1871.86 1344.5,1869.5 Z"/></g>
<g><path style="opacity:1" fill="#fdfdfd" d="M 812.5,1979.5 C 812.5,1980.5 812.5,1981.5 812.5,1982.5C 809.833,1982.5 807.167,1982.5 804.5,1982.5C 721.009,1977.56 645.009,1951.4 576.5,1904C 587.833,1894 599.167,1884 610.5,1874C 674.786,1895.1 739.119,1916.43 803.5,1938C 807.071,1951.69 810.071,1965.52 812.5,1979.5 Z"/></g>
<g><path style="opacity:1" fill="#0935ac" d="M 1346.5,1887.5 C 1360.53,1888 1365.03,1894.66 1360,1907.5C 1356.75,1911.66 1353.75,1915.99 1351,1920.5C 1350.26,1921.57 1349.26,1922.24 1348,1922.5C 1341.43,1918.13 1334.93,1913.63 1328.5,1909C 1333.7,1901.07 1339.7,1893.91 1346.5,1887.5 Z"/></g>
<g><path style="opacity:1" fill="#fafbfd" d="M 357.5,1888.5 C 381.206,1887.7 397.373,1898.37 406,1920.5C 409.036,1933.28 406.036,1944.28 397,1953.5C 392.277,1949.28 388.11,1944.61 384.5,1939.5C 392.284,1923.89 387.951,1913.06 371.5,1907C 367.074,1906.21 362.741,1906.54 358.5,1908C 346.723,1913.44 337.889,1921.94 332,1933.5C 328.28,1946.89 332.78,1956.39 345.5,1962C 351.346,1962.37 357.012,1961.71 362.5,1960C 366.18,1964.34 369.847,1968.68 373.5,1973C 354.173,1985.04 337.006,1982.2 322,1964.5C 309.061,1946.62 309.394,1928.96 323,1911.5C 332.572,1900.73 344.072,1893.06 357.5,1888.5 Z"/></g>
<g><path style="opacity:1" fill="#fbfbfd" d="M 1271.5,1901.5 C 1294.24,1921.4 1316.58,1941.9 1338.5,1963C 1334.69,1967.98 1330.35,1972.48 1325.5,1976.5C 1315.71,1968.22 1306.38,1959.38 1297.5,1950C 1294.22,1951.24 1291.39,1953.4 1289,1956.5C 1283.31,1962.69 1277.81,1969.02 1272.5,1975.5C 1281.99,1984.82 1291.66,1993.99 1301.5,2003C 1297.69,2007.98 1293.35,2012.48 1288.5,2016.5C 1266.35,1996.18 1244.35,1975.68 1222.5,1955C 1226.31,1950.35 1230.31,1945.85 1234.5,1941.5C 1242.98,1948.81 1251.32,1956.31 1259.5,1964C 1260.45,1964.62 1261.28,1964.45 1262,1963.5C 1269.05,1955.22 1276.22,1947.05 1283.5,1939C 1276.18,1930.35 1268.18,1922.35 1259.5,1915C 1264.08,1910.93 1268.08,1906.43 1271.5,1901.5 Z"/></g>
<g><path style="opacity:1" fill="#fafbfd" d="M 421.5,1937.5 C 426.774,1941.1 431.441,1945.44 435.5,1950.5C 428.187,1959.61 420.521,1968.45 412.5,1977C 428.679,1976.35 444.845,1975.18 461,1973.5C 461.833,1973.67 462.667,1973.83 463.5,1974C 468.865,1979.7 474.531,1985.03 480.5,1990C 463.181,1991.2 445.848,1992.03 428.5,1992.5C 426,2014.5 423.5,2036.5 421,2058.5C 415.333,2053.5 409.667,2048.5 404,2043.5C 404.811,2027.12 406.311,2010.79 408.5,1994.5C 404.154,1994.33 399.821,1994.5 395.5,1995C 389.361,2002.97 382.695,2010.47 375.5,2017.5C 370.387,2013.89 365.72,2009.72 361.5,2005C 382.079,1982.93 402.079,1960.43 421.5,1937.5 Z"/></g>
<g><path style="opacity:1" fill="#787d83" d="M 812.5,1979.5 C 813.434,1980.57 813.768,1981.9 813.5,1983.5C 810.287,1983.81 807.287,1983.48 804.5,1982.5C 807.167,1982.5 809.833,1982.5 812.5,1982.5C 812.5,1981.5 812.5,1980.5 812.5,1979.5 Z"/></g>
<g><path style="opacity:1" fill="#fbfbfd" d="M 1179.5,1988.5 C 1181.9,1988.39 1183.74,1989.39 1185,1991.5C 1191.04,1999.58 1197.54,2007.24 1204.5,2014.5C 1213.15,2007.51 1222.15,2001.01 1231.5,1995C 1248.83,1991.95 1260.66,1998.78 1267,2015.5C 1268.28,2022.54 1267.28,2029.21 1264,2035.5C 1260.17,2040.67 1255.67,2045.17 1250.5,2049C 1241.88,2055.29 1233.54,2061.95 1225.5,2069C 1224.5,2069.67 1223.5,2069.67 1222.5,2069C 1204.21,2045.71 1185.55,2022.71 1166.5,2000C 1171.03,1996.3 1175.36,1992.47 1179.5,1988.5 Z"/></g>
<g><path style="opacity:1" fill="#fbfbfd" d="M 483.5,1993.5 C 489.284,1995.6 494.617,1998.6 499.5,2002.5C 488.873,2019.59 477.873,2036.42 466.5,2053C 487.736,2043.3 508.903,2033.13 530,2022.5C 535.448,2025.62 540.615,2029.12 545.5,2033C 529.546,2058.41 513.213,2083.57 496.5,2108.5C 491.291,2105.4 486.291,2102.07 481.5,2098.5C 492.904,2081.65 503.737,2064.65 514,2047.5C 493,2058.17 472,2068.83 451,2079.5C 445.294,2076.25 440.127,2072.41 435.5,2068C 451.708,2043.29 467.708,2018.46 483.5,1993.5 Z"/></g>
<g><path style="opacity:1" fill="#fafbfd" d="M 1157.5,2003.5 C 1174.5,2028.52 1191.17,2053.86 1207.5,2079.5C 1202.57,2083.21 1197.41,2086.55 1192,2089.5C 1178.3,2069.46 1164.97,2049.12 1152,2028.5C 1150.49,2027.47 1148.99,2027.63 1147.5,2029C 1141.66,2032.75 1135.99,2036.75 1130.5,2041C 1141.82,2057.8 1151.98,2075.3 1161,2093.5C 1164.52,2109.35 1158.19,2119.02 1142,2122.5C 1138.5,2118.7 1135.33,2114.53 1132.5,2110C 1140,2109.51 1143.5,2105.68 1143,2098.5C 1130.71,2078.08 1118.54,2057.58 1106.5,2037C 1123.68,2025.97 1140.68,2014.8 1157.5,2003.5 Z"/></g>
<g><path style="opacity:1" fill="#0b36ac" d="M 1233.5,2011.5 C 1242.15,2011.31 1247.48,2015.47 1249.5,2024C 1249.01,2026.82 1247.84,2029.32 1246,2031.5C 1240.6,2036.74 1234.77,2041.4 1228.5,2045.5C 1223.31,2039.48 1218.31,2033.31 1213.5,2027C 1220.07,2021.59 1226.73,2016.42 1233.5,2011.5 Z"/></g>
<g><path style="opacity:1" fill="#f6f7fc" d="M 578.5,2023.5 C 583.035,2026.03 586.702,2029.7 589.5,2034.5C 595.463,2035.5 601.463,2035.83 607.5,2035.5C 607.833,2039.5 608.167,2043.5 608.5,2047.5C 601.319,2047.96 594.152,2048.62 587,2049.5C 585.833,2049.17 584.667,2048.83 583.5,2048.5C 579.25,2042.34 575.25,2036 571.5,2029.5C 573.878,2027.45 576.211,2025.45 578.5,2023.5 Z"/></g>
<g><path style="opacity:1" fill="#fbfbfd" d="M 549.5,2036.5 C 555.527,2038.35 561.194,2041.01 566.5,2044.5C 557.463,2062.37 549.463,2080.37 542.5,2098.5C 561.029,2085.47 579.696,2072.64 598.5,2060C 604.935,2061.21 610.935,2063.71 616.5,2067.5C 604.03,2095.11 591.03,2122.44 577.5,2149.5C 572.147,2147.16 567.147,2144.33 562.5,2141C 570.866,2122.78 579.032,2104.61 587,2086.5C 567.637,2100.03 548.137,2113.36 528.5,2126.5C 523.953,2124.06 519.287,2121.89 514.5,2120C 513.426,2119.26 512.759,2118.26 512.5,2117C 524.711,2090.08 537.044,2063.25 549.5,2036.5 Z"/></g>
<g><path style="opacity:1" fill="#fafbfd" d="M 1064.5,2055.5 C 1085.76,2053.71 1101.59,2062.05 1112,2080.5C 1122.58,2099.36 1121.91,2117.69 1110,2135.5C 1097.85,2147.22 1083.35,2152.38 1066.5,2151C 1054.07,2147.24 1044.57,2139.74 1038,2128.5C 1019.09,2093.7 1027.93,2069.36 1064.5,2055.5 Z"/></g>
<g><path style="opacity:1" fill="#0434ab" d="M 1065.5,2072.5 C 1075.95,2071.64 1084.45,2075.31 1091,2083.5C 1100.78,2095.73 1102.78,2109.07 1097,2123.5C 1083.33,2137.14 1070,2136.8 1057,2122.5C 1048.27,2110.92 1045.93,2098.25 1050,2084.5C 1054.02,2078.92 1059.19,2074.92 1065.5,2072.5 Z"/></g>
<g><path style="opacity:1" fill="#fbfbfd" d="M 1002.5,2080.5 C 1003.98,2080.24 1005.31,2080.57 1006.5,2081.5C 1008.45,2086 1009.78,2090.67 1010.5,2095.5C 995.404,2099.2 980.738,2103.87 966.5,2109.5C 968.481,2115.42 970.148,2121.42 971.5,2127.5C 981.791,2124.57 992.124,2121.74 1002.5,2119C 1022.94,2117.1 1033.94,2126.43 1035.5,2147C 1035.44,2157.46 1030.77,2165.12 1021.5,2170C 1004.35,2175.88 987.017,2181.05 969.5,2185.5C 961.133,2156.9 952.467,2128.4 943.5,2100C 963.194,2093.38 982.861,2086.88 1002.5,2080.5 Z"/></g>
<g><path style="opacity:1" fill="#fafafd" d="M 933.5,2097.5 C 935.5,2097.5 937.5,2097.5 939.5,2097.5C 940.395,2102.53 940.395,2107.53 939.5,2112.5C 930.941,2114.48 922.274,2115.81 913.5,2116.5C 917.394,2141.42 920.727,2166.42 923.5,2191.5C 917.176,2192.25 910.843,2192.92 904.5,2193.5C 901.237,2168.86 898.237,2144.19 895.5,2119.5C 886.223,2120.33 877.056,2121.66 868,2123.5C 867.751,2122.38 867.251,2121.38 866.5,2120.5C 857.685,2143.78 848.185,2166.78 838,2189.5C 830.31,2200.25 820.144,2203.41 807.5,2199C 806.525,2193.26 806.192,2187.43 806.5,2181.5C 811.588,2182.87 816.588,2182.7 821.5,2181C 824.394,2178.09 825.227,2174.59 824,2170.5C 812.956,2149.75 802.456,2128.75 792.5,2107.5C 799.755,2107.19 806.921,2107.52 814,2108.5C 821,2124.17 828,2139.83 835,2155.5C 840.304,2139.25 845.804,2123.09 851.5,2107C 863.294,2106.36 874.96,2105.7 886.5,2105C 902.311,2102.43 917.977,2099.93 933.5,2097.5 Z"/></g>
<g><path style="opacity:1" fill="#fafbfd" d="M 743.5,2100.5 C 749.516,2101.04 755.516,2101.7 761.5,2102.5C 761.384,2105.86 761.051,2109.19 760.5,2112.5C 785.794,2115.75 797.294,2130.09 795,2155.5C 790.819,2171.35 780.652,2180.52 764.5,2183C 759.511,2183.5 754.511,2183.67 749.5,2183.5C 749.5,2186.5 749.5,2189.5 749.5,2192.5C 743.768,2192.27 738.101,2191.6 732.5,2190.5C 731.513,2187.23 731.18,2183.9 731.5,2180.5C 707.851,2175.86 696.684,2161.53 698,2137.5C 704.831,2115.66 719.664,2106.33 742.5,2109.5C 742.963,2106.52 743.296,2103.52 743.5,2100.5 Z"/></g>
<g><path style="opacity:1" fill="#0d36ac" d="M 730.5,2122.5 C 733.833,2122.5 737.167,2122.5 740.5,2122.5C 738.261,2137.51 735.927,2152.51 733.5,2167.5C 722.005,2164.67 716.005,2157.34 715.5,2145.5C 716.193,2134.84 721.193,2127.18 730.5,2122.5 Z"/></g>
<g><path style="opacity:1" fill="#1237ad" d="M 758.5,2126.5 C 768.684,2126.52 774.851,2131.52 777,2141.5C 778.678,2159.65 770.512,2169.31 752.5,2170.5C 754.221,2155.79 756.221,2141.12 758.5,2126.5 Z"/></g>
<g><path style="opacity:1" fill="#0935ac" d="M 999.5,2134.5 C 1012.18,2133.18 1017.68,2138.84 1016,2151.5C 1013.78,2154.37 1010.95,2156.54 1007.5,2158C 999.735,2160.2 992.068,2162.7 984.5,2165.5C 981.221,2157.73 978.555,2149.73 976.5,2141.5C 984.458,2139.73 992.124,2137.4 999.5,2134.5 Z"/></g>
</svg>
