<?xml version="1.0" encoding="UTF-8" standalone="no"?>
<svg
   xmlns:dc="http://purl.org/dc/elements/1.1/"
   xmlns:cc="http://creativecommons.org/ns#"
   xmlns:rdf="http://www.w3.org/1999/02/22-rdf-syntax-ns#"
   xmlns:svg="http://www.w3.org/2000/svg"
   xmlns="http://www.w3.org/2000/svg"
   xmlns:sodipodi="http://sodipodi.sourceforge.net/DTD/sodipodi-0.dtd"
   xmlns:inkscape="http://www.inkscape.org/namespaces/inkscape"
   inkscape:version="1.0 (4035a4fb49, 2020-05-01)"
   sodipodi:docname="702.svg"
   id="svg130"
   version="1.1"
   fill="none"
   viewBox="0 0 245.47955 300.0762"
   height="300.0762"
   width="245.47955">
  <metadata
     id="metadata136">
    <rdf:RDF>
      <cc:Work
         rdf:about="">
        <dc:format>image/svg+xml</dc:format>
        <dc:type
           rdf:resource="http://purl.org/dc/dcmitype/StillImage" />
      </cc:Work>
    </rdf:RDF>
  </metadata>
  <defs
     id="defs134" />
  <sodipodi:namedview
     inkscape:current-layer="svg130"
     inkscape:window-maximized="1"
     inkscape:window-y="-8"
     inkscape:window-x="-8"
     inkscape:cy="130.54756"
     inkscape:cx="123.03828"
     inkscape:zoom="2.4285714"
     showgrid="false"
     id="namedview132"
     inkscape:window-height="1017"
     inkscape:window-width="1920"
     inkscape:pageshadow="2"
     inkscape:pageopacity="0"
     guidetolerance="10"
     gridtolerance="10"
     objecttolerance="10"
     borderopacity="1"
     bordercolor="#666666"
     pagecolor="#ffffff" />
  <path
     id="path2"
     fill="#ffffff"
     d="m 201.95528,23.661954 -9.213,-10.7222 c 0,0 -36.158,-12.54549959 -70.002,-12.90169959 C 88.897277,0.39425441 52.736277,12.939754 52.736277,12.939754 l -9.2122,10.7222 -43.48579981,21.8142 C 1.0658772,153.09205 19.042377,241.11205 117.25828,297.03205 c 0.57,0.325 5.275,2.997 5.464,3.006 0.266,0.012 4.998,-2.72 5.627,-3.078 97.998,-55.838 116.054,-142.979 117.092,-251.483896 z" />
  <path
     id="path4"
     stroke-miterlimit="22.9256"
     stroke-width="0.0761046"
     stroke="#2b2b2a"
     d="m 201.95528,23.661954 -9.213,-10.7222 c 0,0 -36.158,-12.54549959 -70.002,-12.90169959 C 88.897277,0.39425441 52.736277,12.939754 52.736277,12.939754 l -9.2122,10.7222 -43.48579981,21.8142 C 1.0658772,153.09205 19.042377,241.11205 117.25828,297.03205 c 0.57,0.325 5.275,2.997 5.464,3.006 0.266,0.012 4.998,-2.72 5.627,-3.078 97.998,-55.838 116.054,-142.979 117.092,-251.483896 z" />
  <path
     id="path6"
     fill="#00904f"
     d="m 196.68028,33.230454 -8.53,-9.9281 c 0,0 -33.482,-11.6168 -64.818,-11.9474 -31.337003,0.3306 -64.819003,11.9474 -64.819003,11.9474 l -8.53,9.9281 -40.2633998,20.1987 c 0,0 1.0326998,108.121896 26.9563998,151.235896 10.5135,17.485 23.632,36.053 39.155,50.325 22.019,20.246 45.911003,33.317 47.424003,34.137 -0.037,-0.034 -0.051,-0.086 0.077,-0.159 0.127,0.072 0.113,0.125 0.076,0.159 1.512,-0.82 25.406,-13.891 47.425,-34.137 15.52,-14.272 28.639,-32.84 39.154,-50.325 25.924,-43.114 26.957,-151.235896 26.957,-151.235896 z" />
  <path
     id="path8"
     fill="#ffffff"
     d="m 122.73928,64.325154 c -44.218003,0 -80.064303,35.964896 -80.064303,80.330896 0,44.365 35.8463,80.33 80.064303,80.33 44.218,0 80.065,-35.965 80.065,-80.33 0,-44.366 -35.846,-80.330896 -80.065,-80.330896 z m 0,157.448896 c -42.450003,0 -76.862703,-34.527 -76.862703,-77.118 0,-42.592 34.4127,-77.116996 76.862703,-77.116996 42.449,0 76.862,34.524996 76.862,77.116996 0,42.591 -34.413,77.118 -76.862,77.118 z" />
  <path
     id="path10"
     fill="#ffffff"
     d="m 78.680277,199.62705 c 0,0 5.188,4.223 15.469,3.137 10.281003,-1.083 18.498003,-7.588 26.104003,-8.445 7.606,-0.856 11.561,0.513 17.715,5.136 6.153,4.622 7.718,6.145 12.852,5.763 6.893,-0.513 15.981,-5.535 15.981,-5.535 0,0 -6.609,7.018 -14.901,8.959 -5.705,1.336 -8.94,-0.685 -12.397,-3.594 -3.456,-2.909 -9.91,-7.817 -17.402,-6.447 -7.492,1.369 -8.944,2.168 -12.199,3.652 -3.254,1.483 -11.135003,4.564 -16.661003,4.622 -5.529,0.058 -8.35,-1.541 -9.726,-2.683 -1.376,-1.141 -4.834,-4.563 -4.834,-4.563 z"
     clip-rule="evenodd"
     fill-rule="evenodd" />
  <path
     id="path12"
     fill="#ffffff"
     d="m 94.772277,212.63605 5.858003,2.739 c 0,0 5.359,-1.769 7.336,-2.795 1.977,-1.027 9,-4.279 14.189,-4.393 5.189,-0.114 8.346,0.799 11.432,2.624 3.083,1.827 8.19,6.106 8.19,6.106 l 4.946,-1.712 c 0,0 -5.586,-3.823 -8.529,-6.048 -2.944,-2.226 -9.284,-5.876 -15.297,-5.307 -6.014,0.571 -8.147,1.256 -11.345,2.51 -3.199,1.256 -7.153,3.424 -9.271,4.279 -2.116,0.856 -7.507003,1.997 -7.507003,1.997 z"
     clip-rule="evenodd"
     fill-rule="evenodd" />
  <path
     id="path14"
     fill="#ffffff"
     d="m 107.17028,217.88705 6.768,1.426 c 0,0 5.928,-2.725 10.208,-2.682 5.7,0.058 9.214,2.909 9.214,2.909 l 4.89,-1.255 c 0,0 -6.784,-5.705 -15.47,-5.306 -8.686,0.399 -15.61,4.908 -15.61,4.908 z"
     clip-rule="evenodd"
     fill-rule="evenodd" />
  <path
     id="path16"
     fill="#ffffff"
     d="m 163.85728,236.20205 c 0,0 -2.208,1.541 -3.923,1.769 -1.716,0.229 -7.336,-0.399 -7.336,-0.399 0,0 -3.173,-2.169 -6.539,-2.339 -2.238,-0.114 -7.437,-1.427 -12.854,2.339 -5.415,3.767 -0.056,10.442 -0.056,10.442 l -4.664,-0.171 c 0,0 0.411,-1.883 0.172,-4.337 -0.242,-2.454 -2.957,-2.795 -2.957,-2.795 0,0 0.127,-0.398 -0.114,-2.281 -0.241,-1.883 -2.845,-2.625 -2.845,-2.625 0,0 -2.604,0.742 -2.845,2.625 -0.241,1.883 -0.114,2.281 -0.114,2.281 0,0 -2.716,0.343 -2.957,2.795 -0.241,2.454 0.172,4.337 0.172,4.337 l -4.664,0.171 c 0,0 5.358,-6.675 -0.056,-10.442 -5.415,-3.766 -10.614,-2.453 -12.853003,-2.339 -3.366,0.17 -6.54,2.339 -6.54,2.339 0,0 -5.619,0.628 -7.336,0.399 -1.717,-0.226 -3.924,-1.769 -3.924,-1.769 0,0 -0.103,4.051 2.786,6.162 2.889,2.112 4.435,2.224 4.435,2.224 0,0 1.263,2.683 1.99,3.766 0.729,1.084 2.56,2.34 2.56,2.34 0,0 -1.182,-8.445 3.981,-10.271 5.163003,-1.826 12.134003,0.624 10.181003,6.962 -0.777,2.515 -4.472,2.871 -5.66,1.055 -1.184,-1.812 0.085,-5.05 0.085,-5.05 0,0 -8.062003,1.711 -5.005003,9.586 3.059003,7.873 10.534003,3.822 11.431003,3.139 0.898,-0.685 4.278,-2.17 6.199,-2.682 1.921,-0.515 4.151,-0.399 4.151,-0.399 l -1.535,1.484 c 0,0 -5.009,0.021 -7.28,2.796 -4.904,5.992 -0.967,9.244 -0.967,9.244 0,0 1.208,-5.421 6.883,-6.106 5.673,-0.685 5.188,2.225 5.231,3.652 0.042,1.426 -0.42,4.718 -5.289,3.936 -1.775,-0.286 -3.754,-2.967 -3.754,-2.967 0,0 -1.182,5.535 1.762,7.931 2.945,2.396 5.005,2.054 5.005,2.054 0,0 0.583,2.339 1.422,3.594 0.839,1.255 2.503,2.738 2.503,2.738 0,0 1.665,-1.484 2.504,-2.738 0.839,-1.256 1.421,-3.594 1.421,-3.594 0,0 2.061,0.342 5.006,-2.054 2.943,-2.396 1.761,-7.931 1.761,-7.931 0,0 -1.977,2.683 -3.754,2.967 -4.869,0.782 -5.331,-2.512 -5.287,-3.936 0.043,-1.427 -0.442,-4.337 5.231,-3.652 5.673,0.685 6.881,6.106 6.881,6.106 0,0 3.937,-3.254 -0.967,-9.244 -2.27,-2.774 -7.279,-2.796 -7.279,-2.796 l -1.536,-1.484 c 0,0 2.232,-0.114 4.151,0.399 1.921,0.512 5.303,1.997 6.2,2.682 0.897,0.685 8.372,4.736 11.43,-3.139 3.059,-7.875 -5.005,-9.586 -5.005,-9.586 0,0 1.269,3.238 0.087,5.05 -1.188,1.816 -4.883,1.46 -5.66,-1.055 -1.953,-6.338 5.018,-8.787 10.181,-6.962 5.163,1.826 3.981,10.271 3.981,10.271 0,0 1.831,-1.256 2.56,-2.34 0.728,-1.083 1.99,-3.766 1.99,-3.766 0,0 1.546,-0.114 4.437,-2.224 2.889,-2.111 2.785,-6.162 2.785,-6.162 z"
     clip-rule="evenodd"
     fill-rule="evenodd" />
  <path
     id="path18"
     fill="#ffffff"
     d="m 122.73928,98.494054 c -19.348,0 -35.033003,15.735996 -35.033003,35.146996 0,19.413 15.685003,35.149 35.033003,35.149 19.347,0 35.032,-15.736 35.032,-35.149 0,-19.411 -15.685,-35.146996 -35.032,-35.146996 z m 18.667,10.241996 c 2.193,1.714 4.975,4.764 4.975,4.764 0,0 0.854,3.31 0.826,5.992 -0.029,2.682 -0.484,5.477 -0.484,5.477 l -10.976,3.538 c 0,0 -3.354,-2.911 -5.545,-4.537 -2.19,-1.625 -6.682,-4.28 -6.682,-4.28 l 0.058,-11.641 c 0,0 2.872,-1.368 5.374,-2.226 2.501,-0.857 5.715,-1.027 5.715,-1.027 0,0 4.039,1.825 6.739,3.936 z m -7.633,24.905 c 0,6.106 -4.951,11.073 -11.034,11.073 -6.086,0 -11.035,-4.967 -11.035,-11.073 0,-6.106 4.951,-11.071 11.035,-11.071 6.083,0 11.034,4.967 11.034,11.071 z m -21.399,-31.575 c 0.5,-0.617 1.278,-1.174 1.278,-1.174 0,0 5.625,-1.674996 10.52,-1.279996 4.895,0.394996 7.373,1.142996 7.373,1.142996 0,0 0.634,0.537 1.141,1.093 0.508,0.555 0.911,1.527 0.911,1.527 0,0 -3.642,0.293 -6.123,1.274 -2.376,0.938 -4.875,2.221 -4.875,2.221 0,0 -3.932,-1.894 -5.251,-2.342 -2.181,-0.741 -5.692,-1.075 -5.692,-1.075 0,0 0.219,-0.769 0.718,-1.385 z m -13.276003,11.271 c 0,0 2.977003,-3.289 5.813003,-5.215 2.304,-1.564 6.055,-3.277 6.055,-3.277 0,0 3.401,0.21 5.935,1.065 2.534,0.857 5.043,2.154 5.043,2.154 l -0.038,11.568 c 0,0 -3.796,2.302 -6.014,3.888 -2.218,1.587 -6.121,5.055 -6.121,5.055 l -11.017003,-3.652 c 0,0 -0.411,-3.163 -0.448,-5.816 -0.039,-2.652 0.793,-5.77 0.793,-5.77 z m -9.48,20.429 c -0.429,-0.668 -0.718,-1.582 -0.718,-1.582 0,0 0.149,-5.886 2.038,-10.436 1.887,-4.546 3.363,-6.682 3.363,-6.682 0,0 0.705,-0.438 1.388,-0.751 0.683,-0.312 1.729,-0.397 1.729,-0.397 0,0 -0.848,3.563 -0.686,6.237 0.156,2.558 0.597,5.337 0.597,5.337 0,0 -3.009,3.166 -3.841,4.288 -1.378,1.85 -2.779,5.097 -2.779,5.097 0,0 -0.661,-0.447 -1.092,-1.113 z m 2.202,2.203 c 0,0 1.248,-3.18 2.843,-5.334 1.593,-2.152 3.599,-4.146 3.599,-4.146 l 10.952003,3.611 c 0,0 1.009,4.334 1.827,6.939 0.819,2.609 2.899,7.404 2.899,7.404 l -6.865,9.383 c 0,0 -3.125,-0.586 -5.651,-1.368 -2.525003,-0.782 -5.226003,-2.539 -5.226003,-2.539 0,0 -2.196,-3.858 -3.145,-7.159 -0.771,-2.683 -1.235,-6.789 -1.235,-6.789 z m 20.814003,29.305 c -0.766,0.205 -1.72,0.196 -1.72,0.196 0,0 -5.534,-1.961 -9.262,-5.168 -3.728003,-3.207 -5.296003,-5.274 -5.296003,-5.274 0,0 -0.198,-0.808 -0.283,-1.556 -0.085,-0.748 0.158,-1.773 0.158,-1.773 0,0 3.116,1.909 5.700003,2.58 2.473,0.641 5.244,1.079 5.244,1.079 0,0 2.073,3.85 2.876,4.991 1.332,1.887 3.974,4.228 3.974,4.228 0,0 -0.626,0.493 -1.392,0.697 z m 9.586,-0.499 c -2.778,-0.094 -6.817,-0.919 -6.817,-0.919 0,0 -2.629,-2.174 -4.177,-4.36 -1.547,-2.187 -2.817,-4.717 -2.817,-4.717 l 6.807,-9.335 c 0,0 4.419,0.376 7.144,0.4 2.722,0.026 7.913,-0.477 7.913,-0.477 l 6.772,9.449 c 0,0 -1.522,2.802 -3.044,4.971 -1.522,2.168 -4.022,4.201 -4.022,4.201 0,0 -4.336,0.905 -7.759,0.789 z m 27.395,-11.726 c -0.042,0.794 -0.345,1.702 -0.345,1.702 0,0 -3.57,4.673 -7.762,7.24 -4.192,2.566 -6.634,3.421 -6.634,3.421 0,0 -0.827,-0.059 -1.563,-0.209 -0.737,-0.15 -1.632,-0.697 -1.632,-0.697 0,0 2.776,-2.386 4.209,-4.642 1.372,-2.161 2.643,-4.673 2.643,-4.673 0,0 4.288,-0.785 5.622,-1.201 2.198,-0.687 5.233,-2.488 5.233,-2.488 0,0 0.275,0.751 0.231,1.545 z m 2.49,-9.299 c -0.948,2.622 -2.979,6.22 -2.979,6.22 0,0 -2.872,1.835 -5.425,2.638 -2.551,0.799 -5.342,1.232 -5.342,1.232 l -6.746,-9.381 c 0,0 1.721,-4.1 2.587,-6.692 0.864,-2.592 1.992,-7.699 1.992,-7.699 l 11.052,-3.543 c 0,0 2.184,2.317 3.771,4.441 1.584,2.123 2.739,5.136 2.739,5.136 0,0 -0.484,4.417 -1.649,7.648 z m 2.668,-9.109 c 0,0 -1.403,-3.384 -3.099,-5.449 -1.624,-1.977 -3.611,-3.966 -3.611,-3.966 0,0 0.581,-4.337 0.597,-5.734 0.028,-2.311 -0.738,-5.763 -0.738,-5.763 0,0 0.796,-0.029 1.535,0.257 0.739,0.285 1.507,0.855 1.507,0.855 0,0 3.327,4.85 4.465,9.644 1.136,4.792 1.194,7.389 1.194,7.389 0,0 -0.314,0.772 -0.683,1.426 -0.37,0.656 -1.165,1.341 -1.165,1.341 z" />
  <path
     id="path20"
     fill="#ffffff"
     d="m 112.74928,133.64105 c 0,5.526 4.482,10.023 9.99,10.023 5.508,0 9.991,-4.497 9.991,-10.023 0,-5.527 -4.481,-10.024 -9.991,-10.024 -5.508,0 -9.99,4.497 -9.99,10.024 z m 9.387,8.527 c -0.947,0.752 -2.208,0.646 -3.128,-0.315 -0.892,-0.932 -1.223,-4.022 -1.508,-5.191 -0.284,-1.169 -0.673,-1.827 -1.65,-1.827 -0.976,0 -0.891,0.685 -0.825,0.999 0.066,0.315 0.739,0.523 1.051,0.087 0.313,-0.438 -0.17,-0.629 -0.17,-0.629 0,0 0.845,-0.114 1.052,0.6 0.183,0.629 -0.199,1.113 -0.199,1.113 0,0 0.161,0.228 0.285,0.427 0.123,0.2 0.522,0.743 0.398,1.655 -0.124,0.914 -0.569,1.055 -0.569,1.055 0,0 -0.038,-0.561 -0.284,-1.169 -0.17,-0.421 -0.559,-0.874 -0.796,-1.113 -0.13,-0.128 -0.758,-0.419 -1.279,-0.911 -0.491,-0.466 -0.721,-1.226 -0.654,-1.626 0.221,-1.331 1.15,-1.64 1.758,-1.694 -0.608,-0.056 -1.537,-0.363 -1.758,-1.694 -0.067,-0.4 0.163,-1.16 0.654,-1.626 0.523,-0.492 1.149,-0.782 1.279,-0.911 0.236,-0.237 0.625,-0.691 0.796,-1.113 0.246,-0.608 0.284,-1.169 0.284,-1.169 0,0 0.445,0.143 0.569,1.055 0.122,0.913 -0.275,1.455 -0.398,1.654 -0.124,0.2 -0.285,0.428 -0.285,0.428 0,0 0.384,0.484 0.199,1.111 -0.209,0.714 -1.052,0.6 -1.052,0.6 0,0 0.483,-0.189 0.17,-0.627 -0.312,-0.438 -0.985,-0.228 -1.051,0.085 -0.066,0.314 -0.151,0.999 0.825,0.999 0.977,0 1.366,-0.656 1.65,-1.825 0.285,-1.169 0.614,-4.261 1.508,-5.193 0.919,-0.959 2.179,-1.065 3.128,-0.313 1.018,0.806 0.493,2.225 0.257,2.539 -0.238,0.313 -1.011,0.888 -1.167,0.969 -0.323,0.173 -0.695,0.355 -1.109,1.169 -0.26,0.513 -0.426,1.342 -0.426,1.342 0,0 -0.634,-0.365 -0.541,-1.684 0.048,-0.665 0.683,-1.426 0.683,-1.426 0,0 -0.463,-0.694 -0.029,-1.398 0.294,-0.475 0.882,-0.313 0.882,-0.313 0,0 -0.265,0.047 -0.257,0.342 0.011,0.295 0.427,0.646 0.882,0.457 0.455,-0.191 0.492,-1.113 -0.201,-1.227 -0.691,-0.114 -1.098,0 -1.421,0.429 -0.323,0.428 -0.578,1.265 -0.712,1.94 -0.132,0.674 -0.36,2.426 -0.71,3.394 -0.35,0.97 -0.632,1.212 -0.966,1.513 -0.455,0.408 -1.138,0.484 -1.138,0.484 0,0 -0.031,0.006 -0.085,0.011 0.054,0.005 0.085,0.01 0.085,0.01 0,0 0.683,0.075 1.138,0.486 0.334,0.301 0.616,0.543 0.966,1.513 0.352,0.969 0.578,2.718 0.71,3.393 0.133,0.674 0.389,1.513 0.712,1.941 0.323,0.427 0.73,0.541 1.421,0.427 0.693,-0.114 0.654,-1.037 0.201,-1.225 -0.455,-0.191 -0.871,0.162 -0.882,0.457 -0.008,0.295 0.257,0.342 0.257,0.342 0,0 -0.588,0.162 -0.882,-0.315 -0.434,-0.702 0.029,-1.397 0.029,-1.397 0,0 -0.635,-0.76 -0.683,-1.425 -0.093,-1.321 0.541,-1.684 0.541,-1.684 0,0 0.166,0.829 0.426,1.342 0.414,0.814 0.786,0.998 1.109,1.169 0.156,0.083 0.929,0.656 1.167,0.969 0.236,0.315 0.761,1.733 -0.257,2.541 z m -3.099,-8.541 c 0,-2.052 1.657,-3.715 3.702,-3.715 2.045,0 3.703,1.665 3.703,3.715 0,2.052 -1.658,3.715 -3.703,3.715 -2.045,0 -3.702,-1.663 -3.702,-3.715 z m 4.305,-8.541 c 0.948,-0.751 2.208,-0.646 3.129,0.314 0.892,0.932 1.223,4.023 1.506,5.192 0.286,1.169 0.673,1.825 1.65,1.825 0.976,0 0.891,-0.685 0.825,-0.998 -0.066,-0.314 -0.74,-0.523 -1.053,-0.085 -0.313,0.436 0.172,0.627 0.172,0.627 0,0 -0.845,0.114 -1.052,-0.6 -0.183,-0.629 0.199,-1.111 0.199,-1.111 0,0 -0.161,-0.229 -0.285,-0.428 -0.124,-0.201 -0.522,-0.741 -0.398,-1.655 0.122,-0.911 0.569,-1.055 0.569,-1.055 0,0 0.037,0.561 0.284,1.169 0.171,0.421 0.56,0.875 0.796,1.113 0.129,0.13 0.758,0.419 1.279,0.912 0.491,0.465 0.72,1.227 0.654,1.626 -0.221,1.331 -1.15,1.639 -1.758,1.694 0.608,0.054 1.537,0.362 1.758,1.693 0.066,0.403 -0.163,1.161 -0.654,1.626 -0.521,0.493 -1.151,0.784 -1.279,0.912 -0.236,0.238 -0.625,0.692 -0.796,1.113 -0.247,0.608 -0.284,1.169 -0.284,1.169 0,0 -0.445,-0.144 -0.569,-1.055 -0.124,-0.912 0.275,-1.456 0.398,-1.655 0.124,-0.199 0.285,-0.428 0.285,-0.428 0,0 -0.384,-0.484 -0.199,-1.112 0.209,-0.714 1.052,-0.6 1.052,-0.6 0,0 -0.485,0.189 -0.172,0.629 0.313,0.436 0.987,0.228 1.053,-0.087 0.066,-0.314 0.151,-0.999 -0.825,-0.999 -0.977,0 -1.364,0.658 -1.65,1.827 -0.285,1.169 -0.614,4.258 -1.506,5.191 -0.919,0.961 -2.181,1.066 -3.129,0.315 -1.017,-0.806 -0.492,-2.226 -0.255,-2.541 0.237,-0.314 1.009,-0.886 1.166,-0.97 0.322,-0.17 0.696,-0.354 1.109,-1.169 0.26,-0.513 0.426,-1.341 0.426,-1.341 0,0 0.634,0.363 0.54,1.684 -0.047,0.664 -0.683,1.424 -0.683,1.424 0,0 0.464,0.696 0.029,1.398 -0.294,0.475 -0.881,0.315 -0.881,0.315 0,0 0.265,-0.048 0.256,-0.342 -0.008,-0.295 -0.426,-0.646 -0.881,-0.457 -0.455,0.189 -0.493,1.111 0.198,1.225 0.692,0.114 1.099,0 1.422,-0.428 0.323,-0.427 0.578,-1.264 0.71,-1.941 0.132,-0.674 0.36,-2.425 0.712,-3.392 0.35,-0.97 0.631,-1.212 0.966,-1.514 0.455,-0.409 1.138,-0.485 1.138,-0.485 0,0 0.031,-0.005 0.085,-0.011 -0.054,-0.005 -0.085,-0.01 -0.085,-0.01 0,0 -0.683,-0.075 -1.138,-0.484 -0.335,-0.301 -0.616,-0.543 -0.966,-1.513 -0.352,-0.97 -0.578,-2.72 -0.712,-3.395 -0.132,-0.674 -0.389,-1.511 -0.71,-1.939 -0.323,-0.429 -0.73,-0.543 -1.422,-0.429 -0.691,0.114 -0.653,1.038 -0.198,1.227 0.455,0.189 0.871,-0.162 0.881,-0.457 0.01,-0.295 -0.256,-0.343 -0.256,-0.343 0,0 0.587,-0.161 0.881,0.314 0.435,0.704 -0.029,1.397 -0.029,1.397 0,0 0.636,0.762 0.683,1.427 0.095,1.319 -0.54,1.683 -0.54,1.683 0,0 -0.166,-0.828 -0.426,-1.341 -0.413,-0.816 -0.787,-0.997 -1.109,-1.169 -0.157,-0.082 -0.929,-0.656 -1.166,-0.969 -0.237,-0.314 -0.762,-1.732 0.255,-2.54 z" />
  <path
     id="path22"
     fill="#ffffff"
     d="m 112.09928,133.64105 c 0,5.886 4.772,10.676 10.64,10.676 5.867,0 10.641,-4.79 10.641,-10.676 0,-5.886 -4.772,-10.676 -10.641,-10.676 -5.866,0 -10.64,4.79 -10.64,10.676 z m 21.027,0 c 0,5.746 -4.659,10.421 -10.387,10.421 -5.725,0 -10.386,-4.675 -10.386,-10.421 0,-5.745 4.659,-10.419 10.386,-10.419 5.726,0 10.387,4.674 10.387,10.419 z" />
  <path
     id="path24"
     fill="#ffffff"
     d="m 129.39828,133.62705 c 0.095,0.009 0.26,0.019 0.459,0 -0.199,-0.017 -0.365,-0.008 -0.459,0 z" />
  <path
     id="path26"
     fill="#ffffff"
     d="m 116.07928,133.62705 c -0.094,-0.008 -0.26,-0.017 -0.459,0 0.2,0.019 0.365,0.009 0.459,0 z" />
  <path
     id="path28"
     fill="#ffffff"
     d="m 125.86828,134.01305 c 0,0 0.056,-0.2 0.056,-0.372 0,-0.172 -0.056,-0.371 -0.056,-0.371 0,0 -0.426,0.087 -0.825,0.087 -0.116,0 -0.973,-0.069 -1.165,-0.258 -0.218,-0.213 -0.466,-0.675 -0.286,-0.942 0.483,-0.714 1.366,-0.085 1.366,-0.085 0,0 0.134,-0.353 -0.199,-0.743 -0.54,-0.636 -1.421,-0.343 -1.421,-0.343 l -0.597,-0.799 -0.625,0.799 c 0,0 -0.322,-0.201 -0.966,0.029 -0.812,0.288 -0.654,1.055 -0.654,1.055 0,0 1.179,-0.721 1.422,0.256 0.052,0.207 -0.051,0.482 -0.185,0.649 -0.196,0.242 -0.62,0.3 -0.98,0.349 -0.617,0.085 -1.138,-0.085 -1.138,-0.085 0,0 -0.056,0.237 -0.056,0.428 0,0.191 0.028,0.342 0.028,0.342 0,0 0.805,-0.162 1.678,0 0.447,0.082 0.938,0.799 0.512,1.254 -0.427,0.459 -1.25,-0.056 -1.25,-0.056 0,0 -0.199,0.59 0.569,1.026 0.406,0.232 1.022,0.058 1.022,0.058 l 0.625,0.77 0.625,-0.77 c 0,0 0.532,0.152 0.995,-0.029 0.659,-0.259 0.597,-1.055 0.597,-1.055 0,0 -0.569,0.333 -0.996,0.2 -0.426,-0.133 -0.577,-0.553 -0.171,-1.14 0.407,-0.59 2.077,-0.258 2.077,-0.258 z m -3.128,0.685 -0.826,-1.055 0.826,-1.055 0.825,1.055 z" />
  <path
     id="path30"
     fill="#ffffff"
     d="m 122.20428,133.64105 0.535,0.685 0.535,-0.685 -0.535,-0.683 z" />
  <path
     id="path32"
     fill="#ffffff"
     d="m 96.837277,80.674054 -0.647,0.329 c 0,0 -0.56,-0.021 -0.774,-0.014 -0.214,0.005 -0.469,0.004 -0.469,0.004 0,0 -0.251,0.368 -0.312,0.552 -0.062,0.184 -0.143,0.456 -0.143,0.456 l -0.547,0.156 -0.399,-0.355 c 0,0 0.166,-0.881 0.272,-1.145 0.103,-0.266 0.327,-0.643 0.327,-0.643 0,0 0.892,-0.141 1.244,-0.103 0.351,0.037 0.946,0.132 0.946,0.132 z"
     clip-rule="evenodd"
     fill-rule="evenodd" />
  <path
     id="path34"
     fill="#ffffff"
     d="m 122.34228,86.463054 c -31.440003,0 -56.929003,25.380996 -56.929003,56.688996 0,15.517 6.264,29.578 16.409,39.814 0.143,0.144 2.509,-0.719 2.509,-0.719 -10.261,-9.892 -16.642,-23.751 -16.642,-39.097 0,-23.143 14.51,-42.911 34.963003,-50.778996 0.363,0.123 1.306,0.522 1.42,1.324 0.142,0.999 -0.427,1.941 -1.281,2.056 -0.853,0.114 -0.965,-0.796 -0.796,-1.169 0.285,-0.627 1.138,-0.459 1.138,-0.459 0,0 -0.648,-1.314 -1.935,0.029 -0.71,0.743 -0.369,1.939 -0.369,1.939 0,0 -1.421003,0.43 -1.876003,1.313 -0.456,0.884 -0.541,1.912 -0.541,1.912 0,0 0.683,-1.169 1.848003,-1.342 1.166,-0.17 2.628,-0.526 3.1,-0.683 0.768,-0.259 1.308,-1.314 1.308,-1.314 l 1.393,1.227 0.682,-1.912 c 0,0 0.568,0.6 1.677,0.315 1.109,-0.286 2.262,-1.01 2.816,-1.226 1.308,-0.513 2.359,-0.028 2.359,-0.028 0,0 -0.712,-0.942 -1.564,-1.341 -0.853,-0.4 -2.02,0.085 -2.02,0.085 0,0 -0.407,-1.172 -1.194,-1.341 -1.734,-0.37 -1.705,1.028 -1.705,1.028 0,0 1.045,-0.73 1.394,-0.058 0.342,0.656 -0.227,1.54 -0.995,1.455 -0.768,-0.085 -1.535,-0.799 -1.45,-1.655 0.071,-0.719 0.664,-1.395 0.851,-1.595 2.248,-0.657 4.557,-1.175 6.916,-1.545 2.274,-0.256 5.683,-0.571 5.683,-0.571 0,0 1.393,0.486 1.506,1.569 0.114,1.084 -0.796,1.798 -1.251,1.883 -0.456,0.086 -1.373,-0.184 -1.11,-1.254 0.152,-0.618 1.308,-0.228 1.308,-0.228 0,0 -0.113,-1.169 -1.479,-0.685 -1.366,0.486 -1.109,1.883 -1.109,1.883 0,0 -1.366,0.056 -1.991,0.513 -0.625,0.457 -1.138,1.798 -1.138,1.798 0,0 0.654,-0.771 2.134,-0.627 1.477,0.143 2.523,0.228 3.07,0.228 0.768,0 1.536,-0.799 1.536,-0.799 l 1.136,1.569 1.08,-1.626 c 0,0 0.598,0.943 2.19,0.885 1.593,-0.056 2.388,-0.513 3.327,-0.229 0.937,0.287 1.194,0.6 1.194,0.6 0,0 0,-0.855 -0.967,-1.654 -0.966,-0.8 -2.019,-0.571 -2.019,-0.571 0,0 -0.105,-1.157 -0.625,-1.57 -1.62,-1.283 -2.133,0.258 -2.133,0.258 0,0 1.421,-0.542 1.394,0.685 -0.029,1.227 -1.421,0.942 -1.934,0.371 -0.512,-0.571 -0.569,-1.655 -0.056,-2.282 0.511,-0.628 1.051,-0.714 1.051,-0.714 0,0 3.962,0.321 6.541,0.685 2.816,0.399 5.971,1.342 5.971,1.342 0,0 1.602,1.01 0.598,2.624 -0.711,1.142 -1.905,0.543 -2.104,0.228 -0.2,-0.313 -0.155,-1.102 0.312,-1.225 0.541,-0.143 1.052,0.342 1.052,0.342 0,0 0.168,-1.068 -1.108,-1.141 -1.508,-0.085 -1.763,1.54 -1.763,1.54 0,0 -1.222,-0.514 -2.075,-0.17 -0.853,0.342 -1.451,1.254 -1.451,1.254 0,0 1.108,-0.342 1.792,-0.085 0.683,0.257 2.759,1.312 3.497,1.426 0.739,0.114 1.507,-0.344 1.507,-0.344 l 0.625,1.827 1.508,-1.169 c 0,0 0.199,0.884 1.451,1.341 1.251,0.457 2.554,0.555 3.127,0.741 1.051,0.343 1.622,1.227 1.622,1.227 0,0 -0.106,-1.271 -0.513,-1.885 -0.569,-0.855 -1.935,-1.254 -1.935,-1.254 0,0 0.308,-1.022 -0.141,-1.682 -1.243,-1.825 -2.191,-0.371 -2.191,-0.371 0,0 1.648,-0.094 1.252,1.14 -0.257,0.799 -1.592,0.685 -1.962,-0.343 -0.37,-1.026 0,-1.939 0.426,-2.14 0.427,-0.2 1.11,-0.399 1.11,-0.399 0,0 3.828,1.486 7.568,3.541 v -0.037 c 16.511,9.363996 27.644,27.044996 27.644,47.320996 0,15.265 -6.315,29.06 -16.483,38.944 l 2.284,0.939 c 10.186,-10.244 16.477,-24.33 16.477,-39.883 0,-31.308 -25.487,-56.688996 -56.929,-56.688996 z"
     clip-rule="evenodd"
     fill-rule="evenodd" />
  <path
     id="path36"
     fill="#ffffff"
     d="m 171.69228,175.17705 c 0,0 -1.749,1.44 -0.257,2.938 1.252,1.254 2.248,0.342 2.248,0.342 0,0 -0.286,-0.186 -0.257,-0.685 0.029,-0.499 0.257,-0.542 0.257,-0.542 0,0 0.037,0.298 0.142,0.542 0.075,0.174 0.228,0.314 0.228,0.314 0,0 0.368,-0.343 0.511,-0.714 0.143,-0.372 0.172,-0.742 0.172,-0.742 0,0 -0.811,0.643 -1.052,-0.085 -0.241,-0.728 0.498,-1.312 0.768,-1.312 0.27,0 1.075,0.058 1.022,1.283 -0.042,1.041 -0.908,2.082 -0.908,2.082 l 0.256,0.258 c 0,0 0.569,-0.457 0.741,-0.856 0.17,-0.398 0.27,-0.613 0.426,-0.712 0.156,-0.1 2.02,-0.884 2.02,-0.884 0,0 -0.811,1.755 -0.911,1.912 -0.1,0.156 -0.484,0.385 -0.739,0.485 -0.256,0.099 -0.939,0.713 -0.939,0.713 l 0.257,0.257 c 0,0 1.18,-0.857 1.904,-0.828 0.725,0.029 1.508,0.185 1.45,0.998 -0.056,0.813 -1.068,0.967 -1.337,0.8 -0.64,-0.401 -0.057,-1.084 -0.057,-1.084 0,0 -0.342,-0.029 -0.88,0.228 -0.542,0.257 -0.571,0.399 -0.571,0.399 0,0 0.214,0.215 0.428,0.313 0.212,0.099 0.398,0.144 0.398,0.144 0,0 -0.369,0.298 -0.654,0.228 -0.286,-0.072 -0.54,-0.314 -0.54,-0.314 0,0 -1.235,1.238 0.709,2.654 1.195,0.87 2.475,-0.513 2.475,-0.513 0,0 0.355,1.325 -0.511,2.624 -0.868,1.299 -2.488,1.483 -3.412,0.741 -0.924,-0.741 -1.5,-1.929 -1.194,-3.566 0.27,-1.44 1.365,-2.483 1.365,-2.483 l -0.2,-0.229 c 0,0 -0.739,0.529 -1.335,2.112 -0.598,1.583 -0.695,2.488 -1.593,2.881 -0.909,0.399 -4.464,1.541 -4.464,1.541 0,0 1.036,-2.795 1.165,-3.252 0.128,-0.456 0.527,-1.468 1.194,-1.854 0.668,-0.385 2.183,-0.76 2.786,-0.998 0.725,-0.285 1.649,-1.055 1.649,-1.055 l -0.228,-0.257 c 0,0 -1.25,1.283 -2.816,1.341 -1.562,0.058 -3.171,-0.598 -3.582,-2.139 -0.412,-1.54 1.097,-2.6 1.906,-2.939 0.951,-0.399 1.962,-0.086 1.962,-0.086 z"
     clip-rule="evenodd"
     fill-rule="evenodd" />
  <path
     id="path38"
     fill="#ffffff"
     d="m 190.36628,148.49905 c 0,0 1.61,-0.813 1.592,-3.538 -0.029,-4.28 -3.299,-3.508 -3.299,-3.508 0,0 1.551,1.455 1.364,2.653 -0.241,1.556 -1.877,2.111 -3.1,2.198 -1.223,0.085 -1.861,0.014 -2.162,0.027 -0.297,0.014 -0.625,0.515 -0.768,0.685 -0.142,0.173 -0.341,0.486 -0.426,0.486 -0.086,0 -0.314,-1.368 0.313,-3.538 0.625,-2.167 2.53,-5.264 3.441,-6.818 0.91,-1.556 2.743,-5.478 2.615,-8.958 -0.127,-3.482 -2.843,-4.651 -2.843,-4.651 0,0 0.314,-0.627 0.455,-1.083 0.143,-0.457 0.167,-1.023 0.167,-1.023 l -1.155,0.51 c 0,0 -0.119,0.398 -0.148,0.569 -0.027,0.172 -0.199,0.627 -0.199,0.627 0,0 -1.795,-0.426 -3.582,0.342 -1.593,0.685 -3.13,2.836 -2.899,5.477 0.221,2.543 1.051,2.454 1.25,4.651 0.199,2.196 -0.484,4.48 -0.484,4.48 0,0 1.848,-0.942 2.189,-3.338 0.24,-1.677 0.228,-2.04 0.199,-2.108 -0.017,-0.004 -0.027,-0.004 -0.027,-0.004 0,0 0.015,-0.025 0.027,0.004 0.223,0.027 1.834,0.168 2.787,-1.318 1.023,-1.596 0,-3.28 0,-3.28 0,0 -0.36,2.716 -2.588,1.512 -1.131,-0.612 -0.143,-2.683 -0.143,-2.683 0,0 1.25,-2.082 3.64,-0.456 2.388,1.625 0.027,7.418 -1.906,10.241 -1.934,2.826 -3.894,7.139 -3.64,9.299 0.313,2.661 0.918,3.833 0.94,3.71 0,0 -2.674,3.31 -1.393,7.589 1.279,4.279 3.497,8.805 3.497,11.327 0,2.225 -0.285,4.279 -2.785,4.451 -3.02,0.206 -2.703,-3.367 -1.763,-3.795 0.939,-0.428 1.708,-0.38 2.247,0.428 0.341,0.514 0.17,1.227 0.17,1.227 0,0 1.244,-1.301 0.682,-2.967 -0.683,-2.025 -2.615,-1.882 -2.615,-1.882 0,0 0.248,-1.138 0.113,-2.767 -0.171,-2.069 -1.506,-2.882 -1.506,-2.882 0,0 0.16,3.047 -0.285,4.508 -0.525,1.726 -2.005,3.108 -2.105,4.85 -0.098,1.739 -0.355,4.364 2.645,5.734 3.001,1.37 5.929,-0.656 6.882,-2.882 0.953,-2.225 0.91,-5.521 -0.029,-8.416 -0.939,-2.896 -2.772,-6.89 -2.872,-8.986 -0.1,-2.096 0.284,-3.11 0.284,-3.11 0,0 0.285,0.044 0.426,0.542 0.143,0.499 0.61,0.814 0.824,0.799 0.212,-0.015 2.829,0.141 3.753,1.084 0.924,0.942 1.125,1.885 0.37,2.91 -0.752,1.026 -1.307,1.226 -1.307,1.226 0,0 1.848,0.584 2.957,-0.827 1.109,-1.414 1.109,-3.808 0.711,-4.679 -0.399,-0.869 -0.796,-1.198 -0.796,-1.198 l 1.449,-1.657 -1.166,-1.796 z m -3.613,2.766 c -1.299,-0.009 -2.474,-1.427 -2.474,-1.427 0,0 1.379,-1.325 2.901,-1.112 1.522,0.213 2.332,1.426 2.332,1.426 0,0 -1.011,1.125 -2.759,1.111 z"
     clip-rule="evenodd"
     fill-rule="evenodd" />
  <path
     id="path40"
     fill="#ffffff"
     d="m 186.95528,149.04105 c -1.025,-0.114 -1.964,0.884 -1.964,0.884 0,0 0.897,0.955 1.85,1.026 0.953,0.072 2.018,-0.857 2.018,-0.857 0,0 -0.882,-0.941 -1.904,-1.055 z"
     clip-rule="evenodd"
     fill-rule="evenodd" />
  <path
     id="path42"
     fill="#ffffff"
     d="m 53.551277,150.09805 1.45,1.655 c 0,0 -0.397,0.328 -0.796,1.198 -0.398,0.87 -0.398,3.266 0.711,4.679 1.11,1.413 2.958,0.828 2.958,0.828 0,0 -0.554,-0.199 -1.308,-1.227 -0.753,-1.027 -0.554,-1.968 0.37,-2.909 0.924,-0.942 3.54,-1.099 3.754,-1.084 0.214,0.016 0.682,-0.299 0.825,-0.799 0.143,-0.499 0.426,-0.542 0.426,-0.542 0,0 0.384,1.014 0.286,3.109 -0.101,2.097 -1.935,6.092 -2.872,8.987 -0.94,2.897 -0.982,6.191 -0.029,8.417 0.953,2.225 3.881,4.251 6.882,2.881 2.999,-1.37 2.745,-3.994 2.644,-5.734 -0.098,-1.742 -1.577,-3.125 -2.102,-4.85 -0.445,-1.459 -0.286,-4.507 -0.286,-4.507 0,0 -1.336,0.811 -1.506,2.881 -0.134,1.63 0.114,2.768 0.114,2.768 0,0 -1.933,-0.143 -2.616,1.883 -0.562,1.668 0.683,2.968 0.683,2.968 0,0 -0.172,-0.714 0.17,-1.227 0.536,-0.809 1.307,-0.855 2.247,-0.427 0.939,0.427 1.258,4.001 -1.763,3.795 -2.502,-0.172 -2.788,-2.226 -2.788,-4.451 0,-2.522 2.219,-7.047 3.498,-11.327 1.279,-4.279 -1.393,-7.589 -1.393,-7.589 0.02,0.125 0.625,-1.05 0.937,-3.71 0.255,-2.16 -1.705,-6.475 -3.639,-9.299 -1.935,-2.825 -4.294,-8.616 -1.906,-10.243 2.388,-1.626 3.64,0.456 3.64,0.456 0,0 0.99,2.069 -0.143,2.683 -2.227,1.204 -2.587,-1.512 -2.587,-1.512 0,0 -1.024,1.684 0,3.281 0.951,1.485 2.565,1.342 2.788,1.315 0.011,-0.027 0.027,-0.003 0.027,-0.003 0,0 -0.011,0.001 -0.027,0.003 -0.029,0.068 -0.041,0.431 0.198,2.108 0.342,2.398 2.19,3.338 2.19,3.338 0,0 -0.683,-2.283 -0.485,-4.48 0.199,-2.198 1.031,-2.108 1.252,-4.65 0.23,-2.642 -1.308,-4.792 -2.901,-5.477 -1.788,-0.77 -3.582,-0.343 -3.582,-0.343 0,0 -0.171,-0.456 -0.199,-0.629 -0.028,-0.17 -0.147,-0.569 -0.147,-0.569 l -1.157,-0.509 c 0,0 0.024,0.564 0.167,1.021 0.142,0.456 0.455,1.083 0.455,1.083 0,0 -2.716,1.169 -2.844,4.651 -0.127,3.48 1.706,7.404 2.616,8.958 0.91,1.554 2.816,4.649 3.441,6.818 0.625,2.17 0.398,3.538 0.313,3.538 -0.085,0 -0.286,-0.313 -0.427,-0.486 -0.142,-0.17 -0.47,-0.669 -0.767,-0.685 -0.299,-0.015 -0.94,0.058 -2.162,-0.027 -1.223,-0.087 -2.857,-0.642 -3.098,-2.198 -0.187,-1.198 1.363,-2.653 1.363,-2.653 0,0 -3.269,-0.771 -3.298,3.508 -0.019,2.725 1.593,3.538 1.593,3.538 l -1.167,1.796 z m 2.019,-0.142 c 0,0 0.811,-1.213 2.331,-1.426 1.52,-0.215 2.901,1.111 2.901,1.111 0,0 -1.174,1.418 -2.475,1.426 -1.748,0.012 -2.757,-1.112 -2.757,-1.112 z"
     clip-rule="evenodd"
     fill-rule="evenodd" />
  <path
     id="path44"
     fill="#ffffff"
     d="m 58.129277,148.84305 c 1.024,-0.114 1.962,0.885 1.962,0.885 0,0 -0.895,0.954 -1.848,1.026 -0.953,0.071 -2.019,-0.856 -2.019,-0.856 0,0 0.881,-0.942 1.904,-1.055 z"
     clip-rule="evenodd"
     fill-rule="evenodd" />
  <path
     id="path46"
     fill="#ffffff"
     d="m 173.40328,96.756054 -2.159,-0.405 c 0,0 0.111,-0.505 -0.11,-1.437 -0.223,-0.93 -1.695,-2.819 -3.436,-3.243 -1.741,-0.424 -2.837,1.179 -2.837,1.179 0,0 0.559,-0.185 1.784,0.157 1.224,0.343 1.646,1.207 1.498,2.519 -0.15,1.312 -2.113,3.055 -2.288,3.176 -0.177,0.121 -0.353,0.658 -0.158,1.14 0.195,0.480996 -0.003,0.689996 -0.003,0.689996 0,0 -0.924,-0.558996 -2.135,-2.272996 -1.211,-1.712 -2.222,-5.991 -3.263,-8.851 -1.041,-2.859 -3.032,-5.48 -5.152,-6.643 -2.118,-1.162 -5.667,-0.944 -7.188,1.991 -1.52,2.933 0.296,4.841 1.444,6.15 1.148,1.307 3.161,1.483 4.637,2.515 1.247,0.874 2.994,3.371 2.994,3.371 0,0 0.552,-1.466 -0.586,-3.2 -0.895,-1.365 -1.79,-2.108 -1.79,-2.108 0,0 1.61,-1.084 0.904,-3.102 -0.583,-1.66 -2.363,-1.914 -2.363,-1.914 0,0 0.573,0.455 0.62,1.072 0.075,0.97 -0.503,1.483 -1.505,1.727 -1.002,0.243 -3.449,-2.371 -0.944,-4.078 2.074,-1.415 3.562,0.027 4.929,1.779 1.551,1.983 2.587,6.92 4.21,11.078 1.624,4.161996 5.762,5.110996 5.762,5.110996 -0.092,-0.085 0.153,1.213 1.542,3.5 1.128,1.857 5.323,4.042 8.581,5.068 3.257,1.026 8.677,4.127 7.795,6.885 -0.881,2.757 -3.145,1.891 -3.145,1.891 0,0 -2.05,-1.016 -1.537,-2.198 1.014,-2.328 2.967,-0.411 2.967,-0.411 0,0 -0.229,-1.958 -2.016,-2.582 -1.663,-0.581 -2.845,0.53 -3.003,0.689 0.009,0.03 -0.02,0.02 -0.02,0.02 0,0 0.008,-0.008 0.02,-0.02 -0.019,-0.07 -0.234,-0.365 -1.452,-1.537 -1.741,-1.677 -3.776,-1.273 -3.776,-1.273 0,0 1.942,1.375 3.134,3.227 1.194,1.853 0.486,2.297 1.873,4.434 1.442,2.223 3.976,2.966 5.649,2.517 1.881,-0.501 3.03,-1.947 3.03,-1.947 0,0 0.417,0.253 0.542,0.371 0.128,0.116 0.304,0.341 0.304,0.341 l 1.155,-0.51 c 0,0 -0.134,-0.219 -0.528,-0.492 -0.392,-0.271 -1.024,-0.571 -1.024,-0.571 0,0 1.42,-2.602 -0.62,-5.419 -2.038,-2.819 -5.894,-4.772 -7.565,-5.434 -1.671,-0.662 -5.075,-1.918 -6.901,-3.238 -1.824,-1.319 -2.487,-2.539 -2.42,-2.592 0.066,-0.055 0.416,0.07 0.633,0.117 0.218,0.046 0.782,0.237 1.026,0.063 0.243,-0.173 0.703,-0.625 1.719,-1.313 1.016,-0.691 2.644,-1.265 3.789,-0.19 0.883,0.829 0.557,2.933 0.557,2.933 0,0 3.047,-1.418 0.44,-4.804 -1.661,-2.156996 -3.427,-1.798996 -3.427,-1.798996 l -0.187,-2.137 z m -1.502,1.362 c 0,0 0.107,1.457 -0.959,2.565996 -1.065,1.111 -2.967,0.919 -2.967,0.919 0,0 0.054,-1.842996 1.07,-2.654996 1.369,-1.091 2.855,-0.832 2.855,-0.832 z"
     clip-rule="evenodd"
     fill-rule="evenodd" />
  <path
     id="path48"
     fill="#ffffff"
     d="m 170.57228,100.57605 c -0.735,0.725 -2.089,0.518 -2.089,0.518 0,0 0.117,-1.304996 0.824,-1.951996 0.707,-0.646 2.115,-0.576 2.115,-0.576 0,0 -0.116,1.288 -0.85,2.009996 z"
     clip-rule="evenodd"
     fill-rule="evenodd" />
  <path
     id="path50"
     fill="#ffffff"
     d="m 122.32828,74.110054 -1.775,1.297 c 0,0 -0.289,-0.4279 -1.116,-0.905 -0.827,-0.4772 -3.207,-0.697 -4.71,0.2812 -1.503,0.9778 -1.092,2.8778 -1.092,2.8778 0,0 0.25,-0.535 1.338,-1.192 1.089,-0.66 2.005,-0.374 2.854,0.635 0.849,1.009 0.764,3.638 0.732,3.85 -0.034,0.211 0.234,0.709 0.717,0.896 0.482,0.188 0.499,0.476 0.499,0.476 0,0 -1.041,0.291 -3.113,-0.002 -2.073,-0.292 -5.869,-2.492 -8.656,-3.693 -2.787,-1.203 -6.055,-1.549 -8.349003,-0.801 -2.297,0.748 -4.576,3.488 -3.492,6.61 1.083,3.124 3.712,3.107 5.448003,3.17 1.736,0.06 3.244,-1.29 5.006,-1.658 1.489,-0.31 4.499,0.131 4.499,0.131 0,0 -0.685,-1.411 -2.721,-1.771 -1.605,-0.284 -2.757,-0.139 -2.757,-0.139 0,0 0.32,-1.919 -1.629,-2.788 -1.603,-0.714 -3.008,0.411 -3.008,0.411 0,0 0.724,-0.106 1.203,0.282 0.752,0.61 0.729,1.386 0.217,2.282 -0.511,0.898 -4.086003,0.89 -3.604003,-2.108 0.399,-2.484 2.465003,-2.58 4.673003,-2.377 2.502,0.232 6.79,2.865 10.921,4.535 4.129,1.671 7.658,-0.697 7.658,-0.697 -0.125,0.01 0.984,0.72 3.596,1.278 2.121,0.451 6.583,-1.11 9.566,-2.783 2.98,-1.673 8.944,-3.499 10.338,-0.965 1.396,2.536 -0.786,3.596 -0.786,3.596 0,0 -2.145,0.799 -2.648,-0.388 -0.992,-2.337 1.737,-2.448 1.737,-2.448 0,0 -1.576,-1.177 -3.256,-0.301 -1.56,0.816 -1.567,2.44 -1.562,2.665 0.027,0.014 0.002,0.029 0.002,0.029 0,0 0,-0.012 -0.002,-0.029 -0.065,-0.036 -0.423,-0.08 -2.111,0.005 -2.409,0.121 -3.513,1.88 -3.513,1.88 0,0 2.327,-0.472 4.489,-0.072 2.164,0.401 1.999,1.222 4.501,1.677 2.601,0.472 4.878,-0.867 5.702,-2.394 0.927,-1.716 0.669,-3.548 0.669,-3.548 0,0 0.438,-0.128 0.605,-0.179 0.197,-0.061 0.491,-0.061 0.491,-0.061 0,0 0.086,0.207 0.076,0.576 -0.008,0.363 -0.063,0.604 -0.063,0.604 l 0.95,-0.434 c 0,0 0.054,-0.293 -0.038,-0.827 -0.064,-0.368 -0.283,-0.935 -0.283,-0.935 0,0 -0.473,-0.116 -0.938,-0.017 -0.467,0.1 -1.117,0.356 -1.117,0.356 0,0 -0.913,-2.82 -4.355,-3.268 -3.443,-0.447 -7.504,1.025 -9.131,1.791 -1.627,0.766 -4.873,2.385 -7.083,2.811 -2.21,0.426 -3.548,0.074 -3.539,-0.01 0.008,-0.087 0.338,-0.256 0.519,-0.383 0.184,-0.126 0.709,-0.406 0.751,-0.704 0.041,-0.298 0.029,-0.942 0.226,-2.156 0.197,-1.215 0.9,-2.796 2.464,-2.895 1.206,-0.077 2.509,1.607 2.509,1.607 0,0 1.063,-3.197 -3.18,-3.6179 -2.704,-0.2693 -3.658,1.2649 -3.658,1.2649 l -1.676,-1.3297 z m -0.044,2.03 c 0,0 1.129,0.922 1.202,2.46 0.073,1.539 -1.371,2.797 -1.371,2.797 0,0 -1.299,-1.304 -1.189,-2.604 0.148,-1.747 1.358,-2.653 1.358,-2.653 z"
     clip-rule="evenodd"
     fill-rule="evenodd" />
  <path
     id="path52"
     fill="#ffffff"
     d="m 123.15228,78.800054 c 0.018,1.032 -1.058,1.879 -1.058,1.879 0,0 -0.867,-0.981 -0.85,-1.941 0.017,-0.957 1.035,-1.937 1.035,-1.937 0,0 0.852,0.966 0.873,1.999 z"
     clip-rule="evenodd"
     fill-rule="evenodd" />
  <path
     id="path54"
     fill="#ffffff"
     d="m 71.458277,98.693054 c 0,0 -1.768,-0.356 -3.428,1.800996 -2.609,3.386 0.44,4.804 0.44,4.804 0,0 -0.326,-2.106 0.557,-2.932 1.145,-1.074 2.776,-0.501 3.79,0.187 1.015,0.69 1.474,1.142 1.717,1.316 0.244,0.173 0.808,-0.017 1.026,-0.065 0.217,-0.046 0.567,-0.171 0.633,-0.116 0.068,0.053 -0.594,1.271 -2.42,2.592 -1.826,1.319 -5.228,2.576 -6.901,3.238 -1.671,0.663 -5.527,2.614 -7.565,5.434 -2.038,2.819 -0.62,5.419 -0.62,5.419 0,0 -0.633,0.3 -1.024,0.571 -0.392,0.271 -0.528,0.491 -0.528,0.491 l 1.155,0.509 c 0,0 0.176,-0.225 0.304,-0.342 0.127,-0.116 0.541,-0.37 0.541,-0.37 0,0 1.152,1.447 3.032,1.948 1.675,0.446 4.207,-0.295 5.651,-2.519 1.389,-2.137 0.681,-2.582 1.873,-4.434 1.194,-1.851 3.134,-3.228 3.134,-3.228 0,0 -2.033,-0.402 -3.776,1.273 -1.217,1.173 -1.431,1.466 -1.452,1.537 0.012,0.012 0.021,0.019 0.021,0.019 0,0 -0.028,0.01 -0.021,-0.019 -0.158,-0.16 -1.342,-1.269 -3.003,-0.69 -1.788,0.626 -2.016,2.584 -2.016,2.584 0,0 1.953,-1.917 2.966,0.41 0.514,1.181 -1.537,2.199 -1.537,2.199 0,0 -2.266,0.865 -3.146,-1.892 -0.88,-2.757 4.537,-5.857 7.796,-6.884 3.258,-1.028 7.455,-3.211 8.582,-5.068 1.39,-2.287 1.634,-3.586 1.541,-3.501 0,0 4.139,-0.952 5.761,-5.111996 1.624,-4.16 2.66,-9.095 4.211,-11.078 1.369,-1.752 2.853,-3.194 4.929,-1.779 2.505,1.705 0.057,4.321 -0.945,4.078 -1.002,-0.244 -1.579,-0.759 -1.505,-1.727 0.048,-0.617 0.62,-1.072 0.62,-1.072 0,0 -1.778,0.254 -2.361,1.914 -0.708,2.018 0.902,3.102 0.902,3.102 0,0 -0.895,0.743 -1.79,2.108 -1.136,1.733 -0.584,3.2 -0.584,3.2 0,0 1.748,-2.498 2.996,-3.373 1.474,-1.032 3.489,-1.206 4.637,-2.515 1.148,-1.309 2.964,-3.217 1.443,-6.152 -1.52,-2.932 -5.069,-3.15 -7.187,-1.988 -2.118,1.164 -4.111,3.783 -5.152,6.642 -1.041,2.86 -2.053,7.139 -3.263,8.851 -1.211,1.713 -2.135,2.271996 -2.135,2.271996 0,0 -0.197,-0.21 -10e-4,-0.689996 0.195,-0.481 0.018,-1.019 -0.158,-1.14 -0.177,-0.121 -2.139,-1.863 -2.288,-3.177 -0.148,-1.312 0.273,-2.176 1.498,-2.518 1.225,-0.343 1.783,-0.157 1.783,-0.157 0,0 -1.095,-1.604 -2.836,-1.178 -1.741,0.425 -3.215,2.313 -3.436,3.243 -0.221,0.932 -0.109,1.437 -0.109,1.437 l -2.159,0.405 -0.186,2.137 z m 4.543,0.056 c 1.018,0.812 1.07,2.653996 1.07,2.653996 0,0 -1.9,0.189 -2.965,-0.919 -1.067,-1.108996 -0.958,-2.563996 -0.958,-2.563996 0,0 1.486,-0.261 2.855,0.829 z"
     clip-rule="evenodd"
     fill-rule="evenodd" />
  <path
     id="path56"
     fill="#ffffff"
     d="m 74.480277,100.37905 c 0.735,0.724 2.087,0.518 2.087,0.518 0,0 -0.117,-1.305996 -0.824,-1.952996 -0.706,-0.646 -2.114,-0.576 -2.114,-0.576 0,0 0.115,1.286 0.851,2.010996 z"
     clip-rule="evenodd"
     fill-rule="evenodd" />
  <path
     id="path58"
     fill="#ffffff"
     d="m 171.83728,195.22205 c -0.246,-0.347 -0.627,-0.506 -0.966,-0.542 -0.722,-0.078 -1.422,0.285 -1.422,0.285 0,0 0.426,0.172 0.739,0.399 0.312,0.228 0.598,0.685 0.397,1.084 -0.198,0.398 -0.881,0.455 -1.194,0.17 -0.236,-0.215 -0.514,-0.963 -0.569,-1.939 -0.018,-0.326 -0.056,-0.829 0,-1.142 0.228,-1.254 0.371,-2.396 -0.085,-4.08 -0.455,-1.683 -2.615,-2.595 -2.615,-2.595 0,0 0.227,-0.085 0,-1.74 -0.229,-1.655 -1.821,-2.911 -2.475,-3.195 -0.654,-0.285 -2.334,-1.084 -3.128,-1.684 -0.797,-0.6 -1.166,-1.455 -0.654,-1.854 0.511,-0.399 0.854,-0.199 1.109,0.2 0.256,0.4 0.057,1.312 0.057,1.312 0,0 1.631,-0.885 1.023,-2.34 -0.547,-1.312 -2.56,-1.617 -3.582,-0.256 -1.023,1.36 -0.285,2.71 -0.285,2.71 0,0 -0.313,0.295 -0.371,0.571 -0.056,0.276 0.114,0.685 0.114,0.685 0,0 -0.881,0.342 -0.768,1.142 0.14,0.969 1.109,0.799 1.109,0.799 0,0 -0.084,0.38 0.228,0.77 0.314,0.39 0.91,0.285 0.91,0.285 0,0 0.418,1.16 1.166,1.426 0.992,0.353 1.705,-0.37 1.705,-0.37 0,0 -0.768,-0.17 -0.968,-0.399 -0.593,-0.681 -0.35,-1.123 0.2,-1.511 0.549,-0.39 1.498,-0.285 2.332,0.627 0.369,0.404 0.542,0.9 0.569,1.256 0.032,0.448 -0.143,0.712 -0.143,0.712 0,0 -0.163,-0.013 -0.397,-0.056 -0.188,-0.034 -0.421,-0.102 -0.683,-0.085 -0.587,0.037 -1.129,0.799 -2.446,0.969 -1.318,0.173 -2.075,-0.685 -2.075,-0.685 0,0 -0.37,1.111 0.256,1.798 0.785,0.857 1.678,1.028 1.678,1.028 l -0.939,1.683 1.877,0.029 c 0,0 -0.331,1.217 0.056,2.083 0.477,1.063 1.337,1.055 1.337,1.055 0,0 0.018,0.075 -0.029,-0.343 -0.049,-0.417 -0.02,-0.988 0.455,-1.74 0.415,-0.656 1.384,-1.179 1.707,-1.341 0.321,-0.162 0.569,-0.542 0.654,-0.828 0.085,-0.285 0.228,-0.598 0.228,-0.598 0,0 1.109,0.209 1.421,1.397 0.313,1.19 0.029,1.759 -0.37,2.168 -0.399,0.409 -1.072,0.552 -1.507,0 -0.436,-0.552 0.029,-1.456 0.029,-1.456 0,0 -0.2,0.048 -0.37,0.144 -0.172,0.095 -0.9,0.666 -0.854,1.484 0.047,0.818 0.598,1.428 0.598,1.428 0,0 -0.342,0.341 -0.257,0.855 0.095,0.576 0.569,0.685 0.569,0.685 0,0 -0.543,0.767 0,1.313 0.644,0.647 1.478,-0.029 1.478,-0.029 0,0 0.161,0.417 0.511,0.485 0.229,0.045 0.656,-0.029 0.656,-0.029 0,0 0.225,0.399 0.852,0.799 0.627,0.399 1.622,0.372 2.218,0.173 0.321,-0.108 0.858,-0.52 1.138,-1.169 0.242,-0.559 0.301,-1.251 -0.227,-1.998 z m -8.105,-5.809 c -1.022,0.685 -2.189,0.286 -2.189,0.286 0,0 0.402,-1.244 1.08,-1.598 0.987,-0.513 2.077,-0.2 2.077,-0.2 0,0 -0.37,1.113 -0.968,1.512 z"
     clip-rule="evenodd"
     fill-rule="evenodd" />
  <path
     id="path60"
     fill="#ffffff"
     d="m 162.70628,188.30005 c -0.438,0.266 -0.825,1.198 -0.825,1.198 0,0 0.976,0.206 1.535,-0.143 0.627,-0.392 0.882,-1.256 0.882,-1.256 0,0 -0.921,-0.21 -1.592,0.199 z"
     clip-rule="evenodd"
     fill-rule="evenodd" />
  <path
     id="path62"
     fill="#ffffff"
     d="m 74.856277,175.26205 c 0.811,0.339 2.319,1.399 1.906,2.94 -0.413,1.54 -2.019,2.196 -3.582,2.138 -1.564,-0.056 -2.816,-1.341 -2.816,-1.341 l -0.228,0.258 c 0,0 0.924,0.77 1.65,1.054 0.604,0.237 2.118,0.614 2.785,0.999 0.668,0.385 1.067,1.399 1.194,1.854 0.127,0.457 1.165,3.251 1.165,3.251 0,0 -3.555,-1.14 -4.463,-1.54 -0.899,-0.394 -0.996,-1.299 -1.594,-2.882 -0.597,-1.583 -1.336,-2.111 -1.336,-2.111 l -0.199,0.228 c 0,0 1.096,1.041 1.366,2.483 0.307,1.636 -0.27,2.826 -1.194,3.567 -0.924,0.741 -2.545,0.557 -3.413,-0.741 -0.868,-1.299 -0.511,-2.625 -0.511,-2.625 0,0 1.279,1.384 2.475,0.513 1.945,-1.416 0.711,-2.653 0.711,-2.653 0,0 -0.256,0.242 -0.54,0.313 -0.283,0.072 -0.654,-0.228 -0.654,-0.228 0,0 0.186,-0.044 0.398,-0.143 0.214,-0.101 0.426,-0.314 0.426,-0.314 0,0 -0.029,-0.143 -0.569,-0.398 -0.54,-0.258 -0.881,-0.229 -0.881,-0.229 0,0 0.582,0.685 -0.058,1.084 -0.268,0.167 -1.279,0.014 -1.337,-0.799 -0.057,-0.813 0.726,-0.97 1.451,-0.999 0.725,-0.029 1.905,0.828 1.905,0.828 l 0.257,-0.257 c 0,0 -0.683,-0.613 -0.938,-0.712 -0.256,-0.101 -0.64,-0.327 -0.738,-0.486 -0.101,-0.157 -0.911,-1.912 -0.911,-1.912 0,0 1.862,0.784 2.02,0.885 0.156,0.098 0.256,0.313 0.426,0.712 0.17,0.399 0.739,0.855 0.739,0.855 l 0.256,-0.257 c 0,0 -0.866,-1.041 -0.908,-2.082 -0.05,-1.226 0.754,-1.284 1.024,-1.284 0.27,0 1.01,0.585 0.767,1.313 -0.241,0.727 -1.051,0.085 -1.051,0.085 0,0 0.029,0.371 0.17,0.741 0.143,0.37 0.513,0.714 0.513,0.714 0,0 0.153,-0.14 0.227,-0.313 0.104,-0.244 0.143,-0.542 0.143,-0.542 0,0 0.228,0.042 0.257,0.542 0.029,0.499 -0.257,0.685 -0.257,0.685 0,0 0.995,0.911 2.247,-0.343 1.493,-1.498 -0.256,-2.938 -0.256,-2.938 0,0 1.009,-0.313 1.961,0.085 z"
     clip-rule="evenodd"
     fill-rule="evenodd" />
  <path
     id="path64"
     fill="#ffffff"
     d="m 72.524277,197.21905 c 0.28,0.65 0.817,1.062 1.138,1.169 0.598,0.2 1.591,0.229 2.218,-0.172 0.627,-0.398 0.853,-0.799 0.853,-0.799 0,0 0.424,0.073 0.654,0.029 0.351,-0.066 0.512,-0.486 0.512,-0.486 0,0 0.833,0.677 1.478,0.029 0.544,-0.545 0,-1.312 0,-1.312 0,0 0.474,-0.109 0.569,-0.685 0.085,-0.513 -0.256,-0.855 -0.256,-0.855 0,0 0.55,-0.61 0.598,-1.428 0.047,-0.818 -0.683,-1.389 -0.853,-1.485 -0.17,-0.093 -0.369,-0.143 -0.369,-0.143 0,0 0.464,0.903 0.028,1.456 -0.437,0.552 -1.108,0.409 -1.507,0 -0.397,-0.409 -0.683,-0.98 -0.37,-2.168 0.312,-1.189 1.421,-1.397 1.421,-1.397 0,0 0.143,0.313 0.228,0.598 0.085,0.286 0.331,0.666 0.654,0.828 0.321,0.162 1.292,0.685 1.705,1.341 0.474,0.752 0.503,1.322 0.455,1.74 -0.047,0.418 -0.029,0.343 -0.029,0.343 0,0 0.86,0.006 1.337,-1.055 0.389,-0.866 0.058,-2.083 0.058,-2.083 l 1.877,-0.029 -0.94,-1.683 c 0,0 0.894,-0.169 1.678,-1.028 0.626,-0.685 0.257,-1.798 0.257,-1.798 0,0 -0.758,0.856 -2.076,0.685 -1.318,-0.172 -1.858,-0.932 -2.445,-0.969 -0.262,-0.017 -0.495,0.051 -0.683,0.085 -0.236,0.042 -0.398,0.056 -0.398,0.056 0,0 -0.175,-0.264 -0.142,-0.712 0.025,-0.356 0.2,-0.852 0.569,-1.256 0.834,-0.912 1.781,-1.017 2.332,-0.627 0.548,0.39 0.793,0.831 0.198,1.511 -0.198,0.229 -0.968,0.399 -0.968,0.399 0,0 0.715,0.724 1.707,0.37 0.749,-0.266 1.165,-1.426 1.165,-1.426 0,0 0.597,0.103 0.911,-0.285 0.312,-0.39 0.227,-0.77 0.227,-0.77 0,0 0.972,0.17 1.109,-0.8 0.114,-0.799 -0.767,-1.141 -0.767,-1.141 0,0 0.17,-0.409 0.114,-0.685 -0.056,-0.276 -0.371,-0.571 -0.371,-0.571 0,0 0.741,-1.35 -0.285,-2.71 -1.024,-1.36 -3.035,-1.056 -3.582,0.256 -0.606,1.455 1.024,2.34 1.024,2.34 0,0 -0.2,-0.912 0.056,-1.313 0.257,-0.398 0.598,-0.599 1.109,-0.199 0.511,0.399 0.143,1.254 -0.654,1.854 -0.796,0.6 -2.473,1.397 -3.128,1.684 -0.654,0.286 -2.246,1.54 -2.473,3.195 -0.228,1.655 0,1.74 0,1.74 0,0 -2.162,0.912 -2.616,2.595 -0.455,1.684 -0.312,2.826 -0.085,4.08 0.056,0.313 0.019,0.816 0,1.142 -0.054,0.976 -0.334,1.726 -0.569,1.939 -0.312,0.284 -0.995,0.228 -1.194,-0.171 -0.198,-0.398 0.085,-0.855 0.398,-1.083 0.312,-0.229 0.738,-0.399 0.738,-0.399 0,0 -0.701,-0.365 -1.421,-0.285 -0.34,0.036 -0.72,0.193 -0.967,0.542 -0.528,0.747 -0.468,1.438 -0.227,1.997 z m 7.366,-9.318 c 0,0 1.089,-0.313 2.076,0.2 0.677,0.353 1.08,1.598 1.08,1.598 0,0 -1.165,0.399 -2.189,-0.286 -0.598,-0.399 -0.967,-1.512 -0.967,-1.512 z"
     clip-rule="evenodd"
     fill-rule="evenodd" />
  <path
     id="path66"
     fill="#ffffff"
     d="m 81.881277,188.30005 c 0.439,0.266 0.826,1.198 0.826,1.198 0,0 -0.977,0.206 -1.536,-0.143 -0.626,-0.392 -0.881,-1.256 -0.881,-1.256 0,0 0.919,-0.21 1.593,0.199 z"
     clip-rule="evenodd"
     fill-rule="evenodd" />
  <path
     id="path68"
     fill="#ffffff"
     d="m 85.261277,178.35505 c 0,0 -4.693,-3.968 -10.094,-13.838 -3.03,-5.538 -5.187,-14.764 -4.976,-23.622 0.255,-10.659 3.821,-18.793 7.791,-24.934 6.467,-10.007 14.472,-14.523 14.472,-14.523 0,0 -18.776,11.984 -20.899,36.976 -2.173,25.585 14.16,39.627 14.16,39.627 l -0.455,0.314 z"
     clip-rule="evenodd"
     fill-rule="evenodd" />
  <path
     id="path70"
     fill="#ffffff"
     d="m 158.84728,178.04105 c 0,0 16.334,-14.042 14.162,-39.627 -2.123,-24.992 -20.902,-36.976 -20.902,-36.976 0,0 8.007,4.516 14.473,14.523 3.971,6.141 7.539,14.275 7.793,24.934 0.21,8.858 -1.945,18.086 -4.977,23.622 -5.403,9.87 -10.094,13.838 -10.094,13.838 l -0.457,-0.314 z"
     clip-rule="evenodd"
     fill-rule="evenodd" />
  <path
     id="path72"
     fill="#ffffff"
     d="m 73.662277,195.41205 c -13.511,-12.968 -21.927,-31.238 -21.927,-51.481 0,-39.343 31.79,-71.238296 71.003003,-71.238296 39.214,0 71.003,31.894296 71.003,71.238296 0,20.545 -8.668,39.056 -22.534,52.058 0.155,0.183 0.309,0.367 0.462,0.553 14.021,-13.134 22.788,-31.843 22.788,-52.611 0,-39.741 -32.109,-71.957496 -71.719,-71.957496 -39.610003,0 -71.720003,32.216496 -71.720003,71.957496 0,20.543 8.579,39.073 22.339,52.185 0.11,0.105 0.467,-0.547 0.304,-0.704 z"
     clip-rule="evenodd"
     fill-rule="evenodd" />
  <path
     id="path74"
     fill="#ffffff"
     d="m 73.014277,197.27205 c 0.149,-0.192 0.3,-0.383 0.455,-0.574 -14.031,-13.193 -22.799,-31.952 -22.799,-52.769 0,-39.934 32.266,-72.306696 72.068003,-72.306696 39.802,0 72.067,32.372696 72.067,72.306696 0,20.875 -8.816,39.683 -22.917,52.882 0.102,0.127 -0.299,0.876 -0.199,1.003 0.05,0.065 0.605,-0.492 0.652,-0.429 14.268,-13.335 23.193,-32.351 23.193,-53.456 0,-40.336 -32.592,-73.035996 -72.796,-73.035996 -40.205003,0 -72.795003,32.699996 -72.795003,73.035996 0,21.047 8.873,40.014 23.071,53.343 z"
     clip-rule="evenodd"
     fill-rule="evenodd" />
  <path
     id="path76"
     fill="#ffffff"
     d="m 112.74428,176.16005 h -0.479 0.479 c 1.313,0.002 2.319,0.269 3.013,0.818 0.77,0.603 1.267,1.397 1.485,2.379 0.068,0.315 0.103,0.648 0.103,0.995 0,0.477 -0.067,0.925 -0.21,1.343 -0.192,0.567 -0.518,1.068 -0.975,1.505 -0.46,0.436 -0.99,0.741 -1.586,0.917 -0.444,0.127 -1.064,0.194 -1.87,0.194 h -0.396 0.396 -0.396 c -0.807,0 -1.429,-0.065 -1.87,-0.194 -0.598,-0.176 -1.128,-0.479 -1.587,-0.917 -0.456,-0.435 -0.784,-0.938 -0.974,-1.505 -0.143,-0.418 -0.211,-0.864 -0.211,-1.343 0,-0.347 0.034,-0.681 0.104,-0.995 0.217,-0.98 0.715,-1.774 1.484,-2.379 0.695,-0.549 1.7,-0.816 3.013,-0.818 h 0.479 z" />
  <path
     id="path78"
     fill="#00904f"
     d="m 112.50528,177.35505 h 0.232 c 0.999,0 1.723,0.187 2.168,0.553 0.706,0.587 1.054,1.357 1.054,2.332 0,0.506 -0.091,0.951 -0.275,1.346 -0.182,0.394 -0.458,0.728 -0.827,1 -0.474,0.348 -1.194,0.527 -2.16,0.527 h -0.383 0.383 -0.383 c -0.966,0 -1.686,-0.179 -2.16,-0.527 -0.369,-0.271 -0.645,-0.606 -0.827,-1 -0.184,-0.397 -0.275,-0.842 -0.275,-1.346 0.001,-0.977 0.35,-1.747 1.054,-2.332 0.445,-0.368 1.169,-0.553 2.168,-0.553 z" />
  <path
     id="path80"
     fill="#ffffff"
     d="m 151.69028,183.99205 0.019,-7.341 -0.026,-0.092 c -0.008,-0.012 -0.037,-0.039 -0.076,-0.06 l -0.221,-0.143 -0.024,-0.015 v -0.16 h 2.458 v 0.16 l -0.233,0.157 c -0.039,0.027 -0.064,0.054 -0.073,0.073 l -0.015,7.316 0.032,0.115 c 0.015,0.021 0.038,0.046 0.061,0.063 l 0.211,0.145 0.022,0.016 v 0.158 h -2.458 v -0.158 l 0.241,-0.159 c 0.05,-0.029 0.077,-0.056 0.082,-0.071 z" />
  <path
     id="path82"
     fill="#ffffff"
     d="m 147.44628,180.97405 0.012,-4.403 c 0.009,-0.017 0.034,-0.046 0.072,-0.074 l 0.234,-0.156 v -0.162 h -2.458 v 0.162 l 0.024,0.015 0.219,0.145 c 0.039,0.02 0.066,0.046 0.075,0.059 l 0.025,0.092 -0.022,7.311 c -0.006,0.015 -0.034,0.043 -0.081,0.072 l -0.241,0.158 v 0.158 h 2.457 v -0.158 l -0.022,-0.015 -0.21,-0.145 c -0.024,-0.017 -0.048,-0.043 -0.062,-0.063 l -0.032,-0.116 0.004,-0.878 c 1.005,-1.044 2.394,-2.449 3.39,-3.541 v 0.162 h 0.377 v -2.711 l -3.762,4.086 z" />
  <path
     id="path84"
     fill="#ffffff"
     d="m 94.721277,184.12505 v 0.183 h -2.324 v -0.183 l 0.28,-0.267 -0.005,-7.178 -0.013,-0.106 -0.067,-0.078 -0.207,-0.157 -0.022,-0.017 v -0.186 l 2.03,0.012 3.759,-0.013 1.037,1.68 -0.158,0.065 -0.02,0.008 -0.319,-0.242 c -0.07,-0.049 -0.123,-0.082 -0.16,-0.095 -0.034,-0.014 -0.085,-0.022 -0.149,-0.022 l -4.012,-0.023 0.042,6.35 0.306,0.267 z" />
  <path
     id="path86"
     fill="#ffffff"
     d="m 125.94728,183.95005 -0.019,-7.314 0.021,-0.093 c 0.007,-0.013 0.03,-0.039 0.063,-0.059 l 0.183,-0.143 0.021,-0.017 v -0.161 h -2.047 v 0.161 l 0.193,0.156 c 0.033,0.029 0.055,0.057 0.062,0.074 l 0.015,7.286 -0.026,0.116 c -0.011,0.021 -0.03,0.046 -0.051,0.063 l -0.174,0.145 -0.019,0.016 v 0.158 h 2.047 v -0.16 l -0.201,-0.159 c -0.041,-0.029 -0.063,-0.056 -0.068,-0.071 z" />
  <path
     id="path88"
     fill="#ffffff"
     d="m 130.95828,184.18005 v 0.158 h 2.052 v -0.158 l -0.248,-0.232 -0.026,-7.312 0.012,-0.091 0.06,-0.068 0.181,-0.136 0.021,-0.016 v -0.162 h -2.052 v 0.161 l 0.201,0.158 c 0.066,0.053 0.088,0.097 0.088,0.152 v 2.483 h -4.347 l -0.917,1.46 0.14,0.056 0.017,0.007 0.282,-0.209 c 0.061,-0.043 0.108,-0.072 0.14,-0.082 0.031,-0.012 0.075,-0.021 0.133,-0.021 h 4.552 l -0.021,3.616 -0.268,0.234 z" />
  <path
     id="path90"
     fill="#ffffff"
     d="m 144.42128,183.95805 -0.018,-7.312 0.022,-0.092 c 0.006,-0.012 0.03,-0.039 0.061,-0.06 l 0.185,-0.145 0.02,-0.015 v -0.16 h -2.045 v 0.16 l 0.194,0.157 c 0.032,0.027 0.053,0.056 0.059,0.073 l 0.017,7.287 -0.025,0.116 c -0.012,0.02 -0.031,0.046 -0.053,0.063 l -0.175,0.144 -0.017,0.016 v 0.158 h 2.045 v -0.158 l -0.2,-0.159 c -0.041,-0.03 -0.063,-0.058 -0.07,-0.071 z" />
  <path
     id="path92"
     fill="#ffffff"
     d="m 134.33428,184.07705 -0.269,0.133 v 0.133 l 1.087,-0.002 3.267,-0.003 c 0.796,0 1.722,-0.085 2.411,-0.46 0.527,-0.286 0.934,-0.67 1.154,-1.172 l 0.01,0.003 0.058,-0.186 c 0.001,-0.003 0.001,-0.005 0.003,-0.008 l 0.056,-0.174 -0.01,-0.004 c 0.027,-0.131 0.042,-0.265 0.042,-0.4 0,-0.269 -0.058,-0.533 -0.178,-0.782 -0.173,-0.355 -0.462,-0.641 -0.812,-0.871 -0.386,-0.254 -0.824,-0.423 -1.291,-0.516 -0.297,-0.06 -0.613,-0.087 -0.922,-0.097 l -2.276,0.02 c -0.025,0.024 -0.049,0.048 -0.068,0.073 -0.017,0.026 -0.027,0.053 -0.029,0.087 0.002,0.259 0.002,0.557 0.004,0.822 0.604,0 1.209,0.001 1.812,0.001 0.477,0 1.116,0.039 1.534,0.251 0.222,0.114 0.419,0.262 0.55,0.458 0.127,0.189 0.18,0.396 0.18,0.614 0,0.475 -0.258,0.813 -0.705,1.068 -0.392,0.225 -1.068,0.261 -1.529,0.261 h -1.793 l -1.452,0.003 -0.411,0.002 -0.427,0.002 0.004,0.743 z"
     clip-rule="evenodd"
     fill-rule="evenodd" />
  <path
     id="path94"
     fill="#ffffff"
     d="m 136.14628,176.49605 -0.016,6.012 0.021,0.075 c 0.007,0.01 0.03,0.032 0.064,0.049 l 0.189,0.118 0.02,0.012 v 0.133 h -2.091 v -0.133 l 0.197,-0.13 c 0.034,-0.022 0.055,-0.044 0.063,-0.059 l 0.014,-5.992 -0.026,-0.095 c -0.012,-0.017 -0.032,-0.038 -0.052,-0.053 l -0.18,-0.118 -0.019,-0.012 v -0.129 h 2.089 v 0.129 l -0.204,0.13 c -0.04,0.024 -0.064,0.046 -0.069,0.059 z" />
  <path
     id="path96"
     fill="#ffffff"
     d="m 99.684277,176.41105 -0.27,-0.133 v -0.135 l 1.087003,0.002 3.263,0.003 c 0.795,0 1.722,0.085 2.41,0.46 0.526,0.286 0.934,0.67 1.153,1.173 l 0.012,-0.004 0.058,0.186 c 0.001,0.003 0.001,0.005 0.003,0.008 l 0.056,0.174 -0.01,0.004 c 0.027,0.131 0.041,0.266 0.041,0.4 0,0.269 -0.056,0.534 -0.179,0.782 -0.173,0.353 -0.463,0.641 -0.811,0.871 -0.386,0.254 -0.824,0.423 -1.293,0.516 -0.297,0.062 -0.613,0.086 -0.922,0.098 l -2.276,-0.021 c -0.026,-0.025 -0.049,-0.048 -0.068,-0.073 -0.017,-0.024 -0.027,-0.051 -0.029,-0.085 0.002,-0.259 0.002,-0.558 0.002,-0.822 0.604,0 1.209,-0.001 1.814,-0.001 0.475,0 1.116,-0.04 1.533,-0.253 0.223,-0.114 0.42,-0.262 0.551,-0.458 0.127,-0.189 0.18,-0.395 0.18,-0.613 0,-0.476 -0.257,-0.813 -0.705,-1.071 -0.392,-0.225 -1.068,-0.26 -1.529,-0.26 h -1.793 l -1.449,-0.004 -0.413,-10e-4 -0.424003,-0.002 0.003,-0.745 z"
     clip-rule="evenodd"
     fill-rule="evenodd" />
  <path
     id="path98"
     fill="#ffffff"
     d="m 101.48928,183.99405 -0.015,-6.012 0.022,-0.075 c 0.007,-0.01 0.031,-0.033 0.065,-0.05 l 0.187,-0.117 0.02,-0.012 v -0.131 h -2.091003 v 0.131 l 0.197,0.129 c 0.032,0.022 0.055,0.046 0.061,0.06 l 0.014,5.992 -0.026,0.095 c -0.011,0.017 -0.032,0.038 -0.052,0.053 l -0.179,0.117 -0.018,0.012 v 0.13 h 2.091003 v -0.131 l -0.204,-0.13 c -0.041,-0.025 -0.065,-0.048 -0.07,-0.06 z" />
  <path
     id="path100"
     fill="#ffffff"
     d="m 118.02328,176.13305 -0.381,0.002 v 1.414 h 0.162 l 0.157,-0.153 c 0.028,-0.026 0.057,-0.041 0.074,-0.046 l 0.869,-0.029 0.404,10e-4 h 1.395 c 0.336,0 0.846,0.033 1.128,0.232 0.331,0.234 0.502,0.53 0.502,0.941 0,0.189 -0.035,0.371 -0.127,0.538 -0.09,0.169 -0.231,0.3 -0.391,0.403 -0.205,0.129 -0.492,0.187 -0.766,0.209 l -1.418,0.015 c -0.121,0 -0.241,0 -0.363,0 h -0.106 v 0.106 c 0,0.043 0,0.084 -10e-4,0.138 0,0.186 0,0.355 0,0.523 0,0.043 0,0.086 0,0.13 0,0.059 0,0.107 0,0.155 v 0.106 h 0.107 c 0.12,0 0.241,0 0.361,0 l 1.42,0.017 c 0.274,0.023 0.561,0.08 0.765,0.209 0.161,0.102 0.3,0.232 0.392,0.401 0.09,0.168 0.127,0.349 0.127,0.538 0,0.411 -0.173,0.707 -0.502,0.943 -0.282,0.199 -0.792,0.231 -1.128,0.231 h -1.395 l -1.231,0.004 c -0.036,0 0.144,0 0.109,0 l -0.437,-0.007 -0.093,-0.017 c -0.012,-0.005 -0.038,-0.024 -0.06,-0.05 l -0.153,-0.151 -0.168,-0.007 v 1.419 l 0.408,0.002 c 0.083,0 -0.333,0 -0.25,0 l 0.951,-0.002 2.322,-0.001 c 0.651,-0.002 1.383,-0.089 1.935,-0.46 0.718,-0.484 1.066,-1.147 1.066,-1.955 0,-0.271 -0.045,-0.538 -0.144,-0.792 -0.139,-0.353 -0.372,-0.645 -0.674,-0.89 0.302,-0.264 0.536,-0.557 0.676,-0.908 0.1,-0.252 0.146,-0.522 0.146,-0.793 0,-0.836 -0.372,-1.486 -1.067,-1.954 -0.552,-0.372 -1.284,-0.459 -1.933,-0.46 l -2.321,-0.004 h -0.641 c -0.092,0 0.369,0 0.277,0 z"
     clip-rule="evenodd"
     fill-rule="evenodd" />
  <path
     id="path102"
     fill="#ffffff"
     d="m 149.86828,176.69205 0.779,-0.787 0.418,-0.15 0.049,-0.173 -2.428,0.021 -0.043,0.152 0.285,0.16 -0.698,0.772 z" />
  <path
     id="path104"
     fill="#ffffff"
     d="m 118.00528,51.871854 4.193,-4.17 7.022,7.0056 0.025,0.0698 c -0.007,0.075 -0.168,0.2011 -0.739,0.2045 h -0.12 v 0.3903 h 6.501 l -5.625,-5.6099 c -0.098,-0.0989 0.408,0.3885 0.306,0.2897 l -3.263,-3.1015 -1.67,-1.6802 7.808,-7.7878 h -6.5 v 0.3903 h 0.121 c 0.571,0.0017 0.732,0.1295 0.739,0.2028 l -0.067,0.1891 c -0.027,0.0665 -0.045,0.0767 -0.095,0.104 l -4.443,4.4545 -4.443,-4.4545 c -0.049,-0.0273 -0.068,-0.0375 -0.095,-0.104 l -0.066,-0.1891 c 0.006,-0.0733 0.168,-0.2011 0.738,-0.2028 h 0.121 v -0.3903 h -6.5 l 7.808,7.7878 -1.67,1.6802 -2.274,2.1165 z m -0.43,-8.7813 -0.302,-0.288 -2.878,-2.8969 2.878,2.8969 z m 11.993,6.9613 -3.263,-3.1015 -1.67,-1.6802 7.808,-7.7878 h -6.5 v 0.3903 h 0.121 c 0.571,0.0017 0.732,0.1295 0.739,0.2028 l -0.067,0.1891 c -0.027,0.0665 -0.045,0.0767 -0.095,0.104 l -4.443,4.4545 -4.443,-4.4545 c -0.049,-0.0273 -0.068,-0.0375 -0.095,-0.104 l -0.066,-0.1891 c 0.006,-0.0733 0.168,-0.2011 0.738,-0.2028 h 0.121 v -0.3903 h -6.5 l 7.808,7.7878 -1.67,1.6802 -2.617,2.4369 2.196,2.8169 4.528,-4.5023 7.022,7.0056 0.025,0.0698 c -0.007,0.075 -0.168,0.2011 -0.739,0.2045 h -0.12 v 0.3903 h 6.501 l -5.625,-5.6099 c -0.098,-0.0989 0.408,0.3885 0.306,0.2897 z" />
  <path
     id="path106"
     fill="#ffffff"
     d="m 96.811277,54.980154 c -0.198,-0.046 -0.273,-0.1125 -0.292,-0.1756 l 8.718003,-11.414 -1.861,-2.4897 -11.026003,14.4951 h 4.803 v -0.3903 h -0.089 c -0.1,0 -0.191,-0.0102 -0.253,-0.0255 z" />
  <path
     id="path108"
     fill="#ffffff"
     d="m 104.02828,40.041754 2.152,2.8748 2.441,3.0793 -4.037,0.0034 -1.996,2.7504 0.248,0.1619 0.041,0.029 0.473,-0.3135 c 0.058,-0.0375 0.116,-0.0597 0.157,-0.0665 0.046,-0.0119 0.261,-0.0136 0.611,-0.0119 h 6.415 l 4.486,5.9643 c 0.037,0.029 0.051,0.0392 0.071,0.104 l 0.049,0.1874 c -0.005,0.0733 -0.125,0.2011 -0.553,0.2011 h -0.09 v 0.3902 h 4.864 l -13.458,-17.8112 z" />
  <path
     id="path110"
     fill="#ffffff"
     d="m 172.07128,40.640154 0.301,0.1278 0.034,0.0153 0.615,-0.3919 c 0.207,-0.1653 0.4,-0.2454 0.599,-0.2454 h 8.414 v 14.1628 l -0.054,0.2368 c -0.037,0.0563 -0.09,0.1125 -0.119,0.1312 l -0.394,0.3221 -0.041,0.0324 v 0.3459 h 4.476 v -0.3493 l -0.457,-0.3476 -0.144,-0.1653 c 0.008,0.0051 -0.004,-0.0835 -0.004,-0.2062 v -14.1628 h 7.484 c 0.315,0.046 0.409,0.1551 0.4,0.2454 v 0.3834 h 0.281 l 2.147,-3.2787 h -21.54 z" />
  <path
     id="path112"
     fill="#ffffff"
     d="m 140.68328,44.416054 v 0.3562 h -0.688 v -5.932 l 6.945,9.3146 7.271,-9.7525 v 5.7803 h -0.671 v -0.346 l -6.637,8.6961 c -1.796,-2.2938 -4.039,-5.2367 -6.22,-8.115 z"
     clip-rule="evenodd"
     fill-rule="evenodd" />
  <path
     id="path114"
     fill="#ffffff"
     d="m 139.20328,54.524854 -0.039,-15.9964 0.046,-0.201 c 0.015,-0.029 0.066,-0.0852 0.138,-0.1313 l 0.402,-0.3152 0.043,-0.0341 v -0.3527 h -4.478 v 0.3527 l 0.425,0.3442 c 0.07,0.0614 0.115,0.121 0.132,0.1602 l 0.036,15.9385 -0.056,0.2539 c -0.025,0.0443 -0.07,0.1005 -0.112,0.138 l -0.384,0.3153 -0.039,0.0323 v 0.346 h 4.477 v -0.3477 l -0.438,-0.3476 c -0.088,-0.0648 -0.139,-0.1244 -0.151,-0.1568 z" />
  <path
     id="path116"
     fill="#ffffff"
     d="m 158.16028,54.942354 c -0.199,-0.0477 -0.275,-0.1141 -0.292,-0.1772 l 8.745,-11.4481 -1.866,-2.4982 -11.063,14.5427 h 4.817 v -0.3902 h -0.086 c -0.102,0 -0.194,-0.0119 -0.255,-0.0256 z" />
  <path
     id="path118"
     fill="#ffffff"
     d="m 165.40128,39.956554 2.159,2.8833 2.447,3.0895 -4.049,0.0034 -1.999,2.7573 0.246,0.1636 0.043,0.0289 0.474,-0.3152 c 0.059,-0.0375 0.115,-0.0614 0.156,-0.0665 0.047,-0.0119 0.263,-0.0136 0.613,-0.0119 h 6.435 l 4.5,5.9831 c 0.037,0.0273 0.051,0.0392 0.071,0.1039 l 0.049,0.1875 c -0.003,0.075 -0.125,0.2028 -0.555,0.2028 h -0.09 v 0.3902 h 4.878 l -13.501,-17.8658 -1.879,2.4659 z" />
  <path
     id="path120"
     fill="#ffffff"
     d="m 158.19728,48.705654 -0.003,-10.3319 0.025,-0.2011 0.129,-0.1483 0.399,-0.2965 0.043,-0.0324 v -0.3527 h -4.489 v 0.3493 l 0.44,0.346 c 0.146,0.1141 0.193,0.2113 0.195,0.3306 0,2.6464 -0.026,14.6654 -0.02,14.6603 3.126,-4.1239 2.595,-3.3707 3.279,-4.325 z" />
  <path
     id="path122"
     fill="#ffffff"
     d="m 71.743277,44.145354 -0.014,-5.8263 c -0.017,-0.0392 -0.061,-0.0988 -0.132,-0.1602 l -0.425,-0.3442 v -0.3528 h 4.479 v 0.3528 l -0.042,0.0341 -0.403,0.3152 c -0.07,0.046 -0.121,0.104 -0.138,0.1312 l -0.045,0.2011 -0.011,15.0234 c 0,0.0357 0,-0.1466 0,-0.1108 v 0.9253 l 0.046,0.2011 c 0.017,0.0273 0.068,0.0852 0.138,0.1312 l 0.402,0.3153 0.043,0.0358 v 0.351 h -4.479 v -0.351 l 0.425,-0.3443 c 0.071,-0.0596 0.117,-0.121 0.132,-0.1602 l 0.024,-10.9232 c 0,-0.1858 0,0.743 0,0.5572 z" />
  <path
     id="path124"
     fill="#ffffff"
     d="m 75.538277,45.164454 0.002,-0.9764 4.983,-5.8417 h -0.281 v -0.864 h 4.725 l -7.419,8.7318 7.769,9.1425 h -4.605 v -0.8435 h 0.277 l -5.452,-6.387 -0.002,-2.9566 z"
     clip-rule="evenodd"
     fill-rule="evenodd" />
  <path
     id="path126"
     fill="#ffffff"
     d="m 57.746277,48.855354 -0.012,5.5656 c -0.017,0.0409 -0.063,0.1056 -0.132,0.1687 l -0.425,0.3647 v 0.3732 h 4.479 v -0.3732 l -0.043,-0.0375 -0.402,-0.334 c -0.07,-0.0495 -0.121,-0.1091 -0.138,-0.1381 l -0.046,-0.213 -0.008,-11.6083 0.002,-3.8206 0.045,-0.2539 c 0.017,-0.0358 0.067,-0.1074 0.138,-0.1653 l 0.403,-0.4005 0.042,-0.0426 v -0.4464 h -4.479 v 0.4464 l 0.425,0.4346 c 0.071,0.0767 0.117,0.1533 0.132,0.2028 l 0.017,10.9897 -10e-4,-2.3721 c 0,-0.5521 10e-4,1.106 10e-4,1.6581 z m 4.961,-9.5975 h -1.175 z m -4.976,-0.0494 0.001,2.3005 z m -1.644,0.0511 1.217,-0.0085 v 2.2306 l -2.386,0.0018 c -0.746,0 -1.841,0.0783 -2.478,0.5725 -0.727,0.5641 -1.141,1.3054 -1.141,2.3483 0,0.4805 0.085,0.9304 0.29,1.3462 0.212,0.4295 0.532,0.7566 0.893,1.0054 0.678,0.467 1.714,0.5539 2.485,0.5539 0.958,-0.0017 1.395,0.0153 2.336,0.017 v 2.1455 c -1.556,0.0272 -3.251,0.23 -4.732,-0.1738 -0.759,-0.2062 -1.469,-0.5777 -2.093,-1.1333 -0.567,-0.5061 -1.036,-1.1349 -1.316,-1.9137 -0.197,-0.5453 -0.287,-1.1264 -0.287,-1.7194 0,-0.2948 0.02,-0.5896 0.058,-0.8827 l 0.085,-0.392 0.107,-0.4158 c 0.363,-1.1008 1.025,-1.9444 1.878,-2.5732 1.116,-0.8213 2.617,-1.0088 3.908,-1.0088 l 2.397,-0.0017 -1.218,0.0017 z m 5.447,2.2239 2.343,0.0017 c 0.746,0 1.842,0.0783 2.479,0.5708 0.725,0.5658 1.141,1.3054 1.141,2.35 0,0.4805 -0.087,0.9304 -0.291,1.3462 -0.212,0.4295 -0.531,0.7566 -0.893,1.0054 -0.678,0.467 -1.714,0.5522 -2.485,0.5522 -0.98,0 -1.316,0.0085 -2.294,0.0102 -0.002,0.5828 -0.002,1.2372 -0.004,1.8046 l 0.004,0.3409 c 1.571,0.0221 3.193,0.2436 4.691,-0.167 0.759,-0.2079 1.469,-0.5777 2.092,-1.135 0.568,-0.5044 1.036,-1.1349 1.317,-1.912 0.197,-0.547 0.287,-1.1264 0.287,-1.7194 0,-0.2948 -0.021,-0.5896 -0.058,-0.8827 l -0.085,-0.3937 -0.107,-0.4141 c -0.364,-1.1008 -1.026,-1.9444 -1.879,-2.5732 -1.115,-0.823 -2.617,-1.0088 -3.908,-1.0105 l -2.354,-0.0034 v 2.2272 z" />
  <path
     id="path128"
     fill="#ffffff"
     d="m 116.60828,186.75105 v 5.48 h 1.077 v -5.909 c 0,-0.118 -0.056,-0.224 -0.167,-0.319 -0.11,-0.096 -0.236,-0.143 -0.372,-0.143 h -0.538 v 0.893 z m -0.246,-0.893 h -0.303 v 0.813 h 0.303 z m 4.526,0.813 h 1.106 v -0.351 c 0,-0.118 -0.061,-0.223 -0.185,-0.319 -0.124,-0.095 -0.287,-0.143 -0.493,-0.143 h -2.434 c -0.197,0 -0.338,0.048 -0.417,0.143 -0.082,0.096 -0.121,0.201 -0.121,0.319 v 2.549 c 0,0.176 0.041,0.297 0.121,0.363 0.079,0.067 0.22,0.099 0.417,0.099 h 2.025 v 2.096 h -1.24 v 0.804 h 1.649 c 0.206,0 0.369,-0.032 0.493,-0.098 0.124,-0.067 0.185,-0.188 0.185,-0.363 v -4.852 h -1.087 v 1.721 h -1.486 v -1.968 h 1.486 c 0.005,0 -0.026,0 -0.02,0 z m -1.467,4.698 v -1.106 h -1.079 v 1.505 c 0,0.175 0.056,0.296 0.168,0.363 0.111,0.066 0.236,0.099 0.372,0.099 h 0.537 z m 5.776,0.056 v -2.437 h -2.564 l 0.093,-2.072 h 1.111 l -0.116,1.251 h 1.896 c 0.197,0 0.358,0.036 0.482,0.107 0.124,0.072 0.185,0.193 0.185,0.363 v 3.131 c 0,0.175 -0.061,0.296 -0.185,0.363 -0.124,0.066 -0.285,0.099 -0.482,0.099 h -0.418 v -0.922 c 0,-0.039 0,0.157 0,0.117 z m -1.338,-4.756 h 2.024 l 0.4,-0.813 h -3.511 l -0.036,0.813 h 1.215 c 0.03,0 -0.123,0 -0.092,0 z m 1.09,4.756 h -1.229 v -1.274 h -1.087 v 1.617 c 0,0.175 0.062,0.296 0.186,0.363 0.124,0.066 0.289,0.099 0.493,0.099 h 1.639 v -0.805 z m 3.005,0 v -2.206 h 1.486 v 2.206 h -1.238 v 0.805 h 1.778 c 0.199,0 0.336,-0.033 0.418,-0.099 0.081,-0.067 0.122,-0.188 0.122,-0.363 v -2.901 c 0,-0.025 -0.015,-0.059 -0.047,-0.098 -0.031,-0.04 -0.063,-0.079 -0.094,-0.116 -0.037,-0.043 -0.081,-0.085 -0.131,-0.128 0.05,-0.07 0.094,-0.133 0.131,-0.191 0.031,-0.053 0.061,-0.107 0.094,-0.158 0.032,-0.053 0.047,-0.094 0.047,-0.12 v -1.14 h -1.078 v 1.49 h -1.356 v -1.737 h 2.434 v -0.351 c 0,-0.117 -0.056,-0.223 -0.166,-0.318 -0.112,-0.096 -0.236,-0.144 -0.372,-0.144 h -2.424 c -0.211,0 -0.355,0.048 -0.431,0.144 -0.078,0.095 -0.116,0.201 -0.116,0.318 v 1.737 c 0,0.025 0.014,0.066 0.041,0.119 0.029,0.053 0.058,0.106 0.088,0.158 0.038,0.058 0.083,0.123 0.14,0.191 -0.075,0.043 -0.143,0.085 -0.204,0.128 -0.05,0.038 -0.095,0.075 -0.14,0.116 -0.044,0.041 -0.064,0.073 -0.064,0.099 v 2.9 c 0,0.176 0.061,0.297 0.185,0.363 0.124,0.067 0.29,0.099 0.501,0.099 h 0.399 v -0.85 c 0,-0.017 0,0.061 0,0.046 z" />
</svg>
