<?xml version="1.0" encoding="UTF-8" standalone="no"?>
<svg
   xmlns:dc="http://purl.org/dc/elements/1.1/"
   xmlns:cc="http://creativecommons.org/ns#"
   xmlns:rdf="http://www.w3.org/1999/02/22-rdf-syntax-ns#"
   xmlns:svg="http://www.w3.org/2000/svg"
   xmlns="http://www.w3.org/2000/svg"
   xmlns:sodipodi="http://sodipodi.sourceforge.net/DTD/sodipodi-0.dtd"
   xmlns:inkscape="http://www.inkscape.org/namespaces/inkscape"
   inkscape:version="1.0 (4035a4fb49, 2020-05-01)"
   sodipodi:docname="Rotor_1.svg"
   id="svg122"
   version="1.1"
   fill="none"
   viewBox="0 0 239.58099 300"
   height="300"
   width="239.58099">
  <metadata
     id="metadata128">
    <rdf:RDF>
      <cc:Work
         rdf:about="">
        <dc:format>image/svg+xml</dc:format>
        <dc:type
           rdf:resource="http://purl.org/dc/dcmitype/StillImage" />
      </cc:Work>
    </rdf:RDF>
  </metadata>
  <defs
     id="defs126" />
  <sodipodi:namedview
     inkscape:current-layer="svg122"
     inkscape:window-maximized="1"
     inkscape:window-y="-8"
     inkscape:window-x="-8"
     inkscape:cy="149.99999"
     inkscape:cx="120"
     inkscape:zoom="2.4285714"
     showgrid="false"
     id="namedview124"
     inkscape:window-height="1017"
     inkscape:window-width="1920"
     inkscape:pageshadow="2"
     inkscape:pageopacity="0"
     guidetolerance="10"
     gridtolerance="10"
     objecttolerance="10"
     borderopacity="1"
     bordercolor="#666666"
     pagecolor="#ffffff" />
  <path
     id="path2"
     fill="#ffffff"
     d="m 121.18,297.18099 -0.354,0.111 -0.798,0.136 h -0.476 l -0.798,-0.136 -0.354,-0.111 c -50.241,-23.33 -79.4827,-53.237 -96.0331,-84.605 -16.5554,-31.378 -20.3892,-64.162 -19.8365,-93.278 l 0.0133,-0.688 0.5561,-0.417 c 3.6274,-2.724 7.5258,-6.519 10.5132,-11.002 2.6927,-4.042 4.6351,-8.636995 4.9343,-13.486995 0.2968,-4.814 -0.2697,-11.427 -4.0973,-16.525 -2.538,-3.3809 -6.6808,-7.7824 -11.6679,-11.1055 l -0.9952,-0.6634 0.4812,-1.0831 c 4.7605,-10.711 8.9955,-18.2969 13.4846,-28.4141 4.4266,-9.9764 7.8441,-19.1991 12.538,-29.7604001 l 0.6998,-1.5746 1.4058,0.9888 c 19.6487,13.8197001 29.6207,8.5284001 39.7177,3.4203 10.956,-5.5425 23.168,-11.7154 49.676,1.2549001 26.508,-12.9703001 38.72,-6.7974001 49.676,-1.2549001 10.097,5.1081001 20.068,9.8939001 39.718,-3.9259 l 1.406,-0.9888 0.699,1.5745 c 4.664,10.4945001 8.056,20.1631001 12.454,30.0762001 4.517,10.1808 8.779,17.3202 13.569,28.0982 l 0.481,1.0832 -0.995,0.6634 c -4.987,3.3232 -9.13,9.2418 -11.668,12.6222 -3.827,5.098 -4.394,10.7 -4.097,15.514 0.299,4.85 2.241,9.444995 4.934,13.485995 2.987,4.483 6.886,8.279 10.514,11.003 l 0.556,0.417 0.013,0.688 c 0.552,29.116 -3.281,61.9 -19.837,93.278 -16.55,31.368 -45.791,61.275 -96.033,84.605 z"
     clip-rule="evenodd"
     fill-rule="evenodd" />
  <path
     id="path4"
     fill="#1a1a18"
     d="m 119.79,296.42799 c 25.028,-11.677 44.837,-24.965 60.454,-39.235 15.658,-14.308 27.089,-29.591 35.335,-45.221 8.195,-15.531 13.266,-31.431 16.228,-47.073 2.91,-15.363 3.785,-30.505 3.59,-44.815 -1.856,-1.486 -3.744,-3.204 -5.542,-5.114 -1.813,-1.924 -3.541,-4.049 -5.064,-6.334 -1.654,-2.483 -3.071,-5.163 -4.101,-7.995 -0.948,-2.609995 -1.567,-5.329995 -1.739,-8.119995 -0.19,-3.085 0.161,-6.274 1.206,-9.519 0.953,-2.959 2.486,-5.945 4.717,-8.9163 1.404,-1.8709 3.076,-3.7257 5.043,-5.5506 1.57,-1.4572 3.338,-2.9054 5.319,-4.3405 -2.163,-4.8689 -4.275,-9.6254 -6.36,-14.3223 -2.269,-5.1127 -4.508,-10.1571 -6.746,-15.2024 -2.143,-4.8294 -4.287,-9.6616 -6.46,-14.5571 -1.903,-4.2876 -3.829,-8.6243 -5.796,-13.0515001 -9.765,6.3059001 -17.177,8.3772001 -23.515,8.2018001 -6.745,-0.1866 -12.079,-2.8836 -17.722,-5.7384001 -5.195,-2.6283 -10.691,-5.4083 -17.976,-5.9381 -7.348,-0.5344 -16.625,1.1831 -29.462,7.5560001 l -0.64,0.3181 -0.769,0.3821 -0.769,-0.3821 -0.641,-0.3181 C 105.544,4.7699949 96.267,3.0524949 88.919,3.5865949 c -7.285,0.53 -12.781,3.3098 -17.976,5.9381 -5.643,2.8548001 -10.977,5.5518001 -17.721,5.7384001 -6.339,0.1756 -13.7499,-1.8962 -23.5149,-8.2017001 -1.9823,4.4613001 -3.923,8.8306001 -5.8403,13.1500001 -2.1872,4.9275 -4.3457,9.7911 -6.5029,14.6532 -2.2241,5.0127 -4.4485,10.0256 -6.7036,15.106 -2.0706,4.6652 -4.168,9.3892 -6.3164,14.224 1.9814,1.4347 3.7489,2.883 5.3185,4.3395 1.9673,1.8254 3.6393,3.6804 5.044,5.5514 2.2306,2.9715 3.7639,5.9565 4.7167,8.9155 1.0447,3.246 1.3958,6.435 1.2059,9.52 -0.172,2.791 -0.7904,5.511 -1.7394,8.120995 -1.0298,2.832 -2.4468,5.512 -4.1006,7.994 -1.5229,2.286 -3.2518,4.41 -5.0638,6.334 -1.7987,1.91 -3.6856,3.628 -5.5415,5.114 -0.1957,14.31 0.6799,29.452 3.5896,44.816 2.9622,15.641 8.0334,31.542 16.2275,47.072 8.2463,15.63 19.6772,30.913 35.3352,45.221 15.617,14.27 35.427,27.558 60.454,39.235 z m 62.81,-36.661 c -15.925,14.552 -36.139,28.095 -61.697,39.982 l -0.21,0.097 -0.226,0.039 -0.384,0.065 -0.293,0.05 -0.293,-0.05 -0.383,-0.065 -0.226,-0.039 -0.21,-0.097 c -25.559,-11.887 -45.773,-25.43 -61.698,-39.982 -15.9568,-14.581 -27.624,-30.19 -36.0572,-46.174 -8.3676,-15.859 -13.5447,-32.09 -16.5679,-48.053 -3.0202,-15.947 -3.8904,-31.599 -3.6463,-46.333 l 0.0139,-0.832 0.6673,-0.516 c 1.9254,-1.491 3.9119,-3.265 5.8024,-5.272 1.6851,-1.789 3.2887,-3.759 4.6961,-5.871 1.5146,-2.273 2.8053,-4.709 3.7325,-7.258995 0.8282,-2.278 1.369,-4.668 1.5215,-7.14 0.1665,-2.703 -0.1324,-5.47 -1.0285,-8.253 -0.8392,-2.606 -2.1995,-5.249 -4.1855,-7.895 -1.2689,-1.6899 -2.8046,-3.389 -4.6357,-5.0882 -1.7656,-1.6382 -3.7926,-3.2627 -6.105,-4.8632 L 0,65.395295 l 0.5816,-1.3092 c 2.3496,-5.2877 4.6368,-10.4376 6.892,-15.5183 2.2551,-5.0805 4.4795,-10.0934 6.7036,-15.106 2.1571,-4.8622 4.3155,-9.7258 6.5029,-14.6533 2.1871,-4.9274 4.4046,-9.9201001 6.6796,-15.0398001 l 0.8494,-1.9108 1.7245,1.1687 c 9.936,6.7337 17.1704,8.9166001 23.1924,8.7498001 5.987,-0.1656 10.975,-2.6877001 16.251,-5.3568001 5.515,-2.7902 11.35,-5.74140003 19.297,-6.31960003 7.861,-0.5717 17.687,1.21340003 31.116,7.86060003 13.429,-6.6477 23.255,-8.43250003 31.116,-7.86060003 7.947,0.5779 13.782,3.52940003 19.297,6.31960003 5.277,2.6691 10.264,5.1912001 16.251,5.3568001 6.022,0.1665 13.257,-2.0161001 23.193,-8.7501001 l 1.725,-1.1686 0.849,1.9109 c 2.26,5.0853 4.463,10.0456001 6.636,14.9413001 2.173,4.8955 4.317,9.7277 6.459,14.5572 2.239,5.0453 4.477,10.0897 6.747,15.2023 2.269,5.1124 4.571,10.2949 6.936,15.6167 l 0.582,1.3092 -1.188,0.8223 c -2.313,1.6008 -4.34,3.2255 -6.106,4.8643 -1.831,1.6988 -3.367,3.3979 -4.635,5.0881 -1.987,2.645 -3.347,5.288 -4.186,7.894 -0.896,2.783 -1.195,5.55 -1.028,8.253 0.152,2.471 0.693,4.861 1.521,7.139 0.928,2.550995 2.218,4.986995 3.733,7.259995 1.407,2.112 3.01,4.082 4.696,5.871 1.89,2.007 3.877,3.781 5.803,5.271 l 0.667,0.517 0.014,0.832 c 0.244,14.734 -0.627,30.386 -3.646,46.332 -3.024,15.964 -8.201,32.194 -16.569,48.054 -8.433,15.984 -20.1,31.593 -36.057,46.174 z"
     clip-rule="evenodd"
     fill-rule="evenodd" />
  <path
     id="path6"
     fill="#e2000f"
     d="M 15.3202,62.729495 H 119.242 v 25.7015 H 29.8364 c -0.2016,-4.351 -1.2133,-8.717 -3.2859,-12.878 -2.3133,-4.6444 -5.9429,-9.0233 -11.2303,-12.8235 z"
     clip-rule="evenodd"
     fill-rule="evenodd" />
  <path
     id="path8"
     fill="#008ad1"
     d="m 24.5446,37.006295 h 94.6974 v 25.7016 H 15.2902 c -0.3302,-0.2369 -0.6661,-0.4716 -1.0093,-0.7039 4.1417,-9.3476 6.6637,-15.7961 9.1858,-22.244 0.3578,-0.9149 0.7155,-1.8302 1.0779,-2.7537 z"
     clip-rule="evenodd"
     fill-rule="evenodd" />
  <path
     id="path10"
     fill="#ffffff"
     d="m 119.242,19.901595 v 17.1049 H 24.5446 c 2.1638,-5.5107 4.4955,-11.3208 7.9899,-19.2178 15.9555,9.8254 25.2775,5.3898 35.7225,0.4188 11.693,-5.5646 24.841,-11.8213001 50.985,1.6941 z"
     clip-rule="evenodd"
     fill-rule="evenodd" />
  <path
     id="path12"
     fill="#1a1a18"
     d="m 120.801,289.45699 0.017,-0.009 c -0.417,0.207 -0.694,0.31 -1.028,0.31 -0.334,0 -0.61,-0.104 -1.027,-0.31 l 0.017,0.009 c -35.002,-16.198 -62.815,-38.98 -81.5097,-67.481 -18.0645,-27.54 -27.6106,-60.407 -26.9005,-97.819 l 0.0084,-0.442 0.394,-0.196 c 3.5253,-1.756 7.3232,-5.452 10.51,-10.296 3.2644,-4.962 5.8696,-11.109 6.8696,-17.591995 0.9958,-6.457 0.3988,-13.249 -2.7299,-19.53 -2.4227,-4.8643 -6.3712,-9.4349 -12.2818,-13.3235 l -0.5128,-0.3372 0.2492,-0.561 c 4.2843,-9.6396 6.8476,-16.192 9.4105,-22.7445 2.5709,-6.5728 5.1422,-13.1464 9.4296,-22.7931 l 0.3423,-0.7702 0.709,0.4498 c 15.7161,9.9729 24.8181,5.6416 35.0351,0.779 11.955,-5.6897 25.393,-12.0811001 51.987,1.5725 26.594,-13.6536001 40.032,-7.2622 51.987,-1.5725 10.218,4.8626 19.319,9.1939 35.036,-0.779 l 0.709,-0.4498 0.342,0.7702 c 4.287,9.6467 6.859,16.2203 9.43,22.7931 2.563,6.5525 5.126,13.1049 9.41,22.7445 l 0.249,0.561 -0.513,0.3372 c -5.91,3.8886 -9.859,8.4592 -12.281,13.3235 -3.129,6.281 -3.726,13.073 -2.73,19.53 1,6.483995 3.605,12.629995 6.869,17.591995 3.187,4.844 6.985,8.54 10.51,10.296 l 0.394,0.196 0.009,0.442 c 0.71,37.412 -8.836,70.279 -26.901,97.819 -18.694,28.5 -46.507,51.283 -81.509,67.481 z m -0.624,-1.306 0.017,-0.009 c 34.754,-16.083 62.36,-38.689 80.904,-66.96 17.835,-27.19 27.291,-59.635 26.668,-96.569 -3.634,-1.937 -7.474,-5.717 -10.68,-10.591 -3.369,-5.12 -6.057,-11.467 -7.091,-18.170995 -1.038,-6.729 -0.41,-13.82 2.866,-20.396 2.462,-4.9431 6.414,-9.5847 12.269,-13.5489 -4.141,-9.3478 -6.663,-15.7962 -9.185,-22.244 -2.494,-6.3753 -4.988,-12.7513 -9.068,-21.9717 -15.956,9.8255 -25.278,5.3898 -35.723,0.4189 -11.7,-5.5682 -24.856,-11.8292001 -51.032,1.7185 l -0.332,0.1718 -0.331,-0.1718 c -26.176,-13.5477001 -39.332,-7.2867 -51.032,-1.7185 -10.446,4.9709 -19.767,9.4066 -35.7233,-0.4189 -4.08,9.2204 -6.5742,15.5964 -9.0679,21.9717 -2.522,6.4478 -5.0442,12.8962 -9.1858,22.244 5.8554,3.9642 9.8078,8.6058 12.2698,13.5489 3.2756,6.576 3.9039,13.667 2.8659,20.396 -1.034,6.703995 -3.7228,13.050995 -7.0909,18.170995 -3.2065,4.874 -7.0459,8.654 -10.6805,10.591 -0.6229,36.934 8.8335,69.379 26.6687,96.57 18.543,28.27 46.149,50.876 80.903,66.959 l 0.017,0.009 c 0.211,0.104 0.329,0.156 0.387,0.156 0.059,0 0.177,-0.052 0.387,-0.156 z"
     clip-rule="evenodd"
     fill-rule="evenodd" />
  <path
     id="path14"
     fill="#008ad1"
     d="m 102.113,124.28699 h 34.543 v 155.44 c -5.292,2.975 -10.78,5.78 -16.462,8.409 l -0.016,0.008 c -0.211,0.105 -0.329,0.157 -0.388,0.157 -0.058,0 -0.176,-0.053 -0.387,-0.157 l -0.017,-0.008 c -5.972,-2.764 -11.733,-5.721 -17.273,-8.865 z"
     clip-rule="evenodd"
     fill-rule="evenodd" />
  <path
     id="path16"
     fill="#a0d8f7"
     d="m 69.401,124.22899 h 32.75 v 155.063 c -11.982,-6.797 -22.93,-14.476 -32.75,-22.99 z"
     clip-rule="evenodd"
     fill-rule="evenodd" />
  <path
     id="path18"
     fill="#008ad1"
     d="M 36.7003,124.17199 H 69.45 v 132.172 c -12.098,-10.482 -22.482,-22.231 -30.967,-35.168 -0.6041,-0.921 -1.1977,-1.849 -1.7827,-2.782 z"
     clip-rule="evenodd"
     fill-rule="evenodd" />
  <path
     id="path20"
     fill="#a0d8f7"
     d="m 12.519,124.20899 h 24.373 v 94.492 c -16.8055,-26.678 -25.6818,-58.275 -25.0777,-94.094 0.2343,-0.125 0.469,-0.258 0.7047,-0.398 z"
     clip-rule="evenodd"
     fill-rule="evenodd" />
  <path
     id="path22"
     fill="#a0d8f7"
     d="m 169.442,124.28299 h -32.75 v 155.424 c 11.97,-6.731 22.919,-14.335 32.75,-22.769 z"
     clip-rule="evenodd"
     fill-rule="evenodd" />
  <path
     id="path24"
     fill="#008ad1"
     d="m 202.284,124.38699 h -32.749 v 132.471 c 12.353,-10.612 22.938,-22.534 31.563,-35.682 0.4,-0.61 0.794,-1.224 1.186,-1.84 z"
     clip-rule="evenodd"
     fill-rule="evenodd" />
  <path
     id="path26"
     fill="#a0d8f7"
     d="m 227.267,124.32899 h -25.004 v 95.041 c 17.08,-26.818 26.112,-58.644 25.503,-94.763 -0.166,-0.089 -0.332,-0.181 -0.499,-0.278 z"
     clip-rule="evenodd"
     fill-rule="evenodd" />
  <path
     id="path28"
     fill="#1a1a18"
     d="M 209.704,88.437995 H 29.4147 v 1.384 H 209.704 Z" />
  <path
     id="path30"
     fill="#1a1a18"
     d="M 228.189,123.38899 H 11.7662 v 1.384 H 228.189 Z" />
  <path
     id="path32"
     fill="#1a1a18"
     d="m 120.448,19.146695 h -1.384 v 69.3813 h 1.384 z" />
  <path
     id="path34"
     fill="#1a1a18"
     d="M 119.96,36.517095 H 23.484 v 1.7434 h 96.476 z" />
  <path
     id="path36"
     fill="#1a1a18"
     d="M 119.96,61.773195 H 14.2711 v 1.7434 H 119.96 Z" />
  <path
     id="path38"
     fill="#1a1a18"
     d="m 37.2316,124.33299 h -1.7432 v 94.798 h 1.7432 z" />
  <path
     id="path40"
     fill="#1a1a18"
     d="m 70.222,124.33299 h -1.743 v 132.866 h 1.743 z" />
  <path
     id="path42"
     fill="#1a1a18"
     d="m 102.979,124.33299 h -1.743 v 155.866 h 1.743 z" />
  <path
     id="path44"
     fill="#1a1a18"
     d="m 203.236,124.71199 h -1.744 v 95.667 h 1.744 z" />
  <path
     id="path46"
     fill="#1a1a18"
     d="m 170.54,124.71199 h -1.743 v 132.985 h 1.743 z" />
  <path
     id="path48"
     fill="#1a1a18"
     d="m 137.636,124.71199 h -1.743 v 155.7 h 1.743 z" />
  <path
     id="path50"
     fill="#0095d4"
     d="m 182.569,33.613095 c 8.138,0.0602 14.658,6.3121 14.658,14.4506 0,14.9555 -13.439,14.7972 -23.922,14.7972 v 22.7461 c 2.278,0 3.161,0 5.906,0 0,-1.039 -0.037,-15.469 0,-15.4697 13.24,-0.2707 24.759,-7.2486 24.759,-21.829 0,-24.5133 -26.025,-21.3221 -42.471,-21.1724 l 11.702,6.4079 z"
     clip-rule="evenodd"
     fill-rule="evenodd" />
  <path
     id="path52"
     fill="#0095d4"
     d="m 164.133,85.606995 h 5.906 v -20.8814 l -5.906,2.5069 z"
     clip-rule="evenodd"
     fill-rule="evenodd" />
  <path
     id="path54"
     fill="#0095d4"
     d="m 183.13,42.492495 c 2.751,0 5.002,1.8175 5.002,4.0389 v 2.0112 c 0,2.2214 -2.251,4.0389 -5.002,4.0389 h -2.882 c -0.421,0 -0.83,-0.0427 -1.221,-0.1226 v -9.8438 c 0.391,-0.08 0.8,-0.1226 1.221,-0.1226 z m -0.073,-6.1146 h -5.498 c -0.802,0 -1.582,0.1008 -2.328,0.2897 v 23.2608 c 0.746,0.1889 1.526,0.2897 2.328,0.2897 h 5.498 c 14.139,0 13.949,-23.8402 0,-23.8402 z"
     clip-rule="evenodd"
     fill-rule="evenodd" />
  <path
     id="path56"
     fill="#0095d4"
     d="m 179.186,48.434595 c 0,-11.8751 -9.594,-21.502 -21.429,-21.502 -11.834,0 -21.428,9.6269 -21.428,21.502 0,11.8752 9.594,21.502 21.428,21.502 11.835,0 21.429,-9.6268 21.429,-21.502 z m -10.715,14.6397 c -1.862,1.3428 -3.177,2.8209 -3.29,3.6218 -2.25,0.9025 -4.705,1.3995 -7.276,1.3995 -2.456,0 -4.805,-0.4538 -6.971,-1.2804 -0.557,-2.3087 -5.291,-6.0009 -7.9,-5.5723 -2.94,-3.4325 -4.717,-7.894 -4.717,-12.7714 0,-0.4167 0.013,-0.83 0.039,-1.2401 l -0.001,-6e-4 c 0.053,0.0516 0.112,0.0879 0.177,0.1069 0.722,0.2112 1.93,-1.7451 2.699,-4.3699 0.731,-2.497 0.8,-4.6993 0.184,-5.0898 2.652,-4.1355 6.812,-7.2083 11.702,-8.4392 0.004,0.7515 2.219,1.3604 4.952,1.3604 2.63,0 4.782,-0.5643 4.942,-1.2769 4.91,1.3248 9.056,4.5135 11.637,8.7617 -0.535,0.5062 -0.317,2.6485 0.545,5.0308 0.674,1.8646 1.558,3.364 2.262,3.9503 0.024,0.399 0.037,0.8012 0.037,1.2064 0,4.8052 -1.725,9.2063 -4.587,12.6178 -0.816,-0.1114 -2.603,0.6652 -4.434,1.985 z m -3.22,4.0012 c -0.006,-0.0092 -0.012,-0.0186 -0.018,-0.0283 0.006,0.0097 0.012,0.0191 0.018,0.0283 z m -0.019,-0.03 c -0.011,-0.019 -0.021,-0.0388 -0.029,-0.0597 0.008,0.0208 0.018,0.0408 0.029,0.0597 z m -0.031,-0.0657 c -0.004,-0.0097 -0.007,-0.0195 -0.01,-0.0296 0.003,0.0101 0.006,0.0199 0.01,0.0296 z"
     clip-rule="evenodd"
     fill-rule="evenodd" />
  <path
     id="path58"
     fill="#ffffff"
     d="m 141.415,37.877895 c 0.616,0.3905 0.547,2.5928 -0.184,5.0898 -0.768,2.6248 -1.977,4.5811 -2.699,4.3699 -0.065,-0.019 -0.124,-0.0552 -0.176,-0.1063 -0.025,0.4101 -0.039,0.8234 -0.039,1.2401 0,4.8774 1.777,9.3389 4.717,12.7714 2.609,-0.4285 7.343,3.2637 7.901,5.5724 2.165,0.8265 4.515,1.2803 6.97,1.2803 2.571,0 5.026,-0.497 7.276,-1.3995 0.113,-0.8008 1.428,-2.279 3.291,-3.6218 1.83,-1.3198 3.617,-2.0964 4.433,-1.985 2.862,-3.4115 4.587,-7.8126 4.587,-12.6178 0,-0.4052 -0.013,-0.8073 -0.037,-1.2064 -0.704,-0.5862 -1.588,-2.0857 -2.262,-3.9503 -0.862,-2.3823 -1.08,-4.5246 -0.545,-5.0308 -2.581,-4.2482 -6.727,-7.4369 -11.637,-8.7617 -0.16,0.7126 -2.311,1.2769 -4.942,1.2769 -2.733,0 -4.948,-0.6089 -4.952,-1.3604 -4.89,1.2309 -9.05,4.3037 -11.702,8.4392 z"
     clip-rule="evenodd"
     fill-rule="evenodd" />
  <path
     id="path60"
     fill="#0095d4"
     d="m 157.511,57.513295 -0.014,-1.476 c -2.886,-0.1871 -5.321,-2.0608 -6.363,-4.6625 l -1.42,0.565 c 1.25,3.1295 4.291,5.3909 7.797,5.5735 z"
     clip-rule="evenodd"
     fill-rule="evenodd" />
  <path
     id="path62"
     fill="#0095d4"
     d="m 150.591,48.541395 c 0,-2.2488 0.971,-4.2668 2.51,-5.6434 l -0.721,-1.139 c -1.969,1.6309 -3.225,5.0818 -3.225,6.8746 0,1.7927 0.079,1.4933 0.283,2.2438 l 1.383,-0.4701 c -0.15,-0.5966 -0.23,-1.2217 -0.23,-1.8659 z"
     clip-rule="evenodd"
     fill-rule="evenodd" />
  <path
     id="path64"
     fill="#0095d4"
     d="m 153.904,42.273395 c 1.167,-0.7856 2.565,-1.243 4.069,-1.243 1.53,0 2.951,0.4732 4.129,1.2837 l 0.707,-1.1171 c -1.388,-0.9201 -3.05,-1.4553 -4.836,-1.4553 -1.76,0 -3.399,0.5199 -4.776,1.4158 z"
     clip-rule="evenodd"
     fill-rule="evenodd" />
  <path
     id="path66"
     fill="#0095d4"
     d="m 162.899,42.947095 c 1.508,1.3752 2.456,4.1492 2.456,5.5943 0,1.4451 -0.138,1.529 -0.299,2.1455 l 1.384,0.449 c 0.215,-0.7701 0.351,-0.7108 0.351,-2.5024 0,-1.7915 -1.232,-5.1969 -3.169,-6.8278 z"
     clip-rule="evenodd"
     fill-rule="evenodd" />
  <path
     id="path68"
     fill="#0095d4"
     d="m 164.787,51.436995 c -1.049,2.5516 -3.442,4.3889 -6.278,4.596 l 0.014,1.4752 c 3.445,-0.2137 6.382,-2.5133 7.635,-5.5842 z"
     clip-rule="evenodd"
     fill-rule="evenodd" />
  <path
     id="path70"
     fill="#0095d4"
     d="m 150.333,39.044095 -0.851,-1.1889 c -1.305,0.8264 -2.874,1.3084 -4.562,1.3084 -0.778,0 -1.532,-0.1026 -2.246,-0.2944 v 1.4841 c 0.72,0.1603 1.472,0.2453 2.245,0.2453 2.01,0 3.874,-0.5739 5.414,-1.5545 z"
     clip-rule="evenodd"
     fill-rule="evenodd" />
  <path
     id="path72"
     fill="#0095d4"
     d="m 150.352,37.026595 0.786,1.2464 c 2.032,-1.5274 3.376,-3.8237 3.504,-6.4459 0,-0.0188 0.001,-0.0375 0.002,-0.0561 l -1.344,-0.3872 c -0.001,0.0156 -0.001,0.0312 -0.002,0.0468 -0.111,2.2672 -1.238,4.2572 -2.946,5.596 z"
     clip-rule="evenodd"
     fill-rule="evenodd" />
  <path
     id="path74"
     fill="#0095d4"
     d="m 140.928,46.236295 -0.613,1.3277 c 1.363,0.726 2.781,2.2471 3.391,3.3193 0.609,1.0722 0.606,1.158 0.792,1.8734 l 1.352,-0.5087 c -0.216,-0.7052 -0.514,-1.4009 -0.896,-2.073 -0.993,-1.747 -2.413,-3.0847 -4.026,-3.9387 z"
     clip-rule="evenodd"
     fill-rule="evenodd" />
  <path
     id="path76"
     fill="#0095d4"
     d="m 165.507,39.117895 0.852,-1.1889 c 1.305,0.8263 2.873,1.3081 4.561,1.3081 0.779,0 1.533,-0.1024 2.246,-0.2942 v 1.4841 c -0.72,0.1603 -1.472,0.2453 -2.245,0.2453 -2.009,0 -3.874,-0.5738 -5.414,-1.5544 z"
     clip-rule="evenodd"
     fill-rule="evenodd" />
  <path
     id="path78"
     fill="#0095d4"
     d="m 174.913,46.309795 0.613,1.3279 c -1.363,0.7259 -2.782,2.2471 -3.391,3.3192 -0.61,1.0722 -0.582,1.0628 -0.768,1.7781 L 170,52.291295 c 0.216,-0.7054 0.199,-0.8332 0.887,-2.0428 0.687,-1.2095 2.413,-3.0845 4.026,-3.9387 z"
     clip-rule="evenodd"
     fill-rule="evenodd" />
  <path
     id="path80"
     fill="#0095d4"
     d="m 169.668,53.016795 1.39,0.4544 c -0.394,1.493 -0.222,3.4876 0.15,4.6634 0.372,1.1758 0.56,1.4298 0.958,2.0525 l -1.414,0.4478 c -0.371,-0.6382 -0.492,-0.74 -0.912,-2.0663 -0.419,-1.3266 -0.642,-3.7879 -0.172,-5.5518 z"
     clip-rule="evenodd"
     fill-rule="evenodd" />
  <path
     id="path82"
     fill="#0095d4"
     d="m 165.67,64.075595 -1.081,0.9851 c -1.103,-1.0805 -2.982,-1.9741 -4.188,-2.2315 -1.206,-0.2575 -1.287,-0.2285 -2.025,-0.1899 l 0.077,-1.4424 c 0.738,-0.0066 1.491,0.0672 2.247,0.2286 1.965,0.4194 3.669,1.3699 4.97,2.6501 z"
     clip-rule="evenodd"
     fill-rule="evenodd" />
  <path
     id="path84"
     fill="#0095d4"
     d="m 146.22,53.094195 -1.386,0.4735 c 0.394,1.4933 0.198,3.3867 -0.175,4.5625 -0.372,1.1758 -0.56,1.4298 -0.958,2.0525 l 1.415,0.4479 c 0.37,-0.6382 0.491,-0.74 0.911,-2.0663 0.42,-1.3266 0.664,-3.7063 0.193,-5.4701 z"
     clip-rule="evenodd"
     fill-rule="evenodd" />
  <path
     id="path86"
     fill="#0095d4"
     d="m 150.198,64.071495 1.08,0.985 c 1.104,-1.0805 2.982,-1.9741 4.188,-2.2314 1.206,-0.2575 1.17,-0.2348 1.909,-0.1961 l 0.04,-1.4362 c -0.738,-0.0066 -1.491,0.0674 -2.247,0.2286 -1.965,0.4194 -3.669,1.3698 -4.97,2.6501 z"
     clip-rule="evenodd"
     fill-rule="evenodd" />
  <path
     id="path88"
     fill="#0095d4"
     d="m 164.473,38.478495 0.918,-1.1391 c -1.146,-1.0353 -2.031,-2.4176 -2.484,-4.0435 -0.209,-0.7502 -0.312,-1.5036 -0.319,-2.2427 l -1.429,0.3979 c 0.038,0.7367 0.158,1.4838 0.365,2.2286 0.539,1.9358 1.592,3.5784 2.949,4.7988 z"
     clip-rule="evenodd"
     fill-rule="evenodd" />
  <path
     id="path90"
     fill="#0095d4"
     d="m 157.433,58.705495 c -3.928,-0.1856 -7.674,-2.8795 -9.129,-6.3229 l -0.632,0.2462 c 0.23,0.8405 0.394,1.4164 0.394,2.8276 0,1.4111 -0.536,3.6922 -1.466,5.2083 1.403,0.549 2.626,1.4243 3.56,2.5252 1.704,-1.9936 4.488,-3.3245 7.273,-3.4967 z"
     clip-rule="evenodd"
     fill-rule="evenodd" />
  <path
     id="path92"
     fill="#0095d4"
     d="m 148.033,51.370095 c -0.266,-0.8993 -0.409,-1.8517 -0.409,-2.8374 0,-3.1201 1.432,-5.9056 3.675,-7.7353 l -0.374,-0.5879 c -1.578,1.0455 -3.47,1.6543 -5.504,1.6543 -0.98,0 -1.927,-0.1412 -2.822,-0.4046 -0.167,1.5611 -0.788,2.9965 -1.736,4.1874 2.968,0.8577 5.405,3.1303 6.536,5.9717 z"
     clip-rule="evenodd"
     fill-rule="evenodd" />
  <path
     id="path94"
     fill="#0095d4"
     d="m 164.367,41.126195 c 2.169,1.8304 3.547,5.6413 3.547,7.6291 0,1.9878 -0.153,1.8924 -0.384,2.7345 l 0.719,0.2334 c 1.088,-2.8711 3.513,-5.2411 6.471,-6.143 -0.818,-1.1536 -1.342,-2.5079 -1.469,-3.968 -0.977,0.319 -2.019,0.4915 -3.102,0.4915 -1.988,0 -3.841,-0.5817 -5.396,-1.5839 z"
     clip-rule="evenodd"
     fill-rule="evenodd" />
  <path
     id="path96"
     fill="#0095d4"
     d="m 167.281,52.287795 c -1.394,3.4979 -4.911,6.1918 -8.845,6.4353 v 0.9879 c 2.955,0.1396 5.699,1.5547 7.434,3.7178 0.81,-1.2474 1.955,-2.2807 3.317,-2.9895 -0.969,-1.5386 -1.531,-3.9093 -1.531,-5.3137 0,-1.4045 0.15,-1.8016 0.352,-2.5943 z"
     clip-rule="evenodd"
     fill-rule="evenodd" />
  <path
     id="path98"
     fill="#0095d4"
     d="m 152.375,39.945995 c 0.788,-0.5082 0.496,-0.5235 2.466,-1.1002 1.97,-0.5768 6.07,-0.2848 8.456,1.3534 l 0.459,-0.6352 c -1.446,-1.2205 -2.71,-3.2602 -3.134,-4.7066 -0.423,-1.4464 -0.406,-1.8888 -0.404,-2.8214 -1.546,0.278 -2.877,0.5306 -4.507,-0.0448 0.011,3.0897 -1.284,5.4756 -3.693,7.3595 z"
     clip-rule="evenodd"
     fill-rule="evenodd" />
  <path
     id="path100"
     fill="#000003"
     d="m 87.793,106.49299 2.109,1.876 v 3.94 l -4.055,-3.547 v -4.319 l 3.979,-3.806 0.038,4.09 z m 5.034,-0.036 2.109,1.876 v 3.939 l -4.055,-3.547 v -4.318 l 3.98,-3.806 0.038,4.089 z"
     clip-rule="evenodd"
     fill-rule="evenodd" />
  <path
     id="path102"
     fill="#1a1a18"
     d="m 89.795,100.71299 0.037,3.999 -2.088,1.781 2.125,1.891 v 3.853 l -3.99,-3.49 v -4.29 z"
     clip-rule="evenodd"
     fill-rule="evenodd" />
  <path
     id="path104"
     fill="#1a1a18"
     d="m 94.829,100.67599 0.037,3.999 -2.088,1.782 2.126,1.89 v 3.854 l -3.991,-3.49 v -4.29 z"
     clip-rule="evenodd"
     fill-rule="evenodd" />
  <path
     id="path106"
     fill="#000003"
     d="m 104.214,108.95399 v 6.882 h -4.093 V 97.519995 h 6.535 c 1.002,0 2.01,0.011 3.01,0.066 0.559,0.031 1.208,0.07 1.754,0.199 1.187,0.279 2.174,0.883 2.959,1.816 0.855,1.015995 1.168,2.272995 1.168,3.580995 0,1.203 -0.28,2.362 -1.008,3.337 -0.654,0.877 -1.489,1.518 -2.518,1.889 -1.415,0.51 -3.688,0.546 -5.183,0.546 z m 13.755,-2.165 c 0,-1.857 0.315,-3.777 1.296,-5.383 0.834,-1.364 1.95,-2.442995 3.387,-3.155995 1.56,-0.773 3.334,-1.036 5.061,-1.036 2.613,0 5.059,0.677 7.026,2.46 2.017,1.829995 2.718,4.341995 2.718,7.003995 0,2.768 -0.789,5.294 -2.878,7.178 -1.894,1.709 -4.352,2.286 -6.849,2.286 -2.495,0 -4.982,-0.554 -6.883,-2.26 -2.075,-1.862 -2.878,-4.345 -2.878,-7.093 z m 27.11,-6.12 h -5.94 v -3.148995 h 15.973 v 3.148995 h -5.94 v 15.167 h -4.093 z m 11.777,6.12 c 0,-1.857 0.315,-3.777 1.297,-5.383 0.833,-1.364 1.949,-2.442995 3.387,-3.155995 1.56,-0.773 3.334,-1.036 5.061,-1.036 2.613,0 5.059,0.677 7.025,2.46 2.018,1.829995 2.719,4.341995 2.719,7.003995 0,2.768 -0.789,5.294 -2.878,7.178 -1.894,1.709 -4.352,2.286 -6.849,2.286 -2.496,0 -4.982,-0.554 -6.884,-2.26 -2.075,-1.862 -2.878,-4.345 -2.878,-7.093 z m 26.698,2.165 v 6.882 h -4.093 V 97.519995 h 6.535 c 1.001,0 2.01,0.011 3.01,0.066 0.558,0.031 1.208,0.07 1.754,0.199 1.187,0.279 2.174,0.883 2.959,1.816 0.854,1.015995 1.168,2.272995 1.168,3.580995 0,1.203 -0.28,2.362 -1.008,3.337 -0.654,0.877 -1.489,1.518 -2.518,1.889 -1.415,0.51 -3.689,0.546 -5.183,0.546 z m -79.34,-8.285 v 5.136 h 2.215 c 0.861,0 2.236,0.003 3.063,-0.237 0.522,-0.152 0.966,-0.427 1.315,-0.844 0.362,-0.431 0.511,-0.941 0.511,-1.5 0,-0.566 -0.155,-1.085 -0.527,-1.517 -0.352,-0.408 -0.789,-0.687 -1.31,-0.826 -0.373,-0.1 -0.834,-0.133 -1.219,-0.158 -0.699,-0.045 -1.406,-0.054 -2.106,-0.054 z m 17.984,5.996 c 0,1.682 0.344,3.466 1.589,4.689 1.092,1.071 2.424,1.562 3.949,1.562 1.517,0 2.851,-0.474 3.931,-1.549 1.242,-1.235 1.561,-3.083 1.561,-4.765 0,-1.636 -0.304,-3.455 -1.515,-4.655 -1.088,-1.078 -2.461,-1.507 -3.977,-1.507 -1.523,0 -2.898,0.438 -3.994,1.516 -1.234,1.213 -1.544,3.05 -1.544,4.709 z m 38.888,0 c 0,1.682 0.344,3.466 1.589,4.689 1.091,1.071 2.424,1.562 3.948,1.562 1.518,0 2.851,-0.475 3.932,-1.549 1.241,-1.236 1.56,-3.083 1.56,-4.765 0,-1.636 -0.304,-3.455 -1.515,-4.655 -1.088,-1.078 -2.461,-1.507 -3.977,-1.507 -1.523,0 -2.897,0.439 -3.994,1.516 -1.234,1.213 -1.543,3.05 -1.543,4.709 z m 22.468,-5.996 v 5.136 h 2.214 c 0.862,0 2.237,0.003 3.064,-0.237 0.522,-0.152 0.966,-0.427 1.315,-0.844 0.361,-0.431 0.51,-0.941 0.51,-1.5 0,-0.566 -0.154,-1.085 -0.526,-1.517 -0.352,-0.408 -0.789,-0.687 -1.31,-0.826 -0.373,-0.1 -0.834,-0.133 -1.219,-0.158 -0.699,-0.045 -1.406,-0.054 -2.107,-0.054 z"
     clip-rule="evenodd"
     fill-rule="evenodd" />
  <path
     id="path108"
     fill="#1a1a18"
     d="M 100.153,115.80299 V 97.551995 h 6.503 c 2.424,0 4.011,0.09 4.757,0.264 1.189,0.28 2.167,0.883 2.941,1.805 0.774,0.917995 1.161,2.107995 1.161,3.560995 0,1.317 -0.336,2.425 -1.002,3.318 -0.665,0.892 -1.502,1.516 -2.503,1.877 -1.001,0.361 -2.725,0.544 -5.172,0.544 h -2.657 v 6.882 z m 4.028,-15.166 v 5.2 h 2.248 c 1.502,0 2.531,-0.081 3.072,-0.238 0.54,-0.157 0.984,-0.442 1.331,-0.854 0.347,-0.416 0.518,-0.922 0.518,-1.521 0,-0.608 -0.176,-1.122 -0.535,-1.538 -0.358,-0.416 -0.802,-0.697 -1.325,-0.837 -0.524,-0.14 -1.633,-0.212 -3.335,-0.212 z m 13.82,6.151 c 0,-2.171 0.432,-3.959 1.292,-5.365 0.859,-1.406 1.985,-2.455995 3.373,-3.143995 1.389,-0.688 3.073,-1.032 5.047,-1.032 2.867,0 5.2,0.815 7.004,2.451 1.803,1.634995 2.708,3.958995 2.708,6.979995 0,3.05 -0.956,5.438 -2.868,7.154 -1.672,1.517 -3.954,2.277 -6.827,2.277 -2.902,0 -5.189,-0.752 -6.861,-2.251 -1.912,-1.717 -2.868,-4.074 -2.868,-7.07 z m 4.165,-0.123 c 0,2.095 0.535,3.666 1.598,4.712 1.07,1.049 2.396,1.572 3.972,1.572 1.593,0 2.913,-0.519 3.954,-1.56 1.047,-1.036 1.57,-2.633 1.57,-4.788 0,-2.107 -0.506,-3.67 -1.525,-4.677 -1.018,-1.011 -2.349,-1.517 -3.999,-1.517 -1.645,0 -2.982,0.51 -4.017,1.525 -1.035,1.02 -1.553,2.596 -1.553,4.733 z m 22.945,9.138 v -15.166 h -5.939 v -3.084995 h 15.907 v 3.084995 h -5.939 v 15.166 z m 11.778,-9.015 c 0,-2.171 0.432,-3.959 1.291,-5.365 0.859,-1.406 1.986,-2.455995 3.374,-3.143995 1.388,-0.688 3.072,-1.032 5.047,-1.032 2.867,0 5.2,0.815 7.003,2.451 1.804,1.634995 2.709,3.958995 2.709,6.979995 0,3.05 -0.956,5.438 -2.868,7.154 -1.673,1.517 -3.954,2.277 -6.827,2.277 -2.902,0 -5.189,-0.752 -6.862,-2.251 -1.912,-1.717 -2.867,-4.074 -2.867,-7.07 z m 4.164,-0.123 c 0,2.095 0.535,3.666 1.599,4.712 1.07,1.049 2.395,1.572 3.971,1.572 1.593,0 2.913,-0.519 3.955,-1.56 1.046,-1.036 1.57,-2.633 1.57,-4.788 0,-2.107 -0.506,-3.67 -1.525,-4.677 -1.018,-1.011 -2.35,-1.517 -4,-1.517 -1.644,0 -2.981,0.51 -4.016,1.525 -1.036,1.02 -1.554,2.596 -1.554,4.733 z m 18.44,9.138 V 97.551995 h 6.503 c 2.424,0 4.011,0.09 4.756,0.264 1.189,0.28 2.168,0.883 2.942,1.805 0.774,0.917995 1.161,2.107995 1.161,3.560995 0,1.317 -0.336,2.425 -1.002,3.318 -0.666,0.892 -1.502,1.516 -2.503,1.877 -1.001,0.361 -2.725,0.544 -5.172,0.544 h -2.657 v 6.882 z m 4.028,-15.166 v 5.2 h 2.247 c 1.502,0 2.532,-0.081 3.073,-0.238 0.54,-0.157 0.984,-0.442 1.331,-0.854 0.347,-0.416 0.518,-0.922 0.518,-1.521 0,-0.608 -0.177,-1.122 -0.535,-1.538 -0.359,-0.416 -0.802,-0.697 -1.326,-0.837 -0.523,-0.14 -1.632,-0.212 -3.334,-0.212 z"
     clip-rule="evenodd"
     fill-rule="evenodd" />
  <path
     id="path110"
     fill="#000003"
     d="m 64.793,105.36399 6.651,-7.796995 5.041,-0.013 -7.418,8.717995 7.527,9.633 -5.066,-0.082 -6.746,-8.132 0.05,8.138 -4.248,0.007 -0.084,-18.250995 4.207,0.009 z"
     clip-rule="evenodd"
     fill-rule="evenodd" />
  <path
     id="path112"
     fill="#1a1a18"
     d="m 60.532,97.616995 4.142,0.01 0.088,7.823995 6.697,-7.851995 4.956,-0.013 -7.39,8.684995 7.502,9.601 -4.984,-0.081 -6.794,-8.19 0.05,8.195 -4.183,0.008 z"
     clip-rule="evenodd"
     fill-rule="evenodd" />
  <path
     id="path114"
     fill="#000003"
     d="m 204.715,107.51099 -2.072,-1.767 0.038,-4.089 3.98,3.806 v 4.319 l -4.055,3.547 v -3.94 z m -5.035,-0.036 -2.071,-1.767 0.038,-4.089 3.979,3.806 v 4.318 l -4.055,3.547 v -3.939 z"
     clip-rule="evenodd"
     fill-rule="evenodd" />
  <path
     id="path116"
     fill="#1a1a18"
     d="m 202.713,101.72999 -0.038,4 2.089,1.781 -2.126,1.89 v 3.854 l 3.99,-3.49 v -4.29 z"
     clip-rule="evenodd"
     fill-rule="evenodd" />
  <path
     id="path118"
     fill="#1a1a18"
     d="m 197.678,101.69399 -0.037,3.999 2.088,1.782 -2.125,1.89 v 3.854 l 3.99,-3.49 v -4.29 z"
     clip-rule="evenodd"
     fill-rule="evenodd" />
  <path
     id="path120"
     stroke-miterlimit="22.9256"
     stroke-width="0.216"
     stroke="#000003"
     fill="#1a1a18"
     d="m 52.538,109.07499 3.522,1.082 c -0.541,1.983 -1.442,3.454 -2.7,4.418 -1.258,0.96 -2.851,1.443 -4.783,1.443 -2.394,0 -4.3605,-0.818 -5.9031,-2.453 -1.5387,-1.635 -2.31,-3.869 -2.31,-6.708 0,-2.997 0.7756,-5.328 2.3226,-6.987995 1.5469,-1.66 3.5845,-2.491 6.1085,-2.491 2.205,0 3.995,0.655 5.37,1.958 0.822,0.771995 1.434,1.877995 1.845,3.324995 l -3.597,0.855 c -0.214,-0.931 -0.659,-1.668 -1.334,-2.209 -0.679,-0.541 -1.5,-0.809 -2.465,-0.809 -1.337,0 -2.423,0.477 -3.253,1.438 -0.8342,0.955 -1.2492,2.507 -1.2492,4.653 0,2.272 0.4108,3.895 1.2282,4.859 0.822,0.968 1.887,1.45 3.199,1.45 0.968,0 1.803,-0.306 2.499,-0.922 0.695,-0.616 1.199,-1.58 1.5,-2.901 z"
     clip-rule="evenodd"
     fill-rule="evenodd" />
</svg>
