<svg xmlns="http://www.w3.org/2000/svg" xmlns:xlink="http://www.w3.org/1999/xlink" xml:space="preserve" width="285.764174316" height="349.938897132" viewBox="0 0 6430.0 7874.0" version="1.1" style="shape-rendering:geometricPrecision; text-rendering:geometricPrecision; image-rendering:optimizeQuality; fill-rule:evenodd; clip-rule:evenodd"><rect id="backgroundrect" width="100%" height="100%" x="0" y="0" fill="none" stroke="none"/>
 <defs>
  <style type="text/css">
   <![CDATA[

    .fil1 {fill:#FEFEFE}

    .fil0 {fill:#46A95A}

    .fil2 {fill:#ADD2A7}

    .fil3 {fill:#46A95A;fill-rule:nonzero}

   ]]>
  </style>
 </defs>
 
<g class="currentLayer"><title>Layer 1</title><g id="Слой_x0020_1" class="">
  <g id="_155829968">
   <path class="fil0" d="M0,0 l6430,0 l0,4666 c0,1768 -1449,3208 -3215,3208 c-1758,0 -3215,-1448 -3215,-3208 l0,-4666 z" id="svg_1"/>
   <path class="fil1" d="M159,159 l6112,0 l0,4507 c0,1677 -1375,3049 -3056,3049 c-1673,0 -3056,-1380 -3056,-3049 l0,-4507 z" id="svg_2"/>
   <g id="svg_3">
    <path class="fil0" d="M2507,2403 l-180,636 c-17,5 -68,27 -74,77 c-8,71 18,47 12,102 c-3,28 -11,42 -17,63 c-6,21 -9,50 -4,90 c4,31 27,30 27,76 l6,349 c1,56 -46,73 -44,129 l13,272 c-42,-14 -115,-5 -157,22 c-106,69 -171,100 -287,140 c-103,35 -258,-161 -479,-85 c-55,19 -115,75 -138,155 c-33,117 -9,283 115,419 c244,268 540,396 816,598 c312,229 368,638 638,856 c231,186 688,222 991,234 c437,18 746,-273 645,-508 c-70,-164 -220,-186 -399,-275 c-388,-194 -890,-428 -791,-746 c104,-333 501,-511 901,-550 c311,-30 658,-18 884,-23 c-35,-265 -100,-434 -136,-509 l-215,-6 c-38,-1 -15,61 -36,101 c-85,3 -207,-48 -292,-46 c-55,2 -103,55 -135,58 c-260,-25 -525,-40 -785,-65 c2,-51 22,-70 70,-66 l277,22 l26,-81 l-335,-276 c-46,-7 -231,15 -347,23 c-10,-24 -3,-64 -12,-93 c-15,-49 -37,-102 -84,-146 c-42,42 -75,97 -75,138 l0,142 c-62,-3 -127,-5 -189,-8 c-6,-80 -5,-174 -11,-253 l44,-41 l-2,-200 c0,-28 -44,-34 -78,-45 l-164,-680 z" id="svg_4"/>
    <path class="fil2" d="M3187,6426 c212,0 416,-36 605,-102 l25,-302 l641,-383 l192,57 c215,-289 344,-644 349,-1028 l-426,349 l-400,-269 l-91,-724 l-699,-59 l-308,602 l-618,108 l-213,-481 c-70,-8 -122,-1 -152,16 c-124,73 -249,151 -351,151 l-237,136 l-122,-112 c-3,19 -5,38 -7,57 l156,143 l207,613 l-128,382 c11,18 33,6 44,24 l125,-379 l485,139 l480,452 l-51,391 l-355,41 l7,49 l356,-45 c36,57 187,141 255,160 c76,9 153,14 231,14 zm1362,-1368 l-112,539 l-633,378 l-457,-305 l189,-616 l617,-262 l396,266 zm-2234,278 l144,-608 l627,-112 l406,420 l-192,626 l-509,124 l-476,-449 z" id="svg_5"/>
    <path class="fil2" d="M4813,3859 c-294,-594 -914,-1003 -1631,-1003 c-167,0 -329,22 -482,64 l27,111 c46,15 88,41 88,96 l2,228 l-43,40 c3,55 3,110 6,164 c20,1 39,2 59,3 l0,-74 c0,-67 48,-137 94,-184 l46,-46 l48,44 c52,49 82,108 102,174 c4,14 6,28 7,42 c22,-2 44,-4 66,-6 c44,-4 88,-8 133,-11 c30,-2 69,-5 99,-1 l19,3 l384,316 l-37,115 c121,9 243,19 364,30 c6,-3 12,-7 16,-10 c15,-9 30,-19 46,-26 c25,-12 51,-20 78,-21 c53,-2 110,12 161,25 c22,5 48,12 74,16 c2,-27 5,-52 32,-75 c17,-14 38,-21 60,-21 l183,5 zm-2628,-700 c-367,240 -630,601 -743,1032 c70,0 117,20 187,51 c22,10 125,63 146,55 c105,-36 179,-73 272,-133 c33,-21 79,-35 124,-38 l-9,-198 c-2,-38 9,-67 29,-99 c6,-9 15,-21 15,-33 l-6,-349 c0,-2 0,-5 -1,-7 c-11,-21 -23,-36 -26,-61 c-5,-39 -4,-78 6,-115 c5,-18 13,-35 15,-54 c0,-2 1,-5 1,-7 c-9,-19 -7,-28 -9,-44 z" id="svg_6"/>
    <path class="fil2" d="M1762,5800 c20,-16 51,-35 74,-47 c28,-14 66,-24 97,-31 c27,-6 91,-13 112,10 c16,18 -27,44 -38,51 c-24,14 -51,27 -78,36 c-37,13 -84,18 -123,13 c-15,11 -69,50 -56,68 c18,24 110,27 139,26 c24,-5 49,-3 73,1 c16,3 37,10 49,22 c10,11 16,20 18,34 l12,-5 l23,39 l-114,48 c-36,15 -23,22 6,25 c46,4 112,2 145,-2 l29,-12 l24,35 l-61,27 c44,-4 99,-5 116,26 c15,26 2,46 -23,59 c-10,5 -21,9 -31,13 c-12,4 -53,18 -60,24 c-20,14 29,13 34,14 c36,3 77,0 113,-3 l5,0 l1,20 l-5,0 c-44,4 -88,9 -133,5 c-15,-2 -32,-3 -45,-12 c-12,-8 -25,-23 -22,-37 c2,-9 9,-19 16,-25 c25,-18 56,-22 85,-34 c4,-2 29,-9 22,-16 c-26,-26 -128,-3 -160,7 c-10,3 -22,8 -32,12 l-28,-37 l88,-37 c-47,1 -114,-1 -143,-19 c-20,-12 -12,-36 1,-50 c-25,-1 -53,-1 -71,-18 c-11,-10 -17,-22 -15,-37 c3,-16 14,-30 27,-40 c-37,-3 -97,-11 -117,-33 c-27,-31 -6,-75 21,-97 c-37,-5 -76,-9 -110,-19 c-15,-5 -30,-12 -43,-22 c-38,-30 -35,-87 3,-115 c44,-33 122,-30 167,1 c35,25 30,69 -5,90 c-39,23 -106,-13 -137,-42 c-17,15 -23,44 1,57 c38,23 102,24 146,31 zm239,194 c8,-6 0,-10 -5,-16 c-19,-19 -69,-15 -93,-7 c-13,5 -61,21 -47,41 c7,11 56,8 69,6 c26,-4 51,-17 77,-25 zm-159,-185 c16,0 30,-4 49,-7 c18,-3 37,-11 52,-20 c4,-2 21,-14 22,-19 c-11,-11 -87,28 -123,46 zm-205,-112 c24,17 81,34 104,16 c5,-4 11,-16 4,-23 c-11,-11 -40,-9 -54,-8 c-22,0 -37,7 -55,16 z" id="svg_7"/>
   </g>
   <g id="svg_8">
    <path class="fil0" d="M5421,3617 l-188,1 c67,-40 174,-125 169,-210 c-4,-75 -76,-104 -124,-106 c-57,-3 -138,35 -162,58 l15,62 c36,-45 68,-57 102,-57 c44,0 94,38 77,101 c-28,102 -163,144 -214,165 l-48,57 l306,0 l66,-71 z" id="svg_9"/>
    <polygon class="fil0" points="988,3622 888,3626 913,3277 741,3380 742,3438 836,3378 807,3624 729,3629 681,3686 928,3683 " id="svg_10"/>
    <path class="fil0" d="M1226,3326 c-91,4 -164,97 -161,177 c3,70 48,122 130,111 c19,-2 46,-15 69,-33 c17,-13 28,-19 44,-45 c-12,131 -78,190 -125,207 c-56,21 -111,-11 -128,-18 l-62,63 c79,22 284,44 375,-193 c5,-13 25,-83 16,-147 c-7,-55 -50,-129 -158,-124 zm43,211 c-52,42 -108,7 -119,-9 c-38,-54 -17,-144 58,-153 c54,-6 98,46 101,83 c3,31 -17,60 -40,79 z" id="svg_11"/>
    <path class="fil0" d="M5836,3617 l-190,1 c67,-40 174,-125 169,-210 c-4,-75 -76,-104 -124,-106 c-57,-3 -138,35 -162,58 l15,62 c36,-45 68,-57 102,-57 c44,0 94,38 77,101 c-28,102 -163,144 -214,165 l-48,57 l306,0 l68,-71 z" id="svg_12"/>
   </g>
   <g id="svg_13">
    <polygon class="fil3" points="696,1394 696,2117 969,2117 969,1758 975,1758 1474,2117 1820,2117 1224,1721 1785,1394 1461,1394 975,1703 969,1703 969,1394 " id="svg_14"/>
    <path class="fil3" d="M2006,1394 l0,723 l273,0 l0,-298 l104,0 c45,0 81,6 108,18 c27,12 49,29 65,50 l173,229 l305,0 l-219,-280 c-16,-21 -35,-38 -58,-51 c-22,-13 -50,-22 -82,-26 l0,-2 c19,-2 40,-6 63,-11 c23,-5 46,-11 69,-20 c23,-8 44,-18 63,-31 c19,-13 35,-28 46,-45 c12,-18 18,-38 18,-62 c0,-25 -6,-48 -20,-72 c-14,-23 -37,-44 -71,-63 c-34,-19 -80,-34 -138,-45 c-59,-11 -133,-17 -222,-17 l-476,0 zm273,114 l146,0 c43,0 78,3 106,8 c28,5 51,12 67,20 c16,8 29,17 36,26 c8,9 13,17 15,25 c3,8 4,14 3,19 c0,11 -4,22 -11,34 c-8,12 -20,22 -38,32 c-18,10 -41,18 -71,25 c-29,6 -65,9 -109,10 l-146,0 l0,-198 z" id="svg_15"/>
    <polygon class="fil3" points="3255,1394 3255,2117 3528,2117 3528,1758 3533,1758 4033,2117 4378,2117 3783,1721 4344,1394 4019,1394 3533,1703 3528,1703 3528,1394 " id="svg_16"/>
    <path class="fil3" d="M4972,1394 l-536,723 l292,0 l113,-163 l555,0 l113,163 l307,0 l-534,-723 l-311,0 zm-44,441 l186,-295 l4,0 l198,295 l-388,0 z" id="svg_17"/>
   </g>
   <polygon class="fil3" points="661,581 782,581 942,873 967,936 969,936 967,854 967,581 1061,581 1061,1044 939,1044 778,741 754,690 752,690 754,772 754,1044 661,1044 " id="svg_18"/>
   <path class="fil3" d="M1144,873 c0,-53 16,-96 47,-128 c31,-32 75,-48 130,-48 c28,0 53,4 75,12 c22,8 40,20 56,36 c15,16 27,34 35,56 c8,22 12,46 12,72 c0,35 -7,66 -21,93 c-14,27 -34,47 -61,62 c-27,15 -58,22 -95,22 c-37,0 -69,-7 -95,-22 c-27,-15 -47,-36 -61,-62 c-14,-27 -21,-57 -21,-92 zm94,0 c0,23 4,43 11,60 c7,17 17,30 30,38 c13,9 27,13 42,13 c24,0 44,-10 59,-29 c16,-20 23,-47 23,-82 c0,-35 -8,-63 -23,-82 c-16,-20 -35,-29 -59,-29 c-16,0 -30,4 -42,13 c-13,9 -23,21 -30,38 c-7,17 -11,37 -11,60 z" id="svg_19"/>
   <path class="fil3" d="M1593,1167 l7,-76 c38,19 73,28 106,28 c31,0 55,-8 73,-23 c18,-16 27,-38 27,-69 l0,-45 l-2,0 c-18,41 -53,62 -104,62 c-23,0 -44,-5 -62,-14 c-18,-9 -33,-22 -45,-37 c-12,-16 -21,-34 -27,-55 c-6,-21 -9,-42 -9,-65 c0,-36 6,-68 19,-95 c13,-27 30,-47 52,-60 c22,-13 45,-20 70,-20 c24,0 46,5 66,14 c20,10 35,25 45,45 l2,0 l0,-58 l85,0 l0,316 c0,27 -4,53 -12,78 c-8,25 -25,48 -50,67 c-26,19 -63,29 -113,29 c-46,0 -88,-8 -128,-24 zm130,-395 c-22,0 -40,9 -53,28 c-13,19 -20,42 -20,72 c0,25 4,45 12,60 c8,15 18,26 30,32 c12,6 25,9 38,9 c22,0 40,-10 54,-29 c14,-20 21,-46 21,-79 c0,-27 -7,-50 -21,-67 c-14,-17 -35,-26 -61,-26 z" id="svg_20"/>
   <path class="fil3" d="M1988,873 c0,-53 16,-96 47,-128 c31,-32 75,-48 130,-48 c28,0 53,4 75,12 c22,8 40,20 56,36 c15,16 27,34 35,56 c8,22 12,46 12,72 c0,35 -7,66 -21,93 c-14,27 -34,47 -61,62 c-27,15 -58,22 -95,22 c-37,0 -69,-7 -95,-22 c-27,-15 -47,-36 -61,-62 c-14,-27 -21,-57 -21,-92 zm94,0 c0,23 4,43 11,60 c7,17 17,30 30,38 c13,9 27,13 42,13 c24,0 44,-10 59,-29 c16,-20 23,-47 23,-82 c0,-35 -8,-63 -23,-82 c-16,-20 -35,-29 -59,-29 c-16,0 -30,4 -42,13 c-13,9 -23,21 -30,38 c-7,17 -11,37 -11,60 z" id="svg_21"/>
   <path class="fil3" d="M2512,1044 l-90,0 l0,-343 l85,0 l0,58 l2,0 c6,-13 14,-25 24,-34 c10,-9 22,-17 36,-22 c14,-5 29,-7 44,-7 c18,0 36,4 55,12 c19,8 32,25 39,52 l2,0 c14,-27 32,-44 54,-52 c21,-8 41,-12 59,-12 c45,0 74,13 88,38 c14,25 21,52 21,82 l0,228 l-90,0 l0,-193 c0,-25 -3,-45 -9,-60 c-6,-15 -20,-22 -42,-22 c-20,0 -36,8 -50,23 c-13,16 -20,36 -20,62 l0,189 l-90,0 l0,-193 c0,-25 -3,-45 -9,-60 c-6,-15 -20,-22 -40,-22 c-20,0 -37,7 -50,22 c-14,15 -21,36 -21,63 l0,189 z" id="svg_22"/>
   <path class="fil3" d="M3339,900 l-234,0 c2,25 11,46 29,61 c18,16 42,23 73,23 c36,0 71,-8 107,-24 l0,67 c-38,14 -77,21 -118,21 c-24,0 -47,-3 -69,-10 c-22,-7 -41,-17 -59,-31 c-18,-14 -31,-33 -42,-55 c-10,-23 -15,-50 -15,-81 c0,-33 7,-63 21,-90 c14,-27 34,-48 60,-63 c26,-15 55,-23 88,-23 c28,0 54,6 78,18 c24,12 43,32 58,59 c15,27 22,63 22,106 l0,21 zm-234,-62 l141,0 c0,-25 -7,-45 -20,-59 c-13,-14 -30,-21 -51,-21 c-14,0 -26,4 -37,11 c-11,8 -19,18 -24,30 c-6,12 -9,25 -9,39 z" id="svg_23"/>
   <path class="fil3" d="M3450,768 l-67,0 l0,-66 l67,0 l0,-68 l90,-28 l0,97 l79,0 l0,66 l-79,0 l0,155 c0,13 1,24 3,33 c2,8 6,15 12,20 c6,5 16,8 29,8 c13,0 24,-2 35,-6 l0,64 c-25,6 -48,9 -69,9 c-67,0 -100,-35 -100,-106 l0,-176 z" id="svg_24"/>
   <path class="fil3" d="M3784,1044 l-90,0 l0,-343 l87,0 l0,54 l2,0 c15,-23 33,-38 53,-46 c20,-8 39,-12 56,-12 c22,0 42,4 61,12 c19,8 33,20 44,36 c11,16 17,36 17,60 l0,240 l-90,0 l0,-207 c0,-20 -5,-36 -15,-48 c-10,-13 -24,-19 -43,-19 c-16,0 -30,4 -43,13 c-12,9 -22,20 -28,34 c-7,14 -10,28 -10,43 l0,185 z" id="svg_25"/>
   <path class="fil3" d="M4113,702 l90,0 l0,343 l-90,0 l0,-343 zm91,-144 l0,93 l-93,0 l0,-93 l93,0 z" id="svg_26"/>
   <polygon class="fil3" points="4523,548 4613,548 4613,844 4616,844 4723,702 4826,702 4701,857 4838,1044 4728,1044 4616,870 4613,870 4613,1044 4523,1044 " id="svg_27"/>
   <polygon class="fil3" points="4901,548 4991,548 4991,1044 4901,1044 " id="svg_28"/>
   <path class="fil3" d="M5319,702 l90,0 l0,343 l-87,0 l0,-54 l-2,0 c-15,23 -32,38 -53,47 c-20,8 -39,12 -56,12 c-51,0 -84,-14 -99,-41 c-15,-27 -23,-56 -23,-86 l0,-221 l90,0 l0,207 c0,45 19,67 58,67 c16,0 29,-4 42,-12 c12,-8 22,-19 29,-34 c7,-14 10,-30 10,-47 l0,-181 z" id="svg_29"/>
   <path class="fil3" d="M5522,548 l90,0 l0,144 l-2,56 l1,0 c20,-34 53,-52 99,-52 c33,0 60,8 83,24 c22,16 39,37 49,64 c11,27 16,56 16,88 c0,39 -7,72 -21,99 c-14,27 -32,46 -54,59 c-22,12 -45,19 -69,19 c-21,0 -41,-5 -62,-13 c-21,-9 -37,-26 -49,-51 l-1,0 l0,60 l-79,0 l0,-496 zm90,325 c0,22 3,40 10,56 c7,16 16,28 27,36 c12,8 24,12 38,12 c21,0 39,-9 54,-28 c15,-19 22,-44 22,-77 c0,-21 -3,-40 -10,-56 c-7,-16 -16,-28 -28,-37 c-12,-8 -24,-13 -38,-13 c-14,0 -27,4 -38,12 c-12,8 -21,20 -27,36 c-7,16 -10,35 -10,56 z" id="svg_30"/>
   <g id="svg_31">
    <polygon class="fil3" points="1623,6280 1718,6356 1658,6684 1638,6748 1639,6749 1690,6684 1861,6473 1934,6532 1643,6892 1548,6815 1613,6478 1628,6423 1626,6422 1576,6487 1404,6699 1332,6640 " id="svg_32"/>
    <path class="fil3" d="M1832,6798 c27,-46 62,-75 105,-87 c43,-12 89,-5 137,23 c24,14 43,30 58,48 c15,18 25,38 30,59 c5,21 6,43 2,66 c-4,23 -13,46 -26,68 c-17,30 -39,54 -64,70 c-25,16 -53,24 -84,23 c-30,-1 -61,-10 -93,-28 c-32,-18 -56,-41 -71,-67 c-16,-26 -23,-54 -22,-84 c1,-30 11,-60 28,-90 zm81,47 c-12,20 -19,39 -21,58 c-2,18 0,34 7,48 c7,14 17,25 30,33 c21,12 43,13 66,4 c23,-9 44,-29 61,-59 c18,-31 25,-58 21,-83 c-4,-25 -16,-43 -37,-55 c-14,-8 -28,-11 -43,-10 c-15,1 -30,7 -45,18 c-15,11 -28,26 -40,47 z" id="svg_33"/>
    <polygon class="fil3" points="2244,6834 2337,6866 2337,7090 2333,7142 2335,7143 2363,7099 2498,6922 2585,6952 2354,7234 2254,7200 " id="svg_34"/>
    <path class="fil3" d="M2569,7128 c9,-52 32,-92 69,-118 c37,-26 82,-35 137,-25 c27,5 51,13 71,25 c20,12 36,27 48,45 c12,18 20,38 24,61 c4,23 4,47 -1,73 c-6,34 -18,64 -37,87 c-18,24 -42,41 -71,51 c-29,10 -61,12 -97,5 c-36,-6 -66,-19 -90,-38 c-24,-19 -40,-43 -49,-72 c-9,-29 -11,-60 -5,-95 zm93,16 c-4,23 -4,43 0,61 c4,18 12,32 23,43 c11,11 24,17 40,20 c23,4 45,-2 63,-19 c19,-17 31,-42 37,-77 c6,-35 3,-63 -9,-85 c-12,-22 -30,-35 -53,-39 c-15,-3 -30,-1 -44,6 c-14,6 -26,17 -36,32 c-10,15 -17,34 -21,57 z" id="svg_35"/>
    <path class="fil3" d="M3334,7374 l-90,8 l-30,-341 l85,-7 l5,58 l2,0 c5,-14 12,-26 21,-36 c10,-10 21,-18 34,-25 c13,-6 28,-10 43,-11 c18,-2 37,1 56,7 c19,6 34,23 43,48 l2,0 c12,-28 28,-47 49,-56 c20,-10 40,-16 57,-17 c44,-4 75,6 91,30 c16,24 26,50 28,80 l20,227 l-90,8 l-17,-192 c-2,-25 -7,-44 -14,-59 c-7,-14 -22,-21 -43,-19 c-20,2 -36,11 -47,28 c-12,17 -17,38 -14,63 l16,188 l-90,8 l-17,-192 c-2,-25 -7,-44 -14,-59 c-7,-14 -22,-21 -42,-19 c-20,2 -36,11 -48,27 c-12,16 -17,38 -15,65 l16,188 z" id="svg_36"/>
    <path class="fil3" d="M4130,7052 l-221,76 c10,23 26,39 48,48 c22,9 47,8 76,-2 c34,-12 65,-31 94,-57 l22,64 c-31,26 -66,45 -105,59 c-23,8 -45,12 -68,13 c-23,1 -45,-2 -66,-10 c-21,-8 -40,-21 -57,-39 c-17,-18 -31,-42 -41,-71 c-11,-31 -14,-62 -9,-92 c5,-30 17,-57 36,-79 c19,-23 45,-40 76,-50 c26,-9 53,-12 79,-9 c26,4 51,16 74,37 c23,21 42,52 56,93 l7,19 zm-241,18 l133,-46 c-8,-24 -21,-40 -38,-49 c-17,-9 -35,-10 -55,-3 c-13,5 -23,12 -31,23 c-8,11 -12,23 -13,36 c-1,14 0,27 4,39 z" id="svg_37"/>
    <path class="fil3" d="M4320,6757 l24,60 c-30,4 -55,12 -76,23 c-20,11 -32,22 -36,33 c-4,11 -4,20 1,28 c5,10 13,15 23,16 c9,1 24,-1 43,-4 c28,-6 55,-7 79,-4 c24,4 44,20 60,48 c18,33 19,63 3,91 c-16,28 -39,50 -69,67 c-15,8 -32,16 -53,22 c-20,7 -39,12 -57,15 l-31,-63 c38,-4 70,-13 96,-27 c17,-10 28,-20 33,-31 c5,-11 4,-21 -1,-29 c-6,-11 -15,-17 -26,-18 c-11,-1 -27,1 -50,5 c-21,3 -39,5 -53,4 c-15,0 -29,-4 -42,-11 c-13,-7 -24,-19 -34,-36 c-8,-15 -12,-31 -13,-49 c0,-17 6,-35 17,-53 c12,-18 30,-34 56,-48 c37,-20 71,-34 103,-40 z" id="svg_38"/>
    <path class="fil3" d="M4465,6755 l-57,37 l-36,-56 l57,-37 l-37,-57 l60,-73 l53,81 l67,-43 l36,56 l-67,43 l85,130 c7,11 14,20 20,26 c6,6 13,9 21,10 c8,1 18,-2 29,-10 c11,-7 19,-15 26,-24 l35,53 c-18,19 -36,34 -54,45 c-56,36 -103,25 -141,-34 l-96,-147 z" id="svg_39"/>
    <path class="fil3" d="M4723,6720 c-36,-40 -52,-82 -51,-127 c2,-45 23,-86 64,-123 c21,-19 42,-32 64,-41 c22,-8 44,-12 65,-10 c22,1 43,8 63,18 c21,11 40,26 57,46 c23,26 39,54 46,83 c7,29 6,58 -4,87 c-10,29 -29,55 -56,80 c-27,25 -56,40 -86,47 c-30,7 -59,5 -87,-5 c-28,-10 -54,-29 -77,-55 zm70,-63 c16,17 32,30 48,38 c17,8 33,11 48,8 c15,-2 29,-8 40,-19 c18,-16 26,-36 24,-62 c-2,-25 -14,-51 -38,-77 c-24,-26 -48,-41 -73,-46 c-25,-4 -46,2 -64,18 c-12,10 -19,23 -23,38 c-4,15 -3,31 3,48 c6,17 17,35 32,52 z" id="svg_40"/>
   </g>
  </g>
 </g></g></svg>