<?xml version="1.0" encoding="UTF-8" standalone="no"?>
<svg
   xmlns:dc="http://purl.org/dc/elements/1.1/"
   xmlns:cc="http://creativecommons.org/ns#"
   xmlns:rdf="http://www.w3.org/1999/02/22-rdf-syntax-ns#"
   xmlns:svg="http://www.w3.org/2000/svg"
   xmlns="http://www.w3.org/2000/svg"
   xmlns:sodipodi="http://sodipodi.sourceforge.net/DTD/sodipodi-0.dtd"
   xmlns:inkscape="http://www.inkscape.org/namespaces/inkscape"
   version="1.1"
   width="196.68877"
   height="252"
   id="svg37"
   viewBox="0 0 196.68877 252"
   sodipodi:docname="nk-bravo-ljubljana.svg"
   inkscape:version="0.92.4 (5da689c313, 2019-01-14)">
  <metadata
     id="metadata43">
    <rdf:RDF>
      <cc:Work
         rdf:about="">
        <dc:format>image/svg+xml</dc:format>
        <dc:type
           rdf:resource="http://purl.org/dc/dcmitype/StillImage" />
        <dc:title></dc:title>
      </cc:Work>
    </rdf:RDF>
  </metadata>
  <defs
     id="defs41" />
  <sodipodi:namedview
     pagecolor="#ffffff"
     bordercolor="#666666"
     borderopacity="1"
     objecttolerance="10"
     gridtolerance="10"
     guidetolerance="10"
     inkscape:pageopacity="0"
     inkscape:pageshadow="2"
     inkscape:window-width="1366"
     inkscape:window-height="705"
     id="namedview39"
     showgrid="false"
     fit-margin-top="1"
     fit-margin-right="1"
     fit-margin-bottom="1"
     fit-margin-left="1"
     inkscape:zoom="1.1212869"
     inkscape:cx="295.21128"
     inkscape:cy="87.598854"
     inkscape:window-x="-8"
     inkscape:window-y="-8"
     inkscape:window-maximized="1"
     inkscape:current-layer="svg37" />
  <g
     id="g132"
     transform="matrix(0.44097217,0,0,0.44097217,-14.551912,-78.256762)">
    <path
       d="m 35.267332,221.46719 220.739798,-41.7353 220.7592,41.7353 v 306.4228 c 0,34.1654 -17.8275,75.0181 -74.3344,125.3377 -33.5443,29.8714 -86.8823,65.198 -145.893,93.4334 -48.4153,-21.3983 -118.2215,-67.3861 -153.595,-100.6138 -22.934898,-21.544 -44.332298,-46.1743 -56.592798,-73.6717 -7.6045,-17.055 -11.0838,-34.7249 -11.0838,-54.9246 z"
       style="opacity:1;fill:#0061a1;fill-opacity:1;stroke:none;stroke-opacity:1;paint-order:markers stroke fill"
       id="path2"
       inkscape:connector-curvature="0" />
    <path
       d="m 256.16643,199.20749 -0.1782,-0.033 -201.602598,37.09 v 289.9584 c 0,21.6834 6.167,36.6019 17.2324,54.9784 6.6419,11.0301 14.8108,21.3753 23.5892,31.0383 l 18.955198,-53.289 c -25.819798,-31.6114 -41.314498,-71.9848 -41.314498,-115.9742 0,-101.2635 82.076298,-183.3936 183.318498,-183.4853 z m -102.6462,359.1884 -43.1001,69.4866 c 1.8698,1.8131 3.7434,3.5983 5.6134,5.3547 4.3225,4.0605 8.8515,8.0638 13.5303,12.0002 l 34.9341,-78.0392 z m 79.4488,46.207 -46.3387,82.1331 c 8.1592,5.2418 16.4911,10.3257 24.8957,15.2193 l 38.5608,-96.0398 z m -82.8635,56.86 c 8.6612,6.4622 17.5399,12.6774 26.3476,18.5908 0.4921,0.3304 0.9851,0.6601 1.4788,0.9894 l 22.235,-63.3546 c -6.0349,-1.9406 -11.9341,-4.1831 -17.679,-6.713 z m 75.8231,48.6579 c 10.1142,5.5831 20.2506,10.8679 30.2378,15.7999 v -64.5669 z"
       style="opacity:1;fill:#ffd204;fill-opacity:1;stroke:none;stroke-opacity:1;paint-order:markers stroke fill"
       id="path4"
       inkscape:connector-curvature="0" />
    <path
       d="m 256.09013,341.07499 c 8.5285,0 16.8108,1.0528 24.73,3.0245 l -2.8023,15.6254 c -0.4678,2.6082 -1.5191,4.1075 -4.0971,4.7179 -17.3484,4.1091 -24.9475,7.5999 -32.4047,11.6707 -2.3957,1.3077 -4.7281,2.4534 -7.3252,1.614 -8.5094,-2.7501 -16.8958,-5.0431 -25.8245,-7.3252 -3.1882,-0.8149 -3.5476,-3.4966 -3.973,-7.8218 l -0.6927,-7.042 c 15.3159,-9.181 33.2364,-14.4635 52.3895,-14.4635 z m 86.0911,47.2224 c 10.1172,15.842 15.982,34.6629 15.982,54.8506 0,7.4347 -0.8028,14.6812 -2.3129,21.6648 -4.1612,2.3855 -8.3972,4.5042 -12.3537,5.8787 -2.2933,0.7964 -4.0767,1.3583 -5.5472,0.605 -1.0063,-0.5153 -1.2268,-1.6522 -1.9083,-3.2705 -3.0704,-7.2908 -8.7523,-14.9664 -13.4513,-22.1369 -1.9687,-3.0045 -3.0079,-5.2465 -2.6073,-8.8151 1.3284,-11.8364 2.437,-23.6721 3.1039,-35.5086 0.2315,-4.1101 2.135,-5.4948 5.587,-7.0768 z m 10.7915,87.0502 c -7.9566,23.9454 -24.5408,43.9563 -46.0677,56.3411 1.1174,-4.5652 2.4489,-9.3387 4.6349,-14.7824 0.9199,-2.2906 2.5855,-4.639 4.3365,-6.3788 9.3229,-9.2644 16.0885,-19.3579 20.3993,-28.5 0.628,-1.3316 2.0619,-2.2272 3.4764,-2.6361 4.4197,-1.2784 8.7316,-2.2332 13.2206,-4.0438 z m -55.0456,60.9277 c -12.7681,5.7465 -26.9293,8.9457 -41.837,8.9457 -10.1227,0 -19.8989,-1.4815 -29.1312,-4.2271 -0.0193,-4.666 0.0727,-9.9482 0.5259,-14.5382 0.3351,-3.3925 1.5985,-4.6718 5.3169,-5.7654 10.9239,-3.2127 20.6942,-6.5654 32.3039,-12.2266 1.7116,-0.8345 3.22,-0.9683 5.0436,-0.4193 9.4388,2.8421 20.095,6.3234 29.855,7.2586 3.5038,0.3356 2.7114,2.6417 2.3482,4.8313 -1.0468,6.3072 -2.6847,11.3279 -4.4253,16.141 z m -129.7164,-41.1941 c -9.0139,-15.2148 -14.1936,-32.9697 -14.1936,-51.9332 0,-7.4838 0.8115,-14.7777 2.343,-21.8029 l 7.9309,-1.5287 c 4.4638,-0.8604 6.4055,-0.4962 9.4358,5.0904 l 10.305,18.9958 c 1.15,2.1203 1.6666,4.2987 1.4898,6.7044 l -2.4831,33.7704 c -0.352,4.7872 -2.2267,5.8875 -5.3387,7.0769 z m -9.9235,-81.2092 c 6.5877,-22.0314 20.4126,-40.9418 38.7186,-53.9627 l 1.3039,8.2582 c 0.2854,1.8097 -0.2526,2.8716 -1.4899,4.2213 -8.0537,8.7865 -21.1481,25.3404 -27.1901,36.2535 -1.6959,3.063 -3.1689,4.1408 -6.7334,4.6156 z m 86.3401,-31.5249 c -2.8482,1.4211 -5.4604,2.4386 -5.9698,5.5805 -1.7607,10.8578 -3.0389,21.7006 -4.2827,30.8874 -0.4222,3.1197 0.0735,5.8297 2.7253,7.5272 9.9991,6.4008 21.7262,14.8427 33.3532,24.1389 2.6232,2.0974 5.6239,2.5758 8.825,1.5573 10.2496,-3.2611 21.0044,-7.47 28.9407,-11.5503 2.955,-1.5193 4.6963,-2.8138 5.1911,-6.0996 1.5333,-10.1781 1.9337,-23.2095 2.0765,-33.8723 0.0549,-4.0947 -1.1026,-5.0004 -2.5956,-6.3592 -8.3526,-7.6014 -17.0123,-13.9774 -27.3833,-21.2837 -2.3325,-1.6431 -3.9213,-2.0688 -6.7486,-1.6871 -11.4574,1.5472 -24.9735,6.5908 -34.1318,11.1609 z m -45.7524,62.2519 c -4.8706,2.6441 -5.5004,4.3061 -6.1967,8.8171 -1.4346,9.2925 -2.6017,23.0813 -2.0252,33.3441 0.1642,2.9238 0.8448,4.0864 3.098,5.9561 7.5004,6.2238 17.9196,14.3988 24.6504,18.2204 5.6873,3.2292 10.015,3.8603 16.2131,1.7735 9.1387,-3.0769 20.8701,-7.6876 28.568,-12.3722 2.0313,-1.2362 3.036,-3.2384 3.3214,-5.5983 1.1377,-9.4005 2.005,-18.2059 2.6334,-28.5561 0.2715,-4.4727 -0.2924,-6.8641 -3.5744,-9.9149 -8.3855,-7.7948 -20.0094,-16.6893 -30.3807,-22.7306 -3.4979,-2.0376 -5.4496,-1.3248 -9.2791,-0.0131 -7.8033,2.6727 -20.7608,7.6714 -27.0282,11.074 z"
       style="opacity:1;fill:#ffd204;fill-opacity:1;stroke:none;stroke-opacity:1;paint-order:markers stroke fill"
       id="path6"
       inkscape:connector-curvature="0" />
    <g
       transform="translate(-41.620968,42.251589)"
       id="Layer1001">
      <path
         d="m 137.8311,425.5331 -0.5101,-17.54 6.3293,-0.1841 0.1371,4.716 11.1693,-0.3249 -0.2208,-7.5941 -11.3871,-7.1632 0.1354,4.6575 -6.3293,0.1841 -0.4878,-16.7738 6.3293,-0.1841 0.153,5.2605 12.3588,7.5006 15.0961,-9.6937 -0.1321,-4.5415 6.3288,-0.1841 0.3385,11.6388 -16.797,9.8926 0.1989,6.838 10.7414,-0.3124 -0.1371,-4.7159 6.3288,-0.1841 0.5101,17.54 -6.3288,0.184 -0.1354,-4.6566 -27.4955,0.7997 0.1355,4.6566 z"
         style="fill:#ffd100;fill-rule:evenodd"
         id="path8"
         inkscape:connector-curvature="0" />
      <path
         d="m 165.2617,493.8908 -8.0056,-15.3839 22.2572,-29.5107 -23.9933,12.5065 2.1533,4.1311 -5.615,2.9268 -7.9029,-15.1615 5.6149,-2.9268 2.2848,4.3832 29.9939,-15.6656 6.0469,11.6006 -22.5992,29.7783 24.3619,-12.6987 -2.1807,-4.1836 5.6145,-2.9266 7.695,14.7625 -5.6145,2.9266 -2.0494,-3.9316 -24.3922,12.7145 1.9454,3.7321 z"
         style="fill:#ffd100;fill-rule:evenodd"
         id="path10"
         inkscape:connector-curvature="0" />
      <path
         d="m 151.8238,330.0155 11.4565,-18.2337 c 3.6818,-5.8599 9.4243,-8.3547 14.563,-5.4519 4.2932,2.4252 5.3496,6.6052 4.9776,9.1661 1.7409,-1.8398 7.6794,-4.7417 13.302,-0.2933 3.003,2.3759 7.6238,7.6808 1.1666,17.9577 l -11.3323,18.036 -5.3611,-3.3685 2.4785,-3.9446 -23.2912,-14.6341 -2.5981,4.135 z m 30.4671,-6.5239 -4.4975,7.158 9.7479,6.1247 4.5306,-7.2107 c 1.9552,-3.1119 1.3007,-6.4417 -1.4542,-8.1702 -2.755,-1.7286 -6.2921,-1.1402 -8.3268,2.0982 z m -14.0391,-7.7204 -4.0017,6.3689 8.7273,5.4835 4.1339,-6.5794 c 2.1361,-3.3997 -0.2632,-5.8276 -1.8668,-6.8351 -1.6035,-1.0076 -4.8752,-1.8081 -6.9927,1.5621 z"
         style="fill:#ffd100;fill-rule:evenodd"
         id="path12"
         inkscape:connector-curvature="0" />
      <path
         d="m 186.8899,282.0281 15.5887,-11.821 c 6.6678,-5.0562 13.9942,-6.1991 19.4592,0.6198 3.642,4.5446 3.3956,9.2557 1.1689,13.297 l 9.4671,5.5568 3.9787,-3.0171 3.9616,5.2242 -8.9194,6.7637 -13.8761,-8.4232 c -0.0774,0.0602 -0.1551,0.1205 -0.2332,0.1797 l -5.1682,3.919 5.2418,6.9125 3.7593,-2.8507 3.8257,5.045 -13.982,10.6026 -3.8256,-5.045 3.712,-2.8148 -16.6206,-21.9179 -3.712,2.8148 z m 19.5193,-6.855 -5.4707,4.1485 7.6278,10.059 4.8771,-3.6983 c 3.2001,-2.4267 4.8159,-5.5282 2.3673,-8.9627 -2.4485,-3.4345 -5.9007,-4.2012 -9.4015,-1.5465 z"
         style="fill:#ffd100;fill-rule:evenodd"
         id="path14"
         inkscape:connector-curvature="0" />
      <path
         d="m 376.0108,257.477 c 11.0989,5.7966 13.2606,17.4005 7.9626,27.5487 -5.302,10.1484 -15.8605,15.1094 -27.1607,9.2068 -11.3002,-5.9021 -13.2602,-17.4007 -7.9601,-27.5495 5.3,-10.1486 16.0584,-15.004 27.1582,-9.206 z m -3.0374,5.6965 c 5.9829,3.1246 6.4213,10.2825 2.7873,17.2408 -3.6341,6.9577 -9.7548,10.942 -15.8457,7.7611 -6.091,-3.1812 -6.318,-10.4817 -2.6842,-17.4396 3.6347,-6.9586 9.7604,-10.6875 15.7426,-7.5623 z"
         style="fill:#ffd100;fill-rule:evenodd"
         id="path16"
         inkscape:connector-curvature="0" />
      <path
         d="m 245.5081,281.5666 4.2379,-1.0702 3.1762,-35.4485 12.2838,-3.1019 19.4214,29.7422 4.4991,-1.1361 1.5502,6.1388 -17.6675,4.4614 -1.5502,-6.1388 4.4387,-1.1208 -3.8705,-6.2658 -13.726,3.4661 -0.6409,7.4049 5.0792,-1.2826 1.5502,6.1388 -17.2314,4.3513 z m 23.5083,-18.8138 -8.9837,-14.1357 -1.2331,16.7157 z"
         style="fill:#ffd100;fill-rule:evenodd"
         id="path18"
         inkscape:connector-curvature="0" />
      <path
         d="m 293.8949,243.2859 5.9902,0.6894 6.8633,34.6036 11.6924,1.3457 15.5221,-32.0275 4.6247,0.5323 0.7238,-6.29 -18.1026,-2.0834 -0.7239,6.29 5.602,0.6447 -12.4146,25.6701 -6.0794,-34.2186 -12.9741,-1.4463 z"
         style="fill:#ffd100;fill-rule:evenodd"
         id="path20"
         inkscape:connector-curvature="0" />
    </g>
    <g
       transform="translate(-41.620968,42.251589)"
       id="Layer1002">
      <path
         d="m 365.5186,503.7571 c 9.3498,-6.0117 19.2825,-1.2095 25.5585,8.5514 6.2762,9.7611 6.6852,20.6865 -2.8268,26.8025 -9.5122,6.1161 -19.2827,1.21 -25.5589,-8.5512 -6.2761,-9.7609 -6.5229,-20.7909 2.8272,-26.8027 z m 3.5,5.5296 c 5.0245,-3.2306 10.6658,0.5422 14.9688,7.2346 4.3031,6.6925 5.6056,13.5262 0.4934,16.8132 -5.1124,3.2872 -10.7891,-0.734 -15.0922,-7.4265 -4.3031,-6.6924 -5.3946,-13.3906 -0.37,-16.6213 z"
         style="fill:#ffd100;fill-rule:evenodd"
         id="path23"
         inkscape:connector-curvature="0" />
      <path
         d="m 396.591,474.306 c 6.4049,-9.0851 17.4141,-8.3681 26.8986,-1.6817 9.4847,6.6866 13.97,16.6573 7.4541,25.8999 -6.5161,9.2428 -17.4142,8.3686 -26.8989,1.682 -9.4846,-6.6865 -13.8588,-16.815 -7.4538,-25.9002 z m 5.3217,3.8087 c 3.4419,-4.8822 10.0876,-3.5062 16.5904,1.0781 6.503,4.5846 10.2784,10.4277 6.7764,15.3952 -3.5021,4.9676 -10.274,3.3748 -16.777,-1.2097 -6.5028,-4.5844 -10.0318,-10.3813 -6.5898,-15.2636 z"
         style="fill:#ffd100;fill-rule:evenodd"
         id="path25"
         inkscape:connector-curvature="0" />
      <path
         d="m 414.8834,435.1421 c 1.1663,-4.3625 3.466,-7.7591 6.5668,-9.9435 l 3.9269,4.6127 c -2.2618,1.4709 -3.9656,3.5836 -4.5281,6.6592 -1.1453,6.2623 3.7756,9.7325 10.0277,11.9046 -1.3309,-3.0647 -1.5198,-5.4688 -1.2885,-8.4527 0.4693,-6.0538 5.2787,-12.6809 14.477,-11.0386 3.4505,0.6161 6.7047,2.8295 8.7779,5.6512 2.0734,2.8218 2.9185,6.4828 2.2739,10.914 -0.6751,4.643 -3.366,8.2108 -6.7887,10.2068 -4.3346,2.5279 -10.0315,2.7072 -16.3439,1.2277 -5.286,-1.2391 -9.6429,-3.2172 -12.8485,-6.5082 -3.8693,-3.9719 -5.8227,-9.3603 -4.2525,-15.2332 z m 20.7761,14.5517 c 2.7369,0.569 5.8342,0.8858 8.6752,-0.0154 2.5068,-0.7951 4.7851,-2.6695 4.7816,-6.1902 -0.004,-3.4539 -2.3445,-6.2797 -6.1317,-6.8775 -3.1333,-0.4946 -6.2843,-0.3282 -8.1863,3.5908 -1.4396,2.9664 -0.2947,6.9964 0.8612,9.4923 z"
         style="fill:#ffd100;fill-rule:evenodd"
         id="path27"
         inkscape:connector-curvature="0" />
      <path
         d="m 350.6101,549.9974 -18.0601,4.2637 c 6.3788,-5.0592 14.1143,-14.6615 12.9315,-23.7066 -0.428,-3.2717 -1.5371,-6.1526 -3.0978,-7.7689 -3.6756,-3.807 -9.4737,-3.8821 -14.3276,-2.6243 -4.2644,1.1049 -8.8369,3.2981 -11.5626,5.5512 l 2.1321,9.1693 7.3289,-1.7302 -1.3498,-5.7173 c 1.785,-1.0024 2.7988,-1.5089 4.3306,-1.8955 2.9625,-0.7479 6.5485,-0.5717 8.1238,4.1234 1.7637,5.2565 -0.9014,11.5726 -3.7783,15.8439 -3.4725,5.155 -8.1871,9.46 -10.6033,12.0101 l 1.2741,5.3968 28.1393,-6.6431 z"
         style="fill:#ffd100;fill-rule:evenodd"
         id="path29"
         inkscape:connector-curvature="0" />
      <path
         d="m 296.5425,538.9295 a 6.1887,6.1887 0 0 1 7.4451,4.6011 6.1887,6.1887 0 1 1 -7.4451,-4.6011 z"
         style="fill:#ffd100;fill-rule:evenodd"
         id="path31"
         inkscape:connector-curvature="0" />
      <path
         d="m 438.8211,398.1373 a 6.1887,6.1887 0 0 1 7.4451,4.6012 6.1887,6.1887 0 1 1 -7.4451,-4.6012 z"
         style="fill:#ffd100;fill-rule:evenodd"
         id="path33"
         inkscape:connector-curvature="0" />
    </g>
  </g>
</svg>
