<svg height="316.227766" viewBox="0 0 973 973" width="316.227766" xmlns="http://www.w3.org/2000/svg"><path d="m966.8125 490.332031c0 264.832031-214.691406 479.519531-479.519531 479.519531-264.832031 0-479.519531-214.6875-479.519531-479.519531s214.6875-479.519531 479.519531-479.519531c264.828125 0 479.519531 214.6875 479.519531 479.519531zm0 0" fill="#123d44"/><path d="m839.75 490.332031c0 194.660157-157.800781 352.460938-352.457031 352.460938-194.660157 0-352.460938-157.800781-352.460938-352.460938 0-194.65625 157.800781-352.457031 352.460938-352.457031 194.65625 0 352.457031 157.800781 352.457031 352.457031zm0 0" fill="#123d44"/><path d="m486.433594 0c-268.648438 0-486.433594 217.785156-486.433594 486.433594 0 268.652344 217.785156 486.4375 486.433594 486.4375 268.652344 0 486.4375-217.785156 486.4375-486.4375 0-268.648438-217.785156-486.433594-486.4375-486.433594zm10.074218 22.84375c4.507813.046875 8.289063.152344 10.515626.316406 16.414062 1.226563 31.8125 2.613282 34.257812 3.09375 1.394531.273438 5.164062.726563 8.375 1.007813 3.210938.285156 7.890625.855469 10.402344 1.273437 2.515625.417969 8.109375 1.332032 12.4375 2.035156 7.808594 1.269532 20.84375 4.050782 27.664062 5.902344 1.953125.53125 6.0625 1.625 9.132813 2.4375 3.070312.808594 7.441406 2.164063 9.710937 3.011719 2.269532.84375 7.410156 2.445313 11.421875 3.554687 10.605469 2.9375 28.074219 9.492188 37.492188 14.070313 2.457031 1.191406 9.292969 4.066406 16.238281 6.824219 2.664062 1.058594 25.539062 12.886718 27.410156 14.175781.699219.480469 2.664063 1.574219 4.371094 2.429687 7.230469 3.628907 32.242188 19.78125 41.765625 26.96875 3.183594 2.402344 6.378906 4.710938 7.105469 5.128907.726562.417969 1.890625 1.269531 2.589844 1.886719.695312.621093 2.554687 2.105468 4.128906 3.300781 4.59375 3.484375 17.71875 14.351562 20.53125 16.996093 1.421875 1.335938 4.640625 4.191407 7.152344 6.339844 5.535156 4.730469 24.847656 23.957032 29.71875 29.589844 1.933593 2.230469 4.609374 5.3125 5.945312 6.847656 2.964844 3.410156 7.226562 8.433594 9.839844 11.601563 1.070312 1.296875 2.441406 2.929687 3.046875 3.628906 3.671875 4.242187 5.863281 7.003906 6.433593 8.117187.355469.699219 1.332032 2.070313 2.164063 3.046876 7.390625 8.667968 28.207031 40.03125 33.386719 50.304687 1.070312 2.125 2.617187 4.867187 3.4375 6.089844 2.554687 3.804687 11.992187 22.753906 14.261718 28.613281 1.183594 3.070312 3.386719 8.132812 4.890626 11.246094 1.5 3.113281 3.167968 6.769531 3.707031 8.121094 7.015625 17.609374 10.472656 27.285156 11.300781 31.640624.289062 1.535157 1.105469 3.933594 1.808594 5.328126 1.492187 2.953124 2.664062 6.859374 6.25 20.808593 4.394531 17.085938 5.402344 21.550781 6.546875 28.929688.605469 3.910156 1.546875 9.847656 2.089843 13.195312.886719 5.457031 1.4375 10.007813 3.074219 25.378907.265625 2.511718.820313 8.449218 1.230469 13.195312s.953125 9.882812 1.210938 11.417969c1.375 8.214843.972656 41.152343-.699219 57.097656-.40625 3.90625-1.109375 10.757813-1.558594 15.226563-2.160156 21.542968-3.296875 30.085937-6.269531 47.199218-.582032 3.347656-2.6875 12.253906-4.675782 19.792969-1.988281 7.535156-4.058593 15.414063-4.601562 17.507813s-1.542969 4.757812-2.214844 5.917968c-.675781 1.160156-1.6875 4.074219-2.246094 6.472656-2.121093 9.097657-9.898437 29.824219-14.867187 39.632813-1.273437 2.511719-3.234375 6.992187-4.359375 9.957031s-2.6875 6.734375-3.46875 8.375c-2.386719 5.011719-10.933594 21.207032-11.617188 22.015625-.355468.417969-1.765624 2.933594-3.132812 5.585938-4.011719 7.773437-18.722656 30.761719-25.503906 39.859375-1.253906 1.683594-3.308594 4.523437-4.566406 6.308594-1.257813 1.789062-2.882813 3.835937-3.617188 4.550781-.730469.714843-1.625 1.871093-1.984375 2.566406-.359375.699219-2.5 3.527344-4.757813 6.285156-2.257812 2.757813-4.789062 5.867188-5.628906 6.910157-8.484375 10.5625-18.894531 21.847656-32.449218 35.171874-7.957032 7.820313-26.179688 24.277344-30.742188 27.761719-1.253906.960938-3.539062 2.8125-5.074219 4.117188-1.535156 1.304687-4.117187 3.210937-5.738281 4.238281s-3.078125 2.199219-3.234375 2.613281c-.160156.410157-.945313 1.085938-1.75 1.5-.800781.414063-4.257813 2.882813-7.675781 5.480469-3.421875 2.597656-8.273438 6.050781-10.785156 7.671875-2.515626 1.621094-7.652344 4.9375-11.421876 7.371094-11.8125 7.632812-14.34375 9.148437-18.777343 11.257812-2.375 1.128907-4.773438 2.464844-5.332031 2.96875-1.84375 1.667969-24.761719 13.179688-30.707032 15.425781-3.210937 1.214844-8.234375 3.355469-11.164062 4.757813-5.078125 2.429687-8.160156 3.738281-18.527344 7.882813-4.226562 1.6875-16.226562 5.550781-21.570312 6.945312-1.257813.324219-4 1.226562-6.09375 2-6.78125 2.507812-8.816407 3.160156-12.6875 4.066406-2.09375.488282-6.777344 1.703125-10.40625 2.691406-8.519532 2.332032-24.496094 5.523438-33.75 6.746094-1.257813.164063-3.882813.625-5.839844 1.023438-1.953125.394531-7.089844 1.070312-11.417969 1.496094-18.71875 1.855468-23.265625 2.335937-26.140625 2.761718-1.671875.25-6.355469.699219-10.402344.992188-17.601562 1.292968-43.972656.800781-62.9375-1.167969-23.339844-2.425781-31.667968-3.390625-35.527344-4.121094-2.09375-.394531-6.207031-1.074219-9.136718-1.507812-11.792969-1.757813-24.613282-4.363281-32.738282-6.660157-3.351562-.945312-7.804687-2.15625-9.898437-2.691406-6.839844-1.742187-9.824219-2.664062-11.667969-3.605468-.996094-.507813-3.175781-1.308594-4.84375-1.777344-14.128906-3.988282-31.597656-10.453125-42.910156-15.875-2.910156-1.398438-8.019531-3.601563-11.355469-4.902344-3.339843-1.300781-6.308593-2.550781-6.601562-2.78125s-5.097657-2.765625-10.679688-5.628906c-5.585937-2.863282-10.609375-5.609375-11.167969-6.101563-.558593-.492187-3.15625-1.960937-5.773437-3.265625-2.617187-1.308594-5.929687-3.125-7.359375-4.035156-1.429688-.914062-4.542969-2.871094-6.914062-4.355469-8.25-5.148437-20.582032-13.382812-24.871094-16.601562-6.117188-4.589844-8.589844-6.464844-10.914063-8.257813-1.113281-.863281-3.855469-2.929687-6.089843-4.59375-13.511719-10.0625-34.875-29.523437-52.054688-47.417968-3.472656-3.621094-6.773438-7.191407-7.328125-7.941407-.558594-.75-3.183594-3.859375-5.835937-6.910156-7.890626-9.082031-15.421876-18.375-16.371094-20.203125-.488282-.941406-1.25-1.910156-1.691406-2.160156-.445313-.25-1.300782-1.265625-1.90625-2.253906-.601563-.992188-3.046876-4.398438-5.429688-7.570313-2.378906-3.167969-4.78125-6.476563-5.328125-7.351563-.550781-.875-2.964844-4.527343-5.367187-8.121093-5.324219-7.964844-13.425782-21.085938-15.785157-25.5625-.957031-1.816407-3.351562-6.15625-5.320312-9.644531-4.484375-7.945313-9.707031-18.355469-12.003907-23.914063-.964843-2.339844-2.605468-6.195313-3.644531-8.570313-7.394531-16.886718-14.097656-34.171874-16.207031-41.777343-.945312-3.398438-2.554688-8.582031-3.578125-11.511719-2.984375-8.554688-10.171875-37.820312-11.652344-47.453125-.730469-4.746094-1.65625-10.570313-2.0625-12.941406-.40625-2.371094-1.101562-8.082031-1.554687-12.6875-.449219-4.605469-.894532-8.503907-.988282-8.65625-.09375-.152344-.542968-5.632813-.996093-12.179688-.453125-6.542969-1.074219-13.957031-1.375-16.46875-.691407-5.785156-.960938-35.132812-.371094-40.855469.242187-2.375.90625-10.710937 1.476563-18.527343.570312-7.8125 1.25-15.695313 1.511718-17.507813.261719-1.816406.714844-6.152344 1.011719-9.640625.296875-3.492187.863281-8.171875 1.261719-10.40625.398437-2.234375 1.222656-7.484375 1.828125-11.671875 1.621093-11.175781 9.734375-43.457031 12.964843-51.582031.957032-2.410156 1.964844-5.554687 2.238282-6.988281.613281-3.25 1.960937-7.9375 2.859375-9.949219.371093-.835937 1.503906-3.691406 2.511719-6.34375 4.117187-10.839844 7.453124-19.058594 9.027343-22.25.917969-1.859375 2.679688-5.890625 3.917969-8.960937 2.359375-5.859376 12.773438-26.886719 16.96875-34.257813 8.277344-14.546875 17.585938-29.558594 21.71875-35.019531.949219-1.257813 2.03125-2.855469 2.398438-3.550782.367187-.695312 2.625-3.890624 5.023437-7.097656 2.394531-3.207031 4.699219-6.414062 5.117187-7.125.417969-.710937 1.296876-1.859375 1.949219-2.546875.65625-.6875 1.683594-1.984375 2.285157-2.878906.601562-.898437 3.605468-4.625 6.679687-8.289063 3.070313-3.660156 6.222656-7.484374 7.003906-8.503906.78125-1.015625 2.949219-3.546875 4.820313-5.617187 1.871094-2.074219 4.753906-5.277344 6.40625-7.121094 2.753906-3.066406 6.898437-7.40625 14.113281-14.769531 5.867187-5.992188 16.492187-15.972656 18.910156-17.769532 1.402344-1.039062 3.003907-2.40625 3.5625-3.039062.558594-.632812 3.640625-3.335938 6.851563-6.003906 3.207031-2.671875 7.660156-6.378906 9.894531-8.242188 2.234375-1.859375 4.800781-3.761718 5.707031-4.222656.902344-.460938 2.007813-1.398438 2.457032-2.078125.445312-.679687 1.21875-1.367187 1.714843-1.523437.496094-.160157 3.15625-2 5.917969-4.089844 2.757812-2.09375 9.695312-6.917969 15.417969-10.722656 5.722656-3.808594 10.984375-7.316407 11.695312-7.792969 2.933594-1.988281 15.492188-9.304688 17.464844-10.179688 1.175781-.519531 2.6875-1.375 3.363281-1.902343.675782-.527344 6.027344-3.410157 11.890625-6.410157 5.859375-3 10.886719-5.632812 11.164063-5.855469.277344-.21875 4.277344-1.941406 8.882812-3.824218 4.605469-1.886719 8.628906-3.628906 8.9375-3.867188.59375-.457031 10.96875-4.824218 18.726563-7.878906 6.734375-2.652344 18.21875-6.53125 22.847656-7.722656 2.226563-.570313 6.78125-1.976563 10.117187-3.125 3.335938-1.148438 8.132813-2.632813 10.65625-3.296875 2.527344-.664063 6.765626-1.785157 9.417969-2.492188 7.589844-2.03125 17.816407-4.167969 26.644531-5.574219 4.46875-.710937 9.949219-1.632812 12.183594-2.046874 2.230469-.414063 6.570313-.992188 9.640625-1.289063 3.070313-.296875 7.984375-.867187 10.914063-1.265625 2.929687-.402344 8.871094-.984375 13.195312-1.292969 4.328125-.308593 9.464844-.78125 11.421875-1.058593 4.355469-.605469 24.433594-.949219 37.957031-.804688zm0 0" fill="#c4ab60"/><path d="m668.082031 490.332031c0 99.847657-80.941406 180.792969-180.789062 180.792969-99.851563 0-180.792969-80.945312-180.792969-180.792969 0-99.847656 80.941406-180.789062 180.792969-180.789062 99.847656 0 180.789062 80.941406 180.789062 180.789062zm0 0" fill="#155544"/><path d="m486.15625 127.757812c-9.765625.042969-19.789062.292969-26.84375.738282-9.902344.628906-20.679688 1.933594-31.726562 3.839844-1.671876.289062-5.328126.851562-8.117188 1.253906-9.492188 1.359375-11.203125 1.675781-14.519531 2.699218-1.824219.566407-4.441407 1.191407-5.820313 1.390626-1.375.199218-3.300781.761718-4.277344 1.25-.976562.484374-3.375 1.265624-5.328124 1.734374-5.882813 1.414063-30.5625 9.640626-37.054688 12.355469-11.117188 4.644531-42.414062 20.113281-45.425781 22.449219-.976563.761719-3.6875 2.460938-6.027344 3.78125-5.3125 3-16.144531 10.082031-21.289063 13.921875-3.894531 2.90625-14.410156 10.863281-17.515624 13.257813-11.789063 9.085937-33.816407 30.027343-44.246094 42.066406-7.351563 8.488281-10.589844 12.355468-12.195313 14.574218-1.488281 2.0625-10.046875 13.515626-14.234375 19.058594-1.191406 1.578125-2.558594 3.632813-3.03125 4.566406-.476562.933594-1.609375 2.726563-2.519531 3.984376-.910156 1.253906-2.851563 4.335937-4.320313 6.851562-1.464843 2.511719-3.476562 5.710938-4.464843 7.105469s-3.273438 5.390625-5.078125 8.878906c-1.804688 3.492187-3.671875 6.917969-4.152344 7.613281-.480469.699219-1.042969 1.839844-1.25 2.539063-.203125.699219-.804688 2.023437-1.335938 2.945312-.527343.921875-2.238281 4.460938-3.796874 7.867188-1.5625 3.402343-3.300782 7.101562-3.871094 8.21875-.566406 1.117187-2.046875 4.65625-3.28125 7.867187-1.238282 3.210938-2.566406 6.519532-2.949219 7.359375-.386719.835938-1.027344 2.550781-1.429687 3.804688-.402344 1.257812-2.222657 6.742187-4.050782 12.191406-1.824218 5.449219-3.695312 11.386719-4.152344 13.195313-.457031 1.808593-1.601562 5.574218-2.542968 8.363281-.941406 2.792969-2.207032 7.476562-2.8125 10.40625-.605469 2.929687-1.292969 6.128906-1.523438 7.105469-1.28125 5.417968-4.953125 32.554687-5.632812 41.617187-1.332032 17.785156-1.011719 56.738281.570312 69.277344.246094 1.953125.703125 5.949219 1.011719 8.882812.3125 2.929688.777344 6.582031 1.035156 8.117188.257813 1.535156.816407 5.078125 1.238281 7.867187 1.65625 10.960938 2.265626 13.871094 4.847657 23.09375.894531 3.210938 2.378906 8.578125 3.292969 11.925782 3.804687 13.941406 11.726562 36.152343 16.476562 46.1875 1.414062 2.984374 8.160156 17.042968 9.378906 19.539062 3.429688 7.035156 8.253906 15.3125 18.574219 31.859375 4.40625 7.066406 5.242187 8.28125 11.160156 16.214844 8.992188 12.054687 11.917969 15.730469 18.492188 23.234375 25.464843 29.058594 54.351562 53.433594 85.085937 71.808594 2.898438 1.734374 5.738282 3.578124 6.304688 4.101562.988281.910156 25.523437 13.378906 36.046875 18.320312 15.328125 7.195313 52.125 19.246094 67.222656 22.015626 2.371094.433593 7.398437 1.246093 11.164063 1.800781 3.769531.554687 7.652343 1.226562 8.628906 1.496093.976562.269532 3.949218.734376 6.601562 1.027344 2.648438.292969 6.761719.871094 9.132813 1.277344 2.375.410156 8.742187.960938 14.148437 1.21875 5.410156.261719 9.953125.589844 10.097656.734375.667969.667969 30.714844.148437 42.753907-.742187 12.28125-.90625 26.789062-2.550782 31.214843-3.535157 1.117188-.25 4.425782-.808593 7.359376-1.242187 2.929687-.433594 6.925781-1.042969 8.878906-1.355469 4.253906-.679687 17.246094-3.792969 19.035156-4.566406.695312-.296875 5.035156-1.65625 9.640625-3.011719 15.089844-4.445312 32.601563-10.734375 41.335937-14.84375 11.90625-5.601562 35.160157-17.476562 37.339844-19.066406 2.40625-1.757813 13.488282-8.703125 18.351563-11.503906 2.457031-1.417969 15.007812-10.679688 25.605469-18.898438 6.621093-5.140625 29.988281-26.128906 32.164062-28.894531.570312-.726563 2.910156-3.285157 5.199219-5.6875 2.289062-2.398438 5.066406-5.503907 6.175781-6.902344 1.109375-1.394531 3.875-4.59375 6.144531-7.105469 2.273438-2.511718 4.675781-5.367187 5.339844-6.34375.667969-.976562 2.953125-3.945312 5.078125-6.597656 4.769531-5.953125 12.410156-16.574219 14.453125-20.089844 2.292969-3.949218 8.761719-14.304687 10.921875-17.488281 2.484375-3.664063 16.742188-31.132813 16.742188-32.257813 0-.15625.824218-1.921874 1.832031-3.921874 1.007812-2.003907 2.84375-6.34375 4.085937-9.652344 1.238282-3.304688 2.460938-6.386719 2.710938-6.851563.253906-.460937.796875-1.984375 1.207031-3.378906.414063-1.394531 1.890625-5.640625 3.285156-9.4375 1.390625-3.796875 3.476563-10.304687 4.628907-14.464844 1.152343-4.160156 2.542968-8.589843 3.085937-9.847656 1.121094-2.578125 2.800781-9.515625 3.320313-13.699219.1875-1.535156.65625-3.410156 1.035156-4.164062.382812-.753906.695312-2.164063.695312-3.128906 0-.964844.46875-4.800782 1.046875-8.523438.574219-3.722656 1.265625-8.597656 1.535157-10.832031.269531-2.234375.703124-5.429688.96875-7.105469 1.128906-7.195312 2.144531-26.722656 2.175781-41.871094.050781-25.003906-1.210938-41.308594-4.972657-64.203125-.414062-2.511719-.753906-5.40625-.753906-6.4375 0-1.027343-.257812-2.511719-.566406-3.296875-.3125-.785156-.890625-3.257812-1.285156-5.488281-.617188-3.511719-2.496094-10.175781-5.046875-17.910156-.394531-1.195313-.714844-2.484375-.714844-2.859375 0-.90625-3.910156-13.628906-5.085937-16.535156-.503907-1.257813-1.53125-3.996094-2.28125-6.089844-2.722657-7.601563-4.027344-11.023438-6.484376-17-2.570312-6.257813-10.175781-22.464844-12.023437-25.632813-.570313-.976562-2.320313-4.289062-3.890625-7.359375-1.566406-3.070312-4.375-7.980468-6.242188-10.910156-6.085937-9.574219-8.378906-13.230469-9.96875-15.898438-2.363281-3.972656-13.101562-18.476562-21.484374-29.019531-9.296876-11.695312-31.785157-35.027343-40.492188-42.015625-1.902344-1.527344-5.050781-4.183594-6.992188-5.910156-2.835937-2.515625-15.71875-12.398438-24.960937-19.144531-4.1875-3.050781-11.691406-7.925781-17.4375-11.328125-3.492187-2.0625-7.152344-4.375-8.144531-5.140625-.988282-.761719-8.410156-4.691407-16.492188-8.726563-20.605468-10.289062-22.625-11.238281-28.878906-13.574218-3.054688-1.140626-5.984375-2.308594-6.511719-2.589844-.527343-.28125-2.023437-.808594-3.328125-1.175782-1.304687-.363281-5.34375-1.726562-8.972656-3.027343-3.628906-1.304688-10.253906-3.386719-14.71875-4.636719s-8.917969-2.605469-9.898438-3.015625c-1.679687-.703125-7.210937-2.042969-14.835937-3.59375-1.882813-.382813-6.679687-1.167969-10.660156-1.742187-3.980469-.578126-8.039063-1.257813-9.015625-1.511719-3.074219-.792969-22.203125-2.945313-31.605469-3.550781-6.019531-.390626-15.53125-.558594-25.296875-.515626zm-30.65625 17.320313c1.425781.050781 2.378906.230469 2.695312.546875 1.332032 1.335938.648438 1.742188-5.882812 3.492188-2.078125.558593-6.921875 2.375-10.769531 4.039062-3.84375 1.664062-7.472657 3.027344-8.070313 3.027344-.660156 0-1.308594.488281-1.65625 1.253906-.34375.757812-1.292968 1.480469-2.398437 1.832031-1.742188.550781-5.382813 2.671875-10.96875 6.386719-1.398438.933594-2.726563 1.691406-2.953125 1.691406-.675782 0-4.835938 2.992188-10.144532 7.289063-13.3125 10.785156-26.148437 24.21875-32.882812 34.417969-4.996094 7.570312-7.957031 12.351562-10.628906 17.167968-.851563 1.535156-1.875 3.363282-2.273438 4.058594-2.976562 5.21875-13.441406 34.925781-13.441406 38.15625 0 .488281-.425781 2.777344-.953125 5.09375-3.8125 16.851562-5.660156 42.746094-3.886719 54.582031.40625 2.71875.960938 7.683594 1.238282 11.035157.273437 3.347656.828124 7.574218 1.234374 9.386718.347657 1.539063.664063 3.410156.871094 4.792969-11.914062 12.6875-22.058594 27.011719-30.167968 42.410156-1.183594-.308593-2.785157-.957031-5.242188-1.988281-19.003906-7.957031-27.679688-9.585938-47.96875-9.007812-10.679688.304687-12.574219.199218-12.574219-.710938 0-.761719 5.210938-11.820312 6.613281-14.03125.742188-1.171875 1.769532-3.226562 2.28125-4.566406.511719-1.335938 1.746094-3.765625 2.742188-5.394532.996094-1.628906 2.328125-3.875 2.960938-4.996093.949218-1.683594 7.03125-11.128907 9.582031-14.878907.382812-.558593 1.523437-2.273437 2.542969-3.808593 7.261718-10.957031 27.71875-34.070313 30.324218-34.265625 1.269532-.089844 1.542969-1.285156 2.316406-10.144532.292969-3.347656.75-7.34375 1.011719-8.878906s.730469-5.429687 1.039063-8.65625c.308594-3.222656 1.238281-8.476562 2.066406-11.671875.828125-3.195312 2.070312-7.980469 2.761719-10.632812 1.578125-6.085938 4.398437-14.445313 5.78125-17.160157.585937-1.148437 1.0625-2.78125 1.0625-3.628906 0-2.109375-1.542969-2.058594-4.261719.148438-1.144531.925781-3.566406 2.683594-5.382812 3.90625-7.6875 5.175781-21 15.78125-30.25 24.09375-10.175782 9.152344-25.203126 25.019531-33.003907 34.847656-9.820312 12.378906-11.636719 14.957031-23.636719 33.542969-4.625 7.167969-15.960937 29.039062-18.449218 35.601562-.964844 2.542969-2.195313 5.535157-2.734375 6.648438-2.378907 4.925781-7.0625 18.371093-10.695313 30.707031-1.4375 4.886719-3.042968 10.023438-3.570312 11.417969-.523438 1.398437-1.097656 3.792969-1.273438 5.328125-.179687 1.539062-.777344 4.175781-1.328125 5.871094-1.199219 3.675781-1.101562 6.984374.214844 7.234374.550781.101563 1.203125-.375 1.714844-1.265624 1.050781-1.824219 3.726562-3.828126 11.210937-8.390626 12.195313-7.433593 25.03125-13.28125 40.507813-18.453124 13.488281-4.503907 23.242187-5.796876 43.828125-5.800782 12.785156 0 15.890625.152344 21.71875 1.082032 3.605468.574218 5.359375.949218 6.324218 1.355468-5.058593 10.082032-9.261718 20.59375-12.527343 31.386719-2.863281.125-8.097657.261719-15.480469.347656-14.5.164063-18.585938.363281-21.039062 1.023438-1.675782.453125-4.757813 1.1875-6.851563 1.636719-3.640625.777343-7.035156 1.933593-15.984375 5.4375-7.15625 2.804687-27.152344 13.296874-28.683594 15.050781-.140625.160156-3.222656 2.675781-6.851562 5.59375s-7.28125 5.941406-8.121094 6.722656c-.835938.78125-1.910156 1.542969-2.382812 1.695313-.472657.152343-1.003907.722656-1.175782 1.269531-.171875.542969-1.730468 2.425781-3.457031 4.179687-5.515625 5.597656-14.289063 17.910156-19.199219 26.945313-4.917968 9.050781-12.253906 29.238281-14.125 38.886719-.246094 1.257812-.703125 4.796874-1.019531 7.867187s-.78125 6.839844-1.03125 8.375-.582031 3.605469-.738281 4.605469c-.152344 1-.582032 2.226562-.953125 2.734375-.628907.863281-.691407.863281-1.007813.046875-.183594-.480469-.335937-1.742188-.335937-2.804688s-.433594-4.070312-.96875-6.683594c-.535157-2.613281-1.128907-6.121093-1.320313-7.796874-.195312-1.675782-.648437-4.074219-1.003906-5.328126-.589844-2.074218-1.121094-5.363281-2.816406-17.507812-1.972656-14.136719-1.808594-63.15625.25-74.609375.402344-2.230469 1.007812-6.914063 1.34375-10.402344.335937-3.492187.917968-6.796875 1.296875-7.347656.375-.550781.675781-2.03125.671875-3.296875-.007813-2.292969 1.351562-8.996094 3.085937-15.242188.507813-1.8125 1.074219-4.324218 1.257813-5.582031.5625-3.785156 4.621094-19.226562 6.335937-24.105469.882813-2.511718 2.023438-5.824218 2.535157-7.359374.511718-1.535157 1.765624-4.960938 2.789062-7.613282 1.019531-2.652344 2.164062-5.734375 2.539062-6.851562.375-1.117188 1.519532-3.972656 2.539063-6.34375 1.023437-2.375 2.492187-5.816406 3.273437-7.65625.777344-1.839844 1.882813-4.238282 2.457032-5.332032.574218-1.089843 2.921875-5.753906 5.210937-10.359374 2.289063-4.605469 4.558594-8.945313 5.042969-9.644532.484375-.695312 1.703125-2.90625 2.710938-4.90625 1.003906-2.003906 2.082031-3.800781 2.390624-3.992187.308594-.191407 1-1.371094 1.539063-2.625.539063-1.253907 1.441406-2.886719 2.007813-3.625.5625-.742188 4.144531-6.027344 7.949218-11.75 7.277344-10.933594 8.332032-12.417969 12.835938-18.082031 1.535156-1.929688 3.25-4.121094 3.808594-4.863282 3.015624-4.023437 12.015624-14.210937 18.054687-20.445312 3.789063-3.90625 7.671875-7.9375 8.628906-8.957032 1.773438-1.882812 15.808594-14.621093 21.785157-19.773437 9.242187-7.960937 36.300781-26.976563 43.398437-30.496094.835937-.414062 2.664063-1.441406 4.058594-2.28125 6.707031-4.035156 9.175781-5.390625 16.242187-8.917969 12.476563-6.226562 23.914063-11.375 30.707032-13.828124 24.3125-8.785157 30.761718-10.707032 48.472656-14.441407 2.792968-.589843 7.128906-1.523437 9.640625-2.078125 2.515625-.554687 6.054687-1.21875 7.871093-1.472656 1.8125-.257812 4.441407-.703125 5.835938-.984375 8.492188-1.730469 17.035156-2.691406 21.3125-2.53125zm129.347656 12.632813c1.523438-.128907 6.003906 1.480468 20.640625 6.949218 16.722657 6.253906 22.261719 8.675782 38.320313 16.769532 6.660156 3.359374 10.550781 5.53125 15.265625 8.535156 1.417969.902344 3.699219 2.238281 5.074219 2.964844 5.128906 2.722656 23.667968 15.273437 29.621093 20.054687 2.636719 2.117187 5.507813 4.304687 6.378907 4.863281.871093.558594 3.054687 2.3125 4.851562 3.898438 1.796875 1.585937 4.539062 3.980468 6.09375 5.328125 16.90625 14.636719 32.617188 31.039062 45.050781 47.035156 5.726563 7.363281 9.941407 13.109375 12.015625 16.382813 1.117188 1.761718 4.222656 6.460937 6.90625 10.445312 2.683594 3.988281 5.039063 7.765625 5.238282 8.394531.199218.628907.910156 1.800781 1.582031 2.597657.675781.800781 1.683593 2.523437 2.246093 3.828124.558594 1.308594 1.667969 3.335938 2.460938 4.507813 3.6875 5.433594 16.847656 32.925781 19.117188 39.941406.496093 1.535157 1.070312 3.023438 1.273437 3.300781.203125.277344.839844 1.878907 1.417969 3.554688.574218 1.671875 1.996094 5.667969 3.152344 8.878906 3.351562 9.292969 6.714843 21.457032 9.609374 34.765625.609376 2.792969 1.652344 7.472657 2.324219 10.40625.671875 2.929688 1.328125 6.242188 1.457031 7.359375.128907 1.117188.835938 6.253906 1.570313 11.417969 1.941406 13.605469 2.152344 15.914063 2.511719 27.152344.175781 5.582031.441406 12.09375.589844 14.464843.304687 4.949219-.601563 30.730469-1.332032 38.003907-.902344 8.957031-3.898437 28.3125-5.214844 33.691406-.425781 1.742187-1.15625 4.992187-1.628906 7.226563-4.308594 20.484374-9.707031 37.476562-18.78125 59.125-4.839844 11.546874-7.941406 17.980468-10.222656 21.191406-1.238281 1.742187-2.355469 3.171875-2.480469 3.171875-.625 0-.074219-3.6875 1.246094-8.300781 1.765625-6.1875 2.425781-9.269532 2.808594-13.117188.160156-1.589844.726562-4.714844 1.257812-6.945312.722657-3.03125.984375-6.125 1.035157-12.289063.035156-4.53125.179687-8.421875.320312-8.648437.574219-.933594-.816406-20.675782-1.769531-25.054688-.542969-2.511719-1.359375-6.621094-1.808594-9.132812-2.328125-13.023438-8.804687-30.875-15.570313-42.925782-2.261718-4.027344-4.8125-8.578125-5.664062-10.113281s-2.367188-3.792969-3.363281-5.023437c-.996094-1.226563-2.269531-2.972657-2.828125-3.882813-1.230469-2.003906-4.894532-6.824219-6.46875-8.507813-.628906-.675781-2.402344-2.753906-3.9375-4.621093-3.707032-4.511719-16.222656-16.707031-20.046875-19.53125-1.675781-1.238281-4.875-3.773438-7.105469-5.636719-2.234375-1.859375-4.628906-3.683594-5.324219-4.054688-.695312-.371093-2.664062-1.761718-4.375-3.089843-1.710937-1.328125-4.683593-3.214844-6.605469-4.191407-1.917968-.972656-4.277343-2.363281-5.238281-3.082031-.960937-.722656-1.988281-1.3125-2.285156-1.320312-.292969 0-2.195313-1.003907-4.222656-2.222657-2.027344-1.222656-6.367188-3.414062-9.644531-4.867187-3.273438-1.457031-7.324219-3.285156-9-4.066406-1.675782-.777344-4.457032-1.808594-6.183594-2.285157-1.050782-.292968-1.839844-.523437-2.515625-.832031-5.097657-16.847656-12.503907-32.984375-21.914063-47.855469.738282-1.003906 2.4375-2.179687 5.953125-4.347656 5.96875-3.683594 18.917969-16.828125 23.355469-23.714844 3.613281-5.601562 8.726562-14.789062 9.453125-16.972656.894531-2.691406 2.628906-4.246094 4.183594-3.753906.527343.167969 1.507812 1.308594 2.179687 2.535156.671875 1.230469 2.554688 4.25 4.179688 6.71875 8.113281 12.289063 11.015625 17.230469 15.746094 26.8125 5.871093 11.894532 9.152343 19.332032 9.71875 22.007813.199218.9375.871093 2.457031 1.496093 3.378906s1.441407 3.125 1.808594 4.894531c.371094 1.769532 1.054687 4.128906 1.523437 5.246094s1.707032 5.113281 2.75 8.882812c2.488282 8.960938 2.457032 8.898438 4.9375 10.527344 1.171876.769532 3.363282 2.597656 4.867188 4.0625 1.5 1.464844 3.019531 2.664063 3.371094 2.664063.355468 0 2.339844 1.292969 4.410156 2.875 10.8125 8.242187 27.4375 24.289062 33.171875 32.019531 3.300781 4.441406 4.78125 5.542969 5.625 4.171875.847656-1.371094-2.539063-33.847656-4.316406-41.351563-.527344-2.230468-1.472657-6.683593-2.101563-9.894531-.625-3.210937-1.414062-6.179687-1.753906-6.597656-.335938-.417969-.886719-2.101563-1.222656-3.742187-.332032-1.640626-1.011719-4.152344-1.5-5.582032-.492188-1.429687-1.058594-3.726562-1.265625-5.097656-.203125-1.371094-.664063-2.972656-1.023438-3.554688-.359375-.578124-1.855469-4.710937-3.324219-9.175781-3.074218-9.347656-3.324218-10-7.777343-20.554687-4.644531-11.007813-15.78125-32.074219-22.054688-41.726563-16.070312-24.710937-32.800781-44.609375-52.84375-62.84375-5.921875-5.386719-6.332031-5.667969-7-4.757812-.390625.535156-.601562 1.425781-.46875 1.984375 2.386719 10.007812 1.257813 35.933594-2.296875 52.785156-3.28125 15.550781-5.949218 23.464844-12.074218 35.78125-5.753907 11.570312-8.007813 15.515625-12.046876 21.078125-4.890624 6.734375-7.25 9.636719-8.8125 10.417969-4.75-7.03125-9.945312-13.765625-15.597656-20.105469-1.871094-2.117187-3.804687-4.175781-5.773437-6.207031.03125-1.128906.542969-2.144532 1.515625-3.265625.796875-.914063 1.746094-2.238281 2.109375-2.933594.367187-.699219 1.292969-2.070313 2.0625-3.046875 1.707031-2.171875 6.628906-11.902344 8.394531-16.597656.714844-1.894532 1.472656-3.675782 1.691406-3.957032.5625-.722656 3.898438-12.554687 4.804688-17.03125 2.476562-12.25 2.542968-13.003906 2.5625-28.390624.019531-13.425782-.097656-15.550782-1.09375-20.558594-.613282-3.070313-1.269532-6.605469-1.460938-7.863282-.191406-1.257812-.898437-4.113281-1.574218-6.34375-.671876-2.234374-1.683594-5.769531-2.25-7.855468-.566407-2.089844-1.222657-4.027344-1.460938-4.3125-.234375-.289063-1.027344-2.121094-1.757812-4.074219-2.769532-7.382813-10.339844-20.972656-15.976563-28.675781-9-12.292969-22.761719-25.347656-34.121094-32.367188-5.179687-3.199218-6.121093-4.128906-5.636719-5.570312.121094-.347656.300782-.585938.808594-.628906zm-78.773437 21.917968h.003906c1.214844.035156 2.542969.070313 4.113281.160156 1.566406.089844 3.375.222657 5.550782.394532 1.539062.121094 3.054687.261718 4.554687.425781 1.496094.164063 2.976563.351563 4.4375.558594 1.457031.207031 2.898437.433593 4.320313.6875 1.425781.25 2.828124.523437 4.214843.820312 1.386719.292969 2.753907.609375 4.101563.949219 1.351562.339844 2.679687.703125 3.996094 1.089844 1.3125.382812 2.609374.789062 3.890624 1.21875 1.28125.429687 2.542969.882812 3.789063 1.355468 1.246094.476563 2.472656.972657 3.683594 1.492188 1.214843.519531 2.410156 1.0625 3.589843 1.628906 1.179688.5625 2.34375 1.152344 3.488282 1.765625 1.148437.609375 2.28125 1.242188 3.398437 1.902344 1.117188.65625 2.21875 1.335937 3.304688 2.042969 1.085937.703125 2.152343 1.429687 3.210937 2.183594 1.054688.75 2.097656 1.523437 3.125 2.320312 1.027344.800781 2.039063 1.621094 3.039063 2.464844 2.003906 1.695312 4.628906 3.90625 5.835937 4.910156.601563.503906 1.617188 1.554688 2.761719 2.84375s2.425781 2.8125 3.558594 4.261719c1.128906 1.445312 2.226562 2.917969 3.285156 4.414062 1.0625 1.496094 2.082031 3.011719 3.066406 4.542969s1.925781 3.078125 2.828125 4.632812c.898438 1.554688 1.753906 3.117188 2.5625 4.683594s1.570313 3.132813 2.28125 4.695313c.710938 1.566406 1.371094 3.125 1.980469 4.671875.605469 1.546875 1.160156 3.085937 1.660156 4.605468.496094 1.519532.9375 3.023438 1.316407 4.5.3125 1.222657.601562 2.453126.867187 3.691407.265625 1.234375.507813 2.480469.722656 3.726562.214844 1.246094.40625 2.496094.570313 3.75.167968 1.257813.308594 2.515625.425781 3.773438.117187 1.257812.210937 2.519531.28125 3.78125.066406 1.257812.113281 2.519531.132813 3.777343.023437 1.257813.011718 2.515626-.015626 3.769532-.027343 1.253906-.082031 2.507812-.15625 3.753906-.078124 1.246094-.179687 2.488281-.304687 3.726562-.125 1.234376-.273437 2.464844-.445313 3.691407-.175781 1.222656-.371093 2.4375-.589843 3.644531-.222657 1.207031-.464844 2.40625-.734375 3.59375-.265625 1.1875-.558594 2.363281-.875 3.53125-.316406 1.164062-.652344 2.320312-1.015625 3.460938-.363281 1.140624-.75 2.269531-1.160157 3.378906-.40625 1.113281-.839843 2.210937-1.296874 3.292968-.699219 1.65625-1.46875 3.335938-2.257813 4.941407-.789063 1.601562-1.59375 3.128906-2.355469 4.480469-.765625 1.351562-1.488281 2.527343-2.113281 3.421874-.3125.449219-.597656.824219-.855469 1.121094-.253906.296875-.480468.507813-.664062.625-.070313.042969-.265625.074219-.390625.113282-18.25-12.257813-38.554688-21.457032-59.886719-26.84375-16.730469-4.332032-34.050781-6.386719-51.332031-6.179688-1.914063.03125-3.824219.101562-5.734375.191406.007812-.101562-.007813-.191406.039062-.304687.199219-.453125.800782-2.539063 1.34375-4.628907.300782-1.175781.695313-2.421874 1.148438-3.671874s.964844-2.503907 1.503906-3.6875c.539062-1.183594 1.101562-2.300782 1.664062-3.277344.558594-.972656 1.113282-1.808594 1.628907-2.433594.425781-.519531.8125-1.0625 1.09375-1.523438.28125-.460937.453125-.839843.453125-1.019531 0-.09375.070312-.238281.195312-.429687.125-.1875.308594-.425782.535156-.691406.457032-.53125 1.097657-1.195313 1.832032-1.902344.734375-.707032 1.5625-1.457032 2.398437-2.167969.835938-.707031 1.675781-1.378906 2.433594-1.917969 1.1875-.851562 2.367187-1.621094 3.554687-2.316406s2.382813-1.3125 3.589844-1.855469c1.203125-.542969 2.425782-1.007812 3.671875-1.402343 1.242188-.394532 2.511719-.714844 3.8125-.964844s2.636719-.425782 4.015625-.53125c1.375-.109375 2.796875-.148438 4.269532-.117188 1.472656.035156 2.996093.128906 4.582031.292969 1.585937.164063 3.234375.390625 4.953125.683594 1.632812.277343 3.5625.535156 5.351562.71875 1.792969.183593 3.445313.296875 4.527344.296875.878906 0 1.585938-.035156 2.207031-.054688.621094-.046875 1.15625-.121094 1.679688-.246094.523437-.125 1.042969-.300781 1.625-.546874.585937-.242188 1.238281-.554688 2.039062-.957032.523438-.261718 1.03125-.542968 1.519531-.835937.492188-.296875.964844-.609375 1.421876-.9375.457031-.328125.894531-.671875 1.316406-1.03125.421875-.355469.828125-.726563 1.210937-1.113281.773438-.769532 1.46875-1.59375 2.089844-2.460938.617187-.867188 1.160156-1.78125 1.621094-2.730469.230469-.472656.441406-.957031.632812-1.449219.1875-.492187.355469-.992187.503907-1.5.144531-.503906.273437-1.015624.375-1.535156.105468-.519531.1875-1.046875.246093-1.578125.058594-.527343.09375-1.0625.109375-1.601562.015625-.539063.007813-1.078125-.03125-1.625-.03125-.542969-.085937-1.089844-.167968-1.640625-.078126-.546875-.183594-1.097656-.3125-1.648438-.269532-1.160156-.515626-2.101562-.789063-2.921875-.277344-.820312-.582031-1.523437-.96875-2.195312s-.859375-1.316407-1.472656-2.03125c-.609375-.710938-1.355469-1.492188-2.296875-2.433594-.535156-.535156-1.050782-1.023437-1.558594-1.476563-.507812-.449218-1.003906-.859374-1.507812-1.238281-.503907-.375-1.011719-.71875-1.535157-1.03125-.523437-.316406-1.066406-.605469-1.640625-.867187-.570312-.265625-1.171875-.507813-1.8125-.734375-.644531-.226563-1.332031-.4375-2.070312-.640625-1.484375-.398438-3.183594-.753906-5.207032-1.117188-1.414062-.253906-2.632812-.453125-3.816406-.613281-1.179687-.15625-2.328125-.273437-3.59375-.355469-1.269531-.082031-2.660156-.132812-4.332031-.15625-1.671875-.035156-3.625-.035156-6.019531-.035156-3.042969 0-5.207032 0-6.984375.042969-.886719.039062-1.671875.058593-2.425781.121093-.75.058594-1.464844.140626-2.199219.257813-.738281.117187-1.496094.265625-2.335938.457031-.84375.195313-1.765625.425782-2.832031.714844-2.136719.570312-4.839844 1.347656-8.601562 2.414062-.683594.191407-1.472657.46875-2.339844.820313-.871094.347656-1.824219.765625-2.828125 1.238281-1.003907.476563-2.0625 1.003906-3.144531 1.570313-1.085938.570312-2.195313 1.179687-3.308594 1.8125-2.226563 1.265625-4.453125 2.632812-6.464844 3.972656-1.007812.671875-1.964844 1.335937-2.839844 1.980469-.875.644531-1.667968 1.269531-2.359375 1.859375-1.105469.941406-2.453125 2.203125-3.890625 3.628906-1.433594 1.425781-2.960937 3.007813-4.433594 4.59375-1.46875 1.585937-2.878906 3.167969-4.085937 4.59375s-2.207031 2.691406-2.851563 3.636719c-.535156.785156-1.273437 2.054687-2.101562 3.582031s-1.742188 3.316406-2.636719 5.132813c-.898437 1.820312-1.773437 3.671874-2.511719 5.332031-.742187 1.65625-1.347656 3.117187-1.710937 4.15625-.554687 1.585937-1.078125 3.273437-1.5625 5.015625-.484375 1.742187-.929687 3.535156-1.324219 5.332031-.394531 1.796875-.742187 3.597656-1.023437 5.34375-.285157 1.746094-.503907 3.445313-.652344 5.039063-.179687 1.929687-.378906 3.554687-.617187 4.90625-.121094.675781-.25 1.285156-.386719 1.828124-.109375.421876-.230469.773438-.351563 1.121094-19.632812 5.207032-38.464844 13.441406-55.589844 24.34375-.015624-.121094-.039062-.203125-.054687-.34375-.09375-.804687-.167969-1.878906-.214844-3.15625s-.066406-2.757812-.066406-4.371094c0-1.613281.023437-3.359374.066406-5.171874.082031-3.625.25-7.511719.488281-11.109376.121094-1.800781.257813-3.527343.40625-5.113281.152344-1.585937.320313-3.035156.503907-4.273437.242187-1.652344.515625-3.296875.8125-4.933594.300781-1.636719.628906-3.265625.984375-4.878906.351562-1.617188.734375-3.21875 1.144531-4.808594.40625-1.585938.839844-3.15625 1.300781-4.710938.457032-1.550781.945313-3.082031 1.453125-4.59375.507813-1.511718 1.039063-2.996093 1.59375-4.460937.554688-1.460937 1.136719-2.902344 1.738281-4.308594.601563-1.410156 1.222657-2.789062 1.867188-4.132812.9375-1.957031 2.464844-5.152344 3.398438-7.109375.585937-1.21875 1.195312-2.421875 1.839843-3.605469s1.316407-2.355469 2.027344-3.511719c.707031-1.160156 1.449219-2.304687 2.230469-3.441406.777344-1.140625 1.59375-2.269531 2.449218-3.398438 1.585938-2.089843 3.320313-4.546874 3.851563-5.457031.265625-.453125.597656-.894531.917969-1.238281.316406-.347656.625-.59375.84375-.664062.21875-.070313.511718-.285157.808594-.585938.296874-.300781.59375-.675781.824218-1.0625.210938-.347656.550782-.808594.996094-1.351562.449219-.539063 1-1.164063 1.636719-1.847657 1.265625-1.371093 2.859375-2.976562 4.574219-4.628906 1.714843-1.652344 3.558593-3.351563 5.324218-4.902344s3.453125-2.953125 4.871094-4.019531c1.425781-1.074219 3.054688-2.234375 4.785156-3.410156 1.730469-1.175782 3.5625-2.371094 5.402344-3.523438 1.835938-1.152344 3.675781-2.265625 5.425781-3.277344 1.75-1.007812 3.40625-1.917968 4.875-2.660156 1.894531-.960937 3.664063-1.835937 4.988281-2.46875 1.320313-.632812 2.199219-1.023437 2.308594-1.023437.222656 0 2.433594-.796875 4.914063-1.765625.941406-.367188 2.011719-.75 3.171875-1.140625s2.410156-.78125 3.707031-1.171875c2.597656-.78125 5.398437-1.550782 8.09375-2.226563 2.699219-.671875 5.292969-1.253906 7.476563-1.664062 1.089843-.207031 2.082031-.371094 2.929687-.484375.847656-.113282 1.554687-.171875 2.082031-.171875.765625 0 2.144532-.0625 3.75-.171875 1.605469-.105469 3.441406-.253906 5.117188-.417969 1.261718-.125 2.382812-.214844 3.496094-.269531 1.113281-.050782 2.214843-.074219 3.425781-.054688zm-19.640625 131.714844c96.703125 0 175.09375 78.390625 175.09375 175.089844 0 96.703125-78.390625 175.09375-175.09375 175.09375-96.699219 0-175.089844-78.390625-175.089844-175.09375 0-96.699219 78.390625-175.089844 175.089844-175.089844zm-196.691406 158.917969c1.46875.015625 2.285156.074219 2.835937.207031-.414063 5.082031-.632813 10.183594-.621094 15.289062-.214843 36.109376 10.070313 72.160157 28.984375 102.890626-.890625.542968-2.757812 1.003906-6.792968 1.960937-7.847657 1.863281-16.441407.976563-24.867188-2.566406-9.222656-3.878907-17.578125-13.515625-20.289062-23.414063-.589844-2.152344-1.40625-4.550781-1.8125-5.328125-.402344-.773437-.734376-1.933593-.738282-2.578125 0-1.488281-6.496094-7.78125-9.519531-9.226562-3.609375-1.722656-8.871094-2.25-13.269531-1.328125-8.753906 1.835937-14.699219 9.332031-14.9375 18.828125-.09375 3.746094 1.367187 11.472656 2.496094 13.195312.363281.558594 1.246093 2.558594 1.957031 4.445313 2.074219 5.511719 6.101562 13.132812 8.242187 15.601562 1.09375 1.257813 3.113282 3.738281 4.488282 5.511719 3.253906 4.191406 9.898437 10.046875 16.644531 14.664062 2.957031 2.023438 5.523437 3.679688 5.703125 3.679688.179687 0 2.1875.878906 4.460937 1.957031 7.753907 3.671875 13.808594 5.535157 20.75 6.386719 14.441407 1.769531 27.808594.492188 40.359375-3.851562 2.300782-.796876 4.429688-1.445313 4.722656-1.445313.296876 0 2.050782-.914063 3.902344-2.03125 1.488282-.898437 2.761719-1.480469 3.890625-1.777344 14.238281 14.800781 30.863281 27.28125 48.996094 36.921875-.375.78125-1.171875 1.457032-2.441406 2.101563-1.292969.65625-3.835938 1.992187-5.648438 2.972656-1.816406.980469-4.203125 2.265625-5.308593 2.859375-1.109376.589844-2.328126 1.074219-2.714844 1.074219-.386719 0-1.308594.425781-2.050782.945312-5.394531 3.773438-26.828124 10.714844-33.128906 10.726563-.734375 0-2.335937.367187-3.554687.816406-1.222657.445312-5.761719 1.238281-10.089844 1.757812-13.425781 1.613282-25 .949219-40.605469-2.328124-10.945312-2.300782-22.617187-6.824219-32.734375-12.6875-2.515625-1.453126-5.597656-3.230469-6.851562-3.949219-1.257813-.714844-3.808594-2.515625-5.671875-4-1.859375-1.484375-4.59375-3.613281-6.070313-4.730469-5.753906-4.351562-15.113281-14.183594-19.804687-20.808594-7.992188-11.285156-10.695313-15.992187-14.378906-25.027344-4.394532-10.769531-7.144532-19.730468-8.671876-28.261718-.839843-4.699219-1.007812-24.222656-.242187-28.675782 1.753906-10.230468 5.417969-21.460937 10.042969-30.777343 5.894531-11.871094 20.542968-28.148438 30.539062-33.933594 1.925782-1.113281 4.613282-2.820313 5.960938-3.789063 3.152344-2.257812 12.914062-6.625 19.308594-8.632812 7.140624-2.242188 15.445312-3.476562 24.277343-3.605469 1.816407-.035156 3.195313-.042969 4.253907-.039062zm391.015624 6.726562c.917969.132813 7.664063 4.203125 9.996094 6.046875.980469.769532 2.808594 1.925782 4.0625 2.566406 5.90625 3.007813 15.855469 11.234376 25.617188 21.171876 6.597656 6.71875 8.9375 9.460937 12.195312 14.296874.558594.828126 2.121094 3.058594 3.46875 4.953126 2.972656 4.179687 7.445313 11.742187 7.445313 12.589843 0 .339844.484375 1.234375 1.078125 1.988281.59375.753907 1.75 3.125 2.570312 5.269532 6.953125 18.15625 9.015625 28.023437 9.320313 44.5.101562 5.585937-.023438 11.523437-.273438 13.195312-.253906 1.675782-.6875 5.671875-.972656 8.882813-.625 7.101562-1.480469 10.957031-4.347656 19.542969-5.578125 16.6875-10.316407 25.625-20.730469 39.078124-2.476562 3.199219-12.824219 13.804688-17.132812 17.5625-5.527344 4.816407-16.640626 11.730469-22.660157 14.101563-9.714843 3.824219-17.835937 6.09375-24.507812 6.847656-9.328125 1.058594-14.726563 1.289063-19.539063.839844-25.855468-2.421875-45.820312-11.828125-63.109375-29.734375-5.480469-5.671875-11.042969-13.839844-12.363281-18.140625-.089844-.289063-.140625-.542969-.1875-.796875 1.34375-.648438 2.679688-1.3125 4.007812-1.992188 35.253907-17.921874 64.867188-46.832031 83.378907-81.796874 1.675781.046874 2.199219.371093 3.941406 2.34375 4.035156 4.5625 7.085937 9.753906 9.226563 15.6875 1.320312 3.671874 1.445312 4.625 1.453124 10.875.003907 6.09375-.152343 7.34375-1.40625 11.304687-2.085937 6.578125-5.839843 12.796875-10.792968 17.882813-4.9375 5.0625-6.363282 8.367187-6.371094 14.742187-.007812 7.53125 1.757812 11.378906 7.160156 15.605469 3.105469 2.429687 3.996094 2.84375 7.839844 3.652344 4.089844.859374 4.578125.863281 8.519531.074218 2.613281-.523437 4.949219-1.355468 6.234375-2.214844 4.675782-3.136718 14.253906-13.945312 17.410156-19.648437 4.199219-7.582031 7.394532-15.386719 9.363282-22.871094 1.570312-5.960937 1.605468-6.347656 1.640625-17.765625.027343-9.703125-.125-12.355468-.914063-15.714844-2.214844-9.453124-7.257812-21.078124-12.601562-29.039062-4.867188-7.257812-15.101563-17.449219-22.359375-22.269531-1.238281-.820313-2.070313-1.410157-2.617188-2.074219 5.550781-19.980469 7.945313-40.835938 6.957031-61.542969zm-240.914062 198.328125c5.300781 1.304688 10.664062 2.378906 16.066406 3.214844 25.433594 4.066406 51.671875 2.941406 76.695313-3.144531.457031.570312 1.929687 3.449219 3.351562 6.582031 1.457031 3.203125 3.578125 7.199219 4.710938 8.878906 4.8125 7.136719 18.300781 22.671875 21.675781 24.960938.976562.664062 3.261719 2.472656 5.074219 4.019531 7.734375 6.597656 11.59375 9.183594 21.320312 14.304687 9.480469 4.984376 12.417969 6.292969 19.03125 8.472657 1.957031.644531 4.371094 1.527343 5.363281 1.960937 3.792969 1.65625 22.242188 4.964844 30.726563 5.507813 16.046875 1.03125 34.667969-1.289063 49.6875-6.1875 11.082031-3.617188 13.210937-4.585938 27.15625-12.339844 4.726563-2.632813 6.855469-2.375 4.789063.574219-.988282 1.40625-14.445313 13.453125-19.835938 17.75-2.191406 1.75-5.242188 4.203125-6.777344 5.449218-5.273437 4.28125-10.414062 8.101563-15.988281 11.878907-14.128906 9.578125-16.957031 11.390625-19.921875 12.8125-1.746094.832031-3.171875 1.738281-3.171875 2.007812 0 .273438-1.429687 1.136719-3.171875 1.921875-1.746094.785156-4.0625 2.03125-5.152344 2.773438-4.40625 2.996094-37.433594 18.59375-39.375 18.59375-.269531 0-3.179687 1.046875-6.46875 2.328125-3.289062 1.277343-7.921875 3.078125-10.292968 3.996093-4.421876 1.710938-11.449219 3.773438-20.730469 6.085938-4.8125 1.199219-8.476563 1.945312-16.476563 3.347656-1.621094.285156-4.003906.875-5.296875 1.3125-1.292969.441406-4.242187.972656-6.558593 1.183594-2.3125.210938-4.5.617188-4.855469.902344-.355469.289062-1.902344.675781-3.4375.863281-1.535157.183594-5.988281.773437-9.894531 1.304687-3.910157.535157-10.078126 1.203126-13.707032 1.484376-15.28125 1.1875-48.242187.96875-60.144531-.398438-2.371094-.273438-7.625-.882812-11.671875-1.351562s-8.730469-1.265626-10.40625-1.769532-4.300781-1.050781-5.835938-1.210937c-1.535156-.164063-4.617187-.734375-6.851562-1.265625-2.234375-.535156-6.460938-1.46875-9.390625-2.070313-19.03125-3.921875-23.027344-5.128906-47.964844-14.492187-10.683593-4.011719-35.210937-15.480469-39.84375-18.628906-.976562-.667969-3.261719-2.019532-5.074219-3.007813-8.269531-4.503906-9.589843-5.296875-15.988281-9.585937-2.234375-1.496094-6.457031-4.304688-9.390625-6.242188-4.582031-3.03125-8.597656-5.984375-18.757812-13.789062-4.929688-3.789063-21.722656-18.949219-29.511719-26.640626-5.359375-5.289062-18.503906-19.980468-22.625-25.289062-1.886719-2.421875-3.683594-4.632812-4-4.914062-.800781-.703126-5.859375-7.445313-10.21875-13.613282-3.328125-4.707031-4.390625-6.941406-3.300781-6.941406.921875 0 5.292968 3.160156 7.855468 5.679688 2.355469 2.320312 5.019532 4.539062 9.6875 8.082031 9.332032 7.082031 27.679688 17.007812 39.65625 21.445312 3.351563 1.242188 10.773438 3.402344 16.496094 4.796875 9.144532 2.226563 12.824219 2.941406 24.109375 4.695313 4.429688.6875 24.074219.511719 32.074219-.292969 15.902344-1.59375 33-5.542969 46.597656-10.765625 6.53125-2.507813 18.804688-8.089844 22.078125-10.039063 1.535157-.917968 4.503907-2.519531 6.597657-3.5625 2.09375-1.042968 5.40625-2.980468 7.359374-4.300781 1.957032-1.324219 5.152344-3.46875 7.105469-4.765625 5.554688-3.683594 6.976563-4.703125 8.882813-6.371094 3.375-2.953124 6.011718-4.984374 7.941406-6.191406zm0 0" fill="#c4ab60"/><path d="m478.542969 342.46875-128.570313 68.183594v147.679687l129.054688 66.21875-.734375-194.566406-66.59375 36.449219v38.667968l33.152343-19.140624v83.984374l-61.21875-34.984374v-103.324219l94.910157-50.433594zm17.136719.257812v38.734376l94.90625 50.433593v51l-28.066407-16.203125-67.34375-36.449218.015625 194.566406 34.175782-17.535156v-121.054688l33.152343 19.140625 28.0625 15.1875 33.15625 19.144531.507813.832032v-129.613282zm0 0" fill="#fdfffb"/><path d="m466.164062 789.023438c-1.675781-.230469-6.359374-.636719-10.40625-.90625-14.519531-.96875-37.070312-4.679688-43.902343-7.222657-1.398438-.519531-4.023438-1.285156-5.835938-1.703125-1.816406-.417968-7.414062-2.125-12.4375-3.796875-5.023437-1.671875-10.621093-3.523437-12.433593-4.117187-1.816407-.589844-4.554688-1.621094-6.089844-2.292969-1.539063-.671875-5.535156-2.253906-8.882813-3.519531-3.351562-1.261719-6.433593-2.527344-6.851562-2.808594-.421875-.277344-3.390625-1.816406-6.601563-3.414062-4.527344-2.257813-5.835937-3.136719-5.835937-3.921876 0-1.136718 1.652343-1.570312 11.445312-3.003906 6.625-.96875 30.886719-8.039062 36.851563-10.738281.878906-.398437 1.773437-.722656 1.988281-.722656.210937 0 3.945313-1.648438 8.296875-3.660157 5.550781-2.570312 8.46875-3.648437 9.78125-3.621093 1.929688.042969 11.601562 2.179687 15.636719 3.453125 12.078125 3.8125 43.203125 6.828125 62.9375 6.097656 9.960937-.371094 18.683593-1.234375 20.683593-2.050781 2.15625-.882813 2.105469-1.90625-.253906-5.140625-4.304687-5.902344-8.71875-13.339844-10.175781-17.15625-4.875-12.773438-6.707031-19.601563-7.953125-29.605469-.882812-7.109375-.695312-8.847656.933594-8.613281.820312.117187 1.328125.882812 2.105468 3.199218.5625 1.675782 1.847657 4.644532 2.855469 6.597657 1.007813 1.953125 2.355469 4.808593 3 6.34375 1.410157 3.363281 7.917969 14.390625 10.78125 18.269531 3.375 4.574219 4.699219 6.289062 8.820313 11.421875 3.167968 3.941406 16.652344 17.023437 21.226562 20.597656 2.996094 2.335938 13.042969 9.578125 17.511719 12.617188 1.566406 1.066406 16.4375 8.609375 20.429687 10.363281 1.605469.703125 2.917969 1.515625 2.917969 1.804688 0 .878906-2.386719 1.792968-13.195312 5.042968-5.722657 1.722656-11.089844 3.375-11.929688 3.675782-8.152343 2.925781-24.878906 5.632812-49.738281 8.054687-8.492188.828125-13.910156 1.023437-26.648438.964844-8.792968-.039063-17.355468-.261719-19.03125-.488281zm0 0" fill="#c4ab60"/><path d="m75.398438 498.210938c.355468 154.292968 87.089843 295.390624 224.601562 365.375l6.421875-12.839844c-132.640625-67.554688-216.289063-203.6875-216.632813-352.535156zm807.683593 0c-.070312 140.683593-74.65625 270.800781-196.015625 341.960937l6.507813 13.019531c126.25-73.65625 203.882812-208.816406 203.898437-354.980468zm0 0" fill="#fdfffb"/><path d="m473.582031 125.949219c-1.761719-.035157-3.523437.050781-5.28125.164062-54.34375 3.011719-107.808593 18.789063-155.484375 44.949219-35.769531 19.617188-68.351562 45.121094-95.664062 75.453125-26.199219 29.382813-47.246094 63.28125-62.441406 99.578125-19.59375 46.78125-29.558594 97.621094-28.648438 148.351562.410156 23.171876 3.128906 46.304688 8.148438 68.933594 13.675781 61.75 44.046874 119.59375 86.570312 166.359375 20.640625 22.699219 44.175781 42.792969 69.980469 59.402344 61.09375 39.371094 134.265625 59.429687 206.867187 57.449219 22.109375-.605469 44.160156-3.265625 65.757813-8.015625 67.800781-14.855469 130.882812-49.984375 179.679687-99.28125 16.277344-16.441407 30.957032-34.476563 43.675782-53.808594 40.164062-60.78125 61.34375-133.878906 59.964843-206.710937-.273437-14.652344-1.484375-29.285157-3.589843-43.785157-10.691407-73.8125-44.953126-144.003906-96.550782-197.851562-9.125-9.523438-18.796875-18.515625-28.941406-26.941407-54.101562-45.15625-121.589844-74.265624-191.707031-81.835937-7.101563-.78125-14.226563-1.28125-21.363281-1.664063-10.3125-.558593-20.644532-.777343-30.972657-.746093zm1.355469 17.402343c11.621094 0 23.230469.296876 34.8125 1.101563 6.300781.410156 12.589844.972656 18.871094 1.738281 7.289062.886719 14.59375 2.023438 21.8125 3.398438 11.292968 2.148437 22.566406 4.90625 33.5625 8.199218 8.066406 2.414063 16.03125 5.125 23.886718 8.117188 15.605469 5.953125 30.894532 13.089844 45.523438 21.253906 12.808594 7.144532 25.191406 15.109375 37.015625 23.832032 10.125 7.464843 19.886719 15.535156 29.183594 24.074218 12.039062 11.097656 23.238281 23.101563 33.511719 35.847656 15.890624 19.71875 29.613281 41.289063 40.8125 64.039063 1.410156 2.859375 2.804687 5.792969 4.132812 8.691406 2.503906 5.453125 4.859375 10.96875 7.074219 16.527344 3.113281 7.84375 5.941406 15.777344 8.476562 23.816406 5.730469 18.167969 9.972657 36.875 12.578125 55.785157.714844 5.179687 1.328125 10.394531 1.804688 15.613281.664062 7.269531 1.09375 14.628906 1.273437 21.945312.285157 11.550781-.035156 23.109375-.925781 34.589844-.738281 9.464844-1.863281 18.84375-3.375 28.214844-2.007812 12.40625-4.683594 24.703125-8.015625 36.828125-2.480469 9.019531-5.339844 18.003906-8.539063 26.792968-1.628906 4.492188-3.386718 9.023438-5.207031 13.460938-5.976562 14.535156-12.9375 28.683594-20.84375 42.285156-1.839843 3.15625-3.71875 6.277344-5.667969 9.390625-5.617187 8.96875-11.644531 17.75-18.097656 26.164063-10.390625 13.589844-21.824218 26.335937-34.164062 38.183594-3.042969 2.921874-6.183594 5.824218-9.324219 8.621093-5.492187 4.894531-11.207031 9.667969-17.019531 14.214844-10.101563 7.90625-20.648438 15.246094-31.566406 22.003906-6.300782 3.890625-12.769532 7.613281-19.320313 11.105469-27.332031 14.578125-56.679687 25.546875-86.953125 32.25-11.308594 2.519531-22.757812 4.4375-34.289062 5.746094-9.441407 1.074218-18.957032 1.746094-28.453126 2.015625-7.175781.207031-14.359374.183593-21.535156-.0625-2.574218-.089844-5.207031-.210938-7.785156-.359375-15.796875-.898438-31.472656-2.871094-47.007812-5.894532-10.367188-2.023437-20.6875-4.523437-30.859376-7.472656-11.113281-3.234375-22.113281-7.023437-32.867187-11.351562-5.105469-2.050782-10.207031-4.246094-15.207031-6.539063-16.054688-7.363281-31.539063-15.976562-46.246094-25.757812-8.859375-5.898438-17.554688-12.320313-25.820312-19.066407-8.339844-6.808593-16.351563-14.019531-24.003907-21.589843-16.675781-16.496094-31.699219-34.753907-44.730469-54.285157-11.242187-16.832031-21.050781-34.6875-29.230468-53.226562-3.015625-6.84375-5.8125-13.777344-8.386719-20.816406-4.027344-11.015625-7.496094-22.238282-10.367187-33.628906-1.5625-6.203126-2.964844-12.527344-4.164063-18.808594-1.605469-8.382813-2.882813-16.847656-3.832031-25.351563-.710938-6.347656-1.230469-12.742187-1.574219-19.148437-.15625-2.929688-.277344-5.9375-.355469-8.875-.257812-9.578125-.101562-19.175782.445313-28.707032.492187-8.523437 1.292969-16.988281 2.410156-25.445312.601563-4.578125 1.308594-9.214844 2.09375-13.765625 1.089844-6.304687 2.34375-12.550781 3.773437-18.796875.703126-3.0625 1.449219-6.113281 2.230469-9.167969.792969-3.054687 1.640625-6.191406 2.511719-9.222656 2.988281-10.425781 6.460938-20.714844 10.394531-30.824219 7.3125-18.761718 16.257813-36.953125 26.730469-54.183594 5.015625-8.253906 10.410156-16.332031 16.132812-24.136718 4.390626-5.992188 9.058594-11.925782 13.863282-17.621094 4.105468-4.867188 8.359375-9.628906 12.753906-14.210938 4.230469-4.429687 8.605469-8.765624 13.054688-12.945312 24.632812-23.136719 52.730468-42.628906 82.957031-57.785156 2.757812-1.386719 5.527343-2.726563 8.332031-4.046875 2.339844-1.09375 4.746094-2.195313 7.113281-3.242188 8-3.542969 16.132813-6.789062 24.371094-9.734375 6.925781-2.46875 14.046875-4.765625 21.132813-6.796875 9.195312-2.644531 18.515624-4.910156 27.871093-6.777343 9.332031-1.859376 18.710938-3.332032 28.167969-4.40625 5.289062-.601563 10.589844-1.074219 15.921875-1.421876 2.351563-.144531 4.683594-.296874 7.050781-.371093h2.089844zm0 0" fill="#c4ab60"/><g fill="#fdfffb"><path d="m876.324219 432.886719c-1.988281-1.160157-3.253907-2.980469-4.285157-6.160157-.691406-2.128906-5.835937-37.378906-5.484374-37.605468.816406-.53125 38.082031-5.070313 38.425781-4.679688.976562 1.09375 5.03125 34.617188 4.566406 37.726563-.652344 4.34375-2.535156 6.433593-6.542969 7.261719-4.40625.914062-7.429687.359374-9.375-1.710938l-1.597656-1.699219-.742188 2.230469c-1.121093 3.378906-3.730468 4.921875-8.90625 5.265625-2.929687.195313-5.019531-.035156-6.058593-.628906zm7.515625-7.988281c4.355468-.871094 4.535156-2.035157 2.527344-16.449219-.980469-7.058594-1.785157-12.875-1.785157-12.929688 0-.136719-10.144531 1.214844-10.363281 1.378907-.097656.078124.605469 5.957031 1.566406 13.066406 1.5 11.109375 1.957032 13.097656 3.242188 14.152344 1.691406 1.386718 1.738281 1.394531 4.8125.78125zm17.148437-3.851563c.949219-.433594 1.898438-1.433594 2.105469-2.222656.3125-1.203125-1.375-15.792969-2.703125-23.355469l-.375-2.148438-4.773437.648438-4.777344.644531 1.59375 11.328125c.875 6.230469 1.605468 11.726563 1.621094 12.207032.046874 1.371093 2.6875 3.6875 4.207031 3.6875.753906 0 2.148437-.355469 3.101562-.789063zm-817.875 10.929687c-18.179687-3.363281-20.171875-6.898437-16.148437-28.667968 3.035156-16.433594 5.59375-20.800782 12.167968-20.78125 4.855469.035156 5.1875.410156 4.25 5.070312-.574218 2.859375-1.054687 3.835938-1.757812 3.566406-1.945312-.746093-4.210938.464844-5.355469 2.867188-1.464843 3.066406-4.039062 16.261719-4.039062 20.695312 0 2.652344.363281 3.691407 1.726562 4.976563 2.140625 2.007813 7.515625 3.503906 14.425781 4.007813 4.914063.363281 5.367188.273437 6.835938-1.308594 2.886719-3.113282 6.8125-22.710938 5.242188-26.164063-.789063-1.722656-5.609376-3.683593-6.523438-2.648437-.25.28125-.824219 2.566406-1.277344 5.074218-2.289062 12.65625-2.003906 11.933594-4.5 11.46875-1.230468-.230468-2.511718-.667968-2.847656-.972656-.335938-.304687.425781-6.054687 1.726562-12.960937l2.332032-12.410157 2.679687.425782c13.863281 2.21875 16.554688 4.871094 15.722657 15.503906-.652344 8.378906-3.6875 21.949219-5.878907 26.296875-1.058593 2.109375-2.785156 4.449219-3.832031 5.207031-2.496094 1.804688-7.816406 2.074219-14.949219.753906zm14.394531-75.914062c-9.460937-3.304688-17.3125-6.109375-17.453124-6.234375-.292969-.265625 2.027343-6.730469 2.699218-7.523437.457032-.535157 34.917969 11.058593 36.070313 12.136718 1.003906.941406-1.59375 7.71875-2.941407 7.671875-.644531-.035156-8.914062-2.746093-18.375-6.050781zm762.125 3.171875c-3.101562-2.722656-5.703124-7.773437-8.996093-17.441406-5.105469-15.007813-4.625-20.980469 1.96875-24.386719 1.144531-.59375 7.875-3.085938 14.957031-5.542969l12.878906-4.46875.96875 2.320313c2.5625 6.136718 3.324219 5.402344-10.644531 10.253906-6.882813 2.390625-13.199219 4.796875-14.03125 5.339844-2.402344 1.566406-2.570313 4.320312-.664063 10.890625 3.5 12.0625 6.015626 16.125 9.988282 16.125 1.261718 0 7.746094-1.890625 14.414062-4.207031 6.667969-2.316407 12.328125-3.972657 12.585938-3.6875.367187.417968 2.757812 6.992187 2.757812 7.597656 0 .082031-6.265625 2.238281-13.925781 4.789062-16.214844 5.402344-18.566406 5.65625-22.257813 2.417969zm-740.410156-34.867187c-4.027344-2.226563-11.507812-6.34375-16.625-9.152344-5.117187-2.804688-9.296875-5.476563-9.292968-5.9375 0-.457032 1.28125-3.125 2.832031-5.921875 2.792969-5.035157 2.855469-5.09375 5.785156-5.160157 15.179687-.347656 30.664063-1.074218 31.042969-1.453124.257812-.257813-3.347656-6.914063-8.015625-14.792969-4.664063-7.878907-8.484375-14.667969-8.484375-15.085938 0-.816406 4.613281-9.257812 5.625-10.296875.496094-.511718 31.921875 15.980469 33.886718 17.785156.710938.652344-2.871093 7.066407-3.9375 7.050782-.449218 0-6.503906-3.132813-13.457031-6.949219-6.949219-3.8125-12.75-6.828125-12.890625-6.699219-.136718.128906 3.5625 6.671875 8.222656 14.535156 4.65625 7.863282 8.664063 14.804688 8.898438 15.417969.238281.617188-.203125 2.367188-.980469 3.890625l-1.410156 2.765625-8.578125.460938c-4.71875.253906-11.449219.484375-14.960938.511719-3.511718.035156-7.800781.265624-9.535156.527343l-3.148437.476563 12.628906 6.902344c6.945313 3.796874 12.917969 7.183593 13.269531 7.523437.691406.667969-1.316406 5.800781-2.730468 6.972656-.5625.464844-3.136719-.601562-8.144532-3.371093zm708.640625-32.597657c-10.207031-18.121093-12.917969-23.097656-12.683593-23.277343 1.925781-1.445313 33.820312-18.613282 34.164062-18.394532 1.25.796875 3.898438 6.765625 3.269531 7.359375-.375.359375-6.527343 3.882813-13.671875 7.839844-7.140625 3.957031-13.105468 7.292969-13.253906 7.414063-.230469.191406 4.210938 8.5 11.28125 21.089843l2.027344 3.613281-2.390625 1.480469c-1.316407.8125-2.730469 1.476563-3.144531 1.476563-.414063 0-2.933594-3.871094-5.597657-8.601563zm-671.902343-52.183593c-7.820313-6.753907-14.21875-12.566407-14.21875-12.917969 0-1.199219 21.757812-25.941407 24.386718-27.726563 3.503906-2.382812 6.792969-2.320312 10.757813.210938 3.886719 2.480468 8.894531 7.878906 9.480469 10.21875.980468 3.890625-2.6875 9.632812-14.898438 23.328125l-4.457031 4.996093 4.558593 3.78125c2.507813 2.078126 4.5625 3.960938 4.566407 4.179688 0 .625-4.957031 6.273438-5.488281 6.238281-.257813-.035156-6.871094-5.554687-14.6875-12.308593zm11.8125-12.707032c7.457031-8.707031 10.476562-12.824218 10.476562-14.285156 0-1.558594-6.035156-7.007812-7.765625-7.007812-.6875 0-2.234375.824218-3.429687 1.832031-2.808594 2.363281-14.78125 16.105469-14.78125 16.964843 0 .667969 9.089843 8.585938 9.859374 8.585938.234376 0 2.769532-2.742188 5.640626-6.089844zm629.933593 15.851563c-3.296875-1.632813-8.316406-6.78125-15.179687-15.570313-10.570313-13.539062-10.753906-17.941406-1.09375-26.699218 9.105468-8.25 15.316406-10.945313 20.597656-8.9375 2.707031 1.027343 7.667969 5.894531 13.855469 13.585937 8.453125 10.507813 11.101562 15.464844 10.046875 18.796875-.601563 1.886719-5.136719 6.953125-6.230469 6.953125-.453125 0-1.828125-1.308594-3.054687-2.90625l-2.238282-2.910156 1.757813-2.085938c1.199219-1.425781 1.617187-2.558593 1.320312-3.585937-1.40625-4.863282-14.847656-20.113282-17.722656-20.109375-2.339844 0-5.476563 1.777343-10.769531 6.078125-5.015625 4.074218-6.605469 6.722656-5.921875 9.851562.535156 2.429688 6.410156 10.410156 11.664062 15.84375 4.207031 4.355469 6.082031 4.949219 9.035157 2.878906 1.578124-1.101562 1.71875-1.078124 3 .527344 3.75 4.703125 3.800781 4.867188 1.933593 6.367188-1.945312 1.566406-5.789062 3.394531-7.128906 3.390625-.496094 0-2.238281-.660157-3.871094-1.46875zm-55.304687-55.464844c-6.179688-5.414063-12.308594-10.902344-13.621094-12.199219l-2.382812-2.359375 11.160156-12.777343c6.140625-7.03125 11.835937-13.601563 12.660156-14.609376l1.492188-1.828124 3.246093 2.65625c1.78125 1.460937 3.230469 2.875 3.21875 3.136718-.027343.265625-4.710937 5.820313-10.4375 12.34375l-10.414062 11.863282 10.4375 9.097656c5.742187 5.003906 10.429687 9.300781 10.417969 9.550781-.027344.460937-4.019532 5.039063-4.359376 4.992187-.101562-.035156-5.238281-4.453124-11.417968-9.867187zm-530.449219 7.234375c-3.097656-1.691406-11.207031-11.179688-14.015625-16.394531-1.1875-2.203125-2.132812-5.027344-2.132812-6.359375 0-4.828125 5.667968-11.109375 19.121093-21.1875 10.160157-7.609375 14.402344-8.804688 19.546875-5.5 3.859375 2.480468 12.078125 12.421875 14.457032 17.492187 3.214843 6.851563 1.074218 10.699219-11.832032 21.269531-13.9375 11.410157-19.488281 13.765626-25.144531 10.679688zm13.300781-10.085938c6.292969-4.445312 14.144532-11.320312 15.160156-13.277343.566407-1.097657 1.027344-2.578125 1.027344-3.292969 0-3.257812-9.726562-15.089844-13.101562-15.9375-3.054688-.765625-11.339844 4.542969-19.722656 12.636719-3.179688 3.070312-3.683594 3.925781-3.683594 6.238281 0 3.105469 4.214844 9.570312 9.148437 14.027344 2.59375 2.34375 3.273438 2.625 5.464844 2.269531 1.378906-.222656 3.945313-1.421875 5.707031-2.664063zm466.945313-33.65625c-7.914063-5.035156-14.808594-9.394531-15.316407-9.691406-.6875-.398437 1.761719-4.785156 9.378907-16.808594 5.671875-8.945312 10.636719-16.265624 11.035156-16.265624 1.375 0 6.847656 3.863281 6.558594 4.628906-.164063.421875-3.957031 6.535156-8.429688 13.582031-4.476562 7.050781-8.140625 12.890625-8.140625 12.976563 0 .085937 5.210938 3.453124 11.582032 7.480468 6.367187 4.023438 11.582031 7.597656 11.585937 7.9375 0 .890625-2.832031 5.351563-3.390625 5.332032-.257812 0-6.945312-4.140626-14.863281-9.171876zm-417.300781 1.289063c-3.542969-5.722656-17.375-32.285156-17.003907-32.65625.25-.25 7.941407-4.492187 17.089844-9.425781l16.636719-8.972656 1.589844 2.621093c.871093 1.441407 1.585937 2.851563 1.589843 3.128907 0 .28125-1.023437 1.03125-2.28125 1.664062-1.253906.636719-7.238281 3.839844-13.296875 7.121094l-11.019531 5.96875 2.179687 3.953125c1.199219 2.175781 2.382813 4.195312 2.628907 4.484375.25.292968 6.046875-2.472656 12.882812-6.144532 6.835938-3.667968 12.578125-6.671874 12.761719-6.671874s.96875 1.25 1.746094 2.773437l1.414062 2.773437-6.140625 3.300782c-6.988281 3.753906-18.671875 10.195312-18.988281 10.464844-.117188.101562 1.386719 3.171874 3.339844 6.820312l3.546875 6.640625-3.433594 1.867187c-4.144531 2.257813-4.027344 2.253907-5.242187.289063zm376.117187-23.183594-3.625-1.519531-.589844-4.507812-.589843-4.511719-12.21875-5.140625-12.214844-5.144532-6.914063 5.507813-3.632812-1.425781c-2-.78125-3.875-1.65625-4.171875-1.945313-.570313-.554687 33.3125-27.460937 34.582031-27.460937.601563 0 9.128906 3.34375 9.613281 3.769531.070313.058594 1.09375 8.953125 2.277344 19.761719 1.179688 10.804687 2.289062 20.675781 2.460938 21.929687.371093 2.707031-.03125 2.765625-4.976563.6875zm-5.988281-28.136719c-.46875-5.660156-1.035156-10.289062-1.257813-10.289062-.867187 0-16.203125 12.832031-15.804687 13.230469.523437.523437 17.476562 7.691406 17.730468 7.492187.097657-.078125-.199218-4.773437-.667968-10.433594zm-313.480469 18.539063c-2.703125-1.644531-5.703125-7.625-8.261719-16.445313-2.789062-9.625-2.234375-13.183593 2.636719-16.898437 5.253906-4.007813 23.894531-10.261719 32.097656-10.769531 5.015625-.308594 5.410157-.21875 7.667969 1.675781 4.582031 3.855469 10.644531 20.789063 9.542969 26.660156-1.070313 5.707031-7.277344 9.417969-24.472657 14.628907-9.761718 2.957031-15.667968 3.308593-19.210937 1.148437zm20.128906-8.625c8.03125-2.546875 13.03125-4.976563 14.015625-6.816406 1.148438-2.144531.867188-5.0625-1.0625-10.960938-3.378906-10.363281-5.144531-11.75-12.582031-9.882812-7.523437 1.890625-18.023437 5.898437-19.78125 7.550781-2.109375 1.980469-2.15625 5.152344-.171875 11.59375 3.808594 12.355469 5.347656 13.027344 19.582031 8.515625zm207.214844-10.703125c-9.40625-2.097656-17.265625-3.972656-17.460937-4.167969-.199219-.199219 1.417968-8.527343 3.589843-18.515625 2.171875-9.988281 3.949219-18.375 3.949219-18.636718 0-.902344 2.617188-.46875 18.667969 3.085937 16.519531 3.660156 20.476562 5.125 22.976562 8.507813 1.269531 1.714843 1.320313 2.257812.582031 5.933593-.855468 4.273438-3.539062 7.972657-5.777343 7.972657-.902344 0-.609375.59375 1.183593 2.386718 1.769532 1.769532 2.386719 3 2.382813 4.742188 0 3.722656-1.320313 7.507812-3.429687 9.867187-3.101563 3.46875-6.503907 3.320313-26.664063-1.175781zm20.269531-4.234375c.480469-.578125 1.03125-2.445313 1.222656-4.140625.300782-2.683594.128907-3.230469-1.316406-4.15625-2.171875-1.390625-25.175781-6.402344-25.859375-5.632812-.625.699218-2.453125 9.289062-2.054687 9.652343.546875.503907 22.800781 5.199219 24.9375 5.265625 1.207031.035156 2.589844-.410156 3.070312-.988281zm2.785156-17.15625c1.183594-2.210937.894532-6.226563-.503906-6.964844-1.113281-.585937-23.191406-5.71875-24.601562-5.71875-.585938 0-2.660156 9.019531-2.160156 9.386719.898437.65625 20.519531 4.535156 23.226562 4.589844 2.597656.050781 3.46875-.226563 4.039062-1.292969zm-174.65625 19.671875c-2.441406-1.148438-3.332031-2.125-4.691406-5.128906-2.089844-4.613282-3.421875-13.5625-3.0625-20.605469.253906-5.121094.378906-5.460937 2.824219-7.699219 3.035156-2.78125 7.132813-4.101562 17.6875-5.695312 11.480469-1.738282 20.492187-1.683594 23.605469.140625 3.625 2.125 5.460937 6.0625 6.738281 14.449219 1.296875 8.515624.960937 14.789062-.925781 17.394531-3.109375 4.285156-14.769532 7.351562-31.089844 8.164062-7.160156.359375-8.414062.246094-11.085938-1.015625zm20.917969-6.746094c12.996094-1.84375 14.046875-2.628906 14.03125-10.496094-.027343-6.3125-1.53125-12.757812-3.453125-14.667968-1.324218-1.320313-2.238281-1.484375-7.621094-1.394532-7.421874.128907-17.972656 1.910157-20.289062 3.425782-2.964844 1.945312-3.394531 3.914062-2.464844 11.292968.988282 7.804688 2.269532 11.285157 4.492188 12.175782 2.359375.945312 6.980468.84375 15.304687-.335938zm65.644531 1.972656-2.808593-.261718.453125-9.625c.246094-5.292969.484375-12.542969.527344-16.117188l.074218-6.496094h-4.460937c-2.453125 0-6.402344-.203124-8.773438-.449218l-4.316406-.453125v-3.015625c0-1.660156.234375-3.144532.523437-3.300782.292969-.152343 8.902344.121094 19.132813.617188 10.234375.492188 20.109375.914062 21.941406.941406 3.320313.046875 3.335938.054688 3.335938 2.445313 0 4.769531.082031 4.730469-9.472657 4.203125l-8.597656-.480469-.425781 5.890625c-.234375 3.238281-.628906 10.550781-.878906 16.246094-.507813 11.625.234375 10.449218-6.25 9.851562zm0 0"/><path d="m448.828125 915.046875c-5.332031-.886719-8.289063-2.476563-10.144531-5.457031-1.476563-2.375-1.597656-3.367188-1.566406-12.808594.042968-11.496094.859374-15.472656 3.796874-18.410156 3.109376-3.109375 6.703126-3.699219 19.820313-3.246094 6.40625.214844 12.847656.75 14.3125 1.183594 3.964844 1.164062 7.230469 4.378906 8.285156 8.15625 1.027344 3.667968.5625 18.609375-.71875 23.058594-1.054687 3.667968-3.855469 6.734374-6.925781 7.585937-3.117188.867187-21.527344.824219-26.859375-.0625zm23.578125-7.875c2.273438-1.953125 3.078125-5.585937 3.121094-14.058594.039062-7.875-1.070313-9.449219-7.382813-10.464843-5.769531-.929688-16.835937-.871094-18.976562.105468-2.796875 1.273438-3.613281 4.320313-3.613281 13.476563 0 7.550781.136718 8.410156 1.535156 9.808593 2.007812 2.007813 5.171875 2.5625 15.191406 2.664063 7.636719.074219 8.398438-.039063 10.125-1.53125zm55.382812 6.808594c0-.335938-.789062-7.28125-1.753906-15.433594-.960937-8.15625-1.753906-15.25-1.757812-15.765625 0-.519531-2.933594 1.785156-6.503906 5.117188l-6.496094 6.0625-2.328125-2.257813c-1.28125-1.242187-2.332031-2.597656-2.332031-3.011719 0-1.261718 14.078124-13.410156 16.105468-13.898437 1.042969-.25 3.566406-.632813 5.601563-.847657 2.863281-.304687 3.707031-.175781 3.707031.574219 0 .535157.957031 9.464844 2.125 19.847657 1.167969 10.378906 2.042969 18.949218 1.941406 19.046874-.578125.546876-8.300781 1.074219-8.308594.566407zm-142.402343-10.074219c-11.351563-2.613281-20.851563-4.964844-21.113281-5.226562-.65625-.65625.996093-7.871094 2.746093-11.992188 2.550781-6 6.984375-6.816406 22.0625-4.054688 10.476563 1.917969 13.445313 1.886719 14.753907-.148437.5625-.871094 1.234374-2.734375 1.488281-4.136719.402343-2.199218.210937-2.746094-1.382813-4.003906-2.03125-1.597656-15.535156-5.09375-19.675781-5.09375-2.914063 0-5.417969 1.957031-5.417969 4.234375 0 1.640625-.171875 1.664063-4.9375.640625-3.191406-.683594-3.542968-.9375-3.171875-2.292969 2.417969-8.785156 4.117188-10.046875 12.667969-9.402343 6.703125.507812 20.734375 3.894531 24.867188 6 4.71875 2.40625 6.09375 4.675781 5.628906 9.292968-.578125 5.769532-1.777344 9.183594-4.007813 11.414063-1.804687 1.804687-2.464843 1.996093-6.855469 1.996093-2.675781 0-8.320312-.632812-12.546874-1.410156-10.394532-1.910156-14.066407-1.875-15.488282.15625-1.871094 2.667969-1.421875 4.601563 1.195313 5.164063 10.003906 2.140625 32.5 7.355469 32.734375 7.585937.6875.691406-.9375 5.800782-1.882813 5.910156-.5625.0625-10.3125-2.019531-21.664062-4.632812zm183.25 1.738281c-.914063-.949219-2.191407-3.253906-2.839844-5.117187l-1.175781-3.394532 2.234375-.773437c5.359375-1.851563 5.933593-1.828125 6.453125.246094 1.121094 4.46875 2.75 4.636719 14.550781 1.515625 8.464844-2.238282 12.367187-4.019532 13.121094-5.984375.234375-.609375.050781-2.351563-.402344-3.871094-1.148437-3.824219-2.828125-4.082031-11.496094-1.753906-3.902343 1.050781-7.496093 2.0625-7.984375 2.25-.53125.207031-1.078125-.457031-1.363281-1.644531-.261719-1.089844-.625-2.496094-.808594-3.121094-.269531-.910156 1.039063-1.515625 6.5625-3.042969 8.671875-2.398437 10.078125-3.269531 10.078125-6.265625 0-3.335938-1.726562-5.4375-4.453125-5.429688-2.902343 0-12.460937 2.296876-17.597656 4.21875-4.28125 1.601563-5.1875 2.878907-4.445313 6.253907.414063 1.894531.269532 2.023437-3.472656 3.066406l-3.902344 1.085937-.710937-2.550781c-2.324219-8.375.488281-11.320312 14.894531-15.601562 10.683594-3.175781 18.519532-4.421875 21.953125-3.5 2.398438.648437 3.011719 1.25 4.484375 4.414062 2.242188 4.8125 2.277344 9.171875.097656 11.355469l-1.625 1.621094 2.960938.792968c2.515625.671876 3.195312 1.277344 4.519531 4.007813.886719 1.832031 1.601563 4.746094 1.660157 6.78125.097656 3.253906-.117188 3.773437-2.429688 5.894531-2.953125 2.707032-7.511719 4.53125-19.644531 7.863282-11.046875 3.039062-16.757813 3.238281-19.21875.683593zm0 0"/><path d="m897.472656 498.210938c-.355468 154.292968-87.089844 295.390624-224.601562 365.375l-6.421875-12.839844c132.640625-67.554688 216.289062-203.6875 216.632812-352.535156zm0 0"/></g></svg>