<?xml version="1.0" encoding="UTF-8" standalone="no"?>
<!-- Generator: Adobe Illustrator 19.0.0, SVG Export Plug-In . SVG Version: 6.00 Build 0)  -->

<svg
   xmlns:dc="http://purl.org/dc/elements/1.1/"
   xmlns:cc="http://creativecommons.org/ns#"
   xmlns:rdf="http://www.w3.org/1999/02/22-rdf-syntax-ns#"
   xmlns:svg="http://www.w3.org/2000/svg"
   xmlns="http://www.w3.org/2000/svg"
   xmlns:sodipodi="http://sodipodi.sourceforge.net/DTD/sodipodi-0.dtd"
   xmlns:inkscape="http://www.inkscape.org/namespaces/inkscape"
   version="1.1"
   id="Lager_1"
   x="0px"
   y="0px"
   viewBox="0 0 110.9 141.22191"
   xml:space="preserve"
   sodipodi:docname="Varbergs BoIS logo.svg"
   width="110.9"
   height="141.22191"
   inkscape:version="0.92.4 (5da689c313, 2019-01-14)"><metadata
   id="metadata3473"><rdf:RDF><cc:Work
       rdf:about=""><dc:format>image/svg+xml</dc:format><dc:type
         rdf:resource="http://purl.org/dc/dcmitype/StillImage" /></cc:Work></rdf:RDF></metadata><defs
   id="defs3471" /><sodipodi:namedview
   pagecolor="#ffffff"
   bordercolor="#666666"
   borderopacity="1"
   objecttolerance="10"
   gridtolerance="10"
   guidetolerance="10"
   inkscape:pageopacity="0"
   inkscape:pageshadow="2"
   inkscape:window-width="1366"
   inkscape:window-height="705"
   id="namedview3469"
   showgrid="false"
   inkscape:zoom="1.5733333"
   inkscape:cx="44.377119"
   inkscape:cy="70.6"
   inkscape:window-x="-8"
   inkscape:window-y="-8"
   inkscape:window-maximized="1"
   inkscape:current-layer="Lager_1" />
<style
   type="text/css"
   id="style3404">
	.st0{fill:#C5B98E;}
	.st1{fill:#FFFFFF;}
	.st2{fill:#009045;}
	.st3{fill:#C5452E;}
</style>
<g
   id="g3466"
   transform="translate(-19.5,-4.3780887)">
	<path
   class="st0"
   d="m 24.4,14.4 c 14.9,-1.7 33.7,-9.5 50.9,-10 16.7,-0.5 35.6,7.7 50.2,10 2.6,0.4 4.9,2.2 4.9,4.9 v 109.8 c 0,2.8 -4.6,5 -4.9,5.1 C 75,141.8 75,145.6 75,145.6 c 0,0 -0.2,-3.7 -51.1,-11.4 -0.4,-0.1 -4.4,-2.3 -4.4,-5.1 V 19.3 c 0,-2.7 2.3,-4.5 4.9,-4.9 z"
   id="path3406"
   inkscape:connector-curvature="0"
   style="fill:#c5b98e" />
	<path
   class="st1"
   d="M 25.8,15.8 C 40.3,14.1 58.6,6.5 75.4,6 c 16.2,-0.5 34.8,7.4 48.8,9.8 2.6,0.4 4.9,2.1 4.9,4.8 v 107.5 c 0,2.6 -4.6,4.7 -4.9,4.8 C 75,140.4 75,144.1 75,144.1 c 0,0 -0.1,-3.7 -49.9,-11.1 -0.4,-0.2 -4.2,-2.3 -4.2,-4.9 V 20.6 C 21,17.9 23.2,16 25.8,15.8 Z"
   id="path3408"
   inkscape:connector-curvature="0"
   style="fill:#ffffff" />
	<polygon
   class="st2"
   points="21,131.2 21,17.5 75.5,74.3 "
   id="polygon3410"
   style="fill:#009045" />
	<polygon
   class="st2"
   points="129.1,131.2 129.1,17.5 74.7,74.3 "
   id="polygon3412"
   style="fill:#009045" />
	<polygon
   class="st0"
   points="21,18 22.4,16.6 129.4,130.6 128.1,131.9 "
   id="polygon3414"
   style="fill:#c5b98e" />
	<polygon
   class="st0"
   points="129.3,18.9 128,17.6 20.9,130.7 22.2,131.9 "
   id="polygon3416"
   style="fill:#c5b98e" />
	<path
   class="st0"
   d="m 75.4,46.2 c 15.5,0 28.2,12.7 28.2,28.2 0,15.5 -12.7,28.2 -28.2,28.2 C 59.9,102.6 47.2,89.9 47.2,74.4 47.1,58.9 59.8,46.2 75.4,46.2 Z"
   id="path3418"
   inkscape:connector-curvature="0"
   style="fill:#c5b98e" />
	<path
   class="st3"
   d="m 75.7,49.1 c 14.1,0 25.6,11.5 25.6,25.4 0,14 -11.6,25.4 -25.6,25.4 -14.1,0 -25.6,-11.5 -25.6,-25.4 0,-13.9 11.5,-25.4 25.6,-25.4 z"
   id="path3420"
   inkscape:connector-curvature="0"
   style="fill:#c5452e" />
	<path
   class="st0"
   d="m 75.7,48.6 c 10.9,0 19.9,11.7 19.9,25.9 0,14.3 -9,25.9 -19.9,25.9 -10.9,0 -19.9,-11.7 -19.9,-25.9 0,-14.2 8.9,-25.9 19.9,-25.9 z"
   id="path3422"
   inkscape:connector-curvature="0"
   style="fill:#c5b98e" />
	<path
   class="st3"
   d="m 75.7,51.5 c 9.4,0 17.1,10.3 17.1,22.9 0,12.6 -7.7,22.9 -17.1,22.9 -9.4,0 -17.1,-10.3 -17.1,-22.9 0,-12.6 7.7,-22.9 17.1,-22.9 z"
   id="path3424"
   inkscape:connector-curvature="0"
   style="fill:#c5452e" />
	<path
   class="st0"
   d="M 75.5,49.7 C 78.7,50.1 87.4,59.9 87,73.7 86.7,87.3 76,100.3 75.9,100.1 74.9,99.9 64.4,87.6 64.4,73.7 64.3,59.5 73.1,49.9 75.5,49.7 Z"
   id="path3426"
   inkscape:connector-curvature="0"
   style="fill:#c5b98e" />
	<path
   class="st3"
   d="m 75.5,51.5 c 0.7,0 8.7,8.4 8.7,21.7 0,13.1 -8.7,24.1 -8.7,24.1 C 75.7,97.2 66.9,86.4 66.9,73.2 66.8,60 75.3,51.7 75.5,51.5 Z"
   id="path3428"
   inkscape:connector-curvature="0"
   style="fill:#c5452e" />
	<path
   class="st0"
   d="m 75.5,97 c 3.9,0 7,1.2 7,2.7 0,1.5 -3.1,2.7 -7,2.7 -3.9,0 -7,-1.2 -7,-2.7 0,-1.4 3.1,-2.7 7,-2.7 z"
   id="path3430"
   inkscape:connector-curvature="0"
   style="fill:#c5b98e" />
	<path
   class="st0"
   d="m 75.4,46.6 c 3.9,0 7,1.1 7,2.5 0,1.4 -3.1,2.5 -7,2.5 -3.9,0 -7,-1.1 -7,-2.5 0,-1.3 3.1,-2.5 7,-2.5 z"
   id="path3432"
   inkscape:connector-curvature="0"
   style="fill:#c5b98e" />
	<path
   class="st3"
   d="m 75.6,46.8 c 2.8,0 5.1,0.4 5.1,0.9 0,0.5 -2.3,0.9 -5.1,0.9 -2.8,0 -5.1,-0.4 -5.1,-0.9 0,-0.4 2.3,-0.9 5.1,-0.9 z"
   id="path3434"
   inkscape:connector-curvature="0"
   style="fill:#c5452e" />
	<path
   class="st3"
   d="m 75.6,99.7 c 2.8,0 5.1,0.5 5.1,1.1 0,0.6 -2.3,1.1 -5.1,1.1 -2.8,0 -5.1,-0.5 -5.1,-1.1 0,-0.5 2.3,-1.1 5.1,-1.1 z"
   id="path3436"
   inkscape:connector-curvature="0"
   style="fill:#c5452e" />
	<path
   class="st0"
   d="m 83.3,20.4 v 0 c 0.2,-0.5 0.4,-1 0.5,-1.4 0.1,-0.3 0.1,-0.6 0.1,-0.9 0,-0.5 -0.2,-0.9 -0.7,-1.2 C 82.7,16.6 82,16.4 81.1,16.4 L 81,15.5 h 8.2 v 0.8 c -2,0.3 -3.5,1.8 -4.8,4.4 v 0 L 74.6,41.5 H 73.7 L 64.1,21.2 V 21.1 C 62.6,18 61.1,16.3 59.5,16.3 H 59 v -0.8 h 12.2 v 0.8 c -1,0.1 -1.9,0.2 -2.3,0.4 -0.5,0.2 -0.7,0.4 -0.7,0.7 0,0.2 0.1,0.5 0.2,0.9 0.1,0.4 0.4,0.9 0.6,1.6 l 7.2,15.3 z"
   id="path3438"
   inkscape:connector-curvature="0"
   style="fill:#c5b98e" />
	<g
   id="g3448">
		<g
   id="g3446">
			<path
   class="st0"
   d="M 26.1,67.8 V 65 c 0,-0.9 -0.2,-1.7 -0.6,-2 -0.4,-0.3 -1.2,-0.5 -2.6,-0.5 v -0.8 h 11.6 c 3,0 5.4,0.6 7.3,1.7 1.6,1.1 2.4,2.6 2.5,4.5 H 39 v 0 C 39,66 38.5,64.6 37.6,63.8 36.8,63 35.3,62.5 33.3,62.5 c -1.1,0 -1.8,0.2 -2,0.4 -0.3,0.3 -0.5,0.8 -0.5,1.6 v 3.3 z"
   id="path3440"
   inkscape:connector-curvature="0"
   style="fill:#c5b98e" />
			<path
   class="st0"
   d="M 26.1,80.2 V 67.8 h 4.8 v 5.4 h 2.4 c 2.1,0 3.4,-0.4 4.4,-1.2 0.8,-0.8 1.4,-2.3 1.4,-4.2 h 5.2 c 0,0.1 0,0.1 0,0.2 0,1.2 -0.4,2.4 -1.4,3.3 -1,0.9 -2.6,1.7 -4.6,2.3 v 0.3 c 2.4,0.4 4.3,1.1 5.4,2.4 1.1,1 1.8,2.3 2,3.9 h -5.4 c 0,-2 -0.6,-3.4 -1.7,-4.5 C 37.5,74.6 35.7,74 33.5,74 h -2.6 v 6.1 h -4.8 z"
   id="path3442"
   inkscape:connector-curvature="0"
   style="fill:#c5b98e" />
			<path
   class="st0"
   d="M 26.1,80.2 V 84 c 0,0.9 -0.2,1.7 -0.6,2 -0.4,0.3 -1.2,0.4 -2.6,0.4 v 0.8 h 13 c 3.1,0 5.5,-0.5 7.3,-1.7 1.6,-1.1 2.5,-2.7 2.5,-4.7 0,-0.2 0,-0.5 0,-0.7 h -5.4 v 0.1 c 0,2.2 -0.5,3.9 -1.4,4.8 -0.9,0.8 -2.6,1.4 -4.7,1.4 -1.4,0 -2.3,-0.2 -2.7,-0.7 -0.3,-0.5 -0.6,-1.7 -0.6,-3.6 v -1.9 z"
   id="path3444"
   inkscape:connector-curvature="0"
   style="fill:#c5b98e" />
		</g>
	</g>
	<path
   class="st0"
   d="m 121.9,61.5 v 0.8 h -0.4 c -1.4,0 -2.2,0.1 -2.6,0.4 -0.4,0.3 -0.6,1 -0.6,2.1 v 19.1 c 0,1 0.2,1.7 0.6,2 0.4,0.3 1.2,0.5 2.6,0.5 h 0.4 v 0.8 h -12.2 v -0.8 h 0.3 c 1.4,0 2.3,-0.1 2.6,-0.4 0.4,-0.3 0.6,-1 0.6,-2.1 v -19 c 0,-1 -0.2,-1.8 -0.5,-2.1 -0.4,-0.3 -1.4,-0.4 -2.7,-0.4 v -0.8 h 11.9 z"
   id="path3450"
   inkscape:connector-curvature="0"
   style="fill:#c5b98e" />
	<path
   class="st0"
   d="m 67.1,125.5 h 0.7 c 1,2.9 2.3,5.1 3.6,6.4 1.4,1.3 3.1,1.9 5,1.9 1.6,0 2.8,-0.4 3.7,-1.1 0.9,-0.8 1.4,-2 1.4,-3.3 0,-1.2 -0.4,-2.4 -1.4,-3.2 -0.9,-0.8 -2.7,-1.8 -5.3,-2.8 -2.9,-1 -4.9,-2.3 -6.1,-3.4 -1.1,-1.2 -1.7,-2.8 -1.7,-4.7 0,-2.2 0.6,-4 2.1,-5.2 1.4,-1.2 3.3,-1.9 5.7,-1.9 1.8,0 3.5,0.3 5.4,0.8 0.4,0.2 0.7,0.2 0.8,0.2 0.2,0 0.5,0 0.8,-0.2 0.3,-0.2 0.7,-0.4 1.1,-0.7 h 0.6 v 8.3 h -0.7 c -0.8,-2.5 -2,-4.4 -3.4,-5.6 -1.4,-1.4 -2.9,-2 -4.8,-2 -1.1,0 -2.2,0.3 -3,0.9 -0.7,0.7 -1.1,1.6 -1.1,2.6 0,1 0.4,2 1.1,2.7 0.7,0.7 2.4,1.6 4.9,2.5 1.8,0.7 3,1.2 3.9,1.7 0.8,0.4 1.6,0.8 2,1.2 1.1,0.8 2,1.8 2.4,2.8 0.5,1 0.8,2.2 0.8,3.4 0,2.4 -0.9,4.4 -2.6,5.7 -1.7,1.5 -4.1,2.1 -7.1,2.1 -1.8,0 -3.5,-0.3 -5.4,-0.8 -0.5,-0.1 -0.7,-0.2 -0.8,-0.2 -0.3,0 -0.5,0.1 -0.9,0.2 -0.3,0.2 -0.7,0.4 -1.1,0.7 h -0.6 z"
   id="path3452"
   inkscape:connector-curvature="0"
   style="fill:#c5b98e" />
	<g
   id="g3464">
		<g
   id="g3462">
			<path
   class="st0"
   d="m 70.5,71.4 c 0,-0.6 0.4,-1.1 1,-1.7 0.6,-0.5 1.5,-0.7 2.4,-0.7 0.8,0 1.6,0.2 2.1,0.6 0.6,0.4 0.8,0.9 0.8,1.6 0,0.1 0,0.1 0,0.2 h -1.5 c 0,0 0,-0.1 0,-0.2 0,-0.4 -0.1,-0.8 -0.3,-1.1 -0.3,-0.2 -0.6,-0.4 -1.1,-0.4 -0.5,0 -0.8,0.2 -1,0.5 -0.4,0.2 -0.5,0.6 -0.5,1 0,0.1 0,0.1 0,0.2 z"
   id="path3454"
   inkscape:connector-curvature="0"
   style="fill:#c5b98e" />
			<path
   class="st0"
   d="m 68,77.1 c 0.1,-0.7 0.3,-1.2 0.9,-1.9 0.6,-0.6 1.6,-1 2.8,-1.4 -0.3,-0.4 -0.7,-0.9 -0.9,-1.2 -0.1,-0.4 -0.3,-0.8 -0.3,-1.1 v -0.1 h 1.9 c 0,0.3 0.1,0.6 0.3,0.9 0.2,0.3 0.5,0.6 1,0.9 0.4,-0.2 0.9,-0.5 1.4,-0.8 0.2,-0.3 0.3,-0.6 0.3,-1 h 1.5 c -0.1,0.5 -0.3,1 -0.6,1.4 -0.3,0.4 -1,0.8 -1.9,1.1 0.9,0.7 1.7,1.4 2.3,2 0.5,0.4 0.8,0.8 1.1,1.2 h -2.1 c -0.4,-0.3 -0.7,-0.7 -1,-1 -0.6,-0.6 -1.4,-1.2 -2.1,-1.8 -0.8,0.2 -1.6,0.6 -1.9,1 -0.4,0.4 -0.6,0.9 -0.6,1.7 v 0.1 z"
   id="path3456"
   inkscape:connector-curvature="0"
   style="fill:#c5b98e" />
			<path
   class="st0"
   d="m 78.1,77.1 c 0.2,-0.3 0.3,-0.7 0.4,-1 0.3,-0.5 0.4,-0.9 0.4,-1.2 0,-0.3 -0.1,-0.6 -0.4,-0.7 C 78.3,74 78,73.9 77.4,73.8 V 73.2 H 82 v 0.5 c -0.5,0.1 -0.9,0.3 -1.2,0.4 -0.3,0.2 -0.5,0.5 -0.7,0.9 0,0.1 -0.1,0.3 -0.2,0.5 -0.2,0.6 -0.4,1.1 -0.6,1.7 h -1.2 z"
   id="path3458"
   inkscape:connector-curvature="0"
   style="fill:#c5b98e" />
			<path
   class="st0"
   d="m 68,77.1 c 0,0.1 0,0.1 0,0.2 0,0.9 0.5,1.8 1.5,2.5 0.9,0.6 2.2,0.9 3.5,0.9 0.8,0 1.6,-0.1 2.3,-0.3 0.7,-0.2 1.5,-0.5 2.1,-0.9 0.2,0.4 0.7,0.7 1.4,0.8 0.4,0.2 1.1,0.3 2.2,0.3 0.2,0 0.4,0 0.5,0 0.3,0 0.5,0 0.9,-0.1 v -0.4 c -0.2,0 -0.2,0 -0.3,0 -0.1,0 -0.1,0 -0.2,0 -0.7,0 -1.4,-0.2 -1.9,-0.5 -0.5,-0.2 -1,-0.7 -1.6,-1.4 0.3,-0.3 0.5,-0.7 0.7,-1.1 h -1 c 0,0.1 -0.1,0.2 -0.1,0.3 -0.1,-0.1 -0.1,-0.2 -0.2,-0.3 h -2.1 c 0.3,0.5 0.7,1 1.1,1.6 v 0 c -0.5,0.4 -1,0.7 -1.6,1 -0.6,0.2 -1.3,0.3 -1.9,0.3 -1,0 -1.9,-0.3 -2.5,-0.8 C 70.2,78.6 70,78 70,77.1 Z"
   id="path3460"
   inkscape:connector-curvature="0"
   style="fill:#c5b98e" />
		</g>
	</g>
</g>
</svg>