<?xml version="1.0" encoding="UTF-8" standalone="no"?>
<!-- Generator: Adobe Illustrator 19.0.0, SVG Export Plug-In . SVG Version: 6.00 Build 0)  -->

<svg
   xmlns:dc="http://purl.org/dc/elements/1.1/"
   xmlns:cc="http://creativecommons.org/ns#"
   xmlns:rdf="http://www.w3.org/1999/02/22-rdf-syntax-ns#"
   xmlns:svg="http://www.w3.org/2000/svg"
   xmlns="http://www.w3.org/2000/svg"
   xmlns:sodipodi="http://sodipodi.sourceforge.net/DTD/sodipodi-0.dtd"
   xmlns:inkscape="http://www.inkscape.org/namespaces/inkscape"
   version="1.1"
   id="Lager_1"
   x="0px"
   y="0px"
   viewBox="0 0 128.12825 138.89999"
   xml:space="preserve"
   sodipodi:docname="Norrby IF logo.svg"
   width="128.12825"
   height="138.89999"
   inkscape:version="0.92.4 (5da689c313, 2019-01-14)"><metadata
   id="metadata3402"><rdf:RDF><cc:Work
       rdf:about=""><dc:format>image/svg+xml</dc:format><dc:type
         rdf:resource="http://purl.org/dc/dcmitype/StillImage" /></cc:Work></rdf:RDF></metadata><defs
   id="defs3400" /><sodipodi:namedview
   pagecolor="#ffffff"
   bordercolor="#666666"
   borderopacity="1"
   objecttolerance="10"
   gridtolerance="10"
   guidetolerance="10"
   inkscape:pageopacity="0"
   inkscape:pageshadow="2"
   inkscape:window-width="1366"
   inkscape:window-height="705"
   id="namedview3398"
   showgrid="false"
   inkscape:zoom="1.5733333"
   inkscape:cx="54.305366"
   inkscape:cy="70.8"
   inkscape:window-x="-8"
   inkscape:window-y="-8"
   inkscape:window-maximized="1"
   inkscape:current-layer="Lager_1" />
<style
   type="text/css"
   id="style3353">
	.st0{fill:#006DB2;}
	.st1{fill:#FFFFFF;}
</style>
<g
   id="g3395"
   transform="translate(-9.5717527,-6.9)">
	<path
   class="st0"
   d="m 132.1,36 c 0,0.8 -0.8,1 -0.9,1.6 -1.3,1.5 -2.1,3 -3.2,4.8 -0.6,0.8 -0.6,1.8 -1.4,2.5 0.2,0.8 -0.5,1.1 -0.6,1.8 l -0.8,2.4 c -0.5,0.7 -0.6,1.5 -0.6,2.3 -0.6,0.3 -0.2,1 -0.4,1.4 0.3,0.4 -0.4,0.8 -0.1,1.3 -0.3,0.6 0.1,1.3 -0.1,1.8 -0.1,3.2 0.7,5.9 1.5,8.8 0.6,0.6 0.6,1.4 1,2.2 l 1.1,2 c 0.5,-0.1 0.2,0.6 0.4,0.8 0.6,0.6 0.7,1.4 1.1,2.1 1.2,1.5 2,3.2 3.1,4.7 1.1,2.8 2.5,5.3 3.6,8.2 1.1,3 1.7,6.3 1.8,9.6 0.2,1.6 -0.1,3.3 0.1,5 -0.1,2 -0.2,4.1 -0.6,6.1 -0.8,3.4 -1.8,7 -3.6,10 -0.7,1.5 -1.5,3 -2.3,4.4 l -0.3,-0.1 c -1,3 -3.9,4.7 -5.8,7.2 -1.5,1.6 -3.3,2.6 -5.1,4.2 -1.3,0.7 -2.5,1.5 -3.8,2.1 -2.7,1.2 -5.3,2.7 -8.3,3.2 -1.1,0.6 -2.5,0.5 -3.8,0.7 -0.5,0.4 -1.3,0.4 -1.9,0.1 l -0.4,0.3 c -5.1,0.6 -10.1,1.1 -15.1,2.3 -0.8,0.3 -1.8,0.7 -2.7,0.7 -1.5,0.7 -3.1,1.3 -4.4,2.3 -1.7,0.8 -3.2,2 -4.9,3 -0.7,0 -0.8,-0.8 -1.4,-1.1 -1.5,-1.1 -2.8,-2.4 -4.5,-3.1 h -0.4 c -0.6,-0.3 -1.2,-1.2 -2,-1.1 -2.2,-1.4 -4.8,-2 -7.2,-2.5 -0.5,0.4 -0.8,-0.5 -1.3,-0.1 -0.4,-0.2 -0.8,0.4 -1.3,0 -0.6,0.4 -1.1,-0.4 -1.6,-0.1 -1.8,-0.2 -3.9,0.1 -5.7,-0.3 -0.4,-0.1 -1,0.1 -1.4,-0.2 -0.7,0.1 -1.4,0 -2,-0.4 -0.4,0.4 -0.7,-0.1 -1.1,-0.1 -1.2,-0.3 -2.7,0.1 -3.7,-0.6 -0.3,0.2 -0.3,-0.3 -0.6,-0.2 -1.5,-0.6 -3.1,-0.4 -4.3,-1.4 -1.8,0.1 -2.9,-1.1 -4.3,-1.5 -2.5,-1.2 -4.5,-2.6 -6.7,-4.4 -0.5,0.1 -0.4,-0.7 -0.8,-0.6 -0.4,-0.6 -1.3,-1.1 -1.6,-1.6 -0.4,-0.6 -1.3,-0.9 -1.6,-1.5 -0.4,0 -0.1,-0.4 -0.4,-0.6 -1.1,-1.3 -2.3,-2.5 -3.3,-3.9 -0.2,-0.8 -0.9,-1.4 -1.5,-2 -1.2,-2 -2.3,-3.9 -3.1,-6.1 -0.4,-0.8 -0.8,-1.5 -0.9,-2.3 -0.7,-0.9 -0.6,-2.2 -1.1,-3.2 -0.4,-1 -0.1,-2 -0.7,-2.9 0.1,-2 -0.6,-3.9 -0.6,-5.8 0.1,-0.9 0.1,-2 0,-2.9 0.7,-0.8 -0.5,-1.3 0.2,-2.1 0.4,-0.4 0,-1.2 0.3,-1.7 -0.1,-1.2 0.5,-2.2 0.5,-3.2 0.6,-0.6 -0.1,-1.6 0.7,-2 0.2,-1.6 1.1,-3.1 1.3,-4.6 0.6,-0.5 0.5,-1.3 1,-1.9 -0.1,-0.5 0.4,-0.6 0.4,-1.1 0.1,-0.7 0.8,-1.1 0.8,-1.9 1.5,-2 2.6,-4.2 3.5,-6.5 0.6,-0.3 0.1,-0.9 0.4,-1.3 1.5,-2.9 2.6,-6.1 3,-9.6 0.4,-0.5 0.1,-1.3 0.2,-1.9 0.3,-2.3 -0.4,-4.6 -0.4,-6.8 -0.4,-0.6 -0.2,-1.5 -0.7,-2 -0.1,-1 -0.3,-2.1 -0.8,-2.9 0.1,-0.4 -0.5,-0.5 -0.4,-0.9 -0.7,-1 -1.3,-1.8 -1.7,-3 C 16.8,40 15.6,38.5 14.1,36.7 V 36 L 24.2,25.2 40.5,7.8 c 0.5,-0.1 0.9,0.4 1.4,0.5 2.2,1.8 4.9,2.8 7.3,4.4 0.7,-0.1 1,0.5 1.5,0.7 1.1,0.2 1.7,1.1 2.7,1.2 0.4,0.4 1.1,0.3 1.6,0.7 1.1,0.3 2,0.8 3.1,1 2.7,1.3 5.9,1.6 9.1,2 0.4,0 0.4,0.1 0.7,0.3 0.8,0 1.8,-0.2 2.5,0.1 2.7,0.2 5.3,0.1 8.1,-0.2 1.1,0 2,-0.5 3.1,-0.3 0.4,-0.1 0.7,-0.4 1.1,-0.1 1.6,-0.6 3.7,-0.6 5.3,-1.5 3.7,-1.1 7,-2.7 10.4,-4.4 0.4,-0.2 0.9,-0.4 1.4,-0.6 1.5,-0.9 3.3,-1.8 4.6,-3 1,-0.4 1.4,-1.6 2.5,-1.7 l 7,8.1 z"
   id="path3355"
   inkscape:connector-curvature="0"
   style="fill:#006db2" />
	<path
   class="st1"
   d="m 106,11.4 c 4.3,4.6 8.4,9.7 12.7,14.4 2.7,3 5.2,5.9 7.8,9 -0.1,1.2 -1,1.8 -1.5,2.9 -3.2,6.1 -5.7,12.7 -5.1,20.1 0.4,4 1.2,7.9 3,11.2 1.7,4.1 5,7.2 6.7,11.2 3.5,7.4 5,16.7 2.7,25 -2.7,11.8 -12,22.6 -23.5,26.5 -3.6,1.3 -7.4,2.2 -11.4,2.3 -7.9,0.6 -15.1,2.7 -21.5,6.9 -0.7,0 -1,-0.6 -1.5,-0.9 -6.4,-3.4 -13.3,-5.8 -21.1,-5.8 -4.1,-0.1 -8.2,-0.1 -11.9,-1.4 -5.6,-1.3 -10.6,-4 -14.9,-7.7 -0.5,0.2 -0.1,-0.4 -0.6,-0.4 -0.7,-0.6 -1.1,-1.2 -1.8,-1.8 -4.9,-5.1 -8.7,-11.5 -10,-18.9 -0.5,-0.2 0.1,-1.1 -0.5,-1.2 0.3,-1 -0.3,-1.8 -0.1,-2.7 -0.5,-0.6 0.1,-1.3 -0.3,-1.9 0.2,-1.4 -0.2,-2.8 -0.1,-4.2 0.2,-1.4 0.4,-2.9 0.9,-4.2 0.6,-5.1 3.4,-9.4 5.3,-14 2.4,-2.9 3.3,-6.8 4.4,-10.3 1.2,-5.2 1.6,-11.3 0,-16.3 -1.1,-4.2 -2.5,-8.4 -5.1,-11.7 -0.2,-0.3 -0.3,-0.8 -0.1,-1.1 0.4,-0.7 1.1,-1.3 1.8,-2 6.3,-6.8 12.7,-13.8 18.9,-20.8 0.4,-0.6 1.5,-0.7 2,-0.2 7.4,4.2 15.3,7.5 24.1,8.3 0.6,0.2 1.4,0.1 2,0.3 1.1,-0.2 2.2,0.4 3.2,0.1 3,0.2 6.2,-0.1 9.1,-0.6 1.5,-0.1 3,-0.6 4.6,-0.9 2.3,-0.4 4.4,-1.1 6.6,-1.9 0.8,0.1 1.2,-0.4 1.9,-0.6 4.4,-1.6 8.7,-3.9 12.6,-6.4 h 0.7 z"
   id="path3357"
   inkscape:connector-curvature="0"
   style="fill:#ffffff" />
	<path
   class="st0"
   d="m 104.8,14.4 c 6,6.8 12.2,13.8 18.2,20.6 -1.5,3 -3.4,5.8 -4.2,9.1 -6.1,5.6 -12.1,11 -18.3,16.5 -3,2.7 -6,5.1 -8.8,7.9 -1.6,1.5 -3.3,2.9 -4.9,4.2 -1.8,1.5 -3.7,3.4 -5.4,4.9 l -1.8,1.7 c -0.1,-0.1 -0.5,0 -0.4,0.2 -2.7,2.7 -6.3,5.7 -9.1,8.4 -0.7,0.4 -1.4,1.3 -2.2,1.9 -3.9,3.4 -7.1,6.6 -11,9.8 -9,8 -17.8,16.3 -27.1,24.1 l -0.5,-0.1 C 21.9,117.8 17.3,108.7 16.4,99 h 0.1 C 16.2,97.1 16.2,94.7 16.6,92.7 17.8,91 19.3,89.3 21,88 27.8,81.6 35.2,75.1 42.3,68.7 L 42.7,68.2 67,46.5 c 0.1,-0.6 0.5,-0.2 0.8,-0.6 l 10.6,-9.4 c 0,-0.4 0.5,-0.3 0.7,-0.5 1.7,-1.5 3.5,-3 5.2,-4.5 0.3,0 0.4,-0.1 0.4,-0.4 6.2,-5.5 12.7,-11.1 19.1,-16.7 0.3,-0.5 0.7,-0.2 1,0 z"
   id="path3359"
   inkscape:connector-curvature="0"
   style="fill:#006db2" />
	<path
   class="st0"
   d="m 63,24.3 c 5.9,0.9 12,0.3 18,-0.4 3.2,-0.6 6.3,-1.3 9.4,-2.2 L 53.8,54.3 c -4.6,4 -8.9,8.2 -13.5,12 L 24.8,80.2 18.3,86 c 0.4,-2.5 1.7,-4.6 2.7,-6.9 1.9,-3.4 3.6,-7 5.1,-10.6 -0.2,-0.6 0.5,-0.8 0.4,-1.4 2.7,-7.3 1.8,-16.2 -0.8,-23.2 -1,-2.4 -2.1,-4.7 -3.2,-7.2 0.1,-0.4 0.5,-0.6 0.6,-1.1 L 38.4,18.7 c 0.8,-0.9 1.4,-1.9 2.4,-2.6 6.8,3.7 14.2,6.7 22.2,8.2 z"
   id="path3361"
   inkscape:connector-curvature="0"
   style="fill:#006db2" />
	<path
   class="st1"
   d="m 104.1,18.3 c 2,1.7 3.4,3.9 5.3,5.8 3.2,3.9 6.8,7.6 10,11.3 -0.1,1.4 -1.1,2.5 -1.5,3.9 l -1,2.5 C 102.7,54.3 89.4,66 75.6,78.4 60.5,92.1 44.6,105.9 29,120 c -0.8,-0.1 -1.1,-0.9 -1.7,-1.3 -5.9,-6.4 -9.3,-15 -8.7,-24.4 l 0.3,-0.5 c 6.4,-5.6 12.3,-11.2 18.8,-17.1 0.1,-0.2 0.2,-0.4 0.5,-0.4 1.4,-1.3 2.8,-2.5 4.1,-3.8 0.5,0 0.4,-0.5 0.8,-0.6 5,-4.7 10.1,-8.9 15.1,-13.4 0.6,-0.6 1.3,-1.4 2.1,-1.8 3.9,-3.7 7.7,-6.9 11.8,-10.6 1.5,-1.4 3.2,-3 5,-4.3 0.8,-1.2 2.2,-1.9 3.2,-3 2.2,-2 4.4,-3.8 6.7,-5.8 2,-1.9 4,-3.7 6.1,-5.4 0.6,0.1 0.6,-0.6 1,-0.9 2.6,-2.2 4.9,-4.3 7.4,-6.4 0.7,-0.8 1.4,-1.4 2.3,-2 z"
   id="path3363"
   inkscape:connector-curvature="0"
   style="fill:#ffffff" />
	<path
   class="st0"
   d="m 99.2,24.7 c 1.3,2.3 1.8,5 3,7.3 l 2,4.6 c 2,2.7 4.2,4.9 6.3,7.5 l -0.1,0.3 c -1.2,1 -1.8,2 -3.2,2.7 l -0.4,-0.3 c -2,-2 -3.5,-4.4 -5.4,-6.3 -3.2,-1.8 -6.3,-3.9 -9.4,-5.6 -0.8,-0.4 -1.8,-0.8 -2.4,-1.5 -0.4,-0.7 0.7,-0.6 0.8,-1.2 0.7,-0.6 1.1,-1.3 2,-1.6 1.9,0.6 3.3,1.8 5,2.8 0.4,0.3 0.8,0.8 1.3,0.6 l 0.1,-0.2 C 97.9,31.7 97,29.6 96.1,27.5 L 96.2,27 c 0.9,-0.8 1.8,-1.9 3,-2.3 z"
   id="path3365"
   inkscape:connector-curvature="0"
   style="fill:#006db2" />
	<path
   class="st0"
   d="m 91.9,42.1 c 0.3,0.8 0.4,1.5 0.2,2.3 l 0.2,0.4 c 1.1,0.3 2.4,-0.1 3.2,0.8 0.1,-0.1 0.1,-0.1 0.4,0 1.1,1.5 2.6,2.7 3.4,4.3 0.5,0.8 0.6,1.7 0.8,2.6 -0.4,1.5 -1.7,2.7 -2.7,3.5 l -4.7,4 H 92.3 C 87.7,54.2 82.8,49.2 77.9,43.5 c 0.1,-0.9 0.9,-1.2 1.5,-1.8 2.4,-1.8 4.4,-5.3 8,-4.3 2,1.2 3.5,2.7 4.5,4.7 z"
   id="path3367"
   inkscape:connector-curvature="0"
   style="fill:#006db2" />
	<path
   class="st1"
   d="m 88.5,44.8 c 0.2,1 -0.4,1.7 -1.1,2.1 -1.7,-0.5 -2.6,-2.5 -3.7,-3.7 -0.2,-0.6 0.3,-1 0.7,-1.3 0.6,-0.5 1.5,-0.1 2,0.2 1,0.8 1.7,1.7 2.1,2.7 z"
   id="path3369"
   inkscape:connector-curvature="0"
   style="fill:#ffffff" />
	<path
   class="st1"
   d="m 95.1,51.8 c 0.4,0.9 -0.3,1.7 -0.8,2.3 -0.3,0.1 -0.7,0.4 -1.1,0.1 -1.2,-1.3 -2.7,-2.5 -3.5,-4.1 -0.1,-0.6 0.5,-1.1 0.9,-1.5 1.1,-0.5 2,0.2 2.7,0.8 0.9,0.7 1.4,1.6 1.8,2.4 z"
   id="path3371"
   inkscape:connector-curvature="0"
   style="fill:#ffffff" />
	<path
   class="st0"
   d="m 117.7,49.5 c -0.8,3.9 -0.8,8.4 0.1,12.3 0.6,3.9 1.9,7.6 4.1,10.8 2.7,3.9 5.6,8 7,12.7 0.4,1.3 1,2.7 1.3,4.1 0.6,4.5 1.1,9.4 -0.1,13.9 -0.6,3.4 -1.9,6.5 -3.3,9.5 -0.9,1.4 -1.8,2.8 -2.7,4.2 -2.3,3.1 -5.6,6 -8.8,8.2 -1.8,1.1 -3.7,2.3 -5.6,3 -2.8,1.4 -5.8,2 -8.9,2.5 l -5.9,0.6 c -2.4,0.5 -4.9,0.6 -7.2,1.2 -2.5,0.5 -4.9,1.3 -6.9,2.6 -1.7,0.5 -3.2,1.5 -4.6,2.2 h -0.6 c -7,-4.4 -15.4,-5.9 -24,-6.2 -5.6,0.1 -10.6,-1.6 -15.5,-3.4 -1.3,-0.6 -2.5,-1.3 -3.7,-2.2 v -0.4 l 7.8,-7 22.2,-19.8 c 5.6,-4.9 11,-9.8 16.5,-14.7 0.2,-0.8 1.1,-1.1 1.6,-1.5 10.8,-9.7 21.7,-19.4 32.5,-29 0.2,-0.4 0.8,-0.6 1.1,-1 1.2,-1.1 2.3,-2 3.4,-3 z"
   id="path3373"
   inkscape:connector-curvature="0"
   style="fill:#006db2" />
	<path
   class="st0"
   d="m 77.9,55.3 c 0.8,0.9 -0.8,2.2 0.5,2.7 1.5,-0.1 2.9,0.8 3.9,1.8 1.5,1.7 3.2,3.7 4.9,5.3 -0.5,1.3 -2.2,1.8 -3,2.9 -0.6,0 -0.7,-0.7 -1.3,-0.8 0,-0.1 0,-0.2 -0.1,-0.3 L 82.7,67 82.6,66.5 c -1.5,-1.6 -2.8,-3.4 -4.6,-4.7 -0.8,-0.1 -1.6,-0.3 -2.3,0.4 -0.4,0.3 -0.2,0.8 -0.1,1.1 1.8,2.2 3.9,4.6 5.8,6.6 0.2,0.3 -0.1,0.6 -0.2,0.7 -0.8,0.8 -1.9,1.8 -2.8,2.4 L 78,72.8 C 73.4,67.2 68.6,62 63.9,56.5 c 0,-1.1 1.4,-1.5 2,-2.3 2.3,-1.6 4,-4.8 7.4,-3.9 1.8,1.2 3.7,2.9 4.6,5 z"
   id="path3375"
   inkscape:connector-curvature="0"
   style="fill:#006db2" />
	<path
   class="st1"
   d="m 73.9,56.7 c 0.3,0.6 0.8,1.3 0.4,2 -0.3,0.5 -0.6,1.1 -1.3,1.3 -1,-0.1 -1.3,-1.1 -1.9,-1.6 -0.6,-0.9 -2.3,-1.8 -1.8,-3 0.3,-0.5 0.9,-0.8 1.5,-1 1.5,0.4 2.3,1.4 3.1,2.3 z"
   id="path3377"
   inkscape:connector-curvature="0"
   style="fill:#ffffff" />
	<path
   class="st0"
   d="m 63.5,65.9 c 0.6,1 1.2,2.3 0.8,3.5 0.4,0.9 1.5,0.4 2.3,0.8 2.8,1.5 4.6,4.4 6.9,6.7 l -0.1,0.4 c -0.8,0.8 -1.7,1.6 -2.7,2.4 l -0.6,-0.2 c -2.1,-2 -3.6,-4.8 -6.1,-6 -0.8,-0.1 -1.5,0.4 -1.9,0.8 -0.3,0.6 0.1,1.1 0.4,1.5 l 5.3,6.1 -0.1,0.5 c -0.8,0.9 -1.8,1.8 -2.7,2.5 H 64.6 C 59.9,79.6 55.5,74.3 50.7,69.2 l -0.6,-1 0.9,-1 c 2,-1.5 3.9,-3.9 6.1,-4.9 2.8,-1 5,1.6 6.4,3.6 z"
   id="path3379"
   inkscape:connector-curvature="0"
   style="fill:#006db2" />
	<path
   class="st1"
   d="m 60.4,68.7 c 0.6,0.6 0.8,1.5 0.4,2.3 -0.5,0.4 -0.7,1.1 -1.5,1 -1.2,-1.3 -2.4,-2.6 -3.6,-3.9 -0.2,-0.7 0.7,-1.1 1.1,-1.5 1.7,-0.6 2.6,1.3 3.6,2.1 z"
   id="path3381"
   inkscape:connector-curvature="0"
   style="fill:#ffffff" />
	<path
   class="st0"
   d="m 50.7,78.1 c 2.5,3 5.3,5.4 7.2,8.7 0.8,1.8 0.4,3.9 -0.7,5.3 -1.4,1.8 -3.8,3.6 -6.5,3 -1.5,-0.5 -3,-1.8 -3.8,-3.2 -0.6,-0.6 -1.3,-1.1 -1.7,-1.9 l -0.5,-0.4 c -2.2,-3.3 -7.3,-6.1 -5.6,-10.9 1.2,-2.5 3.5,-4.2 6.3,-4.3 2.4,0.1 3.8,2.1 5.3,3.7 z"
   id="path3383"
   inkscape:connector-curvature="0"
   style="fill:#006db2" />
	<path
   class="st1"
   d="m 103.1,77.7 c 0.6,0.7 1.5,1.5 1.7,2.3 -3.9,3.7 -7.9,7 -11.7,10.6 L 93,91 c 0.7,1.2 1.5,2.1 2.6,3.2 1.1,-0.2 1.6,-1.1 2.5,-1.7 2,-1.8 4,-3.8 6.3,-5.3 h 0.4 c 0.9,0.6 1.2,1.6 2,2.2 l -0.2,0.5 c -2.7,2.5 -5.6,4.9 -8.2,7.5 l 0.3,0.7 c 1.5,2 3.3,3.6 4.6,5.7 v 0.3 l -4.4,3.7 c -0.2,0.2 -0.6,0.2 -0.8,0 -4.2,-4.9 -8.5,-9.9 -12.6,-14.8 -0.2,-1 1,-1.6 1.5,-2 4.8,-4.1 10.2,-9.1 15.6,-13.4 z"
   id="path3385"
   inkscape:connector-curvature="0"
   style="fill:#ffffff" />
	<path
   class="st1"
   d="m 45.5,79 c 3.1,3 5.6,6.5 8.5,9.5 0.2,0.6 0.6,1.3 0.1,1.9 -0.2,0.6 -0.8,0.8 -1.3,0.8 -2.2,-0.5 -3,-2.7 -4.6,-4.2 -1.8,-2 -3.8,-4.2 -5.3,-6.4 0,-0.5 -0.3,-1.3 0.1,-1.7 0.6,-0.6 2,-0.8 2.5,0.1 z"
   id="path3387"
   inkscape:connector-curvature="0"
   style="fill:#ffffff" />
	<path
   class="st0"
   d="m 31.7,85.2 c 4.6,5.3 9.9,10.8 14.7,16.1 l -0.1,0.5 c -1.1,1 -2.2,2.1 -3.4,2.8 -3.8,-2 -7.1,-4.8 -10.8,-6.5 -0.1,0.6 0.5,1 0.8,1.5 2.3,2.8 4.9,5 6.9,7.8 -0.5,1.1 -1.6,1.7 -2.4,2.5 h -0.6 c -5,-5.2 -9.5,-10.4 -14.3,-15.5 l -0.4,-0.6 c 1.1,-1.2 2.2,-2.3 3.4,-3.2 1.3,0.2 2,1.3 3.2,1.8 0.1,0.1 -0.1,0.4 0.1,0.4 l 0.2,-0.1 7,4.5 c 0.1,0.1 0.3,0 0.4,-0.1 V 96.7 L 28.6,88 c -0.2,-0.5 0.4,-0.6 0.5,-1 l 0.1,0.1 c 0.3,-0.8 1.4,-1.2 2.1,-2 z"
   id="path3389"
   inkscape:connector-curvature="0"
   style="fill:#006db2" />
	<path
   class="st1"
   d="m 78.2,101.8 c 3.8,4.5 7.7,8.9 11.6,13.4 l -0.1,0.4 -4.4,3.7 -0.6,-0.1 -12.8,-14.8 -0.1,-0.4 c 1.3,-1.5 3,-3 4.6,-4 0.9,0.3 1.3,1.3 1.8,1.8 z"
   id="path3391"
   inkscape:connector-curvature="0"
   style="fill:#ffffff" />
	<path
   class="st0"
   d="m 31.2,128 h -0.1 l 0.1,-0.2 c 0,0.1 0.1,0.2 0,0.2 z"
   id="path3393"
   inkscape:connector-curvature="0"
   style="fill:#006db2" />
</g>
</svg>