<?xml version="1.0" encoding="UTF-8" standalone="no"?>
<svg
   xmlns:dc="http://purl.org/dc/elements/1.1/"
   xmlns:cc="http://creativecommons.org/ns#"
   xmlns:rdf="http://www.w3.org/1999/02/22-rdf-syntax-ns#"
   xmlns:svg="http://www.w3.org/2000/svg"
   xmlns="http://www.w3.org/2000/svg"
   xmlns:sodipodi="http://sodipodi.sourceforge.net/DTD/sodipodi-0.dtd"
   xmlns:inkscape="http://www.inkscape.org/namespaces/inkscape"
   width="79.833794mm"
   height="87.57708mm"
   viewBox="0 0 301.73402 330.99999"
   version="1.1"
   id="svg1179"
   inkscape:version="1.0.1 (3bc2e813f5, 2020-09-07)"
   sodipodi:docname="Gais.svg">
  <defs
     id="defs1173" />
  <sodipodi:namedview
     id="base"
     pagecolor="#ffffff"
     bordercolor="#666666"
     borderopacity="1.0"
     inkscape:pageopacity="0.0"
     inkscape:pageshadow="2"
     inkscape:zoom="0.35"
     inkscape:cx="154.43844"
     inkscape:cy="162.64286"
     inkscape:document-units="px"
     inkscape:current-layer="layer1"
     inkscape:document-rotation="0"
     showgrid="false"
     inkscape:window-width="1366"
     inkscape:window-height="705"
     inkscape:window-x="-8"
     inkscape:window-y="-8"
     inkscape:window-maximized="1" />
  <metadata
     id="metadata1176">
    <rdf:RDF>
      <cc:Work
         rdf:about="">
        <dc:format>image/svg+xml</dc:format>
        <dc:type
           rdf:resource="http://purl.org/dc/dcmitype/StillImage" />
        <dc:title></dc:title>
      </cc:Work>
    </rdf:RDF>
  </metadata>
  <g
     inkscape:label="Layer 1"
     inkscape:groupmode="layer"
     id="layer1"
     transform="translate(-220.56156,-357.35714)">
    <path
       style="clip-rule:nonzero;fill:#000000;fill-opacity:1;fill-rule:nonzero;stroke:none;stroke-width:4.8904"
       d="m 371.43811,688.35714 c -8.6919,-10.50668 -22.88557,-19.71441 -39.29512,-27.12642 -14.59482,-6.57149 -33.31587,-11.38547 -48.57931,-17.25014 -15.05324,-5.78825 -26.66795,-12.07317 -35.66555,-21.05165 -6.99172,-6.99175 -12.41703,-15.60727 -16.52419,-27.05004 -4.68026,-13.02834 -4.54656,-29.03677 -2.98012,-42.73371 1.83391,-15.8556 6.76251,-26.91632 10.01007,-43.55515 1.70016,-8.61551 2.92276,-18.54915 3.05651,-31.82583 0.19121,-19.16044 -4.85222,-34.69129 -13.52504,-50.33676 -2.19687,-3.99255 -4.66115,-7.08726 -7.3738,-11.0034 l 40.51776,-52.3617 c 9.28409,5.76915 27.4894,16.04664 52.38076,16.08484 22.33159,1.7957 43.86081,-8.34807 57.97803,-22.79004 14.0981,14.44197 35.62737,24.58574 57.9589,22.80915 24.89142,-0.0573 43.1158,-10.3348 52.39994,-16.10395 l 40.49864,52.3617 c -2.69354,3.91614 -5.15786,7.02995 -7.3738,11.0225 -8.67283,15.62637 -13.69699,31.15722 -13.52504,50.31766 0.1335,13.27668 1.37542,23.21032 3.0565,31.82583 3.26664,16.63883 8.19524,27.69955 10.01007,43.55515 1.58551,13.69694 1.71927,29.70537 -2.961,42.73371 -4.1072,11.46189 -9.53247,20.0774 -16.52423,27.05004 -8.99756,8.99757 -20.61226,15.2634 -35.68462,21.05165 -15.26345,5.86467 -33.98449,10.67865 -48.57931,17.26924 -16.4096,7.39291 -30.60322,16.60064 -39.27605,27.10732"
       id="path199" />
    <path
       style="fill:#f3d32a;fill-opacity:1;fill-rule:nonzero;stroke:none;stroke-width:4.8904"
       d="m 371.43811,681.42276 c -18.26257,-22.08326 -69.24884,-35.93303 -87.95082,-42.5045 -41.56841,-14.57569 -55.43731,-45.14072 -50.73792,-85.8686 2.63621,-22.94287 13.02832,-38.16806 13.37217,-75.18994 0.22936,-22.90467 -5.90286,-41.70215 -19.25596,-61.35927 l 35.55093,-45.59919 c 8.84478,5.50171 27.64226,13.92619 51.36834,13.9644 21.26182,1.70018 44.20465,-7.02996 57.65326,-20.78421 13.42954,13.75425 36.39149,22.48439 57.65325,20.78421 23.70701,-0.0381 42.52361,-8.46269 51.36835,-13.9644 l 35.55093,45.59919 c -13.35309,19.65712 -19.48517,38.4546 -19.27503,61.35927 0.36287,37.02188 10.75502,52.24707 13.39128,75.18994 4.68027,40.72788 -9.18862,71.29291 -50.73792,85.8686 -18.72109,6.57147 -69.68824,20.42124 -87.95086,42.5045"
       id="path203" />
    <path
       style="fill:#cd3528;fill-opacity:1;fill-rule:nonzero;stroke:none;stroke-width:4.8904"
       d="m 245.58668,583.04158 c -6.97264,-41.14815 12.62716,-52.55272 13.08564,-101.62867 0.21029,-21.35731 -3.91614,-44.05184 -16.60062,-64.58771 l 23.21029,-30.03013 c 7.35473,4.77579 26.7062,10.01005 48.23541,10.27749 21.52927,0.26746 43.42145,-4.71847 57.92071,-17.74681 14.48019,13.00923 36.39149,17.99515 57.90163,17.72771 21.52922,-0.28653 40.89981,-5.5017 48.23542,-10.29659 l 23.21029,30.03013 c -5.08142,8.21434 -8.76834,16.79166 -11.38545,25.48358 z m 0,0"
       id="path205" />
    <path
       style="fill:#308a4c;fill-opacity:1;fill-rule:nonzero;stroke:none;stroke-width:4.8904"
       d="m 371.43811,666.54138 c -17.17373,-20.80331 -68.65666,-32.78097 -83.95828,-38.68384 -19.40879,-7.48843 -34.76769,-18.95031 -40.32671,-37.786 L 487.03119,451.5738 c -2.12043,9.99095 -2.94187,20.03919 -2.84636,29.82 0.4778,49.66815 20.55494,60.74796 12.8373,103.15692 -4.03076,22.15965 -20.40217,35.07337 -41.62573,43.28771 -15.30163,5.90287 -66.80368,17.88054 -83.95829,38.70295"
       id="path207" />
    <path
       style="fill:#f3d32a;fill-opacity:1;fill-rule:nonzero;stroke:none;stroke-width:4.8904"
       d="m 329.85062,486.36061 c 5.50171,-12.95192 0.59217,-28.36816 -11.90129,-35.57004 -13.48681,-7.79408 -30.85154,-3.1329 -38.64562,10.35391 -7.79408,13.50591 -3.15202,30.87067 10.3539,38.66473 12.49342,7.2019 28.29172,3.76334 36.75442,-7.48842 l 24.73854,14.28914 c -0.53487,1.37543 -0.91695,2.80816 -1.14616,4.29822 h -84.95164 v 6.87712 h 84.95164 c 0.22936,1.49005 0.61129,2.92278 1.14616,4.29821 l -24.73854,14.28915 c -8.4627,-11.25175 -24.261,-14.70943 -36.75442,-7.48844 -13.50592,7.79408 -18.14798,25.15883 -10.3539,38.66475 7.79408,13.48681 25.15881,18.14797 38.64562,10.3348 12.49346,-7.20188 17.403,-22.61812 11.90129,-35.57004 l 24.75765,-14.28915 c 0.93603,1.1462 1.98674,2.21597 3.1329,3.15203 l -28.31083,49.01864 -2.9228,-1.70019 -8.29075,28.0052 20.15379,-21.12807 -2.98007,-1.73838 28.29171,-49.01864 c 1.37543,0.53489 2.82729,0.93605 4.31735,1.16529 v 28.55919 c -13.98352,1.71928 -24.8723,13.67784 -24.8723,28.10071 0,15.56905 12.72268,28.29174 28.31084,28.29174 15.58816,0 28.29177,-12.72269 28.29177,-28.29174 0,-14.42287 -10.88878,-26.38143 -24.8723,-28.10071 v -28.55919 c 1.49005,-0.22921 2.90368,-0.61131 4.27909,-1.12709 l 42.48538,73.60439 5.96019,-3.43858 -42.5045,-73.60437 c 1.16533,-0.95516 2.23511,-2.02494 3.19026,-3.19023 l 24.75765,14.28915 c -5.52081,12.95192 -0.61129,28.36816 11.88217,35.57004 13.50587,7.81317 30.87066,3.15201 38.66474,-10.3348 7.79408,-13.50592 3.13289,-30.87067 -10.35391,-38.66475 -12.51259,-7.22099 -28.31083,-3.76331 -36.77353,7.48844 l -24.73859,-14.28915 c 0.53492,-1.37543 0.93608,-2.80816 1.16529,-4.29821 h 56.5644 v 3.45766 l 28.38727,-6.89622 -28.38727,-6.81983 v 3.38127 h -56.5644 c -0.22936,-1.49006 -0.63037,-2.92279 -1.16529,-4.29822 l 24.73859,-14.28914 c 8.4627,11.25176 24.26094,14.69032 36.77353,7.48842 13.4868,-7.79406 18.14799,-25.15882 10.35391,-38.66473 -7.79408,-13.48681 -25.15887,-18.14799 -38.66474,-10.35391 -12.49346,7.20188 -17.40298,22.61812 -11.88217,35.57004 L 388.268,500.64976 c -0.93608,-1.14619 -2.00586,-2.19685 -3.15202,-3.13292 l 42.46626,-73.56616 -5.96019,-3.43857 -42.46624,73.54706 c -1.35636,-0.53488 -2.80818,-0.91694 -4.29823,-1.14618 V 464.3538 c 13.98352,-1.71928 24.8723,-13.67784 24.8723,-28.10071 0,-15.58815 -12.70361,-28.31084 -28.29177,-28.31084 -15.58816,0 -28.31084,12.72269 -28.31084,28.31084 0,14.42287 10.88878,26.38143 24.8723,28.10071 v 28.55919 c -1.50918,0.24833 -2.96099,0.6304 -4.35554,1.16529 l -28.25352,-48.94223 2.98007,-1.73838 -20.15379,-21.12807 8.29075,27.98609 2.9228,-1.68108 28.27264,48.96134 c -1.12709,0.93605 -2.17775,1.98673 -3.09471,3.11381 z m 0,0"
       id="path209" />
    <path
       style="fill:#000000;fill-opacity:1;fill-rule:nonzero;stroke:none;stroke-width:4.8904"
       d="m 374.8767,498.64393 c 7.20185,1.58556 12.62716,8.02331 12.62716,15.70278 0,7.67945 -5.42531,14.11721 -12.62716,15.70277 z m -6.87713,31.40555 c -7.22102,-1.58556 -12.64628,-8.02332 -12.64628,-15.70277 0,-7.67947 5.42526,-14.11722 12.64628,-15.70278 z m 89.38355,-59.56357 -31.42464,18.14798 -5.00504,-8.65372 31.44377,-18.14798 z m -149.38649,80.88268 -6.5906,3.80152 -9.7235,-16.82987 0.70682,-0.42028 1.12709,-0.6877 c 5.40619,-3.11382 10.43029,-4.10718 15.05324,-2.9801 4.64207,1.1271 8.44363,4.27911 11.44281,9.45606 0.72589,1.2799 1.31812,2.52161 1.79566,3.76332 0.45823,1.26081 0.80238,2.48341 0.99339,3.70601 0.36287,2.4452 0.22936,4.8904 -0.45823,7.35471 -0.66861,2.34968 -1.77658,4.54653 -3.34303,6.55237 -1.58557,1.98672 -3.49591,3.64869 -5.73097,4.94771 -2.36876,1.35632 -4.7567,2.21596 -7.18278,2.54072 -2.40701,0.34384 -4.85221,0.17194 -7.31648,-0.51579 -2.46433,-0.68771 -4.69938,-1.83391 -6.66698,-3.43856 -1.98674,-1.60467 -3.64874,-3.57229 -5.00504,-5.92197 -1.75751,-3.05651 -2.71266,-6.11302 -2.8846,-9.18862 -0.15259,-3.0756 0.49672,-6.1321 1.98672,-9.1504 l 7.8514,5.38708 c -0.6877,1.58558 -1.03154,3.11382 -0.97427,4.56566 0.0391,1.45184 0.45823,2.84637 1.26084,4.24089 1.47093,2.54072 3.47673,4.06897 6.07476,4.56565 1.26084,0.22922 2.59803,0.19102 3.95439,-0.0955 1.37542,-0.30566 2.80816,-0.87875 4.29817,-1.73839 2.98011,-1.71929 4.90952,-3.80153 5.78828,-6.28493 0.87875,-2.4452 0.57311,-4.96682 -0.91696,-7.54574 -1.24172,-2.17776 -2.82728,-3.6869 -4.71849,-4.52745 -1.89118,-0.82143 -3.80151,-0.85964 -5.73092,-0.0764 z m 0.21028,-78.80044 -4.56563,7.92781 -9.819,-10.96521 z m 18.83574,-5.4826 -38.16809,-6.53327 -5.34887,9.30323 24.77678,29.66717 4.9286,-8.52 -4.41286,-5.36799 6.43778,-11.15622 6.85802,1.12708 z m 111.08471,75.43828 c -2.15867,0.43936 -3.97346,1.06977 -5.40619,1.91032 -1.45181,0.84053 -2.5216,1.853 -3.2284,3.0756 -0.64955,1.12708 -0.87876,2.25417 -0.70687,3.34305 0.19122,1.08888 0.76414,1.92942 1.7002,2.46431 1.01247,0.59219 1.98674,0.72591 2.9228,0.42028 0.91695,-0.28653 2.3497,-1.39453 4.27911,-3.28575 2.59803,-2.59802 4.92859,-4.14537 7.02995,-4.66116 2.08224,-0.49668 4.2791,-0.0764 6.57148,1.24171 3.01825,1.73839 4.8904,4.18359 5.61628,7.27829 0.72593,3.11382 0.17215,6.26583 -1.68107,9.45606 -0.97422,1.70017 -2.15863,3.20932 -3.53405,4.50833 -1.37543,1.29901 -2.9228,2.36879 -4.68027,3.20933 l -4.60387,-6.24673 c 1.39455,-0.49668 2.59803,-1.12708 3.61048,-1.91031 1.01247,-0.78322 1.81483,-1.66197 2.3879,-2.67444 0.61129,-1.05066 0.84056,-2.02493 0.72593,-2.94188 -0.1144,-0.91696 -0.57311,-1.60466 -1.35631,-2.04404 -0.76413,-0.45848 -1.54737,-0.53489 -2.34969,-0.24833 -0.82144,0.26745 -1.91035,1.10799 -3.26664,2.48341 l -0.3438,0.32476 c -2.96099,2.96099 -5.3298,4.64207 -7.08727,5.10055 -1.16529,0.28652 -2.42613,0.30565 -3.74424,0.0764 -1.3181,-0.22921 -2.63622,-0.72593 -3.95433,-1.49005 -3.30484,-1.91031 -5.34888,-4.54655 -6.113,-7.9087 -0.78325,-3.36214 -0.1144,-6.87713 2.00584,-10.52582 1.2608,-2.19687 2.78905,-3.99256 4.56564,-5.34888 1.75747,-1.35632 3.93525,-2.407 6.49504,-3.15202 z m -69.87926,-111.29486 1.16528,-0.95516 c 0.82145,-0.68771 1.45181,-1.35632 1.91029,-2.06314 0.4201,-0.68771 0.64955,-1.35632 0.64955,-2.00583 0,-0.85964 -0.28657,-1.56645 -0.84056,-2.12045 -0.57311,-0.55399 -1.31812,-0.84053 -2.25419,-0.84053 -1.06977,0 -1.87209,0.30565 -2.46426,0.87874 -0.59224,0.55399 -0.87876,1.31812 -0.87876,2.33058 0,0.40116 0.1144,0.89785 0.38193,1.50915 0.24844,0.6113 0.55399,1.12709 0.91696,1.54735 z m 2.55983,13.67784 -5.86467,-6.39955 c -1.08889,0.97426 -1.9294,1.89121 -2.46432,2.73175 -0.55399,0.85964 -0.82144,1.68108 -0.82144,2.50251 0,1.05067 0.36287,1.94852 1.10797,2.65533 0.74506,0.72592 1.662,1.08888 2.75086,1.08888 0.78324,0 1.6238,-0.21013 2.5025,-0.6304 0.87876,-0.42028 1.81484,-1.08888 2.7891,-1.94852 m 8.157,8.61552 -3.20932,-3.70601 c -1.73835,1.60467 -3.57226,2.78905 -5.48259,3.55319 -1.91029,0.74501 -4.03076,1.12708 -6.38045,1.12708 -3.20934,0 -5.84555,-0.93606 -7.88959,-2.82727 -2.06312,-1.8912 -3.07559,-4.31731 -3.07559,-7.2974 0,-2.27327 0.66858,-4.2982 2.0058,-6.01748 1.33724,-1.73839 3.47679,-3.38126 6.41866,-4.92861 -1.12708,-1.27991 -1.9676,-2.54072 -2.52159,-3.78242 -0.57311,-1.26081 -0.84056,-2.48341 -0.84056,-3.68691 0,-2.40699 0.95515,-4.43192 2.86548,-6.0748 1.91029,-1.64286 4.29823,-2.4643 7.20191,-2.4643 3.30482,0 5.90285,0.80233 7.81314,2.407 0.93607,0.80233 1.64288,1.73838 2.12048,2.82726 0.47731,1.06978 0.72588,2.31148 0.72588,3.70601 0,1.73838 -0.51578,3.36215 -1.54732,4.8904 -1.03158,1.52825 -2.59802,2.94189 -4.66118,4.26 l 4.26002,4.45103 c 0.95515,-0.76413 1.81478,-1.52825 2.57891,-2.29238 0.76412,-0.76412 1.60464,-1.68107 2.50251,-2.73175 l 5.19605,5.32978 c -0.82144,0.99336 -1.64288,1.92942 -2.54071,2.84637 -0.72593,0.78323 -1.54737,1.54736 -2.4452,2.29237 l 7.88959,8.11884 z m -7.41199,115.86051 5.25336,16.39048 h 17.26924 l -14.05991,10.16287 5.46351,16.33319 -14.07903,-9.93363 -13.79245,9.93363 5.32976,-16.21856 -14.15541,-10.2775 17.46025,-0.0381 z m 0,0"
       id="path211" />
  </g>
</svg>
