<?xml version="1.0" encoding="utf-8"?>
<!-- Generator: Adobe Illustrator 18.1.1, SVG Export Plug-In . SVG Version: 6.00 Build 0)  -->
<!DOCTYPE svg PUBLIC "-//W3C//DTD SVG 1.1//EN" "http://www.w3.org/Graphics/SVG/1.1/DTD/svg11.dtd">
<svg version="1.1" id="Layer_1" xmlns="http://www.w3.org/2000/svg" xmlns:xlink="http://www.w3.org/1999/xlink" x="0px" y="0px"
	 width="98.638px" height="96px" viewBox="0 0 98.638 96" enable-background="new 0 0 98.638 96" xml:space="preserve">
<path fill="#006DB6" d="M0,42.707c0,0,5.968,5.241,6.78,5.918c0,0-0.659,0.71-2.942,3.398L2.57,51.364
	c0,0-0.338,12.275,8.674,25.716l-1.775,0.389c0,0,13.12,14.676,32.462,13.458l-1.082,1.555L45.65,96l4.497-4.971l4.666,4.261
	l4.396-3.584l-1.183-1.522c0,0,22.757,0.642,30.873-13.966c0,0-0.575-0.101-1.116-0.237c0,0,9.231-11.024,10.804-24.059
	c0,0-0.777,0.304-1.319,0.71l-4.075-3.973c0,0,5.039-4.92,5.444-5.867l-3.551-3.466l-0.812,0.541c0,0-0.135-19.207-12.579-29.892
	c0,0-0.457,0.507-0.862,2.587c0,0-12.664-10.6-25.412-12.561l-5.512,5.376c0,0-2.705-3.787-5.004-5.275
	c0,0-14.338,0.592-26.663,11.7c0,0-0.372-0.423-0.507-0.964c0,0-10.685,8.269-13.779,28.253l-0.88-0.457L0,42.707z"/>
<path fill="#FFCF2B" d="M53.563,85.855c0,0,8.894-0.743,22.555-7.777c0,0,1.521-3.314,2.062-4.802
	C78.18,73.276,61.78,74.223,53.563,85.855z"/>
<path fill="#FFCF2B" d="M75.949,72.093l3.043-0.44c0,0,5.41-7.71,8.116-10.415c0,0,2.249-4.751,1.759-11.362
	C88.866,49.876,80.548,56.268,75.949,72.093z"/>
<path fill="#FFCF2B" d="M78.18,77.469c0,0,3.855-1.048,6.966-1.454c0,0,8.116-8.724,11.159-20.543
	C96.305,55.472,83.675,63.791,78.18,77.469z"/>
<path fill="#FFCF2B" d="M91.182,48.726l4.92-5.681c-0.203-0.254-1.319-1.522-1.319-1.522c-0.761,0.913-2.993,3.094-2.993,3.094
	c-0.964-0.203-2.993-3.348-2.993-3.348s0.558,3.246,0.203,5.782c0,0,0.304,0.101,0.609-0.152c0,0,1.471,1.37,0.304,11.514
	c0,0,2.79-2.942,6.137-4.971C96.051,53.444,91.841,49.234,91.182,48.726z"/>
<path fill="#FFCF2B" d="M82.458,13.576c0,0-3.331,13.306,9.316,29.335C91.774,42.91,93.921,24.633,82.458,13.576z"/>
<path fill="#FFCF2B" d="M76.473,20.931c0,0,2.333,1.42,4.616,2.384c0,0,1.319,6.239,3.449,10.094s3.449,7.456,2.739,9.942
	C87.276,43.35,74.9,31.024,76.473,20.931z"/>
<path fill="#FFCF2B" d="M55.169,10.887c0,0,5.072,10.905,19.427,12.985c0,0,0.355-3.094,0.609-4.311
	C75.204,19.561,61.966,11.192,55.169,10.887z"/>
<path fill="#FFCF2B" d="M60.14,2.62c0,0,6.746,12.427,20.695,18.818c0,0-0.203-5.833-0.254-6.848
	C80.581,14.59,72.719,6.88,60.14,2.62z"/>
<path fill="#FFCF2B" d="M36.909,10.532c0,0,7.05-1.623,10.043-1.217c0,0-0.101,1.674-3.804,5.681c0,0,1.37,1.37,1.674,1.725
	c0,0,4.261-4.717,5.072-5.985c0,0,4.261,5.681,4.869,6.137c0,0,1.268-1.014,1.623-1.471c0,0-3.145-4.413-3.449-5.833
	c0,0,8.623,0.71,13.086,3.246c0,0-8.471-10.094-9.536-11.717c0,0-5.833,5.782-6.543,6.492c0,0-5.427-5.529-5.833-5.833
	C44.112,1.757,41.322,6.221,36.909,10.532z"/>
<path fill="#FFCF2B" d="M18.04,20.931c0,0-0.913,5.072-1.217,5.833c0,0,4.058-5.529,10.144-8.521c0,0,0.71,1.065,0.659,4.007
	c0,0,11.007-3.652,16.84-11.26c0,0-5.891-1.095-14.202,3.753C23.569,18.648,18.75,20.525,18.04,20.931z"/>
<path fill="#FFCF2B" d="M18.446,15.047c0,0,0.203,3.094,0,4.159c0,0,16.789-5.022,23.687-17.195
	C42.133,2.011,25.141,4.902,18.446,15.047z"/>
<path fill="#FFCF2B" d="M25.936,20.728c0,0-15.453,8.656-12.816,24.753c0,0,4.193-7.169,9.671-11.429
	C22.791,34.051,26.241,28.201,25.936,20.728z"/>
<path fill="#FFCF2B" d="M16.823,14.134"/>
<path fill="#FFCF2B" d="M16.908,14.201c0,0-8.318,6.864-11.362,28.168l-2.063-1.522l-0.879,1.691l3.382,3.145
	C5.985,45.683,19.579,26.307,16.908,14.201z"/>
<path fill="#FFCF2B" d="M13.154,52.108c0,0-0.71,4.734,1.319,11.395c0,0,2.942,4.295,3.584,5.816c0,0,1.589,0.812,2.604,1.454
	C20.661,70.774,18.936,59.243,13.154,52.108z"/>
<path fill="#FFCF2B" d="M4.836,55.049c0,0,0.507,11.598,8.961,22.149c0,0,5.241,0.136,5.884,0.203
	C20.323,77.469,15.42,63.638,4.836,55.049z"/>
<path fill="#FFCF2B" d="M19.376,71.754c0,0,1.116,2.401,1.995,5.715c0,0,5.106,1.014,6.932,1.522
	C28.303,78.99,22.859,73.31,19.376,71.754z"/>
<path fill="#FFCF2B" d="M23.975,72.591c0,0,1.792-0.466,7.676,2.172c5.884,2.638,11.362,6.154,14.709,11.227
	c0,0-6.078,0.144-12.672-4.598C27.314,76.807,25.158,73.453,23.975,72.591z"/>
<circle fill="#FFCF2B" cx="41.474" cy="47.796" r="2.384"/>
<circle fill="#FFCF2B" cx="56.961" cy="47.83" r="2.384"/>
<path fill="#FFCF2B" d="M74.9,26.713c0,0-1.543,3.471-4.971,4.193c-1.927,0.406-2.299,0.372-7.777,0.744l-0.102,0
	c-3.179,0.101-16.299,0.676-23.197,0.812s-10.289,1.228-10.289,1.228c-3.792,1.27-8.813,2.745-15.964,15.025
	c0,0-1.228-3.178-1.011-9.751c0,0-4.189,7.151-4.406,7.657c0,0,1.827,2.233,2.116,2.378c0,0-3.923,3.787-4.356,4.195
	c0,0,5.573,5.002,7.079,7.006c0,0-0.991-6.444-0.052-11.067c0,0,6.831,3.923,10.483,21.743c0,0,5.407-8.121,14.129-8.365
	c9.204-0.258,30.049,1.589,38.428-2.311s13.652-12.641,13.652-12.641S78.552,35.978,74.9,26.713z M71.079,58.871
	c-9.604,2.3-21.642,1.285-25.497,1.488s-14.371-1.352-21.337,5.276c0,0-6.662-7.846-5.512-17.179
	c1.15-9.333,7.034-12.038,11.97-12.647c4.937-0.609,22.927-0.811,31.651-1.488s11.023-1.082,13.255-3.99
	c0,0,4.531,9.062,4.531,14.135S80.683,56.571,71.079,58.871z"/>
<path fill="#FFCF2B" d="M13.087,78.349c0,0,10.483,12.241,33.105,10.618l-2.57,3.077l1.86,1.589l4.836-5.004l4.328,4.497
	l2.232-1.792l-2.84-2.773c0,0,22.453,1.725,31.786-10.855c0,0-3.213-0.54-16.941,5.005c-13.729,5.545-13.492,4.227-17.11,4.125
	c0,0,0.643-1.69,4.126-5.512l-1.42-1.048c0,0-3.855,3.889-4.261,4.294c0,0-3.787-4.193-4.024-4.43l-1.894,1.184l3.855,4.869
	c0,0,0.677,0.609-0.406,0.744c-1.082,0.135-3.28,0.54-7.372-1.15S23.231,77.063,13.087,78.349z"/>
<path fill="#FFCF2B" d="M36.275,68.077h0.786v-0.634c0,0,0.051-1.167-1.395-1.167c-1.446,0-1.344,1.623-1.344,1.623
	s-0.127,0.685,0.913,1.725c1.04,1.04,1.014,1.319,1.014,1.648s0.076,0.786-0.507,0.786c-0.583,0-0.533-0.583-0.533-1.167h-0.913
	v0.609c0,0-0.025,1.293,1.395,1.293s1.42-1.04,1.42-1.522s0.051-0.964-0.533-1.547c-0.583-0.583-1.37-1.42-1.37-1.953
	s0.203-0.71,0.533-0.71C36.072,67.063,36.275,67.063,36.275,68.077z"/>
<path fill="#FFCF2B" d="M52.887,68.077h0.786v-0.634c0,0,0.051-1.167-1.395-1.167c-1.446,0-1.344,1.623-1.344,1.623
	s-0.127,0.685,0.913,1.725c1.04,1.04,1.014,1.319,1.014,1.648s0.076,0.786-0.507,0.786c-0.583,0-0.533-0.583-0.533-1.167h-0.913
	v0.609c0,0-0.025,1.293,1.395,1.293c1.42,0,1.42-1.04,1.42-1.522s0.051-0.964-0.533-1.547c-0.583-0.583-1.37-1.42-1.37-1.953
	s0.203-0.71,0.533-0.71C52.684,67.063,52.887,67.063,52.887,68.077z"/>
<path fill="#FFCF2B" d="M38.279,66.505c0,0,0,4.616,0,4.895c0,0.279,0.076,1.42,1.572,1.42c1.496,0,1.42-1.369,1.42-1.369v-5.047
	h-0.837v5.022c0,0-0.025,0.634-0.634,0.634s-0.634-0.659-0.634-0.659v-4.996h-0.888V66.505z"/>
<polygon fill="#FFCF2B" points="42.59,72.718 43.376,72.718 43.376,68.61 44.416,72.743 45.684,72.743 45.684,66.352 44.796,66.352 
	44.796,70.334 43.807,66.403 42.59,66.403 "/>
<g>
	<g>
		<path fill="#FFCF2B" d="M48.626,66.403c-1.446,0-1.699,0-1.699,0v6.34h1.725c0,0,1.217,0.127,1.217-1.471c0-1.598,0-3.449,0-3.449
			S50.072,66.403,48.626,66.403z M49.006,70.816c0,1.319-0.634,1.141-0.634,1.141H47.84v-4.819c0,0,1.167-0.127,1.167,0.71
			C49.006,67.849,49.006,69.497,49.006,70.816z"/>
	</g>
</g>
<polygon fill="#FFCF2B" points="54.408,66.378 55.347,66.378 56.234,71.272 57.097,66.403 58.01,66.403 56.776,72.718 
	55.702,72.718 "/>
<path fill="#FFCF2B" d="M60.495,66.378h-1.04l-1.395,6.366h0.888l0.33-1.674h1.344l0.279,1.674h0.913L60.495,66.378z M59.455,70.385
	l0.482-2.917l0.507,2.917H59.455z"/>
<polygon fill="#FFCF2B" points="63.526,71.919 63.526,66.365 62.651,66.365 62.651,72.718 64.984,72.718 64.984,71.919 "/>
<polygon fill="#FFCF2B" points="66.442,71.919 66.442,66.365 65.567,66.365 65.567,72.718 67.9,72.718 67.9,71.919 "/>
<path fill="#FFCF2B" d="M40.941,20.702v1.217c0,0,0.685-0.533,0.938-0.888v6.974h1.167v-8.699h-1.014
	C42.032,19.307,41.626,20.094,40.941,20.702z"/>
<path fill="#FFCF2B" d="M50.997,19.257c-1.408,0-1.788,0.768-1.788,1.715v5.421c0,0.947,0.279,1.715,1.788,1.715
	c1.458,0,1.788-0.768,1.788-1.715v-5.421C52.785,20.025,52.405,19.257,50.997,19.257z M51.644,26.402
	c0,0.438-0.289,0.793-0.647,0.793c-0.357,0-0.647-0.355-0.647-0.793v-5.465c0-0.438,0.289-0.793,0.647-0.793
	c0.357,0,0.647,0.355,0.647,0.793V26.402z"/>
<path fill="#FFCF2B" d="M46.026,19.257c-1.408,0-1.788,0.768-1.788,1.715v2.545c0,0-0.051,1.42,1.344,1.42
	c0,0,0.609,0.101,1.141-0.431v1.75c0,0,0,0.913-0.71,0.913s-0.558-0.989-0.558-1.395h-1.217v0.051v0.567
	c0,0.947,0.279,1.715,1.788,1.715c1.458,0,1.788-0.768,1.788-1.715v-5.421C47.814,20.025,47.586,19.257,46.026,19.257z
	 M46.724,23.285c0,0.394-0.295,0.714-0.659,0.714c-0.364,0-0.659-0.32-0.659-0.714v-2.427c0-0.394,0.295-0.714,0.659-0.714
	c0.364,0,0.659,0.32,0.659,0.714V23.285z"/>
<path fill="#FFCF2B" d="M53.977,25.699v0.694c0,1.005,0.279,1.715,1.788,1.715l0,0c1.458,0,1.813-0.837,1.813-1.411
	c0,0,0-0.895,0-1.835c0,0,0.076-1.344-0.989-1.344c0,0,0.964-0.025,0.964-1.09c0,0,0-1.455,0-1.455c0-0.947-0.228-1.715-1.788-1.715
	l0,0c-1.408,0-1.788,0.768-1.788,1.715v0.542h1.192c0,0-0.152-1.344,0.634-1.37c0.71-0.023,0.609,0.837,0.609,0.837v1.167
	c0,0,0.025,0.888-0.735,0.888c-0.761,0-0.583,0-0.583,0v1.091c0,0,1.37-0.178,1.37,0.735v1.395c0,0,0,0.913-0.71,0.913
	s-0.634-1.116-0.634-1.522h-1.141"/>
<path fill="#FFCF2B" d="M28.675,47.036h7.811c0,0,0.473,0.068,0.473,0.541c0,0.473,0,0.981,0,0.981s0.068,0.473-0.473,0.473
	c-0.541,0-1.048,0.135-1.048,0.879s0,7.845,0,7.845s0,0.609-0.744,0.609c-0.744,0-0.812-0.406-0.947-0.541s-0.361-0.684-0.947-0.27
	c-0.575,0.406-3.212,2.063-6.188,1.386c-3.239-0.736-5.546-5.545-5.275-9.502c0.27-3.957,1.082-6.493,3.111-8.995
	c2.029-2.502,5.681-3.314,9.029-1.42c0,0,0.136,0.034,0.271-0.473c0.135-0.507,0.676-0.474,1.116-0.474
	c0.439,0,0.676,0.237,0.676,0.744c0,0.507,0.237,4.802,0.237,4.802s0.101,0.643-0.643,0.609c-0.744-0.034-0.981-0.71-1.217-1.522
	c-0.237-0.812-0.981-2.773-3.28-2.469c-2.299,0.304-4.227,2.401-4.903,6.661s0.27,6.492,0.845,7.27
	c0.575,0.778,1.488,1.319,2.502,1.319c1.014,0,2.502-0.913,2.502-2.705c0-1.792,0-2.638,0-2.638s0.135-1.217-1.183-1.251
	c-1.487-0.038-2.401,0.338-2.401-0.947C27.999,46.934,28.675,47.036,28.675,47.036z"/>
<path fill="#FFCF2B" d="M45.515,37.432h7.338c0,0,0.642,0,0.642,0.643c0,0.643,0,0.845,0,0.845s-0.034,0.541-0.642,0.541
	s-1.488,0.338-1.488,1.319c0,0.981,0,13.087,0,13.087s-0.169,1.657,1.116,1.826c0,0,0.981-0.135,0.981,0.744
	c0,0.913-0.034,1.251-0.609,1.251s-7.473,0-7.473,0s-0.541,0.034-0.541-1.014c0-1.048,0.406-0.98,0.643-0.98
	c0.237,0,1.488,0.101,1.488-1.522s0-13.391,0-13.391s0.068-1.386-1.42-1.386c0,0-0.71,0.068-0.71-0.947S45.109,37.432,45.515,37.432
	z"/>
<path fill="#FFCF2B" d="M62.186,39.63"/>
<path fill="#FFCF2B" d="M62.253,39.766c0,0,0.034,14.337-0.067,15.014c-0.101,0.676,0.034,0.846-0.778,0.981s-1.014,0-1.014,0.845
	c0,0.845,0.372,0.71,0.812,0.71c0.439,0,6.966-0.068,7.27-0.101c0.304-0.034,0.744,0.135,0.744-0.879
	c0-1.014-0.271-0.812-0.812-0.812s-1.623,0.169-1.623-1.251s0-5.41,0-5.41s-0.067-0.812,0.879-0.812
	c0.947,0,2.367-0.135,2.367,1.522s0.338,1.42,0.947,1.42c0.609,0,0.778,0,0.778-1.42c0-1.42,0-5.512,0-5.512
	s0.101-0.812-0.913-0.744c-0.978,0.065-0.744,0.575-0.778,0.981c-0.034,0.406,0.101,1.454-1.217,1.623
	c-1.319,0.169-2.029,0.406-2.029-0.879c0-1.285,0-5.749,0-5.749s-0.202-0.7,0.947-0.744c0.879-0.034,2.13-0.034,2.13-0.034
	s1.589-0.27,3.111,1.285c1.505,1.539,0.98,2.502,2.029,2.502s1.015-0.27,0.744-1.42c-0.271-1.15-0.812-3.821-0.913-4.295
	c-0.101-0.473-0.237-0.778-1.082-0.744c-0.845,0.034-11.7,1.15-12.714,1.217c-1.014,0.068-1.454,0.068-1.387,0.778
	c0.068,0.71,0.101,0.98,0.913,0.947C61.408,38.751,62.219,38.582,62.253,39.766z"/>
</svg>
