<?xml version="1.0" encoding="UTF-8" standalone="no"?>
<!-- Generator: Adobe Illustrator 12.0.0, SVG Export Plug-In  -->

<svg
   xmlns:dc="http://purl.org/dc/elements/1.1/"
   xmlns:cc="http://creativecommons.org/ns#"
   xmlns:rdf="http://www.w3.org/1999/02/22-rdf-syntax-ns#"
   xmlns:svg="http://www.w3.org/2000/svg"
   xmlns="http://www.w3.org/2000/svg"
   xmlns:sodipodi="http://sodipodi.sourceforge.net/DTD/sodipodi-0.dtd"
   xmlns:inkscape="http://www.inkscape.org/namespaces/inkscape"
   version="1.1"
   width="144.29881"
   height="170.95117"
   viewBox="0 0 144.29881 170.95117"
   enable-background="new 0 0 193 193"
   xml:space="preserve"
   id="svg7857"
   sodipodi:docname="Degerfors_IF_logo.svg"
   inkscape:version="0.92.4 (5da689c313, 2019-01-14)"><metadata
   id="metadata7861"><rdf:RDF><cc:Work
       rdf:about=""><dc:format>image/svg+xml</dc:format><dc:type
         rdf:resource="http://purl.org/dc/dcmitype/StillImage" /></cc:Work></rdf:RDF></metadata><sodipodi:namedview
   pagecolor="#ffffff"
   bordercolor="#666666"
   borderopacity="1"
   objecttolerance="10"
   gridtolerance="10"
   guidetolerance="10"
   inkscape:pageopacity="0"
   inkscape:pageshadow="2"
   inkscape:window-width="640"
   inkscape:window-height="480"
   id="namedview7859"
   showgrid="false"
   inkscape:zoom="0.43232435"
   inkscape:cx="-235.80088"
   inkscape:cy="173.55155"
   inkscape:window-x="0"
   inkscape:window-y="0"
   inkscape:window-maximized="0"
   inkscape:current-layer="svg7857" />
<defs
   id="defs7821">
</defs>

<path
   d="m 0,0 v 69.251465 c 0.004,1.28271 0.21142,31.428225 7.958,48.111815 18.78711,40.45704 63.28662,53.33593 63.73536,53.45899 l 0.45459,0.1289 0.45361,-0.1289 c 0.44775,-0.12306 44.95312,-13.00195 63.74121,-53.45899 7.74414,-16.68359 7.95117,-46.829105 7.95605,-48.104975 V 0 Z"
   id="path7825"
   inkscape:connector-curvature="0"
   style="clip-rule:evenodd;fill:#b79c14;fill-rule:evenodd" />
<path
   d="m 3.37011,69.245605 c 0.002,0.3042 0.21094,30.68603 7.64453,46.697755 17.20508,37.05078 56.80176,50.15821 61.13331,51.4961 4.33056,-1.33399 43.92919,-14.44532 61.1372,-51.4961 7.4336,-16.011725 7.6416,-46.393555 7.64356,-46.691895 0,0 0,-21.52881 0,-39.99707 H 3.37011 c 0,18.46582 0,39.99121 0,39.99121 z"
   id="path7827"
   inkscape:connector-curvature="0"
   style="clip-rule:evenodd;fill:#f7140d;fill-rule:evenodd" />
<path
   d="m 140.94335,3.368652 c 0,2.741211 0,19.774903 0,22.516113 -3.25097,0 -134.32177,0 -137.57324,0 0,-2.74121 0,-19.774902 0,-22.516113 3.25147,0 134.32227,0 137.57324,0 z"
   id="path7829"
   inkscape:connector-curvature="0"
   style="clip-rule:evenodd;fill:#ffffff;fill-rule:evenodd" />
<path
   d="m 17.07617,7.68164 h -6.01026 v 13.613775 h 5.896 c 4.49414,0 5.65088,-4.20899 5.65088,-7.1294 0,-2.578125 -0.94824,-6.484375 -5.53662,-6.484375 z M 16.62158,18.944825 H 13.85351 V 10.03125 H 16.583 c 1.21289,0 3.1294,0.323242 3.1294,4.343261 0,2.237793 -0.77881,4.570314 -3.09082,4.570314 z"
   id="path7831"
   inkscape:connector-curvature="0"
   style="clip-rule:evenodd;fill:#b79c14;fill-rule:evenodd" />
<polygon
   points="59.562988,20.991699 59.562988,18.583984 49.552734,18.583984 49.552734,32.197754 59.885742,32.197754 59.885742,29.789551 52.339356,29.789551 52.339356,26.262207 58.975586,26.262207 58.975586,23.854492 52.339356,23.854492 52.339356,20.991699 "
   id="polygon7833"
   style="clip-rule:evenodd;fill:#b79c14;fill-rule:evenodd"
   transform="translate(-24.22852,-10.902344)" />
<path
   d="m 44.9292,16.252441 h 3.16796 c -0.58886,2.748044 -2.67529,2.995114 -3.30078,2.995114 -1.93408,0 -3.96338,-0.96679 -3.96338,-4.683102 0,-3.489258 1.87793,-4.893067 3.90625,-4.893067 2.01075,0 2.97754,1.706543 2.97754,2.237793 h 2.84375 C 50.40966,10.03125 48.75976,7.320312 44.58789,7.320312 c -4.58887,-0.01855 -6.6543,3.489746 -6.6543,7.205567 0,4.778806 2.97656,7.129396 6.25732,7.129396 2.4834,0 3.52588,-1.23193 4.2461,-2.06787 l 0.28418,1.70801 h 1.89648 V 13.957519 H 44.9292 Z"
   id="path7835"
   inkscape:connector-curvature="0"
   style="clip-rule:evenodd;fill:#b79c14;fill-rule:evenodd" />
<polygon
   points="88.099609,20.991699 88.099609,18.583984 78.088379,18.583984 78.088379,32.197754 88.422852,32.197754 88.422852,29.789551 80.875977,29.789551 80.875977,26.262207 87.512695,26.262207 87.512695,23.854492 80.875977,23.854492 80.875977,20.991699 "
   id="polygon7837"
   style="clip-rule:evenodd;fill:#b79c14;fill-rule:evenodd"
   transform="translate(-24.22852,-10.902344)" />
<path
   d="m 77.86425,18.223635 c 0,-2.541018 -0.60547,-2.95801 -1.72558,-3.452151 1.34668,-0.454101 2.10547,-1.743652 2.10547,-3.241699 0,-1.175293 -0.66407,-3.848144 -4.28516,-3.848144 h -6.8833 v 13.613774 h 2.7876 v -5.328618 h 2.9375 c 2.10547,0 2.21972,0.721191 2.21972,2.578128 0,1.40381 0.11329,2.10547 0.30371,2.75049 h 3.14649 v -0.36133 c -0.60645,-0.22705 -0.60645,-0.71973 -0.60645,-2.71045 z M 73.20068,13.67334 h -3.3374 v -3.64209 h 3.54492 c 1.66992,0 1.99219,1.0625 1.99219,1.783691 0,1.34668 -0.72071,1.858399 -2.19971,1.858399 z"
   id="path7839"
   inkscape:connector-curvature="0"
   style="clip-rule:evenodd;fill:#b79c14;fill-rule:evenodd" />
<polygon
   points="108.40723,24.063965 108.40723,20.991699 115.25195,20.991699 115.25195,18.583984 105.56348,18.583984 105.56348,32.197754 108.40723,32.197754 108.40723,26.47168 114.39844,26.47168 114.39844,24.063965 "
   id="polygon7841"
   style="clip-rule:evenodd;fill:#b79c14;fill-rule:evenodd"
   transform="translate(-24.22852,-10.902344)" />
<path
   d="m 99.42285,7.320312 c -1.80078,0 -6.54102,0.778809 -6.54102,7.166992 0,6.390141 4.74024,7.167971 6.54102,7.167971 1.80078,0 6.54199,-0.77783 6.54199,-7.167971 0,-6.388183 -4.74121,-7.166992 -6.54199,-7.166992 z m 0,11.927243 c -1.53614,0 -3.69727,-0.94824 -3.69727,-4.760251 0,-3.810547 2.16113,-4.758789 3.69727,-4.758789 1.53613,0 3.69629,0.948242 3.69629,4.758789 0,3.812011 -2.16016,4.760251 -3.69629,4.760251 z"
   id="path7843"
   inkscape:connector-curvature="0"
   style="clip-rule:evenodd;fill:#b79c14;fill-rule:evenodd" />
<path
   d="m 119.59765,18.223635 c 0,-2.541018 -0.60742,-2.95801 -1.72461,-3.452151 1.34375,-0.454101 2.10352,-1.743652 2.10352,-3.241699 0,-1.175293 -0.66309,-3.848144 -4.28613,-3.848144 h -6.88184 v 13.613774 h 2.78711 v -5.328618 h 2.93848 c 2.10449,0 2.21875,0.721191 2.21875,2.578128 0,1.40381 0.11425,2.10547 0.30273,2.75049 h 3.14844 v -0.36133 c -0.60645,-0.22705 -0.60645,-0.71973 -0.60645,-2.71045 z m -4.66406,-4.550295 h -3.33789 v -3.64209 h 3.54687 c 1.66797,0 1.98926,1.0625 1.98926,1.783691 0,1.34668 -0.71973,1.858399 -2.19824,1.858399 z"
   id="path7845"
   inkscape:connector-curvature="0"
   style="clip-rule:evenodd;fill:#b79c14;fill-rule:evenodd" />
<path
   d="m 129.9873,13.540039 -3.31836,-0.814942 c -0.56836,-0.1333 -1.44043,-0.361328 -1.44043,-1.422851 0,-1.230957 1.29004,-1.63086 2.37109,-1.63086 2.48145,0 2.70997,1.442383 2.78614,2.04834 h 2.73047 c -0.0195,-1.668457 -1.1377,-4.399414 -5.3086,-4.399414 -4.41894,0 -5.23437,2.673828 -5.23437,4.191895 0,2.994628 2.12402,3.487304 4.32324,4.000488 l 1.45996,0.339844 c 1.44141,0.341797 2.46582,0.626953 2.46582,1.687986 0,1.44141 -1.49805,1.76416 -2.84375,1.76416 -2.48437,0 -2.86426,-1.44238 -2.88281,-2.200681 h -2.73047 c 0,1.687991 0.85352,4.551271 5.82129,4.551271 1.19433,0 5.36523,-0.35986 5.36523,-4.456057 0,-2.444824 -1.70703,-3.203613 -3.56445,-3.659179 z"
   id="path7847"
   inkscape:connector-curvature="0"
   style="clip-rule:evenodd;fill:#b79c14;fill-rule:evenodd" />
<path
   d="m 118.99609,59.177245 -6.65332,6.65137 c 5.68164,8.01758 9.03027,17.80371 9.03027,28.37841 0,27.146495 -22.00586,49.154305 -49.15478,49.154305 -27.14551,0 -49.15186,-22.00781 -49.15186,-49.154295 0,-27.14795 22.00635,-49.15577 49.15332,-49.15577 10.5752,0 20.36035,3.35059 28.37793,9.03125 l 6.65235,-6.65185 -8.81153,-8.81201 h 29.36914 v 29.37011 z m -9.47559,35.03174 c -9.7e-4,-20.60303 -16.69922,-37.30371 -37.30078,-37.30518 -20.6001,0 -37.30078,16.70118 -37.30078,37.30323 0,20.599605 16.69971,37.300785 37.30176,37.300785 20.60156,0 37.29883,-16.69922 37.2998,-37.298835 z"
   id="path7849"
   inkscape:connector-curvature="0"
   style="clip-rule:evenodd;fill:#ffffff;fill-rule:evenodd" />
<path
   d="m 63.59619,57.910645 c -3.04297,0.7207 -5.94092,1.81396 -8.64453,3.22852 -0.0449,9.7705 -1.1294,13.5166 -6.23047,13.5166 h -4.13672 v -28.33057 h 4.41992 c 2.20166,0 3.58691,0.90967 4.46094,2.43555 2.60449,-1.07666 5.32178,-1.93262 8.1289,-2.55176 -1.84716,-3.99805 -5.24121,-6.17334 -11.28759,-6.17334 H 36.0288 v 40.90967 h 13.93897 c 14.61914,0 13.65576,-14.39209 13.65576,-20.68164 0,-0.80567 -0.009,-1.58985 -0.0273,-2.35303 z"
   id="path7851"
   inkscape:connector-curvature="0"
   style="clip-rule:evenodd;fill:#b79c14;fill-rule:evenodd" />
<polygon
   points="92.868652,84.92334 101.42383,84.92334 101.42383,125.83398 92.868652,125.83398 "
   id="polygon7853"
   style="clip-rule:evenodd;fill:#b79c14;fill-rule:evenodd"
   transform="translate(-24.22852,-10.902344)" />
<polygon
   points="118.08887,131.48633 127.85352,131.48633 127.85352,137.77734 118.08887,137.77734 118.08887,155.625 109.5332,155.625 109.5332,114.71484 133.81934,114.71484 133.81934,121.00391 118.08887,121.00391 "
   id="polygon7855"
   style="clip-rule:evenodd;fill:#b79c14;fill-rule:evenodd"
   transform="translate(-24.22852,-10.902344)" />
</svg>