<svg xmlns:inkscape="http://www.inkscape.org/namespaces/inkscape" xmlns:sodipodi="http://sodipodi.sourceforge.net/DTD/sodipodi-0.dtd" xmlns="http://www.w3.org/2000/svg" xmlns:svg="http://www.w3.org/2000/svg" class="i-Logo-typo-white" role="presentation" width="260.21968740717085" height="384.2906776055265" viewBox="0 0 473.86322 700" fill="none" version="1.1" id="svg151" sodipodi:docname="Logo Southport FC copie.svg" inkscape:version="1.2 (dc2aeda, 2022-05-15)">
  <sodipodi:namedview id="namedview153" pagecolor="#ffffff" bordercolor="#000000" borderopacity="0.25" inkscape:showpageshadow="2" inkscape:pageopacity="0.0" inkscape:pagecheckerboard="0" inkscape:deskcolor="#d1d1d1" showgrid="false" inkscape:zoom="0.84285714" inkscape:cx="127.54237" inkscape:cy="282.37288" inkscape:window-width="1440" inkscape:window-height="900" inkscape:window-x="0" inkscape:window-y="0" inkscape:window-maximized="0" inkscape:current-layer="svg151"/>
  <g id="g7348" transform="scale(9.9998571)" style="stroke-width:0.100001">
    <path style="fill:#ffffff;stroke-width:0.100001" d="M 0,46.307 C 0,33.22 10.61,22.613 23.694,22.611 c 13.082,0 23.693,10.607 23.693,23.696 C 47.387,59.392 36.777,70 23.694,70.001 10.61,70.001 0,59.393 0,46.307 Z" id="path557"/>
    <path style="fill:#821636;fill-opacity:1;stroke-width:0.100001" d="M 7.527,30.14 A 22.795,22.795 0 0 0 0.83,46.307 22.78,22.78 0 0 0 7.528,62.473 22.793,22.793 0 0 0 23.695,69.169 22.792,22.792 0 0 0 39.861,62.473 22.79,22.79 0 0 0 46.559,46.307 22.791,22.791 0 0 0 39.86,30.14 22.79,22.79 0 0 0 23.694,23.443 22.793,22.793 0 0 0 7.527,30.14" id="path559"/>
    <path style="fill:#ffffff;stroke-width:0.100001" d="m 33.218,55.83 a 13.437,13.437 0 0 1 -9.524,3.945 13.429,13.429 0 0 1 -9.525,-3.945 13.423,13.423 0 0 1 -3.945,-9.524 13.42,13.42 0 0 1 3.945,-9.524 13.428,13.428 0 0 1 9.525,-3.944 c 3.722,0 7.085,1.506 9.524,3.944 a 13.476,13.476 0 0 1 3.003,4.577 h 0.627 c -2.002,-5.32 -7.136,-9.104 -13.154,-9.104 -7.762,0 -14.052,6.291 -14.052,14.05 0,7.76 6.291,14.051 14.052,14.051 6.018,0 11.152,-3.786 13.154,-9.104 h -0.627 a 13.49,13.49 0 0 1 -3.003,4.578" id="path136"/>
  </g>
  <g id="g4788" transform="scale(9.9998571)" style="stroke-width:0.100001">
    <path style="fill:#fbcc04;fill-opacity:1;stroke-width:0.100001" d="m 23.807,0 -1.9,6.035 h -6.85 l 5.45,4.082 -2.179,6.485 5.368,-4.14 5.473,4.14 -1.987,-6.704 5.326,-3.959 h -6.8 z" id="path495"/>
    <path style="fill:#faa30d;fill-opacity:1;stroke-width:0.100001" d="m 32.508,5.94 h -4.687 l -4.125,6.522 5.473,4.14 -1.987,-6.704 5.326,-3.959 z" id="path134"/>
  </g>
  <g id="g7343" transform="scale(9.9998571)" style="stroke-width:0.100001">
    <g id="g7295" style="fill:#ffffff;stroke-width:0.100001">
      <path style="fill:#ffffff;stroke-width:0.100001" d="m 38.928,35.22 c -0.165,0.117 -0.173,0.134 -0.06,0.292 l 0.286,0.405 c 0.217,0.307 0.304,0.343 0.631,0.209 l 0.168,-0.075 c 0.076,0.006 0.184,0.154 0.148,0.221 a 12.938,12.938 0 0 0 -1.245,0.883 c -0.078,0.006 -0.183,-0.135 -0.16,-0.214 l 0.125,-0.134 c 0.236,-0.265 0.239,-0.36 0.024,-0.669 l -0.288,-0.405 c -0.11,-0.162 -0.122,-0.162 -0.3,-0.037 l -0.702,0.495 c -0.27,0.192 -0.444,0.347 -0.492,0.49 -0.053,0.15 -0.02,0.295 0.282,0.726 0.36,0.511 0.523,0.7 1.416,0.553 0.1,0 0.18,0.166 0.126,0.238 -0.325,0.195 -0.901,0.389 -1.118,0.42 a 64.847,64.847 0 0 0 -0.942,-1.374 l -0.54,-0.765 a 37.48,37.48 0 0 0 -0.739,-1.001 c 0.005,-0.073 0.143,-0.172 0.21,-0.145 l 0.237,0.246 c 0.222,0.24 0.29,0.247 0.832,-0.136 l 2.195,-1.549 c 0.535,-0.379 0.553,-0.444 0.417,-0.74 l -0.079,-0.17 c 0,-0.077 0.14,-0.169 0.215,-0.135 0.183,0.288 0.382,0.58 0.582,0.86 l 0.883,1.25 c 0.264,0.377 0.504,0.71 0.571,0.777 -0.088,0.072 -0.481,0.412 -0.857,0.722 -0.08,0.023 -0.189,-0.106 -0.179,-0.203 0.16,-0.21 0.279,-0.415 0.307,-0.55 0.032,-0.192 -0.02,-0.418 -0.224,-0.707 l -0.335,-0.47 c -0.135,-0.197 -0.15,-0.188 -0.366,-0.034 l -1.03,0.728 V 35.22 Z" id="path553"/>
      <path style="fill:#ffffff;stroke-width:0.100001" d="m 35.961,30.285 c 0.106,-0.135 0.128,-0.163 -0.006,-0.272 l -0.347,-0.281 c -0.41,-0.33 -0.707,-0.202 -1.208,0.076 -0.092,-0.021 -0.192,-0.12 -0.17,-0.22 0.436,-0.291 0.741,-0.618 0.957,-0.804 a 0.16,0.16 0 0 1 0.102,0.035 c 0.027,0.024 0.051,0.05 0.06,0.085 -0.05,0.118 -0.05,0.155 0.378,0.5 l 2.091,1.682 c 0.366,0.297 0.458,0.36 0.599,0.282 a 0.168,0.168 0 0 1 0.145,0.15 c -0.214,0.146 -0.618,0.567 -0.868,0.899 -0.07,0.025 -0.226,-0.086 -0.218,-0.154 0.196,-0.435 0.327,-0.763 -0.093,-1.1 l -0.338,-0.272 c -0.136,-0.109 -0.163,-0.106 -0.283,0.04 l -1.994,2.477 c -0.42,0.521 -0.42,0.587 -0.201,0.832 l 0.203,0.207 c 0.011,0.068 -0.09,0.193 -0.16,0.199 a 34.093,34.093 0 0 0 -1.851,-1.493 c -0.018,-0.07 0.086,-0.201 0.158,-0.197 l 0.277,0.176 c 0.282,0.165 0.35,0.154 0.77,-0.372 l 1.994,-2.475 z" id="path551"/>
      <path style="fill:#ffffff;stroke-width:0.100001" d="m 30.73,27.393 c 0.065,-0.162 0.079,-0.193 -0.082,-0.258 l -0.415,-0.167 c -0.487,-0.195 -0.733,0.015 -1.133,0.425 -0.093,0.008 -0.217,-0.056 -0.223,-0.16 0.327,-0.405 0.525,-0.806 0.678,-1.048 a 0.18,0.18 0 0 1 0.105,0.004 0.154,0.154 0 0 1 0.083,0.065 c -0.011,0.125 -0.003,0.16 0.506,0.366 l 2.492,0.997 c 0.44,0.174 0.543,0.21 0.659,0.093 a 0.177,0.177 0 0 1 0.094,0.015 c 0.041,0.016 0.078,0.062 0.083,0.086 -0.16,0.202 -0.422,0.723 -0.563,1.111 -0.053,0.048 -0.238,-0.012 -0.254,-0.077 0.056,-0.475 0.09,-0.828 -0.41,-1.027 l -0.403,-0.162 c -0.164,-0.063 -0.186,-0.05 -0.26,0.124 l -1.18,2.953 c -0.25,0.622 -0.225,0.683 0.053,0.852 l 0.253,0.14 c 0.034,0.061 -0.03,0.213 -0.091,0.233 a 30.824,30.824 0 0 0 -2.21,-0.883 c -0.035,-0.062 0.024,-0.217 0.095,-0.235 l 0.318,0.087 c 0.317,0.075 0.375,0.042 0.622,-0.58 l 1.182,-2.951 z" id="path549"/>
      <path style="fill:#ffffff;stroke-width:0.100001" d="m 25.304,27.535 c -0.023,0.202 -0.014,0.216 0.178,0.235 l 0.496,0.051 c 0.372,0.037 0.455,-0.004 0.567,-0.342 l 0.057,-0.176 c 0.053,-0.052 0.235,-0.035 0.264,0.035 a 9.823,9.823 0 0 0 -0.098,0.76 18,18 0 0 0 -0.058,0.76 c -0.04,0.061 -0.22,0.05 -0.263,-0.019 L 26.432,28.655 C 26.381,28.303 26.31,28.239 25.937,28.201 l -0.493,-0.049 c -0.195,-0.021 -0.204,-0.013 -0.222,0.201 l -0.083,0.855 c -0.035,0.33 -0.032,0.562 0.044,0.693 0.081,0.138 0.212,0.21 0.736,0.262 0.624,0.063 0.87,0.064 1.346,-0.706 0.068,-0.073 0.24,-0.027 0.262,0.062 -0.065,0.37 -0.296,0.934 -0.417,1.118 a 55.717,55.717 0 0 0 -1.657,-0.186 l -0.93,-0.093 a 38.595,38.595 0 0 0 -1.237,-0.1 c -0.056,-0.05 -0.037,-0.222 0.024,-0.252 l 0.34,-0.018 c 0.33,-0.011 0.375,-0.056 0.444,-0.718 l 0.268,-2.675 c 0.067,-0.654 0.026,-0.71 -0.292,-0.797 l -0.173,-0.056 c -0.06,-0.048 -0.04,-0.215 0.04,-0.251 0.337,0.05 0.684,0.093 1.029,0.127 l 1.52,0.152 c 0.46,0.046 0.87,0.08 0.963,0.076 -0.002,0.114 -0.002,0.636 -0.016,1.118 -0.037,0.077 -0.203,0.074 -0.27,0.003 -0.054,-0.26 -0.133,-0.485 -0.213,-0.595 -0.124,-0.149 -0.328,-0.257 -0.685,-0.29 l -0.571,-0.058 c -0.24,-0.025 -0.24,-0.01 -0.267,0.255 l -0.122,1.256 z" id="path547"/>
      <path style="fill:#ffffff;stroke-width:0.100001" d="m 21.494,28.674 c -0.209,0.924 -0.3,1.52 -0.395,1.946 a 0.453,0.453 0 0 1 -0.238,0.102 0.315,0.315 0 0 1 -0.198,-0.023 c -0.114,-0.179 -0.3,-0.53 -0.444,-0.755 l -1.666,-2.685 c -0.419,-0.664 -0.4,-0.637 -0.757,-0.663 l -0.204,-0.012 c -0.072,-0.07 -0.076,-0.2 -0.02,-0.248 0.365,-0.057 0.603,-0.083 0.969,-0.15 0.33,-0.057 0.63,-0.12 1.063,-0.212 0.065,0.032 0.08,0.169 0.048,0.24 l -0.203,0.08 c -0.121,0.053 -0.166,0.104 -0.152,0.166 0.01,0.057 0.179,0.335 0.421,0.73 l 0.915,1.487 c 0.144,0.242 0.244,0.394 0.314,0.506 0.041,-0.13 0.089,-0.34 0.137,-0.565 l 0.14,-0.715 c 0.103,-0.48 0.257,-1.327 0.296,-1.581 0.027,-0.147 0.033,-0.229 0.027,-0.27 -0.01,-0.05 -0.037,-0.081 -0.215,-0.087 l -0.216,-0.012 c -0.067,-0.045 -0.093,-0.195 -0.014,-0.245 0.337,-0.047 0.605,-0.088 0.879,-0.135 0.238,-0.043 0.453,-0.09 0.654,-0.14 0.064,0.018 0.099,0.187 0.061,0.24 l -0.182,0.069 c -0.191,0.078 -0.28,0.153 -0.346,0.318 -0.113,0.262 -0.228,0.677 -0.373,1.3 l -0.299,1.32 z" id="path545"/>
      <path id="path541" style="fill:#ffffff;stroke-width:0.100001" d="m 15.693359,27.365234 c -0.319019,0.01092 -0.775484,0.149188 -1.255859,0.382813 -0.614999,0.299 -1.115938,0.569891 -1.585938,0.837891 -0.063,0.069 0.01766,0.234374 0.09766,0.234374 l 0.189453,-0.06055 c 0.29,-0.093 0.337391,-0.02895 0.65039,0.623046 l 1.113282,2.296876 c 0.286999,0.598999 0.269859,0.662468 0.0059,0.855468 l -0.160156,0.117188 c -0.037,0.057 0.03442,0.214515 0.107422,0.228515 0.330999,-0.176999 0.614453,-0.323515 0.939453,-0.478515 0.312,-0.151 0.612938,-0.28936 0.960937,-0.44336 0.029,-0.059 -0.04542,-0.214609 -0.107421,-0.224609 l -0.191407,0.05078 c -0.316999,0.089 -0.377969,0.0598 -0.667969,-0.533203 l -0.384765,-0.800781 c -0.062,-0.13 -0.05312,-0.148766 0.171875,-0.259766 0.161,-0.078 0.290172,-0.0775 0.451172,0.0625 a 8.851,8.851 0 0 0 0.996094,0.761719 c 0.510999,0.331 0.989891,0.361172 1.58789,0.07617 0.2,-0.1 0.404328,-0.213641 0.486328,-0.306641 0.01,-0.055 -0.03637,-0.15325 -0.109375,-0.15625 -0.097,0.038 -0.287391,0.08339 -0.52539,0.02539 -0.437,-0.113 -0.937111,-0.47272 -1.78711,-1.136719 -0.066,-0.055 -0.08706,-0.0942 -0.03906,-0.158203 0.228,-0.294 0.499703,-0.726641 0.220703,-1.306641 -0.199,-0.413999 -0.55311,-0.645593 -1.03711,-0.683593 -0.03962,-0.0038 -0.08138,-0.0055 -0.126953,-0.0039 z m -0.728515,0.578125 c 0.374296,-0.01734 0.7245,0.212391 0.9375,0.650391 0.182,0.384 0.159515,0.652453 0.103515,0.814453 -0.064,0.185 -0.174297,0.306922 -0.404297,0.419922 -0.383999,0.186 -0.41839,0.176219 -0.52539,-0.05078 L 14.464844,28.51172 c -0.136,-0.318 -0.145953,-0.339797 0.123047,-0.466797 0.126249,-0.062 0.252187,-0.09578 0.376953,-0.101563 z"/>
      <path style="fill:#ffffff;stroke-width:0.100001" d="m 10.878,32.502 c 0.134,0.147 0.147,0.154 0.293,0.025 l 0.37,-0.335 c 0.278,-0.25 0.302,-0.34 0.133,-0.65 L 11.58,31.383 c 0,-0.076 0.13,-0.198 0.202,-0.173 0.141,0.18 0.312,0.378 0.496,0.582 0.183,0.203 0.36,0.391 0.524,0.552 0.02,0.073 -0.11,0.201 -0.192,0.184 l -0.146,-0.11 c -0.293,-0.201 -0.387,-0.193 -0.666,0.06 l -0.37,0.333 c -0.146,0.128 -0.146,0.14 0,0.301 l 0.573,0.636 c 0.222,0.247 0.398,0.4 0.543,0.432 0.16,0.035 0.3,-0.014 0.69,-0.365 0.465,-0.42 0.63,-0.601 0.382,-1.471 -0.01,-0.097 0.145,-0.197 0.22,-0.15 0.229,0.295 0.493,0.845 0.547,1.058 a 40.33,40.33 0 0 0 -1.249,1.098 l -0.696,0.627 c -0.261,0.23 -0.515,0.473 -0.906,0.847 -0.072,0.006 -0.188,-0.122 -0.17,-0.188 l 0.216,-0.265 c 0.214,-0.25 0.209,-0.315 -0.233,-0.808 l -1.8,-1.997 C 9.101,32.078 9.041,32.071 8.762,32.244 l -0.158,0.091 c -0.077,0.012 -0.188,-0.115 -0.16,-0.197 0.26,-0.215 0.53,-0.446 0.784,-0.677 l 1.14,-1.024 c 0.34,-0.308 0.639,-0.59 0.702,-0.662 0.082,0.082 0.466,0.433 0.812,0.768 0.038,0.079 -0.076,0.2 -0.176,0.2 -0.228,-0.135 -0.447,-0.226 -0.585,-0.24 -0.19,-0.01 -0.413,0.07 -0.672,0.309 l -0.43,0.386 c -0.177,0.157 -0.168,0.167 0.01,0.366 l 0.848,0.938 z" id="path539"/>
      <path style="fill:#ffffff;stroke-width:0.100001" d="m 10.414,37.667 c -0.368,0.552 -0.75,0.789 -0.907,0.868 -0.21,0.027 -0.691,-0.185 -1.101,-0.458 -0.052,-0.093 0.037,-0.235 0.135,-0.24 0.472,0.142 1.29,0.11 1.63,-0.399 C 10.469,36.993 10.301,36.586 10,36.385 9.515,36.058 8.923,36.325 8.502,36.562 7.998,36.849 7.326,37.076 6.726,36.683 6.05,36.228 5.931,35.395 6.516,34.529 6.646,34.33 6.836,34.101 7.07,33.911 7.147,33.847 7.194,33.8 7.251,33.738 c 0.165,0.04 0.53,0.198 0.931,0.468 0.05,0.075 -0.04,0.231 -0.137,0.243 -0.373,-0.103 -0.984,-0.137 -1.271,0.293 -0.268,0.395 -0.153,0.784 0.144,0.987 0.277,0.184 0.692,0.105 1.05,-0.088 l 0.473,-0.255 c 0.446,-0.239 1.111,-0.48 1.77,-0.038 0.738,0.496 0.811,1.418 0.204,2.324" id="path537"/>
    </g>
    <g id="g7314" style="fill:#ffffff;stroke-width:0.100001">
      <path id="path527" style="fill:#ffffff;stroke-width:0.100001" d="m 39.847656,53.197266 c -0.484854,0.01264 -0.920922,0.207594 -1.162109,0.683593 -0.454,0.897999 0.304157,1.76036 1.160156,2.19336 0.894999,0.452999 2.002938,0.537624 2.460938,-0.359375 0.451999,-0.896999 -0.274111,-1.745313 -1.16211,-2.195313 -0.402187,-0.203906 -0.869062,-0.333423 -1.296875,-0.322265 z m -0.552734,0.648437 c 0.423609,6.53e-4 1.084906,0.304688 1.441406,0.484375 0.49136,0.246679 1.522907,0.835965 1.316406,1.25586 -0.215796,0.417372 -1.301503,-0.06961 -1.794922,-0.320313 -0.492999,-0.249 -1.529359,-0.83386 -1.318359,-1.255859 0.06047,-0.118125 0.189709,-0.164318 0.355469,-0.164063 z"/>
      <path style="fill:#ffffff;stroke-width:0.100001" d="m 38.907,56.735 c 0.584,0.47 0.884,1.135 0.933,1.85 0.048,0.698 -0.187,1.572 -0.498,1.988 -0.072,0.04 -0.176,-0.038 -0.173,-0.108 0.525,-1.13 0.105,-2.27 -0.78,-2.987 -0.37,-0.295 -1.157,-0.754 -1.483,-0.347 -0.185,0.225 -0.013,0.577 0.279,0.81 0.391,0.322 0.939,0.498 1.264,0.213 0.058,-0.053 0.079,-0.081 0.117,-0.125 0.034,-0.011 0.09,0.017 0.122,0.053 0.02,0.152 -0.076,0.4 -0.235,0.599 -0.364,0.453 -1.03,0.522 -1.522,0.13 -0.617,-0.499 -0.677,-1.328 -0.193,-1.925 0.593,-0.741 1.497,-0.692 2.169,-0.148" id="path525"/>
      <path id="path519" style="fill:#ffffff;stroke-width:0.100001" d="m 35.160156,58.964844 c -0.270999,0.0024 -0.561031,0.117844 -0.832031,0.339844 -0.599999,0.484999 -0.69764,1.159625 -0.306641,1.640624 0.272,0.333 0.67747,0.393407 1.105469,0.316407 -0.259,0.453999 -0.300234,0.924688 0.0098,1.304687 0.442999,0.541 1.13436,0.386687 1.693359,-0.07031 0.760999,-0.617 0.814547,-1.259657 0.435547,-1.722656 -0.38,-0.472 -0.87286,-0.494813 -1.380859,-0.382813 0.157999,-0.325 0.259281,-0.750985 -0.01172,-1.083984 -0.191,-0.2335 -0.441891,-0.344172 -0.712891,-0.341797 z M 34.779297,59.4375 c 0.175131,-4.38e-4 0.375518,0.08604 0.541015,0.289062 0.189,0.23 0.268313,0.499891 0.195313,0.712891 -0.531998,0.154 -0.858922,0.08542 -1.044922,-0.142578 -0.211,-0.259 -0.194562,-0.582672 0.02344,-0.763672 0.06703,-0.05363 0.154218,-0.08716 0.25,-0.09375 0.01143,-7.86e-4 0.02348,-0.0019 0.03516,-0.002 z m 1.259765,1.683594 c 0.289795,-8.21e-4 0.532813,0.08734 0.726563,0.324218 h 0.002 c 0.228,0.279 0.170936,0.596532 -0.03906,0.769532 -0.315,0.252998 -0.730235,0.138265 -0.990235,-0.177735 -0.218,-0.270998 -0.299531,-0.516031 -0.269531,-0.832031 0.206625,-0.05063 0.396437,-0.08349 0.570312,-0.08398 z"/>
      <path style="fill:#ffffff;stroke-width:0.100001" d="m 33.908,63.465 c 0.248,0.435 0.308,0.468 0.584,0.341 l 0.23,-0.111 c 0.069,0.008 0.143,0.15 0.094,0.197 -0.197,0.098 -0.524,0.277 -0.857,0.469 -0.358,0.201 -0.678,0.39 -0.866,0.51 -0.065,0.014 -0.15,-0.123 -0.118,-0.182 l 0.21,-0.14 c 0.253,-0.174 0.256,-0.246 0.012,-0.677 L 32.192,62.107 C 31.993,61.753 31.92,61.679 31.671,61.785 l -0.272,0.106 c -0.063,0.003 -0.142,-0.125 -0.118,-0.181 a 6.89,6.89 0 0 0 0.607,-0.543 c 0.198,-0.207 0.345,-0.425 0.382,-0.447 a 0.089,0.089 0 0 1 0.107,0.017 c 0.063,0.13 0.198,0.381 0.351,0.653 l 1.176,2.075 z" id="path517"/>
      <path style="fill:#ffffff;stroke-width:0.100001" d="m 26.416,64.389 c 0.028,0.172 0.038,0.182 0.203,0.156 l 0.422,-0.069 c 0.32,-0.053 0.38,-0.105 0.4,-0.412 l 0.004,-0.16 c 0.034,-0.054 0.188,-0.078 0.227,-0.028 0.02,0.197 0.05,0.42 0.089,0.652 0.032,0.231 0.079,0.452 0.12,0.645 -0.02,0.06 -0.172,0.09 -0.222,0.044 L 27.6,65.069 c -0.113,-0.286 -0.19,-0.322 -0.511,-0.27 l -0.421,0.066 c -0.162,0.028 -0.17,0.037 -0.14,0.22 l 0.117,0.728 c 0.048,0.281 0.105,0.474 0.196,0.566 0.096,0.098 0.223,0.129 0.67,0.056 0.531,-0.088 0.734,-0.14 0.958,-0.887 0.04,-0.072 0.198,-0.075 0.236,-0.006 0.026,0.321 -0.039,0.84 -0.098,1.02 -0.325,0.042 -0.915,0.13 -1.418,0.212 l -0.796,0.131 c -0.294,0.045 -0.592,0.103 -1.053,0.189 -0.049,-0.028 -0.076,-0.176 -0.032,-0.214 l 0.28,-0.089 c 0.269,-0.08 0.303,-0.13 0.207,-0.694 L 25.427,63.812 C 25.335,63.257 25.292,63.218 25.005,63.215 L 24.847,63.21 c -0.063,-0.03 -0.076,-0.171 -0.024,-0.218 0.293,-0.035 0.595,-0.076 0.887,-0.125 l 1.299,-0.21 c 0.391,-0.063 0.739,-0.128 0.816,-0.152 0.023,0.094 0.138,0.53 0.234,0.936 -0.014,0.07 -0.152,0.107 -0.222,0.062 C 27.738,63.299 27.62,63.13 27.526,63.057 27.39,62.958 27.197,62.915 26.893,62.965 l -0.49,0.08 c -0.198,0.035 -0.197,0.046 -0.162,0.271 l 0.176,1.072 h -0.001 z" id="path515"/>
      <path style="fill:#ffffff;stroke-width:0.100001" d="m 23.054,65.538 c -0.375,0.725 -0.582,1.201 -0.75,1.538 a 0.429,0.429 0 0 1 -0.218,0.03 0.259,0.259 0 0 1 -0.166,-0.061 c -0.056,-0.174 -0.134,-0.507 -0.205,-0.726 l -0.811,-2.596 c -0.209,-0.642 -0.199,-0.617 -0.49,-0.712 l -0.167,-0.058 c -0.045,-0.07 -0.022,-0.18 0.041,-0.207 0.316,0.03 0.514,0.059 0.84,0.08 0.284,0.024 0.551,0.037 0.929,0.052 0.046,0.041 0.034,0.158 -0.01,0.21 l -0.189,0.024 c -0.115,0.015 -0.162,0.05 -0.165,0.104 -0.002,0.05 0.078,0.321 0.198,0.703 l 0.439,1.429 c 0.066,0.236 0.124,0.384 0.155,0.493 a 7.15,7.15 0 0 0 0.232,-0.444 l 0.275,-0.565 a 30.2,30.2 0 0 0 0.583,-1.257 0.82,0.82 0 0 0 0.078,-0.217 c 0.009,-0.045 -0.01,-0.076 -0.157,-0.118 l -0.18,-0.058 c -0.044,-0.05 -0.033,-0.181 0.046,-0.205 0.287,0.036 0.524,0.056 0.76,0.074 0.206,0.017 0.396,0.026 0.573,0.026 0.05,0.026 0.048,0.176 0,0.21 l -0.164,0.018 c -0.18,0.024 -0.27,0.069 -0.36,0.191 -0.149,0.193 -0.332,0.514 -0.587,1.001 l -0.53,1.037 z" id="path513"/>
      <path style="fill:#ffffff;stroke-width:0.100001" d="m 17.823,63.627 c -0.055,0.166 -0.05,0.18 0.105,0.231 l 0.409,0.133 c 0.308,0.098 0.386,0.078 0.542,-0.186 l 0.077,-0.137 c 0.058,-0.034 0.204,0.014 0.217,0.078 -0.077,0.185 -0.146,0.394 -0.227,0.619 -0.067,0.225 -0.13,0.44 -0.18,0.63 -0.048,0.046 -0.193,0.004 -0.22,-0.065 l 0.017,-0.157 C 18.592,64.469 18.543,64.4 18.235,64.3 L 17.83,64.17 c -0.162,-0.051 -0.17,-0.049 -0.224,0.127 l -0.23,0.706 c -0.088,0.27 -0.126,0.469 -0.088,0.591 0.043,0.131 0.142,0.214 0.573,0.354 0.512,0.167 0.72,0.215 1.26,-0.348 0.066,-0.05 0.208,0.022 0.208,0.1 -0.12,0.298 -0.42,0.732 -0.552,0.862 a 43.243,43.243 0 0 0 -1.358,-0.457 l -0.772,-0.249 a 23.244,23.244 0 0 0 -1.016,-0.31 c -0.039,-0.053 0.008,-0.195 0.067,-0.208 l 0.29,0.05 c 0.277,0.048 0.327,0.02 0.5,-0.522 l 0.715,-2.205 c 0.173,-0.536 0.15,-0.588 -0.1,-0.722 L 16.965,61.86 c -0.043,-0.05 0.01,-0.184 0.08,-0.201 0.274,0.101 0.561,0.201 0.845,0.293 l 1.25,0.405 c 0.377,0.123 0.715,0.226 0.793,0.237 -0.02,0.097 -0.118,0.535 -0.22,0.94 -0.043,0.058 -0.182,0.027 -0.225,-0.046 C 19.49,63.26 19.465,63.056 19.415,62.95 19.342,62.8 19.187,62.673 18.901,62.578 l -0.473,-0.152 c -0.197,-0.065 -0.201,-0.055 -0.27,0.168 l -0.335,1.03 z" id="path511"/>
      <path style="fill:#ffffff;stroke-width:0.100001" d="m 14.546,63.851 c -0.22,0.34 -0.43,0.669 -0.53,0.85 -0.074,0.039 -0.257,0.003 -0.386,-0.078 -0.003,-0.003 -0.005,-0.38 -0.06,-0.84 l -0.25,-2.266 c -0.06,-0.568 -0.096,-0.896 -0.14,-1.034 -0.061,0.035 -0.116,0.124 -0.242,0.317 l -0.647,1.014 c -0.274,0.423 -0.502,0.83 -0.531,1.01 -0.025,0.137 0.077,0.247 0.194,0.358 l 0.131,0.116 c 0.018,0.067 -0.063,0.17 -0.111,0.181 -0.277,-0.19 -0.485,-0.33 -0.694,-0.46 a 10.6,10.6 0 0 0 -0.596,-0.358 c -0.015,-0.052 0.05,-0.169 0.116,-0.186 l 0.1,0.043 c 0.162,0.059 0.28,0.091 0.397,0.012 0.143,-0.108 0.412,-0.49 0.685,-0.91 l 0.848,-1.328 c 0.184,-0.286 0.24,-0.37 0.248,-0.468 0.02,-0.111 -0.024,-0.214 -0.186,-0.364 l -0.131,-0.117 c -0.011,-0.064 0.077,-0.186 0.14,-0.168 0.237,0.166 0.495,0.337 0.709,0.475 0.18,0.114 0.335,0.206 0.45,0.264 -0.098,0.27 -0.015,0.883 0.1,1.743 l 0.107,0.8 c 0.064,0.421 0.09,0.697 0.134,0.894 0.057,-0.04 0.111,-0.128 0.176,-0.22 l 0.458,-0.723 c 0.269,-0.424 0.498,-0.83 0.53,-1.008 0.025,-0.141 -0.068,-0.242 -0.194,-0.36 l -0.128,-0.112 c -0.012,-0.069 0.066,-0.172 0.117,-0.183 0.276,0.192 0.479,0.327 0.692,0.462 0.195,0.125 0.385,0.24 0.594,0.359 0.014,0.052 -0.045,0.17 -0.116,0.183 l -0.104,-0.044 c -0.158,-0.056 -0.273,-0.087 -0.394,-0.008 -0.145,0.104 -0.417,0.481 -0.687,0.905 l -0.797,1.25 h -0.002 z" id="path509"/>
      <path style="fill:#ffffff;stroke-width:0.100001" d="m 10.127,58.56 c -0.126,0.12 -0.133,0.132 -0.022,0.256 l 0.292,0.315 c 0.222,0.236 0.301,0.257 0.564,0.103 l 0.136,-0.083 c 0.064,0 0.174,0.111 0.15,0.173 a 8.373,8.373 0 0 0 -0.491,0.435 c -0.173,0.16 -0.334,0.317 -0.469,0.46 -0.06,0.018 -0.172,-0.092 -0.162,-0.164 l 0.092,-0.128 c 0.174,-0.25 0.16,-0.335 -0.058,-0.572 L 9.869,59.041 C 9.755,58.917 9.746,58.917 9.611,59.044 l -0.54,0.5 c -0.209,0.196 -0.34,0.35 -0.367,0.476 -0.025,0.134 0.017,0.255 0.324,0.586 0.37,0.397 0.525,0.538 1.274,0.312 0.085,-0.01 0.17,0.12 0.136,0.189 -0.257,0.2 -0.73,0.435 -0.907,0.483 A 42.6,42.6 0 0 0 8.568,60.528 L 8.016,59.937 C 7.815,59.717 7.605,59.502 7.281,59.168 7.271,59.106 7.382,59.006 7.44,59.02 l 0.23,0.185 c 0.212,0.178 0.273,0.176 0.69,-0.21 l 1.699,-1.574 c 0.413,-0.386 0.418,-0.444 0.262,-0.682 l -0.082,-0.134 c -0.006,-0.064 0.101,-0.159 0.173,-0.139 0.186,0.222 0.387,0.45 0.592,0.667 l 0.897,0.965 c 0.269,0.293 0.515,0.545 0.578,0.597 -0.07,0.07 -0.366,0.408 -0.65,0.712 -0.066,0.031 -0.176,-0.067 -0.176,-0.149 0.114,-0.198 0.191,-0.389 0.198,-0.505 0.007,-0.168 -0.064,-0.354 -0.269,-0.578 l -0.34,-0.364 c -0.14,-0.148 -0.148,-0.14 -0.316,0.017 l -0.797,0.735 z" id="path507"/>
      <path style="fill:#ffffff;stroke-width:0.100001" d="m 6.918,57.464 c -0.231,0.123 -0.331,0.192 -0.3,0.31 C 6.609,57.808 6.514,57.852 6.48,57.826 6.412,57.743 6.32,57.608 6.187,57.488 A 4.78,4.78 0 0 1 5.535,56.594 3.067,3.067 0 0 1 5.145,55.416 c -0.087,-0.778 0.279,-1.542 1.066,-1.967 0.68,-0.368 1.444,-0.389 2.165,0.069 0.404,0.261 0.728,0.654 0.983,1.12 0.328,0.603 0.358,0.976 0.454,1.15 -0.155,0.104 -0.537,0.316 -0.838,0.55 C 8.905,56.351 8.82,56.206 8.852,56.139 9.268,55.686 9.338,55.204 9.066,54.698 8.595,53.832 7.648,53.799 6.788,54.265 c -0.784,0.424 -1.1,0.942 -1.149,1.428 -0.035,0.355 0.086,0.658 0.2,0.86 0.166,0.309 0.262,0.341 0.615,0.151 l 0.343,-0.186 c 0.295,-0.16 0.31,-0.21 0.205,-0.493 L 6.908,55.77 c 0,-0.078 0.125,-0.146 0.19,-0.105 0.2,0.394 0.34,0.663 0.483,0.932 0.138,0.262 0.29,0.524 0.403,0.705 -0.008,0.061 -0.136,0.131 -0.19,0.103 L 7.702,57.291 C 7.579,57.146 7.51,57.141 7.222,57.3 l -0.307,0.167 z" id="path505"/>
    </g>
    <g id="g7299" style="fill:#ffffff;stroke-width:0.100001">
      <path style="fill:#ffffff;stroke-width:0.100001" d="m 45.062,43.21 c 0,0.169 0.027,0.912 0.11,1.45 -0.04,0.111 -0.288,0.149 -0.353,0.065 -0.25,-0.862 -0.845,-1.327 -1.745,-1.327 -1.027,0 -2.139,0.883 -2.139,2.729 0,1.846 1.073,2.843 2.184,2.843 1.111,0 1.645,-0.809 1.898,-1.44 0.074,-0.075 0.296,-0.046 0.35,0.066 -0.064,0.687 -0.221,1.244 -0.35,1.457 -0.505,0.138 -1.164,0.346 -1.885,0.346 -0.912,0 -1.837,-0.215 -2.5,-0.708 -0.665,-0.511 -1.176,-1.283 -1.176,-2.433 0,-1.15 0.483,-1.932 1.122,-2.461 0.659,-0.548 1.605,-0.825 2.572,-0.825 0.968,0 1.634,0.22 1.915,0.239" id="path503"/>
      <path style="fill:#ffffff;stroke-width:0.100001" d="m 36.382,45.607 c 0,0.251 0.008,0.28 0.258,0.28 h 0.715 c 0.494,0 0.583,-0.067 0.69,-0.522 l 0.044,-0.222 c 0.064,-0.083 0.3,-0.075 0.356,0.008 a 14.437,14.437 0 0 0 0,1.96 c -0.058,0.083 -0.293,0.095 -0.356,0.011 L 38.045,46.897 C 37.938,46.454 37.849,46.38 37.355,46.38 H 36.64 c -0.25,0 -0.258,0.028 -0.258,0.28 v 1.252 c 0,0.863 0.055,0.928 0.47,0.993 l 0.347,0.048 c 0.063,0.056 0.063,0.267 0,0.326 a 42.735,42.735 0 0 0 -1.479,-0.03 c -0.446,0 -0.887,0.01 -1.446,0.03 -0.075,-0.057 -0.075,-0.27 0,-0.326 l 0.307,-0.048 c 0.417,-0.063 0.473,-0.13 0.473,-0.993 V 44.46 c 0,-0.865 -0.056,-0.928 -0.473,-1.011 l -0.186,-0.028 c -0.081,-0.058 -0.081,-0.288 0.017,-0.325 0.401,0.016 0.865,0.028 1.308,0.028 h 1.953 c 0.596,0 1.122,-0.012 1.25,-0.029 0,0.158 0,0.827 0.019,1.448 -0.035,0.103 -0.24,0.111 -0.35,0.038 -0.104,-0.379 -0.178,-0.601 -0.27,-0.724 -0.158,-0.196 -0.436,-0.305 -0.91,-0.305 H 36.69 c -0.307,0 -0.307,0.018 -0.307,0.38 v 1.68 z" id="path138"/>
    </g>
    <g id="g6521" style="stroke-width:0.100001">
      <path style="fill:#ffffff;stroke-width:0.100001" d="m 25.107,43.24 c -1.3,-0.464 -2.646,-0.944 -3.694,-1.719 -0.561,-0.418 -1.442,-1.33 -0.983,-2.731 0.358,-1.086 1.57,-2.257 3.377,-2.255 h 0.122 c 2.259,0.07 3.55,1.865 4.516,3.61 l 0.872,1.582 0.406,-1.762 0.68,-2.944 0.103,-0.445 -0.364,-0.27 a 9.775,9.775 0 0 0 -5.86,-1.928 c -2.46,0 -4.761,0.907 -6.313,2.49 -1.323,1.35 -2,3.078 -1.964,4.995 0.037,1.676 0.624,3.205 1.66,4.315 0.876,0.942 2.474,1.588 4.158,2.27 2.198,0.89 4.692,1.901 4.96,3.491 a 2.737,2.737 0 0 1 -0.543,2.176 c -0.822,1.036 -2.056,1.256 -2.947,1.256 -3.38,0 -5.598,-2.352 -6.369,-5.623 l -0.173,1.2 -0.623,4.404 -0.067,0.46 0.396,0.234 c 1.785,1.056 3.86,1.614 6.002,1.614 2.749,0 5.26,-0.938 6.897,-2.57 1.29,-1.3 1.975,-2.979 1.971,-4.855 -0.006,-4.784 -3.307,-5.962 -6.22,-6.995" id="path531"/>
      <path style="fill:#821636;fill-opacity:1;stroke-width:0.100001" d="m 29.105,54.844 c -1.567,1.567 -3.986,2.47 -6.647,2.47 -2.08,0 -4.093,-0.54 -5.826,-1.565 l -0.205,-0.117 0.034,-0.23 0.456,-3.176 0.17,-1.142 c 0.66,2.888 3.483,4.633 6.203,4.633 0.968,0 2.31,-0.24 3.222,-1.387 a 3.092,3.092 0 0 0 0.607,-2.446 c -0.3,-1.78 -2.773,-2.783 -5.172,-3.754 -1.648,-0.667 -3.205,-1.298 -4.033,-2.188 -0.977,-1.044 -1.532,-2.495 -1.563,-4.083 -0.04,-1.825 0.607,-3.464 1.859,-4.748 1.49,-1.516 3.697,-2.385 6.071,-2.385 2.055,0 4.01,0.644 5.65,1.863 l 0.182,0.135 -0.049,0.22 -0.68,2.947 -0.204,0.878 -0.435,-0.788 c -1.008,-1.833 -2.374,-3.716 -4.809,-3.79 h -0.13 c -1.697,0 -3.22,1.022 -3.706,2.49 -0.386,1.176 0.016,2.31 1.11,3.119 1.086,0.804 2.456,1.293 3.782,1.764 2.945,1.048 5.985,2.132 5.987,6.672 0.005,1.784 -0.645,3.376 -1.874,4.608" id="path533"/>
      <path style="fill:#ffffff;stroke-width:0.100001" d="m 29.692,36.865 -0.68,2.947 c -0.978,-1.773 -2.44,-3.885 -5.1,-3.966 -3.63,-0.109 -5.968,3.996 -2.947,6.233 3.556,2.631 9.623,1.86 9.636,8.16 0.007,6.247 -8.222,8.522 -13.831,5.212 l 0.459,-3.171 c 0.99,3.333 7.082,5.33 9.518,2.267 a 3.455,3.455 0 0 0 0.68,-2.722 c -0.546,-3.262 -7.339,-4.018 -9.293,-6.12 -0.873,-0.928 -1.44,-2.29 -1.476,-3.853 -0.122,-6.1 7.792,-8.873 13.034,-4.987 z" id="path140"/>
    </g>
  </g>
  <defs id="defs149"/>
</svg>