<?xml version="1.0" encoding="UTF-8" standalone="no"?>
<!-- Created with Inkscape (http://www.inkscape.org/) -->

<svg
   xmlns:dc="http://purl.org/dc/elements/1.1/"
   xmlns:cc="http://creativecommons.org/ns#"
   xmlns:rdf="http://www.w3.org/1999/02/22-rdf-syntax-ns#"
   xmlns:svg="http://www.w3.org/2000/svg"
   xmlns="http://www.w3.org/2000/svg"
   xmlns:sodipodi="http://sodipodi.sourceforge.net/DTD/sodipodi-0.dtd"
   xmlns:inkscape="http://www.inkscape.org/namespaces/inkscape"
   width="79.374969mm"
   height="79.375008mm"
   viewBox="0 0 79.374969 79.375008"
   version="1.1"
   id="svg178671"
   inkscape:version="0.92.4 (5da689c313, 2019-01-14)"
   sodipodi:docname="FC Winterthur logo.svg">
  <defs
     id="defs178665" />
  <sodipodi:namedview
     id="base"
     pagecolor="#ffffff"
     bordercolor="#666666"
     borderopacity="1.0"
     inkscape:pageopacity="0.0"
     inkscape:pageshadow="2"
     inkscape:zoom="0.35"
     inkscape:cx="228.57137"
     inkscape:cy="107.14287"
     inkscape:document-units="mm"
     inkscape:current-layer="layer1"
     showgrid="false"
     inkscape:window-width="1366"
     inkscape:window-height="705"
     inkscape:window-x="-8"
     inkscape:window-y="-8"
     inkscape:window-maximized="1" />
  <metadata
     id="metadata178668">
    <rdf:RDF>
      <cc:Work
         rdf:about="">
        <dc:format>image/svg+xml</dc:format>
        <dc:type
           rdf:resource="http://purl.org/dc/dcmitype/StillImage" />
        <dc:title></dc:title>
      </cc:Work>
    </rdf:RDF>
  </metadata>
  <g
     inkscape:label="Layer 1"
     inkscape:groupmode="layer"
     id="layer1"
     transform="translate(-32.127991,-97.806545)">
    <path
       inkscape:connector-curvature="0"
       id="path168095"
       d="m 70.627411,97.806545 h 2.368367 c 12.059223,0.621248 20.507668,5.264745 26.867299,11.632135 6.367383,6.36744 11.010923,14.80807 11.639883,26.86733 v 2.36835 c -0.62896,12.06698 -5.2725,20.50767 -11.639883,26.87505 -6.367402,6.35961 -14.800322,11.00317 -26.867299,11.63214 H 70.627411 C 58.568198,176.55258 50.127518,171.90902 43.760128,165.54941 37.392737,159.18203 32.749199,150.74134 32.127991,138.67436 v -2.36835 c 0.06987,-1.53748 0.201898,-3.06725 0.411573,-4.49603 1.397721,-9.60543 5.707357,-16.89688 11.220586,-22.40235 6.406215,-6.41399 14.909015,-10.964341 26.867283,-11.601085 m -8.3009,2.298475 c -2.616844,0.66007 -4.946375,1.52977 -7.105079,2.5392 -4.441645,2.07331 -7.990299,4.89978 -11.189527,8.09899 -1.622908,1.62297 -3.043924,3.40117 -4.325166,5.31913 -1.226887,1.84808 -2.438245,3.98354 -3.393356,6.24319 -1.801506,4.2708 -3.34676,9.98589 -3.059454,16.16693 0.155298,3.14484 0.481447,5.91699 1.133709,8.51057 1.93351,7.67969 5.792771,13.44138 10.638202,18.28684 3.168169,3.16816 7.097314,5.74619 11.601078,7.68747 4.402821,1.89468 9.94711,3.38556 16.128148,3.09052 3.098273,-0.14764 5.901486,-0.48122 8.510564,-1.13374 7.741811,-1.91796 13.425868,-5.76947 18.294594,-10.63819 4.752254,-4.75226 8.324204,-11.05755 10.016984,-18.90804 0.57464,-2.64012 0.97066,-5.69181 0.82312,-8.82116 -0.58238,-12.2456 -5.33464,-20.36792 -11.77192,-26.7974 -3.144868,-3.15267 -7.066253,-5.80057 -11.562242,-7.7263 -4.286341,-1.83258 -10.024758,-3.377842 -16.198026,-3.082742 -3.129344,0.147634 -5.901491,0.496998 -8.541629,1.164732"
       style="fill:#000000;fill-opacity:1;fill-rule:nonzero;stroke:none;stroke-width:1.98786867" />
    <path
       inkscape:connector-curvature="0"
       id="path168097"
       d="m 70.666252,100.24482 c 0.698852,2.57025 1.172522,5.36567 1.817031,7.9903 -0.644509,0.13185 -1.428781,0.13185 -2.16648,0.17074 -0.06204,-0.48123 -0.147465,-0.93957 -0.201898,-1.43657 -0.248499,0 -0.450398,0.0563 -0.722153,0.0282 -0.131969,0.38035 -0.03888,0.98616 -0.06999,1.47538 -0.683334,0.093 -1.467605,0.093 -2.158687,0.17074 0.139746,-2.75659 0.341645,-5.46664 0.512495,-8.19997 1.009459,-0.0563 2.011165,-0.11664 2.98957,-0.20173 m -1.444322,5.31913 c 0.147466,0.0225 0.528047,0 0.722153,-0.0395 -0.201899,-1.07159 -0.326149,-2.21305 -0.551319,-3.26137 -0.06999,1.08715 -0.116474,2.19756 -0.170738,3.3002"
       style="fill:#000000;fill-opacity:1;fill-rule:nonzero;stroke:none;stroke-width:1.98786867" />
    <path
       inkscape:connector-curvature="0"
       id="path168099"
       d="m 77.662616,100.71849 c -0.287324,2.1509 -0.613455,4.26303 -0.892991,6.42177 0.372749,0.10875 0.846396,0.11664 1.234646,0.20173 -0.03099,0.57464 -0.155241,1.05609 -0.201898,1.61518 -1.110409,-0.17073 -2.236353,-0.32626 -3.362302,-0.48122 0.357196,-2.71005 0.768747,-5.36572 1.13372,-8.06022 0.691082,0.10875 1.40548,0.18652 2.088814,0.30316"
       style="fill:#000000;fill-opacity:1;fill-rule:nonzero;stroke:none;stroke-width:1.98786867" />
    <path
       inkscape:connector-curvature="0"
       id="path168101"
       d="m 62.908894,105.18342 c 1.180298,-0.0699 1.436546,0.55899 1.747153,1.54526 0.232947,0.72217 0.574613,1.66174 0.100977,2.22861 -0.364972,0.4429 -1.320072,0.66001 -1.949045,0.86191 -0.745447,0.23272 -1.444311,0.43502 -2.096579,0.68335 -0.854161,-2.56248 -1.685028,-5.15605 -2.469305,-7.78845 1.079349,-0.18652 2.049989,-0.84637 3.292407,-0.93179 1.118173,-0.0699 1.599614,0.72994 1.886921,1.58408 0.263995,0.77649 0.201898,1.53749 -0.512495,1.81703 m -2.228582,-1.74716 c 0.147522,0.57465 0.357197,1.09487 0.512495,1.67729 0.256219,-0.0169 0.442621,-0.10875 0.551319,-0.2716 -0.12425,-0.67557 -0.217395,-1.78599 -1.063819,-1.40552 m 0.924045,2.9119 c 0.232947,0.72217 0.419293,1.50649 0.722158,2.1665 0.993935,-0.2175 0.06987,-1.64623 -0.100921,-2.19755 -0.194123,-0.0778 -0.450398,-0.006 -0.621209,0.0338"
       style="fill:#000000;fill-opacity:1;fill-rule:nonzero;stroke:none;stroke-width:1.98786867" />
    <path
       inkscape:connector-curvature="0"
       id="path168103"
       d="m 84.526966,102.47343 c -0.660034,2.08102 -1.413257,4.07668 -2.096585,6.14216 0.357197,0.1944 0.815343,0.28738 1.203593,0.44234 -0.194235,0.50488 -0.34942,1.04831 -0.551319,1.54526 -1.048284,-0.38036 -2.104338,-0.75322 -3.191468,-1.09487 0.846396,-2.61685 1.778212,-5.14049 2.647903,-7.72629 0.644509,0.2485 1.312313,0.47389 1.98787,0.69112"
       style="fill:#000000;fill-opacity:1;fill-rule:nonzero;stroke:none;stroke-width:1.98786867" />
    <path
       inkscape:connector-curvature="0"
       id="path168105"
       d="m 69.392764,102.26375 c 0.225171,1.04826 0.34942,2.18973 0.551319,3.26132 -0.194235,0.0451 -0.574614,0.062 -0.722153,0.0394 0.0541,-1.10264 0.100978,-2.21305 0.170738,-3.30014"
       style="fill:#ffffff;fill-opacity:1;fill-rule:nonzero;stroke:none;stroke-width:1.98786867" />
    <path
       inkscape:connector-curvature="0"
       id="path168107"
       d="m 61.744126,104.84178 c -0.108697,0.17074 -0.295044,0.25639 -0.551319,0.2716 -0.155298,-0.58242 -0.364973,-1.10264 -0.512495,-1.67728 0.846397,-0.38036 0.939581,0.72994 1.063819,1.40551"
       style="fill:#ffffff;fill-opacity:1;fill-rule:nonzero;stroke:none;stroke-width:1.98786867" />
    <path
       inkscape:connector-curvature="0"
       id="path168109"
       d="m 91.5311,110.0211 c -0.652279,-0.31048 -1.188069,-0.72995 -1.824802,-1.06381 0.217451,-0.4739 0.543543,-0.94734 0.823097,-1.43657 0.139745,-0.24061 0.442621,-0.80759 -0.100978,-0.82309 -0.388245,-0.0225 -0.660033,0.65224 -0.892991,1.02499 -0.520271,0.84637 -0.94734,1.58409 -1.436534,2.3994 -0.194236,0.31837 -0.729929,0.88524 -0.691105,1.23467 0.0231,0.18651 0.256276,0.31048 0.341701,0.31048 0.318372,0.0169 0.582367,-0.48911 0.722152,-0.72217 0.225171,-0.34936 0.326149,-0.60564 0.512495,-0.89296 0.613432,0.36514 1.203593,0.75321 1.824801,1.10263 -0.512494,0.66002 -0.768747,1.54526 -1.475375,1.88691 -1.514195,0.72217 -4.04563,-0.66002 -3.773847,-2.43823 0.124249,-0.87746 0.807572,-1.73938 1.335607,-2.60907 0.263995,-0.42712 0.504718,-0.83864 0.753206,-1.23466 0.450398,-0.7144 0.931816,-1.68501 2.026712,-1.67723 1.203576,0 2.640133,0.86969 2.919686,1.98782 0.326148,1.32787 -0.737699,2.02671 -1.063831,2.95078"
       style="fill:#000000;fill-opacity:1;fill-rule:nonzero;stroke:none;stroke-width:1.98786867" />
    <path
       inkscape:connector-curvature="0"
       id="path168111"
       d="m 55.563099,106.62776 c -0.520271,0.38036 -1.079349,0.72989 -1.677263,1.02493 -0.217451,-0.19384 -0.357197,-0.90074 -0.722158,-0.92401 -0.823102,-0.0563 0.0541,1.20362 0.310596,1.30454 0.489222,0.18651 1.118179,0.0394 1.646208,0.0699 1.366656,0.062 1.941276,0.62119 2.500359,1.53749 0.263996,0.4429 0.590155,0.98616 0.450398,1.58408 -0.22517,0.93179 -1.405486,1.90246 -2.508129,2.02671 -1.4909,0.16284 -1.801507,-0.8697 -2.438246,-1.85586 0.566855,-0.32626 1.079349,-0.70667 1.685028,-0.99394 0.240723,0.18651 0.520271,1.27343 0.962876,1.30454 0.287323,0.0169 0.396021,-0.2254 0.411573,-0.31049 0.06987,-0.40402 -0.559095,-1.13374 -0.792042,-1.23466 -0.396021,-0.17863 -0.955111,-0.0857 -1.405486,-0.10876 -0.512494,-0.0225 -1.149233,-0.0394 -1.514194,-0.20172 -0.660039,-0.30316 -1.653974,-1.53749 -1.54526,-2.60908 0.04677,-0.41135 0.341644,-0.84642 0.590149,-1.09492 0.504719,-0.51277 1.778212,-1.3278 2.810972,-0.96283 0.636738,0.22539 0.760982,0.80754 1.234652,1.44428"
       style="fill:#000000;fill-opacity:1;fill-rule:nonzero;stroke:none;stroke-width:1.98786867" />
    <path
       inkscape:connector-curvature="0"
       id="path168113"
       d="m 62.217796,106.31711 c 0.17085,0.55109 1.102649,1.9801 0.108697,2.19756 -0.30282,-0.66002 -0.489222,-1.43657 -0.722152,-2.16651 0.17085,-0.0394 0.427069,-0.10876 0.613444,-0.0338"
       style="fill:#ffffff;fill-opacity:1;fill-rule:nonzero;stroke:none;stroke-width:1.98786867" />
    <path
       inkscape:connector-curvature="0"
       id="path168115"
       d="m 98.046024,111.12374 c -1.529725,1.51421 -2.9818,3.09829 -4.496,4.628 0.271771,0.33415 0.63675,0.55898 0.892986,0.89296 -0.310596,0.43502 -0.745447,0.73773 -1.063802,1.1648 -0.636756,-0.528 -1.23467,-1.11042 -1.886927,-1.74716 -0.06204,-0.062 -0.61346,-0.5201 -0.61346,-0.58237 -0.0079,-0.062 0.52027,-0.58237 0.683333,-0.75322 0.66005,-0.72994 1.452081,-1.49088 2.096584,-2.1354 1.102649,-1.10264 1.925751,-2.04998 2.842037,-2.98182 0.543543,0.48122 1.087103,0.95511 1.545249,1.51421"
       style="fill:#000000;fill-opacity:1;fill-rule:nonzero;stroke:none;stroke-width:1.98786867" />
    <path
       inkscape:connector-curvature="0"
       id="path168117"
       d="m 70.6973,109.7105 c 4.433881,-0.20961 8.650333,0.74545 11.841795,2.09658 3.315707,1.40546 6.0335,3.26909 8.40185,5.48992 2.430486,2.27521 4.426127,4.88428 5.909256,7.99807 1.490906,3.13712 2.578031,6.8721 2.779918,11.11964 0.209675,4.5814 -0.760977,8.53383 -2.127638,11.76415 -1.405503,3.31569 -3.253582,6.04902 -5.458886,8.44842 -2.228582,2.40723 -4.89978,4.37956 -8.029124,5.86266 -3.183692,1.50644 -6.786701,2.60908 -11.088589,2.81875 -4.511529,0.20962 -8.588207,-0.76877 -11.802965,-2.12763 -3.323466,-1.40551 -6.056783,-3.25359 -8.440674,-5.45887 -2.407186,-2.22082 -4.387291,-4.9076 -5.870426,-8.02917 -1.506429,-3.18366 -2.609079,-6.81773 -2.810972,-11.08081 -0.217394,-4.56585 0.815337,-8.64254 2.127644,-11.77188 1.428775,-3.43216 3.168163,-5.98692 5.45111,-8.44069 2.220817,-2.3839 4.88425,-4.42611 7.998064,-5.90927 3.160398,-1.49866 6.716828,-2.57025 11.119637,-2.77987 m -18.395548,9.44236 c -2.259648,2.30625 -3.905851,4.84545 -5.249218,8.13009 -1.242417,3.03614 -2.236352,6.92648 -2.026694,11.36036 0.388245,8.18442 3.92138,13.96166 8.409615,18.35671 2.213057,2.16646 4.96191,3.93689 8.130078,5.2492 3.152633,1.31231 7.058483,2.23638 11.399191,2.02671 8.285359,-0.39614 14.031552,-3.98349 18.356718,-8.40959 2.166457,-2.21311 3.944686,-4.9852 5.249223,-8.1301 1.304542,-3.14484 2.236352,-6.92648 2.026694,-11.36036 -0.194235,-4.09223 -1.281241,-7.67969 -2.710022,-10.66924 -1.459851,-3.05169 -3.385597,-5.38127 -5.699598,-7.68747 -2.16648,-2.17423 -4.954145,-3.99126 -8.099013,-5.28808 -3.129344,-1.28898 -7.136132,-2.18972 -11.422474,-1.98788 -8.471751,0.40403 -13.96945,3.92917 -18.3645,8.40965"
       style="fill:#000000;fill-opacity:1;fill-rule:nonzero;stroke:none;stroke-width:1.98786867" />
    <path
       inkscape:connector-curvature="0"
       id="path168119"
       d="m 48.838512,111.25571 c -0.411574,0.5201 -0.908522,0.94739 -1.374427,1.40551 -0.364972,-0.1944 -0.512494,-0.60569 -0.924051,-0.75322 -0.737682,0.24061 0.08543,1.12597 0.512495,1.20362 0.636738,0.11664 1.537495,-0.32626 2.197528,-0.38036 1.079349,-0.0857 1.576319,0.32626 2.158703,0.89302 0.434846,0.42713 1.009465,0.86969 0.892986,1.78599 -0.147522,1.19578 -1.762682,2.77214 -3.121573,2.39939 -0.753218,-0.20173 -1.01723,-0.83864 -1.646209,-1.30453 0.326148,-0.33415 0.636744,-0.66779 1.032765,-1.06382 0.05409,-0.0563 0.263995,-0.33415 0.341644,-0.34147 0.116474,0 0.427069,0.43501 0.582379,0.58237 0.194122,0.20173 0.962875,0.84636 1.024994,0.13974 0.03888,-0.35725 -0.729917,-1.00949 -1.056054,-1.06381 -0.47367,-0.0699 -0.947346,0.12397 -1.374426,0.20173 -0.458118,0.093 -1.056054,0.25639 -1.54526,0.13974 -0.768742,-0.18651 -1.708322,-1.02499 -1.995629,-1.71611 -0.582384,-1.42878 1.296772,-3.15261 2.47707,-3.22254 0.978405,-0.062 1.079349,0.5902 1.817036,1.09492"
       style="fill:#000000;fill-opacity:1;fill-rule:nonzero;stroke:none;stroke-width:1.98786867" />
    <path
       inkscape:connector-curvature="0"
       id="path168121"
       d="m 70.495413,120.69812 c 0.807572,0.0451 1.801507,0.062 2.088814,-0.52011 -0.528047,-0.36514 -1.156998,-0.093 -1.685039,0.0699 -0.520271,0.16285 -1.01723,0.466 -1.4676,0.62119 -0.326148,0.10086 -0.628962,0.0451 -1.001688,0 -0.372749,-0.32626 -0.784294,-0.61342 -0.823119,-1.27349 1.389962,0.72217 3.548665,-1.38996 5.117214,-0.31048 -0.139746,-1.11819 -1.949046,-0.72995 -2.407192,-0.27161 -0.232946,-0.59791 -0.03888,-1.36668 0.450398,-1.54525 -0.163017,-0.17863 -0.458174,-0.0282 -0.753223,-0.0699 0.0079,-0.1944 -0.06204,-0.30316 -0.03888,-0.51277 0.512495,-0.18652 0.986159,-0.41135 1.475376,-0.62125 0.139745,0.0451 0.194235,0.29527 0.341644,0.38035 0.06204,0.0338 0.194235,0.0169 0.310596,0.0699 0.3417,0.16285 0.450398,0.59792 0.924062,0.4429 0.18629,-0.0564 0.326148,-0.23272 0.34942,-0.61347 0.263996,-0.0282 0.543543,-0.0451 0.683328,-0.20962 -0.613455,-0.29527 -1.421027,0.36514 -2.096584,0.20962 -0.131969,-0.0282 -0.287324,-0.17863 -0.30282,-0.31048 -0.04621,-0.4739 0.83085,-0.62897 1.234647,-0.75322 0.582384,-0.17863 1.01723,-0.28738 1.50643,-0.45023 -0.04677,0.36514 -0.108754,0.95512 0.209675,1.06381 0.240723,-0.26427 -0.03099,-0.66001 0.03099,-0.96289 0.08548,-0.38036 0.566838,-0.52799 0.931811,-0.23272 0.372749,0.29527 0.582367,1.00949 0.512494,1.67728 -0.07771,0.66002 -0.496942,1.33559 -0.86192,1.85586 -0.877445,1.26571 -2.073267,2.36057 -3.261336,3.43216 -0.232947,0.21751 -0.597914,0.55899 -0.854167,0.48122 -0.209675,-0.0699 -0.287324,-0.62896 -0.341644,-0.79204 -0.108754,-0.31837 -0.201899,-0.57465 -0.271772,-0.85419"
       style="fill:#c23833;fill-opacity:1;fill-rule:nonzero;stroke:none;stroke-width:1.98786867" />
    <path
       inkscape:connector-curvature="0"
       id="path168123"
       d="m 102.64297,116.61366 c -1.57632,1.16479 -3.346753,2.2286 -5.039546,3.39339 -0.22517,0.15496 -0.628979,0.38036 -0.582384,0.62119 0.07771,0.44234 0.722153,0 0.784272,-0.0394 1.754912,-1.07159 3.455478,-2.39168 5.218158,-3.43222 0.36497,0.61347 0.79979,1.14924 1.1337,1.78598 -1.47537,0.94734 -2.78767,1.81703 -4.286339,2.81097 -0.551319,0.37247 -1.102655,0.88525 -1.785983,0.9629 -1.560778,0.18651 -2.803195,-1.51422 -2.678952,-2.98183 0.08548,-1.01721 1.03276,-1.50638 1.785983,-2.02665 1.40548,-0.97844 2.911911,-1.85591 4.286341,-2.81097 0.41929,0.54377 0.7765,1.14924 1.16475,1.71606"
       style="fill:#000000;fill-opacity:1;fill-rule:nonzero;stroke:none;stroke-width:1.98786867" />
    <path
       inkscape:connector-curvature="0"
       id="path168125"
       d="m 70.627411,126.84033 c -0.434846,-0.0282 -1.024989,0.0225 -1.234647,0.34148 -0.170738,-0.0699 -0.232947,-0.40346 -0.411574,-0.34148 -0.124249,0.16285 -0.0231,0.46601 0,0.68334 0.621209,0.15496 1.521954,-0.20961 2.158704,0 0.194235,0.062 0.209675,0.26428 0.380469,0.48123 0.768753,0.93178 2.546959,1.27343 2.849813,2.77986 -1.879173,-1.14146 -5.505465,-0.86191 -8.440686,-0.86191 -0.877456,0.006 -1.49867,-0.26428 -2.026695,-0.68335 -0.636738,-0.497 -2.057754,-1.96455 -2.267412,-0.10086 -0.108697,0.0451 -0.22517,-0.16285 -0.341644,-0.31049 -0.217394,-0.28738 -0.590149,-0.96289 -0.240723,-1.44428 0.357197,-0.48122 1.234653,-0.38824 1.886921,-0.34147 0.271771,-0.31837 -0.403797,-0.63675 -0.714393,-0.65224 -0.636733,-0.0225 -1.188058,0.54377 -1.413245,0.62119 0.09314,-0.79204 0.163074,-1.67729 0.760977,-1.8869 0.737687,-0.26428 1.257952,0.38824 1.778212,0.65224 0.496942,-0.59015 -0.628974,-0.85414 -1.094879,-1.03277 0.91628,-0.90074 2.352826,-0.34147 2.640138,0.68335 0.147522,0.52799 0.07765,0.94734 0.310596,1.30453 0.551319,0.85414 1.762677,0.79204 3.121568,0.69112 -0.209619,-0.68334 -0.644487,-1.27349 -0.993935,-1.92578 -0.823096,-1.52971 -1.638427,-3.10602 -2.508124,-4.69788 -0.17085,-0.31837 -0.450398,-0.66007 -0.512494,-0.92407 -0.07765,-0.34936 0.0231,-0.72988 0,-1.03276 -0.0541,-0.73767 -0.326149,-1.53748 -1.304537,-1.40546 0.09314,-0.59792 0.318372,-1.14924 0.861926,-1.17251 0.613444,-0.0225 0.784277,0.59014 1.094879,1.00166 0.357196,-0.24061 0.07765,-0.72217 -0.06987,-0.93179 -0.240723,-0.33415 -0.729923,-0.57464 -1.094884,-0.68334 0.667803,-0.53588 1.723858,-0.77649 2.158703,0.0699 0.12425,0.23272 0.163018,0.98617 0.411573,0.99394 0.396021,0.0169 0.116474,-0.81537 0.06999,-0.93184 -0.131969,-0.29527 -0.341701,-0.41135 -0.380525,-0.61347 1.366667,-0.38036 1.700569,0.61347 1.615149,1.918 -0.04677,0.73767 -0.372749,1.47539 -0.442621,2.13541 -0.03888,0.28738 -0.0079,0.56687 0.06204,0.78426 0.131969,0.36515 0.450398,0.83087 0.691104,1.23467 0.613432,1.03276 1.180292,1.8869 1.917975,2.81875 0.139745,0.17073 0.372748,0.34936 0.419349,0.51221 0.06204,0.2716 -0.01578,0.60569 0,0.85414 0.0231,0.57464 0.108754,1.02504 0.30282,1.41329"
       style="fill:#c23833;fill-opacity:1;fill-rule:nonzero;stroke:none;stroke-width:1.98786867" />
    <path
       inkscape:connector-curvature="0"
       id="path168127"
       d="m 38.751628,120.24772 c 0.310596,-0.65224 0.729923,-1.19578 1.063825,-1.81703 1.809266,0.97844 3.517594,2.18978 5.38122,3.22254 0.0621,0.0395 0.667798,0.4739 0.760983,0.0395 0.07765,-0.38825 -1.102649,-0.9163 -1.343367,-1.06382 -1.47537,-0.90851 -2.98957,-1.84813 -4.457175,-2.71005 0.341644,-0.62897 0.722158,-1.21911 1.094884,-1.8248 1.366656,0.82309 3.020624,1.81703 4.534824,2.74887 0.496943,0.30259 1.118174,0.62119 1.405486,0.99394 1.172534,1.52193 -0.613444,4.41055 -2.578019,3.88256 -0.481446,-0.13974 -1.0017,-0.52799 -1.506429,-0.83086 -1.428781,-0.84642 -2.981805,-1.85592 -4.356232,-2.64018"
       style="fill:#000000;fill-opacity:1;fill-rule:nonzero;stroke:none;stroke-width:1.98786867" />
    <path
       inkscape:connector-curvature="0"
       id="path168129"
       d="m 73.166611,116.85438 c -0.147466,0.24061 -0.691099,0.2254 -0.683328,-0.0699 0,-0.3026 0.667804,-0.36515 0.683328,0.0699"
       style="fill:#c23833;fill-opacity:1;fill-rule:nonzero;stroke:none;stroke-width:1.98786867" />
    <path
       inkscape:connector-curvature="0"
       id="path168131"
       d="m 77.080232,116.88548 c 1.141474,2.67117 -0.978411,4.91527 -2.267423,6.31301 -1.226877,1.34336 -2.492589,2.6013 -2.601309,4.80663 -0.08548,0.0778 -0.263995,-0.20962 -0.34942,-0.34147 -0.279548,-0.45812 -0.496942,-1.18029 -0.302876,-1.95678 0.364973,-1.46767 1.762682,-2.76443 2.911932,-3.98354 0.535767,-0.56687 1.102649,-1.23466 1.576319,-1.8869 0.628963,-0.84642 1.188052,-1.66951 1.03276,-2.95072"
       style="fill:#c23833;fill-opacity:1;fill-rule:nonzero;stroke:none;stroke-width:1.98786867" />
    <path
       inkscape:connector-curvature="0"
       id="path168133"
       d="m 77.320938,120.24772 c 0.411573,1.84813 -0.869691,3.16817 -1.785977,4.29413 -0.97064,1.18807 -1.956799,2.446 -1.747141,4.55813 -0.737699,-0.36514 -1.312308,-0.86197 -1.203593,-1.8869 0.06999,-0.63675 0.535766,-1.35114 0.962864,-1.91801 0.427069,-0.58237 0.838643,-1.11819 1.265718,-1.61513 0.978405,-1.12597 2.003411,-2.27521 2.508129,-3.43222"
       style="fill:#c23833;fill-opacity:1;fill-rule:nonzero;stroke:none;stroke-width:1.98786867" />
    <path
       inkscape:connector-curvature="0"
       id="path168135"
       d="m 77.080232,122.64717 c 0.03099,1.05604 0.263995,1.91023 1.304536,1.95678 0.03888,0.10875 -0.163017,0.2716 -0.310596,0.38036 -0.21745,0.15496 -0.799818,0.45022 -1.234663,0.2716 -0.94734,-0.38825 -0.170738,-2.12763 0.240723,-2.60908"
       style="fill:#c23833;fill-opacity:1;fill-rule:nonzero;stroke:none;stroke-width:1.98786867" />
    <path
       inkscape:connector-curvature="0"
       id="path168137"
       d="m 106.07516,122.78692 c 0.031,0.006 0.0389,0.0338 0.07,0.0338 0.13975,1.18034 1.68504,3.15267 0.72215,4.43388 -0.12425,0.16285 -0.41157,0.38035 -0.58238,0.48122 -0.37275,0.20962 -1.24242,0.57465 -1.74714,0.4429 -0.37275,-0.093 -0.48922,-0.36514 -0.72215,-0.65224 0.0158,0.46601 -0.0231,0.90852 -0.24072,1.16474 -0.34165,0.40402 -1.77821,0.96289 -2.53919,1.03276 -1.226918,0.11664 -1.498701,-1.07931 -1.824827,-1.98782 -0.279547,-0.79205 -0.512494,-1.51421 -0.753223,-2.26743 2.57802,-0.86192 5.07838,-1.78598 7.61759,-2.67895 m -0.61346,2.46927 c -0.55131,0.20173 -1.10265,0.38825 -1.64619,0.58237 0.0541,1.00172 1.45208,0.23272 1.77821,-0.062 0.008,-0.2254 -0.0158,-0.41924 -0.13197,-0.52011 m -4.97742,1.75494 c 0.0468,0.2254 0.14752,0.39613 0.31059,0.51221 0.7532,-0.093 1.35112,-0.34147 1.88691,-0.65229 0.0389,-0.20173 -0.0158,-0.38036 -0.07,-0.58237 -0.7377,0.20962 -1.39773,0.50489 -2.12763,0.72217"
       style="fill:#000000;fill-opacity:1;fill-rule:nonzero;stroke:none;stroke-width:1.98786867" />
    <path
       inkscape:connector-curvature="0"
       id="path168139"
       d="m 38.681744,124.26231 c -0.139745,0.466 -0.310596,0.90851 -0.450398,1.3744 0.442622,0.20173 0.962876,0.31838 1.405486,0.51222 0.209675,-0.34937 0.30282,-0.82309 0.450398,-1.23461 0.512495,0.13975 0.986165,0.31837 1.47537,0.48122 -0.132026,0.40402 -0.248499,0.82309 -0.411573,1.20356 1.009464,0.44234 2.166462,0.73766 3.222522,1.13369 -0.201898,0.67556 -0.442622,1.31231 -0.652268,1.98788 -2.609079,-0.81532 -5.140509,-1.72383 -7.718522,-2.57803 0.380469,-1.12591 0.768747,-2.25187 1.133709,-3.39334 0.52027,0.16285 1.032759,0.33415 1.545254,0.51222"
       style="fill:#000000;fill-opacity:1;fill-rule:nonzero;stroke:none;stroke-width:1.98786867" />
    <path
       inkscape:connector-curvature="0"
       id="path168141"
       d="m 105.60148,125.77652 c -0.33387,0.29527 -1.73161,1.06381 -1.78596,0.0699 0.55132,-0.20173 1.09488,-0.38825 1.64619,-0.59014 0.11647,0.10086 0.14752,0.29526 0.13974,0.5201"
       style="fill:#ffffff;fill-opacity:1;fill-rule:nonzero;stroke:none;stroke-width:1.98786867" />
    <path
       inkscape:connector-curvature="0"
       id="path168143"
       d="m 102.61192,126.28901 c 0.0468,0.19441 0.10875,0.38036 0.07,0.58237 -0.53576,0.31048 -1.13369,0.55898 -1.8869,0.65229 -0.16302,-0.11664 -0.26405,-0.28738 -0.3106,-0.51221 0.72991,-0.21751 1.38994,-0.51277 2.12764,-0.72217"
       style="fill:#ffffff;fill-opacity:1;fill-rule:nonzero;stroke:none;stroke-width:1.98786867" />
    <path
       inkscape:connector-curvature="0"
       id="path168145"
       d="m 59.204937,139.19463 c 0.729923,-0.0225 1.871391,0.10087 2.088814,-0.55109 -0.0541,-0.17074 -0.240724,-0.16285 -0.341645,-0.17074 -0.924045,-0.093 -1.987864,0.57465 -2.810966,0.85419 -0.97064,0.33415 -1.731623,-0.34936 -1.785977,-1.26571 1.653968,0.6678 3.564184,-1.38996 5.109443,-0.31048 -0.163074,-1.04832 -1.910221,-0.76877 -2.43048,-0.24061 -0.07765,-0.39613 -0.155298,-0.88524 0.03099,-1.20362 0.12425,-0.20173 0.326148,-0.17862 0.411573,-0.37246 -0.163074,-0.15553 -0.528047,-0.0338 -0.753212,-0.0395 0.0231,-0.20962 -0.04677,-0.31837 -0.03888,-0.51277 0.512494,-0.20962 1.024994,-0.41924 1.514194,-0.65224 0.100977,0 0.09314,0.23272 0.240723,0.34147 0.09314,0.0699 0.256219,0.0225 0.411573,0.10087 0.388245,0.2175 0.341645,0.61347 0.885227,0.48122 0.217394,-0.0451 0.357196,-0.27949 0.34942,-0.61342 0.256276,-0.0564 0.551319,-0.0699 0.722153,-0.20962 -0.520271,-0.28738 -1.382186,0.26428 -1.99563,0.20962 -0.209675,-0.0225 -0.434845,-0.16285 -0.442621,-0.34147 -0.03099,-0.46601 0.846396,-0.59792 1.265712,-0.72217 0.566854,-0.17074 1.009464,-0.31838 1.514194,-0.45023 -0.05409,0.35725 -0.108697,0.97061 0.201899,1.06381 0.232947,-0.20962 0.0079,-0.51221 0,-0.71439 0,-0.45023 0.481446,-0.92401 0.962875,-0.48122 1.0017,0.90851 0.295044,2.55475 -0.310596,3.43222 -0.900734,1.30453 -2.073261,2.3994 -3.292384,3.49426 -0.209675,0.18651 -0.613444,0.55898 -0.823102,0.5201 -0.22517,-0.0451 -0.357196,-0.58237 -0.411573,-0.75322 -0.100977,-0.32626 -0.147522,-0.62897 -0.271771,-0.89296"
       style="fill:#c23833;fill-opacity:1;fill-rule:nonzero;stroke:none;stroke-width:1.98786867" />
    <path
       inkscape:connector-curvature="0"
       id="path168147"
       d="m 59.33694,145.43777 c -0.512494,-0.11665 -1.048284,0.0225 -1.234647,0.34147 -0.132026,-0.13186 -0.17857,-0.34936 -0.372749,-0.41135 -0.139802,0.13975 -0.0621,0.5201 -0.03888,0.72212 h 2.197523 c 0.186346,0.0856 0.194122,0.2716 0.310596,0.41134 0.854161,1.05604 2.554718,1.28904 2.911915,2.8498 -1.925745,-1.30454 -5.777241,-0.67557 -8.852225,-0.89296 -0.675569,-0.0451 -1.343367,-0.37247 -1.785977,-0.761 -0.566855,-0.48911 -1.964576,-1.81703 -2.088814,0 -0.496942,-0.20173 -1.07159,-1.25793 -0.551319,-1.81703 0.232947,-0.2485 0.722158,-0.34936 1.133703,-0.34147 0.240723,0.006 0.551319,0.17862 0.753218,-0.0282 -0.318372,-1.02504 -1.817037,-0.30316 -2.197528,0.0699 0.116473,-0.79205 0.163074,-1.66174 0.760982,-1.88691 0.714388,-0.28738 1.226888,0.40402 1.848097,0.61342 0.326148,-0.66002 -0.691093,-0.79982 -1.164769,-0.99394 0.403797,-0.29527 0.807572,-0.53588 1.335602,-0.48122 0.566854,0.0563 1.211358,0.68334 1.343367,1.20361 0.08543,0.33359 0.01578,0.60564 0.100977,0.85414 0.364973,1.13374 1.708323,1.28126 3.292407,1.10264 -0.03099,-0.38036 -0.310596,-0.68329 -0.481446,-0.99389 -1.0017,-1.86363 -1.956811,-3.73504 -3.02063,-5.66854 -0.163074,-0.30316 -0.47367,-0.67557 -0.512494,-0.92407 -0.03099,-0.19384 0.04677,-0.4429 0.03888,-0.65224 -0.04677,-0.87747 -0.209674,-1.87141 -1.304536,-1.74716 0.03888,-0.62124 0.310596,-1.14924 0.823101,-1.17256 0.605679,-0.0225 0.807572,0.58242 1.094879,0.99394 0.349421,-0.14764 0.147522,-0.59015 0.03099,-0.78427 -0.217394,-0.39613 -0.753212,-0.69884 -1.164763,-0.82309 0.419294,-0.2716 1.0017,-0.66007 1.615144,-0.45023 0.263995,0.0935 0.47367,0.42713 0.582379,0.69112 0.108697,0.2716 0.04677,0.72989 0.411573,0.82309 0.427069,-0.5201 -0.201899,-1.25793 -0.380469,-1.51421 1.063825,-0.41135 1.599614,0.32626 1.653974,1.27349 0.04677,0.90852 -0.30282,1.80153 -0.450398,2.60907 -0.17085,0.91629 0.349421,1.49866 0.722153,2.12763 0.729923,1.22689 1.49867,2.30625 2.368361,3.36235 -0.08543,0.80754 0.03099,1.70055 0.271771,2.29847"
       style="fill:#c23833;fill-opacity:1;fill-rule:nonzero;stroke:none;stroke-width:1.98786867" />
    <path
       inkscape:connector-curvature="0"
       id="path168149"
       d="m 61.3947,135.07135 c 0.217394,-0.0778 0.52027,-0.0282 0.481446,0.24061 -0.06987,0.48911 -1.087119,-0.0169 -0.481446,-0.24061"
       style="fill:#c23833;fill-opacity:1;fill-rule:nonzero;stroke:none;stroke-width:1.98786867" />
    <path
       inkscape:connector-curvature="0"
       id="path168151"
       d="m 65.82081,135.41299 c 0.256219,0.53588 0.372748,1.14924 0.310595,1.92579 -0.132025,1.78598 -1.475375,3.12934 -2.570259,4.32512 -1.079349,1.17257 -2.585784,2.62463 -2.609079,4.83768 -0.116474,0.0394 -0.209675,-0.14764 -0.271772,-0.24061 -0.287323,-0.40402 -0.566854,-1.06381 -0.450397,-1.78598 0.263995,-1.63063 1.700557,-2.90412 2.818736,-4.11551 0.551319,-0.60564 1.110409,-1.21134 1.607379,-1.85586 0.667798,-0.86191 1.242417,-1.65395 1.164763,-3.09052"
       style="fill:#c23833;fill-opacity:1;fill-rule:nonzero;stroke:none;stroke-width:1.98786867" />
    <path
       inkscape:connector-curvature="0"
       id="path168153"
       d="m 66.030467,138.71318 c 0.03099,-0.006 0.03099,0.006 0.03099,0.0338 0.09315,0.44291 0.116474,0.86192 0.03888,1.23461 -0.605639,2.90417 -3.9757,3.79719 -3.571914,7.6176 -0.722153,-0.38035 -1.459841,-0.95506 -1.164763,-2.12762 0.318372,-1.25794 1.37442,-2.3528 2.267412,-3.39334 0.94734,-1.11042 1.93351,-2.18201 2.399421,-3.36229"
       style="fill:#c23833;fill-opacity:1;fill-rule:nonzero;stroke:none;stroke-width:1.98786867" />
    <path
       inkscape:connector-curvature="0"
       id="path168155"
       d="m 65.82081,141.11258 c 0.01521,1.08714 0.263995,1.94128 1.304553,1.98788 0.03099,0.10876 -0.186234,0.29527 -0.372749,0.41135 -0.279547,0.18652 -0.916297,0.42713 -1.304553,0.17863 -0.830867,-0.54377 0.03099,-2.06553 0.372749,-2.57803"
       style="fill:#c23833;fill-opacity:1;fill-rule:nonzero;stroke:none;stroke-width:1.98786867" />
    <path
       inkscape:connector-curvature="0"
       id="path168157"
       d="m 69.563603,147.32467 c 0.139745,0.062 -0.155242,0.24061 -0.06999,0.48122 0.535767,0.10875 1.692787,-0.16285 2.267418,0.10087 -0.232947,0.71439 -0.543543,1.60741 -0.481446,2.57024 0.124249,1.80932 1.397709,2.86535 2.508135,3.64184 -0.691104,0.11664 -1.304537,-0.13185 -1.716088,-0.41135 -0.22517,0.24061 0.2485,0.48122 0.240723,0.6212 -1.754911,0.2485 -3.39335,0.83086 -5.078389,1.36663 -1.669492,0.52799 -3.40888,1.17257 -5.117202,1.30454 -0.838632,0.0699 -1.172534,-0.11665 -1.607379,-0.51222 -0.147522,-0.13185 -0.333925,-0.43501 -0.551319,-0.4429 -0.481446,-0.0394 -0.784272,0.6523 -0.652268,1.26577 -0.132026,0.0394 -0.364973,-0.2716 -0.450398,-0.48122 -0.2951,-0.75328 -0.05409,-1.91801 0.722158,-1.98788 0.434845,-0.0394 0.566848,0.31837 0.96287,0.13974 -0.170851,-1.00172 -1.778207,-0.34147 -2.166463,0 0.07765,-0.90851 0.403797,-1.76271 1.203593,-1.78598 0.792042,-0.0338 1.040524,0.63674 1.716087,0.82309 0.139746,-0.79976 -0.838637,-1.06381 -1.576319,-1.20356 0.815337,-0.6057 2.018929,-0.53588 2.570254,0.24061 0.372693,0.5201 0.411573,1.07937 1.234653,0.99394 0.776506,-0.0778 1.685027,-0.5201 2.477069,-0.75322 0.854167,-0.25638 1.700564,-0.45023 2.469311,-0.75321 0.07771,-0.51278 -0.396021,-0.8697 -0.621209,-1.37447 -0.318372,-0.71439 -0.411573,-1.66173 -0.3417,-2.29848 0.108753,-0.99388 0.846396,-1.50638 2.05776,-1.5452"
       style="fill:#c23833;fill-opacity:1;fill-rule:nonzero;stroke:none;stroke-width:1.98786867" />
    <path
       inkscape:connector-curvature="0"
       id="path168159"
       d="m 103.50491,157.2097 c -0.34942,0.55898 -0.76099,1.07153 -1.13372,1.60736 -0.59791,-0.38825 -1.40548,-1.03277 -2.12763,-1.54526 -0.4038,-0.2795 -0.955119,-0.6678 -1.203601,-0.062 0.986181,0.69884 1.949041,1.42101 2.950751,2.0888 -0.34942,0.62897 -0.8231,1.14147 -1.19582,1.75494 -2.236355,-1.53748 -4.402835,-3.15262 -6.623657,-4.70565 0.628979,-0.76877 1.327837,-2.18978 2.127655,-2.8498 1.141474,-0.93184 2.717776,0.32626 3.323455,1.20356 0.03888,0.38825 -0.03888,0.66779 -0.170738,0.89302 0,0.0338 -0.03099,0.0338 -0.03099,0.0699 0.939575,-0.92407 1.925745,-0.0169 2.710015,0.54377 0.49694,0.35725 0.95511,0.73767 1.37443,1.00166 m -5.319092,-1.27343 c -0.06998,-0.32626 -1.45208,-1.32787 -1.646214,-0.51221 0.504718,0.33415 0.94734,0.72217 1.475375,1.02499 0.04677,-0.17074 0.217395,-0.26372 0.170738,-0.51222"
       style="fill:#000000;fill-opacity:1;fill-rule:nonzero;stroke:none;stroke-width:1.98786867" />
    <path
       inkscape:connector-curvature="0"
       id="path168161"
       d="m 48.939455,155.52464 c 0.434846,0.55898 0.892992,1.10264 1.374426,1.61519 -1.234652,1.42873 -2.655668,2.67117 -3.944674,4.04558 1.514194,-1.09487 3.028394,-2.20528 4.666832,-3.19144 0.419294,0.53587 0.869692,1.03276 1.304537,1.54526 -2.259647,1.53748 -4.527059,3.07496 -6.833301,4.56584 -0.535767,-0.69106 -1.110409,-1.33558 -1.677263,-1.98782 0.861932,-1.11819 1.824802,-2.12768 2.741088,-3.1915 -1.172534,0.73772 -2.345067,1.47539 -3.502065,2.22861 -0.628979,-0.59015 -1.133709,-1.31232 -1.708328,-1.95684 1.817037,-2.0422 3.672898,-4.05335 5.590884,-6.00241 0.396021,0.54377 0.877456,0.99394 1.265712,1.54526 -1.195828,1.34336 -2.578019,2.51587 -3.804907,3.83596 1.483141,-1.04054 2.950746,-2.09658 4.527059,-3.05169"
       style="fill:#000000;fill-opacity:1;fill-rule:nonzero;stroke:none;stroke-width:1.98786867" />
    <path
       inkscape:connector-curvature="0"
       id="path168163"
       d="m 98.014975,156.44871 c -0.528047,-0.3026 -0.97064,-0.69113 -1.475375,-1.02499 0.194235,-0.81537 1.576319,0.18651 1.646214,0.51221 0.04677,0.2485 -0.124249,0.34147 -0.170737,0.51278"
       style="fill:#ffffff;fill-opacity:1;fill-rule:nonzero;stroke:none;stroke-width:1.98786867" />
    <path
       inkscape:connector-curvature="0"
       id="path168165"
       d="m 91.08073,159.33733 c 1.304543,1.30453 2.244106,2.41495 3.50207,3.80491 0.139746,0.16285 0.939564,1.21911 1.273466,1.16473 0.551319,-0.0778 -0.07771,-0.70661 -0.240723,-0.88518 -1.203598,-1.36669 -2.290723,-2.56253 -3.471022,-3.88256 -0.108753,-0.12397 -0.582384,-0.48123 -0.582384,-0.61348 0,-0.10875 0.512495,-0.50488 0.722169,-0.69106 0.364973,-0.32626 0.636739,-0.59014 0.85415,-0.72217 1.149245,1.24244 2.321772,2.51587 3.50207,3.81263 0.56686,0.62125 1.421027,1.35891 1.203593,2.53926 -0.201898,1.07153 -1.537494,2.2441 -2.818736,2.15867 -0.691087,-0.0394 -1.188052,-0.55898 -1.646192,-1.06381 -1.071601,-1.16479 -2.057766,-2.27521 -3.191469,-3.53314 -0.131969,-0.13975 -0.652279,-0.58237 -0.652279,-0.68329 0,-0.0699 0.675579,-0.64452 0.760999,-0.72223 0.30282,-0.27949 0.543543,-0.44234 0.784271,-0.68328"
       style="fill:#000000;fill-opacity:1;fill-rule:nonzero;stroke:none;stroke-width:1.98786867" />
    <path
       inkscape:connector-curvature="0"
       id="path168167"
       d="m 55.050598,161.32515 c -1.576313,2.21311 -3.261347,4.30969 -4.87649,6.48392 -0.621209,-0.35726 -1.102644,-0.85414 -1.716088,-1.23467 1.638439,-2.17423 3.253582,-4.36401 4.946375,-6.48386 0.551319,0.40403 1.079355,0.83865 1.646203,1.23461"
       style="fill:#000000;fill-opacity:1;fill-rule:nonzero;stroke:none;stroke-width:1.98786867" />
    <path
       inkscape:connector-curvature="0"
       id="path168169"
       d="m 92.315377,168.67098 c -0.574613,0.39613 -1.211346,0.72989 -1.848102,1.06381 -0.566843,-0.97838 -1.118179,-1.97232 -1.685016,-2.95071 -0.163018,0.093 -0.326148,0.20173 -0.512495,0.2716 0.496942,1.05604 1.157021,1.95678 1.646215,3.02065 -0.597914,0.34147 -1.219123,0.66001 -1.785983,1.0327 -1.39771,-2.30625 -2.678951,-4.71337 -4.045613,-7.03517 0.574614,-0.40403 1.195823,-0.74544 1.848085,-1.06382 0.465894,0.83865 0.962881,1.64624 1.40548,2.50038 0.194236,-0.093 0.364973,-0.20962 0.551319,-0.31048 -0.489222,-0.82309 -0.939586,-1.68506 -1.436551,-2.50038 0.582385,-0.38036 1.226894,-0.69112 1.817031,-1.06381 1.389956,2.30625 2.671198,4.71343 4.04563,7.03517"
       style="fill:#000000;fill-opacity:1;fill-rule:nonzero;stroke:none;stroke-width:1.98786867" />
    <path
       inkscape:connector-curvature="0"
       id="path168171"
       d="m 57.41896,166.885 c 0.590149,-1.00944 1.094884,-2.10436 1.646203,-3.16039 0.574619,0.20173 1.009465,0.55109 1.576319,0.76099 -1.188063,2.446 -2.46154,4.80657 -3.672898,7.23708 -0.613443,-0.2254 -1.118179,-0.5511 -1.677268,-0.82309 0.232947,-1.22689 0.465894,-2.45378 0.683333,-3.704 -0.566854,1.04832 -1.087113,2.13541 -1.646203,3.1915 -0.543543,-0.24061 -1.071584,-0.51278 -1.576319,-0.79204 1.226887,-2.41495 2.469305,-4.8299 3.703957,-7.23708 0.512495,0.28738 1.071584,0.52799 1.576319,0.82309 -0.232946,1.20356 -0.388244,2.4926 -0.613443,3.70394"
       style="fill:#000000;fill-opacity:1;fill-rule:nonzero;stroke:none;stroke-width:1.98786867" />
    <path
       inkscape:connector-curvature="0"
       id="path168173"
       d="m 83.432087,166.09296 c -0.434846,0.0699 -0.753223,0.26427 -1.172528,0.34936 0.621209,2.10435 1.343361,4.10001 1.956799,6.20437 -0.636733,0.23272 -1.33559,0.40402 -1.956799,0.65224 -0.737693,-1.98788 -1.343361,-4.11551 -2.018935,-6.17327 -0.442622,0.0778 -0.776501,0.25639 -1.203599,0.34148 -0.170737,-0.50489 -0.34942,-0.99394 -0.481446,-1.54526 1.459835,-0.45812 2.919686,-0.91629 4.35622,-1.40551 0.201899,0.49699 0.364973,1.03276 0.520271,1.5763"
       style="fill:#000000;fill-opacity:1;fill-rule:nonzero;stroke:none;stroke-width:1.98786867" />
    <path
       inkscape:connector-curvature="0"
       id="path168175"
       d="m 66.271191,166.20165 c -0.116474,0.53588 -0.279548,1.01727 -0.411574,1.54526 -0.427069,-0.0778 -0.792036,-0.2175 -1.203587,-0.31048 -0.590149,2.06553 -1.164768,4.13884 -1.716093,6.24319 -0.722152,-0.13974 -1.382186,-0.35725 -2.057754,-0.55109 0.559095,-2.09658 1.141473,-4.16989 1.716087,-6.24314 -0.364973,-0.14763 -0.792036,-0.23272 -1.203587,-0.34147 0.12425,-0.54377 0.30282,-1.02499 0.411573,-1.58409 1.4909,0.41135 2.989565,0.81532 4.464946,1.24239"
       style="fill:#000000;fill-opacity:1;fill-rule:nonzero;stroke:none;stroke-width:1.98786867" />
    <path
       inkscape:connector-curvature="0"
       id="path168177"
       d="m 71.077803,166.67532 c -0.0231,0.55899 -0.07771,1.09492 -0.139746,1.61519 -0.434845,-0.0699 -0.94734,-0.062 -1.374415,-0.13974 -0.06999,0.48122 -0.0932,1.00166 -0.139745,1.51415 0.372748,0.10876 0.85415,0.10876 1.304542,0.13975 -0.05409,0.50488 -0.08548,1.03276 -0.13197,1.54526 -0.450398,-0.0169 -0.854167,-0.0699 -1.273488,-0.10876 -0.139746,0.5201 -0.0932,1.22689 -0.201898,1.78599 0.512494,0.0451 1.04053,0.0856 1.54527,0.13974 -0.03099,0.5511 -0.08548,1.08709 -0.139745,1.60736 -1.211352,-0.10087 -2.422716,-0.20173 -3.634068,-0.3026 0.217395,-2.71005 0.458174,-5.39677 0.683334,-8.09899 1.164768,0.10087 2.35282,0.17863 3.502064,0.3026"
       style="fill:#000000;fill-opacity:1;fill-rule:nonzero;stroke:none;stroke-width:1.98786867" />
    <path
       inkscape:connector-curvature="0"
       id="path168179"
       d="m 76.668681,170.17742 c 1.739382,0.14763 1.180298,2.60129 1.545248,4.12328 -0.667803,0.0394 -1.304536,0.10875 -1.925745,0.20173 -0.139746,-0.65224 -0.217394,-1.83258 -0.341644,-2.7411 -0.06204,-0.46601 -0.06204,-0.97839 -0.683334,-0.86191 0.03888,1.16479 0.279548,2.42272 0.341645,3.67288 -0.722153,0.0451 -1.374432,0.15496 -2.096585,0.20173 -0.271771,-2.6945 -0.582384,-5.35789 -0.854144,-8.06016 1.351115,-0.0394 3.789371,-0.83865 4.565872,0.37246 0.271772,0.43502 0.644509,2.07325 0.240723,2.67895 -0.163017,0.23272 -0.450341,0.29527 -0.792025,0.41135 m -1.747158,-2.32958 c 0.01578,0.63674 0.131969,1.18806 0.170738,1.81703 0.194235,-0.0395 0.372748,-0.0857 0.512494,-0.17074 0.108754,-0.497 0.0541,-1.31231 -0.240723,-1.61513 -0.147465,-0.006 -0.264052,-0.0564 -0.442622,-0.0282"
       style="fill:#000000;fill-opacity:1;fill-rule:nonzero;stroke:none;stroke-width:1.98786867" />
    <path
       inkscape:connector-curvature="0"
       id="path168181"
       d="m 75.364144,167.87894 c 0.295044,0.30259 0.349421,1.11819 0.240724,1.61513 -0.139746,0.093 -0.318373,0.13186 -0.512495,0.17074 -0.03888,-0.62897 -0.155242,-1.18029 -0.170738,-1.81703 0.178514,-0.0225 0.2951,0.0225 0.442622,0.0338"
       style="fill:#ffffff;fill-opacity:1;fill-rule:nonzero;stroke:none;stroke-width:1.98786867" />
    <path
       inkscape:connector-curvature="0"
       id="path168183"
       d="m 75.814514,114.72675 c 0.582384,0.57459 1.141474,1.45206 0.993935,2.64012 -0.232947,1.77821 -1.731611,3.0517 -2.919686,4.35623 -0.551319,0.6057 -1.149244,1.25022 -1.685033,1.95684 -0.590138,0.79204 -1.257947,1.8248 -1.024989,3.09052 -0.302876,-0.42713 -0.574608,-0.97067 -0.512495,-1.78599 0.108754,-1.46761 1.265696,-2.70227 2.259631,-3.74281 1.04053,-1.07937 2.158703,-2.07325 2.818736,-3.19144 0.551319,-0.93957 0.807572,-2.40718 0.06999,-3.32347"
       style="fill:#c23833;fill-opacity:1;fill-rule:nonzero;stroke:none;stroke-width:1.98786867" />
    <path
       inkscape:connector-curvature="0"
       id="path168185"
       d="m 85.039454,118.91213 c -0.271771,0.61348 -0.512494,1.23467 -1.304536,1.26572 -1.31229,0.0563 -2.484835,-1.35114 -3.874774,-1.50644 -0.56686,-0.062 -0.931816,0.0564 -1.304537,0.2716 -0.03888,0.0451 -0.01578,0.006 0,-0.0338 0.799796,-1.24238 2.376115,-0.86191 3.703952,-0.31048 0.792031,0.32626 1.91798,1.04832 2.609079,0.4429 0.05409,-0.0451 0.100977,-0.23272 0.170737,-0.13185"
       style="fill:#c23833;fill-opacity:1;fill-rule:nonzero;stroke:none;stroke-width:1.98786867" />
    <path
       inkscape:connector-curvature="0"
       id="path168187"
       d="m 83.633974,120.38752 c -0.124249,0.43501 -0.574614,0.82309 -1.304536,0.65224 -1.304543,-0.31048 -2.880862,-2.09658 -4.35622,-1.03271 0.341644,-0.52799 0.745452,-0.97067 1.506429,-0.99394 1.622914,-0.0451 2.546954,1.45206 4.084454,1.44428 0.03099,-0.0169 0.06204,-0.0338 0.06999,-0.0699"
       style="fill:#c23833;fill-opacity:1;fill-rule:nonzero;stroke:none;stroke-width:1.98786867" />
    <path
       inkscape:connector-curvature="0"
       id="path168189"
       d="m 92.416321,132.1905 c -0.380469,0.81532 -0.628962,1.37441 -0.543543,2.57803 0.100978,1.52193 1.032782,3.01281 1.164774,4.31735 0.03888,0.38035 0,0.81537 -0.139745,1.06387 -0.0932,0.18651 -0.411518,0.34936 -0.512495,0.55109 -0.240723,0.48122 -0.0231,1.11047 0.652257,0.96289 -0.263995,0.90852 -1.630668,1.04832 -1.886921,0.10087 -0.07771,-0.29527 0.08548,-0.72212 -0.201898,-0.96284 -0.310596,0.10087 -0.232947,0.61342 -0.178514,0.82309 0.139746,0.52799 0.714382,0.95512 1.203593,1.06382 -1.118174,0.96289 -2.461557,-0.12454 -2.438257,-1.43657 0.0079,-0.28738 0.178514,-0.40402 0.03888,-0.65224 -0.496942,0.0856 -0.396021,0.68329 -0.310596,1.06382 0.100978,0.41923 0.2951,0.81531 0.411573,1.09486 -0.582525,-0.4739 -1.646355,-0.92401 -1.57646,-1.88691 0.07771,-1.09486 1.902451,-1.53748 2.018924,-2.74109 0.08548,-0.86192 -0.248499,-2.01116 -0.88522,-2.1975 -0.582385,-0.17863 -1.025006,0.0856 -1.444311,0.13185 -1.343361,0.15553 -2.360591,-0.38035 -3.051695,-0.95511 -1.281241,-1.07159 -2.329525,-3.56414 -1.203592,-5.55979 0.100977,-0.18652 0.295099,-0.31049 0.271771,-0.52011 -0.05409,-0.55898 -1.49867,-0.466 -2.127633,-0.44234 -1.933521,0.0699 -2.91968,0.42713 -4.52707,0.75322 -0.644492,0.13186 -1.731617,0.38825 -2.407174,0.17074 -0.481447,-0.15552 -0.636756,-0.79982 -0.582385,-1.50644 0.108754,-1.43656 1.087109,-2.5237 1.716088,-3.33124 0.364972,0.761 1.211346,1.21911 2.065513,0.65224 0.302876,-0.20962 0.566866,-0.61341 0.823096,-0.68329 0.326148,-0.093 0.924062,-0.0169 1.335613,0 1.312313,0.0395 2.453764,0.16285 3.603014,0.37247 1.467599,0.2716 3.012848,0.71439 3.944664,1.37447 0.551319,0.38824 0.986181,1.22683 1.995646,1.03271 1.056054,-0.20962 0.84639,-1.92573 0.170737,-2.47705 -1.125932,-0.90852 -3.043907,-1.26571 -5.047301,-1.36669 -2.345072,-0.12397 -4.96967,-0.0857 -6.243158,-1.23461 -0.357196,-0.31837 -0.877467,-1.19584 -0.753229,-1.78598 0.178514,-0.86969 2.049989,-0.8542 2.228605,0.0699 -0.100978,0.0395 -0.388245,-0.40402 -0.792048,-0.34147 -0.147522,0.0169 -0.310596,0.10086 -0.341644,0.30259 -0.08548,0.55109 0.908515,0.88524 1.374409,1.03277 1.863626,0.57464 4.162103,0.62896 6.243163,0.89302 2.678952,0.33358 5.396751,1.52193 5.559813,3.94465 0.163018,2.47705 -2.733322,3.18367 -4.705668,1.98788 -0.574614,0.93957 -0.512495,2.41496 0.170737,3.26132 0.792048,0.96289 2.593555,1.43656 3.812678,0.62125 0.04677,0.83858 0.916286,0.17862 1.094878,-0.13975"
       style="fill:#c23833;fill-opacity:1;fill-rule:nonzero;stroke:none;stroke-width:1.98786867" />
    <path
       inkscape:connector-curvature="0"
       id="path168191"
       d="m 72.964724,137.19897 c -0.41935,-0.33358 -0.908533,-0.56687 -1.374432,-0.82309 -7.074019,-3.79713 -14.342166,-7.50107 -21.447244,-11.32153 0.17085,-0.33415 0.357197,-0.65224 0.512495,-0.99394 6.39845,3.33901 12.727016,6.7634 19.117712,10.11792 0.271771,-0.62897 0.590138,-1.35886 1.366661,-1.37441 0.396021,0 0.636733,0.37246 1.001683,0.13974 -0.163017,-0.87746 -1.529724,-0.76871 -1.995618,-0.24061 0.07771,-1.15696 1.110403,-2.15867 2.127639,-1.16473 0.08548,0.0857 0.512494,0.92401 0.823096,0.79204 0.100977,-0.0451 0.116473,-0.2254 0.108753,-0.34936 -0.08548,-0.70668 -0.916292,-0.8542 -1.133703,-1.22689 0.450398,-0.17074 1.03276,-0.13186 1.335591,0.0338 0.885215,0.466 0.807571,2.26737 1.886926,2.36835 0.691098,0.062 1.537495,0.006 2.337296,0.0282 0.551319,0.0169 1.149244,0.15553 1.576319,-0.10086 -0.232947,-1.01722 -0.776501,-2.50038 -0.209675,-3.43217 0.310596,-0.50488 0.900762,-0.76877 1.785977,-0.79204 0.178514,0.062 -0.147465,0.33415 0,0.48122 0.597914,0.0564 1.739388,-0.20173 2.267407,0.10876 -0.279548,0.72217 -0.543543,1.45983 -0.551319,2.36057 -0.0079,1.97239 1.304536,3.16817 2.368367,3.98354 -0.357197,-0.0451 -0.667804,-0.062 -0.924062,-0.17074 -0.2485,-0.10875 -0.357197,-0.34936 -0.621209,-0.41135 -0.163018,0.29527 0.264051,0.46601 0.240723,0.61342 -1.382202,-0.14764 -3.059465,-0.17863 -4.798853,-0.23272 -1.700541,-0.0564 -3.463223,0.0699 -4.977423,-0.0395 -0.621209,-0.0451 -1.242418,-0.25638 -1.615144,-0.55109 -0.411573,-0.31837 -0.644503,-1.04832 -1.063825,-1.06387 -0.341644,-0.006 -0.504718,0.32626 -0.683333,0.55109 8.036894,4.27087 16.081564,8.5339 24.157277,12.76588 -0.163018,0.31837 -0.318372,0.64452 -0.481446,0.96283 -6.771171,-3.51758 -13.456933,-7.10505 -20.212585,-10.63819 -0.333925,0.44291 -0.559096,0.91629 -1.444305,0.82315 -1.591844,-0.17863 -3.261358,-2.35285 -4.938621,-1.23466 0.326148,-0.51222 0.877467,-1.07159 1.855872,-0.99394 1.017213,0.0778 1.840331,0.75321 2.710022,1.13368 0.271772,0.11664 0.683328,0.31048 0.892992,-0.10875"
       style="fill:#c23833;fill-opacity:1;fill-rule:nonzero;stroke:none;stroke-width:1.98786867" />
    <path
       inkscape:connector-curvature="0"
       id="path168193"
       d="m 64.555098,133.25432 c 0.551318,0.59014 1.102643,1.2812 0.993935,2.53914 -0.07765,0.90857 -0.621209,1.71611 -1.164769,2.43828 -1.024994,1.35114 -2.259647,2.45377 -3.331231,3.80491 -0.691093,0.88524 -1.343367,1.80148 -1.164768,3.26131 -1.560784,-2.37607 0.97064,-4.63572 2.197528,-5.97136 0.559095,-0.60564 1.188063,-1.19578 1.716087,-1.85586 0.838631,-1.04048 1.793742,-2.73332 0.753218,-4.21642"
       style="fill:#c23833;fill-opacity:1;fill-rule:nonzero;stroke:none;stroke-width:1.98786867" />
    <path
       inkscape:connector-curvature="0"
       id="path168195"
       d="m 72.584227,138.57338 c -1.257942,2.09658 -3.634085,-1.86363 -5.629703,-0.41135 0.217395,-0.52799 0.737677,-0.92406 1.374409,-0.96289 0.698875,-0.0394 1.343384,0.31049 1.956822,0.62125 0.753223,0.38825 1.39771,0.93179 2.298472,0.75316"
       style="fill:#c23833;fill-opacity:1;fill-rule:nonzero;stroke:none;stroke-width:1.98786867" />
    <path
       inkscape:connector-curvature="0"
       id="path168197"
       d="m 81.475288,150.34532 c -0.986182,1.00171 -1.475376,2.73332 -1.374432,4.76774 0.0541,1.11048 0.131969,2.17429 -0.341701,2.95078 -0.225171,0.37247 -0.807572,0.79982 -1.33559,0.92407 -0.605685,0.14763 -1.506424,0.0564 -1.615144,0.62119 -0.06999,0.34936 0.18629,0.55109 0.201899,0.75322 -0.535767,-0.10876 -1.110403,-0.14764 -1.304537,-0.54377 -0.287324,-0.6057 0.34942,-1.07937 0.551319,-1.58409 -0.978411,-0.17073 -1.102655,1.21134 -0.823119,1.99566 -0.512494,-0.28738 -1.203592,-0.81537 -1.102632,-1.65401 0.08548,-0.65224 0.621209,-0.91629 0.962864,-1.36664 -0.84639,-0.10086 -0.95511,0.84637 -1.40548,1.26572 -0.621209,-1.25794 0.372749,-2.16646 1.335591,-2.46933 0.885237,0.0856 1.855872,0.17863 2.306242,-0.34148 0.403797,-0.48122 0.116473,-1.34336 0.271771,-2.12762 -3.587484,1.31225 -7.190498,-1.78599 -5.590878,-5.389 0.0541,-0.13186 0.34942,-0.39613 0.341644,-0.62125 -0.0231,-0.33415 -0.698858,-0.45812 -0.993935,-0.47389 -2.34505,-0.18652 -4.154327,0.48122 -6.041248,0.82309 -0.551319,0.093 -1.545259,0.31837 -2.057754,0.13185 -0.388245,-0.13185 -0.582384,-0.72217 -0.590149,-1.19584 -0.0231,-1.66173 1.079349,-2.72554 1.754912,-3.67288 0.341644,0.59014 0.854167,1.19578 1.716082,0.85414 0.217451,-0.0856 0.434845,-0.25639 0.61346,-0.41135 0.18629,-0.15496 0.364973,-0.42713 0.551319,-0.48122 0.349421,-0.093 0.877462,0.0225 1.304537,0.0394 2.174233,0.0857 4.061159,0.32626 5.761717,0.92401 0.652263,0.2254 1.366661,0.48911 1.824807,0.82309 0.582384,0.42713 1.102649,1.28904 2.057743,0.9629 0.830867,-0.27949 0.854161,-1.60736 0.380469,-2.22861 -0.47367,-0.62119 -1.467605,-1.02499 -2.43824,-1.27343 -2.764388,-0.70667 -7.446756,-0.14763 -9.100719,-1.91801 -0.333924,-0.36514 -0.706628,-1.16473 -0.613438,-1.65396 0.178514,-0.90073 2.003394,-0.91629 2.197528,0.0395 0.0079,0.15552 -0.12425,-0.12397 -0.240723,-0.20962 -0.411573,-0.27949 -1.009459,-0.10086 -0.93181,0.5201 0.06999,0.48911 0.877461,0.79199 1.413256,0.95506 0.605679,0.19441 1.296783,0.33415 1.917992,0.41135 1.490905,0.19384 2.989558,0.13975 4.395039,0.31048 2.422715,0.3026 5.225928,1.45984 5.420061,3.94472 0.201899,2.60907 -2.826507,3.41661 -4.806606,2.1975 -1.125944,2.62462 2.096567,4.69787 4.294095,3.19149 -0.201899,0.56682 0.846396,0.497 1.133726,0.20962"
       style="fill:#c23833;fill-opacity:1;fill-rule:nonzero;stroke:none;stroke-width:1.98786867" />
    <path
       inkscape:connector-curvature="0"
       id="path168199"
       d="m 70.868139,98.940288 c 6.173268,-0.295269 11.911685,1.250162 16.198027,3.082742 4.495988,1.93351 8.417374,4.57363 11.562242,7.7263 6.437282,6.42948 11.189542,14.5518 11.771922,26.7974 0.14752,3.12935 -0.2485,6.18104 -0.82312,8.82116 -1.69279,7.85049 -5.26473,14.15578 -10.016986,18.90804 -4.868726,4.86872 -10.552783,8.72023 -18.294594,10.63819 -2.609079,0.64452 -5.412291,0.98622 -8.510564,1.13374 -6.181039,0.29527 -11.725328,-1.18806 -16.128148,-3.09052 -4.503765,-1.94128 -8.43291,-4.51931 -11.601078,-7.68747 -4.845431,-4.84546 -8.696922,-10.60715 -10.638202,-18.28684 -0.652269,-2.59358 -0.978406,-5.36573 -1.125944,-8.51057 -0.295044,-6.18104 1.250182,-11.89613 3.051689,-16.16693 0.95511,-2.25965 2.166468,-4.39511 3.393356,-6.24319 1.281242,-1.91796 2.702257,-3.69616 4.325166,-5.31913 3.199228,-3.19921 6.740122,-6.02568 11.189527,-8.09899 2.158703,-1.00943 4.488234,-1.87913 7.105078,-2.5392 2.640138,-0.66779 5.412286,-1.017211 8.541629,-1.164732 m -3.191463,1.506432 c -0.178513,2.73327 -0.372749,5.44332 -0.512494,8.19991 0.691081,-0.0778 1.475353,-0.0778 2.158686,-0.17073 0.03099,-0.48911 -0.06204,-1.09486 0.06999,-1.47539 0.279547,0.0225 0.47367,-0.0338 0.722152,-0.0338 0.0541,0.497 0.139746,0.95512 0.201899,1.43656 0.737693,-0.0394 1.52197,-0.0394 2.166479,-0.17073 -0.644514,-2.62463 -1.118179,-5.42011 -1.817036,-7.99035 -0.978405,0.0857 -1.980111,0.14763 -2.98957,0.20173 m 7.897126,-0.0282 c -0.372749,2.6945 -0.776518,5.35017 -1.13372,8.06017 1.13372,0.14763 2.251899,0.31048 3.362302,0.48122 0.04677,-0.55898 0.170737,-1.04054 0.201898,-1.61513 -0.388245,-0.0857 -0.86192,-0.093 -1.234647,-0.20173 0.279548,-2.15874 0.613438,-4.26309 0.892992,-6.41399 -0.683328,-0.12397 -1.397733,-0.20173 -2.088814,-0.31048 m -12.152408,2.95071 c -0.2951,-0.85413 -0.768747,-1.65395 -1.886926,-1.58408 -1.242418,0.0857 -2.213052,0.74544 -3.292407,0.93184 0.784277,2.63235 1.615144,5.22593 2.469311,7.7884 0.652268,-0.2485 1.351126,-0.45023 2.096578,-0.69112 0.628974,-0.19384 1.584079,-0.41135 1.94904,-0.85414 0.47367,-0.56687 0.132026,-1.50644 -0.100977,-2.2286 -0.310596,-0.98617 -0.57462,-1.61514 -1.747153,-1.54526 0.714393,-0.2795 0.776512,-1.04049 0.512495,-1.81704 m 19.117706,-1.58408 c -0.869691,2.5858 -1.801507,5.11723 -2.647897,7.7263 1.087125,0.34147 2.143179,0.71439 3.199233,1.09486 0.194235,-0.497 0.349421,-1.04048 0.543543,-1.5452 -0.388245,-0.15553 -0.846396,-0.2485 -1.195822,-0.44291 0.675557,-2.06553 1.42878,-4.06118 2.088813,-6.14221 -0.675557,-0.21751 -1.343361,-0.4429 -1.98787,-0.69112 m 10.055835,5.28807 c -0.279547,-1.11819 -1.708333,-1.98788 -2.91968,-1.98788 -1.094901,-0.006 -1.576325,0.96284 -2.026717,1.67729 -0.240723,0.39613 -0.489222,0.80754 -0.753201,1.23461 -0.528047,0.86969 -1.203593,1.7316 -1.335607,2.60907 -0.271771,1.77821 2.259647,3.16039 3.773847,2.43828 0.706628,-0.34148 0.962887,-1.22689 1.475376,-1.88696 -0.621209,-0.34937 -1.211364,-0.73767 -1.817031,-1.10264 -0.194236,0.28738 -0.30282,0.54377 -0.520271,0.89302 -0.139746,0.23272 -0.396021,0.73766 -0.722152,0.72217 -0.07771,0 -0.318373,-0.12453 -0.341645,-0.31048 -0.03888,-0.34937 0.496942,-0.91624 0.691099,-1.23467 0.496942,-0.81531 0.916275,-1.55298 1.43654,-2.3994 0.232946,-0.37246 0.496942,-1.04826 0.892985,-1.03276 0.543543,0.0225 0.240723,0.59014 0.100978,0.83086 -0.279548,0.48911 -0.605668,0.9629 -0.823102,1.43657 0.628985,0.33358 1.172528,0.75321 1.817037,1.06381 0.341644,-0.92407 1.397726,-1.62291 1.071595,-2.95072 m -38.266473,-1.88696 c -1.03276,-0.36514 -2.306237,0.45023 -2.810966,0.9629 -0.248499,0.24849 -0.543543,0.68334 -0.590149,1.09486 -0.108698,1.07159 0.885221,2.30625 1.545254,2.60907 0.364972,0.16285 1.0017,0.17863 1.5142,0.20173 0.450398,0.0225 1.009465,-0.0699 1.405486,0.10875 0.232947,0.10087 0.861926,0.83087 0.792036,1.23467 -0.01521,0.0857 -0.12425,0.32626 -0.411573,0.31048 -0.442622,-0.0338 -0.729918,-1.11813 -0.96287,-1.30454 -0.605679,0.28738 -1.110414,0.6678 -1.685033,0.99394 0.628979,0.98617 0.947345,2.01893 2.438251,1.85586 1.102643,-0.12397 2.282941,-1.09486 2.508129,-2.02671 0.139802,-0.59792 -0.186346,-1.14146 -0.450398,-1.58408 -0.559095,-0.91624 -1.133709,-1.47533 -2.50037,-1.53748 -0.528047,-0.0338 -1.157004,0.11664 -1.646203,-0.0699 -0.263996,-0.10086 -1.133704,-1.35891 -0.310596,-1.30459 0.372749,0.0225 0.504718,0.72995 0.722152,0.92407 0.597914,-0.29527 1.157004,-0.64447 1.677269,-1.02499 -0.47367,-0.63674 -0.597914,-1.21911 -1.234658,-1.44428 m 42.180105,4.4261 c -0.916292,0.93179 -1.747158,1.87913 -2.849813,2.98954 -0.644504,0.63675 -1.436534,1.40552 -2.096585,2.12769 -0.155241,0.17073 -0.691081,0.69106 -0.683327,0.75316 0,0.062 0.551319,0.5201 0.613455,0.58242 0.652257,0.63675 1.250171,1.21911 1.886926,1.74716 0.318372,-0.42713 0.753201,-0.72995 1.063808,-1.16479 -0.256219,-0.33415 -0.628962,-0.55898 -0.892992,-0.89302 1.514201,-1.52971 2.974052,-3.12157 4.496,-4.63572 -0.458118,-0.5511 -1.001683,-1.02499 -1.537472,-1.50644 m -36.930888,2.88085 c -3.113809,1.4831 -5.785007,3.52536 -7.998064,5.90149 -2.282942,2.46155 -4.02233,5.01624 -5.45111,8.44841 -1.304537,3.12934 -2.345061,7.19825 -2.127639,11.76416 0.201899,4.2708 1.304537,7.90486 2.810966,11.08858 1.483141,3.12935 3.463246,5.80829 5.870426,8.02912 2.383891,2.20533 5.117214,4.05341 8.44068,5.45887 3.214752,1.35891 7.29143,2.3373 11.80296,2.12768 4.301888,-0.20961 7.904902,-1.31231 11.088588,-2.81874 3.129344,-1.48317 5.800548,-3.45549 8.029124,-5.87045 2.205304,-2.3839 4.053383,-5.125 5.458886,-8.43291 1.366662,-3.23027 2.337296,-7.19048 2.127638,-11.77965 -0.201898,-4.23976 -1.289012,-7.9748 -2.779917,-11.11192 -1.48313,-3.11379 -3.47877,-5.72287 -5.909256,-7.99801 -2.368345,-2.22083 -5.086143,-4.09224 -8.40185,-5.48998 -3.191463,-1.35114 -7.407909,-2.30625 -11.841795,-2.09658 -4.40281,0.20962 -7.959234,1.28127 -11.119637,2.77993 m -12.556183,-2.32953 c -1.180298,0.062 -3.05946,1.78598 -2.477076,3.22249 0.287324,0.69112 1.226888,1.52976 1.995635,1.71611 0.489223,0.12397 1.087114,-0.0451 1.54526,-0.13975 0.427069,-0.0778 0.900751,-0.27949 1.374421,-0.20173 0.326148,0.0563 1.094884,0.7144 1.056054,1.06382 -0.06215,0.70661 -0.830861,0.062 -1.024995,-0.13975 -0.155298,-0.14763 -0.465894,-0.59014 -0.582378,-0.58237 -0.07765,0.006 -0.287324,0.28738 -0.341645,0.34148 -0.396021,0.39613 -0.706622,0.72995 -1.032759,1.06381 0.628974,0.46601 0.892986,1.1027 1.646203,1.30454 1.358897,0.36514 2.97404,-1.20356 3.121579,-2.3994 0.116474,-0.91629 -0.458174,-1.35891 -0.892991,-1.78598 -0.582384,-0.56687 -1.079349,-0.97061 -2.158698,-0.89296 -0.660039,0.0563 -1.560789,0.49699 -2.197528,0.38035 -0.427069,-0.0778 -1.250182,-0.96289 -0.512494,-1.20356 0.411573,0.14764 0.559095,0.55898 0.924051,0.75322 0.465893,-0.45812 0.962869,-0.88524 1.37442,-1.40551 -0.737682,-0.50489 -0.838631,-1.14924 -1.817031,-1.09487 m 54.456736,4.7367 c -1.37443,0.95512 -2.880857,1.84031 -4.286337,2.81098 -0.753223,0.5201 -1.700563,1.00943 -1.785983,2.0267 -0.12425,1.46756 1.118179,3.16817 2.678952,2.98177 0.683328,-0.0778 1.234663,-0.59015 1.778229,-0.95512 1.498649,-1.00166 2.818719,-1.87135 4.294089,-2.81869 -0.33392,-0.63674 -0.76875,-1.17257 -1.1337,-1.78598 -1.76268,1.04048 -3.463243,2.36057 -5.218155,3.43216 -0.06204,0.0394 -0.706628,0.48122 -0.784271,0.0394 -0.04677,-0.24061 0.357196,-0.466 0.582384,-0.62119 1.692793,-1.16479 3.470992,-2.23638 5.047312,-3.39334 -0.39602,-0.56687 -0.75322,-1.17256 -1.17252,-1.71611 m -58.370357,7.9903 c 0.496942,0.30259 1.024995,0.69106 1.506435,0.82309 1.96457,0.53588 3.750547,-2.3528 2.578014,-3.87479 -0.287324,-0.37246 -0.908516,-0.69112 -1.405486,-0.99394 -1.521959,-0.93179 -3.168163,-1.92573 -4.534824,-2.74882 -0.372749,0.59787 -0.753218,1.19579 -1.094879,1.82481 1.467605,0.86192 2.9818,1.80148 4.457175,2.70999 0.240723,0.14764 1.421016,0.67557 1.343361,1.06382 -0.0932,0.43501 -0.698857,0 -0.760982,-0.0395 -1.863626,-1.03276 -3.571949,-2.2441 -5.38122,-3.22248 -0.333925,0.62896 -0.753212,1.16473 -1.063819,1.81703 1.374426,0.78426 2.927445,1.7937 4.356225,2.64012 m 55.349715,2.57802 c 0.240723,0.75322 0.47367,1.47539 0.753223,2.26743 0.326148,0.90852 0.597909,2.1043 1.824799,1.98783 0.76098,-0.0699 2.19753,-0.62897 2.53919,-1.03271 0.21745,-0.25639 0.25627,-0.6989 0.24072,-1.16479 0.23295,0.28738 0.34942,0.55898 0.72215,0.65224 0.50472,0.13185 1.37441,-0.23272 1.74714,-0.44234 0.17074,-0.10087 0.45812,-0.31838 0.58239,-0.48122 0.96288,-1.28127 -0.58239,-3.2536 -0.72215,-4.43388 -0.031,0 -0.0389,-0.0225 -0.07,-0.0338 -2.53921,0.89296 -5.03956,1.81703 -7.61759,2.67894 m -61.321068,-1.71611 c -0.364972,1.14146 -0.753217,2.26743 -1.133703,3.39334 2.578014,0.8542 5.109443,1.76271 7.718522,2.57803 0.209675,-0.67557 0.450398,-1.31232 0.652268,-1.98789 -1.056054,-0.39613 -2.213057,-0.69106 -3.222522,-1.13368 0.163074,-0.38036 0.279548,-0.79982 0.411573,-1.20362 -0.489222,-0.16285 -0.95511,-0.34147 -1.47537,-0.48122 -0.147521,0.41135 -0.240723,0.88519 -0.442621,1.23461 -0.450398,-0.19384 -0.970635,-0.31048 -1.413245,-0.51278 0.139745,-0.466 0.310595,-0.90851 0.450397,-1.37441 -0.512494,-0.17862 -1.024994,-0.34936 -1.545259,-0.51221 m 64.993968,32.45789 c -0.78427,-0.55898 -1.77044,-1.46761 -2.71002,-0.54377 0,-0.0394 0.03099,-0.0451 0.03099,-0.0699 0.13197,-0.2254 0.209675,-0.50489 0.178514,-0.89296 -0.613455,-0.87747 -2.189758,-2.13546 -3.331231,-1.20362 -0.807572,0.66007 -1.498676,2.08108 -2.127655,2.8498 2.220828,1.55303 4.379531,3.16817 6.623662,4.70565 0.37274,-0.61342 0.84639,-1.12591 1.20357,-1.75493 -1.00946,-0.66774 -1.97232,-1.38997 -2.958506,-2.08881 0.248499,-0.60569 0.799823,-0.2175 1.203596,0.062 0.72215,0.5201 1.52972,1.15701 2.12763,1.54526 0.38047,-0.53588 0.7843,-1.04826 1.13373,-1.60736 -0.41935,-0.26428 -0.88524,-0.64452 -1.37444,-1.00172 m -57.718056,2.36835 c 1.219117,-1.32009 2.609073,-2.4926 3.804901,-3.83596 -0.388245,-0.55109 -0.869691,-1.00171 -1.265712,-1.54526 -1.917981,1.94906 -3.773847,3.96021 -5.590879,6.00242 0.574614,0.64452 1.079349,1.35891 1.708323,1.95683 1.157003,-0.75322 2.329531,-1.49088 3.502064,-2.22861 -0.91628,1.06382 -1.879155,2.07331 -2.741082,3.19144 0.566849,0.6523 1.141469,1.29682 1.677263,1.98789 2.306237,-1.49089 4.573649,-3.02837 6.833296,-4.56585 -0.434846,-0.51222 -0.885221,-1.0095 -1.304537,-1.54526 -1.638438,0.98616 -3.144868,2.09657 -4.666833,3.19144 1.289007,-1.37441 2.710023,-2.61685 3.944681,-4.04564 -0.481446,-0.51221 -0.939581,-1.05604 -1.374426,-1.61513 -1.57632,0.95511 -3.043925,2.01115 -4.527059,3.05169 m 45.884057,1.44429 c -0.08548,0.0699 -0.760994,0.64452 -0.760994,0.72216 0,0.10087 0.520271,0.54377 0.65228,0.68335 1.133697,1.25794 2.119862,2.36835 3.191462,3.53314 0.458174,0.50489 0.955111,1.02499 1.646192,1.07159 1.281242,0.0778 2.61685,-1.09492 2.818737,-2.16651 0.217451,-1.18028 -0.636733,-1.91795 -1.203593,-2.5392 -1.180298,-1.29676 -2.35282,-2.57019 -3.50207,-3.81263 -0.217395,0.13186 -0.489166,0.39613 -0.854144,0.72217 -0.209675,0.18651 -0.722175,0.58237 -0.722175,0.69106 0,0.13186 0.47367,0.497 0.582384,0.61348 1.180298,1.32003 2.267423,2.51587 3.471022,3.8825 0.163018,0.17863 0.792025,0.8076 0.240723,0.88524 -0.333924,0.0564 -1.133703,-1.00166 -1.273471,-1.16473 -1.257964,-1.38996 -2.197528,-2.50038 -3.502065,-3.80491 -0.240723,0.2485 -0.481446,0.40402 -0.784277,0.68329 m -36.892069,0.0699 c -1.692799,2.11991 -3.307942,4.30963 -4.946381,6.48386 0.613444,0.37303 1.094879,0.87746 1.716093,1.23466 1.615138,-2.17423 3.300172,-4.27081 4.876491,-6.48386 -0.566855,-0.39613 -1.094884,-0.83086 -1.646203,-1.23466 m 34.865346,1.54526 c -0.590143,0.37303 -1.234647,0.68334 -1.824784,1.06381 0.504718,0.81537 0.955088,1.67729 1.444304,2.50038 -0.18629,0.10086 -0.357196,0.2175 -0.551319,0.31048 -0.442621,-0.85414 -0.939564,-1.66173 -1.405486,-2.50038 -0.652257,0.31838 -1.273465,0.6678 -1.848079,1.06382 1.366661,2.3218 2.647903,4.7367 4.045613,7.0274 0.56686,-0.36514 1.188069,-0.68329 1.785983,-1.02493 -0.489166,-1.06387 -1.14925,-1.96461 -1.646215,-3.02065 0.18629,-0.0699 0.349477,-0.17863 0.512495,-0.2716 0.566843,0.97839 1.118179,1.97233 1.685016,2.95072 0.636756,-0.33415 1.273488,-0.6678 1.848102,-1.06382 -1.374432,-2.32175 -2.655674,-4.72892 -4.045635,-7.03518 m -30.237339,1.54526 c -0.504718,-0.29526 -1.063819,-0.53588 -1.576313,-0.82309 -1.234658,2.40718 -2.477076,4.82213 -3.703963,7.23708 0.504718,0.27949 1.032759,0.55109 1.576319,0.79204 0.559095,-1.05604 1.079349,-2.14318 1.646203,-3.19144 -0.209675,1.25016 -0.450398,2.47705 -0.683328,3.70394 0.559095,0.2716 1.063819,0.59792 1.677263,0.82309 1.211358,-2.43045 2.484835,-4.79108 3.672898,-7.23708 -0.566854,-0.20962 -1.0017,-0.55898 -1.576314,-0.76099 -0.551318,1.05609 -1.056059,2.15095 -1.646208,3.16039 0.22517,-1.21134 0.380468,-2.50032 0.613443,-3.70394 m 24.879419,1.33559 c -1.436535,0.48911 -2.896386,0.94734 -4.356215,1.40551 0.12425,0.5511 0.310596,1.04049 0.481446,1.54526 0.42707,-0.0856 0.760994,-0.26427 1.203593,-0.34147 0.675574,2.05775 1.281242,4.18538 2.018941,6.17326 0.621209,-0.2485 1.320061,-0.41924 1.956794,-0.6523 -0.613433,-2.10435 -1.335585,-4.10001 -1.956794,-6.20436 0.419293,-0.0856 0.737677,-0.27949 1.172522,-0.34937 -0.155241,-0.54377 -0.318372,-1.07931 -0.52027,-1.57631 m -21.097807,0.44291 c -0.116473,0.55898 -0.295043,1.04054 -0.419293,1.58408 0.411573,0.10876 0.838632,0.19441 1.203587,0.34148 -0.574613,2.0733 -1.156998,4.14655 -1.716087,6.24313 0.683328,0.19441 1.335602,0.41135 2.057754,0.5511 0.551319,-2.10436 1.125944,-4.17761 1.716093,-6.24314 0.411573,0.093 0.776512,0.23272 1.203587,0.31048 0.12425,-0.52799 0.295044,-1.00949 0.411574,-1.54526 -1.467611,-0.42712 -2.966276,-0.83086 -4.457175,-1.24244 m 5.761717,1.41329 c -0.225171,2.70222 -0.465894,5.38894 -0.691104,8.099 1.219123,0.10086 2.422715,0.20172 3.641838,0.31048 0.0541,-0.52799 0.108754,-1.06382 0.139746,-1.61513 -0.512495,-0.0563 -1.032782,-0.093 -1.545271,-0.13975 0.108753,-0.55109 0.06204,-1.26571 0.201898,-1.78598 0.41935,0.0394 0.823119,0.093 1.273489,0.10086 0.04677,-0.50488 0.07771,-1.03276 0.131969,-1.53748 -0.450398,-0.0338 -0.931816,-0.0338 -1.296788,-0.13975 0.03888,-0.51221 0.06204,-1.03276 0.131969,-1.50643 0.427069,0.0699 0.939569,0.0699 1.374415,0.13185 0.06204,-0.5201 0.108754,-1.04831 0.139746,-1.61513 -1.141474,-0.12453 -2.337296,-0.20173 -3.502071,-0.30259 m 9.88498,3.39334 c 0.403797,-0.6057 0.03099,-2.24416 -0.240724,-2.67123 -0.776501,-1.22689 -3.214763,-0.41924 -4.565877,-0.38035 0.271771,2.70227 0.582367,5.36572 0.854144,8.06799 0.722158,-0.0451 1.374437,-0.16284 2.09659,-0.20961 -0.06204,-1.25022 -0.30282,-2.50816 -0.341644,-3.67295 0.621208,-0.11664 0.621208,0.39614 0.683327,0.8542 0.12425,0.91629 0.201899,2.0888 0.349421,2.74882 0.613438,-0.093 1.250171,-0.16285 1.917974,-0.20173 -0.364972,-1.52193 0.194236,-3.97571 -1.545248,-4.12323 0.341644,-0.11664 0.628962,-0.17074 0.792025,-0.41135"
       style="fill:#ffffff;fill-opacity:1;fill-rule:nonzero;stroke:none;stroke-width:1.98786867" />
    <path
       inkscape:connector-curvature="0"
       id="path168201"
       d="m 70.666252,110.74321 c 4.286342,-0.20173 8.29313,0.6989 11.422474,1.98788 3.144868,1.29682 5.932533,3.12157 8.099013,5.28808 2.314001,2.3062 4.239747,4.63578 5.699598,7.68747 1.428781,2.98955 2.515889,6.57701 2.710022,10.66924 0.209675,4.43388 -0.722152,8.22324 -2.026694,11.36036 -1.304537,3.1449 -3.082766,5.92477 -5.249223,8.1301 -4.325166,4.4261 -10.071359,8.01356 -18.356718,8.40959 -4.340708,0.20961 -8.246558,-0.7144 -11.399191,-2.02671 -3.168168,-1.31231 -5.917021,-3.07497 -8.130078,-5.2492 -4.488235,-4.39505 -8.021359,-10.17229 -8.409615,-18.35671 -0.209675,-4.43388 0.784277,-8.32422 2.026694,-11.36036 1.351132,-3.28464 2.98957,-5.83162 5.249218,-8.13009 4.39505,-4.48048 9.892749,-8.00585 18.3645,-8.40965 m 5.078367,7.30701 c -0.660033,1.11819 -1.778207,2.11207 -2.818737,3.19144 -0.993935,1.04054 -2.158686,2.2752 -2.25963,3.74281 -0.06204,0.81532 0.209618,1.35114 0.512494,1.78599 -0.232946,-1.26572 0.434846,-2.29848 1.03276,-3.09052 0.52799,-0.70662 1.12595,-1.35114 1.677263,-1.95684 1.188074,-1.30453 2.686728,-2.57024 2.919686,-4.35623 0.155241,-1.18806 -0.411574,-2.06553 -1.001711,-2.64012 0.745452,0.90852 0.489222,2.3839 -0.06204,3.32347 m -4.977423,3.50203 c 0.0541,0.16285 0.13197,0.72217 0.341644,0.79205 0.256276,0.0778 0.621209,-0.26372 0.861938,-0.48122 1.180298,-1.07937 2.37612,-2.16651 3.253565,-3.43222 0.364973,-0.52011 0.792048,-1.20356 0.861937,-1.85586 0.06999,-0.66779 -0.139745,-1.38219 -0.512494,-1.67723 -0.364973,-0.29527 -0.846419,-0.15496 -0.931816,0.24061 -0.06204,0.29527 0.209618,0.69107 -0.03099,0.95506 -0.310596,-0.10875 -0.248499,-0.69884 -0.209675,-1.06381 -0.489222,0.16285 -0.924039,0.2716 -1.506424,0.45023 -0.403797,0.12396 -1.281241,0.27949 -1.234646,0.75321 0.0079,0.13186 0.170737,0.2795 0.310596,0.31049 0.675557,0.16285 1.475358,-0.50489 2.088813,-0.20962 -0.139745,0.16285 -0.419349,0.17863 -0.683333,0.20962 -0.0231,0.38035 -0.163018,0.55898 -0.341701,0.61341 -0.481446,0.15496 -0.590138,-0.27949 -0.93181,-0.44234 -0.116474,-0.0563 -0.248499,-0.0338 -0.30282,-0.0699 -0.155241,-0.0857 -0.209675,-0.33415 -0.34942,-0.38036 -0.489222,0.20962 -0.962887,0.43502 -1.475376,0.6212 -0.0231,0.20961 0.04677,0.31837 0.03888,0.51221 0.30282,0.0394 0.582384,-0.10875 0.753223,0.0699 -0.489222,0.18652 -0.683333,0.9474 -0.450398,1.54532 0.458174,-0.45812 2.267424,-0.84642 2.407186,0.2716 -1.568548,-1.07937 -3.727252,1.03277 -5.117208,0.31048 0.03888,0.66002 0.450398,0.94734 0.823113,1.27349 0.364973,0.0451 0.675557,0.10087 1.001689,0 0.450398,-0.15552 0.94734,-0.45812 1.475375,-0.62125 0.520271,-0.16285 1.149228,-0.43501 1.677269,-0.0699 -0.279548,0.58237 -1.281248,0.56682 -2.088814,0.51221 0.06999,0.28738 0.163018,0.54377 0.271771,0.86192 m -0.450397,3.87478 c -0.0079,-0.25638 0.0777,-0.59014 0,-0.85414 -0.03888,-0.16284 -0.271772,-0.34147 -0.411574,-0.51221 -0.737682,-0.93184 -1.304542,-1.78598 -1.91798,-2.81875 -0.240723,-0.40402 -0.559095,-0.86969 -0.691104,-1.23466 -0.06999,-0.2254 -0.100978,-0.497 -0.06204,-0.79204 0.06999,-0.65224 0.396021,-1.38996 0.442621,-2.11985 0.08548,-1.31232 -0.248499,-2.30626 -1.615143,-1.92579 0.03888,0.20173 0.248499,0.31837 0.380525,0.62125 0.0541,0.10875 0.326148,0.93179 -0.06999,0.92401 -0.248499,-0.006 -0.287324,-0.75322 -0.411573,-0.99388 -0.434846,-0.84642 -1.4909,-0.6057 -2.158704,-0.0699 0.372749,0.10875 0.854162,0.34936 1.094879,0.68334 0.147522,0.20962 0.427069,0.69106 0.06987,0.93179 -0.310596,-0.41135 -0.481446,-1.02499 -1.094879,-1.00166 -0.543543,0.0225 -0.768747,0.57459 -0.861926,1.17251 0.9784,-0.13186 1.250182,0.66779 1.304536,1.40546 0.0231,0.30259 -0.07765,0.68334 0,1.02504 0.0621,0.2716 0.341645,0.61342 0.512495,0.93179 0.869697,1.59186 1.685022,3.16817 2.508118,4.69787 0.349477,0.6523 0.784294,1.24244 0.993935,1.92579 -1.358891,0.10875 -2.570243,0.16285 -3.121567,-0.69112 -0.232947,-0.35725 -0.163075,-0.77649 -0.310596,-1.30454 -0.287324,-1.02499 -1.723853,-1.58408 -2.640139,-0.68334 0.465894,0.17862 1.591849,0.4429 1.094885,1.03276 -0.520271,-0.26428 -1.04053,-0.91629 -1.785977,-0.65224 -0.590149,0.20962 -0.660034,1.09486 -0.753218,1.88691 0.225171,-0.0778 0.776512,-0.64452 1.405486,-0.6212 0.310596,0.0169 0.98617,0.33415 0.722152,0.65224 -0.652268,-0.0451 -1.529724,-0.13974 -1.886921,0.34148 -0.34942,0.48122 0.0231,1.15696 0.240724,1.44428 0.116473,0.14764 0.232946,0.35725 0.341644,0.31048 0.209675,-1.86363 1.630679,-0.39613 2.267412,0.10087 0.535766,0.41135 1.149238,0.69112 2.0267,0.68334 2.935216,0 6.561502,-0.27949 8.440674,0.86192 -0.302876,-1.50644 -2.08106,-1.8403 -2.849807,-2.77987 -0.170738,-0.21751 -0.18629,-0.41923 -0.372749,-0.48122 -0.644509,-0.20962 -1.545248,0.15552 -2.166457,0 -0.03099,-0.21751 -0.12425,-0.5201 0,-0.69112 0.178514,-0.0564 0.248499,0.27949 0.411573,0.34936 0.201899,-0.31048 0.799796,-0.37246 1.234641,-0.34936 -0.194178,-0.38036 -0.279547,-0.83087 -0.310595,-1.40551 m 2.166479,-8.64254 c -0.0079,0.3026 0.527991,0.31049 0.683334,0.0699 -0.01578,-0.43502 -0.683334,-0.37247 -0.683334,-0.0699 m 3.564189,3.0517 c -0.47367,0.65224 -1.04053,1.32003 -1.576319,1.8869 -1.141473,1.21911 -2.546959,2.51587 -2.911932,3.98354 -0.201899,0.77649 0.0231,1.49866 0.302876,1.95678 0.08548,0.13185 0.263995,0.41923 0.34942,0.34147 0.108754,-2.20533 1.374432,-3.46327 2.601309,-4.80663 1.289012,-1.39774 3.408897,-3.64961 2.267423,-6.31301 0.155241,1.28121 -0.403797,2.1043 -1.03276,2.95072 m 8.821166,-0.79204 c -0.691098,0.60564 -1.817048,-0.11664 -2.609073,-0.4429 -1.327837,-0.5511 -2.904156,-0.93179 -3.703958,0.31048 -0.01578,0.0282 -0.03888,0.0778 0,0.0282 0.372749,-0.22539 0.737677,-0.33358 1.304537,-0.2716 1.389939,0.15496 2.562484,1.56081 3.874774,1.50644 0.792048,-0.0282 1.032776,-0.65224 1.304542,-1.26572 -0.06999,-0.093 -0.116473,0.0857 -0.170738,0.13186 m -1.304536,1.40546 c -1.5375,0.0169 -2.46154,-1.48311 -4.084454,-1.43651 -0.768753,0.0225 -1.164774,0.46601 -1.50643,0.99394 1.475359,-1.06387 3.051678,0.72212 4.356215,1.03277 0.729928,0.17074 1.180298,-0.21751 1.304542,-0.6523 -0.0079,0.0395 -0.03888,0.0563 -0.06999,0.062 m 7.757341,11.88063 c -1.219123,0.81531 -3.020629,0.34147 -3.812677,-0.62125 -0.683328,-0.84636 -0.745447,-2.32175 -0.170738,-3.26131 1.972346,1.19578 4.868732,0.49699 4.705663,-1.98789 -0.163018,-2.41495 -2.880856,-3.61078 -5.559813,-3.94465 -2.08106,-0.26428 -4.379531,-0.31838 -6.243157,-0.89302 -0.465894,-0.14764 -1.459835,-0.48122 -1.374415,-1.03277 0.03099,-0.20173 0.194235,-0.28738 0.341644,-0.31048 0.403797,-0.0563 0.691104,0.39613 0.792047,0.34936 -0.178513,-0.92406 -2.057759,-0.94734 -2.236352,-0.0699 -0.116473,0.59014 0.411573,1.46755 0.760977,1.78598 1.273488,1.14147 3.898091,1.11036 6.243158,1.23461 2.003394,0.10087 3.921374,0.46601 5.047324,1.37447 0.675557,0.54376 0.885215,2.25965 -0.170738,2.46927 -1.009482,0.19384 -1.444333,-0.64447 -1.995663,-1.03277 -0.931816,-0.66001 -2.47707,-1.10264 -3.944669,-1.37441 -1.14925,-0.20962 -2.290701,-0.33415 -3.603014,-0.37246 -0.411573,-0.0169 -1.009459,-0.093 -1.335607,0 -0.256219,0.0699 -0.512495,0.48122 -0.823096,0.68334 -0.854167,0.56687 -1.700564,0.10087 -2.065519,-0.65224 -0.636733,0.80754 -1.599614,1.89468 -1.716088,3.33124 -0.04677,0.70656 0.100978,1.35886 0.58239,1.50638 0.675557,0.21751 1.770436,-0.0394 2.407169,-0.17074 1.60739,-0.32626 2.601325,-0.68334 4.52707,-0.75321 0.628963,-0.0225 2.07329,-0.11665 2.127638,0.4429 0.0231,0.20173 -0.170737,0.33415 -0.271771,0.5201 -1.125927,1.99566 -0.0777,4.4882 1.203599,5.55979 0.691098,0.57465 1.708333,1.11042 3.051694,0.95512 0.419294,-0.0451 0.861921,-0.31049 1.436535,-0.13186 0.644503,0.19384 0.97841,1.33559 0.892991,2.1975 -0.116474,1.20362 -1.941275,1.64624 -2.018924,2.7411 -0.06999,0.96289 0.993941,1.41323 1.576325,1.8869 -0.116474,-0.27949 -0.310596,-0.67556 -0.411574,-1.09486 -0.08548,-0.37303 -0.194235,-0.97844 0.310596,-1.06381 0.139746,0.2485 -0.03099,0.36514 -0.03888,0.65224 -0.0231,1.31231 1.312313,2.39945 2.438263,1.43656 -0.489223,-0.10875 -1.063831,-0.53588 -1.203599,-1.06381 -0.0541,-0.20962 -0.131969,-0.72217 0.178514,-0.82309 0.287324,0.24061 0.12425,0.66779 0.201899,0.96283 0.256275,0.94734 1.622914,0.8076 1.886926,-0.10086 -0.675557,0.14763 -0.892991,-0.4739 -0.652263,-0.96289 0.100978,-0.20173 0.419293,-0.36515 0.512495,-0.5511 0.131969,-0.2485 0.178514,-0.67557 0.139745,-1.06387 -0.131969,-1.30453 -1.063807,-2.79542 -1.164774,-4.32512 -0.08548,-1.19584 0.155242,-1.75494 0.551319,-2.57031 -0.186233,0.31837 -1.056054,0.97845 -1.102649,0.13975 m -16.508504,-8.65031 c -0.427069,0.497 -0.838626,1.03276 -1.265718,1.61513 -0.427069,0.56687 -0.892968,1.28126 -0.962864,1.91801 -0.108753,1.02499 0.465894,1.52193 1.203599,1.8869 -0.209675,-2.11213 0.776495,-3.37007 1.747135,-4.55813 0.924057,-1.12596 2.197528,-2.446 1.785977,-4.29413 -0.504718,1.15701 -1.529724,2.30625 -2.508129,3.43222 m 2.026689,1.5763 c 0.434845,0.17863 1.017235,-0.10875 1.234669,-0.2716 0.147466,-0.10875 0.349421,-0.2716 0.310596,-0.38035 -1.040535,-0.0451 -1.273494,-0.89302 -1.304542,-1.95684 -0.403797,0.48122 -1.188074,2.22083 -0.240723,2.60908 m -4.76776,12.05142 c -0.877467,-0.38035 -1.685039,-1.05604 -2.710022,-1.13368 -0.978411,-0.0778 -1.529747,0.48122 -1.855878,0.99394 1.677263,-1.11819 3.346778,1.05603 4.946375,1.23466 0.877467,0.093 1.102649,-0.37303 1.436551,-0.82309 6.755658,3.53314 13.441414,7.1206 20.212596,10.63819 0.163018,-0.31837 0.318372,-0.64452 0.481447,-0.96289 -8.075725,-4.23198 -16.128165,-8.49501 -24.157289,-12.76582 0.178514,-0.2254 0.341701,-0.55898 0.683334,-0.55109 0.419349,0.0169 0.652279,0.74544 1.063824,1.06381 0.380469,0.29527 0.993935,0.50489 1.61515,0.55109 1.514194,0.10876 3.269106,-0.0169 4.977423,0.0394 1.739382,0.0564 3.416645,0.0857 4.798853,0.23272 0.0231,-0.14764 -0.403797,-0.31837 -0.240723,-0.61342 0.264051,0.062 0.372749,0.3026 0.621208,0.41135 0.256276,0.10876 0.56686,0.12453 0.924063,0.17074 -1.063831,-0.81537 -2.376143,-2.01115 -2.368373,-3.97576 0.0079,-0.90852 0.271772,-1.64618 0.551319,-2.37613 -0.52799,-0.30259 -1.669492,-0.0451 -2.267401,-0.10086 -0.147465,-0.14764 0.178514,-0.41924 0,-0.48123 -0.885215,0.0225 -1.475375,0.28738 -1.778206,0.79205 -0.574614,0.93184 -0.03099,2.41495 0.201898,3.43216 -0.434845,0.25639 -1.017235,0.11664 -1.576319,0.10087 -0.799801,-0.0225 -1.646197,0.0282 -2.337302,-0.0338 -1.079348,-0.10087 -1.001699,-1.90246 -1.88692,-2.36835 -0.30282,-0.16285 -0.885215,-0.20173 -1.335585,-0.0395 0.217394,0.38036 1.048278,0.52799 1.133697,1.24238 0.0079,0.11665 -0.0079,0.29527 -0.108753,0.34148 -0.310596,0.13186 -0.737677,-0.70662 -0.823096,-0.79204 -1.017236,-0.99394 -2.049989,0.006 -2.127638,1.16479 0.465893,-0.52799 1.83256,-0.6368 1.995623,0.24061 -0.364972,0.23272 -0.597914,-0.13975 -0.993935,-0.13186 -0.784277,0.006 -1.102632,0.73772 -1.374415,1.36664 -6.390685,-3.35452 -12.711486,-6.77891 -19.117707,-10.11792 -0.155297,0.34147 -0.341644,0.66007 -0.512494,0.99394 7.105078,3.82046 14.373225,7.5244 21.447238,11.32153 0.465894,0.25639 0.95511,0.497 1.374432,0.82315 -0.209675,0.41924 -0.621209,0.22539 -0.892992,0.10875 m -12.595007,2.77215 c 0.05409,0.17863 0.194123,0.71439 0.411574,0.76099 0.209674,0.0394 0.613443,-0.33415 0.823101,-0.5201 1.226888,-1.09486 2.391651,-2.18972 3.292407,-3.49426 0.605679,-0.87747 1.312301,-2.5237 0.310596,-3.43222 -0.481446,-0.4429 -0.962876,0.0338 -0.962876,0.4739 0.0079,0.20962 0.232947,0.51221 0,0.72217 -0.310595,-0.093 -0.256275,-0.7144 -0.201898,-1.06382 -0.504719,0.13186 -0.94734,0.27949 -1.514195,0.45023 -0.419293,0.12397 -1.296771,0.25639 -1.265712,0.72217 0.0079,0.17074 0.232947,0.31837 0.442622,0.34148 0.613444,0.0563 1.47537,-0.497 1.995635,-0.20962 -0.17085,0.13974 -0.465894,0.15496 -0.722158,0.20962 0.0079,0.33415 -0.132026,0.56687 -0.341644,0.61347 -0.551319,0.13185 -0.504719,-0.26372 -0.892986,-0.48122 -0.155298,-0.0778 -0.318372,-0.0225 -0.411573,-0.10087 -0.147522,-0.10875 -0.139802,-0.34147 -0.240723,-0.34147 -0.489223,0.23272 -1.0017,0.44234 -1.5142,0.65224 -0.0079,0.1944 0.06215,0.30316 0.03888,0.51221 0.225171,0.006 0.590149,-0.11664 0.753218,0.0394 -0.08543,0.19385 -0.2951,0.17074 -0.411573,0.37247 -0.186347,0.31837 -0.108698,0.8076 -0.03099,1.20362 0.52027,-0.52799 2.267412,-0.8076 2.430474,0.24061 -1.545254,-1.07931 -3.455469,0.97844 -5.109443,0.31048 0.0541,0.91629 0.815337,1.59958 1.785977,1.26571 0.823102,-0.27949 1.886927,-0.94734 2.810972,-0.85419 0.100977,0.006 0.287324,0 0.341644,0.17074 -0.217451,0.65224 -1.358891,0.5201 -2.088814,0.55109 0.12425,0.26428 0.170851,0.56681 0.271772,0.88519 m 4.325143,-2.6013 c -0.528046,0.6523 -1.156997,1.24238 -1.716087,1.84808 -1.226888,1.33558 -3.758312,3.59524 -2.197528,5.97136 -0.17857,-1.45983 0.47367,-2.37612 1.164769,-3.26131 1.071584,-1.35114 2.306236,-2.45378 3.331231,-3.80491 0.543542,-0.72217 1.087119,-1.52971 1.164768,-2.43828 0.108697,-1.25794 -0.442622,-1.949 -0.993935,-2.53915 1.040524,1.48311 0.09314,3.17589 -0.753218,4.22421 m -4.736717,5.66077 c -0.877455,-1.05604 -1.638438,-2.13541 -2.368361,-3.36229 -0.372749,-0.62903 -0.892986,-1.21134 -0.722152,-2.12763 0.147522,-0.8076 0.496942,-1.70056 0.450398,-2.60913 -0.05409,-0.94728 -0.590149,-1.68501 -1.653968,-1.27349 0.17857,0.25639 0.807571,0.99394 0.380468,1.51421 -0.364973,-0.093 -0.30282,-0.55109 -0.411573,-0.82309 -0.108697,-0.26427 -0.318372,-0.59792 -0.582384,-0.69112 -0.613444,-0.20962 -1.195828,0.17863 -1.615144,0.45023 0.411573,0.12453 0.947346,0.42713 1.164768,0.82309 0.116474,0.19384 0.318372,0.63674 -0.03099,0.78432 -0.287323,-0.41135 -0.489222,-1.01727 -1.094907,-0.99394 -0.504718,0.0225 -0.784271,0.5511 -0.823101,1.17251 1.094884,-0.12396 1.265718,0.86969 1.296777,1.74716 0.01578,0.20962 -0.0621,0.45812 -0.03099,0.65224 0.03888,0.2485 0.349421,0.62125 0.512495,0.92407 1.063819,1.9335 2.018929,3.80491 3.020624,5.66854 0.17085,0.31049 0.450397,0.61342 0.481446,0.99394 -1.584101,0.17863 -2.927468,0.0282 -3.292429,-1.10263 -0.08543,-0.2485 -0.01578,-0.52011 -0.108698,-0.8542 -0.124249,-0.5201 -0.768747,-1.14924 -1.335601,-1.20356 -0.528047,-0.0451 -0.931811,0.18652 -1.335597,0.48122 0.47367,0.19441 1.4909,0.33415 1.164763,0.99394 -0.621209,-0.20962 -1.133703,-0.90074 -1.848096,-0.61341 -0.597908,0.22539 -0.644503,1.09486 -0.760977,1.8869 0.380469,-0.37247 1.879156,-1.09486 2.197522,-0.0699 -0.201898,0.20962 -0.512494,0.0394 -0.753212,0.0338 -0.411573,-0.006 -0.900756,0.093 -1.133708,0.34147 -0.520271,0.55899 0.05409,1.61514 0.551319,1.81703 0.124249,-1.81703 1.521959,-0.48911 2.088813,0 0.442622,0.38825 1.110414,0.7144 1.785977,0.761 3.074984,0.21751 6.92648,-0.41135 8.852226,0.89296 -0.357197,-1.56075 -2.057749,-1.7937 -2.911916,-2.8498 -0.116473,-0.13974 -0.124249,-0.32626 -0.310596,-0.41134 h -2.197539 c -0.0231,-0.20173 -0.100977,-0.58243 0.03888,-0.72217 0.194122,0.062 0.240723,0.27949 0.372749,0.41135 0.186346,-0.31838 0.722152,-0.45812 1.234652,-0.34148 -0.240723,-0.59792 -0.357196,-1.49094 -0.271771,-2.29848 m 2.810972,-7.82727 c 0.03888,-0.2716 -0.263996,-0.31837 -0.481447,-0.24061 -0.605678,0.22539 0.411574,0.72994 0.481447,0.24061 m 2.779912,3.19149 c -0.489223,0.64447 -1.056054,1.25016 -1.607379,1.85586 -1.118179,1.21134 -2.554725,2.48482 -2.818737,4.11551 -0.116473,0.72989 0.163074,1.38218 0.442622,1.78598 0.06987,0.093 0.163074,0.27949 0.279548,0.24061 0.01578,-2.21305 1.529729,-3.66511 2.609078,-4.83762 1.094885,-1.19584 2.438246,-2.5392 2.57026,-4.32518 0.06204,-0.77655 -0.0541,-1.38996 -0.302876,-1.92573 0.07765,1.4365 -0.504718,2.22855 -1.172528,3.09052 m 5.629703,-0.68335 c -0.613432,-0.31837 -1.257941,-0.66007 -1.956816,-0.62119 -0.636733,0.0394 -1.156998,0.43502 -1.374415,0.96284 1.995624,-1.45206 4.371761,2.50815 5.629708,0.41135 -0.900767,0.17862 -1.5375,-0.36515 -2.298477,-0.75322 m 10.055813,12.31547 c -2.197528,1.50644 -5.42004,-0.56687 -4.29409,-3.19149 1.980094,1.21911 5.008494,0.40402 4.806607,-2.18973 -0.194236,-2.4926 -2.997352,-3.64183 -5.420068,-3.95243 -1.40548,-0.17074 -2.904133,-0.11664 -4.395039,-0.31048 -0.621208,-0.0778 -1.312307,-0.21751 -1.917991,-0.41135 -0.535767,-0.16285 -1.343361,-0.46601 -1.413257,-0.95512 -0.0777,-0.62119 0.520271,-0.79982 0.931811,-0.51221 0.116473,0.0778 0.248499,0.35725 0.240723,0.20173 -0.194236,-0.9474 -2.018936,-0.93184 -2.197528,-0.0282 -0.0932,0.48123 0.279547,1.28121 0.613438,1.64619 1.653968,1.77043 6.336331,1.21139 9.100719,1.918 0.97064,0.2485 1.964575,0.66002 2.438239,1.27344 0.47367,0.62124 0.450398,1.94905 -0.380468,2.2286 -0.947335,0.31837 -1.483124,-0.52799 -2.057738,-0.96289 -0.458174,-0.33359 -1.172544,-0.59792 -1.824801,-0.82309 -1.700563,-0.59792 -3.58749,-0.83865 -5.761723,-0.92401 -0.419349,-0.0169 -0.95511,-0.13186 -1.304536,-0.0395 -0.18629,0.0564 -0.364973,0.32626 -0.551319,0.48122 -0.178514,0.16285 -0.396021,0.32626 -0.613456,0.41135 -0.861914,0.34148 -1.374415,-0.26428 -1.716076,-0.85414 -0.675568,0.94734 -1.778212,2.01116 -1.754917,3.67289 0.0079,0.46601 0.201898,1.06381 0.590149,1.19584 0.512494,0.17862 1.506429,-0.0394 2.057754,-0.13186 1.886921,-0.34147 3.696198,-1.00944 6.041248,-0.83087 0.2951,0.0282 0.970657,0.14764 0.993935,0.48123 0.0079,0.2175 -0.287324,0.4891 -0.341644,0.62119 -1.59962,3.60301 2.003394,6.70131 5.590878,5.38899 -0.155242,0.78433 0.131969,1.64624 -0.271771,2.12769 -0.450342,0.5201 -1.421005,0.43501 -2.306243,0.34147 -0.962869,0.30316 -1.956799,1.21134 -1.33559,2.46927 0.450398,-0.41923 0.559095,-1.36663 1.40548,-1.26571 -0.341644,0.45023 -0.877467,0.71439 -0.962864,1.37447 -0.100977,0.83086 0.590138,1.35885 1.102632,1.64618 -0.279547,-0.78427 -0.155241,-2.16645 0.823119,-1.99566 -0.201899,0.50489 -0.838643,0.97839 -0.551319,1.58408 0.194235,0.39614 0.768747,0.42713 1.304536,0.54377 -0.01578,-0.20173 -0.271771,-0.40402 -0.201898,-0.75322 0.108753,-0.56681 1.009459,-0.47389 1.607373,-0.61341 0.535767,-0.13186 1.118173,-0.56687 1.343361,-0.93184 0.47367,-0.77649 0.396021,-1.84031 0.341644,-2.95072 -0.100977,-2.03443 0.388245,-3.76603 1.374438,-4.76775 -0.287324,0.28738 -1.335613,0.35725 -1.133726,-0.20962 M 63.63119,142.07468 c -0.892991,1.04054 -1.949045,2.13546 -2.267412,3.39339 -0.2951,1.17251 0.434846,1.74716 1.164763,2.12763 -0.40391,-3.81996 2.966134,-4.71292 3.571813,-7.61709 0.0777,-0.37303 0.0541,-0.79205 -0.03888,-1.23467 0,-0.0225 0,-0.0394 -0.03099,-0.0338 -0.46595,1.18029 -1.452097,2.25188 -2.399443,3.36229 m 1.817037,1.61514 c 0.388244,0.2485 1.025,0.006 1.304559,-0.17863 0.186233,-0.11664 0.403797,-0.30259 0.372749,-0.41135 -1.040542,-0.0451 -1.28903,-0.90079 -1.296795,-1.98788 -0.34942,0.51278 -1.211357,2.03443 -0.380468,2.57803 m 2.057759,5.17932 c -0.06999,0.62897 0.0231,1.59186 0.341701,2.29847 0.225171,0.50489 0.698858,0.86192 0.621209,1.37441 -0.768748,0.3026 -1.615138,0.497 -2.469317,0.75322 -0.792042,0.23272 -1.700563,0.67557 -2.477069,0.75322 -0.823102,0.0856 -0.861932,-0.4739 -1.234658,-0.99394 -0.551319,-0.77649 -1.754912,-0.83864 -2.570249,-0.24061 0.745453,0.13974 1.716087,0.40402 1.576319,1.20361 -0.675568,-0.18651 -0.916286,-0.85419 -1.716093,-0.82314 -0.799807,0.0282 -1.118173,0.87746 -1.195828,1.77826 0.380469,-0.33415 1.98787,-0.99394 2.158704,0 -0.396021,0.18651 -0.528047,-0.17863 -0.962876,-0.13186 -0.776507,0.0699 -1.01723,1.23461 -0.722152,1.98783 0.08543,0.20962 0.318372,0.5201 0.450398,0.48122 -0.132026,-0.61342 0.17085,-1.29676 0.652268,-1.27343 0.217394,0.0169 0.411573,0.32626 0.543543,0.45023 0.442621,0.39613 0.776512,0.57459 1.615143,0.51277 1.700558,-0.13185 3.447711,-0.77654 5.117209,-1.30453 1.685039,-0.53588 3.323483,-1.1182 5.078389,-1.37441 0.0079,-0.13186 -0.465894,-0.37247 -0.240723,-0.61348 0.411573,0.27161 1.024989,0.52799 1.716087,0.41135 -1.11042,-0.77654 -2.383891,-1.82486 -2.508129,-3.63412 -0.06204,-0.97061 0.248499,-1.86363 0.481446,-2.57802 -0.574636,-0.25639 -1.731634,0.0169 -2.267423,-0.10087 -0.08548,-0.24061 0.209674,-0.41923 0.06999,-0.48122 -1.211369,0.0282 -1.949045,0.5511 -2.05776,1.54526"
       style="fill:#ffffff;fill-opacity:1;fill-rule:nonzero;stroke:none;stroke-width:1.98786867" />
  </g>
</svg>
