<?xml version="1.0" encoding="UTF-8" standalone="no"?>
<!DOCTYPE svg PUBLIC "-//W3C//DTD SVG 1.0//EN" "http://www.w3.org/TR/2001/REC-SVG-20010904/DTD/svg10.dtd">
<svg
   xmlns:svg="http://www.w3.org/2000/svg"
   xmlns="http://www.w3.org/2000/svg"
   version="1.0"
   width="140"
   height="140"
   id="svg2">
  <defs
     id="defs4">
    <clipPath
       id="clipPath2594">
      <path
         d="M 214.25,854.95 L 441.02,854.95 L 441.02,708.24 L 214.25,708.24 L 214.25,854.95 z"
         id="path2596" />
    </clipPath>
  </defs>
  <g
     transform="translate(303.3566,-266.08936)"
     id="layer1">
    <g
       transform="matrix(1.25,0,0,-1.25,107.76786,1163.9024)"
       id="g2412">
      <g
         transform="translate(-603.42857,-123.42857)"
         clip-path="url(#clipPath2594)"
         id="g2592">
        <g
           transform="translate(5.0911688,-5.0911688)"
           id="g3008">
          <path
             d="M 298.272,824.805 C 295.343,821.85 292.881,818.61 290.911,815.162 C 292.129,816.77 293.477,818.299 294.954,819.777 C 312.736,837.558 341.74,837.558 359.521,819.777 C 374.373,804.924 376.836,782.245 366.882,764.826 C 380.517,782.711 379.168,808.476 362.839,824.805 C 345.058,842.586 316.053,842.586 298.272,824.805"
             id="path2610"
             style="fill:#231f20;fill-opacity:1;fill-rule:nonzero;stroke:none" />
          <path
             d="M 360.506,780.145 C 360.325,781.752 359.833,783.333 359.055,784.785 C 359.314,784.007 359.469,783.229 359.573,782.399 C 360.661,772.576 349.956,763.945 335.727,763.167 C 323.881,762.545 313.202,767.6 309.34,774.987 C 312.036,766.381 323.622,757.594 336.66,758.295 C 350.89,759.046 361.595,770.295 360.506,780.145"
             id="path2612"
             style="fill:#1573c4;fill-opacity:1;fill-rule:nonzero;stroke:none" />
          <path
             d="M 369.086,792.172 C 368.36,795.93 367.142,799.507 365.509,802.799 C 366.105,801.01 366.598,799.196 366.96,797.304 C 371.392,774.468 356.385,752.229 333.523,747.797 C 314.498,744.116 295.862,753.966 287.645,770.606 C 294.28,750.907 314.732,738.595 335.675,742.664 C 358.511,747.096 373.518,769.336 369.086,792.172"
             id="path2614"
             style="fill:#231f20;fill-opacity:1;fill-rule:nonzero;stroke:none" />
          <path
             d="M 325.074,841.679 C 329.661,841.679 334.094,841.057 338.344,839.916 C 336.141,840.202 333.86,840.357 331.606,840.357 C 303.767,840.357 281.061,817.651 281.061,789.839 C 281.061,766.589 296.873,746.942 318.282,741.084 C 293.632,744.401 274.529,765.63 274.529,791.16 C 274.529,818.999 297.235,841.679 325.074,841.679"
             id="path2616"
             style="fill:#231f20;fill-opacity:1;fill-rule:nonzero;stroke:none" />
          <path
             d="M 304.597,802.851 L 304.597,811.223 L 310.688,811.223 L 310.688,812.338 L 304.597,812.338 L 304.597,818.999 L 311.284,818.999 L 311.284,820.14 L 301.357,820.14 L 301.357,802.851 L 304.597,802.851 z M 327.795,817.029 C 326.292,819.18 323.829,820.606 321.108,820.606 C 316.053,820.606 311.984,816.795 311.984,811.275 C 311.984,806.453 315.924,802.359 320.797,802.359 C 324.114,802.359 326.732,803.706 328.313,806.946 L 327.173,807.516 C 326.188,805.235 323.985,803.732 321.445,803.732 C 317.453,803.732 315.483,807.516 315.483,811.404 C 315.483,816.407 317.634,819.491 321.833,819.491 C 324.14,819.491 325.566,817.962 326.836,816.355 L 327.795,817.029"
             id="path2618"
             style="fill:#231f20;fill-opacity:1;fill-rule:nonzero;stroke:none" />
          <path
             d="M 348.868,807.128 L 348.868,807.568 C 349.853,807.646 350.398,809.175 350.398,810.912 C 350.398,811.923 350.034,813.971 348.946,813.971 C 348.92,813.971 348.894,813.971 348.868,813.971 L 348.868,814.411 C 348.92,814.411 348.972,814.411 349.049,814.411 C 350.708,814.411 351.668,812.934 351.668,811.223 C 351.668,809.356 350.812,807.258 348.868,807.128 z M 348.868,814.411 L 348.868,813.971 C 347.857,813.892 347.313,812.363 347.313,810.626 C 347.313,809.616 347.676,807.568 348.764,807.568 C 348.79,807.568 348.842,807.568 348.868,807.568 L 348.868,807.128 C 348.79,807.128 348.738,807.128 348.661,807.128 C 346.976,807.128 346.043,808.605 346.043,810.315 C 346.043,812.182 346.898,814.282 348.868,814.411 z M 342.751,807.128 L 342.751,807.568 C 343.736,807.646 344.28,809.175 344.28,810.912 C 344.28,811.923 343.917,813.971 342.803,813.971 C 342.777,813.971 342.751,813.971 342.751,813.971 L 342.751,814.411 C 342.803,814.411 342.855,814.411 342.932,814.411 C 344.591,814.411 345.55,812.934 345.55,811.223 C 345.55,809.356 344.695,807.258 342.751,807.128 z M 342.751,814.411 L 342.751,813.971 C 341.74,813.892 341.195,812.363 341.195,810.626 C 341.195,809.616 341.533,807.568 342.647,807.568 C 342.673,807.568 342.699,807.568 342.751,807.568 L 342.751,807.128 C 342.673,807.128 342.621,807.128 342.544,807.128 C 340.859,807.128 339.926,808.605 339.926,810.315 C 339.926,812.182 340.781,814.282 342.751,814.411 z M 337.022,807.258 L 337.022,809.486 L 337.36,810.29 C 337.256,810.264 337.126,810.213 337.022,810.186 L 337.022,810.575 C 337.826,810.653 338.111,811.638 338.111,812.467 C 338.111,813.089 337.878,813.971 337.1,813.971 C 337.075,813.971 337.049,813.971 337.022,813.971 L 337.022,814.411 C 337.1,814.411 337.178,814.411 337.256,814.411 C 338.371,814.411 339.226,813.581 339.226,812.363 C 339.226,811.845 339.148,811.508 338.889,810.938 L 337.178,807.258 L 337.022,807.258 z M 332.668,813.867 L 332.668,807.258 L 333.783,807.258 L 333.783,814.411 L 331.813,814.255 L 331.813,813.815 L 332.668,813.867 z M 337.022,814.411 L 337.022,813.971 C 336.167,813.919 335.908,812.934 335.908,812.104 C 335.908,811.482 336.141,810.575 336.919,810.575 C 336.945,810.575 336.971,810.575 337.022,810.575 L 337.022,810.186 C 336.867,810.161 336.711,810.134 336.505,810.134 C 335.416,810.134 334.793,810.989 334.793,811.948 C 334.793,813.245 335.804,814.282 337.022,814.411 z M 337.022,809.486 L 337.022,807.258 L 336.012,807.258 L 337.022,809.486"
             id="path2620"
             style="fill:#231f20;fill-opacity:1;fill-rule:nonzero;stroke:none" />
          <path
             d="M 351.46,771.15 L 352.445,773.846 L 338.682,773.846 L 350.32,805.495 L 343.865,805.495 L 331.243,771.15 L 351.46,771.15"
             id="path2622"
             style="fill:#231f20;fill-opacity:1;fill-rule:nonzero;stroke:none" />
          <path
             d="M 328.599,771.15 L 341.222,805.495 L 334.768,805.495 L 322.144,771.15 L 328.599,771.15"
             id="path2624"
             style="fill:#231f20;fill-opacity:1;fill-rule:nonzero;stroke:none" />
          <path
             d="M 312.113,805.495 L 305.322,805.495 L 310.455,791.446 L 307.007,782.659 L 298.428,805.495 L 291.87,805.495 L 305.011,770.191 L 305.115,770.191 L 312.062,787.532 L 318.567,770.191 L 318.671,770.191 L 332.59,805.495 L 329.531,805.495 L 320.797,782.814 L 312.113,805.495"
             id="path2626"
             style="fill:#231f20;fill-opacity:1;fill-rule:nonzero;stroke:none" />
        </g>
      </g>
    </g>
  </g>
</svg>
