<?xml version="1.0" encoding="UTF-8"?>
<svg xmlns="http://www.w3.org/2000/svg" xmlns:xlink="http://www.w3.org/1999/xlink" version="1.1" id="Calque_1" x="0px" y="0px" viewBox="0 0 256 256" style="enable-background:new 0 0 256 256;" xml:space="preserve">
<style type="text/css">
	.st0{fill:#F40000;}
</style>
<g>
	<g>
		<g>
			<g>
				<g>
					<polygon class="st0" points="48.7,16 42.9,24.3 42.5,24.3 36.5,16 21.9,16 35.4,34.8 21.9,53.6 36.5,53.6 42.4,45.3 42.9,45.3        48.7,53.6 63.3,53.6 49.9,34.8 63.3,16      "></polygon>
				</g>
				<g>
					<polygon class="st0" points="137.2,16 128.7,26.7 128.4,26.7 119.8,16 107.2,16 107,53.6 119.7,53.6 119.7,33.9 120.1,33.9        128.4,43.5 128.7,43.5 137,33.9 137.4,33.9 137.4,53.6 150,53.6 149.9,16      "></polygon>
				</g>
				<g>
					<polygon class="st0" points="235.2,16 220.7,16 214.8,24.3 214.5,24.3 208.5,16 193.8,16 207.3,34.8 193.8,53.6 208.5,53.6        214.3,45.3 214.8,45.3 220.7,53.6 235.2,53.6 221.8,34.8      "></polygon>
				</g>
				<g>
					<path class="st0" d="M74.7,16L63.7,53.6h13l2-7.5L90.3,46l2,7.6h13.1L94.5,16H74.7z M85,25.9l2.4,9.1h-5.6l2.4-9.1H85z"></path>
				</g>
				<g>
					<path class="st0" d="M162.6,16l-10.9,37.6h13l2-7.5l11.6-0.1l2,7.6h13L182.4,16H162.6z M173,25.9l2.4,9.1h-5.6l2.4-9.1H173z"></path>
				</g>
			</g>
			<g>
				<g>
					<path class="st0" d="M41.9,241.9l83.4-86.4l-83-86H19.7L19,84.2c11.6,0.5,18.8,10,26.9,18.7l50.7,52.8l-50.7,52.8l0,0       c-8.1,8.8-15.2,18.2-26.9,18.7l0.7,14.6L41.9,241.9z"></path>
				</g>
				<g>
					<polygon class="st0" points="167.9,69.5 168.6,80.4 128.5,122.4 88.6,80.8 89.4,69.5 48.6,69.5 128.5,152.2 208.4,69.5             "></polygon>
				</g>
				<g>
					<polygon class="st0" points="89.4,241.9 88.6,230.6 128.5,189.1 168.6,230.9 167.9,241.9 208.8,241.9 128.5,158.7 48.2,241.9             "></polygon>
				</g>
				<g>
					<path class="st0" d="M211.1,208.5L211.1,208.5l-50.7-52.8l50.7-52.8c8.1-8.8,15.2-18.2,26.9-18.7l-0.7-14.6h-22.8l-83,86       l83.4,86.4h22.4l0.7-14.6C226.3,226.8,219.2,217.2,211.1,208.5z"></path>
				</g>
			</g>
		</g>
	</g>
</g>
</svg>
