<?xml version="1.0" encoding="utf-8"?>
<!-- Generator: Adobe Illustrator 15.0.0, SVG Export Plug-In . SVG Version: 6.00 Build 0)  -->
<!DOCTYPE svg PUBLIC "-//W3C//DTD SVG 1.1//EN" "http://www.w3.org/Graphics/SVG/1.1/DTD/svg11.dtd">
<svg version="1.1" id="Слой_1" xmlns="http://www.w3.org/2000/svg" xmlns:xlink="http://www.w3.org/1999/xlink" x="0px" y="0px"
	 width="194px" height="295px" viewBox="0 0 194 295" enable-background="new 0 0 194 295" xml:space="preserve">
<g>
	<path fill="#FFFFFF" d="M138.57,278.5l4.479-3.42l4.287-3.611l4.145-3.76l3.996-3.949l3.855-4.143l3.66-4.24l3.469-4.432
		l3.322-4.527l3.133-4.672l2.938-4.77l2.793-4.865l2.604-5.01l2.408-5.059l2.215-5.154l2.023-5.201l1.832-5.252l1.635-5.297
		l1.447-5.348l1.203-5.396l1.012-5.395l0.82-5.443l0.623-5.395l0.387-5.396l0.146-5.395V25.7H156.15v14.933h-14.787
		c-0.049-1.541,0-3.034,0.145-4.576c0.096-1.012,0.289-1.975,0.482-2.986c0.191-0.723,0.385-1.397,0.625-2.071
		c0.24-0.626,0.529-1.205,0.818-1.782c0.338-0.53,0.676-1.012,1.063-1.494l0.865-0.819c0.48-0.385,0.914-0.674,1.445-1.012
		l1.203-0.481l0.674-0.193l3.469-0.771V-2.914h-34.008V9.033h-3.469V-2.914H79.223V9.033h-3.467V-2.914H41.699l0.24,27.409
		c1.494,0.289,3.035,0.53,4.48,1.012c0.337,0.145,0.723,0.289,1.06,0.482c1.013,0.577,1.734,1.252,2.457,2.167l0.435,0.626
		c1.012,1.686,1.638,3.565,1.975,5.492v6.358H37.799V25.7H-3.002v137.867l0.145,5.346l0.386,5.443l0.577,5.396l0.819,5.396
		l1.012,5.393l1.204,5.396l1.397,5.348l1.638,5.299l1.831,5.25l1.975,5.203l2.217,5.152l2.36,5.059l2.602,4.961l2.746,4.865
		l2.938,4.771l3.083,4.672l3.324,4.525l3.468,4.385l3.613,4.287l3.806,4.096l3.95,3.949l4.143,3.758l4.287,3.613l4.48,3.42
		l4.576,3.18l4.769,2.986l4.913,2.793l5.057,2.506l5.203,2.313l5.348,2.07l5.492,1.781l6.357,1.734l6.404-1.734l5.492-1.781
		l5.348-2.07l5.201-2.313l5.059-2.553l4.961-2.746l4.77-2.986L138.57,278.5z"/>
	<path fill="#037B4F" stroke="#58574B" stroke-width="0.216" d="M96.711,294.492L96.711,294.492
		c58.766-14.211,96.387-75.193,96.965-131.168V28.975h-34.201v14.933H138.23c-0.771-7.804-0.145-20.135,10.6-22.062V0.362h-27.361
		v11.947h-10.164V0.362H82.549v11.947H72.432V0.362H45.506l-0.24,21.484c6.744,1.204,9.394,6.406,10.453,12.139v9.923H34.428V28.975
		H0.322v134.543C0.852,219.49,37.991,280.281,96.711,294.492z"/>
	<path fill="#FFFFFF" stroke="#58574B" stroke-width="0.216" d="M5.765,87.646V33.984h23.267v15.222h32.13V33.984
		c-0.048-7.322-5.154-14.114-10.599-15.607V5.563h16.522v11.898h20.761V5.563h18.16v11.898h20.809V5.563h16.666v12.813
		c-6.357,1.734-10.789,9.104-10.645,15.607v15.222h32.082V33.984h23.314v53.518L5.765,87.646z"/>
	<path fill="#FFFFFF" stroke="#58574B" stroke-width="0.216" d="M159.475,206.291v11.516h11.656
		c0,3.854-26.348,23.939-26.348,21.963c0.096,0,6.936-11.945,6.936-13.486c0,0-4.912-8.523-5.105-8.523L159.475,206.291z"/>
	<path fill="#FFFFFF" stroke="#58574B" stroke-width="0.216" d="M36.402,197.381v17.342H30.91V92.125h27.938v117.296
		c0,0.146-5.058,6.311-5.058,5.301L36.402,197.381z"/>
	<path fill="#FFFFFF" stroke="#58574B" stroke-width="0.216" d="M82.549,92.125h28.756V219.49c0,2.266-28.709,1.879-28.756,0.098
		V92.125z"/>
	<polygon fill="#FFFFFF" stroke="#58574B" stroke-width="0.216" points="145.072,216.023 137.076,204.605 137.076,92.125 
		164.92,92.125 164.92,214.723 161.307,214.723 161.307,199.691 	"/>
	<path fill="#6A440F" stroke="#58574B" stroke-width="0.216" d="M85.727,215.639c-0.529-1.352-0.529-1.352-1.83-2.506
		c-3.66,0.676-7.707,1.734-11.127,1.35c0.096-0.82,0.289-1.688,0.48-2.457c-1.734,0-2.07,0.385-3.66,0.385
		c0-5.01,1.107-7.418,4.094-11.223c1.783,0,3.951,0.143,5.781,0.24c-0.723-6.984-6.551-13.008-8.285-19.943
		c-2.505-1.252-3.324-1.828-4.384-3.611c-4.383,0-13.102,9.586-16.185,12.234c-1.108,6.359-0.481,9.682-7.13,11.514
		c-0.048-0.916-0.048-2.602-0.097-3.469c-3.372,2.264-7.755,3.469-11.464,3.469c-0.241-1.205-0.482-2.359-0.723-3.469
		c-0.098,0.338-0.146,0.674-0.241,1.012c-0.435-0.191-0.916-0.289-1.397-0.387c-0.191-1.395-0.337-2.744-0.529-4.047
		c-0.771-0.047-1.444-0.145-2.167-0.145c0.24-5.443,2.07-4.816,3.516-8.525c11.61,0.387,10.838-1.494,17.438-11.031
		c1.591-0.865,1.928-1.348,2.457-2.842c-1.638-0.047-2.986,0.387-4.576,0.289c-0.145-0.336-0.241-0.771-0.386-1.299
		c3.42-2.605,5.3-5.877,7.804-9.25c-0.24-0.24-0.481-0.48-0.675-0.676c-1.878,0.482-3.756,1.014-5.587,1.541
		c1.252-4.863,8.093-8.043,7.853-14.545c-2.12,1.541-3.035,2.313-5.492,2.646c0.337-1.396,0.337-1.396,2.023-3.516
		c1.155-9.682,1.155-9.682,2.359-13.105c2.313-3.42,2.313-3.42,3.034-5.297c-0.289-0.387-0.529-0.771-0.771-1.156
		c-2.119,0.529-2.119,2.553-2.938,4.479c-0.482,0.098-0.916,0.24-1.349,0.387c-1.397-5.154-2.216-12.332-0.241-16.715
		c0.867,0,1.83,0,2.793,0c1.687,1.637,4.528,1.926,7.081,0.674c-0.048-0.53-0.048-1.108-0.048-1.639
		c-2.071-1.638-4.528-0.48-6.744-0.289c-1.831-0.626-3.662-1.203-5.444-1.734c-0.915-2.408-0.529-3.66-0.337-5.875
		c0.289-0.049,0.626-0.096,1.012-0.146c0.387-1.879,0.867-3.709,1.35-5.54c4.046-1.927,6.744-1.349,11.561-1.301
		c0.097-0.337,0.146-0.675,0.193-0.964c2.842-0.915,2.842-0.915,6.31-1.3c0.048-0.337,0.097-0.674,0.146-0.963
		c2.793-1.301,2.359-1.493,5.924-1.156c0,0.289,0.049,0.626,0.096,0.963c1.352,0.193,2.795,0.337,4.191,0.53
		c2.313,4.239,2.938,4.865,7.467,8.189c2.313,5.346,4.336,14.787,9.73,18.785c-3.18,0.867-3.18,0.867-4.912,0.627
		c1.877,4.334,3.084,9.442,3.998,10.936c1.012-0.098,2.07-0.24,3.129-0.336c0.387-0.531,0.725-1.014,1.063-1.543
		c1.588,4.627-1.107,5.061-5.686,6.553c7.801,5.059,19.17,2.506,27.84-0.145c7.709,0.193,21.533,3.613,27.119-2.986
		c1.592-1.879,0.867-3.133-0.674-4.963c-4.961-1.205-12.572,0.434-16.617,2.458c-14.598,0-23.025-3.758-23.025-18.161
		c6.406-10.646,12.188-9.346,24.422-9.924c3.373-5.105,9.826-2.408,15.318-1.733c0.816-0.771,0.816-0.771,1.203-2.409
		c0.676,0.337,1.303,0.674,2.023,1.012c0,2.506,0.096,3.999-1.348,6.551c2.889,2.215,3.947,3.662,8.188,4.385
		c0,0.529,0,1.106,0,1.686c-4.24,0.289-7.322,4.334-11.08,3.516c0.047,0.529,0.098,1.109,0.242,1.639
		c-0.289,0.289-0.58,0.578-0.916,0.867c-7.996-3.178-11.271,0.049-16.041-7.514c-14.018-4.48-21.436,8.479-5.105,12.523
		c13.439-0.82,30.637-9.778,33.094,10.069c-2.217,8.479-7.227,9.152-15.414,10.262c0.24,1.539,2.504,4.865,3.66,9.393
		c0.338,8.863-2.553,12.283,5.395,17.631c0.771,1.156,1.975,2.168,2.744,3.373c0.289,0,0.58,0,0.869,0
		c2.021-5.301,3.42-4.338,9.199-5.781c0.049,1.686-0.385,3.324-0.289,5.008c0.434-0.096,0.965-0.143,1.396-0.191
		c-0.529,3.613-0.578,7.273-1.107,10.938c-0.529,0-1.061,0-1.588,0c-0.387-0.531-0.725-1.109-1.063-1.639
		c-0.529-0.049-1.541,0-1.975,0c-0.193,0.578-0.24,1.012-0.387,1.639c0.242,0.338,5.061,4.863,6.166,5.299
		c-0.049,0.625-0.096,1.25-0.191,1.926c-0.771,0.047-1.445,0.146-2.168,0.24c-1.781,6.359-0.578,7.611-5.396,13.633
		c-3.563,1.156-7.416,3.611-7.945,3.371c-0.771-2.408-0.771-2.408-0.529-3.469c-0.289,0-0.58,0-0.914,0
		c-0.58,0.723-1.158,1.543-1.689,2.313c-0.527,0-1.059,0-1.588,0c-0.723-1.252-0.723-1.252-0.723-3.805
		c-2.986,1.541-2.986,1.541-4.914,1.928c-1.105-4.096-0.916-7.996,2.697-10.453c7.178-1.107,6.359-1.928,6.359-8.814
		c-1.688-5.732-2.408-5.973-7.758-6.166c-0.238,1.781-0.479,3.662-0.721,5.539c-0.578,0-1.156,0-1.783,0
		c-0.049-0.338-0.096-0.674-0.145-1.012c-0.434-0.191-0.82-0.338-1.252-0.434c0.77,1.783,1.012,2.553,0.867,5.057
		c0.434,0.193,0.816,0.436,1.301,0.725c-0.049,0.625-0.098,1.252-0.146,1.928c-0.77,0-1.541,0.047-2.264,0.096
		c-0.24,1.254-0.482,2.602-0.723,3.902c-0.434-0.193-0.916-0.291-1.396-0.436c-0.289-0.723-0.531-1.443-0.771-2.215
		c-1.828,2.408-2.357,15.461-8.188,13.486c-0.191-0.916-0.434-1.83-0.627-2.648c-0.867,0.674-0.867,0.674-1.686,0.434
		c-0.146,0.336-0.193,0.676-0.24,1.012c-3.469,0.818-5.732,1.879-7.9,1.879c-0.193-0.771-0.338-1.59-0.529-2.313
		c-0.771-0.047-1.492-0.145-2.168-0.145c0.24-1.396,0.529-2.842,0.818-4.191c-0.963,0.193-1.83,0.338-2.697,0.578
		c-0.676-10.02,6.117-7.563,12.719-8.432c6.645-12.908-2.939-11.654-5.928-21.436c0-2.215,0-4.334,0-6.5
		c-5.973-2.891-13.92,3.947-18.303,6.645c-3.9,0.916-7.803,1.83-11.754,2.795c0,4.816,0.049,9.635,0.096,14.547
		C90.16,198.488,96.182,213.809,85.727,215.639z"/>
	<path fill="#EAB306" stroke="#58574B" stroke-width="0.216" d="M78.646,212.219c-2.217-1.734-2.07-1.783-2.359-3.951
		c1.732-0.289,3.42-0.529,5.104-0.77c0-0.482,0-0.965,0-1.396c-2.744,0.287-5.104,0-6.791,1.926
		c-0.627-0.578-1.156-1.061-1.686-1.59c0.914-2.168,1.01-2.744,3.371-3.324c0.145,0.24,0.24,0.529,0.338,0.82
		c2.504,0,2.504,0,4.045-0.916c0.289-1.879,0.578-3.758,0.916-5.588c0.289-0.049,0.627-0.098,1.012-0.146
		c-0.289-2.938-2.795-3.996-3.518-5.973c-0.385-0.047-0.723-0.096-1.012-0.096c-1.301-3.711-4.143-7.996-3.66-11.227
		c0.48-0.238,1.012-0.385,1.541-0.576c0-0.338,0-0.674,0-0.965c-5.059-1.252-5.059-1.252-7.08-2.553
		c-1.204-2.455-4.528-7.369-1.928-9.537c0.771,0.289,0.771,0.289,1.734,2.313c0.53-0.049,1.059-0.049,1.686-0.049
		c1.301-1.732,2.555-3.516,3.854-5.299c-0.047,3.035-0.047,3.035,0.627,3.758c2.023-0.625,9.297-12.766,9.971-14.547
		c0.242,1.107,0,1.926,1.639,2.746c0.867-1.541,2.604-4.289,4.387-4.576c1.01-2.65,2.357-5.301,1.926-7.756
		c13.102,2.455,16.666,3.227,29.863-0.385c9.779,0.529,20.715,3.9,28.902-4c1.443-4.579-0.145-6.698-1.494-7.854
		c-1.396-1.154-3.949-1.203-8.43-1.203c-11.752,3.42-22.207,5.299-29.816-5.301c-3.229-14.354,10.355-17.34,22.303-14.354
		c2.842-6.646,9.633-3.178,16.088-2.842c-1.203,1.734-2.119,2.36-3.949,3.275c0,0.337,0.049,0.674,0.096,1.011
		c4.723,1.156,4.723,1.156,7.611,2.649c0,0.579,0,1.107,0,1.688c-9.248,4.432-7.949-1.88-13.584-1.35
		c-0.191,0.289-0.385,0.626-0.48,0.964c1.688,1.06,3.42,2.216,5.105,3.323c-8.334-0.48-8.814,0.145-12.043-6.118
		c-23.506-6.455-26.396,18.931-1.494,16.474c10.406-2.264,24.471-6.742,24.471,8.963c-2.744,6.502-9.535,7.32-15.992,7.996
		c1.881,3.709,3.662,6.938,4.82,11.656c0.574,9.684,0.574,9.684,1.299,10.982c-0.338,0.145-0.627,0.338-0.916,0.48
		c-0.48-1.686-0.963-3.322-1.396-4.961c-0.529,0-0.963,0-1.445,0c0.387,7.129,7.227,10.309,11.705,15.992
		c4.529,0,3.807-4.576,9.348-5.346c0.047,1.203,0.145,2.406,0.191,3.611c-2.168,1.445-2.168,1.445-2.408,2.506
		c0.916-0.289,1.877-0.58,2.891-0.82c0,0.578,0.049,1.156,0.096,1.734c-5.924,2.602-5.49,1.83-5.684,8.383
		c2.938,0.432,4.721,0.336,4.525,4.143c-0.336-0.482-1.395-1.252-1.637-1.688c-1.059,0.24-0.914,0.098-1.205,0.771
		c0.436,1.107,0.58,1.445,1.639,1.59c-0.191,0.627,0.145,0.916,0,1.541c-0.336,0-1.348,0-1.639,0
		c-1.301-2.359-1.105-2.021-1.492-4.816c-0.916,0-1.205,0-0.865,0c0,1.977-0.098,3.518,0,5.588c2.984,4.434,3.852,5.01-0.098,9.49
		c-1.35,0-2.648,0-3.951,0c-0.287-0.771-0.527-1.492-0.77-2.217c-0.434,0.098-0.82,0.289-1.254,0.436
		c-0.047,0.336-0.096,0.674-0.096,1.012c-0.48,0.145-0.867,0.24-1.301,0.385c-0.578-0.436-1.156-0.818-1.686-1.156
		c-0.146-0.916-0.242-1.83-0.387-2.697c-0.338-0.146-0.674-0.338-0.965-0.434c-0.385,0.914-0.674,1.83-0.963,2.795
		c-0.865-0.193-1.779-0.289-2.6-0.387c-0.676-1.252-0.676-1.252-0.58-3.275c1.783-1.686,5.541-0.529,8.721-4.434
		c0-7.658,1.154-12.283-6.264-14.98c-9.15,0-11.705-2.264-18.354-7.465c-8.861-10.357-11.078-11.031-22.59-4.576
		c-0.051,0.336-0.1,0.674-0.1,1.012c-6.018,2.168-10.979,4.096-17.051,5.107c2.023-5.783,2.023-5.783,2.17-7.854
		c-0.289,0-0.578,0-0.869,0c-0.049,0.338-0.096,0.674-0.096,1.012c-0.385,0-0.725,0.098-1.061,0.145
		c-0.24,1.061-0.48,2.168-0.723,3.275c-0.723,0.145-1.396,0.24-2.119,0.338c2.023,11.225-0.193,19.701,5.396,30.828
		c-0.914,2.602-1.205,4.238-1.35,7.658c-1.445,0.146-2.891,0.24-4.289,0.387c-0.047-0.867-0.096-1.783-0.191-2.697
		c-0.625,0.145-1.252,0.338-1.926,0.48c-0.098,0.771-0.193,1.494-0.242,2.217C81.006,211.832,79.803,212.025,78.646,212.219z"/>
	<path fill="#FFFFFF" stroke="#58574B" stroke-width="0.216" d="M141.074,241.844c-1.734-0.725-2.555-1.303-3.951-5.061
		c0-0.721,9.299-4.721,9.299-5.49C146.951,230.811,141.699,239.723,141.074,241.844z"/>
	<path fill="#FFFFFF" stroke="#58574B" stroke-width="0.216" d="M51.912,239.916c0.191-1.301-25.001-17.053-25.001-22.109h12.38
		V204.51l13.198,13.584l-6.601,9.152L51.912,239.916z"/>
	<path fill="#FFFFFF" stroke="#58574B" stroke-width="0.216" d="M55.67,241.795l-5.492-11.129c0,0,9.49,5.25,9.49,5.492
		C60.246,236.881,56.633,241.795,55.67,241.795z"/>
	<path fill="#FFFFFF" stroke="#58574B" stroke-width="0.216" d="M98.494,243.48c-17.682,0.047-39.211-8.383-49.038-16.234
		l10.692-14.932c11.898,9.391,23.314,12.041,38.346,12.041c15.268,0.049,27.551-4.336,40.025-13.246l10.84,15.365
		C139.773,235.1,116.219,243.432,98.494,243.48z"/>
	<path fill="#FFFFFF" stroke="#58574B" stroke-width="0.216" d="M137.076,268.434c0.047-2.986-0.191-20.186,0-26.158
		c1.154,1.35,2.986,1.879,4.914,3.18c8.236-4.961,16.088-11.127,23.023-17.053c0-0.432,0.145,7.66-0.096,9.973
		C163.666,243.045,142.037,263.953,137.076,268.434z"/>
	<path fill="#FFFFFF" stroke="#58574B" stroke-width="0.216" d="M82.549,283.123v-38.682c12.283,2.893,16.859,2.459,28.756,0.533
		v38.68c0,1.541-14.594,4.865-14.594,4.865C96.711,288.762,82.549,285.68,82.549,283.123z"/>
	<path fill="#FFFFFF" stroke="#58574B" stroke-width="0.216" d="M59.475,268.816c-0.145,0.869-25.867-21.965-28.564-28.805
		l-0.193-12.668c0.097,0,16.137,14.689,25.146,17.34c0.096,0,1.733-1.783,1.733-1.879c0.145,0,1.107-1.541,1.107-1.688
		L59.475,268.816z"/>
	<g>
		<path fill="#EAB306" d="M156.971,64.332v-1.06l0.434,1.06H156.971L156.971,64.332z M156.971,56.432l1.83,2.843v21.58
			l13.006-13.199v13.199h7.322V55.806l-13.006,12.861V55.806h-9.152V56.432z M156.971,55.806v0.626l-0.385-0.626H156.971
			L156.971,55.806z M156.971,63.272l-2.746-7.467h-21.58v7.755c0.578-1.59,3.033-2.553,6.938-2.553v19.846H147V61.008
			c4.721,0,7.129,1.3,7.129,3.324h2.844v-1.059H156.971z M132.645,80.854v-6.888l3.324,6.888H132.645z M132.645,55.806v7.755
			c-0.096,0.241-0.146,0.53-0.146,0.771h-3.227l3.227-8.526H132.645L132.645,55.806z M132.645,73.967l-8.863-18.161l-1.592,2.986
			v8.478l0.195-0.337l3.564,7.37h-3.76v7.274l4-6.744l2.938,6.021h3.518V73.967L132.645,73.967z M87.461,80.854V59.371l-1.926-3.275
			v-0.29h23.41c0,2.457,0,25.242,0,25.049h-7.322V59.371h-6.838v21.484H87.461L87.461,80.854z M122.189,58.792v8.478l-3.805,7.033
			h3.805v7.274l-0.385,0.626l-3.854-7.081l-3.082,5.732c-0.098,0-0.24,0-4.529,0L122.189,58.792L122.189,58.792z M85.535,66.549
			c0.145-0.53,0.191-1.061,0.191-1.494c0-0.578-0.049-1.204-0.191-1.782V66.549z M85.535,56.096l-0.193-0.29h0.193V56.096
			L85.535,56.096z M85.535,63.272c-0.818-4.047-4.287-7.467-8.045-7.467h-1.012v4.384c1.879,1.156,2.938,3.372,2.938,4.961
			c0,2.361-1.107,4.288-2.938,5.251v3.661c5.828-0.963,8.381-4.817,9.057-7.514V63.272z M76.479,55.806v4.384
			c-0.818-0.531-1.832-0.819-2.938-0.819v11.753c1.105,0,2.07-0.289,2.938-0.722v3.661c-0.916,0.144-1.879,0.24-2.938,0.24v6.552
			h-7.322V59.371l-1.782-3.035v-0.53H76.479L76.479,55.806z M64.437,80.854h0.337l-0.337-0.675V80.854z M64.437,55.806v0.53
			l-0.289-0.53H64.437L64.437,55.806z M64.437,80.18l-11.85-24.374l-1.638,2.986v8.478l0.192-0.337l3.564,7.37h-3.757v7.274
			l4.046-6.744l2.89,6.021h6.551L64.437,80.18L64.437,80.18z M50.949,58.792v8.478l-3.759,7.033h3.759v7.274l-0.387,0.626
			l-3.806-7.081l-3.083,5.732h-4.383v-0.29L50.949,58.792L50.949,58.792z M39.292,55.999v-0.193h0.144
			C39.388,55.806,39.34,55.903,39.292,55.999z M39.292,55.806v0.193c-1.253,1.638-8.719,11.753-8.719,11.898l7.563,12.958h-8.527
			l-5.636-9.586v9.586H16.65V58.792l-1.781-2.986h9.104v10.598c0.53-0.723,7.659-10.598,7.755-10.598H39.292L39.292,55.806z
			 M39.292,80.564l-0.193,0.29h0.193V80.564z"/>
		<path fill="none" stroke="#6A440F" stroke-width="0.216" d="M87.461,80.854V59.371l-2.119-3.565h23.604c0,2.457,0,25.242,0,25.049
			h-7.322V59.371h-6.836v21.484H87.461L87.461,80.854z M139.582,80.854V61.009c-4.529,0-7.082,1.3-7.082,3.324h-3.229l3.229-8.526
			h21.725l3.18,8.526h-3.275c0-2.023-2.408-3.324-7.129-3.324v19.846H139.582L139.582,80.854z M158.801,80.854v-21.58l-2.215-3.469
			h9.537v12.861l13.006-12.861v25.049h-7.322V67.656L158.801,80.854L158.801,80.854z M73.541,71.124V59.371
			c3.756,0,5.877,3.516,5.877,5.78C79.418,68.619,77.057,71.124,73.541,71.124L73.541,71.124z M66.219,80.854V59.371l-2.071-3.565
			H77.49c4.287,0,8.236,4.479,8.236,9.249c0.098,2.698-2.793,9.249-12.188,9.249v6.552L66.219,80.854L66.219,80.854z M47.19,74.303
			l3.951-7.37l3.564,7.37H47.19L47.19,74.303z M64.773,80.854h-6.889l-2.89-6.021l-4.433,7.37l-3.806-7.081l-3.083,5.732
			c-0.096,0-0.241,0-4.576,0l13.488-25.049L64.773,80.854L64.773,80.854z M16.65,80.854V58.792l-1.781-2.986h9.104v10.598
			c0.53-0.723,7.659-10.598,7.755-10.598h7.707c-0.578,0.674-8.862,11.946-8.862,12.091l7.563,12.958h-8.527l-5.636-9.586v9.586
			H16.65L16.65,80.854z M118.385,74.303l4-7.37l3.564,7.37H118.385L118.385,74.303z M135.969,80.854h-6.84l-2.939-6.021l-4.385,7.37
			l-3.854-7.081l-3.082,5.732c-0.098,0-0.24,0-4.529,0l13.441-25.049L135.969,80.854z"/>
	</g>
	<path fill="#EAB306" stroke="#58574B" stroke-width="0.216" d="M160.295,185.146c0-0.387,0-0.82,0-1.156
		c0.627-0.098,1.252-0.146,1.926-0.195c0.098,0.436,0.193,0.869,0.385,1.352C161.789,185.146,161.018,185.146,160.295,185.146z"/>
	<path fill="#EAB306" stroke="#58574B" stroke-width="0.216" d="M86.883,214.482c-0.191-0.242-0.336-0.482-0.48-0.725
		c0.387-0.145,0.723-0.287,1.061-0.385C87.221,213.711,87.076,214.098,86.883,214.482z"/>
	<path fill="#EAB306" stroke="#58574B" stroke-width="0.216" d="M74.504,213.373c0-0.578,0-1.154,0-1.732
		c0.434,0.145,0.867,0.238,1.301,0.434c0.145,0.385,0.289,0.818,0.482,1.301C75.707,213.373,75.129,213.373,74.504,213.373z"/>
	<path fill="#EAB306" stroke="#58574B" stroke-width="0.216" d="M70.41,210.531c0.289-0.867,0.578-1.734,0.914-2.504
		c0.529,0,1.061,0,1.59,0c0.145,0.625,0.24,1.252,0.434,1.926C72.336,210.146,71.324,210.291,70.41,210.531z"/>
	<path fill="#EAB306" stroke="#58574B" stroke-width="0.216" d="M117.424,209.953c0.191-0.529,0.385-0.965,0.627-1.396
		c0.287,0.098,0.576,0.191,0.914,0.338C118.676,209.615,118.676,209.615,117.424,209.953z"/>
	<path fill="#EAB306" stroke="#58574B" stroke-width="0.216" d="M151.574,209.953c0.098-0.434,0.242-0.914,0.387-1.301
		c0.434-0.191,0.916-0.289,1.395-0.387c-0.189,0.387-0.336,0.818-0.432,1.303C152.441,209.664,151.961,209.809,151.574,209.953z"/>
	<path fill="#EAB306" stroke="#58574B" stroke-width="0.216" d="M127.441,208.797c0.191-0.48,0.338-0.965,0.578-1.396
		c0.818,0.191,0.818,0.191,1.203,1.396C128.598,208.797,128.02,208.797,127.441,208.797z"/>
	<path fill="#EAB306" stroke="#58574B" stroke-width="0.216" d="M146.275,208.797c0.193-0.674,0.338-1.35,0.578-1.975
		c0.529,0.289,1.063,0.625,1.639,0.963C147.768,208.123,146.998,208.461,146.275,208.797z"/>
	<path fill="#EAB306" stroke="#58574B" stroke-width="0.216" d="M140.977,207.111c0-0.578,0-1.156,0-1.688
		c1.156,0.289,1.156,0.289,2.07,1.107C142.326,206.727,141.604,206.871,140.977,207.111z"/>
	<path fill="#EAB306" stroke="#58574B" stroke-width="0.216" d="M115.061,206.533c0.193-0.289,0.387-0.578,0.627-0.818
		c0.145,0.24,0.34,0.529,0.578,0.818C115.832,206.533,115.447,206.533,115.061,206.533z"/>
	<path fill="#EAB306" stroke="#58574B" stroke-width="0.216" d="M112.75,203.111c0-0.529,0-1.105,0-1.684c0.338,0,0.723,0,1.156,0
		C113.328,202.871,113.328,202.871,112.75,203.111z"/>
	<path fill="#EAB306" stroke="#58574B" stroke-width="0.216" d="M32.741,200.271c0-0.529,0-1.109,0-1.688
		c0.433,0.096,0.817,0.24,1.301,0.387c0.096,0.434,0.289,0.865,0.48,1.301C33.896,200.271,33.319,200.271,32.741,200.271z"/>
	<path fill="#EAB306" stroke="#58574B" stroke-width="0.216" d="M45.12,198.584c0.145-0.289,0.337-0.578,0.578-0.865
		c0.145,0.287,0.337,0.576,0.578,0.865C45.843,198.584,45.457,198.584,45.12,198.584z"/>
	<path fill="#EAB306" stroke="#58574B" stroke-width="0.216" d="M30.38,196.898c0.193-0.721,0.337-1.396,0.579-2.023
		c0.241,0.098,0.529,0.146,0.817,0.193c-0.048,0.434-0.048,0.914-0.048,1.396C31.247,196.609,30.813,196.707,30.38,196.898z"/>
	<path fill="#EAB306" stroke="#58574B" stroke-width="0.216" d="M28.646,193.479c-0.145-0.865-0.191-1.734-0.24-2.504
		c0.434-0.098,0.915-0.24,1.396-0.338c0.192,0.723,0.337,1.492,0.578,2.264C29.802,193.094,29.224,193.238,28.646,193.479z"/>
	<path fill="#EAB306" stroke="#58574B" stroke-width="0.216" d="M120.988,207.689c-0.482-0.336-0.965-0.674-1.445-0.963
		c0-1.543,0-1.543,0.674-2.217c-1.012-0.049-2.021-0.049-3.035-0.049c-0.047-1.35-0.096-2.648-0.143-3.949
		c-0.676,0.287-1.303,0.576-1.979,0.916c0.965-5.396,5.83-2.65,10.455-2.457c7.465-13.537,0.865-13.346-4.914-23.652
		c0.145-4.816,0.145-4.816,0.48-5.105c6.793,7.609,8.189,10.789,18.305,13.922c0.096,0.627,0.24,1.252,0.436,1.926
		c-1.396,0-2.746,0.098-4.047,0.145c0.098,1.109,0.145,2.314,0.24,3.52c0.289,0,0.674,0.047,1.012,0.096
		c0.145,0.818,0.24,1.686,0.434,2.504c-0.771,0-1.541,0.049-2.264,0.146c0.385,1.061,0.723,2.117,1.061,3.275
		c-1.205-0.098-2.408-0.146-3.564-0.242c-2.506,3.324-0.434,10.213-4.287,10.068c-0.193-0.387-0.387-0.771-0.529-1.205
		C125.563,205.475,123.252,206.533,120.988,207.689z"/>
	<path fill="#6A440F" stroke="#58574B" stroke-width="0.216" d="M83.367,195.744c-1.35-6.648-1.252-13.777-2.938-19.318
		c0.576,0,1.154,0,1.732,0c0.965,6.408,1.977,12.861,2.938,19.318C84.521,195.744,83.945,195.744,83.367,195.744z"/>
	<path fill="#6A440F" stroke="#58574B" stroke-width="0.216" d="M132.162,175.27c-4.625-3.467-5.299-4.721-7.658-9.104
		c2.891,1.396,7.371,5.492,8.816,9.104C132.934,175.27,132.5,175.27,132.162,175.27z"/>
	<path fill="#6A440F" stroke="#58574B" stroke-width="0.216" d="M92.762,173.006c0-0.818,0-1.541,0-2.264
		c3.807-1.83,6.262-6.262,9.969-6.84c-0.434,1.301-0.434,1.301-2.023,2.795c0.531,0.385,0.531,0.385,4.191-1.254
		c0.24-0.723,0.482-1.396,0.771-2.119c0.965-0.191,1.928-0.387,2.938-0.531C107.26,167.371,96.566,171.225,92.762,173.006z"/>
	<path fill="#6A440F" stroke="#58574B" stroke-width="0.216" d="M83.945,171.85c-0.24-0.529-0.434-1.107-0.578-1.686
		c0.578,0,1.154,0,1.732,0c0,0.578,0,1.156,0,1.686C84.717,171.85,84.283,171.85,83.945,171.85z"/>
	<path fill="#EAB306" stroke="#58574B" stroke-width="0.216" d="M36.257,198.584c-1.204-2.166-0.819-3.131-0.771-5.01
		c-0.819,0-1.639,0-2.409,0.051c-0.097-0.627-0.241-1.254-0.337-1.881c1.638-0.385,1.638-0.385,3.372-0.145c0-0.529,0-0.963,0-1.445
		c-1.156-0.432-1.156-0.432-3.421-0.336c-0.24,0.242-0.48,0.48-0.723,0.674c-0.048-0.77-0.048-1.59-0.048-2.361
		c1.301-0.674,6.021-0.674,9.586-1.301c0.626-0.77,7.755-10.354,9.297-10.596c2.313-4.047,3.613-6.117,7.321-8.721
		c0.338,1.107,0.723,2.266,1.157,3.469c1.589,0,1.589,0,3.611-1.348c1.253,3.805,1.253,3.805,1.205,5.25
		c-3.18,2.938-11.562,10.404-15.943,11.898c-0.482,1.059-0.482,1.059-0.53,7.996c-0.626,0.289-1.301,0.625-1.927,0.963
		c-0.049-0.338-0.145-0.674-0.193-1.014c-1.878,0.58-3.757,1.109-5.587,1.688c-0.193,0.387-0.337,0.818-0.531,1.203
		C38.328,197.91,37.268,198.248,36.257,198.584z"/>
	<path fill="#EAB306" stroke="#58574B" stroke-width="0.216" d="M50.997,169.01c2.698-4.096,4.624-6.697,5.684-11.225
		c-1.107,0.336-2.167,0.723-3.228,1.107c-0.048,0.336-0.097,0.723-0.097,1.061c-0.433,0-0.818,0-1.204,0c0-0.436,0-0.82,0-1.156
		c0.288-0.049,0.675-0.098,1.012-0.193c2.505-5.154,3.42-8.043,4.095-13.295c-0.578,0.049-1.108,0.096-1.638,0.24
		c-0.385,0.625-0.771,1.254-1.107,1.93c-0.386,0-0.818,0-1.156,0c4.096-11.998,0.675-14.069,11.706-20.284
		c0.387-0.627,0.819-1.252,1.204-1.879c0.435,0.096,0.915,0.193,1.397,0.338c-0.193,2.021-0.385,4.143-0.53,6.262
		c0.626,0.146,1.252,0.387,1.927,0.627c-0.048-0.965-0.048-1.975-0.048-2.938c3.371-2.553,4.865-3.564,6.984-7.131
		c0.289,0.771,0.578,1.639,0.963,2.506c0.434,0.049,0.965,0.096,1.494,0.145c1.781-3.854,3.611-6.551,2.938-10.501
		c-0.289,0-0.578,0-0.867,0c-0.48,2.217-0.865,4.433-1.301,6.694c-0.578,0-1.154,0-1.734,0c-0.385-1.203-0.723-2.313-1.012-3.467
		c-0.385-0.146-0.723-0.338-1.012-0.435c-0.723,5.202-1.012,7.081-6.261,9.585c-0.096-1.59-0.192-3.18-0.337-4.768
		c-1.687,0.096-3.564,1.445-3.757,3.082c-5.348,2.021-5.348,2.021-6.069,2.697c-0.385-0.867-0.819-1.734-1.156-2.602
		c-0.771,0.049-1.542,0.098-2.265,0.24c-0.529,0.674-1.061,1.35-1.493,2.072c-0.529,0-1.06,0-1.59,0
		c0-3.518,0.386-3.998,1.879-6.648c-0.626-0.096-1.156-0.191-1.687-0.336c0-0.531,0-1.109,0-1.686
		c3.999-0.193,7.611,0.672,10.213-2.893c-0.386-1.107-0.675-2.167-0.965-3.275c-1.106-0.433-9.344-0.433-10.645-1.059
		c-0.723-3.131-0.723-3.131-0.337-4.721c1.301-0.435,2.602-0.916,3.95-1.301c0-0.529,0-0.963,0-1.445
		c-0.529-0.049-1.061-0.096-1.59-0.096c0.146-0.771,0.338-1.541,0.578-2.265c2.892-0.193,5.349-0.482,8.527,0.336
		c3.661-2.504,5.395-2.601,10.163-1.83c2.119-1.252,2.553-1.734,5.588-1.589c1.301,4.335,1.734,4.432,6.07,7.563
		c3.178,4.914,5.203,11.32,7.322,17.102c-0.965,0-1.881,0.098-2.844,0.145c0,0.434,0,0.916,0,1.396
		c0.338,0.049,0.725,0.146,1.063,0.191c1.588,5.732,1.203,8.336,6.309,12.624c-3.467,0.818-4.432-0.336-7.225-0.336
		c3.516,5.779,0.963,9.248-2.025,15.51c-0.434,0-0.816,0-1.154,0c-0.387-1.299-0.723-2.695-1.012-3.998
		c-0.676-0.145-1.254-0.289-1.832-0.385c-1.156,5.441-3.611,9.441-6.598,14.596c-0.387,0-0.82,0-1.158,0
		c-0.385-1.156-0.721-2.313-1.01-3.469c-0.436,0-0.771,0.098-1.107,0.145c-1.254,2.939-2.361,3.949-3.373,6.07
		c-0.77-1.254-1.541-2.457-2.312-3.615c-0.53-0.094-1.061-0.143-1.493-0.143c-0.819,2.746-1.157,3.469-3.565,5.105
		c-0.048,0.336-0.096,0.723-0.096,1.061c-3.131-0.867-2.312-3.662-2.553-5.588C56.439,164.096,54.514,168.045,50.997,169.01z"/>
	<path fill="#6A440F" stroke="#58574B" stroke-width="0.216" d="M70.988,157.641c-0.098-3.66-0.193-5.828-3.518-7.609
		c-0.674,0.24-1.301,0.479-1.926,0.674c-0.386,1.203-0.723,2.359-1.012,3.564c-0.578,0-1.205,0-1.782,0
		c-0.868-3.373-0.868-3.373-1.156-9.635c0.336,0,0.771,0,1.156,0c0.192,1.781,0.337,3.563,0.578,5.395
		c1.205-0.578,2.938-3.42,3.564-3.42c1.061,2.65,1.878,2.408,4.239,4.672c0.818-6.068,3.227-10.355,5.732-15.754
		c0.432,0.146,0.816,0.24,1.299,0.387c0.771,2.168,0.771,2.168,0.482,3.613c0.336,0,0.771,0,1.154,0
		c1.734-4.24,4.336-5.831,4.529-10.407c0.434-0.191,0.916-0.289,1.396-0.385c-0.146,4.961-1.59,7.514-4.145,12.479
		c-0.578,0-1.154,0-1.781,0c-0.193,0.77-0.385,1.492-0.578,2.264c-0.578,0-1.154,0-1.734,0c0.146-1.35,0.338-2.648,0.58-3.949
		c-0.436,0-0.82,0-1.205,0c-2.506,6.262-2.746,11.801-4.674,18.111C71.758,157.641,71.324,157.641,70.988,157.641z"/>
	<path fill="#6A440F" stroke="#58574B" stroke-width="0.216" d="M58.03,121.316c0-0.576,0-1.107,0-1.686
		c10.261-1.156,7.419-5.877,1.301-9.585c-0.048-1.012-0.097-1.975-0.097-2.938c1.301,0.386,2.745,2.408,4.095,2.843
		c0,0.337,0,0.722,0,1.155c2.216,1.108,3.372,1.108,6.503,1.108c0,0.771,0,1.493,0,2.313c-1.204-0.098-2.313-0.146-3.42-0.193
		C66.94,120.257,62.799,120.595,58.03,121.316z"/>
	<path fill="#6A440F" stroke="#58574B" stroke-width="0.216" d="M66.267,107.685c-0.626-1.156-1.252-2.215-1.927-3.323
		c-0.337-0.048-0.723-0.097-1.012-0.097c0.385-0.674,0.723-1.349,1.06-2.022c1.35,0,3.035,1.06,6.022,2.022
		c-0.193,0.386-0.291,0.867-0.436,1.302c-0.77-0.048-1.443-0.097-2.166-0.097C67.038,107.3,67.038,107.3,66.267,107.685z"/>
	<path fill="#6A440F" stroke="#58574B" stroke-width="0.216" d="M76.287,103.687c0-1.108,0-2.264,0-3.373c0.578,0,1.203,0,1.781,0
		c-0.193,0.963-0.387,1.926-0.482,2.938C77.104,103.349,76.719,103.542,76.287,103.687z"/>
	<path fill="#6A440F" stroke="#58574B" stroke-width="0.216" d="M73.926,102.001c0.146-0.482,0.24-0.916,0.434-1.301
		c0.338,0,0.676,0,1.107,0.048c-0.096,0.386-0.24,0.771-0.338,1.253C74.697,102.001,74.311,102.001,73.926,102.001z"/>
	<path fill="#EAB306" stroke="#58574B" stroke-width="0.216" d="M70.988,98.002c0-0.53,0-0.53,2.938-1.108c0,0.337,0,0.723,0,1.108
		C72.914,98.002,71.951,98.002,70.988,98.002z"/>
	<path fill="#EAB306" stroke="#58574B" stroke-width="0.216" d="M65.688,104.843c0-0.192,0-0.336,0-0.578c0.386,0,0.771,0,1.205,0
		c0,0.192,0,0.338,0,0.578C66.508,104.843,66.122,104.843,65.688,104.843z"/>
	<path fill="#6A440F" stroke="#58574B" stroke-width="0.216" d="M49.215,180.375c1.493-2.553,2.89-5.537,5.877-6.213
		C54.658,177.486,52.202,179.027,49.215,180.375z"/>
	<g>
		<path fill="#037B4F" stroke="#58574B" stroke-width="0.216" d="M85.486,28.975h6.408v2.36c-0.049-0.097,7.754,0.096,7.754,6.552
			c0.049,6.454-7.754,5.732-7.754,6.021v1.493h-4.48v-1.493c0,0-8.285,0.192-8.334-6.07c0-6.262,8.525-6.213,8.334-6.455v-0.674
			l-1.832-0.193L85.486,28.975z"/>
		<path fill="#FAFAF9" stroke="#58574B" stroke-width="0.216" d="M87.414,34.948v5.684c0,0.049-3.566-0.048-3.566-2.842
			C83.801,35.043,87.365,34.996,87.414,34.948z"/>
		<path fill="#FAFAF9" stroke="#58574B" stroke-width="0.216" d="M91.895,34.948v5.684c0.047,0.049,3.564-0.434,3.516-2.842
			C95.361,35.333,91.895,34.804,91.895,34.948z"/>
		<polygon fill="#037B4F" stroke="#58574B" stroke-width="0.216" points="99.408,28.975 105.523,28.975 105.523,34.659 
			110.871,28.975 114.871,28.975 109.041,36.393 114.871,45.401 108.945,45.401 105.523,39.476 105.523,45.401 101.287,45.401 
			101.287,30.708 99.408,30.613 		"/>
	</g>
	<path fill="#037B4F" stroke="#58574B" stroke-width="0.216" d="M70.168,225.32l-0.24,0.385l-5.058,6.021
		c-0.29,0.338-0.579,0.627-0.916,0.818s-0.771,0.191-1.3,0c-0.339-0.096-0.724-0.289-1.108-0.578l1.396-1.541
		c0.193,0.24,0.386,0.434,0.627,0.482c0.337,0.145,0.675-0.049,1.06-0.482l5.732-6.744l-1.253-0.385l0.338-0.916l3.034,0.965
		l0.48,11.271l1.109,0.385l-0.289,0.914l-4.866-1.541l0.289-0.965l1.3,0.438l-0.336-8.045l0.096-0.482H70.168L70.168,225.32z"/>
	<g>
		<path fill="#037B4F" d="M85.775,227.055l1.928,0.48l-0.242,0.914l-1.348-0.289l-0.338,1.445V227.055L85.775,227.055z
			 M85.775,232.111l0.867,0.193c1.35,0.336,2.313,0.816,2.939,1.541c0.625,0.723,0.816,1.59,0.576,2.602
			c-0.24,0.963-0.818,1.688-1.688,2.119c-0.674,0.338-1.541,0.434-2.697,0.287v-1.107c0.098-0.047,0.193-0.047,0.242-0.096
			c0.385-0.096,0.771-0.338,1.01-0.625c0.289-0.338,0.482-0.725,0.627-1.156c0.146-0.58,0.049-1.156-0.24-1.688
			c-0.289-0.48-0.818-0.865-1.639-1.061v-1.01H85.775z M81.391,236.93l2.266-9.346l-1.35-0.338l0.24-0.914l3.229,0.723v2.553
			l-0.578,2.359l0.578,0.145v1.012c-0.049,0-0.098,0-0.145-0.047l-0.676-0.145l-1.107,4.576l0.867,0.191
			c0.385,0.096,0.723,0.096,1.061,0.047v1.107c-0.387-0.047-0.818-0.096-1.301-0.191l-4.625-1.107l0.193-0.914L81.391,236.93z"/>
		<path fill="none" stroke="#58574B" stroke-width="0.216" d="M81.391,236.93l2.266-9.346l-1.35-0.338l0.24-0.914l5.154,1.203
			l-0.24,0.914l-1.35-0.289l-0.914,3.807l1.443,0.338c1.35,0.338,2.314,0.818,2.939,1.543c0.627,0.721,0.818,1.588,0.578,2.6
			c-0.24,0.965-0.818,1.688-1.688,2.119c-0.867,0.482-2.217,0.482-3.998,0.098l-4.625-1.107l0.193-0.914L81.391,236.93
			L81.391,236.93z M83.848,237.508l0.869,0.191c0.48,0.096,0.914,0.096,1.301-0.049c0.385-0.096,0.771-0.338,1.012-0.625
			c0.287-0.338,0.48-0.725,0.625-1.156c0.146-0.58,0.049-1.156-0.24-1.688c-0.289-0.529-0.914-0.914-1.781-1.107l-0.676-0.143
			L83.848,237.508z"/>
	</g>
	<g>
		<path fill="#037B4F" d="M101.479,228.598c0.434,0.047,0.771,0.047,1.107,0.094c0.385,0.098,0.77,0.193,1.059,0.338
			c0.578,0.289,0.965,0.627,1.205,1.012c0.24,0.387,0.336,0.771,0.336,1.156c0,0.771-0.238,1.396-0.721,1.83
			c-0.482,0.48-1.061,0.723-1.783,0.82v0.096c0.387,0,0.723,0.047,1.061,0.145c0.338,0.096,0.674,0.289,1.061,0.529
			c0.625,0.385,0.963,1.061,0.963,2.07c0,0.771-0.191,1.396-0.58,1.928c-0.383,0.48-0.914,0.916-1.539,1.154
			c-0.676,0.242-1.35,0.387-2.023,0.387h-0.145v-1.061c0.436-0.096,0.771-0.287,1.107-0.625c0.434-0.482,0.676-1.012,0.676-1.688
			c0-0.963-0.291-1.59-0.916-1.879c-0.289-0.096-0.578-0.191-0.867-0.287v-1.254c0.098-0.047,0.193-0.096,0.289-0.145
			c0.336-0.191,0.578-0.482,0.771-0.818c0.145-0.338,0.24-0.676,0.24-1.012c0-0.48-0.193-0.916-0.578-1.252
			c-0.193-0.193-0.436-0.338-0.723-0.434V228.598L101.479,228.598z M95.797,229.605v-0.963l5.49-0.047c0.047,0,0.143,0,0.191,0
			v1.107c-0.291-0.098-0.578-0.146-0.965-0.146l-0.816,0.049v3.951h0.865c0.338-0.051,0.625-0.098,0.916-0.193v1.252
			c-0.338-0.098-0.629-0.098-0.965-0.098h-0.816v4.674h1.059c0.24,0,0.482-0.049,0.723-0.098v1.061l-5.682,0.049v-0.963l1.396-0.049
			l-0.051-9.586H95.797L95.797,229.605z"/>
		<path fill="none" stroke="#58574B" stroke-width="0.216" d="M95.797,229.605v-0.963l5.49-0.047c0.479,0,0.914,0.047,1.299,0.094
			c0.385,0.098,0.771,0.195,1.061,0.34c0.578,0.289,0.965,0.625,1.205,1.012c0.24,0.385,0.334,0.771,0.334,1.154
			c0,0.771-0.238,1.398-0.721,1.832c-0.482,0.479-1.061,0.721-1.781,0.818v0.098c0.387,0,0.723,0.047,1.059,0.143
			c0.338,0.098,0.676,0.289,1.061,0.531c0.627,0.385,0.963,1.061,0.963,2.07c0,0.77-0.191,1.395-0.578,1.928
			c-0.385,0.48-0.916,0.916-1.541,1.154c-0.674,0.242-1.348,0.387-2.021,0.387l-5.826,0.049v-0.965l1.396-0.047l-0.051-9.588H95.797
			L95.797,229.605z M99.697,239.193h1.059c0.723,0,1.348-0.242,1.83-0.725c0.434-0.48,0.676-1.012,0.676-1.686
			c0-0.963-0.291-1.59-0.916-1.879c-0.627-0.289-1.254-0.387-1.83-0.387h-0.818V239.193L99.697,239.193z M99.697,233.559h0.865
			c0.482-0.051,0.867-0.146,1.203-0.338c0.338-0.193,0.578-0.482,0.771-0.82c0.145-0.336,0.24-0.674,0.24-1.012
			c0-0.48-0.191-0.916-0.578-1.25c-0.385-0.387-0.963-0.58-1.686-0.58l-0.818,0.049v3.951H99.697z"/>
	</g>
	<polygon fill="#037B4F" stroke="#58574B" stroke-width="0.216" points="113.762,227.775 115.736,237.17 117.086,236.881 
		117.277,237.846 112.172,238.904 111.93,237.939 113.279,237.699 111.305,228.26 109.957,228.547 109.764,227.584 114.871,226.523 
		115.107,227.486 	"/>
	<g>
		<path fill="#037B4F" d="M126.383,223.441c0.48,0.096,0.867,0.289,1.154,0.529c0.338,0.289,0.58,0.625,0.725,0.963
			c0.287,0.771,0.24,1.396-0.049,2.023c-0.289,0.576-0.771,1.012-1.396,1.301l0.049,0.098c0.336-0.146,0.674-0.195,1.012-0.195
			c0.385,0,0.77,0.051,1.156,0.146c0.77,0.145,1.348,0.723,1.686,1.637c0.24,0.725,0.289,1.35,0.096,1.977
			c-0.191,0.627-0.576,1.156-1.107,1.639c-0.48,0.434-1.107,0.771-1.732,1.012l-1.59,0.578v-1.061l0.434-0.145
			c0.676-0.24,1.156-0.674,1.445-1.252c0.287-0.627,0.336-1.205,0.096-1.832c-0.338-0.916-0.818-1.396-1.541-1.445
			c-0.145-0.047-0.289-0.047-0.434-0.047v-5.926H126.383z M124.357,223.584c0.242-0.047,0.436-0.096,0.627-0.143
			c0.387-0.049,0.771-0.049,1.061,0c0.146,0,0.242,0,0.338,0v5.926c-0.531,0-0.965,0.096-1.396,0.238l-0.627,0.193v-1.012
			l0.338-0.098c0.434-0.191,0.818-0.434,1.059-0.721c0.242-0.289,0.387-0.627,0.438-1.014c0-0.338,0-0.674-0.146-1.012
			c-0.145-0.482-0.482-0.818-0.965-1.012c-0.24-0.098-0.48-0.145-0.723-0.191v-1.156H124.357z M126.383,235.146l-2.023,0.674v-5.588
			l1.492,4.047l0.531-0.193V235.146z M118.867,226.523l-0.336-0.916l5.152-1.828c0.242-0.049,0.482-0.145,0.674-0.195v1.158
			c-0.336,0-0.674,0.096-1.059,0.191l-0.771,0.289l1.35,3.709l0.48-0.145v1.012l-0.145,0.049l0.145,0.385v5.588l-1.879,0.676
			l-0.336-0.916l1.299-0.48l-3.275-9.059L118.867,226.523z"/>
		<path fill="none" stroke="#58574B" stroke-width="0.216" d="M118.867,226.523l-0.336-0.916l5.152-1.828
			c0.482-0.145,0.916-0.242,1.301-0.338c0.387-0.049,0.771-0.049,1.061,0c0.676,0.047,1.156,0.24,1.492,0.529
			c0.338,0.289,0.58,0.625,0.725,0.963c0.287,0.771,0.24,1.396-0.049,2.023c-0.289,0.576-0.771,1.012-1.396,1.301l0.049,0.098
			c0.336-0.146,0.674-0.195,1.012-0.195c0.385,0,0.77,0.051,1.156,0.146c0.77,0.145,1.348,0.723,1.686,1.637
			c0.24,0.725,0.289,1.35,0.096,1.977c-0.191,0.627-0.576,1.156-1.107,1.639c-0.48,0.434-1.107,0.771-1.732,1.012l-5.492,1.928
			l-0.336-0.916l1.301-0.48l-3.277-9.059L118.867,226.523L118.867,226.523z M125.852,234.279l0.963-0.336
			c0.676-0.242,1.158-0.676,1.445-1.254c0.289-0.627,0.338-1.203,0.098-1.83c-0.338-0.916-0.82-1.396-1.543-1.445
			c-0.674-0.096-1.299,0-1.83,0.191l-0.771,0.242L125.852,234.279L125.852,234.279z M123.877,228.932l0.82-0.24
			c0.432-0.191,0.818-0.432,1.059-0.721s0.385-0.627,0.436-1.014c0-0.338,0-0.674-0.146-1.012c-0.145-0.482-0.48-0.818-0.963-1.012
			c-0.482-0.24-1.061-0.24-1.783,0l-0.77,0.289L123.877,228.932z"/>
	</g>
	<g>
		<path fill="#EAB306" d="M84.859,257.785v12.959h-3.18v-6.938c0-1.012-0.047-1.59-0.096-1.828
			c-0.049-0.195-0.145-0.338-0.385-0.436c-0.193-0.098-0.676-0.145-1.445-0.145h-0.289v-1.541c1.541-0.338,2.697-1.012,3.516-2.072
			H84.859L84.859,257.785z"/>
		<path fill="#EAB306" d="M91.172,269.25h0.047c0.146,0,0.291-0.047,0.436-0.191c0.096-0.098,0.145-0.24,0.145-0.385
			c0.049-0.193,0.049-0.531,0.049-1.012v-2.168c-0.145,0.338-0.387,0.576-0.676,0.771v-1.783c0.242,0,0.387-0.096,0.482-0.24
			c0.145-0.191,0.191-0.529,0.191-1.012v-2.455c0-0.627-0.047-1.012-0.145-1.207c-0.096-0.191-0.289-0.287-0.529-0.287l0,0v-2.072
			c0.818,0,1.541,0.146,2.07,0.387c0.578,0.24,1.012,0.625,1.35,1.059c0.289,0.482,0.482,1.012,0.482,1.494
			c0.047,0.529,0.096,1.541,0.096,3.035v1.879c0,1.637-0.049,2.744-0.096,3.273c0,0.529-0.193,1.063-0.529,1.541
			c-0.338,0.482-0.771,0.867-1.352,1.109c-0.576,0.24-1.252,0.336-2.021,0.336V269.25L91.172,269.25z M87.125,267.469h3.373
			c0,0.627,0,1.012,0,1.205c0.047,0.145,0.096,0.287,0.24,0.385c0.098,0.098,0.24,0.191,0.434,0.191v2.072l0,0
			c-0.963,0-1.734-0.145-2.359-0.434c-0.58-0.336-1.014-0.771-1.303-1.303C87.268,269.012,87.125,268.287,87.125,267.469
			L87.125,267.469z M91.172,266.266c-0.049,0-0.049,0-0.096,0.047c-0.338,0.193-0.725,0.289-1.205,0.289
			c-0.625,0-1.205-0.191-1.639-0.529c-0.482-0.336-0.771-0.721-0.916-1.203s-0.191-1.107-0.191-1.928v-1.061
			c0-0.963,0.047-1.688,0.096-2.117c0.096-0.482,0.289-0.916,0.578-1.303c0.338-0.385,0.771-0.723,1.303-0.916
			c0.576-0.24,1.203-0.336,1.926-0.336h0.145v2.07c-0.145,0-0.287,0.098-0.432,0.242c-0.193,0.143-0.242,0.529-0.242,1.154v2.553
			c0,0.578,0.049,0.916,0.191,1.061c0.146,0.098,0.338,0.193,0.482,0.193l0,0V266.266L91.172,266.266z"/>
		<path fill="#EAB306" d="M105.332,261.109h-3.373c0-0.674,0-1.059,0-1.203c0-0.193-0.096-0.338-0.191-0.434
			c-0.145-0.098-0.289-0.146-0.48-0.146v-2.117h0.047c0.916,0,1.688,0.145,2.313,0.48c0.625,0.291,1.063,0.723,1.303,1.303
			C105.186,259.521,105.332,260.242,105.332,261.109L105.332,261.109z M101.287,262.314c0.047-0.049,0.047-0.049,0.096-0.049
			c0.336-0.191,0.721-0.287,1.252-0.287c0.578,0,1.154,0.143,1.59,0.479c0.482,0.338,0.771,0.771,0.914,1.205
			c0.145,0.48,0.193,1.107,0.193,1.928v1.105c0,0.918-0.049,1.639-0.096,2.121c-0.098,0.432-0.289,0.867-0.578,1.301
			c-0.338,0.385-0.771,0.676-1.303,0.916c-0.527,0.191-1.201,0.287-1.926,0.287h-0.145v-2.072c0.145,0,0.289-0.094,0.432-0.189
			c0.195-0.145,0.242-0.529,0.242-1.156v-2.553c0-0.482-0.047-0.82-0.145-1.012c-0.098-0.193-0.289-0.24-0.529-0.24v-1.783H101.287z
			 M101.287,259.326L101.287,259.326c-0.195,0-0.34,0.051-0.438,0.146c-0.145,0.096-0.189,0.238-0.189,0.387
			c-0.051,0.191-0.051,0.529-0.051,1.059v2.168c0.146-0.338,0.387-0.627,0.678-0.771v1.783c-0.242,0-0.387,0.047-0.482,0.24
			c-0.145,0.145-0.193,0.48-0.193,1.012v2.455c0,0.578,0.049,0.965,0.145,1.156c0.146,0.193,0.289,0.287,0.531,0.287l0,0v2.072
			c-0.82,0-1.541-0.096-2.07-0.336c-0.578-0.289-1.012-0.627-1.35-1.109c-0.287-0.479-0.482-0.961-0.529-1.492
			c-0.049-0.529-0.096-1.541-0.096-3.033v-1.879c0-1.639,0.047-2.697,0.096-3.277c0.047-0.529,0.242-1.059,0.576-1.541
			c0.34-0.48,0.771-0.818,1.396-1.059c0.58-0.24,1.252-0.387,1.977-0.387V259.326z"/>
		<path fill="#EAB306" d="M112.992,263.422c0.48,0.146,0.865,0.436,1.105,0.818c0.193,0.387,0.338,1.254,0.338,2.65
			c0,1.012-0.096,1.83-0.338,2.357c-0.24,0.58-0.625,1.014-1.205,1.305c-0.576,0.287-1.299,0.48-2.215,0.48
			c-1.012,0-1.83-0.193-2.408-0.531s-0.965-0.771-1.107-1.254c-0.193-0.527-0.287-1.395-0.287-2.6v-1.061h3.178v2.119
			c0,0.578,0.047,0.916,0.146,1.063c0.047,0.145,0.191,0.24,0.432,0.24c0.242,0,0.387-0.098,0.482-0.291
			c0.098-0.191,0.098-0.674,0.098-1.492v-0.916c0-0.48-0.049-0.865-0.146-1.061c-0.096-0.24-0.289-0.385-0.48-0.48
			c-0.242-0.047-0.676-0.096-1.301-0.096v-1.881c0.771,0,1.252-0.047,1.443-0.096c0.193-0.096,0.289-0.193,0.387-0.385
			c0.098-0.193,0.098-0.531,0.098-0.965v-0.674c0-0.482-0.049-0.771-0.146-0.914c-0.049-0.146-0.193-0.24-0.434-0.24
			c-0.191,0-0.336,0.096-0.434,0.24s-0.145,0.48-0.145,0.963v1.059h-3.18v-1.105c0-1.203,0.289-2.072,0.816-2.506
			c0.58-0.434,1.445-0.627,2.699-0.627c1.539,0,2.553,0.289,3.082,0.916c0.578,0.578,0.818,1.445,0.818,2.504
			c0,0.725-0.096,1.252-0.287,1.541C113.809,262.846,113.473,263.133,112.992,263.422z"/>
	</g>
</g>
</svg>
