<?xml version="1.0" encoding="UTF-8"?> <svg xmlns="http://www.w3.org/2000/svg" width="342" height="400" viewBox="0 0 342 400" fill="none"> <path d="M335.215 16.6129V216.758C334.93 235.535 331.699 259.386 320.429 284.169C281.982 368.838 184.066 389.04 170.497 391.625C156.281 388.527 53.367 364.486 18.1692 276.548C9.65488 255.281 6.8611 234.661 6.74707 216.739V16.6129C57.3581 11.1394 113.842 7.60443 175.343 7.77547C233.423 7.94652 286.961 11.4055 335.215 16.6129Z" fill="black"></path> <path d="M77.9785 32.3677L92.1375 31.3984L92.2895 33.451L80.3542 34.2682L80.8293 41.3192L91.5103 40.578L91.6433 42.6116L80.9623 43.3338L81.5705 51.9241L79.3279 52.0762L77.9785 32.3677Z" fill="white"></path> <path d="M95.71 43.1094C95.71 38.9853 98.9219 35.4883 103.331 35.4883C107.702 35.4883 110.933 38.9282 110.933 43.1094C110.933 47.2335 107.683 50.7305 103.274 50.7305C98.8838 50.7305 95.71 47.2906 95.71 43.1094ZM108.691 43.1094C108.691 39.9735 106.353 37.4078 103.274 37.4078C100.119 37.4078 97.9336 39.9735 97.9336 43.1094C97.9336 46.2453 100.252 48.792 103.331 48.792C106.486 48.792 108.691 46.2453 108.691 43.1094Z" fill="white"></path> <path d="M114.012 42.1172C114.012 37.9931 117.224 34.4961 121.633 34.4961C126.004 34.4961 129.235 37.9361 129.235 42.1172C129.235 46.2414 125.985 49.7383 121.576 49.7383C117.205 49.7383 114.012 46.2984 114.012 42.1172ZM126.992 42.1172C126.992 38.9813 124.655 36.4156 121.576 36.4156C118.421 36.4156 116.235 38.9813 116.235 42.1172C116.235 45.2531 118.554 47.7998 121.633 47.7998C124.788 47.7998 126.992 45.2531 126.992 42.1172Z" fill="white"></path> <path d="M134.006 45.1383L133.778 36.3389L131.745 36.3959L131.688 34.4764L133.721 34.4194L133.607 30.0101L135.774 29.9531L135.888 34.3623L140.506 34.2483L140.563 36.1679L135.945 36.2819L136.173 44.7963C136.211 46.5827 137.218 47.1909 138.681 47.1529C139.423 47.1339 140.031 46.9819 140.791 46.5827L140.848 48.4453C140.088 48.8634 139.29 49.1104 138.244 49.1295C135.888 49.2055 134.082 48.1032 134.006 45.1383Z" fill="white"></path> <path d="M146.795 45.7689L146.852 48.5627L144.686 48.6007L144.344 27.9989L146.51 27.9609L146.662 36.9124C147.822 35.1449 149.513 33.6245 152.193 33.5675C155.69 33.5105 159.206 36.2092 159.301 41.0746C159.377 45.8449 155.994 48.7337 152.459 48.7907C149.722 48.8287 147.955 47.3843 146.795 45.7689ZM157.058 41.0746C157.001 37.6346 154.588 35.468 151.832 35.525C149.114 35.5631 146.586 37.9007 146.643 41.2836C146.7 44.6666 149.304 46.8902 152.022 46.8332C154.835 46.7952 157.115 44.6666 157.058 41.0746Z" fill="white"></path> <path d="M162.589 44.1344C162.589 40.9985 165.136 39.3641 168.823 39.3641C170.685 39.3641 171.977 39.6111 173.289 39.9912V39.5351C173.289 36.9314 171.711 35.582 168.975 35.582C167.245 35.582 165.896 36.0001 164.546 36.6273L163.9 34.8408C165.516 34.0996 167.055 33.6055 169.203 33.6055C171.255 33.6055 172.871 34.1756 173.916 35.2209C174.923 36.2472 175.436 37.0644 175.436 38.927V48.4296H173.289V46.263C172.282 47.5554 170.609 48.7527 168.043 48.7527C165.288 48.7527 162.589 47.1942 162.589 44.1344ZM173.308 43.0701V41.7207C172.244 41.4166 170.818 41.0936 169.051 41.0936C166.333 41.0936 164.793 42.2719 164.793 44.0774C164.793 45.9019 166.485 46.9852 168.461 46.9852C171.141 46.9852 173.308 45.3887 173.308 43.0701Z" fill="white"></path> <path d="M182.337 28.0742H180.17V48.6759H182.337V28.0742Z" fill="white"></path> <path d="M189.767 28.0742H187.601V48.6759H189.767V28.0742Z" fill="white"></path> <path d="M203.014 39.252C203.071 33.6644 207.29 29.0841 213.106 29.1412C216.698 29.1792 218.77 30.5285 220.727 32.4101L219.245 33.9685C217.591 32.3721 215.748 31.2127 213.068 31.1937C208.697 31.1557 205.39 34.6717 205.333 39.271C205.276 43.8512 208.545 47.4622 212.897 47.5193C215.615 47.5383 217.401 46.531 219.302 44.7445L220.746 46.3029C218.656 48.3745 216.394 49.6098 212.802 49.5718C207.119 49.5148 202.957 44.9916 203.014 39.252Z" fill="white"></path> <path d="M225.646 29.0135L224.422 49.5781L226.585 49.7068L227.808 29.1422L225.646 29.0135Z" fill="white"></path> <path d="M231.751 44.4567L232.207 35.4102L234.373 35.5242L233.955 44.0386C233.822 46.7373 235.21 48.5048 237.775 48.6378C240.265 48.7709 242.242 47.0224 242.375 44.2856L242.793 35.9423L244.94 36.0373L244.218 50.6144L242.071 50.5003L242.204 47.9726C241.139 49.4931 239.581 50.6904 237.072 50.5764C233.518 50.3863 231.58 47.9156 231.751 44.4567Z" fill="white"></path> <path d="M251.04 48.1832L250.793 50.9579L248.626 50.7679L250.507 30.2422L252.674 30.4322L251.857 39.3457C253.206 37.7113 255.05 36.3809 257.711 36.628C261.188 36.9511 264.4 40.0109 263.963 44.8572C263.526 49.6086 259.839 52.0983 256.323 51.7752C253.624 51.5281 252.028 49.9127 251.04 48.1832ZM261.74 44.6292C262.044 41.2082 259.896 38.7946 257.14 38.5475C254.442 38.3004 251.667 40.334 251.363 43.7169C251.059 47.0809 253.396 49.5706 256.095 49.8176C258.927 50.0647 261.417 48.1832 261.74 44.6292Z" fill="white"></path> <path d="M40.1023 46.0749C40.1023 49.0397 37.7077 51.4153 34.7428 51.4153C31.778 51.4153 29.4023 49.0207 29.4023 46.0749C29.4023 43.129 31.797 40.7344 34.7428 40.7344C37.6886 40.7344 40.1023 43.11 40.1023 46.0749Z" fill="white"></path> <path d="M308.439 42.5194C310.415 44.705 310.263 48.088 308.059 50.0835C305.873 52.0601 302.49 51.908 300.495 49.7034C298.518 47.5178 298.67 44.1349 300.875 42.1393C303.06 40.1628 306.443 40.3338 308.439 42.5194Z" fill="white"></path> <path d="M123.895 187.227V341.264H111.579C104.129 337.083 96.5273 332.218 89.1152 326.535V187.227H123.895V187.227Z" fill="white"></path> <path d="M174.392 226.258V261.037H40.1578C39.0935 258.016 38.1242 254.918 37.25 251.706V226.258H174.392Z" fill="white"></path> <path d="M173.823 183.844L258.093 186.124L308.02 190.99V223.793L296.407 267.98L272.366 301.315L251.156 317.584L226.715 335.791L197.257 349.551L172.911 356.165L173.823 183.844Z" fill="white"></path> <path d="M218.483 342.002L214.359 343.542C205.104 347.001 197.178 349.224 192.161 350.479L174.942 354.109L174.011 336.966L173.593 302.566L209.779 334.096L218.483 342.002Z" fill="black"></path> <path d="M255.507 322.354L252.732 324.198C247.126 327.961 240.968 331.515 234.487 334.784L232.434 335.81L173.784 282.709V248.348L255.507 322.354Z" fill="black"></path> <path d="M284.261 295.23L282.798 297.054C278.693 302.224 273.998 307.165 268.886 311.726L266.7 313.665L173.023 228.844V200.356L173.29 194.711L284.261 295.23Z" fill="black"></path> <path d="M302.221 258.262L301.822 259.706C299.94 266.7 297.28 273.504 293.973 279.89L292.11 283.482L188.607 189.672L196.172 189.862C204.515 190.071 214.835 190.47 226.865 191.021L228.062 191.059L302.221 258.262Z" fill="black"></path> <path d="M305.549 194.64V230.655C305.549 232.309 305.511 233.981 305.435 235.768L305.169 242.059L250.034 192.094L257.902 192.493C269.99 193.12 281.051 193.709 289.166 194.184L305.549 194.64Z" fill="black"></path> <path d="M303.344 127.454V134.562C303.344 134.562 204.801 128.119 171.732 128.1C138.302 128.081 38.6572 134.562 38.6572 134.562V127.454C38.6572 127.454 138.302 120.992 171.732 120.992C204.782 121.011 303.344 127.454 303.344 127.454Z" fill="black"></path> <path d="M174.392 183.711H167.607V360.042H174.392V183.711Z" fill="white"></path> <path d="M175.172 360.819H166.848V182.93H175.172V360.819ZM168.387 359.261H173.614V184.469H168.387V359.261Z" fill="black"></path> <path d="M39.1699 192.546V130.741L172.625 124.336L305.453 131.007V192.546L238.364 189.999L178.916 187.795L153.829 187.528L39.1699 192.546Z" fill="white"></path> <path d="M303.018 189.676V196.784C303.018 196.784 300.338 196.613 295.72 196.309C288.27 195.834 275.765 195.055 261.283 194.218C250.545 193.591 238.723 192.926 227.073 192.337C215.157 191.729 203.43 191.178 193.206 190.816C184.577 190.512 177.032 190.303 171.407 190.303C137.976 190.284 38.3506 196.765 38.3506 196.765V189.657C38.3506 189.657 137.995 183.195 171.407 183.195C175.379 183.195 180.301 183.29 185.87 183.461C195.6 183.746 207.346 184.241 219.585 184.849C230.95 185.4 242.733 186.046 253.718 186.673C267.022 187.433 279.186 188.156 288.118 188.726C297.279 189.315 303.018 189.676 303.018 189.676Z" fill="black"></path> <path d="M37.5732 197.62V188.954L38.2954 188.897C39.2837 188.84 138.092 182.435 171.294 182.435C175.209 182.378 180.113 182.511 185.909 182.701C195.07 182.967 206.435 183.423 219.644 184.089C229.736 184.583 241.215 185.191 253.796 185.913C267.1 186.673 279.263 187.396 288.196 187.966C297.356 188.536 303.077 188.916 303.077 188.916L303.799 188.973V197.639L295.684 197.126C292.13 196.898 279.13 196.062 261.246 195.036C251.117 194.447 239.124 193.762 227.037 193.154C213.771 192.489 202.387 191.976 193.188 191.634C183.629 191.292 176.502 191.121 171.408 191.121H171.294C138.149 191.121 39.3977 197.525 38.3905 197.582L37.5732 197.62ZM171.294 189.543H171.408C176.521 189.543 183.648 189.714 193.246 190.056C202.463 190.398 213.847 190.912 227.113 191.577C239.2 192.185 251.193 192.869 261.322 193.458C279.206 194.485 292.206 195.321 295.76 195.549L302.222 195.967V190.417C300.416 190.303 295.304 189.961 288.063 189.524C279.149 188.973 266.967 188.232 253.682 187.472C241.12 186.768 229.641 186.16 219.549 185.647C206.34 185.001 194.994 184.526 185.833 184.26C180.132 184.089 175.267 183.994 171.389 183.994H171.275C139.632 183.994 48.2162 189.809 39.1127 190.398V195.948C48.7864 195.34 139.727 189.543 171.294 189.543Z" fill="white"></path> <path d="M96.604 138.629H107.228V159.155C107.228 161.188 106.905 163.108 106.278 164.913C105.651 166.719 104.643 168.315 103.294 169.665C101.945 171.014 100.519 171.964 99.0177 172.515C96.9461 173.276 94.4754 173.656 91.5676 173.656C89.8952 173.656 88.0517 173.542 86.0751 173.314C84.0986 173.085 82.4261 172.61 81.1147 171.926C79.7844 171.223 78.568 170.235 77.4657 168.961C76.3634 167.688 75.6032 166.358 75.2041 164.989C74.5579 162.804 74.2158 160.865 74.2158 159.174V138.629H84.8398V159.649C84.8398 161.53 85.3719 162.994 86.3982 164.039C87.4435 165.103 88.8879 165.616 90.7314 165.616C92.5559 165.616 94.0003 165.103 95.0456 164.058C96.0909 163.013 96.604 161.549 96.604 159.63V138.629V138.629Z" fill="black"></path> <path d="M122.241 163.484H112.017V173.082H122.241V163.484Z" fill="black"></path> <path d="M151.605 158.982L160.937 161.795C160.31 164.418 159.322 166.603 157.972 168.352C156.623 170.1 154.95 171.431 152.955 172.324C150.959 173.217 148.412 173.673 145.334 173.673C141.59 173.673 138.53 173.122 136.154 172.039C133.778 170.956 131.726 169.036 130.015 166.299C128.286 163.563 127.431 160.047 127.431 155.77C127.431 150.069 128.951 145.698 131.973 142.619C134.995 139.559 139.29 138.02 144.839 138.02C149.173 138.02 152.594 138.894 155.083 140.661C157.573 142.41 159.417 145.109 160.614 148.739L151.206 150.829C150.883 149.784 150.541 149.005 150.18 148.529C149.591 147.712 148.85 147.085 147.994 146.648C147.139 146.211 146.17 145.983 145.106 145.983C142.692 145.983 140.848 146.952 139.556 148.891C138.587 150.335 138.093 152.597 138.093 155.675C138.093 159.496 138.663 162.118 139.822 163.525C140.981 164.931 142.616 165.653 144.706 165.653C146.74 165.653 148.279 165.083 149.325 163.943C150.37 162.821 151.13 161.168 151.605 158.982Z" fill="black"></path> <path d="M176.54 163.484H166.315V173.082H176.54V163.484Z" fill="black"></path> <path d="M181.082 161.682L191.212 161.055C191.44 162.708 191.877 163.944 192.561 164.818C193.664 166.205 195.222 166.909 197.256 166.909C198.776 166.909 199.954 166.548 200.772 165.844C201.589 165.122 202.007 164.305 202.007 163.374C202.007 162.48 201.608 161.682 200.829 160.979C200.049 160.276 198.225 159.611 195.374 158.983C190.699 157.938 187.373 156.551 185.377 154.802C183.363 153.073 182.374 150.849 182.374 148.15C182.374 146.383 182.888 144.71 183.914 143.133C184.94 141.556 186.48 140.32 188.551 139.408C190.604 138.515 193.435 138.059 197.027 138.059C201.437 138.059 204.782 138.876 207.1 140.51C209.4 142.145 210.787 144.748 211.224 148.321L201.19 148.911C200.924 147.352 200.372 146.231 199.517 145.528C198.662 144.824 197.484 144.463 195.982 144.463C194.747 144.463 193.816 144.729 193.188 145.262C192.561 145.794 192.257 146.421 192.257 147.181C192.257 147.732 192.523 148.226 193.036 148.664C193.53 149.12 194.728 149.538 196.609 149.937C201.266 150.944 204.592 151.951 206.606 152.978C208.621 154.004 210.084 155.277 210.996 156.798C211.909 158.318 212.365 160.01 212.365 161.91C212.365 164.115 211.757 166.148 210.54 168.011C209.324 169.873 207.613 171.299 205.428 172.249C203.242 173.218 200.467 173.693 197.142 173.693C191.288 173.693 187.221 172.572 184.959 170.311C182.659 168.03 181.386 165.16 181.082 161.682Z" fill="black"></path> <path d="M227.322 163.484H217.097V173.082H227.322V163.484Z" fill="black"></path> <path d="M254.917 167.403H242.83L241.157 173.085H230.286L243.229 138.629H254.841L267.784 173.085H256.627L254.917 167.403ZM252.712 159.953L248.911 147.561L245.148 159.953H252.712Z" fill="black"></path> <path d="M224.223 88.7989L227.606 96.0589L236.235 96.7241C236.843 96.7811 237.09 97.4653 236.615 97.8074L230.077 102.977L232.034 110.655C232.167 111.187 231.54 111.605 231.027 111.32L223.596 107.253L216.165 111.32C215.652 111.605 215.006 111.187 215.158 110.655L217.115 102.977L210.558 97.8074C210.102 97.4463 210.349 96.7621 210.958 96.7241L219.586 96.0589L222.969 88.7989C223.216 88.2858 223.995 88.2858 224.223 88.7989Z" fill="#FDBB12"></path> <path d="M172.833 87.2925L176.216 94.5525L184.844 95.2177C185.433 95.2747 185.68 95.9589 185.224 96.301L178.686 101.47L180.644 109.149C180.777 109.681 180.15 110.099 179.637 109.814L172.205 105.747L164.774 109.814C164.261 110.099 163.615 109.681 163.767 109.149L165.725 101.47L159.168 96.301C158.712 95.9399 158.959 95.2557 159.567 95.2177L168.195 94.5525L171.578 87.2925C171.806 86.7983 172.586 86.7983 172.833 87.2925Z" fill="#FDBB12"></path> <path d="M121.653 88.7974L125.036 96.0574L133.664 96.7226C134.253 96.7796 134.501 97.4638 134.044 97.8059L127.507 102.975L129.464 110.653C129.597 111.186 128.97 111.604 128.457 111.319L121.026 107.252L113.595 111.319C113.082 111.604 112.435 111.186 112.587 110.653L114.545 102.975L107.988 97.8059C107.532 97.4448 107.779 96.7606 108.387 96.7226L117.035 96.0384L120.418 88.7784C120.646 88.2843 121.425 88.2843 121.653 88.7974Z" fill="#FDBB12"></path> <path d="M303.02 72.3179C279.415 69.2771 201.056 65.1909 171.769 65.1719C142.083 65.1529 62.7357 69.2771 38.9791 72.3179C34.836 72.8501 32.3843 73.1732 32.1562 73.2302V212.102C32.1562 226.584 33.9998 239.773 37.2497 251.709C38.1239 254.921 39.0932 258.019 40.1575 261.04C50.3443 289.947 68.9885 311.157 89.0961 326.533C96.5271 332.215 104.129 337.08 111.579 341.262C142.615 358.67 170.914 363.992 170.99 363.992C171.009 363.992 174.943 363.27 181.462 361.445C187.809 359.678 196.609 356.884 206.682 352.741C213.809 349.776 221.601 346.165 229.564 341.756C236.387 337.936 243.362 333.565 250.242 328.528C256.495 323.91 262.652 318.759 268.487 312.963C274.074 307.47 279.377 301.389 284.185 294.718C288.88 288.218 293.118 281.11 296.748 273.394C300.397 265.659 303.381 257.334 305.604 248.307C307.847 239.089 309.272 229.169 309.69 218.488C309.766 216.378 309.804 214.249 309.804 212.102V73.2302C309.804 73.2302 307.334 72.8881 303.02 72.3179ZM174.335 353.501L174.164 353.539C172.472 353.938 171.37 354.147 170.99 354.223C170.61 354.147 169.507 353.938 167.816 353.539C161.278 352 143.964 347.381 124.313 337.689C111.446 331.322 99.8151 323.91 89.7042 315.662C70.737 300.191 56.9962 281.699 48.8619 260.698C44.6617 249.903 41.925 238.291 40.6896 226.166C40.1765 221.186 39.9294 215.998 39.9294 210.752V80.6042C64.9594 77.5254 143.052 73.5913 171.446 73.5913H171.769C200.467 73.5913 277.001 77.4874 302.069 80.6042V211.798C301.993 222.346 300.872 232.57 298.724 242.168C296.767 251.006 293.935 259.482 290.286 267.407C286.884 274.838 282.722 282.003 277.914 288.674C273.39 294.984 268.126 301.066 262.291 306.748C256.723 312.165 250.565 317.315 243.97 322.028C237.508 326.647 230.476 330.98 223.102 334.914C215.842 338.772 208.05 342.307 199.954 345.462C188.19 349.985 178.877 352.437 174.335 353.501Z" fill="white"></path> <path d="M303.133 71.3876C278.901 68.2518 200.808 64.2417 171.768 64.2227H171.616C143.032 64.2227 63.0959 68.2708 38.8452 71.3876C36.4315 71.6917 32.3264 72.2239 31.9653 72.2999L31.2051 72.4519V212.103C31.2051 226.034 32.9346 239.432 36.3365 251.957C37.1727 255.055 38.123 258.115 39.2633 261.364C48.2908 287.022 64.8634 309.201 88.525 327.294C95.4619 332.596 103.064 337.576 111.103 342.099C140.885 358.786 167.796 364.354 170.742 364.924L170.989 364.943C171.198 364.943 175.265 364.164 181.708 362.359C187.371 360.8 196.361 358.006 207.042 353.616C215.119 350.271 222.854 346.565 230.019 342.593C237.431 338.45 244.425 333.984 250.811 329.289C257.501 324.348 263.678 319.084 269.151 313.629C274.948 307.946 280.269 301.77 284.964 295.27C289.829 288.504 294.086 281.282 297.621 273.794C301.365 265.812 304.368 257.316 306.516 248.536C308.853 238.957 310.241 228.865 310.64 218.527C310.716 216.398 310.754 214.269 310.754 212.103V72.3949L303.133 71.3876ZM308.853 212.103C308.853 214.231 308.815 216.36 308.739 218.451C308.34 228.656 306.991 238.634 304.672 248.099C302.544 256.746 299.598 265.128 295.892 272.996C292.414 280.37 288.233 287.497 283.424 294.168C278.787 300.572 273.541 306.673 267.821 312.28C262.404 317.677 256.304 322.885 249.69 327.75C243.361 332.406 236.424 336.834 229.088 340.921C221.999 344.855 214.321 348.542 206.32 351.849C195.734 356.22 186.82 358.976 181.195 360.534C175.455 362.149 171.749 362.891 170.989 363.043C167.397 362.321 141.113 356.752 112.035 340.445C104.071 335.96 96.5452 331.038 89.6843 325.773C66.3268 307.927 49.9633 286.033 41.0498 260.737C39.9285 257.544 38.9972 254.504 38.161 251.463C34.8161 239.109 33.1056 225.863 33.1056 212.103V74.0484C34.0179 73.9154 35.8424 73.6873 39.0923 73.2692C63.286 70.1713 143.089 66.1232 171.616 66.1232H171.768C200.77 66.1422 278.711 70.1523 302.886 73.2692L308.853 74.0484V212.103V212.103Z" fill="black"></path> <path d="M171.77 72.6409C142.084 72.6029 62.7181 76.708 38.9805 79.7679V210.752C38.9805 216.112 39.2465 221.281 39.7597 226.261C41.033 239.032 43.9028 250.587 47.97 261.04C57.1685 284.759 72.4298 302.795 89.0974 316.403C100.52 325.734 112.626 332.956 123.877 338.525C143.433 348.179 160.595 352.817 167.608 354.451C169.775 354.964 170.972 355.192 170.991 355.192C171.01 355.192 172.207 354.964 174.393 354.451C174.412 354.451 174.431 354.432 174.469 354.432C179.258 353.33 188.666 350.821 200.297 346.355C207.386 343.599 215.33 340.121 223.56 335.75C230.421 332.101 237.529 327.787 244.523 322.788C250.832 318.284 257.066 313.172 262.958 307.432C268.583 301.959 273.886 295.915 278.694 289.225C283.388 282.706 287.608 275.579 291.162 267.787C294.735 259.995 297.623 251.538 299.657 242.377C301.748 232.95 302.926 222.783 303.021 211.817V79.7679C279.416 76.708 201.058 72.6409 171.77 72.6409ZM302.071 211.798C301.995 222.345 300.873 232.57 298.726 242.168C296.768 251.005 293.936 259.482 290.287 267.407C286.885 274.838 282.723 282.003 277.915 288.674C273.392 294.984 268.127 301.065 262.293 306.748C256.724 312.164 250.566 317.315 243.971 322.028C237.51 326.646 230.478 330.98 223.104 334.914C215.844 338.772 208.051 342.307 199.955 345.462C188.191 349.985 178.878 352.437 174.336 353.501L174.165 353.539C172.474 353.938 171.371 354.147 170.991 354.223C170.611 354.147 169.509 353.938 167.817 353.539C161.279 352 143.966 347.381 124.314 337.689C111.448 331.322 99.8164 323.91 89.7056 315.661C70.7383 300.191 56.9975 281.699 48.8632 260.698C44.663 249.903 41.9263 238.291 40.6909 226.166C40.1778 221.186 39.9307 215.998 39.9307 210.752V80.6041C64.9607 77.5252 143.053 73.5912 171.447 73.5912H171.77C200.468 73.5912 277.003 77.4872 302.071 80.6041V211.798Z" fill="white"></path> <path d="M303.135 78.8335C278.941 75.6976 200.849 71.6875 171.77 71.6875H171.447C142.692 71.6875 63.0032 75.7166 38.8475 78.8335L38.0303 78.9285V210.749C38.0303 216.052 38.2963 221.316 38.8095 226.352C40.0448 238.649 42.8386 250.432 47.0958 261.379C55.3441 282.703 69.275 301.442 88.5083 317.141C98.7141 325.484 110.478 332.972 123.459 339.377C143.301 349.184 160.785 353.84 167.38 355.379C168.692 355.683 170.725 356.14 170.991 356.14C171.219 356.14 173.025 355.74 174.526 355.398L174.678 355.36C179.24 354.296 188.685 351.825 200.639 347.245C208.812 344.052 216.68 340.479 223.997 336.583C231.447 332.611 238.536 328.24 245.074 323.564C251.745 318.794 257.978 313.587 263.623 308.113C269.534 302.336 274.874 296.178 279.454 289.773C284.339 283.007 288.577 275.747 292.017 268.183C295.723 260.163 298.593 251.534 300.588 242.583C302.755 232.852 303.895 222.494 303.971 211.813V78.9285L303.135 78.8335ZM302.071 211.794C301.995 222.342 300.873 232.567 298.726 242.165C296.768 251.002 293.936 259.479 290.287 267.404C286.885 274.835 282.723 282 277.915 288.671C273.392 294.981 268.127 301.062 262.293 306.745C256.724 312.161 250.566 317.312 243.971 322.025C237.51 326.643 230.478 330.977 223.104 334.911C215.844 338.769 208.052 342.304 199.955 345.459C188.191 349.982 178.878 352.434 174.336 353.498L174.165 353.536C172.474 353.935 171.371 354.144 170.991 354.22C170.611 354.144 169.509 353.935 167.817 353.536C161.28 351.996 143.966 347.378 124.314 337.685C111.448 331.319 99.8164 323.907 89.7056 315.658C70.7384 300.188 56.9975 281.696 48.8633 260.695C44.6631 249.9 41.9264 238.288 40.691 226.162C40.1779 221.183 39.9308 215.995 39.9308 210.749V80.601C64.9608 77.5221 143.053 73.588 171.447 73.588H171.77C200.468 73.588 277.003 77.4841 302.071 80.601V211.794Z" fill="black"></path> <path d="M175.514 0.954955C111.846 0.783908 53.3478 4.45193 0.950195 10.0965V217.349C1.06423 235.879 3.95303 257.26 12.7715 279.287C49.2046 370.342 155.767 395.22 170.496 398.412C184.56 395.733 285.953 374.808 325.731 287.156C337.401 261.479 340.727 236.792 341.031 217.349V10.0965C291.085 4.718 235.627 1.14501 175.514 0.954955ZM335.899 216.817C335.595 235.67 332.364 259.617 321.056 284.514C282.456 369.524 184.142 389.822 170.515 392.426C156.223 389.309 52.9106 365.191 17.5608 276.874C9.02744 255.512 6.21466 234.815 6.10062 216.817V15.8551C56.9207 10.3626 113.652 6.80858 175.4 6.97963C233.689 7.15068 287.455 10.6096 335.918 15.8551V216.817H335.899Z" fill="white"></path> <path d="M341.145 9.16366C313.72 6.21784 286.086 3.95621 258.415 2.43579C230.762 0.896357 203.071 0.0981358 175.533 0.00310938C117.586 -0.110922 58.7453 2.91092 0.855239 9.16366L0 9.23968V217.367C0.133037 239.318 4.14315 260.261 11.8973 279.647C47.4562 368.497 150.085 394.952 170.306 399.361L170.496 399.399L170.686 399.361C189.901 395.693 287.797 373.039 326.606 287.553C336.412 265.982 341.601 242.358 342 217.367V9.23968L341.145 9.16366ZM340.099 217.348C339.7 242.073 334.588 265.431 324.876 286.774C286.581 371.119 190.034 393.698 170.515 397.461C150.028 392.975 48.7675 366.634 13.6648 278.944C6.00567 259.786 2.03356 239.071 1.90053 217.367V10.9502C59.4485 4.79244 117.909 1.73259 175.514 1.90364C230.249 2.07469 285.611 5.11553 340.099 10.9502V217.348Z" fill="black"></path> </svg> 