<?xml version="1.0" encoding="UTF-8"?>
<svg id="Calque_1" xmlns="http://www.w3.org/2000/svg" version="1.1" viewBox="0 0 695 597.7">
  <!-- Generator: Adobe Illustrator 29.0.1, SVG Export Plug-In . SVG Version: 2.1.0 Build 192)  -->
  <defs>
    <style>
      .st0 {
        fill: #ffd100;
      }

      .st0, .st1, .st2 {
        fill-rule: evenodd;
      }

      .st1 {
        fill: #d0b112;
      }

      .st2 {
        fill: #e71b21;
      }
    </style>
  </defs>
  <path class="st0" d="M168.1,45.3c53-24.1,120.7-35.5,180.5-35.6,59.8,0,122.8,11.1,178.5,35.6v276.2c0,48-16.8,171.3-179.7,255.1-81.5-41.6-127-94.7-151.8-145.1-21.8-44.5-27.5-68.9-27.5-117.5V45.3Z"/>
  <path class="st2" d="M347.4,554.7c51.9-28.2,98.4-66.5,128.2-117.9l14.1-2.6v13.6c0,0,46.6-9.6,46.6-9.6v-11.7s31.1-5.6,31.1-5.6c16.6-3,27.8-14.6,27.8-31.8v-22.8c0-16.8-11.8-27.1-27.5-26.5v-29.5l-60,10.7V58.2c-50-19.9-105.6-29.2-159.1-29.1-52.2,0-111.8,9-161.1,29v255.9c0,25.7,1.7,44.1,6.8,62.5l-67.5,12v110.8l122.3-21.7c27.1,31.7,61,57.1,98.3,77.1Z"/>
  <path class="st0" d="M302.6,100.5c.2,0,2-1.1,2.2-1.1.4-5.3.8-12.4,1.4-17.6-1.5,0-3.9.1-5.4.5-3,.6-4.6,2.2-3.7,6,1,4.1,3.8,8.9,5.6,12.2ZM424.3,123c.9.8,3,2.8,4.1,3.3,2.4,1.2,6,1.5,8.7,2.2,6.2,1.6,12.1,3.6,17.6,7,3.8,2.4,6.8,5.6,9.7,9l11.1,12.5c2.2-4.4,6.1-7.2,8.9-8.9,2.3-5.9,5.6-9.1,9.8-9.6,0-5,6.9-10.4,13.5-10.7,5.1-7.8,12.3-8.4,20.8-3.7l8-6.4-2.5-3.2c-.9-1.1-3.5-5.5,2.3-9.9l51.6-38.8c8.7-6.5,18.5-12.2,28.1-17.4,11.1-6,22.4-11.5,33.8-16.8,6.4-3,12.8-5.9,19.1-8.9,6.3-2.9,13.3.6,9.6,9.2-10.4,24-25.6,45.3-43,64.8-17.6,19.8-36.3,39.1-55.3,57.6-2.9,2.8-6.7,1.8-9-.3-2-1.7-3.5-3.4-5.9-4.7-2.4-1.3-4.3-1.3-7,0-3.7,1.8-7.2,4-10.6,6.5,3,5,5.8,10.9,5.8,16,0,6.2-5.3,9.8-10.5,11.9l-2.4,8.3c7.6,8.2,10.9,19.9,14.5,30.2,2.5,7.2,5.4,14.2,7.7,21.5,2.6,8.1,2.8,18.8-2.1,26-6.1,8.8-16.9,12.3-26.3,16.1-8,3.3-20.6,8.6-29.4,7.2-5.3-.9-10.9-3.8-16.1-6.1-7-3.2-13.4-6.2-19.5-10.1-7.8-5-11.1-8-18.3-13.6-2.7,14-1.3,27.2,5,40.1,6.6,6.5,13.9,15.6,19.6,24.2l-256.2,44.6-.5-11.6c-13.2-5.8-23.8-11.2-33-17.3l-14-13c-4.6-5-5.7-10.7-5.6-18.7.2-15,1.7-29.6,3.3-49.4l68.6-108.3,26.5-16.1c3.2-2.8,5.5-3.1,8.9-3.6,8.9-1.2,18.4,1.5,26.4-.8v-.7c-3.8-3.9-5-9.3-5.1-14.6,0-4.6.7-10,3.4-12.9-5.7-3.2-10.7-5.6-14.7-11-4.9-6.6-3.8-13.6,1.2-19.4,5.7-6.8,16.4-11.6,26.3-11.7,1.8-8.2,5.8-15.1,11.5-19.5,2.9-2.3,7.5-4.6,11-5.9l1.1-.4,26.3.6c12.3.3,21.5,11,25.1,22.6,3.8.2,8.3,1.4,11.6,2.8,7.9,3.4,12,11,10.8,19.4-1.1,8-6.1,13.5-12.5,16.9,1.6.8,2.9,2.1,3.9,3.7,1.2,2,1.7,4.3,1.7,6.5,0,2.5,0,4.9-.2,7.4,0,.5,0,1.5-.2,2.1l16.6-.6c4-.2,5.8,2,6.7,4.2Z"/>
  <path class="st2" d="M511.4,133.5c-8,.9-11.6,3.2-8.8,7.4l-4.6,3.5-3.7.3c-3,3.3-4.3,6.8-4.2,9.8l-2.4-1.7c-6.3,5-8.3,9.8-7.6,14.6l-2.3,2-18.1-21c-2.5-2.9-4.9-5.7-8.2-7.7-4.9-3.1-10.7-4.9-16.2-6.3-3.4-.9-6.7-1.2-9.7-2.7-2.6-1.3-4.1-3.5-6.4-5.1.5-1.4.2-2.5-.7-2.4l-26.2,1.4,1.4-2c.7-1.1,1.2-4.7,1.3-6.8.2-2.8.1-4.7.1-7,0-.9-.1-2.3-.8-3.3-1.1-1.7-3.1-2.5-4.4-1.5l-3.7,2.9-.8-.6v-10.5c10.9-2.4,15.7-8.3,16.4-15,.6-5-1.3-9.7-6.9-12.3-3.1-1.4-7.5-1.8-13.5-1.9-2.1-11.2-10.4-23.4-20.9-23.6l-25.1-.6c-3.3,1.2-6,2.7-8.1,4.3-3.8,2.9-5,5-6.8,9.2-1.5,3.5-3.3,8.8-4.1,12.2-16.9.3-24.5,4.9-28.3,9.4-3,3.6-4.8,8.2-1.6,12.5,1.9,2.5,6.5,6.1,11.7,9-4.8-6.5-5.9-12.5-4.2-15.9,2.9-5.8,10.3-7.1,20.5-7.4-1.6,7.7-2.2,20.1-3.1,30.2-1.7-1.2-2.6-1.8-4.3-1.7-3.4.3-5.9,7.9-4.6,15,.5,2.8,1.3,5.2,3.4,7.1,2.1,2,1.2,3,1.4,4.6.3,1.6,1,2.9,1.2,4.1-3.3,3.2-14.7,3-24.2,3.3-7.6.2-14.4.3-16.1,3.3l-24.9,15.3-67.4,106.2c-1.6,15.1-3.3,32.5-3.6,45.5,0,4.2.3,7.9,1.4,11.4,1.5,4.5,4.7,8.1,8.1,11.3,3.8,3.5,8,6.6,13.5,10.1,8.1,5.1,18.4,10.2,29.8,14.6l.4,18.5,7.2,11.8c133.1-10.4,260.2,35.1,247.8-30.1-1-5.2-2-11.3-5.8-18.4-5.1-9.5-15.5-23.4-24.1-31.7-9-17.8-8.7-38.7-3.2-56,9.1,6.7,18.4,14.5,29.3,21.6,9.9,6.4,20.5,12.7,29.5,14.4,5.2,1,14.4-2.3,25.5-6.9,8.7-3.6,18.6-6.8,23.6-13.9,3.4-4.9,3.7-13.4,1.3-20.6-2.3-7.2-5-13.6-7.7-21.4-4.4-13-8-25.6-17.9-32.1l1.2-5.4h3.1l2.2-7.7c4.6-1.4,9.4-3.8,9.4-7.2,0-4.1-3.1-10.4-8-17.5,6.8-5.2,17.3-12.6,22.6-12.5,4.9,0,11.3,4.8,14,8,18.2-17.7,38.9-39.3,55-57.3,18.5-20.8,33.2-42.2,42.9-65.4-29.6,13.6-62.7,28.8-82.2,43.5l-52.7,39.9,6,8.4-16.7,13.6c-3-3.8-6.3-5.5-11.3-5.3-2.6,2-4.5,4-5.4,6.1Z"/>
  <path class="st0" d="M337.1,47c-1.8,0-2.2,1-3,1.4-1.3.6-2.4,1.3-3.4,2-3.3,2.2-5,4.4-6.6,8-1.4,3.3-2.7,7.6-3.8,11.2,1.5.1,2.9.2,4.7.5,8.1,1.4,14.3,4.4,20.9,9.1,8.8,6.3,16.7,12.8,23.8,10.6,5.5-1.8,6.7-7.6,4.8-11.3-1.6-3.1-5-5-8.3-6.6-6.7-3.3-15.8-6.1-22.2-9.2-5.1-2.5-9-5.1-8.9-9.7,0-1.9.6-3.9,2-6.1ZM377.9,68.1c-.8-3.4-2-6.8-3.7-9.7-2.7-4.5-7.4-10.2-13.1-10.3h-.1c.3,1.6,0,3.4-.8,5-1,2-2.2,3.8-2.4,5.7-.2,1.9,1,4.3,3.7,5.9,5.2,3.1,10.7,3.1,16.5,3.4ZM331.9,168.5l5.6,6.1c1.4,1.6,2.8,2.5,5,2.5h13.9c3.5-.2,5.7-2.5,7.8-5l2.7-3c-3.2-6.9-5.7-13.1-8.5-20.3h-18.3c-1.5,4.2-3.3,8.5-5.2,13-.9,2.2-1.9,4.3-2.8,6.8ZM372.4,160.4c2.5-4.1,4.1-7.2,6.6-10.9-.4-10.9,1-14.7,1.6-21.7l.9-18.2v-12.1c-7.2,1.3-12.2,1-18,0-5.7-1-12.3-3.1-17.3-6-5.3-3.1-9.6-6.6-14.3-9.4-4.4-2.6-9-4.5-13.8-4.8-.8,6-1.3,13.6-1.8,19.6-.5,6.8-.3,14.3-.2,20.9.9,10.7,2.7,16.7,2.8,31.8l6.7,10.4-.3-3.3,2.7-12.9,10.6-6.8v-5.1s3.8-2.9,3.8-2.9l-2,3.6v4.3c2.4,1.3,3.1,2.7,5,4.2h7.6c1.8-1.5,2.9-3.1,5-4.3l-.2-4.5-2.3-3.7,4.4,3.3-.2,5,10.5,6.9,2.2,14.1v2.6ZM340.9,156.4h16.9v2.6h-16.9v-2.6ZM369.5,116.3c.8-.6,1.5-1.6,1.4-3.2,0-1.3-.7-2.4-1.6-3.1,2.1.2,4.4,1.1,6.4,2.1-1.3,1.6-2.1,2.1-3.4,3-.6.4-1.8.8-2.7,1.2ZM363.1,112.6c0,0,0,.2,0,.3,0,1.9,1.2,3.8,3,4.1-.6,0-1.4,0-2-.1-1.5-.3-3.3-.6-5.2-1.5,1.5-1.3,2.9-2.2,4.2-2.8ZM380.8,108.3l-5.9-7.7-18,8-2.4,9.1h0s-.9,3.8-.9,3.8c-.6,3.2-1.2,5.8-2.5,10.8l4.4-9.5-.8-5.3,2.4-.9c2.7,1.5,6.3,3.2,10,2.6,4.1-.6,7.5-3.7,10-7.2-2.6-1.8-5.3-3.9-8.2-4.1l6.2-2.3,5.6,2.8ZM328.6,116.1c-.6-.6-1.4-1.9-1.3-3.2.1-1.2.8-2.3,1.5-3-2.2.2-4.8,1.2-6.5,2.1,1.3,1.6,2.3,2.1,3.6,3,1,.7,1.7,1,2.4,1.3.1,0,.2.1.3-.3ZM335.1,112.3c0,.2,0,.4,0,.6,0,1.7-.9,3.3-2.4,3.9.9.2,1.4.1,2.2,0,1.2-.1,2.9-.7,4-1.3-1.9-2.2-3-2.9-3.9-3.3ZM317,108.8l6.3-8.3,18,8,2.4,8.4-2.2-.4c-2.7,1.5-6.8,3.2-10.5,2.6-4.1-.6-7.8-3.7-10.3-7.2,2.6-1.8,5.5-3.9,8.5-4.1-2.7-1.1-4.7-1.2-6.2-2.3l-6,3.3ZM343.8,116.9l1.1,4.6c.6,3.2,1.2,5.8,2.5,10.8l-4.4-9.5.9-5.9ZM387.7,114.6c0,3.4-.4,6.2-1.5,9.3,1.3-1.4,2.1-2.8,2.3-4.2.3-2,0-3.5-.8-5.1ZM311,115.5c0,3.4.4,6.2,1.5,9.2-1.3-1.4-2.1-2.8-2.3-4.2-.3-2,0-3.5.8-5.1ZM375.6,122.3l-5.5,4.4.5,11.3h1.4l.6-10.4,5-4.6-2.1-.7ZM323.5,122.4l5.5,4.4-.5,11.3h-1.4l-.6-10.4-5.1-4.4,2.2-.9ZM388.3,130.8l-.3,6-3.1,1.9,1.3,3.4,1.6-1.1,1.3,2.1,2.5-1.4c-.3-3,.3-6.1.8-9.1l-4.1-1.8ZM384.6,141.5c-1.1,1.8-1.3,2.9-.5,5.1l5,.7,4.9-3.7c-.2-2.9-.6-5.9-1.1-8.8-.4,2.5-.7,6-.4,8.4l-3.8,2.1-1.2-2-1.8,1.2-1.2-3.1ZM402.8,157.7c3-7.5,6-14.7,8.7-20.8l-18.2-6.9-1.9.7,3,1.3c.8,3.9,1.3,7.8,1.6,11.9l-4,3.3c6.7,3.5,8.8,6.9,10.8,10.4ZM354.4,214.7c-.8,6.9-2.1,16.6-1.5,24.4.6,6.4,2.1,12.3,4.8,18.1-3.6-5-6.7-10.9-7.2-17.9-.5-7.7,1.1-16.8,3.8-24.6ZM341.3,189.2c2.5,2.7,5.5,7.6,9.2,7.3,3.5-.3,5.3-4.6,7.8-7-4.3,2.3-6,4.6-7.8,4.5-2.8,0-3.9-2.2-9.2-4.8ZM489.2,207.1l6,7.3c-2.4,17.3-3.2,23.2.9,43.2-14.6-7.5-14.1-26.3-6.9-50.4ZM507.2,142.1l-6,5,9,.8.5-1.1c.4-.7.9-1.5,2.3-3.1-2.9.1-4.5-.8-5.7-1.6ZM526.4,136.8l-2.8-3.4c-1-1.3-3-1.8-5.3-1.9-1.3,1.1-2.6,2.7-3.3,4.1l-.2,2.3-1.8-.8c-1.3.3-5.6,1.1-7.1,1.8.6.9,1.1,1.5,1.6,2.3,4.4-.7,7.6.2,9.4,1.3,2.8-2.3,6.4-4.4,9.4-5.7ZM530.5,147.7l3-2.3c3.4-2.6,10.6-7.2,15.9-9.6,5.6-2.5,9-2.5,13.8.1,4.4,2.4,8.7,5.4,12.4,8.7,7.4-7.3,15.1-14.8,22.3-22.3,10.2-10.5,20.2-21.2,30-32.2,14.2-15.9,27-33.3,36.7-52.3-23.1,19.9-46.1,38.9-69.2,56.5l-25.4,37.1-1.1-.5,19.3-33.1-35.2,15.5-.5-1.4,40.8-20.8c22.6-18.5,46.3-36.5,70.2-54.6-3.1,1.4-6.3,2.9-9.4,4.4-11.2,5.3-22.4,10.7-33.3,16.5-9.1,4.9-18.5,10.3-26.7,16.6l-49.6,37.5,5.7,8-22.6,18.5-.9-1.1c-2.6,2-5.1,3.6-7.3,5.2,1.7-.2,3.5-.2,5,0l6.2,5.4ZM257.5,292.3l-10.8,7.3,9.3,18,3.1,2.5h3.3c0,0,4.6-10.2,4.6-10.2l-9.5-17.6ZM259.7,283.5l-21,14.1,12.4,24,5.9,4.7,9.4-.3,7.5-16.3-14.2-26.2ZM476.7,174.3l-19.4-22.7c-2.2-2.5-5-5.5-7.9-7.3-4.5-2.8-9.9-4.5-15.1-5.9-3.6-.9-7-1.3-10.4-2.9-1.7-.8-3.1-2-4.5-3.3-.4-.4-1-.9-1.4-1.3-4.6,10.7-9,21.6-13.2,31.8-6.4,15.7-12.1,30.4-16.9,44.5-5.9,17.4-9.7,35.4-13,53.4l102.1-83.3-.3-3.1ZM366.1,287.3l-9.8,8,6.6,13.8,3.2-21.8ZM330.5,316.4l4.7,7.2c8.9.8,23.5,1.6,39.4-1,5.1-8.4,15.8-24.1,22.3-40.5,3-7.6,5.8-16.2,5.5-22.5,1.1,4.6,0,14.3-2,24.5-3,14.6-8.7,31.1-10.6,34.6,5.2-1.6,16-5.2,30.4-16.4l35.7-85,1.3,12c6.6,1.2,16.7-12.6,20.6-17.7-7.1,24.6-5.8,31-3.4,31.3l4.5-3.3c3.9,25.8,13.4,35.5,22.8,36.7,17.6,2.2,31.8-27.2,39.4-45.2-2.4,25.4,5.1,27.6,7.7,27.3,5.6-.4,5.1-8.9,4.3-11.4-2.3-7.2-5.2-14.2-7.7-21.3-1.8-5.2-3.9-11.8-6.6-17.5l-24.3,21.8c-6.1-1.5-11.1-2.9-17.2-3.8h16.6c0-.1,13.6-19.4,13.6-19.4l-6-3.4-13.2,14.8-11.9-3.7-4.9-8.2c-2.2-3.6-4-7.6-3.3-9.2l2.1-2.7,13.1,3,10.3-5.5h9.5c0,0,2.7-6.2,2.7-6.2v-2.9c-.1,0,7.1-.2,7.1-.2l1.7-6.6c2.4-.7,8.1-2.8,9-4.3-.6-5.1-3.9-10.9-7.5-15.5-2.5-3.2-5.3-5.6-7.2-7.6l.2-.2c-1.9-1.5-3.7-3.1-5.6-4.6-3.3.3-5.9.8-7.8,1.5-2.5.8-4.1,2.1-4.8,3.2h0c0,.1,16.9,15.7,16.9,15.7l-19.8-14-11.5-2.6c-2.5,2.8-2.8,7.2-2.7,9.4l24.1,16.5c-7.1-4.2-14.5-8.4-22.8-12.6-.4-.2-1.2-.4-1.7-.7-1.9-1-3.5-1.9-5.5-2.9-2.6,2.9-4.8,5.6-4.2,9.2l1.9.9-.8,1.2c5.3,5.1,10.6,9.8,17.5,13-13.9-4.4-16-8.8-19.5-11.4l-3.5,2.6.8,8.1,6.9,9.2,6.3,1.7-6.4-.6-1.5-1.5-114.4,93.3c-2.1,13.2-4.1,26.2-5.8,39l-11.6-24.8-22.9,18.7ZM285.1,343.3l194.6-158.1-3.3-4.5-194.7,158.8,3.4,3.8ZM302.5,345.3c27.2,3.4,65.6,6,107.6-13.3,5-2.3,26.8-16,33.4-27.6-5.9,5.7-12.7,10.8-20.4,15.6-19.3,11.9-43,19.4-65.7,21.2-15.6,1.3-26.5,1.4-55.9-.9l-.2,1.6c.5,1.1.8,2.2,1.1,3.4ZM225.7,353.4h0s0-.6,0-.6v-.7s0,0,0,0c.2-4.8.8-8.5,1.9-13.5,6.5-4.8,13.5-9.7,21.3-14.2l-2.6-3.6c-11.1-6.7-14.8-8.3-20.6-7.6-4.1.5-7.8,2.4-11,5.5-3.6,3.6-6.2,7.9-7.6,12.3-.9-5.5-.8-10.8,2.2-15.5,2.7-4.3,6.7-7.7,11.3-9.8,3.1-1.4,5.5-1.4,7.8-3.7,1.6-1.6,1.8-4.6.9-7.3,1.1-2.7-.5-7.7-3.3-12.7-2.8-5-6.8-10-10.7-12.7-6.9-4.8-21.2-6.9-35.3-3.6h0c-.5,5-1.1,10-1.5,15-.9,9.7-1.7,19.6-2,29.3-.2,6.8.8,11.9,5.5,17,11.5,12.2,28.4,19.9,43.8,26.7v-.3s0,0,0,0ZM299.6,358.5c2.2-6.2,2.2-12.5-.3-16.5l-9.3,6.9,5.1,5.8.3,4.6,4.1-.7ZM317.7,355.3l-15-1.6c-.2,1.5-.6,2.9-1.1,4.4l16.1-2.8ZM422.1,337.1c6.2-4.6,12.2-9.9,17.6-16.5-4.3,4.9-13.5,10.9-26.9,18.2l9.3-1.6ZM464.6,329.7c-1.5-2.1-3.1-4.2-4.6-6.2-2.9-3.8-6.8-8.3-10.1-11.7-5,8.2-12.2,17.4-19,23.8l33.8-5.9ZM346.6,283.8c-23.8-48.7-48.9-94.6-77.1-137.1l-23.2,14.4-66.4,104.6c18.3-10,38.2-4.9,47.4,1.1,8.2,5.3,12.5,12,16.7,10.8,4.5-1.2,5.3-7.1,5.9-15.1,1.1-15.8-2.7-33.5-7.3-42.8l7.8,7-2.6-30.6c4.8,17.2,11.7,31.9,13.8,47.7,1.5,11.9.2,23.6-1,35.5,6.4,9,11.2,18.8,17.2,29.2l5.5,2.8c-8.6-21-13.4-38.3-13.4-50.8.7,4.2,1.4,7.2,2.3,10.2,1.5,4.9,3.5,9,5.9,14,5.1,10.8,12.1,21.6,19.8,31.8l6.3,1.8,11.3-9.2c-3.6-8.4-6.7-16.6-9.4-24.5-5.9-17.2-9.7-32.9-10.5-46.1,1.8,11.2,6,21.5,9.8,30.3,6,13.6,12.5,24.2,17.6,34.2l23.7-19.3ZM252.8,356.3l8.2,8.8-17.1,3-3.3-2.6,2.5,2.7-13.7,2.4-.7-15.6-1.1-.5v-2s0,0,0,0c0-4.6.7-7.8,1.9-13,5.7-4.3,12.8-9.2,20.8-13.8l4.7,5.4c6.3-.2,13.1-1.1,18.6-.7,2.9.2,7.7,1.6,11.4,3.3l-6,4.7-5.6-4.1,18.9,21.1.3,4.1-11.4,2-17.6-15.5,14.2,16.1-14.5,2.5-10.6-8.4ZM370.2,264.6c4.3-23.7,7.3-39.1,14.1-58.1,3.8-10.9,10.4-28.3,17.1-45v-.3c-4.9,5.2-9.8,10.7-16,15.2-2,1.5-8.2,5.7-18.8,9.3,5-3,10.9-6.6,15.9-10.2,6.5-4.7,13.6-11.5,19.4-15.4l.9-2.2c-5.1-4.4-9.3-7.3-14.5-9.4l-5.4-.7c-1.2-2.9-.7-6.5,1.4-8.8l-.4-1.9,3.4-2.1.2-4.3c-.3-2.2-.8-2.4-.6-3.8.4-2.3,1.7-3.5,3.9-5,.4-1.1.6-3.7.7-4.9.2-2.3.2-5,0-7.2,0-.3-.3-.4-.5-.2l-7.4,6-.6,11.9c-.6,8-2.1,11.2-1.5,22.9-3.4,5.5-6.4,10.4-9.5,16.2-.5,4.2-.8,8.4-1,12.6l-2.1-5.8-3.5,5.1c-3.6,5.2-8.6,8-14.4,8.4-6.7.4-12.9-2.3-17.6-9.9l-2.8-4.5-2.6,6.5-1.1-12.5-9.7-15.6c.2-14.7-1.9-23.2-2.9-34.2-1.9-2.8-3.4-4-4.8-6.1-1-1.5-1.7-1.3-2.5,2-.5,2.2-.6,4.8-.2,7.1.4,1.8.9,3.5,2.3,4.8,1.8,1.6,2.8,3.5,2.7,5.9,0,.3,0,.7,0,1,.5,3.2,1.4,3.3,3.8,4.5-3.2,3.6-8.8,6.8-17.1,7.9l-19.5,9.6c2.9,4.5,5.8,9,8.6,13.6,1-1.1,2-2.2,3.1-3.2,6.3-4,13.6-8.2,22.9-12-6.6,4.4-11.9,8-18.2,11.7-2.5,1.5-4.8,2.7-7.4,4,1.2,2,2.5,4,3.7,6,7.1,2.4,14.7,5.2,22,7.4,6,1.8,12.5,3.4,18.8,5.1l-.2.6c-4.4-.6-14.6-2.2-20.2-3.9-6.6-2-13.6-4.5-19.4-7.7,20,32.9,38.8,68.2,57.4,106.1l20.6-16.8Z"/>
  <path class="st1" d="M336.2,48.4c-2,1.4-3.9,3.6-3.8,6.2.1,2.4,5.5,5.5,13.7,10,5.3,2.9,10.2,4.8,16.2,7.3,3.9,1.6,7.4,2.3,10.6,4.5-1.8-1.9-4.3-3.3-6.8-4.5-6.7-3.3-15.8-6.1-22.2-9.2-5.1-2.5-9-5.1-8.9-9.7,0-1.4.4-3,1.2-4.6Z"/>
  <path class="st1" d="M318,78.4c13.6,6.6,20.3,12.3,28.9,15.8,8.1,3.4,19.5,5,28.6,4-4.3.2-8.2-.2-12-.9-5.7-1-12.3-3.1-17.3-6-5.3-3.1-9.6-6.6-14.3-9.4-4.4-2.6-9-4.5-13.8-4.8,0,.4-.1.8-.2,1.2Z"/>
  <path class="st1" d="M334.9,161.3c1.9-2.6,4.4-5.2,8.5-8.1l14.2-.2,5.2,7.1c-1.6-3.7-3-7.4-4.6-11.4h-18.3c-1.5,4.1-3.2,8.3-5.1,12.7Z"/>
  <path class="st1" d="M386.7,175.4c-11,32.2-15.7,59.6-16.5,89.2h0c4.3-23.7,7.3-39.2,14.1-58.1,3.8-10.9,10.4-28.3,17.1-45v-.3c-4.5,4.8-9,9.9-14.6,14.2ZM395.4,152.4c-2.6,6.5-5.1,12.6-7.2,18.7,4.8-3.9,9.5-8.1,13.6-10.9l.9-2.2c-2.6-2.2-4.9-4-7.3-5.6ZM403.2,133.7c-2.5,5.6-4.8,10.9-6.9,16.2,3.3,2.6,5.1,5.3,6.5,7.8,3-7.5,6-14.7,8.7-20.8l-8.3-3.1Z"/>
  <path class="st1" d="M300.2,179c18.2,32.3,34.9,65.1,48.2,100-18.3-37-36.6-71.6-56.2-103.8,2.5,1.4,5.2,2.6,8.1,3.8ZM292.3,165.2c2.2,3.7,4.3,7.4,6.4,11.1-2.5-.9-5-1.8-7.5-2.6-1.2-2-2.5-4-3.7-6,1.7-.8,3.2-1.7,4.8-2.5ZM284,151c2.5,4.1,4.9,8.3,7.3,12.4l-.9.6c-1.1,1-2.1,2.1-3.1,3.2-2.8-4.6-5.7-9.1-8.6-13.6l5.4-2.7Z"/>
  <path class="st1" d="M248.6,198.8c2.8,7.6,13,22.8,16.3,37.3,4.3,19.3.9,40.6,3,54.6-2.2-3.9-4.6-7.7-7.2-11.3,1.2-11.9,2.5-23.6,1-35.5-1.9-15-8.3-29-13-45.1Z"/>
  <path class="st1" d="M355.4,301.8l-22.5,18.3-2.4-3.7,22.9-18.7,1.9,4.1ZM365.2,293.8l-6.9,5.6-2-4.1,9.8-8-.9,6.5ZM490.5,191.9l-34.2,27.8-.3-2.4-1.6,3.9-51.4,41.9c0-1.4-.2-2.6-.4-3.6,0,1.3,0,2.6-.2,4.1l-32.5,26.4c.3-2.2.7-4.4,1.1-6.6l114.4-93.3,1.5,1.5,3.5.3h0Z"/>
  <path class="st1" d="M541.1,231.2c-6.2,9.1-20.4,30.4-34.5,41.4-2.6,2-7.5,1.7-12.3.7,2.4,1.7,5,2.7,7.5,3,17.5,2.2,31.7-27.1,39.3-45.1Z"/>
  <path class="st0" d="M402,399.7v-52.6c-.1,0,158.4-28.2,158.4-28.2v28.9l4.7-.6c13.3-1.8,22.8,5.5,22.8,18.9v22.8c0,13.7-8.7,22.3-21.8,24.6l-37.1,6.7v11.9s-34.6,7.4-34.6,7.4v-13.3c0,0-158.5,28.2-158.5,28.2l.7-4.8c-4.2,4.4-10.2,7.4-17.8,8.8l-9.8,1.7c-16.9,2.9-29.2-4.1-29.2-21.7v-15l3.6-.6c-2.4-3.5-3.6-7.9-3.6-12.5v-9.2l-13.7,2.4v63.5l-132,23.4v-95.9l209.9-37.2v43.5l6.8-44.8,43-7.6,8.1,51.2Z"/>
  <polygon class="st2" points="143.5 402.4 161.4 399.2 161.4 476.3 143.5 479.5 143.5 402.4"/>
  <path class="st2" d="M561.1,388.7v-15c0-3-2.1-3-3.6-2.8l-6.3.9v22.4l6.5-1.2c2.7-.5,3.4-2.2,3.4-4.3ZM533.2,333.1l18-3.2v28.5l15.2-2.1c9.7-1.3,12.3,4,12.3,9.8v22.8c0,9.3-5.7,14-14.2,15.5l-31.2,5.7v-77.1Z"/>
  <path class="st2" d="M316.9,371.6l18-3.2v60.1c0,6.3-1,18.1-17.6,21l-9.8,1.7c-15.9,2.7-18.4-5.4-18.4-12.6v-7.2l18-3.2v6.3c0,2.8,2.1,3.6,4.3,3.2l1.2-.2c2.9-.6,4.3-2.3,4.3-5v-14l-16.2,2.9c-1.9.3-11.6.6-11.6-10.9v-33.9l18-3.2v29.7c0,3.5,1.2,4.6,4.5,3.9l5.3-1v-34.4Z"/>
  <polygon class="st2" points="359.1 364 386.3 359.2 398.1 434.1 380.2 437.3 373.6 382.6 371.6 383 371.5 383.4 364.7 440.1 347 443.3 359.1 364"/>
  <polygon class="st2" points="465.3 345.1 483.3 342 483.3 404.6 494.6 402.7 494.6 339.9 512.5 336.7 512.5 400.4 519.8 399 519.8 424.8 503.6 428.3 503.6 415.5 465.5 422.1 465.3 345.1"/>
  <polygon class="st2" points="176.7 396.5 194.7 393.4 194.7 423 205.9 421 205.9 391.3 223.9 388.2 223.9 465.3 205.9 468.4 205.9 435.1 194.7 437 194.7 470.5 176.7 473.6 176.7 396.5"/>
  <polygon class="st2" points="238.9 385.4 276 378.8 276 392.5 256.9 395.8 256.9 459.3 238.9 462.5 238.9 385.4"/>
  <polygon class="st2" points="411.2 354.8 452.2 347.4 452.2 361.2 428.4 365 428.5 380.8 448 377.5 448 391.2 428.5 394.5 428.6 415.6 452.4 411.5 452.2 424.4 411.4 431.7 411.2 354.8"/>
  <path class="st0" d="M321.5,482.6c-.8,0-1.4.2-1.9.4-.5.3-.8.8-1.1,1.5-.3.7-.5,1.6-.6,2.8-.1,1.1-.2,2.6-.3,4.3l-4.6-.6c.1-2,.2-3.8.4-5.4.2-1.5.5-2.8,1.1-3.8.6-1,1.4-1.8,2.6-2.3,1.1-.5,2.7-.8,4.8-.8s2.9.2,3.9.6,1.8,1,2.4,1.9c.6.8,1,1.9,1.2,3.2.2,1.3.3,2.9.3,4.8s-.3,4.6-1,6.8c-.7,2.2-1.5,4.4-2.6,6.4-1.1,2-2.2,4-3.5,5.7-1.3,1.8-2.5,3.3-3.7,4.7h11.5l-.2,3.8h-17v-3.7c1.5-1.4,3-3.1,4.5-4.9,1.4-1.8,2.7-3.8,3.8-5.8,1.1-2,1.9-4.2,2.6-6.4.7-2.2,1-4.4,1-6.6s-.3-4.2-.8-5.2c-.6-1-1.5-1.4-2.8-1.4Z"/>
  <path class="st0" d="M342.7,482.6c-1.1,0-1.9.2-2.6.7-.6.5-1,1.3-1.3,2.5-.3,1.2-.5,2.8-.5,4.8,0,2,0,4.5,0,7.5s0,5.5,0,7.5c0,2,.2,3.6.5,4.7.3,1.1.8,2,1.4,2.4.6.5,1.4.7,2.6.7s1.9-.2,2.5-.7c.6-.5,1-1.3,1.3-2.4.3-1.2.5-2.7.5-4.7,0-2,.1-4.5.1-7.5s0-5.5-.1-7.5c0-2-.2-3.6-.5-4.8-.3-1.2-.7-2-1.3-2.5-.6-.5-1.4-.7-2.5-.7ZM342.7,478.7c2.3,0,4.1.3,5.4.9,1.3.6,2.2,1.7,2.8,3.1.6,1.5,1,3.5,1.1,5.9.1,2.5.2,5.6.2,9.3s0,6.8-.2,9.3c-.1,2.5-.5,4.5-1.1,5.9-.6,1.5-1.5,2.5-2.8,3.1-1.3.6-3.1.9-5.4.9s-4.1-.3-5.4-.9c-1.3-.6-2.2-1.7-2.8-3.1-.6-1.5-.9-3.5-1.1-5.9-.1-2.5-.1-5.5-.1-9.2s0-6.8.1-9.3c.1-2.5.4-4.5,1.1-5.9.6-1.5,1.5-2.5,2.8-3.1,1.3-.6,3.1-.9,5.4-.9Z"/>
  <path class="st0" d="M354.2,484.3c1.8-.4,3.3-1,4.4-1.9,1.1-.9,2.1-2.1,2.9-3.7h3.1v37.9h-4.9v-31.2c-.3.6-.9,1.1-1.8,1.6-.9.5-1.9.9-3.1,1l-.6-3.7Z"/>
  <path class="st0" d="M376.5,478.7c1.9,0,3.4.2,4.4.8,1.1.5,1.9,1.2,2.4,2.1.6.9.9,2,1,3.2s.2,2.6.2,4.2,0,1.8-.2,2.7c-.1.9-.3,1.7-.6,2.5-.3.8-.6,1.4-1,2-.4.5-.9.9-1.5,1.1.8.3,1.5.7,2.1,1.2.6.5,1,1.2,1.4,1.9.3.8.6,1.6.7,2.6.1.9.2,2,.2,3,0,1.6,0,3-.2,4.4-.2,1.4-.5,2.6-1.1,3.6-.6,1.1-1.5,1.9-2.8,2.5-1.2.6-2.9.9-5.1.9s-3-.2-4.1-.5c-1.1-.3-1.9-.9-2.6-1.5-.6-.7-1.1-1.5-1.4-2.5-.3-1-.5-2.1-.6-3.2l4.1-1.4c.1.9.3,1.6.4,2.2s.4,1.2.8,1.6c.3.5.8.8,1.3,1,.5.2,1.2.3,2.1.3s1.9-.2,2.5-.5c.6-.3,1.1-.8,1.4-1.5.3-.7.5-1.5.6-2.4,0-1,.1-2.1.1-3.4s0-2-.2-2.9c-.1-.8-.3-1.4-.7-1.9-.3-.5-.8-.9-1.4-1.1-.6-.2-1.4-.4-2.4-.4h-2.7l.4-3.8h2.2c.7,0,1.3-.1,1.8-.3.5-.2.8-.5,1.1-1,.3-.4.4-1.1.6-1.8,0-.8.1-1.7.1-2.9s0-2.2,0-3.1c0-.9-.2-1.6-.4-2.1-.2-.5-.6-.9-1-1.2-.4-.2-1.1-.4-1.9-.4s-1.3,0-1.7.3c-.4.2-.8.5-1.1.9-.3.4-.5,1-.7,1.7-.1.7-.3,1.5-.4,2.5l-4.2-.4c.1-1.7.3-3.1.5-4.2s.7-2.1,1.2-2.8c.6-.7,1.4-1.2,2.4-1.5,1-.3,2.3-.4,3.9-.4Z"/>
  <path class="st0" d="M241.8,76.4v23c.8,0,1.7,0,2.5-.4.7-.4,1.2-1.1,1.5-2,.3-.9.5-2.2.6-3.6,0-1.5.1-3.3.1-5.4s0-3.9-.1-5.4c0-1.5-.3-2.7-.6-3.7-.3-1-.8-1.6-1.5-2.1-.7-.5-1.6-.4-2.5-.4ZM236.7,99.4v-22.9c-.9,0-1.7,0-2.3.4-.7.4-1.2,1.1-1.6,2.1-.4.9-.6,2.2-.7,3.6-.1,1.5-.2,3.3-.2,5.4s0,3.9.2,5.4c.1,1.5.3,2.7.7,3.6.4.9.9,1.6,1.6,2,.6.3,1.3.3,2.3.4ZM241.8,73.2h.1c.5,0,.9,0,1.3,0,1.7.1,3.1.4,4.1.9,1.4.6,2.4,1.5,3.1,2.7.7,1.2,1.1,2.8,1.2,4.6.1,1.8.2,4,.2,6.5s0,4.7-.2,6.5-.5,3.4-1.2,4.6c-.7,1.2-1.7,2.1-3.1,2.7-1.3.6-3.2.9-5.5,1v5h-5.1v-5c-2.2,0-4-.4-5.3-.9-1.4-.6-2.5-1.5-3.2-2.8-.7-1.2-1.1-2.7-1.3-4.6-.2-1.8-.3-4-.3-6.4s0-4.5.3-6.4c.2-1.8.6-3.4,1.3-4.6.7-1.2,1.8-2.2,3.2-2.8,1.3-.6,3.1-.9,5.3-.9v-4h5.1v4Z"/>
  <polygon class="st0" points="459 87.5 455.2 94.2 455.2 107.6 450.1 107.6 450.1 69.2 455.2 69.2 455.2 86.3 462.9 69.2 468.7 69.2 461.9 81.8 469.7 107.6 463.7 107.6 459 87.5"/>
</svg>