<?xml version="1.0" encoding="UTF-8" standalone="no"?>
<!DOCTYPE svg PUBLIC "-//W3C//DTD SVG 1.1//EN" "http://www.w3.org/Graphics/SVG/1.1/DTD/svg11.dtd">
<svg xmlns="http://www.w3.org/2000/svg" version="1.1" viewBox="0.00 0.00 512.00 512.00">
<g stroke-width="2.00" fill="none" stroke-linecap="butt">
<path stroke="#e08d92" vector-effect="non-scaling-stroke" d="
  M 397.24 90.02
  Q 420.71 83.02 437.65 65.32
  A 0.09 0.09 0.0 0 0 437.55 65.18
  C 433.02 67.41 428.41 67.03 423.68 66.70
  Q 421.39 66.54 423.46 65.56
  C 440.79 57.41 456.41 43.08 462.14 24.25
  Q 462.31 23.70 461.75 23.85
  Q 440.79 29.41 422.50 30.46
  C 389.09 32.38 354.89 32.64 322.58 42.59
  Q 300.01 49.54 281.37 64.83
  Q 280.98 65.15 280.74 64.72
  C 269.09 44.58 241.96 44.26 230.68 64.71
  Q 230.40 65.22 229.94 64.85
  Q 207.75 46.73 182.75 40.80
  C 154.05 33.98 125.63 32.00 96.26 30.85
  Q 72.49 29.91 49.67 23.92
  Q 48.97 23.74 49.19 24.43
  C 55.36 43.56 70.61 57.37 88.85 66.07
  Q 89.57 66.41 88.78 66.54
  C 84.14 67.30 78.73 67.28 74.33 65.50
  Q 73.73 65.26 74.18 65.73
  Q 90.94 83.19 114.21 89.99
  Q 114.62 90.11 114.21 90.19
  Q 107.10 91.65 99.86 91.13
  Q 98.71 91.04 99.62 91.76
  Q 118.52 106.62 142.63 108.56
  Q 143.17 108.60 143.01 109.12
  Q 141.34 114.33 136.76 117.31
  A 0.40 0.39 42.7 0 0 136.79 117.99
  C 150.44 125.39 165.94 127.22 181.22 125.28
  Q 181.91 125.20 181.56 125.79
  Q 178.42 131.19 172.93 134.20
  A 0.35 0.35 0.0 0 0 173.01 134.84
  C 201.89 142.29 222.50 129.39 244.11 112.60
  Q 247.30 110.12 250.03 109.42
  C 255.70 107.97 261.98 108.41 266.74 112.18
  C 288.44 129.36 308.34 141.54 337.73 135.17
  Q 339.55 134.78 337.93 133.87
  Q 332.68 130.95 329.77 125.72
  Q 329.50 125.23 330.06 125.29
  C 346.06 126.89 360.20 125.52 374.51 118.12
  A 0.52 0.52 0.0 0 0 374.55 117.23
  Q 370.05 114.27 368.37 109.16
  Q 368.19 108.61 368.76 108.57
  Q 392.90 106.61 411.80 91.73
  Q 412.53 91.16 411.60 91.19
  Q 404.35 91.42 397.25 90.30
  A 0.15 0.14 -47.9 0 1 397.24 90.02"
/>
<path stroke="#e08d92" vector-effect="non-scaling-stroke" d="
  M 211.83 424.19
  Q 189.46 410.49 165.24 400.52
  C 149.98 394.24 138.84 388.46 126.60 379.91
  Q 126.00 379.50 126.00 378.77
  L 126.00 125.00
  A 1.56 1.55 -74.8 0 0 125.24 123.66
  C 90.13 102.69 57.43 70.88 40.60 32.98
  Q 40.18 32.05 39.96 33.04
  Q 32.86 65.15 30.02 98.17
  Q 25.76 147.81 29.37 197.49
  C 32.25 237.11 40.40 275.86 57.27 312.49
  Q 85.38 373.48 143.45 403.67
  Q 148.12 406.09 161.71 411.75
  C 198.99 427.26 233.00 448.16 255.42 482.51
  A 0.30 0.29 44.6 0 0 255.91 482.51
  C 278.19 448.92 311.84 427.09 349.12 411.85
  Q 363.11 406.14 367.47 403.92
  C 451.06 361.49 478.86 270.86 482.93 183.75
  C 485.29 133.43 482.24 81.92 471.36 32.65
  A 0.19 0.19 0.0 0 0 471.00 32.61
  C 453.79 70.81 421.82 102.22 386.27 123.61
  Q 385.50 124.08 385.50 124.99
  L 385.50 378.99
  Q 385.50 379.45 385.12 379.71
  Q 367.98 391.66 348.75 399.64
  C 331.44 406.80 315.29 414.48 299.33 424.41
  A 0.22 0.22 0.0 0 1 299.00 424.22
  L 299.00 144.97
  Q 299.00 144.46 298.53 144.28
  Q 280.86 137.31 265.94 125.25
  C 261.09 121.32 250.04 121.41 245.20 125.40
  Q 230.55 137.45 212.60 144.28
  Q 212.25 144.42 212.25 144.80
  L 212.25 423.96
  Q 212.25 424.45 211.83 424.19"
/>
<path stroke="#e08d92" vector-effect="non-scaling-stroke" d="
  M 278.19 77.67
  A 22.50 22.50 0.0 0 0 255.69 55.17
  A 22.50 22.50 0.0 0 0 233.19 77.67
  A 22.50 22.50 0.0 0 0 255.69 100.17
  A 22.50 22.50 0.0 0 0 278.19 77.67"
/>
</g>
<path fill="#ffffff" d="
  M 228.53 49.00
  C 245.23 34.51 265.86 34.71 282.78 48.95
  Q 283.19 49.29 283.63 48.99
  Q 305.00 34.79 329.72 28.89
  Q 336.21 27.34 349.35 25.12
  C 372.39 21.23 393.64 20.72 416.00 19.49
  Q 426.49 18.91 433.46 18.04
  C 448.26 16.19 462.08 12.24 475.99 8.43
  A 0.84 0.84 0.0 0 1 477.03 9.02
  Q 488.84 52.19 492.47 96.78
  C 501.83 211.82 488.82 358.76 368.66 415.90
  Q 367.76 416.33 350.22 423.66
  C 317.30 437.42 284.63 458.28 265.18 488.97
  Q 258.79 499.05 256.03 503.29
  Q 255.69 503.81 255.36 503.29
  C 250.29 495.43 244.89 486.52 239.80 479.90
  C 222.11 456.84 197.16 440.07 170.96 428.08
  C 160.54 423.31 148.40 418.81 139.45 414.27
  Q 82.29 385.28 52.20 327.76
  C 31.87 288.90 21.85 245.01 18.39 201.50
  Q 11.92 120.07 26.41 41.99
  Q 29.02 27.90 34.60 8.79
  Q 34.74 8.30 35.23 8.43
  Q 45.89 11.19 56.24 14.00
  C 72.36 18.38 90.14 19.41 109.24 20.08
  Q 140.29 21.17 172.73 27.03
  Q 203.12 32.52 227.85 49.04
  Q 228.20 49.28 228.53 49.00
  Z
  M 397.24 90.02
  Q 420.71 83.02 437.65 65.32
  A 0.09 0.09 0.0 0 0 437.55 65.18
  C 433.02 67.41 428.41 67.03 423.68 66.70
  Q 421.39 66.54 423.46 65.56
  C 440.79 57.41 456.41 43.08 462.14 24.25
  Q 462.31 23.70 461.75 23.85
  Q 440.79 29.41 422.50 30.46
  C 389.09 32.38 354.89 32.64 322.58 42.59
  Q 300.01 49.54 281.37 64.83
  Q 280.98 65.15 280.74 64.72
  C 269.09 44.58 241.96 44.26 230.68 64.71
  Q 230.40 65.22 229.94 64.85
  Q 207.75 46.73 182.75 40.80
  C 154.05 33.98 125.63 32.00 96.26 30.85
  Q 72.49 29.91 49.67 23.92
  Q 48.97 23.74 49.19 24.43
  C 55.36 43.56 70.61 57.37 88.85 66.07
  Q 89.57 66.41 88.78 66.54
  C 84.14 67.30 78.73 67.28 74.33 65.50
  Q 73.73 65.26 74.18 65.73
  Q 90.94 83.19 114.21 89.99
  Q 114.62 90.11 114.21 90.19
  Q 107.10 91.65 99.86 91.13
  Q 98.71 91.04 99.62 91.76
  Q 118.52 106.62 142.63 108.56
  Q 143.17 108.60 143.01 109.12
  Q 141.34 114.33 136.76 117.31
  A 0.40 0.39 42.7 0 0 136.79 117.99
  C 150.44 125.39 165.94 127.22 181.22 125.28
  Q 181.91 125.20 181.56 125.79
  Q 178.42 131.19 172.93 134.20
  A 0.35 0.35 0.0 0 0 173.01 134.84
  C 201.89 142.29 222.50 129.39 244.11 112.60
  Q 247.30 110.12 250.03 109.42
  C 255.70 107.97 261.98 108.41 266.74 112.18
  C 288.44 129.36 308.34 141.54 337.73 135.17
  Q 339.55 134.78 337.93 133.87
  Q 332.68 130.95 329.77 125.72
  Q 329.50 125.23 330.06 125.29
  C 346.06 126.89 360.20 125.52 374.51 118.12
  A 0.52 0.52 0.0 0 0 374.55 117.23
  Q 370.05 114.27 368.37 109.16
  Q 368.19 108.61 368.76 108.57
  Q 392.90 106.61 411.80 91.73
  Q 412.53 91.16 411.60 91.19
  Q 404.35 91.42 397.25 90.30
  A 0.15 0.14 -47.9 0 1 397.24 90.02
  Z
  M 211.83 424.19
  Q 189.46 410.49 165.24 400.52
  C 149.98 394.24 138.84 388.46 126.60 379.91
  Q 126.00 379.50 126.00 378.77
  L 126.00 125.00
  A 1.56 1.55 -74.8 0 0 125.24 123.66
  C 90.13 102.69 57.43 70.88 40.60 32.98
  Q 40.18 32.05 39.96 33.04
  Q 32.86 65.15 30.02 98.17
  Q 25.76 147.81 29.37 197.49
  C 32.25 237.11 40.40 275.86 57.27 312.49
  Q 85.38 373.48 143.45 403.67
  Q 148.12 406.09 161.71 411.75
  C 198.99 427.26 233.00 448.16 255.42 482.51
  A 0.30 0.29 44.6 0 0 255.91 482.51
  C 278.19 448.92 311.84 427.09 349.12 411.85
  Q 363.11 406.14 367.47 403.92
  C 451.06 361.49 478.86 270.86 482.93 183.75
  C 485.29 133.43 482.24 81.92 471.36 32.65
  A 0.19 0.19 0.0 0 0 471.00 32.61
  C 453.79 70.81 421.82 102.22 386.27 123.61
  Q 385.50 124.08 385.50 124.99
  L 385.50 378.99
  Q 385.50 379.45 385.12 379.71
  Q 367.98 391.66 348.75 399.64
  C 331.44 406.80 315.29 414.48 299.33 424.41
  A 0.22 0.22 0.0 0 1 299.00 424.22
  L 299.00 144.97
  Q 299.00 144.46 298.53 144.28
  Q 280.86 137.31 265.94 125.25
  C 261.09 121.32 250.04 121.41 245.20 125.40
  Q 230.55 137.45 212.60 144.28
  Q 212.25 144.42 212.25 144.80
  L 212.25 423.96
  Q 212.25 424.45 211.83 424.19
  Z"
/>
<path fill="#c01b24" d="
  M 397.25 90.30
  Q 404.35 91.42 411.60 91.19
  Q 412.53 91.16 411.80 91.73
  Q 392.90 106.61 368.76 108.57
  Q 368.19 108.61 368.37 109.16
  Q 370.05 114.27 374.55 117.23
  A 0.52 0.52 0.0 0 1 374.51 118.12
  C 360.20 125.52 346.06 126.89 330.06 125.29
  Q 329.50 125.23 329.77 125.72
  Q 332.68 130.95 337.93 133.87
  Q 339.55 134.78 337.73 135.17
  C 308.34 141.54 288.44 129.36 266.74 112.18
  C 261.98 108.41 255.70 107.97 250.03 109.42
  Q 247.30 110.12 244.11 112.60
  C 222.50 129.39 201.89 142.29 173.01 134.84
  A 0.35 0.35 0.0 0 1 172.93 134.20
  Q 178.42 131.19 181.56 125.79
  Q 181.91 125.20 181.22 125.28
  C 165.94 127.22 150.44 125.39 136.79 117.99
  A 0.40 0.39 42.7 0 1 136.76 117.31
  Q 141.34 114.33 143.01 109.12
  Q 143.17 108.60 142.63 108.56
  Q 118.52 106.62 99.62 91.76
  Q 98.71 91.04 99.86 91.13
  Q 107.10 91.65 114.21 90.19
  Q 114.62 90.11 114.21 89.99
  Q 90.94 83.19 74.18 65.73
  Q 73.73 65.26 74.33 65.50
  C 78.73 67.28 84.14 67.30 88.78 66.54
  Q 89.57 66.41 88.85 66.07
  C 70.61 57.37 55.36 43.56 49.19 24.43
  Q 48.97 23.74 49.67 23.92
  Q 72.49 29.91 96.26 30.85
  C 125.63 32.00 154.05 33.98 182.75 40.80
  Q 207.75 46.73 229.94 64.85
  Q 230.40 65.22 230.68 64.71
  C 241.96 44.26 269.09 44.58 280.74 64.72
  Q 280.98 65.15 281.37 64.83
  Q 300.01 49.54 322.58 42.59
  C 354.89 32.64 389.09 32.38 422.50 30.46
  Q 440.79 29.41 461.75 23.85
  Q 462.31 23.70 462.14 24.25
  C 456.41 43.08 440.79 57.41 423.46 65.56
  Q 421.39 66.54 423.68 66.70
  C 428.41 67.03 433.02 67.41 437.55 65.18
  A 0.09 0.09 0.0 0 1 437.65 65.32
  Q 420.71 83.02 397.24 90.02
  A 0.15 0.14 -47.9 0 0 397.25 90.30
  Z
  M 278.19 77.67
  A 22.50 22.50 0.0 0 0 255.69 55.17
  A 22.50 22.50 0.0 0 0 233.19 77.67
  A 22.50 22.50 0.0 0 0 255.69 100.17
  A 22.50 22.50 0.0 0 0 278.19 77.67
  Z"
/>
<path fill="#c01b24" d="
  M 212.25 423.96
  L 212.25 144.80
  Q 212.25 144.42 212.60 144.28
  Q 230.55 137.45 245.20 125.40
  C 250.04 121.41 261.09 121.32 265.94 125.25
  Q 280.86 137.31 298.53 144.28
  Q 299.00 144.46 299.00 144.97
  L 299.00 424.22
  A 0.22 0.22 0.0 0 0 299.33 424.41
  C 315.29 414.48 331.44 406.80 348.75 399.64
  Q 367.98 391.66 385.12 379.71
  Q 385.50 379.45 385.50 378.99
  L 385.50 124.99
  Q 385.50 124.08 386.27 123.61
  C 421.82 102.22 453.79 70.81 471.00 32.61
  A 0.19 0.19 0.0 0 1 471.36 32.65
  C 482.24 81.92 485.29 133.43 482.93 183.75
  C 478.86 270.86 451.06 361.49 367.47 403.92
  Q 363.11 406.14 349.12 411.85
  C 311.84 427.09 278.19 448.92 255.91 482.51
  A 0.30 0.29 44.6 0 1 255.42 482.51
  C 233.00 448.16 198.99 427.26 161.71 411.75
  Q 148.12 406.09 143.45 403.67
  Q 85.38 373.48 57.27 312.49
  C 40.40 275.86 32.25 237.11 29.37 197.49
  Q 25.76 147.81 30.02 98.17
  Q 32.86 65.15 39.96 33.04
  Q 40.18 32.05 40.60 32.98
  C 57.43 70.88 90.13 102.69 125.24 123.66
  A 1.56 1.55 -74.8 0 1 126.00 125.00
  L 126.00 378.77
  Q 126.00 379.50 126.60 379.91
  C 138.84 388.46 149.98 394.24 165.24 400.52
  Q 189.46 410.49 211.83 424.19
  Q 212.25 424.45 212.25 423.96
  Z"
/>
<circle fill="#ffffff" cx="255.69" cy="77.67" r="22.50"/>
</svg>
