<?xml version="1.0" encoding="UTF-8"?>
<svg id="Calque_2" data-name="Calque 2" xmlns="http://www.w3.org/2000/svg" viewBox="0 0 233.59 236.57">
  <defs>
    <style>
      .cls-1 {
        fill: #c00c30;
        fill-rule: evenodd;
      }

      .cls-2 {
        fill: #fff;
      }

      .cls-3 {
        fill: #002f87;
      }
    </style>
  </defs>
  <g id="Calque_1-2" data-name="Calque 1">
    <path class="cls-2" d="M233.36,37.87l-.76-17.3-17.19,2.24c-6.15.81-12.45,1.22-18.7,1.22-7.55,0-15.22-.62-22.81-1.84-17.46-2.81-33.98-8.71-49.11-17.53l-7.99-4.66-7.99,4.66c-21.74,12.67-46.61,19.37-71.92,19.37-6.25,0-12.55-.41-18.7-1.22L1,20.57l-.75,17.29c-.17,3.56-.25,7.17-.25,10.74,0,22.26,3.04,44.11,9.05,64.93,2.14,7.43,4.69,14.79,7.56,21.85l2.41,5.93.13-.1c4.32,10.08,9.4,19.71,15.13,28.67,8.1,12.68,18.18,24.49,29.94,35.13l1.43,1.29h.02c1.98,1.77,4.02,3.51,6.08,5.17,12.23,9.85,25.46,17.55,39.33,22.9l5.72,2.2,5.72-2.2c13.87-5.35,27.1-13.05,39.33-22.9,2.62-2.12,5.16-4.3,7.52-6.46,11.76-10.62,21.84-22.44,29.95-35.13,5.74-8.98,10.82-18.6,15.13-28.67l.13.1,2.41-5.93c2.87-7.06,5.42-14.42,7.56-21.85,2.01-6.93,3.7-14.12,5.05-21.36,2.65-14.18,3.99-28.84,3.99-43.57,0-3.71-.08-7.33-.23-10.73ZM122.86,143.89l-10.12,7.09-29.96-42.79,9.23-6.47,31.51,12.88-16.41-23.44,10.12-7.09,29.96,42.79-9.26,6.48-31.44-12.82,16.37,23.37ZM108.23,152.31c-.24,1.37-1.01,2.59-2.15,3.38-.88.62-1.93.95-3.01.96-1.71,0-3.32-.84-4.3-2.24-.61-.88-.94-1.93-.95-3,0-2.9,2.34-5.25,5.24-5.26,1.72,0,3.32.84,4.31,2.24.8,1.14,1.11,2.55.86,3.92ZM61.17,179.17c-7.11-1.28-13.02-5.23-17.59-11.75-2.96-4.22-4.66-8.71-5.08-13.34-.4-4.63.47-9.26,2.6-13.73,2.13-4.47,5.28-8.18,9.34-11.03,3.46-2.41,7.36-4.03,11.58-4.8,1.74-.31,3.5-.47,5.24-.47,2.53.01,5.04.33,7.49.97l1.41.37-2.31,11.79-1.54-.33c-1.75-.36-3.45-.55-5.04-.55-3.73,0-7.08,1.03-9.98,3.06-3.49,2.44-5.52,5.6-6.22,9.68-.7,4.07.16,7.77,2.64,11.31,1.71,2.45,3.79,4.28,6.14,5.43,1.91.93,3.94,1.4,6.03,1.4.49,0,.98-.02,1.48-.07,2.66-.27,5.2-1.23,7.55-2.88,2.01-1.4,3.59-3.09,4.71-4.99,1.14-1.93,2.03-4.7,2.65-8.22l.27-1.57,11.99,2.44-.28,1.49c-.94,5.13-2.39,9.31-4.32,12.42-1.94,3.12-4.7,5.95-8.22,8.42-5.09,3.56-10.44,5.37-15.92,5.37-1.55-.01-3.09-.15-4.62-.42ZM146.48,121c-1.65-2.38-1.08-5.64,1.29-7.31,0,0,.01,0,.01-.01,2.37-1.65,5.64-1.07,7.29,1.3,1.66,2.37,1.09,5.64-1.28,7.31-.89.62-1.93.95-3.01.95-1.71,0-3.32-.84-4.3-2.24ZM154.51,108.61c-1.67-2.39-2.35-4.88-2.03-7.4.34-2.52,1.53-4.52,3.54-5.93.9-.64,1.93-1.09,3.01-1.31.88-.17,1.78-.21,2.66-.1l-5.02-7.17,4.26-2.99,15.05,21.48-4.27,2.99-.9-1.28c-.24.95-.59,1.79-1.03,2.48-.53.86-1.26,1.61-2.15,2.23-1.44,1.01-3.05,1.52-4.78,1.52-.66,0-1.36-.07-2.07-.23-2.54-.54-4.65-1.98-6.27-4.29ZM171.29,96.95c-1.66-2.37-2.28-4.9-1.87-7.53.42-2.63,1.78-4.77,4.07-6.37,1.86-1.3,3.81-1.96,5.79-1.96.6,0,1.2.05,1.8.17,2.62.5,4.85,2.05,6.64,4.61l.66.99-12.01,8.41c.81.74,1.73,1.16,2.74,1.24,1.12.11,2.25-.24,3.36-1.02,1.33-.92,2.15-2.21,2.45-3.82l.04-.22,4.79-.81v.37c0,1.73-.37,3.29-1.12,4.65-.73,1.34-1.9,2.58-3.44,3.66-1.88,1.32-3.85,1.98-5.84,1.98-.57,0-1.14-.05-1.71-.15-2.59-.48-4.73-1.89-6.35-4.2ZM168.16,47.63l22.31-15.63,7,10.01-12.24,8.57,3.34,4.78,12.25-8.58,6.92,9.9-12.24,8.57,12.69,18.12-10.07,7.05-29.96-42.79ZM210.69,70.73c.24-1.37,1.02-2.59,2.16-3.38.88-.62,1.93-.96,3-.95,1.71-.01,3.32.83,4.3,2.23,1.66,2.37,1.09,5.64-1.28,7.31-.89.62-1.93.95-3.01.95-1.71,0-3.32-.83-4.3-2.24-.8-1.14-1.12-2.55-.87-3.92ZM21.35,133.42l-.11.08c-2.84-6.99-5.3-14.12-7.39-21.36-5.87-20.36-8.85-41.73-8.85-63.54,0-3.5.08-7.01.24-10.51l.52-11.86,11.78,1.54c6.4.84,12.91,1.26,19.35,1.26,26.2,0,51.93-6.93,74.44-20.05l5.47-3.19,5.47,3.19c15.69,9.15,32.95,15.27,50.84,18.15L21.51,133.81c-.05-.13-.11-.26-.16-.39ZM219.75,112.14c-2.09,7.24-4.55,14.37-7.39,21.36l-.11-.08c-4.69,11.95-10.42,23.25-17.14,33.77-8.32,13.01-18.34,24.4-29.09,34.11-2.37,2.17-4.81,4.26-7.31,6.28-11.81,9.51-24.6,16.96-37.99,22.12l-3.92,1.51-3.92-1.51c-13.39-5.16-26.18-12.61-37.99-22.12-2.39-1.93-4.72-3.93-7-6.01l156.79-110.32c-1.31,7.07-2.95,14.04-4.93,20.89Z"/>
    <path class="cls-2" d="M81.71,174.22c-5.09,3.56-10.44,5.37-15.92,5.37-1.55-.01-3.09-.15-4.62-.42-7.11-1.28-13.02-5.23-17.59-11.75-2.96-4.22-4.66-8.71-5.08-13.34-.4-4.63.47-9.26,2.6-13.73,2.13-4.47,5.28-8.18,9.34-11.03,3.46-2.41,7.36-4.03,11.58-4.8,1.74-.31,3.5-.47,5.24-.47,2.53.01,5.04.33,7.49.97l1.41.37-2.31,11.79-1.54-.33c-1.75-.36-3.45-.55-5.04-.55-3.73,0-7.08,1.03-9.98,3.06-3.49,2.44-5.52,5.6-6.22,9.68-.7,4.07.16,7.77,2.64,11.31,1.71,2.45,3.79,4.28,6.14,5.43,1.91.93,3.94,1.4,6.03,1.4.49,0,.98-.02,1.48-.07,2.66-.27,5.2-1.23,7.55-2.88,2.01-1.4,3.59-3.09,4.71-4.99,1.14-1.93,2.03-4.7,2.65-8.22l.27-1.57,11.99,2.44-.28,1.49c-.94,5.13-2.39,9.31-4.32,12.42-1.94,3.12-4.7,5.95-8.22,8.42Z"/>
    <path class="cls-2" d="M107.37,148.39c.8,1.14,1.11,2.55.86,3.92-.24,1.37-1.01,2.59-2.15,3.38-.88.62-1.93.95-3.01.96-1.71,0-3.32-.84-4.3-2.24-.61-.88-.94-1.93-.95-3,0-2.9,2.34-5.25,5.24-5.26,1.72,0,3.32.84,4.31,2.24Z"/>
    <polygon class="cls-2" points="137.93 133.34 106.49 120.52 122.86 143.89 112.74 150.98 82.78 108.19 92.01 101.72 123.52 114.6 107.11 91.16 117.23 84.07 147.19 126.86 137.93 133.34"/>
    <path class="cls-2" d="M150.78,123.24c-1.71,0-3.32-.84-4.3-2.24-1.65-2.38-1.08-5.64,1.29-7.31,0,0,.01,0,.01-.01,2.37-1.65,5.64-1.07,7.29,1.3,1.66,2.37,1.09,5.64-1.28,7.31-.89.62-1.93.95-3.01.95Z"/>
    <path class="cls-2" d="M173.11,27.13L21.51,133.81c-.05-.13-.11-.26-.16-.39l-.11.08c-2.84-6.99-5.3-14.12-7.39-21.36-5.87-20.36-8.85-41.73-8.85-63.54,0-3.5.08-7.01.24-10.51l.52-11.86,11.78,1.54c6.4.84,12.91,1.26,19.35,1.26,26.2,0,51.93-6.93,74.44-20.05l5.47-3.19,5.47,3.19c15.69,9.15,32.95,15.27,50.84,18.15Z"/>
    <path class="cls-2" d="M160.78,112.9c-2.54-.54-4.65-1.98-6.27-4.29-1.67-2.39-2.35-4.88-2.03-7.4.34-2.52,1.53-4.52,3.54-5.93.9-.64,1.93-1.09,3.01-1.31.88-.17,1.78-.21,2.66-.1l-5.02-7.17,4.26-2.99,15.05,21.48-4.27,2.99-.9-1.28c-.24.95-.59,1.79-1.03,2.48-.53.86-1.26,1.61-2.15,2.23-1.44,1.01-3.05,1.52-4.78,1.52-.66,0-1.36-.07-2.07-.23Z"/>
    <path class="cls-2" d="M177.64,101.15c-2.59-.48-4.73-1.89-6.35-4.2-1.66-2.37-2.28-4.9-1.87-7.53.42-2.63,1.78-4.77,4.07-6.37,1.86-1.3,3.81-1.96,5.79-1.96.6,0,1.2.05,1.8.17,2.62.5,4.85,2.05,6.64,4.61l.66.99-12.01,8.41c.81.74,1.73,1.16,2.74,1.24,1.12.11,2.25-.24,3.36-1.02,1.33-.92,2.15-2.21,2.45-3.82l.04-.22,4.79-.81v.37c0,1.73-.37,3.29-1.12,4.65-.73,1.34-1.9,2.58-3.44,3.66-1.88,1.32-3.85,1.98-5.84,1.98-.57,0-1.14-.05-1.71-.15Z"/>
    <polygon class="cls-2" points="168.16 47.63 190.47 32 197.47 42.01 185.23 50.58 188.57 55.36 200.82 46.78 207.74 56.68 195.5 65.25 208.19 83.37 198.12 90.42 168.16 47.63"/>
    <path class="cls-2" d="M211.56,74.65c-.8-1.14-1.12-2.55-.87-3.92.24-1.37,1.02-2.59,2.16-3.38.88-.62,1.93-.96,3-.95,1.71-.01,3.32.83,4.3,2.23,1.66,2.37,1.09,5.64-1.28,7.31-.89.62-1.93.95-3.01.95-1.71,0-3.32-.83-4.3-2.24Z"/>
    <path class="cls-2" d="M224.68,91.25c-1.31,7.07-2.95,14.04-4.93,20.89-2.09,7.24-4.55,14.37-7.39,21.36l-.11-.08c-4.69,11.95-10.42,23.25-17.14,33.77-8.32,13.01-18.34,24.4-29.09,34.11-2.37,2.17-4.81,4.26-7.31,6.28-11.81,9.51-24.6,16.96-37.99,22.12l-3.92,1.51-3.92-1.51c-13.39-5.16-26.18-12.61-37.99-22.12-2.39-1.93-4.72-3.93-7-6.01l156.79-110.32Z"/>
    <g>
      <g>
        <path class="cls-3" d="M224.68,91.25c-1.31,7.07-2.95,14.04-4.93,20.89-2.09,7.24-4.55,14.37-7.39,21.36l-.11-.08c-4.69,11.95-10.42,23.25-17.14,33.77-8.32,13.01-18.34,24.4-29.09,34.11-2.37,2.17-4.81,4.26-7.31,6.28-11.81,9.51-24.6,16.96-37.99,22.12l-3.92,1.51-3.92-1.51c-13.39-5.16-26.18-12.61-37.99-22.12-2.39-1.93-4.72-3.93-7-6.01l156.79-110.32Z"/>
        <path class="cls-2" d="M82.54,149.45l11.99,2.44-.28,1.49c-.94,5.13-2.39,9.31-4.32,12.42-1.94,3.12-4.7,5.95-8.22,8.42-5.09,3.56-10.44,5.37-15.92,5.37-1.55-.01-3.09-.15-4.62-.42-7.11-1.28-13.02-5.23-17.59-11.75-2.96-4.22-4.66-8.71-5.08-13.34-.4-4.63.47-9.26,2.6-13.73,2.13-4.47,5.28-8.18,9.34-11.03,3.46-2.41,7.36-4.03,11.58-4.8,1.74-.31,3.5-.47,5.24-.47,2.53.01,5.04.33,7.49.97l1.41.37-2.31,11.79-1.54-.33c-1.75-.36-3.45-.55-5.04-.55-3.73,0-7.08,1.03-9.98,3.06-3.49,2.44-5.52,5.6-6.22,9.68-.7,4.07.16,7.77,2.64,11.31,1.71,2.45,3.79,4.28,6.14,5.43,1.91.93,3.94,1.4,6.03,1.4.49,0,.98-.02,1.48-.07,2.66-.27,5.2-1.23,7.55-2.88,2.01-1.4,3.59-3.09,4.71-4.99,1.14-1.93,2.03-4.7,2.65-8.22l.27-1.57Z"/>
        <path class="cls-2" d="M107.37,148.39c.8,1.14,1.11,2.55.86,3.92-.24,1.37-1.01,2.59-2.15,3.38-.88.62-1.93.95-3.01.96-1.71,0-3.32-.84-4.3-2.24-.61-.88-.94-1.93-.95-3,0-2.9,2.34-5.25,5.24-5.26,1.72,0,3.32.84,4.31,2.24Z"/>
        <polygon class="cls-2" points="117.23 84.07 147.19 126.86 137.93 133.34 106.49 120.52 122.86 143.89 112.74 150.98 82.78 108.19 92.01 101.72 123.52 114.6 107.11 91.16 117.23 84.07"/>
        <path class="cls-2" d="M155.07,114.98c1.66,2.37,1.09,5.64-1.28,7.31-.89.62-1.93.95-3.01.95-1.71,0-3.32-.84-4.3-2.24-1.65-2.38-1.08-5.64,1.29-7.31,0,0,.01,0,.01-.01,2.37-1.65,5.64-1.07,7.29,1.3Z"/>
        <path class="cls-2" d="M160.93,83.71l15.05,21.48-4.27,2.99-.9-1.28c-.24.95-.59,1.79-1.03,2.48-.53.86-1.26,1.61-2.15,2.23-1.44,1.01-3.05,1.52-4.78,1.52-.66,0-1.36-.07-2.07-.23-2.54-.54-4.65-1.98-6.27-4.29-1.67-2.39-2.35-4.88-2.03-7.4.34-2.52,1.53-4.52,3.54-5.93.9-.64,1.93-1.09,3.01-1.31.88-.17,1.78-.21,2.66-.1l-5.02-7.17,4.26-2.99Z"/>
        <path class="cls-2" d="M184.96,91.45l4.79-.81v.37c0,1.73-.37,3.29-1.12,4.65-.73,1.34-1.9,2.58-3.44,3.66-1.88,1.32-3.85,1.98-5.84,1.98-.57,0-1.14-.05-1.71-.15-2.59-.48-4.73-1.89-6.35-4.2-1.66-2.37-2.28-4.9-1.87-7.53.42-2.63,1.78-4.77,4.07-6.37,1.86-1.3,3.81-1.96,5.79-1.96.6,0,1.2.05,1.8.17,2.62.5,4.85,2.05,6.64,4.61l.66.99-12.01,8.41c.81.74,1.73,1.16,2.74,1.24,1.12.11,2.25-.24,3.36-1.02,1.33-.92,2.15-2.21,2.45-3.82l.04-.22Z"/>
        <polygon class="cls-2" points="195.5 65.25 208.19 83.37 198.12 90.42 168.16 47.63 190.47 32 197.47 42.01 185.23 50.58 188.57 55.36 200.82 46.78 207.74 56.68 195.5 65.25"/>
        <path class="cls-2" d="M218.87,75.94c-.89.62-1.93.95-3.01.95-1.71,0-3.32-.83-4.3-2.24-.8-1.14-1.12-2.55-.87-3.92.24-1.37,1.02-2.59,2.16-3.38.88-.62,1.93-.96,3-.95,1.71-.01,3.32.83,4.3,2.23,1.66,2.37,1.09,5.64-1.28,7.31Z"/>
        <path class="cls-3" d="M173.11,27.13L21.51,133.81c-.05-.13-.11-.26-.16-.39l-.11.08c-2.84-6.99-5.3-14.12-7.39-21.36-5.87-20.36-8.85-41.73-8.85-63.54,0-3.5.08-7.01.24-10.51l.52-11.86,11.78,1.54c6.4.84,12.91,1.26,19.35,1.26,26.2,0,51.93-6.93,74.44-20.05l5.47-3.19,5.47,3.19c15.69,9.15,32.95,15.27,50.84,18.15Z"/>
      </g>
      <path class="cls-1" d="M220.15,68.63c-.98-1.4-2.59-2.24-4.3-2.23-1.07-.01-2.12.33-3,.95-1.14.79-1.92,2.01-2.16,3.38-.25,1.37.07,2.78.87,3.92.98,1.41,2.59,2.24,4.3,2.24,1.08,0,2.12-.33,3.01-.95,2.37-1.67,2.94-4.94,1.28-7.31ZM155.07,114.98c-1.65-2.37-4.92-2.95-7.29-1.3,0,.01-.01.01-.01.01-2.37,1.67-2.94,4.93-1.29,7.31.98,1.4,2.59,2.24,4.3,2.24,1.08,0,2.12-.33,3.01-.95,2.37-1.67,2.94-4.94,1.28-7.31ZM107.37,148.39c-.99-1.4-2.59-2.24-4.31-2.24-2.9.01-5.24,2.36-5.24,5.26.01,1.07.34,2.12.95,3,.98,1.4,2.59,2.24,4.3,2.24,1.08-.01,2.13-.34,3.01-.96,1.14-.79,1.91-2.01,2.15-3.38.25-1.37-.06-2.78-.86-3.92ZM195.5,65.25l12.24-8.57-6.92-9.9-12.25,8.58-3.34-4.78,12.24-8.57-7-10.01-22.31,15.63,29.96,42.79,10.07-7.05-12.69-18.12ZM147.19,126.86l-29.96-42.79-10.12,7.09,16.41,23.44-31.51-12.88-9.23,6.47,29.96,42.79,10.12-7.09-16.37-23.37,31.44,12.82,9.26-6.48ZM82.54,149.45l-.27,1.57c-.62,3.52-1.51,6.29-2.65,8.22-1.12,1.9-2.7,3.59-4.71,4.99-2.35,1.65-4.89,2.61-7.55,2.88-.5.05-.99.07-1.48.07-2.09,0-4.12-.47-6.03-1.4-2.35-1.15-4.43-2.98-6.14-5.43-2.48-3.54-3.34-7.24-2.64-11.31.7-4.08,2.73-7.24,6.22-9.68,2.9-2.03,6.25-3.06,9.98-3.06,1.59,0,3.29.19,5.04.55l1.54.33,2.31-11.79-1.41-.37c-2.45-.64-4.96-.96-7.49-.97-1.74,0-3.5.16-5.24.47-4.22.77-8.12,2.39-11.58,4.8-4.06,2.85-7.21,6.56-9.34,11.03-2.13,4.47-3,9.1-2.6,13.73.42,4.63,2.12,9.12,5.08,13.34,4.57,6.52,10.48,10.47,17.59,11.75,1.53.27,3.07.41,4.62.42,5.48,0,10.83-1.81,15.92-5.37,3.52-2.47,6.28-5.3,8.22-8.42,1.93-3.11,3.38-7.29,4.32-12.42l.28-1.49-11.99-2.44ZM184.96,91.45l-.04.22c-.3,1.61-1.12,2.9-2.45,3.82-1.11.78-2.24,1.13-3.36,1.02-1.01-.08-1.93-.5-2.74-1.24l12.01-8.41-.66-.99c-1.79-2.56-4.02-4.11-6.64-4.61-.6-.12-1.2-.17-1.8-.17-1.98,0-3.93.66-5.79,1.96-2.29,1.6-3.65,3.74-4.07,6.37-.41,2.63.21,5.16,1.87,7.53,1.62,2.31,3.76,3.72,6.35,4.2.57.1,1.14.15,1.71.15,1.99,0,3.96-.66,5.84-1.98,1.54-1.08,2.71-2.32,3.44-3.66.75-1.36,1.12-2.92,1.12-4.65v-.37l-4.79.81ZM174.26,89.3c.35-1.08,1.03-1.97,2.02-2.66.88-.62,1.84-.93,2.84-.93h.08c.84,0,1.67.25,2.38.71l-7.4,5.18c-.13-.95-.11-1.72.08-2.3ZM160.93,83.71l-4.26,2.99,5.02,7.17c-.88-.11-1.78-.07-2.66.1-1.08.22-2.11.67-3.01,1.31-2.01,1.41-3.2,3.41-3.54,5.93-.32,2.52.36,5.01,2.03,7.4,1.62,2.31,3.73,3.75,6.27,4.29.71.16,1.41.23,2.07.23,1.73,0,3.34-.51,4.78-1.52.89-.62,1.62-1.37,2.15-2.23.44-.69.79-1.53,1.03-2.48l.9,1.28,4.27-2.99-15.05-21.48ZM167.44,104.07c-.18,1.3-.82,2.31-1.93,3.09-1.07.75-2.25.99-3.53.71-1.29-.28-2.38-1.04-3.25-2.28-.86-1.22-1.2-2.5-1.03-3.78.18-1.29.8-2.29,1.9-3.06.84-.58,1.73-.88,2.65-.88.3,0,.61.03.92.09,1.26.25,2.34,1.01,3.21,2.26.89,1.27,1.25,2.57,1.06,3.85Z"/>
    </g>
  </g>
</svg>